<svg width="20" height="20" viewBox="0 0 20 20" fill="none" xmlns="http://www.w3.org/2000/svg">
<g id="Group 2850">
<path id="Vector" d="M16.825 3.18583C16.4025 2.76333 15.72 2.76333 15.2975 3.18583L10 8.4725L4.70253 3.175C4.28003 2.7525 3.59753 2.7525 3.17503 3.175C2.75253 3.5975 2.75253 4.28 3.17503 4.7025L8.47253 10L3.17503 15.2975C2.75253 15.72 2.75253 16.4025 3.17503 16.825C3.59753 17.2475 4.28003 17.2475 4.70253 16.825L10 11.5275L15.2975 16.825C15.72 17.2475 16.4025 17.2475 16.825 16.825C17.2475 16.4025 17.2475 15.72 16.825 15.2975L11.5275 10L16.825 4.7025C17.2367 4.29083 17.2367 3.5975 16.825 3.18583Z" fill="white"/>
</g>
</svg>
