<svg width="14" height="14" viewBox="0 0 14 14" fill="none" xmlns="http://www.w3.org/2000/svg">
<g id="icon/close_circle">
<circle id="Ellipse 2" cx="7" cy="7" r="7" fill="#98A2B3"/>
<g id="Union">
<path fill-rule="evenodd" clip-rule="evenodd" d="M4.88285 4.31638C4.72665 4.16017 4.47338 4.16017 4.31717 4.31638C4.16096 4.47259 4.16096 4.72585 4.31717 4.88206L6.43432 6.99922L4.31717 9.11637C4.16096 9.27258 4.16096 9.52585 4.31717 9.68206C4.47338 9.83827 4.72665 9.83827 4.88285 9.68206L7.00001 7.5649L9.11717 9.68206C9.27338 9.83827 9.52664 9.83827 9.68285 9.68206C9.83906 9.52585 9.83906 9.27258 9.68285 9.11637L7.5657 6.99922L9.68285 4.88206C9.83906 4.72585 9.83906 4.47259 9.68285 4.31638C9.52664 4.16017 9.27338 4.16017 9.11717 4.31638L7.00001 6.43353L4.88285 4.31638Z" fill="white"/>
<path d="M4.88285 4.31638L5.09499 4.10424V4.10424L4.88285 4.31638ZM4.31717 4.88206L4.10504 5.09419H4.10504L4.31717 4.88206ZM6.43432 6.99922L6.64646 7.21135L6.85859 6.99922L6.64646 6.78708L6.43432 6.99922ZM4.31717 9.11637L4.5293 9.3285H4.5293L4.31717 9.11637ZM4.31717 9.68206L4.5293 9.46993L4.5293 9.46992L4.31717 9.68206ZM4.88285 9.68206L4.67072 9.46993H4.67072L4.88285 9.68206ZM7.00001 7.5649L7.21214 7.35277L7.00001 7.14064L6.78788 7.35277L7.00001 7.5649ZM9.11717 9.68206L9.3293 9.46993L9.3293 9.46993L9.11717 9.68206ZM9.68285 9.68206L9.47072 9.46992L9.47072 9.46993L9.68285 9.68206ZM9.68285 9.11637L9.47072 9.3285L9.47072 9.3285L9.68285 9.11637ZM7.5657 6.99922L7.35356 6.78708L7.14143 6.99922L7.35356 7.21135L7.5657 6.99922ZM9.68285 4.88206L9.89498 5.09419V5.09419L9.68285 4.88206ZM9.68285 4.31638L9.89498 4.10424V4.10424L9.68285 4.31638ZM9.11717 4.31638L8.90503 4.10424V4.10424L9.11717 4.31638ZM7.00001 6.43353L6.78788 6.64566L7.00001 6.8578L7.21214 6.64566L7.00001 6.43353ZM4.5293 4.52851C4.56835 4.48946 4.63167 4.48946 4.67072 4.52851L5.09499 4.10424C4.82162 3.83088 4.3784 3.83088 4.10504 4.10424L4.5293 4.52851ZM4.5293 4.66993C4.49025 4.63088 4.49025 4.56756 4.5293 4.52851L4.10504 4.10424C3.83167 4.37761 3.83167 4.82083 4.10504 5.09419L4.5293 4.66993ZM6.64646 6.78708L4.5293 4.66993L4.10504 5.09419L6.22219 7.21135L6.64646 6.78708ZM4.5293 9.3285L6.64646 7.21135L6.22219 6.78708L4.10504 8.90424L4.5293 9.3285ZM4.5293 9.46992C4.49025 9.43087 4.49025 9.36756 4.5293 9.3285L4.10504 8.90424C3.83167 9.17761 3.83167 9.62082 4.10504 9.89419L4.5293 9.46992ZM4.67072 9.46993C4.63167 9.50898 4.56835 9.50898 4.5293 9.46993L4.10504 9.89419C4.3784 10.1676 4.82162 10.1676 5.09499 9.89419L4.67072 9.46993ZM6.78788 7.35277L4.67072 9.46993L5.09499 9.89419L7.21214 7.77703L6.78788 7.35277ZM9.3293 9.46993L7.21214 7.35277L6.78788 7.77703L8.90503 9.89419L9.3293 9.46993ZM9.47072 9.46993C9.43167 9.50898 9.36835 9.50898 9.3293 9.46993L8.90503 9.89419C9.1784 10.1676 9.62162 10.1676 9.89498 9.89419L9.47072 9.46993ZM9.47072 9.3285C9.50977 9.36756 9.50977 9.43087 9.47072 9.46992L9.89498 9.89419C10.1684 9.62082 10.1684 9.17761 9.89498 8.90424L9.47072 9.3285ZM7.35356 7.21135L9.47072 9.3285L9.89498 8.90424L7.77783 6.78708L7.35356 7.21135ZM9.47072 4.66993L7.35356 6.78708L7.77783 7.21135L9.89498 5.09419L9.47072 4.66993ZM9.47072 4.52851C9.50977 4.56756 9.50977 4.63088 9.47072 4.66993L9.89498 5.09419C10.1683 4.82083 10.1683 4.37761 9.89498 4.10424L9.47072 4.52851ZM9.3293 4.52851C9.36835 4.48946 9.43167 4.48946 9.47072 4.52851L9.89498 4.10424C9.62162 3.83088 9.1784 3.83088 8.90503 4.10424L9.3293 4.52851ZM7.21214 6.64566L9.3293 4.52851L8.90503 4.10424L6.78788 6.2214L7.21214 6.64566ZM4.67072 4.52851L6.78788 6.64566L7.21214 6.2214L5.09499 4.10424L4.67072 4.52851Z" fill="white"/>
</g>
</g>
</svg>
