<svg width="20" height="20" viewBox="0 0 20 20" fill="none" xmlns="http://www.w3.org/2000/svg">
<g clip-path="url(#clip0_2107_5177)">
<path d="M18.0001 5.15519C17.6945 5.7881 17.1021 6.16586 16.6525 6.67145C16.484 6.86137 16.2994 7.03721 16.1263 7.21461C15.0071 6.09438 13.9004 4.98719 12.7822 3.86799C12.8161 3.83199 12.8526 3.79077 12.8917 3.75164C13.3074 3.33527 13.7252 2.92203 14.1377 2.50305C14.3515 2.28547 14.569 2.07729 14.8767 1.99902H15.1891C15.4968 2.09451 15.7132 2.31365 15.9312 2.53592C16.4371 3.05091 16.9482 3.5612 17.4624 4.06783C17.6846 4.28645 17.9063 4.50142 18.0001 4.81135V5.15519Z" fill="#12997A"/>
<path d="M2.00953 17.9974C2.00953 17.0326 2.02726 16.0856 2.00067 15.1396C1.99024 14.777 2.10184 14.5339 2.35739 14.2798C5.47562 11.1789 8.56724 8.0509 11.675 4.9396C11.7115 4.90151 11.7491 4.86498 11.783 4.82324C12.9204 5.96122 14.0308 7.07206 15.1432 8.18499C14.6425 8.68537 14.1278 9.19931 13.6136 9.71429C10.8912 12.4379 8.16827 15.1615 5.44798 17.8878C5.36818 17.9676 5.29152 18.0005 5.17887 18C4.17962 17.9953 3.18089 17.9974 2.18164 17.9974C2.13053 17.9974 2.0789 17.9974 2.00953 17.9974Z" fill="#12997A"/>
</g>
<defs>
<clipPath id="clip0_2107_5177">
<rect width="16" height="16" fill="white" transform="translate(2 2)"/>
</clipPath>
</defs>
</svg>
