<svg width="20" height="21" viewBox="0 0 20 21" fill="none" xmlns="http://www.w3.org/2000/svg">
<g clip-path="url(#clip0_16733_408)">
<path d="M9.14827 10.9083C9.14827 10.8188 9.14827 10.7588 9.14827 10.6988C9.14827 8.28625 9.14827 5.87375 9.14827 3.46125C9.14827 3.035 9.34077 2.7325 9.69119 2.60084C10.1812 2.41625 10.7149 2.72375 10.7979 3.24084C10.8124 3.3325 10.8158 3.42709 10.8158 3.52042C10.8166 5.91209 10.8166 8.30375 10.8166 10.6954V10.9046C10.8745 10.8625 10.9116 10.8383 10.9454 10.81C11.7641 10.1279 12.5829 9.44584 13.4008 8.76334C13.6866 8.525 14.0016 8.4575 14.3416 8.62542C14.8916 8.8975 14.9704 9.61125 14.4945 10.0163C13.9841 10.4508 13.4654 10.8763 12.9508 11.3058C12.1529 11.9721 11.3545 12.6379 10.5583 13.3063C10.2054 13.6025 9.77202 13.6113 9.42202 13.3192C8.10952 12.2233 6.79702 11.1271 5.48452 10.0304C5.18244 9.77792 5.07952 9.4075 5.21411 9.06417C5.34369 8.7325 5.67911 8.51792 6.03827 8.53792C6.26202 8.55 6.43994 8.65875 6.60744 8.79875C7.40452 9.46625 8.20411 10.1304 9.00286 10.7954C9.04119 10.8271 9.08161 10.8567 9.14702 10.9079L9.14827 10.9083Z" fill="#555555"/>
<path d="M9.97464 17.5221C8.23339 17.5221 6.49172 17.5221 4.75047 17.5221C3.42714 17.5221 2.49672 16.5891 2.49672 15.2625C2.49672 14.6229 2.49256 13.9833 2.49881 13.3441C2.50297 12.9233 2.82672 12.5783 3.24047 12.5341C3.64839 12.4908 4.02922 12.7529 4.13047 13.1558C4.15422 13.25 4.15631 13.3512 4.15672 13.4491C4.15881 14.0521 4.15756 14.6554 4.15797 15.2583C4.15797 15.6679 4.35047 15.8604 4.75964 15.8604C8.24256 15.8604 11.7255 15.8604 15.2084 15.8604C15.6176 15.8604 15.8084 15.6683 15.8092 15.257C15.8105 14.6125 15.7996 13.9675 15.8146 13.3229C15.8288 12.7075 16.4988 12.335 17.0371 12.6329C17.308 12.7825 17.463 13.0204 17.4667 13.3291C17.4755 14.0466 17.488 14.7645 17.4638 15.4812C17.4259 16.6129 16.4613 17.5175 15.3092 17.5204C13.5313 17.525 11.7534 17.5216 9.97589 17.5216L9.97464 17.5221Z" fill="#555555"/>
</g>
<defs>
<clipPath id="clip0_16733_408">
<rect width="16" height="16" fill="white" transform="translate(2 2.02051)"/>
</clipPath>
</defs>
</svg>
