<svg width="24" height="24" viewBox="0 0 24 24" fill="none" xmlns="http://www.w3.org/2000/svg">
<rect width="24" height="24" rx="4" fill="#434C58"/>
<path d="M6 11.5714C6 11.3351 6.08901 11.0988 6.25084 10.9261L10.4019 6.27266C10.5718 6.09089 10.7579 6 10.9602 6C11.3972 6 11.7127 6.35446 11.7127 6.83617C11.7127 7.08157 11.6318 7.29061 11.4862 7.45421L10.3048 8.80844L8.3385 10.8171L9.83547 10.708H17.2151C17.6763 10.708 18 11.0625 18 11.5714C18 12.0804 17.6763 12.444 17.2151 12.444H9.83547L8.33041 12.3258L10.3048 14.3435L11.4862 15.6887C11.6318 15.8522 11.7127 16.0613 11.7127 16.3067C11.7127 16.7884 11.3972 17.1429 10.9602 17.1429C10.7579 17.1429 10.5718 17.052 10.4019 16.8702L6.25084 12.2167C6.08901 12.044 6 11.8077 6 11.5714Z" fill="white"/>
</svg>
