<svg width="16" height="16" viewBox="0 0 16 16" fill="none" xmlns="http://www.w3.org/2000/svg">
<path d="M3.4721 5.05754L6.41819 8.00363L3.4721 10.9497C3.17597 11.2458 3.17597 11.7242 3.4721 12.0203C3.76822 12.3165 4.24658 12.3165 4.54271 12.0203L8.0279 8.53514C8.32403 8.23901 8.32403 7.76066 8.0279 7.46453L4.54271 3.97933C4.24658 3.68321 3.76822 3.68321 3.4721 3.97933C3.18356 4.27546 3.17597 4.76141 3.4721 5.05754Z" fill="#17BF98"/>
<path d="M7.9721 5.05754L10.9182 8.00363L7.9721 10.9497C7.67597 11.2458 7.67597 11.7242 7.9721 12.0203C8.26822 12.3165 8.74658 12.3165 9.04271 12.0203L12.5279 8.53514C12.824 8.23901 12.824 7.76066 12.5279 7.46453L9.04271 3.97933C8.74658 3.68321 8.26822 3.68321 7.9721 3.97933C7.68356 4.27546 7.67597 4.76141 7.9721 5.05754Z" fill="#17BF98"/>
</svg>
