<svg width="16" height="16" viewBox="0 0 16 16" fill="none" xmlns="http://www.w3.org/2000/svg">
<path d="M1.99609 7.76485C2.04631 7.56065 2.09987 7.3598 2.22893 7.18573C2.64774 6.62186 3.46417 6.52999 3.98824 6.99641C4.14557 7.13663 4.29063 7.29062 4.43978 7.43977C5.08362 8.08323 5.72709 8.72707 6.37093 9.37054C6.40068 9.4003 6.43193 9.42894 6.48921 9.48361C6.51933 9.43935 6.54053 9.39509 6.57327 9.36236C8.35154 7.58222 10.1302 5.80283 11.9096 4.02418C12.3396 3.59421 12.9406 3.51201 13.4301 3.81217C14.0479 4.19082 14.1855 5.05634 13.7158 5.60756C13.6778 5.65219 13.6369 5.69422 13.5956 5.73588C11.5213 7.8106 9.44544 9.88457 7.37295 11.9611C7.08767 12.2468 6.75552 12.3926 6.35121 12.3569C6.09531 12.3342 5.86731 12.2394 5.67464 12.0668C5.6222 12.0199 5.57236 11.9701 5.52289 11.9206C4.53649 10.9346 3.55381 9.94483 2.56182 8.96438C2.28956 8.69546 2.05114 8.41761 1.99647 8.02335V7.76559L1.99609 7.76485Z" fill="#454B4D"/>
</svg>
