<svg width="24" height="24" viewBox="0 0 24 24" fill="none" xmlns="http://www.w3.org/2000/svg">
<g id="Question">
<path id="Vector" d="M12.6702 15.52H10.3802V15.34C10.3902 12.85 11.1002 12.09 12.3202 11.32C13.1602 10.8 13.8002 10.14 13.8002 9.17C13.8002 8.07 12.9502 7.37 11.8902 7.37C10.9202 7.37 9.98021 7.99 9.91021 9.29H7.47021C7.55021 6.67 9.50021 5.33 11.9102 5.33C14.5402 5.33 16.3602 6.8 16.3602 9.12C16.3602 10.71 15.5702 11.74 14.3002 12.5C13.1702 13.18 12.7002 13.86 12.6802 15.33V15.51L12.6702 15.52ZM11.5902 19.82C10.7502 19.82 10.0602 19.14 10.0802 18.31C10.0702 17.48 10.7602 16.81 11.5902 16.81C12.4202 16.81 13.1002 17.48 13.1002 18.31C13.1002 19.15 12.4002 19.82 11.5902 19.82Z" fill="#555555"/>
<path id="Vector_2" d="M12 24C5.38 24 0 18.62 0 12C0 5.38 5.38 0 12 0C18.62 0 24 5.38 24 12C24 18.62 18.62 24 12 24ZM12 1.2C6.04 1.2 1.2 6.04 1.2 12C1.2 17.96 6.04 22.8 12 22.8C17.96 22.8 22.8 17.96 22.8 12C22.8 6.04 17.95 1.2 12 1.2Z" fill="#555555"/>
</g>
</svg>
