<svg width="20" height="20" viewBox="0 0 20 20" fill="none" xmlns="http://www.w3.org/2000/svg">
<rect width="20" height="20" rx="10" fill="#FF5353"/>
<path d="M14 9.71429C14 9.55675 13.9407 9.39921 13.8328 9.28408L11.0654 6.18178C10.9521 6.06059 10.8281 6 10.6932 6C10.4019 6 10.1915 6.23631 10.1915 6.55745C10.1915 6.72104 10.2454 6.86041 10.3425 6.96947L11.1301 7.87229L12.441 9.21137L11.443 9.13866H6.52326C6.21578 9.13866 6 9.37497 6 9.71429C6 10.0536 6.21578 10.296 6.52326 10.296H11.443L12.4464 10.2172L11.1301 11.5623L10.3425 12.4591C10.2454 12.5682 10.1915 12.7075 10.1915 12.8711C10.1915 13.1923 10.4019 13.4286 10.6932 13.4286C10.8281 13.4286 10.9521 13.368 11.0654 13.2468L13.8328 10.1445C13.9407 10.0294 14 9.87182 14 9.71429Z" fill="white"/>
</svg>
