<svg width="12" height="12" viewBox="0 0 12 12" fill="none" xmlns="http://www.w3.org/2000/svg">
<g id="refresh">
<mask id="mask0_2845_8218" style="mask-type:alpha" maskUnits="userSpaceOnUse" x="0" y="0" width="12" height="12">
<rect id="Rectangle 2226" width="12" height="12" fill="#D9D9D9"/>
</mask>
<g mask="url(#mask0_2845_8218)">
<path id="Vector" d="M8.09493 2.04406C8.06438 1.87602 8.04147 1.7309 8.01855 1.57814C7.95745 1.2268 8.1484 0.928918 8.47683 0.867814C8.78999 0.806711 9.07259 1.02057 9.13369 1.36428C9.24826 2.01351 9.36283 2.66273 9.46976 3.3196C9.53087 3.67095 9.31701 3.93827 8.96566 3.99938C8.31643 4.10631 7.67484 4.22088 7.02562 4.32781C6.69719 4.38128 6.41458 4.19033 6.34584 3.86953C6.28474 3.56401 6.48332 3.27377 6.80412 3.20503C6.91869 3.18212 7.04089 3.1592 7.1631 3.14393C7.28531 3.12101 7.39988 3.10574 7.545 3.07518C7.4839 3.03699 7.45334 3.01408 7.41515 2.9988C5.16959 1.81492 2.38938 3.23558 2.03803 5.75611C1.76306 7.74198 3.08443 9.598 5.01683 9.94171C7.10964 10.316 9.01912 8.96405 9.38575 6.87125C9.43921 6.57337 9.64544 6.38242 9.9204 6.36715C10.1801 6.35187 10.4398 6.5199 10.4933 6.77959C10.5238 6.92472 10.5085 7.09275 10.478 7.23787C10.1037 9.19319 8.51502 10.7437 6.5597 11.0721C3.93988 11.5151 1.4881 9.84242 0.95344 7.25315C0.418783 4.61041 2.16024 2.02115 4.82589 1.52468C5.92575 1.31845 6.97215 1.47885 7.97272 1.98296C8.01091 1.99823 8.04147 2.01351 8.09493 2.04406Z" fill="#555555"/>
</g>
</g>
</svg>
