<svg width="32" height="32" viewBox="0 0 32 32" fill="none" xmlns="http://www.w3.org/2000/svg">
<path d="M32 16C32 24.8366 24.8366 32 16 32C7.16344 32 0 24.8366 0 16C0 7.16344 7.16344 0 16 0C24.8366 0 32 7.16344 32 16Z" fill="#139D7D"/>
<path d="M16.8309 5.83085C16.76 5.75995 16.6619 5.71673 16.5539 5.71618C16.3379 5.71618 16.1623 5.89178 16.1623 6.1078L16.1623 8.26498C14.1029 8.2209 12.0294 8.97064 10.461 10.539C7.40827 13.5917 7.40827 18.5643 10.461 21.617C13.5137 24.6697 18.4863 24.6697 21.539 21.617C24.3838 18.7722 24.5793 14.2635 22.1178 11.1892C22.1015 11.1689 22.0841 11.1494 22.0659 11.1308C21.9251 10.9873 21.7346 10.9034 21.5337 10.8964C21.3329 10.8895 21.137 10.96 20.9867 11.0934C20.8363 11.2267 20.743 11.4128 20.726 11.6131C20.709 11.8134 20.7696 12.0125 20.8953 12.1693C22.8661 14.6307 22.7178 18.2226 20.4312 20.5092C17.9771 22.9634 14.0229 22.9634 11.5688 20.5092C9.11465 18.0551 9.11465 14.101 11.5688 11.6468C12.8369 10.3787 14.5062 9.78122 16.1623 9.82715L16.1623 11.6468C16.1623 11.8628 16.3379 12.0384 16.5539 12.0384C16.6619 12.039 16.76 11.9947 16.8309 11.9238L19.3234 9.4312C19.4703 9.2843 19.5528 9.08506 19.5528 8.8773C19.5528 8.66955 19.4703 8.47031 19.3234 8.3234L16.8309 5.83085Z" fill="white"/>
</svg>
