<svg width="12" height="12" viewBox="0 0 12 12" fill="none" xmlns="http://www.w3.org/2000/svg">
<g id="icon/refresh">
<mask id="mask0_2213_5019" style="mask-type:alpha" maskUnits="userSpaceOnUse" x="0" y="0" width="12" height="12">
<rect id="Rectangle 2226" width="12" height="12" fill="#D9D9D9"/>
</mask>
<g mask="url(#mask0_2213_5019)">
<path id="Vector" d="M8.09542 2.04382C8.06487 1.87578 8.04195 1.73066 8.01904 1.5779C7.95794 1.22655 8.14889 0.928674 8.47732 0.86757C8.79047 0.806466 9.07308 1.02033 9.13418 1.36404C9.24875 2.01326 9.36332 2.66249 9.47025 3.31935C9.53136 3.6707 9.31749 3.93803 8.96615 3.99913C8.31692 4.10606 7.67533 4.22063 7.02611 4.32757C6.69767 4.38103 6.41507 4.19008 6.34633 3.86929C6.28522 3.56377 6.48381 3.27353 6.80461 3.20479C6.91917 3.18187 7.04138 3.15896 7.16359 3.14368C7.2858 3.12077 7.40037 3.10549 7.54549 3.07494C7.48438 3.03675 7.45383 3.01384 7.41564 2.99856C5.17008 1.81468 2.38986 3.23534 2.03852 5.75586C1.76355 7.74173 3.08492 9.59776 5.01732 9.94146C7.11012 10.3157 9.01961 8.96381 9.38623 6.87101C9.4397 6.57312 9.64593 6.38218 9.92089 6.3669C10.1806 6.35162 10.4403 6.51966 10.4937 6.77935C10.5243 6.92447 10.509 7.09251 10.4785 7.23763C10.1042 9.19294 8.51551 10.7434 6.56019 11.0719C3.94037 11.5149 1.48859 9.84217 0.953928 7.2529C0.419271 4.61017 2.16073 2.0209 4.82637 1.52443C5.92624 1.31821 6.97264 1.47861 7.97321 1.98271C8.0114 1.99799 8.04195 2.01326 8.09542 2.04382Z" fill="#12997A"/>
</g>
</g>
</svg>
