<svg width="16" height="16" viewBox="0 0 16 16" fill="none" xmlns="http://www.w3.org/2000/svg">
<g id="Frame 1000005125">
<path id="Vector" d="M7.19175 11.2171C8.18699 9.93592 9.16834 8.66559 10.1524 7.39872C10.147 7.39178 10.1416 7.38483 10.1358 7.38098C9.79935 7.61596 9.46332 7.84784 9.12692 8.08282C8.07681 8.81412 7.02978 9.54581 5.97696 10.2736C5.92565 10.3082 5.83913 10.3226 5.77844 10.3058C4.53553 9.9491 3.29338 9.58623 2.0547 9.22065C1.89117 9.17231 1.72454 9.1236 1.58102 9.04004C1.14738 8.78901 0.941764 8.39329 0.965046 7.89696C0.990607 7.38206 1.26686 7.02354 1.73974 6.8273C2.58628 6.476 3.43824 6.13165 4.29058 5.78421C7.48646 4.47182 10.6851 3.16291 13.8806 1.85362C14.6804 1.52485 15.5507 1.97706 15.6536 2.79971C15.6823 3.02614 15.6361 3.27477 15.5833 3.50061C15.2299 5.02387 14.8673 6.54599 14.5077 8.06849C14.2114 9.33189 13.9154 10.5922 13.6191 11.8556C13.4035 12.7678 13.2061 13.6855 12.9631 14.5912C12.7135 15.5244 11.5415 15.8169 10.8643 15.1216C10.1979 14.4401 9.55315 13.7362 8.90066 13.0438C8.36472 12.4757 7.82608 11.9041 7.29052 11.3328C7.25722 11.2974 7.22701 11.2623 7.18557 11.2164L7.19175 11.2171Z" fill="white"/>
</g>
</svg>
