<svg width="20" height="21" viewBox="0 0 20 21" fill="none" xmlns="http://www.w3.org/2000/svg">
<mask id="mask0_6652_1590" style="mask-type:luminance" maskUnits="userSpaceOnUse" x="2" y="1" width="16" height="19">
<path d="M18 1.5H2V19.5H18V1.5Z" fill="white"/>
</mask>
<g mask="url(#mask0_6652_1590)">
<path d="M2.44849 4.03906V4.14428C2.44849 4.10921 2.45521 4.07413 2.45858 4.03906H2.44849Z" fill="white"/>
<path d="M2.44853 4.58266C2.20094 4.58266 2 4.38625 2 4.14423V4.03901C2 3.797 2.20094 3.60059 2.44853 3.60059H2.4593C2.5813 3.60059 2.69971 3.64969 2.78583 3.73738C2.87194 3.82506 2.915 3.94431 2.90783 4.06356C2.90783 4.09162 2.90424 4.11618 2.90065 4.14073C2.90065 4.35819 2.73918 4.53706 2.52747 4.57214C2.50235 4.57565 2.47724 4.57915 2.44853 4.57915V4.58266Z" fill="#282828"/>
<path d="M16.0587 4.14464C16.0587 4.10957 16.0659 4.07449 16.0695 4.03942C16.1125 3.131 16.719 2.3734 17.5514 2.07527V1.93848H4.70549C3.49625 1.93848 2.51666 2.87145 2.45925 4.03942C2.45925 4.07449 2.44849 4.10606 2.44849 4.14464C2.44849 5.36171 3.46037 6.3508 4.70549 6.3508H17.5514V6.2105C16.6831 5.90185 16.0587 5.09865 16.0587 4.14464Z" fill="white"/>
<path d="M17.5515 6.78917H4.70554C3.21283 6.78917 2 5.60366 2 4.14458C2 4.10249 2.00359 4.06391 2.01076 4.02533C2.07894 2.60834 3.26306 1.5 4.70554 1.5H17.5515C17.7991 1.5 18 1.69641 18 1.93843V2.07521C18 2.26111 17.8816 2.42245 17.7058 2.48558C17.0204 2.7311 16.5539 3.3484 16.5181 4.06041C16.5181 4.09197 16.5145 4.11652 16.5109 4.14458C16.5109 4.88114 16.9917 5.54755 17.7058 5.80008C17.8852 5.86321 18 6.02806 18 6.21395V6.35425C18 6.59626 17.7991 6.79267 17.5515 6.79267V6.78917ZM4.70554 2.37685C3.74389 2.37685 2.95447 3.11691 2.90783 4.06041C2.90783 4.09197 2.90424 4.11652 2.90065 4.14458C2.90065 5.11964 3.71159 5.91232 4.70554 5.91232H16.3135C15.8722 5.43531 15.6102 4.81099 15.6102 4.14458C15.6102 4.10249 15.6138 4.06391 15.621 4.02533C15.6533 3.39751 15.9045 2.82229 16.3135 2.37685H4.70554Z" fill="#282828" stroke="black" stroke-width="0.3"/>
<path d="M4.70549 6.35069C3.46037 6.35069 2.44849 5.3616 2.44849 4.14453V16.7853H2.45566C2.45566 16.8098 2.44849 16.8344 2.44849 16.8589C2.44849 18.076 3.46037 19.0651 4.70549 19.0651H17.5514V6.35069H4.70549Z" fill="#FF1C1C"/>
<path d="M17.5515 19.4999H4.70554C3.21283 19.4999 2 18.3144 2 16.8553C2 16.8413 2 16.8308 2 16.8167C2 16.8062 2 16.7957 2 16.7817V4.14448C2 3.90247 2.20094 3.70605 2.44853 3.70605C2.69612 3.70605 2.89706 3.90247 2.89706 4.14448C2.89706 5.11954 3.70801 5.91221 4.70554 5.91221H17.5515C17.7991 5.91221 18 6.10863 18 6.35064V19.0615C18 19.3035 17.7991 19.4999 17.5515 19.4999ZM2.89706 16.708C2.90424 16.7396 2.90424 16.7676 2.90424 16.7992C2.90424 16.8167 2.89706 16.8658 2.89706 16.8834C2.89706 17.8304 3.70801 18.6266 4.70554 18.6266H17.1029V6.78906H4.70554C4.00942 6.78906 3.37789 6.53302 2.89706 6.10863V16.7045V16.708Z" fill="#282828" stroke="black" stroke-width="0.3"/>
<path d="M15.883 4.53408H9.90141C9.65382 4.53408 9.45288 4.33767 9.45288 4.09566C9.45288 3.85365 9.65382 3.65723 9.90141 3.65723H15.883C16.1306 3.65723 16.3316 3.85365 16.3316 4.09566C16.3316 4.33767 16.1306 4.53408 15.883 4.53408Z" fill="#282828" stroke="black" stroke-width="0.3"/>
<path d="M11.6455 14.0781L10.6567 10.6797H11.5399L12.0583 12.9357H12.0871L12.6823 10.6797H13.4119L13.9975 12.9357H14.0263L14.5543 10.6797H15.4279L14.4487 14.0781H13.6807L13.0567 11.9853H13.0279L12.4135 14.0781H11.6455Z" fill="white"/>
<path d="M7.97998 14.0781V10.6797H10.332V11.3325H8.77678V12.0525H10.2072V12.7053H8.77678V13.4253H10.332V14.0781H7.97998Z" fill="white"/>
<path d="M7.47082 10.6797V14.0781H6.78922L5.40682 12.0813H5.38762V14.0781H4.59082V10.6797H5.28202L6.64522 12.6765H6.66442V10.6797H7.47082Z" fill="white"/>
</g>
</svg>
