<svg width="16" height="17" viewBox="0 0 16 17" fill="none" xmlns="http://www.w3.org/2000/svg">
<path d="M10.5954 9.60826L8.53847 8.91903V5.92518C8.53847 5.62364 8.30155 5.38672 8.00001 5.38672C7.69847 5.38672 7.46155 5.62364 7.46155 5.92518V9.30672C7.46155 9.54364 7.61232 9.74826 7.8277 9.81287L10.2508 10.6206C10.5308 10.7175 10.8431 10.5667 10.9292 10.2759C11.0262 9.99595 10.8754 9.68364 10.5846 9.59749L10.5954 9.60826Z" fill="#207FFC"/>
<path d="M8 1.5C4.13385 1.5 1 4.63385 1 8.5C1 12.3662 4.13385 15.5 8 15.5C11.8662 15.5 15 12.3662 15 8.5C15 4.63385 11.8662 1.5 8 1.5ZM8 14.4231C4.72615 14.4231 2.07692 11.7738 2.07692 8.5C2.07692 5.22615 4.72615 2.57692 8 2.57692C11.2738 2.57692 13.9231 5.22615 13.9231 8.5C13.9231 11.7738 11.2738 14.4231 8 14.4231Z" fill="#207FFC"/>
</svg>
