<svg width="16" height="16" viewBox="0 0 16 16" fill="none" xmlns="http://www.w3.org/2000/svg">
<path fill-rule="evenodd" clip-rule="evenodd" d="M3.35208 2.36225C3.07871 2.08888 2.6355 2.08888 2.36213 2.36225C2.08876 2.63562 2.08876 3.07883 2.36213 3.3522L7.01001 8.00008L2.36213 12.648C2.08876 12.9213 2.08876 13.3645 2.36213 13.6379C2.6355 13.9113 3.07871 13.9113 3.35208 13.6379L7.99996 8.99003L12.6478 13.6379C12.9212 13.9113 13.3644 13.9113 13.6378 13.6379C13.9112 13.3645 13.9112 12.9213 13.6378 12.648L8.98991 8.00008L13.6378 3.3522C13.9112 3.07883 13.9112 2.63562 13.6378 2.36225C13.3644 2.08888 12.9212 2.08888 12.6478 2.36225L7.99996 7.01013L3.35208 2.36225Z" fill="white"/>
</svg>
