<svg width="14" height="14" viewBox="0 0 14 14" fill="none" xmlns="http://www.w3.org/2000/svg">
<path d="M7.00454 12.5893C5.41753 12.5893 3.83517 12.5893 2.24816 12.5893C1.4593 12.5893 0.837486 12.1021 0.656511 11.355C0.624028 11.2157 0.610107 11.0673 0.610107 10.9234C0.610107 9.90252 0.610107 8.88628 0.610107 7.8654C0.610107 6.9002 1.2876 6.20415 2.2528 6.19951C5.41753 6.19487 8.58226 6.19487 11.747 6.19951C12.7122 6.19951 13.3897 6.89556 13.3897 7.86076C13.3897 8.88164 13.3897 9.89788 13.3897 10.9188C13.3897 11.9025 12.7076 12.5847 11.7238 12.5893C10.1507 12.5893 8.57298 12.5893 6.9999 12.5893H7.00454Z" fill="#475467"/>
<path d="M6.99526 5.40136C5.68667 5.40136 4.37345 5.40136 3.06486 5.40136C2.59155 5.40136 2.25744 5.10902 2.21104 4.66354C2.16927 4.24127 2.4941 3.84684 2.92101 3.80972C2.98134 3.80508 3.0463 3.80508 3.10663 3.80508C5.70059 3.80508 8.29456 3.80508 10.8885 3.80508C10.9953 3.80508 11.1113 3.80508 11.2134 3.83756C11.5985 3.94429 11.8352 4.31088 11.7841 4.70995C11.7284 5.1183 11.4036 5.40136 10.9721 5.40136C10.16 5.40136 9.34793 5.40136 8.5405 5.40136C8.02542 5.40136 7.51034 5.40136 6.99526 5.40136Z" fill="#475467"/>
<path d="M6.9999 1.41064C7.80268 1.41064 8.60083 1.41064 9.40361 1.41064C9.72844 1.41064 9.97438 1.56842 10.1136 1.86076C10.2528 2.1531 10.2203 2.44081 10.0254 2.69603C9.87693 2.89556 9.66811 3.00229 9.42217 3.00229C7.81196 3.00229 6.19711 3.00693 4.58691 3.00229C4.15071 3.00229 3.81196 2.64034 3.81196 2.20879C3.81196 1.76795 4.15071 1.41528 4.60083 1.41528C5.40361 1.41064 6.20175 1.41528 7.00454 1.41528L6.9999 1.41064Z" fill="#475467"/>
</svg>
