<svg width="16" height="16" viewBox="0 0 16 16" fill="none" xmlns="http://www.w3.org/2000/svg">
<g clip-path="url(#clip0_6652_691)">
<path d="M8.55996 8.35466V4.60609C8.55996 4.38895 8.54853 4.17181 8.49139 3.96609C8.37711 3.50895 7.93139 3.30324 7.51996 3.52038C7.34853 3.61181 7.18853 3.73752 7.02854 3.86324C6.43425 4.33181 5.83996 4.80038 5.25711 5.28038C5.18853 5.33752 5.15425 5.46324 5.15425 5.55466V10.6747C5.15425 10.8575 5.14282 11.0518 5.15425 11.2347C5.15425 11.3147 5.21139 11.4175 5.27996 11.4747C5.83996 11.9432 6.39996 12.4004 6.97139 12.8575C7.14282 12.9947 7.33711 13.1204 7.53139 13.2004C7.97711 13.3947 8.38853 13.1775 8.50282 12.6975C8.54853 12.5147 8.55996 12.3089 8.55996 12.1147V11.9961V8.34324V8.35466Z" fill="#207FFC"/>
<path d="M4.38854 8.37683V5.91969C4.38854 5.73683 4.34282 5.67969 4.14854 5.67969C3.61139 5.69112 3.07425 5.67969 2.54854 5.70254C1.75997 5.7254 1.16568 6.31969 1.14282 7.11969C1.14282 7.9654 1.14282 8.81112 1.14282 9.65683C1.14282 10.4568 1.77139 11.0397 2.58282 11.0625C3.11996 11.074 3.65711 11.0625 4.18282 11.0625C4.34282 11.0625 4.37711 11.0054 4.37711 10.8568V8.37683H4.38854Z" fill="#207FFC"/>
<path d="M14.0684 8.1942C14.0227 7.06277 13.6913 5.86277 13.0284 4.7542C12.8227 4.42277 12.537 4.3542 12.2627 4.57134C12.057 4.73134 12.0341 4.93706 12.1713 5.22277C12.3998 5.73706 12.6741 6.22849 12.8227 6.76563C13.3141 8.45706 13.0855 10.0571 12.1598 11.5542C12.0798 11.6913 11.9884 11.8285 11.9313 11.9656C11.8398 12.1713 11.9084 12.3771 12.0798 12.5028C12.2627 12.6399 12.5027 12.6285 12.6741 12.4685C12.7427 12.4113 12.7998 12.3313 12.8455 12.2628C13.6227 11.1313 14.057 9.73706 14.0684 8.1942Z" fill="#207FFC"/>
<path d="M11.5086 8.38842C11.5086 8.04557 11.5086 7.70271 11.4171 7.35985C11.3371 6.98271 11.2229 6.62842 11.0629 6.27414C10.9714 6.06842 10.8229 5.91985 10.5714 5.93128C10.2514 5.94271 10.0571 6.217 10.1371 6.51414C10.2514 6.937 10.4114 7.34842 10.48 7.77128C10.5943 8.47985 10.5486 9.17699 10.2629 9.85128C10.2171 9.97699 10.1714 10.1027 10.1371 10.2284C10.0686 10.4684 10.16 10.6856 10.3771 10.777C10.5943 10.8799 10.8343 10.8341 10.96 10.617C11.0857 10.3999 11.2 10.1599 11.2571 9.90842C11.3829 9.39414 11.4743 8.89128 11.4857 8.37699H11.5086V8.38842Z" fill="#207FFC"/>
</g>
<defs>
<clipPath id="clip0_6652_691">
<rect width="12.9257" height="9.84" fill="white" transform="translate(1.14282 3.42871)"/>
</clipPath>
</defs>
</svg>
