<svg width="14" height="14" viewBox="0 0 14 14" fill="none" xmlns="http://www.w3.org/2000/svg">
<g clip-path="url(#clip0_5384_161606)">
<path d="M6.96617 13.1243C6.69894 13.099 6.40701 13.0835 6.11902 13.0416C5.64389 12.9721 5.33416 12.6047 5.32262 12.1213C5.30714 11.4709 4.88077 10.9671 4.24253 10.8561C3.96311 10.8073 3.69523 10.8561 3.44217 10.9872C2.91662 11.2597 2.48992 11.1645 2.13307 10.6956C1.81049 10.2719 1.54854 9.81287 1.34689 9.31962C1.14227 8.81944 1.27934 8.38614 1.73669 8.09553C2.47905 7.62368 2.58053 6.62926 1.94295 6.04769C1.86783 5.97915 1.78018 5.92281 1.69451 5.8668C1.29911 5.60946 1.15084 5.16364 1.32317 4.72574C1.53965 4.17548 1.83323 3.66805 2.20095 3.2051C2.4975 2.83178 2.96374 2.74875 3.40922 2.98236C3.95718 3.27001 4.57236 3.17611 4.97797 2.73985C5.19972 2.50129 5.31307 2.21661 5.32164 1.89106C5.33547 1.3721 5.63499 1.01987 6.14341 0.941445C6.72431 0.851821 7.30654 0.852809 7.88712 0.94474C8.3583 1.01954 8.66341 1.38495 8.67824 1.87162C8.6934 2.3774 8.91976 2.7639 9.36755 3.00147C9.75669 3.20774 10.1656 3.21466 10.5488 2.99851C11.021 2.73227 11.5498 2.83639 11.8803 3.30395C12.1828 3.73197 12.451 4.17614 12.6504 4.66149C12.8583 5.16793 12.7215 5.60023 12.2576 5.89546C11.5254 6.36137 11.4203 7.34262 12.0428 7.92682C12.1199 7.99931 12.2101 8.05961 12.2994 8.11727C12.6971 8.37494 12.8487 8.81713 12.678 9.25602C12.4619 9.81123 12.166 10.3216 11.7946 10.7872C11.5083 11.146 11.0431 11.2409 10.6299 11.0225C10.1715 10.7803 9.71682 10.7625 9.27266 11.0409C8.89472 11.2778 8.69801 11.6334 8.67989 12.0779C8.65715 12.6413 8.35105 12.9892 7.78925 13.0571C7.52434 13.0891 7.25744 13.1016 6.96584 13.125L6.96617 13.1243ZM8.81531 6.95447C8.77709 5.93731 7.94972 5.14157 6.9665 5.17683C5.94472 5.2134 5.14502 6.04571 5.18325 7.03289C5.22279 8.04709 6.05115 8.84382 7.03272 8.81219C8.04956 8.77924 8.85222 7.94297 8.81498 6.95447H8.81531Z" fill="#667085"/>
</g>
<defs>
<clipPath id="clip0_5384_161606">
<rect width="14" height="14" fill="white"/>
</clipPath>
</defs>
</svg>
