<svg width="36" height="37" viewBox="0 0 36 37" fill="none" xmlns="http://www.w3.org/2000/svg">
<path d="M26.958 17.5084C23.9279 15.3821 20.0407 16.2495 18.0022 19.4458C16.2972 22.1163 13.7264 22.4487 12.7303 22.4487C9.4881 22.4487 7.26847 20.0947 6.61031 17.661C6.60368 17.6359 6.59926 17.6177 6.59264 17.5927C6.58601 17.5653 6.57718 17.538 6.57055 17.5107C6.31215 16.4953 6.2481 16.0081 6.2481 14.929C6.2481 9.10775 12.0412 2.62397 20.3875 2.62397C28.7337 2.62397 33.8267 9.33086 35.0879 13.0577C35.0658 12.9939 35.0459 12.9256 35.0238 12.8596C32.5966 5.5699 25.8891 0.326874 17.9934 0.326874C8.05693 0.326874 0 8.63194 0 18.879C0 28.0377 6.40491 35.8784 15.2923 35.8784C22.3818 35.8784 27.148 31.7805 29.3323 26.1322C30.5293 23.0451 29.6812 19.414 26.958 17.5084Z" fill="#003964"/>
<path d="M35.1984 13.4196C34.1449 9.78389 29.2175 2.62396 20.3876 2.62396C12.0391 2.62396 6.24817 9.10546 6.24817 14.929C6.24817 16.0104 6.31222 16.4953 6.56841 17.5107C6.46019 17.0668 6.40277 16.6205 6.40277 16.1857C6.40277 10.1208 12.2909 5.92049 18.3446 5.92049C26.5429 5.92049 33.1863 12.7708 33.1863 21.217C33.1863 27.8397 29.4892 33.5699 24.1157 36.3269H24.1179C31.0418 33.7452 35.989 26.9085 35.989 18.8789C35.989 16.978 35.7395 15.3024 35.1961 13.4196" fill="#ED1A3B"/>
</svg>
