<svg width="16" height="16" viewBox="0 0 16 16" fill="none" xmlns="http://www.w3.org/2000/svg">
<path fill-rule="evenodd" clip-rule="evenodd" d="M8.00808 2C9.98881 2.12004 11.5923 2.79744 12.8013 4.32372H12.7927C14.6534 6.68173 14.2847 9.77716 12.2268 11.7322C11.2664 12.6411 10.126 13.1384 8.84839 13.3442C7.87089 13.4985 6.92768 13.3699 5.99305 13.0612C5.83871 13.0184 5.71866 13.0269 5.58147 13.1041C5.33709 13.237 5.09057 13.3678 4.84405 13.4985C4.59753 13.6293 4.35101 13.7601 4.10664 13.893C3.96944 13.9701 3.82368 14.0387 3.66076 13.9701C3.45497 13.8844 3.36065 13.6958 3.39495 13.4385C3.46354 12.9412 3.53214 12.4439 3.61788 11.9465C3.66076 11.7322 3.62646 11.5864 3.47212 11.4149C2.60608 10.4803 2.10876 9.34843 2.01444 8.04509C1.92869 6.90467 2.2288 5.84999 2.81187 4.90679C3.77223 3.32906 5.18704 2.46303 6.91911 2.12862C7.18837 2.07594 7.46562 2.05123 7.7045 2.02994C7.81554 2.02004 7.91828 2.01088 8.00808 2ZM5.42746 8.85882C5.89888 8.85882 6.2846 8.4731 6.2846 8.00167C6.2846 7.53025 5.89888 7.14453 5.42746 7.14453C4.95603 7.14453 4.57031 7.53025 4.57031 8.00167C4.57031 8.4731 4.95603 8.85882 5.42746 8.85882ZM8.85686 8.00167C8.85686 8.4731 8.47115 8.85882 7.99972 8.85882C7.52829 8.85882 7.14258 8.4731 7.14258 8.00167C7.14258 7.53025 7.52829 7.14453 7.99972 7.14453C8.47115 7.14453 8.85686 7.53025 8.85686 8.00167ZM10.572 8.85882C11.0434 8.85882 11.4291 8.4731 11.4291 8.00167C11.4291 7.53025 11.0434 7.14453 10.572 7.14453C10.1006 7.14453 9.71484 7.53025 9.71484 8.00167C9.71484 8.4731 10.1006 8.85882 10.572 8.85882Z" fill="#207FFC"/>
</svg>
