<svg width="16" height="16" viewBox="0 0 16 16" fill="none" xmlns="http://www.w3.org/2000/svg">
<path d="M13.6188 14.7902L10.151 11.2659C9.06898 12.1356 7.70193 12.5715 6.31615 12.4885C4.93037 12.4055 3.62511 11.8096 2.65467 10.8169C1.59307 9.72997 0.999139 8.27066 1 6.75133C1.00086 5.23201 1.59644 3.77337 2.65928 2.68762C3.17942 2.15402 3.80103 1.72983 4.48754 1.44001C5.17405 1.15019 5.9116 1.00058 6.65679 1C7.40197 0.999419 8.13975 1.14787 8.82671 1.43662C9.51368 1.72536 10.136 2.14858 10.6569 2.68136C11.5971 3.64437 12.1743 4.90354 12.2901 6.24435C12.406 7.58517 12.0534 8.92467 11.2923 10.0347L14.7035 13.503C14.7969 13.5833 14.8717 13.6829 14.9229 13.7949C14.9741 13.9069 15.0004 14.0287 15 14.1519C15.0019 14.3747 14.9153 14.5892 14.7591 14.7482C14.603 14.9073 14.3901 14.9978 14.1673 15C13.9648 15 13.7695 14.9253 13.6188 14.7902ZM5.51577 2.43861C4.77046 2.64405 4.09272 3.0429 3.55127 3.59472C2.72611 4.43795 2.26373 5.57061 2.26305 6.75038C2.26238 7.93016 2.72345 9.06335 3.54765 9.90753C3.95235 10.3211 4.43563 10.6496 4.96909 10.8738C5.50255 11.098 6.07544 11.2133 6.65409 11.2129C7.23274 11.2126 7.80549 11.0966 8.33869 10.8718C8.87189 10.647 9.35478 10.3179 9.75901 9.9039C10.5843 9.06066 11.0467 7.92793 11.0474 6.74807C11.0481 5.56822 10.5869 4.43496 9.76263 3.59077C9.35661 3.17798 8.87255 2.85005 8.33861 2.62607C7.80468 2.40209 7.23152 2.28653 6.6525 2.28611C6.26873 2.28606 5.88666 2.33723 5.51643 2.43828L5.51577 2.43861Z" fill="#98A2B3"/>
</svg>
