<svg width="16" height="17" viewBox="0 0 16 17" fill="none" xmlns="http://www.w3.org/2000/svg">
<path d="M0.34681 16.0239C0.317175 16.0056 0.288375 15.9855 0.257488 15.9688C-0.0138165 15.8194 -0.0789295 15.4888 0.117245 15.2493C0.153558 15.205 0.196132 15.1662 0.236619 15.1257C1.32977 14.0305 2.4225 12.9348 3.5169 11.8408C3.56031 11.7974 3.62 11.7699 3.68344 11.7273C3.37373 11.4965 3.10368 11.3041 2.84323 11.0991C1.83231 10.3015 0.937419 9.38824 0.153558 8.36605C-0.0501295 8.10059 -0.0526339 7.92069 0.148966 7.66107C1.34772 6.11965 2.74264 4.79819 4.45687 3.84236C5.5976 3.20625 6.81137 2.81975 8.132 2.84771C9.28358 2.87192 10.3509 3.21293 11.3647 3.74218C11.4106 3.76598 11.4565 3.79018 11.5488 3.85571C11.5809 3.80187 11.6043 3.73884 11.6469 3.69544C12.7751 2.56138 13.9045 1.42858 15.0369 0.29912C15.1496 0.186842 15.2828 0.0962678 15.4063 -0.00390625C15.4898 -0.00390625 15.5728 -0.00390625 15.6563 -0.00390625C15.8116 0.0699721 15.926 0.185172 15.9998 0.340442V0.590877C15.9001 0.714425 15.8103 0.848825 15.6989 0.960686C10.7895 5.88299 5.8785 10.8032 0.966219 15.7222C0.854358 15.834 0.720793 15.9242 0.597245 16.0244H0.347227L0.34681 16.0239ZM9.94014 5.37293C8.79482 4.46845 6.86313 4.42295 5.60553 5.76946C4.37547 7.08633 4.55036 8.94706 5.38723 9.96508C5.59301 9.75847 5.80003 9.5552 5.99913 9.34442C6.02 9.32229 6.00956 9.24842 5.98911 9.21294C5.70821 8.72584 5.60845 8.20702 5.68609 7.64897C5.85638 6.42309 7.06139 5.51109 8.2856 5.68097C8.64706 5.73106 8.97847 5.85502 9.27649 6.03867C9.50063 5.81412 9.71642 5.59749 9.93972 5.37335L9.94014 5.37293Z" fill="#D0D5DD"/>
<path d="M15.9982 8.13498C15.6125 8.73268 15.1321 9.25275 14.6392 9.75905C13.5861 10.8413 12.4212 11.7767 11.0517 12.4329C10.0136 12.93 8.9255 13.2146 7.76682 13.1696C6.94832 13.1378 6.16446 12.9454 5.3927 12.6269C5.42901 12.5852 5.45698 12.5497 5.4887 12.5176C5.92613 12.0785 6.36648 11.6419 6.80015 11.1991C6.87319 11.1243 6.93204 11.1135 7.02971 11.1448C8.96349 11.7642 11.0279 10.4223 11.255 8.40628C11.3084 7.93213 11.265 7.47133 11.1289 7.01553C11.1143 6.96628 11.1172 6.88406 11.1485 6.85275C11.7955 6.19578 12.4475 5.54381 13.1103 4.87891C13.2543 4.99578 13.3962 5.1068 13.5335 5.22367C14.3779 5.94117 15.1421 6.73588 15.8179 7.61491C15.8834 7.70047 15.9385 7.79397 15.9986 7.88371V8.13414L15.9982 8.13498Z" fill="#D0D5DD"/>
<path d="M7.69243 10.3022C8.5556 9.43193 9.41877 8.56167 10.2819 7.69141C10.2965 7.70184 10.3107 7.71186 10.3253 7.72229C10.4034 8.45231 10.201 9.09676 9.68965 9.63103C9.15164 10.1933 8.48464 10.4157 7.71956 10.3456C7.71038 10.331 7.7012 10.3168 7.69202 10.3022H7.69243Z" fill="#D0D5DD"/>
</svg>
