<svg width="36" height="37" viewBox="0 0 36 37" fill="none" xmlns="http://www.w3.org/2000/svg">
<g clip-path="url(#clip0_5182_15128)">
<path d="M0.527996 10.4804H0.491997L2.856 9.05534L5.592 7.40357L5.976 7.16606L17.568 0.170351C17.604 0.148759 17.64 0.159555 17.676 0.137964C17.7 0.137964 17.724 0.127168 17.76 0.116372C17.904 0.0731885 18.036 0.0731885 18.18 0.116372C18.204 0.116372 18.228 0.127168 18.264 0.137964C18.3 0.148759 18.336 0.137964 18.372 0.170351L19.32 0.742531L22.584 2.70738L25.104 4.22959L33.108 9.05534L35.472 10.4804H35.436C35.76 10.6747 36 10.9878 36 11.3656V14.6044C36 15.1982 35.46 15.684 34.8 15.684H1.2C0.539997 15.684 0 15.1982 0 14.6044V11.3656C0 10.9878 0.227997 10.6639 0.563999 10.4804H0.527996Z" fill="#98A2B3"/>
<path d="M7.64422 15.6836H3.32422V30.0836H7.64422V15.6836Z" fill="#D0D5DD"/>
<path d="M16.0441 15.6836H11.7241V30.0836H16.0441V15.6836Z" fill="#D0D5DD"/>
<path d="M24.444 15.6836H20.124V30.0836H24.444V15.6836Z" fill="#D0D5DD"/>
<path d="M32.8444 15.6836H28.5244V30.0836H32.8444V15.6836Z" fill="#D0D5DD"/>
<path d="M34.8 30.084H1.2C0.537258 30.084 0 30.6212 0 31.284V34.884C0 35.5467 0.537258 36.084 1.2 36.084H34.8C35.4627 36.084 36 35.5467 36 34.884V31.284C36 30.6212 35.4627 30.084 34.8 30.084Z" fill="#98A2B3"/>
<circle cx="2.68652" cy="2.68652" r="2.68652" transform="matrix(-1 0 0 1 20.6865 6.39844)" fill="white"/>
</g>
<defs>
<clipPath id="clip0_5182_15128">
<rect width="36" height="36" fill="white" transform="translate(0 0.0839844)"/>
</clipPath>
</defs>
</svg>
