<svg width="194" height="83" viewBox="0 0 194 83" fill="none" xmlns="http://www.w3.org/2000/svg">
<path d="M33.4389 0.373535L1.24122 30.1029C0.221765 31.0478 0.16295 32.6379 1.11052 33.6545C1.60717 34.1857 2.28027 34.4561 2.95664 34.4561C3.0612 34.4561 3.16902 34.4398 3.27358 34.4268C3.36834 34.4366 3.46309 34.4561 3.56112 34.4561H15.7651V60.396C15.7651 62.1718 17.2061 63.6087 18.9868 63.6087C20.7676 63.6087 22.2086 62.1685 22.2086 60.396V48.5062H34.2165V60.396C34.2165 62.1718 35.6575 63.6087 37.4382 63.6087C39.219 63.6087 40.66 62.1685 40.66 60.396V32.5271C40.66 30.7513 39.219 29.3144 37.4382 29.3144C35.6575 29.3144 34.2165 30.7513 34.2165 32.5271V42.3739H22.2086V32.5271C22.2086 30.7513 20.7676 29.3144 18.9868 29.3144C18.6928 29.3144 9.47197 29.3372 9.47197 29.3372L30.4883 9.86517C33.4029 7.14117 35.4516 7.08904 38.3205 9.66315C41.1239 12.1786 51.4589 21.4813 56.8829 26.3623C58.569 27.8807 59.7714 28.9625 60.1341 29.2883L91.3842 29.2883C92.237 29.2883 93.0015 28.7605 93.3022 27.9622C93.6028 27.1639 93.3773 26.2646 92.7336 25.7041L63.7054 0.373535L33.4389 0.373535Z" fill="#005DAB"/>
<path d="M55.2588 38.1196C48.0181 38.1196 44.3716 43.8087 44.3716 50.824C44.3716 57.8393 48.3056 63.5317 55.2588 63.5317C62.212 63.5317 66.146 57.8426 66.146 50.824C66.146 43.8055 62.5028 38.1196 55.2588 38.1196ZM55.2588 58.693C51.9227 58.693 50.0374 55.1707 50.0374 50.824C50.0374 46.4774 51.7855 42.9551 55.2588 42.9551C58.7321 42.9551 60.4802 46.4774 60.4802 50.824C60.4802 55.1707 58.5949 58.693 55.2588 58.693Z" fill="#005DAB"/>
<path d="M94.2762 38.1907C91.5773 38.1907 89.0319 40.0382 86.9963 42.596C86.0978 39.9274 84.317 38.1907 81.4743 38.1907C78.9453 38.1907 76.5306 39.7482 74.5211 41.9867V40.7225C74.5211 39.1747 73.2631 37.917 71.7078 37.917C70.1525 37.917 68.8945 39.1715 68.8945 40.7225V60.5073C68.8945 62.055 70.1525 63.3127 71.7078 63.3127C73.2631 63.3127 74.5211 62.0583 74.5211 60.5073V48.5621C74.5211 46.2715 76.1385 43.3031 78.5434 43.3031C80.9482 43.3031 82.0788 44.7759 82.0788 46.0792V60.5073C82.0788 62.055 83.3367 63.3127 84.8921 63.3127C86.4474 63.3127 87.7053 62.0583 87.7053 60.5073V49.7286C87.7053 46.6625 89.3228 43.3031 91.7276 43.3031C94.1325 43.3031 95.263 45.105 95.263 46.4051V60.504C95.263 62.0518 96.521 63.3095 98.0763 63.3095C99.6316 63.3095 100.89 62.055 100.89 60.504V46.9134C100.89 41.0353 99.1513 38.1874 94.2828 38.1874L94.2762 38.1907Z" fill="#005DAB"/>
<path d="M126.19 61.4238C126.19 61.4043 126.184 61.388 126.184 61.3717C126.184 61.3554 126.19 61.3424 126.19 61.3261C126.19 55.9139 121.773 49.3418 115.401 49.3418C109.994 49.3418 105.622 53.4539 104.449 59.5275H98.2209C97.1687 59.5275 96.3159 60.3779 96.3159 61.4271C96.3159 62.4763 97.1687 63.3267 98.2209 63.3267H104.151C104.383 70.0813 109.356 75.1644 115.502 75.1644C121.201 75.1644 124.272 71.1338 124.436 70.9676C125.416 69.9608 126.197 68.4684 125.187 67.4909C124.178 66.5134 122.564 66.5362 121.583 67.5431C121.557 67.5691 119.015 70.0813 115.502 70.0813C112.261 70.0813 110.065 67.1455 109.817 63.3235H124.292C125.344 63.3235 126.197 62.473 126.197 61.4238H126.19ZM115.401 54.4249C118.584 54.4249 119.871 57.2987 120.381 59.5275H110.128C110.81 56.6471 112.526 54.4249 115.401 54.4249Z" fill="url(#paint0_linear_2124_16)"/>
<path d="M137.808 58.0573H136.615C136.272 58.0573 136.05 57.9107 136.05 57.523V44.1539H138.491C139.686 44.1539 140.657 43.1861 140.657 41.9936C140.657 40.801 139.686 39.8333 138.491 39.8333H136.05V35.7864C136.05 34.2712 134.642 33.0396 133.122 33.0396C131.603 33.0396 130.224 34.268 130.224 35.7864V39.8333H129.025C127.829 39.8333 126.858 40.801 126.858 41.9936C126.858 43.1861 127.829 44.1539 129.025 44.1539H130.224V58.2756C130.224 61.0225 132.384 63.1762 135.138 63.1762H137.811C139.33 63.1762 140.565 62.1303 140.565 60.6119C140.565 59.0935 139.334 58.0573 137.811 58.0573H137.808Z" fill="#005DAB"/>
<path d="M162.336 59.3754C162.042 58.6456 161.823 57.668 161.823 57.3324V44.3348C161.823 41.223 158.987 37.981 152.524 37.981C146.061 37.981 143.689 42.7219 143.591 42.9467C143.153 43.9698 143.003 45.397 144.176 46.2312C145.202 46.961 146.96 46.6678 147.695 45.6251C147.711 45.6023 149.214 42.9435 152.524 42.9435C155.834 42.9435 156.553 45.0614 156.553 46.0096V46.9578C155.798 47.7593 154.769 48.4371 153.403 48.4925C149.887 48.6391 141.761 49.1507 141.761 56.5993C141.761 61.7117 145.79 63.2431 149.597 63.2431C151.606 63.2431 154.462 61.9952 156.579 59.5318C156.697 61.0209 157.278 62.044 158.35 62.9336C158.853 63.3506 159.468 63.3148 160.141 63.3148C160.814 63.3148 161.722 62.6142 161.971 62.3666C162.484 61.855 162.631 60.102 162.336 59.3722V59.3754ZM154.942 57.2575C153.916 58.2806 152.671 59.1571 150.694 59.1571C148.718 59.1571 147.545 57.4791 147.545 56.016C147.545 54.553 149.084 52.7316 151.792 52.7316C153.848 52.7316 155.56 52.1158 156.553 51.2588V55.0483C156.138 55.8271 155.615 56.5895 154.942 57.2607V57.2575Z" fill="#005DAB"/>
<path d="M177.247 50.7608L181.394 44.5438C182.417 43.0091 182.417 40.5197 181.394 38.985C180.371 37.4503 178.711 37.4503 177.689 38.985L173.542 45.202L169.396 38.985C168.373 37.4503 166.713 37.4503 165.69 38.985C164.668 40.5197 164.668 43.0091 165.69 44.5438L169.837 50.7608L165.69 56.9777C164.668 58.5124 164.668 61.0018 165.69 62.5365C166.203 63.3022 166.873 63.6867 167.543 63.6867C168.213 63.6867 168.883 63.3022 169.396 62.5365L173.542 56.3195L177.689 62.5365C178.202 63.3022 178.871 63.6867 179.541 63.6867C180.211 63.6867 180.884 63.3022 181.394 62.5365C182.417 61.0018 182.417 58.5124 181.394 56.9777L177.247 50.7608Z" fill="#005DAB"/>
<path d="M190.091 66.1213C192.047 66.1213 193.633 64.5399 193.633 62.5892C193.633 60.6385 192.047 59.0571 190.091 59.0571C188.135 59.0571 186.549 60.6385 186.549 62.5892C186.549 64.5399 188.135 66.1213 190.091 66.1213Z" fill="#019F40"/>
<path d="M187.016 67.0483C187.016 67.0483 173.835 78.8306 156.263 78.8306C143.663 78.8306 135.263 73.6791 131.544 70.89C131.512 70.4012 131.214 69.6713 131.214 69.6713C131.214 69.6713 130.754 69.2021 130.404 68.8958C130.054 68.5863 129.682 68.3224 129.682 68.3224C129.682 68.3224 129.319 68.5374 128.911 69.0001C128.502 69.4628 128.333 69.8505 128.333 69.8505C128.333 69.8505 128.581 70.1308 128.989 70.4924C129.401 70.8541 129.862 71.1962 129.862 71.1962C129.862 71.1962 130.708 71.4178 131.192 71.3624C134.832 74.9271 143.817 82.3366 155.681 82.3366C171.303 82.3366 180.432 73.6237 187.023 67.0516L187.016 67.0483Z" fill="#FA9F1D"/>
<path d="M103.111 21.8214C103.637 21.3 103.902 20.6581 103.902 19.9185C103.902 19.1788 103.634 18.5369 103.111 18.0091C102.585 17.4845 101.902 17.2173 101.085 17.2173C100.268 17.2173 99.5951 17.4845 99.069 18.0091C98.543 18.5337 98.2783 19.1756 98.2783 19.9185C98.2783 20.6614 98.5462 21.3 99.069 21.8214C99.5951 22.3427 100.271 22.6066 101.085 22.6066C101.899 22.6066 102.585 22.3427 103.111 21.8214ZM99.9774 18.8269C100.236 18.5304 100.608 18.3805 101.085 18.3805C101.562 18.3805 101.948 18.5304 102.206 18.8302C102.467 19.1299 102.598 19.4981 102.598 19.9217C102.598 20.3453 102.467 20.7005 102.206 21.0003C101.948 21.2968 101.572 21.4467 101.085 21.4467C100.598 21.4467 100.232 21.2968 99.9774 20.997C99.716 20.6972 99.5853 20.3323 99.5853 19.9185C99.5853 19.5047 99.716 19.1267 99.9774 18.8269Z" fill="#005DAB"/>
<path d="M101.111 23.6475H99.8208V27.0525H107.31V25.9251H101.111V23.6475Z" fill="#005DAB"/>
<path d="M107.084 16.8706H105.813V24.4594H107.084V16.8706Z" fill="#005DAB"/>
<path d="M114.093 23.8564C113.648 23.8987 113.21 23.928 112.789 23.9443C112.263 23.9769 111.773 23.99 111.325 23.99H110.685V21.9991H114.171V20.8359H110.685V19.0307H114.328V17.9033H109.414V25.1532H109.485C109.538 25.1532 109.94 25.1532 110.688 25.1467C111.43 25.1434 112.129 25.1239 112.759 25.0945C113.184 25.0717 113.632 25.0392 114.083 24.9935C114.537 24.9512 114.923 24.9088 115.226 24.8697L115.292 24.8599V23.7195L115.21 23.7293C114.913 23.7684 114.537 23.8075 114.089 23.8531L114.093 23.8564Z" fill="#005DAB"/>
<path d="M116.295 20.5493H114.485V21.6767H116.295V27.2974H117.566V16.8706H116.295V20.5493Z" fill="#005DAB"/>
<path d="M125.003 22.9336H126.238V17.0522H125.003V18.7433H123.134V19.874H125.003V22.9336Z" fill="#005DAB"/>
<path d="M125.834 24.8611C125.393 24.2225 125.171 23.7565 125.171 23.4763V23.0527H123.73V23.4763C123.73 23.7565 123.521 24.2029 123.106 24.809C122.694 25.4118 121.782 25.9397 120.394 26.3763L120.289 26.4089L121.09 27.3342L121.132 27.3245C121.668 27.1909 122.318 26.8911 123.066 26.4349C123.753 26.0113 124.223 25.5584 124.465 25.0794C124.71 25.4835 125.171 25.9331 125.831 26.4186C126.566 26.9563 127.223 27.2626 127.788 27.3245H127.827L128.624 26.4056L128.513 26.3763C127.17 26.0081 126.269 25.4998 125.834 24.8644V24.8611Z" fill="#005DAB"/>
<path d="M123.314 22.3736C123.82 22.3117 124.16 22.2596 124.36 22.2205L124.418 22.2075V21.041L124.33 21.0605C124.108 21.1061 123.739 21.1583 123.229 21.2104C122.716 21.2658 122.301 21.2951 121.994 21.3049L121.203 21.3147V17.4014H119.942V22.5007L121.896 22.4877C122.337 22.4714 122.814 22.4323 123.314 22.3704V22.3736Z" fill="#005DAB"/>
<path d="M128.49 16.8706H127.251V23.9315H128.49V16.8706Z" fill="#005DAB"/>
<path d="M139.545 21.6297C140.188 21.5482 140.682 21.4733 141.008 21.4016L141.067 21.3886V20.2709L140.979 20.2905C140.597 20.3687 140.077 20.4469 139.427 20.5218C138.777 20.6 138.11 20.6456 137.45 20.6619L136.186 20.6717V17.3188H134.915V21.7991L137.44 21.7763C138.189 21.76 138.898 21.7111 139.545 21.6297Z" fill="#005DAB"/>
<path d="M141.669 23.8869H137.239V22.7432H135.945V27.1778H142.963V22.7432H141.669V23.8869ZM137.239 26.083V24.9784H141.669V26.083H137.239Z" fill="#005DAB"/>
<path d="M142.965 16.8706H141.694V22.3773H142.965V20.0182H144.37V18.8908H142.965V16.8706Z" fill="#005DAB"/>
<path d="M149.095 22.3411C148.745 21.5004 148.565 20.549 148.565 19.5128V17.7109H147.239V19.5128C147.239 20.5653 147.056 21.5688 146.693 22.5007C146.334 23.4261 145.716 24.1886 144.863 24.7686L144.778 24.824L145.817 25.6223L145.863 25.5832C146.324 25.1759 146.762 24.6676 147.17 24.0745C147.513 23.5727 147.758 23.1035 147.899 22.6767C148.043 23.084 148.297 23.5304 148.654 24.0094C149.078 24.5796 149.48 25.0195 149.843 25.3192L149.892 25.3583L150.8 24.5209L150.732 24.4688C149.993 23.8953 149.444 23.1785 149.095 22.3443V22.3411Z" fill="#005DAB"/>
<path d="M151.221 20.3627H149.646V21.5618H151.221V26.8078H152.456V17.0815H151.221V20.3627Z" fill="#005DAB"/>
<path d="M154.55 16.8706H153.312V27.2974H154.55V16.8706Z" fill="#005DAB"/>
<path d="M160.618 22.2788C160.151 21.4674 159.912 20.4182 159.912 19.1605V17.4629H158.586V19.1605C158.586 20.4052 158.354 21.4968 157.896 22.4124C157.439 23.3214 156.687 24.0839 155.665 24.6704L155.573 24.7225L156.596 25.5567L156.638 25.5306C157.132 25.2406 157.668 24.7519 158.233 24.0774C158.739 23.4746 159.086 22.9076 159.269 22.383C159.533 22.9565 159.912 23.53 160.399 24.0872C160.938 24.703 161.438 25.1201 161.879 25.3253L161.928 25.3481L162.775 24.4032L162.7 24.3576C161.785 23.7906 161.082 23.0901 160.615 22.2788H160.618Z" fill="#005DAB"/>
<path d="M163.703 20.2919H161.488V21.4682H163.703V27.2974H164.974V16.8706H163.703V20.2919Z" fill="#005DAB"/>
<path d="M175.447 16.8706H174.176V27.2974H175.447V16.8706Z" fill="#005DAB"/>
<path d="M171.038 20.2345H168.45V17.7939H167.179V25.1481H172.309V17.7939H171.038V20.2345ZM168.45 24.0109V21.401H171.038V24.0109H168.45Z" fill="#005DAB"/>
<path d="M178.522 23.354C179.263 23.1259 180.015 22.7024 180.757 22.0963C181.439 21.5391 181.907 20.9591 182.152 20.3759C182.42 20.907 182.884 21.4674 183.537 22.0474C184.253 22.6861 185.004 23.1259 185.769 23.354L185.811 23.3671L186.703 22.3993L186.599 22.3635C184.998 21.7965 183.955 21.0797 183.501 20.2358C183.044 19.3853 182.812 18.7174 182.812 18.2482V17.4629H181.472V18.2482C181.472 18.7174 181.256 19.3821 180.832 20.2195C180.413 21.0504 179.352 21.7705 177.685 22.3635L177.581 22.3993L178.473 23.3671L178.515 23.354H178.522Z" fill="#005DAB"/>
<path d="M187.169 24.6431H177.125V25.7705H187.169V24.6431Z" fill="#005DAB"/>
<defs>
<linearGradient id="paint0_linear_2124_16" x1="104.037" y1="71.9549" x2="122.439" y2="54.0868" gradientUnits="userSpaceOnUse">
<stop offset="0.28" stop-color="#005DAB"/>
<stop offset="0.4" stop-color="#006CB7"/>
<stop offset="0.61" stop-color="#0093D9"/>
<stop offset="0.75" stop-color="#00AFF1"/>
</linearGradient>
</defs>
</svg>
