<svg width="14" height="14" viewBox="0 0 14 14" fill="none" xmlns="http://www.w3.org/2000/svg">
<path d="M0 9.88257C0.0504044 9.6331 0.0869293 9.37997 0.154135 9.13525C0.321784 8.52584 0.632612 7.99361 1.07274 7.54113C1.79776 6.79601 2.52679 6.05455 3.254 5.31162C3.27263 5.2926 3.29309 5.27577 3.34313 5.23041C3.32705 5.37198 3.31391 5.47952 3.30258 5.58743C3.2288 6.28463 3.27848 6.97269 3.47717 7.64575C3.51844 7.78584 3.49726 7.88461 3.39353 7.98849C3.04289 8.34039 2.69152 8.69265 2.35586 9.05917C1.4946 9.99853 1.83647 11.5151 3.01842 11.9723C3.70582 12.2383 4.3713 12.145 4.89945 11.6303C5.77715 10.7744 6.61758 9.88001 7.46241 8.99113C7.72904 8.71057 7.91751 8.3755 7.95768 7.97606C8.03329 7.22143 7.73305 6.64603 7.11871 6.22391C6.91599 6.08454 6.90577 6.06003 7.02338 5.83909C7.25458 5.40563 7.57965 5.05191 7.95513 4.74062C8.05411 4.65831 8.1509 4.65904 8.25317 4.7333C9.11151 5.35771 9.64915 6.1855 9.81315 7.24008C9.94829 8.10994 9.82338 8.94321 9.37814 9.70918C9.23532 9.95536 9.05672 10.188 8.86094 10.3947C8.16807 11.1263 7.4646 11.848 6.75711 12.5649C6.5018 12.8239 6.24649 13.0924 5.9521 13.3009C3.73723 14.8702 0.521576 13.6934 0.0504044 10.8194C0.0346987 10.7261 0.0168015 10.6332 0 10.5399C0 10.3208 0 10.1017 0 9.88294V9.88257Z" fill="#667085"/>
<path d="M10.6309 8.79451C10.6554 8.59479 10.6799 8.42872 10.6952 8.26192C10.7551 7.60971 10.6978 6.96847 10.5002 6.34297C10.4622 6.22299 10.4852 6.13556 10.5717 6.04741C10.9202 5.69332 11.2701 5.33996 11.6098 4.97746C12.5605 3.96385 12.0791 2.30315 10.7325 1.96369C10.0933 1.80274 9.51033 1.94869 9.04391 2.41581C8.20968 3.25128 7.39225 4.10358 6.57483 4.95551C6.23405 5.31033 6.00577 5.72221 6.01307 6.23615C6.02294 6.91982 6.32244 7.44144 6.88675 7.81565C7.05623 7.92795 7.06974 7.97294 6.96126 8.14377C6.69353 8.56626 6.36298 8.93607 6.00869 9.28614C5.92213 9.37173 5.84104 9.37173 5.74242 9.30187C4.86619 8.68185 4.34681 7.8343 4.1861 6.78009C3.98594 5.46945 4.37018 4.34244 5.30705 3.40053C6.07553 2.62797 6.81078 1.8214 7.60154 1.07298C8.69035 0.043277 9.99283 -0.25265 11.4089 0.217029C12.8337 0.689268 13.691 1.71641 13.9412 3.2019C14.1468 4.42328 13.8111 5.51188 12.9612 6.41576C12.2274 7.19636 11.467 7.95136 10.7178 8.71733C10.6996 8.73598 10.6784 8.75208 10.6309 8.79415V8.79451Z" fill="#667085"/>
</svg>
