<svg width="20" height="21" viewBox="0 0 20 21" fill="none" xmlns="http://www.w3.org/2000/svg">
<g clip-path="url(#clip0_6652_1628)">
<path d="M10.3771 2.95898H5.29516C4.27458 2.95898 3.44623 3.82931 3.44623 4.90161V5.816L1.43652 7.03518L3.44623 8.25437V9.17243C3.44623 10.2447 4.27458 11.1151 5.29516 11.1151H10.3771C11.3977 11.1151 12.226 10.2447 12.226 9.17243V4.90161C12.226 3.82931 11.3977 2.95898 10.3771 2.95898Z" fill="#6ABBEE"/>
<path d="M10.3775 11.5744H5.29553C4.03728 11.5744 3.00971 10.4984 3.00971 9.17271V8.52273L1.2167 7.43574C1.08039 7.35495 1 7.20072 1 7.03914C1 6.87756 1.08388 6.72332 1.2167 6.64253L3.00621 5.55555V4.90556C3.00621 3.58355 4.03029 2.50391 5.29204 2.50391H10.374C11.6322 2.50391 12.6598 3.57988 12.6598 4.90556V9.17639C12.6598 10.4984 11.6357 11.578 10.374 11.578L10.3775 11.5744ZM2.31068 7.03546L3.6668 7.85805C3.80311 7.93884 3.8835 8.09307 3.8835 8.25465V9.17271C3.8835 9.99163 4.51612 10.6563 5.29553 10.6563H10.3775C11.1534 10.6563 11.7895 9.99163 11.7895 9.17271V4.90189C11.7895 4.08297 11.1569 3.4183 10.3775 3.4183H5.29553C4.51612 3.4183 3.8835 4.08297 3.8835 4.90189V5.81628C3.8835 5.98153 3.79961 6.13209 3.6668 6.21288L2.31068 7.03546Z" fill="#282828"/>
<path d="M9.62278 9.88477H14.7047C15.7253 9.88477 16.5537 10.7551 16.5537 11.8274V12.7454L18.5634 13.9646L16.5537 15.1838V16.1019C16.5537 17.1742 15.7253 18.0445 14.7047 18.0445H9.62278C8.6022 18.0445 7.77734 17.1742 7.77734 16.1019V11.8311C7.77734 10.7588 8.60569 9.88844 9.62278 9.88844V9.88477Z" fill="#FF9213"/>
<path d="M14.7041 18.4999H9.62217C8.36392 18.4999 7.33984 17.4239 7.33984 16.0983V11.8274C7.33984 10.5054 8.36392 9.42578 9.62217 9.42578H14.7041C15.9659 9.42578 16.9899 10.5018 16.9899 11.8274V12.4774L18.7795 13.5644C18.9158 13.6452 18.9962 13.7994 18.9962 13.961C18.9962 14.1226 18.9123 14.2768 18.7795 14.3576L16.9899 15.4446V16.0946C16.9899 17.4166 15.9659 18.4962 14.7041 18.4962V18.4999ZM9.62217 10.3438C8.84625 10.3438 8.21363 11.0085 8.21363 11.8274V16.0983C8.21363 16.9172 8.84625 17.5819 9.62217 17.5819H14.7041C15.4835 17.5819 16.1162 16.9172 16.1162 16.0983V15.1802C16.1162 15.0149 16.2 14.8644 16.3329 14.7836L17.689 13.961L16.3329 13.1384C16.1965 13.0576 16.1162 12.9034 16.1162 12.7418V11.8238C16.1162 11.0048 15.4835 10.3402 14.7041 10.3402H9.62217V10.3438Z" fill="#282828"/>
<path d="M14.0482 13.212H10.4369C10.1957 13.212 10 13.0064 10 12.753C10 12.4996 10.1957 12.2939 10.4369 12.2939H14.0482C14.2893 12.2939 14.485 12.4996 14.485 12.753C14.485 13.0064 14.2893 13.212 14.0482 13.212Z" fill="#282828"/>
<path d="M14.0482 15.5362H10.4369C10.1957 15.5362 10 15.3306 10 15.0772C10 14.8238 10.1957 14.6182 10.4369 14.6182H14.0482C14.2893 14.6182 14.485 14.8238 14.485 15.0772C14.485 15.3306 14.2893 15.5362 14.0482 15.5362Z" fill="#282828"/>
<path d="M9.74835 6.31845H6.13709C5.89592 6.31845 5.7002 6.11281 5.7002 5.85942C5.7002 5.60604 5.89592 5.40039 6.13709 5.40039H9.74835C9.98952 5.40039 10.1852 5.60604 10.1852 5.85942C10.1852 6.11281 9.98952 6.31845 9.74835 6.31845Z" fill="#282828"/>
<path d="M9.74835 8.61826H6.13709C5.89592 8.61826 5.7002 8.41261 5.7002 8.15923C5.7002 7.90584 5.89592 7.7002 6.13709 7.7002H9.74835C9.98952 7.7002 10.1852 7.90584 10.1852 8.15923C10.1852 8.41261 9.98952 8.61826 9.74835 8.61826Z" fill="#282828"/>
</g>
<defs>
<clipPath id="clip0_6652_1628">
<rect width="18" height="16" fill="white" transform="translate(1 2.5)"/>
</clipPath>
</defs>
</svg>
