<svg width="36" height="36" viewBox="0 0 36 36" fill="none" xmlns="http://www.w3.org/2000/svg">
<g clip-path="url(#clip0_4968_394)">
<path d="M22.8106 20.0109H20.9077C21.1668 20.9427 23.0786 21.5274 24.1596 20.089L22.8642 16.9277H22.8136V20.0109H22.8106Z" fill="#005496"/>
<path d="M27.7905 16.9336H27.7339V20.0167H25.8311C26.0931 20.9485 28.0079 21.5333 29.0889 20.0949L27.7905 16.9336Z" fill="#005496"/>
<path d="M12.1263 20.6677L12.0578 20.552C12.0489 20.5364 12.043 20.5207 12.034 20.502C11.6916 21.2962 11.4146 22.0967 11.2211 22.8972C10.959 26.3586 10.9769 29.792 11.0334 33.5474C11.0483 34.5636 10.8756 34.6262 10.56 34.8232C10.2413 35.0233 8.96379 35.5642 8.93104 35.6674C8.8953 35.7644 8.93997 35.977 9.09482 35.9957H12.1144C12.442 33.9914 12.85 31.2178 12.85 31.2178C13.3562 32.6218 14.4015 34.8794 15.277 35.9832H16.8791C20.6521 35.9832 24.1541 35.1702 26.4829 33.3129C23.8593 31.543 21.7956 29.0478 20.2888 26.4274C16.9952 25.9303 13.9905 23.7696 12.1263 20.6677Z" fill="#005496"/>
<path d="M12.0303 20.5074C12.3579 19.7507 12.751 18.9971 13.1976 18.2716C12.8135 17.1428 12.6259 16.0828 12.5217 15.2417C12.4978 15.2573 12.471 15.2729 12.4532 15.2823C12.1971 15.448 11.7534 16.1641 11.5985 16.5425L11.396 14.8008L10.2495 14.9477C10.2614 15.1103 10.2823 15.2698 10.3031 15.4355C10.5473 17.2867 11.1578 19.0033 12.0333 20.5074H12.0303Z" fill="#FAA634"/>
<path d="M13.213 18.3164C13.213 18.3164 13.207 18.2852 13.1981 18.2695C12.7514 18.995 12.3583 19.7486 12.0308 20.5053C12.0397 20.5209 12.0486 20.5365 12.0546 20.5553C12.0784 20.5959 12.0993 20.6335 12.1231 20.671C13.9873 23.7729 16.992 25.9304 20.2855 26.4307C20.0145 25.9617 19.7614 25.4864 19.5262 25.0111C19.5172 24.9861 19.5053 24.9673 19.4904 24.9423C15.7621 23.4039 14.0379 20.7148 13.21 18.3196L13.213 18.3164Z" fill="#F47B20"/>
<path d="M17.2102 13.6975C16.7278 13.7976 16.2007 13.9164 15.9714 13.9821L15.7838 13.1191C16.0667 13.044 16.4687 12.8251 16.4687 12.8251C16.4687 12.8251 16.7188 12.1435 16.7903 11.5212C16.9511 10.2017 16.5759 9.4043 16.5759 9.4043C15.3847 9.29798 14.3127 9.92962 13.7469 10.7082C13.7945 11.9371 14.4824 12.6813 14.4824 12.6813L14.1668 14.4761C13.7022 14.6544 12.8743 15.0358 12.5378 15.2328C12.5319 15.2328 12.5289 15.2328 12.5229 15.2391C12.6272 16.0802 12.8148 17.1402 13.1989 18.2691C14.2531 16.5649 15.617 14.9889 17.2072 13.6975H17.2102Z" fill="#00A18E"/>
<path d="M26.1075 19.7081L27.8049 15.7651V15.6087H25.3064C25.3064 15.6087 25.1069 12.0096 25.0503 10.59L26.5304 9.52689V9.46122C26.5125 9.46122 26.4976 9.46122 26.4797 9.46122C25.226 9.40494 23.3589 9.92088 21.8461 10.6838C20.3244 11.403 18.5317 12.5381 17.2125 13.6888C17.2125 13.6888 17.2095 13.6888 17.2065 13.6919C15.6163 14.9833 14.2524 16.5624 13.1982 18.2634C13.2042 18.2791 13.2102 18.2978 13.2131 18.3104C14.041 20.7087 15.7682 23.3947 19.4936 24.9331C18.0016 21.8875 17.2422 18.8294 17.2125 16.6719C17.4031 16.281 19.2911 14.9771 19.2911 14.9771C20.9378 12.5819 23.4006 10.6432 23.4006 10.6432C23.6269 10.515 24.3505 10.5463 24.7585 10.5681C24.6989 11.9784 24.4607 15.6056 24.4607 15.6056H21.9474V15.7838L20.9468 19.7049H21.1195L22.7127 15.9777C24.0646 16.3123 25.637 16.256 26.8698 16.0183L25.9288 19.7049H26.1015L26.1075 19.7081Z" fill="#005496"/>
<path d="M11.2177 22.9021C11.4143 22.1016 11.6882 21.298 12.0307 20.5069C11.1552 19.0029 10.5477 17.2862 10.3005 15.4351C10.2767 15.2693 10.2588 15.1099 10.2469 14.9473L8.05517 15.2349C7.79907 15.2662 7.55785 15.4132 7.45065 15.557C7.36131 15.679 7.26602 15.9041 7.28984 16.173L7.90627 21.4168L10.9973 21.0135L11.2147 22.8771V22.9021H11.2177Z" fill="#C41188"/>
<path d="M13.8267 0.187614L13.8505 0.281421H13.8654C13.919 0.297055 13.9666 0.306436 14.0053 0.44402L14.5831 2.59845L15.128 2.43898L14.4758 0L13.8296 0.190741L13.8267 0.187614Z" fill="#005496"/>
<path d="M11.2979 0.997225L11.3217 1.09103H11.3604C11.4111 1.09416 11.4438 1.13794 11.4736 1.25363C11.4736 1.25363 11.7327 2.21984 11.8071 2.49814C11.8786 2.76392 12.0513 2.85148 12.2895 2.78268C12.5188 2.71702 13.7666 2.34805 13.7666 2.34805L13.2514 0.421875L11.2949 1.00035L11.2979 0.997225ZM12.358 2.34179C12.358 2.34179 12.0543 1.2036 12.0513 1.19109C12.0632 1.18797 12.7988 0.969082 12.8137 0.965956C12.8137 0.98159 13.1174 2.10415 13.1204 2.11665C13.1055 2.11978 12.3699 2.33866 12.3551 2.34179H12.358Z" fill="#005496"/>
<path d="M12.4483 3.21145L12.4721 3.30213H12.487C12.5406 3.31776 12.5883 3.32714 12.624 3.46785C12.624 3.46785 12.7431 3.90874 12.8384 4.26208C12.9069 4.52787 13.0796 4.6123 13.3268 4.54038C13.4727 4.4966 15.5572 3.8806 15.5572 3.8806L15.453 3.48974C15.453 3.48974 13.3982 4.09636 13.3834 4.09949C13.3804 4.08698 13.0945 3.01758 13.0945 3.01758L12.4453 3.20832L12.4483 3.21145Z" fill="#005496"/>
<path d="M5.52104 8.47351L5.58656 8.53918H5.60145C5.65505 8.51416 5.69972 8.49853 5.80097 8.59546C5.80097 8.59546 6.14938 8.93317 6.37571 9.1583C6.59905 9.37406 6.79261 9.28651 6.9296 9.12703C7.0636 8.97382 8.50491 7.34157 8.50491 7.34157L8.22201 7.06641C8.22201 7.06641 6.77177 8.71116 6.75986 8.72366C6.75092 8.71116 5.97369 7.95757 5.97369 7.95757L5.51807 8.47664L5.52104 8.47351Z" fill="#005496"/>
<path d="M5.20171 5.13586L5.26722 5.20152L5.28211 5.19527C5.33274 5.17338 5.38038 5.16087 5.47865 5.25781L7.03908 6.78061L7.42621 6.34597C7.42621 6.34597 6.4971 5.44229 6.48817 5.42979C6.4971 5.42041 6.77703 5.09834 6.77703 5.09834L6.48519 4.81691C6.48519 4.81691 6.20229 5.13899 6.19335 5.14837C6.18144 5.13899 5.65435 4.62305 5.65435 4.62305L5.19873 5.13899L5.20171 5.13586Z" fill="#005496"/>
<path d="M3.97571 6.39664C3.97571 6.39664 4.16629 6.58113 4.1782 6.59364C4.16629 6.60614 3.60645 7.2409 3.60645 7.2409L3.89828 7.52232C3.89828 7.52232 4.0978 7.29719 4.11567 7.2753C4.13949 7.49106 4.22883 7.66616 4.38666 7.81938C4.57129 7.99761 4.79761 8.07579 5.05669 8.0539C5.32172 8.02888 5.55102 7.91006 5.73863 7.6943C5.92922 7.47855 6.02749 7.2284 6.03047 6.95323C6.03345 6.67806 5.94113 6.44354 5.75948 6.26531C5.60463 6.11522 5.42893 6.03392 5.22345 6.02141C5.24132 6.00265 5.43786 5.78064 5.43786 5.78064L5.14603 5.49609L4.58022 6.13711L4.37773 5.94324L3.97571 6.39664ZM5.44977 7.41288C5.28599 7.59737 4.97926 7.58174 4.76783 7.37849C4.55342 7.16899 4.51769 6.85004 4.68147 6.66555C4.84824 6.47794 5.15496 6.49357 5.36341 6.69995C5.57485 6.9032 5.61058 7.22527 5.4468 7.41288H5.44977Z" fill="#005496"/>
<path d="M0.458551 13.8395L0.550866 13.8613L0.5598 13.852C0.598512 13.8082 0.625314 13.7675 0.75932 13.7988C0.75932 13.7988 1.55442 13.9802 1.56633 13.9864C1.56633 13.9989 1.48593 14.3773 1.47997 14.396C1.46806 14.3929 0.396014 14.1459 0.396014 14.1459L0.262008 14.7994L0.351346 14.8182L0.363257 14.8057C0.398992 14.7588 0.428771 14.7212 0.562778 14.7525L2.36442 15.1621C2.40908 15.2215 2.41206 15.3154 2.38824 15.4436C2.38824 15.4436 2.17681 16.4723 2.17085 16.4879C2.15894 16.4848 0.535976 16.1127 0.521087 16.1127C0.524065 16.1002 0.729541 15.1184 0.729541 15.1184L0.351346 15.0339L0.00292969 16.7225L0.095245 16.7443L0.107157 16.7318C0.139914 16.6881 0.169693 16.6474 0.306677 16.6787C0.306677 16.6787 1.79266 17.0164 2.05173 17.0727C2.31081 17.1321 2.45971 17.0195 2.51629 16.7569C2.56989 16.4911 2.76643 15.5405 2.76643 15.5405C2.7843 15.4529 2.78728 15.3623 2.77239 15.2716C2.77239 15.2716 2.77239 15.2622 2.77239 15.2559C2.79026 15.2591 4.05885 15.5499 4.05885 15.5499L4.17201 15.0058C4.17201 15.0058 1.89391 14.4867 1.88199 14.4836C1.88497 14.468 1.9624 14.0896 1.96537 14.0771C1.97729 14.0802 4.25539 14.5993 4.25539 14.5993L4.37153 14.0552L0.604468 13.1953L0.467484 13.8457L0.458551 13.8395Z" fill="#005496"/>
<path d="M21.5131 0.0585938L21.3999 0.45571C21.3999 0.45571 23.4666 1.10298 23.4785 1.10611C23.4755 1.12174 23.2075 2.05356 23.2075 2.05356L23.7644 2.22866L24.1485 0.884095L21.5131 0.0585938Z" fill="#005496"/>
<path d="M20.848 1.54102L20.7348 1.93813L21.9706 2.32587L21.8307 2.82304L20.7586 2.49159L20.6484 2.88558L22.8968 3.58914L22.5871 4.67417L23.1439 4.84928L23.5638 3.36713L22.3846 2.99815L22.5275 2.49785L23.9539 2.94499L24.0641 2.54788L20.848 1.54102Z" fill="#005496"/>
<path d="M30.3391 8.05175L30.0056 8.35506L29.1092 7.27003L29.4428 6.96672L29.0229 6.45703L28.9574 6.51957V6.53208C28.9723 6.58523 28.9812 6.63214 28.8829 6.72282C28.8829 6.72282 28.3648 7.19811 28.1563 7.38572C27.9508 7.57646 27.9806 7.7672 28.1236 7.93918C28.2665 8.11116 29.4874 9.59019 29.4874 9.59019L30.6995 8.48639L30.3421 8.05175H30.3391ZM28.5077 7.81723L28.8323 7.52018L29.7316 8.60834L29.407 8.90227L28.5107 7.81723H28.5077Z" fill="#005496"/>
<path d="M31.8406 6.55664L31.7721 6.61918L31.7781 6.63169C31.79 6.68484 31.7989 6.73175 31.7006 6.82243L31.4237 7.07258L31.1319 6.71924L30.8579 6.96939L31.1497 7.32586L30.5273 7.89495L30.8817 8.32334L32.2635 7.06633L31.8436 6.55664H31.8406Z" fill="#005496"/>
<path d="M31.471 6.20179L31.1136 5.77341L30.7443 6.10799L30.1428 5.37942L30.5121 5.04484L30.0922 4.53516L30.0267 4.59457V4.6102C30.0416 4.66336 30.0505 4.71026 29.9522 4.80094C29.9522 4.80094 29.3745 5.32626 29.1392 5.54202C28.9278 5.73276 28.9665 5.92663 29.1035 6.09548C29.2226 6.23932 30.1666 7.38376 30.1666 7.38376L31.468 6.19867L31.471 6.20179ZM30.0922 6.70523L29.4936 5.97978L29.8718 5.6327L30.4734 6.36127L30.0922 6.70835V6.70523Z" fill="#005496"/>
<path d="M34.1454 13.8278C34.2556 13.587 34.4194 13.4401 34.6338 13.3932C34.8571 13.3431 35.0626 13.4088 35.2562 13.5902C35.4527 13.7684 35.5808 14.0123 35.6373 14.3156C35.6969 14.6189 35.6731 14.8972 35.5599 15.1442C35.4497 15.3913 35.286 15.5351 35.0596 15.5851C34.8452 15.632 34.6397 15.5632 34.4492 15.385C34.2556 15.2068 34.1275 14.9598 34.068 14.6533C34.0084 14.35 34.0352 14.0748 34.1454 13.8309V13.8278ZM35.3098 14.3875C35.28 14.2437 35.2056 14.1186 35.0954 14.0404C34.9911 13.9654 34.869 13.9373 34.7529 13.9623C34.4968 14.0186 34.339 14.2969 34.3956 14.5877C34.4224 14.7315 34.4998 14.8534 34.61 14.9347C34.7142 15.0098 34.8363 15.0379 34.9524 15.0129C35.0715 14.9879 35.1758 14.9097 35.2443 14.7972C35.3157 14.6783 35.3396 14.5345 35.3098 14.3907V14.3875ZM33.0376 14.8628C33.0138 14.8628 32.1621 15.0504 32.1621 15.0504C32.1621 15.0504 32.582 17.1924 32.585 17.2143C32.5641 17.2205 32.2455 17.2893 32.2247 17.2924C32.2247 17.2674 31.772 14.9598 31.772 14.9598C31.7184 14.6908 31.8167 14.5345 32.0639 14.4813C32.0639 14.4813 32.6594 14.35 32.6624 14.35C32.7994 14.3219 32.8173 14.2656 32.8322 14.2093C32.8322 14.2093 32.8322 14.2062 32.8322 14.203C32.8411 14.203 32.8917 14.1905 32.9066 14.1874C32.9096 14.2124 33.0347 14.8378 33.0376 14.8597V14.8628ZM34.2139 16.0323C34.1931 16.0354 33.8714 16.1073 33.8536 16.1105C33.8476 16.0886 33.6273 14.9629 33.6273 14.9629C33.6273 14.9629 33.2074 15.0536 33.1865 15.0567C33.1806 15.0348 33.0942 14.5908 33.0912 14.5689C33.1121 14.5658 33.532 14.4751 33.532 14.4751C33.532 14.4751 33.3533 13.5683 33.3503 13.5433C33.3712 13.5401 33.6928 13.4714 33.7106 13.4651C33.7166 13.4901 34.208 16.0104 34.2109 16.0323H34.2139ZM36.0007 16.4231C35.9798 16.4294 33.0823 17.0517 33.0585 17.0548C33.0555 17.0329 32.9542 16.5138 32.9483 16.4919C32.9691 16.4888 33.3503 16.4044 33.3503 16.4044C33.3503 16.4044 33.2252 15.7727 33.2223 15.7477C33.2431 15.7477 33.5379 15.6789 33.5558 15.6758C33.5617 15.6977 33.6838 16.3325 33.6838 16.3325L35.6225 15.9166C35.7654 15.8853 35.7803 15.8322 35.7952 15.7727C35.7952 15.7727 35.7952 15.7696 35.7952 15.7634C35.8041 15.7634 35.8547 15.7509 35.8696 15.7477C35.8726 15.7696 35.9947 16.3981 36.0007 16.42V16.4231Z" fill="#005496"/>
</g>
<defs>
<clipPath id="clip0_4968_394">
<rect width="36" height="36" fill="white"/>
</clipPath>
</defs>
</svg>
