<svg width="80" height="56" viewBox="0 0 80 56" fill="none" xmlns="http://www.w3.org/2000/svg">
<path d="M31.6407 16.2762C24.912 17.7737 18.5209 21.0825 13.2833 26.2309C11.6844 27.7712 11.6844 30.3241 13.2036 31.9452C14.7229 33.5662 17.2408 33.5662 18.8398 32.026C22.6801 28.2419 27.3175 25.7128 32.2315 24.4245C32.0299 21.7052 31.833 18.9907 31.636 16.2715L31.6407 16.2762Z" fill="#D0D5DD"/>
<path d="M47.1192 33.219C47.0536 34.0414 46.9879 34.8686 46.9223 35.691C46.7488 37.7733 45.811 39.575 44.4277 40.8062C46.1627 41.4243 47.7944 42.4131 49.1871 43.7822C49.9795 44.5476 50.9736 44.9136 51.9676 44.9184C52.9992 44.9136 54.0308 44.5096 54.8279 43.7014C56.3893 42.1183 56.3471 39.5274 54.7482 37.9872C52.5209 35.7956 49.9092 34.2126 47.1239 33.2237L47.1192 33.219Z" fill="#98A2B3"/>
<path d="M78.7746 15.7723C57.3834 -5.26377 22.6005 -5.26377 1.20936 15.8104C-0.389581 17.3506 -0.389581 19.9035 1.12965 21.5246C1.93147 22.3375 2.96773 22.7416 4.00869 22.7416C5.04964 22.7416 6.0484 22.3755 6.80801 21.6054C13.7571 14.7597 22.3614 10.5192 31.3642 8.86488C31.3642 8.84111 31.3689 8.81734 31.3736 8.79357C32.1285 4.13948 35.7437 0.745181 39.9638 0.730919C42.3505 0.730919 44.5543 1.74826 46.2002 3.59278C47.4943 5.04272 48.329 6.87774 48.6291 8.85061C57.6413 10.4907 66.2597 14.7217 73.2181 21.5626C74.7795 23.1457 77.2975 23.1029 78.8543 21.4818C80.4157 19.8987 80.3735 17.3078 78.7746 15.7676V15.7723Z" fill="#E4E7EC"/>
<path d="M48.3195 16.262C48.2679 16.9988 48.221 17.7309 48.1742 18.4583C48.1038 19.5136 48.0335 20.569 47.9585 21.6196C47.8881 22.5562 47.8225 23.4974 47.7568 24.4387C52.6615 25.727 57.2989 28.2513 61.1392 32.0307C61.941 32.8009 62.9398 33.1669 63.9385 33.1669C64.9373 33.1669 66.0157 32.7628 66.8176 31.9499C68.379 30.3668 68.3368 27.776 66.7379 26.2357C61.4862 21.0729 55.0717 17.7547 48.3195 16.2667V16.262Z" fill="#D0D5DD"/>
<path d="M33.0337 35.3536C32.9821 34.6453 32.9306 33.9322 32.879 33.2239C30.089 34.2127 27.4726 35.7958 25.2406 37.9873C23.6417 39.5276 23.6417 42.0804 25.1609 43.7015C26.6801 45.3226 29.1981 45.3226 30.7971 43.7823C32.1991 42.4037 33.8402 41.4101 35.5939 40.7969C34.1591 39.4943 33.1931 37.5642 33.0384 35.3584L33.0337 35.3536Z" fill="#98A2B3"/>
<path d="M34.8573 23.8638C35.0683 26.7399 35.2793 29.6113 35.4903 32.4874C35.5559 33.3811 35.6216 34.2701 35.6872 35.1638C35.8701 37.7262 37.6331 39.7561 39.8229 39.837C42.0877 39.9225 44.0664 38.0542 44.2774 35.4729C44.3571 34.4793 44.4369 33.481 44.5119 32.4874C44.7323 29.616 44.9292 26.7447 45.1355 23.8733C45.1918 23.0556 45.2527 22.2427 45.309 21.425C45.445 19.5425 45.5622 17.6599 45.6935 15.7726C45.7967 14.2941 45.9092 12.8109 46.0546 11.3372C46.153 10.3294 46.0639 9.35006 45.8248 8.43731C45.0699 5.56594 42.7816 3.42192 39.9729 3.43143C37.2533 3.44094 34.9464 5.50889 34.168 8.44681C34.0976 8.70353 34.0414 8.96499 33.9945 9.23597C33.7835 10.548 33.9945 11.8221 34.0789 13.0961C34.1398 13.9899 34.2102 14.8836 34.2711 15.7774C34.4634 18.4728 34.6556 21.1636 34.8573 23.859V23.8638Z" fill="#475467"/>
<path d="M39.9872 45.2275C37.0753 45.2323 34.6886 47.6806 34.698 50.647C34.7074 52.3014 35.4764 53.7941 36.6627 54.7829C37.5724 55.5388 38.7212 55.9952 39.9684 55.9999C41.3329 56.0047 42.5802 55.4722 43.5274 54.607C44.6059 53.6182 45.2951 52.1968 45.2998 50.6232C45.2998 47.6615 42.9038 45.2275 39.9872 45.2323V45.2275Z" fill="#475467"/>
</svg>
