<svg width="14" height="14" viewBox="0 0 14 14" fill="none" xmlns="http://www.w3.org/2000/svg">
<mask id="path-1-inside-1_6100_179707" fill="white">
<path d="M13.9986 5.65365C13.9981 4.7485 13.6215 4.04146 12.8825 3.53121C11.4086 2.51335 9.9338 1.49813 8.45856 0.483349C7.51707 -0.16426 6.47758 -0.160298 5.53346 0.490393C4.06741 1.50077 2.60223 2.51158 1.13531 3.51932C0.378001 4.04014 -0.0013091 4.75598 3.39438e-06 5.68139C0.00306587 7.60793 3.39439e-06 9.53447 0.00175338 11.461C0.00175338 11.6094 0.00350337 11.7595 0.0280032 11.9052C0.240189 13.1591 1.22412 13.9951 2.49286 13.9982C3.99172 14.0017 5.49015 13.9991 6.98857 13.9991C8.487 13.9991 9.96399 13.9999 11.4515 13.9982C11.6042 13.9977 11.759 13.9977 11.9091 13.9726C13.1568 13.7626 13.9942 12.7756 13.9973 11.4997C14.0025 9.5512 13.9986 7.60264 13.9986 5.65365Z"/>
</mask>
<path d="M13.9986 5.65365H14.9986V5.65317L13.9986 5.65365ZM12.8825 3.53121L12.3143 4.35406L12.3143 4.35408L12.8825 3.53121ZM8.45856 0.483349L9.0253 -0.340549L9.02529 -0.340557L8.45856 0.483349ZM5.53346 0.490393L6.10093 1.31379L6.10094 1.31378L5.53346 0.490393ZM1.13531 3.51932L0.569075 2.69507L0.568654 2.69536L1.13531 3.51932ZM3.39438e-06 5.68139L-0.999996 5.68281L-0.999995 5.68298L3.39438e-06 5.68139ZM0.00175338 11.461H1.00175L1.00175 11.4601L0.00175338 11.461ZM0.0280032 11.9052L-0.958157 12.071L-0.957978 12.0721L0.0280032 11.9052ZM2.49286 13.9982L2.49043 14.9982H2.49051L2.49286 13.9982ZM11.4515 13.9982L11.4527 14.9982L11.4544 14.9982L11.4515 13.9982ZM11.9091 13.9726L12.074 14.9589L12.0751 14.9588L11.9091 13.9726ZM13.9973 11.4997L12.9973 11.4971L12.9973 11.4973L13.9973 11.4997ZM14.9986 5.65317C14.998 4.41663 14.4574 3.40348 13.4507 2.70833L12.3143 4.35408C12.7855 4.67943 12.9983 5.08037 12.9986 5.65414L14.9986 5.65317ZM13.4508 2.70835C11.9761 1.68996 10.5007 0.674324 9.0253 -0.340549L7.89182 1.30725C9.36693 2.32193 10.8411 3.33673 12.3143 4.35406L13.4508 2.70835ZM9.02529 -0.340557C7.73909 -1.22527 6.2484 -1.21685 4.96598 -0.332993L6.10094 1.31378C6.70675 0.896251 7.29505 0.896751 7.89184 1.30726L9.02529 -0.340557ZM4.96599 -0.333002C3.4994 0.677748 2.03519 1.6879 0.569075 2.69507L1.70154 4.34356C3.16928 3.33527 4.63542 2.32379 6.10093 1.31379L4.96599 -0.333002ZM0.568654 2.69536C-0.459123 3.40219 -1.00178 4.42617 -0.999996 5.68281L1 5.67997C0.99916 5.08579 1.21512 4.67808 1.70196 4.34328L0.568654 2.69536ZM-0.999995 5.68298C-0.99693 7.61134 -1 9.52977 -0.998246 11.4619L1.00175 11.4601C1.00001 9.53917 1.00306 7.60452 1 5.6798L-0.999995 5.68298ZM-0.998247 11.461C-0.998247 11.606 -0.998156 11.8331 -0.958156 12.071L1.01416 11.7394C1.00516 11.6859 1.00175 11.6128 1.00175 11.461H-0.998247ZM-0.957978 12.0721C-0.66491 13.8039 0.732475 14.9939 2.49043 14.9982L2.49529 12.9982C1.71576 12.9963 1.14529 12.5143 1.01398 11.7384L-0.957978 12.0721ZM2.49051 14.9982C3.99089 15.0017 5.49255 14.9991 6.98857 14.9991V12.9991C5.48775 12.9991 3.99255 13.0017 2.49521 12.9982L2.49051 14.9982ZM6.98857 14.9991C8.48621 14.9991 9.96438 14.9999 11.4527 14.9982L11.4503 12.9982C9.96359 12.9999 8.48779 12.9991 6.98857 12.9991V14.9991ZM11.4544 14.9982C11.5894 14.9978 11.8289 14.9999 12.074 14.9589L11.7442 12.9863C11.6892 12.9955 11.6189 12.9977 11.4486 12.9982L11.4544 14.9982ZM12.0751 14.9588C13.8057 14.6675 14.993 13.263 14.9973 11.5021L12.9973 11.4973C12.9954 12.2882 12.508 12.8578 11.7431 12.9865L12.0751 14.9588ZM14.9973 11.5024C15.0025 9.55215 14.9986 7.59989 14.9986 5.65365H12.9986C12.9986 7.6054 13.0025 9.55024 12.9973 11.4971L14.9973 11.5024Z" fill="#475467" mask="url(#path-1-inside-1_6100_179707)"/>
<mask id="path-3-inside-2_6100_179707" fill="white">
<path d="M5.25039 10.8301H8.75036C8.94373 10.8301 9.10036 10.9877 9.10036 11.1823C9.10036 11.3769 8.94373 11.5345 8.75036 11.5345H5.25039C5.05701 11.5345 4.90039 11.3769 4.90039 11.1823C4.90039 10.9877 5.05701 10.8301 5.25039 10.8301Z"/>
</mask>
<path d="M5.25039 11.6301H8.75036V10.0301H5.25039V11.6301ZM8.75036 11.6301C8.49718 11.6301 8.30036 11.4248 8.30036 11.1823H9.90036C9.90036 10.5506 9.39029 10.0301 8.75036 10.0301V11.6301ZM8.30036 11.1823C8.30036 10.9398 8.49718 10.7345 8.75036 10.7345V12.3345C9.39029 12.3345 9.90036 11.814 9.90036 11.1823H8.30036ZM8.75036 10.7345H5.25039V12.3345H8.75036V10.7345ZM5.25039 10.7345C5.50357 10.7345 5.70039 10.9398 5.70039 11.1823H4.10039C4.10039 11.814 4.61046 12.3345 5.25039 12.3345V10.7345ZM5.70039 11.1823C5.70039 11.4248 5.50357 11.6301 5.25039 11.6301V10.0301C4.61046 10.0301 4.10039 10.5506 4.10039 11.1823H5.70039Z" fill="#475467" mask="url(#path-3-inside-2_6100_179707)"/>
</svg>
