<svg width="14" height="14" viewBox="0 0 14 14" fill="none" xmlns="http://www.w3.org/2000/svg">
<path d="M6.99996 0C6.99996 0.935033 6.99996 1.84457 6.99996 2.7541C6.99996 3.03461 6.99996 3.31512 7.05096 3.58713C7.23797 4.49666 8.01149 5.09168 8.97203 5.09168C10.1536 5.09168 11.3351 5.09168 12.5167 5.09168C12.5847 5.09168 12.6442 5.09168 12.7292 5.09168V5.26169C12.7292 7.52277 12.7292 9.77535 12.7292 12.0364C12.7292 13.167 11.8961 14 10.7741 14C8.258 14 5.74191 14 3.22582 14C2.11228 14 1.27075 13.167 1.27075 12.0534C1.27075 8.68731 1.27075 5.32119 1.27075 1.95507C1.27075 0.85003 2.10378 0.00850029 3.20882 0.00850029C4.41586 0.00850029 5.62291 0.00850029 6.82995 0.00850029C6.88095 0.00850029 6.92345 0.00850029 6.99146 0.00850029L6.99996 0ZM9.52455 8.89982V7.62477H7.62898V5.7377H6.35393V7.64177H4.45837V8.90832H6.35393V10.7954H7.62048V8.89982H9.52455Z" fill="#475467"/>
<path d="M12.2361 3.81664C11.1226 3.81664 10.0005 3.81664 8.88699 3.81664C8.55548 3.81664 8.28347 3.55313 8.28347 3.23862C8.27497 2.30358 8.28347 1.36005 8.28347 0.425017C8.28347 0.416517 8.28347 0.408017 8.30047 0.374015C9.62652 1.51306 10.9526 2.6436 12.2701 3.78264C12.2616 3.79964 12.2446 3.81664 12.2361 3.82514V3.81664Z" fill="#475467"/>
</svg>
