<svg width="110" height="88" viewBox="0 0 110 88" fill="none" xmlns="http://www.w3.org/2000/svg">
<path d="M6 12C6 9.79086 7.79086 8 10 8H94C96.2091 8 98 9.79086 98 12V18H6V12Z" fill="#207FFC"/>
<path d="M6 18H98V66C98 69.3137 95.3137 72 92 72H12C8.68629 72 6 69.3137 6 66V18Z" fill="#F2F4F7"/>
<circle cx="12" cy="13" r="2" fill="white"/>
<circle cx="18" cy="13" r="2" fill="white"/>
<circle cx="24" cy="13" r="2" fill="white"/>
<rect x="15" y="29" width="64" height="6" rx="3" fill="#D0D5DD"/>
<circle cx="86" cy="32" r="3" fill="#D0D5DD"/>
<rect x="15" y="41" width="30" height="6" rx="3" fill="#D0D5DD"/>
<rect x="49" y="41" width="40" height="6" rx="3" fill="#D0D5DD"/>
<rect x="15" y="53" width="20" height="6" rx="3" fill="#D0D5DD"/>
<rect x="39" y="53" width="50" height="6" rx="3" fill="#D0D5DD"/>
<g filter="url(#filter0_d_4703_138916)">
<g filter="url(#filter1_i_4703_138916)">
<circle cx="67.1799" cy="58.1799" r="11.9591" stroke="#475467" stroke-width="4.44167"/>
</g>
<path fill-rule="evenodd" clip-rule="evenodd" d="M74.9481 65.9486C75.765 65.1317 77.0895 65.1317 77.9064 65.9486L88.3872 76.4294C89.2041 77.2463 89.2041 78.5708 88.3872 79.3877C87.5703 80.2046 86.2459 80.2046 85.429 79.3877L74.9481 68.9069C74.1312 68.09 74.1312 66.7655 74.9481 65.9486Z" fill="#475467"/>
</g>
<defs>
<filter id="filter0_d_4703_138916" x="49" y="44" width="43.9999" height="44.0005" filterUnits="userSpaceOnUse" color-interpolation-filters="sRGB">
<feFlood flood-opacity="0" result="BackgroundImageFix"/>
<feColorMatrix in="SourceAlpha" type="matrix" values="0 0 0 0 0 0 0 0 0 0 0 0 0 0 0 0 0 0 127 0" result="hardAlpha"/>
<feOffset dy="4"/>
<feGaussianBlur stdDeviation="2"/>
<feComposite in2="hardAlpha" operator="out"/>
<feColorMatrix type="matrix" values="0 0 0 0 0 0 0 0 0 0 0 0 0 0 0 0 0 0 0.16 0"/>
<feBlend mode="normal" in2="BackgroundImageFix" result="effect1_dropShadow_4703_138916"/>
<feBlend mode="normal" in="SourceGraphic" in2="effect1_dropShadow_4703_138916" result="shape"/>
</filter>
<filter id="filter1_i_4703_138916" x="53" y="44" width="31.321" height="31.321" filterUnits="userSpaceOnUse" color-interpolation-filters="sRGB">
<feFlood flood-opacity="0" result="BackgroundImageFix"/>
<feBlend mode="normal" in="SourceGraphic" in2="BackgroundImageFix" result="shape"/>
<feColorMatrix in="SourceAlpha" type="matrix" values="0 0 0 0 0 0 0 0 0 0 0 0 0 0 0 0 0 0 127 0" result="hardAlpha"/>
<feOffset dx="2.96112" dy="2.96112"/>
<feGaussianBlur stdDeviation="8.88335"/>
<feComposite in2="hardAlpha" operator="arithmetic" k2="-1" k3="1"/>
<feColorMatrix type="matrix" values="0 0 0 0 0 0 0 0 0 0 0 0 0 0 0 0 0 0 0.08 0"/>
<feBlend mode="normal" in2="shape" result="effect1_innerShadow_4703_138916"/>
</filter>
</defs>
</svg>
