<svg width="24" height="25" viewBox="0 0 24 25" fill="none" xmlns="http://www.w3.org/2000/svg">
<rect y="0.0839844" width="24" height="24" rx="12" fill="#207FFC"/>
<path d="M11.2002 7.88464V11.2846H7.80016C7.35833 11.2846 7.00016 11.6428 7.00016 12.0846C7.00016 12.5265 7.35833 12.8846 7.80016 12.8846H11.2002V16.2846C11.2002 16.7265 11.5583 17.0846 12.0002 17.0846C12.442 17.0846 12.8002 16.7265 12.8002 16.2846V12.8846H16.2002C16.642 12.8846 17.0002 12.5265 17.0002 12.0846C17.0002 11.6428 16.642 11.2846 16.2002 11.2846H12.8002V7.88464C12.8002 7.44281 12.442 7.08464 12.0002 7.08464C11.5583 7.08464 11.2002 7.44281 11.2002 7.88464Z" fill="white" stroke="white" stroke-width="0.666667" stroke-linecap="round"/>
</svg>
