<svg width="36" height="36" viewBox="0 0 36 36" fill="none" xmlns="http://www.w3.org/2000/svg">
<path d="M5.86419 1.17578C5.2696 1.34375 4.76221 1.53462 4.35789 1.73312C3.12113 2.29809 2.14599 3.29061 1.66239 4.51218C-0.517791 9.16175 -0.549502 26.1186 1.54347 31.2262C1.61482 31.4553 1.70996 31.6691 1.81302 31.8905C7.07717 24.6832 14.0934 11.6431 5.86419 1.17578Z" fill="#00A0B0"/>
<path d="M10.5259 35.6368C17.2171 36.3468 26.7306 36.0185 30.758 34.6213C32.5893 34.148 34.0243 32.7814 34.5237 31.0559C34.9756 29.8649 35.3245 28.1089 35.5702 26.0399C30.8214 25.6963 19.7302 26.1162 10.5259 35.6368Z" fill="#00A0B0"/>
<path d="M6.64133 35.0188C6.10223 34.8967 5.6107 34.7592 5.18259 34.6142C4.80998 34.5073 4.46115 34.3699 4.12817 34.2019C16.8367 18.5582 17.0428 6.85413 15.2273 0.0439182C21.53 -0.162221 28.5383 0.356944 31.3844 1.60905C32.8749 2.18929 34.0244 3.38031 34.4842 4.86146C35.61 7.68632 36.1015 13.9468 35.9826 19.8103C21.7678 19.6882 11.406 29.4454 6.64926 35.0264L6.64133 35.0188ZM23.8846 18.5353C26.5959 18.688 28.9267 16.6877 29.0853 14.069C29.2439 11.4503 27.1667 9.21328 24.4475 9.06058C21.7282 8.90789 19.4053 10.9082 19.2467 13.5193C19.0882 16.138 21.1653 18.375 23.8846 18.5353Z" fill="#00A0B0"/>
</svg>
