<svg width="160" height="120" viewBox="0 0 160 120" fill="none" xmlns="http://www.w3.org/2000/svg">
<path d="M132.458 115.086C143.044 102.967 149.456 87.1246 149.456 69.7888C149.456 31.6872 118.489 0.799988 80.2889 0.799988C42.0891 0.799988 11.1223 31.6872 11.1223 69.7888C11.1223 87.1246 17.5339 102.967 28.1197 115.086H132.457H132.458Z" fill="url(#paint0_linear_4707_1837)" fill-opacity="0.5"/>
<g opacity="0.5">
<path d="M159.917 69.1134C159.325 72.925 155.743 75.537 151.918 74.9465C148.092 74.3568 145.472 70.788 146.063 66.9763C146.655 63.1646 150.236 60.5527 154.062 61.1432C157.888 61.7329 160.509 65.3017 159.917 69.1134Z" fill="#FEB71E"/>
<path d="M158.712 68.9274C158.223 72.076 155.264 74.2333 152.104 73.7459C148.944 73.2585 146.779 70.3107 147.268 67.1622C147.757 64.0136 150.716 61.8563 153.876 62.3437C157.036 62.8311 159.201 65.7781 158.712 68.9274Z" fill="#FFE063"/>
<path d="M157.524 68.1396C157.429 67.9912 157.236 67.8842 156.967 67.8295C156.756 67.7873 156.507 67.7389 156.228 67.6865C156.402 67.1968 156.59 66.6633 156.791 66.0814C156.845 65.9229 156.884 65.808 156.365 65.6081C156.271 65.5721 156.154 65.5253 156.047 65.5089C155.89 65.4847 155.809 65.5229 155.766 65.6432C155.603 66.2001 155.389 66.843 155.17 67.4905C154.805 67.4241 154.416 67.3538 154.012 67.2827C153.974 66.6219 153.945 65.9775 153.942 65.412C153.938 65.2464 153.938 65.1746 153.44 65.098C152.948 65.0223 152.919 65.0957 152.867 65.2394C152.663 65.8049 152.435 66.3876 152.207 66.9664C151.838 66.9023 151.471 66.8398 151.109 66.7781C151.1 66.1408 151.082 65.5104 151.056 64.941C151.033 64.7731 150.961 64.7286 150.853 64.7122C150.78 64.7012 150.694 64.7044 150.603 64.7083C150.562 64.7098 150.521 64.7114 150.483 64.7122C150.243 64.7176 149.958 64.777 149.955 65.0309C149.952 65.4722 149.963 66.0127 149.982 66.5883C149.719 66.5446 149.465 66.5024 149.222 66.4626C148.774 66.3938 148.565 66.536 148.5 66.9562C148.435 67.3702 148.6 67.5764 149.051 67.6459C149.311 67.6858 149.647 67.7381 150.032 67.7982C150.079 68.7644 150.143 69.7127 150.204 70.3789C150.213 70.4703 150.256 70.5836 150.349 70.6086C150.536 70.657 150.771 70.7007 150.978 70.7328C151.221 70.7703 151.421 70.7773 151.551 70.7671C151.589 70.764 151.664 70.6734 151.713 70.568C151.971 70.0196 152.345 69.0987 152.665 68.2083C152.854 68.238 153.042 68.2669 153.23 68.2958C153.26 69.0347 153.325 69.8111 153.38 70.4117C153.396 70.5797 153.41 70.7335 153.423 70.8749C153.426 70.9687 153.477 71.078 153.59 71.1132C153.715 71.1569 153.897 71.1991 154.101 71.2303C154.312 71.2623 154.521 71.2803 154.672 71.2795C154.752 71.2772 154.87 71.1858 154.926 71.0874C155.132 70.6453 155.446 69.8447 155.863 68.7019C156.307 68.7691 156.589 68.8105 156.714 68.8269C157.402 68.9121 157.533 68.6926 157.573 68.5192C157.608 68.3731 157.591 68.245 157.524 68.1396ZM153.14 67.0351H153.141C153.171 67.0398 153.191 67.0882 153.205 67.1304C153.154 67.121 153.104 67.1078 153.053 67.0984C153.078 67.0632 153.111 67.0304 153.14 67.0343V67.0351ZM151.303 69.3159C151.286 69.3643 151.243 69.3487 151.193 69.3409C151.192 69.3409 151.191 69.3409 151.189 69.3409C151.138 69.3331 151.094 69.3299 151.095 69.2776C151.108 68.8699 151.116 68.4254 151.117 67.9693C151.178 67.9787 151.24 67.988 151.302 67.9974C151.457 68.0216 151.615 68.0466 151.775 68.0716C151.612 68.4887 151.451 68.9058 151.303 69.3167V69.3159ZM154.265 69.9275C154.265 69.9275 154.263 69.9275 154.262 69.9275C154.212 69.9197 154.17 69.9064 154.167 69.8556C154.148 69.4112 154.115 68.9417 154.082 68.427C154.335 68.4661 154.581 68.5051 154.814 68.541C154.655 69.0113 154.503 69.469 154.377 69.883C154.362 69.9322 154.317 69.9361 154.265 69.9283V69.9275Z" fill="#FA9C05"/>
</g>
<g opacity="0.5">
<path d="M20.2422 68.4054C23.3431 73.5459 21.6738 80.2178 16.5147 83.3075C11.3557 86.3971 4.65973 84.7338 1.55889 79.5933C-1.54194 74.4528 0.127378 67.781 5.28642 64.6913C10.4455 61.6016 17.1414 63.2649 20.2422 68.4054Z" fill="#FEB71E"/>
<path d="M18.6178 69.3785C21.1786 73.6251 19.8003 79.1363 15.5384 81.6889C11.2765 84.2406 5.74532 82.8672 3.18352 78.6206C0.622647 74.374 2.001 68.8628 6.2629 66.3102C10.5248 63.7585 16.056 65.1319 18.6178 69.3785Z" fill="#FFE063"/>
<path d="M16.4113 69.6146C16.1502 69.5309 15.8126 69.595 15.4349 69.7976C15.1412 69.9565 14.7942 70.1461 14.41 70.3598C14.1284 69.6015 13.8197 68.7792 13.4793 67.8843C13.386 67.6418 13.318 67.4652 12.4982 67.7412C12.349 67.7914 12.1625 67.8518 12.0189 67.9382C11.8072 68.0655 11.7475 68.191 11.8184 68.3768C12.1793 69.2038 12.5654 70.1842 12.9505 71.1757C12.4479 71.4581 11.9135 71.7611 11.3596 72.0751C10.6545 71.3234 9.9756 70.5819 9.40672 69.9101C9.23793 69.7149 9.16518 69.6303 8.49372 70.0327C7.82973 70.4304 7.86983 70.5456 7.95003 70.7705C8.27177 71.6486 8.58139 72.5714 8.88727 73.4876C8.38368 73.7775 7.88102 74.0665 7.38861 74.3508C6.74047 73.5991 6.08953 72.8641 5.48988 72.2099C5.29497 72.0324 5.1644 72.0501 5.01892 72.1383C4.921 72.1969 4.82121 72.287 4.71583 72.3818C4.6692 72.4236 4.62164 72.4664 4.57595 72.5054C4.29524 72.7498 4.01267 73.1038 4.26446 73.4086C4.70278 73.9392 5.25487 74.5739 5.85172 75.2429C5.49361 75.451 5.14762 75.6527 4.81842 75.845C4.2141 76.2074 4.10686 76.5856 4.44818 77.1515C4.78484 77.71 5.18772 77.7936 5.79576 77.4294C6.14735 77.2194 6.59965 76.948 7.12003 76.6377C8.14121 77.7444 9.16518 78.8149 9.90379 79.5499C10.0045 79.6502 10.1696 79.7432 10.3067 79.68C10.578 79.5527 10.9026 79.3724 11.1814 79.2051C11.5097 79.0081 11.755 78.8176 11.9014 78.6773C11.9424 78.6364 11.9424 78.4534 11.8958 78.2787C11.6561 77.368 11.1824 75.8961 10.675 74.5162C10.9306 74.3638 11.1842 74.2124 11.4379 74.0609C12.211 74.9139 13.0643 75.7772 13.732 76.4388C13.9186 76.6237 14.0892 76.7929 14.2459 76.9499C14.3429 77.0586 14.5145 77.1385 14.6851 77.0679C14.8782 76.9963 15.1374 76.8663 15.4135 76.7009C15.697 76.5308 15.9646 76.345 16.1437 76.1935C16.237 76.1108 16.2864 75.885 16.2547 75.7131C16.0588 74.9808 15.6345 73.7134 14.9901 71.9339C15.5888 71.5734 15.9665 71.3438 16.1325 71.2388C17.0399 70.6571 16.9774 70.2659 16.8506 70.0197C16.7471 69.8106 16.5997 69.674 16.4132 69.6146H16.4113ZM10.0698 72.6438H10.0717C10.1118 72.6187 10.1845 72.6559 10.2423 72.6931C10.1724 72.733 10.0987 72.7665 10.0297 72.8065C10.025 72.7395 10.0297 72.668 10.0707 72.6438H10.0698ZM10.1537 77.1906C10.1808 77.2649 10.1155 77.2881 10.0474 77.329C10.0455 77.3299 10.0437 77.3309 10.0427 77.3318C9.9728 77.3736 9.91778 77.4136 9.86742 77.3485C9.4748 76.8486 9.04022 76.3106 8.58605 75.7633C8.66812 75.714 8.75112 75.6638 8.83505 75.6137C9.04395 75.4891 9.25844 75.3628 9.47387 75.2345C9.69582 75.8943 9.92057 76.5522 10.1547 77.1896L10.1537 77.1906ZM14.3037 74.9827C14.3037 74.9827 14.3009 74.9846 14.3 74.9846C14.2319 75.0255 14.1685 75.0515 14.1144 74.9929C13.6472 74.4809 13.138 73.9541 12.585 73.3705C12.9263 73.1661 13.2602 72.9681 13.5735 72.7804C13.8533 73.4997 14.1284 74.1975 14.3914 74.8173C14.4231 74.8916 14.3737 74.94 14.3037 74.9818V74.9827Z" fill="#FA9C05"/>
</g>
<g opacity="0.8">
<path d="M32.6417 99.8862C31.2573 103.016 27.5887 104.435 24.4476 103.056C21.3065 101.676 19.8829 98.021 21.2665 94.8912C22.6509 91.7614 26.3195 90.3421 29.4606 91.7215C32.6017 93.1009 34.0261 96.7564 32.6417 99.8862Z" fill="#FEB71E"/>
<path d="M31.6525 99.451C30.5088 102.036 27.479 103.209 24.8843 102.069C22.2896 100.93 21.1137 97.91 22.2566 95.3254C23.4003 92.74 26.4301 91.5676 29.0248 92.7072C31.6196 93.8468 32.7962 96.8664 31.6525 99.451Z" fill="#FFE063"/>
<path d="M30.8167 98.5045C30.7697 98.3561 30.6293 98.2202 30.4106 98.1116C30.2397 98.0273 30.0367 97.9288 29.8109 97.8203C30.0728 97.4407 30.3558 97.0267 30.6623 96.5744C30.7446 96.451 30.8049 96.362 30.4067 96.0722C30.3346 96.0199 30.2444 95.9527 30.1566 95.9144C30.0273 95.8574 29.9489 95.8715 29.8854 95.9652C29.6173 96.4049 29.2857 96.9064 28.9494 97.411C28.6523 97.2704 28.3349 97.122 28.0056 96.9681C28.1256 96.394 28.2486 95.8348 28.3756 95.3497C28.4117 95.2068 28.4274 95.1458 28.0182 94.9662C27.6144 94.7889 27.5729 94.8459 27.4945 94.9568C27.1896 95.395 26.8603 95.8418 26.5319 96.2854C26.2309 96.1464 25.9306 96.0082 25.6351 95.873C25.7738 95.3247 25.9032 94.7811 26.0122 94.2874C26.031 94.1382 25.98 94.0844 25.8906 94.0453C25.8311 94.0187 25.7558 94.0023 25.6774 93.9844C25.6421 93.9766 25.6069 93.968 25.5739 93.9602C25.367 93.9102 25.1091 93.8953 25.0487 94.1125C24.9445 94.4905 24.8292 94.9553 24.7132 95.4528C24.4984 95.3552 24.2899 95.2607 24.0916 95.1716C23.7239 95.0099 23.5115 95.0849 23.3586 95.4294C23.2081 95.7691 23.3022 95.9839 23.6714 96.1464C23.8854 96.2401 24.1606 96.3612 24.4773 96.501C24.2954 97.3391 24.1316 98.1663 24.0304 98.7505C24.0163 98.831 24.0281 98.9372 24.1018 98.9802C24.2499 99.0645 24.4412 99.1559 24.6113 99.2301C24.8112 99.3176 24.9813 99.3692 25.095 99.391C25.1279 99.3965 25.2134 99.3364 25.2792 99.2575C25.6265 98.8474 26.1587 98.1429 26.6369 97.4539C26.7921 97.5219 26.9466 97.5906 27.101 97.6586C26.9568 98.2983 26.8337 98.9778 26.7435 99.5051C26.7184 99.6519 26.6949 99.787 26.673 99.912C26.6542 99.9932 26.673 100.099 26.7623 100.155C26.8595 100.221 27.0054 100.299 27.1731 100.372C27.3456 100.448 27.5204 100.511 27.6505 100.545C27.7195 100.561 27.8418 100.51 27.9115 100.438C28.1898 100.107 28.6429 99.4934 29.263 98.6092C29.6283 98.7685 29.8603 98.8685 29.9638 98.9107C30.5337 99.1403 30.696 98.9833 30.7697 98.8427C30.8339 98.7256 30.8488 98.6123 30.8151 98.5068L30.8167 98.5045ZM27.315 96.5565H27.3158C27.3401 96.5674 27.3464 96.6135 27.3479 96.6526C27.3064 96.633 27.2664 96.6104 27.2248 96.5908C27.2546 96.5666 27.2899 96.5455 27.3142 96.5565H27.315ZM25.2165 98.0905C25.1906 98.128 25.1577 98.1046 25.1169 98.0866C25.1161 98.0866 25.1146 98.0858 25.1138 98.0851C25.0715 98.0663 25.0346 98.0538 25.0479 98.0093C25.153 97.6625 25.2612 97.2837 25.3678 96.8931C25.418 96.915 25.4689 96.9369 25.5199 96.9595C25.6469 97.0158 25.7762 97.0736 25.9071 97.1314C25.6712 97.4516 25.4383 97.7719 25.2165 98.0905ZM27.6137 99.2918C27.6137 99.2918 27.6121 99.2911 27.6113 99.2911C27.5698 99.2731 27.5368 99.252 27.5462 99.2083C27.6317 98.8232 27.7117 98.4131 27.8018 97.9648C28.0095 98.0562 28.2118 98.146 28.4023 98.2296C28.1577 98.5959 27.9217 98.9528 27.7187 99.2786C27.6944 99.3176 27.6552 99.3106 27.6129 99.2918H27.6137Z" fill="#FA9C05"/>
</g>
<path d="M151.222 94.4186C152.706 99.9713 149.391 105.672 143.818 107.149C138.245 108.628 132.524 105.325 131.041 99.7721C129.557 94.2194 132.872 88.519 138.445 87.0404C144.018 85.5619 149.739 88.8651 151.223 94.4178L151.222 94.4186Z" fill="#FEB71E"/>
<path d="M149.467 94.884C150.692 99.4713 147.954 104.18 143.351 105.401C138.747 106.621 134.021 103.893 132.796 99.3065C131.57 94.72 134.308 90.0109 138.912 88.79C143.515 87.5684 148.241 90.2967 149.467 94.884Z" fill="#FFE063"/>
<path d="M147.373 94.5169C147.155 94.3716 146.827 94.3403 146.426 94.427C146.113 94.495 145.743 94.5786 145.332 94.6731C145.275 93.9006 145.21 93.0617 145.136 92.1478C145.115 91.9002 145.099 91.7198 144.271 91.7565C144.121 91.7635 143.932 91.769 143.777 91.8104C143.548 91.8713 143.461 91.9713 143.475 92.1611C143.587 93.018 143.682 94.0232 143.772 95.0371C143.234 95.1644 142.661 95.3011 142.068 95.444C141.619 94.5653 141.192 93.703 140.847 92.9344C140.743 92.7094 140.699 92.6126 139.974 92.8055C139.257 92.9953 139.263 93.1133 139.277 93.3406C139.339 94.2341 139.378 95.1652 139.415 96.09C138.874 96.2235 138.334 96.3563 137.805 96.4875C137.409 95.6237 137.005 94.7754 136.628 94.0138C136.496 93.7983 136.371 93.7811 136.213 93.8233C136.107 93.8514 135.991 93.9076 135.87 93.967C135.816 93.9935 135.761 94.0193 135.708 94.0435C135.385 94.1943 135.03 94.4458 135.181 94.7926C135.443 95.3964 135.781 96.1275 136.153 96.9007C135.768 96.9976 135.396 97.0921 135.041 97.1819C134.388 97.3553 134.189 97.6748 134.352 98.2864C134.514 98.8902 134.863 99.0729 135.519 98.8987C135.898 98.798 136.387 98.6691 136.949 98.5207C137.594 99.8103 138.251 101.066 138.734 101.938C138.801 102.057 138.928 102.186 139.07 102.164C139.353 102.119 139.7 102.039 140.002 101.959C140.357 101.865 140.634 101.754 140.805 101.664C140.854 101.637 140.903 101.469 140.906 101.296C140.928 100.395 140.884 98.9144 140.785 97.5092C141.061 97.4366 141.335 97.3639 141.609 97.2921C142.093 98.2817 142.649 99.3018 143.087 100.088C143.209 100.308 143.321 100.509 143.423 100.695C143.483 100.821 143.62 100.94 143.795 100.92C143.992 100.906 144.266 100.855 144.563 100.775C144.87 100.694 145.165 100.593 145.371 100.502C145.479 100.45 145.584 100.255 145.601 100.088C145.616 99.3627 145.564 98.0833 145.445 96.2751C146.091 96.1017 146.5 95.99 146.682 95.9377C147.672 95.6424 147.719 95.2659 147.667 95.0058C147.628 94.7856 147.528 94.6208 147.372 94.5169H147.373ZM140.728 95.6268H140.729C140.773 95.6143 140.83 95.669 140.873 95.7182C140.798 95.7361 140.722 95.7479 140.647 95.7658C140.66 95.7033 140.685 95.6385 140.728 95.6268ZM139.594 99.8345C139.599 99.9102 139.532 99.9142 139.459 99.9337C139.457 99.9337 139.456 99.9345 139.453 99.9352C139.378 99.9556 139.317 99.9774 139.287 99.9048C139.06 99.3408 138.803 98.7308 138.53 98.1067C138.618 98.0833 138.708 98.0583 138.799 98.0349C139.024 97.9755 139.255 97.9161 139.488 97.8544C139.516 98.5207 139.547 99.1854 139.593 99.8345H139.594ZM144.002 98.9011C144.002 98.9011 143.999 98.9011 143.998 98.9019C143.925 98.9214 143.86 98.9292 143.826 98.8613C143.532 98.2661 143.204 97.6467 142.851 96.9632C143.22 96.8656 143.579 96.7719 143.918 96.682C143.983 97.4178 144.05 98.1333 144.127 98.773C144.136 98.8495 144.077 98.8816 144.002 98.9011Z" fill="#FA9C05"/>
<path d="M155.389 108.499H8.25029C8.03382 108.499 7.85834 108.674 7.85834 108.89V118.809C7.85834 119.025 8.03382 119.2 8.25029 119.2H155.389C155.605 119.2 155.781 119.025 155.781 118.809V108.89C155.781 108.674 155.605 108.499 155.389 108.499Z" fill="url(#paint1_linear_4707_1837)"/>
<path d="M126.639 52.3542L127.333 67.8806L115.613 68.6679L114.863 57.5992C114.863 57.5992 125.9 51.2092 126.639 52.3542Z" fill="#FCDBD4"/>
<path d="M110.327 51.4887L114.929 57.5945L126.587 54.7193L127.779 44.0755C127.779 44.0755 110.223 38.4259 110.327 51.4887Z" fill="#FCDBD4"/>
<path d="M110.886 46.9077C110.743 47.9856 111.328 48.3168 112.185 47.6435L113.845 46.3391C114.702 45.6666 115.447 44.2278 115.502 43.1421L115.979 33.6707C116.034 32.585 115.374 31.6071 114.513 31.4977C113.651 31.3883 112.83 32.1804 112.687 33.2575L110.886 46.9061V46.9077Z" fill="#FCDBD4"/>
<path d="M110.568 51.7881C111.252 52.6348 112.507 52.7707 113.357 52.0888L113.685 51.8256C114.535 51.1445 114.614 49.9432 113.861 49.1566L108.753 43.8179C108 43.0313 106.827 42.9259 106.147 43.5836C105.467 44.2412 105.469 45.4722 106.153 46.3189L110.569 51.7881H110.568Z" fill="#FCDBD4"/>
<path d="M115.059 45.0893C114.872 46.1601 115.597 47.1888 116.672 47.3763L116.821 47.4021C117.896 47.5887 118.928 46.8662 119.116 45.7954L120.014 40.6707C120.201 39.5998 119.476 38.5711 118.402 38.3844L118.252 38.3587C117.177 38.172 116.145 38.8945 115.957 39.9654L115.058 45.09L115.059 45.0893Z" fill="#FCDBD4"/>
<path d="M119.116 45.7952C118.929 46.8661 119.654 47.8948 120.729 48.0815L120.878 48.1072C121.953 48.2939 122.986 47.5706 123.173 46.5005L124.071 41.3758C124.258 40.305 123.533 39.2763 122.458 39.0888L122.308 39.0631C121.234 38.8764 120.201 39.5997 120.014 40.6697L119.115 45.7944L119.116 45.7952Z" fill="#FCDBD4"/>
<path d="M123.174 46.5005C122.986 47.5714 123.711 48.6001 124.786 48.7875L124.936 48.8133C126.011 49 127.043 48.2775 127.23 47.2066L128.128 42.0819C128.316 41.0111 127.59 39.9824 126.515 39.7957L126.366 39.7699C125.291 39.5832 124.259 40.3057 124.071 41.3766L123.174 46.5013V46.5005Z" fill="#FCDBD4"/>
<path d="M123.286 46.2625C123.263 46.2625 123.24 46.261 123.217 46.2563C123.002 46.2188 122.857 46.0141 122.895 45.7986L123.76 40.8637C123.797 40.6489 124.004 40.5044 124.218 40.5426C124.434 40.5801 124.579 40.7848 124.541 41.0004L123.676 45.9352C123.642 46.1274 123.475 46.2625 123.286 46.2625Z" fill="#EB7565"/>
<path d="M119.278 45.309C119.255 45.309 119.233 45.3074 119.209 45.3027C118.994 45.2652 118.849 45.0606 118.887 44.8458L119.752 39.9109C119.789 39.6961 119.995 39.5516 120.21 39.5899C120.426 39.6274 120.571 39.832 120.532 40.0468L119.668 44.9825C119.634 45.1746 119.466 45.3098 119.277 45.3098L119.278 45.309Z" fill="#EB7565"/>
<path d="M115.272 44.3552C115.249 44.3552 115.226 44.3529 115.203 44.349C114.987 44.3115 114.842 44.1068 114.88 43.8921L115.744 38.9564C115.782 38.7416 115.988 38.5971 116.204 38.6354C116.419 38.6729 116.563 38.8775 116.526 39.0923L115.661 44.028C115.627 44.2201 115.46 44.3552 115.271 44.3552H115.272Z" fill="#EB7565"/>
<path d="M125.166 48.5861C124.96 48.5861 124.744 48.558 124.519 48.5017C123.622 48.2783 123.183 47.6152 122.996 46.9591C122.428 47.5543 121.57 48.0526 120.498 47.7847C119.638 47.5707 119.203 46.8997 119.006 46.21C118.512 46.7701 117.745 47.2004 116.659 46.9981C115.997 46.8747 115.5 46.5623 115.181 46.0702C114.58 45.1407 114.872 43.916 114.885 43.8644C114.937 43.652 115.152 43.5231 115.365 43.5746C115.577 43.627 115.708 43.841 115.656 44.0527C115.653 44.0613 115.434 45.0048 115.85 45.6445C116.049 45.9499 116.361 46.1382 116.805 46.221C118.405 46.5193 118.875 44.8783 118.894 44.808C118.948 44.6096 119.146 44.4862 119.349 44.5237C119.552 44.5604 119.692 44.7463 119.672 44.9509C119.67 44.9681 119.519 46.7255 120.691 47.0177C122.102 47.3707 122.893 45.7648 122.926 45.6961C123.009 45.5227 123.206 45.4344 123.392 45.4867C123.578 45.5391 123.699 45.7164 123.679 45.907C123.673 45.9687 123.544 47.4433 124.712 47.7347C126.025 48.0627 126.371 46.8903 126.406 46.7552C126.461 46.5451 126.676 46.4162 126.887 46.4701C127.099 46.5232 127.228 46.7357 127.175 46.9474C127.166 46.9841 126.942 47.8558 126.179 48.3135C125.875 48.4955 125.537 48.5861 125.165 48.5861H125.166Z" fill="#EB7565"/>
<path d="M104.357 57.8422C107.785 59.0357 128.482 92.117 126.79 96.9823C125.096 101.856 119.277 104.755 113.353 100.704C109.396 97.9993 98.7658 85.1513 97.68 81.2388C94.2842 69.007 101.308 56.78 104.357 57.8414L104.357 57.8422Z" fill="#EDEDED"/>
<path d="M111.483 56.2947C111.483 56.2947 109.199 93.1298 112.083 97.9046C115.821 104.096 125.355 103.872 127.001 96.3377C128.758 88.2996 127.375 57.4601 127.375 57.4601L111.483 56.2947Z" fill="white"/>
<path d="M112.083 98.2999C111.933 98.2999 111.79 98.2155 111.723 98.0718C109.888 94.1468 109.927 87.4475 109.929 87.1639C109.932 86.946 110.106 86.7695 110.329 86.7726C110.548 86.775 110.724 86.9531 110.723 87.1718C110.723 87.2397 110.683 93.9758 112.442 97.7383C112.534 97.9359 112.448 98.171 112.25 98.2631C112.196 98.2881 112.138 98.2999 112.082 98.2999H112.083Z" fill="#CCCCCC"/>
<path d="M126.791 64.2213C126.782 64.2213 126.772 64.2213 126.763 64.2205L112.286 63.209C112.067 63.1934 111.902 63.0052 111.918 62.7872C111.934 62.5693 112.122 62.4037 112.341 62.4201L126.818 63.4316C127.037 63.4473 127.202 63.6355 127.186 63.8534C127.171 64.062 126.997 64.2213 126.791 64.2213Z" fill="#CCCCCC"/>
<path d="M58.2898 56.7876C55.0962 58.5083 40.8519 96.169 43.2976 100.705C45.7473 105.248 54.081 109.558 58.1495 102.197C60.4643 98.01 68.1654 82.8633 68.6146 78.8297C70.0162 66.216 61.1314 55.2559 58.2898 56.7876Z" fill="white"/>
<path d="M60.0965 112.462C60.0965 112.462 47.1621 109.394 44.0438 104.769C39.9996 98.7701 44.2444 90.2617 51.7903 91.9692C59.841 93.7907 75.3246 108.655 75.3246 108.655L60.0965 112.462Z" fill="white"/>
<path d="M97.4252 28.1211L63.6429 30.5182L58.9724 62.795L99.2509 64.3759L97.4252 28.1211Z" fill="#4D2C2C"/>
<path d="M96.9187 34.3111C96.9187 43.8216 89.198 49.4227 80.1643 49.4227C71.1307 49.4227 64.2033 43.8216 64.2033 34.3111C64.2033 24.8006 71.5273 17.0913 80.561 17.0913C89.5947 17.0913 96.9187 24.8006 96.9187 34.3111Z" fill="#4D2C2C"/>
<path d="M85.1518 45.6229H75.9802V55.1521H85.1518V45.6229Z" fill="#FCC8BD"/>
<path d="M62.8026 33.9121C65.8135 31.9812 68.4631 34.0527 68.7743 34.0527L69.501 42.8446C69.501 42.8446 68.4623 43.6249 64.7239 42.8446C60.9855 42.0643 59.79 35.8429 62.8018 33.9121H62.8026Z" fill="#FCDBD4"/>
<path d="M61.9848 38.1346C61.9049 38.1346 61.8241 38.1104 61.7544 38.0604C61.5764 37.9331 61.5357 37.6863 61.6627 37.509C62.8503 35.8578 65.2427 36.0999 65.3439 36.1116C65.5618 36.135 65.7194 36.3311 65.695 36.5474C65.6707 36.7646 65.4748 36.9208 65.2576 36.8974C65.2286 36.8943 63.2211 36.6998 62.3078 37.9698C62.2302 38.0776 62.1087 38.1346 61.9848 38.1346Z" fill="#EB7565"/>
<path d="M95.4397 35.0953C95.4397 45.5158 86.1724 49.6602 79.7648 49.593C73.3517 49.5258 66.5576 45.8165 65.7643 35.1453C64.9694 24.4515 68.9704 16.6735 79.8675 16.6735C90.7645 16.6735 95.4389 24.6741 95.4389 35.0945L95.4397 35.0953Z" fill="#FCDBD4"/>
<path d="M97.5482 33.9121C94.5372 31.9812 91.8876 34.0527 91.5764 34.0527L90.8497 42.8446C90.8497 42.8446 91.8884 43.6249 95.6268 42.8446C99.3653 42.0643 100.56 35.8429 97.549 33.9121H97.5482Z" fill="#FCDBD4"/>
<path d="M98.365 38.1345C98.2411 38.1345 98.1196 38.0775 98.042 37.9697C97.1225 36.6903 95.1133 36.8957 95.093 36.8972C94.875 36.9207 94.679 36.7645 94.6555 36.5481C94.632 36.331 94.7888 36.1357 95.0067 36.1123C95.1079 36.1013 97.4995 35.8584 98.6879 37.5096C98.8157 37.6869 98.7742 37.9337 98.5962 38.0611C98.5264 38.1111 98.4457 38.1353 98.3657 38.1353L98.365 38.1345Z" fill="#EB7565"/>
<path d="M83.8879 36.1034C83.8605 36.9485 84.3308 37.6507 84.9391 37.6702C85.5474 37.6897 86.0633 37.0196 86.0899 36.1744C86.1174 35.3285 85.647 34.6279 85.0379 34.6076C84.4296 34.5881 83.9146 35.2582 83.8871 36.1034H83.8879Z" fill="#1A1616"/>
<path d="M73.9402 36.1034C73.9128 36.9485 74.3839 37.6507 74.9922 37.6702C75.6005 37.6897 76.1156 37.0204 76.143 36.1744C76.1704 35.3293 75.6993 34.6279 75.091 34.6076C74.4827 34.5881 73.9669 35.2582 73.9394 36.1034H73.9402Z" fill="#1A1616"/>
<path d="M80.5714 38.5632C80.3715 38.5632 80.1998 38.4133 80.1779 38.2102C80.083 37.3299 79.9129 36.0521 79.9114 36.0396C79.8824 35.8232 80.0352 35.6248 80.2524 35.5959C80.4719 35.5662 80.6686 35.7193 80.6976 35.9357C80.6992 35.949 80.8709 37.2354 80.9665 38.1258C80.99 38.343 80.8324 38.5375 80.6145 38.5609C80.6004 38.5625 80.5855 38.5632 80.5714 38.5632Z" fill="#CC4E3E"/>
<path d="M72.8388 34.3032C72.7385 34.3032 72.6373 34.2657 72.5605 34.1891C72.4045 34.036 72.403 33.7861 72.5566 33.6299C74.3149 31.8521 76.5874 32.7387 76.6839 32.7769C76.8869 32.8582 76.9849 33.0886 76.9033 33.2917C76.8218 33.4932 76.5906 33.5908 76.3883 33.5104C76.3099 33.4791 74.5023 32.7894 73.1226 34.1844C73.045 34.2626 72.9423 34.3024 72.8404 34.3024L72.8388 34.3032Z" fill="#1A1616"/>
<path d="M87.2147 34.1131C87.1238 34.1131 87.0329 34.0826 86.9584 34.0194C85.4478 32.7423 83.6636 33.6273 83.6464 33.6366C83.4512 33.7358 83.2129 33.6585 83.1126 33.4648C83.013 33.2703 83.0906 33.0321 83.285 32.9329C83.3775 32.886 85.5623 31.8027 87.4718 33.4164C87.6388 33.5578 87.6592 33.8069 87.5181 33.9733C87.4397 34.0655 87.3276 34.1131 87.2155 34.1131H87.2147Z" fill="#1A1616"/>
<path d="M83.1481 40.7976C83.1669 40.2548 78.0339 40.5539 77.7306 40.5805C77.4272 40.6071 77.3935 43.376 79.1212 43.9407C80.8489 44.5055 83.0415 43.815 83.1481 40.7976Z" fill="#FF8173"/>
<path d="M80.2304 44.529C79.8181 44.529 79.4034 44.4548 78.9981 44.3228C77.3958 43.7995 77.0893 41.7882 77.192 40.8977C77.2437 40.4533 77.413 40.2127 77.696 40.1885C77.9038 40.1706 79.4387 40.08 80.8254 40.08C82.8706 40.08 83.2273 40.2713 83.4021 40.4517C83.4985 40.5517 83.5494 40.6861 83.5447 40.8189C83.4483 43.5495 81.7692 44.529 80.2304 44.529ZM77.9822 40.9595C77.943 41.2664 77.9712 41.9624 78.251 42.5849C78.4807 43.0949 78.8147 43.4246 79.245 43.5652C79.5703 43.6714 79.9012 43.7253 80.2296 43.7253C81.6869 43.7253 82.615 42.7067 82.7404 40.9884C82.5382 40.9407 82.0326 40.8696 80.8254 40.8696C79.7138 40.8696 78.4846 40.9298 77.9822 40.9595Z" fill="#F2604D"/>
<path d="M80.5532 12.9664C74.0334 11.0715 68.2859 14.0514 64.3765 20.8687C62.5916 23.9813 62.1691 33.4746 64.7058 33.2231C77.2184 31.9843 80.9866 23.586 80.9866 23.586L80.5532 12.9672V12.9664Z" fill="#4D2C2C"/>
<path d="M80.5534 12.9665C87.0731 11.0715 92.7979 14.2818 96.7072 21.0991C98.4922 24.2117 98.3041 33.7589 95.7619 33.5785C83.5471 32.7154 79.7679 24.0766 79.7679 24.0766L80.5534 12.9665Z" fill="#4D2C2C"/>
<path d="M84.0224 83.94C84.0224 83.94 90.5515 60.841 90.6158 53.3715C86.8154 52.6404 83.8194 52.1897 83.8194 52.1897L82.0548 53.1778L76.1379 52.1405C76.007 52.1405 74.0182 52.6826 71.2832 53.5254C72.8839 57.8424 78.7726 81.414 84.0224 83.94Z" fill="white"/>
<path d="M105.282 58.0798C100.323 54.7454 90.6156 53.359 89.7016 52.902C87.8735 60.7441 81.5592 79.9158 81.5592 79.9158C78.6384 74.1014 72.8845 57.8401 71.2838 53.523C65.301 54.6321 58.9726 55.1141 57.4526 56.8309C54.988 59.6147 61.1009 113.266 61.1009 113.266H102.109C102.109 113.266 108.815 60.4559 105.282 58.0798H105.282Z" fill="#6698ED"/>
<path d="M90.9795 53.4089C90.9795 53.0136 85.1614 50.7079 85.1614 50.7079L80.9494 52.984L76.0383 50.7079C76.0383 50.7079 71.4431 53.0136 71.4438 53.4089C71.4446 54.4641 75.6973 60.655 75.6973 60.655L80.9487 54.1665L86.4995 60.391C86.4995 60.391 90.9771 54.4641 90.9787 53.4089H90.9795Z" fill="white"/>
<path d="M81.5945 84.0523C81.4667 84.0523 81.346 83.9672 81.2716 83.8633C81.201 83.7649 74.1961 73.7944 72.4934 56.9886C72.4715 56.7714 72.6306 56.5722 72.8485 56.5496C73.0704 56.5277 73.2616 56.6832 73.2836 56.9003C74.7566 71.4347 80.2172 80.7452 81.5992 82.9018C88.4842 72.5485 88.5399 57.1034 88.5399 56.9464C88.5399 56.7285 88.7171 56.5582 88.9358 56.5582C89.1545 56.5582 89.3316 56.7269 89.3324 56.9448C89.3324 57.1073 89.2744 73.3132 81.9206 83.8633C81.8469 83.9688 81.7262 84.0523 81.5977 84.0523H81.5953H81.5945Z" fill="#4F3116"/>
<path d="M86.3277 96.0608C86.3277 96.6068 85.8981 97.0192 85.3502 97.0192H77.6154C77.0675 97.0192 76.6073 96.6068 76.6073 96.0608V84.5992C76.6073 84.0532 77.0675 83.5846 77.6154 83.5846H85.3502C85.8981 83.5846 86.3277 84.054 86.3277 84.5992V96.0608Z" fill="#155BB5"/>
<path d="M85.3087 86.1613H77.7832V94.8313H85.3087V86.1613Z" fill="#FCFCFC"/>
<path d="M83.3363 89.698C83.3363 90.6416 82.5689 91.4063 81.6219 91.4063C80.675 91.4063 79.9075 90.6416 79.9075 89.698C79.9075 88.7545 80.675 87.9898 81.6219 87.9898C82.5689 87.9898 83.3363 88.7545 83.3363 89.698Z" fill="#CCCCCC"/>
<path d="M83.0253 94.6751H80.1547L81.6221 88.6498L83.0253 94.6751Z" fill="#CCCCCC"/>
<path d="M75.8234 61.3502C75.5788 61.3502 75.0254 61.1823 72.3515 56.8262C72.2371 56.6403 72.2959 56.3966 72.4832 56.2825C72.6706 56.1685 72.9144 56.2271 73.0288 56.4138C74.0126 58.0165 75.2277 59.8248 75.7607 60.4082C76.6943 59.0757 80.1945 54.5017 80.6342 53.9276C80.7126 53.826 80.8357 53.7667 80.9635 53.7721C81.092 53.7768 81.2104 53.8432 81.2809 53.951C83.0165 56.5934 85.0304 59.4444 85.7367 60.1544C86.497 59.2163 88.7884 56.4958 88.8981 56.3661C89.0392 56.199 89.2893 56.1771 89.4571 56.3177C89.6248 56.4583 89.6468 56.7074 89.5057 56.8746C88.4638 58.1111 86.4249 60.5418 86.1631 60.8917C86.0745 61.0104 85.9389 61.0792 85.7868 61.0721C85.5219 61.0643 85.2216 61.055 82.8292 57.6424C82.0648 56.5512 81.3264 55.4522 80.9258 54.85C79.079 57.2659 76.4231 60.7746 76.2467 61.1042C76.1683 61.2534 76.021 61.3455 75.8532 61.351C75.8438 61.351 75.8336 61.351 75.8226 61.351L75.8234 61.3502Z" fill="#CCCCCC"/>
<path d="M109.688 116.217C109.688 116.544 109.478 116.78 109.149 116.78H54.2124C53.884 116.78 53.5602 116.545 53.5602 116.217V116.019C53.5602 115.692 53.884 115.374 54.2124 115.374H109.149C109.478 115.374 109.688 115.692 109.688 116.019V116.217Z" fill="#2B3647"/>
<path d="M111.05 114.035C110.998 115.12 110.063 115.998 108.972 115.998H54.4838C53.3934 115.998 52.4574 115.12 52.4057 114.035L50.7634 80.0646C50.7109 78.9789 51.5606 78.115 52.6511 78.115H110.805C111.896 78.115 112.745 78.9789 112.693 80.0646L111.05 114.035Z" fill="#535A66"/>
<path d="M79.2111 93.3789H77.341L76.5217 101.874H79.5536L79.7342 100.001H78.5746L79.2111 93.3789Z" fill="white"/>
<path d="M86.2609 93.3459H81.2015L81.0788 94.6087H81.0719L80.3729 101.857H82.243L82.4906 99.2987H85.6846V99.2917H85.6892L86.2354 93.6332H86.2308L86.2585 93.3436L86.2609 93.3459ZM84.2126 95.2182L83.9997 97.4264H82.6735L82.8864 95.2182H84.2126Z" fill="white"/>
<path d="M83.597 101.831H85.467L85.6267 100.175H83.7567L83.597 101.831Z" fill="white"/>
<defs>
<linearGradient id="paint0_linear_4707_1837" x1="80.2889" y1="0.799988" x2="80.2889" y2="115.086" gradientUnits="userSpaceOnUse">
<stop stop-color="#207FFC" stop-opacity="0.6"/>
<stop offset="1" stop-color="#207FFC" stop-opacity="0"/>
<stop offset="1" stop-color="#207FFC" stop-opacity="0.3"/>
<stop offset="1" stop-color="#207FFC" stop-opacity="0.3"/>
</linearGradient>
<linearGradient id="paint1_linear_4707_1837" x1="81.8195" y1="108.499" x2="81.8195" y2="119.2" gradientUnits="userSpaceOnUse">
<stop stop-color="#EFEFEF"/>
<stop offset="1" stop-color="#EFEFEF" stop-opacity="0.3"/>
</linearGradient>
</defs>
</svg>
