<svg width="120" height="120" viewBox="0 0 120 120" fill="none" xmlns="http://www.w3.org/2000/svg">
<g clip-path="url(#clip0_6268_223207)">
<path d="M59.7875 91.4163C58.4132 91.2858 56.9118 91.2062 55.4308 90.991C52.9872 90.6334 51.3943 88.744 51.335 86.258C51.2553 82.913 49.0626 80.322 45.7802 79.7509C44.3432 79.5001 42.9655 79.7509 41.6641 80.4253C38.9613 81.8267 36.7668 81.337 34.9316 78.9256C33.2726 76.7464 31.9254 74.3859 30.8884 71.8491C29.836 69.2768 30.541 67.0484 32.893 65.5538C36.7109 63.1272 37.2328 58.013 33.9538 55.0221C33.5675 54.6696 33.1167 54.3798 32.6761 54.0918C30.6426 52.7683 29.8801 50.4756 30.7663 48.2235C31.8797 45.3936 33.3895 42.7839 35.2807 40.4031C36.8058 38.4831 39.2036 38.0561 41.4946 39.2575C44.3127 40.7369 47.4765 40.2539 49.5625 38.0103C50.7029 36.7835 51.2858 35.3194 51.3299 33.6451C51.4011 30.9762 52.9414 29.1647 55.5562 28.7614C58.5437 28.3005 61.538 28.3056 64.5238 28.7783C66.947 29.163 68.5162 31.0423 68.5925 33.5452C68.6704 36.1463 69.8346 38.134 72.1375 39.3558C74.1388 40.4166 76.2417 40.4522 78.2125 39.3406C80.6408 37.9714 83.3606 38.5068 85.0602 40.9114C86.6159 43.1127 87.9952 45.397 89.0204 47.893C90.0897 50.4976 89.3865 52.7209 87.0005 54.2392C83.2352 56.6353 82.6946 61.6817 85.8957 64.6862C86.2922 65.059 86.7565 65.3691 87.2157 65.6657C89.2611 66.9908 90.0406 69.2649 89.1628 71.5221C88.0512 74.3774 86.5294 77.0023 84.6197 79.3967C83.1471 81.2421 80.7544 81.7301 78.6294 80.6067C76.2722 79.3611 73.9337 79.2696 71.6494 80.7015C69.7058 81.9199 68.6941 83.7484 68.6009 86.0343C68.484 88.9321 66.9097 90.7215 64.0205 91.0706C62.6581 91.235 61.2855 91.2994 59.7858 91.4197L59.7875 91.4163ZM69.2974 59.6855C69.1008 54.4544 64.8458 50.362 59.7892 50.5434C54.5343 50.7314 50.4216 55.0119 50.6182 60.0888C50.8215 65.3047 55.0817 69.4022 60.1298 69.2395C65.3592 69.07 69.4872 64.7692 69.2957 59.6855H69.2974Z" fill="#667085"/>
</g>
<circle cx="59.9614" cy="59.9197" r="47.4" stroke="#E4E7EC" stroke-width="1.2"/>
<circle cx="60" cy="60" r="59.4" stroke="#F2F4F7" stroke-width="1.2"/>
<defs>
<clipPath id="clip0_6268_223207">
<rect width="72" height="72" fill="white" transform="translate(23.9614 23.9197)"/>
</clipPath>
</defs>
</svg>
