<svg width="16" height="16" viewBox="0 0 16 16" fill="none" xmlns="http://www.w3.org/2000/svg">
<path d="M7.99927 14C7.25968 14 6.65455 13.4462 6.65455 12.7692H9.34399C9.34399 13.4462 8.74559 14 7.99927 14ZM3.96512 10.3077V7.23077C3.96512 5.34154 5.06779 3.76 6.99073 3.34154V2.92308C6.99073 2.41231 7.44121 2 7.99927 2C8.55733 2 9.00781 2.41231 9.00781 2.92308V3.34154C10.9375 3.76 12.0334 5.33538 12.0334 7.23077V10.3077L12.9008 11.1015C13.3243 11.4892 13.0285 12.1538 12.4301 12.1538H3.57515C2.97676 12.1538 2.67419 11.4892 3.09778 11.1015L3.96512 10.3077Z" fill="#207FFC"/>
</svg>
