<svg width="16" height="16" viewBox="0 0 16 16" fill="none" xmlns="http://www.w3.org/2000/svg">
<path d="M6.17918 4.84363V6.01042C6.11714 6.01042 6.06082 6.01042 6.00482 6.01042C5.42795 6.01042 4.85076 6.0101 4.27388 6.01042C3.61174 6.01105 3.28655 6.33369 3.28623 6.99298C3.2856 9.0841 3.28592 11.1752 3.28623 13.2667C3.28623 14.0128 3.58978 14.3198 4.33625 14.3205C6.50151 14.3221 8.66676 14.3211 10.832 14.3211C11.1391 14.3211 11.4461 14.3262 11.7532 14.3192C12.4016 14.3052 12.7265 13.9765 12.7275 13.3287C12.7303 11.8571 12.7284 10.3852 12.7284 8.91355C12.7284 8.28354 12.7306 7.65353 12.7262 7.02352C12.7252 6.89243 12.7144 6.75784 12.6832 6.63088C12.5932 6.26688 12.2925 6.02601 11.8909 6.01774C11.2558 6.00469 10.6204 6.00628 9.98533 6.01392C9.83291 6.01583 9.79855 5.96555 9.80269 5.8246C9.81191 5.49718 9.80555 5.16913 9.80555 4.83854C9.83291 4.82836 9.85201 4.81531 9.87078 4.81563C10.6379 4.82199 11.407 4.79845 12.1719 4.8449C13.2149 4.90822 13.8541 5.57482 13.8962 6.62038C13.9267 7.38148 13.9117 8.14481 13.9121 8.90687C13.9127 10.458 13.913 12.0092 13.9057 13.5603C13.9035 14.0125 13.801 14.4414 13.5197 14.8114C13.1761 15.2633 12.6893 15.4252 12.1534 15.485C12.0434 15.4975 11.9314 15.4994 11.8203 15.4994C9.27927 15.5 6.73792 15.5 4.19688 15.5C3.77401 15.5 3.36164 15.443 2.98396 15.24C2.43 14.9425 2.16081 14.4458 2.12072 13.8461C2.07585 13.1766 2.08635 12.503 2.08445 11.831C2.08031 10.1952 2.08254 8.55909 2.08349 6.92329C2.08349 6.51729 2.13663 6.12019 2.32627 5.75396C2.62441 5.17773 3.13446 4.88849 3.74888 4.85413C4.54975 4.80958 5.35508 4.84363 6.17918 4.84363Z" fill="#101828"/>
<path d="M8.53185 2.10785C8.54617 2.4184 8.57258 2.72926 8.5729 3.03981C8.5764 5.24771 8.57576 7.4556 8.57353 9.66349C8.57353 10.0033 8.32408 10.2512 7.99889 10.2505C7.66957 10.2499 7.42743 10.0043 7.42711 9.66031C7.42584 7.46324 7.4252 5.26616 7.42806 3.06877C7.42838 2.78845 7.44938 2.50813 7.4602 2.2278C7.46179 2.18326 7.4602 2.13839 7.4602 2.07221C7.08442 2.47694 6.72615 2.86322 6.36755 3.2495C6.29182 3.33095 6.21768 3.41368 6.14005 3.49323C5.92973 3.70991 5.57654 3.7201 5.36749 3.51709C5.17117 3.32618 5.17817 3.0099 5.40154 2.7929C6.13018 2.08494 6.86169 1.38016 7.59829 0.680147C7.86207 0.429416 8.14971 0.442143 8.42908 0.707511C9.01168 1.26179 9.58918 1.8218 10.1686 2.37958C10.3057 2.51163 10.4454 2.64145 10.58 2.77604C10.8037 3.00004 10.8215 3.31918 10.6246 3.51328C10.4095 3.72551 10.0658 3.71405 9.84596 3.47891C9.44473 3.05 9.04731 2.61758 8.64894 2.18612C8.62063 2.15526 8.59613 2.12089 8.57003 2.08812L8.53185 2.10785Z" fill="#101828"/>
</svg>
