<svg width="14" height="14" viewBox="0 0 14 14" fill="none" xmlns="http://www.w3.org/2000/svg">
<g clip-path="url(#clip0_5384_161558)">
<path d="M6.64764 13.1456C6.41834 13.1146 6.18725 13.0933 5.96036 13.0505C4.11188 12.703 2.69852 11.7175 1.73381 10.1092C0.99237 8.87333 0.712826 7.51894 0.966491 6.10317C1.41996 3.57373 2.90314 1.89828 5.36005 1.1439C6.74995 0.717211 8.13713 0.839982 9.47798 1.41411C9.50656 1.42645 9.53455 1.44059 9.57517 1.45985C9.25681 1.77851 8.94447 2.09086 8.62159 2.41403C8.40283 2.35836 8.15789 2.28795 7.90934 2.23439C7.08395 2.05625 6.2712 2.11342 5.47229 2.38183C4.59364 2.67733 3.8528 3.18075 3.26001 3.89059C2.64857 4.6227 2.27334 5.46404 2.15297 6.41521C2.02268 7.44431 2.20593 8.41805 2.69551 9.328C3.18298 10.2337 3.89072 10.9237 4.80969 11.3919C5.55955 11.7741 6.35606 11.9513 7.19679 11.9176C8.16572 11.8788 9.04557 11.5719 9.83576 11.0107C10.5778 10.4838 11.1312 9.80012 11.4962 8.96811C11.7929 8.29167 11.9301 7.58303 11.8961 6.84129C11.875 6.3791 11.7938 5.92774 11.6839 5.48059C11.6656 5.40536 11.6737 5.35721 11.733 5.30305C12.0137 5.04698 12.29 4.78579 12.574 4.52039C12.7519 4.86372 12.8815 5.21639 12.9601 5.5841C13.4127 7.69978 12.9384 9.57956 11.4796 11.1843C10.5411 12.2167 9.36062 12.8312 7.98547 13.0668C7.78116 13.1017 7.57413 13.12 7.36831 13.1459L6.64764 13.1456Z" fill="#475467"/>
<path d="M8.55924 3.68112C8.51982 3.72776 8.49244 3.76507 8.46024 3.79757C8.21169 4.04732 7.95833 4.29226 7.71549 4.54743C7.63816 4.62868 7.56323 4.64462 7.46123 4.62567C7.09442 4.55736 6.73122 4.5706 6.36773 4.66358C5.18245 4.9672 4.37993 6.20995 4.59478 7.41689C4.82196 8.69214 5.92148 9.55394 7.20756 9.46457C8.46385 9.37701 9.46437 8.27989 9.45414 6.99502C9.45264 6.8241 9.42285 6.65349 9.41322 6.48227C9.41081 6.44044 9.42465 6.38598 9.45173 6.35619C9.69968 6.08387 9.95244 5.81606 10.2028 5.54584C10.2696 5.47363 10.3069 5.48596 10.349 5.57383C10.9686 6.86442 10.6827 8.43306 9.7397 9.46397C8.90739 10.3736 7.86835 10.7979 6.64185 10.6697C5.32418 10.5319 4.34141 9.84853 3.73929 8.67047C3.16636 7.55019 3.18592 6.40223 3.77962 5.29759C4.36097 4.21553 5.28686 3.57911 6.50675 3.39285C7.19161 3.28813 7.85241 3.40518 8.49545 3.64621C8.50989 3.65163 8.52283 3.66126 8.55984 3.68142L8.55924 3.68112Z" fill="#475467"/>
<path d="M10.9247 0.853516C10.9247 0.99404 10.9247 1.10869 10.9247 1.22333C10.9247 1.61572 10.9223 2.0081 10.9274 2.40018C10.928 2.45284 10.9542 2.51633 10.99 2.55515C11.126 2.70169 11.2675 2.84402 11.4146 2.97943C11.4561 3.01765 11.5244 3.04443 11.581 3.04503C12.0414 3.05014 12.5018 3.04804 12.9622 3.04804C13.0052 3.04804 13.0482 3.04804 13.1141 3.04804C13.0768 3.09107 13.0564 3.11785 13.0326 3.14162C12.4979 3.67694 11.9641 4.21315 11.4257 4.74456C11.38 4.78969 11.3048 4.82159 11.2404 4.82791C10.8384 4.86823 10.4352 4.89712 10.0331 4.93684C9.97958 4.94225 9.9185 4.97445 9.87968 5.01297C9.33383 5.554 8.7916 6.09895 8.24665 6.64088C8.1958 6.69143 8.18617 6.73176 8.20362 6.80608C8.28457 7.15092 8.20122 7.46988 7.98907 7.74431C7.52598 8.34342 6.771 8.41624 6.19356 7.92907C5.65493 7.4747 5.65373 6.58461 6.18664 6.12242C6.44391 5.89944 6.7394 5.78209 7.07702 5.80225C7.25366 5.81278 7.37191 5.752 7.49258 5.62833C7.99269 5.11528 8.50453 4.61336 9.00705 4.10302C9.05459 4.05458 9.08859 3.97574 9.09551 3.90743C9.13614 3.50933 9.16532 3.11033 9.20354 2.71192C9.20835 2.66077 9.23153 2.60089 9.26643 2.56448C9.79783 2.0093 10.3325 1.45714 10.8667 0.904369C10.8778 0.892935 10.8904 0.883606 10.9247 0.853516Z" fill="#475467"/>
</g>
<defs>
<clipPath id="clip0_5384_161558">
<rect width="14" height="14" fill="white"/>
</clipPath>
</defs>
</svg>
