<svg width="14" height="14" viewBox="0 0 14 14" fill="none" xmlns="http://www.w3.org/2000/svg">
<path fill-rule="evenodd" clip-rule="evenodd" d="M13 7C13 10.3137 10.3137 13 7 13C3.68629 13 1 10.3137 1 7C1 3.68629 3.68629 1 7 1C10.3137 1 13 3.68629 13 7ZM14 7C14 10.866 10.866 14 7 14C3.13401 14 0 10.866 0 7C0 3.13401 3.13401 0 7 0C10.866 0 14 3.13401 14 7ZM6.05967 9.05319H7.39311V8.94845C7.4052 8.09037 7.67914 7.69557 8.33982 7.29674C9.07705 6.8536 9.54033 6.24932 9.54033 5.32276C9.54033 3.96916 8.48082 3.11108 6.94595 3.11108C5.53998 3.11108 4.3999 3.89262 4.35559 5.41944H5.7817C5.82198 4.66207 6.36986 4.2995 6.93789 4.2995C7.55828 4.2995 8.0538 4.70639 8.0538 5.34693C8.0538 5.91495 7.68317 6.29766 7.19169 6.60383C6.47863 7.051 6.06772 7.49414 6.05967 8.94845V9.05319ZM5.87838 10.6807C5.87032 11.1682 6.27318 11.563 6.76063 11.563C7.236 11.563 7.63886 11.1682 7.64288 10.6807C7.63886 10.1973 7.236 9.80653 6.76063 9.80653C6.27318 9.80653 5.87032 10.1973 5.87838 10.6807Z" fill="#207FFC"/>
</svg>
