<svg width="15" height="14" viewBox="0 0 15 14" fill="none" xmlns="http://www.w3.org/2000/svg">
<path d="M2.11685 0.000488281H9.69187C9.70197 0.0146543 9.70814 0.0299536 9.71039 0.0469528C9.74967 1.00174 9.71768 1.95653 9.72834 2.91132C9.72947 2.99745 9.72498 3.08415 9.74181 3.16971C9.82542 3.60319 10.1352 3.86611 10.5813 3.86838C11.4056 3.87291 12.23 3.86951 13.0543 3.87008C13.2204 3.87008 13.3871 3.86668 13.5526 3.88878C13.6048 3.91428 13.6149 3.96244 13.6188 4.01401C13.6239 4.07294 13.6239 4.13243 13.6239 4.19136C13.6239 7.1362 13.6239 10.0805 13.625 13.0253C13.625 13.2463 13.5784 13.4486 13.4623 13.635C13.3001 13.8951 13.0571 13.996 12.7642 13.9999C12.7373 13.9999 12.7103 13.9999 12.6828 13.9999C9.22555 13.9999 5.76884 13.9999 2.31157 13.9988C2.12302 13.9988 1.93223 13.9926 1.76837 13.8724C1.52651 13.6951 1.40474 13.4514 1.37893 13.1556C1.37388 13.0967 1.37612 13.0372 1.37612 12.9783C1.37668 8.98741 1.37724 4.996 1.375 1.00458C1.375 0.775653 1.40699 0.56033 1.531 0.365405C1.65053 0.17728 1.80597 0.0418531 2.03885 0.0237206C2.06522 0.021454 2.09328 0.0157876 2.11685 0.000488281Z" fill="#E1574C"/>
<path d="M10.7877 10.8789C10.3933 10.881 10.0595 10.7073 9.78143 10.4334C9.50484 10.1611 9.25251 9.85985 9.00069 9.56128C8.92333 9.46908 8.85658 9.43585 8.74281 9.46426C7.82402 9.69529 6.90372 9.92257 5.98342 10.1472C5.87116 10.1745 5.80492 10.2303 5.74829 10.3439C5.54804 10.7454 5.35134 11.1522 5.11115 11.5264C4.96957 11.7472 4.76882 11.9407 4.55948 12.093C4.22878 12.3337 3.7661 12.287 3.46068 12.0313C3.17801 11.7949 3.05716 11.3629 3.16284 10.9571C3.27965 10.509 3.56434 10.2045 3.95774 10.0501C4.38098 9.88451 4.82647 9.78373 5.25982 9.64597C5.33819 9.62132 5.43073 9.57468 5.47371 9.50714C6.02488 8.64305 6.56746 7.77253 7.11509 6.9063C7.18284 6.79909 7.17728 6.71762 7.1161 6.6013C6.85164 6.09796 6.60892 5.57961 6.53459 5.0007C6.50678 4.78628 6.51284 4.55632 6.55481 4.34513C6.64381 3.897 7.04682 3.54268 7.465 3.50355C7.82352 3.46978 8.18152 3.71743 8.37317 4.13554C8.56684 4.55793 8.54964 5.00016 8.42576 5.42952C8.31401 5.81761 8.15573 6.19177 8.00656 6.56645C7.96257 6.67634 7.9565 6.75621 8.02072 6.86074C8.36558 7.42089 8.70488 7.98534 9.04115 8.55139C9.09576 8.64305 9.14885 8.67093 9.25454 8.65699C9.78042 8.58838 10.3088 8.53584 10.8362 8.64252C11.3879 8.75401 11.7692 9.10887 11.8541 9.58486C11.9821 10.3026 11.5088 10.8778 10.7877 10.8789ZM7.5813 7.3898C7.18487 8.04162 6.80613 8.66557 6.40514 9.32489C7.10295 9.14424 7.75525 8.97539 8.42879 8.80118C8.14006 8.32036 7.8665 7.86473 7.5813 7.3898ZM9.73137 9.30505C9.96651 9.56503 10.1819 9.81697 10.4115 10.0534C10.5708 10.2174 10.7725 10.2286 10.9778 10.1606C11.1128 10.1161 11.2342 10.0276 11.2266 9.87111C11.2205 9.743 11.1715 9.59987 11.0982 9.4991C11.0395 9.41869 10.9202 9.3742 10.8196 9.34526C10.4636 9.24341 10.102 9.2284 9.73137 9.30505ZM7.54085 5.93929C7.7239 5.52762 7.89633 5.15936 7.87358 4.73C7.8579 4.42875 7.68446 4.18056 7.49484 4.18753C7.29358 4.19504 7.14745 4.43357 7.15402 4.7493C7.16262 5.17705 7.36336 5.53137 7.54085 5.93929ZM4.81686 10.6033C4.80321 10.5797 4.78955 10.5562 4.7759 10.5326C4.52004 10.6275 4.25456 10.7014 4.01235 10.8263C3.91122 10.8783 3.83638 11.0284 3.79087 11.1512C3.73373 11.3055 3.7757 11.4594 3.9274 11.5425C4.0791 11.6261 4.22018 11.5746 4.31019 11.4374C4.48818 11.1662 4.64898 10.8815 4.81686 10.6023V10.6033Z" fill="white"/>
<path d="M9.68628 0.0288086C10.4113 0.757509 11.1374 1.48564 11.8619 2.21491C12.4202 2.77702 12.9763 3.34196 13.5336 3.9052C13.4875 3.946 13.4309 3.93353 13.3781 3.93353C12.4449 3.9341 11.5117 3.93466 10.5785 3.93353C10.0404 3.93297 9.66607 3.55672 9.66551 3.01557C9.66383 2.06872 9.66551 1.12186 9.66551 0.175002C9.66551 0.125704 9.6571 0.0741399 9.68628 0.0288086Z" fill="#B43629"/>
</svg>
