<svg width="20" height="21" viewBox="0 0 20 21" fill="none" xmlns="http://www.w3.org/2000/svg">
<g clip-path="url(#clip0_6652_1607)">
<path d="M5.35792 3.00293H14.6427C16.2189 3.00293 17.4977 4.28164 17.4977 5.85792V15.1386C17.4977 16.7149 16.2189 17.9936 14.6427 17.9936H5.36194C3.78566 17.9936 2.50293 16.7149 2.50293 15.1346V5.85792C2.50293 4.28164 3.78164 3.00293 5.35792 3.00293Z" fill="#A2E11A"/>
<path d="M14.6424 18.5H5.35763C3.5039 18.5 2 16.9921 2 15.1424V5.85763C2 4.00792 3.50792 2.5 5.35763 2.5H14.6384C16.4921 2.5 18 4.00792 18 5.85763V15.1384C18 16.9921 16.4921 18.496 14.6384 18.496L14.6424 18.5ZM5.35763 3.50528C4.05881 3.50528 3.00528 4.56283 3.00528 5.85763V15.1384C3.00528 16.4372 4.06283 17.4907 5.35763 17.4907H14.6384C15.9372 17.4907 16.9947 16.4331 16.9947 15.1384V5.85763C16.9947 4.55881 15.9372 3.50528 14.6384 3.50528H5.35763Z" fill="#282828"/>
<path d="M11.977 7.52651C13.341 8.89519 13.341 11.1083 11.977 12.477C10.6083 13.841 8.39519 13.841 7.02651 12.477C5.65783 11.1083 5.65783 8.89519 7.02651 7.52651C8.39519 6.15783 10.6083 6.15783 11.977 7.52651Z" fill="#F8FFA8"/>
<path d="M9.50121 14.5C8.34805 14.5 7.19489 14.064 6.3179 13.1825C5.46514 12.3299 5 11.2013 5 10C5 8.79871 5.46999 7.66523 6.3179 6.81755C7.17066 5.96502 8.2996 5.5 9.50121 5.5C10.7028 5.5 11.8366 5.96986 12.6845 6.81755C14.4385 8.57104 14.4385 11.429 12.6845 13.1825C11.8075 14.0592 10.6544 14.5 9.50121 14.5ZM9.50121 7.19537C8.78412 7.19537 8.06218 7.46663 7.51467 8.01399C6.96716 8.56136 6.69098 9.24919 6.69098 10C6.69098 10.7508 6.9817 11.4532 7.51467 11.986C8.60969 13.0807 10.3927 13.0807 11.4829 11.986C12.5779 10.8913 12.5779 9.11356 11.4829 8.01884C10.9354 7.47147 10.2183 7.20022 9.49637 7.20022L9.50121 7.19537Z" fill="#282828"/>
<path d="M14.7105 15.6211C14.5295 15.6211 14.3486 15.5527 14.2119 15.416L11.7881 12.9922C11.5146 12.7188 11.5146 12.2725 11.7881 11.999C12.0615 11.7256 12.5079 11.7256 12.7813 11.999L15.2051 14.4228C15.4785 14.6962 15.4785 15.1426 15.2051 15.416C15.0684 15.5527 14.8874 15.6211 14.7065 15.6211H14.7105Z" fill="#282828"/>
</g>
<defs>
<clipPath id="clip0_6652_1607">
<rect width="16" height="16" fill="white" transform="translate(2 2.5)"/>
</clipPath>
</defs>
</svg>
