<svg width="36" height="36" viewBox="0 0 36 36" fill="none" xmlns="http://www.w3.org/2000/svg">
<rect width="36" height="36" rx="10.8" fill="#006CB5"/>
<path d="M10.989 18.7298C10.6134 18.7298 10.3183 19.0339 10.3183 19.4005V21.4573H7.8054V19.4005C7.8054 19.0249 7.50135 18.7298 7.1347 18.7298C6.7591 18.7298 6.464 19.0249 6.464 19.4005C6.464 19.4005 6.464 19.4094 6.464 19.4184H6.43717V20.1517L6.464 20.1338V25.249C6.464 25.6246 6.76805 25.9197 7.1347 25.9197C7.50135 25.9197 7.8054 25.6157 7.8054 25.249V22.7629H10.3183V25.249C10.3183 25.6246 10.6223 25.9197 10.989 25.9197C11.3556 25.9197 11.6597 25.6157 11.6597 25.249V19.4005C11.6597 19.0249 11.3556 18.7298 10.989 18.7298Z" fill="white"/>
<path d="M14.7091 20.572C13.1978 20.572 12.4377 21.7704 12.4377 23.237C12.4377 24.7036 13.2604 25.9019 14.7091 25.9019C16.1578 25.9019 16.9805 24.7036 16.9805 23.237C16.9805 21.7704 16.2204 20.572 14.7091 20.572ZM14.7091 24.8824C14.0116 24.8824 13.6181 24.1491 13.6181 23.237C13.6181 22.3248 13.9848 21.5915 14.7091 21.5915C15.4335 21.5915 15.8001 22.3248 15.8001 23.237C15.8001 24.1491 15.4066 24.8824 14.7091 24.8824Z" fill="white"/>
<path d="M27.2825 22.9237C26.1557 22.9237 25.2346 23.7822 24.9932 25.0521H24.2331V22.405C24.2331 21.1709 23.8664 20.5718 22.8559 20.5718L22.8738 20.5897C22.3104 20.5897 21.7828 20.9742 21.3535 21.5108C21.1657 20.9563 20.7991 20.5897 20.1999 20.5897C19.6723 20.5897 19.1715 20.9205 18.7512 21.3856V21.1173C18.7512 20.7953 18.4829 20.5271 18.161 20.5271C17.839 20.5271 17.5708 20.7953 17.5708 21.1173V25.2577C17.5708 25.5797 17.839 25.848 18.161 25.848C18.4829 25.848 18.7512 25.5797 18.7512 25.2577V22.7538C18.7512 22.2709 19.091 21.6538 19.5918 21.6538C20.0926 21.6538 20.3251 21.9579 20.3251 22.2351V25.2577C20.3251 25.5797 20.5934 25.848 20.9153 25.848C21.2373 25.848 21.5055 25.5797 21.5055 25.2577V22.9952C21.5055 22.3514 21.8454 21.6538 22.3461 21.6538C22.8469 21.6538 23.0794 22.0294 23.0794 22.3067V25.2577C23.0794 25.535 23.2762 25.7585 23.5445 25.8211C23.5981 25.848 23.6518 25.8569 23.7144 25.8569H24.9485C25.0021 27.2698 26.0395 28.343 27.3183 28.343C28.5077 28.343 29.1515 27.5024 29.1873 27.4666C29.393 27.2609 29.5539 26.9479 29.3483 26.7333C29.1426 26.5187 28.7938 26.5365 28.5971 26.7512C28.5971 26.7512 28.0605 27.2788 27.3272 27.2788C26.6476 27.2788 26.1915 26.6617 26.1378 25.8658H29.1605C29.384 25.8658 29.5629 25.687 29.5629 25.4634V25.4455C29.5629 24.3098 28.6418 22.9237 27.3093 22.9237H27.2825ZM26.1826 25.0521C26.3256 24.4529 26.6833 23.9879 27.2825 23.9879C27.9443 23.9879 28.2215 24.587 28.3199 25.0521H26.1826Z" fill="white"/>
<path d="M31.2924 15.029L22.8664 7.65625H14.0827L4.73267 16.3108C4.43458 16.589 4.42464 17.0461 4.69292 17.3441C4.84197 17.5031 5.03076 17.5727 5.22949 17.5727H9.88961C10.297 17.5727 10.6249 17.2348 10.6249 16.8275C10.6249 16.5492 10.4659 16.3108 10.2274 16.1816C10.2175 16.1816 10.2076 16.1617 10.1877 16.1518C10.138 16.1319 10.0883 16.122 10.0387 16.112C9.98898 16.1021 9.94923 16.0723 9.88961 16.0723H7.12732L13.2282 10.4086C14.0728 9.6137 14.669 9.60377 15.5036 10.349C16.3184 11.0843 19.3192 13.787 20.8891 15.2078C21.376 15.645 21.7238 15.963 21.8331 16.0624H30.9049C31.1533 16.0624 31.3719 15.9133 31.4613 15.6748C31.5508 15.4463 31.4812 15.178 31.2924 15.0191V15.029Z" fill="white"/>
</svg>
