<svg width="16" height="16" viewBox="0 0 16 16" fill="none" xmlns="http://www.w3.org/2000/svg">
<path d="M4.55569 1.85999V2.88971C4.53281 2.89734 4.5042 2.91387 4.4756 2.91577C3.79993 2.95963 3.51898 3.25647 3.51453 3.94486C3.51008 4.67393 3.51008 5.40363 3.51008 6.13333C3.51071 8.69175 3.51262 11.2495 3.51389 13.8079C3.51389 14.6234 3.80692 14.9254 4.61544 14.926C6.87828 14.9279 9.14049 14.9279 11.4033 14.926C12.1578 14.926 12.4833 14.6018 12.4839 13.841C12.4864 10.5637 12.4858 7.28637 12.4839 4.00906C12.4839 3.25711 12.2042 2.96472 11.43 2.90306V1.88097C12.4648 1.70617 13.3433 2.32082 13.4996 3.32321C13.5352 3.55204 13.5569 3.78595 13.5569 4.01732C13.5607 7.28382 13.56 10.5503 13.5581 13.8168C13.5581 13.9853 13.5448 14.155 13.5238 14.3222C13.3871 15.411 12.7649 15.9843 11.6614 15.9926C9.82125 16.0059 7.98174 15.997 6.14159 15.9977C5.54918 15.9977 4.95741 16.0034 4.365 15.9964C3.15985 15.9818 2.45684 15.3137 2.45175 14.1092C2.43713 10.652 2.43586 7.19484 2.45175 3.73828C2.45811 2.46448 3.2482 1.77164 4.55442 1.85999H4.55569Z" fill="white"/>
<path d="M6.54253 1.35149C6.7186 0.525166 7.22012 0.0427231 7.89961 0.00331399C8.65346 -0.0405445 9.11557 0.347826 9.47978 1.35339C9.66666 1.35339 9.86688 1.34004 10.0646 1.35657C10.4421 1.38772 10.636 1.59493 10.6481 1.97377C10.6563 2.23755 10.657 2.50198 10.6468 2.76576C10.6322 3.13379 10.4135 3.36135 10.0468 3.36326C8.68461 3.37025 7.32245 3.36961 5.9603 3.36326C5.57447 3.36135 5.37425 3.17193 5.34247 2.7861C5.32085 2.52359 5.32276 2.25789 5.33674 1.99474C5.35963 1.55807 5.55794 1.37119 5.99653 1.35339C6.17387 1.34577 6.35185 1.35212 6.54253 1.35212V1.35149ZM7.97969 1.97377C8.30577 1.97949 8.55875 1.73223 8.55939 1.40615C8.56003 1.10105 8.30895 0.840439 8.00766 0.834718C7.69303 0.828362 7.42225 1.09469 7.42161 1.4106C7.42098 1.71507 7.67141 1.96805 7.97969 1.97377Z" fill="white"/>
<path d="M8.95426 7.04673C8.33134 7.04673 7.70842 7.04801 7.08551 7.04673C6.75371 7.0461 6.55793 6.89164 6.55603 6.63675C6.55412 6.37805 6.74926 6.21787 7.07661 6.21787C8.32244 6.2166 9.56828 6.21597 10.8141 6.21787C11.1408 6.21787 11.3468 6.38123 11.3468 6.62785C11.3468 6.88147 11.1453 7.04546 10.823 7.04673C10.2001 7.04864 9.57718 7.04737 8.95426 7.04673Z" fill="white"/>
<path d="M8.95179 9.3903C8.32887 9.3903 7.70595 9.39157 7.0824 9.3903C6.74742 9.38966 6.558 9.23966 6.55483 8.97841C6.55101 8.72416 6.74742 8.56589 7.07986 8.56525C8.32633 8.56335 9.57216 8.56335 10.8186 8.56525C11.1492 8.56525 11.35 8.72543 11.3475 8.97651C11.3449 9.23457 11.1511 9.38967 10.8218 9.39094C10.1989 9.39284 9.57598 9.39094 8.95242 9.39094L8.95179 9.3903Z" fill="white"/>
<path d="M8.94652 11.8642C8.3236 11.8642 7.70005 11.8661 7.07713 11.8635C6.7466 11.8623 6.55655 11.7053 6.55527 11.444C6.554 11.1872 6.74342 11.0347 7.08221 11.034C8.32868 11.0321 9.57515 11.0315 10.8216 11.034C11.1572 11.0347 11.3486 11.191 11.3467 11.4472C11.3447 11.6995 11.1452 11.861 10.8165 11.8629C10.1936 11.8661 9.57007 11.8642 8.94715 11.8635L8.94652 11.8642Z" fill="white"/>
<path d="M5.21236 6.08312C5.53526 6.08185 5.77172 6.31703 5.76854 6.63675C5.766 6.95266 5.52128 7.19674 5.20918 7.19547C4.90535 7.1942 4.64856 6.93677 4.64665 6.63167C4.64474 6.32021 4.88819 6.08375 5.21173 6.08248L5.21236 6.08312Z" fill="white"/>
<path d="M5.7685 8.97651C5.76468 9.30068 5.53649 9.52379 5.20724 9.52506C4.88815 9.52569 4.64852 9.28797 4.64788 8.97142C4.64788 8.66759 4.90531 8.41652 5.21423 8.41906C5.53141 8.4216 5.77231 8.66378 5.7685 8.97714V8.97651Z" fill="white"/>
<path d="M5.21854 10.8834C5.53127 10.8847 5.77281 11.1345 5.76836 11.4523C5.76391 11.7682 5.5211 12.0072 5.20392 12.0059C4.89374 12.0053 4.64711 11.7542 4.64838 11.4402C4.64902 11.1364 4.90963 10.8821 5.21854 10.8834Z" fill="white"/>
</svg>
