<svg width="14" height="14" viewBox="0 0 14 14" fill="none" xmlns="http://www.w3.org/2000/svg">
<path d="M6.58984 0C6.86328 0 7.13672 0 7.41016 0C7.44543 0.00765625 7.48016 0.0199609 7.5157 0.0224219C8.49707 0.0888672 9.42703 0.347266 10.2867 0.821953C12.259 1.91078 13.4654 3.56535 13.8895 5.78184C13.9407 6.04844 13.9636 6.32051 13.9997 6.58984V7.41016C13.9918 7.44953 13.9792 7.48836 13.9765 7.52801C13.9081 8.50445 13.6505 9.43004 13.1783 10.2856C12.0898 12.2582 10.4355 13.4649 8.21926 13.8895C7.95211 13.9407 7.67977 13.9639 7.40988 14H6.56223C6.3957 13.9792 6.22918 13.9612 6.0632 13.9374C5.19941 13.8138 4.38238 13.5496 3.61566 13.1294C3.5577 13.0977 3.46719 13.0925 3.40266 13.1113C3.06715 13.2106 2.73492 13.3208 2.40215 13.4291C1.82 13.6186 1.23812 13.8094 0.65625 13.9997H0.4375C0.220117 13.9256 0.0735547 13.7807 0 13.5625C0 13.4895 0 13.4168 0 13.3438C0.00628906 13.3375 0.0155859 13.3323 0.0180469 13.3249C0.306523 12.4247 0.592539 11.5237 0.88457 10.6244C0.916562 10.5257 0.913008 10.4483 0.862695 10.3573C0.480703 9.66656 0.223672 8.93184 0.100625 8.15145C0.0631641 7.9141 0.0333594 7.67539 0 7.4375C0 7.15504 0 6.8723 0 6.58984C0.00792969 6.55047 0.0205078 6.51164 0.0232422 6.47199C0.0916016 5.49555 0.34918 4.56996 0.821406 3.71438C1.90969 1.7418 3.56426 0.535117 5.78047 0.110469C6.04734 0.0590625 6.31996 0.0360938 6.58984 0ZM1.3959 12.6044C1.98707 12.4146 2.55336 12.2563 3.10133 12.0487C3.48223 11.9046 3.78875 11.9558 4.14121 12.1548C5.4116 12.8723 6.77797 13.0761 8.20668 12.778C9.69227 12.4682 10.8847 11.6834 11.7748 10.4584C12.7933 9.05598 13.1212 7.48891 12.7772 5.79551C12.4772 4.31867 11.6944 3.13305 10.4814 2.24301C9.07895 1.21406 7.50641 0.869531 5.81027 1.22227C3.9427 1.61055 2.57633 2.69719 1.70953 4.38977C1.13859 5.50484 0.976445 6.69621 1.17195 7.93488C1.29199 8.69531 1.55258 9.40406 1.95234 10.0609C2.07266 10.2586 2.09699 10.4546 2.02043 10.6725C1.92855 10.9342 1.84762 11.1997 1.76258 11.4639C1.64309 11.8349 1.52387 12.206 1.3959 12.6044Z" fill="#475467"/>
<path d="M4.94818 7.00479C4.94544 7.37994 4.62853 7.6892 4.25392 7.68264C3.88396 7.67607 3.58017 7.3649 3.5829 6.99522C3.58564 6.62006 3.90255 6.3108 4.27716 6.31736C4.64712 6.32393 4.95091 6.6351 4.94818 7.00479Z" fill="#475467"/>
<path d="M6.31774 6.98208C6.32813 6.60637 6.65024 6.30395 7.02485 6.31817C7.39563 6.33239 7.69258 6.64876 7.68219 7.01817C7.6718 7.39387 7.34942 7.69629 6.97508 7.68208C6.60457 7.66786 6.30735 7.35149 6.31774 6.98208Z" fill="#475467"/>
<path d="M10.4169 7.00646C10.4131 7.38162 10.0957 7.69033 9.72104 7.68267C9.35108 7.67502 9.04811 7.3633 9.05167 6.99361C9.05549 6.61845 9.37296 6.30974 9.74757 6.3174C10.1175 6.32506 10.4205 6.63678 10.4169 7.00646Z" fill="#475467"/>
</svg>
