<svg width="16" height="16" viewBox="0 0 16 16" fill="none" xmlns="http://www.w3.org/2000/svg">
<path d="M5.25427 15H5.21608C4.07807 14.9923 3.02407 14.5387 2.24503 13.7239C1.45836 12.9551 1.00773 11.8942 1.0001 10.7564C0.99246 9.64942 1.43544 8.56547 2.22212 7.77364L3.92532 6.0593C4.22318 5.75949 4.70436 5.75949 5.00222 6.0593C5.30009 6.35912 5.30009 6.84344 5.00222 7.14326L3.29903 8.8576C2.80258 9.35729 2.51999 10.0415 2.52763 10.7411C2.52763 11.4714 2.81786 12.1402 3.32958 12.6399C3.8413 13.1703 4.51341 13.4548 5.23135 13.4625C5.96457 13.4471 6.60613 13.2088 7.10258 12.7091L8.80577 10.9948C9.10364 10.6949 9.58481 10.6949 9.88268 10.9948C10.1805 11.2946 10.1805 11.7789 9.88268 12.0787L8.17948 13.793C7.40808 14.5695 6.36936 15 5.25427 15ZM5.40702 11.3176C5.20844 11.3176 5.0175 11.2408 4.86475 11.0947C4.56688 10.7949 4.56688 10.3106 4.86475 10.0107L9.98197 4.86004C10.2798 4.56022 10.761 4.56022 11.0589 4.86004C11.3567 5.15985 11.3567 5.64417 11.0589 5.94399L5.94165 11.0947C5.7889 11.2484 5.59796 11.3176 5.39938 11.3176H5.40702ZM11.5248 10.1491C11.3262 10.1491 11.1353 10.0722 10.9825 9.92617C10.6846 9.62636 10.6846 9.14204 10.9825 8.84222L12.6857 7.12788C13.1821 6.62819 13.4647 5.94399 13.4571 5.24442C13.4571 4.51409 13.1669 3.84527 12.6551 3.34558C12.1434 2.8305 11.4713 2.54606 10.7534 2.54606C10.0583 2.56144 9.37096 2.80744 8.88215 3.29945L7.17895 5.01379C6.88109 5.3136 6.39991 5.3136 6.10205 5.01379C5.80418 4.71397 5.80418 4.22965 6.10205 3.92983L7.80524 2.2155C8.59192 1.42367 9.63064 0.97779 10.7763 1.00085C11.899 1.00854 12.953 1.44673 13.7397 2.24625C14.5416 3.0227 14.9846 4.09127 14.9999 5.22904C15.0075 6.33606 14.5646 7.42001 13.7779 8.21184L12.0747 9.92617C11.9219 10.0799 11.731 10.1491 11.5324 10.1491H11.5248Z" fill="#207FFC"/>
</svg>
