<svg width="20" height="21" viewBox="0 0 20 21" fill="none" xmlns="http://www.w3.org/2000/svg">
<g clip-path="url(#clip0_6652_1575)">
<path d="M2.44824 4.03906V4.14428C2.44824 4.10921 2.45497 4.07414 2.45833 4.03906H2.44824Z" fill="white"/>
<path d="M2.44853 4.58266C2.20094 4.58266 2 4.38624 2 4.14423V4.03901C2 3.797 2.20094 3.60059 2.44853 3.60059H2.4593C2.5813 3.60059 2.69971 3.64969 2.78583 3.73737C2.87194 3.82506 2.915 3.94431 2.90783 4.06356C2.90783 4.09162 2.90424 4.11617 2.90065 4.14073C2.90065 4.35819 2.73918 4.53706 2.52747 4.57214C2.50235 4.57564 2.47724 4.57915 2.44853 4.57915V4.58266Z" fill="#282828"/>
<path d="M16.0585 4.14463C16.0585 4.10956 16.0656 4.07449 16.0692 4.03941C16.1123 3.13099 16.7187 2.37339 17.5512 2.07527V1.93848H4.70525C3.49601 1.93848 2.51642 2.87145 2.45901 4.03941C2.45901 4.07449 2.44824 4.10605 2.44824 4.14463C2.44824 5.3617 3.46013 6.35079 4.70525 6.35079H17.5512V6.21049C16.6828 5.90184 16.0585 5.09865 16.0585 4.14463Z" fill="white"/>
<path d="M17.5515 6.78917H4.70554C3.21283 6.78917 2 5.60366 2 4.14458C2 4.10249 2.00359 4.06391 2.01076 4.02533C2.07894 2.60834 3.26306 1.5 4.70554 1.5H17.5515C17.7991 1.5 18 1.69641 18 1.93843V2.07521C18 2.26111 17.8816 2.42245 17.7058 2.48558C17.0204 2.7311 16.5539 3.3484 16.5181 4.06041C16.5181 4.09197 16.5145 4.11652 16.5109 4.14458C16.5109 4.88114 16.9917 5.54755 17.7058 5.80008C17.8852 5.86321 18 6.02806 18 6.21395V6.35425C18 6.59626 17.7991 6.79267 17.5515 6.79267V6.78917ZM4.70554 2.37685C3.74389 2.37685 2.95447 3.11691 2.90783 4.06041C2.90783 4.09197 2.90424 4.11652 2.90065 4.14458C2.90065 5.11964 3.71159 5.91232 4.70554 5.91232H16.3135C15.8722 5.43531 15.6102 4.81099 15.6102 4.14458C15.6102 4.10249 15.6138 4.06391 15.621 4.02533C15.6533 3.39751 15.9045 2.82229 16.3135 2.37685H4.70554Z" fill="#282828" stroke="black" stroke-width="0.3"/>
<path d="M4.70525 6.35069C3.46013 6.35069 2.44824 5.3616 2.44824 4.14453V16.7852H2.45542C2.45542 16.8098 2.44824 16.8343 2.44824 16.8589C2.44824 18.0759 3.46013 19.065 4.70525 19.065H17.5512V6.35069H4.70525Z" fill="#F8CE00"/>
<path d="M17.5515 19.4999H4.70554C3.21283 19.4999 2 18.3144 2 16.8553C2 16.8413 2 16.8308 2 16.8167C2 16.8062 2 16.7957 2 16.7817V4.14448C2 3.90247 2.20094 3.70605 2.44853 3.70605C2.69612 3.70605 2.89706 3.90247 2.89706 4.14448C2.89706 5.11954 3.70801 5.91221 4.70554 5.91221H17.5515C17.7991 5.91221 18 6.10863 18 6.35064V19.0615C18 19.3035 17.7991 19.4999 17.5515 19.4999ZM2.89706 16.708C2.90424 16.7396 2.90424 16.7676 2.90424 16.7992C2.90424 16.8167 2.89706 16.8658 2.89706 16.8834C2.89706 17.8304 3.70801 18.6266 4.70554 18.6266H17.1029V6.78906H4.70554C4.00942 6.78906 3.37789 6.53302 2.89706 6.10863V16.7045V16.708Z" fill="#282828" stroke="black" stroke-width="0.3"/>
<path d="M9.85434 11.7489L7.87004 10.4266L5.88574 11.7489V9.05874V6.37207H7.87004H9.85434V9.05874V11.7489Z" fill="#6ABBEE"/>
<path d="M9.85463 12.1873C9.76493 12.1873 9.67881 12.1627 9.60346 12.1101L7.87033 10.9562L6.1408 12.1101C6.00444 12.2013 5.82503 12.2118 5.67791 12.1347C5.53079 12.0575 5.4375 11.9102 5.4375 11.7489V6.37202C5.4375 6.13001 5.63844 5.93359 5.88603 5.93359H9.85463C10.1022 5.93359 10.3032 6.13001 10.3032 6.37202V11.7489C10.3032 11.9102 10.2099 12.061 10.0628 12.1347C9.99816 12.1698 9.9264 12.1873 9.85463 12.1873ZM7.87033 9.98815C7.96004 9.98815 8.04616 10.0127 8.12151 10.0653L9.4061 10.9211V6.81044H6.33456V10.9211L7.61557 10.0653C7.69092 10.0127 7.78063 9.98815 7.86674 9.98815H7.87033Z" fill="#282828"/>
<path d="M15.8833 4.53408H9.90166C9.65407 4.53408 9.45312 4.33766 9.45312 4.09565C9.45312 3.85364 9.65407 3.65723 9.90166 3.65723H15.8833C16.1309 3.65723 16.3318 3.85364 16.3318 4.09565C16.3318 4.33766 16.1309 4.53408 15.8833 4.53408Z" fill="#282828" stroke="black" stroke-width="0.3"/>
</g>
<defs>
<clipPath id="clip0_6652_1575">
<rect width="16" height="18" fill="white" transform="translate(2 1.5)"/>
</clipPath>
</defs>
</svg>
