<svg width="120" height="120" viewBox="0 0 120 120" fill="none" xmlns="http://www.w3.org/2000/svg">
<rect width="120" height="120" rx="20" fill="#003399"/>
<path d="M72.6831 39.4956L72.8928 38.7359H72.1047H66.4917H66.0254L65.9103 39.1878L57.9666 70.3765L49.4376 39.1777L49.3169 38.7359H48.8589H43.4159H42.958L42.8372 39.1777L34.3121 70.3623L26.4784 39.1897L26.3644 38.7359H25.8965H20H19.214L19.4212 39.4941L30.5906 80.3683L30.7113 80.8101H31.1694H36.8958H37.3523L37.474 80.3702L46.132 49.0879L54.63 80.3674L54.7502 80.8101H55.209H60.822H61.2788L61.4004 80.3698L72.6831 39.4956ZM99.6051 77.7557L100.053 77.4446L99.7861 76.9691L97.4615 72.8306L97.1465 72.2698L96.6089 72.623C95.3274 73.465 93.9844 74.1224 92.5792 74.5969C91.2023 75.0617 89.5226 75.3023 87.5266 75.3023C85.1649 75.3023 83.3025 74.5829 81.8816 73.1794C80.5437 71.858 79.8028 69.9155 79.7398 67.2617H100H100.6V66.6617V62.5232C100.6 57.9959 99.3983 54.407 96.9157 51.8447C94.4391 49.2885 91.1162 48.0339 87.0163 48.0339C85.0251 48.0339 83.1769 48.3464 81.4776 48.9787C79.774 49.6125 78.292 50.5563 77.0386 51.8095C75.7798 53.0682 74.8102 54.6278 74.1224 56.4747C73.4309 58.3317 73.0925 60.465 73.0925 62.8634V66.3782C73.0925 68.9265 73.4494 71.1574 74.1815 73.0568C74.9083 74.9421 75.9187 76.5055 77.2224 77.7288C78.5159 78.9426 80.0282 79.8369 81.7522 80.4115C83.4641 80.9821 85.3148 81.2643 87.2998 81.2643C90.1764 81.2643 92.6111 80.9294 94.5852 80.2386C96.5159 79.5629 98.1918 78.7371 99.6051 77.7557ZM84.0981 54.4894C84.9833 54.1249 85.9538 53.9393 87.0163 53.9393C89.2715 53.9393 90.9724 54.6057 92.1966 55.8808C93.4281 57.1635 94.0705 58.9017 94.0705 61.1627V61.5831H79.7354V61.3894C79.7354 60.2868 79.9219 59.276 80.2886 58.3507C80.658 57.4185 81.1629 56.6391 81.7992 56.0029C82.4395 55.3627 83.2034 54.8577 84.0981 54.4894Z" fill="white" stroke="white" stroke-width="1.2"/>
</svg>
