<svg width="40" height="40" viewBox="0 0 40 40" fill="none" xmlns="http://www.w3.org/2000/svg">
<path d="M39.9982 19.9873C39.9982 8.94842 31.0441 0 20 0C8.9559 0 0 8.94842 0 19.9873C0 26.0326 2.68586 31.4516 6.93109 35.1167C8.00869 31.8172 10.6185 29.1005 14.0324 27.6163C11.5349 25.781 9.91397 22.8271 9.91397 19.4914C9.91397 13.924 14.4291 9.41176 20 9.41176C25.5709 9.41176 30.086 13.924 30.086 19.4914C30.086 22.8253 28.4651 25.781 25.9676 27.6163C29.3815 29.1005 31.9913 31.819 33.0689 35.1167C37.3141 31.4516 40 26.0326 40 19.9873H39.9982Z" fill="#D0D5DD"/>
<path fill-rule="evenodd" clip-rule="evenodd" d="M30.0861 19.4898C30.0861 22.8255 28.4652 25.7794 25.9676 27.6147C29.3816 29.0988 31.9914 31.8156 33.069 35.1151C29.5645 38.1414 24.9951 39.9731 20.0001 39.9731C15.005 39.9731 10.4356 38.1414 6.93115 35.1151C8.00876 31.8174 10.6186 29.0988 14.0325 27.6147C11.535 25.7794 9.91404 22.8237 9.91404 19.4898C9.91404 13.9224 14.4291 9.41016 20.0001 9.41016C25.571 9.41016 30.0861 13.9224 30.0861 19.4898ZM22.5374 16.6952C22.2368 16.6952 21.9941 16.9378 21.9941 17.2382V18.7061C21.9941 19.0065 22.2368 19.2491 22.5374 19.2491C22.8381 19.2491 23.0807 19.0065 23.0807 18.7061V17.2382C23.0807 16.9378 22.8381 16.6952 22.5374 16.6952ZM17.3631 16.6952C17.0625 16.6952 16.8198 16.9378 16.8198 17.2382V18.7061C16.8198 19.0065 17.0625 19.2491 17.3631 19.2491C17.6637 19.2491 17.9064 19.0065 17.9064 18.7061V17.2382C17.9064 16.9378 17.6637 16.6952 17.3631 16.6952Z" fill="white"/>
<path d="M17.3632 19.2489C17.6638 19.2489 17.9065 19.0064 17.9065 18.7059V17.2381C17.9065 16.9376 17.6638 16.6951 17.3632 16.6951C17.0625 16.6951 16.8198 16.9376 16.8198 17.2381V18.7059C16.8198 19.0064 17.0625 19.2489 17.3632 19.2489Z" fill="#D0D5DD"/>
<path d="M22.5375 19.2489C22.8381 19.2489 23.0808 19.0064 23.0808 18.7059V17.2381C23.0808 16.9376 22.8381 16.6951 22.5375 16.6951C22.2368 16.6951 21.9941 16.9376 21.9941 17.2381V18.7059C21.9941 19.0064 22.2368 19.2489 22.5375 19.2489Z" fill="#D0D5DD"/>
<path d="M22.9447 21.0232C22.7582 20.9526 22.5499 21.0486 22.4793 21.235C22.4539 21.3038 21.8164 22.6805 20.0415 22.6805C18.2667 22.6805 17.5658 21.2983 17.535 21.2259C17.4589 21.0413 17.2488 20.9526 17.0641 21.0268C16.8794 21.1011 16.7888 21.3128 16.8649 21.4974C16.9011 21.5861 17.7632 23.4026 20.0415 23.4026C22.3199 23.4026 23.124 21.5753 23.1566 21.4866C23.2255 21.3001 23.1313 21.092 22.9447 21.0214V21.0232Z" fill="#D0D5DD"/>
<circle cx="20" cy="20" r="19.75" stroke="#E4E7EC" stroke-width="0.5"/>
</svg>
