<svg width="20" height="21" viewBox="0 0 20 21" fill="none" xmlns="http://www.w3.org/2000/svg">
<path d="M9 13.4275L2 18.5L7.07252 11.5" fill="#F8CE00"/>
<path d="M1.55616 19.5C1.41327 19.5 1.27038 19.4464 1.16322 19.3348C0.971209 19.1428 0.944417 18.8347 1.10517 18.6114L6.8163 10.7302C6.99937 10.4801 7.34767 10.4266 7.59772 10.6052C7.84778 10.7882 7.90136 11.1365 7.72275 11.3866L4.06567 16.4324L9.11146 12.7753C9.36152 12.5922 9.70981 12.6503 9.89289 12.9003C10.076 13.1504 10.0179 13.4987 9.76786 13.6817L1.88213 19.3928C1.78389 19.4643 1.6678 19.5 1.55616 19.5Z" fill="#282828"/>
<path d="M12.7462 9.97295L15.8837 6.35751L17.1096 7.58343L17.5418 7.15124C18.1527 6.54036 18.1527 5.54715 17.5418 4.93211L15.5679 2.95816C14.957 2.34728 13.9638 2.34728 13.3488 2.95816L12.9124 3.39035L14.1383 4.61628L10.5229 7.75797C8.72764 6.87697 6.5002 7.17202 5 8.65144L11.8486 15.5C13.328 13.9956 13.623 11.7724 12.742 9.9771L12.7462 9.97295Z" fill="#EE5750"/>
<path d="M11.873 16.5C11.7265 16.5 11.5844 16.4423 11.4822 16.3357L4.1643 9.01776C4.05773 8.91119 4 8.76909 4 8.62256C4 8.47602 4.06217 8.33392 4.1643 8.22735C5.80284 6.61545 8.24956 6.1492 10.3588 7.0151L13.5071 4.28419L12.619 3.39609C12.5169 3.29396 12.4547 3.15186 12.4547 3.00533C12.4547 2.85879 12.5124 2.7167 12.619 2.61456L13.0853 2.15275C13.5071 1.73091 14.0666 1.5 14.6616 1.5C15.2567 1.5 15.8162 1.73091 16.238 2.15275L18.3472 4.26199C19.2176 5.13233 19.2176 6.54884 18.3472 7.41918L17.8854 7.88099C17.6678 8.09858 17.317 8.09858 17.0995 7.88099L16.2114 6.99289L13.4805 10.1412C14.3464 12.2504 13.8801 14.6972 12.2682 16.3357C12.1661 16.4423 12.024 16.5 11.873 16.5ZM5.36767 8.65364L11.8464 15.1323C12.9032 13.7558 13.1075 11.873 12.3304 10.2877C12.2327 10.0879 12.2638 9.84813 12.4103 9.6794L15.7629 5.81616C15.865 5.70071 16.0071 5.62966 16.1625 5.62522C16.3224 5.6119 16.4645 5.67851 16.5755 5.78952L17.4947 6.7087L17.5657 6.63765C18.0009 6.20249 18.0009 5.48757 17.5657 5.0524L15.4565 2.94316C15.0346 2.51687 14.2931 2.51687 13.8712 2.94316L13.8002 3.01421L14.7194 3.93339C14.8304 4.0444 14.8881 4.19094 14.8837 4.34636C14.8792 4.50178 14.8082 4.64387 14.6927 4.746L10.8295 8.10302C10.6607 8.24956 10.421 8.28064 10.2211 8.18295C8.63144 7.40586 6.75311 7.61012 5.37655 8.66696L5.36767 8.65364Z" fill="#282828"/>
</svg>
