<svg width="20" height="21" viewBox="0 0 20 21" fill="none" xmlns="http://www.w3.org/2000/svg">
<g clip-path="url(#clip0_269_13199)">
<path d="M18.791 8.53067H19.3063C19.3226 8.53067 19.3382 8.52421 19.3497 8.5127C19.3612 8.50119 19.3677 8.48558 19.3677 8.4693V7.49773C19.3677 7.48972 19.3661 7.4818 19.363 7.47441C19.3599 7.46703 19.3553 7.46034 19.3496 7.45473C19.3439 7.44913 19.3371 7.44472 19.3297 7.44176C19.3223 7.4388 19.3143 7.43736 19.3063 7.43751H18.5825C17.7453 7.43751 17.3018 7.70501 17.0482 8.27359L15.4744 12.1286C15.4428 12.2348 15.3753 12.3268 15.2834 12.3889C15.1916 12.451 15.0811 12.4793 14.9707 12.4691V7.49773C14.9707 7.48972 14.9691 7.4818 14.966 7.47441C14.9629 7.46703 14.9584 7.46034 14.9527 7.45473C14.9469 7.44913 14.9402 7.44472 14.9327 7.44176C14.9253 7.4388 14.9173 7.43736 14.9093 7.43751H13.7513C13.7433 7.43736 13.7354 7.4388 13.7279 7.44176C13.7205 7.44472 13.7137 7.44913 13.708 7.45473C13.7023 7.46034 13.6977 7.46703 13.6946 7.47441C13.6915 7.4818 13.6899 7.48972 13.6899 7.49773V13.4557C13.6902 13.4841 13.7017 13.5111 13.7219 13.5311C13.7421 13.551 13.7693 13.5622 13.7976 13.5622H15.0958C15.9319 13.5622 16.3152 13.2947 16.5676 12.7261L18.1216 8.91861C18.2467 8.64879 18.4262 8.53067 18.791 8.53067Z" fill="#D71920"/>
<path d="M4.65406 10.5004C5.11726 10.3071 5.50172 9.87279 5.50172 9.15483C5.50172 8.08598 4.58458 7.4375 3.47868 7.4375H0.0602282C0.0442578 7.4375 0.0289411 7.44385 0.0176483 7.45514C0.00635549 7.46643 1.11371e-05 7.48174 1.11371e-05 7.49772V8.46929C-0.000142827 8.47729 0.00130093 8.48525 0.00425808 8.49269C0.00721524 8.50013 0.0116269 8.5069 0.0172339 8.51262C0.022841 8.51833 0.0295314 8.52287 0.0369137 8.52597C0.044296 8.52907 0.052222 8.53066 0.0602282 8.53066H3.24244C3.75544 8.53066 4.10284 8.84448 4.10284 9.22547C4.10284 9.60645 3.75544 9.92606 3.24244 9.92606H1.35141V9.20694C1.35157 9.19884 1.35009 9.19079 1.34706 9.18327C1.34403 9.17575 1.33952 9.16892 1.33378 9.16319C1.32805 9.15746 1.32122 9.15294 1.31371 9.14992C1.30619 9.14689 1.29814 9.14541 1.29003 9.14557H0.0602282C0.052222 9.14556 0.044296 9.14716 0.0369137 9.15026C0.0295314 9.15336 0.022841 9.15789 0.0172339 9.16361C0.0116269 9.16932 0.00721524 9.1761 0.00425808 9.18354C0.00130093 9.19098 -0.000142827 9.19894 1.11371e-05 9.20694V13.4997C1.11371e-05 13.5157 0.00635549 13.531 0.0176483 13.5423C0.0289411 13.5536 0.0442578 13.5599 0.0602282 13.5599H3.43004C4.68995 13.5599 5.59204 12.9728 5.59204 11.7743C5.59462 11.489 5.50458 11.2106 5.33544 10.9809C5.1663 10.7513 4.9272 10.5826 4.65406 10.5004ZM3.30845 12.4957H1.35141V11.0598H3.30845C3.83418 11.0598 4.19085 11.3817 4.19085 11.7777C4.19085 12.1738 3.83418 12.4957 3.30845 12.4957Z" fill="#D71920"/>
<path d="M19.9885 13.49L18.0048 10.954C18.004 10.9526 18.0028 10.9513 18.0014 10.9505C18 10.9497 17.9984 10.9492 17.9967 10.9492C17.995 10.9492 17.9934 10.9497 17.992 10.9505C17.9906 10.9513 17.9894 10.9526 17.9886 10.954L17.4547 12.2602C17.4527 12.264 17.4517 12.2681 17.4517 12.2724C17.4517 12.2766 17.4527 12.2808 17.4547 12.2846L18.3221 13.4426C18.3472 13.4805 18.3818 13.5111 18.4224 13.5314C18.4631 13.5518 18.5083 13.561 18.5537 13.5584H19.9503C19.9587 13.5597 19.9673 13.5584 19.975 13.5547C19.9827 13.551 19.9891 13.545 19.9932 13.5375C19.9974 13.5301 19.9992 13.5215 19.9983 13.513C19.9975 13.5046 19.994 13.4965 19.9885 13.49Z" fill="#D71920"/>
<path d="M7.76333 9.14844H6.60532C6.58904 9.14844 6.57343 9.1549 6.56192 9.16641C6.55041 9.17792 6.54395 9.19353 6.54395 9.20981V13.5026C6.54394 13.5106 6.54554 13.5185 6.54864 13.5259C6.55173 13.5333 6.55627 13.5399 6.56199 13.5456C6.5677 13.5512 6.57448 13.5556 6.58192 13.5585C6.58936 13.5615 6.59732 13.5629 6.60532 13.5628H7.76333C7.77941 13.5628 7.79485 13.5565 7.80632 13.5452C7.8178 13.5339 7.8244 13.5186 7.8247 13.5026V9.2075C7.82411 9.19162 7.81737 9.1766 7.80593 9.16559C7.79448 9.15457 7.77921 9.14843 7.76333 9.14844Z" fill="#D71920"/>
<path d="M12.5284 7.43751H11.3704C11.3624 7.43751 11.3546 7.43907 11.3473 7.44209C11.34 7.44512 11.3334 7.44956 11.3278 7.45515C11.3222 7.46074 11.3177 7.46738 11.3147 7.47468C11.3117 7.48199 11.3101 7.48982 11.3101 7.49773V12.4691C11.1998 12.4793 11.0892 12.451 10.9974 12.3889C10.9056 12.3268 10.8381 12.2348 10.8064 12.1286L9.23035 8.27359C8.9779 7.70501 8.53554 7.43751 7.69714 7.43751H6.6063C6.59829 7.43736 6.59034 7.4388 6.5829 7.44176C6.57546 7.44472 6.56868 7.44913 6.56297 7.45473C6.55725 7.46034 6.55271 7.46703 6.54961 7.47441C6.54651 7.4818 6.54492 7.48972 6.54492 7.49773V8.4693C6.54492 8.48558 6.55139 8.50119 6.5629 8.5127C6.57441 8.52421 6.59002 8.53067 6.6063 8.53067H7.48754C7.85347 8.53067 8.03181 8.64648 8.15687 8.91861L9.71092 12.7261C9.96453 13.2947 10.3467 13.5622 11.1839 13.5622H12.4809C12.5092 13.5622 12.5365 13.551 12.5566 13.5311C12.5768 13.5111 12.5883 13.4841 12.5886 13.4557V7.49773C12.5886 7.48176 12.5822 7.46644 12.5709 7.45515C12.5596 7.44386 12.5443 7.43751 12.5284 7.43751Z" fill="#D71920"/>
</g>
<defs>
<clipPath id="clip0_269_13199">
<rect width="20" height="6.12472" fill="white" transform="translate(0 7.4375)"/>
</clipPath>
</defs>
</svg>
