<svg width="20" height="21" viewBox="0 0 20 21" fill="none" xmlns="http://www.w3.org/2000/svg">
<path d="M9.96894 15.9224C13.1277 13.214 17.5645 10.5828 20 9.63486C19.6239 9.39411 19.0371 9.04804 18.376 8.67188C15.2323 9.71009 11.5619 12.0112 8.28271 14.6133C8.83944 15.0346 9.42626 15.471 9.96693 15.9173L9.96894 15.9224Z" fill="#E31837"/>
<path d="M8.52566 8.56613C8.05921 8.34043 7.54763 8.12978 7.15641 7.94922C5.96773 8.53604 4.41893 9.42279 2.46387 10.8221C2.88517 11.0478 3.33657 11.3187 3.81807 11.5895C5.32173 10.4771 6.84043 9.42379 8.52566 8.56613Z" fill="#0658A6"/>
<path d="M11.3384 7.27549C10.7666 6.95951 8.78146 6.22223 7.41221 5.90625C7.01097 6.05672 6.43418 6.28242 6.04297 6.44793C6.53951 6.58335 8.38924 7.07989 9.96914 7.87736C10.3754 7.68075 10.9472 7.44101 11.3384 7.27549Z" fill="#E31837"/>
<path d="M4.6143 7.07812C2.85485 7.89064 1.00311 9.00309 0 9.6501C0.361119 9.81561 0.722238 9.95103 1.21878 10.1918C3.44468 8.68711 5.19009 7.77027 5.88123 7.46934C5.38469 7.28878 4.91825 7.1684 4.61731 7.07812H4.6143Z" fill="#0658A6"/>
<path d="M12.6611 6.80849C13.0623 6.67307 13.5338 6.5527 13.94 6.43232C12.6512 5.8844 11.3238 5.43179 9.96874 5.07812C9.75808 5.13831 9.12612 5.30383 8.68977 5.43925C10.047 5.79226 11.3747 6.25005 12.6611 6.80849ZM5.24609 12.464C5.72759 12.7499 6.23917 13.1411 6.73471 13.4671C10.0289 10.9102 13.278 8.9401 16.843 7.82664C16.3465 7.57085 15.9102 7.34515 15.3544 7.07431C13.2178 7.62 9.56247 9.07953 5.24609 12.464Z" fill="#E31837"/>
</svg>
