<svg width="20" height="21" viewBox="0 0 20 21" fill="none" xmlns="http://www.w3.org/2000/svg">
<g clip-path="url(#clip0_269_13108)">
<path d="M13.1226 13.7042C13.3632 12.4794 14.0062 11.5996 14.738 11.1006C15.3495 10.6824 15.9392 10.4181 16.7026 10.7673C17.5507 11.1539 17.671 13.1993 17.671 13.1993C17.671 13.1993 18.249 13.0119 18.748 13.5701C19.7303 14.6707 19.0794 18.3671 17.746 19.4737C16.5684 20.45 14.3159 20.2212 13.1798 18.9253C13.5427 18.3868 13.7932 18.0358 13.9727 17.7142C14.7893 16.3039 14.1542 14.651 13.1226 13.7042Z" fill="#FDC110"/>
<path d="M9.78711 4.23304C9.79894 3.50126 9.9311 2.99434 10.4794 2.74581C11.156 2.43811 11.8444 2.48348 12.4184 2.96081C12.8602 3.32769 13.2409 3.51112 13.876 3.4697C14.9411 3.39869 16.3179 4.99046 16.5743 6.35935C16.7814 7.46589 16.2134 8.39886 15.0358 9.01821C14.5289 9.2845 13.9983 9.3989 13.4519 9.49752C12.9963 9.58036 12.6334 9.46991 12.3513 9.06358C11.4558 7.7736 10.6155 6.45205 9.98633 5.00822C9.85812 4.71629 9.82459 4.38295 9.78908 4.23699L9.78711 4.23304Z" fill="#F58121"/>
<path d="M7.45567 3.04449C7.43791 3.86305 6.38462 5.34042 5.64298 5.5357C5.43785 5.58895 5.1617 5.58106 4.98024 5.48244C3.62911 4.75855 2.2405 4.082 1.17537 2.93403C0.488961 2.1983 0.72171 0.959603 1.65665 0.961575C2.94072 0.96552 4.1163 0.221905 5.42798 0.614424C6.57595 0.955658 7.47934 1.95372 7.45369 3.04646L7.45567 3.04449Z" fill="#F39AC0"/>
<path d="M13.3689 14.8264C12.9704 14.2031 12.3767 13.6824 11.6489 13.3471C10.8757 12.992 10.0985 12.9881 9.26813 12.9881C8.66851 12.9881 8.46534 12.6725 8.47915 12.0926C8.50874 10.848 8.21287 9.64675 7.28976 8.76703C6.4278 7.94452 5.22658 7.5165 4.04113 7.73741C2.32904 8.05498 0.999609 9.56391 0.979884 11.3431C0.962132 12.8855 0.964104 14.4299 0.970022 15.9724C0.970022 17.2939 0.979884 18.6155 0.979884 19.937C0.979884 20.5564 1.6229 20.4854 2.05882 20.4874L4.23049 20.4913C5.94455 20.4933 7.65861 20.513 9.3707 20.4775C10.7948 20.4479 12.211 20.1974 13.1243 18.9784C14.0178 17.7851 14.1855 16.1046 13.3689 14.8304V14.8264ZM2.31524 19.9587C2.32312 19.943 2.32904 19.9252 2.33496 19.9075C2.34877 19.9094 2.3606 19.9134 2.37638 19.9153C2.35666 19.9331 2.33693 19.9469 2.31524 19.9587ZM5.02736 19.9075C5.04117 19.9075 5.05497 19.9055 5.06878 19.9035V19.9075C5.05497 19.9075 5.04117 19.9075 5.02539 19.9075H5.02736Z" fill="#E80453"/>
<path d="M2.68491 13.1859L2.04748 14.5361C2.07743 14.5361 2.4924 14.5361 2.52662 14.5361H7.41209C7.41209 14.5361 8.29763 14.5019 8.29763 15.3377C8.29763 16.015 7.28803 16.5337 7.28803 16.5337C7.65166 16.6708 7.73294 17.1595 7.61315 17.511C7.38214 18.2054 7.01851 18.5483 6.51799 18.6898C5.92335 18.8569 5.2517 18.8527 4.63567 18.8012C5.05064 17.691 5.46988 16.5808 5.88484 15.4706C5.12336 15.4706 4.36188 15.4706 3.6004 15.4706C3.27099 16.3665 2.55229 18.154 2.55229 18.154C2.55229 18.154 1.87209 19.7743 1.76514 20.0443C3.61323 20.0657 5.08486 20.0743 6.87734 20.0743C7.38214 20.0743 7.89978 19.92 8.30619 19.6242C9.20029 18.9727 9.51258 17.7467 9.15323 16.778C9.12756 16.6708 9.75643 16.2979 9.83771 16.2122C10.15 15.8864 10.3639 15.5006 10.381 15.042C10.3981 14.5833 10.1971 14.1375 9.87193 13.816C9.55964 13.5117 9.1404 13.3445 8.7126 13.2673C8.2848 13.1902 7.93828 13.1773 7.5062 13.1859" fill="white"/>
</g>
<defs>
<clipPath id="clip0_269_13108">
<rect width="20" height="20" fill="white" transform="translate(0 0.5)"/>
</clipPath>
</defs>
</svg>
