<svg width="20" height="21" viewBox="0 0 20 21" fill="none" xmlns="http://www.w3.org/2000/svg">
<path d="M7.72809 10.2422V11.002H5.8717V12.1424H7.54601V12.9022H5.8717V14.211H7.79654V14.9708H5.5979C5.34737 14.9708 5.13243 14.8927 4.95446 14.738C4.77649 14.5833 4.6875 14.3794 4.6875 14.1261V10.2422H7.72809Z" fill="#333132"/>
<path d="M9.82415 10.2422V13.3677C9.82415 13.6798 9.88301 13.9098 10.0008 14.0563C10.1185 14.2014 10.2732 14.2753 10.4621 14.2753C10.6675 14.2753 10.8249 14.2028 10.9344 14.0563C11.0439 13.9098 11.0987 13.6812 11.0987 13.3677V10.2422H12.2829V13.4621C12.2829 13.892 12.1255 14.2603 11.8106 14.571C11.4957 14.8804 11.0453 15.0351 10.4607 15.0351C9.87617 15.0351 9.45451 14.8914 9.12732 14.608C8.80012 14.3232 8.63721 13.9454 8.63721 13.4731V10.2436H9.82141L9.82415 10.2422Z" fill="#333132"/>
<path d="M14.2473 10.2422L15.6136 12.9967V10.2422H16.7978V14.9708H15.5328L14.1665 12.3738V14.9708H12.981V10.2422H14.2459H14.2473Z" fill="#333132"/>
<path d="M7.51882 4.80456C7.8378 5.03456 8.0103 5.35901 8.03905 5.7793H6.94931C6.92193 5.61091 6.848 5.47538 6.72753 5.3727C6.60705 5.27003 6.43866 5.21937 6.21825 5.21937C5.95129 5.21937 5.72267 5.35628 5.53511 5.63145C5.34619 5.90662 5.25173 6.29269 5.25173 6.79101C5.25173 7.32493 5.34482 7.74932 5.52964 8.0642C5.71445 8.3777 5.95403 8.53514 6.24837 8.53514C6.4811 8.53514 6.6714 8.46532 6.81925 8.32431C6.96574 8.1833 7.05062 7.97247 7.07115 7.69045H8.16089C8.13351 8.14086 7.95691 8.52145 7.63108 8.83085C7.30525 9.14024 6.85211 9.29494 6.26891 9.29494C5.64463 9.29494 5.14083 9.0759 4.75751 8.64055C4.37281 8.20384 4.18115 7.59599 4.18115 6.81428C4.18115 6.03257 4.38514 5.46306 4.7931 5.06194C5.20107 4.66081 5.70624 4.46094 6.30998 4.46094C6.79598 4.46094 7.19984 4.57593 7.51745 4.80593L7.51882 4.80456Z" fill="#333132"/>
<path d="M9.82434 4.5V6.41115H11.1578V4.5H12.342V9.22996H11.1578V7.17096H9.82434V9.22996H8.64014V4.5H9.82434Z" fill="#333132"/>
<path d="M16.7584 5.15487C17.0966 5.63402 17.2663 6.19943 17.2663 6.85519C17.2663 7.51095 17.0802 8.10647 16.7078 8.58152C16.3368 9.05657 15.8001 9.29478 15.1019 9.29478C14.3051 9.29478 13.7452 9.04836 13.4221 8.55551C13.0977 8.06266 12.9375 7.49589 12.9375 6.85519C12.9375 6.27883 13.0936 5.73122 13.4057 5.21373C13.7178 4.69624 14.2832 4.4375 15.1019 4.4375C15.8686 4.4375 16.4203 4.67708 16.7598 5.15487H16.7584ZM14.3777 5.64087C14.2066 5.93658 14.1217 6.34181 14.1217 6.85382C14.1217 7.4028 14.2134 7.82035 14.3955 8.1051C14.5776 8.38986 14.8131 8.53224 15.1006 8.53224C15.388 8.53224 15.6331 8.39123 15.8124 8.10921C15.9904 7.82719 16.0808 7.40827 16.0808 6.85245C16.0808 6.29663 15.9918 5.88182 15.8124 5.60801C15.6331 5.33421 15.3963 5.19594 15.1006 5.19594C14.7898 5.19594 14.5488 5.34379 14.3777 5.6395V5.64087Z" fill="#333132"/>
<path d="M2.56417 17.375L0 19.8543H2.56417H17.533L20 17.375H2.56417Z" fill="#ED1C24"/>
<path d="M0 3.69638V17.3743V19.8535L2.56417 17.3743V1.14453L0 3.69638Z" fill="#ED1C24"/>
</svg>
