<svg width="20" height="21" viewBox="0 0 20 21" fill="none" xmlns="http://www.w3.org/2000/svg">
<path d="M6.09811 14.6475L6.06134 14.6849C5.48393 15.3026 4.81575 15.6289 4.12746 15.6289C2.68997 15.6289 1.64719 14.4967 1.64719 12.9351C1.64719 11.3759 2.68997 10.242 4.12746 10.242C4.81575 10.242 5.48393 10.5701 6.06134 11.1901L6.09811 11.2269L7.02254 10.0532L6.99783 10.0218C6.2291 9.06817 5.3064 8.60433 4.17227 8.60433C3.03527 8.60433 1.99421 9.00665 1.24502 9.73106C0.429178 10.5164 0 11.6238 0 12.9351C0 14.2464 0.429178 15.3563 1.24502 16.1416C1.99421 16.8702 3.03527 17.2695 4.17227 17.2695C5.3064 17.2695 6.2291 16.8051 6.99783 15.8509L7.02254 15.8219L6.09811 14.6475Z" fill="#004685"/>
<path d="M7.95508 17.1094H9.58789V8.73973H7.95508V17.1094Z" fill="#004685"/>
<path d="M15.9839 15.2899C15.5478 15.5686 15.1428 15.7091 14.7785 15.7091C14.2505 15.7091 14.0115 15.416 14.0115 14.7646V10.3234H15.676V8.7479H14.0115V6.1434L12.4115 7.04333V8.7479H11.0303V10.3234H12.4115V15.0475C12.4115 16.334 13.1377 17.2147 14.2224 17.2376C14.9584 17.2527 15.4019 17.0222 15.6708 16.8534L15.688 16.8419L16.0804 15.2278L15.9839 15.2899Z" fill="#004685"/>
<path d="M17.3369 17.1094H18.972V8.73973H17.3369V17.1094Z" fill="#004685"/>
<path d="M19.9251 7.27272C18.433 5.05424 15.9556 3.73088 13.4352 3.73088C10.9152 3.73088 8.43728 5.05424 6.94808 7.27272L6.87109 7.38672H8.74982L8.7705 7.36319C10.0488 5.9771 11.7184 5.24485 13.4352 5.24485C15.1519 5.24485 16.8203 5.9771 18.1015 7.36319L18.1222 7.38672H19.9998L19.9251 7.27272Z" fill="#EE1C25"/>
</svg>
