<svg width="20" height="21" viewBox="0 0 20 21" fill="none" xmlns="http://www.w3.org/2000/svg">
<g clip-path="url(#clip0_269_12935)">
<path d="M18.089 12.0584C17.2077 14.2533 15.7246 14.8762 15.7246 14.8762C20.0848 10.4609 17.4195 5.36771 17.4195 5.36771C16.7755 4.22788 17.5933 3.73212 17.5933 3.73212C15.7204 4.19822 16.3221 5.74907 16.3221 5.74907C17.0579 7.37712 17.2076 9.20962 16.7458 10.9355L16.1314 10.5923C16.1314 10.5923 17.5933 4.83381 11.6314 2.81262V1.72788H10.3602V8.86771L16.2119 12.2025C16.1017 12.4186 15.9916 12.6262 15.8729 12.8126L9.9958 9.42279L4.09749 12.8126C3.97431 12.6151 3.86117 12.4114 3.75851 12.2025L9.6102 8.86771V1.71094H8.33902V2.79568C2.37715 4.81687 3.83901 10.5753 3.83901 10.5753L3.22037 10.9186C2.76105 9.19245 2.9107 7.36078 3.6441 5.73212C3.6441 5.73212 4.22885 4.18127 2.37292 3.71517C2.37292 3.71517 3.19071 4.21094 2.54665 5.35077C2.54665 5.35077 -0.11437 10.4355 4.24156 14.8592C4.24156 14.8592 2.76275 14.2364 1.87715 12.0414C1.69957 11.7086 1.41602 11.4445 1.07141 11.291C0.726793 11.1375 0.340818 11.1034 -0.0253906 11.194C0.188824 11.3301 0.373992 11.5072 0.519439 11.7152C0.664885 11.9232 0.767734 12.1579 0.822067 12.4058C0.822067 12.4058 2.09326 16.4313 6.97038 17.0457V19.266H9.37292V15.9906C7.65472 15.8783 6.04665 15.1054 4.88562 13.8338L5.48733 13.4821C6.72487 14.5941 8.30493 15.2503 9.96614 15.3423H10.0127C11.6734 15.248 13.2527 14.5921 14.4916 13.4821L15.0933 13.8338C13.9322 15.1054 12.3242 15.8783 10.606 15.9906V19.266H13.0043V17.0457C17.8899 16.4313 19.1568 12.4058 19.1568 12.4058C19.2111 12.1579 19.314 11.9232 19.4594 11.7152C19.6049 11.5072 19.7901 11.3301 20.0043 11.194C19.6344 11.1069 19.2461 11.1445 18.8998 11.3008C18.5535 11.4571 18.2684 11.7234 18.089 12.0584ZM14.9661 9.93974L11.6611 8.10076V4.15161C11.6611 4.15161 15.6399 5.22365 14.9661 9.93127V9.93974ZM8.31783 4.1389V8.08805L5.01699 9.93974C4.35597 5.22364 8.31783 4.1389 8.31783 4.1389ZM10.0127 10.8847L13.3009 12.8126H13.2712C12.3678 13.6095 11.2047 14.0492 10 14.0492C8.79541 14.0492 7.63222 13.6095 6.72885 12.8126H6.69918L10.0127 10.8847Z" fill="#0056A7"/>
</g>
<defs>
<clipPath id="clip0_269_12935">
<rect width="20" height="17.5805" fill="white" transform="translate(0 1.71094)"/>
</clipPath>
</defs>
</svg>
