<svg width="20" height="21" viewBox="0 0 20 21" fill="none" xmlns="http://www.w3.org/2000/svg">
<g clip-path="url(#clip0_269_12890)">
<path fill-rule="evenodd" clip-rule="evenodd" d="M2.1672 17.6412C2.21976 18.3372 2.5126 18.7432 3.32724 18.7271C9.00684 18.6351 10.4978 11.7491 6.98862 8.50952C6.42553 7.9919 5.74246 7.56491 4.91815 7.27627C4.50373 7.12953 3.82099 6.91797 3.23887 6.91797C2.73867 6.91797 2.31297 7.07632 2.20235 7.57491C1.99691 8.52694 2.0927 16.6969 2.1672 17.6412Z" fill="url(#paint0_linear_269_12890)"/>
<path fill-rule="evenodd" clip-rule="evenodd" d="M10.0912 0.5C9.63423 0.5 9.24981 0.647061 9.14757 1.09921C8.9602 1.96029 9.0505 9.37948 9.115 10.2396C9.16434 10.8678 9.42815 11.2358 10.1676 11.2255C15.3258 11.1387 16.6829 4.88701 13.4962 1.94643C12.9857 1.47622 12.3594 1.08889 11.6176 0.827663C11.239 0.692534 10.6208 0.5 10.0912 0.5Z" fill="url(#paint1_linear_269_12890)"/>
<path fill-rule="evenodd" clip-rule="evenodd" d="M10.3103 7.77845C10.0703 8.86303 10.1861 18.1818 10.2687 19.2631C10.3322 20.0581 10.6605 20.5151 11.5883 20.5015C18.0732 20.3977 19.7777 12.5399 15.7738 8.84336C15.1339 8.2535 14.3448 7.76588 13.4124 7.43789C12.9371 7.26858 12.1572 7.02734 11.4961 7.02734C10.9227 7.02734 10.4344 7.20891 10.3103 7.77845Z" fill="url(#paint2_linear_269_12890)"/>
</g>
<defs>
<linearGradient id="paint0_linear_269_12890" x1="2.07861" y1="18.7275" x2="8.87236" y2="18.7275" gradientUnits="userSpaceOnUse">
<stop stop-color="#CB292B"/>
<stop offset="1" stop-color="#F47920"/>
</linearGradient>
<linearGradient id="paint1_linear_269_12890" x1="9.03408" y1="11.3203" x2="15.3248" y2="11.3401" gradientUnits="userSpaceOnUse">
<stop stop-color="#1CB0E6"/>
<stop offset="1" stop-color="#0462B0"/>
</linearGradient>
<linearGradient id="paint2_linear_269_12890" x1="9.4832" y1="21.8162" x2="18.7733" y2="21.8455" gradientUnits="userSpaceOnUse">
<stop stop-color="#8BC53F"/>
<stop offset="1" stop-color="#009B56"/>
</linearGradient>
<clipPath id="clip0_269_12890">
<rect width="20" height="20" fill="white" transform="translate(0 0.5)"/>
</clipPath>
</defs>
</svg>
