<svg width="20" height="21" viewBox="0 0 20 21" fill="none" xmlns="http://www.w3.org/2000/svg">
<g clip-path="url(#clip0_269_12865)">
<path fill-rule="evenodd" clip-rule="evenodd" d="M14.7315 10.4999C14.7315 11.4929 13.9683 12.2979 12.9753 12.2979C11.9823 12.2979 11.2191 11.4929 11.2191 10.4999C11.2191 9.50687 11.9823 8.70187 12.9753 8.70187C13.9683 8.70187 14.7315 9.50687 14.7315 10.4999ZM15.5259 10.4999C15.5259 11.9086 14.384 13.0505 12.9753 13.0505C11.5666 13.0505 10.4246 11.9086 10.4246 10.4999C10.4246 9.09119 11.5666 7.94922 12.9753 7.94922C14.384 7.94922 15.5259 9.09119 15.5259 10.4999ZM16.0617 8.27458C16.0351 8.24747 16.0542 8.20014 16.0922 8.20014H17.2821C17.3283 8.20014 17.3658 8.23758 17.3658 8.28377V12.3815H20V12.9251H16.5294C16.4832 12.9251 16.4458 12.8877 16.4458 12.8415V12.3815H16.4459V8.93189C16.4459 8.79236 16.3913 8.70867 16.3216 8.60177L16.3214 8.60147L16.3212 8.60118L16.321 8.60088C16.3074 8.57991 16.2931 8.55803 16.2786 8.53465C16.2234 8.44583 16.1284 8.3426 16.0617 8.27458ZM0.0432702 8.20014C0.00433833 8.20014 -0.0147303 8.24989 0.0134382 8.27677C0.114527 8.37321 0.279046 8.54525 0.347436 8.70191C0.449538 8.9358 0.431064 9.35003 0.431064 9.35003V12.9251H2.6263C3.93107 12.9251 4.9888 11.8674 4.9888 10.5626C4.9888 9.14096 3.80563 8.20014 2.50086 8.20014H0.0432702ZM1.30916 8.78554V12.3397H2.50086C3.29533 12.3397 4.06889 11.6498 4.06889 10.5626C4.06889 9.67355 3.38995 8.78554 2.50086 8.78554H1.30916ZM9.21201 12.946L8.74252 11.9425H6.35142L5.8878 12.946H5.15605L6.81516 9.41273C6.81516 9.41273 7.12131 8.97368 7.12131 8.66008C7.12131 8.4714 6.9851 8.32057 6.87657 8.23033C6.84339 8.20275 6.8632 8.1374 6.90635 8.1374H7.93103C7.94724 8.1374 7.96199 8.14677 7.96888 8.16144L10.2156 12.946H9.21201ZM7.53945 9.37092L8.46865 11.3571H6.62186L7.53945 9.37092Z" fill="#010101"/>
</g>
<defs>
<clipPath id="clip0_269_12865">
<rect width="20" height="20" fill="white" transform="translate(0 0.5)"/>
</clipPath>
</defs>
</svg>
