<svg width="20" height="21" viewBox="0 0 20 21" fill="none" xmlns="http://www.w3.org/2000/svg">
<g clip-path="url(#clip0_269_13146)">
<circle cx="10" cy="10.5" r="10" fill="#005AAB"/>
<circle cx="10" cy="10.5" r="7" fill="url(#paint0_radial_269_13146)"/>
<path d="M10.9303 11.135L11.0383 10.967C11.0383 10.967 11.1223 10.859 11.1823 10.787L11.2423 10.715C11.4103 10.523 11.6263 10.259 11.8063 9.93503C12.0343 9.53903 12.1423 9.17903 12.1423 8.81903C12.1423 7.65503 11.1943 6.70703 10.0303 6.70703C8.86626 6.70703 7.91826 7.65503 7.91826 8.81903C7.91826 9.07103 7.94226 9.37103 8.08626 9.70703C8.21826 10.007 8.45826 10.319 8.81826 10.679C8.99826 10.859 9.28626 10.859 9.46626 10.679C9.64626 10.499 9.64626 10.211 9.46626 10.031C9.16626 9.73103 8.99826 9.50303 8.90226 9.29903C8.83026 9.11903 8.83026 8.98703 8.83026 8.81903C8.83026 8.15903 9.37026 7.61903 10.0303 7.61903C10.6903 7.61903 11.2303 8.15903 11.2303 8.81903C11.2303 9.03503 11.1583 9.26303 10.9903 9.52703C10.8463 9.75503 10.6783 9.95903 10.5223 10.139L10.3903 10.295C10.3903 10.295 10.3183 10.379 10.3063 10.403L7.97826 13.103L5.45826 9.85103C5.38626 9.75503 5.27826 9.69503 5.15826 9.68303C5.03826 9.67103 4.91826 9.70703 4.82226 9.77903C4.72626 9.85103 4.66626 9.95903 4.65426 10.079C4.64226 10.199 4.66626 10.319 4.75026 10.415L7.60626 14.099C7.69026 14.231 7.82226 14.291 7.96626 14.291C8.09826 14.291 8.23026 14.231 8.31426 14.135L10.9423 11.099V11.135H10.9303Z" fill="url(#paint1_linear_269_13146)"/>
<path d="M15.1665 9.78033C14.9625 9.62433 14.6865 9.66033 14.5305 9.86433L12.0345 13.0803L11.1585 12.0843C10.9905 11.8923 10.7025 11.8803 10.5105 12.0483C10.4145 12.1323 10.3665 12.2403 10.3545 12.3603C10.3545 12.4803 10.3905 12.6003 10.4745 12.6963L11.7105 14.0883H11.7225C11.8065 14.2083 11.9385 14.2563 12.0585 14.2563H12.1785V14.2323C12.2745 14.2083 12.3585 14.1483 12.4185 14.0763L15.2505 10.4163C15.3225 10.3203 15.3585 10.2003 15.3465 10.0803C15.3345 9.96033 15.2745 9.85233 15.1665 9.76833V9.78033Z" fill="url(#paint2_linear_269_13146)"/>
<circle cx="13.251" cy="8.68359" r="4.44141" fill="url(#paint3_radial_269_13146)" fill-opacity="0.7"/>
</g>
<defs>
<radialGradient id="paint0_radial_269_13146" cx="0" cy="0" r="1" gradientUnits="userSpaceOnUse" gradientTransform="translate(13.8741 7.80604) rotate(140.974) scale(11.4408)">
<stop stop-color="#0975E7"/>
<stop offset="1" stop-color="#0A2D95"/>
</radialGradient>
<linearGradient id="paint1_linear_269_13146" x1="12.6578" y1="7.05661" x2="7.79284" y2="14.291" gradientUnits="userSpaceOnUse">
<stop stop-color="#F4E0CE"/>
<stop offset="1" stop-color="#C38C4A"/>
</linearGradient>
<linearGradient id="paint2_linear_269_13146" x1="15.3488" y1="8.64806" x2="11.3014" y2="14.2563" gradientUnits="userSpaceOnUse">
<stop stop-color="#F4E0CE"/>
<stop offset="1" stop-color="#C38C4A"/>
</linearGradient>
<radialGradient id="paint3_radial_269_13146" cx="0" cy="0" r="1" gradientUnits="userSpaceOnUse" gradientTransform="translate(13.251 8.68359) rotate(90) scale(4.44141)">
<stop stop-color="white"/>
<stop offset="0.345" stop-color="white" stop-opacity="0.52"/>
<stop offset="1" stop-color="white" stop-opacity="0"/>
</radialGradient>
<clipPath id="clip0_269_13146">
<rect width="20" height="20" fill="white" transform="translate(0 0.5)"/>
</clipPath>
</defs>
</svg>
