<svg width="20" height="21" viewBox="0 0 20 21" fill="none" xmlns="http://www.w3.org/2000/svg">
<g clip-path="url(#clip0_269_12967)">
<path d="M4.8793 13.5363C4.15483 13.5363 3.60785 13.6051 3.23837 13.7428C2.8689 13.8732 2.68416 14.0217 2.68416 14.1883C2.68416 14.3549 2.8689 14.5035 3.23837 14.6339C3.60785 14.7643 4.15483 14.8295 4.8793 14.8295C5.60376 14.8295 6.15074 14.7643 6.52022 14.6339C6.8897 14.5035 7.07443 14.3549 7.07443 14.1883C7.07443 14.0217 6.8897 13.8732 6.52022 13.7428C6.15074 13.6051 5.60376 13.5363 4.8793 13.5363ZM8.33501 14.1774C8.33501 14.6339 8.0416 15.0033 7.45478 15.2859C6.86796 15.5757 6.00947 15.7206 4.8793 15.7206C3.74912 15.7206 2.89063 15.5757 2.30381 15.2859C1.71699 15.0033 1.42358 14.6339 1.42358 14.1774C1.42358 13.721 1.71699 13.3515 2.30381 13.069C2.89063 12.7865 3.74912 12.6452 4.8793 12.6452C6.00947 12.6452 6.86796 12.7865 7.45478 13.069C8.0416 13.3515 8.33501 13.721 8.33501 14.1774ZM9.76946 12.0366C9.76946 12.0729 9.75135 12.1091 9.71512 12.1453C9.6789 12.1815 9.64268 12.1996 9.60645 12.1996H0.152138C0.10867 12.1996 0.0724468 12.1815 0.0434681 12.1453C0.0144894 12.1091 0 12.0729 0 12.0366V11.3955C0 11.2796 0.0507128 11.2216 0.152138 11.2216H9.56298C9.59921 11.2216 9.64268 11.2397 9.69339 11.2759C9.7441 11.3122 9.76946 11.352 9.76946 11.3955V12.0366ZM4.8793 10.7326C4.38666 10.7326 3.95922 10.6927 3.59699 10.6131C3.23475 10.5334 2.9341 10.4283 2.69502 10.2979C2.45595 10.1675 2.27483 10.019 2.15167 9.85236C2.03576 9.67849 1.9778 9.49737 1.9778 9.30901C1.9778 9.1134 2.03576 8.92867 2.15167 8.75479C2.27483 8.58092 2.45595 8.42878 2.69502 8.29838C2.9341 8.16797 3.23475 8.06293 3.59699 7.98323C3.95922 7.90354 4.38666 7.8637 4.8793 7.8637C5.37193 7.8637 5.79937 7.90354 6.1616 7.98323C6.53108 8.06293 6.83536 8.16797 7.07443 8.29838C7.31351 8.42878 7.491 8.58092 7.60692 8.75479C7.73008 8.92867 7.79166 9.1134 7.79166 9.30901C7.79166 9.49737 7.73008 9.67849 7.60692 9.85236C7.491 10.019 7.31351 10.1675 7.07443 10.2979C6.83536 10.4283 6.53108 10.5334 6.1616 10.6131C5.79937 10.6927 5.37193 10.7326 4.8793 10.7326ZM4.8793 8.70046C4.3287 8.70046 3.90489 8.75842 3.60785 8.87433C3.31807 8.99025 3.17317 9.13514 3.17317 9.30901C3.17317 9.47564 3.31807 9.61691 3.60785 9.73283C3.90489 9.84874 4.3287 9.9067 4.8793 9.9067C5.43714 9.9067 5.86095 9.84874 6.15074 9.73283C6.44777 9.61691 6.59629 9.47564 6.59629 9.30901C6.59629 9.13514 6.44777 8.99025 6.15074 8.87433C5.86095 8.75842 5.43714 8.70046 4.8793 8.70046ZM8.80229 7.36381C8.80229 7.41453 8.78418 7.45799 8.74796 7.49422C8.71898 7.5232 8.68275 7.53769 8.63929 7.53769H1.13017C1.09395 7.53769 1.05772 7.51957 1.0215 7.48335C0.985277 7.43988 0.967165 7.39641 0.967165 7.35295V6.77699C0.967165 6.74077 0.985277 6.70455 1.0215 6.66832C1.06497 6.6321 1.10481 6.61399 1.14104 6.61399H8.63929C8.68275 6.61399 8.71898 6.6321 8.74796 6.66832C8.78418 6.6973 8.80229 6.73353 8.80229 6.77699V7.36381ZM6.63975 6.0489C6.63975 6.09237 6.62164 6.13222 6.58542 6.16844C6.55644 6.20466 6.51659 6.22278 6.46588 6.22278H3.30358C3.2746 6.22278 3.23837 6.20829 3.19491 6.17931C3.15868 6.15033 3.14057 6.11048 3.14057 6.05977V5.44035C3.14057 5.38964 3.15868 5.34979 3.19491 5.32081C3.23837 5.29183 3.2746 5.27734 3.30358 5.27734H6.46588C6.50935 5.27734 6.54919 5.29546 6.58542 5.33168C6.62164 5.3679 6.63975 5.40775 6.63975 5.45122V6.0489Z" fill="#0B1934"/>
<path d="M18.5329 6.30971C18.5329 6.47634 18.5257 6.67195 18.5112 6.89653C18.504 7.11387 18.4859 7.34932 18.4569 7.60289C18.4351 7.84921 18.4062 8.10277 18.3699 8.36358C18.3337 8.62439 18.2903 8.87795 18.2395 9.12427H19.837C19.8732 9.12427 19.9094 9.14601 19.9457 9.18947C19.9819 9.2257 20 9.26192 20 9.29814V10.0045C20 10.0407 19.9819 10.0769 19.9457 10.1132C19.9094 10.1494 19.8732 10.1675 19.837 10.1675H15.6423V11.7867H17.7614C18.0584 11.7867 18.2504 11.8374 18.3373 11.9388C18.4315 12.0403 18.4786 12.2504 18.4786 12.5691V15.4923C18.4786 15.5286 18.4605 15.5612 18.4243 15.5902C18.3953 15.6264 18.3627 15.6445 18.3265 15.6445H17.381C17.3376 15.6445 17.2977 15.6264 17.2615 15.5902C17.2325 15.5612 17.218 15.5286 17.218 15.4923V12.9929C17.218 12.9205 17.2036 12.8734 17.1746 12.8517C17.1456 12.8299 17.0913 12.8191 17.0116 12.8191H11.665C11.6288 12.8191 11.5925 12.8082 11.5563 12.7865C11.5201 12.7575 11.502 12.7249 11.502 12.6887V11.9171C11.502 11.8736 11.5201 11.841 11.5563 11.8193C11.5925 11.7976 11.6288 11.7867 11.665 11.7867H14.3926V10.1675H10.3718C10.3283 10.1675 10.2921 10.1494 10.2631 10.1132C10.2342 10.0769 10.2197 10.0407 10.2197 10.0045V9.29814C10.2197 9.18223 10.2704 9.12427 10.3718 9.12427H17.0876C17.1528 8.76928 17.2072 8.40343 17.2506 8.0267C17.2941 7.64273 17.3158 7.23341 17.3158 6.79873C17.3158 6.6973 17.2905 6.63572 17.2398 6.61399C17.1891 6.58501 17.113 6.57052 17.0116 6.57052H11.9475C11.9113 6.57052 11.8751 6.55603 11.8389 6.52705C11.8026 6.49807 11.7845 6.46547 11.7845 6.42925V5.67942C11.7845 5.63596 11.8026 5.60335 11.8389 5.58162C11.8751 5.55989 11.9113 5.54902 11.9475 5.54902H17.8157C18.0476 5.54902 18.2251 5.6106 18.3482 5.73376C18.4714 5.84967 18.5329 6.04166 18.5329 6.30971Z" fill="#0B1934"/>
</g>
<defs>
<clipPath id="clip0_269_12967">
<rect width="20" height="20" fill="white" transform="translate(0 0.5)"/>
</clipPath>
</defs>
</svg>
