<svg width="20" height="21" viewBox="0 0 20 21" fill="none" xmlns="http://www.w3.org/2000/svg">
<g clip-path="url(#clip0_269_13129)">
<path d="M0.0284826 10.4707C0.0205097 10.4732 0.0135407 10.4781 0.00859237 10.4849C0.00364407 10.4916 0.000976562 10.4997 0.000976562 10.5081C0.000976562 10.5164 0.00364407 10.5246 0.00859237 10.5313C0.0135407 10.538 0.0205097 10.543 0.0284826 10.5455L3.11363 12.5832L3.99714 8.42578L0.0284826 10.4707Z" fill="#E72511"/>
<path d="M18.3114 8.42188H17.5277C17.4795 8.42485 17.4324 8.43694 17.3887 8.4575L13.47 10.4739C13.4343 10.4739 13.4308 10.5238 13.47 10.5487L16.5017 12.5437C16.5432 12.567 16.5895 12.5804 16.637 12.5829H17.4172C17.46 12.5829 17.4636 12.5829 17.4172 12.5437L14.3178 10.506L18.3114 8.4575C18.3435 8.43969 18.3399 8.42188 18.3114 8.42188Z" fill="#F08300"/>
<path d="M16.6262 8.42188H11.1862L10.3027 12.5829H15.7356C15.7783 12.5829 15.7819 12.5829 15.7356 12.5437L12.6433 10.506L16.6155 8.4575C16.6725 8.43969 16.669 8.42188 16.6262 8.42188Z" fill="#E72511"/>
<path d="M19.9681 8.42188H19.1879C19.1397 8.42421 19.0924 8.43633 19.049 8.4575L15.1302 10.4739C15.0946 10.4739 15.0946 10.5238 15.1302 10.5487L18.1655 12.5437C18.2056 12.5673 18.2508 12.5808 18.2973 12.5829H19.0811C19.1203 12.5829 19.1274 12.5829 19.0811 12.5437L15.9852 10.506L19.961 8.4575C20.0109 8.43969 20.0073 8.42188 19.9681 8.42188Z" fill="#FABE00"/>
<path d="M16.3877 5.70074H3.59113C3.28663 5.68602 2.9866 5.77847 2.74318 5.962C2.49977 6.14554 2.32836 6.40856 2.25875 6.70536C2.22714 6.84639 2.23725 6.99357 2.28786 7.12895C2.33847 7.26432 2.42738 7.38204 2.54376 7.46775L7.14297 10.503L16.4055 5.73636C16.4305 5.71498 16.4269 5.70074 16.3877 5.70074Z" fill="#E72511"/>
<path d="M14.3567 15.2631L7.1462 10.5L1.25735 13.5388C1.10862 13.6169 0.977689 13.7249 0.872834 13.8562C0.767979 13.9874 0.691474 14.1389 0.648155 14.3012C0.527029 14.8534 0.836971 15.3023 1.55304 15.3023H14.3496C14.3924 15.3023 14.3924 15.2845 14.3567 15.2631Z" fill="#E72511"/>
</g>
<defs>
<clipPath id="clip0_269_13129">
<rect width="20" height="9.60456" fill="white" transform="translate(0 5.69922)"/>
</clipPath>
</defs>
</svg>
