<svg width="20" height="21" viewBox="0 0 20 21" fill="none" xmlns="http://www.w3.org/2000/svg">
<g clip-path="url(#clip0_269_13164)">
<path d="M13.0935 12.1779C13.0469 11.9054 12.9676 11.6395 12.8573 11.3858C12.5368 10.6326 11.9874 9.99816 11.286 9.57168C10.7321 9.24682 10.1 9.07762 9.45705 9.08212C8.81412 9.08662 8.18446 9.26465 7.63518 9.59723C7.12347 9.90247 6.70876 10.3453 6.43878 10.8748C6.34687 11.0557 6.26961 11.2437 6.20771 11.4369C6.04058 11.9386 5.97673 12.4687 6.01996 12.9954C6.06318 13.5222 6.21261 14.035 6.45931 14.503C6.6281 14.7895 6.88578 15.0136 7.19359 15.1418C7.34722 15.2055 7.51377 15.2322 7.67973 15.2198C7.84568 15.2073 8.00634 15.1561 8.14866 15.0703C8.30525 14.9466 8.42218 14.7802 8.48511 14.5914C8.54805 14.4026 8.55425 14.1996 8.50296 14.0073C8.3837 13.5188 8.3961 13.0076 8.53891 12.5254C8.59559 12.3677 8.6868 12.2246 8.80591 12.1063C8.8799 12.0354 8.96485 11.9767 9.05752 11.9326C9.25099 11.8358 9.46956 11.8001 9.68396 11.8304C9.86999 11.8704 10.0438 11.9538 10.1911 12.0737C10.3384 12.1937 10.455 12.3467 10.5312 12.5203C10.6738 12.8604 10.7488 13.2249 10.752 13.5934C10.7546 15.2577 10.5071 16.9129 10.0177 18.5043C9.97151 18.6678 9.9253 18.8263 9.88422 18.9898C9.84314 19.1533 9.78152 19.2709 9.88422 19.3935C9.92006 19.4442 9.97005 19.4832 10.028 19.5059C10.2745 19.603 10.4696 19.4548 10.6339 19.2913C11.5666 18.297 12.254 17.1003 12.6416 15.7959C12.8029 15.3179 12.9316 14.8297 13.0267 14.3344C13.1734 13.6197 13.1994 12.8857 13.1037 12.1626" fill="#009476"/>
<path d="M19.995 4.6072C19.9931 4.55099 19.9797 4.49576 19.9557 4.44487C19.9317 4.39397 19.8975 4.3485 19.8552 4.3112C19.8129 4.2739 19.7634 4.24556 19.7098 4.22792C19.6561 4.21028 19.5994 4.20371 19.5431 4.2086C19.3065 4.24117 19.0773 4.31375 18.8653 4.42322C14.5396 5.96394 9.89452 6.3997 5.3557 5.69056C4.59062 5.57813 3.81526 5.42994 3.04505 5.30729C2.56238 5.23064 2.08484 5.12333 1.60217 5.08756C1.16575 5.00422 0.713825 5.09015 0.339014 5.32774C0.146475 5.53846 0.0270716 5.80517 -0.00158815 6.08856C-0.0302479 6.37194 0.033354 6.65699 0.179837 6.90167C0.506886 7.45912 0.981013 7.91683 1.55082 8.22521C2.07967 8.59819 2.70554 8.81115 3.35313 8.83844C5.06473 8.72602 6.77632 8.55568 8.48792 8.32742C11.3891 7.95438 14.4237 7.60177 17.1503 6.48263C18.0524 6.12561 18.9021 5.64951 19.6766 5.06711C19.8153 4.96491 20.0155 4.79116 20.0155 4.59187" fill="#009476"/>
<path d="M7.8252 3.16092C7.8252 3.60139 8.00101 4.02383 8.31397 4.33529C8.62694 4.64676 9.05141 4.82174 9.494 4.82174C9.9366 4.82174 10.3611 4.64676 10.674 4.33529C10.987 4.02383 11.1628 3.60139 11.1628 3.16092C11.1626 3.02338 11.1328 2.88749 11.0755 2.76232C10.9317 2.46082 10.7674 2.31263 10.788 1.9498C10.788 1.46433 10.1769 1.43878 9.83803 1.43878C9.46127 1.42657 9.08681 1.50181 8.74432 1.65853C8.47833 1.79326 8.25323 1.99611 8.0922 2.2462C7.92337 2.50147 7.83078 2.79916 7.8252 3.10471V3.14559" fill="#DA2128"/>
</g>
<defs>
<clipPath id="clip0_269_13164">
<rect width="20" height="18.0952" fill="white" transform="translate(0 1.45312)"/>
</clipPath>
</defs>
</svg>
