<svg width="20" height="21" viewBox="0 0 20 21" fill="none" xmlns="http://www.w3.org/2000/svg">
<g clip-path="url(#clip0_269_12878)">
<g clip-path="url(#clip1_269_12878)">
<path d="M19.8837 7.76662C20.0724 7.19699 20.0271 6.57577 19.758 6.03946C19.4889 5.50315 19.0178 5.09563 18.4484 4.90646L6.5961 0.927566C6.314 0.831824 6.01564 0.793249 5.71846 0.814088C5.42128 0.834927 5.13122 0.914768 4.86523 1.04894" fill="white"/>
<path d="M4.8652 1.05078C4.32849 1.31938 3.92039 1.7901 3.73063 2.35949L0.115858 13.2249C-0.0713422 13.7946 -0.0254525 14.4152 0.243501 14.9511C0.512454 15.487 0.982604 15.8947 1.55122 16.0851L13.4087 20.064C13.6911 20.1586 13.9893 20.1965 14.2863 20.1757C14.5833 20.1549 14.8733 20.0757 15.1396 19.9426C15.4054 19.8105 15.6422 19.6267 15.8361 19.402C16.03 19.1773 16.1771 18.9161 16.2689 18.6339L19.8889 7.76846" fill="white"/>
<path d="M10.6651 11.4875C10.0125 12.2187 9.19731 12.7863 8.28511 13.1445L7.75741 13.3503V8.31596L8.28511 8.52177C9.19849 8.87808 10.0155 9.44383 10.6703 10.1735C11.0848 9.49544 11.3461 8.73505 11.4361 7.94549C11.526 7.15593 11.4424 6.35625 11.1911 5.60235C10.9398 4.84846 10.5269 4.15856 9.98118 3.58088C9.43548 3.0032 8.77019 2.55169 8.03181 2.25792L6.30094 1.66689C6.11765 1.60674 5.9243 1.58333 5.73196 1.598C5.53961 1.61267 5.35205 1.66513 5.18 1.75238C5.00795 1.83963 4.8548 1.95995 4.72932 2.10647C4.60383 2.25298 4.50847 2.42279 4.4487 2.6062L0.82337 13.4822C0.705004 13.8566 0.738866 14.2626 0.917633 14.6122C1.0964 14.9618 1.40568 15.227 1.77851 15.3503L10.0054 18.0943C10.8259 17.2182 11.3343 16.0957 11.4517 14.9011C11.5691 13.7065 11.2888 12.5065 10.6545 11.4875H10.6651ZM5.90516 8.01517V13.6616H5.08722V8.03101L5.90516 8.01517Z" fill="#2293C8"/>
<path d="M10.1902 10.8271C9.72683 10.2859 9.16444 9.83814 8.5332 9.50781V12.1463C9.16712 11.8133 9.72997 11.3598 10.1902 10.8112" fill="#E43D30"/>
<path d="M18.1901 5.6318L10.6387 3.10938C11.5872 4.14665 12.1559 5.47499 12.2517 6.87731C12.3476 8.27963 11.965 9.673 11.1664 10.8297C11.9424 11.9518 12.3276 13.2981 12.2628 14.6609C12.1979 16.0236 11.6866 17.3272 10.8075 18.3706L13.6466 19.3152C13.8298 19.3761 14.0233 19.4 14.2159 19.3857C14.4085 19.3713 14.5963 19.319 14.7685 19.2317C14.9407 19.1443 15.094 19.0237 15.2193 18.8768C15.3447 18.73 15.4397 18.5597 15.4988 18.3759L19.14 7.50515C19.26 7.13144 19.2276 6.72545 19.0497 6.37556C18.8717 6.02568 18.5628 5.76025 18.1901 5.63708V5.6318ZM16.1901 13.6529H15.1664L13.0556 10.8297L15.1664 8.01175H16.2218L14.111 10.8403L16.1901 13.6529Z" fill="#215C9C"/>
</g>
</g>
<defs>
<clipPath id="clip0_269_12878">
<rect width="20" height="20" fill="white" transform="translate(0 0.5)"/>
</clipPath>
<clipPath id="clip1_269_12878">
<rect width="20" height="19.372" fill="white" transform="translate(0 0.8125)"/>
</clipPath>
</defs>
</svg>
