<svg width="20" height="21" viewBox="0 0 20 21" fill="none" xmlns="http://www.w3.org/2000/svg">
<g clip-path="url(#clip0_269_12885)">
<path d="M10 0.5C4.47789 0.5 0 4.97789 0 10.5C0 16.0221 4.47789 20.5 10 20.5C15.5221 20.5 20 16.0221 20 10.5C20 4.97789 15.5221 0.5 10 0.5ZM10.2093 18.6679C9.01223 18.8373 7.06491 18.5315 5.74553 17.699C4.59078 16.9675 3.90169 16.055 3.45485 15.1284C2.99859 14.1806 2.78222 13.0329 3.26905 13.0894C3.49718 13.1152 3.69238 13.548 4.13217 14.1101C4.43321 14.4934 4.70837 14.818 4.91769 14.8603C5.01176 14.8791 5.08702 14.8368 5.15522 14.7121C5.27987 14.4746 5.44685 14.023 5.74788 13.6562C5.99012 13.3763 6.28175 13.2446 6.45343 13.929C6.53575 14.27 6.6016 14.6204 6.63923 14.9262C6.69332 15.3589 6.72154 15.6176 6.86971 15.6905C7.01317 15.7611 7.25776 15.6693 7.65052 15.5235C7.93274 15.4177 8.29492 15.2836 8.75588 15.1519C9.17921 15.0296 9.44732 15.0955 9.17451 15.7516C9.04516 16.0621 8.9158 16.3231 8.45955 16.9817C8.37959 17.0969 8.3937 17.2121 8.49483 17.3109C8.6477 17.4614 8.99577 17.6472 9.37676 17.8142C9.6825 17.9459 10.047 18.0611 10.2869 18.1294C10.6632 18.2375 10.5903 18.6162 10.2117 18.6703L10.2093 18.6679ZM15.341 16.5183C14.9694 17.1251 14.1886 17.7789 13.2408 18.214C13.0974 18.2775 12.9445 18.2587 12.9045 18.1411C12.8716 18.04 12.9516 17.9224 13.0456 17.8119C14.278 16.2126 13.3631 14.7451 11.3711 13.6068C9.90122 12.7648 8.96519 12.2827 7.881 11.643C4.70132 9.77093 4.08749 8.14111 3.96284 7.17451C3.65005 4.73801 5.66557 2.91063 7.73754 2.47084C7.80104 2.45908 7.96566 2.43086 8.01976 2.56961C8.07385 2.70837 7.95155 2.80715 7.87865 2.85183C6.95202 3.36218 6.04186 4.44638 6.14064 5.64817C6.19708 6.32079 6.48401 7.28739 8.30198 8.58326C9.40028 9.36642 10.7455 10.0085 13.4572 11.6336C16.3217 13.3504 15.9948 15.4459 15.341 16.5136V16.5183ZM15.7879 7.37206C15.1341 8.17404 14.4802 7.87535 13.977 6.74647C13.6642 6.04327 13.2502 5.87394 12.9586 6.05738C12.6411 6.25729 12.7658 6.73942 13.1232 7.29445C13.3561 7.65663 13.2526 8.08467 13.0104 8.33631C12.7564 8.60207 12.3401 8.7079 11.8862 8.60677C11.0795 8.42803 10.2869 7.34854 10.8655 4.992C11.0983 4.03951 10.6421 3.63264 10.3528 3.26811C10.207 3.08467 10.1905 2.97413 10.2422 2.90122C10.2987 2.82126 10.4327 2.81421 10.6703 2.86595C10.9807 2.9318 11.4417 3.08937 11.8156 3.14817C12.0649 3.1858 12.3448 3.19755 12.6435 3.1858C13.4478 3.15522 14.0405 3.27987 14.6472 3.5809C15.6773 4.09125 15.7808 4.96613 15.2093 4.89793C15.0118 4.87441 14.7554 4.7239 14.5461 4.62041C14.405 4.55221 14.2827 4.53104 14.1933 4.59454C14.1087 4.65569 14.0734 4.78269 14.1322 4.90969C14.2592 5.1778 14.6919 5.31656 15.2775 5.47883C16.3029 5.76105 16.3241 6.71355 15.7879 7.36971V7.37206Z" fill="#0046FF"/>
<path d="M10.2093 18.6686C9.01217 18.8379 7.06485 18.5322 5.74547 17.6996C4.59072 16.9682 3.90164 16.0557 3.45479 15.1291C2.99853 14.1813 2.78216 13.0336 3.26899 13.09C3.49712 13.1159 3.69232 13.5486 4.13211 14.1107C4.43315 14.4941 4.70831 14.8186 4.91763 14.8609C5.0117 14.8798 5.08696 14.8374 5.15516 14.7128C5.27981 14.4752 5.44679 14.0237 5.74783 13.6568C5.99006 13.3769 6.28169 13.2452 6.45338 13.9296C6.53569 14.2706 6.60154 14.6211 6.63917 14.9268C6.69326 15.3595 6.72148 15.6182 6.86965 15.6911C7.01311 15.7617 7.2577 15.67 7.65046 15.5242C7.93268 15.4183 8.29486 15.2843 8.75582 15.1526C9.17915 15.0303 9.44726 15.0961 9.17445 15.7523C9.0451 16.0627 8.91575 16.3238 8.45949 16.9823C8.37953 17.0975 8.39364 17.2128 8.49477 17.3116C8.64764 17.4621 8.99571 17.6479 9.37671 17.8148C9.68244 17.9466 10.047 18.0618 10.2869 18.13C10.6632 18.2382 10.5903 18.6168 10.2116 18.6709L10.2093 18.6686ZM15.341 16.519C14.9694 17.1258 14.1886 17.7796 13.2408 18.2147C13.0973 18.2782 12.9444 18.2593 12.9045 18.1418C12.8715 18.0406 12.9515 17.923 13.0456 17.8125C14.2779 16.2132 13.3631 14.7457 11.3711 13.6074C9.90117 12.7655 8.96514 12.2833 7.88094 11.6436C4.70126 9.77157 4.08743 8.14175 3.96278 7.17515C3.64999 4.73865 5.66551 2.91127 7.73748 2.47148C7.80098 2.45972 7.96561 2.4315 8.0197 2.57026C8.07379 2.70902 7.95149 2.80779 7.87859 2.85248C6.95196 3.36283 6.0418 4.44702 6.14058 5.64881C6.19703 6.32143 6.48395 7.28804 8.30192 8.5839C9.40022 9.36706 10.7455 10.0091 13.4571 11.6342C16.3217 13.3511 15.9948 15.4466 15.341 16.5143V16.519ZM15.7878 7.3727C15.134 8.17468 14.4802 7.876 13.9769 6.74712C13.6641 6.04392 13.2502 5.87458 12.9586 6.05803C12.6411 6.25793 12.7657 6.74006 13.1232 7.29509C13.356 7.65727 13.2525 8.08531 13.0103 8.33696C12.7563 8.60271 12.34 8.70855 11.8861 8.60742C11.0794 8.42868 10.2869 7.34918 10.8654 4.99265C11.0982 4.04015 10.642 3.63329 10.3527 3.26875C10.2069 3.08531 10.1904 2.97477 10.2422 2.90187C10.2986 2.8219 10.4327 2.81485 10.6702 2.86659C10.9807 2.93244 11.4416 3.09001 11.8156 3.14881C12.0649 3.18644 12.3447 3.1982 12.6434 3.18644C13.4477 3.15586 14.0404 3.28051 14.6472 3.58155C15.6773 4.09189 15.7808 4.96678 15.2093 4.89857C15.0117 4.87505 14.7554 4.72454 14.546 4.62106C14.4049 4.55285 14.2826 4.53169 14.1933 4.59519C14.1086 4.65633 14.0733 4.78333 14.1321 4.91033C14.2591 5.17844 14.6919 5.3172 15.2775 5.47948C16.3029 5.7617 16.324 6.71419 15.7878 7.37035V7.3727Z" fill="white"/>
</g>
<defs>
<clipPath id="clip0_269_12885">
<rect width="20" height="20" fill="white" transform="translate(0 0.5)"/>
</clipPath>
</defs>
</svg>
