<svg width="20" height="21" viewBox="0 0 20 21" fill="none" xmlns="http://www.w3.org/2000/svg">
<path d="M19.9999 8.66502C19.9999 4.74241 16.781 1.55859 12.8144 1.55859C10.0879 1.55859 7.72202 3.05376 6.5083 5.26132C6.71938 5.24373 6.93926 5.23494 7.15914 5.23494C11.1257 5.23494 14.3447 8.41875 14.3447 12.3414C14.3447 13.5815 14.0281 14.7424 13.4652 15.7626C17.124 15.4372 19.9999 12.3941 19.9999 8.67381" fill="#00ACED"/>
<path d="M12.3483 16.7559C12.2691 16.8087 12.1812 16.8526 12.0932 16.9054C11.8909 17.011 11.6799 17.1077 11.46 17.1781C11.161 17.2836 10.8531 17.354 10.5453 17.3979C9.20845 17.5651 7.88039 17.1165 6.95691 16.2282C6.54354 15.8324 6.20932 15.3399 5.98945 14.777C5.34741 13.0796 5.97186 11.2326 7.40546 10.1772C5.22428 10.9775 4.08092 13.3346 4.80211 15.4982C4.74934 15.4191 4.69657 15.3311 4.6438 15.2431C3.29815 12.9125 4.08092 9.93972 6.38523 8.60287C8.59279 7.32758 11.4072 8.0136 12.8232 10.1156C12.8144 10.1068 12.8056 10.0892 12.7968 10.0716C11.1522 7.21324 7.511 6.2194 4.68778 7.85528C3.0343 8.80515 2.02287 10.441 1.7942 12.2088C1.66227 11.7427 1.58311 11.2414 1.58311 10.7313C1.58311 7.93444 3.72032 5.63013 6.49077 5.26953C2.84961 5.59495 0 8.62925 0 12.332C0 16.2546 3.219 19.4384 7.17678 19.4384C9.90326 19.4384 12.2691 17.9344 13.4829 15.7269C13.175 16.1315 12.7968 16.4833 12.3483 16.7647" fill="#00ACED"/>
</svg>
