<svg width="20" height="21" viewBox="0 0 20 21" fill="none" xmlns="http://www.w3.org/2000/svg">
<g clip-path="url(#clip0_269_12874)">
<path d="M15.4685 2.73632C15.4685 2.73632 15.9661 3.71741 11.1215 4.40024C11.6495 2.90513 11.9986 1.91896 11.9986 1.91896C12.1056 1.67297 12.111 1.3946 12.0135 1.14466C11.916 0.89472 11.7236 0.693526 11.4782 0.585036C11.3613 0.533162 11.2354 0.504291 11.1076 0.5C10.8626 0.520606 10.6294 0.614232 10.4383 0.768771C10.2471 0.923309 10.1066 1.13165 10.0351 1.36686L8.59584 4.66677C7.2909 4.76657 5.98024 4.76657 4.67529 4.66677C3.79701 4.5792 3.57236 5.06403 3.57236 5.56156C3.57236 6.42715 5.0954 7.30543 6.07141 7.21151C6.68824 7.1544 7.04488 7.12647 7.54368 7.07444L2.18894 19.3095C1.98586 19.7664 1.8196 20.5 2.73596 20.5C3.65232 20.5 5.72492 19.6649 6.06506 18.6876C6.21102 18.2776 7.27715 15.2608 8.46638 11.886C9.57599 11.6778 10.6957 11.5274 11.8209 11.4354C12.3907 11.4354 12.6852 11.6892 12.6852 11.9964C12.6852 12.7021 10.9946 14.7302 7.71629 17.2166C7.35584 17.4895 7.65536 17.7078 7.84321 17.7078C9.23886 17.0874 10.5451 16.2827 11.7269 15.3153C12.9568 14.3875 15.1017 11.971 15.1017 10.2728C15.1017 9.60268 14.8048 8.99092 13.4619 8.99092C12.1597 8.99092 9.85996 9.28157 9.37132 9.34376C9.68989 8.43882 10.0059 7.55293 10.2966 6.72414C12.835 6.37257 14.344 6.14412 15.2337 5.96262C16.4636 5.70117 17.4434 4.99803 17.4434 4.27205C17.4434 2.7249 15.4635 2.7414 15.4635 2.7414" fill="#602D16"/>
<path d="M8.67103 12.8008C8.87283 12.8008 9.22821 12.9709 9.71431 13.4976C11.9501 15.955 14.5564 18.0478 17.4386 19.7001C17.7813 19.8892 17.9704 20.0276 17.9704 20.2078C17.9704 20.3449 17.9514 20.4807 17.6531 20.4807C16.1817 20.3103 14.7321 19.9871 13.3277 19.5161C12.5319 19.1353 10.8172 17.7506 8.77384 14.2286C8.53465 13.9169 8.37167 13.5535 8.29789 13.1676C8.29653 13.0719 8.33317 12.9795 8.39978 12.9107C8.4664 12.842 8.55755 12.8025 8.65326 12.8008H8.67103Z" fill="#6091C6"/>
</g>
<defs>
<clipPath id="clip0_269_12874">
<rect width="20" height="20" fill="white" transform="translate(0 0.5)"/>
</clipPath>
</defs>
</svg>
