<svg width="20" height="21" viewBox="0 0 20 21" fill="none" xmlns="http://www.w3.org/2000/svg">
<path d="M19.6544 10.6944L19.4829 10.5759C19.1473 10.2459 18.7489 9.9996 18.3158 9.85442C17.8826 9.70923 17.4252 9.66868 16.976 9.73563C16.1939 9.8055 15.4404 10.0854 14.7837 10.5501V10.5089C14.7899 10.1848 14.8121 9.86125 14.8504 9.53974C14.879 9.20467 14.9124 8.86961 14.9124 8.55C14.9225 8.24401 14.8755 7.93894 14.7742 7.65304C14.7621 7.61921 14.7403 7.59047 14.712 7.571C14.6837 7.55152 14.6504 7.54234 14.6169 7.54479C14.2593 7.58116 13.9139 7.70453 13.6065 7.90564L13.5303 8.0809C13.529 8.57147 13.4795 9.0605 13.3825 9.53974C13.372 9.58172 13.3593 9.62302 13.3444 9.66345C13.2254 10.8973 13.2254 12.1412 13.3444 13.375C13.3444 13.4781 13.5493 13.6379 13.6923 13.6998C14.0198 13.7084 14.3451 13.6398 14.6455 13.4987H14.7551C14.777 13.4956 14.798 13.4877 14.8169 13.4755C14.8359 13.4633 14.8523 13.4471 14.8653 13.4278C14.8782 13.4085 14.8874 13.3866 14.8922 13.3633C14.897 13.34 14.8974 13.3159 14.8933 13.2925V12.9884C15.0237 12.4592 15.2832 11.9777 15.6445 11.5941C16.0059 11.2105 16.4558 10.939 16.9474 10.8078C17.1931 10.7503 17.4485 10.7639 17.6878 10.8471C17.9271 10.9304 18.1418 11.0804 18.3104 11.2821C18.4196 11.7946 18.3392 12.3329 18.0864 12.7822C17.7305 13.4126 17.1777 13.8843 16.528 14.1121C15.7646 14.4063 14.9538 14.5291 14.1451 14.473C14.1022 14.4472 13.2634 13.8338 13.2634 13.8338C12.4881 13.1933 11.6469 12.6518 10.7566 12.2203C10.552 12.0968 10.3602 11.9499 10.1847 11.7821L10.1036 11.7048C9.62705 11.2821 8.6977 10.6223 7.95899 10.0913L7.56343 9.79748V9.70986C7.56343 9.68408 8.04001 9.3851 8.04001 9.3851C8.40244 9.19149 8.74172 8.95086 9.05038 8.66856L9.14093 8.61186L10.7518 7.62211C12.2959 6.70453 14.0498 5.66325 14.9696 4.63226L15.0125 4.47246V4.33327C15.0671 4.1436 15.0671 3.94045 15.0125 3.75078C15.0064 3.71766 14.9914 3.68723 14.9694 3.66336C14.9473 3.63949 14.9192 3.62327 14.8886 3.61675C14.1689 3.53942 13.2443 4.00337 12.4008 4.85908C12.2448 5.01443 12.07 5.14621 11.8813 5.25085L11.7526 5.32302C10.7994 5.89522 8.7263 7.30251 7.63015 8.06544C7.73376 6.51894 7.91994 4.9802 8.18775 3.45695L8.15916 3.27652L8.04478 3.0497L7.95899 2.88474C7.79396 2.79769 7.60381 2.78473 7.42998 2.84867L7.21075 2.93629L6.92004 3.0497C6.89233 3.05607 6.86652 3.06976 6.8449 3.08955C6.82327 3.10934 6.80652 3.13461 6.79612 3.16311C6.20244 4.90603 5.84449 6.73252 5.73333 8.58608C4.92983 8.04075 4.09933 7.54342 3.24556 7.09631H3.18836C2.97964 7.04002 2.78246 6.94213 2.60693 6.80764L2.21136 6.52927L1.60133 6.10656L1.43929 6.06533C1.08389 6.18686 0.768044 6.41581 0.529011 6.72516C0.51082 6.75788 0.500956 6.79523 0.500417 6.83341C0.50488 6.8859 0.514464 6.93775 0.529011 6.98806L0.557609 7.12208L0.586203 7.20456C1.12671 7.69486 1.72047 8.11205 2.35434 8.4469L3.18836 8.9263L4.47038 9.67893L4.68961 9.86966L4.83735 9.96244H4.86595C4.5228 10.2047 2.54021 11.643 2.54021 11.643L1.29155 12.5708C1.06271 12.7065 0.827249 12.8287 0.586203 12.9368C0.354391 13.0246 0.158629 13.198 0.0333609 13.4265L0 13.5039L0.0333609 13.5554L0.12868 13.6327L0.25259 13.7204L0.390801 13.8183L0.514714 13.8441C0.911441 13.7859 1.29456 13.6478 1.64422 13.4369C2.1923 13.174 3.67925 12.2048 4.31787 11.7924L4.58953 11.612C4.7188 11.5931 4.83907 11.5299 4.93267 11.4316C5.11247 11.2878 5.30388 11.1619 5.50457 11.0553C5.50457 11.0553 5.60942 10.9934 5.69997 10.9419V11.0244C5.68885 12.6373 5.80685 14.2482 6.05265 15.839V15.8906C6.19988 16.2439 6.31018 16.6139 6.38149 16.9937L6.61978 17.8701L6.69127 17.9526C6.94442 18.1166 7.23502 18.2005 7.53007 18.1948H7.60155L7.64444 18.0866C7.66801 17.9541 7.67919 17.8194 7.67781 17.6845C7.67781 17.5247 7.67781 17.3494 7.67781 17.1329V16.8185C7.58725 15.3493 7.50147 13.21 7.50147 11.8182V11.7048L8.74059 12.5502C10.4563 13.7513 13.0299 15.5761 14.6169 16.0556C14.6563 16.0683 14.6981 16.0697 14.7382 16.0598C14.7783 16.0498 14.8153 16.0288 14.8457 15.9988L15.0887 15.8339H15.1316C15.1852 15.787 15.2278 15.727 15.256 15.659C15.2841 15.5909 15.297 15.5166 15.2937 15.4421C16.6138 15.3751 18.4582 14.8235 19.4447 13.4832C19.7971 12.9975 19.9915 12.3995 19.9976 11.7821C20.0186 11.4058 19.9023 11.0356 19.6735 10.7511" fill="#FCAF17"/>
</svg>
