<svg width="20" height="20" viewBox="0 0 20 20" fill="none" xmlns="http://www.w3.org/2000/svg">
<g clip-path="url(#clip0_347_14944)">
<rect width="20" height="20" rx="4" fill="#120063"/>
<path d="M5.85156 8.51953H5.00764L3.67344 10.0721V8.51953H3V11.9065H3.67344V10.3497L5.05132 11.9065H5.89523L4.39619 10.213L5.85156 8.51953Z" fill="white"/>
<path d="M7.51137 9.48038C7.22819 9.48038 6.98586 9.60155 6.78721 9.77061V8.51953H6.11377V10.7498C6.11377 11.4218 6.55756 11.9839 7.39443 11.9839C8.14536 11.9839 8.6751 11.4655 8.6751 10.7371C8.6751 10.0482 8.22003 9.48038 7.51278 9.48038H7.51137ZM7.39303 11.3739C7.04503 11.3739 6.76185 11.0964 6.75199 10.7512C6.75199 10.7455 6.75199 10.7399 6.75199 10.7329C6.75199 10.6596 6.76467 10.5892 6.78721 10.5244C6.87315 10.2736 7.11266 10.0918 7.39303 10.0918C7.74665 10.0918 8.03406 10.3792 8.03406 10.7329C8.03406 11.0865 7.74665 11.3739 7.39303 11.3739Z" fill="white"/>
<path d="M13.4384 9.48047C13.113 9.48047 12.8594 9.60022 12.6607 9.77774V9.55373H11.9873V11.9065H12.6607V10.5878C12.6607 10.3131 12.8833 10.0905 13.1581 10.0905C13.4328 10.0905 13.6554 10.3131 13.6554 10.5878V11.9065H14.3331V10.3991C14.3331 10.3906 14.3331 10.3807 14.3331 10.3723C14.3331 9.87777 13.9231 9.48047 13.437 9.48047H13.4384Z" fill="white"/>
<path d="M10.2869 9.48438C9.52756 9.48438 8.99219 10.0028 8.99219 10.7312C8.99219 11.4202 9.45148 11.9879 10.1672 11.9879C10.4884 11.9879 10.797 11.8161 10.9717 11.5836V11.909H11.5817V10.7312H11.5761C11.5789 10.7228 11.5817 10.7185 11.5817 10.7185C11.5817 10.0465 11.1323 9.48438 10.2869 9.48438ZM10.301 11.3709C9.9474 11.3709 9.65999 11.0834 9.65999 10.7298C9.65999 10.3762 9.9474 10.0888 10.301 10.0888C10.6547 10.0888 10.9421 10.3762 10.9421 10.7298C10.9421 11.0834 10.6547 11.3709 10.301 11.3709Z" fill="white"/>
<path d="M16.9997 11.8757L15.9896 10.7091L16.9687 9.54116H16.2446L15.3908 10.5513V8.5H14.7188V11.8757H15.3908V10.8627L16.2601 11.8757H16.9997Z" fill="white"/>
</g>
<defs>
<clipPath id="clip0_347_14944">
<rect width="20" height="20" fill="white"/>
</clipPath>
</defs>
</svg>
