<svg width="20" height="21" viewBox="0 0 20 21" fill="none" xmlns="http://www.w3.org/2000/svg">
<path d="M18.9598 3.18359H20.0001L16.5495 7.73304H9.72168L12.1905 4.70008H17.7876L18.9598 3.18359Z" fill="#0B0075"/>
<path d="M18.9598 7.43359H20.0001L16.5495 11.983H9.72168L12.1905 8.95008H17.7876L18.9598 7.43359Z" fill="#0B0075"/>
<path d="M18.9598 11.7539H20.0001L16.5495 16.3034H9.72168L12.1905 13.2704H17.7876L18.9598 11.7539Z" fill="#0B0075"/>
<path d="M1.04029 17.8112H0L3.45787 13.2617H10.2857L7.81684 16.2947H2.21245L1.04029 17.8112Z" fill="#0B0075"/>
<path d="M1.03297 13.4987H0L3.45055 8.94922H10.2784L7.80952 11.9822H2.20513L1.03297 13.4987Z" fill="#0B0075"/>
<path d="M1.03297 9.24867H0L3.45055 4.69922H10.2784L7.80952 7.73218H2.20513L1.03297 9.24867Z" fill="#0B0075"/>
</svg>
