<svg width="20" height="21" viewBox="0 0 20 21" fill="none" xmlns="http://www.w3.org/2000/svg">
<g clip-path="url(#clip0_269_13169)">
<path d="M8.70926 0.59375C7.52539 0.744884 6.40448 1.10383 5.39062 1.63279C6.06443 1.3872 6.76972 1.21718 7.50649 1.14161C7.89062 0.927503 8.29365 0.744884 8.70926 0.59375Z" fill="#FFEA00"/>
<path d="M0.384277 13.207C0.573194 13.8871 0.831381 14.5357 1.15884 15.1529C1.09586 14.8947 1.04549 14.6365 1.0077 14.372C0.774706 14.0005 0.566897 13.6101 0.390575 13.207H0.384277Z" fill="#FFEA00"/>
<path d="M19.9372 11.5312C19.5404 12.6773 18.917 13.7164 18.111 14.5854C17.9158 15.7126 17.5001 16.7705 16.9082 17.7025C18.5707 16.1093 19.6916 13.9494 19.9372 11.5312Z" fill="#D8DE00"/>
<path d="M8.35642 1.09824C12.7078 1.09824 16.3035 4.30982 16.927 8.48489C17.7645 9.8199 18.2557 11.3879 18.2557 13.0819C18.2557 13.5982 18.2053 14.0957 18.1171 14.5869C18.9232 13.7116 19.5466 12.6788 19.9433 11.5327C19.9811 11.1927 20 10.8463 20 10.4937C19.9937 4.97733 15.5164 0.5 9.9937 0.5C9.5529 0.5 9.13098 0.537783 8.70277 0.594458C8.28715 0.751889 7.88413 0.928212 7.5 1.14232C7.77708 1.11713 8.06045 1.09824 8.35013 1.09824H8.35642Z" fill="#FDD000"/>
<path d="M12.5879 17.3512C11.3348 18.0502 9.89271 18.4595 8.35619 18.4595C5.25166 18.4595 2.53755 16.8285 1.00732 14.3789C1.04511 14.6434 1.09549 14.9016 1.15846 15.1598C2.83352 18.3336 6.16475 20.4998 9.99977 20.4998C12.6824 20.4998 15.1131 19.4356 16.9141 17.7164C17.5061 16.7844 17.9217 15.7265 18.1169 14.5993C16.7126 16.1232 14.7731 17.1497 12.5879 17.3575V17.3512Z" fill="#00A040"/>
<path d="M16.9272 8.49219C16.9901 8.9141 17.0342 9.34231 17.0342 9.78312C17.0342 13.0388 15.2395 15.8725 12.5884 17.3587C14.7735 17.1446 16.7068 16.1244 18.1173 14.6005C18.2055 14.1093 18.2559 13.6118 18.2559 13.0955C18.2559 11.4078 17.7647 9.8335 16.9272 8.49848V8.49219Z" fill="#F9AB13"/>
<path d="M0.894206 13.0802C0.894206 10.8132 1.76952 8.75397 3.19899 7.20486C3.65869 4.5978 5.27078 2.38748 7.5063 1.14062C6.76952 1.20989 6.05793 1.38622 5.39043 1.63181C2.19144 3.29428 0 6.63811 0 10.492C0 11.4303 0.138539 12.3434 0.384131 13.2061C0.560453 13.6154 0.768262 13.9996 1.00126 14.3711C0.938287 13.9492 0.894206 13.521 0.894206 13.0802Z" fill="#7FCEF4"/>
<path d="M9.57201 4.4037C12.6765 4.4037 15.3907 6.03468 16.9209 8.48431C16.3038 4.30924 12.708 1.09766 8.35665 1.09766C8.07327 1.09766 7.7899 1.11025 7.50652 1.14174C5.2773 2.39489 3.65892 4.59892 3.19922 7.20597C4.78612 5.48682 7.04683 4.4037 9.57201 4.4037Z" fill="#F8B500"/>
<path d="M3.06029 8.71988C3.06029 8.20351 3.11067 7.70603 3.19883 7.21484C1.77566 8.76396 0.894043 10.8232 0.894043 13.0902C0.894043 13.531 0.938124 13.9592 1.0011 14.3811C2.53762 16.8307 5.25173 18.4617 8.34996 18.4617C9.88649 18.4617 11.3286 18.0587 12.5817 17.3534C12.3046 17.3786 12.0212 17.3975 11.7316 17.3975C6.93938 17.3975 3.05399 13.5121 3.05399 8.71988H3.06029Z" fill="#0080CC"/>
<path d="M17.0341 9.77779C17.0341 9.33698 16.9901 8.90877 16.9271 8.48686C15.3906 6.03723 12.6765 4.40625 9.57823 4.40625C7.05304 4.40625 4.79234 5.48937 3.20543 7.20852C3.11727 7.6997 3.06689 8.19718 3.06689 8.71355C3.06689 13.5057 6.95228 17.3911 11.7445 17.3911C12.0279 17.3911 12.3112 17.3722 12.5946 17.3471C15.2457 15.8609 17.0404 13.0272 17.0404 9.77149L17.0341 9.77779ZM9.99385 16.1443C6.87672 16.1443 4.34523 13.6128 4.34523 10.4957C4.34523 7.37854 6.87672 4.85335 9.99385 4.85335C13.111 4.85335 15.6425 7.38484 15.6425 10.502C15.6425 13.6191 13.111 16.1506 9.99385 16.1506V16.1443Z" fill="#F08200"/>
<path d="M7.10323 10.1393L6.505 9.17578H6.20273L5.60449 11.1405L6.272 11.1279L6.505 10.0763L7.04656 11.1405L7.56923 10.1078L7.92187 11.172L8.50752 11.1657L7.8526 9.17578H7.60071L7.10323 10.1393Z" fill="#004EA2"/>
<path d="M12.7815 10.5723L13.0795 9.84763C13.0795 9.84763 13.4452 10.5994 13.4046 10.5859C13.3639 10.5791 12.7747 10.5656 12.7747 10.5656L12.7815 10.5723ZM13.1878 9.10938H12.8831L11.8604 11.1819H12.5986L12.6731 10.8974H13.5062L13.5875 11.1887L14.2309 11.209L13.1743 9.10938H13.1878Z" fill="#004EA2"/>
<path d="M10.0501 8.72266C9.8889 8.74324 9.73623 8.79213 9.59814 8.86417C9.68992 8.83072 9.78598 8.80757 9.88632 8.79727C9.93864 8.76811 9.99353 8.74324 10.0501 8.72266Z" fill="#FFEA00"/>
<path d="M8.91602 10.4414C8.94175 10.534 8.97691 10.6224 9.02151 10.7064C9.01293 10.6713 9.00607 10.6361 9.00093 10.6001C8.96919 10.5495 8.94089 10.4963 8.91687 10.4414H8.91602Z" fill="#FFEA00"/>
<path d="M11.579 10.2148C11.525 10.3709 11.4401 10.5125 11.3303 10.6308C11.3037 10.7843 11.2471 10.9284 11.1665 11.0554C11.3929 10.8384 11.5456 10.5442 11.579 10.2148Z" fill="#D8DE00"/>
<path d="M10.0019 8.79242C10.5946 8.79242 11.0843 9.22983 11.1692 9.79847C11.2833 9.9803 11.3502 10.1939 11.3502 10.4246C11.3502 10.4949 11.3433 10.5627 11.3313 10.6296C11.4411 10.5103 11.526 10.3697 11.58 10.2136C11.5852 10.1673 11.5877 10.1201 11.5877 10.0721C11.5869 9.32075 10.9771 8.71094 10.2249 8.71094C10.1649 8.71094 10.1074 8.71608 10.0491 8.7238C9.99246 8.74524 9.93757 8.76926 9.88525 8.79842C9.92299 8.79499 9.96159 8.79242 10.001 8.79242H10.0019Z" fill="#FDD000"/>
<path d="M10.5782 11.0064C10.4076 11.1016 10.2112 11.1573 10.0019 11.1573C9.57905 11.1573 9.20939 10.9352 9.00098 10.6016C9.00612 10.6376 9.01298 10.6727 9.02156 10.7079C9.2497 11.1402 9.70341 11.4352 10.2257 11.4352C10.5911 11.4352 10.9222 11.2903 11.1675 11.0561C11.2481 10.9292 11.3047 10.7851 11.3313 10.6316C11.14 10.8391 10.8759 10.9789 10.5782 11.0072V11.0064Z" fill="#00A040"/>
<path d="M11.1691 9.80078C11.1776 9.85825 11.1836 9.91657 11.1836 9.97661C11.1836 10.42 10.9392 10.806 10.5781 11.0084C10.8757 10.9792 11.139 10.8403 11.3312 10.6327C11.3432 10.5658 11.35 10.4981 11.35 10.4277C11.35 10.1979 11.2831 9.98347 11.1691 9.80164V9.80078Z" fill="#F9AB13"/>
<path d="M8.98556 10.423C8.98556 10.1143 9.10478 9.83381 9.29947 9.62282C9.36208 9.26774 9.58165 8.9667 9.88612 8.79688C9.78577 8.80631 9.68885 8.83032 9.59794 8.86377C9.16224 9.0902 8.86377 9.54563 8.86377 10.0705C8.86377 10.1983 8.88264 10.3227 8.91609 10.4402C8.9401 10.4959 8.96841 10.5483 9.00014 10.5989C8.99156 10.5414 8.98556 10.4831 8.98556 10.423Z" fill="#7FCEF4"/>
<path d="M10.1673 9.24325C10.5901 9.24325 10.9598 9.46539 11.1682 9.79902C11.0841 9.23038 10.5944 8.79297 10.0018 8.79297C9.96316 8.79297 9.92456 8.79468 9.88597 8.79897C9.58235 8.96965 9.36193 9.26984 9.29932 9.62492C9.51545 9.39077 9.82336 9.24325 10.1673 9.24325Z" fill="#F8B500"/>
<path d="M9.28039 9.82998C9.28039 9.75966 9.28725 9.6919 9.29926 9.625C9.10543 9.83599 8.98535 10.1164 8.98535 10.4252C8.98535 10.4852 8.99136 10.5436 8.99993 10.601C9.20921 10.9347 9.57886 11.1568 10.0008 11.1568C10.2101 11.1568 10.4065 11.1019 10.5772 11.0059C10.5395 11.0093 10.5009 11.0119 10.4614 11.0119C9.80872 11.0119 9.27953 10.4827 9.27953 9.82998H9.28039Z" fill="#0080CC"/>
<path d="M11.1836 9.97379C11.1836 9.91375 11.1776 9.85543 11.169 9.79796C10.9597 9.46433 10.5901 9.24219 10.1681 9.24219C9.82416 9.24219 9.51625 9.38971 9.30012 9.62385C9.28811 9.69075 9.28125 9.75851 9.28125 9.82884C9.28125 10.4815 9.81044 11.0107 10.4631 11.0107C10.5017 11.0107 10.5403 11.0081 10.5789 11.0047C10.94 10.8023 11.1844 10.4163 11.1844 9.97293L11.1836 9.97379ZM10.2247 10.8409C9.80014 10.8409 9.45536 10.4961 9.45536 10.0716C9.45536 9.64701 9.80014 9.30308 10.2247 9.30308C10.6492 9.30308 10.994 9.64787 10.994 10.0724C10.994 10.497 10.6492 10.8418 10.2247 10.8418V10.8409Z" fill="#F08200"/>
</g>
<defs>
<clipPath id="clip0_269_13169">
<rect width="20" height="20" fill="white" transform="translate(0 0.5)"/>
</clipPath>
</defs>
</svg>
