<svg width="20" height="21" viewBox="0 0 20 21" fill="none" xmlns="http://www.w3.org/2000/svg">
<g clip-path="url(#clip0_269_13084)">
<path d="M15.4566 13.6945H15.44L15.4138 13.6572H15.4L15.3337 13.5799L15.2923 13.5385V13.5274L15.2647 13.5026V13.4888H15.2564L15.2426 13.4681H15.2274L15.2205 13.4543L15.1846 13.4418V13.4349L15.157 13.4239V13.417L15.128 13.4046L15.1211 13.3908L15.0797 13.3687L15.0562 13.3604L15.0493 13.3438L15.0231 13.3328L15.0134 13.319H15.001L14.9927 13.3052L14.972 13.2941L14.9582 13.2734H14.9416V13.2596H14.9237L14.8961 13.221H14.8836L14.8257 13.1505H14.8132V13.1436L14.7911 13.1271V13.0788L14.7345 13.0208V13.0084L14.7207 12.9987L14.6973 12.9669V12.9545L14.7345 12.9145H14.7483L14.7635 12.8965H14.7773L14.7856 12.8841H14.8063V12.8758H14.8201L14.8284 12.8634H14.8395L14.8491 12.8523H14.8616L14.8685 12.8399H14.8919L14.9112 12.8178H14.9264L14.9333 12.8054H14.9485L14.9899 12.7668H15.0134V12.7543L15.0576 12.7226L15.0852 12.7074L15.0935 12.6894L15.1142 12.6812V12.666L15.1363 12.6577V12.6646H15.1501V12.6522H15.1639V12.6397H15.1777L15.186 12.6218L15.1943 12.597H15.2067L15.2164 12.5707H15.2371L15.2564 12.5472H15.2716L15.2854 12.5293H15.2992L15.3075 12.5169H15.3199L15.3489 12.4893H15.3655L15.4138 12.4465H15.4276L15.4345 12.4354L15.4566 12.4258V12.4133L15.4856 12.3857H15.4994V12.3719L15.5146 12.354L15.5408 12.3402V12.3264L15.5629 12.3153V12.3043L15.585 12.296V12.2808H15.6001V12.2504H15.6153V12.2297L15.6788 12.1883V12.1759L15.7354 12.1593V12.1469L15.7796 12.1345V12.1207L15.8431 12.093V12.0806H15.8569L15.9094 12.0185H15.9218V12.0047H15.937V11.9923H15.9536L15.9812 11.9578V11.9384L16.0033 11.9288L16.0157 11.8915H16.0323L16.0447 11.8473H16.0585V11.8225H16.0723V11.7962H16.0875L16.0944 11.7645L16.1027 11.7189H16.1096V11.7065H16.1165V11.6803H16.1234V11.6982H16.1303V11.6651H16.1441V11.6168H16.1579V11.5574H16.1717V11.4428H16.18V11.4152H16.1869L16.1703 11.3255V11.2109H16.1565V11.146L16.1413 11.1363V11.0894L16.1275 11.0797V11.0466H16.1206V11.0342H16.1123V11.0079H16.1054V10.9872H16.0958V10.9762V10.9486H16.0861V10.9141H16.0723H16.0847L16.0944 10.9279H16.1054L16.122 10.9513H16.1372V10.9665H16.1468L16.1745 11.0052H16.1896L16.2476 11.0756L16.2918 11.1073L16.3125 11.1446H16.3263L16.3332 11.1653L16.3691 11.1985V11.2123L16.405 11.244V11.2564L16.4202 11.2661V11.2799L16.4409 11.2951V11.3089L16.4547 11.3172V11.331L16.4671 11.3393L16.474 11.36H16.4809L16.9186 11.8459L16.9324 11.8528V11.8666L16.9476 11.8763L16.9545 11.8956H16.9614L17.0608 12.0116H17.076L17.0898 12.0309H17.1036L17.127 12.0599H17.1395L17.1629 12.0903H17.174L17.2195 12.1441L17.3106 12.2394L17.3396 12.278L17.4625 12.4037L17.4708 12.4175L17.4984 12.4299L17.5053 12.4437L17.5329 12.4561L17.5412 12.4699L17.8173 12.746H17.8311L17.8518 12.7833H17.8587V12.7958L17.8739 12.8054L17.8877 12.8151V12.8275L17.9015 12.8385V12.851L17.9222 12.8675L18.0368 12.9876H18.0492L18.0575 13.0015H18.0713L18.0851 13.0222H18.0989L18.1127 13.0429H18.1279L18.15 13.0719H18.1638L18.2204 13.1423H18.2356L18.2563 13.1602V13.2168L18.3212 13.2817L18.4165 13.3701V13.377H18.4289V13.3852L18.4413 13.3921L18.4703 13.406L18.5076 13.4308V13.446L18.5297 13.4639H18.5435L18.5656 13.4791V13.4943L18.5863 13.5095H18.6015L18.6153 13.5261L18.6235 13.5412L18.7368 13.6517L18.9024 13.8187L18.9176 13.8353H18.9286L18.9383 13.8491L19.3221 14.197L19.3442 14.2136L19.5596 14.4483H19.5734L19.6024 14.4869H19.6162L19.6231 14.5021L19.6659 14.5421L19.6949 14.5753L19.7307 14.6194L19.7597 14.6581L19.7804 14.6885L19.7943 14.7092L19.8177 14.752L19.844 14.7893L19.8591 14.8196L19.8674 14.8334L19.8895 14.8776V14.8969H19.8964V14.9232H19.9033V14.9425H19.9102V14.9563H19.9171V14.977H19.9254V14.9977V15.0184L19.9723 15.2145V15.2932H19.9792V15.4616V15.5058H19.9723V15.5375V15.5693H19.9641V15.5941H19.9572V15.6203H19.9489V15.6411H19.942V15.6866H19.9351V15.699H19.9268V15.7184H19.9185V15.7308V15.7501H19.9116L19.8978 15.7874H19.8895V15.7998H19.8826V15.815V15.8302H19.8743L19.8633 15.8661H19.855V15.884H19.8398V15.9103H19.8246V15.9227L19.8039 15.9324V15.9462L19.7832 15.9544V15.9779H19.7363V15.9931L19.6728 16.0304L19.6162 16.0815H19.6037L19.5816 16.1022H19.5665L19.554 16.1201H19.5375L19.525 16.1353H19.5112L19.5043 16.1463H19.4836H19.4546L19.4477 16.1574H19.4049L19.398 16.1684L19.3359 16.1767V16.1836H19.3069H19.2848H19.2724H19.2489H19.2282H19.2075H19.1868H19.1578H19.1288H19.0957C19.0957 16.1836 18.8831 16.156 18.7989 16.1353C18.7147 16.1146 18.4979 16.0331 18.4979 16.0331L18.4675 16.0235H18.4579V16.0166L18.4206 16.0041V15.9972L18.3944 15.9876V15.9793H18.3709L18.3419 15.9682V15.96L18.3143 15.9475L18.3074 15.9337L18.2632 15.913L18.0589 15.7833H18.0299V15.775H18.0092V15.7681H17.9871L17.965 15.7584L17.6392 15.5334H17.624L17.595 15.4933H17.5799L17.3811 15.3415V15.3332L17.3548 15.3208H17.3314V15.3125L17.2899 15.2904H17.2748V15.2835L17.2458 15.2711L17.2375 15.2559L17.1961 15.2352L17.1878 15.2214H17.1754V15.2131L17.1546 15.2048L17.1464 15.1882H17.1326L17.116 15.1661H17.1049L17.0967 15.1523H17.0829L17.0525 15.1137H17.0387L16.804 14.9204V14.9135L16.7612 14.8914H16.7474V14.8845H16.7322L16.6908 14.8652L16.6839 14.8486L16.6549 14.839L16.6466 14.8224L16.619 14.8113L16.6052 14.7879H16.59L16.5831 14.7741H16.5679L16.5527 14.752C16.5527 14.752 16.3125 14.5601 16.2186 14.4759C16.1248 14.3917 15.8376 14.1294 15.8045 14.0935L15.7796 14.0686V14.0548L15.7423 14.0217V14.0023L15.7285 13.9803L15.4566 13.6945Z" fill="#A3CF62"/>
<path d="M10.3264 12.1514V12.1639L10.383 12.2025V12.2149L10.4424 12.2508V12.2646L10.4631 12.2702V12.2757L10.47 12.2909L10.4921 12.313L10.5059 12.3171V12.3364L10.5225 12.3392L10.5377 12.3751L10.5446 12.3765V12.3889L10.5584 12.3999V12.4179L10.5722 12.422V12.4344L10.586 12.4372L10.6026 12.4731L10.6164 12.4759V12.4883L10.6315 12.4924L10.6661 12.5518L10.6812 12.5532V12.567L10.7392 12.6098L10.7406 12.6236L10.7544 12.6277V12.6401L10.7917 12.6595V12.6733L10.8055 12.676V12.6898L10.8552 12.7188L10.8635 12.7326L10.8842 12.7382L10.8925 12.752L10.9063 12.7547V12.7603L10.9297 12.7727V12.7851L10.956 12.7906V12.8044L10.9932 12.8238L11.0954 12.948V12.9618L11.1106 12.9646L11.1879 13.0516V13.064L11.2045 13.0667V13.0805L11.2266 13.0833V13.0985L11.239 13.1013V13.1137L11.3342 13.1786L11.3632 13.2034V13.2089L11.3784 13.2117V13.2172L11.3936 13.2214L11.3991 13.2338L11.4226 13.2393L11.4281 13.2545L11.4502 13.2573V13.2655L11.4778 13.2766V13.289L11.5151 13.3111V13.3235L11.5303 13.3263V13.3387L11.5427 13.3415L11.5676 13.3663V13.3787L11.58 13.3815V13.3953L11.5952 13.3967L11.6324 13.4367V13.4505L11.6462 13.4519L11.7608 13.5541V13.5665L11.7843 13.5706V13.5844L11.8188 13.6038V13.6093L11.8409 13.6162V13.6217L11.8699 13.6328V13.6466L11.9003 13.6521V13.6659L11.95 13.6811L11.9569 13.6949L11.9859 13.7018V13.7128L12.0218 13.7211L12.0287 13.7363L12.0673 13.7418V13.7487L12.088 13.7529V13.7598L12.1156 13.7653V13.7708L12.1667 13.7819L12.1736 13.7957L12.2537 13.8109L12.2606 13.826L12.331 13.8371V13.844L12.3531 13.8467V13.855L12.389 13.8606V13.8688L12.4055 13.8716L12.4125 13.8868L12.4704 13.902V13.9158L12.7286 13.9917L12.8211 14.0069V14.0014L12.8349 14.0041V13.9972L12.973 14.0083V13.9958L13.1013 13.9876V13.9738L13.1207 13.9751L13.1151 13.9779V13.9917L13.0793 14.0124L13.0392 14.0428V14.0538L13.0171 14.058L12.9702 14.1021L12.955 14.0994L12.9329 14.1201L12.9191 14.1173L12.897 14.1394L12.8832 14.1367L12.8694 14.1532L12.8542 14.1518L12.8473 14.1629L12.828 14.1657V14.1726L12.8128 14.1698L12.8073 14.1808L12.7852 14.185V14.1905L12.7438 14.1946L12.7355 14.2071H12.7065V14.214L12.6941 14.2112V14.2195L12.6803 14.2154V14.2236L12.6375 14.2292V14.2347L12.6182 14.2305V14.2361L12.614 14.254L12.6002 14.2512L12.5657 14.2844L12.5326 14.2802V14.2927L12.4911 14.3175L12.429 14.3714L12.4125 14.37L12.3558 14.4045L12.273 14.4431L12.2523 14.4459V14.4528L12.2371 14.4487L12.2302 14.4625H12.2012L12.1971 14.4735H12.1805L12.1667 14.4832L12.1529 14.479V14.4859L12.1391 14.4832V14.4901L12.1253 14.4873V14.4942L12.1115 14.4915V14.4984L12.0963 14.4956V14.5011L12.0825 14.4997V14.5053L12.0397 14.5108V14.5177L12.0176 14.5136V14.5191L12.0052 14.5177V14.5246L11.9845 14.5191V14.5246L11.9638 14.5329V14.5398L11.9431 14.5356V14.5412L11.9224 14.5384V14.5439L11.823 14.5853L11.7953 14.6116L11.7802 14.6102L11.7525 14.6378L11.7374 14.635L11.7249 14.6502L11.7111 14.6488L11.6959 14.6654L11.6821 14.6627L11.6752 14.6737L11.6462 14.6751L11.6393 14.6875L11.6186 14.6903V14.6972H11.5896L11.5841 14.711L11.5399 14.7151V14.7206L11.5275 14.7193V14.7248L11.5123 14.722V14.7289L11.4985 14.7275V14.7344L11.4557 14.7386V14.7455L11.4364 14.7386V14.7469L11.4226 14.7455V14.751L11.3991 14.7469L11.4005 14.7538L11.3853 14.751V14.7593L11.3646 14.7538L11.366 14.7593L11.3453 14.7565V14.7634L11.2086 14.8159L11.1962 14.8145L11.1686 14.8407L11.1548 14.838L11.1396 14.8559L11.1258 14.8532L11.1106 14.8697L11.0968 14.867L11.0913 14.8794L11.0775 14.8766L11.0623 14.8932L11.0347 14.8946L11.0278 14.907L11.0001 14.9084L10.9932 14.9194L10.9504 14.9236L10.9435 14.9346L10.9228 14.9319L10.9146 14.9443L10.6826 14.9857L10.655 14.9802V14.9871L10.6246 14.9816V14.9885L10.597 14.9843V14.9885L10.5694 14.9843V14.9912L10.5349 14.9843V14.9912L10.499 14.9843V14.9912L10.4424 14.9802V14.9871L10.1801 14.9443V14.9388L10.0959 14.9222V14.9153L10.0379 14.9042L10.0365 14.9001L9.99649 14.8918V14.8835L9.9675 14.8794V14.8725L9.9316 14.8656V14.8587L9.85291 14.8311V14.8256L9.83082 14.8214V14.8145L9.78112 14.7993V14.7938L9.76732 14.791V14.7841L9.74661 14.78V14.7731L9.73281 14.7703V14.7648L9.7121 14.7593V14.7538L9.68311 14.7427V14.7358L9.6624 14.7317V14.7248L9.61822 14.7041V14.6972L9.6058 14.693V14.6875L9.5768 14.6765L9.5699 14.6627L9.52572 14.6406L9.51882 14.6268L9.49121 14.6157V14.6074L9.46912 14.5978L9.46222 14.584L9.44841 14.5812L9.44013 14.566L9.42632 14.5633L9.41252 14.5412L9.39871 14.5398L9.38353 14.5177L9.36972 14.5149L9.35592 14.4915L9.33383 14.4818L9.27032 14.4045L9.25514 14.4031L9.20268 14.3341L9.19163 14.3313L9.15436 14.2858V14.272L9.14055 14.2637V14.2568L9.12674 14.2471V14.2347L9.10604 14.2181V14.2043L9.08533 14.1891V14.1739L9.06876 14.1657L9.06186 14.1449L9.05358 14.1436V14.1298L9.03977 14.1201L9.03425 14.1021L9.02596 14.0994L9.0163 14.0718L9.00388 14.0607V14.0497L8.98869 14.0331V14.0221L8.98179 14.0193V14.0055H8.97488V13.9917H8.96798L8.9528 13.9489H8.94589L8.93899 13.9144L8.93209 13.9116V13.8978H8.9238V13.8785L8.9169 13.8771L8.91 13.8495H8.90172L8.88791 13.7819L8.88101 13.7805V13.7598H8.87272V13.7404L8.86582 13.7377L8.85754 13.6907L8.85064 13.6894V13.6631L8.84373 13.6618L8.83545 13.5817L8.85064 13.0322H8.85754V13.0143H8.86444V12.9949L8.87134 12.9963L8.89067 12.9149L8.90034 12.9163V12.9038L8.90586 12.9066V12.8859L8.91276 12.8873L8.91966 12.861L8.9238 12.8638V12.8445L8.93347 12.8458L8.94175 12.8196L8.94865 12.8224V12.8017L8.96108 12.7975V12.7851L8.97488 12.7754V12.7616L8.98179 12.763V12.7492L8.98731 12.7506V12.7382L9.0025 12.734L9.00802 12.7092L9.0232 12.7064V12.6926L9.03701 12.6871L9.04391 12.665L9.05772 12.6595V12.6457L9.07843 12.6388V12.6236L9.09913 12.6153V12.6015L9.13365 12.5822V12.5697L9.16126 12.5559V12.5421L9.17644 12.5325L9.19853 12.5297V12.5173L9.21234 12.5118L9.22476 12.4952L9.26066 12.4828V12.4703L9.27446 12.4593L9.28827 12.4621L9.31036 12.4386L9.32554 12.4427L9.35039 12.4137L9.36558 12.4179L9.37939 12.3999L9.39457 12.4027L9.40838 12.3861L9.42356 12.3889L9.42909 12.3778L9.4567 12.3765L9.4636 12.364L9.48569 12.3627V12.3544H9.51468L9.52158 12.3419L9.53401 12.3447L9.54781 12.3337L9.56438 12.3364V12.3295L9.5768 12.3337V12.3268L9.59199 12.3295L9.59751 12.3171L9.61822 12.3212V12.3143L9.64721 12.313V12.3061L9.6693 12.3102V12.3047L9.69553 12.3033V12.2964L9.71762 12.3005V12.2936L9.73281 12.2964V12.2909L9.82392 12.2881V12.2812L9.84601 12.284V12.2771L9.86672 12.2826V12.2757L9.95093 12.2771L9.95922 12.266L9.97302 12.2702L9.98545 12.2522L10.0006 12.2564L10.0131 12.237L10.0282 12.2398L10.042 12.2218L10.0559 12.226L10.0641 12.2149L10.0917 12.2136L10.1 12.2025L10.1125 12.2039L10.1207 12.1915L10.1332 12.1942L10.1401 12.1832L10.1553 12.1859L10.1704 12.1763L10.1829 12.1777V12.1735H10.1981V12.168L10.2119 12.1708L10.314 12.1445L10.3264 12.1514Z" fill="#A3CF62"/>
<path d="M12.6141 11.0264L12.5934 11.0471L12.5782 11.0526L12.5796 11.0637L12.5658 11.0747L12.552 11.0733L12.5437 11.0844L12.5299 11.0816V11.0885L12.5161 11.0844V11.0927L12.494 11.0885V11.0954L12.4526 11.0996V11.1065L12.4374 11.1037L12.4388 11.112L12.3974 11.1161L12.3891 11.1272L12.3601 11.1299L12.3546 11.141L12.3408 11.1382L12.3339 11.1493L12.3187 11.1465L12.3118 11.1589L12.298 11.1562L12.2911 11.1672L12.2773 11.1658L12.269 11.1769L12.2358 11.1865V11.1879V11.2031L12.2662 11.221V11.2335L12.3228 11.2776V11.2915L12.338 11.2928V11.3066L12.3532 11.3108V11.3218L12.367 11.326L12.3684 11.3384L12.3822 11.3425L12.4167 11.4005L12.4319 11.4033L12.4484 11.4378L12.4636 11.4433V11.4544L12.4761 11.4571L12.5119 11.5372L12.5271 11.5386L12.5575 11.5979L12.5851 11.6311L12.6307 11.6518V11.6656L12.6583 11.6766V11.6891L12.6942 11.7098V11.7222L12.708 11.7249V11.7388L12.7232 11.7415L12.7246 11.7553L12.7604 11.794L12.7756 11.7967V11.8105L12.7894 11.8133V11.8257L12.8032 11.8285L12.8543 11.9113L12.8695 11.9127V11.9279L12.8833 11.9293V11.9486L12.8971 11.9527L12.9137 11.9942L12.9192 11.9955L12.9344 12.0314L12.9496 12.0342L12.9634 12.0701L12.9786 12.0728L13.0228 12.1074V12.1198L13.0366 12.1225V12.1363L13.0863 12.1653V12.1791L13.1014 12.1819L13.1235 12.2178L13.1373 12.2206L13.1387 12.2357L13.1525 12.2385L13.1746 12.2744L13.1884 12.2758V12.291L13.2022 12.2924L13.2257 12.3434L13.2409 12.3462V12.3614L13.2547 12.3628L13.2768 12.4111L13.2906 12.4152V12.4345L13.3044 12.4373L13.3127 12.458L13.3196 12.4594L13.3279 12.4939L13.3417 12.5036V12.5174L13.3568 12.527V12.5464L13.372 12.5547L13.3789 12.5975L13.3941 12.6044V12.6333H13.3996L13.4079 12.6679L13.4231 12.6706L13.4314 12.7383L13.4383 12.741V12.7535H13.4452V12.7935L13.4604 12.8032L13.4673 12.8653L13.4825 12.8736L13.4977 12.9302L13.5128 12.9315L13.5267 12.9881L13.5405 12.9895L13.5501 13.0378L13.5639 13.0406L13.5722 13.1083L13.586 13.1124L13.6095 13.3457H13.6026L13.6053 13.4506L13.5971 13.4493V13.4962L13.5902 13.4948V13.5348L13.5777 13.5376L13.5722 13.5901L13.557 13.5873L13.5225 13.6922L13.5059 13.6895L13.4521 13.7875L13.4369 13.7902L13.4286 13.7889L13.43 13.8082L13.4148 13.8068V13.8137L13.3872 13.8289L13.3651 13.8427L13.3679 13.8634L13.3154 13.8786V13.891L13.3265 13.8924L13.332 13.88L13.3486 13.8827L13.3527 13.8717L13.3693 13.8745L13.3748 13.8634H13.3886V13.8579L13.4107 13.8565L13.4162 13.8455H13.4314L13.4535 13.8248L13.4673 13.8289L13.4949 13.8013H13.5101L13.5584 13.7585L13.5722 13.7626V13.7557L13.5929 13.7461L13.6012 13.7281L13.6495 13.6977V13.6839L13.6827 13.6646V13.6522L13.6978 13.6494V13.6425L13.713 13.6398L13.7116 13.626L13.7282 13.6218V13.608L13.7406 13.6039V13.5914L13.7613 13.5818L13.7834 13.5514L13.8097 13.5362L13.8166 13.5252L13.8304 13.5266L13.8359 13.5045L13.8525 13.5086L13.858 13.4962L13.8718 13.499L13.8787 13.4865L13.8939 13.4907L13.9008 13.4782L13.9229 13.4769L13.9505 13.4493L13.9657 13.4506L13.9933 13.423L14.0057 13.4258V13.4189L14.0195 13.4147V13.4023L14.0347 13.4051L14.0609 13.3775L14.0678 13.3788V13.3664L14.0968 13.3568V13.3457L14.1327 13.325V13.3112L14.1603 13.2974V13.285L14.181 13.2863V13.2739L14.2363 13.238L14.2666 13.2366L14.2721 13.2132H14.3011V13.2063L14.3218 13.2049L14.3301 13.1925L14.3426 13.1952V13.1883L14.3646 13.1856L14.3702 13.1745L14.3854 13.1773L14.3978 13.1593L14.413 13.1635L14.4199 13.1497L14.4281 13.1524L14.4351 13.14L14.4489 13.1428V13.1372L14.4765 13.129V13.1152L14.609 13.0296V13.0171L14.6283 13.0089V12.9937L14.649 12.9854L14.6766 12.9605L14.6573 12.9315L14.6477 12.9302L14.6421 12.9026L14.62 12.886L14.6131 12.8515L14.6062 12.8501L14.5759 12.8045L14.4834 12.741V12.7272L14.4613 12.7176L14.4544 12.7024L14.4378 12.701L14.4171 12.6706L14.4019 12.6679L14.3674 12.6264L14.3508 12.6044L14.3384 12.6016L14.3149 12.5643L14.3011 12.5629L14.2652 12.5105L14.257 12.5077V12.4939L14.2128 12.4539V12.4415L14.2004 12.4304V12.4166L14.1852 12.4083V12.3959L14.1686 12.3793L14.1562 12.3766L14.1037 12.2689L14.0913 12.2647L14.0292 12.1294L14.0154 12.1184V12.106L14.0085 12.1046L14.0016 12.0632L13.9933 12.0618V12.0425L13.9864 12.0411V12.0218L13.9795 12.0204V12.0011L13.9726 11.9997L13.9712 11.9721H13.9657L13.956 11.9293L13.9491 11.9279V11.9155L13.9422 11.9127V11.8879L13.9353 11.8865L13.9339 11.8464L13.927 11.8451L13.9256 11.8105H13.9201L13.9187 11.7567L13.9118 11.7553L13.9035 11.5966L13.8953 11.5952V11.5758L13.8815 11.5662L13.8718 11.5179L13.858 11.5151L13.8511 11.4875L13.8442 11.4861V11.4599L13.8359 11.4585V11.4378L13.8207 11.4295V11.395L13.8055 11.3936L13.7986 11.326L13.7917 11.3246V11.3108H13.7848L13.7834 11.2638L13.7682 11.2528V11.1824L13.7531 11.1741L13.7503 10.9656L13.7655 10.9643V10.8883L13.7793 10.8925L13.7848 10.829H13.7917V10.8027L13.7986 10.8041V10.7696L13.8124 10.7668V10.7406L13.8276 10.7379L13.8345 10.6923L13.8497 10.6951L13.8676 10.6247L13.8828 10.6274V10.6081L13.8966 10.6108L13.9546 10.5225L13.9684 10.5253L13.9905 10.4825L14.0043 10.4852V10.4714L14.0181 10.4728L14.054 10.4272L14.0664 10.43V10.4162L14.0913 10.4217L14.112 10.4051L14.1092 10.3927L14.1244 10.3955V10.3817L14.1382 10.3844L14.1534 10.3679L14.1658 10.3692L14.1741 10.3582L14.1948 10.3541V10.3416L14.2307 10.3223L14.2956 10.314V10.3016L14.3674 10.2961V10.2809L14.4309 10.2726L14.4544 10.2781V10.2712L14.4682 10.2726V10.2657L14.4944 10.2712L14.5041 10.2602L14.5814 10.2685L14.5869 10.256L14.6532 10.2685L14.6615 10.256L14.7747 10.2781L14.7912 10.2726L14.9831 10.3168V10.3306L15.1433 10.3789V10.3927L15.1792 10.3982V10.412L15.2661 10.4479V10.4604L15.3365 10.4935V10.5087L15.3655 10.5197L15.3683 10.5266L15.389 10.5308L15.4028 10.5529L15.4249 10.557V10.5625L15.4415 10.5639V10.5722L15.4967 10.5819V10.5901L15.5464 10.5984V10.6053L15.5837 10.6122V10.6191L15.6265 10.6274V10.6343L15.6555 10.6398L15.6624 10.6523L15.6913 10.6592V10.6661L15.7121 10.6702V10.6757L15.7355 10.6799V10.6882L15.7645 10.6923V10.6992L15.8653 10.7434V10.7572L16.0075 10.8373V10.8497L16.0337 10.8607L16.0241 10.8497V10.8386L16.0103 10.829V10.8165L15.9965 10.8V10.7876L15.9813 10.7779L15.9744 10.7503L15.9606 10.7406V10.7282L15.9537 10.7254L15.9468 10.7061L15.9316 10.6964V10.684L15.9026 10.6592V10.6454L15.8722 10.6205V10.6081L15.8225 10.5598L15.817 10.5391L15.8032 10.5363V10.5225L15.788 10.5197L15.6872 10.4245L15.6748 10.4024L15.661 10.3982L15.6513 10.3844L15.6389 10.3817L15.6237 10.3596L15.5961 10.3472L15.5892 10.3334L15.5657 10.3223V10.3168L15.5229 10.2961V10.2878L15.5105 10.2864V10.2795L15.4677 10.2588V10.2533L15.4318 10.2381V10.234L15.418 10.2298V10.2229L15.3959 10.2201V10.2132L15.3821 10.2105V10.2036L15.3614 10.1994V10.1925H15.3462V10.1843L15.2965 10.1677V10.1622L15.2744 10.158V10.1525L15.2468 10.147V10.1401L15.2109 10.1346V10.1263L15.1764 10.1194V10.1138L15.0632 10.0862V10.0807L14.7526 10.0352V10.0407L14.7139 10.0352V10.0407L14.6808 10.0352V10.0407L14.6601 10.0379V10.0448L14.6311 10.0379V10.0462L14.6021 10.0393V10.0476L14.5869 10.0434V10.0503L14.5455 10.049V10.0559L14.5331 10.0531V10.0586L14.511 10.0572V10.0628H14.4834V10.0697L14.4613 10.0655V10.0724L14.4185 10.078V10.0849L14.4061 10.0807V10.089L14.3771 10.0904L14.3702 10.1L14.3426 10.1028L14.3357 10.1138L14.3191 10.1125V10.118L14.2984 10.1194L14.2929 10.1332L14.2777 10.129L14.2652 10.147L14.2501 10.1442L14.2363 10.1608L14.2224 10.158L14.2004 10.1815L14.1866 10.1787L13.43 10.6026L13.3996 10.6053V10.6122L13.3789 10.615L13.372 10.626L13.3568 10.6219V10.6302L13.3306 10.644L13.0973 10.7848L13.1001 10.7958L13.0849 10.8L13.0642 10.8234L13.049 10.8193L13.0366 10.829L12.6141 11.0264Z" fill="#A3CF62"/>
<path d="M3.77304 10.2737L3.78822 10.2447H3.79375L3.80065 10.2213L3.80893 10.2227L3.80755 10.2089L3.81445 10.2102V10.1895L3.82136 10.1909L3.83516 10.155L3.84207 10.1564V10.1426L3.85035 10.1453V10.1315L3.85725 10.1343L3.85587 10.1205H3.86277V10.1081L3.87244 10.1108V10.097L3.88348 10.086V10.0736L3.89729 10.0694L3.90419 10.0446L3.91938 10.0404L3.9249 10.0156L3.94146 10.0114L3.9387 10.0004H3.94561V9.98658L3.96079 9.98382V9.97002L3.97322 9.96726V9.95345L3.98978 9.94931L3.98702 9.9355L4.00221 9.93136V9.91894L4.02292 9.91065V9.89685L4.04501 9.88857V9.87338L4.0809 9.85543V9.84301L4.09471 9.83887V9.83196L4.10713 9.82782V9.8154L4.28246 9.60003H4.28936L4.30731 9.57794L4.31421 9.5807V9.55999L4.32112 9.56138L4.31974 9.55033H4.32664V9.52962L4.3363 9.53238L4.34873 9.49511H4.35563V9.48407L4.36253 9.48545V9.47302H4.36943V9.4606H4.37496V9.44817L4.38324 9.44955V9.43575L4.39014 9.43851V9.4247L4.39567 9.42608V9.41228L4.41085 9.40261V9.38881L4.42466 9.38605L4.43156 9.3612L4.44398 9.35705L4.45365 9.3322L4.46469 9.32806V9.31564H4.47298V9.30459L4.49368 9.29493L4.49921 9.26732L4.52268 9.2618L4.52129 9.24661L4.542 9.23833L4.57928 9.19967V9.18587L4.59308 9.18863L4.60551 9.16654H4.61241V9.15411L4.61931 9.15549L4.6414 9.13341L4.65521 9.13064V9.11546L4.66073 9.11684L4.68282 9.09475L4.69524 9.09889L4.88162 8.89595L4.88024 8.88491L4.88852 8.88629L4.89404 8.86006L4.90095 8.86282V8.84901L4.90923 8.85039V8.83659L4.91475 8.83797V8.82554L4.92303 8.82692V8.81312L4.92994 8.81588V8.80345H4.93684V8.78827L4.94236 8.79241V8.7786L4.95065 8.77998L4.94926 8.76756L4.96445 8.75514V8.74409L4.97826 8.73995L4.98516 8.7151L5.00587 8.70544L5.01139 8.68059L5.02658 8.67782V8.66402L5.03348 8.6654V8.65159L5.04728 8.64883L5.05419 8.62951L5.07628 8.62122V8.6088L5.09698 8.59913L5.10389 8.57428L5.13978 8.55358V8.54115L5.17291 8.52182V8.5094L5.27783 8.38929L5.28336 8.39205V8.37963L5.29026 8.38101L5.29854 8.33683L5.30683 8.33821L5.30407 8.3244L5.31373 8.32578L5.31925 8.28851L5.32615 8.28989V8.27609L5.33306 8.27885V8.25952H5.33996L5.34686 8.23605H5.35238V8.21672L5.35929 8.2181L5.37447 8.18221H5.38138V8.16978L5.38828 8.17116V8.15874H5.39518V8.14493L5.40208 8.14769V8.13527H5.40761V8.12284H5.41589V8.11042L5.42141 8.11318V8.09938L5.4366 8.08833V8.07591L5.4504 8.07176L5.46559 8.03449L5.47801 8.03173V8.01792L5.5001 8.00964L5.50563 7.98479L5.52081 7.98065V7.96822L5.54152 7.95994V7.94613H5.54704L5.55394 7.92819L5.56913 7.92405V7.91024L5.59812 7.89781V7.88401L5.63126 7.86606V7.85226L5.67405 7.82741V7.8136L5.7555 7.68659H5.76517L5.76241 7.67417L5.77069 7.67693L5.7845 7.61894L5.7914 7.62171V7.6079L5.7983 7.60928V7.58995L5.8052 7.59133L5.81211 7.56648L5.82039 7.56786V7.54716L5.82453 7.54854L5.83834 7.51264L5.84662 7.51402V7.5016L5.85352 7.50298V7.48917H5.86181L5.86043 7.47675L5.87009 7.47951L5.86595 7.4657L5.87561 7.46708L5.87423 7.45328L5.88252 7.45466L5.87975 7.44223L5.88804 7.44361V7.42843L5.90184 7.42015V7.40772L5.91703 7.4022L5.92393 7.37873L5.93636 7.37321L5.94326 7.34974L5.95845 7.3456V7.33317L5.97225 7.32903V7.3166L5.98606 7.31246V7.29866L5.99848 7.29452V7.28071L6.01505 7.27795L6.00953 7.25724L6.02885 7.24758V7.23515L6.05785 7.22135L6.06475 7.20202L6.12687 7.11642V7.08467L6.13516 7.08605V7.06534L6.14206 7.06811L6.1393 7.0474L6.14758 7.04878V7.02255L6.15448 7.02531V7.0046L6.17243 7.00736V6.98803L6.18071 6.99079L6.17933 6.97009H6.18624V6.95766L6.19314 6.96042L6.20004 6.92177L6.20832 6.92315L6.20556 6.90934L6.21385 6.91072V6.8914L6.22075 6.89278L6.22765 6.86793L6.23594 6.87069L6.23455 6.8555L6.24146 6.85826V6.83893L6.24974 6.84032L6.26217 6.80442H6.26907V6.792H6.27735L6.27459 6.78095H6.28425L6.29668 6.74368L6.31187 6.73954V6.72021L6.32429 6.71607L6.33257 6.6926L6.345 6.68845V6.67465L6.3588 6.67189V6.65808L6.37399 6.65394V6.64152L6.38642 6.63737V6.62495L6.40298 6.62081V6.60838H6.40988L6.41403 6.59044L6.43059 6.58767V6.57387L6.44992 6.56421V6.55178L6.48581 6.53245V6.52003L6.58936 6.36817V6.35022H6.59626V6.33089L6.60178 6.33365V6.30604H6.61006L6.60868 6.295L6.61559 6.29638V6.27705L6.62387 6.27843V6.26463L6.62939 6.26601V6.2453L6.63629 6.24806V6.23425L6.64458 6.23564V6.21631L6.6501 6.21769L6.657 6.19284L6.66391 6.19422V6.18179H6.67081V6.16247L6.68599 6.15832V6.14038L6.6929 6.14176V6.12795H6.69842V6.11553L6.71361 6.11139L6.71222 6.09896L6.72741 6.0893V6.07549H6.73293V6.06307L6.74122 6.06583V6.05202L6.75502 6.04788L6.76192 6.02303L6.77573 6.02027V6.00646L6.78954 6.00232V5.9899L6.80472 5.98576L6.80334 5.97195L6.81715 5.96919V5.95538L6.83095 5.95124V5.93882L6.85304 5.92915V5.91811L6.87237 5.90706V5.89326L6.96348 5.76625L6.97039 5.76901V5.74968L6.97867 5.75106V5.73035L6.98419 5.73312V5.71241L6.9911 5.71379V5.68894L6.998 5.69032V5.67651H7.0049L7.02009 5.62129L7.02561 5.62267V5.60887L7.03389 5.61025L7.03251 5.59092L7.03941 5.59368L7.04632 5.56883H7.05322L7.06012 5.53984H7.06703L7.07945 5.50256L7.08635 5.50394V5.49014L7.09602 5.4929L7.09464 5.48048L7.10292 5.48186L7.10154 5.46805L7.10844 5.46943V5.45701L7.12363 5.44596V5.43216L7.13605 5.4294L7.14296 5.40316L7.15676 5.4004L7.16366 5.37555L7.17747 5.37003L7.18575 5.34518L7.20646 5.33828L7.20508 5.32447L7.21889 5.32033V5.30653L7.23407 5.30377L7.23959 5.28444L7.2603 5.27615V5.26235L7.27687 5.25959L7.27411 5.25269L7.28929 5.24992V5.23612L7.3169 5.22093V5.20851L7.50466 4.95587V4.94344L7.51156 4.9462V4.9324L7.52675 4.92826V4.91583L7.54055 4.90479V4.89098L7.54608 4.89236V4.87994L7.55988 4.8758L7.56678 4.85095L7.57369 4.85233L7.58197 4.83576L7.59439 4.83024L7.60268 4.80539L7.62201 4.79572V4.7833L7.63581 4.77916V4.76397L7.6579 4.75707V4.74326L7.68413 4.73084V4.71565L7.71312 4.70185V4.6908L7.77801 4.64939L7.77525 4.63558L7.79181 4.63282L7.80424 4.61487L7.81942 4.61763L7.87603 4.56931L7.88983 4.57207L7.91054 4.54999L7.92435 4.55275L7.95196 4.52514L7.96438 4.5279L7.97957 4.51133L7.99475 4.51271L8.00304 4.50167L8.02236 4.49891V4.492L8.03617 4.49614L8.04307 4.4851L8.05826 4.48786L8.06516 4.47406L8.08725 4.47129V4.46439L8.12867 4.46025L8.13419 4.44921L8.14937 4.45197L8.16318 4.43954L8.17699 4.4423V4.43678L8.19079 4.43954V4.43402L8.20736 4.4354L8.21288 4.42298L8.23221 4.42712V4.4216L8.2612 4.41883V4.41331L8.28191 4.41745V4.41055L8.3109 4.40917V4.40365L8.33299 4.40641V4.40089L8.34679 4.40365V4.39675L8.36888 4.40089V4.39536L8.37993 4.39675V4.38846L8.50142 4.36775L8.51384 4.37051L8.52212 4.35671H8.55111L8.55664 4.34428L8.58563 4.3429V4.336L8.60081 4.33876V4.33324L8.64085 4.32772V4.3222L8.66294 4.32358V4.31805L8.69193 4.31667V4.31115L8.71264 4.31529V4.30701L8.72783 4.31115V4.30287L8.76786 4.30563L8.76924 4.29873L8.78995 4.30287V4.29597L8.81066 4.30011V4.29458L8.83275 4.29735V4.29044L8.86036 4.29597V4.28906L8.88935 4.29458V4.28906L8.92386 4.29458V4.28906L9.48298 4.41883V4.42574L9.50507 4.42988V4.4354L9.52578 4.43954V4.44644L9.54787 4.45059V4.45749L9.56996 4.46025V4.46715L9.58376 4.46991V4.47544L9.60585 4.47958V4.48786L9.63346 4.49891V4.50443L9.65555 4.50857V4.51685L9.69835 4.53756V4.54308L9.72596 4.55413L9.73286 4.56793L9.76186 4.58036L9.76876 4.59416L9.78394 4.59692L9.79085 4.61211L9.80465 4.61487L9.81294 4.62868L9.82536 4.63144L9.83364 4.64524L9.84745 4.648L9.85573 4.66319L9.86954 4.66595L9.89025 4.69494L9.90543 4.6977L9.93304 4.73636L9.94823 4.73912V4.74326L9.96204 4.75431V4.76811L10.0766 4.89926L10.0973 4.91721V4.92826L10.1208 4.9462V4.95863L10.1332 4.96691L10.1401 4.99038H10.1484V5.00419L10.1622 5.01247L10.1705 5.03318L10.176 5.03594V5.04836L10.1926 5.06493V5.07597L10.1995 5.07736V5.09116L10.2064 5.09392V5.10635H10.2133V5.11877L10.2202 5.12153V5.13534H10.2257L10.2423 5.17675L10.2492 5.17952V5.19746L10.2575 5.20022V5.21265L10.263 5.21403V5.23336L10.2699 5.23474V5.24992H10.2796V5.26925L10.2851 5.27063V5.28996L10.2934 5.29134L10.3017 5.33828H10.3072L10.3817 5.56055L10.3859 5.56331L10.3969 5.58954L10.4024 5.59092L10.4107 5.63234H10.4176V5.64614H10.4245L10.448 5.73588L10.4521 5.73726V5.75797H10.4618V5.77867H10.4687V5.80352L10.4756 5.80628L10.4908 5.90706V6.44686L10.477 6.53659L10.4701 6.53383V6.55454L10.4632 6.55316V6.57249L10.4024 6.9121L10.3969 6.91072L10.3997 6.99079H10.39L10.3928 7.0474L10.3845 7.04602V7.08467H10.3776V7.12195H10.3693V7.1537L10.3638 7.15232V7.17717H10.3583L10.2823 7.41876L10.2768 7.416L10.2685 7.44223L10.2616 7.44085V7.46018L10.2547 7.4588L10.2478 7.48365L10.2409 7.48089V7.49469L10.2326 7.49331L10.2354 7.51264L10.2202 7.51678V7.53059L10.2064 7.54025L10.1291 7.70868L10.1236 7.72525L10.1167 7.70868L10.0959 7.69211L10.089 7.66312L10.067 7.64794V7.63413L10.0532 7.62447V7.61066L10.0311 7.59409L10.0159 7.57201L10.009 7.56924V7.55682L9.97998 7.53197L9.94409 7.47951L9.93028 7.47675L9.922 7.45466H9.9151V7.43533L9.90681 7.43257V7.41186H9.89991V7.39115L9.89163 7.38977V7.37045L9.88472 7.36907V7.34974H9.87782V7.32903L9.87092 7.32765L9.85711 7.28485H9.84745V7.27105L9.84193 7.26967V7.25724L9.83364 7.25448V7.24205L9.82536 7.24067V7.22687L9.81984 7.22549V7.21306L9.80465 7.19788V7.18407L9.79085 7.17441L9.77704 7.13299L9.75357 7.11504V7.10124L9.72458 7.07777L9.71768 7.05568L9.70249 7.04602V7.03359L9.6804 7.01564V7.00322L9.65969 6.98665V6.97285L9.60861 6.92315L9.60171 6.90244L9.58791 6.89968V6.88725L9.55891 6.86793L9.52302 6.82237L9.50645 6.81961V6.81409L9.47056 6.78509V6.77405L9.45123 6.76162V6.7561L9.42914 6.74644L9.42224 6.73125L9.37806 6.71054L9.37116 6.69536L9.34907 6.68569V6.67879L9.33665 6.67741L9.3187 6.65946L9.30627 6.65808V6.65118L9.29247 6.64842L9.28419 6.63323L9.27038 6.63185V6.62495L9.25519 6.62219L9.24001 6.607L9.2262 6.60424L9.2193 6.58906L9.15441 6.5573V6.5504L9.14061 6.54764V6.54074L9.09781 6.52693L8.93215 6.44962L8.85483 6.42753V6.42339L8.62566 6.37369L8.19631 6.37921L8.17284 6.37507V6.38197L8.13281 6.38888V6.39302L8.10382 6.39578L8.09691 6.40682L8.08311 6.40406V6.41096L8.0693 6.4082V6.41511L8.05412 6.41235L8.03893 6.42339L8.02651 6.41925L8.01822 6.43167L7.97681 6.43858L7.96162 6.45376L7.93125 6.45652L7.92711 6.46757L7.90364 6.47033V6.47585L7.88293 6.47999L7.88431 6.49242L7.84703 6.50622V6.51174L7.83461 6.50898L7.79872 6.5435L7.7711 6.5504V6.56421L7.74902 6.56559V6.57939L7.73521 6.58215V6.59044L7.72002 6.58767L7.68413 6.61943V6.63323L7.67999 6.63185L7.66618 6.6567L7.651 6.65256L7.64409 6.67051H7.63581L7.62891 6.68845L7.61372 6.6926L7.6082 6.71745L7.58887 6.72711L7.57231 6.76162L7.55712 6.76715L7.55988 6.78095L7.54608 6.792V6.80442H7.53917V6.81685H7.53089V6.82789L7.52399 6.82651V6.84032L7.51708 6.83893V6.85136L7.51018 6.84998L7.495 6.88725H7.48809L7.41907 7.09019L7.40802 7.21997L7.39974 7.21859L7.3956 7.36907H7.40112L7.4094 7.50298L7.41768 7.50574L7.42597 7.58581L7.43149 7.58719L7.43287 7.61204L7.43977 7.61342V7.63965L7.44668 7.64241L7.44944 7.66726L7.45496 7.66864L7.45772 7.68797L7.46324 7.69073V7.71006L7.47015 7.71282V7.73215H7.47705V7.75286H7.48533V7.77357L7.49223 7.77495V7.79427L7.49914 7.79703V7.81636H7.50604L7.52261 7.85916L7.52951 7.86054V7.87297H7.53503L7.53641 7.88677L7.5447 7.88953V7.90334H7.5516V7.91852H7.55712V7.93095L7.57231 7.94751V7.95994L7.58887 7.9696L7.60268 8.01102L7.62201 8.02897L7.63029 8.05658L7.64547 8.06624L7.65238 8.08695L7.65928 8.08833L7.66756 8.11042L7.67999 8.11318V8.12423L7.70208 8.14217V8.1546L7.71864 8.16426V8.17807L7.73935 8.19601V8.20292L7.75316 8.2043L7.76834 8.22086L7.77525 8.24019L7.80424 8.26642V8.28575L7.81114 8.28851V8.30646L7.81942 8.30922L7.8208 8.32717L7.82771 8.32993V8.34925L7.83461 8.35064V8.36444H7.84151L7.84842 8.40586L7.8567 8.40724L7.87188 8.45003L7.88017 8.45141V8.46384L7.88707 8.4666V8.47903H7.89121V8.49283L7.90088 8.49559V8.50664L7.91468 8.52458V8.53701L7.92849 8.54529L7.94367 8.58809L7.96438 8.60604L7.97405 8.63227L7.98785 8.64193L7.99475 8.66402L8.02374 8.68749V8.70267L8.05964 8.73581V8.74685L8.11072 8.79655L8.11762 8.81726L8.13281 8.82002L8.1549 8.8711L8.1687 8.93185L8.17699 8.93323V8.94703L8.18389 8.94841V8.96774L8.19079 8.96912L8.20736 9.01054L8.21288 9.0133V9.02572L8.21978 9.0271V9.04091L8.22807 9.04229V9.05471L8.23359 9.05609V9.07542L8.24877 9.08509L8.25706 9.1127L8.27224 9.12236L8.28605 9.16378L8.29985 9.17344V9.18725L8.31504 9.19691L8.32332 9.22452L8.33575 9.23281V9.24661L8.36474 9.27008V9.28527L8.39511 9.30874V9.32392L8.4172 9.34049L8.42548 9.35429L8.43929 9.35705V9.36396L8.45172 9.37362V9.38605L8.47518 9.39571L8.48347 9.4178L8.49589 9.42056L8.50418 9.43437L8.51108 9.43575V9.44955L8.52488 9.45922L8.53179 9.49787L8.54007 9.50201V9.51444L8.54835 9.51582V9.53514L8.55526 9.53653L8.57044 9.57794L8.57596 9.5807V9.59313L8.58425 9.59451V9.60831L8.59115 9.60969V9.62212H8.59943V9.63731H8.60634V9.65249L8.62014 9.66768V9.6801L8.63671 9.69115L8.64913 9.73256L8.67122 9.74913L8.67813 9.76984H8.68641V9.78364L8.70712 9.80159V9.8154L8.73749 9.84025V9.85267L8.7651 9.87752V9.89133L8.81618 9.94241L8.82308 9.96173L8.83827 9.96311V9.97692L8.85898 9.98658V9.99349L8.89625 10.028V10.0404L8.91006 10.0501V10.0625L8.91696 10.0639V10.0777L8.92386 10.0791V10.0984L8.93215 10.0998L8.95285 10.1536H8.95009L8.94457 10.1909L8.93767 10.1895V10.2033L8.93077 10.2006V10.2213L8.92248 10.2185V10.2392H8.91696V10.2516L8.91006 10.2489V10.2696L8.90177 10.2668L8.89625 10.2917L8.88935 10.2903V10.311L8.88245 10.3096L8.86726 10.3455L8.86036 10.3441V10.3593L8.85483 10.3552V10.3759L8.84241 10.38V10.3925L8.83413 10.3911V10.4118L8.82032 10.4146V10.4284L8.81342 10.427V10.4394L8.79961 10.4504V10.4629L8.78581 10.467L8.772 10.5029L8.75682 10.5084V10.5209L8.73749 10.5291L8.73059 10.554L8.70988 10.5637V10.5775L8.69469 10.5802L8.68779 10.5995L8.68089 10.5968V10.6106L8.6588 10.6203V10.6341L8.62566 10.6658L8.54559 10.7721L8.53317 10.7928L8.52765 10.7914V10.8094L8.52074 10.808V10.8342H8.51246V10.8536L8.50694 10.8508L8.49589 10.8701L8.48899 10.8674V10.8881L8.48347 10.8867V10.906L8.47518 10.9046V10.9171L8.46828 10.9157V10.9364L8.46138 10.9336V10.9474L8.45448 10.9461L8.43515 10.9806H8.43101L8.42134 11.0054L8.4172 11.0027V11.0165L8.40892 11.0151V11.0358L8.40202 11.0344L8.38821 11.0399H8.39235L8.39373 11.0537L8.38407 11.0524L8.37302 11.0896L8.35784 11.0924L8.34403 11.1297L8.32885 11.1338L8.31642 11.1683L8.30262 11.1752V11.1849L8.28743 11.189V11.2042L8.27362 11.207V11.2208H8.26534L8.25844 11.2387L8.24463 11.2415V11.2539L8.22531 11.2636V11.2774L8.2115 11.2802V11.294L8.19631 11.2981L8.21012 11.3064L8.19355 11.3091V11.323L8.16594 11.3685V11.3823L8.11762 11.4099V11.4251L8.09001 11.4375L7.94367 11.6267L7.93677 11.6253L7.92849 11.6501L7.92435 11.6488V11.6626L7.91468 11.6612V11.6791H7.91054L7.89535 11.715H7.88707V11.7261L7.88155 11.7247V11.7399L7.87327 11.7371L7.87603 11.7509L7.86774 11.7495V11.762L7.85394 11.7716V11.7854L7.84013 11.7896V11.8089L7.83323 11.8061L7.82495 11.8269L7.81114 11.8282L7.80424 11.8545L7.79181 11.8586V11.871L7.78353 11.8697V11.8835L7.7711 11.8876V11.9L7.74902 11.9097L7.74211 11.9345L7.72002 11.9428V11.9566L7.7007 11.9663V11.9787L7.68689 11.9829V11.9953L7.6579 12.0105V12.0229L7.62201 12.0422V12.056L7.51708 12.1844H7.51018V12.2106L7.5019 12.2079V12.2217L7.495 12.2203L7.47015 12.2755L7.46324 12.2728L7.45772 12.3045H7.44944V12.3169L7.44391 12.3142V12.3335H7.43701L7.42183 12.3694L7.41492 12.368V12.3805L7.40802 12.3791V12.3929H7.40112V12.4108L7.38731 12.4163V12.4343L7.37489 12.4384V12.4522L7.3666 12.4495V12.4633L7.3597 12.4619V12.4757L7.3528 12.4743V12.4868L7.33899 12.4978V12.5116L7.32519 12.5157L7.31828 12.5392L7.30448 12.542L7.29758 12.5682L7.27687 12.5779L7.26859 12.6013L7.25064 12.6096L7.24235 12.629L7.22855 12.6345L7.22027 12.6593L7.19818 12.6662V12.68L7.16504 12.7007V12.7132L7.12915 12.7311V12.7463L7.0118 12.8802L7.0049 12.8982L6.998 12.8968V12.923L6.9911 12.9202L6.98419 12.9451L6.97867 12.9437L6.97039 12.9824L6.96348 12.981L6.95796 13.0141L6.94968 13.0114L6.94278 13.0348L6.93587 13.0335V13.0473L6.92759 13.0459V13.0666L6.92069 13.0638L6.90826 13.1025L6.90136 13.1011V13.1135H6.89446L6.87927 13.148L6.86547 13.1508V13.166L6.85304 13.1757V13.1881L6.84614 13.1867V13.2005H6.83924V13.2115L6.82681 13.2171L6.81853 13.2405L6.80472 13.2447V13.2571L6.78954 13.2612V13.275L6.77573 13.2778V13.2902L6.76192 13.2958V13.3082L6.74812 13.3123V13.3261L6.72741 13.3344V13.3468L6.71361 13.351V13.3662L6.68599 13.38V13.3924L6.6501 13.4117V13.4241L6.62387 13.4393V13.4462L6.60868 13.4504L6.4872 13.6022L6.48029 13.6133L6.46511 13.6506H6.45958L6.45406 13.6754L6.44716 13.674V13.692L6.43888 13.6906V13.7044L6.43197 13.703V13.7223H6.42369L6.40022 13.7569L6.39332 13.7541V13.7679L6.38642 13.7665V13.7859L6.37399 13.79V13.8024L6.3588 13.8121V13.8259H6.3519V13.8369H6.345V13.8494L6.33119 13.8604V13.8728L6.31739 13.877L6.3091 13.9018L6.29668 13.906V13.9184L6.28287 13.9225V13.935L6.26769 13.9391L6.26079 13.9653L6.2387 13.9736L6.23455 13.9985L6.21247 14.0067L6.17657 14.0468V14.0606L6.16553 14.0564L6.15034 14.0813L6.14344 14.0799V14.091L6.12963 14.0951V14.102L6.11445 14.1061V14.1199L6.03852 14.171V14.1834L6.02333 14.1862L5.9902 14.2193L5.97501 14.218L5.96673 14.229L5.74308 14.4361L5.73618 14.4333L5.73894 14.4458H5.73065V14.4582L5.71685 14.4692V14.483L5.70166 14.4858L5.69476 14.5106L5.68234 14.5148L5.67405 14.5396L5.65334 14.5479L5.64782 14.5728L5.62573 14.5824L5.61883 14.6073L5.5995 14.6156V14.6294L5.57741 14.639V14.6515L5.54842 14.6653L5.54428 14.6846L5.536 14.6832V14.6956L5.52219 14.6929L5.38138 14.824L5.36757 14.8213L5.35929 14.8309L5.30407 14.8613V14.8751L5.29716 14.8723L5.26817 14.8875V14.8944L5.25713 14.8917V14.9041L5.22676 14.9124V14.9193L5.21433 14.9151L5.20605 14.9276L5.19914 14.9262L5.19086 14.9386L5.05143 15.0753L5.039 15.0794L5.03072 15.1043L5.01691 15.107V15.1208L5.00173 15.125V15.1374L4.9893 15.1416V15.154L4.9755 15.1595V15.1705L4.96169 15.1761V15.1885L4.9396 15.1968V15.2106L4.92718 15.2147V15.2271L4.91337 15.2299V15.2368L4.89957 15.2423V15.2548L4.87057 15.2699V15.2824L4.82225 15.3127V15.3252L4.77255 15.3555L4.76565 15.3735L4.75323 15.3721L4.74632 15.3887L4.72424 15.3928L4.66073 15.4315L4.4785 15.6123L4.45227 15.6482V15.6606L4.43708 15.6634L4.43018 15.6896L4.41637 15.6938L4.41775 15.7062L4.40257 15.7103L4.39014 15.7283V15.7393L4.37496 15.7435L4.36391 15.7449L4.35011 15.7476V15.76L4.3363 15.7656V15.778L4.31421 15.7876L4.2797 15.8263V15.8401L4.26589 15.836L4.25761 15.8553L4.23828 15.8636V15.8774L4.20239 15.8967L4.06986 15.9961V16.0085L4.05743 16.0196L4.04086 16.0168L4.02844 16.0334L3.95665 16.0665L3.95941 16.0776L3.93732 16.0817L3.89453 16.0997L3.88072 16.1162L3.86691 16.1135L3.84483 16.1231L3.83792 16.1355L3.83378 16.1452L3.82826 16.1563L3.77994 16.1673V16.1811L3.75233 16.1825V16.188L3.73714 16.1852L3.73024 16.1963L3.71505 16.1935V16.2018L3.70263 16.1977L3.68744 16.2018L3.25947 16.4807L3.24705 16.4779L3.22358 16.5014L3.21115 16.4986V16.5042L3.19045 16.5152L3.18216 16.5262L3.16836 16.5221L3.16284 16.5359L3.14627 16.5318L3.13246 16.5483L3.11866 16.5456L3.10485 16.5635L3.07586 16.5649L3.06344 16.5815L3.04963 16.5801L3.04273 16.5897L3.01236 16.5911L3.00545 16.6036L2.97922 16.6049L2.97232 16.616L2.95713 16.6132L2.94333 16.6256L2.92952 16.6215V16.6284L2.91572 16.6256L2.90881 16.6381L2.87844 16.6394L2.8812 16.645L2.8674 16.6436V16.6477L2.8246 16.6546V16.6629L2.80251 16.656V16.6643L2.78871 16.6629V16.6671L2.74729 16.6726V16.6795L2.70449 16.6767V16.6836L2.68931 16.6809V16.6891L2.6258 16.6905V16.6947L2.612 16.6933V16.6988L2.58439 16.6947V16.7002L2.56368 16.6974V16.7043L2.54159 16.6988V16.7071L2.52088 16.703V16.7085L2.49327 16.7043L2.37454 16.714L2.30413 16.7071V16.714L1.87893 16.6546V16.6477L1.72845 16.6132L1.44405 16.5097V16.5014L1.35156 16.4655V16.46L1.33913 16.4572V16.4489L1.31704 16.4462V16.4393L1.27425 16.4255V16.4186L1.25906 16.4158V16.4103L1.23697 16.4048V16.3992L1.21074 16.3868V16.3813L1.19694 16.3785V16.3716L1.17485 16.3689V16.362L1.14585 16.3495V16.3426L1.13343 16.3412V16.3357L1.10996 16.3302L1.10444 16.315L1.08787 16.3136V16.3067L1.07545 16.304V16.2971L1.06026 16.2957V16.2888L1.04646 16.2846L1.03127 16.2708L1.01746 16.2667L1.01056 16.2529L0.967764 16.2308L0.960861 16.2184L0.93187 16.2073L0.918064 16.1839L0.904259 16.1811L0.894595 16.1673L0.88217 16.1645L0.88079 16.1576L0.860081 16.148L0.853179 16.1328L0.839373 16.13L0.825568 16.1079L0.810382 16.1052L0.803479 16.0914L0.788293 16.0886L0.774487 16.0665L0.760682 16.0651L0.73169 16.0265L0.717885 16.0237L0.681991 15.9782L0.668185 15.9754L0.575689 15.8677L0.517706 15.8097V15.7973L0.466625 15.7476V15.7352L0.440395 15.7103V15.6979L0.411403 15.6717L0.408642 15.6606L0.394837 15.651V15.6372L0.374129 15.6206V15.6082L0.358942 15.5985L0.35204 15.5778L0.345137 15.5764V15.564L0.329951 15.5543V15.5419L0.316145 15.5309V15.5184L0.303721 15.5088L0.288535 15.4674L0.273349 15.4591L0.259543 15.4177L0.244357 15.408L0.236074 15.3818L0.229171 15.379V15.3666L0.222268 15.3652V15.3514H0.213985V15.3376L0.209843 15.3362L0.207082 15.3224L0.200179 15.321V15.3017L0.184993 15.2934V15.2741L0.178091 15.2713L0.171188 15.2451H0.164285V15.2244H0.157382L0.15048 15.1954L0.143577 15.194L0.135294 15.154L0.12701 15.1512V15.1388L0.120108 15.1374V15.1112L0.113205 15.1098V15.0974L0.107683 15.096V15.0711L0.0980189 15.0684V15.0491L0.0911162 15.0477V15.027H0.0842134L0.0759301 14.98L0.0704079 14.9786L0.0621247 14.9193L0.0538414 14.9179V14.8917L0.0483192 14.8903V14.8627H0.0400359V14.824L0.0331332 14.8226L0.0248499 14.7288L0.0179471 14.7274L0 14.4775L0.00828329 14.4789L0.0179471 14.2401L0.0248499 14.2414V14.2014L0.0331332 14.2028V14.1641L0.0400359 14.1655L0.0455581 14.1075L0.0524608 14.1103L0.0510803 14.0771L0.0593636 14.0785L0.057983 14.0537H0.0662663L0.073169 14.0081L0.0786912 14.0123V13.9916H0.085594V13.9722L0.0938773 13.9736V13.9488H0.10078L0.0980189 13.935L0.107683 13.9363L0.120108 13.8797L0.12701 13.8811L0.135294 13.8576L0.140816 13.859L0.146338 13.819L0.156002 13.8231L0.169807 13.7859L0.178091 13.7886V13.7734L0.182232 13.7762L0.189135 13.7444L0.202941 13.7403L0.209843 13.7099L0.22641 13.7044L0.223649 13.692L0.238835 13.6823V13.6671L0.244357 13.6699V13.6575H0.25126V13.645L0.265065 13.6423L0.281632 13.6036L0.285773 13.605L0.292676 13.5871L0.307862 13.5843V13.5705L0.321668 13.5663V13.5539L0.343756 13.5443L0.350659 13.518L0.371367 13.5125V13.4973L0.390695 13.489V13.4752L0.425209 13.4559V13.4435L0.461103 13.4228V13.4103L0.487333 13.3965V13.3814L0.532892 13.3662V13.3524L0.581211 13.3234L0.588113 13.3109L0.601919 13.3123L0.617105 13.3027L0.615724 13.2889L0.684752 13.2557V13.2433L0.741354 13.2212L0.748257 13.2102L0.762062 13.2115L0.777249 13.195L0.791054 13.1991L0.80486 13.1812L0.820046 13.1826L0.825568 13.1729L0.846276 13.1687V13.1632L0.860081 13.166L0.868365 13.1536L0.88217 13.1577L0.889073 13.1453L0.904259 13.148L1.08511 13.0238L1.19003 12.9147H1.19832L1.24663 12.8664H1.25354V12.854L1.28115 12.8333L1.30186 12.8305L1.35156 12.7877L1.55588 12.6428V12.6303L1.56692 12.6138L1.58211 12.6027V12.5889L1.58901 12.5903V12.5779L1.60282 12.5737V12.5613L1.618 12.5503L1.61524 12.5378L1.62905 12.5337V12.5199L1.64423 12.5171V12.5033L1.65804 12.4868L1.67322 12.4826L1.70774 12.444L1.74915 12.3998V12.386L1.76434 12.3887L1.80162 12.3694L1.80714 12.3708V12.3584L1.83337 12.3432V12.3363L1.84717 12.3335V12.3211L1.89135 12.2949L1.9728 12.2065L1.98661 12.2079L2.03079 12.1706L2.04459 12.1734L2.05564 12.1361L2.07082 12.1402L2.09981 12.1112L2.11362 12.114L2.12052 12.103L2.13571 12.1043L2.14813 12.0878L2.2075 12.0464L2.2213 12.0367L2.22958 12.0326L2.28619 11.9718L2.29171 11.9456L2.29861 11.947L2.3069 11.929L2.3207 11.9263V11.9124L2.33313 11.9097V11.8959L2.3635 11.8807L2.36902 11.8558L2.38283 11.8517L2.38973 11.8351L2.42562 11.8144V11.802L2.46014 11.7827V11.7689L2.52916 11.7233L2.53607 11.7054L2.80389 11.4293L2.81908 11.4265L2.83288 11.3906L2.84807 11.3851L2.8605 11.3478L2.8674 11.3492L2.8743 11.3312L2.88811 11.3271L2.89501 11.3022L2.91572 11.294L2.92262 11.2691L2.94333 11.2594V11.247L2.96542 11.2387V11.2236L2.97922 11.2208V11.207L3.01512 11.1877L3.01236 11.1752L3.04963 11.1545V11.1435L3.35197 10.7128L3.36025 10.6989L3.37544 10.6962L3.38234 10.67L3.39753 10.6672L3.40443 10.641L3.41824 10.6382V10.6244L3.43204 10.6203L3.43066 10.6065L3.44447 10.6037V10.5899L3.45965 10.5871V10.5747L3.47898 10.5637V10.5526L3.50107 10.5416L3.49969 10.5291L3.53696 10.5112V10.496L3.57148 10.4781V10.4656L3.60047 10.4504L3.59909 10.4366L3.61427 10.427L3.62808 10.4297" fill="#00B9AD"/>
<path d="M8.96126 10.1259L8.98197 10.0514L8.99577 10.0541L9.01648 9.96716L9.03029 9.96026L9.03719 9.94369H9.04409L9.05237 9.92574L9.06618 9.92712L9.09517 9.88157L9.10898 9.88433L9.13521 9.82911L9.15039 9.83187L9.178 9.77112L9.19319 9.77388L9.22218 9.72695V9.70624L9.23599 9.70348L9.23461 9.68415L9.24703 9.68001L9.25531 9.64687L9.26222 9.64963V9.63583L9.2774 9.63307L9.28431 9.59303L9.29811 9.59717L9.30501 9.55162L9.31744 9.54747L9.32572 9.49639L9.33953 9.49225L9.34643 9.43979L9.36162 9.43703V9.4039L9.36576 9.40528V9.38043L9.38232 9.37491L9.38785 9.29759L9.40165 9.29207L9.40027 9.23961L9.40717 9.24099V9.22166L9.41408 9.22304L9.42236 9.19267L9.42926 9.19405L9.44307 9.18853L9.44997 9.15816L9.47068 9.1554L9.4693 9.13607L9.4831 9.13745L9.49277 9.1057L9.51486 9.10432L9.5121 9.08361L9.5259 9.08637L9.54109 9.04357L9.55489 9.04633L9.56318 9.00768L9.57698 9.01044L9.6253 8.90138L9.63911 8.90414L9.64601 8.86548L9.65981 8.86824L9.6681 8.82407L9.68052 8.82683L9.68742 8.76884L9.70123 8.77161L9.72194 8.68187L9.73022 8.68325L9.73712 8.61836L9.74955 8.6156L9.75507 8.52449L9.77164 8.52035V8.49412H9.77854L9.79787 8.4527L9.81305 8.45546L9.83376 8.44027L9.86966 8.36711L9.88208 8.36987L9.91107 8.30774L9.92488 8.31188L10.1182 7.76242L10.1264 7.76381L10.132 7.75H10.1389V7.76381H10.1458V7.77899H10.1527V7.79142L10.1596 7.7928V7.8066L10.1679 7.80798V7.82041L10.1748 7.82179V7.83559L10.1817 7.83697V7.8494L10.1886 7.85078L10.2037 7.8922L10.2107 7.89496L10.3404 8.11861V8.13379L10.368 8.15864V8.17107L10.3901 8.18763V8.20006L10.4122 8.21801V8.23181L10.426 8.24009V8.2539L10.4412 8.26218L10.4481 8.28427H10.455V8.29808L10.4702 8.31188V8.32569L10.4771 8.32707V8.34226L10.4923 8.34916L10.4992 8.37677L10.5047 8.37953L10.5199 8.42095L10.5282 8.42233V8.44304H10.5351L10.542 8.46927L10.5489 8.47203L10.6731 8.64321V8.65702L10.7076 8.68877V8.70258L10.7366 8.72743V8.73985L10.7573 8.75642V8.76884L10.7725 8.77989V8.79369L10.7932 8.81026V8.82407L10.8084 8.83097L10.8153 8.85996L10.8291 8.86824L10.8443 8.90966L10.8581 8.92071L10.865 8.94694L10.8719 8.94832L10.8816 8.97593H10.8885V8.99664H10.8954L10.9037 9.02563L10.9092 9.02701L10.9161 9.06014L10.9244 9.06152L11.0459 9.23409V9.24789L11.0818 9.27965V9.29207L11.1039 9.31002V9.32244L11.1232 9.34039V9.35282L11.1384 9.3611L11.148 9.38319L11.1549 9.38457V9.39699L11.1688 9.40528L11.1757 9.43427L11.1881 9.44255L11.2046 9.48535H11.2115V9.49777L11.2185 9.49915V9.51434H11.2267V9.52815L11.2336 9.52953L11.2474 9.57094L11.2543 9.57232V9.59165L11.2612 9.59303V9.60546L11.2682 9.60684L11.2709 9.62617L11.2778 9.62755V9.64135L11.2847 9.64273V9.66068L11.2916 9.66344V9.68139L11.2985 9.68415V9.70348L11.3054 9.70486L11.3482 9.77112L11.3841 9.82358L11.391 9.82496L11.3993 9.84567L11.42 9.86362V9.87466L11.4366 9.88571V9.89813L11.4559 9.9147V9.92712L11.4697 9.93679L11.478 9.95888H11.4849L11.4932 9.98649L11.5084 9.99753V10.01L11.5222 10.0251V10.0389H11.5305V10.0528L11.5346 10.0541L11.536 10.0679L11.5512 10.0762V10.0956L11.5581 10.0969V10.1094L11.565 10.1121L11.5719 10.1383L11.5788 10.1397V10.1604H11.5857V10.1742H11.5926L11.6022 10.2101H11.6091V10.2295L11.616 10.2308L11.7016 10.3841L11.7293 10.4076V10.4227L11.7527 10.4393V10.4517L11.7665 10.4614V10.4738L11.8162 10.5553L11.83 10.5636V10.5774L11.8466 10.5939V10.605L11.8535 10.6077V10.6202L11.8618 10.6215V10.6367H11.8687V10.6478L11.8742 10.6492L11.8894 10.6919L11.8963 10.6947L12.0178 10.8659L12.033 10.8894H12.0399V10.9018L12.0702 10.9253V10.9404L12.0896 10.9584V10.9708L12.113 10.9874V10.9998L12.1269 11.0109V11.0233L12.1407 11.0316L12.1489 11.0523L12.1558 11.0537L12.1627 11.0826L12.1766 11.0909L12.1835 11.1185L12.2193 11.1889H12.2304L12.229 11.1958L12.2069 11.2055V11.211L12.1945 11.2097V11.2166L12.1779 11.2124L12.1669 11.2304L12.1572 11.229V11.2428L12.1531 11.2414L12.142 11.2525L12.1296 11.2511L12.1227 11.269L12.102 11.2856L12.0923 11.2828V11.2911L12.0799 11.287V11.2939L12.0592 11.3035V11.316L12.0454 11.3215V11.3339L12.0164 11.3491L11.9805 11.3753V11.3877L11.9736 11.3864V11.4002L11.9529 11.4098V11.4154L11.9377 11.414L11.9308 11.4264L11.9018 11.4278L11.83 11.4471L11.8093 11.4623V11.4692L11.7955 11.4664V11.472L11.7803 11.4692L11.7665 11.4871L11.7527 11.4858L11.7444 11.4954H11.7293L11.6878 11.5313L11.674 11.5299L11.6519 11.552L11.6312 11.5548L11.623 11.5727L11.6022 11.5755V11.5893L11.5802 11.6059L11.5746 11.6031V11.61L11.5525 11.6142L11.547 11.6238L11.5236 11.6211L11.518 11.6335L11.5042 11.6307V11.6376L11.489 11.6349V11.6404L11.46 11.6349V11.6418L11.4159 11.6473V11.6542L11.3952 11.65L11.3965 11.6583L11.3827 11.6542L11.3745 11.6666L11.3455 11.668L11.2709 11.7163L11.1729 11.7633L11.01 11.8433L10.9879 11.8585L10.9037 11.9358L10.883 11.951L10.8181 11.9593L10.8043 11.9759L10.7394 11.9841L10.7325 11.9966H10.7035L10.6911 12.0145L10.6759 12.0131L10.669 12.0242L10.6386 12.0256L10.6248 12.0421L10.5972 12.0573L10.5834 12.0545V12.067L10.5696 12.0642L10.5544 12.0835L10.5378 12.0794L10.5406 12.0863L10.5254 12.0835V12.0891L10.5102 12.0946L10.5116 12.107L10.4978 12.1112V12.1181L10.4688 12.1194L10.4619 12.1291L10.3156 12.1429L10.2327 12.038L10.2107 12.0214L10.2037 12.0021L10.1734 11.9759V11.9634L10.1527 11.9441V11.9344L10.1292 11.9151V11.9027L10.1154 11.893V11.8792L10.1002 11.8709L10.0933 11.8447L10.0795 11.8337L10.0726 11.8074L10.0657 11.8061L10.0588 11.7784L10.0519 11.7757V11.7646L10.0436 11.7619L10.0312 11.7481L10.027 11.7467L9.96077 11.6583L9.90831 11.5948V11.5865L9.87794 11.5631V11.552L9.80891 11.4775V11.4651L9.79097 11.4416V11.4292L9.77716 11.4195V11.4071L9.75921 11.3974V11.3864L9.74679 11.3753V11.3629L9.73298 11.3546V11.3408L9.7178 11.3311V11.3173H9.71089L9.70261 11.2897L9.68881 11.2801L9.68052 11.2525H9.675L9.64739 11.2083L9.64049 11.2069V11.1862H9.63496L9.62668 11.1572L9.6184 11.1558L9.4831 10.9681V10.9556L9.44859 10.9239V10.9101L9.4265 10.8935V10.8797L9.40441 10.8631V10.8507L9.39061 10.8424V10.8272L9.3768 10.819L9.36714 10.7983L9.36162 10.7969L9.34643 10.7541L9.33262 10.7458L9.18905 10.4918L9.18076 10.4697L9.12416 10.4145V10.4007L9.09517 10.3772V10.3634L9.06618 10.3385V10.3247L9.05237 10.3151L9.04409 10.2944H9.03719V10.2819L9.02338 10.2723V10.2585L9.0082 10.2502V10.2364L8.99577 10.2267V10.2157L8.9585 10.1632V10.1577L8.96264 10.1591L8.96126 10.1259Z" fill="#B2C23E"/>
<path d="M10.1318 7.72656V7.73484L10.1235 7.72656H10.1318Z" fill="#81BB45"/>
<path d="M8.95816 10.1551H8.95264V10.1523L8.95816 10.1537V10.1551Z" fill="#81BB45"/>
<path d="M8.92378 10.0997V10.0804L8.91687 10.079V10.0652L8.90997 10.0638V10.0514L8.89617 10.0417V10.0293L8.85889 9.9948V9.98789L8.83818 9.97823V9.96442L8.823 9.96304L8.81609 9.94372L8.76501 9.89264V9.87883L8.7374 9.85398V9.84155L8.70703 9.8167V9.8029L8.68632 9.78495V9.77115H8.67804L8.67114 9.75044L8.64905 9.73387L8.63662 9.69246L8.62006 9.68141V9.66899L8.60625 9.6538V9.63861H8.59935V9.62343H8.59106V9.611L8.58416 9.60962V9.59582L8.57588 9.59444V9.58201L8.57036 9.57925L8.55517 9.53783L8.54827 9.53645V9.51713L8.53998 9.51575V9.50332L8.5317 9.49918L8.45163 9.38735V9.37493L8.4392 9.36527V9.35836L8.4254 9.3556L8.41711 9.3418L8.39503 9.32523V9.31004L8.36465 9.28657V9.27139L8.33566 9.24792V9.23411L8.32324 9.22583L8.31495 9.19822L8.29977 9.18856V9.17475L8.28596 9.16509L8.27216 9.12367L8.25697 9.11401L8.24869 9.0864L8.2335 9.07673V9.0574L8.22798 9.05602V9.0436L8.2197 9.04222V9.02841L8.21279 9.02703V9.01461L8.20727 9.01185L8.1907 8.97043L8.1838 8.96905V8.94972L8.1769 8.94834V8.93454L8.16862 8.93315L8.05955 8.74816V8.73712L8.02366 8.70398V8.6888L7.99467 8.66533L7.98776 8.64324L7.97396 8.63358L7.96429 8.60735L7.94359 8.5894L7.9284 8.5466L7.91459 8.53832V8.52589L7.90079 8.50795V8.4969L7.89113 8.49414V8.48033H7.88698V8.46791L7.88008 8.46515V8.45272L7.8718 8.45134L7.85661 8.40855L7.84833 8.40717L7.84143 8.36575H7.83452L7.82762 8.35056L7.82072 8.32847L7.77516 8.2415L7.75307 8.20561L7.73926 8.20423V8.19732L7.71856 8.17938V8.16557L7.70199 8.15591V8.14348L7.6799 8.12553V8.11449L7.66748 8.11173L7.65919 8.08964L7.65229 8.08826L7.64539 8.06755L7.6302 8.05789L7.62192 8.03028L7.60259 8.01233L7.58878 7.97091L7.57222 7.96125V7.94882L7.55703 7.93226V7.91983H7.55151V7.90465H7.54461V7.89084L7.53632 7.88808L7.53494 7.87427H7.52942V7.86185L7.52252 7.86047L7.50595 7.81767H7.49905V7.79834L7.49215 7.79558V7.77626L7.48524 7.77488V7.75417H7.47696V7.73346H7.47006V7.71413L7.46315 7.71137V7.69204L7.45763 7.68928L7.45487 7.66995L7.44935 7.66857L7.44659 7.64372L7.43969 7.64096V7.61473L7.43278 7.61335L7.4314 7.5885L7.42588 7.58712L7.4176 7.50705L7.40931 7.50429L7.40103 7.37037H7.39551L7.39965 7.21989L7.40793 7.22128L7.41898 7.0915L7.488 6.88856H7.49491L7.51009 6.85129L7.517 6.85267V6.84024L7.5239 6.84162V6.82782L7.5308 6.8292V6.81816H7.53909V6.80573H7.54599V6.79331L7.55979 6.78226L7.55703 6.76846L7.57222 6.76293L7.58878 6.72842L7.60811 6.71876L7.61363 6.69391L7.62882 6.68976L7.63572 6.67182H7.64401L7.65091 6.65387L7.6661 6.65801L7.6799 6.63316L7.68404 6.63454V6.62074L7.71994 6.58898L7.73512 6.59175V6.58346L7.74893 6.5807V6.5669L7.77102 6.56552V6.55171L7.79863 6.54481L7.83452 6.51029L7.84695 6.51305V6.50753L7.88422 6.49373L7.88284 6.4813L7.90355 6.47716V6.47164L7.92702 6.46888L7.93116 6.45783L7.96153 6.45507L7.97672 6.43989L8.01814 6.43298L8.02642 6.42056L8.03884 6.4247L8.05403 6.41366L8.06922 6.41642V6.40951L8.08302 6.41227V6.40537L8.09683 6.40813L8.10373 6.39709L8.13272 6.39433V6.39019L8.17276 6.38328V6.37638L8.19623 6.38052L8.62558 6.375L8.85475 6.4247V6.42884L8.93206 6.45093L9.09773 6.52824L9.14052 6.54205V6.54895L9.15433 6.55171V6.55861L9.21921 6.59037L9.22612 6.60555L9.23992 6.60831L9.25511 6.6235L9.27029 6.62626V6.63316L9.2841 6.63454L9.29238 6.64973L9.30619 6.65249V6.65939L9.31861 6.66077L9.33656 6.67872L9.34899 6.6801V6.687L9.37107 6.69667L9.37798 6.71185L9.42215 6.73256L9.42906 6.74775L9.45115 6.75741V6.76293L9.47047 6.77536V6.7864L9.50637 6.81539V6.82092L9.52294 6.82368L9.55883 6.86924L9.58782 6.88856V6.90099L9.60163 6.90375L9.60853 6.92446L9.65961 6.97416V6.98796L9.68032 7.00453V7.01695L9.70241 7.0349V7.04733L9.71759 7.05699L9.7245 7.07908L9.75349 7.10255V7.11635L9.77696 7.1343L9.79076 7.17572L9.80457 7.18538V7.19919L9.81975 7.21437V7.2268L9.82527 7.22818V7.24198L9.83356 7.24336V7.25579L9.84184 7.25855V7.27098L9.84736 7.27236V7.28616H9.85703L9.87774 7.33034L10.0089 7.55813V7.57055L10.0158 7.57332L10.031 7.5954L10.0531 7.61197V7.62578L10.0669 7.63544V7.64925L10.089 7.66443L10.0959 7.69342L10.1166 7.70999L10.1235 7.72656V7.72932L10.1318 7.7376V7.75003L10.1262 7.76383L10.118 7.76245L9.92467 8.31191L9.91087 8.30777L9.88188 8.36989L9.86945 8.36713L9.83356 8.4403L9.74935 8.61563L9.73692 8.61839L9.73002 8.68328L9.72173 8.68189L9.70103 8.77163L9.68722 8.76887L9.68032 8.82685L9.66789 8.82409L9.65961 8.86827L9.6458 8.86551L9.6389 8.90416L9.6251 8.9014L9.57678 9.01047L9.56297 9.0077L9.55469 9.04636L9.54088 9.0436L9.5257 9.0864L9.51465 9.10434L9.4829 9.13748L9.47047 9.15542L9.40145 9.2921L9.38212 9.37493L9.36555 9.38045V9.4053L9.36141 9.40392V9.43705L9.34622 9.43982L9.33932 9.49228L9.32552 9.49642L9.31723 9.5475L9.30481 9.55164L9.29791 9.5972L9.2841 9.59306L9.2772 9.63309L9.26201 9.63585V9.64966L9.25511 9.6469L9.24683 9.68003L9.2344 9.68417L9.23578 9.7035L9.22198 9.70626V9.72697L9.19298 9.77391L9.1778 9.77115L9.15019 9.83189L9.135 9.82913L9.10877 9.88435L8.99557 10.0542L8.96105 10.1259L8.96243 10.1591L8.95829 10.1577V10.1563L8.95277 10.1549L8.93206 10.1011L8.92378 10.0997Z" fill="#009194"/>
<path d="M14.6864 12.9665L14.6906 12.9734L14.6795 12.9706L14.6768 12.9623L14.6864 12.9609V12.9665Z" fill="#81BB45"/>
<path d="M16.053 10.8798L16.0599 10.8812V10.8964L16.0337 10.8633L16.053 10.8798Z" fill="#81BB45"/>
<path d="M14.6478 12.9319L14.6423 12.9043L14.6202 12.8878L14.6133 12.8532L14.6064 12.8519L14.5761 12.8063L14.4836 12.7428V12.729L14.4615 12.7193L14.4546 12.7041L14.438 12.7028L14.4173 12.6724L14.4021 12.6696L14.3676 12.6282L14.351 12.6061L14.3386 12.6034L14.3151 12.5661L14.3013 12.5647L14.2654 12.5122L14.2571 12.5095V12.4957L14.213 12.4556V12.4432L14.2005 12.4322V12.4184L14.1854 12.4101V12.3977L14.1564 12.3839L14.1039 12.2707L14.0915 12.2665L14.0294 12.1312L14.0156 12.1202V12.1077L14.0087 12.1064L14.0017 12.0649L13.9935 12.0636V12.0442L13.9866 12.0429V12.0235L13.9797 12.0222V12.0028L13.9728 12.0014L13.9714 11.9738H13.9659L13.9562 11.931L13.9493 11.9297V11.9172L13.9424 11.9145V11.8896L13.9355 11.8882L13.9341 11.8482L13.9272 11.8468L13.9258 11.8123H13.9203L13.9189 11.7585L13.912 11.7571L13.8057 11.3954L13.7988 11.3277L13.7919 11.3264V11.3126H13.785L13.7836 11.2656L13.7684 11.2546V11.1842L13.7532 11.1759L13.7505 10.9674L13.7657 10.966V10.8901L13.7795 10.8942L13.785 10.8307H13.7919V10.8045L13.7988 10.8059V10.7714L13.8126 10.7686V10.7424L13.8278 10.7396L13.8347 10.6941L13.8499 10.6968L13.8678 10.6264L13.883 10.6292V10.6099L13.8968 10.6126L13.9548 10.5243L13.9686 10.527L13.9907 10.4842L14.0045 10.487V10.4732L14.0183 10.4746L14.0542 10.429L14.0666 10.4318V10.418L14.0915 10.4235L14.1122 10.4069L14.1094 10.3945L14.1246 10.3972V10.3834L14.1384 10.3862L14.1536 10.3696L14.166 10.371L14.1743 10.36L14.195 10.3558V10.3434L14.2309 10.3241L14.2958 10.3158V10.3034L14.3676 10.2978V10.2827L14.4311 10.2744L14.4546 10.2799V10.273L14.4684 10.2744V10.2675L14.4946 10.273L14.5043 10.262L14.5816 10.2702L14.5871 10.2578L14.6534 10.2702L14.6617 10.2578L14.7749 10.2799L14.7914 10.2744L14.9833 10.3186V10.3324L15.1435 10.3807V10.3945L15.1794 10.4V10.4138L15.2967 10.4497L15.5783 10.6016L15.6267 10.6292V10.6361L15.6556 10.6416L15.6625 10.654L15.6915 10.6609V10.6678L15.7122 10.672V10.6775L15.7357 10.6816V10.6899L15.7647 10.6941V10.701L15.8655 10.7451V10.759L16.0077 10.839V10.8514L16.0339 10.8625L16.0601 10.8956V10.8998L16.0753 10.9039L16.0822 10.9384H16.0905V10.966L16.096 10.9674V10.9785L16.1057 10.9812V11.0019H16.1126V11.0309H16.1195V11.0433L16.1264 11.0447V11.0779L16.1416 11.0861L16.143 11.1345L16.1568 11.1441V11.2049L16.1706 11.2104L16.172 11.3236L16.1885 11.4147L16.1816 11.4106V11.4382L16.1747 11.4368V11.5514L16.1609 11.5541V11.6135L16.1485 11.6163V11.6632L16.1333 11.6674V11.7019L16.1264 11.7005V11.7129L16.1195 11.7115V11.7378L16.114 11.7364V11.7502L16.1071 11.7488L16.0988 11.7944L16.0919 11.7916L16.0864 11.8234L16.0712 11.822V11.8482L16.0574 11.8454V11.8717L16.0422 11.8689L16.0298 11.9131L16.0146 11.9103L16.0022 11.9462L15.9801 11.9559V11.9766L15.9511 12.0111L15.9359 12.0083L15.9373 12.0208L15.9235 12.0194V12.0332L15.911 12.0291L15.8586 12.0926L15.8448 12.0912V12.1036L15.7799 12.1312V12.1436L15.7371 12.1561V12.1699L15.617 12.2596L15.6018 12.2568L15.6032 12.2776L15.5894 12.2803V12.2941L15.5659 12.3038V12.3148L15.5438 12.3259V12.3383L15.5176 12.3535L15.5038 12.37V12.3839L15.49 12.3811L15.461 12.4087L15.4541 12.4073V12.4211L15.432 12.4294L15.4251 12.4418L15.4113 12.4391L15.1835 12.6075L15.1766 12.6061L15.1697 12.6255L15.1559 12.6296V12.642L15.1421 12.6462V12.66L15.1269 12.6641V12.6765L15.1048 12.6862V12.7014L15.0841 12.7083L15.0772 12.7276L15.0482 12.7428L15.0054 12.7745L15.0068 12.787L14.9833 12.7911L14.9419 12.8298L14.9281 12.8256L14.9198 12.8381L14.906 12.8339L14.8867 12.8574L14.8632 12.8601L14.8549 12.8726L14.8439 12.8698L14.8342 12.8809L14.8218 12.8795L14.8149 12.8905L14.8011 12.8878V12.8947L14.7804 12.8974L14.7721 12.9098L14.7569 12.9071L14.7431 12.9236L14.7293 12.9209L14.6906 12.9595L14.6934 12.9733H14.6906L14.6865 12.9664V12.9609L14.6768 12.9623L14.6575 12.9333L14.6478 12.9319Z" fill="#59B35A"/>
<path d="M10.3143 12.1434L10.3115 12.1406H10.3157L10.3184 12.1434H10.3143Z" fill="#81BB45"/>
<path d="M10.4686 12.118L10.4976 12.1166V12.1097L10.5114 12.1056L10.51 12.0931L10.5252 12.0876V12.0821L10.5404 12.0849L10.5376 12.078L10.5542 12.0821L10.5694 12.0628L10.5832 12.0655V12.0531L10.597 12.0559L10.6246 12.0407L10.6384 12.0241L10.6688 12.0227L10.6757 12.0117L10.6909 12.0131L10.7033 11.9951H10.7323L10.7392 11.9827L10.8041 11.9744L10.8179 11.9578L10.8828 11.9496L10.9035 11.9344L10.9877 11.8571L11.0098 11.8419L11.1382 11.7659L11.1616 11.7701V11.7577L11.2596 11.7107L11.3452 11.6665L11.3742 11.6652L11.3825 11.6527L11.3963 11.6569L11.3949 11.6486L11.4156 11.6527V11.6458L11.4598 11.6403V11.6334L11.4888 11.6389V11.6334L11.504 11.6362V11.6293L11.5178 11.632L11.5233 11.6196L11.5468 11.6224L11.5523 11.6127L11.5744 11.6086V11.6017L11.5799 11.6044L11.602 11.5879V11.5741L11.6227 11.5713L11.631 11.5533L11.6517 11.5506L11.6738 11.5285L11.6876 11.5299L11.729 11.494H11.7442L11.7525 11.4843L11.7663 11.4857L11.7801 11.4678L11.7953 11.4705V11.465L11.8091 11.4678V11.4608L11.8298 11.4457L11.9016 11.4263L12.0162 11.3476L12.0452 11.3325V11.32L12.059 11.3145V11.3021L12.0797 11.2924V11.2855L12.0921 11.2897V11.2814L12.1018 11.2841L12.1225 11.2676L12.1294 11.2496L12.1418 11.251L12.1529 11.24L12.157 11.2413V11.2275L12.1667 11.2289L12.1777 11.211L12.1943 11.2151V11.2082L12.2067 11.2096V11.2041L12.2288 11.1944L12.2302 11.1875H12.2357V11.1889V11.2041L12.2661 11.222V11.2344L12.3227 11.2786V11.2924L12.3378 11.2938V11.3076L12.353 11.3117V11.3228L12.3668 11.3269L12.3682 11.3394L12.382 11.3435L12.4165 11.4015L12.4317 11.4042L12.4483 11.4388L12.4635 11.4443V11.4553L12.4759 11.4581L12.527 11.5395L12.6305 11.6527V11.6665L12.6581 11.6776V11.69L12.694 11.7107V11.7232L12.7078 11.7259V11.7397L12.723 11.7425L12.7244 11.7563L12.7603 11.7949L12.7755 11.7977V11.8115L12.7893 11.8143V11.8267L12.8031 11.8295L12.8542 11.9123L12.8694 11.9137V11.9289L12.8832 11.9302V11.9496L12.897 11.9537L13.0861 12.1663V12.1801L13.1013 12.1829L13.1234 12.2188L13.1372 12.2215L13.1386 12.2367L13.1524 12.2395L13.1745 12.2754L13.1883 12.2768V12.2919L13.2021 12.2933L13.2255 12.3444L13.2407 12.3472V12.3623L13.2545 12.3637L13.2766 12.412L13.2904 12.4162V12.4355L13.3042 12.4383L13.3125 12.459L13.3194 12.4604L13.3277 12.4949L13.3415 12.5045V12.5183L13.3567 12.528V12.5473L13.3719 12.5556L13.3788 12.5984L13.394 12.6053V12.6343H13.3995L13.4078 12.6688L13.423 12.6716L13.4312 12.7392L13.4381 12.742V12.7544H13.445V12.7945L13.4602 12.8041L13.4975 12.9311L13.5127 12.9325L13.5265 12.9891L13.5403 12.9905L13.55 13.0388L13.5638 13.0416L13.5721 13.1092L13.5859 13.1134L13.6093 13.3467H13.6024L13.6052 13.4516L13.5969 13.4502V13.4972L13.59 13.4958V13.5358L13.5776 13.5386L13.5721 13.591L13.5569 13.5883L13.5224 13.6932L13.5058 13.6904L13.452 13.7885L13.4368 13.7912L13.4285 13.7898L13.4299 13.8092L13.4147 13.8078V13.8147L13.3871 13.8299L13.365 13.8437L13.3677 13.8644L13.3153 13.8796V13.892L13.3125 13.8906L13.3098 13.8934H13.3084L13.2959 13.9003H13.2904L13.278 13.9099L13.2642 13.9086V13.9141L13.249 13.9113V13.9182L13.2352 13.9155L13.2283 13.9279L13.1855 13.9334L13.1772 13.9445L13.1648 13.9417L13.1579 13.9541L13.1206 13.9748L13.1013 13.9734V13.9873L12.9729 13.9955V14.008L12.8348 13.9969V14.0038L12.821 14.0011V14.0066L12.7285 13.9914L12.4704 13.9155V13.9017L12.4124 13.8865L12.4055 13.8713L12.3889 13.8685V13.8602L12.353 13.8547V13.8464L12.3309 13.8437V13.8368L12.2605 13.8257L12.2536 13.8105L12.1736 13.7954L12.1667 13.7815L12.1156 13.7705V13.765L12.088 13.7595V13.7526L12.0673 13.7484V13.7415L12.0286 13.736L12.0217 13.7208L11.9858 13.7125V13.7015L11.9568 13.6946L11.9499 13.6808L11.9002 13.6656V13.6518L11.8698 13.6463V13.6325L11.8409 13.6214V13.6159L11.8188 13.609V13.6035L11.7842 13.5841V13.5703L11.7608 13.5662V13.5538L11.6462 13.4516L11.6324 13.4502V13.4364L11.5951 13.3964L11.5799 13.395V13.3812L11.5675 13.3784V13.366L11.4281 13.2542L11.3991 13.2335L11.3936 13.221L11.3784 13.2169V13.2114L11.3632 13.2086V13.2031L11.3342 13.1782L11.2389 13.1134V13.1009L11.2265 13.0982V13.083L11.2044 13.0802V13.0664L11.1879 13.0637V13.0512L11.1105 12.9643L11.0954 12.9615V12.9477L10.9559 12.8041V12.7903L10.9297 12.7848V12.7724L10.9062 12.7599V12.7544L10.8924 12.7517L10.8841 12.7379L10.8634 12.7323L10.8551 12.7185L10.8054 12.6895V12.6757L10.7916 12.673V12.6592L10.7544 12.6398V12.6274L10.7406 12.6233L10.7392 12.6095L10.6812 12.5667V12.5529L10.666 12.5515L10.6315 12.4921L10.6163 12.488V12.4756L10.6025 12.4728L10.5859 12.4369L10.5721 12.4341V12.4217L10.5583 12.4176V12.3996L10.5445 12.3886V12.3762L10.5376 12.3748L10.5224 12.3389L10.5059 12.3361V12.3168L10.4921 12.3126L10.47 12.2906L10.4631 12.2754V12.2698L10.4424 12.2643V12.2505L10.383 12.2146V12.2022L10.3264 12.1635V12.1511L10.314 12.1442H10.3181L10.3153 12.1415L10.4617 12.1277L10.4686 12.118Z" fill="#5CA038"/>
</g>
<defs>
<clipPath id="clip0_269_13084">
<rect width="20" height="12.4249" fill="white" transform="translate(0 4.28906)"/>
</clipPath>
</defs>
</svg>
