<svg width="20" height="21" viewBox="0 0 20 21" fill="none" xmlns="http://www.w3.org/2000/svg">
<path d="M13.5505 1.5L10.0003 3.28546L6.4502 1.5L10.0003 8.24736L13.5505 1.5Z" fill="#FFB71B"/>
<path d="M14.8315 6.2884L17.4512 5.19328V1.5L12.899 3.45401L10.3652 8.22091C11.34 8.33329 12.2348 8.8142 12.8664 9.56511C13.4981 10.316 13.8186 11.2801 13.7623 12.2597C13.706 13.2393 13.2772 14.1603 12.5638 14.8339C11.8503 15.5075 10.9063 15.8828 9.92505 15.8828C8.94383 15.8828 7.99977 15.5075 7.28633 14.8339C6.57288 14.1603 6.14408 13.2393 6.0878 12.2597C6.03152 11.2801 6.35198 10.316 6.98358 9.56511C7.61519 8.8142 8.51006 8.33329 9.48483 8.22091L6.95108 3.45401L2.42041 1.5V5.19328L5.08298 6.2884C3.92821 7.29778 3.10891 8.63545 2.73442 10.1228C2.35994 11.6101 2.44808 13.1762 2.98717 14.6121C3.52626 16.048 4.49059 17.2852 5.75138 18.1586C7.01216 19.0319 8.5094 19.4999 10.0431 19.4999C11.5769 19.4999 13.0741 19.0319 14.3349 18.1586C15.5957 17.2852 16.56 16.048 17.0991 14.6121C17.6382 13.1762 17.7264 11.6101 17.3519 10.1228C16.9774 8.63545 16.1581 7.29778 15.0033 6.2884H14.8315Z" fill="#FFB71B"/>
</svg>
