<svg width="20" height="21" viewBox="0 0 20 21" fill="none" xmlns="http://www.w3.org/2000/svg">
<g clip-path="url(#clip0_269_13054)">
<path fill-rule="evenodd" clip-rule="evenodd" d="M14.0097 17.206C14.5461 17.4772 14.7805 17.5555 15.055 17.5555H15.0557C15.2039 17.5555 15.3622 17.5316 15.5822 17.4982L15.584 17.4979C15.6844 17.4825 15.7969 17.4658 15.9262 17.4484L15.9289 17.4665L17.848 16.3583C18.4821 15.9913 18.9984 15.0974 18.9984 14.3648V8.95703L18.8959 9.21684C18.6636 9.80945 18.614 9.93534 17.8694 10.4235L10.0469 14.9321L14.0097 17.206Z" fill="url(#paint0_linear_269_13054)"/>
<path fill-rule="evenodd" clip-rule="evenodd" d="M2.15284 16.3593L6.84147 19.0666L6.84281 19.0679L6.64125 18.8135L6.64021 18.8122C6.24402 18.3151 6.15976 18.2094 6.10891 17.3189V17.2908L6.12096 8.26172L2.1602 10.5411C1.40354 11.0359 1.35466 11.1598 1.12096 11.7558C1.11112 11.7805 1.101 11.8061 1.09052 11.8326C1.06464 11.898 1.03658 11.969 1.00512 12.0457L1.00244 12.0517V14.3666C1.00244 15.0991 1.51804 15.9931 2.15284 16.3593Z" fill="url(#paint1_linear_269_13054)"/>
<path fill-rule="evenodd" clip-rule="evenodd" d="M6.08677 3.76369L13.9266 8.303L13.9326 3.69004C13.8824 2.7874 13.7994 2.68294 13.4003 2.18274C13.3896 2.16927 13.3786 2.15549 13.3673 2.14137C13.3293 2.09374 13.2883 2.04233 13.2449 1.98654L13.2409 1.98118L11.1504 0.773872C10.8444 0.597094 10.4359 0.5 9.99999 0.5C9.56407 0.5 9.15494 0.597094 8.84893 0.773872L4.12012 3.54339L4.28685 3.52062C4.3454 3.5127 4.38284 3.50477 4.41789 3.49735C4.42132 3.49662 4.42473 3.4959 4.42814 3.49518C4.4576 3.48848 4.4864 3.48246 4.5259 3.47643C4.74888 3.44295 4.90959 3.41884 5.05758 3.41884C5.32542 3.41884 5.55711 3.49652 6.08677 3.76369Z" fill="url(#paint2_linear_269_13054)"/>
<path fill-rule="evenodd" clip-rule="evenodd" d="M8.84998 20.2256C9.15599 20.4023 9.56445 20.4994 10.0004 20.4994L9.99903 20.4988C10.4356 20.4988 10.8441 20.4017 11.1501 20.2249L15.9706 17.442L15.7992 17.4667C15.7202 17.4781 15.6479 17.4888 15.5809 17.4989C15.3579 17.5324 15.1972 17.5565 15.0493 17.5565C14.7821 17.5565 14.5504 17.4795 14.0201 17.2116L9.99234 14.9001L6.11394 12.6328L6.10791 17.3047C6.15813 18.2073 6.24116 18.3118 6.64025 18.812C6.69851 18.885 6.76346 18.9667 6.83578 19.0598L6.8398 19.0651L8.84998 20.2256Z" fill="url(#paint3_linear_269_13054)"/>
<path fill-rule="evenodd" clip-rule="evenodd" d="M1.00195 6.63535V12.0552V12.0559L1.11981 11.7572L1.12051 11.7554C1.35293 11.1637 1.40247 11.0376 2.14766 10.5499L9.99887 6.03069L6.09771 3.77141C5.56135 3.50022 5.32698 3.42188 5.05244 3.42188C4.90312 3.42188 4.74509 3.44531 4.52546 3.47879C4.41698 3.49553 4.29377 3.51361 4.1498 3.5337H4.14378L2.15235 4.64258C1.51822 5.00886 1.00195 5.90279 1.00195 6.63535Z" fill="url(#paint4_linear_269_13054)"/>
<path fill-rule="evenodd" clip-rule="evenodd" d="M13.9209 12.6972L13.9209 12.6983L13.9203 12.6976L13.9209 12.6972ZM13.9209 12.6972L17.8562 10.4323C18.6129 9.93748 18.6618 9.8136 18.8955 9.21765L18.9062 9.19086C18.9122 9.17544 18.9184 9.15968 18.9247 9.14358C18.9462 9.08836 18.9693 9.02912 18.9953 8.96587L18.9979 8.95985V6.63361C18.9979 5.90105 18.4817 5.00712 17.8475 4.64084L13.2393 1.98047L13.4006 2.18336C13.7984 2.68155 13.8821 2.78668 13.933 3.67995V3.70606L13.9209 12.6972Z" fill="url(#paint5_linear_269_13054)"/>
<path d="M10.0071 5.98438L9.99902 5.98839L10.0144 5.9971L10.0071 5.98438Z" fill="black"/>
<path d="M6.08643 8.23047V8.24051L6.10384 8.23047H6.08643Z" fill="black"/>
<path d="M6.14111 12.6872L6.14714 12.6905V12.6758L6.14111 12.6872Z" fill="black"/>
<path d="M13.9671 8.28917L13.9604 8.28516V8.29989L13.9671 8.28917Z" fill="black"/>
</g>
<defs>
<linearGradient id="paint0_linear_269_13054" x1="18.9984" y1="11.9595" x2="12.636" y2="16.3577" gradientUnits="userSpaceOnUse">
<stop stop-color="#0A3E6E"/>
<stop offset="1" stop-color="#132A56"/>
</linearGradient>
<linearGradient id="paint1_linear_269_13054" x1="3.70278" y1="17.322" x2="3.70278" y2="9.59674" gradientUnits="userSpaceOnUse">
<stop stop-color="#0A3E6E"/>
<stop offset="1" stop-color="#132A56"/>
</linearGradient>
<linearGradient id="paint2_linear_269_13054" x1="7.63299" y1="1.4872" x2="13.9326" y2="5.80291" gradientUnits="userSpaceOnUse">
<stop stop-color="#0A3E6E"/>
<stop offset="1" stop-color="#132A56"/>
</linearGradient>
<linearGradient id="paint3_linear_269_13054" x1="12.6088" y1="19.3267" x2="6.10791" y2="15.4508" gradientUnits="userSpaceOnUse">
<stop stop-color="#EA1F23"/>
<stop offset="1" stop-color="#B31E23"/>
</linearGradient>
<linearGradient id="paint4_linear_269_13054" x1="1.00195" y1="8.55386" x2="7.52353" y2="4.65062" gradientUnits="userSpaceOnUse">
<stop stop-color="#EA1F23"/>
<stop offset="1" stop-color="#B31E23"/>
</linearGradient>
<linearGradient id="paint5_linear_269_13054" x1="16.4297" y1="3.79687" x2="16.4297" y2="11.1913" gradientUnits="userSpaceOnUse">
<stop stop-color="#D71418"/>
<stop offset="1" stop-color="#B31E23"/>
</linearGradient>
<clipPath id="clip0_269_13054">
<rect width="20" height="20" fill="white" transform="translate(0 0.5)"/>
</clipPath>
</defs>
</svg>
