<svg width="20" height="20" viewBox="0 0 20 20" fill="none" xmlns="http://www.w3.org/2000/svg">
<g clip-path="url(#clip0_402_14917)">
<path d="M11.4877 8.28516H13.3652L10.7763 11.2541L13.6164 14.5555H11.6209L9.19329 11.8356H9.17597V14.5555H7.54639V8.28516H9.17597V10.8719H9.19329L11.4877 8.28516Z" fill="#55474A"/>
<path d="M17.1562 13.9961C17.1562 14.3967 16.8303 14.7215 16.4297 14.7215C16.029 14.7215 15.7031 14.3967 15.7031 13.9961C15.7031 13.5954 16.029 13.2695 16.4297 13.2695C16.8303 13.2695 17.1562 13.5944 17.1562 13.9961Z" fill="#F04E23"/>
<path d="M16.4297 12.9773C16.5921 12.9773 16.7448 12.9231 16.8661 12.5409C17.1432 11.6725 17.5146 8.92225 17.2212 8.1838C17.0566 7.76909 16.6831 7.66406 16.4297 7.66406C16.1763 7.66406 15.8028 7.76909 15.6382 8.1838C15.3458 8.92225 15.7161 11.6725 15.9933 12.5409C16.1146 12.9231 16.2673 12.9773 16.4297 12.9773Z" fill="#F04E23"/>
<path d="M16.4317 6.62857C17.4679 6.62857 18.3915 7.10283 18.9957 7.8402L19.9994 6.85703C19.1365 5.86738 17.8577 5.23828 16.4317 5.23828C15.0057 5.23828 13.7204 5.86954 12.8574 6.86353L13.8622 7.84669C14.4653 7.10391 15.3922 6.62749 16.4317 6.62749" fill="#FAA61A"/>
<path d="M6.93568 11.3048C6.93568 13.3328 5.48043 14.7643 3.46863 14.7643C1.45683 14.7643 0.000488281 13.3328 0.000488281 11.3048C0.000488281 9.40886 1.66364 8.07812 3.46863 8.07812C5.27362 8.07812 6.93568 9.40886 6.93568 11.3048ZM1.6972 11.3135C1.6972 12.3941 2.49521 13.1834 3.46863 13.1834C4.44205 13.1834 5.23897 12.3941 5.23897 11.3135C5.23897 10.4483 4.44096 9.6579 3.46863 9.6579C2.49629 9.6579 1.6972 10.4483 1.6972 11.3135Z" fill="#55474A"/>
</g>
<defs>
<clipPath id="clip0_402_14917">
<rect width="20" height="10" fill="white" transform="translate(0 5)"/>
</clipPath>
</defs>
</svg>
