<svg width="20" height="21" viewBox="0 0 20 21" fill="none" xmlns="http://www.w3.org/2000/svg">
<g clip-path="url(#clip0_269_12942)">
<path fill-rule="evenodd" clip-rule="evenodd" d="M3.41204 3.92578C3.20039 3.92578 3.02881 4.09736 3.02881 4.30902V17.4851C3.02881 17.6968 3.20039 17.8684 3.41204 17.8684H16.5882C16.7998 17.8684 16.9714 17.6968 16.9714 17.4851V4.30902C16.9714 4.09736 16.7998 3.92578 16.5882 3.92578H3.41204ZM14.6674 5.93458H5.33291V15.8598H14.6674V5.93458Z" fill="#0868AC"/>
<path d="M19.9504 5.56082C19.9057 5.4573 18.4367 5.79844 18.2805 5.83359C17.7171 5.96014 17.1611 6.12134 16.6168 6.31377C15.5649 6.68565 14.6052 7.24867 13.6704 7.85565C12.7825 8.43273 12.0194 9.09536 11.3625 9.92559C10.7734 10.6705 10.2948 11.4987 9.93293 12.3763C9.51597 13.3872 9.25249 14.4565 9.10423 15.538C9.09691 15.5931 9.11028 15.6515 9.1193 15.7858C10.2992 13.9464 11.7055 12.2577 13.3012 10.7646C14.4091 9.72771 15.6058 8.78565 16.875 7.95416C14.7425 9.92467 12.6017 11.9041 10.771 14.1577C10.8011 14.121 11.0692 14.1287 11.1244 14.1219C11.2634 14.1047 11.4016 14.0844 11.5396 14.0604C11.8046 14.0142 12.0678 13.9556 12.327 13.8847C14.2815 13.3498 16.0695 12.1098 17.3328 10.5346C18.3312 9.28945 18.9664 7.79422 19.6356 6.3581C19.7493 6.11431 19.8626 5.87056 19.9769 5.62674C19.9815 5.61698 19.9649 5.59658 19.9493 5.56089L19.9504 5.56082Z" fill="#7FC530"/>
</g>
<defs>
<clipPath id="clip0_269_12942">
<rect width="20" height="20" fill="white" transform="translate(0 0.5)"/>
</clipPath>
</defs>
</svg>
