<svg width="20" height="21" viewBox="0 0 20 21" fill="none" xmlns="http://www.w3.org/2000/svg">
<g clip-path="url(#clip0_269_13078)">
<path d="M13.476 20.2053L5.09408 14.7484C5.09408 14.7484 4.04282 14.1441 3.8021 13.0181C3.46414 11.4373 4.57852 10.082 4.57852 10.082L15.4571 17.1667C16.2963 17.7137 16.5254 18.8325 15.9859 19.6765C15.4318 20.5435 14.293 20.7348 13.476 20.2053Z" fill="#38D200"/>
<path d="M5.5364 8.91326C5.5364 8.91326 4.25244 8.13803 4.25244 6.34483C4.25244 4.55776 5.53589 3.79209 5.53589 3.79209L10.1183 0.79304C10.5216 0.53088 11.0125 0.439671 11.4831 0.539477C11.9537 0.639284 12.3653 0.921931 12.6275 1.32524C12.8896 1.72855 12.9808 2.21948 12.881 2.69004C12.7812 3.16059 12.4986 3.57223 12.0953 3.83439L8.23313 6.34927L14.8137 10.635C14.8137 10.635 15.9982 11.3137 16.2315 12.4593C16.5572 14.0575 15.4572 15.3742 15.4572 15.3742L5.5364 8.91326Z" fill="#0473EA"/>
<path d="M14.162 4.56258C13.7317 4.56258 13.4255 4.69907 13.1268 4.8927L10.8896 6.34965L13.1268 7.80661C13.4284 8.00092 13.7449 8.1369 14.162 8.1369C14.3982 8.1392 14.6324 8.09469 14.8513 8.00591C15.0701 7.91713 15.2692 7.78585 15.4371 7.61967C15.6049 7.45349 15.7381 7.2557 15.829 7.03772C15.9199 6.81974 15.9667 6.58592 15.9667 6.34974C15.9667 6.11357 15.9199 5.87974 15.829 5.66176C15.7381 5.44379 15.6049 5.246 15.4371 5.07982C15.2692 4.91364 15.0701 4.78236 14.8513 4.69357C14.6324 4.60479 14.3982 4.56028 14.162 4.56258Z" fill="#38D200"/>
<path d="M5.51222 20.4963C5.94248 20.4963 6.24873 20.3598 6.54729 20.1661L8.7844 18.709L6.54729 17.2523C6.24582 17.0579 5.92936 16.922 5.51222 16.922C5.27606 16.9197 5.04178 16.9642 4.82293 17.053C4.60408 17.1417 4.40499 17.273 4.23718 17.4392C4.06937 17.6054 3.93615 17.8032 3.84524 18.0211C3.75433 18.2391 3.70752 18.473 3.70752 18.7091C3.70752 18.9452 3.75433 19.1791 3.84524 19.3971C3.93615 19.6151 4.06937 19.813 4.23718 19.979C4.40499 20.1453 4.60408 20.2765 4.82293 20.3653C5.04178 20.4541 5.27606 20.4985 5.51222 20.4963Z" fill="#0473EA"/>
</g>
<defs>
<clipPath id="clip0_269_13078">
<rect width="20" height="20" fill="white" transform="translate(0 0.5)"/>
</clipPath>
</defs>
</svg>
