<svg width="20" height="21" viewBox="0 0 20 21" fill="none" xmlns="http://www.w3.org/2000/svg">
<path d="M6.99423 8.47336C6.74978 8.53685 6.57733 8.59559 6.3992 8.62497C6.04009 8.68371 5.7511 8.35587 5.84206 8.01287C5.88375 7.85558 5.9804 7.79305 6.13674 7.78357C6.29023 7.7741 6.31676 7.87359 6.38783 7.97876C6.46458 8.09152 6.62849 8.17774 6.76778 8.20711C6.98286 8.25165 7.27375 8.05362 7.34576 7.85464C7.42535 7.63576 7.42535 7.42541 7.2349 7.2577C7.05203 7.09663 6.70145 7.05115 6.51574 7.19233C6.42857 7.25865 6.39162 7.39036 6.32245 7.51069C5.99177 7.51069 5.86764 7.39604 5.84774 7.03788C5.8449 6.98198 5.84774 6.92323 5.82974 6.87112C5.71509 6.53001 5.71036 6.52433 6.02777 6.35946C6.16895 6.2865 6.3234 6.23534 6.47689 6.19175C6.68156 6.13301 6.86632 6.12164 7.00845 5.87813C7.10888 5.70663 7.43483 5.66778 7.65844 5.56545C7.83657 5.48491 8.03176 5.42521 8.18431 5.31056C8.6647 4.94767 9.00202 4.99694 9.32891 5.49817C9.37155 5.5645 9.44924 5.63746 9.52125 5.65072C10.1447 5.76537 10.5787 6.13869 10.897 6.65793C11.043 6.89481 11.1595 7.15443 11.2561 7.41689C11.5954 8.33787 12.179 9.04566 13.0308 9.53268C13.1 9.57248 13.1682 9.61322 13.2355 9.65491C13.2412 9.65775 13.2412 9.66913 13.2611 9.72029C13.0858 9.76388 12.9143 9.80557 12.7305 9.85105C12.8375 10.0178 12.9465 10.1874 13.0621 10.3674C13.8059 9.14326 14.9145 9.35076 16.0297 9.60754C16.1501 9.35645 16.1188 9.1821 15.9009 9.04377C15.7464 8.94523 15.5654 8.88932 15.4072 8.79647C15.2281 8.69129 15.0424 8.58612 14.8937 8.44494C14.5289 8.09815 14.5753 7.55617 15.0026 7.29087C15.5711 6.93744 16.2079 6.88059 16.8389 7.04357C17.3629 7.18001 17.866 7.39983 18.3729 7.59786C18.515 7.65376 18.6193 7.68977 18.7699 7.6007C19.0087 7.45763 19.4597 7.64618 19.6047 7.90201C19.7184 8.10289 19.8586 8.2886 19.9998 8.49989C19.7487 8.6496 19.4341 8.79457 19.0722 8.7832C18.7605 8.77278 18.5634 8.54064 18.4554 8.137C18.4288 8.03846 18.3464 7.91717 18.2583 7.88022C17.7798 7.68029 17.3041 7.44531 16.8019 7.33351C16.3216 7.22738 15.8033 7.22738 15.3807 7.5846C15.0737 7.84421 15.1087 8.08583 15.4745 8.26775C15.6754 8.36724 15.8848 8.45157 16.0809 8.56053C16.7811 8.95186 16.9327 9.40666 16.6295 10.1505C16.602 10.2177 16.5935 10.3011 16.603 10.3731C16.6333 10.6015 16.7081 10.8279 16.71 11.0553C16.7205 12.4804 16.7157 13.9055 16.7157 15.3305C16.7157 15.4167 16.7157 15.5039 16.7157 15.6043H14.0712V14.7459C14.2294 14.7374 14.4009 14.7279 14.5876 14.7175C14.5933 14.6341 14.6018 14.564 14.6018 14.4939C14.6018 13.4715 14.6132 12.4482 14.5942 11.4268C14.5904 11.2069 14.5232 10.9587 14.4047 10.7758C14.1915 10.447 13.7576 10.4612 13.5728 10.8071C13.4572 11.0222 13.4023 11.2941 13.3985 11.5414C13.3814 12.7893 13.3909 14.0372 13.3909 15.285C13.3909 15.3817 13.3909 15.4774 13.3909 15.5968H10.6971V14.7307C10.8326 14.7307 10.9738 14.7241 11.114 14.7326C11.2637 14.7421 11.3073 14.6786 11.3064 14.5346C11.3016 13.5283 11.3073 12.5221 11.2997 11.5149C11.2978 11.2382 11.2381 10.971 11.0297 10.7626C10.7388 10.4717 10.3219 10.5304 10.1627 10.9104C10.0841 11.097 10.05 11.315 10.049 11.5187C10.0386 12.7912 10.0443 14.0627 10.0443 15.3353C10.0443 15.4215 10.0443 15.5086 10.0443 15.6072H7.0852V14.7431H7.90669V12.3639C7.74561 12.542 7.62149 12.7059 7.47083 12.8395C7.32586 12.9674 7.15436 13.065 6.99423 13.1749C6.97434 13.1579 6.95444 13.1418 6.93454 13.1247C6.9516 12.9693 6.98855 12.8139 6.98287 12.6595C6.96581 12.2369 6.94117 11.8133 6.90138 11.3917C6.86727 11.0269 6.78957 10.665 6.76494 10.3002C6.74693 10.0349 6.78673 9.77714 6.70524 9.50331C6.64934 9.3157 6.76209 9.07314 6.81705 8.85995C6.84642 8.74719 6.91275 8.64486 6.99139 8.47526L6.99423 8.47336ZM9.48619 10.611C9.37913 9.94201 9.63495 9.34792 9.75245 8.73109C9.92868 7.80726 9.78371 6.98577 8.95748 6.40684C9.16309 6.05152 9.16499 5.8317 8.95369 5.65735C8.7026 5.4489 8.533 5.66872 8.33686 5.78053C8.25538 5.82696 8.14167 5.8497 8.04882 5.83738C7.71814 5.7919 7.45757 5.90655 7.21785 6.12543C7.11741 6.21639 6.98192 6.27608 6.854 6.32819C6.6825 6.39831 6.50342 6.44853 6.32719 6.50727L6.33761 6.58023C6.42762 6.60108 6.51764 6.62098 6.65787 6.65319C6.48447 6.7451 6.35751 6.81237 6.23054 6.8787C6.23812 6.89954 6.24665 6.91944 6.25423 6.94029C6.28929 6.94218 6.33192 6.95829 6.3594 6.94408C6.80852 6.7072 7.20932 6.81332 7.59212 7.10231C7.65844 7.15253 7.74751 7.18096 7.82994 7.2018C8.11041 7.27097 8.22884 7.40552 8.21937 7.69451C8.20231 8.173 7.97681 8.5738 7.69824 8.93954C7.2927 9.47394 7.06719 10.0595 7.15247 10.7341C7.20458 11.1463 7.29933 11.5528 7.36471 11.964C7.39124 12.1308 7.38745 12.3013 7.39788 12.4709C7.42535 12.4766 7.45188 12.4813 7.47936 12.487C7.56369 12.2843 7.70961 12.0843 7.72003 11.8768C7.73898 11.4988 7.71814 11.1093 7.64233 10.7389C7.52579 10.1647 7.57506 9.64259 7.91143 9.15273C8.05166 8.94807 8.18336 8.73393 8.29043 8.51032C8.47709 8.12278 8.55858 7.71156 8.37476 7.30224C8.29138 7.11652 8.34728 7.04546 8.533 6.9725C8.5908 7.11747 8.66186 7.24444 8.69218 7.38183C8.82388 7.97118 8.68744 8.52642 8.44867 9.06461C8.34823 9.29107 8.22126 9.509 8.14357 9.74303C7.94554 10.3352 8.16062 10.9748 8.70071 11.3273C8.70071 10.9776 8.68839 10.665 8.70355 10.3542C8.72913 9.8122 8.73292 9.27496 8.92053 8.7434C9.04086 8.40135 9.05508 8.00055 9.02476 7.63387C8.99917 7.32782 8.83904 7.0322 8.72818 6.70246C8.75092 6.68351 8.80872 6.63424 8.86557 6.58497C9.28248 6.9924 9.47293 7.63671 9.34881 8.26396C9.26353 8.69508 9.14699 9.12051 9.05413 9.55069C8.95748 10.0008 9.10529 10.3769 9.48619 10.6119V10.611ZM9.43598 5.96814C9.42082 5.99467 9.40566 6.02025 9.3905 6.04678C9.45872 6.09037 9.52504 6.13774 9.59516 6.17849C10.2281 6.54233 10.609 7.08715 10.717 7.80537C10.7938 8.31987 10.9795 8.78131 11.3026 9.18305C11.5451 9.48436 11.8588 9.67197 12.2833 9.68618C12.2558 9.64544 12.2472 9.62175 12.2302 9.60848C11.5442 9.07219 11.1652 8.34924 10.9018 7.53343C10.7862 7.17622 10.5739 6.83701 10.3465 6.5338C10.1258 6.24008 9.79129 6.07047 9.43692 5.96909L9.43598 5.96814ZM11.4381 10.2604C11.4134 10.2045 11.4087 10.1798 11.3945 10.1618C10.8222 9.45593 10.4489 8.66002 10.2783 7.76462C10.2016 7.36098 10.0547 6.97345 9.76855 6.66361C9.64632 6.53191 9.49472 6.42768 9.35638 6.31114C9.31659 6.35472 9.27585 6.39831 9.23605 6.4419C9.30238 6.46748 9.39713 6.47411 9.43124 6.52338C9.616 6.79058 9.83962 7.04925 9.94574 7.34772C10.0604 7.67271 10.068 8.03751 10.1078 8.38714C10.1637 8.88079 10.2783 9.35076 10.5787 9.75724C10.7871 10.0396 11.0704 10.1959 11.439 10.2613L11.4381 10.2604ZM7.11173 9.14894C7.62528 8.9149 8.07535 7.78831 7.81668 7.46142C7.82994 7.86506 7.63002 8.13036 7.2946 8.33218C7.54664 8.66571 7.02077 8.81447 7.11173 9.14799V9.14894Z" fill="#13007D"/>
<path d="M5.73993 10.0019H3.57581C3.57581 9.80287 3.57391 9.61242 3.57581 9.42292C3.58434 8.8383 3.09637 8.72366 2.73726 8.80135C2.54776 8.84209 2.41416 8.96622 2.36015 9.16709C2.22655 9.65696 2.46248 10.1667 2.94666 10.3799C3.67909 10.7021 4.34803 11.1228 4.99234 11.5956C5.72003 12.129 6.02608 12.8472 5.99481 13.7208C5.98439 14.0136 5.93985 14.3149 5.85079 14.5935C5.66697 15.1658 5.27565 15.5476 4.6825 15.704C3.66109 15.9721 2.63493 16.0148 1.61635 15.7068C0.500181 15.3695 0.0122124 14.7015 0.000842234 13.5427C-0.00105279 13.3579 0.000842234 13.1732 0.000842234 12.9695H2.22371C2.22371 13.266 2.22276 13.5617 2.22371 13.8563C2.22655 14.332 2.4947 14.5973 2.97698 14.602C3.44695 14.6077 3.74541 14.332 3.77005 13.8829C3.80416 13.2717 3.54265 12.834 3.01393 12.5393C2.35446 12.1717 1.70447 11.787 1.03932 11.4298C0.281306 11.0223 0.0823284 10.3496 0.118334 9.56126C0.126861 9.37933 0.1695 9.19457 0.220665 9.01833C0.417748 8.34276 0.840339 7.887 1.53676 7.70982C2.59229 7.44167 3.63455 7.48241 4.66734 7.8311C5.30881 8.04713 5.65086 8.50668 5.73424 9.15856C5.76835 9.42576 5.73993 9.70149 5.73993 10.0009V10.0019Z" fill="#13007D"/>
<path d="M8.21368 6.32815C7.89721 6.45416 7.6376 6.55839 7.34766 6.67399C7.44525 6.18981 7.70013 6.08748 8.21368 6.32815Z" fill="#13007D"/>
</svg>
