<svg width="20" height="21" viewBox="0 0 20 21" fill="none" xmlns="http://www.w3.org/2000/svg">
<path d="M16.3414 7.44402C14.8559 5.26484 12.78 4.09901 10.2319 3.70548C5.92271 3.04139 2.17924 5.72724 1.53484 9.94294C1.14131 12.5304 2.39077 15.3146 4.51584 16.5592C5.23895 16.9822 6.02601 17.2134 6.86718 17.1938C7.16725 17.1839 7.487 17.12 7.75755 16.9921C8.5938 16.6035 8.77089 15.595 8.07237 14.9949C7.64933 14.626 7.11314 14.38 6.61631 14.1045C6.13915 13.8438 5.63248 13.6372 5.16516 13.3568C3.92062 12.6091 3.38935 11.5367 3.59596 10.2627C3.82716 8.87057 4.7372 8.11302 6.02601 7.76868C7.35418 7.41451 8.68235 7.55224 9.981 7.97529C10.0941 8.00972 10.227 8.18189 10.2319 8.29995C10.2614 8.79678 10.2417 9.29854 10.2417 9.87408C10.0548 9.78553 9.91705 9.71666 9.78423 9.65271C9.07096 9.30837 8.33801 9.06242 7.53127 9.21983C7.09346 9.30346 6.70485 9.48054 6.59663 9.97246C6.49333 10.4644 6.75896 10.7989 7.14758 11.0301C7.54111 11.2613 7.95431 11.4482 8.3626 11.6548C8.81024 11.8811 9.26772 12.0828 9.70061 12.3287C10.9697 13.0617 11.5896 14.1439 11.4223 15.6295C11.2551 17.1298 10.3352 17.9956 8.96274 18.4334C6.34575 19.2745 3.40411 18.2465 1.6529 15.9C-2.06597 10.9071 0.826482 3.54806 6.97541 2.4511C9.61206 1.97886 12.0766 2.41666 14.2065 4.14328C15.2002 4.9451 15.9135 5.96336 16.2873 7.19806C16.3119 7.28169 16.3218 7.36531 16.3414 7.44894V7.44402Z" fill="#0A489E"/>
<path d="M11.5208 18.3882C12.0963 17.7733 12.0422 17.06 12.0422 16.3566C12.0422 14.1774 12.0373 12.0032 12.0422 9.82399C12.0422 9.15499 12.052 8.49582 11.4863 7.87109C12.3816 7.87109 13.1539 7.87109 13.9262 7.87109C14.5821 7.87109 14.91 8.19576 14.91 8.84508C14.91 9.97649 14.91 11.103 14.91 12.3426C15.8644 11.9786 16.3514 11.3194 16.6465 10.4782C16.9417 9.63706 16.8334 8.80573 16.553 7.98423C17.6205 7.76287 18.7322 8.42204 19.1503 9.48949C19.5881 10.6061 19.1848 11.7179 17.9894 12.4606C18.0731 12.4902 18.1272 12.5098 18.1813 12.5246C19.9325 13.0313 20.6605 15.604 19.2733 17.2617C18.6535 18.0045 17.8615 18.4079 16.8925 18.4177C15.2298 18.4325 13.5671 18.4325 11.9045 18.4374C11.8061 18.4374 11.7077 18.4177 11.5208 18.398V18.3882ZM14.91 15.1121C14.91 15.6089 14.9002 16.1107 14.9199 16.6075C14.9199 16.7255 15.0232 16.9371 15.097 16.942C15.6184 16.9912 16.1595 17.0453 16.6022 16.6567C17.1433 16.1844 17.3352 15.0383 17.0105 14.2315C16.7596 13.6117 16.0906 13.2723 15.2593 13.3215C14.9937 13.3363 14.9002 13.4494 14.91 13.7052C14.9199 14.1725 14.91 14.6447 14.91 15.1121Z" fill="#F65D0C"/>
</svg>
