<svg width="20" height="21" viewBox="0 0 20 21" fill="none" xmlns="http://www.w3.org/2000/svg">
<path d="M4.87902 10.4922L2.6312 10.4939L0 13.1292L2.24799 13.1275L4.87902 10.4922Z" fill="#E6002D"/>
<path d="M7.57233 9.80036C7.24206 9.67959 7.04147 9.57664 6.97107 9.49116C6.89689 9.40568 6.86023 9.27841 6.86023 9.10967C6.86023 8.97828 6.89295 8.88064 6.95873 8.81589C7.02434 8.75131 7.12147 8.71893 7.24943 8.71893C7.36729 8.71893 7.48446 8.74292 7.53499 8.79088C7.5857 8.83884 7.64548 8.95019 7.64548 9.12526V9.34196H9.55464V9.14188C9.55464 8.74 9.49126 8.61341 9.36501 8.44588C9.23859 8.27817 8.98078 8.13908 8.59158 8.02876C8.20221 7.91844 7.73147 7.86328 7.17868 7.86328C6.673 7.86328 6.24149 7.91364 5.8845 8.01471C5.52716 8.11578 5.26833 8.25573 5.1085 8.43492C4.94833 8.61393 4.86816 8.89709 4.86816 9.28457C4.86816 9.55334 4.92452 9.77398 5.03758 9.94683C5.15047 10.1198 5.29299 10.2552 5.46481 10.3532C5.6368 10.451 5.98711 10.6082 6.51626 10.8247C7.04541 11.0392 7.37739 11.1924 7.51221 11.284C7.6436 11.3757 7.70938 11.5704 7.70938 11.8681C7.70938 12.0035 7.67494 12.1056 7.60591 12.1743C7.5367 12.243 7.43152 12.2772 7.28986 12.2772C7.14819 12.2772 7.00104 12.2501 6.94537 12.1962C6.8897 12.1422 6.77253 12.0203 6.77253 11.8308V11.2153H4.86816V11.5463C4.86816 12.0559 4.98191 12.227 5.12101 12.4244C5.26644 12.6306 5.50935 12.8002 5.91225 12.9335C6.31481 13.0667 6.80113 13.1336 7.37071 13.1336C7.88959 13.1336 8.34456 13.0757 8.73564 12.9602C9.12656 12.8446 9.39036 12.7014 9.52672 12.5306C9.66324 12.36 9.73142 12.0944 9.73142 11.734C9.73142 11.2384 9.60843 10.8792 9.36244 10.6564C9.11645 10.4335 8.51963 10.1483 7.57233 9.80088V9.80036Z" fill="#002C69"/>
<path d="M13.2866 10.2764L11.6647 7.86328H10.314V13.1324H11.7966V10.7016L13.4219 13.1324H14.769V7.86328H13.2866V10.2764Z" fill="#002C69"/>
<path d="M15.3491 9.3298H16.7565V13.1322H18.6249V9.3298H20V7.86328H15.3491V9.3298Z" fill="#002C69"/>
</svg>
