<svg width="20" height="21" viewBox="0 0 20 21" fill="none" xmlns="http://www.w3.org/2000/svg">
<path d="M11.2098 6.22373L12.0672 4.49942C12.0672 4.49942 12.1942 4.33429 11.2098 3.96593C10.2254 3.59757 6.90057 2.89895 4.72533 4.87095C2.55009 6.84296 3.74091 9.1357 4.72533 9.91688C5.70975 10.6981 7.73891 11.765 7.73891 13.2798C7.73694 13.6347 7.65782 13.985 7.50703 14.3063C7.35624 14.6276 7.13739 14.9123 6.86564 15.1406C8.05329 14.442 10.2539 13.1972 9.44417 10.7774C8.80907 8.92294 6.77672 8.52282 6.24324 7.28436C5.70975 6.0459 7.45629 4.17551 9.97766 4.91224C11.2479 5.27742 11.2098 6.22373 11.2098 6.22373Z" fill="#0071BB"/>
<path d="M19.2914 12.7187C19.99 10.5434 20.7553 8.01887 18.4721 7.87597C16.8843 7.77436 15.1632 8.73019 14.1343 9.41928C14.1343 9.41928 15.7411 5.60864 16.0587 4.95131C16.3762 4.29397 16.2619 3.78906 15.3283 3.78906H13.3881C14.0454 4.24951 13.6072 5.23393 13.6072 5.23393L10.5587 12.1598C9.65362 13.8904 8.3199 15.3353 6.20182 15.7132C5.4264 15.7829 4.64487 15.6976 3.90273 15.4623C2.05775 14.751 1.48615 12.7631 1.58777 11.3151L0 14.8082C0 14.8082 1.54331 17.2502 4.15677 17.4375C6.2431 17.5868 7.73242 17.0628 8.94548 15.8656C8.28179 17.4026 10.0252 17.3549 10.0252 17.3549H11.6669C11.4803 17.2575 11.3355 17.0956 11.2595 16.8992C11.1835 16.7029 11.1816 16.4856 11.2541 16.288C11.3081 16.1387 11.8193 14.805 11.8193 14.805C14.2867 9.78447 16.9828 9.40341 17.2813 10.083C17.8401 11.3214 16.1222 14.6811 15.7125 15.8497C15.0393 17.3962 16.789 17.3454 16.789 17.3454H18.4276C18.2495 17.2404 18.1148 17.0751 18.0478 16.8794C17.9809 16.6838 17.986 16.4706 18.0624 16.2784C18.1577 15.9958 19.2056 13.0362 19.2914 12.7187Z" fill="#0071BB"/>
</svg>
