<svg width="20" height="21" viewBox="0 0 20 21" fill="none" xmlns="http://www.w3.org/2000/svg">
<g clip-path="url(#clip0_269_13102)">
<path d="M4.37208 13.9074C4.22733 14.7025 4.63415 14.9584 5.34076 14.9584C5.84157 14.9584 6.40343 14.7684 6.51663 14.2669C6.65383 13.6714 5.76542 13.5575 4.9065 13.2817C4.04758 13.006 3.19964 12.5724 3.48092 11.332C3.8157 9.85567 5.34968 9.27734 6.5475 9.27734C7.81735 9.27734 8.94862 9.93114 8.61109 11.4562H6.94883C7.11485 10.8388 6.61404 10.6412 6.10501 10.6412C5.7469 10.6412 5.2701 10.7729 5.16994 11.2188C5.05125 11.7395 5.95065 11.8363 6.81642 12.1107C7.6822 12.3851 8.50133 12.8386 8.22554 14.0597C7.83656 15.7748 6.33551 16.3236 4.93257 16.3236C3.46583 16.3236 2.32564 15.6424 2.70707 13.9101L4.37208 13.9074Z" fill="#005EA1"/>
<path d="M15.877 9.42188H17.5393L16.0074 16.1814H14.3438L15.877 9.42188Z" fill="#005EA1"/>
<path d="M9.81707 9.42266H12.802C13.9058 9.40414 15.044 9.70599 14.7229 11.1172C14.5857 11.7229 14.1343 12.2148 13.5738 12.4803C14.2063 12.6861 14.4849 13.3139 14.3113 14.0802C13.9477 15.6903 12.719 16.1842 11.351 16.1842H8.28516L9.81707 9.42266ZM10.8763 12.0831H12.1633C12.4494 12.0831 12.8788 11.9212 12.9866 11.4389C13.0943 10.9566 12.8048 10.7851 12.4563 10.7851H11.1699L10.8763 12.0831ZM10.2664 14.771H11.5994C12.1263 14.771 12.5372 14.5714 12.6648 14.0164C12.802 13.4195 12.4514 13.2206 11.9506 13.2206H10.6184L10.2664 14.771Z" fill="#005EA1"/>
<path d="M19.8614 6.70554C18.9421 4.26463 13.683 3.9861 8.11649 6.08263C4.1464 7.57818 1.09286 9.87846 0 11.9613C1.50928 10.3834 3.95019 8.83294 6.89397 7.72294C12.4612 5.62573 17.7196 5.90494 18.6389 8.34654C18.9037 9.0463 18.7809 9.84828 18.3412 10.6866C19.6872 9.28161 20.2943 7.85534 19.8614 6.7076" fill="#EE303C"/>
</g>
<defs>
<clipPath id="clip0_269_13102">
<rect width="20" height="11.6461" fill="white" transform="translate(0 4.67578)"/>
</clipPath>
</defs>
</svg>
