<svg width="20" height="21" viewBox="0 0 20 21" fill="none" xmlns="http://www.w3.org/2000/svg">
<path d="M20 7.62303C19.5106 8.11893 19.0381 8.60695 18.5541 9.08354C18.3836 9.25138 18.3811 9.46138 18.5525 9.63167C19.0351 10.1115 19.5068 10.602 19.9834 11.0886C19.6659 11.4069 19.3346 11.7385 18.9962 12.0777C18.6387 11.7257 18.2846 11.3775 17.9309 11.0288C17.4075 10.5128 16.8882 10.0215 16.3632 9.50681C16.3311 9.47852 16.2887 9.41895 16.2476 9.43881C16.2065 9.45866 16.2101 9.50572 16.2098 9.55006C16.2076 10.3297 16.2085 11.109 16.2085 11.8887C16.2085 11.9463 16.2085 12.0043 16.2085 12.0726H14.7852C14.7852 12.0201 14.7852 11.9676 14.7852 11.9151C14.7852 10.5751 14.7909 9.23887 14.773 7.89886C14.7681 7.53244 14.7248 6.97805 15.0589 6.73921C15.3513 6.52975 15.7487 6.58252 16.0866 6.58796C16.1173 6.58851 16.1505 6.5896 16.175 6.60809C16.2114 6.63557 16.2144 6.6878 16.2142 6.73323C16.2142 7.10944 16.2166 7.48076 16.2104 7.86214C16.2068 8.06779 16.2049 8.25413 16.2022 8.45053C16.1997 8.63252 16.1676 9.03485 16.4424 9.03022C16.5115 9.02913 16.5779 8.99867 16.6331 8.95705C16.9543 8.71467 17.2052 8.3915 17.4889 8.10914C17.9581 7.64207 18.4266 7.17391 18.8904 6.7014C18.9611 6.62931 19.0019 6.63203 19.0696 6.70031C19.3787 7.01124 19.6918 7.31808 20 7.62303Z" fill="#21409A"/>
<path d="M7.37163 11.7886H6.63226C6.62872 11.7314 6.62247 11.6789 6.62247 11.6262C6.62192 11.0005 6.63362 10.3746 6.61621 9.74972C6.61104 9.56638 6.58955 9.37025 6.47204 9.22145C6.35398 9.07156 6.15567 8.972 5.96851 8.94697C5.79986 8.92439 5.62467 8.95731 5.4737 9.03565C5.34666 9.10176 5.23431 9.20186 5.17012 9.32999C5.10184 9.46573 5.09096 9.62296 5.09422 9.77502C5.10782 10.3906 5.0934 11.0076 5.09776 11.624C5.09857 11.7578 5.04934 11.8 4.92366 11.7945C4.76969 11.7883 4.61545 11.7891 4.46149 11.7951C4.3388 11.8 4.2844 11.7644 4.28467 11.6273C4.28902 10.2445 4.28385 8.8621 4.29093 7.47939C4.29201 7.24871 4.4351 7.03245 4.68781 7.01205C4.77568 7.00497 4.86191 6.98158 4.94923 6.96825C5.06022 6.95138 5.09912 6.99681 5.09748 7.11188C5.0915 7.5289 5.09286 7.94591 5.09667 8.36293C5.0983 8.53866 5.178 8.57865 5.33469 8.49378C5.36516 8.47718 5.39699 8.46304 5.42909 8.44944C5.76177 8.30662 6.09963 8.28649 6.45517 8.36484C6.70217 8.41924 6.90918 8.52207 7.08219 8.70242C7.25847 8.88604 7.37272 9.1091 7.37734 9.35665C7.39149 10.1406 7.38387 10.9252 7.38387 11.7091C7.38387 11.7312 7.37734 11.7532 7.3719 11.7883L7.37163 11.7886Z" fill="#21409A"/>
<path d="M11.0103 11.2479C10.6254 11.6288 10.062 11.7846 9.52067 11.7811C9.08543 11.7784 8.62951 11.6701 8.31396 11.3703C8.06696 11.1359 7.9334 10.8072 7.87899 10.4759C7.82404 10.1405 7.82431 9.78143 7.90157 9.44956C7.95108 9.23738 8.03758 9.03281 8.17142 8.8598C8.4818 8.45911 9.01226 8.27386 9.51904 8.28148C9.85391 8.28637 10.1942 8.37016 10.4673 8.56438C10.7706 8.7801 10.9722 9.12204 11.0552 9.48492C11.1047 9.70146 11.1011 9.96097 10.933 10.1062C10.8 10.221 10.6074 10.2267 10.4317 10.2265C9.83758 10.2254 9.24348 10.2243 8.64937 10.2235C8.59605 10.5605 8.78674 10.9215 9.09522 11.0673C9.27286 11.1514 9.47524 11.1669 9.67165 11.1592C9.90124 11.1503 10.1417 11.1062 10.3185 10.959C10.3852 10.9035 10.4603 10.829 10.5438 10.8524C10.5764 10.8616 10.6031 10.8848 10.6284 10.9074C10.7557 11.0208 10.883 11.1342 11.01 11.2477L11.0103 11.2479ZM9.50734 9.73682C9.73802 9.73682 9.9687 9.73736 10.1994 9.73736C10.2707 9.73763 10.3433 9.72267 10.3172 9.63698C10.2641 9.46398 10.2179 9.27818 10.0963 9.13836C10.0049 9.03281 9.87866 8.96045 9.747 8.91775C9.65641 8.88837 9.56148 8.87205 9.46627 8.8715C9.29054 8.87069 9.11535 8.924 8.96846 9.02003C8.81232 9.12204 8.71819 9.2654 8.66542 9.4433C8.61401 9.61713 8.67549 9.73573 8.85557 9.73682C9.07264 9.73818 9.28999 9.73709 9.50707 9.73709L9.50734 9.73682Z" fill="#21409A"/>
<path d="M3.78585 6.96563V7.65549C3.74776 7.65794 3.70913 7.66229 3.67023 7.66229C3.32122 7.66284 2.97249 7.66256 2.62348 7.66256C2.38681 7.66256 2.32343 7.72431 2.32343 7.95608C2.32343 9.17503 2.32343 10.3937 2.32343 11.6127C2.32343 11.6663 2.32343 11.7198 2.32343 11.7908C2.06364 11.7908 1.81637 11.7955 1.56964 11.7854C1.53591 11.784 1.4777 11.7087 1.47743 11.6673C1.47525 11.2424 1.4845 10.8178 1.48695 10.3929C1.4894 9.96037 1.48695 9.52758 1.48831 9.09506C1.48967 8.66009 1.49402 8.22512 1.49456 7.79014C1.49456 7.69874 1.44968 7.65903 1.34985 7.66039C0.946703 7.66556 0.543287 7.65984 0.140143 7.66447C-0.0162719 7.66637 -0.0113754 7.55484 0.012563 7.43025C0.0275244 7.35245 0.0471104 7.27384 0.0892745 7.20665C0.143408 7.12041 0.231272 7.05921 0.326482 7.02276C0.510644 6.9523 0.709495 6.96917 0.902635 6.96808C1.11237 6.96699 1.3221 6.96618 1.53183 6.96563C1.95266 6.96454 2.37348 6.96482 2.79431 6.96509C2.87728 6.96509 3.78612 6.96563 3.78612 6.96563H3.78585Z" fill="#21409A"/>
<path d="M15.4676 14.42C15.0473 14.4227 14.626 14.3425 14.2351 14.1727C13.885 14.0209 13.5651 13.8011 13.2949 13.5315C13.1973 13.4342 12.5724 12.7367 12.7781 12.6491C12.9209 12.5884 13.0237 12.7631 13.1026 12.8466C13.2052 12.9554 13.3156 13.0566 13.4326 13.1496C14.3771 13.9023 15.7241 14.0941 16.8226 13.5743C17.2461 13.3738 17.7039 13.08 17.9713 12.6872C18.0198 12.6162 18.0962 12.5944 18.1525 12.6442C18.1865 12.6744 18.1988 12.7704 18.1767 12.8158C18.0236 13.1314 17.804 13.4018 17.5443 13.6333C16.9744 14.1414 16.2225 14.4148 15.4679 14.42H15.4676Z" fill="#ED1A2D"/>
<path d="M12.5866 8.86719C12.4916 8.86719 12.4084 8.88922 12.336 8.95124C12.2699 9.0081 12.2207 9.08481 12.1989 9.16941C12.1802 9.24177 12.1859 9.31494 12.1845 9.38866C12.1832 9.46728 12.1826 9.54589 12.1826 9.62451C12.1826 9.78256 12.184 9.94088 12.1842 10.0989C12.1842 10.1049 12.1842 10.1705 12.1842 10.1705H13.5243V8.87018C13.2014 8.87018 12.894 8.86746 12.5866 8.86719Z" fill="#21409A"/>
</svg>
