<svg width="20" height="21" viewBox="0 0 20 21" fill="none" xmlns="http://www.w3.org/2000/svg">
<g clip-path="url(#clip0_269_12969)">
<g clip-path="url(#clip1_269_12969)">
<path d="M19.8547 10.4965C19.8556 12.4541 19.2759 14.3679 18.1889 15.9959C17.1019 17.6239 15.5564 18.893 13.7481 19.6425C11.9397 20.3921 9.94964 20.5884 8.02966 20.2067C6.10968 19.8251 4.34603 18.8825 2.96183 17.4983C1.57763 16.1141 0.635079 14.3505 0.2534 12.4305C-0.128279 10.5105 0.0680716 8.52046 0.817608 6.71209C1.56715 4.90372 2.83618 3.35828 4.4642 2.27128C6.09222 1.18429 8.00606 0.604572 9.96361 0.60547C12.5865 0.606673 15.1017 1.64915 16.9563 3.50382C18.811 5.3585 19.8535 7.87362 19.8547 10.4965Z" fill="white"/>
<path d="M9.96356 19.9213C11.8274 19.9213 13.6493 19.3686 15.199 18.3331C16.7487 17.2976 17.9565 15.8259 18.6698 14.104C19.383 12.382 19.5696 10.4873 19.206 8.6593C18.8424 6.83131 17.9449 5.15221 16.627 3.83431C15.3091 2.5164 13.63 1.6189 11.802 1.25529C9.97401 0.891684 8.07925 1.0783 6.35733 1.79155C4.63541 2.50479 3.16367 3.71263 2.1282 5.26231C1.09273 6.812 0.540039 8.63394 0.540039 10.4977C0.540039 12.997 1.53288 15.3939 3.30013 17.1612C5.06738 18.9284 7.46429 19.9213 9.96356 19.9213Z" fill="#0083CA"/>
<mask id="mask0_269_12969" style="mask-type:alpha" maskUnits="userSpaceOnUse" x="0" y="1" width="20" height="19">
<path d="M9.96356 19.9213C11.8274 19.9213 13.6493 19.3686 15.199 18.3331C16.7487 17.2976 17.9565 15.8259 18.6698 14.104C19.383 12.382 19.5696 10.4873 19.206 8.6593C18.8424 6.83131 17.9449 5.15221 16.627 3.83431C15.3091 2.5164 13.63 1.6189 11.802 1.25529C9.97401 0.891684 8.07925 1.0783 6.35733 1.79155C4.63541 2.50479 3.16367 3.71263 2.1282 5.26231C1.09273 6.812 0.540039 8.63394 0.540039 10.4977C0.540039 12.997 1.53288 15.3939 3.30013 17.1612C5.06738 18.9284 7.46429 19.9213 9.96356 19.9213Z" fill="#0083CA"/>
</mask>
<g mask="url(#mask0_269_12969)">
<path d="M9.99548 15.0493C14.1353 15.0493 17.685 16.2023 19.2057 17.8364C19.7316 16.6341 20.0021 15.3357 20 14.0234C20 11.3713 18.9464 8.82773 17.0711 6.95237C15.1957 5.07701 12.6522 4.02344 10 4.02344C7.34786 4.02344 4.80431 5.07701 2.92895 6.95237C1.05359 8.82773 9.87013e-06 11.3713 9.87013e-06 14.0234C-0.0018778 15.3352 0.267018 16.6333 0.789851 17.8364C2.30597 16.2023 5.85113 15.0493 9.99548 15.0493Z" fill="#0083CA"/>
<path d="M9.99548 15.0596C14.1262 15.0596 17.6668 16.2035 19.1829 17.8285C19.7052 16.6348 19.9742 15.3457 19.9728 14.0428C19.9728 8.68191 15.5016 4.32422 9.98639 4.32422C4.47118 4.32422 8.98382e-06 8.68191 8.98382e-06 14.0428C-0.00179191 15.3458 0.26718 16.6349 0.78985 17.8285C2.32412 16.2035 5.85113 15.0596 9.99548 15.0596Z" fill="#0085CB"/>
<path d="M9.99549 15.069C14.1126 15.069 17.6442 16.2083 19.1557 17.8152C19.6774 16.6325 19.9464 15.3539 19.9456 14.0613C19.9456 8.74125 15.4835 4.40625 9.99549 4.40625C4.50752 4.40625 0.0454203 8.74579 0.0454203 14.0613C0.0435097 15.354 0.31258 16.6328 0.835262 17.8152C2.3423 16.2083 5.87384 15.069 9.99549 15.069Z" fill="#0086CC"/>
<path d="M9.99092 15.0798C14.099 15.0798 17.626 16.2055 19.133 17.8033C19.6522 16.6374 19.9213 15.3756 19.9228 14.0993C19.9228 8.82466 15.4744 4.50781 9.99547 4.50781C4.51658 4.50781 0.0771725 8.82466 0.0771725 14.0993C0.0742279 15.3814 0.341824 16.6498 0.86247 17.8215C2.36043 16.2055 5.88289 15.0798 9.99092 15.0798Z" fill="#0088CC"/>
<path d="M9.99082 15.0884C14.0762 15.0884 17.6032 16.2051 19.1057 17.7893C19.6253 16.6285 19.893 15.3707 19.891 14.0989C19.891 8.86509 15.4561 4.56641 9.99082 4.56641C4.52554 4.56641 0.095224 8.86055 0.095224 14.0989C0.0934134 15.3702 0.359441 16.6276 0.875978 17.7893C2.37847 16.2051 5.89186 15.0884 9.99082 15.0884Z" fill="#0089CD"/>
<path d="M9.99086 15.1011C14.0762 15.1011 17.5805 16.2087 19.0694 17.7793C19.5853 16.6286 19.8514 15.3816 19.8501 14.1206C19.8501 8.92769 15.4244 4.65625 9.97725 4.65625C4.53013 4.65625 0.10889 8.93223 0.10889 14.1206C0.107805 15.3811 0.372282 16.6278 0.8851 17.7793C2.39668 16.2087 5.90553 15.1011 9.99086 15.1011Z" fill="#008BCE"/>
<path d="M9.99074 15.1144C14.0761 15.1144 17.5622 16.2084 19.0693 17.7699C19.5846 16.6286 19.8508 15.3907 19.85 14.1385C19.85 8.99094 15.4379 4.74219 10.0044 4.74219C4.57086 4.74219 0.158692 8.99094 0.158692 14.1385C0.158165 15.3902 0.422716 16.6278 0.934916 17.7699C2.41472 16.2084 5.91448 15.1144 9.99074 15.1144Z" fill="#008DCF"/>
<path d="M9.98639 15.1238C14.0717 15.1238 17.5397 16.2132 19.0332 17.7566C19.5449 16.6256 19.8095 15.3984 19.8094 14.1569C19.8094 9.05481 15.4108 4.82422 9.98639 4.82422C4.56197 4.82422 0.16797 9.05481 0.16797 14.1569C0.167379 15.3984 0.432019 16.6257 0.94418 17.7566C2.43306 16.2132 5.92375 15.1238 9.98639 15.1238Z" fill="#008ED0"/>
<path d="M9.98651 15.1326C14.0401 15.1326 17.5217 16.2129 19.006 17.7427C19.5203 16.6237 19.7851 15.4063 19.7823 14.1748C19.7823 9.11352 15.3928 4.91016 9.98651 4.91016C4.58025 4.91016 0.195331 9.11806 0.195331 14.1748C0.19278 15.4058 0.455992 16.6228 0.966997 17.7427C2.45134 16.2129 5.93295 15.1326 9.98651 15.1326Z" fill="#0090D0"/>
<path d="M9.98627 15.1465C14.0262 15.1465 17.4988 16.2133 18.9831 17.7339C19.4931 16.6233 19.7564 15.4154 19.7548 14.1933C19.7548 9.20009 15.3789 4.99219 9.98627 4.99219C4.59362 4.99219 0.217773 9.17739 0.217773 14.1933C0.217857 15.4152 0.481052 16.6228 0.989454 17.7339C2.47379 16.2133 5.94178 15.1465 9.98627 15.1465Z" fill="#0092D1"/>
<path d="M9.98651 15.152C14.0174 15.152 17.4763 16.2097 18.9606 17.7167C19.468 16.6165 19.7312 15.4194 19.7323 14.2079C19.7323 9.21466 15.3655 5.07031 9.98651 5.07031C4.60748 5.07031 0.240723 9.23736 0.240723 14.2079C0.240804 15.4196 0.504091 16.6168 1.01239 17.7167C2.49219 16.2097 5.9511 15.152 9.98651 15.152Z" fill="#0093D2"/>
<path d="M9.98161 15.1621C14.0034 15.1621 17.4578 16.2152 18.933 17.704C19.4407 16.6151 19.7041 15.4284 19.7047 14.227C19.7047 9.29733 15.347 5.14844 9.98161 5.14844C4.6162 5.14844 0.267584 9.29279 0.267584 14.227C0.266198 15.4281 0.528053 16.615 1.03472 17.704C2.50998 16.2152 5.95982 15.1621 9.98161 15.1621Z" fill="#0095D3"/>
<path d="M9.98186 15.1747C13.99 15.1747 17.4353 16.2142 18.9106 17.694C19.4163 16.6143 19.6782 15.4365 19.6777 14.2442C19.6777 9.35994 15.3337 5.23828 9.98186 5.23828C4.63007 5.23828 0.290533 9.35994 0.290533 14.2442C0.289139 15.4366 0.551089 16.6146 1.05767 17.694C2.52839 16.2142 5.96915 15.1747 9.98186 15.1747Z" fill="#0097D4"/>
<path d="M9.98163 15.1874C13.9807 15.1874 17.4169 16.2178 18.8831 17.684C19.3882 16.6169 19.6502 15.4511 19.6503 14.2705C19.6503 9.42708 15.3198 5.32812 9.98163 5.32812C4.64346 5.32812 0.312989 9.41346 0.312989 14.2705C0.312597 15.4511 0.574629 16.6171 1.08013 17.684C2.54631 16.2178 5.978 15.1874 9.98163 15.1874Z" fill="#0098D5"/>
<path d="M9.9772 15.1929C13.9672 15.1929 17.3944 16.2142 18.8605 17.6668C19.3619 16.6099 19.6224 15.4548 19.6231 14.2851C19.6231 9.48251 15.3018 5.40625 9.9772 5.40625C4.65264 5.40625 0.340332 9.49159 0.340332 14.2851C0.340049 15.455 0.600576 16.6102 1.10294 17.6668C2.56458 16.2142 5.98718 15.1929 9.9772 15.1929Z" fill="#009AD5"/>
<path d="M9.97744 15.2056C13.9538 15.2056 17.3719 16.2224 18.8335 17.6613C19.3343 16.6139 19.5948 15.4678 19.5961 14.3068C19.5961 9.54966 15.2884 5.49609 9.97744 5.49609C4.6665 5.49609 0.363281 9.54966 0.363281 14.3068C0.363534 15.4679 0.624121 16.6142 1.12587 17.6613C2.58298 16.2224 5.9965 15.2056 9.97744 15.2056Z" fill="#009CD6"/>
<path d="M9.97712 15.2156C13.9444 15.2156 17.3534 16.2188 18.8105 17.6441C19.3077 16.6069 19.5667 15.4716 19.5686 14.3214C19.5686 9.60963 15.2699 5.57422 9.97712 5.57422C4.68433 5.57422 0.403809 9.60963 0.403809 14.3214C0.404638 15.4722 0.665315 16.6081 1.1664 17.6441C2.60081 16.2188 6.00526 15.2156 9.97712 15.2156Z" fill="#009ED7"/>
<path d="M9.97712 15.225C13.9308 15.225 17.3307 16.2191 18.7833 17.6308C19.2823 16.6055 19.5415 15.4802 19.5414 14.3399C19.5414 9.66896 15.2563 5.65625 9.97712 5.65625C4.69796 5.65625 0.403814 9.66896 0.403814 14.3399C0.402503 15.4803 0.661793 16.6059 1.16188 17.6308C2.61898 16.2191 6.01434 15.225 9.97712 15.225Z" fill="#00A0D8"/>
<path d="M9.97259 15.2351C13.9172 15.2351 17.3126 16.2201 18.7606 17.6227C19.256 16.606 19.5137 15.4899 19.5141 14.359C19.5141 9.73347 15.2427 5.73438 9.98167 5.73438C4.72067 5.73438 0.449219 9.72439 0.449219 14.359C0.449201 15.49 0.706898 16.6062 1.20274 17.6227C2.63715 16.2201 6.02343 15.2351 9.97259 15.2351Z" fill="#00A1D9"/>
<path d="M9.97297 15.2477C13.9085 15.2477 17.2903 16.2237 18.7338 17.6081C19.229 16.6027 19.4868 15.497 19.4873 14.3762C19.4873 9.79607 15.2249 5.82422 9.95482 5.82422C4.68473 5.82422 0.422363 9.79607 0.422363 14.3762C0.424465 15.4968 0.682177 16.6022 1.17588 17.6081C2.67384 16.2237 6.03742 15.2477 9.97297 15.2477Z" fill="#00A3DA"/>
<path d="M9.9729 15.2572C13.8948 15.2572 17.2675 16.2241 18.711 17.595C19.2012 16.6071 19.4589 15.5202 19.4645 14.4175C19.4645 9.87822 15.2112 5.93359 9.9729 5.93359C4.73459 5.93359 0.48584 9.87822 0.48584 14.4175C0.489862 15.5199 0.746055 16.6068 1.23482 17.595C2.67376 16.2241 6.04644 15.2572 9.9729 15.2572Z" fill="#00A5DB"/>
<path d="M9.97266 15.2665C13.881 15.2665 17.2355 16.2243 18.6835 17.5861C19.1786 16.6 19.4367 15.512 19.437 14.4086C19.437 9.91474 15.1974 5.98828 9.97266 5.98828C4.74796 5.98828 0.508301 9.91474 0.508301 14.4086C0.508243 15.5115 0.764652 16.5993 1.25728 17.5861C2.67353 16.2243 6.05527 15.2665 9.97266 15.2665Z" fill="#00A7DC"/>
<path d="M9.96824 15.2792C13.872 15.2792 17.2311 16.2234 18.6609 17.5715C19.1516 16.5987 19.4081 15.5245 19.4099 14.4349C19.4099 9.98189 15.1793 6.07812 9.96824 6.07812C4.75716 6.07812 0.535645 9.98189 0.535645 14.4349C0.535857 15.5242 0.790784 16.5983 1.28008 17.5715C2.70994 16.2234 6.06447 15.2792 9.96824 15.2792Z" fill="#00A9DD"/>
<path d="M9.96801 15.2886C13.8582 15.2886 17.2081 16.2282 18.6335 17.5583C19.1241 16.5967 19.3808 15.5329 19.3824 14.4534C19.3824 10.0412 15.1655 6.16016 9.96801 6.16016C4.77055 6.16016 0.558105 10.0412 0.558105 14.4534C0.559912 15.5323 0.814901 16.5958 1.30255 17.5583C2.72788 16.2282 6.07332 15.2886 9.96801 15.2886Z" fill="#00ABDE"/>
<path d="M9.96834 15.2988C13.8494 15.2988 17.1858 16.2293 18.5929 17.5684C19.0795 16.6153 19.3345 15.5609 19.3374 14.4908C19.3374 10.124 15.134 6.26562 9.95018 6.26562C4.76634 6.26562 0.562988 10.124 0.562988 14.4908C0.570088 15.5551 0.826608 16.603 1.31196 17.5502C2.75091 16.2293 6.08273 15.2988 9.96834 15.2988Z" fill="#00ADDE"/>
<path d="M9.96368 15.3081C13.8357 15.3081 17.163 16.2159 18.5883 17.5368C19.0767 16.5958 19.332 15.5512 19.3327 14.491C19.3327 10.1696 15.1384 6.32031 9.96822 6.32031C4.798 6.32031 0.612793 10.1605 0.612793 14.491C0.613738 15.5507 0.867391 16.5948 1.3527 17.5368C2.76895 16.2295 6.09169 15.3081 9.96368 15.3081Z" fill="#00AFDF"/>
<path d="M9.96359 15.3207C13.822 15.3207 17.1447 16.2286 18.561 17.5223C19.0456 16.5914 19.2994 15.5577 19.3009 14.5082C19.3009 10.2277 15.1202 6.41016 9.96359 6.41016C4.80698 6.41016 0.630859 10.2277 0.630859 14.5082C0.631765 15.5577 0.885564 16.5916 1.37076 17.5223C2.78701 16.2286 6.10067 15.3207 9.96359 15.3207Z" fill="#00B1E0"/>
<path d="M9.96384 15.3295C13.8131 15.3295 17.1223 16.2374 18.534 17.5129C19.0185 16.5917 19.2724 15.5668 19.2739 14.5261C19.2739 10.2909 15.1068 6.49609 9.96384 6.49609C4.82086 6.49609 0.653809 10.2909 0.653809 14.5261C0.654791 15.5669 0.908712 16.5919 1.39371 17.5129C2.80542 16.2328 6.11001 15.3295 9.96384 15.3295Z" fill="#00B3E1"/>
<path d="M9.96347 15.3389C13.7991 15.3389 17.1037 16.2468 18.5109 17.4996C18.9919 16.5887 19.2443 15.5746 19.2463 14.5445C19.2463 10.3503 15.0883 6.57812 9.96347 6.57812C4.83864 6.57812 0.680664 10.3548 0.680664 14.5445C0.682673 15.5746 0.935049 16.5887 1.41604 17.4996C2.82321 16.2331 6.11871 15.3389 9.96347 15.3389Z" fill="#0DB5E2"/>
<path d="M9.95917 15.3522C13.7858 15.3522 17.0813 16.2328 18.4839 17.4857C18.9645 16.5861 19.217 15.5823 19.2193 14.5624C19.2193 10.4135 15.0749 6.66406 9.95917 6.66406C4.84342 6.66406 0.703613 10.4135 0.703613 14.5624C0.705846 15.5823 0.958349 16.5861 1.43897 17.4857C2.8416 16.2328 6.12803 15.3522 9.95917 15.3522Z" fill="#19B7E3"/>
<path d="M9.95894 15.3616C13.7765 15.3616 17.0584 16.2332 18.461 17.4769C18.9404 16.5883 19.193 15.5951 19.1963 14.5854C19.1963 10.5001 15.0611 6.74609 9.95894 6.74609C4.8568 6.74609 0.726074 10.4774 0.726074 14.5854C0.72886 15.5952 0.981487 16.5885 1.46143 17.4769C2.85953 16.2332 6.13688 15.3616 9.95894 15.3616Z" fill="#21B9E4"/>
<path d="M9.95905 15.3704C13.7629 15.3704 17.0403 16.2374 18.4384 17.463C18.914 16.5845 19.165 15.6022 19.1692 14.6033C19.1692 10.5179 15.043 6.83203 9.95905 6.83203C4.87507 6.83203 0.753418 10.5361 0.753418 14.6033C0.755454 15.6019 1.00499 16.5844 1.4797 17.463C2.8778 16.2374 6.14606 15.3704 9.95905 15.3704Z" fill="#28BBE5"/>
<path d="M9.9591 15.3934C13.7585 15.3934 17.0313 16.2559 18.4248 17.4724C18.9009 16.6007 19.1521 15.624 19.1557 14.6308C19.1557 10.5954 15.0385 6.91406 9.9591 6.91406C4.87966 6.91406 0.76709 10.6045 0.76709 14.6308C0.768519 15.6237 1.01819 16.6005 1.49337 17.4724C2.88693 16.2559 6.1552 15.3934 9.9591 15.3934Z" fill="#37BDE6"/>
<path d="M9.95929 15.4229C13.7541 15.4229 17.0224 16.2762 18.4114 17.4882C18.8882 16.6217 19.1395 15.6493 19.1422 14.6603C19.1422 10.6521 15.0296 6.98438 9.95929 6.98438C4.88893 6.98438 0.776367 10.6521 0.776367 14.6603C0.781197 15.6484 1.03072 16.62 1.50265 17.4882C2.89621 16.2762 6.15993 15.4229 9.95929 15.4229Z" fill="#43BFE6"/>
<path d="M9.95934 15.4621C13.7496 15.4621 17.0088 16.311 18.4024 17.5139C18.8757 16.6544 19.1254 15.6898 19.1287 14.7086C19.1287 10.7232 15.0433 7.07812 9.95934 7.07812C4.87537 7.07812 0.790039 10.7095 0.790039 14.7086C0.7927 15.6899 1.04248 16.6546 1.51632 17.5139C2.90534 16.2928 6.16452 15.4621 9.95934 15.4621Z" fill="#4DC0E7"/>
<path d="M9.95891 15.4624C13.7447 15.4624 16.9993 16.3067 18.3883 17.5005C18.8636 16.6481 19.115 15.6893 19.1192 14.7134C19.1192 10.7552 15.0338 7.13281 9.95891 7.13281C4.88401 7.13281 0.803223 10.7642 0.803223 14.7134C0.806564 15.6882 1.05474 16.6466 1.52496 17.5005C2.91398 16.3112 6.16863 15.4624 9.95891 15.4624Z" fill="#56C2E8"/>
<path d="M9.95896 15.4945C13.7402 15.4945 16.9903 16.3297 18.3793 17.5144C18.8503 16.6688 19.1002 15.7179 19.1056 14.75C19.1056 10.819 15.0202 7.21484 9.95896 7.21484C4.89769 7.21484 0.816895 10.819 0.816895 14.75C0.818147 15.7179 1.06658 16.6695 1.53864 17.5144C2.92311 16.3297 6.17322 15.4945 9.95896 15.4945Z" fill="#5EC4E8"/>
<path d="M9.95917 15.5181C13.7313 15.5181 16.9814 16.3488 18.3659 17.529C18.8388 16.6891 19.0888 15.7421 19.0922 14.7782C19.0922 10.8745 15.0068 7.29297 9.95917 7.29297C4.91151 7.29297 0.826172 10.8745 0.826172 14.7782C0.830134 15.7414 1.07846 16.6879 1.54791 17.529C2.93693 16.3715 6.17796 15.5181 9.95917 15.5181Z" fill="#65C6E9"/>
<path d="M9.95913 15.5405C13.7267 15.5405 16.9723 16.3667 18.3568 17.5378C18.8245 16.7059 19.0729 15.7686 19.0785 14.8142C19.0785 10.9377 14.9932 7.37891 9.95913 7.37891C4.92509 7.37891 0.85791 10.9241 0.85791 14.8051C0.862905 15.7596 1.11132 16.697 1.57965 17.5287C2.94597 16.3712 6.187 15.5405 9.95913 15.5405Z" fill="#6DC7EA"/>
<path d="M9.95913 15.5634C13.7222 15.5634 16.9632 16.385 18.3432 17.5471C18.8145 16.7166 19.0631 15.7784 19.0649 14.8235C19.0649 10.9697 14.9796 7.43359 9.95913 7.43359C4.9387 7.43359 0.85791 10.9833 0.85791 14.8371C0.858067 15.7916 1.10513 16.7299 1.57511 17.5607C2.95504 16.3714 6.19154 15.5634 9.95913 15.5634Z" fill="#74C9EA"/>
<path d="M9.95929 15.5897C13.7178 15.5897 16.9543 16.4022 18.3342 17.5598C18.8007 16.7372 19.0492 15.809 19.056 14.8634C19.056 11.0368 14.9706 7.52344 9.97746 7.52344C4.98426 7.52344 0.898926 11.0414 0.898926 14.8634C0.901513 15.809 1.14859 16.7378 1.61614 17.5598C2.9643 16.4022 6.19624 15.5897 9.95929 15.5897Z" fill="#7ACBEB"/>
<path d="M9.95924 15.6134C13.7132 15.6134 16.9452 16.4214 18.3206 17.5698C18.7888 16.7562 19.0375 15.8349 19.0423 14.8962C19.0423 11.0968 14.957 7.60156 9.96378 7.60156C4.97059 7.60156 0.885254 11.0968 0.885254 14.8962C0.890105 15.8343 1.13716 16.7552 1.60247 17.5698C2.97332 16.4214 6.20073 15.6134 9.95924 15.6134Z" fill="#81CDEC"/>
<path d="M9.95918 15.6356C13.7086 15.6356 16.936 16.4391 18.3114 17.5785C18.7762 16.7703 19.0233 15.8553 19.0286 14.923C19.0286 11.1509 14.966 7.66016 9.95011 7.66016C4.93422 7.66016 0.871582 11.1372 0.871582 14.923C0.874158 15.8556 1.12146 16.7713 1.58878 17.5785C2.98233 16.4391 6.20521 15.6356 9.95918 15.6356Z" fill="#87CFEC"/>
<path d="M9.95914 15.6619C13.704 15.6619 16.9224 16.4563 18.2978 17.5866C18.7628 16.7851 19.0101 15.8759 19.015 14.9493C19.015 11.2044 14.9569 7.75 9.95914 7.75C4.96141 7.75 0.90332 11.2044 0.90332 14.9493C0.90663 15.8755 1.15233 16.7847 1.61599 17.5866C2.99139 16.4563 6.20971 15.6619 9.95914 15.6619Z" fill="#8ED1ED"/>
<path d="M9.9592 15.6856C13.6996 15.6856 16.9134 16.4754 18.2888 17.6012C18.7525 16.8058 18.9998 15.9027 19.006 14.982C19.006 11.2598 14.9524 7.82812 9.9592 7.82812C4.96601 7.82812 0.916992 11.2644 0.916992 14.982C0.920933 15.9024 1.1667 16.8056 1.62966 17.6012C3.00052 16.4754 6.21885 15.6856 9.9592 15.6856Z" fill="#94D3EE"/>
<path d="M9.95916 15.7092C13.695 15.7092 16.9042 16.4945 18.2751 17.6112C18.7473 16.8248 19.0026 15.9274 19.015 15.0102C19.015 11.3152 14.966 7.90625 9.98186 7.90625C4.99775 7.90625 0.94873 11.3198 0.94873 15.0102C0.952649 15.9249 1.19851 16.8223 1.66138 17.6112C3.00955 16.4945 6.22334 15.7092 9.95916 15.7092Z" fill="#9AD5EF"/>
<path d="M9.95897 15.729C13.6902 15.729 16.895 16.5097 18.2613 17.6173C18.7247 16.8367 18.9722 15.9468 18.9785 15.039C18.9785 11.3713 14.9385 7.98047 9.95897 7.98047C4.9794 7.98047 0.939453 11.3713 0.939453 15.039C0.943476 15.9465 1.18949 16.8366 1.65212 17.6173C3.01844 16.5097 6.22769 15.729 9.95897 15.729Z" fill="#A0D7F0"/>
<path d="M9.95902 15.7572C13.6858 15.7572 16.8859 16.5289 18.2523 17.6274C18.7126 16.8523 18.9586 15.9687 18.9649 15.0672C18.9649 11.4358 14.9295 8.05859 9.95902 8.05859C4.98853 8.05859 0.953125 11.4267 0.953125 15.0672C0.955701 15.9686 1.20026 16.8528 1.66125 17.6274C3.02757 16.5289 6.23229 15.7572 9.95902 15.7572Z" fill="#A6D9F0"/>
<path d="M9.95908 15.7808C13.6813 15.7808 16.8769 16.548 18.2387 17.6419C18.7024 16.873 18.9502 15.9933 18.9559 15.0954C18.9559 11.464 14.925 8.13672 9.95908 8.13672C4.99312 8.13672 0.966797 11.4867 0.966797 15.0954C0.969807 15.9925 1.21442 16.8721 1.67492 17.6419C3.0367 16.548 6.23688 15.7808 9.95908 15.7808Z" fill="#ACDCF1"/>
<path d="M9.95913 15.8045C13.6723 15.8045 16.8679 16.5671 18.2297 17.652C18.6891 16.8898 18.9352 16.0181 18.9423 15.1281C18.9423 11.5376 14.916 8.21484 9.95913 8.21484C5.00226 8.21484 0.980469 11.5421 0.980469 15.1281C0.98439 16.0173 1.22742 16.889 1.68406 17.652C3.05038 16.5671 6.24148 15.8045 9.95913 15.8045Z" fill="#B2DEF2"/>
<path d="M9.95932 15.8268C13.6679 15.8268 16.859 16.5848 18.2162 17.6425C18.6756 16.8869 18.9219 16.021 18.9289 15.1368C18.9289 11.578 14.9071 8.27344 9.95932 8.27344C5.01153 8.27344 0.989746 11.578 0.989746 15.1368C0.992414 16.021 1.23732 16.8876 1.69787 17.6425C3.05965 16.5848 6.25074 15.8268 9.95932 15.8268Z" fill="#B8E0F3"/>
<path d="M9.95889 15.8518C13.6629 15.8518 16.8495 16.6008 18.2067 17.6675C18.6633 16.9176 18.908 16.0579 18.9149 15.18C18.9149 11.6439 14.9021 8.37109 9.95889 8.37109C5.01563 8.37109 1.00293 11.653 1.00293 15.18C1.00683 16.0583 1.25177 16.9188 1.71105 17.6675C3.06829 16.6008 6.25485 15.8518 9.95889 15.8518Z" fill="#BDE2F4"/>
<path d="M9.95894 15.8755C13.6584 15.8755 16.8405 16.6199 18.1932 17.6912C18.6501 16.9481 18.895 16.0941 18.9013 15.2218C18.9013 11.7129 14.8931 8.44922 9.95894 8.44922C5.02476 8.44922 1.0166 11.7175 1.0166 15.2218C1.02059 16.0938 1.26397 16.948 1.72018 17.6912C3.07742 16.6199 6.25944 15.8755 9.95894 15.8755Z" fill="#C3E5F5"/>
<path d="M9.959 15.916C13.654 15.916 16.8269 16.6559 18.1842 17.709C18.639 16.9717 18.8838 16.1241 18.8923 15.2578C18.8923 11.7762 14.8886 8.53516 9.959 8.53516C5.02936 8.53516 1.03027 11.7807 1.03027 15.2578C1.03272 16.1237 1.27466 16.9721 1.72932 17.709C3.08656 16.6377 6.26404 15.916 9.959 15.916Z" fill="#C9E7F5"/>
<path d="M9.9592 15.9168C13.6496 15.9168 16.818 16.6477 18.1707 17.6917C18.6252 16.9625 18.8702 16.1223 18.8789 15.2632C18.8789 11.8043 14.8798 8.58594 9.9592 8.58594C5.03864 8.58594 1.03955 11.8315 1.03955 15.2723C1.04375 16.1314 1.28741 16.9724 1.74314 17.7008C3.09585 16.6567 6.26878 15.9168 9.9592 15.9168Z" fill="#CEE9F6"/>
<path d="M9.95926 15.9483C13.6451 15.9483 16.809 16.6746 18.1617 17.7141C18.6141 16.9893 18.8576 16.1536 18.8653 15.2992C18.8653 11.8721 14.8753 8.67188 9.95926 8.67188C5.04323 8.67188 1.05322 11.8721 1.05322 15.2992C1.05711 16.1611 1.30413 17.0044 1.76589 17.7323C3.12767 16.6746 6.27337 15.9483 9.95926 15.9483Z" fill="#D4ECF7"/>
<path d="M9.9589 15.972C13.6402 15.972 16.7996 16.6937 18.1296 17.7241C18.5828 17.008 18.8266 16.1794 18.8332 15.3319C18.8332 11.9275 14.8477 8.75 9.94076 8.75C5.03381 8.75 1.04834 11.9275 1.04834 15.3319C1.05537 16.1841 1.30406 17.0168 1.76554 17.7332C3.12732 16.6937 6.3048 15.972 9.9589 15.972Z" fill="#DAEEF8"/>
<path d="M9.95901 15.9917C13.6358 15.9917 16.7906 16.7089 18.1297 17.7303C18.5831 17.0207 18.8284 16.1982 18.8378 15.3562C18.8378 11.979 14.8524 8.82422 9.95448 8.82422C5.05662 8.82422 1.07568 12.0017 1.07568 15.3562C1.07895 16.1965 1.318 17.0191 1.76565 17.7303C3.12743 16.7089 6.30491 15.9917 9.95901 15.9917Z" fill="#DFF1F9"/>
<path d="M9.95893 16.0199C13.6312 16.0199 16.7678 16.728 18.1296 17.7403C18.5819 17.0372 18.8259 16.2204 18.8332 15.3844C18.8332 12.0344 14.8568 8.90234 9.96348 8.90234C5.07015 8.90234 1.09375 12.039 1.09375 15.3844C1.09721 16.2203 1.33977 17.0378 1.7928 17.7403C3.12734 16.728 6.30482 16.0199 9.95893 16.0199Z" fill="#E5F3FA"/>
<path d="M9.95904 16.0436C13.6268 16.0436 16.7679 16.7472 18.1297 17.7549C18.5806 17.0578 18.8246 16.2472 18.8333 15.4171C18.8333 12.0944 14.8615 8.98047 9.9772 8.98047C5.09295 8.98047 1.12109 12.0944 1.12109 15.4171C1.12664 16.2464 1.36748 17.0571 1.8156 17.7549C3.12745 16.7472 6.30493 16.0436 9.95904 16.0436Z" fill="#EBF6FB"/>
<path d="M9.95918 16.0672C13.6224 16.0672 16.7681 16.7663 18.1026 17.7649C18.5504 17.0734 18.7928 16.2691 18.8017 15.4453C18.8017 12.1498 14.8389 9.05859 9.95918 9.05859C5.07947 9.05859 1.1167 12.1498 1.1167 15.4635C1.12167 16.2872 1.3627 17.0922 1.81121 17.7831C3.15029 16.7663 6.30507 16.0672 9.95918 16.0672Z" fill="#F1F8FD"/>
<path d="M9.95923 16.0908C13.6179 16.0908 16.7681 16.7853 18.0891 17.7748C18.5406 17.0885 18.7834 16.2859 18.7881 15.4643C18.7881 12.1915 14.8299 9.10938 9.95923 9.10938C5.0886 9.10938 1.13037 12.1825 1.13037 15.4643C1.13451 16.2804 1.37408 17.078 1.82033 17.7612C3.16396 16.7853 6.30512 16.0908 9.95923 16.0908Z" fill="#F7FBFE"/>
<path d="M9.95895 16.1172C13.5904 16.1172 16.7406 16.8026 18.0797 17.7876C18.5239 17.113 18.7665 16.3256 18.7787 15.518C18.7787 12.2724 14.825 9.22656 9.95895 9.22656C5.09286 9.22656 1.13916 12.2769 1.13916 15.518C1.14756 16.3256 1.3887 17.1136 1.83367 17.7876C3.17275 16.8253 6.30484 16.1172 9.95895 16.1172Z" fill="white"/>
<path d="M9.95907 12.8761C7.02113 12.849 4.10147 13.3407 1.33447 14.3286C2.07549 15.9929 3.28301 17.4066 4.81087 18.3988C6.33874 19.391 8.12145 19.919 9.9432 19.919C11.765 19.919 13.5476 19.391 15.0755 18.3988C16.6034 17.4066 17.8109 15.9929 18.5519 14.3286C15.7953 13.3431 12.8865 12.8514 9.95907 12.8761Z" fill="#0083CA"/>
</g>
</g>
</g>
<defs>
<clipPath id="clip0_269_12969">
<rect width="20" height="20" fill="white" transform="translate(0 0.5)"/>
</clipPath>
<clipPath id="clip1_269_12969">
<rect width="20" height="19.7867" fill="white" transform="translate(0 0.605469)"/>
</clipPath>
</defs>
</svg>
