<svg width="20" height="21" viewBox="0 0 20 21" fill="none" xmlns="http://www.w3.org/2000/svg">
<g clip-path="url(#clip0_269_13046)">
<path d="M17.445 0.5H2.55495C1.14389 0.5 0 1.64389 0 3.05495V17.945C0 19.3561 1.14389 20.5 2.55495 20.5H17.445C18.8561 20.5 20 19.3561 20 17.945V3.05495C20 1.64389 18.8561 0.5 17.445 0.5Z" fill="#E10819"/>
<path d="M9.59438 5.87737V5.79452C9.57409 5.26188 9.12431 4.84761 8.59167 4.8679H8.58829H3.3076V4.87128C3.11822 4.87128 3.00493 4.87128 2.99986 4.87128C2.49766 4.88988 2.09522 5.29232 2.07324 5.79283V15.2095C2.09861 15.7455 2.55346 16.1598 3.08947 16.1361H5.14054V14.9829H3.23489V6.03124H8.45133V8.4188H9.59776V5.87737H9.59269H9.59438Z" fill="white"/>
<path d="M5.70012 12.4417H4.43701V11.6927H8.1942V12.4417H6.93109V13.2331H5.70181V12.4417H5.70012ZM6.32237 11.456C5.89795 11.4779 5.47861 11.3646 5.12183 11.1364C4.82423 10.9284 4.65345 10.5818 4.67205 10.2182C4.66021 9.85467 4.83099 9.50972 5.1269 9.30005C5.86752 8.87394 6.77891 8.87394 7.51953 9.30005C7.81544 9.50972 7.98622 9.85467 7.97438 10.2182C7.99129 10.5818 7.8222 10.9284 7.5246 11.1364C7.16782 11.3663 6.74848 11.4779 6.32406 11.456H6.32237ZM5.70012 13.5019H11.0738V15.1354H6.9294V15.4803H11.0738V16.1448H6.51682C6.30039 16.155 6.08733 16.0823 5.92332 15.9419C5.77113 15.7982 5.68997 15.5953 5.70012 15.3856V14.4691H9.84452V14.1665H5.70012V13.5019ZM6.32237 10.7306C6.39677 10.7306 6.46948 10.7204 6.5405 10.7018C6.60982 10.6832 6.67577 10.6528 6.73495 10.6088C6.79075 10.5665 6.83809 10.5124 6.87022 10.4482C6.90573 10.3755 6.92264 10.296 6.92095 10.2165C6.93278 10.0626 6.86346 9.91385 6.73664 9.82423C6.48639 9.6619 6.16173 9.6619 5.91148 9.82423C5.78466 9.91216 5.71364 10.061 5.72548 10.2165C5.72379 10.296 5.7407 10.3755 5.77621 10.4482C5.80833 10.5107 5.85399 10.5665 5.91148 10.6088C5.96897 10.6511 6.03322 10.6832 6.10086 10.7018C6.17357 10.7221 6.24797 10.7322 6.32406 10.7322L6.32237 10.7306ZM7.30817 12.6345H8.4546V8.98892H9.59934V13.1925H7.30817V12.6362V12.6345ZM9.92737 8.98723H11.0721V13.1908H9.92737V8.98723Z" fill="white"/>
<path d="M12.3571 12.6186C12.1576 12.6406 11.9564 12.5814 11.8008 12.4546C11.6841 12.2991 11.63 12.1046 11.6486 11.9119V9.08128H12.7934V10.1432H13.6523V9.08128H14.7988V12.6186H12.3571ZM13.654 11.8358V10.8922H12.795V11.8358H13.654ZM13.6963 14.7593C13.6946 14.5294 13.747 14.3011 13.8485 14.0948C13.9516 13.8902 14.0987 13.7127 14.278 13.5723C14.4775 13.4201 14.7024 13.3052 14.9425 13.2358C15.2215 13.1547 15.5106 13.1141 15.8015 13.1175C16.0889 13.1141 16.3764 13.1547 16.652 13.2358C16.8921 13.3052 17.1187 13.4201 17.3165 13.5723C17.4974 13.7127 17.6446 13.8919 17.7511 14.0948C17.9591 14.5158 17.9591 15.0096 17.7511 15.4289C17.6446 15.6301 17.4974 15.8077 17.3165 15.9463C17.117 16.1002 16.8921 16.2135 16.6503 16.2845C16.3747 16.3657 16.0872 16.4063 15.7998 16.4029C15.5089 16.4063 15.2198 16.3657 14.9408 16.2845C14.7007 16.2152 14.4741 16.1002 14.2763 15.948C14.097 15.8094 13.9499 15.6318 13.8468 15.4306C13.7436 15.2226 13.6912 14.9927 13.6946 14.761L13.6963 14.7593ZM14.9256 14.7593C14.9137 14.9961 14.9949 15.2277 15.1522 15.4036C15.3246 15.5727 15.5597 15.6623 15.8015 15.6521C16.0433 15.6724 16.28 15.5845 16.4491 15.412C16.7518 15.0299 16.7518 14.4888 16.4491 14.1066C16.28 13.9342 16.0416 13.8462 15.7998 13.8665C15.558 13.8564 15.3246 13.946 15.1505 14.1151C14.9932 14.291 14.9104 14.5226 14.9239 14.7593H14.9256ZM16.8803 11.2795H16.3831V12.8283H15.2367V8.98828H16.3831V10.5287H16.8803V8.98828H18.025V12.9129H16.8803V11.2795Z" fill="white"/>
</g>
<defs>
<clipPath id="clip0_269_13046">
<rect width="20" height="20" fill="white" transform="translate(0 0.5)"/>
</clipPath>
</defs>
</svg>
