<svg xmlns="http://www.w3.org/2000/svg" width="100" height="99.806" viewBox="0 0 100 99.806">
    <path data-name="패스 6606" d="M2128.691 2654.291a29.223 29.223 0 0 1-41.173 0l-20.916-20.87a29.109 29.109 0 0 1 0-41.1l20.916-20.87a29.228 29.228 0 0 1 41.173 0l20.921 20.87a29.105 29.105 0 0 1 0 41.1z" transform="translate(-2058.108 -2562.967)" style="fill:#dc000c"/>
    <path data-name="패스 6607" d="M2081.45 2612.884a3.082 3.082 0 0 1-2.279-5.174 3.161 3.161 0 0 1 2.152-1 3.088 3.088 0 1 1 .255 6.17h-.129" transform="translate(-2043.855 -2532.317)" style="fill:#fff"/>
    <path data-name="패스 6608" d="M2092.237 2579.107a5.6 5.6 0 0 0-4.155 1.626c-2.375 2.346-3.621 7.207-3.508 13.669.136 7.97 2.032 23.612 8.315 31.661a14.221 14.221 0 0 0 3.245 3.1 7.235 7.235 0 0 0 4.3 1.44 9.467 9.467 0 0 0 1.673-.151c3.6-.872 8.124-4.871 11.468-10.192a2.787 2.787 0 0 1 2.36-1.305 2.82 2.82 0 0 1 1.473.428 2.777 2.777 0 0 1 .872 3.821c-4.243 6.737-9.848 11.461-14.987 12.657a1.289 1.289 0 0 0-.131.028 15.769 15.769 0 0 1-2.754.252 12.806 12.806 0 0 1-7.314-2.352 19.682 19.682 0 0 1-4.581-4.32c-8.849-11.332-9.44-32.588-9.489-34.971-.089-5.647.724-13.309 5.147-17.7a11.046 11.046 0 0 1 8.042-3.214h.518a11.053 11.053 0 0 1 8.05 3.214c4.417 4.392 5.241 12.053 5.142 17.7-.09 5.888-1.177 17.3-7.3 27.536a2.78 2.78 0 0 1-2.384 1.348 2.849 2.849 0 0 1-1.415-.383 2.783 2.783 0 0 1-.962-3.806c4.282-7.155 6.358-15.029 6.518-24.789.1-6.471-1.144-11.323-3.5-13.669a5.623 5.623 0 0 0-4.155-1.626z" transform="translate(-2043.389 -2555.53)" style="fill:#fff"/>
</svg>
