<svg xmlns="http://www.w3.org/2000/svg" xmlns:xlink="http://www.w3.org/1999/xlink" width="100" height="100" viewBox="0 0 100 100">
    <defs>
        <linearGradient id="a1q4q4mxia" x1=".594" y1=".238" x2=".278" y2="1.398" gradientUnits="objectBoundingBox">
            <stop offset="0" stop-color="#38b8ef"/>
            <stop offset="1" stop-color="#004b9e"/>
        </linearGradient>
        <linearGradient id="zq7w5ba54b" x1=".503" y1=".934" x2=".494" y2="-.373" xlink:href="#a1q4q4mxia"/>
        <linearGradient id="d6pbv6t3tc" x1=".154" y1=".51" x2="1.091" y2=".433" xlink:href="#a1q4q4mxia"/>
    </defs>
    <circle data-name="타원 74" cx="50" cy="50" r="50" style="fill:#08376b"/>
    <g data-name="그룹 484">
        <g data-name="그룹 481">
            <g data-name="그룹 480">
                <g data-name="그룹 479">
                    <path data-name="패스 953" d="M486.325 2509.859a19.84 19.84 0 0 0-4.593.533 9.89 9.89 0 0 1-.728 9.567 9.164 9.164 0 1 1-4.331 14.231v12.788a19.815 19.815 0 1 0 9.653-37.12z" transform="translate(-422.754 -2471.943)" style="fill:url(#a1q4q4mxia)"/>
                </g>
            </g>
        </g>
        <path data-name="패스 954" d="M460.907 2537.83a9.127 9.127 0 0 1-7.808-13.912 21.669 21.669 0 0 1-3-12.129 19.811 19.811 0 1 0 18.1 35.222v-12.788a9.147 9.147 0 0 1-7.292 3.607z" transform="translate(-422.111 -2471.976)" style="fill:url(#zq7w5ba54b)"/>
        <g data-name="그룹 483">
            <g data-name="그룹 482">
                <path data-name="패스 955" d="M492.432 2508.911a20.4 20.4 0 1 0-38.028 13.2 9.132 9.132 0 0 1 6.727-2.944 9.234 9.234 0 0 1 2.958.486 9.866 9.866 0 0 1 16.349-11.048 21.973 21.973 0 0 1 11.994.306z" transform="translate(-422.335 -2471.64)" style="fill:url(#d6pbv6t3tc)"/>
            </g>
        </g>
    </g>
</svg>
