<svg xmlns="http://www.w3.org/2000/svg" width="42" height="42" viewBox="0 0 42 42">
    <defs>
        <clipPath id="taibjq3c1a">
            <path data-name="사각형 22580" style="fill:none" d="M0 0h37.523v33.403H0z"/>
        </clipPath>
    </defs>
    <g data-name="그룹 82542">
        <g data-name="그룹 77769">
            <g data-name="그룹 77770" transform="translate(1.396 3.523)" style="clip-path:url(#taibjq3c1a)">
                <path data-name="패스 57530" d="M33.724 5.821h-4.131L28.082.861A1.215 1.215 0 0 0 26.921 0H10.6a1.215 1.215 0 0 0-1.161.861l-1.507 4.96H3.8A3.8 3.8 0 0 0 0 9.62v19.987a3.8 3.8 0 0 0 3.8 3.8h29.924a3.8 3.8 0 0 0 3.8-3.8V9.62a3.8 3.8 0 0 0-3.8-3.8M11.5 2.429h14.52l1.029 3.392H10.47zm23.593 14.333v12.845a1.371 1.371 0 0 1-1.37 1.37H3.8a1.371 1.371 0 0 1-1.37-1.37V9.62A1.371 1.371 0 0 1 3.8 8.249h29.924a1.371 1.371 0 0 1 1.37 1.37v7.141z"/>
                <path data-name="패스 57531" d="M18.762 28.574a8.657 8.657 0 1 1 8.657-8.657 8.656 8.656 0 0 1-8.657 8.657m0-15.179a6.523 6.523 0 1 0 6.523 6.523 6.531 6.531 0 0 0-6.523-6.523"/>
            </g>
        </g>
        <path data-name="사각형 22854" style="fill:none" d="M0 0h42v42H0z"/>
    </g>
</svg>
