<svg xmlns="http://www.w3.org/2000/svg" width="204" height="202" viewBox="0 0 204 202">
    <defs>
        <clipPath id="clip-path">
            <path id="사각형_16034" data-name="사각형 16034" transform="translate(427 638)" style="fill:none;stroke:#707070" d="M0 0h204v202H0z"/>
        </clipPath>
        <style>
            .cls-3{fill:#64ae9d}
        </style>
    </defs>
    <g id="마스크_그룹_92" data-name="마스크 그룹 92" transform="translate(-427 -638)" style="clip-path:url(#clip-path)">
        <path id="합치기_48" data-name="합치기 48" class="cls-3" d="M73.507 63.278 42.944 32.714 21.028 54.629a10 10 0 0 1-14.142 0l-4.613-4.614a10 10 0 0 1 0-14.142l33.6-33.6a10 10 0 0 1 14.143 0l4.613 4.613.077.078 26.216 26.217L111.83 2.273a10 10 0 0 1 14.142 0l4.614 4.613.077.078 28.909 28.909a10 10 0 0 1 0 14.142l-4.614 4.613a10 10 0 0 1-14.142 0L118.9 32.714 96.986 54.629a9.972 9.972 0 0 1-3.257 2.171 10.032 10.032 0 0 1-1.467 1.86l-4.613 4.613a10 10 0 0 1-14.142 0z" transform="translate(447.466 757.981)"/>
        <path id="합치기_58" data-name="합치기 58" class="cls-3" d="M3522.017 18420.477a32.007 32.007 0 0 1-17.019-41.914c.27-.637.56-1.266.869-1.881h-1.89a9.974 9.974 0 1 1 0-19.947h20.455v-5.76a10.047 10.047 0 0 1 20.066.74v5.02h20.455a9.974 9.974 0 1 1 0 19.947h-1.891c.309.615.6 1.244.869 1.881a32 32 0 0 1-41.913 41.914zm1.406-29.467a11.041 11.041 0 1 0 11.041-11.041 11.052 11.052 0 0 0-11.041 11.041z" transform="translate(-3047.189 -17683.688)"/>
        <path id="합치기_57" data-name="합치기 57" class="cls-3" d="M3504 18420a10 10 0 0 1-10-10v-28.281a10 10 0 0 1 10-10h35.637V18365H3504a10 10 0 1 1 0-20h47.176a10 10 0 0 1 10 10v26.775a10 10 0 0 1-10 10h-1.54a9.935 9.935 0 0 1-1.109-.061h-32.988v8.279h35.637a10 10 0 1 1 0 20h-45.5c-.042 0-.088.006-.134.006z" transform="translate(-2951.173 -17683.688)"/>
    </g>
</svg>
