<svg xmlns="http://www.w3.org/2000/svg" width="51" height="52" viewBox="0 0 51 52">
    <defs>
        <style>
            .cls-1{fill:#00b981}
        </style>
    </defs>
    <g id="그룹_17291" transform="translate(-0.406 0.068)">
        <g id="그룹_9889" transform="translate(2.022 13.724)">
            <path id="패스_7415-8" d="M5249.018 2838.246a7.579 7.579 0 0 1 7.446 7.356v2.541h4.967v-2.543a12.332 12.332 0 0 0-12.4-12.258h-7.456a12.258 12.258 0 0 0-.1 24.516h2.678v-4.9h-2.577a7.355 7.355 0 1 1 .008-14.71z" class="cls-1" transform="translate(-5229.264 -2833.34)"/>
            <path id="패스_7416-8" d="M5261.359 2833.343h-2.574v4.9h2.574a7.355 7.355 0 0 1 0 14.71h-7.452a7.579 7.579 0 0 1-7.446-7.354v-2.542h-4.969v2.542a12.331 12.331 0 0 0 12.4 12.259h7.46a12.259 12.259 0 0 0 .633-24.51c-.212-.006-.421-.006-.633 0z" class="cls-1" transform="translate(-5224.835 -2833.339)"/>
        </g>
        <path id="사각형_1717" fill="none" d="M0 0H51V52H0z" transform="translate(0.406 -0.068)"/>
    </g>
</svg>
