<svg xmlns="http://www.w3.org/2000/svg" width="36.25" height="36" viewBox="0 0 36.25 36">
  <g id="ico_more_normal_b_4" transform="translate(-615.632 -1061.632)">
    <rect id="사각형_10296" data-name="사각형 10296" width="36" height="36" transform="translate(615.632 1061.632)" fill="none"/>
    <g id="그룹_23756" data-name="그룹 23756" transform="translate(616.302 1063.362)">
      <g id="그룹_23756-2" data-name="그룹 23756" transform="translate(5.514 0)">
        <path id="패스_28157" data-name="패스 28157" d="M206.934,300.727V298.5a8.834,8.834,0,0,1,8.834-8.833h4.473a8.834,8.834,0,0,1,8.834,8.833v2.225" transform="translate(-205.854 -288.589)" fill="#fff" stroke="#000" stroke-width="0.5"/>
        <path id="패스_28158" data-name="패스 28158" d="M229.986,300.558h-2.161v-2.224a7.763,7.763,0,0,0-7.754-7.754H215.6a7.762,7.762,0,0,0-7.754,7.754v2.224h-2.161v-2.224a9.926,9.926,0,0,1,9.915-9.915h4.473a9.926,9.926,0,0,1,9.915,9.915Z" transform="translate(-205.684 -288.419)" stroke="#000" stroke-width="0.5"/>
      </g>
      <g id="그룹_23757" data-name="그룹 23757" transform="translate(0 11.058)">
        <path id="패스_28159" data-name="패스 28159" d="M205.9,314.354h-2.158a4.44,4.44,0,0,1-4.436-4.435v-4.271a4.441,4.441,0,0,1,4.436-4.436H205.9a1.08,1.08,0,0,1,1.08,1.08v10.98A1.08,1.08,0,0,1,205.9,314.354Zm-2.158-10.98a2.278,2.278,0,0,0-2.275,2.275v4.271a2.277,2.277,0,0,0,2.275,2.274h1.078v-8.82Z" transform="translate(-199.305 -301.213)" stroke="#000" stroke-width="0.5"/>
      </g>
      <g id="그룹_23758" data-name="그룹 23758" transform="translate(27.655 11.058)">
        <path id="패스_28160" data-name="패스 28160" d="M234.54,314.354h-2.158a1.08,1.08,0,0,1-1.08-1.08v-10.98a1.08,1.08,0,0,1,1.08-1.08h2.158a4.442,4.442,0,0,1,4.436,4.436v4.271A4.441,4.441,0,0,1,234.54,314.354Zm-1.078-2.161h1.078a2.277,2.277,0,0,0,2.275-2.274v-4.271a2.278,2.278,0,0,0-2.275-2.275h-1.078Z" transform="translate(-231.301 -301.213)" stroke="#000" stroke-width="0.5"/>
      </g>
      <g id="그룹_23759" data-name="그룹 23759" transform="translate(20.696 23.119)">
        <path id="패스_28161" data-name="패스 28161" d="M231.289,315.168v1.958a4.042,4.042,0,0,1-4.042,4.042h-4" transform="translate(-223.25 -315.167)" fill="#fff" stroke="#000" stroke-width="0.5"/>
        <path id="패스_28162" data-name="패스 28162" d="M227.248,322.248h-4v-2.161h4a2.965,2.965,0,0,0,2.961-2.961v-1.959h2.161v1.959A5.128,5.128,0,0,1,227.248,322.248Z" transform="translate(-223.25 -315.167)" stroke="#000" stroke-width="0.5"/>
      </g>
      <g id="그룹_23760" data-name="그룹 23760" transform="translate(14.934 25.698)">
        <circle id="타원_605" data-name="타원 605" cx="2.341" cy="2.341" r="2.341" transform="translate(1.081 1.08)" fill="#fff" stroke="#000" stroke-width="0.5"/>
        <path id="패스_28163" data-name="패스 28163" d="M220,324.994a3.421,3.421,0,1,1,3.421-3.422A3.426,3.426,0,0,1,220,324.994Zm0-4.682a1.261,1.261,0,1,0,1.26,1.26A1.262,1.262,0,0,0,220,320.312Z" transform="translate(-216.583 -318.151)" stroke="#000" stroke-width="0.5"/>
      </g>
    </g>
  </g>
</svg>
