<svg xmlns="http://www.w3.org/2000/svg" xmlns:xlink="http://www.w3.org/1999/xlink" width="328" height="42" viewBox="0 0 328 42">
  <defs>
    <clipPath id="clip-path">
      <rect id="사각형_17552" data-name="사각형 17552" width="328" height="42" fill="#08f"/>
    </clipPath>
    <clipPath id="clip-path-2">
      <rect id="사각형_17553" data-name="사각형 17553" width="193.476" height="40.718" fill="#08f"/>
    </clipPath>
  </defs>
  <g id="그룹_67520" data-name="그룹 67520" transform="translate(0 0)">
    <g id="그룹_66863" data-name="그룹 66863" transform="translate(0 0)">
      <g id="그룹_66862" data-name="그룹 66862" transform="translate(0 0)" clip-path="url(#clip-path)">
        <path id="패스_50964" data-name="패스 50964" d="M17.867,27.708l-2.992,5.616H42.326l-3.9,7.325H0L9.242,27.708Zm-1.776-2.54A5.533,5.533,0,0,1,13.3,22.775a5.267,5.267,0,0,1-.655-3.857,17.851,17.851,0,0,1,2.027-5.47,27.4,27.4,0,0,1,1.718-2.808,21.2,21.2,0,0,1,2.055-2.515,24.484,24.484,0,0,1,2.2-2.1,21.878,21.878,0,0,1,5.1-3.2,24.546,24.546,0,0,1,2.778-1.05,21.957,21.957,0,0,1,2.74-.611,18.522,18.522,0,0,1,2.877-.22,14.149,14.149,0,0,1,2.569.22,11.373,11.373,0,0,1,2.164.611,6.962,6.962,0,0,1,1.584,1.05,6.058,6.058,0,0,1,1.156,1.392,7.62,7.62,0,0,1,.491,1.806,10.714,10.714,0,0,1,.088,2.1,14.3,14.3,0,0,1-.649,2.515,20.24,20.24,0,0,1-1.25,2.808,26.189,26.189,0,0,1-3.826,5.47,20.649,20.649,0,0,1-4.742,3.857,22.652,22.652,0,0,1-5.39,2.393,19.788,19.788,0,0,1-5.518.782,12.363,12.363,0,0,1-4.734-.782m9.718-7.325a6.213,6.213,0,0,0,.918-.2,3.385,3.385,0,0,0,.845-.244,7.777,7.777,0,0,0,.974-.488,4.928,4.928,0,0,0,.867-.562q.466-.366.947-.806a8.232,8.232,0,0,0,1.562-2.1,5.854,5.854,0,0,0,.462-1.1,5,5,0,0,0,.188-.953,4.977,4.977,0,0,0-.128-.733,3.639,3.639,0,0,0-.228-.634c-.16-.13-.329-.261-.506-.391a4.986,4.986,0,0,0-.533-.341c-.261-.065-.5-.122-.722-.171a2.9,2.9,0,0,0-.627-.074A4.954,4.954,0,0,0,29,9.125q-.434.073-.831.171a7.527,7.527,0,0,0-.97.341c-.3.13-.584.261-.85.391a9.906,9.906,0,0,0-.954.634,5.87,5.87,0,0,0-.808.733,6.3,6.3,0,0,0-.854.953,9.321,9.321,0,0,0-.684,1.1,8.252,8.252,0,0,0-.539,1.2,2.145,2.145,0,0,0-.135.9,2.021,2.021,0,0,0-.011.806.936.936,0,0,0,.316.562,1.366,1.366,0,0,0,.381.488,1.244,1.244,0,0,0,.659.244,1.78,1.78,0,0,0,.635.2,5.336,5.336,0,0,0,1.454,0m9.9,10.794L50.2,1.434h8.624l-14.492,27.2Z" transform="translate(0 -0.212)" fill="#08f"/>
        <path id="패스_50965" data-name="패스 50965" d="M74.476,42.453q-2.71,0-4.9-.1a38.157,38.157,0,0,1-3.835-.342,25.993,25.993,0,0,1-2.966-.586,6.257,6.257,0,0,1-2.021-.879,3.077,3.077,0,0,1-1.3-1.074A2.927,2.927,0,0,1,59,38.107a3.429,3.429,0,0,1,.106-1.539,9.258,9.258,0,0,1,.78-1.881,11.59,11.59,0,0,1,1.145-1.733,12.068,12.068,0,0,1,1.586-1.636,10.866,10.866,0,0,1,1.948-1.343A20.178,20.178,0,0,1,67.1,28.828a30.067,30.067,0,0,1,3.021-.9q1.673-.414,3.655-.708,1.9-.243,4.175-.391t4.933-.147q2.563,0,4.7.147t3.834.391a19.571,19.571,0,0,1,2.826.708,12.888,12.888,0,0,1,2.082.9,5.284,5.284,0,0,1,1.261,1.147,3.329,3.329,0,0,1,.615,1.343,6,6,0,0,1-.181,1.636,7.435,7.435,0,0,1-.677,1.733,11.388,11.388,0,0,1-1.249,1.881,11.934,11.934,0,0,1-1.51,1.539,13.6,13.6,0,0,1-2.009,1.367,14.714,14.714,0,0,1-2.4,1.074,20.729,20.729,0,0,1-3.031.879q-1.611.341-3.516.586-1.955.244-4.224.342t-4.932.1m29.263-17H62.979l3.382-6.348H107.12ZM77.729,36.349q2.562,0,4.4-.074a23.812,23.812,0,0,0,2.977-.268,5.848,5.848,0,0,0,1.677-.464,2.012,2.012,0,0,0,.948-.855.529.529,0,0,0-.127-.733,3.607,3.607,0,0,0-1.218-.536q-.956-.147-2.666-.269T79.5,33.028q-2.612,0-4.451.122t-2.9.269a9.241,9.241,0,0,0-1.814.536,1.779,1.779,0,0,0-.882.733q-.287.538.013.855a2.259,2.259,0,0,0,1.256.464,15.106,15.106,0,0,0,2.592.268q1.759.074,4.422.074M111.841,2.017l-1.509,2.832a11.5,11.5,0,0,1-1.278,1.612,18.207,18.207,0,0,1-1.619,1.514q-.933.733-1.924,1.391t-1.995,1.246a11.674,11.674,0,0,0,1.2.243q.636.1,1.324.2.928.293,1.98.585t2.2.636l-5.558,5.714q-.953-.341-1.917-.66t-1.991-.61q-1.129-.2-2.207-.391t-2.184-.342q-1.13-.1-2.25-.171t-2.2-.074a2.956,2.956,0,0,1-.519.049H90.95a2.825,2.825,0,0,1-.494.049h-.419a37.727,37.727,0,0,1-4.413.927q-2.279.343-4.671.489-2.644.245-5.211.39t-4.958.2l.913-6.153q4.687-.194,8.625-.464t7.251-.659a47.092,47.092,0,0,0,5.444-.781A16.281,16.281,0,0,0,96.7,8.61H75.9l3.513-6.593Z" transform="translate(-12.833 -0.453)" fill="#08f"/>
        <path id="패스_50966" data-name="패스 50966" d="M112.9,33.075q2.416-1.757,4.534-3.467t4.012-3.321q1.741-1.514,3.416-3.174t3.2-3.419q1.475-1.659,2.884-3.564t2.775-4q1.288-2.052,2.676-4.469t2.87-5.2h8.724q-1.8,3.37-3.5,6.3T141.2,14.176q-.85,1.319-1.722,2.539t-1.744,2.393q.742,1.66,1.338,3.271t1.044,3.175a33.773,33.773,0,0,1,.6,3.589,36.527,36.527,0,0,1,.227,3.736L131.8,38.4q-.046-1.026-.066-2t-.119-1.9c-.081-.586-.19-1.155-.322-1.708s-.257-1.123-.371-1.71a4.539,4.539,0,0,1-.275-.732c-.076-.26-.142-.52-.2-.781a4.73,4.73,0,0,1-.275-.733q-.113-.391-.2-.782-.913.88-1.785,1.685t-1.706,1.538q-2.2,1.906-4.692,3.809t-5.309,3.859Zm37.84-11.818-.717.1a4.5,4.5,0,0,1-.642.049,3.854,3.854,0,0,1-.569.049h-.443a8.2,8.2,0,0,1-1.335.1h-3.943l4.163-7.814h7.491l6.478-12.16h8.625L148.877,40.938h-8.625Z" transform="translate(-24.576 -0.354)" fill="#08f"/>
      </g>
    </g>
    <g id="그룹_66864" data-name="그룹 66864" transform="translate(133.743 0.783)">
      <g id="그룹_66865" data-name="그룹 66865" transform="translate(0 0)" clip-path="url(#clip-path-2)">
        <path id="패스_50971" data-name="패스 50971" d="M7.137,39.253a10.351,10.351,0,0,1-4.51-.83,4.227,4.227,0,0,1-2.27-2.539,6.849,6.849,0,0,1-.162-3.857A19.441,19.441,0,0,1,2.188,26.9a27.386,27.386,0,0,1,3.419-5.029,24.571,24.571,0,0,1,4.325-3.953A18.1,18.1,0,0,1,14.844,15.4a17.375,17.375,0,0,1,5.458-.855,9.318,9.318,0,0,1,4.3.855,4.895,4.895,0,0,1,2.331,2.515,7.944,7.944,0,0,1,.16,3.953A17.633,17.633,0,0,1,25.2,26.9a27.93,27.93,0,0,1-3.471,5.126,23.228,23.228,0,0,1-4.225,3.857,17.959,17.959,0,0,1-4.975,2.539,17.531,17.531,0,0,1-5.4.83m25.946-26.12H8.884l3.877-7.275H20.3L23.423,0h9.118L29.42,5.859h7.54ZM11.04,31.93a3.933,3.933,0,0,0,1.438-.293,7.506,7.506,0,0,0,1.627-.928,8.972,8.972,0,0,0,1.511-1.538,15.191,15.191,0,0,0,1.456-2.27,10.866,10.866,0,0,0,.911-2.172,4.406,4.406,0,0,0,.181-1.636,2.029,2.029,0,0,0-.652-.9,1.808,1.808,0,0,0-1.112-.319,4.059,4.059,0,0,0-1.525.319,6.533,6.533,0,0,0-1.541.9A8.529,8.529,0,0,0,11.7,24.729,15.82,15.82,0,0,0,10.32,26.9a12.891,12.891,0,0,0-.988,2.27,2.708,2.708,0,0,0-.1,1.538,1.276,1.276,0,0,0,.566.928,2.3,2.3,0,0,0,1.248.293M51.755,14.256l-4.5,8.447c-.2,0-.415.008-.652.024s-.5.042-.779.074a7.2,7.2,0,0,0-.814.048,7.5,7.5,0,0,1-.864.049q-.916.146-1.757.294t-1.611.292L31.7,40.522H22.578l20.945-39.3H52.64L45.225,15.135q.793-.194,1.65-.367t1.82-.317a7.963,7.963,0,0,0,.889-.049,7.514,7.514,0,0,1,.79-.049c.279-.033.531-.056.753-.074s.431-.024.628-.024M76.064,1.245A8.737,8.737,0,0,1,78.1,2a4.924,4.924,0,0,1,1.267,1.416A6.451,6.451,0,0,1,80.1,5.37a13.461,13.461,0,0,1-.038,2.662,19.492,19.492,0,0,1-.645,3.246q-.595,1.858-1.544,4.053t-2.3,4.736q-1.406,2.638-2.812,4.858T70.022,28.9a39.142,39.142,0,0,1-2.853,3.321A36.991,36.991,0,0,1,64.41,34.81a26.091,26.091,0,0,1-2.841,2,15.543,15.543,0,0,1-2.723,1.318,16.694,16.694,0,0,1-2.855.781,15.869,15.869,0,0,1-2.768.244,12.352,12.352,0,0,1-2.605-.244,5.453,5.453,0,0,1-1.924-.781,3.674,3.674,0,0,1-1.442-1.318,4.567,4.567,0,0,1-.634-2,7.678,7.678,0,0,1-.05-2.587,18.933,18.933,0,0,1,.784-3.321,29.667,29.667,0,0,1,1.479-3.979q.987-2.221,2.392-4.858,1.353-2.538,2.721-4.736a49.129,49.129,0,0,1,2.8-4.053,42.022,42.022,0,0,1,2.715-3.246A26.719,26.719,0,0,1,62.308,5.37a20.509,20.509,0,0,1,2.74-1.951A19.978,19.978,0,0,1,67.947,2a17.931,17.931,0,0,1,2.744-.758A15.358,15.358,0,0,1,73.568.976a10.773,10.773,0,0,1,2.5.268M68.446,9.154q-.434.123-.807.269a5.815,5.815,0,0,0-1.016.611,8.384,8.384,0,0,0-1.049.952,11.324,11.324,0,0,0-1.236,1.44q-.628.854-1.321,1.879-.8,1.124-1.637,2.563t-1.777,3.2q-.99,1.856-1.683,3.3a22.6,22.6,0,0,0-1.043,2.466q-.451,1.124-.721,1.952a5.2,5.2,0,0,0-.286,1.417,2.985,2.985,0,0,0,.021.976.724.724,0,0,0,.4.537.769.769,0,0,0,.5.318,3.419,3.419,0,0,0,.726.074,3.749,3.749,0,0,0,.68-.074,4,4,0,0,0,.908-.318,4.143,4.143,0,0,0,.9-.537,11.925,11.925,0,0,0,1.137-.976q.509-.587,1.173-1.417t1.46-1.952q.694-1.025,1.561-2.466t1.854-3.3q.938-1.756,1.606-3.2T69.916,14.3q.35-1.025.583-1.879t.35-1.44a2.832,2.832,0,0,0-.11-.952,2.6,2.6,0,0,0-.29-.611c-.212-.1-.411-.187-.6-.269a1.441,1.441,0,0,0-.576-.122,3.1,3.1,0,0,0-.829.122m-.033,31.369,20.945-39.3h9.117l-20.944,39.3ZM101.758,8.934H99.885l3.9-7.323H123.5l-3.9,7.323h-1.922L105.865,31.1h1.922l-3.9,7.323H84.17l3.9-7.323h1.874ZM99.162,31.1,110.974,8.934H108.46L96.648,31.1ZM125.7,22.556q-.719.146-1.486.293A8.047,8.047,0,0,1,122.7,23l-9.445,17.722h-7.836l21.048-39.5h7.836L127.125,14.7h2.761l7.181-13.475h7.787L123.8,40.718h-7.786Zm2.517,17.381,4.163-7.812L153,32.089c6.8-.012,13.621.339,20.4-.3,7.059-.663,13.325-3.168,20.068-5.091a36.022,36.022,0,0,1-3,4.117c-5.683,6.582-8.427,7.419-17.335,8.5,0,0-5.919.391-13.459.5-13.234.182-31.466.124-31.466.124m10.359-18.7a78.071,78.071,0,0,0,8.711-3.906,70.232,70.232,0,0,0,7.621-4.637,41.674,41.674,0,0,0,6.136-5.225,30.97,30.97,0,0,0,4.453-5.859h9.216q-1.192,2.051-2.551,3.955a42.527,42.527,0,0,1-2.937,3.662q1.54,1.269,2.921,2.563a25.634,25.634,0,0,1,2.476,2.66q.994,1.465,2.005,3.173a38.864,38.864,0,0,1,1.939,3.759l-9.3,6.542a29.718,29.718,0,0,0-1.623-3.612,32.794,32.794,0,0,0-2-3.272q-1.123-1.221-2.226-2.343a27.483,27.483,0,0,0-2.306-2.1l-.983.732q-2.34,1.71-4.785,3.246t-4.972,2.856Q147.687,24.852,145.08,26t-5.172,2.075Z" transform="translate(0 0)" fill="#08f"/>
      </g>
    </g>
  </g>
</svg>
