<svg xmlns="http://www.w3.org/2000/svg" id="prefix__ico_small_bank14_대구은행" width="40" height="40" viewBox="0 0 40 40">
    <defs>
        <linearGradient id="prefix__linear-gradient" x1="-.017" x2="1.007" y1=".5" y2=".5" gradientUnits="objectBoundingBox">
            <stop offset=".1" stop-color="#0064b6"/>
            <stop offset=".224" stop-color="#006abc"/>
            <stop offset=".396" stop-color="#007bce"/>
            <stop offset=".4" stop-color="#007ccf"/>
            <stop offset=".75" stop-color="#009e84"/>
            <stop offset="1" stop-color="#6dad19"/>
        </linearGradient>
        <style>
            .prefix__cls-1{fill:#0064b6}.prefix__cls-2{fill:#fff}
        </style>
    </defs>
    <circle id="prefix__타원_78" cx="20" cy="20" r="20" class="prefix__cls-1" data-name="타원 78"/>
    <g id="prefix__그룹_490" data-name="그룹 490" transform="translate(-804.335 -2135.393)">
        <g id="prefix__그룹_488" data-name="그룹 488" transform="translate(808.827 2144.393)">
            <path id="prefix__패스_974" d="M825.113 2144.393c-9.816 0-16.286 5.152-16.286 11.509s6.47 11.507 16.286 11.507 16.29-5.153 16.29-11.507-6.472-11.509-16.29-11.509z" class="prefix__cls-2" data-name="패스 974" transform="translate(-808.827 -2144.393)"/>
            <path id="prefix__패스_975" d="M828.43 2160.593c2.8-.486 12.239-2.427 11.076-7.815-.417-1.934-2.406-4.059-5.406-5.537a21 21 0 0 0-8.609-1.706c-9.113 0-15.451 4.817-15.451 10.759 0 4.138 3.076 7.729 8.023 9.527 1.05-2.762 5.229-4.336 10.367-5.228z" class="prefix__cls-1" data-name="패스 975" transform="translate(-809.243 -2144.784)"/>
            <path id="prefix__패스_976" fill="url(#prefix__linear-gradient)" d="M829.9 2167.3c-4.088.513-5.962 1.832-7.167 3.436a21.939 21.939 0 0 0 7.108 1.115c9.116 0 15.453-4.817 15.453-10.756a8.213 8.213 0 0 0-.148-1.551c-.302 6.974-10.777 7.2-15.246 7.756z" data-name="패스 976" transform="translate(-813.592 -2149.584)"/>
        </g>
        <g id="prefix__그룹_489" data-name="그룹 489" transform="translate(813.224 2150.206)">
            <path id="prefix__패스_977" d="M818.573 2153.356h-3.057l.036.087a4.423 4.423 0 0 1 .118 1.462v7.057h.06c.014 0 1.392.049 2.7.049a4.339 4.339 0 0 0 4.564-4.6c-.004-2.463-1.738-4.055-4.421-4.055zm-1.6.769c.176-.014.715-.052 1.1-.052 2.334 0 3.421 1.131 3.421 3.56 0 2.51-.966 3.731-2.953 3.731-1.456 0-1.573-.07-1.573-.933z" class="prefix__cls-2" data-name="패스 977" transform="translate(-815.516 -2153.277)"/>
            <path id="prefix__패스_978" d="M835.48 2161.863c-.046-.5-.065-.848-.065-1.145v-3.018h-1.451l.047.093a2.189 2.189 0 0 1 .148.924c0 .021 0 2.094-.054 2.585a5.048 5.048 0 0 1-1.123.123c-2.3 0-3.473-1.324-3.473-3.93a3.433 3.433 0 0 1 3.2-3.61 3.554 3.554 0 0 1 2.546.72l.1.091v-1.219l-.051-.008a10.524 10.524 0 0 0-1.987-.237c-3.317 0-5.3 1.745-5.3 4.669 0 3.114 2.419 4.224 4.683 4.224a17.714 17.714 0 0 0 2.723-.2l.058-.01z" class="prefix__cls-2" data-name="패스 978" transform="translate(-819.802 -2153.236)"/>
            <path id="prefix__패스_979" d="M845.27 2157.236a2.121 2.121 0 0 0 1.626-2.021c0-1.166-1.052-1.859-2.812-1.859h-2.614l.018.077a5.961 5.961 0 0 1 .076 1.139v7.463h.065c.01 0 1.028-.021 2.287-.021 2.2 0 3.458-.953 3.458-2.617a2.379 2.379 0 0 0-2.104-2.161zm-2.4.419h.676c1.558 0 2.347.611 2.347 1.817 0 1.272-.68 1.891-2.08 1.891-.678 0-.943-.246-.943-.874zm.007-3.625h.855c1.344 0 1.917.406 1.917 1.359 0 1.086-.705 1.591-2.219 1.591h-.559z" class="prefix__cls-2" data-name="패스 979" transform="translate(-824.41 -2153.277)"/>
        </g>
    </g>
</svg>
