<svg id="ico_small_bank20_산림금융" xmlns="http://www.w3.org/2000/svg" width="36" height="36">
    <defs>
        <style>
            .cls-2{fill:#fff}
        </style>
    </defs>
    <circle id="타원_86" data-name="타원 86" cx="18" cy="18" r="18" style="fill:#001952"/>
    <g id="그룹_521" data-name="그룹 521" transform="translate(8.1 4.499)">
        <g id="그룹_520" data-name="그룹 520" transform="translate(.184 7.595)">
            <g id="그룹_519" data-name="그룹 519" transform="translate(11.071 .013)">
                <path id="패스_1501" data-name="패스 1501" class="cls-2" d="M1065.114 1908.017c0 3.573-1.145 4.994-3.243 5.589-.059.017-.06.078.005.094a6.753 6.753 0 0 0 1.648.179c3.154 0 5.5-2.159 5.5-5.862v-12.355h-3.906z" transform="translate(-1061.828 -1895.662)"/>
            </g>
            <path id="패스_1502" data-name="패스 1502" class="cls-2" d="M1044.278 1901.392c-3.482-2.193-3.781-2.622-3.781-3.385 0-.718.791-1.553 3.148-2.254.083-.025.092-.1-.011-.1-3.582-.194-6.109 1.639-6.109 3.7 0 1.5.548 2.427 4.127 4.682 3.506 2.208 3.888 2.63 3.888 3.441 0 .989-1.136 1.973-3.23 2.6-.087.025-.1.1.012.108 3.9.21 6.313-1.749 6.313-3.8-.001-1.422-.552-2.595-4.357-4.992z" transform="translate(-1037.525 -1895.634)"/>
        </g>
        <path id="패스_1503" data-name="패스 1503" class="cls-2" d="M1040.193 1918.456a4.789 4.789 0 0 0-2.986-1.477.073.073 0 0 0-.062.016.076.076 0 0 0-.022.06 4.512 4.512 0 0 0 4.144 4.6.078.078 0 0 0 .062-.016.074.074 0 0 0 .022-.06 4.789 4.789 0 0 0-1.158-3.123z" transform="translate(-1037.122 -1899.66)"/>
        <path id="패스_1504" data-name="패스 1504" class="cls-2" d="M1055.5 1897.4a4.788 4.788 0 0 0-2.986-1.478.073.073 0 0 0-.062.016.074.074 0 0 0-.022.06 4.51 4.51 0 0 0 4.143 4.6.068.068 0 0 0 .084-.076 4.786 4.786 0 0 0-1.157-3.122z" transform="translate(-1045.456 -1888.196)"/>
        <path id="패스_1505" data-name="패스 1505" class="cls-2" d="M1069.806 1880.821a6.02 6.02 0 0 0-3.755-1.858.094.094 0 0 0-.078.02.1.1 0 0 0-.028.076 5.672 5.672 0 0 0 5.21 5.786.086.086 0 0 0 .106-.095 6.02 6.02 0 0 0-1.455-3.929z" transform="translate(-1052.815 -1878.961)"/>
    </g>
</svg>
