<svg xmlns="http://www.w3.org/2000/svg" width="110" height="72" viewBox="0 0 110 72">
    <defs>
        <clipPath id="clip-path">
            <path id="사각형_16984" data-name="사각형 16984" class="cls-1" d="M0 0h110v72H0z"/>
        </clipPath>
        <style>
            .cls-1{fill:#fff}
        </style>
    </defs>
    <g id="그룹_65473" data-name="그룹 65473">
        <g id="그룹_65472" data-name="그룹 65472" style="clip-path:url(#clip-path)">
            <path id="패스_50306" data-name="패스 50306" class="cls-1" d="M92.771 35.535a20.274 20.274 0 0 1 13.724 5.337v-15.8H0v34.185A6.009 6.009 0 0 0 6.033 65.2h69.116a19.581 19.581 0 0 1-2.6-9.74 20.1 20.1 0 0 1 20.222-19.925" transform="translate(0 -.446)"/>
            <path id="패스_50307" data-name="패스 50307" class="cls-1" d="M106.495 5.947A6.009 6.009 0 0 0 100.461 0H6.033A6.009 6.009 0 0 0 0 5.947v5.915h106.495z"/>
            <path id="패스_50308" data-name="패스 50308" class="cls-1" d="M92.612 54.866h.96l-.472-1.842z" transform="translate(-.331 -.944)"/>
            <path id="패스_50309" data-name="패스 50309" class="cls-1" d="m97.334 60.428.851-3.27h-1.7z" transform="translate(-.345 -1.018)"/>
            <path id="패스_50310" data-name="패스 50310" class="cls-1" d="M93.041 38.725a16.984 16.984 0 1 0 17.229 16.982 17.106 17.106 0 0 0-17.229-16.982m9.807 17.833a.275.275 0 0 1-.277.272h-2.086l-1.952 7.255a.28.28 0 0 1-.27.2h-2.008a.277.277 0 0 1-.268-.205L94.1 56.83h-2.138l-1.89 7.253a.275.275 0 0 1-.268.205h-2.009a.278.278 0 0 1-.268-.2L85.6 56.83h-2.091a.275.275 0 0 1-.277-.272v-1.673a.276.276 0 0 1 .277-.273H85l-1.45-5.442a.273.273 0 0 1 .049-.237.277.277 0 0 1 .219-.106H85.7a.278.278 0 0 1 .269.206l1.419 5.579h2.829l1.444-5.58a.276.276 0 0 1 .268-.205h2.23a.278.278 0 0 1 .27.206l1.42 5.579h2.828l1.444-5.58a.275.275 0 0 1 .267-.205h1.9a.273.273 0 0 1 .218.107.266.266 0 0 1 .048.237l-1.468 5.441h1.49a.276.276 0 0 1 .277.273z" transform="translate(-.271 -.69)"/>
            <path id="패스_50311" data-name="패스 50311" class="cls-1" d="m88.844 60.428.849-3.27h-1.7z" transform="translate(-.315 -1.018)"/>
        </g>
    </g>
</svg>
