<svg xmlns="http://www.w3.org/2000/svg" width="155" height="62" viewBox="0 0 155 62">
    <defs>
        <clipPath id="cl8u0131ia">
            <path data-name="사각형 17060" style="fill:none" d="M0 0h115v48.302H0z"/>
        </clipPath>
        <clipPath id="qqnq864kib">
            <path data-name="패스 50469" d="M304.789 153.267c1.894 0 2.66 1.7 2.964 3.008h-6.1c.406-1.7 1.428-3.008 3.139-3.008m-6.521 3.008h-3.711a1.119 1.119 0 1 0 0 2.238h3.529a6.925 6.925 0 0 0 6.758 6.979 7.015 7.015 0 0 0 5.317-2.474c.584-.594 1.048-1.474.447-2.05a1.531 1.531 0 0 0-2.145.031 5.685 5.685 0 0 1-3.619 1.5c-1.929 0-3.237-1.732-3.385-3.983h8.616a1.126 1.126 0 0 0 1.133-1.119V157.339c0-3.191-2.629-7.065-6.422-7.065-3.218 0-5.821 2.424-6.521 6" transform="translate(-293.427 -150.271)" style="fill:none"/>
        </clipPath>
        <linearGradient id="egem6yl8qc" x1="-2.307" y1="1.011" x2="-2.299" y2="1.011" gradientUnits="objectBoundingBox">
            <stop offset="0" stop-color="#005dab"/>
            <stop offset=".285" stop-color="#005dab"/>
            <stop offset=".397" stop-color="#006cb7"/>
            <stop offset=".613" stop-color="#0093d9"/>
            <stop offset=".745" stop-color="#00aff1"/>
            <stop offset="1" stop-color="#00aff1"/>
        </linearGradient>
    </defs>
    <g data-name="그룹 82246">
        <g data-name="그룹 65534">
            <g data-name="그룹 65535">
                <g data-name="그룹 65534" style="clip-path:url(#cl8u0131ia)" transform="translate(15 6.803)">
                    <path data-name="패스 50466" d="M19.643 0 .479 17.527A1.468 1.468 0 0 0 .4 19.62a1.5 1.5 0 0 0 1.1.473 1.523 1.523 0 0 0 .189-.017 1.518 1.518 0 0 0 .171.017h7.264v15.294a1.918 1.918 0 0 0 3.836 0v-7.01h7.148v7.01a1.918 1.918 0 0 0 3.836 0v-16.43a1.918 1.918 0 0 0-3.836 0v5.8H12.96v-5.8a1.906 1.906 0 0 0-1.918-1.894l-5.665.013L17.888 5.6c1.734-1.606 2.954-1.637 4.662-.12 1.669 1.483 7.821 6.967 11.049 9.845l1.935 1.726h18.6a1.22 1.22 0 0 0 1.142-.781 1.2 1.2 0 0 0-.339-1.331L37.659 0z" style="fill:#005dab"/>
                    <path data-name="패스 50467" d="M140.942 115.787c-4.311 0-6.48 3.354-6.48 7.491s2.341 7.491 6.48 7.491 6.48-3.354 6.48-7.491-2.169-7.491-6.48-7.491m0 12.131c-1.986 0-3.108-2.077-3.108-4.64s1.041-4.64 3.108-4.64 3.108 2.077 3.108 4.64-1.123 4.64-3.108 4.64" transform="translate(-108.309 -93.545)" style="fill:#005dab"/>
                    <path data-name="패스 50468" d="M224.628 115.411a5.939 5.939 0 0 0-4.333 2.6 3.363 3.363 0 0 0-3.288-2.6 5.873 5.873 0 0 0-4.138 2.237v-.748a1.674 1.674 0 0 0-3.347 0v11.664a1.674 1.674 0 0 0 3.347 0v-7.043c0-1.35.962-3.1 2.395-3.1 1.451 0 2.1.868 2.1 1.636v8.506a1.674 1.674 0 0 0 3.347 0v-6.355c0-1.808.962-3.788 2.395-3.788a1.949 1.949 0 0 1 2.1 1.829v8.313a1.674 1.674 0 0 0 3.347 0v-8.012c0-3.465-1.034-5.144-3.933-5.144" transform="translate(-168.771 -93.111)" style="fill:#005dab"/>
                </g>
            </g>
            <g data-name="그룹 65537">
                <g data-name="그룹 65536" style="clip-path:url(#qqnq864kib)" transform="translate(72.071 35.67)">
                    <path data-name="패스 57173" d="m0 0 23.358.145.142 23.295-23.355-.145z" transform="rotate(-44.076 5.247 13.196)" style="fill:url(#egem6yl8qc)"/>
                </g>
            </g>
            <g data-name="그룹 65539">
                <g data-name="그룹 65538" style="clip-path:url(#cl8u0131ia)" transform="translate(15 6.803)">
                    <path data-name="패스 50470" d="M393.414 115.014h-.714c-.2 0-.337-.086-.337-.316v-7.881h1.453a1.274 1.274 0 1 0 0-2.549h-1.453v-2.385a1.739 1.739 0 0 0-3.47 0v2.385h-.714a1.274 1.274 0 1 0 0 2.549h.714v8.326a2.876 2.876 0 0 0 2.925 2.889h1.591a1.514 1.514 0 1 0 0-3.018" transform="translate(-311.643 -81.004)" style="fill:#005dab"/>
                    <path data-name="패스 50471" d="M444.768 128.028a4.49 4.49 0 0 1-.3-1.205v-7.663c0-1.835-1.688-3.745-5.536-3.745a5.774 5.774 0 0 0-5.318 2.927 1.518 1.518 0 0 0 .349 1.937 1.618 1.618 0 0 0 2.094-.357 3.415 3.415 0 0 1 2.875-1.58c1.977 0 2.4 1.248 2.4 1.808v.559a2.7 2.7 0 0 1-1.875.9c-2.092.086-6.931.387-6.931 4.778 0 3.013 2.4 3.918 4.664 3.918a6.023 6.023 0 0 0 4.156-2.188 2.689 2.689 0 0 0 1.055 2.005 1.56 1.56 0 0 0 1.066.225 2.068 2.068 0 0 0 1.09-.56 2.236 2.236 0 0 0 .218-1.765m-4.4-1.248a3.394 3.394 0 0 1-2.528 1.119 1.872 1.872 0 0 1-1.875-1.851 2.3 2.3 0 0 1 2.528-1.937 4.449 4.449 0 0 0 2.833-.869v2.234a5.47 5.47 0 0 1-.959 1.3" transform="translate(-348.396 -93.244)" style="fill:#005dab"/>
                    <path data-name="패스 50472" d="m510.74 122.579 2.467-3.666a3.168 3.168 0 0 0 0-3.277 1.236 1.236 0 0 0-2.206 0l-2.468 3.666-2.467-3.666a1.236 1.236 0 0 0-2.206 0 3.167 3.167 0 0 0 0 3.277l2.467 3.666-2.467 3.666a3.167 3.167 0 0 0 0 3.277 1.236 1.236 0 0 0 2.206 0l2.467-3.666 2.467 3.666a1.236 1.236 0 0 0 2.206 0 3.168 3.168 0 0 0 0-3.277z" transform="translate(-405.493 -92.875)" style="fill:#005dab"/>
                    <path data-name="패스 50473" d="M573.808 182.182a2.108 2.108 0 1 1-2.108-2.082 2.095 2.095 0 0 1 2.108 2.082" transform="translate(-458.808 -145.503)" style="fill:#019f40"/>
                    <path data-name="패스 50474" d="M426.34 204.534s-7.846 6.945-18.307 6.945a24.516 24.516 0 0 1-14.715-4.681 3.026 3.026 0 0 0-.2-.719s-.274-.276-.482-.458-.429-.337-.429-.337a2.192 2.192 0 0 0-.46.4 2.157 2.157 0 0 0-.345.5 4.825 4.825 0 0 0 .392.379c.244.213.52.416.52.416a2.887 2.887 0 0 0 .791.1c2.167 2.1 7.516 6.469 14.577 6.469 9.3 0 14.733-5.137 18.656-9.012" transform="translate(-315.278 -165.244)" style="fill:#fa9f1d"/>
                </g>
            </g>
        </g>
        <path data-name="사각형 24366" style="fill:none" d="M0 0h155v62H0z"/>
    </g>
</svg>
