<svg xmlns="http://www.w3.org/2000/svg" width="155" height="62" viewBox="0 0 155 62">
    <defs>
        <clipPath id="uz0i5rkw1a">
            <path data-name="사각형 24365" style="fill:none" d="M0 0h142.846v48.644H0z"/>
        </clipPath>
    </defs>
    <g data-name="그룹 82245">
        <g data-name="그룹 82242">
            <g data-name="그룹 82241" style="clip-path:url(#uz0i5rkw1a)" transform="translate(6 7)">
                <path data-name="패스 57165" d="M92.141 142.8a15.445 15.445 0 0 1-3.611-.3c-.688-.188-1.046-.522-1.046-.972v-3.014h-2.608v3.014a2.435 2.435 0 0 0 .953 2.083c.934.659 4.641.863 6.226.862h.086a31.006 31.006 0 0 0 5.7-.635v-1.666a26.98 26.98 0 0 1-5.7.63m5.545-16.016h-2.608v12.577h2.609zm-5.192 8.2v-7.824h-9.412v7.824a1.265 1.265 0 0 0 1.264 1.261h6.887a1.263 1.263 0 0 0 1.262-1.261m-2.608-.364h-4.2v-5.835h4.2z" transform="translate(-63.159 -96.382)" style="fill:#8a8a81"/>
                <path data-name="패스 57166" d="M16.381 136.334v-1.624H0v1.624h7.055v2.524H1.613v1.624h10.538v4.884h2.609v-5.25a1.262 1.262 0 0 0-1.259-1.258H9.664v-2.524zm-4.186-4.317a10.588 10.588 0 0 1-.341 2.684l2.4.009a6.884 6.884 0 0 0 .543-2.693v-2.386a1.264 1.264 0 0 0-1.264-1.263H1.679v1.627h10.516z" transform="translate(0 -97.585)" style="fill:#8a8a81"/>
                <path data-name="패스 57167" d="M314.515 137.172c-.009 0-.016-.006-.026-.007.01 0 .017.006.026.007m4.037 5.6v-3.782h.017l.125-.007a18.91 18.91 0 0 0 3.075-.427c.041-.01.086-.024.134-.033a1.659 1.659 0 0 0 1.53-1.713v-8.44h-2.609v3.285h-7.174v-3.285h-2.607v8.44a1.633 1.633 0 0 0 1.418 1.685 21.338 21.338 0 0 0 3.342.483l.141.009v3.789h-6.992v1.624h16.571v-1.627zm-4.016-5.58h-.007a.968.968 0 0 1-.88-.941.111.111 0 0 1 0-.025v-2.948h7.173v2.971a.973.973 0 0 1-.891.946 18.4 18.4 0 0 1-5.4 0" transform="translate(-234.865 -97.586)" style="fill:#8a8a81"/>
                <path data-name="패스 57168" d="M168.195 132.476h3.44v6.887h2.609v-12.578h-2.607v4.067h-3.1c.02-.2.035-.409.042-.624v-.144h.006v-1.655a1.265 1.265 0 0 0-1.263-1.263h-7.38v1.625h6.028v1.14a5.16 5.16 0 0 1-1.6 3.927 6.726 6.726 0 0 1-4.5 1.512v1.625a12.781 12.781 0 0 0 4.787-.852 6.034 6.034 0 0 0 3.534-3.666m.5 10.325a15.457 15.457 0 0 1-3.612-.3c-.687-.188-1.046-.522-1.046-.972v-3.014h-2.609v3.014a2.433 2.433 0 0 0 .954 2.083c.933.659 4.64.863 6.226.862h.085a31.013 31.013 0 0 0 5.7-.635v-1.666a27 27 0 0 1-5.7.63" transform="translate(-121.535 -96.382)" style="fill:#8a8a81"/>
                <path data-name="패스 57169" d="M387.992 141.053a1.651 1.651 0 0 0 1.5 1.7 23.382 23.382 0 0 0 4.969.508 19.567 19.567 0 0 0 4.435-.445 1.249 1.249 0 0 1 .193-.055 1.655 1.655 0 0 0 1.529-1.712v-4.3h-12.626zm2.61-.579v-2.09h7.405v2.118a.985.985 0 0 1-.952.956l-.025.006a16.9 16.9 0 0 1-2.571.177 21.964 21.964 0 0 1-2.9-.182.989.989 0 0 1-.959-.957.116.116 0 0 1 0-.028m7.4-14.892v4.772h-2.031a3.91 3.91 0 0 0-1.241-1.9h1.521v-1.625h-3.811V125.2h-2.608v1.63h-3.813v1.625h1.552a3.812 3.812 0 0 0-1.376 2.922c0 2.281 2.028 4.131 4.964 4.131 2.685 0 4.59-1.535 4.91-3.531h1.934v3.4h2.608v-9.8zm-6.844 8.25a2.455 2.455 0 1 1 2.35-2.453 2.371 2.371 0 0 1-2.35 2.453" transform="translate(-293.454 -95.179)" style="fill:#8a8a81"/>
                <path data-name="패스 57170" d="M243.368 130.078v-.147h.007v-1.5a1.265 1.265 0 0 0-1.264-1.264h-7.381v1.624h6.028v.996a4.729 4.729 0 0 1-1.606 3.779 7.1 7.1 0 0 1-4.5 1.357v1.626h.299a12.172 12.172 0 0 0 4.95-.9 5.844 5.844 0 0 0 3.459-5.565m5.287-.043v-3.251h-2.609v9.8h2.609v-4.92h2.315v-1.625zm-5.859 6.821c-3.628 0-6.089 1.828-6.089 4.085s2.378 4.085 6.089 4.085 6.089-1.828 6.089-4.085-2.454-4.085-6.089-4.085m0 6.489c-1.978 0-3.3-1.076-3.3-2.4s1.306-2.4 3.3-2.4c1.963 0 3.305 1.076 3.305 2.4s-1.259 2.4-3.305 2.4" transform="translate(-178.389 -96.381)" style="fill:#8a8a81"/>
                <path data-name="패스 57171" d="M470.815 0c-9.285.081-16.935 6.874-16.858 15.632a15.016 15.016 0 0 0 6.3 11.783l-1.043 5.039c19.588 5.653 28.8-8.587 28.725-17.085C487.867 6.708 480.265-.082 470.815 0m1.316 24.066-.041-1.758c-6.842-.018-9.839-4.3-9.87-7.776-.023-2.665 1.807-5.487 4.847-5.514a4.71 4.71 0 0 1 3.845 2 4.431 4.431 0 0 1 3.914-2.083c2.026-.018 4.752 1.685 4.786 5.631.032 3.709-2.642 7.774-7.48 9.5" transform="translate(-345.098)" style="fill:#ee403c"/>
                <path data-name="패스 57172" d="m492.277 106.861-.159-6.716a17.934 17.934 0 0 1-11.162-.069l-.708 3.418a18.516 18.516 0 0 0 12.029 3.367" transform="translate(-365.084 -76.078)" style="fill:#840e11"/>
            </g>
        </g>
        <path data-name="사각형 24368" style="fill:none" d="M0 0h155v62H0z"/>
    </g>
</svg>
