<svg xmlns="http://www.w3.org/2000/svg" width="22.5" height="20.5">
    <defs>
        <style>
            .cls-1{stroke:#000;stroke-width:.5px}
        </style>
    </defs>
    <g id="그룹_57743" data-name="그룹 57743" transform="translate(-967.092 -88.626)">
        <g id="그룹_57740" data-name="그룹 57740" transform="translate(967.342 90.842)">
            <path id="패스_45932" data-name="패스 45932" class="cls-1" d="M987.641 116.859h-18.6a1.679 1.679 0 0 1-1.7-1.651v-14.731a1.679 1.679 0 0 1 1.7-1.652h18.6a1.678 1.678 0 0 1 1.7 1.652v14.731a1.678 1.678 0 0 1-1.7 1.651zm-18.6-16.705a.332.332 0 0 0-.333.323v14.731a.332.332 0 0 0 .333.323h18.6a.332.332 0 0 0 .333-.323v-14.731a.332.332 0 0 0-.333-.323z" transform="translate(-967.342 -98.825)"/>
        </g>
        <path id="패스_45933" data-name="패스 45933" class="cls-1" d="M994.088 92.462a.945.945 0 0 1-.918.97.945.945 0 0 1-.918-.97v-2.616a.945.945 0 0 1 .918-.97.945.945 0 0 1 .918.97z" transform="translate(-19.841)"/>
        <path id="패스_45934" data-name="패스 45934" class="cls-1" d="M1044.2 92.462a.945.945 0 0 1-.918.97.945.945 0 0 1-.918-.97v-2.616a.945.945 0 0 1 .918-.97.945.945 0 0 1 .918.97z" transform="translate(-59.758)"/>
        <path id="패스_45935" data-name="패스 45935" class="cls-1" d="M1019.145 92.462a.945.945 0 0 1-.918.97.945.945 0 0 1-.918-.97v-2.616a.945.945 0 0 1 .918-.97.945.945 0 0 1 .918.97z" transform="translate(-39.799)"/>
        <g id="그룹_57741" data-name="그룹 57741" transform="translate(967.538 96.031)">
            <path id="패스_45936" data-name="패스 45936" class="cls-1" d="M989.228 116.412h-20.241a.665.665 0 1 1 0-1.329h20.241a.665.665 0 1 1 0 1.329z" transform="translate(-968.303 -115.083)"/>
        </g>
    </g>
</svg>
