<svg xmlns="http://www.w3.org/2000/svg" width="36" height="36">
    <circle data-name="타원 80" cx="18" cy="18" r="18" style="fill:#004798"/>
    <path data-name="패스 1494" d="M889.419 1859.673a6 6 0 0 1-2.808 3.346 9.891 9.891 0 0 0 2.014-11.285c-.765-1.355.207-1.945.207-1.945a1.788 1.788 0 0 0-1.527 2.4 9.208 9.208 0 0 1 .513 6.157l-.732-.411.011-.017s1.735-6.837-5.342-9.235l-.006-1.287h-1.493v8.474l6.946 3.958c-.128.257-.261.5-.4.729l-6.977-4.042-7.005 4.042a9.095 9.095 0 0 1-.4-.729l6.946-3.958v-8.474h-1.492l-.006 1.287c-7.078 2.4-5.342 9.235-5.342 9.235l.011.017-.732.411a9.2 9.2 0 0 1 .512-6.157 1.788 1.788 0 0 0-1.527-2.4s.972.59.208 1.945a9.891 9.891 0 0 0 2.013 11.285 6 6 0 0 1-2.808-3.346 2.038 2.038 0 0 0-2.262-.994 2.278 2.278 0 0 1 1 1.438 8.682 8.682 0 0 0 7.3 5.507v2.64h2.847v-3.89a7.905 7.905 0 0 1-5.326-2.562l.716-.418a8.672 8.672 0 0 0 5.318 2.21h.034a8.672 8.672 0 0 0 5.317-2.21l.716.418a7.908 7.908 0 0 1-5.327 2.562v3.89h2.848v-2.64a8.683 8.683 0 0 0 7.3-5.507 2.276 2.276 0 0 1 1-1.437 2.039 2.039 0 0 0-2.262.994m-3.71-2.524-.007.008-3.918-2.195-.022-4.688h.022s4.723 1.285 3.925 6.875m-7.873-6.875h.022l-.022 4.688-3.918 2.195v-.008c-.8-5.59 3.923-6.875 3.923-6.875m1.986 8.008 3.906 2.284v.007l-.034-.02a5.868 5.868 0 0 1-7.767 0l-.034.02v-.007z" transform="translate(-861.663 -1839.609)" style="fill:#fff"/>
</svg>
