<svg xmlns="http://www.w3.org/2000/svg" width="144" height="144" viewBox="0 0 144 144">
    <defs>
        <style>
            .cls-2{fill:#333}
        </style>
    </defs>
    <g id="그룹_55962" transform="translate(-225 -213)">
        <ellipse id="타원_1332" cx="23" cy="23.5" fill="#63e2c5" rx="23" ry="23.5" transform="translate(288 250)"/>
        <path id="사각형_12518" d="M0 0H93V5H0z" class="cls-2" transform="translate(227 331)"/>
        <path id="패스_44150" d="M315.581 308.355h-83.613a6.976 6.976 0 0 1-6.968-6.968v-53.419a6.976 6.976 0 0 1 6.968-6.968h32.516v4.645h-32.516a2.323 2.323 0 0 0-2.323 2.323v53.419a2.323 2.323 0 0 0 2.323 2.323h83.613a2.323 2.323 0 0 0 2.323-2.323v-34.839h4.645v34.839a6.976 6.976 0 0 1-6.968 6.968z" class="cls-2" transform="translate(0 37.032)"/>
        <path id="사각형_12519" d="M0 0H51V5H0z" class="cls-2" transform="translate(248 352)"/>
        <path id="사각형_12520" d="M0 0H5V12H0z" class="cls-2" transform="translate(255 343)"/>
        <path id="사각형_12521" d="M0 0H4V12H0z" class="cls-2" transform="translate(288 343)"/>
        <path id="패스_44151" d="M331.581 305.9H241v-65.029h85.935V213h4.645a16.279 16.279 0 0 1 16.258 16.258v60.387a16.279 16.279 0 0 1-16.257 16.255zm-85.935-4.645h85.935a11.613 11.613 0 1 0 0-23.226h-4.645v-32.513h-81.29zm85.935-27.871a16.216 16.216 0 0 1 11.613 4.889v-49.015a11.626 11.626 0 0 0-11.613-11.613z" class="cls-2" transform="translate(21.161 0)"/>
        <path id="패스_44152" d="M271.968 241.935a6.968 6.968 0 1 1 6.968-6.968 6.976 6.976 0 0 1-6.968 6.968zm0-9.29a2.323 2.323 0 1 0 2.323 2.323 2.323 2.323 0 0 0-2.323-2.323z" class="cls-2" transform="translate(52.903 19.839)"/>
        <path id="패스_44153" d="M271.968 257.935a6.968 6.968 0 1 1 6.968-6.968 6.976 6.976 0 0 1-6.968 6.968zm0-9.29a2.323 2.323 0 1 0 2.323 2.323 2.323 2.323 0 0 0-2.323-2.323z" class="cls-2" transform="translate(52.903 41)"/>
        <path id="패스_44154" d="M257.968 249.935a6.968 6.968 0 1 1 6.968-6.968 6.976 6.976 0 0 1-6.968 6.968zm0-9.29a2.323 2.323 0 1 0 2.323 2.323 2.323 2.323 0 0 0-2.323-2.323z" class="cls-2" transform="translate(34.387 30.419)"/>
        <path id="사각형_12522" d="M0 0H27.086V4.645H0z" class="cls-2" transform="matrix(0.857, -0.515, 0.515, 0.857, 295.806, 269.075)"/>
        <path id="사각형_12523" d="M0 0H4.645V27.086H0z" class="cls-2" transform="translate(295.805 277.701) rotate(-59.036)"/>
    </g>
</svg>
