<svg xmlns="http://www.w3.org/2000/svg" width="121.5" height="38.449">
    <defs>
        <style>
            .cls-1{fill:#17bf98}
        </style>
    </defs>
    <g id="그룹_56768" data-name="그룹 56768" transform="translate(-1317.565 -1187.417)">
        <path id="패스_36721" data-name="패스 36721" class="cls-1" d="M1471.954 1205.651h7.1l-7.808-12.535h5.537v-5.7H1462.7a1.821 1.821 0 0 0-1.817 1.824v3.874h5.536l-7.808 12.535h7.1l3.123-5.013z" transform="translate(-75.172)"/>
        <path id="패스_36722" data-name="패스 36722" class="cls-1" d="M1393.18 1189.24a1.916 1.916 0 0 0-2-1.823h-4.239v18.232h6.235z" transform="translate(-36.975)"/>
        <path id="패스_36723" data-name="패스 36723" class="cls-1" d="M1504.785 1189.24v16.41h5.678v-12.535h3.407v-5.7h-7.27a1.82 1.82 0 0 0-1.815 1.825z" transform="translate(-99.777)"/>
        <path id="패스_36724" data-name="패스 36724" class="cls-1" d="M1421.2 1231.161h-5.678v3.419h-7.949v5.7h21.577v-5.7h-7.95z" transform="translate(-47.974 -23.436)"/>
        <path id="패스_36725" data-name="패스 36725" class="cls-1" d="M1553.093 1190.836v-3.118a.3.3 0 0 0-.3-.3h-5.379v3.418h-10.221v-3.419h-5.678v18.232h20.728a.85.85 0 0 0 .849-.852V1190.833zm-5.678 9.116h-10.221v-3.419h10.221z" transform="translate(-114.029)"/>
        <path id="패스_36726" data-name="패스 36726" class="cls-1" d="M1531.516 1236.859h7.95v3.419h5.678v-3.419h7.949v-5.7h-21.577z" transform="translate(-114.029 -23.436)"/>
        <path id="패스_36727" data-name="패스 36727" class="cls-1" d="M1487.138 1231.161a9.116 9.116 0 1 0 9.085 9.116 9.1 9.1 0 0 0-9.085-9.116zm0 12.534a3.419 3.419 0 1 1 3.407-3.418 3.413 3.413 0 0 1-3.406 3.423z" transform="translate(-85.534 -23.526)"/>
        <path id="패스_36728" data-name="패스 36728" class="cls-1" d="m1330.034 1200.645 3.9-5.7-2.2-3.225a2.109 2.109 0 0 0-2.75-.579 1.923 1.923 0 0 0-.634.579l-10.777 15.76h7.794z" transform="translate(0 -1.832)"/>
        <path id="패스_36729" data-name="패스 36729" class="cls-1" d="M1362.813 1189.24a1.916 1.916 0 0 0-2-1.823h-7.98v5.7h3.741v10.711l-6.352-9.289-3.9 5.7 3.7 5.418h12.78z" transform="translate(-15.323)"/>
        <path id="패스_36730" data-name="패스 36730" class="cls-1" d="M1423.476 1193.115v6.837h-10.221v-6.837h8.449l3.549-5.7h-15.859a1.82 1.82 0 0 0-1.817 1.823v16.41h19.76a1.821 1.821 0 0 0 1.817-1.823v-16.409h-2.13z" transform="translate(-47.974)"/>
    </g>
</svg>
