<svg xmlns="http://www.w3.org/2000/svg" xmlns:xlink="http://www.w3.org/1999/xlink" width="44" height="44" viewBox="0 0 44 44">
  <defs>
    <style>
      .cls-1 {
        fill: #9f9f9f;
      }

      .cls-2 {
        clip-path: url(#clip-path);
      }

      .cls-3 {
        fill: none;
      }
    </style>
    <clipPath id="clip-path">
      <rect id="사각형_24557" data-name="사각형 24557" class="cls-1" width="38.96" height="37.495" transform="translate(0 0)"/>
    </clipPath>
  </defs>
  <g id="그룹_83423" data-name="그룹 83423" transform="translate(-193 -1164)">
    <g id="그룹_83414" data-name="그룹 83414" transform="translate(196.008 1167.617)">
      <g id="그룹_83414-2" data-name="그룹 83414" class="cls-2">
        <path id="패스_60227" data-name="패스 60227" class="cls-1" d="M32.73,0H6.23A6.248,6.248,0,0,0,0,6.23V31.265a6.249,6.249,0,0,0,6.23,6.23h26.5a6.25,6.25,0,0,0,6.23-6.23V6.23A6.248,6.248,0,0,0,32.73,0m3.5,31.446a3.606,3.606,0,0,1-3.6,3.6H6.326a3.606,3.606,0,0,1-3.6-3.6V13.12a3.606,3.606,0,0,1,3.595-3.6h26.31a3.606,3.606,0,0,1,3.6,3.6Z"/>
        <rect id="사각형_24547" data-name="사각형 24547" class="cls-1" width="2.742" height="2.742" transform="translate(14.828 14.455)"/>
        <rect id="사각형_24548" data-name="사각형 24548" class="cls-1" width="2.742" height="2.742" transform="translate(21.374 14.455)"/>
        <rect id="사각형_24549" data-name="사각형 24549" class="cls-1" width="2.742" height="2.742" transform="translate(27.834 14.455)"/>
        <rect id="사각형_24550" data-name="사각형 24550" class="cls-1" width="2.742" height="2.742" transform="translate(14.828 20.913)"/>
        <rect id="사각형_24551" data-name="사각형 24551" class="cls-1" width="2.742" height="2.742" transform="translate(21.374 20.913)"/>
        <rect id="사각형_24552" data-name="사각형 24552" class="cls-1" width="2.742" height="2.742" transform="translate(14.828 27.371)"/>
        <rect id="사각형_24553" data-name="사각형 24553" class="cls-1" width="2.742" height="2.742" transform="translate(8.415 20.913)"/>
        <rect id="사각형_24554" data-name="사각형 24554" class="cls-1" width="2.742" height="2.742" transform="translate(8.415 27.371)"/>
        <rect id="사각형_24555" data-name="사각형 24555" class="cls-1" width="2.742" height="2.742" transform="translate(21.374 27.371)"/>
        <rect id="사각형_24556" data-name="사각형 24556" class="cls-1" width="2.742" height="2.742" transform="translate(27.834 20.913)"/>
      </g>
    </g>
    <rect id="사각형_24564" data-name="사각형 24564" class="cls-3" width="44" height="44" transform="translate(193 1164)"/>
  </g>
</svg>
