<svg xmlns="http://www.w3.org/2000/svg" width="50" height="50" viewBox="0 0 50 50">
    <g data-name="그룹 65183">
        <g data-name="그룹 57715">
            <circle data-name="타원 1731" cx="25" cy="25" r="25" style="fill:none"/>
            <circle data-name="타원 1732" cx="24.375" cy="24.375" r="24.375" transform="translate(.625 .625)" style="fill:#0090db"/>
        </g>
        <path data-name="패스 50309" d="M189.793 11.6h.789a5.6 5.6 0 0 0 2.745-.549 3.281 3.281 0 0 0 1.613-3.191 4.417 4.417 0 0 0-.583-2.436 2.893 2.893 0 0 0-2.642-1.235 3.126 3.126 0 0 0-3.122 1.921 7.2 7.2 0 0 0-.412 2.642h-4.735A9.02 9.02 0 0 1 185.5 2.5a8.294 8.294 0 0 1 6.489-2.5 8.611 8.611 0 0 1 5.318 1.647 7.115 7.115 0 0 1 2.71 6.038 5.929 5.929 0 0 1-.995 3.4 5.022 5.022 0 0 1-2.093 1.784v.069a4.966 4.966 0 0 1 2.264 1.509 7.393 7.393 0 0 1 1.578 5.009 8.226 8.226 0 0 1-2.436 6.175 8.652 8.652 0 0 1-6.347 2.4 10.344 10.344 0 0 1-5.421-1.3Q183 24.531 183 19.144h4.975a5.924 5.924 0 0 0 .583 2.916 3.324 3.324 0 0 0 3.225 1.784 3.638 3.638 0 0 0 2.745-1.029 4.649 4.649 0 0 0 1.1-3.362 3.535 3.535 0 0 0-2.058-3.568 9.805 9.805 0 0 0-3.774-.549z" transform="translate(-166.887 10.985)" style="fill:#fff"/>
    </g>
</svg>
