<svg xmlns="http://www.w3.org/2000/svg" width="50.001" height="50" viewBox="0 0 50.001 50">
    <defs>
        <clipPath id="6nmrtrbjka">
            <path data-name="사각형 24801" style="fill:none" d="M0 0h49.616v33.909H0z"/>
        </clipPath>
    </defs>
    <g data-name="OFF_돋보기 40px">
        <path data-name="사각형 12778" style="fill:none" d="M0 0h50v50H0z"/>
        <g data-name="그룹 83559">
            <g data-name="그룹 83562" style="clip-path:url(#6nmrtrbjka)" transform="translate(.385 8.045)">
                <path data-name="패스 60553" d="m20.771 21.4-6.692 6.69V1.722a1.723 1.723 0 0 0-3.445 0V28.09L3.941 21.4a1.772 1.772 0 0 0-2.441 0 1.729 1.729 0 0 0 0 2.437l9.572 9.572a1.651 1.651 0 0 0 1.266.5 1.7 1.7 0 0 0 1.3-.5l9.572-9.572a1.732 1.732 0 0 0 0-2.437 1.771 1.771 0 0 0-2.437 0"/>
                <path data-name="패스 60554" d="M48.112 10.075 38.54.5a1.623 1.623 0 0 0-1.266-.5 1.715 1.715 0 0 0-1.3.5l-9.571 9.573a1.726 1.726 0 0 0 0 2.436 1.771 1.771 0 0 0 2.437 0l6.692-6.694v26.37a1.723 1.723 0 1 0 3.446 0V5.817l6.692 6.694a1.723 1.723 0 1 0 2.438-2.436"/>
            </g>
        </g>
    </g>
</svg>
