<svg xmlns="http://www.w3.org/2000/svg" width="44" height="44" viewBox="0 0 44 44">
    <defs>
        <clipPath id="qa816fnxpa">
            <path data-name="사각형 23687" style="fill:#3e3e3e" d="M0 0h35.133v35.311H0z"/>
        </clipPath>
    </defs>
    <g data-name="그룹 83335">
        <g data-name="그룹 83245">
            <g data-name="그룹 83244" transform="translate(4.2 4.253)" style="clip-path:url(#qa816fnxpa)">
                <path data-name="패스 60088" d="M23.627 35.311a13.987 13.987 0 0 1-10.007-4.173l-9.55-9.643a14.1 14.1 0 0 1 .1-19.918L5.4.36a1.246 1.246 0 0 1 1.756.009l6.917 6.986a1.245 1.245 0 0 1-.009 1.76 5.092 5.092 0 0 0-.035 7.2l4.864 4.912a5.091 5.091 0 0 0 7.2.035 1.246 1.246 0 0 1 1.761.009l6.917 6.985a1.245 1.245 0 0 1-.009 1.76l-1.227 1.216a14 14 0 0 1-9.91 4.077M6.263 3.006l-.344.34a11.608 11.608 0 0 0-.08 16.4l9.55 9.643a11.594 11.594 0 0 0 16.4.08l.343-.34-5.237-5.289a7.584 7.584 0 0 1-9.766-.856l-4.869-4.915a7.587 7.587 0 0 1-.76-9.775z" style="fill:#3e3e3e"/>
            </g>
        </g>
        <path data-name="사각형 24445" style="fill:none" d="M0 0h44v44H0z"/>
    </g>
</svg>
