<svg xmlns="http://www.w3.org/2000/svg" width="50" height="50" viewBox="0 0 50 50">
    <g data-name="refresh 새로고침">
        <path data-name="사각형 774" style="fill:none" d="M0 0h50v50H0z"/>
        <path d="M28.315 44.21a17.468 17.468 0 0 1-3.6.375 17.192 17.192 0 0 1-1.769-.094c-.146-.015-.293-.044-.439-.062a18.518 18.518 0 0 1-1.294-.2c-.039-.008-.074-.01-.112-.019v-.01a16.917 16.917 0 0 1-4.53-1.653l-.059-.039a16.827 16.827 0 0 1-1.741-1.1q-.2-.143-.4-.293a15.441 15.441 0 0 1-3.092-3.037c-.044-.058-.1-.11-.148-.169l.013-.008a16.334 16.334 0 0 1-2.318-4.153l-.017.006c-.062-.162-.106-.329-.161-.493-.078-.228-.159-.46-.227-.692a15.517 15.517 0 0 1-.223-.88c-.047-.206-.1-.406-.14-.613a15.093 15.093 0 0 1-.161-1.073c-.021-.158-.049-.312-.063-.472a16.619 16.619 0 0 1-.079-1.566v-.017A16.734 16.734 0 0 1 22.6 11.455V5.071l10.6 8.319-10.6 8.319v-6.054A12.534 12.534 0 0 0 12 27.949a12.287 12.287 0 0 0 .182 2.033c.015.09.023.183.04.272a12.43 12.43 0 0 0 .523 1.876 12.217 12.217 0 0 0 1.89 3.4 11.435 11.435 0 0 0 2.331 2.294c.1.077.2.15.308.222a12.467 12.467 0 0 0 4.829 2.111c.3.062.6.1.912.143.131.019.259.044.39.057a13.194 13.194 0 0 0 4.025-.214 13.668 13.668 0 0 0 3.388-1.24 12.846 12.846 0 0 0 4.093-3.477 12.039 12.039 0 0 0 1.74-3.116 12.217 12.217 0 0 0 .8-4.366c0-.3-.01-.6-.032-.893l4.23-.3c.03.393.045.788.045 1.19a16.3 16.3 0 0 1-1.069 5.824 18.229 18.229 0 0 1-2.318 4.156 16.464 16.464 0 0 1-1.582 1.785 17.034 17.034 0 0 1-3.866 2.842 29.781 29.781 0 0 1-4.544 1.662z"/>
    </g>
</svg>
