<svg xmlns="http://www.w3.org/2000/svg" width="46" height="46" viewBox="0 0 46 46">
    <defs>
        <clipPath id="uhesv0lbza">
            <path data-name="사각형 24604" transform="translate(1 6.001)" style="fill:#bebebe" d="M0 0h43.946v34.711H0z"/>
        </clipPath>
    </defs>
    <g data-name="그룹 83433">
        <path data-name="사각형 24571" style="fill:none" d="M0 0h46v46H0z"/>
        <g data-name="그룹 83499" style="clip-path:url(#uhesv0lbza)" transform="translate(.027 .143)">
            <path data-name="패스 60415" d="M27.478 40.159a16.926 16.926 0 0 0 10.108-7.6l-2.91-1.833a13.554 13.554 0 0 1-8.095 6.085 13.9 13.9 0 0 1-16.911-9.9c-.106-.395-.221-.793-.293-1.192l-3.232.781c.081.434.174.866.289 1.3a17.283 17.283 0 0 0 21.044 12.359" style="fill:#bebebe"/>
            <path data-name="패스 60416" d="M14.308 38.328A16.918 16.918 0 0 0 26.829 40.1l-.761-3.1a13.658 13.658 0 0 1-10.027-1.674A13.872 13.872 0 0 1 11.029 16.4q.307-.531.654-1.032L8.74 13.585c-.25.364-.489.735-.715 1.124a17.326 17.326 0 0 0 6.283 23.619" style="fill:#bebebe"/>
            <path data-name="패스 60417" d="M36.225 19.8c.106.4.195.794.267 1.193l-3.554-2.94-2.147 2.677 6.5 5.376a1.688 1.688 0 0 0 2.378-.211l.022-.027 5.255-6.544-2.659-2.2-2.488 3.1a18.002 18.002 0 0 0-.29-1.3A17.285 17.285 0 0 0 18.468 6.552a16.961 16.961 0 0 0-9.962 7.355l2.887 1.882A13.565 13.565 0 0 1 19.369 9.9a13.844 13.844 0 0 1 16.856 9.9" style="fill:#bebebe"/>
        </g>
    </g>
</svg>
