<svg xmlns="http://www.w3.org/2000/svg" width="720" height="1131">
    <defs>
        <style>
            .cls-1{fill:#fff}.cls-2,.cls-4,.cls-5{fill:#222}.cls-2{font-size:34px}.cls-2,.cls-3,.cls-5{font-family:Pretendard-Regular,Pretendard}.cls-3{fill:#8b8e94}.cls-3,.cls-5{font-size:30px}.cls-4{font-size:40px;font-family:Pretendard-Bold,Pretendard;font-weight:700}.cls-9{fill:#1a1311}.cls-11{fill:none;stroke:#c4c7ce}
        </style>
    </defs>
    <g id="그룹_57717" data-name="그룹 57717" transform="translate(0 -1430)">
        <path id="사각형_13617" data-name="사각형 13617" class="cls-1" transform="translate(0 1430)" d="M0 0h720v1131H0z"/>
        <text id="서초구_반포2동" data-name="서초구 반포2동" class="cls-2" transform="translate(58 1639)"><tspan x="0" y="0">서초구 반포2동</tspan></text>
        <text id="강남구_도곡1동" data-name="강남구 도곡1동" class="cls-2" transform="translate(58 1870)"><tspan x="0" y="0">강남구 도곡1동</tspan></text>
        <text id="강남구_청담동" data-name="강남구 청담동" class="cls-2" transform="translate(58 2103)"><tspan x="0" y="0">강남구 청담동</tspan></text>
        <text id="서초구_서초2동" data-name="서초구 서초2동" class="cls-2" transform="translate(58 2337)"><tspan x="0" y="0">서초구 서초2동</tspan></text>
        <text id="업소수" class="cls-3" transform="translate(58 1701)"><tspan x="0" y="0">업소수</tspan></text>
        <text id="업소수-2" data-name="업소수" class="cls-3" transform="translate(58 1934)"><tspan x="0" y="0">업소수</tspan></text>
        <text id="업소수-3" data-name="업소수" class="cls-3" transform="translate(58 2167)"><tspan x="0" y="0">업소수</tspan></text>
        <text id="업소수-4" data-name="업소수" class="cls-3" transform="translate(58 2401)"><tspan x="0" y="0">업소수</tspan></text>
        <text id="유동인구" class="cls-3" transform="translate(58 1759)"><tspan x="0" y="0">유동인구</tspan></text>
        <text id="유동인구-2" data-name="유동인구" class="cls-3" transform="translate(58 1992)"><tspan x="0" y="0">유동인구</tspan></text>
        <text id="유동인구-3" data-name="유동인구" class="cls-3" transform="translate(58 2225)"><tspan x="0" y="0">유동인구</tspan></text>
        <text id="유동인구-4" data-name="유동인구" class="cls-3" transform="translate(58 2459)"><tspan x="0" y="0">유동인구</tspan></text>
        <text id="_7_359만원" data-name="7,359만원" class="cls-4" transform="translate(662 1640)"><tspan x="-180.055" y="0">7,359만원</tspan></text>
        <text id="_5_766만원" data-name="5,766만원" class="cls-4" transform="translate(662 1872)"><tspan x="-180.207" y="0">5,766만원</tspan></text>
        <text id="_4_941만원" data-name="4,941만원" class="cls-4" transform="translate(662 2105)"><tspan x="-177.666" y="0">4,941만원</tspan></text>
        <text id="_4_525만원" data-name="4,525만원" class="cls-4" transform="translate(662 2339)"><tspan x="-181.519" y="0">4,525만원</tspan></text>
        <text id="_12개" data-name="12개" class="cls-5" transform="translate(662 1701)"><tspan x="-56.706" y="0">12개</tspan></text>
        <text id="_70개" data-name="70개" class="cls-5" transform="translate(662 1934)"><tspan x="-60.352" y="0">70개</tspan></text>
        <text id="_282개" data-name="282개" class="cls-5" transform="translate(662 2167)"><tspan x="-79.351" y="0">282개</tspan></text>
        <text id="_140개" data-name="140개" class="cls-5" transform="translate(662 2401)"><tspan x="-75.663" y="0">140개</tspan></text>
        <text id="_4_369명" data-name="4,369명" class="cls-5" transform="translate(662 1759)"><tspan x="-107.693" y="0">4,369명</tspan></text>
        <text id="_5_514명" data-name="5,514명" class="cls-5" transform="translate(662 1992)"><tspan x="-101.354" y="0">5,514명</tspan></text>
        <text id="_9_328명" data-name="9,328명" class="cls-5" transform="translate(662 2225)"><tspan x="-106.388" y="0">9,328명</tspan></text>
        <text id="_8_369명" data-name="8,369명" class="cls-5" transform="translate(662 2459)"><tspan x="-107.175" y="0">8,369명</tspan></text>
        <text id="서울특별시_주요_매출" data-name="서울특별시 주요 매출" transform="translate(126 1521)" style="fill:#ff7b36;font-family:Pretendard-SemiBold,Pretendard;font-weight:600;font-size:40px"><tspan x="0" y="0">서울특별시</tspan><tspan y="0" xml:space="preserve" style="fill:#000"> 주요 매출</tspan></text>
        <g id="그룹_57672" data-name="그룹 57672" transform="translate(58 1481)">
            <path id="사각형_155" data-name="사각형 155" class="cls-1" transform="translate(7.406)" d="M0 0h36.594v36.594H0z"/>
            <path id="패스_265" data-name="패스 265" d="M134.261 1311.376V1278.7H96.924v44.512h24.208z" transform="translate(-96.597 -1271.221)" style="fill:#ff9a11"/>
            <g id="그룹_159" data-name="그룹 159">
                <path id="패스_262" data-name="패스 262" class="cls-9" d="M2147.231 2655.133h-22.812a1.657 1.657 0 0 1-1.656-1.657v-41.8a1.657 1.657 0 0 1 1.656-1.658h34.41a1.657 1.657 0 0 1 1.656 1.658v30.658a1.661 1.661 0 0 1-.508 1.195l-11.6 11.146a1.657 1.657 0 0 1-1.146.458zm-21.156-3.314h20.489l10.608-10.2v-28.295h-31.1z" transform="translate(-2122.762 -2603.133)"/>
                <path id="패스_263" data-name="패스 263" class="cls-9" d="M2173.745 2632.674h-3.313v-33.883h-31.1v3.76h-3.313v-5.417a1.657 1.657 0 0 1 1.656-1.657h34.411a1.656 1.656 0 0 1 1.656 1.657z" transform="translate(-2129.745 -2595.478)"/>
                <path id="패스_264" data-name="패스 264" class="cls-9" d="M2168.742 2682.247h-3.313v-6.885a1.657 1.657 0 0 1 1.656-1.657h13.288v3.313h-11.631z" transform="translate(-2145.233 -2636.661)"/>
                <path id="사각형_152" data-name="사각형 152" class="cls-9" transform="translate(9.247 15.875)" d="M0 0h17.325v3.313H0z"/>
                <path id="사각형_153" data-name="사각형 153" class="cls-9" transform="translate(9.247 22.066)" d="M0 0h12.601v3.313H0z"/>
                <path id="사각형_154" data-name="사각형 154" class="cls-9" transform="translate(9.247 28.258)" d="M0 0h7.09v3.313H0z"/>
            </g>
        </g>
        <path id="_1depth_중간선" data-name="1depth 중간선" transform="translate(58 1569)" style="stroke:#222;stroke-width:3px;fill:none" d="M604 0H0"/>
        <path id="_1depth_중간선-2" data-name="1depth 중간선" class="cls-11" transform="translate(58 1800)" d="M612 0H0"/>
        <path id="_1depth_중간선-3" data-name="1depth 중간선" class="cls-11" transform="translate(58 2033)" d="M612 0H0"/>
        <path id="_1depth_중간선-4" data-name="1depth 중간선" class="cls-11" transform="translate(58 2267)" d="M612 0H0"/>
    </g>
</svg>
