<svg xmlns="http://www.w3.org/2000/svg" width="260" height="260" viewBox="0 0 260 260">
    <defs>
        <style>
            .cls-2{fill:#fff}.cls-3{fill:#362322}.cls-5{fill:#1bd9ac}.cls-6{fill:#ffa4b1;opacity:.68}
        </style>
    </defs>
    <g id="그룹_55695" transform="translate(-234 -396)">
        <g id="그룹_23352" transform="translate(-633.258 -1542.077)">
            <ellipse id="타원_559" cx="35.896" cy="6.932" fill="#d6d6d2" rx="35.896" ry="6.932" transform="translate(977.16 2173.61)"/>
            <g id="그룹_23352-2" transform="translate(954.824 2090.808)">
                <path id="패스_27621" d="M1073 2270.221c1.249-4.724 6.4-6.722 10.9-7.365a48.134 48.134 0 0 1 18.506.976c2.2.553 4.606 1.244 6.639.173 2.173-1.143 3.167-4.078 2.805-6.66a13.271 13.271 0 0 0-3.485-6.729c-6.882-7.829-18.176-10.71-27.571-7.033l-60.669 3.863-17.955 17.354c-4.62 6.924-6.71 12.054-5.849 20.171l4.773 8.492 40.184 17.6c.184 4.749.441 9.734 3.082 13.8s8.521 6.713 12.986 4.427c4-2.047 4.093-7.093 5.792-11.043 6.948-16.155 9.918-37.871 8.928-50.249" class="cls-2" transform="translate(-993.534 -2239.406)"/>
                <path id="패스_27622" d="M1072.854 2268.268c.053-.191.109-.382.174-.57.032-.093.227-.619.081-.231s.1-.184.153-.279q.153-.283.33-.553c.053-.081.273-.3.274-.394 0 .2-.337.4-.11.151.053-.059.1-.121.156-.181a8.944 8.944 0 0 1 .852-.84c.059-.052.129-.1.184-.155.184-.187-.194.154-.21.157.129-.024.356-.26.46-.33.315-.214.642-.412.976-.6.314-.173.637-.327.962-.48.409-.194-.491.191.07-.031q.311-.123.628-.235a19.956 19.956 0 0 1 2.172-.624q.563-.13 1.133-.229.24-.042.482-.08c.154-.024.824-.107.33-.049a51.848 51.848 0 0 1 6.589-.381q1.591.018 3.18.141.764.06 1.527.142c.274.03.547.066.82.1.307.035-.065-.009-.106-.015.195.028.39.055.584.085 2.1.319 4.131.862 6.2 1.32 2.384.528 4.909.681 7.1-.579a8.229 8.229 0 0 0 3.577-4.754c1.326-4.222-.5-8.424-3.1-11.715a26.909 26.909 0 0 0-8.173-6.816 27.692 27.692 0 0 0-20.817-2.451q-.562.164-1.116.359a3.377 3.377 0 0 1-.595.217s.536-.031.517-.027a.786.786 0 0 1-.1.006c-.183.013-.367.024-.55.035l-2.426.155-9.045.576-12.5.8-13.595.865-12.1.77-8.215.523-1.888.12c-.083.006-.165.009-.247.016a3.368 3.368 0 0 0-2.185 1.1l-7.214 6.973-8.754 8.461c-.542.524-1.131 1.026-1.639 1.584a17.418 17.418 0 0 0-1.728 2.573c-.486.783-.955 1.577-1.4 2.385a34.738 34.738 0 0 0-2.249 5 26.652 26.652 0 0 0-1.37 10.489 7.506 7.506 0 0 0 .5 2.9c.085.169.186.331.279.5l1.294 2.3 2.89 5.142a3.379 3.379 0 0 0 1.254 1.469c.152.084.327.143.486.213l6.9 3.023 11.654 5.1 11.961 5.238 8.012 3.509 1.137.5-1.287-2.244c.143 3.661.312 7.445 1.487 10.946a15.793 15.793 0 0 0 6.431 8.557 12.776 12.776 0 0 0 9.933 1.8 9.457 9.457 0 0 0 4.443-2.593 12.913 12.913 0 0 0 2.524-4.3c.509-1.317.859-2.688 1.267-4.038.208-.691.444-1.37.694-2.047.165-.448-.21.483 0-.009q.207-.486.411-.972.242-.576.476-1.155a100.714 100.714 0 0 0 3.282-9.544 136.76 136.76 0 0 0 4.222-20.535 98.708 98.708 0 0 0 .929-17.376q-.042-.9-.113-1.8a2.6 2.6 0 1 0-5.2 0 87.229 87.229 0 0 1-.437 15.984q-.119 1.124-.258 2.247c-.039.316-.081.632-.121.948-.084.659.083-.589-.01.072l-.107.766q-.348 2.435-.782 4.857-.854 4.763-2.046 9.458c-.811 3.18-1.743 6.33-2.827 9.427q-.789 2.259-1.693 4.475l-.183.444c-.25.609.223-.52-.036.084-.2.466-.4.931-.583 1.4-.258.674-.476 1.363-.682 2.054-.38 1.272-.716 2.56-1.19 3.8a4.152 4.152 0 0 0-.179.45c.16-.653.1-.241 0-.038-.134.284-.279.563-.439.833a6.881 6.881 0 0 0-.513.774c.2-.5.221-.279.015-.048-.138.154-.283.3-.435.444-.071.065-.327.223-.358.309.021-.059.515-.348.14-.12-.288.175-.573.34-.868.5-.521.285.552-.179-.007.007-.161.053-.319.114-.481.162s-.324.092-.488.129c-.109.025-.219.048-.329.068q-.427.07.194-.016a4.527 4.527 0 0 0-1.006.062c-.339 0-.674-.027-1.012-.054-.6-.049.606.126.017 0-.167-.037-.336-.064-.5-.1q-.5-.116-1-.28c-.165-.055-.326-.118-.49-.175q-.393-.158.138.064-.159-.07-.318-.144c-.369-.174-.73-.366-1.08-.576-.231-.139-.908-.433-1.019-.68l.249.194c-.092-.071-.182-.144-.271-.219q-.267-.222-.522-.459-.378-.352-.725-.736c-.114-.127-.222-.26-.334-.388q-.261-.326.093.126l-.2-.273a11.645 11.645 0 0 1-1.361-2.476c.23.609-.009-.045-.046-.142q-.144-.385-.27-.777-.221-.685-.391-1.386a22.649 22.649 0 0 1-.5-2.646c.083.682 0-.022-.011-.136q-.047-.415-.085-.831c-.045-.486-.082-.972-.113-1.459-.062-.969-.1-1.94-.141-2.91a2.57 2.57 0 0 0-1.287-2.245l-4.006-1.754-9.564-4.188-11.626-5.091-10.011-4.384c-1.623-.711-3.239-1.541-4.905-2.148-.024-.009-.047-.021-.071-.031l.932.933-4.773-8.492.355 1.312a32.027 32.027 0 0 1-.181-4.117q.023-.881.106-1.758c.014-.15.031-.3.048-.449l.01-.09q.054-.435-.023.158a3.29 3.29 0 0 1 .175-1.048 23.042 23.042 0 0 1 .917-3.368q.147-.415.308-.825l.132-.329c.222-.555-.18.4-.019.045.265-.582.529-1.163.82-1.732.591-1.159 1.245-2.285 1.933-3.388.1-.166 1.2-1.719 1.145-1.776.115.131-.445.472-.228.289.456-.386.868-.839 1.3-1.254l12.714-12.289 3.886-3.756-1.838.762 3.97-.253 10.015-.637 13.39-.853 13.91-.886 11.794-.75 6.852-.437c.2-.013.409-.023.614-.038a9.684 9.684 0 0 0 2.179-.585 23.072 23.072 0 0 1 2.523-.65c.411-.081.823-.146 1.236-.21.3-.046-.251.033-.247.034a3.433 3.433 0 0 0 .355-.042q.356-.038.713-.066a24.342 24.342 0 0 1 2.5-.065q.627.016 1.253.063.313.024.625.055.179.018.357.039c.079.01.5.064.1.01-.427-.059.262.042.365.058q.311.051.619.109.663.125 1.318.285 1.227.3 2.42.718c.4.14.792.292 1.184.448.429.171-.433-.193.129.058q.332.147.659.3a25.608 25.608 0 0 1 2.318 1.259q.546.334 1.074.695.265.181.525.369l.223.162c.066.048.492.368.176.129-.3-.227.252.2.314.254q.214.175.424.355.527.452 1.028.931a24.383 24.383 0 0 1 1.873 2c.086.1.17.207.255.311.033.041.239.312.045.054s.01.016.04.059c.079.109.159.218.236.328.29.415.562.842.809 1.284.115.206.226.415.329.627.045.091.083.185.13.274.141.267-.053-.147-.06-.158a4.717 4.717 0 0 1 .493 1.543 4.317 4.317 0 0 0 .119.6c-.071-.019-.048-.533-.022-.142.006.087.014.174.019.261.024.422-.094.91-.035 1.317-.009-.064.111-.623.017-.168-.018.086-.033.173-.052.258-.043.2-.093.4-.152.592-.032.1-.279.711-.1.34s-.151.3-.2.381c-.1.171-.2.332-.309.5-.233.369.377-.378-.057.052-.038.038-.412.393-.41.4-.013-.029.446-.285.205-.158-.117.063-.226.154-.342.22-.078.044-.161.081-.239.126-.279.164.138-.056.136-.054-.082.122-.558.148-.7.193-.356.114.452-.012.077-.005-.1 0-.208.016-.311.02a7.647 7.647 0 0 1-.84-.017 1.9 1.9 0 0 1-.424-.04c.016.006.467.082.159.017-.247-.052-.5-.089-.746-.141-.531-.112-1.057-.246-1.582-.379a55.5 55.5 0 0 0-7.042-1.286 48.673 48.673 0 0 0-13.717.318 17.281 17.281 0 0 0-9.379 4.337 10.741 10.741 0 0 0-2.779 4.756 2.6 2.6 0 0 0 5.013 1.382z" class="cls-3" transform="translate(-990.886 -2236.762)"/>
            </g>
            <path id="패스_27623" fill="#ff684a" d="M1068.71 2300.293l-7.15-14.2a4.819 4.819 0 0 0-7.67-.937l-10.556 11.031c-2.778 3.412-2.144 8.245 3.11 9l17.581 2.535c3.275.478 6.356-3.447 4.685-7.429zm-10.089.113l-6.21-.836c-1.857-.25-2.067-1.937-1.074-3.137l3.765-3.885a1.709 1.709 0 0 1 2.71.305l2.487 4.94a1.824 1.824 0 0 1-1.678 2.613z" transform="translate(-61.723 -169.638)"/>
            <g id="그룹_23353" transform="translate(919.46 1987.043)">
                <path id="패스_27624" d="M1045.313 2054.588c17.567 18.045 28.668 52.859 21.641 69.476-3.8 8.993-9.732 16.847-30.738 20.9-17.873 3.452-50.339 4.751-80.625-1.869-15.323-3.349-27.737-12.888-29.7-25.184-4.49-28.177 29.472-72.267 62.977-82.142 25.04-7.374 39.148 1.052 56.445 18.819z" class="cls-2" transform="translate(-922.506 -2030.171)"/>
                <path id="패스_27625" d="M1040.166 2053.7q1.679 1.729 3.223 3.581c.507.607 1 1.226 1.49 1.847.244.309-.352-.46-.113-.147l.175.229.348.46q.377.5.746 1.012a87.645 87.645 0 0 1 5.521 8.68 100.25 100.25 0 0 1 4.6 9.338c.138.319.2.482.017.035.076.187.156.373.234.559q.27.653.531 1.309.465 1.169.9 2.348.9 2.428 1.67 4.9a88.9 88.9 0 0 1 2.433 9.6q.228 1.179.418 2.365.087.539.165 1.079c.015.1.118.855.047.32-.068-.513.023.186.039.316.186 1.5.323 3 .4 4.512.07 1.4.089 2.8.042 4.206q-.034 1.024-.117 2.045-.038.459-.086.918-.028.264-.06.529c-.009.074-.021.149-.028.225-.036.369.1-.709.047-.344a34.889 34.889 0 0 1-.721 3.6q-.229.858-.519 1.7-.141.409-.3.812c-.047.122-.1.243-.146.366-.109.3.209-.49.177-.417l-.095.221a37.736 37.736 0 0 1-2.884 5.516q-.437.675-.913 1.324l-.224.3c-.315.425.279-.349.157-.2-.191.226-.371.463-.562.69a25.857 25.857 0 0 1-2.333 2.427q-.671.613-1.383 1.179l-.169.133c-.242.2.363-.276.315-.243-.139.1-.272.206-.409.306q-.391.287-.79.562a33.912 33.912 0 0 1-3.572 2.131q-1.013.526-2.055.992c-.166.075-.334.149-.5.222-.084.036-.17.072-.255.11-.3.133.3-.124.28-.118-.389.141-.768.313-1.154.462-1.687.652-3.408 1.215-5.148 1.71a92.649 92.649 0 0 1-10.564 2.294q-1.105.179-2.214.34-.529.078-1.058.15c-.119.016-.239.03-.358.049-.028 0 .676-.089.339-.046l-.637.083q-2.422.311-4.853.55a219.279 219.279 0 0 1-22.867 1.018 232.767 232.767 0 0 1-25.926-1.568q-.843-.1-1.684-.206l-.778-.1c-.2-.025-.963-.128-.378-.048q-1.69-.23-3.376-.485-3.384-.516-6.748-1.147a76.821 76.821 0 0 1-11.87-2.974q-.612-.22-1.219-.456-.352-.137-.7-.279l-.3-.122c-.387-.156.5.217.117.05-.842-.371-1.678-.749-2.5-1.16a43.811 43.811 0 0 1-4.558-2.623c-.724-.479-1.431-.983-2.125-1.5-.445-.335.409.328-.023-.02-.153-.124-.307-.246-.459-.37q-.527-.432-1.038-.885a32.049 32.049 0 0 1-3.376-3.467c-.139-.166-.274-.336-.411-.5-.345-.421.334.454.012.017-.236-.32-.472-.639-.7-.968q-.668-.97-1.249-2c-.381-.677-.724-1.373-1.044-2.08a2.458 2.458 0 0 0-.107-.245c-.01-.016.239.6.128.3-.061-.167-.132-.331-.2-.5q-.221-.581-.41-1.173a22.143 22.143 0 0 1-.566-2.146q-.117-.559-.205-1.123c-.023-.143-.041-.287-.064-.43-.053-.322.064.5.057.43-.01-.1-.025-.193-.037-.289a33.943 33.943 0 0 1-.239-3.852 39.884 39.884 0 0 1 .18-4q.044-.471.1-.943c.018-.158.039-.315.057-.473.057-.482-.107.727-.01.076.1-.7.213-1.388.342-2.079a59.426 59.426 0 0 1 2.262-8.45c.506-1.469 1.066-2.916 1.659-4.351.209-.506-.233.54-.015.038l.218-.5q.258-.591.525-1.178.5-1.1 1.034-2.189a96.362 96.362 0 0 1 4.809-8.633q2.714-4.346 5.831-8.423c.122-.161.248-.318.368-.48-.337.455-.115.149.093-.116q.4-.517.816-1.03.825-1.028 1.672-2.038 1.668-1.988 3.424-3.9 3.578-3.9 7.5-7.464 1.909-1.731 3.9-3.371 1.006-.83 2.033-1.635c.157-.123.317-.243.473-.369-.371.3-.241.186.032-.022q.554-.422 1.114-.837a91.741 91.741 0 0 1 8.4-5.55q2.135-1.244 4.344-2.355 1.087-.544 2.189-1.053.505-.233 1.014-.458l.507-.222.254-.109c.368-.159-.078.05-.2.085.745-.212 1.476-.6 2.2-.874s1.466-.535 2.207-.781c1.726-.573 3.481-1.066 5.246-1.5 1.8-.445 3.617-.821 5.449-1.11q.309-.049.618-.094l.41-.059c.341-.051-.285.038-.28.038.436-.033.873-.108 1.309-.154q1.277-.134 2.559-.2a44.477 44.477 0 0 1 4.895 0q1.131.064 2.257.19c.208.023.414.052.622.075.334.037-.378-.053-.348-.047.086.019.177.025.264.038.379.058.758.117 1.135.184a38.726 38.726 0 0 1 4.411 1.051q1.078.325 2.137.711.489.177.972.368.243.1.484.194l.241.1c.354.141-.575-.255-.229-.1a56.5 56.5 0 0 1 8.11 4.491q.966.653 1.909 1.343.5.364.99.737c.087.066.591.453.232.176s.21.166.307.243c1.353 1.067 2.67 2.178 3.96 3.321 2.688 2.383 5.255 4.9 7.761 7.472a2.971 2.971 0 0 0 4.2-4.2 105.266 105.266 0 0 0-16.668-14.425 45.66 45.66 0 0 0-17.587-7.271 53.605 53.605 0 0 0-21.922 1.257 73.046 73.046 0 0 0-19.125 7.91 102.759 102.759 0 0 0-17.209 12.819 120.373 120.373 0 0 0-14.762 16.266 102.017 102.017 0 0 0-10.784 17.489 69.291 69.291 0 0 0-6.084 18.1c-1 5.81-1.265 12.122.685 17.774 2.371 6.875 7.414 12.341 13.388 16.329a49.446 49.446 0 0 0 10.341 5.153 74.983 74.983 0 0 0 12.149 3.1 219.582 219.582 0 0 0 27.75 3.375 235.948 235.948 0 0 0 25.229.159 183.18 183.18 0 0 0 21.261-2.167c7.167-1.189 14.407-2.985 20.849-6.44a31.235 31.235 0 0 0 11.633-10.608 33.255 33.255 0 0 0 5.05-13.341 58.74 58.74 0 0 0-.879-19.015 98.181 98.181 0 0 0-6.4-20.264 93.485 93.485 0 0 0-10.4-18.41 74.173 74.173 0 0 0-6.512-7.792 2.971 2.971 0 1 0-4.2 4.2z" class="cls-3" transform="translate(-919.46 -2027.182)"/>
            </g>
            <g id="그룹_23356" transform="translate(1004.595 1957.625)">
                <path id="패스_27626" d="M1109.672 2000.193a11.806 11.806 0 0 1-.691-1.294c-.054-.128-.147-.386-.2-.571-.031-.106-.057-.213-.08-.322-.01-.047-.018-.095-.027-.142-.022-.125.008.17-.006-.048a3.457 3.457 0 0 1 0-.585c.012-.116-.023.109 0-.005.013-.056.023-.112.037-.167.023-.091.053-.178.084-.266-.035.1 0-.011.024-.053s.044-.088.068-.131a3.391 3.391 0 0 1 .182-.291 4.087 4.087 0 0 1 .451-.486.742.742 0 0 0-1.05-1.05 3.732 3.732 0 0 0-1.293 2.965 7.376 7.376 0 0 0 1.213 3.2.743.743 0 1 0 1.282-.75z" class="cls-3" transform="translate(-1099.367 -1981.298)"/>
                <g id="그룹_23355" transform="translate(0 0)">
                    <g id="그룹_23354">
                        <path id="패스_27627" d="M1095.912 1998.939a30.408 30.408 0 0 1 13.6-24.549c3.187-2.069 7.905-3.307 10.421-.46 1.4 1.587 1.552 3.916 1.343 6.023-1.144 11.49-11.962 21.176-23.509 21.048" class="cls-5" transform="translate(-1093.684 -1970.036)"/>
                        <path id="패스_27628" d="M1095.868 1996.668c.013-.659.046-1.318.1-1.974.03-.344.069-.687.109-1.029.011-.1.071-.434-.005.032.035-.216.066-.434.1-.65a29.6 29.6 0 0 1 .935-3.932q.279-.9.614-1.78c.111-.294.228-.585.347-.875-.176.426-.012.032.035-.074q.132-.3.272-.6a31.136 31.136 0 0 1 1.894-3.47q.5-.8 1.054-1.561c.11-.152.223-.3.334-.455.248-.339.046-.065-.005 0 .23-.3.468-.59.71-.879a29.831 29.831 0 0 1 2.8-2.914c.488-.443.993-.864 1.506-1.277.068-.055.338-.25 0 0 .151-.112.3-.226.453-.337q.457-.332.926-.646a16.26 16.26 0 0 1 1.515-.908c.263-.137.531-.261.8-.386.522-.244-.293.1.045-.018.2-.068.389-.148.586-.215a15.531 15.531 0 0 1 1.7-.444c.566-.124-.484.025.088-.016.112-.008.224-.021.337-.028a7.514 7.514 0 0 1 .995 0l.162.013q.379.041-.112-.016a1.411 1.411 0 0 1 .313.063 1.959 1.959 0 0 1 .754.231l-.242-.1q.142.066.281.143c.093.051.184.1.272.162.124.08.445.408.065.035.118.116.245.222.359.342.068.072.374.521.118.125.086.132.171.263.248.4s.148.277.212.42c-.187-.419-.026-.027.01.086a8.71 8.71 0 0 1 .246 1.022c-.016-.085-.041-.452 0-.015.019.228.036.455.044.683a14.37 14.37 0 0 1-.088 2.026 1.467 1.467 0 0 1-.041.347l.033-.247q-.025.173-.052.345-.082.515-.191 1.026a21.75 21.75 0 0 1-1.052 3.481c-.005.015-.223.541-.085.215s-.089.2-.095.211q-.177.4-.37.784-.423.855-.916 1.674-.447.746-.947 1.457c-.167.238-.34.47-.513.7.327-.441-.024.029-.079.1-.109.136-.219.271-.331.4a25.428 25.428 0 0 1-2.61 2.689q-.391.348-.8.68c-.112.092-.226.182-.34.273-.4.32.277-.2-.1.077-.567.409-1.134.811-1.726 1.181s-1.2.712-1.816 1.03q-.464.237-.938.455c-.158.073-.317.142-.476.212.348-.154.094-.039-.109.042a22.572 22.572 0 0 1-3.982 1.182c-.341.067-.682.123-1.025.178-.12.02-.411.1.076-.009a5.3 5.3 0 0 1-.691.074c-.7.063-1.392.088-2.089.083a2.228 2.228 0 1 0 0 4.456c11.429.078 22.169-8.434 25.068-19.432.808-3.065 1.215-6.568-.093-9.546a7.423 7.423 0 0 0-7.684-4.171 16.542 16.542 0 0 0-8.215 3.465 33.285 33.285 0 0 0-6.642 6.627 32.454 32.454 0 0 0-6.515 18.768 2.228 2.228 0 0 0 4.456 0z" class="cls-3" transform="translate(-1091.411 -1967.765)"/>
                    </g>
                    <path id="패스_27629" d="M1103.165 2019a12.307 12.307 0 0 1 6.208-8.017c.846-.447.1-1.729-.75-1.283a13.763 13.763 0 0 0-6.891 8.905c-.22.929 1.212 1.326 1.432.395z" class="cls-3" transform="translate(-1096.611 -1988.89)"/>
                </g>
            </g>
            <g id="그룹_23359" transform="translate(977.466 1947.682)">
                <path id="패스_27630" d="M1054.788 1992.791c-.268 0-.536-.012-.8-.031-.137-.01-.274-.021-.41-.036l-.17-.02c.2.025.009 0-.024-.006a5.613 5.613 0 0 1-.677-.149c-.105-.031-.208-.068-.311-.1-.18-.062.106.054-.027-.009l-.131-.062c-.085-.043-.169-.09-.25-.141-.047-.029-.092-.061-.137-.092-.155-.1.091.085-.017-.013-.07-.063-.141-.125-.207-.193-.039-.04-.074-.083-.111-.124-.124-.138.062.1-.018-.022-.054-.084-.111-.166-.16-.254-.025-.045-.05-.092-.072-.138s-.031-.063-.045-.1c.039.1.042.1.012.027a4.841 4.841 0 0 1-.209-.74.747.747 0 0 0-.914-.519.762.762 0 0 0-.519.914 3.713 3.713 0 0 0 1.854 2.651 7.421 7.421 0 0 0 3.348.643.743.743 0 1 0 0-1.485z" class="cls-3" transform="translate(-1043.156 -1969.068)"/>
                <g id="그룹_23358">
                    <g id="그룹_23357">
                        <path id="패스_27631" d="M1054.765 1985.79a30.407 30.407 0 0 1-13.661-24.514c-.074-3.8 1.367-8.459 5.113-9.091 2.089-.353 4.145.75 5.824 2.042 9.152 7.041 11.661 21.343 5.453 31.079" class="cls-5" transform="translate(-1038.881 -1949.922)"/>
                        <path id="패스_27632" d="M1053.626 1981.626q-.869-.565-1.7-1.187c-.337-.252-.062-.049 0 0-.148-.117-.295-.234-.44-.353q-.437-.358-.859-.732a29.8 29.8 0 0 1-2.9-2.953q-.305-.357-.6-.725c-.042-.052-.425-.549-.116-.142l-.226-.3q-.674-.907-1.281-1.862a31.127 31.127 0 0 1-1.9-3.465q-.12-.256-.235-.513s-.248-.561-.113-.252-.106-.26-.1-.256q-.106-.261-.207-.525-.369-.968-.673-1.958a29.616 29.616 0 0 1-.936-4.029l-.057-.372c-.1-.623.047.474-.02-.154-.033-.312-.069-.623-.1-.936-.061-.7-.1-1.41-.1-2.116 0-.565.041-1.124.093-1.686.049-.536-.084.358 0 .024.031-.132.043-.271.068-.4q.088-.483.213-.958.114-.431.259-.852c.044-.126.093-.25.138-.376.183-.511-.223.429.024-.05.118-.23.228-.463.359-.688q.1-.165.2-.324.061-.1.126-.188c.141-.195.115-.164-.08.092.025-.157.371-.426.493-.544a2.358 2.358 0 0 1 .324-.291c.026.015-.4.268-.105.086.078-.048.694-.485.757-.427.024.022-.549.178-.12.063.2-.052.389-.108.585-.157.337-.084.053 0-.023 0 .208-.011.415 0 .623-.01.6-.019-.213-.078.127 0 .169.041.34.069.508.114.2.055.4.122.6.192.412.145.145.059.056.019a10.581 10.581 0 0 1 1.226.67c.334.21.654.438.972.671-.059-.043-.315-.253-.017-.013.131.105.261.211.39.318q.706.59 1.357 1.241t1.24 1.35c.179.212.354.428.525.646-.315-.4-.072-.09 0 .013q.173.234.341.473a23.468 23.468 0 0 1 1.859 3.158q.183.376.354.757c.01.021.228.526.087.194s.07.176.079.2q.341.855.618 1.735a25.486 25.486 0 0 1 .851 3.586 4.879 4.879 0 0 1 .075.5c-.033-.6-.007-.037.006.073q.058.5.095 1 .079 1.044.07 2.092t-.106 2.087c-.01.111-.022.222-.034.333s-.024.221-.038.332q-.048.38.014-.1a3.937 3.937 0 0 0-.163.987 22.664 22.664 0 0 1-1.071 3.846c-.059.156-.121.311-.182.465-.207.529.2-.435-.035.082-.138.3-.276.608-.425.906a21.47 21.47 0 0 1-1.072 1.895 2.248 2.248 0 0 0 .8 3.049 2.276 2.276 0 0 0 3.048-.8c6.04-9.56 4.481-22.84-2.987-31.166-2.058-2.295-4.849-4.676-7.964-5.224a7.453 7.453 0 0 0-7.987 4.03 15.692 15.692 0 0 0-1.559 8.334 31.63 31.63 0 0 0 1.864 9.031 32.945 32.945 0 0 0 12.857 16.277 2.246 2.246 0 0 0 3.048-.8 2.278 2.278 0 0 0-.8-3.048z" class="cls-3" transform="translate(-1036.619 -1947.682)"/>
                    </g>
                    <path id="패스_27633" d="M1070.216 2003.529a12.321 12.321 0 0 1-3.507-9.506c.066-.954-1.42-.95-1.485 0a13.782 13.782 0 0 0 3.942 10.556.743.743 0 0 0 1.051-1.05z" class="cls-3" transform="translate(-1051.045 -1970.719)"/>
                </g>
            </g>
            <ellipse id="타원_560" cx="7.009" cy="6.873" class="cls-6" rx="7.009" ry="6.873" transform="matrix(0.942, -0.336, 0.336, 0.942, 1006.407, 2064.72)"/>
            <ellipse id="타원_561" cx="7.346" cy="7.203" class="cls-6" rx="7.346" ry="7.203" transform="matrix(0.942, -0.336, 0.336, 0.942, 959.902, 2065.255)"/>
            <g id="그룹_23360" transform="translate(988.72 2057.473)">
                <ellipse id="타원_562" cx="4.456" cy="1.485" rx="4.456" ry="1.485" transform="translate(0.189 0.436) rotate(-2.271)"/>
                <path id="패스_27634" d="M1063.6 2172.918c-2.117 0-4.211-.515-4.252-1.556-.021-.519.471-.983 1.422-1.343a11.864 11.864 0 0 1 6.453-.255c.977.283 1.5.707 1.524 1.225s-.471.983-1.422 1.343a10.633 10.633 0 0 1-3.209.575q-.255.011-.516.011zm.926-2.989c-.174 0-.35 0-.528.01a10.089 10.089 0 0 0-3.053.544c-.826.312-1.111.648-1.1.859.02.516 1.65 1.179 4.254 1.07a10.123 10.123 0 0 0 3.053-.543c.826-.312 1.112-.649 1.1-.861-.008-.211-.319-.523-1.167-.769a9.486 9.486 0 0 0-2.557-.31z" transform="translate(-1059.349 -2169.433)"/>
            </g>
            <g id="그룹_23361" transform="translate(1005.438 2050.617)">
                <circle id="타원_563" cx="4.456" cy="4.456" r="4.456" class="cls-2" transform="translate(0.993 0.993)"/>
                <path id="패스_27635" d="M1098.559 2166.484a5.448 5.448 0 1 1 5.133-7.28 5.453 5.453 0 0 1-5.133 7.28zm.006-8.917a3.479 3.479 0 0 0-1.167.2 3.445 3.445 0 1 0 1.167-.2z" transform="translate(-1093.114 -2155.585)"/>
            </g>
            <g id="그룹_23362" transform="translate(969.735 2050.744)">
                <circle id="타원_564" cx="4.456" cy="4.456" r="4.456" class="cls-2" transform="translate(0.993 0.993)"/>
                <path id="패스_27636" d="M1026.457 2166.737a5.446 5.446 0 1 1 5.124-7.277 5.447 5.447 0 0 1-5.124 7.277zm0-8.914a3.467 3.467 0 1 0 3.261 2.3 3.471 3.471 0 0 0-3.261-2.3z" transform="translate(-1021.003 -2155.841)"/>
            </g>
            <g id="그룹_23363" transform="translate(973.1 2063.873)">
                <path id="패스_27637" d="M1030.735 2208.88c.765-5.636 1.53-12.263 2.295-17.9.282-2.079 1.042-4.661 3.124-4.917 3.92-.483 4.855 7.783 8.677 6.786 2.551-.666 2.561-5.007 5.105-5.7 3.1-.841 5.383 4.781 8.392 3.649 2.368-.89 2.287-5.248 4.808-5.46 1.9-.159 2.791 2.269 3.054 4.159.736 5.277.083 24.058.819 29.335" class="cls-2" transform="translate(-1029.282 -2183.861)"/>
                <path id="패스_27638" d="M1030.686 2207.772c.685-5.056 1.284-10.123 1.937-15.184.14-1.085.254-2.179.441-3.258a11.787 11.787 0 0 1 .285-1.264 4.149 4.149 0 0 1 .4-1.05c.07-.13.293-.479.291-.477-.1.121.1-.1.119-.125.067-.067.133-.135.206-.2-.064.054.173-.1.173-.1-.089.042.6-.1.235-.079.137-.009.271 0 .407 0 .253-.006-.057 0-.1-.014.06.02.127.023.188.044.168.058.356.178.095.02.137.083.282.171.422.247.213.113-.018-.017-.059-.052.052.044.107.086.157.133.1.1.206.191.3.293s.2.213.293.324c.048.057.094.116.143.172.246.285-.172-.252.047.061.388.555.761 1.116 1.126 1.687a11.056 11.056 0 0 0 2.707 3.24 3.9 3.9 0 0 0 4.268.152c1.453-.879 2.068-2.51 2.855-3.922.086-.154.174-.307.268-.456.05-.079.321-.458.136-.223.1-.13.218-.246.33-.367a1.962 1.962 0 0 1 .18-.162c-.278.234.075-.023.094-.042.038-.038.274-.123-.024-.007.078-.031.158-.054.239-.078a2.147 2.147 0 0 1 .237-.052c-.1.019-.26-.023-.045.02a1.455 1.455 0 0 0 .23.005c-.062 0-.31-.082-.056-.006.071.022.151.037.223.056.04.01.351.115.153.042-.157-.058.251.127.31.16.146.082.287.17.426.264.054.036.51.375.276.192.158.124.312.253.466.383.628.531 1.238 1.079 1.893 1.577a4.5 4.5 0 0 0 4.746.813c1.485-.707 2.17-2.256 2.853-3.649a10.469 10.469 0 0 1 .513-.952c.055-.087.331-.437.111-.184.112-.129.228-.246.353-.364.146-.138-.218.121-.037.037.064-.03.127-.072.19-.107.173-.1-.245.055-.045.03.049-.007.291-.064.087-.032s.084 0 .141 0c.247.008-.215-.04.018 0 .092.016.314.148.082.016.032.018.314.216.184.109s.3.344.22.238c-.014-.019.192.313.248.416s.1.185.139.279c.108.236-.059-.161.035.086.086.227.159.458.224.692a4.71 4.71 0 0 1 .253 1.236c.01-.491-.02-.149 0 .01.014.122.026.243.038.365.265 2.729.262 5.491.289 8.231.035 3.5.027 7 .055 10.506.023 2.84.026 5.694.25 8.528.045.568.111 1.131.189 1.7a1.5 1.5 0 0 0 1.827 1.037 1.526 1.526 0 0 0 1.037-1.828c.08.587-.017-.177-.032-.333q-.039-.4-.068-.809c-.045-.622-.077-1.244-.1-1.866-.063-1.521-.091-3.045-.11-4.567-.047-3.591-.038-7.182-.062-10.772-.02-3-.02-6.013-.234-9.008a13.429 13.429 0 0 0-.925-4.486c-.874-2-2.909-3.4-5.083-2.412-1.475.672-2.1 2.235-2.778 3.6a9.215 9.215 0 0 1-.57 1.018c-.046.07-.094.138-.143.206.041-.055.188-.192 0-.014-.086.082-.493.417-.229.248-.09.058-.476.241-.173.129a2.578 2.578 0 0 1-.458.123c.373-.064-.047-.031-.162-.033.388.009-.122-.06-.256-.092-.246-.058-.023-.01.035.019-.07-.035-.143-.067-.211-.105-.16-.091-.318-.182-.471-.285-.07-.047-.138-.1-.207-.144-.033-.023-.249-.184-.108-.077s-.076-.062-.107-.087q-.155-.126-.309-.255c-.663-.56-1.306-1.141-2-1.661a4.612 4.612 0 0 0-4.9-.751c-1.536.767-2.224 2.413-2.989 3.842-.177.331-.371.645-.576.958-.122.188.147-.166 0 0-.054.062-.107.125-.163.186s-.116.114-.173.172c-.043.042-.089.082-.136.12.127-.1.147-.115.059-.055-.069.041-.14.08-.207.122-.178.113.226-.064.018 0s-.557.047-.188.074a2.881 2.881 0 0 0-.381.005c.049 0 .346.093.121.017a1.794 1.794 0 0 0-.263-.07c-.2-.031.249.165-.063-.034-.105-.067-.212-.135-.318-.2.332.205.015.008-.079-.079-.127-.117-.246-.241-.362-.369-.1-.107-.186-.219-.279-.33-.172-.2 0 0 .027.037-.056-.077-.113-.153-.168-.23-.206-.287-.4-.582-.592-.878a17.1 17.1 0 0 0-2.529-3.422 4.291 4.291 0 0 0-4.488-1.058c-2.01.79-2.924 2.917-3.315 4.9-.477 2.421-.68 4.924-.988 7.371-.331 2.633-.655 5.267-.991 7.9q-.223 1.744-.456 3.488a1.536 1.536 0 0 0 1.037 1.827 1.5 1.5 0 0 0 1.827-1.037z" transform="translate(-1027.8 -2182.359)"/>
            </g>
            <g id="그룹_23364" transform="translate(950.757 2078.933)">
                <path id="패스_27639" d="M1004.983 2238.632c1.962-6.251 6.223-16.918 13.05-19.533 2.695-1.032 6.2-1.722 8.976-.145 3.046 1.727 4.324 5.011 4.594 7.93.386 4.187-3.378 10.085-4.814 13.882-2.587 6.837-7.238 13.936-15.783 14.97-8.441 1.022-16.705-2.281-20.825-9.313-2.566-4.38-3.434-9.737-.378-13.18s10.875-3.347 13.831.889" class="cls-2" transform="translate(-985.291 -2215.425)"/>
                <path id="패스_27640" d="M1004.871 2236.673c.542-1.721 1.142-3.423 1.816-5.1a6.31 6.31 0 0 0 .308-.749c-.012.048-.248.578-.07.168l.131-.3q.333-.765.691-1.521c.448-.944.924-1.875 1.438-2.785s1.056-1.787 1.648-2.639q.212-.3.433-.6c.065-.088.133-.174.2-.263.216-.3-.409.505-.056.074.322-.393.645-.785.989-1.16.3-.326.61-.643.933-.946q.279-.261.57-.51c.077-.065.154-.13.233-.194.218-.178.462-.206-.053.037.383-.18.732-.518 1.1-.735q.25-.148.506-.281c.106-.056.213-.109.322-.161.087-.042.579-.266.147-.073-.456.2.073-.021.127-.041.117-.044.234-.087.352-.128q.407-.143.82-.267a15.561 15.561 0 0 1 1.823-.435c.128-.022.264-.051.394-.062-.633.056-.154.028 0 .015.3-.026.6-.04.9-.041s.594.032.892.041c.4.014-.628-.14-.005 0 .16.036.323.064.483.1.109.027.794.142.852.265-.039-.082-.4-.207-.07-.022.146.081.3.153.441.236.106.062.582.473.706.461-.155.015-.358-.308-.095-.068.134.121.272.236.4.361q.288.277.549.581l.057.066q.266.327-.08-.113a1.393 1.393 0 0 1 .2.284c.108.157.956 1.369.844 1.508 0 0-.239-.614-.062-.147.04.106.082.212.12.32q.129.359.234.727a15.1 15.1 0 0 1 .339 1.546c.1.556-.029-.5-.018-.127 0 .129.028.259.036.388.014.2.018.4.015.607 0 .235-.047.474-.044.707 0 .366.121-.68.019-.126-.03.165-.056.33-.089.494a19.237 19.237 0 0 1-.934 3.08 9.415 9.415 0 0 1-.35.875c.034-.067.229-.53.04-.1-.05.116-.1.232-.152.348-.255.579-.52 1.153-.79 1.726-.965 2.048-1.9 4.086-2.744 6.189a5.052 5.052 0 0 0-.25.609c.153-.605.119-.283.034-.089q-.083.19-.168.379-.325.722-.682 1.43a30.1 30.1 0 0 1-1.536 2.7q-.409.636-.853 1.247l-.2.27c-.289.391.1-.12.1-.127.025.078-.527.646-.583.712a19.553 19.553 0 0 1-2.179 2.187c-.085.072-.17.144-.256.214-.044.036-.485.37-.13.108s-.095.067-.139.1l-.273.194a15.976 15.976 0 0 1-1.359.85q-.335.187-.679.357c-.1.051-.205.1-.309.149-.065.031-.517.308-.162.08s-.094.036-.172.067q-.164.063-.328.123-.417.151-.841.278a16 16 0 0 1-1.59.387q-.183.035-.367.066c-.043.007-.658.088-.215.036s-.18.017-.221.021c-.188.02-.377.038-.566.053a24.681 24.681 0 0 1-3.367.051c-.547-.029-1.107-.145-1.652-.146.725 0-.084-.016-.3-.053q-.493-.083-.982-.187a21.883 21.883 0 0 1-3.1-.9c-.139-.052-.278-.106-.415-.161-.228-.09-.48-.05.047.023a2.59 2.59 0 0 1-.645-.293q-.8-.379-1.559-.826-.682-.4-1.329-.857a3.628 3.628 0 0 1-.567-.415c.408.437.193.147.044.025-.113-.092-.226-.186-.337-.281a19.45 19.45 0 0 1-2.338-2.4c-.111-.133-.19-.361.076.1a3.549 3.549 0 0 0-.213-.287q-.265-.363-.512-.74c-.333-.508-.639-1.033-.921-1.57q-.212-.4-.4-.816a1.7 1.7 0 0 1-.166-.367c.031.371.111.282.029.066a19.406 19.406 0 0 1-.624-1.874q-.111-.421-.2-.848-.038-.187-.071-.376c-.037-.211-.2-.524 0 .035a5.353 5.353 0 0 1-.081-1.753c.009-.264.071-.547.06-.81.023.537-.06.366-.015.162.031-.144.055-.29.088-.434.059-.257.13-.512.213-.762a1.813 1.813 0 0 0 .119-.331c-.142.323-.172.395-.093.217q.053-.121.112-.238a7.351 7.351 0 0 1 .392-.693c.055-.086.162-.329.251-.37-.024.011-.4.47-.071.1.127-.142.25-.284.386-.417.077-.076.16-.144.238-.219.391-.378-.336.216-.118.078.343-.216.666-.445 1.031-.628a2.321 2.321 0 0 0 .311-.148c-.024.018-.627.242-.236.1.222-.08.442-.163.668-.231.418-.128.842-.211 1.27-.3s-.218.027-.253.028c.122 0 .247-.029.369-.04.272-.026.546-.041.82-.046a11.372 11.372 0 0 1 1.277.046c.123.011.251.039.374.04-.039 0-.671-.112-.245-.027.245.048.491.09.735.148a12.9 12.9 0 0 1 1.277.4c.4.14-.18-.07-.213-.094a2.518 2.518 0 0 0 .331.155q.359.176.7.385c.163.1.319.212.478.318.421.284-.377-.336-.13-.1.068.066.145.123.215.187.159.143.311.293.456.45.064.07.124.145.188.214.357.392-.367-.5-.058-.072a2.659 2.659 0 0 0 3.556.933 2.63 2.63 0 0 0 .932-3.556c-2.9-4.063-8.328-5.41-13.046-4.2a9.959 9.959 0 0 0-5.833 4.021 11.706 11.706 0 0 0-1.521 8.46 20.512 20.512 0 0 0 8.794 13.364 24.469 24.469 0 0 0 14.85 4.024 20.855 20.855 0 0 0 8.027-1.881 19.138 19.138 0 0 0 5.764-4.285 27.855 27.855 0 0 0 4.189-5.942c.614-1.156 1.145-2.35 1.648-3.557.189-.454.369-.911.545-1.37.073-.189.433-.948.075-.213.142-.291.259-.6.393-.889 1.088-2.39 2.291-4.724 3.233-7.179a18.252 18.252 0 0 0 1-3.411 13.278 13.278 0 0 0-3.4-11.317 10.454 10.454 0 0 0-8.405-2.976 16.541 16.541 0 0 0-7.515 2.443 20.955 20.955 0 0 0-5.183 5.12 46.4 46.4 0 0 0-6.135 12.273q-.466 1.307-.882 2.632a2.623 2.623 0 0 0 1.816 3.2 2.656 2.656 0 0 0 3.2-1.815z" class="cls-3" transform="translate(-982.673 -2212.776)"/>
            </g>
            <path id="패스_27641" d="M1068.1 2174.582a16.5 16.5 0 0 0 .647 6.8c.284.91 1.719.521 1.432-.4a15.432 15.432 0 0 1-.595-6.406.747.747 0 0 0-.743-.743.76.76 0 0 0-.743.743z" transform="translate(-74.994 -114.184)"/>
            <path id="패스_27642" d="M1015.909 2156.786a11.009 11.009 0 0 0 1.221 10.5.765.765 0 0 0 1.016.266.748.748 0 0 0 .266-1.016 9.653 9.653 0 0 1-1.071-9.355.748.748 0 0 0-.519-.914.761.761 0 0 0-.913.519z" class="cls-3" transform="translate(-48.288 -105.297)"/>
            <path id="패스_27643" d="M1010.114 2164.763a7.643 7.643 0 0 0 2.083 7.334c.691.66 1.743-.388 1.05-1.05a6.131 6.131 0 0 1-1.7-5.889.743.743 0 0 0-1.432-.4z" class="cls-3" transform="translate(-45.654 -109.335)"/>
            <path id="패스_27644" d="M1004.675 2170.5l1.346 3.952a.743.743 0 0 0 1.432-.4l-1.346-3.952a.743.743 0 1 0-1.432.395z" class="cls-3" transform="translate(-43.007 -112.019)"/>
            <path id="패스_27645" d="M1115.128 2158.546a8.553 8.553 0 0 1-1.185 8.468.765.765 0 0 0 0 1.05.748.748 0 0 0 1.05 0 10.113 10.113 0 0 0 1.418-10.268.747.747 0 0 0-1.016-.266.762.762 0 0 0-.267 1.016z" class="cls-3" transform="translate(-98.087 -105.903)"/>
            <path id="패스_27646" d="M1121.461 2164.914a8.359 8.359 0 0 1-1.212 5.559.743.743 0 0 0 1.282.75 9.64 9.64 0 0 0 1.415-6.308.767.767 0 0 0-.743-.743.747.747 0 0 0-.743.743z" class="cls-3" transform="translate(-101.326 -109.303)"/>
            <path id="패스_27647" d="M1126.562 2175.934l1.32-2.64a.743.743 0 0 0-1.283-.75l-1.32 2.64a.743.743 0 0 0 1.283.75z" class="cls-3" transform="translate(-103.87 -113.349)"/>
            <path id="패스_27648" d="M1119.125 2086.775a7.144 7.144 0 0 1-3.511 9.553.748.748 0 0 0-.266 1.017.761.761 0 0 0 1.016.266 8.625 8.625 0 0 0 4.044-11.585c-.444-.846-1.727-.1-1.282.75z" class="cls-3" transform="translate(-98.855 -69.66)"/>
            <path id="패스_27649" d="M1125.766 2110.978a2.106 2.106 0 0 1 .812-1.106 1.852 1.852 0 0 1 .72-.329q.11-.028.222-.048c-.1.018.023 0 .065 0q.114-.008.227-.006c.03 0 .222.013.167.007-.077-.01.109.02.127.024.074.016.147.036.219.059 0 0 .217.08.105.032.069.03.138.065.2.1s.132.076.195.117c.019.012.184.136.094.064a2.752 2.752 0 0 1 .3.287 2.1 2.1 0 0 1 .544 1.29.743.743 0 0 0 1.485 0 3.526 3.526 0 0 0-6.923-.882.743.743 0 0 0 1.432.395z" class="cls-3" transform="translate(-103.425 -80.945)"/>
            <path id="패스_27650" d="M1131.171 2080.772a3.223 3.223 0 0 0 .8 3.357 3.086 3.086 0 0 0 3.5.49 3.014 3.014 0 0 0 1.426-1.4.759.759 0 0 0-.266-1.016.751.751 0 0 0-1.016.266 2.516 2.516 0 0 1-.233.393c.1-.147-.008 0-.029.025a2.181 2.181 0 0 1-.162.16c-.028.026-.057.05-.087.074q.114-.085.014-.012c-.048.031-.094.064-.143.094-.065.04-.133.077-.2.111s-.151.059-.033.018a3.184 3.184 0 0 1-.44.128c-.046.009-.212.012-.029.008-.076 0-.152.012-.228.013s-.151-.005-.228-.009c-.156-.007.137.036-.028 0-.074-.019-.148-.033-.222-.055-.021-.006-.223-.085-.126-.042s-.1-.053-.117-.063c-.066-.038-.127-.085-.192-.123.141.083.006 0-.028-.025-.057-.05-.112-.1-.164-.159-.026-.028-.176-.223-.066-.069-.033-.046-.067-.093-.1-.142-.041-.064-.08-.131-.115-.2-.01-.02-.1-.219-.059-.12s-.035-.108-.041-.127c-.023-.073-.043-.147-.059-.222-.013-.056-.022-.112-.031-.169.032.207 0-.045 0-.086v-.228c0-.048.04-.214 0-.029a2.912 2.912 0 0 1 .124-.439.746.746 0 0 0-.519-.914.764.764 0 0 0-.913.519z" class="cls-3" transform="translate(-106.798 -66.923)"/>
            <path id="패스_27651" d="M1141.779 2092.51a5.273 5.273 0 0 0-.9 9.8c.854.423 1.607-.857.75-1.283a3.937 3.937 0 0 1-2.2-3.768 3.893 3.893 0 0 1 2.736-3.319.743.743 0 0 0-.395-1.433z" class="cls-3" transform="translate(-110.308 -73.104)"/>
            <g id="그룹_23365" transform="translate(1033.39 1990.693)">
                <path id="패스_27652" d="M1151.058 2043.21a9.64 9.64 0 0 1 2.39-5.374 10.2 10.2 0 0 1 1.1-1.06 2.952 2.952 0 0 1 1.265-.746c.7-.105 1.165.732 1.23 1.327.124 1.142-.838 2.212-1.517 3.017a.763.763 0 0 0 0 1.051.75.75 0 0 0 1.051 0 6.9 6.9 0 0 0 1.945-3.651 3.1 3.1 0 0 0-1.609-3c-1.363-.648-2.648.278-3.647 1.155a11.015 11.015 0 0 0-2.391 3.013 11.345 11.345 0 0 0-1.3 4.272.748.748 0 0 0 .743.743.759.759 0 0 0 .743-.743z" class="cls-3" transform="translate(-1149.57 -2034.553)"/>
                <path id="패스_27653" d="M1164 2053.813a14.745 14.745 0 0 1 1.575-2.179q.468-.532.982-1.02a2.855 2.855 0 0 1 .86-.658.27.27 0 0 1 .156-.026c.186 0-.054-.024.065.009.04.012.12.052-.019-.017a.341.341 0 0 0 .074.039c.021 0 .053.034.071.044-.131-.077-.033-.029 0 .009s.125.163.051.048c.038.059.073.12.108.18.015.026.028.055.041.083-.061-.131-.014-.033-.005 0 .023.083.051.164.07.248.007.031.012.064.019.1.024.114-.008-.117 0 0 .006.078.012.155.012.233s-.005.133-.007.2c0 .142 0 .035 0 0-.007.044-.015.087-.024.13-.016.075-.038.148-.06.22-.006.021-.057.147-.02.062s-.023.043-.026.049a6.326 6.326 0 0 1-.334.566 9.525 9.525 0 0 0-1.5 2.516.743.743 0 0 0 1.432.395 4.1 4.1 0 0 1 .628-1.161c.282-.395.589-.771.845-1.184a3.287 3.287 0 0 0 .452-2.578 2.063 2.063 0 0 0-1.782-1.663c-1.11-.087-2.016.938-2.711 1.667a16.69 16.69 0 0 0-2.237 2.948.743.743 0 0 0 1.283.75z" class="cls-3" transform="translate(-1156.154 -2041.566)"/>
                <path id="패스_27654" d="M1176.934 2064.96c.071-.222.144-.443.221-.664q.052-.148.107-.294c.018-.049.037-.1.056-.146 0 0 .087-.214.044-.112a5.46 5.46 0 0 1 .654-1.171c.076-.1-.058.067.023-.026.033-.038.065-.076.1-.113a3.289 3.289 0 0 1 .238-.238q.056-.051.113-.1c-.08.065.017-.012.029-.021.1-.065.2-.122.3-.182s.014-.011-.016 0l.111-.042a2.652 2.652 0 0 1 .26-.068c.025-.005.152-.023.049-.01-.12.015.076 0 .081 0a2.393 2.393 0 0 1 .271 0c.051 0 .1.007.15.013-.03 0-.152-.032-.019 0 .078.019.156.034.233.056s.15.048.223.077c-.165-.065.089.052.133.078a1.165 1.165 0 0 0 .119.078c.089.039-.083-.085-.018-.014s.12.114.176.172c.038.039.048.1-.016-.023.016.031.04.06.058.09s.031.065.05.093c-.085-.124-.018-.047 0 .023s.021.232.022.074v.233c.011-.189-.024.069-.036.117-.007.023-.047.142-.012.046s-.037.074-.048.094a2.434 2.434 0 0 1-.137.224l-.069.1c.016-.023.094-.111 0-.009-.124.139-.247.277-.378.41a4.433 4.433 0 0 0-1.507 2.194.764.764 0 0 0 .519.913.748.748 0 0 0 .913-.518c.017-.1.046-.192.072-.289.046-.168-.055.07 0-.013.027-.039.044-.09.068-.131.049-.087.105-.168.162-.25.018-.026.088-.106-.005.006.04-.047.079-.095.12-.141.277-.315.592-.594.878-.9a2.651 2.651 0 0 0 .85-2.6 2.6 2.6 0 0 0-2.1-1.635 3.136 3.136 0 0 0-2.814.966 8.118 8.118 0 0 0-1.662 3.264.743.743 0 0 0 1.432.4z" class="cls-3" transform="translate(-1162.648 -2047.55)"/>
                <path id="패스_27655" d="M1157.32 2048.314l2.643-3.3a.808.808 0 0 0 .217-.525.743.743 0 0 0-1.268-.525l-2.643 3.3a.806.806 0 0 0-.217.525.742.742 0 0 0 1.268.525z" class="cls-3" transform="translate(-1152.843 -2039.196)"/>
            </g>
            <g id="그룹_23366" transform="translate(1042.797 1980.295)">
                <path id="패스_27656" d="M1170.058 2022.21a9.639 9.639 0 0 1 2.39-5.373 10.2 10.2 0 0 1 1.1-1.061 2.954 2.954 0 0 1 1.265-.746c.7-.105 1.165.732 1.23 1.327.124 1.142-.838 2.212-1.517 3.017a.763.763 0 0 0 0 1.051.749.749 0 0 0 1.051 0 6.9 6.9 0 0 0 1.945-3.651 3.1 3.1 0 0 0-1.609-3c-1.364-.647-2.648.278-3.647 1.155a11.009 11.009 0 0 0-2.391 3.013 11.345 11.345 0 0 0-1.3 4.272.748.748 0 0 0 .743.743.76.76 0 0 0 .743-.743z" class="cls-3" transform="translate(-1168.57 -2013.553)"/>
                <path id="패스_27657" d="M1183 2032.813a14.762 14.762 0 0 1 1.575-2.178q.468-.532.982-1.02a2.856 2.856 0 0 1 .86-.659.269.269 0 0 1 .156-.026c.186 0-.054-.024.065.009.041.011.12.052-.019-.017a.337.337 0 0 0 .074.039c.02 0 .053.034.071.044-.131-.077-.033-.029 0 .009s.125.164.052.048c.038.06.073.12.108.18.015.026.028.055.04.083-.061-.132-.014-.034 0 0 .023.083.051.163.07.248l.019.1c.024.114-.008-.117 0 0 .006.078.012.155.012.233s-.005.133-.007.2c0 .142 0 .034 0 0l-.024.13c-.016.075-.038.147-.06.22-.006.021-.057.147-.02.062s-.023.043-.026.049a6.305 6.305 0 0 1-.334.566 9.523 9.523 0 0 0-1.5 2.516.743.743 0 0 0 1.432.395 4.093 4.093 0 0 1 .628-1.161c.282-.395.589-.771.845-1.184a3.287 3.287 0 0 0 .452-2.578 2.063 2.063 0 0 0-1.782-1.663c-1.11-.087-2.016.938-2.711 1.667a16.688 16.688 0 0 0-2.237 2.948.743.743 0 0 0 1.283.75z" class="cls-3" transform="translate(-1175.154 -2020.566)"/>
                <path id="패스_27658" d="M1195.935 2043.96c.071-.222.143-.444.221-.663q.052-.148.107-.295c.018-.049.037-.1.057-.146 0 0 .086-.213.044-.112a5.457 5.457 0 0 1 .653-1.171c.076-.1-.058.068.023-.026.033-.038.065-.076.1-.113.075-.083.154-.163.238-.238q.055-.051.113-.1c-.08.065.017-.012.029-.021.1-.066.2-.122.3-.182s.014-.011-.016 0c.037-.015.074-.028.111-.041a2.566 2.566 0 0 1 .26-.068c.025-.006.152-.023.049-.01-.12.015.076 0 .081 0a2.393 2.393 0 0 1 .271 0c.051 0 .1.007.151.013-.03 0-.152-.032-.019 0 .078.019.156.033.233.055s.15.048.223.077c-.164-.065.089.052.133.078a1.136 1.136 0 0 0 .119.077c.089.039-.083-.085-.018-.014s.12.114.176.172c.038.039.047.1-.016-.023.016.031.04.06.058.09s.031.066.05.094c-.085-.124-.018-.047 0 .023s.021.232.022.074v.233c.011-.189-.024.069-.036.117-.007.023-.047.142-.012.047s-.037.073-.048.094a2.5 2.5 0 0 1-.137.224l-.069.1c.016-.023.094-.111 0-.009-.124.139-.246.277-.378.41a4.433 4.433 0 0 0-1.506 2.194.764.764 0 0 0 .519.913.749.749 0 0 0 .913-.519c.017-.1.046-.192.072-.289.046-.168-.056.07 0-.013.027-.038.044-.09.068-.131.049-.087.105-.169.162-.251.018-.026.088-.105-.005.006l.12-.141c.277-.315.592-.594.878-.9a2.65 2.65 0 0 0 .85-2.6 2.594 2.594 0 0 0-2.1-1.635 3.134 3.134 0 0 0-2.814.966 8.12 8.12 0 0 0-1.662 3.264.743.743 0 0 0 1.433.4z" class="cls-3" transform="translate(-1181.648 -2026.55)"/>
                <path id="패스_27659" d="M1176.32 2027.315l2.643-3.3a.806.806 0 0 0 .218-.525.743.743 0 0 0-1.268-.525l-2.643 3.3a.805.805 0 0 0-.217.525.742.742 0 0 0 1.267.525z" class="cls-3" transform="translate(-1171.843 -2018.197)"/>
            </g>
            <path id="패스_27660" d="M1041.3 2020.9l-1.269 21.128c-.057.955 1.428.952 1.485 0l1.269-21.128c.057-.955-1.428-.951-1.485 0z" class="cls-3" transform="translate(-60.875 -36.608)"/>
            <path id="패스_27661" d="M1049.694 2023.532q-1.276 11.556-2.053 23.16c-.064.954 1.422.95 1.485 0q.777-11.6 2.053-23.16c.105-.948-1.381-.941-1.485 0z" class="cls-3" transform="translate(-64.716 -37.938)"/>
            <path id="패스_27662" d="M1109.217 2042.093a53.844 53.844 0 0 0-.775 12.72c.056.95 1.542.956 1.485 0a52.19 52.19 0 0 1 .722-12.325c.168-.935-1.263-1.336-1.432-.4z" class="cls-3" transform="translate(-95.369 -47.396)"/>
            <path id="패스_27663" d="M1119.37 2044.771l-1.528 10.532a.769.769 0 0 0 .519.914.747.747 0 0 0 .913-.519l1.529-10.532a.769.769 0 0 0-.519-.914.748.748 0 0 0-.914.519z" class="cls-3" transform="translate(-100.155 -48.745)"/>
            <g id="그룹_23367" transform="translate(946.924 2133.225)">
                <path id="패스_27664" d="M999.6 2330.155c-4.723-2.851-11.5-3.648-15.688-.139-4.252 3.567-4.085 9.753-3.266 15.034.537 3.457 1.291 7.065 3.681 9.752s6.926 4.026 9.971 2c2.784-1.855 3.193-5.47 4.384-8.463a2.115 2.115 0 0 1 1.052-1.306 2.548 2.548 0 0 1 1.653.127c12.839 4 26.345 8.578 39.573 5.908" class="cls-2" transform="translate(-977.582 -2325.086)"/>
                <path id="패스_27665" d="M998.259 2325.258a19.459 19.459 0 0 0-10.531-2.811 12.966 12.966 0 0 0-10.069 5.007c-2.166 2.839-2.789 6.607-2.724 10.1a41.031 41.031 0 0 0 .538 5.452 31.541 31.541 0 0 0 1.19 5.345 16.343 16.343 0 0 0 3.038 5.487 11.767 11.767 0 0 0 4.764 3.2c3.564 1.384 8 .691 10.458-2.4a15.8 15.8 0 0 0 2.545-5.1c.255-.784.491-1.575.762-2.353q.086-.248.178-.493a2.978 2.978 0 0 0 .125-.323c-.005.022-.237.451-.086.226a1.444 1.444 0 0 0 .125-.229c.007.017-.346.376-.146.185.22-.211-.247.168-.325.2a1.535 1.535 0 0 1-.547.1c-.27.029-.04-.006.075.029.137.041.275.078.411.119.223.067.446.139.668.208l1.564.489q1.572.492 3.146.979c2.072.638 4.15 1.262 6.239 1.842 8.322 2.31 17.117 4.037 25.774 2.951 1.194-.15 2.382-.327 3.562-.561a2.615 2.615 0 0 0 1.816-3.2 2.664 2.664 0 0 0-3.2-1.816c-.5.1-.993.19-1.492.271-.229.037-.459.069-.689.1-.306.049.078-.01.116-.014l-.46.056q-1.492.175-2.994.24a48.891 48.891 0 0 1-6-.112c-1-.078-2-.191-3-.313.463.057-.054-.007-.232-.033q-.4-.058-.807-.121-.75-.118-1.5-.25c-2.006-.357-4-.794-5.975-1.284-3.977-.986-7.9-2.184-11.808-3.4l-2.908-.909a5.354 5.354 0 0 0-4.1 0c-1.861.9-2.416 3.206-2.989 5.016-.231.729-.458 1.46-.726 2.177-.06.16-.147.323-.191.487 0 0 .218-.481.092-.224-.05.1-.094.208-.145.312a9.486 9.486 0 0 1-.532.969 2.4 2.4 0 0 0-.284.419c0-.007.335-.4.148-.193-.076.083-.146.172-.222.255-.115.126-.235.247-.36.363-.063.059-.128.115-.193.172-.281.253.019-.084.111-.084-.1 0-.343.228-.436.282s-.685.321-.294.17-.146.045-.239.075c-.187.059-.376.109-.567.15-.082.017-.166.028-.248.047-.279.065.274-.035.274-.035a4.469 4.469 0 0 0-.592.037q-.256.005-.512-.006c-.086 0-.171-.012-.257-.016-.355-.017.046 0 .177.035-.364-.094-.741-.134-1.106-.237q-.253-.071-.5-.157l-.248-.089c-.329-.116.026-.023.132.062a9.137 9.137 0 0 0-1.015-.526q-.226-.134-.444-.281l-.215-.149c-.289-.2.041-.016.111.091a7.333 7.333 0 0 0-.817-.754c-.128-.135-.251-.275-.37-.417a1.448 1.448 0 0 1-.192-.235c.086.169.215.3.046.045-.241-.358-.476-.717-.685-1.095-.146-.264-.584-.852-.569-1.155 0 0 .175.451.072.164-.034-.094-.073-.185-.108-.278q-.122-.326-.232-.656c-.137-.41-.258-.826-.369-1.244-.222-.839-.4-1.69-.55-2.545q-.114-.637-.212-1.277-.042-.267-.081-.535l-.038-.264c-.051-.35.012.016.021.159-.094-1.577-.322-3.114-.279-4.7q.016-.584.064-1.166c.015-.177.039-.354.053-.532.024-.3-.038.254-.037.251.024-.114.034-.234.053-.349a13.646 13.646 0 0 1 .538-2.195c.055-.163.116-.323.176-.484.162-.436-.235.5.043-.086a9.971 9.971 0 0 1 .53-.977c.09-.146.184-.29.282-.431.049-.071.1-.139.151-.21.2-.286-.321.373-.086.115.259-.283.5-.573.785-.838.132-.124.27-.241.406-.361.346-.3-.427.3.1-.073a9.358 9.358 0 0 1 .96-.589c.153-.081.309-.155.464-.231.416-.205-.512.189.1-.039a10.869 10.869 0 0 1 1.078-.34c.37-.1.744-.157 1.118-.23.29-.057-.254.032-.253.032a2.265 2.265 0 0 0 .265-.029q.311-.031.623-.048a16.417 16.417 0 0 1 2.35.068c.507.046-.468-.081.036 0 .211.034.423.069.634.11q.588.114 1.167.267t1.147.347q.261.089.519.186c.086.032.171.066.257.1.313.117.025.028-.112-.053.668.4 1.416.668 2.088 1.069a2.6 2.6 0 1 0 2.624-4.489z" class="cls-3" transform="translate(-974.931 -2322.434)"/>
            </g>
            <path id="패스_27666" d="M967.9 2333.887a28.617 28.617 0 0 0 .894 17.68c.34.883 1.776.5 1.432-.4a27.251 27.251 0 0 1-.894-16.89.743.743 0 0 0-1.432-.395z" class="cls-3" transform="translate(-23.956 -194.725)"/>
            <path id="패스_27667" d="M1019.685 2095.334a10.053 10.053 0 0 1 1.871-1.94 11.489 11.489 0 0 1 1.151-.736 8.686 8.686 0 0 1 1.209-.571 11.231 11.231 0 0 1 1.414-.423q.36-.081.725-.14c.293-.047-.344.028.173-.022.109-.011.217-.022.326-.03a8.477 8.477 0 0 1 2.856.215 1.486 1.486 0 1 0 .79-2.864 12.509 12.509 0 0 0-13.081 5.012 1.5 1.5 0 0 0 .533 2.032 1.515 1.515 0 0 0 2.032-.533z" transform="translate(-49.201 -71.091)"/>
            <path id="패스_27668" d="M1104.377 2123.491a11.479 11.479 0 0 0 9 3.827 1.485 1.485 0 0 0 0-2.971 9.886 9.886 0 0 1-1.056 0c-.186-.011-.371-.033-.556-.05.322.029-.108-.02-.219-.04a9.809 9.809 0 0 1-1.027-.245c-.179-.053-.356-.11-.531-.173q-.117-.042-.233-.086c-.036-.014-.353-.148-.168-.066.164.073-.079-.038-.107-.051l-.224-.108c-.167-.082-.332-.169-.494-.261a9.92 9.92 0 0 1-.891-.566c-.068-.048-.134-.1-.2-.146-.178-.129.171.149.007 0-.139-.124-.286-.239-.423-.364a9.891 9.891 0 0 1-.78-.8 1.494 1.494 0 0 0-2.1 0 1.522 1.522 0 0 0 0 2.1z" transform="translate(-93.15 -87.486)"/>
        </g>
        <path id="사각형_11132" fill="none" d="M0 0H260V260H0z" transform="translate(234 396)"/>
    </g>
</svg>
