<svg xmlns="http://www.w3.org/2000/svg" width="158" height="50" viewBox="0 0 158 50">
    <defs>
        <style>
            .cls-1{fill:#17bf98}
        </style>
    </defs>
    <g id="그룹_56296" transform="translate(-1317.565 -1187.417)">
        <path id="패스_36721" d="M1475.944 1211.112h9.241l-10.167-16.292h7.218v-7.4h-18.327a2.358 2.358 0 0 0-2.35 2.358v5.045h7.184l-10.132 16.292h9.207l4.079-6.51z" class="cls-1" transform="translate(-55.388)"/>
        <path id="패스_36722" d="M1395.054 1189.775a2.482 2.482 0 0 0-2.588-2.358h-5.521v23.7h8.109z" class="cls-1" transform="translate(-27.242)"/>
        <path id="패스_36723" d="M1504.786 1189.775v21.337h7.389v-16.292h4.441v-7.4h-9.481a2.357 2.357 0 0 0-2.349 2.355z" class="cls-1" transform="translate(-73.513)"/>
        <path id="패스_36724" d="M1425.3 1231.163h-7.389v4.442h-10.336v7.4h28.063v-7.4H1425.3z" class="cls-1" transform="translate(-35.346 -17.342)"/>
        <path id="패스_36725" d="M1559.579 1191.859v-4.047a.385.385 0 0 0-.376-.4h-7.01v4.442H1538.9v-4.442h-7.389v23.7h26.949a1.1 1.1 0 0 0 1.114-1.1v-18.151zm-7.387 11.848H1538.9v-4.46h13.288z" class="cls-1" transform="translate(-84.016)"/>
        <path id="패스_36726" d="M1531.518 1238.566h10.338v4.443h7.39v-4.443h10.337v-7.4h-28.065z" class="cls-1" transform="translate(-84.018 -17.342)"/>
        <path id="패스_36727" d="M1489.883 1231.163a11.856 11.856 0 1 0 11.795 11.847 11.827 11.827 0 0 0-11.795-11.847zm0 16.308a4.443 4.443 0 1 1 4.423-4.461 4.449 4.449 0 0 1-4.423 4.461z" class="cls-1" transform="translate(-63.02 -17.459)"/>
        <path id="패스_36728" d="M1333.784 1203.569l5.074-7.389-2.88-4.219a2.718 2.718 0 0 0-3.566-.724 2.387 2.387 0 0 0-.823.724l-14.023 20.51h10.13z" class="cls-1" transform="translate(-0.002 -1.346)"/>
        <path id="패스_36729" d="M1367.759 1189.775a2.482 2.482 0 0 0-2.588-2.358h-10.39v7.4h4.869v13.933l-8.263-12.072-5.056 7.388 4.8 7.044h16.629z" class="cls-1" transform="translate(-11.287)"/>
        <path id="패스_36730" d="M1428.254 1194.82v8.887h-13.286v-8.887h10.99l4.612-7.4h-20.624a2.361 2.361 0 0 0-2.366 2.358v21.337h25.715a2.37 2.37 0 0 0 2.35-2.359v-21.336h-2.761z" class="cls-1" transform="translate(-35.348)"/>
    </g>
</svg>
