<svg xmlns="http://www.w3.org/2000/svg" width="138.069" height="190.5">
    <defs>
        <style>
            .cls-1{fill:#1bd9ac}.cls-2{fill:#efea3c}.cls-3{fill:#fff}
        </style>
    </defs>
    <g id="그룹_57683" data-name="그룹 57683" transform="translate(-1107.661 -364.607)">
        <g id="Layer_4" data-name="Layer 4" transform="translate(1107.661 364.607)">
            <path id="패스_477" data-name="패스 477" class="cls-1" d="M1243.5 432.158c8.379 8.233 20.393 28.355 15.155 74.195 3.159 4.133 6.561 10.391 4.684 16.691-2.39 6.006-5.009 8.894-7.431 10.221-2.106 17.545-10.989 28.4-22.472 34.645a57.1 57.1 0 0 1-15.4 5.57c-14.83 3.191-30.883 1.492-42.137-1.951a243.86 243.86 0 0 1-4.945-1.552c-5.265-1.722-10.068-3.674-14.088-6.938-8.567-6.952-13.6-19.86-12.065-49.247.279-5.313.769-11.163 1.493-17.61q.378-3.389.829-6.562c6.048-42.989 20.97-57.7 28.255-62.426a16.536 16.536 0 0 1 4.144-2.08l.536-.184c.925 2.81 3.654 5.262 10.563 4.78 15.136-1.056 32.444 2.544 32.444 2.544s10.659 3.563 12.22-5.46h.971a32.184 32.184 0 0 1 7.244 5.364zm-13 100.12c2.939-29.268-32.027-34.563-32.027-34.563a5.28 5.28 0 0 0-10.325-1.575h-.284c-1.232.184-26.986 4.344-30.782 27.17-.087.514-.16 1.038-.224 1.57-2.289 24.888 17.3 31.348 30.155 33.465 12.568 2.066 39.793 4.532 43.286-24.093.077-.642.141-1.298.196-1.973z" transform="translate(-1127.648 -397.316)"/>
            <path id="패스_478" data-name="패스 478" class="cls-2" d="M1370.915 392.04a6.147 6.147 0 0 1 0 12.294 6.071 6.071 0 0 1-1.987-.33 6.147 6.147 0 0 1 1.987-11.964z" transform="translate(-1247.048 -379.48)"/>
            <path id="패스_479" data-name="패스 479" class="cls-3" d="M1269.839 383.946c1.671-.824 3.4-1.383 4.414-.847 1.808.957.256 4.272-3.21 6.937a30.3 30.3 0 0 1 .206 6.351c-1.561 8.85-12.22 5.3-12.22 5.3s-17.307-3.59-32.444-2.537c-6.909.481-9.638-1.964-10.563-4.766-1.1-3.333.353-7.17.353-7.17l.078-.105c-3.356-2.582-7.619-9.066-4.5-9.94 1.644-.691 4.217.847 6.328 2.5l.719-.105s12.01-17.449 37.577-8.37c-.002-.004 10.771 4.506 13.262 12.752z" transform="translate(-1163.613 -366.756)"/>
            <path id="패스_480" data-name="패스 480" class="cls-1" d="M1320.319 736.32c-1.209 14.29-3.617 18.667-10.81 17.966-6.24-.609-4.588-12.417-4.588-12.417a57.215 57.215 0 0 0 15.398-5.549z" transform="translate(-1214.496 -565.695)"/>
            <path id="패스_481" data-name="패스 481" class="cls-3" d="M1213.327 581.57s34.967 5.279 32.027 34.463a44.867 44.867 0 0 1-.2 1.969c-43.194 10.2-73.216-10.911-73.216-10.911 3.8-22.76 29.55-26.909 30.782-27.092h.28a5.254 5.254 0 0 0-.237 1.44 5.282 5.282 0 1 0 10.562.13z" transform="translate(-1142.507 -481.094)"/>
            <path id="패스_482" data-name="패스 482" class="cls-2" d="M1171.453 639.3s30.022 21.107 73.216 10.911c-3.493 28.543-30.718 26.084-43.286 24.024-12.857-2.111-32.444-8.553-30.155-33.369.064-.531.138-1.053.225-1.566z" transform="translate(-1142.024 -513.096)"/>
            <path id="패스_483" data-name="패스 483" class="cls-2" d="M1244.545 572.02a5.282 5.282 0 1 1-5.041 3.713 5.286 5.286 0 0 1 5.041-3.713z" transform="translate(-1179.009 -476.825)"/>
            <path id="패스_484" data-name="패스 484" class="cls-1" d="M1185.09 732.633s2.367 11.021-6.2 10.526-7.89-17.449-7.89-17.449c4.02 3.255 8.823 5.2 14.089 6.918z" transform="translate(-1141.993 -559.942)"/>
            <path id="패스_485" data-name="패스 485" class="cls-2" d="M1187.049 388.574a6.147 6.147 0 1 1-6.144-6.144 6.133 6.133 0 0 1 6.144 6.144z" transform="translate(-1144.036 -374.27)"/>
            <path id="패스_486" data-name="패스 486" class="cls-1" d="M1122.218 551.219s2.445-.618 3.786 2.729 3.3 2.587 3.3 2.587q-.446 3.166-.829 6.543c-.723 6.428-1.214 12.261-1.493 17.559l-.275-.014s-.4-.16-1.071-.476a24.247 24.247 0 0 1-10.993-10.357 23.487 23.487 0 0 1-2.885-9.208c-.591-7.234 1.346-10.229 7.138-11.781a3.056 3.056 0 0 1 2.816.627 1.519 1.519 0 0 1 .506 1.791zm-1.877 1.96c-.21.147-.444.3-.7.449 0 0-3.333 2.518-.307 4.528s5.137-2.582 1.79-4.881z" transform="translate(-1109.826 -464.177)"/>
            <path id="패스_487" data-name="패스 487" d="M1211.917 643.686a80.772 80.772 0 0 1-13-1.16c-9.249-1.518-16.316-4.314-21.605-8.547-7.754-6.206-11.145-15.222-10.077-26.8 0-.017 0-.035.006-.052.072-.6.15-1.136.236-1.651 2.176-13.049 9.421-19.909 15.114-23.365 6.566-3.986 13.7-5.112 17.864-4.463a1.832 1.832 0 0 1-.566 3.619c-6.158-.962-25.207 3.276-28.8 24.815-.077.454-.146.931-.21 1.459-.94 10.259 1.993 18.191 8.721 23.574 4.718 3.777 11.417 6.4 19.909 7.793 14.444 2.368 24.86.974 31.843-4.261 5.189-3.89 8.327-10.006 9.328-18.179.073-.571.137-1.187.195-1.9 1.141-11.333-3.548-20.2-13.934-26.4a51.786 51.786 0 0 0-16.543-6.1 1.832 1.832 0 0 1 .548-3.622 54.637 54.637 0 0 1 17.777 6.523c11.614 6.89 17.078 17.241 15.8 29.935-.059.731-.128 1.4-.207 2.018-1.125 9.19-4.747 16.142-10.765 20.654-5.443 4.086-12.583 6.11-21.634 6.11z" transform="translate(-1139.854 -479.581)"/>
            <path id="패스_488" data-name="패스 488" d="M1199.04 575.069a89.733 89.733 0 0 1-25.854-3.731 250.3 250.3 0 0 1-4.981-1.563c-4.986-1.63-10.216-3.639-14.671-7.256-10.35-8.4-14.16-23.581-12.74-50.767.284-5.412.789-11.373 1.5-17.718.242-2.175.515-4.338.835-6.612 6.042-42.942 20.809-58.347 29.073-63.708a18.058 18.058 0 0 1 4.662-2.311 1.836 1.836 0 0 1 .965 3.543 15.552 15.552 0 0 0-3.637 1.852c-18.706 12.133-25.418 46.8-27.437 61.137a227.209 227.209 0 0 0-.821 6.509c-.7 6.275-1.2 12.162-1.484 17.5-1.708 32.719 5.188 42.69 11.388 47.72 3.992 3.242 8.85 5.1 13.5 6.619 1.506.495 3.052.974 4.911 1.541a85.737 85.737 0 0 0 41.219 1.912 55.28 55.28 0 0 0 14.906-5.387c12.411-6.754 19.715-17.946 21.71-33.268a1.831 1.831 0 1 1 3.632.476c-2.156 16.555-10.093 28.673-23.592 36.019a58.919 58.919 0 0 1-15.889 5.751 82.409 82.409 0 0 1-17.195 1.742z" transform="translate(-1125.469 -395.364)"/>
            <path id="패스_489" data-name="패스 489" d="M1365.094 508.173a1.835 1.835 0 0 1-1.822-2.041c2.241-19.522 3.323-54.9-14.609-72.464a22.569 22.569 0 0 0-6.618-4.777 1.831 1.831 0 0 1 1.3-3.422 25.439 25.439 0 0 1 7.878 5.584c4.013 3.932 9.554 11.24 13.16 23.728 4.02 13.919 4.868 31.337 2.523 51.769a1.832 1.832 0 0 1-1.812 1.623z" transform="translate(-1234.096 -397.539)"/>
            <path id="패스_490" data-name="패스 490" d="M1369.754 624.077a6.439 6.439 0 0 1-2.778-.57c-3.989-1.995-2.936-6.042-2.307-8.461a7.945 7.945 0 0 0 .408-2.357c-.331-1.191-2.282-2.369-3.175-2.752a1.832 1.832 0 0 1 1.432-3.372c.445.189 4.378 1.934 5.272 5.142a8.356 8.356 0 0 1-.392 4.261c-.76 2.923-.686 3.72.4 4.262a4.367 4.367 0 0 0 3.792-.6c1.65-.972 4.1-3.359 6.454-9.216 1.6-5.507-1.511-11.152-4.413-14.926-.02-.025-.038-.051-.057-.077a34.792 34.792 0 0 0-4.12-4.477 1.832 1.832 0 0 1 2.4-2.768 37.816 37.816 0 0 1 4.68 5.084c.021.027.042.055.061.084 3.419 4.47 7.02 11.231 4.936 18.206-.016.052-.034.1-.054.155-2.2 5.519-4.9 9.25-8.023 11.091a8.835 8.835 0 0 1-4.516 1.291z" transform="translate(-1244.893 -485.278)"/>
            <path id="패스_491" data-name="패스 491" d="M1177.716 742.836q-.312 0-.642-.019c-10.245-.591-9.644-18.585-9.614-19.351a1.831 1.831 0 0 1 3.66.145 37.931 37.931 0 0 0 .706 8.147c1.009 4.76 2.845 7.251 5.459 7.4a3.87 3.87 0 0 0 3.37-1.1c1.616-1.879 1.221-5.844.932-7.213a1.831 1.831 0 0 1 3.582-.766c.147.683 1.344 6.772-1.728 10.358a7.183 7.183 0 0 1-5.725 2.399z" transform="translate(-1140.072 -557.773)"/>
            <path id="패스_492" data-name="패스 492" d="M1308.642 754.031q-.751 0-1.572-.08a6 6 0 0 1-4.219-2.319c-3.061-3.886-2.122-11.338-2.005-12.175a1.831 1.831 0 0 1 3.628.506c-.255 1.849-.527 7.144 1.257 9.4a2.329 2.329 0 0 0 1.7.937c2.162.211 3.606-.094 4.678-.988 2.137-1.781 3.372-6.359 4.129-15.31a1.831 1.831 0 1 1 3.649.309c-.87 10.287-2.394 15.282-5.434 17.816a8.635 8.635 0 0 1-5.811 1.904z" transform="translate(-1212.272 -563.531)"/>
            <path id="패스_493" data-name="패스 493" d="M1124.538 580.284a1.823 1.823 0 0 1-.682-.133 24.51 24.51 0 0 1-1.166-.517 25.909 25.909 0 0 1-11.826-11.144 25.233 25.233 0 0 1-3.1-9.928c-.657-8.045 1.723-11.886 8.489-13.7a4.864 4.864 0 0 1 4.509 1.03 3.308 3.308 0 0 1 .992 3.831 4.227 4.227 0 0 1-.537.959 4.934 4.934 0 0 1 .525 5.941 3.851 3.851 0 0 1-5.581.89 4.125 4.125 0 0 1-2.09-3.355c-.068-2.254 1.906-3.863 2.3-4.162a1.818 1.818 0 0 1 .162-.109c.214-.129.414-.258.594-.382a4.9 4.9 0 0 0 1.106-.951 1.266 1.266 0 0 0-1.038-.153c-5.515 1.478-6.241 4.237-5.782 9.861a21.62 21.62 0 0 0 2.67 8.485 22.265 22.265 0 0 0 10.165 9.572c.6.284.97.432.973.434a1.832 1.832 0 0 1-.686 3.53zm-6.114-27.231a2.139 2.139 0 0 0-.69.993 1.36 1.36 0 0 0 .452.413.879.879 0 0 0 .457.188.7.7 0 0 0 .192-.495 1.533 1.533 0 0 0-.411-1.099z" transform="translate(-1107.661 -462.006)"/>
            <path id="패스_494" data-name="패스 494" d="M1140.786 559.208c-1.4 0-3.3-.8-4.506-3.816-.675-1.686-1.541-1.641-1.708-1.617a.469.469 0 0 0 .071-.016l-.9-3.551c1.383-.35 4.4 0 5.936 3.823.483 1.208.951 1.489 1.084 1.51a1.831 1.831 0 0 1 1.174 3.466 3.228 3.228 0 0 1-1.151.201zm-.169-3.618zm0 0zm0 0z" transform="translate(-1121.802 -464.969)"/>
            <path id="패스_495" data-name="패스 495" d="M1178.736 394.386a7.98 7.98 0 1 1 4.879-1.669 7.864 7.864 0 0 1-4.879 1.669zm0-12.294a4.315 4.315 0 1 0 0 8.631 4.24 4.24 0 0 0 2.633-.9 4.315 4.315 0 0 0-2.633-7.731z" transform="translate(-1141.867 -372.101)"/>
            <path id="패스_496" data-name="패스 496" d="M1368.746 404a7.979 7.979 0 0 1-7.98-7.981 7.978 7.978 0 1 1 7.98 7.981zm0-12.294a4.315 4.315 0 0 0-1.4 8.4 4.249 4.249 0 0 0 1.4.232 4.315 4.315 0 0 0 0-8.631z" transform="translate(-1244.879 -377.311)"/>
            <path id="패스_497" data-name="패스 497" d="M1242.377 582.246a7.113 7.113 0 1 1 7.115-7.111 7.119 7.119 0 0 1-7.115 7.111zm0-10.563a3.45 3.45 0 1 0 3.452 3.452 3.431 3.431 0 0 0-3.452-3.452z" transform="translate(-1176.841 -474.656)"/>
            <path id="패스_498" data-name="패스 498" d="M1267.065 424.114a18.106 18.106 0 0 1-5.047-.755c-1.358-.273-17.709-3.468-31.856-2.485-8.434.588-11.416-2.95-12.429-6.02-1.292-3.9.311-8.212.379-8.393a1.832 1.832 0 0 1 3.427 1.294c-.015.038-1.207 3.3-.328 5.95.883 2.673 3.8 3.854 8.7 3.515 15.212-1.058 32.227 2.422 32.943 2.57a1.8 1.8 0 0 1 .207.055c1.3.426 5.2 1.221 7.608-.218a4.955 4.955 0 0 0 2.23-3.66 29.461 29.461 0 0 0-.221-5.813 1.831 1.831 0 1 1 3.636-.439 31.632 31.632 0 0 1 .191 6.892 8.5 8.5 0 0 1-3.971 6.172 10.667 10.667 0 0 1-5.469 1.335z" transform="translate(-1167.063 -386.657)"/>
            <path id="패스_499" data-name="패스 499" d="M1277.416 383.628a1.832 1.832 0 0 1-1.752-1.3c-2.144-7.092-11.482-11.276-12.179-11.579-10.083-3.568-19.12-3.333-26.862.7a25.181 25.181 0 0 0-8.538 7 1.831 1.831 0 1 1-3.017-2.076 28.7 28.7 0 0 1 9.863-8.176c5.978-3.113 16.006-5.792 29.835-.881l.1.037c.467.2 11.31 4.828 14.2 13.565a1.823 1.823 0 0 1 .189.811v.069a1.832 1.832 0 0 1-1.833 1.831z" transform="translate(-1171.137 -364.607)"/>
            <path id="패스_500" data-name="패스 500" d="M1215.839 397.666a1.818 1.818 0 0 1-.638-.116 7.9 7.9 0 0 1-2.038-1.2c-2.582-1.987-6.878-7.245-6.222-10.633a3.169 3.169 0 0 1 2.241-2.484c2.026-.785 4.665.129 8.061 2.788a38.733 38.733 0 0 1 3.763 3.406 1.831 1.831 0 0 1-2.658 2.521 35.591 35.591 0 0 0-3.365-3.044c-2.715-2.125-4.091-2.359-4.448-2.264.13 1.219 2.214 4.77 4.87 6.812a4.293 4.293 0 0 0 1.075.66 1.832 1.832 0 0 1-.64 3.548z" transform="translate(-1161.448 -374.561)"/>
            <path id="패스_501" data-name="패스 501" d="M1201.327 416.847a1.831 1.831 0 0 1-1.827-1.73c-.2-3.644-4.7-8.01-6.417-9.385a1.831 1.831 0 0 1 2.287-2.862 30.679 30.679 0 0 1 3.686 3.613c2.577 2.992 3.957 5.828 4.1 8.43a1.832 1.832 0 0 1-1.727 1.93z" transform="translate(-1153.6 -385.134)"/>
            <path id="패스_502" data-name="패스 502" d="M1346.455 430.616a1.832 1.832 0 0 1-.383-3.622 12.2 12.2 0 0 0 4.807-2.156c4.456-3.345 5.307-9.027 5.316-9.084a1.831 1.831 0 0 1 3.628.5c-.04.293-1.038 7.232-6.745 11.516a15.843 15.843 0 0 1-6.237 2.808 1.828 1.828 0 0 1-.386.038z" transform="translate(-1236.129 -391.481)"/>
            <path id="패스_503" data-name="패스 503" d="M1220.382 653.029a101.035 101.035 0 0 1-29.826-4.475c-13.03-4.041-20.605-9.308-20.921-9.53l2.107-3c.133.093 7.57 5.226 20.044 9.073a98.544 98.544 0 0 0 51.7 1.554l.842 3.565a104.049 104.049 0 0 1-23.946 2.813zm-49.694-15.5 1.052-1.5z" transform="translate(-1141.26 -511.443)"/>
            <path id="패스_504" data-name="패스 504" d="M1329.354 408.976a1.832 1.832 0 0 1-.705-3.522 16.075 16.075 0 0 0 3.613-2.092 8.858 8.858 0 0 0 3.208-3.862 7.6 7.6 0 0 0-2.485.867 31.013 31.013 0 0 0-4.2 2.62 1.832 1.832 0 0 1-2.211-2.921 34.389 34.389 0 0 1 4.788-2.983c2.7-1.332 4.633-1.593 6.084-.825a3.222 3.222 0 0 1 1.722 2.628c.222 2.622-2.268 5.531-4.672 7.379a19.746 19.746 0 0 1-4.436 2.569 1.825 1.825 0 0 1-.706.142z" transform="translate(-1225.948 -381.534)"/>
            <path id="패스_505" data-name="패스 505" d="M1250.284 541.2a5.556 5.556 0 0 1-3.586-1.364l-.05-.043a7.738 7.738 0 0 0-6.944-.953 4.529 4.529 0 0 1-3.824.06 3.847 3.847 0 0 1-1.912-2.3l3.093-.839-.014-.045a.633.633 0 0 0 .272.325 1.778 1.778 0 0 0 1.187-.169 10.781 10.781 0 0 1 10.251 1.513 2.148 2.148 0 0 0 2.718.261 1.6 1.6 0 1 1 1.968 2.529 5.342 5.342 0 0 1-3.159 1.025z" transform="translate(-1176.137 -456.902)"/>
            <path id="패스_506" data-name="패스 506" d="M1289.261 521.637a1.626 1.626 0 0 1-.357-.04 1.6 1.6 0 0 1-1.207-1.918c.525-2.31.241-3.391-.091-3.892a1.826 1.826 0 0 0-1.346-.75.852.852 0 0 0-.724.156c-.92.678-1.453 2.823-1.567 3.756a1.6 1.6 0 0 1-3.182-.38c.05-.432.564-4.264 2.84-5.95a4.051 4.051 0 0 1 3.2-.737 5 5 0 0 1 3.452 2.137c1 1.508 1.174 3.591.542 6.371a1.6 1.6 0 0 1-1.56 1.247z" transform="translate(-1201.514 -444.25)"/>
            <path id="패스_507" data-name="패스 507" d="M1274.714 406.119a2.954 2.954 0 0 1-1.659-.5 2.591 2.591 0 0 0-2.606-.186 3.036 3.036 0 0 1-3.912-1.446 1.145 1.145 0 0 1 2.07-.978c.194.364.556.454 1.069.269a4.875 4.875 0 0 1 4.666.447.779.779 0 0 0 .859-.052 1.027 1.027 0 0 0 .142-.131 1.145 1.145 0 0 1 1.691 1.543 3.343 3.343 0 0 1-.467.424 3.122 3.122 0 0 1-1.853.61z" transform="translate(-1193.736 -385.078)"/>
            <circle id="타원_102" data-name="타원 102" class="cls-3" cx="6.639" cy="6.639" r="6.639" transform="translate(37.602 69.487)"/>
            <path id="패스_508" data-name="패스 508" d="M1217.126 514.623a1.6 1.6 0 0 1-1.6-1.579c-.028-2.261.881-6.265 4.466-6.938a3.3 3.3 0 0 1 3 .819c1.775 1.727 1.3 5.345 1.181 6.052a1.6 1.6 0 1 1-3.164-.51 5.634 5.634 0 0 0-.243-3.237c-.007.006-.071 0-.185.025-1.823.342-1.855 3.72-1.855 3.754a1.6 1.6 0 0 1-1.588 1.614z" transform="translate(-1166.137 -441.126)"/>
            <circle id="타원_103" data-name="타원 103" class="cls-3" cx="6.639" cy="6.639" r="6.639" transform="translate(87.966 75.912)"/>
            <circle id="타원_104" data-name="타원 104" class="cls-2" cx="2.976" cy="2.976" r="2.976" transform="translate(64.158 13)"/>
            <circle id="타원_105" data-name="타원 105" class="cls-2" cx="3.205" cy="3.205" r="3.205" transform="translate(87.508 15.747)"/>
            <path id="패스_509" data-name="패스 509" d="M1260.868 395.479a1.142 1.142 0 0 1-.93-.477 2.658 2.658 0 0 0-1.883-1.308 3.428 3.428 0 0 0-2.334 1.135 1.145 1.145 0 0 1-1.7-1.536 5.686 5.686 0 0 1 4.149-1.886 4.792 4.792 0 0 1 3.625 2.258 1.145 1.145 0 0 1-.929 1.813z" transform="translate(-1186.851 -379.134)"/>
            <path id="패스_510" data-name="패스 510" d="M1295.083 398.883a1.142 1.142 0 0 1-.951-.506 2.544 2.544 0 0 0-1.741-1.3 3.27 3.27 0 0 0-2.229.944 1.145 1.145 0 0 1-1.616-1.622 5.516 5.516 0 0 1 4.056-1.6 4.681 4.681 0 0 1 3.43 2.3 1.145 1.145 0 0 1-.949 1.783z" transform="translate(-1205.546 -380.965)"/>
        </g>
        <g id="font_logo" data-name="font&amp;logo" transform="translate(1158.119 472.048)">
            <g id="그룹_295" data-name="그룹 295">
                <path id="패스_511" data-name="패스 511" class="cls-3" d="M1229.859 603.124a4.192 4.192 0 0 1 3.329-1.454 4.128 4.128 0 0 1 3.458 2.212l5.568 10.687a4.111 4.111 0 0 1-4.155 5.98l-13.592-1.7a4.112 4.112 0 0 1-2.559-6.818z" transform="translate(-1219.489 -600.291)"/>
                <path id="패스_512" data-name="패스 512" d="M1236.951 620.328a5.462 5.462 0 0 1-.685-.043l-13.591-1.695a5.486 5.486 0 0 1-3.414-9.1l7.952-8.912a5.482 5.482 0 0 1 9.029 1.038l5.567 10.688a5.485 5.485 0 0 1-4.857 8.02zm-7.689-17.916-7.952 8.912a2.738 2.738 0 0 0 1.7 4.54l13.591 1.7a2.738 2.738 0 0 0 2.767-3.982l-5.568-10.692a2.764 2.764 0 0 0-2.32-1.475 2.83 2.83 0 0 0-2.219.997z" transform="translate(-1217.866 -598.665)"/>
            </g>
            <path id="패스_513" data-name="패스 513" class="cls-1" d="M1239.791 615.523a1.218 1.218 0 0 1 .875-.432 1.188 1.188 0 0 1 1.074.634l2.261 4.319a1.215 1.215 0 0 1 0 1.177 1.183 1.183 0 0 1-1.167.579l-5.54-.691a1.171 1.171 0 0 1-.761-1.954z" transform="translate(-1227.826 -607.57)"/>
        </g>
    </g>
</svg>
