<svg xmlns="http://www.w3.org/2000/svg" width="188" height="182" viewBox="0 0 188 182">
    <defs>
        <style>
            .cls-3{fill:#1bd9ac}.cls-4{fill:#f2f2f2}.cls-5{fill:#fff}.cls-6{fill:#d0d0d0}.cls-7{fill:#efea3c}.cls-8{fill:#b8b1b1}
        </style>
    </defs>
    <g id="그룹_58003" data-name="그룹 58003" transform="translate(-110.738 -1009.819)" style="opacity:.5">
        <g id="Layer_4" data-name="Layer 4" transform="translate(110.738 1009.819)">
            <path id="패스_46354" data-name="패스 46354" d="m140.676 1232.949-.022.166c1.185.149 3.4 1 4.611 5 1.694 5.646 10.7 32.812 10.7 32.812a4.482 4.482 0 0 1 .36 1.207v.077c-.127 1.146-.93 2.6-4.533 2.84-2 .133-4.865.3-7.81.454-6.028.332-12.388.642-12.388.642s-2.2.116-3.836-2.784h-.006a1.237 1.237 0 0 0-.138.553h.138c-.017-.553-.066-.559-.149-.57a10.677 10.677 0 0 1-.963-2.463 6.525 6.525 0 0 0 1.351-1.279 10.91 10.91 0 0 0 2.369-5.773 11.41 11.41 0 0 1 .5-2.878v-.155c-.343-.122-.343-.244-.349-.36-.055-5.27-1.832-7.733-1.832-7.733-1.34-1.932-5.364-5.441-8.452 1.185-.05.105-.1.21-.144.327l-.465-.2-3.924-10.915s-3.4-7 1.677-8.269 22.473-1.9 22.473-1.9a2.869 2.869 0 0 1 .8.011.033.033 0 0 1 .032.005z" transform="translate(-112.457 -1110.74)" style="fill:#e9e7e7"/>
            <path id="패스_46355" data-name="패스 46355" class="cls-3" d="M446.78 1300.78z" transform="translate(-261.364 -1141.042)"/>
            <path id="패스_46356" data-name="패스 46356" class="cls-3" d="M446.04 1294.35q.174 1.378.3 2.491-.126-1.113-.3-2.491z" transform="translate(-261.034 -1138.172)"/>
            <path id="패스_46357" data-name="패스 46357" class="cls-4" d="M288.147 1286a51.95 51.95 0 0 1 3.736 18.98c.21 5.059-3.349 9.249-3.349 9.249h-84.87s-3.78-2.247-4.234-16.633c1.594.349 46.146 9.8 88.711-11.6z" transform="translate(-150.638 -1134.443)"/>
            <path id="패스_46358" data-name="패스 46358" class="cls-5" d="m357.8 1280.419-.061.033a32.286 32.286 0 0 0-2.917-5.64l.089-.072a34.377 34.377 0 0 1 2.895 5.679z" transform="translate(-220.145 -1129.187)"/>
            <path id="패스_46359" data-name="패스 46359" class="cls-6" d="M346.667 1025.171a5.481 5.481 0 1 1-.891-10.926 5.567 5.567 0 0 1 5.269 8.264 4.821 4.821 0 0 1-4.356 2.662h-.022z" transform="translate(-213.851 -1011.787)"/>
            <path id="패스_46360" data-name="패스 46360" class="cls-3" d="M388.059 1118.388c8.906 35.751 12.592 55.728 14.109 66.355-1.528-10.639-5.209-30.609-14.109-66.316a80.05 80.05 0 0 0-1.987-6.758c-12.686-36.82-27.465-51.338-37.44-57.056a.453.453 0 0 0-.072-.039c.011-.011.011-.022.017-.033.017.011.039.022.055.033 9.974 5.718 24.753 20.236 37.44 57.056a80.423 80.423 0 0 1 1.987 6.758z" transform="translate(-217.51 -1029.786)"/>
            <path id="패스_46361" data-name="패스 46361" class="cls-3" d="M334.258 1254.752a1.107 1.107 0 0 0-.061.111.519.519 0 0 0-.078-.077c.022-.033.044-.072.066-.105a.883.883 0 0 1 .073.071z" transform="translate(-210.861 -1120.118)"/>
            <path id="패스_46362" data-name="패스 46362" class="cls-3" d="M339.392 1051.587c-.006.011-.006.022-.017.033-6.443-3.675-10.86-3.67-11.375-3.653a.08.08 0 0 0-.011-.039c.46-.017 4.905-.05 11.403 3.659z" transform="translate(-208.137 -1026.833)"/>
            <path id="패스_46363" data-name="패스 46363" class="cls-5" d="M328.283 1050.286a9.607 9.607 0 0 0-.116-1.113c-.066-.4-.138-.786-.227-1.173h.039c.072.327.133.664.188 1a8.454 8.454 0 0 1 .116 1.286z" transform="translate(-208.091 -1026.866)"/>
            <path id="패스_46364" data-name="패스 46364" class="cls-5" d="M327.963 1047.554a3.409 3.409 0 0 0 .011-.554h-.039a4.906 4.906 0 0 1-.006.554z" transform="translate(-208.086 -1026.42)"/>
            <path id="패스_46365" data-name="패스 46365" class="cls-5" d="M323.21 1276.746c.172 4.174 3.869 7.151 15.908-.642.559-.421 1.085-.83 1.589-1.234a32.288 32.288 0 0 1 2.917 5.64.293.293 0 0 0-.061.028 31.807 31.807 0 0 0-2.856-5.5c-.5.4-1.03.813-1.589 1.234-12.205 7.908-15.836 4.737-15.908.474z" transform="translate(-206.015 -1129.474)"/>
            <path id="패스_46366" data-name="패스 46366" class="cls-5" d="M323.006 1277.619c-.006.005 0 .017 0 .028a.27.27 0 0 0-.006.066v-.183a.476.476 0 0 0 .006.089z" transform="translate(-205.876 -1130.661)"/>
            <path id="패스_46367" data-name="패스 46367" class="cls-5" d="M323.206 1276.3c.122 4.218 3.786 7.3 15.908-.553.559-.421 1.085-.83 1.589-1.234 0 0 .028.044.089.127l-.089.072c-.5.4-1.03.814-1.589 1.234-12.039 7.793-15.736 4.816-15.908.642 0-.072-.006-.149-.006-.221a.27.27 0 0 1 .006-.067z" transform="translate(-206.004 -1129.087)"/>
            <path id="패스_46368" data-name="패스 46368" class="cls-5" d="M212.456 1038.64a1.919 1.919 0 1 0 1.079-2.773 2.12 2.12 0 0 0-1.079 2.773zm14.591-3.266a1.921 1.921 0 1 0 1.434-2.607 2.123 2.123 0 0 0-1.434 2.607zm38.419 8.8c-6.728 1.555-12.158 8.6-12.158 8.6l-.129-.012c-.761 8.529-3.193 11.465-6.565 11.465-2.864 0-3.428-5.453-3.524-8.383-.006-.2-.011-.392-.011-.565a25.109 25.109 0 0 1 0-.962c.006-.078.006-.117.006-.117h-.006c.006-.112.006-.173.006-.173-1.75-.722-12.958.207-20.569 1.952s-8.954.777-8.954.777-1.516 11.292-6.929 8.825c-2.344-1.068-3.081-3.932-3.166-6.834-.006-.157-.006-.313-.006-.469v-.112a32.008 32.008 0 0 1 .912-6.912s-.011-.017-.034-.044a5.42 5.42 0 0 0 .034-.129 16.494 16.494 0 0 1-2.818-9.1c-.045-5.587 2.768-13.07 14.356-20.463 21.106-13.466 51.859-9.915 56.462 10.928a1.593 1.593 0 0 1 .033.173h-.033a.1.1 0 0 1 .006.039c.09.391.162.783.229 1.186a9.686 9.686 0 0 1 .117 1.124c.006.089.006.173.006.262a9.278 9.278 0 0 1-7.063 8.909c-.068.011-.136.027-.203.038z" transform="translate(-151.538 -1011.478)"/>
            <path id="패스_46369" data-name="패스 46369" class="cls-5" d="M276 1087h.006s0 .039-.006.116z" transform="translate(-184.81 -1044.586)"/>
            <path id="패스_46370" data-name="패스 46370" class="cls-5" d="M269.19 1238.262s25.218-2.618 36.078 8.845c-.022.044-.05.083-.072.127-10.533-11-34.34-8.934-35.923-8.779l-.083-.193z" transform="translate(-181.823 -1112.654)"/>
            <path id="패스_46371" data-name="패스 46371" class="cls-5" d="M305.263 1247.4c-.022.033-.044.072-.066.105-10.439-10.794-33.709-8.912-35.79-8.723-.022-.055-.044-.111-.066-.161 1.582-.159 25.389-2.221 35.922 8.779z" transform="translate(-181.889 -1112.816)"/>
            <path id="패스_46372" data-name="패스 46372" class="cls-6" d="M252.532 1231.81a6.792 6.792 0 0 1 6.188 3.985.6.6 0 0 0 .066-.006h.006a6.677 6.677 0 0 1 .531 2.535 6.8 6.8 0 1 1-6.792-6.515z" transform="translate(-171.265 -1109.884)"/>
            <path id="패스_46373" data-name="패스 46373" class="cls-3" d="M269.339 1238.851c-.033.006-.061.006-.077.011h-.006a1.041 1.041 0 0 0-.066-.166.466.466 0 0 1 .083-.006c.027.05.044.11.066.161z" transform="translate(-181.758 -1112.915)"/>
            <path id="패스_46374" data-name="패스 46374" class="cls-7" d="M252.527 1231.63a6.792 6.792 0 0 1 6.188 3.985 1.047 1.047 0 0 1 .066.166.6.6 0 0 1-.066.006 6.8 6.8 0 0 0-12.98 2.629.05.05 0 0 0-.006-.028.228.228 0 0 1 .006-.061 6.787 6.787 0 0 1 6.792-6.697z" transform="translate(-171.26 -1109.768)"/>
            <path id="패스_46375" data-name="패스 46375" class="cls-7" d="M259.594 1243.821a6.8 6.8 0 0 1-13.594.171v-.083a.6.6 0 0 1 .006-.1 6.793 6.793 0 0 0 13.583-.1.74.74 0 0 1 .005.112z" transform="translate(-171.382 -1115.212)"/>
            <path id="패스_46376" data-name="패스 46376" class="cls-5" d="M224.889 1241.863a6.777 6.777 0 0 0 13.552-.171.734.734 0 0 0-.006-.11c.006-.061.006-.127.006-.193a6.735 6.735 0 0 0-.458-2.345c2.075-.188 25.272-2.063 35.678 8.7-1.5 2.593-3.057 5.153-4.227 6.748a10.277 10.277 0 0 0-1.8 5.755v.182c0 .071.006.149.006.22.072 4.249 3.691 7.41 15.858-.469.557-.42 1.082-.827 1.584-1.23a31.726 31.726 0 0 1 2.847 5.479c-42.669 21.386-87.285 11.924-88.886 11.576q-.025-.687-.033-1.424c-.011-.37-.011-.745-.011-1.131v-.121c.101-23.184 25.89-31.466 25.89-31.466z" transform="translate(-153.21 -1112.482)"/>
            <path id="패스_46377" data-name="패스 46377" class="cls-5" d="M245.736 1243.73a.228.228 0 0 0-.006.061.249.249 0 0 1 .006-.061z" transform="translate(-171.243 -1115.185)"/>
            <path id="패스_46378" data-name="패스 46378" class="cls-7" d="M246.006 1243.868a.6.6 0 0 0-.006.1v-.127a.049.049 0 0 1 .006.027z" transform="translate(-171.364 -1115.235)"/>
            <path id="패스_46379" data-name="패스 46379" class="cls-5" d="m205.579 1081.18.033.044a31.7 31.7 0 0 0-.9 6.841 31.507 31.507 0 0 1 .867-6.885z" transform="translate(-152.858 -1041.975)"/>
            <path id="패스_46380" data-name="패스 46380" class="cls-5" d="M199 1275.238c.011-23.387 26.015-31.737 26.015-31.737a.6.6 0 0 0 .006.1.249.249 0 0 0-.006.061v.211s-25.915 8.322-26.015 31.614z" transform="translate(-150.322 -1115.468)"/>
            <path id="패스_46381" data-name="패스 46381" class="cls-6" d="M165.41 1033.87a5.483 5.483 0 1 1-5.48 5.485 5.488 5.488 0 0 1 5.48-5.485z" transform="translate(-132.702 -1020.557)"/>
            <path id="패스_46382" data-name="패스 46382" class="cls-3" d="M166.291 1237.978c1.694 5.646 10.7 32.812 10.7 32.812a3.224 3.224 0 0 1 .282 1.378 3.242 3.242 0 0 0-.282-1.207s-9.011-27.166-10.7-32.812c-1.207-4-3.426-4.854-4.611-5l.022-.166c1.19.152 3.388 1.017 4.589 4.995z" transform="translate(-133.483 -1110.77)"/>
            <path id="패스_46383" data-name="패스 46383" class="cls-5" d="M232.2 1119.535a2.7 2.7 0 1 0-2.708-2.7 2.7 2.7 0 0 0 2.708 2.7zm-40.483 4.287a2.7 2.7 0 1 0-2.713-2.7 2.712 2.712 0 0 0 2.71 2.7zm-27.565 68.105c2.95-.154 5.817-.318 7.825-.45 3.788-.247 4.486-1.823 4.464-2.986v.585a3.221 3.221 0 0 0-.284-1.381s-9.069-27.215-10.774-32.872c-1.208-3.987-3.42-4.852-4.617-5.007l.083-.7c-.083-.837-.562-5.878-.852-13.075a.1.1 0 0 0 0-.055q-.034-.841-.067-1.714a.047.047 0 0 0 0-.038c-.017-.594-.039-1.192-.056-1.808q-.042-1.414-.067-2.895c0-.127 0-.261-.006-.388a228.985 228.985 0 0 1-.022-6.677c.005-.826.022-1.658.039-2.5.267-12.576 1.61-26.744 5.564-37.1 5.37-12.51 10.049-19.164 13.2-22.63 2.651-2.917 4.228-3.582 4.228-3.582a16.379 16.379 0 0 0 2.774 8.983 31.425 31.425 0 0 0-.875 6.9v.643c0 .152 0 .3.006.456.055 2.869.757 5.739 3.084 6.8 5.275 2.392 6.752-8.56 6.752-8.56s1.313.944 8.724-.754 18.315-2.593 20.037-1.893v.038a24.18 24.18 0 0 0 0 .944c0 .17.006.357.011.554.072 2.833.6 8.4 3.479 8.4 3.33 0 5.732-2.882 6.483-11.254l.127.011s5.362-6.911 12.006-8.437c.066-.011.132-.028.2-.044a9.114 9.114 0 0 0 6.974-8.915c0-.088 0-.17-.006-.258a8.343 8.343 0 0 0-.116-1.274c-.055-.335-.116-.67-.188-.994.513-.016 4.92-.022 11.348 3.623a.435.435 0 0 1 .072.038c9.951 5.671 24.695 20.07 37.351 56.588a79.463 79.463 0 0 1 1.983 6.7c8.88 35.414 12.552 55.221 14.076 65.772.127.906.243 1.74.348 2.514q.175 1.367.3 2.47c.039.373.077.73.11 1.06.028.241.05.467.066.681.05.516.089.977.122 1.383.127 1.691.116 2.476.11 2.646v.005c.552 4.924.006 15.168.006 15.168h-46.88s3.588-4.183 3.377-9.234a51.432 51.432 0 0 0-3.765-18.945c-.023-.05-.039-.093-.061-.143l-.067-.165a.313.313 0 0 1 .061-.027l.061-.033h.006a33.963 33.963 0 0 0-2.9-5.632c-.061-.082-.088-.126-.088-.126-.505.4-1.032.807-1.592 1.224-12.145 7.784-15.816 4.732-15.938.549 0-.011-.006-.022 0-.028a10.145 10.145 0 0 1 1.8-5.446c1.209-1.636 2.834-4.287 4.386-6.944a.612.612 0 0 0-.061-.06 1.092 1.092 0 0 1 .061-.11.87.87 0 0 0-.072-.071c.022-.044.05-.082.072-.126-10.88-11.369-36.146-8.773-36.146-8.773.028.066.056.126.083.192a.467.467 0 0 0-.083.006 6.819 6.819 0 0 0-13 2.69.6.6 0 0 1-.005-.1s-26.008 8.268-26.02 31.423v.368c0 .385 0 .758.011 1.125 0 .554.011 1.092.028 1.614 0 .06.006.115.006.17.455 14.356 4.27 16.6 4.27 16.6h-18.192a68.654 68.654 0 0 1-2.1-14.087z" transform="translate(-132.627 -1026.865)"/>
            <path id="패스_46384" data-name="패스 46384" class="cls-3" d="m160.22 1204.95.066 1.71q-.041-.838-.066-1.71z" transform="translate(-132.831 -1097.723)"/>
            <path id="패스_46385" data-name="패스 46385" class="cls-3" d="M160.12 1201.62c.017.614.039 1.212.055 1.8-.022-.582-.038-1.186-.055-1.8z" transform="translate(-132.786 -1096.224)"/>
            <path id="패스_46386" data-name="패스 46386" class="cls-5" d="M132.762 1277.842a10.911 10.911 0 0 1-2.369 5.773 6.524 6.524 0 0 1-1.351 1.279 10.677 10.677 0 0 0 .963 2.463c-1.24-.133-9.5-1.384-9.576-10.079a18.047 18.047 0 0 1 .5-3.885 27.218 27.218 0 0 1 1.7-5.253c3.089-6.625 7.113-3.116 8.452-1.184 0 0 1.727 2.391 1.832 7.495.006.116.006.238.006.36v.155a25.756 25.756 0 0 1-.157 2.876z" transform="translate(-115.065 -1124.746)"/>
            <path id="패스_46387" data-name="패스 46387" class="cls-3" d="M130.4 1297.856c.044.083.094.161.138.238-.3-.022-9.8-.858-9.725-10.334.072 8.7 8.336 9.947 9.576 10.079.002.006.002.012.011.017z" transform="translate(-115.235 -1135.229)"/>
            <path id="패스_46388" data-name="패스 46388" class="cls-8" d="M157.037 1155.62s-.014-.082-.027-.258c-.05-.509-.542-5.615-.853-12.972v-.105l-.065-1.67v-.089l-.054-1.778q-.042-1.417-.068-2.912V1135.411c0-.216 0-.437-.009-.658q-.046-3.053-.013-6.03c.006-.791.021-1.6.037-2.411v-.105c.325-16.13 2.235-28.9 5.673-37.944l.034-.083c5.539-12.963 10.405-19.774 13.513-23.205 2.819-3.115 4.641-3.984 4.978-4.128a2.214 2.214 0 0 1 1.775 4.057 14.142 14.142 0 0 0-3.469 3.043c-2.877 3.177-7.415 9.559-12.706 21.931-3.248 8.571-5.055 20.823-5.37 36.418v.1c-.016.8-.032 1.581-.037 2.363a230.037 230.037 0 0 0 .022 6.606c0 .142.006.29.006.431.016.939.038 1.892.065 2.824l.056 1.807v.054l.061 1.578a2.345 2.345 0 0 1 .009.264c.315 7.4.811 12.42.833 12.63 0 .026 0 .051.007.076l-.008-.056zm-.764-12.665zm0-.006zm0 0zm0-.005zm0-.005zm0 0zm0-1.318zm0 0zm0-.005zm0-.005zm0-.005z" transform="translate(-130.914 -1032.941)"/>
            <path id="패스_46389" data-name="패스 46389" d="M445.214 1309.428a2.211 2.211 0 1 1 1.566-.648 2.25 2.25 0 0 1-1.566.648z" transform="translate(-259.676 -1142.927)"/>
            <path id="패스_46390" data-name="패스 46390" class="cls-8" d="M392.262 1191.78h-.075a2.2 2.2 0 0 1-2.139-2.266c0-.029.022-.717-.106-2.409a81.93 81.93 0 0 0-.118-1.336 17.775 17.775 0 0 0-.062-.642l-.113-1.083c-.08-.706-.178-1.519-.293-2.418-.1-.753-.218-1.584-.345-2.485-1.493-10.3-5.145-30.039-14.064-65.5a77.2 77.2 0 0 0-1.932-6.515c-12.4-35.672-26.654-49.793-36.432-55.355l-.083-.044c-6.055-3.425-10.041-3.342-10.207-3.334a2.2 2.2 0 1 1-.115-4.388c.958-.02 5.689.066 12.451 3.873.049.024.116.06.193.107 10.435 5.95 25.546 20.793 38.379 57.713a81.041 81.041 0 0 1 2.042 6.885c8.964 35.642 12.643 55.536 14.152 65.949.129.918.245 1.755.351 2.532.12.94.221 1.773.3 2.518l.113 1.085c.028.239.053.49.071.73.048.485.087.957.121 1.373.137 1.82.124 2.675.117 2.894a2.206 2.206 0 0 1-2.206 2.116z" transform="translate(-206.546 -1025.079)"/>
            <path id="패스_46391" data-name="패스 46391" d="M326.214 1048.43a2.293 2.293 0 0 1-.432-.044 2.128 2.128 0 0 1-.415-.127 2.52 2.52 0 0 1-.382-.2 2.211 2.211 0 0 1-.614-.615 2.5 2.5 0 0 1-.2-.382 2.119 2.119 0 0 1-.127-.415 2.127 2.127 0 0 1 0-.864 2.118 2.118 0 0 1 .127-.415 2.5 2.5 0 0 1 .2-.382 2.715 2.715 0 0 1 .277-.338 2.234 2.234 0 0 1 2-.6 2.119 2.119 0 0 1 .415.127 2.52 2.52 0 0 1 .382.2 2.713 2.713 0 0 1 .338.277 2.249 2.249 0 0 1 .648 1.566 2.286 2.286 0 0 1-.044.432 2.119 2.119 0 0 1-.127.415 2.5 2.5 0 0 1-.2.382 2.211 2.211 0 0 1-.614.615 2.52 2.52 0 0 1-.382.2 2.128 2.128 0 0 1-.415.127 2.293 2.293 0 0 1-.435.041z" transform="translate(-206.333 -1025.082)"/>
            <path id="패스_46392" data-name="패스 46392" d="M326.214 1048.43a2.293 2.293 0 0 1-.432-.044 2.128 2.128 0 0 1-.415-.127 2.52 2.52 0 0 1-.382-.2 2.211 2.211 0 0 1-.614-.615 2.5 2.5 0 0 1-.2-.382 2.119 2.119 0 0 1-.127-.415 2.127 2.127 0 0 1 0-.864 2.118 2.118 0 0 1 .127-.415 2.5 2.5 0 0 1 .2-.382 2.715 2.715 0 0 1 .277-.338 2.234 2.234 0 0 1 2-.6 2.119 2.119 0 0 1 .415.127 2.52 2.52 0 0 1 .382.2 2.713 2.713 0 0 1 .338.277 2.249 2.249 0 0 1 .648 1.566 2.286 2.286 0 0 1-.044.432 2.119 2.119 0 0 1-.127.415 2.5 2.5 0 0 1-.2.382 2.211 2.211 0 0 1-.614.615 2.52 2.52 0 0 1-.382.2 2.128 2.128 0 0 1-.415.127 2.293 2.293 0 0 1-.435.041z" transform="translate(-206.333 -1025.082)"/>
            <path id="패스_46393" data-name="패스 46393" class="cls-8" d="M188.661 1296h-18.155a2.214 2.214 0 0 1-2.134-1.626 71.52 71.52 0 0 1-2.171-14.722 2.214 2.214 0 0 1 4.426-.138 70.651 70.651 0 0 0 1.6 12.059h12.36c-1.131-2.742-2.174-7.208-2.4-14.455v-.069c0-.023 0-.074-.006-.126a57.692 57.692 0 0 1-.028-1.641c-.011-.381-.011-.768-.011-1.167V1274c.044-10.227 4.846-19.3 13.887-26.255a49.613 49.613 0 0 1 13.621-7.414 2.214 2.214 0 1 1 1.354 4.216c-.241.077-24.342 8.125-24.434 29.462v.112c0 .365 0 .719.01 1.068v.066c0 .535.011 1.055.027 1.558v.192c.359 11.359 2.831 14.462 3.263 14.919a2.032 2.032 0 0 1 1.113 2.364 2.321 2.321 0 0 1-2.322 1.712zm1.131-4.117" transform="translate(-135.628 -1114.003)"/>
            <path id="패스_46394" data-name="패스 46394" class="cls-8" d="M129.922 1276.579a6.807 6.807 0 0 1-5.688-3.6 2.214 2.214 0 0 1 3.774-2.315 2.665 2.665 0 0 0 1.9 1.489c.709-.035 6.693-.328 12.313-.638 2.98-.157 5.815-.322 7.786-.452 1.63-.108 2.345-.507 2.388-.711v-.061a1.061 1.061 0 0 0-.075-.379.811.811 0 0 1-.095-.239c-.369-1.11-9.041-27.261-10.725-32.873-.614-2.036-1.618-3.291-2.753-3.438l-.09-.014c-.047 0-.085-.006-.111-.006a.521.521 0 0 1-.174.019h-.083c-4.775.173-18.037.841-22.014 1.839-.732.182-.873.484-.942.629-.49 1.041.14 3.319.72 4.531a2.3 2.3 0 0 1 .089.213l3.924 10.915a2.214 2.214 0 1 1-4.167 1.5l-3.888-10.814c-.4-.868-2.178-5.035-.692-8.214a5.551 5.551 0 0 1 3.88-3.053c5.086-1.276 21.231-1.905 22.826-1.965a5.308 5.308 0 0 1 1.285.027l.1.017c1.446.214 4.742 1.287 6.327 6.541 1.615 5.381 10.045 30.818 10.653 32.652a5.518 5.518 0 0 1 .428 2.205v.151c-.059 1.364-.813 4.576-6.521 4.953-1.988.132-4.846.3-7.84.456-5.96.328-12.332.639-12.4.642-.021-.009-.07-.007-.135-.007zm-.024-4.429a.46.46 0 0 0-.058 0h.058z" transform="translate(-110.738 -1108.953)"/>
            <path id="패스_46395" data-name="패스 46395" d="M135.7 1304.666a2.213 2.213 0 0 1-1.925-1.116l-.03-.052c-.03-.05-.06-.1-.09-.153l-.039-.067a12.939 12.939 0 0 1-1.17-2.973 2.214 2.214 0 0 1 4.279-1.141 8.656 8.656 0 0 0 .728 1.9l.059.1.108.183a2.215 2.215 0 0 1-1.92 3.313z" transform="translate(-120.396 -1139.586)"/>
            <path id="패스_46396" data-name="패스 46396" class="cls-8" d="M325.453 1265.3a6.925 6.925 0 0 1-3.231-.729 6.241 6.241 0 0 1-3.215-5.607v-.091c0-.095-.006-.159-.006-.221v-.183a12.655 12.655 0 0 1 2.229-6.878c.966-1.321 2.364-3.553 4.156-6.637.028-.055.059-.109.092-.164 2.5-4.329 4.844-8.736 4.868-8.78a2.214 2.214 0 1 1 3.911 2.076c-.023.045-2.4 4.52-4.943 8.916l-.008.013a1.21 1.21 0 0 1-.055.1c-1.914 3.3-3.368 5.614-4.445 7.086a8.158 8.158 0 0 0-1.377 4.291v.319c.044.952.322 1.566.824 1.826.47.244 3.234 1.18 11.6-4.223.517-.39 1-.77 1.473-1.145l.1-.078c7.386-5.94 8.374-9.778 8.383-9.817l-.012.057 4.355.8c-.1.529-1.2 5.374-9.962 12.417l-.089.073c-.523.419-1.066.842-1.644 1.277a2.122 2.122 0 0 1-.128.09c-5.38 3.481-9.635 5.212-12.876 5.212zm3.918-18.424-.013.03zm0 0z" transform="translate(-204.154 -1111.353)"/>
            <path id="패스_46397" data-name="패스 46397" class="cls-8" d="M251.011 1245.522a8.963 8.963 0 0 1-9.011-8.783V1236.511c0-.074 0-.153.008-.24a9.008 9.008 0 0 1 17.194-3.518c.035.072.066.145.1.219l.012.026a8.854 8.854 0 0 1 .706 3.277c.006.077.008.153.008.236a9.021 9.021 0 0 1-9.017 9.011zm-4.583-8.871a4.584 4.584 0 0 0 9.166-.1c0-.042 0-.085-.006-.128a4.45 4.45 0 0 0-.309-1.585 2.194 2.194 0 0 1-.1-.237 4.58 4.58 0 0 0-8.746 1.836v.125zm-.057.281zm0 0zm9.24-.212zm-.006-.044c0 .014 0 .029.006.044-.001-.02-.003-.03-.005-.044zm-.387-1.986zm-.072-.183z" transform="translate(-169.595 -1107.968)"/>
            <path id="패스_46398" data-name="패스 46398" class="cls-8" d="M128.288 1287.609h-.162a2.224 2.224 0 0 1-.519-.061c-4.315-.556-11.287-3.7-11.359-12.231a19.864 19.864 0 0 1 .56-4.644 30.125 30.125 0 0 1 1.668-5.231c.065-.168.136-.322.209-.475 1.491-3.172 3.467-4.891 5.866-5.1 2.751-.234 5.142 1.7 6.466 3.6.2.276 2.176 3.156 2.246 8.94.006.137.006.278.006.421v.155q-.019 1.421-.174 2.874a13.04 13.04 0 0 1-2.889 6.957q-.332.4-.678.745a2.214 2.214 0 0 1-1.241 4.048zM122.624 1267a1.82 1.82 0 0 1-.064.159 25.492 25.492 0 0 0-1.439 4.521 15.423 15.423 0 0 0-.444 3.6 7.262 7.262 0 0 0 4.3 6.938 2.206 2.206 0 0 1 .935-1.38 4.328 4.328 0 0 0 .886-.849 8.625 8.625 0 0 0 1.894-4.607c.087-.824.138-1.644.148-2.426v-.462c-.046-4.372-1.43-6.462-1.444-6.483-.63-.9-1.722-1.78-2.463-1.729-.671.058-1.509 1.023-2.242 2.582a1.69 1.69 0 0 0-.067.136z" transform="translate(-113.199 -1122.768)"/>
            <path id="패스_46399" data-name="패스 46399" class="cls-8" d="M254.147 1089.582c-2.437 0-5.4-1.8-5.7-10.345a92.357 92.357 0 0 0-17.659 2.125c-5.642 1.3-9.227 1.435-10.652.406a2.214 2.214 0 0 1 2.231-3.8c.323.065 2.108.305 7.43-.92 6.628-1.52 18.984-2.94 21.7-1.821a2.238 2.238 0 0 1 1.37 2.047s0 .078-.006.221v.988c0 .18 0 .344.01.519.128 3.967.925 5.816 1.326 6.152 2.267-.048 3.693-3.185 4.241-9.329.048-.53.09-1.081.122-1.657 0-.031 0-.062.007-.094a22.5 22.5 0 0 0-.4-5.294 2.214 2.214 0 1 1 4.361-.772 26.775 26.775 0 0 1 .449 6.436 53.82 53.82 0 0 1-.131 1.776c-.29 3.303-1.188 13.362-8.699 13.362zm-31.418-11.406zm0 0zm0 0z" transform="translate(-159.417 -1035.239)"/>
            <path id="패스_46400" data-name="패스 46400" class="cls-8" d="M206.3 1066.109a5.725 5.725 0 0 1-2.389-.551c-1.931-.88-4.266-3.106-4.429-8.714-.006-.168-.006-.349-.006-.529v-.111a33.232 33.232 0 0 1 .746-6.6 19.009 19.009 0 0 1-2.634-9.408c-.045-5.639 2.561-14.056 15.232-22.14 13.351-8.519 30.948-10.667 43.789-5.348 8.213 3.4 13.7 9.637 15.447 17.553.017.074.032.143.044.21.081.365.149.743.211 1.121a10.7 10.7 0 0 1 .145 1.567c.005.113.006.221.006.336a11.357 11.357 0 0 1-8.679 10.968 4.103 4.103 0 0 1-.272.061c-5.769 1.361-10.686 7.631-10.735 7.694a2.214 2.214 0 0 1-3.5-2.707c.24-.31 5.942-7.615 13.288-9.313l.134-.027.022-.007a6.934 6.934 0 0 0 5.318-6.685v-.216a6.226 6.226 0 0 0-.087-.95 25.56 25.56 0 0 0-.153-.828 2.29 2.29 0 0 1-.051-.246l-.014-.067c-1.82-8.241-7.971-12.369-12.809-14.373-11.565-4.792-27.524-2.786-39.712 4.989-8.678 5.537-13.237 11.889-13.185 18.369a14.31 14.31 0 0 0 2.347 7.7 2.244 2.244 0 0 1 .375 1.868l-.041.157a29.543 29.543 0 0 0-.794 6.316v.499c.044 1.518.341 4.143 1.839 4.826.535.244.74.13.862.063 1.353-.747 2.544-4.591 2.883-7.079a2.214 2.214 0 0 1 4.388.591c-.182 1.358-1.286 8.239-5.128 10.363a5.05 5.05 0 0 1-2.458.648zm61.446-34.822v.013zm-.025-.178z" transform="translate(-149.764 -1009.819)"/>
            <path id="패스_46401" data-name="패스 46401" class="cls-8" d="M304.939 1247.887a2.252 2.252 0 0 1-1.593-.657l-.034-.036c-.024-.023-.048-.046-.071-.071-9.907-10.344-33.125-8.2-34.109-8.107q-.1.01-.2.01a1.26 1.26 0 0 0 .343-.039l-.885-4.339a2.56 2.56 0 0 1 .383-.047c3.015-.288 26.507-2.116 37.617 9.409.043.041.084.083.123.125a2.2 2.2 0 0 1-1.575 3.751zm-1.49-.572zm0 0zm0 0zm-34.524-8.284zm0 0zm0 0zm0 0z" transform="translate(-181.47 -1111.019)"/>
            <path id="패스_46402" data-name="패스 46402" class="cls-8" d="M359.777 1300.207a2.214 2.214 0 0 1-2.213-2.186 50.267 50.267 0 0 0-3.594-18.292l-.073-.182a30.728 30.728 0 0 0-2.676-5.193 2.214 2.214 0 0 1 3.625-2.543 34.361 34.361 0 0 1 3.15 6.062l.079.2a54.729 54.729 0 0 1 3.917 19.9 2.214 2.214 0 0 1-2.186 2.242z" transform="translate(-218.373 -1127.689)"/>
            <path id="패스_46403" data-name="패스 46403" class="cls-8" d="M332.4 1054.206a2.215 2.215 0 0 1-.914-4.232 13.051 13.051 0 0 0 6.813-7.344c.014-.035.029-.071.045-.106l.005-.012a24.322 24.322 0 0 0 1.42-10.262l-.012-.125a2.214 2.214 0 0 1 4.387-.607s.019.128.038.365a29.01 29.01 0 0 1-1.7 12.211l-.042.106-.033.081-.037.083a17.32 17.32 0 0 1-9.062 9.643 2.209 2.209 0 0 1-.908.199zm7.969-10.783z" transform="translate(-209.129 -1018.669)"/>
            <path id="패스_46404" data-name="패스 46404" class="cls-8" d="M185.685 1062.548a2.215 2.215 0 0 1-2.143-1.664c-2.081-8.1-6.207-9.594-6.247-9.607a2.214 2.214 0 0 1 1.319-4.227c.264.083 6.495 2.139 9.217 12.732a2.216 2.216 0 0 1-2.146 2.766z" transform="translate(-139.88 -1026.397)"/>
            <path id="패스_46405" data-name="패스 46405" class="cls-8" d="M233.172 1199.455a6.235 6.235 0 0 1-4.827-2.336 1.937 1.937 0 0 1 3.049-2.391c.438.528 1.674 1.585 3.726.093 5.525-4.011 10.751-2.865 13.875-2.181a24.53 24.53 0 0 0 1.5.3c2.925.43 4.019-.041 6.165-2.642a1.937 1.937 0 1 1 2.989 2.465c-2.594 3.144-4.911 4.714-9.712 4.011a25.304 25.304 0 0 1-1.767-.347c-2.963-.649-6.651-1.458-10.768 1.531a7.136 7.136 0 0 1-4.23 1.497z" transform="translate(-163.311 -1090.838)"/>
            <path id="패스_46406" data-name="패스 46406" class="cls-8" d="M231.265 1065.192h-.143a3.238 3.238 0 0 1-2.225-1.134 1.384 1.384 0 0 1 2.116-1.783.527.527 0 0 0 .253.153c.03 0 .157-.04.356-.236a4.421 4.421 0 0 1 4.64-.923c.554-.022 1.376-.2 1.516-.56a1.384 1.384 0 0 1 2.583.995c-.936 2.43-4.082 2.349-4.436 2.33a1.378 1.378 0 0 1-.513-.126 1.747 1.747 0 0 0-1.845.254 3.239 3.239 0 0 1-2.302 1.03z" transform="translate(-163.57 -1032.144)"/>
            <path id="패스_46407" data-name="패스 46407" class="cls-8" d="M223.647 1299.384a138.483 138.483 0 0 1-26.984-2.41 2.514 2.514 0 0 1-.36-.095 2.214 2.214 0 0 1 1.27-4.238c2.309.5 46.008 9.477 87.733-11.469l.037-.018a2.214 2.214 0 0 1 2.233 3.816 2.67 2.67 0 0 1-.272.154l-.011.005c-22.864 11.479-46.312 14.255-63.646 14.255zm63.883-14.392zm0 0z" transform="translate(-148.563 -1132.17)"/>
            <path id="패스_46408" data-name="패스 46408" class="cls-8" d="M163.624 1045.263a7.7 7.7 0 1 1 7.7-7.694 7.7 7.7 0 0 1-7.7 7.694zm0-10.965a3.269 3.269 0 1 0 3.271 3.271 3.272 3.272 0 0 0-3.271-3.269z" transform="translate(-130.916 -1018.772)"/>
            <path id="패스_46409" data-name="패스 46409" class="cls-8" d="M344.426 1025.618a7.7 7.7 0 1 1 6.354-12.058 8.038 8.038 0 0 1 .477 8.118v.005a7.062 7.062 0 0 1-6.283 3.916 8.481 8.481 0 0 1-.548.019zm.011-10.963c-.088 0-.177 0-.265.011a3.267 3.267 0 1 0 .528 6.514c.06-.005.121-.008.182-.008a2.62 2.62 0 0 0 2.382-1.406 3.536 3.536 0 0 0-.13-3.693 3.283 3.283 0 0 0-2.697-1.418zm4.823 6.068z" transform="translate(-212.068 -1010.001)"/>
            <path id="패스_46410" data-name="패스 46410" class="cls-8" d="M290.423 1329.918h-85.147a2.233 2.233 0 0 1-2.236-2.214 2.2 2.2 0 0 1 2.192-2.214h84.073a12.383 12.383 0 0 0 2.276-7 2.214 2.214 0 0 1 4.425-.183c.243 5.889-3.726 10.635-3.9 10.835a2.215 2.215 0 0 1-1.683.776z" transform="translate(-152.263 -1147.918)"/>
            <path id="패스_46411" data-name="패스 46411" class="cls-8" d="M406.822 1324.926h-47.608a2.214 2.214 0 1 1 0-4.428H404.7a108.981 108.981 0 0 0-.087-12.834 2.276 2.276 0 0 1-.013-.245v-.2a2.214 2.214 0 0 1 4.428 0v.085c.545 5.127.025 15.105 0 15.531a2.213 2.213 0 0 1-2.206 2.091z" transform="translate(-221.278 -1142.927)"/>
            <circle id="타원_1868" data-name="타원 1868" class="cls-8" cx="3.131" cy="3.131" r="3.131" transform="translate(55.487 90.906)"/>
            <path id="패스_46412" data-name="패스 46412" class="cls-8" d="M287.971 1167.171a3.083 3.083 0 1 1-3.08 3.086 3.084 3.084 0 0 1 3.08-3.086z" transform="translate(-188.805 -1080.72)"/>
            <circle id="타원_1869" data-name="타원 1869" class="cls-4" cx="8.303" cy="8.303" r="8.303" transform="translate(43.171 97.849)"/>
            <circle id="타원_1870" data-name="타원 1870" class="cls-4" cx="8.303" cy="8.303" r="8.303" transform="translate(103.298 90.71)"/>
            <circle id="타원_1871" data-name="타원 1871" class="cls-4" cx="3.598" cy="3.598" r="3.598" transform="translate(56.42 27.222)"/>
            <circle id="타원_1872" data-name="타원 1872" class="cls-4" cx="3.598" cy="3.598" r="3.598" transform="translate(77.937 22.794)"/>
            <path id="패스_46413" data-name="패스 46413" class="cls-8" d="M224.716 1055.436a1.919 1.919 0 1 1-2.5-1.616 2.12 2.12 0 0 1 2.5 1.616z" transform="translate(-160.164 -1029.432)"/>
            <path id="패스_46414" data-name="패스 46414" class="cls-8" d="M249.007 1048.259a2.349 2.349 0 1 1-1.434 2.607 2.126 2.126 0 0 1 1.434-2.607z" transform="translate(-172.053 -1026.97)"/>
        </g>
        <g id="font_logo" data-name="font&amp;logo" transform="translate(180.028 1146.662)">
            <g id="그룹_58003-2" data-name="그룹 58003">
                <path id="패스_46415" data-name="패스 46415" class="cls-5" d="M246.47 1265.249a5.066 5.066 0 0 1 3.442-2.725 4.99 4.99 0 0 1 4.724 1.518l9.8 10.776a4.971 4.971 0 0 1-3.013 8.272l-16.409 2.209a4.971 4.971 0 0 1-5.094-7.18z" transform="translate(-237.72 -1260.758)"/>
                <path id="패스_46416" data-name="패스 46416" class="cls-8" d="M243.011 1285.665a6.633 6.633 0 0 1-5.9-9.639l6.546-12.869a6.627 6.627 0 0 1 10.874-1.572l9.8 10.776a6.632 6.632 0 0 1-4.02 11.035l-16.409 2.21a6.748 6.748 0 0 1-.891.059zm6.6-22.925a3.518 3.518 0 0 0-.7.071 3.422 3.422 0 0 0-2.292 1.851l-6.546 12.869a3.31 3.31 0 0 0 3.392 4.781l16.409-2.209a3.311 3.311 0 0 0 2.007-5.509l-9.8-10.776a3.306 3.306 0 0 0-2.469-1.078z" transform="translate(-236.385 -1259.418)"/>
            </g>
            <path id="패스_46417" data-name="패스 46417" class="cls-6" d="M256.122 1276.788a1.474 1.474 0 0 1 .889-.776 1.437 1.437 0 0 1 1.451.41l3.975 4.351a1.467 1.467 0 0 1 .367 1.375 1.43 1.43 0 0 1-1.185 1.036l-6.689.9a1.415 1.415 0 0 1-1.492-2.049z" transform="translate(-243.93 -1266.803)"/>
        </g>
    </g>
</svg>
