<svg xmlns="http://www.w3.org/2000/svg" xmlns:xlink="http://www.w3.org/1999/xlink" width="39.763" height="39.763" viewBox="0 0 39.763 39.763">
  <defs>
    <linearGradient id="linear-gradient" y1="0.5" x2="1" y2="0.5" gradientUnits="objectBoundingBox">
      <stop offset="0" stop-color="#63e2c5"/>
      <stop offset="0.583" stop-color="#c8f4ea"/>
      <stop offset="0.92" stop-color="#fff"/>
    </linearGradient>
  </defs>
  <g id="그룹_56757" data-name="그룹 56757" transform="translate(0 0)">
    <rect id="사각형_787" data-name="사각형 787" width="39.763" height="39.763" transform="translate(0 0)" fill="none"/>
    <g id="그룹_55592" data-name="그룹 55592" transform="translate(3.181 3.976)">
      <g id="그룹_55581" data-name="그룹 55581">
        <g id="그룹_55580" data-name="그룹 55580">
          <g id="그룹_55579" data-name="그룹 55579">
            <path id="패스_36611" data-name="패스 36611" d="M743.55,698.1H719.623a.5.5,0,0,1-.5-.5V672.2a.5.5,0,0,1,.174-.38l6.793-5.863a.5.5,0,0,1,.329-.122H743.55a.5.5,0,0,1,.5.5V697.6A.5.5,0,0,1,743.55,698.1Zm-23.423-1.007h22.92V666.846H726.6l-6.477,5.59Z" transform="translate(-719.12 -665.839)" fill="#272727"/>
          </g>
          <path id="패스_36612" data-name="패스 36612" d="M727.019,674.049h-6.585a.5.5,0,1,1,0-1.007h6.082v-5.384a.5.5,0,0,1,1.007,0v5.887A.5.5,0,0,1,727.019,674.049Z" transform="translate(-719.387 -666.272)" fill="#272727"/>
        </g>
      </g>
      <g id="그룹_55583" data-name="그룹 55583" transform="translate(2.986 10.344)">
        <rect id="사각형_10286" data-name="사각형 10286" width="2.58" height="2.58" transform="translate(0.397 0.398)" fill="#fff"/>
        <path id="패스_28226" data-name="패스 28226" d="M726.547,684.629h-2.58a.4.4,0,0,1-.4-.4h0v-2.58a.4.4,0,0,1,.4-.4h2.58a.4.4,0,0,1,.4.4h0v2.58a.4.4,0,0,1-.4.4Zm-2.183-.794h1.788v-1.786h-1.788Z" transform="translate(-723.57 -681.254)" fill="#363436"/>
      </g>
      <g id="그룹_55584" data-name="그룹 55584" transform="translate(7.932 11.634)">
        <line id="선_1070" data-name="선 1070" x2="12.939" transform="translate(0.381 0.397)" fill="none"/>
        <path id="패스_28227" data-name="패스 28227" d="M744.26,683.971H731.321a.4.4,0,0,1,0-.794H744.26a.4.4,0,0,1,0,.794Z" transform="translate(-730.94 -683.177)" fill="#363436"/>
      </g>
      <g id="그룹_55585" data-name="그룹 55585" transform="translate(2.986 15.297)">
        <rect id="사각형_10287" data-name="사각형 10287" width="2.58" height="2.58" transform="translate(0.397 0.398)" fill="#fff"/>
        <path id="패스_28228" data-name="패스 28228" d="M726.547,692.01h-2.58a.4.4,0,0,1-.4-.4h0v-2.58a.4.4,0,0,1,.4-.4h2.58a.4.4,0,0,1,.4.4h0v2.58a.4.4,0,0,1-.4.4Zm-2.183-.794h1.788v-1.786h-1.788Z" transform="translate(-723.57 -688.635)" fill="#363436"/>
      </g>
      <g id="그룹_55586" data-name="그룹 55586" transform="translate(7.932 16.588)">
        <line id="선_1071" data-name="선 1071" x2="12.939" transform="translate(0.381 0.397)" fill="none"/>
        <path id="패스_28229" data-name="패스 28229" d="M744.26,691.353H731.321a.4.4,0,0,1,0-.794H744.26a.4.4,0,0,1,0,.794Z" transform="translate(-730.94 -690.559)" fill="#363436"/>
      </g>
      <g id="그룹_55587" data-name="그룹 55587" transform="translate(2.986 20.251)">
        <rect id="사각형_10288" data-name="사각형 10288" width="2.58" height="2.58" transform="translate(0.397 0.397)" fill="#fff"/>
        <path id="패스_28230" data-name="패스 28230" d="M726.547,699.392h-2.58a.4.4,0,0,1-.4-.4h0v-2.58a.4.4,0,0,1,.4-.4h2.58a.4.4,0,0,1,.4.4h0v2.58a.4.4,0,0,1-.4.4Zm-2.183-.791h1.788v-1.786h-1.788Z" transform="translate(-723.57 -696.017)" fill="#363436"/>
      </g>
      <g id="그룹_55588" data-name="그룹 55588" transform="translate(7.932 21.541)">
        <line id="선_1072" data-name="선 1072" x2="12.939" transform="translate(0.381 0.397)" fill="none"/>
        <path id="패스_28231" data-name="패스 28231" d="M744.26,698.734H731.321a.4.4,0,0,1,0-.794H744.26a.4.4,0,0,1,0,.794Z" transform="translate(-730.94 -697.94)" fill="#363436"/>
      </g>
      <g id="그룹_55589" data-name="그룹 55589" transform="translate(2.986 25.203)">
        <rect id="사각형_10289" data-name="사각형 10289" width="2.58" height="2.58" transform="translate(0.397 0.398)" fill="#fff"/>
        <path id="패스_28232" data-name="패스 28232" d="M726.547,706.773h-2.58a.4.4,0,0,1-.4-.4h0V703.8a.4.4,0,0,1,.4-.4h2.58a.4.4,0,0,1,.4.4h0v2.58a.4.4,0,0,1-.4.4Zm-2.183-.794h1.788v-1.786h-1.788Z" transform="translate(-723.57 -703.398)" fill="#363436"/>
      </g>
      <g id="그룹_55590" data-name="그룹 55590" transform="translate(7.932 26.495)">
        <line id="선_1073" data-name="선 1073" x2="12.939" transform="translate(0.381 0.397)" fill="none"/>
        <path id="패스_28233" data-name="패스 28233" d="M744.26,706.117H731.321a.4.4,0,0,1,0-.794H744.26a.4.4,0,0,1,0,.794Z" transform="translate(-730.94 -705.322)" fill="#363436"/>
      </g>
      <g id="그룹_55878" data-name="그룹 55878" transform="translate(6.94 5.918)">
        <rect id="사각형_11001" data-name="사각형 11001" width="29.382" height="29.382" fill="none"/>
        <g id="그룹_55588-2" data-name="그룹 55588" transform="translate(3.941 0.343)">
          <circle id="타원_1302" data-name="타원 1302" cx="10.338" cy="10.338" r="10.338" transform="translate(0.831 4.077)" fill="#fff"/>
          <path id="패스_36635" data-name="패스 36635" d="M1002.2,352.6a4.469,4.469,0,0,0,.93-2.936c0-1.905-.872-3.45-1.946-3.45s-1.945,1.545-1.945,3.45a4.8,4.8,0,0,0,.726,2.687c-.711.308-3.332,1.51-3.434,2.547v1.665h9.209S1005.871,353.523,1002.2,352.6Z" transform="translate(-989.864 -337.549)" fill="url(#linear-gradient)"/>
          <path id="패스_36636" data-name="패스 36636" d="M997.352,360.24a10.922,10.922,0,1,1,7.726-18.643h0a10.919,10.919,0,0,1-7.726,18.643Zm0-20.906a9.983,9.983,0,1,0,7.068,2.921h0A9.969,9.969,0,0,0,997.352,339.334Z" transform="translate(-986.428 -335.049)" fill="#222"/>
          <g id="그룹_55587-2" data-name="그룹 55587" transform="translate(15.924 0.942) rotate(-8)">
            <path id="패스_36637" data-name="패스 36637" d="M.391,2.985a.391.391,0,0,1-.378-.491L.6.292a.391.391,0,0,1,.756.2l-.583,2.2A.39.39,0,0,1,.391,2.985Z" transform="translate(0 0)" fill="#222"/>
            <path id="패스_36638" data-name="패스 36638" d="M.391.928A.391.391,0,0,1,.367.147L2.711,0a.384.384,0,0,1,.415.366A.391.391,0,0,1,2.76.782L.416.927Z" transform="translate(3.643 6.277)" fill="#222"/>
            <path id="패스_36639" data-name="패스 36639" d="M.391,1.953a.391.391,0,0,1-.253-.689L1.512.093a.391.391,0,1,1,.507.6L.645,1.86A.39.39,0,0,1,.391,1.953Z" transform="translate(2.407 2.792)" fill="#222"/>
          </g>
          <path id="패스_36640" data-name="패스 36640" d="M995.651,356.151h0a.425.425,0,0,1-.422-.428c0-.251,0-.5,0-.755v-.588c0-1.113,1.156-1.672,2-2.079.2-.1.393-.191.554-.284l.079-.045c.27-.154.27-.176.27-.251v-1.432c-.012-.02-.026-.042-.039-.062a1.183,1.183,0,0,1-.116-.218,4.44,4.44,0,0,1-.238-1.527c0-.618,0-2.259,1.352-2.864a2.867,2.867,0,0,1,1.117-.218.425.425,0,1,1,0,.851,2.041,2.041,0,0,0-.768.144c-.6.267-.85.891-.85,2.087a3.591,3.591,0,0,0,.187,1.236s.021.031.039.059a.832.832,0,0,1,.168.437v1.509a1.1,1.1,0,0,1-.7.991l-.071.041c-.176.1-.387.2-.609.313-.71.345-1.515.735-1.518,1.317v.582c0,.255,0,.509,0,.764A.425.425,0,0,1,995.651,356.151Z" transform="translate(-989.3 -337.198)" fill="#222"/>
          <path id="패스_36641" data-name="패스 36641" d="M1008.31,356.151a.425.425,0,0,1-.425-.424v-1.344c0-.581-.807-.973-1.517-1.317-.222-.108-.433-.21-.609-.313l-.07-.04a1.1,1.1,0,0,1-.7-.991v-1.509a.845.845,0,0,1,.17-.441.8.8,0,0,0,.045-.075,3.6,3.6,0,0,0,.177-1.216c0-1.2-.253-1.822-.847-2.087a2.05,2.05,0,0,0-.77-.144.425.425,0,0,1,0-.851,2.863,2.863,0,0,1,1.118.219c1.35.6,1.35,2.246,1.35,2.863a4.439,4.439,0,0,1-.238,1.531,1.385,1.385,0,0,1-.112.21c-.014.022-.029.045-.042.066v1.434c0,.075,0,.1.271.252l.078.044c.16.093.352.185.554.284.84.408,1.991.967,2,2.079v1.345a.425.425,0,0,1-.424.426Z" transform="translate(-992.812 -337.198)" fill="#222"/>
          <path id="패스_20555" data-name="패스 20555" d="M1017.048,367.888l-.95-1.014a6.825,6.825,0,0,1-.889.832l.931.994a1.616,1.616,0,0,1,.909-.812Z" transform="translate(-998.015 -345.618)" fill="#adadad"/>
          <path id="패스_20561" data-name="패스 20561" d="M1022.81,376.023a1.107,1.107,0,0,0,.795-1.878l-3.82-3.934a1.107,1.107,0,0,0-1.588,1.542l3.819,3.935h0A1.1,1.1,0,0,0,1022.81,376.023Z" transform="translate(-999.405 -347.177)" fill="#afafaf"/>
          <path id="패스_20550" data-name="패스 20550" d="M1015,366.349m-.253.921a6.884,6.884,0,0,0,.89-.832l.949,1.014a1.613,1.613,0,0,0-.909.812Zm-.433.308,1.195,1.276c0,.043-.006.086-.006.129a1.625,1.625,0,0,0,.461,1.136l2.072,2.134.51.525,1.239,1.276.186-.183-.186.183a1.632,1.632,0,0,0,2.8-1.137,1.034,1.034,0,0,0-.006-.14l-.132-.522a1.613,1.613,0,0,0-.32-.472h0l-3.82-3.935a1.63,1.63,0,0,0-1.094-.491l-1.243-1.327m.372,3.727a1.107,1.107,0,0,1,1.56-1.572l.029.029,3.82,3.935a1.107,1.107,0,0,1-1.589,1.542h0Z" transform="translate(-997.553 -345.182)" fill="#2b2b2b" stroke="#2b2b2b" stroke-width="0.3"/>
        </g>
      </g>
    </g>
  </g>
</svg>
