<svg data-name="그룹 77772" xmlns="http://www.w3.org/2000/svg" width="30" height="36" viewBox="0 0 30 36">
    <defs>
        <clipPath id="x9yodmhuta">
            <path data-name="사각형 22577" style="fill:none" d="M0 0h30v36H0z"/>
        </clipPath>
        <clipPath id="greadz1eyb">
            <path data-name="사각형 22578" style="fill:none" d="M0 0h30.511v36.508H0z"/>
        </clipPath>
    </defs>
    <g data-name="그룹 77766" style="clip-path:url(#x9yodmhuta)">
        <path data-name="패스 57523" d="M3.855 34.132 6.756 31l.629-14.657 4.161-6.012 4.288-1.254 5.3 1.254 3.529 2.129 1.765 3.883v10.27l.505 5.515 1.135 2a16.381 16.381 0 0 1-3.406 1c-.881 0-20.8-1-20.8-1" transform="translate(-1.885 -4.469)" style="fill:#ffd036"/>
        <g data-name="그룹 77767" transform="translate(-.256 -.254)" style="clip-path:url(#greadz1eyb)">
            <path data-name="패스 57525" d="M27.3 27.453a4.645 4.645 0 0 1-.885-3.047V14.48a11.159 11.159 0 0 0-9.729-10.92l-.222-.029V0h-2.416v3.531l-.223.029A11.158 11.158 0 0 0 4.1 14.481v10.4a3.744 3.744 0 0 1-.85 2.585 2.692 2.692 0 0 1-2.046.848H0v3.537h11.878l-.075.313a3.436 3.436 0 0 0-.1.807 3.541 3.541 0 0 0 3.541 3.534h.007a3.542 3.542 0 0 0 3.55-3.518 3.492 3.492 0 0 0-.1-.823l-.075-.313h11.885v-3.535H29.3a2.508 2.508 0 0 1-2-.863m-12.042 6.641a1.124 1.124 0 0 1-.8-.333 1.109 1.109 0 0 1-.325-.795 1.128 1.128 0 1 1 1.124 1.128M4.694 29.471l.359-.418a6.055 6.055 0 0 0 1.46-4.161V14.48a8.77 8.77 0 0 1 8.614-8.632h.253A8.77 8.77 0 0 1 24 14.477v9.947A6.9 6.9 0 0 0 25.462 29l.413.472z" style="fill:#222"/>
        </g>
    </g>
</svg>
