<svg width="18" height="14" viewBox="0 0 18 14" fill="none" xmlns="http://www.w3.org/2000/svg">
<path id="Vector" d="M15.668 1.9987H9.0013L7.8263 0.823698C7.50964 0.507031 7.08464 0.332031 6.64297 0.332031H2.33464C1.41797 0.332031 0.676302 1.08203 0.676302 1.9987L0.667969 11.9987C0.667969 12.9154 1.41797 13.6654 2.33464 13.6654H15.668C16.5846 13.6654 17.3346 12.9154 17.3346 11.9987V3.66536C17.3346 2.7487 16.5846 1.9987 15.668 1.9987ZM11.5013 4.4987C12.418 4.4987 13.168 5.2487 13.168 6.16536C13.168 7.08203 12.418 7.83203 11.5013 7.83203C10.5846 7.83203 9.83463 7.08203 9.83463 6.16536C9.83463 5.2487 10.5846 4.4987 11.5013 4.4987ZM14.8346 11.1654H8.16797V10.332C8.16797 9.2237 10.393 8.66536 11.5013 8.66536C12.6096 8.66536 14.8346 9.2237 14.8346 10.332V11.1654Z" fill="#12997A"/>
</svg>
