<svg width="10" height="12" viewBox="0 0 10 12" fill="none" xmlns="http://www.w3.org/2000/svg">
<g id="Group 3173">
<path id="Vector" d="M1.20066 5.93483V7.95965C1.20066 8.37981 1.54007 8.71896 1.96053 8.71896C2.38099 8.71896 2.72039 8.37981 2.72039 7.95965V5.93483C2.72039 5.51467 2.38099 5.17552 1.96053 5.17552C1.54007 5.17552 1.20066 5.51467 1.20066 5.93483ZM4.24013 5.93483V7.95965C4.24013 8.37981 4.57954 8.71896 5 8.71896C5.42046 8.71896 5.75987 8.37981 5.75987 7.95965V5.93483C5.75987 5.51467 5.42046 5.17552 5 5.17552C4.57954 5.17552 4.24013 5.51467 4.24013 5.93483ZM0.947368 11.25H9.05263C9.47309 11.25 9.8125 10.9108 9.8125 10.4907C9.8125 10.0705 9.47309 9.73138 9.05263 9.73138H0.947368C0.526908 9.73138 0.1875 10.0705 0.1875 10.4907C0.1875 10.9108 0.526908 11.25 0.947368 11.25ZM7.2796 5.93483V7.95965C7.2796 8.37981 7.61901 8.71896 8.03947 8.71896C8.45993 8.71896 8.79934 8.37981 8.79934 7.95965V5.93483C8.79934 5.51467 8.45993 5.17552 8.03947 5.17552C7.61901 5.17552 7.2796 5.51467 7.2796 5.93483ZM4.52888 0.867693L0.526908 2.97351C0.319211 3.07982 0.1875 3.29749 0.1875 3.53034C0.1875 3.87963 0.471184 4.1631 0.820724 4.1631H9.18434C9.52882 4.1631 9.8125 3.87963 9.8125 3.53034C9.8125 3.29749 9.68079 3.07982 9.47309 2.97351L5.47112 0.867693C5.1773 0.710769 4.8227 0.710769 4.52888 0.867693Z" fill="black"/>
</g>
</svg>
