<svg width="16" height="16" viewBox="0 0 16 16" fill="none" xmlns="http://www.w3.org/2000/svg">
<g id="Group 2285">
<g id="Group 2284">
<path id="Vector" d="M1.97714 14.4033L4.39314 13.5478L4.816 13.7723C5.78743 14.2868 6.86743 14.561 8 14.561C11.7829 14.561 14.8571 11.3988 14.8571 7.88721C14.8571 4.37558 11.7829 1.21342 8 1.21342C4.21714 1.21342 1.14286 4.37558 1.14286 7.88721C1.14286 9.1977 1.58857 10.5276 2.408 11.6646L2.80229 12.2106L1.976 14.402L1.97714 14.4033ZM1.16914 15.9686C1.06572 16.0054 0.954545 16.01 0.848743 15.9818C0.742941 15.9537 0.646935 15.894 0.572065 15.8098C0.497196 15.7255 0.44659 15.6203 0.426226 15.5066C0.405861 15.3928 0.41659 15.2752 0.457143 15.1677L1.49943 12.4011C0.548571 11.0785 0 9.4962 0 7.88721C0 3.86595 3.42857 0 8 0C12.5714 0 16 3.86595 16 7.88721C16 11.9085 12.5714 15.7744 8 15.7744C6.71791 15.7783 5.45269 15.4641 4.30514 14.8571L1.16914 15.9674V15.9686Z" fill="black"/>
<path id="Vector_2" d="M7.99911 8.85553C7.87904 8.85553 7.76015 8.83042 7.64923 8.78164C7.5383 8.73285 7.43751 8.66135 7.35261 8.57121C7.26771 8.48107 7.20036 8.37405 7.15442 8.25628C7.10847 8.13851 7.08482 8.01228 7.08482 7.8848C7.08482 7.75732 7.10847 7.63109 7.15442 7.51331C7.20036 7.39554 7.26771 7.28853 7.35261 7.19838C7.43751 7.10824 7.5383 7.03674 7.64923 6.98796C7.76015 6.93917 7.87904 6.91406 7.99911 6.91406C8.24159 6.91406 8.47414 7.01634 8.64561 7.19838C8.81707 7.38043 8.91339 7.62734 8.91339 7.8848C8.91339 8.14225 8.81707 8.38916 8.64561 8.57121C8.47414 8.75326 8.24159 8.85553 7.99911 8.85553ZM11.4277 8.85553C11.3076 8.85553 11.1887 8.83042 11.0778 8.78164C10.9669 8.73285 10.8661 8.66135 10.7812 8.57121C10.6963 8.48107 10.6289 8.37405 10.583 8.25628C10.537 8.13851 10.5134 8.01228 10.5134 7.8848C10.5134 7.75732 10.537 7.63109 10.583 7.51331C10.6289 7.39554 10.6963 7.28853 10.7812 7.19838C10.8661 7.10824 10.9669 7.03674 11.0778 6.98796C11.1887 6.93917 11.3076 6.91406 11.4277 6.91406C11.6702 6.91406 11.9027 7.01634 12.0742 7.19838C12.2456 7.38043 12.342 7.62734 12.342 7.8848C12.342 8.14225 12.2456 8.38916 12.0742 8.57121C11.9027 8.75326 11.6702 8.85553 11.4277 8.85553ZM4.57054 8.85553C4.45047 8.85553 4.33158 8.83042 4.22065 8.78164C4.10973 8.73285 4.00894 8.66135 3.92404 8.57121C3.83914 8.48107 3.77179 8.37405 3.72585 8.25628C3.6799 8.13851 3.65625 8.01228 3.65625 7.8848C3.65625 7.75732 3.6799 7.63109 3.72585 7.51331C3.77179 7.39554 3.83914 7.28853 3.92404 7.19838C4.00894 7.10824 4.10973 7.03674 4.22065 6.98796C4.33158 6.93917 4.45047 6.91406 4.57054 6.91406C4.81302 6.91406 5.04557 7.01634 5.21703 7.19838C5.3885 7.38043 5.48482 7.62734 5.48482 7.8848C5.48482 8.14225 5.3885 8.38916 5.21703 8.57121C5.04557 8.75326 4.81302 8.85553 4.57054 8.85553Z" fill="black"/>
</g>
</g>
</svg>
