<svg width="14" height="14" viewBox="0 0 14 14" fill="none" xmlns="http://www.w3.org/2000/svg">
<g id="Shopping cart" clip-path="url(#clip0_1812_3220)">
<path id="Vector" d="M4.08398 10.5C3.44232 10.5 2.92315 11.025 2.92315 11.6666C2.92315 12.3083 3.44232 12.8333 4.08398 12.8333C4.72565 12.8333 5.25065 12.3083 5.25065 11.6666C5.25065 11.025 4.72565 10.5 4.08398 10.5ZM0.583984 1.74996C0.583984 2.07079 0.846484 2.33329 1.16732 2.33329H1.75065L3.85065 6.76079L3.06315 8.18413C2.63732 8.96579 3.19732 9.91663 4.08398 9.91663H10.5007C10.8215 9.91663 11.084 9.65413 11.084 9.33329C11.084 9.01246 10.8215 8.74996 10.5007 8.74996H4.08398L4.72565 7.58329H9.07149C9.50899 7.58329 9.89398 7.34413 10.0923 6.98246L12.1807 3.19663C12.3965 2.81163 12.1165 2.33329 11.6732 2.33329H3.03982L2.64898 1.49913C2.55565 1.29496 2.34565 1.16663 2.12398 1.16663H1.16732C0.846484 1.16663 0.583984 1.42913 0.583984 1.74996ZM9.91732 10.5C9.27565 10.5 8.75648 11.025 8.75648 11.6666C8.75648 12.3083 9.27565 12.8333 9.91732 12.8333C10.559 12.8333 11.084 12.3083 11.084 11.6666C11.084 11.025 10.559 10.5 9.91732 10.5Z" fill="black"/>
</g>
<defs>
<clipPath id="clip0_1812_3220">
<rect width="14" height="14" fill="white"/>
</clipPath>
</defs>
</svg>
