<svg width="15" height="14" viewBox="0 0 15 14" fill="none" xmlns="http://www.w3.org/2000/svg">
<path d="M8.11671 2.00008C8.11671 2.05493 8.11671 2.09547 8.11671 2.13571C8.11671 2.8574 8.11671 3.57908 8.11671 4.30077C8.11671 4.35651 8.1161 4.41255 8.11883 4.468C8.13948 4.9044 8.35144 5.11635 8.79602 5.12321C9.3074 5.13125 9.81909 5.12619 10.3305 5.12648C10.6448 5.12648 10.9591 5.12648 11.2873 5.12648C11.2916 5.19266 11.2992 5.25377 11.2992 5.31518C11.3004 6.3755 11.3013 7.43552 11.3016 8.49584C11.3019 9.28459 11.3031 10.073 11.3004 10.8618C11.3001 10.9915 11.294 11.1232 11.2694 11.2499C11.1899 11.6598 10.9087 11.9174 10.4857 11.9767C10.3848 11.991 10.2822 11.999 10.1802 11.999C8.39183 12.0002 6.60351 12.0005 4.81519 11.9987C4.69827 11.9987 4.57954 11.9904 4.46536 11.9677C4.00377 11.8759 3.73837 11.5611 3.70739 11.0782C3.70253 11.004 3.70223 10.9295 3.70223 10.8552C3.70223 8.28479 3.70162 5.71432 3.70375 3.14357C3.70375 3.00316 3.71043 2.85918 3.74049 2.72266C3.82947 2.31993 4.11401 2.07132 4.5355 2.02333C4.7007 2.00455 4.86802 2.00187 5.03444 2.00157C6.03473 1.99948 7.03472 2.00008 8.03502 2.00008C8.05719 2.00008 8.07935 2.00008 8.11671 2.00008ZM6.84341 8.56827C6.84341 9.17787 6.84311 9.78748 6.84341 10.3971C6.84341 10.6609 6.94241 10.7608 7.21176 10.7661C7.37453 10.7694 7.5373 10.7685 7.70007 10.7664C8.08421 10.7613 8.16165 10.6835 8.16165 10.3023C8.16195 9.1424 8.16165 7.98282 8.16165 6.82293C8.16165 6.76719 8.16256 6.71115 8.15558 6.656C8.13098 6.46075 8.04565 6.38027 7.84371 6.37341C7.63933 6.36655 7.43496 6.36625 7.23059 6.36804C6.93512 6.37043 6.84371 6.46194 6.84341 6.7502C6.8428 7.35622 6.84341 7.96195 6.84341 8.56797V8.56827ZM10.0727 9.19516C10.0727 8.7823 10.0736 8.36944 10.0724 7.95658C10.0717 7.72318 9.97336 7.62361 9.73497 7.61884C9.53819 7.61497 9.34081 7.61467 9.14403 7.61944C8.84157 7.62689 8.75958 7.71274 8.75502 8.01412C8.75472 8.04393 8.75472 8.07374 8.75472 8.10325C8.75472 8.79512 8.75442 9.487 8.75472 10.1789C8.75472 10.2719 8.75199 10.3652 8.76019 10.4576C8.7781 10.6594 8.86495 10.745 9.07175 10.7521C9.29131 10.7599 9.51117 10.7593 9.73072 10.7563C9.97518 10.753 10.0714 10.654 10.0724 10.4114C10.0736 10.006 10.0727 9.60057 10.0724 9.19516H10.0727ZM4.9321 9.81878H4.9324C4.9324 10.0194 4.92997 10.2203 4.93301 10.4209C4.93635 10.6508 5.0317 10.7509 5.26098 10.7569C5.48023 10.7625 5.70009 10.7625 5.91964 10.7566C6.14254 10.7506 6.24396 10.6511 6.2467 10.4299C6.25186 10.0209 6.25216 9.6119 6.2467 9.20321C6.24336 8.97189 6.13616 8.87352 5.90051 8.86994C5.69219 8.86666 5.48418 8.86696 5.27586 8.86994C5.04203 8.87322 4.93757 8.97487 4.93301 9.2056C4.92906 9.41009 4.9321 9.61458 4.9321 9.81907V9.81878Z" fill="black"/>
<path d="M11.078 4.46546H8.82568V2.25391C9.56846 2.98334 10.3264 3.72708 11.078 4.46516V4.46546Z" fill="black"/>
</svg>
