<svg width="18" height="18" viewBox="0 0 18 18" fill="none" xmlns="http://www.w3.org/2000/svg">
<rect width="18" height="18" rx="2" fill="#D9D9D9"/>
<path d="M9.02599 14.9999C6.95357 14.9999 4.88194 15.0007 2.80952 14.9984C2.66576 14.9984 2.51735 14.9909 2.38058 14.9546C2.08219 14.8754 1.94543 14.6348 2.02003 14.3421C2.04723 14.235 2.09229 14.1301 2.14358 14.0313C3.27032 11.8564 4.39783 9.6823 5.52767 7.50893C5.84627 6.89562 6.28608 6.85715 6.71579 7.40257C7.83554 8.82532 8.95528 10.2481 10.0719 11.6723C10.3027 11.9666 10.5817 12.1816 10.9764 12.0933C11.1707 12.0495 11.3626 11.9303 11.5165 11.8006C11.7892 11.5698 12.0293 11.3035 12.2865 11.0545C12.7543 10.6026 13.2874 10.6441 13.6666 11.1677C14.3799 12.1514 15.0886 13.1389 15.7965 14.1263C15.9317 14.3149 16.0786 14.5164 15.9511 14.7578C15.8229 15.0014 15.5688 14.9976 15.3326 14.9976C13.2299 14.9999 11.1279 14.9992 9.02521 14.9992L9.02599 14.9999Z" fill="white"/>
<path d="M13.637 4.97723C13.6347 6.06429 12.7247 6.94691 11.6065 6.9454C10.4907 6.94389 9.5784 6.05524 9.57996 4.97119C9.58151 3.88866 10.5008 2.99774 11.6127 3C12.727 3.00227 13.6385 3.89319 13.637 4.97723Z" fill="white"/>
</svg>
