<svg width="28" height="28" viewBox="0 0 28 28" fill="none" xmlns="http://www.w3.org/2000/svg">
<g clip-path="url(#clip0_2088_1479)">
<path d="M14.9796 14.6197V8.05969C14.9796 7.67969 14.9596 7.29969 14.8596 6.93969C14.6596 6.13969 13.8796 5.77969 13.1596 6.15969C12.8596 6.31969 12.5796 6.53969 12.2996 6.75969C11.2596 7.57969 10.2196 8.39969 9.19963 9.23969C9.07963 9.33969 9.01963 9.55969 9.01963 9.71969V18.6797C9.01963 18.9997 8.99963 19.3397 9.01963 19.6597C9.01963 19.7997 9.11963 19.9797 9.23963 20.0797C10.2196 20.8997 11.1996 21.6997 12.1996 22.4997C12.4996 22.7397 12.8396 22.9597 13.1796 23.0997C13.9596 23.4397 14.6796 23.0597 14.8796 22.2197C14.9596 21.8997 14.9796 21.5397 14.9796 21.1997V20.9922V14.5997V14.6197Z" fill="#17BF98"/>
<path d="M7.68 14.6604V10.3604C7.68 10.0404 7.6 9.94043 7.26 9.94043C6.32 9.96043 5.38 9.94043 4.46 9.98043C3.08 10.0204 2.04 11.0604 2 12.4604C2 13.9404 2 15.4204 2 16.9004C2 18.3004 3.1 19.3204 4.52 19.3604C5.46 19.3804 6.4 19.3604 7.32 19.3604C7.6 19.3604 7.66 19.2604 7.66 19.0004V14.6604H7.68Z" fill="#17BF98"/>
<path d="M24.6197 14.3401C24.5397 12.3601 23.9597 10.2601 22.7997 8.3201C22.4397 7.7401 21.9397 7.6201 21.4597 8.0001C21.0997 8.2801 21.0597 8.6401 21.2997 9.1401C21.6997 10.0401 22.1797 10.9001 22.4397 11.8401C23.2997 14.8001 22.8997 17.6001 21.2797 20.2201C21.1397 20.4601 20.9797 20.7001 20.8797 20.9401C20.7197 21.3001 20.8397 21.6601 21.1397 21.8801C21.4597 22.1201 21.8797 22.1001 22.1797 21.8201C22.2997 21.7201 22.3997 21.5801 22.4797 21.4601C23.8397 19.4801 24.5997 17.0401 24.6197 14.3401Z" fill="#17BF98"/>
<path d="M20.1404 14.68C20.1404 14.08 20.1404 13.48 19.9804 12.88C19.8404 12.22 19.6404 11.6 19.3604 10.98C19.2004 10.62 18.9404 10.36 18.5004 10.38C17.9404 10.4 17.6004 10.88 17.7404 11.4C17.9404 12.14 18.2204 12.86 18.3404 13.6C18.5404 14.84 18.4604 16.06 17.9604 17.24C17.8804 17.46 17.8004 17.68 17.7404 17.9C17.6204 18.32 17.7804 18.7 18.1604 18.86C18.5404 19.04 18.9604 18.96 19.1804 18.58C19.4004 18.2 19.6004 17.78 19.7004 17.34C19.9204 16.44 20.0804 15.56 20.1004 14.66H20.1404V14.68Z" fill="#17BF98"/>
</g>
<defs>
<clipPath id="clip0_2088_1479">
<rect width="22.62" height="17.22" fill="white" transform="translate(2 6)"/>
</clipPath>
</defs>
</svg>
