<svg width="14" height="14" viewBox="0 0 14 14" fill="none" xmlns="http://www.w3.org/2000/svg">
<g clip-path="url(#clip0_996_1399)">
<path d="M6.99966 12.832C7.64133 12.832 8.16633 12.307 8.16633 11.6654H5.833C5.833 12.307 6.35216 12.832 6.99966 12.832ZM10.4997 9.33203V6.41536C10.4997 4.62453 9.543 3.12536 7.87466 2.7287V2.33203C7.87466 1.84786 7.48383 1.45703 6.99966 1.45703C6.5155 1.45703 6.12466 1.84786 6.12466 2.33203V2.7287C4.4505 3.12536 3.49966 4.6187 3.49966 6.41536V9.33203L2.74716 10.0845C2.37966 10.452 2.63633 11.082 3.1555 11.082H10.838C11.3572 11.082 11.6197 10.452 11.2522 10.0845L10.4997 9.33203Z" fill="#17BF98"/>
</g>
<defs>
<clipPath id="clip0_996_1399">
<rect width="14" height="14" fill="white"/>
</clipPath>
</defs>
</svg>
