<svg xmlns="http://www.w3.org/2000/svg" xmlns:xlink="http://www.w3.org/1999/xlink" width="140.129" height="36" viewBox="0 0 140.129 36"><defs><clipPath id="a"><rect width="140.129" height="36" fill="#fff"/></clipPath></defs><g clip-path="url(#a)"><path d="M15.966,87.377a10.518,10.518,0,0,0-4.993-.5,8.745,8.745,0,0,0-2.65,1.021,3.732,3.732,0,0,0-1.5,1.632v15.259H0V81.509H6.509l-.025,3.367A8.116,8.116,0,0,1,9.247,82.14a7.908,7.908,0,0,1,3.995-1.061,10.408,10.408,0,0,1,3.451.568Z" transform="translate(0 -69.237)" fill="#fff"/><path d="M123.28,92.932a11.868,11.868,0,0,1,3.164-8.53q3.166-3.323,8.769-3.323,5.627,0,8.813,3.313a11.8,11.8,0,0,1,3.19,8.54v.452a11.817,11.817,0,0,1-3.177,8.551q-3.177,3.3-8.779,3.3-5.627,0-8.8-3.3a11.82,11.82,0,0,1-3.176-8.551Zm6.823.452a9.456,9.456,0,0,0,1.218,5.109,4.31,4.31,0,0,0,3.939,1.926,4.26,4.26,0,0,0,3.88-1.937,9.386,9.386,0,0,0,1.232-5.1v-.452a9.285,9.285,0,0,0-1.243-5.055,4.3,4.3,0,0,0-3.915-1.959,4.246,4.246,0,0,0-3.882,1.97,9.373,9.373,0,0,0-1.229,5.044Z" transform="translate(-105.275 -69.237)" fill="#fff"/><path d="M872.8,84.023v5.068h-4v18.2l-6.817.022V89.091h-4V84.023Z" transform="translate(-732.67 -71.751)" fill="#fff"/><rect width="6.845" height="23.276" transform="translate(115.161 12.272)" fill="#fff"/><path d="M789.057,4.508a4.462,4.462,0,0,1-4.794,4.45,4.34,4.34,0,0,1-4.62-4.45A4.339,4.339,0,0,1,784.321,0a4.451,4.451,0,0,1,4.737,4.508" transform="translate(-665.768)" fill="#ff5353"/><path d="M534.822,83.52a7.465,7.465,0,0,0-5.9-2.441,8.82,8.82,0,0,0-4.4,1.053,8.409,8.409,0,0,0-3.043,2.926,6.23,6.23,0,0,0-2.626-2.991,8.277,8.277,0,0,0-4.17-.989,9.432,9.432,0,0,0-4.253.914,8.391,8.391,0,0,0-3.061,2.615l-.279-3.054h-6.5v23.235h6.865V90.681a4.047,4.047,0,0,1,4.033-4.015h.015a4,4,0,0,1,3.979,4.015v14.106h6.87V90.681a4,4,0,0,1,3.98-4.015h.019a4.05,4.05,0,0,1,4.033,4.015v14.1h6.572V90.974c0-3.341-.684-5.825-2.134-7.454" transform="translate(-427.475 -69.237)" fill="#fff"/><path d="M330.627,84.335V98.752a4.09,4.09,0,1,1-8.179,0V84.335h-6.86V97.778c0,3.5.7,6.08,2.217,7.744a7.974,7.974,0,0,0,6.245,2.5,7.866,7.866,0,0,0,7.153-3.971l.723,3.364H337.5V84.335Z" transform="translate(-269.496 -72.018)" fill="#fff"/></g></svg>