<svg width="30" height="30" viewBox="0 0 30 30" fill="none" xmlns="http://www.w3.org/2000/svg">
<g id="Layer_1" clip-path="url(#clip0_1804_1131)">
<path id="Vector" d="M29.7047 1.33509C29.6049 1.33509 29.5342 1.39332 29.5009 1.42659L26.0696 4.83294L25.3376 4.14252C22.5426 1.50977 18.7786 0 15.0021 0C8.09787 0 2.31665 4.51684 0.46582 11.288H3.89297C3.95951 11.1257 4.02606 10.9635 4.08845 10.8055C4.338 10.1816 4.5917 9.53279 5.00762 8.859C7.14959 5.35699 10.8845 3.2691 14.9979 3.2691C17.9676 3.2691 20.8083 4.38375 22.9918 6.40926L23.7862 7.14543L20.1386 10.793C20.1054 10.8263 20.0471 10.9012 20.0471 10.9968C20.0471 11.1549 20.1844 11.2921 20.3424 11.2921H29.7005C29.8586 11.2921 29.9958 11.1549 29.9958 10.9968V1.63455C29.9958 1.4765 29.8586 1.33925 29.7005 1.33925L29.7047 1.33509Z" fill="#B9B9B9"/>
<path id="Vector_2" d="M25.9115 19.1987C25.662 19.8226 25.4083 20.4714 24.9924 21.1452C22.8504 24.6472 19.1155 26.7351 15.0021 26.7351C12.0366 26.7351 9.20006 25.6121 7.02482 23.5741L6.23874 22.8379L9.86136 19.2153C9.89463 19.182 9.95286 19.1072 9.95286 19.0115C9.95286 18.8535 9.81561 18.7162 9.65756 18.7162H0.2953C0.137252 18.7162 0 18.8535 0 19.0115V28.3696C0 28.5277 0.137252 28.6649 0.2953 28.6649C0.39512 28.6649 0.465826 28.6067 0.499099 28.5734L3.90961 25.1629L4.64578 25.8616C7.41578 28.4944 11.159 30.0042 14.9147 30.0042C21.7857 30.0042 27.5336 25.4873 29.3636 18.7162H26.1029C26.0363 18.8784 25.9698 19.0406 25.9074 19.1987H25.9115Z" fill="#B9B9B9"/>
</g>
<defs>
<clipPath id="clip0_1804_1131">
<rect width="30" height="30" fill="white"/>
</clipPath>
</defs>
</svg>
