<svg width="22" height="19" viewBox="0 0 22 19" fill="none" xmlns="http://www.w3.org/2000/svg">
<g id="_&#230;&#180;&#185;&#235;&#170;&#131;&#239;&#188;&#153;_92699">
<g id="_&#239;&#167;&#141;&#235;&#141;&#137;&#235;&#146;&#170;??&#230;&#180;&#185;&#235;&#170;&#131;&#239;&#188;&#153;_30485">
<path id="_&#233;&#141;&#174;&#236;&#135;&#168;&#235;&#166;&#176;_3" d="M15.5878 18.4498H4.28376C3.95554 18.4498 3.62982 18.4047 3.31496 18.3128C3.01848 18.2259 2.73619 18.0982 2.47478 17.9328C1.44585 17.2747 0.842027 16.1213 0.887126 14.9011C0.899653 14.5921 0.955609 14.2865 1.05249 13.9933C1.15689 13.6818 1.30387 13.387 1.49095 13.1172L7.14338 4.91669C8.20571 3.37413 10.3179 2.98578 11.8596 4.04811C12.1995 4.28196 12.4935 4.57678 12.7282 4.91669L18.3806 13.1172C18.5677 13.387 18.7146 13.6826 18.819 13.9941C18.9159 14.2873 18.9719 14.593 18.9844 14.902C19.0295 16.1222 18.4257 17.2755 17.3967 17.9336C17.1362 18.099 16.8531 18.2268 16.5566 18.3136C16.2417 18.4047 15.9152 18.4514 15.5869 18.4506L15.5878 18.4498ZM10.0347 8.56471C9.67728 8.56471 9.34238 8.7401 9.1386 9.03407L6.53621 12.7932C6.19296 13.2893 6.31656 13.9691 6.81265 14.3123C6.99472 14.4385 7.21019 14.5061 7.43151 14.5061H12.6363C13.2384 14.5061 13.727 14.0167 13.7262 13.4145C13.7262 13.1924 13.6577 12.9752 13.5316 12.7932L10.9292 9.03407C10.7263 8.74093 10.3922 8.56555 10.0356 8.56471H10.0347Z" fill="#17BF98"/>
</g>
<g id="_&#230;&#180;&#185;&#235;&#170;&#131;&#239;&#188;&#153;_88319">
<path id="_?&#226;&#145;&#165;&#235;&#146;&#170;_60278" d="M18.2377 7.72928C16.2475 7.72928 14.6348 6.11657 14.6348 4.12636C14.6348 2.13615 16.2475 0.523438 18.2377 0.523438C20.2279 0.523438 21.8406 2.13615 21.8406 4.12636C21.8381 6.11573 20.2271 7.72761 18.2377 7.72928ZM18.2377 1.07381C16.5523 1.07381 15.1851 2.44015 15.1851 4.12552C15.1851 5.81089 16.5515 7.17807 18.2369 7.17807C19.9222 7.17807 21.2894 5.81173 21.2894 4.12636C21.2877 2.44182 19.9222 1.07632 18.2377 1.07381Z" fill="#17BF98"/>
<g id="_&#230;&#180;&#185;&#235;&#170;&#131;&#239;&#188;&#153;_88317">
<path id="_?&#226;&#145;&#165;&#235;&#146;&#170;_60279" d="M18.4447 2.07537C18.6494 2.0737 18.854 2.09542 19.0544 2.13885C19.229 2.17726 19.3935 2.25159 19.5363 2.35933C19.6741 2.46373 19.7827 2.60069 19.8545 2.75854C19.9347 2.94645 19.9731 3.1494 19.9673 3.35318V3.59789C19.9673 3.98958 19.8904 4.29191 19.7367 4.50321C19.5772 4.71952 19.3434 4.86901 19.0811 4.92413L19.9673 6.04493C20.0032 6.08752 20.0098 6.12427 19.9865 6.15684C19.9631 6.19025 19.9238 6.20862 19.8837 6.20612H19.0761C19.0319 6.20612 18.9884 6.19192 18.9534 6.16436C18.9099 6.12928 18.8707 6.08836 18.8356 6.04493L17.9846 4.97759H17.6421V6.04493C17.6438 6.0892 17.6271 6.13179 17.5954 6.16269C17.5645 6.19192 17.5227 6.20779 17.4801 6.20695H16.8095C16.7677 6.20862 16.7268 6.19276 16.6967 6.16269C16.6667 6.13095 16.6508 6.08836 16.6525 6.04493V2.72096C16.6525 2.49296 16.7109 2.32759 16.8287 2.22654C16.9498 2.12381 17.1051 2.06953 17.2646 2.07454H18.4447V2.07537ZM17.6421 4.16079H18.347C18.4656 4.16497 18.585 4.15077 18.6995 4.11903C18.7688 4.09899 18.8314 4.0614 18.8807 4.00879C18.9166 3.95951 18.9392 3.90272 18.9467 3.84259C18.955 3.77578 18.9592 3.70896 18.9592 3.64215V3.40747C18.9609 3.32562 18.95 3.24377 18.9275 3.16527C18.9083 3.10096 18.8648 3.04584 18.8072 3.01076C18.7362 2.96733 18.6569 2.93894 18.575 2.92724C18.4523 2.90887 18.3286 2.90052 18.205 2.90303H17.6421V4.16163V4.16079Z" fill="#17BF98"/>
</g>
</g>
</g>
</svg>
