<svg width="28" height="28" viewBox="0 0 28 28" fill="none" xmlns="http://www.w3.org/2000/svg">
<g id="Logo">
<path id="&#236;&#130;&#172;&#234;&#176;&#129;&#237;&#152;&#149; 1006" d="M5 0.25H23C25.6234 0.25 27.75 2.37665 27.75 5V23C27.75 25.6234 25.6234 27.75 23 27.75H5C2.37665 27.75 0.25 25.6234 0.25 23V5C0.25 2.37665 2.37665 0.25 5 0.25Z" fill="white" stroke="#17BF98" stroke-width="0.5"/>
<path id="&#235;&#185;&#188;&#234;&#184;&#176; 3" d="M18.917 20.427H9.21689C8.93558 20.4277 8.65561 20.3883 8.38544 20.3099C8.13117 20.2357 7.88858 20.126 7.66484 19.9842C7.23124 19.7066 6.87758 19.3207 6.63871 18.8646C6.39983 18.4085 6.28402 17.898 6.30274 17.3835C6.31347 17.1184 6.36129 16.8561 6.44479 16.6043C6.53454 16.3371 6.66177 16.084 6.8227 15.8525L11.6728 8.81743C11.9402 8.42917 12.298 8.11174 12.7153 7.89245C13.1327 7.67315 13.5971 7.55859 14.0685 7.55859C14.5399 7.55859 15.0043 7.67315 15.4217 7.89245C15.839 8.11174 16.1968 8.42917 16.4643 8.81743L21.3105 15.8519C21.4709 16.0835 21.5975 16.3367 21.6866 16.604C21.77 16.8557 21.8179 17.1179 21.8289 17.3828C21.8478 17.8974 21.7321 18.408 21.4933 18.8641C21.2544 19.3202 20.9005 19.7061 20.4668 19.9836C20.243 20.1253 20.0005 20.2349 19.7463 20.3093C19.4768 20.3876 19.1976 20.4273 18.917 20.427ZM14.152 11.9467C14.0009 11.9468 13.8521 11.9834 13.7183 12.0535C13.5844 12.1236 13.4696 12.2251 13.3835 12.3492L11.1509 15.5742C11.0537 15.7145 10.9968 15.8788 10.9862 16.0492C10.9755 16.2195 11.0117 16.3896 11.0907 16.5409C11.1697 16.6922 11.2886 16.8191 11.4345 16.9077C11.5804 16.9964 11.7477 17.0435 11.9184 17.044H16.384C16.5548 17.0438 16.7223 16.9968 16.8684 16.9082C17.0144 16.8196 17.1335 16.6928 17.2126 16.5414C17.2916 16.3899 17.3278 16.2198 17.3171 16.0493C17.3064 15.8788 17.2492 15.7145 17.1518 15.5742L14.9192 12.3492C14.8333 12.2252 14.7187 12.1238 14.5852 12.0537C14.4516 11.9837 14.3028 11.9469 14.152 11.9467Z" fill="#17BF98"/>
<path id="&#237;&#140;&#168;&#236;&#138;&#164; 60278" d="M21.1832 11.2291C20.5718 11.2292 19.9742 11.0479 19.4658 10.7083C18.9574 10.3687 18.5612 9.88592 18.3272 9.32107C18.0932 8.75623 18.0319 8.1347 18.1512 7.53505C18.2704 6.9354 18.5649 6.38456 18.9972 5.95224C19.4295 5.51992 19.9803 5.22552 20.58 5.10626C21.1796 4.987 21.8011 5.04822 22.366 5.28222C22.9308 5.51622 23.4136 5.9125 23.7533 6.42088C24.0929 6.92926 24.2741 7.52693 24.2741 8.13832C24.2732 8.95777 23.9472 9.74339 23.3678 10.3228C22.7883 10.9023 22.0027 11.2282 21.1832 11.2291ZM21.1832 5.51927C20.6653 5.51921 20.159 5.67273 19.7283 5.96043C19.2976 6.24812 18.9619 6.65708 18.7637 7.13557C18.5654 7.61405 18.5135 8.1406 18.6145 8.6486C18.7155 9.15659 18.9648 9.62323 19.331 9.98951C19.6972 10.3558 20.1638 10.6052 20.6717 10.7064C21.1797 10.8075 21.7063 10.7556 22.1848 10.5575C22.6633 10.3593 23.0723 10.0238 23.3601 9.59315C23.6479 9.16254 23.8016 8.65625 23.8017 8.13832C23.8009 7.44405 23.5248 6.77842 23.034 6.28744C22.5431 5.79645 21.8775 5.52019 21.1832 5.51927Z" fill="#17BF98"/>
<path id="&#237;&#140;&#168;&#236;&#138;&#164; 60279" d="M21.3638 6.37919C21.5395 6.37771 21.7149 6.39598 21.8866 6.43367C22.0364 6.46633 22.1774 6.53076 22.3001 6.62262C22.418 6.71244 22.5118 6.83007 22.5732 6.96497C22.6421 7.12598 22.6751 7.3001 22.6699 7.47517V7.68523C22.6868 7.95849 22.6178 8.2302 22.4724 8.4622C22.3355 8.64768 22.1352 8.77626 21.9096 8.82343L22.6699 9.78524C22.7014 9.82146 22.7061 9.85359 22.6866 9.88162C22.6767 9.89558 22.6634 9.9068 22.648 9.91418C22.6325 9.92157 22.6154 9.92489 22.5984 9.92383H21.9055C21.8674 9.92423 21.8303 9.91156 21.8003 9.88793C21.7631 9.85752 21.7292 9.82308 21.6995 9.78524L20.9689 8.86972H20.6751V9.78524C20.6758 9.8039 20.6726 9.82255 20.6658 9.83991C20.6589 9.85727 20.6484 9.87299 20.635 9.88604C20.6084 9.91123 20.5728 9.92482 20.5362 9.92383H19.9608C19.943 9.92443 19.9252 9.92137 19.9087 9.91488C19.8921 9.90838 19.877 9.89857 19.8644 9.88604C19.8516 9.87269 19.8416 9.85685 19.8351 9.83952C19.8286 9.8222 19.8257 9.80372 19.8266 9.78524V6.93349C19.8193 6.85602 19.829 6.77788 19.8551 6.70459C19.8813 6.63129 19.9231 6.56462 19.9777 6.50925C20.082 6.42115 20.2152 6.37482 20.3516 6.37919H21.3638ZM20.6751 8.16833H21.2797C21.3817 8.17216 21.4838 8.16008 21.5821 8.13246C21.6414 8.11552 21.695 8.08286 21.7373 8.03797C21.7682 7.99609 21.7877 7.94694 21.794 7.8953C21.8015 7.83818 21.805 7.78062 21.8047 7.72303V7.52146C21.8062 7.45118 21.797 7.38108 21.7773 7.31359C21.7606 7.25825 21.7239 7.21113 21.6743 7.18134C21.6136 7.14392 21.5457 7.11956 21.475 7.10983C21.37 7.09429 21.264 7.08723 21.1578 7.08873H20.6751V8.16833Z" fill="#17BF98"/>
</g>
</svg>
