<svg width="60" height="60" viewBox="0 0 60 60" fill="none" xmlns="http://www.w3.org/2000/svg">
<g id="&#234;&#183;&#184;&#235;&#163;&#185; 88321">
<g id="&#234;&#183;&#184;&#235;&#163;&#185; 88316">
<path id="&#236;&#130;&#172;&#234;&#176;&#129;&#237;&#152;&#149; 26892" d="M52.0095 0H7.99046C3.57745 0 0 3.57745 0 7.99046V52.0095C0 56.4226 3.57745 60 7.99046 60H52.0095C56.4226 60 60 56.4226 60 52.0095V7.99046C60 3.57745 56.4226 0 52.0095 0Z" fill="#17B78D"/>
<g id="&#234;&#183;&#184;&#235;&#163;&#185; 88315">
<g id="&#235;&#167;&#136;&#236;&#138;&#164;&#237;&#129;&#172; &#234;&#183;&#184;&#235;&#163;&#185; 75">
<g id="&#234;&#183;&#184;&#235;&#163;&#185; 5563">
<path id="&#236;&#130;&#172;&#234;&#176;&#129;&#237;&#152;&#149; 1006" d="M50 0H10C4.47715 0 0 4.47715 0 10V50C0 55.5228 4.47715 60 10 60H50C55.5228 60 60 55.5228 60 50V10C60 4.47715 55.5228 0 50 0Z" fill="#17B78D"/>
</g>
</g>
</g>
</g>
<g id="&#234;&#183;&#184;&#235;&#163;&#185; 88318">
<g id="&#235;&#167;&#136;&#236;&#138;&#164;&#237;&#129;&#172; &#234;&#183;&#184;&#235;&#163;&#185; 30485">
<path id="&#235;&#185;&#188;&#234;&#184;&#176; 3" d="M40.5367 43.7745H19.7508C19.148 43.7759 18.548 43.6914 17.9691 43.5235C17.4242 43.3644 16.9044 43.1294 16.4249 42.8256C15.4958 42.2307 14.738 41.4038 14.2261 40.4264C13.7142 39.4491 13.466 38.3551 13.5061 37.2526C13.5291 36.6846 13.6316 36.1226 13.8105 35.583C14.0029 35.0103 14.2755 34.4679 14.6204 33.972L25.0134 18.8967C25.5865 18.0647 26.3531 17.3845 27.2474 16.9146C28.1417 16.4447 29.1368 16.1992 30.1471 16.1992C31.1573 16.1992 32.1524 16.4447 33.0467 16.9146C33.941 17.3845 34.7078 18.0647 35.2808 18.8967L45.6657 33.9707C46.0093 34.467 46.2807 35.0095 46.4716 35.5822C46.6504 36.1216 46.753 36.6834 46.7765 37.2512C46.8171 38.3538 46.5692 39.4479 46.0573 40.4253C45.5454 41.4028 44.7872 42.2297 43.8578 42.8243C43.3782 43.1279 42.8585 43.3628 42.3137 43.5221C41.7363 43.69 41.138 43.775 40.5367 43.7745ZM30.3259 25.6023C30.0022 25.6024 29.6833 25.681 29.3966 25.8312C29.1098 25.9814 28.8637 26.1988 28.6793 26.4648L23.8951 33.3755C23.6869 33.6762 23.5648 34.0282 23.542 34.3933C23.5193 34.7584 23.5968 35.1228 23.7661 35.447C23.9354 35.7713 24.1902 36.0431 24.5028 36.2331C24.8154 36.4231 25.174 36.5241 25.5398 36.5251H35.1087C35.4748 36.5247 35.8338 36.424 36.1468 36.2342C36.4597 36.0443 36.7148 35.7725 36.8843 35.448C37.0538 35.1236 37.1313 34.7589 37.1083 34.3935C37.0854 34.0282 36.9628 33.6761 36.7541 33.3755L31.9699 26.4648C31.7859 26.1991 31.5403 25.9819 31.2542 25.8317C30.968 25.6815 30.6497 25.6028 30.3266 25.6023H30.3259Z" fill="white"/>
</g>
<g id="&#234;&#183;&#184;&#235;&#163;&#185; 88319">
<path id="&#237;&#140;&#168;&#236;&#138;&#164; 60278" d="M45.3999 24.0641C44.0898 24.0642 42.8091 23.6758 41.7197 22.9481C40.6303 22.2203 39.7812 21.1858 39.2798 19.9754C38.7783 18.765 38.6471 17.4332 38.9026 16.1482C39.1582 14.8632 39.7891 13.6829 40.7155 12.7565C41.6419 11.8301 42.8222 11.1992 44.1072 10.9437C45.3921 10.6881 46.724 10.8193 47.9344 11.3207C49.1447 11.8221 50.1793 12.6713 50.9071 13.7607C51.6349 14.8501 52.0233 16.1308 52.0231 17.4409C52.0212 19.1969 51.3227 20.8804 50.0811 22.122C48.8394 23.3637 47.1559 24.0621 45.3999 24.0641ZM45.3999 11.8287C44.29 11.8286 43.2051 12.1575 42.2822 12.774C41.3594 13.3905 40.64 14.2668 40.2151 15.2922C39.7903 16.3175 39.679 17.4458 39.8954 18.5344C40.1118 19.6229 40.6461 20.6229 41.4308 21.4078C42.2155 22.1927 43.2153 22.7272 44.3038 22.9439C45.3923 23.1605 46.5207 23.0495 47.5461 22.6249C48.5715 22.2003 49.448 21.4812 50.0647 20.5584C50.6814 19.6357 51.0107 18.5508 51.0108 17.4409C51.0092 15.9532 50.4176 14.5269 49.3657 13.4748C48.3139 12.4226 46.8876 11.8307 45.3999 11.8287Z" fill="white"/>
<g id="&#234;&#183;&#184;&#235;&#163;&#185; 88317">
<path id="&#237;&#140;&#168;&#236;&#138;&#164; 60279" d="M45.7815 13.6725C46.1581 13.6693 46.5339 13.7085 46.9018 13.7892C47.2228 13.8592 47.5249 13.9973 47.7879 14.1941C48.0405 14.3866 48.2416 14.6386 48.3731 14.9277C48.5208 15.2728 48.5915 15.6459 48.5803 16.021V16.4711C48.6166 17.0567 48.4686 17.6389 48.1571 18.1361C47.8638 18.5335 47.4345 18.8091 46.9511 18.9101L48.5803 20.9712C48.6477 21.0488 48.6579 21.1176 48.616 21.1777C48.5948 21.2076 48.5664 21.2316 48.5333 21.2475C48.5002 21.2633 48.4636 21.2704 48.427 21.2681H46.9423C46.8606 21.269 46.7811 21.2418 46.717 21.1912C46.6371 21.1261 46.5646 21.0522 46.5009 20.9712L44.9353 19.0093H44.3056V20.9712C44.3073 21.0112 44.3005 21.0511 44.2857 21.0883C44.2709 21.1255 44.2485 21.1592 44.2199 21.1872C44.1627 21.2411 44.0866 21.2703 44.008 21.2681H42.775C42.7369 21.2694 42.6989 21.2629 42.6634 21.249C42.6279 21.235 42.5956 21.214 42.5685 21.1872C42.541 21.1585 42.5197 21.1246 42.5058 21.0875C42.4918 21.0504 42.4856 21.0108 42.4875 20.9712V14.8603C42.4718 14.6943 42.4927 14.5268 42.5487 14.3698C42.6047 14.2127 42.6943 14.0698 42.8114 13.9512C43.0348 13.7624 43.3202 13.6631 43.6125 13.6725H45.7815ZM44.3056 17.5064H45.6013C45.82 17.5146 46.0386 17.4887 46.2493 17.4295C46.3764 17.3932 46.4913 17.3232 46.5819 17.227C46.6481 17.1373 46.69 17.032 46.7034 16.9213C46.7194 16.7989 46.727 16.6756 46.7263 16.5521V16.1202C46.7296 15.9696 46.7098 15.8194 46.6677 15.6748C46.6318 15.5562 46.5532 15.4552 46.447 15.3914C46.3168 15.3112 46.1712 15.259 46.0198 15.2381C45.7948 15.2048 45.5676 15.1897 45.3402 15.1929H44.3056V17.5064Z" fill="white"/>
</g>
</g>
</g>
</g>
</svg>
