<svg width="21" height="20" viewBox="0 0 21 20" fill="none" xmlns="http://www.w3.org/2000/svg">
<path id="Vector" d="M10.8301 0C5.31008 0 0.830078 4.48 0.830078 10C0.830078 15.52 5.31008 20 10.8301 20C16.3501 20 20.8301 15.52 20.8301 10C20.8301 4.48 16.3501 0 10.8301 0ZM10.8301 3C12.4901 3 13.8301 4.34 13.8301 6C13.8301 7.66 12.4901 9 10.8301 9C9.17008 9 7.83008 7.66 7.83008 6C7.83008 4.34 9.17008 3 10.8301 3ZM10.8301 17.2C8.33008 17.2 6.12008 15.92 4.83008 13.98C4.86008 11.99 8.83008 10.9 10.8301 10.9C12.8201 10.9 16.8001 11.99 16.8301 13.98C15.5401 15.92 13.3301 17.2 10.8301 17.2Z" fill="#C4C4C4"/>
</svg>
