<svg data-name="ico_small_bank13_광주,전북은행" xmlns="http://www.w3.org/2000/svg" width="100" height="100" viewBox="0 0 100 100">
    <circle data-name="타원 77" cx="50" cy="50" r="50" style="fill:#3f484d"/>
    <g data-name="그룹 485">
        <path data-name="사각형 144" style="fill:#007cc6" d="M0 0h54.167v54.166H0z" transform="translate(22.498 22.501)"/>
        <path data-name="패스 957" d="m927.636 2205.778 13.538 13.547 13.545-13.547z" transform="translate(-905.138 -2183.277)" style="fill:#007cc6"/>
        <path data-name="패스 958" d="M927.636 2205.778v27.082l13.538-13.535z" transform="translate(-905.138 -2183.277)" style="fill:#0085cf"/>
        <path data-name="패스 959" d="m954.718 2227.876-13.536-13.544-13.545 13.544z" transform="translate(-905.137 -2178.294)" style="fill:#007cc6"/>
        <path data-name="패스 960" d="M949.732 2232.859v-27.082l-13.532 13.539z" transform="translate(-900.151 -2183.277)" style="fill:#0069bb"/>
        <path data-name="패스 961" d="M944.75 2205.778v27.082l13.538-13.535z" transform="translate(-895.169 -2183.277)" style="fill:#0056a9"/>
        <path data-name="패스 962" d="m971.834 2227.876-13.534-13.544-13.545 13.544z" transform="translate(-895.169 -2178.294)" style="fill:#003483"/>
        <path data-name="패스 963" d="m927.636 2222.891 13.538 13.547 13.545-13.547z" transform="translate(-905.138 -2173.309)" style="fill:#0069bb"/>
        <path data-name="패스 964" d="M927.636 2222.891v27.084l13.538-13.538z" transform="translate(-905.138 -2173.309)" style="fill:#0056a9"/>
        <path data-name="패스 965" d="m954.718 2244.993-13.536-13.548-13.545 13.548z" transform="translate(-905.137 -2168.326)" style="fill:#004b9e"/>
        <path data-name="패스 966" d="M949.732 2249.974v-27.082l-13.532 13.535z" transform="translate(-900.151 -2173.308)" style="fill:#003988"/>
        <path data-name="패스 967" d="m944.75 2222.891 13.538 13.547 13.545-13.547z" transform="translate(-895.169 -2173.309)" style="fill:#001f6d"/>
        <path data-name="패스 968" d="M944.75 2222.891v27.084l13.538-13.538z" transform="translate(-895.169 -2173.309)" style="fill:#003483"/>
        <path data-name="패스 969" d="m971.834 2244.993-13.534-13.547-13.545 13.548z" transform="translate(-895.169 -2168.326)" style="fill:#001f6d"/>
        <path data-name="패스 970" d="M966.848 2249.974v-27.082l-13.538 13.535z" transform="translate(-890.183 -2173.308)" style="fill:#001f6d"/>
        <path data-name="패스 971" d="m944.75 2205.778 13.538 13.547 13.545-13.547z" transform="translate(-895.169 -2183.277)" style="fill:#004b9e"/>
        <path data-name="패스 972" d="M966.848 2232.859v-27.082l-13.538 13.538z" transform="translate(-890.183 -2183.277)" style="fill:#003988"/>
        <path data-name="패스 973" d="m977.934 2233.255-17.341-16.521-26.318 26.386 9.6 9.6 16.716-16.464 17.341 17.246z" transform="translate(-901.271 -2176.895)" style="fill:#fff"/>
    </g>
</svg>
