<svg xmlns="http://www.w3.org/2000/svg" width="100" height="100" viewBox="0 0 100 100">
    <circle data-name="타원 63" cx="50" cy="50" r="50" style="fill:#006cad"/>
    <g data-name="그룹 466">
        <path data-name="패스 920" d="M557.6 1905.647a10.788 10.788 0 0 1-5.506 1.832 9.045 9.045 0 0 1-8.9-8.542l9.211-5.488 14.333 6.411-9.134 5.787z" transform="translate(-517.668 -1824.874)" style="fill:#fff"/>
        <path data-name="패스 921" d="m567.526 1867.07-6.854-3.022c-3.057-1.361-5.951-2.5-5.951-5.869a4.664 4.664 0 0 1 1.366-3.567l14.487 6.382-3.585 2.069c-1 .61-1.682 1.14-1.682 1.908 0 .824.939 1.524 2.219 2.1z" transform="translate(-522.118 -1809.892)" style="fill:#fff"/>
        <path data-name="패스 922" d="m574.342 1813.662-7.018 4.26c-.632.375-1.459.982-1.459 1.912 0 1.072 1.63 1.882 3.064 2.565l-8.792-3.872c-2.579-1.144-5.165-2.433-5.165-5.552a5.759 5.759 0 0 1 .982-3.287l18.994-11.6a8.606 8.606 0 0 1 4.482 7.4c0 3.747-1.887 6.253-5.088 8.178z" transform="translate(-522.214 -1788.087)" style="fill:#fff"/>
        <path data-name="패스 923" d="m600.62 1836-1.75.991-14.5-6.4 16.86-10.154a8.687 8.687 0 0 1 4.507 7.4c0 3.748-1.844 6.331-5.113 8.169z" transform="translate(-533.554 -1796.708)" style="fill:#fff"/>
        <path data-name="패스 924" d="m588.8 1865.834 8.578 3.772c3.219 1.435 4.209 3.125 4.209 5.263a4.5 4.5 0 0 1-1.673 3.27l-14.427-6.411 2.433-1.365c2.074-1.14 2.757-1.832 2.757-2.587 0-.79-.486-1.306-1.877-1.941z" transform="translate(-533.988 -1814.221)" style="fill:#fff"/>
        <path data-name="패스 925" d="M588.591 1893.18a60.224 60.224 0 0 0-12.283-6.868l-21.88-9.676c-5.5-2.45-9.143-5.715-9.143-11.209 0-5.344 2.578-7.931 5.95-10.057l1.212-.759a4.664 4.664 0 0 0-1.366 3.567c0 3.364 2.895 4.508 5.951 5.869l25.448 11.226c4.43 1.9 8.485 5.165 8.485 10.735a11.458 11.458 0 0 1-2.374 7.171z" transform="translate(-518.478 -1809.892)" style="fill:#fff"/>
        <path data-name="패스 926" d="m586.28 1858.3-1.588.989a4.5 4.5 0 0 0 1.673-3.273c0-2.129-.99-3.824-4.209-5.258l-27.215-11.986c-5.5-2.429-8.921-5.565-8.921-11.038 0-5.037 2.519-8.332 6.48-10.761a5.761 5.761 0 0 0-.982 3.287c0 3.12 2.587 4.409 5.165 5.552l26.455 11.674c4.815 2.126 8.707 5.344 8.707 11.209 0 4.584-2.134 7.474-5.566 9.6z" transform="translate(-518.762 -1795.373)" style="fill:#fff"/>
    </g>
</svg>
