<svg xmlns="http://www.w3.org/2000/svg" width="100" height="100" viewBox="0 0 100 100">
    <path data-name="패스 6978" d="M2058.631 1297.8a50 50 0 1 1-50-50 50 50 0 0 1 50 50z" transform="translate(-1958.631 -1247.797)" style="fill:#d01"/>
    <path data-name="패스 6979" d="M1982.5 1283.672a7.79 7.79 0 0 0-5.164-.951c3.288-3.49 5.068-7.286 5.068-11.117a10.484 10.484 0 0 0-.049-1.049c-.179-2.386-1.29-4.175-2.966-4.786-1.723-.626-4.827-.312-9.812 4.763l-2.978 3.341a24.828 24.828 0 0 0-4.536 10.674 62.574 62.574 0 0 0 1.793 24.205 5.7 5.7 0 0 0 2.974 3.745c2.054.823 3.99-.171 5.7-1.06l.455-.227 1.771-.793 1.723-.763 2.105-.915a14.807 14.807 0 0 0 4.279-2.343 12.379 12.379 0 0 0 3.873-5.926 20.1 20.1 0 0 0 .737-4.008 19.133 19.133 0 0 0-.215-5.377c-.941-4.347-3.108-6.432-4.758-7.413zm-15.922 6.262.077 1.111a.617.617 0 0 0 .352.571.572.572 0 0 0 .623-.125c1.871-1.561 4.7-2.966 6.972-2.177 1.767.615 2.983 2.445 3.606 5.46 1.3 6.3-3.03 9.335-5.724 10.589l-.1.039-3.454 1.7a.523.523 0 0 1-.4-.031c-.214-.1-.289-.249-.42-.615a73.108 73.108 0 0 1-2.276-26.281 4.233 4.233 0 0 1 .89-2.054l2.869-3.093.338-.347c1.59-1.545 3.047-2.3 3.845-1.971.684.282.846 1.342.864 2.183.122 4.519-2.4 9.132-7.714 14.107a1.153 1.153 0 0 0-.35.934z" transform="translate(-1958.245 -1245.51)" style="fill:#fff"/>
    <path data-name="패스 6980" d="M2018.929 1258.884c-.972-3.328-2.567-4.034-3.021-4.186a26.329 26.329 0 0 0-12.651-.861 24.4 24.4 0 0 0-15.352 9.3 22.977 22.977 0 0 0-4.117 17.848 22.35 22.35 0 0 0 9.451 15.081c5.915 3.994 13.807 5.212 22.224 3.427a27.276 27.276 0 0 0 12.28-5.758 5.012 5.012 0 0 0 1.71-3.912 14.988 14.988 0 0 0-.63-3.683c-.182-.684-.479-.886-.958-.886-.348 0-.715.4-.79.48-2.367 2.749-6 4.661-10.522 5.557-11.592 2.229-20.514-3.188-22.725-13.812a15.9 15.9 0 0 1 2.23-12.437 16.208 16.208 0 0 1 11.124-6.476 20.169 20.169 0 0 1 10.65 1.3s1.402.403 1.097-.982z" transform="translate(-1955.434 -1247.07)" style="fill:#fff"/>
</svg>
