<svg xmlns="http://www.w3.org/2000/svg" width="100" height="100" viewBox="0 0 100 100">
    <path data-name="패스 6606" d="M2128.691 2654.468a29.183 29.183 0 0 1-41.173 0l-20.916-20.911a29.206 29.206 0 0 1 0-41.183l20.916-20.911a29.188 29.188 0 0 1 41.173 0l20.921 20.911a29.2 29.2 0 0 1 0 41.183z" transform="translate(-2058.108 -2562.967)" style="fill:#e1e1e1"/>
    <path data-name="패스 6607" d="M2081.45 2612.9a3.089 3.089 0 0 1-2.279-5.184 3.159 3.159 0 0 1 2.152-1 3.094 3.094 0 0 1 .255 6.182h-.129" transform="translate(-2043.855 -2532.172)" style="fill:#fff"/>
    <path data-name="패스 6608" d="M2092.237 2579.118a5.6 5.6 0 0 0-4.155 1.629c-2.375 2.351-3.621 7.221-3.508 13.7.136 7.985 2.032 23.658 8.315 31.723a14.229 14.229 0 0 0 3.245 3.1 7.225 7.225 0 0 0 4.3 1.443 9.446 9.446 0 0 0 1.673-.152c3.6-.873 8.124-4.88 11.468-10.212a2.786 2.786 0 0 1 2.36-1.308 2.816 2.816 0 0 1 1.473.429 2.786 2.786 0 0 1 .872 3.828c-4.243 6.75-9.848 11.483-14.987 12.681-.023.006-.071.01-.131.028a15.747 15.747 0 0 1-2.754.253 12.789 12.789 0 0 1-7.314-2.356 19.7 19.7 0 0 1-4.581-4.328c-8.849-11.354-9.44-32.651-9.489-35.039-.089-5.658.724-13.334 5.147-17.735a11.035 11.035 0 0 1 8.042-3.22h.518a11.042 11.042 0 0 1 8.05 3.22c4.417 4.4 5.241 12.076 5.142 17.735-.09 5.9-1.177 17.335-7.3 27.59a2.779 2.779 0 0 1-2.384 1.351 2.844 2.844 0 0 1-1.415-.384 2.792 2.792 0 0 1-.962-3.813c4.282-7.169 6.358-15.058 6.518-24.837.1-6.483-1.144-11.345-3.5-13.7a5.618 5.618 0 0 0-4.155-1.629z" transform="translate(-2043.389 -2555.494)" style="fill:#fff"/>
</svg>
