<svg xmlns="http://www.w3.org/2000/svg" width="180" height="180" viewBox="0 0 180 180">
  <g id="그룹_62597" data-name="그룹 62597" transform="translate(-44 -832)">
    <g id="타원_1960" data-name="타원 1960" transform="translate(44 832)" fill="#f8f8f8" stroke="#bdc3ce" stroke-width="3" stroke-dasharray="10">
      <circle cx="90" cy="90" r="90" stroke="none"/>
      <circle cx="90" cy="90" r="88.5" fill="none"/>
    </g>
    <path id="패스_47717" data-name="패스 47717" d="M51.073,41.116c-2.115,2.043-5.871,4.343-11.389,6.9-1.526.765-2.232,1.532-2.232,2.3v3.065a6.414,6.414,0,0,1-2.816,5.62,10.067,10.067,0,0,1-6.577,2.169,10.035,10.035,0,0,1-6.339-1.915,6.682,6.682,0,0,1-2.935-5.874l.117-6.64c0-4.978,1.762-8.555,5.048-10.854a84.588,84.588,0,0,1,8.925-3.7c3.167-1.148,4.813-2.935,4.813-5.488,0-4.855-3.17-7.28-9.276-7.28-4.462,0-7.749,2.554-9.746,7.534-1.761,4.47-4.813,6.639-9.157,6.639A9.374,9.374,0,0,1,2.818,30.9,8.194,8.194,0,0,1,0,24.517C0,17.239,3.169,11.238,9.744,6.385A30.865,30.865,0,0,1,28.529,0,29.105,29.105,0,0,1,48.02,7.023c5.871,5.109,8.806,11.749,8.806,20.175a18.366,18.366,0,0,1-5.753,13.917M35.595,80.952a10.4,10.4,0,0,1-7.05,2.611A10.091,10.091,0,0,1,21.5,80.952,8.224,8.224,0,0,1,18.624,74.6,8.351,8.351,0,0,1,21.5,68.248a10.161,10.161,0,0,1,7.048-2.7,10.48,10.48,0,0,1,7.05,2.7A8.439,8.439,0,0,1,38.552,74.6a8.308,8.308,0,0,1-2.957,6.353" transform="translate(105.5 880.5)" fill="none" stroke="#c6cad2" stroke-width="1.5"/>
  </g>
</svg>
