<svg xmlns="http://www.w3.org/2000/svg" width="31.137" height="32.619" viewBox="0 0 31.137 32.619">
    <defs>
        <style>
            .cls-1{fill:#d8d9dd}
        </style>
    </defs>
    <g id="그룹_55934" transform="translate(-31.225 -71)">
        <ellipse id="타원_1273" cx="8.506" cy="8.155" class="cls-1" rx="8.506" ry="8.155" transform="translate(38.214 71)"/>
        <path id="합치기_19" d="M29.088 13.913H2.049S.274 14.32.084 12.051s0-2.484 0-2.484c.31-.1-.621-9.418 9.1-9.521C12.958.006 14.767 0 15.568 0s2.611 0 6.387.045c9.718.1 8.788 9.417 9.1 9.521 0 0 .19.215 0 2.484-.14 1.671-1.139 1.891-1.656 1.891a1.523 1.523 0 0 1-.311-.028z" class="cls-1" transform="translate(31.225 89.678)"/>
    </g>
</svg>
