<svg xmlns="http://www.w3.org/2000/svg" width="50" height="50" viewBox="0 0 50 50">
    <defs>
        <clipPath id="08eppnvwda">
            <path data-name="사각형 24909" style="fill:none" d="M0 0h42.277v43.427H0z"/>
        </clipPath>
    </defs>
    <g data-name="그룹 83623">
        <g data-name="OFF_돋보기 40px">
            <path data-name="사각형 12778" style="fill:none" d="M0 0h50v50H0z"/>
        </g>
        <g data-name="그룹 83697" transform="translate(4.6 2.989)" style="clip-path:url(#08eppnvwda)">
            <path data-name="패스 60580" d="M23.004 32.958H7.707a1.346 1.346 0 1 0 0 2.692h15.3a1.346 1.346 0 1 0 0-2.692"/>
            <path data-name="패스 60581" d="m18.844 24.827-2.426 2.427V16.405a1.062 1.062 0 0 0-1.017-1.1h-.049a1.06 1.06 0 0 0-1.058 1.021v10.927l-2.421-2.422a1.06 1.06 0 1 0-1.532 1.464l.028.028 4.207 4.208a.983.983 0 0 0 .762.314 1.057 1.057 0 0 0 .8-.307l4.21-4.211a1.064 1.064 0 0 0-.006-1.5 1.077 1.077 0 0 0-1.5 0m-8.257 1.278-.051.051z"/>
            <path data-name="패스 60582" d="M32.482 0H10.245a1.439 1.439 0 0 0-.929.349L.5 7.955A1.42 1.42 0 0 0 0 9.039v32.955a1.434 1.434 0 0 0 1.432 1.432h31.055a1.437 1.437 0 0 0 1.428-1.432V1.432A1.434 1.434 0 0 0 32.482 0M3.912 8.787l5.34-4.61v4.61zm27.144 31.774H2.862V11.649h7.828a1.437 1.437 0 0 0 1.425-1.434V2.858h18.937z"/>
            <path data-name="패스 60583" d="M37.108 24.749H24.584a4.193 4.193 0 0 1-4.194-4.192V8.031a4.192 4.192 0 0 1 4.192-4.193h12.526a4.193 4.193 0 0 1 4.186 4.193v12.525a4.193 4.193 0 0 1-4.194 4.193" transform="translate(.984 .186)" style="fill:#0f9d58"/>
            <path data-name="패스 60584" d="m28.449 8.491 2.4 4.38 2.435-4.38h2.938l-3.57 5.921 3.624 5.922H33.36l-2.513-4.271-2.483 4.271H25.42l3.6-5.922-3.52-5.921z" transform="translate(1.227 .41)" style="fill:#fff"/>
        </g>
    </g>
</svg>
