<svg xmlns="http://www.w3.org/2000/svg" width="387" height="212" viewBox="0 0 387 212">
    <defs>
        <clipPath id="72q1yf4yla">
            <path data-name="사각형 18001" transform="translate(293 713)" style="fill:none" d="M0 0h387v212H0z"/>
        </clipPath>
        <clipPath id="sd3djxx19b">
            <path data-name="사각형 17030" style="fill:none" d="M0 0h215.834v221.583H0z"/>
        </clipPath>
        <clipPath id="3asd0qe5yc">
            <path data-name="사각형 17028" style="fill:none" d="M0 0h126.35v79.951H0z"/>
        </clipPath>
        <clipPath id="iy7c2cpq0d">
            <path data-name="사각형 17032" style="fill:none" d="M0 0h167.16v71.087H0z"/>
        </clipPath>
        <clipPath id="vzh6u4rw6e">
            <path data-name="패스 50446" d="M309.942 154.68c2.753 0 3.867 2.495 4.308 4.427h-8.87c.59-2.5 2.076-4.427 4.562-4.427m-9.478 4.427h-5.39a1.647 1.647 0 1 0 0 3.294h5.13c.2 5.861 4.5 10.272 9.822 10.272a10.16 10.16 0 0 0 7.729-3.641c.848-.874 1.523-2.17.649-3.017a2.206 2.206 0 0 0-3.118.046 8.22 8.22 0 0 1-5.261 2.2c-2.8 0-4.705-2.548-4.92-5.862h12.525a1.647 1.647 0 0 0 1.647-1.647V160.667c0-4.7-3.822-10.4-9.335-10.4-4.678 0-8.461 3.567-9.478 8.836" transform="translate(-293.427 -150.271)" style="fill:none"/>
        </clipPath>
        <linearGradient id="7l871pdilf" x1="-2.307" y1="1.011" x2="-2.299" y2="1.011" gradientUnits="objectBoundingBox">
            <stop offset="0" stop-color="#005dab"/>
            <stop offset=".285" stop-color="#005dab"/>
            <stop offset=".397" stop-color="#006cb7"/>
            <stop offset=".613" stop-color="#0093d9"/>
            <stop offset=".745" stop-color="#00aff1"/>
            <stop offset="1" stop-color="#00aff1"/>
        </linearGradient>
    </defs>
    <g data-name="마스크 그룹 6" transform="translate(-293 -713)" style="clip-path:url(#72q1yf4yla)">
        <g data-name="그룹 65501">
            <g data-name="그룹 65500" transform="translate(446.167 693)" style="clip-path:url(#sd3djxx19b)">
                <g data-name="그룹 65499">
                    <g data-name="그룹 65498" style="clip-path:url(#sd3djxx19b)">
                        <path data-name="패스 50409" d="M118.752 97.916H96.8a59.593 59.593 0 0 0-59.592 59.593V201.5h141.137v-43.991a59.592 59.592 0 0 0-59.592-59.593" transform="translate(2.207 5.807)" style="fill:#fff"/>
                        <path data-name="패스 50410" d="M178.434 203.175H37.3a1.589 1.589 0 0 1-1.589-1.589V157.6a61.251 61.251 0 0 1 61.182-61.183h21.948a61.251 61.251 0 0 1 61.182 61.183v43.987a1.588 1.588 0 0 1-1.589 1.589M38.889 200h137.956v-42.4a58.069 58.069 0 0 0-58-58H96.893a58.069 58.069 0 0 0-58 58z" transform="translate(2.118 5.718)" style="fill:#1a1a1a"/>
                        <path data-name="패스 50411" d="M179.139 208.387H37.406a4.016 4.016 0 0 1-4-4V199.7a4.015 4.015 0 0 1 4-4h141.733a4.015 4.015 0 0 1 4 4v4.682a4.016 4.016 0 0 1-4 4" transform="translate(1.981 11.606)" style="fill:#f2f2f2"/>
                        <path data-name="패스 50412" d="M179.227 210.065H37.5a5.6 5.6 0 0 1-5.593-5.592v-4.682A5.6 5.6 0 0 1 37.5 194.2h141.727a5.6 5.6 0 0 1 5.592 5.593v4.682a5.6 5.6 0 0 1-5.592 5.592M37.5 197.376a2.417 2.417 0 0 0-2.415 2.415v4.682a2.417 2.417 0 0 0 2.415 2.414h141.727a2.416 2.416 0 0 0 2.414-2.414v-4.682a2.417 2.417 0 0 0-2.414-2.415z" transform="translate(1.892 11.517)" style="fill:#1a1a1a"/>
                        <path data-name="패스 50413" d="M170.882 123.223H44.719a3.368 3.368 0 0 0-3.364 3.535l3.472 70.037a3.368 3.368 0 0 0 3.364 3.2H167.41a3.367 3.367 0 0 0 3.363-3.2l3.473-70.037a3.368 3.368 0 0 0-3.364-3.535" transform="translate(2.452 7.308)" style="fill:#f2f2f2"/>
                        <path data-name="패스 50414" d="M167.5 201.673H48.279a4.955 4.955 0 0 1-4.951-4.712l-3.472-70.036a4.958 4.958 0 0 1 4.951-5.2h126.164a4.956 4.956 0 0 1 4.95 5.2l-3.472 70.036a4.954 4.954 0 0 1-4.951 4.712M44.807 124.9a1.78 1.78 0 0 0-1.778 1.868L46.5 196.8a1.778 1.778 0 0 0 1.776 1.691H167.5a1.778 1.778 0 0 0 1.778-1.691l3.472-70.037a1.778 1.778 0 0 0-1.776-1.868z" transform="translate(2.363 7.219)" style="fill:#1a1a1a"/>
                        <path data-name="패스 50415" d="M112.121 162.582a7.614 7.614 0 1 1-7.614-7.614 7.614 7.614 0 0 1 7.614 7.614" transform="translate(5.747 9.191)" style="fill:#f2f2f2"/>
                        <path data-name="패스 50416" d="M104.6 171.873a9.2 9.2 0 1 1 9.2-9.2 9.214 9.214 0 0 1-9.2 9.2m0-15.228a6.025 6.025 0 1 0 6.024 6.024 6.031 6.031 0 0 0-6.024-6.024" transform="translate(5.658 9.102)" style="fill:#1a1a1a"/>
                        <g data-name="그룹 65497" style="opacity:.05">
                            <g data-name="그룹 65496">
                                <g data-name="그룹 65495" style="clip-path:url(#3asd0qe5yc)" transform="translate(51.942 128.941)">
                                    <path data-name="패스 50417" d="M166.865 200a3.368 3.368 0 0 0 3.364-3.2l3.472-70.037a3.367 3.367 0 0 0-3.363-3.535H50.534L157.736 200z" transform="translate(-48.945 -121.633)" style="fill:#1a1a1a"/>
                                    <path data-name="패스 50418" d="M166.954 201.674h-9.129a1.584 1.584 0 0 1-.925-.3L49.7 124.6a1.59 1.59 0 0 1 .925-2.881h119.8a4.953 4.953 0 0 1 4.951 5.2l-3.472 70.037a4.954 4.954 0 0 1-4.951 4.712m-8.62-3.178h8.62a1.777 1.777 0 0 0 1.776-1.691l3.473-70.037a1.777 1.777 0 0 0-1.778-1.868H55.57z" transform="translate(-49.034 -121.722)" style="fill:#f2f2f2"/>
                                </g>
                            </g>
                        </g>
                        <path data-name="패스 50419" d="M103.319 114.5A12.451 12.451 0 0 1 90.9 102.088V91.94a12.414 12.414 0 0 1 24.828 0v10.148a12.451 12.451 0 0 1-12.409 12.412" transform="translate(5.391 4.716)" style="fill:#fff"/>
                        <path data-name="패스 50420" d="M103.408 116.18a14.02 14.02 0 0 1-14-14V92.029a14 14 0 0 1 28.007 0v10.148a14.019 14.019 0 0 1-14 14m0-34.976a10.838 10.838 0 0 0-10.833 10.828v10.148a10.826 10.826 0 0 0 21.651 0V92.029A10.837 10.837 0 0 0 103.408 81.2" transform="translate(5.302 4.627)" style="fill:#1a1a1a"/>
                        <path data-name="패스 50421" d="M127.833 54.528v22.4a22.92 22.92 0 0 1-45.839 0V75h-1.505a4.906 4.906 0 0 1 0-9.812h1.505v-10.66a22.92 22.92 0 1 1 45.839 0" transform="translate(4.483 1.875)" style="fill:#fff"/>
                        <path data-name="패스 50422" d="M105 101.519a24.532 24.532 0 0 1-24.509-24.5v-.339a6.5 6.5 0 0 1 0-12.989v-9.074a24.508 24.508 0 1 1 49.016 0v22.4A24.531 24.531 0 0 1 105 101.519m-24.422-34.65a3.317 3.317 0 0 0 0 6.633h1.505a1.59 1.59 0 0 1 1.589 1.589v1.928a21.33 21.33 0 0 0 42.66 0v-22.4a21.33 21.33 0 0 0-42.66 0V65.28a1.589 1.589 0 0 1-1.589 1.589z" transform="translate(4.394 1.786)" style="fill:#1a1a1a"/>
                        <path data-name="패스 50423" d="M127.756 23.8s12.327 26.262-34.193 24.814c0 0-12.161 1.243-11.968-10.339 0 0 0-8.685 13.9-9.1 0 0 25.894.206 32.263-5.377" transform="translate(4.839 1.412)" style="fill:#1cbfff"/>
                        <path data-name="패스 50424" d="M97.268 50.352q-1.743 0-3.571-.056c-.9.073-6.491.359-10.258-3.1-2.282-2.1-3.406-5.075-3.343-8.858 0-.075.177-10.206 15.438-10.661 7.119.058 26.415-.734 31.264-4.983a1.589 1.589 0 0 1 2.485.52c.171.363 4.116 8.979-.883 16.586-4.607 7.006-15.072 10.551-31.132 10.551m-3.612-3.236h.044c16.7.52 27.776-2.6 32.025-9.036 2.829-4.281 2.04-9.168 1.305-11.732-8.4 4.547-28.971 4.521-31.463 4.508-12 .357-12.29 7.233-12.3 7.526-.048 2.838.728 5.008 2.3 6.462 2.955 2.728 7.867 2.283 7.919 2.279a1.57 1.57 0 0 1 .16-.007" transform="translate(4.75 1.323)" style="fill:#1a1a1a"/>
                        <path data-name="패스 50425" d="M93.512 65.876a.3.3 0 1 1-.3-.3.3.3 0 0 1 .3.3" transform="translate(5.511 3.889)" style="fill:#7dcec9"/>
                        <path data-name="패스 50426" d="M93.3 67.852a1.888 1.888 0 1 1 1.887-1.888 1.89 1.89 0 0 1-1.887 1.888" transform="translate(5.422 3.8)" style="fill:#1a1a1a"/>
                        <path data-name="패스 50427" d="M114.376 65.876a.3.3 0 1 1-.3-.3.3.3 0 0 1 .3.3" transform="translate(6.748 3.889)" style="fill:#7dcec9"/>
                        <path data-name="패스 50428" d="M114.167 67.852a1.888 1.888 0 1 1 1.888-1.888 1.889 1.889 0 0 1-1.888 1.888" transform="translate(6.659 3.8)" style="fill:#1a1a1a"/>
                        <path data-name="선 45" transform="translate(109.476 68.273)" style="fill:#7dcec9" d="M0 0v7.068"/>
                        <path data-name="패스 50429" d="M103.435 73.2a1.589 1.589 0 0 1-1.589-1.589v-7.072a1.589 1.589 0 0 1 3.178 0v7.068a1.589 1.589 0 0 1-1.589 1.589" transform="translate(6.04 3.733)" style="fill:#1a1a1a"/>
                        <path data-name="선 46" transform="translate(1.589 66.493)" style="fill:#7dcec9" d="M42.213 24.874 0 0"/>
                        <path data-name="선 47" transform="translate(12.977 43.962)" style="fill:#7dcec9" d="M37.491 36.424 0 0"/>
                        <path data-name="선 48" transform="translate(27.277 21.717)" style="fill:#7dcec9" d="M33.633 48.31 0 0"/>
                        <path data-name="선 49" transform="translate(53.531 1.59)" style="fill:#7dcec9" d="M18.237 62.499 0 0"/>
                        <path data-name="패스 50434" d="M100.094 77.566c2.536 1.222 4.9 1.556 6.891 0" transform="translate(5.936 4.6)" style="fill:#fff"/>
                        <path data-name="패스 50435" d="M109.911 84.811a10.632 10.632 0 0 1-4.571-1.211 1.589 1.589 0 1 1 1.379-2.862c2.986 1.441 4.36.853 5.223.179a1.589 1.589 0 0 1 1.955 2.5 6.3 6.3 0 0 1-3.987 1.39"/>
                        <path data-name="패스 50436" d="M169.695 72.154c-5.715 2.262-7.1 4.094-8.811 11.653-1.71-7.559-3.1-9.392-8.81-11.653 5.715-2.262 7.1-4.094 8.81-11.653 1.71 7.559 3.1 9.392 8.811 11.653" transform="translate(9.019 3.588)" style="fill:#fff"/>
                        <path data-name="패스 50437" d="M160.972 85.485a1.588 1.588 0 0 1-1.55-1.238c-1.6-7.084-2.628-8.462-7.845-10.525a1.589 1.589 0 0 1 0-2.955c5.217-2.064 6.243-3.442 7.845-10.526a1.589 1.589 0 0 1 3.1 0c1.6 7.085 2.629 8.463 7.846 10.526a1.589 1.589 0 0 1 0 2.955c-5.217 2.064-6.244 3.442-7.846 10.526a1.589 1.589 0 0 1-1.55 1.237m-5.038-13.241a10.59 10.59 0 0 1 5.038 5.919 10.591 10.591 0 0 1 5.039-5.919 10.591 10.591 0 0 1-5.039-5.919 10.589 10.589 0 0 1-5.038 5.919" transform="translate(8.93 3.499)" style="fill:#1a1a1a"/>
                        <path data-name="패스 50438" d="M189.823 98.766c-4.559 1.8-5.665 3.266-7.03 9.3-1.363-6.031-2.469-7.492-7.029-9.3 4.559-1.8 5.665-3.266 7.029-9.3 1.364 6.031 2.47 7.492 7.03 9.3" transform="translate(10.424 5.306)" style="fill:#fff"/>
                        <path data-name="패스 50439" d="M182.882 109.741a1.587 1.587 0 0 1-1.549-1.238c-1.311-5.791-2.252-6.662-6.065-8.169a1.589 1.589 0 0 1 0-2.955c3.812-1.508 4.753-2.378 6.065-8.169a1.588 1.588 0 0 1 3.1 0c1.31 5.791 2.251 6.661 6.065 8.169a1.589 1.589 0 0 1 0 2.955c-3.813 1.507-4.754 2.378-6.065 8.169a1.587 1.587 0 0 1-1.55 1.238M179.5 98.855a8.342 8.342 0 0 1 3.38 3.886 8.338 8.338 0 0 1 3.381-3.886 8.344 8.344 0 0 1-3.381-3.886 8.346 8.346 0 0 1-3.38 3.886" transform="translate(10.335 5.217)" style="fill:#1a1a1a"/>
                        <path data-name="선 50" transform="translate(9.534 219.994)" style="fill:#fff" d="M29.852 0H0"/>
                        <path data-name="패스 50440" d="M38.942 209.355H9.089a1.589 1.589 0 1 1 0-3.178h29.853a1.589 1.589 0 1 1 0 3.178" transform="translate(.445 12.228)" style="fill:#1a1a1a"/>
                        <path data-name="선 51" transform="translate(171.263 219.994)" style="fill:#fff" d="M29.852 0H0"/>
                        <path data-name="패스 50441" d="M191.616 209.355h-29.853a1.589 1.589 0 0 1 0-3.178h29.853a1.589 1.589 0 0 1 0 3.178" transform="translate(9.5 12.228)" style="fill:#1a1a1a"/>
                        <path data-name="선 52" transform="translate(208.604 219.994)" style="fill:#fff" d="M5.642 0H0"/>
                        <path data-name="패스 50442" d="M202.655 209.355h-5.642a1.589 1.589 0 1 1 0-3.178h5.642a1.589 1.589 0 0 1 0 3.178" transform="translate(11.59 12.228)" style="fill:#1a1a1a"/>
                    </g>
                </g>
            </g>
        </g>
        <g data-name="그룹 65508">
            <g data-name="그룹 65503">
                <g data-name="그룹 65502" style="clip-path:url(#iy7c2cpq0d)" transform="translate(306.721 781.439)">
                    <path data-name="패스 50443" d="M28.553 0 .7 25.8a2.179 2.179 0 0 0 1.48 3.772 2.187 2.187 0 0 0 .275-.025 2.181 2.181 0 0 0 .249.025h10.559V52.08a2.788 2.788 0 0 0 5.575 0V41.763h10.391V52.08a2.788 2.788 0 0 0 5.575 0V27.9a2.788 2.788 0 1 0-5.575 0v8.542H18.838V27.9a2.788 2.788 0 0 0-2.788-2.788l-8.234.019L26 8.236c2.521-2.363 4.294-2.409 6.777-.176a34959.18 34959.18 0 0 1 16.061 14.49l2.813 2.54H78.69a1.774 1.774 0 0 0 1.168-3.109L54.74 0z" style="fill:#005dab"/>
                    <path data-name="패스 50444" d="M143.881 115.787c-6.266 0-9.419 4.936-9.419 11.024s3.4 11.025 9.419 11.025 9.419-4.936 9.419-11.025-3.153-11.024-9.419-11.024m0 17.853c-2.886 0-4.518-3.057-4.518-6.829s1.513-6.828 4.518-6.828 4.518 3.057 4.518 6.828-1.632 6.829-4.518 6.829" transform="translate(-96.448 -83.052)" style="fill:#005dab"/>
                    <path data-name="패스 50445" d="M231.48 115.486c-2.337 0-4.536 1.6-6.3 3.822-.777-2.315-2.32-3.822-4.779-3.822-2.187 0-4.277 1.352-6.015 3.292v-1.1a2.433 2.433 0 0 0-4.866 0v17.166a2.433 2.433 0 0 0 4.866 0v-10.36c0-1.987 1.4-4.562 3.48-4.562 2.109 0 3.058 1.278 3.058 2.408v12.519a2.433 2.433 0 0 0 4.866 0V125.5c0-2.661 1.4-5.575 3.481-5.575a2.848 2.848 0 0 1 3.058 2.692v12.234a2.433 2.433 0 0 0 4.866 0v-11.794c0-5.1-1.5-7.571-5.717-7.571" transform="translate(-150.287 -82.667)" style="fill:#005dab"/>
                </g>
            </g>
            <g data-name="그룹 65505">
                <g data-name="그룹 65504" style="clip-path:url(#vzh6u4rw6e)" transform="translate(389.677 823.923)">
                    <path data-name="사각형 17033" transform="rotate(-44.076 7.791 19.25)" style="fill:url(#7l871pdilf)" d="M0 0h34.156v34.078H0z"/>
                </g>
            </g>
            <g data-name="그룹 65507">
                <g data-name="그룹 65506" style="clip-path:url(#iy7c2cpq0d)" transform="translate(306.721 781.439)">
                    <path data-name="패스 50447" d="M396.371 121.971h-1.031c-.3 0-.49-.127-.49-.465v-11.6h2.112a1.876 1.876 0 0 0 0-3.751h-2.112v-3.51a2.526 2.526 0 0 0-5.043 0v3.51h-1.039a1.876 1.876 0 1 0 0 3.751h1.039v12.253a4.206 4.206 0 0 0 4.251 4.251h2.313a2.226 2.226 0 1 0 0-4.441" transform="translate(-277.513 -71.919)" style="fill:#005dab"/>
                    <path data-name="패스 50448" d="M450.324 133.979a6.675 6.675 0 0 1-.443-1.774v-11.278c0-2.7-2.453-5.512-8.047-5.512a8.387 8.387 0 0 0-7.73 4.308 2.253 2.253 0 0 0 .507 2.851 2.332 2.332 0 0 0 3.044-.525 4.959 4.959 0 0 1 4.179-2.326c2.873 0 3.485 1.837 3.485 2.661v.823a3.913 3.913 0 0 1-2.725 1.332c-3.041.127-10.074.57-10.074 7.032 0 4.435 3.485 5.766 6.779 5.766a8.719 8.719 0 0 0 6.041-3.219 3.973 3.973 0 0 0 1.533 2.951 2.246 2.246 0 0 0 1.549.332 2.992 2.992 0 0 0 1.584-.824 3.324 3.324 0 0 0 .317-2.6m-6.4-1.837a4.908 4.908 0 0 1-3.675 1.647 2.739 2.739 0 0 1-2.725-2.725c0-1.267 1.331-2.851 3.675-2.851a6.414 6.414 0 0 0 4.118-1.279v3.288a8.043 8.043 0 0 1-1.394 1.919" transform="translate(-310.241 -82.786)" style="fill:#005dab"/>
                    <path data-name="패스 50449" d="m514.068 126.174 3.587-5.395a4.712 4.712 0 0 0 0-4.823 1.786 1.786 0 0 0-3.206 0l-3.587 5.395-3.586-5.395a1.786 1.786 0 0 0-3.207 0 4.711 4.711 0 0 0 0 4.823l3.587 5.395-3.587 5.395a4.711 4.711 0 0 0 0 4.823 1.786 1.786 0 0 0 3.207 0l3.585-5.392 3.587 5.395a1.786 1.786 0 0 0 3.206 0 4.712 4.712 0 0 0 0-4.823z" transform="translate(-361.085 -82.457)" style="fill:#005dab"/>
                    <path data-name="패스 50450" d="M575.72 183.164a3.064 3.064 0 1 1-3.064-3.064 3.064 3.064 0 0 1 3.064 3.064" transform="translate(-408.56 -129.183)" style="fill:#019f40"/>
                    <path data-name="패스 50451" d="M442.184 204.534s-11.4 10.222-26.61 10.222a35.355 35.355 0 0 1-21.388-6.89 4.5 4.5 0 0 0-.286-1.058s-.4-.406-.7-.674-.624-.5-.624-.5a3.564 3.564 0 0 0-1.17 1.326 7.064 7.064 0 0 0 .569.557c.355.313.755.612.755.612a4.15 4.15 0 0 0 1.149.144c3.15 3.094 10.925 9.521 21.189 9.521 13.516 0 21.415-7.561 27.117-13.263" transform="translate(-280.749 -146.709)" style="fill:#fa9f1d"/>
                </g>
            </g>
        </g>
    </g>
</svg>
