<svg xmlns="http://www.w3.org/2000/svg" width="80" height="80.001" viewBox="0 0 80 80.001">
    <defs>
        <clipPath id="usur0vei5a">
            <path data-name="사각형 26732" style="fill:none" d="M0 0h80v80.001H0z"/>
        </clipPath>
    </defs>
    <g data-name="그룹 87161" style="clip-path:url(#usur0vei5a)">
        <path data-name="패스 62090" d="M40 80a40 40 0 1 1 40-40 40 40 0 0 1-40 40" transform="translate(.02)" style="fill:#08f"/>
        <path data-name="패스 62091" d="M78.343 56.077a9.624 9.624 0 0 0-4.45-1.4c-5.907-.561-10.095 5.672-10.818 8.211-.01-.015-.034-.032-.038-.055-.347-2.04-4.755-8.819-10.614-8.4a9.672 9.672 0 0 0-4.482 1.3c-6.777 4.02-7.561 16.35 4.17 26.642a43.245 43.245 0 0 0 6.453 4.644c1.408.839 4.138 2.338 4.2 2.3a1.166 1.166 0 0 0 .267-.107c.735-.348 2.816-1.44 3.99-2.106a43.166 43.166 0 0 0 6.554-4.5c11.956-10.024 11.447-22.372 4.762-26.542" transform="translate(-23.017 -29.136)" style="fill:#fff"/>
    </g>
</svg>
