<svg xmlns="http://www.w3.org/2000/svg" width="372" height="127" viewBox="0 0 372 127">
    <defs>
        <clipPath id="a">
            <path data-name="사각형 15792" transform="translate(6002 -11953)" style="fill:#fff" d="M0 0h372v127H0z"/>
        </clipPath>
    </defs>
    <g data-name="마스크 그룹 88" transform="translate(-6002 11953)" style="clip-path:url(#a)">
        <g data-name="그룹 61956">
            <g data-name="패스 47420" style="fill:none">
                <path d="M6.491 0H315.6c3.585 0 6.491 2.166 6.491 4.838V51.4c0 2.672-2.906 4.838-6.491 4.838h-85.905s-36.452 30.666-72.142 30.666-70.615-30.665-70.615-30.665H6.491C2.906 56.239 0 54.073 0 51.4V4.838C0 2.166 2.906 0 6.491 0z" style="stroke:none" transform="translate(6027 -11932.906)"/>
                <path d="M6.49 5c-.699 0-1.218.19-1.49.35V50.89c.272.16.791.35 1.49.35l82.329-.002 1.415 1.243c.085.074 8.651 7.534 21.316 14.871 7.361 4.265 14.648 7.655 21.66 10.076 8.603 2.972 16.793 4.478 24.343 4.478 7.561 0 15.842-1.51 24.613-4.489 7.15-2.428 14.623-5.827 22.214-10.103 13.056-7.352 22.009-14.827 22.096-14.9l1.395-1.174h87.733c.699 0 1.218-.19 1.49-.35V5.35c-.272-.16-.791-.35-1.49-.35H6.49m0-5h309.113c3.584 0 6.49 2.166 6.49 4.838V51.4c0 2.672-2.906 4.838-6.49 4.838h-85.91s-36.451 30.666-72.14 30.666c-35.69 0-70.616-30.666-70.616-30.666H6.49C2.906 56.239 0 54.073 0 51.401V4.838C0 2.166 2.906 0 6.49 0z" style="fill:#d2d2d2;stroke:none" transform="translate(6027 -11932.906)"/>
            </g>
        </g>
        <rect data-name="사각형 15791" width="270" height="14" rx="7" transform="translate(6053 -11937)" style="fill:#e3c295"/>
    </g>
</svg>
