<svg xmlns="http://www.w3.org/2000/svg" width="38" height="48">
    <defs>
        <clipPath id="a">
            <path data-name="사각형 13513" transform="translate(-7229 -16608)" style="fill:none" d="M0 0h38v48H0z"/>
        </clipPath>
    </defs>
    <g data-name="마스크 그룹 50" transform="translate(7229 16608)" style="clip-path:url(#a)">
        <g data-name="그룹 57675">
            <g data-name="합치기 32">
                <path data-name="패스 45796" d="M180.34 295.364a17.085 17.085 0 0 1 5.66-33.175 17.086 17.086 0 0 1 5.662 33.175L186 305.192z" transform="translate(-7395.997 -16868.189)" style="fill:#ffbe1a"/>
                <path data-name="패스 45797" d="m186 307.189-6.339-11A18.06 18.06 0 1 1 204 279.271a18.1 18.1 0 0 1-11.654 16.914zm0-44.022a16.11 16.11 0 0 0-5.34 31.279l.342.122 5 8.673 5-8.673.342-.122A16.11 16.11 0 0 0 186 263.167z" transform="translate(-7395.997 -16868.189)" style="fill:#1a1818"/>
            </g>
            <g data-name="그룹 57629">
                <g data-name="그룹 57609">
                    <g data-name="패스 45755">
                        <path data-name="패스 45798" d="M-7206.625-16579.992a.716.716 0 0 1-.727-.565l-3.374-13.339a.75.75 0 0 1 1.454-.368l2.658 10.505 2.736-10.51a.75.75 0 0 1 1.451.378l-3.472 13.338a.749.749 0 0 1-.726.561z"/>
                    </g>
                    <g data-name="패스 45756">
                        <path data-name="패스 45799" d="M-7213.469-16579.992a.749.749 0 0 1-.725-.565l-3.374-13.339a.75.75 0 1 1 1.454-.368l2.658 10.506 2.737-10.511a.75.75 0 0 1 1.451.378l-3.473 13.338a.75.75 0 0 1-.728.561z"/>
                    </g>
                </g>
                <g data-name="선 1867">
                    <path data-name="패스 45800" d="M-7200.392-16588.177h-19.206a.75.75 0 1 1 0-1.5h19.206a.75.75 0 0 1 0 1.5z"/>
                </g>
            </g>
        </g>
    </g>
</svg>
