<svg xmlns="http://www.w3.org/2000/svg" id="prefix__ico_small_bank2_KB국민은행" width="40" height="40" viewBox="0 0 40 40">
    <circle id="prefix__타원_69" cx="20" cy="20" r="20" fill="#645b4c" data-name="타원 69"/>
    <path id="prefix__패스_848" fill="#fca400" d="M112.363 982.379a40.986 40.986 0 0 0 .533 6.748.093.093 0 0 0 .011.038c.31.453.632 2.252.886 2.815a.176.176 0 0 0 .056.055 2.257 2.257 0 0 0 1.176.312.049.049 0 0 0 .05-.043 7.377 7.377 0 0 0-.022-1.756c-.139-2.1-.292-5.443-.267-7.468 1.643.915 7.806 5.334 11.021 6.249a.214.214 0 0 0 .2-.044 1.125 1.125 0 0 1 .471-.292.615.615 0 0 0 .172-.548c2.036-.075 4.861-.859 6.344-2.72 1.018-1.279 1-3.062.366-3.664a2.3 2.3 0 0 1-.267-.168 4.617 4.617 0 0 0-3.7-1.143 7.278 7.278 0 0 0-3.473 1.25s-.01 0-.012-.006c-.075-1.371.475-3.115-.008-4.241a.094.094 0 0 0-.1-.061 3.515 3.515 0 0 0-1.444.466.177.177 0 0 0-.065.146 8.95 8.95 0 0 1-.262 2.148c-.03.03-.021.061-.03.13a24.7 24.7 0 0 0-.013 5.149.88.88 0 0 0 .434.335 3.316 3.316 0 0 0 1.344-.279.833.833 0 0 1 .212-.036c.056-.005.079-.07.075-.136a2.419 2.419 0 0 1 .014-.471 4.466 4.466 0 0 1 3.25-3.182 2.3 2.3 0 0 1 2.209.721 2.814 2.814 0 0 1-.319 2.269 4.511 4.511 0 0 1-2.454 1.947 9.329 9.329 0 0 1-3.736.518c-1.243-.75-3.329-2.488-5.159-3.182a5.713 5.713 0 0 1-1.04-.75c-.888-.714-2.788-1.952-3.918-2.711-.008-.008-.008-.016-.008-.033a.537.537 0 0 1 .015-.237.162.162 0 0 1 .087-.1 24.575 24.575 0 0 0 2.21-1.392.926.926 0 0 1 .187-.127c2.51-1.521 6.914-3.582 8.839-5.574a.174.174 0 0 0 .026-.116.886.886 0 0 1 .037-.241 1.226 1.226 0 0 0 .02-.744.113.113 0 0 0-.076-.081 5.21 5.21 0 0 0-3.662 1.714 4.436 4.436 0 0 1-1.015.675c-1.44.818-4.848 2.934-6.475 3.98-.022.015-.042 0-.042-.021a54.97 54.97 0 0 1 .872-6.741.218.218 0 0 0-.03-.152c-.132-.2-.211-.438-.259-.488a.053.053 0 0 0-.021-.018.933.933 0 0 0-.7-.041c-.2.047-.457.208-.78.287a.113.113 0 0 0-.085.067 27.3 27.3 0 0 0-1.628 7.8c0 .01 0 .027-.018.016a37.833 37.833 0 0 0-3.964-2.2.231.231 0 0 0-.061-.016 2.918 2.918 0 0 1-.971-.45c-.358-.216-1.059-.712-1.5-.967a.223.223 0 0 0-.149-.035 2.777 2.777 0 0 0-1.284.865c-.065.1.068.316.053.45a.043.043 0 0 0 .012.039 13.122 13.122 0 0 0 2.627 1.776c1.324.714 2.672 1.391 3.229 1.745a.1.1 0 0 1 .034.035 1.031 1.031 0 0 0 .3.226 2.79 2.79 0 0 1 .395.244c.035.032.018.069-.018.1-1.4.974-4.182 2.781-5.509 3.671a11.675 11.675 0 0 1-1.1.527 1.44 1.44 0 0 0-.76.618c-.024.049.008.074.044.086.214.061.267.211.415.27a.567.567 0 0 0 .166.02 5.145 5.145 0 0 0 1.636-.561c.995-.441 4.089-2.341 4.463-2.558a.038.038 0 0 1 .026-.007.943.943 0 0 0 .511-.262 5.471 5.471 0 0 1 .878-.524l.5-.28z" data-name="패스 848" transform="translate(-98.81 -960.919)"/>
</svg>
