<svg xmlns="http://www.w3.org/2000/svg" width="26" height="26" viewBox="0 0 26 26">
    <g data-name="그룹 83585">
        <g data-name="타원 393" style="stroke:#17bf98;stroke-width:2px;fill:none">
            <circle cx="13" cy="13" r="13" style="stroke:none"/>
            <circle cx="13" cy="13" r="12" style="fill:none"/>
        </g>
        <path data-name="Oval 318" d="M497 602v2.71h2.936V602zm-1.635-11.064a4.321 4.321 0 0 0-1.96 3.789h2.847a2.677 2.677 0 0 1 .478-1.5c1.038-1.349 3.671-.861 3.659 1.164-.009 1.569-1.78 2.031-2.581 3a4.245 4.245 0 0 0-.739 2.807h2.66a2.381 2.381 0 0 1 .505-1.733 6.332 6.332 0 0 1 1.075-.849 4.08 4.08 0 0 0 2.063-3.92c-.491-3.773-5.623-4.217-8.009-2.759z" transform="translate(-485.402 -584.165)" style="fill:#17bf98;fill-rule:evenodd"/>
    </g>
</svg>
