<svg xmlns="http://www.w3.org/2000/svg" width="28" height="28">
    <path data-name="패스 7435" d="m4519.881 805.789-2.144-2.136a2.914 2.914 0 0 0-4.108.006l-13.6 13.554-1.271 7.6 7.536-1.252 13.588-13.543c.044-.043.088-.088.122-.127a2.991 2.991 0 0 0-.123-4.102zm-17.571 11.921 9.929-9.891 3.53 3.517-9.926 9.893zm-.753 2.025 2.219 2.21-2.663.442zm16.995-11.172-1.39 1.384-3.529-3.516 1.323-1.318a1.037 1.037 0 0 1 1.458-.006l2.145 2.137a.94.94 0 0 1-.007 1.319z" transform="translate(-4495.754 -799.809)" style="fill:#8b8e93"/>
    <path data-name="사각형 865" style="fill:none" d="M0 0h28v28H0z"/>
</svg>
