<svg xmlns="http://www.w3.org/2000/svg" width="46" height="46">
    <defs>
        <style>
            .cls-2{fill:none}
        </style>
    </defs>
    <g id="그룹_57678" data-name="그룹 57678" transform="translate(-73 -580)">
        <g id="그룹_56076" data-name="그룹 56076" transform="translate(-10 374)">
            <g id="합치기_27" data-name="합치기 27" style="fill:#222">
                <path d="M37.307 40.167a2.83 2.83 0 0 1-1.729-.59h-.038l-.15-.15-9.513-9.673a16.284 16.284 0 0 1-5.568 2.743 16.352 16.352 0 0 1-8.436.045 16.409 16.409 0 0 1-7.543-4.383C1.215 24.993-.5 20.784-.5 16.306-.501 11.82 1.219 7.602 4.343 4.427A16.487 16.487 0 0 1 11.737.076 16.349 16.349 0 0 1 20.174.03a16.449 16.449 0 0 1 7.543 4.383 16.892 16.892 0 0 1 4.775 10.472c.303 3.763-.65 7.53-2.69 10.655l9.367 9.52c.634.553.998 1.355.998 2.203 0 1.601-1.283 2.904-2.86 2.904zM16.014 3.64v.5c-1.043 0-2.082.14-3.087.413A11.92 11.92 0 0 0 7.583 7.7c-2.26 2.295-3.505 5.35-3.506 8.602-.001 3.244 1.24 6.292 3.496 8.585a11.936 11.936 0 0 0 8.455 3.547c1.044 0 2.083-.139 3.088-.413a11.915 11.915 0 0 0 5.344-3.145 12.179 12.179 0 0 0 3.507-8.602c0-3.245-1.242-6.295-3.497-8.586a11.936 11.936 0 0 0-8.456-3.547v-.5z" style="stroke:none" transform="translate(86.166 209.167)"/>
                <path d="M37.307 39.667c1.302 0 2.36-1.077 2.36-2.404 0-.737-.327-1.397-.84-1.838L29.16 25.6c2.133-3.099 3.137-6.89 2.832-10.676a16.392 16.392 0 0 0-4.633-10.16 15.949 15.949 0 0 0-7.312-4.25 15.869 15.869 0 0 0-8.18.043c-2.7.738-5.18 2.197-7.169 4.22-3.03 3.08-4.7 7.174-4.699 11.528 0 4.345 1.664 8.43 4.687 11.503a15.91 15.91 0 0 0 7.312 4.249c2.68.7 5.507.685 8.178-.043a15.801 15.801 0 0 0 5.744-2.929l9.828 9.99.004-.004c.415.37.959.595 1.554.595M16.014 3.64c3.263 0 6.456 1.302 8.812 3.697 2.348 2.386 3.64 5.559 3.64 8.936.002 3.381-1.295 6.561-3.65 8.953a12.414 12.414 0 0 1-5.568 3.276c-4.287 1.17-8.899-.08-12.031-3.266-2.348-2.386-3.641-5.56-3.64-8.935 0-3.382 1.295-6.561 3.65-8.953a12.423 12.423 0 0 1 5.568-3.277 12.219 12.219 0 0 1 3.219-.431m21.293 37.027a3.327 3.327 0 0 1-1.891-.59h-.086l-.296-.3-9.21-9.363a16.768 16.768 0 0 1-5.384 2.565 16.852 16.852 0 0 1-8.694.046 16.909 16.909 0 0 1-7.772-4.515C.766 25.25-1 20.916-1 16.306c-.001-4.617 1.77-8.96 4.986-12.23a16.987 16.987 0 0 1 7.619-4.482A16.849 16.849 0 0 1 20.3-.453a16.95 16.95 0 0 1 7.773 4.516 17.393 17.393 0 0 1 4.917 10.781 17.56 17.56 0 0 1-2.552 10.63l9.074 9.222a3.417 3.417 0 0 1 1.155 2.567c0 1.877-1.508 3.404-3.36 3.404zM16.014 3.64v1c-.999 0-1.993.133-2.956.396A11.42 11.42 0 0 0 7.94 8.049c-2.168 2.202-3.362 5.133-3.363 8.252-.001 3.112 1.19 6.036 3.352 8.234a11.433 11.433 0 0 0 8.1 3.398c.998 0 1.993-.133 2.956-.396a11.414 11.414 0 0 0 5.119-3.013 11.682 11.682 0 0 0 3.363-8.25c0-3.114-1.191-6.039-3.354-8.236a11.433 11.433 0 0 0-8.099-3.398v-1z" style="fill:#000;stroke:none" transform="translate(86.166 209.167)"/>
            </g>
            <path id="사각형_12691" data-name="사각형 12691" class="cls-2" transform="translate(85 208)" d="M0 0h42v42H0z"/>
        </g>
        <path id="사각형_13512" data-name="사각형 13512" class="cls-2" transform="translate(73 580)" d="M0 0h46v46H0z"/>
    </g>
</svg>
