<svg xmlns="http://www.w3.org/2000/svg" width="22" height="22" viewBox="0 0 22 22">
    <g data-name="그룹 82640">
        <path data-name="패스 57679" d="M28.853 24.129a2.638 2.638 0 1 1-2.8 2.955 2.638 2.638 0 1 0 2.8-2.955" transform="translate(-9.306 -7.399)" style="fill:#fff"/>
        <path data-name="패스 57680" d="M28.4 24.14a2.628 2.628 0 0 0-2.346 2.24 2.633 2.633 0 0 1 2.346-2.24" transform="translate(-9.31 -7.403)" style="fill:#fff"/>
        <path data-name="패스 57681" d="M30.059 24.119c-.065 0-.126-.019-.192-.019a2.58 2.58 0 0 0-.26.026 2.58 2.58 0 0 1 .26-.026c.066 0 .128.015.192.019" transform="translate(-10.511 -7.602)" style="fill:#7b7b7b"/>
        <path data-name="패스 57682" d="M26.038 27.528a2.636 2.636 0 0 0-.038.378 2.593 2.593 0 0 0 .034.33 2.581 2.581 0 0 1-.034-.33 2.636 2.636 0 0 1 .038-.378" transform="translate(-9.179 -8.553)" style="fill:#7b7b7b"/>
        <path data-name="패스 57684" d="M21.2 14.083h-7.53a2.594 2.594 0 0 0-2.3-1.963c-.067-.005-.131-.02-.2-.02a2.444 2.444 0 0 0-.243.025 2.583 2.583 0 0 0-2.244 1.958H1.147a.661.661 0 0 0 0 1.322h7.535a2.582 2.582 0 0 0 2.462 1.981h.027a2.592 2.592 0 0 0 2.5-1.983H21.2a.661.661 0 0 0 0-1.322m-10.024-.992a1.617 1.617 0 0 1 1.48.992H9.691a1.616 1.616 0 0 1 1.48-.992m1.48 2.314a1.6 1.6 0 0 1-2.959 0z" transform="translate(-.173 -3.744)" style="fill:#929292"/>
        <path data-name="패스 57685" d="M16.153 16.906a1.653 1.653 0 1 0-1.653-1.653 1.655 1.655 0 0 0 1.653 1.653" transform="translate(-5.153 -4.252)" style="fill:#fff"/>
        <g data-name="그룹 82638">
            <path data-name="패스 57683" d="M19.772 24.119c-.063 0-.124-.019-.188-.019a2.473 2.473 0 0 0-.254.026 2.588 2.588 0 0 0-2.23 1.957H1.147a.661.661 0 0 0 0 1.322H17.1a2.583 2.583 0 0 0 2.484 1.983 2.641 2.641 0 0 0 .188-5.27m-.188.972a1.617 1.617 0 0 1 1.48.992H18.1a1.617 1.617 0 0 1 1.48-.992m0 3.306a1.617 1.617 0 0 1-1.48-.992h2.96a1.617 1.617 0 0 1-1.48.992" transform="translate(-.173 -7.391)" style="fill:#929292"/>
            <path data-name="패스 57686" d="M29.153 28.906a1.653 1.653 0 1 0-1.653-1.653 1.655 1.655 0 0 0 1.653 1.653" transform="translate(-9.798 -7.899)" style="fill:#fff"/>
        </g>
        <path data-name="패스 57687" d="M20.709 2.108H5.007A2.571 2.571 0 0 0 2.55.1 2.615 2.615 0 0 0 0 2.744a2.612 2.612 0 0 0 2.55 2.645 2.56 2.56 0 0 0 2.437-1.942h15.722a.654.654 0 0 0 .637-.669.654.654 0 0 0-.637-.669M2.55 1.1a1.593 1.593 0 0 1 1.458 1H1.093a1.593 1.593 0 0 1 1.458-1m0 3.347a1.593 1.593 0 0 1-1.458-1h2.915a1.593 1.593 0 0 1-1.458 1" transform="translate(-.005 -.1)" style="fill:#929292"/>
        <path data-name="패스 57688" d="M3.153 4.906A1.653 1.653 0 1 0 1.5 3.253a1.655 1.655 0 0 0 1.653 1.653" transform="translate(-.511 -.608)" style="fill:#fff"/>
    </g>
</svg>
