<svg xmlns="http://www.w3.org/2000/svg" width="50" height="50" viewBox="0 0 50 50">
    <defs>
        <style>
            .cls-2{fill:#ffe812}
        </style>
    </defs>
    <g id="그룹_56250" transform="translate(-391 -480) translate(391 480)">
        <path id="사각형_10204" fill="none" d="M0 0H50V50H0z"/>
        <g id="kakaotalk">
            <path id="패스_7051" d="M50 46.094A3.906 3.906 0 0 1 46.094 50H3.906A3.906 3.906 0 0 1 0 46.094V3.906A3.906 3.906 0 0 1 3.906 0h42.188A3.906 3.906 0 0 1 50 3.906z" class="cls-2"/>
            <path id="패스_7052" d="M44.313 36C33.094 36 24 43.17 24 52.016c0 5.719 3.8 10.736 9.521 13.57-.311 1.073-2 6.9-2.067 7.361 0 0-.04.344.182.475a.613.613 0 0 0 .485.029c.639-.089 7.411-4.846 8.583-5.672a25.733 25.733 0 0 0 3.608.252c11.218 0 20.313-7.17 20.313-16.016S55.531 36 44.313 36z" transform="translate(-19.313 -28.969)"/>
            <path id="패스_7053" d="M53.4 103.876a1.148 1.148 0 0 1-1.172-1.119v-6.962H50.4a1.147 1.147 0 1 1 0-2.295h6a1.147 1.147 0 1 1 0 2.295h-1.828v6.962a1.148 1.148 0 0 1-1.172 1.119zm10.276-.015a.962.962 0 0 1-.975-.518l-.58-1.519h-3.574l-.581 1.52a.961.961 0 0 1-.975.517 1.788 1.788 0 0 1-.745-.162c-.323-.149-.634-.559-.278-1.664l2.8-7.378a1.633 1.633 0 0 1 3.124 0l2.8 7.375c.357 1.108.046 1.518-.277 1.666a1.792 1.792 0 0 1-.745.162zM61.5 99.748l-1.171-3.325-1.171 3.325zm5.079 3.957a1.1 1.1 0 0 1-1.123-1.074v-7.959a1.2 1.2 0 0 1 2.393 0v6.885h2.49a1.075 1.075 0 1 1 0 2.148zm6.511.156a1.173 1.173 0 0 1-1.172-1.172v-8.017a1.172 1.172 0 0 1 2.344 0v2.519l3.27-3.27a.91.91 0 0 1 .65-.261 1.186 1.186 0 0 1 1.151 1.089.913.913 0 0 1-.259.713l-2.671 2.67 2.885 3.821a1.172 1.172 0 0 1-1.871 1.412l-2.748-3.641-.407.407v2.557a1.174 1.174 0 0 1-1.172 1.172z" class="cls-2" transform="translate(-39.631 -75.238)"/>
        </g>
    </g>
</svg>
