<svg xmlns="http://www.w3.org/2000/svg" width="100" height="100">
    <defs>
        <style>
            .cls-2{fill:#d4d4d4}
        </style>
    </defs>
    <g id="그룹_56767" data-name="그룹 56767" transform="translate(-10275.999 8360)">
        <g id="패스_44917" data-name="패스 44917" style="fill:none">
            <path d="M50 0A50 50 0 1 1 0 50 50 50 0 0 1 50 0z" style="stroke:none" transform="translate(10275.999 -8360)"/>
            <path d="M50 8C26.841 8 8 26.841 8 50s18.841 42 42 42 42-18.841 42-42S73.159 8 50 8m0-8c27.614 0 50 22.386 50 50s-22.386 50-50 50S0 77.614 0 50 22.386 0 50 0z" style="fill:#d4d4d4;stroke:none" transform="translate(10275.999 -8360)"/>
        </g>
        <rect id="사각형_13169" data-name="사각형 13169" class="cls-2" width="11.151" height="38.839" rx="5.575" transform="translate(10320.433 -8339.199)"/>
        <rect id="사각형_13168" data-name="사각형 13168" class="cls-2" width="11.151" height="10.946" rx="5.473" transform="translate(10320.433 -8293.375)"/>
    </g>
</svg>
