<svg xmlns="http://www.w3.org/2000/svg" width="455.33" height="65.048" viewBox="0 0 455.33 65.048">
  <g id="그룹_4008" data-name="그룹 4008" transform="translate(0.001 0.001)">
    <g id="그룹_5266" data-name="그룹 5266" transform="translate(-0.001 -0.001)">
      <path id="패스_9245" data-name="패스 9245" d="M225.9,732.511a18.359,18.359,0,0,0-7.608-4.915,32.019,32.019,0,0,0-19.308,0,18.631,18.631,0,0,0-7.64,4.913,22.884,22.884,0,0,0-4.938,8.919,53.552,53.552,0,0,0,0,26.991,23.184,23.184,0,0,0,4.935,8.95,18.5,18.5,0,0,0,7.642,4.949,32.023,32.023,0,0,0,19.308,0A18.363,18.363,0,0,0,225.9,777.4a22.834,22.834,0,0,0,4.871-8.956,54.8,54.8,0,0,0,0-27.017,22.835,22.835,0,0,0-4.869-8.919m-12.642,42.5a11.489,11.489,0,0,1-4.619.891,11.732,11.732,0,0,1-4.658-.892,7.7,7.7,0,0,1-3.432-3.124,19.546,19.546,0,0,1-2.287-6.409,54.87,54.87,0,0,1-.835-10.559,62.47,62.47,0,0,1,.736-10.575,18.33,18.33,0,0,1,2.15-6.364,7.578,7.578,0,0,1,3.4-3.086,12.491,12.491,0,0,1,4.931-.893,12.052,12.052,0,0,1,4.824.892,7.618,7.618,0,0,1,3.364,3.087,18.353,18.353,0,0,1,2.152,6.364,62.43,62.43,0,0,1,.737,10.575,57.423,57.423,0,0,1-.8,10.565,19.063,19.063,0,0,1-2.253,6.4,7.738,7.738,0,0,1-3.4,3.124" transform="translate(-120.972 -719.25)" fill="#0090db"/>
      <path id="패스_9246" data-name="패스 9246" d="M265.9,769.23l-13.812-38.415a6.741,6.741,0,0,0-1.927-2.971,5.968,5.968,0,0,0-3.829-1H233.523V782.7h12.5V740.319l13.812,38.417a6.6,6.6,0,0,0,1.968,2.976,6.133,6.133,0,0,0,3.856.992h12.745v-55.86H265.9Z" transform="translate(-115.277 -719.167)" fill="#0090db"/>
      <path id="패스_9247" data-name="패스 9247" d="M318.228,772.523l-.717.234c-.691.225-1.533.45-2.579.687-1.012.228-2.124.439-3.305.624s-2.432.34-3.679.452-2.492.171-3.694.171H294.028V758.224h22.332v-8.013H294.028V734.857h23.448v-8.013H281.523V782.7h23c1.366,0,2.806-.061,4.282-.179s2.894-.278,4.2-.466c1.327-.192,2.553-.423,3.649-.687a10.545,10.545,0,0,0,2.675-.955l.422-.237Z" transform="translate(-109.681 -719.167)" fill="#0090db"/>
      <path id="패스_9248" data-name="패스 9248" d="M144.022,781.778H134.6a3.974,3.974,0,0,1-3.981-3.968V743.945h9.416a3.975,3.975,0,0,1,3.983,3.968Z" transform="translate(-127.273 -717.24)" fill="#0090db"/>
      <path id="패스_9249" data-name="패스 9249" d="M146.6,729.4a9.491,9.491,0,1,1-9.491-9.458A9.475,9.475,0,0,1,146.6,729.4" transform="translate(-127.623 -719.945)" fill="#f06146"/>
      <path id="패스_9250" data-name="패스 9250" d="M176.071,758.847H156.6a3.974,3.974,0,0,1-3.981-3.968v-4.934h19.465a3.975,3.975,0,0,1,3.983,3.968Z" transform="translate(-124.708 -716.563)" fill="#0090db"/>
    </g>
    <g id="그룹_5267" data-name="그룹 5267" transform="translate(231.396 6.409)">
      <path id="패스_9251" data-name="패스 9251" d="M367.047,754.576v12.63h22.679v5.449H337.533a2.385,2.385,0,0,1-2.051-.836,3.084,3.084,0,0,1-.622-1.888,3.134,3.134,0,0,1,.622-1.858,2.349,2.349,0,0,1,2.051-.867H358.1v-12.63Zm1.677-26.255a29.427,29.427,0,0,1-1.024,5.79,30.265,30.265,0,0,1-2.02,5.17q2.05,1.114,4.877,2.787t5.748,3.653q2.919,1.983,5.591,4.117a38.835,38.835,0,0,1,4.474,4.118l-3.542,4.148q-2.362-1.547-5.126-3.312t-5.592-3.436q-2.829-1.672-5.623-3.128a48.13,48.13,0,0,0-5.282-2.383,34.268,34.268,0,0,1-4.753,4.582,48.3,48.3,0,0,1-5.281,3.653,46.512,46.512,0,0,1-5.437,2.786,48.217,48.217,0,0,1-5.219,1.919l-2.3-5.015a31.133,31.133,0,0,0,6.8-3.529,34.75,34.75,0,0,0,6.493-5.666,35.276,35.276,0,0,0,5.126-7.461,26.723,26.723,0,0,0,2.765-8.793Z" transform="translate(-334.86 -725.411)" fill="#05affc"/>
      <path id="패스_9252" data-name="패스 9252" d="M384.665,754a41.5,41.5,0,0,0,7.673-6.78,37.7,37.7,0,0,0,4.94-7.12,30.137,30.137,0,0,0,2.672-6.935,33.091,33.091,0,0,0,.931-6.223h9.135a31.365,31.365,0,0,1-.777,6.873,31.989,31.989,0,0,1-2.453,6.935,62.565,62.565,0,0,1,6.959,5.48,61.083,61.083,0,0,1,6.338,6.594l-3.791,3.839q-2.983-2.661-6.369-5.293a39.528,39.528,0,0,0-7.114-4.427,43.733,43.733,0,0,1-6.151,6.036,43.028,43.028,0,0,1-8.388,5.232Zm29.824,30.217a32.8,32.8,0,0,1-8.668-.992,17.022,17.022,0,0,1-5.808-2.693,10.38,10.38,0,0,1-3.263-3.963,11.745,11.745,0,0,1,0-9.6,10.615,10.615,0,0,1,3.263-3.994,16.687,16.687,0,0,1,5.808-2.724,38.392,38.392,0,0,1,17.336,0,16.694,16.694,0,0,1,5.81,2.724,10.615,10.615,0,0,1,3.263,3.994,11.746,11.746,0,0,1,0,9.6,10.38,10.38,0,0,1-3.263,3.963,17.029,17.029,0,0,1-5.81,2.693A32.8,32.8,0,0,1,414.489,784.22Zm0-5.449q5.095,0,7.425-1.8a7.108,7.108,0,0,0,0-10.526q-2.33-1.733-7.425-1.734t-7.363,1.734a7.241,7.241,0,0,0,0,10.526Q409.394,778.771,414.489,778.771Zm26.594-34.366h-8.45v11.641a2.163,2.163,0,0,1-1.367,2.074,6.992,6.992,0,0,1-3.044.65,6.786,6.786,0,0,1-3.013-.65,2.165,2.165,0,0,1-1.337-2.074V725.706h8.76v13.313h8.45Z" transform="translate(-329.054 -725.706)" fill="#05affc"/>
      <path id="패스_9253" data-name="패스 9253" d="M456.7,750.224v-10.9h8.822v10.9h26.595v5.449H439.923a2.386,2.386,0,0,1-2.051-.836,3.177,3.177,0,0,1,0-3.777,2.387,2.387,0,0,1,2.051-.836Zm27.9-16.532q0,1.177-.061,2.6a23.775,23.775,0,0,1-.342,3.033,24.594,24.594,0,0,1-.84,3.344,19.31,19.31,0,0,1-1.615,3.592L474.22,744.9a26.014,26.014,0,0,0,.871-2.879c.205-.887.373-1.744.5-2.57a20.241,20.241,0,0,0,.217-2.507q.032-1.268.031-2.756v-1.981H446.819a2.258,2.258,0,0,1-1.895-.836,2.989,2.989,0,0,1-.653-1.889,2.864,2.864,0,0,1,.653-1.857,2.3,2.3,0,0,1,1.895-.8H484.6Zm-19.634,26.316q9.941,0,14.663,3.188a10.779,10.779,0,0,1,0,17.834q-4.722,3.188-14.663,3.188-10,0-14.725-3.188a10.778,10.778,0,0,1,0-17.834Q454.957,760.008,464.962,760.009Zm0,18.76q5.343,0,7.891-1.517t2.548-5.17q0-3.592-2.548-5.109t-7.891-1.518q-5.4,0-7.985,1.518a5.449,5.449,0,0,0-2.578,5.109q0,3.652,2.578,5.17T464.962,778.769Z" transform="translate(-322.923 -725.581)" fill="#05affc"/>
      <path id="패스_9254" data-name="패스 9254" d="M506.545,727.007a18.426,18.426,0,0,1,6.991,1.206,13.449,13.449,0,0,1,4.846,3.252,13.228,13.228,0,0,1,2.827,4.768,17.483,17.483,0,0,1,.932,5.7,17.872,17.872,0,0,1-.932,5.821,12.919,12.919,0,0,1-2.827,4.737,13.3,13.3,0,0,1-4.846,3.189,18.84,18.84,0,0,1-6.991,1.176,18.447,18.447,0,0,1-6.865-1.176,13.586,13.586,0,0,1-4.878-3.189,13.042,13.042,0,0,1-2.89-4.737,17.31,17.31,0,0,1-.962-5.821,17.131,17.131,0,0,1,.962-5.758,13.132,13.132,0,0,1,2.921-4.768,13.77,13.77,0,0,1,4.877-3.219A18.213,18.213,0,0,1,506.545,727.007Zm6.772,14.922a18.391,18.391,0,0,0-.373-3.808,9.545,9.545,0,0,0-1.149-3.034,5.484,5.484,0,0,0-2.081-1.982,6.537,6.537,0,0,0-3.169-.712,6.976,6.976,0,0,0-3.356.712,5.255,5.255,0,0,0-2.05,1.982,9.048,9.048,0,0,0-1.056,3.034,21.927,21.927,0,0,0-.311,3.808,21.406,21.406,0,0,0,.311,3.778,9,9,0,0,0,1.056,3,5.466,5.466,0,0,0,2.05,2.013,6.73,6.73,0,0,0,3.356.743,6.279,6.279,0,0,0,3.2-.743,5.959,5.959,0,0,0,2.081-2.043,8.994,8.994,0,0,0,1.15-3.034A19.27,19.27,0,0,0,513.318,741.928Zm-11.555,40.249v-19.2h8.885v13.684H530.4a30.187,30.187,0,0,0,9.445-1.548l.746,4.892a12.5,12.5,0,0,1-2.018.9,20.986,20.986,0,0,1-2.424.681q-1.275.279-2.548.433a19.4,19.4,0,0,1-2.33.156Zm28.58-56.471H539.1v38.637a2.219,2.219,0,0,1-1.4,2.105,6.919,6.919,0,0,1-3.076.682,6.382,6.382,0,0,1-2.95-.682,2.224,2.224,0,0,1-1.338-2.105Z" transform="translate(-316.663 -725.706)" fill="#05affc"/>
    </g>
  </g>
</svg>
