<svg xmlns="http://www.w3.org/2000/svg" width="162" height="34" viewBox="0 0 162 34">
    <g data-name="그룹 23500">
        <g data-name="그룹 23498">
            <g data-name="그룹 23497">
                <path data-name="패스 30591" d="m99.549 248.77 9.752-11.8h-5.32a6.593 6.593 0 0 0-5.475 2.386l-5.135 6.212V228.5h-5.15a2.179 2.179 0 0 0-2.2 2.165V262.5h5.151a2.176 2.176 0 0 0 2.195-2.161v-8.47l4.173 5.039 3.55 4.3a3.33 3.33 0 0 0 2.627 1.293h7.192l-4.651-5.612zm22.542 7.721a1.961 1.961 0 0 1-1.969-1.941V228.5h-5.155a2.181 2.181 0 0 0-2.2 2.159v25.249a6.344 6.344 0 0 0 6.71 6.592h5.662a2.182 2.182 0 0 0 2.2-2.161v-3.848z" transform="translate(-86.026 -228.5)" style="fill:#c8c8c8"/>
                <path data-name="패스 30592" d="m107.364 255.871.011-.013a.061.061 0 0 1-.016.01zm34.327-4.814v-4.8l-.451.474c-.017.008-1.4 1.395-5.36 1.395h-18.739a6.282 6.282 0 0 0-5.415 2.467l-.579.7a.615.615 0 0 1-.053.059l-3.718 4.5a8.7 8.7 0 0 1 5.095-1.607h23.405c2.839 0 5.568-.82 5.791-2.912a1.336 1.336 0 0 0 .024-.276z" transform="translate(-99.315 -239.676)" style="fill:#c8c8c8"/>
            </g>
        </g>
        <g data-name="그룹 23499">
            <path data-name="패스 30593" d="M231.089 254.383a22.3 22.3 0 0 0 2.192 3.161 14.466 14.466 0 0 0 2.259 2.27l-1.747 2.14a.723.723 0 0 1-.561.357 1.337 1.337 0 0 1-.791-.389 16.617 16.617 0 0 1-2.176-2.351 20.063 20.063 0 0 1-1.978-3 18.909 18.909 0 0 1-4.319 6.128.931.931 0 0 1-.626.324 1.061 1.061 0 0 1-.725-.454l-1.681-2.043a13.33 13.33 0 0 0 4.187-5.852 22.24 22.24 0 0 0 1.417-8.056 14.893 14.893 0 0 1 .132-2.3 1.886 1.886 0 0 1 .445-1.07 1.184 1.184 0 0 1 .841-.292h3.165a3.976 3.976 0 0 0-.692 2.367 31.68 31.68 0 0 1-.528 6.063 9.437 9.437 0 0 0 1.186 2.997zm6.528-13.211h2.869v26.52a.867.867 0 0 1-.989.973h-2.836v-15.173h-2.967q-1.022 0-1.022-1.1v-2.3h3.989v-7.943a.852.852 0 0 1 .956-.977zm8.836 27.785a.853.853 0 0 1-.956.973h-2.967v-28.271a.852.852 0 0 1 .956-.973h2.967z" transform="translate(-170.008 -236.168)" style="fill:#c8c8c8"/>
            <path data-name="패스 30594" d="M323.924 265.806v2.694a1 1 0 0 1-.379.843 2.53 2.53 0 0 1-1.236.389 23.531 23.531 0 0 1-2.472.1h-21.959V267.4a.852.852 0 0 1 .956-.973h10.089v-6h-5.869a1.844 1.844 0 0 1-1.352-.405 1.94 1.94 0 0 1-.4-1.378v-10.929a1.941 1.941 0 0 1 .4-1.378 1.846 1.846 0 0 1 1.352-.405H320.5v12.709a1.94 1.94 0 0 1-.4 1.378 1.845 1.845 0 0 1-1.352.405h-5.836v6h7.056a9.329 9.329 0 0 0 3.956-.618zm-18.463-8.851a1.031 1.031 0 0 0 .692.162h9.5a1.029 1.029 0 0 0 .709-.162 1.076 1.076 0 0 0 .148-.681v-7.035h-10.357a1.121 1.121 0 0 0-.692.146q-.165.146-.165.7v6.192a.988.988 0 0 0 .165.678z" transform="translate(-217.939 -239.469)" style="fill:#c8c8c8"/>
            <path data-name="패스 30595" d="M388.1 245q-.363 12.482-12.034 18.09a1.575 1.575 0 0 1-.659.195.741.741 0 0 1-.593-.357l-1.649-2.334a21.034 21.034 0 0 0 7.912-6 13.408 13.408 0 0 0 2.869-7.781h-8.276a.852.852 0 0 1-.956-.973v-2.464h11.8A1.383 1.383 0 0 1 388.1 245zm7.913 6.225h4.055v2.529a.852.852 0 0 1-.956.973h-3.1v14.233q0 .972-.923.973h-3.066v-28.274a.852.852 0 0 1 .956-.973h3.033z" transform="translate(-264.836 -236.168)" style="fill:#c8c8c8"/>
            <path data-name="패스 30596" d="M464.578 241.172h2.868v26.52a.867.867 0 0 1-.989.973h-2.836v-13.876H459.2a18.159 18.159 0 0 1-7.781 8.559 1.314 1.314 0 0 1-.692.227.852.852 0 0 1-.659-.357l-1.715-2.14a15.94 15.94 0 0 0 6.71-6.257 16.191 16.191 0 0 0 2.027-7.846h-6.363a.852.852 0 0 1-.956-.973v-2.334h9.594a1.585 1.585 0 0 1 1.253.422 1.788 1.788 0 0 1 .362 1.2 26.489 26.489 0 0 1-.659 6.095h3.3v-9.24a.853.853 0 0 1 .957-.973zm9.1 27.785a.853.853 0 0 1-.956.973h-2.967v-28.271a.852.852 0 0 1 .957-.973h2.967z" transform="translate(-311.678 -236.168)" style="fill:#c8c8c8"/>
        </g>
    </g>
</svg>
