<svg xmlns="http://www.w3.org/2000/svg" width="44" height="44" viewBox="0 0 44 44">
    <g data-name="그룹 83422">
        <path data-name="패스 60220" d="M153.3 11.551h-3.7a4.2 4.2 0 0 0-4.4 3.94v16.446a4.2 4.2 0 0 0 4.4 3.94h3.7a4.2 4.2 0 0 0 4.4-3.941V15.49a4.2 4.2 0 0 0-4.4-3.939" transform="translate(-144.934 3.5)" style="fill:#3a3a3a"/>
        <path data-name="패스 60221" d="M166.806 6.01h-3.7a4.2 4.2 0 0 0-4.4 3.94v21.985a4.2 4.2 0 0 0 4.4 3.94h3.694a4.2 4.2 0 0 0 4.4-3.941V9.949a4.2 4.2 0 0 0-4.4-3.939" transform="translate(-142.934 3.5)" style="fill:#3a3a3a"/>
        <path data-name="패스 60222" d="M180.261 0h-3.7a4.2 4.2 0 0 0-4.4 3.938v28a4.2 4.2 0 0 0 4.4 3.939h3.694a4.2 4.2 0 0 0 4.4-3.94v-28A4.2 4.2 0 0 0 180.261 0" transform="translate(-140.934 3.5)" style="fill:#3a3a3a"/>
        <path data-name="사각형 24565" style="fill:none" d="M0 0h44v44H0z"/>
    </g>
</svg>
