<svg xmlns="http://www.w3.org/2000/svg" width="44" height="44" viewBox="0 0 44 44">
    <defs>
        <clipPath id="g1r87j9fda">
            <path data-name="사각형 23685" style="fill:#3e3e3e" d="M0 0h35.133v34.551H0z"/>
        </clipPath>
    </defs>
    <g data-name="그룹 83337">
        <g data-name="그룹 83241">
            <g data-name="그룹 83240" transform="translate(4.2 4.436)" style="clip-path:url(#g1r87j9fda)">
                <path data-name="패스 60076" d="M42.334 30.55a1.22 1.22 0 0 1-1.22-1.22V3.033a.6.6 0 0 0-.593-.593H15.959a.6.6 0 0 0-.594.593v25.3a1.22 1.22 0 0 1-2.44 0v-25.3A3.037 3.037 0 0 1 15.959 0h24.562a3.037 3.037 0 0 1 3.033 3.033v26.3a1.22 1.22 0 0 1-1.22 1.22" transform="translate(-8.421)" style="fill:#3e3e3e"/>
                <path data-name="패스 60077" d="M30.515 86.13H4.8a4.35 4.35 0 0 1-3.177-1.266A6.793 6.793 0 0 1 0 80.382a1.22 1.22 0 0 1 1.22-1.2h25.069a1.219 1.219 0 0 1 1.216 1.307 3.686 3.686 0 0 0 .786 2.429 2.88 2.88 0 0 0 2.216.777h.007a1.22 1.22 0 0 1 0 2.44M2.6 81.617a3.32 3.32 0 0 0 .768 1.539 1.917 1.917 0 0 0 1.436.535H25.85a5.953 5.953 0 0 1-.709-2.074z" transform="translate(0 -51.58)" style="fill:#3e3e3e"/>
                <path data-name="패스 60078" d="M76.634 37.281A5.124 5.124 0 0 1 72.5 35.62a5.6 5.6 0 0 1-1.051-4.282 1.22 1.22 0 0 1 2.4.413 3.242 3.242 0 0 0 .522 2.308 2.848 2.848 0 0 0 2.263.782 2.641 2.641 0 0 0 1.924-.6 3.647 3.647 0 0 0 .631-2.515V5.412a1.22 1.22 0 0 1 2.44 0v26.3a5.751 5.751 0 0 1-1.338 4.254 4.938 4.938 0 0 1-3.657 1.318" transform="translate(-46.497 -2.731)" style="fill:#3e3e3e"/>
                <path data-name="패스 60079" d="M48.6 22.763H34.7a1.22 1.22 0 0 1 0-2.44h13.9a1.22 1.22 0 0 1 0 2.44" transform="translate(-21.808 -13.239)" style="fill:#3e3e3e"/>
                <path data-name="패스 60080" d="M48.6 43.148H34.7a1.22 1.22 0 1 1 0-2.44h13.9a1.22 1.22 0 1 1 0 2.44" transform="translate(-21.808 -26.519)" style="fill:#3e3e3e"/>
                <path data-name="패스 60081" d="M48.6 63.533H34.7a1.22 1.22 0 1 1 0-2.44h13.9a1.22 1.22 0 0 1 0 2.44" transform="translate(-21.808 -39.799)" style="fill:#3e3e3e"/>
            </g>
        </g>
        <path data-name="사각형 24447" style="fill:none" d="M0 0h44v44H0z"/>
    </g>
</svg>
