<svg xmlns="http://www.w3.org/2000/svg" width="300" height="26" viewBox="0 0 300 26">
  <g id="그룹_23514" data-name="그룹 23514" transform="translate(-107.178 -93.888)">
    <g id="그룹_23517" data-name="그룹 23517" transform="translate(107.178 94.587)">
      <g id="그룹_23516" data-name="그룹 23516" transform="translate(0 0)">
        <g id="그룹_23514-2" data-name="그룹 23514" transform="translate(36.718)">
          <path id="패스_28157" data-name="패스 28157" d="M228.964,95.71h-4.45v9.155H206.322V95.71h-4.449a1.886,1.886,0,0,0-1.915,1.855v19.891a1.884,1.884,0,0,0,1.915,1.854h4.449v-9.85h18.192v9.85h4.45a1.885,1.885,0,0,0,1.914-1.854V97.565A1.885,1.885,0,0,0,228.964,95.71Z" transform="translate(-199.959 -95.71)" fill="#0c419a"/>
        </g>
        <g id="그룹_23515" data-name="그룹 23515">
          <path id="패스_28158" data-name="패스 28158" d="M136.848,95.71H132.4V113.1L118.386,99.349c-2.225-2.112-3.756-3.639-7.31-3.639h-3.9v21.746a1.885,1.885,0,0,0,1.917,1.854h4.45V101.83l13.888,13.659c2.27,2.161,4.295,3.822,7.592,3.822h3.738V97.565A1.887,1.887,0,0,0,136.848,95.71Z" transform="translate(-107.178 -95.71)" fill="#0c419a"/>
        </g>
      </g>
    </g>
    <g id="그룹_23518" data-name="그룹 23518" transform="translate(180.467 93.888)">
      <path id="패스_28159" data-name="패스 28159" d="M321.627,140.474H310.053v-5.094a1.208,1.208,0,0,0-1.2-1.158h-3.523v6.251H292.366l1.45,2.187h27.811c.564,0,.564-.711.564-1.094S322.191,140.474,321.627,140.474Z" transform="translate(-292.366 -118.756)" fill="#0c419a"/>
      <path id="패스_28160" data-name="패스 28160" d="M311.191,97.692v-1.8a1.208,1.208,0,0,0-1.2-1.158h-3.723v2.963c0,5.566-4.764,9.672-11.856,10.217l-.331.026,1.341,2.007.116-.007c4.446-.282,10.5-2.045,13.19-6.079,2.686,4.034,8.743,5.8,13.189,6.079l.116.007,1.342-2.007-.331-.026C315.956,107.363,311.191,103.258,311.191,97.692Z" transform="translate(-293.405 -94.407)" fill="#0c419a"/>
      <path id="패스_28161" data-name="패스 28161" d="M407.769,99.044h-3.1v-4a1.208,1.208,0,0,0-1.2-1.158h-3.523v14.774a25.707,25.707,0,0,0-7.95-1.08c-7.933,0-12.669,2.3-12.669,6.153s4.736,6.153,12.669,6.153,12.668-2.3,12.668-6.153v-12.5h3.1c.564,0,.564-.739.564-1.094S408.333,99.044,407.769,99.044Zm-15.7,18.689c-4.915,0-7.849-1.494-7.849-4s2.935-4,7.849-4,7.851,1.494,7.851,4S396.988,117.733,392.072,117.733Z" transform="translate(-344.918 -93.888)" fill="#0c419a"/>
      <path id="패스_28162" data-name="패스 28162" d="M380.689,102.233c1.972,2.452,6.107,4.171,9.407,4.8l.116.022,1.476-1.747-.314-.068c-4.1-.884-8.259-3.759-8.259-7.546v-1.8a1.207,1.207,0,0,0-1.195-1.158h-3.657v2.963c0,3.786-4.155,6.662-8.259,7.546l-.314.068,1.476,1.747.116-.022C374.585,106.4,378.719,104.685,380.689,102.233Z" transform="translate(-339.089 -94.407)" fill="#0c419a"/>
      <path id="패스_28163" data-name="패스 28163" d="M482.977,107.171H480.8a28.552,28.552,0,0,0,.746-6.06V97.566a1.207,1.207,0,0,0-1.194-1.158H455.378l1.452,2.188h20v3.159a23.136,23.136,0,0,1-.621,5.416h-6.465v-4.127a1.208,1.208,0,0,0-1.2-1.158h-3.524v5.285h-11.3l1.451,2.187h4.428a5.7,5.7,0,0,0-3.387,5.125c0,4.422,4.678,6.958,12.835,6.958s12.835-2.536,12.835-6.958a5.7,5.7,0,0,0-3.387-5.125h4.487c.563,0,.563-.712.563-1.094S483.54,107.171,482.977,107.171Zm-5.985,7.312c0,2.987-2.972,4.771-7.949,4.771s-7.95-1.784-7.95-4.771,2.972-4.77,7.95-4.77S476.992,111.5,476.992,114.483Z" transform="translate(-389.861 -95.442)" fill="#0c419a"/>
      <path id="패스_28164" data-name="패스 28164" d="M556.812,100.685c0-5.017-5.248-6.8-9.743-6.8s-9.742,1.78-9.742,6.8,5.248,6.8,9.742,6.8S556.812,105.7,556.812,100.685Zm-4.886,0c0,3.375-2.509,4.577-4.857,4.577s-4.857-1.2-4.857-4.577,2.509-4.577,4.857-4.577S551.926,97.31,551.926,100.685Z" transform="translate(-440.383 -93.888)" fill="#0c419a"/>
      <path id="패스_28165" data-name="패스 28165" d="M567.018,93.888H563.5v22.685H548.727a.808.808,0,0,1-.8-.775v-5.285a1.208,1.208,0,0,0-1.2-1.158h-3.524v7.28a2.162,2.162,0,0,0,2.194,2.125h22.812V95.046A1.209,1.209,0,0,0,567.018,93.888Z" transform="translate(-443.936 -93.888)" fill="#0c419a"/>
      <path id="패스_28166" data-name="패스 28166" d="M651.63,119.745h-3.1V104.373a1.208,1.208,0,0,0-1.194-1.158h-3.525v16.53h-5.258V104.373a1.208,1.208,0,0,0-1.195-1.158h-3.523v16.53h-4.487l1.451,2.188H651.63c.563,0,.563-.739.563-1.094S652.193,119.745,651.63,119.745Z" transform="translate(-495.988 -99.638)" fill="#fbb03b"/>
      <path id="패스_28167" data-name="패스 28167" d="M651.559,98.6c.564,0,.564-.739.564-1.094s0-1.094-.564-1.094H630.611l1.452,2.188Z" transform="translate(-496.749 -95.442)" fill="#fbb03b"/>
      <path id="패스_28168" data-name="패스 28168" d="M698.083,101.3h-3.094V95.046a1.208,1.208,0,0,0-1.2-1.158H690.27v24.873h4.719V103.486h3.094c.564,0,.564-.738.564-1.093S698.647,101.3,698.083,101.3Z" transform="translate(-532.798 -93.888)" fill="#fbb03b"/>
      <path id="패스_28169" data-name="패스 28169" d="M721.039,112.581h23.246c.562,0,.562-.711.562-1.094s0-1.094-.562-1.094h-19.92a.808.808,0,0,1-.8-.775v-4.255h20.221c.564,0,.564-.739.564-1.094s0-1.094-.564-1.094H723.564V98.6h20.387c.564,0,.564-.712.564-1.094s0-1.094-.564-1.094H718.845v14.048A2.162,2.162,0,0,0,721.039,112.581Z" transform="translate(-550.064 -95.442)" fill="#fbb03b"/>
      <path id="패스_28170" data-name="패스 28170" d="M741.81,150.525H712.548L714,152.712h27.81c.563,0,.563-.739.563-1.094S742.373,150.525,741.81,150.525Z" transform="translate(-546.259 -128.807)" fill="#fbb03b"/>
      <path id="패스_28171" data-name="패스 28171" d="M824.328,93.888H820.8v8.055h-9.477l1.452,2.188H820.8v9.864H805.039a.809.809,0,0,1-.8-.775V95.69a1.208,1.208,0,0,0-1.2-1.158h-3.523v19.526a2.162,2.162,0,0,0,2.193,2.125H820.8v2.578h4.719V95.046A1.208,1.208,0,0,0,824.328,93.888Z" transform="translate(-598.812 -93.888)" fill="#fbb03b"/>
    </g>
  </g>
</svg>
