<svg xmlns="http://www.w3.org/2000/svg" width="360" height="360" viewBox="0 0 360 360">
  <g id="_1_semo" data-name="1_semo" transform="translate(-230 -609)">
    <rect id="사각형_25150" data-name="사각형 25150" width="360" height="360" transform="translate(230 609)" fill="none"/>
    <g id="그룹_86926" data-name="그룹 86926" transform="translate(278.537 626)">
      <path id="패스_849" data-name="패스 849" d="M786.592,1250.095l-64.057,32.172-64.012-32.172,64.012,121.754Z" transform="translate(-591.072 -1250.095)" fill="#ffa600"/>
      <path id="패스_850" data-name="패스 850" d="M870.254,1335.271l-.975-.843,45.715-19.2v-64.235l-79.407,33.836s-43,81.455-43.974,83.315a66.747,66.747,0,1,1-15.643,0c-.962-1.861-43.939-83.315-43.939-83.315l-79.254-33.836v64.235l45.616,19.2-.964.843a131.836,131.836,0,0,0-45.067,99.154c0,72.511,58.958,131.514,131.457,131.514s131.469-59,131.469-131.514A131.854,131.854,0,0,0,870.254,1335.271Z" transform="translate(-652.361 -1241.169)" fill="#ffa600"/>
    </g>
  </g>
</svg>
