<svg xmlns="http://www.w3.org/2000/svg" width="246" height="360" viewBox="0 0 246 360">
    <defs>
        <clipPath id="34e8vrfdma">
            <path data-name="사각형 22856" transform="translate(478 511)" style="fill:none" d="M0 0h246v360H0z"/>
        </clipPath>
        <clipPath id="zx3liphs5b">
            <path data-name="사각형 22728" style="fill:#e8e8e8" d="M0 0h340v340H0z"/>
        </clipPath>
    </defs>
    <g data-name="마스크 그룹 30481" transform="translate(-478 -511)" style="clip-path:url(#34e8vrfdma)">
        <g data-name="그룹 77947">
            <g data-name="그룹 77948" style="clip-path:url(#zx3liphs5b)" transform="translate(492 521)">
                <path data-name="패스 57552" d="M170.007 2.5A167.507 167.507 0 1 1 2.5 170.007 167.507 167.507 0 0 1 170.007 2.5m0 192.833 15.086-17.667 61.54-72.057a11.618 11.618 0 0 0-17.587-15.185l-.08.094-61.531 72.065-36.73-31.37a11.616 11.616 0 1 0-15.162 17.6l.077.066 36.723 31.363zm-118.6-16.765h33.015v-17.116H51.409zm204.189 0h33.013v-17.116h-33.016zm-94.149-94.152h17.116V51.4h-17.116zm0 204.2h17.116V255.6h-17.116zm8.561-254.327a135.719 135.719 0 1 0 135.725 135.718A135.719 135.719 0 0 0 170.007 34.289" transform="translate(-.007 -.007)" style="fill-rule:evenodd;fill:#e8e8e8"/>
                <path data-name="패스 57553" d="M170 340C76.262 340 0 263.738 0 170S76.262 0 170 0s170 76.262 170 170-76.262 170-170 170m0-335.015C79.011 4.985 4.985 79.011 4.985 170S79.011 335.015 170 335.015 335.015 260.989 335.015 170 260.989 4.985 170 4.985m.014 303.226c-76.21 0-138.214-61.995-138.218-138.2S93.79 31.792 170 31.789 308.215 93.788 308.218 170s-62 138.208-138.2 138.212M170 36.774A133.225 133.225 0 0 0 36.781 170.007c0 73.457 59.771 133.215 133.226 133.219h.007c73.457 0 133.219-59.768 133.219-133.226S243.456 36.78 170 36.774M181.048 291.1h-22.1v-38h22.1zm-17.116-4.985h12.13v-28.027h-12.13zm6.344-87.275-56.368-48.145a14.109 14.109 0 0 1 18.417-21.379l34.825 29.744 60.023-70.3a14.11 14.11 0 0 1 21.338 18.469zm-47.146-67.958q-.344 0-.691.025a9.124 9.124 0 0 0-5.277 16.012l52.562 44.891 75.006-87.828a9.125 9.125 0 1 0-13.805-11.937l-1.966-1.536 1.9 1.618-63.159 73.962-38.622-32.989a9.063 9.063 0 0 0-5.949-2.218M291.1 181.053h-38l-.008-22.1H291.1zm-33.014-4.985h28.029v-12.13h-28.036zm-171.179 4.985h-38v-22.1h38zm-33.013-4.985h28.028v-12.13H53.894zM181.048 86.9h-22.1v-38h22.1zm-17.116-4.985h12.13V53.889h-12.13z" style="fill:#e8e8e8"/>
            </g>
        </g>
    </g>
</svg>
