<svg xmlns="http://www.w3.org/2000/svg" width="64.465" height="76" viewBox="0 0 64.465 76">
  <g id="그룹_55961" data-name="그룹 55961" transform="translate(-4140.833 -672.127)">
    <g id="그룹_55946" data-name="그룹 55946" transform="translate(4145.021 715.769)">
      <path id="패스_44122" data-name="패스 44122" d="M4170.152,931.415a2.479,2.479,0,0,1,2.034-1.269,7.353,7.353,0,0,1,3.367.095,1.049,1.049,0,0,1,.477-1.5,2.017,2.017,0,0,1,1.577.32,5.37,5.37,0,0,0,.747.341l10.553-2.889,4.2,4.752a15.434,15.434,0,0,1-14.742,4.218l-.019.136a9.962,9.962,0,0,1-5.86-.6,4.208,4.208,0,0,1-1.913-1.224A2.445,2.445,0,0,1,4170.152,931.415Z" transform="translate(-4169.079 -925.595)" fill="#fff"/>
      <path id="패스_44123" data-name="패스 44123" d="M4166.611,927.554a3.055,3.055,0,0,1,.168-.3c.057-.095-.127.138-.012.02.041-.043.081-.086.124-.127l.044-.039q.091-.075,0,0c-.062.047-.062.048,0,0l.049-.032c.092-.059.189-.1.285-.156s-.187.069-.029.011c.056-.021.111-.041.169-.06.093-.031.188-.057.285-.081.238-.059.481-.095.724-.132.182-.028-.094.01.017,0l.177-.021q.183-.02.366-.031a5.98,5.98,0,0,1,.649-.005c.114.005.227.014.339.026a.719.719,0,0,1,.159.018c-.2-.074-.061-.008.019,0,.278.044.553.1.828.157a.945.945,0,0,0,1.039-.422.972.972,0,0,0-.145-1.114l.084.105q-.069-.127.028.086a.931.931,0,0,0-.026-.1l.019.145a.79.79,0,0,1,0-.1c-.012-.174-.057.164-.011.063a.87.87,0,0,0,.033-.128c.041-.172-.09.132-.021.046a.778.778,0,0,0,.065-.116c.08-.149-.15.149,0,0,.1-.094.062,0-.052.029.021,0,.186-.067.018-.024-.2.051.075-.015.077-.015l-.1.011a1.194,1.194,0,0,1,.146,0c.06,0,.146-.035-.026-.009a.681.681,0,0,1,.219.054c.049.015.1.033.145.049.1.038.1.037,0,0,.047.021.095.043.141.066.5.244,1.087.673,1.669.537.047-.011.093-.026.14-.038l2.063-.565,6.656-1.822,1.689-.462-.9-.236L4187.6,927l.521.59v-1.3a15.5,15.5,0,0,1-1.194,1.128c-.108.09-.216.179-.325.267-.035.028-.072.061-.109.086.19-.131,0,0-.034.025q-.33.249-.674.478a14.325,14.325,0,0,1-1.341.794q-.327.17-.662.324c-.1.046-.2.091-.3.135-.211.092.187-.074-.026.01l-.216.086a15.117,15.117,0,0,1-2.894.806q-.163.028-.326.053a1.519,1.519,0,0,1-.2.029c.252,0,.04-.005-.017,0q-.395.049-.79.078c-.5.037-.995.051-1.492.044q-.851-.012-1.7-.107l-.2-.023c-.117-.014-.17-.015-.021,0-.155-.013-.312-.045-.465-.07-.289-.047-.576-.1-.861-.162a.929.929,0,0,0-1.132.642l-.018.136.642-.642c-.186.033-.373.069-.56.089.165-.018.011,0-.063.006q-.149.017-.3.03a9.646,9.646,0,0,1-1,.036c-.161,0-.322-.01-.482-.022a3.942,3.942,0,0,0-.478-.049c.026,0,.21.032.041,0l-.1-.017c-.081-.013-.16-.027-.24-.043-.162-.031-.324-.067-.484-.105-.34-.083-.676-.181-1.008-.29q-.269-.088-.535-.184c-.062-.023-.462-.124-.476-.181,0,0,.206.092.03.011l-.094-.043c-.073-.034-.145-.07-.217-.107a4.288,4.288,0,0,1-.416-.249c-.024-.017-.1-.06-.114-.081,0,0,.128.109.048.036-.06-.056-.124-.107-.184-.165s-.1-.1-.148-.155a.774.774,0,0,1-.094-.111c.027.049.09.131.029.031-.045-.075-.094-.147-.136-.224-.021-.039-.041-.079-.06-.119-.069-.136.023.026.013.035s-.127-.508-.145-.52c0,0,.016.183.009.077,0-.056-.009-.111-.011-.168,0-.078.006-.156.005-.234,0-.129-.039.172-.008.047.01-.043.017-.086.027-.129a1.914,1.914,0,0,1,.1-.281.922.922,0,0,0-.643-1.131.948.948,0,0,0-1.131.642,3.224,3.224,0,0,0,.171,2.529,3.891,3.891,0,0,0,1.734,1.741,11.713,11.713,0,0,0,2.31.874,10.916,10.916,0,0,0,2.314.4,11.919,11.919,0,0,0,2.794-.212.883.883,0,0,0,.642-.642l.018-.136-1.131.642a17.055,17.055,0,0,0,12.642-2,16.014,16.014,0,0,0,3-2.458.942.942,0,0,0,0-1.3l-3.677-4.162-.521-.59a.913.913,0,0,0-.9-.236l-3.574.978-5.672,1.552-1.308.358h.489c-.02-.007-.224-.088-.118-.042s-.119-.058-.115-.056c-.11-.054-.219-.111-.328-.167a6,6,0,0,0-.821-.36,2.158,2.158,0,0,0-1.8.134,2.077,2.077,0,0,0-.883,1.228,1.8,1.8,0,0,0,.371,1.639l.894-1.537a11.574,11.574,0,0,0-1.833-.272,8.98,8.98,0,0,0-1.777.138,3.476,3.476,0,0,0-2.829,1.731.942.942,0,0,0,.33,1.258A.931.931,0,0,0,4166.611,927.554Z" transform="translate(-4164.743 -921.27)" fill="#362322"/>
    </g>
    <ellipse id="타원_1326" data-name="타원 1326" cx="12.7" cy="2.452" rx="12.7" ry="2.452" transform="translate(4164.962 743.223)" fill="#d6d6d2"/>
    <g id="그룹_55947" data-name="그룹 55947" transform="translate(4162.287 705.899)">
      <path id="패스_44124" data-name="패스 44124" d="M4292.907,877.461l-19.792-7.229c-3.593,4.915-6.729,18.04-2.517,29.474,1.512,4.106,4.549,10.49,8.178,9.09,4.686-1.807,1.729-6,1.683-7.782l1.266.266-.363.542a13.935,13.935,0,0,0,1.787,4.582,4.2,4.2,0,0,0,7.671-.548,13.941,13.941,0,0,0,1.08-4.509l2.311-18.644Z" transform="translate(-4267.657 -869.302)" fill="#fff"/>
      <path id="패스_44125" data-name="패스 44125" d="M4288.8,872.194l-1.97-.719-4.729-1.727-5.721-2.09-4.942-1.805-1.618-.591c-.257-.094-.514-.2-.776-.283l-.034-.013a.939.939,0,0,0-1.039.423,18.6,18.6,0,0,0-2.106,4,32.5,32.5,0,0,0-1.594,5.229,40.022,40.022,0,0,0-.711,13.18,34.99,34.99,0,0,0,3.823,12.383,13.124,13.124,0,0,0,3.408,4.4,4.079,4.079,0,0,0,4.758.345,4.586,4.586,0,0,0,1.939-1.8,4.348,4.348,0,0,0,.5-2.267,19.054,19.054,0,0,0-.882-3.781c-.027-.109-.051-.219-.071-.33-.043-.236.018.239.006.052,0-.051-.009-.1-.011-.154l-1.164.887,1.267.267-.549-1.351-.312.463c-.305.455-.1.971.028,1.451a19.309,19.309,0,0,0,.875,2.61,6.977,6.977,0,0,0,3.433,3.759,4.6,4.6,0,0,0,5.055-.734,7.737,7.737,0,0,0,2.438-4.542c.2-.961.3-1.938.424-2.911l.371-2.992.741-5.984.748-6.027.365-2.948a2.237,2.237,0,0,0-.1-.893l-1.175-4.731-.03-.123a.92.92,0,0,0-1.774.489l1.006,4.049.23.924c.018.076.039.152.057.229,0,.013.007.026.01.039s-.043-.157-.043-.157a1.369,1.369,0,0,0-.021.174l-.054.433-.687,5.55-1.375,11.1c-.059.473-.117.946-.176,1.418-.025.2-.047.393-.076.589.032-.217-.015.107-.021.149-.017.118-.035.235-.053.353a11.95,11.95,0,0,1-.614,2.443c-.019.049-.039.1-.058.146-.052.13.062-.128,0,0-.041.082-.076.167-.117.25q-.122.248-.268.484c-.086.14-.179.274-.274.407s.008-.024.024-.03a.6.6,0,0,0-.082.1c-.063.075-.128.149-.194.221q-.166.179-.348.343a.865.865,0,0,1-.2.168c.132-.051.1-.073.033-.026l-.131.093a4.36,4.36,0,0,1-.438.264c-.065.034-.133.066-.2.1-.151.073.025-.019.044-.018a.882.882,0,0,0-.179.066,3.568,3.568,0,0,1-.462.122l-.126.022c-.1.019.083-.013.085-.012a1.266,1.266,0,0,0-.336.019c-.077,0-.155,0-.233-.006l-.133-.01c-.038,0-.174-.036-.042,0s-.1-.022-.139-.03q-.163-.035-.322-.083c-.075-.023-.148-.048-.221-.075l-.125-.048c-.12-.045.15.072.035.013-.17-.088-.342-.17-.507-.27-.077-.047-.153-.1-.228-.148-.029-.02-.23-.162-.128-.089s-.017-.014-.042-.034l-.1-.088c-.078-.067-.155-.136-.229-.207-.125-.119-.243-.243-.356-.372-.06-.069-.117-.14-.175-.21-.083-.1.092.13.019.024-.032-.046-.067-.091-.1-.138a7.7,7.7,0,0,1-.611-1.045c-.045-.091-.087-.182-.129-.274-.021-.046-.041-.092-.061-.138.014.03.07.171,0,.01-.076-.188-.149-.377-.216-.568-.135-.384-.255-.774-.366-1.166s-.213-.786-.315-1.181l-.093.709.364-.542a.925.925,0,0,0-.549-1.351l-1.267-.267a.931.931,0,0,0-1.164.887,6.208,6.208,0,0,0,.345,1.627c.18.58.369,1.158.5,1.752.033.151.06.3.084.455.039.231-.022-.231,0,0,.009.09.019.18.024.27q.014.217.008.435c0,.082-.007.164-.016.246,0,.027-.006.055-.008.082-.012.157.049-.268,0-.041a3.766,3.766,0,0,1-.109.439,1.254,1.254,0,0,0-.07.2c.022-.194.08-.172.025-.066-.025.051-.049.1-.077.152s-.072.126-.11.186c-.026.039-.19.266-.084.125s.006-.01-.015.014-.062.071-.093.105c-.066.071-.136.139-.207.2-.038.034-.076.067-.115.1-.07.059-.175.082.023-.014a2.246,2.246,0,0,0-.223.156,5.3,5.3,0,0,1-.623.349c-.059.028-.118.054-.177.081s-.136.084.035-.014a1.576,1.576,0,0,1-.3.112c-.07.023-.142.043-.214.06-.042.01-.085.019-.128.027s-.237.039-.047.01-.081,0-.13,0c-.07,0-.14,0-.209,0-.1,0-.365-.077-.044,0-.081-.02-.165-.028-.246-.048a4.415,4.415,0,0,1-.443-.142c-.161-.057.213.1.061.025-.025-.013-.053-.025-.079-.037-.093-.045-.185-.094-.274-.146a4.838,4.838,0,0,1-.423-.279c-.026-.019-.05-.039-.076-.057.231.157.087.068.035.025-.076-.062-.15-.126-.224-.191a8.4,8.4,0,0,1-.828-.86q-.088-.1-.174-.211a1.625,1.625,0,0,0-.1-.13c.175.185.046.06.008.008q-.207-.274-.4-.559c-.245-.36-.473-.729-.691-1.105-.458-.79-.866-1.608-1.244-2.439q-.135-.3-.266-.6c-.024-.054-.046-.109-.07-.163-.083-.193.082.2,0,0-.044-.107-.089-.214-.132-.322q-.241-.591-.465-1.189a32.521,32.521,0,0,1-1.683-6.542q-.031-.2-.06-.409c-.007-.053-.035-.226,0-.016-.012-.074-.02-.149-.029-.223q-.055-.445-.1-.89-.081-.811-.126-1.626-.092-1.654-.043-3.311.047-1.6.222-3.2.041-.375.089-.75c.006-.044.015-.091.018-.135-.014.251,0,.027,0-.025.018-.134.038-.268.058-.4q.112-.757.254-1.508a34.872,34.872,0,0,1,1.419-5.3q.21-.589.447-1.168l.061-.146c.058-.14-.027.065-.032.075.043-.094.081-.19.123-.284q.122-.276.25-.549a17.557,17.557,0,0,1,.982-1.817c.158-.252.323-.5.5-.738l-1.039.423,1.969.719,4.729,1.728,5.721,2.09,4.943,1.805c.8.291,1.588.616,2.394.875l.035.012a.924.924,0,0,0,1.131-.642A.944.944,0,0,0,4288.8,872.194Z" transform="translate(-4263.31 -864.921)" fill="#362322"/>
    </g>
    <path id="패스_44126" data-name="패스 44126" d="M4306.978,966.8l-2.826-4.862a1.705,1.705,0,0,0-2.729-.168l-3.494,4.12c-.908,1.264-.582,2.958,1.29,3.113l6.262.523A1.817,1.817,0,0,0,4306.978,966.8Zm-3.56.254-2.212-.163c-.66-.049-.771-.64-.445-1.085l1.247-1.452a.605.605,0,0,1,.964.05l.983,1.692A.645.645,0,0,1,4303.418,967.054Z" transform="translate(-129.176 -238.409)" fill="#1bd9ac"/>
    <g id="그룹_55949" data-name="그룹 55949" transform="translate(4185.104 672.128)">
      <g id="그룹_55948" data-name="그룹 55948" transform="translate(0)">
        <path id="패스_44127" data-name="패스 44127" d="M4399.138,688.316c-1.018-.416-1.17-1.792-1.012-2.881a12.3,12.3,0,0,1,4.537-7.824,3.3,3.3,0,0,1,2.728-.9,2.472,2.472,0,0,1,1.647,2.318,5.677,5.677,0,0,1-.845,2.886,17.4,17.4,0,0,1-4.315,5.226c-.712.581-1.7,1.122-2.5.66" transform="translate(-4397.284 -675.857)" fill="#1bd9ac"/>
        <path id="패스_44128" data-name="패스 44128" d="M4395.824,683.906c-.084-.036-.16-.083-.241-.126-.153-.082.114.118-.007,0-.023-.025-.051-.047-.075-.072l-.035-.038c-.055-.064-.047-.051.024.039-.027-.011-.059-.083-.075-.108a.786.786,0,0,1-.137-.259l.038.088c-.012-.034-.025-.069-.037-.1s-.022-.071-.033-.106c-.026-.091-.046-.183-.063-.276-.013-.065-.077-.195-.006-.019a.521.521,0,0,1-.012-.116c-.011-.117-.015-.234-.016-.351,0-.194.015-.386.032-.58s-.033.2,0-.027c.007-.046.014-.091.021-.137q.034-.2.074-.408a12.081,12.081,0,0,1,.371-1.4q.108-.328.235-.65c.025-.064.052-.128.078-.192-.011.029-.06.137,0,0s.112-.253.171-.378a12.365,12.365,0,0,1,.7-1.273q.182-.293.382-.576c.067-.094.134-.187.2-.28.012-.015.152-.2.045-.06.042-.054.085-.108.129-.162a12.22,12.22,0,0,1,.979-1.07q.248-.241.51-.466c.087-.075.176-.149.265-.222.054-.044.107-.087.163-.129-.106.081.06-.043.081-.057a5.5,5.5,0,0,1,.646-.4c.056-.029.112-.058.17-.084.032-.015.183-.073.053-.025a3.165,3.165,0,0,1,.423-.13c.047-.011.1-.02.143-.028-.177.029.054,0,.078,0,.061,0,.12,0,.181,0,.042,0,.194.03.043,0a2.815,2.815,0,0,1,.316.087c-.165-.053-.043-.019,0,0a1.806,1.806,0,0,1,.18.1c.033.022.065.045.1.068-.16-.116,0,0,.023.029.073.069.136.146.205.219-.107-.112-.038-.053-.013-.015s.069.1.1.153a3.1,3.1,0,0,1,.169.327c-.08-.178.032.11.047.16.029.1.049.2.071.3.031.149,0-.007,0-.027a.813.813,0,0,1,.015.183,4.482,4.482,0,0,1-.009.465c-.01.157,0,.057,0,.021-.01.077-.025.153-.04.229q-.039.19-.092.377c-.036.125-.076.249-.12.372-.018.049-.036.1-.055.147s-.039.1-.058.146q.041-.1-.015.029a16.366,16.366,0,0,1-1.613,2.709c-.029.04-.058.08-.088.119l-.088.119c-.051.066-.06.078-.029.038.064-.085-.084.107-.075.1l-.139.174q-.281.346-.578.676a17.332,17.332,0,0,1-1.229,1.235q-.315.287-.645.558c-.011.009-.2.158-.062.053-.057.043-.115.085-.174.126-.118.082-.24.16-.365.23-.053.029-.105.057-.159.084-.032.016-.063.032-.1.046.081-.032.078-.031-.006,0-.13.046-.261.077-.394.11.148-.037.06,0,.014,0s-.315-.023-.114.013c-.042-.007-.085-.016-.126-.028a1.2,1.2,0,0,1-.124-.041q.13.054.006-.008a.788.788,0,1,0-.8,1.361c1.265.693,2.581-.059,3.568-.877a17.35,17.35,0,0,0,2.44-2.479,18.173,18.173,0,0,0,1.957-2.951,5.768,5.768,0,0,0,.8-3.781,3.171,3.171,0,0,0-2.087-2.427c-1.345-.4-2.649.359-3.662,1.171a13.075,13.075,0,0,0-3.894,5.357,10.593,10.593,0,0,0-.816,3.511,3.013,3.013,0,0,0,1.453,2.989.81.81,0,0,0,1.079-.283.8.8,0,0,0-.283-1.078Z" transform="translate(-4393.573 -672.128)" fill="#362322"/>
      </g>
      <path id="패스_44129" data-name="패스 44129" d="M4403.917,727.789q-.036-.138-.064-.278c-.008-.044-.017-.089-.024-.133l-.009-.059c.008.06,0-.017,0-.023a2.211,2.211,0,0,1-.011-.234q0-.058.006-.117c0-.008.009-.067,0-.027s.006-.028.007-.035c.008-.036.017-.072.027-.107,0-.016.011-.031.016-.047s.014-.031,0,0c.016-.033.032-.065.051-.1.008-.014.017-.028.027-.042s.048-.056.008-.012c.023-.026.045-.053.07-.077l.047-.044s.063-.049.018-.015a1.523,1.523,0,0,1,.234-.14.263.263,0,1,0-.265-.454,1.313,1.313,0,0,0-.734.876,2.621,2.621,0,0,0,.089,1.207.263.263,0,1,0,.507-.14Z" transform="translate(-4401.582 -716.41)" fill="#362322"/>
    </g>
    <g id="그룹_55951" data-name="그룹 55951" transform="translate(4188.5 675.89)">
      <g id="그룹_55950" data-name="그룹 55950" transform="translate(0 0)">
        <path id="패스_44130" data-name="패스 44130" d="M4417.475,705.2a10.757,10.757,0,0,1,7.108-6.932c1.29-.376,3.016-.315,3.577.905a2.77,2.77,0,0,1-.159,2.177,8.563,8.563,0,0,1-10.109,4.736" transform="translate(-4416.684 -697.281)" fill="#1bd9ac"/>
        <path id="패스_44131" data-name="패스 44131" d="M4414.509,701.735c.073-.225.152-.448.24-.668.011-.027.1-.226.019-.05l.052-.118c.052-.118.107-.235.164-.351a10.536,10.536,0,0,1,.709-1.228c.072-.107.146-.213.221-.318l.076-.1c.017-.021.148-.193.033-.046q.219-.28.456-.545a10.916,10.916,0,0,1,1.01-1q.146-.127.3-.249l.1-.08c.169-.134-.13.093.045-.034.191-.139.383-.278.581-.407a10.566,10.566,0,0,1,1.237-.693c.107-.051.215-.1.323-.147s-.175.069.019-.008l.18-.071c.221-.085.445-.162.67-.232a5.719,5.719,0,0,1,.618-.155l.113-.02c.061-.01.2-.071.02,0a1.29,1.29,0,0,1,.347-.029,4.782,4.782,0,0,1,.629.017c.156.013-.035-.009-.042-.006.029-.012.132.023.163.03a2.73,2.73,0,0,1,.314.085l.051.018q.121.046-.041-.021c.028,0,.091.042.118.056a1.286,1.286,0,0,1,.243.146c0,.008-.127-.112-.039-.029.038.035.077.068.113.1.011.012.107.1.1.115.008-.028-.1-.144,0,.011.028.046.053.094.079.141.077.14-.008-.08.012.034a1.717,1.717,0,0,0,.049.177c.062.206.005-.134.013.081,0,.124,0,.246,0,.37-.014.23.04-.138-.014.088-.018.074-.031.149-.05.223-.031.123-.069.245-.111.365-.025.071-.054.142-.081.213-.086.23.067-.144-.019.045s-.184.393-.29.583-.217.374-.337.554c-.055.082-.111.162-.168.242-.035.048-.07.095-.105.142.078-.1.029-.038-.022.026a8.268,8.268,0,0,1-.893.94c-.073.066-.148.131-.223.194-.045.038-.091.076-.137.113-.027.022-.187.143-.026.023-.174.131-.351.257-.533.375a8.94,8.94,0,0,1-1.142.63l-.163.073c-.151.068.137-.053-.031.013-.11.043-.22.087-.332.127q-.363.131-.735.23-.344.091-.694.154l-.174.03c-.048.008-.232.041-.025.006-.115.02-.235.028-.352.038a8,8,0,0,1-1.471-.005l-.146-.016c-.213-.025.111.021-.053-.007-.117-.02-.233-.038-.349-.061a7.54,7.54,0,0,1-.746-.191.8.8,0,0,0-.97.551.8.8,0,0,0,.551.97,9.417,9.417,0,0,0,10.43-4,5.029,5.029,0,0,0,.938-3.467,2.662,2.662,0,0,0-2.225-2.028,5.951,5.951,0,0,0-3.066.352,11.2,11.2,0,0,0-2.794,1.476,11.657,11.657,0,0,0-4.251,5.806.8.8,0,0,0,.55.97.806.806,0,0,0,.97-.551Z" transform="translate(-4412.958 -693.609)" fill="#362322"/>
      </g>
      <path id="패스_44132" data-name="패스 44132" d="M4422.854,731.4a4.356,4.356,0,0,1,2.924-2.079c.332-.065.191-.572-.14-.507a4.87,4.87,0,0,0-3.238,2.32.263.263,0,0,0,.454.265Z" transform="translate(-4420.715 -722.646)" fill="#362322"/>
    </g>
    <g id="그룹_55952" data-name="그룹 55952" transform="translate(4150.909 680.357)">
      <path id="패스_44133" data-name="패스 44133" d="M4251.414,735.286c5.158,7.592,7.087,18.1,3.095,24.43-1.9,3.009-4.6,5.612-12.4,5.734-6.634.1-18.245-2.048-28.693-6.348-5.286-2.175-9.135-6.387-9.057-10.924.179-10.4,11.216-21.465,23.867-22.88C4237.68,724.24,4246.336,727.811,4251.414,735.286Z" transform="translate(-4203.308 -724.063)" fill="#fff"/>
      <path id="패스_44134" data-name="패스 44134" d="M4245.555,730.86a30.973,30.973,0,0,1,2,3.4q.429.849.807,1.723c.019.044.127.292.019.04.031.073.061.146.091.219q.09.219.177.44.188.477.361.96a30.175,30.175,0,0,1,1.057,3.668q.2.931.346,1.874l.032.224c.038.26-.029-.242,0,.019.018.149.037.3.053.446q.053.48.087.961a21.47,21.47,0,0,1-.033,3.522q-.021.209-.045.417a.819.819,0,0,0-.025.207l.019-.142c-.007.046-.013.091-.019.137q-.064.441-.151.878a15.621,15.621,0,0,1-.395,1.562q-.117.378-.255.749c-.045.122-.093.244-.142.366-.034.083-.141.218.005-.011a1.909,1.909,0,0,0-.1.237,12.159,12.159,0,0,1-.757,1.418q-.278.445-.582.873c-.05.07-.1.14-.153.209s-.271.328-.018.028c-.123.144-.236.3-.358.439a10.578,10.578,0,0,1-.768.8c-.133.126-.271.247-.411.365-.059.05-.12.1-.181.148s-.21.133.065-.048c-.053.035-.1.077-.152.114a9.889,9.889,0,0,1-1.042.67q-.276.154-.561.292-.147.071-.3.138c-.051.023-.1.043-.153.067.312-.151.064-.027-.009,0a15.148,15.148,0,0,1-3.014.837q-.215.038-.432.072l-.221.033c-.058.008-.311.06-.022,0a10.131,10.131,0,0,1-1.027.111c-.7.061-1.4.095-2.1.107a45.065,45.065,0,0,1-6.279-.387l-.432-.054-.217-.028c-.256-.033.244.034-.013,0q-.482-.067-.964-.138-.92-.138-1.835-.3-2.017-.352-4.016-.8-4.21-.939-8.323-2.259-2.148-.69-4.259-1.487-1.048-.4-2.084-.821c-.036-.015-.314-.125-.061-.024-.076-.03-.15-.065-.225-.1q-.223-.1-.444-.2-.474-.223-.935-.471a18.421,18.421,0,0,1-1.618-.979c-.255-.173-.5-.354-.75-.539-.21-.157.175.142-.028-.022l-.178-.142c-.137-.11-.271-.223-.4-.338a14.672,14.672,0,0,1-1.307-1.284,3.648,3.648,0,0,1-.549-.655c.118.231.041.053-.006-.011s-.083-.112-.124-.169q-.122-.169-.238-.342a10.679,10.679,0,0,1-.831-1.476l-.082-.182c-.1-.216.089.228,0,.007-.047-.123-.1-.245-.14-.369q-.143-.4-.246-.812c-.063-.252-.11-.506-.154-.762-.04-.232.028.257,0,.023-.007-.064-.015-.128-.021-.193q-.02-.193-.029-.387a11.707,11.707,0,0,1,.047-1.576c.011-.125.023-.249.037-.373.009-.088.081-.515.017-.156.048-.269.081-.541.132-.81.094-.5.212-1,.35-1.491q.218-.782.5-1.543a6.506,6.506,0,0,0,.291-.735c-.062.266-.037.087,0,.007.026-.061.053-.122.08-.182q.094-.213.194-.425a23.554,23.554,0,0,1,1.631-2.905q.478-.73,1.006-1.425c.042-.056.083-.115.128-.168-.187.22-.026.035.009-.01.088-.111.176-.222.265-.332q.269-.331.548-.654a29.089,29.089,0,0,1,2.528-2.578q.655-.59,1.343-1.14c.115-.092.229-.187.348-.274-.228.165-.021.016.021-.016l.177-.134q.385-.289.78-.565a30.092,30.092,0,0,1,3.113-1.912q.828-.441,1.683-.829.205-.093.412-.183c.068-.03.137-.063.207-.089-.265.1-.022.01.027-.01q.452-.187.91-.358a27.214,27.214,0,0,1,3.54-1.056q.924-.208,1.859-.347l.225-.033c.261-.038-.241.029.021,0l.377-.045q.508-.057,1.018-.1a28.307,28.307,0,0,1,3.844-.038q.9.053,1.795.166c.065.008.31.012.016,0a2.063,2.063,0,0,1,.222.032q.22.032.439.069.474.078.944.174a24.582,24.582,0,0,1,3.437.962q.406.147.809.308l.2.081c.233.095-.217-.094.014.006.154.067.308.133.46.2q.817.37,1.6.8.752.414,1.471.884.36.235.71.483.176.124.349.252l.172.129c.048.037.32.221.072.054A12.434,12.434,0,0,1,4242.2,727q.656.6,1.265,1.248t1.153,1.33l.138.174c.034.042.2.233.018.021.1.112.18.238.268.357q.266.361.519.732a1.051,1.051,0,1,0,1.815-1.061,24.482,24.482,0,0,0-5.3-5.631,24.005,24.005,0,0,0-6.517-3.533,26.463,26.463,0,0,0-7.487-1.484,28.51,28.51,0,0,0-7.9.658,29.188,29.188,0,0,0-7.272,2.756,31.263,31.263,0,0,0-6.25,4.432,28.806,28.806,0,0,0-4.782,5.611,22.556,22.556,0,0,0-2.868,6.293,13.437,13.437,0,0,0-.33,6.782,12.523,12.523,0,0,0,3.987,6.108,18.635,18.635,0,0,0,3.353,2.341,33.521,33.521,0,0,0,4.142,1.8,91.139,91.139,0,0,0,8.682,2.812c2.732.739,5.5,1.361,8.286,1.841a66.14,66.14,0,0,0,7.364.891,30.105,30.105,0,0,0,7.347-.377,12,12,0,0,0,8.746-5.975,15.853,15.853,0,0,0,2.089-6.769,24.716,24.716,0,0,0-.562-7.6,32.107,32.107,0,0,0-2.759-7.623,30.987,30.987,0,0,0-1.964-3.331,1.051,1.051,0,1,0-1.815,1.061Z" transform="translate(-4198.356 -719.106)" fill="#362322"/>
    </g>
    <g id="그룹_55953" data-name="그룹 55953" transform="translate(4171.949 735.872)">
      <path id="패스_44135" data-name="패스 44135" d="M4322.209,1039.782a6.062,6.062,0,0,0,4.674.771" transform="translate(-4321.554 -1039.125)" fill="#fff"/>
      <path id="패스_44136" data-name="패스 44136" d="M4318.793,1037.256a6.774,6.774,0,0,0,5.18.837.657.657,0,0,0-.349-1.267,5.514,5.514,0,0,1-.57.111c.079-.01-.159.015-.187.017-.1.008-.192.014-.29.017a5.911,5.911,0,0,1-1.055-.061,5.33,5.33,0,0,1-2.065-.788.657.657,0,1,0-.663,1.134Z" transform="translate(-4318.469 -1036.032)" fill="#362322"/>
    </g>
    <ellipse id="타원_1327" data-name="타원 1327" cx="2.573" cy="2.523" rx="2.573" ry="2.523" transform="translate(4181.6 706.281) rotate(-2.906)" fill="#ffa4b1" opacity="0.68"/>
    <ellipse id="타원_1328" data-name="타원 1328" cx="2.424" cy="2.377" rx="2.424" ry="2.377" transform="translate(4166.898 702.581) rotate(-2.906)" fill="#ffa4b1" opacity="0.68"/>
    <g id="그룹_55954" data-name="그룹 55954" transform="translate(4173.251 702.839)">
      <path id="패스_44137" data-name="패스 44137" d="M4328.932,850.444a1.4,1.4,0,0,0,.717,1.737,2.516,2.516,0,0,0,2.6-.208,2.222,2.222,0,0,0,1.669,1.559c1.794.268,2.033-1.329,1.959-1.292" transform="translate(-4328.346 -849.92)" fill="#fff"/>
      <path id="패스_44138" data-name="패스 44138" d="M4325.983,847.837a2.186,2.186,0,0,0,.093,1.455,2.248,2.248,0,0,0,1.036.969,3.025,3.025,0,0,0,2.958-.3l-.791-.454a2.646,2.646,0,0,0,2.5,2.113,2.1,2.1,0,0,0,2.106-1.391,1.23,1.23,0,0,0,.082-.4.545.545,0,0,0-.675-.558.526.526,0,0,0,.279,1.013h-.274l-.232-.135a.83.83,0,0,1-.147-.331c0,.012,0,.023,0,.035.011-.215.01-.072-.008-.006s-.035.1-.051.153c.054-.173-.015.023-.044.075-.02.036-.043.07-.065.1-.042.064-.042.049,0,0-.054.06-.115.116-.168.176s.078-.043-.042.032c-.034.021-.066.042-.1.061s-.183.077-.063.035c-.049.018-.1.035-.148.048s-.107.026-.162.036c.107-.02-.066.005-.09.006a2.3,2.3,0,0,1-.37-.01,1.358,1.358,0,0,1-.655-.277,2.678,2.678,0,0,1-.241-.218c-.044-.046-.087-.094-.128-.143s-.045-.055-.016-.018l-.043-.062c-.06-.092-.114-.184-.164-.281q-.026-.054.012.033c-.009-.023-.018-.046-.025-.07-.011-.041-.039-.193-.016-.014a.554.554,0,0,0-.26-.454.517.517,0,0,0-.531,0,1.966,1.966,0,0,1-.939.386,1.989,1.989,0,0,1-.941-.078,2.145,2.145,0,0,1-.356-.216,1.6,1.6,0,0,1-.181-.168s-.085-.107-.055-.063-.033-.058-.039-.068c-.015-.027-.031-.055-.043-.084.041.091,0-.007,0-.029-.01-.039-.021-.077-.028-.116.011.054,0,.038,0-.008a1.824,1.824,0,0,1,.044-.492.537.537,0,0,0-.367-.647.531.531,0,0,0-.646.367Z" transform="translate(-4325.903 -847.453)"/>
    </g>
    <g id="그룹_55955" data-name="그룹 55955" transform="translate(4175.978 702.054)">
      <ellipse id="타원_1329" data-name="타원 1329" cx="0.526" cy="1.577" rx="0.526" ry="1.577" transform="translate(0.031 1.006) rotate(-73.179)"/>
      <path id="패스_44139" data-name="패스 44139" d="M4344.064,845.28a3.944,3.944,0,0,1-1.1-.184,3.818,3.818,0,0,1-1.073-.495c-.414-.292-.447-.533-.4-.683s.205-.332.712-.347a4.29,4.29,0,0,1,2.24.677c.413.293.446.533.4.683h0c-.045.15-.206.332-.712.346Zm-1.8-1.357c-.272,0-.429.052-.442.1,0,.014.024.124.268.3a3.946,3.946,0,0,0,2.028.613c.3-.008.382-.083.387-.1h0c0-.015-.025-.124-.268-.3a3.48,3.48,0,0,0-.972-.445A3.529,3.529,0,0,0,4342.265,843.922Z" transform="translate(-4341.472 -843.466)"/>
    </g>
    <path id="패스_44140" data-name="패스 44140" d="M4345.887,848.138l-.957,1.857a.269.269,0,0,0,.095.36.266.266,0,0,0,.359-.094l.957-1.857a.27.27,0,0,0-.094-.359.266.266,0,0,0-.36.094Z" transform="translate(-168.319 -145.073)"/>
    <circle id="타원_1330" data-name="타원 1330" cx="1.419" cy="1.419" r="1.419" transform="translate(4170.373 699.103)"/>
    <circle id="타원_1331" data-name="타원 1331" cx="1.577" cy="1.577" r="1.577" transform="translate(4183.124 702.245)"/>
    <g id="그룹_55956" data-name="그룹 55956" transform="translate(4183.352 720.845)">
      <path id="패스_44141" data-name="패스 44141" d="M4391.394,955.5c2.978,0,5.605,2.978,5.595,5.961a5.831,5.831,0,0,1-3.333,5.454c.438.744.888,1.461.548,2.254-.477,1.111-2.12,1.279-3.163.667a4.952,4.952,0,0,1-.935-7.432" transform="translate(-4387.909 -954.58)" fill="#fff"/>
      <path id="패스_44142" data-name="패스 44142" d="M4387.048,952.089c.123,0,.245.005.368.015a.946.946,0,0,0,.182.019l-.124-.016.12.019a4.874,4.874,0,0,1,.707.181c.058.019.115.04.172.061l.057.022q.139.056-.05-.023a.9.9,0,0,1,.277.129,5.711,5.711,0,0,1,.688.408c.051.035.1.072.151.108s.133.062-.038-.031a1.784,1.784,0,0,1,.288.24,6.6,6.6,0,0,1,.532.531c.084.094.164.191.243.289.138.169-.116-.165.009.014.037.052.075.1.111.154a6.632,6.632,0,0,1,.394.645q.089.166.168.337c.007.016.1.2.029.063s.019.046.025.064a6.023,6.023,0,0,1,.244.773c.024.1.046.2.064.3,0,.013.036.182.03.183l-.015-.122c0,.041.009.082.014.123a5.461,5.461,0,0,1,.025.742q-.006.188-.023.375c-.006.063-.013.125-.019.187-.023.221.036-.214,0,0-.042.249-.092.5-.159.738a6.577,6.577,0,0,1-.218.656l-.023.058c-.038.093-.031.077.02-.046a.646.646,0,0,1-.078.171c-.062.132-.129.261-.2.388a2.69,2.69,0,0,1-.441.673c.172-.153.034-.045-.009.006s-.08.094-.121.139c-.1.106-.194.209-.3.307-.073.07-.223.258-.323.28l.09-.069-.074.054c-.057.042-.116.083-.176.122q-.179.118-.37.219c-.054.029-.109.057-.165.083l-.113.052c.124-.051.141-.058.047-.02a.96.96,0,0,0-.6.532.9.9,0,0,0,.046.818,3.777,3.777,0,0,1,.456.831c-.056-.21.005.022.018.058s.03.093.042.14l.018.07c.019.1.02.094,0-.033a.627.627,0,0,1,0,.286c.081-.212-.014-.009-.026.047-.049.23.083-.125-.007.024-.026.044-.054.089-.079.134-.069.124.035-.051.054-.063a1.119,1.119,0,0,0-.214.215c.1-.144.127-.092.022-.025-.057.037-.119.067-.177.1-.165.092.209-.069.029-.01l-.1.034c-.1.032-.207.053-.311.075-.192.041.229-.014.03,0-.055,0-.109.008-.164.009-.11,0-.219,0-.33-.011-.2-.011.223.045.026,0-.054-.011-.108-.02-.162-.033-.107-.025-.21-.06-.315-.094-.187-.06.192.1.02.009l-.1-.048a3.28,3.28,0,0,1-.32-.2.927.927,0,0,0-.131-.093c.184.076.1.079.018.012s-.134-.115-.2-.176-.151-.148-.223-.226c-.036-.039-.071-.079-.1-.119-.058-.068-.138-.247-.021-.021-.086-.169-.225-.321-.319-.487-.052-.092-.1-.187-.149-.282l-.057-.121c-.1-.2.063.167,0,0a6.233,6.233,0,0,1-.2-.61q-.034-.13-.062-.261c-.011-.053-.021-.105-.03-.158-.014-.075-.019-.317-.008-.021a8.874,8.874,0,0,1-.006-1.284c.007-.074.049-.124-.011.086.019-.067.022-.142.036-.21q.035-.183.084-.362.042-.153.095-.3c.017-.05.038-.1.055-.149.055-.153-.1.207.011-.024a4.22,4.22,0,0,1,.334-.6c.03-.044.062-.087.091-.131.09-.132-.142.17.02-.024.08-.1.166-.188.254-.277a.919.919,0,0,0-1.3-1.3,5.809,5.809,0,0,0-1.157,6.07,5.577,5.577,0,0,0,2.05,2.662,3.582,3.582,0,0,0,3.5.287,2.445,2.445,0,0,0,1.331-1.653,3.728,3.728,0,0,0-.733-2.669l-.549,1.351a6.065,6.065,0,0,0,2.808-2.3,7.466,7.466,0,0,0,1.166-3.388,7.059,7.059,0,0,0-2.692-6.126,6.212,6.212,0,0,0-3.787-1.411.92.92,0,1,0,0,1.839Z" transform="translate(-4383.563 -950.25)" fill="#362322"/>
    </g>
    <g id="그룹_55957" data-name="그룹 55957" transform="translate(4172.504 686.742)">
      <path id="패스_44143" data-name="패스 44143" d="M4322.535,757.275l.079-.065c-.038.03-.033.027.017-.01s.112-.078.169-.114a3.466,3.466,0,0,1,.357-.2l.093-.042c-.047.019-.042.017.016-.006s.128-.048.192-.069a3.65,3.65,0,0,1,.4-.105c.066-.014.134-.026.2-.036-.105.016.1-.009.114-.01a3.58,3.58,0,0,1,.409-.009q.1,0,.2.013l.1.011c-.056-.007-.052-.006.012,0,.134.027.266.054.4.093a.526.526,0,0,0,.279-1.013,4.138,4.138,0,0,0-3.779.814.528.528,0,0,0,0,.743.54.54,0,0,0,.743,0Z" transform="translate(-4321.639 -755.56)"/>
      <path id="패스_44144" data-name="패스 44144" d="M4410.432,775.536a4.129,4.129,0,0,0-3.225-2.121.527.527,0,0,0-.525.526.54.54,0,0,0,.525.526s.135.016.054.005.037.006.052.009c.068.012.136.026.2.041a3.489,3.489,0,0,1,.4.119l.1.037c.073.026-.113-.053.008,0,.063.029.125.058.187.09a3.674,3.674,0,0,1,.356.211c.057.039.113.079.168.12-.034-.025-.053-.043-.008-.006l.095.08a3.523,3.523,0,0,1,.281.274c.047.051.092.1.136.156s.048.064.007.007c.02.028.041.055.061.084a3.526,3.526,0,0,1,.227.37.53.53,0,0,0,.719.189.537.537,0,0,0,.189-.719Z" transform="translate(-4391.785 -770.286)"/>
    </g>
    <g id="그룹_55958" data-name="그룹 55958" transform="translate(4143.928 707.401)">
      <rect id="사각형_12516" data-name="사각형 12516" width="13.488" height="21.546" rx="6.744" transform="translate(0.788 0.788)" fill="#1bd9ac"/>
      <path id="패스_44145" data-name="패스 44145" d="M4170.149,896.622h-8.233a3.42,3.42,0,0,1-3.416-3.416V876.916a3.42,3.42,0,0,1,3.416-3.416h8.233a3.42,3.42,0,0,1,3.416,3.416v16.291A3.42,3.42,0,0,1,4170.149,896.622Zm-8.233-21.546a1.842,1.842,0,0,0-1.839,1.839v16.291a1.842,1.842,0,0,0,1.839,1.839h8.233a1.842,1.842,0,0,0,1.839-1.839V876.916a1.842,1.842,0,0,0-1.839-1.839Z" transform="translate(-4158.5 -873.5)" fill="#362322"/>
    </g>
    <path id="패스_44146" data-name="패스 44146" d="M4188.118,914.906l-2.258-3.226a1.193,1.193,0,0,0-1.913.043l-2.2,3.079c-.56.935-.232,2.1,1.083,2.1l4.4,0A1.272,1.272,0,0,0,4188.118,914.906Zm-2.469.386-1.551.016c-.464,0-.576-.4-.375-.731l.785-1.086a.423.423,0,0,1,.675-.022l.785,1.122A.452.452,0,0,1,4185.648,915.293Z" transform="translate(-33.535 -197.213)" fill="#fff"/>
    <g id="그룹_55960" data-name="그룹 55960" transform="translate(4140.833 718.898)">
      <g id="그룹_55959" data-name="그룹 55959" transform="translate(0 0)">
        <path id="패스_44147" data-name="패스 44147" d="M4152.932,947.46c.257,2.336-.605,4.391-2.919,4.649a4.255,4.255,0,0,1-.931-8.458C4151.4,943.393,4152.675,945.125,4152.932,947.46Z" transform="translate(-4144.544 -942.839)" fill="#fff"/>
        <path id="패스_44148" data-name="패스 44148" d="M4145.83,949.216a4.943,4.943,0,0,1-3.1-1.095,5.055,5.055,0,0,1,2.558-8.961,3.9,3.9,0,0,1,2.939.785,5.354,5.354,0,0,1,1.782,3.721c.338,3.07-1.081,5.236-3.615,5.519A5.064,5.064,0,0,1,4145.83,949.216Zm-.014-8.51a3.221,3.221,0,0,0-.356.021,3.478,3.478,0,0,0-1.748,6.164,3.375,3.375,0,0,0,2.5.728c2.419-.27,2.313-2.961,2.223-3.78h0a3.9,3.9,0,0,0-1.2-2.663A2.211,2.211,0,0,0,4145.815,940.706Z" transform="translate(-4140.833 -939.13)" fill="#362322"/>
      </g>
    </g>
  </g>
</svg>
