<svg xmlns="http://www.w3.org/2000/svg" xmlns:xlink="http://www.w3.org/1999/xlink" width="70" height="70" viewBox="0 0 70 70">
  <defs>
    <clipPath id="clip-path">
      <circle id="타원_1659" data-name="타원 1659" cx="35" cy="35" r="35" transform="translate(-20029 -20787)" fill="#f9f9f9" stroke="#efefef" stroke-width="1"/>
    </clipPath>
  </defs>
  <g id="마스크_그룹_33" data-name="마스크 그룹 33" transform="translate(20029 20787)" clip-path="url(#clip-path)">
    <g id="그룹_57235" data-name="그룹 57235" transform="translate(-23010.396 -23914.145)">
      <g id="그룹_57227" data-name="그룹 57227" transform="translate(2991.329 3148.229)">
        <path id="패스_45297" data-name="패스 45297" d="M3040.359,3212.52c4.8,6.8,6.261,16.681,3.105,21.745-1.708,2.74-4.052,5-11.123,5.236a72.906,72.906,0,0,1-26.238-4.786c-4.831-1.887-8.392-5.646-8.4-9.764-.007-9.436,9.826-19.659,21.281-21.149C3027.55,3202.688,3035.63,3205.821,3040.359,3212.52Z" transform="translate(-2996.724 -3202.598)" fill="#fff"/>
        <path id="패스_45298" data-name="패스 45298" d="M3034.485,3208a25.087,25.087,0,0,1,1.8,2.983q.4.78.75,1.585c.028.064.058.128.083.193-.1-.248-.01-.022.01.024.053.129.106.259.157.389q.154.39.3.785a27.776,27.776,0,0,1,.969,3.313q.185.822.319,1.656c.021.131.041.263.06.394l.01.066q.022.163-.008-.064a.721.721,0,0,1,.017.131q.053.422.092.846a20.945,20.945,0,0,1,.057,3.141q-.022.359-.058.718-.018.176-.04.352c-.008.067-.049.275,0-.029-.013.076-.021.154-.033.23-.069.448-.157.894-.268,1.333a11.869,11.869,0,0,1-.4,1.29c-.037.1-.077.2-.116.293-.074.184.1-.223.018-.043l-.063.142q-.138.3-.3.593c-.167.305-.353.6-.547.889q-.13.194-.265.384c-.046.063-.092.126-.138.188l-.07.094c-.1.127.177-.223.033-.045a9.5,9.5,0,0,1-1.405,1.433l-.1.079c-.135.109.206-.153.064-.05-.069.051-.138.1-.208.152-.144.1-.291.2-.441.292a9.5,9.5,0,0,1-1.035.555c-.091.042-.183.08-.274.121.318-.145-.021.007-.1.036q-.326.127-.658.234a14.723,14.723,0,0,1-1.423.379q-.348.075-.7.135-.2.035-.4.065l-.205.03-.138.02c.145-.02.161-.022.05-.007-.634.075-1.268.134-1.905.168a46.492,46.492,0,0,1-5.849-.1q-1.657-.12-3.307-.32-.426-.051-.852-.107c-.051-.007-.3-.038-.026,0-.072-.009-.145-.02-.217-.03l-.509-.072q-.928-.135-1.851-.291a77.017,77.017,0,0,1-7.677-1.7q-1.948-.538-3.863-1.19-.981-.335-1.951-.7c-.3-.113-.593-.227-.886-.347-.234-.1.193.086-.038-.016l-.2-.089q-.235-.105-.465-.217a16.911,16.911,0,0,1-1.516-.829q-.36-.222-.708-.461-.171-.119-.34-.242l-.166-.124-.11-.083q.162.126.037.027a14.82,14.82,0,0,1-1.252-1.118q-.275-.278-.533-.574c-.084-.1-.167-.2-.249-.3-.02-.024-.119-.119-.119-.149q.133.173.037.048l-.076-.1a10.088,10.088,0,0,1-.8-1.256,6.74,6.74,0,0,0-.315-.653c.137.2.042.1.007.013-.022-.055-.044-.111-.065-.167q-.073-.195-.136-.393c-.072-.225-.133-.453-.184-.683q-.038-.172-.068-.346c-.01-.058-.019-.115-.028-.174q-.023-.16.011.087c0-.039-.009-.078-.014-.117a9.284,9.284,0,0,1-.025-1.439q.015-.311.043-.621c.01-.113.022-.226.035-.339.006-.056.014-.113.021-.17.021-.178-.037.255,0-.021q.1-.713.275-1.413t.405-1.407q.112-.338.239-.672.063-.167.13-.334c.022-.056.045-.112.068-.167l.046-.111-.029.068a21.9,21.9,0,0,1,1.384-2.669q.41-.672.866-1.315.221-.313.452-.617a1.134,1.134,0,0,1,.116-.153c-.184.17-.042.054,0,0q.119-.152.24-.3a26.206,26.206,0,0,1,2.209-2.4q.6-.575,1.231-1.111.305-.259.618-.51l.263-.207c.184-.145-.173.131.013-.01l.214-.162a27.265,27.265,0,0,1,2.819-1.853q.737-.422,1.5-.8.336-.165.677-.32.186-.085.373-.167l.188-.081-.046.02.126-.052a24.9,24.9,0,0,1,3.236-1.082q.812-.21,1.638-.363.388-.071.779-.13l.2-.029c.24-.035-.235.028.015,0,.167-.02.335-.041.5-.06a25.808,25.808,0,0,1,3.547-.141q.835.025,1.666.106c.272.027.552.045.822.095-.279-.051-.045-.006.011,0l.2.03c.158.024.315.05.472.077a22.9,22.9,0,0,1,3.277.821c.508.168,1.008.358,1.5.56.217.088-.2-.089.011,0l.183.079q.183.081.364.164.392.181.776.378a20.861,20.861,0,0,1,2.818,1.739q.134.1.266.2c.045.034.233.149.011.008a1.9,1.9,0,0,1,.157.123q.339.27.666.552.632.548,1.218,1.145.567.579,1.087,1.2.131.156.259.315l.127.16c.032.041.186.215.014.017.178.206.331.442.488.664a.983.983,0,1,0,1.7-.992,21.808,21.808,0,0,0-11.154-8.222,24.558,24.558,0,0,0-7.012-1.194,25.825,25.825,0,0,0-7.2.813,26.685,26.685,0,0,0-6.544,2.71,28.422,28.422,0,0,0-5.563,4.2,25.969,25.969,0,0,0-4.165,5.2,20.144,20.144,0,0,0-2.409,5.8,10.381,10.381,0,0,0,3.912,11.609,17.251,17.251,0,0,0,3.157,2.015,33.8,33.8,0,0,0,3.875,1.537,71.2,71.2,0,0,0,7.985,2.233q3.848.846,7.767,1.309a63.075,63.075,0,0,0,6.445.464,28.144,28.144,0,0,0,6.742-.572,11.691,11.691,0,0,0,4.874-2.3,11.254,11.254,0,0,0,2.7-3.389,14.113,14.113,0,0,0,1.476-5.812,24.052,24.052,0,0,0-.625-6.695,28.638,28.638,0,0,0-2.488-6.788,25.048,25.048,0,0,0-1.768-2.921.983.983,0,0,0-1.7.992Z" transform="translate(-2991.698 -3197.577)" fill="#a6a09f"/>
      </g>
      <g id="그룹_57232" data-name="그룹 57232" transform="translate(3019.703 3138.343)">
        <g id="그룹_57229" data-name="그룹 57229" transform="translate(0 0)">
          <g id="그룹_57228" data-name="그룹 57228">
            <path id="패스_45299" data-name="패스 45299" d="M3168.812,3154.17a2.5,2.5,0,0,1-1.611-2.449,11.611,11.611,0,0,1,3.493-7.744,3.082,3.082,0,0,1,2.431-1.14,2.309,2.309,0,0,1,1.789,1.967,5.309,5.309,0,0,1-.46,2.773,16.266,16.266,0,0,1-3.417,5.334c-.6.619-1.481,1.395-2.27,1.054" transform="translate(-3166.469 -3142.088)" fill="#bebebe"/>
            <path id="패스_45300" data-name="패스 45300" d="M3165.273,3149.716a.513.513,0,0,1-.156-.051c.085.074.082.04.026.009-.08-.044-.157-.091-.235-.138-.154-.093.109.1-.025-.019l-.083-.074a2.465,2.465,0,0,1-.225-.248c.116.145-.056-.095-.077-.131-.05-.082-.091-.167-.134-.253-.083-.163.031.1,0-.009-.014-.045-.033-.09-.047-.135a2.815,2.815,0,0,1-.086-.331.614.614,0,0,1-.02-.111c-.008.189.005.017,0-.028-.006-.1-.006-.192,0-.289q.011-.365.05-.73c.005-.044.01-.088.015-.132.025-.22-.025.15.009-.068.015-.1.03-.2.048-.3q.061-.345.145-.684a11.2,11.2,0,0,1,.423-1.337c.024-.062.05-.124.074-.187.009-.023.055-.13,0-.01q.066-.154.136-.306.155-.335.33-.661a12.28,12.28,0,0,1,.739-1.2c.064-.092.129-.183.2-.273l.08-.107c.132-.178-.089.109.049-.064s.281-.347.429-.515a9.811,9.811,0,0,1,1-.993c.167-.143-.114.075.065-.052l.11-.079q.138-.095.285-.177c.058-.033.118-.061.177-.092.025-.014.13-.051,0,0,.123-.046.246-.076.371-.113.188-.053-.09,0,.026-.007.054,0,.107-.008.161-.009s.086,0,.13,0c.2,0-.128-.038.049.006.093.023.182.052.273.081-.144-.047-.057-.026-.021-.005.065.038.133.072.2.113.032.021.063.043.093.065-.146-.1,0,.009.027.031.071.065.135.138.2.209.025.027.072.109-.007-.012.032.049.067.1.1.146.058.092.1.19.156.283s-.055-.163.007.013c.016.047.033.092.049.139a2.511,2.511,0,0,1,.074.283c.006.029.028.155.011.038.007.049.011.1.015.148a3.6,3.6,0,0,1,.006.445c0,.074-.01.148-.016.222,0,.02-.019.144,0,.026-.019.124-.042.246-.069.368a7.335,7.335,0,0,1-.231.8c-.08.231-.17.457-.261.684-.084.208.033-.073-.021.05l-.07.161q-.085.192-.175.382-.308.649-.672,1.269a16.329,16.329,0,0,1-.9,1.375l-.083.113-.084.112c-.047.062-.057.074-.027.036.061-.078-.081.1-.072.091q-.065.082-.132.164-.266.326-.548.638c-.177.2-.359.39-.548.574q-.126.122-.257.237l-.123.1c-.129.111.073-.045-.055.042-.1.071-.207.142-.319.2-.045.025-.091.045-.136.069s-.036.017.039-.016q-.055.02-.11.037c-.037.011-.074.018-.111.028-.083.015-.074.015.03,0-.037,0-.074,0-.111,0-.079.007-.053.035.031.01-.051.015-.17-.048-.218-.066a.739.739,0,0,0-.906.514.759.759,0,0,0,.514.906c1.112.443,2.221-.457,2.946-1.2a16.918,16.918,0,0,0,3.6-5.572,5.7,5.7,0,0,0,.462-3.523,3.052,3.052,0,0,0-2.085-2.221,3.563,3.563,0,0,0-3.223,1.2,12.813,12.813,0,0,0-3.321,5.41,10.818,10.818,0,0,0-.372,1.691,6.386,6.386,0,0,0-.054,1.9,3.134,3.134,0,0,0,2.1,2.519.737.737,0,0,0,.392-1.421Z" transform="translate(-3162.738 -3138.346)" fill="#a6a09f"/>
          </g>
          <path id="패스_45301" data-name="패스 45301" d="M3174.817,3197.012c-.036-.093-.077-.183-.112-.276-.008-.021-.011-.045-.02-.065,0,0,0,.083.006.038s-.014.085,0,.038-.013.028-.014.031.01-.021.015-.031l.043-.086a3.283,3.283,0,0,0,.153-.386,8.215,8.215,0,0,0,.219-.846.251.251,0,0,0-.171-.3.248.248,0,0,0-.3.172c-.057.265-.118.529-.2.788-.024.078-.051.155-.08.231l-.015.039c-.022.055.02-.043,0-.01s-.019.043-.03.065a.547.547,0,0,0-.086.434c.033.1.082.2.121.3a.253.253,0,0,0,.3.172.248.248,0,0,0,.172-.3Z" transform="translate(-3172.325 -3185.82)" fill="#a6a09f"/>
        </g>
        <g id="그룹_57231" data-name="그룹 57231" transform="translate(2.857 2.97)">
          <g id="그룹_57230" data-name="그룹 57230">
            <path id="패스_45302" data-name="패스 45302" d="M3184.619,3168.6a10.054,10.054,0,0,1,5.818-7.23c1.155-.494,2.762-.632,3.421.438a2.6,2.6,0,0,1,.1,2.039,8.006,8.006,0,0,1-8.85,5.53" transform="translate(-3183.892 -3160.254)" fill="#bebebe"/>
            <path id="패스_45303" data-name="패스 45303" d="M3181.619,3165.021a9.706,9.706,0,0,1,.343-1.289c.033-.1.067-.191.1-.285.021-.057.043-.113.065-.17,0,0,.076-.185.032-.08s.035-.078.035-.079c.024-.055.05-.111.075-.165q.077-.166.16-.327a10.124,10.124,0,0,1,.684-1.146c.057-.083.116-.166.176-.247l.073-.1c.12-.163-.094.115.033-.043s.282-.345.431-.51a10.24,10.24,0,0,1,.956-.931q.116-.1.234-.193c.019-.015.18-.139.042-.034l.121-.091q.281-.207.575-.394a9.459,9.459,0,0,1,1.146-.621l.138-.062c-.168.075,0,0,.029-.01.085-.033.17-.063.257-.091a4.662,4.662,0,0,1,.592-.151,1.028,1.028,0,0,1,.165-.028c-.177,0-.053.008,0,0,.1-.01.2-.016.3-.018s.179,0,.268.007c.016,0,.186,0,.059,0s.078.014.106.021a2.1,2.1,0,0,1,.245.066l.047.016q.112.044-.038-.018a.478.478,0,0,1,.089.043q.065.034.127.074l.041.027c.064.046.053.038-.031-.026.034-.005.2.181.21.213-.035-.105-.054-.082-.023-.024s.062.105.092.158c.094.163-.009-.073.013.032.011.052.033.1.045.154.007.025.039.234.019.058,0,.043.008.086.011.13a2.823,2.823,0,0,1-.01.428c0,.038-.03.183,0,.036-.011.066-.023.132-.037.2-.022.108-.049.216-.078.322q-.083.3-.194.591c-.019.052-.127.3-.053.137-.046.1-.092.205-.142.306q-.137.278-.3.542c-.1.16-.2.317-.308.469-.033.046-.065.092-.1.136-.019.025-.138.173-.021.03-.071.087-.142.175-.215.26a8.151,8.151,0,0,1-.836.837c-.086.074-.174.145-.261.217-.027.021-.111.084.015-.011-.045.034-.09.068-.135.1q-.251.183-.515.349-.288.179-.589.336-.151.078-.3.15c-.052.024-.1.047-.154.07l-.1.045q.121-.051.046-.02a9.183,9.183,0,0,1-1.317.409c-.11.024-.22.046-.331.065l-.138.022c-.2.031.1-.008-.054.008-.224.024-.447.043-.673.05s-.449,0-.674-.013c-.113-.007-.224-.02-.337-.031-.192-.019.163.028-.028,0-.075-.012-.149-.024-.223-.037a.737.737,0,1,0-.392,1.421,8.786,8.786,0,0,0,9.315-4.862,4.82,4.82,0,0,0,.523-3.2,2.52,2.52,0,0,0-2.388-1.758,5.5,5.5,0,0,0-2.791.7,10.51,10.51,0,0,0-2.433,1.7,10.726,10.726,0,0,0-3.228,5.74.737.737,0,1,0,1.421.392Z" transform="translate(-3180.182 -3156.484)" fill="#a6a09f"/>
          </g>
          <path id="패스_45304" data-name="패스 45304" d="M3190.44,3197.337a4.077,4.077,0,0,1,2.466-2.274c.3-.1.171-.572-.131-.474a4.543,4.543,0,0,0-2.759,2.5.254.254,0,0,0,.088.336.247.247,0,0,0,.336-.088Z" transform="translate(-3188.383 -3188.339)" fill="#a6a09f"/>
        </g>
      </g>
      <ellipse id="타원_1656" data-name="타원 1656" cx="2.318" cy="2.273" rx="2.318" ry="2.273" transform="translate(3020.405 3169.485) rotate(-7.453)" fill="#f1f1f1"/>
      <ellipse id="타원_1657" data-name="타원 1657" cx="2.429" cy="2.382" rx="2.429" ry="2.382" transform="translate(3006.153 3166.586) rotate(-7.453)" fill="#f1f1f1"/>
      <g id="그룹_57233" data-name="그룹 57233" transform="translate(3014.964 3165.706)">
        <ellipse id="타원_1658" data-name="타원 1658" cx="0.491" cy="1.474" rx="0.491" ry="1.474" transform="translate(0 0.968) rotate(-80.08)" fill="#a6a09f"/>
        <path id="패스_45305" data-name="패스 45305" d="M3135.926,3307.392a4.078,4.078,0,0,1-.7-.064,3.513,3.513,0,0,1-1.026-.33c-.3-.16-.437-.334-.407-.5.064-.366.888-.427,1.631-.3s1.5.466,1.434.832c-.03.169-.221.285-.553.335A2.588,2.588,0,0,1,3135.926,3307.392Zm-1.2-1.094c-.466,0-.753.107-.774.226-.012.069.066.192.324.33a3.762,3.762,0,0,0,2,.35c.289-.043.4-.132.416-.2.03-.169-.45-.494-1.3-.643A3.9,3.9,0,0,0,3134.73,3306.3Z" transform="translate(-3133.791 -3306.026)" fill="#a6a09f"/>
      </g>
      <path id="패스_45306" data-name="패스 45306" d="M3140.586,3311.161a5.458,5.458,0,0,0-.269,2.243.252.252,0,0,0,.246.246.248.248,0,0,0,.246-.246,5.087,5.087,0,0,1,.251-2.113.246.246,0,1,0-.474-.131Z" transform="translate(-124.267 -144.37)" fill="#a6a09f"/>
      <path id="패스_45307" data-name="패스 45307" d="M3192.153,3250.979c.03,0,.11-.006.134.011-.011-.008-.137-.021-.05-.006l.059.01a2.454,2.454,0,0,1,.265.066q.074.023.146.049l.061.023c.075.03,0,0-.033-.014a1.535,1.535,0,0,1,.27.135c.083.047.161.1.239.156.049.034-.092-.074-.029-.022l.058.048c.034.03.068.06.1.093s.061.064.089.1.053.1-.018-.025c.01.016.022.031.033.047a1.217,1.217,0,0,1,.064.107.284.284,0,0,1,.029.06c0-.017-.051-.129-.017-.035a.491.491,0,0,0,.947-.261,2.122,2.122,0,0,0-.977-1.1,3.037,3.037,0,0,0-1.371-.421.5.5,0,0,0-.491.491.5.5,0,0,0,.491.491Z" transform="translate(-167.222 -93.371)" fill="#939393"/>
      <path id="패스_45308" data-name="패스 45308" d="M3103.262,3231.277c-.062.16,0,.014.023-.029.043-.076.015,0-.02.021a.33.33,0,0,0,.049-.057,1.282,1.282,0,0,1,.113-.108c.047-.04.072-.025-.014.009a.493.493,0,0,0,.069-.049,2.277,2.277,0,0,1,.312-.172l.042-.019-.046.019a.559.559,0,0,0,.088-.034c.059-.022.12-.042.181-.06a3.27,3.27,0,0,1,.371-.088.356.356,0,0,0,.093-.015c-.046.025-.1.011-.008,0q.09-.01.181-.014c.11,0,.217.006.327.01.053,0-.133-.025-.026,0l.075.015a1.305,1.305,0,0,1,.149.044.493.493,0,0,0,.6-.343.5.5,0,0,0-.343-.6,2.819,2.819,0,0,0-1.746.068,2.113,2.113,0,0,0-1.424,1.145.493.493,0,0,0,.343.6.506.506,0,0,0,.6-.343Z" transform="translate(-90.485 -76.391)" fill="#939393"/>
      <path id="패스_45309" data-name="패스 45309" d="M3167.522,3283.237s.2-2.568-1.839-2.566a2.156,2.156,0,0,0-2.2,2.149,11.765,11.765,0,0,0,1.907,4.686c.286.407,2.851-.35,3.79-.734a2.418,2.418,0,0,0,1.76-2.176C3171.01,3283.368,3169.149,3282.207,3167.522,3283.237Z" transform="translate(-143.653 -119.024)" fill="#a6a09f"/>
      <path id="패스_45310" data-name="패스 45310" d="M3088.277,3274.329s-1.573-2.04-3.085-.674a2.157,2.157,0,0,0-.2,3.073,11.762,11.762,0,0,0,4.554,2.2c.485.111,1.883-2.17,2.323-3.084a2.418,2.418,0,0,0-.151-2.794C3090.955,3272.09,3088.795,3272.475,3088.277,3274.329Z" transform="translate(-77.553 -112.226)" fill="#a6a09f"/>
      <g id="그룹_57234" data-name="그룹 57234" transform="translate(3012.685 3168.601)">
        <path id="패스_45311" data-name="패스 45311" d="M3121.328,3325.17a10.23,10.23,0,0,0,5.783.585,59.57,59.57,0,0,1-1.827,6.862,2.544,2.544,0,0,1-1.025,1.034c-.854.492-1.8-.508-2.183-1.415a11.616,11.616,0,0,1-.616-7.118" transform="translate(-3120.796 -3324.757)" fill="#cecece"/>
        <path id="패스_45312" data-name="패스 45312" d="M3119.353,3323.678a10.665,10.665,0,0,0,5.979.585l-.453-.453c-.315,1.263-.581,2.539-.9,3.8-.157.629-.326,1.254-.521,1.873q-.141.449-.3.892a1.657,1.657,0,0,1-.379.653c-.268.274-.651.627-1.063.507a1.885,1.885,0,0,1-.95-.853,6.3,6.3,0,0,1-.635-1.553,11.175,11.175,0,0,1-.2-5.761c.106-.462-.6-.659-.71-.2a11.951,11.951,0,0,0-.241,3.958,12.2,12.2,0,0,0,.367,1.95,8.2,8.2,0,0,0,.685,1.814c.524.935,1.6,1.844,2.667,1.14a3.465,3.465,0,0,0,.684-.578,2.309,2.309,0,0,0,.442-.776c.243-.66.451-1.333.636-2.011.422-1.543.734-3.114,1.121-4.666a.373.373,0,0,0-.453-.453,9.973,9.973,0,0,1-5.588-.585.371.371,0,0,0-.453.258.377.377,0,0,0,.258.453Z" transform="translate(-3118.918 -3322.909)" fill="#a6a09f"/>
      </g>
    </g>
  </g>
</svg>
