<svg xmlns="http://www.w3.org/2000/svg" width="70" height="70" viewBox="0 0 70 70">
    <defs>
        <clipPath id="clip-path">
            <circle id="타원_1482" cx="35" cy="35" r="35" fill="#f9f9f9" stroke="#efefef" transform="translate(-23130 -19897)"/>
        </clipPath>
        <style>
            .cls-5{fill:#362322}.cls-6{fill:#7a7a7a}.cls-7{fill:#e7e7e7}
        </style>
    </defs>
    <g id="마스크_그룹_9" clip-path="url(#clip-path)" transform="translate(23130 19897)">
        <g id="그룹_56574" opacity="0.35" transform="translate(-24996.074 -21190.4)">
            <g id="그룹_56567" transform="translate(1878.65 1313.255)">
                <path id="패스_44631" fill="#fff" d="M1919.028 1379.674c5.962 4.651 9.824 12.851 8.411 18.081-.764 2.83-2.208 5.408-8.291 7.472a66.188 66.188 0 0 1-24.059 2.734c-4.695-.371-8.777-2.7-9.861-6.279-2.485-8.2 3.375-19.666 12.938-23.97 7.147-3.217 14.992-2.618 20.862 1.962z" transform="translate(-1883.765 -1374.798)"/>
                <path id="패스_44632" d="M1913.283 1375.2a22.768 22.768 0 0 1 2.3 2.074q.532.549 1.029 1.129.248.29.487.588l.237.3c.136.172-.117-.154.016.021l.115.152a25.257 25.257 0 0 1 1.7 2.565q.368.638.7 1.3.162.325.313.655.075.164.147.328l.071.164c.072.164-.071-.173 0 .006a19.9 19.9 0 0 1 .9 2.665c.107.421.2.847.272 1.276q.027.157.05.314c.009.061.025.252 0-.029.005.052.013.1.02.155q.037.307.059.615a11.291 11.291 0 0 1 .022 1.241c-.007.176-.018.352-.035.527-.009.094-.02.188-.031.282-.021.18.035-.23.007-.052-.01.061-.018.122-.029.184a10.475 10.475 0 0 1-.505 1.846c-.051.139-.11.275-.161.414.116-.316.02-.049-.014.026s-.073.159-.111.237a7.96 7.96 0 0 1-.449.8q-.123.192-.257.377c-.049.067-.23.255-.019.031-.065.07-.121.152-.182.226a8.445 8.445 0 0 1-.724.758q-.207.192-.425.37c-.056.046-.332.245-.088.074-.1.068-.189.142-.285.211a12.8 12.8 0 0 1-1.108.707c-.433.247-.878.472-1.33.68q-.184.085-.37.166c-.063.028-.127.056-.191.082.208-.086-.014.005-.047.019q-.41.168-.826.321a41.741 41.741 0 0 1-5.392 1.536q-1.585.354-3.187.625-.838.143-1.678.266l-.43.062-.216.03c-.245.034.193-.025-.053.007-.293.038-.586.076-.88.111a69.194 69.194 0 0 1-7.508.5q-1.967.021-3.932-.084c-.607-.033-1.215-.069-1.819-.137l-.2-.024c-.228-.026.2.03-.026 0-.131-.019-.262-.038-.392-.06q-.387-.064-.771-.148a14.716 14.716 0 0 1-1.481-.4q-.356-.117-.7-.254l-.172-.069c-.2-.079.182.081-.014-.005-.13-.057-.26-.115-.389-.175a11.584 11.584 0 0 1-1.251-.685q-.293-.185-.573-.39l-.115-.085c-.139-.1.027-.012.023.018 0-.03-.271-.221-.305-.25a8.515 8.515 0 0 1-.936-.934 2.6 2.6 0 0 0-.206-.251c.167.15.055.072.009.009l-.094-.13c-.133-.189-.258-.384-.372-.585q-.144-.254-.267-.519a1.523 1.523 0 0 0-.065-.145c.125.207.036.085.009.017q-.068-.173-.127-.35a11.209 11.209 0 0 1-.3-1.14q-.062-.287-.112-.577-.025-.145-.047-.291c-.007-.049-.013-.1-.021-.146.016.095.025.2.006.041q-.077-.618-.1-1.242a16.435 16.435 0 0 1 .095-2.448l.037-.31c.024-.192-.032.222 0 .03l.023-.156q.047-.312.1-.623.121-.656.287-1.3a21.556 21.556 0 0 1 .8-2.492q.06-.155.123-.309l.063-.154c.076-.185-.083.192 0 .008.089-.205.179-.41.272-.613q.3-.64.628-1.262a24.616 24.616 0 0 1 1.428-2.343q.2-.285.4-.565.1-.14.207-.279l.07-.093.07-.092-.033.043a3.275 3.275 0 0 1 .435-.544q.24-.292.49-.577a24.356 24.356 0 0 1 1.966-2q.521-.473 1.071-.915l.277-.219c.163-.128-.16.12.006 0l.141-.106q.306-.229.619-.448a21.7 21.7 0 0 1 2.417-1.468q.654-.341 1.33-.634c.066-.029.133-.059.2-.086l.054-.022q.2-.082.4-.161.433-.169.873-.321a22.67 22.67 0 0 1 3.255-.863q.407-.076.817-.136c.068-.01.136-.021.2-.029-.208.023-.078.01-.033 0 .159-.019.317-.039.476-.055q.828-.087 1.662-.108t1.65.026q.368.021.735.056.2.018.4.042l.2.024.132.017q-.19-.026-.039 0a20.017 20.017 0 0 1 3.11.712q.38.122.755.259.188.069.374.142l.186.074.1.038a14.987 14.987 0 0 1 1.451.692q.687.365 1.342.786.344.222.679.458.168.119.334.241l.165.124c.029.022.214.165.038.029a.975.975 0 0 0 .631.261.892.892 0 0 0 .631-1.523 20.05 20.05 0 0 0-6.208-3.3 20.353 20.353 0 0 0-6.694-.935 23.159 23.159 0 0 0-12.62 4.188 25.375 25.375 0 0 0-7.742 8.818 20.845 20.845 0 0 0-2.613 10.582 11.408 11.408 0 0 0 1.29 5.148 9.994 9.994 0 0 0 4.435 3.876 14.941 14.941 0 0 0 3.06 1.058 22.234 22.234 0 0 0 3.647.454 63.075 63.075 0 0 0 7.88-.055 65.668 65.668 0 0 0 13.543-2.245 24.989 24.989 0 0 0 5.828-2.338 9.688 9.688 0 0 0 5.014-7.149 13.357 13.357 0 0 0-.347-5.37 24.272 24.272 0 0 0-6.214-10.7 22.765 22.765 0 0 0-2.259-2.028.974.974 0 0 0-.631-.261.892.892 0 0 0-.631 1.522z" class="cls-5" transform="translate(-1878.65 -1369.689)"/>
            </g>
            <g id="그룹_56572" transform="translate(1897.348 1303.401)">
                <g id="그룹_56569" transform="translate(0)">
                    <g id="그룹_56568">
                        <path id="패스_44633" d="M2011.3 1318.9a2.272 2.272 0 0 1-2.044-1.705 10.54 10.54 0 0 1 1-7.648 2.8 2.8 0 0 1 1.813-1.63 2.1 2.1 0 0 1 2.071 1.239 4.82 4.82 0 0 1 .329 2.531 14.76 14.76 0 0 1-1.569 5.534c-.355.694-.921 1.6-1.7 1.513" class="cls-6" transform="translate(-2008.259 -1307.232)"/>
                        <path id="패스_44634" d="M2007.469 1314.4h-.158c-.136 0 .01.007.022 0a.668.668 0 0 1-.254-.065c-.031-.01-.18-.084-.036-.011l-.1-.047a2.556 2.556 0 0 1-.272-.172c.108.076.03.024.008 0-.04-.037-.082-.072-.121-.11-.066-.064-.125-.133-.186-.2-.021-.025-.063-.1 0 .005-.03-.046-.063-.09-.092-.136a2.561 2.561 0 0 1-.133-.238c-.013-.028-.069-.19-.019-.038-.011-.034-.025-.067-.036-.1-.031-.094-.055-.19-.079-.285q-.086-.338-.144-.682l-.02-.125c0-.014-.031-.221-.012-.073q-.021-.157-.035-.315-.03-.316-.039-.634a10.134 10.134 0 0 1 .051-1.335c0-.042.009-.085.014-.127 0-.013.029-.222.008-.076q.022-.158.049-.316.057-.331.133-.658a11.213 11.213 0 0 1 .372-1.257q.054-.15.112-.3l.047-.119c0-.008.086-.2.031-.076.089-.2.183-.406.283-.605.084-.168.172-.334.268-.5q.072-.121.15-.238c.031-.047.065-.092.1-.139.08-.116-.068.074.032-.043a4.028 4.028 0 0 1 .385-.4c.092-.082.013-.01-.008 0 .044-.031.088-.062.133-.09.03-.019.061-.037.092-.054s.2-.085.113-.057.068-.019.071-.02c.043-.013.087-.024.131-.033s.157-.008.011 0c.036 0 .072 0 .108-.006.054 0 .108.007.161.006-.126 0-.065-.013-.019 0a2.927 2.927 0 0 1 .31.088c-.135-.047-.021-.009.014.009s.081.042.12.064.063.038.094.058.165.122.044.025a2.522 2.522 0 0 1 .207.186l.077.081q.038.041.073.084l-.019-.025a2.712 2.712 0 0 1 .271.471c-.053-.124.024.071.026.079.014.04.027.081.039.122a3.678 3.678 0 0 1 .091.373l.027.159c.02.12-.01-.158 0 .046.008.108.018.215.022.323.009.228 0 .456-.007.683-.011.209-.029.418-.05.626-.011.111-.025.223-.038.334a.42.42 0 0 1-.012.089l-.03.2q-.108.681-.28 1.351a14.8 14.8 0 0 1-.462 1.477c-.043.115-.088.231-.134.345l-.076.187-.038.088q-.155.354-.329.7c-.091.18-.185.359-.29.531-.054.09-.111.179-.171.265l-.061.085c.095-.132-.018.021-.041.047a2.353 2.353 0 0 1-.193.2l-.037.033q-.085.07.022-.015c-.019.031-.089.06-.118.077s-.128.092-.043.028c.052-.021.051-.021 0 0q-.043.014-.086.025c-.105.036.049-.031.044 0a.727.727 0 0 1-.186 0 .671.671 0 0 0-.669.669.686.686 0 0 0 .669.669c.972.086 1.678-.78 2.108-1.537a14.22 14.22 0 0 0 1.193-2.834 15.6 15.6 0 0 0 .614-3.143 5.624 5.624 0 0 0-.4-3.07 2.834 2.834 0 0 0-2.378-1.589 2.95 2.95 0 0 0-2.406 1.547 10.417 10.417 0 0 0-1.178 2.651 11.535 11.535 0 0 0-.493 3.005 10.53 10.53 0 0 0 .106 1.761 6.14 6.14 0 0 0 .394 1.591 2.868 2.868 0 0 0 2.535 1.785.669.669 0 0 0 0-1.338z" class="cls-5" transform="translate(-2004.431 -1303.401)"/>
                    </g>
                    <path id="패스_44635" d="M2020.562 1366.826l-.1-.13-.033-.04-.015-.019c.032.04-.007-.02-.018-.03s.025.068.014.03.008.079.005.033v-.022c0 .011-.012.073 0 .023l.015-.085a2.982 2.982 0 0 0 .033-.383 7.5 7.5 0 0 0-.033-.787.229.229 0 0 0-.223-.223.225.225 0 0 0-.223.223c.021.246.036.493.033.74 0 .074 0 .148-.009.221 0 .026 0 .052-.008.079v.03c0 .01.01-.066 0-.019a.493.493 0 0 0 .036.4c.067.094.145.181.217.272a.224.224 0 0 0 .316 0 .229.229 0 0 0 0-.315z" class="cls-5" transform="translate(-2017.659 -1356.008)"/>
                </g>
                <g id="그룹_56571" transform="translate(3.199 1.318)">
                    <g id="그룹_56570">
                        <path id="패스_44636" d="M2030.494 1325.409a9.128 9.128 0 0 1 3.156-7.812c.874-.733 2.235-1.274 3.089-.518a2.354 2.354 0 0 1 .62 1.746 7.268 7.268 0 0 1-6.238 7.131" class="cls-6" transform="translate(-2029.779 -1316.053)"/>
                        <path id="패스_44637" d="M2027.336 1321.625a8.743 8.743 0 0 1-.041-1.209q.01-.288.04-.574l.019-.172c.015-.13 0-.019 0 .006.017-.114.034-.228.055-.341a9.221 9.221 0 0 1 .292-1.174q.088-.274.193-.543l.064-.161c-.01.024-.052.118 0 0s.094-.211.143-.315a9.178 9.178 0 0 1 .592-1.055q.157-.242.329-.473l.069-.092c-.092.119.026-.032.038-.046q.109-.135.222-.265a8.6 8.6 0 0 1 .857-.853l.088-.075c.017-.015.161-.126.037-.032.075-.056.151-.111.229-.162a5.144 5.144 0 0 1 .546-.306c.025-.012.118-.048 0 0 .052-.021.1-.041.158-.06.087-.03.175-.057.264-.079.051-.013.313-.051.139-.034a2.31 2.31 0 0 1 .286-.013.383.383 0 0 1 .127.008c-.116-.058-.068-.01 0 0 .041.009.082.019.122.031.007 0 .162.057.062.018s.05.028.058.032c.038.021.072.048.11.068.083.045-.1-.106.011.009l.118.118c.119.116-.053-.105.029.039.023.04.049.077.071.118s.042.081.062.123c-.06-.126-.008-.014 0 .021a2.544 2.544 0 0 1 .077.271q.016.069.028.14c.01.056.02.168.008.048a6.006 6.006 0 0 1 0 1.128l-.016.155v-.023a1.9 1.9 0 0 1-.042.257q-.052.281-.129.557-.069.251-.158.5c-.03.082-.061.162-.093.243-.064.164.059-.128-.013.032-.021.048-.042.1-.064.143a7.445 7.445 0 0 1-.533.958c-.1.146-.2.288-.3.427.1-.132-.069.084-.09.111-.067.081-.135.16-.206.238a7.6 7.6 0 0 1-.872.828c-.021.017-.161.124-.029.025l-.126.094q-.127.092-.257.179-.26.173-.535.324-.251.138-.513.254c-.026.012-.19.076-.032.014l-.145.057q-.146.056-.294.1c-.2.065-.4.121-.6.166-.1.023-.2.043-.307.061l-.1.017q-.115.017.022 0l-.1.013a.686.686 0 0 0-.669.669c.015.328.3.712.669.669a7.7 7.7 0 0 0 4.518-2.186 7.9 7.9 0 0 0 2.293-4.342 4.984 4.984 0 0 0-.209-2.772 2.113 2.113 0 0 0-.995-1.051 2.477 2.477 0 0 0-1.467-.184 4.724 4.724 0 0 0-2.43 1.34 9.55 9.55 0 0 0-1.681 2.11 9.743 9.743 0 0 0-1.326 5.87.684.684 0 0 0 .669.669.676.676 0 0 0 .669-.669z" class="cls-5" transform="translate(-2025.952 -1312.27)"/>
                    </g>
                    <path id="패스_44638" d="M2037.184 1359.2a3.674 3.674 0 0 1 1.532-2.568c.234-.163.011-.55-.225-.385a4.158 4.158 0 0 0-1.753 2.953.224.224 0 0 0 .223.223.228.228 0 0 0 .223-.223z" class="cls-5" transform="translate(-2035.134 -1349.674)"/>
                </g>
            </g>
            <ellipse id="타원_1479" cx="2.104" cy="2.064" class="cls-7" rx="2.104" ry="2.064" transform="translate(1905.135 1331.326) rotate(-7.453)"/>
            <ellipse id="타원_1480" cx="2.206" cy="2.163" class="cls-7" rx="2.206" ry="2.163" transform="translate(1890.709 1331.519) rotate(-7.453)"/>
            <g id="그룹_56573" transform="translate(1898.709 1330.72)">
                <ellipse id="타원_1481" cx=".446" cy="1.338" rx=".446" ry="1.338" transform="translate(0 0.879) rotate(-80.08)"/>
                <path id="패스_44639" d="M2015.526 1489a3.736 3.736 0 0 1-.633-.058c-.674-.118-1.359-.423-1.3-.756s.807-.387 1.481-.269 1.36.423 1.3.756c-.027.154-.2.259-.5.3a2.349 2.349 0 0 1-.348.027zm-1.086-.993c-.423 0-.683.1-.7.2-.026.153.41.449 1.181.584a3.03 3.03 0 0 0 .931.034c.262-.039.367-.12.378-.182.027-.153-.409-.449-1.181-.584a3.542 3.542 0 0 0-.609-.059z" transform="translate(-2013.588 -1487.756)"/>
            </g>
            <path id="패스_44640" d="M2020.357 1492.866a4.957 4.957 0 0 0-.244 2.037.229.229 0 0 0 .223.223.225.225 0 0 0 .223-.223 4.625 4.625 0 0 1 .228-1.918.223.223 0 1 0-.43-.119z" transform="translate(-120.417 -161.161)"/>
            <path id="패스_44641" d="M2063.9 1415.61c.041 0 .081.005.121.01l-.119-.016a1.6 1.6 0 0 1 .389.1l-.106-.045a1.7 1.7 0 0 1 .366.213l-.09-.07a1.688 1.688 0 0 1 .3.3l-.07-.09a1.582 1.582 0 0 1 .192.331l-.045-.107c.013.031.025.063.036.095a.476.476 0 0 0 .205.267.446.446 0 0 0 .655-.5 2.056 2.056 0 0 0-1.834-1.381.449.449 0 0 0-.446.446.456.456 0 0 0 .446.446z" transform="translate(-157.336 -94.769)"/>
            <path id="패스_44642" d="M1982.972 1412.9c.031-.082-.049.1-.01.022.008-.017.016-.035.025-.051a1.2 1.2 0 0 1 .063-.108l.032-.047c.029-.044-.07.083-.021.027.027-.031.055-.063.084-.093s.061-.057.093-.085c.055-.049-.071.05-.027.02l.047-.033a1.714 1.714 0 0 1 .219-.124c.067-.033-.083.031-.032.014l.054-.02c.04-.014.08-.026.121-.036s.082-.018.123-.025c.075-.014-.094.008-.039.005h.239c.042 0 .1.026-.028-.006a2.42 2.42 0 0 1 .243.063.448.448 0 0 0 .549-.311.457.457 0 0 0-.312-.548 1.839 1.839 0 0 0-2.283 1.1.448.448 0 0 0 .312.549.458.458 0 0 0 .549-.312z" transform="translate(-88.064 -92.002)"/>
            <path id="패스_44643" d="M2058.025 1491.429a.721.721 0 0 1 .106-.065c.063-.031-.021 0-.024.009s.05-.017.057-.019l.058-.014c.031-.006.073 0-.03 0 .041 0 .08-.006.12 0h.045c.058 0-.1-.017-.013 0a.957.957 0 0 1 .1.025l.059.02c.079.03-.059-.029-.008 0 .032.016.065.032.1.051s.06.041.091.061c-.091-.059-.029-.022-.007 0l.045.042c.026.026.048.054.072.08-.073-.078-.024-.031-.007-.006l.024.038.029.053c.037.074-.022-.064 0-.011a.965.965 0 0 1 .03.1c0 .014.014.084 0 .015s0 0 0 .016c0 .037-.017.176 0 .05a.365.365 0 0 0 .034.258.334.334 0 0 0 .611-.08 1.037 1.037 0 0 0-.04-.544 1.236 1.236 0 0 0-.3-.453 1.324 1.324 0 0 0-.935-.38 1.019 1.019 0 0 0-.565.182.362.362 0 0 0-.153.2.334.334 0 0 0 .491.378z" transform="translate(-152.283 -159.43)"/>
            <path id="패스_44644" d="M1976.979 1472.671a2.851 2.851 0 0 0 3.444-.527.456.456 0 0 0 0-.631.451.451 0 0 0-.631 0 2.151 2.151 0 0 1-.266.25c.062-.048-.068.044-.091.059-.051.033-.1.063-.157.092l-.09.046c-.007 0-.083.038-.039.019s-.05.019-.06.023l-.077.027c-.124.041-.249.063-.375.092-.068.016.067-.006 0 0l-.1.01c-.061 0-.122.007-.183.007s-.122 0-.183-.006l-.081-.008c-.086-.008.029.009-.022 0-.119-.029-.237-.05-.353-.089l-.076-.027c-.047-.017.05.026-.024-.01s-.121-.06-.18-.094a.446.446 0 1 0-.45.77z" transform="translate(-83.526 -143.012)"/>
            <path id="패스_44645" d="M2046.979 1474.671a2.85 2.85 0 0 0 3.444-.527.455.455 0 0 0 0-.631.45.45 0 0 0-.631 0 2.105 2.105 0 0 1-.266.25c.062-.048-.068.045-.091.06-.051.033-.1.063-.157.092l-.091.046c-.007 0-.083.038-.039.019s-.051.019-.06.023l-.077.027c-.123.041-.249.063-.375.092-.068.016.067-.005 0 0l-.1.01c-.061 0-.122.007-.183.007s-.122 0-.183-.006l-.081-.007c-.086-.008.029.009-.022 0-.119-.029-.237-.05-.353-.089l-.076-.028c-.047-.017.05.026-.024-.01s-.121-.06-.18-.094a.446.446 0 1 0-.45.77z" transform="translate(-143.12 -144.715)"/>
            <path id="패스_44646" d="M1994.2 1493.249a2.871 2.871 0 0 0 4.3.675l-.54.07a4.708 4.708 0 0 0 5.891-.874 4.1 4.1 0 0 0 .907-1.6.446.446 0 0 0-.86-.237 2.407 2.407 0 0 1-.245.594c-.05.09-.1.179-.161.264l-.1.144c-.053.072-.024.03-.011.015l-.07.085a4 4 0 0 1-.488.483 1.838 1.838 0 0 1-.211.16q-.157.109-.322.2a3.914 3.914 0 0 1-1.233.466 4.161 4.161 0 0 1-1.286.049 4.1 4.1 0 0 1-.712-.184l-.083-.032c-.071-.028 0 0-.036-.016-.061-.027-.121-.056-.18-.087a3.547 3.547 0 0 1-.346-.208.453.453 0 0 0-.541.07 1.661 1.661 0 0 1-.7.371 1.358 1.358 0 0 1-.417.06h-.227c-.045 0-.091-.006-.136-.011.063.007-.014 0-.039-.006a2.021 2.021 0 0 1-.819-.307 1.356 1.356 0 0 1-.31-.254l-.076-.082c-.025-.027-.065-.079-.029-.032a1.885 1.885 0 0 1-.147-.229.446.446 0 0 0-.77.45z" transform="translate(-98.321 -159.689)"/>
        </g>
    </g>
</svg>
