<svg data-name="그룹 66835" xmlns="http://www.w3.org/2000/svg" width="161.038" height="172.775" viewBox="0 0 161.038 172.775">
    <defs>
        <clipPath id="1elagjol8a">
            <path data-name="사각형 17511" style="fill:none" d="M0 0h161.038v172.775H0z"/>
        </clipPath>
    </defs>
    <g data-name="그룹 66834" style="clip-path:url(#1elagjol8a)">
        <path data-name="패스 50884" d="m165.83 265.84-8.225 68.335a5.856 5.856 0 0 0 5.815 6.556h74.68a5.857 5.857 0 0 0 5.815-6.557l-8.226-68.335a11.046 11.046 0 0 0-10.967-9.726H176.8a11.046 11.046 0 0 0-10.967 9.726" transform="translate(-120.238 -195.444)" style="fill:#ec1c24"/>
        <path data-name="패스 50885" d="M405.625 291.91a1.777 1.777 0 0 1-1.762-1.565l-.725-6.022a3.587 3.587 0 0 0-3.559-3.156h-9.235a1.777 1.777 0 1 1 0-3.553h9.235a7.142 7.142 0 0 1 7.086 6.284l.725 6.022a1.779 1.779 0 0 1-1.766 1.989" transform="translate(-296.522 -211.851)" style="fill:#fff"/>
        <path data-name="패스 50886" d="M222.131 640.888v6.493a5.482 5.482 0 0 1-5.482 5.482h-95.071a5.482 5.482 0 0 1-5.484-5.482v-6.493a7.746 7.746 0 0 1 2.272-5.479l5.363-5.365a3.172 3.172 0 0 1 2.236-.926h86.3a3.169 3.169 0 0 1 2.236.926l5.363 5.365a7.754 7.754 0 0 1 2.269 5.479" transform="translate(-88.593 -480.088)" style="fill:#404041"/>
        <path data-name="패스 50887" d="M511.062 196.265a4.146 4.146 0 0 1-2.712-7.283l21.317-18.416a4.146 4.146 0 0 1 5.42 6.274l-21.317 18.416a4.13 4.13 0 0 1-2.708 1.009" transform="translate(-386.833 -129.392)" style="fill:#ec1c24"/>
        <path data-name="패스 50888" d="M429.29 128.136a4.146 4.146 0 0 1-5.449-5.541l9.173-20.091a4.146 4.146 0 0 1 7.509 3.515l-9.173 20.091a4.13 4.13 0 0 1-2.06 2.026" transform="translate(-323.14 -76.399)" style="fill:#ec1c24"/>
        <path data-name="패스 50889" d="M326.551 46.871a4.145 4.145 0 0 1-4.146-4.146V4.146a4.146 4.146 0 1 1 8.291 0v38.58a4.145 4.145 0 0 1-4.146 4.146" transform="translate(-246.032)" style="fill:#ec1c24"/>
        <path data-name="패스 50890" d="M557.216 326.425a4.146 4.146 0 0 1 .759-7.734l21.3-5.84a4.145 4.145 0 0 1 2.117 8.016l-21.3 5.84a4.13 4.13 0 0 1-2.876-.282" transform="translate(-423.442 -238.635)" style="fill:#ec1c24"/>
        <path data-name="패스 50891" d="M73.369 196.265a4.146 4.146 0 0 0 2.712-7.283l-21.317-18.416a4.146 4.146 0 0 0-5.42 6.274l21.317 18.416a4.13 4.13 0 0 0 2.708 1.009" transform="translate(-36.56 -129.392)" style="fill:#ec1c24"/>
        <path data-name="패스 50892" d="M194.256 128.136a4.146 4.146 0 0 0 5.449-5.541l-9.173-20.095a4.146 4.146 0 0 0-7.509 3.515l9.177 20.095a4.13 4.13 0 0 0 2.06 2.026" transform="translate(-139.368 -76.399)" style="fill:#ec1c24"/>
        <path data-name="패스 50893" d="M27.263 326.425a4.146 4.146 0 0 0-.759-7.734l-21.3-5.84a4.145 4.145 0 0 0-2.117 8.016l21.3 5.84a4.13 4.13 0 0 0 2.876-.282" transform="translate(0 -238.635)" style="fill:#ec1c24"/>
        <path data-name="패스 50894" d="M212.82 423.531a2.233 2.233 0 0 1-.9-1.8 2.2 2.2 0 0 1 2.235-2.2 2.3 2.3 0 0 1 1.366.435 9.165 9.165 0 0 0 5.558 1.956c1.956 0 3.136-.776 3.136-2.049v-.073c0-1.211-.745-1.832-4.378-2.763-4.378-1.118-7.2-2.329-7.2-6.644v-.062c0-3.943 3.167-6.551 7.607-6.551a12.618 12.618 0 0 1 6.893 1.925 2.213 2.213 0 0 1-1.18 4.1 2.291 2.291 0 0 1-1.211-.342 9.044 9.044 0 0 0-4.564-1.459c-1.832 0-2.794.838-2.794 1.894v.062c0 1.428.931 1.894 4.688 2.856 4.409 1.149 6.893 2.732 6.893 6.52v.062c0 4.316-3.291 6.738-7.98 6.738a14.028 14.028 0 0 1-8.165-2.608" transform="translate(-161.719 -308.133)" style="fill:#fff"/>
        <path data-name="패스 50895" d="M292.419 414.823v-.062a11.555 11.555 0 0 1 23.1-.062v.062a11.555 11.555 0 0 1-23.1.062m18.1 0v-.062a6.6 6.6 0 0 0-6.582-6.831 6.5 6.5 0 0 0-6.52 6.769v.062a6.6 6.6 0 0 0 6.583 6.83 6.5 6.5 0 0 0 6.52-6.769" transform="translate(-223.149 -307.932)" style="fill:#fff"/>
        <path data-name="패스 50896" d="M396.841 423.531a2.233 2.233 0 0 1-.9-1.8 2.2 2.2 0 0 1 2.235-2.2 2.3 2.3 0 0 1 1.366.435 9.165 9.165 0 0 0 5.558 1.956c1.956 0 3.136-.776 3.136-2.049v-.073c0-1.211-.745-1.832-4.378-2.763-4.378-1.118-7.2-2.329-7.2-6.644v-.062c0-3.943 3.167-6.551 7.607-6.551a12.618 12.618 0 0 1 6.893 1.925 2.213 2.213 0 0 1-1.18 4.1 2.292 2.292 0 0 1-1.211-.342 9.044 9.044 0 0 0-4.564-1.459c-1.832 0-2.794.838-2.794 1.894v.062c0 1.428.931 1.894 4.688 2.856 4.409 1.149 6.893 2.732 6.893 6.52v.062c0 4.316-3.291 6.738-7.98 6.738a14.028 14.028 0 0 1-8.165-2.608" transform="translate(-302.148 -308.133)" style="fill:#fff"/>
        <path data-name="패스 50897" d="M138.921 694.4h-7.035a3.947 3.947 0 0 1-3.944-3.942v-1.926a1.777 1.777 0 0 1 3.553 0v1.926a.39.39 0 0 0 .391.388h7.035a1.777 1.777 0 1 1 0 3.553" transform="translate(-97.634 -524.074)" style="fill:#fff"/>
    </g>
</svg>
