<svg xmlns="http://www.w3.org/2000/svg" width="66" height="66" viewBox="0 0 66 66">
    <defs>
        <clipPath id="owshw7f3oa">
            <path data-name="사각형 24389" style="fill:none" d="M0 0h59.53v32.742H0z"/>
        </clipPath>
    </defs>
    <g data-name="그룹 67552">
        <path data-name="사각형 18077" style="fill:none" d="M0 0h66v66H0z"/>
        <g data-name="그룹 82650">
            <g data-name="그룹 82649" transform="translate(3.236 16.629)" style="clip-path:url(#owshw7f3oa)">
                <path data-name="패스 57182" d="M56.5 32.742H3.033A2.871 2.871 0 0 1 0 30.073V26.9a.8.8 0 0 1 .8-.8h.587c.772 0 1.424-.487 1.424-1.063v-.308c0-.578-.652-1.065-1.424-1.065H.8a.8.8 0 0 1-.8-.8v-4.8a.8.8 0 0 1 .8-.8h.711c.772 0 1.424-.487 1.424-1.063v-.308c0-.578-.652-1.066-1.424-1.066H.8a.8.8 0 0 1-.8-.8V9.779a.8.8 0 0 1 .8-.8h.711c.772 0 1.424-.487 1.424-1.063V7.6c0-.578-.652-1.066-1.424-1.066H.8a.8.8 0 0 1-.8-.8V2.669A2.871 2.871 0 0 1 3.033 0H56.5a2.87 2.87 0 0 1 3.03 2.669V5.73a.8.8 0 0 1-.8.8h-.991c-.77 0-1.421.489-1.421 1.066v.31c0 .576.651 1.063 1.421 1.063h.991a.8.8 0 0 1 .8.8v4.229a.8.8 0 0 1-.8.8h-.991c-.77 0-1.421.488-1.421 1.066v.308c0 .576.651 1.063 1.421 1.063h.991a.8.8 0 0 1 .8.8v4.8a.8.8 0 0 1-.8.8h-.87c-.772 0-1.423.487-1.423 1.065v.308c0 .576.651 1.063 1.423 1.063h.865a.8.8 0 0 1 .8.8v3.171a2.87 2.87 0 0 1-3.025 2.7M1.609 27.7v2.374c0 .575.652 1.06 1.424 1.06H56.5c.771 0 1.422-.485 1.422-1.06v-2.368h-.06a2.873 2.873 0 0 1-3.032-2.672v-.308a2.873 2.873 0 0 1 3.032-2.674h.06v-3.194h-.186a2.872 2.872 0 0 1-3.03-2.672v-.308a2.872 2.872 0 0 1 3.03-2.675h.186v-2.62h-.186A2.872 2.872 0 0 1 54.7 7.911V7.6a2.872 2.872 0 0 1 3.03-2.676h.186V2.669c0-.575-.651-1.06-1.422-1.06H3.033c-.772 0-1.424.485-1.424 1.06v2.257A2.862 2.862 0 0 1 4.549 7.6v.31a2.86 2.86 0 0 1-2.939 2.671V13.2a2.862 2.862 0 0 1 2.939 2.674v.308a2.861 2.861 0 0 1-2.939 2.671v3.2a2.844 2.844 0 0 1 2.815 2.668v.308A2.843 2.843 0 0 1 1.609 27.7"/>
                <path data-name="패스 57183" d="M49.189 2.43a.483.483 0 0 1-.483-.483v-.643a.483.483 0 1 1 .965 0v.642a.483.483 0 0 1-.483.483"/>
                <path data-name="패스 57184" d="M49.189 29.561a.483.483 0 0 1-.483-.483v-1.233a.483.483 0 0 1 .965 0v1.233a.483.483 0 0 1-.483.483m0-2.466a.483.483 0 0 1-.483-.483v-1.233a.483.483 0 1 1 .965 0v1.233a.483.483 0 0 1-.483.483m0-2.466a.483.483 0 0 1-.483-.483v-1.234a.483.483 0 1 1 .965 0v1.233a.483.483 0 0 1-.483.483m0-2.466a.483.483 0 0 1-.483-.483v-1.234a.483.483 0 1 1 .965 0v1.234a.483.483 0 0 1-.483.483m0-2.467a.483.483 0 0 1-.483-.483v-1.233a.483.483 0 0 1 .965 0v1.233a.483.483 0 0 1-.483.483m0-2.466a.483.483 0 0 1-.483-.483v-1.234a.483.483 0 1 1 .965 0v1.234a.483.483 0 0 1-.483.483m0-2.466a.483.483 0 0 1-.483-.483v-1.234a.483.483 0 1 1 .965 0v1.233a.483.483 0 0 1-.483.483m0-2.466a.483.483 0 0 1-.483-.483V10.58a.483.483 0 1 1 .965 0v1.233a.483.483 0 0 1-.483.483m0-2.466a.483.483 0 0 1-.483-.483V8.113a.483.483 0 1 1 .965 0v1.233a.483.483 0 0 1-.483.483m0-2.466a.483.483 0 0 1-.483-.483V5.646a.483.483 0 1 1 .965 0V6.88a.483.483 0 0 1-.483.483m0-2.467a.483.483 0 0 1-.483-.483V3.18a.483.483 0 1 1 .965 0v1.233a.483.483 0 0 1-.483.483"/>
                <path data-name="패스 57185" d="M49.189 31.439a.483.483 0 0 1-.483-.483v-.644a.483.483 0 1 1 .965 0v.644a.483.483 0 0 1-.483.483"/>
                <path data-name="패스 57186" d="M12.277 20.124V14.38h-1.665v-1.362h5.219v1.363h-1.674v5.744z"/>
                <path data-name="사각형 24388" d="M16.731 13.018h1.879v7.151h-1.879z"/>
                <path data-name="패스 57187" d="M25.469 18.121a3.156 3.156 0 0 1-1.065 1.6 2.859 2.859 0 0 1-1.8.577 2.592 2.592 0 0 1-2.356-1.143 4.7 4.7 0 0 1-.734-2.6 4.47 4.47 0 0 1 .765-2.548 2.621 2.621 0 0 1 2.334-1.139 2.756 2.756 0 0 1 2.842 2.3l-1.758.508a2.727 2.727 0 0 0-.472-1.131.809.809 0 0 0-.615-.313.993.993 0 0 0-.909.716 4 4 0 0 0-.311 1.613 3.382 3.382 0 0 0 .36 1.774 1.058 1.058 0 0 0 .9.6.819.819 0 0 0 .624-.34 3.266 3.266 0 0 0 .507-1.256z"/>
                <path data-name="패스 57188" d="M28.239 17.992v2.173H26.36v-7.147h1.879v2.374l1.683-2.378h2.076l-2.057 2.8 2.235 4.355h-1.977l-1.461-2.841z"/>
                <path data-name="패스 57189" d="M38.125 18.825v1.367h-4.173q-.623 0-.763-.241a1.5 1.5 0 0 1-.14-.734v-4.836h-.312l.312-1.363h4.961v1.363h-3.083v1.4h2.842v1.361h-2.842v1.683z"/>
                <path data-name="패스 57190" d="M40.388 20.124V14.38h-1.666v-1.362h5.219v1.363h-1.674v5.744z"/>
            </g>
        </g>
    </g>
</svg>
