<svg xmlns="http://www.w3.org/2000/svg" width="39.763" height="39.763" viewBox="0 0 39.763 39.763">
  <g id="그룹_56758" data-name="그룹 56758" transform="translate(0 0)">
    <rect id="사각형_787" data-name="사각형 787" width="39.763" height="39.763" transform="translate(0 0)" fill="none"/>
    <g id="그룹_55592" data-name="그룹 55592" transform="translate(3.181 3.977)">
      <g id="그룹_55581" data-name="그룹 55581">
        <g id="그룹_55580" data-name="그룹 55580">
          <g id="그룹_55579" data-name="그룹 55579">
            <path id="패스_36611" data-name="패스 36611" d="M743.55,698.1H719.623a.5.5,0,0,1-.5-.5V672.2a.5.5,0,0,1,.174-.38l6.793-5.863a.5.5,0,0,1,.329-.122H743.55a.5.5,0,0,1,.5.5V697.6A.5.5,0,0,1,743.55,698.1Zm-23.423-1.007h22.92V666.846H726.6l-6.477,5.59Z" transform="translate(-719.12 -665.839)" fill="#272727"/>
          </g>
          <path id="패스_36612" data-name="패스 36612" d="M727.019,674.049h-6.585a.5.5,0,1,1,0-1.007h6.082v-5.384a.5.5,0,0,1,1.007,0v5.887A.5.5,0,0,1,727.019,674.049Z" transform="translate(-719.387 -666.272)" fill="#272727"/>
        </g>
      </g>
      <g id="그룹_55583" data-name="그룹 55583" transform="translate(2.986 10.344)">
        <rect id="사각형_10286" data-name="사각형 10286" width="2.58" height="2.58" transform="translate(0.397 0.398)" fill="#fff"/>
        <path id="패스_28226" data-name="패스 28226" d="M726.547,684.629h-2.58a.4.4,0,0,1-.4-.4h0v-2.58a.4.4,0,0,1,.4-.4h2.58a.4.4,0,0,1,.4.4h0v2.58a.4.4,0,0,1-.4.4Zm-2.183-.794h1.788v-1.786h-1.788Z" transform="translate(-723.57 -681.254)" fill="#363436"/>
      </g>
      <g id="그룹_55584" data-name="그룹 55584" transform="translate(7.932 11.634)">
        <line id="선_1070" data-name="선 1070" x2="12.939" transform="translate(0.381 0.397)" fill="none"/>
        <path id="패스_28227" data-name="패스 28227" d="M744.26,683.971H731.321a.4.4,0,0,1,0-.794H744.26a.4.4,0,0,1,0,.794Z" transform="translate(-730.94 -683.177)" fill="#363436"/>
      </g>
      <g id="그룹_55585" data-name="그룹 55585" transform="translate(2.986 15.297)">
        <rect id="사각형_10287" data-name="사각형 10287" width="2.58" height="2.58" transform="translate(0.397 0.398)" fill="#fff"/>
        <path id="패스_28228" data-name="패스 28228" d="M726.547,692.01h-2.58a.4.4,0,0,1-.4-.4h0v-2.58a.4.4,0,0,1,.4-.4h2.58a.4.4,0,0,1,.4.4h0v2.58a.4.4,0,0,1-.4.4Zm-2.183-.794h1.788v-1.786h-1.788Z" transform="translate(-723.57 -688.635)" fill="#363436"/>
      </g>
      <g id="그룹_55586" data-name="그룹 55586" transform="translate(7.932 16.588)">
        <line id="선_1071" data-name="선 1071" x2="12.939" transform="translate(0.381 0.397)" fill="none"/>
        <path id="패스_28229" data-name="패스 28229" d="M744.26,691.353H731.321a.4.4,0,0,1,0-.794H744.26a.4.4,0,0,1,0,.794Z" transform="translate(-730.94 -690.559)" fill="#363436"/>
      </g>
      <g id="그룹_55587" data-name="그룹 55587" transform="translate(2.986 20.251)">
        <rect id="사각형_10288" data-name="사각형 10288" width="2.58" height="2.58" transform="translate(0.397 0.397)" fill="#fff"/>
        <path id="패스_28230" data-name="패스 28230" d="M726.547,699.392h-2.58a.4.4,0,0,1-.4-.4h0v-2.58a.4.4,0,0,1,.4-.4h2.58a.4.4,0,0,1,.4.4h0v2.58a.4.4,0,0,1-.4.4Zm-2.183-.791h1.788v-1.786h-1.788Z" transform="translate(-723.57 -696.017)" fill="#363436"/>
      </g>
      <g id="그룹_55588" data-name="그룹 55588" transform="translate(7.932 21.541)">
        <line id="선_1072" data-name="선 1072" x2="12.939" transform="translate(0.381 0.397)" fill="none"/>
        <path id="패스_28231" data-name="패스 28231" d="M744.26,698.734H731.321a.4.4,0,0,1,0-.794H744.26a.4.4,0,0,1,0,.794Z" transform="translate(-730.94 -697.94)" fill="#363436"/>
      </g>
      <g id="그룹_55589" data-name="그룹 55589" transform="translate(2.986 25.203)">
        <rect id="사각형_10289" data-name="사각형 10289" width="2.58" height="2.58" transform="translate(0.397 0.398)" fill="#fff"/>
        <path id="패스_28232" data-name="패스 28232" d="M726.547,706.773h-2.58a.4.4,0,0,1-.4-.4h0V703.8a.4.4,0,0,1,.4-.4h2.58a.4.4,0,0,1,.4.4h0v2.58a.4.4,0,0,1-.4.4Zm-2.183-.794h1.788v-1.786h-1.788Z" transform="translate(-723.57 -703.398)" fill="#363436"/>
      </g>
      <g id="그룹_55590" data-name="그룹 55590" transform="translate(7.932 26.495)">
        <line id="선_1073" data-name="선 1073" x2="12.939" transform="translate(0.381 0.397)" fill="none"/>
        <path id="패스_28233" data-name="패스 28233" d="M744.26,706.117H731.321a.4.4,0,0,1,0-.794H744.26a.4.4,0,0,1,0,.794Z" transform="translate(-730.94 -705.322)" fill="#363436"/>
      </g>
    </g>
    <g id="그룹_55594" data-name="그룹 55594" transform="translate(21.229 22.264)">
      <path id="패스_36648" data-name="패스 36648" d="M240.311,240.147a6.912,6.912,0,1,1-6.913-6.912A6.913,6.913,0,0,1,240.311,240.147Z" transform="translate(-226.282 -233.03)" fill="#d9a836"/>
      <path id="패스_36649" data-name="패스 36649" d="M233.1,246.969a7.117,7.117,0,1,1,7.118-7.117A7.125,7.125,0,0,1,233.1,246.969Zm0-13.824a6.707,6.707,0,1,0,6.708,6.707A6.714,6.714,0,0,0,233.1,233.145Z" transform="translate(-225.987 -232.735)" fill="#222" stroke="#222" stroke-width="0.5"/>
    </g>
    <g id="그룹_55595" data-name="그룹 55595" transform="translate(18.664 22.264)">
      <path id="패스_36650" data-name="패스 36650" d="M237.311,240.147a6.912,6.912,0,1,1-6.913-6.912A6.913,6.913,0,0,1,237.311,240.147Z" transform="translate(-223.077 -233.03)" fill="#ffdb67" stroke="#222" stroke-width="0.5"/>
      <path id="패스_36651" data-name="패스 36651" d="M230.1,246.969a7.117,7.117,0,1,1,7.118-7.117A7.125,7.125,0,0,1,230.1,246.969Zm0-13.824a6.707,6.707,0,1,0,6.708,6.707A6.714,6.714,0,0,0,230.1,233.145Z" transform="translate(-222.987 -232.735)" fill="#222" stroke="#222" stroke-width="0.5"/>
    </g>
    <text id="_" data-name="￦" transform="translate(28.472 31.063)" fill="#bf7900" font-size="7" font-family="NotoSansCJKkr-Bold, Noto Sans CJK KR" font-weight="700" letter-spacing="-0.02em"><tspan x="-7" y="0">￦</tspan></text>
    <path id="패스_36654" data-name="패스 36654" d="M259.34,232.587h-1.017a.44.44,0,1,1,0-.879h1.017a.44.44,0,0,1,0,.879Z" transform="translate(-222.84 -208.805)" fill="#ffc157"/>
    <path id="패스_36655" data-name="패스 36655" d="M262.551,232.587h-1.015a.44.44,0,0,1,0-.879h1.015a.44.44,0,1,1,0,.879Z" transform="translate(-223.228 -208.805)" fill="#ffc157"/>
    <path id="패스_36656" data-name="패스 36656" d="M260.509,231.419a.44.44,0,0,1-.44-.44v-1.017a.44.44,0,0,1,.879,0v1.017A.439.439,0,0,1,260.509,231.419Z" transform="translate(-223.104 -208.541)" fill="#ffc157"/>
    <path id="패스_36657" data-name="패스 36657" d="M260.509,234.63a.44.44,0,0,1-.44-.44v-1.016a.44.44,0,0,1,.879,0v1.016A.439.439,0,0,1,260.509,234.63Z" transform="translate(-223.104 -208.929)" fill="#ffc157"/>
    <g id="그룹_55599" data-name="그룹 55599" transform="translate(29.616 16.824)">
      <path id="패스_36654-2" data-name="패스 36654" d="M258.9,232.32h-.707a.306.306,0,1,1,0-.612h.707a.306.306,0,0,1,0,.612Z" transform="translate(-257.884 -230.371)" fill="#ffc651"/>
      <path id="패스_36655-2" data-name="패스 36655" d="M262.109,232.32H261.4a.306.306,0,1,1,0-.612h.706a.306.306,0,1,1,0,.612Z" transform="translate(-259.131 -230.371)" fill="#ffc651"/>
      <path id="패스_36656-2" data-name="패스 36656" d="M260.375,230.842a.306.306,0,0,1-.306-.306v-.707a.306.306,0,0,1,.612,0v.707A.306.306,0,0,1,260.375,230.842Z" transform="translate(-258.732 -229.523)" fill="#ffc651"/>
      <path id="패스_36657-2" data-name="패스 36657" d="M260.375,234.053a.306.306,0,0,1-.306-.306v-.707a.306.306,0,0,1,.612,0v.707A.306.306,0,0,1,260.375,234.053Z" transform="translate(-258.732 -230.77)" fill="#ffc651"/>
    </g>
  </g>
</svg>
