<svg xmlns="http://www.w3.org/2000/svg" width="100" height="100" viewBox="0 0 100 100">
    <circle data-name="타원 86" cx="50" cy="50" r="50" style="fill:#e1e1e1"/>
    <g data-name="그룹 521">
        <g data-name="그룹 520">
            <g data-name="그룹 519">
                <path data-name="패스 1501" d="M1070.957 1929.982c0 9.924-3.18 13.873-9.007 15.523-.163.046-.166.216.014.262a18.741 18.741 0 0 0 4.578.5c8.762 0 15.264-6 15.264-16.284v-34.32h-10.849z" transform="translate(-1008.066 -1862.032)" style="fill:#fff"/>
            </g>
            <path data-name="패스 1502" d="M1056.284 1911.628c-9.671-6.092-10.5-7.283-10.5-9.4 0-1.994 2.2-4.314 8.745-6.261.232-.07.255-.275-.031-.29-9.95-.539-16.968 4.552-16.968 10.264 0 4.159 1.522 6.743 11.463 13.005 9.738 6.134 10.8 7.307 10.8 9.558 0 2.748-3.155 5.482-8.972 7.213-.242.07-.266.285.032.3 10.829.584 17.535-4.858 17.535-10.559-.004-3.915-1.535-7.173-12.104-13.83z" transform="translate(-1014.515 -1862.039)" style="fill:#fff"/>
        </g>
        <path data-name="패스 1503" d="M1045.652 1921.084a13.3 13.3 0 0 0-8.3-4.1.205.205 0 0 0-.174.043.21.21 0 0 0-.061.167 12.532 12.532 0 0 0 11.51 12.784.216.216 0 0 0 .173-.044.2.2 0 0 0 .06-.167 13.3 13.3 0 0 0-3.208-8.683z" transform="translate(-1014.622 -1856.376)" style="fill:#fff"/>
        <path data-name="패스 1504" d="M1060.959 1900.03a13.3 13.3 0 0 0-8.3-4.1.2.2 0 0 0-.172.044.206.206 0 0 0-.062.167 12.529 12.529 0 0 0 11.51 12.782.2.2 0 0 0 .173-.042.21.21 0 0 0 .061-.168 13.3 13.3 0 0 0-3.21-8.683z" transform="translate(-1010.561 -1861.963)" style="fill:#fff"/>
        <path data-name="패스 1505" d="M1076.67 1884.126a16.723 16.723 0 0 0-10.431-5.162.261.261 0 0 0-.217.055.268.268 0 0 0-.077.211 15.756 15.756 0 0 0 14.473 16.073.239.239 0 0 0 .294-.264 16.724 16.724 0 0 0-4.042-10.913z" transform="translate(-1006.974 -1866.463)" style="fill:#fff"/>
    </g>
</svg>
