<svg xmlns="http://www.w3.org/2000/svg" width="100" height="100" viewBox="0 0 100 100">
    <circle data-name="타원 69" cx="50" cy="50" r="50" style="fill:#e1e1e1"/>
    <path data-name="패스 50319" d="M345.311 2055.314H339.2v29.909h6.116v-29.909z" transform="translate(-296.838 -2014.555)" style="fill-rule:evenodd;fill:#fff"/>
    <path data-name="패스 50320" d="M368.44 2041.469v5.608h5.149v16.873a8.238 8.238 0 0 0 1.869 5.608 6.3 6.3 0 0 0 4.936 2.23 9.678 9.678 0 0 0 5.411-1.361l.1-.049v-.1l1.459-5.69-.361.229a8.818 8.818 0 0 1-4.526 1.493c-1.9 0-2.869-1.132-2.869-3.362v-15.873h6.247v-5.608h-6.247v-9.346l-6.018 3.23v6.116z" transform="translate(-314.358 -2000.66)" style="fill-rule:evenodd;fill:#fff"/>
    <path data-name="패스 50321" d="M433.055 2055.314h-6.166v29.909h6.166v-29.909z" transform="translate(-349.375 -2014.555)" style="fill-rule:evenodd;fill:#fff"/>
    <path data-name="패스 50322" d="m291.063 2059.285-.131-.1a13.113 13.113 0 0 0-10.576-5.1 15.566 15.566 0 0 0-10.987 4.05q-4.649 4.255-4.657 11.445a14.819 14.819 0 0 0 4.657 11.446 15.462 15.462 0 0 0 10.987 4.017 13.178 13.178 0 0 0 10.576-5.067l.131-.1-3.46-4.182-.131.132a10.21 10.21 0 0 1-7.248 3.377 8.961 8.961 0 0 1-6.706-2.738 9.318 9.318 0 0 1-2.64-6.887 9.484 9.484 0 0 1 2.64-6.936 9.107 9.107 0 0 1 6.706-2.689 10.21 10.21 0 0 1 7.248 3.377l.131.131 3.46-4.182z" transform="translate(-252.214 -2013.818)" style="fill-rule:evenodd;fill:#fff"/>
    <path data-name="패스 50323" d="M336.086 2023.685a25.475 25.475 0 0 1 8.166-5.657 23.369 23.369 0 0 1 9.346-1.9 23.892 23.892 0 0 1 9.4 1.9 25.949 25.949 0 0 1 8.1 5.657l.1.082h7.018l-.263-.41a30.075 30.075 0 0 0-10.724-9.281 29.455 29.455 0 0 0-27.269 0 29.885 29.885 0 0 0-10.707 9.281l-.279.41h7.067l.049-.082z" transform="translate(-290.711 -1987.844)" style="fill:#fcfcfc;fill-rule:evenodd"/>
</svg>
