<svg xmlns="http://www.w3.org/2000/svg" width="28.5" height="26.5" viewBox="0 0 28.5 26.5">
    <defs>
        <style>
            .cls-1{fill:#fff;stroke:#fff;stroke-width:.5px}
        </style>
    </defs>
    <g id="그룹_63436" data-name="그룹 63436" transform="translate(-967.092 -88.626)">
        <g id="그룹_57740" data-name="그룹 57740" transform="translate(967.342 91.432)">
            <path id="패스_45932" data-name="패스 45932" class="cls-1" d="M993.177 122.269h-23.671a2.158 2.158 0 0 1-2.164-2.147v-19.15a2.158 2.158 0 0 1 2.164-2.147h23.671a2.158 2.158 0 0 1 2.164 2.147v19.15a2.158 2.158 0 0 1-2.164 2.147zm-23.671-21.717a.427.427 0 0 0-.423.42v19.15a.427.427 0 0 0 .423.42h23.671a.427.427 0 0 0 .423-.42v-19.15a.427.427 0 0 0-.423-.42z" transform="translate(-967.342 -98.825)"/>
        </g>
        <path id="패스_45933" data-name="패스 45933" class="cls-1" d="M994.588 93.538a1.217 1.217 0 0 1-1.168 1.262 1.218 1.218 0 0 1-1.168-1.261v-3.4a1.218 1.218 0 0 1 1.168-1.261 1.217 1.217 0 0 1 1.168 1.261z" transform="translate(-18.458)"/>
        <path id="패스_45934" data-name="패스 45934" class="cls-1" d="M1044.7 93.538a1.217 1.217 0 0 1-1.168 1.261 1.217 1.217 0 0 1-1.168-1.261v-3.4a1.217 1.217 0 0 1 1.168-1.261 1.217 1.217 0 0 1 1.168 1.261z" transform="translate(-55.594)"/>
        <path id="패스_45935" data-name="패스 45935" class="cls-1" d="M1019.645 93.538a1.218 1.218 0 0 1-1.169 1.261 1.217 1.217 0 0 1-1.168-1.261v-3.4a1.217 1.217 0 0 1 1.168-1.261 1.218 1.218 0 0 1 1.169 1.261z" transform="translate(-37.025)"/>
        <g id="그룹_57741" data-name="그룹 57741" transform="translate(967.591 98.178)">
            <path id="패스_45936" data-name="패스 45936" class="cls-1" d="M994.935 116.81h-25.762a.864.864 0 1 1 0-1.727h25.762a.864.864 0 1 1 0 1.727z" transform="translate(-968.303 -115.083)"/>
        </g>
    </g>
</svg>
