<svg xmlns="http://www.w3.org/2000/svg" xmlns:xlink="http://www.w3.org/1999/xlink" width="43.841" height="63.845" viewBox="0 0 43.841 63.845">
  <defs>
    <clipPath id="clip-path">
      <rect id="사각형_18072" data-name="사각형 18072" width="43.841" height="63.845" fill="none"/>
    </clipPath>
  </defs>
  <g id="그룹_67547" data-name="그룹 67547" transform="translate(0 0)">
    <g id="그룹_67547-2" data-name="그룹 67547" transform="translate(0 0)" clip-path="url(#clip-path)">
      <path id="패스_51227" data-name="패스 51227" d="M29.3,58.835c-.031,0-.063,0-.1,0a1.194,1.194,0,0,1-1.033-.756l-6.452-17.1a1.138,1.138,0,0,1,.716-1.473l12.184-4.279a1.257,1.257,0,0,1,.919.037,1.171,1.171,0,0,1,.621.653l6.452,17.1a1.117,1.117,0,0,1-.287,1.214,1.237,1.237,0,0,1-1.27.253l-7.04-2.593-3.665,6.354a1.211,1.211,0,0,1-1.05.594M24.384,41.272,29.53,54.908l2.892-5.014a1.221,1.221,0,0,1,1.48-.517l5.561,2.049-5.148-13.64Z" transform="translate(0 -1.421)"/>
      <path id="패스_51228" data-name="패스 51228" d="M13.393,65.267a1.2,1.2,0,0,1-1.117-.728l-3.1-7.526L1.784,60.851a1.24,1.24,0,0,1-1.353-.14,1.12,1.12,0,0,1-.347-1.263L8.935,35.917a1.168,1.168,0,0,1,.621-.653,1.246,1.246,0,0,1,.92-.038L22.66,39.5a1.139,1.139,0,0,1,.717,1.472L14.522,64.506a1.2,1.2,0,0,1-1.112.761ZM9.793,54.23a1.25,1.25,0,0,1,.41.069,1.181,1.181,0,0,1,.706.659l2.433,5.9,7.372-19.587-9.931-3.487L3.41,57.387,9.222,54.37a1.239,1.239,0,0,1,.571-.139" transform="translate(0 -1.421)"/>
      <path id="패스_51229" data-name="패스 51229" d="M21.92,43.079c-2.107,0-3.463-4.42-5.364-5.016-1.97-.617-5.756,2.168-7.4,1.016s-.074-5.505-1.279-7.1S1.909,30.513,1.27,28.612c-.617-1.834,3.3-4.44,3.3-6.472S.656,17.5,1.27,15.668c.64-1.9,5.414-1.784,6.607-3.366,1.2-1.6-.377-5.94,1.279-7.1,1.641-1.151,5.426,1.631,7.4,1.016,1.9-.6,3.257-5.016,5.364-5.016s3.463,4.42,5.364,5.016c1.97.617,5.756-2.168,7.4-1.016s.074,5.505,1.279,7.1,5.968,1.465,6.608,3.366c.617,1.834-3.3,4.44-3.3,6.472s3.914,4.639,3.3,6.472c-.64,1.9-5.415,1.784-6.608,3.366-1.205,1.6.377,5.94-1.279,7.1-1.64,1.151-5.426-1.631-7.4-1.016-1.9.6-3.257,5.016-5.364,5.016" transform="translate(0 -0.049)" fill="#fff"/>
      <path id="패스_51230" data-name="패스 51230" d="M21.921,44.182c-1.784,0-2.948-1.649-3.975-3.1-.542-.768-1.286-1.821-1.763-1.97a6.646,6.646,0,0,0-2.748.6c-1.766.6-3.593,1.229-4.986.253S7.1,37.1,7.158,35.287A5.985,5.985,0,0,0,6.906,32.6a6.653,6.653,0,0,0-2.534-1.036c-1.737-.49-3.7-1.046-4.244-2.651C-.393,27.368.775,25.9,1.9,24.489c.653-.818,1.466-1.836,1.466-2.4s-.813-1.581-1.466-2.4C.776,18.276-.391,16.813.127,15.267c.542-1.608,2.508-2.163,4.245-2.653a6.64,6.64,0,0,0,2.533-1.036,5.977,5.977,0,0,0,.253-2.685C7.1,7.079,7.05,5.2,8.449,4.221s3.216-.352,4.982.254a6.607,6.607,0,0,0,2.755.6c.474-.148,1.217-1.2,1.76-1.969C18.973,1.649,20.137,0,21.921,0S24.868,1.648,25.9,3.1c.542.769,1.286,1.822,1.763,1.971a6.588,6.588,0,0,0,2.749-.6c1.766-.6,3.592-1.23,4.984-.256s1.346,2.86,1.292,4.673a5.983,5.983,0,0,0,.252,2.683,6.637,6.637,0,0,0,2.534,1.037c1.737.49,3.7,1.045,4.245,2.65.52,1.549-.648,3.013-1.777,4.427-.653.819-1.466,1.836-1.466,2.4s.813,1.582,1.466,2.4c1.128,1.414,2.295,2.877,1.778,4.424-.542,1.607-2.51,2.163-4.247,2.653A6.639,6.639,0,0,0,36.935,32.6a5.99,5.99,0,0,0-.252,2.684c.054,1.815.109,3.691-1.291,4.671s-3.218.351-4.982-.253a6.609,6.609,0,0,0-2.755-.6c-.474.148-1.217,1.2-1.76,1.968-1.027,1.455-2.191,3.1-3.974,3.1M15.9,36.772a3.4,3.4,0,0,1,1.023.147c1.258.394,2.146,1.651,3.005,2.868.553.782,1.478,2.091,1.988,2.091s1.435-1.31,1.988-2.092c.858-1.216,1.747-2.473,3-2.867,1.3-.407,2.83.113,4.3.619.894.306,2.4.821,2.758.563.382-.268.336-1.82.31-2.747-.044-1.5-.09-3.044.707-4.1s2.319-1.478,3.8-1.9c.93-.262,2.487-.7,2.638-1.15.133-.4-.864-1.647-1.4-2.318-.964-1.207-1.96-2.456-1.96-3.8s1-2.592,1.96-3.8c.536-.671,1.533-1.92,1.4-2.319-.15-.447-1.707-.886-2.636-1.148-1.481-.418-3.013-.85-3.8-1.9s-.75-2.6-.706-4.1c.026-.928.072-2.481-.31-2.748-.364-.258-1.867.258-2.761.564-1.473.5-3,1.026-4.3.617-1.258-.394-2.146-1.651-3-2.867C23.355,3.612,22.43,2.3,21.921,2.3S20.485,3.613,19.932,4.4c-.858,1.215-1.747,2.472-3,2.866-1.307.406-2.831-.114-4.3-.618-.9-.307-2.4-.821-2.76-.563-.381.267-.335,1.819-.309,2.746.044,1.5.09,3.045-.707,4.1s-2.32,1.479-3.8,1.9c-.93.262-2.487.7-2.638,1.149-.133.4.864,1.647,1.4,2.318.964,1.207,1.96,2.457,1.96,3.8s-1,2.592-1.96,3.8c-.536.671-1.533,1.92-1.4,2.319.15.447,1.707.887,2.638,1.149,1.48.418,3.01.849,3.8,1.9s.751,2.6.707,4.1c-.026.927-.072,2.48.31,2.748.365.255,1.865-.257,2.763-.564a10.669,10.669,0,0,1,3.276-.765" transform="translate(0 0)"/>
      <path id="패스_51231" data-name="패스 51231" d="M19.5,30.528a1.565,1.565,0,0,1-1.121-.465L11.7,23.25a.581.581,0,0,1,.024-.843.634.634,0,0,1,.87.019l0,0,6.679,6.813a.329.329,0,0,0,.37.056L30.39,14.286a.632.632,0,0,1,.855-.154l0,0a.583.583,0,0,1,.157.829L20.6,30.061a.613.613,0,0,1-.109.116,1.569,1.569,0,0,1-.992.35" transform="translate(0 -0.567)"/>
      <path id="패스_51232" data-name="패스 51232" d="M19.5,30.528a1.565,1.565,0,0,1-1.121-.465L11.7,23.25a.581.581,0,0,1,.024-.843.634.634,0,0,1,.87.019l0,0,6.679,6.813a.329.329,0,0,0,.37.056L30.39,14.286a.632.632,0,0,1,.855-.154l0,0a.583.583,0,0,1,.157.829L20.6,30.061a.613.613,0,0,1-.109.116,1.569,1.569,0,0,1-.992.35" transform="translate(0 -0.567)" fill="none" stroke="#000" stroke-linejoin="round" stroke-width="1"/>
    </g>
  </g>
</svg>
