<svg xmlns="http://www.w3.org/2000/svg" width="110" height="110" viewBox="0 0 110 110">
    <defs>
        <style>
            .cls-2{fill:#fff}
        </style>
    </defs>
    <g id="ico_more_normal_b_4" transform="translate(-616 -1062)">
        <path id="사각형_10296" data-name="사각형 10296" transform="translate(616 1062)" style="fill:none" d="M0 0h110v110H0z"/>
        <g id="그룹_23756" data-name="그룹 23756" transform="translate(623.175 1071.988)">
            <g id="그룹_23756-2" data-name="그룹 23756" transform="translate(15.254)">
                <path id="패스_28157" data-name="패스 28157" class="cls-2" d="M206.934 320.263v-6.155a24.441 24.441 0 0 1 24.441-24.439h12.375a24.441 24.441 0 0 1 24.441 24.439v6.155" transform="translate(-203.945 -286.68)"/>
                <path id="패스_28158" data-name="패스 28158" d="M272.92 322h-5.978v-6.15a21.477 21.477 0 0 0-21.452-21.45h-12.375a21.476 21.476 0 0 0-21.452 21.452V322h-5.978v-6.15a27.461 27.461 0 0 1 27.431-27.431h12.374a27.461 27.461 0 0 1 27.43 27.431z" transform="translate(-205.684 -288.419)"/>
            </g>
            <g id="그룹_23757" data-name="그룹 23757" transform="translate(0 30.594)">
                <path id="패스_28159" data-name="패스 28159" d="M217.548 337.57h-5.971A12.285 12.285 0 0 1 199.3 325.3v-11.815a12.287 12.287 0 0 1 12.272-12.272h5.971a2.989 2.989 0 0 1 2.989 2.989v30.379a2.987 2.987 0 0 1-2.984 2.989zm-5.971-30.379a6.3 6.3 0 0 0-6.294 6.294V325.3a6.3 6.3 0 0 0 6.294 6.292h2.982v-24.4z" transform="translate(-199.305 -301.213)"/>
            </g>
            <g id="그룹_23758" data-name="그룹 23758" transform="translate(76.512 30.594)">
                <path id="패스_28160" data-name="패스 28160" d="M240.261 337.57h-5.971a2.987 2.987 0 0 1-2.989-2.989V304.2a2.989 2.989 0 0 1 2.989-2.989h5.971a12.288 12.288 0 0 1 12.272 12.272V325.3a12.286 12.286 0 0 1-12.272 12.27zm-2.982-5.978h2.982a6.3 6.3 0 0 0 6.294-6.292v-11.815a6.3 6.3 0 0 0-6.294-6.294h-2.982z" transform="translate(-231.301 -301.213)"/>
            </g>
            <g id="그룹_23759" data-name="그룹 23759" transform="translate(57.26 63.963)">
                <path id="패스_28161" data-name="패스 28161" class="cls-2" d="M245.491 315.168v5.416a11.182 11.182 0 0 1-11.184 11.182H223.25" transform="translate(-223.25 -315.166)"/>
                <path id="패스_28162" data-name="패스 28162" d="M234.31 334.757h-11.06v-5.978h11.06a8.2 8.2 0 0 0 8.193-8.193v-5.419h5.978v5.419a14.187 14.187 0 0 1-14.171 14.171z" transform="translate(-223.25 -315.167)"/>
            </g>
            <g id="그룹_23760" data-name="그룹 23760" transform="translate(41.317 71.098)">
                <circle id="타원_605" data-name="타원 605" class="cls-2" cx="6.477" cy="6.477" r="6.477" transform="translate(2.991 2.989)"/>
                <path id="패스_28163" data-name="패스 28163" d="M226.05 337.083a9.466 9.466 0 1 1 9.465-9.467 9.478 9.478 0 0 1-9.465 9.467zm0-12.954a3.488 3.488 0 1 0 3.487 3.487 3.492 3.492 0 0 0-3.487-3.487z" transform="translate(-216.583 -318.151)"/>
            </g>
        </g>
    </g>
</svg>
