<svg xmlns="http://www.w3.org/2000/svg" width="44" height="70">
    <defs>
        <clipPath id="a">
            <path data-name="사각형 13511" transform="translate(73 487)" style="fill:#fff" d="M0 0h44v70H0z"/>
        </clipPath>
    </defs>
    <g data-name="마스크 그룹 48" transform="translate(-73 -487)" style="clip-path:url(#a)">
        <g data-name="그룹 57632" transform="translate(0 73)">
            <ellipse data-name="타원 1694" cx="21" cy="5.598" rx="21" ry="5.598" transform="translate(74 471.402)" style="fill:#bfbfbf"/>
            <path data-name="빼기 3" d="M95 475c-.219-.163-1.656-1.553-3.625-3.721a100.719 100.719 0 0 1-7.2-8.933 68.675 68.675 0 0 1-7.032-12.13A33.164 33.164 0 0 1 74 436.9c0-12.076 9.406-21.9 21-21.9 11.578 0 21 9.83 21 21.913a33.063 33.063 0 0 1-3.25 13.394 72.155 72.155 0 0 1-7.219 12.266A104.639 104.639 0 0 1 95 475zm.25-48a9.393 9.393 0 1 0 9.186 9.6v-.2a9.3 9.3 0 0 0-9.186-9.4z"/>
        </g>
    </g>
</svg>
