<svg xmlns="http://www.w3.org/2000/svg" width="50" height="50" viewBox="0 0 50 50">
    <g data-name="그룹 84124">
        <g data-name="그룹 84006">
            <g data-name="OFF_돋보기 40px">
                <path data-name="사각형 12778" style="fill:none" d="M0 0h50v50H0z"/>
            </g>
        </g>
        <path data-name="패스 61083" d="M41.679 18.134v.5-.5H40.5v-1.265A12.929 12.929 0 0 0 27.629 3.998h-5.717A12.929 12.929 0 0 0 9.045 16.87v1.256H7.866A5.9 5.9 0 0 0 2 23.998v5.459a5.9 5.9 0 0 0 5.869 5.861h2.757a1.583 1.583 0 0 0 1.58-1.58V16.871a9.757 9.757 0 0 1 9.708-9.709h5.713a9.759 9.759 0 0 1 9.71 9.708v19.373a3.6 3.6 0 0 1-3.583 3.585h-3.835a4.56 4.56 0 1 0-4.27 6.158 4.558 4.558 0 0 0 4.276-2.988h3.833a6.782 6.782 0 0 0 6.742-6.75v-.93h1.18a5.9 5.9 0 0 0 5.868-5.863v-5.457a5.9 5.9 0 0 0-5.869-5.865m2.7 5.86v5.456a2.72 2.72 0 0 1-2.707 2.707H40.5V21.287h1.175a2.722 2.722 0 0 1 2.709 2.711M9.045 21.287v10.87H7.869a2.722 2.722 0 0 1-2.708-2.706v-5.453a2.724 2.724 0 0 1 2.707-2.709zm18.019 20.124a1.41 1.41 0 0 1-1.411 1.412 1.41 1.41 0 0 1-1.41-1.41 1.411 1.411 0 0 1 2.822 0"/>
    </g>
</svg>
