<svg xmlns="http://www.w3.org/2000/svg" width="50" height="50" viewBox="0 0 50 50">
    <g data-name="그룹 84123">
        <path data-name="사각형 23001" style="fill:none" d="M0 0h50v50H0z"/>
        <g data-name="그룹 83626">
            <path data-name="사각형 1717" style="fill:none" d="M0 0h50v50H0z"/>
        </g>
        <g data-name="그룹 84122">
            <path data-name="패스 61081" d="m45.789 19.989-.14.441.082-.456-3.3-.59-.017-.048a18.753 18.753 0 0 0-1.089-2.626l-.024-.046 1.737-2.433a3.148 3.148 0 0 0-.333-4.079L39.886 7.33a3.162 3.162 0 0 0-2.231-.931 2.867 2.867 0 0 0-1.831.583l-2.451 1.746-.045-.024a18.072 18.072 0 0 0-2.749-1.13l-.541-2.926A3.118 3.118 0 0 0 26.944 2h-4.043a3.115 3.115 0 0 0-3.094 2.637l-.511 3-.05.017a18.094 18.094 0 0 0-2.625 1.1l-.048.025-2.416-1.735a3.118 3.118 0 0 0-4.078.333L7.25 10.2a3.128 3.128 0 0 0-.339 4.076l1.762 2.477-.023.047a18 18 0 0 0-1.076 2.644l-2.926.539A3.156 3.156 0 0 0 2.001 23.1v3.981a3.156 3.156 0 0 0 2.639 3.13l3 .511.017.049a17.956 17.956 0 0 0 1.11 2.629l.025.047-1.736 2.4a3.151 3.151 0 0 0 .334 4.078l2.817 2.813a3.142 3.142 0 0 0 4.072.353l2.469-1.763.047.023a18.115 18.115 0 0 0 2.536 1.038l.542 2.968A3.118 3.118 0 0 0 22.964 48h4.083a3.112 3.112 0 0 0 3.07-2.635l.505-2.959.049-.016a18.525 18.525 0 0 0 2.636-1.09l.046-.024 2.436 1.738a3.153 3.153 0 0 0 4.079-.331l2.82-2.818a3.132 3.132 0 0 0 .34-4.077l-1.744-2.444.025-.048a18.107 18.107 0 0 0 1.086-2.632l2.962-.543A3.154 3.154 0 0 0 48.001 27v-3.969a3.144 3.144 0 0 0-2.211-3.041m-6.245 8.756a14.868 14.868 0 0 1-1.6 3.865 1.648 1.648 0 0 0 .062 1.789l2.287 3.208-2.682 2.681-3.2-2.281a1.642 1.642 0 0 0-1.789-.071 14.791 14.791 0 0 1-3.86 1.6 1.623 1.623 0 0 0-1.21 1.315l-.655 3.88h-3.781l-.652-3.879a1.631 1.631 0 0 0-1.2-1.317 15.505 15.505 0 0 1-3.8-1.556 1.65 1.65 0 0 0-.795-.217 1.389 1.389 0 0 0-.966.3l-3.245 2.307-2.683-2.67 2.277-3.183a1.681 1.681 0 0 0 .061-1.795 14.625 14.625 0 0 1-1.624-3.863 1.679 1.679 0 0 0-1.321-1.2l-3.9-.664V23.2l3.845-.644a1.652 1.652 0 0 0 1.33-1.22 14.717 14.717 0 0 1 1.575-3.869 1.639 1.639 0 0 0-.083-1.774l-2.3-3.233 2.682-2.681 3.19 2.273a1.68 1.68 0 0 0 1.8.065 14.6 14.6 0 0 1 3.866-1.625 1.686 1.686 0 0 0 1.193-1.319l.665-3.9h3.786l.645 3.844a1.646 1.646 0 0 0 1.22 1.328 14.96 14.96 0 0 1 3.963 1.625 1.652 1.652 0 0 0 1.8-.076l3.176-2.284 2.68 2.68-2.281 3.2a1.645 1.645 0 0 0-.071 1.787 14.757 14.757 0 0 1 1.6 3.86 1.613 1.613 0 0 0 1.312 1.208l3.881.656.009 3.785-3.891.647a1.64 1.64 0 0 0-1.317 1.207"/>
            <path data-name="패스 61082" d="M25.006 14.822a10.174 10.174 0 0 0 0 20.348A10.174 10.174 0 1 0 25 14.822m-6.863 10.174a6.869 6.869 0 1 1 6.868 6.869 6.877 6.877 0 0 1-6.868-6.869"/>
        </g>
    </g>
</svg>
