<svg id="ico_small_bank26_비엔피파리" xmlns="http://www.w3.org/2000/svg" width="36" height="36">
    <defs>
        <style>
            .cls-2{fill:#fff;fill-rule:evenodd}
        </style>
    </defs>
    <circle id="타원_92" data-name="타원 92" cx="18" cy="18" r="18" style="fill:#25845f"/>
    <g id="그룹_524" data-name="그룹 524" transform="translate(5.417 6.481)">
        <path id="패스_1516" data-name="패스 1516" class="cls-2" d="m1221.643 2629.775-2.216 1.108-2.373 1.424 1.266-1.582 1.107-1.424-1.739.158-1.582.158-1.741.157-1.74.159 1.582-.474 2.057-.792 1.9-.632 1.424-.158-2.056-1.424-2.689-1.424 2.373.317 2.056.474 1.9.792 1.424.791.949-.316 1.582-.158-.475.791-1.107.791v1.265l-.158 2.057-.317 2.056-.632 1.423v-1.582l-.317-2.847-.474-1.108" transform="translate(-1200.445 -2625.03)"/>
        <path id="패스_1517" data-name="패스 1517" class="cls-2" d="m1193.243 2663.655-1.424-.634-1.424-1.107.475-.949.633-.948-1.266.157-1.108.317-.791-1.74-.317-2.056-.158 2.056.158 1.9-.949.316-.949.474 1.107.475 1.265.79.791 1.267.95 1.107-.158-.951.158-.949 1.266.476h1.739" transform="translate(-1186.125 -2642.141)"/>
        <path id="패스_1518" data-name="패스 1518" class="cls-2" d="m1198.508 2638.111-.632.791-.158.79 1.9.475 1.74.632 1.107.633.317.158-3.006-.475-1.583.316h-.949l-.317.158-.632 2.373-.475 1.582-.632-2.057-.475-1.422-2.373 2.056-1.741 1.424 2.214-3.479.95-1.109-.475-.315-.79-.475h-.95l-.791-.158 1.424-.317 1.582-.158h1.739l1.741-.949 1.266-.474" transform="translate(-1188.542 -2632.099)"/>
        <path id="패스_1519" data-name="패스 1519" class="cls-2" d="m1209.511 2667.521-.792.949-.79.95-1.266.158-1.266.158.949.474.792.158-.792.79-.949.476 1.741-.476 1.424-.79h1.266v-.475l-.158-.474 1.107-.95 1.107-1.107-1.107.792-1.107.632-.158-.632v-.634" transform="translate(-1196.54 -2647.906)"/>
    </g>
</svg>
