<svg xmlns="http://www.w3.org/2000/svg" width="36" height="35.999">
    <path data-name="패스 1515" d="M1238.282 2551.449v-2.769h-8.982V2556.981h5.508v2.77h-5.508v8.3h8.986v-2.769h-6.217v-2.762h5.526v-8.307h-5.526v-2.764zm-17.34 6.931a18 18 0 1 1 18 18 17.99 17.99 0 0 1-18-18zm2.784 0a15.213 15.213 0 1 1 15.219 15.212 15.221 15.221 0 0 1-15.219-15.212zm15.949 6.912v2.765h8.973v-8.3h-5.516v-2.764h5.516v-8.3h-8.973v2.767h6.207v2.771h-5.531v8.3h5.531v2.766z" transform="translate(-1220.942 -2540.383)" style="fill:#b80009;fill-rule:evenodd"/>
</svg>
