<svg xmlns="http://www.w3.org/2000/svg" width="44" height="44" viewBox="0 0 44 44">
    <defs>
        <clipPath id="guz3g5pwpa">
            <path data-name="사각형 25565" style="fill:none" d="M0 0h33.711v40.686H0z"/>
        </clipPath>
    </defs>
    <g data-name="그룹 83421">
        <path data-name="사각형 24566" style="fill:none" d="M0 0h44v44H0z"/>
        <g data-name="그룹 86946" style="clip-path:url(#guz3g5pwpa)" transform="translate(5.145 1.658)">
            <path data-name="패스 61406" d="M30.171 30.844a5.476 5.476 0 0 1-1.042-3.585V16.093A12.324 12.324 0 0 0 18.428 4.01l-.435-.056V0h-2.275v3.954l-.436.056A12.325 12.325 0 0 0 4.585 16.1v11.714a4.431 4.431 0 0 1-1 3.045 3.216 3.216 0 0 1-2.467 1.035H0v3.556h13.349l-.148.617a3.656 3.656 0 0 0-.1.859 3.761 3.761 0 0 0 3.755 3.759 3.756 3.756 0 0 0 3.657-4.621l-.144-.614h13.342v-3.56h-1.137a3.005 3.005 0 0 1-2.4-1.046M16.858 38.4a1.476 1.476 0 0 1 .009-2.952h.009a1.476 1.476 0 0 1-.013 2.952m11.251-5.2H4.578l.7-.824a6.629 6.629 0 0 0 1.582-4.539V16.095a10.056 10.056 0 0 1 9.85-9.935h.285a10.057 10.057 0 0 1 9.857 9.932V27.3a7.6 7.6 0 0 0 1.594 5.02l.63.808z" style="fill:#9f9f9f"/>
        </g>
    </g>
</svg>
