<svg xmlns="http://www.w3.org/2000/svg" width="44" height="44" viewBox="0 0 44 44">
    <defs>
        <clipPath id="mxrr3dwyxa">
            <path data-name="사각형 24546" style="fill:#9f9f9f" d="M0 0h37.063v37.063H0z"/>
        </clipPath>
    </defs>
    <g data-name="그룹 83420">
        <g data-name="그룹 83413" transform="translate(3.469 3.047)" style="clip-path:url(#mxrr3dwyxa)">
            <path data-name="패스 60223" d="M5.766 17.516h5.988v-.528.523a5.809 5.809 0 0 0 5.759-5.764V5.756A5.811 5.811 0 0 0 11.752 0h-5.99A5.812 5.812 0 0 0 0 5.767v5.992a5.811 5.811 0 0 0 5.766 5.757m-3.217-5.762V5.773A3.251 3.251 0 0 1 5.77 2.549h5.975a3.249 3.249 0 0 1 3.219 3.218v5.98a3.247 3.247 0 0 1-3.214 3.22H5.77a3.25 3.25 0 0 1-3.221-3.214" style="fill:#9f9f9f"/>
            <path data-name="패스 60224" d="M11.752 18.5h-5.99A5.809 5.809 0 0 0 0 24.269v6a5.812 5.812 0 0 0 5.766 5.759h5.988V35.5v.528a5.807 5.807 0 0 0 5.757-5.764v-6a5.807 5.807 0 0 0-5.759-5.764m3.213 5.765v5.986a3.244 3.244 0 0 1-3.214 3.218H5.769a3.249 3.249 0 0 1-3.22-3.214v-5.981a3.249 3.249 0 0 1 3.219-3.22h5.978a3.243 3.243 0 0 1 3.218 3.215" transform="translate(0 1.041)" style="fill:#9f9f9f"/>
            <path data-name="패스 60225" d="M30.257 0h-6A5.811 5.811 0 0 0 18.5 5.767v5.991a5.81 5.81 0 0 0 5.765 5.757h5.995v-.531.527a5.809 5.809 0 0 0 5.761-5.764V5.756A5.813 5.813 0 0 0 30.257 0m3.217 5.767v5.98a3.249 3.249 0 0 1-3.216 3.22h-5.985a3.249 3.249 0 0 1-3.22-3.214v-5.98a3.251 3.251 0 0 1 3.22-3.225h5.979a3.25 3.25 0 0 1 3.221 3.218" transform="translate(1.04)" style="fill:#9f9f9f"/>
            <path data-name="패스 60226" d="M30.257 18.5h-6a5.811 5.811 0 0 0-5.75 5.765v6a5.811 5.811 0 0 0 5.765 5.756h5.988v-.528.527a5.812 5.812 0 0 0 5.761-5.761v-6a5.807 5.807 0 0 0-5.766-5.76m3.217 5.765v5.985a3.249 3.249 0 0 1-3.216 3.216h-5.983a3.249 3.249 0 0 1-3.22-3.212v-5.98a3.247 3.247 0 0 1 3.218-3.22h5.981a3.246 3.246 0 0 1 3.221 3.215" transform="translate(1.04 1.041)" style="fill:#9f9f9f"/>
        </g>
        <path data-name="사각형 24567" style="fill:none" d="M0 0h44v44H0z"/>
    </g>
</svg>
