<svg xmlns="http://www.w3.org/2000/svg" width="36" height="36" viewBox="0 0 36 36">
    <path data-name="패스 7435" d="m4527.563 806.873-2.923-2.913a3.974 3.974 0 0 0-5.6.008l-18.55 18.483-1.733 10.358 10.276-1.707 18.529-18.468c.06-.059.12-.12.166-.173a4.078 4.078 0 0 0-.165-5.588zm-23.963 16.256 13.54-13.487 4.813 4.8-13.536 13.49zm-1.026 2.762 3.025 3.013-3.631.6zm23.175-15.235-1.9 1.888-4.813-4.794 1.8-1.8a1.416 1.416 0 0 1 1.988-.008l2.924 2.914a1.281 1.281 0 0 1 .003 1.8z" transform="translate(-4495.754 -799.809)" style="fill:#8b8e94"/>
    <path data-name="사각형 865" style="fill:none" d="M0 0h36v36H0z"/>
</svg>
