<svg xmlns="http://www.w3.org/2000/svg" width="50" height="50" viewBox="0 0 50 50">
    <g data-name="그룹 65185" transform="translate(-40 -1127)">
        <circle data-name="타원 1729" cx="25" cy="25" r="25" transform="translate(40 1127)" style="fill:none"/>
        <circle data-name="타원 1730" cx="24.375" cy="24.375" r="24.375" transform="translate(40 1127.625)" style="fill:#0090db"/>
        <path data-name="패스 50308" d="M.34 9.654q0-5.745 3.3-8.159A8.526 8.526 0 0 1 8.7 0a8.732 8.732 0 0 1 6.187 2.209 8.3 8.3 0 0 1 2.55 6.425 9.066 9.066 0 0 1-1.734 5.541 17.327 17.327 0 0 1-3.5 3.331l-1.36 1.02q-2.312 1.8-3.025 2.448a5.314 5.314 0 0 0-1.394 1.734h11.083v4.555H0A14.235 14.235 0 0 1 .952 22.4a16.6 16.6 0 0 1 5.065-5.915l.51-.442a33.4 33.4 0 0 0 4.521-3.807 5.558 5.558 0 0 0 1.428-3.773 4.281 4.281 0 0 0-.884-2.787 3.266 3.266 0 0 0-2.72-1.258 3.149 3.149 0 0 0-3.162 1.9 9.114 9.114 0 0 0-.51 3.336z" transform="translate(56.245 1138.467)" style="fill:#fff"/>
    </g>
</svg>
