<svg xmlns="http://www.w3.org/2000/svg" width="180" height="180">
    <defs>
        <clipPath id="clip-path">
            <path id="사각형_13265" data-name="사각형 13265" transform="translate(6197 -12944)" style="fill:none" d="M0 0h180v180H0z"/>
        </clipPath>
        <style>
            .cls-3{fill:#fff}.cls-4{fill:#362322}.cls-6{fill:#1bd9ac}.cls-7{fill:#ffa4b1;opacity:.53}
        </style>
    </defs>
    <g id="마스크_그룹_15" data-name="마스크 그룹 15" transform="translate(-6197 12944)" style="clip-path:url(#clip-path)">
        <g id="그룹_56735" data-name="그룹 56735" transform="translate(-14171.002 -15915.5)">
            <g id="그룹_56719" data-name="그룹 56719" transform="translate(20423.889 3085.625)">
                <path id="패스_44856" data-name="패스 44856" class="cls-3" d="M3892.257 947.1c-.026-8.516-.527-17.142-2.882-25.375s-7.324-16.167-15.2-20.587c-8.809-4.943-20.435-4.751-29.576-.355s-15.79 9.857-18.834 18.954c-2.219 6.631-3.562 16.4-3.969 23.332 0 0 7.058 26.594 33.241 28.1s37.22-24.069 37.22-24.069z" transform="translate(-3819.387 -895.033)"/>
                <path id="패스_44857" data-name="패스 44857" class="cls-4" d="M3891.845 944.254a117.273 117.273 0 0 0-1.352-18.752 50.871 50.871 0 0 0-5.042-15.753 34.768 34.768 0 0 0-10.158-11.792 31.34 31.34 0 0 0-15.159-5.568 36.1 36.1 0 0 0-15.845 1.9 48.415 48.415 0 0 0-13.353 7.433 30.411 30.411 0 0 0-8.644 10.431c-2.24 4.562-3.328 9.629-4.175 14.608q-.7 4.141-1.137 8.325-.193 1.832-.33 3.67a6.892 6.892 0 0 0 0 2.148 23.233 23.233 0 0 0 .885 2.612 49.135 49.135 0 0 0 7.631 13.331 37.255 37.255 0 0 0 17.44 12.158 38.106 38.106 0 0 0 25.352-.724 42.33 42.33 0 0 0 16.605-12.17 48.411 48.411 0 0 0 6.706-10.111 13.4 13.4 0 0 0 .246-.531 2.481 2.481 0 0 0-.866-3.3c-1.041-.55-2.769-.372-3.3.866a38.7 38.7 0 0 1-4.064 6.906c-.35.493-.712.977-1.077 1.46-.235.311.354-.453.176-.227l-.147.188q-.149.19-.3.378-.324.405-.657.8-1.387 1.658-2.922 3.186a42.639 42.639 0 0 1-3.457 3.079c-.15.12-.738.554-.072.061-.161.119-.317.242-.478.361q-.534.4-1.082.776-1.017.7-2.079 1.34-1.118.669-2.283 1.257-.55.277-1.11.536-.3.137-.6.269c-.121.053-.244.1-.363.157.239-.11.46-.192.088-.04a34.1 34.1 0 0 1-5.363 1.682c-.944.212-1.9.329-2.848.516.787-.155-.046 0-.242.025q-.374.041-.748.075-.839.077-1.68.113a40.273 40.273 0 0 1-6.426-.267c-.353-.041.634.093.108.015l-.378-.055q-.337-.051-.673-.109-.806-.138-1.6-.313-1.4-.308-2.776-.732t-2.723-.975c-.083-.034-.165-.071-.249-.1.694.262.234.1.083.033q-.274-.12-.546-.245-.627-.288-1.242-.6a33.345 33.345 0 0 1-4.411-2.709q-.248-.18-.492-.364c-.5-.377.411.326-.088-.067q-.495-.39-.976-.8-.92-.778-1.785-1.616a39.205 39.205 0 0 1-3.111-3.389q-.17-.209-.338-.421c-.075-.094-.432-.554-.142-.177s-.1-.129-.165-.219q-.174-.23-.344-.464-.632-.864-1.221-1.759a46.779 46.779 0 0 1-3.452-6.234q-.152-.331-.3-.664l-.14-.32-.067-.157c-.163-.376.259.623.126.3-.156-.379-.312-.757-.459-1.139a37.068 37.068 0 0 1-.646-1.8c-.1-.307-.186-.619-.286-.926-.008-.023-.011-.049-.02-.072a.072.072 0 0 0 0-.011c.208.521.052.649.105.321.026-.158.021-.326.031-.486q.122-1.807.3-3.61.183-1.842.42-3.677c0-.023.083-.641.031-.243s.031-.222.034-.245q.066-.473.134-.945.146-1 .309-1.99c.409-2.492.9-4.975 1.515-7.424.293-1.158.616-2.309.987-3.445.173-.529.357-1.054.557-1.573l.122-.31c.016-.04.213-.552.067-.17s.054-.122.072-.164l.2-.446a26.934 26.934 0 0 1 1.59-2.949q.394-.631.823-1.24.2-.286.411-.568c.084-.114.435-.523 0-.006.1-.119.193-.245.29-.365a30.284 30.284 0 0 1 4.553-4.513c.136-.11.849-.611.267-.216.222-.15.43-.325.646-.483q.66-.481 1.338-.936 1.463-.982 3-1.849 1.518-.863 3.085-1.636c.543-.27 1.089-.534 1.643-.781.141-.063.282-.123.424-.185.35-.153-.542.217.022-.006.345-.137.69-.273 1.039-.4a34.026 34.026 0 0 1 3.566-1.089q.909-.225 1.83-.4.46-.088.923-.163l.371-.058.371-.054q-.452.059-.177.024a35.835 35.835 0 0 1 7.569-.122c.309.03.618.066.926.1.633.074-.532-.088.1.015.122.02.245.037.368.057q1.008.161 2 .389a29.761 29.761 0 0 1 3.541 1.043q.432.157.859.329c.021.008.576.246.221.09s.2.089.217.1q.921.414 1.811.9a27.5 27.5 0 0 1 3.05 1.927q.181.131.358.266l.071.053q.317.241-.065-.051c.122-.017.607.491.69.561q.713.6 1.386 1.24a30.87 30.87 0 0 1 2.464 2.643 8 8 0 0 1 .553.685c-.29-.443-.131-.172-.055-.071.105.141.212.281.316.423q.52.708 1 1.443a36.52 36.52 0 0 1 1.868 3.179q.385.738.738 1.493.186.4.362.8c.059.132.127.264.174.4-.211-.6-.017-.038.026.068q.674 1.65 1.2 3.356a61.658 61.658 0 0 1 1.941 8.5q.079.486.151.973l.093.65c.068.477.014.106 0 .009q.156 1.194.28 2.392.224 2.18.352 4.368c.175 2.915.238 5.834.248 8.753a2.415 2.415 0 0 0 4.83 0z" transform="translate(-3816.559 -892.191)"/>
            </g>
            <ellipse id="타원_1523" data-name="타원 1523" cx="33.345" cy="6.439" rx="33.345" ry="6.439" transform="translate(20425.014 3172.924)" style="fill:#d6d6d2"/>
            <g id="그룹_56720" data-name="그룹 56720" transform="translate(20423.373 3120.173)">
                <path id="패스_44858" data-name="패스 44858" class="cls-3" d="M3822.257 972.5c-3.229 18.857-.694 35.414.629 40.616 1.6 6.3 3 12.808 10.146 14.9 4.677 1.369 9.25.329 12.254-3.025s3.905-9.181 3.578-13.4" transform="translate(-3818.271 -970.111)"/>
                <path id="패스_44859" data-name="패스 44859" class="cls-4" d="M3817.094 969.053a116.932 116.932 0 0 0-1.612 22.881 105.248 105.248 0 0 0 1.606 16.043c.345 1.882.813 3.733 1.3 5.582a28.448 28.448 0 0 0 3.038 7.8 14.154 14.154 0 0 0 7.152 5.849 15.019 15.019 0 0 0 10.312.185 13.4 13.4 0 0 0 7.446-6.759 23.62 23.62 0 0 0 2.165-9.761q.018-1.045-.06-2.089a2.415 2.415 0 0 0-4.83 0 23.558 23.558 0 0 1-.055 4.068 4.756 4.756 0 0 0-.065.589s.072-.5.03-.219l-.037.254q-.085.551-.2 1.1a20.283 20.283 0 0 1-.562 2.16q-.156.486-.34.961a1.043 1.043 0 0 0-.093.235c0-.005.193-.435.081-.19-.081.177-.159.355-.243.53a14.229 14.229 0 0 1-1.074 1.824c-.252.371.279-.325-.008.017-.1.121-.2.242-.307.36a11 11 0 0 1-.869.868c-.054.048-.395.276-.4.336 0-.01.37-.271.149-.115l-.207.151a10.619 10.619 0 0 1-.934.589c-.315.177-.685.294-.986.487.01-.006.439-.167.185-.084-.08.026-.158.06-.238.089-.186.067-.374.128-.564.185q-.491.146-.994.248c-.169.034-.339.058-.508.091-.271.052.2-.029.214-.027a2.12 2.12 0 0 0-.433.043 12.794 12.794 0 0 1-2.221-.014c-.09-.008-.181-.021-.271-.028-.283-.022.179.028.187.028a3.806 3.806 0 0 1-.639-.109q-.6-.116-1.2-.282-.506-.141-1-.32a3.646 3.646 0 0 0-.465-.18s.44.2.2.083c-.119-.059-.242-.11-.362-.169a12.138 12.138 0 0 1-1.636-.979.9.9 0 0 0-.178-.132s.379.323.2.152c-.121-.116-.261-.217-.387-.329q-.348-.31-.668-.65c-.2-.207-.379-.423-.562-.642a1.73 1.73 0 0 0-.133-.166c-.009-.007.3.42.163.206-.1-.158-.222-.307-.327-.464a14.855 14.855 0 0 1-.9-1.541q-.215-.419-.406-.849c-.038-.085-.238-.545-.082-.181s-.062-.161-.1-.257a36.524 36.524 0 0 1-1.172-3.65c-.5-1.833-.981-3.677-1.343-5.544q-.261-1.343-.468-2.7c-.083-.533-.157-1.068-.233-1.6-.022-.154.078.6.017.119l-.052-.4q-.056-.446-.109-.894-.479-4.087-.647-8.2-.209-4.929-.007-9.864.11-2.68.346-5.353.125-1.413.285-2.822.075-.661.159-1.321l.042-.332c0-.029.052-.4.016-.123s.013-.095.017-.124c.021-.149.041-.3.063-.446q.208-1.464.458-2.922a2.473 2.473 0 0 0-1.687-2.97 2.443 2.443 0 0 0-2.97 1.686z" transform="translate(-3815.436 -967.306)"/>
            </g>
            <g id="그룹_56721" data-name="그룹 56721" transform="translate(20465.063 3121.063)">
                <path id="패스_44860" data-name="패스 44860" class="cls-3" d="M3939.8 974.5c1.738 10.808.538 33.115-1.512 40.616-1.717 6.282-4.462 12.808-11.6 14.9-4.677 1.369-8.329.329-11.334-3.025s-4.287-9.181-3.959-13.4" transform="translate(-3908.924 -972.081)"/>
                <path id="패스_44861" data-name="패스 44861" class="cls-4" d="M3934.633 972.3q.058.368.111.736l.033.233c.038.263-.052-.4-.046-.347.017.161.041.321.061.482q.107.886.187 1.775c.117 1.273.2 2.548.261 3.825.138 2.87.166 5.745.129 8.618a166.218 166.218 0 0 1-1.039 17.1q-.053.462-.112.922l-.049.386c-.011.085-.023.169-.033.254.007-.054.083-.6.036-.266a94.503 94.503 0 0 1-.246 1.669c-.15.944-.319 1.885-.527 2.818a39.028 39.028 0 0 1-.911 3.283c-.212.668-.44 1.331-.688 1.986-.064.17-.13.339-.2.507l-.087.216c-.154.386.043-.1.064-.147-.151.328-.289.662-.444.989a22.409 22.409 0 0 1-1.009 1.9q-.255.426-.53.838-.148.221-.3.438l-.134.184c-.26.363-.07-.03.056-.065-.187.053-.494.6-.632.757q-.379.426-.791.821-.359.344-.741.662c-.155.128-.592.348-.056.052-.155.086-.3.216-.443.316a13.364 13.364 0 0 1-1.943 1.1 1.293 1.293 0 0 0-.225.1c.329-.247.314-.126.116-.05-.158.06-.316.123-.476.179a15.79 15.79 0 0 1-2.442.652 1.626 1.626 0 0 0-.349.058c.005 0 .488-.055.212-.027-.2.019-.393.042-.591.056a10.869 10.869 0 0 1-1.147.021 9.501 9.501 0 0 1-.478-.028 1.853 1.853 0 0 0-.314-.031c.052-.04.546.093.178.021s-.7-.138-1.051-.238q-.221-.064-.437-.138c-.1-.033-.192-.071-.288-.1-.305-.107.057.005.152.068-.274-.179-.609-.291-.895-.456-.2-.113-.916-.441-.991-.653 0-.006.376.306.168.129-.063-.053-.127-.1-.19-.155q-.223-.188-.437-.386-.477-.44-.909-.925l-.308-.36c-.273-.322.26.362-.061-.083q-.334-.464-.626-.957t-.559-1.027c-.076-.152-.148-.3-.219-.459-.047-.1-.092-.208-.139-.311-.138-.3.161.417.045.1-.282-.76-.553-1.516-.764-2.3a22.483 22.483 0 0 1-.5-2.364 1.884 1.884 0 0 0-.038-.252s.061.5.03.222c-.022-.195-.046-.389-.065-.584q-.056-.573-.081-1.148a18.689 18.689 0 0 1 .031-2.169 2.427 2.427 0 0 0-2.414-2.415 2.474 2.474 0 0 0-2.415 2.415 22.639 22.639 0 0 0 1.589 9.958 15.212 15.212 0 0 0 6.893 8.149 13.549 13.549 0 0 0 10.692.375 16.935 16.935 0 0 0 8.153-6.282 29.2 29.2 0 0 0 3.91-8.623 43.477 43.477 0 0 0 1.343-6.235 151.523 151.523 0 0 0 1.423-17.637 113.471 113.471 0 0 0-.542-17.234 65.755 65.755 0 0 0-.308-2.207 2.423 2.423 0 0 0-2.97-1.686 2.486 2.486 0 0 0-1.686 2.97z" transform="translate(-3906.083 -969.241)"/>
            </g>
            <path id="패스_44862" data-name="패스 44862" class="cls-6" d="m3891.665 987.079-8.457-12.106a4.476 4.476 0 0 0-7.177.155l-8.243 11.542c-2.1 3.506-.879 7.866 4.053 7.866h16.5c3.08 0 5.388-4.018 3.324-7.457zm-9.261 1.441-5.821.055c-1.739.017-2.157-1.507-1.4-2.742l2.947-4.071a1.587 1.587 0 0 1 2.532-.079l2.942 4.213a1.694 1.694 0 0 1-1.204 2.625z" transform="translate(16580.193 2149.658)"/>
            <g id="그룹_56722" data-name="그룹 56722" transform="translate(20447.266 3157.719)">
                <path id="패스_44863" data-name="패스 44863" class="cls-3" d="M3872.6 1054.209c6.017 1.946 16.567 2.268 19.335.23" transform="translate(-3870.198 -1051.786)"/>
                <path id="패스_44864" data-name="패스 44864" class="cls-4" d="M3869.138 1053.693a39.18 39.18 0 0 0 9.021 1.578 34.323 34.323 0 0 0 8.774-.338 8.594 8.594 0 0 0 3.4-1.253 2.47 2.47 0 0 0 .866-3.3 2.443 2.443 0 0 0-3.3-.866 3.744 3.744 0 0 1-.431.267c-.075.04-.156.071-.23.113.025-.014.6-.235.151-.069a9.793 9.793 0 0 1-1.385.386c-.257.054-.516.1-.776.142-.1.016-.562.08-.123.021.463-.062-.176.018-.273.029-.639.069-1.28.112-1.922.138a41.179 41.179 0 0 1-4.176-.057q-1.1-.068-2.2-.188l-.488-.056c-.079-.01-.728-.093-.325-.04.386.052-.148-.022-.24-.036a27.804 27.804 0 0 1-.634-.1 30.781 30.781 0 0 1-4.417-1.027 2.435 2.435 0 0 0-2.97 1.687 2.468 2.468 0 0 0 1.687 2.97z" transform="translate(-3867.383 -1048.941)"/>
            </g>
            <g id="그룹_56723" data-name="그룹 56723" transform="translate(20393.576 3003.988)">
                <path id="패스_44865" data-name="패스 44865" class="cls-3" d="M3863 733.015c18.446 14.389 30.394 39.76 26.024 55.941-2.365 8.756-6.831 16.733-25.651 23.119-16.012 5.433-45.727 10.728-74.436 8.459-14.524-1.148-27.154-8.359-30.509-19.428-7.69-25.365 10.44-60.844 40.029-74.162 22.108-9.952 46.379-8.097 64.543 6.071z" transform="translate(-3753.895 -717.93)"/>
                <path id="패스_44866" data-name="패스 44866" class="cls-4" d="M3857.8 731.725a70.5 70.5 0 0 1 7.127 6.416q1.646 1.7 3.185 3.494.767.9 1.508 1.818c.247.306.49.615.732.924.42.533-.361-.477.049.064l.356.469a78.09 78.09 0 0 1 5.248 7.936q1.139 1.975 2.157 4.017.5 1.005.968 2.025.232.506.456 1.015l.221.507c.222.507-.219-.535.009.018a61.521 61.521 0 0 1 2.781 8.245c.333 1.3.616 2.621.841 3.948q.082.485.154.971c.028.189.077.778-.009-.09.016.16.041.321.06.481q.114.949.182 1.9a34.7 34.7 0 0 1 .069 3.841q-.033.816-.107 1.63c-.027.291-.061.581-.095.872-.064.556.107-.711.021-.16-.029.19-.057.379-.089.568a32.348 32.348 0 0 1-1.562 5.711c-.156.43-.342.85-.5 1.279.358-.978.062-.15-.042.081q-.166.37-.344.735a24.682 24.682 0 0 1-1.389 2.482q-.38.595-.794 1.167c-.151.208-.713.79-.06.094-.2.216-.373.471-.564.7a26.093 26.093 0 0 1-2.24 2.346q-.64.593-1.314 1.146c-.172.142-1.028.758-.273.228-.3.21-.585.44-.882.653a39.619 39.619 0 0 1-3.428 2.187 51.514 51.514 0 0 1-4.115 2.1q-.569.262-1.144.512c-.2.086-.393.172-.59.254a9.246 9.246 0 0 0-.147.058q-1.268.519-2.554.993a129.208 129.208 0 0 1-16.682 4.757q-4.9 1.094-9.86 1.934-2.591.443-5.191.822-.665.1-1.33.19l-.669.093c-.758.105.6-.077-.164.022-.907.119-1.813.235-2.721.344a214.064 214.064 0 0 1-23.228 1.54q-6.085.065-12.166-.261c-1.877-.1-3.759-.215-5.628-.424-.205-.023-.41-.049-.614-.073-.706-.081.62.094-.082-.009-.4-.059-.809-.119-1.212-.186q-1.2-.2-2.385-.458a45.594 45.594 0 0 1-4.583-1.249q-1.1-.363-2.18-.786c-.178-.07-.355-.143-.533-.213-.618-.244.565.25-.042-.016-.4-.177-.805-.355-1.2-.542a35.692 35.692 0 0 1-3.872-2.118q-.906-.574-1.773-1.206-.179-.13-.355-.263c-.43-.324.085-.036.071.057.014-.093-.839-.684-.944-.774a26.379 26.379 0 0 1-2.9-2.888 8.19 8.19 0 0 0-.636-.777c.515.464.172.223.028.029q-.148-.2-.292-.4-.619-.876-1.152-1.809-.447-.785-.826-1.606a4.821 4.821 0 0 0-.2-.449c.385.641.111.263.028.052q-.212-.536-.392-1.083a34.623 34.623 0 0 1-.942-3.527q-.193-.888-.346-1.784-.077-.45-.144-.9c-.023-.15-.039-.3-.065-.453.05.293.078.606.019.128q-.237-1.913-.308-3.841a50.935 50.935 0 0 1 .292-7.574c.036-.32.076-.64.116-.96.075-.595-.1.687-.012.093l.071-.481q.145-.967.322-1.928.375-2.028.887-4.028a66.624 66.624 0 0 1 2.487-7.71q.188-.479.382-.956c.065-.159.131-.318.2-.477.235-.573-.256.593-.011.024.274-.635.553-1.268.843-1.9q.913-1.98 1.943-3.9a76.183 76.183 0 0 1 4.417-7.25q.607-.883 1.239-1.749.317-.434.639-.863l.216-.286.217-.286-.1.132a10.148 10.148 0 0 1 1.346-1.684q.744-.9 1.515-1.785a75.586 75.586 0 0 1 6.081-6.194q1.614-1.464 3.314-2.83c.283-.228.57-.453.855-.677.5-.4-.494.373.017-.012l.436-.329q.946-.71 1.916-1.388a67.34 67.34 0 0 1 7.48-4.542q2.023-1.053 4.116-1.962c.206-.09.411-.182.618-.266-.627.255.072-.028.167-.067q.619-.254 1.242-.5 1.341-.524 2.7-.994a70.1 70.1 0 0 1 10.07-2.67q1.259-.234 2.527-.421c.21-.031.421-.067.632-.09-.644.072-.242.032-.1.015.491-.059.981-.12 1.473-.171q2.563-.268 5.142-.333 2.552-.062 5.1.082 1.139.065 2.273.172.618.058 1.234.129.308.035.615.074l.41.052q-.589-.079-.12-.014a62.027 62.027 0 0 1 9.622 2.2q1.177.376 2.337.8.581.213 1.157.439.289.113.575.229c.13.052 1 .4.295.117a46.354 46.354 0 0 1 4.49 2.142q2.125 1.129 4.152 2.433 1.065.686 2.1 1.418.521.368 1.033.747c.171.127.342.255.511.383.089.068.661.51.12.089a3.016 3.016 0 0 0 1.951.809 2.808 2.808 0 0 0 1.951-.809c.907-.988 1.217-2.956 0-3.9A62 62 0 0 0 3842.5 717.6a62.958 62.958 0 0 0-20.709-2.892 71.657 71.657 0 0 0-39.045 12.958 78.5 78.5 0 0 0-23.953 27.282c-5.276 9.974-8.629 21.377-8.085 32.74.26 5.418 1.239 11.178 3.992 15.927a30.913 30.913 0 0 0 13.72 11.992 46.236 46.236 0 0 0 9.467 3.276 68.845 68.845 0 0 0 11.283 1.405 195.022 195.022 0 0 0 24.381-.172 203.12 203.12 0 0 0 41.9-6.946 77.3 77.3 0 0 0 18.031-7.233 29.977 29.977 0 0 0 15.512-22.12 41.35 41.35 0 0 0-1.073-16.614c-3.168-12.42-10.322-23.983-19.227-33.109a70.461 70.461 0 0 0-6.99-6.275 3.01 3.01 0 0 0-1.951-.808 2.807 2.807 0 0 0-1.951.808c-.91.995-1.214 2.956-.002 3.906z" transform="translate(-3750.65 -714.689)"/>
            </g>
            <g id="그룹_56728" data-name="그룹 56728" transform="translate(20451.426 2973.5)">
                <g id="그룹_56725" data-name="그룹 56725">
                    <g id="그룹_56724" data-name="그룹 56724">
                        <path id="패스_44867" data-name="패스 44867" class="cls-6" d="M3888.261 686.938c-2.886.075-5.554-2.493-6.323-5.276-2.159-7.817-.737-16.515 3.1-23.661 1.233-2.3 3.033-4.633 5.609-5.042 2.632-.417 5.225 1.445 6.409 3.833a14.914 14.914 0 0 1 1.018 7.83 45.685 45.685 0 0 1-4.853 17.121c-1.1 2.148-2.849 4.953-5.247 4.68" transform="translate(-3878.859 -650.831)"/>
                        <path id="패스_44868" data-name="패스 44868" class="cls-4" d="M3885.833 682.438c-.164 0-.325-.006-.488-.012-.419-.015.031.021.069.013a2.066 2.066 0 0 1-.785-.2c-.1-.032-.557-.261-.112-.035l-.294-.147a7.884 7.884 0 0 1-.842-.534c.334.236.092.073.024.01-.124-.115-.253-.224-.375-.342-.2-.2-.389-.411-.575-.625-.066-.076-.2-.311.011.016-.091-.143-.2-.278-.286-.422a7.907 7.907 0 0 1-.411-.736c-.042-.086-.213-.588-.058-.117-.035-.1-.076-.207-.111-.311-.095-.29-.17-.587-.245-.883q-.264-1.045-.445-2.109-.033-.193-.064-.387c-.006-.042-.1-.684-.037-.226q-.063-.486-.108-.975-.092-.978-.12-1.96a31.492 31.492 0 0 1 .157-4.13l.043-.392c0-.04.089-.686.026-.234q.068-.49.151-.977.174-1.024.411-2.037a34.76 34.76 0 0 1 1.151-3.888q.168-.465.348-.925l.147-.367.1-.234c.276-.632.565-1.257.875-1.873.261-.519.533-1.034.83-1.532q.222-.374.464-.736c.1-.145.2-.285.3-.429.247-.36-.209.229.1-.132a12.365 12.365 0 0 1 1.189-1.224c.285-.253.039-.032-.024.013.136-.1.271-.192.412-.28q.141-.087.285-.167c.061-.033.611-.263.349-.177-.308.1.212-.06.22-.062.134-.04.268-.074.405-.1s.486-.024.035-.014c.111 0 .223-.015.334-.017.166 0 .334.023.5.017-.389.012-.2-.039-.058-.007a8.956 8.956 0 0 1 .959.271c-.416-.144-.066-.027.043.027q.19.094.372.2.146.086.289.178c.061.039.51.378.135.076a7.657 7.657 0 0 1 .639.575 7.997 7.997 0 0 1 .463.512q-.19-.257-.059-.079a8.448 8.448 0 0 1 .838 1.457c-.165-.384.073.22.081.244.043.125.084.25.122.376a11.381 11.381 0 0 1 .282 1.155c.031.163.056.326.083.49.061.371-.031-.487.013.143.023.334.056.665.069 1 .028.7.015 1.41-.023 2.114a38.124 38.124 0 0 1-.155 1.938c-.036.345-.077.69-.119 1.034a1.322 1.322 0 0 1-.038.275c-.031.206-.061.412-.094.618q-.335 2.108-.867 4.179a45.634 45.634 0 0 1-1.43 4.569q-.2.537-.412 1.069-.116.29-.236.578c.136-.325-.118.271-.118.272q-.481 1.1-1.019 2.167c-.281.557-.573 1.11-.9 1.644-.168.278-.344.552-.53.819l-.19.264c.294-.41-.057.064-.127.146a7.23 7.23 0 0 1-.6.616l-.114.1q-.264.218.068-.045c-.058.1-.274.185-.365.238-.048.028-.4.285-.133.086q.243-.1-.013 0c-.089.03-.177.056-.268.078-.326.111.153-.1.136-.006a2.259 2.259 0 0 1-.575-.007 2.078 2.078 0 0 0-2.07 2.07 2.124 2.124 0 0 0 2.07 2.07c3.009.267 5.191-2.414 6.523-4.755a44 44 0 0 0 3.692-8.768 48.3 48.3 0 0 0 1.9-9.726c.3-3.217.224-6.548-1.247-9.5a8.769 8.769 0 0 0-7.359-4.916c-3.242-.059-5.773 2.229-7.443 4.786a32.227 32.227 0 0 0-3.643 8.2 35.67 35.67 0 0 0-1.525 9.3 32.6 32.6 0 0 0 .327 5.449 18.98 18.98 0 0 0 1.22 4.921 8.873 8.873 0 0 0 7.843 5.521 2.07 2.07 0 0 0 0-4.139z" transform="translate(-3876.431 -648.401)"/>
                    </g>
                    <path id="패스_44869" data-name="패스 44869" class="cls-4" d="M3893.8 715.243a18.179 18.179 0 0 0-.323-.4l-.1-.125c-.029-.035-.145-.184-.047-.058s-.023-.061-.055-.093.077.211.043.094c-.029-.1.025.245.016.1 0-.022.007-.045 0-.067 0 .034-.036.225-.007.072.016-.087.032-.175.045-.263a9.255 9.255 0 0 0 .1-1.184 23.259 23.259 0 0 0-.1-2.436.707.707 0 0 0-.69-.69.7.7 0 0 0-.69.69c.063.762.112 1.526.1 2.291 0 .229-.01.457-.028.685-.007.081-.014.162-.024.243 0 .03-.008.061-.011.091 0 0 .031-.205.007-.058a1.526 1.526 0 0 0 .112 1.24c.207.292.45.56.671.841a.7.7 0 0 0 .976 0 .708.708 0 0 0 0-.976z" transform="translate(-3884.822 -681.774)"/>
                </g>
                <g id="그룹_56727" data-name="그룹 56727" transform="translate(9.898 4.079)">
                    <g id="그룹_56726" data-name="그룹 56726">
                        <path id="패스_44870" data-name="패스 44870" class="cls-6" d="M3902.591 688.615a28.246 28.246 0 0 1 9.765-24.171c2.7-2.268 6.915-3.942 9.556-1.6 1.473 1.3 1.873 3.435 1.918 5.4.243 10.724-8.638 20.876-19.3 22.062" transform="translate(-3900.379 -659.67)"/>
                        <path id="패스_44871" data-name="패스 44871" class="cls-4" d="M3902.233 686.215a27.161 27.161 0 0 1-.126-3.739q.032-.89.123-1.777c.018-.178.039-.354.06-.531.046-.4.007-.058 0 .02.051-.353.107-.7.17-1.056a28.5 28.5 0 0 1 .9-3.632q.272-.849.6-1.682c.065-.166.133-.332.2-.5-.03.073-.16.365 0 0 .143-.327.29-.652.443-.974a28.484 28.484 0 0 1 1.832-3.265q.487-.747 1.02-1.463.105-.143.214-.284c-.284.369.082-.1.117-.141q.336-.416.688-.819a26.616 26.616 0 0 1 2.653-2.638c.09-.077.18-.155.272-.231.054-.045.5-.39.114-.1q.347-.261.709-.5a16.054 16.054 0 0 1 1.691-.946c.076-.038.366-.149-.012 0a9.368 9.368 0 0 1 1.305-.429c.158-.04.968-.159.43-.106a7.11 7.11 0 0 1 .885-.04 1.179 1.179 0 0 1 .395.024c-.359-.18-.21-.033-.01.01.127.027.253.057.377.095.021.006.5.177.191.055s.156.086.178.1c.116.064.224.147.341.21.256.138-.319-.329.035.029.12.121.244.244.366.364.367.36-.163-.325.091.12.07.123.15.24.219.364s.13.252.192.38c-.187-.391-.024-.044.015.065a7.8 7.8 0 0 1 .238.838c.032.143.062.287.087.431.031.174.062.521.026.149a18.584 18.584 0 0 1 0 3.49c-.015.161-.034.321-.052.481-.012.111-.01.394.01-.071a5.827 5.827 0 0 1-.131.794q-.162.87-.4 1.724-.215.776-.488 1.534c-.091.253-.189.5-.287.753-.2.509.183-.4-.04.1-.066.147-.131.3-.2.441a22.947 22.947 0 0 1-1.649 2.964c-.3.452-.612.89-.936 1.322.307-.408-.213.261-.281.343q-.311.374-.635.736a23.556 23.556 0 0 1-2.7 2.563c-.063.052-.5.384-.09.076-.129.1-.258.195-.389.29q-.391.286-.795.555-.8.537-1.655 1-.777.425-1.587.786c-.082.036-.586.234-.1.044-.15.058-.3.12-.449.178q-.451.172-.91.323-.918.3-1.863.514-.473.106-.951.188l-.32.052q-.354.052.069-.006l-.323.039a2.122 2.122 0 0 0-2.07 2.07c.045 1.015.918 2.2 2.07 2.07a23.825 23.825 0 0 0 13.979-6.763 24.424 24.424 0 0 0 7.094-13.435c.434-2.842.544-5.9-.646-8.576a6.539 6.539 0 0 0-3.077-3.251 7.666 7.666 0 0 0-4.538-.57 14.622 14.622 0 0 0-7.519 4.147 29.56 29.56 0 0 0-5.2 6.527 30.146 30.146 0 0 0-4.1 18.16 2.118 2.118 0 0 0 2.07 2.07 2.092 2.092 0 0 0 2.07-2.07z" transform="translate(-3897.952 -657.27)"/>
                    </g>
                    <path id="패스_44872" data-name="패스 44872" class="cls-4" d="M3910.121 710.465a11.368 11.368 0 0 1 4.742-7.945c.724-.5.035-1.7-.7-1.191a12.867 12.867 0 0 0-5.425 9.136.694.694 0 0 0 .69.69.706.706 0 0 0 .69-.69z" transform="translate(-3903.777 -680.998)"/>
                </g>
            </g>
            <ellipse id="타원_1524" data-name="타원 1524" class="cls-7" cx="6.511" cy="6.385" rx="6.511" ry="6.385" transform="rotate(-7.453 33819.254 -155642.85)"/>
            <ellipse id="타원_1525" data-name="타원 1525" class="cls-7" cx="6.824" cy="6.691" rx="6.824" ry="6.691" transform="rotate(-7.453 33801.521 -155299.93)"/>
            <g id="그룹_56729" data-name="그룹 56729" transform="translate(20454.717 3069.984)">
                <ellipse id="타원_1526" data-name="타원 1526" cx="1.38" cy="4.139" rx="1.38" ry="4.139" transform="rotate(-80.08 1.617 1.359)"/>
                <path id="패스_44873" data-name="패스 44873" d="M3889.584 862.384a11.484 11.484 0 0 1-1.958-.18c-2.086-.365-4.207-1.308-4.027-2.338s2.5-1.2 4.581-.833 4.207 1.309 4.026 2.338c-.083.475-.621.8-1.554.94a7.248 7.248 0 0 1-1.068.073zm-3.359-3.072c-1.309 0-2.114.3-2.173.633-.083.473 1.267 1.388 3.653 1.806a9.392 9.392 0 0 0 2.879.105c.811-.121 1.136-.371 1.17-.564.083-.473-1.267-1.389-3.653-1.806a10.993 10.993 0 0 0-1.876-.174z" transform="translate(-3883.588 -858.547)"/>
            </g>
            <path id="패스_44874" data-name="패스 44874" d="M3890.91 864.209a15.338 15.338 0 0 0-.756 6.3.709.709 0 0 0 .69.69.7.7 0 0 0 .69-.69 14.331 14.331 0 0 1 .707-5.935.69.69 0 1 0-1.331-.367z" transform="translate(16567.617 2208.821)"/>
            <path id="패스_44875" data-name="패스 44875" d="M3934.839 788.478c.125.006.25.017.375.032l-.367-.049a4.919 4.919 0 0 1 1.2.324l-.33-.139a5.258 5.258 0 0 1 1.134.659l-.279-.216a5.246 5.246 0 0 1 .926.929l-.216-.28a4.872 4.872 0 0 1 .6 1.025l-.139-.33q.06.145.111.293a1.471 1.471 0 0 0 .634.825 1.38 1.38 0 0 0 2.027-1.558 6.361 6.361 0 0 0-5.674-4.273 1.389 1.389 0 0 0-1.38 1.38 1.41 1.41 0 0 0 1.38 1.38z" transform="translate(16544.197 2250.938)"/>
            <path id="패스_44876" data-name="패스 44876" d="M3848.817 786.9c.1-.253-.152.308-.031.067.027-.053.051-.106.079-.159a3.678 3.678 0 0 1 .2-.334c.032-.049.068-.1.1-.144.089-.138-.215.256-.065.085.085-.1.169-.195.26-.286s.19-.176.287-.262c.171-.151-.22.156-.084.063l.144-.1a5.342 5.342 0 0 1 .679-.383c.208-.1-.258.1-.1.042.056-.019.11-.042.166-.061q.185-.064.374-.112c.126-.032.253-.055.381-.079.232-.043-.292.025-.121.017.058 0 .117-.011.176-.015.129-.008.258-.009.387-.005.059 0 .117.005.176.01.13.01.3.081-.087-.018a7.348 7.348 0 0 1 .751.2 1.387 1.387 0 0 0 1.7-.964 1.417 1.417 0 0 0-.964-1.7 5.694 5.694 0 0 0-7.063 3.407 1.386 1.386 0 0 0 .964 1.7 1.418 1.418 0 0 0 1.7-.964z" transform="translate(16591.381 2252.694)"/>
            <path id="패스_44877" data-name="패스 44877" d="M3864.327 869.016c2.59 4.624 9.438 5.621 13.318 2.087l-1.672.216c5.608 3.794 13.791 2.18 18.227-2.7a12.678 12.678 0 0 0 2.806-4.94 1.381 1.381 0 0 0-2.661-.734 7.464 7.464 0 0 1-.759 1.839c-.154.28-.321.553-.5.818q-.153.228-.316.447c-.164.221-.072.092-.035.046a8.967 8.967 0 0 1-.218.264 12.34 12.34 0 0 1-1.51 1.5 5.835 5.835 0 0 1-.654.495q-.484.336-1 .629a12.117 12.117 0 0 1-3.815 1.44 12.864 12.864 0 0 1-3.979.152 12.647 12.647 0 0 1-2.2-.568 6.157 6.157 0 0 1-.256-.1c-.219-.087.015.01-.113-.048a11.442 11.442 0 0 1-.557-.271 10.958 10.958 0 0 1-1.072-.644 1.4 1.4 0 0 0-1.672.216 5.156 5.156 0 0 1-2.182 1.148 4.216 4.216 0 0 1-1.289.185q-.352.011-.7-.009-.21-.012-.421-.035c.2.022-.044-.006-.121-.019a6.248 6.248 0 0 1-2.534-.949 4.2 4.2 0 0 1-.958-.785 8.059 8.059 0 0 1-.235-.255c-.042-.048-.2-.244-.09-.1a5.908 5.908 0 0 1-.453-.709 1.381 1.381 0 0 0-2.383 1.393z" transform="translate(16581.635 2209.755)"/>
            <circle id="타원_1527" data-name="타원 1527" cx="4.139" cy="4.139" r="4.139" transform="translate(20437.801 3060.881)"/>
            <circle id="타원_1528" data-name="타원 1528" cx="4.139" cy="4.139" r="4.139" transform="translate(20469.08 3060.952)"/>
            <g id="그룹_56731" data-name="그룹 56731" transform="translate(20388.363 3087.2)">
                <path id="패스_44878" data-name="패스 44878" d="m3782.416 948.861-22.492-1.3a6.92 6.92 0 0 1-8.6-4.608l-11.713-38.741a6.919 6.919 0 0 1 4.607-8.6l22.492 1.3a6.92 6.92 0 0 1 8.6 4.608l11.713 38.741a6.919 6.919 0 0 1-4.607 8.6z" transform="translate(-3739.318 -895.615)"/>
                <g id="그룹_56730" data-name="그룹 56730" transform="translate(6.753 7.536)">
                    <rect id="사각형_13146" data-name="사각형 13146" width="8.279" height="8.279" rx="4.139" style="fill:#e6dedc"/>
                    <path id="패스_44879" data-name="패스 44879" d="M3758.139 912.46a3.679 3.679 0 1 1-3.679 3.679 3.684 3.684 0 0 1 3.679-3.679m0-.46a4.139 4.139 0 1 0 4.139 4.139 4.152 4.152 0 0 0-4.139-4.139z" transform="translate(-3754 -912)"/>
                </g>
            </g>
            <g id="그룹_56732" data-name="그룹 56732" transform="translate(20442.623 3094.318)">
                <path id="패스_44880" data-name="패스 44880" class="cls-3" d="M3909.206 934.123c-1.624 5.743-6.018 9.595-11.259 12.449-4.5 2.452-9.559 1.739-14.149-.549-5.744-2.863-6.887-10.212-10.852-15.26a3.377 3.377 0 0 0-1.921-1.415c-1.284-.225-2.4.872-3.656 1.216-2.841.775-5.321-2.769-4.74-5.657s2.988-5 5.252-6.881c0 0 14.189-7.36 20.331 8.707" transform="translate(-3860.13 -913.928)"/>
                <path id="패스_44881" data-name="패스 44881" class="cls-4" d="M3904.043 930.644c-.136.472-.288.938-.463 1.4l-.125.318c-.119.313.187-.41.045-.109-.108.229-.209.46-.322.686a17.148 17.148 0 0 1-1.513 2.478c-.356.485.251-.3-.126.167q-.233.29-.478.571-.463.533-.963 1.032c-.694.695-1.506 1.259-2.2 1.94.048-.046.428-.32.084-.068-.092.067-.182.136-.274.2q-.276.2-.557.4-.637.442-1.3.853a29.537 29.537 0 0 1-2.694 1.512c-.41.2-.066.033.02 0-.124.049-.249.1-.374.145q-.373.137-.753.251a6.994 6.994 0 0 1-1.718.382c.6-.013-.155.009-.322.021q-.435.033-.872.036c-.588.006-1.166-.049-1.75-.091-.362-.026.416.072.058.01-.129-.022-.26-.04-.389-.063q-.39-.068-.777-.155a18.424 18.424 0 0 1-1.739-.481q-.386-.127-.767-.269c-.159-.06-.317-.124-.476-.184-.092-.035-.421-.187.008.006-.5-.224-.995-.445-1.473-.706-.383-.21-.74-.451-1.1-.7-.261-.179.083-.062.129.1a1.483 1.483 0 0 0-.232-.19q-.286-.241-.555-.5a12.939 12.939 0 0 1-.821-.868c-.084-.1-.27-.426-.382-.463.163.052.286.385.1.13-.089-.122-.18-.244-.267-.367-2.088-2.953-3.309-6.408-5.2-9.475-1.284-2.078-2.931-4.489-5.644-4.527a7.986 7.986 0 0 0-3.583 1.19 1.634 1.634 0 0 0-.315.149c.175-.207.363-.128.095-.056-.1.026-.208.052-.305.084-.381.123.161-.055.221-.023a2.024 2.024 0 0 0-.549-.007c.491-.077.456.093.178 0a1.379 1.379 0 0 0-.321-.1c.383.012.421.209.206.075-.077-.048-.16-.088-.237-.137a1.377 1.377 0 0 0-.23-.155c.344.076.345.3.107.065-.133-.133-.261-.286-.4-.414-.222-.206.264.406.107.144-.063-.1-.141-.2-.206-.307-.118-.19-.2-.405-.319-.591-.167-.258.147.459.07.161-.025-.1-.068-.189-.1-.285-.06-.193-.1-.386-.148-.583-.094-.405.131-.091.011.124.039-.069-.019-.292-.02-.372 0-.1.069-.767-.005-.343s.08-.308.1-.4c.029-.108.285-.636.245-.741.016.043-.25.514-.037.1.065-.128.127-.258.2-.385a13.949 13.949 0 0 0 .8-1.24c.014.026-.371.444-.049.075.078-.089.152-.181.23-.27.2-.224.4-.441.606-.654.713-.73 1.491-1.384 2.263-2.049.368-.317-.517.264-.082.084.142-.058.281-.127.42-.189.269-.121-.79.319-.229.1.125-.049.249-.1.375-.145a18.357 18.357 0 0 1 2.058-.636q.653-.161 1.317-.273l.323-.051c.5-.08-.527.06-.23.03.256-.026.511-.057.767-.076a15.17 15.17 0 0 1 1.523-.039q.372.01.743.039.212.017.424.04c.618.069-.47-.081-.119-.018a15.527 15.527 0 0 1 1.637.362q.417.123.825.276c.092.034.6.245.148.052s.138.067.243.117a11.916 11.916 0 0 1 1.625.948c.142.1.278.211.422.307-.01-.007-.495-.4-.209-.16.062.052.124.1.185.152q.426.356.821.747.368.365.709.756c.118.135.233.272.347.411.055.068.11.15.171.214-.459-.482-.147-.189-.04-.042a18.538 18.538 0 0 1 1.359 2.171q.313.582.591 1.183.073.156.142.313c.013.029.238.557.087.195-.132-.316.018.047.049.125q.085.212.166.424a2.472 2.472 0 0 0 2.97 1.687 2.441 2.441 0 0 0 1.687-2.97 20.325 20.325 0 0 0-6.877-9.582 14.614 14.614 0 0 0-8.011-2.573 18.886 18.886 0 0 0-6.279.919 22.451 22.451 0 0 0-2.187.843 6.268 6.268 0 0 0-1.557 1.077 17.062 17.062 0 0 0-4.457 5.115 8.878 8.878 0 0 0-1.042 3.825 8.011 8.011 0 0 0 .845 3.54 6.5 6.5 0 0 0 5.555 3.833 7.853 7.853 0 0 0 3.643-1.142c.129-.065.26-.125.389-.189.3-.152-.55.134-.029.025a2.162 2.162 0 0 0 .317-.084l-.16.021q-.322.034 0 .016l.165.008-.306-.027c.477.056-.22-.178-.028-.007.066.058.331.294.108.061-.25-.261.157.179.207.231.1.108.193.223.291.334.221.253.072-.047-.075-.1.134.05.287.389.372.511.3.432.592.877.866 1.329.5.82.95 1.666 1.387 2.52.878 1.716 1.686 3.471 2.661 5.136a17.675 17.675 0 0 0 3.711 4.66 18.106 18.106 0 0 0 6.522 3.33 17.829 17.829 0 0 0 8.071.541 18.153 18.153 0 0 0 6.627-2.837 23.869 23.869 0 0 0 8.986-9.363 20.684 20.684 0 0 0 1.277-3.295 2.415 2.415 0 1 0-4.656-1.284z" transform="translate(-3857.294 -911.091)"/>
            </g>
            <g id="그룹_56734" data-name="그룹 56734" transform="translate(20384.002 3107.214)">
                <g id="그룹_56733" data-name="그룹 56733">
                    <path id="패스_44882" data-name="패스 44882" class="cls-3" d="M3754.288 953.694c.675 6.132-1.59 11.528-7.666 12.207a11.171 11.171 0 0 1-2.444-22.208c6.077-.678 9.436 3.868 10.11 10.001z" transform="translate(-3732.263 -941.558)"/>
                    <path id="패스_44883" data-name="패스 44883" class="cls-4" d="M3742.953 965.612a12.981 12.981 0 0 1-8.149-2.875 13.271 13.271 0 0 1 6.716-23.529 10.249 10.249 0 0 1 7.716 2.06c2.586 2.07 4.2 5.449 4.679 9.771.888 8.06-2.839 13.748-9.492 14.491a13.326 13.326 0 0 1-1.47.082zm-.037-22.344a8.427 8.427 0 0 0-.936.054 9.132 9.132 0 0 0-4.589 16.183 8.864 8.864 0 0 0 6.574 1.91c6.352-.709 6.074-7.775 5.837-9.924-.348-3.16-1.467-5.644-3.152-6.992a5.8 5.8 0 0 0-3.734-1.231z" transform="translate(-3729.834 -939.13)"/>
                </g>
            </g>
        </g>
    </g>
</svg>
