<svg id="ico_memo_gray_메모아이콘" xmlns="http://www.w3.org/2000/svg" width="36" height="36" viewBox="0 0 36 36">
  <path id="패스_7435" data-name="패스 7435" d="M4525.917,806.641l-2.756-2.746a3.747,3.747,0,0,0-5.282.008l-17.49,17.427-1.634,9.766,9.689-1.609,17.471-17.412c.056-.055.113-.113.156-.163A3.845,3.845,0,0,0,4525.917,806.641Zm-22.592,15.327,12.766-12.717,4.539,4.521-12.762,12.719Zm-.968,2.6,2.853,2.841-3.423.569Zm21.85-14.365-1.787,1.78-4.538-4.52,1.7-1.694a1.333,1.333,0,0,1,1.874-.008l2.757,2.748A1.208,1.208,0,0,1,4524.208,810.207Z" transform="translate(-4494.896 -798.951)" fill="#717171"/>
  <rect id="사각형_865" data-name="사각형 865" width="36" height="36" fill="none"/>
</svg>
