<svg xmlns="http://www.w3.org/2000/svg" width="35" height="44">
    <defs>
        <clipPath id="clip-path">
            <path id="사각형_3562" data-name="사각형 3562" class="cls-1" transform="translate(-.287 .184)" d="M0 0h35v44H0z"/>
        </clipPath>
        <clipPath id="clip-path-2">
            <path id="사각형_3563" data-name="사각형 3563" class="cls-1" d="M0 0h13.002v17.691H0z"/>
        </clipPath>
        <style>
            .cls-1{fill:none}
        </style>
    </defs>
    <g id="그룹_24192" data-name="그룹 24192" transform="translate(.287 -.184)">
        <g id="그룹_11237" data-name="그룹 11237" style="clip-path:url(#clip-path)">
            <path id="패스_20497" data-name="패스 20497" d="M34.325 62.047a17.058 17.058 0 0 1-17.163 16.964 16.965 16.965 0 1 1 0-33.927 17.063 17.063 0 0 1 17.163 16.963" transform="translate(0 -35.004)" style="fill:#d5d5d5"/>
            <path id="패스_20498" data-name="패스 20498" d="M43.117 76.469a13.275 13.275 0 1 1-13.275-13.121 13.2 13.2 0 0 1 13.275 13.121" transform="translate(-12.82 -49.185)" style="fill:#b2b2b2"/>
            <path id="사각형_3559" data-name="사각형 3559" transform="translate(7.983 .026)" style="fill:#e2e2e2" d="M0 0h18.043v8.62H0z"/>
            <path id="사각형_3560" data-name="사각형 3560" transform="translate(13.894)" style="fill:#efefef" d="M0 0h6.221v8.673H0z"/>
            <path id="사각형_3561" data-name="사각형 3561" transform="translate(7.977 8.598)" style="fill:#e0e0e0" d="M0 0h18.089v.757H0z"/>
            <g id="그룹_11241" data-name="그룹 11241" transform="translate(10.983 17.826)">
                <g id="그룹_11241-2" data-name="그룹 11241" style="clip-path:url(#clip-path-2)">
                    <path id="패스_20500" data-name="패스 20500" d="M5.384 14.794s6.745-4.909 6.745-8.368C12.129 2.545 9.6 0 6.184 0A6.284 6.284 0 0 0 0 6.381h2.885a3.352 3.352 0 0 1 3.3-3.4 3.082 3.082 0 0 1 3.021 3.045c0 2.256-8.838 8.768-8.838 8.768H.36v.006l-.016.016H.36v2.874H13v-2.9z" style="fill:#fff"/>
                </g>
            </g>
        </g>
    </g>
</svg>
