<svg xmlns="http://www.w3.org/2000/svg" width="720" height="1220">
    <defs>
        <filter id="사각형_13500" x="190" y="380" width="193" height="74" filterUnits="userSpaceOnUse">
            <feOffset dy="3"/>
            <feGaussianBlur stdDeviation="3" result="blur"/>
            <feFlood flood-opacity=".161"/>
            <feComposite operator="in" in2="blur"/>
            <feComposite in="SourceGraphic"/>
        </filter>
        <style>
            .cls-13,.cls-19,.cls-2{fill:#a9adb5}.cls-2{font-size:32px}.cls-13,.cls-2{font-family:Pretendard-Regular,Pretendard}.cls-12,.cls-19{font-family:Pretendard-SemiBold,Pretendard;font-weight:600}.cls-5{stroke-width:3px}.cls-26,.cls-5{fill:none}.cls-5{stroke:#000;stroke-linecap:round;stroke-linejoin:round}.cls-12{font-size:36px}.cls-13{font-size:26px}.cls-19{font-size:28px}.cls-23{fill:#dfdfdf}.cls-24{fill:#1bd9ac}.cls-25{stroke:none}
        </style>
    </defs>
    <g id="그룹_57716" data-name="그룹 57716" transform="translate(0 -210)">
        <path id="사각형_13616" data-name="사각형 13616" transform="translate(0 210)" style="fill:#fff" d="M0 0h720v1220H0z"/>
        <text id="_21년_10월_기준" data-name="21년 10월 기준" class="cls-2" transform="translate(60 285)"><tspan x="0" y="0">21년 10월 기준</tspan></text>
        <text id="우리동네_월_평균매출" data-name="우리동네 월 평균매출" transform="translate(132 410)" style="font-family:Pretendard-SemiBold,Pretendard;font-weight:600;font-size:40px"><tspan x="0" y="0">우리동네 월 평균매출</tspan></text>
        <g id="그룹_57671" data-name="그룹 57671" transform="translate(-394.943 210.992)">
            <path id="합치기_32" data-name="합치기 32" d="M14 41.659A21.423 21.423 0 0 1 0 21.44 21.222 21.222 0 0 1 21 0a21.248 21.248 0 0 1 21 21.44 21.421 21.421 0 0 1-14 20.219L21 54z" transform="translate(460.944 158.008)" style="stroke-width:3px;fill:#ffbe1a;stroke:#1a1818;stroke-miterlimit:10"/>
            <g id="그룹_57629" data-name="그룹 57629" transform="translate(470.118 173.094)">
                <g id="그룹_57609" data-name="그룹 57609" transform="translate(3.395)">
                    <path id="패스_45755" data-name="패스 45755" class="cls-5" d="m458.488 293.078-4.277 16.422-4.155-16.425" transform="translate(-441.625 -293.078)"/>
                    <path id="패스_45756" data-name="패스 45756" class="cls-5" d="m444.12 293.078-4.277 16.422-4.155-16.425" transform="translate(-435.689 -293.078)"/>
                </g>
                <path id="선_1867" data-name="선 1867" class="cls-5" transform="translate(0 6.351)" d="M23.652 0H0"/>
            </g>
        </g>
        <path id="사각형_13495" data-name="사각형 13495" transform="translate(58 695)" style="fill:#f9f9f9" d="M0 0h604v329H0z"/>
        <g id="사각형_13496" data-name="사각형 13496" transform="translate(58 1143)" style="fill:#e7f9ed;stroke:#a1e49f">
            <rect class="cls-25" width="604" height="110" rx="16"/>
            <rect class="cls-26" x=".5" y=".5" width="603" height="109" rx="15.5"/>
        </g>
        <g id="사각형_13497" data-name="사각형 13497" transform="translate(58 1273)" style="fill:#ffe8db;stroke:#f1cac5">
            <rect class="cls-25" width="604" height="110" rx="16"/>
            <rect class="cls-26" x=".5" y=".5" width="603" height="109" rx="15.5"/>
        </g>
        <text id="_4_341만원" data-name="4,341만원" transform="translate(395 499)" style="font-size:62px;font-family:Pretendard-Bold,Pretendard;font-weight:700"><tspan x="0" y="0">4,341만원</tspan></text>
        <text id="_-58.5_" data-name="-58.5%" transform="translate(547 1214)" style="font-size:46px;fill:#249078;font-family:Pretendard-SemiBold,Pretendard;font-weight:600"><tspan x="-154.678" y="0">-58.5%</tspan></text>
        <text id="_48.3_" data-name="48.3%" transform="translate(547 1344)" style="fill:#ff6a1b;font-size:46px;font-family:Pretendard-SemiBold,Pretendard;font-weight:600"><tspan x="-165.209" y="0">+48.3%</tspan></text>
        <text id="전년대비" class="cls-12" transform="translate(106 1211)"><tspan x="0" y="0">전년대비</tspan></text>
        <text id="전월대비" class="cls-12" transform="translate(106 1341)"><tspan x="0" y="0">전월대비</tspan></text>
        <text id="_780만원" data-name="780만원" class="cls-13" transform="translate(58 590)"><tspan x="0" y="0">780만원</tspan></text>
        <text id="반포2동" class="cls-2" transform="translate(179 1074)"><tspan x="-50.895" y="0">반포2동</tspan></text>
        <text id="강남구" class="cls-2" transform="translate(357 1074)"><tspan x="-41.503" y="0">강남구</tspan></text>
        <text id="서울특별시" class="cls-2" transform="translate(545 1074)"><tspan x="-69.171" y="0">서울특별시</tspan></text>
        <text id="_28_605만원" data-name="28,605만원" class="cls-13" transform="translate(662 590)"><tspan x="-129.641" y="0">28,605만원</tspan></text>
        <g id="사각형_13498" data-name="사각형 13498" transform="translate(58 606)" style="fill:#efefef;stroke:#d5d5d5">
            <rect class="cls-25" width="604" height="35" rx="16"/>
            <rect class="cls-26" x=".5" y=".5" width="603" height="34" rx="15.5"/>
        </g>
        <g id="사각형_13499" data-name="사각형 13499" transform="translate(58 606)" style="fill:#ffa87a;stroke:#ff6f5d">
            <rect class="cls-25" width="220" height="35" rx="16"/>
            <rect class="cls-26" x=".5" y=".5" width="219" height="34" rx="15.5"/>
        </g>
        <g transform="translate(0 210)" style="filter:url(#사각형_13500)">
            <g id="사각형_13500-2" data-name="사각형 13500" transform="translate(199 386)" style="stroke:#ff1b1b;fill:#ff6a1b">
                <rect class="cls-25" width="175" height="56" rx="28"/>
                <rect class="cls-26" x=".5" y=".5" width="174" height="55" rx="27.5"/>
            </g>
        </g>
        <text id="_4_341만원-2" data-name="4,341만원" transform="translate(348 633)" style="font-size:28px;font-family:Pretendard-SemiBold,Pretendard;font-weight:600;fill:#fff"><tspan x="-122.877" y="0">4,341만원</tspan></text>
        <text id="_4_341" data-name="4,341" transform="translate(216 883)" style="fill:#ff7b36;font-size:28px;font-family:Pretendard-SemiBold,Pretendard;font-weight:600"><tspan x="-72.959" y="0">4,341</tspan></text>
        <text id="_3_521" data-name="3,521" class="cls-19" transform="translate(397 923)"><tspan x="-71.624" y="0">3,521</tspan></text>
        <text id="_1_341" data-name="1,341" class="cls-19" transform="translate(584 977)"><tspan x="-67.206" y="0">1,341</tspan></text>
        <path id="패스_45792" data-name="패스 45792" d="M11.816 50.416V26.072H0L26.072 0l26.071 26.072H38.587v24.344z" transform="rotate(180 310.535 611.709)" style="fill:#89d8b3"/>
        <path id="패스_45793" data-name="패스 45793" d="M38.587 50.416V26.072h13.556L26.072 0 0 26.072h11.816v24.344z" transform="translate(568.929 1303)" style="fill:#ffab7d"/>
        <path id="사각형_13501" data-name="사각형 13501" d="M16 0h108a16 16 0 0 1 16 16v98H0V16A16 16 0 0 1 16 0z" transform="translate(109 910)" style="fill:#ff7b36"/>
        <path id="사각형_13502" data-name="사각형 13502" class="cls-23" d="M16 0h108a16 16 0 0 1 16 16v58H0V16A16 16 0 0 1 16 0z" transform="translate(293 950)"/>
        <path id="사각형_13503" data-name="사각형 13503" class="cls-23" d="M16 0h108a16 16 0 0 1 16 16v4H0v-4A16 16 0 0 1 16 0z" transform="translate(477 1004)"/>
        <g id="그룹_57674" data-name="그룹 57674" transform="translate(49.633 124.449)">
            <g id="그룹_23148" data-name="그룹 23148" transform="translate(475.117 127.551)">
                <path id="사각형_10126" data-name="사각형 10126" class="cls-24" transform="translate(121.443 25.178)" d="M0 0h6.586v9.221H0z"/>
                <path id="사각형_10127" data-name="사각형 10127" class="cls-24" d="M0 0h5.66a.926.926 0 0 1 .926.926V18.45a2.626 2.626 0 0 1-2.626 2.626H0V0z" transform="translate(130.664)"/>
                <path id="패스_27551" data-name="패스 27551" class="cls-24" d="m573.619 148.627 3.623-5.8 3.622 5.8h8.236l-9.056-14.49h6.422v-6.587h-16.338a2.108 2.108 0 0 0-2.108 2.108v4.478h6.421l-9.056 14.49z" transform="translate(-492.774 -127.551)"/>
                <path id="패스_27552" data-name="패스 27552" class="cls-24" d="M524.376 129.659a2.108 2.108 0 0 0-2.107-2.108h-4.479v21.076h6.586z" transform="translate(-483.474 -127.551)"/>
                <path id="패스_27553" data-name="패스 27553" class="cls-24" d="M603.157 134.138h3.952v-6.587h-8.43a2.107 2.107 0 0 0-2.108 2.108v18.969h6.586z" transform="translate(-498.897 -127.551)"/>
                <path id="패스_27554" data-name="패스 27554" class="cls-24" d="M546.726 157.094h-6.586v3.952h-9.22v6.586h25.027v-6.586h-9.221z" transform="translate(-486.031 -133.235)"/>
                <path id="패스_27555" data-name="패스 27555" class="cls-24" d="M621.211 131.5v-3.952h-6.586v21.076h19.758v-6.586h-13.172v-3.952h18.441V131.5z" transform="translate(-502.402 -127.551)"/>
                <path id="사각형_10128" data-name="사각형 10128" class="cls-24" transform="translate(112.223 23.843)" d="M0 0h25.027v6.586H0z"/>
                <path id="패스_27556" data-name="패스 27556" class="cls-24" d="M578.517 167.632a10.538 10.538 0 1 0 10.538-10.538 10.537 10.537 0 0 0-10.538 10.538zm14.49 0a3.952 3.952 0 1 1-3.952-3.952 3.952 3.952 0 0 1 3.951 3.952z" transform="translate(-495.346 -133.169)"/>
                <path id="패스_27557" data-name="패스 27557" class="cls-24" d="m488.289 141.183 4.111-6.583-2.329-3.727a2.108 2.108 0 0 0-3.575 0l-11.384 18.217h8.233z" transform="translate(-475.117 -128.011)"/>
                <path id="패스_27558" data-name="패스 27558" class="cls-24" d="m496.925 135.78-4.116 6.586 3.912 6.261h13.5v-18.968a2.108 2.108 0 0 0-2.108-2.108h-8.43v6.587h3.952v12.382z" transform="translate(-478.61 -127.551)"/>
                <path id="패스_27572" data-name="패스 27572" class="cls-24" d="M555.947 146.52v-18.969h-2.47l-4.116 6.587v7.9h-11.855v-7.9h9.8l4.116-6.587h-18.395a2.107 2.107 0 0 0-2.108 2.108v18.969h22.92a2.108 2.108 0 0 0 2.108-2.108z" transform="translate(-486.031 -127.551)"/>
            </g>
        </g>
    </g>
</svg>
