<svg xmlns="http://www.w3.org/2000/svg" width="720" height="106">
    <defs>
        <clipPath id="clip-path">
            <path id="사각형_13424" data-name="사각형 13424" style="fill:#fff" d="M0 0h720v106H0z"/>
        </clipPath>
        <style>
            .cls-3{fill:#fff;font-size:20px;font-family:NotoSansCJKkr-Regular,Noto Sans CJK KR;letter-spacing:-.02em;opacity:.2;isolation:isolate}
        </style>
    </defs>
    <g id="마스크_그룹_42" data-name="마스크 그룹 42" style="opacity:.7;clip-path:url(#clip-path)">
        <g id="그룹_57625" data-name="그룹 57625" transform="translate(-26.627 -74.56)">
            <text id="sample" class="cls-3" transform="rotate(-30 518.4 -690.059)"><tspan x="-33.17" y="0">sample</tspan></text>
            <text id="sample-2" data-name="sample" class="cls-3" transform="rotate(-30 237.785 -594.31)"><tspan x="-33.17" y="0">sample</tspan></text>
            <text id="sample-3" data-name="sample" class="cls-3" transform="rotate(-30 658.707 -737.936)"><tspan x="-33.17" y="0">sample</tspan></text>
            <text id="sample-4" data-name="sample" class="cls-3" transform="rotate(-30 518.304 -1432.085)"><tspan x="-33.17" y="0">sample</tspan></text>
            <text id="sample-5" data-name="sample" class="cls-3" transform="rotate(-30 378.09 -642.185)"><tspan x="-33.17" y="0">sample</tspan></text>
            <text id="sample-6" data-name="sample" class="cls-3" transform="rotate(-30 518.495 51.96)"><tspan x="-33.17" y="0">sample</tspan></text>
            <text id="sample-7" data-name="sample" class="cls-3" transform="rotate(-30 588.553 -713.998)"><tspan x="-33.17" y="0">sample</tspan></text>
            <text id="sample-8" data-name="sample" class="cls-3" transform="rotate(-30 448.15 -1408.147)"><tspan x="-33.17" y="0">sample</tspan></text>
            <text id="sample-9" data-name="sample" class="cls-3" transform="rotate(-30 307.939 -618.246)"><tspan x="-33.17" y="0">sample</tspan></text>
            <text id="sample-10" data-name="sample" class="cls-3" transform="rotate(-30 728.862 -761.874)"><tspan x="-33.17" y="0">sample</tspan></text>
            <text id="sample-11" data-name="sample" class="cls-3" transform="rotate(-30 448.247 -666.123)"><tspan x="-33.17" y="0">sample</tspan></text>
            <text id="sample-12" data-name="sample" class="cls-3" transform="rotate(-30 483.3 -863.598)"><tspan x="-33.17" y="0">sample</tspan></text>
            <text id="sample-13" data-name="sample" class="cls-3" transform="rotate(-30 763.913 -959.35)"><tspan x="-33.17" y="0">sample</tspan></text>
            <text id="sample-14" data-name="sample" class="cls-3" transform="rotate(-30 343.087 -73.698)"><tspan x="-33.17" y="0">sample</tspan></text>
            <text id="sample-15" data-name="sample" class="cls-3" transform="rotate(-30 623.607 -911.475)"><tspan x="-33.17" y="0">sample</tspan></text>
            <text id="sample-16" data-name="sample" class="cls-3" transform="rotate(-30 202.781 -25.823)"><tspan x="-33.17" y="0">sample</tspan></text>
            <text id="sample-17" data-name="sample" class="cls-3" transform="rotate(-30 342.99 -815.724)"><tspan x="-33.17" y="0">sample</tspan></text>
            <text id="sample-18" data-name="sample" class="cls-3" transform="rotate(-30 483.394 -121.575)"><tspan x="-33.17" y="0">sample</tspan></text>
            <text id="sample-19" data-name="sample" class="cls-3" transform="rotate(-30 553.453 -887.537)"><tspan x="-33.17" y="0">sample</tspan></text>
            <text id="sample-20" data-name="sample" class="cls-3" transform="rotate(-30 413.242 -97.636)"><tspan x="-33.17" y="0">sample</tspan></text>
            <text id="sample-21" data-name="sample" class="cls-3" transform="rotate(-30 693.761 -935.413)"><tspan x="-33.17" y="0">sample</tspan></text>
            <text id="sample-22" data-name="sample" class="cls-3" transform="rotate(-30 272.934 -49.762)"><tspan x="-33.17" y="0">sample</tspan></text>
            <text id="sample-23" data-name="sample" class="cls-3" transform="rotate(-30 413.147 -839.662)"><tspan x="-33.17" y="0">sample</tspan></text>
            <text id="sample-24" data-name="sample" class="cls-3" transform="rotate(-30 553.55 -145.513)"><tspan x="-33.17" y="0">sample</tspan></text>
            <text id="sample-25" data-name="sample" class="cls-3" transform="rotate(-30 448.2 -1037.135)"><tspan x="-33.17" y="0">sample</tspan></text>
            <text id="sample-26" data-name="sample" class="cls-3" transform="rotate(-30 588.603 -342.988)"><tspan x="-33.17" y="0">sample</tspan></text>
            <text id="sample-27" data-name="sample" class="cls-3" transform="rotate(-30 728.812 -1132.887)"><tspan x="-33.17" y="0">sample</tspan></text>
            <text id="sample-28" data-name="sample" class="cls-3" transform="rotate(-30 307.987 -247.237)"><tspan x="-33.17" y="0">sample</tspan></text>
            <text id="sample-29" data-name="sample" class="cls-3" transform="rotate(-30 588.506 -1085.01)"><tspan x="-33.17" y="0">sample</tspan></text>
            <text id="sample-30" data-name="sample" class="cls-3" transform="rotate(-30 167.68 -199.362)"><tspan x="-33.17" y="0">sample</tspan></text>
            <text id="sample-31" data-name="sample" class="cls-3" transform="rotate(-30 448.294 -295.114)"><tspan x="-33.17" y="0">sample</tspan></text>
            <text id="sample-32" data-name="sample" class="cls-3" transform="rotate(-30 518.351 -1061.072)"><tspan x="-33.17" y="0">sample</tspan></text>
            <text id="sample-33" data-name="sample" class="cls-3" transform="rotate(-30 658.756 -366.927)"><tspan x="-33.17" y="0">sample</tspan></text>
            <text id="sample-34" data-name="sample" class="cls-3" transform="rotate(-30 798.966 -1156.824)"><tspan x="-33.17" y="0">sample</tspan></text>
            <text id="sample-35" data-name="sample" class="cls-3" transform="rotate(-30 378.141 -271.175)"><tspan x="-33.17" y="0">sample</tspan></text>
            <text id="sample-36" data-name="sample" class="cls-3" transform="rotate(-30 658.66 -1108.949)"><tspan x="-33.17" y="0">sample</tspan></text>
            <text id="sample-37" data-name="sample" class="cls-3" transform="rotate(-30 237.833 -223.3)"><tspan x="-33.17" y="0">sample</tspan></text>
            <text id="sample-38" data-name="sample" class="cls-3" transform="rotate(-30 378.045 -1013.197)"><tspan x="-33.17" y="0">sample</tspan></text>
            <text id="sample-39" data-name="sample" class="cls-3" transform="rotate(-30 518.45 -319.05)"><tspan x="-33.17" y="0">sample</tspan></text>
            <text id="sample-40" data-name="sample" class="cls-3" transform="rotate(-30 413.098 -1210.67)"><tspan x="-33.17" y="0">sample</tspan></text>
            <text id="sample-41" data-name="sample" class="cls-3" transform="rotate(-30 553.502 -516.524)"><tspan x="-33.17" y="0">sample</tspan></text>
            <text id="sample-42" data-name="sample" class="cls-3" transform="rotate(-30 693.71 -1306.423)"><tspan x="-33.17" y="0">sample</tspan></text>
            <text id="sample-43" data-name="sample" class="cls-3" transform="rotate(-30 272.886 -420.773)"><tspan x="-33.17" y="0">sample</tspan></text>
            <text id="sample-44" data-name="sample" class="cls-3" transform="rotate(-30 553.404 -1258.546)"><tspan x="-33.17" y="0">sample</tspan></text>
            <text id="sample-45" data-name="sample" class="cls-3" transform="rotate(-30 693.809 -564.4)"><tspan x="-33.17" y="0">sample</tspan></text>
            <text id="sample-46" data-name="sample" class="cls-3" transform="rotate(-30 413.192 -468.65)"><tspan x="-33.17" y="0">sample</tspan></text>
            <text id="sample-47" data-name="sample" class="cls-3" transform="rotate(-30 483.25 -1234.608)"><tspan x="-33.17" y="0">sample</tspan></text>
            <text id="sample-48" data-name="sample" class="cls-3" transform="rotate(-30 623.654 -540.462)"><tspan x="-33.17" y="0">sample</tspan></text>
            <text id="sample-49" data-name="sample" class="cls-3" transform="rotate(-30 763.865 -1330.36)"><tspan x="-33.17" y="0">sample</tspan></text>
            <text id="sample-50" data-name="sample" class="cls-3" transform="rotate(-30 343.04 -444.71)"><tspan x="-33.17" y="0">sample</tspan></text>
            <text id="sample-51" data-name="sample" class="cls-3" transform="rotate(-30 623.559 -1282.484)"><tspan x="-33.17" y="0">sample</tspan></text>
            <text id="sample-52" data-name="sample" class="cls-3" transform="rotate(-30 202.732 -396.836)"><tspan x="-33.17" y="0">sample</tspan></text>
            <text id="sample-53" data-name="sample" class="cls-3" transform="rotate(-30 483.348 -492.587)"><tspan x="-33.17" y="0">sample</tspan></text>
        </g>
    </g>
</svg>
