<svg xmlns="http://www.w3.org/2000/svg" width="70" height="70" viewBox="0 0 70 70">
    <defs>
        <clipPath id="clip-path">
            <circle id="타원_1437" cx="35" cy="35" r="35" fill="#f9f9f9" stroke="#efefef" transform="translate(-20029 -20787)"/>
        </clipPath>
        <style>
            .cls-3{fill:#1bd9ac}.cls-4{fill:#362322}.cls-5{fill:#fff}.cls-6{fill:#ffa4b1;opacity:.68}
        </style>
    </defs>
    <g id="마스크_그룹_8" clip-path="url(#clip-path)" transform="translate(20029 20787)">
        <g id="그룹_56478" transform="translate(-20778.588 -21463.961)">
            <g id="그룹_56482" transform="translate(787.704 687.128)">
                <g id="그룹_56479" transform="translate(0)">
                    <g id="그룹_56478-2">
                        <path id="패스_44525" d="M993.013 701.5c-.859-.351-.987-1.513-.854-2.431a10.384 10.384 0 0 1 3.829-6.6 2.782 2.782 0 0 1 2.3-.758 2.085 2.085 0 0 1 1.39 1.957 4.794 4.794 0 0 1-.713 2.436 14.681 14.681 0 0 1-3.642 4.411c-.6.49-1.438.947-2.109.557" class="cls-3" transform="translate(-991.449 -690.98)"/>
                        <path id="패스_44526" d="M989.515 697.068c-.071-.031-.135-.07-.2-.106-.129-.069.1.1-.006 0-.02-.021-.043-.04-.063-.06l-.03-.032q-.069-.081.02.033c-.022-.009-.049-.07-.062-.091a.662.662 0 0 1-.116-.219l.032.074q-.017-.043-.031-.088l-.028-.09c-.022-.077-.04-.155-.054-.233-.01-.055-.064-.165-.005-.016a.458.458 0 0 1-.01-.1c-.009-.1-.013-.2-.013-.3 0-.164.012-.326.027-.489s-.028.17 0-.023l.018-.115q.028-.173.063-.344a10.156 10.156 0 0 1 .313-1.183q.091-.277.2-.548l.065-.162c-.01.024-.05.115 0 0s.094-.213.145-.319a10.436 10.436 0 0 1 .588-1.074q.155-.247.323-.486.084-.119.172-.236c.01-.013.129-.166.038-.051l.109-.137a10.241 10.241 0 0 1 .826-.9q.21-.2.43-.394.11-.1.224-.187c.045-.037.091-.074.137-.109-.089.069.051-.036.068-.048a4.617 4.617 0 0 1 .545-.341c.047-.025.095-.049.143-.071.027-.013.154-.062.045-.021a2.675 2.675 0 0 1 .357-.11c.04-.009.08-.017.12-.023-.149.025.046 0 .066 0h.152c.036 0 .164.026.036 0a2.44 2.44 0 0 1 .268.073c-.14-.044-.037-.016 0 0a1.56 1.56 0 0 1 .152.088c.028.018.055.038.082.057-.135-.1 0 0 .02.025.062.058.115.123.173.185-.09-.095-.032-.045-.011-.013s.058.085.085.129a2.442 2.442 0 0 1 .143.276c-.067-.151.027.093.04.135.024.084.042.168.06.253.027.126 0-.006 0-.023a.649.649 0 0 1 .012.154 3.6 3.6 0 0 1-.008.393c-.008.133 0 .048 0 .018-.008.065-.02.129-.033.193-.022.107-.048.213-.078.318s-.064.21-.1.314l-.047.124-.049.123q.036-.086-.012.024a13.858 13.858 0 0 1-1.362 2.286l-.074.1-.075.1q-.064.083-.024.032l-.063.081-.117.147q-.237.292-.488.571-.492.546-1.037 1.042-.266.242-.544.471c-.009.008-.169.133-.053.045q-.072.055-.146.106c-.1.069-.2.135-.309.195-.044.025-.089.048-.134.071l-.081.039q.1-.041-.005 0c-.11.039-.219.065-.332.093.125-.031.05 0 .011 0s-.266-.019-.1.011c-.036-.006-.072-.014-.107-.023a1.064 1.064 0 0 1-.1-.034q.109.045.006-.007a.665.665 0 0 0-.672 1.149c1.068.585 2.179-.049 3.011-.74a14.648 14.648 0 0 0 2.06-2.093 15.351 15.351 0 0 0 1.651-2.49 4.865 4.865 0 0 0 .673-3.191 2.677 2.677 0 0 0-1.761-2.048 3.5 3.5 0 0 0-3.091.988 11.036 11.036 0 0 0-3.286 4.521 8.942 8.942 0 0 0-.689 2.963 2.542 2.542 0 0 0 1.226 2.523.683.683 0 0 0 .91-.239.673.673 0 0 0-.239-.91z" class="cls-4" transform="translate(-987.615 -687.128)"/>
                    </g>
                    <path id="패스_44527" d="M997.859 742.481c-.02-.078-.038-.156-.054-.235q-.011-.056-.02-.113c0-.017-.005-.033-.008-.05.007.05 0-.014 0-.02a1.675 1.675 0 0 1-.009-.2c0-.033 0-.066.005-.1 0-.007.008-.056 0-.022s0-.023.006-.03a.85.85 0 0 1 .023-.09l.013-.04c.009-.025.012-.026 0 0 .013-.028.027-.055.043-.081l.023-.035c.006-.009.041-.048.006-.01.02-.022.039-.044.06-.065l.04-.037s.052-.041.014-.013a1.272 1.272 0 0 1 .2-.118.224.224 0 0 0 .079-.3.226.226 0 0 0-.3-.079 1.109 1.109 0 0 0-.62.739 2.216 2.216 0 0 0 .076 1.018.222.222 0 0 0 .428-.118z" class="cls-4" transform="translate(-995.888 -732.877)"/>
                </g>
                <g id="그룹_56481" transform="translate(2.274 3.176)">
                    <g id="그룹_56480">
                        <path id="패스_44528" d="M1007.517 719.083a9.079 9.079 0 0 1 6-5.85c1.089-.318 2.545-.266 3.019.764a2.34 2.34 0 0 1-.134 1.838 7.227 7.227 0 0 1-8.532 4" class="cls-3" transform="translate(-1006.849 -712.403)"/>
                        <path id="패스_44529" d="M1004.309 715.467c.062-.19.128-.378.2-.564.009-.022.08-.191.016-.042l.043-.1q.066-.149.138-.3a8.92 8.92 0 0 1 .6-1.036q.091-.136.187-.268l.064-.088c.013-.018.125-.163.028-.039q.184-.236.384-.46a9.262 9.262 0 0 1 .853-.841q.124-.107.251-.21l.085-.068c.143-.113-.109.079.038-.029s.323-.234.491-.343a8.9 8.9 0 0 1 1.044-.585c.09-.043.182-.083.273-.124s-.147.058.017-.007l.152-.06q.279-.108.566-.2a4.811 4.811 0 0 1 .521-.131l.1-.017c.052-.009.171-.06.017 0a1.088 1.088 0 0 1 .293-.024 4.04 4.04 0 0 1 .531.015c.131.011-.03-.008-.036-.005.025-.01.112.02.138.025a2.339 2.339 0 0 1 .265.071l.043.015q.1.039-.035-.018c.024 0 .077.036.1.047a1.1 1.1 0 0 1 .2.123c0 .007-.108-.094-.032-.025.032.029.065.057.095.088.01.01.091.085.087.1.007-.023-.082-.121 0 .009.024.039.045.079.066.119.065.118-.007-.067.01.029a1.423 1.423 0 0 0 .042.149c.052.173 0-.113.011.068v.312c-.011.195.034-.116-.012.075-.015.062-.026.125-.042.188-.027.1-.059.207-.094.308-.021.06-.045.12-.067.18-.073.195.056-.121-.016.038s-.155.332-.244.492-.183.316-.285.467q-.069.1-.142.2l-.089.12c.066-.088.025-.032-.019.022a6.954 6.954 0 0 1-.754.793q-.093.083-.188.164l-.116.1c-.023.018-.158.121-.023.019-.147.11-.3.217-.449.317a7.6 7.6 0 0 1-.964.531l-.137.062c-.127.057.116-.045-.026.011-.093.036-.186.073-.281.108q-.306.11-.62.194-.29.077-.585.13l-.148.025c-.04.006-.2.035-.02 0-.1.017-.2.024-.3.032a6.751 6.751 0 0 1-1.242 0l-.124-.013c-.18-.021.094.018-.045-.006-.1-.017-.2-.032-.294-.052a6.414 6.414 0 0 1-.63-.161.672.672 0 0 0-.818.465.68.68 0 0 0 .465.818 7.948 7.948 0 0 0 8.8-3.372 4.242 4.242 0 0 0 .792-2.926 2.245 2.245 0 0 0-1.878-1.712 5.023 5.023 0 0 0-2.588.3 9.469 9.469 0 0 0-2.359 1.245 9.839 9.839 0 0 0-3.587 4.9.671.671 0 0 0 .465.818.68.68 0 0 0 .818-.465z" class="cls-4" transform="translate(-1003 -708.609)"/>
                    </g>
                    <path id="패스_44530" d="M1012.819 746a3.676 3.676 0 0 1 2.468-1.754c.28-.055.161-.482-.118-.428a4.109 4.109 0 0 0-2.733 1.958.222.222 0 0 0 .383.224z" class="cls-4" transform="translate(-1011.014 -738.608)"/>
                </g>
            </g>
            <g id="그룹_56483" transform="translate(759.908 698.16)">
                <path id="패스_44531" d="M844.149 776.095c4.226 6.22 5.807 14.832 2.536 20.016-1.556 2.465-3.771 4.6-10.159 4.7-5.434.085-14.948-1.678-23.509-5.2-4.331-1.782-7.484-5.233-7.42-8.95.146-8.518 9.189-17.587 19.554-18.747 7.749-.869 14.837 2.056 18.998 8.181z" class="cls-5" transform="translate(-804.708 -766.873)"/>
                <path id="패스_44532" d="M838.268 771.422a25.36 25.36 0 0 1 1.638 2.787q.352.7.661 1.411c.017.039.106.244.012.027.026.059.05.12.075.18q.074.18.145.361.154.391.3.787a24.718 24.718 0 0 1 .866 3.005q.168.763.283 1.536l.026.184c.031.215-.025-.207 0 .008l.044.366q.043.393.071.787a17.506 17.506 0 0 1-.027 2.885q-.016.171-.036.341a1.52 1.52 0 0 0-.021.17c0-.249.011-.081 0-.011q-.053.361-.124.719a12.679 12.679 0 0 1-.323 1.28q-.1.309-.209.614-.056.151-.117.3c-.025.06-.114.2.007-.015-.034.061-.057.131-.086.195a10 10 0 0 1-.62 1.161q-.227.365-.477.715l-.125.171c-.048.064-.225.274-.011.018-.1.119-.193.242-.294.359a8.531 8.531 0 0 1-.629.659q-.164.154-.337.3l-.148.121c-.054.044-.178.116.058-.044-.043.029-.083.063-.125.094a8.108 8.108 0 0 1-.854.549q-.226.126-.46.239-.121.058-.243.113c-.041.019-.084.035-.125.055.268-.127.061-.026 0 0a12.426 12.426 0 0 1-2.469.686q-.177.031-.354.059l-.181.027c-.054.008-.255.057-.011 0a6.482 6.482 0 0 1-.841.091c-.571.05-1.145.077-1.718.088a36.913 36.913 0 0 1-5.144-.317l-.353-.044-.178-.023c-.211-.028.209.029 0 0q-.4-.054-.79-.113-.753-.113-1.5-.244-1.653-.288-3.29-.655-3.45-.769-6.82-1.851-1.76-.565-3.49-1.218-.858-.325-1.708-.673c-.033-.014-.263-.1-.043-.017-.062-.025-.123-.053-.184-.08q-.183-.081-.364-.166-.388-.183-.766-.386a15.094 15.094 0 0 1-1.326-.8c-.209-.142-.413-.29-.615-.442-.173-.13.15.121-.018-.014l-.145-.116q-.167-.136-.33-.277a12.014 12.014 0 0 1-1.071-1.052q-.117-.131-.23-.266c-.053-.063-.2-.19-.219-.271l.068.088-.069-.092-.1-.138q-.1-.138-.195-.28a8.774 8.774 0 0 1-.68-1.209l-.067-.149c-.08-.179.076.194.005.012-.039-.1-.079-.2-.115-.3q-.116-.328-.2-.665c-.052-.207-.09-.415-.126-.624-.033-.192.024.22 0 .026l-.017-.158q-.016-.159-.023-.318a9.6 9.6 0 0 1 .039-1.291q.013-.153.03-.306c.008-.074.066-.43.013-.121.038-.221.067-.443.108-.663q.116-.617.286-1.222.179-.64.413-1.264c.075-.2.172-.4.238-.6-.088.27.031-.07.061-.137q.077-.175.159-.348a19.292 19.292 0 0 1 1.337-2.38q.392-.6.824-1.168a1.293 1.293 0 0 1 .105-.138c-.166.166-.034.044 0 0q.107-.137.217-.272.22-.272.449-.536a23.778 23.778 0 0 1 2.072-2.112q.536-.483 1.1-.934c.094-.075.186-.155.285-.224-.2.139-.025.02.012-.009l.145-.109q.316-.237.639-.463a24.665 24.665 0 0 1 2.551-1.566q.678-.361 1.378-.679.168-.076.338-.15c.056-.024.112-.052.17-.073-.229.083-.029.012.015-.006q.371-.153.746-.293a22.279 22.279 0 0 1 2.9-.865q.756-.17 1.523-.284l.184-.027c.216-.031-.206.025.011 0l.309-.037q.416-.047.834-.079a23.214 23.214 0 0 1 3.149-.031q.738.044 1.471.136c.078.01.228-.017.006 0a.9.9 0 0 1 .181.026q.181.027.36.056.388.064.774.142a20.173 20.173 0 0 1 2.815.788q.334.12.663.253l.164.067c.193.078-.185-.081.005 0 .126.055.252.109.377.166q.669.3 1.312.657.616.339 1.206.724.295.192.582.4.144.1.285.206l.141.105c.047.035.269.169.054.04a4.594 4.594 0 0 1 .549.444q.282.237.555.486.538.491 1.036 1.022t.945 1.089l.113.142c.03.039.169.189.01.012.08.089.148.2.219.292q.218.3.425.6a.887.887 0 1 0 1.532-.9 20.092 20.092 0 0 0-4.356-4.623 19.69 19.69 0 0 0-5.346-2.9 21.708 21.708 0 0 0-6.141-1.217 23.392 23.392 0 0 0-6.48.54 23.941 23.941 0 0 0-5.965 2.261 25.665 25.665 0 0 0-5.126 3.635 23.637 23.637 0 0 0-3.922 4.6 18.486 18.486 0 0 0-2.352 5.162 11.036 11.036 0 0 0-.271 5.57 10.282 10.282 0 0 0 3.274 5.016 15.3 15.3 0 0 0 2.752 1.922 27.508 27.508 0 0 0 3.4 1.48 74.6 74.6 0 0 0 7.113 2.3c2.238.606 4.5 1.115 6.789 1.509a54.239 54.239 0 0 0 6.04.731 24.691 24.691 0 0 0 6.026-.31 9.853 9.853 0 0 0 7.181-4.907 13.016 13.016 0 0 0 1.715-5.559 20.254 20.254 0 0 0-.461-6.238 26.311 26.311 0 0 0-2.263-6.252 25.35 25.35 0 0 0-1.609-2.729.887.887 0 1 0-1.532.9z" class="cls-4" transform="translate(-799.593 -761.753)"/>
            </g>
            <g id="그룹_56490" transform="translate(772.043 704.788)">
                <ellipse id="타원_1465" cx="2.171" cy="2.129" class="cls-6" rx="2.171" ry="2.129" transform="translate(12.112 6.729) rotate(-2.906)"/>
                <ellipse id="타원_1466" cx="2.046" cy="2.006" class="cls-6" rx="2.046" ry="2.006" transform="translate(0 4.05) rotate(-2.906)"/>
                <g id="그룹_56484" transform="translate(13.414 2.989)">
                    <path id="패스_44533" d="M975.863 826.823c-1.044.434-2.158.679-3.2 1.112a.337.337 0 0 0-.147.556c.872.765 1.731 1.546 2.6 2.311.321.281.793-.187.47-.47-.872-.765-1.731-1.546-2.6-2.311l-.147.556c1.044-.434 2.158-.679 3.2-1.112a.344.344 0 0 0 .232-.409.335.335 0 0 0-.409-.232z" transform="translate(-972.412 -826.805)"/>
                    <path id="패스_44534" d="M973.71 835.618c1.29.133 2.51.634 3.8.767a.335.335 0 0 0 .333-.333.34.34 0 0 0-.333-.333c-1.29-.133-2.51-.634-3.8-.767a.335.335 0 0 0-.333.333.34.34 0 0 0 .333.333z" transform="translate(-973.234 -833.747)"/>
                </g>
                <g id="그룹_56485" transform="translate(1.943)">
                    <path id="패스_44535" d="M897.544 807.153c.705.7 1.418 1.4 2.123 2.1l.147-.556c-1.044.362-2.047.83-3.091 1.193a.341.341 0 0 0-.232.409.336.336 0 0 0 .409.232c1.044-.362 2.047-.83 3.091-1.193a.337.337 0 0 0 .147-.556c-.705-.7-1.418-1.4-2.123-2.1a.333.333 0 0 0-.47.47z" transform="translate(-896.234 -806.585)"/>
                    <path id="패스_44536" d="M898.368 817.345c-1.03-.3-2.109-.366-3.14-.67a.333.333 0 0 0-.177.642c1.03.3 2.109.366 3.14.67a.333.333 0 0 0 .177-.642z" transform="translate(-894.818 -815.17)"/>
                </g>
                <g id="그룹_56487" transform="translate(4.45 5.138)">
                    <g id="그룹_56486" transform="translate(0.339 0.321)">
                        <path id="패스_44537" fill="#ff707f" d="M915.759 844.222c-.339 1.392-.973 2.785-1.312 4.177a15.011 15.011 0 0 0-.365 3.451c.067.767.51 1.337 1.143 1.082a8.866 8.866 0 0 0 2.073-2.573 32.651 32.651 0 0 0 2.556-6.225 3.366 3.366 0 0 1-3.2-.625" transform="translate(-914.07 -843.509)"/>
                    </g>
                    <path id="패스_44538" d="M913.487 842.285c-.379 1.537-1.084 2.98-1.39 4.536a18.207 18.207 0 0 0-.262 1.893 5.34 5.34 0 0 0 .022 1.672 1.225 1.225 0 0 0 1.238 1.081 1.931 1.931 0 0 0 1.15-.81 15.182 15.182 0 0 0 2-3.125 42.808 42.808 0 0 0 1.975-5.159.335.335 0 0 0-.409-.409 3.11 3.11 0 0 1-2.876-.539c-.323-.279-.8.19-.47.47a3.8 3.8 0 0 0 3.523.71l-.409-.409c-.489 1.443-.958 2.9-1.578 4.292a17.084 17.084 0 0 1-1.827 3.184c-.151.206-.308.407-.476.6-.073.083-.147.164-.225.242-.035.035-.07.069-.107.1-.019.017-.125.1-.084.073a.43.43 0 0 1-.407.106.683.683 0 0 1-.338-.437 3.842 3.842 0 0 1-.055-1.465 17.1 17.1 0 0 1 .219-1.716c.293-1.622 1.03-3.12 1.423-4.716.1-.416-.539-.593-.641-.177z" transform="translate(-911.78 -841.34)"/>
                </g>
                <g id="그룹_56488" transform="translate(5.362 4.12)">
                    <path id="패스_44539" d="M920.964 837.444a1.178 1.178 0 0 0 .605 1.466 2.124 2.124 0 0 0 2.193-.175 1.875 1.875 0 0 0 1.408 1.316c1.515.226 1.716-1.122 1.654-1.091" class="cls-5" transform="translate(-920.469 -837.002)"/>
                    <path id="패스_44540" d="M918.013 834.777a1.847 1.847 0 0 0 .079 1.228 1.9 1.9 0 0 0 .874.818 2.552 2.552 0 0 0 2.5-.254l-.667-.383a2.233 2.233 0 0 0 2.112 1.784 1.774 1.774 0 0 0 1.778-1.174 1.052 1.052 0 0 0 .069-.341.46.46 0 0 0-.57-.471.444.444 0 0 0 .236.855h-.232l-.2-.114a.7.7 0 0 1-.124-.279v.029c.009-.181.008-.061-.007-.005s-.03.086-.043.129c.046-.146-.012.019-.037.063s-.036.059-.055.088c-.035.054-.036.042 0 0-.046.051-.1.1-.143.148s.066-.036-.035.027c-.028.017-.056.036-.085.052s-.155.065-.053.029c-.042.015-.083.029-.125.041s-.091.022-.137.03c.09-.017-.056 0-.076.005a1.978 1.978 0 0 1-.312-.008 1.148 1.148 0 0 1-.553-.234 2.237 2.237 0 0 1-.2-.184c-.037-.039-.074-.079-.108-.121l-.013-.016-.037-.052c-.05-.077-.1-.155-.138-.237q-.021-.046.01.028c-.008-.019-.015-.039-.021-.059-.01-.035-.033-.163-.014-.012a.468.468 0 0 0-.22-.383.436.436 0 0 0-.448 0 1.662 1.662 0 0 1-.794.326 1.68 1.68 0 0 1-.794-.066 1.879 1.879 0 0 1-.3-.182 1.422 1.422 0 0 1-.152-.141s-.072-.09-.046-.054-.029-.049-.033-.057-.026-.047-.037-.071c.035.076 0-.006 0-.024s-.017-.065-.023-.1c.009.046 0 .032 0-.007a1.486 1.486 0 0 1 .038-.415.454.454 0 0 0-.31-.546.448.448 0 0 0-.546.31z" transform="translate(-917.946 -834.453)"/>
                </g>
                <g id="그룹_56489" transform="translate(7.663 3.457)">
                    <ellipse id="타원_1467" cx=".444" cy="1.331" rx=".444" ry="1.331" transform="translate(0.026 0.849) rotate(-73.179)"/>
                    <path id="패스_44541" d="M935.7 832.014a3.376 3.376 0 0 1-.932-.156 3.239 3.239 0 0 1-.905-.417c-.349-.247-.377-.45-.338-.576s.174-.28.6-.293a3.3 3.3 0 0 1 .985.154 3.249 3.249 0 0 1 .905.417c.349.247.377.45.339.577-.061.21-.32.294-.654.294zm-1.52-1.146c-.231 0-.362.044-.373.082 0 .012.021.1.226.249a3.328 3.328 0 0 0 1.712.517c.251-.007.323-.07.326-.082s-.021-.1-.226-.25a3.342 3.342 0 0 0-1.665-.517z" transform="translate(-933.513 -830.483)"/>
                </g>
                <path id="패스_44542" d="M937.774 835.118l-.807 1.567a.227.227 0 0 0 .079.3.224.224 0 0 0 .3-.08l.807-1.568a.227.227 0 0 0-.08-.3.224.224 0 0 0-.3.079z" transform="translate(-928.77 -830.807)"/>
                <path id="패스_44543" d="M908.72 911.53a1.245 1.245 0 0 0 1.68 1.07.976.976 0 0 0 .514-.43.222.222 0 0 0-.383-.224l-.028.047c-.01.015-.031.042-.007.012a.736.736 0 0 1-.076.081c-.006.005-.046.037-.023.02s-.019.012-.026.016-.033.021-.05.03-.059.03-.034.018-.02.008-.028.01l-.048.015c-.036.01-.072.017-.108.024.039-.008.013 0-.009 0h-.052a1.079 1.079 0 0 1-.114 0h-.064c-.038-.007-.076-.014-.113-.024s-.075-.022-.111-.035c-.008 0-.056-.022-.031-.012s-.029-.014-.038-.018c-.032-.016-.063-.033-.093-.051l-.044-.029c-.008-.006-.053-.04-.034-.024l-.024-.021-.038-.035a.93.93 0 0 1-.074-.082c.027.034 0 0-.01-.016s-.024-.038-.034-.057l-.026-.053c.018.041 0 0 0-.018s-.011-.038-.016-.057-.011-.067-.008-.038 0-.03 0-.04v-.072a.222.222 0 0 0-.443 0z" transform="translate(-904.721 -895.826)"/>
            </g>
            <g id="그룹_56500" transform="translate(776.408 700.494)">
                <path id="패스_44562" d="M911.956 779.144c.04-.039.081-.077.123-.114l.064-.054c.022-.019.046-.036.009-.008a2.869 2.869 0 0 1 .3-.2q.073-.042.147-.08l.075-.037c.007 0 .082-.038.043-.02s.037-.015.044-.018l.079-.029q.089-.032.179-.058a3.049 3.049 0 0 1 .326-.076l.083-.013c-.046.007-.03 0 .007 0 .056-.005.111-.01.167-.013a2.938 2.938 0 0 1 .355 0l.083.007c.008 0 .093.012.045 0s.036.007.045.008l.1.02a.444.444 0 0 0 .236-.855 3.494 3.494 0 0 0-3.136.9.444.444 0 0 0 .627.627z" transform="translate(-911.201 -777.542)"/>
                <path id="패스_44563" d="M1000.287 791.36a3.491 3.491 0 0 0-2.837-1.6.447.447 0 0 0-.443.443.452.452 0 0 0 .443.444c.062 0 .124 0 .185.009l.074.007c.087.009-.044-.009.011 0 .109.022.218.041.326.07a3.225 3.225 0 0 1 .333.114c-.058-.023-.024-.01.013.007l.067.032c.056.027.11.056.164.086a3.075 3.075 0 0 1 .282.18c.032.023.063.047.014.008l.058.047q.072.059.14.122a2.931 2.931 0 0 1 .23.241l.059.071c.044.052-.059-.083.01.013.036.051.071.1.1.154a.444.444 0 0 0 .766-.448z" transform="translate(-984.322 -787.952)"/>
            </g>
        </g>
    </g>
</svg>
