<svg xmlns="http://www.w3.org/2000/svg" xmlns:xlink="http://www.w3.org/1999/xlink" width="70" height="70" viewBox="0 0 70 70">
  <defs>
    <clipPath id="clip-path">
      <circle id="타원_1647" data-name="타원 1647" cx="35" cy="35" r="35" transform="translate(-20029 -20787)" fill="#f9f9f9" stroke="#efefef" stroke-width="1"/>
    </clipPath>
  </defs>
  <g id="마스크_그룹_30" data-name="마스크 그룹 30" transform="translate(20029 20787)" clip-path="url(#clip-path)">
    <g id="그룹_57207" data-name="그룹 57207" transform="translate(-20400.875 -20810.336)">
      <g id="그룹_57197" data-name="그룹 57197" transform="translate(383.877 44.174)">
        <path id="패스_45248" data-name="패스 45248" d="M426.512,113c5.6,5.314,9.072,13.608,6.925,19.524-1.021,2.814-2.777,5.438-9.162,6.936-5.433,1.275-15.363,1.589-24.721-.071-4.735-.84-8.653-3.611-9.4-7.354-1.718-8.577,5.368-19.654,15.512-23.086C413.243,106.38,421,107.762,426.512,113Z" transform="translate(-388.981 -106.778)" fill="#fff"/>
        <path id="패스_45249" data-name="패스 45249" d="M420.764,108.537A26.045,26.045,0,0,1,423,110.951q.107.131.211.263l.125.159c.143.181-.117-.155.023.029.177.233.352.467.522.7q.469.656.9,1.34a25.394,25.394,0,0,1,1.522,2.8c.1.217.2.436.293.656s-.076-.186.009.022l.074.18q.085.209.165.42.273.714.494,1.445.216.714.377,1.444.072.328.132.659.032.179.061.358.014.089.027.178c.006.04.012.079.017.119q-.028-.215-.009-.064a14.554,14.554,0,0,1,.093,2.785q-.021.309-.059.617c-.008.067-.057.245,0-.02-.012.054-.016.111-.024.165q-.03.192-.066.383a10.467,10.467,0,0,1-.327,1.275c-.1.316-.224.625-.348.933-.059.146.1-.225.034-.08l-.045.1q-.045.1-.093.205-.095.205-.2.407a9.025,9.025,0,0,1-.464.8q-.13.2-.271.389l-.06.08c-.066.091.156-.195.056-.073-.06.074-.119.149-.18.221a8.282,8.282,0,0,1-.707.737q-.2.184-.41.355l-.109.087c-.111.09.067-.052.073-.056-.092.064-.179.134-.27.2a10.924,10.924,0,0,1-1.044.654q-.294.163-.6.309a3.289,3.289,0,0,1-.649.3c.224-.049.054-.023-.011,0l-.175.071q-.18.072-.362.139-.381.142-.768.267c-.568.185-1.144.346-1.724.489-.849.209-1.708.374-2.572.509q-.341.053-.682.1c-.058.008-.117.014-.175.024.271-.046.063-.009.007,0l-.359.045q-.746.091-1.495.16a68.4,68.4,0,0,1-6.849.269q-3.793-.031-7.573-.423-.973-.1-1.943-.228c-.026,0-.3-.039-.082-.01l-.243-.033-.4-.057q-.526-.076-1.051-.16a21.837,21.837,0,0,1-3.354-.746q-.344-.112-.683-.241c-.122-.046-.242-.1-.363-.143-.208-.083.184.081-.021-.008l-.235-.1a13.478,13.478,0,0,1-1.341-.7q-.3-.181-.6-.378-.138-.093-.273-.19l-.146-.106-.1-.072q.158.123.043.033a10.71,10.71,0,0,1-1.039-.937q-.236-.245-.454-.508l-.071-.087c-.055-.068-.087-.187,0,.008a2.549,2.549,0,0,0-.228-.315,7.534,7.534,0,0,1-.65-1.14c-.022-.049-.04-.1-.066-.149.125.224.035.081.009.017q-.06-.151-.112-.305-.1-.308-.179-.625c-.047-.2-.085-.405-.119-.61q-.021-.125-.039-.25c-.009-.064-.028-.252,0,.041-.007-.067-.017-.134-.025-.2a14.362,14.362,0,0,1-.067-2.467q.018-.314.048-.628.015-.158.033-.315c.01-.083.071-.435.015-.126.077-.423.134-.847.225-1.268a19.5,19.5,0,0,1,.733-2.537q.115-.317.24-.63c.042-.1.085-.209.128-.314.078-.189-.085.2,0,.009l.068-.156q.282-.643.6-1.267a24.054,24.054,0,0,1,1.442-2.436q.4-.59.829-1.158a.674.674,0,0,1,.072-.095c-.167.143-.043.056,0,0q.11-.141.223-.281.244-.3.5-.6a25.428,25.428,0,0,1,2.007-2.089q.535-.5,1.1-.961c.172-.142.347-.281.523-.42s-.162.122.009-.007l.146-.111q.171-.128.344-.254a23.551,23.551,0,0,1,2.476-1.574q.645-.355,1.311-.667.306-.143.616-.277c.054-.023.222-.125.009,0a1.5,1.5,0,0,1,.17-.07q.2-.081.4-.158a23.585,23.585,0,0,1,3.193-.969q.833-.191,1.679-.321l.209-.031c.043-.006.281-.046.037-.006.138-.023.279-.035.418-.051q.416-.047.834-.078a21.161,21.161,0,0,1,3.292.011q.405.033.808.083c.047.006.279.031.026,0,.045.005.089.012.134.019q.233.033.466.072.794.133,1.576.33t1.538.458q.379.13.753.277c.123.048.253.091.372.15-.024-.012-.184-.079-.033-.014l.245.107a19,19,0,0,1,2.829,1.561q.34.227.671.469c.11.081.224.159.329.246-.182-.151.094.075.141.112.435.347.853.714,1.257,1.1a.911.911,0,1,0,1.288-1.288,20.043,20.043,0,0,0-5.718-3.823,20.9,20.9,0,0,0-6.682-1.678,23.516,23.516,0,0,0-13.142,2.9,25.871,25.871,0,0,0-8.893,8.275,21.294,21.294,0,0,0-3.719,10.594,11.507,11.507,0,0,0,.871,5.413,10.242,10.242,0,0,0,4.082,4.265,15.253,15.253,0,0,0,3.069,1.389,21.666,21.666,0,0,0,3.417.767,78.145,78.145,0,0,0,8.053.86,65.416,65.416,0,0,0,13.875-.562,24.631,24.631,0,0,0,6.1-1.718,10.713,10.713,0,0,0,3.991-2.889,12.4,12.4,0,0,0,2.387-9.5,24.19,24.19,0,0,0-5.5-11.93,26.056,26.056,0,0,0-2.193-2.362.911.911,0,0,0-1.288,1.288Z" transform="translate(-383.877 -101.676)" fill="#a6a09f"/>
      </g>
      <g id="그룹_57202" data-name="그룹 57202" transform="translate(405.315 33.884)">
        <g id="그룹_57199" data-name="그룹 57199">
          <g id="그룹_57198" data-name="그룹 57198">
            <path id="패스_45250" data-name="패스 45250" d="M531.288,49.54c-.947-.105-1.4-1.216-1.527-2.16a10.661,10.661,0,0,1,1.922-7.6,2.857,2.857,0,0,1,2.06-1.4,2.141,2.141,0,0,1,1.924,1.541,4.925,4.925,0,0,1-.018,2.606,15.08,15.08,0,0,1-2.355,5.38c-.456.653-1.154,1.34-1.925,1.143" transform="translate(-528.978 -37.702)" fill="#bebebe"/>
            <path id="패스_45251" data-name="패스 45251" d="M527.419,45.039c.2.026-.044-.024-.1-.039-.146-.042.121.077-.005-.006-.025-.017-.054-.03-.079-.046l-.038-.025q-.09-.064.028.024a.448.448,0,0,1-.07-.061c-.028-.027-.056-.055-.082-.083l-.047-.053q-.07-.086.018.025c-.111-.072-.192-.315-.249-.429-.016-.032-.044-.119.008.022-.015-.04-.031-.08-.046-.12q-.048-.134-.087-.271c-.046-.165-.078-.331-.108-.5s.011.109,0-.011c-.006-.052-.013-.1-.018-.157q-.021-.189-.034-.378a10.439,10.439,0,0,1-.013-1.263q.016-.316.051-.63c.006-.052.013-.1.018-.157.013-.122-.025.163.005-.038.019-.125.039-.25.061-.374a10.772,10.772,0,0,1,.3-1.228q.092-.3.2-.6c.037-.1.076-.2.115-.294.05-.125.015-.038,0-.012.033-.078.067-.155.1-.231a10.468,10.468,0,0,1,.591-1.116q.165-.27.346-.529c.059-.084.12-.167.18-.249-.074.1-.013.017,0,0,.044-.054.089-.109.134-.161a4.186,4.186,0,0,1,.4-.406c.014-.012.167-.136.045-.043.031-.024.063-.046.095-.069.1-.066.2-.119.3-.177.153-.088-.081.022.02-.011.045-.015.089-.032.134-.046s.073-.02.11-.029.208-.019.045-.012c.094,0,.185,0,.28,0-.024,0-.147-.03-.021,0,.061.013.122.027.182.045.043.013.084.029.127.044-.133-.047-.046-.021-.016,0l.233.137c.15.09-.094-.092.036.026.027.025.056.048.082.073a3.248,3.248,0,0,1,.227.243c-.087-.1-.023-.032-.006-.005.03.047.063.092.092.14.049.079.09.162.132.245.016.031.037.117,0-.01.019.057.041.112.059.17a3.164,3.164,0,0,1,.083.334c0,.007.032.229.016.09q.008.069.013.137c.009.115.012.23.011.345s-.006.232-.015.347c-.005.07-.013.139-.02.209-.014.145.013-.061-.012.1a13.847,13.847,0,0,1-.717,2.654q-.064.171-.132.341l-.063.154c.047-.115-.025.059-.035.081q-.159.365-.337.722a15.061,15.061,0,0,1-.75,1.33c-.129.2-.261.4-.4.6,0,0-.112.151-.053.074.043-.056-.085.1-.1.119-.073.085-.149.166-.23.244-.036.035-.073.069-.111.1s-.145.108-.048.041a2.46,2.46,0,0,1-.3.176c.128-.064.021-.01-.018,0s-.233.043-.059.027c-.036,0-.073.006-.109.006s-.074,0-.111-.005q.133.019.013-.005a.683.683,0,0,0-.363,1.317,2.7,2.7,0,0,0,2.7-1.457,14.769,14.769,0,0,0,1.481-2.666,15.687,15.687,0,0,0,.971-3.014,4.979,4.979,0,0,0-.232-3.352,2.723,2.723,0,0,0-2.39-1.522,3.5,3.5,0,0,0-2.55,1.639,11.254,11.254,0,0,0-2.119,5.579,9.029,9.029,0,0,0,.166,3.187,3.618,3.618,0,0,0,.69,1.388,2.072,2.072,0,0,0,1.387.726.684.684,0,0,0,.683-.683.7.7,0,0,0-.683-.683Z" transform="translate(-525.11 -33.884)" fill="#a6a09f"/>
          </g>
          <path id="패스_45252" data-name="패스 45252" d="M537.085,95.584c-.041-.071-.081-.142-.118-.215-.016-.031-.031-.062-.046-.093s-.03-.066-.032-.071a1.7,1.7,0,0,1-.068-.2c-.009-.032-.017-.065-.023-.1,0-.014-.005-.029-.007-.043.005.033,0,0,0-.014a.907.907,0,0,1,0-.177c-.006.046.009-.036.013-.051a.7.7,0,0,1,.03-.09c-.009.022,0,.009,0-.005s.017-.033.026-.049a.911.911,0,0,1,.05-.078s.029-.036.05-.059.063-.064.1-.094a.228.228,0,0,0-.322-.322,1.144,1.144,0,0,0-.407.9,2.266,2.266,0,0,0,.359.984.228.228,0,0,0,.393-.23Z" transform="translate(-534.627 -84.756)" fill="#a6a09f"/>
        </g>
        <g id="그룹_57201" data-name="그룹 57201" transform="translate(2.802 2.028)">
          <g id="그룹_57200" data-name="그룹 57200">
            <path id="패스_45253" data-name="패스 45253" d="M548.07,59.834a9.321,9.321,0,0,1,4.277-7.465c.986-.62,2.438-.979,3.2-.1a2.4,2.4,0,0,1,.385,1.852,7.421,7.421,0,0,1-7.3,6.348" transform="translate(-548.07 -51.062)" fill="#bebebe"/>
            <path id="패스_45254" data-name="패스 45254" d="M544.934,56.017c.007-.2.02-.4.04-.6,0-.048.011-.1.016-.143.02-.192-.024.144.006-.047.018-.114.035-.228.056-.341a9.114,9.114,0,0,1,.3-1.173q.09-.274.2-.543.032-.081.065-.16c-.01.024-.054.122,0,0s.095-.211.145-.314a9.495,9.495,0,0,1,.6-1.055q.166-.254.347-.5c.021-.028.1-.13.016-.022l.108-.135q.109-.135.223-.265a9.154,9.154,0,0,1,.855-.856q.109-.1.22-.187l.112-.091c.027-.021.131-.1.021-.017.17-.127.342-.249.52-.365a4.969,4.969,0,0,1,.463-.269q.12-.061.243-.114c-.157.068.011,0,.037-.012q.076-.028.153-.054a4.63,4.63,0,0,1,.542-.134c.105-.021-.17.011,0,0,.051,0,.1-.008.153-.01.1,0,.2,0,.3.007s-.006-.022-.036-.006c.021-.011.119.024.142.03l.092.026.045.015q.105.04-.031-.016c.057,0,.164.09.208.116.127.073-.055-.074,0,0a1.252,1.252,0,0,0,.126.121c.079.077.016.014,0-.008a1.4,1.4,0,0,1,.094.146s.085.167.041.074.027.08.027.081a2.851,2.851,0,0,1,.07.284c.039.185,0-.137.006.054,0,.06.008.119.01.179a4.752,4.752,0,0,1-.029.6c-.018.182.025-.149,0,.031-.006.035-.011.07-.017.105q-.026.158-.06.314a7.5,7.5,0,0,1-.339,1.09c-.039.1.068-.15,0,.008-.022.048-.043.1-.066.145q-.056.12-.117.239-.134.26-.288.509-.141.226-.3.442c-.026.036-.053.071-.079.107-.063.088.1-.125-.007.01-.067.083-.134.166-.2.247a7.8,7.8,0,0,1-.792.8c-.081.07-.164.138-.247.206-.14.114.114-.083-.031.025l-.129.1q-.26.188-.534.354t-.561.308c-.1.047-.193.091-.29.135-.158.073.093-.036-.008,0l-.173.069a6.944,6.944,0,0,1-1.226.345l-.1.018c-.037.006-.268.054-.082.014a2.344,2.344,0,0,1-.318.032c-.213.016-.427.021-.641.016a.689.689,0,0,0-.683.683.7.7,0,0,0,.683.683,8.158,8.158,0,0,0,7.763-5.855,4.532,4.532,0,0,0,.053-2.816,2.286,2.286,0,0,0-2.364-1.416,5.01,5.01,0,0,0-2.511,1,9.748,9.748,0,0,0-2,1.9,10.083,10.083,0,0,0-2.182,5.864.688.688,0,0,0,.683.683.7.7,0,0,0,.683-.683Z" transform="translate(-543.568 -47.244)" fill="#a6a09f"/>
          </g>
          <path id="패스_45255" data-name="패스 45255" d="M554.279,91.656a3.773,3.773,0,0,1,1.941-2.429c.261-.133.031-.526-.23-.393a4.218,4.218,0,0,0-2.15,2.7.228.228,0,0,0,.439.121Z" transform="translate(-552.274 -82.499)" fill="#a6a09f"/>
        </g>
      </g>
      <g id="그룹_57203" data-name="그룹 57203" transform="translate(402.647 65.801)">
        <path id="패스_45256" data-name="패스 45256" d="M510.538,247.294a1.209,1.209,0,0,0,1.009,1.279,2.181,2.181,0,0,0,2.117-.788,1.925,1.925,0,0,0,1.76.9c1.56-.2,1.38-1.59,1.328-1.541" transform="translate(-510.082 -246.692)" fill="#fff"/>
        <path id="패스_45257" data-name="패스 45257" d="M507.534,244.759a1.686,1.686,0,0,0,1.484,1.751,2.64,2.64,0,0,0,2.491-1.031h-.786a2.067,2.067,0,0,0,1.03.914,2.225,2.225,0,0,0,1.671.1,1.805,1.805,0,0,0,1.268-1.639,1.166,1.166,0,0,0-.03-.334.473.473,0,0,0-.688-.3.456.456,0,0,0,.46.786h0l-.23.062h0l-.23-.062a.729.729,0,0,1-.194-.24c0,.01,0,.02.006.03-.039-.183-.008-.061-.007,0s-.006.093-.007.14c0,.078.029-.112,0-.029-.007.023-.009.049-.015.073-.014.062-.036.12-.054.18-.024.08.052-.084-.007.011-.019.03-.033.063-.052.093s-.035.053-.053.079c.067-.1-.015.015-.035.035s-.052.048-.075.073c-.054.058.054-.028-.039.031a1.683,1.683,0,0,1-.231.129c.075-.033-.066.021-.083.026-.055.017-.111.032-.168.045a1.166,1.166,0,0,1-.628-.027,2,2,0,0,1-.531-.28,2.115,2.115,0,0,1-.226-.218c-.072-.078.022.059-.018-.026-.017-.036-.04-.069-.056-.107a.446.446,0,0,0-.393-.226.479.479,0,0,0-.393.226c.034-.045-.026.026-.037.039-.029.03-.057.06-.088.089a1.6,1.6,0,0,1-.127.109,2.1,2.1,0,0,1-.443.252,2.343,2.343,0,0,1-.429.118,1.6,1.6,0,0,1-.162.012c-.042,0-.084,0-.126,0-.012,0-.113-.014-.05,0a1.467,1.467,0,0,1-.217-.058,1.059,1.059,0,0,1-.144-.053,2.045,2.045,0,0,1-.19-.107c-.033-.02-.04-.032-.005,0-.025-.022-.048-.044-.072-.067s-.054-.063-.016-.011a1.052,1.052,0,0,1-.1-.17c.02.043.01.031,0-.006a1.617,1.617,0,0,1-.072-.4.466.466,0,0,0-.455-.455.459.459,0,0,0-.455.455Z" transform="translate(-507.533 -244.158)" fill="#939393"/>
      </g>
      <g id="그룹_57206" data-name="그룹 57206" transform="translate(396.716 62.928)">
        <g id="그룹_57205" data-name="그룹 57205" transform="translate(0)">
          <ellipse id="타원_1642" data-name="타원 1642" cx="2.149" cy="2.107" rx="2.149" ry="2.107" transform="translate(13.482 4.137) rotate(-18.734)" fill="#e5e5e5"/>
          <ellipse id="타원_1643" data-name="타원 1643" cx="2.252" cy="2.208" rx="2.252" ry="2.208" transform="translate(0 4.086) rotate(-18.734)" fill="#e5e5e5"/>
          <g id="그룹_57204" data-name="그룹 57204" transform="translate(7.94 1.548)">
            <ellipse id="타원_1644" data-name="타원 1644" cx="1.366" cy="0.455" rx="1.366" ry="0.455" transform="translate(0.065 0.109) rotate(-1.361)" fill="#939393"/>
            <path id="패스_45258" data-name="패스 45258" d="M522.128,236.492c-.67,0-1.352-.168-1.36-.5-.008-.345.73-.549,1.429-.565s1.446.152,1.454.5c0,.159-.149.3-.443.4a3.251,3.251,0,0,1-.986.161Zm.174-.913h-.1c-.8.019-1.285.252-1.281.41s.5.368,1.3.349a3.1,3.1,0,0,0,.938-.152c.255-.092.344-.193.342-.258C523.5,235.778,523.042,235.58,522.3,235.58Z" transform="translate(-520.769 -235.428)" fill="#939393"/>
          </g>
          <circle id="타원_1645" data-name="타원 1645" cx="1.366" cy="1.366" r="1.366" transform="translate(13.835 0.145)" fill="#939393"/>
          <circle id="타원_1646" data-name="타원 1646" cx="1.366" cy="1.366" r="1.366" transform="translate(2.3)" fill="#939393"/>
          <path id="패스_45259" data-name="패스 45259" d="M529.022,240.007a5.147,5.147,0,0,0,.007,2.148.228.228,0,0,0,.439-.121,4.591,4.591,0,0,1-.006-1.906.236.236,0,0,0-.159-.28.229.229,0,0,0-.28.159Z" transform="translate(-519.734 -237.623)" fill="#939393"/>
        </g>
      </g>
      <path id="패스_45260" data-name="패스 45260" d="M471.845,178.646a3.073,3.073,0,0,1,.247-.27q.059-.056.12-.11l.078-.065c.053-.046-.053.036,0,0,.1-.07.2-.139.306-.2q.079-.046.161-.086l.073-.035c.01,0,.11-.048.057-.026s.032-.012.04-.015l.076-.028q.086-.031.174-.056a3.624,3.624,0,0,1,.357-.081c.044-.008.044-.007,0,0l.1-.011c.054,0,.108-.008.162-.01a3.068,3.068,0,0,1,.386.012.457.457,0,0,0,.455-.455.467.467,0,0,0-.455-.455A3.532,3.532,0,0,0,471.2,178a.466.466,0,0,0,0,.644.46.46,0,0,0,.644,0Z" transform="translate(-73.959 -121.167)" fill="#939393"/>
      <path id="패스_45261" data-name="패스 45261" d="M570.486,178a3.532,3.532,0,0,0-2.987-1.255.455.455,0,0,0,0,.911,3.028,3.028,0,0,1,.366-.012q.081,0,.162.009l.1.01c.071.007-.07-.014,0,0,.12.025.239.045.357.079q.088.025.175.055l.077.028c.01,0,.112.044.059.022s.031.014.039.018l.073.035c.055.027.109.055.162.085a3.418,3.418,0,0,1,.308.2c.03.022.04.031,0,0l.078.065q.062.053.121.109a3.049,3.049,0,0,1,.262.284.457.457,0,0,0,.644,0,.468.468,0,0,0,0-.644Z" transform="translate(-155.364 -121.167)" fill="#939393"/>
    </g>
  </g>
</svg>
