<svg xmlns="http://www.w3.org/2000/svg" xmlns:xlink="http://www.w3.org/1999/xlink" width="70" height="70" viewBox="0 0 70 70">
  <defs>
    <clipPath id="clip-path">
      <circle id="타원_1655" data-name="타원 1655" cx="35" cy="35" r="35" transform="translate(-20029 -20787)" fill="#f9f9f9" stroke="#efefef" stroke-width="1"/>
    </clipPath>
  </defs>
  <g id="마스크_그룹_32" data-name="마스크 그룹 32" transform="translate(20029 20787)" clip-path="url(#clip-path)">
    <g id="그룹_57226" data-name="그룹 57226" transform="translate(-24248.83 -23285.234)">
      <g id="그룹_57216" data-name="그룹 57216" transform="translate(4232.063 2521.135)">
        <path id="패스_45278" data-name="패스 45278" d="M4273.367,2589.662c5.853,4.931,9.772,12.935,7.995,18.915-.846,2.844-2.43,5.543-8.661,7.4-5.3,1.579-15.109,2.47-24.467,1.375-4.734-.554-8.774-3.068-9.734-6.728-2.2-8.387,4.163-19.762,14-23.751C4259.851,2583.891,4267.6,2584.806,4273.367,2589.662Z" transform="translate(-4237.161 -2584.261)" fill="#fff"/>
        <path id="패스_45279" data-name="패스 45279" d="M4267.631,2585.2a25.646,25.646,0,0,1,2.33,2.234q.555.6,1.072,1.239c.071.086.14.173.209.261l.123.157c.141.179-.115-.154.022.029.173.23.346.461.513.7a25.2,25.2,0,0,1,1.67,2.679q.365.68.687,1.383c.043.1.087.194.129.291.025.058.055.116.076.175-.08-.231-.011-.028.007.018q.155.376.3.76a18.185,18.185,0,0,1,.792,2.81q.061.318.11.639a1.291,1.291,0,0,0,.025.174c-.069-.242-.012-.081,0-.009.017.134.032.268.045.4a13.373,13.373,0,0,1,.057,1.363,12.2,12.2,0,0,1-.087,1.328c-.023.2.034-.221,0-.022-.008.054-.017.108-.025.162-.014.09-.03.18-.047.269-.043.231-.095.46-.154.688-.084.32-.183.636-.292.949-.045.129-.093.258-.141.386-.028.07-.055.14-.084.21s-.1.2.033-.077c-.022.045-.041.093-.061.138a8.849,8.849,0,0,1-.945,1.624c-.045.061-.146.146.041-.051a1.1,1.1,0,0,0-.078.1c-.044.055-.089.108-.135.162q-.182.215-.379.417a9.14,9.14,0,0,1-.824.747c-.039.031-.079.06-.115.092.21-.176.072-.057.024-.021-.068.051-.136.1-.2.15q-.281.2-.574.382a13.915,13.915,0,0,1-1.219.675q-.328.161-.664.309l-.151.066c-.211.091.182-.073-.033.013-.15.06-.3.121-.449.179-.563.217-1.135.41-1.712.586a37.7,37.7,0,0,1-5.339,1.15c-.258.039-.516.075-.774.111l-.023,0-.132.017-.467.059q-.825.1-1.653.181-1.75.17-3.507.256c-2.514.124-5.036.129-7.549.011q-1.945-.091-3.886-.285-.484-.049-.969-.1l-.216-.026c-.232-.027.2.031-.028,0-.133-.02-.268-.04-.4-.062a15.9,15.9,0,0,1-1.558-.34,14.82,14.82,0,0,1-1.469-.482l-.178-.07c-.044-.017-.249-.092-.016-.005-.117-.043-.23-.1-.344-.152q-.336-.154-.664-.328a11.567,11.567,0,0,1-1.252-.768c-.087-.062-.173-.126-.26-.19-.166-.122.158.128,0,0l-.135-.108q-.276-.227-.535-.473c-.156-.148-.307-.3-.451-.461-.074-.082-.147-.166-.218-.25-.036-.042-.071-.085-.105-.128l-.068-.086c.085.111.1.128.042.052a8.222,8.222,0,0,1-.684-1.1c-.04-.08-.079-.161-.115-.242-.027-.06-.074-.228.005.018-.017-.051-.041-.1-.06-.149a6.561,6.561,0,0,1-.219-.664c-.1-.384-.187-.774-.254-1.167-.013-.082-.026-.164-.039-.246-.008-.05-.014-.1-.021-.148.05.288.013.106.006.041-.027-.216-.049-.433-.065-.651q-.047-.609-.044-1.22c0-.414.021-.828.055-1.24.016-.192.036-.382.057-.573.009-.075.068-.44.015-.126.021-.122.035-.245.054-.367a19.354,19.354,0,0,1,.58-2.525q.19-.635.421-1.259c.072-.193.145-.383.221-.574.041-.1.1-.206.128-.312-.073.242-.028.066,0,.008s.059-.138.089-.207a24.448,24.448,0,0,1,2.806-4.771l.106-.141c.036-.047.126-.211,0,0a2.071,2.071,0,0,1,.183-.232c.158-.2.321-.4.486-.594q.46-.543.949-1.061a24.753,24.753,0,0,1,2.085-1.96q.275-.231.558-.453c.031-.024.064-.048.095-.073-.192.159-.033.025.006,0q.168-.127.336-.252.58-.426,1.187-.815a22.045,22.045,0,0,1,2.522-1.4c.218-.1.438-.2.66-.3.187-.081-.145.06-.021.009l.14-.058c.156-.063.312-.125.469-.186.545-.209,1.1-.4,1.656-.57a22.906,22.906,0,0,1,3.327-.749c.07-.01.138-.021.208-.029-.244.029-.006,0,.036,0,.138-.017.277-.033.415-.047q.413-.043.828-.07c.547-.036,1.1-.05,1.645-.042s1.085.038,1.625.09c.135.013.269.027.4.043l.2.025c.232.028-.2-.031.027,0,.267.04.533.081.8.13a19.013,19.013,0,0,1,3.1.848c.251.093.509.181.751.294-.214-.1-.007,0,.032.015l.185.081c.124.055.246.112.367.169q.736.348,1.441.759.683.4,1.33.851c.226.159.457.318.672.493-.175-.142.008.007.038.03l.164.131c.11.089.217.178.325.269a.9.9,0,1,0,1.276-1.277,19.931,19.931,0,0,0-12.739-4.76,23.351,23.351,0,0,0-12.846,3.721,25.678,25.678,0,0,0-8.2,8.634,21.159,21.159,0,0,0-3.059,10.581,11.7,11.7,0,0,0,1.077,5.233,10.006,10.006,0,0,0,4.237,4.088,15,15,0,0,0,3.031,1.213,21.186,21.186,0,0,0,3.537.61,74.8,74.8,0,0,0,7.965.4,65.3,65.3,0,0,0,13.771-1.34,24.818,24.818,0,0,0,5.923-2.015,11.1,11.1,0,0,0,3.984-3.266,10.687,10.687,0,0,0,1.662-3.718,13.563,13.563,0,0,0,.051-5.848,20.892,20.892,0,0,0-2.2-5.926,26.887,26.887,0,0,0-3.883-5.393,25.8,25.8,0,0,0-2.309-2.21.9.9,0,0,0-1.276,1.277Z" transform="translate(-4232.063 -2579.163)" fill="#a6a09f"/>
      </g>
      <g id="그룹_57221" data-name="그룹 57221" transform="translate(4251.855 2510.857)">
        <g id="그룹_57218" data-name="그룹 57218" transform="translate(0 0)">
          <g id="그룹_57217" data-name="그룹 57217">
            <path id="패스_45280" data-name="패스 45280" d="M4369.927,2526.547c-.943-.048-1.457-1.121-1.637-2.048a10.568,10.568,0,0,1,1.458-7.63,2.829,2.829,0,0,1,1.957-1.5,2.121,2.121,0,0,1,1.993,1.412,4.88,4.88,0,0,1,.135,2.58,14.973,14.973,0,0,1-2.016,5.462c-.413.672-1.063,1.393-1.838,1.243" transform="translate(-4367.426 -2514.683)" fill="#bebebe"/>
            <path id="패스_45281" data-name="패스 45281" d="M4366.1,2522.044c-.166-.012.143.044-.013,0-.029-.009-.062-.014-.092-.023l-.044-.014c-.069-.025-.059-.02.032.017a.514.514,0,0,1-.082-.042c-.016-.009-.114-.056-.117-.074,0,0,.124.11.026.02a2.686,2.686,0,0,1-.2-.2c-.08-.088,0,0,.014.021-.029-.041-.058-.082-.085-.124-.045-.071-.088-.145-.127-.219-.023-.044-.127-.281-.062-.121q-.05-.12-.091-.245a4.23,4.23,0,0,1-.132-.5c-.021-.1-.039-.2-.055-.3-.01-.052-.018-.1-.025-.156,0-.031-.009-.062-.014-.094.01.076.01.073,0-.008a10.862,10.862,0,0,1-.078-1.26,11.182,11.182,0,0,1,.081-1.322c.017-.136.006-.036,0-.008.01-.062.019-.125.029-.187.017-.1.035-.208.054-.311.042-.217.091-.433.145-.647a10.544,10.544,0,0,1,.4-1.231c.015-.039.032-.078.047-.118.076-.193-.054.119.029-.071.043-.1.086-.192.13-.287.094-.2.195-.4.3-.591.1-.175.2-.347.306-.516.052-.083.105-.164.161-.244.033-.048.067-.094.1-.142.083-.116-.064.073.038-.047a4.34,4.34,0,0,1,.4-.421c.027-.025.057-.05.086-.075.135-.121-.11.065.042-.031.086-.055.17-.112.262-.158.035-.018.15-.063.014-.012.043-.016.086-.032.13-.045s.275-.057.119-.039c.091-.01.181-.005.271-.008.17,0-.131-.039.031,0,.052.012.1.023.155.038s.083.029.125.042c.1.031-.139-.075.011.006.079.043.157.085.232.135.03.02.06.041.088.063-.13-.1.013.016.031.033a2.626,2.626,0,0,1,.212.218c.023.028.094.129.014.015.026.037.053.075.078.114.045.07.087.141.125.215.012.024.084.191.022.037.018.042.032.083.048.125a3.259,3.259,0,0,1,.107.384c.012.054.019.11.032.163.028.119-.012-.156.007.051.009.111.018.222.022.334a6.341,6.341,0,0,1-.025.708c0,.056-.012.112-.017.168,0-.014-.026.206-.013.111s-.019.123-.017.11c-.006.044-.013.088-.021.132-.039.241-.084.481-.135.719q-.144.668-.347,1.32c-.075.243-.158.485-.245.725-.047.125-.095.249-.145.373-.016.041-.034.082-.05.123-.03.075-.033.082-.008.023l-.04.092a14.7,14.7,0,0,1-.681,1.371c-.119.213-.241.426-.376.63l-.08.117c-.018.025-.145.185-.05.07-.067.082-.134.162-.208.238a2.692,2.692,0,0,1-.228.21c.123-.1-.019.009-.04.022-.045.029-.094.053-.138.08-.139.083.086-.02-.007,0-.036.01-.14.065-.174.049,0,0,.171,0,.025,0-.039,0-.26-.024-.085.006a.693.693,0,0,0-.832.473.684.684,0,0,0,.472.833,1.966,1.966,0,0,0,1.512-.332,4.063,4.063,0,0,0,1.032-1.128,15.6,15.6,0,0,0,2.153-5.784,5.167,5.167,0,0,0-.329-3.283,2.755,2.755,0,0,0-2.408-1.5,3.312,3.312,0,0,0-2.468,1.651,11.024,11.024,0,0,0-1.851,5.65,10.49,10.49,0,0,0,.036,1.576,7.818,7.818,0,0,0,.288,1.612,2.6,2.6,0,0,0,2.164,2.051.682.682,0,0,0,.678-.677.694.694,0,0,0-.678-.677Z" transform="translate(-4363.603 -2510.857)" fill="#a6a09f"/>
          </g>
          <path id="패스_45282" data-name="패스 45282" d="M4376.326,2573.44a1.935,1.935,0,0,1-.348-.744c.007.038,0-.034,0-.048s0-.057,0-.085c0-.005.007-.062,0-.034s0-.019.005-.023a.614.614,0,0,1,.021-.084l.019-.052c-.009.022,0,0,.005-.009.016-.028.03-.056.047-.083a.884.884,0,0,1,.132-.16.226.226,0,0,0-.32-.32,1.139,1.139,0,0,0-.359.915,2.2,2.2,0,0,0,.407.955.226.226,0,0,0,.39-.228Z" transform="translate(-4373.73 -2562.573)" fill="#362322"/>
        </g>
        <g id="그룹_57220" data-name="그룹 57220" transform="translate(2.924 1.721)">
          <g id="그룹_57219" data-name="그룹 57219">
            <path id="패스_45283" data-name="패스 45283" d="M4387.539,2535.158a9.241,9.241,0,0,1,3.8-7.637c.939-.671,2.355-1.111,3.157-.281a2.381,2.381,0,0,1,.49,1.81,7.356,7.356,0,0,1-6.853,6.709" transform="translate(-4386.858 -2526.111)" fill="#bebebe"/>
            <path id="패스_45284" data-name="패스 45284" d="M4384.4,2531.34a8.888,8.888,0,0,1,.055-1.243c0-.037.023-.169,0-.021.006-.048.014-.1.021-.144.015-.1.031-.19.05-.286.039-.208.086-.416.141-.621a9.485,9.485,0,0,1,.4-1.181c-.01.024-.052.12,0,0,.022-.053.046-.106.07-.159.041-.088.082-.175.125-.262q.141-.286.3-.562c.1-.167.2-.331.306-.492.054-.08.109-.159.166-.239l.085-.117c.016-.024.143-.188.052-.071a9.033,9.033,0,0,1,.809-.906q.208-.2.427-.391c.074-.063.147-.124.224-.184.015-.012.168-.128.046-.037.046-.034.092-.07.14-.1a4.74,4.74,0,0,1,.455-.293c.08-.045.161-.087.243-.127.05-.024.1-.046.151-.069-.148.066.021-.006.042-.014a3.322,3.322,0,0,1,.52-.148l.052-.01q.116-.019-.024,0a.952.952,0,0,1,.1-.01,2.308,2.308,0,0,1,.3,0l.049,0c.077.008.066.007-.033,0a.372.372,0,0,1,.1.02c.047.011.094.027.141.039.12.032-.013-.013-.027-.015.087.015.156.1.234.133s-.1-.106,0,0c.036.038.075.075.113.114.119.118-.051-.105.029.04.022.041.049.079.072.12s.067.148.013.014c.018.043.032.088.047.132a2.3,2.3,0,0,1,.069.275c.006.038.022.167.005.018.009.067.014.134.018.2a4.657,4.657,0,0,1-.008.6c-.005.088-.016.176-.024.264,0,.033-.013.134,0-.023-.005.061-.018.123-.028.183a6.538,6.538,0,0,1-.285,1.1c-.029.082-.06.164-.092.246-.013.033-.026.065-.04.1.065-.159,0,.005-.014.031-.08.177-.167.35-.259.519a8.009,8.009,0,0,1-.607.929c.1-.132-.065.079-.092.112-.056.068-.114.135-.172.2-.129.145-.265.285-.4.42s-.311.289-.476.423l-.083.066c-.059.047-.056.045.012-.008l-.085.063c-.085.063-.172.124-.259.184a7.369,7.369,0,0,1-1.057.6l-.144.064c.153-.071-.009,0-.033.013-.1.039-.2.075-.3.11q-.3.1-.606.179a3.475,3.475,0,0,1-.62.121c.021,0,.15-.017.023,0-.071.007-.141.016-.212.021-.1.009-.211.015-.317.019a.677.677,0,1,0,0,1.354,8.085,8.085,0,0,0,7.36-6.159,4.745,4.745,0,0,0-.039-2.753,2.244,2.244,0,0,0-2.381-1.4,4.983,4.983,0,0,0-2.538,1.16,9.566,9.566,0,0,0-1.888,2.028,9.866,9.866,0,0,0-1.782,5.844.677.677,0,1,0,1.354,0Z" transform="translate(-4383.039 -2522.293)" fill="#a6a09f"/>
          </g>
          <path id="패스_45285" data-name="패스 45285" d="M4393.893,2567.9a3.747,3.747,0,0,1,1.771-2.522.226.226,0,0,0-.228-.39,4.178,4.178,0,0,0-1.977,2.792c-.054.284.381.405.435.119Z" transform="translate(-4391.886 -2558.539)" fill="#362322"/>
        </g>
      </g>
      <path id="패스_45286" data-name="패스 45286" d="M4321.657,2652.614l.057-.08c.009-.011.062-.088.022-.031s.014-.016.022-.028l.058-.07a2.981,2.981,0,0,1,.207-.22c.038-.034.074-.067.112-.1.014-.011.077-.061.017-.015s0,0,.017-.012a1.836,1.836,0,0,1,.243-.148l.057-.028c.065-.032.006,0-.025.01.044-.012.088-.034.134-.049a2.054,2.054,0,0,1,.272-.069c.027-.006.054-.01.082-.014.082-.014-.079.008-.021,0s.106-.011.161-.014c.116-.007.231-.008.347,0a.454.454,0,0,0,.451-.451.459.459,0,0,0-.451-.451,3,3,0,0,0-1.463.29,3.109,3.109,0,0,0-1.08,1.027.452.452,0,0,0,.163.617.462.462,0,0,0,.617-.162Z" transform="translate(-75.396 -118.92)" fill="#939393"/>
      <path id="패스_45287" data-name="패스 45287" d="M4410.16,2653.729a3.55,3.55,0,0,0-3.166-1,.453.453,0,0,0-.314.555.462.462,0,0,0,.555.315l.083-.014c-.045.008-.034,0,.005,0,.063-.006.126-.011.188-.014a2.857,2.857,0,0,1,.336,0l.083.007c.035,0,.093.011.027,0,.056.008.111.018.166.029a2.931,2.931,0,0,1,.345.091c.054.017.105.036.158.056.008,0,.086.035.044.017s.035.016.042.02a2.85,2.85,0,0,1,.314.168c.048.03.1.06.141.092l.069.049c.026.019.044.036.009.006a3.026,3.026,0,0,1,.278.256.451.451,0,0,0,.638-.638Z" transform="translate(-148.328 -120.478)" fill="#939393"/>
      <path id="패스_45288" data-name="패스 45288" d="M4402.075,2700.861s.019-.143,0-.062c.007-.046.018-.09.029-.135s.027-.087.042-.131l.016-.043c-.014.03-.013.031,0,0a1.777,1.777,0,0,1,.124-.22.709.709,0,0,1,.13-.16c.046-.047.14-.132.161-.148a2.146,2.146,0,0,1,.185-.115s.126-.063.058-.033a1.251,1.251,0,0,1,.129-.046c.037-.011.074-.021.112-.03l.067-.014h-.005a1.806,1.806,0,0,1,.252,0c.131,0-.066-.019.062.006.038.008.076.015.113.025s.088.024.132.039c.02.007.1.036.042.013a1.7,1.7,0,0,1,.243.131,1.276,1.276,0,0,1,.506.659.452.452,0,0,0,.871-.24,2.131,2.131,0,0,0-4.176.507.456.456,0,0,0,.452.451.46.46,0,0,0,.451-.451Z" transform="translate(-143.663 -159.677)" fill="#939393"/>
      <path id="패스_45289" data-name="패스 45289" d="M4327.076,2700.861s.019-.143,0-.062a1.279,1.279,0,0,1,.029-.135c.012-.044.027-.087.04-.131l.017-.043q-.02.045,0,0a1.985,1.985,0,0,1,.124-.22.735.735,0,0,1,.132-.16,2.112,2.112,0,0,1,.159-.148c.024-.018.126-.083.186-.115,0,0,.126-.063.058-.033.043-.018.087-.033.13-.046s.074-.021.111-.03l.067-.014h-.005a1.823,1.823,0,0,1,.253,0c.13,0-.067-.019.062.006.038.008.074.015.112.025s.088.024.132.039c.02.007.1.036.042.013a1.65,1.65,0,0,1,.244.131,1.275,1.275,0,0,1,.505.659.451.451,0,1,0,.87-.24,2.131,2.131,0,0,0-4.175.507.455.455,0,0,0,.451.451.46.46,0,0,0,.452-.451Z" transform="translate(-79.949 -159.677)" fill="#939393"/>
      <ellipse id="타원_1652" data-name="타원 1652" cx="2.13" cy="2.089" rx="2.13" ry="2.089" transform="matrix(0.926, -0.376, 0.376, 0.926, 4258.151, 2543.69)" fill="#e5e5e5" opacity="0.53"/>
      <ellipse id="타원_1653" data-name="타원 1653" cx="2.232" cy="2.189" rx="2.232" ry="2.189" transform="matrix(0.926, -0.376, 0.376, 0.926, 4244.808, 2544.428)" fill="#e5e5e5" opacity="0.53"/>
      <g id="그룹_57222" data-name="그룹 57222" transform="translate(4252.548 2541.333)">
        <ellipse id="타원_1654" data-name="타원 1654" cx="1.354" cy="0.451" rx="1.354" ry="0.451" transform="translate(0.038 0.224) rotate(-4.742)" fill="#939393"/>
        <path id="패스_45290" data-name="패스 45290" d="M4369.353,2714.634c-.582,0-1.119-.132-1.143-.42-.028-.341.69-.585,1.382-.643a3.206,3.206,0,0,1,.988.054c.3.073.466.195.479.352.028.341-.69.586-1.38.643C4369.57,2714.63,4369.461,2714.634,4369.353,2714.634Zm.574-.927c-.1,0-.212,0-.323.014a3.081,3.081,0,0,0-.92.2c-.247.105-.329.212-.324.276s.1.155.365.219a3.087,3.087,0,0,0,.941.051c.789-.065,1.256-.323,1.243-.48-.005-.064-.1-.155-.365-.219A2.657,2.657,0,0,0,4369.926,2713.707Z" transform="translate(-4368.208 -2713.534)" fill="#939393"/>
      </g>
      <g id="그룹_57225" data-name="그룹 57225" transform="translate(4250.638 2542.022)">
        <g id="그룹_57223" data-name="그룹 57223" transform="translate(1.149 1.469)">
          <path id="패스_45291" data-name="패스 45291" d="M4365.655,2731.019s-.123,2.646,2.03,2.514,1.813-2.627,1.813-2.627S4367.993,2729.3,4365.655,2731.019Z" transform="translate(-4365.277 -2729.854)" fill="#cecece"/>
          <path id="패스_45292" data-name="패스 45292" d="M4365.407,2731.809a2.005,2.005,0,0,1-1.465-.565,3.442,3.442,0,0,1-.787-2.348l.008-.18.145-.106c2.577-1.889,4.323-.084,4.34-.066l.082.088.017.119a3.3,3.3,0,0,1-.556,2.292,2.15,2.15,0,0,1-1.607.761C4365.523,2731.808,4365.465,2731.809,4365.407,2731.809Zm-1.5-2.7a2.506,2.506,0,0,0,.564,1.6,1.322,1.322,0,0,0,1.067.343,1.416,1.416,0,0,0,1.07-.485,1.6,1.6,0,1,0-2.7-1.46Z" transform="translate(-4363.153 -2727.749)" fill="#939393"/>
        </g>
        <g id="그룹_57224" data-name="그룹 57224" transform="translate(0 0.463)">
          <path id="패스_45293" data-name="패스 45293" d="M4358.53,2724.6a1.2,1.2,0,0,0,1.073,1.206,2.163,2.163,0,0,0,2.049-.9,1.908,1.908,0,0,0,1.794.792c1.531-.291,1.272-1.654,1.223-1.6" transform="translate(-4358.076 -2723.629)" fill="#fff"/>
          <path id="패스_45294" data-name="패스 45294" d="M4355.517,2722.024a1.921,1.921,0,0,0,.446,1.144,1.9,1.9,0,0,0,1.054.516,2.591,2.591,0,0,0,2.462-1.129h-.779a2.069,2.069,0,0,0,1.066.856,2.161,2.161,0,0,0,1.659.021,1.784,1.784,0,0,0,1.181-1.669,1.269,1.269,0,0,0-.042-.335.469.469,0,0,0-.684-.3.462.462,0,0,0-.162.617.455.455,0,0,0,.617.162h0l-.228.062h0l-.228-.062a.406.406,0,0,1-.189-.237.2.2,0,0,1,.007.03c.032.106,0-.131,0,0,0,.044,0,.087,0,.131,0,.027,0,.053-.005.08,0,.086.026-.109,0-.021-.017.062-.026.124-.046.185-.009.028-.021.055-.03.082.045-.119,0-.011-.012.016s-.038.064-.057.1-.08.1-.009.016a1.5,1.5,0,0,1-.18.177c.076-.061-.019.01-.036.021a1.475,1.475,0,0,1-.148.083,1.282,1.282,0,0,1-.206.074,1.18,1.18,0,0,1-.651.018,1.789,1.789,0,0,1-.573-.27,1.353,1.353,0,0,1-.184-.16c-.014-.013-.088-.109-.025-.021a.891.891,0,0,1-.063-.1.456.456,0,0,0-.779,0,1.758,1.758,0,0,1-.672.545,1.831,1.831,0,0,1-.428.144.673.673,0,0,1-.165.023c-.042,0-.084,0-.126,0-.01,0-.113-.006-.053,0a1.674,1.674,0,0,1-.421-.119c.068.029-.017-.01-.029-.017-.029-.017-.06-.032-.088-.05s-.044-.028-.064-.044c.071.053,0,0-.011-.015s-.043-.045-.064-.068c.042.046.014.022-.008-.014s-.084-.162-.052-.085a1.273,1.273,0,0,1-.064-.207c-.008-.03-.014-.061-.021-.092,0,0-.02-.133-.012-.08a.466.466,0,0,0-.452-.451.454.454,0,0,0-.452.451Z" transform="translate(-4355.514 -2721.058)" fill="#939393"/>
        </g>
        <path id="패스_45295" data-name="패스 45295" d="M4376.9,2718.209a4.97,4.97,0,0,0,.133,2.066.231.231,0,0,0,.277.158.228.228,0,0,0,.158-.278,4.667,4.667,0,0,1-.117-1.946.226.226,0,1,0-.451,0Z" transform="translate(-4373.648 -2717.984)" fill="#939393"/>
      </g>
      <path id="패스_45296" data-name="패스 45296" d="M4315,2560.866s12.435,3.08,19.082-.785l-1.422-5-8.3-2.548-7.52,3.2Z" transform="translate(-70.458 -35.406)" fill="#a6a09f"/>
    </g>
  </g>
</svg>
