<svg data-name="그룹 77690" xmlns="http://www.w3.org/2000/svg" width="130" height="42.623" viewBox="0 0 130 42.623">
    <g data-name="그룹 23148">
        <path data-name="사각형 10126" transform="translate(115.028 23.848)" style="fill:#c8c8c8" d="M0 0h6.238v8.734H0z"/>
        <path data-name="사각형 10127" d="M0 0h5.312a.926.926 0 0 1 .926.926v16.41a2.626 2.626 0 0 1-2.626 2.626H0V0z" transform="translate(123.762)" style="fill:#c8c8c8"/>
        <path data-name="패스 27551" d="m573.184 147.514 3.431-5.49 3.431 5.49h7.8l-8.578-13.724h6.083v-6.239h-15.473a2 2 0 0 0-2 2v4.242h6.082l-8.578 13.724z" transform="translate(-496.609 -127.551)" style="fill:#c8c8c8"/>
        <path data-name="패스 27552" d="M524.028 129.547a2 2 0 0 0-2-2h-4.238v19.963h6.238z" transform="translate(-485.287 -127.551)" style="fill:#c8c8c8"/>
        <path data-name="패스 27553" d="M602.809 133.79h3.743v-6.239h-7.985a2 2 0 0 0-2 2v17.967h6.238z" transform="translate(-504.056 -127.551)" style="fill:#c8c8c8"/>
        <path data-name="패스 27554" d="M545.891 157.094h-6.238v3.743h-8.733v6.238h23.705v-6.238h-8.734z" transform="translate(-488.402 -134.496)" style="fill:#c8c8c8"/>
        <path data-name="패스 27555" d="M620.863 131.294v-3.743h-6.238v19.962h18.715v-6.238h-12.477v-3.743h17.467v-6.238z" transform="translate(-508.33 -127.551)" style="fill:#c8c8c8"/>
        <path data-name="사각형 10128" transform="translate(106.295 22.584)" style="fill:#c8c8c8" d="M0 0h23.705v6.238H0z"/>
        <path data-name="패스 27556" d="M578.517 167.075a9.981 9.981 0 1 0 9.981-9.981 9.981 9.981 0 0 0-9.981 9.981zm13.724 0a3.743 3.743 0 1 1-3.743-3.743 3.743 3.743 0 0 1 3.743 3.743z" transform="translate(-499.74 -134.433)" style="fill:#c8c8c8"/>
        <path data-name="패스 27557" d="m487.593 140.586 3.9-6.238-2.206-3.53a2 2 0 0 0-3.386 0l-10.783 17.254h7.8z" transform="translate(-475.117 -128.11)" style="fill:#c8c8c8"/>
        <path data-name="패스 27558" d="m496.708 135.346-3.9 6.238 3.706 5.93H509.3v-17.967a2 2 0 0 0-2-2h-7.985v6.239h3.743v11.728z" transform="translate(-479.36 -127.551)" style="fill:#c8c8c8"/>
        <path data-name="패스 27572" d="M554.625 145.518v-17.967h-2.34l-3.9 6.239v7.485h-11.227v-7.485h9.282l3.9-6.239h-17.424a2 2 0 0 0-2 2v17.967h21.709a2 2 0 0 0 2-2z" transform="translate(-488.402 -127.551)" style="fill:#c8c8c8"/>
    </g>
</svg>
