<svg xmlns="http://www.w3.org/2000/svg" width="246" height="360" viewBox="0 0 246 360">
    <defs>
        <clipPath id="0jjvz6lfsa">
            <path data-name="사각형 22856" transform="translate(478 511)" style="fill:none" d="M0 0h246v360H0z"/>
        </clipPath>
        <clipPath id="l67traa31b">
            <path data-name="사각형 22709" style="fill:#ffd036" d="M0 0h340v339.998H0z"/>
        </clipPath>
    </defs>
    <g data-name="마스크 그룹 30484" transform="translate(-478 -511)" style="clip-path:url(#0jjvz6lfsa)">
        <g data-name="그룹 77943">
            <g data-name="그룹 77942" style="clip-path:url(#l67traa31b)" transform="translate(491 521)">
                <path data-name="패스 57550" d="M171.346.005c-.463 0-.922-.005-1.385-.005A170 170 0 0 0 .005 168.653v.048C-.71 262.411 74.934 339.254 168.652 340h.543C262.9 340 339.522 263.761 340 170 340 77 264.344.741 171.346.005m-.2 302.235c-.392 0-.777.005-1.166.005-72.28 0-131.6-58.809-132.224-131.1a132.244 132.244 0 0 1 131-133.389h.446c72.951 0 132.633 59.347 133.039 132.24 0 72.289-58.809 131.611-131.1 132.24" style="fill:#ffd036"/>
                <path data-name="패스 57551" d="m296.9 206.748.719-2.053h-16.508l3.779-15.337a13.694 13.694 0 0 0-.779-9.82l-.09-.18a11.535 11.535 0 0 0-7.845-5.864 11.984 11.984 0 0 0-9.208 1.018l-.311.188a12.268 12.268 0 0 0-5.416 8.579L256.2 204.72h-26.384l-4.746-19.31a16.654 16.654 0 0 0-5.537-9.287l-.153-.123a14.321 14.321 0 0 0-8.6-2.994h-.068a14.724 14.724 0 0 0-8.782 2.933l-.172.134a15.739 15.739 0 0 0-5.543 9.411l-4.723 19.236h-26.131l-4.972-21.542a11.7 11.7 0 0 0-6.272-9.088l-.5-.226a13.924 13.924 0 0 0-8.938-.328 12.558 12.558 0 0 0-7.814 5.98l-.125.237a14.668 14.668 0 0 0-.97 10.49l3.56 14.477h-8.326a10.924 10.924 0 0 0 0 21.838h13.7l17.9 72.885a17.114 17.114 0 0 0 5.483 9.32l.137.116a14.228 14.228 0 0 0 8.862 3.144h.074a14.629 14.629 0 0 0 8.632-2.972l.122-.1a16.381 16.381 0 0 0 5.685-9.337l17.935-73.057h1.931l17.448 72.873a17.15 17.15 0 0 0 5.485 9.33l.108.092a14.055 14.055 0 0 0 8.746 3.17 14.482 14.482 0 0 0 8.782-2.985l.17-.136a16.648 16.648 0 0 0 5.543-9.28l17.979-73.061h15.161a10.921 10.921 0 0 0 6.017-19.813m-45.833 19.783-7.76 33.023-8.12-33.023zm-64.942 0-8.1 33.007-7.618-33.007z" transform="translate(-42.16 -60.563)" style="fill:#ffd036"/>
            </g>
        </g>
    </g>
</svg>
