<svg xmlns="http://www.w3.org/2000/svg" xmlns:xlink="http://www.w3.org/1999/xlink" width="246" height="360" viewBox="0 0 246 360">
  <defs>
    <style>
      .cls-1 {
        fill: none;
      }

      .cls-2, .cls-5 {
        fill: #5d72dc;
      }

      .cls-3 {
        clip-path: url(#clip-path);
      }

      .cls-4 {
        clip-path: url(#clip-path-2);
      }

      .cls-5 {
        fill-rule: evenodd;
      }
    </style>
    <clipPath id="clip-path">
      <rect id="사각형_22856" data-name="사각형 22856" class="cls-1" width="246" height="360" transform="translate(478 511)"/>
    </clipPath>
    <clipPath id="clip-path-2">
      <rect id="사각형_22728" data-name="사각형 22728" class="cls-2" width="340" height="340"/>
    </clipPath>
  </defs>
  <g id="마스크_그룹_30481" data-name="마스크 그룹 30481" class="cls-3" transform="translate(-478 -511)">
    <g id="그룹_77947" data-name="그룹 77947" transform="translate(492 521)">
      <g id="그룹_77948" data-name="그룹 77948" class="cls-4">
        <path id="패스_57552" data-name="패스 57552" class="cls-5" d="M170.007,2.5A167.507,167.507,0,1,1,2.5,170.007,167.507,167.507,0,0,1,170.007,2.5m0,192.833,15.086-17.667,61.54-72.057a11.618,11.618,0,0,0-17.587-15.185l-.08.094-61.531,72.065-36.73-31.37a11.616,11.616,0,1,0-15.162,17.6l.077.066,36.723,31.363Zm-118.6-16.765H84.422V161.452H51.409Zm204.189,0h33.013V161.452H255.593ZM161.447,84.416h17.116V51.4H161.447Zm0,204.2h17.116V255.6H161.447Zm8.561-254.327A135.719,135.719,0,1,0,305.733,170.007,135.719,135.719,0,0,0,170.007,34.289" transform="translate(-0.007 -0.007)"/>
        <path id="패스_57553" data-name="패스 57553" class="cls-2" d="M170,340C76.262,340,0,263.738,0,170S76.262,0,170,0,340,76.262,340,170,263.738,340,170,340M170,4.985C79.011,4.985,4.985,79.011,4.985,170S79.011,335.015,170,335.015,335.015,260.989,335.015,170,260.989,4.985,170,4.985m.014,303.226c-76.21,0-138.214-61.995-138.218-138.2S93.79,31.792,170,31.789,308.215,93.788,308.218,170s-62,138.208-138.2,138.212M170,36.774A133.225,133.225,0,0,0,36.781,170.007c0,73.457,59.771,133.215,133.226,133.219h.007c73.457,0,133.219-59.768,133.219-133.226S243.456,36.78,170,36.774M181.048,291.1h-22.1v-38h22.1Zm-17.116-4.985h12.13V258.088h-12.13Zm6.344-87.275-56.368-48.145a14.109,14.109,0,0,1,18.417-21.379L167.15,159.06l60.023-70.3a14.11,14.11,0,0,1,21.338,18.469ZM123.13,130.882q-.344,0-.691.025a9.124,9.124,0,0,0-5.277,16.012l52.562,44.891,75.006-87.828a9.125,9.125,0,1,0-13.805-11.937l-1.966-1.536,1.9,1.618L167.7,166.089,129.078,133.1a9.063,9.063,0,0,0-5.949-2.218M291.1,181.053h-38l-.008-22.1H291.1Zm-33.014-4.985h28.029v-12.13H258.079ZM86.907,181.053h-38v-22.1h38Zm-33.013-4.985H81.922v-12.13H53.894ZM181.048,86.9h-22.1v-38h22.1Zm-17.116-4.985h12.13V53.889h-12.13Z"/>
      </g>
    </g>
  </g>
</svg>
