<svg xmlns="http://www.w3.org/2000/svg" xmlns:xlink="http://www.w3.org/1999/xlink" width="50" height="50" viewBox="0 0 50 50">
  <defs>
    <clipPath id="clip-path">
      <rect id="사각형_23000" data-name="사각형 23000" width="48.828" height="24.186" fill="none"/>
    </clipPath>
    <clipPath id="clip-path-2">
      <rect id="사각형_23009" data-name="사각형 23009" width="35.295" height="31.83" fill="none"/>
    </clipPath>
  </defs>
  <g id="그룹_82873" data-name="그룹 82873" transform="translate(-630 -76)">
    <g id="그룹_82789" data-name="그룹 82789" transform="translate(630.783 84.202)">
      <g id="그룹_82788" data-name="그룹 82788" clip-path="url(#clip-path)">
        <path id="패스_59738" data-name="패스 59738" d="M43.538,0a5.289,5.289,0,0,0-4.563,7.965l-5.818,6.151a5.3,5.3,0,0,0-4.776.121L22.656,8.184a5.29,5.29,0,1,0-9.311-.007l-5.672,6a5.293,5.293,0,1,0,2.057,1.849l5.521-5.837a5.294,5.294,0,0,0,5.5,0l5.627,5.949a5.29,5.29,0,1,0,8.886-.222L40.949,9.9A5.29,5.29,0,1,0,43.538,0"/>
      </g>
    </g>
    <g id="그룹_82797" data-name="그룹 82797" transform="translate(644.316 89.89)">
      <g id="그룹_82797-2" data-name="그룹 82797" clip-path="url(#clip-path-2)">
        <path id="패스_59739" data-name="패스 59739" d="M13.131,2.6a5.223,5.223,0,0,1,9.034,0L34.581,23.985a5.223,5.223,0,0,1-4.517,7.845H5.231A5.223,5.223,0,0,1,.714,23.985Z" transform="translate(0 0)" fill="#fa4350"/>
        <rect id="사각형_23005" data-name="사각형 23005" width="3.581" height="11.938" transform="translate(15.857 8.103)" fill="#fff"/>
        <rect id="사각형_23006" data-name="사각형 23006" width="3.581" height="3.582" transform="translate(15.857 23.026)" fill="#fff"/>
        <rect id="사각형_23007" data-name="사각형 23007" width="1.791" height="11.938" transform="translate(17.647 8.103)" fill="#e7e6e6"/>
        <rect id="사각형_23008" data-name="사각형 23008" width="1.791" height="3.582" transform="translate(17.647 23.026)" fill="#e7e6e6"/>
      </g>
    </g>
    <rect id="사각형_23001" data-name="사각형 23001" width="50" height="50" transform="translate(630 76)" fill="none"/>
  </g>
</svg>
