<svg xmlns="http://www.w3.org/2000/svg" width="26" height="30" viewBox="0 0 26 30">
  <g id="그룹_84232" data-name="그룹 84232" transform="translate(-1253.53 -1057.287)">
    <path id="패스_45014" data-name="패스 45014" d="M1279.27,1080.88l-3.059-3.458v-7.752a9.386,9.386,0,0,0-7.508-9.055v-1.242a2.175,2.175,0,0,0-4.346,0v1.242a9.386,9.386,0,0,0-7.508,9.055v7.752l-3.059,3.458a1.039,1.039,0,0,0,.828,1.717h23.824A1.039,1.039,0,0,0,1279.27,1080.88Z" transform="translate(0 0)" fill="#fe0"/>
    <path id="패스_45015" data-name="패스 45015" d="M1439.1,1597.749a3.417,3.417,0,0,0,3.361-2.244.576.576,0,0,0-.55-.743h-5.622a.576.576,0,0,0-.55.743A3.417,3.417,0,0,0,1439.1,1597.749Z" transform="translate(-172.573 -510.462)" fill="#fe0"/>
  </g>
</svg>
