<svg width="42" height="20" viewBox="0 0 42 20" fill="none" xmlns="http://www.w3.org/2000/svg">
<rect width="42" height="20" rx="10" fill="#EBEBEB"/>
<g filter="url(#filter0_d_2475_18839)">
<circle cx="10" cy="10" r="8" fill="white"/>
</g>
<path d="M25.9629 10.4648C25.9629 12.75 24.5762 14.0977 22.7207 14.0977C20.8652 14.0977 19.4785 12.7402 19.4785 10.4648C19.4785 8.17969 20.8652 6.83203 22.7207 6.83203C24.5762 6.83203 25.9629 8.17969 25.9629 10.4648ZM24.6836 10.4648C24.6836 8.85352 23.873 7.97461 22.7207 7.97461C21.5684 7.97461 20.7578 8.85352 20.7578 10.4648C20.7578 12.0762 21.5684 12.9551 22.7207 12.9551C23.873 12.9551 24.6836 12.0762 24.6836 10.4648ZM27.0957 14V6.92969H31.627V7.99414H28.3652V9.92773H31.3145V10.9922H28.3652V14H27.0957ZM32.7012 14V6.92969H37.2324V7.99414H33.9707V9.92773H36.9199V10.9922H33.9707V14H32.7012Z" fill="#8A8A8B"/>
<defs>
<filter id="filter0_d_2475_18839" x="0.8" y="1.1" width="18.4" height="18.4" filterUnits="userSpaceOnUse" color-interpolation-filters="sRGB">
<feFlood flood-opacity="0" result="BackgroundImageFix"/>
<feColorMatrix in="SourceAlpha" type="matrix" values="0 0 0 0 0 0 0 0 0 0 0 0 0 0 0 0 0 0 127 0" result="hardAlpha"/>
<feOffset dy="0.3"/>
<feGaussianBlur stdDeviation="0.6"/>
<feComposite in2="hardAlpha" operator="out"/>
<feColorMatrix type="matrix" values="0 0 0 0 0 0 0 0 0 0 0 0 0 0 0 0 0 0 0.16 0"/>
<feBlend mode="normal" in2="BackgroundImageFix" result="effect1_dropShadow_2475_18839"/>
<feBlend mode="normal" in="SourceGraphic" in2="effect1_dropShadow_2475_18839" result="shape"/>
</filter>
</defs>
</svg>
