<svg width="16" height="16" viewBox="0 0 16 16" fill="none" xmlns="http://www.w3.org/2000/svg">
<path d="M3.5172 4.01294C3.99259 3.49471 4.51697 3.06791 5.11817 2.74099C8.59772 0.84972 12.9016 2.73857 13.8282 6.59375C14.6732 10.1087 12.2956 13.3682 9.00295 13.9179C6.34899 14.361 3.6932 12.9783 2.57126 10.5494C2.3257 10.0185 2.57307 9.51178 3.12527 9.41492C3.4416 9.35922 3.75792 9.5366 3.92183 9.88592C4.30166 10.6935 4.86475 11.3371 5.61715 11.8141C8.29712 13.5123 11.8855 11.9037 12.425 8.77683C12.8581 6.26563 11.1253 3.92515 8.71143 3.5716C7.12074 3.33852 5.76775 3.82223 4.66334 4.99429C4.63854 5.02093 4.61858 5.05241 4.55871 5.13171C4.70084 5.13171 4.79943 5.13171 4.89801 5.13171C5.13208 5.13171 5.36615 5.12929 5.59961 5.13232C6.04718 5.13777 6.37923 5.43926 6.40282 5.85638C6.42519 6.26381 6.10948 6.63432 5.66493 6.64279C4.68451 6.66217 3.70288 6.66338 2.72246 6.64158C2.26945 6.6319 2.00151 6.30377 2.00091 5.84911C1.9997 4.90469 1.9997 3.96087 2.00091 3.01645C2.00091 2.56724 2.30937 2.23609 2.7273 2.22943C3.16156 2.22216 3.48031 2.54605 3.48696 3.00555C3.4918 3.32278 3.49059 3.64001 3.4924 3.95663C3.4924 3.96329 3.49785 3.96995 3.5166 4.01354L3.5172 4.01294Z" fill="#454B4D"/>
</svg>
