<svg width="12" height="12" viewBox="0 0 12 12" fill="none" xmlns="http://www.w3.org/2000/svg">
<rect x="-0.000244141" width="12" height="12" rx="6" fill="#FF5353"/>
<path d="M8.40015 5.82818C8.40015 5.73366 8.36454 5.63913 8.29981 5.57006L6.63939 3.70867C6.57142 3.63596 6.49698 3.59961 6.41606 3.59961C6.24128 3.59961 6.11505 3.74139 6.11505 3.93408C6.11505 4.03224 6.14742 4.11585 6.20568 4.18129L6.67823 4.72298L7.46475 5.52643L6.86596 5.48281H3.9141C3.72961 5.48281 3.60015 5.62459 3.60015 5.82818C3.60015 6.03177 3.72961 6.17719 3.9141 6.17719H6.86596L7.46798 6.12993L6.67823 6.93701L6.20568 7.47507C6.14742 7.54051 6.11505 7.62413 6.11505 7.72228C6.11505 7.91497 6.24128 8.05675 6.41606 8.05675C6.49698 8.05675 6.57142 8.0204 6.63939 7.94769L8.29981 6.0863C8.36454 6.01723 8.40015 5.9227 8.40015 5.82818Z" fill="white"/>
</svg>
