<svg width="12" height="12" viewBox="0 0 12 12" fill="none" xmlns="http://www.w3.org/2000/svg">
<path d="M2.6379 3.0097C2.99444 2.62104 3.38773 2.30093 3.83863 2.05574C6.44829 0.637291 9.67624 2.05393 10.3712 4.94532C11.0049 7.58153 9.22171 10.0261 6.75222 10.4384C4.76174 10.7708 2.7699 9.73373 1.92844 7.91208C1.74427 7.51388 1.9298 7.13384 2.34396 7.06119C2.5812 7.01942 2.81844 7.15245 2.94137 7.41444C3.22624 8.02014 3.64856 8.5028 4.21286 8.86059C6.22284 10.1342 8.91416 8.92779 9.31879 6.58262C9.64358 4.69922 8.34396 2.94386 6.53357 2.6787C5.34056 2.50389 4.32581 2.86668 3.49751 3.74572C3.47891 3.76569 3.46394 3.78931 3.41903 3.84879C3.52563 3.84879 3.59957 3.84879 3.67351 3.84879C3.84906 3.84879 4.02461 3.84697 4.19971 3.84924C4.53538 3.85333 4.78442 4.07944 4.80211 4.39228C4.8189 4.69786 4.58211 4.97574 4.2487 4.98209C3.51338 4.99662 2.77716 4.99753 2.04185 4.98119C1.70209 4.97392 1.50113 4.72783 1.50068 4.38684C1.49977 3.67852 1.49977 2.97065 1.50068 2.26234C1.50068 1.92543 1.73202 1.67707 2.04547 1.67207C2.37117 1.66662 2.61023 1.90954 2.61522 2.25416C2.61885 2.49208 2.61794 2.73001 2.6193 2.96748C2.6193 2.97247 2.62338 2.97746 2.63745 3.01016L2.6379 3.0097Z" fill="#ADB0B7"/>
</svg>
