<svg width="24" height="24" viewBox="0 0 24 24" fill="none" xmlns="http://www.w3.org/2000/svg">
<rect width="24" height="24" rx="12" fill="#139D7D"/>
<path d="M18 6.9C18 6.8232 17.9703 6.74669 17.9121 6.68789C17.7951 6.57089 17.6049 6.57089 17.4879 6.68789L16.3195 7.85625C15.228 6.71701 13.6989 6 12 6C8.6932 6 6 8.6932 6 12C6 15.3068 8.6932 18 12 18C15.0815 18 17.6294 15.6639 17.9613 12.6656C17.9635 12.6458 17.9647 12.6258 17.9648 12.6059C17.9663 12.4519 17.9086 12.3033 17.8036 12.1907C17.6985 12.0782 17.5543 12.0103 17.4006 12.0011C17.2469 11.9919 17.0956 12.0421 16.9779 12.1414C16.8602 12.2407 16.7852 12.3814 16.7684 12.5344C16.5026 14.9349 14.4769 16.8 12 16.8C9.3416 16.8 7.2 14.6584 7.2 12C7.2 9.3416 9.3416 7.2 12 7.2C13.3737 7.2 14.6014 7.78051 15.4734 8.70234L14.4879 9.68789C14.3709 9.80489 14.3709 9.99511 14.4879 10.1121C14.5461 10.1709 14.6232 10.2 14.7 10.2L17.4 10.2C17.5591 10.2 17.7117 10.1368 17.8243 10.0243C17.9368 9.91174 18 9.75913 18 9.6L18 6.9Z" fill="white"/>
</svg>
