<svg width="98" height="98" viewBox="0 0 98 98" fill="none" xmlns="http://www.w3.org/2000/svg">
<path d="M76 48.5L34.75 72.3157L34.75 24.6843L76 48.5Z" fill="#C4C4C4"/>
<path fill-rule="evenodd" clip-rule="evenodd" d="M4.28372e-06 49C6.64955e-06 21.938 21.9381 -6.64955e-06 49 -4.28372e-06C76.062 -1.91789e-06 98 21.938 98 49C98 76.062 76.062 98 49 98C21.938 98 1.91789e-06 76.0619 4.28372e-06 49ZM49 8C26.3563 7.99999 8.00001 26.3563 8 49C8 71.6437 26.3563 90 49 90C71.6437 90 90 71.6437 90 49C90 26.3563 71.6437 8 49 8Z" fill="#C4C4C4"/>
</svg>
