<svg width="20" height="20" viewBox="0 0 20 20" fill="none" xmlns="http://www.w3.org/2000/svg">
<g clip-path="url(#clip0_1838_753)">
<path d="M10.3775 2.45903H5.29553C4.27495 2.45903 3.4466 3.32935 3.4466 4.40165V5.31604L1.43689 6.53523L3.4466 7.75442V8.67248C3.4466 9.74478 4.27495 10.6151 5.29553 10.6151H10.3775C11.3981 10.6151 12.2264 9.74478 12.2264 8.67248V4.40165C12.2264 3.32935 11.3981 2.45903 10.3775 2.45903Z" fill="#6ABBEE"/>
<path d="M10.3775 11.074H5.29553C4.03728 11.074 3.00971 9.99799 3.00971 8.6723V8.02231L1.2167 6.93533C1.08039 6.85454 1 6.7003 1 6.53872C1 6.37715 1.08388 6.22291 1.2167 6.14212L3.00621 5.05514V4.40515C3.00621 3.08314 4.03029 2.00349 5.29204 2.00349H10.374C11.6322 2.00349 12.6598 3.07946 12.6598 4.40515V8.67598C12.6598 9.99799 11.6357 11.0776 10.374 11.0776L10.3775 11.074ZM2.31068 6.53505L3.6668 7.35764C3.80311 7.43843 3.8835 7.59266 3.8835 7.75424V8.6723C3.8835 9.49121 4.51612 10.1559 5.29553 10.1559H10.3775C11.1534 10.1559 11.7895 9.49121 11.7895 8.6723V4.40147C11.7895 3.58256 11.1569 2.91788 10.3775 2.91788H5.29553C4.51612 2.91788 3.8835 3.58256 3.8835 4.40147V5.31586C3.8835 5.48112 3.79961 5.63168 3.6668 5.71247L2.31068 6.53505Z" fill="#282828"/>
<path d="M9.62254 9.3849H14.7045C15.7251 9.3849 16.5534 10.2552 16.5534 11.3275V12.2456L18.5631 13.4648L16.5534 14.684V15.602C16.5534 16.6743 15.7251 17.5446 14.7045 17.5446H9.62254C8.60195 17.5446 7.7771 16.6743 7.7771 15.602V11.3312C7.7771 10.2589 8.60545 9.38858 9.62254 9.38858V9.3849Z" fill="#FF9213"/>
<path d="M14.7045 18H9.62254C8.36429 18 7.34021 16.924 7.34021 15.5984V11.3275C7.34021 10.0055 8.36429 8.92587 9.62254 8.92587H14.7045C15.9662 8.92587 16.9903 10.0018 16.9903 11.3275V11.9775L18.7798 13.0645C18.9161 13.1453 18.9965 13.2995 18.9965 13.4611C18.9965 13.6227 18.9126 13.7769 18.7798 13.8577L16.9903 14.9447V15.5947C16.9903 16.9167 15.9662 17.9963 14.7045 17.9963V18ZM9.62254 9.84394C8.84662 9.84394 8.214 10.5086 8.214 11.3275V15.5984C8.214 16.4173 8.84662 17.0819 9.62254 17.0819H14.7045C15.4839 17.0819 16.1165 16.4173 16.1165 15.5984V14.6803C16.1165 14.515 16.2004 14.3645 16.3332 14.2837L17.6893 13.4611L16.3332 12.6385C16.1969 12.5577 16.1165 12.4035 16.1165 12.2419V11.3239C16.1165 10.5049 15.4839 9.84026 14.7045 9.84026H9.62254V9.84394Z" fill="#282828"/>
<path d="M14.0482 12.712H10.4369C10.1957 12.712 10 12.5063 10 12.2529C10 11.9995 10.1957 11.7939 10.4369 11.7939H14.0482C14.2893 11.7939 14.485 11.9995 14.485 12.2529C14.485 12.5063 14.2893 12.712 14.0482 12.712Z" fill="#282828"/>
<path d="M14.0482 15.0365H10.4369C10.1957 15.0365 10 14.8308 10 14.5775C10 14.3241 10.1957 14.1184 10.4369 14.1184H14.0482C14.2893 14.1184 14.485 14.3241 14.485 14.5775C14.485 14.8308 14.2893 15.0365 14.0482 15.0365Z" fill="#282828"/>
<path d="M9.74811 5.81806H6.13684C5.89568 5.81806 5.69995 5.61241 5.69995 5.35903C5.69995 5.10564 5.89568 4.89999 6.13684 4.89999H9.74811C9.98927 4.89999 10.185 5.10564 10.185 5.35903C10.185 5.61241 9.98927 5.81806 9.74811 5.81806Z" fill="#282828"/>
<path d="M9.74811 8.11806H6.13684C5.89568 8.11806 5.69995 7.91241 5.69995 7.65903C5.69995 7.40564 5.89568 7.2 6.13684 7.2H9.74811C9.98927 7.2 10.185 7.40564 10.185 7.65903C10.185 7.91241 9.98927 8.11806 9.74811 8.11806Z" fill="#282828"/>
</g>
<defs>
<clipPath id="clip0_1838_753">
<rect width="18" height="16" fill="white" transform="translate(1 2)"/>
</clipPath>
</defs>
</svg>
