<svg width="20" height="20" viewBox="0 0 20 20" fill="none" xmlns="http://www.w3.org/2000/svg">
<path d="M9 12.9275L2 18L7.07252 11" fill="#F8CE00"/>
<path d="M1.55616 19C1.41327 19 1.27038 18.9464 1.16322 18.8348C0.971209 18.6428 0.944417 18.3347 1.10517 18.1114L6.8163 10.2302C6.99937 9.98015 7.34767 9.92656 7.59772 10.1052C7.84778 10.2882 7.90136 10.6365 7.72275 10.8866L4.06567 15.9324L9.11146 12.2753C9.36152 12.0922 9.70981 12.1503 9.89289 12.4003C10.076 12.6504 10.0179 12.9987 9.76786 13.1817L1.88213 18.8928C1.78389 18.9643 1.6678 19 1.55616 19Z" fill="#282828"/>
<path d="M12.7462 9.47295L15.8837 5.85751L17.1096 7.08343L17.5418 6.65124C18.1527 6.04036 18.1527 5.04715 17.5418 4.43211L15.5679 2.45816C14.957 1.84728 13.9638 1.84728 13.3488 2.45816L12.9124 2.89035L14.1383 4.11628L10.5229 7.25797C8.72764 6.37697 6.5002 6.67202 5 8.15144L11.8486 15C13.328 13.4956 13.623 11.2724 12.742 9.4771L12.7462 9.47295Z" fill="#EE5750"/>
<path d="M11.873 16C11.7265 16 11.5844 15.9423 11.4822 15.8357L4.1643 8.51776C4.05773 8.41119 4 8.26909 4 8.12256C4 7.97602 4.06217 7.83392 4.1643 7.72735C5.80284 6.11545 8.24956 5.6492 10.3588 6.5151L13.5071 3.78419L12.619 2.89609C12.5169 2.79396 12.4547 2.65186 12.4547 2.50533C12.4547 2.35879 12.5124 2.2167 12.619 2.11456L13.0853 1.65275C13.5071 1.23091 14.0666 1 14.6616 1C15.2567 1 15.8162 1.23091 16.238 1.65275L18.3472 3.76199C19.2176 4.63233 19.2176 6.04884 18.3472 6.91918L17.8854 7.38099C17.6678 7.59858 17.317 7.59858 17.0995 7.38099L16.2114 6.49289L13.4805 9.64121C14.3464 11.7504 13.8801 14.1972 12.2682 15.8357C12.1661 15.9423 12.024 16 11.873 16ZM5.36767 8.15364L11.8464 14.6323C12.9032 13.2558 13.1075 11.373 12.3304 9.78774C12.2327 9.58792 12.2638 9.34813 12.4103 9.1794L15.7629 5.31616C15.865 5.20071 16.0071 5.12966 16.1625 5.12522C16.3224 5.1119 16.4645 5.17851 16.5755 5.28952L17.4947 6.2087L17.5657 6.13765C18.0009 5.70249 18.0009 4.98757 17.5657 4.5524L15.4565 2.44316C15.0346 2.01687 14.2931 2.01687 13.8712 2.44316L13.8002 2.51421L14.7194 3.43339C14.8304 3.5444 14.8881 3.69094 14.8837 3.84636C14.8792 4.00178 14.8082 4.14387 14.6927 4.246L10.8295 7.60302C10.6607 7.74956 10.421 7.78064 10.2211 7.68295C8.63144 6.90586 6.75311 7.11012 5.37655 8.16696L5.36767 8.15364Z" fill="#282828"/>
</svg>
