<svg xmlns="http://www.w3.org/2000/svg" width="96.935" height="117.026" viewBox="0 0 96.935 117.026">
    <defs>
        <style>
            .cls-1{fill:#ffd255;stroke:#000;stroke-linecap:round;stroke-linejoin:round;stroke-width:2px}.cls-2{fill:#ffb048;mix-blend-mode:darken;isolation:isolate}
        </style>
    </defs>
    <g id="그룹_31694" transform="translate(-988.145 -409.768)">
        <path id="사각형_13012" d="M3.538 0a3.538 3.538 0 0 1 3.539 3.538v12.326H0V3.538A3.538 3.538 0 0 1 3.538 0z" class="cls-1" transform="translate(1033.074 410.768)"/>
        <path id="패스_47675" d="M1064.346 543.6a15 15 0 0 1-.977 5.348 15.152 15.152 0 0 1-28.361 0 14.992 14.992 0 0 1-.978-5.348 15.158 15.158 0 1 1 30.315 0z" class="cls-1" transform="translate(-12.577 -32.972)"/>
        <path id="패스_47676" d="M1072.4 462.824c0-19.136-14.792-35.347-33.9-36.326a35.787 35.787 0 0 0-37.667 35.737v.589a62.605 62.605 0 0 1-9.8 34.066 11.7 11.7 0 0 0-1.881 6.38 11.759 11.759 0 0 0 11.759 11.759h71.418a11.759 11.759 0 0 0 11.759-11.759 11.7 11.7 0 0 0-1.88-6.38 62.6 62.6 0 0 1-9.808-34.066z" class="cls-1" transform="translate(0 -4.394)"/>
        <path id="패스_47677" d="M997.927 504.737a15.146 15.146 0 0 1 1.356-6.38c4.722-10.115 7.066-22.015 7.066-34.066v-.591c0-14.013 5.807-26.146 14.265-32.019a35.787 35.787 0 0 0-19.787 32.019v.589a62.605 62.605 0 0 1-9.8 34.066 11.7 11.7 0 0 0-1.881 6.38A11.759 11.759 0 0 0 1000.9 516.5h5.5c-4.677 0-8.473-5.269-8.473-11.763z" class="cls-2" transform="translate(0 -5.86)"/>
        <path id="패스_47678" d="M1095.658 496.892a66.852 66.852 0 0 1-8.985-34.066c0-19.136-13.56-35.347-31.08-36.326a30.577 30.577 0 0 0-4.1.055c12.4 1.345 21.93 17.377 21.93 36.271 0 12.052 2.149 23.951 6.478 34.066a16.327 16.327 0 0 1 1.242 6.38c0 6.494-3.479 11.759-7.771 11.759h13.228c5.954 0 10.78-5.265 10.78-11.759a12.483 12.483 0 0 0-1.722-6.38z" class="cls-2" transform="translate(-17.47 -4.395)"/>
        <ellipse id="타원_1354" cx="10.544" cy="5.645" fill="#ffe6a9" rx="10.544" ry="5.645" transform="translate(1012.327 454.199) rotate(-79.516)"/>
        <path id="패스_47679" d="M1064.346 549.507a15 15 0 0 1-.977 5.348h-28.361a14.992 14.992 0 0 1-.978-5.348z" class="cls-2" transform="translate(-12.577 -38.874)"/>
    </g>
</svg>
