<svg xmlns="http://www.w3.org/2000/svg" width="100" height="100" viewBox="0 0 100 100">
    <circle data-name="타원 88" cx="50" cy="50" r="50" style="fill:#e1e1e1"/>
    <g data-name="그룹 525">
        <path data-name="패스 1520" d="M628.941 277.42c-3.135 1.326-16.81 7.422-21.919 10.406-2.208-.854-4.08-1.479-6.642-2.436 10.618-6.191 22.162-9.706 22.362-9.963 2.158.568 4.002 1.459 6.199 1.993z" transform="translate(-590.377 -238.361)" style="fill:#fff;fill-rule:evenodd"/>
        <path data-name="패스 1521" d="M651.549 285.914c-3.134 1.325-16.9 7.965-22.013 10.95-2.382-1.192-4.709-2.383-7.084-3.341 10.619-6.191 21.636-10.3 21.836-10.559 2.042.794 5.106 2.155 7.261 2.95z" transform="translate(-602.731 -242.58)" style="fill:#fff;fill-rule:evenodd"/>
        <path data-name="패스 1522" d="M694.539 279.352c-3.134 1.325-24.719 8.309-45.162 21.9a56.193 56.193 0 0 0-9.316-4.83c10.62-6.191 24.689-15.523 46.135-21.026 3.235 1.417 5.451 2.65 8.343 3.956z" transform="translate(-612.588 -238.344)" style="fill:#fff;fill-rule:evenodd"/>
        <path data-name="패스 1523" d="M720.915 292.145c-3.134 1.325-29.332 13.843-42.041 24.907-2.326-1.361-7.376-5.163-9.732-6.422 10.186-6.571 23.121-16.1 44.341-22.514a59.913 59.913 0 0 1 7.432 4.029z" transform="translate(-628.864 -245.464)" style="fill:#fff;fill-rule:evenodd"/>
        <path data-name="패스 1524" d="M657.7 265.032c5.59 1.824 13.76 4.661 19.094 7.384-1.692.923-3.98 1.548-6.022 2.4-13.576-5.69-19.082-7.361-19.339-7.561 1.21-.524 5.215-1.874 6.267-2.223z" transform="translate(-618.95 -232.543)" style="fill:#fff;fill-rule:evenodd"/>
        <path data-name="패스 1525" d="M680.664 259.382c5.592 1.824 14.127 4.255 19.461 6.979a47.261 47.261 0 0 0-6.52 1.858c-13.576-5.69-18.575-7.166-18.832-7.366 1.214-.523 4.844-1.122 5.891-1.471z" transform="translate(-632.016 -229.381)" style="fill:#fff;fill-rule:evenodd"/>
    </g>
</svg>
