<svg id="비씨카드" xmlns="http://www.w3.org/2000/svg" xmlns:xlink="http://www.w3.org/1999/xlink" width="88" height="88" viewBox="0 0 88 88">
  <defs>
    <clipPath id="clip-path">
      <rect id="사각형_16749" data-name="사각형 16749" width="88" height="88" fill="none"/>
    </clipPath>
  </defs>
  <g id="그룹_65184" data-name="그룹 65184" transform="translate(0 0)" clip-path="url(#clip-path)">
    <path id="패스_50293" data-name="패스 50293" d="M88,44A44,44,0,1,1,44,0,44,44,0,0,1,88,44" transform="translate(0 0)" fill="#d01"/>
    <path id="패스_50294" data-name="패스 50294" d="M20.36,27.724a6.853,6.853,0,0,0-4.545-.839A14.438,14.438,0,0,0,20.273,17.1a9.064,9.064,0,0,0-.042-.924,4.546,4.546,0,0,0-2.609-4.211c-1.516-.55-4.247-.276-8.636,4.19L6.367,19.1a21.86,21.86,0,0,0-3.991,9.393,55.083,55.083,0,0,0,1.579,21.3,5.014,5.014,0,0,0,2.618,3.3,5.931,5.931,0,0,0,5.017-.933l.4-.2,1.558-.7,1.516-.671,1.853-.8a13.035,13.035,0,0,0,3.765-2.062,10.89,10.89,0,0,0,3.409-5.213,17.677,17.677,0,0,0,.648-3.521,16.814,16.814,0,0,0-.189-4.731,9.447,9.447,0,0,0-4.19-6.534m-14.012,5.5h0l.069.976a.543.543,0,0,0,.31.5.5.5,0,0,0,.547-.111,7.006,7.006,0,0,1,6.136-1.916c1.556.541,2.625,2.151,3.172,4.8A8.026,8.026,0,0,1,11.545,46.8l-.091.034-3.037,1.5a.459.459,0,0,1-.35-.028c-.189-.093-.255-.22-.37-.541a64.331,64.331,0,0,1-2-23.128,3.728,3.728,0,0,1,.782-1.809L9,20.107l.3-.306c1.4-1.36,2.682-2.022,3.383-1.734.6.249.746,1.182.759,1.922.108,3.978-2.11,8.036-6.789,12.414a1.012,1.012,0,0,0-.31.831Z" transform="translate(0.982 5.853)" fill="#fff"/>
    <path id="패스_50295" data-name="패스 50295" d="M47.7,8.531C46.841,5.6,45.436,4.98,45.04,4.848a23.171,23.171,0,0,0-11.132-.756A21.47,21.47,0,0,0,20.4,12.271a20.214,20.214,0,0,0-3.624,15.706,19.677,19.677,0,0,0,8.317,13.271,25.307,25.307,0,0,0,19.558,3.016A24.008,24.008,0,0,0,55.454,39.2a4.411,4.411,0,0,0,1.5-3.443,13.167,13.167,0,0,0-.554-3.241c-.16-.6-.421-.779-.843-.779-.306,0-.629.35-.695.424a16.063,16.063,0,0,1-9.26,4.89c-10.2,1.96-18.05-2.805-20-12.155a13.986,13.986,0,0,1,1.962-10.945,14.261,14.261,0,0,1,9.787-5.7A17.734,17.734,0,0,1,46.73,9.4s1.234.346.966-.873" transform="translate(8.179 1.86)" fill="#fff"/>
  </g>
</svg>
