<svg xmlns="http://www.w3.org/2000/svg" width="323.596" height="400" viewBox="0 0 323.596 400">
    <defs>
        <clipPath id="frgkc7sdla">
            <path data-name="사각형 17380" transform="translate(9670.48 -10543)" style="fill:#fff" d="M0 0h323.596v400H0z"/>
        </clipPath>
        <clipPath id="9wmcbjb6cb">
            <path data-name="패스 52670" d="m0 0 259.519.168.221 342.689-259.519-.168z" style="fill:none"/>
        </clipPath>
    </defs>
    <g data-name="마스크 그룹 30412" transform="translate(-9670.48 10543)" style="clip-path:url(#frgkc7sdla)">
        <g data-name="그룹 65927" transform="translate(9669.94 -10543.001)">
            <g data-name="그룹 65926">
                <g data-name="그룹 65921">
                    <g data-name="그룹 65920" transform="rotate(12.04 64.83 348.659)" style="clip-path:url(#9wmcbjb6cb)">
                        <path data-name="패스 52668" d="m239.815 335.678-219.7-.143C9.163 335.529.2 326.874.192 316.3L0 19.206C-.007 8.636 8.946-.007 19.9 0l219.7.143c10.948.007 19.913 8.657 19.92 19.232l.192 297.1c.007 10.571-8.946 19.213-19.9 19.206" transform="translate(.017 7.166)" style="fill:#d2dff2"/>
                        <path data-name="패스 52669" d="m239.815 335.678-219.7-.143C9.163 335.528.2 326.874.192 316.3L0 19.206C-.007 8.636 8.946-.007 19.9 0l219.7.143c10.948.007 19.913 8.657 19.92 19.232l.192 297.1c.007 10.571-8.946 19.213-19.9 19.206" transform="translate(.012 .013)" style="fill:#f3f3ff"/>
                    </g>
                </g>
                <g data-name="그룹 65925">
                    <g data-name="그룹 65924" transform="rotate(12.04 63.321 334.399)" style="clip-path:url(#9wmcbjb6cb)">
                        <path data-name="패스 52706" d="M204.608 47.4 6 47.271A5.9 5.9 0 0 1 .023 41.5L0 5.762A5.88 5.88 0 0 1 5.969 0l198.608.129a5.9 5.9 0 0 1 5.976 5.77l.023 35.739a5.88 5.88 0 0 1-5.969 5.762" transform="translate(24.511 37.837)" style="fill:#62676d"/>
                        <path data-name="패스 52707" d="M29.587 13.619 2.4 13.6a2.359 2.359 0 0 1-2.394-2.306L0 2.3A2.352 2.352 0 0 1 2.388 0l27.19.018a2.359 2.359 0 0 1 2.39 2.308l.006 8.989a2.352 2.352 0 0 1-2.387 2.3" transform="translate(24.555 110.138)" style="fill:#3b89ff"/>
                        <path data-name="패스 52708" d="M29.587 13.619 2.4 13.6a2.359 2.359 0 0 1-2.394-2.306L0 2.3A2.352 2.352 0 0 1 2.388 0l27.19.018a2.359 2.359 0 0 1 2.39 2.308l.006 8.989a2.352 2.352 0 0 1-2.387 2.3" transform="translate(69.202 110.167)" style="fill:#67a3ff"/>
                        <path data-name="패스 52709" d="M29.587 13.619 2.4 13.6a2.359 2.359 0 0 1-2.394-2.306L0 2.3A2.352 2.352 0 0 1 2.388 0l27.19.018a2.359 2.359 0 0 1 2.39 2.308l.006 8.989a2.352 2.352 0 0 1-2.387 2.3" transform="translate(113.848 110.196)" style="fill:#67a3ff"/>
                        <path data-name="패스 52710" d="M29.587 13.619 2.4 13.6a2.359 2.359 0 0 1-2.394-2.306L0 2.3A2.352 2.352 0 0 1 2.388 0l27.19.018a2.36 2.36 0 0 1 2.391 2.308l.006 8.989a2.352 2.352 0 0 1-2.388 2.3" transform="translate(158.494 110.225)" style="fill:#67a3ff"/>
                        <path data-name="패스 52711" d="M29.588 13.619 2.4 13.6a2.36 2.36 0 0 1-2.394-2.306L0 2.3A2.352 2.352 0 0 1 2.388 0l27.191.018a2.359 2.359 0 0 1 2.39 2.308l.006 8.989a2.352 2.352 0 0 1-2.387 2.3" transform="translate(203.14 110.254)" style="fill:#67a3ff"/>
                        <path data-name="패스 52712" d="m29.6 30.88-27.192-.018a2.359 2.359 0 0 1-2.391-2.308L0 2.3A2.352 2.352 0 0 1 2.388 0l27.19.018a2.359 2.359 0 0 1 2.39 2.308l.017 26.25a2.352 2.352 0 0 1-2.387 2.3" transform="translate(24.572 136.18)" style="fill:#b8d4ff"/>
                        <path data-name="패스 52713" d="m29.6 30.88-27.192-.018a2.359 2.359 0 0 1-2.391-2.308L0 2.3A2.352 2.352 0 0 1 2.388 0l27.19.018a2.359 2.359 0 0 1 2.39 2.308l.017 26.25a2.352 2.352 0 0 1-2.387 2.3" transform="translate(24.599 177.37)" style="fill:#b8d4ff"/>
                        <path data-name="패스 52714" d="m29.6 30.88-27.192-.018a2.359 2.359 0 0 1-2.391-2.308L0 2.3A2.352 2.352 0 0 1 2.388 0l27.19.018a2.359 2.359 0 0 1 2.39 2.308l.017 26.25a2.352 2.352 0 0 1-2.387 2.3" transform="translate(24.625 218.559)" style="fill:#b8d4ff"/>
                        <path data-name="패스 52715" d="m29.6 30.88-27.192-.018a2.359 2.359 0 0 1-2.391-2.308L0 2.3A2.352 2.352 0 0 1 2.388 0l27.19.018a2.359 2.359 0 0 1 2.39 2.308l.017 26.25a2.352 2.352 0 0 1-2.387 2.3" transform="translate(24.652 259.748)" style="fill:#b8d4ff"/>
                        <path data-name="패스 52716" d="m29.6 30.88-27.192-.018a2.359 2.359 0 0 1-2.391-2.308L0 2.3A2.352 2.352 0 0 1 2.388 0l27.19.018a2.359 2.359 0 0 1 2.39 2.308l.017 26.25a2.352 2.352 0 0 1-2.387 2.3" transform="translate(69.218 136.209)" style="fill:#b8d4ff"/>
                        <path data-name="패스 52717" d="m29.6 30.88-27.192-.018a2.359 2.359 0 0 1-2.391-2.308L0 2.3A2.352 2.352 0 0 1 2.388 0l27.19.018a2.359 2.359 0 0 1 2.39 2.308l.017 26.25a2.352 2.352 0 0 1-2.387 2.3" transform="translate(69.245 177.399)" style="fill:#b8d4ff"/>
                        <path data-name="패스 52718" d="m29.6 30.88-27.192-.018a2.359 2.359 0 0 1-2.391-2.308L0 2.3A2.352 2.352 0 0 1 2.388 0l27.19.018a2.359 2.359 0 0 1 2.39 2.308l.017 26.25a2.352 2.352 0 0 1-2.387 2.3" transform="translate(69.272 218.588)" style="fill:#b8d4ff"/>
                        <path data-name="패스 52719" d="m29.6 30.88-27.192-.018a2.359 2.359 0 0 1-2.391-2.308L0 2.3A2.352 2.352 0 0 1 2.388 0l27.19.018a2.359 2.359 0 0 1 2.39 2.308l.017 26.25a2.352 2.352 0 0 1-2.387 2.3" transform="translate(69.298 259.777)" style="fill:#b8d4ff"/>
                        <path data-name="패스 52720" d="m29.6 30.88-27.192-.018a2.359 2.359 0 0 1-2.391-2.308L0 2.3A2.352 2.352 0 0 1 2.388 0l27.19.018a2.359 2.359 0 0 1 2.39 2.308l.017 26.25a2.352 2.352 0 0 1-2.387 2.3" transform="translate(113.864 136.238)" style="fill:#b8d4ff"/>
                        <path data-name="패스 52721" d="m29.6 30.88-27.192-.018a2.359 2.359 0 0 1-2.391-2.308L0 2.3A2.352 2.352 0 0 1 2.388 0l27.19.018a2.359 2.359 0 0 1 2.39 2.308l.017 26.25a2.352 2.352 0 0 1-2.387 2.3" transform="translate(113.891 177.428)" style="fill:#b8d4ff"/>
                        <path data-name="패스 52722" d="m29.6 30.88-27.192-.018a2.359 2.359 0 0 1-2.391-2.308L0 2.3A2.352 2.352 0 0 1 2.388 0l27.19.018a2.359 2.359 0 0 1 2.39 2.308l.017 26.25a2.352 2.352 0 0 1-2.387 2.3" transform="translate(113.918 218.617)" style="fill:#b8d4ff"/>
                        <path data-name="패스 52723" d="m29.6 30.88-27.192-.018a2.359 2.359 0 0 1-2.391-2.308L0 2.3A2.352 2.352 0 0 1 2.388 0l27.19.018a2.359 2.359 0 0 1 2.39 2.308l.017 26.25a2.352 2.352 0 0 1-2.387 2.3" transform="translate(113.944 259.806)" style="fill:#b8d4ff"/>
                        <path data-name="패스 52724" d="m29.6 30.88-27.193-.018a2.359 2.359 0 0 1-2.39-2.308L0 2.3A2.352 2.352 0 0 1 2.388 0l27.19.018a2.359 2.359 0 0 1 2.391 2.308l.017 26.25a2.352 2.352 0 0 1-2.388 2.3" transform="translate(158.511 136.267)" style="fill:#67a3ff"/>
                        <path data-name="패스 52725" d="m29.6 30.88-27.193-.018a2.359 2.359 0 0 1-2.39-2.308L0 2.3A2.352 2.352 0 0 1 2.388 0l27.19.018a2.359 2.359 0 0 1 2.391 2.308l.017 26.25a2.352 2.352 0 0 1-2.388 2.3" transform="translate(158.537 177.457)" style="fill:#67a3ff"/>
                        <path data-name="패스 52726" d="m29.625 72.069-27.191-.018a2.359 2.359 0 0 1-2.391-2.307L0 2.3A2.352 2.352 0 0 1 2.388 0l27.19.018a2.359 2.359 0 0 1 2.391 2.308l.043 67.439a2.352 2.352 0 0 1-2.388 2.3" transform="translate(158.564 218.646)" style="fill:#67a3ff"/>
                        <path data-name="패스 52727" d="m29.6 30.88-27.192-.018a2.36 2.36 0 0 1-2.391-2.308L0 2.3A2.352 2.352 0 0 1 2.388 0l27.191.018a2.359 2.359 0 0 1 2.39 2.308l.017 26.25a2.352 2.352 0 0 1-2.387 2.3" transform="translate(203.157 136.296)" style="fill:#67a3ff"/>
                        <path data-name="패스 52728" d="m29.6 30.88-27.192-.018a2.36 2.36 0 0 1-2.391-2.308L0 2.3A2.352 2.352 0 0 1 2.388 0l27.191.018a2.359 2.359 0 0 1 2.39 2.308l.017 26.25a2.352 2.352 0 0 1-2.387 2.3" transform="translate(203.183 177.485)" style="fill:#67a3ff"/>
                        <path data-name="패스 52729" d="m29.6 30.88-27.192-.018a2.36 2.36 0 0 1-2.391-2.308L0 2.3A2.352 2.352 0 0 1 2.388 0l27.191.018a2.359 2.359 0 0 1 2.39 2.308l.017 26.25a2.352 2.352 0 0 1-2.387 2.3" transform="translate(203.21 218.675)" style="fill:#67a3ff"/>
                        <path data-name="패스 52730" d="m29.6 30.88-27.192-.018a2.36 2.36 0 0 1-2.391-2.308L0 2.3A2.352 2.352 0 0 1 2.388 0l27.191.018a2.359 2.359 0 0 1 2.39 2.308l.017 26.25a2.352 2.352 0 0 1-2.387 2.3" transform="translate(203.237 259.864)" style="fill:#67a3ff"/>
                    </g>
                </g>
            </g>
            <ellipse data-name="타원 2006" cx="114.286" cy="8.442" rx="114.286" ry="8.442" transform="translate(29.543 383.553)" style="fill:#616161;opacity:.26;mix-blend-mode:hard-light;isolation:isolate"/>
        </g>
    </g>
</svg>
