<svg xmlns="http://www.w3.org/2000/svg" width="31" height="31" viewBox="0 0 31 31">
    <defs>
        <style>
            .cls-1{fill:none;stroke:#c8c8c8}
        </style>
    </defs>
    <g id="그룹_62241" data-name="그룹 62241" transform="translate(-129.5 -826.5)">
        <g id="타원_1339" data-name="타원 1339" transform="translate(130 826.86)">
            <circle id="타원_1734" data-name="타원 1734" class="cls-1" cx="15" cy="15" r="15" transform="translate(0 .139)"/>
            <circle id="타원_1735" data-name="타원 1735" class="cls-1" cx="14.756" cy="14.756" r="14.756" transform="translate(.314 .314)"/>
        </g>
        <g id="그룹_57723" data-name="그룹 57723" transform="translate(139.673 833.955)" style="isolation:isolate">
            <path id="패스_45842" data-name="패스 45842" d="M1045.542 509.791h-10.8a7.1 7.1 0 0 1 3.481-5.99c2.057-1.491 4.724-2.735 4.77-5.2a2.5 2.5 0 0 0-2.667-2.8c-2.034 0-2.644 1.74-2.712 3.955h-2.577c0-3.5 1.921-6.1 5.447-6.1a4.7 4.7 0 0 1 5.086 4.859c0 2.509-1.718 4.069-3.526 5.334-1.831 1.266-3.752 2.238-4.2 3.639h7.707z" transform="translate(-1034.738 -493.653)" style="fill:#c8c8c8"/>
        </g>
    </g>
</svg>
