<svg id="시티카드" xmlns="http://www.w3.org/2000/svg" xmlns:xlink="http://www.w3.org/1999/xlink" width="88" height="88" viewBox="0 0 88 88">
  <defs>
    <clipPath id="clip-path">
      <rect id="사각형_16759" data-name="사각형 16759" width="88" height="88" fill="none"/>
    </clipPath>
  </defs>
  <g id="그룹_65201" data-name="그룹 65201" transform="translate(0 0)" clip-path="url(#clip-path)">
    <path id="패스_50313" data-name="패스 50313" d="M44,0A44,44,0,1,1,0,44,44,44,0,0,1,44,0" transform="translate(0 0)" fill="#056dae"/>
    <path id="패스_50314" data-name="패스 50314" d="M30.268,23.95H24.9V50.271h5.381V23.95Z" transform="translate(12.39 11.919)" fill="#002069" fill-rule="evenodd"/>
    <path id="패스_50315" data-name="패스 50315" d="M31.778,26.716v4.935H36.31V46.5a7.261,7.261,0,0,0,1.646,4.935A5.544,5.544,0,0,0,42.3,53.4a8.516,8.516,0,0,0,4.761-1.2l.087-.043v-.085l1.283-5.008-.316.2a7.767,7.767,0,0,1-3.982,1.319c-1.674,0-2.525-1-2.525-2.959V31.639h5.5V26.7h-5.5V18.479l-5.3,2.843V26.7Z" transform="translate(15.815 9.197)" fill="#002069" fill-rule="evenodd"/>
    <rect id="사각형_16757" data-name="사각형 16757" width="5.425" height="26.322" transform="translate(68.211 35.869)" fill="#002069"/>
    <path id="패스_50316" data-name="패스 50316" d="M30.531,28.238l-.114-.085a11.536,11.536,0,0,0-9.308-4.489,13.7,13.7,0,0,0-9.669,3.564,14.425,14.425,0,0,0,0,20.142,13.6,13.6,0,0,0,9.669,3.536,11.6,11.6,0,0,0,9.308-4.46l.114-.085L27.487,42.68l-.114.117a8.992,8.992,0,0,1-6.38,2.973,7.887,7.887,0,0,1-5.9-2.42,8.2,8.2,0,0,1-2.323-6.061,8.344,8.344,0,0,1,2.323-6.1,8.016,8.016,0,0,1,5.9-2.366,8.99,8.99,0,0,1,6.38,2.971l.114.115,3.045-3.681Z" transform="translate(3.654 11.774)" fill="#002069" fill-rule="evenodd"/>
    <path id="패스_50317" data-name="패스 50317" d="M28.744,24.848a22.415,22.415,0,0,1,7.186-4.978,20.568,20.568,0,0,1,8.225-1.674,21.014,21.014,0,0,1,8.267,1.674,22.825,22.825,0,0,1,7.129,4.978l.085.072h6.175l-.231-.359a26.457,26.457,0,0,0-9.438-8.167,25.922,25.922,0,0,0-24,0,26.283,26.283,0,0,0-9.422,8.167l-.247.359h6.232l.045-.072Z" transform="translate(11.186 6.694)" fill="#dc0016" fill-rule="evenodd"/>
    <path id="패스_50318" data-name="패스 50318" d="M30.268,23.95H24.9V50.271h5.381V23.95Z" transform="translate(12.39 11.919)" fill="#fff" fill-rule="evenodd"/>
    <path id="패스_50319" data-name="패스 50319" d="M31.778,26.716v4.935H36.31V46.5a7.261,7.261,0,0,0,1.646,4.935A5.544,5.544,0,0,0,42.3,53.4a8.516,8.516,0,0,0,4.761-1.2l.087-.043v-.085l1.283-5.008-.316.2a7.767,7.767,0,0,1-3.982,1.319c-1.674,0-2.525-1-2.525-2.959V31.639h5.5V26.7h-5.5V18.479l-5.3,2.843V26.7Z" transform="translate(15.815 9.197)" fill="#fff" fill-rule="evenodd"/>
    <rect id="사각형_16758" data-name="사각형 16758" width="5.425" height="26.322" transform="translate(68.211 35.869)" fill="#fff"/>
    <path id="패스_50320" data-name="패스 50320" d="M30.531,28.238l-.114-.085a11.536,11.536,0,0,0-9.308-4.489,13.7,13.7,0,0,0-9.669,3.564,14.425,14.425,0,0,0,0,20.142,13.6,13.6,0,0,0,9.669,3.536,11.6,11.6,0,0,0,9.308-4.46l.114-.085L27.487,42.68l-.114.117a8.992,8.992,0,0,1-6.38,2.973,7.887,7.887,0,0,1-5.9-2.42,8.2,8.2,0,0,1-2.323-6.061,8.344,8.344,0,0,1,2.323-6.1,8.016,8.016,0,0,1,5.9-2.366,8.99,8.99,0,0,1,6.38,2.971l.114.115,3.045-3.681Z" transform="translate(3.654 11.774)" fill="#fff" fill-rule="evenodd"/>
    <path id="패스_50321" data-name="패스 50321" d="M28.744,24.848a22.415,22.415,0,0,1,7.186-4.978,20.568,20.568,0,0,1,8.225-1.674,21.014,21.014,0,0,1,8.267,1.674,22.825,22.825,0,0,1,7.129,4.978l.085.072h6.175l-.231-.359a26.457,26.457,0,0,0-9.438-8.167,25.922,25.922,0,0,0-24,0,26.283,26.283,0,0,0-9.422,8.167l-.247.359h6.232l.045-.072Z" transform="translate(11.186 6.694)" fill="#dc0016" fill-rule="evenodd"/>
  </g>
</svg>
