<svg xmlns="http://www.w3.org/2000/svg" viewBox="0 0 110.39 110.39" style="enable-background:new 0 0 110.39 110.39" xml:space="preserve"><path d="M87.65 38.65a9.67 9.67 0 0 0-.76-.04c-2.15 0-4.46.14-6.96 1.04a7.57 7.57 0 0 0-6.76-6.59c-.26-.03-.52-.04-.78-.04-2.18 0-4.52.14-7.06 1.08-.73-3.44-3.78-6.02-7.43-6.02-2.13 0-4.42.14-6.9 1.02V11.5c0-1.78-.65-7.6-9-7.6-6.7 0-9.7 3.82-9.7 7.6v44.2l-3.22-7.78a7.579 7.579 0 0 0-7.02-4.69c-.89 0-4.3.58-5.32 1-1.61.67-3.63 2.29-4.5 4.39-.78 1.88-.78 3.94-.02 5.76.37.94 9.09 23.06 13.22 30.15 3.11 5.33 10.32 18 10.4 18.13l1.01 1.77h52.19l.5-2.9c.51-2.93 4.95-28.82 4.95-33.77V46.22a7.59 7.59 0 0 0-6.84-7.57zm3.34 22.14v6.96c0 4.79-4.9 33.17-4.9 33.17H38.88s-7.26-12.75-10.41-18.16c-4.04-6.94-12.99-29.67-12.99-29.67a4.07 4.07 0 0 1 0-3.14c.42-1.01 1.6-2.08 2.61-2.5.5-.21 3.44-.73 3.98-.73 1.67 0 3.15.99 3.79 2.53l7.66 18.49h2.3V11.5c0-2.26 1.94-4.1 6.2-4.1s5.5 1.84 5.5 4.1v38.75H51V32.87c2.42-1.14 4.64-1.3 6.9-1.3 2.26 0 4.1 1.84 4.1 4.1v16.68h3.5V37.82c2.42-1.14 4.64-1.3 6.9-1.3.14 0 .28.01.42.02a4.11 4.11 0 0 1 3.68 4.08v16.63H80V43.41c2.42-1.14 4.64-1.3 6.9-1.3.14 0 .28.01.42.02A4.11 4.11 0 0 1 91 46.21v14.58z"/></svg>