<svg id="하나카드" xmlns="http://www.w3.org/2000/svg" xmlns:xlink="http://www.w3.org/1999/xlink" width="88" height="88" viewBox="0 0 88 88">
  <defs>
    <clipPath id="clip-path">
      <rect id="사각형_16756" data-name="사각형 16756" width="88" height="88" fill="none"/>
    </clipPath>
  </defs>
  <g id="그룹_65199" data-name="그룹 65199" transform="translate(0 0)" clip-path="url(#clip-path)">
    <path id="패스_50309" data-name="패스 50309" d="M44,0A44,44,0,1,1,0,44,44,44,0,0,1,44,0" transform="translate(0 0)" fill="#008c8c"/>
    <path id="패스_50310" data-name="패스 50310" d="M45.424,38.9a10.9,10.9,0,0,0-.77-2.622,12.948,12.948,0,0,0-5.192-6.013,11.683,11.683,0,0,0-12.034.075,10.568,10.568,0,0,0-3.96,4.246,12.232,12.232,0,0,0-.752,1.857A13.046,13.046,0,0,0,23.544,46.6a5.115,5.115,0,0,0,2.42,2.116,3.54,3.54,0,0,0,3.151-.244,3.334,3.334,0,0,0,1.174-3.52,9.237,9.237,0,0,1,.117-4.915,3.743,3.743,0,0,1,.881-1.4,3.2,3.2,0,0,1,.833-.571,3.472,3.472,0,0,1,2.077-.338,3.978,3.978,0,0,1,2.787,2.276,9.246,9.246,0,0,1,.755,3.639,54.578,54.578,0,0,1-2.42,16.28c-.142.538-.291,1.072-.44,1.608-.117.413-.328.939-.063,1.342a1.057,1.057,0,0,0,.484.37,1.836,1.836,0,0,0,2-.713,29.082,29.082,0,0,0,6.623-11.59,37.44,37.44,0,0,0,1.269-4.839,21.353,21.353,0,0,0,.244-7.2" transform="translate(10.976 14.252)" fill="#fff"/>
    <path id="패스_50311" data-name="패스 50311" d="M74.823,19.168a1.38,1.38,0,0,0-1.433-1.324c-.021,0-.042,0-.063,0a7.147,7.147,0,0,0-2.238.708,90.594,90.594,0,0,1-44.578,4.21c-2.525-.365-5.085-.879-7.625-1.272-1.586-.246-3.156-.607-4.761-.728a5.734,5.734,0,0,0-4.18.8,4.4,4.4,0,0,0-.53,5.216,11.76,11.76,0,0,0,4.538,4.387,10.967,10.967,0,0,0,5.94,2.028q8.465-.539,16.879-1.634c9.569-1.243,19.6-2.42,28.576-6.124a35.937,35.937,0,0,0,8.36-4.685c.46-.343,1.116-.912,1.116-1.58" transform="translate(4.377 8.88)" fill="#fff"/>
    <path id="패스_50312" data-name="패스 50312" d="M26.053,17.4a5.512,5.512,0,0,0,11.024,0,3.136,3.136,0,0,0-.3-1.319c-.473-1-1-1.487-.953-2.688.073-1.62-2-1.64-3.12-1.64a8.09,8.09,0,0,0-3.612.722,5.5,5.5,0,0,0-3.039,4.8V17.4" transform="translate(12.966 5.847)" fill="#fff"/>
  </g>
</svg>
