<svg id="ico_small_bank1_기업은행" xmlns="http://www.w3.org/2000/svg" width="88" height="88" viewBox="0 0 88 88">
    <defs>
        <style>
            .cls-1{fill:#003c8d}
        </style>
    </defs>
    <circle id="타원_1996" data-name="타원 1996" class="cls-1" cx="44" cy="44" r="44"/>
    <g id="그룹_64925" data-name="그룹 64925" transform="translate(15.401 15.381)">
        <g id="그룹_64924" data-name="그룹 64924">
            <g id="그룹_64923" data-name="그룹 64923">
                <path id="패스_48683" data-name="패스 48683" d="M184.317 908.5a6.569 6.569 0 0 0-3.327 3.832l-10.6 31.861a6.621 6.621 0 0 0 4.191 8.379l34.76 11.67a6.634 6.634 0 0 0 8.393-4.193l10.607-31.861a6.645 6.645 0 0 0-4.2-8.386l-34.763-11.674a6.583 6.583 0 0 0-5.06.372" transform="translate(-170.049 -907.786)" style="fill:#fff"/>
                <path id="패스_48684" data-name="패스 48684" d="M200.955 938.734a18.126 18.126 0 0 1-6.969 4.858l-1.58.609v-14.76l1.555.6a18.233 18.233 0 0 1 6.994 4.842 15.978 15.978 0 0 0-7.737-23.268l-5.017-1.681a4.3 4.3 0 0 0-5.427 2.755l-10.637 31.887a4.36 4.36 0 0 0 2.79 5.475l24.126 8.057a15.981 15.981 0 0 0 1.9-19.375M187 945.115h-2.39v-16.553H187z" transform="translate(-169.697 -907.424)" style="fill:#0082d0"/>
                <path id="패스_48685" data-name="패스 48685" d="M195.951 933.125a15.936 15.936 0 0 0-4.855-3.869v7.777a15.8 15.8 0 0 0 4.855-3.908" transform="translate(-166.088 -903.745)" style="fill:#db2422"/>
                <path id="패스_48686" data-name="패스 48686" class="cls-1" d="m218.433 920.861-22.144-7.4a18.238 18.238 0 0 1 1.6 22.637 18.247 18.247 0 0 1-1.053 22.1l8.319 2.773a4.273 4.273 0 0 0 5.419-2.755l10.643-31.874a4.364 4.364 0 0 0-2.79-5.48m-5.868 23.488-2.986.016-6.152-8.282 6.245-8.271 3.021-.013-6.266 8.3z" transform="translate(-165.11 -906.719)"/>
            </g>
        </g>
    </g>
</svg>
