<svg xmlns="http://www.w3.org/2000/svg" id="prefix__ico_small_bank8_씨티은행" width="40" height="40" viewBox="0 0 40 40">
    <defs>
        <style>
            .prefix__cls-2{fill:#002069}.prefix__cls-2,.prefix__cls-3,.prefix__cls-4{fill-rule:evenodd}.prefix__cls-3{fill:#dc0016}.prefix__cls-4{fill:#fff}
        </style>
    </defs>
    <circle id="prefix__타원_69" cx="20" cy="20" r="20" fill="#056dae" data-name="타원 69"/>
    <g id="prefix__그룹_467" data-name="그룹 467" transform="translate(-259.713 -2001.576)">
        <path id="prefix__패스_927" d="M341.642 2055.314H339.2v11.964h2.446v-11.964z" class="prefix__cls-2" data-name="패스 927" transform="translate(-62.539 -37.434)"/>
        <path id="prefix__패스_928" d="M368.44 2035.862v2.243h2.06v6.749a3.3 3.3 0 0 0 .748 2.243 2.521 2.521 0 0 0 1.974.892 3.872 3.872 0 0 0 2.164-.545l.039-.02v-.039l.584-2.276-.144.092a3.527 3.527 0 0 1-1.81.6c-.761 0-1.148-.453-1.148-1.345v-6.356h2.5v-2.243h-2.5v-3.739l-2.407 1.292v2.446z" class="prefix__cls-2" data-name="패스 928" transform="translate(-87.094 -17.962)"/>
        <path id="prefix__패스_929" d="M429.355 2055.314h-2.466v11.964h2.466v-11.964z" class="prefix__cls-2" data-name="패스 929" transform="translate(-136.171 -37.434)"/>
        <path id="prefix__패스_930" d="M275.252 2056.166l-.052-.039a5.245 5.245 0 0 0-4.231-2.04 6.227 6.227 0 0 0-4.395 1.62 6.558 6.558 0 0 0 0 9.156 6.185 6.185 0 0 0 4.395 1.607 5.271 5.271 0 0 0 4.231-2.027l.052-.039-1.384-1.673-.052.053a4.084 4.084 0 0 1-2.9 1.351 3.584 3.584 0 0 1-2.682-1.1 3.727 3.727 0 0 1-1.056-2.755 3.794 3.794 0 0 1 1.056-2.774 3.643 3.643 0 0 1 2.682-1.076 4.084 4.084 0 0 1 2.9 1.351l.052.052 1.384-1.673z" class="prefix__cls-2" data-name="패스 930" transform="translate(0 -36.403)"/>
        <path id="prefix__패스_931" d="M331.816 2015.913a10.188 10.188 0 0 1 3.266-2.263 9.345 9.345 0 0 1 3.739-.761 9.554 9.554 0 0 1 3.758.761 10.378 10.378 0 0 1 3.24 2.263l.039.033h2.807l-.105-.164a12.029 12.029 0 0 0-4.29-3.712 11.783 11.783 0 0 0-10.908 0 11.953 11.953 0 0 0-4.283 3.712l-.112.164h2.833l.02-.033z" class="prefix__cls-3" data-name="패스 931" transform="translate(-53.953)"/>
        <path id="prefix__패스_932" d="M341.642 2055.314H339.2v11.964h2.446v-11.964z" class="prefix__cls-4" data-name="패스 932" transform="translate(-62.539 -37.434)"/>
        <path id="prefix__패스_933" d="M368.44 2035.862v2.243h2.06v6.749a3.3 3.3 0 0 0 .748 2.243 2.521 2.521 0 0 0 1.974.892 3.872 3.872 0 0 0 2.164-.545l.039-.02v-.039l.584-2.276-.144.092a3.527 3.527 0 0 1-1.81.6c-.761 0-1.148-.453-1.148-1.345v-6.356h2.5v-2.243h-2.5v-3.739l-2.407 1.292v2.446z" class="prefix__cls-4" data-name="패스 933" transform="translate(-87.094 -17.962)"/>
        <path id="prefix__패스_934" d="M429.355 2055.314h-2.466v11.964h2.466v-11.964z" class="prefix__cls-4" data-name="패스 934" transform="translate(-136.171 -37.434)"/>
        <path id="prefix__패스_935" d="M275.252 2056.166l-.052-.039a5.245 5.245 0 0 0-4.231-2.04 6.227 6.227 0 0 0-4.395 1.62 6.558 6.558 0 0 0 0 9.156 6.185 6.185 0 0 0 4.395 1.607 5.271 5.271 0 0 0 4.231-2.027l.052-.039-1.384-1.673-.052.053a4.084 4.084 0 0 1-2.9 1.351 3.584 3.584 0 0 1-2.682-1.1 3.727 3.727 0 0 1-1.056-2.755 3.794 3.794 0 0 1 1.056-2.774 3.643 3.643 0 0 1 2.682-1.076 4.084 4.084 0 0 1 2.9 1.351l.052.052 1.384-1.673z" class="prefix__cls-4" data-name="패스 935" transform="translate(0 -36.403)"/>
        <path id="prefix__패스_936" d="M331.816 2015.913a10.188 10.188 0 0 1 3.266-2.263 9.345 9.345 0 0 1 3.739-.761 9.554 9.554 0 0 1 3.758.761 10.378 10.378 0 0 1 3.24 2.263l.039.033h2.807l-.105-.164a12.029 12.029 0 0 0-4.29-3.712 11.783 11.783 0 0 0-10.908 0 11.953 11.953 0 0 0-4.283 3.712l-.112.164h2.833l.02-.033z" class="prefix__cls-3" data-name="패스 936" transform="translate(-53.953)"/>
    </g>
</svg>
