<svg id="ico_error_에러_아이콘" data-name="ico_error_에러 아이콘" xmlns="http://www.w3.org/2000/svg" width="43.387" height="43.387" viewBox="0 0 43.387 43.387">
    <defs>
        <style>
            .cls-2{fill:#85888d}
        </style>
    </defs>
    <g id="패스_596" data-name="패스 596" style="fill:none">
        <path d="M21.693 0A21.693 21.693 0 1 1 0 21.693 21.693 21.693 0 0 1 21.693 0z" style="stroke:none"/>
        <path d="M21.693 3A18.571 18.571 0 0 0 8.475 8.475 18.571 18.571 0 0 0 3 21.693c0 4.994 1.944 9.688 5.475 13.219a18.571 18.571 0 0 0 13.218 5.475c4.994 0 9.688-1.945 13.219-5.475a18.571 18.571 0 0 0 5.475-13.219c0-4.993-1.945-9.687-5.475-13.218A18.571 18.571 0 0 0 21.693 3m0-3c11.981 0 21.694 9.712 21.694 21.693 0 11.981-9.713 21.694-21.694 21.694C9.713 43.387 0 33.674 0 21.693 0 9.713 9.712 0 21.693 0z" style="fill:#85888d;stroke:none"/>
    </g>
    <g id="그룹_342" data-name="그룹 342" transform="rotate(180 12.337 16.114)">
        <path id="사각형_121" data-name="사각형 121" class="cls-2" d="M0 0h5.964v13.213H0z"/>
        <path id="사각형_122" data-name="사각형 122" class="cls-2" transform="translate(0 17.454)" d="M0 0h5.964v4.404H0z"/>
    </g>
</svg>
