<svg xmlns="http://www.w3.org/2000/svg" width="36" height="36"><g data-name="그룹 3671" transform="translate(-133 -1059)"><circle data-name="타원 394" cx="18" cy="18" r="18" transform="translate(133 1059)" fill="#f8f8f8"/><path d="m162.483 1083.167-4.966-4.516a1.223 1.223 0 0 0-1.7.053l-2.924 3.007a7.014 7.014 0 0 1-3.576-2.029 6.98 6.98 0 0 1-2.028-3.575l3-2.925a1.222 1.222 0 0 0 .053-1.7l-4.51-4.964a1.221 1.221 0 0 0-1.7-.106l-2.651 2.273a1.222 1.222 0 0 0-.354.793 18.452 18.452 0 0 0 5.243 13.154 18.5 18.5 0 0 0 12.714 5.251c.247 0 .4-.007.439-.01a1.211 1.211 0 0 0 .792-.356l2.273-2.653a1.218 1.218 0 0 0-.105-1.697Z" fill="#bcc1cb"/></g></svg>