<svg xmlns="http://www.w3.org/2000/svg" width="60.25" height="62.25" viewBox="0 0 60.25 62.25"><g transform="translate(230.638 -6.628)"><g transform="translate(-230.638 6.628)"><rect width="51.179" height="52.179" transform="translate(1.75 1.75)" fill="#fff"/><line x2="13.472" transform="translate(32.329 12.09)" fill="none" stroke="#ff684a" stroke-width="3"/><line x2="13.472" transform="translate(32.329 19.082)" fill="none" stroke="#ff684a" stroke-width="3"/><g transform="translate(9.448 9.401)"><path d="M-212.919,34.879A4.366,4.366,0,0,1-215.1,34.3l-3.944-2.276a4.366,4.366,0,0,1-2.177-3.772V23.7a4.365,4.365,0,0,1,2.177-3.772l3.943-2.276a4.366,4.366,0,0,1,4.356,0l3.942,2.276a4.369,4.369,0,0,1,2.177,3.772v4.553a4.368,4.368,0,0,1-2.177,3.772l-3.941,2.276A4.372,4.372,0,0,1-212.919,34.879Zm0-16.752a3.294,3.294,0,0,0-1.647.439l-3.943,2.277a3.3,3.3,0,0,0-1.647,2.853v4.553a3.3,3.3,0,0,0,1.647,2.853l3.943,2.276a3.309,3.309,0,0,0,3.293,0l3.943-2.276a3.3,3.3,0,0,0,1.649-2.853V23.7a3.3,3.3,0,0,0-1.647-2.853l-3.943-2.277A3.29,3.29,0,0,0-212.919,18.127Z" transform="translate(221.218 -17.066)" fill="#ff684a" stroke="#ff684a" stroke-width="2"/><g transform="translate(2.593 18.748)"><path d="M-218.079,47.56a.459.459,0,0,1-.278-.1.723.723,0,0,1-.253-.569V36.485a.545.545,0,0,1,.4-.656.546.546,0,0,1,.656.406.555.555,0,0,1,0,.25v9.324l4.391-2.783a.484.484,0,0,1,.662.174.512.512,0,0,1,.051.126.757.757,0,0,1-.235.9l-5.16,3.271A.446.446,0,0,1-218.079,47.56Z" transform="translate(218.625 -35.814)" fill="#ff684a" stroke="#ff684a" stroke-width="1.5"/></g><g transform="translate(7.762 18.747)"><path d="M-207.76,47.559a.449.449,0,0,1-.239-.072l-5.16-3.271a.755.755,0,0,1-.235-.9.482.482,0,0,1,.585-.352.459.459,0,0,1,.128.052l4.39,2.783V36.484a.545.545,0,0,1,.4-.656.546.546,0,0,1,.656.406.555.555,0,0,1,0,.25V46.892a.723.723,0,0,1-.253.569A.458.458,0,0,1-207.76,47.559Z" transform="translate(213.456 -35.813)" fill="#ff684a" stroke="#ff684a" stroke-width="1.5"/></g></g><path d="M-202.579,60.728h-24.552V9.955h49.437V30.4h3.507V6.628h-56.452V64.056h28.059Z" transform="translate(230.638 -6.628)" fill="#ff684a"/></g><path d="M-173.04,39.943V51.324c-.005.062-.008.126-.008.189v1.464a14.9,14.9,0,0,1-6.008,11.84l-6.487,4.885-6.511-4.922a14.881,14.881,0,0,1-5.99-11.81V39.942a32.974,32.974,0,0,0,12.5-4.293A33,33,0,0,0-173.04,39.943Z" transform="translate(0.119 -2.971)" fill="#fff"/><g transform="translate(-193.277 39.49)"><path d="M-185.633,42.467a1.251,1.251,0,0,0-.183.032,1.312,1.312,0,0,0-.178.049.986.986,0,0,0-.147.069c-.023.012-.044.025-.066.038h0a13.443,13.443,0,0,1-6.111,2.035A1.22,1.22,0,0,0-193.4,45.9v6.809a8.978,8.978,0,0,0,3.6,7.125l3.534,2.669a.914.914,0,0,0,.124.076c.025.014.051.027.077.039a1.087,1.087,0,0,0,.262.083,1.083,1.083,0,0,0,.257.032h.01a1.223,1.223,0,0,0,.723-.249l3.494-2.632a8.985,8.985,0,0,0,3.616-7.14V52.1c0-.029,0-.059,0-.088V45.9a1.225,1.225,0,0,0-1.113-1.212,13.4,13.4,0,0,1-6.047-2.011,1.208,1.208,0,0,0-.674-.214A.774.774,0,0,0-185.633,42.467Zm5.942,4.137v5.328a.869.869,0,0,0,0,.089v.685a6.978,6.978,0,0,1-2.813,5.543l-3.036,2.287-3.049-2.305a6.963,6.963,0,0,1-2.8-5.528V46.6a15.449,15.449,0,0,0,5.851-2.01A15.444,15.444,0,0,0-179.691,46.6Z" transform="translate(193.396 -42.462)" fill="#ff684a"/></g><path d="M-171.071,38.541l-.089-.1-.081-.077a1.3,1.3,0,0,0-.838-.324c-5.043,0-9.8-1.417-11.57-3.456a2.589,2.589,0,0,0-1.889-.837h-.056a2.6,2.6,0,0,0-1.93.863c-1.759,2.019-6.505,3.424-11.545,3.424a1.3,1.3,0,0,0-.832.322l-.078.073-.079.08a1.294,1.294,0,0,0-.327.847v13.4a16.385,16.385,0,0,0,6.547,12.929l7.462,5.637a1.318,1.318,0,0,0,.8.272h.019a1.322,1.322,0,0,0,.784-.265l7.472-5.641a16.4,16.4,0,0,0,6.545-12.946V39.368A1.3,1.3,0,0,0-171.071,38.541Zm-2.318,2.125V52.741a13.736,13.736,0,0,1-5.494,10.837l-6.681,5.043-6.685-5.05a13.724,13.724,0,0,1-5.488-10.821V40.661c5.441-.225,10.06-1.844,12.127-4.311,2.144,2.464,6.769,4.083,12.221,4.311Z" transform="translate(0.119 -2.971)" fill="#ff684a" stroke="#ff684a" stroke-linecap="round" stroke-linejoin="round" stroke-width="0.5"/></g></svg>