<svg id="ico_small_bank22_뱅크오브아메리카" xmlns="http://www.w3.org/2000/svg" width="36" height="36">
    <defs>
        <style>
            .cls-2{fill:#fff;fill-rule:evenodd}
        </style>
    </defs>
    <circle id="타원_88" data-name="타원 88" cx="18" cy="18" r="18" style="fill:#c70011"/>
    <g id="그룹_525" data-name="그룹 525" transform="translate(4.001 9.946)">
        <path id="패스_1520" data-name="패스 1520" class="cls-2" d="M611.8 276.224c-1.254.53-6.724 2.969-8.768 4.163-.883-.342-1.632-.591-2.657-.974a58.8 58.8 0 0 1 8.945-3.985c.869.226 1.605.583 2.48.796z" transform="translate(-600.379 -272.601)"/>
        <path id="패스_1521" data-name="패스 1521" class="cls-2" d="M634.09 284.144c-1.254.53-6.762 3.186-8.805 4.38-.953-.477-1.884-.953-2.834-1.336a84.058 84.058 0 0 1 8.734-4.224c.815.318 2.043.862 2.905 1.18z" transform="translate(-618.564 -278.811)"/>
        <path id="패스_1522" data-name="패스 1522" class="cls-2" d="M661.853 276.978a87.3 87.3 0 0 0-18.065 8.76 22.478 22.478 0 0 0-3.726-1.932c4.248-2.476 9.876-6.209 18.454-8.411 1.294.567 2.184 1.061 3.337 1.583z" transform="translate(-637.073 -272.575)"/>
        <path id="패스_1523" data-name="패스 1523" class="cls-2" d="M689.851 289.728c-1.254.53-11.733 5.537-16.816 9.963-.93-.545-2.95-2.065-3.893-2.569 4.074-2.628 9.249-6.441 17.736-9.005a23.962 23.962 0 0 1 2.973 1.611z" transform="translate(-661.032 -283.056)"/>
        <path id="패스_1524" data-name="패스 1524" class="cls-2" d="M653.936 265.032a60.083 60.083 0 0 1 7.638 2.954c-.677.369-1.592.619-2.409.959-5.43-2.276-7.633-2.945-7.735-3.024.484-.209 2.087-.749 2.506-.889z" transform="translate(-644.024 -264.037)"/>
        <path id="패스_1525" data-name="패스 1525" class="cls-2" d="M677.129 259.382a61.085 61.085 0 0 1 7.784 2.792 18.9 18.9 0 0 0-2.608.743c-5.43-2.276-7.43-2.866-7.533-2.946.487-.21 1.939-.449 2.357-.589z" transform="translate(-663.982 -259.382)"/>
    </g>
</svg>
