<svg xmlns="http://www.w3.org/2000/svg" width="36" height="36"><g data-name="그룹 57419" transform="translate(-3733 -10089)"><circle data-name="타원 1538" cx="18" cy="18" r="18" transform="translate(3733 10089)" style="fill:#f8f8f8"/><g data-name="그룹 3735"><path data-name="패스 7436" d="M1674.394 4038.021a7.462 7.462 0 0 0-7.526 7.379 7.271 7.271 0 0 0 .9 3.506l6.209 11.013a.475.475 0 0 0 .823 0l6.216-11.017a7.282 7.282 0 0 0 .9-3.5 7.463 7.463 0 0 0-7.522-7.381zm0 11.068a3.726 3.726 0 1 1 0-7.452 3.806 3.806 0 0 1 3.593 2.64 3.55 3.55 0 0 1 .17 1.123 3.73 3.73 0 0 1-3.763 3.688z" transform="translate(2076.132 6057.98)" style="fill:#bcc1cb;stroke:#bcc1cb;stroke-width:2px"/></g></g></svg>