<svg xmlns="http://www.w3.org/2000/svg" id="prefix__ico_small_bank7_SC제일은행" width="40" height="40" viewBox="0 0 40 40">
    <defs>
        <style>
            .prefix__cls-2{fill:#fff}
        </style>
    </defs>
    <circle id="prefix__타원_63" cx="20" cy="20" r="20" fill="#006cad" data-name="타원 63"/>
    <g id="prefix__그룹_466" data-name="그룹 466" transform="translate(-532.979 -1794.087)">
        <path id="prefix__패스_920" d="M548.95 1898.328a4.315 4.315 0 0 1-2.2.733 3.618 3.618 0 0 1-3.562-3.417l3.684-2.2 5.733 2.564-3.654 2.315z" class="prefix__cls-2" data-name="패스 920" transform="translate(0 -71.932)"/>
        <path id="prefix__패스_921" d="M559.843 1859.594l-2.742-1.209c-1.223-.544-2.38-1-2.38-2.348a1.865 1.865 0 0 1 .546-1.427l5.795 2.553-1.434.828c-.4.244-.673.456-.673.763 0 .329.376.61.888.84z" class="prefix__cls-2" data-name="패스 921" transform="translate(-8.701 -42.636)"/>
        <path id="prefix__패스_922" d="M562.72 1804.317l-2.807 1.7c-.253.15-.584.393-.584.765 0 .429.652.753 1.226 1.026l-3.517-1.549c-1.031-.458-2.066-.973-2.066-2.221a2.3 2.3 0 0 1 .393-1.315l7.6-4.641a3.442 3.442 0 0 1 1.793 2.959 3.636 3.636 0 0 1-2.035 3.271z" class="prefix__cls-2" data-name="패스 922" transform="translate(-8.89)"/>
        <path id="prefix__패스_923" d="M590.868 1826.662l-.7.4-5.8-2.561 6.744-4.062a3.475 3.475 0 0 1 1.8 2.959 3.556 3.556 0 0 1-2.045 3.268z" class="prefix__cls-2" data-name="패스 923" transform="translate(-31.062 -16.858)"/>
        <path id="prefix__패스_924" d="M586.817 1865.834l3.431 1.509c1.288.574 1.684 1.25 1.684 2.105a1.8 1.8 0 0 1-.669 1.308l-5.771-2.564.973-.546c.83-.456 1.1-.733 1.1-1.035s-.194-.522-.751-.777z" class="prefix__cls-2" data-name="패스 924" transform="translate(-31.912 -51.102)"/>
        <path id="prefix__패스_925" d="M562.607 1870.038a24.093 24.093 0 0 0-4.913-2.747l-8.752-3.87c-2.2-.98-3.657-2.286-3.657-4.484a4.334 4.334 0 0 1 2.38-4.023l.485-.3a1.865 1.865 0 0 0-.546 1.427c0 1.346 1.158 1.8 2.38 2.348l10.179 4.49c1.772.76 3.394 2.066 3.394 4.294a4.583 4.583 0 0 1-.949 2.868z" class="prefix__cls-2" data-name="패스 925" transform="translate(-1.583 -42.636)"/>
        <path id="prefix__패스_926" d="M562.125 1833.505l-.635.4a1.8 1.8 0 0 0 .669-1.309c0-.852-.4-1.53-1.684-2.1l-10.886-4.794c-2.2-.971-3.568-2.226-3.568-4.415a4.794 4.794 0 0 1 2.592-4.3 2.3 2.3 0 0 0-.393 1.315c0 1.248 1.035 1.764 2.066 2.221l10.582 4.67c1.926.85 3.483 2.138 3.483 4.484a4.224 4.224 0 0 1-2.227 3.842z" class="prefix__cls-2" data-name="패스 926" transform="translate(-2.138 -14.247)"/>
    </g>
</svg>
