<svg xmlns="http://www.w3.org/2000/svg" width="619.981" height="131.02" viewBox="0 0 619.981 131.02">
    <defs>
        <clipPath id="clip-path">
            <path id="사각형_13447" data-name="사각형 13447" class="cls-1" d="M0 0h619.981v113.02H0z"/>
        </clipPath>
        <clipPath id="clip-path-2">
            <path id="사각형_13809" data-name="사각형 13809" class="cls-2" d="M0 0h619.981v130.856H0z"/>
        </clipPath>
        <style>
            .cls-1{fill:#0090db}.cls-2{fill:#2767a7}
        </style>
    </defs>
    <g id="그룹_58300" data-name="그룹 58300" transform="translate(-50 -177)">
        <g id="그룹_58292" data-name="그룹 58292" transform="translate(50 195)">
            <g id="그룹_58075" data-name="그룹 58075" style="clip-path:url(#clip-path)">
                <path id="패스_48375" data-name="패스 48375" class="cls-1" d="M1.386 48.685a8.3 8.3 0 0 1 .288-2.255 3.9 3.9 0 0 1 1.106-1.8 5.691 5.691 0 0 1 2.3-1.23 13.168 13.168 0 0 1 3.774-.452h24.771a13.215 13.215 0 0 1 3.775.452 5.7 5.7 0 0 1 2.3 1.231 3.925 3.925 0 0 1 1.108 1.8 8.375 8.375 0 0 1 .288 2.255 7.457 7.457 0 0 1-.288 2.009A3.927 3.927 0 0 1 39.7 52.5a6.087 6.087 0 0 1-2.3 1.271 12.115 12.115 0 0 1-3.775.492h-4.757v22.56a32.343 32.343 0 0 0 .573 6.317 19.868 19.868 0 0 0 1.888 5.374 21.725 21.725 0 0 0 3.526 4.839 35.893 35.893 0 0 0 5.5 4.637 9.219 9.219 0 0 1 3.486 4.265 5.557 5.557 0 0 1-.78 5 6.073 6.073 0 0 1-2.173 2.091 6.393 6.393 0 0 1-2.749.78 9.265 9.265 0 0 1-1.886-.2 4.908 4.908 0 0 1-1.888-.861 39.467 39.467 0 0 1-6.685-5.826 50.221 50.221 0 0 1-5.128-6.645 42.045 42.045 0 0 1-4.922 6.973 28.389 28.389 0 0 1-6.316 5.414 10.253 10.253 0 0 1-4.922 1.559 6.778 6.778 0 0 1-2.871-.492 5.021 5.021 0 0 1-2.461-2.214 5.551 5.551 0 0 1-.78-5 9.217 9.217 0 0 1 3.487-4.266 33.394 33.394 0 0 0 5.5-4.716 22.214 22.214 0 0 0 3.527-5.052 21.693 21.693 0 0 0 1.886-5.577 33.592 33.592 0 0 0 .575-6.4V54.264h-6.4a12.1 12.1 0 0 1-3.774-.492 6.072 6.072 0 0 1-2.3-1.271 3.88 3.88 0 0 1-1.106-1.806 7.354 7.354 0 0 1-.289-2.01m48.235.083q0-4.1 2.01-5.62a7.479 7.479 0 0 1 4.636-1.518 9.425 9.425 0 0 1 2.5.328 5.1 5.1 0 0 1 2.093 1.148 6.068 6.068 0 0 1 1.475 2.215 9.089 9.089 0 0 1 .575 3.447v19.688h5.167a11.291 11.291 0 0 1 3.775.533 6.167 6.167 0 0 1 2.3 1.353 4.21 4.21 0 0 1 1.108 1.846 7.47 7.47 0 0 1 .288 2.01 8.8 8.8 0 0 1-.288 2.3 3.908 3.908 0 0 1-1.108 1.846 6.087 6.087 0 0 1-2.3 1.271 12.115 12.115 0 0 1-3.775.492H62.91V104.8a9.34 9.34 0 0 1-.575 3.527 6.047 6.047 0 0 1-1.475 2.215 5.1 5.1 0 0 1-2.093 1.148 9.7 9.7 0 0 1-5 0 5.251 5.251 0 0 1-3.61-3.363 9.995 9.995 0 0 1-.534-3.527z"/>
                <path id="패스_48376" data-name="패스 48376" class="cls-1" d="M77.924 60.5q0-9.844 4.43-14.191t14.111-4.349q9.678 0 14.11 4.349T115 60.5a29.365 29.365 0 0 1-1.108 8.7 13.239 13.239 0 0 1-3.364 5.7 12.666 12.666 0 0 1-5.783 3.077 33.637 33.637 0 0 1-8.286.9q-9.6 0-14.07-4.306T77.924 60.5M96.137 113a17.8 17.8 0 0 1-6.563-1.231 11.482 11.482 0 0 1-4.349-3.076 12.011 12.011 0 0 1-2.379-4.43 18.9 18.9 0 0 1-.737-5.374 21.61 21.61 0 0 1 .655-5.413A11.36 11.36 0 0 1 85.02 89a10.743 10.743 0 0 1 4.348-3.036 19.757 19.757 0 0 1 6.932-1.186h35.11a18.683 18.683 0 0 1 6.932 1.108 10.717 10.717 0 0 1 4.348 3.035 11.352 11.352 0 0 1 2.256 4.512 22.142 22.142 0 0 1 .655 5.455 18.9 18.9 0 0 1-.737 5.374 11.734 11.734 0 0 1-2.421 4.43 11.959 11.959 0 0 1-4.348 3.076 17.478 17.478 0 0 1-6.523 1.232zM91.3 60.5q0 4.1.943 5.824t4.225 1.724q3.279 0 4.224-1.724t.943-5.824a13.291 13.291 0 0 0-.943-5.865q-.944-1.764-4.224-1.763t-4.228 1.761a13.277 13.277 0 0 0-.94 5.867m36.586 41.51a9.77 9.77 0 0 0 3.447-.7q1.065-.536 1.065-2.421 0-1.967-1.065-2.5a9.77 9.77 0 0 0-3.447-.7H99.828a9.726 9.726 0 0 0-3.447.7q-1.066.536-1.065 2.5 0 1.887 1.065 2.421a9.748 9.748 0 0 0 3.447.7zm10.42-20.1a7.82 7.82 0 0 1-4.348-1.272q-1.97-1.271-2.3-4.881h-5.743a14.355 14.355 0 0 1-3.773-.41 5.65 5.65 0 0 1-2.3-1.147 3.671 3.671 0 0 1-1.108-1.765 8.3 8.3 0 0 1-.288-2.255 6.944 6.944 0 0 1 .288-1.969 3.926 3.926 0 0 1 1.108-1.763 5.691 5.691 0 0 1 2.3-1.231 13.161 13.161 0 0 1 3.773-.451h5.743V59.35h-5.743a14.355 14.355 0 0 1-3.773-.41 5.65 5.65 0 0 1-2.3-1.147 3.671 3.671 0 0 1-1.108-1.765 8.3 8.3 0 0 1-.288-2.255 6.944 6.944 0 0 1 .288-1.969 3.926 3.926 0 0 1 1.108-1.763 5.691 5.691 0 0 1 2.3-1.231 13.16 13.16 0 0 1 3.773-.451h5.743a8.793 8.793 0 0 1 .657-3.241 5.8 5.8 0 0 1 1.477-2.051 5.3 5.3 0 0 1 2.091-1.108 9.083 9.083 0 0 1 2.421-.328 9.425 9.425 0 0 1 2.5.328 5.1 5.1 0 0 1 2.093 1.148 6.068 6.068 0 0 1 1.475 2.215 9.089 9.089 0 0 1 .575 3.447V74.69a9.326 9.326 0 0 1-.575 3.528 6.026 6.026 0 0 1-1.475 2.215 5.074 5.074 0 0 1-2.093 1.15 9.363 9.363 0 0 1-2.5.327z"/>
                <path id="패스_48377" data-name="패스 48377" class="cls-1" d="M151.255 59.843a27.186 27.186 0 0 1 1.107-8.328 12.983 12.983 0 0 1 3.363-5.537 13.237 13.237 0 0 1 5.742-3.077 37.065 37.065 0 0 1 16.613 0 13.244 13.244 0 0 1 5.784 3.077 12.99 12.99 0 0 1 3.362 5.537 27.126 27.126 0 0 1 1.108 8.328 28.505 28.505 0 0 1-1.108 8.614 12.06 12.06 0 0 1-3.362 5.455 12.911 12.911 0 0 1-5.784 2.83 36.913 36.913 0 0 1-8.286.82 32.178 32.178 0 0 1-8.327-.943 13.439 13.439 0 0 1-5.742-3.035 12.668 12.668 0 0 1-3.363-5.456 26.758 26.758 0 0 1-1.107-8.285m9.926 21a7.524 7.524 0 0 1 4.471 1.435q2.009 1.437 2.173 5.21H204q.163-3.856 2.133-5.25a7.617 7.617 0 0 1 4.512-1.395 8.5 8.5 0 0 1 2.42.329 4.806 4.806 0 0 1 1.97 1.147 5.551 5.551 0 0 1 1.353 2.215 10.453 10.453 0 0 1 .492 3.445v19.278a14.327 14.327 0 0 1-.164 2.257 3.5 3.5 0 0 1-.861 1.8 4.678 4.678 0 0 1-2.01 1.23 11.531 11.531 0 0 1-3.61.451H161.59a11.529 11.529 0 0 1-3.609-.451 4.659 4.659 0 0 1-2.009-1.23 3.47 3.47 0 0 1-.862-1.8 14.326 14.326 0 0 1-.164-2.257V87.98q0-4.1 1.8-5.619a6.647 6.647 0 0 1 4.435-1.518m3.445-21a22.5 22.5 0 0 0 .206 3.362 5.066 5.066 0 0 0 .737 2.092 2.886 2.886 0 0 0 1.559 1.108 11.031 11.031 0 0 0 5.332 0 2.885 2.885 0 0 0 1.56-1.108 5.087 5.087 0 0 0 .738-2.092 27.728 27.728 0 0 0 0-6.727 5.461 5.461 0 0 0-.738-2.133 2.822 2.822 0 0 0-1.56-1.148 11.031 11.031 0 0 0-5.332 0 2.82 2.82 0 0 0-1.559 1.148 5.438 5.438 0 0 0-.737 2.133 22.54 22.54 0 0 0-.205 3.365zM204 97.989h-36.174v4.511H204zm-.41-32.979h-5.332a12.345 12.345 0 0 1-3.692-.451 5.057 5.057 0 0 1-2.174-1.272 4 4 0 0 1-1.026-1.845 9.685 9.685 0 0 1-.246-2.257 8.61 8.61 0 0 1 .246-2.009 4 4 0 0 1 1.026-1.845 5.408 5.408 0 0 1 2.174-1.314 11.367 11.367 0 0 1 3.692-.492h5.332v-4.757q0-4.1 2.01-5.62a7.482 7.482 0 0 1 4.634-1.518 9.425 9.425 0 0 1 2.5.328 5.078 5.078 0 0 1 2.092 1.148 6.085 6.085 0 0 1 1.477 2.215 9.069 9.069 0 0 1 .574 3.447v22.066a9.32 9.32 0 0 1-.574 3.527 6.052 6.052 0 0 1-1.477 2.215 5.055 5.055 0 0 1-2.092 1.148 9.7 9.7 0 0 1-5 0 5.259 5.259 0 0 1-3.61-3.363 9.971 9.971 0 0 1-.533-3.527z"/>
                <path id="패스_48378" data-name="패스 48378" class="cls-1" d="M225.789 48.685a8.3 8.3 0 0 1 .288-2.255 3.9 3.9 0 0 1 1.107-1.8 5.691 5.691 0 0 1 2.3-1.231 13.173 13.173 0 0 1 3.774-.452h24.775a13.2 13.2 0 0 1 3.774.452 5.7 5.7 0 0 1 2.3 1.231 3.93 3.93 0 0 1 1.108 1.8 8.375 8.375 0 0 1 .287 2.255 7.462 7.462 0 0 1-.287 2.009 3.926 3.926 0 0 1-1.108 1.806 6.1 6.1 0 0 1-2.3 1.271 12.1 12.1 0 0 1-3.774.492h-4.758v22.56a32.267 32.267 0 0 0 .574 6.317 19.866 19.866 0 0 0 1.887 5.374 21.762 21.762 0 0 0 3.527 4.839 35.893 35.893 0 0 0 5.5 4.637 9.212 9.212 0 0 1 3.486 4.265 5.553 5.553 0 0 1-.779 5 6.068 6.068 0 0 1-2.174 2.091 6.389 6.389 0 0 1-2.748.78 9.274 9.274 0 0 1-1.887-.2 4.9 4.9 0 0 1-1.887-.861 39.385 39.385 0 0 1-6.685-5.826 50.22 50.22 0 0 1-5.128-6.645 42.045 42.045 0 0 1-4.922 6.973 28.417 28.417 0 0 1-6.317 5.414 10.25 10.25 0 0 1-4.922 1.559 6.778 6.778 0 0 1-2.871-.492 5.021 5.021 0 0 1-2.461-2.214 5.554 5.554 0 0 1-.78-5 9.217 9.217 0 0 1 3.487-4.266 33.258 33.258 0 0 0 5.5-4.716A22.151 22.151 0 0 0 237.2 88.8a21.733 21.733 0 0 0 1.887-5.577 33.673 33.673 0 0 0 .574-6.4V54.264h-6.4a12.1 12.1 0 0 1-3.774-.492 6.072 6.072 0 0 1-2.3-1.271 3.89 3.89 0 0 1-1.107-1.806 7.353 7.353 0 0 1-.293-2.01m48.237.083q0-4.1 2.009-5.62a7.481 7.481 0 0 1 4.636-1.518 9.425 9.425 0 0 1 2.5.328 5.092 5.092 0 0 1 2.091 1.148 6.065 6.065 0 0 1 1.477 2.215 9.108 9.108 0 0 1 .574 3.447v19.688h5.168a11.285 11.285 0 0 1 3.774.533 6.18 6.18 0 0 1 2.3 1.353 4.21 4.21 0 0 1 1.108 1.846 7.468 7.468 0 0 1 .287 2.01 8.837 8.837 0 0 1-.287 2.3 3.924 3.924 0 0 1-1.108 1.846 6.1 6.1 0 0 1-2.3 1.271 12.1 12.1 0 0 1-3.774.492h-5.168V104.8a9.359 9.359 0 0 1-.574 3.527 6.052 6.052 0 0 1-1.477 2.215 5.092 5.092 0 0 1-2.091 1.148 9.7 9.7 0 0 1-5 0 5.245 5.245 0 0 1-3.609-3.363 9.949 9.949 0 0 1-.534-3.527z"/>
                <path id="패스_48379" data-name="패스 48379" class="cls-1" d="M321.133 62.876a8.3 8.3 0 0 1 .288-2.255 3.647 3.647 0 0 1 1.107-1.764 5.652 5.652 0 0 1 2.3-1.148 14.447 14.447 0 0 1 3.774-.41h21.492a14.455 14.455 0 0 1 3.775.41 5.671 5.671 0 0 1 2.3 1.148 3.679 3.679 0 0 1 1.107 1.764 8.375 8.375 0 0 1 .288 2.255 7.016 7.016 0 0 1-.288 1.969 3.961 3.961 0 0 1-1.107 1.764 5.691 5.691 0 0 1-2.3 1.231 13.174 13.174 0 0 1-3.775.451h-3.362v5.25q0 3.447.041 6.645a25.788 25.788 0 0 0 .82 6.193 20.2 20.2 0 0 0 2.667 5.908 23.142 23.142 0 0 0 5.577 5.7 9.7 9.7 0 0 1 3.487 4.306 5.483 5.483 0 0 1-.779 4.963 6.1 6.1 0 0 1-2.173 2.091 6.407 6.407 0 0 1-2.749.78 9.284 9.284 0 0 1-1.888-.2 4.9 4.9 0 0 1-1.886-.861 37.719 37.719 0 0 1-5.332-5.047 42.938 42.938 0 0 1-4.02-5.455 53.881 53.881 0 0 1-3.609 5.292 36.808 36.808 0 0 1-4.841 5.127 5.067 5.067 0 0 1-2.255 1.148 15.5 15.5 0 0 1-2.667.41 6.781 6.781 0 0 1-2.871-.492 5.025 5.025 0 0 1-2.461-2.214 5.3 5.3 0 0 1-.737-4.922 10.787 10.787 0 0 1 3.445-4.349 25.407 25.407 0 0 0 5.66-6.03 21.113 21.113 0 0 0 2.666-6.069 25.443 25.443 0 0 0 .78-6.276v-11.9h-5a13.171 13.171 0 0 1-3.774-.451 5.66 5.66 0 0 1-2.3-1.231 3.91 3.91 0 0 1-1.107-1.764 6.936 6.936 0 0 1-.293-1.967m4.347-16.243a8.3 8.3 0 0 1 .288-2.255 3.661 3.661 0 0 1 1.108-1.763 5.643 5.643 0 0 1 2.3-1.15 14.455 14.455 0 0 1 3.775-.41h12.8a14.443 14.443 0 0 1 3.774.41 5.656 5.656 0 0 1 2.3 1.15 3.664 3.664 0 0 1 1.107 1.763 8.336 8.336 0 0 1 .288 2.255 6.981 6.981 0 0 1-.288 1.969 3.942 3.942 0 0 1-1.107 1.764 5.707 5.707 0 0 1-2.3 1.23 13.168 13.168 0 0 1-3.774.452h-12.8a13.175 13.175 0 0 1-3.775-.452 5.707 5.707 0 0 1-2.3-1.23 3.935 3.935 0 0 1-1.108-1.764 6.947 6.947 0 0 1-.29-1.969zM362.889 86.5h-5.5a12.313 12.313 0 0 1-3.692-.452 5.336 5.336 0 0 1-2.174-1.231 3.762 3.762 0 0 1-1.026-1.8 9.72 9.72 0 0 1-.245-2.255 8.671 8.671 0 0 1 .245-2.01 3.772 3.772 0 0 1 1.026-1.806 5.719 5.719 0 0 1 2.174-1.271 11.367 11.367 0 0 1 3.692-.492h5.5V48.767q0-4.1 1.763-5.62a6.04 6.04 0 0 1 4.061-1.518 5.948 5.948 0 0 1 3.979 1.518q1.763 1.52 1.763 5.62V104.8a10.753 10.753 0 0 1-.492 3.527 6.148 6.148 0 0 1-1.271 2.215 4.239 4.239 0 0 1-1.847 1.148 7.248 7.248 0 0 1-2.133.328 7.528 7.528 0 0 1-2.216-.328 4.229 4.229 0 0 1-1.845-1.148 6.134 6.134 0 0 1-1.271-2.215 10.754 10.754 0 0 1-.492-3.527zM380.2 48.767q0-4.1 1.763-5.62a6.04 6.04 0 0 1 4.061-1.518A5.944 5.944 0 0 1 390 43.147q1.762 1.52 1.763 5.62V104.8a10.754 10.754 0 0 1-.492 3.527 6.148 6.148 0 0 1-1.271 2.211 4.251 4.251 0 0 1-1.846 1.148 7.248 7.248 0 0 1-2.133.328 7.521 7.521 0 0 1-2.215-.328 4.227 4.227 0 0 1-1.846-1.148 6.148 6.148 0 0 1-1.271-2.215 10.754 10.754 0 0 1-.492-3.527z"/>
                <path id="패스_48380" data-name="패스 48380" class="cls-1" d="M398.228 62.221q0-9.762 4.471-15.012t14.07-5.25q9.6 0 14.068 5.25t4.472 15.012q0 10.42-4.472 15.3T416.769 82.4q-9.683 0-14.11-5.169t-4.431-15.013m16.817 39.382h43.97a12.135 12.135 0 0 1 3.774.493 6.045 6.045 0 0 1 2.3 1.271 3.916 3.916 0 0 1 1.108 1.8 7.417 7.417 0 0 1 .287 2.009 8.349 8.349 0 0 1-.287 2.257 3.93 3.93 0 0 1-1.108 1.8 5.707 5.707 0 0 1-2.3 1.23 13.242 13.242 0 0 1-3.774.451H408.4a11.538 11.538 0 0 1-3.611-.451 4.656 4.656 0 0 1-2.008-1.23 3.471 3.471 0 0 1-.863-1.8 14.332 14.332 0 0 1-.163-2.257V93.722q0-4.1 2.009-5.619a7.485 7.485 0 0 1 4.635-1.518 9.385 9.385 0 0 1 2.5.329 5.078 5.078 0 0 1 2.091 1.147 6.054 6.054 0 0 1 1.478 2.215 9.1 9.1 0 0 1 .573 3.445zM411.6 62.221a31.74 31.74 0 0 0 .207 3.779 10.518 10.518 0 0 0 .737 2.952 4.36 4.36 0 0 0 1.559 1.928 5.449 5.449 0 0 0 5.332 0 4.36 4.36 0 0 0 1.559-1.928 10.6 10.6 0 0 0 .739-2.952 34.883 34.883 0 0 0 0-7.548 10.605 10.605 0 0 0-.739-2.953 4.372 4.372 0 0 0-1.559-1.928 5.459 5.459 0 0 0-5.332 0 4.372 4.372 0 0 0-1.559 1.928 10.525 10.525 0 0 0-.737 2.953 31.908 31.908 0 0 0-.207 3.769zm38.967-13.453q0-4.1 2.009-5.62a7.481 7.481 0 0 1 4.636-1.518 9.425 9.425 0 0 1 2.5.328 5.081 5.081 0 0 1 2.091 1.148 6.088 6.088 0 0 1 1.478 2.215 9.107 9.107 0 0 1 .573 3.447v32.157a9.352 9.352 0 0 1-.573 3.529 6.043 6.043 0 0 1-1.478 2.214 5.036 5.036 0 0 1-2.091 1.149 9.677 9.677 0 0 1-5 0 5.358 5.358 0 0 1-2.133-1.149 5.433 5.433 0 0 1-1.477-2.214 9.959 9.959 0 0 1-.533-3.529z"/>
                <path id="패스_48381" data-name="패스 48381" class="cls-1" d="M470.846 48.685a8.3 8.3 0 0 1 .288-2.255 3.9 3.9 0 0 1 1.107-1.8 5.691 5.691 0 0 1 2.3-1.231 13.208 13.208 0 0 1 3.774-.452h25.594a13.21 13.21 0 0 1 3.775.452 5.709 5.709 0 0 1 2.3 1.231 3.92 3.92 0 0 1 1.107 1.8 8.3 8.3 0 0 1 .288 2.255 7.379 7.379 0 0 1-.288 2.009 3.917 3.917 0 0 1-1.107 1.806 6.1 6.1 0 0 1-2.3 1.271 12.107 12.107 0 0 1-3.775.492h-5.167v22.56a30.185 30.185 0 0 0 .615 6.317 18.549 18.549 0 0 0 2.051 5.374 24.577 24.577 0 0 0 3.692 4.839 37.774 37.774 0 0 0 5.538 4.637 9.219 9.219 0 0 1 3.486 4.265 5.55 5.55 0 0 1-.78 5 6.065 6.065 0 0 1-2.173 2.091 6.389 6.389 0 0 1-2.749.78 9.265 9.265 0 0 1-1.886-.2 4.9 4.9 0 0 1-1.887-.861 40.072 40.072 0 0 1-6.932-5.99 50.077 50.077 0 0 1-5.292-6.891 41.389 41.389 0 0 1-5.125 7.216 30.831 30.831 0 0 1-6.521 5.578 10.25 10.25 0 0 1-4.922 1.559 6.781 6.781 0 0 1-2.871-.492 5.025 5.025 0 0 1-2.461-2.214 5.557 5.557 0 0 1-.78-5 9.223 9.223 0 0 1 3.487-4.266 34.914 34.914 0 0 0 5.537-4.716 24.974 24.974 0 0 0 3.692-5.046 20.123 20.123 0 0 0 2.051-5.577 31.332 31.332 0 0 0 .616-6.4V54.264h-6.809a12.1 12.1 0 0 1-3.774-.492 6.073 6.073 0 0 1-2.3-1.271 3.9 3.9 0 0 1-1.107-1.806 7.388 7.388 0 0 1-.29-2.01m53.815.083q0-4.1 2.01-5.62a7.485 7.485 0 0 1 4.635-1.518 9.425 9.425 0 0 1 2.5.328 5.08 5.08 0 0 1 2.091 1.148 6.079 6.079 0 0 1 1.478 2.215 9.107 9.107 0 0 1 .573 3.447V104.8a9.358 9.358 0 0 1-.573 3.527 6.067 6.067 0 0 1-1.478 2.215 5.08 5.08 0 0 1-2.091 1.148 9.7 9.7 0 0 1-5 0 5.253 5.253 0 0 1-3.609-3.363 9.948 9.948 0 0 1-.533-3.527z"/>
                <path id="패스_48382" data-name="패스 48382" class="cls-1" d="M547.793 61.317a25.739 25.739 0 0 1 1.107-8.1 12.558 12.558 0 0 1 3.364-5.383 13.343 13.343 0 0 1 5.742-2.992 38.1 38.1 0 0 1 16.613 0 13.356 13.356 0 0 1 5.783 2.992 12.566 12.566 0 0 1 3.363 5.383 25.712 25.712 0 0 1 1.108 8.1 27.028 27.028 0 0 1-1.108 8.375 11.677 11.677 0 0 1-3.363 5.3 13.057 13.057 0 0 1-5.783 2.751 37.867 37.867 0 0 1-8.286.8 33.073 33.073 0 0 1-8.327-.917 13.556 13.556 0 0 1-5.742-2.951 12.268 12.268 0 0 1-3.364-5.3 25.361 25.361 0 0 1-1.107-8.058m9.926 20.417a7.674 7.674 0 0 1 4.471 1.4q2.008 1.4 2.173 5.065h36.177q.164-3.749 2.133-5.1a7.771 7.771 0 0 1 4.512-1.356 8.717 8.717 0 0 1 2.42.32 4.833 4.833 0 0 1 1.969 1.116 5.359 5.359 0 0 1 1.354 2.154 9.89 9.89 0 0 1 .492 3.35v18.743a13.541 13.541 0 0 1-.164 2.194 3.341 3.341 0 0 1-.862 1.755 4.7 4.7 0 0 1-2.009 1.2 11.859 11.859 0 0 1-3.609.438H558.13a11.827 11.827 0 0 1-3.609-.438 4.687 4.687 0 0 1-2.01-1.2 3.347 3.347 0 0 1-.861-1.755 13.541 13.541 0 0 1-.164-2.194V88.674q0-3.989 1.8-5.463a6.768 6.768 0 0 1 4.434-1.476zm3.445-20.417a21.155 21.155 0 0 0 .206 3.269 4.835 4.835 0 0 0 .737 2.034 2.873 2.873 0 0 0 1.559 1.077 11.334 11.334 0 0 0 5.332 0 2.875 2.875 0 0 0 1.559-1.077 4.857 4.857 0 0 0 .739-2.034 26.219 26.219 0 0 0 0-6.54 5.219 5.219 0 0 0-.739-2.074A2.808 2.808 0 0 0 569 54.855a11.334 11.334 0 0 0-5.332 0 2.812 2.812 0 0 0-1.559 1.117 5.165 5.165 0 0 0-.737 2.074 21.173 21.173 0 0 0-.205 3.271zM600.541 98.4h-36.177v4.383h36.177zM613.2 28.173h6.777L606.681 0l-13.3 28.173h6.756v21.941c0 .146-.014.284-.014.436v4.625h-5.332a11.671 11.671 0 0 0-3.692.479 5.442 5.442 0 0 0-2.173 1.277 3.85 3.85 0 0 0-1.026 1.794 8.1 8.1 0 0 0-.246 1.954 9.151 9.151 0 0 0 .246 2.194 3.837 3.837 0 0 0 1.026 1.794A5.1 5.1 0 0 0 591.1 65.9a12.636 12.636 0 0 0 3.692.438h5.332V72a9.416 9.416 0 0 0 .533 3.43 5.264 5.264 0 0 0 1.476 2.153 5.427 5.427 0 0 0 2.133 1.117 9.631 9.631 0 0 0 2.5.319 10.08 10.08 0 0 0 1.139-.071 9.15 9.15 0 0 0 1.363-.248 5.11 5.11 0 0 0 2.093-1.117 5.859 5.859 0 0 0 1.477-2.153 8.863 8.863 0 0 0 .574-3.43v-8.007c0-3.976-.017-7.941-.086-11.917 0-3.949-.129-7.9-.127-11.841V28.173"/>
            </g>
        </g>
        <g id="그룹_58299" data-name="그룹 58299" transform="translate(50 177)" style="clip-path:url(#clip-path-2)">
            <path id="패스_48545" data-name="패스 48545" class="cls-2" d="M16.552 3.132v3.456a24.827 24.827 0 0 1-.954 7.164 22.082 22.082 0 0 1-2.574 5.67 21.86 21.86 0 0 1-3.8 4.446A37.665 37.665 0 0 1 4.6 27.4l-2.736-2.7a42.6 42.6 0 0 0 3.942-3.33 18.992 18.992 0 0 0 3.078-3.834 17.4 17.4 0 0 0 1.98-4.842 25.461 25.461 0 0 0 .648-6.39h-7.2a1.3 1.3 0 0 1-1.152-.472 1.848 1.848 0 0 1-.324-1.08 2.024 2.024 0 0 1 .324-1.116 1.262 1.262 0 0 1 1.152-.5zM30.736 32.8A1.266 1.266 0 0 1 30 34a3.7 3.7 0 0 1-1.71.378A3.4 3.4 0 0 1 26.65 34a1.273 1.273 0 0 1-.7-1.206V16.776h-2.594v15.66a1.312 1.312 0 0 1-.7 1.224 3.354 3.354 0 0 1-1.674.4 3.178 3.178 0 0 1-1.62-.4 1.317 1.317 0 0 1-.684-1.224V1.4h4.68V13h2.592V1.08h4.788z"/>
            <path id="패스_48546" data-name="패스 48546" class="cls-2" d="M45.352 1.836a10.63 10.63 0 0 1 4.05.7 7.774 7.774 0 0 1 2.808 1.89A7.687 7.687 0 0 1 53.848 7.2a10.193 10.193 0 0 1 .54 3.312 10.407 10.407 0 0 1-.54 3.383 7.509 7.509 0 0 1-1.638 2.755 7.7 7.7 0 0 1-2.81 1.85 10.881 10.881 0 0 1-4.05.683 10.664 10.664 0 0 1-3.978-.683 7.884 7.884 0 0 1-2.826-1.854 7.588 7.588 0 0 1-1.672-2.746 10.1 10.1 0 0 1-.558-3.383 10.007 10.007 0 0 1 .558-3.348 7.642 7.642 0 0 1 1.692-2.772 7.989 7.989 0 0 1 2.826-1.873 10.543 10.543 0 0 1 3.96-.683m3.924 8.676A10.743 10.743 0 0 0 49.06 8.3a5.571 5.571 0 0 0-.666-1.764 3.176 3.176 0 0 0-1.206-1.152 3.774 3.774 0 0 0-1.836-.414 4.025 4.025 0 0 0-1.944.414 3.046 3.046 0 0 0-1.188 1.15 5.271 5.271 0 0 0-.612 1.766 12.824 12.824 0 0 0-.18 2.214 12.512 12.512 0 0 0 .18 2.2 5.262 5.262 0 0 0 .612 1.746 3.177 3.177 0 0 0 1.188 1.17 3.886 3.886 0 0 0 1.944.432 3.623 3.623 0 0 0 1.854-.432 3.464 3.464 0 0 0 1.206-1.189 5.247 5.247 0 0 0 .666-1.763 11.2 11.2 0 0 0 .2-2.16m-6.7 23.4V22.752h5.148v7.956h11.45a17.451 17.451 0 0 0 5.472-.9l.432 2.844a7.2 7.2 0 0 1-1.17.522 11.983 11.983 0 0 1-1.4.4q-.738.162-1.476.252a11.225 11.225 0 0 1-1.35.09zM59.14 1.08h5.076v22.464a1.289 1.289 0 0 1-.81 1.223 3.989 3.989 0 0 1-1.782.4 3.687 3.687 0 0 1-1.71-.4 1.292 1.292 0 0 1-.774-1.223z"/>
            <path id="패스_48547" data-name="패스 48547" class="cls-2" d="M66.772 24.912a34.861 34.861 0 0 0 4.842-5.689 31.157 31.157 0 0 0 3.06-5.706 26.5 26.5 0 0 0 1.584-5.544 32.051 32.051 0 0 0 .45-5.237h5.472a37.821 37.821 0 0 1-.4 5.13A24.91 24.91 0 0 1 80.02 14q1.044.936 2.232 2.124t2.34 2.519q1.152 1.333 2.178 2.737a28.508 28.508 0 0 1 1.782 2.736L86 26.063q-1.84-2.163-3.946-4.229a35.136 35.136 0 0 0-4.23-3.582 31.035 31.035 0 0 1-3.438 4.448 42.232 42.232 0 0 1-4.842 4.445zm33.552-7.668h-4.9V32.8a1.258 1.258 0 0 1-.788 1.2 4.043 4.043 0 0 1-1.764.378A3.927 3.927 0 0 1 91.126 34a1.26 1.26 0 0 1-.774-1.206V1.08h5.076v12.851h4.9z"/>
            <path id="패스_48548" data-name="패스 48548" class="cls-2" d="M112.024 1.4a12.043 12.043 0 0 1 3.6.486 8.2 8.2 0 0 1 2.628 1.332A6.771 6.771 0 0 1 119.98 5.2a7.9 7.9 0 0 1 .9 2.43h5.292V1.08h5.076v15.227a1.292 1.292 0 0 1-.81 1.225 4 4 0 0 1-1.782.4 3.7 3.7 0 0 1-1.71-.4 1.3 1.3 0 0 1-.774-1.225V10.8h-5.22a7.661 7.661 0 0 1-.864 2.538 6.711 6.711 0 0 1-1.746 2.034 8.449 8.449 0 0 1-2.664 1.368 11.95 11.95 0 0 1-3.654.5 11.448 11.448 0 0 1-4-.63 7.976 7.976 0 0 1-2.808-1.71 6.984 6.984 0 0 1-1.674-2.52 8.394 8.394 0 0 1-.558-3.06 8.3 8.3 0 0 1 .558-3.024 6.975 6.975 0 0 1 1.674-2.52 8.142 8.142 0 0 1 2.826-1.728 11.2 11.2 0 0 1 3.978-.648m3.924 7.92a5.763 5.763 0 0 0-.936-3.6 3.573 3.573 0 0 0-2.988-1.188 3.535 3.535 0 0 0-3.078 1.188 6.226 6.226 0 0 0-.846 3.6 6.24 6.24 0 0 0 .846 3.582 4.415 4.415 0 0 0 6.084-.018 5.872 5.872 0 0 0 .918-3.564m-6.516 10.4h5v4.248h11.852v-4.241h4.932v9.865a3.181 3.181 0 0 1-.846 2.268 6.1 6.1 0 0 1-2.3 1.458 14.961 14.961 0 0 1-3.4.81 36.947 36.947 0 0 1-4.1.288q-.756 0-2.088-.054t-2.9-.234q-1.566-.18-3.186-.45a20.389 20.389 0 0 1-2.952-.7zm16.848 7.309h-11.84v3.708a10.476 10.476 0 0 0 1.422.233q.846.09 1.71.145t1.638.072q.774.018 1.278.018 1.044-.037 2.07-.09a13.364 13.364 0 0 0 1.854-.216 4.7 4.7 0 0 0 1.35-.45.856.856 0 0 0 .522-.756z"/>
            <path id="패스_48549" data-name="패스 48549" class="cls-2" d="M134.919 24.552a22.508 22.508 0 0 0 4.248-4.5 22.95 22.95 0 0 0 3.906-9.468 34.466 34.466 0 0 0 .45-4.284h-5.8a1.163 1.163 0 0 1-1.08-.468 2.007 2.007 0 0 1-.288-1.08 2.2 2.2 0 0 1 .288-1.116 1.135 1.135 0 0 1 1.08-.5h17.532V6.3h-6.48q-.036 1.728-.252 3.654A24.526 24.526 0 0 1 147.7 14q1.006.974 2.2 2.233t2.322 2.628q1.134 1.368 2.178 2.807t1.8 2.736l-2.6 2.02a47.9 47.9 0 0 0-3.78-4.248 43.057 43.057 0 0 0-4.1-3.636 26.17 26.17 0 0 1-3.2 4.374 31.358 31.358 0 0 1-4.9 4.338zm32.472-8.208h-4.9V32.8a1.26 1.26 0 0 1-.791 1.2 4.043 4.043 0 0 1-1.764.378 3.927 3.927 0 0 1-1.743-.378 1.26 1.26 0 0 1-.774-1.206V1.08h5.076v11.952h4.9z"/>
            <path id="패스_48550" data-name="패스 48550" class="cls-2" d="M198.388 32.8a1.266 1.266 0 0 1-.738 1.2 3.7 3.7 0 0 1-1.71.378A3.4 3.4 0 0 1 194.3 34a1.273 1.273 0 0 1-.7-1.206V16.7h-2.844v15.736a1.312 1.312 0 0 1-.7 1.224 3.354 3.354 0 0 1-1.674.4 3.178 3.178 0 0 1-1.62-.4 1.319 1.319 0 0 1-.684-1.224V24.66a16.9 16.9 0 0 1-3.258.865 20.68 20.68 0 0 1-3.366.287 37.779 37.779 0 0 1-4.014-.234 20.608 20.608 0 0 1-4.338-.954V3.132h12.636v3.06h-7.56V22.1a8.638 8.638 0 0 0 1.908.36q.972.073 1.908.072a22.97 22.97 0 0 0 2.862-.2 19.354 19.354 0 0 0 3.222-.7V1.4h4.68v11.52h2.842V1.08h4.788z"/>
            <path id="패스_48551" data-name="패스 48551" class="cls-2" d="M229.707 20.448v4.537a3.519 3.519 0 0 1-1.188 2.969 5.3 5.3 0 0 1-3.312.918H212.1v2.34h12.924a16.528 16.528 0 0 0 4.9-.935l.432 2.807a5.924 5.924 0 0 1-1.3.558 12.73 12.73 0 0 1-1.584.378q-.828.143-1.638.217t-1.458.071h-17.385v-8.5h16.956a.516.516 0 0 0 .522-.27 1.473 1.473 0 0 0 .126-.63v-1.364h-16.38a1.35 1.35 0 0 1-1.1-.45 1.6 1.6 0 0 1-.378-1.062 1.742 1.742 0 0 1 .378-1.1 1.31 1.31 0 0 1 1.1-.486h7.524V18.4h-11.916a1.379 1.379 0 0 1-1.188-.486 1.8 1.8 0 0 1-.36-1.1 1.823 1.823 0 0 1 .36-1.079 1.36 1.36 0 0 1 1.188-.505h30.24v3.17h-13.14v2.052zM207.639 6.3a1.4 1.4 0 0 1-1.188-.468 1.72 1.72 0 0 1-.36-1.08 1.879 1.879 0 0 1 .36-1.116 1.359 1.359 0 0 1 1.188-.5h8.208V0h5.4v3.132h9V6.3h-9.54c-.048.12-.1.229-.144.324l-.144.288q1.4.5 2.97 1.17t3.024 1.386q1.458.72 2.664 1.422a11.929 11.929 0 0 1 1.818 1.242l-1.62 2.448q-1.152-.648-2.592-1.278t-3.006-1.188q-1.566-.558-3.168-1.043t-3.114-.847a19.378 19.378 0 0 1-2.556 1.566 30.554 30.554 0 0 1-2.79 1.26q-1.422.558-2.808.99t-2.61.756l-1.3-2.88q1.152-.395 2.466-.882a26.235 26.235 0 0 0 2.61-1.133 15.99 15.99 0 0 0 2.466-1.531 9.082 9.082 0 0 0 2-2.07z"/>
            <path id="패스_48552" data-name="패스 48552" class="cls-2" d="M259.622 30.456h-5.364v-20.7a20.125 20.125 0 0 1-2.322.936q-1.278.43-2.466.72l-1.116-3.6a24.928 24.928 0 0 0 4.68-1.872 22.285 22.285 0 0 0 4.032-2.7h2.556z"/>
            <path id="패스_48553" data-name="패스 48553" class="cls-2" d="M280.539 30.456h-5.365v-20.7a20.179 20.179 0 0 1-2.321.936q-1.279.43-2.466.72l-1.116-3.6a24.955 24.955 0 0 0 4.68-1.872 22.276 22.276 0 0 0 4.031-2.7h2.557z"/>
            <path id="패스_48554" data-name="패스 48554" class="cls-2" d="M296.126 27.647a6.474 6.474 0 0 0 2.268-.413 4.052 4.052 0 0 0 1.837-1.35 5.208 5.208 0 0 0 .935-2.161 20.591 20.591 0 0 0 .287-3.527 13.5 13.5 0 0 1-2.088.7 9.861 9.861 0 0 1-2.483.307 13.219 13.219 0 0 1-3.42-.414 7.794 7.794 0 0 1-2.736-1.315 6.819 6.819 0 0 1-2.034-3.023 12.066 12.066 0 0 1-.738-4.248q0-4.9 2.484-7.128a7.545 7.545 0 0 1 2.934-1.6 13.1 13.1 0 0 1 3.654-.485 14.584 14.584 0 0 1 4.338.63 6.577 6.577 0 0 1 3.257 2.142 9.519 9.519 0 0 1 1.819 4.41 39.734 39.734 0 0 1 .451 6.462q0 2.088-.109 3.87a23.3 23.3 0 0 1-.415 3.276 11.4 11.4 0 0 1-.88 2.682 7.312 7.312 0 0 1-1.512 2.088 7.214 7.214 0 0 1-3.188 1.818 15.157 15.157 0 0 1-4.337.594 20.276 20.276 0 0 1-3.618-.324 18.52 18.52 0 0 1-3.51-1.008l.54-3.277a22.282 22.282 0 0 0 3.348.955 15.029 15.029 0 0 0 2.916.341m1.26-9.611a6.788 6.788 0 0 0 2.142-.378 7.011 7.011 0 0 0 1.962-.99v-3.06a25.85 25.85 0 0 0-.2-3.421 5.2 5.2 0 0 0-.881-2.411 3.747 3.747 0 0 0-1.421-1.206 4.085 4.085 0 0 0-1.747-.378 4.927 4.927 0 0 0-1.6.252 2.751 2.751 0 0 0-1.278.936 5.246 5.246 0 0 0-.828 1.763 10.6 10.6 0 0 0-.324 2.881 8.329 8.329 0 0 0 .972 4.608 3.618 3.618 0 0 0 3.2 1.4"/>
        </g>
    </g>
</svg>
