<?xml version="1.0" encoding="utf-8"?>
<!-- Generator: Adobe Illustrator 25.4.0, SVG Export Plug-In . SVG Version: 6.00 Build 0)  -->
<svg version="1.2" baseProfile="tiny" id="레이어_1"
	 xmlns="http://www.w3.org/2000/svg" xmlns:xlink="http://www.w3.org/1999/xlink" x="0px" y="0px" viewBox="0 0 393.93 106.18"
	 overflow="visible" xml:space="preserve">
<g>
	<path fill="#1A1A1A" d="M2.73,11.56c0-1.8,0.31-3.32,0.92-4.57c0.61-1.24,1.47-2.26,2.56-3.06C7.31,3.14,8.64,2.56,10.2,2.2
		c1.56-0.36,3.29-0.54,5.18-0.54c1.89,0,3.61,0.18,5.17,0.54c1.56,0.36,2.89,0.94,3.98,1.73c1.09,0.79,1.95,1.82,2.56,3.06
		c0.61,1.25,0.92,2.77,0.92,4.57v1.22c0,1.8-0.31,3.32-0.92,4.57c-0.62,1.25-1.47,2.27-2.56,3.06c-1.1,0.79-2.42,1.37-3.98,1.73
		c-1.56,0.36-3.29,0.54-5.17,0.54c-1.89,0-3.62-0.18-5.18-0.54c-1.56-0.36-2.89-0.94-3.98-1.73c-1.1-0.79-1.95-1.81-2.56-3.06
		c-0.62-1.25-0.92-2.77-0.92-4.57V11.56z M10.88,43.42c-1.02,0-1.93-0.17-2.72-0.5c-0.8-0.33-1.46-0.78-2-1.35
		C5.61,41,5.2,40.35,4.91,39.62c-0.29-0.73-0.43-1.51-0.43-2.32v-0.54c0-1.62,0.55-2.91,1.64-3.87c1.09-0.96,2.68-1.44,4.75-1.44
		h21.73v-1.17c0-0.27-0.04-0.46-0.14-0.56c-0.09-0.11-0.29-0.16-0.58-0.16H7.45c-0.87,0-1.5-0.27-1.89-0.81
		c-0.39-0.54-0.58-1.15-0.58-1.84c0-0.63,0.19-1.22,0.58-1.78c0.39-0.56,1.02-0.83,1.89-0.83h28.8c2.01,0,3.43,0.35,4.25,1.04
		c0.82,0.69,1.24,1.92,1.24,3.69v7.2H14.97c-0.33,0-0.58,0.08-0.74,0.25c-0.17,0.17-0.25,0.37-0.25,0.61v0.13
		c0,0.24,0.08,0.44,0.25,0.61c0.16,0.17,0.41,0.25,0.74,0.25h25.38c0.9,0,1.55,0.29,1.96,0.85c0.41,0.57,0.61,1.2,0.61,1.89
		c0,0.63-0.2,1.22-0.59,1.78c-0.39,0.55-1.05,0.83-1.98,0.83H10.88z M11.59,13.09c0,1.14,0.34,1.97,1.01,2.48
		c0.67,0.51,1.6,0.76,2.77,0.76c1.17,0,2.09-0.25,2.77-0.76c0.68-0.51,1.01-1.33,1.01-2.48v-1.84c0-1.11-0.34-1.93-1.01-2.45
		C17.47,8.27,16.54,8,15.38,8c-1.17,0-2.09,0.26-2.77,0.79c-0.68,0.52-1.01,1.34-1.01,2.45V13.09z M32.52,5.62
		c0-1.47,0.44-2.58,1.33-3.33c0.88-0.75,1.93-1.13,3.13-1.13c1.17,0,2.21,0.38,3.1,1.15c0.9,0.76,1.35,1.87,1.35,3.31v2.79h1.4
		c0.69,0,1.26,0.11,1.71,0.34c0.45,0.23,0.81,0.53,1.08,0.9c0.27,0.38,0.46,0.79,0.58,1.24c0.12,0.45,0.18,0.9,0.18,1.35
		c0,0.45-0.06,0.91-0.18,1.37c-0.12,0.47-0.31,0.88-0.58,1.24c-0.27,0.36-0.64,0.65-1.1,0.88c-0.47,0.22-1.03,0.34-1.69,0.34h-1.4
		v6.8h-8.91V5.62z"/>
	<path fill="#1A1A1A" d="M53.58,41.49c-1.32,0-2.4-0.12-3.24-0.36c-0.84-0.24-1.5-0.63-1.98-1.17c-0.48-0.54-0.82-1.24-1.01-2.09
		c-0.2-0.85-0.29-1.9-0.29-3.13V6.79c0-1.53,0.41-2.64,1.24-3.33c0.82-0.69,1.9-1.04,3.22-1.04c1.29,0,2.32,0.35,3.1,1.06
		c0.78,0.71,1.17,1.81,1.17,3.31v6.97h7.61V6.79c0-1.53,0.4-2.64,1.19-3.33c0.79-0.69,1.84-1.04,3.13-1.04
		c1.32,0,2.37,0.35,3.15,1.06c0.78,0.71,1.17,1.81,1.17,3.31v34.7H53.58z M63.39,34.15V21.01h-7.61v11.97
		c0,0.51,0.08,0.83,0.25,0.97c0.16,0.13,0.5,0.2,1.01,0.2H63.39z M76.53,5.53c0-1.44,0.45-2.53,1.35-3.26c0.9-0.73,1.94-1.1,3.1-1.1
		c0.57,0,1.12,0.1,1.67,0.29c0.54,0.2,1.01,0.47,1.42,0.83s0.73,0.81,0.99,1.35c0.25,0.54,0.38,1.17,0.38,1.89v11.38h1.48
		c0.69,0,1.26,0.12,1.71,0.36c0.45,0.24,0.81,0.55,1.08,0.92c0.27,0.38,0.46,0.8,0.58,1.26c0.12,0.47,0.18,0.92,0.18,1.37
		s-0.06,0.91-0.18,1.37c-0.12,0.47-0.31,0.89-0.58,1.26s-0.64,0.68-1.1,0.92c-0.47,0.24-1.03,0.36-1.69,0.36h-1.48v18.67h-8.91V5.53
		z"/>
	<path fill="#1A1A1A" d="M107.81,12.5v0.81c0,0.42-0.02,0.81-0.05,1.17c-0.03,0.36-0.08,0.72-0.13,1.08c3.33,0.15,5.8,1.14,7.4,2.97
		c1.6,1.83,2.38,4.71,2.32,8.64h-8.33c0.09-1.74-0.22-3.07-0.92-4c-0.71-0.93-1.63-1.41-2.77-1.44c-1.32,1.89-2.97,3.3-4.95,4.23
		c-1.98,0.93-4.04,1.42-6.17,1.49c-1.11,0.03-2.05-0.25-2.81-0.86c-0.76-0.6-1.15-1.41-1.15-2.43c0-1.05,0.26-1.86,0.79-2.43
		c0.52-0.57,1.24-0.93,2.14-1.08c2.01-0.33,3.55-1.14,4.61-2.43c1.06-1.29,1.6-2.92,1.6-4.9V12.5h-5.62c-0.54,0-1.01-0.1-1.42-0.31
		c-0.41-0.21-0.74-0.49-1.01-0.83c-0.27-0.34-0.48-0.72-0.63-1.12c-0.15-0.41-0.23-0.82-0.23-1.24c0-0.39,0.06-0.8,0.18-1.24
		c0.12-0.43,0.31-0.83,0.58-1.19c0.27-0.36,0.61-0.65,1.03-0.88c0.42-0.22,0.92-0.34,1.49-0.34h5.49V5.08
		c0-1.35,0.38-2.35,1.12-2.99c0.75-0.65,1.83-0.97,3.24-0.97c1.41,0,2.5,0.32,3.26,0.97c0.77,0.65,1.15,1.64,1.15,2.99v0.27h5.67
		c0.57,0,1.06,0.11,1.48,0.34c0.42,0.22,0.77,0.52,1.04,0.88c0.27,0.36,0.46,0.76,0.58,1.19c0.12,0.43,0.18,0.85,0.18,1.24
		c0,0.42-0.08,0.83-0.23,1.24c-0.15,0.41-0.36,0.78-0.63,1.12c-0.27,0.35-0.61,0.62-1.01,0.83c-0.41,0.21-0.88,0.31-1.42,0.31
		H107.81z M99.84,43.42c-1.26,0-2.3-0.12-3.13-0.36c-0.83-0.24-1.48-0.62-1.96-1.12c-0.48-0.51-0.82-1.18-1.01-2.02
		c-0.2-0.84-0.29-1.86-0.29-3.06v-3.33c0-1.53,0.46-2.62,1.37-3.28s2-0.99,3.26-0.99c1.26,0,2.32,0.33,3.19,0.99
		s1.31,1.75,1.31,3.28v1.8c0,0.51,0.07,0.83,0.23,0.94c0.15,0.12,0.48,0.18,0.99,0.18h24.44c1.38,0,2.35,0.35,2.93,1.06
		c0.57,0.71,0.85,1.51,0.85,2.41c0,0.93-0.29,1.75-0.88,2.45s-1.55,1.06-2.9,1.06H99.84z M121.89,19.16h-2.56
		c-1.35,0-2.29-0.36-2.81-1.08c-0.53-0.72-0.79-1.54-0.79-2.47c0-0.45,0.06-0.88,0.18-1.31c0.12-0.42,0.32-0.8,0.59-1.15
		c0.27-0.34,0.64-0.61,1.1-0.81c0.46-0.2,1.04-0.29,1.73-0.29h2.56V5.53c0-1.44,0.45-2.53,1.35-3.26c0.9-0.73,1.93-1.1,3.1-1.1
		c0.57,0,1.12,0.1,1.66,0.29c0.54,0.2,1.02,0.47,1.44,0.83c0.42,0.36,0.76,0.81,1.01,1.35c0.25,0.54,0.38,1.17,0.38,1.89v27.45
		h-8.96V19.16z"/>
	<path fill="#1A1A1A" d="M139.98,8.99c-1.47,0-2.53-0.34-3.17-1.04c-0.65-0.69-0.97-1.56-0.97-2.61c0-0.96,0.31-1.79,0.94-2.5
		c0.63-0.7,1.69-1.06,3.19-1.06h27.68c1.08,0,2,0.07,2.77,0.2c0.77,0.14,1.39,0.38,1.87,0.74c0.48,0.36,0.83,0.85,1.06,1.46
		c0.23,0.62,0.34,1.39,0.34,2.32v2.61c0,1.8-0.13,3.35-0.4,4.63c-0.27,1.29-0.62,2.39-1.04,3.29h0.13c0.69,0,1.27,0.11,1.76,0.34
		c0.48,0.22,0.87,0.51,1.17,0.85c0.3,0.35,0.52,0.74,0.65,1.19c0.14,0.45,0.2,0.9,0.2,1.35c0,0.93-0.29,1.77-0.88,2.52
		c-0.58,0.75-1.55,1.12-2.9,1.12h-12.69v3.65h8.15c1.35,0,2.44,0.11,3.29,0.31c0.84,0.21,1.49,0.58,1.96,1.1
		c0.46,0.53,0.78,1.22,0.94,2.09c0.16,0.87,0.25,1.95,0.25,3.24v8.59h-9v-7.38c0-0.66-0.33-0.99-0.99-0.99h-24.71
		c-1.23,0-2.17-0.33-2.81-0.99c-0.65-0.66-0.97-1.5-0.97-2.52c0-1.02,0.32-1.85,0.97-2.5c0.64-0.65,1.58-0.97,2.81-0.97h10.8v-3.65
		h-12.55c-1.35,0-2.32-0.37-2.9-1.12c-0.58-0.75-0.88-1.59-0.88-2.52c0-0.45,0.07-0.9,0.2-1.35c0.13-0.45,0.35-0.85,0.65-1.19
		c0.3-0.34,0.69-0.63,1.17-0.85c0.48-0.23,1.06-0.34,1.76-0.34h25.56c0.42-0.96,0.75-1.99,0.99-3.08c0.24-1.09,0.36-2.24,0.36-3.44
		V9.99c0-0.66-0.38-0.99-1.12-0.99H139.98z"/>
	<path fill="#1A1A1A" d="M204.92,13.45c0,1.8-0.04,3.53-0.13,5.17c-0.09,1.65-0.24,3.24-0.45,4.77c1.29,0.63,2.44,1.4,3.44,2.32
		s1.83,2.06,2.48,3.44c0.64,1.38,1.1,3.01,1.37,4.9c0.27,1.89,0.32,4.13,0.13,6.71h-7.88c0.36-2.19,0.43-4.03,0.2-5.51
		c-0.23-1.49-0.73-2.71-1.51-3.67c-0.75,2.22-1.69,4.12-2.81,5.69s-2.5,2.75-4.12,3.53c-0.51,0.24-1.04,0.41-1.6,0.52
		c-0.56,0.11-1.1,0.13-1.62,0.07c-0.52-0.06-1.01-0.2-1.46-0.4c-0.45-0.21-0.81-0.53-1.08-0.95c-0.54-0.81-0.75-1.72-0.63-2.75
		c0.12-1.02,0.63-1.86,1.53-2.52c1.17-0.84,2.14-1.81,2.93-2.9c0.78-1.09,1.41-2.46,1.89-4.1c0.48-1.63,0.83-3.61,1.06-5.92
		c0.23-2.31,0.34-5.12,0.34-8.42h-4.41c-0.54,0-1.01-0.11-1.42-0.34c-0.41-0.22-0.74-0.52-1.01-0.88c-0.27-0.36-0.48-0.77-0.63-1.22
		c-0.15-0.45-0.23-0.88-0.23-1.3c0-0.42,0.06-0.85,0.18-1.3c0.12-0.45,0.31-0.86,0.58-1.21c0.27-0.36,0.61-0.65,1.04-0.88
		c0.42-0.22,0.91-0.34,1.48-0.34h4.23V5.35c0-1.35,0.34-2.39,1.04-3.13c0.69-0.74,1.71-1.1,3.06-1.1c1.38,0,2.42,0.38,3.13,1.13
		c0.7,0.75,1.06,1.79,1.06,3.1v0.63h3.74c0.57,0,1.06,0.11,1.49,0.34c0.42,0.23,0.76,0.52,1.04,0.88c0.27,0.36,0.46,0.76,0.58,1.21
		c0.12,0.45,0.18,0.88,0.18,1.3c0,0.42-0.08,0.86-0.22,1.3c-0.15,0.45-0.36,0.86-0.63,1.22c-0.27,0.36-0.61,0.65-1.01,0.88
		c-0.41,0.23-0.88,0.34-1.42,0.34H204.92z M223.46,24.83h-2.21v18.58h-7.88V4.99c0-1.26,0.4-2.21,1.19-2.86s1.72-0.97,2.77-0.97
		c1.02,0,1.93,0.32,2.72,0.97s1.19,1.6,1.19,2.86v12.46h2.21V4.99c0-1.26,0.41-2.21,1.21-2.86c0.81-0.65,1.74-0.97,2.79-0.97
		c0.51,0,1,0.08,1.49,0.25c0.48,0.17,0.91,0.41,1.28,0.74s0.67,0.73,0.9,1.19c0.22,0.46,0.34,1.01,0.34,1.64v38.43h-8.01V24.83z"/>
	<path fill="#1A1A1A" d="M242.22,19.7v-3.01c-2.31-0.27-4.04-1.09-5.2-2.45c-1.16-1.36-1.73-3.01-1.73-4.93V9.22
		c0-1.08,0.18-2.08,0.54-2.99c0.36-0.92,0.9-1.71,1.62-2.38c0.72-0.67,1.62-1.2,2.7-1.58s2.33-0.56,3.74-0.56h22.23
		c1.41,0,2.65,0.19,3.73,0.56s1.98,0.9,2.7,1.58s1.26,1.47,1.62,2.38c0.36,0.92,0.54,1.91,0.54,2.99v0.09
		c0,1.92-0.58,3.56-1.73,4.93c-1.16,1.37-2.89,2.18-5.2,2.45v3.01h4.77c1.29,0,2.2,0.34,2.72,1.04c0.52,0.69,0.79,1.46,0.79,2.29
		c0,0.87-0.27,1.64-0.81,2.29c-0.54,0.66-1.44,0.99-2.7,0.99h-35.1c-1.26,0-2.16-0.33-2.7-0.99c-0.54-0.66-0.81-1.42-0.81-2.29
		c0-0.84,0.26-1.6,0.79-2.29c0.52-0.69,1.43-1.04,2.72-1.04H242.22z M266.16,28.34c1.41,0,2.64,0.2,3.69,0.58
		c1.05,0.39,1.93,0.92,2.63,1.6c0.7,0.67,1.23,1.48,1.58,2.41c0.34,0.93,0.52,1.94,0.52,3.02s-0.17,2.08-0.52,3.01
		c-0.35,0.93-0.87,1.73-1.58,2.41c-0.71,0.68-1.58,1.21-2.63,1.6c-1.05,0.39-2.28,0.58-3.69,0.58h-22.32c-1.41,0-2.65-0.2-3.71-0.58
		s-1.94-0.92-2.63-1.6c-0.69-0.67-1.21-1.48-1.55-2.41c-0.35-0.93-0.52-1.93-0.52-3.01s0.17-2.08,0.52-3.02
		c0.34-0.93,0.86-1.73,1.55-2.41c0.69-0.67,1.57-1.21,2.63-1.6c1.06-0.39,2.3-0.58,3.71-0.58H266.16z M244.38,9.36
		c0,0.39,0.13,0.71,0.41,0.94c0.27,0.24,0.81,0.36,1.62,0.36h17.19c0.81,0,1.35-0.12,1.62-0.36c0.27-0.24,0.41-0.55,0.41-0.94V9.17
		c0-0.33-0.14-0.62-0.41-0.88c-0.27-0.25-0.81-0.38-1.62-0.38H246.4c-0.81,0-1.35,0.13-1.62,0.38c-0.27,0.25-0.41,0.55-0.41,0.88
		V9.36z M263.37,37.48c0.87,0,1.42-0.17,1.67-0.52c0.24-0.34,0.36-0.68,0.36-1.01s-0.12-0.67-0.36-1.01
		c-0.24-0.34-0.8-0.52-1.67-0.52h-16.74c-0.87,0-1.43,0.17-1.67,0.52c-0.24,0.35-0.36,0.68-0.36,1.01s0.12,0.67,0.36,1.01
		c0.24,0.34,0.79,0.52,1.67,0.52H263.37z M250.81,19.7h8.37v-2.92h-8.37V19.7z"/>
	<path fill="#1A1A1A" d="M303.69,33.12v10.53h-9.18V33.12h-12.69c-1.35,0-2.32-0.38-2.9-1.15c-0.58-0.77-0.88-1.61-0.88-2.54
		c0-0.45,0.07-0.9,0.2-1.35s0.35-0.85,0.65-1.19s0.69-0.63,1.17-0.86c0.48-0.22,1.06-0.34,1.76-0.34h25.29
		c0.54-1.44,0.95-3.06,1.21-4.86h-25.33c-1.17,0-2.07-0.34-2.7-1.04c-0.63-0.69-0.95-1.53-0.95-2.52c0-0.99,0.32-1.83,0.95-2.52
		c0.63-0.69,1.53-1.04,2.7-1.04h25.83v-3.38c0-0.69-0.34-1.04-1.04-1.04h-24.3c-1.17,0-2.06-0.35-2.68-1.06
		c-0.62-0.71-0.92-1.55-0.92-2.54s0.31-1.84,0.92-2.54c0.61-0.71,1.51-1.06,2.68-1.06h27.54c2.46,0,4.2,0.5,5.22,1.48
		c1.02,0.99,1.53,2.66,1.53,5v3.55c0,2.91-0.18,5.46-0.54,7.65c-0.36,2.19-0.92,4.16-1.67,5.9h0.81c0.69,0,1.27,0.11,1.75,0.34
		c0.48,0.23,0.87,0.51,1.17,0.86c0.3,0.34,0.52,0.74,0.65,1.19s0.2,0.9,0.2,1.35c0,0.93-0.29,1.78-0.88,2.54
		c-0.58,0.76-1.55,1.15-2.9,1.15H303.69z"/>
	<path fill="#1A1A1A" d="M330.02,14.12v-0.76c0-1.44,0.43-2.49,1.28-3.15c0.85-0.66,1.97-0.99,3.35-0.99c1.35,0,2.44,0.34,3.29,1.01
		c0.84,0.67,1.26,1.72,1.26,3.13v0.76h8.01v-0.76c0-1.44,0.43-2.49,1.28-3.15c0.86-0.66,1.97-0.99,3.35-0.99
		c1.35,0,2.45,0.34,3.29,1.01s1.26,1.72,1.26,3.13v0.76h2.79c0.6,0,1.11,0.1,1.53,0.29s0.76,0.44,1.04,0.74
		c0.27,0.3,0.46,0.64,0.58,1.01c0.12,0.38,0.18,0.76,0.18,1.15c0,0.78-0.25,1.5-0.76,2.16c-0.51,0.66-1.37,0.99-2.57,0.99h-11.43
		v2.16h13c0.63,0,1.17,0.1,1.62,0.29s0.82,0.45,1.1,0.76s0.49,0.67,0.61,1.08s0.18,0.82,0.18,1.24c0,0.87-0.27,1.66-0.81,2.36
		c-0.54,0.71-1.44,1.06-2.7,1.06h-35.1c-1.26,0-2.16-0.35-2.7-1.06c-0.54-0.7-0.81-1.49-0.81-2.36c0-0.42,0.06-0.83,0.18-1.24
		c0.12-0.41,0.32-0.76,0.61-1.08s0.65-0.57,1.1-0.76s0.99-0.29,1.62-0.29h13v-2.16h-12.11c-1.2,0-2.05-0.33-2.54-0.99
		s-0.74-1.38-0.74-2.16c0-0.39,0.06-0.77,0.18-1.15c0.12-0.37,0.31-0.71,0.56-1.01s0.59-0.55,1.01-0.74
		c0.42-0.2,0.93-0.29,1.53-0.29H330.02z M359.08,1.79c0.6,0,1.11,0.1,1.53,0.29c0.42,0.2,0.76,0.44,1.01,0.74
		c0.25,0.3,0.44,0.65,0.56,1.04c0.12,0.39,0.18,0.78,0.18,1.17c0,0.81-0.25,1.54-0.74,2.21s-1.34,0.99-2.54,0.99h-31.81
		c-1.2,0-2.06-0.33-2.57-0.99c-0.51-0.66-0.76-1.4-0.76-2.21c0-0.39,0.06-0.78,0.18-1.17c0.12-0.39,0.32-0.74,0.58-1.04
		c0.27-0.3,0.61-0.55,1.04-0.74c0.42-0.2,0.93-0.29,1.53-0.29H359.08z M330.83,43.42c-1.26,0-2.31-0.11-3.15-0.34
		c-0.84-0.22-1.5-0.59-1.98-1.1c-0.48-0.51-0.82-1.18-1.01-2s-0.29-1.85-0.29-3.08v-2.34c0-1.53,0.46-2.6,1.39-3.22
		c0.93-0.62,2.03-0.92,3.29-0.92s2.33,0.32,3.22,0.95c0.88,0.63,1.33,1.7,1.33,3.19v1.17c0,0.39,0.06,0.64,0.18,0.74
		s0.39,0.16,0.81,0.16h24.48c1.38,0,2.36,0.34,2.92,1.01c0.57,0.67,0.86,1.46,0.86,2.36c0,0.93-0.29,1.73-0.88,2.41
		s-1.55,1.01-2.9,1.01H330.83z"/>
</g>
<g>
	<path d="M35.75,92.78v11.45h-10.2V92.78h-14.1c-1.5,0-2.57-0.42-3.22-1.25c-0.65-0.83-0.98-1.77-0.98-2.8
		c0-0.5,0.07-0.99,0.23-1.47c0.15-0.48,0.39-0.92,0.72-1.33c0.33-0.4,0.77-0.72,1.3-0.95c0.53-0.23,1.18-0.35,1.95-0.35h38.4
		c0.77,0,1.42,0.12,1.95,0.35c0.53,0.23,0.97,0.55,1.3,0.95c0.33,0.4,0.57,0.84,0.72,1.33c0.15,0.48,0.23,0.97,0.23,1.47
		c0,1.03-0.32,1.97-0.98,2.8c-0.65,0.83-1.72,1.25-3.22,1.25H35.75z M16.69,81.13c-1.5,0-2.72-0.12-3.65-0.38
		c-0.93-0.25-1.66-0.67-2.17-1.25c-0.52-0.58-0.87-1.36-1.05-2.33C9.64,76.21,9.54,75,9.54,73.53v-7.85c0-1.43,0.09-2.64,0.27-3.62
		c0.18-0.98,0.53-1.77,1.05-2.35c0.52-0.58,1.24-1,2.17-1.25c0.93-0.25,2.15-0.38,3.65-0.38h27.85c1.5,0,2.72,0.12,3.65,0.38
		c0.93,0.25,1.66,0.67,2.18,1.25c0.52,0.58,0.87,1.37,1.05,2.35c0.18,0.98,0.27,2.19,0.27,3.62v15.45H16.69z M19.5,72.03
		c0,0.57,0.07,0.93,0.23,1.08c0.15,0.15,0.47,0.23,0.97,0.23h21.05v-6.2c0-0.53-0.08-0.88-0.25-1.03c-0.17-0.15-0.5-0.22-1-0.22
		h-19.8c-0.5,0-0.82,0.08-0.97,0.22c-0.15,0.15-0.23,0.49-0.23,1.03V72.03z"/>
	<path d="M65.79,94.98v-7.4c-2.57-0.37-4.44-1.32-5.62-2.85c-1.18-1.53-1.77-3.4-1.77-5.6v-1c0-1.23,0.19-2.38,0.58-3.45
		c0.38-1.07,0.97-2,1.75-2.8c0.78-0.8,1.77-1.42,2.97-1.88c1.2-0.45,2.63-0.67,4.3-0.67h21.85v-1.5c0-0.33-0.08-0.65-0.25-0.95
		c-0.17-0.3-0.53-0.45-1.1-0.45H62.54c-1.2,0-2.14-0.4-2.82-1.2c-0.68-0.8-1.03-1.72-1.03-2.75c0-1,0.34-1.91,1.03-2.72
		c0.68-0.82,1.62-1.23,2.82-1.23h28.65c1.73,0,3.17,0.19,4.3,0.58c1.13,0.38,2.03,0.92,2.7,1.6c0.67,0.68,1.14,1.51,1.43,2.47
		c0.28,0.97,0.42,2.05,0.42,3.25v10.7H70.6c-1.2,0-1.8,0.47-1.8,1.4v0.2c0,0.93,0.6,1.4,1.8,1.4h26.55c0.7,0,1.29,0.12,1.77,0.35
		c0.48,0.23,0.88,0.53,1.2,0.9c0.32,0.37,0.54,0.77,0.67,1.22c0.13,0.45,0.2,0.91,0.2,1.38c0,0.97-0.3,1.83-0.9,2.6
		c-0.6,0.77-1.58,1.15-2.95,1.15H93.6v7.25h5.25c1.53,0,2.62,0.42,3.25,1.25c0.63,0.83,0.95,1.75,0.95,2.75
		c0,1.03-0.32,1.96-0.98,2.78c-0.65,0.82-1.72,1.22-3.22,1.22h-38.4c-1.5,0-2.57-0.41-3.22-1.22c-0.65-0.82-0.98-1.74-0.98-2.78
		c0-1,0.32-1.92,0.95-2.75c0.63-0.83,1.72-1.25,3.25-1.25H65.79z M75.65,94.98h8.1v-7.25h-8.1V94.98z"/>
	<path d="M123.54,94.88v-7.05H117c-3.33,0-5.83-0.78-7.48-2.33s-2.48-3.67-2.48-6.38v-0.95c0-2.7,0.83-4.83,2.48-6.4
		c1.65-1.57,4.14-2.35,7.48-2.35h21.95v-1.5c0-0.33-0.08-0.65-0.25-0.95c-0.17-0.3-0.53-0.45-1.1-0.45h-26.15
		c-1.2,0-2.14-0.41-2.82-1.22c-0.68-0.82-1.02-1.74-1.02-2.78c0-1,0.34-1.92,1.02-2.75c0.68-0.83,1.62-1.25,2.82-1.25h28.95
		c1.73,0,3.17,0.19,4.3,0.58c1.13,0.38,2.03,0.92,2.7,1.6c0.67,0.68,1.14,1.51,1.42,2.47s0.43,2.05,0.43,3.25v10.6h-29.8
		c-1.13,0-1.7,0.47-1.7,1.4v0.25c0,0.93,0.57,1.4,1.7,1.4h27.1c0.7,0,1.29,0.12,1.77,0.35c0.48,0.23,0.88,0.53,1.2,0.9
		c0.32,0.37,0.54,0.78,0.67,1.25c0.13,0.47,0.2,0.93,0.2,1.4c0,0.97-0.3,1.85-0.9,2.65s-1.58,1.2-2.95,1.2h-12.8v7.05h14.1
		c0.77,0,1.42,0.12,1.95,0.35c0.53,0.23,0.97,0.54,1.3,0.92c0.33,0.38,0.57,0.82,0.72,1.3c0.15,0.48,0.23,0.97,0.23,1.47
		c0,1.03-0.32,1.97-0.98,2.8c-0.65,0.83-1.72,1.25-3.22,1.25h-38.4c-1.5,0-2.57-0.42-3.22-1.25c-0.65-0.83-0.98-1.77-0.98-2.8
		c0-0.5,0.07-0.99,0.23-1.47c0.15-0.48,0.39-0.92,0.72-1.3c0.33-0.38,0.77-0.69,1.3-0.92c0.53-0.23,1.18-0.35,1.95-0.35H123.54z"/>
	<path d="M209.75,94.53c0.77,0,1.42,0.12,1.97,0.38s1,0.58,1.35,0.98c0.35,0.4,0.6,0.86,0.75,1.38c0.15,0.52,0.23,1.02,0.23,1.52
		c0,0.53-0.08,1.05-0.25,1.55c-0.17,0.5-0.42,0.95-0.78,1.35c-0.35,0.4-0.79,0.72-1.33,0.95c-0.53,0.23-1.18,0.35-1.95,0.35h-38.2
		c-0.77,0-1.42-0.12-1.95-0.35c-0.53-0.23-0.98-0.55-1.33-0.95s-0.61-0.85-0.77-1.35c-0.17-0.5-0.25-1.02-0.25-1.55
		c0-0.5,0.07-1.01,0.23-1.52c0.15-0.52,0.4-0.98,0.75-1.38c0.35-0.4,0.8-0.73,1.35-0.98c0.55-0.25,1.21-0.38,1.98-0.38H209.75z
		 M206.79,58.63c0.7,0,1.3,0.13,1.8,0.4c0.5,0.27,0.9,0.6,1.2,1c0.3,0.4,0.52,0.85,0.65,1.35s0.2,0.98,0.2,1.45s-0.07,0.95-0.2,1.45
		s-0.36,0.95-0.67,1.35c-0.32,0.4-0.72,0.72-1.2,0.97s-1.07,0.38-1.77,0.38h-25.3c-0.53,0-0.9,0.09-1.1,0.28
		c-0.2,0.18-0.3,0.54-0.3,1.08v7.7c0,0.53,0.1,0.9,0.3,1.1s0.57,0.3,1.1,0.3h26.1c0.7,0,1.3,0.13,1.8,0.4s0.9,0.6,1.2,1
		c0.3,0.4,0.53,0.84,0.67,1.32c0.15,0.48,0.23,0.96,0.23,1.43s-0.08,0.95-0.23,1.45c-0.15,0.5-0.38,0.95-0.7,1.35
		c-0.32,0.4-0.72,0.73-1.2,1c-0.48,0.27-1.08,0.4-1.78,0.4h-29.65c-1.5,0-2.77-0.14-3.8-0.42c-1.03-0.28-1.86-0.74-2.48-1.38
		c-0.62-0.63-1.07-1.45-1.35-2.45s-0.42-2.23-0.42-3.7v-11.3c0-1.43,0.14-2.65,0.42-3.65s0.73-1.82,1.35-2.45
		c0.62-0.63,1.44-1.09,2.48-1.38c1.03-0.28,2.3-0.42,3.8-0.42H206.79z"/>
	<path d="M224.89,83.33c-1.23,0-2.33-0.22-3.27-0.65c-0.95-0.43-1.74-1.01-2.38-1.72c-0.63-0.72-1.11-1.55-1.43-2.5
		c-0.32-0.95-0.47-1.93-0.47-2.93v-0.9c0-2.07,0.63-3.74,1.9-5.03c1.27-1.28,3.15-1.92,5.65-1.92h10.3v-1.6
		c0-0.33-0.07-0.58-0.2-0.73c-0.13-0.15-0.43-0.22-0.9-0.22h-13.25c-1.17,0-2-0.37-2.5-1.1c-0.5-0.73-0.75-1.5-0.75-2.3
		c0-0.87,0.26-1.66,0.78-2.38c0.52-0.72,1.34-1.08,2.47-1.08h17.3c2.5,0,4.29,0.57,5.38,1.7c1.08,1.13,1.62,2.62,1.62,4.45v9.5
		h-16.3c-0.47,0-0.79,0.12-0.97,0.35c-0.18,0.23-0.28,0.52-0.28,0.85v0.2c0,0.33,0.09,0.61,0.28,0.82c0.18,0.22,0.51,0.33,0.97,0.33
		h17.4c1.13,0,1.96,0.37,2.47,1.1c0.52,0.73,0.78,1.52,0.78,2.35c0,0.83-0.25,1.61-0.75,2.33s-1.33,1.08-2.5,1.08H224.89z
		 M226.75,103.98c-1.4,0-2.56-0.13-3.48-0.4c-0.92-0.27-1.64-0.68-2.17-1.25c-0.53-0.57-0.91-1.32-1.12-2.25
		c-0.22-0.93-0.33-2.07-0.33-3.4v-7.2c0-1.7,0.49-2.92,1.48-3.65c0.98-0.73,2.17-1.1,3.57-1.1c1.2,0,2.24,0.28,3.12,0.83
		s1.44,1.44,1.68,2.67h22.55c0.27-1.23,0.85-2.12,1.75-2.67c0.9-0.55,1.97-0.83,3.2-0.83c1.4,0,2.57,0.37,3.52,1.1
		s1.42,1.95,1.42,3.65v14.5H226.75z M251.94,97.38v-2.8h-22.3v1.55c0,0.57,0.08,0.92,0.25,1.05c0.17,0.13,0.53,0.2,1.1,0.2H251.94z
		 M251.59,61.98c0-1.63,0.51-2.87,1.53-3.7c1.02-0.83,2.19-1.25,3.52-1.25c0.63,0,1.26,0.11,1.88,0.33
		c0.62,0.22,1.16,0.53,1.62,0.95c0.47,0.42,0.84,0.93,1.12,1.55c0.28,0.62,0.42,1.33,0.42,2.12v21.45h-10.1V61.98z"/>
	<path d="M293.69,93.03c0.73,0,1.34,0.12,1.83,0.38s0.87,0.58,1.15,0.98c0.28,0.4,0.48,0.85,0.6,1.35c0.12,0.5,0.17,0.98,0.17,1.45
		c0,0.5-0.06,1-0.17,1.5c-0.12,0.5-0.33,0.96-0.62,1.38s-0.69,0.76-1.17,1.03c-0.48,0.27-1.08,0.4-1.78,0.4h-19.2
		c-1.5,0-2.74-0.14-3.73-0.42s-1.77-0.73-2.35-1.35c-0.58-0.62-0.99-1.42-1.23-2.4c-0.23-0.98-0.35-2.19-0.35-3.62v-29.8
		c0-0.83,0.14-1.56,0.42-2.17s0.66-1.12,1.12-1.53s1.01-0.69,1.62-0.88c0.62-0.18,1.26-0.28,1.92-0.28c1.4,0,2.58,0.39,3.53,1.18
		s1.42,2.01,1.42,3.67v27.75c0,0.57,0.1,0.94,0.3,1.12c0.2,0.18,0.58,0.27,1.15,0.27H293.69z M300.69,103.98v-42
		c0-1.63,0.5-2.87,1.5-3.7c1-0.83,2.17-1.25,3.5-1.25s2.5,0.42,3.5,1.25c1,0.83,1.5,2.07,1.5,3.7v42H300.69z"/>
	<path d="M323.49,101.98c-1.63,0-2.95-0.12-3.95-0.35c-1-0.23-1.78-0.64-2.33-1.23c-0.55-0.58-0.92-1.38-1.12-2.38
		s-0.3-2.28-0.3-3.85V66.53c0-1.57,0.1-2.85,0.3-3.85s0.58-1.79,1.12-2.38c0.55-0.58,1.33-0.98,2.33-1.2c1-0.22,2.32-0.33,3.95-0.33
		h15.9c0.73,0,1.34,0.13,1.83,0.4c0.48,0.27,0.87,0.6,1.15,1s0.48,0.85,0.6,1.35c0.12,0.5,0.17,0.98,0.17,1.45
		c0,0.5-0.06,1-0.17,1.5c-0.12,0.5-0.33,0.95-0.62,1.35c-0.3,0.4-0.69,0.73-1.17,1c-0.48,0.27-1.08,0.4-1.78,0.4h-12.45
		c-0.47,0-0.8,0.1-1,0.3c-0.2,0.2-0.3,0.58-0.3,1.15v23.5c0,0.57,0.1,0.95,0.3,1.15c0.2,0.2,0.53,0.3,1,0.3h14.75
		c0.73,0,1.34,0.13,1.83,0.4c0.48,0.27,0.87,0.6,1.15,1c0.28,0.4,0.48,0.85,0.6,1.35c0.12,0.5,0.17,0.98,0.17,1.45
		c0,0.5-0.06,0.99-0.17,1.47c-0.12,0.48-0.33,0.92-0.62,1.33c-0.3,0.4-0.69,0.72-1.17,0.97c-0.48,0.25-1.08,0.38-1.78,0.38H323.49z
		 M348.34,61.88c0-1.6,0.5-2.81,1.5-3.62c1-0.82,2.15-1.23,3.45-1.23c0.63,0,1.25,0.11,1.85,0.33c0.6,0.22,1.12,0.53,1.58,0.92
		c0.45,0.4,0.82,0.9,1.1,1.5c0.28,0.6,0.42,1.3,0.42,2.1v12.65h1.65c0.77,0,1.4,0.13,1.9,0.4c0.5,0.27,0.9,0.61,1.2,1.03
		c0.3,0.42,0.52,0.88,0.65,1.4c0.13,0.52,0.2,1.03,0.2,1.53s-0.07,1.01-0.2,1.52c-0.13,0.52-0.35,0.98-0.65,1.4
		c-0.3,0.42-0.71,0.76-1.22,1.03c-0.52,0.27-1.14,0.4-1.88,0.4h-1.65v20.75h-9.9V61.88z"/>
</g>
<g>
	<path d="M373.32,87.45l1.3-4.83l4.88,1.31l-1.3,4.83L373.32,87.45z M376.73,79.16l3.62-18.67l2.05-7.67l5.26,1.41l-2.05,7.66
		l-6.14,18L376.73,79.16z"/>
</g>
</svg>
