<?xml version="1.0" encoding="utf-8"?>
<!-- Generator: Adobe Illustrator 25.4.0, SVG Export Plug-In . SVG Version: 6.00 Build 0)  -->
<svg version="1.2" baseProfile="tiny" id="레이어_1"
	 xmlns="http://www.w3.org/2000/svg" xmlns:xlink="http://www.w3.org/1999/xlink" x="0px" y="0px" viewBox="0 0 174 44"
	 overflow="visible" xml:space="preserve">
<g>
	<path d="M26.81,32.27v10.3h-8.98v-10.3H5.42c-1.32,0-2.27-0.37-2.84-1.12c-0.57-0.75-0.86-1.58-0.86-2.49
		c0-0.44,0.07-0.88,0.2-1.32c0.13-0.44,0.34-0.83,0.64-1.17c0.29-0.34,0.67-0.62,1.14-0.84c0.47-0.22,1.04-0.33,1.72-0.33h24.73
		c0.53-1.41,0.92-2.99,1.19-4.75H6.57c-1.14,0-2.02-0.34-2.64-1.01C3.31,18.57,3,17.75,3,16.78c0-0.97,0.31-1.79,0.92-2.46
		c0.62-0.67,1.5-1.01,2.64-1.01h25.26V10c0-0.67-0.34-1.01-1.01-1.01H7.05c-1.14,0-2.02-0.34-2.62-1.03c-0.6-0.69-0.9-1.52-0.9-2.49
		c0-0.97,0.3-1.8,0.9-2.49c0.6-0.69,1.47-1.03,2.62-1.03h26.93c2.4,0,4.11,0.48,5.1,1.45c1,0.97,1.5,2.6,1.5,4.88v3.48
		c0,2.85-0.18,5.34-0.53,7.48c-0.35,2.14-0.9,4.06-1.63,5.76h0.79c0.67,0,1.25,0.11,1.72,0.33s0.85,0.5,1.14,0.84
		c0.29,0.34,0.51,0.73,0.64,1.17c0.13,0.44,0.2,0.88,0.2,1.32c0,0.91-0.29,1.74-0.86,2.49c-0.57,0.75-1.52,1.12-2.84,1.12H26.81z"/>
	<path d="M52.55,13.7v-0.75c0-1.41,0.42-2.43,1.25-3.08c0.84-0.64,1.93-0.97,3.28-0.97c1.32,0,2.39,0.33,3.21,0.99
		c0.82,0.66,1.23,1.68,1.23,3.06v0.75h7.83v-0.75c0-1.41,0.42-2.43,1.25-3.08c0.84-0.64,1.93-0.97,3.28-0.97
		c1.32,0,2.39,0.33,3.21,0.99c0.82,0.66,1.23,1.68,1.23,3.06v0.75h2.73c0.59,0,1.08,0.1,1.5,0.29c0.41,0.19,0.75,0.43,1.01,0.73
		c0.26,0.29,0.45,0.62,0.57,0.99c0.12,0.37,0.18,0.74,0.18,1.12c0,0.76-0.25,1.47-0.75,2.11c-0.5,0.65-1.33,0.97-2.51,0.97H69.88
		v2.11H82.6c0.62,0,1.14,0.1,1.58,0.29c0.44,0.19,0.8,0.44,1.08,0.75c0.28,0.31,0.48,0.66,0.59,1.06c0.12,0.4,0.18,0.8,0.18,1.21
		c0,0.85-0.26,1.62-0.79,2.31c-0.53,0.69-1.41,1.03-2.64,1.03H48.28c-1.23,0-2.11-0.34-2.64-1.03c-0.53-0.69-0.79-1.46-0.79-2.31
		c0-0.41,0.06-0.81,0.18-1.21c0.12-0.4,0.31-0.75,0.59-1.06c0.28-0.31,0.64-0.56,1.08-0.75c0.44-0.19,0.97-0.29,1.58-0.29H61V19.9
		H49.16c-1.17,0-2-0.32-2.49-0.97c-0.48-0.64-0.73-1.35-0.73-2.11c0-0.38,0.06-0.75,0.18-1.12c0.12-0.37,0.3-0.7,0.55-0.99
		c0.25-0.29,0.58-0.54,0.99-0.73c0.41-0.19,0.91-0.29,1.5-0.29H52.55z M80.97,1.64c0.59,0,1.08,0.1,1.5,0.29
		c0.41,0.19,0.74,0.43,0.99,0.73c0.25,0.29,0.43,0.63,0.55,1.01c0.12,0.38,0.18,0.76,0.18,1.14c0,0.79-0.24,1.51-0.73,2.16
		c-0.48,0.65-1.31,0.97-2.49,0.97H49.86c-1.17,0-2.01-0.32-2.51-0.97c-0.5-0.64-0.75-1.36-0.75-2.16c0-0.38,0.06-0.76,0.18-1.14
		c0.12-0.38,0.31-0.72,0.57-1.01s0.6-0.54,1.01-0.73c0.41-0.19,0.91-0.29,1.5-0.29H80.97z M53.34,42.34c-1.23,0-2.26-0.11-3.08-0.33
		c-0.82-0.22-1.47-0.58-1.94-1.08s-0.8-1.15-0.99-1.96c-0.19-0.81-0.29-1.81-0.29-3.01v-2.29c0-1.5,0.45-2.54,1.36-3.15
		c0.91-0.6,1.98-0.9,3.21-0.9s2.28,0.31,3.15,0.92c0.86,0.62,1.3,1.66,1.3,3.12v1.14c0,0.38,0.06,0.62,0.18,0.73
		c0.12,0.1,0.38,0.15,0.79,0.15h23.94c1.35,0,2.3,0.33,2.86,0.99c0.56,0.66,0.84,1.43,0.84,2.31c0,0.91-0.29,1.69-0.86,2.35
		c-0.57,0.66-1.52,0.99-2.84,0.99H53.34z"/>
	<path d="M95.32,23.38c-1.2,0-2.2-0.11-2.99-0.33c-0.79-0.22-1.42-0.58-1.87-1.08c-0.46-0.5-0.77-1.15-0.95-1.96
		c-0.18-0.81-0.26-1.78-0.26-2.93V6.13c0-1.47,0.41-2.53,1.23-3.19c0.82-0.66,1.83-0.99,3.04-0.99c1.23,0,2.21,0.33,2.93,0.99
		c0.72,0.66,1.08,1.72,1.08,3.19v0.22h7.96V6.13c0-1.5,0.37-2.57,1.12-3.21c0.75-0.64,1.74-0.97,2.97-0.97s2.24,0.33,3.01,0.99
		c0.78,0.66,1.17,1.72,1.17,3.19v17.25H95.32z M124.18,26.06c0.53,0,0.97,0.1,1.34,0.31c0.37,0.21,0.67,0.47,0.9,0.79
		c0.24,0.32,0.4,0.68,0.51,1.08c0.1,0.4,0.15,0.77,0.15,1.12c0,0.35-0.05,0.72-0.15,1.1c-0.1,0.38-0.27,0.73-0.51,1.03
		c-0.23,0.31-0.54,0.56-0.9,0.75c-0.37,0.19-0.81,0.29-1.34,0.29h-23.19c-0.76,0-1.14,0.34-1.14,1.01v1.32
		c0,0.67,0.38,1.01,1.14,1.01h24.02c0.53,0,0.97,0.1,1.34,0.31c0.37,0.21,0.67,0.46,0.9,0.77c0.23,0.31,0.4,0.65,0.51,1.03
		c0.1,0.38,0.15,0.75,0.15,1.1c0,0.35-0.05,0.72-0.15,1.1c-0.1,0.38-0.27,0.73-0.51,1.06c-0.24,0.32-0.54,0.59-0.9,0.79
		c-0.37,0.21-0.81,0.31-1.34,0.31H97.03c-2.2,0-3.75-0.47-4.66-1.41S91,38.5,91,36.45v-4.49c0-2.02,0.46-3.51,1.36-4.47
		s2.46-1.43,4.66-1.43H124.18z M105.48,16.96v-4.62h-7.96v3.52c0,0.5,0.07,0.81,0.22,0.92c0.15,0.12,0.47,0.18,0.97,0.18H105.48z
		 M118.06,5.38c0-1.44,0.43-2.52,1.3-3.26c0.87-0.73,1.88-1.1,3.06-1.1c1.14,0,2.16,0.37,3.04,1.12s1.32,1.83,1.32,3.23v3.39h1.36
		c0.67,0,1.23,0.12,1.67,0.35c0.44,0.24,0.79,0.53,1.06,0.88c0.26,0.35,0.45,0.76,0.57,1.21c0.12,0.46,0.18,0.9,0.18,1.34
		c0,0.44-0.06,0.89-0.18,1.34c-0.12,0.46-0.31,0.87-0.57,1.23c-0.26,0.37-0.62,0.66-1.08,0.88c-0.46,0.22-1,0.33-1.65,0.33h-1.36
		v8.01h-8.71V5.38z"/>
	<path d="M135.09,33.28c1.85-0.18,3.53-0.54,5.04-1.08s2.79-1.37,3.85-2.49c1.06-1.11,1.87-2.58,2.44-4.4s0.86-4.08,0.86-6.78v-7.13
		c0-0.32-0.1-0.59-0.29-0.79c-0.19-0.21-0.46-0.31-0.81-0.31h-10.03c-0.67,0-1.25-0.11-1.74-0.33c-0.48-0.22-0.89-0.51-1.21-0.86
		c-0.32-0.35-0.57-0.75-0.73-1.21c-0.16-0.45-0.24-0.92-0.24-1.39c0-0.44,0.08-0.89,0.24-1.34c0.16-0.45,0.4-0.86,0.73-1.23
		c0.32-0.37,0.73-0.67,1.21-0.9c0.48-0.23,1.06-0.35,1.74-0.35h13.02c2.49,0,4.27,0.56,5.32,1.67c1.06,1.12,1.58,2.7,1.58,4.75v9.46
		c0,3.93-0.52,7.28-1.56,10.03c-1.04,2.76-2.47,5.02-4.29,6.78c-1.82,1.76-3.95,3.05-6.4,3.87c-2.45,0.82-5.08,1.26-7.9,1.32
		c-0.53,0-1.06-0.07-1.58-0.22c-0.53-0.15-0.99-0.37-1.39-0.68c-0.4-0.31-0.71-0.7-0.95-1.17c-0.24-0.47-0.34-1.04-0.31-1.72
		c0.06-0.94,0.36-1.73,0.9-2.38C133.15,33.78,133.98,33.4,135.09,33.28z M162.28,42.34V5.38c0-1.44,0.44-2.52,1.32-3.26
		c0.88-0.73,1.91-1.1,3.08-1.1s2.2,0.37,3.08,1.1c0.88,0.73,1.32,1.82,1.32,3.26v36.96H162.28z"/>
</g>
</svg>
