<svg xmlns="http://www.w3.org/2000/svg" width="169.355" height="41.536" viewBox="0 0 169.355 41.536">
    <defs>
        <clipPath id="vn25ylbt6a">
            <path data-name="사각형 18885" style="fill:#fff" d="M0 0h169.355v41.536H0z"/>
        </clipPath>
    </defs>
    <g data-name="그룹 67570" style="clip-path:url(#vn25ylbt6a)">
        <path data-name="패스 52732" d="M25.079 31.239v10.3H16.1v-10.3H3.7a3.352 3.352 0 0 1-2.842-1.121A4 4 0 0 1 0 27.632a4.546 4.546 0 0 1 .2-1.321 3.111 3.111 0 0 1 .638-1.166 3.413 3.413 0 0 1 1.143-.836 4.038 4.038 0 0 1 1.717-.33h24.726a23.442 23.442 0 0 0 1.188-4.752H4.84a3.394 3.394 0 0 1-2.64-1.011 3.525 3.525 0 0 1-.924-2.464 3.521 3.521 0 0 1 .924-2.464 3.392 3.392 0 0 1 2.64-1.013H30.1v-3.3a.894.894 0 0 0-1.012-1.011H5.323a3.284 3.284 0 0 1-2.617-1.035 3.646 3.646 0 0 1-.9-2.486 3.647 3.647 0 0 1 .9-2.485A3.284 3.284 0 0 1 5.323.924h26.929q3.608 0 5.1 1.452t1.5 4.884v3.475a46.527 46.527 0 0 1-.528 7.481 24.588 24.588 0 0 1-1.624 5.763h.791a4.045 4.045 0 0 1 1.717.33 3.417 3.417 0 0 1 1.144.836 3.123 3.123 0 0 1 .637 1.166 4.546 4.546 0 0 1 .2 1.321 4 4 0 0 1-.858 2.486 3.35 3.35 0 0 1-2.838 1.121z" style="fill:#fff"/>
        <path data-name="패스 52733" d="M50.819 12.671v-.748a3.647 3.647 0 0 1 1.254-3.08 5.23 5.23 0 0 1 3.279-.967 4.972 4.972 0 0 1 3.211.989 3.689 3.689 0 0 1 1.237 3.058v.748h7.832v-.748a3.647 3.647 0 0 1 1.254-3.08 5.221 5.221 0 0 1 3.278-.967 4.981 4.981 0 0 1 3.212.989 3.692 3.692 0 0 1 1.224 3.058v.748h2.728a3.53 3.53 0 0 1 1.5.287 3.1 3.1 0 0 1 1.012.725 2.713 2.713 0 0 1 .572.99 3.714 3.714 0 0 1 .176 1.122 3.377 3.377 0 0 1-.748 2.112 2.977 2.977 0 0 1-2.508.969H68.155v2.111h12.717a3.985 3.985 0 0 1 1.584.286 3.094 3.094 0 0 1 1.078.748 2.718 2.718 0 0 1 .594 1.057 4.241 4.241 0 0 1 .175 1.21 3.7 3.7 0 0 1-.792 2.309 3.116 3.116 0 0 1-2.639 1.034H46.551a3.116 3.116 0 0 1-2.639-1.031 3.7 3.7 0 0 1-.792-2.309 4.208 4.208 0 0 1 .176-1.21 2.691 2.691 0 0 1 .593-1.057 3.1 3.1 0 0 1 1.078-.748 3.985 3.985 0 0 1 1.584-.286h12.717v-2.114H47.432a2.91 2.91 0 0 1-2.486-.969 3.445 3.445 0 0 1-.727-2.112 3.683 3.683 0 0 1 .176-1.122 2.858 2.858 0 0 1 .551-.99 2.817 2.817 0 0 1 .99-.725 3.523 3.523 0 0 1 1.5-.287zM79.244.615A3.538 3.538 0 0 1 80.739.9a2.862 2.862 0 0 1 .99.726 2.83 2.83 0 0 1 .551 1.012 3.888 3.888 0 0 1 .176 1.144 3.5 3.5 0 0 1-.727 2.156 2.908 2.908 0 0 1-2.485.968H48.135a2.974 2.974 0 0 1-2.507-.968 3.438 3.438 0 0 1-.748-2.156 3.886 3.886 0 0 1 .175-1.144 2.678 2.678 0 0 1 .573-1.012A3.105 3.105 0 0 1 46.639.9a3.549 3.549 0 0 1 1.5-.286zm-27.632 40.7a12.076 12.076 0 0 1-3.08-.33 4.012 4.012 0 0 1-1.932-1.078 4.2 4.2 0 0 1-.989-1.958 13.341 13.341 0 0 1-.287-3.014v-2.288a3.484 3.484 0 0 1 1.36-3.147 5.68 5.68 0 0 1 3.211-.9 5.286 5.286 0 0 1 3.147.924 3.572 3.572 0 0 1 1.3 3.124v1.145c0 .38.058.623.176.725a1.318 1.318 0 0 0 .791.154h23.935a3.573 3.573 0 0 1 2.86.991 3.633 3.633 0 0 1-.022 4.663 3.582 3.582 0 0 1-2.838.99z" style="fill:#fff"/>
        <path data-name="패스 52734" d="M93.588 22.351a11.384 11.384 0 0 1-2.991-.33 3.853 3.853 0 0 1-1.871-1.078 4.144 4.144 0 0 1-.946-1.958 14 14 0 0 1-.263-2.926V5.1a3.851 3.851 0 0 1 1.231-3.189 4.686 4.686 0 0 1 3.036-.988 4.154 4.154 0 0 1 2.926.991A4.144 4.144 0 0 1 95.788 5.1v.22h7.964V5.1a4.043 4.043 0 0 1 1.122-3.212 4.4 4.4 0 0 1 2.971-.968 4.489 4.489 0 0 1 3.013.991 3.965 3.965 0 0 1 1.166 3.189v17.251zm28.864 2.685a2.714 2.714 0 0 1 1.342.307 2.777 2.777 0 0 1 .9.792 3.178 3.178 0 0 1 .506 1.078 4.466 4.466 0 0 1 .155 1.122 4.215 4.215 0 0 1-.155 1.1 2.943 2.943 0 0 1-.506 1.034 2.646 2.646 0 0 1-.9.748 2.865 2.865 0 0 1-1.342.286H99.265q-1.146 0-1.145 1.012v1.32q0 1.012 1.145 1.012h24.023a2.728 2.728 0 0 1 1.342.308 2.914 2.914 0 0 1 .9.77 2.969 2.969 0 0 1 .506 1.034 4.009 4.009 0 0 1 0 2.2 3.194 3.194 0 0 1-.506 1.055 2.777 2.777 0 0 1-.9.792 2.717 2.717 0 0 1-1.342.308H95.3q-3.3 0-4.664-1.408a6.273 6.273 0 0 1-1.364-4.488v-4.487a6.285 6.285 0 0 1 1.364-4.466Q92 25.035 95.3 25.036zm-18.7-9.109v-4.62h-7.964v3.521c0 .5.072.806.22.923a1.729 1.729 0 0 0 .968.176zm12.584-11.572a4.032 4.032 0 0 1 1.3-3.256 4.735 4.735 0 0 1 6.094.023 4.007 4.007 0 0 1 1.32 3.233v3.389h1.364a3.539 3.539 0 0 1 1.672.351 3.167 3.167 0 0 1 1.056.88 3.441 3.441 0 0 1 .572 1.21 5.208 5.208 0 0 1 0 2.685 3.646 3.646 0 0 1-.572 1.231 2.792 2.792 0 0 1-1.078.88 3.746 3.746 0 0 1-1.65.33h-1.364v8.008h-8.712z" style="fill:#fff"/>
        <path data-name="패스 52735" d="M133.365 32.252a20.706 20.706 0 0 0 5.037-1.079 9.75 9.75 0 0 0 3.849-2.486 11.144 11.144 0 0 0 2.444-4.4 22.925 22.925 0 0 0 .857-6.777v-7.127a1.121 1.121 0 0 0-.286-.792 1.056 1.056 0 0 0-.814-.308h-10.033a4.186 4.186 0 0 1-1.737-.329 3.7 3.7 0 0 1-1.21-.859 3.519 3.519 0 0 1-.727-1.21A4.118 4.118 0 0 1 130.5 5.5a4.012 4.012 0 0 1 .242-1.343 3.726 3.726 0 0 1 1.937-2.134 3.954 3.954 0 0 1 1.737-.352h13.026q3.738 0 5.323 1.672a6.647 6.647 0 0 1 1.587 4.757v9.46a28.485 28.485 0 0 1-1.562 10.032 18.208 18.208 0 0 1-4.291 6.776 16.7 16.7 0 0 1-6.4 3.872 26.464 26.464 0 0 1-7.9 1.32 5.909 5.909 0 0 1-1.584-.219 3.974 3.974 0 0 1-1.387-.683 3.326 3.326 0 0 1-.945-1.166 3.436 3.436 0 0 1-.309-1.716 3.972 3.972 0 0 1 .9-2.376 3.588 3.588 0 0 1 2.487-1.143m27.191 9.063V4.355a4 4 0 0 1 1.32-3.256 4.865 4.865 0 0 1 6.16 0 4 4 0 0 1 1.32 3.256v36.96z" style="fill:#fff"/>
    </g>
</svg>
