<svg xmlns="http://www.w3.org/2000/svg" width="415.805" height="49.988" viewBox="0 0 415.805 49.988">
    <defs>
        <style>
            .cls-3,.cls-4{fill:#ffd200}.cls-3{fill-rule:evenodd}
        </style>
    </defs>
    <g id="그룹_56635" transform="translate(0 0.259)">
        <g id="그룹_56573" transform="translate(0 0.026)">
            <g id="그룹_56569" transform="translate(0 0)">
                <g id="그룹_56572" transform="translate(0 0)">
                    <g id="img_kt_semo_logo" transform="translate(0 0)">
                        <g id="그룹_23573">
                            <g id="그룹_23572">
                                <path id="패스_28227" d="M101.658 252.415l11.273-13.925h-6.15a7.555 7.555 0 0 0-6.328 2.815l-5.936 7.329V228.5h-5.953a2.544 2.544 0 0 0-2.538 2.554v37.56h5.955a2.541 2.541 0 0 0 2.537-2.55v-9.993l4.824 5.945 4.1 5.073a3.822 3.822 0 0 0 3.036 1.525h8.322l-5.376-6.621zm26.057 9.11a2.29 2.29 0 0 1-2.277-2.29V228.5h-5.958a2.546 2.546 0 0 0-2.541 2.547v29.789a7.407 7.407 0 0 0 7.756 7.778h6.545a2.547 2.547 0 0 0 2.544-2.55v-4.539z" transform="translate(-86.026 -228.5)"/>
                                <path id="패스_28228" fill="#ec1b23" d="M107.365 257.6l.013-.016a.073.073 0 0 1-.019.011zm39.681-5.679l-.005-5.658-.521.559c-.02.01-1.614 1.646-6.2 1.646h-21.654a7.209 7.209 0 0 0-6.26 2.911l-.67.824a.734.734 0 0 1-.061.07l-4.3 5.312a9.918 9.918 0 0 1 5.889-1.9h27.055c3.282 0 6.436-.968 6.694-3.436a1.605 1.605 0 0 0 .032-.33z" transform="translate(-98.061 -238.491)"/>
                            </g>
                        </g>
                        <g id="그룹_23574" transform="translate(58.802 5.331)">
                            <path id="패스_28229" d="M232.672 256.846a26.324 26.324 0 0 0 2.534 3.729 16.9 16.9 0 0 0 2.611 2.678l-2.02 2.525a.834.834 0 0 1-.648.421 1.534 1.534 0 0 1-.915-.459 19.454 19.454 0 0 1-2.515-2.773 23.73 23.73 0 0 1-2.287-3.538 22.312 22.312 0 0 1-4.993 7.229 1.069 1.069 0 0 1-.724.383 1.222 1.222 0 0 1-.839-.535l-1.944-2.41a15.72 15.72 0 0 0 4.84-6.9 26.724 26.724 0 0 0 1.638-9.505 17.936 17.936 0 0 1 .152-2.716 2.248 2.248 0 0 1 .515-1.263 1.352 1.352 0 0 1 .972-.344h3.659a4.761 4.761 0 0 0-.8 2.792 38.119 38.119 0 0 1-.61 7.153 11.273 11.273 0 0 0 1.374 3.533zm7.546-15.587h3.316v31.289a1.013 1.013 0 0 1-1.143 1.148h-3.278v-17.9h-3.43q-1.181 0-1.181-1.3v-2.716h4.612v-9.371q-.001-1.149 1.104-1.149zm10.214 32.781q0 1.147-1.105 1.147H245.9v-33.354q0-1.148 1.1-1.147h3.43z" transform="translate(-220.934 -240.686)"/>
                            <path id="패스_28230" d="M327.986 269.379v3.175a1.19 1.19 0 0 1-.438.994 2.886 2.886 0 0 1-1.429.459 26.7 26.7 0 0 1-2.858.115h-25.383v-2.869q0-1.148 1.105-1.148h11.663v-7.075h-6.784a2.1 2.1 0 0 1-1.563-.478 2.321 2.321 0 0 1-.457-1.626v-12.89a2.321 2.321 0 0 1 .457-1.626 2.1 2.1 0 0 1 1.563-.478h20.161v14.994a2.321 2.321 0 0 1-.457 1.626 2.1 2.1 0 0 1-1.563.478h-6.746v7.076h8.156a10.591 10.591 0 0 0 4.573-.727zm-21.342-10.442a1.173 1.173 0 0 0 .8.191h10.976a1.17 1.17 0 0 0 .82-.191 1.288 1.288 0 0 0 .171-.8v-8.3h-11.967a1.274 1.274 0 0 0-.8.172 1.177 1.177 0 0 0-.191.822v7.306a1.183 1.183 0 0 0 .191.8z" transform="translate(-264.34 -243.637)"/>
                            <path id="패스_28231" d="M390.426 245.773q-.42 14.727-13.911 21.344a1.793 1.793 0 0 1-.762.23.854.854 0 0 1-.686-.421l-1.906-2.754a24.381 24.381 0 0 0 9.146-7.076 16.017 16.017 0 0 0 3.316-9.18h-9.566q-1.106 0-1.105-1.147v-2.907H388.6a1.616 1.616 0 0 1 1.826 1.911zm9.147 7.344h4.688v2.983q0 1.148-1.1 1.148h-3.583v16.792q0 1.147-1.067 1.147h-3.544v-33.354q0-1.148 1.1-1.147h3.506z" transform="translate(-306.811 -240.686)"/>
                            <path id="패스_28232" d="M467.108 241.26h3.316v31.289a1.013 1.013 0 0 1-1.143 1.148H466v-16.372h-5.1a21.274 21.274 0 0 1-8.995 10.1 1.5 1.5 0 0 1-.8.268.98.98 0 0 1-.762-.421l-1.982-2.525a18.587 18.587 0 0 0 7.756-7.382 19.414 19.414 0 0 0 2.344-9.257H451.1q-1.105 0-1.105-1.147V244.2h11.091a1.811 1.811 0 0 1 1.448.5 2.139 2.139 0 0 1 .419 1.415 31.864 31.864 0 0 1-.762 7.191H466v-10.9q0-1.146 1.108-1.146zm10.519 32.781q0 1.147-1.105 1.147h-3.43v-33.355q0-1.148 1.106-1.147h3.43z" transform="translate(-349.23 -240.686)"/>
                        </g>
                    </g>
                    <text id="는" font-family="NotoSansCJKkr-Bold, Noto Sans CJK KR" font-size="29px" font-weight="700" transform="translate(187.742 36.726)">
                        <tspan x="0" y="0">는</tspan>
                    </text>
                </g>
            </g>
            <g id="그룹_56199" transform="translate(223.966)">
                <g id="그룹_56197">
                    <g id="그룹_56193" transform="translate(20.035 4.68)">
                        <g id="그룹_56192">
                            <path id="패스_37163" d="M198.494 249.461a9.85 9.85 0 1 0 9.886 9.814 9.843 9.843 0 0 0-9.886-9.814zm.042 14.3a4.454 4.454 0 1 1 4.437-4.469 4.439 4.439 0 0 1-4.437 4.47z" class="cls-3" transform="translate(-188.68 -249.461)"/>
                        </g>
                    </g>
                    <path id="패스_37164" d="M161.043 253.531a6.991 6.991 0 0 1 10.923-8.7c2.288 2.851 3.06 14.684 3.06 14.684s-11.694-3.131-13.983-5.984z" class="cls-3" transform="translate(-158.91 -242.42)"/>
                    <g id="그룹_56194" transform="translate(0 20.107)">
                        <path id="패스_37165" d="M158.538 299.866l5.673.506-5.176-6.193z" class="cls-4" transform="translate(-158.538 -279.883)"/>
                        <path id="패스_37166" d="M183.1 284.075a10.479 10.479 0 0 0-16.349-9.578l13.356 16.025a10.417 10.417 0 0 0 2.993-6.447z" class="cls-4" transform="translate(-161.291 -272.67)"/>
                        <path id="패스_37167" d="M161.763 279.579a9.988 9.988 0 0 0-1.688 4.271l10.073 12.082a10.434 10.434 0 0 0 4.52-.89z" class="cls-4" transform="translate(-159.053 -274.987)"/>
                        <path id="패스_37168" d="M178.719 291.444l-13.356-16.025a10.166 10.166 0 0 0-2.748 2.765l12.9 15.463a10.609 10.609 0 0 0 3.204-2.203z" transform="translate(-159.905 -273.592)"/>
                        <path id="패스_37169" d="M159.707 286.7l-.421 4.737 5.176 6.194 4.774.435c.214.013.443.012.647.021L159.81 286c-.04.239-.069.468-.103.7z" transform="translate(-158.789 -277.142)"/>
                    </g>
                    <g id="그룹_56196" transform="translate(44.055 4.783)">
                        <path id="패스_37170" d="M224.935 251.935c0-1.469 1.424-2.287 3.03-2.287 1.635 0 3.052.818 3.052 2.287v5.4h3.9c1.468 0 2 1.1 2 2.532 0 1.508-.529 2.61-2 2.61h-3.9v4.263c0 1.753-1.294 2.485-3.052 2.485-1.732 0-3.03-.731-3.03-2.485z" class="cls-4" transform="translate(-224.935 -249.627)"/>
                        <path id="패스_37171" d="M266.7 273.206c0 3.066-1.387 4.42-4.588 4.42h-10.261c-3.307 0-4.583-1.353-4.583-4.42V254.02c0-1.432 1.518-2.17 3.032-2.17 1.708 0 3.151.738 3.151 2.17v6.572h7.023v-6.572c0-1.432 1.565-2.17 3.034-2.17 1.755 0 3.19.738 3.19 2.17zm-13.247-1.587c0 .974.121 1.057 1.011 1.057h4.957c.986 0 1.056-.117 1.056-1.139v-6.115h-7.027zm23.669 13.968c0 1.759-1.345 2.539-3.061 2.539-1.678 0-3.024-.78-3.024-2.539V251.9c0-1.479 1.468-2.25 2.982-2.25 1.757 0 3.1.771 3.1 2.25l-.031 9.951h3.884c1.469 0 2 1.187 2 2.617 0 1.472-.53 2.659-2 2.659h-3.884z" class="cls-4" transform="translate(-232.423 -249.627)"/>
                        <g id="그룹_56195" transform="translate(52.706)">
                            <path id="패스_37172" d="M336.356 264.514c0 1.516.608 2.615 2.047 2.615h3.127v8.981c0 1.8 1.351 2.538 3.073 2.538 1.757 0 3.064-.739 3.064-2.538V251.9c0-1.463-1.426-2.281-3.064-2.281-1.595 0-3.073.818-3.073 2.281v9.96h-3.13c-1.436-.003-2.044 1.14-2.044 2.654z" class="cls-4" transform="translate(-315.002 -249.616)"/>
                            <path id="패스_37173" d="M337.562 295.829h-17.706c-.939 0-1.061-.122-1.061-.987v-4.211c0-1.549-1.559-2.331-3.194-2.331-1.682 0-3.226.782-3.226 2.331v6.255c0 3.525 1.425 4.137 4.574 4.137h20.613c1.426 0 2.085-1.226 2.085-2.621 0-1.433-.66-2.573-2.085-2.573z" class="cls-4" transform="translate(-306.961 -262.587)"/>
                            <path id="패스_37174" d="M315.5 267.592a13 13 0 0 0 6.832 5.807 2.681 2.681 0 0 0 3.8-1.547c.574-1.315.33-2.863-1.061-3.394a9.557 9.557 0 0 1-6.5-7.823h5.6c1.478 0 2.044-1.271 2.044-2.542 0-1.309-.653-2.487-2.044-2.487h-6.44v-3.931c0-1.432-1.266-2.045-2.531-2.045-1.315 0-2.541.694-2.541 2.045v3.931h-6.399c-1.35 0-1.969 1.143-1.969 2.487 0 1.271.528 2.542 1.969 2.542h5.8c-.319 3.841-2.408 6.673-6.451 8.435-1.636.692-1.607 2.328-.984 3.633.652 1.274 1.8 1.924 3.678 1.274a13 13 0 0 0 7.197-6.385z" class="cls-4" transform="translate(-304.229 -249.621)"/>
                        </g>
                        <path id="패스_37175" d="M385.979 274.791c3.149 0 4.539.9 4.539 4.125v7.644c0 1.464-1.552 2.326-3.149 2.326-1.676 0-3.23-.862-3.23-2.326v-5.677c0-.817-.766-.9-1.584-.9h-16.478c-1.434 0-2.008-1.194-2.008-2.58 0-1.432.574-2.617 2.008-2.617h8.7v-5h-13.251c-1.313 0-1.879-1.343-1.879-2.571 0-1.141.566-2.54 1.879-2.54h21.7a19.015 19.015 0 0 0 1.023-6.873v-.342c0-.9-.041-1.022-1.061-1.022h-17.75a2.275 2.275 0 0 1-2.164-2.536c0-1.553.733-2.658 2.164-2.658h21.091c2.7 0 3.637 1.228 3.637 3.559v1.11c0 3.68.217 6.514-.928 8.763h4.427c1.309 0 1.881 1.4 1.881 2.54 0 1.228-.572 2.571-1.881 2.571h-12.471v5z" class="cls-4" transform="translate(-270.106 -250.165)"/>
                    </g>
                </g>
                <g id="그룹_56198" transform="translate(25.36 26.315)">
                    <path id="패스_37176" d="M200.794 299.646c-2.948 0-3.96-1.083-3.96-3.827v-3.791c0-2.247 1.012-3.359 3.613-3.359h13.792c.736 0 .851-.117.851-.818v-.38c0-.619-.088-.735-.851-.735h-15.7c-1.271 0-1.848-1.046-1.848-2.36 0-1.28.578-2.364 1.848-2.364H217.6c2.774 0 3.591 1.2 3.591 3.525v3.827c0 2.469-.934 3.552-3.706 3.552H203.8c-.719 0-.834.076-.834.693v.465c0 .7.116.778.808.778h16.22c1.269 0 1.9 1.083 1.9 2.354 0 1.314-.631 2.441-1.9 2.441z" class="cls-4" transform="translate(-196.691 -282.01)"/>
                </g>
            </g>
        </g>
        <text id="_" fill="#ffd200" font-family="BMJUA, BM JUA_TTF" font-size="44px" transform="matrix(0.966, 0.259, -0.259, 0.966, 400.244, 34.394)">
            <tspan x="-6.49" y="0">!</tspan>
        </text>
    </g>
</svg>
