<svg xmlns="http://www.w3.org/2000/svg" width="80" height="80" viewBox="0 0 80 80">
    <defs>
        <style>
            .cls-2{fill:#ffe812}
        </style>
    </defs>
    <g id="그룹_65379" data-name="그룹 65379">
        <path id="사각형_10204" data-name="사각형 10204" style="fill:none" d="M0 0h80v80H0z"/>
        <g id="kakaotalk">
            <path id="패스_7051" data-name="패스 7051" class="cls-2" d="M80 73.75A6.25 6.25 0 0 1 73.75 80H6.25A6.25 6.25 0 0 1 0 73.75V6.25A6.25 6.25 0 0 1 6.25 0h67.5A6.25 6.25 0 0 1 80 6.25z"/>
            <path id="패스_7052" data-name="패스 7052" d="M56.5 36C38.551 36 24 47.473 24 61.625c0 9.15 6.083 17.178 15.234 21.712-.5 1.717-3.2 11.045-3.307 11.778 0 0-.065.551.292.761a.98.98 0 0 0 .776.047c1.023-.143 11.857-7.753 13.733-9.075a41.175 41.175 0 0 0 5.772.4C74.449 87.25 89 75.777 89 61.625S74.449 36 56.5 36z" transform="translate(-16.5 -24.75)"/>
            <path id="패스_7053" data-name="패스 7053" class="cls-2" d="M55.891 110.1a1.836 1.836 0 0 1-1.875-1.791V97.172H51.09a1.836 1.836 0 1 1 0-3.672h9.6a1.836 1.836 0 1 1 0 3.672h-2.924v11.139a1.836 1.836 0 0 1-1.875 1.789zm16.441-.024a1.538 1.538 0 0 1-1.56-.828l-.928-2.431h-5.718l-.926 2.433a1.537 1.537 0 0 1-1.559.827 2.861 2.861 0 0 1-1.192-.259c-.517-.238-1.014-.894-.444-2.663l4.485-11.8a2.612 2.612 0 0 1 5 0l4.483 11.8c.571 1.773.074 2.428-.443 2.666a2.867 2.867 0 0 1-1.192.258zm-3.475-6.58-1.873-5.32-1.873 5.32zm8.127 6.331a1.761 1.761 0 0 1-1.8-1.719V95.375a1.914 1.914 0 0 1 3.828 0v11.016H83a1.72 1.72 0 1 1 0 3.438zm10.417.249a1.877 1.877 0 0 1-1.875-1.875V95.375a1.875 1.875 0 0 1 3.75 0v4.03l5.231-5.231a1.456 1.456 0 0 1 1.04-.417 1.9 1.9 0 0 1 1.842 1.743 1.461 1.461 0 0 1-.414 1.142l-4.275 4.271 4.615 6.114a1.875 1.875 0 0 1-2.993 2.259l-4.4-5.826-.651.651v4.089a1.878 1.878 0 0 1-1.876 1.876z" transform="translate(-33.859 -64.281)"/>
        </g>
    </g>
</svg>
