<svg xmlns="http://www.w3.org/2000/svg" width="60" height="60" viewBox="0 0 60 60">
    <defs>
        <clipPath id="clip-path">
            <circle id="타원_1384" data-name="타원 1384" cx="30" cy="30" r="30" style="fill:none"/>
        </clipPath>
        <style>
            .cls-5{fill:#5d5d5d}.cls-7{fill:#fff}.cls-8{fill:#f9b54c}.cls-9{fill:#ffd15d}
        </style>
    </defs>
    <g id="그룹_58032" data-name="그룹 58032" transform="translate(-1134.268 -625.632)">
        <g id="circle" transform="translate(1134.268 625.632)">
            <circle id="타원_1383" data-name="타원 1383" cx="30" cy="30" r="30" style="fill:#fc6f58"/>
        </g>
        <g id="shadow" transform="translate(1134.268 625.632)">
            <g id="그룹_58034" data-name="그룹 58034" style="opacity:.2;mix-blend-mode:multiply;isolation:isolate">
                <g id="그룹_58033" data-name="그룹 58033" style="clip-path:url(#clip-path)">
                    <g id="그룹_58032-2" data-name="그룹 58032" transform="translate(17.419 18.429)">
                        <path id="패스_48070" data-name="패스 48070" class="cls-5" d="M1193.987 664.1h-21.67c-.935 0-1.692 1.2-1.692 2.672v19.2c0 1.476.757 2.672 1.692 2.672h21.67c.935 0 1.692-1.2 1.692-2.672v-19.2c0-1.479-.758-2.672-1.692-2.672z" transform="translate(-1170.625 -664.097)"/>
                        <path id="패스_48071" data-name="패스 48071" class="cls-5" d="M1194.562 664.847h-21.69c-.936 0-1.694 1.2-1.694 2.675v19.218c0 1.477.758 2.675 1.694 2.675h21.69c.936 0 1.694-1.2 1.694-2.675v-19.218c0-1.477-.756-2.675-1.694-2.675z" transform="translate(-1170.913 -664.488)"/>
                        <path id="패스_48072" data-name="패스 48072" class="cls-5" d="M1195.138 665.6h-21.712c-.937 0-1.7 1.2-1.7 2.678v19.237c0 1.479.759 2.678 1.7 2.678h21.712c.936 0 1.7-1.2 1.7-2.678v-19.24c-.005-1.475-.764-2.675-1.7-2.675z" transform="translate(-1171.201 -664.878)"/>
                        <path id="패스_48073" data-name="패스 48073" class="cls-5" d="M1195.713 666.347h-21.733c-.938 0-1.7 1.2-1.7 2.681v19.257c0 1.48.76 2.681 1.7 2.681h21.733c.938 0 1.7-1.2 1.7-2.681v-19.257c-.002-1.481-.762-2.681-1.7-2.681z" transform="translate(-1171.489 -665.269)"/>
                        <path id="패스_48074" data-name="패스 48074" class="cls-5" d="M1196.289 667.1h-21.754c-.939 0-1.7 1.2-1.7 2.683v19.277c0 1.482.76 2.683 1.7 2.683h21.754c.938 0 1.7-1.2 1.7-2.683v-19.28c-.001-1.48-.762-2.68-1.7-2.68z" transform="translate(-1171.777 -665.66)"/>
                        <path id="패스_48075" data-name="패스 48075" class="cls-5" d="M1196.864 667.847h-21.776c-.939 0-1.7 1.2-1.7 2.686v19.3c0 1.483.762 2.686 1.7 2.686h21.776c.939 0 1.7-1.2 1.7-2.686v-19.3c.001-1.483-.764-2.686-1.7-2.686z" transform="translate(-1172.064 -666.05)"/>
                        <path id="패스_48076" data-name="패스 48076" class="cls-5" d="M1197.44 668.6h-21.8c-.94 0-1.7 1.2-1.7 2.689V690.6c0 1.485.762 2.689 1.7 2.689h21.8c.941 0 1.7-1.2 1.7-2.689v-19.314c.002-1.486-.76-2.686-1.7-2.686z" transform="translate(-1172.352 -666.441)"/>
                        <path id="패스_48077" data-name="패스 48077" class="cls-5" d="M1198.015 669.347H1176.2c-.941 0-1.7 1.2-1.7 2.692v19.335c0 1.487.763 2.692 1.7 2.692h21.817c.941 0 1.7-1.2 1.7-2.692v-19.335c.002-1.487-.76-2.692-1.702-2.692z" transform="translate(-1172.64 -666.832)"/>
                        <path id="패스_48078" data-name="패스 48078" class="cls-5" d="M1198.591 670.1h-21.839c-.942 0-1.706 1.206-1.706 2.694v19.356c0 1.488.764 2.694 1.706 2.694h21.839c.942 0 1.706-1.206 1.706-2.694v-19.359c.003-1.491-.764-2.691-1.706-2.691z" transform="translate(-1172.928 -667.222)"/>
                        <path id="패스_48079" data-name="패스 48079" class="cls-5" d="M1199.166 670.847h-21.86c-.943 0-1.708 1.207-1.708 2.7v19.375c0 1.49.765 2.7 1.708 2.7h21.86c.943 0 1.708-1.208 1.708-2.7v-19.378c0-1.49-.765-2.697-1.708-2.697z" transform="translate(-1173.216 -667.613)"/>
                        <path id="패스_48080" data-name="패스 48080" class="cls-5" d="M1199.742 671.6h-21.881c-.944 0-1.709 1.209-1.709 2.7v19.395c0 1.491.765 2.7 1.709 2.7h21.881c.944 0 1.709-1.209 1.709-2.7V674.3c0-1.494-.765-2.7-1.709-2.7z" transform="translate(-1173.504 -668.004)"/>
                        <path id="패스_48081" data-name="패스 48081" class="cls-5" d="M1200.318 672.347h-21.9c-.945 0-1.71 1.21-1.71 2.7v19.415c0 1.492.766 2.7 1.71 2.7h21.9c.945 0 1.711-1.21 1.711-2.7v-19.413c0-1.492-.767-2.702-1.711-2.702z" transform="translate(-1173.792 -668.394)"/>
                        <path id="패스_48082" data-name="패스 48082" class="cls-5" d="M1200.893 673.1h-21.924c-.945 0-1.712 1.211-1.712 2.705v19.435c0 1.494.767 2.705 1.712 2.705h21.924c.946 0 1.712-1.211 1.712-2.705V675.8c0-1.492-.766-2.7-1.712-2.7z" transform="translate(-1174.08 -668.785)"/>
                        <path id="패스_48083" data-name="패스 48083" class="cls-5" d="M1201.469 673.847h-21.945c-.947 0-1.714 1.212-1.714 2.708v19.454c0 1.5.767 2.708 1.714 2.708h21.945c.947 0 1.714-1.212 1.714-2.708v-19.454c0-1.496-.767-2.708-1.714-2.708z" transform="translate(-1174.368 -669.176)"/>
                        <path id="패스_48084" data-name="패스 48084" class="cls-5" d="M1202.044 674.6h-21.966c-.948 0-1.716 1.214-1.716 2.711v19.474c0 1.5.768 2.711 1.716 2.711h21.966c.948 0 1.716-1.214 1.716-2.711v-19.477c0-1.497-.768-2.708-1.716-2.708z" transform="translate(-1174.656 -669.566)"/>
                        <path id="패스_48085" data-name="패스 48085" class="cls-5" d="M1202.62 675.347h-21.987c-.948 0-1.717 1.215-1.717 2.713v19.494c0 1.5.769 2.714 1.717 2.714h21.987c.948 0 1.717-1.215 1.717-2.714V678.06c0-1.498-.769-2.713-1.717-2.713z" transform="translate(-1174.944 -669.957)"/>
                        <path id="패스_48086" data-name="패스 48086" class="cls-5" d="M1203.2 676.1h-22.008c-.949 0-1.719 1.216-1.719 2.716v19.514c0 1.5.77 2.716 1.719 2.716h22.008c.949 0 1.719-1.216 1.719-2.716v-19.517c-.005-1.5-.774-2.713-1.719-2.713z" transform="translate(-1175.231 -670.348)"/>
                        <path id="패스_48087" data-name="패스 48087" class="cls-5" d="M1203.771 676.847h-22.029c-.95 0-1.72 1.217-1.72 2.719V699.1c0 1.5.77 2.719 1.72 2.719h22.029c.951 0 1.721-1.217 1.721-2.719v-19.534c0-1.502-.771-2.719-1.721-2.719z" transform="translate(-1175.519 -670.739)"/>
                        <path id="패스_48088" data-name="패스 48088" class="cls-5" d="M1204.347 677.6H1182.3c-.951 0-1.722 1.218-1.722 2.722v19.553c0 1.5.771 2.722 1.722 2.722h22.051c.951 0 1.722-1.219 1.722-2.722v-19.556c-.004-1.504-.773-2.719-1.726-2.719z" transform="translate(-1175.807 -671.129)"/>
                        <path id="패스_48089" data-name="패스 48089" class="cls-5" d="M1204.922 678.347h-22.072c-.952 0-1.724 1.22-1.724 2.724v19.573c0 1.5.772 2.724 1.724 2.724h22.071c.952 0 1.724-1.22 1.724-2.724v-19.573c.001-1.504-.771-2.724-1.723-2.724z" transform="translate(-1176.095 -671.52)"/>
                        <path id="패스_48090" data-name="패스 48090" class="cls-5" d="M1205.5 679.1h-22.1c-.953 0-1.726 1.221-1.726 2.727v19.593c0 1.506.773 2.727 1.726 2.727h22.1c.953 0 1.725-1.221 1.725-2.727v-19.596c-.002-1.506-.774-2.724-1.725-2.724z" transform="translate(-1176.383 -671.911)"/>
                        <path id="패스_48091" data-name="패스 48091" class="cls-5" d="M1206.073 679.847h-22.114c-.954 0-1.727 1.222-1.727 2.73v19.612c0 1.508.773 2.73 1.727 2.73h22.114c.954 0 1.727-1.223 1.727-2.73v-19.612c0-1.508-.773-2.73-1.727-2.73z" transform="translate(-1176.671 -672.301)"/>
                        <path id="패스_48092" data-name="패스 48092" class="cls-5" d="M1206.649 680.6h-22.135c-.955 0-1.729 1.223-1.729 2.733v19.631c0 1.51.774 2.733 1.729 2.733h22.135c.955 0 1.729-1.223 1.729-2.733V683.33c0-1.51-.778-2.73-1.729-2.73z" transform="translate(-1176.959 -672.692)"/>
                        <path id="패스_48093" data-name="패스 48093" class="cls-5" d="M1207.224 681.347h-22.157c-.956 0-1.73 1.225-1.73 2.735v19.652c0 1.511.775 2.736 1.73 2.736h22.157c.956 0 1.73-1.224 1.73-2.736v-19.652c.001-1.51-.774-2.735-1.73-2.735z" transform="translate(-1177.247 -673.083)"/>
                        <path id="패스_48094" data-name="패스 48094" class="cls-5" d="M1207.8 682.1h-22.178c-.956 0-1.732 1.226-1.732 2.738v19.671c0 1.513.776 2.739 1.732 2.739h22.178c.957 0 1.732-1.226 1.732-2.739v-19.674c0-1.512-.775-2.735-1.732-2.735z" transform="translate(-1177.535 -673.473)"/>
                        <path id="패스_48095" data-name="패스 48095" class="cls-5" d="M1208.376 682.847h-22.2c-.958 0-1.734 1.227-1.734 2.741v19.691c0 1.514.776 2.741 1.734 2.741h22.2c.957 0 1.733-1.227 1.733-2.741v-19.691c0-1.514-.776-2.741-1.733-2.741z" transform="translate(-1177.823 -673.864)"/>
                        <path id="패스_48096" data-name="패스 48096" class="cls-5" d="M1208.951 683.6h-22.22c-.959 0-1.736 1.228-1.736 2.744v19.711c0 1.515.777 2.744 1.736 2.744h22.22c.959 0 1.735-1.228 1.735-2.744v-19.714c0-1.516-.776-2.741-1.735-2.741z" transform="translate(-1178.11 -674.255)"/>
                        <path id="패스_48097" data-name="패스 48097" class="cls-5" d="M1209.526 684.347h-22.241c-.959 0-1.737 1.229-1.737 2.746v19.731c0 1.517.778 2.747 1.737 2.747h22.241c.959 0 1.737-1.23 1.737-2.747v-19.731c.001-1.517-.777-2.746-1.737-2.746z" transform="translate(-1178.398 -674.645)"/>
                        <path id="패스_48098" data-name="패스 48098" class="cls-5" d="M1210.1 685.1h-22.26c-.96 0-1.739 1.231-1.739 2.749V707.6c0 1.518.778 2.749 1.739 2.749h22.26c.96 0 1.739-1.231 1.739-2.749v-19.75c.002-1.522-.777-2.75-1.739-2.75z" transform="translate(-1178.687 -675.036)"/>
                        <path id="패스_48099" data-name="패스 48099" class="cls-5" d="M1210.678 685.847h-22.284c-.961 0-1.74 1.232-1.74 2.752v19.77c0 1.52.779 2.752 1.74 2.752h22.284c.961 0 1.741-1.232 1.741-2.752V688.6c-.001-1.521-.78-2.753-1.741-2.753z" transform="translate(-1178.975 -675.427)"/>
                        <path id="패스_48100" data-name="패스 48100" class="cls-5" d="M1211.253 686.6h-22.305c-.962 0-1.742 1.233-1.742 2.754v19.79c0 1.521.78 2.755 1.742 2.755h22.305c.962 0 1.742-1.234 1.742-2.755v-19.79c.005-1.524-.78-2.754-1.742-2.754z" transform="translate(-1179.262 -675.817)"/>
                        <path id="패스_48101" data-name="패스 48101" class="cls-5" d="M1211.829 687.347H1189.5c-.963 0-1.744 1.235-1.744 2.757v19.81c0 1.523.781 2.757 1.744 2.757h22.326c.963 0 1.744-1.235 1.744-2.757V690.1c.003-1.518-.778-2.753-1.741-2.753z" transform="translate(-1179.55 -676.208)"/>
                        <path id="패스_48102" data-name="패스 48102" class="cls-5" d="M1212.4 688.1h-22.347c-.964 0-1.745 1.236-1.745 2.76v19.829c0 1.525.781 2.76 1.745 2.76h22.347c.964 0 1.745-1.236 1.745-2.76v-19.832c.005-1.524-.777-2.757-1.745-2.757z" transform="translate(-1179.838 -676.599)"/>
                        <path id="패스_48103" data-name="패스 48103" class="cls-5" d="M1212.98 688.847h-22.368c-.965 0-1.747 1.237-1.747 2.763v19.849c0 1.526.782 2.763 1.747 2.763h22.368c.965 0 1.747-1.237 1.747-2.763V691.61c0-1.526-.782-2.763-1.747-2.763z" transform="translate(-1180.126 -676.989)"/>
                        <path id="패스_48104" data-name="패스 48104" class="cls-5" d="M1213.555 689.6h-22.39c-.966 0-1.749 1.238-1.749 2.765v19.869c0 1.527.783 2.765 1.749 2.765h22.39c.966 0 1.749-1.238 1.749-2.765v-19.872c-.004-1.527-.783-2.762-1.749-2.762z" transform="translate(-1180.414 -677.38)"/>
                        <path id="패스_48105" data-name="패스 48105" class="cls-5" d="M1214.131 690.347h-22.411c-.966 0-1.75 1.24-1.75 2.768V713c0 1.529.784 2.768 1.75 2.768h22.411c.966 0 1.75-1.24 1.75-2.768v-19.885c0-1.529-.781-2.768-1.75-2.768z" transform="translate(-1180.702 -677.771)"/>
                        <path id="패스_48106" data-name="패스 48106" class="cls-5" d="M1214.707 691.1h-22.432c-.968 0-1.752 1.24-1.752 2.771v19.908c0 1.531.784 2.772 1.752 2.772h22.432c.968 0 1.752-1.241 1.752-2.772v-19.911c0-1.531-.784-2.768-1.752-2.768z" transform="translate(-1180.99 -678.161)"/>
                        <path id="패스_48107" data-name="패스 48107" class="cls-5" d="M1215.282 691.847h-22.453c-.969 0-1.754 1.242-1.754 2.774v19.928c0 1.532.785 2.774 1.754 2.774h22.453c.969 0 1.754-1.242 1.754-2.774v-19.928c0-1.532-.785-2.774-1.754-2.774z" transform="translate(-1181.277 -678.552)"/>
                        <path id="패스_48108" data-name="패스 48108" class="cls-5" d="M1215.858 692.6h-22.474c-.97 0-1.755 1.243-1.755 2.776v19.948c0 1.534.786 2.777 1.755 2.777h22.474c.969 0 1.755-1.243 1.755-2.777v-19.951c0-1.533-.786-2.773-1.755-2.773z" transform="translate(-1181.566 -678.943)"/>
                        <path id="패스_48109" data-name="패스 48109" class="cls-5" d="M1216.433 693.347h-22.5c-.97 0-1.757 1.244-1.757 2.779v19.967c0 1.535.787 2.78 1.757 2.78h22.5c.97 0 1.757-1.245 1.757-2.78v-19.967c0-1.535-.79-2.779-1.757-2.779z" transform="translate(-1181.854 -679.333)"/>
                        <path id="패스_48110" data-name="패스 48110" class="cls-5" d="M1217.009 694.1h-22.516c-.971 0-1.758 1.246-1.758 2.782v19.987c0 1.536.787 2.782 1.758 2.782h22.516c.972 0 1.759-1.246 1.759-2.782v-19.99c0-1.536-.788-2.779-1.759-2.779z" transform="translate(-1182.142 -679.724)"/>
                        <path id="패스_48111" data-name="패스 48111" class="cls-5" d="M1217.584 694.847h-22.538c-.972 0-1.76 1.247-1.76 2.785v20.007c0 1.538.788 2.785 1.76 2.785h22.538c.972 0 1.76-1.247 1.76-2.785v-20.007c0-1.538-.788-2.785-1.76-2.785z" transform="translate(-1182.429 -680.115)"/>
                        <path id="패스_48112" data-name="패스 48112" class="cls-5" d="M1218.16 695.6h-22.56c-.974 0-1.762 1.248-1.762 2.787v20.027c0 1.54.789 2.788 1.762 2.788h22.559c.973 0 1.762-1.248 1.762-2.788v-20.03c.001-1.539-.788-2.784-1.761-2.784z" transform="translate(-1182.717 -680.505)"/>
                        <path id="패스_48113" data-name="패스 48113" class="cls-5" d="M1218.736 696.347h-22.58c-.974 0-1.764 1.249-1.764 2.79v20.046c0 1.541.79 2.79 1.764 2.79h22.58c.974 0 1.764-1.249 1.764-2.79v-20.046c0-1.537-.79-2.79-1.764-2.79z" transform="translate(-1183.005 -680.896)"/>
                        <path id="패스_48114" data-name="패스 48114" class="cls-5" d="M1219.311 697.1h-22.6c-.975 0-1.766 1.25-1.766 2.793v20.066c0 1.543.791 2.793 1.766 2.793h22.6c.975 0 1.766-1.25 1.766-2.793V699.89c-.001-1.543-.791-2.79-1.766-2.79z" transform="translate(-1183.293 -681.287)"/>
                        <path id="패스_48115" data-name="패스 48115" class="cls-5" d="M1219.886 697.847h-22.622c-.976 0-1.767 1.251-1.767 2.8v20.086c0 1.544.791 2.8 1.767 2.8h22.622c.976 0 1.767-1.252 1.767-2.8v-20.09c0-1.543-.791-2.796-1.767-2.796z" transform="translate(-1183.581 -681.677)"/>
                        <path id="패스_48116" data-name="패스 48116" class="cls-5" d="M1220.462 698.6h-22.644c-.976 0-1.768 1.253-1.768 2.8v20.1c0 1.546.792 2.8 1.768 2.8h22.644c.977 0 1.768-1.253 1.768-2.8v-20.1c.001-1.55-.791-2.8-1.768-2.8z" transform="translate(-1183.869 -682.068)"/>
                        <path id="패스_48117" data-name="패스 48117" class="cls-5" d="M1221.038 699.347h-22.665c-.977 0-1.77 1.254-1.77 2.8v20.125c0 1.547.792 2.8 1.77 2.8h22.665c.978 0 1.77-1.254 1.77-2.8v-20.124c0-1.548-.792-2.801-1.77-2.801z" transform="translate(-1184.157 -682.459)"/>
                        <path id="패스_48118" data-name="패스 48118" class="cls-5" d="M1221.613 700.1h-22.686c-.979 0-1.772 1.255-1.772 2.8v20.145c0 1.548.793 2.8 1.772 2.8h22.686c.978 0 1.772-1.256 1.772-2.8V702.9c0-1.548-.793-2.8-1.772-2.8z" transform="translate(-1184.445 -682.849)"/>
                        <path id="패스_48119" data-name="패스 48119" class="cls-5" d="M1222.189 700.847h-22.707c-.98 0-1.774 1.257-1.774 2.807v20.165c0 1.55.794 2.807 1.774 2.807h22.707c.979 0 1.774-1.257 1.774-2.807v-20.165c0-1.554-.795-2.807-1.774-2.807z" transform="translate(-1184.733 -683.24)"/>
                        <path id="패스_48120" data-name="패스 48120" class="cls-5" d="M1222.764 701.6h-22.728c-.98 0-1.775 1.258-1.775 2.809v20.185c0 1.551.795 2.809 1.775 2.809h22.728c.981 0 1.776-1.258 1.776-2.809v-20.188c0-1.551-.795-2.806-1.776-2.806z" transform="translate(-1185.021 -683.631)"/>
                        <path id="패스_48121" data-name="패스 48121" class="cls-5" d="M1223.34 702.347h-22.75c-.981 0-1.777 1.259-1.777 2.812v20.2c0 1.553.8 2.813 1.777 2.813h22.75c.981 0 1.777-1.26 1.777-2.813v-20.2c0-1.553-.796-2.812-1.777-2.812z" transform="translate(-1185.308 -684.022)"/>
                        <path id="패스_48122" data-name="패스 48122" class="cls-5" d="M1223.915 703.1h-22.771c-.982 0-1.778 1.26-1.778 2.815v20.224c0 1.555.8 2.815 1.778 2.815h22.771c.982 0 1.778-1.26 1.778-2.815v-20.227c.001-1.555-.793-2.812-1.778-2.812z" transform="translate(-1185.596 -684.412)"/>
                        <path id="패스_48123" data-name="패스 48123" class="cls-5" d="M1224.491 703.847H1201.7c-.983 0-1.78 1.261-1.78 2.818v20.244c0 1.557.8 2.818 1.78 2.818h22.793c.983 0 1.78-1.261 1.78-2.818v-20.244c-.002-1.557-.799-2.818-1.782-2.818z" transform="translate(-1185.884 -684.803)"/>
                        <path id="패스_48124" data-name="패스 48124" class="cls-5" d="M1225.067 704.6h-22.813c-.984 0-1.782 1.263-1.782 2.82v20.263c0 1.558.8 2.821 1.782 2.821h22.813c.984 0 1.782-1.263 1.782-2.821v-20.266c0-1.557-.798-2.817-1.782-2.817z" transform="translate(-1186.172 -685.194)"/>
                        <path id="패스_48125" data-name="패스 48125" class="cls-5" d="M1225.642 705.347h-22.834c-.985 0-1.784 1.264-1.784 2.823v20.283c0 1.559.8 2.823 1.784 2.823h22.834c.985 0 1.784-1.264 1.784-2.823V708.17c0-1.559-.799-2.823-1.784-2.823z" transform="translate(-1186.46 -685.584)"/>
                        <path id="패스_48126" data-name="패스 48126" class="cls-5" d="M1226.218 706.1h-22.856c-.986 0-1.785 1.265-1.785 2.826v20.3c0 1.561.8 2.826 1.785 2.826h22.856c.986 0 1.785-1.265 1.785-2.826v-20.3c-.003-1.564-.803-2.826-1.785-2.826z" transform="translate(-1186.748 -685.975)"/>
                        <path id="패스_48127" data-name="패스 48127" class="cls-5" d="M1226.793 706.847h-22.877c-.987 0-1.786 1.266-1.786 2.829V730c0 1.562.8 2.829 1.786 2.829h22.877c.987 0 1.787-1.267 1.787-2.829v-20.324c0-1.563-.8-2.829-1.787-2.829z" transform="translate(-1187.036 -686.366)"/>
                        <path id="패스_48128" data-name="패스 48128" class="cls-5" d="M1227.369 707.6h-22.9c-.987 0-1.788 1.268-1.788 2.831v20.342c0 1.564.8 2.832 1.788 2.832h22.9c.987 0 1.788-1.268 1.788-2.832v-20.345c0-1.563-.801-2.828-1.788-2.828z" transform="translate(-1187.324 -686.756)"/>
                        <path id="패스_48129" data-name="패스 48129" class="cls-5" d="M1227.944 708.347h-22.919c-.988 0-1.79 1.269-1.79 2.834v20.362c0 1.565.8 2.834 1.79 2.834h22.919c.989 0 1.79-1.269 1.79-2.834v-20.362c0-1.565-.801-2.834-1.79-2.834z" transform="translate(-1187.612 -687.147)"/>
                        <path id="패스_48130" data-name="패스 48130" class="cls-5" d="M1228.52 709.1h-22.94c-.99 0-1.792 1.27-1.792 2.837v20.382c0 1.567.8 2.837 1.792 2.837h22.94c.99 0 1.792-1.271 1.792-2.837v-20.385c0-1.567-.802-2.834-1.792-2.834z" transform="translate(-1187.9 -687.538)"/>
                        <path id="패스_48131" data-name="패스 48131" class="cls-5" d="M1229.1 709.847h-22.962c-.99 0-1.793 1.272-1.793 2.84v20.4c0 1.568.8 2.84 1.793 2.84h22.962c.99 0 1.793-1.272 1.793-2.84v-20.4c-.004-1.568-.807-2.84-1.793-2.84z" transform="translate(-1188.188 -687.928)"/>
                        <path id="패스_48132" data-name="패스 48132" class="cls-5" d="M1229.671 710.6h-22.983c-.991 0-1.8 1.273-1.8 2.842v20.422c0 1.57.8 2.843 1.8 2.843h22.983c.991 0 1.8-1.272 1.8-2.843v-20.425c-.005-1.569-.809-2.839-1.8-2.839z" transform="translate(-1188.475 -688.319)"/>
                        <path id="패스_48133" data-name="패스 48133" class="cls-5" d="M1230.247 711.347h-23c-.992 0-1.8 1.274-1.8 2.845v20.441c0 1.571.8 2.845 1.8 2.845h23c.992 0 1.8-1.274 1.8-2.845v-20.441c-.003-1.571-.808-2.845-1.8-2.845z" transform="translate(-1188.763 -688.71)"/>
                        <path id="패스_48134" data-name="패스 48134" class="cls-5" d="M1230.823 712.1H1207.8c-.993 0-1.8 1.275-1.8 2.848v20.461c0 1.573.8 2.848 1.8 2.848h23.025c.993 0 1.8-1.275 1.8-2.848v-20.464c-.004-1.573-.809-2.845-1.802-2.845z" transform="translate(-1189.051 -689.1)"/>
                        <path id="패스_48135" data-name="패스 48135" class="cls-5" d="M1231.4 712.847h-23.047c-.994 0-1.8 1.276-1.8 2.851v20.48c0 1.575.806 2.851 1.8 2.851h23.047c.994 0 1.8-1.276 1.8-2.851V715.7c0-1.577-.808-2.853-1.8-2.853z" transform="translate(-1189.339 -689.491)"/>
                        <path id="패스_48136" data-name="패스 48136" class="cls-5" d="M1231.973 713.6h-23.068c-.995 0-1.8 1.277-1.8 2.854v20.5c0 1.576.807 2.854 1.8 2.854h23.068c1 0 1.8-1.278 1.8-2.854v-20.5c.002-1.58-.804-2.854-1.8-2.854z" transform="translate(-1189.627 -689.882)"/>
                        <path id="패스_48137" data-name="패스 48137" class="cls-5" d="M1232.549 714.347h-23.089c-1 0-1.8 1.279-1.8 2.856v20.52c0 1.578.807 2.856 1.8 2.856h23.089c1 0 1.8-1.279 1.8-2.856V717.2c.003-1.574-.804-2.853-1.8-2.853z" transform="translate(-1189.915 -690.272)"/>
                        <path id="패스_48138" data-name="패스 48138" class="cls-5" d="M1233.125 715.1h-23.11c-1 0-1.8 1.28-1.8 2.859V738.5c0 1.579.808 2.859 1.8 2.859h23.11c1 0 1.8-1.28 1.8-2.859v-20.54c.005-1.583-.804-2.86-1.8-2.86z" transform="translate(-1190.203 -690.663)"/>
                        <path id="패스_48139" data-name="패스 48139" class="cls-5" d="M1233.7 715.847h-23.131c-1 0-1.807 1.281-1.807 2.862v20.56c0 1.581.809 2.862 1.807 2.862h23.131c1 0 1.807-1.282 1.807-2.862v-20.56c0-1.581-.807-2.862-1.807-2.862z" transform="translate(-1190.491 -691.054)"/>
                        <path id="패스_48140" data-name="패스 48140" class="cls-5" d="M1234.275 716.6h-23.152c-1 0-1.808 1.283-1.808 2.865v20.579c0 1.582.81 2.865 1.808 2.865h23.152c1 0 1.809-1.283 1.809-2.865v-20.583c0-1.581-.81-2.861-1.809-2.861z" transform="translate(-1190.779 -691.444)"/>
                        <path id="패스_48141" data-name="패스 48141" class="cls-5" d="M1234.852 717.347h-23.174c-1 0-1.81 1.284-1.81 2.867v20.6c0 1.583.81 2.867 1.81 2.867h23.174c1 0 1.81-1.284 1.81-2.867v-20.6c-.001-1.584-.811-2.867-1.81-2.867z" transform="translate(-1191.067 -691.835)"/>
                        <path id="패스_48142" data-name="패스 48142" class="cls-5" d="M1235.427 718.1h-23.195c-1 0-1.812 1.285-1.812 2.87v20.619c0 1.585.811 2.87 1.812 2.87h23.195c1 0 1.812-1.285 1.812-2.87v-20.622c-.001-1.585-.812-2.867-1.812-2.867z" transform="translate(-1191.354 -692.226)"/>
                        <path id="패스_48143" data-name="패스 48143" class="cls-5" d="M1236 718.847h-23.216c-1 0-1.813 1.286-1.813 2.873v20.639c0 1.587.812 2.873 1.813 2.873H1236c1 0 1.813-1.286 1.813-2.873V721.72c.002-1.587-.813-2.873-1.813-2.873z" transform="translate(-1191.642 -692.616)"/>
                        <path id="패스_48144" data-name="패스 48144" class="cls-5" d="M1236.578 719.6h-23.237c-1 0-1.815 1.287-1.815 2.876v20.658c0 1.588.813 2.875 1.815 2.875h23.237c1 0 1.815-1.287 1.815-2.875v-20.661c0-1.589-.813-2.873-1.815-2.873z" transform="translate(-1191.93 -693.007)"/>
                        <path id="패스_48145" data-name="패스 48145" class="cls-5" d="M1237.154 720.347H1213.9c-1 0-1.816 1.288-1.816 2.878V743.9c0 1.59.813 2.878 1.816 2.878h23.258c1 0 1.817-1.289 1.817-2.878v-20.675c-.005-1.59-.818-2.878-1.821-2.878z" transform="translate(-1192.219 -693.398)"/>
                        <path id="패스_48146" data-name="패스 48146" class="cls-5" d="M1237.729 721.1h-23.28c-1 0-1.818 1.29-1.818 2.881v20.7c0 1.591.814 2.881 1.818 2.881h23.28c1 0 1.818-1.29 1.818-2.881v-20.7c0-1.594-.814-2.881-1.818-2.881z" transform="translate(-1192.506 -693.788)"/>
                        <path id="패스_48147" data-name="패스 48147" class="cls-5" d="M1238.3 721.847H1215c-1.005 0-1.82 1.291-1.82 2.884v20.718c0 1.593.815 2.884 1.82 2.884h23.3c1.005 0 1.82-1.291 1.82-2.884v-20.718c.005-1.593-.81-2.884-1.82-2.884z" transform="translate(-1192.794 -694.179)"/>
                        <path id="패스_48148" data-name="패스 48148" class="cls-5" d="M1238.88 722.6h-23.322c-1.006 0-1.822 1.292-1.822 2.887v20.737c0 1.594.815 2.887 1.822 2.887h23.322c1.006 0 1.822-1.293 1.822-2.887v-20.74c-.002-1.595-.816-2.884-1.822-2.884z" transform="translate(-1193.082 -694.57)"/>
                        <path id="패스_48149" data-name="패스 48149" class="cls-5" d="M1239.456 723.347h-23.343c-1.007 0-1.823 1.294-1.823 2.889v20.757c0 1.6.816 2.889 1.823 2.889h23.343c1.007 0 1.823-1.293 1.823-2.889v-20.757c0-1.595-.816-2.889-1.823-2.889z" transform="translate(-1193.37 -694.961)"/>
                        <path id="패스_48150" data-name="패스 48150" class="cls-5" d="M1240.031 724.1h-23.364c-1.008 0-1.825 1.295-1.825 2.892v20.777c0 1.6.817 2.892 1.825 2.892h23.364c1.008 0 1.825-1.295 1.825-2.892v-20.78c0-1.597-.817-2.889-1.825-2.889z" transform="translate(-1193.658 -695.351)"/>
                        <path id="패스_48151" data-name="패스 48151" class="cls-5" d="M1240.607 724.847h-23.386c-1.009 0-1.826 1.3-1.826 2.895v20.8c0 1.6.818 2.9 1.826 2.9h23.386c1.008 0 1.826-1.3 1.826-2.9v-20.8c0-1.599-.818-2.895-1.826-2.895z" transform="translate(-1193.946 -695.742)"/>
                        <path id="패스_48152" data-name="패스 48152" class="cls-5" d="M1241.182 725.6h-23.407c-1.009 0-1.828 1.3-1.828 2.9v20.81c0 1.6.818 2.9 1.828 2.9h23.407c1.009 0 1.828-1.3 1.828-2.9v-20.815c.001-1.601-.818-2.895-1.828-2.895z" transform="translate(-1194.234 -696.133)"/>
                        <path id="패스_48153" data-name="패스 48153" class="cls-5" d="M1241.758 726.347h-23.428c-1.011 0-1.83 1.3-1.83 2.9v20.836c0 1.6.819 2.9 1.83 2.9h23.427c1.011 0 1.83-1.3 1.83-2.9v-20.836c.001-1.602-.819-2.9-1.829-2.9z" transform="translate(-1194.521 -696.523)"/>
                        <path id="패스_48154" data-name="패스 48154" class="cls-5" d="M1242.333 727.1h-23.449c-1.011 0-1.832 1.3-1.832 2.9v20.856c0 1.6.82 2.9 1.832 2.9h23.449c1.011 0 1.832-1.3 1.832-2.9V730c0-1.6-.82-2.9-1.832-2.9z" transform="translate(-1194.809 -696.914)"/>
                        <path id="패스_48155" data-name="패스 48155" class="cls-5" d="M1242.909 727.847h-23.47c-1.012 0-1.833 1.3-1.833 2.906v20.875c0 1.6.821 2.906 1.833 2.906h23.47c1.012 0 1.833-1.3 1.833-2.906v-20.875c0-1.605-.821-2.906-1.833-2.906z" transform="translate(-1195.098 -697.305)"/>
                        <path id="패스_48156" data-name="패스 48156" class="cls-5" d="M1243.485 728.6h-23.492c-1.013 0-1.834 1.3-1.834 2.909V752.4c0 1.606.821 2.909 1.834 2.909h23.492c1.013 0 1.834-1.3 1.834-2.909v-20.894c0-1.606-.819-2.906-1.834-2.906z" transform="translate(-1195.385 -697.695)"/>
                        <path id="패스_48157" data-name="패스 48157" class="cls-5" d="M1244.06 729.347h-23.513c-1.014 0-1.836 1.3-1.836 2.911v20.915c0 1.608.822 2.911 1.836 2.911h23.513c1.014 0 1.836-1.3 1.836-2.911v-20.915c.004-1.608-.822-2.911-1.836-2.911z" transform="translate(-1195.673 -698.086)"/>
                        <path id="패스_48158" data-name="패스 48158" class="cls-5" d="M1244.635 730.1H1221.1c-1.015 0-1.838 1.3-1.838 2.914v20.935c0 1.609.823 2.914 1.838 2.914h23.534c1.015 0 1.838-1.3 1.838-2.914v-20.938c.002-1.611-.821-2.911-1.837-2.911z" transform="translate(-1195.961 -698.477)"/>
                        <path id="패스_48159" data-name="패스 48159" class="cls-5" d="M1245.212 730.847h-23.555c-1.016 0-1.84 1.306-1.84 2.917v20.954c0 1.611.824 2.917 1.84 2.917h23.555c1.016 0 1.84-1.306 1.84-2.917v-20.954c-.001-1.611-.824-2.917-1.84-2.917z" transform="translate(-1196.249 -698.867)"/>
                        <path id="패스_48160" data-name="패스 48160" class="cls-5" d="M1245.786 731.6h-23.576c-1.017 0-1.842 1.307-1.842 2.92v20.97c0 1.612.824 2.92 1.842 2.92h23.576c1.017 0 1.842-1.307 1.842-2.92v-20.973c0-1.617-.828-2.917-1.842-2.917z" transform="translate(-1196.537 -699.258)"/>
                        <path id="패스_48161" data-name="패스 48161" class="cls-5" d="M1246.363 732.347h-23.6c-1.018 0-1.843 1.308-1.843 2.922v20.994c0 1.614.825 2.922 1.843 2.922h23.6c1.018 0 1.843-1.308 1.843-2.922v-20.994c-.001-1.614-.826-2.922-1.843-2.922z" transform="translate(-1196.825 -699.649)"/>
                        <path id="패스_48162" data-name="패스 48162" class="cls-5" d="M1246.938 733.1h-23.619c-1.019 0-1.844 1.309-1.844 2.925v21.014c0 1.616.826 2.925 1.844 2.925h23.619c1.019 0 1.844-1.309 1.844-2.925v-21.017c0-1.616-.825-2.922-1.844-2.922z" transform="translate(-1197.113 -700.039)"/>
                        <path id="패스_48163" data-name="패스 48163" class="cls-5" d="M1247.513 733.847h-23.64c-1.019 0-1.846 1.311-1.846 2.928v21.033c0 1.617.827 2.928 1.846 2.928h23.64c1.02 0 1.847-1.311 1.847-2.928v-21.033c0-1.617-.827-2.928-1.847-2.928z" transform="translate(-1197.401 -700.43)"/>
                        <path id="패스_48164" data-name="패스 48164" class="cls-5" d="M1248.089 734.6h-23.661c-1.02 0-1.848 1.312-1.848 2.93v21.053c0 1.618.828 2.93 1.848 2.93h23.661c1.02 0 1.848-1.312 1.848-2.93v-21.056c0-1.618-.828-2.927-1.848-2.927z" transform="translate(-1197.688 -700.821)"/>
                        <path id="패스_48165" data-name="패스 48165" class="cls-5" d="M1248.665 735.347h-23.682c-1.022 0-1.85 1.313-1.85 2.933v21.073c0 1.62.828 2.933 1.85 2.933h23.682c1.021 0 1.85-1.313 1.85-2.933V738.28c-.001-1.62-.829-2.933-1.85-2.933z" transform="translate(-1197.977 -701.211)"/>
                        <path id="패스_48166" data-name="패스 48166" class="cls-5" d="M1249.24 736.1h-23.7c-1.022 0-1.851 1.314-1.851 2.936v21.092c0 1.622.829 2.936 1.851 2.936h23.7c1.022 0 1.851-1.315 1.851-2.936v-21.095c.001-1.622-.828-2.933-1.851-2.933z" transform="translate(-1198.265 -701.602)"/>
                        <path id="패스_48167" data-name="패스 48167" class="cls-5" d="M1249.816 736.847h-23.724c-1.023 0-1.853 1.316-1.853 2.939V760.9c0 1.623.83 2.939 1.853 2.939h23.724c1.023 0 1.853-1.316 1.853-2.939v-21.114c0-1.623-.83-2.939-1.853-2.939z" transform="translate(-1198.552 -701.993)"/>
                        <path id="패스_48168" data-name="패스 48168" class="cls-5" d="M1250.391 737.6h-23.746c-1.024 0-1.854 1.317-1.854 2.941v21.129c0 1.625.83 2.942 1.854 2.942h23.746c1.024 0 1.854-1.317 1.854-2.942v-21.132c.001-1.624-.83-2.938-1.854-2.938z" transform="translate(-1198.84 -702.383)"/>
                        <path id="패스_48169" data-name="패스 48169" class="cls-5" d="M1250.967 738.347H1227.2c-1.025 0-1.856 1.318-1.856 2.944v21.152c0 1.626.831 2.945 1.856 2.945h23.767c1.025 0 1.856-1.318 1.856-2.945v-21.152c0-1.626-.831-2.944-1.856-2.944z" transform="translate(-1199.128 -702.774)"/>
                        <path id="패스_48170" data-name="패스 48170" class="cls-5" d="M1251.542 739.1h-23.788c-1.026 0-1.858 1.319-1.858 2.947v21.171c0 1.628.832 2.947 1.858 2.947h23.788c1.026 0 1.858-1.319 1.858-2.947v-21.174c0-1.628-.831-2.944-1.858-2.944z" transform="translate(-1199.416 -703.165)"/>
                        <path id="패스_48171" data-name="패스 48171" class="cls-5" d="M1252.118 739.847h-23.809c-1.027 0-1.86 1.32-1.86 2.95v21.191c0 1.629.833 2.95 1.86 2.95h23.809c1.027 0 1.859-1.321 1.859-2.95V742.8c0-1.633-.832-2.953-1.859-2.953z" transform="translate(-1199.704 -703.555)"/>
                        <path id="패스_48172" data-name="패스 48172" class="cls-5" d="M1252.694 740.6h-23.83c-1.028 0-1.861 1.322-1.861 2.952v21.208c0 1.63.833 2.953 1.861 2.953h23.83c1.028 0 1.861-1.322 1.861-2.953v-21.211c0-1.63-.834-2.949-1.861-2.949z" transform="translate(-1199.992 -703.946)"/>
                        <path id="패스_48173" data-name="패스 48173" class="cls-5" d="M1253.269 741.347h-23.851c-1.029 0-1.863 1.323-1.863 2.955v21.231c0 1.632.834 2.955 1.863 2.955h23.851c1.029 0 1.863-1.323 1.863-2.955V744.3c0-1.63-.832-2.953-1.863-2.953z" transform="translate(-1200.28 -704.337)"/>
                        <path id="패스_48174" data-name="패스 48174" class="cls-5" d="M1253.844 742.1h-23.873c-1.03 0-1.865 1.324-1.865 2.958v21.25c0 1.634.835 2.958 1.865 2.958h23.873c1.03 0 1.865-1.324 1.865-2.958v-21.25c0-1.637-.835-2.958-1.865-2.958z" transform="translate(-1200.568 -704.727)"/>
                        <path id="패스_48175" data-name="패스 48175" class="cls-5" d="M1254.42 742.847h-23.894c-1.031 0-1.866 1.326-1.866 2.961v21.27c0 1.635.836 2.961 1.866 2.961h23.894c1.031 0 1.866-1.326 1.866-2.961v-21.27c0-1.635-.835-2.961-1.866-2.961z" transform="translate(-1200.856 -705.118)"/>
                        <path id="패스_48176" data-name="패스 48176" class="cls-5" d="M1255 743.6h-23.915c-1.032 0-1.868 1.327-1.868 2.963v21.29c0 1.637.836 2.963 1.868 2.963H1255c1.031 0 1.867-1.327 1.867-2.963V746.56c-.003-1.636-.839-2.96-1.867-2.96z" transform="translate(-1201.144 -705.509)"/>
                        <path id="패스_48177" data-name="패스 48177" class="cls-5" d="M1255.572 744.347h-23.936c-1.032 0-1.87 1.328-1.87 2.966v21.31c0 1.638.837 2.966 1.87 2.966h23.936c1.032 0 1.869-1.328 1.869-2.966v-21.31c0-1.638-.841-2.966-1.869-2.966z" transform="translate(-1201.432 -705.899)"/>
                        <path id="패스_48178" data-name="패스 48178" class="cls-5" d="M1256.147 745.1h-23.957c-1.033 0-1.871 1.329-1.871 2.969V769.4c0 1.639.838 2.969 1.871 2.969h23.957c1.033 0 1.871-1.329 1.871-2.969v-21.334c0-1.64-.838-2.966-1.871-2.966z" transform="translate(-1201.719 -706.29)"/>
                        <path id="패스_48179" data-name="패스 48179" class="cls-5" d="M1256.723 745.847h-23.979c-1.034 0-1.873 1.331-1.873 2.971v21.349c0 1.641.839 2.971 1.873 2.971h23.979c1.034 0 1.873-1.33 1.873-2.971v-21.349c.004-1.641-.839-2.971-1.873-2.971z" transform="translate(-1202.007 -706.681)"/>
                        <path id="패스_48180" data-name="패스 48180" class="cls-5" d="M1257.3 746.6h-24c-1.035 0-1.874 1.331-1.874 2.974v21.366c0 1.643.839 2.975 1.874 2.975h24c1.035 0 1.875-1.332 1.875-2.975v-21.369c-.002-1.643-.842-2.971-1.875-2.971z" transform="translate(-1202.295 -707.071)"/>
                        <path id="패스_48181" data-name="패스 48181" class="cls-5" d="M1257.873 747.347h-24.021c-1.036 0-1.876 1.333-1.876 2.977v21.388c0 1.644.84 2.978 1.876 2.978h24.021c1.036 0 1.876-1.333 1.876-2.978v-21.388c0-1.644-.84-2.977-1.876-2.977z" transform="translate(-1202.583 -707.462)"/>
                        <path id="패스_48182" data-name="패스 48182" class="cls-5" d="M1258.449 748.1h-24.042c-1.037 0-1.878 1.334-1.878 2.98v21.408c0 1.646.841 2.98 1.878 2.98h24.042c1.037 0 1.877-1.334 1.877-2.98v-21.411c.001-1.646-.84-2.977-1.877-2.977z" transform="translate(-1202.871 -707.853)"/>
                    </g>
                </g>
            </g>
        </g>
        <g id="icon" transform="translate(1151.686 643.813)">
            <g id="그룹_58036" data-name="그룹 58036">
                <path id="사각형_13434" data-name="사각형 13434" d="M4.325 0H20.59a4.325 4.325 0 0 1 4.325 4.325V20.59a4.325 4.325 0 0 1-4.325 4.325H4.326A4.326 4.326 0 0 1 0 20.59V4.325A4.325 4.325 0 0 1 4.325 0z" style="fill:#9a9af4"/>
                <g id="그룹_58035" data-name="그룹 58035" transform="translate(4.541 4.539)">
                    <path id="사각형_13435" data-name="사각형 13435" class="cls-7" transform="translate(0 4.963)" d="M0 0h15.834v5.911H0z"/>
                    <path id="사각형_13436" data-name="사각형 13436" class="cls-7" transform="translate(4.963)" d="M0 0h5.908v15.84H0z"/>
                </g>
            </g>
            <g id="그룹_58038" data-name="그룹 58038" transform="translate(15.987 15.354)">
                <circle id="타원_1385" data-name="타원 1385" class="cls-8" cx="8.122" cy="8.122" r="8.122" transform="translate(1.614)"/>
                <circle id="타원_1386" data-name="타원 1386" class="cls-9" cx="8.122" cy="8.122" r="8.122"/>
                <circle id="타원_1387" data-name="타원 1387" class="cls-8" cx="6.351" cy="6.351" r="6.351" transform="translate(1.771 1.771)"/>
                <g id="그룹_58037" data-name="그룹 58037" transform="translate(5.458 3.595)">
                    <path id="패스_48183" data-name="패스 48183" class="cls-9" d="M1218.533 703.133v.745h1.615v.966h-1.615v2.332h.1a2.121 2.121 0 0 1 .814.159 2.168 2.168 0 0 1 .676.435 2.1 2.1 0 0 1 .435.7 2.33 2.33 0 0 1 .159.842 2.246 2.246 0 0 1-.159.849 2.036 2.036 0 0 1-.448.683 2.1 2.1 0 0 1-1.477.593h-.1v.745h-.966v-.745h-1.753v-.966h1.753v-2.333h-.1a2.121 2.121 0 0 1-.814-.159 1.9 1.9 0 0 1-.663-.448 1.854 1.854 0 0 1-.448-.69 2.331 2.331 0 0 1-.159-.842 2.191 2.191 0 0 1 .159-.842 2.044 2.044 0 0 1 .448-.677 2.071 2.071 0 0 1 1.477-.607h.1v-.745zm-1.85 2.057a1.108 1.108 0 0 0-.331.814 1.172 1.172 0 0 0 .331.815 1.038 1.038 0 0 0 .787.358h.1v-2.332h-.1a1.055 1.055 0 0 0-.787.345zm1.946 5.286a1.064 1.064 0 0 0 .787-.338 1.13 1.13 0 0 0 .332-.821 1.17 1.17 0 0 0-.332-.815 1.036 1.036 0 0 0-.787-.359h-.1v2.333z" transform="translate(-1215.386 -703.133)"/>
                </g>
            </g>
        </g>
    </g>
</svg>
