<svg xmlns="http://www.w3.org/2000/svg" width="229.196" height="41.448" viewBox="0 0 229.196 41.448">
    <defs>
        <clipPath id="mfk81zwo9a">
            <path data-name="사각형 22151" style="fill:none" d="M0 0h229.196v41.448H0z"/>
        </clipPath>
    </defs>
    <g data-name="그룹 77134" style="clip-path:url(#mfk81zwo9a)">
        <path data-name="패스 55746" d="M9.592 9.327H3.96A3.89 3.89 0 0 1 2.266 9a3.54 3.54 0 0 1-1.144-.859 3.148 3.148 0 0 1-.66-1.211 4.65 4.65 0 0 1 0-2.685 3.319 3.319 0 0 1 .638-1.21 3.494 3.494 0 0 1 1.144-.88A3.8 3.8 0 0 1 3.96 1.8h19.888a3.667 3.667 0 0 1 1.694.351 3.585 3.585 0 0 1 1.122.88 3.09 3.09 0 0 1 .616 1.21 5.382 5.382 0 0 1 .176 1.343 4.8 4.8 0 0 1-.2 1.342 3.512 3.512 0 0 1-.616 1.209A3.048 3.048 0 0 1 25.52 9a3.924 3.924 0 0 1-1.672.329h-5.72v4.752q0 1.54-.088 2.948t-.264 2.728A15.986 15.986 0 0 1 22.044 22a11.585 11.585 0 0 1 3.168 3.673 17.719 17.719 0 0 1 1.87 5.522 36.232 36.232 0 0 1 .418 7.788h-8.228a18.993 18.993 0 0 0-.462-7.171 7.957 7.957 0 0 0-2.838-4.225 21.719 21.719 0 0 1-4.092 7.041A16.173 16.173 0 0 1 5.9 38.9a4.055 4.055 0 0 1-1.518.33 5.732 5.732 0 0 1-1.584-.176 4.689 4.689 0 0 1-1.408-.616 2.575 2.575 0 0 1-.95-1.082 3.573 3.573 0 0 1 1.32-4.8 15.034 15.034 0 0 0 3.54-2.989 15.3 15.3 0 0 0 2.442-3.981 21.3 21.3 0 0 0 1.408-5.171 44.1 44.1 0 0 0 .44-6.556zM30.888 4.4a3.877 3.877 0 0 1 1.32-3.189A4.666 4.666 0 0 1 35.244.132a4.776 4.776 0 0 1 1.628.286 4.24 4.24 0 0 1 1.386.813 4.076 4.076 0 0 1 .968 1.32A4.29 4.29 0 0 1 39.6 4.4v11.131h1.452a3.541 3.541 0 0 1 1.672.352 3.043 3.043 0 0 1 1.056.9 3.669 3.669 0 0 1 .572 1.232 5.2 5.2 0 0 1 0 2.684 3.651 3.651 0 0 1-.572 1.232 2.984 2.984 0 0 1-1.078.9 3.572 3.572 0 0 1-1.65.351H39.6v18.26h-8.712z"/>
        <path data-name="패스 55747" d="M45.144 32.56a14.407 14.407 0 0 0 2.838-3.46 17.279 17.279 0 0 0 1.782-4.532 36.556 36.556 0 0 0 .924-6.16q.264-3.54.264-8.382V5.588a3.881 3.881 0 0 1 1.188-3.124 4.592 4.592 0 0 1 5.808.044 3.833 3.833 0 0 1 1.232 3.08v4.4a80.472 80.472 0 0 1-.528 9.636 13.437 13.437 0 0 1 3.586 2.486 11.95 11.95 0 0 1 2.574 3.828 19.8 19.8 0 0 1 1.408 5.5 41.278 41.278 0 0 1 .132 7.5h-8.008a24.549 24.549 0 0 0 .154-6.556 9.386 9.386 0 0 0-1.562-4.269 24.264 24.264 0 0 1-2.816 6.424 14.205 14.205 0 0 1-3.7 3.961 5.241 5.241 0 0 1-1.43.7 5.835 5.835 0 0 1-1.65.286 4.44 4.44 0 0 1-1.628-.264 3.106 3.106 0 0 1-1.364-.99 3.19 3.19 0 0 1-.7-1.365 4.07 4.07 0 0 1-.066-1.517 4.4 4.4 0 0 1 .506-1.5 4.668 4.668 0 0 1 1.056-1.3m22.968-12.529H64.5a3.875 3.875 0 0 1-1.694-.33 3.381 3.381 0 0 1-1.144-.88 3.339 3.339 0 0 1-.66-1.232 4.647 4.647 0 0 1 0-2.684 3.306 3.306 0 0 1 .638-1.209 3.491 3.491 0 0 1 1.144-.88 3.8 3.8 0 0 1 1.716-.353h3.608v-8.58a3.484 3.484 0 0 1 1.1-2.794 3.915 3.915 0 0 1 2.64-.945 4.111 4.111 0 0 1 2.662.945 3.39 3.39 0 0 1 1.17 2.794v37.577h-7.568zm9.636-16.148a3.36 3.36 0 0 1 1.188-2.794 4.259 4.259 0 0 1 2.728-.945 4.472 4.472 0 0 1 1.452.241 3.713 3.713 0 0 1 1.254.727 3.65 3.65 0 0 1 .88 1.166 3.65 3.65 0 0 1 .33 1.605v37.577h-7.832z"/>
        <path data-name="패스 55748" d="M102.432 0a4.593 4.593 0 0 1 3.322 1.165 4.345 4.345 0 0 1 1.21 3.279v.4h6.38a3.012 3.012 0 0 1 2.464 1.012 3.68 3.68 0 0 1 .836 2.42 3.7 3.7 0 0 1-.858 2.442 2.992 2.992 0 0 1-2.442 1.033h-.132a12.7 12.7 0 0 1 .572 1.826 9.077 9.077 0 0 1 .22 2.046V29.3a12.893 12.893 0 0 1-.9 5.039 9.648 9.648 0 0 1-2.464 3.519 10.172 10.172 0 0 1-3.674 2.068 14.656 14.656 0 0 1-4.532.682 14.447 14.447 0 0 1-4.51-.682 10.2 10.2 0 0 1-3.652-2.068 9.624 9.624 0 0 1-2.464-3.519 12.875 12.875 0 0 1-.9-5.039V15.619a9.8 9.8 0 0 1 .748-3.872h-.044a2.992 2.992 0 0 1-2.442-1.033 3.7 3.7 0 0 1-.858-2.442 3.739 3.739 0 0 1 .814-2.42 2.944 2.944 0 0 1 2.438-1.012H97.9v-.4a4.341 4.341 0 0 1 1.21-3.279A4.591 4.591 0 0 1 102.432 0m0 33.44a3.166 3.166 0 0 0 2.31-.99 4.234 4.234 0 0 0 .99-3.1V15.312a3.968 3.968 0 0 0-.968-3.036 3.35 3.35 0 0 0-2.332-.88 3.291 3.291 0 0 0-2.288.88 3.964 3.964 0 0 0-.968 3.036v14.036a4.234 4.234 0 0 0 .99 3.1 3.118 3.118 0 0 0 2.266.99m17.644 8.008V4.488a4 4 0 0 1 1.32-3.256 4.862 4.862 0 0 1 6.16 0 4 4 0 0 1 1.32 3.256v36.96z"/>
        <path data-name="패스 55749" d="M161.3 33.44v-7.7h-7.526a13 13 0 0 1-3.233-.33 3.841 3.841 0 0 1-1.957-1.122 4.235 4.235 0 0 1-.948-2.09 18.088 18.088 0 0 1-.241-3.233V4.84a3.991 3.991 0 0 1 .373-1.805 3.277 3.277 0 0 1 1.013-1.21 4.444 4.444 0 0 1 1.452-.682 6.476 6.476 0 0 1 1.694-.219 5.584 5.584 0 0 1 1.627.241 4.559 4.559 0 0 1 1.431.726 3.7 3.7 0 0 1 1.033 1.232 3.8 3.8 0 0 1 .4 1.8V6.6h18.7V4.84a3.991 3.991 0 0 1 .375-1.805 3.336 3.336 0 0 1 .989-1.21 4.2 4.2 0 0 1 1.431-.682 6.466 6.466 0 0 1 1.692-.219 6.33 6.33 0 0 1 1.651.219 4.193 4.193 0 0 1 1.43.682 3.584 3.584 0 0 1 1.011 1.21 3.8 3.8 0 0 1 .4 1.805v20.9h-13.818v7.7h12.409a4.306 4.306 0 0 1 1.716.307 3.09 3.09 0 0 1 1.782 1.958 4.364 4.364 0 0 1 .2 1.3 3.9 3.9 0 0 1-.858 2.464 3.383 3.383 0 0 1-2.837 1.1H148.9a3.39 3.39 0 0 1-2.838-1.1A3.912 3.912 0 0 1 145.2 37a4.367 4.367 0 0 1 .2-1.3 3.127 3.127 0 0 1 .638-1.143 3.176 3.176 0 0 1 1.144-.815 4.29 4.29 0 0 1 1.715-.307zm13.82-14.785V13.42h-18.7v3.916a1.469 1.469 0 0 0 .285.989 1.387 1.387 0 0 0 1.077.33z"/>
        <path data-name="패스 55750" d="M193.2 32.385a20.733 20.733 0 0 0 5.039-1.079 9.771 9.771 0 0 0 3.849-2.486 11.158 11.158 0 0 0 2.442-4.4 22.882 22.882 0 0 0 .858-6.776v-7.128a1.121 1.121 0 0 0-.286-.792 1.058 1.058 0 0 0-.814-.309H194.26a4.172 4.172 0 0 1-1.738-.329 3.706 3.706 0 0 1-1.21-.858 3.494 3.494 0 0 1-.726-1.21 4.1 4.1 0 0 1-.242-1.386 3.991 3.991 0 0 1 .242-1.343 3.74 3.74 0 0 1 .726-1.231 3.8 3.8 0 0 1 1.21-.9 3.941 3.941 0 0 1 1.738-.358h13.024q3.739 0 5.324 1.672a6.639 6.639 0 0 1 1.584 4.752v9.46a28.492 28.492 0 0 1-1.563 10.032 18.192 18.192 0 0 1-4.289 6.784 16.707 16.707 0 0 1-6.4 3.872 26.459 26.459 0 0 1-7.9 1.32 5.92 5.92 0 0 1-1.584-.219 3.969 3.969 0 0 1-1.386-.683 3.34 3.34 0 0 1-.946-1.166 3.459 3.459 0 0 1-.308-1.716 3.972 3.972 0 0 1 .9-2.376 3.59 3.59 0 0 1 2.487-1.143m27.197 9.059V4.488a4 4 0 0 1 1.319-3.256 4.862 4.862 0 0 1 6.16 0 3.994 3.994 0 0 1 1.321 3.256v36.96z"/>
    </g>
</svg>
