<svg xmlns="http://www.w3.org/2000/svg" width="60.566" height="60" viewBox="0 0 60.566 60">
    <defs>
        <clipPath id="clip-path">
            <path id="사각형_16257" data-name="사각형 16257" class="cls-1" d="M0 0h60.564v60H0z"/>
        </clipPath>
        <style>
            .cls-1{fill:none}.cls-4{fill:#222}
        </style>
    </defs>
    <g id="그룹_62649" data-name="그룹 62649" transform="translate(-125.434 -508)">
        <path id="사각형_787" data-name="사각형 787" class="cls-1" transform="translate(126 508)" d="M0 0h60v60H0z"/>
        <g id="그룹_62635" data-name="그룹 62635" transform="translate(125.434 508)">
            <g id="그룹_62635-2" data-name="그룹 62635" style="clip-path:url(#clip-path)">
                <path id="패스_47845" data-name="패스 47845" d="M58.887 49.277a.476.476 0 0 0 .125-.008.461.461 0 0 0-.064-.141l-.02-.033-6.582-15.026" style="fill:#fff"/>
                <path id="패스_47847" data-name="패스 47847" class="cls-4" d="M57.187 50.376h1.7a1.336 1.336 0 0 0 .84-.266 1.012 1.012 0 0 0 .287-.362 1.042 1.042 0 0 0 .1-.446 1.409 1.409 0 0 0-.2-.692l-6.687-15.25V10.222a1.724 1.724 0 0 0-1.72-1.72H8.382a1.725 1.725 0 0 0-1.721 1.72v23.631L.627 48.6a1.445 1.445 0 0 0-.177.665 1.058 1.058 0 0 0 .383.828 1.344 1.344 0 0 0 .867.282h55.487zM18.934 32.983H7.756V10.222a.62.62 0 0 1 .184-.441.62.62 0 0 1 .441-.181h43.126a.629.629 0 0 1 .625.625v22.758h-33.2zm33.411 1.095L58.928 49.1l.02.033a.461.461 0 0 1 .064.141.487.487 0 0 1-.126.014H1.708a.479.479 0 0 1-.136-.017l-.023-.007a.435.435 0 0 1 .063-.174l.017-.03 6.125-14.98z"/>
                <path id="패스_47848" data-name="패스 47848" d="M57.187 50.376h1.7a1.336 1.336 0 0 0 .84-.266 1.012 1.012 0 0 0 .287-.362 1.042 1.042 0 0 0 .1-.446 1.409 1.409 0 0 0-.2-.692l-6.687-15.25V10.222a1.724 1.724 0 0 0-1.72-1.72H8.382a1.725 1.725 0 0 0-1.721 1.72v23.631L.627 48.6a1.445 1.445 0 0 0-.177.665 1.058 1.058 0 0 0 .383.828 1.344 1.344 0 0 0 .867.282h55.487zM18.934 32.983H7.756V10.222a.62.62 0 0 1 .184-.441.62.62 0 0 1 .441-.181h43.126a.629.629 0 0 1 .625.625v22.758h-33.2zm33.411 1.095L58.928 49.1l.02.033a.461.461 0 0 1 .064.141.487.487 0 0 1-.126.014H1.708a.479.479 0 0 1-.136-.017l-.023-.007a.435.435 0 0 1 .063-.174l.017-.03 6.125-14.98z" style="stroke:#222;stroke-width:.9px;fill:none"/>
                <path id="사각형_16253" data-name="사각형 16253" class="cls-4" transform="translate(12.676 15.04)" d="M0 0h35.215v2.108H0z"/>
                <path id="사각형_16258" data-name="사각형 16258" class="cls-4" transform="translate(12.676 22.04)" d="M0 0h35.215v2.108H0z"/>
            </g>
        </g>
    </g>
</svg>
