<svg xmlns="http://www.w3.org/2000/svg" width="60" height="60" viewBox="0 0 60 60">
    <defs>
        <style>
            .cls-3{stroke:#000;stroke-width:.7px}
        </style>
    </defs>
    <g id="그룹_62645" data-name="그룹 62645" transform="translate(-532 -1043.5)">
        <path id="사각형_785" data-name="사각형 785" transform="translate(532 1043.5)" style="fill:none" d="M0 0h60v60H0z"/>
        <g id="그룹_20953" data-name="그룹 20953" transform="translate(23003.025 23145.031)">
            <g id="그룹_20952" data-name="그룹 20952" transform="translate(-22468 -22098.031)">
                <path id="사각형_7697" data-name="사각형 7697" transform="translate(0 51.537)" style="stroke:#000" d="M0 0h53.947v.93H0z"/>
                <path id="패스_20505" data-name="패스 20505" class="cls-3" d="M139.049 142.753H116.9a.465.465 0 0 1-.465-.465V90.751a.465.465 0 0 1 .708-.4l22.145 13.573a.468.468 0 0 1 .221.4v37.963a.464.464 0 0 1-.46.466zm-21.68-.93h21.215v-37.237l-21.215-13z" transform="translate(-90.768 -90.286)"/>
                <path id="패스_20508" data-name="패스 20508" class="cls-3" d="M115.395 143.477H95.431a.465.465 0 0 1-.465-.465v-41.967a.465.465 0 0 1 .465-.465h19.964a.465.465 0 0 1 .465.465v41.967a.465.465 0 0 1-.465.465zm-19.5-.93h19.035V101.51H95.9z" transform="translate(-89.259 -91.01)"/>
                <path id="패스_20512" data-name="패스 20512" d="M104.881 120.186h-3.373v-3.576h3.373zm-2.443-.93h1.514v-1.716h-1.514z" transform="translate(-87.269 -97.27)"/>
                <path id="패스_20514" data-name="패스 20514" d="M104.881 126.829h-3.373v-3.577h3.373zm-2.443-.93h1.514v-1.718h-1.514z" transform="translate(-87.269 -95.737)"/>
                <path id="패스_20518" data-name="패스 20518" d="M110.237 146.063h-8.729v-8.7h8.729zm-7.8-.93h6.869v-6.843h-6.869z" transform="translate(-89.719 -93.596)"/>
                <path id="패스_20519" data-name="패스 20519" d="M131.857 112.852h-10.644a.464.464 0 0 1-.465-.465v-1.524a.465.465 0 0 1 .465-.465h10.644a.465.465 0 0 1 .465.465v1.524a.464.464 0 0 1-.465.465zm-10.179-.93h9.714v-.594h-9.714z" transform="translate(-89.325 -91.399)"/>
                <path id="패스_20521" data-name="패스 20521" d="M131.857 122.844h-10.644a.464.464 0 0 1-.465-.465v-1.523a.464.464 0 0 1 .465-.465h10.644a.464.464 0 0 1 .465.465v1.523a.464.464 0 0 1-.465.465zm-10.179-.93h9.714v-.593h-9.714z" transform="translate(-89.325 -94.39)"/>
            </g>
        </g>
    </g>
</svg>
