<svg data-name="그룹 62650" xmlns="http://www.w3.org/2000/svg" width="60" height="60" viewBox="0 0 60 60">
    <path data-name="사각형 3399" style="fill:none" d="M0 0h60v60H0z"/>
    <g data-name="그룹 62653">
        <g data-name="그룹 62656">
            <path data-name="패스 47866" d="M12.853 52.531q.29-6.45.576-12.9.13-2.952.248-5.9c.088-2.171.158-4.343.266-6.514a.952.952 0 0 0-.613-1.039 5.325 5.325 0 0 1-3.24-3.93 12.978 12.978 0 0 1-.021-2.86c.143-2.778.307-5.554.46-8.331.129-2.352.252-4.7.386-7.055a1.915 1.915 0 0 1 .139-.651.754.754 0 0 1 .889-.48.831.831 0 0 1 .706.929c-.036 1.055-.092 2.11-.151 3.164-.1 1.784-.218 3.566-.319 5.349-.161 2.838-.305 5.676-.477 8.513a3.392 3.392 0 0 0 1.525 3.306 25.1 25.1 0 0 0 1.78 1.057 1.173 1.173 0 0 1 .692 1.174q-.23 4.959-.451 9.919-.133 2.952-.249 5.904c-.136 3.47-.274 6.94-.39 10.411a2.764 2.764 0 0 0 1.857 2.905 3.3 3.3 0 0 0 3.585-.827 3.144 3.144 0 0 0 .7-2.444c-.083-1.4-.159-2.8-.215-4.2-.139-3.47-.259-6.941-.4-10.411-.15-3.692-.3-7.385-.485-11.076a1.383 1.383 0 0 1 .881-1.489 8.356 8.356 0 0 0 2-1.277 2.935 2.935 0 0 0 1.061-2.423c-.095-2.11-.183-4.22-.293-6.328-.089-1.7-.218-3.4-.31-5.106-.107-1.987-.2-3.975-.286-5.963-.031-.683.247-1.074.762-1.106.537-.034.876.358.913 1.052q.307 5.686.618 11.373c.1 1.763.218 3.525.329 5.288a5.159 5.159 0 0 1-2.88 5.336 1.673 1.673 0 0 0-1.034 1.877c.189 3.386.277 6.777.413 10.166.155 3.855.307 7.711.493 11.564.05 1.035.05 2.073.123 3.1.231 3.268-3.189 5.569-6.228 4.6a4.615 4.615 0 0 1-3.359-4.68"/>
            <path data-name="패스 47867" d="M38.251 29.159V6.112a6.107 6.107 0 0 1 .282-2.041 2.541 2.541 0 0 1 3.407-1.65 7.216 7.216 0 0 1 3 2.426 19.454 19.454 0 0 1 4.459 10.444 28.969 28.969 0 0 1-.839 11.586 12.792 12.792 0 0 1-2.393 4.692 1.2 1.2 0 0 0-.3.892c.146 2.045.279 4.091.426 6.136.143 1.984.3 3.967.45 5.95.189 2.489.327 4.984.581 7.466a4.046 4.046 0 0 1-4.109 4.83 5.433 5.433 0 0 1-2.332-.339 3.958 3.958 0 0 1-2.63-3.868q-.006-11.737 0-23.474m1.672.119v22.985a2.54 2.54 0 0 0 2.487 2.877c2.027.305 3.285-.775 3.165-2.8-.178-3.019-.411-6.034-.633-9.05-.136-1.842-.3-3.681-.442-5.522-.14-1.862-.26-3.725-.392-5.588a1.3 1.3 0 0 1 .346-1.059 10.6 10.6 0 0 0 2.46-4.571 28.461 28.461 0 0 0 .744-11.293 17.585 17.585 0 0 0-4.178-9.509 5.958 5.958 0 0 0-1.826-1.593c-.851-.413-1.445-.128-1.6.8a10.762 10.762 0 0 0-.13 1.7q-.012 11.309-.005 22.619"/>
            <path data-name="패스 47868" d="M16.565 10.503v6.276a3.18 3.18 0 0 1-.027.607.819.819 0 0 1-.8.713.771.771 0 0 1-.836-.65 2.943 2.943 0 0 1-.073-.663q-.006-6.307 0-12.613a2.633 2.633 0 0 1 .09-.722.767.767 0 0 1 .816-.6.789.789 0 0 1 .783.647 2.8 2.8 0 0 1 .044.665V10.5"/>
            <path data-name="패스 47869" d="M20.471 10.492v6.155c0 .183.005.366-.007.548a.848.848 0 0 1-1.692.084 3.849 3.849 0 0 1-.041-.667V4.363a4.129 4.129 0 0 1 .076-.846.766.766 0 0 1 .824-.663.8.8 0 0 1 .819.752 3.814 3.814 0 0 1 .02.608v6.277"/>
        </g>
    </g>
</svg>
