<svg xmlns="http://www.w3.org/2000/svg" width="38.939" height="54.957" viewBox="0 0 38.939 54.957">
    <g data-name="그룹 57632">
        <path data-name="빼기 3" d="M694.433 568.775c-.19-.141-1.437-1.347-3.145-3.228a87.386 87.386 0 0 1-6.247-7.75 59.581 59.581 0 0 1-6.1-10.524 28.773 28.773 0 0 1-2.727-11.553c0-10.477 8.161-19 18.22-19s18.22 8.529 18.22 19.012a28.685 28.685 0 0 1-2.82 11.621 62.6 62.6 0 0 1-6.263 10.642 90.786 90.786 0 0 1-9.138 10.78zm.217-41.645a8.15 8.15 0 1 0 7.97 8.325v-.176a8.068 8.068 0 0 0-7.97-8.149z" transform="translate(-674.963 -515.469)" style="fill:none;stroke:#000;stroke-width:2.5px"/>
    </g>
</svg>
