<svg xmlns="http://www.w3.org/2000/svg" width="60" height="60" viewBox="0 0 60 60">
    <g data-name="그룹 62655">
        <path data-name="사각형 3399" style="fill:none" d="M0 0h60v60H0z"/>
        <path data-name="패스 47851" d="M87.189 48.19c-4.31 0-8.153 3.668-10.669 7.621-2.52-3.953-6.361-7.621-10.675-7.621a13.28 13.28 0 0 0-13.266 13.266c0 3.97.933 5.192 2.79 7.621l.5.662.069.082 19.312 21.4a1.2 1.2 0 0 0 .868.4h.021a1.207 1.207 0 0 0 .861-.368c3.359-3.493 19.909-20.708 21.327-22.616a11.863 11.863 0 0 0 2.128-7.182A13.28 13.28 0 0 0 87.189 48.19z" transform="translate(-46.125 -40.766)" style="stroke:#222;stroke-miterlimit:10;stroke-width:2.5px;fill:none"/>
    </g>
</svg>
