<svg xmlns="http://www.w3.org/2000/svg" width="60" height="57.965" viewBox="0 0 60 57.965">
    <defs>
        <style>
            .cls-1{fill:none}.cls-2{fill:#333133;stroke:#fff;stroke-width:.5px}
        </style>
    </defs>
    <g id="그룹_62657" data-name="그룹 62657" transform="translate(-330 -1219.5)">
        <path id="사각형_3332" data-name="사각형 3332" class="cls-1" transform="translate(330 1219.5)" d="M0 0h60v57.965H0z"/>
        <g id="그룹_62632" data-name="그룹 62632" transform="translate(0 -180.5)">
            <path id="패스_47830" data-name="패스 47830" class="cls-2" d="M27.387 59.875h-4.174c-5.246 0-9.515-3.887-9.515-8.665v-10.5a8.839 8.839 0 0 1 7.049-8.361 10.16 10.16 0 0 1 2.466-.3h4.174c5.236 0 9.494 3.887 9.494 8.665v10.5c0 4.778-4.258 8.665-9.494 8.665m-4.174-25.443a7.419 7.419 0 0 0-1.784.222 6.4 6.4 0 0 0-5.108 6.05v10.5c0 3.458 3.092 6.272 6.892 6.272h4.174c3.79 0 6.871-2.813 6.871-6.272v-10.5c0-3.458-3.081-6.272-6.871-6.272z" transform="translate(334.713 1371.746)"/>
            <path id="패스_47831" data-name="패스 47831" d="M20.522 33.057a8.9 8.9 0 0 1 2.128-.265h4.174c4.526 0 8.184 3.338 8.184 7.468v4.34a.623.623 0 0 1-.187.019 14.827 14.827 0 0 1-11.86-5.676 14.431 14.431 0 0 1-8.515 5.3V40.26a7.622 7.622 0 0 1 6.075-7.2" transform="translate(335.272 1372.193)" style="stroke:#000;stroke-width:2px;fill:none"/>
            <path id="패스_47832" data-name="패스 47832" class="cls-1" d="M35.383 46.261a16.421 16.421 0 0 1-11.863-4.93 15.83 15.83 0 0 1-8.22 4.521 1.412 1.412 0 0 1-1.11-.23 1.159 1.159 0 0 1-.495-.937v-3.978a8.839 8.839 0 0 1 7.046-8.359 10.253 10.253 0 0 1 2.469-.306h4.174c5.236 0 9.5 3.887 9.5 8.665v4.337a1.211 1.211 0 0 1-.9 1.136 1.983 1.983 0 0 1-.6.08m-11.86-8.07a1.35 1.35 0 0 1 1.075.515 13.421 13.421 0 0 0 9.658 5.116v-3.114c0-3.458-3.083-6.272-6.873-6.272h-4.172a7.353 7.353 0 0 0-1.784.223h-.007a6.4 6.4 0 0 0-5.1 6.047v2.371a13 13 0 0 0 6.127-4.376 1.35 1.35 0 0 1 1.075-.512M21.084 33.5z" transform="translate(334.711 1371.746)"/>
            <path id="패스_47833" data-name="패스 47833" class="cls-2" d="M51.436 72.934a1.259 1.259 0 0 1-1.312-1.2v-14c0-4.055-3.616-7.355-8.06-7.355H18.028c-4.444 0-8.06 3.3-8.06 7.355v14a1.259 1.259 0 0 1-1.312 1.2 1.259 1.259 0 0 1-1.312-1.2v-14c0-5.376 4.793-9.749 10.683-9.749h24.037c5.89 0 10.683 4.373 10.683 9.749v14a1.259 1.259 0 0 1-1.312 1.2" transform="translate(329.953 1381.242)"/>
            <path id="패스_47834" data-name="패스 47834" class="cls-2" d="M24.673 65.3a1.337 1.337 0 0 1-1.154-.627l-8.826-14.925a1.1 1.1 0 0 1 .028-1.181 1.34 1.34 0 0 1 1.126-.584h17.632a1.345 1.345 0 0 1 1.126.582 1.108 1.108 0 0 1 .028 1.181l-8.806 14.921a1.33 1.33 0 0 1-1.152.629zm-6.628-14.923 6.626 11.2 6.612-11.2z" transform="translate(335.338 1381.242)"/>
        </g>
    </g>
</svg>
