<svg xmlns="http://www.w3.org/2000/svg" width="40" height="40"><g data-name="그룹 56512"><g data-name="그룹 56179"><path data-name="합치기 27" d="m33.645 36.491-8.423-8.563a13.571 13.571 0 0 1-18.2-1.1 14.122 14.122 0 0 1 .005-19.733 13.573 13.573 0 0 1 19.424-.012 14.13 14.13 0 0 1 1.543 17.856l8.285 8.421a2.071 2.071 0 0 1 .72 1.576 2.042 2.042 0 0 1-2.023 2.06 1.994 1.994 0 0 1-1.331-.505ZM13.964 6.49a10.648 10.648 0 0 0-4.77 2.809 10.968 10.968 0 0 0-.009 15.333 10.547 10.547 0 0 0 15.086-.009 10.968 10.968 0 0 0 .008-15.334 10.606 10.606 0 0 0-7.553-3.169 10.473 10.473 0 0 0-2.762.37Z" fill="#222"/><path data-name="사각형 12691" fill="none" d="M2 2h36v36H2z"/></g><path data-name="사각형 12778" fill="none" d="M0 0h40v40H0z"/></g></svg>