<svg xmlns="http://www.w3.org/2000/svg" width="396.351" height="41.828"><defs><style>.cls-1{isolation:isolate}</style></defs><g id="급여명세서_발송하기" data-name="급여명세서 발송하기" class="cls-1" transform="translate(-1287.536 -420.303)"><g id="그룹_56756" data-name="그룹 56756" class="cls-1"><path id="패스_44583" data-name="패스 44583" d="M1293.344 428.251a4.148 4.148 0 0 1-3.1-.989 3.511 3.511 0 0 1-.946-2.53 3.466 3.466 0 0 1 .924-2.42 4.075 4.075 0 0 1 3.124-1.013h26.972a15.822 15.822 0 0 1 2.7.2 4.212 4.212 0 0 1 1.827.726 3.056 3.056 0 0 1 1.034 1.43 6.661 6.661 0 0 1 .33 2.265v2.332a21.467 21.467 0 0 1-.374 4.334 13.438 13.438 0 0 1-.99 3.059h.22a3.388 3.388 0 0 1 2.816 1.056 3.731 3.731 0 0 1 .836 2.376 3.666 3.666 0 0 1-.859 2.376 3.393 3.393 0 0 1-2.793 1.055h-33.88a3.391 3.391 0 0 1-2.793-1.055 3.666 3.666 0 0 1-.859-2.376 3.726 3.726 0 0 1 .836-2.376 3.386 3.386 0 0 1 2.816-1.056h24.992a14.253 14.253 0 0 0 1.276-6.028v-.485a.829.829 0 0 0-.242-.7 1.529 1.529 0 0 0-.859-.177zm.616 15.8a5.828 5.828 0 0 1 1.5.2 4.128 4.128 0 0 1 1.342.616 3.527 3.527 0 0 1 .99 1.078 4.135 4.135 0 0 1 .528 1.54h19.58a3.211 3.211 0 0 1 1.474-2.662 5.709 5.709 0 0 1 2.97-.771 6.1 6.1 0 0 1 1.628.221 4.2 4.2 0 0 1 1.408.682 3.36 3.36 0 0 1 .989 1.21 3.985 3.985 0 0 1 .375 1.8V462h-30.931a12.726 12.726 0 0 1-3.213-.331 3.78 3.78 0 0 1-1.914-1.1 4.192 4.192 0 0 1-.924-2.046 17.623 17.623 0 0 1-.242-3.212v-7.349a3.985 3.985 0 0 1 .375-1.8 3.34 3.34 0 0 1 .989-1.21 4.2 4.2 0 0 1 1.408-.682 6.246 6.246 0 0 1 1.668-.223zm23.94 12.009v-2.9h-19.537v1.54a1.568 1.568 0 0 0 .287 1.012 1.335 1.335 0 0 0 1.079.352z"/><path id="패스_44584" data-name="패스 44584" d="M1361.939 462v-10.472h-6.292a10.187 10.187 0 0 1-3.8 7.238 12.923 12.923 0 0 1-7.987 2.4 15.6 15.6 0 0 1-4.861-.726 10.315 10.315 0 0 1-3.828-2.2 10.055 10.055 0 0 1-2.508-3.7 13.686 13.686 0 0 1-.9-5.17v-16.19a13.7 13.7 0 0 1 .9-5.171 10.06 10.06 0 0 1 2.508-3.7 10.315 10.315 0 0 1 3.828-2.2 15.545 15.545 0 0 1 4.861-.726 13.159 13.159 0 0 1 7.59 2.112 9.816 9.816 0 0 1 4.027 6.292h6.467v-4.747a4.06 4.06 0 0 1 1.277-3.256 4.5 4.5 0 0 1 3.036-1.1 4.547 4.547 0 0 1 3.035 1.122 4 4 0 0 1 1.32 3.234V462zm-21.691-12.32a4.473 4.473 0 0 0 1.033 3.3 3.781 3.781 0 0 0 5.149 0 4.473 4.473 0 0 0 1.033-3.3v-16.808a4.484 4.484 0 0 0-1.033-3.278 3.722 3.722 0 0 0-5.149 0 4.484 4.484 0 0 0-1.033 3.278zm15.576-5.456h6.115V437.1h-6.115z"/><path id="패스_44585" data-name="패스 44585" d="M1405.016 440.572h-6.336v2.376h-17.38a12.81 12.81 0 0 1-3.212-.33 3.777 3.777 0 0 1-1.914-1.1 4.18 4.18 0 0 1-.924-2.046 17.632 17.632 0 0 1-.242-3.213v-7.7a17.711 17.711 0 0 1 .242-3.19 4.2 4.2 0 0 1 .924-2.068 3.777 3.777 0 0 1 1.914-1.1 12.763 12.763 0 0 1 3.212-.33h11.088a9 9 0 0 1 4.29.77 3.759 3.759 0 0 1 1.738 2.662h6.6v-.352a3.906 3.906 0 0 1 1.3-3.19 4.575 4.575 0 0 1 3.014-1.078 4.765 4.765 0 0 1 1.627.286 4.469 4.469 0 0 1 1.408.814 3.93 3.93 0 0 1 .991 1.32 4.287 4.287 0 0 1 .374 1.848v19.1h-8.712zM1385.436 462a11.642 11.642 0 0 1-3.983-.617 7.721 7.721 0 0 1-2.815-1.716 6.933 6.933 0 0 1-1.672-2.6 10.11 10.11 0 0 1 0-6.578 7.1 7.1 0 0 1 1.672-2.64 7.8 7.8 0 0 1 2.815-1.76 11.27 11.27 0 0 1 3.983-.638h19.712a11.523 11.523 0 0 1 3.938.616 7.58 7.58 0 0 1 2.816 1.738 7.348 7.348 0 0 1 1.694 2.64 9.932 9.932 0 0 1 0 6.644 7.132 7.132 0 0 1-1.694 2.617 7.5 7.5 0 0 1-2.816 1.7 11.9 11.9 0 0 1-3.938.594zm-2.245-26.577a1.475 1.475 0 0 0 .2.925 1.179 1.179 0 0 0 .858.22h6.424v-7.216a1.282 1.282 0 0 0-.221-.858 1.188 1.188 0 0 0-.879-.243h-5.324a1.107 1.107 0 0 0-.858.243 1.39 1.39 0 0 0-.2.858zm19.625 20.416a2.292 2.292 0 0 0 1.936-.659 2.342 2.342 0 0 0 .484-1.408 2.16 2.16 0 0 0-.484-1.364 2.388 2.388 0 0 0-1.936-.616h-15.048a2.385 2.385 0 0 0-1.936.616 2.154 2.154 0 0 0-.484 1.364 2.336 2.336 0 0 0 .484 1.408 2.289 2.289 0 0 0 1.936.659zm-4.136-21.383h6.336v-3.037h-6.336z"/><path id="패스_44586" data-name="패스 44586" d="M1417.115 453.112a14.392 14.392 0 0 0 2.838-3.454 17.283 17.283 0 0 0 1.783-4.533 36.536 36.536 0 0 0 .924-6.16q.264-3.54.264-8.382v-4.443a3.883 3.883 0 0 1 1.187-3.124 4.593 4.593 0 0 1 5.809.044 3.838 3.838 0 0 1 1.232 3.08v4.4a80.254 80.254 0 0 1-.528 9.635 13.456 13.456 0 0 1 3.586 2.487 11.936 11.936 0 0 1 2.573 3.828 19.729 19.729 0 0 1 1.408 5.5 41.177 41.177 0 0 1 .133 7.5h-8.008a24.55 24.55 0 0 0 .154-6.556 9.386 9.386 0 0 0-1.562-4.269 24.262 24.262 0 0 1-2.816 6.424 14.233 14.233 0 0 1-3.7 3.961 5.238 5.238 0 0 1-1.43.7 5.8 5.8 0 0 1-1.65.287 4.437 4.437 0 0 1-1.628-.264 3.114 3.114 0 0 1-1.364-.99 3.2 3.2 0 0 1-.7-1.365 4.049 4.049 0 0 1-.065-1.517 4.386 4.386 0 0 1 .507-1.5 4.659 4.659 0 0 1 1.053-1.289zm22.969-12.54h-3.607a3.9 3.9 0 0 1-1.7-.33 3.393 3.393 0 0 1-1.143-.88 3.312 3.312 0 0 1-.659-1.233 4.6 4.6 0 0 1 0-2.683 3.277 3.277 0 0 1 .636-1.21 3.5 3.5 0 0 1 1.145-.88 3.816 3.816 0 0 1 1.717-.353h3.607v-8.58a3.484 3.484 0 0 1 1.1-2.794 3.918 3.918 0 0 1 2.64-.945 4.118 4.118 0 0 1 2.662.945 3.39 3.39 0 0 1 1.166 2.794V462h-7.568zm9.636-16.149a3.358 3.358 0 0 1 1.188-2.794 4.263 4.263 0 0 1 2.728-.945 4.473 4.473 0 0 1 1.452.241 3.731 3.731 0 0 1 1.254.727 3.521 3.521 0 0 1 1.21 2.771V462h-7.832z"/><path id="패스_44587" data-name="패스 44587" d="M1460.147 453.156a15.755 15.755 0 0 0 4-3.806 18.642 18.642 0 0 0 2.552-5.038 30.564 30.564 0 0 0 1.364-6.468 74.965 74.965 0 0 0 .4-8.14v-3.432a3.878 3.878 0 0 1 1.32-3.19 4.671 4.671 0 0 1 3.036-1.079 4.744 4.744 0 0 1 1.628.287 4.039 4.039 0 0 1 1.387.835 4.352 4.352 0 0 1 .967 1.342 4.173 4.173 0 0 1 .375 1.8v3.388a67.02 67.02 0 0 1-.529 8.756 17.083 17.083 0 0 1 4.84 2.662 12.9 12.9 0 0 1 3.388 4.179 19.186 19.186 0 0 1 1.849 6.029 40.415 40.415 0 0 1 .263 8.206h-8.536q1.189-9.9-3.475-13.113-2.862 9.066-9.416 12.584a6.987 6.987 0 0 1-1.716.639 5.738 5.738 0 0 1-1.717.132 4.2 4.2 0 0 1-1.518-.4 3.073 3.073 0 0 1-1.122-.9 3.9 3.9 0 0 1-.681-1.21 3.542 3.542 0 0 1-.2-1.408 3.468 3.468 0 0 1 .418-1.43 3.538 3.538 0 0 1 1.123-1.225zm31.2-12.364h-5.588a3.854 3.854 0 0 1-1.694-.331 3.381 3.381 0 0 1-1.144-.879 3.333 3.333 0 0 1-.66-1.232 4.647 4.647 0 0 1 0-2.684 3.3 3.3 0 0 1 .638-1.21 3.49 3.49 0 0 1 1.143-.88 3.8 3.8 0 0 1 1.717-.352h5.588v-8.272a3.874 3.874 0 0 1 1.32-3.19 4.659 4.659 0 0 1 3.035-1.078 4.786 4.786 0 0 1 1.629.286 4.5 4.5 0 0 1 1.407.814 3.9 3.9 0 0 1 .991 1.32 4.287 4.287 0 0 1 .374 1.848V462h-8.756z"/><path id="패스_44588" data-name="패스 44588" d="M1521.879 441.583a11.348 11.348 0 0 1-2.991-.33 3.939 3.939 0 0 1-1.87-1.055 4.009 4.009 0 0 1-.946-1.936 13.936 13.936 0 0 1-.264-2.927v-9.547a3.854 3.854 0 0 1 1.231-3.19 4.694 4.694 0 0 1 3.037-.99 4.23 4.23 0 0 1 2.816.924 3.822 3.822 0 0 1 1.188 2.9h7.963a3.764 3.764 0 0 1 1.211-2.927 5.07 5.07 0 0 1 5.9.089 3.967 3.967 0 0 1 1.166 3.19v15.8zm-1.8 7.041a2.063 2.063 0 0 1-1.826-.792 3.016 3.016 0 0 1-.551-1.76 2.982 2.982 0 0 1 .572-1.739 2.056 2.056 0 0 1 1.805-.813h28.291a6.484 6.484 0 0 1 4.092.989q1.189.99 1.188 3.587v6.951h-26.179a.981.981 0 0 0-.726.243.8.8 0 0 0-.242.593v.133a.805.805 0 0 0 .242.594.985.985 0 0 0 .726.242h24.86a2.159 2.159 0 0 1 1.869.814 3.014 3.014 0 0 1 .594 1.826 2.907 2.907 0 0 1-.571 1.694 2.153 2.153 0 0 1-1.892.814h-28.953a6.743 6.743 0 0 1-2.64-.484 5.854 5.854 0 0 1-1.936-1.3 5.347 5.347 0 0 1-1.188-1.869 6.362 6.362 0 0 1-.4-2.244v-.528a4.746 4.746 0 0 1 1.584-3.762 6.747 6.747 0 0 1 4.576-1.386h21.34v-1.1a.863.863 0 0 0-.131-.55.761.761 0 0 0-.572-.154zm11.967-13.332v-4h-7.963v2.9c0 .5.072.807.219.924a1.74 1.74 0 0 0 .969.176zm12.584-10.252a4.031 4.031 0 0 1 1.3-3.256 4.734 4.734 0 0 1 6.094.022 4.011 4.011 0 0 1 1.32 3.234v2.816h1.363a3.712 3.712 0 0 1 1.672.33 2.846 2.846 0 0 1 1.057.88 3.7 3.7 0 0 1 .572 1.21 5.115 5.115 0 0 1 .176 1.32 5.376 5.376 0 0 1-.176 1.342 3.452 3.452 0 0 1-.572 1.21 2.874 2.874 0 0 1-1.078.857 3.754 3.754 0 0 1-1.651.33h-1.363v7h-8.713z"/><path id="패스_44589" data-name="패스 44589" d="M1574.02 438.944v-1.056a4.01 4.01 0 0 1 .374-1.8 3.356 3.356 0 0 1 .99-1.209 4.2 4.2 0 0 1 1.407-.682 6.218 6.218 0 0 1 1.673-.22 6.282 6.282 0 0 1 1.649.22 4.165 4.165 0 0 1 1.43.682 3.356 3.356 0 0 1 .99 1.209 4 4 0 0 1 .375 1.8v1.056h12.5a3.982 3.982 0 0 1 1.584.286 3.046 3.046 0 0 1 1.077.748 2.7 2.7 0 0 1 .6 1.056 4.284 4.284 0 0 1 .176 1.21 3.434 3.434 0 0 1-.793 2.244 3.225 3.225 0 0 1-2.639.968h-34.32a3.233 3.233 0 0 1-2.641-.968 3.443 3.443 0 0 1-.791-2.244 4.211 4.211 0 0 1 .176-1.21 2.676 2.676 0 0 1 .594-1.056 3.05 3.05 0 0 1 1.078-.748 3.978 3.978 0 0 1 1.584-.286zm8.316-14.3a.978.978 0 0 1-.023.2 1.093 1.093 0 0 0-.022.2 20.667 20.667 0 0 1 5.017.593 13.841 13.841 0 0 1 4.378 1.937 13.405 13.405 0 0 1 3.519 3.519 17.459 17.459 0 0 1 2.4 5.347h-8.888a8.96 8.96 0 0 0-4.29-4.137 11.76 11.76 0 0 0-6.227-.836 18.936 18.936 0 0 1-3.365 2.2 27.426 27.426 0 0 1-3.916 1.65 25.427 25.427 0 0 1-4.2 1.012 21.577 21.577 0 0 1-4.181.242 3.991 3.991 0 0 1-2.926-1.145 3.3 3.3 0 0 1-.9-2.376 3.573 3.573 0 0 1 1.057-2.42 4.227 4.227 0 0 1 2.992-1.143 15.111 15.111 0 0 0 3.339-.487 16.075 16.075 0 0 0 3.212-1.188 11.19 11.19 0 0 0 2.574-1.738 5.188 5.188 0 0 0 1.473-2.178 4.975 4.975 0 0 1 2-2.86 5.341 5.341 0 0 1 6.051.462 3.617 3.617 0 0 1 .926 3.146zm7.039 22.88a10.748 10.748 0 0 1 3.609.55 7.145 7.145 0 0 1 2.574 1.54 6.291 6.291 0 0 1 1.54 2.309 8.589 8.589 0 0 1 0 5.809 6.3 6.3 0 0 1-1.54 2.31 7.159 7.159 0 0 1-2.574 1.54 10.749 10.749 0 0 1-3.609.549h-22.264a10.936 10.936 0 0 1-3.63-.549 6.891 6.891 0 0 1-2.573-1.54 6.388 6.388 0 0 1-1.518-2.31 8.589 8.589 0 0 1 0-5.809 6.375 6.375 0 0 1 1.518-2.309 6.878 6.878 0 0 1 2.573-1.54 10.935 10.935 0 0 1 3.63-.55zm-2.6 8.756c.793 0 1.3-.161 1.541-.485a1.505 1.505 0 0 0 0-1.935c-.236-.322-.748-.485-1.541-.485h-17.072c-.791 0-1.305.163-1.539.485a1.5 1.5 0 0 0 0 1.935q.351.486 1.539.485z"/><path id="패스_44590" data-name="패스 44590" d="M1614.1 420.552a4.593 4.593 0 0 1 3.322 1.165 4.345 4.345 0 0 1 1.21 3.279v.4h6.16a3.012 3.012 0 0 1 2.464 1.012 3.685 3.685 0 0 1 .836 2.42 3.619 3.619 0 0 1-.858 2.42 3.026 3.026 0 0 1-2.442 1.011h-.088a12.669 12.669 0 0 1 .571 1.827 9.212 9.212 0 0 1 .221 2.089v13.685a13.16 13.16 0 0 1-.881 5.038 9.662 9.662 0 0 1-2.4 3.52 9.787 9.787 0 0 1-3.609 2.068 14.465 14.465 0 0 1-4.509.682 14.275 14.275 0 0 1-4.489-.682 9.817 9.817 0 0 1-3.586-2.068 9.685 9.685 0 0 1-2.4-3.52 13.163 13.163 0 0 1-.88-5.038v-13.689a9.9 9.9 0 0 1 .748-3.916 3.025 3.025 0 0 1-2.442-1.011 3.62 3.62 0 0 1-.859-2.42 3.74 3.74 0 0 1 .815-2.42 2.944 2.944 0 0 1 2.441-1.012h6.117V425a4.344 4.344 0 0 1 1.209-3.279 4.594 4.594 0 0 1 3.329-1.169zm0 33.484a3.047 3.047 0 0 0 2.244-.991 4.3 4.3 0 0 0 .968-3.1V435.82a4.023 4.023 0 0 0-.947-3.036 3.212 3.212 0 0 0-2.265-.88 3.156 3.156 0 0 0-2.222.88 4.019 4.019 0 0 0-.946 3.036v14.124a4.352 4.352 0 0 0 .946 3.1 2.972 2.972 0 0 0 2.222.992zm16.675-29.084a3.877 3.877 0 0 1 1.321-3.19 4.661 4.661 0 0 1 3.036-1.078 4.776 4.776 0 0 1 1.628.286 4.225 4.225 0 0 1 1.386.814 4.047 4.047 0 0 1 .967 1.32 4.272 4.272 0 0 1 .375 1.848v11.131h1.451a3.535 3.535 0 0 1 1.672.353 3.025 3.025 0 0 1 1.057.9 3.683 3.683 0 0 1 .572 1.233 5.2 5.2 0 0 1 0 2.683 3.656 3.656 0 0 1-.572 1.233 2.972 2.972 0 0 1-1.078.9 3.56 3.56 0 0 1-1.651.352h-1.451V462h-8.713z"/><path id="패스_44591" data-name="패스 44591" d="M1647.9 452.936a20.725 20.725 0 0 0 5.038-1.078 9.763 9.763 0 0 0 3.849-2.486 11.147 11.147 0 0 0 2.443-4.4 22.913 22.913 0 0 0 .858-6.776v-7.128a1.117 1.117 0 0 0-.287-.792 1.057 1.057 0 0 0-.814-.309h-10.032a4.175 4.175 0 0 1-1.738-.329 3.7 3.7 0 0 1-1.209-.858 3.482 3.482 0 0 1-.727-1.21 4.1 4.1 0 0 1-.242-1.386 3.991 3.991 0 0 1 .242-1.343 3.726 3.726 0 0 1 .727-1.231 3.792 3.792 0 0 1 1.209-.9 3.944 3.944 0 0 1 1.738-.352h13.025q3.74 0 5.323 1.672a6.643 6.643 0 0 1 1.584 4.752v9.46a28.493 28.493 0 0 1-1.562 10.032 18.194 18.194 0 0 1-4.29 6.775 16.7 16.7 0 0 1-6.4 3.872 26.46 26.46 0 0 1-7.9 1.321 5.887 5.887 0 0 1-1.584-.22 3.931 3.931 0 0 1-1.385-.683 3.335 3.335 0 0 1-.947-1.166 3.454 3.454 0 0 1-.307-1.715 3.96 3.96 0 0 1 .9-2.376 3.585 3.585 0 0 1 2.488-1.146zm27.188 9.064v-36.96a4 4 0 0 1 1.319-3.256 4.862 4.862 0 0 1 6.16 0 4 4 0 0 1 1.32 3.256V462z"/></g></g></svg>