<svg version="1.2" baseProfile="tiny" xmlns="http://www.w3.org/2000/svg" viewBox="0 0 200.24 252.17" overflow="visible"><g fill="#FBB03B"><path d="M10.34 2.37h.69c.34 0 .56.05.64.14.09.09.13.28.13.55v7.38l-5.67-8.7H2.76v.63h1.3v9.87c0 .34-.07.56-.21.64-.14.09-.39.13-.74.13h-.35v.63h3.45v-.63h-.57c-.34 0-.58-.04-.72-.13s-.21-.3-.21-.64V2.73l7.19 11.03h.55V3.06c0-.27.05-.45.14-.55.09-.09.31-.14.65-.14h.55v-.63h-3.44v.63zm10.31 0h1.39V7.2h-5.43V2.37H18v-.63h-4.16v.63h1.29v10.65h-1.29v.63H18v-.63h-1.39V7.84h5.43v5.18h-1.39v.63h4.16v-.63h-1.29V2.37h1.29v-.63h-4.16zm12.22 8.46c0-.29-.06-.54-.19-.75-.12-.21-.27-.31-.45-.31h-1.59v.53h.53c.12 0 .22.07.3.2.08.14.12.3.12.5v2.64h-6.24v1.06H38.9v-1.06h-6.03v-2.81z"/><path d="M30.22 8.07c.83-.73 1.47-1.53 1.91-2.4.43.87 1.07 1.67 1.9 2.4.83.73 1.82 1.36 2.96 1.89l.81-.81c-.76-.34-1.46-.73-2.08-1.17-.62-.44-1.15-.92-1.6-1.44-.44-.52-.78-1.07-1.01-1.65-.23-.58-.35-1.18-.35-1.81v-.71c0-.29-.06-.54-.19-.75-.12-.21-.27-.31-.45-.31h-1.59v.53h.53c.12 0 .22.07.3.2s.12.3.12.5v.53c0 .62-.12 1.22-.36 1.81s-.58 1.13-1.02 1.65c-.44.52-.97 1-1.59 1.44-.62.44-1.31.83-2.07 1.17l.81.81c1.16-.53 2.14-1.16 2.97-1.88zm20.14 2.75c-.35-.32-.75-.57-1.21-.76-.46-.19-.95-.28-1.48-.28s-1.02.09-1.48.28c-.46.19-.86.44-1.21.76s-.62.69-.82 1.12c-.2.43-.3.88-.3 1.37s.1.94.3 1.37c.2.43.47.8.82 1.12.35.32.75.57 1.21.76.46.19.95.28 1.48.28s1.02-.09 1.48-.28c.46-.19.86-.44 1.21-.76s.62-.69.82-1.12c.2-.43.3-.88.3-1.37s-.1-.94-.3-1.37c-.2-.43-.47-.81-.82-1.12zm-.35 3.44c-.14.3-.32.56-.55.78-.23.22-.5.4-.8.53-.31.13-.63.19-.99.19-.35 0-.68-.06-1-.19-.31-.13-.58-.31-.81-.53a2.372 2.372 0 0 1-.73-1.74 2.372 2.372 0 0 1 .73-1.74 2.545 2.545 0 0 1 1.81-.72c.35 0 .68.06.99.19a2.597 2.597 0 0 1 1.35 1.31c.14.3.2.62.2.96s-.07.66-.2.96zm-4.34-7.08c.63.65 1.37 1.22 2.21 1.72l.81-.81c-.58-.33-1.1-.7-1.58-1.13-.48-.42-.88-.88-1.23-1.38-.34-.5-.61-1.03-.79-1.6-.19-.57-.28-1.16-.28-1.77v-.19c0-.29-.06-.54-.19-.75-.12-.21-.27-.31-.45-.31H42.6v.53h.53c.12 0 .22.07.3.2.08.14.12.3.12.5 0 .62-.09 1.22-.28 1.79-.19.57-.46 1.1-.8 1.6-.35.5-.76.96-1.23 1.37-.48.42-1 .79-1.56 1.12l.81.81c.85-.49 1.58-1.07 2.21-1.72.63-.65 1.13-1.37 1.49-2.14.36.79.86 1.5 1.48 2.16zm6.23-5.86c0-.29-.06-.54-.19-.75-.12-.21-.27-.31-.45-.31h-1.59v.53h.53c.12 0 .22.07.3.2.08.14.12.3.12.5V9.6h1.27V5.02h2.54V3.96H51.9V1.32zm12.92 9.64c-.42-.31-.92-.55-1.48-.73-.56-.18-1.17-.27-1.82-.27-.65 0-1.25.09-1.82.27-.56.18-1.06.43-1.48.73-.42.31-.76.67-1 1.09-.24.42-.36.87-.36 1.34 0 .48.12.93.36 1.35.24.42.57.78 1 1.08.42.31.92.55 1.48.73.56.18 1.17.27 1.82.27.65 0 1.25-.09 1.82-.27a5.38 5.38 0 0 0 1.48-.73c.42-.31.75-.67 1-1.08.24-.42.36-.87.36-1.35 0-.47-.12-.92-.36-1.34-.25-.42-.58-.79-1-1.09zm-.18 3.35c-.18.29-.42.54-.72.76-.31.22-.66.39-1.08.51-.41.12-.85.19-1.32.19-.47 0-.91-.06-1.32-.19-.41-.12-.77-.29-1.07-.51-.31-.22-.55-.47-.72-.76-.18-.29-.26-.6-.26-.93s.09-.64.26-.93c.18-.29.42-.54.72-.76.31-.22.66-.39 1.07-.51.41-.12.85-.19 1.32-.19.47 0 .91.06 1.32.19.41.12.77.29 1.08.51.31.22.55.47.72.76.18.29.26.6.26.93s-.08.65-.26.93zM61.1 5.19c0-.29-.06-.54-.19-.75-.12-.21-.27-.31-.45-.31h-1.59v.53h.53c.12 0 .22.07.3.2.08.14.12.3.12.5v2.12h-5.08v1.06h13.54V7.48H61.1V5.19z"/><path d="M64.85 3.62c-.04.5-.08.95-.13 1.36-.05.4-.12.74-.2 1.02-.08.28-.16.48-.25.6h1.25c.09-.12.18-.32.26-.6.08-.28.14-.63.2-1.03.06-.41.11-.86.14-1.36.04-.5.05-1.03.05-1.59V.96h-9.73v1.06h8.46c.01.56-.01 1.1-.05 1.6zM80.32.99c.08.14.12.3.12.5v10.22h1.27V1.32c0-.29-.06-.54-.19-.75-.12-.21-.27-.31-.45-.31h-1.59v.53h.53c.13 0 .23.06.31.2zm-6.03 14.13c-.12-.2-.19-.45-.19-.76v-2.11c0-.29-.06-.54-.19-.75-.12-.21-.27-.31-.45-.31h-1.59v.53h.53c.12 0 .22.07.3.2.08.14.12.3.12.5v2.47c0 .45.09.82.27 1.13.18.31.41.46.68.46h8.14v-1.06h-7.19c-.16 0-.31-.1-.43-.3zm-.72-6.23c.54 0 1.05-.11 1.52-.32.48-.21.89-.5 1.24-.87s.63-.8.84-1.29c.21-.49.31-1.01.31-1.58 0-.56-.1-1.09-.31-1.58s-.48-.91-.84-1.28c-.35-.36-.77-.65-1.24-.86-.48-.21-.98-.32-1.52-.32s-1.05.11-1.52.32-.89.5-1.24.86-.63.79-.84 1.28c-.21.49-.31 1.01-.31 1.58 0 .56.1 1.09.31 1.58s.48.92.84 1.29c.35.37.77.66 1.24.87s.98.32 1.52.32zM71.14 6c-.14-.36-.21-.75-.21-1.16 0-.41.07-.8.21-1.16.14-.37.33-.68.56-.95.23-.27.51-.48.84-.64.32-.16.67-.24 1.03-.24s.71.08 1.03.24c.32.16.6.37.84.64s.42.59.56.95c.14.36.21.75.21 1.16 0 .41-.07.8-.21 1.16-.14.36-.33.68-.56.95-.23.27-.51.48-.84.64-.32.16-.67.24-1.03.24s-.71-.08-1.03-.24c-.32-.16-.6-.37-.84-.64a3.06 3.06 0 0 1-.56-.95zm18.11-4.33h8.04v1.06h-8.04z"/><path d="M100.88 1.32c0-.29-.06-.54-.19-.75-.12-.21-.27-.31-.45-.31h-1.59v.53h.53c.12 0 .22.07.3.2.08.14.12.3.12.5v8.8c-.14.08-.3.16-.5.23-.29.1-.63.18-1.01.23-.39.05-.8.08-1.23.08h-1.27l.42-7.58h-1.27l-.42 7.58h-2.11l-.42-7.58h-1.27l.42 7.58h-1.69v1.06h7.61c.55 0 1.07-.06 1.56-.17.45-.1.85-.25 1.19-.42v5.35h.21c.14 0 .28-.07.41-.22.13-.15.24-.35.34-.61.1-.26.18-.56.23-.9.05-.34.08-.71.08-1.09V7.31h2.54V6.25h-2.54V1.32zm4.84.73c.08.14.12.3.12.5v5.29c0 .45.09.82.27 1.13.18.31.41.46.68.46h8.57V8.37h-7.61c-.18 0-.33-.1-.45-.3-.12-.2-.19-.45-.19-.76V5.72h7.83V4.66h-7.83V2.37h8.04V1.32h-10.26v.53h.53c.12-.01.22.06.3.2zm-1.99 11.6h13.54v1.06h-13.54zm16.78-3.29c-.12-.2-.18-.45-.18-.76V2.55c0-.29-.06-.54-.19-.75-.12-.21-.27-.31-.45-.31h-1.59v.53h.53c.12 0 .22.07.3.2.08.14.12.3.12.5v7.4c0 .45.09.82.27 1.13.18.31.41.46.68.46h7.51v-1.06h-6.56c-.16.01-.31-.09-.44-.29z"/><path d="M130.27.26h-1.59v.53h.53c.12 0 .22.07.3.2s.12.3.12.5v3.88h-4.86v1.06h4.86v10.22h.21c.14 0 .28-.07.41-.22.13-.15.24-.35.34-.61.1-.26.18-.56.23-.9s.08-.71.08-1.09V1.32c0-.29-.06-.54-.18-.75-.12-.21-.27-.31-.45-.31zm15.27 9.62c.37-.06.72-.14 1.06-.27.56-.23 1.06-.54 1.48-.94.42-.4.75-.87 1-1.4.24-.53.36-1.11.36-1.72 0-.61-.12-1.18-.36-1.72-.24-.53-.57-1-1-1.4a4.754 4.754 0 0 0-3.3-1.28c-.65 0-1.25.11-1.82.34-.56.23-1.06.54-1.48.94-.42.4-.76.87-1 1.4-.24.53-.36 1.11-.36 1.72a4.225 4.225 0 0 0 1.36 3.12c.42.4.92.71 1.48.94.41.17.85.25 1.3.3v3.75H138v1.06h13.54v-1.06h-6.01V9.88zm-3.15-1.96c-.31-.3-.55-.65-.72-1.07-.18-.41-.26-.85-.26-1.3 0-.46.09-.89.26-1.3.18-.41.42-.77.72-1.07.31-.3.66-.54 1.08-.71.41-.18.85-.26 1.32-.26.47 0 .91.09 1.32.26.41.18.77.41 1.08.71.31.3.55.66.72 1.07.18.41.26.85.26 1.3 0 .46-.09.89-.26 1.3-.18.41-.42.77-.72 1.07-.31.3-.66.54-1.08.71-.41.18-.85.26-1.32.26-.47 0-.91-.09-1.32-.26a3.38 3.38 0 0 1-1.08-.71zm10.11.8h13.54v1.06H152.5zm3.57 6.4c-.12-.2-.19-.45-.19-.76v-2.11c0-.29-.06-.54-.19-.75-.12-.21-.27-.31-.45-.31h-1.59v.53h.53c.12 0 .22.07.3.2.08.14.12.3.12.5v2.47c0 .45.09.82.27 1.13.18.31.41.46.68.46h8.57v-1.06h-7.61c-.17 0-.32-.1-.44-.3zM154.19.96h10.15v1.06h-10.15zm10.57 4.59h-2.75l.43-3h-1.27l-.42 3h-2.97l-.42-3h-1.27l.43 3h-2.75V6.6h10.99zM184.14.26h-1.59v.53h.53c.12 0 .22.07.3.2s.12.3.12.5v15.16h.21c.14 0 .28-.07.41-.22.13-.15.24-.35.34-.61.1-.26.18-.56.23-.9.05-.34.08-.71.08-1.09V1.32c0-.29-.06-.54-.19-.75-.11-.21-.26-.31-.44-.31zm-11 2.47h5.71c0 1.17-.18 2.28-.53 3.31-.35 1.03-.83 1.94-1.44 2.71s-1.31 1.38-2.12 1.83c-.81.45-1.67.68-2.59.68l.97.99c.99-.15 1.9-.51 2.75-1.06s1.58-1.25 2.21-2.1c.63-.85 1.12-1.81 1.48-2.9.36-1.09.54-2.24.54-3.46V1.67h-6.98v1.06zm22.73 4.75h-6.56c-.18 0-.33-.1-.45-.3-.12-.2-.19-.45-.19-.76V2.2c0-.29-.06-.54-.19-.75-.12-.21-.27-.31-.45-.31h-1.59v.53h.53c.12 0 .22.07.3.2.08.14.12.3.12.5v4.58c0 .45.09.82.27 1.13.18.31.41.46.68.46h7.51V7.48zm2.75 3h-9.41v.53h.53c.12 0 .22.07.3.2s.12.3.12.5v3.17c0 .45.09.82.27 1.13.18.31.41.46.68.46h8.14v-4.93c0-.29-.06-.54-.19-.75-.11-.21-.26-.31-.44-.31zm-.63 4.94h-5.92c-.18 0-.33-.1-.45-.3-.12-.2-.19-.45-.19-.76v-2.82h6.13c.12 0 .22.07.3.2s.12.3.12.5v3.18z"/><path d="M199.07.57c-.12-.21-.27-.31-.45-.31h-1.59v.53h.53c.12 0 .22.07.3.2s.12.3.12.5v.88h-4.86v1.06h4.86v1.76h-4.86v1.06h4.86v3.17h1.27v-8.1c.01-.3-.05-.55-.18-.75z"/></g><g fill="#00B259"><path d="M19.79 26.59h-2.78v.93h.93c.21 0 .38.12.52.35.14.24.22.53.22.88v8.02h-4.33c-.09-.13-.16-.27-.25-.39-.5-.65-1.09-1.16-1.77-1.53-.68-.37-1.4-.56-2.16-.56-.76 0-1.48.19-2.16.56-.68.37-1.27.88-1.77 1.53s-.9 1.4-1.19 2.25c-.29.85-.43 1.77-.43 2.76 0 .99.14 1.91.43 2.76.29.85.68 1.6 1.19 2.25.5.65 1.09 1.16 1.77 1.53.68.37 1.4.56 2.16.56.76 0 1.48-.19 2.16-.56.68-.37 1.27-.88 1.77-1.53.44-.56.77-1.21 1.05-1.93h3.53v10.79h.37c.25 0 .48-.13.71-.39.23-.26.43-.61.6-1.06.17-.45.31-.98.4-1.57.09-.6.14-1.23.14-1.91v-21.9c0-.51-.11-.95-.32-1.31-.22-.35-.48-.53-.79-.53zm-6.55 16.84c-.17.64-.41 1.19-.71 1.67-.3.47-.65.85-1.06 1.13-.41.28-.84.42-1.3.42-.47 0-.91-.14-1.31-.42-.4-.28-.75-.65-1.05-1.13-.3-.47-.53-1.03-.71-1.67-.17-.64-.26-1.32-.26-2.04s.09-1.4.26-2.04c.17-.64.41-1.19.71-1.67.3-.47.65-.85 1.05-1.13.4-.28.84-.42 1.31-.42.45 0 .88.14 1.3.42.41.28.77.65 1.06 1.13.3.47.53 1.03.71 1.67.17.64.26 1.32.26 2.04s-.09 1.4-.26 2.04zm2.39-.8c.05-.4.09-.81.09-1.23 0-.99-.14-1.91-.43-2.76 0-.01 0-.01-.01-.02h3.4v4.01h-3.05zm9.35-16.04H22.2v.93h.93c.21 0 .38.12.52.35.14.24.22.53.22.88v26.52h.37c.25 0 .48-.13.71-.39.23-.26.43-.61.6-1.06.17-.45.31-.98.4-1.57.09-.6.14-1.23.14-1.91v-21.9c0-.51-.11-.95-.32-1.31-.22-.36-.49-.54-.79-.54z"/><path d="M17.2 30.91h-5.92v-1.54c0-.51-.11-.95-.32-1.31-.22-.36-.48-.54-.79-.54H7.4v.93h.93c.21 0 .38.12.52.35.14.24.22.53.22.88v1.23H3.14v1.85H17.2v-1.85zm33.83-4.32h-2.78v.93h.93c.21 0 .38.12.52.35.14.24.22.53.22.88v4.32h-3.33v-4.63c0-.51-.11-.95-.32-1.31-.22-.36-.48-.54-.79-.54H42.7v.93h.93c.21 0 .38.12.52.35.14.24.22.53.22.88v9.59c-.02.02-.03.04-.06.07-.29.23-.68.43-1.19.6-.5.17-1.09.31-1.77.4-.68.09-1.4.14-2.16.14h-5.18c-.31 0-.57-.17-.79-.52-.22-.35-.32-.79-.32-1.33v-2.16h7.4v-1.85h-7.4V30.3h8.14v-1.85H29.01v.93h.93c.21 0 .38.12.52.35.14.24.22.53.22.88v8.02c0 .78.16 1.44.48 1.97.32.53.71.8 1.19.8h6.85c.97 0 1.88-.1 2.73-.29.85-.2 1.59-.46 2.22-.8.09-.05.15-.1.23-.15v2.48h2.22v-7.71h3.33v7.71h2.22v-14.2c0-.51-.11-.95-.32-1.31-.23-.36-.49-.54-.8-.54zm0 17.89H35.12v1.85h14.06c.21 0 .38.12.52.35.14.24.22.53.22.88v7.4h2.22v-8.64c0-.51-.11-.95-.32-1.31-.22-.35-.48-.53-.79-.53zm24.94-17.89H73.2v.93h.93c.21 0 .38.12.52.35.14.24.22.53.22.88v26.52h.37c.25 0 .48-.13.71-.39.23-.26.43-.61.6-1.06.17-.45.31-.98.4-1.57.09-.6.14-1.23.14-1.91v-21.9c0-.51-.11-.95-.32-1.31-.22-.36-.49-.54-.8-.54zm-8.29 4.86c-.62-.83-1.34-1.49-2.17-1.97-.83-.48-1.72-.72-2.67-.72s-1.84.24-2.67.72c-.83.48-1.56 1.14-2.17 1.97-.62.83-1.11 1.81-1.47 2.95-.36 1.13-.54 2.33-.54 3.61 0 1.28.18 2.48.54 3.61.36 1.13.85 2.11 1.47 2.95.62.83 1.34 1.49 2.17 1.97.83.48 1.72.72 2.67.72s1.84-.24 2.67-.72c.83-.48 1.56-1.14 2.17-1.97.62-.83 1.11-1.81 1.47-2.95.36-1.13.54-2.33.54-3.61 0-1.27-.18-2.48-.54-3.61-.37-1.14-.85-2.12-1.47-2.95zm-.59 9.43c-.25.89-.58 1.68-.99 2.34-.41.67-.9 1.2-1.46 1.59-.57.39-1.17.59-1.8.59-.64 0-1.24-.2-1.8-.59-.57-.39-1.05-.92-1.46-1.59-.41-.67-.74-1.45-.99-2.34-.25-.89-.37-1.86-.37-2.88 0-1.01.12-1.96.37-2.87.25-.9.58-1.69.99-2.36.41-.67.9-1.2 1.46-1.59.57-.39 1.17-.59 1.8-.59.64 0 1.24.2 1.8.59.57.39 1.05.92 1.46 1.59.41.67.74 1.45.99 2.36.25.9.37 1.86.37 2.87 0 1.03-.12 1.99-.37 2.88zm35.33-3.26c.54-.36 1.04-.75 1.5-1.17.75-.71 1.36-1.5 1.84-2.36a9.36 9.36 0 0 0 1.84 2.36c.75.71 1.61 1.33 2.58 1.87l1.45-1.42c-1.46-.78-2.62-1.77-3.47-2.98-.85-1.2-1.28-2.51-1.28-3.93v-.62c0-.51-.11-.95-.32-1.31-.22-.36-.48-.54-.79-.54h-2.78v.93h.93c.21 0 .38.12.52.35.14.24.22.53.22.88v.31c0 1.17-.29 2.27-.88 3.28-.59 1.02-1.4 1.92-2.45 2.7-1.05-.78-1.87-1.68-2.45-2.7a6.43 6.43 0 0 1-.88-3.28v-.31c0-.51-.11-.95-.32-1.31-.22-.36-.48-.54-.79-.54H94.1v.93h.93c.21 0 .38.12.52.35.14.24.22.53.22.88 0 1.42-.43 2.73-1.3 3.93-.86 1.2-2.02 2.2-3.45 2.98l1.42 1.42c.99-.53 1.86-1.16 2.61-1.87.75-.71 1.36-1.5 1.84-2.36a9.36 9.36 0 0 0 1.84 2.36c.45.43.96.81 1.5 1.17v3.16H89.47v1.85h23.69v-1.85h-10.73v-3.16zm-6.7 14.97c-.22-.35-.32-.79-.32-1.33v-4.32h14.06v-1.85H91.51v.93h.93c.21 0 .38.12.52.35.14.24.22.53.22.88v4.93c0 .78.16 1.44.48 1.97.32.53.71.8 1.19.8h14.99V53.1H96.5c-.31.01-.57-.16-.78-.51zm31.49-21.14c-.62-.83-1.34-1.49-2.17-1.97-.83-.48-1.72-.72-2.67-.72s-1.84.24-2.67.72c-.83.48-1.56 1.14-2.17 1.97-.62.83-1.11 1.81-1.47 2.95-.36 1.13-.54 2.33-.54 3.61 0 1.28.18 2.48.54 3.61.36 1.13.85 2.11 1.47 2.95.62.83 1.34 1.49 2.17 1.97.83.48 1.72.72 2.67.72s1.84-.24 2.67-.72c.83-.48 1.56-1.14 2.17-1.97.62-.83 1.11-1.81 1.46-2.95.36-1.13.54-2.33.54-3.61 0-1.27-.18-2.48-.54-3.61-.35-1.14-.84-2.12-1.46-2.95zm-.58 9.43c-.25.89-.58 1.68-.99 2.34-.41.67-.9 1.2-1.46 1.59-.57.39-1.17.59-1.8.59-.64 0-1.24-.2-1.8-.59-.57-.39-1.05-.92-1.46-1.59-.41-.67-.74-1.45-.99-2.34-.25-.89-.37-1.86-.37-2.88 0-1.01.12-1.96.37-2.87.25-.9.58-1.69.99-2.36.41-.67.9-1.2 1.46-1.59.57-.39 1.17-.59 1.8-.59.64 0 1.24.2 1.8.59.57.39 1.05.92 1.46 1.59.41.67.74 1.45.99 2.36.25.9.37 1.86.37 2.87 0 1.03-.12 1.99-.37 2.88zm9.25-12.44c0-.51-.11-.95-.32-1.31-.22-.36-.48-.54-.79-.54H132v.93h.93c.21 0 .38.12.52.35.14.24.22.53.22.88v26.52h.37c.25 0 .48-.13.71-.39.23-.26.43-.61.6-1.06.17-.45.31-.98.4-1.57.09-.6.14-1.23.14-1.91V38.93h4.44v-1.85h-4.44v-8.64zm24.36-.57c.14.24.22.53.22.88v17.89h2.22v-18.2c0-.51-.11-.95-.32-1.31-.22-.36-.48-.54-.79-.54h-2.78v.93h.93c.2-.01.38.11.52.35zm-10.56 24.72c-.22-.35-.32-.79-.32-1.33v-3.7c0-.51-.11-.95-.32-1.31-.22-.36-.48-.54-.79-.54h-2.78v.93h.93c.21 0 .38.12.52.35.14.24.22.53.22.88v4.32c0 .78.16 1.44.48 1.97.32.53.71.8 1.19.8h14.25v-1.85h-12.58c-.33 0-.59-.17-.8-.52zm-1.25-17.4c.64 1.44 1.51 2.76 2.61 3.96s2.39 2.26 3.87 3.16l1.42-1.42c-1.01-.6-1.92-1.28-2.75-2.05-.82-.77-1.53-1.61-2.11-2.51-.59-.9-1.05-1.87-1.39-2.88a10.53 10.53 0 0 1-.54-3.16h5.74v-1.85h-13.69v1.85h5.74c-.04 1.09-.23 2.14-.56 3.16-.33 1.02-.79 1.98-1.37 2.88-.59.91-1.29 1.74-2.11 2.51-.82.77-1.74 1.46-2.75 2.05l1.42 1.42c1.48-.9 2.77-1.96 3.87-3.16 1.09-1.2 1.96-2.52 2.6-3.96zm38.45-6.75c0-.51-.11-.95-.32-1.31-.22-.36-.48-.54-.79-.54h-2.78v.93h.93c.21 0 .38.12.52.35.14.24.22.53.22.88v15.09c-.25.15-.53.29-.88.41-.5.18-1.1.31-1.77.4-.68.09-1.4.14-2.16.14h-9.25c-.31 0-.57-.17-.79-.52-.22-.35-.32-.79-.32-1.33V30.91h9.99v-1.85H165.6v.93h.93c.21 0 .38.12.52.35.14.24.22.53.22.88v12.65c0 .78.16 1.44.48 1.97.32.53.71.8 1.19.8h10.92c.97 0 1.88-.1 2.73-.29.8-.18 1.48-.43 2.08-.74v9.67h.37c.25 0 .48-.13.71-.39.23-.26.43-.61.6-1.06.17-.45.31-.98.4-1.57.09-.6.14-1.23.14-1.91V38.93h4.44v-1.85h-4.44v-8.64zm7.55 5.43c.14.53.27 1.22.37 2.07.1.84.19 1.73.26 2.65.07.93.13 1.83.17 2.73.04.89.06 1.66.06 2.3h1.23c0-.62.02-1.37.05-2.27.03-.89.08-1.8.15-2.73.07-.93.16-1.81.26-2.65.1-.84.23-1.53.37-2.07.14-.53.24-1.05.29-1.56.05-.5.08-.95.08-1.34 0-.6-.15-1.08-.46-1.45-.31-.37-.76-.56-1.36-.56-.6 0-1.05.19-1.36.56-.31.37-.46.85-.46 1.45 0 .37.02.81.06 1.31.05.5.15 1.02.29 1.56zm1.48 12.7c-.51 0-.95.18-1.3.52-.35.35-.52.78-.52 1.3 0 .51.17.95.52 1.3.35.35.78.52 1.3.52.51 0 .95-.18 1.3-.52.35-.35.52-.78.52-1.3 0-.51-.17-.95-.52-1.3-.35-.34-.79-.52-1.3-.52z"/></g><g fill="#2D2D2D"><path d="M31.12 93.29c-.28.44-.63.85-1.03 1.22s-.84.71-1.33 1l.69.69c.72-.44 1.35-.95 1.88-1.54.53-.58.96-1.23 1.27-1.92.31.7.73 1.34 1.27 1.92.53.58 1.16 1.1 1.88 1.54l.69-.69c-.49-.29-.93-.62-1.33-1a6.6 6.6 0 0 1-1.03-1.22 6.21 6.21 0 0 1-.67-1.4 5.29 5.29 0 0 1-.26-1.54h2.79v-.9h-6.65v.9h2.79c-.02.53-.11 1.04-.27 1.54-.18.49-.41.96-.69 1.4zm8.76 8.15h-6.11c-.15 0-.28-.09-.38-.25-.1-.17-.16-.38-.16-.64v-1.8c0-.25-.05-.46-.16-.64-.1-.17-.23-.26-.38-.26h-1.35v.45h.45c.1 0 .18.06.25.17.07.11.1.26.1.43v2.1c0 .38.08.7.23.96.15.26.35.39.58.39h6.92v-.91z"/><path d="M38.51 89.18c.07.12.1.26.1.43v2.25h-3.24v.9h3.24v5.54h1.08v-8.84c0-.25-.05-.46-.16-.64-.1-.17-.23-.26-.38-.26H37.8V89h.45c.11 0 .19.06.26.18zm7.82 8.06h-3.69v.9h6.83c.1 0 .18.06.25.17.07.11.1.26.1.43v3.6h1.08v-4.19c0-.25-.05-.46-.16-.64-.1-.17-.23-.26-.38-.26h-2.97v-2.1h5.3v-.9h-2.12c.06-.29.11-.62.15-1.01a31.09 31.09 0 0 0 .17-3.19v-.9h-8.27v.9h7.19c0 .6-.01 1.17-.04 1.72-.03.54-.07 1.03-.11 1.47-.04.39-.09.72-.15 1.01h-8.32v.9h5.12v2.09zm17.13-8.06c.07.12.1.26.1.43v12.88h.18c.12 0 .23-.06.34-.19.11-.13.21-.3.29-.52.08-.22.15-.47.19-.76.04-.29.07-.6.07-.93V89.45c0-.25-.05-.46-.16-.64-.1-.17-.23-.26-.38-.26h-1.35V89h.45c.12 0 .2.06.27.18zm-8.76 8.1c.26.4.56.72.91.96.35.23.72.35 1.12.35s.77-.12 1.12-.35c.35-.23.65-.55.91-.96.26-.4.46-.88.61-1.43.14-.5.2-1.04.22-1.6h1.45v8.24h.18c.12 0 .23-.06.34-.19.11-.13.21-.3.29-.52.08-.22.15-.47.19-.76.05-.29.07-.6.07-.93V89.45c0-.25-.05-.46-.16-.64-.1-.17-.23-.26-.38-.26h-1.35V89h.45c.1 0 .18.06.25.17.07.12.1.26.1.43v3.75h-1.48a6.32 6.32 0 0 0-.18-1c-.15-.55-.35-1.03-.61-1.43-.26-.4-.56-.72-.91-.96-.35-.23-.72-.35-1.12-.35s-.77.12-1.12.35c-.35.24-.65.55-.91.96-.26.4-.46.88-.61 1.43-.15.55-.22 1.13-.22 1.75 0 .62.07 1.2.22 1.75.16.55.36 1.03.62 1.43zm.38-4.58c.09-.44.22-.82.39-1.15.16-.32.35-.58.57-.77.21-.19.45-.28.7-.28.25 0 .48.1.7.28.21.19.4.45.57.77.16.32.29.71.39 1.15.09.44.14.9.14 1.39 0 .5-.05.97-.14 1.4-.1.43-.22.81-.39 1.14-.16.32-.35.58-.57.77-.21.19-.45.28-.7.28-.25 0-.48-.09-.7-.28-.22-.19-.4-.45-.57-.77-.16-.32-.29-.7-.39-1.14-.1-.43-.14-.9-.14-1.4 0-.48.05-.95.14-1.39zm20.79 9.79h.18c.12 0 .23-.06.34-.19.11-.13.21-.3.29-.52.08-.22.15-.47.2-.76.04-.29.07-.6.07-.93V89.45c0-.25-.05-.46-.16-.64-.1-.17-.23-.26-.38-.26h-1.35V89h.45c.1 0 .18.06.25.17.07.12.1.26.1.43v3.3h-3.6v.9h3.6v8.69zm-7.3-5.35c.53-.6.95-1.27 1.27-2.02.32.75.74 1.42 1.27 2.02s1.15 1.13 1.86 1.6l.7-.69c-.5-.32-.95-.68-1.36-1.09-.41-.41-.76-.85-1.04-1.33-.28-.48-.5-.99-.66-1.52-.15-.53-.23-1.09-.23-1.66v-2.1c0-.25-.05-.46-.16-.64s-.23-.26-.38-.26h-1.35v.45h.45c.1 0 .19.06.25.17.07.12.1.26.1.43v1.95c0 .58-.08 1.14-.23 1.67-.15.53-.37 1.04-.66 1.51-.28.47-.63.92-1.04 1.33-.41.41-.86.77-1.36 1.09l.69.69c.73-.47 1.35-1 1.88-1.6zm25.18 1c0-.25-.05-.46-.16-.64-.1-.17-.23-.26-.38-.26h-8v.45h.45c.1 0 .18.06.25.17.07.11.1.26.1.43v2.7c0 .38.08.7.23.96.15.26.35.39.58.39h6.92v-4.2zm-1.08 3.3h-5.03c-.15 0-.28-.09-.38-.25-.1-.17-.16-.38-.16-.64v-2.4h5.21c.1 0 .18.06.25.17.07.11.1.26.1.43v2.69zm-8.38-6.56c.3.31.65.56 1.06.74.4.18.84.27 1.3.27.46 0 .89-.09 1.3-.27.4-.18.76-.43 1.06-.74.3-.31.54-.68.71-1.09.14-.33.2-.68.23-1.04h2.72v3.6h1.08v-6.89c0-.25-.05-.46-.16-.64-.1-.17-.23-.26-.38-.26h-1.35V89h.45c.1 0 .18.06.25.17.07.12.1.26.1.43v2.25h-2.75c-.04-.26-.11-.51-.21-.74a3.48 3.48 0 0 0-.71-1.09c-.3-.31-.65-.55-1.06-.73-.4-.18-.84-.27-1.3-.27-.46 0-.89.09-1.3.27-.4.18-.76.42-1.06.73a3.479 3.479 0 0 0-.97 2.43c0 .48.09.93.26 1.34.2.41.43.78.73 1.09zm.29-3.42c.12-.31.28-.58.48-.81.2-.23.44-.41.71-.55s.57-.2.88-.2c.31 0 .6.07.88.2.27.13.51.32.71.55.2.23.36.5.48.81.12.31.18.64.18.99s-.06.68-.18.99c-.12.31-.28.58-.48.81-.2.23-.44.41-.71.55-.28.14-.57.2-.88.2-.31 0-.6-.07-.88-.2-.27-.13-.51-.32-.71-.55-.2-.23-.36-.5-.48-.81-.12-.31-.18-.64-.18-.99s.06-.68.18-.99zm13.09 3.2c.53-.58.96-1.23 1.27-1.92.31.7.73 1.34 1.27 1.92.53.58 1.16 1.1 1.88 1.54l.69-.69c-.5-.3-.95-.64-1.36-1.03-.4-.38-.75-.8-1.04-1.26-.29-.45-.51-.94-.67-1.45-.15-.51-.23-1.03-.23-1.57v-.15c0-.25-.05-.46-.16-.64-.1-.17-.23-.26-.38-.26h-1.35v.45h.45c.1 0 .18.06.25.17.07.11.1.26.1.43 0 .54-.08 1.06-.23 1.57-.15.51-.38.99-.67 1.45-.29.45-.64.87-1.04 1.26-.4.38-.86.73-1.36 1.03l.69.69c.73-.45 1.36-.96 1.89-1.54zm7.29 3.63h1.08v-8.84c0-.25-.05-.46-.16-.64-.1-.17-.23-.26-.38-.26h-1.35V89h.45c.1 0 .18.06.25.17.07.12.1.26.1.43v1.8h-3.42v.9h3.42v5.99zm-6.24 3.66c.15.26.35.39.58.39h6.92v-.9h-6.11c-.15 0-.28-.09-.38-.25-.1-.17-.16-.38-.16-.64v-1.8c0-.25-.05-.46-.16-.64-.1-.17-.23-.26-.38-.26h-1.35v.45h.45c.1 0 .18.06.25.17.07.11.1.26.1.43v2.1c.01.37.09.69.24.95zm12.94-.77c-.1-.17-.16-.38-.16-.64v-1.8c0-.25-.05-.46-.16-.64-.1-.17-.23-.26-.38-.26h-1.35v.45h.45c.1 0 .18.06.25.17.07.11.1.26.1.43v2.1c0 .38.08.7.23.96.15.26.35.39.58.39h7.1v-.9h-6.29c-.13 0-.26-.09-.37-.26zm4.05-4.83c.41-.09.77-.22 1.08-.39.11-.06.2-.12.29-.19v2.52h1.08v-8.84c0-.25-.05-.46-.16-.64-.1-.17-.23-.26-.38-.26h-1.35V89h.45c.1 0 .18.06.25.17.07.12.1.26.1.43v5.09c0 .12-.07.23-.21.34-.14.11-.33.21-.58.29-.24.09-.53.15-.86.19-.33.05-.68.07-1.05.07h-2.16v-1.65h2.52v-.9h-4.49c-.15 0-.28-.08-.38-.25-.1-.17-.16-.38-.16-.64V90.2h4.85v-.9h-6.74v.45h.45c.1 0 .18.06.25.17.07.11.1.26.1.43v2.25c0 .38.08.7.23.96.15.26.35.39.58.39h1.71v1.65h-3.6v.9h6.83c.49-.01.93-.05 1.35-.15zm8.46 1.34h5.12v4.79h.18c.12 0 .23-.06.34-.19.11-.13.21-.3.29-.52.08-.22.15-.47.19-.76s.07-.6.07-.93v-2.4h5.3v-.9h-11.5v.91zm2.95-3.2c.36.3.78.53 1.26.7.48.17.99.25 1.54.25s1.06-.08 1.54-.25c.48-.17.9-.4 1.26-.7.36-.3.64-.65.85-1.05.2-.4.31-.83.31-1.29 0-.45-.1-.87-.31-1.27-.2-.4-.49-.75-.85-1.05-.36-.3-.78-.54-1.26-.71-.48-.17-.99-.26-1.54-.26s-1.06.09-1.54.26c-.48.18-.9.41-1.26.71s-.64.65-.85 1.05a2.802 2.802 0 0 0 0 2.56c.21.4.49.75.85 1.05zm.15-3.27c.15-.29.35-.54.61-.76.26-.21.56-.38.91-.51a3.418 3.418 0 0 1 2.24 0c.35.13.65.29.91.51.26.22.46.47.61.76.15.29.22.6.22.93 0 .33-.07.64-.22.94-.15.29-.35.55-.61.76-.26.21-.56.38-.91.51a3.418 3.418 0 0 1-2.24 0c-.35-.13-.65-.29-.91-.51-.26-.21-.46-.47-.61-.76-.15-.29-.22-.61-.22-.94 0-.33.07-.64.22-.93zm14.32 11.27h.18c.12 0 .23-.06.34-.19.11-.13.21-.3.29-.52.08-.22.15-.47.19-.76.04-.29.07-.6.07-.93v-2.7h5.3v-.9h-11.5v.9h5.12v5.1zm-.99-8.55c.7-.52 1.25-1.1 1.63-1.73.37.63.91 1.21 1.62 1.73.71.52 1.55.98 2.52 1.36l.7-.69c-.65-.24-1.24-.52-1.77-.83-.53-.31-.98-.65-1.36-1.01a4.42 4.42 0 0 1-.87-1.15c-.2-.4-.31-.83-.31-1.27v-.3c0-.25-.05-.46-.16-.64-.1-.17-.23-.26-.38-.26h-1.35v.45h.45c.1 0 .18.06.25.17.07.11.1.26.1.43v.15c0 .44-.1.86-.31 1.27-.2.4-.49.79-.87 1.15-.37.36-.83.7-1.36 1.01-.53.31-1.12.59-1.77.83l.7.69c1-.38 1.83-.84 2.54-1.36zm18.13-4.76c.07.12.1.26.1.43v12.88h.18c.12 0 .23-.06.34-.19.11-.13.21-.3.29-.52.09-.22.15-.47.2-.76.05-.29.07-.6.07-.93V89.45c0-.25-.05-.46-.16-.64-.1-.17-.23-.26-.38-.26h-1.35V89h.45c.1 0 .19.06.26.18zm-7.84 8.03c.46-.58.83-1.23 1.11-1.92.28.7.65 1.34 1.11 1.92.46.58.99 1.1 1.59 1.54l.69-.69c-.42-.31-.8-.67-1.15-1.07a6.93 6.93 0 0 1-1.69-4.53v-2.1c0-.25-.05-.46-.16-.64s-.23-.26-.38-.26h-1.35v.45h.45c.1 0 .18.06.25.17.07.12.1.26.1.43v1.95c0 .58-.07 1.14-.2 1.67-.14.53-.33 1.04-.58 1.52-.25.48-.55.92-.9 1.33-.35.41-.74.77-1.17 1.08l.69.69c.6-.45 1.13-.96 1.59-1.54z"/><path d="M156.32 102.49h.18c.12 0 .23-.06.34-.19.11-.13.21-.3.29-.52.09-.22.15-.47.2-.76.04-.29.07-.6.07-.93V89.45c0-.25-.05-.46-.16-.64-.1-.17-.23-.26-.38-.26h-1.35V89h.45c.1 0 .18.06.25.17.07.12.1.26.1.43v3.3h-2.34v.9h2.34v8.69zm5.1-5.1h5.12v5.09h.18c.12 0 .23-.06.34-.19.11-.13.21-.3.29-.52.08-.22.15-.47.19-.76.05-.29.07-.6.07-.93v-2.7h5.3v-.9h-11.5v.91zm1.69-7.32c.07.12.1.26.1.43v2.85c0 .38.08.7.23.96.15.26.35.39.58.39h7.1v-4.34c0-.25-.05-.46-.16-.64-.1-.17-.23-.26-.38-.26h-8.18v.45h.45c.11-.01.19.05.26.16zm1.19.28h5.39c.1 0 .18.06.25.17.07.12.1.26.1.43v2.85h-5.21c-.15 0-.28-.08-.38-.25-.1-.17-.16-.38-.16-.64v-2.56zm19.66-.9c0-.25-.05-.46-.16-.64-.1-.17-.23-.26-.38-.26h-1.35V89h.45c.1 0 .19.06.25.17.07.12.1.26.1.43v12.88h.18c.12 0 .23-.06.34-.19.11-.13.21-.3.29-.52.08-.22.15-.47.19-.76.05-.29.07-.6.07-.93v-5.54h2.16v-.9h-2.16v-4.19zm-7.83 7.69c.53-.6.95-1.27 1.27-2.02.32.75.74 1.42 1.27 2.02.52.6 1.15 1.13 1.86 1.6l.7-.69c-.5-.32-.95-.68-1.36-1.09-.41-.41-.76-.85-1.04-1.33-.28-.48-.5-.99-.66-1.52-.15-.53-.23-1.09-.23-1.66v-2.1c0-.25-.05-.46-.16-.64s-.23-.26-.38-.26h-1.35v.45h.45c.1 0 .18.06.25.17.07.12.1.26.1.43v1.95c0 .58-.08 1.14-.23 1.67-.15.53-.37 1.04-.66 1.51-.28.47-.63.92-1.04 1.33-.41.41-.86.77-1.36 1.09l.69.69c.72-.47 1.35-1 1.88-1.6zm14.14-1.37a6.11 6.11 0 0 1-1.81 1.56c-.69.38-1.42.58-2.2.58l.82.84a5.88 5.88 0 0 0 2.34-.9c.72-.47 1.35-1.06 1.88-1.78.53-.72.95-1.54 1.26-2.46.3-.92.46-1.9.46-2.94v-.9h-5.93v.9h4.85c0 1-.15 1.94-.45 2.82-.3.86-.7 1.62-1.22 2.28zm6.35-2.12v-4.19c0-.25-.05-.46-.16-.64-.1-.17-.23-.26-.38-.26h-1.35V89h.45c.1 0 .19.06.25.17.07.12.1.26.1.43v12.88h.18c.12 0 .23-.06.34-.19.11-.13.21-.3.29-.52.08-.22.15-.47.19-.76.05-.29.07-.6.07-.93v-5.54h2.16v-.9h-2.14zM30.24 121.39v.54h4.09v-.54h-1.41v-9.5h-.51c-.45.42-.88.82-1.3 1.19-.42.37-.82.72-1.21 1.04v.54c.14-.09.29-.19.45-.31.16-.11.31-.22.46-.33.15-.1.29-.19.41-.27.12-.08.22-.11.29-.11s.11.02.13.05c.01.04.02.08.02.13v7.56h-1.42zm8.44-1.18c.14 0 .27-.04.38-.12a.39.39 0 0 0 .17-.33v-.5c0-.14-.05-.25-.16-.34a.558.558 0 0 0-.37-.13h-.35c-.14 0-.27.04-.38.12a.39.39 0 0 0-.17.33v.5c0 .13.05.24.16.33.11.09.23.14.37.14h.35zm-.34-6.35c-.14 0-.27.04-.38.12a.39.39 0 0 0-.17.33v.5c0 .13.05.24.16.33.11.09.23.14.37.14h.35c.14 0 .27-.04.38-.12.11-.08.17-.2.17-.35v-.48c0-.14-.05-.25-.16-.34a.558.558 0 0 0-.37-.13h-.35zm7.16-1.96c-.45.42-.88.82-1.3 1.19-.42.37-.82.72-1.21 1.04v.54c.14-.09.29-.19.45-.31.16-.11.31-.22.46-.33.15-.1.29-.19.41-.27.12-.08.22-.11.29-.11.07 0 .11.02.13.05.01.04.02.08.02.13v7.56h-1.42v.54h4.09v-.54h-1.41v-9.5h-.51zm8.52.47c.07.11.1.26.1.43v6.14c0 .38.08.7.23.96.15.26.35.39.58.39h3.33c.47 0 .91-.05 1.33-.14.41-.09.77-.22 1.08-.39.04-.02.07-.05.11-.07v4.8h.18c.12 0 .23-.06.34-.19.11-.13.21-.3.29-.52.08-.22.15-.47.19-.76.04-.29.07-.6.07-.93v-5.54h1.62v7.94h.18c.12 0 .23-.06.34-.19.11-.13.21-.3.29-.52.08-.22.15-.47.19-.76.05-.29.07-.6.07-.93v-10.64c0-.25-.05-.46-.16-.64-.1-.17-.23-.26-.38-.26h-1.35v.45h.45c.1 0 .18.06.25.17.07.12.1.26.1.43v4.04h-1.62v-4.19c0-.25-.05-.46-.16-.64-.1-.17-.23-.26-.38-.26h-1.35v.45h.45c.1 0 .18.06.25.17.07.12.1.26.1.43v7.2l-.03.03c-.14.11-.33.21-.58.29-.24.09-.53.15-.86.19-.33.04-.68.07-1.05.07H55.7c-.15 0-.28-.08-.38-.25-.1-.17-.16-.38-.16-.64v-5.84h3.95v-.9h-5.84v.45h.45c.15 0 .23.05.3.17zm18.69 4.02h3.06v3.9h1.08v-8.84c0-.25-.05-.46-.16-.64-.1-.17-.23-.26-.38-.26h-1.35v.45h.45c.1 0 .18.06.25.17.07.12.1.26.1.43v1.35H72.7v-.6c0-.25-.05-.46-.16-.64-.1-.17-.23-.26-.38-.26h-6.2v.45h.45c.1 0 .18.06.25.17.07.12.1.26.1.43v3.89c0 .38.08.7.23.96.15.26.35.39.58.39h5.12v-1.35zm-1.08.45H68.4c-.15 0-.28-.08-.38-.25-.1-.17-.16-.38-.16-.64v-3.6h3.42c.1 0 .18.06.25.17.07.12.1.26.1.43v3.89zm4.14-3v1.65h-3.06v-1.65h3.06zm1.26 9.59h-6.11c-.15 0-.28-.09-.38-.25-.1-.17-.16-.38-.16-.64v-1.8c0-.25-.05-.46-.16-.64-.1-.17-.23-.26-.38-.26h-1.35v.45h.45c.1 0 .18.06.25.17.07.11.1.26.1.43v2.1c0 .38.08.7.23.96.15.26.35.39.58.39h6.92v-.91zm5.37-11.85h-.75l-3.38 10.58h.75zm1.32.64c.07.11.1.26.1.43v6.44c0 .38.08.7.23.96.15.26.35.39.58.39h5.12v-8.09c0-.25-.05-.46-.16-.64-.1-.17-.23-.26-.38-.26h-1.35v.45h.45c.1 0 .18.06.25.17.07.12.1.26.1.43v2.4H84.9v-2.4c0-.25-.05-.46-.16-.64-.1-.17-.23-.26-.38-.26h-1.35v.45h.45c.1 0 .19.05.26.17zm1.18 3.57h3.77v3.74h-3.23c-.15 0-.28-.08-.38-.25-.1-.17-.16-.38-.16-.64v-2.85zm7.91 8.69c.12 0 .23-.06.34-.19.11-.13.21-.3.29-.52.09-.22.15-.47.19-.76.05-.29.07-.6.07-.93v-10.64c0-.25-.05-.46-.16-.64-.1-.17-.23-.26-.38-.26h-1.35v.46h.45c.1 0 .18.06.25.17.07.12.1.26.1.43v12.88h.2zm13.02-13.93h-1.35v.45h.45c.1 0 .18.06.25.17.07.12.1.26.1.43v4.04h-1.62v-4.19c0-.25-.05-.46-.16-.64-.1-.17-.23-.26-.38-.26h-1.35v.45h.45c.1 0 .18.06.25.17.07.12.1.26.1.43v7.2l-.03.03c-.14.11-.33.21-.58.29-.24.09-.53.15-.86.19-.33.04-.68.07-1.05.07h-2.52c-.15 0-.28-.08-.38-.25-.1-.17-.16-.38-.16-.64v-5.84h3.96v-.9h-5.84v.45h.45c.1 0 .18.06.25.17.07.11.1.26.1.43v6.14c0 .38.08.7.23.96s.35.39.58.39h3.33c.47 0 .91-.05 1.33-.14.41-.09.77-.22 1.08-.39.04-.02.07-.05.11-.07v4.8h.18c.12 0 .23-.06.34-.19.11-.13.21-.3.29-.52.08-.22.15-.47.2-.76.04-.29.07-.6.07-.93v-5.54h1.62v7.94h.18c.12 0 .23-.06.34-.19.11-.13.21-.3.29-.52.08-.22.15-.47.19-.76.04-.29.07-.6.07-.93v-10.64c0-.25-.05-.46-.16-.64-.08-.17-.2-.26-.35-.26zm12.29 0h-1.35v.45h.45c.1 0 .18.06.25.17.07.12.1.26.1.43v1.35h-3.06v-.6c0-.25-.05-.46-.16-.64-.1-.17-.23-.26-.38-.26h-6.2v.45h.45c.1 0 .18.06.25.17.07.12.1.26.1.43v3.89c0 .38.08.7.23.96.15.26.35.39.58.39h5.12v-1.35h3.06v3.9h1.08v-8.84c0-.25-.05-.46-.16-.64-.08-.17-.21-.26-.36-.26zm-4.67 6.29h-3.24c-.15 0-.28-.08-.38-.25-.1-.17-.16-.38-.16-.64v-3.6h3.42c.1 0 .18.06.25.17.07.12.1.26.1.43v3.89zm1.08-1.35v-1.65h3.06v1.65h-3.06zm-3.19 8.45c.15.26.35.39.58.39h6.92v-.9h-6.11c-.15 0-.28-.09-.38-.25-.1-.17-.16-.38-.16-.64v-1.8c0-.25-.05-.46-.16-.64-.1-.17-.23-.26-.38-.26h-1.35v.45h.45c.1 0 .18.06.25.17s.1.26.1.43v2.1c.01.37.09.69.24.95zm19.81-10.25v.9h3.24v3.3h1.08v-6.44c0-.25-.05-.46-.16-.64-.1-.17-.23-.26-.38-.26h-1.35v.45h.45c.1 0 .18.06.25.17.07.12.1.26.1.43v2.1h-3.23z"/><path d="M128.36 114.41c.31.61.73 1.17 1.27 1.69.53.51 1.16.96 1.88 1.34l.69-.69c-.49-.25-.94-.54-1.34-.87-.4-.33-.75-.69-1.04-1.07-.29-.38-.51-.8-.67-1.24-.16-.44-.24-.85-.24-1.23h2.79v-.9h-6.65v.9h2.79c0 .38-.08.79-.24 1.23-.16.44-.39.85-.68 1.24s-.64.75-1.05 1.07c-.4.32-.85.61-1.33.86l.69.69c.72-.38 1.35-.83 1.88-1.34.52-.51.94-1.07 1.25-1.68zm.61 8.77c-.1-.17-.16-.38-.16-.64v-.6h6.65v-2.25c0-.25-.05-.46-.16-.64-.1-.17-.23-.26-.38-.26h-7.37v.9h6.47c.1 0 .18.06.25.17.07.11.1.26.1.43v.75h-7.46v.45h.45c.1 0 .18.06.25.17.07.11.1.26.1.43v.9c0 .38.08.7.23.96.15.26.35.39.58.39h7.1v-.9h-6.29c-.13-.01-.26-.09-.36-.26zm18.61-12.63h-1.35v.45h.45c.1 0 .18.06.25.17.07.12.1.26.1.43v12.88h.18c.12 0 .23-.06.34-.19.11-.13.21-.3.29-.52.08-.22.15-.47.19-.76.04-.29.07-.6.07-.93v-10.64c0-.25-.05-.46-.16-.64-.08-.16-.21-.25-.36-.25zm-5.14 8.43a6.93 6.93 0 0 1-1.69-4.53v-2.1c0-.25-.05-.46-.16-.64-.1-.17-.23-.26-.38-.26h-1.35v.45h.45c.1 0 .18.06.25.17.07.12.1.26.1.43v1.95c0 .58-.07 1.14-.2 1.67-.14.53-.33 1.04-.58 1.52-.25.48-.55.92-.9 1.33-.35.41-.74.77-1.17 1.08l.69.69a8 8 0 0 0 1.59-1.54c.46-.58.83-1.23 1.11-1.92.28.7.65 1.34 1.11 1.92.46.58.99 1.1 1.59 1.54l.69-.69c-.42-.31-.8-.67-1.15-1.07z"/><path d="M145.06 110.55h-1.35v.45h.45c.1 0 .18.06.25.17.07.12.1.26.1.43v3.3h-2.34v.9h2.34v8.69h.18c.12 0 .23-.06.34-.19.11-.13.21-.3.29-.52.08-.22.15-.47.19-.76.05-.29.07-.6.07-.93v-10.64c0-.25-.05-.46-.16-.64-.08-.17-.21-.26-.36-.26zm9.04 12.63c-.1-.17-.16-.38-.16-.64v-1.8c0-.25-.05-.46-.16-.64-.1-.17-.23-.26-.38-.26h-1.35v.45h.45c.1 0 .18.06.25.17s.1.26.1.43v2.1c0 .38.08.7.23.96.15.26.35.39.58.39h6.92v-.9h-6.11c-.14-.01-.27-.09-.37-.26zm.49-7.13c.3-.3.56-.62.79-.96v.4h3.95v4.79h1.08v-8.84c0-.25-.05-.46-.16-.64-.1-.17-.23-.26-.38-.26h-1.35v.46h.45c.1 0 .18.06.25.17.07.12.1.26.1.43v3h-3.66c.05-.09.11-.17.15-.25.3-.63.45-1.29.45-1.99v-.9h-5.93v.9h4.85c0 .32-.04.63-.11.93-.08.3-.18.59-.32.87h-4.42v.9h3.82c-.51.61-1.16 1.12-1.96 1.54-.79.41-1.68.69-2.64.83l.78.78a9.62 9.62 0 0 0 2.37-.82c.74-.38 1.37-.82 1.89-1.34zm13.62-2.66v.9h3.42v3.6h1.08v-6.44c0-.25-.05-.46-.16-.64-.1-.17-.23-.26-.38-.26h-1.35v.45h.45c.1 0 .18.06.25.17.07.12.1.26.1.43v1.8h-3.41zm-2 9.79c-.1-.17-.16-.38-.16-.64v-.6h6.65v-2.25c0-.25-.05-.46-.16-.64-.1-.17-.23-.26-.38-.26h-7.37v.9h6.47c.1 0 .18.06.25.17.07.11.1.26.1.43v.75h-7.46v.45h.45c.1 0 .18.06.25.17.07.11.1.26.1.43v.9c0 .38.08.7.23.96.15.26.35.39.58.39h7.1v-.9h-6.29c-.12-.01-.25-.09-.36-.26zm-.6-8.77c.31.61.73 1.17 1.27 1.69.53.51 1.16.96 1.88 1.34l.69-.69c-.49-.25-.94-.54-1.34-.87-.4-.33-.75-.69-1.04-1.07-.29-.38-.51-.8-.67-1.24-.16-.44-.24-.9-.24-1.38v-.15c0-.25-.05-.46-.16-.64-.1-.17-.23-.26-.38-.26h-1.35v.45h.45c.1 0 .18.06.25.17.07.11.1.26.1.43 0 .48-.08.94-.24 1.38-.16.44-.39.85-.68 1.24-.29.39-.64.75-1.05 1.07-.4.32-.85.61-1.33.86l.69.69c.72-.38 1.35-.83 1.88-1.34.54-.51.96-1.07 1.27-1.68zm17.9 5.11c-.29-.27-.64-.48-1.03-.64s-.81-.24-1.26-.24-.87.08-1.26.24-.73.37-1.03.64c-.29.27-.53.59-.7.95-.17.36-.25.75-.25 1.16 0 .41.08.8.25 1.16.17.36.4.68.7.95.29.27.64.48 1.03.64.39.16.81.24 1.26.24s.87-.08 1.26-.24c.39-.16.73-.37 1.03-.64.29-.27.53-.59.7-.95.17-.36.25-.75.25-1.16 0-.41-.09-.8-.25-1.16-.17-.36-.4-.68-.7-.95zm-.3 2.93a2.123 2.123 0 0 1-1.98 1.28 2.169 2.169 0 0 1-1.54-.61 2.033 2.033 0 0 1-.62-1.49c0-.29.05-.56.16-.82.11-.25.26-.48.46-.67a2.169 2.169 0 0 1 1.54-.61 2.13 2.13 0 0 1 1.52.61 2.105 2.105 0 0 1 .63 1.49c0 .29-.05.57-.17.82zm1.08-11.9h-1.35v.45h.45c.1 0 .18.06.25.17.07.12.1.26.1.43v4.34c0 .12-.07.24-.21.34-.14.11-.33.21-.58.29-.24.08-.53.15-.86.19-.33.04-.68.07-1.05.07h-4.49c-.15 0-.28-.08-.38-.25-.1-.17-.16-.38-.16-.64v-1.05h4.49v-.9h-4.49v-1.65h4.85v-.9h-6.74v.45h.45c.1 0 .18.06.25.17.07.12.1.26.1.43v3.89c0 .38.08.7.23.96.15.26.35.39.58.39h5.3c.47 0 .91-.05 1.33-.14.41-.1.77-.22 1.08-.39.11-.06.2-.12.29-.19v1.47h1.08v-7.04c0-.25-.05-.46-.16-.64-.09-.16-.21-.25-.36-.25zm2.05 6.44h11.5v.9h-11.5zm3.03 6.19c-.1-.17-.16-.38-.16-.64v-.45h6.83v-2.25c0-.25-.05-.46-.16-.64-.1-.17-.23-.26-.38-.26h-7.55v.9h6.65c.1 0 .18.06.25.17.07.11.1.26.1.43v.75h-7.64v.45h.45c.1 0 .18.06.25.17.07.11.1.26.1.43v.75c0 .38.08.7.23.96.15.26.35.39.58.39h7.28v-.9h-6.47c-.13-.01-.26-.09-.36-.26zm1.17-12.27c-.48.14-.9.33-1.26.56-.36.23-.64.51-.85.83-.2.32-.31.66-.31 1.02s.1.7.31 1.02c.2.32.49.6.85.84s.78.43 1.26.56c.48.13.99.2 1.54.2s1.06-.07 1.54-.2c.48-.14.9-.32 1.26-.56.36-.24.64-.52.85-.84.2-.32.31-.66.31-1.02s-.1-.7-.31-1.02a2.7 2.7 0 0 0-.85-.83c-.36-.23-.78-.42-1.26-.56-.48-.14-.99-.21-1.54-.21-.54 0-1.06.07-1.54.21zm3.58 1.2c.26.16.46.34.61.55.15.2.22.43.22.67 0 .24-.07.46-.22.67-.15.21-.35.39-.61.55-.26.16-.56.28-.91.37-.35.09-.72.13-1.12.13s-.77-.04-1.12-.13a3.27 3.27 0 0 1-.91-.37c-.26-.15-.46-.34-.61-.55a1.12 1.12 0 0 1-.22-.67c0-.24.07-.46.22-.67.15-.2.35-.39.61-.55.26-.16.56-.28.91-.37.35-.09.72-.13 1.12-.13s.77.05 1.12.13c.35.08.65.21.91.37zM37 132.54h-1.35v.45h.45c.1 0 .18.06.25.17.07.12.1.26.1.43v3.6H34.3v.9h2.16v8.39h.18c.12 0 .23-.06.34-.19.11-.13.21-.3.29-.52.08-.22.15-.47.19-.76.05-.29.07-.6.07-.93v-10.64c0-.25-.05-.46-.16-.64-.09-.17-.22-.26-.37-.26z"/><path d="M34.38 140.97a6.93 6.93 0 0 1-1.69-4.53v-1.8h2.34v-.88h-5.75v.88h2.34v1.8c0 .58-.07 1.14-.2 1.67s-.33 1.04-.58 1.52c-.25.48-.55.92-.9 1.33-.35.41-.74.77-1.17 1.08l.69.69a8 8 0 0 0 1.59-1.54c.46-.58.83-1.23 1.11-1.92.28.7.65 1.34 1.11 1.92.46.58.99 1.1 1.59 1.54l.69-.69c-.44-.31-.82-.67-1.17-1.07zm5.14-8.43h-1.35v.45h.45c.1 0 .18.06.25.17.07.12.1.26.1.43v12.88h.18c.12 0 .23-.06.34-.19.11-.13.21-.3.29-.52.08-.22.15-.47.19-.76.05-.29.07-.6.07-.93v-10.64c0-.25-.05-.46-.16-.64-.09-.16-.21-.25-.36-.25zm7.44 4.2c0-.25-.05-.46-.16-.64-.1-.17-.23-.26-.38-.26h-1.35v.45h.45c.1 0 .18.06.25.17.07.11.1.26.1.43v1.8h-4.31v.9h11.51v-.9h-6.11v-1.95zm3.16 4.9c-.36-.26-.78-.47-1.26-.62a5.12 5.12 0 0 0-1.54-.23c-.55 0-1.06.08-1.54.23-.48.15-.9.36-1.26.62s-.64.57-.85.93c-.2.36-.31.74-.31 1.14 0 .41.1.79.31 1.15.2.35.49.66.85.92s.78.47 1.26.62c.48.15.99.23 1.54.23s1.06-.08 1.54-.23c.48-.15.9-.36 1.26-.62s.64-.57.85-.92c.2-.35.31-.74.31-1.15 0-.4-.1-.78-.31-1.14-.21-.36-.49-.67-.85-.93zm-.15 2.85c-.15.24-.35.46-.61.64-.26.19-.56.33-.91.43-.35.1-.72.16-1.12.16-.4 0-.77-.05-1.12-.16-.35-.1-.65-.25-.91-.43s-.46-.4-.61-.64c-.15-.24-.22-.51-.22-.79s.07-.54.22-.79c.15-.24.35-.46.61-.64.26-.19.56-.33.91-.43.35-.1.72-.16 1.12-.16.4 0 .77.05 1.12.16.35.1.65.25.91.43s.46.4.61.64c.15.24.22.51.22.79s-.07.55-.22.79z"/><path d="M50.04 136.55c-.05.34-.1.64-.17.88s-.14.41-.21.51h1.06c.08-.1.15-.27.22-.51.06-.24.12-.53.17-.88a19.168 19.168 0 0 0 .17-2.51v-.9H43v.9h7.19c0 .48-.01.93-.04 1.36-.03.42-.07.81-.11 1.15zm14.43-4.01h-1.35v.45h.45c.1 0 .18.06.25.17.07.12.1.26.1.43v4.04H62.3v-4.19c0-.25-.05-.46-.16-.64-.1-.17-.23-.26-.38-.26h-1.35v.45h.45c.1 0 .18.06.25.17.07.12.1.26.1.43v12.88h.18c.12 0 .23-.06.34-.19.11-.13.21-.3.29-.52.08-.22.15-.47.19-.76.04-.29.07-.6.07-.93v-5.54h1.62v7.94h.18c.12 0 .23-.06.34-.19.11-.13.21-.3.29-.52.08-.22.15-.47.19-.76.04-.29.07-.6.07-.93v-10.64c0-.25-.05-.46-.16-.64a.36.36 0 0 0-.34-.25z"/><path d="M57.82 133.89c0-.25-.05-.46-.16-.64-.1-.17-.23-.26-.38-.26h-1.35v.45h.45c.1 0 .18.06.25.17.07.12.1.26.1.43v.6h-2.88v.9h6.83v-.9H57.8v-.75zm1.37 3.41c-.24-.31-.53-.56-.86-.74a2.16 2.16 0 0 0-1.05-.27c-.37 0-.72.09-1.05.27-.33.18-.62.43-.86.74s-.44.68-.58 1.09c-.14.41-.21.86-.21 1.34 0 .48.07.93.21 1.34.14.41.33.78.58 1.09.24.31.53.56.86.74.33.18.68.27 1.05.27s.72-.09 1.05-.27c.33-.18.62-.43.86-.74s.44-.68.58-1.09c.14-.41.21-.86.21-1.34 0-.48-.07-.93-.21-1.34a4.04 4.04 0 0 0-.58-1.09zm-.42 3.42c-.09.31-.2.58-.34.81-.15.23-.32.41-.52.55-.2.13-.41.2-.63.2-.23 0-.44-.07-.64-.2-.19-.13-.36-.32-.51-.55-.15-.23-.26-.5-.34-.81-.09-.31-.13-.64-.13-.99s.04-.68.13-.99c.08-.31.2-.58.34-.81.14-.23.31-.41.51-.55.19-.14.41-.2.64-.2.22 0 .43.07.63.2s.37.32.52.55c.14.23.26.5.34.81.08.31.13.64.13.99s-.05.68-.13.99zm14.28-1.08c.15.26.35.39.58.39h7.28v-.9h-6.47c-.15 0-.28-.08-.38-.25-.1-.17-.16-.38-.16-.64v-3.6h6.83v-.9h-8.72v.45h.45c.1 0 .19.06.25.17.07.11.1.26.1.43v3.9c.01.37.09.69.24.95zm-2.03 4.29h11.5v.9h-11.5zm22.37-3h-1.35v.45h.45c.1 0 .18.06.25.17.07.11.1.26.1.43v1.05h-5.57v-1.05c0-.25-.05-.46-.16-.64-.1-.17-.23-.26-.38-.26h-1.35v.45h.45c.1 0 .18.06.25.17.07.12.1.26.1.43v2.85c0 .38.08.7.23.96.15.26.35.39.58.39h6.92v-4.49c0-.25-.05-.46-.16-.64-.09-.18-.21-.27-.36-.27zm-.54 4.5h-5.03c-.15 0-.28-.09-.38-.25-.1-.17-.16-.38-.16-.64v-.6h5.57v1.49zm.54-12.89h-1.35v.45h.45c.1 0 .18.06.25.17.07.12.1.26.1.43v4.49c0 .12-.07.23-.21.34-.14.11-.33.21-.58.29-.24.09-.53.15-.86.19-.33.05-.68.07-1.05.07h-4.49c-.15 0-.28-.08-.38-.25-.1-.17-.16-.38-.16-.64v-1.35h4.85v-2.7c0-.25-.05-.46-.16-.64-.1-.17-.23-.26-.38-.26h-5.57v.9h4.67c.1 0 .18.06.25.17.07.11.1.26.1.43v1.2h-5.66v.45h.45c.1 0 .18.06.25.17.07.11.1.26.1.43v1.65c0 .38.08.7.23.96.15.26.35.39.58.39h5.3c.47 0 .91-.05 1.33-.14.41-.09.77-.22 1.08-.39.11-.06.2-.12.29-.19v1.17h1.08v-6.89c0-.25-.05-.46-.16-.64-.08-.17-.2-.26-.35-.26zm12.11 0h-1.35v.45h.45c.1 0 .18.06.25.17.07.12.1.26.1.43v6.89c0 .12-.07.23-.21.34-.14.11-.33.21-.58.29-.24.09-.53.15-.86.19-.33.05-.68.07-1.05.07h-4.49c-.15 0-.28-.08-.38-.25-.1-.17-.16-.38-.16-.64v-5.99c0-.25-.05-.46-.16-.64-.1-.17-.23-.26-.38-.26h-1.35v.45h.45c.1 0 .18.06.25.17.07.11.1.26.1.43v6.29c0 .38.08.7.23.96.15.26.35.39.58.39h5.3c.47 0 .91-.05 1.33-.14.41-.09.77-.22 1.08-.39.11-.06.2-.12.29-.19v4.92h.18c.12 0 .23-.06.34-.19.11-.13.21-.3.29-.52.08-.22.15-.47.19-.76.04-.29.07-.6.07-.93v-10.64c0-.25-.05-.46-.16-.64-.07-.17-.2-.26-.35-.26zm12.3.9c0-.25-.05-.46-.16-.64-.1-.17-.23-.26-.38-.26h-1.35v.45h.45c.1 0 .18.06.25.17.07.12.1.26.1.43v7.33c-.12.07-.26.14-.43.2-.24.09-.53.15-.86.19-.33.05-.68.07-1.05.07h-4.49c-.15 0-.28-.08-.38-.25-.1-.17-.16-.38-.16-.64v-5.84h4.85v-.9h-6.74v.45h.45c.1 0 .18.06.25.17.07.11.1.26.1.43v6.14c0 .38.08.7.23.96.15.26.35.39.58.39h5.3c.47 0 .91-.05 1.33-.14.39-.09.72-.21 1.01-.36v4.7h.18c.12 0 .23-.06.34-.19.11-.13.21-.3.29-.52.08-.22.15-.47.19-.76.05-.29.07-.6.07-.93v-5.54h2.16v-.9h-2.16v-4.21zm3.84 9.42h-.35c-.14 0-.27.04-.38.13-.11.09-.17.2-.17.34v.48c0 .14.05.26.16.35.11.09.23.14.37.14h.35c.14 0 .27-.04.38-.12.11-.08.17-.2.17-.35v-.48c0-.14-.05-.26-.16-.35a.549.549 0 0 0-.37-.14z"/></g><g fill="#2D2D2D"><path d="M39.34 178.47H37l.36-4.04h-1.08l-.36 4.04H33.4l-.35-4.04h-1.08l.36 4.04h-2.34v.9h9.35zm-10.43 4.79h11.51v.9H28.91zm1.44-10.18h8.63v.9h-8.63zm20.92-1.2h-1.35v.45h.45c.1 0 .18.06.25.17.07.12.1.26.1.43v7.04c0 .12-.07.23-.21.34-.14.11-.33.21-.58.29-.24.08-.53.15-.86.19-.33.04-.68.07-1.05.07h-4.49c-.15 0-.28-.08-.38-.25-.1-.17-.16-.38-.16-.64v-2.7h4.85v-3.6c0-.25-.05-.46-.16-.64s-.23-.26-.38-.26h-5.57v.9h4.67c.1 0 .18.06.25.17.07.12.1.26.1.43v2.1h-5.66v.45h.45c.1 0 .18.06.25.17.07.12.1.26.1.43v3c0 .38.08.7.23.96.15.26.35.39.58.39H48c.47 0 .91-.05 1.33-.14.41-.1.77-.22 1.08-.39.11-.06.2-.12.29-.19v4.77h.18c.12 0 .23-.06.34-.19.11-.13.21-.3.29-.52.09-.22.15-.47.2-.76.04-.29.07-.6.07-.93v-10.64c0-.25-.05-.46-.16-.64-.07-.17-.2-.26-.35-.26zm12.12 0h-1.35v.45h.45c.1 0 .18.06.25.17.07.12.1.26.1.43v12.88h.18c.12 0 .23-.06.34-.19.11-.13.21-.3.29-.52.09-.22.15-.47.19-.76.05-.29.07-.6.07-.93v-10.64c0-.25-.05-.46-.16-.64-.08-.16-.21-.25-.36-.25zm-3.96 1.2h-6.2v.45h.45c.1 0 .18.06.25.17.07.11.1.26.1.43v6.29c0 .38.08.7.23.96.15.26.35.39.58.39h5.12v-7.79c0-.25-.05-.46-.16-.64-.09-.17-.22-.26-.37-.26zm-.54 7.79h-3.23c-.15 0-.28-.08-.38-.25-.1-.17-.16-.38-.16-.64v-5.99h3.41c.1 0 .18.06.25.17.07.11.1.26.1.43v6.28zm16.79-8.99h-1.35v.45h.45c.1 0 .18.06.25.17.07.12.1.26.1.43v2.25h-2.75c-.04-.26-.11-.51-.21-.74a3.48 3.48 0 0 0-.71-1.09c-.3-.31-.65-.55-1.06-.73-.4-.18-.84-.27-1.3-.27-.46 0-.89.09-1.3.27-.4.18-.76.42-1.06.73a3.479 3.479 0 0 0-.97 2.43 3.479 3.479 0 0 0 .97 2.43c.3.31.65.56 1.06.74.4.18.84.27 1.3.27.46 0 .89-.09 1.3-.27.4-.18.76-.43 1.06-.74.3-.31.54-.68.71-1.09.14-.33.2-.68.23-1.04h2.72v3.6h1.08v-6.89c0-.25-.05-.46-.16-.64-.08-.18-.21-.27-.36-.27zm-4.49 4.88c-.12.31-.28.58-.48.81-.2.23-.44.41-.71.55-.27.14-.57.2-.88.2-.31 0-.6-.07-.88-.2-.27-.13-.51-.32-.71-.55-.2-.23-.36-.5-.48-.81-.12-.31-.18-.64-.18-.99s.06-.68.18-.99c.12-.31.28-.58.48-.81.2-.23.44-.41.71-.55s.57-.2.88-.2c.31 0 .6.07.88.2.27.13.51.32.71.55.2.23.36.5.48.81.12.31.18.64.18.99s-.06.68-.18.99zm4.49 3.81h-8v.45h.45c.1 0 .18.06.25.17.07.11.1.26.1.43v2.7c0 .38.08.7.23.96.15.26.35.39.58.39h6.92v-4.19c0-.25-.05-.46-.16-.64-.09-.18-.22-.27-.37-.27zm-.53 4.19h-5.03c-.15 0-.28-.09-.38-.25-.1-.17-.16-.38-.16-.64v-2.4h5.21c.1 0 .18.06.25.17.07.11.1.26.1.43v2.69zm7.7-5.81c-.28-.48-.5-.99-.66-1.52-.15-.53-.23-1.09-.23-1.66v-2.1c0-.25-.05-.46-.16-.64s-.23-.26-.38-.26h-1.35v.45h.45c.1 0 .18.06.25.17.07.12.1.26.1.43v1.95c0 .58-.08 1.14-.23 1.67-.15.53-.37 1.04-.66 1.51-.28.47-.63.92-1.04 1.33-.41.41-.86.77-1.36 1.09l.69.69c.72-.47 1.34-1 1.87-1.6.53-.6.95-1.27 1.27-2.02.32.75.74 1.42 1.27 2.02.52.6 1.15 1.13 1.87 1.6l.7-.69c-.5-.32-.95-.68-1.36-1.09-.41-.41-.76-.85-1.04-1.33zm5.13-7.07h-1.35v.45h.45c.1 0 .18.06.25.17.07.12.1.26.1.43v3.3h-3.6v.9h3.6v8.69h.18c.12 0 .23-.06.34-.19.11-.13.21-.3.29-.52.08-.22.15-.47.19-.76.05-.29.07-.6.07-.93v-10.64c0-.25-.05-.46-.16-.64-.08-.17-.21-.26-.36-.26zm12.12 0h-1.35v.45h.45c.1 0 .18.06.25.17.07.12.1.26.1.43v12.88h.18c.12 0 .23-.06.34-.19.11-.13.21-.3.29-.52.08-.22.15-.47.19-.76.05-.29.07-.6.07-.93v-10.64c0-.25-.05-.46-.16-.64-.09-.16-.21-.25-.36-.25zm-3.96.9h-1.35v.45h.45c.1 0 .18.06.25.17.07.12.1.26.1.43v2.4h-3.77v-2.4c0-.25-.05-.46-.16-.64-.1-.17-.23-.26-.38-.26h-1.35v.45h.45c.1 0 .18.06.25.17.07.11.1.26.1.43v6.44c0 .38.08.7.23.96.15.26.35.39.58.39h5.12v-8.09c0-.25-.05-.46-.16-.64-.08-.17-.21-.26-.36-.26zm-.54 8.09h-3.23c-.15 0-.28-.08-.38-.25-.1-.17-.16-.38-.16-.64v-2.85h3.77v3.74zm10.67-2.35c.7-.62 1.25-1.3 1.63-2.04.37.74.91 1.42 1.62 2.04.71.62 1.55 1.15 2.52 1.6l.69-.69c-.65-.29-1.24-.62-1.77-1a7.33 7.33 0 0 1-1.36-1.22c-.37-.44-.66-.91-.86-1.4-.2-.49-.3-1.01-.3-1.54v-.6c0-.25-.05-.46-.16-.64-.1-.17-.23-.26-.38-.26h-1.35v.45h.45c.1 0 .18.06.25.17.07.12.1.26.1.43v.45c0 .53-.1 1.04-.31 1.54-.2.49-.49.96-.87 1.4-.37.44-.82.85-1.35 1.22-.52.37-1.11.71-1.76 1l.69.69c.98-.45 1.82-.98 2.52-1.6zm-4.12 4.74h11.5v.9h-11.5zm20.89-10.02a.634.634 0 0 0-.16-.23.489.489 0 0 0-.32-.1c-.14 0-.24.03-.31.1s-.12.14-.16.23c-.04.09-.05.18-.06.28s-.01.18-.01.25c0 .08 0 .18.01.31s.02.29.04.51c.02.21.04.49.07.82.03.33.07.75.12 1.26.01.11.03.21.07.31.04.1.11.15.23.15.13 0 .21-.05.25-.16.03-.11.05-.2.05-.28.03-.43.06-.8.1-1.11.03-.31.06-.57.08-.79.02-.22.04-.41.05-.56.01-.15.02-.3.02-.44 0-.07 0-.15-.01-.25s-.02-.21-.06-.3zm-1.85 0a.634.634 0 0 0-.16-.23.45.45 0 0 0-.3-.1c-.14 0-.25.03-.32.1a.6.6 0 0 0-.16.23c-.04.09-.05.18-.06.28-.01.1-.01.18-.01.25 0 .14.01.32.03.55.02.22.05.47.07.73.03.26.06.54.08.82.02.28.04.54.05.79 0 .14.02.25.05.34.04.08.12.13.26.13.13 0 .21-.05.24-.15.03-.1.05-.19.06-.27.04-.43.07-.79.1-1.08.02-.29.05-.54.07-.75.02-.21.04-.4.04-.56.01-.16.01-.35.01-.55 0-.07 0-.15-.01-.25s-.01-.19-.04-.28zm9.41 7.07a6.93 6.93 0 0 1-1.69-4.53v-2.1c0-.25-.05-.46-.16-.64s-.23-.26-.38-.26h-1.35v.45h.45c.1 0 .18.06.25.17.07.12.1.26.1.43v1.95c0 .58-.07 1.14-.2 1.67-.14.53-.33 1.04-.58 1.52-.25.48-.55.92-.9 1.33-.35.41-.74.77-1.17 1.08l.69.69a8 8 0 0 0 1.59-1.54c.46-.58.83-1.23 1.11-1.92.28.7.65 1.34 1.11 1.92.46.58.99 1.1 1.59 1.54l.69-.69c-.42-.31-.8-.67-1.15-1.07zm5.14-8.43h-1.35v.45h.45c.1 0 .18.06.25.17.07.12.1.26.1.43v12.88h.18c.12 0 .23-.06.34-.19.11-.13.21-.3.29-.52.08-.22.15-.47.2-.76.04-.29.07-.6.07-.93v-10.64c0-.25-.05-.46-.16-.64-.1-.16-.22-.25-.37-.25z"/><path d="M133.22 171.88h-1.35v.45h.45c.1 0 .18.06.25.17.07.12.1.26.1.43v3.3h-2.34v.9h2.34v8.69h.18c.12 0 .23-.06.34-.19.11-.13.21-.3.29-.52.08-.22.15-.47.19-.76s.07-.6.07-.93v-10.64c0-.25-.05-.46-.16-.64-.08-.17-.21-.26-.36-.26zm10.95 7.49h3.33v-5.39c0-.25-.05-.46-.16-.64-.1-.17-.23-.26-.38-.26h-8.18v.45h.45c.1 0 .18.06.25.17s.1.26.1.43v3.9c0 .38.08.7.23.96s.35.39.58.39h2.7v3.89h-5.3v.9h11.51v-.9h-5.12v-3.9zm-3.35-1.15c-.1-.17-.16-.38-.16-.64v-3.6h5.39c.1 0 .18.06.25.17.07.11.1.26.1.43v3.9h-5.21c-.14-.01-.26-.09-.37-.26zm14.21-.46c.53.55 1.16 1.04 1.88 1.46l.69-.69c-.48-.27-.92-.59-1.33-.95-.41-.36-.76-.76-1.05-1.18s-.51-.88-.67-1.36c-.16-.48-.24-.94-.24-1.36h2.79v-.9h-6.65v.9h2.79c0 .43-.08.89-.24 1.37-.16.48-.39.94-.68 1.36-.29.42-.65.82-1.06 1.18-.41.36-.85.67-1.32.94l.69.69c.72-.42 1.35-.91 1.88-1.46.53-.55.96-1.16 1.27-1.82.3.66.72 1.27 1.25 1.82zm5.3-4.98c0-.25-.05-.46-.16-.64-.1-.17-.23-.26-.38-.26h-1.35v.45h.45c.1 0 .19.06.25.17.07.12.1.26.1.43v6.89h1.08v-3.9h2.16v-.9h-2.16v-2.24zm-1.31 8.07c-.29-.27-.64-.48-1.03-.64-.39-.16-.81-.24-1.26-.24s-.87.08-1.26.24c-.39.16-.73.37-1.03.64-.29.27-.53.59-.7.95-.17.36-.25.75-.25 1.16 0 .41.08.8.25 1.16.17.36.4.68.7.95.29.27.64.48 1.03.64.39.16.81.24 1.26.24s.87-.08 1.26-.24c.39-.16.73-.37 1.03-.64.29-.27.53-.59.7-.95.17-.36.25-.75.25-1.16 0-.41-.09-.8-.25-1.16-.17-.36-.41-.68-.7-.95zm-.3 2.93a2.123 2.123 0 0 1-1.98 1.28c-.3 0-.58-.05-.85-.16-.26-.11-.49-.26-.69-.45a2.033 2.033 0 0 1-.62-1.49c0-.29.05-.56.16-.82.11-.25.26-.48.46-.67a2.18 2.18 0 0 1 1.54-.61 2.13 2.13 0 0 1 1.52.61c.2.19.35.41.46.67.11.25.17.53.17.82 0 .29-.06.57-.17.82zm5.71-10.53c.07.11.1.26.1.43v3.3c0 .38.08.7.23.96.15.26.35.39.58.39h7.1v-4.94c0-.25-.05-.46-.16-.64-.1-.17-.23-.26-.38-.26h-1.35v.45h.45c.1 0 .18.06.25.17.07.11.1.26.1.43v1.2h-5.75v-1.2c0-.25-.05-.46-.16-.64-.1-.17-.23-.26-.38-.26h-1.35v.45h.45c.12-.01.2.05.27.16zm1.18 2.37h5.75v1.8h-5.21c-.15 0-.28-.08-.38-.25-.1-.17-.16-.38-.16-.64v-.91zm-2.87 5.4h5.12v4.79h.18c.12 0 .23-.06.34-.19.11-.13.21-.3.29-.52.08-.22.15-.47.2-.76.04-.29.07-.6.07-.93v-2.4h5.3v-.9h-11.5v.91zm14.53-7.78a.634.634 0 0 0-.16-.23.45.45 0 0 0-.3-.1c-.14 0-.25.03-.32.1-.08.07-.13.14-.16.23-.04.09-.05.18-.06.28-.01.1-.01.18-.01.25 0 .14.01.32.03.55.02.22.04.47.07.73.03.26.06.54.08.82.02.28.04.54.05.79 0 .14.02.25.05.34.03.08.12.13.26.13.13 0 .21-.05.24-.15.03-.1.05-.19.06-.27.04-.43.07-.79.1-1.08.02-.29.05-.54.07-.75.02-.21.03-.4.04-.56s.02-.35.02-.55c0-.07 0-.15-.01-.25a.557.557 0 0 0-.05-.28zm1.86 0a.634.634 0 0 0-.16-.23.509.509 0 0 0-.32-.1c-.14 0-.24.03-.31.1s-.12.14-.16.23c-.04.09-.05.18-.06.28 0 .1-.01.18-.01.25 0 .08 0 .18.01.31.01.12.02.29.04.51.02.21.05.49.07.82.03.33.07.75.12 1.26.01.11.03.21.07.31.03.1.11.15.23.15.13 0 .21-.05.25-.16s.05-.2.05-.28c.03-.43.06-.8.1-1.11.03-.31.06-.57.08-.79.02-.22.04-.41.05-.56.02-.15.02-.3.02-.44 0-.07 0-.15-.01-.25a.73.73 0 0 0-.06-.3zm3.78 1.81c.07.11.1.26.1.43v.6c0 .38.08.7.23.96.15.26.35.39.58.39h7.28v-.9h-6.47c-.15 0-.28-.08-.38-.25-.1-.17-.16-.38-.16-.64v-.3h6.83v-2.1c0-.25-.05-.46-.16-.64-.1-.17-.23-.26-.38-.26h-7.55v.9h6.65c.1 0 .18.06.25.17.07.12.1.26.1.43v.6h-7.64v.45h.45c.12-.01.2.04.27.16zm-1.69 3.57h11.5v.9h-11.5zm3.03 5.89c-.1-.17-.16-.38-.16-.64v-.3h6.83v-2.1c0-.25-.05-.46-.16-.64-.1-.17-.23-.26-.38-.26h-7.55v.9h6.65c.1 0 .18.06.25.17.07.11.1.26.1.43v.6h-7.64v.45h.45c.1 0 .18.06.25.17.07.11.1.26.1.43v.6c0 .38.08.7.23.96.15.26.35.39.58.39h7.28v-.9h-6.47c-.13-.01-.25-.09-.36-.26z"/></g><g fill="#2D2D2D"><path d="M32.93 195.22h-.51c-.45.42-.88.82-1.3 1.19-.42.37-.82.72-1.21 1.04v.54c.14-.09.29-.19.45-.31.16-.11.31-.22.46-.33.15-.1.29-.19.41-.27.12-.08.22-.11.29-.11s.11.02.13.05c.01.04.02.08.02.13v7.56h-1.42v.54h4.09v-.54h-1.41v-9.49zm7.36 11.28c-.1-.17-.16-.38-.16-.64v-1.8c0-.25-.05-.46-.16-.64-.1-.17-.23-.26-.38-.26h-1.35v.45h.45c.1 0 .18.06.25.17.07.11.1.26.1.43v2.1c0 .38.08.7.23.96.15.26.35.39.58.39h6.92v-.9h-6.11c-.14 0-.27-.09-.37-.26zm5.23-2.89h1.08v-8.84c0-.25-.05-.46-.16-.64-.1-.17-.23-.26-.38-.26h-1.35v.45h.45c.1 0 .18.06.25.17.07.12.1.26.1.43v.75h-4.13v.9h4.13v1.35h-4.13v.9h4.13v4.79z"/><path d="M43.72 200.02h-5.57c-.15 0-.28-.08-.38-.25-.1-.17-.16-.38-.16-.64v-3.6c0-.25-.05-.46-.16-.64-.1-.17-.23-.26-.38-.26h-1.35v.45h.45c.1 0 .18.06.25.17.07.11.1.26.1.43v3.9c0 .38.08.7.23.96.15.26.35.39.58.39h6.38v-.91zm14.64-2.4v-2.85c0-.25-.05-.46-.16-.64-.1-.17-.23-.26-.38-.26h-1.35v.45h.45c.1 0 .18.06.25.17.07.12.1.26.1.43v8.69h1.08v-5.09h2.16v-.9h-2.15zm-6.32 8.88c-.1-.17-.16-.38-.16-.64v-1.8c0-.25-.05-.46-.16-.64-.1-.17-.23-.26-.38-.26H50v.45h.45c.1 0 .18.06.25.17.07.11.1.26.1.43v2.1c0 .38.08.7.23.96.15.26.35.39.58.39h6.92v-.9h-6.11c-.15 0-.27-.09-.38-.26zm1.04-7.12c.52-.51.94-1.09 1.24-1.72.3-.63.45-1.29.45-1.99v-.9h-5.93v.9h4.85c0 .63-.14 1.23-.43 1.79-.28.56-.68 1.07-1.18 1.51-.5.44-1.1.82-1.79 1.12-.69.3-1.43.52-2.23.64l.78.78a9.62 9.62 0 0 0 2.37-.82c.71-.36 1.34-.8 1.87-1.31z"/></g><path fill="#2D2D2D" d="M67.35 198.71c-.01.08-.03.17-.06.27s-.11.15-.24.15c-.14 0-.23-.04-.26-.13-.04-.08-.05-.2-.05-.34-.01-.25-.03-.51-.05-.79-.03-.28-.05-.55-.08-.82-.03-.26-.06-.51-.08-.73s-.03-.41-.03-.55c0-.07 0-.15.01-.25 0-.1.02-.19.06-.28.03-.09.09-.17.16-.23s.18-.1.32-.1c.13 0 .23.03.3.1.07.07.12.14.16.23.03.09.05.18.06.28 0 .1.01.18.01.25 0 .2-.01.38-.01.55-.01.16-.03.35-.05.56-.02.21-.04.46-.07.75-.02.29-.06.65-.1 1.08zm1.83-.03c0 .08-.02.17-.05.28-.04.11-.12.16-.25.16-.12 0-.2-.05-.23-.15-.04-.1-.06-.2-.07-.31-.05-.51-.09-.93-.12-1.26-.03-.33-.06-.6-.08-.82-.02-.21-.03-.38-.04-.51-.01-.12-.01-.23-.01-.31 0-.07 0-.15.01-.25 0-.1.02-.19.06-.28.03-.09.09-.17.16-.23s.17-.1.31-.1c.14 0 .25.03.32.1a.6.6 0 0 1 .16.23c.03.09.05.18.06.28 0 .1.01.18.01.25 0 .14-.01.29-.02.44-.02.15-.03.34-.05.56-.02.22-.05.48-.08.79-.03.33-.06.7-.09 1.13z"/><g fill="red"><path d="M76.66 196.63c-.23-.48-.53-.86-.89-1.15s-.78-.43-1.26-.43c-.49 0-.91.14-1.27.43-.35.29-.65.67-.88 1.15-.23.48-.41 1.03-.52 1.66-.11.63-.16 1.28-.16 1.95 0 .68.05 1.33.16 1.95.11.62.28 1.18.52 1.66.23.48.53.86.88 1.15.35.29.78.43 1.27.43.48 0 .9-.15 1.26-.43s.66-.67.89-1.15c.23-.48.41-1.03.52-1.66a11.229 11.229 0 0 0 0-3.9c-.11-.63-.29-1.18-.52-1.66zm-.56 4.35c0 .39-.01.81-.04 1.27-.03.46-.09.88-.19 1.27s-.26.72-.48.98c-.21.26-.51.4-.88.4s-.66-.13-.87-.39c-.21-.26-.37-.58-.47-.97-.1-.39-.17-.81-.19-1.27-.02-.45-.04-.88-.04-1.27v-1.53c0-.39.01-.81.04-1.27.02-.45.09-.88.19-1.27s.26-.71.47-.97c.21-.26.5-.39.87-.39s.66.13.88.4c.21.26.37.59.48.98.1.39.17.81.19 1.27.02.46.04.88.04 1.27v1.49zm6.75 5.78c-.15 0-.28-.09-.38-.25-.1-.17-.16-.38-.16-.64v-1.5c0-.25-.05-.46-.16-.64-.1-.17-.23-.26-.38-.26h-1.35v.45h.45c.1 0 .18.06.25.17.07.11.1.26.1.43v1.8c0 .38.08.7.23.96.15.26.35.39.58.39h7.28v-.9h-6.46zm-2.8-8.24c.3.23.65.41 1.06.55.4.13.84.2 1.3.2.46 0 .89-.07 1.3-.2.4-.14.76-.32 1.06-.55.3-.23.54-.5.71-.81.17-.31.26-.64.26-.99s-.09-.68-.26-.99c-.17-.31-.41-.58-.71-.81-.3-.23-.65-.41-1.06-.55-.4-.13-.84-.2-1.3-.2-.46 0-.89.07-1.3.2-.4.14-.76.32-1.06.55-.3.23-.54.5-.71.81-.17.31-.26.64-.26.99s.09.68.26.99c.17.31.41.58.71.81zm.28-2.44c.12-.2.28-.37.48-.52.2-.14.44-.26.71-.34.27-.08.57-.13.88-.13.31 0 .6.04.88.13.27.09.51.2.71.34.2.14.36.32.48.52s.18.41.18.64c0 .23-.06.44-.18.64s-.28.37-.48.52c-.2.15-.44.27-.71.35-.27.09-.57.13-.88.13-.31 0-.6-.04-.88-.13-.27-.08-.51-.2-.71-.35-.2-.15-.36-.32-.48-.52s-.18-.41-.18-.64c.01-.23.06-.44.18-.64z"/><path d="M81.59 202.86h1.08v-1.8h3.06c.44 0 .86-.05 1.26-.14s.74-.22 1.03-.39c.02-.01.03-.02.05-.03v1.46h-3.24v.9h3.24v1.2h1.08v-9.29c0-.25-.05-.46-.16-.64-.1-.17-.23-.26-.38-.26h-1.35v.45h.45c.1 0 .18.06.25.17.07.12.1.26.1.43v4.66c-.01.01-.01.02-.02.03-.13.11-.31.21-.54.29-.22.08-.49.15-.8.19-.31.04-.63.07-.97.07h-7.37v.9h3.24v1.8z"/></g><path fill="#2D2D2D" d="M94.75 195.24a.634.634 0 0 0-.16-.23.489.489 0 0 0-.32-.1c-.14 0-.24.03-.31.1s-.12.14-.16.23c-.04.09-.05.18-.06.28-.01.1-.01.18-.01.25 0 .08 0 .18.01.31 0 .12.02.29.04.51.02.21.05.49.08.82.03.33.07.75.12 1.26.01.11.03.21.07.31.03.1.11.15.23.15.13 0 .21-.05.25-.16.03-.11.05-.2.05-.28.03-.43.06-.8.1-1.11.03-.31.06-.57.08-.79.02-.22.04-.41.05-.56.01-.15.02-.3.02-.44 0-.07 0-.15-.01-.25a.882.882 0 0 0-.07-.3zm-1.86 0a.634.634 0 0 0-.16-.23.45.45 0 0 0-.3-.1c-.14 0-.25.03-.32.1a.6.6 0 0 0-.16.23c-.04.09-.05.18-.06.28-.01.1-.01.18-.01.25 0 .14.01.32.03.55.02.22.05.47.08.73s.06.54.08.82c.02.28.04.54.05.79 0 .14.02.25.05.34.03.08.12.13.26.13.13 0 .21-.05.24-.15.03-.1.05-.19.06-.27.04-.43.07-.79.1-1.08.02-.29.05-.54.07-.75.02-.21.03-.4.04-.56.01-.16.01-.35.01-.55 0-.07 0-.15-.01-.25.01-.1-.01-.19-.05-.28zm6.9 5.78c.36.34.78.61 1.26.8.48.19.99.29 1.54.29s1.06-.1 1.54-.29a3.868 3.868 0 0 0 2.11-1.99c.2-.45.31-.94.31-1.46s-.1-1.01-.31-1.46c-.2-.45-.49-.85-.85-1.19s-.78-.61-1.26-.8c-.48-.19-.99-.29-1.54-.29s-1.06.1-1.54.29a3.868 3.868 0 0 0-2.11 1.99c-.2.45-.31.94-.31 1.46s.1 1.01.31 1.46c.21.45.49.85.85 1.19zm.15-3.76c.15-.35.35-.65.61-.91.26-.25.56-.46.91-.61.35-.15.72-.22 1.12-.22a2.854 2.854 0 0 1 2.03.83c.26.25.46.56.61.91.15.35.22.72.22 1.11s-.07.76-.22 1.11c-.15.35-.35.65-.61.91-.26.25-.56.46-.91.61-.35.15-.72.22-1.12.22a2.854 2.854 0 0 1-2.03-.83c-.26-.25-.46-.56-.61-.91-.15-.35-.22-.72-.22-1.11s.07-.76.22-1.11zm-3.1 8h11.51v.9H96.84zm18.67-3.3h3.51v-.9h-6.47c-.15 0-.28-.08-.38-.25-.1-.17-.16-.38-.16-.64v-1.5h6.83v-3c0-.25-.05-.46-.16-.64-.1-.17-.23-.26-.38-.26h-7.55v.9h6.65c.1 0 .18.06.25.17.07.12.1.26.1.43v1.5h-7.64v.45h.45c.1 0 .18.06.25.17.07.11.1.26.1.43v1.8c0 .38.08.7.23.96.15.26.35.39.58.39h2.7v3.3h-5.3v.9h11.5v-.9h-5.12v-3.31zm10.42.75h5.12v5.09h.18c.12 0 .23-.06.34-.19.11-.13.21-.3.29-.52.08-.22.15-.47.19-.76.04-.29.07-.6.07-.93v-2.7h5.3v-.9h-11.5v.91zm1.7-7.61c.07.11.1.26.1.43v3.15c0 .38.08.7.23.96.15.26.35.39.58.39h7.28v-.9h-6.47c-.15 0-.28-.08-.38-.25-.1-.17-.16-.38-.16-.64v-2.85c0-.25-.05-.46-.16-.64-.1-.17-.23-.26-.38-.26h-1.35v.45h.45c.1-.02.19.04.26.16zm12.56 7.51c-.1-.17-.16-.38-.16-.64v-2.7h4.49v-3.6c0-.25-.05-.46-.16-.64-.1-.17-.23-.26-.38-.26h-5.21v.9h4.31c.1 0 .18.06.25.17.07.12.1.26.1.43v2.1h-5.3v.45h.45c.1 0 .18.06.25.17.07.12.1.26.1.43v3c0 .38.08.7.23.96.15.26.35.39.58.39h6.38v-.9h-5.57c-.13-.01-.26-.09-.36-.26z"/><path fill="#2D2D2D" d="M148.48 193.87h-1.35v.45h.45c.1 0 .18.06.25.17.07.12.1.26.1.43v2.25h-2.88v.9h2.88v2.25h-3.42v.9h3.42v6.59h.18c.12 0 .23-.06.34-.19.11-.13.21-.3.29-.52.08-.22.15-.47.19-.76.04-.29.07-.6.07-.93v-10.64c0-.25-.05-.46-.16-.64-.09-.17-.21-.26-.36-.26zm8.43 8.09h3.33v-6.29c0-.25-.05-.46-.16-.64-.1-.17-.23-.26-.38-.26h-1.35v.45h.45c.1 0 .18.06.25.17.07.12.1.26.1.43v1.65h-5.75v-1.65c0-.25-.05-.46-.16-.64-.1-.17-.23-.26-.38-.26h-1.35v.45h.45c.1 0 .18.06.25.17.07.11.1.26.1.43v4.64c0 .38.08.7.23.96.15.26.35.39.58.39h2.7v3.3h-5.3v.9h11.5v-.9h-5.12v-3.3zm-3.35-1.15c-.1-.17-.16-.38-.16-.64v-1.8h5.75v2.7h-5.21c-.15-.01-.27-.09-.38-.26zm19.87-6.94h-1.35v.45h.45c.1 0 .18.06.25.17.07.12.1.26.1.43v12.88h.18c.12 0 .23-.06.34-.19.11-.13.21-.3.29-.52.08-.22.15-.47.19-.76.04-.29.07-.6.07-.93v-10.64c0-.25-.05-.46-.16-.64-.08-.16-.21-.25-.36-.25zm-2.52 0h-1.35v.45h.45c.1 0 .18.06.25.17.07.12.1.26.1.43v3.3h-2.34v.9h2.34v8.69h.18c.12 0 .23-.06.34-.19.11-.13.21-.3.29-.52.08-.22.15-.47.19-.76s.07-.6.07-.93v-10.64c0-.25-.05-.46-.16-.64-.08-.17-.21-.26-.36-.26z"/><path fill="#2D2D2D" d="M168.29 202.3a6.93 6.93 0 0 1-1.69-4.53v-2.1c0-.25-.05-.46-.16-.64-.1-.17-.23-.26-.38-.26h-1.35v.45h.45c.1 0 .18.06.25.17.07.12.1.26.1.43v1.95c0 .58-.07 1.14-.2 1.67s-.33 1.04-.58 1.52c-.25.48-.55.92-.9 1.33-.35.41-.74.77-1.17 1.08l.69.69a8 8 0 0 0 1.59-1.54c.46-.58.83-1.23 1.11-1.92.28.7.65 1.34 1.11 1.92.46.58.99 1.1 1.59 1.54l.69-.69c-.42-.31-.8-.66-1.15-1.07zm15.46-1.06c.09-.07.2-.14.28-.22.36-.34.64-.74.85-1.19.2-.45.31-.94.31-1.46s-.1-1.01-.31-1.46c-.2-.45-.49-.85-.85-1.19s-.78-.61-1.26-.8c-.48-.19-.99-.29-1.54-.29s-1.06.1-1.54.29a3.868 3.868 0 0 0-2.11 1.99c-.2.45-.31.94-.31 1.46s.1 1.01.31 1.46c.2.45.49.85.85 1.19.09.08.19.15.28.22v4.02h-3.24v.9h11.5v-.9h-3.24v-4.02zm-5.4-2.87a2.854 2.854 0 0 1 .83-2.02c.26-.25.56-.46.91-.61.35-.15.72-.22 1.12-.22a2.854 2.854 0 0 1 2.03.83c.26.25.46.56.61.91.15.35.22.72.22 1.11s-.07.76-.22 1.11c-.15.35-.35.65-.61.91-.26.25-.56.46-.91.61-.35.15-.72.22-1.12.22a2.854 2.854 0 0 1-2.03-.83c-.26-.25-.46-.56-.61-.91-.14-.35-.22-.72-.22-1.11zm1.44 3.48c.45.17.93.26 1.44.26.51 0 .99-.09 1.44-.26v3.41h-2.88v-3.41zm9.24-4.44c.07.26.13.59.18 1 .05.41.09.84.13 1.29.03.45.06.89.08 1.33.02.43.03.81.03 1.12h.6c0-.3.01-.67.02-1.1.02-.43.04-.88.07-1.33.03-.45.08-.88.13-1.29.05-.41.11-.74.18-1 .07-.26.12-.51.14-.76.02-.24.04-.46.04-.65 0-.29-.08-.52-.22-.7s-.37-.27-.66-.27c-.29 0-.51.09-.66.27-.15.18-.22.41-.22.7 0 .18.01.39.03.64.02.24.06.49.13.75zm.72 6.17a.852.852 0 0 0-.88.88.852.852 0 0 0 .88.88.852.852 0 0 0 .88-.88.852.852 0 0 0-.88-.88z"/><g fill="#2D2D2D"><path d="M33.62 222.42c-.04-.02-.13-.05-.27-.08s-.27-.06-.38-.08c-.14-.04-.29-.1-.45-.16-.16-.07-.32-.16-.49-.27.14-.1.28-.17.4-.2.13-.04.27-.08.43-.13.28-.06.52-.14.73-.24.12-.06.23-.14.34-.23a.44.44 0 0 0 .17-.35c0-.43-.23-.64-.7-.64-.17 0-.32.06-.44.17-.13.11-.22.22-.28.31-.11.14-.23.29-.37.44-.13.15-.26.29-.38.4 0-.23.02-.44.05-.64.03-.19.09-.41.16-.64.06-.19.09-.37.09-.55 0-.2-.05-.36-.14-.48-.1-.12-.26-.18-.49-.18-.21 0-.36.06-.46.18-.1.12-.15.28-.15.48 0 .17.03.36.09.58.07.23.12.44.16.62.04.18.05.39.05.62a5.35 5.35 0 0 1-.42-.41c-.14-.15-.28-.32-.4-.5a2.05 2.05 0 0 0-.25-.27.59.59 0 0 0-.4-.14c-.46 0-.69.21-.69.64 0 .14.05.26.16.35.11.1.23.17.34.23.11.06.23.11.34.14.12.04.24.07.36.1.15.06.3.11.44.14.15.04.29.11.43.22-.08.08-.19.14-.34.19-.15.05-.36.12-.64.22-.11.02-.23.05-.35.08-.12.04-.21.06-.26.08-.14.06-.26.13-.36.22-.1.09-.15.21-.15.37 0 .2.06.35.19.46.13.1.3.16.51.16.13 0 .27-.05.41-.16.15-.11.25-.21.31-.31.05-.09.15-.22.31-.39.15-.17.31-.32.46-.45-.01.21-.04.43-.07.65-.04.22-.09.43-.13.61-.06.23-.09.42-.09.58 0 .2.05.36.15.48.1.12.25.18.46.18.23 0 .39-.06.49-.18.09-.12.14-.28.14-.48 0-.17-.03-.35-.09-.55-.07-.23-.12-.44-.16-.64-.04-.2-.05-.41-.05-.64.15.14.3.29.46.46.15.17.26.29.31.37.05.09.15.19.3.31s.29.17.42.17c.21 0 .38-.05.51-.16.13-.1.19-.26.19-.46 0-.16-.05-.29-.15-.37-.1-.1-.22-.17-.36-.23zm1.47 4.83h11.5v.9h-11.5zm10.43-4.79h-2.34l.36-4.04h-1.07l-.36 4.04h-2.52l-.36-4.04h-1.08l.36 4.04h-2.34v.9h9.35zm-8.99-5.39h8.63v.9h-8.63zm17.24 6.89h3.51v-.9h-6.47c-.15 0-.28-.08-.38-.25-.1-.17-.16-.38-.16-.64v-1.5h6.83v-3c0-.25-.05-.46-.16-.64-.1-.17-.23-.26-.38-.26h-7.55v.9h6.65c.1 0 .18.06.25.17.07.12.1.26.1.43v1.5h-7.64v.45h.45c.1 0 .18.06.25.17.07.11.1.26.1.43v1.8c0 .38.08.7.23.96.15.26.35.39.58.39h2.7v3.3h-5.3v.9h11.5v-.9h-5.12v-3.31zm12.3-.6h3.33v-5.39c0-.25-.05-.46-.16-.64-.1-.17-.23-.26-.38-.26h-8.18v.45h.45c.1 0 .19.06.25.17.07.11.1.26.1.43v3.9c0 .38.08.7.23.96s.35.39.58.39h2.7v3.89h-5.3v.9H71.2v-.9h-5.12v-3.9zm-3.35-1.15c-.1-.17-.16-.38-.16-.64v-3.6h5.39c.1 0 .18.06.25.17.07.11.1.26.1.43v3.9h-5.2c-.15-.01-.28-.09-.38-.26zm18.97-2.15h-3.06v.9h3.06v4.64h1.08v-8.84c0-.25-.05-.46-.16-.64-.1-.17-.23-.26-.38-.26h-1.35v.45h.45c.1 0 .18.06.25.17.07.12.1.26.1.43v.9h-3.42v.9h3.42v1.35zm-4.76 1.91c.53.58 1.16 1.1 1.88 1.54l.69-.69c-.5-.3-.95-.64-1.36-1.03-.4-.38-.75-.8-1.04-1.26-.29-.45-.51-.94-.67-1.45-.15-.51-.23-1.03-.23-1.57v-.15c0-.25-.05-.46-.16-.64s-.23-.26-.38-.26h-1.35v.45h.45c.1 0 .19.06.25.17.07.11.1.26.1.43 0 .54-.08 1.06-.23 1.57-.15.51-.38.99-.67 1.45-.29.45-.64.87-1.04 1.26-.4.38-.86.73-1.36 1.03l.69.69c.72-.44 1.35-.95 1.88-1.54.53-.58.96-1.23 1.27-1.92.33.7.75 1.34 1.28 1.92zm-.48 6.53c-.1-.17-.16-.38-.16-.64v-1.8c0-.25-.05-.46-.16-.64-.1-.17-.23-.26-.38-.26H74.4v.45h.45c.1 0 .18.06.25.17.07.11.1.26.1.43v2.1c0 .38.08.7.23.96.15.26.35.39.58.39h6.92v-.9h-6.11c-.13-.01-.26-.09-.37-.26zm13.05-10.53h4.85c0 1-.15 1.94-.45 2.82-.3.88-.71 1.65-1.22 2.3a6.11 6.11 0 0 1-1.81 1.56c-.69.38-1.42.58-2.2.58l.82.84a5.88 5.88 0 0 0 2.34-.9c.72-.47 1.35-1.06 1.88-1.78.53-.72.95-1.54 1.26-2.46.3-.92.46-1.9.46-2.94v-.9H89.5v.88zm9.35-2.1H97.5v.45h.45c.1 0 .18.06.25.17.07.12.1.26.1.43v12.88h.18c.12 0 .23-.06.34-.19.11-.13.21-.3.29-.52.09-.22.15-.47.19-.76s.07-.6.07-.93v-10.64c0-.25-.05-.46-.16-.64-.08-.16-.21-.25-.36-.25zm12.3.9c0-.25-.05-.46-.16-.64-.1-.17-.23-.26-.38-.26h-1.35v.45h.45c.1 0 .18.06.25.17.07.12.1.26.1.43v8.69h1.08v-5.09h2.16v-.9h-2.16v-2.85zm-5.28 4.6c.52-.51.94-1.09 1.24-1.72.3-.63.45-1.29.45-1.99v-.9h-5.93v.9h4.85c0 .63-.14 1.23-.43 1.79-.28.56-.68 1.07-1.18 1.51-.5.44-1.1.82-1.79 1.12-.69.3-1.43.52-2.23.64l.78.78c.85-.18 1.64-.45 2.37-.82s1.34-.79 1.87-1.31zm-1.04 7.13c-.1-.17-.16-.38-.16-.64v-1.8c0-.25-.05-.46-.16-.64-.1-.17-.23-.26-.38-.26h-1.35v.45h.45c.1 0 .18.06.25.17.07.11.1.26.1.43v2.1c0 .38.08.7.23.96.15.26.35.39.58.39h6.92v-.9h-6.11c-.14-.01-.26-.09-.37-.26zm21.78-3.28a4.31 4.31 0 0 0-1.26-.59c-.48-.14-.99-.22-1.54-.22s-1.06.07-1.54.22c-.48.14-.9.34-1.26.59-.36.25-.64.54-.85.88-.2.34-.31.7-.31 1.08 0 .38.1.74.31 1.08.2.34.49.63.85.88s.78.45 1.26.59c.48.14.99.22 1.54.22s1.06-.07 1.54-.22c.48-.14.9-.34 1.26-.59.36-.25.64-.54.85-.88.2-.34.31-.7.31-1.08 0-.38-.1-.74-.31-1.08-.2-.34-.49-.63-.85-.88zm-.15 2.69c-.15.22-.35.42-.61.59-.26.17-.56.3-.91.4-.35.1-.72.15-1.12.15s-.77-.05-1.12-.15c-.35-.1-.65-.23-.91-.4s-.46-.37-.61-.59c-.15-.22-.22-.47-.22-.73s.07-.5.22-.73c.15-.22.35-.42.61-.59.26-.17.56-.3.91-.4.35-.1.72-.15 1.12-.15s.77.05 1.12.15c.35.1.65.23.91.4s.46.37.61.59c.15.22.22.47.22.73.01.26-.07.5-.22.73zm-4.36-8.56c-.37.29-.83.57-1.36.82-.53.25-1.12.48-1.77.68l.7.7c.97-.32 1.81-.7 2.51-1.15.7-.44 1.25-.94 1.63-1.48.37.54.91 1.03 1.62 1.48.71.44 1.55.83 2.52 1.15l.7-.7c-.65-.2-1.24-.43-1.77-.68-.53-.25-.98-.53-1.36-.82-.37-.29-.66-.61-.87-.94s-.31-.68-.31-1.04h3.77v-.9h-8.63v.9h3.78c0 .36-.1.71-.31 1.04-.19.33-.48.65-.85.94z"/><path d="M124.44 221.71c0-.25-.05-.46-.16-.64-.1-.17-.23-.26-.38-.26h-1.35v.45h.45c.1 0 .18.06.25.17.07.12.1.26.1.43v.75h-5.3v.9h11.5v-.9h-5.12v-.9zm14.01 2.25h1.8v-.9h-6.47c-.15 0-.28-.08-.38-.25-.1-.17-.16-.38-.16-.64v-1.5h6.83v-3c0-.25-.05-.46-.16-.64-.1-.17-.23-.26-.38-.26h-7.55v.9h6.65c.1 0 .18.06.25.17.07.12.1.26.1.43v1.5h-7.64v.45h.45c.1 0 .19.06.25.17.07.11.1.26.1.43v1.8c0 .38.08.7.23.96.15.26.35.39.58.39h.81v3.3h-3.42v.9h11.5v-.9h-3.42v-3.31zm-3.6 0h2.52v3.3h-2.52v-3.3zm12.31.6v.9h5.12v4.34h.18c.12 0 .23-.06.34-.19.11-.13.21-.3.29-.52.08-.22.15-.47.19-.76.04-.29.07-.6.07-.93v-1.95h5.3v-.9h-11.49zm10.42-7.19h-4.13v-.6c0-.25-.05-.46-.16-.64-.1-.17-.23-.26-.38-.26h-1.35v.45h.45c.1 0 .18.06.25.17.07.12.1.26.1.43v.45h-4.13v.9h9.35v-.9zm-2.13 2.22c-.32-.22-.71-.4-1.15-.53-.44-.13-.9-.19-1.39-.19-.5 0-.97.06-1.4.19-.43.13-.81.31-1.14.53-.32.22-.58.49-.77.79-.19.3-.28.62-.28.96s.09.66.28.96c.19.3.45.56.77.79.32.22.7.4 1.14.53.43.13.9.19 1.4.19.49 0 .95-.06 1.39-.19.44-.13.82-.31 1.15-.53.32-.22.58-.49.77-.79.19-.3.29-.62.29-.96s-.1-.66-.29-.96c-.19-.3-.45-.56-.77-.79zm-.22 2.36c-.13.19-.31.36-.54.5-.23.14-.5.26-.8.34-.3.08-.63.12-.98.12s-.68-.04-.98-.12c-.3-.08-.57-.19-.8-.34-.23-.14-.41-.31-.54-.5-.13-.19-.19-.39-.19-.61s.06-.42.19-.61.31-.35.54-.49c.23-.14.5-.25.8-.34.3-.08.63-.13.98-.13s.68.04.98.13c.3.09.57.2.8.34.23.14.41.3.54.49.13.19.19.39.19.61s-.06.42-.19.61z"/></g><g fill="#2D2D2D"><path d="M30.6 239.38c.07.12.1.26.1.43v2.85c0 .38.08.7.23.96.15.26.35.39.58.39h7.1v-4.34c0-.25-.05-.46-.16-.64-.1-.17-.23-.26-.38-.26H29.9v.45h.45c.1-.01.18.05.25.16zm1.19.28h5.39c.1 0 .18.06.25.17.07.12.1.26.1.43v2.85h-5.21c-.15 0-.28-.08-.38-.25-.1-.17-.16-.38-.16-.64v-2.56zm-2.88 7.04h5.12v5.09h.18c.12 0 .23-.06.34-.19.11-.13.21-.3.29-.52.08-.22.15-.47.19-.76.04-.29.07-.6.07-.93v-2.7h5.3v-.9H28.91v.91zm20.39-.75h1.8v-.9h-6.47c-.15 0-.28-.08-.38-.25-.1-.17-.16-.38-.16-.64v-1.5h6.83v-3c0-.25-.05-.46-.16-.64-.1-.17-.23-.26-.38-.26h-7.55v.9h6.65c.1 0 .18.06.25.17.07.12.1.26.1.43v1.5H42.2v.45h.45c.1 0 .18.06.25.17.07.11.1.26.1.43v1.8c0 .38.08.7.23.96.15.26.35.39.58.39h.81v3.3H41.2v.9h11.5v-.9h-3.4v-3.31zm-3.6 0h2.52v3.3H45.7v-3.3zm15.89-6.14h-3.24v-.6c0-.25-.05-.46-.16-.64s-.23-.26-.38-.26h-1.35v.45h.45c.1 0 .18.06.25.17.07.12.1.26.1.43v.45h-3.42v.9h7.73v-.9z"/><path d="M63.57 237.86h-1.35v.45h.45c.1 0 .18.06.25.17.07.12.1.26.1.43v7.94c0 .12-.07.24-.21.34-.14.11-.33.21-.58.29-.24.08-.53.15-.86.19-.33.05-.68.07-1.05.07h-2.16v-1.53c.27-.03.52-.08.77-.16a3.4 3.4 0 0 0 1-.53c.28-.22.51-.49.67-.79.16-.3.25-.62.25-.96s-.08-.66-.25-.96c-.16-.3-.39-.56-.67-.79a3.4 3.4 0 0 0-1-.53c-.38-.13-.79-.19-1.22-.19-.44 0-.85.06-1.23.19s-.71.31-1 .53c-.28.22-.51.49-.67.79-.16.3-.25.62-.25.96s.08.66.25.96c.16.3.39.56.67.79.28.22.62.4 1 .53.19.07.39.11.6.15v1.55h-3.6v.9h6.83c.47 0 .91-.05 1.33-.14.41-.09.77-.22 1.08-.39.11-.06.2-.12.29-.19v3.87h.18c.12 0 .23-.06.34-.19.11-.13.21-.3.29-.52.09-.22.15-.47.19-.76.04-.29.07-.6.07-.93v-10.64c0-.25-.05-.46-.16-.64-.07-.17-.2-.26-.35-.26zm-7.3 7.04c-.19-.15-.33-.31-.44-.5-.11-.19-.16-.39-.16-.61s.05-.42.16-.61.26-.35.44-.49.4-.25.65-.34c.25-.08.52-.13.81-.13.28 0 .55.04.8.13s.47.2.66.34c.18.14.33.3.44.49.11.19.16.39.16.61s-.05.42-.16.61-.26.36-.44.5c-.19.14-.4.26-.66.34-.25.08-.52.12-.8.12-.29 0-.56-.04-.81-.12-.25-.09-.47-.2-.65-.34zm12.58 1.95h1.08v-1.8h3.06c.44 0 .86-.05 1.26-.14.4-.09.74-.22 1.03-.39.02-.01.03-.02.04-.03v1.46h-3.24v.9h3.24v1.2h1.08v-9.29c0-.25-.05-.46-.16-.64-.1-.17-.23-.26-.38-.26h-1.35v.45h.45c.1 0 .18.06.25.17.07.12.1.26.1.43v4.66c-.01.01-.01.02-.02.02-.14.11-.31.21-.54.29-.22.08-.49.15-.8.19-.31.05-.63.07-.97.07h-7.37v.9h3.24v1.81zm.88 3.64c-.1-.17-.16-.38-.16-.64v-1.5c0-.25-.05-.46-.16-.64-.1-.17-.23-.26-.38-.26h-1.35v.45h.45c.1 0 .18.06.25.17.07.11.1.26.1.43v1.8c0 .38.08.7.23.96.15.26.35.39.58.39h7.28v-.9H70.1c-.14 0-.26-.09-.37-.26z"/><path d="M67.31 242.51c.3.23.65.41 1.06.55.4.13.84.2 1.3.2.46 0 .89-.07 1.3-.2.4-.14.76-.32 1.06-.55.3-.23.54-.5.71-.81.17-.31.26-.64.26-.99s-.09-.68-.26-.99c-.17-.31-.41-.58-.71-.81-.3-.23-.65-.41-1.06-.55-.4-.13-.84-.2-1.3-.2-.46 0-.89.07-1.3.2-.4.14-.76.32-1.06.55-.3.23-.54.5-.71.81-.17.31-.26.64-.26.99s.09.68.26.99c.17.31.41.58.71.81zm.29-2.44c.12-.2.28-.37.48-.52.2-.14.44-.26.71-.34.27-.08.57-.13.88-.13.31 0 .6.04.88.13.27.09.51.2.71.34.2.15.36.32.48.52s.18.41.18.64-.06.44-.18.64-.28.37-.48.52c-.2.15-.44.27-.71.35-.27.09-.57.13-.88.13-.31 0-.6-.04-.88-.13-.28-.08-.51-.2-.71-.35-.2-.15-.36-.32-.48-.52s-.18-.41-.18-.64.06-.44.18-.64zm10.31 9.18h11.5v.9h-11.5zm2.96-4.24c.36.34.78.61 1.26.8.48.19.99.29 1.54.29s1.06-.1 1.54-.29c.48-.2.9-.46 1.26-.8s.64-.74.85-1.19c.2-.45.31-.94.31-1.46s-.1-1.01-.31-1.46c-.2-.45-.49-.85-.85-1.19-.36-.34-.78-.61-1.26-.8-.48-.2-.99-.29-1.54-.29s-1.06.1-1.54.29a3.868 3.868 0 0 0-2.11 1.99c-.2.45-.31.94-.31 1.46s.1 1.01.31 1.46c.2.45.49.85.85 1.19zm.15-3.76c.15-.35.35-.65.61-.91.26-.25.56-.46.91-.61.35-.15.72-.22 1.12-.22a2.854 2.854 0 0 1 2.03.83c.26.25.46.56.61.91.15.35.22.72.22 1.11s-.07.76-.22 1.11c-.15.35-.35.65-.61.91-.26.25-.56.46-.91.61-.35.15-.72.22-1.12.22a2.854 2.854 0 0 1-2.03-.83c-.26-.25-.46-.56-.61-.91-.15-.35-.22-.72-.22-1.11s.07-.76.22-1.11zm15.57 4.7h3.51v-.9h-6.47c-.15 0-.28-.08-.38-.25-.1-.17-.16-.38-.16-.64v-1.5h6.83v-3c0-.25-.05-.46-.16-.64-.1-.17-.23-.26-.38-.26h-7.55v.9h6.65c.1 0 .18.06.25.17.07.12.1.26.1.43v1.5H91.2v.45h.45c.1 0 .19.06.25.17s.1.26.1.43v1.8c0 .38.08.7.23.96.15.26.35.39.58.39h2.7v3.3h-5.3v.9h11.51v-.9H96.6v-3.31zm20.67-7.19c0-.25-.05-.46-.16-.64s-.23-.26-.38-.26h-1.35v.45h.45c.1 0 .18.06.25.17.07.12.1.26.1.43v12.88h.18c.12 0 .23-.06.34-.19.11-.13.21-.3.29-.52.08-.22.15-.47.19-.76.04-.29.07-.6.07-.93v-5.54h2.16v-.9h-2.16v-4.19zm-5.13 6.17c-.28-.48-.5-.99-.66-1.52-.15-.53-.23-1.09-.23-1.66v-1.8h2.79v-.88h-6.65v.88h2.79v1.8c0 .58-.08 1.14-.23 1.67-.15.53-.37 1.04-.66 1.51-.28.47-.63.92-1.04 1.33-.41.41-.86.77-1.36 1.09l.69.69c.72-.47 1.34-1 1.87-1.6.53-.6.95-1.27 1.27-2.02.32.75.74 1.42 1.27 2.02.52.6 1.15 1.13 1.87 1.6l.7-.69c-.5-.32-.95-.68-1.36-1.09-.43-.4-.78-.85-1.06-1.33zm16.09 2.28a4.31 4.31 0 0 0-1.26-.59c-.48-.14-.99-.22-1.54-.22s-1.06.07-1.54.22c-.48.14-.9.34-1.26.59-.36.25-.64.54-.85.88-.2.34-.31.7-.31 1.08 0 .38.1.74.31 1.08.2.34.49.63.85.88s.78.45 1.26.59c.48.14.99.22 1.54.22s1.06-.07 1.54-.22c.48-.14.9-.34 1.26-.59.36-.25.64-.54.85-.88.2-.34.31-.7.31-1.08 0-.38-.1-.74-.31-1.08a3.08 3.08 0 0 0-.85-.88zm-.15 2.69c-.15.22-.35.42-.61.59-.26.17-.56.3-.91.4-.35.1-.72.15-1.12.15-.4 0-.77-.05-1.12-.15-.35-.1-.65-.23-.91-.4s-.46-.37-.61-.59c-.15-.22-.22-.47-.22-.73s.07-.5.22-.73c.15-.22.35-.42.61-.59.26-.17.56-.3.91-.4.35-.1.72-.15 1.12-.15.4 0 .77.05 1.12.15.35.1.65.23.91.4s.46.37.61.59c.15.22.22.47.22.73.01.26-.07.51-.22.73zm-2.11-6.64h3.6v-.9h-6.47c-.15 0-.28-.08-.38-.25s-.16-.38-.16-.64v-2.1h6.83v-.9h-8.72v.45h.45c.1 0 .19.06.25.17.07.11.1.26.1.43v2.4c0 .38.08.7.23.96.15.26.35.39.58.39h2.61v1.35h-5.21v.9h11.5v-.9h-5.21v-1.36zm14.98 7.23c-.1-.17-.16-.38-.16-.64v-1.8c0-.25-.05-.46-.16-.64-.1-.17-.23-.26-.38-.26h-1.35v.45h.45c.1 0 .18.06.25.17.07.11.1.26.1.43v2.1c0 .38.08.7.23.96.15.26.35.39.58.39h6.92v-.9h-6.11c-.14 0-.26-.09-.37-.26zm5.13-12c.07.12.1.26.1.43v2.25h-3.24v.9h3.24v5.54h1.08v-8.84c0-.25-.05-.46-.16-.64-.1-.17-.23-.26-.38-.26h-1.35v.45h.45c.11-.01.19.05.26.17z"/><path d="M141.42 243.97c.53.58 1.16 1.1 1.88 1.54l.69-.69c-.49-.29-.93-.62-1.33-1a6.6 6.6 0 0 1-1.03-1.22 6.21 6.21 0 0 1-.67-1.4 5.29 5.29 0 0 1-.26-1.54h2.79v-.9h-6.65v.9h2.79a5.722 5.722 0 0 1-.94 2.94c-.28.44-.63.85-1.03 1.22s-.84.71-1.33 1l.69.69c.72-.44 1.35-.95 1.88-1.54.53-.58.96-1.23 1.27-1.92.29.69.72 1.33 1.25 1.92zm15.43-4.91h-3.33v-.3c0-.25-.05-.46-.16-.64s-.23-.26-.38-.26h-1.35v.45h.45c.1 0 .18.06.25.17.07.12.1.26.1.43v.15h-3.33v.9h7.73v-.9z"/><path d="M159.01 238.76c0-.25-.05-.46-.16-.64s-.23-.26-.38-.26h-1.35v.45h.45c.1 0 .18.06.25.17.07.12.1.26.1.43v5.98c-.12.07-.26.14-.43.2-.24.09-.53.15-.86.19-.33.05-.68.07-1.05.07h-1.98v-.94c.2-.03.4-.07.59-.12.38-.1.72-.25 1-.43s.51-.4.67-.64a1.369 1.369 0 0 0 0-1.58c-.17-.24-.39-.46-.67-.64a3.51 3.51 0 0 0-1-.43c-.38-.1-.79-.16-1.22-.16-.44 0-.85.05-1.23.16-.38.1-.71.25-1 .43-.28.19-.51.4-.67.64a1.369 1.369 0 0 0 0 1.58c.16.24.39.46.67.64s.62.33 1 .43c.25.07.51.11.78.13v.93h-3.78v.9h6.83c.47 0 .91-.05 1.33-.14.39-.09.72-.21 1.01-.36v1.85h1.08v-5.09h2.16v-.9h-2.16v-2.85zm-7.48 4.47c-.19-.1-.33-.22-.44-.36a.677.677 0 0 1-.16-.43c0-.15.05-.29.16-.43s.26-.26.44-.36c.18-.1.4-.18.65-.24s.52-.09.81-.09c.28 0 .55.03.8.09s.47.14.66.24c.19.1.33.22.44.36.11.14.17.28.17.43 0 .15-.06.29-.17.43-.11.14-.26.26-.44.36-.18.1-.4.18-.66.24-.25.06-.52.09-.8.09-.29 0-.56-.03-.81-.09s-.47-.14-.65-.24zm.99 7.26c-.1-.17-.16-.38-.16-.64v-1.5c0-.25-.05-.46-.16-.64-.1-.17-.23-.26-.38-.26h-1.35v.45h.45c.1 0 .18.06.25.17s.1.26.1.43v1.8c0 .38.08.7.23.96.15.26.35.39.58.39h7.1v-.9h-6.29c-.14 0-.27-.09-.37-.26zm18.97-12.63h-1.35v.45h.45c.1 0 .18.06.25.17.07.12.1.26.1.43v4.34c0 .12-.07.24-.21.34-.14.11-.33.21-.58.29-.24.08-.53.15-.86.19-.33.05-.68.07-1.05.07h-2.16v-1.35h2.52v-.9h-4.49c-.15 0-.28-.08-.38-.25-.1-.17-.16-.38-.16-.64v-1.5h4.85v-.9h-6.74v.45h.45c.1 0 .18.06.25.17.07.11.1.26.1.43v1.8c0 .38.08.7.23.96.15.26.35.39.58.39H165v1.35h-3.6v.9h6.83c.47 0 .91-.05 1.33-.14.41-.09.77-.22 1.08-.39.11-.06.2-.12.29-.19v1.32h1.08v-6.89c0-.25-.05-.46-.16-.64-.09-.17-.21-.26-.36-.26zm0 8.39h-1.35v.45h.45c.1 0 .18.06.25.17.07.11.1.26.1.43v.9h-5.75v-.9c0-.25-.05-.46-.16-.64-.1-.17-.23-.26-.38-.26h-1.35v.45h.45c.1 0 .18.06.25.17.07.12.1.26.1.43v2.85c0 .38.08.7.23.96.15.26.35.39.58.39h7.1v-4.49c0-.25-.05-.46-.16-.64-.09-.18-.21-.27-.36-.27zm-.54 4.5h-5.21c-.15 0-.28-.09-.38-.25-.1-.17-.16-.38-.16-.64v-.75h5.75v1.64zm12.65-12.89h-1.35v.45h.45c.1 0 .18.06.25.17.07.12.1.26.1.43v6.89c0 .12-.07.23-.21.34-.14.11-.33.21-.58.29-.24.09-.53.15-.86.19-.33.05-.68.07-1.05.07h-4.49c-.15 0-.28-.08-.38-.25-.1-.17-.16-.38-.16-.64v-5.99c0-.25-.05-.46-.16-.64s-.23-.26-.38-.26h-1.35v.45h.45c.1 0 .18.06.25.17.07.11.1.26.1.43v6.29c0 .38.08.7.23.96.15.26.35.39.58.39h5.3c.47 0 .91-.05 1.33-.14.41-.09.77-.22 1.08-.39.11-.06.2-.12.29-.19v4.92h.18c.12 0 .23-.06.34-.19.11-.13.21-.3.29-.52.08-.22.15-.47.19-.76.04-.29.07-.6.07-.93v-10.64c0-.25-.05-.46-.16-.64-.07-.17-.2-.26-.35-.26zm12.3.9c0-.25-.05-.46-.16-.64s-.23-.26-.38-.26h-1.35v.45h.45c.1 0 .19.06.25.17.07.12.1.26.1.43v7.33c-.12.07-.26.14-.43.2-.24.09-.53.15-.86.19-.33.05-.68.07-1.05.07h-4.49c-.15 0-.28-.08-.38-.25-.1-.17-.16-.38-.16-.64v-5.84h4.85v-.9h-6.74v.45h.45c.1 0 .18.06.25.17.07.11.1.26.1.43v6.14c0 .38.08.7.23.96.15.26.35.39.58.39h5.3c.47 0 .91-.05 1.33-.14.39-.09.72-.21 1.01-.36v4.7h.2c.12 0 .23-.06.34-.19.11-.13.21-.3.29-.52.08-.22.15-.47.19-.76.05-.29.07-.6.07-.93v-5.54h2.16v-.9h-2.16v-4.21zm4.21 9.56a.568.568 0 0 0-.37-.14h-.35c-.14 0-.27.04-.38.13-.11.09-.17.2-.17.34v.48c0 .14.05.26.16.35.11.09.23.14.37.14h.35c.14 0 .27-.04.38-.12.11-.08.17-.2.17-.35v-.48c0-.14-.05-.26-.16-.35z"/></g><path fill="#00B259" d="M4.26 85.13h11.42c2.34 0 4.23 1.89 4.23 4.23v11.42c0 2.34-1.89 4.23-4.23 4.23H4.26c-2.34 0-4.23-1.89-4.23-4.23V89.36c0-2.33 1.9-4.23 4.23-4.23zm0 82.91h11.42c2.34 0 4.23 1.89 4.23 4.23v11.42c0 2.34-1.89 4.23-4.23 4.23H4.26c-2.34 0-4.23-1.89-4.23-4.23v-11.42c0-2.34 1.9-4.23 4.23-4.23z"/><path fill="#FFF" d="M7.26 99.34h2.45v-7.8H7.7v-1.11c1.05-.2 1.8-.46 2.44-.85h1.32v9.76h2.19v1.45H7.26v-1.45zm-.64 83.75c3.3-2.92 5.01-5.1 5.01-6.94 0-1.22-.65-2.06-1.9-2.06-.88 0-1.61.56-2.21 1.25l-.99-.97c.96-1.04 1.95-1.67 3.41-1.67 2.06 0 3.38 1.34 3.38 3.36 0 2.16-1.72 4.4-4.1 6.67.58-.06 1.28-.11 1.83-.11h2.8v1.49H6.62v-1.02z"/></svg>