<svg xmlns="http://www.w3.org/2000/svg" width="40" height="40.249"><g data-name="그룹 56513"><g data-name="그룹 56180" transform="translate(-286.143 -404.096)"><path data-name="패스 44249" d="M292.564 428.34V435a6.357 6.357 0 0 0 6.336 6.364h14.482a6.357 6.357 0 0 0 6.336-6.364v-6.66m2.715 0V435a9.071 9.071 0 0 1-9.051 9.091H298.9a9.071 9.071 0 0 1-9.051-9.091v-6.66" fill="#222" stroke="#222" stroke-miterlimit="10" stroke-width=".5"/><circle data-name="타원 1369" cx="1.497" cy="1.497" r="1.497" transform="translate(289.869 426.584)" fill="#222" stroke="#222" stroke-miterlimit="10" stroke-width=".5"/><circle data-name="타원 1370" cx="1.497" cy="1.497" r="1.497" transform="translate(319.446 426.584)" fill="#222" stroke="#222" stroke-miterlimit="10" stroke-width=".5"/><g data-name="패스 44247"><path data-name="패스 44248" d="M324.142 423.765v10.336a10 10 0 0 1-10 10h-16a10 10 0 0 1-10-10v-10.336" fill="none"/></g><path data-name="패스 44246" d="m294.473 418.48 11.733-10.631 11.631 10.631" fill="none" stroke="#222" stroke-linecap="round" stroke-width="3.5"/><path data-name="선 1" fill="none" stroke="#222" stroke-linecap="round" stroke-width="3.5" d="M305.973 409.441v21.568"/></g><path data-name="사각형 12779" fill="none" d="M0 0h40v40H0z"/></g></svg>