<svg xmlns="http://www.w3.org/2000/svg" xmlns:xlink="http://www.w3.org/1999/xlink" width="88" height="87.999" viewBox="0 0 88 87.999">
  <defs>
    <clipPath id="clip-path">
      <path id="패스_50302" data-name="패스 50302" d="M42.069.746l-.027,0a43.241,43.241,0,1,0,2-.047q-.983,0-1.973.045" transform="translate(-0.703 -0.701)" fill="none"/>
    </clipPath>
    <radialGradient id="radial-gradient" cx="0.596" cy="0.367" r="0.469" gradientTransform="translate(0 0) scale(0.988 1)" gradientUnits="objectBoundingBox">
      <stop offset="0" stop-color="#fff"/>
      <stop offset="1" stop-color="#cd8f2f"/>
    </radialGradient>
    <clipPath id="clip-path-2">
      <path id="패스_50303" data-name="패스 50303" d="M34.082,81.3a27.671,27.671,0,0,1-15.725-6.378,30.484,30.484,0,0,1-8.927-14.4C8,55.546,7.4,49.738,9.761,50.192c.723.145,1.98,3.338,3.347,5.664A15.026,15.026,0,0,0,16.743,60.4c.493.367,2.149-3.322,4.559-5.421,1.4-1.158,2.943-1.553,3.187,1.9.3,4.241-.457,9.276.773,9.276,1.159,0,3.768-.879,9.5-1.355,2.151-.184,3.377.219,1.319,3.12a21.7,21.7,0,0,1-5.642,5.811c4.875,4.563,10.72,4.015,10.82,5.949h0c.061,1.12-2.112,1.734-4.983,1.734-.7,0-1.438-.036-2.2-.111M50.473,40.32A7.009,7.009,0,0,1,45.1,35.332h0a14.669,14.669,0,0,1-.157-5.522,37.314,37.314,0,0,1,3.373-10.78c1.99-5-2.841-7.92-2.046-9.768,1.1-2.492,4.547.674,8.393.906,3.314.186,5.308.018,7.887.361,3.421.458,7.514,1.617,9.338,3.761,1.67,1.956-.881,4.343-3.96,2.846-2.242-1.1-5.073-.419-3.415,1.918a7.563,7.563,0,0,0,4.99,2.823c5.606,1.475,5.719,6.838,1.929,9.619-4.318,3.159-8.68,1.856-10.436-4.343-.881-3.079-3.069-4.664-5.3-3.785s-.911,4.941.785,8.715c2.932,7.473-2.974,8.271-5.252,8.271a6.772,6.772,0,0,1-.753-.034M47.249,82.785c0-.028-.009-.058-.012-.087-.037-.994,1.415-1.245,1.415-1.245,13.015-2.564,9.211-11.1,4.6-15.451C51.324,64.171,33.2,48.543,33.2,48.543,15.932,33.67,17.314,22.06,17.314,22.06,18.147,7.774,30.66,4.231,40.125,5.049c1.1.094,1.722.774,1.522,1.7-.205,1.006-1.671,1.078-1.671,1.078A15.457,15.457,0,0,0,32.22,9.688c-7.626,5.129-5.375,13.861,4.8,23.57,1.276,1.225,2.64,2.513,4.032,3.819.007,0,2.053,1.8,6.112,5.664h.007c7.821,7.2,12.1,11.092,12.1,11.092,13.784,11.479,9.079,21.973,3.81,25.625a26.283,26.283,0,0,1-14.3,4.4,1.312,1.312,0,0,1-1.528-1.072M42.012.045A44,44,0,1,0,87.955,42.013v0A44,44,0,0,0,44.032,0q-1.006,0-2.02.045" transform="translate(0)" fill="none"/>
    </clipPath>
    <radialGradient id="radial-gradient-2" cx="0.582" cy="0.37" r="1.035" gradientTransform="translate(0 0) scale(0.988 1)" gradientUnits="objectBoundingBox">
      <stop offset="0" stop-color="#00adec"/>
      <stop offset="0.219" stop-color="#0082cc"/>
      <stop offset="0.296" stop-color="#006ab8"/>
      <stop offset="0.38" stop-color="#0059a9"/>
      <stop offset="0.469" stop-color="#004ea0"/>
      <stop offset="0.573" stop-color="#004b9e"/>
      <stop offset="1" stop-color="#004b9e"/>
    </radialGradient>
  </defs>
  <g id="신한카드" transform="translate(0)">
    <g id="그룹_65191" data-name="그룹 65191" transform="translate(0.703 0.701)">
      <g id="그룹_65190" data-name="그룹 65190" clip-path="url(#clip-path)">
        <rect id="사각형_16752" data-name="사각형 16752" width="88.667" height="87.633" transform="translate(-1.037 0)" fill="url(#radial-gradient)"/>
      </g>
    </g>
    <g id="그룹_65193" data-name="그룹 65193" transform="translate(0)">
      <g id="그룹_65192" data-name="그룹 65192" clip-path="url(#clip-path-2)">
        <rect id="사각형_16753" data-name="사각형 16753" width="90.103" height="89.053" transform="translate(-1.052 0)" fill="url(#radial-gradient-2)"/>
      </g>
    </g>
  </g>
</svg>
