<svg xmlns="http://www.w3.org/2000/svg" width="60" height="60" viewBox="0 0 60 60">
    <defs>
        <clipPath id="a">
            <path data-name="사각형 16264" d="M0 0h44.271v45.062H0z"/>
        </clipPath>
    </defs>
    <g data-name="그룹 62615">
        <g data-name="그룹 62614" transform="translate(7.865 7.469)" style="clip-path:url(#a)">
            <path data-name="패스 47877" d="M43.389 140a2.712 2.712 0 0 1-3.835 0l-8.287-8.288-5.942 5.943a2.712 2.712 0 0 1-3.835 0l-1.251-1.251a2.712 2.712 0 0 1 0-3.835l9.11-9.11a2.712 2.712 0 0 1 3.835 0l1.251 1.251.021.021 7.109 7.109 8.381-8.381a2.712 2.712 0 0 1 3.835 0l1.251 1.251.021.021 7.839 7.839a2.712 2.712 0 0 1 0 3.835l-1.251 1.251a2.712 2.712 0 0 1-3.835 0l-5.942-5.943-5.942 5.943z" transform="translate(-19.423 -95.732)" style="fill:#10c0e7"/>
            <path data-name="패스 47878" d="M27.02 44.7a8.679 8.679 0 0 1-4.615-11.365c.073-.173.152-.343.236-.51h-.512a2.7 2.7 0 0 1-.046-5.409h5.593v-1.561a2.724 2.724 0 0 1 5.441.2v1.361h5.546a2.7 2.7 0 0 1 .192 5.405H38.15c.084.167.163.337.236.51A8.677 8.677 0 0 1 27.02 44.7m.381-7.99a2.994 2.994 0 1 0 2.999-2.995 2.994 2.994 0 0 0-3 2.995" transform="translate(-19.401 -23.333)" style="fill:#ff8dc2"/>
            <path data-name="패스 47879" d="M118.174 46.99a2.711 2.711 0 0 1-2.711-2.711V36.61a2.711 2.711 0 0 1 2.711-2.711h9.663v-1.822h-9.663a2.711 2.711 0 0 1 0-5.423h12.791a2.711 2.711 0 0 1 2.711 2.711v7.261a2.711 2.711 0 0 1-2.711 2.711h-.418a2.713 2.713 0 0 1-.3-.016H121.3v2.245h9.663a2.711 2.711 0 0 1 0 5.423h-12.371z" transform="translate(-89.406 -25.753)" style="fill:#ffd036"/>
        </g>
        <path data-name="사각형 3285" style="fill:none" d="M0 0h60v60H0z"/>
    </g>
</svg>
