<svg width="16" height="16" viewBox="0 0 16 16" fill="none" xmlns="http://www.w3.org/2000/svg">
<g id="ico_point">
<path id="P" d="M5 12.7273V4H8.44318C9.10511 4 9.66903 4.12642 10.1349 4.37926C10.6009 4.62926 10.956 4.97727 11.2003 5.4233C11.4474 5.86648 11.571 6.37784 11.571 6.95739C11.571 7.53693 11.446 8.0483 11.196 8.49148C10.946 8.93466 10.5838 9.27983 10.1094 9.52699C9.63778 9.77415 9.06676 9.89773 8.39631 9.89773H6.2017V8.41903H8.09801C8.45313 8.41903 8.74574 8.35795 8.97585 8.2358C9.20881 8.1108 9.3821 7.93892 9.49574 7.72017C9.61222 7.49858 9.67045 7.24432 9.67045 6.95739C9.67045 6.66761 9.61222 6.41477 9.49574 6.19886C9.3821 5.98011 9.20881 5.81108 8.97585 5.69176C8.7429 5.5696 8.44744 5.50852 8.08949 5.50852H6.84517V12.7273H5Z" fill="black"/>
<circle id="Ellipse 66" cx="8" cy="8" r="7.5" stroke="black"/>
</g>
</svg>
