<svg width="20" height="20" viewBox="0 0 20 20" fill="none" xmlns="http://www.w3.org/2000/svg">
<g clip-path="url(#clip0_1838_708)">
<path d="M2.44849 3.53936V3.64458C2.44849 3.60951 2.45521 3.57443 2.45858 3.53936H2.44849Z" fill="white"/>
<path d="M2.44853 4.08301C2.20094 4.08301 2 3.8866 2 3.64458V3.53936C2 3.29735 2.20094 3.10094 2.44853 3.10094H2.4593C2.5813 3.10094 2.69971 3.15004 2.78583 3.23773C2.87194 3.32541 2.915 3.44466 2.90783 3.56391C2.90783 3.59197 2.90424 3.61653 2.90065 3.64108C2.90065 3.85854 2.73918 4.03741 2.52747 4.07249C2.50235 4.076 2.47724 4.0795 2.44853 4.0795V4.08301Z" fill="#282828"/>
<path d="M16.0587 3.64458C16.0587 3.60951 16.0659 3.57444 16.0695 3.53936C16.1125 2.63094 16.719 1.87335 17.5514 1.57522V1.43843H4.70549C3.49625 1.43843 2.51666 2.3714 2.45925 3.53936C2.45925 3.57444 2.44849 3.606 2.44849 3.64458C2.44849 4.86165 3.46037 5.85074 4.70549 5.85074H17.5514V5.71045C16.6831 5.40179 16.0587 4.5986 16.0587 3.64458Z" fill="white"/>
<path d="M17.5515 6.28917H4.70554C3.21283 6.28917 2 5.10366 2 3.64458C2 3.60249 2.00359 3.56391 2.01076 3.52533C2.07894 2.10834 3.26306 1 4.70554 1H17.5515C17.7991 1 18 1.19641 18 1.43843V1.57521C18 1.76111 17.8816 1.92245 17.7058 1.98558C17.0204 2.2311 16.5539 2.8484 16.5181 3.56041C16.5181 3.59197 16.5145 3.61652 16.5109 3.64458C16.5109 4.38114 16.9917 5.04755 17.7058 5.30008C17.8852 5.36321 18 5.52806 18 5.71395V5.85425C18 6.09626 17.7991 6.29267 17.5515 6.29267V6.28917ZM4.70554 1.87685C3.74389 1.87685 2.95447 2.61691 2.90783 3.56041C2.90783 3.59197 2.90424 3.61652 2.90065 3.64458C2.90065 4.61964 3.71159 5.41232 4.70554 5.41232H16.3135C15.8722 4.93531 15.6102 4.31099 15.6102 3.64458C15.6102 3.60249 15.6138 3.56391 15.621 3.52533C15.6533 2.89751 15.9045 2.32229 16.3135 1.87685H4.70554Z" fill="#282828" stroke="black" stroke-width="0.3"/>
<path d="M4.70549 5.85074C3.46037 5.85074 2.44849 4.86165 2.44849 3.64458V16.2853H2.45566C2.45566 16.3098 2.44849 16.3344 2.44849 16.3589C2.44849 17.576 3.46037 18.5651 4.70549 18.5651H17.5514V5.85074H4.70549Z" fill="#F8CE00"/>
<path d="M17.5515 19H4.70554C3.21283 19 2 17.8145 2 16.3554C2 16.3414 2 16.3309 2 16.3168C2 16.3063 2 16.2958 2 16.2818V3.64458C2 3.40257 2.20094 3.20616 2.44853 3.20616C2.69612 3.20616 2.89706 3.40257 2.89706 3.64458C2.89706 4.61964 3.70801 5.41232 4.70554 5.41232H17.5515C17.7991 5.41232 18 5.60873 18 5.85074V18.5616C18 18.8036 17.7991 19 17.5515 19ZM2.89706 16.2081C2.90424 16.2397 2.90424 16.2677 2.90424 16.2993C2.90424 16.3168 2.89706 16.3659 2.89706 16.3835C2.89706 17.3305 3.70801 18.1267 4.70554 18.1267H17.1029V6.28917H4.70554C4.00942 6.28917 3.37789 6.03313 2.89706 5.60873V16.2046V16.2081Z" fill="#282828" stroke="black" stroke-width="0.3"/>
<path d="M9.85471 11.2486L7.87041 9.92634L5.88611 11.2486V8.55846V5.87178H7.87041H9.85471V8.55846V11.2486Z" fill="#6ABBEE"/>
<path d="M9.85463 11.6871C9.76493 11.6871 9.67881 11.6625 9.60346 11.6099L7.87033 10.456L6.1408 11.6099C6.00444 11.7011 5.82503 11.7116 5.67791 11.6345C5.53079 11.5573 5.4375 11.41 5.4375 11.2486V5.87179C5.4375 5.62978 5.63844 5.43336 5.88603 5.43336H9.85463C10.1022 5.43336 10.3032 5.62978 10.3032 5.87179V11.2486C10.3032 11.41 10.2099 11.5608 10.0628 11.6345C9.99816 11.6695 9.9264 11.6871 9.85463 11.6871ZM7.87033 9.48792C7.96004 9.48792 8.04616 9.51247 8.12151 9.56508L9.4061 10.4209V6.31021H6.33456V10.4209L7.61557 9.56508C7.69092 9.51247 7.78063 9.48792 7.86674 9.48792H7.87033Z" fill="#282828"/>
<path d="M15.8829 4.03391H9.90129C9.6537 4.03391 9.45276 3.83749 9.45276 3.59548C9.45276 3.35347 9.6537 3.15705 9.90129 3.15705H15.8829C16.1305 3.15705 16.3314 3.35347 16.3314 3.59548C16.3314 3.83749 16.1305 4.03391 15.8829 4.03391Z" fill="#282828" stroke="black" stroke-width="0.3"/>
</g>
<defs>
<clipPath id="clip0_1838_708">
<rect width="16" height="18" fill="white" transform="translate(2 1)"/>
</clipPath>
</defs>
</svg>
