<svg width="20" height="20" viewBox="0 0 20 20" fill="none" xmlns="http://www.w3.org/2000/svg">
<g clip-path="url(#clip0_1838_722)">
<path d="M5.35767 2.50264H14.6424C16.2187 2.50264 17.4974 3.78135 17.4974 5.35763V14.6384C17.4974 16.2146 16.2187 17.4933 14.6424 17.4933H5.3617C3.78542 17.4933 2.50269 16.2146 2.50269 14.6343V5.35763C2.50269 3.78135 3.7814 2.50264 5.35767 2.50264Z" fill="#A2E11A"/>
<path d="M14.6424 18H5.35763C3.5039 18 2 16.4921 2 14.6424V5.35763C2 3.50792 3.50792 2 5.35763 2H14.6384C16.4921 2 18 3.50792 18 5.35763V14.6384C18 16.4921 16.4921 17.996 14.6384 17.996L14.6424 18ZM5.35763 3.00528C4.05881 3.00528 3.00528 4.06283 3.00528 5.35763V14.6384C3.00528 15.9372 4.06283 16.9907 5.35763 16.9907H14.6384C15.9372 16.9907 16.9947 15.9331 16.9947 14.6384V5.35763C16.9947 4.05881 15.9372 3.00528 14.6384 3.00528H5.35763Z" fill="#282828"/>
<path d="M11.977 7.02651C13.341 8.39519 13.341 10.6083 11.977 11.977C10.6083 13.341 8.39519 13.341 7.02651 11.977C5.65783 10.6083 5.65783 8.39519 7.02651 7.02651C8.39519 5.65783 10.6083 5.65783 11.977 7.02651Z" fill="#F8FFA8"/>
<path d="M9.50121 14C8.34805 14 7.19489 13.564 6.3179 12.6825C5.46514 11.8299 5 10.7013 5 9.5C5 8.29871 5.46999 7.16523 6.3179 6.31755C7.17066 5.46502 8.2996 5 9.50121 5C10.7028 5 11.8366 5.46986 12.6845 6.31755C14.4385 8.07104 14.4385 10.929 12.6845 12.6825C11.8075 13.5592 10.6544 14 9.50121 14ZM9.50121 6.69537C8.78412 6.69537 8.06218 6.96663 7.51467 7.51399C6.96716 8.06136 6.69098 8.74919 6.69098 9.5C6.69098 10.2508 6.9817 10.9532 7.51467 11.486C8.60969 12.5807 10.3927 12.5807 11.4829 11.486C12.5779 10.3913 12.5779 8.61356 11.4829 7.51884C10.9354 6.97147 10.2183 6.70022 9.49637 6.70022L9.50121 6.69537Z" fill="#282828"/>
<path d="M14.7107 15.1209C14.5298 15.1209 14.3488 15.0525 14.2121 14.9158L11.7883 12.492C11.5149 12.2186 11.5149 11.7723 11.7883 11.4988C12.0618 11.2254 12.5081 11.2254 12.7815 11.4988L15.2053 13.9226C15.4788 14.196 15.4788 14.6424 15.2053 14.9158C15.0686 15.0525 14.8876 15.1209 14.7067 15.1209H14.7107Z" fill="#282828"/>
</g>
<defs>
<clipPath id="clip0_1838_722">
<rect width="16" height="16" fill="white" transform="translate(2 2)"/>
</clipPath>
</defs>
</svg>
