<svg width="20" height="20" viewBox="0 0 20 20" fill="none" xmlns="http://www.w3.org/2000/svg">
<g clip-path="url(#clip0_1838_705)">
<path d="M19.5614 4.00546H0.438477V16.5446H19.5614V4.00546Z" fill="#6ABBEE"/>
<path d="M19.5615 17H0.43852C0.196457 17 0 16.796 0 16.5446V4.00547C0 3.7541 0.196457 3.55009 0.43852 3.55009H19.5615C19.8035 3.55009 20 3.7541 20 4.00547V16.5446C20 16.796 19.8035 17 19.5615 17ZM0.877039 16.0893H19.123V4.46084H0.877039V16.0893Z" fill="#282828"/>
<path d="M2.44518 3.45538H8.37747C9.27205 3.45538 9.99824 4.11476 9.99824 4.92714V16.1038C9.99824 15.2914 9.27205 14.6321 8.37747 14.6321H2.44518C2.4101 14.6321 2.37151 14.6321 2.33643 14.6357V3.45902C2.37151 3.45902 2.40659 3.45538 2.44518 3.45538Z" fill="white"/>
<path d="M9.99828 16.5592C9.75622 16.5592 9.55976 16.3552 9.55976 16.1038C9.55976 15.5428 9.03003 15.0874 8.37401 15.0874H2.44522C2.42417 15.0874 2.40663 15.0874 2.38558 15.0874C2.26631 15.0911 2.1365 15.051 2.0488 14.9636C1.9611 14.8761 1.89795 14.7596 1.89795 14.6321V3.45902C1.89795 3.22222 2.07336 3.0255 2.3049 3.00729C2.35401 3.00364 2.39962 3 2.44522 3H8.37751C9.51416 3 10.4403 3.86339 10.4403 4.92714V16.1038C10.4403 16.3552 10.2439 16.5592 10.0018 16.5592H9.99828ZM2.77499 14.1767H8.37751C8.81603 14.1767 9.22649 14.3078 9.56327 14.5264V4.92714C9.56327 4.36612 9.03354 3.91075 8.37751 3.91075H2.77499V14.1767Z" fill="#282828"/>
<path d="M17.5583 3.45538H11.626C10.7314 3.45538 10.0017 4.11476 10.0017 4.92714V16.1038C10.0017 15.2914 10.7279 14.6321 11.626 14.6321H17.5583C17.5934 14.6321 17.6319 14.6321 17.667 14.6357V3.45902C17.6319 3.45902 17.5969 3.45538 17.5583 3.45538Z" fill="white"/>
<path d="M10.0018 16.5592C9.75969 16.5592 9.56323 16.3552 9.56323 16.1038V4.92714C9.56323 3.86339 10.4894 3 11.626 3H17.5583C17.6074 3 17.653 3 17.6986 3.00729C17.9267 3.0255 18.1021 3.22222 18.1021 3.46266V14.6393C18.1021 14.7632 18.053 14.8834 17.9653 14.9709C17.8776 15.0583 17.7583 15.0984 17.639 15.0947C17.5969 15.0947 17.5759 15.0911 17.5583 15.0911H11.626C10.9735 15.0911 10.4403 15.5464 10.4403 16.1075C10.4403 16.3588 10.2438 16.5628 10.0018 16.5628V16.5592ZM11.626 3.91075C10.9735 3.91075 10.4403 4.36612 10.4403 4.92714V14.5301C10.7771 14.3078 11.184 14.1803 11.626 14.1803H17.225V3.91075H11.626Z" fill="#282828"/>
<path d="M15.0395 6.74135C15.0395 7.3388 14.5729 7.82696 13.994 7.82696C13.4187 7.82696 12.9486 7.34244 12.9486 6.74135C12.9486 6.1439 13.4152 5.65574 13.994 5.65574C14.5694 5.65574 15.0395 6.14026 15.0395 6.74135Z" fill="white"/>
<path d="M13.9941 8.27869C13.1767 8.27869 12.5101 7.58652 12.5101 6.7377C12.5101 5.88889 13.1767 5.19672 13.9941 5.19672C14.8115 5.19672 15.478 5.88889 15.478 6.7377C15.478 7.58652 14.8115 8.27869 13.9941 8.27869ZM13.9941 6.11111C13.6608 6.11111 13.3872 6.39162 13.3872 6.74135C13.3872 7.09107 13.6573 7.37158 13.9941 7.37158C14.3309 7.37158 14.601 7.09107 14.601 6.74135C14.601 6.39162 14.3309 6.11111 13.9941 6.11111Z" fill="#282828"/>
<path d="M15.0395 10.6539C15.0395 11.2514 14.5729 11.7395 13.994 11.7395C13.4187 11.7395 12.9486 11.255 12.9486 10.6539C12.9486 10.0565 13.4152 9.56831 13.994 9.56831C14.5694 9.56831 15.0395 10.0528 15.0395 10.6539Z" fill="white"/>
<path d="M13.9941 12.1913C13.1767 12.1913 12.5101 11.4991 12.5101 10.6503C12.5101 9.80146 13.1767 9.10929 13.9941 9.10929C14.8115 9.10929 15.478 9.80146 15.478 10.6503C15.478 11.4991 14.8115 12.1913 13.9941 12.1913ZM13.9941 10.0237C13.6608 10.0237 13.3872 10.3042 13.3872 10.6539C13.3872 11.0036 13.6573 11.2842 13.9941 11.2842C14.3309 11.2842 14.601 11.0036 14.601 10.6539C14.601 10.3042 14.3309 10.0237 13.9941 10.0237Z" fill="#282828"/>
<path d="M7.89396 7.05318H4.42753C4.18547 7.05318 3.98901 6.84917 3.98901 6.5978C3.98901 6.34644 4.18547 6.14243 4.42753 6.14243H7.89396C8.13602 6.14243 8.33248 6.34644 8.33248 6.5978C8.33248 6.84917 8.13602 7.05318 7.89396 7.05318Z" fill="#282828"/>
<path d="M7.89396 9.29536H4.42753C4.18547 9.29536 3.98901 9.09136 3.98901 8.83999C3.98901 8.58862 4.18547 8.38462 4.42753 8.38462H7.89396C8.13602 8.38462 8.33248 8.58862 8.33248 8.83999C8.33248 9.09136 8.13602 9.29536 7.89396 9.29536Z" fill="#282828"/>
</g>
<defs>
<clipPath id="clip0_1838_705">
<rect width="20" height="14" fill="white" transform="translate(0 3)"/>
</clipPath>
</defs>
</svg>
