<svg width="20" height="20" viewBox="0 0 20 20" fill="none" xmlns="http://www.w3.org/2000/svg">
<path d="M12.2419 14.5H17V3.74196C17 3.05528 16.5039 2.5 15.8988 2.5H4.10121C3.49235 2.5 3 3.05528 3 3.74196V14.4958H7.75812" fill="#11D2FC"/>
<path d="M17.5008 14.5H12.4036C12.1258 14.5 11.9004 14.2819 11.9004 14.0131C11.9004 13.7444 12.1258 13.5263 12.4036 13.5263H16.9975V4.12804C16.9975 3.76582 16.6915 3.47371 16.3211 3.47371H3.68294C3.30851 3.47371 3.00654 3.76972 3.00654 4.12804V13.5224H7.6004C7.87821 13.5224 8.10367 13.7405 8.10367 14.0092C8.10367 14.278 7.87821 14.4961 7.6004 14.4961H2.50327C2.22547 14.4961 2 14.278 2 14.0092V4.12804C2 3.23223 2.75692 2.5 3.68294 2.5H16.3171C17.2471 2.5 18 3.23223 18 4.12804V14.0131C18 14.2819 17.7745 14.5 17.4967 14.5H17.5008Z" fill="#282828"/>
<path d="M13.1869 14.5H0V15.9744C0 16.8159 0.576046 17.5 1.28885 17.5H18.7153C19.424 17.5 20 16.8159 20 15.9744V14.5H12.47" fill="#C6EEEC"/>
<path d="M18.2824 17.5H1.71755C0.77211 17.5 0 16.5918 0 15.4743V13.9936C0 13.7211 0.220603 13.5 0.492417 13.5H19.5076C19.7794 13.5 20 13.7211 20 13.9936V15.4743C20 16.5918 19.2318 17.5 18.2864 17.5H18.2824ZM0.984834 14.4832V15.4704C0.984834 16.035 1.31968 16.5089 1.71755 16.5089H18.2824C18.6764 16.5089 19.0112 16.0311 19.0112 15.4704V14.4832H0.984834Z" fill="#282828"/>
<path d="M12.4907 6.5H7.50932C7.22818 6.5 7 6.276 7 6C7 5.724 7.22818 5.5 7.50932 5.5H12.4907C12.7718 5.5 13 5.724 13 6C13 6.276 12.7718 6.5 12.4907 6.5Z" fill="#282828"/>
</svg>
