<svg width="20" height="20" viewBox="0 0 20 20" fill="none" xmlns="http://www.w3.org/2000/svg">
<g clip-path="url(#clip0_1838_734)">
<path d="M16.9782 7.38307H15.8723L16.3146 5.4921C16.4606 4.85837 16.1377 4.20931 15.5892 4.04065C15.0406 3.86689 14.4789 4.24508 14.3329 4.8737L13.749 7.37796H11.6787L11.0108 4.83793C10.8781 4.3473 10.4844 4.00488 10.0376 3.99977C9.59082 3.99466 9.1927 4.32686 9.05115 4.81237L8.32568 7.37796H6.09179L5.50788 4.8737C5.35748 4.24508 4.79569 3.872 4.25159 4.04065C3.70307 4.20931 3.38015 4.85837 3.52613 5.4921L3.96848 7.38307H3.02626C2.46005 7.38307 2 7.91459 2 8.56876C2 9.22294 2.46005 9.75445 3.02626 9.75445H4.52143L6.01217 15.1309C6.28643 15.6931 6.52087 15.9895 6.9765 16.0049C6.98535 16.0049 6.99419 16.0049 7.00304 16.0049C7.4454 16.0049 7.71966 15.688 7.97622 15.1872L9.812 9.74934H10.1615L11.8601 15.1616C12.2007 15.8464 12.3909 16.0049 12.8421 16.0049C12.8466 16.0049 12.851 16.0049 12.8598 16.0049C13.3199 15.9947 13.5676 15.7289 13.833 15.1309L15.3238 9.75445H16.9826C17.5488 9.75445 18.0044 9.22294 18.0044 8.56876C18.0044 7.91459 17.5488 7.38307 16.9826 7.38307H16.9782ZM7.09594 11.7016L6.64031 9.74934H7.64888L7.09594 11.7016ZM12.7758 11.5483L12.298 9.74934H13.1916L12.7714 11.5483H12.7758Z" fill="#4371E8"/>
</g>
<defs>
<clipPath id="clip0_1838_734">
<rect width="16" height="12" fill="white" transform="translate(2 4)"/>
</clipPath>
</defs>
</svg>
