<svg width="76" height="84" viewBox="0 0 76 84" fill="none" xmlns="http://www.w3.org/2000/svg">
<path d="M35.8959 0.281301C36.5791 -0.0937665 37.4209 -0.0937671 38.1041 0.2813L72.8921 19.3783C74.8487 20.4524 74.0473 23.2963 71.788 23.2963H2.21198C-0.0473006 23.2963 -0.848743 20.4524 1.10786 19.3783L35.8959 0.281301Z" fill="#EDEDED"/>
<path d="M2.74072 61.2974C2.74072 60.7451 3.18844 60.2974 3.74072 60.2974H70.2592C70.8115 60.2974 71.2592 60.7451 71.2592 61.2974V67.1492H2.74072V61.2974Z" fill="#EDEDED"/>
<rect y="67.1484" width="74" height="6.85185" rx="1" fill="#A8ABB2"/>
<path d="M5.48157 23.2944H68.5186V28.079C68.5186 28.6313 68.0709 29.079 67.5186 29.079H6.48157C5.92928 29.079 5.48157 28.6313 5.48157 28.079V23.2944Z" fill="#A8ABB2"/>
<rect x="13.0188" y="33.1504" width="6.85185" height="23.3284" rx="0.5" fill="#D8D8D8"/>
<path d="M10.963 28.7803H21.926V32.1544C21.926 32.7066 21.4783 33.1544 20.926 33.1544H11.963C11.4107 33.1544 10.963 32.7066 10.963 32.1544V28.7803Z" fill="#E3E3E3"/>
<path d="M10.963 57.479C10.963 56.9267 11.4107 56.479 11.963 56.479H20.926C21.4783 56.479 21.926 56.9267 21.926 57.479V60.295H10.963V57.479Z" fill="#E3E3E3"/>
<rect x="33.5742" y="33.1504" width="6.85185" height="23.3284" rx="0.5" fill="#D8D8D8"/>
<path d="M31.5184 28.7803H42.4814V32.1544C42.4814 32.7066 42.0337 33.1544 41.4814 33.1544H32.5184C31.9661 33.1544 31.5184 32.7066 31.5184 32.1544V28.7803Z" fill="#E3E3E3"/>
<path d="M31.5184 57.479C31.5184 56.9267 31.9661 56.479 32.5184 56.479H41.4814C42.0337 56.479 42.4814 56.9267 42.4814 57.479V60.295H31.5184V57.479Z" fill="#E3E3E3"/>
<rect x="54.1296" y="33.1504" width="6.85185" height="23.3284" rx="0.5" fill="#D8D8D8"/>
<path d="M52.0742 28.7803H63.0372V32.1544C63.0372 32.7066 62.5895 33.1544 62.0372 33.1544H53.0742C52.5219 33.1544 52.0742 32.7066 52.0742 32.1544V28.7803Z" fill="#E3E3E3"/>
<path d="M52.0742 57.479C52.0742 56.9267 52.5219 56.479 53.0742 56.479H62.0372C62.5895 56.479 63.0372 56.9267 63.0372 57.479V60.295H52.0742V57.479Z" fill="#E3E3E3"/>
<ellipse cx="37" cy="13.0216" rx="6.16667" ry="6.16666" fill="white"/>
<g filter="url(#filter0_i_4585_50617)">
<path d="M66.5328 61.6192C66.5328 68.4351 61.0273 73.9493 54.2499 73.9493C47.4725 73.9493 41.967 68.4351 41.967 61.6192C41.967 54.8032 47.4725 49.2891 54.2499 49.2891C61.0273 49.2891 66.5328 54.8032 66.5328 61.6192Z" stroke="#4F4F4F" stroke-width="4"/>
</g>
<path fill-rule="evenodd" clip-rule="evenodd" d="M62.1676 70.122C63.146 69.1403 64.7323 69.1403 65.7107 70.122L75.2662 79.7091C76.2446 80.6907 76.2446 82.2822 75.2662 83.2639C74.2878 84.2455 72.7015 84.2455 71.7232 83.2639L62.1676 73.6767C61.1892 72.6951 61.1892 71.1036 62.1676 70.122Z" fill="#4F4F4F"/>
<defs>
<filter id="filter0_i_4585_50617" x="39.967" y="47.2891" width="31.5269" height="31.6213" filterUnits="userSpaceOnUse" color-interpolation-filters="sRGB">
<feFlood flood-opacity="0" result="BackgroundImageFix"/>
<feBlend mode="normal" in="SourceGraphic" in2="BackgroundImageFix" result="shape"/>
<feColorMatrix in="SourceAlpha" type="matrix" values="0 0 0 0 0 0 0 0 0 0 0 0 0 0 0 0 0 0 127 0" result="hardAlpha"/>
<feOffset dx="2.96112" dy="2.96112"/>
<feGaussianBlur stdDeviation="8.88335"/>
<feComposite in2="hardAlpha" operator="arithmetic" k2="-1" k3="1"/>
<feColorMatrix type="matrix" values="0 0 0 0 0 0 0 0 0 0 0 0 0 0 0 0 0 0 0.08 0"/>
<feBlend mode="normal" in2="shape" result="effect1_innerShadow_4585_50617"/>
</filter>
</defs>
</svg>
