<svg width="280" height="224" viewBox="0 0 280 224" fill="none" xmlns="http://www.w3.org/2000/svg">
<path d="M167.4 3H112.6C97.913 3 86 14.98 86 29.7498V80H110.707V29.7498C110.707 28.6995 111.556 27.8461 112.6 27.8461H167.4C168.444 27.8461 169.293 28.6995 169.293 29.7498V80H194V29.7498C194 14.98 182.087 3 167.4 3Z" fill="white" stroke="#282828" stroke-width="2" stroke-linecap="round" stroke-linejoin="round"/>
<path d="M201.386 80H78.6136C72.1996 80 67 85.2128 67 91.6431V210.357C67 216.787 72.1996 222 78.6136 222H201.386C207.8 222 213 216.787 213 210.357V91.6431C213 85.2128 207.8 80 201.386 80Z" fill="white" stroke="#282828" stroke-width="2" stroke-linecap="round" stroke-linejoin="round"/>
<path d="M194 192.947V109.053C194 103.501 189.515 99 183.983 99H96.0169C90.4847 99 86 103.501 86 109.053V192.947C86 198.499 90.4847 203 96.0169 203H183.983C189.515 203 194 198.499 194 192.947Z" fill="white" stroke="#E7E7E7" stroke-width="2" stroke-linecap="round" stroke-linejoin="round"/>
<path d="M135.105 150.31L135.167 149.978L134.882 149.797C132.253 148.121 130.5 145.215 130.5 141.897C130.5 136.708 134.744 132.5 140 132.5C145.086 132.5 149.225 136.441 149.487 141.397H149.453V141.897C149.453 145.215 147.7 148.121 145.071 149.797L144.786 149.978L144.848 150.31L149.187 173.5H130.766L135.105 150.31Z" fill="#5CC4FF" stroke="#297CFF"/>
<path d="M241 33V25" stroke="#D8D8D8" stroke-width="2" stroke-linecap="round" stroke-linejoin="round"/>
<path d="M233 36L227 31" stroke="#D8D8D8" stroke-width="2" stroke-linecap="round" stroke-linejoin="round"/>
<path d="M229 45H221" stroke="#D8D8D8" stroke-width="2" stroke-linecap="round" stroke-linejoin="round"/>
<path d="M233 54L227 59" stroke="#D8D8D8" stroke-width="2" stroke-linecap="round" stroke-linejoin="round"/>
<path d="M241 57V65" stroke="#D8D8D8" stroke-width="2" stroke-linecap="round" stroke-linejoin="round"/>
<path d="M250 54L256 59" stroke="#D8D8D8" stroke-width="2" stroke-linecap="round" stroke-linejoin="round"/>
<path d="M253 45H262" stroke="#D8D8D8" stroke-width="2" stroke-linecap="round" stroke-linejoin="round"/>
<path d="M250 36L256 31" stroke="#D8D8D8" stroke-width="2" stroke-linecap="round" stroke-linejoin="round"/>
<path d="M21 102V95" stroke="#D8D8D8" stroke-width="2" stroke-linecap="round" stroke-linejoin="round"/>
<path d="M14 104L9 100" stroke="#D8D8D8" stroke-width="2" stroke-linecap="round" stroke-linejoin="round"/>
<path d="M11 111H4" stroke="#D8D8D8" stroke-width="2" stroke-linecap="round" stroke-linejoin="round"/>
<path d="M14 118L9 123" stroke="#D8D8D8" stroke-width="2" stroke-linecap="round" stroke-linejoin="round"/>
<path d="M21 121V128" stroke="#D8D8D8" stroke-width="2" stroke-linecap="round" stroke-linejoin="round"/>
<path d="M28 118L32 123" stroke="#D8D8D8" stroke-width="2" stroke-linecap="round" stroke-linejoin="round"/>
<path d="M31 111H37" stroke="#D8D8D8" stroke-width="2" stroke-linecap="round" stroke-linejoin="round"/>
<path d="M28 104L32 100" stroke="#D8D8D8" stroke-width="2" stroke-linecap="round" stroke-linejoin="round"/>
<path d="M256 181V174" stroke="#D8D8D8" stroke-width="2" stroke-linecap="round" stroke-linejoin="round"/>
<path d="M250 184L245 179" stroke="#D8D8D8" stroke-width="2" stroke-linecap="round" stroke-linejoin="round"/>
<path d="M247 191H240" stroke="#D8D8D8" stroke-width="2" stroke-linecap="round" stroke-linejoin="round"/>
<path d="M250 198L245 202" stroke="#D8D8D8" stroke-width="2" stroke-linecap="round" stroke-linejoin="round"/>
<path d="M256 201V207" stroke="#D8D8D8" stroke-width="2" stroke-linecap="round" stroke-linejoin="round"/>
<path d="M263 198L268 202" stroke="#D8D8D8" stroke-width="2" stroke-linecap="round" stroke-linejoin="round"/>
<path d="M266 191H273" stroke="#D8D8D8" stroke-width="2" stroke-linecap="round" stroke-linejoin="round"/>
<path d="M263 184L268 179" stroke="#D8D8D8" stroke-width="2" stroke-linecap="round" stroke-linejoin="round"/>
</svg>
