<svg width="421" height="420" viewBox="0 0 421 420" fill="none" xmlns="http://www.w3.org/2000/svg">
<g filter="url(#filter0_i_1884_6971)">
<g clip-path="url(#clip0_1884_6971)">
<rect width="421" height="420" rx="20" fill="url(#paint0_linear_1884_6971)" fill-opacity="0.15"/>
<g filter="url(#filter1_d_1884_6971)">
<rect x="74" y="38" width="273" height="508" rx="36" fill="#F4F4F4"/>
<g filter="url(#filter2_i_1884_6971)">
<rect x="85" y="50" width="251" height="482" rx="28" fill="white"/>
</g>
<path d="M118.923 68.0127C119.492 68.0127 120.031 68.118 120.54 68.3287C121.05 68.5345 121.501 68.8579 121.893 69.2989C122.29 69.7349 122.601 70.296 122.826 70.9819C123.051 71.663 123.164 72.4837 123.164 73.4441V73.4588C123.164 74.6494 122.993 75.6686 122.65 76.5162C122.307 77.3639 121.814 78.0156 121.172 78.4712C120.535 78.922 119.774 79.1474 118.887 79.1474C118.235 79.1474 117.647 79.0298 117.123 78.7946C116.603 78.5545 116.172 78.2262 115.829 77.8098C115.491 77.3884 115.263 76.9082 115.146 76.3692L115.131 76.2884H116.99L117.02 76.3619C117.113 76.6069 117.245 76.8225 117.417 77.0087C117.593 77.1948 117.804 77.3394 118.049 77.4423C118.299 77.5403 118.578 77.5893 118.887 77.5893C119.445 77.5893 119.901 77.4251 120.254 77.0968C120.611 76.7637 120.878 76.3202 121.055 75.7666C121.236 75.208 121.339 74.5906 121.363 73.9144C121.368 73.841 121.371 73.7699 121.371 73.7013C121.371 73.6278 121.371 73.5568 121.371 73.4882L121.04 71.7169C121.04 71.3151 120.947 70.9501 120.761 70.6218C120.575 70.2935 120.322 70.0338 120.004 69.8427C119.69 69.6517 119.335 69.5561 118.938 69.5561C118.556 69.5561 118.206 69.6492 117.887 69.8354C117.569 70.0216 117.314 70.2764 117.123 70.5998C116.932 70.9182 116.836 71.2759 116.836 71.6728V71.6875C116.836 72.0991 116.927 72.4641 117.108 72.7826C117.289 73.0962 117.537 73.3436 117.85 73.5249C118.164 73.7062 118.522 73.7969 118.923 73.7969C119.325 73.7969 119.685 73.7087 120.004 73.5323C120.322 73.3559 120.575 73.1109 120.761 72.7973C120.947 72.4837 121.04 72.1285 121.04 71.7316V71.7169H121.481V73.6719H121.224C121.096 73.9512 120.908 74.2109 120.658 74.451C120.408 74.6911 120.099 74.8846 119.732 75.0316C119.369 75.1786 118.943 75.2521 118.453 75.2521C117.777 75.2521 117.179 75.1002 116.66 74.7964C116.14 74.4926 115.731 74.0761 115.432 73.547C115.138 73.0178 114.991 72.42 114.991 71.7537V71.739C114.991 71.0187 115.158 70.3793 115.491 69.8207C115.829 69.2572 116.295 68.8162 116.888 68.4978C117.485 68.1744 118.164 68.0127 118.923 68.0127ZM126.501 77.457C126.168 77.457 125.888 77.3467 125.663 77.1262C125.443 76.9009 125.332 76.6265 125.332 76.3031C125.332 75.9748 125.443 75.7004 125.663 75.4799C125.888 75.2545 126.168 75.1418 126.501 75.1418C126.839 75.1418 127.118 75.2545 127.339 75.4799C127.559 75.7004 127.669 75.9748 127.669 76.3031C127.669 76.6265 127.559 76.9009 127.339 77.1262C127.118 77.3467 126.839 77.457 126.501 77.457ZM126.501 72.0035C126.168 72.0035 125.888 71.8933 125.663 71.6728C125.443 71.4474 125.332 71.173 125.332 70.8496C125.332 70.5214 125.443 70.247 125.663 70.0265C125.888 69.8011 126.168 69.6884 126.501 69.6884C126.839 69.6884 127.118 69.8011 127.339 70.0265C127.559 70.247 127.669 70.5214 127.669 70.8496C127.669 71.173 127.559 71.4474 127.339 71.6728C127.118 71.8933 126.839 72.0035 126.501 72.0035ZM134.982 78.8828V76.847H129.794V75.2962C130.073 74.8209 130.352 74.3432 130.631 73.863C130.916 73.3828 131.202 72.9051 131.491 72.4298C131.785 71.9496 132.077 71.4768 132.366 71.0113C132.66 70.541 132.951 70.0779 133.241 69.6223C133.534 69.1617 133.828 68.7133 134.122 68.2773H136.79V75.2815H138.224V76.847H136.79V78.8828H134.982ZM131.557 75.3256H135.012V69.7913H134.902C134.686 70.1245 134.463 70.4675 134.233 70.8202C134.007 71.173 133.779 71.5332 133.549 71.9006C133.319 72.2681 133.091 72.6381 132.866 73.0104C132.64 73.3779 132.417 73.7479 132.197 74.1202C131.976 74.4877 131.763 74.8528 131.557 75.2153V75.3256ZM142.611 78.8828V70.1441H142.479L139.84 72.0035V70.2249L142.611 68.2773H144.5V78.8828H142.611Z" fill="black"/>
<rect opacity="0.35" x="301.62" y="68.4525" width="21.25" height="10.625" rx="3.36458" stroke="black" stroke-width="0.885417"/>
<path opacity="0.4" d="M324.199 72.2422V75.8507C324.911 75.5451 325.375 74.8341 325.375 74.0464C325.375 73.2588 324.911 72.5478 324.199 72.2422Z" fill="black"/>
<rect x="302.949" y="69.7812" width="18.5938" height="7.96875" rx="2.21354" fill="black"/>
<path fill-rule="evenodd" clip-rule="evenodd" d="M287.251 70.7579C289.453 70.758 291.571 71.5744 293.167 73.0384C293.287 73.1515 293.479 73.15 293.597 73.0352L294.746 71.9166C294.806 71.8583 294.84 71.7795 294.839 71.6974C294.839 71.6153 294.804 71.5368 294.744 71.4793C290.555 67.6059 283.946 67.6059 279.757 71.4793C279.697 71.5368 279.662 71.6153 279.662 71.6973C279.661 71.7794 279.694 71.8583 279.754 71.9166L280.903 73.0352C281.022 73.1502 281.214 73.1516 281.334 73.0384C282.93 71.5743 285.048 70.7579 287.251 70.7579ZM287.248 74.4946C288.45 74.4945 289.609 74.9476 290.499 75.7659C290.62 75.882 290.81 75.8795 290.927 75.7602L292.067 74.5921C292.127 74.5308 292.16 74.4477 292.159 74.3613C292.158 74.2749 292.124 74.1925 292.062 74.1325C289.35 71.5729 285.148 71.5729 282.436 74.1325C282.374 74.1925 282.339 74.275 282.339 74.3614C282.338 74.4478 282.371 74.5309 282.431 74.5921L283.571 75.7602C283.688 75.8795 283.878 75.882 283.999 75.7659C284.889 74.9482 286.047 74.4951 287.248 74.4946ZM289.483 76.9681C289.485 77.0613 289.452 77.1513 289.392 77.2166L287.465 79.3901C287.409 79.454 287.332 79.4899 287.251 79.4899C287.171 79.4899 287.094 79.454 287.037 79.3901L285.11 77.2166C285.05 77.1512 285.017 77.0613 285.019 76.968C285.021 76.8747 285.057 76.7864 285.119 76.7239C286.35 75.5605 288.152 75.5605 289.383 76.7239C289.445 76.7864 289.481 76.8748 289.483 76.9681Z" fill="black"/>
<path fill-rule="evenodd" clip-rule="evenodd" d="M273.021 69.4993C273.021 68.9388 272.599 68.4844 272.077 68.4844H271.133C270.611 68.4844 270.188 68.9388 270.188 69.4993V78.295C270.188 78.8555 270.611 79.3098 271.133 79.3098H272.077C272.599 79.3098 273.021 78.8555 273.021 78.295V69.4993ZM266.439 70.6495H267.384C267.905 70.6495 268.328 71.1148 268.328 71.6887V78.2706C268.328 78.8446 267.905 79.3098 267.384 79.3098H266.439C265.918 79.3098 265.495 78.8446 265.495 78.2706V71.6887C265.495 71.1148 265.918 70.6495 266.439 70.6495ZM262.604 72.995H261.659C261.138 72.995 260.715 73.4662 260.715 74.0475V78.2574C260.715 78.8386 261.138 79.3098 261.659 79.3098H262.604C263.125 79.3098 263.548 78.8386 263.548 78.2574V74.0475C263.548 73.4662 263.125 72.995 262.604 72.995ZM257.91 75.1601H256.966C256.444 75.1601 256.021 75.6246 256.021 76.1975V78.2724C256.021 78.8454 256.444 79.3098 256.966 79.3098H257.91C258.432 79.3098 258.855 78.8454 258.855 78.2724V76.1975C258.855 75.6246 258.432 75.1601 257.91 75.1601Z" fill="black"/>
</g>
<g clip-path="url(#clip1_1884_6971)">
<path d="M98.5876 122.677C97.3186 122.677 96.2899 121.648 96.2899 120.379C96.2899 119.11 97.3186 118.082 98.5876 118.082C99.8565 118.082 100.885 119.11 100.885 120.379C100.885 121.648 99.8565 122.677 98.5876 122.677ZM115.364 119.215H112.283C111.636 119.899 110.706 120.312 109.662 120.312C107.625 120.312 106.074 118.839 106.085 116.839C106.074 114.818 107.625 113.35 109.662 113.35C110.706 113.35 111.641 113.763 112.288 114.452H115.364V112.572H117.244V122.4H115.364V119.215ZM107.871 116.839C107.871 117.967 108.612 118.64 109.662 118.646C110.654 118.64 111.416 117.967 111.427 116.839C111.416 115.706 110.654 115.027 109.662 115.027C108.612 115.027 107.871 115.706 107.871 116.839ZM115.364 117.7V115.962H113.108C113.181 116.238 113.218 116.531 113.218 116.839C113.218 117.136 113.181 117.429 113.113 117.7H115.364ZM110.205 121.413V124.249H117.563V125.769H108.325V121.413H110.205ZM129.651 112.551V116.317H131.458V117.873H129.651V122.191H127.735V112.551H129.651ZM125.98 113.559C125.98 117.199 123.714 119.737 119.682 120.881L118.899 119.387C121.907 118.546 123.609 116.985 123.912 115.1H119.484V113.559H125.98ZM120.899 121.204H122.81V124.249H130.106V125.769H120.899V121.204ZM145.387 117.69V112.551H147.189V126.004H145.387V119.225H144.176V125.382H142.395V112.76H144.176V117.69H145.387ZM141.267 122.62H135.92V113.951H141.267V122.62ZM139.507 115.434H137.685V121.142H139.507V115.434ZM149.637 117.925L149.12 116.536C151.799 116.421 153.162 115.779 153.554 115.001H149.789V113.606H153.789V112.546H155.658V113.606H159.685V115.001H155.888C156.269 115.779 157.638 116.421 160.353 116.536L159.8 117.925C157.309 117.794 155.575 117.163 154.724 116.155C153.878 117.163 152.149 117.794 149.637 117.925ZM160.844 118.285V119.659H155.664V120.505H159.377V123.784H151.888V124.521H159.726V125.91H150.039V122.52H157.518V121.852H150.029V120.505H153.799V119.659H148.64V118.285H160.844ZM166.478 113.982H169.178V115.465H161.71V113.982H164.603V112.541H166.478V113.982ZM173.011 122.813H171.131V120.275H169.308V118.781H171.131V117.434H169.308V115.915H171.131V112.572H173.011V122.813ZM168.708 118.583C168.697 120.134 167.366 121.215 165.522 121.215C163.695 121.215 162.363 120.134 162.373 118.583C162.363 117.037 163.695 115.941 165.522 115.941C167.366 115.941 168.697 117.037 168.708 118.583ZM164.128 118.583C164.123 119.361 164.697 119.779 165.522 119.779C166.332 119.779 166.927 119.361 166.938 118.583C166.927 117.831 166.332 117.413 165.522 117.403C164.697 117.413 164.123 117.831 164.128 118.583ZM165.966 121.936V124.249H173.298V125.769H164.06V121.936H165.966ZM179.752 113.523H182.645V114.907H174.958V113.523H177.872V112.457H179.752V113.523ZM185.496 112.572V116.384H187.22V117.93H185.496V121.648H183.611V112.572H185.496ZM182.985 119.466L183.12 120.75C180.269 121.241 177.172 121.278 174.796 121.278L174.603 119.852C175.585 119.852 176.708 119.847 177.872 119.815V119.027C176.405 118.834 175.496 118.155 175.501 117.152C175.496 115.956 176.791 115.23 178.796 115.23C180.791 115.23 182.081 115.956 182.086 117.152C182.081 118.144 181.193 118.818 179.752 119.022V119.748C180.849 119.69 181.951 119.601 182.985 119.466ZM177.303 117.152C177.298 117.622 177.841 117.857 178.796 117.857C179.742 117.857 180.279 117.622 180.285 117.152C180.279 116.708 179.742 116.463 178.796 116.458C177.841 116.463 177.298 116.708 177.303 117.152ZM180.974 121.753C183.878 121.748 185.543 122.515 185.549 123.894C185.543 125.278 183.878 126.014 180.974 126.019C178.039 126.014 176.379 125.278 176.379 123.894C176.379 122.515 178.039 121.748 180.974 121.753ZM180.974 124.641C182.802 124.646 183.648 124.395 183.653 123.894C183.648 123.366 182.802 123.121 180.974 123.121C179.105 123.121 178.259 123.366 178.269 123.894C178.259 124.395 179.105 124.646 180.974 124.641ZM192.611 119.894L191.926 118.416C194.71 118.092 196.229 116.781 196.454 115.591H192.417V114.108H196.485V112.572H198.355V114.108H202.444V115.591H198.402C198.626 116.766 200.136 118.092 202.914 118.416L202.235 119.894C199.958 119.627 198.313 118.693 197.436 117.471C196.558 118.703 194.903 119.622 192.611 119.894ZM191.31 120.604H203.572V122.144H198.355V126.014H196.485V122.144H191.31V120.604ZM213.723 112.551H215.629V126.035H213.723V112.551ZM208.328 113.502C210.36 113.502 211.864 115.361 211.869 118.285C211.864 121.241 210.36 123.09 208.328 123.09C206.271 123.09 204.767 121.241 204.772 118.285C204.767 115.361 206.271 113.502 208.328 113.502ZM208.328 115.204C207.284 115.204 206.584 116.296 206.595 118.285C206.584 120.296 207.284 121.382 208.328 121.382C209.352 121.382 210.047 120.296 210.047 118.285C210.047 116.296 209.352 115.204 208.328 115.204Z" fill="black"/>
<path d="M278.279 317.178C280.38 317.178 282.394 318.012 283.88 319.498C285.366 320.984 286.2 322.998 286.2 325.099V373.755H270.357V325.099C270.357 322.998 271.192 320.984 272.677 319.498C274.163 318.012 276.178 317.178 278.279 317.178Z" fill="#25B695"/>
<path d="M295.022 368.535H300.423C301.808 368.535 303.136 369.085 304.115 370.064C305.094 371.044 305.644 372.372 305.644 373.756H289.801C289.801 372.372 290.351 371.044 291.33 370.064C292.309 369.085 293.637 368.535 295.022 368.535Z" fill="#EBEBEB"/>
<path d="M314.466 368.535H319.867C321.252 368.535 322.58 369.085 323.559 370.064C324.538 371.044 325.088 372.372 325.088 373.756H309.245C309.245 372.372 309.795 371.044 310.774 370.064C311.753 369.085 313.081 368.535 314.466 368.535Z" fill="#EBEBEB"/>
<path d="M233.062 392.281C231.737 392.281 230.809 391.562 230.815 390.568C230.809 389.786 231.373 389.145 232.09 389.028V388.995C231.466 388.858 231.045 388.297 231.045 387.632C231.045 386.692 231.896 386.002 233.062 386.002C234.217 386.002 235.068 386.692 235.071 387.632C235.068 388.3 234.641 388.858 234.029 388.995V389.028C234.739 389.145 235.303 389.786 235.309 390.568C235.303 391.562 234.372 392.281 233.062 392.281ZM233.062 388.682C233.701 388.682 234.166 388.288 234.166 387.712C234.166 387.145 233.716 386.76 233.062 386.76C232.394 386.76 231.952 387.145 231.952 387.712C231.952 388.288 232.412 388.682 233.062 388.682ZM233.062 391.523C233.856 391.523 234.363 391.111 234.363 390.505C234.363 389.879 233.814 389.419 233.062 389.419C232.304 389.419 231.752 389.879 231.761 390.505C231.752 391.108 232.257 391.523 233.062 391.523ZM240.022 389.428V388.924H241.496V385.358H242.302V389.792H241.496V389.428H240.022ZM238.449 387.757C237.303 387.757 236.554 387.333 236.554 386.626C236.554 385.934 237.303 385.489 238.449 385.489C239.574 385.489 240.329 385.934 240.335 386.626C240.329 387.333 239.574 387.757 238.449 387.757ZM238.449 386.029C237.751 386.029 237.306 386.265 237.312 386.626C237.306 386.987 237.751 387.22 238.449 387.22C239.136 387.22 239.58 386.987 239.58 386.626C239.58 386.265 239.136 386.029 238.449 386.029ZM238.801 389.81H238.011V388.706C237.33 388.727 236.674 388.727 236.083 388.724L235.99 388.148C237.456 388.151 239.306 388.136 240.935 387.966L240.983 388.479C240.266 388.578 239.526 388.637 238.801 388.676V389.81ZM237.942 391.678V392.26H242.528V392.842H237.154V391.141H241.505V390.607H237.124V390.046H242.302V391.678H237.942Z" fill="#020202"/>
<path d="M252.117 386.002C253.236 386.011 254.414 386.686 254.417 388.924C254.417 391.066 253.495 392.281 252.03 392.281C250.905 392.281 250.117 391.586 249.974 390.595H250.89C251.018 391.108 251.412 391.469 252.03 391.469C252.97 391.469 253.525 390.646 253.531 389.249H253.456C253.125 389.768 252.552 390.079 251.893 390.079C250.798 390.079 249.92 389.24 249.92 388.073C249.92 386.907 250.786 385.993 252.117 386.002ZM252.117 386.781C251.376 386.781 250.818 387.354 250.824 388.058C250.827 388.766 251.356 389.324 252.099 389.324C252.833 389.324 253.406 388.721 253.406 388.046C253.406 387.384 252.863 386.781 252.117 386.781ZM259.148 389.428V388.924H260.622V385.358H261.428V389.792H260.622V389.428H259.148ZM257.575 387.757C256.43 387.757 255.681 387.333 255.681 386.626C255.681 385.934 256.43 385.489 257.575 385.489C258.7 385.489 259.455 385.934 259.461 386.626C259.455 387.333 258.7 387.757 257.575 387.757ZM257.575 386.029C256.877 386.029 256.432 386.265 256.438 386.626C256.432 386.987 256.877 387.22 257.575 387.22C258.262 387.22 258.706 386.987 258.706 386.626C258.706 386.265 258.262 386.029 257.575 386.029ZM257.928 389.81H257.137V388.706C256.456 388.727 255.8 388.727 255.209 388.724L255.117 388.148C256.582 388.151 258.432 388.136 260.061 387.966L260.109 388.479C259.393 388.578 258.653 388.637 257.928 388.676V389.81ZM257.068 391.678V392.26H261.655V392.842H256.28V391.141H260.631V390.607H256.25V390.046H261.428V391.678H257.068Z" fill="#020202"/>
<path d="M98.392 386.086H99.2992V392.197H98.3681V387.017H98.3323L96.8731 387.969V387.083L98.392 386.086ZM104.605 389.428V388.924H106.079V385.358H106.885V389.792H106.079V389.428H104.605ZM103.033 387.757C101.887 387.757 101.138 387.333 101.138 386.626C101.138 385.934 101.887 385.489 103.033 385.489C104.158 385.489 104.912 385.934 104.918 386.626C104.912 387.333 104.158 387.757 103.033 387.757ZM103.033 386.029C102.334 386.029 101.89 386.265 101.896 386.626C101.89 386.987 102.334 387.22 103.033 387.22C103.719 387.22 104.163 386.987 104.163 386.626C104.163 386.265 103.719 386.029 103.033 386.029ZM103.385 389.81H102.594V388.706C101.914 388.727 101.257 388.727 100.666 388.724L100.574 388.148C102.039 388.151 103.889 388.136 105.518 387.966L105.566 388.479C104.85 388.578 104.11 388.637 103.385 388.676V389.81ZM102.525 391.678V392.26H107.112V392.842H101.737V391.141H106.088V390.607H101.708V390.046H106.885V391.678H102.525Z" fill="black"/>
<path d="M119.81 392.197H115.704L115.701 391.523L117.82 389.383C118.491 388.688 118.825 388.303 118.828 387.766C118.825 387.163 118.336 386.781 117.695 386.781C117.017 386.781 116.584 387.208 116.584 387.861H115.701C115.698 386.742 116.549 386.002 117.712 386.002C118.891 386.002 119.706 386.748 119.712 387.739C119.706 388.422 119.384 388.969 118.238 390.094L116.996 391.356V391.401H119.81V392.197ZM124.595 389.428V388.924H126.069V385.358H126.874V389.792H126.069V389.428H124.595ZM123.022 387.757C121.876 387.757 121.127 387.333 121.127 386.626C121.127 385.934 121.876 385.489 123.022 385.489C124.147 385.489 124.902 385.934 124.908 386.626C124.902 387.333 124.147 387.757 123.022 387.757ZM123.022 386.029C122.324 386.029 121.879 386.265 121.885 386.626C121.879 386.987 122.324 387.22 123.022 387.22C123.708 387.22 124.153 386.987 124.153 386.626C124.153 386.265 123.708 386.029 123.022 386.029ZM123.374 389.81H122.583V388.706C121.903 388.727 121.247 388.727 120.656 388.724L120.563 388.148C122.028 388.151 123.878 388.136 125.508 387.966L125.556 388.479C124.839 388.578 124.099 388.637 123.374 388.676V389.81ZM122.515 391.678V392.26H127.101V392.842H121.727V391.141H126.078V390.607H121.697V390.046H126.874V391.678H122.515Z" fill="black"/>
<path d="M136.595 392.281C135.332 392.281 134.431 391.6 134.398 390.601H135.338C135.371 391.138 135.905 391.481 136.586 391.481C137.326 391.481 137.863 391.078 137.86 390.487C137.863 389.882 137.362 389.449 136.484 389.449H135.965V388.691H136.484C137.183 388.691 137.669 388.303 137.669 387.718C137.669 387.157 137.251 386.781 136.607 386.781C135.992 386.781 135.446 387.121 135.422 387.673H134.527C134.557 386.68 135.473 386.002 136.616 386.002C137.815 386.002 138.573 386.763 138.567 387.67C138.573 388.36 138.143 388.861 137.487 389.019V389.067C138.317 389.183 138.803 389.744 138.797 390.52C138.803 391.538 137.863 392.281 136.595 392.281ZM143.572 389.428V388.924H145.046V385.358H145.852V389.792H145.046V389.428H143.572ZM141.999 387.757C140.853 387.757 140.104 387.333 140.104 386.626C140.104 385.934 140.853 385.489 141.999 385.489C143.124 385.489 143.879 385.934 143.885 386.626C143.879 387.333 143.124 387.757 141.999 387.757ZM141.999 386.029C141.301 386.029 140.856 386.265 140.862 386.626C140.856 386.987 141.301 387.22 141.999 387.22C142.686 387.22 143.13 386.987 143.13 386.626C143.13 386.265 142.686 386.029 141.999 386.029ZM142.351 389.81H141.561V388.706C140.88 388.727 140.224 388.727 139.633 388.724L139.54 388.148C141.006 388.151 142.856 388.136 144.485 387.966L144.533 388.479C143.817 388.578 143.077 388.637 142.351 388.676V389.81ZM141.492 391.678V392.26H146.079V392.842H140.704V391.141H145.055V390.607H140.674V390.046H145.852V391.678H141.492Z" fill="black"/>
<path d="M157.951 390.219H158.78V391.004H157.951V392.197H157.064V391.004H154.101V390.255L156.799 386.086H157.951V390.219ZM157.005 387.19L155.074 390.171V390.219H157.07V387.19H157.005ZM163.469 389.428V388.924H164.943V385.358H165.749V389.792H164.943V389.428H163.469ZM161.896 387.757C160.751 387.757 160.002 387.333 160.002 386.626C160.002 385.934 160.751 385.489 161.896 385.489C163.021 385.489 163.776 385.934 163.782 386.626C163.776 387.333 163.021 387.757 161.896 387.757ZM161.896 386.029C161.198 386.029 160.753 386.265 160.759 386.626C160.753 386.987 161.198 387.22 161.896 387.22C162.583 387.22 163.027 386.987 163.027 386.626C163.027 386.265 162.583 386.029 161.896 386.029ZM162.249 389.81H161.458V388.706C160.777 388.727 160.121 388.727 159.53 388.724L159.438 388.148C160.903 388.151 162.753 388.136 164.382 387.966L164.43 388.479C163.714 388.578 162.974 388.637 162.249 388.676V389.81ZM161.389 391.678V392.26H165.976V392.842H160.601V391.141H164.952V390.607H160.571V390.046H165.749V391.678H161.389Z" fill="black"/>
<path d="M175.037 392.281C173.876 392.281 173.007 391.577 172.969 390.601H173.873C173.917 391.123 174.416 391.502 175.037 391.502C175.777 391.502 176.308 390.968 176.308 390.24C176.308 389.497 175.759 388.957 174.995 388.951C174.499 388.948 174.126 389.112 173.914 389.488H173.04L173.44 386.086H176.902V386.883H174.21L174.001 388.59H174.061C174.317 388.351 174.744 388.184 175.21 388.184C176.361 388.184 177.212 389.034 177.209 390.219C177.212 391.418 176.305 392.281 175.037 392.281ZM181.948 389.428V388.924H183.422V385.358H184.228V389.792H183.422V389.428H181.948ZM180.376 387.757C179.23 387.757 178.481 387.333 178.481 386.626C178.481 385.934 179.23 385.489 180.376 385.489C181.501 385.489 182.256 385.934 182.262 386.626C182.256 387.333 181.501 387.757 180.376 387.757ZM180.376 386.029C179.677 386.029 179.233 386.265 179.239 386.626C179.233 386.987 179.677 387.22 180.376 387.22C181.062 387.22 181.507 386.987 181.507 386.626C181.507 386.265 181.062 386.029 180.376 386.029ZM180.728 389.81H179.937V388.706C179.257 388.727 178.6 388.727 178.009 388.724L177.917 388.148C179.382 388.151 181.232 388.136 182.861 387.966L182.909 388.479C182.193 388.578 181.453 388.637 180.728 388.676V389.81ZM179.868 391.678V392.26H184.455V392.842H179.081V391.141H183.431V390.607H179.051V390.046H184.228V391.678H179.868Z" fill="black"/>
<path d="M193.888 392.281C192.76 392.272 191.579 391.603 191.582 389.345C191.582 387.217 192.504 386.002 193.966 386.002C195.094 386.002 195.876 386.704 196.019 387.673H195.103C194.978 387.175 194.584 386.814 193.966 386.814C193.023 386.814 192.474 387.638 192.474 389.019H192.543C192.871 388.497 193.447 388.193 194.112 388.193C195.201 388.193 196.079 389.028 196.079 390.198C196.079 391.38 195.204 392.29 193.888 392.281ZM193.885 391.502C194.623 391.502 195.175 390.929 195.178 390.213C195.175 389.515 194.64 388.945 193.903 388.945C193.16 388.945 192.593 389.541 192.587 390.225C192.587 390.899 193.131 391.502 193.885 391.502ZM200.815 389.428V388.924H202.29V385.358H203.095V389.792H202.29V389.428H200.815ZM199.243 387.757C198.097 387.757 197.348 387.333 197.348 386.626C197.348 385.934 198.097 385.489 199.243 385.489C200.368 385.489 201.123 385.934 201.129 386.626C201.123 387.333 200.368 387.757 199.243 387.757ZM199.243 386.029C198.545 386.029 198.1 386.265 198.106 386.626C198.1 386.987 198.545 387.22 199.243 387.22C199.929 387.22 200.374 386.987 200.374 386.626C200.374 386.265 199.929 386.029 199.243 386.029ZM199.595 389.81H198.804V388.706C198.124 388.727 197.467 388.727 196.877 388.724L196.784 388.148C198.249 388.151 200.099 388.136 201.729 387.966L201.776 388.479C201.06 388.578 200.32 388.637 199.595 388.676V389.81ZM198.736 391.678V392.26H203.322V392.842H197.948V391.141H202.299V390.607H197.918V390.046H203.095V391.678H198.736Z" fill="black"/>
<path d="M211.943 392.197H210.973L213.701 386.927V386.883H210.549V386.086H214.664V386.913L211.943 392.197ZM219.351 389.428V388.924H220.825V385.358H221.631V389.792H220.825V389.428H219.351ZM217.778 387.757C216.632 387.757 215.883 387.333 215.883 386.626C215.883 385.934 216.632 385.489 217.778 385.489C218.903 385.489 219.658 385.934 219.664 386.626C219.658 387.333 218.903 387.757 217.778 387.757ZM217.778 386.029C217.08 386.029 216.635 386.265 216.641 386.626C216.635 386.987 217.08 387.22 217.778 387.22C218.465 387.22 218.909 386.987 218.909 386.626C218.909 386.265 218.465 386.029 217.778 386.029ZM218.13 389.81H217.34V388.706C216.659 388.727 216.003 388.727 215.412 388.724L215.319 388.148C216.785 388.151 218.635 388.136 220.264 387.966L220.312 388.479C219.596 388.578 218.856 388.637 218.13 388.676V389.81ZM217.271 391.678V392.26H221.858V392.842H216.483V391.141H220.834V390.607H216.453V390.046H221.631V391.678H217.271Z" fill="black"/>
<path d="M239.39 317.178C241.491 317.178 243.506 318.012 244.992 319.498C246.477 320.984 247.312 322.998 247.312 325.099V373.756H231.469V325.099C231.469 322.998 232.303 320.984 233.789 319.498C235.275 318.012 237.289 317.178 239.39 317.178Z" fill="#25B695"/>
<path d="M258.835 317.178C260.936 317.178 262.951 318.012 264.436 319.498C265.922 320.984 266.756 322.998 266.756 325.099V373.755H250.913V325.099C250.913 322.998 251.748 320.984 253.233 319.498C254.719 318.012 256.734 317.178 258.835 317.178Z" fill="#25B695"/>
<path d="M102.922 344.953C105.023 344.953 107.038 345.788 108.523 347.273C110.009 348.759 110.843 350.774 110.843 352.875V373.756H95V352.875C95 350.774 95.8346 348.759 97.3202 347.273C98.8058 345.788 100.821 344.953 102.922 344.953Z" fill="#25B695"/>
<path d="M122.366 344.953C124.467 344.953 126.482 345.788 127.967 347.273C129.453 348.759 130.288 350.774 130.288 352.875V373.756H114.444V352.875C114.444 350.774 115.279 348.759 116.765 347.273C118.25 345.788 120.265 344.953 122.366 344.953Z" fill="#25B695"/>
<path d="M180.698 289.363C182.799 289.363 184.814 290.198 186.3 291.683C187.785 293.169 188.62 295.184 188.62 297.285V373.756H172.776V297.285C172.776 295.184 173.611 293.169 175.097 291.683C176.582 290.198 178.597 289.363 180.698 289.363Z" fill="#25B695"/>
<path d="M141.81 305.141C143.911 305.141 145.926 305.975 147.411 307.461C148.897 308.946 149.732 310.961 149.732 313.062V373.755H133.888V313.062C133.888 310.961 134.723 308.946 136.208 307.461C137.694 305.975 139.709 305.141 141.81 305.141Z" fill="#25B695"/>
<path d="M200.142 273.834C202.243 273.834 204.258 274.669 205.744 276.154C207.229 277.64 208.064 279.655 208.064 281.756V373.755H192.221V281.756C192.221 279.655 193.055 277.64 194.541 276.154C196.027 274.669 198.041 273.834 200.142 273.834Z" fill="#25B695"/>
<path d="M161.254 305.141C163.355 305.141 165.37 305.975 166.855 307.461C168.341 308.946 169.175 310.961 169.175 313.062V373.755H153.332V313.062C153.332 310.961 154.167 308.946 155.652 307.461C157.138 305.975 159.153 305.141 161.254 305.141Z" fill="#25B695"/>
<path d="M219.946 305.141C222.047 305.141 224.062 305.975 225.548 307.461C227.033 308.946 227.868 310.961 227.868 313.062V373.755H212.024V313.062C212.024 310.961 212.859 308.946 214.345 307.461C215.83 305.975 217.845 305.141 219.946 305.141Z" fill="#25B695"/>
<path d="M310.836 386.086H311.743V392.197H310.812V387.017H310.777L309.317 387.969V387.083L310.836 386.086ZM317.405 392.197H313.299L313.296 391.523L315.414 389.383C316.086 388.688 316.42 388.303 316.423 387.766C316.42 387.163 315.93 386.781 315.289 386.781C314.611 386.781 314.179 387.208 314.179 387.861H313.296C313.293 386.742 314.143 386.002 315.307 386.002C316.485 386.002 317.3 386.748 317.306 387.739C317.3 388.422 316.978 388.969 315.832 390.094L314.591 391.356V391.401H317.405V392.197ZM322.189 389.428V388.924H323.663V385.358H324.469V389.792H323.663V389.428H322.189ZM320.616 387.757C319.471 387.757 318.722 387.333 318.722 386.626C318.722 385.934 319.471 385.489 320.616 385.489C321.741 385.489 322.496 385.934 322.502 386.626C322.496 387.333 321.741 387.757 320.616 387.757ZM320.616 386.029C319.918 386.029 319.473 386.265 319.479 386.626C319.473 386.987 319.918 387.22 320.616 387.22C321.303 387.22 321.747 386.987 321.747 386.626C321.747 386.265 321.303 386.029 320.616 386.029ZM320.969 389.81H320.178V388.706C319.497 388.727 318.841 388.727 318.25 388.724L318.158 388.148C319.623 388.151 321.473 388.136 323.102 387.966L323.15 388.479C322.434 388.578 321.694 388.637 320.969 388.676V389.81ZM320.109 391.678V392.26H324.696V392.842H319.321V391.141H323.672V390.607H319.291V390.046H324.469V391.678H320.109Z" fill="#020202"/>
<path d="M270.868 386.086H271.775V392.197H270.844V387.017H270.808L269.349 387.969V387.083L270.868 386.086ZM275.455 392.296C274.043 392.296 273.211 391.147 273.214 389.145C273.214 387.154 274.052 386.002 275.455 386.002C276.86 386.002 277.699 387.157 277.699 389.145C277.699 391.147 276.869 392.296 275.455 392.296ZM275.455 391.496C276.281 391.496 276.774 390.669 276.774 389.145C276.774 387.623 276.276 386.793 275.455 386.793C274.637 386.793 274.139 387.623 274.139 389.145C274.136 390.669 274.631 391.496 275.455 391.496ZM282.415 389.428V388.924H283.889V385.358H284.695V389.792H283.889V389.428H282.415ZM280.842 387.757C279.696 387.757 278.947 387.333 278.947 386.626C278.947 385.934 279.696 385.489 280.842 385.489C281.967 385.489 282.722 385.934 282.728 386.626C282.722 387.333 281.967 387.757 280.842 387.757ZM280.842 386.029C280.144 386.029 279.699 386.265 279.705 386.626C279.699 386.987 280.144 387.22 280.842 387.22C281.529 387.22 281.973 386.987 281.973 386.626C281.973 386.265 281.529 386.029 280.842 386.029ZM281.194 389.81H280.404V388.706C279.723 388.727 279.067 388.727 278.476 388.724L278.383 388.148C279.849 388.151 281.699 388.136 283.328 387.966L283.376 388.479C282.66 388.578 281.919 388.637 281.194 388.676V389.81ZM280.335 391.678V392.26H284.921V392.842H279.547V391.141H283.898V390.607H279.517V390.046H284.695V391.678H280.335Z" fill="#020202"/>
<path d="M291.752 386.086H292.66V392.197H291.728V387.017H291.693L290.233 387.969V387.083L291.752 386.086ZM295.626 386.086H296.533V392.197H295.602V387.017H295.566L294.107 387.969V387.083L295.626 386.086ZM301.839 389.428V388.924H303.313V385.358H304.119V389.792H303.313V389.428H301.839ZM300.267 387.757C299.121 387.757 298.372 387.333 298.372 386.626C298.372 385.934 299.121 385.489 300.267 385.489C301.391 385.489 302.146 385.934 302.152 386.626C302.146 387.333 301.391 387.757 300.267 387.757ZM300.267 386.029C299.568 386.029 299.124 386.265 299.13 386.626C299.124 386.987 299.568 387.22 300.267 387.22C300.953 387.22 301.397 386.987 301.397 386.626C301.397 386.265 300.953 386.029 300.267 386.029ZM300.619 389.81H299.828V388.706C299.147 388.727 298.491 388.727 297.9 388.724L297.808 388.148C299.273 388.151 301.123 388.136 302.752 387.966L302.8 388.479C302.084 388.578 301.344 388.637 300.619 388.676V389.81ZM299.759 391.678V392.26H304.346V392.842H298.971V391.141H303.322V390.607H298.942V390.046H304.119V391.678H299.759Z" fill="#020202"/>
<path d="M314.592 193.871H315.961V194.718H314.592V197.139H313.588V191.443H314.592V193.871ZM309.974 194.726C309.56 195.744 308.739 196.546 307.628 196.938L307.09 196.162C308.564 195.658 309.455 194.435 309.463 193.137V192.879H307.381V192.07H312.503V192.879H310.462V193.14C310.462 194.349 311.298 195.498 312.745 195.983L312.234 196.759C311.164 196.389 310.384 195.651 309.974 194.726ZM313.588 198.418H308.344V197.609H314.592V200.895H313.588V198.418ZM324.379 198.433H323.379V195.222H320.779V194.42H323.379V193.428H320.779V192.629H323.379V191.451H324.379V198.433ZM321.85 195.919L321.954 196.744C320.455 197.023 319.175 197.079 317.78 197.083H317.053V192.103H318.049V196.248C319.302 196.24 320.5 196.165 321.85 195.919ZM319.231 197.825V199.881H324.625V200.701H318.221V197.825H319.231Z" fill="#85888D"/>
<path d="M299.613 200.445C301.204 200.445 302.494 199.155 302.494 197.564C302.494 195.973 301.204 194.684 299.613 194.684C298.022 194.684 296.732 195.973 296.732 197.564C296.732 199.155 298.022 200.445 299.613 200.445Z" fill="#B1B1B1"/>
<path d="M102.922 331.491L112.284 313.082L128.127 324.604L141.09 308.041H160.534L179.258 313.082L201.583 284.996L222.467 313.082L238.31 318.123L260.635 308.041L282.24 313.082L298.803 308.041L316.087 324.604" stroke="#7DA48D" stroke-width="1.4403"/>
<path d="M238.4 232.762H245.602" stroke="#17BF98" stroke-width="1.80038"/>
<path d="M239.12 220.246H246.322" stroke="#B1B1B1" stroke-width="1.80038"/>
<path d="M273.775 194.804V195.461H277.614V196.266H268.997V195.461H272.791V194.8C270.97 194.711 269.918 194.148 269.918 193.178C269.918 192.13 271.168 191.548 273.298 191.548C275.428 191.548 276.67 192.13 276.67 193.178C276.67 194.151 275.611 194.714 273.775 194.804ZM270.967 193.178C270.959 193.76 271.795 194.058 273.298 194.062C274.812 194.058 275.644 193.76 275.644 193.178C275.644 192.622 274.812 192.305 273.298 192.301C271.795 192.305 270.959 192.622 270.967 193.178ZM276.521 199.191H271.023V200.03H276.793V200.806H270.042V198.471H275.536V197.736H270.023V196.971H276.521V199.191ZM285.472 195.382V191.443H286.427V200.895H285.472V196.199H284.383V200.451H283.44V191.656H284.383V195.382H285.472ZM280.168 191.723H281.16V193.01H282.999V193.819H278.311V193.01H280.168V191.723ZM280.664 194.386C281.858 194.386 282.712 195.289 282.72 196.561C282.712 197.851 281.858 198.758 280.664 198.758C279.474 198.758 278.609 197.851 278.617 196.561C278.609 195.289 279.474 194.386 280.664 194.386ZM280.664 197.896C281.343 197.904 281.832 197.363 281.832 196.561C281.832 195.774 281.343 195.226 280.664 195.222C279.982 195.226 279.497 195.774 279.497 196.561C279.497 197.363 279.982 197.904 280.664 197.896Z" fill="#85888D"/>
<path d="M255.808 230.497V231.066H259.135V231.764H251.667V231.066H254.955V230.494C253.377 230.416 252.466 229.928 252.466 229.087C252.466 228.179 253.549 227.675 255.394 227.675C257.24 227.675 258.317 228.179 258.317 229.087C258.317 229.931 257.399 230.419 255.808 230.497ZM253.374 229.087C253.368 229.592 254.092 229.85 255.394 229.854C256.707 229.85 257.428 229.592 257.428 229.087C257.428 228.606 256.707 228.331 255.394 228.328C254.092 228.331 253.368 228.606 253.374 229.087ZM258.188 234.298H253.423V235.026H258.424V235.698H252.572V233.675H257.334V233.038H252.556V232.375H258.188V234.298ZM265.946 230.998V227.584H266.773V235.776H265.946V231.706H265.002V235.391H264.184V227.768H265.002V230.998H265.946ZM261.349 227.827H262.209V228.942H263.802V229.643H259.739V228.942H261.349V227.827ZM261.779 230.135C262.813 230.135 263.554 230.917 263.56 232.019C263.554 233.138 262.813 233.924 261.779 233.924C260.748 233.924 259.998 233.138 260.004 232.019C259.998 230.917 260.748 230.135 261.779 230.135ZM261.779 233.177C262.367 233.183 262.791 232.714 262.791 232.019C262.791 231.337 262.367 230.862 261.779 230.859C261.187 230.862 260.767 231.337 260.767 232.019C260.767 232.714 261.187 233.183 261.779 233.177ZM276.963 232.624H276.096V231.202H274.839V230.497H276.096V229.708H274.839V229.01H276.096V227.584H276.963V232.624ZM274.942 231.263L274.981 231.916C273.403 232.165 271.564 232.194 270.248 232.194L270.145 231.473C270.452 231.473 270.785 231.47 271.137 231.467V228.884H270.368V228.176H274.719V228.884H273.94V231.36C274.283 231.334 274.622 231.302 274.942 231.263ZM273.106 228.884H271.981V231.45C272.35 231.444 272.728 231.428 273.106 231.412V228.884ZM274.218 232.779C275.948 232.779 276.985 233.322 276.988 234.276C276.985 235.213 275.948 235.763 274.218 235.763C272.489 235.763 271.444 235.213 271.451 234.276C271.444 233.322 272.489 232.779 274.218 232.779ZM274.218 235.087C275.421 235.087 276.125 234.796 276.129 234.276C276.125 233.749 275.421 233.452 274.218 233.452C273.009 233.452 272.304 233.749 272.311 234.276C272.304 234.796 273.009 235.087 274.218 235.087ZM284.588 231.066H285.723V231.774H283.699V233.691H282.856V231.774H281.559V233.691H280.712V231.774H278.226V231.066H283.719C283.906 230.083 283.909 229.349 283.909 228.706H279.154V228.014H284.773V228.661C284.773 229.314 284.773 230.073 284.588 231.066ZM279.106 233.009H279.972V234.897H284.989V235.608H279.106V233.009ZM287.252 231.447C286.896 231.447 286.599 231.156 286.605 230.801C286.599 230.445 286.896 230.154 287.252 230.154C287.604 230.154 287.898 230.445 287.901 230.801C287.898 231.156 287.604 231.447 287.252 231.447ZM287.248 235.061C286.89 235.061 286.592 234.77 286.599 234.415C286.592 234.059 286.89 233.768 287.248 233.768C287.598 233.768 287.895 234.059 287.895 234.415C287.895 234.77 287.598 235.061 287.248 235.061Z" fill="#85888D"/>
<path d="M258.104 215.653H259.29V216.387H258.104V218.485H257.234V213.549H258.104V215.653ZM254.101 216.394C253.743 217.276 253.031 217.971 252.068 218.311L251.603 217.638C252.879 217.202 253.652 216.142 253.659 215.017V214.794H251.855V214.092H256.293V214.794H254.525V215.02C254.525 216.067 255.249 217.063 256.503 217.483L256.06 218.156C255.133 217.836 254.457 217.195 254.101 216.394ZM257.234 219.594H252.689V218.893H258.104V221.741H257.234V219.594ZM266.586 219.607H265.719V216.824H263.466V216.129H265.719V215.269H263.466V214.577H265.719V213.555H266.586V219.607ZM264.394 217.428L264.485 218.143C263.185 218.385 262.076 218.434 260.867 218.437H260.237V214.121H261.1V217.713C262.186 217.706 263.224 217.642 264.394 217.428ZM262.125 219.08V220.861H266.799V221.573H261.249V219.08H262.125ZM276.963 218.589H276.096V217.166H274.839V216.462H276.096V215.673H274.839V214.975H276.096V213.549H276.963V218.589ZM274.942 217.228L274.981 217.881C273.403 218.13 271.564 218.159 270.248 218.159L270.145 217.438C270.452 217.438 270.785 217.435 271.137 217.431V214.849H270.368V214.141H274.719V214.849H273.94V217.325C274.283 217.299 274.622 217.267 274.942 217.228ZM273.106 214.849H271.981V217.415C272.35 217.409 272.728 217.393 273.106 217.377V214.849ZM274.218 218.744C275.948 218.744 276.985 219.287 276.988 220.241C276.985 221.178 275.948 221.728 274.218 221.728C272.489 221.728 271.444 221.178 271.451 220.241C271.444 219.287 272.489 218.744 274.218 218.744ZM274.218 221.052C275.421 221.052 276.125 220.761 276.129 220.241C276.125 219.714 275.421 219.416 274.218 219.416C273.009 219.416 272.304 219.714 272.311 220.241C272.304 220.761 273.009 221.052 274.218 221.052ZM284.588 217.031H285.723V217.739H283.699V219.656H282.856V217.739H281.559V219.656H280.712V217.739H278.226V217.031H283.719C283.906 216.048 283.909 215.314 283.909 214.671H279.154V213.979H284.773V214.625C284.773 215.278 284.773 216.038 284.588 217.031ZM279.106 218.973H279.972V220.861H284.989V221.573H279.106V218.973ZM287.252 217.412C286.896 217.412 286.599 217.121 286.605 216.766C286.599 216.41 286.896 216.119 287.252 216.119C287.604 216.119 287.898 216.41 287.901 216.766C287.898 217.121 287.604 217.412 287.252 217.412ZM287.248 221.026C286.89 221.026 286.592 220.735 286.599 220.38C286.592 220.024 286.89 219.733 287.248 219.733C287.598 219.733 287.895 220.024 287.895 220.38C287.895 220.735 287.598 221.026 287.248 221.026Z" fill="#85888D"/>
<path d="M297.085 235H292.637L292.634 234.269L294.929 231.952C295.656 231.198 296.018 230.781 296.022 230.199C296.018 229.546 295.488 229.133 294.793 229.133C294.059 229.133 293.591 229.595 293.591 230.303H292.634C292.63 229.091 293.552 228.289 294.813 228.289C296.089 228.289 296.972 229.097 296.978 230.17C296.972 230.911 296.623 231.502 295.381 232.721L294.037 234.088V234.137H297.085V235ZM300.597 235.091C299.375 235.081 298.095 234.357 298.098 231.91C298.098 229.605 299.097 228.289 300.681 228.289C301.903 228.289 302.75 229.049 302.905 230.099H301.913C301.777 229.559 301.35 229.168 300.681 229.168C299.659 229.168 299.065 230.06 299.065 231.557H299.139C299.495 230.991 300.118 230.662 300.839 230.662C302.019 230.662 302.97 231.567 302.97 232.834C302.97 234.114 302.023 235.1 300.597 235.091ZM300.594 234.247C301.392 234.247 301.99 233.626 301.993 232.85C301.99 232.094 301.412 231.476 300.613 231.476C299.808 231.476 299.194 232.123 299.187 232.863C299.187 233.594 299.776 234.247 300.594 234.247ZM306.317 228.289C307.529 228.299 308.806 229.029 308.809 231.454C308.809 233.775 307.81 235.091 306.223 235.091C305.004 235.091 304.151 234.337 303.996 233.264H304.988C305.127 233.82 305.554 234.211 306.223 234.211C307.241 234.211 307.843 233.319 307.849 231.806H307.768C307.409 232.369 306.789 232.705 306.074 232.705C304.888 232.705 303.937 231.796 303.937 230.532C303.937 229.268 304.875 228.279 306.317 228.289ZM306.317 229.133C305.515 229.133 304.91 229.753 304.917 230.516C304.92 231.282 305.492 231.887 306.297 231.887C307.093 231.887 307.713 231.234 307.713 230.503C307.713 229.786 307.125 229.133 306.317 229.133ZM316.026 227.581V230.031H317.212V230.755H316.026V233.578H315.156V227.581H316.026ZM309.903 228.305H313.74V232.133H309.903V228.305ZM310.753 231.441H312.89V229.007H310.753V231.441ZM310.834 233.002H311.697V234.897H316.375V235.608H310.834V233.002ZM321.974 233.018V232.404H323.622V227.591H324.495V233.804H323.622V233.018H321.974ZM320.322 230.775C319.106 230.775 318.279 230.222 318.279 229.346C318.279 228.483 319.106 227.904 320.322 227.904C321.518 227.904 322.349 228.483 322.355 229.346C322.349 230.222 321.518 230.775 320.322 230.775ZM320.322 228.551C319.594 228.547 319.1 228.861 319.103 229.346C319.1 229.834 319.594 230.138 320.322 230.138C321.02 230.138 321.521 229.834 321.527 229.346C321.521 228.861 321.02 228.547 320.322 228.551ZM320.839 233.549H319.972V231.997C319.177 232.026 318.414 232.032 317.748 232.029L317.638 231.331C319.155 231.321 321.198 231.305 322.943 231.085L323.002 231.712C322.297 231.829 321.563 231.903 320.839 231.948V233.549ZM319.64 233.196V234.897H324.689V235.608H318.773V233.196H319.64Z" fill="#85888D"/>
<path d="M296.666 221.055C295.299 221.055 294.323 220.318 294.287 219.235H295.305C295.341 219.817 295.92 220.189 296.657 220.189C297.458 220.189 298.04 219.753 298.037 219.112C298.04 218.456 297.497 217.988 296.547 217.988H295.984V217.166H296.547C297.303 217.166 297.83 216.746 297.83 216.113C297.83 215.505 297.378 215.097 296.679 215.097C296.013 215.097 295.422 215.466 295.396 216.064H294.426C294.459 214.988 295.451 214.254 296.689 214.254C297.989 214.254 298.81 215.078 298.803 216.061C298.81 216.808 298.344 217.351 297.633 217.522V217.574C298.532 217.7 299.059 218.308 299.052 219.148C299.059 220.25 298.04 221.055 296.666 221.055ZM301.691 214.344H302.673V220.965H301.665V215.353H301.626L300.045 216.384V215.424L301.691 214.344ZM308.806 220.965H304.358L304.355 220.234L306.65 217.916C307.377 217.163 307.739 216.746 307.743 216.164C307.739 215.511 307.209 215.097 306.514 215.097C305.78 215.097 305.312 215.56 305.312 216.268H304.355C304.352 215.055 305.273 214.254 306.534 214.254C307.811 214.254 308.693 215.062 308.7 216.135C308.693 216.875 308.344 217.467 307.103 218.686L305.758 220.053V220.102H308.806V220.965ZM316.081 213.546V215.996H317.267V216.72H316.081V219.542H315.211V213.546H316.081ZM309.958 214.27H313.795V218.097H309.958V214.27ZM310.808 217.406H312.945V214.971H310.808V217.406ZM310.889 218.967H311.752V220.861H316.43V221.573H310.889V218.967ZM322.029 218.983V218.369H323.677V213.555H324.55V219.769H323.677V218.983H322.029ZM320.377 216.74C319.161 216.74 318.334 216.187 318.334 215.311C318.334 214.448 319.161 213.869 320.377 213.869C321.573 213.869 322.404 214.448 322.41 215.311C322.404 216.187 321.573 216.74 320.377 216.74ZM320.377 214.516C319.65 214.512 319.155 214.826 319.158 215.311C319.155 215.799 319.65 216.103 320.377 216.103C321.075 216.103 321.576 215.799 321.583 215.311C321.576 214.826 321.075 214.512 320.377 214.516ZM320.894 219.513H320.028V217.962C319.232 217.991 318.47 217.997 317.804 217.994L317.694 217.296C319.21 217.286 321.253 217.27 322.999 217.05L323.057 217.677C322.352 217.794 321.618 217.868 320.894 217.913V219.513ZM319.695 219.161V220.861H324.744V221.573H318.828V219.161H319.695Z" fill="#85888D"/>
<path d="M261.445 200.445C263.036 200.445 264.326 199.155 264.326 197.564C264.326 195.973 263.036 194.684 261.445 194.684C259.854 194.684 258.564 195.973 258.564 197.564C258.564 199.155 259.854 200.445 261.445 200.445Z" fill="#12997A"/>
<path d="M96.5303 351.354H326.979" stroke="#B1B1B1" stroke-width="1.08023" stroke-dasharray="3.6 3.6"/>
<path d="M96.5303 335.227H326.979" stroke="#17BF98" stroke-width="1.08023" stroke-dasharray="3.6 3.6"/>
<path d="M115.248 150.134V138.161H116.523V150.134H115.248ZM111.01 140.415V141.696C111.01 143.694 112.323 145.764 114.166 146.548L113.471 147.55C112.059 146.926 110.944 145.603 110.386 144.015C109.829 145.716 108.704 147.172 107.315 147.847L106.573 146.846C108.378 146.005 109.715 143.751 109.725 141.696V140.415H106.994V139.366H113.741V140.415H111.01ZM127.839 138.171V141.662H129.573V142.74H127.839V146.803H126.568V138.171H127.839ZM125.429 143.132L125.576 144.181C123.568 144.592 121.734 144.7 119.953 144.7H118.975V139.012H120.251V143.633C121.871 143.628 123.577 143.519 125.429 143.132ZM120.279 145.971H121.55V148.849H128.255V149.888H120.279V145.971ZM139.3 143.151V138.161H140.51V150.134H139.3V144.185H137.921V149.572H136.725V138.431H137.921V143.151H139.3ZM132.582 138.516H133.839V140.146H136.168V141.171H130.229V140.146H132.582V138.516ZM133.21 141.889C134.722 141.889 135.804 143.033 135.814 144.644C135.804 146.279 134.722 147.427 133.21 147.427C131.703 147.427 130.607 146.279 130.616 144.644C130.607 143.033 131.703 141.889 133.21 141.889ZM133.21 146.335C134.07 146.345 134.689 145.66 134.689 144.644C134.689 143.647 134.07 142.952 133.21 142.948C132.346 142.952 131.731 143.647 131.731 144.644C131.731 145.66 132.346 146.345 133.21 146.335ZM154.83 138.161V140.855H156.564V141.899H154.83V144.521H153.559V138.161H154.83ZM151.599 138.998C151.589 142.045 149.524 143.987 145.962 144.752L145.428 143.727C148.447 143.118 150.016 141.71 150.186 140.014H145.971V138.998H151.599ZM154.745 147.951H148.409V149.019H155.152V149.983H147.143V145.036H154.878V145.986H148.409V147.016H154.745V147.951ZM162.697 143.382C160.093 143.382 158.416 142.47 158.416 140.958C158.416 139.456 160.093 138.554 162.697 138.563C165.29 138.554 166.968 139.456 166.968 140.958C166.968 142.47 165.29 143.382 162.697 143.382ZM162.697 139.579C160.863 139.579 159.725 140.099 159.734 140.958C159.725 141.842 160.863 142.348 162.697 142.348C164.53 142.348 165.668 141.842 165.668 140.958C165.668 140.099 164.53 139.579 162.697 139.579ZM157.249 145.428V144.412H168.163V145.428H157.249ZM158.624 146.401H159.9V148.849H166.935V149.888H158.624V146.401ZM181.09 150.134V138.161H182.365V150.134H181.09ZM173.11 139.451H178.808C178.798 142.952 177.31 145.99 173.199 147.951L172.528 146.926C175.713 145.414 177.263 143.255 177.513 140.462H173.11V139.451ZM193.648 138.161V141.7H195.382V142.763H193.648V146.864H192.362V138.161H193.648ZM190.397 139.073C190.397 142.215 188.261 144.493 184.765 145.546L184.226 144.535C187.033 143.694 188.772 142.097 189.017 140.127H184.727V139.073H190.397ZM186.045 145.971H187.321V148.849H194.144V149.888H186.045V145.971ZM202.142 145.145V147.601H207.023V148.65H196.066V147.601H200.885V145.145H197.313V138.979H198.584V141.044H204.462V138.979H205.723V145.145H202.142ZM204.462 142.064H198.584V144.115H204.462V142.064ZM217.218 142.796H219.137V143.85H217.218V150.158H215.947V138.161H217.218V142.796ZM209.663 140.344V146.127C211.671 146.118 213.179 146.033 214.894 145.721L215.045 146.803C213.174 147.129 211.582 147.19 209.361 147.186H208.397V139.314H213.996V140.344H209.663ZM232.134 142.848V138.161H233.353V150.134H232.134V143.897H230.66V149.543H229.455V138.393H230.66V142.848H232.134ZM228.108 146.978H223.459V139.508H228.108V146.978ZM226.918 140.514H224.655V145.971H226.918V140.514ZM235.79 142.943L235.427 141.988C237.723 141.861 239.339 141.157 239.594 140.141H235.979V139.173H239.707V138.114H240.955V139.173H244.701V140.141H241.063C241.314 141.157 242.929 141.861 245.245 141.988L244.862 142.943C242.778 142.792 241.077 142.187 240.331 141.138C239.584 142.187 237.883 142.792 235.79 142.943ZM245.783 143.415V144.365H240.959V145.367H244.413V148.069H237.449V149.057H244.758V150.021H236.206V147.19H243.166V146.293H236.183V145.367H239.702V144.365H234.897V143.415H245.783ZM252.156 143.382C249.553 143.382 247.876 142.47 247.876 140.958C247.876 139.456 249.553 138.554 252.156 138.563C254.75 138.554 256.428 139.456 256.428 140.958C256.428 142.47 254.75 143.382 252.156 143.382ZM252.156 139.579C250.323 139.579 249.185 140.099 249.194 140.958C249.185 141.842 250.323 142.348 252.156 142.348C253.99 142.348 255.128 141.842 255.128 140.958C255.128 140.099 253.99 139.579 252.156 139.579ZM246.709 145.428V144.412H257.623V145.428H246.709ZM248.084 146.401H249.359V148.849H256.395V149.888H248.084V146.401Z" fill="black"/>
<path d="M109.195 159.488H111.09V169.164H109.077V161.401H109.021L106.8 162.795V161.009L109.195 159.488ZM113.071 168.172H114.975L113.822 171.975H112.409L113.071 168.172ZM120.023 169.296C117.892 169.296 116.371 168.129 116.337 166.443H118.364C118.397 167.156 119.097 167.633 120.027 167.633C120.991 167.633 121.681 167.099 121.676 166.32C121.681 165.531 120.982 164.973 119.843 164.973H118.946V163.485H119.843C120.802 163.485 121.469 162.965 121.464 162.2C121.469 161.463 120.897 160.957 120.042 160.957C119.186 160.957 118.487 161.434 118.459 162.176H116.531C116.564 160.513 118.067 159.355 120.051 159.355C122.064 159.355 123.41 160.551 123.401 162.077C123.41 163.164 122.654 163.934 121.563 164.127V164.203C122.99 164.378 123.774 165.243 123.765 166.452C123.774 168.106 122.201 169.296 120.023 169.296ZM128.733 169.296C126.716 169.296 125.237 168.106 125.199 166.443H127.15C127.198 167.194 127.888 167.714 128.733 167.714C129.735 167.714 130.448 167.005 130.444 165.994C130.448 164.973 129.721 164.255 128.7 164.25C127.977 164.25 127.467 164.52 127.188 165.058H125.36L125.889 159.488H131.842V161.137H127.543L127.278 163.579H127.354C127.713 163.102 128.445 162.757 129.296 162.757C131.072 162.757 132.39 164.085 132.386 165.942C132.39 167.898 130.907 169.296 128.733 169.296ZM140.213 165.838H141.432V167.449H140.213V169.164H138.295V167.449H133.593V165.866L137.69 159.488H140.213V165.838ZM138.233 161.69L135.62 165.762V165.838H138.323V161.69H138.233ZM142.815 168.172H144.719L143.566 171.975H142.153L142.815 168.172ZM149.857 169.372C147.433 169.367 145.964 167.515 145.973 164.335C145.978 161.165 147.443 159.355 149.857 159.355C152.271 159.355 153.745 161.175 153.741 164.335C153.741 167.525 152.276 169.372 149.857 169.372ZM149.857 167.699C150.977 167.699 151.695 166.575 151.695 164.335C151.69 162.124 150.972 161.009 149.857 161.009C148.742 161.009 148.024 162.124 148.019 164.335C148.014 166.575 148.737 167.699 149.857 167.699ZM158.89 169.372C156.466 169.367 154.997 167.515 155.006 164.335C155.011 161.165 156.475 159.355 158.89 159.355C161.304 159.355 162.778 161.175 162.773 164.335C162.773 167.525 161.309 169.372 158.89 169.372ZM158.89 167.699C160.01 167.699 160.728 166.575 160.728 164.335C160.723 162.124 160.005 161.009 158.89 161.009C157.775 161.009 157.057 162.124 157.052 164.335C157.047 166.575 157.77 167.699 158.89 167.699ZM167.923 169.372C165.499 169.367 164.029 167.515 164.039 164.335C164.044 161.165 165.508 159.355 167.923 159.355C170.337 159.355 171.811 161.175 171.806 164.335C171.806 167.525 170.342 169.372 167.923 169.372ZM167.923 167.699C169.042 167.699 169.761 166.575 169.761 164.335C169.756 162.124 169.038 161.009 167.923 161.009C166.808 161.009 166.089 162.124 166.085 164.335C166.08 166.575 166.803 167.699 167.923 167.699ZM179.067 166.462V165.299H181.392V158.245H183.102V167.435H181.392V166.462H179.067ZM176.71 162.984C174.905 162.984 173.653 162.143 173.653 160.839C173.653 159.544 174.905 158.651 176.71 158.656C178.482 158.651 179.743 159.544 179.748 160.839C179.743 162.143 178.482 162.984 176.71 162.984ZM176.71 159.904C175.845 159.904 175.264 160.234 175.269 160.839C175.264 161.43 175.845 161.751 176.71 161.751C177.532 161.751 178.122 161.43 178.127 160.839C178.122 160.234 177.532 159.904 176.71 159.904ZM176.01 167.142V168.81H183.372V170.185H174.305V166.551H176.01V164.931C174.919 164.973 173.88 164.983 172.954 164.983L172.75 163.636C174.985 163.617 177.99 163.589 180.56 163.263L180.66 164.487C179.701 164.647 178.704 164.756 177.721 164.831V167.142H176.01Z" fill="#12997A"/>
<path d="M197.429 160.891H199.064V162.29H197.429V165.03H195.719V158.226H197.429V160.891ZM194.018 158.944C194.013 162.162 191.977 164.345 188.32 165.309L187.644 163.948C190.375 163.272 191.887 161.921 192.156 160.3H188.244V158.944H194.018ZM197.429 170.246H189.468V165.488H197.429V170.246ZM195.743 166.863H191.164V168.909H195.743V166.863ZM205.097 162.162C204.294 163.674 202.716 164.831 200.594 165.214L199.867 163.792C202.626 163.367 204.176 161.515 204.185 159.795V158.93H206.004V159.795C206 161.534 207.563 163.367 210.351 163.792L209.623 165.214C207.483 164.822 205.896 163.679 205.097 162.162ZM205.952 164.827V167.577H210.729V168.942H199.607V167.577H204.261V164.827H205.952ZM220.263 162.738H219.309V165.597H217.721V158.411H219.309V161.363H220.263V158.245H221.879V165.734H220.263V162.738ZM215.203 159.403H217.338V160.749H211.366V159.403H213.511V158.302H215.203V159.403ZM214.367 165.38C212.845 165.375 211.735 164.505 211.735 163.258C211.735 161.982 212.845 161.132 214.367 161.127C215.916 161.132 217.022 161.982 217.027 163.258C217.022 164.505 215.916 165.375 214.367 165.38ZM214.367 162.351C213.705 162.351 213.256 162.663 213.256 163.258C213.256 163.825 213.705 164.156 214.367 164.151C215.033 164.156 215.482 163.825 215.486 163.258C215.482 162.663 215.033 162.351 214.367 162.351ZM220.537 166.112V166.353C220.532 167.487 221.213 168.569 222.824 168.98L222.035 170.246C220.858 169.892 220.088 169.183 219.668 168.29C219.271 169.183 218.567 169.967 217.461 170.369C216.332 169.977 215.623 169.23 215.231 168.342C214.792 169.197 214.026 169.887 212.907 170.246L212.108 168.98C213.686 168.521 214.395 167.43 214.4 166.353V166.112H216.086V166.353C216.077 167.246 216.474 168.162 217.433 168.762C218.406 168.129 218.831 167.17 218.841 166.353V166.112H220.537ZM231.829 162.625V158.226H233.515V170.426H231.829V163.99H229.731C229.556 166.324 228.299 167.761 226.608 167.761C224.76 167.761 223.442 166.088 223.447 163.414C223.442 160.768 224.76 159.086 226.608 159.086C228.247 159.086 229.476 160.437 229.712 162.625H231.829ZM226.608 166.216C227.524 166.216 228.134 165.233 228.139 163.414C228.134 161.614 227.524 160.626 226.608 160.626C225.701 160.626 225.077 161.614 225.082 163.414C225.077 165.233 225.701 166.216 226.608 166.216ZM243.735 164.567V167.581H246.206V168.97H235.084V167.581H237.564V164.595C236.624 164.028 236.057 163.164 236.062 162.091C236.057 160.126 237.985 158.826 240.621 158.826C243.257 158.826 245.204 160.126 245.204 162.091C245.204 163.149 244.651 164 243.735 164.567ZM240.621 160.173C238.882 160.163 237.739 160.872 237.739 162.091C237.739 163.286 238.882 164.019 240.621 164.024C242.345 164.019 243.517 163.286 243.522 162.091C243.517 160.872 242.345 160.163 240.621 160.173ZM239.251 165.214V167.581H242.01V165.214C241.575 165.294 241.112 165.342 240.621 165.342C240.139 165.342 239.681 165.299 239.251 165.214Z" fill="black"/>
</g>
<g filter="url(#filter3_d_1884_6971)">
<rect x="40" y="211" width="340.632" height="184.741" rx="15.6626" fill="white"/>
<rect x="41.5" y="212.5" width="337.632" height="181.741" rx="14.1626" stroke="#12997A" stroke-width="3"/>
<path d="M287.273 283.832C289.676 283.832 291.981 284.787 293.68 286.486C295.379 288.185 296.333 290.489 296.333 292.892V348.539H278.213V292.892C278.213 290.489 279.168 288.185 280.867 286.486C282.566 284.787 284.87 283.832 287.273 283.832Z" fill="#25B695"/>
<path d="M306.423 342.57H312.6C314.184 342.57 315.703 343.199 316.822 344.319C317.942 345.439 318.571 346.958 318.571 348.542H300.452C300.452 346.958 301.081 345.439 302.201 344.319C303.32 343.199 304.839 342.57 306.423 342.57Z" fill="#EBEBEB"/>
<path d="M328.66 342.57H334.837C336.421 342.57 337.94 343.199 339.06 344.319C340.18 345.439 340.809 346.958 340.809 348.542H322.689C322.689 346.958 323.318 345.439 324.438 344.319C325.558 343.199 327.077 342.57 328.66 342.57Z" fill="#EBEBEB"/>
<path d="M235.56 370.576C234.045 370.576 232.984 369.754 232.99 368.617C232.984 367.723 233.629 366.989 234.448 366.856V366.819C233.734 366.662 233.253 366.02 233.253 365.259C233.253 364.184 234.226 363.395 235.56 363.395C236.881 363.395 237.854 364.184 237.857 365.259C237.854 366.023 237.366 366.662 236.666 366.819V366.856C237.478 366.989 238.123 367.723 238.13 368.617C238.123 369.754 237.059 370.576 235.56 370.576ZM235.56 366.46C236.291 366.46 236.823 366.01 236.823 365.351C236.823 364.703 236.308 364.262 235.56 364.262C234.796 364.262 234.291 364.703 234.291 365.351C234.291 366.01 234.816 366.46 235.56 366.46ZM235.56 369.709C236.468 369.709 237.048 369.238 237.048 368.545C237.048 367.829 236.42 367.303 235.56 367.303C234.693 367.303 234.062 367.829 234.072 368.545C234.062 369.235 234.639 369.709 235.56 369.709ZM243.52 367.313V366.737H245.206V362.658H246.127V367.73H245.206V367.313H243.52ZM241.721 365.402C240.411 365.402 239.554 364.918 239.554 364.109C239.554 363.317 240.411 362.808 241.721 362.808C243.008 362.808 243.871 363.317 243.878 364.109C243.871 364.918 243.008 365.402 241.721 365.402ZM241.721 363.426C240.923 363.426 240.414 363.696 240.421 364.109C240.414 364.522 240.923 364.788 241.721 364.788C242.506 364.788 243.015 364.522 243.015 364.109C243.015 363.696 242.506 363.426 241.721 363.426ZM242.124 367.75H241.219V366.487C240.441 366.511 239.691 366.511 239.015 366.508L238.909 365.849C240.585 365.853 242.701 365.836 244.564 365.641L244.619 366.228C243.8 366.341 242.953 366.409 242.124 366.453V367.75ZM241.141 369.887V370.552H246.386V371.218H240.24V369.272H245.216V368.661H240.206V368.02H246.127V369.887H241.141Z" fill="#020202"/>
<path d="M257.351 363.395C258.631 363.406 259.979 364.177 259.983 366.737C259.983 369.187 258.928 370.576 257.252 370.576C255.966 370.576 255.065 369.781 254.901 368.648H255.949C256.095 369.235 256.546 369.648 257.252 369.648C258.327 369.648 258.962 368.706 258.969 367.109H258.884C258.505 367.702 257.85 368.057 257.095 368.057C255.843 368.057 254.84 367.098 254.84 365.764C254.84 364.43 255.829 363.385 257.351 363.395ZM257.351 364.286C256.505 364.286 255.867 364.941 255.874 365.747C255.877 366.556 256.481 367.194 257.331 367.194C258.17 367.194 258.826 366.505 258.826 365.733C258.826 364.976 258.205 364.286 257.351 364.286ZM265.393 367.313V366.737H267.079V362.658H268.001V367.73H267.079V367.313H265.393ZM263.595 365.402C262.284 365.402 261.427 364.918 261.427 364.109C261.427 363.317 262.284 362.808 263.595 362.808C264.881 362.808 265.745 363.317 265.751 364.109C265.745 364.918 264.881 365.402 263.595 365.402ZM263.595 363.426C262.796 363.426 262.287 363.696 262.294 364.109C262.287 364.522 262.796 364.788 263.595 364.788C264.38 364.788 264.888 364.522 264.888 364.109C264.888 363.696 264.38 363.426 263.595 363.426ZM263.997 367.75H263.093V366.487C262.315 366.511 261.564 366.511 260.888 366.508L260.782 365.849C262.458 365.853 264.574 365.836 266.437 365.641L266.492 366.228C265.673 366.341 264.827 366.409 263.997 366.453V367.75ZM263.014 369.887V370.552H268.26V371.218H262.113V369.272H267.089V368.661H262.079V368.02H268.001V369.887H263.014Z" fill="#020202"/>
<path d="M81.5396 363.491H82.5771V370.48H81.5123V364.556H81.4713L79.8025 365.645V364.631L81.5396 363.491ZM88.6455 367.313V366.737H90.3314V362.658H91.2528V367.73H90.3314V367.313H88.6455ZM86.8469 365.402C85.5364 365.402 84.6798 364.918 84.6798 364.109C84.6798 363.317 85.5364 362.808 86.8469 362.808C88.1335 362.808 88.997 363.317 89.0038 364.109C88.997 364.918 88.1335 365.402 86.8469 365.402ZM86.8469 363.426C86.0483 363.426 85.5398 363.696 85.5466 364.109C85.5398 364.522 86.0483 364.788 86.8469 364.788C87.6318 364.788 88.1404 364.522 88.1404 364.109C88.1404 363.696 87.6318 363.426 86.8469 363.426ZM87.2496 367.75H86.3452V366.487C85.5671 366.511 84.8163 366.511 84.1405 366.508L84.0347 365.849C85.7104 365.853 87.8264 365.836 89.6898 365.641L89.7444 366.228C88.9253 366.341 88.0789 366.409 87.2496 366.453V367.75ZM86.2667 369.887V370.552H91.5122V371.218H85.3657V369.272H90.3416V368.661H85.3316V368.02H91.2528V369.887H86.2667Z" fill="black"/>
<path d="M106.036 370.48H101.34L101.337 369.709L103.76 367.262C104.528 366.467 104.91 366.027 104.914 365.412C104.91 364.723 104.35 364.286 103.617 364.286C102.842 364.286 102.347 364.774 102.347 365.522H101.337C101.334 364.242 102.306 363.395 103.637 363.395C104.985 363.395 105.917 364.249 105.924 365.382C105.917 366.163 105.548 366.788 104.238 368.074L102.818 369.518V369.569H106.036V370.48ZM111.508 367.313V366.737H113.194V362.658H114.116V367.73H113.194V367.313H111.508ZM109.71 365.402C108.399 365.402 107.543 364.918 107.543 364.109C107.543 363.317 108.399 362.808 109.71 362.808C110.996 362.808 111.86 363.317 111.867 364.109C111.86 364.918 110.996 365.402 109.71 365.402ZM109.71 363.426C108.911 363.426 108.403 363.696 108.409 364.109C108.403 364.522 108.911 364.788 109.71 364.788C110.495 364.788 111.003 364.522 111.003 364.109C111.003 363.696 110.495 363.426 109.71 363.426ZM110.112 367.75H109.208V366.487C108.43 366.511 107.679 366.511 107.003 366.508L106.898 365.849C108.573 365.853 110.689 365.836 112.553 365.641L112.607 366.228C111.788 366.341 110.942 366.409 110.112 366.453V367.75ZM109.13 369.887V370.552H114.375V371.218H108.229V369.272H113.204V368.661H108.194V368.02H114.116V369.887H109.13Z" fill="black"/>
<path d="M125.231 370.576C123.788 370.576 122.757 369.798 122.719 368.655H123.794C123.832 369.269 124.443 369.661 125.221 369.661C126.067 369.661 126.682 369.201 126.678 368.525C126.682 367.832 126.108 367.337 125.105 367.337H124.511V366.47H125.105C125.903 366.47 126.46 366.027 126.46 365.358C126.46 364.716 125.982 364.286 125.245 364.286C124.542 364.286 123.917 364.675 123.89 365.307H122.866C122.9 364.17 123.948 363.395 125.255 363.395C126.627 363.395 127.494 364.266 127.487 365.303C127.494 366.092 127.002 366.665 126.252 366.846V366.9C127.2 367.034 127.757 367.675 127.75 368.562C127.757 369.726 126.682 370.576 125.231 370.576ZM133.211 367.313V366.737H134.897V362.658H135.818V367.73H134.897V367.313H133.211ZM131.412 365.402C130.102 365.402 129.245 364.918 129.245 364.109C129.245 363.317 130.102 362.808 131.412 362.808C132.699 362.808 133.562 363.317 133.569 364.109C133.562 364.918 132.699 365.402 131.412 365.402ZM131.412 363.426C130.614 363.426 130.105 363.696 130.112 364.109C130.105 364.522 130.614 364.788 131.412 364.788C132.197 364.788 132.706 364.522 132.706 364.109C132.706 363.696 132.197 363.426 131.412 363.426ZM131.815 367.75H130.911V366.487C130.133 366.511 129.382 366.511 128.706 366.508L128.6 365.849C130.276 365.853 132.392 365.836 134.255 365.641L134.31 366.228C133.491 366.341 132.644 366.409 131.815 366.453V367.75ZM130.832 369.887V370.552H136.078V371.218H129.931V369.272H134.907V368.661H129.897V368.02H135.818V369.887H130.832Z" fill="black"/>
<path d="M149.656 368.218H150.605V369.115H149.656V370.48H148.643V369.115H145.254V368.259L148.339 363.491H149.656V368.218ZM148.574 364.754L146.366 368.163V368.218H148.649V364.754H148.574ZM155.967 367.313V366.737H157.653V362.658H158.575V367.73H157.653V367.313H155.967ZM154.169 365.402C152.858 365.402 152.002 364.918 152.002 364.109C152.002 363.317 152.858 362.808 154.169 362.808C155.456 362.808 156.319 363.317 156.326 364.109C156.319 364.918 155.456 365.402 154.169 365.402ZM154.169 363.426C153.37 363.426 152.862 363.696 152.869 364.109C152.862 364.522 153.37 364.788 154.169 364.788C154.954 364.788 155.462 364.522 155.462 364.109C155.462 363.696 154.954 363.426 154.169 363.426ZM154.572 367.75H153.667V366.487C152.889 366.511 152.138 366.511 151.463 366.508L151.357 365.849C153.032 365.853 155.148 365.836 157.012 365.641L157.066 366.228C156.247 366.341 155.401 366.409 154.572 366.453V367.75ZM153.589 369.887V370.552H158.834V371.218H152.688V369.272H157.664V368.661H152.654V368.02H158.575V369.887H153.589Z" fill="black"/>
<path d="M169.197 370.576C167.869 370.576 166.876 369.771 166.832 368.655H167.866C167.917 369.252 168.487 369.685 169.197 369.685C170.043 369.685 170.651 369.074 170.651 368.242C170.651 367.392 170.023 366.774 169.149 366.767C168.582 366.764 168.156 366.952 167.913 367.382H166.913L167.371 363.491H171.33V364.402H168.251L168.012 366.354H168.081C168.374 366.081 168.862 365.89 169.395 365.89C170.712 365.89 171.685 366.863 171.681 368.218C171.685 369.59 170.647 370.576 169.197 370.576ZM177.102 367.313V366.737H178.788V362.658H179.709V367.73H178.788V367.313H177.102ZM175.303 365.402C173.993 365.402 173.136 364.918 173.136 364.109C173.136 363.317 173.993 362.808 175.303 362.808C176.59 362.808 177.453 363.317 177.46 364.109C177.453 364.918 176.59 365.402 175.303 365.402ZM175.303 363.426C174.504 363.426 173.996 363.696 174.003 364.109C173.996 364.522 174.504 364.788 175.303 364.788C176.088 364.788 176.597 364.522 176.597 364.109C176.597 363.696 176.088 363.426 175.303 363.426ZM175.706 367.75H174.801V366.487C174.023 366.511 173.272 366.511 172.597 366.508L172.491 365.849C174.167 365.853 176.283 365.836 178.146 365.641L178.201 366.228C177.381 366.341 176.535 366.409 175.706 366.453V367.75ZM174.723 369.887V370.552H179.968V371.218H173.822V369.272H178.798V368.661H173.788V368.02H179.709V369.887H174.723Z" fill="black"/>
<path d="M190.756 370.576C189.466 370.566 188.115 369.801 188.118 367.218C188.118 364.784 189.173 363.395 190.845 363.395C192.135 363.395 193.029 364.197 193.193 365.307H192.145C192.002 364.737 191.552 364.324 190.845 364.324C189.767 364.324 189.139 365.266 189.139 366.846H189.217C189.593 366.249 190.251 365.9 191.012 365.9C192.258 365.9 193.261 366.856 193.261 368.194C193.261 369.545 192.262 370.586 190.756 370.576ZM190.753 369.685C191.596 369.685 192.227 369.03 192.231 368.211C192.227 367.412 191.617 366.761 190.774 366.761C189.924 366.761 189.275 367.443 189.268 368.225C189.268 368.996 189.89 369.685 190.753 369.685ZM198.679 367.313V366.737H200.365V362.658H201.286V367.73H200.365V367.313H198.679ZM196.88 365.402C195.57 365.402 194.713 364.918 194.713 364.109C194.713 363.317 195.57 362.808 196.88 362.808C198.167 362.808 199.03 363.317 199.037 364.109C199.03 364.918 198.167 365.402 196.88 365.402ZM196.88 363.426C196.082 363.426 195.573 363.696 195.58 364.109C195.573 364.522 196.082 364.788 196.88 364.788C197.665 364.788 198.174 364.522 198.174 364.109C198.174 363.696 197.665 363.426 196.88 363.426ZM197.283 367.75H196.379V366.487C195.6 366.511 194.85 366.511 194.174 366.508L194.068 365.849C195.744 365.853 197.86 365.836 199.723 365.641L199.778 366.228C198.959 366.341 198.112 366.409 197.283 366.453V367.75ZM196.3 369.887V370.552H201.546V371.218H195.399V369.272H200.375V368.661H195.365V368.02H201.286V369.887H196.3Z" fill="black"/>
<path d="M211.406 370.48H210.297L213.416 364.453V364.402H209.812V363.491H214.519V364.436L211.406 370.48ZM219.879 367.313V366.737H221.565V362.658H222.486V367.73H221.565V367.313H219.879ZM218.08 365.402C216.77 365.402 215.913 364.918 215.913 364.109C215.913 363.317 216.77 362.808 218.08 362.808C219.367 362.808 220.23 363.317 220.237 364.109C220.23 364.918 219.367 365.402 218.08 365.402ZM218.08 363.426C217.281 363.426 216.773 363.696 216.78 364.109C216.773 364.522 217.281 364.788 218.08 364.788C218.865 364.788 219.373 364.522 219.373 364.109C219.373 363.696 218.865 363.426 218.08 363.426ZM218.483 367.75H217.578V366.487C216.8 366.511 216.049 366.511 215.374 366.508L215.268 365.849C216.944 365.853 219.06 365.836 220.923 365.641L220.978 366.228C220.158 366.341 219.312 366.409 218.483 366.453V367.75ZM217.5 369.887V370.552H222.745V371.218H216.599V369.272H221.575V368.661H216.565V368.02H222.486V369.887H217.5Z" fill="black"/>
<path d="M242.797 283.832C245.2 283.832 247.504 284.787 249.203 286.486C250.903 288.185 251.857 290.489 251.857 292.892V348.54H233.737V292.892C233.737 290.489 234.692 288.185 236.391 286.486C238.09 284.787 240.394 283.832 242.797 283.832Z" fill="#25B695"/>
<path d="M265.035 283.832C267.438 283.832 269.743 284.787 271.442 286.486C273.141 288.185 274.095 290.489 274.095 292.892V348.539H255.976V292.892C255.976 290.489 256.93 288.185 258.629 286.486C260.328 284.787 262.633 283.832 265.035 283.832Z" fill="#25B695"/>
<path d="M86.7205 315.6C89.1234 315.6 91.4278 316.554 93.1268 318.253C94.8259 319.952 95.7804 322.257 95.7804 324.659V348.541H77.6606V324.659C77.6606 322.257 78.6152 319.952 80.3142 318.253C82.0133 316.554 84.3177 315.6 86.7205 315.6Z" fill="#25B695"/>
<path d="M108.959 315.6C111.362 315.6 113.666 316.554 115.365 318.253C117.064 319.952 118.019 322.257 118.019 324.659V348.541H99.8989V324.659C99.8989 322.257 100.853 319.952 102.553 318.253C104.252 316.554 106.556 315.6 108.959 315.6Z" fill="#25B695"/>
<path d="M175.672 252.021C178.075 252.021 180.379 252.976 182.078 254.675C183.778 256.374 184.732 258.679 184.732 261.081V348.541H166.612V261.081C166.612 258.679 167.567 256.374 169.266 254.675C170.965 252.976 173.269 252.021 175.672 252.021Z" fill="#25B695"/>
<path d="M131.196 270.07C133.598 270.07 135.903 271.025 137.602 272.724C139.301 274.423 140.256 276.727 140.256 279.13V348.543H122.136V279.13C122.136 276.727 123.09 274.423 124.789 272.724C126.488 271.025 128.793 270.07 131.196 270.07Z" fill="#25B695"/>
<path d="M197.91 234.262C200.313 234.262 202.617 235.216 204.316 236.915C206.015 238.614 206.97 240.919 206.97 243.322V348.54H188.85V243.322C188.85 240.919 189.805 238.614 191.504 236.915C193.203 235.216 195.507 234.262 197.91 234.262Z" fill="#25B695"/>
<path d="M153.434 270.07C155.837 270.07 158.141 271.025 159.84 272.724C161.539 274.423 162.494 276.727 162.494 279.13V348.543H144.374V279.13C144.374 276.727 145.329 274.423 147.028 272.724C148.727 271.025 151.031 270.07 153.434 270.07Z" fill="#25B695"/>
<path d="M220.559 270.07C222.962 270.07 225.267 271.025 226.966 272.724C228.665 274.423 229.619 276.727 229.619 279.13V348.543H211.5V279.13C211.5 276.727 212.454 274.423 214.153 272.724C215.852 271.025 218.157 270.07 220.559 270.07Z" fill="#25B695"/>
<path d="M324.509 363.491H325.546V370.48H324.482V364.556H324.441L322.772 365.645V364.631L324.509 363.491ZM332.021 370.48H327.325L327.321 369.709L329.744 367.262C330.512 366.467 330.895 366.027 330.898 365.412C330.895 364.723 330.335 364.286 329.601 364.286C328.826 364.286 328.332 364.774 328.332 365.522H327.321C327.318 364.242 328.291 363.395 329.622 363.395C330.97 363.395 331.901 364.249 331.908 365.382C331.901 366.163 331.533 366.788 330.222 368.074L328.803 369.518V369.569H332.021V370.48ZM337.493 367.313V366.737H339.179V362.658H340.1V367.73H339.179V367.313H337.493ZM335.694 365.402C334.384 365.402 333.527 364.918 333.527 364.109C333.527 363.317 334.384 362.808 335.694 362.808C336.981 362.808 337.844 363.317 337.851 364.109C337.844 364.918 336.981 365.402 335.694 365.402ZM335.694 363.426C334.896 363.426 334.387 363.696 334.394 364.109C334.387 364.522 334.896 364.788 335.694 364.788C336.479 364.788 336.988 364.522 336.988 364.109C336.988 363.696 336.479 363.426 335.694 363.426ZM336.097 367.75H335.192V366.487C334.414 366.511 333.663 366.511 332.988 366.508L332.882 365.849C334.558 365.853 336.674 365.836 338.537 365.641L338.592 366.228C337.773 366.341 336.926 366.409 336.097 366.453V367.75ZM335.114 369.887V370.552H340.359V371.218H334.213V369.272H339.189V368.661H334.179V368.02H340.1V369.887H335.114Z" fill="#020202"/>
<path d="M278.797 363.491H279.835V370.48H278.77V364.556H278.729L277.06 365.645V364.631L278.797 363.491ZM284.043 370.593C282.429 370.593 281.477 369.279 281.48 366.989C281.48 364.713 282.439 363.395 284.043 363.395C285.651 363.395 286.61 364.716 286.61 366.989C286.61 369.279 285.661 370.593 284.043 370.593ZM284.043 369.678C284.989 369.678 285.552 368.733 285.552 366.989C285.552 365.249 284.982 364.3 284.043 364.3C283.108 364.3 282.538 365.249 282.538 366.989C282.535 368.733 283.101 369.678 284.043 369.678ZM292.003 367.313V366.737H293.689V362.658H294.611V367.73H293.689V367.313H292.003ZM290.205 365.402C288.894 365.402 288.038 364.918 288.038 364.109C288.038 363.317 288.894 362.808 290.205 362.808C291.491 362.808 292.355 363.317 292.362 364.109C292.355 364.918 291.491 365.402 290.205 365.402ZM290.205 363.426C289.406 363.426 288.898 363.696 288.904 364.109C288.898 364.522 289.406 364.788 290.205 364.788C290.99 364.788 291.498 364.522 291.498 364.109C291.498 363.696 290.99 363.426 290.205 363.426ZM290.607 367.75H289.703V366.487C288.925 366.511 288.174 366.511 287.498 366.508L287.393 365.849C289.068 365.853 291.184 365.836 293.048 365.641L293.102 366.228C292.283 366.341 291.437 366.409 290.607 366.453V367.75ZM289.625 369.887V370.552H294.87V371.218H288.724V369.272H293.699V368.661H288.689V368.02H294.611V369.887H289.625Z" fill="#020202"/>
<path d="M302.684 363.491H303.721V370.48H302.656V364.556H302.615L300.947 365.645V364.631L302.684 363.491ZM307.114 363.491H308.151V370.48H307.087V364.556H307.046L305.377 365.645V364.631L307.114 363.491ZM314.22 367.313V366.737H315.906V362.658H316.827V367.73H315.906V367.313H314.22ZM312.421 365.402C311.111 365.402 310.254 364.918 310.254 364.109C310.254 363.317 311.111 362.808 312.421 362.808C313.708 362.808 314.571 363.317 314.578 364.109C314.571 364.918 313.708 365.402 312.421 365.402ZM312.421 363.426C311.623 363.426 311.114 363.696 311.121 364.109C311.114 364.522 311.623 364.788 312.421 364.788C313.206 364.788 313.715 364.522 313.715 364.109C313.715 363.696 313.206 363.426 312.421 363.426ZM312.824 367.75H311.919V366.487C311.141 366.511 310.391 366.511 309.715 366.508L309.609 365.849C311.285 365.853 313.401 365.836 315.264 365.641L315.319 366.228C314.5 366.341 313.653 366.409 312.824 366.453V367.75ZM311.841 369.887V370.552H317.086V371.218H310.94V369.272H315.916V368.661H310.906V368.02H316.827V369.887H311.841Z" fill="#020202"/>
<path d="M86.7197 300.204L97.4269 279.151L115.547 292.329L130.372 273.385H152.61L174.024 279.151L199.556 247.029L223.442 279.151L241.561 284.916L267.094 273.385L291.803 279.151L310.746 273.385L330.513 292.329" stroke="#7DA48D" stroke-width="1.64725"/>
<path d="M79.4106 322.918H342.971" stroke="#B1B1B1" stroke-width="1.23544" stroke-dasharray="4.12 4.12"/>
<path d="M79.4106 304.477H342.971" stroke="#17BF98" stroke-width="1.23544" stroke-dasharray="4.12 4.12"/>
</g>
</g>
</g>
<defs>
<filter id="filter0_i_1884_6971" x="0" y="0" width="421" height="420" filterUnits="userSpaceOnUse" color-interpolation-filters="sRGB">
<feFlood flood-opacity="0" result="BackgroundImageFix"/>
<feBlend mode="normal" in="SourceGraphic" in2="BackgroundImageFix" result="shape"/>
<feColorMatrix in="SourceAlpha" type="matrix" values="0 0 0 0 0 0 0 0 0 0 0 0 0 0 0 0 0 0 127 0" result="hardAlpha"/>
<feOffset/>
<feGaussianBlur stdDeviation="2"/>
<feComposite in2="hardAlpha" operator="arithmetic" k2="-1" k3="1"/>
<feColorMatrix type="matrix" values="0 0 0 0 0 0 0 0 0 0 0 0 0 0 0 0 0 0 0.16 0"/>
<feBlend mode="normal" in2="shape" result="effect1_innerShadow_1884_6971"/>
</filter>
<filter id="filter1_d_1884_6971" x="58" y="23" width="305" height="540" filterUnits="userSpaceOnUse" color-interpolation-filters="sRGB">
<feFlood flood-opacity="0" result="BackgroundImageFix"/>
<feColorMatrix in="SourceAlpha" type="matrix" values="0 0 0 0 0 0 0 0 0 0 0 0 0 0 0 0 0 0 127 0" result="hardAlpha"/>
<feOffset dy="1"/>
<feGaussianBlur stdDeviation="8"/>
<feComposite in2="hardAlpha" operator="out"/>
<feColorMatrix type="matrix" values="0 0 0 0 0 0 0 0 0 0 0 0 0 0 0 0 0 0 0.08 0"/>
<feBlend mode="normal" in2="BackgroundImageFix" result="effect1_dropShadow_1884_6971"/>
<feBlend mode="normal" in="SourceGraphic" in2="effect1_dropShadow_1884_6971" result="shape"/>
</filter>
<filter id="filter2_i_1884_6971" x="85" y="50" width="251" height="482.885" filterUnits="userSpaceOnUse" color-interpolation-filters="sRGB">
<feFlood flood-opacity="0" result="BackgroundImageFix"/>
<feBlend mode="normal" in="SourceGraphic" in2="BackgroundImageFix" result="shape"/>
<feColorMatrix in="SourceAlpha" type="matrix" values="0 0 0 0 0 0 0 0 0 0 0 0 0 0 0 0 0 0 127 0" result="hardAlpha"/>
<feOffset dy="0.885417"/>
<feGaussianBlur stdDeviation="0.885417"/>
<feComposite in2="hardAlpha" operator="arithmetic" k2="-1" k3="1"/>
<feColorMatrix type="matrix" values="0 0 0 0 0.833512 0 0 0 0 0.831423 0 0 0 0 0.824016 0 0 0 0.25 0"/>
<feBlend mode="normal" in2="shape" result="effect1_innerShadow_1884_6971"/>
</filter>
<filter id="filter3_d_1884_6971" x="24" y="193" width="372.632" height="216.74" filterUnits="userSpaceOnUse" color-interpolation-filters="sRGB">
<feFlood flood-opacity="0" result="BackgroundImageFix"/>
<feColorMatrix in="SourceAlpha" type="matrix" values="0 0 0 0 0 0 0 0 0 0 0 0 0 0 0 0 0 0 127 0" result="hardAlpha"/>
<feOffset dy="-2"/>
<feGaussianBlur stdDeviation="8"/>
<feComposite in2="hardAlpha" operator="out"/>
<feColorMatrix type="matrix" values="0 0 0 0 0 0 0 0 0 0 0 0 0 0 0 0 0 0 0.16 0"/>
<feBlend mode="normal" in2="BackgroundImageFix" result="effect1_dropShadow_1884_6971"/>
<feBlend mode="normal" in="SourceGraphic" in2="effect1_dropShadow_1884_6971" result="shape"/>
</filter>
<linearGradient id="paint0_linear_1884_6971" x1="210.5" y1="0" x2="210.5" y2="420" gradientUnits="userSpaceOnUse">
<stop offset="0.0001" stop-color="#2ACCB9"/>
<stop offset="1" stop-color="#2ACC75" stop-opacity="0.5"/>
</linearGradient>
<clipPath id="clip0_1884_6971">
<rect width="421" height="420" rx="20" fill="white"/>
</clipPath>
<clipPath id="clip1_1884_6971">
<rect width="231.979" height="285" fill="white" transform="translate(95 110)"/>
</clipPath>
</defs>
</svg>
