<svg width="421" height="420" viewBox="0 0 421 420" fill="none" xmlns="http://www.w3.org/2000/svg">
<g filter="url(#filter0_i_1906_2563)">
<g clip-path="url(#clip0_1906_2563)">
<rect width="421" height="420" rx="20" fill="url(#paint0_linear_1906_2563)" fill-opacity="0.15"/>
<g filter="url(#filter1_d_1906_2563)">
<rect x="74" y="38" width="273" height="508" rx="36" fill="#F4F4F4"/>
<g filter="url(#filter2_i_1906_2563)">
<rect x="85" y="50" width="251" height="482" rx="28" fill="white"/>
</g>
<path d="M118.923 68.0127C119.492 68.0127 120.031 68.118 120.54 68.3287C121.05 68.5345 121.501 68.8579 121.893 69.2989C122.29 69.7349 122.601 70.296 122.826 70.9819C123.051 71.663 123.164 72.4837 123.164 73.4441V73.4588C123.164 74.6494 122.993 75.6686 122.65 76.5162C122.307 77.3639 121.814 78.0156 121.172 78.4712C120.535 78.922 119.774 79.1474 118.887 79.1474C118.235 79.1474 117.647 79.0298 117.123 78.7946C116.603 78.5545 116.172 78.2262 115.829 77.8098C115.491 77.3884 115.263 76.9082 115.146 76.3692L115.131 76.2884H116.99L117.02 76.3619C117.113 76.6069 117.245 76.8225 117.417 77.0087C117.593 77.1948 117.804 77.3394 118.049 77.4423C118.299 77.5403 118.578 77.5893 118.887 77.5893C119.445 77.5893 119.901 77.4251 120.254 77.0968C120.611 76.7637 120.878 76.3202 121.055 75.7666C121.236 75.208 121.339 74.5906 121.363 73.9144C121.368 73.841 121.371 73.7699 121.371 73.7013C121.371 73.6278 121.371 73.5568 121.371 73.4882L121.04 71.7169C121.04 71.3151 120.947 70.9501 120.761 70.6218C120.575 70.2935 120.322 70.0338 120.004 69.8427C119.69 69.6517 119.335 69.5561 118.938 69.5561C118.556 69.5561 118.206 69.6492 117.887 69.8354C117.569 70.0216 117.314 70.2764 117.123 70.5998C116.932 70.9182 116.836 71.2759 116.836 71.6728V71.6875C116.836 72.0991 116.927 72.4641 117.108 72.7826C117.289 73.0962 117.537 73.3436 117.85 73.5249C118.164 73.7062 118.522 73.7969 118.923 73.7969C119.325 73.7969 119.685 73.7087 120.004 73.5323C120.322 73.3559 120.575 73.1109 120.761 72.7973C120.947 72.4837 121.04 72.1285 121.04 71.7316V71.7169H121.481V73.6719H121.224C121.096 73.9512 120.908 74.2109 120.658 74.451C120.408 74.6911 120.099 74.8846 119.732 75.0316C119.369 75.1786 118.943 75.2521 118.453 75.2521C117.777 75.2521 117.179 75.1002 116.66 74.7964C116.14 74.4926 115.731 74.0761 115.432 73.547C115.138 73.0178 114.991 72.42 114.991 71.7537V71.739C114.991 71.0187 115.158 70.3793 115.491 69.8207C115.829 69.2572 116.295 68.8162 116.888 68.4978C117.485 68.1744 118.164 68.0127 118.923 68.0127ZM126.501 77.457C126.168 77.457 125.888 77.3467 125.663 77.1262C125.443 76.9009 125.332 76.6265 125.332 76.3031C125.332 75.9748 125.443 75.7004 125.663 75.4799C125.888 75.2545 126.168 75.1418 126.501 75.1418C126.839 75.1418 127.118 75.2545 127.339 75.4799C127.559 75.7004 127.669 75.9748 127.669 76.3031C127.669 76.6265 127.559 76.9009 127.339 77.1262C127.118 77.3467 126.839 77.457 126.501 77.457ZM126.501 72.0035C126.168 72.0035 125.888 71.8933 125.663 71.6728C125.443 71.4474 125.332 71.173 125.332 70.8496C125.332 70.5214 125.443 70.247 125.663 70.0265C125.888 69.8011 126.168 69.6884 126.501 69.6884C126.839 69.6884 127.118 69.8011 127.339 70.0265C127.559 70.247 127.669 70.5214 127.669 70.8496C127.669 71.173 127.559 71.4474 127.339 71.6728C127.118 71.8933 126.839 72.0035 126.501 72.0035ZM134.982 78.8828V76.847H129.794V75.2962C130.073 74.8209 130.352 74.3432 130.631 73.863C130.916 73.3828 131.202 72.9051 131.491 72.4298C131.785 71.9496 132.077 71.4768 132.366 71.0113C132.66 70.541 132.951 70.0779 133.241 69.6223C133.534 69.1617 133.828 68.7133 134.122 68.2773H136.79V75.2815H138.224V76.847H136.79V78.8828H134.982ZM131.557 75.3256H135.012V69.7913H134.902C134.686 70.1245 134.463 70.4675 134.233 70.8202C134.007 71.173 133.779 71.5332 133.549 71.9006C133.319 72.2681 133.091 72.6381 132.866 73.0104C132.64 73.3779 132.417 73.7479 132.197 74.1202C131.976 74.4877 131.763 74.8528 131.557 75.2153V75.3256ZM142.611 78.8828V70.1441H142.479L139.84 72.0035V70.2249L142.611 68.2773H144.5V78.8828H142.611Z" fill="black"/>
<rect opacity="0.35" x="301.62" y="68.4525" width="21.25" height="10.625" rx="3.36458" stroke="black" stroke-width="0.885417"/>
<path opacity="0.4" d="M324.199 72.2422V75.8507C324.911 75.5451 325.375 74.8341 325.375 74.0464C325.375 73.2588 324.911 72.5478 324.199 72.2422Z" fill="black"/>
<rect x="302.949" y="69.7812" width="18.5938" height="7.96875" rx="2.21354" fill="black"/>
<path fill-rule="evenodd" clip-rule="evenodd" d="M287.251 70.7579C289.453 70.758 291.571 71.5744 293.167 73.0384C293.287 73.1515 293.479 73.15 293.597 73.0352L294.746 71.9166C294.806 71.8583 294.84 71.7795 294.839 71.6974C294.839 71.6153 294.804 71.5368 294.744 71.4793C290.555 67.6059 283.946 67.6059 279.757 71.4793C279.697 71.5368 279.662 71.6153 279.662 71.6973C279.661 71.7794 279.694 71.8583 279.754 71.9166L280.903 73.0352C281.022 73.1502 281.214 73.1516 281.334 73.0384C282.93 71.5743 285.048 70.7579 287.251 70.7579ZM287.248 74.4946C288.45 74.4945 289.609 74.9476 290.499 75.7659C290.62 75.882 290.81 75.8795 290.927 75.7602L292.067 74.5921C292.127 74.5308 292.16 74.4477 292.159 74.3613C292.158 74.2749 292.124 74.1925 292.062 74.1325C289.35 71.5729 285.148 71.5729 282.436 74.1325C282.374 74.1925 282.339 74.275 282.339 74.3614C282.338 74.4478 282.371 74.5309 282.431 74.5921L283.571 75.7602C283.688 75.8795 283.878 75.882 283.999 75.7659C284.889 74.9482 286.047 74.4951 287.248 74.4946ZM289.483 76.9681C289.485 77.0613 289.452 77.1513 289.392 77.2166L287.465 79.3901C287.409 79.454 287.332 79.4899 287.251 79.4899C287.171 79.4899 287.094 79.454 287.037 79.3901L285.11 77.2166C285.05 77.1512 285.017 77.0613 285.019 76.968C285.021 76.8747 285.057 76.7864 285.119 76.7239C286.35 75.5605 288.152 75.5605 289.383 76.7239C289.445 76.7864 289.481 76.8748 289.483 76.9681Z" fill="black"/>
<path fill-rule="evenodd" clip-rule="evenodd" d="M273.021 69.4993C273.021 68.9388 272.599 68.4844 272.077 68.4844H271.133C270.611 68.4844 270.188 68.9388 270.188 69.4993V78.295C270.188 78.8555 270.611 79.3098 271.133 79.3098H272.077C272.599 79.3098 273.021 78.8555 273.021 78.295V69.4993ZM266.439 70.6495H267.384C267.905 70.6495 268.328 71.1148 268.328 71.6887V78.2706C268.328 78.8446 267.905 79.3098 267.384 79.3098H266.439C265.918 79.3098 265.495 78.8446 265.495 78.2706V71.6887C265.495 71.1148 265.918 70.6495 266.439 70.6495ZM262.604 72.995H261.659C261.138 72.995 260.715 73.4662 260.715 74.0475V78.2574C260.715 78.8386 261.138 79.3098 261.659 79.3098H262.604C263.125 79.3098 263.548 78.8386 263.548 78.2574V74.0475C263.548 73.4662 263.125 72.995 262.604 72.995ZM257.91 75.1601H256.966C256.444 75.1601 256.021 75.6246 256.021 76.1975V78.2724C256.021 78.8454 256.444 79.3098 256.966 79.3098H257.91C258.432 79.3098 258.855 78.8454 258.855 78.2724V76.1975C258.855 75.6246 258.432 75.1601 257.91 75.1601Z" fill="black"/>
</g>
<g clip-path="url(#clip1_1906_2563)">
<path d="M97.1686 104.647H98.0788L100.108 110.438H100.189L102.225 104.647H103.129L100.6 111.551H99.697L97.1686 104.647ZM108.821 111.551H107.917L107.23 109.609H104.452L103.764 111.551H102.86L105.389 104.647H106.292L108.821 111.551ZM105.814 105.759L104.718 108.854H106.963L105.868 105.759H105.814ZM110.739 105.408H108.568V104.647H113.766V105.408H111.602V111.551H110.739V105.408ZM121.022 112.326V103.851H121.737V112.326H121.022ZM117.887 106.905H119.317V104.053H120.025V111.881H119.317V107.519H117.887V106.905ZM116.984 105.469V106.265C116.984 107.735 117.645 109.198 118.811 109.872L118.359 110.425C117.527 109.926 116.933 109.012 116.633 107.933C116.33 109.1 115.716 110.094 114.867 110.627L114.395 110.067C115.575 109.36 116.262 107.809 116.262 106.265V105.469H114.624V104.849H118.535V105.469H116.984ZM129.137 112.34V103.851H129.885V112.34H129.137ZM126.076 108.355V109.794C126.915 109.754 127.771 109.683 128.577 109.562L128.638 110.115C126.696 110.472 124.612 110.479 123.082 110.479L122.981 109.852C123.672 109.852 124.481 109.852 125.327 109.825V108.352C124.194 108.217 123.412 107.458 123.419 106.393C123.412 105.213 124.37 104.411 125.705 104.404C127.04 104.411 127.984 105.213 127.99 106.393C127.984 107.462 127.212 108.22 126.076 108.355ZM124.154 106.393C124.147 107.182 124.801 107.735 125.705 107.728C126.601 107.735 127.255 107.182 127.255 106.393C127.255 105.597 126.601 105.058 125.705 105.058C124.801 105.058 124.147 105.597 124.154 106.393Z" fill="#8A8A8B"/>
<path d="M105.862 180.314V169.493H107.015V180.314H105.862ZM102.032 171.53V172.687C102.032 174.494 103.219 176.364 104.884 177.073L104.256 177.978C102.98 177.414 101.972 176.219 101.468 174.784C100.964 176.321 99.9478 177.636 98.6923 178.247L98.0219 177.342C99.6531 176.582 100.862 174.545 100.87 172.687V171.53H98.4019V170.582H104.5V171.53H102.032ZM117.242 169.502V172.657H118.809V173.631H117.242V177.303H116.093V169.502H117.242ZM115.064 173.985L115.196 174.933C113.381 175.305 111.724 175.403 110.115 175.403H109.231V170.262H110.384V174.438C111.848 174.434 113.39 174.336 115.064 173.985ZM110.409 176.552H111.558V179.152H117.617V180.092H110.409V176.552ZM127.929 169.493V171.701H129.497V172.649H127.929V174.925H126.781V169.493H127.929ZM125.696 173.285L125.828 174.19C124.33 174.515 123.006 174.566 120.743 174.562H119.884V170.1H124.71V171.022H121.016V173.652C123.061 173.648 124.287 173.567 125.696 173.285ZM127.929 178.204H122.083V179.246H128.297V180.177H120.956V177.325H126.789V176.355H120.931V175.433H127.929V178.204ZM135.607 175.805V178.025H140.018V178.973H130.115V178.025H134.471V175.805H131.243V170.232H132.391V172.098H137.703V170.232H138.843V175.805H135.607ZM137.703 173.02H132.391V174.874H137.703V173.02ZM149.232 173.682H150.966V174.635H149.232V180.335H148.084V169.493H149.232V173.682ZM142.404 171.466V176.693C144.219 176.684 145.581 176.607 147.131 176.326L147.268 177.303C145.577 177.598 144.138 177.654 142.131 177.649H141.26V170.535H146.32V171.466H142.404ZM157.935 179.409C156.039 179.409 154.711 178.38 154.719 176.958C154.711 175.839 155.518 174.921 156.543 174.754V174.707C155.65 174.511 155.048 173.708 155.048 172.756C155.048 171.411 156.265 170.424 157.935 170.424C159.587 170.424 160.804 171.411 160.809 172.756C160.804 173.712 160.194 174.511 159.318 174.707V174.754C160.335 174.921 161.142 175.839 161.15 176.958C161.142 178.38 159.809 179.409 157.935 179.409ZM157.935 174.259C158.849 174.259 159.515 173.695 159.515 172.871C159.515 172.06 158.87 171.509 157.935 171.509C156.978 171.509 156.346 172.06 156.346 172.871C156.346 173.695 157.004 174.259 157.935 174.259ZM157.935 178.324C159.071 178.324 159.797 177.735 159.797 176.868C159.797 175.971 159.011 175.314 157.935 175.314C156.85 175.314 156.06 175.971 156.073 176.868C156.06 177.73 156.782 178.324 157.935 178.324ZM165.537 170.424C167.138 170.437 168.825 171.402 168.829 174.605C168.829 177.671 167.509 179.409 165.413 179.409C163.803 179.409 162.675 178.414 162.471 176.996H163.781C163.965 177.73 164.529 178.247 165.413 178.247C166.758 178.247 167.552 177.069 167.561 175.07H167.454C166.98 175.813 166.16 176.257 165.216 176.257C163.649 176.257 162.394 175.057 162.394 173.388C162.394 171.718 163.632 170.411 165.537 170.424ZM165.537 171.539C164.478 171.539 163.679 172.359 163.688 173.366C163.692 174.378 164.448 175.177 165.511 175.177C166.561 175.177 167.381 174.314 167.381 173.349C167.381 172.401 166.604 171.539 165.537 171.539ZM175.552 176.458H176.739V177.581H175.552V179.289H174.283V177.581H170.043V176.509L173.903 170.544H175.552V176.458ZM174.198 172.124L171.435 176.39V176.458H174.292V172.124H174.198ZM186.211 169.489V172.726H187.778V173.682H186.211V177.41H185.062V169.489H186.211ZM178.123 170.446H183.192V175.501H178.123V170.446ZM179.246 174.588H182.069V171.372H179.246V174.588ZM179.353 176.65H180.493V179.152H186.672V180.092H179.353V176.65ZM194.068 176.671V175.86H196.246V169.502H197.399V177.709H196.246V176.671H194.068ZM191.886 173.708C190.28 173.708 189.187 172.978 189.187 171.821C189.187 170.68 190.28 169.916 191.886 169.916C193.466 169.916 194.563 170.68 194.572 171.821C194.563 172.978 193.466 173.708 191.886 173.708ZM191.886 170.77C190.925 170.766 190.272 171.18 190.276 171.821C190.272 172.465 190.925 172.867 191.886 172.867C192.808 172.867 193.47 172.465 193.479 171.821C193.47 171.18 192.808 170.766 191.886 170.77ZM192.569 177.372H191.425V175.322C190.374 175.36 189.366 175.369 188.487 175.365L188.342 174.442C190.344 174.43 193.043 174.408 195.349 174.118L195.426 174.946C194.495 175.1 193.526 175.198 192.569 175.258V177.372ZM190.985 176.906V179.152H197.655V180.092H189.84V176.906H190.985ZM204.529 171.957H210.837V172.888H203.406V169.651H204.529V171.957ZM202.087 174.763V173.836H211.989V174.763H202.087ZM210.747 178.273H204.465V179.272H211.118V180.177H203.317V177.427H209.62V176.522H203.295V175.625H210.747V178.273ZM215.781 175.198C214.154 175.198 212.954 174.139 212.954 172.64C212.954 171.15 214.154 170.083 215.781 170.091C217.186 170.083 218.3 170.919 218.544 172.145H220.666V169.493H221.81V175.634H220.666V173.084H218.557C218.335 174.344 217.207 175.198 215.781 175.198ZM215.781 171.052C214.782 171.048 214.047 171.692 214.056 172.64C214.047 173.58 214.782 174.242 215.781 174.246C216.763 174.242 217.493 173.58 217.498 172.64C217.493 171.692 216.763 171.048 215.781 171.052ZM220.666 176.048V176.629C220.666 177.752 221.401 178.858 222.835 179.319L222.242 180.173C221.178 179.793 220.457 179.067 220.085 178.179C219.739 179.046 219.086 179.848 218.087 180.263C217.062 179.874 216.409 179.105 216.071 178.217C215.683 179.067 214.965 179.789 213.949 180.173L213.385 179.319C214.773 178.832 215.52 177.688 215.525 176.629V176.048H216.635V176.629C216.626 177.572 217.092 178.555 218.074 179.157C219.065 178.503 219.534 177.457 219.543 176.629V176.048H220.666ZM231.367 173.55V169.493H232.503V180.335H231.367V174.485H229.133C229.014 176.595 227.921 177.906 226.413 177.906C224.795 177.906 223.659 176.432 223.668 174.101C223.659 171.782 224.795 170.309 226.413 170.305C227.878 170.309 228.954 171.551 229.125 173.55H231.367ZM226.413 176.876C227.387 176.876 228.062 175.817 228.062 174.101C228.062 172.397 227.387 171.338 226.413 171.329C225.431 171.338 224.761 172.397 224.761 174.101C224.761 175.817 225.431 176.876 226.413 176.876ZM241.696 175.164V178.017H244.07V178.965H234.167V178.017H236.537V175.185C235.645 174.699 235.103 173.921 235.103 172.952C235.103 171.248 236.772 170.13 239.091 170.121C241.418 170.13 243.092 171.248 243.092 172.952C243.092 173.909 242.567 174.673 241.696 175.164ZM239.091 171.048C237.396 171.039 236.217 171.782 236.217 172.952C236.217 174.109 237.396 174.865 239.091 174.865C240.778 174.865 241.973 174.109 241.973 172.952C241.973 171.782 240.778 171.039 239.091 171.048ZM237.665 175.608V178.017H240.539V175.604C240.094 175.706 239.608 175.762 239.091 175.762C238.579 175.762 238.1 175.706 237.665 175.608Z" fill="#AAAAAA"/>
<path d="M100.675 123.62H102.383V135.127H100.63V125.373H100.562L97.8147 127.165V125.497L100.675 123.62ZM113.042 135.127H105.311L105.305 133.857L109.294 129.829C110.558 128.519 111.188 127.795 111.193 126.783C111.188 125.648 110.266 124.929 109.058 124.929C107.783 124.929 106.968 125.733 106.968 126.963H105.305C105.299 124.856 106.901 123.463 109.092 123.463C111.311 123.463 112.845 124.867 112.856 126.733C112.845 128.019 112.238 129.048 110.081 131.166L107.744 133.542V133.627H113.042V135.127ZM122.05 129.913V128.963H124.826V122.249H126.343V130.598H124.826V129.913H122.05ZM119.089 126.766C116.932 126.766 115.522 125.969 115.522 124.637C115.522 123.333 116.932 122.496 119.089 122.496C121.208 122.496 122.629 123.333 122.64 124.637C122.629 125.969 121.208 126.766 119.089 126.766ZM119.089 123.513C117.775 123.513 116.937 123.957 116.949 124.637C116.937 125.317 117.775 125.755 119.089 125.755C120.382 125.755 121.219 125.317 121.219 124.637C121.219 123.957 120.382 123.513 119.089 123.513ZM119.752 130.632H118.264V128.553C116.982 128.592 115.746 128.592 114.634 128.587L114.46 127.502C117.218 127.508 120.702 127.48 123.77 127.16L123.86 128.126C122.511 128.312 121.118 128.424 119.752 128.497V130.632ZM118.134 134.149V135.245H126.77V136.341H116.651V133.138H124.843V132.132H116.595V131.076H126.343V134.149H118.134ZM142.85 136.475V122.238H144.367V136.475H142.85ZM133.36 123.772H140.137C140.125 127.935 138.355 131.548 133.467 133.88L132.669 132.66C136.456 130.862 138.299 128.295 138.597 124.974H133.36V123.772ZM147.873 128.57L147.317 127.379C149.974 127.042 152.003 125.676 152.081 124.131H147.783V122.918H158.408V124.131H154.087C154.155 125.676 156.205 127.042 158.863 127.379L158.29 128.57C155.851 128.244 153.845 127.109 153.076 125.508C152.306 127.109 150.311 128.244 147.873 128.57ZM146.575 130.716V129.486H159.605V130.716H153.958V133.469H152.463V130.716H146.575ZM148.199 132.11H149.705V134.947H158.161V136.183H148.199V132.11ZM175.426 127.811V122.238H176.876V136.475H175.426V129.059H173.673V135.773H172.241V122.513H173.673V127.811H175.426ZM170.639 132.722H165.11V123.839H170.639V132.722ZM169.223 125.036H166.532V131.525H169.223V125.036ZM188.995 122.238H190.506V129.879H188.995V122.238ZM182.775 122.895C184.955 122.884 186.556 124.238 186.556 126.205C186.556 128.143 184.955 129.497 182.775 129.491C180.589 129.497 178.982 128.143 178.982 126.205C178.982 124.238 180.589 122.884 182.775 122.895ZM182.775 124.165C181.421 124.154 180.449 124.98 180.46 126.205C180.449 127.424 181.421 128.244 182.775 128.25C184.112 128.244 185.079 127.424 185.079 126.205C185.079 124.98 184.112 124.154 182.775 124.165ZM181.185 130.57H182.663V132.166H189.006V130.57H190.506V136.296H181.185V130.57ZM182.663 133.357V135.065H189.006V133.357H182.663ZM199.237 128.446C196.141 128.446 194.147 127.362 194.147 125.564C194.147 123.777 196.141 122.704 199.237 122.715C202.322 122.704 204.316 123.777 204.316 125.564C204.316 127.362 202.322 128.446 199.237 128.446ZM199.237 123.923C197.057 123.923 195.703 124.541 195.714 125.564C195.703 126.615 197.057 127.216 199.237 127.216C201.417 127.216 202.771 126.615 202.771 125.564C202.771 124.541 201.417 123.923 199.237 123.923ZM192.759 130.879V129.671H205.738V130.879H192.759ZM194.394 132.037H195.911V134.947H204.277V136.183H194.394V132.037Z" fill="black"/>
<path d="M106.142 156.604H97.899L97.8934 154.879L102.029 151.075C103.096 150.047 103.675 149.412 103.681 148.49C103.675 147.473 102.9 146.844 101.855 146.844C100.77 146.844 100.057 147.524 100.062 148.631H97.7922C97.7866 146.378 99.4554 144.939 101.871 144.939C104.344 144.939 105.979 146.344 105.984 148.338C105.979 149.648 105.344 150.726 102.973 152.873L101.22 154.564V154.643H106.142V156.604ZM108.139 155.424H110.404L109.033 159.947H107.353L108.139 155.424ZM120.189 152.648H121.638V154.564H120.189V156.604H117.907V154.564H112.317V152.682L117.188 145.096H120.189V152.648ZM117.834 147.715L114.727 152.558V152.648H117.941V147.715H117.834ZM127.467 156.761C124.933 156.761 123.123 155.373 123.084 153.367H125.494C125.534 154.216 126.365 154.783 127.472 154.783C128.618 154.783 129.439 154.148 129.433 153.221C129.439 152.283 128.607 151.62 127.253 151.62H126.185V149.85H127.253C128.394 149.85 129.186 149.232 129.18 148.322C129.186 147.445 128.506 146.844 127.489 146.844C126.472 146.844 125.64 147.411 125.607 148.294H123.314C123.354 146.316 125.14 144.939 127.5 144.939C129.894 144.939 131.495 146.361 131.484 148.176C131.495 149.468 130.596 150.384 129.298 150.614V150.704C130.995 150.912 131.928 151.94 131.917 153.378C131.928 155.345 130.057 156.761 127.467 156.761ZM138.061 156.851C135.179 156.845 133.431 154.643 133.443 150.861C133.448 147.091 135.19 144.939 138.061 144.939C140.932 144.939 142.685 147.102 142.68 150.861C142.68 154.654 140.938 156.851 138.061 156.851ZM138.061 154.862C139.393 154.862 140.247 153.524 140.247 150.861C140.241 148.232 139.387 146.906 138.061 146.906C136.735 146.906 135.881 148.232 135.875 150.861C135.87 153.524 136.729 154.862 138.061 154.862ZM155.337 143.608V147.771H157.281V149.445H155.337V154.159H153.303V143.608H155.337ZM144.291 144.804H151.236V151.749H144.291V144.804ZM146.297 150.153H149.236V146.417H146.297V150.153ZM145.954 153.114H147.977V156.182H155.854V157.817H145.954V153.114ZM165.377 153.39V152.007H168.142V143.619H170.176V154.547H168.142V153.39H165.377ZM162.574 149.254C160.427 149.254 158.938 148.254 158.938 146.703C158.938 145.164 160.427 144.102 162.574 144.108C164.681 144.102 166.181 145.164 166.186 146.703C166.181 148.254 164.681 149.254 162.574 149.254ZM162.574 145.591C161.545 145.591 160.854 145.984 160.86 146.703C160.854 147.406 161.545 147.788 162.574 147.788C163.551 147.788 164.254 147.406 164.259 146.703C164.254 145.984 163.551 145.591 162.574 145.591ZM161.742 154.199V156.182H170.496V157.817H159.714V153.496H161.742V151.569C160.444 151.62 159.208 151.631 158.107 151.631L157.865 150.03C160.523 150.007 164.096 149.973 167.153 149.586L167.271 151.041C166.13 151.232 164.945 151.361 163.776 151.451V154.199H161.742ZM178.575 144.344C181.637 144.344 184.025 145.995 184.025 148.501C184.025 151.024 181.637 152.67 178.575 152.67C175.524 152.67 173.147 151.024 173.153 148.501C173.147 145.995 175.524 144.344 178.575 144.344ZM178.575 145.984C176.569 145.973 175.114 146.951 175.12 148.501C175.114 150.075 176.569 151.007 178.575 151.007C180.575 151.007 182.019 150.075 182.025 148.501C182.019 146.951 180.575 145.973 178.575 145.984ZM171.99 154.665H185.216V156.306H171.99V154.665ZM193.638 152.609V154.794H199.279V156.452H186.053V154.794H191.632V152.609H187.575V147.743H195.751V146.17H187.553V144.54H197.757V149.333H189.598V150.962H198.094V152.609H193.638ZM205.265 151.496L204.529 149.906C207.524 149.558 209.159 148.147 209.4 146.866H205.057V145.271H209.434V143.619H211.445V145.271H215.845V146.866H211.496C211.738 148.131 213.361 149.558 216.351 149.906L215.62 151.496C213.17 151.21 211.4 150.204 210.457 148.889C209.513 150.215 207.732 151.204 205.265 151.496ZM203.866 152.26H217.058V153.918H211.445V158.081H209.434V153.918H203.866V152.26ZM225.834 148.777V147.125H228.093V143.596H230.116V152.193H228.093V148.777H225.834ZM222.384 148.957C221.755 150.429 220.598 151.609 218.884 152.198L217.833 150.592C220.193 149.805 221.277 147.923 221.322 146.108H218.423V144.478H226.267V146.108H223.384C223.435 147.788 224.469 149.485 226.711 150.226L225.711 151.822C224.115 151.299 223.019 150.254 222.384 148.957ZM225.171 152.513C228.262 152.513 230.149 153.547 230.155 155.3C230.149 157.053 228.262 158.081 225.171 158.087C222.092 158.081 220.199 157.053 220.204 155.3C220.199 153.547 222.092 152.513 225.171 152.513ZM225.171 156.536C227.093 156.542 228.138 156.126 228.144 155.3C228.138 154.468 227.093 154.053 225.171 154.053C223.255 154.053 222.216 154.468 222.221 155.3C222.216 156.126 223.255 156.542 225.171 156.536ZM242.735 149.355V143.596H244.673V158.07H242.735V151.002H241.6V157.401H239.712V143.849H241.6V149.355H242.735ZM236.616 151.097V153.468C237.498 153.423 238.358 153.356 239.122 153.266L239.229 154.716C236.902 155.154 233.93 155.221 232.076 155.221L231.801 153.569C232.615 153.569 233.621 153.558 234.677 153.536V151.097H232.436V144.911H238.661V146.54H234.425V149.479H238.79V151.097H236.616ZM256.342 151.137V154.721H259.281V156.373H246.055V154.721H249.004V151.17C247.886 150.496 247.212 149.468 247.218 148.192C247.212 145.855 249.504 144.31 252.64 144.31C255.775 144.31 258.09 145.855 258.09 148.192C258.09 149.451 257.432 150.462 256.342 151.137ZM252.64 145.911C250.572 145.9 249.212 146.743 249.212 148.192C249.212 149.614 250.572 150.485 252.64 150.49C254.69 150.485 256.084 149.614 256.09 148.192C256.084 146.743 254.69 145.9 252.64 145.911ZM251.01 151.906V154.721H254.292V151.906C253.775 152.002 253.224 152.058 252.64 152.058C252.067 152.058 251.522 152.007 251.01 151.906ZM261.983 156.744C261.247 156.744 260.634 156.148 260.646 155.412C260.634 154.682 261.247 154.086 261.983 154.086C262.691 154.086 263.309 154.682 263.315 155.412C263.309 156.148 262.691 156.744 261.983 156.744Z" fill="black"/>
</g>
<g filter="url(#filter3_d_1906_2563)">
<rect x="44" y="205" width="333" height="174.77" rx="15.6626" fill="white"/>
<rect x="45.5" y="206.5" width="330" height="171.77" rx="14.1626" stroke="#7F7CFF" stroke-width="3"/>
<path d="M122.011 288.564H114.665L114.66 287.184L118.397 283.581C119.467 282.511 120.026 281.881 120.031 280.997C120.026 280.004 119.245 279.384 118.206 279.384C117.121 279.384 116.418 280.066 116.423 281.142H114.613C114.603 279.136 116.107 277.833 118.232 277.833C120.387 277.833 121.845 279.126 121.85 280.899C121.845 282.098 121.271 283.064 119.188 285.029L117.312 286.895V286.972H122.011V288.564ZM127.583 288.766C125.029 288.761 123.509 286.75 123.515 283.282C123.515 279.823 125.045 277.833 127.583 277.833C130.116 277.833 131.651 279.829 131.651 283.282C131.646 286.76 130.131 288.766 127.583 288.766ZM127.583 287.153C128.906 287.153 129.728 285.825 129.728 283.282C129.723 280.754 128.901 279.42 127.583 279.42C126.259 279.42 125.437 280.754 125.432 283.282C125.432 285.825 126.254 287.153 127.583 287.153ZM140.591 288.564H133.246L133.241 287.184L136.978 283.581C138.048 282.511 138.606 281.881 138.612 280.997C138.606 280.004 137.826 279.384 136.787 279.384C135.701 279.384 134.998 280.066 135.003 281.142H133.194C133.184 279.136 134.688 277.833 136.813 277.833C138.968 277.833 140.426 279.126 140.431 280.899C140.426 282.098 139.852 283.064 137.769 285.029L135.893 286.895V286.972H140.591V288.564ZM149.611 288.564H142.266L142.261 287.184L145.998 283.581C147.068 282.511 147.626 281.881 147.632 280.997C147.626 280.004 146.846 279.384 145.807 279.384C144.721 279.384 144.018 280.066 144.023 281.142H142.214C142.204 279.136 143.708 277.833 145.833 277.833C147.988 277.833 149.446 279.126 149.451 280.899C149.446 282.098 148.872 283.064 146.789 285.029L144.913 286.895V286.972H149.611V288.564ZM161.909 286.399H160.285V281.994H156.832V280.707H160.285V279.508H156.832V278.226H160.285V276.665H161.909V286.399ZM158.249 282.816L158.409 284.14C156.377 284.517 154.594 284.595 152.635 284.6H151.601V277.539H153.209V283.256C154.894 283.24 156.481 283.137 158.249 282.816ZM154.858 285.535V288.29H162.234V289.609H153.219V285.535H154.858Z" fill="#222222"/>
<path d="M127.33 296.029H128.901V306.615H127.288V297.642H127.226L124.699 299.291V297.755L127.33 296.029ZM138.708 306.615H131.595L131.59 305.447L135.26 301.741C136.423 300.536 137.002 299.869 137.007 298.939C137.002 297.895 136.154 297.233 135.043 297.233C133.869 297.233 133.12 297.972 133.12 299.104H131.59C131.585 297.166 133.058 295.884 135.074 295.884C137.116 295.884 138.527 297.176 138.537 298.893C138.527 300.076 137.969 301.022 135.984 302.971L133.833 305.158V305.235H138.708V306.615ZM146.996 301.818V300.945H149.549V294.768H150.945V302.449H149.549V301.818H146.996ZM144.271 298.924C142.287 298.924 140.989 298.189 140.989 296.964C140.989 295.765 142.287 294.995 144.271 294.995C146.22 294.995 147.528 295.765 147.538 296.964C147.528 298.189 146.22 298.924 144.271 298.924ZM144.271 295.931C143.062 295.931 142.292 296.339 142.302 296.964C142.292 297.59 143.062 297.993 144.271 297.993C145.46 297.993 146.231 297.59 146.231 296.964C146.231 296.339 145.46 295.931 144.271 295.931ZM144.881 302.48H143.512V300.567C142.333 300.603 141.196 300.603 140.172 300.598L140.012 299.601C142.55 299.606 145.755 299.58 148.577 299.285L148.66 300.174C147.419 300.345 146.138 300.448 144.881 300.516V302.48ZM143.393 305.716V306.724H151.338V307.732H142.028V304.785H149.565V303.86H141.976V302.888H150.945V305.716H143.393Z" fill="#222222"/>
<path d="M267.566 288.564H260.454L260.449 287.396L264.119 283.69C265.282 282.486 265.861 281.819 265.866 280.888C265.861 279.844 265.013 279.182 263.902 279.182C262.728 279.182 261.979 279.922 261.979 281.054H260.449C260.443 279.115 261.917 277.833 263.933 277.833C265.974 277.833 267.386 279.126 267.396 280.842C267.386 282.025 266.827 282.971 264.842 284.92L262.692 287.107V287.184H267.566V288.564ZM273.037 288.735C270.592 288.735 269.15 286.745 269.155 283.276C269.155 279.829 270.608 277.833 273.037 277.833C275.472 277.833 276.924 279.834 276.924 283.276C276.924 286.745 275.487 288.735 273.037 288.735ZM273.037 287.35C274.469 287.35 275.322 285.918 275.322 283.276C275.322 280.64 274.459 279.203 273.037 279.203C271.621 279.203 270.758 280.64 270.758 283.276C270.752 285.918 271.61 287.35 273.037 287.35ZM285.709 288.564H278.596L278.591 287.396L282.261 283.69C283.424 282.486 284.003 281.819 284.008 280.888C284.003 279.844 283.155 279.182 282.044 279.182C280.87 279.182 280.121 279.922 280.121 281.054H278.591C278.586 279.115 280.059 277.833 282.075 277.833C284.117 277.833 285.528 279.126 285.538 280.842C285.528 282.025 284.969 282.971 282.985 284.92L280.834 287.107V287.184H285.709V288.564ZM294.612 288.564H287.499L287.494 287.396L291.164 283.69C292.327 282.486 292.906 281.819 292.911 280.888C292.906 279.844 292.058 279.182 290.947 279.182C289.773 279.182 289.024 279.922 289.024 281.054H287.494C287.489 279.115 288.962 277.833 290.978 277.833C293.02 277.833 294.431 279.126 294.441 280.842C294.431 282.025 293.872 282.971 291.888 284.92L289.737 287.107V287.184H294.612V288.564ZM306.869 286.393H305.484V281.943H301.881V280.831H305.484V279.456H301.881V278.35H305.484V276.717H306.869V286.393ZM303.365 282.909L303.51 284.052C301.432 284.439 299.658 284.517 297.725 284.522H296.717V277.621H298.097V283.364C299.834 283.354 301.494 283.251 303.365 282.909ZM299.736 285.551V288.399H307.211V289.536H298.335V285.551H299.736Z" fill="#45454E"/>
<path d="M274.162 296.029H275.734V306.615H274.121V297.642H274.059L271.531 299.291V297.755L274.162 296.029ZM280.873 296.029H282.444V306.615H280.831V297.642H280.769L278.241 299.291V297.755L280.873 296.029ZM291.635 301.818V300.945H294.189V294.768H295.585V302.449H294.189V301.818H291.635ZM288.911 298.924C286.926 298.924 285.629 298.189 285.629 296.964C285.629 295.765 286.926 294.995 288.911 294.995C290.86 294.995 292.168 295.765 292.178 296.964C292.168 298.189 290.86 298.924 288.911 298.924ZM288.911 295.931C287.702 295.931 286.931 296.339 286.942 296.964C286.931 297.59 287.702 297.993 288.911 297.993C290.1 297.993 290.87 297.59 290.87 296.964C290.87 296.339 290.1 295.931 288.911 295.931ZM289.521 302.48H288.151V300.567C286.973 300.603 285.835 300.603 284.812 300.598L284.652 299.601C287.19 299.606 290.395 299.58 293.217 299.285L293.3 300.174C292.059 300.345 290.777 300.448 289.521 300.516V302.48ZM288.032 305.716V306.724H295.977V307.732H286.668V304.785H294.204V303.86H286.616V302.888H295.585V305.716H288.032Z" fill="#45454E"/>
<path d="M181.641 292.379C181.649 298.584 180.322 304.718 177.749 310.365L195.016 320.564C201.967 306.571 203.505 290.504 199.335 275.446C195.164 260.388 185.579 247.401 172.419 238.979L163.402 257.011C169.046 261.022 173.647 266.325 176.82 272.479C179.993 278.632 181.646 285.456 181.641 292.379Z" fill="#FFAA54"/>
<path d="M94.8315 292.382C94.8321 284.414 97.026 276.599 101.173 269.795C105.32 262.991 111.259 257.459 118.341 253.807C125.423 250.154 133.374 248.521 141.322 249.086C149.27 249.652 156.909 252.395 163.402 257.014L172.416 238.983C161.913 232.271 149.666 228.801 137.203 229.009C124.74 229.216 112.614 233.091 102.341 240.149C92.0672 247.208 84.101 257.137 79.4372 268.696C74.7735 280.255 73.6189 292.932 76.1178 305.144L95.8543 301.777C95.1734 298.692 94.8305 295.542 94.8315 292.382Z" fill="#FFD094"/>
<path d="M95.8537 301.777L76.1177 305.144C78.629 317.31 84.6549 328.471 93.4486 337.245C102.242 346.019 113.417 352.02 125.589 354.504L129.203 334.844C121.061 333.106 113.589 329.065 107.677 323.204C101.765 317.342 97.6615 309.905 95.8542 301.778" fill="#F1DECA"/>
<path d="M158.753 330.638L168.612 347.998C180.017 341.777 189.234 332.201 195.014 320.567L177.748 310.367C173.797 319.016 167.126 326.134 158.752 330.638" fill="#FF7E44"/>
<path d="M138.236 335.788C135.2 335.789 132.173 335.472 129.204 334.844L125.588 354.505C133.076 356.025 140.776 356.178 148.318 354.956L145.642 335.153C143.196 335.575 140.718 335.787 138.236 335.788" fill="#F0C593"/>
<path d="M158.753 330.639C154.655 332.84 150.227 334.364 145.642 335.151L148.318 354.955C155.428 353.802 162.29 351.45 168.612 347.998L158.753 330.639Z" fill="#C55500"/>
<path d="M326.176 292.379C326.184 298.584 324.857 304.718 322.284 310.365L339.551 320.564C346.502 306.571 348.04 290.504 343.87 275.446C339.699 260.388 330.114 247.401 316.954 238.979L307.938 257.011C313.581 261.022 318.182 266.325 321.355 272.479C324.528 278.632 326.181 285.456 326.176 292.379Z" fill="#FF7E44"/>
<path d="M239.366 292.382C239.367 284.414 241.561 276.599 245.708 269.795C249.854 262.991 255.794 257.459 262.876 253.807C269.958 250.154 277.908 248.521 285.857 249.086C293.805 249.652 301.444 252.395 307.937 257.014L316.951 238.983C306.448 232.271 294.2 228.801 281.737 229.009C269.275 229.216 257.149 233.091 246.875 240.149C236.602 247.208 228.636 257.137 223.972 268.696C219.308 280.255 218.154 292.932 220.652 305.144L240.389 301.777C239.708 298.692 239.365 295.542 239.366 292.382Z" fill="#F0C593"/>
<path d="M240.388 301.777L220.652 305.144C223.164 317.31 229.19 328.471 237.983 337.245C246.777 346.019 257.952 352.02 270.123 354.504L273.738 334.844C265.596 333.106 258.124 329.065 252.212 323.204C246.3 317.342 242.196 309.905 240.389 301.778" fill="#C55500"/>
<path d="M303.288 330.638L313.147 347.998C324.551 341.777 333.768 332.201 339.549 320.567L322.283 310.367C318.332 319.016 311.661 326.134 303.287 330.638" fill="#FFAA54"/>
<path d="M282.771 335.788C279.736 335.789 276.708 335.472 273.739 334.844L270.124 354.505C277.611 356.025 285.311 356.178 292.853 354.956L290.177 335.153C287.731 335.575 285.253 335.787 282.771 335.788" fill="#F1DECA"/>
<path d="M303.288 330.639C299.19 332.84 294.762 334.364 290.177 335.151L292.853 354.955C299.963 353.802 306.825 351.45 313.147 347.998L303.288 330.639Z" fill="#FFD094"/>
</g>
</g>
</g>
<defs>
<filter id="filter0_i_1906_2563" x="0" y="0" width="421" height="420" filterUnits="userSpaceOnUse" color-interpolation-filters="sRGB">
<feFlood flood-opacity="0" result="BackgroundImageFix"/>
<feBlend mode="normal" in="SourceGraphic" in2="BackgroundImageFix" result="shape"/>
<feColorMatrix in="SourceAlpha" type="matrix" values="0 0 0 0 0 0 0 0 0 0 0 0 0 0 0 0 0 0 127 0" result="hardAlpha"/>
<feOffset/>
<feGaussianBlur stdDeviation="2"/>
<feComposite in2="hardAlpha" operator="arithmetic" k2="-1" k3="1"/>
<feColorMatrix type="matrix" values="0 0 0 0 0 0 0 0 0 0 0 0 0 0 0 0 0 0 0.16 0"/>
<feBlend mode="normal" in2="shape" result="effect1_innerShadow_1906_2563"/>
</filter>
<filter id="filter1_d_1906_2563" x="58" y="23" width="305" height="540" filterUnits="userSpaceOnUse" color-interpolation-filters="sRGB">
<feFlood flood-opacity="0" result="BackgroundImageFix"/>
<feColorMatrix in="SourceAlpha" type="matrix" values="0 0 0 0 0 0 0 0 0 0 0 0 0 0 0 0 0 0 127 0" result="hardAlpha"/>
<feOffset dy="1"/>
<feGaussianBlur stdDeviation="8"/>
<feComposite in2="hardAlpha" operator="out"/>
<feColorMatrix type="matrix" values="0 0 0 0 0 0 0 0 0 0 0 0 0 0 0 0 0 0 0.08 0"/>
<feBlend mode="normal" in2="BackgroundImageFix" result="effect1_dropShadow_1906_2563"/>
<feBlend mode="normal" in="SourceGraphic" in2="effect1_dropShadow_1906_2563" result="shape"/>
</filter>
<filter id="filter2_i_1906_2563" x="85" y="50" width="251" height="482.885" filterUnits="userSpaceOnUse" color-interpolation-filters="sRGB">
<feFlood flood-opacity="0" result="BackgroundImageFix"/>
<feBlend mode="normal" in="SourceGraphic" in2="BackgroundImageFix" result="shape"/>
<feColorMatrix in="SourceAlpha" type="matrix" values="0 0 0 0 0 0 0 0 0 0 0 0 0 0 0 0 0 0 127 0" result="hardAlpha"/>
<feOffset dy="0.885417"/>
<feGaussianBlur stdDeviation="0.885417"/>
<feComposite in2="hardAlpha" operator="arithmetic" k2="-1" k3="1"/>
<feColorMatrix type="matrix" values="0 0 0 0 0.833512 0 0 0 0 0.831423 0 0 0 0 0.824016 0 0 0 0.25 0"/>
<feBlend mode="normal" in2="shape" result="effect1_innerShadow_1906_2563"/>
</filter>
<filter id="filter3_d_1906_2563" x="28" y="187" width="365" height="206.77" filterUnits="userSpaceOnUse" color-interpolation-filters="sRGB">
<feFlood flood-opacity="0" result="BackgroundImageFix"/>
<feColorMatrix in="SourceAlpha" type="matrix" values="0 0 0 0 0 0 0 0 0 0 0 0 0 0 0 0 0 0 127 0" result="hardAlpha"/>
<feOffset dy="-2"/>
<feGaussianBlur stdDeviation="8"/>
<feComposite in2="hardAlpha" operator="out"/>
<feColorMatrix type="matrix" values="0 0 0 0 0 0 0 0 0 0 0 0 0 0 0 0 0 0 0.16 0"/>
<feBlend mode="normal" in2="BackgroundImageFix" result="effect1_dropShadow_1906_2563"/>
<feBlend mode="normal" in="SourceGraphic" in2="effect1_dropShadow_1906_2563" result="shape"/>
</filter>
<linearGradient id="paint0_linear_1906_2563" x1="210.5" y1="0" x2="210.5" y2="420" gradientUnits="userSpaceOnUse">
<stop stop-color="#A29CE7"/>
<stop offset="1" stop-color="#A29CE7"/>
</linearGradient>
<clipPath id="clip0_1906_2563">
<rect width="421" height="420" rx="20" fill="white"/>
</clipPath>
<clipPath id="clip1_1906_2563">
<rect width="230" height="110.973" fill="white" transform="translate(97 102)"/>
</clipPath>
</defs>
</svg>
