<svg width="421" height="420" viewBox="0 0 421 420" fill="none" xmlns="http://www.w3.org/2000/svg">
<g filter="url(#filter0_i_1909_2666)">
<g clip-path="url(#clip0_1909_2666)">
<rect width="421" height="420" rx="20" fill="url(#paint0_linear_1909_2666)" fill-opacity="0.3"/>
<g filter="url(#filter1_d_1909_2666)">
<rect x="74" y="38" width="273" height="508" rx="36" fill="#F4F4F4"/>
<g filter="url(#filter2_i_1909_2666)">
<rect x="85" y="50" width="251" height="482" rx="28" fill="white"/>
</g>
<path d="M118.923 68.0127C119.492 68.0127 120.031 68.118 120.54 68.3287C121.05 68.5345 121.501 68.8579 121.893 69.2989C122.289 69.7349 122.601 70.296 122.826 70.9819C123.051 71.663 123.164 72.4837 123.164 73.4441V73.4588C123.164 74.6494 122.993 75.6686 122.65 76.5162C122.307 77.3639 121.814 78.0156 121.172 78.4712C120.535 78.922 119.773 79.1474 118.887 79.1474C118.235 79.1474 117.647 79.0298 117.123 78.7946C116.603 78.5545 116.172 78.2262 115.829 77.8098C115.491 77.3884 115.263 76.9082 115.146 76.3692L115.131 76.2884H116.99L117.02 76.3619C117.113 76.6069 117.245 76.8225 117.417 77.0087C117.593 77.1948 117.804 77.3394 118.049 77.4423C118.299 77.5403 118.578 77.5893 118.887 77.5893C119.445 77.5893 119.901 77.4251 120.254 77.0968C120.611 76.7637 120.878 76.3202 121.055 75.7666C121.236 75.208 121.339 74.5906 121.363 73.9144C121.368 73.841 121.371 73.7699 121.371 73.7013C121.371 73.6278 121.371 73.5568 121.371 73.4882L121.04 71.7169C121.04 71.3151 120.947 70.9501 120.761 70.6218C120.574 70.2935 120.322 70.0338 120.004 69.8427C119.69 69.6517 119.335 69.5561 118.938 69.5561C118.556 69.5561 118.205 69.6492 117.887 69.8354C117.568 70.0216 117.314 70.2764 117.123 70.5998C116.932 70.9182 116.836 71.2759 116.836 71.6728V71.6875C116.836 72.0991 116.927 72.4641 117.108 72.7826C117.289 73.0962 117.537 73.3436 117.85 73.5249C118.164 73.7062 118.521 73.7969 118.923 73.7969C119.325 73.7969 119.685 73.7087 120.004 73.5323C120.322 73.3559 120.574 73.1109 120.761 72.7973C120.947 72.4837 121.04 72.1285 121.04 71.7316V71.7169H121.481V73.6719H121.224C121.096 73.9512 120.908 74.2109 120.658 74.451C120.408 74.6911 120.099 74.8846 119.732 75.0316C119.369 75.1786 118.943 75.2521 118.453 75.2521C117.777 75.2521 117.179 75.1002 116.66 74.7964C116.14 74.4926 115.731 74.0761 115.432 73.547C115.138 73.0178 114.991 72.42 114.991 71.7537V71.739C114.991 71.0187 115.158 70.3793 115.491 69.8207C115.829 69.2572 116.295 68.8162 116.887 68.4978C117.485 68.1744 118.164 68.0127 118.923 68.0127ZM126.501 77.457C126.168 77.457 125.888 77.3467 125.663 77.1262C125.442 76.9009 125.332 76.6265 125.332 76.3031C125.332 75.9748 125.442 75.7004 125.663 75.4799C125.888 75.2545 126.168 75.1418 126.501 75.1418C126.839 75.1418 127.118 75.2545 127.339 75.4799C127.559 75.7004 127.669 75.9748 127.669 76.3031C127.669 76.6265 127.559 76.9009 127.339 77.1262C127.118 77.3467 126.839 77.457 126.501 77.457ZM126.501 72.0035C126.168 72.0035 125.888 71.8933 125.663 71.6728C125.442 71.4474 125.332 71.173 125.332 70.8496C125.332 70.5214 125.442 70.247 125.663 70.0265C125.888 69.8011 126.168 69.6884 126.501 69.6884C126.839 69.6884 127.118 69.8011 127.339 70.0265C127.559 70.247 127.669 70.5214 127.669 70.8496C127.669 71.173 127.559 71.4474 127.339 71.6728C127.118 71.8933 126.839 72.0035 126.501 72.0035ZM134.982 78.8828V76.847H129.793V75.2962C130.073 74.8209 130.352 74.3432 130.631 73.863C130.915 73.3828 131.202 72.9051 131.491 72.4298C131.785 71.9496 132.077 71.4768 132.366 71.0113C132.66 70.541 132.951 70.0779 133.24 69.6223C133.534 69.1617 133.828 68.7133 134.122 68.2773H136.79V75.2815H138.223V76.847H136.79V78.8828H134.982ZM131.557 75.3256H135.012V69.7913H134.901C134.686 70.1245 134.463 70.4675 134.233 70.8202C134.007 71.173 133.779 71.5332 133.549 71.9006C133.319 72.2681 133.091 72.6381 132.866 73.0104C132.64 73.3779 132.417 73.7479 132.197 74.1202C131.976 74.4877 131.763 74.8528 131.557 75.2153V75.3256ZM142.611 78.8828V70.1441H142.479L139.84 72.0035V70.2249L142.611 68.2773H144.5V78.8828H142.611Z" fill="black"/>
<rect opacity="0.35" x="301.621" y="68.4525" width="21.25" height="10.625" rx="3.36458" stroke="black" stroke-width="0.885417"/>
<path opacity="0.4" d="M324.199 72.2422V75.8507C324.911 75.5451 325.375 74.8341 325.375 74.0464C325.375 73.2588 324.911 72.5478 324.199 72.2422Z" fill="black"/>
<rect x="302.949" y="69.7812" width="18.5938" height="7.96875" rx="2.21354" fill="black"/>
<path fill-rule="evenodd" clip-rule="evenodd" d="M287.251 70.7579C289.453 70.758 291.571 71.5744 293.167 73.0384C293.287 73.1515 293.479 73.15 293.598 73.0352L294.747 71.9166C294.806 71.8583 294.84 71.7795 294.839 71.6974C294.839 71.6153 294.805 71.5368 294.744 71.4793C290.555 67.6059 283.946 67.6059 279.758 71.4793C279.697 71.5368 279.662 71.6153 279.662 71.6973C279.661 71.7794 279.695 71.8583 279.755 71.9166L280.904 73.0352C281.022 73.1502 281.214 73.1516 281.334 73.0384C282.931 71.5743 285.049 70.7579 287.251 70.7579ZM287.248 74.4946C288.45 74.4945 289.609 74.9476 290.5 75.7659C290.62 75.882 290.81 75.8795 290.927 75.7602L292.067 74.5921C292.127 74.5308 292.16 74.4477 292.16 74.3613C292.159 74.2749 292.124 74.1925 292.063 74.1325C289.35 71.5729 285.149 71.5729 282.436 74.1325C282.375 74.1925 282.34 74.275 282.339 74.3614C282.338 74.4478 282.371 74.5309 282.432 74.5921L283.571 75.7602C283.689 75.8795 283.878 75.882 283.999 75.7659C284.889 74.9482 286.047 74.4951 287.248 74.4946ZM289.483 76.9681C289.485 77.0613 289.452 77.1513 289.393 77.2166L287.465 79.3901C287.409 79.454 287.332 79.4899 287.251 79.4899C287.171 79.4899 287.094 79.454 287.038 79.3901L285.11 77.2166C285.05 77.1512 285.018 77.0613 285.019 76.968C285.021 76.8747 285.057 76.7864 285.119 76.7239C286.35 75.5605 288.153 75.5605 289.384 76.7239C289.445 76.7864 289.482 76.8748 289.483 76.9681Z" fill="black"/>
<path fill-rule="evenodd" clip-rule="evenodd" d="M273.022 69.4993C273.022 68.9388 272.599 68.4844 272.078 68.4844H271.133C270.611 68.4844 270.189 68.9388 270.189 69.4993V78.295C270.189 78.8555 270.611 79.3098 271.133 79.3098H272.078C272.599 79.3098 273.022 78.8555 273.022 78.295V69.4993ZM266.44 70.6495H267.384C267.906 70.6495 268.329 71.1148 268.329 71.6887V78.2706C268.329 78.8446 267.906 79.3098 267.384 79.3098H266.44C265.918 79.3098 265.495 78.8446 265.495 78.2706V71.6887C265.495 71.1148 265.918 70.6495 266.44 70.6495ZM262.604 72.995H261.66C261.138 72.995 260.715 73.4662 260.715 74.0475V78.2574C260.715 78.8386 261.138 79.3098 261.66 79.3098H262.604C263.126 79.3098 263.549 78.8386 263.549 78.2574V74.0475C263.549 73.4662 263.126 72.995 262.604 72.995ZM257.911 75.1601H256.966C256.445 75.1601 256.022 75.6246 256.022 76.1975V78.2724C256.022 78.8454 256.445 79.3098 256.966 79.3098H257.911C258.432 79.3098 258.855 78.8454 258.855 78.2724V76.1975C258.855 75.6246 258.432 75.1601 257.911 75.1601Z" fill="black"/>
</g>
<path d="M311.158 353.805H109.581C102.081 353.805 96 359.885 96 367.386V418.853C96 426.353 102.081 432.434 109.581 432.434H311.158C318.659 432.434 324.74 426.353 324.74 418.853V367.386C324.74 359.885 318.659 353.805 311.158 353.805Z" fill="#FAFAFA"/>
<path d="M123.465 386.112H124.854V391.814H115.835V386.112H117.214V387.822H123.465V386.112ZM117.214 390.694H123.465V388.937H117.214V390.694ZM114.337 393.301H126.357V394.411H120.998V398.713H119.629V394.411H114.337V393.301ZM137.563 390.813H139.6V391.98H137.563V398.697H136.169V385.578H137.563V390.813ZM127.995 386.967H134.127C134.116 390.756 132.442 394.146 128.114 396.277L127.336 395.198C130.633 393.555 132.416 391.181 132.712 388.118H127.995V386.967ZM146.281 390.264C143.321 390.253 141.585 389.455 141.585 387.988C141.585 386.532 143.321 385.723 146.281 385.723C149.241 385.723 150.967 386.532 150.967 387.988C150.967 389.455 149.241 390.253 146.281 390.264ZM146.281 386.77C144.192 386.775 143.031 387.216 143.042 387.988C143.031 388.797 144.192 389.212 146.281 389.217C148.386 389.212 149.541 388.797 149.541 387.988C149.541 387.216 148.386 386.775 146.281 386.77ZM152.278 390.974V392.088H149.054V393.26H150.76V396.334H143.119V397.51H151.138V398.588H141.756V395.333H149.391V394.302H141.73V393.26H143.477V392.088H140.305V390.974H152.278ZM144.856 393.26H147.665V392.088H144.856V393.26Z" fill="black"/>
<path d="M244.981 391.33C241.503 391.33 238.954 389.277 238.889 386.41H242.253C242.334 387.705 243.523 388.601 244.981 388.601C246.708 388.601 247.938 387.379 247.93 385.636C247.938 383.877 246.684 382.639 244.924 382.63C243.678 382.63 242.798 383.095 242.318 384.023H239.166L240.078 374.42H250.341V377.263H242.929L242.473 381.474H242.603C243.222 380.651 244.485 380.057 245.951 380.057C249.013 380.057 251.286 382.345 251.278 385.546C251.286 388.919 248.728 391.33 244.981 391.33ZM255.127 391.305C254.06 391.305 253.172 390.442 253.189 389.375C253.172 388.316 254.06 387.452 255.127 387.452C256.154 387.452 257.05 388.316 257.058 389.375C257.05 390.442 256.154 391.305 255.127 391.305ZM265.368 391.33C261.556 391.33 258.828 389.326 258.828 386.614C258.828 384.512 260.441 382.81 262.493 382.492V382.378C260.701 382.028 259.455 380.513 259.455 378.68C259.455 376.09 261.956 374.192 265.368 374.192C268.765 374.192 271.266 376.09 271.274 378.68C271.266 380.521 270.003 382.028 268.236 382.378V382.492C270.272 382.81 271.901 384.512 271.909 386.614C271.901 389.326 269.164 391.33 265.368 391.33ZM265.368 381.303C266.835 381.303 267.894 380.366 267.894 379.038C267.894 377.727 266.851 376.815 265.368 376.815C263.87 376.815 262.843 377.727 262.843 379.038C262.843 380.366 263.894 381.303 265.368 381.303ZM265.368 388.764C267.128 388.764 268.301 387.77 268.301 386.345C268.301 384.895 267.063 383.836 265.368 383.836C263.674 383.836 262.428 384.895 262.444 386.345C262.428 387.762 263.601 388.764 265.368 388.764ZM286.195 391.102H274.246L274.238 388.601L280.233 383.087C281.781 381.596 282.619 380.676 282.628 379.34C282.619 377.865 281.495 376.953 279.98 376.953C278.408 376.953 277.374 377.939 277.382 379.543H274.091C274.083 376.277 276.502 374.192 280.005 374.192C283.589 374.192 285.959 376.228 285.967 379.12C285.959 381.018 285.039 382.582 281.601 385.693L279.06 388.145V388.259H286.195V391.102ZM289.181 378.427V377.548C289.181 375.536 290.525 373.85 292.838 373.85C295.233 373.85 296.496 375.536 296.496 377.548V378.427C296.496 380.439 295.201 382.101 292.838 382.101C290.46 382.101 289.181 380.415 289.181 378.427ZM292.366 391.102H290.248L301.717 374.42H303.835L292.366 391.102ZM291.543 377.548V378.427C291.543 379.226 291.869 380.04 292.838 380.04C293.84 380.04 294.133 379.226 294.133 378.427V377.548C294.133 376.75 293.873 375.911 292.838 375.911C291.861 375.911 291.543 376.766 291.543 377.548ZM297.742 387.974V387.094C297.742 385.107 299.053 383.396 301.391 383.396C303.778 383.396 305.048 385.082 305.048 387.094V387.974C305.048 389.961 303.745 391.672 301.391 391.672C299.021 391.672 297.742 389.961 297.742 387.974ZM300.08 387.094V387.974C300.08 388.756 300.397 389.587 301.391 389.587C302.385 389.587 302.694 388.772 302.694 387.974V387.094C302.694 386.296 302.417 385.457 301.391 385.457C300.405 385.457 300.08 386.296 300.08 387.094Z" fill="black"/>
<path d="M275.591 414.193C273.606 414.193 272.435 412.578 272.44 409.762C272.44 406.963 273.619 405.344 275.591 405.344C277.567 405.344 278.746 406.968 278.746 409.762C278.746 412.578 277.58 414.193 275.591 414.193ZM275.591 413.069C276.753 413.069 277.445 411.906 277.445 409.762C277.445 407.622 276.745 406.456 275.591 406.456C274.441 406.456 273.74 407.622 273.74 409.762C273.736 411.906 274.433 413.069 275.591 413.069ZM280.626 414.134C280.16 414.134 279.774 413.757 279.783 413.295C279.774 412.834 280.16 412.456 280.626 412.456C281.079 412.456 281.465 412.834 281.465 413.295C281.465 413.757 281.079 414.134 280.626 414.134ZM285.838 405.344C287.412 405.356 289.069 406.305 289.073 409.452C289.073 412.464 287.777 414.172 285.717 414.172C284.135 414.172 283.027 413.194 282.826 411.801H284.114C284.294 412.523 284.848 413.031 285.717 413.031C287.038 413.031 287.819 411.873 287.827 409.909H287.722C287.257 410.639 286.451 411.075 285.524 411.075C283.984 411.075 282.75 409.896 282.75 408.256C282.75 406.615 283.967 405.331 285.838 405.344ZM285.838 406.439C284.798 406.439 284.013 407.244 284.021 408.235C284.026 409.229 284.768 410.014 285.813 410.014C286.845 410.014 287.651 409.166 287.651 408.218C287.651 407.286 286.887 406.439 285.838 406.439ZM292.436 405.461H293.712V414.055H292.402V406.77H292.352L290.3 408.109V406.863L292.436 405.461ZM296.053 407.526V407.072C296.053 406.099 296.691 405.281 297.807 405.281C298.949 405.281 299.549 406.099 299.549 407.072V407.526C299.549 408.499 298.932 409.313 297.807 409.313C296.666 409.313 296.053 408.495 296.053 407.526ZM297.463 414.055H296.46L302.368 405.461H303.371L297.463 414.055ZM297.039 407.072V407.526C297.039 408.004 297.241 408.47 297.807 408.47C298.37 408.47 298.558 408.004 298.558 407.526V407.072C298.558 406.594 298.386 406.124 297.807 406.124C297.253 406.124 297.039 406.598 297.039 407.072ZM300.384 412.443V411.99C300.384 411.021 301.009 410.199 302.134 410.199C303.271 410.199 303.875 411.017 303.875 411.99V412.443C303.875 413.413 303.254 414.235 302.134 414.235C300.992 414.235 300.384 413.413 300.384 412.443ZM301.366 411.99V412.443C301.366 412.918 301.559 413.388 302.134 413.388C302.692 413.388 302.889 412.922 302.889 412.443V411.99C302.889 411.512 302.708 411.042 302.134 411.042C301.571 411.042 301.366 411.512 301.366 411.99Z" fill="#245BF3"/>
<path d="M264.284 412.292C264.252 412.344 264.207 412.386 264.154 412.416C264.101 412.445 264.041 412.461 263.98 412.461C263.919 412.461 263.86 412.445 263.806 412.416C263.753 412.386 263.708 412.344 263.676 412.292L260.746 407.605C260.712 407.551 260.693 407.489 260.691 407.425C260.69 407.361 260.705 407.298 260.736 407.242C260.768 407.186 260.813 407.14 260.868 407.107C260.923 407.075 260.986 407.058 261.05 407.058H266.912C266.975 407.058 267.038 407.075 267.093 407.108C267.148 407.14 267.193 407.187 267.224 407.242C267.255 407.298 267.271 407.361 267.269 407.425C267.267 407.489 267.249 407.551 267.215 407.605L264.284 412.292Z" fill="#245BF3"/>
<path d="M107.683 116.173C105.202 116.173 103.739 114.154 103.745 110.636C103.745 107.138 105.218 105.114 107.683 105.114C110.153 105.114 111.626 107.143 111.626 110.636C111.626 114.154 110.168 116.173 107.683 116.173ZM107.683 114.768C109.135 114.768 110 113.315 110 110.636C110 107.961 109.125 106.504 107.683 106.504C106.246 106.504 105.37 107.961 105.37 110.636C105.365 113.315 106.235 114.768 107.683 114.768ZM115.802 105.261H117.396V116H115.76V106.897H115.697L113.133 108.57V107.012L115.802 105.261ZM126.72 111.134V110.248H129.311V103.981H130.726V111.774H129.311V111.134H126.72ZM123.957 108.197C121.943 108.197 120.627 107.453 120.627 106.21C120.627 104.993 121.943 104.212 123.957 104.212C125.934 104.212 127.26 104.993 127.271 106.21C127.26 107.453 125.934 108.197 123.957 108.197ZM123.957 105.161C122.73 105.161 121.948 105.575 121.959 106.21C121.948 106.844 122.73 107.253 123.957 107.253C125.163 107.253 125.944 106.844 125.944 106.21C125.944 105.575 125.163 105.161 123.957 105.161ZM124.575 111.805H123.186V109.865C121.99 109.901 120.837 109.901 119.798 109.896L119.636 108.884C122.211 108.889 125.462 108.863 128.325 108.564L128.409 109.466C127.15 109.639 125.85 109.744 124.575 109.812V111.805ZM123.065 115.088V116.11H131.125V117.133H121.681V114.144H129.326V113.205H121.628V112.219H130.726V115.088H123.065ZM142.01 104.511H143.416V110.279H134.292V104.511H135.686V106.241H142.01V104.511ZM135.686 109.146H142.01V107.369H135.686V109.146ZM132.776 111.784H144.937V112.906H139.514V117.259H138.13V112.906H132.776V111.784ZM155.607 108.884V103.971H157.002V117.285H155.607V110.033H152.959V108.884H155.607ZM147.946 110.006V112.98C150.169 112.974 151.711 112.906 153.478 112.602L153.63 113.75C151.695 114.06 150.028 114.138 147.558 114.144H146.53V105.151H152.739V106.304H147.946V108.884H152.183V110.006H147.946ZM166.944 116.173C164.463 116.173 163 114.154 163.006 110.636C163.006 107.138 164.479 105.114 166.944 105.114C169.414 105.114 170.887 107.143 170.887 110.636C170.887 114.154 169.429 116.173 166.944 116.173ZM166.944 114.768C168.396 114.768 169.261 113.315 169.261 110.636C169.261 107.961 168.386 106.504 166.944 106.504C165.507 106.504 164.631 107.961 164.631 110.636C164.626 113.315 165.496 114.768 166.944 114.768ZM176.463 116.147C174.481 116.131 172.404 114.956 172.41 110.987C172.41 107.248 174.03 105.114 176.599 105.114C178.582 105.114 179.956 106.346 180.207 108.05H178.597C178.377 107.175 177.685 106.54 176.599 106.54C174.942 106.54 173.978 107.987 173.978 110.415H174.098C174.675 109.498 175.687 108.963 176.856 108.963C178.77 108.963 180.312 110.431 180.312 112.487C180.312 114.563 178.776 116.163 176.463 116.147ZM176.458 114.778C177.753 114.778 178.723 113.771 178.728 112.513C178.723 111.286 177.785 110.284 176.489 110.284C175.184 110.284 174.187 111.333 174.177 112.534C174.177 113.719 175.131 114.778 176.458 114.778ZM188.636 111.134V110.248H191.226V103.981H192.642V111.774H191.226V111.134H188.636ZM185.872 108.197C183.859 108.197 182.542 107.453 182.542 106.21C182.542 104.993 183.859 104.212 185.872 104.212C187.849 104.212 189.176 104.993 189.186 106.21C189.176 107.453 187.849 108.197 185.872 108.197ZM185.872 105.161C184.645 105.161 183.864 105.575 183.874 106.21C183.864 106.844 184.645 107.253 185.872 107.253C187.078 107.253 187.86 106.844 187.86 106.21C187.86 105.575 187.078 105.161 185.872 105.161ZM186.491 111.805H185.101V109.865C183.906 109.901 182.752 109.901 181.714 109.896L181.551 108.884C184.126 108.889 187.377 108.863 190.24 108.564L190.324 109.466C189.066 109.639 187.765 109.744 186.491 109.812V111.805ZM184.981 115.088V116.11H193.041V117.133H183.596V114.144H191.242V113.205H183.544V112.219H192.642V115.088H184.981ZM205.268 109.367H207.203V110.536H205.268V117.259H203.863V103.971H205.268V109.367ZM198.719 105.392C198.709 108.716 198.111 111.742 195.709 114.312L194.582 113.52C196.527 111.501 197.235 109.215 197.377 106.556H195.064V105.392H198.719ZM199.149 105.392H202.384C202.374 108.758 201.954 112.298 199.516 115.187L198.383 114.406C200.366 112.104 200.942 109.388 201.052 106.556H199.149V105.392ZM217.428 117.259V103.971H218.844V117.259H217.428ZM212.725 106.472V107.893C212.725 110.111 214.182 112.408 216.227 113.278L215.457 114.39C213.889 113.698 212.651 112.23 212.032 110.468C211.414 112.356 210.166 113.971 208.624 114.721L207.801 113.609C209.804 112.675 211.288 110.174 211.298 107.893V106.472H208.267V105.308H215.755V106.472H212.725Z" fill="black"/>
<path d="M113.566 130.751V125.549H114.919V138.837H113.566V131.915H111.93V138.181H110.593V125.806H111.93V130.751H113.566ZM109.099 135.334H103.939V127.043H109.099V135.334ZM107.777 128.16H105.265V134.217H107.777V128.16ZM117.624 130.856L117.221 129.796C119.769 129.655 121.562 128.873 121.846 127.746H117.834V126.671H121.971V125.496H123.356V126.671H127.514V127.746H123.476C123.754 128.873 125.548 129.655 128.117 129.796L127.692 130.856C125.38 130.688 123.492 130.017 122.664 128.852C121.835 130.017 119.947 130.688 117.624 130.856ZM128.715 131.38V132.434H123.361V133.546H127.194V136.545H119.465V137.641H127.577V138.711H118.086V135.57H125.81V134.573H118.06V133.546H121.966V132.434H116.633V131.38H128.715ZM139.815 130.751V125.549H141.168V138.837H139.815V131.915H138.179V138.181H136.842V125.806H138.179V130.751H139.815ZM135.348 135.334H130.188V127.043H135.348V135.334ZM134.026 128.16H131.515V134.217H134.026V128.16ZM152.479 125.549H153.889V132.68H152.479V125.549ZM146.674 126.162C148.708 126.152 150.203 127.416 150.203 129.251C150.203 131.06 148.708 132.324 146.674 132.319C144.634 132.324 143.134 131.06 143.134 129.251C143.134 127.416 144.634 126.152 146.674 126.162ZM146.674 127.347C145.41 127.337 144.503 128.108 144.513 129.251C144.503 130.389 145.41 131.154 146.674 131.16C147.922 131.154 148.824 130.389 148.824 129.251C148.824 128.108 147.922 127.337 146.674 127.347ZM145.19 133.325H146.569V134.815H152.489V133.325H153.889V138.669H145.19V133.325ZM146.569 135.926V137.52H152.489V135.926H146.569ZM169.327 138.837V125.549H170.742V138.837H169.327ZM160.47 126.98H166.794C166.783 130.866 165.131 134.238 160.569 136.414L159.825 135.276C163.359 133.598 165.079 131.202 165.357 128.103H160.47V126.98ZM174.014 131.459L173.495 130.347C175.975 130.032 177.868 128.758 177.941 127.316H173.93V126.183H183.846V127.316H179.814C179.876 128.758 181.79 130.032 184.271 130.347L183.736 131.459C181.46 131.154 179.588 130.095 178.87 128.601C178.151 130.095 176.29 131.154 174.014 131.459ZM172.803 133.462V132.313H184.963V133.462H179.693V136.031H178.298V133.462H172.803ZM174.318 134.762H175.723V137.41H183.615V138.564H174.318V134.762ZM199.268 125.559H200.678V135.292H199.268V125.559ZM193.777 130.038C193.19 131.579 192.042 132.812 190.484 133.404L189.729 132.298C191.811 131.527 193.043 129.618 193.043 127.61V126.299H194.485V127.61C194.475 129.55 195.712 131.338 197.757 132.046L197.034 133.168C195.503 132.607 194.37 131.48 193.777 130.038ZM193.4 134.379V137.41H201.066V138.564H191.984V134.379H193.4ZM212.125 128.129V127.972H204.055V126.828H213.53V128.129C213.525 129.775 213.525 131.611 213.021 134.337L211.606 134.18C212.114 131.611 212.114 129.728 212.125 128.129ZM208.779 131.191V135.879H214.893V137.043H202.78V135.879H207.384V131.191H208.779ZM225.512 125.554H226.927V135.512H225.512V125.554ZM224.494 132.376L224.599 133.404C221.757 133.797 218.647 133.876 216.157 133.876L215.957 132.738C217.09 132.733 218.354 132.722 219.649 132.68V130.95H217.142V126.393H223.529V127.542H218.558V129.812H223.64V130.95H221.054V132.628C222.229 132.576 223.404 132.497 224.494 132.376ZM219.57 134.804V137.41H227.342V138.564H218.155V134.804H219.57ZM241.95 126.089H243.356V131.857H234.232V126.089H235.626V127.819H241.95V126.089ZM235.626 130.724H241.95V128.947H235.626V130.724ZM232.716 133.362H244.876V134.484H239.454V138.837H238.07V134.484H232.716V133.362ZM256.213 130.845H258.274V132.025H256.213V138.821H254.802V125.549H256.213V130.845ZM246.533 126.954H252.736C252.726 130.787 251.032 134.217 246.654 136.372L245.867 135.281C249.202 133.619 251.006 131.217 251.305 128.118H246.533V126.954ZM269.06 138.837V125.549H270.413V138.837H269.06ZM264.256 130.221H266.328V125.806H267.654V138.181H266.328V131.39H264.256V130.221ZM263.035 126.76V129.178C263.035 131.307 263.921 133.567 265.704 134.652L264.912 135.743C263.669 134.993 262.83 133.661 262.374 132.125C261.886 133.808 260.974 135.245 259.684 136.031L258.803 134.982C260.685 133.86 261.671 131.506 261.671 129.241V126.76H263.035ZM275.105 129.44H282.866V130.567H273.71V126.031H275.105V129.44ZM272.09 133.367V132.24H284.25V133.367H272.09ZM273.611 134.631H275.011V137.374H282.95V138.522H273.611V134.631Z" fill="black"/>
<path d="M108.529 158.725C106.072 158.713 103.73 157.253 103.736 152.9C103.748 148.901 105.654 146.53 108.622 146.53C111.01 146.53 112.644 148.037 112.888 149.991H110.459C110.262 149.162 109.578 148.646 108.622 148.646C107.011 148.646 106.159 150.095 106.153 152.425H106.257C106.808 151.376 107.979 150.756 109.3 150.756C111.433 150.756 113.021 152.361 113.015 154.587C113.021 157.003 111.201 158.736 108.529 158.725ZM108.518 156.783C109.729 156.783 110.627 155.856 110.621 154.656C110.627 153.474 109.746 152.552 108.535 152.552C107.324 152.552 106.414 153.503 106.402 154.668C106.408 155.827 107.295 156.783 108.518 156.783ZM114.54 157.345H116.875L115.461 162.011H113.728L114.54 157.345ZM121.628 158.562H119.077L124.079 148.797V148.715H118.26V146.693H126.635V148.75L121.628 158.562ZM132.474 158.725C129.999 158.725 128.185 157.264 128.139 155.224H130.533C130.591 156.146 131.437 156.783 132.474 156.783C133.703 156.783 134.578 155.914 134.572 154.674C134.578 153.422 133.686 152.541 132.434 152.535C131.547 152.535 130.921 152.865 130.579 153.526H128.336L128.985 146.693H136.288V148.715H131.014L130.689 151.712H130.782C131.222 151.127 132.121 150.703 133.164 150.703C135.343 150.703 136.96 152.332 136.954 154.61C136.96 157.009 135.14 158.725 132.474 158.725ZM141.641 158.562H139.091L144.093 148.797V148.715H138.274V146.693H146.649V148.75L141.641 158.562ZM146.568 157.345H148.904L147.49 162.011H145.757L146.568 157.345ZM155.195 158.725C152.737 158.713 150.396 157.253 150.402 152.9C150.413 148.901 152.32 146.53 155.287 146.53C157.675 146.53 159.31 148.037 159.553 149.991H157.125C156.928 149.162 156.244 148.646 155.287 148.646C153.676 148.646 152.824 150.095 152.818 152.425H152.923C153.473 151.376 154.644 150.756 155.966 150.756C158.098 150.756 159.686 152.361 159.681 154.587C159.686 157.003 157.867 158.736 155.195 158.725ZM155.183 156.783C156.394 156.783 157.293 155.856 157.287 154.656C157.293 153.474 156.412 152.552 155.201 152.552C153.989 152.552 153.079 153.503 153.068 154.668C153.073 155.827 153.96 156.783 155.183 156.783ZM164.172 146.693H166.496V158.562H164.027V149.04H163.957L161.233 150.75V148.559L164.172 146.693ZM173.616 158.725C171.141 158.725 169.327 157.264 169.281 155.224H171.674C171.732 156.146 172.579 156.783 173.616 156.783C174.845 156.783 175.72 155.914 175.714 154.674C175.72 153.422 174.827 152.541 173.575 152.535C172.689 152.535 172.063 152.865 171.721 153.526H169.478L170.127 146.693H177.43V148.715H172.155L171.831 151.712H171.924C172.364 151.127 173.262 150.703 174.306 150.703C176.485 150.703 178.102 152.332 178.096 154.61C178.102 157.009 176.282 158.725 173.616 158.725ZM186.973 155.247V153.822H189.825V145.168H191.923V156.441H189.825V155.247H186.973ZM184.081 150.982C181.867 150.982 180.331 149.95 180.331 148.35C180.331 146.762 181.867 145.667 184.081 145.673C186.255 145.667 187.802 146.762 187.808 148.35C187.802 149.95 186.255 150.982 184.081 150.982ZM184.081 147.203C183.021 147.203 182.308 147.609 182.313 148.35C182.308 149.075 183.021 149.469 184.081 149.469C185.09 149.469 185.814 149.075 185.82 148.35C185.814 147.609 185.09 147.203 184.081 147.203ZM183.223 156.082V158.128H192.253V159.814H181.131V155.357H183.223V153.369C181.885 153.422 180.61 153.433 179.474 153.433L179.224 151.781C181.966 151.758 185.652 151.723 188.805 151.324L188.926 152.825C187.75 153.022 186.527 153.155 185.321 153.248V156.082H183.223Z" fill="#12997A"/>
<path d="M204.163 145.145H206.278V160.11H204.163V145.145ZM198.176 146.2C200.43 146.2 202.1 148.263 202.105 151.509C202.1 154.789 200.43 156.841 198.176 156.841C195.892 156.841 194.223 154.789 194.229 151.509C194.223 148.263 195.892 146.2 198.176 146.2ZM198.176 148.09C197.017 148.09 196.24 149.301 196.252 151.509C196.24 153.74 197.017 154.946 198.176 154.946C199.312 154.946 200.083 153.74 200.083 151.509C200.083 149.301 199.312 148.09 198.176 148.09ZM219.225 160.075V145.145H221.225V160.075H219.225ZM214.925 150.669H216.142V145.377H218.118V159.385H216.142V152.338H214.942C214.763 155.265 213.511 157.038 211.668 157.032C209.703 157.038 208.422 154.969 208.428 151.608C208.422 148.275 209.703 146.218 211.668 146.218C213.464 146.218 214.699 147.892 214.925 150.669ZM211.668 155.027C212.531 155.033 213.041 153.909 213.041 151.608C213.041 149.33 212.531 148.188 211.668 148.194C210.833 148.188 210.341 149.33 210.352 151.608C210.341 153.909 210.833 155.033 211.668 155.027ZM233.419 152.923V156.621H236.45V158.325H222.807V156.621H225.849V152.958C224.696 152.263 224.001 151.202 224.006 149.886C224.001 147.475 226.365 145.881 229.599 145.881C232.833 145.881 235.221 147.475 235.221 149.886C235.221 151.184 234.543 152.228 233.419 152.923ZM229.599 147.533C227.466 147.522 226.064 148.391 226.064 149.886C226.064 151.353 227.466 152.251 229.599 152.257C231.715 152.251 233.152 151.353 233.158 149.886C233.152 148.391 231.715 147.522 229.599 147.533ZM227.918 153.717V156.621H231.303V153.717C230.77 153.816 230.202 153.874 229.599 153.874C229.008 153.874 228.446 153.822 227.918 153.717Z" fill="black"/>
<path d="M112.822 181.064V169.174H114.088V181.064H112.822ZM108.613 171.412V172.684C108.613 174.669 109.917 176.724 111.747 177.502L111.058 178.497C109.655 177.878 108.547 176.564 107.994 174.988C107.44 176.677 106.324 178.122 104.944 178.793L104.208 177.798C106 176.963 107.328 174.725 107.337 172.684V171.412H104.625V170.371H111.325V171.412H108.613ZM125.325 169.184V172.651H127.047V173.721H125.325V177.756H124.063V169.184H125.325ZM122.932 174.11L123.077 175.152C121.083 175.56 119.263 175.668 117.494 175.668H116.523V170.019H117.79V174.608C119.399 174.603 121.093 174.495 122.932 174.11ZM117.818 176.93H119.08V179.787H125.738V180.82H117.818V176.93ZM137.068 169.174V171.6H138.79V172.642H137.068V175.142H135.806V169.174H137.068ZM134.614 173.341L134.76 174.335C133.113 174.692 131.658 174.748 129.172 174.744H128.229V169.841H133.53V170.854H129.472V173.744C131.719 173.74 133.066 173.65 134.614 173.341ZM137.068 178.746H130.645V179.891H137.471V180.913H129.406V177.779H135.815V176.714H129.378V175.701H137.068V178.746ZM151.03 169.658H152.288V174.819H144.124V169.658H145.372V171.206H151.03V169.658ZM145.372 173.805H151.03V172.215H145.372V173.805ZM142.768 176.165H153.648V177.169H148.797V181.064H147.558V177.169H142.768V176.165ZM163.792 173.913H165.635V174.969H163.792V181.049H162.529V169.174H163.792V173.913ZM155.13 170.432H160.681C160.672 173.862 159.156 176.93 155.238 178.858L154.535 177.882C157.519 176.395 159.133 174.246 159.4 171.473H155.13V170.432ZM175.286 181.064V169.174H176.496V181.064H175.286ZM170.988 173.355H172.842V169.404H174.029V180.477H172.842V174.401H170.988V173.355ZM169.895 170.258V172.421C169.895 174.326 170.688 176.348 172.283 177.319L171.575 178.295C170.463 177.624 169.712 176.433 169.304 175.058C168.868 176.564 168.051 177.85 166.897 178.553L166.109 177.615C167.793 176.611 168.675 174.504 168.675 172.478V170.258H169.895ZM184.05 176.109V178.549H188.896V179.59H178.016V178.549H182.802V176.109H179.255V169.986H180.517V172.036H186.353V169.986H187.606V176.109H184.05ZM186.353 173.05H180.517V175.086H186.353V173.05ZM199.021 173.777H200.926V174.823H199.021V181.087H197.759V169.174H199.021V173.777ZM191.519 171.342V177.085C193.513 177.075 195.009 176.991 196.712 176.681L196.863 177.756C195.005 178.08 193.423 178.141 191.218 178.136H190.261V170.319H195.821V171.342H191.519ZM208.498 180.069C206.673 180.069 205.307 178.962 205.246 177.427H206.668C206.738 178.248 207.522 178.844 208.498 178.844C209.661 178.844 210.497 178.004 210.497 176.86C210.497 175.691 209.633 174.842 208.432 174.833C207.653 174.828 207.067 175.086 206.734 175.677H205.359L205.988 170.329H211.43V171.581H207.198L206.87 174.265H206.964C207.367 173.89 208.038 173.627 208.77 173.627C210.581 173.627 211.918 174.964 211.914 176.827C211.918 178.713 210.492 180.069 208.498 180.069ZM216.94 180.069C215.166 180.055 213.308 179.004 213.313 175.452C213.313 172.107 214.763 170.197 217.062 170.197C218.835 170.197 220.064 171.3 220.29 172.825H218.849C218.652 172.041 218.033 171.473 217.062 171.473C215.579 171.473 214.716 172.768 214.716 174.941H214.824C215.34 174.12 216.245 173.641 217.292 173.641C219.004 173.641 220.383 174.955 220.383 176.794C220.383 178.652 219.009 180.083 216.94 180.069ZM216.935 178.844C218.094 178.844 218.962 177.943 218.967 176.817C218.962 175.72 218.122 174.823 216.963 174.823C215.795 174.823 214.903 175.762 214.894 176.836C214.894 177.897 215.748 178.844 216.935 178.844ZM225.274 180.092C223.055 180.092 221.746 178.286 221.75 175.138C221.75 172.008 223.069 170.197 225.274 170.197C227.484 170.197 228.802 172.013 228.802 175.138C228.802 178.286 227.498 180.092 225.274 180.092ZM225.274 178.835C226.574 178.835 227.348 177.535 227.348 175.138C227.348 172.745 226.564 171.441 225.274 171.441C223.988 171.441 223.205 172.745 223.205 175.138C223.2 177.535 223.979 178.835 225.274 178.835ZM230.205 179.009H231.688L230.623 182.678H229.497L230.205 179.009ZM236.671 180.069C234.687 180.069 233.27 178.999 233.218 177.427H234.696C234.748 178.272 235.588 178.811 236.657 178.811C237.821 178.811 238.665 178.178 238.661 177.249C238.665 176.297 237.877 175.616 236.498 175.616H235.681V174.425H236.498C237.596 174.425 238.36 173.815 238.36 172.895C238.36 172.013 237.704 171.422 236.69 171.422C235.724 171.422 234.865 171.957 234.828 172.825H233.42C233.467 171.262 234.907 170.197 236.704 170.197C238.59 170.197 239.782 171.394 239.773 172.82C239.782 173.904 239.106 174.692 238.074 174.941V175.016C239.379 175.199 240.143 176.081 240.134 177.301C240.143 178.901 238.665 180.069 236.671 180.069ZM245.085 180.092C242.865 180.092 241.556 178.286 241.561 175.138C241.561 172.008 242.879 170.197 245.085 170.197C247.294 170.197 248.613 172.013 248.613 175.138C248.613 178.286 247.309 180.092 245.085 180.092ZM245.085 178.835C246.384 178.835 247.158 177.535 247.158 175.138C247.158 172.745 246.375 171.441 245.085 171.441C243.799 171.441 243.016 172.745 243.016 175.138C243.011 177.535 243.79 178.835 245.085 178.835ZM253.471 180.092C251.251 180.092 249.942 178.286 249.947 175.138C249.947 172.008 251.265 170.197 253.471 170.197C255.68 170.197 256.999 172.013 256.999 175.138C256.999 178.286 255.695 180.092 253.471 180.092ZM253.471 178.835C254.77 178.835 255.544 177.535 255.544 175.138C255.544 172.745 254.761 171.441 253.471 171.441C252.185 171.441 251.402 172.745 251.402 175.138C251.397 177.535 252.176 178.835 253.471 178.835ZM264.339 177.061V176.17H266.731V169.184H267.998V178.202H266.731V177.061H264.339ZM261.941 173.805C260.177 173.805 258.976 173.003 258.976 171.732C258.976 170.479 260.177 169.639 261.941 169.639C263.677 169.639 264.883 170.479 264.892 171.732C264.883 173.003 263.677 173.805 261.941 173.805ZM261.941 170.577C260.885 170.573 260.168 171.028 260.172 171.732C260.168 172.44 260.885 172.881 261.941 172.881C262.955 172.881 263.682 172.44 263.691 171.732C263.682 171.028 262.955 170.573 261.941 170.577ZM262.692 177.831H261.434V175.579C260.28 175.621 259.173 175.63 258.206 175.626L258.047 174.612C260.247 174.598 263.213 174.575 265.746 174.256L265.831 175.166C264.808 175.335 263.743 175.443 262.692 175.508V177.831ZM260.951 177.319V179.787H268.28V180.82H259.694V177.319H260.951ZM275.833 171.882H282.763V172.904H274.599V169.348H275.833V171.882ZM273.149 174.964V173.946H284.03V174.964H273.149ZM282.664 178.821H275.763V179.919H283.073V180.913H274.501V177.892H281.426V176.897H274.477V175.912H282.664V178.821ZM288.196 175.443C286.408 175.443 285.09 174.279 285.09 172.632C285.09 170.995 286.408 169.822 288.196 169.831C289.739 169.822 290.964 170.742 291.231 172.088H293.563V169.174H294.82V175.921H293.563V173.12H291.245C291.001 174.504 289.763 175.443 288.196 175.443ZM288.196 170.887C287.098 170.882 286.291 171.591 286.3 172.632C286.291 173.665 287.098 174.392 288.196 174.396C289.275 174.392 290.077 173.665 290.082 172.632C290.077 171.591 289.275 170.882 288.196 170.887ZM293.563 176.376V177.015C293.563 178.248 294.37 179.464 295.946 179.97L295.294 180.909C294.126 180.491 293.333 179.694 292.925 178.718C292.545 179.67 291.827 180.552 290.729 181.007C289.603 180.58 288.885 179.736 288.515 178.76C288.088 179.694 287.299 180.486 286.183 180.909L285.563 179.97C287.088 179.435 287.909 178.178 287.914 177.015V176.376H289.134V177.015C289.125 178.051 289.636 179.131 290.715 179.792C291.804 179.074 292.32 177.925 292.329 177.015V176.376H293.563ZM305.32 173.632V169.174H306.568V181.087H305.32V174.659H302.866C302.735 176.977 301.534 178.417 299.878 178.417C298.099 178.417 296.851 176.799 296.861 174.237C296.851 171.689 298.099 170.071 299.878 170.066C301.487 170.071 302.669 171.436 302.857 173.632H305.32ZM299.878 177.287C300.947 177.287 301.689 176.123 301.689 174.237C301.689 172.365 300.947 171.201 299.878 171.192C298.799 171.201 298.062 172.365 298.062 174.237C298.062 176.123 298.799 177.287 299.878 177.287ZM316.669 175.405V178.539H319.278V179.581H308.397V178.539H311.001V175.429C310.021 174.894 309.425 174.04 309.425 172.975C309.425 171.103 311.259 169.874 313.807 169.864C316.364 169.874 318.203 171.103 318.203 172.975C318.203 174.026 317.626 174.866 316.669 175.405ZM313.807 170.882C311.944 170.873 310.65 171.689 310.65 172.975C310.65 174.246 311.944 175.077 313.807 175.077C315.66 175.077 316.974 174.246 316.974 172.975C316.974 171.689 315.66 170.873 313.807 170.882ZM312.24 175.893V178.539H315.398V175.888C314.91 176.001 314.375 176.062 313.807 176.062C313.244 176.062 312.719 176.001 312.24 175.893Z" fill="#AAAAAA"/>
<g filter="url(#filter3_d_1909_2666)">
<rect x="51" y="201" width="318" height="179" rx="16" fill="white"/>
<rect x="52" y="202" width="316" height="177" rx="15" stroke="#FF996B" stroke-width="2"/>
</g>
<path d="M81 327.057H339" stroke="#E1E1E1" stroke-width="0.403125"/>
<path d="M102.112 347.537H97.1315L97.1279 346.719L99.6975 344.124C100.512 343.281 100.917 342.814 100.921 342.163C100.917 341.431 100.324 340.968 99.5455 340.968C98.724 340.968 98.1992 341.486 98.1992 342.278H97.1279C97.1243 340.921 98.1558 340.024 99.5673 340.024C100.997 340.024 101.985 340.928 101.992 342.13C101.985 342.959 101.594 343.621 100.204 344.986L98.6986 346.516V346.571H102.112V347.537ZM108.345 347.537H103.365L103.361 346.719L105.931 344.124C106.745 343.281 107.151 342.814 107.154 342.163C107.151 341.431 106.557 340.968 105.779 340.968C104.957 340.968 104.433 341.486 104.433 342.278H103.361C103.358 340.921 104.389 340.024 105.801 340.024C107.23 340.024 108.218 340.928 108.226 342.13C108.218 342.959 107.827 343.621 106.438 344.986L104.932 346.516V346.571H108.345V347.537ZM116.927 346.017H115.957V342.901H113.435V342.123H115.957V341.16H113.435V340.386H115.957V339.242H116.927V346.017ZM114.474 343.578L114.575 344.378C113.12 344.649 111.879 344.703 110.525 344.707H109.819V339.875H110.786V343.896C112.002 343.889 113.163 343.817 114.474 343.578ZM111.933 345.427V347.421H117.166V348.218H110.952V345.427H111.933ZM122.928 340.125H124.028V347.537H122.899V341.254H122.855L121.086 342.409V341.334L122.928 340.125ZM132.244 348.406V339.235H133.221V348.406H132.244ZM126.131 340.223H130.496C130.489 342.905 129.349 345.232 126.2 346.734L125.686 345.948C128.125 344.79 129.312 343.136 129.504 340.997H126.131V340.223ZM140.521 340.02H142.678V340.747H137.387V340.02H139.551V339.162H140.521V340.02ZM144.43 341.964H145.736V342.771H144.43V345.416H143.46V339.242H144.43V341.964ZM142.939 344.121L143.015 344.812C141.046 345.159 138.874 345.174 137.26 345.177L137.151 344.399C137.864 344.399 138.69 344.396 139.551 344.374V343.751C138.505 343.639 137.839 343.151 137.846 342.409C137.839 341.569 138.711 341.048 140.025 341.055C141.342 341.048 142.204 341.569 142.211 342.409C142.204 343.143 141.556 343.636 140.521 343.751V344.338C141.342 344.294 142.168 344.229 142.939 344.121ZM138.773 342.409C138.769 342.836 139.247 343.122 140.025 343.114C140.803 343.122 141.281 342.836 141.281 342.409C141.281 341.967 140.803 341.714 140.025 341.721C139.247 341.714 138.769 341.967 138.773 342.409ZM143.46 346.611H138.295V345.843H144.43V348.406H143.46V346.611ZM151.237 342.372V341.573H152.949V339.235H153.919V344.692H152.949V342.372H151.237ZM149.084 342.391C148.682 343.415 147.878 344.236 146.782 344.638L146.279 343.867C147.697 343.368 148.57 342.13 148.57 340.863V340.661H146.579V339.868H151.53V340.661H149.554V340.856C149.554 342.018 150.383 343.147 151.765 343.614L151.27 344.388C150.238 344.03 149.482 343.295 149.084 342.391ZM150.846 344.949C152.768 344.949 153.944 345.586 153.948 346.679C153.944 347.769 152.768 348.398 150.846 348.406C148.921 348.398 147.741 347.769 147.748 346.679C147.741 345.586 148.921 344.949 150.846 344.949ZM150.846 347.642C152.185 347.649 152.981 347.295 152.985 346.679C152.981 346.057 152.185 345.702 150.846 345.702C149.503 345.702 148.704 346.057 148.711 346.679C148.704 347.295 149.503 347.649 150.846 347.642Z" fill="black"/>
<path d="M109.03 360.151C107.318 360.151 106.308 358.757 106.312 356.329C106.312 353.915 107.329 352.518 109.03 352.518C110.735 352.518 111.752 353.918 111.752 356.329C111.752 358.757 110.746 360.151 109.03 360.151ZM109.03 359.181C110.033 359.181 110.63 358.178 110.63 356.329C110.63 354.483 110.025 353.477 109.03 353.477C108.038 353.477 107.434 354.483 107.434 356.329C107.43 358.178 108.031 359.181 109.03 359.181ZM114.634 352.619H115.734V360.031H114.605V353.748H114.562L112.792 354.903V353.828L114.634 352.619ZM118.641 357.9H117.722C117.693 356.64 118.373 356.079 119.195 356.079C119.676 356.079 120.034 356.267 120.566 356.727C120.896 357.013 121.058 357.132 121.315 357.132C121.703 357.132 121.963 356.843 121.949 356.264H122.875C122.904 357.523 122.209 358.091 121.395 358.091C120.906 358.091 120.545 357.892 120.023 357.436C119.683 357.147 119.531 357.031 119.278 357.031C118.905 357.031 118.626 357.277 118.641 357.9ZM126.86 360.151C125.149 360.151 124.139 358.757 124.142 356.329C124.142 353.915 125.159 352.518 126.86 352.518C128.565 352.518 129.582 353.918 129.582 356.329C129.582 358.757 128.576 360.151 126.86 360.151ZM126.86 359.181C127.863 359.181 128.46 358.178 128.46 356.329C128.46 354.483 127.856 353.477 126.86 353.477C125.869 353.477 125.264 354.483 125.264 356.329C125.261 358.178 125.862 359.181 126.86 359.181ZM133.431 360.133C132.063 360.122 130.629 359.311 130.633 356.571C130.633 353.991 131.751 352.518 133.525 352.518C134.893 352.518 135.841 353.368 136.015 354.545H134.904C134.752 353.94 134.274 353.502 133.525 353.502C132.381 353.502 131.715 354.501 131.715 356.177H131.798C132.197 355.543 132.895 355.174 133.702 355.174C135.023 355.174 136.087 356.188 136.087 357.606C136.087 359.04 135.027 360.143 133.431 360.133ZM133.427 359.188C134.321 359.188 134.991 358.493 134.994 357.624C134.991 356.778 134.343 356.086 133.449 356.086C132.548 356.086 131.86 356.81 131.853 357.639C131.853 358.457 132.511 359.188 133.427 359.188ZM141.832 356.673V356.061H143.62V351.736H144.597V357.114H143.62V356.673H141.832ZM139.925 354.646C138.535 354.646 137.627 354.132 137.627 353.274C137.627 352.435 138.535 351.895 139.925 351.895C141.289 351.895 142.205 352.435 142.212 353.274C142.205 354.132 141.289 354.646 139.925 354.646ZM139.925 352.55C139.078 352.55 138.539 352.836 138.546 353.274C138.539 353.712 139.078 353.994 139.925 353.994C140.757 353.994 141.297 353.712 141.297 353.274C141.297 352.836 140.757 352.55 139.925 352.55ZM140.352 357.136H139.393V355.797C138.568 355.822 137.771 355.822 137.055 355.818L136.943 355.12C138.72 355.124 140.964 355.105 142.94 354.899L142.998 355.522C142.129 355.641 141.231 355.714 140.352 355.761V357.136ZM139.31 359.402V360.107H144.872V360.813H138.354V358.75H143.631V358.102H138.318V357.422H144.597V359.402H139.31Z" fill="black"/>
<path d="M185.598 347.537H180.618L180.614 346.719L183.184 344.124C183.998 343.281 184.403 342.814 184.407 342.163C184.403 341.431 183.81 340.968 183.032 340.968C182.21 340.968 181.685 341.486 181.685 342.278H180.614C180.61 340.921 181.642 340.024 183.053 340.024C184.483 340.024 185.471 340.928 185.478 342.13C185.471 342.959 185.08 343.621 183.69 344.986L182.185 346.516V346.571H185.598V347.537ZM191.831 347.537H186.851L186.847 346.719L189.417 344.124C190.231 343.281 190.637 342.814 190.64 342.163C190.637 341.431 190.043 340.968 189.265 340.968C188.444 340.968 187.919 341.486 187.919 342.278H186.847C186.844 340.921 187.875 340.024 189.287 340.024C190.716 340.024 191.704 340.928 191.712 342.13C191.704 342.959 191.314 343.621 189.924 344.986L188.418 346.516V346.571H191.831V347.537ZM200.413 346.017H199.444V342.901H196.921V342.123H199.444V341.16H196.921V340.386H199.444V339.242H200.413V346.017ZM197.96 343.578L198.061 344.378C196.606 344.649 195.365 344.703 194.011 344.707H193.305V339.875H194.272V343.896C195.488 343.889 196.649 343.817 197.96 343.578ZM195.419 345.427V347.421H200.652V348.218H194.438V345.427H195.419ZM209.682 347.537H204.702L204.698 346.719L207.268 344.124C208.082 343.281 208.488 342.814 208.491 342.163C208.488 341.431 207.894 340.968 207.116 340.968C206.294 340.968 205.77 341.486 205.77 342.278H204.698C204.695 340.921 205.726 340.024 207.138 340.024C208.567 340.024 209.555 340.928 209.563 342.13C209.555 342.959 209.164 343.621 207.775 344.986L206.269 346.516V346.571H209.682V347.537ZM217.265 348.406V339.235H218.243V348.406H217.265ZM211.153 340.223H215.517C215.51 342.905 214.37 345.232 211.221 346.734L210.707 345.948C213.147 344.79 214.334 343.136 214.526 340.997H211.153V340.223ZM225.542 340.02H227.699V340.747H222.408V340.02H224.572V339.162H225.542V340.02ZM229.451 341.964H230.758V342.771H229.451V345.416H228.481V339.242H229.451V341.964ZM227.96 344.121L228.036 344.812C226.067 345.159 223.896 345.174 222.281 345.177L222.173 344.399C222.886 344.399 223.711 344.396 224.572 344.374V343.751C223.526 343.639 222.86 343.151 222.868 342.409C222.86 341.569 223.733 341.048 225.046 341.055C226.364 341.048 227.225 341.569 227.232 342.409C227.225 343.143 226.577 343.636 225.542 343.751V344.338C226.364 344.294 227.189 344.229 227.96 344.121ZM223.794 342.409C223.791 342.836 224.268 343.122 225.046 343.114C225.825 343.122 226.302 342.836 226.302 342.409C226.302 341.967 225.825 341.714 225.046 341.721C224.268 341.714 223.791 341.967 223.794 342.409ZM228.481 346.611H223.316V345.843H229.451V348.406H228.481V346.611ZM236.258 342.372V341.573H237.97V339.235H238.94V344.692H237.97V342.372H236.258ZM234.105 342.391C233.703 343.415 232.9 344.236 231.803 344.638L231.3 343.867C232.719 343.368 233.591 342.13 233.591 340.863V340.661H231.6V339.868H236.552V340.661H234.575V340.856C234.575 342.018 235.404 343.147 236.787 343.614L236.291 344.388C235.26 344.03 234.503 343.295 234.105 342.391ZM235.868 344.949C237.789 344.949 238.966 345.586 238.969 346.679C238.966 347.769 237.789 348.398 235.868 348.406C233.942 348.398 232.762 347.769 232.769 346.679C232.762 345.586 233.942 344.949 235.868 344.949ZM235.868 347.642C237.207 347.649 238.003 347.295 238.007 346.679C238.003 346.057 237.207 345.702 235.868 345.702C234.525 345.702 233.725 346.057 233.732 346.679C233.725 347.295 234.525 347.649 235.868 347.642Z" fill="black"/>
<path d="M193.833 360.151C192.121 360.151 191.111 358.757 191.115 356.329C191.115 353.915 192.132 352.518 193.833 352.518C195.538 352.518 196.555 353.918 196.555 356.329C196.555 358.757 195.548 360.151 193.833 360.151ZM193.833 359.181C194.835 359.181 195.433 358.178 195.433 356.329C195.433 354.483 194.828 353.477 193.833 353.477C192.841 353.477 192.237 354.483 192.237 356.329C192.233 358.178 192.834 359.181 193.833 359.181ZM198.95 360.031H197.774L201.082 353.64V353.585H197.26V352.619H202.251V353.622L198.95 360.031ZM204.406 357.9H203.487C203.458 356.64 204.138 356.079 204.96 356.079C205.441 356.079 205.799 356.267 206.331 356.727C206.661 357.013 206.823 357.132 207.08 357.132C207.468 357.132 207.728 356.843 207.714 356.264H208.64C208.669 357.523 207.974 358.091 207.16 358.091C206.671 358.091 206.31 357.892 205.788 357.436C205.448 357.147 205.296 357.031 205.043 357.031C204.67 357.031 204.391 357.277 204.406 357.9ZM211.76 352.619H212.861V360.031H211.732V353.748H211.688L209.918 354.903V353.828L211.76 352.619ZM219.727 360.031H214.747L214.743 359.213L217.313 356.618C218.127 355.775 218.532 355.308 218.536 354.657C218.532 353.926 217.939 353.462 217.161 353.462C216.339 353.462 215.814 353.98 215.814 354.773H214.743C214.739 353.415 215.771 352.518 217.182 352.518C218.612 352.518 219.6 353.423 219.607 354.624C219.6 355.453 219.209 356.115 217.819 357.48L216.314 359.011V359.065H219.727V360.031ZM225.53 356.673V356.061H227.317V351.736H228.295V357.114H227.317V356.673H225.53ZM223.622 354.646C222.232 354.646 221.324 354.132 221.324 353.274C221.324 352.435 222.232 351.895 223.622 351.895C224.987 351.895 225.902 352.435 225.91 353.274C225.902 354.132 224.987 354.646 223.622 354.646ZM223.622 352.55C222.775 352.55 222.236 352.836 222.243 353.274C222.236 353.712 222.775 353.994 223.622 353.994C224.455 353.994 224.994 353.712 224.994 353.274C224.994 352.836 224.455 352.55 223.622 352.55ZM224.049 357.136H223.09V355.797C222.265 355.822 221.469 355.822 220.752 355.818L220.64 355.12C222.417 355.124 224.661 355.105 226.637 354.899L226.695 355.522C225.826 355.641 224.929 355.714 224.049 355.761V357.136ZM223.007 359.402V360.107H228.57V360.813H222.051V358.75H227.328V358.102H222.015V357.422H228.295V359.402H223.007Z" fill="black"/>
<path d="M270.464 347.537H265.484L265.48 346.719L268.05 344.124C268.864 343.281 269.27 342.814 269.273 342.163C269.27 341.431 268.676 340.968 267.898 340.968C267.077 340.968 266.552 341.486 266.552 342.278H265.48C265.477 340.921 266.508 340.024 267.92 340.024C269.349 340.024 270.337 340.928 270.345 342.13C270.337 342.959 269.947 343.621 268.557 344.986L267.051 346.516V346.571H270.464V347.537ZM274.345 347.638C272.814 347.638 271.721 346.813 271.681 345.601H272.821C272.861 346.252 273.509 346.668 274.334 346.668C275.232 346.668 275.883 346.18 275.88 345.463C275.883 344.729 275.275 344.204 274.211 344.204H273.581V343.285H274.211C275.058 343.285 275.648 342.814 275.648 342.105C275.648 341.424 275.141 340.968 274.36 340.968C273.614 340.968 272.952 341.381 272.923 342.05H271.837C271.873 340.845 272.984 340.024 274.37 340.024C275.825 340.024 276.745 340.947 276.737 342.047C276.745 342.883 276.223 343.491 275.427 343.683V343.741C276.433 343.882 277.023 344.562 277.016 345.503C277.023 346.737 275.883 347.638 274.345 347.638ZM285.587 346.017H284.617V342.901H282.094V342.123H284.617V341.16H282.094V340.386H284.617V339.242H285.587V346.017ZM283.133 343.578L283.235 344.378C281.78 344.649 280.538 344.703 279.185 344.707H278.479V339.875H279.445V343.896C280.661 343.889 281.823 343.817 283.133 343.578ZM280.592 345.427V347.421H285.826V348.218H279.612V345.427H280.592ZM291.587 340.125H292.688V347.537H291.558V341.254H291.515L289.745 342.409V341.334L291.587 340.125ZM300.904 348.406V339.235H301.881V348.406H300.904ZM294.791 340.223H299.156C299.148 342.905 298.008 345.232 294.86 346.734L294.346 345.948C296.785 344.79 297.972 343.136 298.164 340.997H294.791V340.223ZM309.18 340.02H311.338V340.747H306.046V340.02H308.211V339.162H309.18V340.02ZM313.089 341.964H314.396V342.771H313.089V345.416H312.119V339.242H313.089V341.964ZM311.598 344.121L311.674 344.812C309.705 345.159 307.534 345.174 305.92 345.177L305.811 344.399C306.524 344.399 307.349 344.396 308.211 344.374V343.751C307.165 343.639 306.499 343.151 306.506 342.409C306.499 341.569 307.371 341.048 308.685 341.055C310.002 341.048 310.863 341.569 310.871 342.409C310.863 343.143 310.216 343.636 309.18 343.751V344.338C310.002 344.294 310.827 344.229 311.598 344.121ZM307.432 342.409C307.429 342.836 307.907 343.122 308.685 343.114C309.463 343.122 309.941 342.836 309.941 342.409C309.941 341.967 309.463 341.714 308.685 341.721C307.907 341.714 307.429 341.967 307.432 342.409ZM312.119 346.611H306.955V345.843H313.089V348.406H312.119V346.611ZM319.897 342.372V341.573H321.608V339.235H322.578V344.692H321.608V342.372H319.897ZM317.743 342.391C317.341 343.415 316.538 344.236 315.441 344.638L314.938 343.867C316.357 343.368 317.229 342.13 317.229 340.863V340.661H315.239V339.868H320.19V340.661H318.214V340.856C318.214 342.018 319.042 343.147 320.425 343.614L319.929 344.388C318.898 344.03 318.141 343.295 317.743 342.391ZM319.506 344.949C321.428 344.949 322.604 345.586 322.607 346.679C322.604 347.769 321.428 348.398 319.506 348.406C317.58 348.398 316.4 347.769 316.408 346.679C316.4 345.586 317.58 344.949 319.506 344.949ZM319.506 347.642C320.845 347.649 321.641 347.295 321.645 346.679C321.641 346.057 320.845 345.702 319.506 345.702C318.163 345.702 317.363 346.057 317.37 346.679C317.363 347.295 318.163 347.649 319.506 347.642Z" fill="black"/>
<path d="M277.536 360.151C275.824 360.151 274.814 358.757 274.818 356.329C274.818 353.915 275.835 352.518 277.536 352.518C279.24 352.518 280.257 353.918 280.257 356.329C280.257 358.757 279.251 360.151 277.536 360.151ZM277.536 359.181C278.538 359.181 279.135 358.178 279.135 356.329C279.135 354.483 278.531 353.477 277.536 353.477C276.544 353.477 275.94 354.483 275.94 356.329C275.936 358.178 276.537 359.181 277.536 359.181ZM283.14 352.619H284.24V360.031H283.111V353.748H283.067L281.298 354.903V353.828L283.14 352.619ZM287.147 357.9H286.227C286.198 356.64 286.879 356.079 287.7 356.079C288.182 356.079 288.54 356.267 289.072 356.727C289.401 357.013 289.564 357.132 289.821 357.132C290.208 357.132 290.469 356.843 290.455 356.264H291.381C291.41 357.523 290.715 358.091 289.901 358.091C289.412 358.091 289.05 357.892 288.529 357.436C288.189 357.147 288.037 357.031 287.784 357.031C287.411 357.031 287.132 357.277 287.147 357.9ZM295.366 360.151C293.654 360.151 292.645 358.757 292.648 356.329C292.648 353.915 293.665 352.518 295.366 352.518C297.071 352.518 298.088 353.918 298.088 356.329C298.088 358.757 297.082 360.151 295.366 360.151ZM295.366 359.181C296.369 359.181 296.966 358.178 296.966 356.329C296.966 354.483 296.361 353.477 295.366 353.477C294.375 353.477 293.77 354.483 293.77 356.329C293.767 358.178 294.367 359.181 295.366 359.181ZM301.936 360.133C300.568 360.122 299.135 359.311 299.139 356.571C299.139 353.991 300.257 352.518 302.031 352.518C303.399 352.518 304.347 353.368 304.521 354.545H303.409C303.257 353.94 302.78 353.502 302.031 353.502C300.887 353.502 300.221 354.501 300.221 356.177H300.304C300.702 355.543 301.401 355.174 302.208 355.174C303.529 355.174 304.593 356.188 304.593 357.606C304.593 359.04 303.533 360.143 301.936 360.133ZM301.933 359.188C302.827 359.188 303.496 358.493 303.5 357.624C303.496 356.778 302.848 356.086 301.955 356.086C301.053 356.086 300.366 356.81 300.358 357.639C300.358 358.457 301.017 359.188 301.933 359.188ZM310.338 356.673V356.061H312.126V351.736H313.103V357.114H312.126V356.673H310.338ZM308.431 354.646C307.041 354.646 306.132 354.132 306.132 353.274C306.132 352.435 307.041 351.895 308.431 351.895C309.795 351.895 310.711 352.435 310.718 353.274C310.711 354.132 309.795 354.646 308.431 354.646ZM308.431 352.55C307.584 352.55 307.044 352.836 307.052 353.274C307.044 353.712 307.584 353.994 308.431 353.994C309.263 353.994 309.802 353.712 309.802 353.274C309.802 352.836 309.263 352.55 308.431 352.55ZM308.858 357.136H307.899V355.797C307.073 355.822 306.277 355.822 305.561 355.818L305.448 355.12C307.225 355.124 309.469 355.105 311.445 354.899L311.503 355.522C310.635 355.641 309.737 355.714 308.858 355.761V357.136ZM307.815 359.402V360.107H313.378V360.813H306.86V358.75H312.137V358.102H306.824V357.422H313.103V359.402H307.815Z" fill="black"/>
<path d="M105.188 217H117.281C118.351 217 119.376 217.425 120.132 218.181C120.888 218.937 121.313 219.962 121.313 221.031V327.053H101.156V221.031C101.156 219.962 101.581 218.937 102.337 218.181C103.093 217.425 104.118 217 105.188 217Z" fill="#12997A"/>
<path d="M191.456 235.549H203.55C204.619 235.549 205.645 235.974 206.401 236.73C207.157 237.486 207.581 238.511 207.581 239.58V327.058H187.425V239.58C187.425 238.511 187.85 237.486 188.606 236.73C189.362 235.974 190.387 235.549 191.456 235.549Z" fill="#12997A"/>
<path d="M130.181 274.646H142.275C143.344 274.646 144.37 275.071 145.126 275.827C145.882 276.583 146.306 277.609 146.306 278.678V327.053H126.15V278.678C126.15 277.609 126.575 276.583 127.331 275.827C128.087 275.071 129.112 274.646 130.181 274.646Z" fill="#FF9261"/>
<path d="M216.45 288.76H228.544C229.613 288.76 230.638 289.184 231.394 289.94C232.15 290.696 232.575 291.722 232.575 292.791V327.057H212.419V292.791C212.419 291.722 212.844 290.696 213.6 289.94C214.356 289.184 215.381 288.76 216.45 288.76Z" fill="#FF9261"/>
<path d="M275.71 225.066H287.803C288.873 225.066 289.898 225.491 290.654 226.247C291.41 227.003 291.835 228.029 291.835 229.098V327.057H271.678V229.098C271.678 228.029 272.103 227.003 272.859 226.247C273.615 225.491 274.641 225.066 275.71 225.066Z" fill="#12997A"/>
<path d="M300.703 275.857H312.797C313.866 275.857 314.892 276.282 315.648 277.038C316.404 277.794 316.828 278.82 316.828 279.889V327.054H296.672V279.889C296.672 278.82 297.097 277.794 297.853 277.038C298.609 276.282 299.634 275.857 300.703 275.857Z" fill="#FF9261"/>
<path d="M125.645 273.237L210.157 224.816L296.04 242.851" stroke="#FF9261" stroke-width="1.6125"/>
</g>
</g>
<defs>
<filter id="filter0_i_1909_2666" x="0" y="0" width="421" height="420" filterUnits="userSpaceOnUse" color-interpolation-filters="sRGB">
<feFlood flood-opacity="0" result="BackgroundImageFix"/>
<feBlend mode="normal" in="SourceGraphic" in2="BackgroundImageFix" result="shape"/>
<feColorMatrix in="SourceAlpha" type="matrix" values="0 0 0 0 0 0 0 0 0 0 0 0 0 0 0 0 0 0 127 0" result="hardAlpha"/>
<feOffset/>
<feGaussianBlur stdDeviation="2"/>
<feComposite in2="hardAlpha" operator="arithmetic" k2="-1" k3="1"/>
<feColorMatrix type="matrix" values="0 0 0 0 0 0 0 0 0 0 0 0 0 0 0 0 0 0 0.16 0"/>
<feBlend mode="normal" in2="shape" result="effect1_innerShadow_1909_2666"/>
</filter>
<filter id="filter1_d_1909_2666" x="58" y="23" width="305" height="540" filterUnits="userSpaceOnUse" color-interpolation-filters="sRGB">
<feFlood flood-opacity="0" result="BackgroundImageFix"/>
<feColorMatrix in="SourceAlpha" type="matrix" values="0 0 0 0 0 0 0 0 0 0 0 0 0 0 0 0 0 0 127 0" result="hardAlpha"/>
<feOffset dy="1"/>
<feGaussianBlur stdDeviation="8"/>
<feComposite in2="hardAlpha" operator="out"/>
<feColorMatrix type="matrix" values="0 0 0 0 0 0 0 0 0 0 0 0 0 0 0 0 0 0 0.08 0"/>
<feBlend mode="normal" in2="BackgroundImageFix" result="effect1_dropShadow_1909_2666"/>
<feBlend mode="normal" in="SourceGraphic" in2="effect1_dropShadow_1909_2666" result="shape"/>
</filter>
<filter id="filter2_i_1909_2666" x="85" y="50" width="251" height="482.885" filterUnits="userSpaceOnUse" color-interpolation-filters="sRGB">
<feFlood flood-opacity="0" result="BackgroundImageFix"/>
<feBlend mode="normal" in="SourceGraphic" in2="BackgroundImageFix" result="shape"/>
<feColorMatrix in="SourceAlpha" type="matrix" values="0 0 0 0 0 0 0 0 0 0 0 0 0 0 0 0 0 0 127 0" result="hardAlpha"/>
<feOffset dy="0.885417"/>
<feGaussianBlur stdDeviation="0.885417"/>
<feComposite in2="hardAlpha" operator="arithmetic" k2="-1" k3="1"/>
<feColorMatrix type="matrix" values="0 0 0 0 0.833512 0 0 0 0 0.831423 0 0 0 0 0.824016 0 0 0 0.25 0"/>
<feBlend mode="normal" in2="shape" result="effect1_innerShadow_1909_2666"/>
</filter>
<filter id="filter3_d_1909_2666" x="35" y="186" width="350" height="211" filterUnits="userSpaceOnUse" color-interpolation-filters="sRGB">
<feFlood flood-opacity="0" result="BackgroundImageFix"/>
<feColorMatrix in="SourceAlpha" type="matrix" values="0 0 0 0 0 0 0 0 0 0 0 0 0 0 0 0 0 0 127 0" result="hardAlpha"/>
<feOffset dy="1"/>
<feGaussianBlur stdDeviation="8"/>
<feComposite in2="hardAlpha" operator="out"/>
<feColorMatrix type="matrix" values="0 0 0 0 0 0 0 0 0 0 0 0 0 0 0 0 0 0 0.08 0"/>
<feBlend mode="normal" in2="BackgroundImageFix" result="effect1_dropShadow_1909_2666"/>
<feBlend mode="normal" in="SourceGraphic" in2="effect1_dropShadow_1909_2666" result="shape"/>
</filter>
<linearGradient id="paint0_linear_1909_2666" x1="210.5" y1="0" x2="210.5" y2="420" gradientUnits="userSpaceOnUse">
<stop stop-color="#FFE68D"/>
<stop offset="1" stop-color="#FFF0BB"/>
</linearGradient>
<clipPath id="clip0_1909_2666">
<rect width="421" height="420" rx="20" fill="white"/>
</clipPath>
</defs>
</svg>
