<svg width="421" height="420" viewBox="0 0 421 420" fill="none" xmlns="http://www.w3.org/2000/svg">
<g filter="url(#filter0_i_1911_6277)">
<g clip-path="url(#clip0_1911_6277)">
<rect width="421" height="420" rx="20" fill="url(#paint0_linear_1911_6277)" fill-opacity="0.3"/>
<g filter="url(#filter1_d_1911_6277)">
<rect x="74" y="38" width="273" height="508" rx="36" fill="#F4F4F4"/>
<g filter="url(#filter2_i_1911_6277)">
<rect x="85" y="50" width="251" height="482" rx="28" fill="white"/>
</g>
<path d="M118.923 68.0127C119.492 68.0127 120.031 68.118 120.54 68.3287C121.05 68.5345 121.501 68.8579 121.893 69.2989C122.29 69.7349 122.601 70.296 122.826 70.9819C123.051 71.663 123.164 72.4837 123.164 73.4441V73.4588C123.164 74.6494 122.993 75.6686 122.65 76.5162C122.307 77.3639 121.814 78.0156 121.172 78.4712C120.535 78.922 119.774 79.1474 118.887 79.1474C118.235 79.1474 117.647 79.0298 117.123 78.7946C116.603 78.5545 116.172 78.2262 115.829 77.8098C115.491 77.3884 115.263 76.9082 115.146 76.3692L115.131 76.2884H116.99L117.02 76.3619C117.113 76.6069 117.245 76.8225 117.417 77.0087C117.593 77.1948 117.804 77.3394 118.049 77.4423C118.299 77.5403 118.578 77.5893 118.887 77.5893C119.445 77.5893 119.901 77.4251 120.254 77.0968C120.611 76.7637 120.878 76.3202 121.055 75.7666C121.236 75.208 121.339 74.5906 121.363 73.9144C121.368 73.841 121.371 73.7699 121.371 73.7013C121.371 73.6278 121.371 73.5568 121.371 73.4882L121.04 71.7169C121.04 71.3151 120.947 70.9501 120.761 70.6218C120.575 70.2935 120.322 70.0338 120.004 69.8427C119.69 69.6517 119.335 69.5561 118.938 69.5561C118.556 69.5561 118.206 69.6492 117.887 69.8354C117.569 70.0216 117.314 70.2764 117.123 70.5998C116.932 70.9182 116.836 71.2759 116.836 71.6728V71.6875C116.836 72.0991 116.927 72.4641 117.108 72.7826C117.289 73.0962 117.537 73.3436 117.85 73.5249C118.164 73.7062 118.522 73.7969 118.923 73.7969C119.325 73.7969 119.685 73.7087 120.004 73.5323C120.322 73.3559 120.575 73.1109 120.761 72.7973C120.947 72.4837 121.04 72.1285 121.04 71.7316V71.7169H121.481V73.6719H121.224C121.096 73.9512 120.908 74.2109 120.658 74.451C120.408 74.6911 120.099 74.8846 119.732 75.0316C119.369 75.1786 118.943 75.2521 118.453 75.2521C117.777 75.2521 117.179 75.1002 116.66 74.7964C116.14 74.4926 115.731 74.0761 115.432 73.547C115.138 73.0178 114.991 72.42 114.991 71.7537V71.739C114.991 71.0187 115.158 70.3793 115.491 69.8207C115.829 69.2572 116.295 68.8162 116.888 68.4978C117.485 68.1744 118.164 68.0127 118.923 68.0127ZM126.501 77.457C126.168 77.457 125.888 77.3467 125.663 77.1262C125.443 76.9009 125.332 76.6265 125.332 76.3031C125.332 75.9748 125.443 75.7004 125.663 75.4799C125.888 75.2545 126.168 75.1418 126.501 75.1418C126.839 75.1418 127.118 75.2545 127.339 75.4799C127.559 75.7004 127.669 75.9748 127.669 76.3031C127.669 76.6265 127.559 76.9009 127.339 77.1262C127.118 77.3467 126.839 77.457 126.501 77.457ZM126.501 72.0035C126.168 72.0035 125.888 71.8933 125.663 71.6728C125.443 71.4474 125.332 71.173 125.332 70.8496C125.332 70.5214 125.443 70.247 125.663 70.0265C125.888 69.8011 126.168 69.6884 126.501 69.6884C126.839 69.6884 127.118 69.8011 127.339 70.0265C127.559 70.247 127.669 70.5214 127.669 70.8496C127.669 71.173 127.559 71.4474 127.339 71.6728C127.118 71.8933 126.839 72.0035 126.501 72.0035ZM134.982 78.8828V76.847H129.794V75.2962C130.073 74.8209 130.352 74.3432 130.631 73.863C130.916 73.3828 131.202 72.9051 131.491 72.4298C131.785 71.9496 132.077 71.4768 132.366 71.0113C132.66 70.541 132.951 70.0779 133.241 69.6223C133.534 69.1617 133.828 68.7133 134.122 68.2773H136.79V75.2815H138.224V76.847H136.79V78.8828H134.982ZM131.557 75.3256H135.012V69.7913H134.902C134.686 70.1245 134.463 70.4675 134.233 70.8202C134.007 71.173 133.779 71.5332 133.549 71.9006C133.319 72.2681 133.091 72.6381 132.866 73.0104C132.64 73.3779 132.417 73.7479 132.197 74.1202C131.976 74.4877 131.763 74.8528 131.557 75.2153V75.3256ZM142.611 78.8828V70.1441H142.479L139.84 72.0035V70.2249L142.611 68.2773H144.5V78.8828H142.611Z" fill="black"/>
<rect opacity="0.35" x="301.62" y="68.4525" width="21.25" height="10.625" rx="3.36458" stroke="black" stroke-width="0.885417"/>
<path opacity="0.4" d="M324.199 72.2422V75.8507C324.911 75.5451 325.375 74.8341 325.375 74.0464C325.375 73.2588 324.911 72.5478 324.199 72.2422Z" fill="black"/>
<rect x="302.949" y="69.7812" width="18.5938" height="7.96875" rx="2.21354" fill="black"/>
<path fill-rule="evenodd" clip-rule="evenodd" d="M287.251 70.7579C289.453 70.758 291.571 71.5744 293.167 73.0384C293.287 73.1515 293.479 73.15 293.597 73.0352L294.746 71.9166C294.806 71.8583 294.84 71.7795 294.839 71.6974C294.839 71.6153 294.804 71.5368 294.744 71.4793C290.555 67.6059 283.946 67.6059 279.757 71.4793C279.697 71.5368 279.662 71.6153 279.662 71.6973C279.661 71.7794 279.694 71.8583 279.754 71.9166L280.903 73.0352C281.022 73.1502 281.214 73.1516 281.334 73.0384C282.93 71.5743 285.048 70.7579 287.251 70.7579ZM287.248 74.4946C288.45 74.4945 289.609 74.9476 290.499 75.7659C290.62 75.882 290.81 75.8795 290.927 75.7602L292.067 74.5921C292.127 74.5308 292.16 74.4477 292.159 74.3613C292.158 74.2749 292.124 74.1925 292.062 74.1325C289.35 71.5729 285.148 71.5729 282.436 74.1325C282.374 74.1925 282.339 74.275 282.339 74.3614C282.338 74.4478 282.371 74.5309 282.431 74.5921L283.571 75.7602C283.688 75.8795 283.878 75.882 283.999 75.7659C284.889 74.9482 286.047 74.4951 287.248 74.4946ZM289.483 76.9681C289.485 77.0613 289.452 77.1513 289.392 77.2166L287.465 79.3901C287.409 79.454 287.332 79.4899 287.251 79.4899C287.171 79.4899 287.094 79.454 287.037 79.3901L285.11 77.2166C285.05 77.1512 285.017 77.0613 285.019 76.968C285.021 76.8747 285.057 76.7864 285.119 76.7239C286.35 75.5605 288.152 75.5605 289.383 76.7239C289.445 76.7864 289.481 76.8748 289.483 76.9681Z" fill="black"/>
<path fill-rule="evenodd" clip-rule="evenodd" d="M273.021 69.4993C273.021 68.9388 272.599 68.4844 272.077 68.4844H271.133C270.611 68.4844 270.188 68.9388 270.188 69.4993V78.295C270.188 78.8555 270.611 79.3098 271.133 79.3098H272.077C272.599 79.3098 273.021 78.8555 273.021 78.295V69.4993ZM266.439 70.6495H267.384C267.905 70.6495 268.328 71.1148 268.328 71.6887V78.2706C268.328 78.8446 267.905 79.3098 267.384 79.3098H266.439C265.918 79.3098 265.495 78.8446 265.495 78.2706V71.6887C265.495 71.1148 265.918 70.6495 266.439 70.6495ZM262.604 72.995H261.659C261.138 72.995 260.715 73.4662 260.715 74.0475V78.2574C260.715 78.8386 261.138 79.3098 261.659 79.3098H262.604C263.125 79.3098 263.548 78.8386 263.548 78.2574V74.0475C263.548 73.4662 263.125 72.995 262.604 72.995ZM257.91 75.1601H256.966C256.444 75.1601 256.021 75.6246 256.021 76.1975V78.2724C256.021 78.8454 256.444 79.3098 256.966 79.3098H257.91C258.432 79.3098 258.855 78.8454 258.855 78.2724V76.1975C258.855 75.6246 258.432 75.1601 257.91 75.1601Z" fill="black"/>
</g>
<path d="M113.221 186.832V187.665H118.086V188.686H107.165V187.665H111.973V186.828C109.666 186.714 108.333 186 108.333 184.771C108.333 183.443 109.917 182.705 112.616 182.705C115.315 182.705 116.89 183.443 116.89 184.771C116.89 186.005 115.547 186.719 113.221 186.832ZM109.661 184.771C109.652 185.509 110.711 185.887 112.616 185.892C114.535 185.887 115.59 185.509 115.59 184.771C115.59 184.067 114.535 183.665 112.616 183.66C110.711 183.665 109.652 184.067 109.661 184.771ZM116.701 192.392H109.732V193.456H117.046V194.439H108.489V191.48H115.453V190.548H108.465V189.579H116.701V192.392ZM128.046 187.565V182.573H129.257V194.553H128.046V188.601H126.666V193.99H125.47V182.842H126.666V187.565H128.046ZM121.324 182.927H122.581V184.558H124.912V185.584H118.969V184.558H121.324V182.927ZM121.952 186.303C123.465 186.303 124.548 187.447 124.557 189.059C124.548 190.695 123.465 191.844 121.952 191.844C120.444 191.844 119.348 190.695 119.357 189.059C119.348 187.447 120.444 186.303 121.952 186.303ZM121.952 190.752C122.813 190.761 123.432 190.076 123.432 189.059C123.432 188.062 122.813 187.367 121.952 187.362C121.087 187.367 120.473 188.062 120.473 189.059C120.473 190.076 121.087 190.761 121.952 190.752ZM139.619 185.088C138.867 186.464 137.227 187.447 135.345 187.769L134.839 186.776C137.118 186.416 138.976 184.975 138.976 183.381V182.894H140.262V183.381C140.262 185.008 142.101 186.44 144.403 186.776L143.907 187.769C142.016 187.433 140.371 186.468 139.619 185.088ZM140.248 187.007V188.927H145.112V189.967H134.173V188.927H139V187.007H140.248ZM135.549 190.851H136.825V193.267H143.864V194.307H135.549V190.851ZM154.671 182.573H155.943V189.669H154.671V182.573ZM149.438 183.273C151.272 183.268 152.619 184.45 152.619 186.128C152.619 187.821 151.272 188.993 149.438 188.993C147.599 188.993 146.247 187.821 146.247 186.128C146.247 184.45 147.599 183.268 149.438 183.273ZM149.438 184.36C148.298 184.36 147.48 185.06 147.49 186.128C147.48 187.211 148.298 187.92 149.438 187.91C150.563 187.92 151.376 187.211 151.376 186.128C151.376 185.06 150.563 184.36 149.438 184.36ZM147.821 190.288H155.943V194.553H154.671V191.324H147.821V190.288ZM170.262 194.553V182.573H171.482V194.553H170.262ZM166.135 185.395H167.875V182.805H169.076V193.962H167.875V190.104H166.135C165.705 191.295 164.911 191.981 163.889 191.976C162.329 191.981 161.313 190.35 161.313 187.745C161.313 185.154 162.329 183.533 163.889 183.533C164.911 183.533 165.7 184.213 166.135 185.395ZM163.889 190.766C164.778 190.775 165.336 189.655 165.336 187.745C165.336 185.84 164.774 184.724 163.889 184.724C163.005 184.724 162.471 185.84 162.481 187.745C162.471 189.655 163.005 190.775 163.889 190.766ZM166.405 189.054H167.875V186.431H166.4C166.466 186.832 166.504 187.272 166.504 187.745C166.504 188.213 166.466 188.653 166.405 189.054ZM182.426 182.573V185.589H184.161V186.648H182.426V189.801H181.154V182.573H182.426ZM176.531 186.53C176.015 187.873 174.999 188.927 173.604 189.442L172.919 188.435C174.786 187.769 175.869 186.166 175.878 184.384V183.197H177.136V184.492C177.136 186.062 178.242 187.523 180.029 188.109L179.353 189.106C178.039 188.643 177.055 187.712 176.531 186.53ZM178.554 190.085C181.022 190.085 182.535 190.908 182.535 192.302C182.535 193.725 181.022 194.534 178.554 194.534C176.067 194.534 174.535 193.725 174.535 192.302C174.535 190.908 176.067 190.085 178.554 190.085ZM178.554 193.536C180.279 193.527 181.291 193.096 181.291 192.302C181.291 191.541 180.279 191.092 178.554 191.092C176.824 191.092 175.798 191.541 175.807 192.302C175.798 193.096 176.824 193.527 178.554 193.536ZM190.297 187.797C187.692 187.797 186.014 186.884 186.014 185.372C186.014 183.868 187.692 182.965 190.297 182.975C192.892 182.965 194.57 183.868 194.57 185.372C194.57 186.884 192.892 187.797 190.297 187.797ZM190.297 183.991C188.462 183.991 187.323 184.511 187.333 185.372C187.323 186.256 188.462 186.762 190.297 186.762C192.131 186.762 193.27 186.256 193.27 185.372C193.27 184.511 192.131 183.991 190.297 183.991ZM184.846 189.844V188.827H195.767V189.844H184.846ZM186.222 190.818H187.498V193.267H194.537V194.307H186.222V190.818ZM203.727 193.55C201.888 193.55 200.513 192.435 200.451 190.889H201.884C201.955 191.716 202.744 192.316 203.727 192.316C204.9 192.316 205.741 191.47 205.741 190.317C205.741 189.14 204.871 188.284 203.661 188.274C202.876 188.27 202.285 188.53 201.95 189.125H200.565L201.198 183.736H206.682V184.998H202.418L202.087 187.702H202.181C202.588 187.324 203.264 187.059 204.002 187.059C205.826 187.059 207.174 188.407 207.169 190.284C207.174 192.184 205.737 193.55 203.727 193.55ZM217.041 185.603V182.573H218.308V189.636H217.041V186.658H214.706C214.455 188.081 213.222 189.04 211.633 189.036C209.832 189.04 208.489 187.839 208.499 186.128C208.489 184.44 209.832 183.235 211.633 183.244C213.222 183.235 214.455 184.194 214.706 185.603H217.041ZM211.633 187.958C212.716 187.958 213.538 187.23 213.538 186.128C213.538 185.06 212.716 184.317 211.633 184.317C210.532 184.317 209.704 185.06 209.704 186.128C209.704 187.23 210.532 187.958 211.633 187.958ZM217.041 191.286H210.186V190.274H218.308V194.571H217.041V191.286ZM226.146 183.736H227.584V193.418H226.109V185.211H226.052L223.74 186.719V185.315L226.146 183.736ZM229.745 192.482H231.239L230.166 196.179H229.031L229.745 192.482ZM236.31 193.55C234.471 193.55 233.096 192.435 233.034 190.889H234.467C234.538 191.716 235.327 192.316 236.31 192.316C237.483 192.316 238.324 191.47 238.324 190.317C238.324 189.14 237.455 188.284 236.244 188.274C235.46 188.27 234.869 188.53 234.533 189.125H233.148L233.781 183.736H239.265V184.998H235.001L234.67 187.702H234.765C235.171 187.324 235.847 187.059 236.585 187.059C238.41 187.059 239.757 188.407 239.752 190.284C239.757 192.184 238.32 193.55 236.31 193.55ZM243.554 183.736H244.992V193.418H243.517V185.211H243.46L241.148 186.719V185.315L243.554 183.736ZM250.821 193.574C248.585 193.574 247.266 191.754 247.271 188.582C247.271 185.428 248.599 183.604 250.821 183.604C253.048 183.604 254.376 185.433 254.376 188.582C254.376 191.754 253.062 193.574 250.821 193.574ZM250.821 192.307C252.131 192.307 252.911 190.997 252.911 188.582C252.911 186.171 252.121 184.856 250.821 184.856C249.526 184.856 248.736 186.171 248.736 188.582C248.732 190.997 249.516 192.307 250.821 192.307ZM264.906 182.568V186.152H266.641V187.211H264.906V191.338H263.635V182.568H264.906ZM255.952 183.627H261.564V189.225H255.952V183.627ZM257.196 188.213H260.321V184.653H257.196V188.213ZM257.314 190.496H258.576V193.267H265.417V194.307H257.314V190.496ZM273.605 190.52V189.622H276.016V182.582H277.292V191.669H276.016V190.52H273.605ZM271.189 187.239C269.411 187.239 268.201 186.431 268.201 185.149C268.201 183.887 269.411 183.041 271.189 183.041C272.938 183.041 274.153 183.887 274.162 185.149C274.153 186.431 272.938 187.239 271.189 187.239ZM271.189 183.986C270.125 183.982 269.402 184.44 269.407 185.149C269.402 185.863 270.125 186.308 271.189 186.308C272.21 186.308 272.943 185.863 272.952 185.149C272.943 184.44 272.21 183.982 271.189 183.986ZM271.945 191.295H270.678V189.026C269.515 189.069 268.4 189.078 267.426 189.073L267.265 188.052C269.482 188.038 272.47 188.014 275.023 187.693L275.108 188.61C274.077 188.78 273.004 188.889 271.945 188.955V191.295ZM270.191 190.78V193.267H277.576V194.307H268.924V190.78H270.191ZM287.806 182.573H289.082V194.576H287.806V182.573ZM282.667 183.471C284.454 183.476 285.759 185.107 285.759 187.674C285.759 190.255 284.454 191.886 282.667 191.886C280.861 191.886 279.57 190.255 279.57 187.674C279.57 185.107 280.861 183.476 282.667 183.471ZM282.667 184.606C281.561 184.615 280.795 185.788 280.795 187.674C280.795 189.574 281.561 190.747 282.667 190.747C283.773 190.747 284.53 189.574 284.53 187.674C284.53 185.788 283.773 184.615 282.667 184.606ZM300.073 194.553V182.573H301.293V194.553H300.073ZM296.296 187.163H297.648V182.805H298.858V193.962H297.648V188.194H296.301C296.182 190.534 295.185 191.981 293.701 191.976C292.14 191.981 291.124 190.35 291.124 187.745C291.124 185.154 292.14 183.533 293.701 183.533C295.157 183.533 296.145 184.913 296.296 187.163ZM293.701 190.766C294.585 190.775 295.133 189.655 295.133 187.745C295.133 185.84 294.585 184.724 293.701 184.724C292.84 184.724 292.296 185.84 292.306 187.745C292.296 189.655 292.84 190.775 293.701 190.766ZM311.159 188.851V192.009H313.787V193.059H302.824V192.009H305.448V188.875C304.46 188.336 303.86 187.475 303.86 186.402C303.86 184.516 305.708 183.277 308.275 183.268C310.852 183.277 312.705 184.516 312.705 186.402C312.705 187.461 312.123 188.307 311.159 188.851ZM308.275 184.294C306.398 184.284 305.093 185.107 305.093 186.402C305.093 187.683 306.398 188.52 308.275 188.52C310.142 188.52 311.466 187.683 311.466 186.402C311.466 185.107 310.142 184.284 308.275 184.294ZM306.696 189.343V192.009H309.878V189.338C309.386 189.452 308.847 189.513 308.275 189.513C307.708 189.513 307.178 189.452 306.696 189.343ZM316.018 193.508C315.494 193.508 315.059 193.082 315.068 192.562C315.059 192.042 315.494 191.617 316.018 191.617C316.529 191.617 316.964 192.042 316.964 192.562C316.964 193.082 316.529 193.508 316.018 193.508Z" fill="#AAAAAA"/>
<path d="M112.555 145.303C109.613 145.303 107.877 142.908 107.883 138.734C107.883 134.585 109.631 132.184 112.555 132.184C115.485 132.184 117.233 134.591 117.233 138.734C117.233 142.908 115.503 145.303 112.555 145.303ZM112.555 143.636C114.278 143.636 115.304 141.913 115.304 138.734C115.304 135.562 114.266 133.832 112.555 133.832C110.85 133.832 109.812 135.562 109.812 138.734C109.805 141.913 110.838 143.636 112.555 143.636ZM123.58 145.272C121.16 145.272 119.35 143.804 119.269 141.77H121.154C121.247 142.858 122.286 143.648 123.58 143.648C125.123 143.648 126.23 142.535 126.23 141.017C126.23 139.468 125.085 138.342 123.493 138.33C122.46 138.324 121.683 138.666 121.241 139.449H119.418L120.252 132.358H127.468V134.019H121.857L121.421 137.577H121.546C122.081 137.079 122.97 136.731 123.941 136.731C126.342 136.731 128.115 138.504 128.108 140.973C128.115 143.474 126.224 145.272 123.58 145.272ZM137.988 139.325V138.274H141.061V130.84H142.741V140.084H141.061V139.325H137.988ZM134.71 135.842C132.321 135.842 130.76 134.958 130.76 133.484C130.76 132.041 132.321 131.114 134.71 131.114C137.055 131.114 138.629 132.041 138.641 133.484C138.629 134.958 137.055 135.842 134.71 135.842ZM134.71 132.24C133.254 132.24 132.328 132.731 132.34 133.484C132.328 134.237 133.254 134.722 134.71 134.722C136.141 134.722 137.068 134.237 137.068 133.484C137.068 132.731 136.141 132.24 134.71 132.24ZM135.444 140.121H133.796V137.82C132.377 137.863 131.009 137.863 129.777 137.857L129.584 136.656C132.639 136.663 136.495 136.632 139.892 136.277L139.991 137.347C138.498 137.552 136.956 137.677 135.444 137.757V140.121ZM133.653 144.015V145.228H143.213V146.441H132.01V142.896H141.08V141.782H131.948V140.613H142.741V144.015H133.653ZM157.582 130.828V134.125H159.865V135.512H157.582V138.803H155.909V130.828H157.582ZM145.801 131.674H153.184V138.056H145.801V131.674ZM147.437 136.731H151.548V133.011H147.437V136.731ZM157.582 143.505H149.066V145.054H158.117V146.392H147.424V142.267H155.921V140.83H147.387V139.512H157.582V143.505ZM176.585 146.591V130.828H178.265V146.591H176.585ZM166.079 132.526H173.581C173.568 137.135 171.609 141.135 166.197 143.717L165.314 142.367C169.506 140.376 171.547 137.534 171.876 133.857H166.079V132.526ZM182.146 137.838L181.53 136.52C184.472 136.146 186.718 134.635 186.805 132.924H182.046V131.581H193.809V132.924H189.026C189.1 134.635 191.371 136.146 194.313 136.52L193.678 137.838C190.979 137.478 188.758 136.221 187.906 134.448C187.054 136.221 184.845 137.478 182.146 137.838ZM180.709 140.215V138.852H195.134V140.215H188.882V143.263H187.228V140.215H180.709ZM182.506 141.757H184.174V144.899H193.535V146.267H182.506V141.757ZM204.197 136.016H213.484V137.366H202.53V131.599H204.197V136.016ZM200.701 139.555H215.126V140.936H208.669V146.591H207.009V140.936H200.701V139.555ZM227.741 134.84V130.828H229.408V140.252H227.741V136.221H224.817V134.84H227.741ZM221.091 136.252C220.401 137.981 219.02 139.375 217.141 140.034L216.276 138.709C218.702 137.882 220.214 135.779 220.214 133.646V133.198H216.793V131.848H225.302V133.198H221.906V133.633C221.906 135.618 223.33 137.565 225.707 138.373L224.854 139.673C223.082 139.07 221.775 137.807 221.091 136.252ZM227.741 142.398H218.721V141.042H229.408V146.591H227.741V142.398ZM239.005 134.137C238.016 135.947 235.858 137.241 233.382 137.664L232.716 136.358C235.715 135.885 238.159 133.988 238.159 131.892V131.251H239.851V131.892C239.851 134.031 242.271 135.916 245.301 136.358L244.647 137.664C242.159 137.223 239.994 135.954 239.005 134.137ZM239.833 136.663V139.188H246.234V140.557H231.839V139.188H238.19V136.663H239.833ZM233.65 141.72H235.329V144.899H244.591V146.267H233.65V141.72ZM258.811 130.828H260.484V140.165H258.811V130.828ZM251.925 131.748C254.338 131.742 256.111 133.297 256.111 135.506C256.111 137.733 254.338 139.275 251.925 139.275C249.505 139.275 247.726 137.733 247.726 135.506C247.726 133.297 249.505 131.742 251.925 131.748ZM251.925 133.179C250.426 133.179 249.349 134.1 249.362 135.506C249.349 136.93 250.426 137.863 251.925 137.851C253.405 137.863 254.475 136.93 254.475 135.506C254.475 134.1 253.405 133.179 251.925 133.179ZM249.797 140.98H260.484V146.591H258.811V142.342H249.797V140.98ZM270.15 137.701C266.723 137.701 264.514 136.501 264.514 134.51C264.514 132.532 266.723 131.344 270.15 131.357C273.565 131.344 275.773 132.532 275.773 134.51C275.773 136.501 273.565 137.701 270.15 137.701ZM270.15 132.694C267.736 132.694 266.237 133.378 266.25 134.51C266.237 135.674 267.736 136.339 270.15 136.339C272.564 136.339 274.063 135.674 274.063 134.51C274.063 133.378 272.564 132.694 270.15 132.694ZM262.978 140.395V139.058H277.347V140.395H262.978ZM264.788 141.676H266.468V144.899H275.73V146.267H264.788V141.676Z" fill="black"/>
<path d="M117.121 168.875H107.995L107.989 166.965L112.567 162.754C113.749 161.616 114.39 160.913 114.396 159.893C114.39 158.767 113.532 158.07 112.375 158.07C111.174 158.07 110.384 158.823 110.39 160.048H107.877C107.871 157.554 109.718 155.961 112.393 155.961C115.13 155.961 116.94 157.516 116.947 159.725C116.94 161.174 116.237 162.368 113.612 164.745L111.672 166.617V166.704H117.121V168.875ZM129.727 158.356V154.475H131.966V163.948H129.727V160.197H127.058C126.629 162.014 124.987 163.239 122.934 163.239C120.508 163.239 118.661 161.578 118.673 159.258C118.661 156.981 120.508 155.327 122.934 155.339C124.993 155.327 126.642 156.558 127.065 158.356H129.727ZM122.934 161.336C124.116 161.33 125.024 160.564 125.037 159.258C125.024 158.008 124.116 157.23 122.934 157.23C121.728 157.23 120.801 158.008 120.801 159.258C120.801 160.564 121.728 161.33 122.934 161.336ZM129.727 166.461H120.962V164.682H131.966V170.511H129.727V166.461ZM141.71 156.135H144.204V168.875H141.554V158.655H141.48L138.556 160.49V158.138L141.71 156.135ZM146.812 167.569H149.319L147.801 172.576H145.941L146.812 167.569ZM160.151 164.496H161.756V166.617H160.151V168.875H157.626V166.617H151.437V164.533L156.83 156.135H160.151V164.496ZM157.545 159.034L154.105 164.396V164.496H157.663V159.034H157.545ZM168.421 169.049C165.783 169.037 163.27 167.469 163.276 162.798C163.289 158.505 165.335 155.961 168.52 155.961C171.083 155.961 172.837 157.579 173.098 159.675H170.492C170.281 158.785 169.546 158.232 168.52 158.232C166.791 158.232 165.876 159.787 165.87 162.287H165.982C166.573 161.162 167.83 160.496 169.248 160.496C171.537 160.496 173.241 162.219 173.235 164.608C173.241 167.202 171.288 169.062 168.421 169.049ZM168.408 166.965C169.708 166.965 170.672 165.97 170.666 164.682C170.672 163.413 169.727 162.424 168.427 162.424C167.127 162.424 166.15 163.445 166.138 164.695C166.144 165.939 167.096 166.965 168.408 166.965ZM184.183 168.875H175.057L175.051 166.965L179.629 162.754C180.811 161.616 181.452 160.913 181.458 159.893C181.452 158.767 180.593 158.07 179.436 158.07C178.236 158.07 177.446 158.823 177.452 160.048H174.939C174.933 157.554 176.78 155.961 179.455 155.961C182.192 155.961 184.002 157.516 184.009 159.725C184.002 161.174 183.299 162.368 180.674 164.745L178.734 166.617V166.704H184.183V168.875ZM198.238 154.487V159.096H200.391V160.95H198.238V166.169H195.987V154.487H198.238ZM186.009 155.812H193.697V163.5H186.009V155.812ZM188.23 161.734H191.483V157.597H188.23V161.734ZM187.85 165.012H190.09V168.408H198.811V170.219H187.85V165.012ZM209.354 165.317V163.787H212.414V154.499H214.666V166.598H212.414V165.317H209.354ZM206.25 160.739C203.873 160.739 202.225 159.631 202.225 157.914C202.225 156.21 203.873 155.034 206.25 155.041C208.582 155.034 210.243 156.21 210.25 157.914C210.243 159.631 208.582 160.739 206.25 160.739ZM206.25 156.683C205.111 156.683 204.346 157.118 204.352 157.914C204.346 158.692 205.111 159.115 206.25 159.115C207.332 159.115 208.11 158.692 208.116 157.914C208.11 157.118 207.332 156.683 206.25 156.683ZM205.329 166.213V168.408H215.021V170.219H203.083V165.435H205.329V163.301C203.892 163.357 202.524 163.37 201.304 163.37L201.037 161.597C203.979 161.572 207.935 161.535 211.319 161.106L211.45 162.717C210.187 162.928 208.875 163.071 207.581 163.171V166.213H205.329ZM223.965 155.302C227.355 155.302 229.999 157.131 229.999 159.905C229.999 162.698 227.355 164.521 223.965 164.521C220.587 164.521 217.956 162.698 217.962 159.905C217.956 157.131 220.587 155.302 223.965 155.302ZM223.965 157.118C221.744 157.106 220.133 158.188 220.139 159.905C220.133 161.647 221.744 162.679 223.965 162.679C226.18 162.679 227.778 161.647 227.784 159.905C227.778 158.188 226.18 157.106 223.965 157.118ZM216.675 166.729H231.318V168.545H216.675V166.729ZM240.641 164.452V166.872H246.887V168.707H232.244V166.872H238.421V164.452H233.93V159.065H242.98V157.324H233.905V155.52H245.201V160.826H236.169V162.63H245.574V164.452H240.641ZM253.514 163.221L252.699 161.46C256.014 161.075 257.825 159.513 258.092 158.095H253.284V156.328H258.129V154.499H260.356V156.328H265.227V158.095H260.412C260.68 159.494 262.477 161.075 265.787 161.46L264.978 163.221C262.266 162.903 260.306 161.79 259.261 160.334C258.216 161.802 256.245 162.897 253.514 163.221ZM251.965 164.067H266.571V165.902H260.356V170.511H258.129V165.902H251.965V164.067ZM276.286 160.21V158.381H278.787V154.475H281.026V163.992H278.787V160.21H276.286ZM272.467 160.409C271.77 162.039 270.489 163.345 268.592 163.998L267.428 162.219C270.041 161.348 271.241 159.264 271.291 157.255H268.081V155.451H276.765V157.255H273.574C273.63 159.115 274.775 160.994 277.257 161.815L276.149 163.581C274.383 163.003 273.17 161.846 272.467 160.409ZM275.552 164.346C278.974 164.346 281.064 165.491 281.07 167.432C281.064 169.373 278.974 170.511 275.552 170.517C272.143 170.511 270.047 169.373 270.053 167.432C270.047 165.491 272.143 164.346 275.552 164.346ZM275.552 168.8C277.68 168.807 278.837 168.346 278.843 167.432C278.837 166.511 277.68 166.051 275.552 166.051C273.431 166.051 272.28 166.511 272.286 167.432C272.28 168.346 273.431 168.807 275.552 168.8ZM294.997 160.851V154.475H297.143V170.499H294.997V162.673H293.74V169.758H291.65V154.754H293.74V160.851H294.997ZM288.223 162.779V165.404C289.199 165.354 290.151 165.28 290.997 165.18L291.115 166.785C288.54 167.27 285.249 167.345 283.197 167.345L282.892 165.516C283.794 165.516 284.907 165.503 286.077 165.479V162.779H283.595V155.93H290.487V157.734H285.797V160.987H290.63V162.779H288.223ZM310.062 162.822V166.791H313.316V168.62H298.672V166.791H301.938V162.86C300.7 162.113 299.954 160.975 299.96 159.563C299.954 156.975 302.492 155.265 305.963 155.265C309.434 155.265 311.997 156.975 311.997 159.563C311.997 160.956 311.269 162.076 310.062 162.822ZM305.963 157.037C303.674 157.025 302.168 157.958 302.168 159.563C302.168 161.137 303.674 162.101 305.963 162.107C308.233 162.101 309.776 161.137 309.782 159.563C309.776 157.958 308.233 157.025 305.963 157.037ZM304.159 163.675V166.791H307.792V163.675C307.219 163.78 306.61 163.843 305.963 163.843C305.328 163.843 304.725 163.787 304.159 163.675ZM316.307 169.031C315.492 169.031 314.814 168.371 314.826 167.556C314.814 166.748 315.492 166.088 316.307 166.088C317.091 166.088 317.775 166.748 317.781 167.556C317.775 168.371 317.091 169.031 316.307 169.031Z" fill="black"/>
<path d="M114.285 118.499V109.116H115.114V118.499H114.285ZM110.74 110.773V111.997C110.74 113.587 111.897 115.207 113.278 115.804L112.815 116.461C111.718 115.961 110.773 114.882 110.333 113.587C109.893 114.961 108.945 116.155 107.873 116.693L107.381 116.036C108.724 115.394 109.896 113.617 109.904 111.997V110.773H107.687V110.079H112.972V110.773H110.74ZM124.06 109.124V111.908H125.471V112.624H124.06V115.901H123.231V109.124H124.06ZM122.261 113.087L122.358 113.781C120.768 114.11 119.342 114.199 117.924 114.199H117.178V109.803H118.014V113.49C119.353 113.494 120.734 113.408 122.261 113.087ZM118.215 115.237H119.044V117.603H124.396V118.29H118.215V115.237ZM133.267 113.072V109.116H134.058V118.499H133.267V113.759H132.02V118.036H131.237V109.34H132.02V113.072H133.267ZM127.99 109.4H128.818V110.736H130.752V111.415H126.041V110.736H127.99V109.4ZM128.4 112.05C129.58 112.05 130.423 112.93 130.431 114.177C130.423 115.439 129.58 116.327 128.4 116.327C127.228 116.327 126.377 115.439 126.385 114.177C126.377 112.93 127.228 112.05 128.4 112.05ZM128.4 115.603C129.147 115.61 129.692 115.013 129.692 114.177C129.692 113.356 129.147 112.751 128.4 112.744C127.654 112.751 127.116 113.356 127.116 114.177C127.116 115.013 127.654 115.61 128.4 115.603ZM142.653 112.99H144.184V113.699H142.653V118.499H141.832V109.116H142.653V112.99ZM138.652 114.099V115.696C139.529 115.655 140.41 115.592 141.228 115.483L141.287 116.11C139.294 116.446 137.077 116.469 135.428 116.454L135.286 115.76C136.044 115.756 136.917 115.752 137.824 115.726V114.102C136.573 113.949 135.726 113.11 135.734 111.93C135.726 110.624 136.764 109.736 138.234 109.728C139.675 109.736 140.728 110.624 140.735 111.93C140.728 113.106 139.873 113.946 138.652 114.099ZM136.54 111.93C136.532 112.811 137.249 113.423 138.234 113.416C139.205 113.423 139.914 112.811 139.921 111.93C139.914 111.049 139.205 110.445 138.234 110.437C137.249 110.445 136.532 111.049 136.54 111.93ZM154.364 109.116H155.193V118.514H154.364V109.116ZM148.004 109.915H148.833V112.393H151.625V109.915H152.446V116.245H148.004V109.915ZM148.833 113.057V115.551H151.625V113.057H148.833ZM163.519 111.109V110.751H157.697V110.064H164.34V111.109C164.333 112.311 164.333 113.52 164.004 115.267L163.191 115.17C163.519 113.513 163.519 112.281 163.519 111.109ZM162.079 113.386V116.476H165.356V117.17H156.801V116.476H158.921V113.386H159.75V116.476H161.265V113.386H162.079ZM173.406 112.983H174.973V113.677H173.406V118.499H172.585V109.116H173.406V112.983ZM168.501 109.228H169.33V110.624H171.674V111.311H166.09V110.624H168.501V109.228ZM168.927 112.087C170.256 112.087 171.219 112.975 171.226 114.244C171.219 115.513 170.256 116.394 168.927 116.394C167.591 116.394 166.62 115.513 166.628 114.244C166.62 112.975 167.591 112.087 168.927 112.087ZM168.927 115.692C169.793 115.7 170.427 115.095 170.435 114.244C170.427 113.393 169.793 112.781 168.927 112.781C168.054 112.781 167.412 113.393 167.419 114.244C167.412 115.095 168.054 115.7 168.927 115.692ZM182.411 118.499V109.116H183.24V118.499H182.411ZM176.037 110.139H180.463C180.456 112.833 179.202 115.222 176.051 116.737L175.604 116.058C178.142 114.856 179.437 113.05 179.62 110.811H176.037V110.139Z" fill="#8A8A8B"/>
<g clip-path="url(#clip1_1911_6277)">
<path d="M320.2 216H99.8C96.5967 216 94 218.597 94 221.8V542.613C94 545.816 96.5967 548.413 99.8 548.413H320.2C323.403 548.413 326 545.816 326 542.613V221.8C326 218.597 323.403 216 320.2 216Z" fill="white"/>
<path d="M320.199 216.182H99.7994C96.6963 216.182 94.1807 218.697 94.1807 221.8V542.613C94.1807 545.716 96.6963 548.232 99.7994 548.232H320.199C323.303 548.232 325.818 545.716 325.818 542.613V221.8C325.818 218.697 323.303 216.182 320.199 216.182Z" stroke="#EFEFEF" stroke-width="0.3625"/>
<path d="M104.875 278.711H315.125" stroke="#C1C1C1" stroke-width="0.3625"/>
<path d="M314.4 332.363H105.6C103.197 332.363 101.25 334.311 101.25 336.713V390.001C101.25 392.403 103.197 394.351 105.6 394.351H314.4C316.802 394.351 318.75 392.403 318.75 390.001V336.713C318.75 334.311 316.802 332.363 314.4 332.363Z" fill="#0088FF" fill-opacity="0.05"/>
<path d="M125.309 377.101H123.777V375.458H122.436V374.232H123.777V373.39H122.436V372.185H123.777V370.398H125.309V377.101ZM122.356 375.177L122.415 376.305C120.36 376.645 117.968 376.692 116.236 376.692L116.074 375.441C116.436 375.441 116.827 375.437 117.236 375.432V372.355H116.355V371.125H122.185V372.355H121.287V375.279C121.653 375.249 122.011 375.215 122.356 375.177ZM119.819 372.355H118.725V375.407C119.087 375.398 119.453 375.386 119.819 375.369V372.355ZM121.564 377.271C123.918 377.271 125.335 378.011 125.339 379.326C125.335 380.599 123.918 381.361 121.564 381.357C119.215 381.361 117.798 380.599 117.802 379.326C117.798 378.011 119.215 377.271 121.564 377.271ZM121.564 380.19C123.028 380.186 123.811 379.901 123.815 379.326C123.811 378.726 123.028 378.437 121.564 378.437C120.1 378.437 119.325 378.726 119.33 379.326C119.325 379.901 120.1 380.186 121.564 380.19ZM135.344 374.964H136.748V376.19H134.233V378.582H132.744V376.19H131.552V378.582H130.045V376.19H126.73V374.964H133.799C134.008 373.824 134.029 372.943 134.033 372.13H127.93V370.925H135.565V371.857C135.565 372.734 135.565 373.713 135.344 374.964ZM127.803 377.599H129.335V379.931H135.855V381.169H127.803V377.599ZM142.344 372.977C141.655 374.109 140.327 374.926 138.506 375.207L137.906 374.007C140.323 373.666 141.574 372.343 141.578 371.049V370.713H143.14V371.049C143.14 372.411 144.345 373.692 146.813 374.007L146.222 375.207C144.379 374.913 143.034 374.113 142.344 372.977ZM143.123 374.53V376.084H147.375V377.309H137.382V376.084H141.6V374.53H143.123ZM138.587 377.986H140.127V379.931H146.234V381.169H138.587V377.986ZM155.661 370.398H157.201V376.833H155.661V370.398ZM151.196 371.002C152.903 370.998 154.188 372.121 154.188 373.67C154.188 375.245 152.903 376.356 151.196 376.356C149.485 376.356 148.196 375.245 148.2 373.67C148.196 372.121 149.485 370.998 151.196 371.002ZM151.196 372.313C150.32 372.317 149.694 372.815 149.702 373.67C149.694 374.547 150.32 375.054 151.196 375.049C152.052 375.054 152.673 374.547 152.673 373.67C152.673 372.815 152.052 372.317 151.196 372.313ZM149.673 377.343H157.201V381.361H155.661V378.573H149.673V377.343Z" fill="black"/>
<path d="M121.041 347.238C120.351 348.37 119.023 349.188 117.202 349.469L116.602 348.268C119.019 347.928 120.27 346.604 120.274 345.311V344.974H121.836V345.311C121.836 346.672 123.041 347.953 125.509 348.268L124.918 349.469C123.075 349.175 121.73 348.375 121.041 347.238ZM121.819 348.792V350.345H126.071V351.571H116.078V350.345H120.296V348.792H121.819ZM117.283 352.248H118.823V354.193H124.93V355.431H117.283V352.248ZM134.357 344.659H135.897V351.094H134.357V344.659ZM129.892 345.264C131.599 345.259 132.884 346.383 132.884 347.932C132.884 349.507 131.599 350.618 129.892 350.618C128.181 350.618 126.892 349.507 126.896 347.932C126.892 346.383 128.181 345.259 129.892 345.264ZM129.892 346.575C129.016 346.579 128.39 347.077 128.398 347.932C128.39 348.809 129.016 349.315 129.892 349.311C130.748 349.315 131.369 348.809 131.369 347.932C131.369 347.077 130.748 346.579 129.892 346.575ZM128.369 351.605H135.897V355.623H134.357V352.835H128.369V351.605Z" fill="black"/>
<path d="M241.238 376.407V375.488H243.217V370.415H244.758V376.764H243.217V376.407H241.238ZM239 373.849C237.331 373.853 236.221 373.228 236.225 372.211C236.221 371.223 237.331 370.568 239 370.564C240.634 370.568 241.753 371.223 241.762 372.211C241.753 373.228 240.634 373.853 239 373.849ZM239 371.568C238.174 371.564 237.668 371.806 237.676 372.211C237.668 372.615 238.174 372.841 239 372.841C239.813 372.841 240.323 372.615 240.323 372.211C240.323 371.806 239.813 371.564 239 371.568ZM239.706 376.777H238.183V375.313C237.289 375.334 236.429 375.334 235.638 375.326L235.476 374.275C237.595 374.275 240.217 374.258 242.562 374.041L242.643 374.994C241.672 375.122 240.681 375.207 239.706 375.258V376.777ZM238.6 379.646V380.212H245.013V381.284H237.089V378.654H243.226V378.122H237.046V377.088H244.758V379.646H238.6ZM255.148 377.254H256.246V378.705H255.148V380.25H253.42V378.705H249.185V377.279L252.875 371.534H255.148V377.254ZM253.365 373.517L251.011 377.186V377.254H253.445V373.517H253.365ZM257.492 379.356H259.207L258.168 382.782H256.896L257.492 379.356ZM267.04 380.25H260.796L260.792 378.943L263.924 376.062C264.733 375.283 265.171 374.802 265.176 374.105C265.171 373.334 264.584 372.858 263.792 372.858C262.971 372.858 262.43 373.373 262.435 374.211H260.715C260.711 372.504 261.975 371.415 263.805 371.415C265.678 371.415 266.916 372.479 266.92 373.99C266.916 374.981 266.435 375.798 264.639 377.424L263.311 378.705V378.765H267.04V380.25ZM271.506 371.415C273.307 371.423 275.013 372.496 275.022 375.662C275.026 378.629 273.617 380.369 271.434 380.369C269.676 380.369 268.476 379.271 268.298 377.799H270.081C270.23 378.437 270.728 378.816 271.434 378.816C272.613 378.816 273.243 377.752 273.251 376.015H273.17C272.766 376.781 271.907 377.241 270.94 377.241C269.374 377.241 268.212 376.062 268.208 374.436C268.204 372.683 269.532 371.406 271.506 371.415ZM271.515 372.841C270.621 372.841 269.962 373.521 269.97 374.385C269.974 375.249 270.608 375.918 271.502 375.918C272.383 375.918 273.064 375.215 273.06 374.377C273.056 373.547 272.404 372.841 271.515 372.841ZM282.482 380.25H276.239L276.234 378.943L279.367 376.062C280.175 375.283 280.614 374.802 280.618 374.105C280.614 373.334 280.026 372.858 279.235 372.858C278.413 372.858 277.873 373.373 277.877 374.211H276.158C276.153 372.504 277.417 371.415 279.247 371.415C281.12 371.415 282.359 372.479 282.363 373.99C282.359 374.981 281.878 375.798 280.082 377.424L278.754 378.705V378.765H282.482V380.25ZM292.098 370.406V373.56H293.571V374.828H292.098V378.399H290.558V370.406H292.098ZM283.731 371.313H288.992V376.573H283.731V371.313ZM285.251 375.364H287.477V372.534H285.251V375.364ZM284.991 377.607H286.523V379.931H292.49V381.169H284.991V377.607ZM299.703 377.816V376.769H301.797V370.415H303.338V378.692H301.797V377.816H299.703ZM297.58 374.683C295.954 374.683 294.826 373.926 294.826 372.751C294.826 371.585 295.954 370.781 297.58 370.785C299.175 370.781 300.312 371.585 300.316 372.751C300.312 373.926 299.175 374.683 297.58 374.683ZM297.58 371.908C296.801 371.908 296.277 372.206 296.281 372.751C296.277 373.283 296.801 373.573 297.58 373.573C298.32 373.573 298.852 373.283 298.856 372.751C298.852 372.206 298.32 371.908 297.58 371.908ZM296.95 378.428V379.931H303.58V381.169H295.413V377.897H296.95V376.437C295.967 376.475 295.03 376.484 294.196 376.484L294.013 375.271C296.026 375.254 298.733 375.228 301.048 374.934L301.137 376.037C300.273 376.181 299.375 376.279 298.49 376.347V378.428H296.95Z" fill="#8A8A8B"/>
<path d="M218.656 346.111V347.353H217.239V348.473H218.656V349.745H217.239V351.124H215.698V344.659H217.239V346.111H218.656ZM214.617 347.932C214.609 349.507 213.323 350.618 211.625 350.618C209.915 350.618 208.616 349.507 208.625 347.932C208.616 346.383 209.915 345.259 211.625 345.264C213.323 345.259 214.609 346.383 214.617 347.932ZM210.127 347.932C210.119 348.809 210.766 349.315 211.625 349.311C212.468 349.315 213.115 348.809 213.119 347.932C213.115 347.077 212.472 346.579 211.625 346.575C210.766 346.579 210.119 347.077 210.127 347.932ZM215.698 352.805H209.863V351.567H217.239V355.623H215.698V352.805ZM228.638 354.512H222.394L222.39 353.205L225.522 350.324C226.331 349.545 226.769 349.064 226.773 348.366C226.769 347.596 226.182 347.119 225.39 347.119C224.569 347.119 224.028 347.634 224.033 348.473H222.313C222.309 346.766 223.573 345.677 225.403 345.677C227.276 345.677 228.514 346.74 228.518 348.251C228.514 349.243 228.033 350.06 226.237 351.686L224.909 352.967V353.026H228.638V354.512ZM231.968 345.796H233.675V354.512H231.862V347.519H231.811L229.81 348.775V347.166L231.968 345.796ZM241.516 351.516H242.614V352.967H241.516V354.512H239.788V352.967H235.554V351.541L239.243 345.796H241.516V351.516ZM239.733 347.779L237.379 351.447V351.516H239.814V347.779H239.733ZM243.86 353.618H245.575L244.537 357.044H243.264L243.86 353.618ZM250.195 354.631C248.39 354.622 246.671 353.55 246.675 350.354C246.684 347.417 248.084 345.677 250.263 345.677C252.016 345.677 253.216 346.783 253.395 348.217H251.612C251.467 347.609 250.965 347.23 250.263 347.23C249.08 347.23 248.454 348.294 248.45 350.005H248.526C248.931 349.234 249.79 348.779 250.761 348.779C252.327 348.779 253.493 349.958 253.489 351.592C253.493 353.367 252.157 354.639 250.195 354.631ZM250.186 353.205C251.076 353.205 251.735 352.524 251.731 351.643C251.735 350.775 251.088 350.098 250.199 350.098C249.309 350.098 248.641 350.796 248.633 351.652C248.637 352.503 249.288 353.205 250.186 353.205ZM260.979 354.512H254.735L254.731 353.205L257.863 350.324C258.672 349.545 259.11 349.064 259.115 348.366C259.11 347.596 258.523 347.119 257.731 347.119C256.91 347.119 256.369 347.634 256.374 348.473H254.654C254.65 346.766 255.914 345.677 257.744 345.677C259.617 345.677 260.855 346.74 260.859 348.251C260.855 349.243 260.374 350.06 258.578 351.686L257.25 352.967V353.026H260.979V354.512ZM264.471 354.512H262.598L266.271 347.341V347.281H261.998V345.796H268.148V347.307L264.471 354.512ZM268.089 353.618H269.804L268.765 357.044H267.493L268.089 353.618ZM274.325 354.631C272.334 354.631 270.908 353.584 270.908 352.167C270.908 351.069 271.751 350.179 272.823 350.013V349.954C271.887 349.771 271.236 348.979 271.236 348.022C271.236 346.668 272.542 345.677 274.325 345.677C276.1 345.677 277.407 346.668 277.411 348.022C277.407 348.983 276.747 349.771 275.824 349.954V350.013C276.888 350.179 277.739 351.069 277.743 352.167C277.739 353.584 276.309 354.631 274.325 354.631ZM274.325 349.392C275.092 349.392 275.645 348.902 275.645 348.209C275.645 347.524 275.1 347.047 274.325 347.047C273.542 347.047 273.006 347.524 273.006 348.209C273.006 348.902 273.555 349.392 274.325 349.392ZM274.325 353.29C275.245 353.29 275.858 352.771 275.858 352.026C275.858 351.269 275.211 350.715 274.325 350.715C273.44 350.715 272.789 351.269 272.798 352.026C272.789 352.767 273.402 353.29 274.325 353.29ZM281.177 354.512H279.304L282.977 347.341V347.281H278.704V345.796H284.854V347.307L281.177 354.512ZM289.24 354.631C287.435 354.622 285.716 353.55 285.72 350.354C285.729 347.417 287.129 345.677 289.308 345.677C291.061 345.677 292.262 346.783 292.44 348.217H290.657C290.512 347.609 290.01 347.23 289.308 347.23C288.125 347.23 287.499 348.294 287.495 350.005H287.572C287.976 349.234 288.836 348.779 289.806 348.779C291.372 348.779 292.538 349.958 292.534 351.592C292.538 353.367 291.202 354.639 289.24 354.631ZM289.231 353.205C290.121 353.205 290.78 352.524 290.776 351.643C290.78 350.775 290.134 350.098 289.244 350.098C288.355 350.098 287.686 350.796 287.678 351.652C287.682 352.503 288.333 353.205 289.231 353.205ZM299.071 352.077V351.03H301.164V344.676H302.705V352.954H301.164V352.077H299.071ZM296.947 348.945C295.321 348.945 294.193 348.187 294.193 347.013C294.193 345.847 295.321 345.042 296.947 345.047C298.543 345.042 299.679 345.847 299.683 347.013C299.679 348.187 298.543 348.945 296.947 348.945ZM296.947 346.17C296.168 346.17 295.645 346.468 295.649 347.013C295.645 347.545 296.168 347.834 296.947 347.834C297.687 347.834 298.219 347.545 298.224 347.013C298.219 346.468 297.687 346.17 296.947 346.17ZM296.317 352.69V354.193H302.948V355.431H294.781V352.158H296.317V350.698C295.334 350.737 294.398 350.745 293.563 350.745L293.38 349.532C295.393 349.515 298.1 349.49 300.415 349.196L300.505 350.298C299.641 350.443 298.743 350.541 297.858 350.609V352.69H296.317Z" fill="#8A8A8B"/>
<path d="M321.65 216H98.35C95.9476 216 94 217.948 94 220.35V274.363C94 276.765 95.9476 278.713 98.35 278.713H321.65C324.052 278.713 326 276.765 326 274.363V220.35C326 217.948 324.052 216 321.65 216Z" fill="#0088FF"/>
<path d="M112.757 242.822C111.824 244.353 110.028 245.459 107.564 245.839L106.752 244.215C110.022 243.755 111.715 241.964 111.721 240.213V239.759H113.834V240.213C113.834 242.056 115.463 243.789 118.803 244.215L118.003 245.839C115.51 245.442 113.69 244.359 112.757 242.822ZM113.811 244.923V247.025H119.563V248.683H106.043V247.025H111.75V244.923H113.811ZM107.673 249.599H109.757V252.23H118.02V253.906H107.673V249.599ZM130.773 239.332H132.858V248.038H130.773V239.332ZM124.733 240.15C127.042 240.144 128.781 241.664 128.781 243.76C128.781 245.891 127.042 247.394 124.733 247.394C122.418 247.394 120.674 245.891 120.68 243.76C120.674 241.664 122.418 240.144 124.733 240.15ZM124.733 241.924C123.547 241.929 122.701 242.603 122.712 243.76C122.701 244.946 123.547 245.632 124.733 245.626C125.89 245.632 126.731 244.946 126.731 243.76C126.731 242.603 125.89 241.929 124.733 241.924ZM122.672 248.729H132.858V254.165H130.773V250.393H122.672V248.729ZM135.897 247.929C135.897 245.062 136.657 242.684 138.223 240.634H140.521C139.329 242.154 138.408 245.2 138.408 247.929C138.408 250.653 139.329 253.699 140.521 255.219H138.223C136.657 253.169 135.897 250.791 135.897 247.929ZM152.574 252.662H149.948L149.061 249.944H144.783L143.896 252.662H141.271L145.347 240.87H148.497L152.574 252.662ZM146.873 243.53L145.405 248.027H148.434L146.965 243.53H146.873ZM153.965 246.858H159.337V248.77H153.965V246.858ZM166.39 252.662H161.392V240.87H166.085C168.682 240.87 169.995 242.125 169.995 243.899C169.995 245.292 169.085 246.156 167.864 246.426V246.541C169.2 246.605 170.455 247.658 170.455 249.415C170.455 251.28 169.051 252.662 166.39 252.662ZM163.84 242.856V245.81H165.722C166.753 245.81 167.519 245.24 167.519 244.296C167.519 243.438 166.886 242.856 165.769 242.856H163.84ZM163.84 247.486V250.653H165.907C167.312 250.653 167.928 250.065 167.928 249.173C167.928 248.182 167.173 247.486 165.959 247.486H163.84ZM172.073 246.858H177.445V248.77H172.073V246.858ZM189.859 244.981H187.383C187.182 243.674 186.18 242.879 184.809 242.879C182.973 242.879 181.758 244.284 181.758 246.766C181.758 249.311 182.99 250.653 184.798 250.653C186.134 250.653 187.141 249.916 187.383 248.649L189.859 248.66C189.583 250.837 187.752 252.823 184.757 252.823C181.602 252.823 179.276 250.607 179.276 246.766C179.276 242.92 181.642 240.709 184.757 240.709C187.475 240.709 189.525 242.269 189.859 244.981ZM195.598 247.929C195.598 250.791 194.843 253.169 193.277 255.219H190.974C192.172 253.699 193.093 250.653 193.093 247.929C193.093 245.2 192.172 242.154 190.974 240.634H193.277C194.843 242.684 195.598 245.062 195.598 247.929Z" fill="white"/>
<path d="M236.61 232.595V234.276H234.693V235.79H236.61V237.512H234.693V239.378H232.608V230.631H234.693V232.595H236.61ZM231.146 235.059C231.134 237.19 229.395 238.692 227.098 238.692C224.783 238.692 223.027 237.19 223.039 235.059C223.027 232.963 224.783 231.443 227.098 231.449C229.395 231.443 231.134 232.963 231.146 235.059ZM225.071 235.059C225.06 236.245 225.935 236.93 227.098 236.925C228.238 236.93 229.113 236.245 229.119 235.059C229.113 233.902 228.244 233.228 227.098 233.222C225.935 233.228 225.06 233.902 225.071 235.059ZM232.608 241.652H224.714V239.976H234.693V245.464H232.608V241.652ZM246.009 244.122C243.55 244.122 241.748 242.671 241.702 240.644H244.08C244.138 241.56 244.978 242.193 246.009 242.193C247.23 242.193 248.099 241.33 248.093 240.097C248.099 238.854 247.212 237.978 245.969 237.973C245.088 237.973 244.466 238.301 244.126 238.957H241.898L242.543 232.169H249.798V234.178H244.558L244.236 237.155H244.328C244.765 236.573 245.658 236.153 246.694 236.153C248.859 236.153 250.466 237.771 250.46 240.034C250.466 242.418 248.658 244.122 246.009 244.122ZM252.064 242.752H254.385L252.98 247.387H251.258L252.064 242.752ZM264.982 243.961H256.535L256.529 242.193L260.767 238.295C261.861 237.241 262.454 236.591 262.46 235.646C262.454 234.604 261.66 233.959 260.589 233.959C259.477 233.959 258.746 234.656 258.752 235.79H256.426C256.42 233.481 258.13 232.007 260.606 232.007C263.139 232.007 264.815 233.447 264.821 235.491C264.815 236.833 264.164 237.938 261.734 240.138L259.938 241.871V241.951H264.982V243.961ZM271.025 232.007C273.461 232.019 275.77 233.47 275.781 237.754C275.787 241.767 273.881 244.122 270.927 244.122C268.549 244.122 266.926 242.637 266.684 240.644H269.096C269.298 241.508 269.972 242.021 270.927 242.021C272.522 242.021 273.375 240.581 273.386 238.232H273.277C272.73 239.268 271.567 239.89 270.259 239.89C268.141 239.89 266.569 238.295 266.563 236.096C266.557 233.723 268.354 231.996 271.025 232.007ZM271.037 233.936C269.828 233.936 268.935 234.858 268.947 236.026C268.952 237.195 269.81 238.099 271.02 238.099C272.211 238.099 273.133 237.149 273.127 236.015C273.121 234.892 272.24 233.936 271.037 233.936ZM281.769 244.122C279.31 244.122 277.508 242.671 277.462 240.644H279.84C279.898 241.56 280.738 242.193 281.769 242.193C282.99 242.193 283.859 241.33 283.853 240.097C283.859 238.854 282.972 237.978 281.729 237.973C280.848 237.973 280.226 238.301 279.886 238.957H277.658L278.303 232.169H285.558V234.178H280.318L279.996 237.155H280.088C280.525 236.573 281.418 236.153 282.454 236.153C284.619 236.153 286.226 237.771 286.22 240.034C286.226 242.418 284.418 244.122 281.769 244.122ZM299.162 230.643V234.909H301.154V236.625H299.162V241.456H297.077V230.643H299.162ZM287.842 231.869H294.959V238.986H287.842V231.869ZM289.897 237.351H292.909V233.522H289.897V237.351ZM289.546 240.385H291.619V243.529H299.692V245.205H289.546V240.385ZM309.451 240.667V239.251H312.284V230.654H314.368V241.854H312.284V240.667H309.451ZM306.577 236.43C304.378 236.43 302.852 235.405 302.852 233.815C302.852 232.238 304.378 231.15 306.577 231.155C308.737 231.15 310.274 232.238 310.28 233.815C310.274 235.405 308.737 236.43 306.577 236.43ZM306.577 232.675C305.524 232.675 304.816 233.078 304.821 233.815C304.816 234.535 305.524 234.927 306.577 234.927C307.579 234.927 308.299 234.535 308.305 233.815C308.299 233.078 307.579 232.675 306.577 232.675ZM305.725 241.497V243.529H314.696V245.205H303.647V240.777H305.725V238.802C304.395 238.854 303.128 238.865 302 238.865L301.752 237.224C304.476 237.201 308.138 237.167 311.27 236.769L311.391 238.261C310.222 238.456 309.007 238.589 307.81 238.681V241.497H305.725Z" fill="white"/>
<path d="M256.662 257.214H257.948V258.01H256.662V260.284H255.719V254.933H256.662V257.214ZM252.323 258.017C251.934 258.974 251.162 259.727 250.118 260.095L249.613 259.366C250.998 258.893 251.835 257.743 251.842 256.524V256.282H249.887V255.521H254.699V256.282H252.782V256.527C252.782 257.663 253.567 258.742 254.927 259.198L254.447 259.927C253.441 259.58 252.708 258.886 252.323 258.017ZM255.719 261.487H250.791V260.726H256.662V263.814H255.719V261.487ZM265.858 261.501H264.919V258.483H262.476V257.729H264.919V256.797H262.476V256.047H264.919V254.94H265.858V261.501ZM263.482 259.138L263.58 259.913C262.171 260.176 260.969 260.228 259.658 260.232H258.974V255.553H259.91V259.447C261.088 259.44 262.213 259.37 263.482 259.138ZM261.021 260.929V262.861H266.089V263.632H260.071V260.929H261.021ZM274.378 260.649H275.352V261.571H274.378V262.973H273.337V261.571H269.857V260.691L273.025 255.795H274.378V260.649ZM273.267 257.092L270.999 260.593V260.649H273.344V257.092H273.267ZM276.368 262.279H277.476L276.68 265.019H275.839L276.368 262.279ZM281.16 263.071C279.604 263.071 278.514 262.226 278.521 261.059C278.514 260.141 279.176 259.387 280.018 259.251V259.212C279.285 259.051 278.791 258.392 278.791 257.61C278.791 256.506 279.79 255.697 281.16 255.697C282.517 255.697 283.515 256.506 283.519 257.61C283.515 258.395 283.014 259.051 282.296 259.212V259.251C283.13 259.387 283.792 260.141 283.799 261.059C283.792 262.226 282.699 263.071 281.16 263.071ZM281.16 258.844C281.91 258.844 282.457 258.381 282.457 257.705C282.457 257.039 281.928 256.587 281.16 256.587C280.375 256.587 279.856 257.039 279.856 257.705C279.856 258.381 280.396 258.844 281.16 258.844ZM281.16 262.181C282.092 262.181 282.688 261.697 282.688 260.985C282.688 260.249 282.043 259.71 281.16 259.71C280.27 259.71 279.622 260.249 279.632 260.985C279.622 261.693 280.214 262.181 281.16 262.181ZM287.435 263.071C285.878 263.071 284.788 262.226 284.795 261.059C284.788 260.141 285.451 259.387 286.292 259.251V259.212C285.559 259.051 285.065 258.392 285.065 257.61C285.065 256.506 286.064 255.697 287.435 255.697C288.791 255.697 289.79 256.506 289.793 257.61C289.79 258.395 289.289 259.051 288.57 259.212V259.251C289.404 259.387 290.067 260.141 290.074 261.059C290.067 262.226 288.973 263.071 287.435 263.071ZM287.435 258.844C288.185 258.844 288.731 258.381 288.731 257.705C288.731 257.039 288.202 256.587 287.435 256.587C286.649 256.587 286.131 257.039 286.131 257.705C286.131 258.381 286.67 258.844 287.435 258.844ZM287.435 262.181C288.367 262.181 288.963 261.697 288.963 260.985C288.963 260.249 288.318 259.71 287.435 259.71C286.544 259.71 285.896 260.249 285.906 260.985C285.896 261.693 286.488 262.181 287.435 262.181ZM293.698 263.088C292.041 263.088 291.063 261.739 291.066 259.387C291.066 257.049 292.051 255.697 293.698 255.697C295.349 255.697 296.334 257.053 296.334 259.387C296.334 261.739 295.36 263.088 293.698 263.088ZM293.698 262.149C294.669 262.149 295.248 261.178 295.248 259.387C295.248 257.6 294.662 256.625 293.698 256.625C292.738 256.625 292.153 257.6 292.153 259.387C292.149 261.178 292.731 262.149 293.698 262.149ZM304.141 254.929V257.586H305.427V258.371H304.141V261.431H303.198V254.929H304.141ZM297.502 255.714H301.663V259.864H297.502V255.714ZM298.424 259.114H300.741V256.475H298.424V259.114ZM298.512 260.807H299.448V262.861H304.519V263.632H298.512V260.807ZM310.589 260.824V260.158H312.377V254.94H313.323V261.676H312.377V260.824H310.589ZM308.798 258.392C307.48 258.392 306.583 257.793 306.583 256.843C306.583 255.907 307.48 255.28 308.798 255.28C310.095 255.28 310.996 255.907 311.003 256.843C310.996 257.793 310.095 258.392 308.798 258.392ZM308.798 255.981C308.01 255.977 307.473 256.317 307.477 256.843C307.473 257.372 308.01 257.701 308.798 257.701C309.555 257.701 310.098 257.372 310.105 256.843C310.098 256.317 309.555 255.977 308.798 255.981ZM309.359 261.399H308.42V259.717C307.557 259.748 306.73 259.755 306.008 259.752L305.889 258.995C307.533 258.984 309.748 258.967 311.641 258.728L311.704 259.408C310.94 259.534 310.144 259.615 309.359 259.664V261.399ZM308.059 261.017V262.861H313.533V263.632H307.119V261.017H308.059Z" fill="white"/>
<path d="M134.826 301.556V302.339H140.099V303.837H127.755V302.339H132.95V301.556C130.426 301.398 128.986 300.604 128.991 299.269C128.986 297.776 130.794 296.961 133.917 296.956C137.034 296.961 138.832 297.776 138.838 299.269C138.832 300.615 137.381 301.409 134.826 301.556ZM130.978 299.269C130.968 299.926 131.935 300.194 133.917 300.194C135.925 300.194 136.882 299.926 136.882 299.269C136.882 298.659 135.925 298.359 133.917 298.354C131.935 298.359 130.968 298.659 130.978 299.269ZM138.591 308.033H131.052V308.848H138.943V310.278H129.191V306.713H136.719V305.993H129.18V304.579H138.591V308.033ZM150.813 302.344V296.829H152.616V310.372H150.813V303.858H149.714V309.789H147.937V297.098H149.714V302.344H150.813ZM143.253 297.213H145.12V298.901H147.438V300.41H140.887V298.901H143.253V297.213ZM144.194 301.019C145.924 301.019 147.159 302.35 147.165 304.221C147.159 306.119 145.924 307.454 144.194 307.454C142.47 307.454 141.208 306.119 141.213 304.221C141.208 302.35 142.47 301.019 144.194 301.019ZM144.194 305.846C144.957 305.851 145.493 305.257 145.498 304.221C145.493 303.207 144.957 302.591 144.194 302.591C143.411 302.591 142.875 303.207 142.88 304.221C142.875 305.257 143.411 305.851 144.194 305.846ZM161.009 301.072H168.653V302.586H159.106V297.445H161.009V301.072ZM157.581 304.132H169.956V305.683H164.652V310.372H162.749V305.683H157.581V304.132ZM180.25 300.089V296.829H182.142V304.899H180.25V301.64H178.152V300.089H180.25ZM174.903 301.829C174.309 303.18 173.226 304.263 171.633 304.778L170.66 303.28C172.889 302.565 173.904 300.783 173.915 299.101H171.202V297.592H178.541V299.101H175.844C175.855 300.688 176.822 302.329 178.956 303.038L178.021 304.5C176.522 304.027 175.492 303.049 174.903 301.829ZM180.25 307.013H172.842V305.493H182.142V310.372H180.25V307.013ZM193.536 300.015C192.685 301.414 191.044 302.423 188.794 302.77L188.053 301.288C191.039 300.867 192.585 299.232 192.59 297.634V297.218H194.52V297.634C194.52 299.316 196.007 300.899 199.057 301.288L198.326 302.77C196.049 302.407 194.388 301.419 193.536 300.015ZM194.498 301.934V303.853H199.75V305.367H187.406V303.853H192.616V301.934H194.498ZM188.894 306.203H190.797V308.606H198.342V310.136H188.894V306.203ZM209.986 296.829H211.889V304.778H209.986V296.829ZM204.471 297.576C206.579 297.571 208.167 298.959 208.167 300.872C208.167 302.817 206.579 304.19 204.471 304.19C202.358 304.19 200.765 302.817 200.77 300.872C200.765 298.959 202.358 297.571 204.471 297.576ZM204.471 299.195C203.388 299.2 202.615 299.816 202.626 300.872C202.615 301.955 203.388 302.581 204.471 302.576C205.528 302.581 206.295 301.955 206.295 300.872C206.295 299.816 205.528 299.2 204.471 299.195ZM202.589 305.409H211.889V310.372H209.986V306.929H202.589V305.409Z" fill="black"/>
<mask id="mask0_1911_6277" style="mask-type:luminance" maskUnits="userSpaceOnUse" x="105" y="297" width="8" height="12">
<path d="M112.124 308.438V297.562H105.599V308.438H112.124Z" fill="white"/>
</mask>
<g mask="url(#mask0_1911_6277)">
<path d="M112.124 307.728C112.124 307.633 112.105 307.539 112.068 307.452C112.031 307.365 111.977 307.286 111.908 307.221L107.631 303.088L111.918 298.768C111.984 298.702 112.036 298.623 112.071 298.536C112.107 298.45 112.124 298.357 112.123 298.264C112.122 298.17 112.102 298.078 112.065 297.992C112.028 297.907 111.974 297.829 111.907 297.765C111.77 297.633 111.587 297.561 111.397 297.563C111.207 297.564 111.026 297.641 110.892 297.775L105.599 303.108L110.902 308.234C111.039 308.366 111.222 308.439 111.412 308.437C111.601 308.435 111.783 308.359 111.917 308.225C111.982 308.16 112.034 308.082 112.07 307.997C112.105 307.912 112.124 307.82 112.124 307.728Z" fill="#A8A8A8"/>
</g>
<mask id="mask1_1911_6277" style="mask-type:luminance" maskUnits="userSpaceOnUse" x="228" y="297" width="7" height="12">
<path d="M234.664 308.438V297.562H228.139V308.438H234.664Z" fill="white"/>
</mask>
<g mask="url(#mask1_1911_6277)">
<path d="M228.139 307.728C228.139 307.633 228.158 307.54 228.195 307.452C228.232 307.365 228.286 307.286 228.355 307.221L232.632 303.088L228.345 298.768C228.279 298.702 228.227 298.623 228.192 298.537C228.156 298.45 228.139 298.357 228.14 298.264C228.141 298.17 228.161 298.078 228.198 297.992C228.235 297.907 228.289 297.829 228.357 297.765C228.493 297.633 228.676 297.561 228.866 297.563C229.056 297.565 229.237 297.641 229.372 297.775L234.664 303.109L229.361 308.234C229.224 308.366 229.041 308.438 228.852 308.437C228.662 308.435 228.48 308.359 228.346 308.224C228.214 308.093 228.14 307.914 228.141 307.728" fill="#A8A8A8"/>
</g>
<path d="M245.818 419.679C244.061 419.679 242.803 418.756 242.803 417.505C242.803 416.536 243.546 415.751 244.493 415.605V415.552C243.667 415.391 243.092 414.692 243.092 413.848C243.092 412.653 244.245 411.778 245.818 411.778C247.384 411.778 248.537 412.653 248.541 413.848C248.537 414.696 247.955 415.391 247.14 415.552V415.605C248.079 415.751 248.83 416.536 248.834 417.505C248.83 418.756 247.568 419.679 245.818 419.679ZM245.818 415.057C246.494 415.057 246.982 414.625 246.982 414.013C246.982 413.408 246.502 412.988 245.818 412.988C245.127 412.988 244.654 413.408 244.654 414.013C244.654 414.625 245.139 415.057 245.818 415.057ZM245.818 418.496C246.629 418.496 247.17 418.038 247.17 417.381C247.17 416.713 246.599 416.225 245.818 416.225C245.037 416.225 244.463 416.713 244.47 417.381C244.463 418.035 245.003 418.496 245.818 418.496ZM252.743 419.679C251.139 419.679 249.964 418.733 249.934 417.411H251.485C251.522 418.008 252.07 418.421 252.743 418.421C253.539 418.421 254.106 417.858 254.102 417.054C254.106 416.243 253.527 415.673 252.716 415.669C252.142 415.669 251.736 415.883 251.515 416.311H250.061L250.482 411.884H255.213V413.194H251.796L251.586 415.136H251.646C251.931 414.756 252.513 414.482 253.189 414.482C254.601 414.482 255.649 415.537 255.645 417.013C255.649 418.568 254.47 419.679 252.743 419.679ZM262.238 419.574H256.729L256.725 418.421L259.489 415.879C260.203 415.192 260.59 414.768 260.593 414.152C260.59 413.472 260.071 413.051 259.373 413.051C258.648 413.051 258.171 413.506 258.175 414.246H256.658C256.654 412.74 257.769 411.778 259.384 411.778C261.036 411.778 262.129 412.717 262.133 414.05C262.129 414.925 261.705 415.646 260.12 417.081L258.949 418.211V418.264H262.238V419.574ZM263.573 418.786H265.087L264.17 421.809H263.048L263.573 418.786ZM269.099 419.679C267.405 419.679 266.196 418.752 266.17 417.411H267.781C267.807 417.978 268.363 418.358 269.103 418.358C269.869 418.358 270.417 417.933 270.413 417.314C270.417 416.686 269.861 416.243 268.956 416.243H268.243V415.06H268.956C269.718 415.06 270.248 414.647 270.244 414.039C270.248 413.453 269.794 413.051 269.114 413.051C268.434 413.051 267.878 413.431 267.856 414.02H266.324C266.35 412.698 267.544 411.778 269.121 411.778C270.721 411.778 271.791 412.729 271.784 413.941C271.791 414.805 271.19 415.417 270.323 415.571V415.631C271.457 415.77 272.08 416.457 272.073 417.419C272.08 418.733 270.83 419.679 269.099 419.679ZM276.172 419.679C274.58 419.672 273.063 418.726 273.067 415.905C273.074 413.314 274.309 411.778 276.232 411.778C277.779 411.778 278.838 412.755 278.996 414.02H277.423C277.295 413.483 276.852 413.149 276.232 413.149C275.188 413.149 274.636 414.088 274.632 415.597H274.7C275.057 414.918 275.815 414.516 276.671 414.516C278.053 414.516 279.082 415.556 279.079 416.998C279.082 418.564 277.903 419.687 276.172 419.679ZM276.165 418.421C276.949 418.421 277.531 417.821 277.528 417.043C277.531 416.277 276.961 415.68 276.176 415.68C275.391 415.68 274.801 416.296 274.794 417.051C274.798 417.802 275.372 418.421 276.165 418.421ZM283.01 419.679C281.406 419.679 280.231 418.733 280.201 417.411H281.752C281.789 418.008 282.338 418.421 283.01 418.421C283.806 418.421 284.373 417.858 284.369 417.054C284.373 416.243 283.795 415.673 282.984 415.669C282.409 415.669 282.003 415.883 281.782 416.311H280.329L280.749 411.884H285.481V413.194H282.064L281.853 415.136H281.913C282.199 414.756 282.781 414.482 283.457 414.482C284.869 414.482 285.916 415.537 285.913 417.013C285.916 418.568 284.737 419.679 283.01 419.679ZM286.959 418.786H288.472L287.556 421.809H286.433L286.959 418.786ZM292.642 419.679C291.039 419.679 289.863 418.733 289.833 417.411H291.384C291.422 418.008 291.97 418.421 292.642 418.421C293.438 418.421 294.005 417.858 294.002 417.054C294.005 416.243 293.427 415.673 292.616 415.669C292.041 415.669 291.636 415.883 291.414 416.311H289.961L290.382 411.884H295.113V413.194H291.696L291.486 415.136H291.546C291.831 414.756 292.413 414.482 293.089 414.482C294.501 414.482 295.549 415.537 295.545 417.013C295.549 418.568 294.37 419.679 292.642 419.679ZM298.439 411.884H299.945V419.574H298.345V413.404H298.3L296.535 414.512V413.093L298.439 411.884ZM304.622 419.679C302.865 419.679 301.607 418.756 301.607 417.505C301.607 416.536 302.35 415.751 303.296 415.605V415.552C302.47 415.391 301.896 414.692 301.896 413.848C301.896 412.653 303.049 411.778 304.622 411.778C306.188 411.778 307.341 412.653 307.344 413.848C307.341 414.696 306.759 415.391 305.944 415.552V415.605C306.883 415.751 307.634 416.536 307.637 417.505C307.634 418.756 306.372 419.679 304.622 419.679ZM304.622 415.057C305.298 415.057 305.786 414.625 305.786 414.013C305.786 413.408 305.305 412.988 304.622 412.988C303.931 412.988 303.458 413.408 303.458 414.013C303.458 414.625 303.942 415.057 304.622 415.057ZM304.622 418.496C305.433 418.496 305.974 418.038 305.974 417.381C305.974 416.713 305.403 416.225 304.622 416.225C303.841 416.225 303.266 416.713 303.274 417.381C303.266 418.035 303.807 418.496 304.622 418.496ZM313.382 417.426V416.502H315.23V410.896H316.589V418.2H315.23V417.426H313.382ZM311.509 414.662C310.074 414.662 309.079 413.994 309.079 412.958C309.079 411.929 310.074 411.219 311.509 411.223C312.917 411.219 313.919 411.929 313.923 412.958C313.919 413.994 312.917 414.662 311.509 414.662ZM311.509 412.214C310.821 412.214 310.359 412.477 310.363 412.958C310.359 413.427 310.821 413.682 311.509 413.682C312.162 413.682 312.631 413.427 312.635 412.958C312.631 412.477 312.162 412.214 311.509 412.214ZM310.953 417.967V419.293H316.803V420.385H309.597V417.498H310.953V416.21C310.085 416.243 309.259 416.251 308.523 416.251L308.362 415.181C310.138 415.166 312.526 415.143 314.569 414.884L314.648 415.857C313.886 415.984 313.093 416.071 312.312 416.131V417.967H310.953Z" fill="black"/>
<path d="M112.442 414.685V410.96H113.411V420.475H112.442V415.519H111.271V420.006H110.313V411.144H111.271V414.685H112.442ZM109.243 417.967H105.548V412.03H109.243V417.967ZM108.296 412.83H106.498V417.167H108.296V412.83ZM115.348 414.76L115.059 414.002C116.884 413.9 118.168 413.341 118.371 412.533H115.498V411.763H118.461V410.922H119.453V411.763H122.431V412.533H119.539C119.738 413.341 121.022 413.9 122.862 414.002L122.558 414.76C120.902 414.64 119.55 414.159 118.957 413.326C118.364 414.159 117.012 414.64 115.348 414.76ZM123.29 415.136V415.89H119.456V416.686H122.201V418.834H116.666V419.619H122.476V420.385H115.679V418.136H121.21V417.423H115.66V416.686H118.458V415.89H114.639V415.136H123.29Z" fill="black"/>
</g>
<g filter="url(#filter3_d_1911_6277)">
<g clip-path="url(#clip2_1911_6277)">
<path d="M388.081 198H32.9188C29.0976 198 26 201.106 26 204.936V291.064C26 294.894 29.0976 298 32.9188 298H388.081C391.902 298 395 294.894 395 291.064V204.936C395 201.106 391.902 198 388.081 198Z" fill="#0088FF"/>
<path d="M55.6275 241.128C54.4266 243.1 52.1137 244.523 48.9409 245.012L47.8957 242.922C52.1063 242.329 54.2858 240.023 54.2932 237.77V237.184H57.0138V237.77C57.0138 240.142 59.1117 242.373 63.4113 242.922L62.3808 245.012C59.171 244.501 56.8285 243.107 55.6275 241.128ZM56.9841 243.834V246.539H64.3898V248.674H46.9839V246.539H54.3302V243.834H56.9841ZM49.0818 249.853H51.7653V253.241H62.4031V255.398H49.0818V249.853ZM78.8222 236.636H81.5058V247.844H78.8222V236.636ZM71.0459 237.688C74.0186 237.681 76.2573 239.638 76.2573 242.336C76.2573 245.079 74.0186 247.014 71.0459 247.014C68.0659 247.014 65.8197 245.079 65.8271 242.336C65.8197 239.638 68.0659 237.681 71.0459 237.688ZM71.0459 239.971C69.5188 239.979 68.4291 240.846 68.4439 242.336C68.4291 243.863 69.5188 244.746 71.0459 244.738C72.5359 244.746 73.6183 243.863 73.6183 242.336C73.6183 240.846 72.5359 239.979 71.0459 239.971ZM68.392 248.734H81.5058V255.732H78.8222V250.876H68.392V248.734ZM85.4191 247.703C85.4191 244.012 86.3976 240.95 88.4139 238.311H91.3717C89.8372 240.268 88.6512 244.19 88.6512 247.703C88.6512 251.21 89.8372 255.131 91.3717 257.088H88.4139C86.3976 254.449 85.4191 251.388 85.4191 247.703ZM106.889 253.797H103.509L102.367 250.298H96.8593L95.7177 253.797H92.3373L97.5858 238.615H101.641L106.889 253.797ZM99.5502 242.04L97.6599 247.829H101.559L99.6688 242.04H99.5502ZM108.681 246.324H115.597V248.786H108.681V246.324ZM124.678 253.797H118.243V238.615H124.285C127.628 238.615 129.318 240.231 129.318 242.514C129.318 244.308 128.147 245.42 126.575 245.769V245.917C128.295 245.998 129.911 247.355 129.911 249.616C129.911 252.018 128.102 253.797 124.678 253.797ZM121.394 241.172V244.975H123.818C125.145 244.975 126.131 244.241 126.131 243.026C126.131 241.921 125.315 241.172 123.877 241.172H121.394ZM121.394 247.133V251.21H124.055C125.864 251.21 126.657 250.454 126.657 249.305C126.657 248.03 125.686 247.133 124.122 247.133H121.394ZM131.994 246.324H138.91V248.786H131.994V246.324ZM154.892 243.908H151.705C151.445 242.225 150.155 241.202 148.391 241.202C146.026 241.202 144.462 243.011 144.462 246.206C144.462 249.482 146.049 251.21 148.376 251.21C150.096 251.21 151.393 250.261 151.705 248.63L154.892 248.645C154.537 251.447 152.179 254.004 148.324 254.004C144.262 254.004 141.267 251.15 141.267 246.206C141.267 241.254 144.314 238.407 148.324 238.407C151.823 238.407 154.462 240.416 154.892 243.908ZM162.281 247.703C162.281 251.388 161.309 254.449 159.293 257.088H156.328C157.87 255.131 159.056 251.21 159.056 247.703C159.056 244.19 157.87 240.268 156.328 238.311H159.293C161.309 240.95 162.281 244.012 162.281 247.703Z" fill="white"/>
<path d="M217.717 228.322V230.789H214.903V233.011H217.717V235.537H214.903V238.275H211.845V225.441H214.903V228.322H217.717ZM209.699 231.938C209.682 235.064 207.13 237.269 203.759 237.269C200.363 237.269 197.786 235.064 197.803 231.938C197.786 228.862 200.363 226.632 203.759 226.64C207.13 226.632 209.682 228.862 209.699 231.938ZM200.785 231.938C200.768 233.678 202.052 234.684 203.759 234.675C205.432 234.684 206.716 233.678 206.725 231.938C206.716 230.24 205.441 229.251 203.759 229.243C202.052 229.251 200.768 230.24 200.785 231.938ZM211.845 241.612H200.261V239.153H214.903V247.205H211.845V241.612ZM237.533 245H225.138L225.129 242.406L231.348 236.686C232.953 235.14 233.823 234.185 233.832 232.8C233.823 231.27 232.657 230.324 231.086 230.324C229.455 230.324 228.382 231.346 228.391 233.011H224.977C224.969 229.623 227.478 227.46 231.111 227.46C234.829 227.46 237.288 229.572 237.296 232.572C237.288 234.54 236.333 236.162 232.767 239.39L230.131 241.933V242.051H237.533V245ZM254.655 230.713V225.441H257.697V238.308H254.655V233.214H251.03C250.447 235.681 248.217 237.345 245.429 237.345C242.134 237.345 239.624 235.089 239.641 231.938C239.624 228.846 242.134 226.598 245.429 226.615C248.225 226.598 250.464 228.271 251.039 230.713H254.655ZM245.429 234.76C247.034 234.751 248.268 233.712 248.285 231.938C248.268 230.24 247.034 229.184 245.429 229.184C243.79 229.184 242.531 230.24 242.531 231.938C242.531 233.712 243.79 234.751 245.429 234.76ZM254.655 241.722H242.75V239.305H257.697V247.222H254.655V241.722ZM270.931 227.696H274.319V245H270.719V231.118H270.618L266.647 233.611V230.417L270.931 227.696ZM277.86 243.226H281.265L279.204 250.027H276.678L277.86 243.226ZM295.979 239.052H298.159V241.933H295.979V245H292.549V241.933H284.142V239.103L291.467 227.696H295.979V239.052ZM292.439 231.634L287.767 238.917V239.052H292.599V231.634H292.439ZM306.83 227.46C310.404 227.477 313.792 229.606 313.809 235.892C313.818 241.781 311.021 245.237 306.687 245.237C303.197 245.237 300.815 243.057 300.46 240.133H304C304.296 241.401 305.284 242.153 306.687 242.153C309.027 242.153 310.278 240.04 310.294 236.593H310.134C309.331 238.114 307.625 239.027 305.707 239.027C302.597 239.027 300.291 236.686 300.282 233.459C300.274 229.978 302.91 227.443 306.83 227.46ZM306.847 230.29C305.073 230.29 303.763 231.642 303.78 233.357C303.789 235.072 305.048 236.399 306.822 236.399C308.571 236.399 309.923 235.005 309.914 233.34C309.906 231.693 308.613 230.29 306.847 230.29ZM328.619 245H316.225L316.216 242.406L322.435 236.686C324.04 235.14 324.91 234.185 324.919 232.8C324.91 231.27 323.744 230.324 322.173 230.324C320.542 230.324 319.469 231.346 319.478 233.011H316.064C316.056 229.623 318.565 227.46 322.198 227.46C325.916 227.46 328.374 229.572 328.383 232.572C328.374 234.54 327.42 236.162 323.854 239.39L321.218 241.933V242.051H328.619V245ZM347.711 225.457V231.718H350.634V234.236H347.711V241.325H344.652V225.457H347.711ZM331.1 227.257H341.543V237.7H331.1V227.257ZM334.116 235.301H338.535V229.682H334.116V235.301ZM333.601 239.753H336.642V244.366H348.488V246.825H333.601V239.753ZM362.808 240.167V238.089H366.965V225.474H370.023V241.908H366.965V240.167H362.808ZM358.592 233.949C355.364 233.949 353.125 232.445 353.125 230.113C353.125 227.798 355.364 226.201 358.592 226.209C361.76 226.201 364.016 227.798 364.025 230.113C364.016 232.445 361.76 233.949 358.592 233.949ZM358.592 228.44C357.046 228.44 356.007 229.031 356.015 230.113C356.007 231.169 357.046 231.744 358.592 231.744C360.062 231.744 361.118 231.169 361.127 230.113C361.118 229.031 360.062 228.44 358.592 228.44ZM357.342 241.384V244.366H370.505V246.825H354.291V240.328H357.342V237.43C355.39 237.506 353.531 237.523 351.875 237.523L351.512 235.115C355.508 235.081 360.882 235.03 365.478 234.447L365.655 236.636C363.94 236.923 362.157 237.117 360.4 237.252V241.384H357.342Z" fill="white"/>
<path d="M216.505 262.675H218.608V263.732H216.505V267.404H215.27V258.981H216.505V262.675ZM209.706 263.66C209.106 265.245 207.826 266.48 206.179 267.081L205.512 266.124C207.615 265.379 209.072 263.576 209.083 261.574V260.973H205.89V259.96H213.445V260.973H210.307V261.574C210.307 263.432 211.676 265.134 213.745 265.846L213.111 266.803C211.52 266.241 210.307 265.101 209.706 263.66ZM215.27 269.162H207.348V268.149H216.505V272.967H215.27V269.162ZM231.085 269.351H229.85V264.5H225.811V263.498H229.85V261.829H225.811V260.828H229.85V258.992H231.085V269.351ZM227.48 265.701L227.614 266.736C225.333 267.159 223.43 267.248 221.383 267.259H220.326V260.005H221.561V266.213C223.486 266.208 225.344 266.102 227.48 265.701ZM223.319 268.461V271.632H231.464V272.656H222.073V268.461H223.319ZM241.687 271.843C239.162 271.843 237.704 269.718 237.704 265.991C237.704 262.297 239.184 260.138 241.687 260.138C244.191 260.138 245.671 262.297 245.671 265.991C245.671 269.718 244.213 271.843 241.687 271.843ZM241.687 270.586C243.334 270.586 244.291 268.939 244.291 265.991C244.291 263.042 243.323 261.373 241.687 261.373C240.052 261.373 239.084 263.042 239.084 265.991C239.084 268.939 240.041 270.586 241.687 270.586ZM251.274 271.843C249.215 271.843 247.658 270.575 247.569 268.828H248.948C249.048 269.841 250.039 270.597 251.274 270.597C252.753 270.597 253.822 269.518 253.822 268.083C253.822 266.603 252.709 265.512 251.174 265.501C250.217 265.49 249.471 265.79 249.048 266.525H247.68L248.481 260.294H254.656V261.551H249.66L249.238 264.889H249.36C249.861 264.5 250.628 264.233 251.429 264.233C253.599 264.233 255.201 265.835 255.201 268.049C255.201 270.252 253.543 271.843 251.274 271.843ZM264.125 266.458V265.646H266.951V258.992H268.197V267.237H266.951V266.458H264.125ZM261.187 263.454C259.073 263.454 257.705 262.675 257.705 261.362C257.705 260.071 259.073 259.259 261.187 259.259C263.268 259.259 264.648 260.071 264.659 261.362C264.648 262.675 263.268 263.454 261.187 263.454ZM261.187 260.116C259.774 260.116 258.862 260.617 258.873 261.362C258.862 262.108 259.774 262.608 261.187 262.608C262.578 262.608 263.49 262.108 263.49 261.362C263.49 260.617 262.578 260.116 261.187 260.116ZM261.71 267.281H260.497V265.145C259.173 265.19 257.905 265.195 256.77 265.19L256.614 264.266C259.329 264.277 262.789 264.244 265.816 263.91L265.894 264.722C264.525 264.911 263.101 265.028 261.71 265.101V267.281ZM260.03 270.63V271.888H268.664V272.811H258.817V269.774H266.973V268.628H258.762V267.738H268.197V270.63H260.03ZM281.665 264.756H283.79V265.79H281.665V272.967H280.43V258.981H281.665V264.756ZM274.833 260.505C274.822 263.832 274.077 267.115 271.54 269.796L270.538 269.095C272.658 266.937 273.509 264.327 273.659 261.54H270.983V260.505H274.833ZM275.278 260.505H278.683C278.672 263.821 278.182 267.682 275.568 270.731L274.555 270.041C276.747 267.565 277.403 264.455 277.52 261.54H275.278V260.505ZM294.81 272.967V258.981H296.045V272.967H294.81ZM289.525 261.451V263.276C289.525 265.646 291.25 268.06 293.308 268.95L292.618 269.93C290.983 269.184 289.575 267.576 288.919 265.646C288.262 267.693 286.849 269.473 285.253 270.274L284.518 269.295C286.521 268.338 288.268 265.69 288.279 263.276V261.451H284.974V260.416H292.852V261.451H289.525ZM306.781 260.138C308.739 260.16 310.92 261.34 310.92 265.535C310.92 269.585 309.262 271.843 306.592 271.843C304.589 271.843 303.176 270.619 302.886 268.806H304.288C304.544 269.829 305.323 270.586 306.592 270.586C308.45 270.586 309.585 268.984 309.596 266.213H309.44C308.783 267.159 307.738 267.726 306.525 267.726C304.489 267.726 302.797 266.158 302.797 263.955C302.797 261.841 304.355 260.116 306.781 260.138ZM306.781 261.384C305.29 261.384 304.166 262.542 304.177 263.943C304.177 265.357 305.245 266.48 306.736 266.48C308.216 266.48 309.373 265.256 309.373 263.921C309.373 262.608 308.283 261.384 306.781 261.384ZM312.752 270.619H314.265L313.052 274.903H311.884L312.752 270.619ZM320.123 271.843C318.065 271.843 316.507 270.575 316.418 268.828H317.798C317.898 269.841 318.888 270.597 320.123 270.597C321.603 270.597 322.671 269.518 322.671 268.083C322.671 266.603 321.559 265.512 320.023 265.501C319.066 265.49 318.321 265.79 317.898 266.525H316.53L317.331 260.294H323.506V261.551H318.51L318.087 264.889H318.21C318.71 264.5 319.478 264.233 320.279 264.233C322.449 264.233 324.051 265.835 324.051 268.049C324.051 270.252 322.393 271.843 320.123 271.843ZM329.959 271.843C327.689 271.843 326.065 270.63 325.987 268.828H327.422C327.5 269.907 328.58 270.586 329.937 270.586C331.439 270.586 332.529 269.774 332.529 268.583C332.529 267.348 331.539 266.469 329.759 266.469H328.835V265.223H329.759C331.15 265.223 332.118 264.444 332.118 263.265C332.118 262.13 331.283 261.373 329.981 261.373C328.769 261.373 327.656 262.041 327.6 263.154H326.232C326.299 261.351 327.979 260.138 330.004 260.138C332.173 260.138 333.497 261.562 333.486 263.198C333.497 264.489 332.741 265.434 331.55 265.768V265.857C333.03 266.08 333.931 267.137 333.92 268.594C333.931 270.464 332.229 271.843 329.959 271.843ZM342.551 268.116H344.153V269.362H342.551V271.688H341.205V269.362H335.686V268.194L340.815 260.294H342.551V268.116ZM341.071 262.085L337.21 268.027V268.116H341.205V262.085H341.071ZM356.454 258.97V263.231H358.557V264.277H356.454V269.229H355.219V258.97H356.454ZM346.118 260.249H352.582V266.692H346.118V260.249ZM347.32 265.69H351.381V261.262H347.32V265.69ZM347.698 268.261H348.922V271.632H357.1V272.656H347.698V268.261ZM366.84 268.16V267.259H369.722V258.992H370.968V269.618H369.722V268.16H366.84ZM363.959 264.422C361.889 264.422 360.487 263.487 360.487 261.996C360.487 260.528 361.889 259.56 363.959 259.56C366.006 259.56 367.408 260.528 367.419 261.996C367.408 263.487 366.006 264.422 363.959 264.422ZM363.959 260.494C362.59 260.483 361.655 261.095 361.666 261.996C361.655 262.909 362.59 263.498 363.959 263.498C365.283 263.498 366.228 262.909 366.239 261.996C366.228 261.095 365.283 260.483 363.959 260.494ZM364.704 269.128H363.469V266.425C362.056 266.48 360.704 266.486 359.53 266.48L359.363 265.468C361.967 265.457 365.472 265.434 368.465 265.056L368.554 265.957C367.302 266.158 365.995 266.286 364.704 266.363V269.128ZM362.612 268.572V271.632H371.313V272.656H361.377V268.572H362.612Z" fill="white"/>
</g>
<rect x="28" y="200" width="364.254" height="96" rx="10" stroke="white" stroke-width="4" shape-rendering="crispEdges"/>
</g>
</g>
</g>
<defs>
<filter id="filter0_i_1911_6277" x="0" y="0" width="421" height="420" filterUnits="userSpaceOnUse" color-interpolation-filters="sRGB">
<feFlood flood-opacity="0" result="BackgroundImageFix"/>
<feBlend mode="normal" in="SourceGraphic" in2="BackgroundImageFix" result="shape"/>
<feColorMatrix in="SourceAlpha" type="matrix" values="0 0 0 0 0 0 0 0 0 0 0 0 0 0 0 0 0 0 127 0" result="hardAlpha"/>
<feOffset/>
<feGaussianBlur stdDeviation="2"/>
<feComposite in2="hardAlpha" operator="arithmetic" k2="-1" k3="1"/>
<feColorMatrix type="matrix" values="0 0 0 0 0 0 0 0 0 0 0 0 0 0 0 0 0 0 0.16 0"/>
<feBlend mode="normal" in2="shape" result="effect1_innerShadow_1911_6277"/>
</filter>
<filter id="filter1_d_1911_6277" x="58" y="23" width="305" height="540" filterUnits="userSpaceOnUse" color-interpolation-filters="sRGB">
<feFlood flood-opacity="0" result="BackgroundImageFix"/>
<feColorMatrix in="SourceAlpha" type="matrix" values="0 0 0 0 0 0 0 0 0 0 0 0 0 0 0 0 0 0 127 0" result="hardAlpha"/>
<feOffset dy="1"/>
<feGaussianBlur stdDeviation="8"/>
<feComposite in2="hardAlpha" operator="out"/>
<feColorMatrix type="matrix" values="0 0 0 0 0 0 0 0 0 0 0 0 0 0 0 0 0 0 0.08 0"/>
<feBlend mode="normal" in2="BackgroundImageFix" result="effect1_dropShadow_1911_6277"/>
<feBlend mode="normal" in="SourceGraphic" in2="effect1_dropShadow_1911_6277" result="shape"/>
</filter>
<filter id="filter2_i_1911_6277" x="85" y="50" width="251" height="482.885" filterUnits="userSpaceOnUse" color-interpolation-filters="sRGB">
<feFlood flood-opacity="0" result="BackgroundImageFix"/>
<feBlend mode="normal" in="SourceGraphic" in2="BackgroundImageFix" result="shape"/>
<feColorMatrix in="SourceAlpha" type="matrix" values="0 0 0 0 0 0 0 0 0 0 0 0 0 0 0 0 0 0 127 0" result="hardAlpha"/>
<feOffset dy="0.885417"/>
<feGaussianBlur stdDeviation="0.885417"/>
<feComposite in2="hardAlpha" operator="arithmetic" k2="-1" k3="1"/>
<feColorMatrix type="matrix" values="0 0 0 0 0.833512 0 0 0 0 0.831423 0 0 0 0 0.824016 0 0 0 0.25 0"/>
<feBlend mode="normal" in2="shape" result="effect1_innerShadow_1911_6277"/>
</filter>
<filter id="filter3_d_1911_6277" x="10" y="183" width="400.254" height="132" filterUnits="userSpaceOnUse" color-interpolation-filters="sRGB">
<feFlood flood-opacity="0" result="BackgroundImageFix"/>
<feColorMatrix in="SourceAlpha" type="matrix" values="0 0 0 0 0 0 0 0 0 0 0 0 0 0 0 0 0 0 127 0" result="hardAlpha"/>
<feOffset dy="1"/>
<feGaussianBlur stdDeviation="8"/>
<feComposite in2="hardAlpha" operator="out"/>
<feColorMatrix type="matrix" values="0 0 0 0 0 0 0 0 0 0 0 0 0 0 0 0 0 0 0.16 0"/>
<feBlend mode="normal" in2="BackgroundImageFix" result="effect1_dropShadow_1911_6277"/>
<feBlend mode="normal" in="SourceGraphic" in2="effect1_dropShadow_1911_6277" result="shape"/>
</filter>
<linearGradient id="paint0_linear_1911_6277" x1="210.5" y1="0" x2="210.5" y2="420" gradientUnits="userSpaceOnUse">
<stop stop-color="#A5D4F0"/>
<stop offset="1" stop-color="#A5D4F0" stop-opacity="0.45"/>
</linearGradient>
<clipPath id="clip0_1911_6277">
<rect width="421" height="420" rx="20" fill="white"/>
</clipPath>
<clipPath id="clip1_1911_6277">
<rect width="232" height="332.413" fill="white" transform="translate(94 216)"/>
</clipPath>
<clipPath id="clip2_1911_6277">
<rect x="26" y="198" width="368.254" height="100" rx="12" fill="white"/>
</clipPath>
</defs>
</svg>
