<svg width="187" height="52" viewBox="0 0 187 52" fill="none" xmlns="http://www.w3.org/2000/svg">
<rect x="0.5" y="0.5" width="186" height="51" rx="5.5" fill="white" stroke="#D9D9D9"/>
<path d="M32.3767 13.9368H34.8097V15.059H28.404V13.9368H30.9717V12.6485H32.3767V13.9368ZM37.9924 21.4064H36.5829V19.144H34.8861V18.0173H36.5829V16.7334H34.8861V15.5887H36.5829V12.6664H37.9924V21.4064ZM34.3474 17.7704C34.3384 19.0901 33.2206 20.0014 31.663 20.0014C30.1098 20.0014 28.9965 19.0901 29.0055 17.7704C28.9965 16.4551 30.1098 15.5394 31.663 15.5394C33.2206 15.5394 34.3384 16.4551 34.3474 17.7704ZM30.3208 17.7704C30.3163 18.4886 30.8684 18.9106 31.663 18.9106C32.4485 18.9106 33.0097 18.4886 33.0186 17.7704C33.0097 17.0701 32.4485 16.6481 31.663 16.6392C30.8684 16.6481 30.3163 17.0701 30.3208 17.7704ZM31.856 20.6523V22.7621H38.2438V23.9068H30.4285V20.6523H31.856ZM48.2765 17.3619H49.8476V18.5021H39.3569V17.3619H46.8535C47.1273 16.1229 47.1497 15.1847 47.1542 14.3453H40.6542V13.2096H48.5637V14.1029C48.5637 15.0007 48.5637 16.0107 48.2765 17.3619ZM48.5458 23.9876H40.6183V19.8398H48.5458V23.9876ZM47.1452 20.9441H42.0009V22.8474H47.1452V20.9441ZM53.5149 18.8477C51.7867 18.8567 50.4804 17.6896 50.4894 16.078C50.4804 14.453 51.7867 13.2949 53.5149 13.2994C54.4486 13.2949 55.2566 13.6405 55.7998 14.2196H58.5336V12.6575H59.9431V19.3999H58.5336V17.941H55.7863C55.2432 18.511 54.4397 18.8522 53.5149 18.8477ZM51.8316 16.078C51.8316 17.0207 52.5318 17.6581 53.5149 17.6492C54.4711 17.6581 55.1758 17.0207 55.1758 16.078C55.1758 15.1129 54.4711 14.5024 53.5149 14.5114C52.5318 14.5024 51.8316 15.1129 51.8316 16.078ZM58.5336 16.8052V15.3463H56.4238C56.4866 15.5753 56.5225 15.8222 56.5225 16.078C56.5225 16.3339 56.4866 16.5763 56.4238 16.8052H58.5336ZM56.0602 19.6468C58.4707 19.6423 59.9745 20.4682 59.9745 21.8823C59.9745 23.2918 58.4707 24.1177 56.0602 24.1133C53.6541 24.1177 52.1503 23.2918 52.1548 21.8823C52.1503 20.4682 53.6541 19.6423 56.0602 19.6468ZM56.0602 23.0045C57.6807 23.009 58.5964 22.6095 58.5964 21.8823C58.5964 21.1326 57.6807 20.7331 56.0602 20.7331C54.4621 20.7331 53.5329 21.1326 53.5419 21.8823C53.5329 22.6095 54.4621 23.009 56.0602 23.0045ZM66.5462 15.4271C65.7921 16.7244 64.2479 17.6806 62.3176 17.9679L61.7565 16.8277C64.185 16.5135 65.8011 15.059 65.8011 13.6091V13.0211H67.2824V13.6091C67.2824 15.0501 68.9029 16.5135 71.3449 16.8277L70.7883 17.9679C68.8401 17.6806 67.2914 16.7244 66.5462 15.4271ZM61.3076 18.9644H71.7624V20.1271H67.2061V24.1222H65.81V20.1271H61.3076V18.9644ZM73.266 17.4831L72.7857 16.3788C74.918 16.1678 76.3096 15.3104 76.525 14.3498H73.2391V13.2051H81.7995V14.3498H78.4867C78.6977 15.297 80.0668 16.1678 82.2484 16.3788L81.7502 17.4831C79.6673 17.2721 78.1231 16.4461 77.4991 15.2835C76.8797 16.4416 75.3534 17.2721 73.266 17.4831ZM72.283 19.144V17.9993H82.7377V19.144H72.283ZM77.4946 19.9026C79.977 19.9026 81.4674 20.6747 81.4718 22.0124C81.4674 23.3591 79.977 24.1177 77.4946 24.1133C75.0033 24.1177 73.4995 23.3591 73.4995 22.0124C73.4995 20.6747 75.0033 19.9026 77.4946 19.9026ZM77.4946 23.0045C79.1421 23.009 80.0533 22.6768 80.0623 22.0124C80.0533 21.3436 79.1421 21.0069 77.4946 21.0024C75.8292 21.0069 74.927 21.3436 74.9359 22.0124C74.927 22.6768 75.8292 23.009 77.4946 23.0045ZM92.5833 21.4244L93.9255 23H92.1793L91.5867 22.3222C90.9403 22.8788 90.0425 23.1347 89.2255 23.1347C87.3492 23.1347 86.2 22.0214 86.2 20.558C86.2 19.4762 86.8958 18.8163 87.9237 18.107C87.3941 17.4517 86.9811 16.7828 86.9811 15.9613C86.9811 14.6595 87.9372 13.6944 89.3871 13.6944C90.8326 13.6944 91.7214 14.655 91.7214 15.7773C91.7214 16.6526 91.268 17.317 90.5004 17.8736L89.9168 18.3001L91.6002 20.2752C91.8426 19.8218 91.9862 19.2831 91.9862 18.6771H93.3778C93.3778 19.9385 93.0322 20.8318 92.5833 21.4244ZM89.4096 15.0231C88.8215 15.0231 88.422 15.49 88.422 15.9838C88.422 16.4102 88.7048 16.8367 89.0909 17.317L89.6161 16.9579C90.0919 16.6436 90.3478 16.316 90.3478 15.8491C90.3478 15.4496 89.9887 15.0186 89.4096 15.0231ZM89.2749 21.8015C89.7687 21.8015 90.2715 21.6264 90.7069 21.3122L88.7901 19.1215L88.642 19.2293C88.0225 19.6827 87.7846 20.172 87.7846 20.4907C87.7846 21.2179 88.3726 21.8015 89.2749 21.8015ZM97.376 13.8066H100.815C102.929 13.8066 104.056 15.095 104.056 16.8501C104.056 18.6143 102.915 19.8892 100.792 19.8892H99.0235V23H97.376V13.8066ZM99.0235 18.529H100.572C101.811 18.529 102.368 17.8287 102.368 16.8501C102.368 15.8715 101.811 15.1892 100.563 15.1892H99.0235V18.529ZM109.328 19.4896V18.1923H113.058V19.2921C113.058 21.6578 111.428 23.1257 109.157 23.1257C106.616 23.1257 104.902 21.3211 104.902 18.4123C104.902 15.4541 106.697 13.6809 109.103 13.6809C111.132 13.6809 112.699 14.9378 112.982 16.7424H111.294C110.993 15.7638 110.234 15.1668 109.126 15.1668C107.64 15.1668 106.562 16.3204 106.562 18.3943C106.562 20.4817 107.617 21.6398 109.162 21.6398C110.549 21.6398 111.428 20.8049 111.455 19.4896H109.328ZM118.04 19.9565C117.497 19.9565 117.048 19.5166 117.057 18.9734C117.048 18.4392 117.497 17.9993 118.04 17.9993C118.57 17.9993 119.019 18.4392 119.023 18.9734C119.019 19.5166 118.57 19.9565 118.04 19.9565ZM131.298 17.0881V12.6575H132.654V24.1222H131.298V18.2462H130.077V23.5746H128.739V12.855H130.077V17.0881H131.298ZM124.443 16.3608H126.315V13.7034H127.621V21.3526H123.11V13.7034H124.443V16.3608ZM124.443 20.2124H126.315V17.4786H124.443V20.2124ZM142.785 12.6575V14.9109H144.388V16.0691H142.785V18.3898H141.367V12.6575H142.785ZM140.325 16.5718L140.482 17.6716C138.942 18.0173 137.542 18.0666 135.109 18.0622H134.175V13.2769H139.311V14.3992H135.576V16.9534C137.659 16.9444 138.911 16.8591 140.325 16.5718ZM142.785 21.9361H136.685V22.8474H143.144V23.9876H135.293V20.8722H141.376V20.0148H135.275V18.8881H142.785V21.9361ZM148.923 19.9565C148.38 19.9565 147.931 19.5166 147.94 18.9734C147.931 18.4392 148.38 17.9993 148.923 17.9993C149.452 17.9993 149.901 18.4392 149.906 18.9734C149.901 19.5166 149.452 19.9565 148.923 19.9565ZM158.818 16.1409C158.051 17.5953 156.453 18.6861 154.504 19.0273L153.934 17.8557C156.327 17.4741 158.06 15.8311 158.069 14.1837V13.3353H159.568V14.1837C159.563 15.8446 161.301 17.4876 163.711 17.8557L163.141 19.0273C161.175 18.6682 159.577 17.5953 158.818 16.1409ZM161.417 19.1709V21.595H164.129V22.7352H153.638V21.595H156.336V19.1709H157.732V21.595H160.017V19.1709H161.417ZM172.752 12.6664H174.166V19.6198H172.752V12.6664ZM171.823 17.519L171.917 18.5649C169.583 18.9644 166.88 19.0093 164.959 19.0093L164.802 17.8602C165.21 17.8602 165.65 17.8602 166.117 17.8512V14.7089H165.112V13.5687H171.342V14.7089H170.314V17.6761C170.831 17.6312 171.338 17.5818 171.823 17.519ZM168.963 14.7089H167.468V17.8242C167.958 17.8108 168.46 17.7928 168.963 17.7659V14.7089ZM170.31 19.8443C172.747 19.8443 174.238 20.6119 174.238 21.9675C174.238 23.3322 172.747 24.1177 170.31 24.1133C167.868 24.1177 166.387 23.3322 166.387 21.9675C166.387 20.6119 167.868 19.8443 170.31 19.8443ZM170.31 23.0269C171.926 23.0269 172.824 22.6588 172.828 21.9675C172.824 21.2942 171.926 20.9306 170.31 20.9351C168.689 20.9306 167.787 21.2942 167.787 21.9675C167.787 22.6588 168.689 23.0269 170.31 23.0269Z" fill="black"/>
<path d="M34.9579 35.5041V32.0787H35.8488V40.8287H34.9579V36.2707H33.8805V40.3971H33V32.2479H33.8805V35.5041H34.9579ZM32.0159 38.5221H28.6181V33.0628H32.0159V38.5221ZM31.1457 33.7983H29.4917V37.7866H31.1457V33.7983ZM37.6301 35.5732L37.3643 34.8757C39.0424 34.7825 40.2234 34.268 40.4098 33.5256H37.7683V32.8177H40.4927V32.0442H41.4043V32.8177H44.1426V33.5256H41.4837C41.6667 34.268 42.8477 34.7825 44.5397 34.8757L44.26 35.5732C42.7372 35.4627 41.4941 35.0207 40.9485 34.2541C40.4029 35.0207 39.1598 35.4627 37.6301 35.5732ZM44.9333 35.9185V36.6126H41.4078V37.3446H43.9319V39.3198H38.8422V40.0414H44.184V40.7459H37.934V38.6775H43.0203V38.0214H37.9167V37.3446H40.4893V36.6126H36.9775V35.9185H44.9333ZM49.0456 37.5967C48.6623 37.5967 48.3447 37.2859 48.3516 36.9061C48.3447 36.5262 48.6623 36.2155 49.0456 36.2155C49.4186 36.2155 49.7362 36.5262 49.7362 36.9061C49.7362 37.2859 49.4186 37.5967 49.0456 37.5967ZM59.7626 35.5041V32.0787H60.6534V40.8287H59.7626V36.2707H58.6852V40.3971H57.8047V32.2479H58.6852V35.5041H59.7626ZM56.8206 38.5221H53.4228V33.0628H56.8206V38.5221ZM55.9504 33.7983H54.2964V37.7866H55.9504V33.7983ZM68.1013 32.0787H69.0301V36.7749H68.1013V32.0787ZM64.2788 32.4827C65.6185 32.4758 66.6027 33.308 66.6027 34.5166C66.6027 35.7079 65.6185 36.5401 64.2788 36.5366C62.9355 36.5401 61.948 35.7079 61.948 34.5166C61.948 33.308 62.9355 32.4758 64.2788 32.4827ZM64.2788 33.2631C63.4466 33.2562 62.8492 33.7638 62.8561 34.5166C62.8492 35.2659 63.4466 35.77 64.2788 35.7735C65.1006 35.77 65.6945 35.2659 65.6945 34.5166C65.6945 33.7638 65.1006 33.2562 64.2788 33.2631ZM63.3015 37.1996H64.2097V38.1802H68.1082V37.1996H69.0301V40.7182H63.3015V37.1996ZM64.2097 38.9123V39.962H68.1082V38.9123H64.2097ZM73.8503 37.5967C73.467 37.5967 73.1493 37.2859 73.1562 36.9061C73.1493 36.5262 73.467 36.2155 73.8503 36.2155C74.2232 36.2155 74.5409 36.5262 74.5409 36.9061C74.5409 37.2859 74.2232 37.5967 73.8503 37.5967ZM82.378 35.846V36.692H85.9105V37.4482H77.934V36.692H81.4561V35.846C79.8193 35.7459 78.7869 35.107 78.7869 34.0815C78.7869 32.9972 80.0127 32.3308 81.9153 32.3273C83.811 32.3308 85.0369 32.9972 85.0369 34.0815C85.0369 35.107 84.0079 35.7459 82.378 35.846ZM79.7503 34.0815C79.7434 34.741 80.5755 35.1036 81.9153 35.107C83.2551 35.1036 84.0873 34.741 84.0873 34.0815C84.0873 33.4565 83.2551 33.0732 81.9153 33.0732C80.5755 33.0732 79.7434 33.4565 79.7503 34.0815ZM78.9388 38.1008H79.8711V39.8895H85.0127V40.6492H78.9388V38.1008ZM93.3928 35.5007H94.7948V36.2776H93.3928V40.846H92.4743V32.0787H93.3928V35.5007ZM87.8576 36.0843V37.98C89.3597 37.9765 90.4681 37.9178 91.7457 37.6865L91.8321 38.4427C90.4681 38.6913 89.2872 38.75 87.647 38.7569H86.9391V35.3349H89.9985V33.6257H86.9218V32.866H90.9239V36.0843H87.8576ZM101.549 32.0856H102.477V38.4461H101.549V32.0856ZM97.726 37.02C96.407 37.0235 95.3952 36.1291 95.3952 34.8446C95.3952 33.5773 96.407 32.6796 97.726 32.6796C99.0451 32.6796 100.05 33.5773 100.05 34.8446C100.05 36.1291 99.0451 37.0235 97.726 37.02ZM96.3034 34.8446C96.2965 35.6664 96.9111 36.212 97.726 36.212C98.5271 36.212 99.1418 35.6664 99.1418 34.8446C99.1418 34.0366 98.5271 33.4876 97.726 33.4876C96.9111 33.4876 96.2965 34.0366 96.3034 34.8446ZM97.6846 37.8004V39.8895H102.733V40.6492H96.7523V37.8004H97.6846ZM110.495 35.5041V32.0787H111.386V40.8287H110.495V36.2707H109.418V40.3971H108.537V32.2479H109.418V35.5041H110.495ZM107.553 38.5221H104.155V33.0628H107.553V38.5221ZM106.683 33.7983H105.029V37.7866H106.683V33.7983ZM113.167 35.5732L112.901 34.8757C114.58 34.7825 115.76 34.268 115.947 33.5256H113.305V32.8177H116.03V32.0442H116.941V32.8177H119.68V33.5256H117.021C117.204 34.268 118.385 34.7825 120.077 34.8757L119.797 35.5732C118.274 35.4627 117.031 35.0207 116.486 34.2541C115.94 35.0207 114.697 35.4627 113.167 35.5732ZM120.47 35.9185V36.6126H116.945V37.3446H119.469V39.3198H114.379V40.0414H119.721V40.7459H113.471V38.6775H118.557V38.0214H113.454V37.3446H116.026V36.6126H112.515V35.9185H120.47ZM121.758 37.0684C121.758 35.3349 122.221 33.895 123.101 32.6657H124.058C123.378 33.5773 122.839 35.4282 122.839 37.0684C122.839 38.7086 123.378 40.5628 124.058 41.4744H123.101C122.221 40.2452 121.758 38.8018 121.758 37.0684ZM130.74 32.3584H131.662V35.8874H125.764V32.3584H126.686V33.4116H130.74V32.3584ZM126.686 35.145H130.74V34.1126H126.686V35.145ZM124.707 37.4068V36.6609H132.715V37.4068H129.245V39.0159H128.326V37.4068H124.707ZM125.705 38.2493H126.624V39.8895H131.827V40.6492H125.705V38.2493ZM139.703 40.8287V32.0787H140.636V40.8287H139.703ZM133.871 33.0214H138.036C138.029 35.5801 136.941 37.8004 133.937 39.2334L133.447 38.4841C135.774 37.3791 136.906 35.8011 137.089 33.7604H133.871V33.0214ZM144.316 37.0684C144.316 38.8018 143.854 40.2452 142.973 41.4744H142.017C142.697 40.5628 143.236 38.7086 143.236 37.0684C143.236 35.4282 142.697 33.5773 142.017 32.6657H142.973C143.854 33.895 144.316 35.3349 144.316 37.0684Z" fill="#595959"/>
<mask id="mask0_2911_75327" style="mask-type:alpha" maskUnits="userSpaceOnUse" x="10" y="11" width="14" height="14">
<rect x="10" y="11" width="14" height="14" fill="#D9D9D9"/>
</mask>
<g mask="url(#mask0_2911_75327)">
<path d="M12.3337 18.6954C12.3337 17.436 12.3327 16.1766 12.3337 14.9175C12.3347 14.1211 12.8558 13.4958 13.6386 13.3545C13.7373 13.3367 13.8399 13.3354 13.9409 13.335C15.9818 13.3341 18.0223 13.3334 20.0633 13.3347C20.9938 13.3354 21.6655 14.0068 21.6659 14.9344C21.6665 17.4652 21.6665 19.9961 21.6659 22.5269C21.6659 23.1548 21.1727 23.6305 20.5652 23.5941C20.2827 23.5772 20.0499 23.4357 19.8207 23.2906C19.3126 22.9691 18.8133 22.9785 18.3071 23.3C17.4525 23.8428 16.5824 23.8552 15.7249 23.3178C15.1905 22.9828 14.6779 22.9643 14.1477 23.3091C13.9204 23.4568 13.6873 23.5951 13.4003 23.5987C12.8064 23.6065 12.3357 23.1535 12.3344 22.5587C12.3318 21.2711 12.3337 19.9834 12.3337 18.6958V18.6954ZM16.9996 15.4061C16.3194 15.4061 15.6392 15.4055 14.959 15.4061C14.6438 15.4068 14.4139 15.6201 14.4068 15.9149C14.3996 16.2084 14.6357 16.4432 14.9532 16.4435C16.3178 16.4458 17.6824 16.4471 19.0467 16.4399C19.1603 16.4393 19.2876 16.3938 19.3844 16.3311C19.5717 16.21 19.6353 15.9701 19.5649 15.76C19.4938 15.547 19.3009 15.4071 19.0649 15.4065C18.3766 15.4048 17.6883 15.4058 16.9999 15.4058L16.9996 15.4061ZM16.9957 18.5169C17.6759 18.5169 18.3561 18.5175 19.0366 18.5169C19.3581 18.5165 19.5925 18.2971 19.5935 17.9996C19.5944 17.7045 19.3594 17.4792 19.0389 17.4789C17.6785 17.4772 16.3178 17.4772 14.9574 17.4805C14.871 17.4805 14.7785 17.5006 14.6999 17.5363C14.4805 17.6354 14.371 17.8737 14.422 18.1117C14.4727 18.348 14.6775 18.5152 14.9308 18.5162C15.6191 18.5185 16.3074 18.5169 16.9957 18.5172V18.5169ZM15.961 20.5873C15.961 20.5873 15.961 20.5883 15.961 20.5886C16.2928 20.5886 16.6246 20.5928 16.9561 20.586C17.0503 20.5841 17.1519 20.5675 17.2366 20.5285C17.449 20.4308 17.5558 20.1896 17.5064 19.9591C17.4574 19.7285 17.2555 19.5591 17.0084 19.5578C16.3126 19.5542 15.6168 19.5561 14.921 19.5574C14.8733 19.5574 14.8236 19.5643 14.7779 19.5779C14.5379 19.6487 14.3805 19.8857 14.411 20.125C14.4447 20.3896 14.6425 20.5811 14.9055 20.586C15.2574 20.5925 15.6094 20.5876 15.9613 20.5876L15.961 20.5873Z" fill="black"/>
</g>
</svg>
