<svg width="200" height="164" viewBox="0 0 200 164" fill="none" xmlns="http://www.w3.org/2000/svg">
<rect x="0.5" y="0.5" width="199" height="163" rx="5.5" fill="white" stroke="#D9D9D9"/>
<path d="M27.1965 93.5041V90.0787H28.0874V98.8287H27.1965V94.2707H26.1192V98.3971H25.2387V90.2479H26.1192V93.5041H27.1965ZM24.2546 96.5221H20.8568V91.0628H24.2546V96.5221ZM23.3844 91.7983H21.7304V95.7866H23.3844V91.7983ZM29.6688 93.5732L29.4029 92.8757C31.0811 92.7825 32.262 92.268 32.4485 91.5256H29.8069V90.8177H32.5314V90.0442H33.443V90.8177H36.1812V91.5256H33.5224C33.7054 92.268 34.8864 92.7825 36.5783 92.8757L36.2987 93.5732C34.7759 93.4627 33.5328 93.0207 32.9872 92.2541C32.4416 93.0207 31.1985 93.4627 29.6688 93.5732ZM36.972 93.9185V94.6126H33.4464V95.3446H35.9706V97.3198H30.8808V98.0414H36.2227V98.7459H29.9727V96.6775H35.059V96.0214H29.9554V95.3446H32.5279V94.6126H29.0162V93.9185H36.972ZM40.6843 95.5967C40.301 95.5967 39.9833 95.2859 39.9902 94.9061C39.9833 94.5262 40.301 94.2155 40.6843 94.2155C41.0572 94.2155 41.3749 94.5262 41.3749 94.9061C41.3749 95.2859 41.0572 95.5967 40.6843 95.5967ZM51.0012 93.5041V90.0787H51.8921V98.8287H51.0012V94.2707H49.9239V98.3971H49.0434V90.2479H49.9239V93.5041H51.0012ZM48.0592 96.5221H44.6615V91.0628H48.0592V96.5221ZM47.1891 91.7983H45.5351V95.7866H47.1891V91.7983ZM59.1399 90.0787H60.0688V94.7749H59.1399V90.0787ZM55.3174 90.4827C56.6572 90.4758 57.6413 91.308 57.6413 92.5166C57.6413 93.7079 56.6572 94.5401 55.3174 94.5366C53.9742 94.5401 52.9866 93.7079 52.9866 92.5166C52.9866 91.308 53.9742 90.4758 55.3174 90.4827ZM55.3174 91.2631C54.4852 91.2562 53.8879 91.7638 53.8948 92.5166C53.8879 93.2659 54.4852 93.77 55.3174 93.7735C56.1393 93.77 56.7332 93.2659 56.7332 92.5166C56.7332 91.7638 56.1393 91.2562 55.3174 91.2631ZM54.3402 95.1996H55.2484V96.1802H59.1468V95.1996H60.0688V98.7182H54.3402V95.1996ZM55.2484 96.9123V97.962H59.1468V96.9123H55.2484ZM64.489 95.5967C64.1057 95.5967 63.788 95.2859 63.7949 94.9061C63.788 94.5262 64.1057 94.2155 64.489 94.2155C64.8619 94.2155 65.1796 94.5262 65.1796 94.9061C65.1796 95.2859 64.8619 95.5967 64.489 95.5967ZM74.9889 93.5698H76.3909V94.3605H74.9889V98.8287H74.0601V90.0787H74.9889V93.5698ZM71.2044 90.8073V92.3059C71.1975 93.8529 72.1022 95.4378 73.4005 96.0732L72.8308 96.8156C71.8743 96.3218 71.1353 95.3412 70.7521 94.174C70.3619 95.4171 69.5953 96.4634 68.6008 96.9814L68.0242 96.2355C69.3674 95.5863 70.2755 93.9116 70.2824 92.3059V90.8073H71.2044ZM82.9826 92.1229V90.0787H83.908V94.7749H82.9826V92.8791H81.2768C81.0973 93.884 80.1995 94.5608 79.0323 94.5608C77.696 94.5608 76.7361 93.7182 76.743 92.5131C76.7361 91.3184 77.696 90.4689 79.0323 90.4758C80.1857 90.4689 81.08 91.1388 81.2734 92.1229H82.9826ZM79.0323 93.7804C79.8438 93.7804 80.4239 93.259 80.4239 92.5131C80.4239 91.7569 79.8438 91.2493 79.0323 91.2562C78.2071 91.2493 77.6235 91.7569 77.6235 92.5131C77.6235 93.259 78.2071 93.7804 79.0323 93.7804ZM79.1221 96.2182H82.9826V95.1996H83.908V98.7182H78.2036V95.1996H79.1221V96.2182ZM79.1221 97.962H82.9826V96.9468H79.1221V97.962ZM91.0764 90.3584H91.9984V93.8874H86.1006V90.3584H87.0226V91.4116H91.0764V90.3584ZM87.0226 93.145H91.0764V92.1126H87.0226V93.145ZM85.044 95.4068V94.6609H93.0516V95.4068H89.5813V97.0159H88.6628V95.4068H85.044ZM86.0419 96.2493H86.9604V97.8895H92.1641V98.6492H86.0419V96.2493ZM99.8678 91.8467V90.0787H100.793V95.2652H99.8678V92.6133H98.0238V91.8467H99.8678ZM96.1316 92.9689C95.7517 93.9461 95.0059 94.7058 93.9872 95.096L93.4866 94.3432C94.8609 93.8736 95.6516 92.7203 95.6551 91.422V90.5276H96.5839V91.4703C96.577 92.6374 97.3781 93.732 98.6903 94.1706L98.1896 94.9095C97.2227 94.5608 96.508 93.8564 96.1316 92.9689ZM99.8678 96.4565H94.8609V95.721H100.793V98.8287H99.8678V96.4565ZM105.179 95.5967C104.796 95.5967 104.478 95.2859 104.485 94.9061C104.478 94.5262 104.796 94.2155 105.179 94.2155C105.552 94.2155 105.869 94.5262 105.869 94.9061C105.869 95.2859 105.552 95.5967 105.179 95.5967ZM115.496 98.8287V90.0787H116.387V98.8287H115.496ZM112.481 92.1402H113.752V90.2479H114.629V98.3971H113.752V95.5794H112.481C112.167 96.4496 111.587 96.9503 110.841 96.9468C109.702 96.9503 108.959 95.759 108.959 93.8564C108.959 91.9641 109.702 90.7797 110.841 90.7797C111.587 90.7797 112.164 91.2769 112.481 92.1402ZM110.841 96.0628C111.49 96.0698 111.898 95.2514 111.898 93.8564C111.898 92.4648 111.487 91.6499 110.841 91.6499C110.195 91.6499 109.805 92.4648 109.812 93.8564C109.805 95.2514 110.195 96.0698 110.841 96.0628ZM112.678 94.8128H113.752V92.8964H112.675C112.723 93.1899 112.751 93.511 112.751 93.8564C112.751 94.1982 112.723 94.5193 112.678 94.8128ZM124.18 90.0787V92.2818H125.447V93.0552H124.18V95.3584H123.251V90.0787H124.18ZM119.874 92.9689C119.498 93.9496 118.755 94.7196 117.737 95.096L117.236 94.3605C118.6 93.8736 119.391 92.703 119.398 91.4012V90.5345H120.316V91.4807C120.316 92.6271 121.124 93.6941 122.429 94.1222L121.936 94.8508C120.976 94.5124 120.257 93.8322 119.874 92.9689ZM121.352 95.5656C123.155 95.5656 124.259 96.1664 124.259 97.1851C124.259 98.2244 123.155 98.8149 121.352 98.8149C119.536 98.8149 118.417 98.2244 118.417 97.1851C118.417 96.1664 119.536 95.5656 121.352 95.5656ZM121.352 98.0863C122.612 98.0794 123.351 97.7652 123.351 97.1851C123.351 96.6291 122.612 96.3011 121.352 96.3011C120.088 96.3011 119.339 96.6291 119.346 97.1851C119.339 97.7652 120.088 98.0794 121.352 98.0863ZM134.056 90.4344H134.981V94.2327H128.973V90.4344H129.892V91.5739H134.056V90.4344ZM129.892 93.4869H134.056V92.3163H129.892V93.4869ZM127.975 95.2238H135.983V95.9627H132.412V98.8287H131.501V95.9627H127.975V95.2238ZM143.248 93.5663H144.605V94.3432H143.248V98.8184H142.319V90.0787H143.248V93.5663ZM136.874 91.0041H140.959C140.952 93.5283 139.836 95.7866 136.953 97.2058L136.435 96.4876C138.631 95.393 139.819 93.8115 140.016 91.7707H136.874V91.0041ZM151.507 98.8287V90.0787H152.398V98.8287H151.507ZM148.344 93.1554H149.708V90.2479H150.582V98.3971H149.708V93.9254H148.344V93.1554ZM147.54 90.8764V92.4682C147.54 93.8702 148.124 95.3584 149.298 96.0732L148.776 96.7914C147.958 96.2977 147.405 95.4206 147.105 94.4088C146.784 95.5173 146.183 96.4634 145.333 96.9814L144.753 96.2907C145.993 95.5518 146.642 94.0014 146.642 92.5097V90.8764H147.54ZM159.999 95.1823V96.9779H163.566V97.7445H155.558V96.9779H159.08V95.1823H156.47V90.6761H157.399V92.1851H161.694V90.6761H162.616V95.1823H159.999ZM161.694 92.9309H157.399V94.4296H161.694V92.9309ZM170.154 91.7776V91.674H164.84V90.9213H171.079V91.7776C171.076 92.8619 171.076 94.0704 170.745 95.866L169.812 95.7624C170.147 94.0704 170.147 92.8308 170.154 91.7776ZM167.951 93.7942V96.8812H171.977V97.6478H164.001V96.8812H167.033V93.7942H167.951ZM178.821 92.9862V90.0787H179.74V98.846H178.821V93.739H176.87V92.9862H178.821ZM175.599 90.8073V92.3059C175.596 93.9081 176.494 95.5035 177.83 96.1043L177.271 96.8501C176.273 96.3494 175.52 95.3619 175.137 94.1637C174.75 95.424 173.987 96.4876 172.982 97.009L172.395 96.2631C173.749 95.614 174.653 93.9254 174.66 92.3059V90.8073H175.599Z" fill="#595959"/>
<path d="M87.9151 78.1222V66.6575H89.2752V78.1222H87.9151ZM83.3453 70.9085H85.5539V66.8819H86.8736V77.5746H85.5539V72.0666H83.3453V70.9085ZM81.1412 69.1354V74.3246C82.5014 74.3156 83.4755 74.2483 84.6022 74.0104L84.7189 75.1775C83.4171 75.4423 82.2724 75.4962 80.5352 75.5007H79.7631V67.9952H84.1309V69.1354H81.1412ZM98.7419 66.6575H100.165V78.1492H98.7419V66.6575ZM93.9836 67.4879C95.7029 67.4924 96.9688 69.0635 96.9688 71.5414C96.9688 74.0373 95.7029 75.6084 93.9836 75.6039C92.2419 75.6084 90.9805 74.0373 90.985 71.5414C90.9805 69.0635 92.2419 67.4924 93.9836 67.4879ZM93.9836 68.7628C93.005 68.7628 92.3452 69.7907 92.3452 71.5414C92.3452 73.3056 93.005 74.3291 93.9836 74.3291C94.9443 74.3291 95.6041 73.3056 95.6041 71.5414C95.6041 69.7907 94.9443 68.7628 93.9836 68.7628ZM110.072 70.8008V66.6575H111.472V78.1492H110.072V71.941H107.921V70.8008H110.072ZM103.791 71.9724V74.3381C105.542 74.3291 106.844 74.2707 108.321 74.0238L108.469 75.1685C106.795 75.4244 105.327 75.4872 103.275 75.4962H102.377V67.6495H107.737V68.7942H103.791V70.8546H107.288V71.9724H103.791ZM124.374 69.4675V66.6664H125.783V73.1215H124.374V70.6302H122.165V69.4675H124.374ZM122.111 67.3532C122.107 70.3115 120.159 72.3809 116.819 73.3191L116.253 72.2148C118.821 71.5145 120.347 70.1633 120.599 68.4889H116.868V67.3532H122.111ZM125.783 77.9741H118.233V73.5884H125.783V77.9741ZM124.383 74.7017H119.616V76.8608H124.383V74.7017ZM128.391 71.4831L127.911 70.3788C130.043 70.1678 131.435 69.3104 131.65 68.3498H128.364V67.2051H136.925V68.3498H133.612C133.823 69.297 135.192 70.1678 137.373 70.3788L136.875 71.4831C134.792 71.2721 133.248 70.4461 132.624 69.2835C132.005 70.4416 130.478 71.2721 128.391 71.4831ZM127.408 73.144V71.9993H137.863V73.144H127.408ZM132.62 73.9026C135.102 73.9026 136.592 74.6747 136.597 76.0124C136.592 77.3591 135.102 78.1177 132.62 78.1133C130.128 78.1177 128.624 77.3591 128.624 76.0124C128.624 74.6747 130.128 73.9026 132.62 73.9026ZM132.62 77.0045C134.267 77.009 135.178 76.6768 135.187 76.0124C135.178 75.3436 134.267 75.0069 132.62 75.0024C130.954 75.0069 130.052 75.3436 130.061 76.0124C130.052 76.6768 130.954 77.009 132.62 77.0045Z" fill="black"/>
<mask id="mask0_2911_75320" style="mask-type:alpha" maskUnits="userSpaceOnUse" x="61" y="65" width="14" height="14">
<rect x="61" y="65" width="14" height="14" fill="#D9D9D9"/>
</mask>
<g mask="url(#mask0_2911_75320)">
<path d="M63.8 69.9H63.95C64.5275 69.9 65 70.3725 65 70.95V76.2C65 76.7775 64.5275 77.25 63.95 77.25H63.8C63.2225 77.25 62.75 76.7775 62.75 76.2V70.95C62.75 70.3725 63.2225 69.9 63.8 69.9ZM68 66.75C68.5775 66.75 69.05 67.2225 69.05 67.8V76.2C69.05 76.7775 68.5775 77.25 68 77.25C67.4225 77.25 66.95 76.7775 66.95 76.2V67.8C66.95 67.2225 67.4225 66.75 68 66.75ZM72.2 72.75C72.7775 72.75 73.25 73.2225 73.25 73.8V76.2C73.25 76.7775 72.7775 77.25 72.2 77.25C71.6225 77.25 71.15 76.7775 71.15 76.2V73.8C71.15 73.2225 71.6225 72.75 72.2 72.75Z" fill="black"/>
</g>
</svg>
