<svg width="1182" height="198" viewBox="0 0 1182 198" fill="none" xmlns="http://www.w3.org/2000/svg">
<rect x="0.5" y="0.5" width="1181" height="197" rx="3.5" fill="#FBFBFC" stroke="#F8F8F8"/>
<path d="M760 6L760 192" stroke="#EFEFF1" stroke-linecap="round"/>
<path d="M32 6L32 192" stroke="#EFEFF1" stroke-linecap="round"/>
<path d="M65 6L65 192" stroke="#EFEFF1" stroke-linecap="round"/>
<path d="M97 6L97 192" stroke="#EFEFF1" stroke-linecap="round"/>
<path d="M130 6L130 192" stroke="#EFEFF1" stroke-linecap="round"/>
<path d="M162 6L162 192" stroke="#EFEFF1" stroke-linecap="round"/>
<path d="M195 6L195 192" stroke="#EFEFF1" stroke-linecap="round"/>
<path d="M227 6L227 192" stroke="#EFEFF1" stroke-linecap="round"/>
<path d="M260 6L260 192" stroke="#EFEFF1" stroke-linecap="round"/>
<path d="M292 6L292 192" stroke="#EFEFF1" stroke-linecap="round"/>
<path d="M325 6L325 192" stroke="#EFEFF1" stroke-linecap="round"/>
<path d="M357 6L357 192" stroke="#EFEFF1" stroke-linecap="round"/>
<path d="M390 6L390 192" stroke="#EFEFF1" stroke-linecap="round"/>
<path d="M422 6L422 192" stroke="#EFEFF1" stroke-linecap="round"/>
<path d="M455 6L455 192" stroke="#EFEFF1" stroke-linecap="round"/>
<path d="M487 6L487 192" stroke="#EFEFF1" stroke-linecap="round"/>
<path d="M520 6L520 192" stroke="#EFEFF1" stroke-linecap="round"/>
<path d="M552 6L552 192" stroke="#EFEFF1" stroke-linecap="round"/>
<path d="M968 6L968 192" stroke="#EFEFF1" stroke-linecap="round"/>
</svg>
