<svg xmlns="http://www.w3.org/2000/svg" width="36" height="36" viewBox="0 0 36 36">
  <g id="그룹_88166" data-name="그룹 88166" transform="translate(-1350 -8123)">
    <rect id="사각형_25769" data-name="사각형 25769" width="36" height="36" rx="18" transform="translate(1350 8123)" fill="#55627e" opacity="0.65"/>
    <g id="그룹_87590" data-name="그룹 87590" transform="translate(1356.582 8132.449)" opacity="0.65">
      <path id="패스_61417" data-name="패스 61417" d="M28.049,50.767a.787.787,0,1,0,.787.787.786.786,0,0,0-.787-.787" transform="translate(-23.066 -42.95)" fill="#fff"/>
      <path id="패스_61418" data-name="패스 61418" d="M78.168,50.234a.847.847,0,1,0,.847.847.847.847,0,0,0-.847-.847" transform="translate(-65.416 -42.499)" fill="#fff"/>
      <path id="패스_61419" data-name="패스 61419" d="M19.784,0H3.055A3.055,3.055,0,0,0,0,3.055v9.929a3.055,3.055,0,0,0,3.055,3.055H8.964l2.01,3.973s.138.411.473.411h0c.335,0,.473-.411.473-.411l2.01-3.973h5.854a3.055,3.055,0,0,0,3.055-3.055V3.055A3.055,3.055,0,0,0,19.784,0M7.176,8.777a1.892,1.892,0,0,1-1.886,1.867,1.569,1.569,0,0,1-1.136-.481v.327H2.787V4.853c-.006,0-.006,0,0,0v0c.085.014,1.367,0,1.367,0V7.006C4.475,6.458,5.4,6.467,5.4,6.467a2,2,0,0,1,1.771,2.31M9.582,6.64V10.5H8.244V6.679c0-.52-.645-.664-.645-.664V4.667A1.85,1.85,0,0,1,9.582,6.64m3.171,4.006A2.159,2.159,0,0,1,10.51,8.582a2.159,2.159,0,0,1,2.242-2.064,2.159,2.159,0,0,1,2.242,2.064,2.159,2.159,0,0,1-2.242,2.064m7.328,0a1.908,1.908,0,0,1-1.973,1.961H17.5v-1.27h.366s.837.077.828-1.213c0,0-.164.522-1.338.522A1.764,1.764,0,0,1,15.692,8.9V8.286a1.9,1.9,0,0,1,1.867-1.819,1.362,1.362,0,0,1,1.164.52V6.573h1.357Z" fill="#fff"/>
      <path id="패스_61420" data-name="패스 61420" d="M112.055,50.359a.828.828,0,1,0,.828.828.828.828,0,0,0-.828-.828" transform="translate(-94.101 -42.605)" fill="#fff"/>
    </g>
  </g>
</svg>
