<svg xmlns="http://www.w3.org/2000/svg" width="100" height="100" viewBox="0 0 100 100">
    <path data-name="패스 6978" d="M2058.631 1297.8a50 50 0 1 1-50-50 50 50 0 0 1 50 50z" transform="translate(-1958.631 -1247.797)" style="fill:#004897"/>
    <g data-name="그룹 2021">
        <path data-name="패스 6562" d="M2252.978 1654.725v8.133h-4.868v-21.53h4.868v8.4h4.213v5zm-10.337 7.352a20.832 20.832 0 0 1-4.19-2.892 17.822 17.822 0 0 1-3.637-4.373 16.322 16.322 0 0 1-3.187 4.613 24.99 24.99 0 0 1-4.239 3.523l-3.511-3.961a17.164 17.164 0 0 0 5.794-5.088 11.56 11.56 0 0 0 2.582-7v-4.655h5.171v4.655a10.226 10.226 0 0 0 2.633 6.7 13.729 13.729 0 0 0 5.493 4.219zM2230 1679.17v-14.483h22.981v14.483zm18.163-9.482h-13.3v4.479h13.3z" transform="translate(-2205.036 -1611.442)" style="fill:#fff"/>
        <path data-name="패스 6563" d="M2289.866 1663.643v-10.658h-6.266v-5.085h6.269v-6.569h4.867v22.315zm-6.371-1.479a22.321 22.321 0 0 1-4.164-2.893 17.451 17.451 0 0 1-3.663-4.373 16.635 16.635 0 0 1-3.161 4.613 23.116 23.116 0 0 1-4.266 3.522l-3.509-3.958a17.159 17.159 0 0 0 5.793-5.087 11.572 11.572 0 0 0 2.584-7.006v-4.872h5.217v4.872a10.233 10.233 0 0 0 2.635 6.7 13.752 13.752 0 0 0 5.495 4.219zm8.6 15.68q-3.384 2.239-9.253 2.239-5.821 0-9.207-2.218a6.673 6.673 0 0 1-3.387-5.784 6.743 6.743 0 0 1 3.387-5.785q3.387-2.259 9.207-2.26t9.23 2.24a6.619 6.619 0 0 1 .022 11.568zm-4.013-8.284a12.393 12.393 0 0 0-5.19-.959 13.158 13.158 0 0 0-5.12.891q-2.107.893-2.105 2.459 0 1.477 2.105 2.543a11.24 11.24 0 0 0 5.12 1.066 12.167 12.167 0 0 0 5.19-.979q2.083-.979 2.084-2.457.003-1.606-2.081-2.564z" transform="translate(-2214.239 -1611.442)" style="fill:#fff"/>
    </g>
</svg>
