<svg xmlns="http://www.w3.org/2000/svg" width="100" height="100" viewBox="0 0 100 100">
    <path data-name="패스 918" d="M292.127 1435.555a49.522 49.522 0 1 0 51.708 47.235 49.507 49.507 0 0 0-51.708-47.235z" transform="translate(-244.363 -1435.026)" style="fill:#fff"/>
    <path data-name="패스 919" d="M292.1 1435.078a50 50 0 1 0 52.206 47.689 50 50 0 0 0-52.206-47.689zm5.858 48.519a2716.181 2716.181 0 0 0 13.757 12.605c15.664 13.046 10.317 24.969 4.33 29.119-4.566 3.16-9.625 4.643-16.257 5a1.507 1.507 0 0 1-1.738-1.319c-.043-1.13 1.608-1.415 1.608-1.415 14.789-2.912 10.467-12.61 5.234-17.558-2.2-2.083-22.789-19.84-22.789-19.84-19.628-16.9-18.059-30.1-18.059-30.1.948-16.235 15.168-20.263 25.922-19.333 1.261.106 1.958.879 1.73 1.927-.236 1.142-1.9 1.226-1.9 1.226-3.423.2-6.481.553-8.812 2.119-8.666 5.831-6.107 15.745 5.451 26.784 1.45 1.393 3 2.854 4.58 4.34.004.005 2.328 2.048 6.947 6.448zm-6.713 41.969c.088 1.582-3.762 2.275-8.157 1.844a31.438 31.438 0 0 1-17.869-7.25 34.638 34.638 0 0 1-10.144-16.363c-1.626-5.651-2.309-12.256.379-11.736.823.164 2.251 3.794 3.806 6.437a17.062 17.062 0 0 0 4.131 5.157c.56.417 2.442-3.774 5.18-6.159 1.6-1.314 3.344-1.766 3.622 2.158.342 4.819-.52 10.543.878 10.543 1.319 0 4.283-.99 10.793-1.542 2.444-.208 3.836.251 1.505 3.547a24.7 24.7 0 0 1-6.413 6.6c5.535 5.188 12.176 4.567 12.293 6.763zm4.362-50.39a16.648 16.648 0 0 1-.181-6.275c.694-5.456 2.164-8.023 3.832-12.249 2.263-5.684-3.228-9.008-2.322-11.1 1.243-2.832 5.166.766 9.534 1.031 3.766.21 6.033.021 8.963.411 3.888.519 8.541 1.837 10.613 4.272 1.9 2.223-1 4.938-4.494 3.236-2.547-1.241-5.764-.477-3.88 2.179 2.272 2.529 3.358 2.6 5.67 3.207 6.37 1.677 6.5 7.772 2.192 10.932-4.907 3.587-9.865 2.106-11.86-4.936-1-3.51-3.486-5.3-6.023-4.3s-1.034 5.616.892 9.9c3.849 9.815-5.713 9.489-6.826 9.361a7.961 7.961 0 0 1-6.106-5.67z" transform="translate(-244.363 -1435.026)" style="fill:#e1e1e1"/>
</svg>
