<svg xmlns="http://www.w3.org/2000/svg" width="100" height="100" viewBox="0 0 100 100">
    <defs>
        <clipPath id="tauit2q61a">
            <path data-name="패스 50389" d="M51.451 0a50 50 0 1 0 50 50 49.995 49.995 0 0 0-50-50z" transform="translate(-1.451)" style="fill:none"/>
        </clipPath>
    </defs>
    <g data-name="그룹 65486" transform="translate(-432 -1144)">
        <circle data-name="타원 1810" cx="50" cy="50" r="50" transform="translate(432 1144)" style="fill:#e1e1e1"/>
        <g data-name="그룹 65486">
            <g data-name="그룹 65489">
                <g data-name="그룹 65488" style="clip-path:url(#tauit2q61a)" transform="translate(432 1144)">
                    <path data-name="패스 50326" d="M53.062 65.856c21.971 0 40.8 6.119 48.873 14.825a50.555 50.555 0 0 0 4.194-20.239c0-28.689-23.778-51.927-53.066-51.925S0 31.761 0 60.454a50.527 50.527 0 0 0 4.2 20.227c8.046-8.706 26.9-14.825 48.865-14.825" transform="translate(-2.859 8.267)" style="fill:#e1e1e1"/>
                    <path data-name="패스 50327" d="M52.991 65.694c21.916 0 40.7 6.07 48.747 14.707a49.9 49.9 0 0 0 4.184-20.077c0-28.459-23.715-51.582-52.93-51.58S.065 31.873.065 60.335A49.906 49.906 0 0 0 4.251 80.4c8.027-8.637 26.833-14.707 48.741-14.707" transform="translate(-2.796 8.487)" style="fill:#e1e1e1"/>
                    <path data-name="패스 50328" d="M52.921 65.53c21.859 0 40.6 6.02 48.621 14.587a49.25 49.25 0 0 0 4.174-19.917c0-28.228-23.654-51.238-52.794-51.236S.131 31.982.131 60.213a49.249 49.249 0 0 0 4.176 19.9c8-8.567 26.762-14.587 48.615-14.587" transform="translate(-2.732 8.705)" style="fill:#e1e1e1"/>
                    <path data-name="패스 50329" d="M52.851 65.367c21.8 0 40.493 5.969 48.5 14.467a48.617 48.617 0 0 0 4.16-19.75c0-28-23.591-50.893-52.656-50.891S.2 32.092.2 60.094a48.629 48.629 0 0 0 4.16 19.74c7.985-8.5 26.695-14.467 48.49-14.467" transform="translate(-2.667 8.923)" style="fill:#e1e1e1"/>
                    <path data-name="패스 50330" d="M52.78 65.2c21.746 0 40.389 5.92 48.37 14.348a47.989 47.989 0 0 0 4.15-19.59c0-27.758-23.528-50.543-52.52-50.541S.263 32.2.263 59.975a47.992 47.992 0 0 0 4.152 19.578C12.381 71.125 31.041 65.2 52.78 65.2" transform="translate(-2.604 9.141)" style="fill:#e1e1e1"/>
                    <path data-name="패스 50331" d="M52.71 65.042c21.69 0 40.29 5.87 48.244 14.228a47.332 47.332 0 0 0 4.14-19.427c0-27.536-23.467-50.2-52.385-50.2S.329 32.313.329 59.853A47.369 47.369 0 0 0 4.471 79.27c7.944-8.358 26.557-14.228 48.238-14.228" transform="translate(-2.54 9.359)" style="fill:#e1e1e1"/>
                    <path data-name="패스 50332" d="M52.639 64.879c21.632 0 40.182 5.819 48.12 14.108a46.716 46.716 0 0 0 4.129-19.263c0-27.308-23.406-49.858-52.249-49.856S.394 32.422.394 59.734a46.752 46.752 0 0 0 4.131 19.254c7.924-8.288 26.487-14.109 48.114-14.109" transform="translate(-2.477 9.579)" style="fill:#e1e1e1"/>
                    <path data-name="패스 50333" d="M52.569 64.716c21.575 0 40.078 5.77 47.994 13.99a46.088 46.088 0 0 0 4.119-19.1c0-27.077-23.343-49.513-52.113-49.511S.46 32.533.46 59.614a46.124 46.124 0 0 0 4.121 19.092c7.9-8.22 26.419-13.99 47.988-13.99" transform="translate(-2.413 9.797)" style="fill:#e1e1e1"/>
                    <path data-name="패스 50334" d="M52.5 64.554c21.52 0 39.973 5.721 47.868 13.87a45.448 45.448 0 0 0 4.109-18.938c0-26.848-23.282-49.168-51.977-49.168S.526 32.643.526 59.493a45.521 45.521 0 0 0 4.109 18.93c7.883-8.149 26.352-13.87 47.864-13.87" transform="translate(-2.349 10.014)" style="fill:#e1e1e1"/>
                    <path data-name="패스 50335" d="M52.428 64.391c21.463 0 39.871 5.67 47.744 13.749a44.834 44.834 0 0 0 4.1-18.775c0-26.618-23.22-48.825-51.841-48.824S.591 32.753.591 59.373A44.877 44.877 0 0 0 4.69 78.14c7.861-8.08 26.281-13.749 47.738-13.749" transform="translate(-2.286 10.233)" style="fill:#e1e1e1"/>
                    <path data-name="패스 50336" d="M52.358 64.229c21.405 0 39.766 5.62 47.617 13.631a44.222 44.222 0 0 0 4.087-18.613c0-26.387-23.157-48.481-51.7-48.479-28.531 0-51.7 22.1-51.7 48.487A44.287 44.287 0 0 0 4.744 77.86c7.841-8.011 26.214-13.631 47.614-13.631" transform="translate(-2.222 10.452)" style="fill:#e1e1e1"/>
                    <path data-name="패스 50337" d="M52.287 64.065c21.35 0 39.662 5.569 47.491 13.511a43.584 43.584 0 0 0 4.075-18.449c0-26.159-23.094-48.136-51.567-48.134C23.832 10.993.722 32.974.722 59.135A43.655 43.655 0 0 0 4.8 77.576c7.82-7.942 26.145-13.511 47.487-13.511" transform="translate(-2.159 10.671)" style="fill:#e1e1e1"/>
                    <path data-name="패스 50338" d="M52.216 63.9c21.293 0 39.559 5.52 47.367 13.391a42.985 42.985 0 0 0 4.064-18.286c0-25.928-23.031-47.791-51.431-47.791-28.38 0-51.427 21.867-51.427 47.8a43.028 43.028 0 0 0 4.066 18.28C12.652 69.423 30.93 63.9 52.216 63.9" transform="translate(-2.094 10.888)" style="fill:#e1e1e1"/>
                    <path data-name="패스 50339" d="M52.146 63.74c21.236 0 39.455 5.471 47.241 13.272a42.377 42.377 0 0 0 4.054-18.124c0-25.7-22.97-47.446-51.295-47.446C23.841 11.442.855 33.194.855 58.894a42.44 42.44 0 0 0 4.054 18.118c7.78-7.8 26.007-13.272 47.237-13.272" transform="translate(-2.03 11.106)" style="fill:#e1e1e1"/>
                    <path data-name="패스 50340" d="M52.075 63.578c21.181 0 39.35 5.419 47.115 13.152a41.759 41.759 0 0 0 4.044-17.963c0-25.467-22.909-47.1-51.159-47.1C23.845 11.668.92 33.3.92 58.775A41.825 41.825 0 0 0 4.964 76.73C12.722 69 30.9 63.578 52.075 63.578" transform="translate(-1.966 11.326)" style="fill:#e1e1e1"/>
                    <path data-name="패스 50341" d="M52 63.414c21.124 0 39.246 5.37 46.991 13.032a41.169 41.169 0 0 0 4.032-17.8c0-25.236-22.846-46.756-51.023-46.754C23.85 11.893.986 33.415.986 58.653a41.265 41.265 0 0 0 4.032 17.793C12.757 68.784 30.889 63.414 52 63.414" transform="translate(-1.902 11.544)" style="fill:#e1e1e1"/>
                    <path data-name="패스 50342" d="M51.934 63.252c21.066 0 39.143 5.321 46.866 12.914a40.57 40.57 0 0 0 4.022-17.638c0-25.006-22.785-46.411-50.887-46.411-28.08 0-50.883 21.407-50.883 46.417a40.665 40.665 0 0 0 4.021 17.632c7.717-7.593 25.8-12.914 46.861-12.914" transform="translate(-1.839 11.762)" style="fill:#e1e1e1"/>
                    <path data-name="패스 50343" d="M51.864 63.089c21.009 0 39.039 5.27 46.739 12.794a39.954 39.954 0 0 0 4.012-17.474c0-24.777-22.724-46.067-50.751-46.067-28.005 0-50.747 21.293-50.747 46.072a40.047 40.047 0 0 0 4.012 17.469c7.7-7.524 25.731-12.794 46.735-12.794" transform="translate(-1.775 11.98)" style="fill:#e1e1e1"/>
                    <path data-name="패스 50344" d="M51.794 62.926c20.954 0 38.935 5.22 46.614 12.673a39.38 39.38 0 0 0 4-17.31c0-24.547-22.661-45.722-50.615-45.722-27.93 0-50.611 21.177-50.611 45.726a39.467 39.467 0 0 0 4 17.306c7.676-7.453 25.664-12.673 46.61-12.673" transform="translate(-1.711 12.198)" style="fill:#e1e1e1"/>
                    <path data-name="패스 50345" d="M51.723 62.763c20.9 0 38.832 5.171 46.488 12.555A38.785 38.785 0 0 0 102.2 58.17c0-24.318-22.6-45.379-50.479-45.377-27.854 0-50.475 21.063-50.475 45.381a38.884 38.884 0 0 0 3.993 17.145c7.654-7.384 25.6-12.555 46.484-12.555" transform="translate(-1.648 12.418)" style="fill:#e1e1e1"/>
                    <path data-name="패스 50346" d="M51.652 62.6c20.84 0 38.728 5.12 46.362 12.435a38.184 38.184 0 0 0 3.979-16.985c0-24.088-22.537-45.034-50.341-45.032-27.779 0-50.337 20.946-50.337 45.036a38.307 38.307 0 0 0 3.977 16.981C12.926 67.72 30.818 62.6 51.652 62.6" transform="translate(-1.583 12.636)" style="fill:#e1e1e1"/>
                    <path data-name="패스 50347" d="M51.581 62.438c20.785 0 38.623 5.071 46.238 12.315a37.613 37.613 0 0 0 3.967-16.822c0-23.857-22.474-44.689-50.2-44.689-27.7 0-50.2 20.834-50.2 44.693a37.7 37.7 0 0 0 3.961 16.818C12.96 67.509 30.8 62.438 51.581 62.438" transform="translate(-1.52 12.854)" style="fill:#e1e1e1"/>
                    <path data-name="패스 50348" d="M51.511 62.275c20.728 0 38.521 5.021 46.112 12.2a37.035 37.035 0 0 0 3.957-16.66c0-23.628-22.413-44.344-50.069-44.344-27.629 0-50.065 20.718-50.065 44.346A37.126 37.126 0 0 0 5.4 74.471C13 67.3 30.791 62.275 51.511 62.275" transform="translate(-1.456 13.072)" style="fill:#e1e1e1"/>
                    <path data-name="패스 50349" d="M51.441 62.113c20.67 0 38.416 4.97 45.986 12.076a36.449 36.449 0 0 0 3.947-16.5c0-23.4-22.351-44-49.933-44-27.554 0-49.929 20.6-49.929 44a36.559 36.559 0 0 0 3.945 16.5c7.573-7.106 25.319-12.076 45.984-12.076" transform="translate(-1.392 13.291)" style="fill:#e1e1e1"/>
                    <path data-name="패스 50350" d="M51.37 61.949c20.615 0 38.312 4.921 45.862 11.956a35.888 35.888 0 0 0 3.935-16.335c0-23.165-22.288-43.654-49.8-43.652-27.479 0-49.793 20.487-49.793 43.656a35.973 35.973 0 0 0 3.938 16.331c7.552-7.035 25.25-11.956 45.858-11.956" transform="translate(-1.329 13.51)" style="fill:#e1e1e1"/>
                    <path data-name="패스 50351" d="M51.3 61.787c20.558 0 38.207 4.87 45.735 11.838a35.314 35.314 0 0 0 3.926-16.173c0-22.937-22.227-43.31-49.661-43.31-27.4 0-49.657 20.375-49.657 43.312a35.454 35.454 0 0 0 3.924 16.171C13.1 66.657 30.75 61.787 51.3 61.787" transform="translate(-1.265 13.727)" style="fill:#e1e1e1"/>
                    <path data-name="패스 50352" d="M51.229 61.624c20.5 0 38.1 4.82 45.609 11.718a34.743 34.743 0 0 0 3.916-16.01c0-22.706-22.164-42.965-49.525-42.965-27.329 0-49.521 20.261-49.521 42.967a34.874 34.874 0 0 0 3.914 16.007c7.51-6.9 25.114-11.718 45.607-11.718" transform="translate(-1.202 13.946)" style="fill:#e1e1e1"/>
                    <path data-name="패스 50353" d="M51.159 61.461c20.444 0 38 4.771 45.485 11.6a34.185 34.185 0 0 0 3.9-15.846c0-22.476-22.1-42.62-49.389-42.62-27.252 0-49.385 20.144-49.385 42.622a34.321 34.321 0 0 0 3.9 15.844c7.491-6.826 25.045-11.6 45.483-11.6" transform="translate(-1.137 14.164)" style="fill:#e1e1e1"/>
                    <path data-name="패스 50354" d="M51.089 61.3c20.389 0 37.9 4.72 45.359 11.479a33.627 33.627 0 0 0 3.892-15.685c0-22.247-22.04-42.275-49.251-42.275-27.178 0-49.249 20.03-49.249 42.275a33.764 33.764 0 0 0 3.892 15.684C13.2 66.018 30.708 61.3 51.089 61.3" transform="translate(-1.073 14.383)" style="fill:#e1e1e1"/>
                    <path data-name="패스 50355" d="M51.017 61.136c20.331 0 37.794 4.67 45.233 11.359a33.061 33.061 0 0 0 3.882-15.521c0-22.016-21.977-41.932-49.115-41.932-27.1 0-49.111 19.916-49.111 41.932A33.194 33.194 0 0 0 5.786 72.5c7.447-6.688 24.907-11.359 45.231-11.359" transform="translate(-1.009 14.601)" style="fill:#e1e1e1"/>
                    <path data-name="패스 50356" d="M50.947 60.973c20.274 0 37.689 4.621 45.109 11.239a32.52 32.52 0 0 0 3.87-15.357c0-21.788-21.916-41.587-48.979-41.587-27.028 0-48.975 19.8-48.975 41.587A32.651 32.651 0 0 0 5.84 72.212c7.427-6.618 24.838-11.239 45.107-11.239" transform="translate(-.945 14.819)" style="fill:#e1e1e1"/>
                    <path data-name="패스 50357" d="M50.876 60.81c20.219 0 37.585 4.57 44.983 11.121a31.975 31.975 0 0 0 3.861-15.2c0-21.557-21.855-41.242-48.843-41.242-26.953 0-48.839 19.685-48.839 41.242A32.1 32.1 0 0 0 5.9 71.93c7.4-6.55 24.765-11.12 44.976-11.12" transform="translate(-.882 15.038)" style="fill:#e1e1e1"/>
                    <path data-name="패스 50358" d="M50.844 60.737c20.192 0 37.533 4.542 44.922 11.048a31.659 31.659 0 0 0 3.855-15.1C99.62 35.272 77.8 15.7 50.844 15.7 23.927 15.7 2.07 35.272 2.07 56.687a31.786 31.786 0 0 0 3.853 15.1c7.4-6.505 24.738-11.048 44.922-11.048" transform="translate(-.85 15.239)" style="fill:#e2e2e2"/>
                    <path data-name="패스 50359" d="M50.813 60.662c20.164 0 37.482 4.513 44.86 10.977a31.329 31.329 0 0 0 3.851-15c0-21.275-21.8-40.734-48.711-40.734C23.931 15.906 2.1 35.364 2.1 56.64a31.433 31.433 0 0 0 3.849 15c7.388-6.464 24.7-10.977 44.86-10.977" transform="translate(-.817 15.44)" style="fill:#e3e3e3"/>
                    <path data-name="패스 50360" d="M50.78 60.589c20.136 0 37.431 4.483 44.8 10.9a30.991 30.991 0 0 0 3.845-14.9c0-21.135-21.768-40.482-48.644-40.482-26.847 0-48.642 19.346-48.642 40.482a31.092 31.092 0 0 0 3.841 14.9c7.38-6.42 24.673-10.9 44.8-10.9" transform="translate(-.784 15.641)" style="fill:#e4e4e4"/>
                    <path data-name="패스 50361" d="M50.748 60.515c20.109 0 37.378 4.454 44.738 10.833a30.672 30.672 0 0 0 3.841-14.8c0-20.994-21.741-40.227-48.579-40.227-26.811 0-48.577 19.234-48.577 40.227a30.792 30.792 0 0 0 3.835 14.8c7.37-6.379 24.639-10.831 44.742-10.833" transform="translate(-.752 15.84)" style="fill:#e5e5e5"/>
                    <path data-name="패스 50362" d="M50.716 60.442c20.081 0 37.327 4.424 44.677 10.76a30.359 30.359 0 0 0 3.835-14.7c0-20.854-21.711-39.973-48.512-39.973C23.941 16.527 2.2 35.646 2.2 56.5a30.449 30.449 0 0 0 3.835 14.7c7.36-6.338 24.606-10.76 44.681-10.762" transform="translate(-.72 16.042)" style="fill:#e6e6e6"/>
                    <path data-name="패스 50363" d="M50.683 60.368c20.054 0 37.275 4.4 44.618 10.689a30.053 30.053 0 0 0 3.827-14.6c0-20.714-21.679-39.721-48.445-39.721-26.74 0-48.445 19.007-48.445 39.719a30.131 30.131 0 0 0 3.823 14.6c7.351-6.292 24.574-10.687 44.622-10.689" transform="translate(-.687 16.242)" style="fill:#e7e7e7"/>
                    <path data-name="패스 50364" d="M50.651 60.295c20.026 0 37.224 4.367 44.557 10.616a29.724 29.724 0 0 0 3.823-14.5c0-20.572-21.652-39.467-48.38-39.467-26.7 0-48.38 18.895-48.38 39.467A29.8 29.8 0 0 0 6.09 70.913c7.341-6.251 24.541-10.613 44.561-10.618" transform="translate(-.655 16.443)" style="fill:#e8e8e8"/>
                    <path data-name="패스 50365" d="M50.619 60.22c20 0 37.173 4.337 44.5 10.545a29.407 29.407 0 0 0 3.813-14.405c0-20.432-21.622-39.213-48.313-39.213C23.95 17.147 2.3 35.928 2.3 56.36a29.487 29.487 0 0 0 3.817 14.405c7.333-6.208 24.507-10.543 44.5-10.545" transform="translate(-.623 16.644)" style="fill:#e9e9e9"/>
                    <path data-name="패스 50366" d="M50.586 60.146c19.971 0 37.12 4.308 44.435 10.472a29.1 29.1 0 0 0 3.811-14.305c0-20.294-21.593-38.96-48.246-38.96-26.634 0-48.248 18.668-48.248 38.958A29.145 29.145 0 0 0 6.145 70.62c7.321-6.166 24.474-10.472 44.441-10.474" transform="translate(-.59 16.844)" style="fill:#eaeaea"/>
                    <path data-name="패스 50367" d="M50.554 60.073c19.943 0 37.068 4.28 44.374 10.4a28.787 28.787 0 0 0 3.807-14.209c0-20.152-21.565-38.706-48.181-38.706-26.6 0-48.183 18.556-48.183 38.706a28.85 28.85 0 0 0 3.8 14.211c7.313-6.123 24.442-10.4 44.382-10.4" transform="translate(-.558 17.045)" style="fill:#ebebeb"/>
                    <path data-name="패스 50368" d="M50.522 60c19.918 0 37.017 4.251 44.313 10.33a28.474 28.474 0 0 0 3.8-14.11c0-20.012-21.536-38.452-48.114-38.452S2.4 36.209 2.4 56.219a28.523 28.523 0 0 0 3.8 14.11C13.5 64.249 30.61 60 50.522 60" transform="translate(-.526 17.246)" style="fill:#ececec"/>
                    <path data-name="패스 50369" d="M50.49 59.926c19.89 0 36.964 4.221 44.252 10.257a28.188 28.188 0 0 0 3.794-14.01c0-19.872-21.5-38.2-48.045-38.2S2.439 36.3 2.439 56.172a28.212 28.212 0 0 0 3.79 14.013c7.293-6.038 24.377-10.255 44.261-10.259" transform="translate(-.492 17.447)" style="fill:#ededed"/>
                    <path data-name="패스 50370" d="M50.458 59.851c19.862 0 36.915 4.192 44.19 10.186a27.862 27.862 0 0 0 3.792-13.913c0-19.73-21.478-37.943-47.982-37.943S2.472 36.4 2.472 56.124a27.9 27.9 0 0 0 3.784 13.915c7.286-6 24.346-10.184 44.2-10.188" transform="translate(-.46 17.648)" style="fill:#eee"/>
                    <path data-name="패스 50371" d="M50.426 59.778c19.835 0 36.861 4.162 44.129 10.114a27.535 27.535 0 0 0 3.786-13.812c0-19.59-21.449-37.691-47.915-37.691S2.505 36.491 2.505 56.079a27.574 27.574 0 0 0 3.78 13.814C13.56 63.94 30.6 59.782 50.426 59.778" transform="translate(-.428 17.849)" style="fill:#efefef"/>
                    <path data-name="패스 50372" d="M50.394 59.7c19.807 0 36.81 4.134 44.068 10.043a27.227 27.227 0 0 0 3.78-13.714c0-19.451-21.419-37.439-47.848-37.439S2.538 36.584 2.538 56.031a27.268 27.268 0 0 0 3.774 13.718c7.266-5.91 24.279-10.041 44.082-10.045" transform="translate(-.396 18.049)" style="fill:#f0f0f0"/>
                    <path data-name="패스 50373" d="M50.361 59.63c19.78 0 36.759 4.1 44.007 9.97a26.926 26.926 0 0 0 3.776-13.615c0-19.309-21.392-37.183-47.783-37.183S2.572 36.678 2.572 55.985A26.941 26.941 0 0 0 6.338 69.6c7.258-5.867 24.247-9.966 44.023-9.972" transform="translate(-.363 18.251)" style="fill:#f0f0f0"/>
                    <path data-name="패스 50374" d="M50.329 59.557c19.752 0 36.708 4.075 43.946 9.9a26.621 26.621 0 0 0 3.77-13.517c0-19.169-21.362-36.93-47.716-36.93S2.605 36.772 2.605 55.938a26.643 26.643 0 0 0 3.762 13.519c7.248-5.825 24.214-9.895 43.962-9.9" transform="translate(-.331 18.451)" style="fill:#f1f1f1"/>
                    <path data-name="패스 50375" d="M50.3 59.483c19.725 0 36.655 4.046 43.885 9.826a26.307 26.307 0 0 0 3.766-13.416c0-19.029-21.335-36.678-47.651-36.678S2.638 36.865 2.638 55.89a26.341 26.341 0 0 0 3.756 13.423c7.238-5.784 24.182-9.824 43.9-9.83" transform="translate(-.299 18.651)" style="fill:#f2f2f2"/>
                    <path data-name="패스 50376" d="M50.264 59.409c19.7 0 36.6 4.018 43.824 9.755a26.007 26.007 0 0 0 3.76-13.32c0-18.887-21.3-36.422-47.584-36.422S2.672 36.959 2.672 55.844a26.026 26.026 0 0 0 3.75 13.322c7.228-5.739 24.147-9.751 43.842-9.757" transform="translate(-.266 18.852)" style="fill:#f3f3f3"/>
                    <path data-name="패스 50377" d="M50.232 59.335c19.669 0 36.552 3.989 43.763 9.684A25.725 25.725 0 0 0 97.749 55.8c0-18.747-21.275-36.17-47.517-36.17S2.705 37.053 2.705 55.8a25.721 25.721 0 0 0 3.744 13.221c7.219-5.7 24.115-9.68 43.783-9.686" transform="translate(-.234 19.052)" style="fill:#f4f4f4"/>
                    <path data-name="패스 50378" d="M50.2 59.262c19.642 0 36.5 3.959 43.7 9.611a25.432 25.432 0 0 0 3.748-13.121c0-18.607-21.248-35.918-47.452-35.918S2.738 37.147 2.738 55.751a25.424 25.424 0 0 0 3.74 13.127c7.209-5.656 24.082-9.609 43.721-9.615" transform="translate(-.202 19.253)" style="fill:#f5f5f5"/>
                    <path data-name="패스 50379" d="M50.168 59.188c19.612 0 36.45 3.93 43.641 9.54A25.12 25.12 0 0 0 97.553 55.7c0-18.465-21.22-35.661-47.385-35.661S2.773 37.24 2.773 55.7a25.093 25.093 0 0 0 3.732 13.03c7.2-5.612 24.05-9.536 43.662-9.542" transform="translate(-.168 19.454)" style="fill:#f6f6f6"/>
                    <path data-name="패스 50380" d="M50.136 59.115c19.587 0 36.4 3.9 43.582 9.467a24.828 24.828 0 0 0 3.736-12.924c0-18.325-21.189-35.409-47.318-35.409S2.806 37.335 2.806 55.656a24.83 24.83 0 0 0 3.727 12.93c7.191-5.571 24.017-9.463 43.6-9.471" transform="translate(-.136 19.655)" style="fill:#f7f7f7"/>
                    <path data-name="패스 50381" d="M50.1 59.041c19.561 0 36.345 3.872 43.52 9.4a24.553 24.553 0 0 0 3.732-12.825c0-18.187-21.161-35.157-47.253-35.157S2.839 37.428 2.839 55.61a24.507 24.507 0 0 0 3.723 12.829c7.181-5.526 23.983-9.39 43.542-9.4" transform="translate(-.104 19.855)" style="fill:#f8f8f8"/>
                    <path data-name="패스 50382" d="M50.071 58.967c19.533 0 36.294 3.843 43.459 9.323a24.244 24.244 0 0 0 3.727-12.727c0-18.045-21.132-34.9-47.186-34.9-26.07 0-47.2 16.859-47.2 34.9a24.23 24.23 0 0 0 3.717 12.731c7.173-5.484 23.952-9.319 43.483-9.327" transform="translate(-.071 20.057)" style="fill:#f9f9f9"/>
                    <path data-name="패스 50383" d="M50.039 58.893c19.506 0 36.243 3.813 43.4 9.252a23.947 23.947 0 0 0 3.721-12.628c0-17.906-21.1-34.648-47.119-34.648C24 20.869 2.906 37.616 2.906 55.515a23.924 23.924 0 0 0 3.711 12.634c7.161-5.443 23.918-9.248 43.422-9.256" transform="translate(-.039 20.257)" style="fill:#fafafa"/>
                    <path data-name="패스 50384" d="M50.007 58.819C69.485 58.819 86.2 62.6 93.344 68a23.665 23.665 0 0 0 3.716-12.529c0-17.766-21.074-34.394-47.054-34.394-26 0-47.068 16.633-47.068 34.392A23.639 23.639 0 0 0 6.644 68c7.154-5.4 23.887-9.175 43.363-9.183" transform="translate(-.007 20.459)" style="fill:#fbfbfb"/>
                    <path data-name="패스 50385" d="M49.974 58.746c19.451 0 36.138 3.756 43.276 9.108a23.377 23.377 0 0 0 3.71-12.431c0-17.624-21.045-34.14-46.987-34.14-25.964 0-47 16.52-47 34.14a23.348 23.348 0 0 0 3.7 12.435c7.146-5.356 23.855-9.1 43.3-9.112" transform="translate(.026 20.659)" style="fill:#fcfcfc"/>
                    <path data-name="패스 50386" d="M49.942 58.672c19.423 0 36.087 3.727 43.215 9.038a23.09 23.09 0 0 0 3.7-12.332c0-17.484-21.015-33.888-46.92-33.888C24.013 21.489 3.006 37.9 3.006 55.375A23.036 23.036 0 0 0 6.7 67.711c7.134-5.313 23.82-9.03 43.243-9.039" transform="translate(.058 20.859)" style="fill:#fdfdfd"/>
                    <path data-name="패스 50387" d="M49.91 58.6c19.4 0 36.036 3.7 43.154 8.965a22.8 22.8 0 0 0 3.7-12.232c0-17.346-20.987-33.633-46.854-33.633-25.893 0-46.871 16.291-46.871 33.629a22.763 22.763 0 0 0 3.687 12.237c7.126-5.272 23.788-8.959 43.183-8.969" transform="translate(.09 21.061)" style="fill:#fefefe"/>
                    <path data-name="패스 50388" d="M49.878 58.524c19.368 0 35.985 3.667 43.093 8.894a22.529 22.529 0 0 0 3.7-12.135c0-17.2-20.958-33.379-46.788-33.379C24.02 21.9 3.072 38.084 3.072 55.282a22.464 22.464 0 0 0 3.683 12.14c7.116-5.23 23.755-8.888 43.122-8.9" transform="translate(.122 21.261)" style="fill:#fff"/>
                </g>
            </g>
        </g>
    </g>
</svg>
