<svg xmlns="http://www.w3.org/2000/svg" width="50" height="50" viewBox="0 0 50 50">
    <defs>
        <clipPath id="l89fu6gr2a">
            <path data-name="사각형 23725" style="stroke:#000;stroke-linejoin:bevel;fill:none" d="M0 0h37.151v45.288H0z"/>
        </clipPath>
    </defs>
    <g data-name="그룹 84012">
        <g data-name="그룹 83277" transform="translate(6.87 2.28)" style="clip-path:url(#l89fu6gr2a)">
            <path data-name="패스 60096" d="M32.056 30.384v-12.5A13.687 13.687 0 0 0 20.3 4.489l-.609-.081V0h-2.234v4.41l-.611.08a13.686 13.686 0 0 0-11.753 13.4v13.117a5.128 5.128 0 0 1-1.143 3.51 3.715 3.715 0 0 1-2.85 1.211H0v3.686h14.862l-.206.874a3.989 3.989 0 0 0-.113.929 4.056 4.056 0 0 0 4.018 4.07 3.988 3.988 0 0 0 2.84-1.149A4.039 4.039 0 0 0 22.6 41.3a4.083 4.083 0 0 0-.114-1.012l-.2-.875h14.87V35.73h-1.131a3.438 3.438 0 0 1-2.774-1.223l.289-.254-.31.231a6.327 6.327 0 0 1-1.172-4.1M18.579 43.019a1.811 1.811 0 1 1 1.783-1.811 1.787 1.787 0 0 1-1.783 1.811m-13.96-5.831.988-1.168a7.3 7.3 0 0 0 1.723-4.984V17.885A11.323 11.323 0 0 1 18.408 6.6h.322a11.326 11.326 0 0 1 11.092 11.274v12.562a8.419 8.419 0 0 0 1.735 5.534l1.043 1.224z" style="stroke:#000;stroke-linejoin:bevel"/>
        </g>
        <path data-name="사각형 23074" style="fill:none" d="M0 0h50v50H0z"/>
    </g>
</svg>
