<svg data-name="그룹 67499" xmlns="http://www.w3.org/2000/svg" width="482" height="62" viewBox="0 0 482 62">
    <defs>
        <clipPath id="3ji0yygkra">
            <path data-name="사각형 17552" style="fill:#08f" d="M0 0h473.569v62H0z"/>
        </clipPath>
        <clipPath id="uo31cc0ztb">
            <path data-name="사각형 17553" style="fill:#08f" d="M0 0h279.342v60.124H0z"/>
        </clipPath>
    </defs>
    <g data-name="그룹 66863">
        <g data-name="그룹 66862" style="clip-path:url(#3ji0yygkra)">
            <path data-name="패스 50964" d="m25.8 40.452-4.319 8.291h39.63l-5.634 10.813H0l13.343-19.1zM23.232 36.7a8.043 8.043 0 0 1-4.032-3.53 7.922 7.922 0 0 1-.945-5.694 26.731 26.731 0 0 1 2.927-8.076 40.631 40.631 0 0 1 2.48-4.145 31.159 31.159 0 0 1 2.967-3.712 35.7 35.7 0 0 1 3.181-3.1 31.49 31.49 0 0 1 7.369-4.721 34.959 34.959 0 0 1 4.011-1.55 31.108 31.108 0 0 1 3.956-.9A26.168 26.168 0 0 1 49.3.945a19.992 19.992 0 0 1 3.709.325 16.144 16.144 0 0 1 3.124.9 10.038 10.038 0 0 1 2.287 1.549 8.9 8.9 0 0 1 1.67 2.057 11.447 11.447 0 0 1 .71 2.667 16.167 16.167 0 0 1 .128 3.1 21.49 21.49 0 0 1-.937 3.712 30.221 30.221 0 0 1-1.8 4.145 38.68 38.68 0 0 1-5.523 8.075 29.952 29.952 0 0 1-6.846 5.694 32.348 32.348 0 0 1-7.789 3.531 27.987 27.987 0 0 1-7.966 1.155 17.5 17.5 0 0 1-6.835-1.155m14.031-10.811a8.8 8.8 0 0 0 1.325-.288 4.805 4.805 0 0 0 1.22-.36 11.132 11.132 0 0 0 1.406-.72 7.1 7.1 0 0 0 1.252-.83q.673-.541 1.368-1.19a12.4 12.4 0 0 0 1.157-1.333 12.61 12.61 0 0 0 1.1-1.767 8.748 8.748 0 0 0 .668-1.621 7.528 7.528 0 0 0 .271-1.406 7.5 7.5 0 0 0-.185-1.081 5.451 5.451 0 0 0-.33-.936 20.29 20.29 0 0 0-.731-.578 7.181 7.181 0 0 0-.769-.5c-.377-.1-.724-.181-1.043-.253a4.106 4.106 0 0 0-.9-.109 7 7 0 0 0-1.194.109q-.627.108-1.2.253a10.709 10.709 0 0 0-1.4.5c-.433.192-.843.386-1.227.578a14.281 14.281 0 0 0-1.378.936 8.545 8.545 0 0 0-1.173 1.08 9.228 9.228 0 0 0-1.232 1.406 13.812 13.812 0 0 0-.987 1.621 12.319 12.319 0 0 0-.778 1.767 3.231 3.231 0 0 0-.2 1.333 3.049 3.049 0 0 0-.016 1.19 1.389 1.389 0 0 0 .456.83 2.01 2.01 0 0 0 .55.72 1.773 1.773 0 0 0 .951.36 2.53 2.53 0 0 0 .917.288 7.537 7.537 0 0 0 2.1 0m14.293 15.934L72.479 1.667h12.452L64.006 41.822z" transform="translate(0 .137)" style="fill:#08f"/>
            <path data-name="패스 50965" d="M81.365 61.709q-3.912 0-7.075-.144a53.916 53.916 0 0 1-5.537-.5 36.8 36.8 0 0 1-4.282-.865 8.936 8.936 0 0 1-2.918-1.3 4.468 4.468 0 0 1-1.876-1.586 4.386 4.386 0 0 1-.657-2.019 5.171 5.171 0 0 1 .152-2.271 13.841 13.841 0 0 1 1.128-2.779 17.15 17.15 0 0 1 1.654-2.559 17.643 17.643 0 0 1 2.29-2.414 15.685 15.685 0 0 1 2.812-1.983 28.828 28.828 0 0 1 3.655-1.689 42.7 42.7 0 0 1 4.361-1.334q2.416-.611 5.277-1.045 2.748-.359 6.028-.577t7.122-.217q3.7 0 6.79.217t5.536.577a27.752 27.752 0 0 1 4.08 1.045 18.4 18.4 0 0 1 3.005 1.334 7.694 7.694 0 0 1 1.821 1.694 4.966 4.966 0 0 1 .888 1.983 9.04 9.04 0 0 1-.262 2.414 11.124 11.124 0 0 1-.977 2.559 16.846 16.846 0 0 1-1.8 2.776 17.441 17.441 0 0 1-2.18 2.271 19.618 19.618 0 0 1-2.9 2.019 21.018 21.018 0 0 1-3.46 1.586 29.431 29.431 0 0 1-4.377 1.3q-2.326.5-5.076.865-2.823.36-6.1.5t-7.12.144m42.25-25.089H64.765l4.883-9.371H128.5zM86.061 52.7q3.7 0 6.354-.109a33.646 33.646 0 0 0 4.3-.4 8.3 8.3 0 0 0 2.421-.685 2.929 2.929 0 0 0 1.369-1.262.792.792 0 0 0-.183-1.081 5.154 5.154 0 0 0-1.759-.792q-1.381-.216-3.849-.4t-6.1-.18q-3.771 0-6.427.18t-4.192.4a13.125 13.125 0 0 0-2.619.792 2.584 2.584 0 0 0-1.276 1.082 1.029 1.029 0 0 0 .018 1.262 3.221 3.221 0 0 0 1.814.685 21.351 21.351 0 0 0 3.742.4q2.54.11 6.384.109m49.251-50.68L133.134 6.2a16.918 16.918 0 0 1-1.846 2.38 26.533 26.533 0 0 1-2.338 2.235q-1.347 1.081-2.778 2.054t-2.88 1.839a16.529 16.529 0 0 0 1.735.359q.918.146 1.911.29 1.34.433 2.859.864t3.177.938l-8.024 8.435q-1.376-.5-2.767-.974t-2.875-.9q-1.63-.288-3.186-.577t-3.154-.5q-1.632-.142-3.248-.252t-3.181-.109a4.177 4.177 0 0 1-.75.072h-.639a3.992 3.992 0 0 1-.714.072h-.6a53.433 53.433 0 0 1-6.372 1.369q-3.29.506-6.744.722-3.817.362-7.524.576t-7.159.29l1.318-9.084Q84.119 16 89.8 15.606t10.469-.973a66.6 66.6 0 0 0 7.86-1.153 23.142 23.142 0 0 0 5.313-1.73H83.418l5.072-9.733z" transform="translate(7.635 .291)" style="fill:#08f"/>
            <path data-name="패스 50966" d="M112.9 48.074q3.489-2.594 6.546-5.119t5.793-4.9q2.514-2.235 4.931-4.685t4.623-5.048q2.13-2.449 4.164-5.262t4.006-5.912q1.86-3.03 3.863-6.6t4.143-7.677h12.6q-2.592 4.974-5.06 9.3t-4.739 8q-1.227 1.946-2.486 3.749t-2.518 3.532q1.071 2.451 1.931 4.829t1.508 4.687a50.887 50.887 0 0 1 .867 5.3 55.122 55.122 0 0 1 .328 5.516l-13.211 8.145q-.066-1.514-.1-2.956t-.172-2.812c-.117-.865-.274-1.705-.464-2.522s-.37-1.658-.535-2.524a6.793 6.793 0 0 1-.4-1.08c-.11-.384-.206-.768-.289-1.153a7.082 7.082 0 0 1-.4-1.081q-.163-.577-.287-1.155-1.318 1.3-2.578 2.488t-2.463 2.27q-3.175 2.813-6.774 5.623t-7.665 5.7zm54.634-17.446-1.036.144a6.363 6.363 0 0 1-.926.072 5.445 5.445 0 0 1-.821.072h-.639a11.586 11.586 0 0 1-1.927.145h-5.693l6.008-11.534h10.816l9.354-17.951h12.453l-30.278 58.106h-12.453z" transform="translate(14.622 .228)" style="fill:#08f"/>
        </g>
    </g>
    <g data-name="그룹 66864">
        <g data-name="그룹 66865" transform="translate(202.658 1.145)" style="clip-path:url(#uo31cc0ztb)">
            <path data-name="패스 50971" d="M10.3 57.962a14.657 14.657 0 0 1-6.512-1.226 6.2 6.2 0 0 1-3.273-3.749 10.332 10.332 0 0 1-.234-5.7 29.106 29.106 0 0 1 2.878-7.57A40.5 40.5 0 0 1 8.1 32.3a35.781 35.781 0 0 1 6.244-5.837 25.917 25.917 0 0 1 7.093-3.713 24.577 24.577 0 0 1 7.881-1.262 13.2 13.2 0 0 1 6.21 1.262 7.167 7.167 0 0 1 3.366 3.713 11.986 11.986 0 0 1 .23 5.837 26.412 26.412 0 0 1-2.73 7.427 41.3 41.3 0 0 1-5.012 7.57 33.823 33.823 0 0 1-6.1 5.7 25.718 25.718 0 0 1-7.182 3.739 24.8 24.8 0 0 1-7.8 1.226m37.466-38.569H12.827l5.6-10.742h10.884L33.819 0h13.164l-4.506 8.651h10.886zM15.94 47.148a5.569 5.569 0 0 0 2.076-.433 10.776 10.776 0 0 0 2.349-1.37 13.111 13.111 0 0 0 2.181-2.271 22.5 22.5 0 0 0 2.1-3.352 16.249 16.249 0 0 0 1.316-3.208 6.646 6.646 0 0 0 .262-2.416 2.993 2.993 0 0 0-.941-1.333 2.569 2.569 0 0 0-1.606-.47 5.749 5.749 0 0 0-2.2.47 9.386 9.386 0 0 0-2.224 1.335 12.457 12.457 0 0 0-2.362 2.416 23.438 23.438 0 0 0-1.991 3.207 19.264 19.264 0 0 0-1.427 3.352 4.084 4.084 0 0 0-.151 2.271 1.889 1.889 0 0 0 .817 1.37 3.265 3.265 0 0 0 1.8.433m58.785-26.1-6.5 12.473c-.284 0-.6.011-.942.035s-.721.062-1.125.109a10.16 10.16 0 0 0-1.175.071 10.593 10.593 0 0 1-1.248.072q-1.323.216-2.537.434t-2.326.431l-13.11 25.16H32.6L62.838 1.8H76L65.3 22.348q1.145-.287 2.382-.541t2.627-.468a11.245 11.245 0 0 0 1.283-.072 10.611 10.611 0 0 1 1.141-.072c.4-.048.767-.082 1.088-.109s.622-.035.907-.035m35.1-19.213a12.44 12.44 0 0 1 2.938 1.119 7.219 7.219 0 0 1 1.829 2.091 9.659 9.659 0 0 1 1.059 2.881 20.325 20.325 0 0 1-.055 3.931 29.36 29.36 0 0 1-.932 4.792q-.859 2.743-2.229 5.985t-3.323 6.993q-2.03 3.895-4.059 7.174t-3.956 5.874a57.456 57.456 0 0 1-4.119 4.9A53.909 53.909 0 0 1 93 51.4a37.679 37.679 0 0 1-4.1 2.956 22.233 22.233 0 0 1-3.939 1.944 23.682 23.682 0 0 1-4.123 1.153 22.417 22.417 0 0 1-4 .36 17.451 17.451 0 0 1-3.761-.36A7.776 7.776 0 0 1 70.3 56.3a5.352 5.352 0 0 1-2.082-1.946 6.852 6.852 0 0 1-.915-2.956 11.592 11.592 0 0 1-.072-3.82 28.494 28.494 0 0 1 1.132-4.9A44.445 44.445 0 0 1 70.5 36.8q1.425-3.28 3.453-7.174 1.954-3.747 3.928-6.993t4.044-5.985a61.742 61.742 0 0 1 3.921-4.792 38.938 38.938 0 0 1 4.114-3.927 29.628 29.628 0 0 1 3.956-2.881A28.58 28.58 0 0 1 98.1 2.957a25.44 25.44 0 0 1 3.961-1.119 21.7 21.7 0 0 1 4.154-.4 15.224 15.224 0 0 1 3.6.4m-11 11.679q-.627.182-1.166.4a8.361 8.361 0 0 0-1.467.9 12.207 12.207 0 0 0-1.515 1.406 16.623 16.623 0 0 0-1.785 2.126q-.906 1.262-1.908 2.775-1.152 1.66-2.364 3.784t-2.557 4.722q-1.43 2.741-2.43 4.866a33.8 33.8 0 0 0-1.506 3.641q-.651 1.66-1.04 2.883a7.836 7.836 0 0 0-.413 2.093 4.506 4.506 0 0 0 .03 1.441 1.067 1.067 0 0 0 .584.793 1.109 1.109 0 0 0 .715.469 4.831 4.831 0 0 0 1.048.109 5.3 5.3 0 0 0 .982-.109 5.684 5.684 0 0 0 1.311-.469 5.954 5.954 0 0 0 1.3-.793 17.33 17.33 0 0 0 1.641-1.441q.735-.867 1.694-2.093t2.108-2.883q1-1.514 2.253-3.641t2.677-4.866q1.354-2.594 2.319-4.723t1.615-3.784q.5-1.514.841-2.775t.5-2.126a4.271 4.271 0 0 0-.158-1.406 3.875 3.875 0 0 0-.419-.9c-.306-.144-.593-.276-.862-.4a2.041 2.041 0 0 0-.831-.18 4.385 4.385 0 0 0-1.2.18m-.047 46.319L129.017 1.8h13.163l-30.239 58.036zm48.142-46.643h-2.7l5.635-10.814h28.464l-5.635 10.814H169.9l-17.052 32.732h2.775l-5.633 10.812h-28.465l5.634-10.813h2.705zm-3.748 32.731 17.055-32.731H156.6l-17.059 32.732zm38.311-12.617q-1.039.216-2.146.433a11.368 11.368 0 0 1-2.177.216l-13.625 26.169h-11.313L182.6 1.8h11.314l-10.37 19.9h3.986L197.9 1.8h11.243L178.75 60.124h-11.242zm3.634 25.665 6.011-11.535 29.783-.054c9.815-.017 19.666.5 29.458-.439 10.192-.98 19.239-4.678 28.974-7.517a53.184 53.184 0 0 1-4.335 6.08c-8.2 9.72-12.167 10.956-25.029 12.55 0 0-8.546.578-19.432.732-19.108.269-45.43.183-45.43.183m14.968-27.611a111.492 111.492 0 0 0 12.577-5.767 101.011 101.011 0 0 0 11-6.848 60.551 60.551 0 0 0 8.859-7.715 45.646 45.646 0 0 0 6.429-8.651h13.307q-1.721 3.028-3.683 5.839a62.575 62.575 0 0 1-4.24 5.408q2.223 1.874 4.218 3.784a37.534 37.534 0 0 1 3.575 3.928q1.435 2.163 2.895 4.686a57.879 57.879 0 0 1 2.8 5.551l-13.43 9.66a44.378 44.378 0 0 0-2.344-5.334 48.639 48.639 0 0 0-2.892-4.831q-1.621-1.8-3.213-3.459a40.02 40.02 0 0 0-3.33-3.1l-1.419 1.08q-3.378 2.525-6.909 4.794T217.1 34.6q-3.865 2.092-7.629 3.785T202 41.453z" style="fill:#08f"/>
        </g>
    </g>
</svg>
