<svg xmlns="http://www.w3.org/2000/svg" width="50" height="50" viewBox="0 0 50 50">
    <defs>
        <clipPath id="24dwyqbdfa">
            <path data-name="사각형 24867" style="fill:none" d="M0 0h39.472v39.421H0z"/>
        </clipPath>
    </defs>
    <g data-name="그룹 82873">
        <g data-name="그룹 83629" transform="translate(5.265 5.29)" style="clip-path:url(#24dwyqbdfa)">
            <path data-name="패스 60568" d="M39.337 8.775A9.9 9.9 0 0 0 32.416.606 11.178 11.178 0 0 0 28.885 0a9.871 9.871 0 0 0-6.929 2.979C20.53 4.33 19.14 5.77 17.795 7.163c-.831.861-1.662 1.722-2.507 2.57a10.143 10.143 0 0 0-3.14 8.541 10.092 10.092 0 0 0 4.266 7.513 18.122 18.122 0 0 0 2.577-3.087l.01-.015-.014-.01a6.04 6.04 0 0 1-2.852-5.039 5.8 5.8 0 0 1 1.811-4.359 624.1 624.1 0 0 1 7.282-7.481 5.59 5.59 0 0 1 5.07-1.6 5.76 5.76 0 0 1 4.772 4.075 5.846 5.846 0 0 1-1.434 6.143c-.956 1.01-1.931 2-2.911 2.989a.359.359 0 0 0-.074.094.373.373 0 0 0 .023.112 14.875 14.875 0 0 1 .63 5.371l.428-.438q2.411-2.458 4.816-4.92A10.157 10.157 0 0 0 39.21 12.7c.075-.333.131-.671.189-1.009l.072-.416-.037-1.936c-.031-.189-.062-.379-.1-.567"/>
            <path data-name="패스 60569" d="M22.984 13.681a10.061 10.061 0 0 0-2.552 3 3 3 0 0 1-.044.085l.1.069a5.908 5.908 0 0 1 2.766 5.823A5.74 5.74 0 0 1 21.6 26.04c-2.628 2.758-5 5.241-7.47 7.694a6.008 6.008 0 0 1-10-3.413 6 6 0 0 1 1.521-5.113c.891-.965 1.826-1.908 2.731-2.821l.347-.349a.329.329 0 0 0 .06-.074.53.53 0 0 0-.023-.1 13.456 13.456 0 0 1-.62-3.861c0-.518.011-1.037.029-1.559l-.82.83a238.38 238.38 0 0 0-4.5 4.625 10.029 10.029 0 0 0-2.7 8.847 10.047 10.047 0 0 0 6.081 7.852 10.328 10.328 0 0 0 10.019-1.093 15.89 15.89 0 0 0 2.056-1.862l.2-.2a415.116 415.116 0 0 0 6.14-6.322 10.37 10.37 0 0 0 1.431-1.9 9.987 9.987 0 0 0 1.175-6.623 10.059 10.059 0 0 0-4.273-6.919"/>
        </g>
        <path data-name="사각형 23001" style="fill:none" d="M0 0h50v50H0z"/>
        <g data-name="그룹 83626">
            <path data-name="사각형 1717" style="fill:none" d="M0 0h50v50H0z"/>
        </g>
    </g>
</svg>
