<svg xmlns="http://www.w3.org/2000/svg" width="66" height="66" viewBox="0 0 66 66">
    <defs>
        <clipPath id="u2pk3bqmea">
            <path data-name="사각형 18068" style="fill:#d5d5d5" d="M0 0h56.745v57.804H0z"/>
        </clipPath>
    </defs>
    <g data-name="그룹 67551">
        <g data-name="그룹 67537" transform="translate(4.627 3.696)" style="clip-path:url(#u2pk3bqmea)">
            <path data-name="패스 51217" d="M49.551 5.557a7.194 7.194 0 0 0-6.684 9.854l-9.627 6.442a8.347 8.347 0 0 0-4.677-2.5v-8.792a5.371 5.371 0 1 0-2.784 0v8.789a8.375 8.375 0 0 0-6.846 6.85h-8.375a5.371 5.371 0 1 0 0 2.784h8.375a8.363 8.363 0 0 0 3.194 5.263l-4.942 9.468A7.212 7.212 0 1 0 19.65 45l4.942-9.468a8.344 8.344 0 0 0 7.578-1.258l5.94 5.663a5.376 5.376 0 1 0 1.921-2.015l-5.94-5.662a8.344 8.344 0 0 0 .7-8.1l9.589-6.416a7.193 7.193 0 1 0 5.171-12.187m-34.4 49.467a4.41 4.41 0 1 1 4.41-4.41 4.415 4.415 0 0 1-4.41 4.41m9.432-49.65a2.587 2.587 0 1 1 2.588 2.586 2.59 2.59 0 0 1-2.587-2.587M5.371 30.175a2.587 2.587 0 1 1 2.587-2.587 2.59 2.59 0 0 1-2.587 2.587M21.6 27.588a5.571 5.571 0 1 1 5.571 5.571 5.577 5.577 0 0 1-5.571-5.571m23.812 14.923a2.587 2.587 0 1 1-2.587-2.587 2.59 2.59 0 0 1 2.587 2.587m4.139-25.35a4.41 4.41 0 1 1 4.41-4.41 4.415 4.415 0 0 1-4.41 4.41" transform="translate(0 -.003)" style="fill:#d5d5d5"/>
        </g>
        <path data-name="사각형 18078" style="fill:none" d="M0 0h66v66H0z"/>
    </g>
</svg>
