<svg xmlns="http://www.w3.org/2000/svg" width="96" height="128" viewBox="0 0 96 128">
    <defs>
        <clipPath id="a">
            <path data-name="사각형 16188" transform="translate(311 512)" style="stroke:#707070;fill:none" d="M0 0h96v128H0z"/>
        </clipPath>
    </defs>
    <g data-name="마스크 그룹 209" transform="translate(-311 -512)" style="clip-path:url(#a)">
        <path data-name="패스 47716" d="M69.681 56.1c-2.885 2.788-8.009 5.926-15.538 9.409-2.081 1.04-3.043 2.091-3.043 3.13v4.182a8.751 8.751 0 0 1-3.842 7.667 13.735 13.735 0 0 1-8.973 2.959 13.692 13.692 0 0 1-8.648-2.612 9.116 9.116 0 0 1-4-8.014l.16-9.06c0-6.792 2.4-11.672 6.888-14.808.8-.522 4.8-2.263 12.177-5.053 4.321-1.566 6.567-4 6.567-7.488 0-6.623-4.325-9.933-12.655-9.933-6.088 0-10.572 3.485-13.3 10.279-2.4 6.1-6.567 9.058-12.493 9.058A12.79 12.79 0 0 1 3.85 42.16 11.179 11.179 0 0 1 0 33.45c0-9.931 4.323-18.118 13.294-24.739A42.111 42.111 0 0 1 38.923 0a39.71 39.71 0 0 1 26.593 9.582c8.009 6.97 12.014 16.03 12.014 27.526 0 7.841-2.723 14.111-7.849 18.988m-21.117 54.352a14.188 14.188 0 0 1-9.619 3.563 13.767 13.767 0 0 1-9.617-3.563 11.22 11.22 0 0 1-3.918-8.668 11.394 11.394 0 0 1 3.918-8.666 13.863 13.863 0 0 1 9.617-3.682 14.3 14.3 0 0 1 9.619 3.682 11.514 11.514 0 0 1 4.036 8.666 11.335 11.335 0 0 1-4.035 8.668" transform="translate(321.155 518.72)" style="stroke:#c6cad2;stroke-width:1.5px;fill:none"/>
    </g>
</svg>
