<svg xmlns="http://www.w3.org/2000/svg" width="387" height="212" viewBox="0 0 387 212">
    <defs>
        <clipPath id="pidoozfuya">
            <path data-name="사각형 18001" transform="translate(307 711)" style="fill:none" d="M0 0h387v212H0z"/>
        </clipPath>
        <clipPath id="8mzdtar3pb">
            <path data-name="사각형 17030" style="fill:none" d="M0 0h215.834v221.583H0z"/>
        </clipPath>
        <clipPath id="2kdijqk1cc">
            <path data-name="사각형 17028" style="fill:none" d="M0 0h126.35v79.951H0z"/>
        </clipPath>
    </defs>
    <g data-name="마스크 그룹 6" transform="translate(-307 -711)" style="clip-path:url(#pidoozfuya)">
        <g data-name="그룹 65501">
            <g data-name="그룹 65500" transform="translate(446.167 693)" style="clip-path:url(#8mzdtar3pb)">
                <g data-name="그룹 65499">
                    <g data-name="그룹 65498" style="clip-path:url(#8mzdtar3pb)">
                        <path data-name="패스 50409" d="M118.752 97.916H96.8a59.593 59.593 0 0 0-59.592 59.593V201.5h141.137v-43.991a59.592 59.592 0 0 0-59.592-59.593" transform="translate(2.207 5.807)" style="fill:#fff"/>
                        <path data-name="패스 50410" d="M178.434 203.175H37.3a1.589 1.589 0 0 1-1.589-1.589V157.6a61.251 61.251 0 0 1 61.182-61.183h21.948a61.251 61.251 0 0 1 61.182 61.183v43.987a1.588 1.588 0 0 1-1.589 1.589M38.889 200h137.956v-42.4a58.069 58.069 0 0 0-58-58H96.893a58.069 58.069 0 0 0-58 58z" transform="translate(2.118 5.718)" style="fill:#1a1a1a"/>
                        <path data-name="패스 50411" d="M179.139 208.387H37.406a4.016 4.016 0 0 1-4-4V199.7a4.015 4.015 0 0 1 4-4h141.733a4.015 4.015 0 0 1 4 4v4.682a4.016 4.016 0 0 1-4 4" transform="translate(1.981 11.606)" style="fill:#f2f2f2"/>
                        <path data-name="패스 50412" d="M179.227 210.065H37.5a5.6 5.6 0 0 1-5.593-5.592v-4.682A5.6 5.6 0 0 1 37.5 194.2h141.727a5.6 5.6 0 0 1 5.592 5.593v4.682a5.6 5.6 0 0 1-5.592 5.592M37.5 197.376a2.417 2.417 0 0 0-2.415 2.415v4.682a2.417 2.417 0 0 0 2.415 2.414h141.727a2.416 2.416 0 0 0 2.414-2.414v-4.682a2.417 2.417 0 0 0-2.414-2.415z" transform="translate(1.892 11.517)" style="fill:#1a1a1a"/>
                        <path data-name="패스 50413" d="M170.882 123.223H44.719a3.368 3.368 0 0 0-3.364 3.535l3.472 70.037a3.368 3.368 0 0 0 3.364 3.2H167.41a3.367 3.367 0 0 0 3.363-3.2l3.473-70.037a3.368 3.368 0 0 0-3.364-3.535" transform="translate(2.452 7.308)" style="fill:#f2f2f2"/>
                        <path data-name="패스 50414" d="M167.5 201.673H48.279a4.955 4.955 0 0 1-4.951-4.712l-3.472-70.036a4.958 4.958 0 0 1 4.951-5.2h126.164a4.956 4.956 0 0 1 4.95 5.2l-3.472 70.036a4.954 4.954 0 0 1-4.951 4.712M44.807 124.9a1.78 1.78 0 0 0-1.778 1.868L46.5 196.8a1.778 1.778 0 0 0 1.776 1.691H167.5a1.778 1.778 0 0 0 1.778-1.691l3.472-70.037a1.778 1.778 0 0 0-1.776-1.868z" transform="translate(2.363 7.219)" style="fill:#1a1a1a"/>
                        <path data-name="패스 50415" d="M112.121 162.582a7.614 7.614 0 1 1-7.614-7.614 7.614 7.614 0 0 1 7.614 7.614" transform="translate(5.747 9.191)" style="fill:#f2f2f2"/>
                        <path data-name="패스 50416" d="M104.6 171.873a9.2 9.2 0 1 1 9.2-9.2 9.214 9.214 0 0 1-9.2 9.2m0-15.228a6.025 6.025 0 1 0 6.024 6.024 6.031 6.031 0 0 0-6.024-6.024" transform="translate(5.658 9.102)" style="fill:#1a1a1a"/>
                        <g data-name="그룹 65497" style="opacity:.05">
                            <g data-name="그룹 65496">
                                <g data-name="그룹 65495" style="clip-path:url(#2kdijqk1cc)" transform="translate(51.942 128.941)">
                                    <path data-name="패스 50417" d="M166.865 200a3.368 3.368 0 0 0 3.364-3.2l3.472-70.037a3.367 3.367 0 0 0-3.363-3.535H50.534L157.736 200z" transform="translate(-48.945 -121.633)" style="fill:#1a1a1a"/>
                                    <path data-name="패스 50418" d="M166.954 201.674h-9.129a1.584 1.584 0 0 1-.925-.3L49.7 124.6a1.59 1.59 0 0 1 .925-2.881h119.8a4.953 4.953 0 0 1 4.951 5.2l-3.472 70.037a4.954 4.954 0 0 1-4.951 4.712m-8.62-3.178h8.62a1.777 1.777 0 0 0 1.776-1.691l3.473-70.037a1.777 1.777 0 0 0-1.778-1.868H55.57z" transform="translate(-49.034 -121.722)" style="fill:#f2f2f2"/>
                                </g>
                            </g>
                        </g>
                        <path data-name="패스 50419" d="M103.319 114.5A12.451 12.451 0 0 1 90.9 102.088V91.94a12.414 12.414 0 0 1 24.828 0v10.148a12.451 12.451 0 0 1-12.409 12.412" transform="translate(5.391 4.716)" style="fill:#fff"/>
                        <path data-name="패스 50420" d="M103.408 116.18a14.02 14.02 0 0 1-14-14V92.029a14 14 0 0 1 28.007 0v10.148a14.019 14.019 0 0 1-14 14m0-34.976a10.838 10.838 0 0 0-10.833 10.828v10.148a10.826 10.826 0 0 0 21.651 0V92.029A10.837 10.837 0 0 0 103.408 81.2" transform="translate(5.302 4.627)" style="fill:#1a1a1a"/>
                        <path data-name="패스 50421" d="M127.833 54.528v22.4a22.92 22.92 0 0 1-45.839 0V75h-1.505a4.906 4.906 0 0 1 0-9.812h1.505v-10.66a22.92 22.92 0 1 1 45.839 0" transform="translate(4.483 1.875)" style="fill:#fff"/>
                        <path data-name="패스 50422" d="M105 101.519a24.532 24.532 0 0 1-24.509-24.5v-.339a6.5 6.5 0 0 1 0-12.989v-9.074a24.508 24.508 0 1 1 49.016 0v22.4A24.531 24.531 0 0 1 105 101.519m-24.422-34.65a3.317 3.317 0 0 0 0 6.633h1.505a1.59 1.59 0 0 1 1.589 1.589v1.928a21.33 21.33 0 0 0 42.66 0v-22.4a21.33 21.33 0 0 0-42.66 0V65.28a1.589 1.589 0 0 1-1.589 1.589z" transform="translate(4.394 1.786)" style="fill:#1a1a1a"/>
                        <path data-name="패스 50423" d="M127.756 23.8s12.327 26.262-34.193 24.814c0 0-12.161 1.243-11.968-10.339 0 0 0-8.685 13.9-9.1 0 0 25.894.206 32.263-5.377" transform="translate(4.839 1.412)" style="fill:#1cbfff"/>
                        <path data-name="패스 50424" d="M97.268 50.352q-1.743 0-3.571-.056c-.9.073-6.491.359-10.258-3.1-2.282-2.1-3.406-5.075-3.343-8.858 0-.075.177-10.206 15.438-10.661 7.119.058 26.415-.734 31.264-4.983a1.589 1.589 0 0 1 2.485.52c.171.363 4.116 8.979-.883 16.586-4.607 7.006-15.072 10.551-31.132 10.551m-3.612-3.236h.044c16.7.52 27.776-2.6 32.025-9.036 2.829-4.281 2.04-9.168 1.305-11.732-8.4 4.547-28.971 4.521-31.463 4.508-12 .357-12.29 7.233-12.3 7.526-.048 2.838.728 5.008 2.3 6.462 2.955 2.728 7.867 2.283 7.919 2.279a1.57 1.57 0 0 1 .16-.007" transform="translate(4.75 1.323)" style="fill:#1a1a1a"/>
                        <path data-name="패스 50425" d="M93.512 65.876a.3.3 0 1 1-.3-.3.3.3 0 0 1 .3.3" transform="translate(5.511 3.889)" style="fill:#7dcec9"/>
                        <path data-name="패스 50426" d="M93.3 67.852a1.888 1.888 0 1 1 1.887-1.888 1.89 1.89 0 0 1-1.887 1.888" transform="translate(5.422 3.8)" style="fill:#1a1a1a"/>
                        <path data-name="패스 50427" d="M114.376 65.876a.3.3 0 1 1-.3-.3.3.3 0 0 1 .3.3" transform="translate(6.748 3.889)" style="fill:#7dcec9"/>
                        <path data-name="패스 50428" d="M114.167 67.852a1.888 1.888 0 1 1 1.888-1.888 1.889 1.889 0 0 1-1.888 1.888" transform="translate(6.659 3.8)" style="fill:#1a1a1a"/>
                        <path data-name="선 45" transform="translate(109.476 68.273)" style="fill:#7dcec9" d="M0 0v7.068"/>
                        <path data-name="패스 50429" d="M103.435 73.2a1.589 1.589 0 0 1-1.589-1.589v-7.072a1.589 1.589 0 0 1 3.178 0v7.068a1.589 1.589 0 0 1-1.589 1.589" transform="translate(6.04 3.733)" style="fill:#1a1a1a"/>
                        <path data-name="선 46" transform="translate(1.589 66.493)" style="fill:#7dcec9" d="M42.213 24.874 0 0"/>
                        <path data-name="선 47" transform="translate(12.977 43.962)" style="fill:#7dcec9" d="M37.491 36.424 0 0"/>
                        <path data-name="선 48" transform="translate(27.277 21.717)" style="fill:#7dcec9" d="M33.633 48.31 0 0"/>
                        <path data-name="선 49" transform="translate(53.531 1.59)" style="fill:#7dcec9" d="M18.237 62.499 0 0"/>
                        <path data-name="패스 50434" d="M100.094 77.566c2.536 1.222 4.9 1.556 6.891 0" transform="translate(5.936 4.6)" style="fill:#fff"/>
                        <path data-name="패스 50435" d="M109.911 84.811a10.632 10.632 0 0 1-4.571-1.211 1.589 1.589 0 1 1 1.379-2.862c2.986 1.441 4.36.853 5.223.179a1.589 1.589 0 0 1 1.955 2.5 6.3 6.3 0 0 1-3.987 1.39"/>
                        <path data-name="패스 50436" d="M169.695 72.154c-5.715 2.262-7.1 4.094-8.811 11.653-1.71-7.559-3.1-9.392-8.81-11.653 5.715-2.262 7.1-4.094 8.81-11.653 1.71 7.559 3.1 9.392 8.811 11.653" transform="translate(9.019 3.588)" style="fill:#fff"/>
                        <path data-name="패스 50437" d="M160.972 85.485a1.588 1.588 0 0 1-1.55-1.238c-1.6-7.084-2.628-8.462-7.845-10.525a1.589 1.589 0 0 1 0-2.955c5.217-2.064 6.243-3.442 7.845-10.526a1.589 1.589 0 0 1 3.1 0c1.6 7.085 2.629 8.463 7.846 10.526a1.589 1.589 0 0 1 0 2.955c-5.217 2.064-6.244 3.442-7.846 10.526a1.589 1.589 0 0 1-1.55 1.237m-5.038-13.241a10.59 10.59 0 0 1 5.038 5.919 10.591 10.591 0 0 1 5.039-5.919 10.591 10.591 0 0 1-5.039-5.919 10.589 10.589 0 0 1-5.038 5.919" transform="translate(8.93 3.499)" style="fill:#1a1a1a"/>
                        <path data-name="패스 50438" d="M189.823 98.766c-4.559 1.8-5.665 3.266-7.03 9.3-1.363-6.031-2.469-7.492-7.029-9.3 4.559-1.8 5.665-3.266 7.029-9.3 1.364 6.031 2.47 7.492 7.03 9.3" transform="translate(10.424 5.306)" style="fill:#fff"/>
                        <path data-name="패스 50439" d="M182.882 109.741a1.587 1.587 0 0 1-1.549-1.238c-1.311-5.791-2.252-6.662-6.065-8.169a1.589 1.589 0 0 1 0-2.955c3.812-1.508 4.753-2.378 6.065-8.169a1.588 1.588 0 0 1 3.1 0c1.31 5.791 2.251 6.661 6.065 8.169a1.589 1.589 0 0 1 0 2.955c-3.813 1.507-4.754 2.378-6.065 8.169a1.587 1.587 0 0 1-1.55 1.238M179.5 98.855a8.342 8.342 0 0 1 3.38 3.886 8.338 8.338 0 0 1 3.381-3.886 8.344 8.344 0 0 1-3.381-3.886 8.346 8.346 0 0 1-3.38 3.886" transform="translate(10.335 5.217)" style="fill:#1a1a1a"/>
                        <path data-name="선 50" transform="translate(9.534 219.994)" style="fill:#fff" d="M29.852 0H0"/>
                        <path data-name="패스 50440" d="M38.942 209.355H9.089a1.589 1.589 0 1 1 0-3.178h29.853a1.589 1.589 0 1 1 0 3.178" transform="translate(.445 12.228)" style="fill:#1a1a1a"/>
                        <path data-name="선 51" transform="translate(171.263 219.994)" style="fill:#fff" d="M29.852 0H0"/>
                        <path data-name="패스 50441" d="M191.616 209.355h-29.853a1.589 1.589 0 0 1 0-3.178h29.853a1.589 1.589 0 0 1 0 3.178" transform="translate(9.5 12.228)" style="fill:#1a1a1a"/>
                        <path data-name="선 52" transform="translate(208.604 219.994)" style="fill:#fff" d="M5.642 0H0"/>
                        <path data-name="패스 50442" d="M202.655 209.355h-5.642a1.589 1.589 0 1 1 0-3.178h5.642a1.589 1.589 0 0 1 0 3.178" transform="translate(11.59 12.228)" style="fill:#1a1a1a"/>
                    </g>
                </g>
            </g>
        </g>
    </g>
</svg>
