<svg xmlns="http://www.w3.org/2000/svg" width="586" height="166" viewBox="0 0 586 166">
    <defs>
        <linearGradient id="vrxpkixoca" y1=".5" x2="1" y2=".5" gradientUnits="objectBoundingBox">
            <stop offset="0" stop-color="#fff" stop-opacity="0"/>
            <stop offset=".301" stop-color="#6cc9ff" stop-opacity=".576"/>
            <stop offset="1" stop-color="#00a2ff"/>
        </linearGradient>
        <linearGradient id="kzttiipnmb" y1=".5" x2="1" y2=".5" gradientUnits="objectBoundingBox">
            <stop offset="0" stop-color="#fff" stop-opacity="0"/>
            <stop offset="1" stop-color="#00a2ff"/>
        </linearGradient>
        <clipPath id="u1ama9zgjc">
            <path data-name="사각형 17552" style="fill:#fff" d="M0 0h495.373v63.889H0z"/>
        </clipPath>
        <clipPath id="lk45n1fmld">
            <path data-name="사각형 17553" style="fill:#fff" d="M0 0h292.203v61.956H0z"/>
        </clipPath>
    </defs>
    <g data-name="그룹 67525">
        <path data-name="패스 51174" d="M0 0h379.158L293.8 122.421H0z" transform="translate(206.842 43.579)" style="fill:url(#vrxpkixoca)"/>
        <path data-name="패스 51176" d="M0 0h379.158L293.8 134.011H0z" transform="translate(158.177)" style="fill:url(#kzttiipnmb)"/>
        <g data-name="그룹 67499">
            <g data-name="그룹 66863">
                <g data-name="그룹 66862" transform="translate(0 70.122)" style="clip-path:url(#u1ama9zgjc)">
                    <path data-name="패스 50964" d="M26.984 41.656 22.465 50.2h41.46l-5.893 11.141H0l13.957-19.685zM24.3 37.792a8.375 8.375 0 0 1-4.217-3.64 8.061 8.061 0 0 1-.989-5.868 27.279 27.279 0 0 1 3.061-8.321 41.743 41.743 0 0 1 2.595-4.271 32.2 32.2 0 0 1 3.1-3.825 37.093 37.093 0 0 1 3.327-3.2 33.006 33.006 0 0 1 7.708-4.865 36.907 36.907 0 0 1 4.2-1.6 32.958 32.958 0 0 1 4.138-.929A27.777 27.777 0 0 1 51.57.945a21.22 21.22 0 0 1 3.88.335 17.082 17.082 0 0 1 3.268.929 10.509 10.509 0 0 1 2.393 1.6 9.2 9.2 0 0 1 1.746 2.118 11.656 11.656 0 0 1 .743 2.744 16.414 16.414 0 0 1 .134 3.2 21.874 21.874 0 0 1-.981 3.825 30.9 30.9 0 0 1-1.888 4.271 39.842 39.842 0 0 1-5.778 8.321 31.23 31.23 0 0 1-7.161 5.868 34.088 34.088 0 0 1-8.141 3.64 29.687 29.687 0 0 1-8.333 1.19 18.551 18.551 0 0 1-7.149-1.19m14.675-11.147a9.325 9.325 0 0 0 1.386-.3 5.084 5.084 0 0 0 1.276-.371 11.712 11.712 0 0 0 1.471-.742 7.437 7.437 0 0 0 1.309-.855q.7-.557 1.431-1.226a12.83 12.83 0 0 0 1.21-1.374 12.965 12.965 0 0 0 1.148-1.821 8.94 8.94 0 0 0 .7-1.671 7.655 7.655 0 0 0 .284-1.449A7.619 7.619 0 0 0 49 15.728a5.561 5.561 0 0 0-.345-.965c-.242-.2-.5-.4-.764-.6a7.524 7.524 0 0 0-.8-.519c-.395-.1-.757-.186-1.091-.261a4.357 4.357 0 0 0-.946-.112 7.43 7.43 0 0 0-1.249.112q-.656.111-1.255.261a11.313 11.313 0 0 0-1.465.519c-.453.2-.881.4-1.283.6a14.953 14.953 0 0 0-1.441.965 8.889 8.889 0 0 0-1.221 1.114 9.554 9.554 0 0 0-1.289 1.449 14.2 14.2 0 0 0-1.033 1.671A12.6 12.6 0 0 0 34 21.783a3.284 3.284 0 0 0-.2 1.374 3.1 3.1 0 0 0-.017 1.226 1.426 1.426 0 0 0 .477.855 2.075 2.075 0 0 0 .575.742 1.871 1.871 0 0 0 .995.371 2.675 2.675 0 0 0 .959.3 8 8 0 0 0 2.2 0m14.95 16.419L75.816 1.689h13.025L66.953 43.067z" transform="translate(0 .17)" style="fill:#fff"/>
                    <path data-name="패스 50965" d="M82.4 63.527q-4.092 0-7.4-.149a57.229 57.229 0 0 1-5.792-.52 39.007 39.007 0 0 1-4.479-.891 9.416 9.416 0 0 1-3.052-1.337A4.655 4.655 0 0 1 59.71 59a4.474 4.474 0 0 1-.688-2.08 5.252 5.252 0 0 1 .16-2.341 14.14 14.14 0 0 1 1.178-2.861 17.643 17.643 0 0 1 1.73-2.637 18.3 18.3 0 0 1 2.395-2.488 16.409 16.409 0 0 1 2.942-2.044 30.37 30.37 0 0 1 3.825-1.749 45.168 45.168 0 0 1 4.562-1.375q2.527-.63 5.52-1.077 2.875-.37 6.306-.594t7.449-.224q3.871 0 7.1.224t5.791.594a29.385 29.385 0 0 1 4.268 1.077 19.394 19.394 0 0 1 3.144 1.375 8 8 0 0 1 1.9 1.745 5.08 5.08 0 0 1 .929 2.044 9.183 9.183 0 0 1-.274 2.488 11.359 11.359 0 0 1-1.022 2.637 17.334 17.334 0 0 1-1.886 2.861 18.094 18.094 0 0 1-2.28 2.341A20.528 20.528 0 0 1 109.731 59a22.145 22.145 0 0 1-3.619 1.634 31.137 31.137 0 0 1-4.578 1.337q-2.433.518-5.31.891-2.953.371-6.379.52t-7.448.149m44.195-25.853H65.033l5.108-9.656H131.7zM87.309 54.241q3.869 0 6.646-.112a35.712 35.712 0 0 0 4.5-.408 8.783 8.783 0 0 0 2.532-.706 3.046 3.046 0 0 0 1.432-1.3.809.809 0 0 0-.191-1.114 5.429 5.429 0 0 0-1.84-.816q-1.444-.223-4.027-.409t-6.378-.185q-3.945 0-6.723.185t-4.385.409a13.883 13.883 0 0 0-2.74.816 2.691 2.691 0 0 0-1.335 1.113 1.048 1.048 0 0 0 .019 1.3 3.4 3.4 0 0 0 1.9.706 22.658 22.658 0 0 0 3.914.408q2.657.113 6.678.112m51.517-52.223-2.279 4.308a17.468 17.468 0 0 1-1.931 2.453 27.581 27.581 0 0 1-2.446 2.3q-1.409 1.114-2.905 2.117t-3.013 1.895a17.519 17.519 0 0 0 1.815.37q.961.15 2 .3 1.4.446 2.99.89t3.324.967l-8.394 8.692q-1.439-.518-2.895-1t-3.007-.928q-1.7-.3-3.333-.594t-3.3-.52q-1.707-.147-3.4-.259t-3.327-.112a4.433 4.433 0 0 1-.785.074h-.669a4.237 4.237 0 0 1-.747.074h-.626a56.625 56.625 0 0 1-6.665 1.41q-3.442.522-7.055.744-3.993.373-7.87.593t-7.488.3l1.379-9.36q7.078-.3 13.026-.706t10.952-1a70.647 70.647 0 0 0 8.222-1.189 24.464 24.464 0 0 0 5.558-1.783H84.545L89.85 2.017z" transform="translate(10.701 .362)" style="fill:#fff"/>
                    <path data-name="패스 50966" d="M112.9 49.491q3.649-2.673 6.847-5.274t6.06-5.052q2.63-2.3 5.159-4.828t4.836-5.2q2.228-2.524 4.356-5.422t4.191-6.092q1.946-3.122 4.041-6.8t4.334-7.911H165.9q-2.715 5.127-5.3 9.588t-4.958 8.247q-1.283 2.006-2.6 3.863t-2.634 3.64q1.12 2.526 2.02 4.976t1.577 4.83a51.719 51.719 0 0 1 .907 5.46 55.966 55.966 0 0 1 .343 5.684l-13.815 8.388q-.069-1.56-.1-3.046t-.18-2.9c-.123-.891-.287-1.757-.486-2.6s-.388-1.709-.56-2.6a6.933 6.933 0 0 1-.415-1.113c-.115-.4-.215-.791-.3-1.189a7.229 7.229 0 0 1-.416-1.114q-.17-.594-.3-1.19-1.379 1.339-2.7 2.564t-2.577 2.339q-3.321 2.9-7.086 5.794t-8.018 5.87zm57.149-17.978-1.083.149a6.754 6.754 0 0 1-.969.074 5.78 5.78 0 0 1-.859.074h-.669a12.3 12.3 0 0 1-2.016.15H158.5l6.288-11.886H176.1l9.784-18.5h13.026l-31.674 59.878H154.21z" transform="translate(20.493 .283)" style="fill:#fff"/>
                </g>
            </g>
            <g data-name="그룹 66864">
                <g data-name="그룹 66865" transform="translate(211.989 71.302)" style="clip-path:url(#lk45n1fmld)">
                    <path data-name="패스 50971" d="M10.779 59.728a15.532 15.532 0 0 1-6.811-1.263A6.416 6.416 0 0 1 .539 54.6a10.5 10.5 0 0 1-.245-5.869 29.717 29.717 0 0 1 3.011-7.8 41.687 41.687 0 0 1 5.163-7.651A37.212 37.212 0 0 1 15 27.265a27.256 27.256 0 0 1 7.42-3.826 26.063 26.063 0 0 1 8.243-1.3 13.984 13.984 0 0 1 6.5 1.3 7.426 7.426 0 0 1 3.521 3.826 12.174 12.174 0 0 1 .241 6.015 26.957 26.957 0 0 1-2.856 7.653 42.517 42.517 0 0 1-5.242 7.8 35.177 35.177 0 0 1-6.38 5.869 27.048 27.048 0 0 1-7.513 3.863 26.3 26.3 0 0 1-8.15 1.263m39.181-39.745H13.417l5.856-11.068H30.66L35.376 0h13.771l-4.715 8.915H55.82zm-33.292 28.6a5.9 5.9 0 0 0 2.172-.446 11.315 11.315 0 0 0 2.455-1.41 13.6 13.6 0 0 0 2.282-2.341 23.136 23.136 0 0 0 2.2-3.454 16.6 16.6 0 0 0 1.376-3.305 6.752 6.752 0 0 0 .274-2.489 3.086 3.086 0 0 0-.984-1.374 2.716 2.716 0 0 0-1.68-.485 6.092 6.092 0 0 0-2.3.485 9.849 9.849 0 0 0-2.328 1.374 12.929 12.929 0 0 0-2.471 2.489 24.1 24.1 0 0 0-2.083 3.305 19.692 19.692 0 0 0-1.492 3.454 4.149 4.149 0 0 0-.158 2.341 1.943 1.943 0 0 0 .854 1.411 3.456 3.456 0 0 0 1.885.446m61.49-26.892-6.8 12.853c-.3 0-.626.012-.985.037s-.754.064-1.177.112a10.786 10.786 0 0 0-1.229.073 11.247 11.247 0 0 1-1.306.074q-1.384.223-2.654.447t-2.433.445L47.869 61.659H34.1l31.633-59.8H79.5l-11.2 21.17q1.2-.3 2.492-.558t2.748-.482a11.938 11.938 0 0 0 1.342-.074 11.265 11.265 0 0 1 1.193-.074c.421-.05.8-.085 1.138-.112s.651-.037.949-.037m36.713-19.8a13.134 13.134 0 0 1 3.073 1.153 7.474 7.474 0 0 1 1.916 2.155 9.861 9.861 0 0 1 1.108 2.969 20.634 20.634 0 0 1-.058 4.05 29.855 29.855 0 0 1-.975 4.938q-.9 2.826-2.331 6.167t-3.476 7.206q-2.123 4.013-4.246 7.392t-4.133 6.054a59.434 59.434 0 0 1-4.309 5.053 56.036 56.036 0 0 1-4.167 3.936 39.405 39.405 0 0 1-4.291 3.046 23.4 23.4 0 0 1-4.113 2.006 25.065 25.065 0 0 1-4.313 1.189 23.794 23.794 0 0 1-4.18.371 18.521 18.521 0 0 1-3.934-.371 8.2 8.2 0 0 1-2.905-1.189 5.565 5.565 0 0 1-2.178-2.006 6.986 6.986 0 0 1-.957-3.046 11.77 11.77 0 0 1-.076-3.936 28.992 28.992 0 0 1 1.184-5.053 45.357 45.357 0 0 1 2.234-6.054q1.49-3.38 3.612-7.392 2.043-3.861 4.109-7.206a74.775 74.775 0 0 1 4.23-6.167 63.829 63.829 0 0 1 4.1-4.938 40.476 40.476 0 0 1 4.3-4.05A30.979 30.979 0 0 1 98.24 5.2a30.079 30.079 0 0 1 4.38-2.154 26.923 26.923 0 0 1 4.144-1.153 23.028 23.028 0 0 1 4.346-.408 16.155 16.155 0 0 1 3.769.408m-11.5 12.035q-.656.187-1.219.409a8.77 8.77 0 0 0-1.535.929 12.7 12.7 0 0 0-1.584 1.449 17.2 17.2 0 0 0-1.867 2.191q-.948 1.3-2 2.859-1.205 1.71-2.473 3.9t-2.684 4.866q-1.5 2.825-2.541 5.014A34.538 34.538 0 0 0 85.9 39.3q-.681 1.71-1.088 2.97a7.969 7.969 0 0 0-.432 2.157 4.575 4.575 0 0 0 .032 1.485 1.1 1.1 0 0 0 .611.817 1.161 1.161 0 0 0 .748.483 5.127 5.127 0 0 0 1.1.112 5.622 5.622 0 0 0 1.027-.112 6.005 6.005 0 0 0 1.372-.483 6.248 6.248 0 0 0 1.362-.817 18.05 18.05 0 0 0 1.717-1.485q.769-.893 1.772-2.157t2.2-2.97q1.047-1.56 2.357-3.752t2.8-5.014q1.416-2.673 2.426-4.866t1.69-3.9q.528-1.56.88-2.859t.526-2.193a4.339 4.339 0 0 0-.165-1.449 3.966 3.966 0 0 0-.438-.929c-.32-.149-.62-.284-.9-.409a2.163 2.163 0 0 0-.87-.185 4.651 4.651 0 0 0-1.252.185m-.05 47.731 31.633-59.8h13.769l-31.632 59.8zm50.359-48.064h-2.829l5.895-11.143h29.774l-5.895 11.143h-2.9l-17.84 33.728h2.9L156.9 58.465h-29.78l5.893-11.142h2.83zm-3.92 33.728L167.6 13.595h-3.8l-17.84 33.728zm40.075-13q-1.086.223-2.245.446a12.065 12.065 0 0 1-2.277.223l-14.266 26.963h-11.834l31.789-60.1h11.835l-10.846 20.5h4.17l10.845-20.5h11.76l-31.79 60.1h-11.76zm3.8 26.447 6.288-11.886 31.154-.055c10.267-.018 20.571.516 30.814-.453 10.661-1.009 20.125-4.82 30.308-7.746a54.8 54.8 0 0 1-4.535 6.265c-8.583 10.016-12.727 11.289-26.181 12.932 0 0-8.939.6-20.327.755-19.988.277-47.522.189-47.522.189m15.646-28.452a117.474 117.474 0 0 0 13.156-5.943 105.929 105.929 0 0 0 11.51-7.056 63.068 63.068 0 0 0 9.267-7.95 47.092 47.092 0 0 0 6.725-8.915h13.919q-1.8 3.12-3.853 6.017a64.629 64.629 0 0 1-4.435 5.573q2.325 1.931 4.412 3.9a38.89 38.89 0 0 1 3.74 4.048q1.5 2.229 3.028 4.829a59.3 59.3 0 0 1 2.929 5.72l-14.048 9.955a45.387 45.387 0 0 0-2.452-5.5 49.972 49.972 0 0 0-3.025-4.978q-1.7-1.857-3.361-3.565a41.626 41.626 0 0 0-3.483-3.194l-1.484 1.113q-3.534 2.6-7.227 4.94t-7.51 4.346q-4.043 2.156-7.98 3.9t-7.812 3.156z" style="fill:#fff"/>
                </g>
            </g>
        </g>
    </g>
</svg>
