<svg xmlns="http://www.w3.org/2000/svg" width="90" height="90" viewBox="0 0 90 90">
    <defs>
        <clipPath id="fy42pqk1sa">
            <path data-name="사각형 17060" style="fill:none" d="M0 0h81.225v34.542H0z"/>
        </clipPath>
        <clipPath id="6tpqc3n4rb">
            <path data-name="패스 50469" d="M301.452 152.413c1.338 0 1.879 1.212 2.093 2.151h-4.31c.287-1.215 1.009-2.151 2.217-2.151m-4.605 2.151h-2.619a.8.8 0 1 0 0 1.6h2.493a4.807 4.807 0 0 0 8.528 3.222c.412-.425.74-1.054.316-1.466a1.072 1.072 0 0 0-1.515.022 3.994 3.994 0 0 1-2.556 1.07c-1.362 0-2.286-1.238-2.391-2.849h6.085a.8.8 0 0 0 .8-.8V155.322c0-2.282-1.857-5.053-4.536-5.053-2.273 0-4.111 1.733-4.605 4.294" transform="translate(-293.427 -150.271)" style="fill:none"/>
        </clipPath>
        <linearGradient id="d65bwbj4dc" x1="-2.307" y1="1.011" x2="-2.299" y2="1.011" gradientUnits="objectBoundingBox">
            <stop offset="0" stop-color="#005dab"/>
            <stop offset=".285" stop-color="#005dab"/>
            <stop offset=".397" stop-color="#006cb7"/>
            <stop offset=".613" stop-color="#0093d9"/>
            <stop offset=".745" stop-color="#00aff1"/>
            <stop offset="1" stop-color="#00aff1"/>
        </linearGradient>
    </defs>
    <g data-name="그룹 66823">
        <g data-name="사각형 17060" style="fill:#fff;stroke:#cecece">
            <rect width="90" height="90" rx="14" style="stroke:none"/>
            <rect x=".5" y=".5" width="89" height="89" rx="13.5" style="fill:none"/>
        </g>
        <g data-name="그룹 65534">
            <g data-name="그룹 65535">
                <g data-name="그룹 65534" style="clip-path:url(#fy42pqk1sa)" transform="translate(4.39 27.363)">
                    <path data-name="패스 50466" d="M13.874 0 .338 12.534a1.059 1.059 0 0 0 .721 1.835 1.062 1.062 0 0 0 .133-.012 1.059 1.059 0 0 0 .121.012h5.131v10.937a1.355 1.355 0 0 0 2.709 0v-5.013H14.2v5.013a1.355 1.355 0 0 0 2.709 0v-11.75a1.355 1.355 0 1 0-2.709 0v4.151H9.154v-4.151A1.355 1.355 0 0 0 7.8 12.2l-4 .009L12.634 4c1.225-1.148 2.087-1.17 3.293-.086 1.179 1.061 5.524 4.982 7.8 7.041l1.373 1.236h13.136a.862.862 0 0 0 .568-1.511L26.6 0z" style="fill:#005dab"/>
                    <path data-name="패스 50467" d="M139.039 115.787c-3.045 0-4.577 2.4-4.577 5.357s1.653 5.357 4.577 5.357 4.577-2.4 4.577-5.357-1.532-5.357-4.577-5.357m0 8.675c-1.4 0-2.2-1.485-2.2-3.318s.735-3.318 2.2-3.318 2.2 1.485 2.2 3.318-.793 3.318-2.2 3.318" transform="translate(-115.99 -99.881)" style="fill:#005dab"/>
                    <path data-name="패스 50468" d="M220.191 115.365a4.186 4.186 0 0 0-3.06 1.857 2.381 2.381 0 0 0-2.322-1.857 4.134 4.134 0 0 0-2.923 1.6v-.533a1.182 1.182 0 0 0-2.364 0v8.341a1.182 1.182 0 0 0 2.364 0v-5.036c0-.965.68-2.217 1.691-2.217s1.486.621 1.486 1.17v6.083a1.182 1.182 0 1 0 2.364 0v-4.544c0-1.293.68-2.709 1.691-2.709a1.384 1.384 0 0 1 1.486 1.308v5.945a1.182 1.182 0 1 0 2.364 0v-5.729c0-2.478-.731-3.679-2.778-3.679" transform="translate(-180.739 -99.418)" style="fill:#005dab"/>
                </g>
            </g>
            <g data-name="그룹 65537">
                <g data-name="그룹 65536" style="clip-path:url(#6tpqc3n4rb)" transform="translate(44.699 48.006)">
                    <path data-name="사각형 17061" transform="rotate(-44.076 3.786 9.353)" style="fill:url(#d65bwbj4dc)" d="M0 0h16.597v16.559H0z"/>
                </g>
            </g>
            <g data-name="그룹 65539">
                <g data-name="그룹 65538" style="clip-path:url(#fy42pqk1sa)" transform="translate(4.39 27.363)">
                    <path data-name="패스 50470" d="M391.5 110.812h-.5c-.144 0-.238-.062-.238-.226v-5.636h1.026a.911.911 0 0 0 0-1.823h-1.028v-1.705a1.227 1.227 0 0 0-2.451 0v1.705h-.5a.911.911 0 1 0 0 1.823h.5v5.95a2.044 2.044 0 0 0 2.066 2.066h1.125a1.082 1.082 0 1 0 0-2.158" transform="translate(-333.744 -86.491)" style="fill:#005dab"/>
                    <path data-name="패스 50471" d="M441.171 124.435a3.243 3.243 0 0 1-.215-.862v-5.48c0-1.313-1.192-2.678-3.91-2.678a4.075 4.075 0 0 0-3.756 2.093 1.1 1.1 0 0 0 .246 1.385 1.133 1.133 0 0 0 1.479-.255 2.41 2.41 0 0 1 2.031-1.13c1.4 0 1.693.893 1.693 1.293v.4a1.9 1.9 0 0 1-1.324.647c-1.478.062-4.9.277-4.9 3.417 0 2.155 1.693 2.8 3.294 2.8a4.237 4.237 0 0 0 2.936-1.564 1.93 1.93 0 0 0 .745 1.434 1.091 1.091 0 0 0 .753.161 1.454 1.454 0 0 0 .77-.4 1.616 1.616 0 0 0 .154-1.262m-3.109-.893a2.385 2.385 0 0 1-1.786.8 1.331 1.331 0 0 1-1.324-1.324 1.628 1.628 0 0 1 1.786-1.385 3.117 3.117 0 0 0 2-.621v1.6a3.91 3.91 0 0 1-.678.932" transform="translate(-373.103 -99.56)" style="fill:#005dab"/>
                    <path data-name="패스 50472" d="m508.586 120.408 1.743-2.621a2.29 2.29 0 0 0 0-2.344.868.868 0 0 0-1.558 0l-1.743 2.621-1.743-2.621a.868.868 0 0 0-1.558 0 2.289 2.289 0 0 0 0 2.344l1.743 2.621-1.743 2.621a2.289 2.289 0 0 0 0 2.344.868.868 0 0 0 1.558 0l1.743-2.621 1.743 2.621a.868.868 0 0 0 1.558 0 2.29 2.29 0 0 0 0-2.344z" transform="translate(-434.249 -99.165)" style="fill:#005dab"/>
                    <path data-name="패스 50473" d="M572.57 181.589a1.489 1.489 0 1 1-1.489-1.489 1.489 1.489 0 0 1 1.489 1.489" transform="translate(-491.345 -155.359)" style="fill:#019f40"/>
                    <path data-name="패스 50474" d="M416.079 204.534s-5.542 4.967-12.93 4.967a17.179 17.179 0 0 1-10.393-3.348 2.185 2.185 0 0 0-.139-.514s-.193-.2-.341-.327-.3-.241-.3-.241a1.731 1.731 0 0 0-.568.644 3.437 3.437 0 0 0 .277.271c.172.152.367.3.367.3a2.016 2.016 0 0 0 .558.07c1.531 1.5 5.309 4.626 10.3 4.626 6.568 0 10.406-3.674 13.177-6.445" transform="translate(-337.636 -176.436)" style="fill:#fa9f1d"/>
                </g>
            </g>
        </g>
    </g>
</svg>
