<svg xmlns="http://www.w3.org/2000/svg" width="80" height="80.001" viewBox="0 0 80 80.001">
    <defs>
        <clipPath id="ewp5wyzcia">
            <path data-name="사각형 32143" style="fill:none" d="M0 0h45.999v30.859H0z"/>
        </clipPath>
    </defs>
    <g data-name="그룹 108971">
        <path data-name="패스 89806" d="M40 80a40 40 0 1 1 40-40 40 40 0 0 1-40 40" style="fill:#08f"/>
        <g data-name="그룹 108939">
            <g data-name="그룹 108938">
                <g data-name="그룹 108937" style="clip-path:url(#ewp5wyzcia)" transform="translate(17.001 24.571)">
                    <path data-name="패스 89817" d="M16.599 0h11.643H8.051h8.548"/>
                    <path data-name="패스 89818" d="M312.56 224.017a4.422 4.422 0 1 0 4.418 4.4 4.476 4.476 0 0 0-4.418-4.4m.01 6.326a1.89 1.89 0 0 1-1.912-1.89 1.909 1.909 0 0 1 1.876-1.934 1.912 1.912 0 1 1 .036 3.824" transform="translate(-277.857 -202.003)" style="fill:#fff"/>
                    <path data-name="패스 89819" d="M75.382 224.017a4.422 4.422 0 1 0 4.406 4.422 4.459 4.459 0 0 0-4.406-4.422m-.021 6.328a1.9 1.9 0 0 1-1.909-1.9 1.914 1.914 0 1 1 1.909 1.9" transform="translate(-63.971 -202.003)" style="fill:#fff"/>
                    <path data-name="패스 89820" d="M318.4 84.59c-.523-.009-1.047 0-1.571 0-.594 0-.626.032-.626.646v5.106c0 .671.051.728.725.729q3.264 0 6.529-.006a4.86 4.86 0 0 0 .611-.084c-.715-1.441-1.37-2.793-2.053-4.13a3.877 3.877 0 0 0-3.62-2.258" transform="translate(-285.128 -76.273)" style="fill:#08f"/>
                    <path data-name="패스 89821" d="M336 249.473a2.252 2.252 0 0 0-2.213 2.282 2.23 2.23 0 0 0 2.256 2.23 2.256 2.256 0 1 0-.042-4.512" transform="translate(-301.332 -225.3)" style="fill:#fff"/>
                    <path data-name="패스 89822" d="M99.145 249.437a2.659 2.659 0 0 0-2.675 2.657 2.638 2.638 0 0 0 5.275.01 2.666 2.666 0 0 0-2.6-2.667" transform="translate(-87.713 -225.648)" style="fill:#fff"/>
                    <path data-name="패스 89823" d="M45.983 19.477a16.665 16.665 0 0 0-.2-2.246 2.282 2.282 0 0 0-1.865-2.075c-.51-.111-1.009-.275-1.514-.412a3.478 3.478 0 0 1-2.42-2.036c-.552-1.239-1.174-2.448-1.8-3.652a4.364 4.364 0 0 0-4.032-2.495c-.769-.016-1.539 0-2.309 0-.676 0-.766-.091-.771-.763-.008-1.179.021-2.36-.023-3.537A2.2 2.2 0 0 0 29.026.046 5.441 5.441 0 0 0 28.242 0H8.051Q6.627 0 5.2.01A8.724 8.724 0 0 0 3.4.2a2.4 2.4 0 0 0-2.08 2.326 17.64 17.64 0 0 0-.032 1.3h-.004v5.719L0 9.546h1.284v9.714h.022a224.292 224.292 0 0 0 0 4.783A2.528 2.528 0 0 0 3.2 26.6a6.653 6.653 0 0 0 1.414.106c.965.014.965 0 1.067-.954a5.751 5.751 0 0 1 11.446.281c.059.67.059.678.747.678H28.24c.7 0 .7 0 .733-.7a5.751 5.751 0 0 1 11.482.205c.022.372.117.518.509.5.769-.027 1.539.011 2.309-.008a2.556 2.556 0 0 0 2.712-2.758c.007-1.49.025-2.981 0-4.471m-7.653-4.688q-3.264.01-6.529.006c-.673 0-.723-.058-.725-.729V8.962c0-.613.032-.645.626-.646.524 0 1.047-.006 1.571 0a3.877 3.877 0 0 1 3.62 2.258c.682 1.338 1.338 2.689 2.053 4.13a4.866 4.866 0 0 1-.611.084" style="fill:#fff"/>
                </g>
                <path data-name="패스 89824" d="M51.949 46.4h-2.711v-7.89l-5.421 7.89h2.711v7.89z" transform="translate(-15.244 -11.287)" style="fill:#22272b"/>
            </g>
        </g>
    </g>
</svg>
