<svg data-name="그룹 87160" xmlns="http://www.w3.org/2000/svg" width="80" height="79.999" viewBox="0 0 80 79.999">
    <defs>
        <clipPath id="7rk7u20h8a">
            <path data-name="사각형 26731" style="fill:none" d="M0 0h80v79.999H0z"/>
        </clipPath>
    </defs>
    <g data-name="그룹 87160" style="clip-path:url(#7rk7u20h8a)">
        <path data-name="패스 62088" d="M40 80a40 40 0 1 1 40-40 40 40 0 0 1-40 40" style="fill:#08f"/>
        <path data-name="사각형 26725" transform="translate(24.382 35.486)" style="fill:#fff" d="M0 0h5.4v16.045H0z"/>
        <path data-name="사각형 26726" transform="translate(36.926 35.486)" style="fill:#fff" d="M0 0h5.4v16.045H0z"/>
        <path data-name="사각형 26727" transform="translate(49.469 35.486)" style="fill:#fff" d="M0 0h5.4v16.045H0z"/>
        <path data-name="사각형 26728" d="M3.688 0h28.427A3.688 3.688 0 0 1 35.8 3.688a3.688 3.688 0 0 1-3.688 3.688H3.687A3.687 3.687 0 0 1 0 3.689 3.688 3.688 0 0 1 3.688 0z" transform="translate(21.724 30.071)" style="fill:#70b501"/>
        <path data-name="사각형 26729" d="M3.686 0h28.428A3.689 3.689 0 0 1 35.8 3.689a3.686 3.686 0 0 1-3.686 3.686H3.686A3.686 3.686 0 0 1 0 3.689 3.686 3.686 0 0 1 3.686 0z" transform="translate(21.724 50.1)" style="fill:#70b501"/>
        <path data-name="패스 62095" d="M3.55 0h35.31a3.55 3.55 0 0 1 3.55 3.55 3.55 3.55 0 0 1-3.55 3.55H3.55a3.55 3.55 0 0 1 0-7.1z" transform="translate(18.42 54.041)" style="fill:#fff"/>
        <path data-name="패스 62089" d="M42.887 50.856c-2.4 0-2.776-1.159-.843-2.576L58.6 36.146a6.346 6.346 0 0 1 7.031 0l16.563 12.133c1.934 1.417 1.554 2.576-.842 2.576z" transform="translate(-21.849 -18.784)" style="fill:#fff"/>
    </g>
</svg>
