<svg xmlns="http://www.w3.org/2000/svg" width="80" height="80.001" viewBox="0 0 80 80.001">
    <defs>
        <clipPath id="f1ecdwef8a">
            <path data-name="사각형 32151" transform="translate(-2123 -15774)" style="stroke:#707070;fill:#fff" d="M0 0h58.98v58.98H0z"/>
        </clipPath>
    </defs>
    <g data-name="그룹 108966">
        <path data-name="패스 89831" d="M40 80a40 40 0 1 1 40-40 40 40 0 0 1-40 40" style="fill:#08f"/>
        <path data-name="사각형 32150" transform="translate(0 .001)" style="fill:none" d="M0 0h80v80H0z"/>
        <g data-name="마스크 그룹 86122" transform="translate(2134 15785)" style="clip-path:url(#f1ecdwef8a)">
            <g data-name="그룹 108955">
                <path data-name="패스 89832" d="M3.932 0h37.354a3.754 3.754 0 0 1 3.932 3.545v22.4a3.754 3.754 0 0 1-3.932 3.545H3.932A3.754 3.754 0 0 1 0 25.945v-22.4A3.754 3.754 0 0 1 3.932 0z" transform="rotate(90 6844.177 -8922.942)" style="fill:#fff"/>
                <path data-name="패스 89833" d="M0 0h5.9v5.9H0z" transform="rotate(90 6834.838 -8925.399)" style="fill:#566881"/>
            </g>
        </g>
        <g data-name="그룹 108956" transform="translate(18498 -15031)">
            <circle data-name="타원 3386" cx="9" cy="9" r="9" transform="translate(-18454 15077)" style="fill:#ff57a4"/>
            <g data-name="그룹 108961">
                <g data-name="그룹 108967">
                    <g data-name="그룹 108968" transform="translate(1.903 .406)">
                        <rect data-name="사각형 32152" width="12" height="3" rx="1.5" transform="translate(-18452.902 15084.094)" style="fill:#fff"/>
                        <rect data-name="사각형 32154" width="12" height="3" rx="1.5" transform="rotate(90 -16762.498 -1682.904)" style="fill:#fff"/>
                    </g>
                </g>
            </g>
        </g>
    </g>
</svg>
