<svg xmlns="http://www.w3.org/2000/svg" width="46" height="46" viewBox="0 0 46 46">
    <defs>
        <clipPath id="vtswczr2va">
            <path data-name="사각형 23183" style="fill:none" d="M0 0h44.543v40.981H0z"/>
        </clipPath>
    </defs>
    <path data-name="사각형 10296" style="fill:none" d="M0 0h46v46H0z"/>
    <g data-name="그룹 83008">
        <g data-name="그룹 83010" style="clip-path:url(#vtswczr2va)" transform="translate(1.456 2.21)">
            <path data-name="패스 59767" d="M39.174 14.13H37.5v-1.761A12.4 12.4 0 0 0 25.129 0h-5.715A12.4 12.4 0 0 0 7.045 12.369v1.756H5.368A5.384 5.384 0 0 0 0 19.493v5.457a5.383 5.383 0 0 0 5.369 5.367h2.757a1.081 1.081 0 0 0 1.08-1.08V12.369A10.235 10.235 0 0 1 19.414 2.161h5.715a10.236 10.236 0 0 1 10.208 10.208v19.374a4.093 4.093 0 0 1-4.083 4.084h-4.189l-.069-.2a4.06 4.06 0 1 0-3.843 5.358A4.065 4.065 0 0 0 27 38.192l.069-.2h4.188a6.264 6.264 0 0 0 6.242-6.245v-1.43h1.68a5.385 5.385 0 0 0 5.369-5.363V19.5a5.385 5.385 0 0 0-5.37-5.368M7.045 28.156H5.368a3.216 3.216 0 0 1-3.207-3.206v-5.457a3.218 3.218 0 0 1 3.207-3.207h1.677zm18.019 8.754a1.911 1.911 0 1 1-1.91-1.91 1.913 1.913 0 0 1 1.91 1.912zm17.318-11.96a3.215 3.215 0 0 1-3.207 3.206H37.5v-11.87h1.677a3.216 3.216 0 0 1 3.207 3.207z"/>
        </g>
    </g>
</svg>
