<svg xmlns="http://www.w3.org/2000/svg" width="52" height="52">
    <defs>
        <clipPath id="clip-path">
            <path id="사각형_13505" data-name="사각형 13505" transform="translate(102 3048)" style="fill:#fff" d="M0 0h52v52H0z"/>
        </clipPath>
        <style>
            .cls-3{fill:#ffca1a}
        </style>
    </defs>
    <g id="마스크_그룹_47" data-name="마스크 그룹 47" transform="translate(-102 -3048)" style="clip-path:url(#clip-path)">
        <g id="그룹_57663" data-name="그룹 57663" transform="translate(164.036 2711.289)">
            <path id="패스_45785" data-name="패스 45785" class="cls-3" d="M-36.5 339.75a23 23 0 0 0-23 23 23 23 0 0 0 23 23v-46z"/>
            <path id="패스_45787" data-name="패스 45787" d="M-36.5 339.75v23l16.394 16.126A22.92 22.92 0 0 0-13.5 362.75a23 23 0 0 0-23-23z" style="fill:#ff6e23"/>
            <path id="패스_45788" data-name="패스 45788" class="cls-3" d="M-36.5 339.75v23l16.394 16.126A22.92 22.92 0 0 0-13.5 362.75a23 23 0 0 0-23-23z" transform="rotate(135 -36.435 362.777)"/>
        </g>
        <g id="그룹_57664" data-name="그룹 57664" transform="translate(102.591 3049)">
            <path id="패스_45765" data-name="패스 45765" d="M1597.54 845.153a24.993 24.993 0 1 1 24.993-24.993 25.021 25.021 0 0 1-24.993 24.993zm0-46.774a21.782 21.782 0 1 0 21.782 21.782 21.807 21.807 0 0 0-21.782-21.782z" transform="translate(-1572.547 -795.168)"/>
        </g>
        <g id="그룹_57665" data-name="그룹 57665" transform="translate(125.979 3060.039)">
            <path id="패스_45766" data-name="패스 45766" d="M1628.473 833.436a1.605 1.605 0 0 1-1.606-1.606v-13.984a1.605 1.605 0 1 1 3.211 0v13.984a1.6 1.6 0 0 1-1.605 1.606z" transform="translate(-1626.867 -816.24)"/>
        </g>
        <g id="그룹_57666" data-name="그룹 57666" transform="translate(125.979 3073.539)">
            <path id="패스_45767" data-name="패스 45767" d="M1638.791 861.816a1.6 1.6 0 0 1-1.063-.4l-10.317-9.119a1.606 1.606 0 0 1 2.127-2.406l10.317 9.119a1.605 1.605 0 0 1-1.063 2.808z" transform="translate(-1626.868 -849.486)"/>
        </g>
    </g>
</svg>
