<svg xmlns="http://www.w3.org/2000/svg" width="46" height="46" viewBox="0 0 46 46">
    <defs>
        <clipPath id="l95x2ykwya">
            <path data-name="사각형 22703" d="M0 0h46v46H0z"/>
        </clipPath>
    </defs>
    <g data-name="그룹 77939">
        <g data-name="그룹 77940" style="clip-path:url(#l95x2ykwya)">
            <path data-name="패스 57548" d="m43.991 18.379-3.651-.653-.109-.333a18.552 18.552 0 0 0-1.078-2.6l-.161-.318 1.946-2.724a2.686 2.686 0 0 0-.289-3.5l-2.866-2.87a2.737 2.737 0 0 0-1.92-.8 2.649 2.649 0 0 0-1.568.5l-2.739 1.951-.318-.161a17.882 17.882 0 0 0-2.719-1.118l-.342-.109-.551-3.265A2.69 2.69 0 0 0 24.96.107h-4.085a2.689 2.689 0 0 0-2.669 2.267l-.57 3.347-.336.11a17.708 17.708 0 0 0-2.6 1.094l-.321.164-2.705-1.948a2.691 2.691 0 0 0-3.5.289L5.295 8.3a2.7 2.7 0 0 0-.289 3.5l1.968 2.765-.16.316a17.808 17.808 0 0 0-1.064 2.615l-.108.342-3.266.549a2.691 2.691 0 0 0-2.27 2.681v4.054a2.691 2.691 0 0 0 2.268 2.685l3.347.571.11.335a17.714 17.714 0 0 0 1.1 2.6l.166.322-1.946 2.689a2.688 2.688 0 0 0 .289 3.5l2.866 2.865a2.678 2.678 0 0 0 3.492.3l2.756-1.967.317.157a17.816 17.816 0 0 0 2.511 1.028l.339.11.551 3.305a2.688 2.688 0 0 0 2.665 2.269h4.089a2.659 2.659 0 0 0 2.68-2.263l.565-3.307.337-.11a18.243 18.243 0 0 0 2.607-1.079l.317-.161 2.727 1.947a2.689 2.689 0 0 0 3.5-.286l2.87-2.869a2.7 2.7 0 0 0 .29-3.5L38.97 31.53l.162-.318a17.88 17.88 0 0 0 1.074-2.605l.11-.339 3.3-.552a2.69 2.69 0 0 0 2.271-2.68v-4.045a2.716 2.716 0 0 0-1.9-2.612m-.415 6.968-4.364.726a1.165 1.165 0 0 0-.937.859 15.617 15.617 0 0 1-1.686 4.062 1.173 1.173 0 0 0 .05 1.275l2.571 3.607-3.326 3.325-3.6-2.565a1.172 1.172 0 0 0-1.275-.05 15.552 15.552 0 0 1-4.061 1.687 1.152 1.152 0 0 0-.858.935l-.737 4.362h-4.69l-.733-4.363a1.162 1.162 0 0 0-.858-.937 16.258 16.258 0 0 1-3.981-1.631 1.2 1.2 0 0 0-.59-.157.981.981 0 0 0-.666.215l-3.644 2.591-3.328-3.321 2.557-3.576a1.2 1.2 0 0 0 .047-1.284 15.3 15.3 0 0 1-1.706-4.054 1.2 1.2 0 0 0-.945-.861l-4.381-.746v-4.7l4.328-.726a1.176 1.176 0 0 0 .949-.869 15.441 15.441 0 0 1 1.656-4.064 1.165 1.165 0 0 0-.06-1.264l-2.582-3.632 3.326-3.326L13.63 9.42a1.2 1.2 0 0 0 1.286.048 15.352 15.352 0 0 1 4.054-1.707 1.2 1.2 0 0 0 .856-.943l.747-4.382h4.695l.726 4.328a1.172 1.172 0 0 0 .869.947 15.708 15.708 0 0 1 4.163 1.708 1.178 1.178 0 0 0 1.28-.053l3.575-2.571 3.325 3.326-2.564 3.6a1.173 1.173 0 0 0-.05 1.275 15.5 15.5 0 0 1 1.686 4.06 1.145 1.145 0 0 0 .932.856l4.363.737.011 4.656z"/>
            <path data-name="패스 57549" d="M23.003 13.148a9.847 9.847 0 1 0 9.85 9.847 9.859 9.859 0 0 0-9.85-9.847m0 17.333a7.486 7.486 0 1 1 7.486-7.486 7.495 7.495 0 0 1-7.486 7.486"/>
        </g>
    </g>
</svg>
