<svg xmlns="http://www.w3.org/2000/svg" width="22.853" height="30.499" viewBox="0 0 22.853 30.499">
  <g id="ico_eme" transform="translate(-21155.418 -16036.065)">
    <g id="그룹_23442" data-name="그룹 23442" transform="translate(21155.918 16044.004)">
      <path id="패스_28133" data-name="패스 28133" d="M406.9,329.229h0a7.2,7.2,0,0,0-7.2,7.2V345.8h14.4v-9.373A7.2,7.2,0,0,0,406.9,329.229Z" transform="translate(-395.96 -329.229)" fill="#ff684a" stroke="#333133" stroke-width="1"/>
      <path id="사각형_10212" data-name="사각형 10212" d="M2.881,0H16.068a2.881,2.881,0,0,1,2.881,2.881v0a0,0,0,0,1,0,0H0a0,0,0,0,1,0,0v0A2.881,2.881,0,0,1,2.881,0Z" transform="translate(1.452 16.181)" fill="#cecece" stroke="#333133" stroke-width="1"/>
      <path id="사각형_10213" data-name="사각형 10213" d="M3.012,0H18.841a3.012,3.012,0,0,1,3.012,3.012v0a0,0,0,0,1,0,0H0a0,0,0,0,1,0,0v0A3.012,3.012,0,0,1,3.012,0Z" transform="translate(0 19.048)" fill="#cecece" stroke="#333133" stroke-width="1"/>
    </g>
    <path id="패스_28139" data-name="패스 28139" d="M433.314,342.183a8.5,8.5,0,0,1,1.26,4.921" transform="translate(20736.752 15706.07)" fill="none" stroke="#fff" stroke-miterlimit="10" stroke-width="3"/>
    <path id="패스_28140" data-name="패스 28140" d="M437.79,367.377v2.739" transform="translate(20733.662 15688.559)" fill="none" stroke="#fff" stroke-miterlimit="10" stroke-width="3"/>
    <rect id="사각형_10214" data-name="사각형 10214" width="1.979" height="4.793" rx="0.99" transform="translate(21166.025 16036.35)" fill="#ffab19"/>
    <path id="패스_28141" data-name="패스 28141" d="M114.217,241.334a1.249,1.249,0,0,1-1.3-1.184v-2.994a1.309,1.309,0,0,1,2.605,0v2.994A1.249,1.249,0,0,1,114.217,241.334Zm0-4.793a.649.649,0,0,0-.676.615v2.994a.679.679,0,0,0,1.353,0v-2.994A.649.649,0,0,0,114.217,236.541Z" transform="translate(21052.799 15800.093)" fill="#333133"/>
    <path id="패스_28142" data-name="패스 28142" d="M.9,0a1.061,1.061,0,0,1,.99.99l.15,3.145a.843.843,0,0,1-.9.9h0a1.061,1.061,0,0,1-.99-.99L0,.9A.843.843,0,0,1,.9,0Z" transform="translate(21155.766 16040.972) rotate(-45)" fill="#ffab19"/>
    <path id="패스_28144" data-name="패스 28144" d="M92.807,250.268a1.368,1.368,0,0,1-.921-.346l-2.33-2.118a1.111,1.111,0,0,1,0-1.674,1.4,1.4,0,0,1,1.842,0l2.33,2.117a1.11,1.11,0,0,1,0,1.675A1.37,1.37,0,0,1,92.807,250.268Zm-2.33-3.915a.71.71,0,0,0-.478.18.576.576,0,0,0,0,.869l2.329,2.118a.726.726,0,0,0,.957,0,.576.576,0,0,0,0-.869l-2.329-2.118A.712.712,0,0,0,90.477,246.352Z" transform="translate(21066.625 15794.005)" fill="#333133"/>
    <path id="패스_28143" data-name="패스 28143" d="M1.141,0a.843.843,0,0,1,.9.9L1.89,4.045a1.061,1.061,0,0,1-.99.99.843.843,0,0,1-.9-.9L.151.991A1.061,1.061,0,0,1,1.141,0Z" transform="translate(21174.703 16044.531) rotate(-135)" fill="#ffab19"/>
    <path id="패스_28145" data-name="패스 28145" d="M132.378,250.268a1.368,1.368,0,0,1-.921-.346,1.109,1.109,0,0,1,0-1.675l2.33-2.117a1.4,1.4,0,0,1,1.842,0,1.111,1.111,0,0,1,0,1.674l-2.33,2.118A1.37,1.37,0,0,1,132.378,250.268Zm2.33-3.915a.712.712,0,0,0-.478.18L131.9,248.65a.576.576,0,0,0,0,.869.727.727,0,0,0,.957,0l2.329-2.118a.576.576,0,0,0,0-.869A.711.711,0,0,0,134.708,246.353Z" transform="translate(21042.221 15794.005)" fill="#333133"/>
  </g>
</svg>
