<svg xmlns="http://www.w3.org/2000/svg" width="42" height="60.001">
    <path data-name="빼기 4" d="M14003 5182c-.219-.163-1.656-1.553-3.625-3.721a101.048 101.048 0 0 1-7.2-8.932 68.692 68.692 0 0 1-7.031-12.131 33.178 33.178 0 0 1-3.144-13.316c0-12.076 9.406-21.9 21-21.9 11.578 0 21 9.83 21 21.913a33.041 33.041 0 0 1-3.25 13.394 72.171 72.171 0 0 1-7.219 12.266A104.573 104.573 0 0 1 14003 5182zm.25-48a9.393 9.393 0 1 0 9.188 9.392 9.3 9.3 0 0 0-9.188-9.392z" transform="translate(-13982 -5122)" style="fill:#dfdfdf"/>
</svg>
