<svg xmlns="http://www.w3.org/2000/svg" id="ico_small_bank19_상호저축" width="36" height="36" viewBox="0 0 36 36">
    <defs>
        <linearGradient id="linear-gradient" x1=".5" x2=".5" y2="1" gradientUnits="objectBoundingBox">
            <stop offset="0" stop-color="#85c61b"/>
            <stop offset=".498" stop-color="#168b45"/>
            <stop offset="1" stop-color="#005743"/>
        </linearGradient>
        <style>
            .cls-2{fill:#fff}
        </style>
    </defs>
    <circle id="타원_85" cx="18" cy="18" r="18" fill="url(#linear-gradient)"/>
    <g id="그룹_518" transform="translate(9.248 7.178)">
        <path id="패스_1499" d="M1460.8 1460.275q1.178 0 2.234-.059v-4.773a6.332 6.332 0 0 0 5.884-3.408 5.331 5.331 0 0 0-1.333-6.571 5.424 5.424 0 0 0 .657-5.072c-1.226-3.5-4.715-3.682-5.9-3.687h-1.562v23.568zm2.234-21.169h.3a3.275 3.275 0 0 1 3.087 3.266 3.966 3.966 0 0 1-2.352 3.411c.1 0 3.045.892 3.045 3.639a3.864 3.864 0 0 1-4.084 3.64z" class="cls-2" transform="translate(-1451.958 -1436.706)"/>
        <path id="패스_1500" d="M1432.631 1445.626a4.417 4.417 0 0 1-1.729-3.245 3.044 3.044 0 0 1 1.753-2.842 7.254 7.254 0 0 1 2.828-.422h.165v-2.384h-.123a9.418 9.418 0 0 0-3.807.593 5.5 5.5 0 0 0-3.238 5.023 6.57 6.57 0 0 0 2.547 5.123c1.622 1.4 2.449 2.21 2.044 3.967-.341 1.475-2.641 3.454-3.376 3.984h3.318a7.207 7.207 0 0 0 2.415-3.482c.754-3.251-1.215-4.95-2.797-6.315z" class="cls-2" transform="translate(-1428.481 -1436.726)"/>
    </g>
</svg>
