<svg xmlns="http://www.w3.org/2000/svg" id="prefix__ico_small_bank6_KEB하나은행" width="40" height="40" viewBox="0 0 40 40">
    <defs>
        <style>
            .prefix__cls-2{fill:#fff}
        </style>
    </defs>
    <circle id="prefix__타원_73" cx="20" cy="20" r="20" fill="#008c8c" data-name="타원 73"/>
    <g id="prefix__그룹_438" data-name="그룹 438" transform="translate(24011 9011)">
        <g id="prefix__그룹_437" data-name="그룹 437" transform="translate(-24005 -9003)">
            <path id="prefix__패스_839" d="M262.945 198.76a4.921 4.921 0 0 0-.35-1.192 5.885 5.885 0 0 0-2.36-2.733 5.309 5.309 0 0 0-5.47.034 4.8 4.8 0 0 0-1.8 1.93 5.638 5.638 0 0 0-.342.844 5.932 5.932 0 0 0 .377 4.617 2.325 2.325 0 0 0 1.1.962 1.611 1.611 0 0 0 1.432-.111 1.516 1.516 0 0 0 .534-1.6 4.191 4.191 0 0 1 .053-2.234 1.7 1.7 0 0 1 .4-.635 1.468 1.468 0 0 1 .379-.259 1.579 1.579 0 0 1 .944-.154 1.807 1.807 0 0 1 1.267 1.035 4.2 4.2 0 0 1 .343 1.654 24.825 24.825 0 0 1-1.1 7.4c-.064.244-.132.487-.2.731-.053.188-.149.427-.029.61a.481.481 0 0 0 .22.168.835.835 0 0 0 .911-.324 13.216 13.216 0 0 0 3.01-5.268 16.928 16.928 0 0 0 .577-2.2 9.7 9.7 0 0 0 .111-3.271" class="prefix__cls-2" data-name="패스 839" transform="translate(-243.309 -182.598)"/>
            <path id="prefix__패스_840" d="M265.119 180.673a.627.627 0 0 0-.68-.6 3.263 3.263 0 0 0-1.017.322 41.179 41.179 0 0 1-20.263 1.914c-1.148-.166-2.311-.4-3.466-.578-.721-.112-1.434-.276-2.164-.331a2.606 2.606 0 0 0-1.9.363 2 2 0 0 0-.241 2.371 5.345 5.345 0 0 0 2.063 1.994 4.983 4.983 0 0 0 2.7.922q3.847-.246 7.672-.743c4.349-.565 8.907-1.1 12.989-2.784a16.323 16.323 0 0 0 3.8-2.129c.209-.156.507-.415.507-.718" class="prefix__cls-2" data-name="패스 840" transform="translate(-235.119 -175.924)"/>
            <path id="prefix__패스_841" d="M257.511 174.727a2.505 2.505 0 0 0 5.011 0 1.42 1.42 0 0 0-.136-.6c-.215-.455-.456-.676-.433-1.222.033-.736-.911-.745-1.418-.745a3.68 3.68 0 0 0-1.642.328 2.5 2.5 0 0 0-1.381 2.181v.058" class="prefix__cls-2" data-name="패스 841" transform="translate(-245.775 -172.16)"/>
        </g>
    </g>
</svg>
