<svg xmlns="http://www.w3.org/2000/svg" width="36" height="36" viewBox="0 0 36 36">
  <g id="그룹_3671" data-name="그룹 3671" transform="translate(-133 -1059)">
    <circle id="타원_394" data-name="타원 394" cx="18" cy="18" r="18" transform="translate(133 1059)" fill="#f8f8f8"/>
    <path id="bxs-phone" d="M24.366,20.235,19.4,15.719a1.223,1.223,0,0,0-1.7.053l-2.924,3.007A7.014,7.014,0,0,1,11.2,16.75a6.98,6.98,0,0,1-2.028-3.575l3-2.925a1.222,1.222,0,0,0,.053-1.7L7.715,3.586a1.221,1.221,0,0,0-1.7-.106L3.364,5.753a1.222,1.222,0,0,0-.354.793A18.452,18.452,0,0,0,8.253,19.7a18.5,18.5,0,0,0,12.714,5.251c.247,0,.4-.007.439-.01a1.211,1.211,0,0,0,.792-.356l2.273-2.653A1.218,1.218,0,0,0,24.366,20.235Z" transform="translate(138.117 1062.932)" fill="#bcc1cb"/>
  </g>
</svg>
