<svg xmlns="http://www.w3.org/2000/svg" width="46" height="46" viewBox="0 0 46 46">
    <defs>
        <clipPath id="clip-path">
            <path id="사각형_15782" data-name="사각형 15782" class="cls-1" transform="translate(32 5628)" d="M0 0h46v46H0z"/>
        </clipPath>
        <style>
            .cls-1{fill:#fff}
        </style>
    </defs>
    <g id="마스크_그룹_87" data-name="마스크 그룹 87" transform="translate(-32 -5628)" style="clip-path:url(#clip-path)">
        <g id="패스_596" data-name="패스 596" style="fill:none">
            <path d="M19 0A19 19 0 1 1 0 19 19 19 0 0 1 19 0z" style="stroke:none" transform="translate(36 5632)"/>
            <path d="M19 1A17.882 17.882 0 0 0 6.272 6.272C2.872 9.672 1 14.192 1 19s1.872 9.328 5.272 12.728C9.672 35.128 14.192 37 19 37s9.328-1.872 12.728-5.272C35.128 28.328 37 23.808 37 19s-1.872-9.328-5.272-12.728C28.328 2.872 23.808 1 19 1m0-1c10.493 0 19 8.507 19 19s-8.507 19-19 19S0 29.493 0 19 8.507 0 19 0z" style="fill:#fff;stroke:none" transform="translate(36 5632)"/>
        </g>
        <path id="사각형_121" data-name="사각형 121" class="cls-1" transform="rotate(180 28.458 2831.154)" d="M0 0h3.834v14.088H0z"/>
        <path id="사각형_122" data-name="사각형 122" class="cls-1" transform="rotate(180 28.458 2821.849)" d="M0 0h3.834v4.696H0z"/>
    </g>
</svg>
