<svg xmlns="http://www.w3.org/2000/svg" id="prefix__ico_small_bank5_신한_제주은행" width="40" height="40" data-name="ico_small_bank5_신한,제주은행" viewBox="0 0 40 40">
    <defs>
        <radialGradient id="prefix__radial-gradient" cx=".598" cy=".371" r=".475" gradientUnits="objectBoundingBox">
            <stop offset="0" stop-color="#fff"/>
            <stop offset="1" stop-color="#cd8f2f"/>
        </radialGradient>
        <radialGradient id="prefix__radial-gradient-2" cx=".584" cy=".374" r="1.047" gradientUnits="objectBoundingBox">
            <stop offset="0" stop-color="#00adec"/>
            <stop offset=".219" stop-color="#0082cc"/>
            <stop offset=".296" stop-color="#006ab8"/>
            <stop offset=".38" stop-color="#0059a9"/>
            <stop offset=".469" stop-color="#004ea0"/>
            <stop offset=".573" stop-color="#004b9e"/>
        </radialGradient>
    </defs>
    <path id="prefix__패스_918" fill="url(#prefix__radial-gradient)" d="M263.481 1435.524a19.522 19.522 0 1 0 20.385 18.621 19.517 19.517 0 0 0-20.385-18.621z" data-name="패스 918" transform="translate(-244.363 -1435.026)"/>
    <path id="prefix__패스_919" fill="url(#prefix__radial-gradient-2)" d="M263.46 1435.047a20 20 0 1 0 20.883 19.075 20 20 0 0 0-20.883-19.075zm2.343 19.407c3.555 3.275 5.5 5.042 5.5 5.042 6.266 5.218 4.127 9.988 1.732 11.648a11.955 11.955 0 0 1-6.5 2 .6.6 0 0 1-.7-.527c-.017-.452.643-.566.643-.566 5.916-1.165 4.187-5.044 2.093-7.023-.878-.833-9.115-7.936-9.115-7.936-7.851-6.761-7.223-12.038-7.223-12.038.379-6.494 6.067-8.105 10.369-7.733.5.043.783.352.692.771-.094.457-.76.49-.76.49a7.022 7.022 0 0 0-3.525.848c-3.466 2.332-2.443 6.3 2.18 10.714.58.557 1.2 1.142 1.832 1.736.004-.001.934.82 2.779 2.574zm-2.685 16.788c.035.633-1.5.91-3.263.738a12.575 12.575 0 0 1-7.148-2.9 13.855 13.855 0 0 1-4.058-6.545c-.65-2.26-.924-4.9.151-4.694.329.066.9 1.518 1.522 2.575a6.825 6.825 0 0 0 1.652 2.063c.224.167.977-1.51 2.072-2.464.639-.526 1.338-.706 1.449.863.137 1.928-.208 4.217.351 4.217.527 0 1.713-.4 4.317-.617.977-.083 1.535.1.6 1.419a9.881 9.881 0 0 1-2.565 2.641c2.216 2.074 4.873 1.825 4.919 2.704zm1.745-20.156a6.66 6.66 0 0 1-.072-2.51 16.994 16.994 0 0 1 1.533-4.9c.905-2.273-1.291-3.6-.929-4.44.5-1.133 2.066.306 3.814.412 1.507.084 2.413.008 3.585.164 1.555.208 3.416.735 4.245 1.709.759.889-.4 1.975-1.8 1.294-1.019-.5-2.306-.191-1.552.872a3.438 3.438 0 0 0 2.268 1.283c2.548.671 2.6 3.109.877 4.373-1.963 1.435-3.946.843-4.744-1.974-.4-1.4-1.394-2.12-2.409-1.721s-.414 2.246.357 3.961c1.54 3.926-2.285 3.8-2.73 3.744a3.184 3.184 0 0 1-2.444-2.267z" data-name="패스 919" transform="translate(-244.363 -1435.026)"/>
</svg>
