<svg xmlns="http://www.w3.org/2000/svg" width="40" height="40" viewBox="0 0 40 40">
    <g>
        <g>
            <path d="M1597.153 650.711a2.158 2.158 0 0 0-1.458-.557h-.09v-3.709a1.873 1.873 0 0 0-.637-1.417 2.712 2.712 0 0 0-1.8-.611h-23.039a5.482 5.482 0 0 0-3.9 1.284 3.523 3.523 0 0 0-1.117 2.467V678.6a4.215 4.215 0 0 0 3.126 3.817 1.529 1.529 0 0 0 .447.067h27.668a1.358 1.358 0 0 0 1.411-1.3v-29.121a1.831 1.831 0 0 0-.611-1.352zm-3.919-3.7h-.021zm-25.3 1.155v-.018c.02-.357.284-1.133 2.191-1.133h22.654v3.135h-23.436a1.828 1.828 0 0 1-1.109-.295 1.134 1.134 0 0 1-.3-.894zm27.007 31.717h-25.978a1.53 1.53 0 0 1-1.03-1.287v-26.015a5.451 5.451 0 0 0 1.344.171c.091 0 .165 0 .219-.005h25.446z" transform="translate(-637 -81) translate(-924.543 -562.449) translate(0 0)"/>
            <g transform="translate(-637 -81) translate(-924.543 -562.449) translate(1575.255 656.234)">
                <path d="M1614.463 698.529a4.957 4.957 0 0 0-1.214-1.61 5.71 5.71 0 0 0-1.886-1.077 7.3 7.3 0 0 0-2.453-.394 7.527 7.527 0 0 0-3.189.671 4.621 4.621 0 0 0-2.08 1.674 5.789 5.789 0 0 0-.839 1.706 9.585 9.585 0 0 0-.27 2.24v.148a1.826 1.826 0 0 0 3.627-.083v-.064a5.267 5.267 0 0 1 .788-2.807 2.342 2.342 0 0 1 1.911-.778 2.124 2.124 0 0 1 1.615.586 3.263 3.263 0 0 1 .232 3.242 8.126 8.126 0 0 1-.917 1.29 10.783 10.783 0 0 1-1.239 1.29 6.061 6.061 0 0 0-.929.97 3.63 3.63 0 0 0-.542 1.29 9.827 9.827 0 0 0-.138 1.141 1.565 1.565 0 0 0-.031.3 1.863 1.863 0 0 0 3.712 0v-.043a5.661 5.661 0 0 1 .116-.841 2.829 2.829 0 0 1 .556-1.108 5.6 5.6 0 0 1 .915-.959 13.437 13.437 0 0 0 1.254-1.237 6.05 6.05 0 0 0 1.046-1.577 4.934 4.934 0 0 0-.045-3.97z" transform="translate(-1602.528 -695.447)"/>
                <circle cx="2.119" cy="2.119" r="2.119" transform="translate(4.112 15.93)"/>
            </g>
        </g>
        <path fill="none" d="M0 0H40V40H0z" transform="translate(-637 -81) translate(637 81)"/>
    </g>
</svg>
