<svg xmlns="http://www.w3.org/2000/svg" width="82.299" height="115.001" viewBox="0 0 82.299 115.001">
    <path fill="#f1f1f1" d="M14023.148 5237a99.424 99.424 0 0 1-7.109-7.131 192.414 192.414 0 0 1-14.106-17.119 130.772 130.772 0 0 1-13.785-23.25c-4.112-9.2-6.181-17.789-6.147-25.525 0-23.145 18.46-41.975 41.149-41.975s41.149 18.841 41.149 42c.034 7.711-2.108 16.348-6.367 25.67a135.307 135.307 0 0 1-14.151 23.509 200.4 200.4 0 0 1-20.63 23.821zm.5-92a18 18 0 1 0 18 18 18.022 18.022 0 0 0-17.998-18z" transform="translate(-13981.999 -5122)"/>
</svg>
