<svg xmlns="http://www.w3.org/2000/svg" width="44" height="44" viewBox="0 0 44 44">
    <g data-name="그룹 83422">
        <path data-name="패스 60220" d="M153.3 11.551h-3.7a4.2 4.2 0 0 0-4.4 3.94v16.446a4.2 4.2 0 0 0 4.4 3.94h3.7a4.2 4.2 0 0 0 4.4-3.941V15.49a4.2 4.2 0 0 0-4.4-3.939m1.748 3.94v16.444A1.669 1.669 0 0 1 153.3 33.5h-3.694a1.669 1.669 0 0 1-1.748-1.565V15.492a1.67 1.67 0 0 1 1.749-1.565h3.693a1.671 1.671 0 0 1 1.749 1.564" transform="translate(-144.934 3.5)" style="fill:#9f9f9f"/>
        <path data-name="패스 60221" d="M166.806 6.01h-3.7a4.2 4.2 0 0 0-4.4 3.94v21.985a4.2 4.2 0 0 0 4.4 3.94h3.694a4.2 4.2 0 0 0 4.4-3.941V9.949a4.2 4.2 0 0 0-4.4-3.939m1.748 3.94v21.987a1.671 1.671 0 0 1-1.748 1.566h-3.693a1.67 1.67 0 0 1-1.749-1.565V9.951a1.67 1.67 0 0 1 1.749-1.565h3.692a1.671 1.671 0 0 1 1.749 1.564" transform="translate(-142.934 3.5)" style="fill:#9f9f9f"/>
        <path data-name="패스 60222" d="M180.261 0h-3.7a4.2 4.2 0 0 0-4.4 3.938v28a4.2 4.2 0 0 0 4.4 3.939h3.694a4.2 4.2 0 0 0 4.4-3.94v-28A4.2 4.2 0 0 0 180.261 0m1.748 3.935v28a1.669 1.669 0 0 1-1.748 1.565h-3.694a1.669 1.669 0 0 1-1.748-1.56v-28a1.673 1.673 0 0 1 1.749-1.562l3.693-.007a1.669 1.669 0 0 1 1.748 1.563" transform="translate(-140.934 3.5)" style="fill:#9f9f9f"/>
        <path data-name="사각형 24565" style="fill:none" d="M0 0h44v44H0z"/>
    </g>
</svg>
