<svg data-name="그룹 83500" xmlns="http://www.w3.org/2000/svg" width="36" height="46" viewBox="0 0 36 46">
    <defs>
        <clipPath id="fogvbtlcva">
            <path data-name="사각형 24785" style="fill:none" d="M0 0h36v46H0z"/>
        </clipPath>
    </defs>
    <g data-name="그룹 83516" style="clip-path:url(#fogvbtlcva)">
        <path data-name="패스 60540" d="M32.39 63.642a5.66 5.66 0 1 1-5.66-5.756 5.708 5.708 0 0 1 5.66 5.756" transform="translate(-8.73 -23.398)" style="fill:#ffb83b"/>
        <path data-name="패스 60541" d="M33.022 34.943a40.47 40.47 0 0 1-.525-8.779c.266-8.511-5.612-17.146-14.5-17.28-8.885.134-14.76 8.769-14.5 17.28a40.708 40.708 0 0 1-.521 8.779 4.592 4.592 0 0 0 1.53 8.892h26.978a4.593 4.593 0 0 0 1.537-8.891" transform="translate(0 -3.591)" style="fill:#ffd039"/>
        <path data-name="패스 60542" d="M27.83 8.349a4.146 4.146 0 0 1-4.105-4.175 4.1 4.1 0 1 1 8.208 0 4.144 4.144 0 0 1-4.1 4.175m0-6.591a2.417 2.417 0 1 0 2.376 2.417 2.4 2.4 0 0 0-2.379-2.417" transform="translate(-9.83)" style="fill:#ffd039"/>
        <path data-name="패스 60543" d="M12.5 29.566h-.055a2.13 2.13 0 0 1-2.055-2.2c.3-12.128 8.39-13.869 8.733-13.937a2.113 2.113 0 0 1 2.473 1.7 2.143 2.143 0 0 1-1.64 2.509c-.265.064-5.139 1.342-5.35 9.841a2.127 2.127 0 0 1-2.106 2.087" transform="translate(-4.303 -5.412)" style="fill:#ffde82"/>
    </g>
</svg>
