<svg xmlns="http://www.w3.org/2000/svg" width="360" height="360" viewBox="0 0 360 360">
  <g id="_1_semo" data-name="1_semo" transform="translate(-230 -609)">
    <path id="패스_60885" data-name="패스 60885" d="M271.517,283.49H62.768a62.252,62.252,0,0,1-17.9-2.579,60.461,60.461,0,0,1-15.514-7.148A65.443,65.443,0,0,1,.043,216.593,63.881,63.881,0,0,1,3.1,199.471a65.831,65.831,0,0,1,8.1-16.533L115.578,28.311a63.633,63.633,0,0,1,10.4-11.928,61.719,61.719,0,0,1,88.348,6.167,63.46,63.46,0,0,1,4.382,5.761L323.082,182.938a65.808,65.808,0,0,1,8.1,16.533,63.659,63.659,0,0,1,3.066,17.122,65.433,65.433,0,0,1-29.321,57.17,60.572,60.572,0,0,1-15.507,7.155,62.533,62.533,0,0,1-17.9,2.572M168.971,97.082a19.993,19.993,0,0,0-16.539,8.848l-48.058,70.885a20.86,20.86,0,0,0,5.093,28.643,19.834,19.834,0,0,0,11.424,3.661h96.123a20.359,20.359,0,0,0,20.124-20.594,20.878,20.878,0,0,0-3.6-11.71L185.488,105.93A20.038,20.038,0,0,0,168.971,97.082Z" transform="translate(242.857 646.938)" fill="#17bf98"/>
    <rect id="사각형_25150" data-name="사각형 25150" width="360" height="360" transform="translate(230 609)" fill="none"/>
  </g>
</svg>
