<svg xmlns="http://www.w3.org/2000/svg" width="360" height="360" viewBox="0 0 360 360">
  <g id="_4_money_off" data-name="4_money_off" transform="translate(-435 -609)">
    <g id="그룹_83766" data-name="그룹 83766" transform="translate(460.714 634.714)">
      <path id="패스_60888" data-name="패스 60888" d="M338.555,0H337.3A154.29,154.29,0,0,0,183.049,153.108c-.649,85.047,68.01,154.786,153.144,155.463h.456c85.016,0,154.532-69.187,154.967-154.282C491.616,69.885,422.956.67,338.555,0m-1.236,260.2c-58.05,0-105.683-47.234-106.187-105.293A106.34,106.34,0,0,1,336.289,47.787h.345c58.623,0,106.581,47.67,106.906,106.205,0,58.059-47.226,105.7-105.282,106.205Zm1.036,10.99v0Z" transform="translate(-183.044)" fill="#e8e8e8"/>
      <path id="패스_60889" data-name="패스 60889" d="M329.163,41.525l.54-1.559H317.186l2.868-11.63a10.405,10.405,0,0,0-.589-7.446l-.069-.139a8.764,8.764,0,0,0-5.95-4.447,9.1,9.1,0,0,0-6.982.776l-.235.139a9.3,9.3,0,0,0-4.108,6.5L298.3,39.987h-20l-3.6-14.643a12.6,12.6,0,0,0-4.2-7.044l-.118-.09a10.855,10.855,0,0,0-6.525-2.272H263.8a11.213,11.213,0,0,0-6.664,2.223l-.125.1a11.929,11.929,0,0,0-4.2,7.135l-3.581,14.588H229.417l-3.775-16.333a8.858,8.858,0,0,0-4.752-6.892l-.381-.173a10.558,10.558,0,0,0-6.774-.249,9.512,9.512,0,0,0-5.929,4.537l-.09.173a11.115,11.115,0,0,0-.741,7.959l2.7,10.972h-6.317a8.285,8.285,0,0,0,0,16.562h10.383l13.576,55.268a12.985,12.985,0,0,0,4.156,7.065l.1.09a10.782,10.782,0,0,0,6.719,2.383h.056A11.109,11.109,0,0,0,244.9,119.1l.1-.076a12.408,12.408,0,0,0,4.308-7.079l13.6-55.4h1.462L277.6,111.8a13,13,0,0,0,4.156,7.072l.083.069a10.639,10.639,0,0,0,6.636,2.4,10.969,10.969,0,0,0,6.656-2.258l.132-.1a12.644,12.644,0,0,0,4.2-7.044l13.632-55.4h11.5a8.284,8.284,0,0,0,4.565-15.024m-34.759,15-5.881,25.04-6.158-25.04Zm-49.242,0-6.137,25.026-5.777-25.026Z" transform="translate(-110.717 93.774)" fill="#e8e8e8"/>
    </g>
    <rect id="사각형_25153" data-name="사각형 25153" width="360" height="360" transform="translate(435 609)" fill="none"/>
  </g>
</svg>
