<svg xmlns="http://www.w3.org/2000/svg" width="281.159" height="199.235">
    <defs>
        <style>
            .cls-3,.cls-5{fill:none}.cls-2,.cls-3,.cls-5,.cls-6,.cls-7,.cls-8,.cls-9{stroke-linecap:round;stroke-linejoin:round}.cls-5,.cls-6,.cls-7,.cls-8,.cls-9{stroke-width:2.5px}.cls-2{fill:#eefff8}.cls-2,.cls-3{stroke:#97b7a3;stroke-width:2.499px}.cls-4,.cls-6{fill:#fff}.cls-5,.cls-6,.cls-7,.cls-8,.cls-9{stroke:#000}.cls-7{fill:#cee6fe}.cls-8{fill:#cefeeb}.cls-9{fill:#baf9e1}
        </style>
    </defs>
    <g id="그룹_56785" data-name="그룹 56785" transform="translate(620.524 -408.672)">
        <path id="패스_44918" data-name="패스 44918" d="M-568.914 589.706a110.2 110.2 0 0 1 37.788-151.2 110.2 110.2 0 0 1 151.2 37.788 110.2 110.2 0 0 1 0 113.408" transform="translate(-1.047 -.412)" style="stroke-width:2.5px;stroke-linecap:round;stroke-linejoin:round;stroke:#97a7b7;stroke-dasharray:2 8;fill:none"/>
        <g id="그룹_56769" data-name="그룹 56769" transform="translate(-444.696 504.01)">
            <path id="사각형_13230" data-name="사각형 13230" class="cls-2" transform="rotate(-40.008 36.215 13.184)" d="M0 0h41.015v84.772H0z"/>
            <path id="사각형_13231" data-name="사각형 13231" class="cls-2" transform="rotate(-40.008 42.256 .231)" d="M0 0h27.187v70.943H0z"/>
            <circle id="타원_1538" data-name="타원 1538" class="cls-2" cx="8.403" cy="8.403" r="8.403" transform="translate(34.555 37.248)"/>
            <path id="선_3" data-name="선 3" class="cls-3" transform="translate(54.975 59.97)" d="m0 0 4.17 4.968"/>
            <path id="선_4" data-name="선 4" class="cls-3" transform="translate(26.769 26.364)" d="M4.17 4.968 0 0"/>
        </g>
        <g id="그룹_56770" data-name="그룹 56770" transform="translate(-536.282 408.672)">
            <circle id="타원_1539" data-name="타원 1539" class="cls-4" cx="19.316" cy="19.316" r="19.316"/>
            <path id="선_5" data-name="선 5" class="cls-5" transform="translate(19.316 6.465)" d="M0 6.396V0"/>
            <path id="선_6" data-name="선 6" class="cls-5" transform="translate(10.229 10.229)" d="M4.523 4.523 0 0"/>
            <path id="선_7" data-name="선 7" class="cls-5" transform="translate(6.465 19.316)" d="M6.396 0H0"/>
            <path id="선_8" data-name="선 8" class="cls-5" transform="translate(10.229 23.881)" d="M4.523 0 0 4.523"/>
            <path id="선_9" data-name="선 9" class="cls-5" transform="translate(19.316 25.771)" d="M0 0v6.396"/>
            <path id="선_10" data-name="선 10" class="cls-5" transform="translate(23.881 23.881)" d="m0 0 4.523 4.523"/>
            <path id="선_11" data-name="선 11" class="cls-5" transform="translate(25.771 19.316)" d="M0 0h6.396"/>
            <path id="선_12" data-name="선 12" class="cls-5" transform="translate(23.881 10.229)" d="M0 4.523 4.523 0"/>
        </g>
        <g id="그룹_56771" data-name="그룹 56771" transform="translate(-375.773 526.169)">
            <circle id="타원_1540" data-name="타원 1540" class="cls-4" cx="11.119" cy="11.119" r="11.119"/>
            <circle id="타원_1541" data-name="타원 1541" class="cls-6" cx="4.009" cy="4.009" r="4.009" transform="translate(7.11 7.11)"/>
        </g>
        <g id="그룹_56773" data-name="그룹 56773" transform="translate(-620.524 534.564)">
            <circle id="타원_1542" data-name="타원 1542" class="cls-4" cx="15.095" cy="15.095" r="15.095"/>
            <g id="그룹_56772" data-name="그룹 56772" transform="translate(4.62 4.62)">
                <path id="선_13" data-name="선 13" class="cls-5" transform="translate(10.474)" d="M0 5.213V0"/>
                <path id="선_14" data-name="선 14" class="cls-5" transform="translate(0 10.474)" d="M5.213 0H0"/>
                <path id="선_15" data-name="선 15" class="cls-5" transform="translate(10.474 15.736)" d="M0 0v5.213"/>
                <path id="선_16" data-name="선 16" class="cls-5" transform="translate(15.736 10.474)" d="M0 0h5.213"/>
            </g>
        </g>
        <g id="그룹_56775" data-name="그룹 56775" transform="translate(-360.644 546.385)">
            <circle id="타원_1543" data-name="타원 1543" class="cls-4" cx="10.639" cy="10.639" r="10.639"/>
            <g id="그룹_56774" data-name="그룹 56774" transform="translate(3.256 3.256)">
                <path id="선_17" data-name="선 17" class="cls-5" transform="translate(7.383)" d="M0 3.675V0"/>
                <path id="선_18" data-name="선 18" class="cls-5" transform="translate(0 7.383)" d="M3.675 0H0"/>
                <path id="선_19" data-name="선 19" class="cls-5" transform="translate(7.383 11.091)" d="M0 0v3.675"/>
                <path id="선_20" data-name="선 20" class="cls-5" transform="translate(11.091 7.383)" d="M0 0h3.675"/>
            </g>
        </g>
        <g id="그룹_56781" data-name="그룹 56781" transform="translate(-536.362 410.643)">
            <path id="패스_44922" data-name="패스 44922" class="cls-7" d="m-484.107 453.21-2.839-2.839-.6.6a9.9 9.9 0 0 0-12.8 5.68 9.9 9.9 0 0 0 0 7.12l-.6.6 2.839 2.839a9.907 9.907 0 0 0 14.01 0 9.907 9.907 0 0 0 0-14.01z" transform="translate(532.877 -411.857)"/>
            <circle id="타원_1544" data-name="타원 1544" class="cls-8" cx="9.906" cy="9.906" r="9.906" transform="translate(34.359 35.612)"/>
            <path id="패스_44923" data-name="패스 44923" class="cls-7" d="m-481.512 427.615 2.839 2.839.6-.6a9.9 9.9 0 0 0 12.8-5.68 9.9 9.9 0 0 0 0-7.12l.6-.606-2.827-2.848a9.906 9.906 0 0 0-14.009 0 9.906 9.906 0 0 0 0 14.009z" transform="translate(532.393 -410.702)"/>
            <circle id="타원_1545" data-name="타원 1545" class="cls-8" cx="9.906" cy="9.906" r="9.906" transform="translate(50.817 2.84)"/>
            <path id="패스_44924" data-name="패스 44924" class="cls-7" d="M-450.521 439.933h-4.015v.855a9.9 9.9 0 0 0-5.035 13.068 9.9 9.9 0 0 0 5.035 5.034v.855h4.015a9.9 9.9 0 0 0 9.905-9.905 9.906 9.906 0 0 0-9.905-9.906z" transform="translate(531.693 -411.555)"/>
            <circle id="타원_1546" data-name="타원 1546" class="cls-8" cx="9.906" cy="9.906" r="9.906" transform="translate(67.249 28.377)"/>
            <path id="패스_44925" data-name="패스 44925" class="cls-6" d="M-432.818 459.945a6.919 6.919 0 0 0-11.295 0h0a6.919 6.919 0 0 1-11.295 0 6.92 6.92 0 0 0-11.3 0h0a6.919 6.919 0 0 1-11.295 0h0a6.919 6.919 0 0 0-11.295 0h0a6.919 6.919 0 0 1-11.295 0h0a6.919 6.919 0 0 0-11.295 0h0a8.323 8.323 0 0 1-1.97 1.8l16.935 26.484h49.125l16.937-26.488a8.343 8.343 0 0 1-1.961-1.8z" transform="translate(533.251 -412.053)"/>
            <path id="패스_44926" data-name="패스 44926" class="cls-6" d="M-412.034 566.627c0 33.641-27.265 36.892-60.906 36.892s-60.894-3.254-60.894-36.892c0-21.478 11.13-59.887 27.926-73.551a58.092 58.092 0 0 1 15.776-9.281h34.385a58.375 58.375 0 0 1 15.788 9.293c16.804 13.662 27.925 52.06 27.925 73.539z" transform="translate(533.834 -412.834)"/>
            <path id="패스_44927" data-name="패스 44927" class="cls-9" d="M-437.211 489.007a5.167 5.167 0 0 1-1.524 3.689 4.64 4.64 0 0 1-.445.4 5.191 5.191 0 0 1-3.242 1.141h-59.466a5.273 5.273 0 0 1-5.223-5.222 5.228 5.228 0 0 1 5.223-5.211h59.466a5.208 5.208 0 0 1 5.211 5.2z" transform="translate(533.055 -412.834)"/>
        </g>
        <g id="그룹_56782" data-name="그룹 56782" transform="translate(-590.334 538.866)">
            <path id="패스_44930" data-name="패스 44930" class="cls-5" d="M-506.027 562.2s7.748-3.3 7.748-11.812-11.941 7.118 3.3 7.118" transform="translate(586.995 -542.925)"/>
            <path id="패스_44931" data-name="패스 44931" class="cls-7" d="M-512.088 595.178v11.6a5.314 5.314 0 0 1-5.312 5.322h0a5.313 5.313 0 0 1-5.313-5.313v-11.6" transform="translate(587.481 -544.305)"/>
            <path id="패스_44932" data-name="패스 44932" class="cls-7" d="M-563.729 595.178v11.6a5.314 5.314 0 0 1-5.313 5.313h0a5.312 5.312 0 0 1-5.312-5.312h0v-11.6" transform="translate(588.987 -544.305)"/>
            <path id="패스_44933" data-name="패스 44933" class="cls-9" d="M-525.977 552.039h-30.509a26.369 26.369 0 0 0-25.353 19.138h-7.588v14.453h7.588a26.369 26.369 0 0 0 25.353 19.14h30.509a26.366 26.366 0 0 0 26.365-26.37h0a26.367 26.367 0 0 0-26.365-26.361z" transform="translate(589.427 -543.047)"/>
            <path id="패스_44934" data-name="패스 44934" class="cls-9" d="M-571.517 560.716v-17.939h0a14.534 14.534 0 0 1 14.533 14.532v3.407" transform="translate(588.905 -542.777)"/>
            <path id="선_21" data-name="선 21" class="cls-5" transform="translate(41.521 13.926)" d="M0 0h18.286"/>
            <path id="패스_44935" data-name="패스 44935" class="cls-9" d="M-558.256 595.178v11.6a5.314 5.314 0 0 1-5.313 5.313h0a5.313 5.313 0 0 1-5.313-5.313v-11.6" transform="translate(588.828 -544.305)"/>
            <path id="패스_44936" data-name="패스 44936" class="cls-9" d="M-506.615 595.178v11.6a5.314 5.314 0 0 1-5.313 5.313h0a5.313 5.313 0 0 1-5.313-5.313v-11.6" transform="translate(587.322 -544.305)"/>
            <path id="선_22" data-name="선 22" class="cls-5" transform="translate(17.387 26.492)" d="M0 0v3.033"/>
        </g>
        <g id="그룹_56784" data-name="그룹 56784" transform="translate(-552.705 515.618)">
            <circle id="타원_1547" data-name="타원 1547" class="cls-6" cx="13.035" cy="13.035" r="13.035"/>
            <g id="그룹_56783" data-name="그룹 56783" transform="translate(8.325 6.04)">
                <path id="패스_44937" data-name="패스 44937" class="cls-6" d="M-542.091 537.047h6.947a2.47 2.47 0 0 0 2.471-2.469h0a2.47 2.47 0 0 0-2.47-2.47h-4.478a2.47 2.47 0 0 1-2.471-2.471h0a2.469 2.469 0 0 1 2.469-2.471h6.949" transform="translate(542.092 -525.114)"/>
                <path id="선_23" data-name="선 23" class="cls-5" transform="translate(4.71)" d="M0 0v13.992"/>
            </g>
        </g>
        <text id="_" data-name="￦" transform="translate(-450.366 566.673)" style="fill:#17bf98;font-size:47px;font-family:Jalnan;letter-spacing:-.02em"><tspan x="-47" y="0">￦</tspan></text>
    </g>
</svg>
