<svg xmlns="http://www.w3.org/2000/svg" width="180" height="180">
    <defs>
        <clipPath id="clip-path">
            <path id="사각형_13149" data-name="사각형 13149" transform="translate(480 414)" style="fill:none" d="M0 0h180v180H0z"/>
        </clipPath>
        <style>
            .cls-3{fill:#fff}.cls-4{fill:#362322}.cls-6{fill:#1bd9ac}.cls-7{fill:#ffa4b1;opacity:.68}
        </style>
    </defs>
    <g id="마스크_그룹_14" data-name="마스크 그룹 14" transform="translate(-480 -414)" style="clip-path:url(#clip-path)">
        <g id="그룹_56751" data-name="그룹 56751" transform="translate(-20311.168 -2579.113)">
            <g id="그룹_56736" data-name="그룹 56736" transform="translate(20805.645 3108.138)">
                <path id="패스_44884" data-name="패스 44884" class="cls-3" d="M4170.389 938.97c.926-2.125 3.159-2.891 5.169-3.224a18.688 18.688 0 0 1 8.557.241c-.991-1.142-.115-3.325 1.21-3.81s2.74.152 4.009.812a13.656 13.656 0 0 0 1.9.867l26.821-7.341 10.67 12.077c-10.11 10.627-24.141 13.542-37.467 10.719l-.046.345c-5.645 1.006-9.447.48-14.894-1.528a10.686 10.686 0 0 1-4.863-3.11 6.214 6.214 0 0 1-1.066-6.048z" transform="translate(-4167.66 -924.18)"/>
                <path id="패스_44885" data-name="패스 44885" class="cls-4" d="M4169.49 937.24a7.683 7.683 0 0 1 .428-.766c.144-.241-.324.352-.034.051.105-.109.206-.219.318-.322l.112-.1q.231-.19 0 0c-.158.12-.157.122.005.006l.125-.082c.234-.149.48-.266.725-.4s-.474.175-.073.029c.143-.052.283-.1.427-.152q.357-.117.725-.206c.606-.15 1.223-.241 1.839-.337.464-.072-.237.025.044-.008.15-.017.3-.037.451-.053.31-.033.619-.061.93-.08a15.089 15.089 0 0 1 1.65-.013q.433.021.861.066a1.826 1.826 0 0 1 .4.046c-.52-.188-.153-.02.05.013.705.111 1.4.252 2.1.4a2.4 2.4 0 0 0 2.639-1.074 2.47 2.47 0 0 0-.365-2.832l.213.268q-.175-.322.073.219a2.3 2.3 0 0 0-.067-.243l.047.369a2.552 2.552 0 0 1-.007-.259c-.029-.441-.142.418-.029.161a1.944 1.944 0 0 0 .085-.326c.1-.436-.23.335-.055.118a1.929 1.929 0 0 0 .167-.3c.2-.38-.382.38.006 0 .248-.24.158.012-.132.075.054-.012.471-.169.045-.061-.513.13.19-.039.194-.037l-.253.029a3.049 3.049 0 0 1 .368-.009c.152-.01.374-.09-.065-.022a1.718 1.718 0 0 1 .555.137c.124.038.245.083.368.125q.371.146-.013-.011c.12.054.24.11.358.167 1.28.62 2.763 1.711 4.24 1.365.12-.028.236-.065.354-.1l5.246-1.436 16.915-4.63 4.293-1.175-2.275-.6 9.346 10.578 1.324 1.5v-3.305a39.446 39.446 0 0 1-3.037 2.867q-.408.345-.825.678c-.09.072-.183.154-.278.219.484-.333 0 0-.088.065q-.838.632-1.712 1.214a36.59 36.59 0 0 1-3.408 2.017q-.831.432-1.683.823c-.256.118-.516.231-.774.344-.535.234.477-.189-.066.026-.183.073-.364.147-.549.219a38.381 38.381 0 0 1-7.354 2.048c-.276.048-.551.094-.828.136a3.957 3.957 0 0 1-.5.073c.641-.012.1-.014-.044 0q-1 .124-2.007.2-1.893.141-3.792.112-2.163-.031-4.316-.273l-.508-.059c-.3-.036-.433-.037-.055 0-.395-.034-.791-.115-1.183-.178a49.037 49.037 0 0 1-2.189-.411c-1.105-.232-2.7.32-2.874 1.633l-.047.345 1.632-1.632c-.471.083-.948.174-1.424.227.42-.046.028-.006-.161.015q-.38.043-.762.077a24.46 24.46 0 0 1-2.545.092 20.867 20.867 0 0 1-1.226-.056 10.055 10.055 0 0 0-1.213-.124c.067 0 .535.081.1.01l-.259-.042c-.2-.033-.406-.07-.609-.109q-.618-.119-1.231-.268a34.03 34.03 0 0 1-2.562-.737q-.683-.224-1.358-.468c-.16-.057-1.177-.315-1.209-.46 0 .006.521.235.076.029-.08-.037-.16-.072-.239-.11q-.279-.13-.552-.272a10.826 10.826 0 0 1-1.059-.633 1.435 1.435 0 0 1-.289-.206s.326.278.124.091c-.155-.142-.318-.272-.469-.418q-.2-.19-.378-.394a1.861 1.861 0 0 1-.238-.282c.067.124.228.332.074.079-.116-.19-.24-.374-.346-.57-.054-.1-.1-.2-.153-.3-.175-.345.06.065.033.089s-.324-1.292-.369-1.323c.012.009.04.466.026.2-.007-.143-.024-.283-.029-.426-.006-.2.016-.4.014-.594 0-.327-.1.438-.021.12.025-.109.042-.219.068-.328a5.075 5.075 0 0 1 .242-.715 2.344 2.344 0 0 0-1.633-2.875 2.41 2.41 0 0 0-2.875 1.632 8.207 8.207 0 0 0 .436 6.428 9.89 9.89 0 0 0 4.405 4.425 29.859 29.859 0 0 0 5.872 2.222 27.72 27.72 0 0 0 5.883 1.025 30.306 30.306 0 0 0 7.1-.539 2.246 2.246 0 0 0 1.632-1.632l.047-.345-2.875 1.632c10.912 2.291 22.6.967 32.128-5.073a40.68 40.68 0 0 0 7.612-6.247 2.392 2.392 0 0 0 0-3.305l-9.344-10.578-1.325-1.5a2.319 2.319 0 0 0-2.274-.6l-9.082 2.486-14.416 3.945-3.324.909h1.243c-.053-.018-.568-.224-.3-.107s-.3-.149-.294-.144c-.28-.136-.556-.282-.833-.425a15.272 15.272 0 0 0-2.086-.914 5.487 5.487 0 0 0-4.578.341 5.274 5.274 0 0 0-2.242 3.121 4.586 4.586 0 0 0 .941 4.165l2.274-3.906a29.458 29.458 0 0 0-4.66-.691 22.834 22.834 0 0 0-4.516.351c-2.858.435-5.9 1.58-7.189 4.4a2.393 2.393 0 0 0 .839 3.2 2.365 2.365 0 0 0 3.205-.844z" transform="translate(-4164.743 -921.27)"/>
            </g>
            <ellipse id="타원_1529" data-name="타원 1529" cx="32.275" cy="6.232" rx="32.275" ry="6.232" transform="translate(20856.324 3177.91)" style="fill:#d6d6d2"/>
            <g id="그룹_56737" data-name="그룹 56737" transform="translate(20849.523 3083.053)">
                <path id="패스_44886" data-name="패스 44886" class="cls-3" d="m4330.406 888.6-50.3-18.371c-9.13 12.49-17.1 45.846-6.4 74.906 3.843 10.435 11.562 26.66 20.786 23.1 11.907-4.593 4.391-15.256 4.275-19.776l3.219.677-.925 1.376c1.049 4.056 2.142 8.208 4.54 11.644s6.409 6.061 10.576 5.618c3.925-.418 7.174-3.471 8.921-7.01s2.257-7.542 2.743-11.459l5.872-47.383z" transform="translate(-4266.233 -867.868)"/>
                <path id="패스_44887" data-name="패스 44887" class="cls-4" d="m4328.1 883.4-5.006-1.828-12.02-4.39-14.539-5.31-12.562-4.588-4.113-1.5c-.652-.239-1.3-.519-1.972-.72-.028-.009-.058-.021-.087-.032a2.382 2.382 0 0 0-2.639 1.074 47.215 47.215 0 0 0-5.354 10.154 82.775 82.775 0 0 0-4.05 13.289 101.71 101.71 0 0 0-1.807 33.5 88.986 88.986 0 0 0 9.715 31.471c2.208 4.15 4.882 8.289 8.662 11.172a10.368 10.368 0 0 0 12.092.877 11.654 11.654 0 0 0 4.928-4.579 11.071 11.071 0 0 0 1.269-5.762c-.145-3.361-1.443-6.393-2.244-9.61q-.1-.416-.179-.837c-.112-.6.046.608.013.132-.009-.13-.021-.26-.025-.39l-2.959 2.253 3.219.678-1.4-3.433-.791 1.176c-.778 1.157-.254 2.467.072 3.689a48.989 48.989 0 0 0 2.223 6.634c1.72 4.028 4.627 7.757 8.724 9.554a11.69 11.69 0 0 0 12.847-1.865c3.5-2.85 5.312-7.23 6.194-11.543.5-2.442.772-4.926 1.078-7.4l.942-7.6 1.884-15.207 1.9-15.317.928-7.493a5.674 5.674 0 0 0-.247-2.269l-2.987-12.023-.078-.314a2.338 2.338 0 0 0-4.507 1.243l2.557 10.291.583 2.35c.047.194.1.387.145.582.007.033.018.065.024.1 0 .006-.11-.4-.11-.4a3.9 3.9 0 0 0-.056.441l-.135 1.1-1.748 14.1-3.5 28.21-.447 3.6c-.062.5-.121 1-.191 1.5.079-.552-.039.271-.055.378q-.064.449-.135.9a30.388 30.388 0 0 1-1.561 6.209c-.047.124-.1.247-.148.371-.131.33.159-.325 0-.007-.1.209-.194.426-.3.635q-.311.63-.68 1.229c-.218.355-.454.7-.7 1.034-.257.358.021-.061.062-.076-.045.017-.166.206-.208.258q-.241.288-.495.563-.42.455-.884.871a2.223 2.223 0 0 1-.5.426c.335-.129.252-.187.083-.065-.11.08-.22.16-.333.237a10.887 10.887 0 0 1-1.113.671c-.168.087-.339.167-.51.249-.386.184.063-.049.112-.047a2.274 2.274 0 0 0-.456.166 8.966 8.966 0 0 1-1.174.309c-.106.021-.214.036-.322.056-.261.048.211-.032.216-.03a3.208 3.208 0 0 0-.854.049c-.2 0-.4 0-.594-.016a7.64 7.64 0 0 1-.337-.026c-.095-.009-.441-.09-.108-.009.357.087-.261-.055-.354-.075q-.412-.089-.817-.212a10.06 10.06 0 0 1-.563-.19c-.107-.039-.211-.082-.318-.122-.306-.115.38.183.088.034-.434-.223-.869-.431-1.288-.686-.2-.12-.391-.246-.581-.377-.075-.051-.584-.412-.326-.226s-.044-.036-.105-.086q-.134-.11-.267-.223-.3-.256-.582-.527-.475-.452-.9-.945a19.93 19.93 0 0 1-.445-.533c-.211-.252.235.331.048.061-.083-.118-.17-.232-.252-.35a19.767 19.767 0 0 1-1.551-2.656q-.171-.345-.328-.7c-.053-.117-.1-.235-.156-.352.034.077.177.435.011.026q-.289-.717-.548-1.445c-.345-.976-.649-1.967-.93-2.963s-.542-2-.8-3l-.235 1.8.925-1.377a2.352 2.352 0 0 0-1.4-3.433l-3.219-.677a2.365 2.365 0 0 0-2.958 2.254 15.847 15.847 0 0 0 .877 4.136c.458 1.473.939 2.942 1.265 4.452.083.383.151.769.216 1.155.1.586-.058-.588 0 .012.023.229.047.457.062.687.023.368.032.737.021 1.106q-.01.314-.039.626c-.006.069-.016.139-.021.208-.031.4.126-.682.009-.105a9.828 9.828 0 0 1-.274 1.116 2.973 2.973 0 0 0-.181.5c.057-.493.2-.437.065-.167-.065.129-.126.259-.2.386a7.566 7.566 0 0 1-.281.474c-.063.1-.481.675-.212.318s.014-.026-.037.035c-.077.09-.156.179-.238.267q-.252.271-.526.52a7.721 7.721 0 0 1-.291.252c-.178.15-.445.209.059-.037a5.637 5.637 0 0 0-.566.4 13.572 13.572 0 0 1-1.585.888c-.148.071-.3.138-.448.206-.122.056-.347.214.087-.036a4.047 4.047 0 0 1-.764.284q-.27.086-.543.152c-.107.026-.217.049-.325.069s-.6.1-.121.026-.2.006-.331.011c-.175.006-.354 0-.53 0-.263-.012-.928-.2-.114.012-.2-.052-.418-.072-.624-.121a11.163 11.163 0 0 1-1.126-.36c-.409-.145.54.264.154.063-.065-.034-.135-.062-.2-.095-.236-.115-.468-.24-.7-.372a12.219 12.219 0 0 1-1.076-.708c-.064-.047-.127-.1-.193-.144.589.4.223.172.09.064q-.289-.236-.568-.485a21.534 21.534 0 0 1-2.1-2.186c-.148-.177-.3-.356-.44-.536-.086-.108-.167-.231-.262-.331.448.471.119.152.02.021q-.524-.7-1.011-1.42a47.288 47.288 0 0 1-1.756-2.809c-1.163-2.007-2.2-4.085-3.159-6.2q-.345-.763-.676-1.531l-.178-.415c-.21-.491.207.5 0 .008-.112-.272-.226-.545-.337-.818q-.613-1.5-1.18-3.021a82.672 82.672 0 0 1-4.277-16.627c-.052-.346-.1-.692-.151-1.039-.018-.135-.089-.573-.006-.04-.029-.188-.048-.378-.072-.566q-.141-1.13-.255-2.263-.206-2.062-.32-4.131-.234-4.2-.107-8.415.117-4.073.563-8.129.1-.954.227-1.907c.015-.113.039-.231.044-.344-.035.639-.009.068.009-.064q.072-.511.147-1.021.287-1.922.647-3.833a88.782 88.782 0 0 1 3.607-13.471q.535-1.5 1.138-2.968l.154-.371c.146-.356-.069.164-.081.191.109-.238.206-.482.312-.722q.309-.7.637-1.4a44.431 44.431 0 0 1 2.5-4.616c.4-.64.819-1.266 1.264-1.876l-2.639 1.074 5 1.828 12.02 4.39 14.539 5.31 12.563 4.588c2.022.738 4.034 1.565 6.084 2.222.03.009.059.021.088.032a2.35 2.35 0 0 0 2.875-1.632 2.4 2.4 0 0 0-1.623-2.872z" transform="translate(-4263.31 -864.922)"/>
            </g>
            <path id="패스_44888" data-name="패스 44888" class="cls-6" d="m4321.677 975.484-7.184-12.358a4.332 4.332 0 0 0-6.935-.427l-8.879 10.47c-2.31 3.212-1.481 7.516 3.277 7.913l15.915 1.328c2.97.247 5.52-3.443 3.806-6.926zm-9.049.646-5.62-.415c-1.679-.124-1.959-1.627-1.133-2.758l3.169-3.69a1.536 1.536 0 0 1 2.449.128l2.5 4.3a1.64 1.64 0 0 1-1.365 2.435z" transform="translate(16567.279 2164.733)"/>
            <g id="그룹_56739" data-name="그룹 56739" transform="translate(20907.516 2997.227)">
                <g id="그룹_56738" data-name="그룹 56738">
                    <path id="패스_44889" data-name="패스 44889" class="cls-6" d="M4400.78 706.3c-2.587-1.058-2.972-4.556-2.57-7.321a31.263 31.263 0 0 1 11.528-19.884c1.988-1.557 4.491-2.925 6.934-2.284 2.495.655 4.068 3.315 4.188 5.892a14.439 14.439 0 0 1-2.147 7.335 44.2 44.2 0 0 1-10.966 13.283c-1.811 1.476-4.331 2.852-6.349 1.677" transform="translate(-4396.071 -674.636)"/>
                    <path id="패스_44890" data-name="패스 44890" class="cls-4" d="M4399.294 702.061c-.214-.092-.407-.21-.611-.319-.388-.208.289.3-.019-.01-.061-.063-.129-.119-.19-.182l-.091-.1c-.139-.163-.118-.13.061.1-.065-.028-.148-.212-.187-.275a1.979 1.979 0 0 1-.348-.659l.1.223c-.034-.087-.064-.175-.094-.264s-.057-.18-.084-.27q-.1-.346-.162-.7c-.03-.164-.193-.5-.015-.048a1.39 1.39 0 0 1-.031-.295c-.025-.3-.037-.595-.039-.893 0-.494.037-.982.081-1.474.046-.511-.083.513.01-.068.018-.116.035-.232.055-.347.056-.347.12-.692.188-1.037a30.336 30.336 0 0 1 .941-3.564q.276-.834.6-1.652c.064-.163.13-.326.2-.489-.03.073-.151.347 0-.007.142-.322.285-.642.435-.96a31.434 31.434 0 0 1 1.77-3.236q.464-.745.972-1.463.253-.359.517-.711c.028-.039.387-.5.114-.153.108-.138.217-.276.328-.412a30.783 30.783 0 0 1 2.488-2.72q.631-.612 1.3-1.186.332-.286.673-.563c.136-.111.272-.222.412-.329-.268.207.153-.108.206-.146a13.867 13.867 0 0 1 1.641-1.028q.213-.112.43-.215c.081-.038.465-.186.136-.062a8.044 8.044 0 0 1 1.075-.331c.121-.027.241-.05.363-.071-.45.075.139 0 .2 0 .154-.006.306 0 .459 0 .107.005.493.077.11 0a7.459 7.459 0 0 1 .806.22c-.423-.134-.112-.049.007.012a4.807 4.807 0 0 1 .457.264c.084.055.167.114.247.172-.406-.293-.009.009.06.074.187.175.345.371.521.556-.272-.285-.1-.134-.033-.039.084.13.174.256.255.388a7.219 7.219 0 0 1 .43.831c-.2-.453.083.279.119.406.073.252.125.507.179.763.081.38.013-.017 0-.069a1.962 1.962 0 0 1 .037.464 11.107 11.107 0 0 1-.024 1.182c-.025.4-.007.146 0 .053a8.7 8.7 0 0 1-.1.581c-.065.322-.143.642-.234.959s-.194.633-.307.944q-.067.188-.139.374c-.048.124-.1.247-.149.371.072-.172.059-.148-.037.073a41.681 41.681 0 0 1-4.1 6.885c-.074.1-.148.2-.224.3l-.226.3q-.193.251-.072.1c.165-.216-.213.272-.191.243q-.175.222-.354.441-.711.878-1.468 1.719-1.482 1.646-3.122 3.139-.8.728-1.639 1.417c-.028.023-.509.4-.159.135q-.217.164-.44.32c-.3.209-.61.406-.93.586q-.2.111-.4.213c-.08.041-.162.081-.244.118q.307-.122-.016 0c-.332.116-.661.2-1 .279.377-.094.15-.011.034-.012s-.8-.057-.288.032a3.904 3.904 0 0 1-.321-.07 2.982 2.982 0 0 1-.315-.1q.328.136.016-.021a2 2 0 0 0-2.022 3.46c3.216 1.762 6.561-.149 9.068-2.229a44.1 44.1 0 0 0 6.2-6.3 46.119 46.119 0 0 0 4.972-7.5c1.546-2.953 2.706-6.245 2.028-9.609a8.06 8.06 0 0 0-5.3-6.168c-3.419-1.028-6.734.911-9.307 2.976a33.229 33.229 0 0 0-9.9 13.613 26.954 26.954 0 0 0-2.074 8.923c-.092 2.863.806 6.353 3.693 7.6a2.058 2.058 0 0 0 2.74-.718 2.026 2.026 0 0 0-.719-2.741z" transform="translate(-4393.573 -672.128)"/>
                </g>
                <path id="패스_44891" data-name="패스 44891" class="cls-4" d="M4404.9 730.835a13.147 13.147 0 0 1-.224-1.046c-.008-.05-.016-.1-.022-.151.021.152 0-.044-.006-.06a5.063 5.063 0 0 1-.027-.6c0-.1.006-.2.015-.3 0-.021.022-.17.007-.068s.014-.07.019-.09a2.282 2.282 0 0 1 .068-.271l.041-.119c.026-.077.035-.078 0 0a2.431 2.431 0 0 1 .198-.352c.024-.035.122-.143.019-.03.06-.065.116-.134.179-.2a2.63 2.63 0 0 1 .122-.113c.012-.01.158-.124.043-.039a3.9 3.9 0 0 1 .594-.356.674.674 0 0 0 .24-.913.681.681 0 0 0-.914-.24 3.344 3.344 0 0 0-1.866 2.227 6.7 6.7 0 0 0 .228 3.066.668.668 0 1 0 1.288-.355z" transform="translate(-4398.96 -701.914)"/>
            </g>
            <g id="그룹_56741" data-name="그룹 56741" transform="translate(20916.146 3006.79)">
                <g id="그룹_56740" data-name="그룹 56740">
                    <path id="패스_44892" data-name="패스 44892" class="cls-6" d="M4417.476 716.2a27.34 27.34 0 0 1 18.064-17.617c3.279-.957 7.664-.8 9.092 2.3.8 1.73.323 3.774-.4 5.534-3.961 9.6-15.784 15.137-25.692 12.036" transform="translate(-4415.465 -696.079)"/>
                    <path id="패스_44893" data-name="패스 44893" class="cls-4" d="M4416.9 714.259c.184-.573.386-1.139.609-1.7.027-.068.243-.574.049-.127.043-.1.086-.2.131-.3q.2-.45.416-.891a26.828 26.828 0 0 1 1.8-3.12c.184-.272.371-.542.563-.807q.1-.133.193-.264c.04-.055.375-.491.084-.117q.555-.711 1.155-1.386a28.076 28.076 0 0 1 2.567-2.534q.371-.323.756-.632c.084-.069.17-.136.256-.2.43-.341-.33.236.115-.086.487-.354.972-.705 1.478-1.034a26.82 26.82 0 0 1 3.142-1.762c.271-.129.547-.249.821-.373.3-.135-.443.174.049-.021.152-.06.3-.122.458-.181q.842-.324 1.7-.589a14.547 14.547 0 0 1 1.57-.394l.288-.051c.156-.026.516-.181.051-.011a3.268 3.268 0 0 1 .881-.073 12.18 12.18 0 0 1 1.6.044c.4.034-.09-.024-.109-.016.074-.032.336.059.416.076a7.01 7.01 0 0 1 .8.215l.128.044c.205.078.17.061-.1-.053.072-.007.232.108.3.142a3.291 3.291 0 0 1 .617.371c-.007.02-.325-.284-.1-.075.1.088.195.172.286.264.029.03.273.255.262.292.021-.07-.249-.365 0 .027.073.117.134.238.2.358.194.355-.021-.2.031.086a4.64 4.64 0 0 0 .125.45c.158.522.014-.341.033.2.011.316.005.624-.013.941-.033.586.1-.35-.035.225-.045.188-.079.378-.126.566-.082.313-.178.622-.283.927-.064.182-.136.36-.2.541-.22.586.17-.365-.048.115-.228.5-.469 1-.736 1.482a19.576 19.576 0 0 1-1.286 2.022c-.087.122-.178.241-.268.361.2-.265.075-.1-.057.065a20.962 20.962 0 0 1-2.27 2.388 21.977 21.977 0 0 1-.915.779c-.068.056-.477.364-.068.057a24.98 24.98 0 0 1-1.354.954 22.9 22.9 0 0 1-2.9 1.6c-.137.063-.275.123-.413.185-.384.173.349-.134-.078.032-.281.109-.561.221-.844.324q-.922.332-1.869.583-.872.232-1.762.392c-.147.026-.3.052-.444.075-.122.019-.589.1-.062.014-.294.05-.6.071-.894.1a20.352 20.352 0 0 1-3.74-.013 15.103 15.103 0 0 1-.372-.04c-.541-.063.283.053-.136-.018-.3-.05-.592-.1-.886-.156a19.368 19.368 0 0 1-1.9-.485 2.022 2.022 0 0 0-2.464 1.4 2.046 2.046 0 0 0 1.4 2.465c9.791 3.019 21.117-1.544 26.508-10.154 1.6-2.56 2.974-5.743 2.384-8.811a6.761 6.761 0 0 0-5.653-5.155 15.127 15.127 0 0 0-7.794.894 28.506 28.506 0 0 0-7.1 3.75 29.631 29.631 0 0 0-10.8 14.756 2.02 2.02 0 0 0 1.4 2.464 2.048 2.048 0 0 0 2.464-1.4z" transform="translate(-4412.958 -693.609)"/>
                </g>
                <path id="패스_44894" data-name="패스 44894" class="cls-4" d="M4423.611 735.4a11.072 11.072 0 0 1 7.431-5.282c.843-.166.486-1.453-.354-1.288a12.368 12.368 0 0 0-8.229 5.9.668.668 0 0 0 1.153.674z" transform="translate(-4418.177 -713.141)"/>
            </g>
            <g id="그룹_56742" data-name="그룹 56742" transform="translate(20820.607 3018.141)">
                <path id="패스_44895" data-name="패스 44895" class="cls-3" d="M4323.945 750.964c13.109 19.293 18.012 46.007 7.865 62.087-4.825 7.647-11.7 14.263-31.512 14.572-16.856.263-46.367-5.206-72.92-16.133-13.433-5.528-23.215-16.231-23.017-27.762.455-26.423 28.5-54.552 60.656-58.149 24.026-2.688 46.023 6.388 58.928 25.385z" transform="translate(-4201.687 -722.44)"/>
                <path id="패스_44896" data-name="패스 44896" class="cls-4" d="M4318.308 748.978a78.651 78.651 0 0 1 5.083 8.645q1.09 2.157 2.05 4.378c.048.111.321.743.047.1.079.185.155.371.231.557q.229.557.45 1.118.479 1.213.917 2.44a76.653 76.653 0 0 1 2.687 9.321q.52 2.366.877 4.763.042.284.082.57c.1.661-.074-.614.006.048.046.378.093.755.135 1.134q.133 1.219.22 2.443a54.339 54.339 0 0 1-.083 8.95q-.051.53-.113 1.059a2.041 2.041 0 0 0-.065.526l.049-.361-.049.348q-.163 1.12-.384 2.231a39.239 39.239 0 0 1-1 3.97q-.3.96-.648 1.9-.173.467-.361.929c-.086.211-.358.553.015-.027a4.81 4.81 0 0 0-.267.6 30.854 30.854 0 0 1-1.923 3.6q-.7 1.131-1.479 2.218c-.127.178-.255.355-.386.531-.144.192-.691.833-.049.072-.308.366-.6.75-.91 1.114a26.76 26.76 0 0 1-1.95 2.045q-.51.479-1.045.928c-.152.127-.305.251-.459.375s-.537.338.165-.122c-.134.088-.258.2-.388.291a25.1 25.1 0 0 1-2.648 1.7q-.7.392-1.426.741c-.249.121-.5.237-.753.35-.129.058-.261.109-.389.17.794-.383.162-.068-.023.006a38.5 38.5 0 0 1-7.659 2.128c-.366.065-.73.126-1.1.183l-.563.084c-.146.022-.791.151-.055.01a25.782 25.782 0 0 1-2.61.283c-1.771.155-3.551.24-5.328.273a114.551 114.551 0 0 1-15.958-.983c-.365-.045-.731-.091-1.095-.138l-.554-.072c-.65-.085.621.086-.032 0q-1.226-.17-2.451-.351-2.336-.351-4.663-.757-5.125-.894-10.2-2.031-10.7-2.385-21.154-5.742-5.461-1.754-10.826-3.78-2.662-1.008-5.3-2.088a27.55 27.55 0 0 0-.152-.06c-.192-.078-.382-.164-.572-.248q-.568-.25-1.128-.514-1.2-.566-2.376-1.2a46.968 46.968 0 0 1-4.112-2.487c-.648-.44-1.28-.9-1.907-1.369-.534-.4.444.361-.071-.056l-.451-.361q-.519-.422-1.024-.86a37.243 37.243 0 0 1-3.322-3.264 9.151 9.151 0 0 1-1.395-1.664c.3.588.1.135-.018-.027-.106-.142-.21-.285-.315-.429a22.779 22.779 0 0 1-.6-.869 27.073 27.073 0 0 1-2.111-3.75c-.071-.154-.138-.309-.208-.463-.248-.55.226.579.009.017-.12-.312-.244-.623-.356-.939q-.362-1.016-.624-2.064c-.16-.64-.279-1.286-.392-1.937-.1-.59.071.654.005.059-.018-.163-.038-.326-.053-.49q-.048-.491-.072-.984a29.634 29.634 0 0 1 .119-4q.041-.475.094-.949c.024-.223.208-1.309.042-.4.125-.683.207-1.374.336-2.057.24-1.276.539-2.54.888-3.79q.556-1.987 1.28-3.922a16.779 16.779 0 0 0 .739-1.867c-.16.675-.093.22-.006.019l.2-.464q.241-.542.493-1.079a59.951 59.951 0 0 1 4.146-7.383q1.217-1.854 2.558-3.622c.108-.142.211-.292.326-.427-.475.558-.067.089.023-.026q.333-.424.673-.843.683-.842 1.393-1.663a73.876 73.876 0 0 1 6.427-6.552q1.664-1.5 3.412-2.9c.292-.233.581-.476.884-.7-.578.42-.052.041.055-.04.148-.114.3-.227.45-.34q.979-.734 1.982-1.437a76.4 76.4 0 0 1 7.913-4.859q2.1-1.121 4.276-2.106.521-.237 1.047-.465c.175-.076.349-.159.527-.227-.674.256-.058.026.068-.026q1.148-.475 2.313-.91a69.082 69.082 0 0 1 9-2.684q2.345-.527 4.725-.882l.572-.083c.664-.1-.612.073.055-.006.318-.038.638-.079.958-.115q1.291-.144 2.586-.244a71.908 71.908 0 0 1 9.767-.1q2.29.135 4.564.423c.165.021.786.03.041 0a5.162 5.162 0 0 1 .562.08q.559.082 1.117.175 1.206.2 2.4.442a62.442 62.442 0 0 1 8.732 2.445q1.036.373 2.055.784c.17.068.339.138.509.207.593.24-.552-.24.035.014.392.169.782.339 1.17.515q2.073.94 4.07 2.038 1.911 1.052 3.74 2.246.913.6 1.8 1.228.447.316.886.64.22.162.438.327c.124.093.814.562.184.136a31.354 31.354 0 0 1 3.425 2.887q1.668 1.522 3.214 3.171 1.529 1.633 2.93 3.379.177.22.351.441c.084.107.5.592.043.054.245.284.458.6.682.906q.675.918 1.316 1.861a2.672 2.672 0 0 0 4.613-2.7 62.2 62.2 0 0 0-13.482-14.311 61 61 0 0 0-16.562-8.98 67.265 67.265 0 0 0-19.027-3.771 72.465 72.465 0 0 0-20.08 1.672 74.165 74.165 0 0 0-18.482 7 79.468 79.468 0 0 0-15.884 11.262 73.28 73.28 0 0 0-12.152 14.259 57.3 57.3 0 0 0-7.288 15.993c-1.5 5.521-2.289 11.624-.84 17.235 1.571 6.078 5.464 11.428 10.134 15.523a47.384 47.384 0 0 0 8.522 5.948 85.2 85.2 0 0 0 10.526 4.583 231.557 231.557 0 0 0 22.065 7.148 230.693 230.693 0 0 0 21.059 4.68 168.065 168.065 0 0 0 18.715 2.266 76.482 76.482 0 0 0 18.671-.959 30.482 30.482 0 0 0 22.227-15.184 40.267 40.267 0 0 0 5.308-17.2 62.736 62.736 0 0 0-1.427-19.327 81.528 81.528 0 0 0-7.012-19.374 78.7 78.7 0 0 0-4.991-8.464 2.672 2.672 0 0 0-4.613 2.7z" transform="translate(-4198.357 -719.107)"/>
            </g>
            <g id="그룹_56743" data-name="그룹 56743" transform="translate(20874.078 3159.228)">
                <path id="패스_44897" data-name="패스 44897" class="cls-3" d="M4322.209 1039.782a15.407 15.407 0 0 0 11.878 1.958" transform="translate(-4320.544 -1038.113)"/>
                <path id="패스_44898" data-name="패스 44898" class="cls-4" d="M4319.292 1039.143a17.222 17.222 0 0 0 13.165 2.126 1.67 1.67 0 0 0-.888-3.219 13.886 13.886 0 0 1-1.45.283c.2-.026-.4.038-.473.044q-.367.03-.736.042a15.013 15.013 0 0 1-2.683-.155 13.554 13.554 0 0 1-5.25-2 1.67 1.67 0 0 0-1.685 2.883z" transform="translate(-4318.47 -1036.032)"/>
            </g>
            <ellipse id="타원_1530" data-name="타원 1530" class="cls-7" cx="6.539" cy="6.412" rx="6.539" ry="6.412" transform="rotate(-2.906 71242.035 -410414.382)"/>
            <ellipse id="타원_1531" data-name="타원 1531" class="cls-7" cx="6.16" cy="6.04" rx="6.16" ry="6.04" transform="rotate(-2.906 71038.039 -409682.538)"/>
            <g id="그룹_56744" data-name="그룹 56744" transform="translate(20877.387 3075.277)">
                <path id="패스_44899" data-name="패스 44899" class="cls-3" d="M4329.036 850.444a3.547 3.547 0 0 0 1.821 4.415c1.807 1.153 4.909.784 6.6-.528a5.646 5.646 0 0 0 4.241 3.962c4.562.681 5.167-3.379 4.98-3.285" transform="translate(-4327.548 -849.112)"/>
                <path id="패스_44900" data-name="패스 44900" d="M4326.105 848.43a5.554 5.554 0 0 0 .238 3.7 5.707 5.707 0 0 0 2.631 2.463 7.688 7.688 0 0 0 7.519-.764l-2.011-1.153c.381 3.011 3.461 5.27 6.359 5.371a5.34 5.34 0 0 0 5.352-3.536 3.149 3.149 0 0 0 .21-1.026 1.388 1.388 0 0 0-1.719-1.419 1.337 1.337 0 0 0 .711 2.575h-.7.005l-.589-.344a2.105 2.105 0 0 1-.375-.84.761.761 0 0 1-.008.088c.028-.545.024-.184-.021-.017-.036.133-.09.259-.131.389.138-.441-.036.058-.111.19a5.641 5.641 0 0 1-.167.266c-.1.163-.107.125.011 0-.139.152-.292.294-.429.446s.2-.11-.107.081c-.084.053-.168.107-.255.156-.061.034-.466.2-.16.088-.125.044-.249.088-.377.123s-.272.066-.412.092c.271-.051-.168.013-.229.016a5.908 5.908 0 0 1-.941-.024 3.459 3.459 0 0 1-1.666-.705 6.835 6.835 0 0 1-.611-.553c-.113-.118-.221-.239-.326-.364s-.115-.141-.04-.047c-.037-.052-.075-.1-.112-.158a8.904 8.904 0 0 1-.417-.713q-.064-.138.031.083a2.502 2.502 0 0 1-.065-.178c-.029-.105-.1-.49-.041-.036a1.411 1.411 0 0 0-.661-1.153 1.31 1.31 0 0 0-1.348 0 5.327 5.327 0 0 1-4.783.781 5.614 5.614 0 0 1-.9-.549 4.222 4.222 0 0 1-.458-.426s-.218-.271-.139-.161-.086-.147-.1-.172a2.313 2.313 0 0 1-.11-.213c.1.23 0-.018-.013-.073-.023-.1-.05-.2-.07-.3.027.138 0 .1 0-.02a4.5 4.5 0 0 1 .114-1.251 1.367 1.367 0 0 0-.933-1.643 1.349 1.349 0 0 0-1.643.933z" transform="translate(-4325.904 -847.453)"/>
            </g>
            <g id="그룹_56745" data-name="그룹 56745" transform="translate(20884.318 3073.281)">
                <ellipse id="타원_1532" data-name="타원 1532" cx="1.336" cy="4.007" rx="1.336" ry="4.007" transform="rotate(-73.179 1.762 1.225)"/>
                <path id="패스_44901" data-name="패스 44901" d="M4348.062 847.913a10.051 10.051 0 0 1-2.8-.467 9.742 9.742 0 0 1-2.727-1.257c-1.052-.743-1.136-1.354-1.019-1.735s.522-.845 1.81-.881a9.881 9.881 0 0 1 2.967.464 9.773 9.773 0 0 1 2.726 1.257c1.051.743 1.135 1.354 1.02 1.736-.115.381-.523.844-1.811.88zm-4.574-3.449c-.694 0-1.089.132-1.125.247-.011.036.063.314.68.751a10.032 10.032 0 0 0 5.155 1.558c.756-.021.972-.211.983-.248.011-.037-.064-.314-.681-.752a10.072 10.072 0 0 0-5.012-1.557z" transform="translate(-4341.472 -843.304)"/>
            </g>
            <path id="패스_44902" data-name="패스 44902" d="m4347.411 848.336-2.43 4.72a.684.684 0 0 0 .24.914.675.675 0 0 0 .913-.24l2.43-4.72a.684.684 0 0 0-.239-.914.675.675 0 0 0-.914.24z" transform="translate(16540.945 2227.516)"/>
            <circle id="타원_1533" data-name="타원 1533" cx="3.606" cy="3.606" r="3.606" transform="translate(20870.074 3065.783)"/>
            <circle id="타원_1534" data-name="타원 1534" cx="4.007" cy="4.007" r="4.007" transform="translate(20902.48 3073.768)"/>
            <g id="그룹_56746" data-name="그룹 56746" transform="translate(20903.061 3121.04)">
                <path id="패스_44903" data-name="패스 44903" class="cls-3" d="M4395.343 955.5c7.567 0 14.246 7.568 14.219 15.151-.02 5.768-3.108 11.741-8.473 13.86 1.114 1.891 2.259 3.713 1.394 5.729-1.212 2.823-5.387 3.251-8.037 1.7-6.316-3.71-7.577-13.731-2.375-18.889" transform="translate(-4386.486 -953.163)"/>
                <path id="패스_44904" data-name="패스 44904" class="cls-4" d="M4392.421 954.924c.312 0 .624.013.935.038a2.4 2.4 0 0 0 .462.047l-.314-.041c.1.015.2.032.306.049a12.4 12.4 0 0 1 1.8.459c.146.049.292.1.437.156l.144.056c.235.095.194.075-.127-.059a2.281 2.281 0 0 1 .705.328 14.468 14.468 0 0 1 1.75 1.037c.13.09.256.184.385.274s.338.158-.1-.078a4.48 4.48 0 0 1 .729.609 16.584 16.584 0 0 1 1.354 1.349c.213.239.416.486.619.733.351.43-.3-.42.022.036.093.131.188.259.28.391a16.665 16.665 0 0 1 1 1.638q.226.422.427.857c.018.04.251.511.075.159s.046.117.063.162a15.111 15.111 0 0 1 .62 1.964q.093.383.164.771c.006.032.091.462.078.466l-.04-.309q.02.155.036.312a13.989 13.989 0 0 1 .063 1.887c-.011.318-.03.637-.059.954-.014.159-.034.317-.05.476-.058.56.091-.544 0 .012a20.917 20.917 0 0 1-.4 1.876 17.193 17.193 0 0 1-.555 1.667l-.06.148q-.146.355.051-.118a1.67 1.67 0 0 1-.2.434q-.238.5-.509.986a6.867 6.867 0 0 1-1.121 1.709c.437-.388.085-.114-.025.016s-.2.238-.306.354q-.362.406-.758.781c-.187.177-.568.657-.82.712l.228-.175-.188.139a11.445 11.445 0 0 1-1.386.865q-.208.11-.42.212c-.1.045-.19.089-.285.132q.474-.2.12-.052a2.44 2.44 0 0 0-1.514 1.353 2.288 2.288 0 0 0 .118 2.08 9.61 9.61 0 0 1 1.158 2.112c-.142-.534.014.057.044.147.04.117.076.235.108.355l.044.178c.049.266.052.238 0-.084a1.57 1.57 0 0 1 0 .726c.206-.538-.035-.022-.064.118-.125.585.209-.317-.019.06-.067.111-.137.227-.2.341-.174.316.089-.129.136-.159a2.856 2.856 0 0 0-.542.545c.246-.365.322-.233.057-.062-.146.094-.3.17-.453.256-.417.235.533-.176.074-.027-.085.027-.167.06-.252.087a8.054 8.054 0 0 1-.788.192c-.49.1.58-.036.076-.013-.138.007-.277.02-.415.024-.281.008-.558-.013-.838-.027-.51-.028.565.113.066.01-.138-.029-.275-.052-.412-.084-.273-.064-.534-.154-.8-.239-.475-.151.489.253.05.024-.081-.042-.164-.079-.245-.122a8.475 8.475 0 0 1-.815-.5 2.261 2.261 0 0 0-.332-.236c.467.194.253.2.047.031q-.259-.215-.506-.447a9.006 9.006 0 0 1-.565-.575c-.092-.1-.18-.2-.267-.3-.145-.172-.349-.629-.054-.052-.22-.429-.57-.815-.812-1.238a12.885 12.885 0 0 1-.378-.717c-.05-.1-.094-.2-.144-.306-.248-.516.157.425 0 0a15.734 15.734 0 0 1-.507-1.551c-.057-.22-.109-.441-.155-.664-.028-.134-.053-.267-.079-.4-.033-.191-.048-.806-.018-.054a22.468 22.468 0 0 1-.016-3.264c.02-.188.125-.316-.029.218.049-.169.058-.361.091-.534a12.558 12.558 0 0 1 .457-1.693c.044-.127.094-.252.14-.379.14-.388-.244.527.026-.061a10.824 10.824 0 0 1 .852-1.525c.074-.112.154-.221.231-.332.23-.334-.36.432.051-.061.2-.245.421-.478.645-.7a2.337 2.337 0 0 0-3.305-3.3 14.767 14.767 0 0 0-2.939 15.427 14.173 14.173 0 0 0 5.211 6.766 9.1 9.1 0 0 0 8.9.729 6.214 6.214 0 0 0 3.38-4.2c.525-2.507-.629-4.69-1.862-6.783l-1.4 3.433a15.4 15.4 0 0 0 7.135-5.834 18.941 18.941 0 0 0 2.962-8.611 17.94 17.94 0 0 0-6.84-15.569 15.792 15.792 0 0 0-9.625-3.587 2.337 2.337 0 1 0 0 4.674z" transform="translate(-4383.563 -950.25)"/>
            </g>
            <g id="그룹_56747" data-name="그룹 56747" transform="translate(20875.492 3034.369)">
                <path id="패스_44905" data-name="패스 44905" d="M4323.917 759.918q.1-.084.2-.165c-.1.077-.085.069.04-.026.144-.1.284-.2.431-.29a8.978 8.978 0 0 1 .907-.5l.237-.108c-.121.049-.107.044.039-.015.163-.061.325-.122.489-.176a9.274 9.274 0 0 1 1-.268c.17-.035.34-.066.511-.092-.268.04.241-.022.291-.026a9.055 9.055 0 0 1 1.037-.022 8.966 8.966 0 0 1 .775.061c-.139-.018-.131-.016.03.009.341.068.677.138 1.01.235a1.336 1.336 0 1 0 .71-2.575 10.516 10.516 0 0 0-9.6 2.069 1.341 1.341 0 0 0 0 1.889 1.372 1.372 0 0 0 1.888 0z" transform="translate(-4321.639 -755.56)"/>
                <path id="패스_44906" data-name="패스 44906" d="M4416.211 778.808a10.492 10.492 0 0 0-8.193-5.39 1.34 1.34 0 0 0-1.335 1.336 1.372 1.372 0 0 0 1.335 1.336c.008 0 .343.041.136.013s.094.016.134.023a8.1 8.1 0 0 1 .515.106 8.741 8.741 0 0 1 1.005.3c.082.03.162.064.245.094.185.067-.288-.134.02.008.159.074.317.148.473.228a9.332 9.332 0 0 1 .9.536c.146.1.286.2.428.305-.088-.065-.135-.108-.022-.014.08.068.161.134.241.2a9.092 9.092 0 0 1 .716.7q.179.193.344.4c.089.108.123.163.018.019.052.071.1.141.154.212a8.766 8.766 0 0 1 .576.941 1.347 1.347 0 0 0 1.827.479 1.365 1.365 0 0 0 .479-1.827z" transform="translate(-4368.824 -765.466)"/>
            </g>
            <g id="그룹_56748" data-name="그룹 56748" transform="translate(20802.865 3086.873)">
                <rect id="사각형_13148" data-name="사각형 13148" class="cls-6" width="34.278" height="54.756" rx="10" transform="translate(2.003 2.003)"/>
                <path id="패스_44907" data-name="패스 44907" class="cls-4" d="M4188.1 932.263h-20.924a8.691 8.691 0 0 1-8.681-8.681v-41.4a8.691 8.691 0 0 1 8.681-8.681h20.924a8.691 8.691 0 0 1 8.68 8.681v41.4a8.691 8.691 0 0 1-8.68 8.681zm-20.924-54.756a4.679 4.679 0 0 0-4.674 4.674v41.4a4.679 4.679 0 0 0 4.674 4.674h20.924a4.679 4.679 0 0 0 4.673-4.674v-41.4a4.679 4.679 0 0 0-4.673-4.674z" transform="translate(-4158.5 -873.5)"/>
            </g>
            <path id="패스_44908" data-name="패스 44908" class="cls-3" d="m4198.333 920.586-5.737-8.2a3.032 3.032 0 0 0-4.862.11l-5.579 7.825c-1.421 2.376-.59 5.33 2.751 5.327l11.18-.01c2.086 0 3.648-2.724 2.247-5.052zm-6.275.982-3.943.041c-1.179.012-1.463-1.02-.953-1.857l1.993-2.76a1.076 1.076 0 0 1 1.716-.055l2 2.853a1.148 1.148 0 0 1-.812 1.778z" transform="translate(16631.607 2192.443)"/>
            <g id="그룹_56750" data-name="그룹 56750" transform="translate(20795 3116.089)">
                <g id="그룹_56749" data-name="그룹 56749">
                    <path id="패스_44909" data-name="패스 44909" class="cls-3" d="M4164.648 953.371c.653 5.935-1.539 11.159-7.419 11.815a10.813 10.813 0 0 1-2.364-21.5c5.878-.652 9.129 3.749 9.783 9.685z" transform="translate(-4143.329 -941.625)"/>
                    <path id="패스_44910" data-name="패스 44910" class="cls-4" d="M4153.532 964.762a12.566 12.566 0 0 1-7.888-2.783 12.846 12.846 0 0 1 6.5-22.774 9.923 9.923 0 0 1 7.469 1.994c2.5 2 4.069 5.274 4.529 9.458.859 7.8-2.748 13.307-9.187 14.026a12.905 12.905 0 0 1-1.423.079zm-.035-21.627a8.137 8.137 0 0 0-.906.052 8.838 8.838 0 0 0-4.442 15.664 8.576 8.576 0 0 0 6.363 1.849c6.148-.686 5.879-7.526 5.65-9.606-.336-3.059-1.42-5.463-3.051-6.768a5.617 5.617 0 0 0-3.611-1.191z" transform="translate(-4140.834 -939.13)"/>
                </g>
            </g>
        </g>
    </g>
</svg>
