<svg width="32" height="32" viewBox="0 0 32 32" fill="none" xmlns="http://www.w3.org/2000/svg">
<path d="M15.307 32C14.5114 32 13.7483 31.6839 13.1857 31.1213C12.6231 30.5587 12.307 29.7956 12.307 29V19.692H3C2.20435 19.692 1.44129 19.3759 0.87868 18.8133C0.31607 18.2507 0 17.4876 0 16.692L0 15.307C0 14.5114 0.31607 13.7483 0.87868 13.1857C1.44129 12.6231 2.20435 12.307 3 12.307H12.308V3C12.308 2.20435 12.6241 1.44129 13.1867 0.87868C13.7493 0.31607 14.5124 0 15.308 0L16.693 0C17.4887 0 18.2517 0.31607 18.8143 0.87868C19.3769 1.44129 19.693 2.20435 19.693 3V12.308H29C29.7956 12.308 30.5587 12.6241 31.1213 13.1867C31.6839 13.7493 32 14.5124 32 15.308V16.693C32 17.4887 31.6839 18.2517 31.1213 18.8143C30.5587 19.3769 29.7956 19.693 29 19.693H19.692V29C19.692 29.7956 19.3759 30.5587 18.8133 31.1213C18.2507 31.6839 17.4876 32 16.692 32H15.307Z" fill="white"/>
</svg>
