<svg xmlns="http://www.w3.org/2000/svg" width="46" height="46" viewBox="0 0 46 46">
    <defs>
        <clipPath id="zzihl580na">
            <path data-name="사각형 24572" style="fill:none" d="M0 0h43.946v34.712H0z"/>
        </clipPath>
    </defs>
    <g data-name="그룹 83433">
        <path data-name="사각형 24571" style="fill:none" d="M0 0h46v46H0z"/>
        <g data-name="그룹 83432">
            <g data-name="그룹 83431" style="clip-path:url(#zzihl580na)" transform="translate(1 6)">
                <path data-name="패스 60271" d="M26.478 34.159a16.924 16.924 0 0 0 10.108-7.6l-2.91-1.833a13.554 13.554 0 0 1-8.095 6.085 13.844 13.844 0 0 1-16.86-9.9q-.159-.593-.267-1.192l3.557 2.938 2.147-2.673-6.5-5.375a1.688 1.688 0 0 0-2.379.212.275.275 0 0 0-.022.026L0 21.388l2.66 2.2L5.145 20.5c.081.434.174.866.289 1.3a17.283 17.283 0 0 0 21.044 12.359" style="fill:#9e9e9e"/>
                <path data-name="패스 60272" d="M35.225 13.8c.106.395.195.794.267 1.193l-3.554-2.94-2.147 2.677 6.5 5.376a1.688 1.688 0 0 0 2.379-.212l.022-.027 5.255-6.544-2.659-2.2-2.488 3.096a18.002 18.002 0 0 0-.29-1.3A17.285 17.285 0 0 0 17.468.552a16.961 16.961 0 0 0-9.962 7.355l2.887 1.882A13.565 13.565 0 0 1 18.369 3.9a13.844 13.844 0 0 1 16.856 9.9" style="fill:#9e9e9e"/>
            </g>
        </g>
    </g>
</svg>
