<svg xmlns="http://www.w3.org/2000/svg" width="40" height="40" viewBox="0 0 40 40">
  <g id="그룹_56512" data-name="그룹 56512" transform="translate(-634 -81)">
    <g id="그룹_56179" data-name="그룹 56179" transform="translate(551 -125)">
      <path id="합치기_27" data-name="합치기 27" d="M34.081,37.252l0,0h0l-8.423-8.563a13.571,13.571,0,0,1-18.2-1.1A14.122,14.122,0,0,1,7.463,7.856a13.573,13.573,0,0,1,19.424-.012A14.13,14.13,0,0,1,28.43,25.7l8.285,8.421a2.071,2.071,0,0,1,.72,1.576,2.042,2.042,0,0,1-2.023,2.06A1.994,1.994,0,0,1,34.081,37.252ZM14.4,7.251A10.648,10.648,0,0,0,9.63,10.06a10.968,10.968,0,0,0-.009,15.333,10.547,10.547,0,0,0,15.086-.009,10.968,10.968,0,0,0,.008-15.334,10.606,10.606,0,0,0-7.553-3.169A10.473,10.473,0,0,0,14.4,7.251Z" transform="translate(82.564 205.239)" fill="#222"/>
      <rect id="사각형_12691" data-name="사각형 12691" width="36" height="36" transform="translate(85 208)" fill="none"/>
    </g>
    <rect id="사각형_12778" data-name="사각형 12778" width="40" height="40" transform="translate(634 81)" fill="none"/>
  </g>
</svg>
