<svg width="40" height="40" viewBox="0 0 40 40" fill="none" xmlns="http://www.w3.org/2000/svg">
<path d="M20 39.5C30.7696 39.5 39.5 30.7696 39.5 20C39.5 9.23045 30.7696 0.5 20 0.5C9.23045 0.5 0.5 9.23045 0.5 20C0.5 30.7696 9.23045 39.5 20 39.5Z" stroke="#222222"/>
<path d="M18.6124 18.815C20.8124 18.902 23.1124 18.115 23.1124 15.623C23.11 15.2215 23.0243 14.8249 22.8607 14.4583C22.697 14.0916 22.459 13.763 22.1618 13.4931C21.8646 13.2232 21.5145 13.018 21.1339 12.8904C20.7532 12.7629 20.3502 12.7157 19.9503 12.752C17.6593 12.752 16.5274 14.812 16.5864 16.9H13.2794C13.4534 12.956 15.9194 10 20.0084 10C23.1704 10 26.4194 11.827 26.4194 15.423C26.486 16.3633 26.2407 17.2993 25.7215 18.0861C25.2023 18.8729 24.4381 19.4665 23.5474 19.775V19.833C25.8384 20.297 27.2313 22.298 27.2313 24.909C27.2313 28.738 23.9243 31.117 20.0383 31.117C15.3383 31.117 12.9893 28.274 12.9023 24.039H16.2094C16.1224 26.504 17.4563 28.361 20.0383 28.361C22.2383 28.361 23.9243 27.055 23.9243 24.735C23.9243 21.574 21.2243 21.168 18.6163 21.283L18.6124 18.815Z" fill="#222222"/>
</svg>
