<svg xmlns="http://www.w3.org/2000/svg" id="그룹_56329" width="196.301" height="222.657" viewBox="0 0 196.301 222.657">
    <defs>
        <style>
            .cls-1{fill:#fff}.cls-2{fill:#362322}.cls-4{fill:#1bd9ac}.cls-5{fill:#ffa4b1;opacity:.68}
        </style>
    </defs>
    <g id="그룹_56308" transform="translate(29.78 104.611)">
        <path id="패스_44352" d="M532.467 2213.36c10.319 15.652 31.484 21.889 50.206 20.923l3.177-23.817-34.282-17.366-16.813-3.023s-20.075-3.696-2.288 23.283z" class="cls-1" transform="translate(-522.662 -2187.415)"/>
        <path id="패스_44353" d="M531.8 2209.346a18.622 18.622 0 0 0 1.561 2.191c-.451-.5.016.014.127.153q.209.261.424.518.427.513.872 1.011a40.381 40.381 0 0 0 3.809 3.728q.506.435 1.026.854c.172.139.36.267.524.416-.045-.041-.454-.345-.108-.084l.267.2q1.107.83 2.262 1.593a49.665 49.665 0 0 0 4.669 2.721q1.213.623 2.456 1.183c.182.082.364.163.547.243l.314.136c.4.177-.064-.028-.123-.05.452.177.9.371 1.352.548q2.573 1.005 5.23 1.772t5.4 1.322q1.365.275 2.74.5.687.11 1.377.208c.086.012.173.021.259.036-.624-.106-.288-.039-.146-.021l.777.1a73.874 73.874 0 0 0 12.438.417l-2.5 2.5 1.072-8.036 1.71-12.821.4-2.96 1.236 2.155-4.4-2.229-10.105-5.117-11.17-5.657-7.593-3.845-.8-.4c-.507-.257.19.129.35.137a8.664 8.664 0 0 1-1.025-.185l-2.114-.379-11.6-2.086c-.687-.124-1.374-.256-2.062-.371l-.126-.02c-.479-.086.648.078.413.054s-.491-.055-.738-.073a14.04 14.04 0 0 0-2.268.012l-.309.032c-.533.054.7-.111.277-.038-.221.038-.441.073-.66.121a11.408 11.408 0 0 0-1.337.406c-.214.075.732-.34.243-.1-.107.053-.216.1-.321.162-.206.11-.4.237-.594.365-.438.286.457-.392.194-.155-.091.082-.187.158-.276.242-.122.115-.36.505-.5.552.024-.008.446-.624.259-.33-.035.054-.074.106-.109.159q-.109.166-.2.339c-.061.111-.113.226-.171.339-.168.324.166-.345.156-.377.011.036-.073.187-.087.229a6.2 6.2 0 0 0-.233.84c-.03.147-.048.3-.077.444.193-1.024.045-.325.028-.043a9.584 9.584 0 0 0 0 1.082c.009.189.025.377.044.566a1.342 1.342 0 0 0 .036.316c.031.079-.1-.685-.057-.432.011.062.018.126.028.188a18.961 18.961 0 0 0 .715 2.895c.18.552.378 1.1.591 1.639.05.129.1.257.154.385.221.552-.18-.407 0-.005.14.32.279.638.425.954.656 1.424 1.389 2.81 2.165 4.171.913 1.6 1.889 3.16 2.9 4.7a2.513 2.513 0 0 1-.9 3.414 2.552 2.552 0 0 1-3.415-.9 67.469 67.469 0 0 1-5.16-9.076 26.784 26.784 0 0 1-2.3-6.9c-.492-3.189-.166-6.764 2.5-8.957a10.956 10.956 0 0 1 6.819-2.269 16.866 16.866 0 0 1 3.348.275c3.273.574 6.542 1.176 9.813 1.765l5.415.973a7.917 7.917 0 0 1 2.173.567c1.889.916 3.749 1.9 5.622 2.848l10.788 5.463 11.053 5.6 6.417 3.25.306.155a2.41 2.41 0 0 1 1.236 2.155l-1.072 8.036-1.71 12.821-.4 2.961a2.58 2.58 0 0 1-2.5 2.5 74.276 74.276 0 0 1-23-2.406 56.363 56.363 0 0 1-20.76-10.289 41.756 41.756 0 0 1-8.6-9.465 2.514 2.514 0 0 1 .9-3.414 2.554 2.554 0 0 1 3.409.873z" class="cls-2" transform="translate(-519.84 -2184.66)"/>
    </g>
    <g id="그룹_56309" transform="translate(73.697 11.192)">
        <path id="패스_44354" d="M545.287 1999.416a12.671 12.671 0 0 1 3.556-8.892c.64-.66 1.648.348 1.009 1.008a11.206 11.206 0 0 0-3.139 7.883.713.713 0 0 1-1.426 0z" class="cls-2" transform="translate(-540.373 -1989.274)"/>
        <path id="패스_44355" d="M555.7 1994.459l3.352-5.979a.713.713 0 0 1 1.231.72l-3.352 5.979a.714.714 0 0 1-1.231-.72z" class="cls-2" transform="translate(-555.606 -1988.13)"/>
    </g>
    <ellipse id="타원_1400" cx="34.463" cy="6.655" fill="#d6d6d2" rx="34.463" ry="6.655" transform="translate(86.843 209.348)"/>
    <g id="그룹_56310" transform="translate(79.609 108.065)">
        <path id="패스_44356" d="M467.7 2216.849l-53.7-19.617c-9.749 13.337-18.258 48.953-6.83 79.983 4.1 11.142 12.345 28.467 22.194 24.667 12.715-4.9 4.69-16.291 4.565-21.117l3.437.723-.987 1.47c1.12 4.331 2.287 8.765 4.847 12.434s6.845 6.472 11.293 6c4.191-.447 7.66-3.706 9.525-7.485s2.411-8.053 2.93-12.236l6.27-50.594z" class="cls-1" transform="translate(-399.21 -2194.71)"/>
        <path id="패스_44357" d="M464.355 2216.471l-5.345-1.952-12.834-4.687-15.524-5.671-13.414-4.9c-2.158-.788-4.375-1.491-6.5-2.373-.03-.013-.062-.023-.093-.034l2.818-1.146a38.534 38.534 0 0 0-2.792 4.5q-.675 1.26-1.28 2.555-.319.68-.622 1.368c-.1.235-.2.471-.306.706-.137.313.252-.607.059-.14-.073.177-.146.352-.218.53a87.509 87.509 0 0 0-4.227 13.647q-.9 3.947-1.488 7.956-.074.5-.144 1c-.018.13-.127.754-.01.068-.02.121-.032.247-.048.367q-.143 1.11-.262 2.223-.234 2.169-.381 4.345a105.2 105.2 0 0 0 .276 17.746q.113 1.109.251 2.215c.025.2.046.4.077.6-.086-.546-.024-.175-.008-.058.066.471.133.942.205 1.412q.341 2.228.788 4.438a87.258 87.258 0 0 0 2.394 9.217c.787 2.459 1.695 4.88 2.674 7.268l.3.729c.218.524-.229-.533 0-.009.063.147.126.3.19.442q.354.821.722 1.635.784 1.73 1.643 3.425a56.714 56.714 0 0 0 3.693 6.322q.481.7.992 1.385c.105.14.456.48-.021-.023.085.089.155.2.232.295q.3.376.613.743a22.617 22.617 0 0 0 2.2 2.267c.183.161.368.32.557.473.519.422-.415-.3.11.085a13 13 0 0 0 1.254.816q.288.164.585.31c.088.044.18.083.268.128.417.208-.6-.222-.165-.067a11.327 11.327 0 0 0 1.313.41 5.184 5.184 0 0 1 .555.1c-.617-.217-.5-.052-.216-.035.113.007.225.018.338.023.188.008.377.009.566 0 .114 0 .228-.014.342-.02.286-.014.393-.164-.205.038.4-.136.86-.163 1.273-.295a4.166 4.166 0 0 0 .816-.3c-.058.034-.5.225-.094.039.212-.1.424-.192.633-.3a14.2 14.2 0 0 0 1.538-.873 7.049 7.049 0 0 1 .6-.424c-.547.276-.246.194-.062.039q.183-.153.359-.315c.335-.309.609-.665.925-.988-.577.589-.031.031.107-.184q.19-.3.355-.608c.054-.1.1-.207.154-.309.14-.276.009-.377-.069.178a3.515 3.515 0 0 1 .193-.531 12.369 12.369 0 0 0 .312-1.3c.09-.432-.062.594-.035.277.008-.093.021-.185.03-.277q.031-.334.04-.669c.012-.413 0-.826-.026-1.238-.015-.227-.039-.451-.062-.677-.064-.646.106.628 0-.013-.076-.451-.156-.9-.255-1.345-.186-.844-.417-1.678-.664-2.506-.429-1.434-.938-2.849-1.276-4.308a11.746 11.746 0 0 1-.323-2.245 2.526 2.526 0 0 1 3.159-2.407l3.437.723a2.512 2.512 0 0 1 1.492 3.666l-.988 1.47.251-1.923c.554 2.139 1.112 4.283 1.85 6.368.183.518.381 1.032.586 1.542.04.1.2.433-.012-.027.057.125.11.251.166.375q.169.375.349.743a21.111 21.111 0 0 0 1.71 2.911l.161.224c.29.408-.053-.039-.055-.063.009.142.38.465.473.572q.518.6 1.094 1.143a9.646 9.646 0 0 0 1.057.912c-.527-.368.138.087.242.159q.343.235.7.45c.394.237.8.441 1.214.647s-.036-.039-.1-.032a1.721 1.721 0 0 1 .338.133q.382.144.772.26c.282.083 1.03.4 1.318.3-.236.079-.434-.045-.127-.018.12.01.239.022.359.031q.406.028.815.02c.244 0 .486-.034.729-.042.289-.009-.212.033-.224.037.106-.031.234-.036.344-.056a9.679 9.679 0 0 0 1.421-.375c.109-.038.215-.082.324-.118.324-.107-.427.2-.118.054.183-.086.366-.168.546-.26a11.507 11.507 0 0 0 1.266-.756l.285-.2c.074-.053.358-.3.1-.069s.292-.254.355-.31q.531-.469 1.011-.988.241-.261.47-.533c.076-.09.149-.184.225-.275.223-.263-.263.365-.064.083.292-.411.582-.819.845-1.25q.344-.566.641-1.159c.109-.217.211-.439.314-.659.2-.43.041-.081 0 .009.083-.2.161-.4.237-.594a26.259 26.259 0 0 0 .992-3.264c.267-1.113.474-2.241.652-3.372q.067-.426.128-.852l.046-.32c.01-.077.073-.531.028-.2s.016-.124.026-.2l.055-.427q.061-.479.12-.959 1.87-15.049 3.73-30.1l1.881-15.178.467-3.765.116-.941a1.593 1.593 0 0 1 .058-.471l.015-.118.118.427c-.007-.036-.019-.07-.027-.106-.133-.583-.289-1.161-.433-1.74l-3-12.08-.074-.3a2.5 2.5 0 0 1 4.813-1.327l2.95 11.873c.179.718.365 1.435.536 2.155a4.333 4.333 0 0 1 .051 1.568l-.511 4.118-2.012 16.237c-1.349 10.881-2.568 21.787-4.065 32.648-.687 4.984-1.934 9.886-5.162 13.865a14.6 14.6 0 0 1-4.973 4 12.6 12.6 0 0 1-7.426 1.1c-4.717-.715-8.69-4.168-11.106-8.135a31.831 31.831 0 0 1-3-6.9c-.357-1.12-.674-2.253-.977-3.39-.15-.563-.332-1.131-.445-1.7a2.789 2.789 0 0 1 .418-2.171l.821-1.221 1.492 3.666-3.437-.723 3.159-2.406c0 .139.018.278.028.417.036.509-.134-.782-.015-.141q.092.493.214.98c.182.716.4 1.421.623 2.126a45.131 45.131 0 0 1 1.373 5.019 16.165 16.165 0 0 1 .111 6.253 10.6 10.6 0 0 1-3.251 5.662 14.7 14.7 0 0 1-3.248 2.233 14.127 14.127 0 0 1-3.627 1.375 10.882 10.882 0 0 1-6.827-.95c-4.23-1.99-7.307-6.227-9.688-10.094a85.021 85.021 0 0 1-6.685-14 89.476 89.476 0 0 1-4.846-17.778 108.863 108.863 0 0 1 .456-37.066 95.412 95.412 0 0 1 3.93-14.943 61.2 61.2 0 0 1 5.463-11.788q.667-1.076 1.411-2.1a2.566 2.566 0 0 1 2.818-1.147l5.345 1.953 12.834 4.688 15.524 5.67 13.414 4.9c2.165.791 4.339 1.562 6.5 2.373l.093.034a2.5 2.5 0 1 1-1.327 4.813z" class="cls-2" transform="translate(-396.524 -2191.926)"/>
    </g>
    <path id="패스_44358" d="M485.275 2310.849l-16.995-1.418c-5.08-.424-5.966-5.02-3.5-8.449l9.481-11.179a4.626 4.626 0 0 1 7.4.457l7.67 13.195c1.837 3.718-.886 7.659-4.056 7.394zm-4.143-9.3l-2.669-4.592a1.64 1.64 0 0 0-2.614-.137l-3.384 3.94c-.882 1.208-.583 2.812 1.21 2.945l6 .443a1.751 1.751 0 0 0 1.457-2.603z" class="cls-4" transform="translate(-367.652 -2134.355)"/>
    <g id="그룹_56312" transform="translate(141.5 16.429)">
        <g id="그룹_56311" transform="translate(0)">
            <path id="패스_44359" d="M370.2 2035.309c-2.762-1.129-3.174-4.864-2.745-7.817a33.385 33.385 0 0 1 12.31-21.232c2.122-1.662 4.8-3.123 7.4-2.438 2.664.7 4.343 3.54 4.471 6.292s-.987 5.406-2.292 7.832a47.218 47.218 0 0 1-11.71 14.183c-1.933 1.576-4.625 3.046-6.779 1.79" class="cls-4" transform="translate(-365.166 -2001.509)"/>
            <path id="패스_44360" d="M366.843 2034.794c-2.777-1.2-3.815-4.366-3.938-7.157a24.605 24.605 0 0 1 1.5-8.545 35.77 35.77 0 0 1 9.707-15.131c2.486-2.273 5.359-4.45 8.818-4.782a7.766 7.766 0 0 1 7.63 4.743 12.32 12.32 0 0 1-.31 9.93 41.15 41.15 0 0 1-4.884 8.417 49.693 49.693 0 0 1-7.266 7.972c-2.854 2.5-6.737 5.281-10.6 3.164a2.16 2.16 0 0 1-.768-2.927 2.184 2.184 0 0 1 2.927-.768c.507.278-.39-.071.15.082.113.032.228.059.34.092.5.149-.4.027.126.005.114 0 .238-.008.353-.007.54 0-.385.13.143-.022.147-.042.3-.071.445-.115s.3-.1.445-.149c.456-.155-.2.128.192-.088a15.886 15.886 0 0 0 1.668-1.009c.038-.027.54-.419.179-.128l.3-.245q.466-.383.922-.779a47.172 47.172 0 0 0 5.855-6.077l.376-.472c.037-.048.244-.323.035-.045.2-.268.4-.535.6-.806q.652-.894 1.263-1.817 1.165-1.763 2.167-3.625c.337-.627.649-1.264.948-1.909.292-.628-.134.368.119-.275.052-.132.1-.264.154-.4.149-.4.284-.8.4-1.208.1-.338.181-.679.25-1.023.035-.172.063-.344.091-.517.063-.382-.015.493.011-.16.014-.351.041-.7.033-1.051 0-.181-.021-.361-.03-.542-.022-.454.1.392-.013-.092-.061-.273-.113-.545-.191-.815-.034-.115-.344-.927-.127-.434a7.632 7.632 0 0 0-.376-.744q-.124-.215-.263-.422c-.069-.1-.392-.472-.058-.094-.181-.2-.357-.407-.557-.593-.013-.012-.41-.368-.153-.146s-.153-.1-.175-.116a5.694 5.694 0 0 0-.706-.387c.443.206.1.053-.021.013-.207-.066-.417-.106-.628-.156.365.086.082.006-.02 0-.2 0-.391-.016-.588-.009.015 0-.618.057-.3.015s-.314.067-.3.063c-.328.074-.638.183-.959.282-.6.186.191-.105-.147.052-.217.1-.434.2-.646.315a14.972 14.972 0 0 0-1.752 1.1c-.111.08-.221.161-.33.243.33-.247-.16.128-.184.146q-.439.352-.865.72a32.549 32.549 0 0 0-2.819 2.747q-.63.694-1.222 1.423c-.079.1-.156.2-.235.292-.391.483.247-.336-.125.16-.225.3-.448.6-.664.909a33.9 33.9 0 0 0-2.078 3.344q-.448.824-.849 1.673-.2.423-.389.853l-.149.344c.189-.445-.11.28-.14.357a32.935 32.935 0 0 0-1.314 4.1q-.272 1.091-.467 2.2l-.063.37c-.021.123-.039.247-.058.371q-.06.411.008-.08a3.4 3.4 0 0 0-.079.855 12.322 12.322 0 0 0 .017 1.826c.015.17-.054.582 0 .058a2.005 2.005 0 0 0 .081.46 7.77 7.77 0 0 0 .233.885c.015.044.128.5.049.163-.073-.313.1.194.139.275s.093.168.143.25.1.161.156.239q.2.279-.076-.1a1.9 1.9 0 0 0 .19.209c.066.067.134.132.2.194q.263.221-.1-.069c0 .125.667.377.771.422a2.145 2.145 0 0 1 .768 2.927 2.206 2.206 0 0 1-2.927.767z" class="cls-2" transform="translate(-362.891 -1999.148)"/>
        </g>
        <path id="패스_44361" d="M406.992 2058.555a7.127 7.127 0 0 1-.243-3.274 3.569 3.569 0 0 1 1.992-2.377.731.731 0 0 1 .976.256.719.719 0 0 1-.256.975 4.1 4.1 0 0 0-.635.38c.1-.073-.012.012-.046.042s-.073.066-.108.1c-.076.073-.144.151-.212.23.06-.07.038-.054 0 .01-.025.038-.051.075-.075.114-.052.083-.09.176-.14.26s.042-.125 0 0c-.017.051-.036.1-.052.152-.029.1-.054.191-.074.289-.009.045-.015.09-.025.136.039-.177 0 0 0 .032-.009.1-.014.191-.016.287a5.462 5.462 0 0 0 .029.666c0 .018.022.189.01.095s.012.08.014.1c.021.131.045.263.07.394.05.253.11.5.174.755a.713.713 0 1 1-1.375.379z" class="cls-2" transform="translate(-402.026 -2027.305)"/>
    </g>
    <g id="그룹_56314" transform="translate(150.711 26.607)">
        <g id="그룹_56313">
            <path id="패스_44362" d="M337.177 2044.426a29.19 29.19 0 0 1 19.289-18.811c3.5-1.021 8.182-.856 9.708 2.457.85 1.847.345 4.03-.431 5.909-4.228 10.248-16.853 16.162-27.433 12.852" class="cls-4" transform="translate(-335.023 -2022.922)"/>
            <path id="패스_44363" d="M332.78 2041.5a31.431 31.431 0 0 1 16.983-18.9 20.339 20.339 0 0 1 8.207-2.04c2.874.017 5.849 1.011 7.438 3.553 1.934 3.094.747 6.909-.754 9.9a25.49 25.49 0 0 1-29.247 12.518 2.14 2.14 0 0 1 1.137-4.125c.564.174 1.134.326 1.711.452q.392.085.787.154c.158.028.317.051.474.078.49.083-.389-.039.066.01a23.143 23.143 0 0 0 3.511.129c.588-.026 1.171-.081 1.755-.147.527-.06-.348.057-.013 0 .132-.022.264-.04.4-.062q.475-.079.946-.177a24.108 24.108 0 0 0 3.4-.975c.3-.111.6-.23.9-.351-.494.2.226-.1.375-.171q.8-.371 1.58-.8a25.857 25.857 0 0 0 2.963-1.928c-.447.333.272-.223.383-.316q.339-.282.666-.578.655-.59 1.263-1.228t1.161-1.322l.2-.25c-.341.428 0 0 .053-.075q.285-.387.552-.785a22.153 22.153 0 0 0 1.7-3.086c.236-.51-.183.5.051-.123.06-.161.124-.319.182-.48.128-.357.243-.719.338-1.087l.1-.4c.009-.042.116-.708.058-.24a8.312 8.312 0 0 0 .034-1.206c-.011-.575.13.331-.035-.219a4.484 4.484 0 0 1-.133-.48c-.056-.309.175.287-.033-.092-.071-.128-.136-.258-.214-.382a1.656 1.656 0 0 0-.159-.238l.163.208q-.088-.108-.184-.211-.142-.152-.3-.292l-.1-.091q-.265-.217.1.08a3.178 3.178 0 0 0-.6-.364c-.077-.041-.3-.193-.383-.184l.246.108c-.09-.035-.181-.067-.272-.1-.232-.077-.469-.143-.707-.2-.146-.033-.294-.057-.44-.088-.434-.092.45.031-.033-.008a13.381 13.381 0 0 0-1.708-.047c-.262.012-.523.04-.785.06-.54.043.478-.087-.055 0-.154.027-.309.05-.463.079a20.116 20.116 0 0 0-3.5 1.049c-.164.063-.326.129-.488.194-.374.149-.043.018.027-.013-.321.139-.64.282-.956.432q-.869.413-1.709.884a32.757 32.757 0 0 0-3.224 2.1c-.474.344.335-.273-.123.092-.137.109-.274.218-.41.329q-.407.332-.8.679-.856.751-1.653 1.566-.735.751-1.416 1.553c-.227.267-.446.54-.665.813-.367.457.255-.349-.093.122-.1.141-.209.281-.312.423a28.729 28.729 0 0 0-2.289 3.724q-.24.467-.462.943-.111.237-.218.478c-.045.1-.249.59-.06.132q-.433 1.054-.783 2.137a2.14 2.14 0 0 1-4.126-1.137z" class="cls-2" transform="translate(-332.689 -2020.561)"/>
        </g>
        <path id="패스_44364" d="M373.745 2062.124a13.21 13.21 0 0 1 8.787-6.3c.9-.176 1.281 1.2.379 1.375a11.821 11.821 0 0 0-7.935 5.64.713.713 0 0 1-1.231-.719z" class="cls-2" transform="translate(-369.167 -2039.056)"/>
    </g>
    <g id="그룹_56315" transform="translate(48.73 38.758)">
        <path id="패스_44365" d="M441.427 2079.716c14 20.6 19.232 49.125 8.4 66.294-5.152 8.166-12.491 15.23-33.647 15.56-18 .281-49.51-5.558-77.862-17.227-14.344-5.9-24.789-17.331-24.577-29.643.485-28.213 30.435-58.25 64.765-62.09 25.653-2.87 49.14 6.822 62.921 27.106z" class="cls-1" transform="translate(-310.905 -2049.267)"/>
        <path id="패스_44366" d="M440.714 2075.132a88.064 88.064 0 0 1 9.948 19.772 79.186 79.186 0 0 1 4.482 21.034 53.065 53.065 0 0 1-2.016 19.542 40.042 40.042 0 0 1-7.752 13.944 30.62 30.62 0 0 1-11.688 8.308c-6.25 2.606-13.214 3.372-19.928 3.53a121.343 121.343 0 0 1-17.54-1.038c-7.326-.9-14.6-2.179-21.8-3.784q-11.785-2.627-23.29-6.358-5.944-1.928-11.784-4.162a87.625 87.625 0 0 1-11.184-4.92 44.333 44.333 0 0 1-15.8-14.2 29.062 29.062 0 0 1-3.9-8.823 28.358 28.358 0 0 1-.6-9.286 54.026 54.026 0 0 1 4.969-18.04 70.449 70.449 0 0 1 10.656-16.247 84.018 84.018 0 0 1 33.795-23.488 75.508 75.508 0 0 1 20.811-4.562 76.815 76.815 0 0 1 21.218 1.3 67.635 67.635 0 0 1 19.057 6.985 63.955 63.955 0 0 1 15.907 12.391 68.6 68.6 0 0 1 6.44 8.1 2.869 2.869 0 0 1-1.023 3.9 2.923 2.923 0 0 1-3.9-1.024q-.686-1.005-1.406-1.987c-.237-.322-.466-.664-.727-.967.493.574.043.057-.047-.058q-.247-.315-.5-.627-1.562-1.934-3.275-3.74-1.624-1.712-3.378-3.3-.871-.786-1.771-1.539-.448-.376-.905-.742-.227-.183-.457-.364l-.307-.24q.481.371.115.09a63.981 63.981 0 0 0-7.984-5.163q-2.138-1.159-4.361-2.15c-.355-.158-.71-.329-1.073-.467.741.282.1.046-.039-.013q-.271-.111-.543-.219-1.182-.472-2.382-.9a66.843 66.843 0 0 0-9.347-2.557q-1.181-.234-2.369-.426-.6-.1-1.2-.183c-.158-.023-.851-.144-.042-.009-.266-.044-.536-.07-.8-.1q-2.431-.3-4.88-.424a77.1 77.1 0 0 0-10.444.16q-1.273.105-2.544.251c-.336.038-.691.057-1.022.125.784-.162.1-.014-.057.009q-.407.058-.814.121-2.536.393-5.039.972a74.008 74.008 0 0 0-9.587 2.918c-.764.289-1.522.6-2.277.905-.653.268.577-.252-.071.03l-.561.243q-.654.286-1.3.584-2.312 1.063-4.553 2.272a81.657 81.657 0 0 0-8.42 5.228q-.985.7-1.948 1.422l-.48.364c-.554.418.488-.386-.057.043-.367.289-.734.577-1.1.871q-1.857 1.5-3.625 3.109a78.438 78.438 0 0 0-6.82 7.023q-.69.806-1.357 1.632c-.241.3-.479.6-.717.9-.417.526.383-.506-.023.028-.154.2-.308.4-.461.609q-1.417 1.893-2.707 3.877a63.53 63.53 0 0 0-4.375 7.9q-.227.491-.446.988c-.073.165-.144.331-.215.5-.257.591.251-.616.009-.019-.291.717-.577 1.435-.842 2.162q-.756 2.065-1.337 4.19-.545 2-.918 4.048-.091.505-.172 1.014c-.037.237-.149 1.409-.068.425-.061.732-.172 1.461-.23 2.2a30.117 30.117 0 0 0-.079 4.289q.028.437.075.875c.019.173.053.35.062.522-.044-.85-.034-.27 0-.063a22.84 22.84 0 0 0 .479 2.236q.274 1.029.639 2.03a4.128 4.128 0 0 1 .387 1l-.148-.35.144.33q.147.33.3.657a29.465 29.465 0 0 0 2.258 3.91q.293.428.6.847c.112.154.227.3.34.458.4.537-.4-.493.022.027.53.651 1.067 1.3 1.634 1.916a40.038 40.038 0 0 0 3.594 3.46q.467.4.945.782c.159.128.316.27.484.385-.614-.418-.032-.027.079.057q1 .755 2.046 1.455a50.162 50.162 0 0 0 4.6 2.742q1.162.612 2.353 1.166.6.28 1.209.544c.11.048.793.362.136.061.292.133.6.246.894.367q2.758 1.124 5.546 2.173c7.568 2.85 15.283 5.307 23.093 7.4 7.263 1.951 14.612 3.595 22.024 4.873q2.478.427 4.964.8c.8.118 1.6.255 2.408.341-.821-.088-.128-.018.033 0l.589.077q.68.086 1.361.168c2.971.357 5.952.64 8.94.819 2.734.164 5.474.238 8.213.173 1.879-.045 3.758-.145 5.63-.321q.649-.061 1.3-.134c.211-.024.422-.049.632-.075.154-.019.872-.075.069-.005.855-.074 1.718-.256 2.562-.412a41.694 41.694 0 0 0 8.081-2.32c.537-.218-.645.284-.121.049l.411-.183q.4-.182.8-.377.831-.406 1.634-.865a29.032 29.032 0 0 0 2.792-1.834c.192-.142.464-.466-.169.133.091-.086.2-.159.3-.238q.246-.2.487-.4.615-.521 1.2-1.079a28.526 28.526 0 0 0 2.059-2.2q.23-.271.453-.547c.16-.2.687-.937.064-.07.3-.412.609-.811.9-1.225q.854-1.21 1.626-2.475a33.293 33.293 0 0 0 2.015-3.873c.086-.193.208-.722-.009.033.048-.166.137-.331.2-.491q.2-.5.381-1 .4-1.094.735-2.209a42.328 42.328 0 0 0 1.036-4.257c.14-.732.256-1.468.366-2.205.1-.663-.081.681 0 .013l.068-.562q.076-.66.134-1.321a58.572 58.572 0 0 0 .025-9.577q-.093-1.207-.228-2.41c-.045-.4-.065-.819-.147-1.212.166.786.015.114-.009-.051q-.058-.406-.12-.811-.394-2.56-.966-5.089a82.229 82.229 0 0 0-2.923-9.947q-.438-1.209-.913-2.4-.237-.6-.484-1.193c-.05-.121-.311-.8-.046-.111-.089-.233-.2-.462-.3-.691q-1.055-2.415-2.255-4.763a84.014 84.014 0 0 0-5.232-8.847 2.87 2.87 0 0 1 1.023-3.9 2.922 2.922 0 0 1 3.893 1.032z" class="cls-2" transform="translate(-307.729 -2046.123)"/>
    </g>
    <g id="그룹_56316" transform="translate(105.805 189.398)">
        <path id="패스_44367" d="M467.693 2366.782a16.45 16.45 0 0 0 12.683 2.091" class="cls-1" transform="translate(-465.918 -2364.999)"/>
        <path id="패스_44368" d="M466.651 2363.275a14.472 14.472 0 0 0 5.606 2.139 16.1 16.1 0 0 0 2.864.166q.394-.013.787-.045c.073-.006.719-.074.505-.047a14.886 14.886 0 0 0 1.547-.3 1.783 1.783 0 1 1 .947 3.438 18.387 18.387 0 0 1-14.056-2.271 1.783 1.783 0 1 1 1.8-3.078z" class="cls-2" transform="translate(-463.975 -2363.031)"/>
    </g>
    <ellipse id="타원_1401" cx="6.846" cy="6.982" class="cls-5" rx="6.846" ry="6.982" transform="matrix(-0.051, -0.999, 0.999, -0.051, 124.129, 122.298)"/>
    <ellipse id="타원_1402" cx="6.45" cy="6.577" class="cls-5" rx="6.45" ry="6.577" transform="matrix(-0.051, -0.999, 0.999, -0.051, 84.194, 111.467)"/>
    <g id="그룹_56317" transform="translate(100.781 99.284)">
        <path id="패스_44369" d="M465.811 2176.444c-.508 2.232.016 3.483 1.945 4.715s5.241.837 7.051-.563a6.03 6.03 0 0 0 4.529 4.23c4.871.727 5.516-3.608 5.319-3.507" class="cls-1" transform="translate(-464.221 -2175.022)"/>
        <path id="패스_44370" d="M465.594 2175.254a4.363 4.363 0 0 0-.125 1.266c0 .065.057.355 0 .091.018.085.035.17.058.254.009.033.121.357.054.191-.058-.143.049.094.064.119.055.093.109.187.17.277-.112-.166.01.016.071.083a4.842 4.842 0 0 0 .474.457 5.29 5.29 0 0 0 1.027.636 5.661 5.661 0 0 0 5.106-.833 1.4 1.4 0 0 1 1.439 0 1.5 1.5 0 0 1 .706 1.231c-.061-.485.011-.074.043.038.044.15.112.248.012.049a7.082 7.082 0 0 0 .432.758 7.341 7.341 0 0 0 1.135 1.208 3.633 3.633 0 0 0 1.86.8 7.492 7.492 0 0 0 .915.027c.06 0 .611-.076.318-.021.148-.028.294-.058.439-.1s.269-.083.4-.131c-.318.113.054-.031.123-.068.11-.059.214-.127.321-.192.057-.038.113-.079.168-.119q-.212.166-.093.066c.164-.153.314-.31.466-.474.047-.051-.159.252.018-.03.052-.083.107-.164.157-.249s.089-.163.133-.245c.026-.049.152-.359.051-.1s.064-.2.087-.284.1-.507.051-.16c-.041.308-.011.124-.012.057a2.255 2.255 0 0 0 .4.9l.629.367h-.006.752c-1.78.451-2.539-2.3-.758-2.75a1.479 1.479 0 0 1 1.836 1.45 3.4 3.4 0 0 1-.148.926 5.627 5.627 0 0 1-1.457 2.446c-2.366 2.294-6.214 1.9-8.629-.07a6.613 6.613 0 0 1-2.495-4.1l2.146 1.231a8.2 8.2 0 0 1-8.027.816 6.144 6.144 0 0 1-2.782-2.573 5.9 5.9 0 0 1-.282-4 1.426 1.426 0 1 1 2.75.758z" transform="translate(-462.629 -2173.453)"/>
    </g>
    <g id="그룹_56318" transform="translate(108.18 97.153)">
        <ellipse id="타원_1403" cx="4.278" cy="1.426" rx="4.278" ry="1.426" transform="translate(8.274 5.206) rotate(-163.179)"/>
        <path id="패스_44371" d="M480.828 2174.2h.174c1.374-.038 1.81-.532 1.933-.939s.034-1.06-1.088-1.854a10.462 10.462 0 0 0-2.911-1.342c-2.191-.663-4.723-.805-5.1.445-.123.407-.035 1.059 1.088 1.853a10.4 10.4 0 0 0 2.911 1.342 10.723 10.723 0 0 0 2.993.495zm-4.883-3.686a9.766 9.766 0 0 1 2.714.458 9.481 9.481 0 0 1 2.638 1.208c.66.467.739.763.727.8-.011.039-.241.242-1.049.264a9.364 9.364 0 0 1-2.866-.455 9.5 9.5 0 0 1-2.638-1.208c-.66-.467-.739-.763-.727-.8s.242-.243 1.05-.265z" transform="translate(-473.792 -2169.284)"/>
    </g>
    <path id="패스_44372" d="M485.178 2175.078l-2.594 5.04a.713.713 0 0 1-1.232-.72l2.595-5.04a.713.713 0 0 1 1.231.72z" transform="translate(-371.455 -2074.461)"/>
    <circle id="타원_1404" cx="3.85" cy="3.85" r="3.85" transform="translate(92.97 89.146)"/>
    <circle id="타원_1405" cx="4.278" cy="4.278" r="4.278" transform="translate(127.572 97.672)"/>
    <g id="그룹_56319" transform="translate(136.749 148.623)">
        <path id="패스_44373" d="M388.137 2282.5c8.081 0 15.211 8.081 15.183 16.177-.022 6.159-3.318 12.537-9.047 14.8 1.189 2.02 2.412 3.965 1.488 6.118-1.294 3.015-5.753 3.471-8.581 1.81-6.745-3.961-8.091-14.662-2.536-20.169" class="cls-1" transform="translate(-378.685 -2280.004)"/>
        <path id="패스_44374" d="M385.39 2277.25c6.539.045 12.45 4.383 15.442 10.045a18.385 18.385 0 0 1 2.221 9.306 20.615 20.615 0 0 1-2.624 9.3 16.5 16.5 0 0 1-8.239 7.232l1.491-3.666c1.07 1.815 2.245 3.8 2.15 5.992a6.729 6.729 0 0 1-2.934 5.249c-2.694 1.928-6.639 1.733-9.47.242-5.232-2.754-7.973-9.283-7.418-15a14.929 14.929 0 0 1 4.122-9.233 2.5 2.5 0 0 1 3.529 3.529c-.206.207-.406.419-.6.641a4.091 4.091 0 0 1-.277.335c.47-.437.173-.224.045-.042a11.464 11.464 0 0 0-.886 1.478q-.1.192-.186.388c-.1.225-.1.54.025-.068a6.253 6.253 0 0 1-.248.674 13.137 13.137 0 0 0-.467 1.815 3.281 3.281 0 0 1-.071.428c.01-.031.075-.653.031-.233-.029.289-.059.578-.075.868a14.359 14.359 0 0 0 .009 1.746c.019.29.072.581.083.87-.029-.749-.037-.281 0-.086q.036.216.078.43a14.394 14.394 0 0 0 .441 1.689c.09.276.194.547.3.819.179.477-.211-.434-.056-.129.055.107.1.22.15.329a13.076 13.076 0 0 0 .919 1.631 6.879 6.879 0 0 1 .414.587c-.286-.556-.184-.235-.035-.054.091.11.185.219.28.326a11.309 11.309 0 0 0 1.24 1.2c.219.182.448.174-.05-.033a2.38 2.38 0 0 1 .355.252c.241.164.488.322.742.462q.127.071.258.136l.132.063q.361.163-.191-.078a6.256 6.256 0 0 1 .992.308c.146.034.293.059.44.09.533.11-.613-.04-.069-.011.249.013.5.033.745.032.148 0 .3-.007.445-.017.268-.018.52-.179-.078.026.313-.108.666-.127.986-.229.091-.029.179-.063.269-.093.412-.135-.553.281.045-.035.123-.065.242-.134.359-.209.559-.359-.253.271.043-.023.1-.1.2-.185.295-.286.27-.29.037-.243-.043.078a2.1 2.1 0 0 1 .224-.355c.047-.083.09-.167.13-.252q-.2.5-.044.063c.032-.149.29-.7.07-.126a1.682 1.682 0 0 0 0-.775c.2.505.018.182-.029-.006-.055-.226-.134-.442-.2-.663-.2-.622.242.431-.069-.156-.131-.249-.252-.5-.387-.75-.244-.445-.5-.88-.762-1.318a2.445 2.445 0 0 1-.126-2.22 2.606 2.606 0 0 1 1.618-1.445c.548-.221-.5.25.024-.014.15-.075.3-.144.453-.22q.446-.228.871-.492.353-.219.691-.461l.135-.1q.322-.242-.11.088c.151-.033.391-.323.508-.426a13.918 13.918 0 0 0 1.288-1.294c.109-.125.213-.256.322-.382.379-.442-.319.452.02-.022.228-.319.454-.637.665-.969a16.642 16.642 0 0 0 .9-1.623c.074-.152.142-.308.215-.461.255-.536-.2.525.015-.03.123-.318.246-.635.355-.959a18.1 18.1 0 0 0 .544-1.975q.091-.418.161-.839l.027-.169q.062-.416-.017.156a2.236 2.236 0 0 0 .074-.678 16.821 16.821 0 0 0 .069-1.863q-.011-.5-.057-1a3.712 3.712 0 0 0-.055-.5q.08.578.017.164-.027-.166-.058-.331a15.628 15.628 0 0 0-.445-1.8q-.15-.486-.331-.962c-.05-.132-.1-.263-.156-.4q-.106-.259.087.205-.068-.156-.14-.311a17.606 17.606 0 0 0-.964-1.8q-.223-.364-.463-.718-.144-.212-.294-.42l-.2-.275q.327.417.077.1c-.4-.485-.8-.958-1.243-1.4a7.654 7.654 0 0 0-1.642-1.469c.048.024.463.339.1.083-.184-.129-.364-.261-.55-.387q-.486-.328-1-.62-.434-.248-.884-.467c-.149-.073-.3-.139-.452-.21q-.373-.162.138.057-.153-.062-.309-.12a13.389 13.389 0 0 0-2.06-.6c-.162-.033-.325-.058-.487-.089q-.412-.063.173.019-.165-.02-.329-.035c-.387-.038-.774-.053-1.163-.056a2.5 2.5 0 0 1 0-4.991z" class="cls-2" transform="translate(-375.938 -2277.25)"/>
    </g>
    <g id="그룹_56320" transform="translate(0 18.935)">
        <path id="패스_44375" d="M660.342 2114.376a4.429 4.429 0 0 1-5.7-2.545l-40.542-97.989c-.979-2.312-.454-4.841 1.7-5.753l-.435.108c2.153-.912 3.846.45 4.825 2.762l42.285 97.556a4.429 4.429 0 0 1-2.133 5.861z" class="cls-4" transform="translate(-611.966 -2006.252)"/>
        <path id="패스_44376" d="M656.95 2114.523a5.615 5.615 0 0 0 2.2-.447 6.085 6.085 0 0 0 3.018-8.042l-42.291-97.568c-1.437-3.393-4.188-4.822-7-3.632l.028.085c-2.568 1.355-3.508 4.6-2.176 7.74l40.54 97.976a6.253 6.253 0 0 0 5.681 3.888zm.9-3.51a2.762 2.762 0 0 1-3.514-1.662l-40.54-97.976c-.563-1.331-.546-3.01.811-3.585l-.008-.025c.545-.088 1.411.107 2.218 2.012l42.291 97.568a2.757 2.757 0 0 1-1.257 3.668z" class="cls-2" transform="translate(-610.125 -2004.42)"/>
    </g>
    <g id="그룹_56321" transform="translate(98.756 55.603)">
        <path id="패스_44377" d="M488.693 2084.2a11.229 11.229 0 0 1 10.253-2.209 1.426 1.426 0 0 1-.758 2.75c-.357-.1-.715-.179-1.079-.251-.172-.026-.183-.029-.032-.01q-.137-.017-.275-.03c-.184-.018-.368-.029-.553-.036a9.644 9.644 0 0 0-1.108.024c-.052 0-.6.071-.309.027-.183.027-.365.061-.546.1a9.883 9.883 0 0 0-1.071.286c-.176.058-.348.123-.522.188-.157.063-.171.068-.043.016-.085.037-.168.076-.252.115a9.514 9.514 0 0 0-.97.535c-.156.1-.307.206-.46.31q-.2.151-.043.027c-.072.058-.144.116-.215.176a1.458 1.458 0 0 1-2.016 0 1.443 1.443 0 0 1 0-2.017z" transform="translate(-488.281 -2081.56)"/>
        <path id="패스_44378" d="M413.833 2106.613a9.4 9.4 0 0 0-.582-.958c-.053-.077-.111-.15-.164-.228-.1-.141.156.184-.017-.022-.121-.143-.239-.287-.365-.426a9.854 9.854 0 0 0-.8-.784c-.071-.061-.142-.122-.214-.181-.052-.043-.271-.206-.02-.021-.151-.111-.3-.222-.457-.326a9.953 9.953 0 0 0-.965-.572c-.166-.086-.336-.165-.505-.244-.148-.068-.076-.028.031.012-.087-.033-.173-.069-.261-.1a9.566 9.566 0 0 0-1.071-.329q-.272-.066-.549-.115a1.934 1.934 0 0 0-.277-.045c.245.007.09.013-.067 0a1.459 1.459 0 0 1-1.426-1.426 1.441 1.441 0 0 1 1.426-1.426 11.2 11.2 0 0 1 8.748 5.756 1.426 1.426 0 0 1-2.463 1.44z" transform="translate(-365.699 -2090.926)"/>
    </g>
    <g id="그룹_56322" transform="translate(23.622 98.355)">
        <path id="패스_44379" d="M615 2188.834c0 7.088 4.373 12.834 11.527 12.834a12.894 12.894 0 0 0 12.953-12.834c0-7.089-4.373-12.834-11.527-12.834A12.894 12.894 0 0 0 615 2188.834z" class="cls-1" transform="translate(-612.861 -2173.861)"/>
        <path id="패스_44380" d="M624.166 2201.447a15.05 15.05 0 0 0 15.092-14.973c0-8.676-5.747-14.974-13.666-14.974a15.05 15.05 0 0 0-15.092 14.974c0 8.676 5.747 14.973 13.666 14.973zm1.426-25.669c6.485 0 9.388 5.372 9.388 10.7a10.768 10.768 0 0 1-10.814 10.7c-6.485 0-9.388-5.372-9.388-10.7a10.768 10.768 0 0 1 10.814-10.7z" class="cls-2" transform="translate(-610.5 -2171.5)"/>
    </g>
    <g id="그룹_56324" transform="translate(42.577 106.436)">
        <g id="그룹_56323">
            <circle id="타원_1406" cx="6.179" cy="6.179" r="6.179" class="cls-1" transform="translate(1.901 1.901)"/>
            <path id="패스_44381" d="M605.206 2204.662a8.081 8.081 0 1 0-8.081-8.081 8.09 8.09 0 0 0 8.081 8.081zm0-12.359a4.278 4.278 0 1 1-4.278 4.278 4.283 4.283 0 0 1 4.278-4.281z" class="cls-2" transform="translate(-597.125 -2188.5)"/>
        </g>
    </g>
    <g id="그룹_56325" transform="translate(76.103 63.502)">
        <path id="패스_44382" d="M411.732 2162.3a19.727 19.727 0 1 0-19.127-24.549 19.733 19.733 0 0 0 19.127 24.549zm0-35.179a15.449 15.449 0 1 1-14.982 11.675 15.433 15.433 0 0 1 14.985-11.67z" class="cls-2" transform="translate(-351.324 -2111.121)"/>
        <path id="패스_44383" d="M497.343 2137.648a19.789 19.789 0 1 0-4.855-.606 19.857 19.857 0 0 0 4.855.606zm-.062-35.189a15.47 15.47 0 0 1 15.008 19.229 15.449 15.449 0 1 1-29.961-7.549 15.464 15.464 0 0 1 14.953-11.68z" class="cls-2" transform="translate(-477.574 -2098.178)"/>
    </g>
    <path id="사각형_12824" d="M0 0H6.916V4.278H0z" class="cls-2" transform="matrix(-0.949, -0.314, 0.314, -0.949, 118.785, 96.017)"/>
    <g id="그룹_56327" transform="translate(101.373 0)">
        <g id="그룹_56326" transform="translate(0)">
            <path id="패스_44384" d="M402.5 1967.554c1.55-.057 2.741 1.283 3.746 2.463a51.937 51.937 0 0 0 18.442 13.755c1.082.479 2.344 1.843 1.4 2.552a1.688 1.688 0 0 1-.97.237l-41.694 1.591a10.238 10.238 0 0 1-3.475-.265 10.047 10.047 0 0 1-2.788-1.588 257.1 257.1 0 0 1-22.762-18.564 95.192 95.192 0 0 0 49.6-1.63" class="cls-2" transform="translate(-353.676 -1965.383)"/>
            <path id="패스_44385" d="M401.823 1966.044a5.293 5.293 0 0 1 3.834 2.191c1.13 1.273 2.241 2.55 3.455 3.747a51.12 51.12 0 0 0 7.95 6.407q2.117 1.382 4.362 2.552 1.143.6 2.315 1.134a6.065 6.065 0 0 1 1.888 1.17c.93.935 1.262 2.629-.324 3.119a11.216 11.216 0 0 1-2.758.186l-2.961.113-24.4.931-12.2.466a9.571 9.571 0 0 1-5.264-.88 43.179 43.179 0 0 1-4.579-3.254q-9.2-6.866-17.762-14.525-1.087-.973-2.162-1.957a.719.719 0 0 1 .694-1.192 94.223 94.223 0 0 0 49.22-1.629c.879-.269 1.255 1.107.379 1.375a95.9 95.9 0 0 1-49.978 1.63l.694-1.192q8.044 7.358 16.686 14.024 2.222 1.71 4.482 3.371c1.31.964 2.677 2.2 4.277 2.635 1.718.466 3.692.155 5.445.088l5.686-.217 22.979-.877 5.686-.217 2.843-.108 1.422-.055c.229-.009 1.132.1 1.283-.147s-.53-.822-.7-.95a11.6 11.6 0 0 0-2.1-1.054q-2.145-1.03-4.189-2.255a53.04 53.04 0 0 1-8.554-6.384 51.578 51.578 0 0 1-3.753-3.815c-1.014-1.145-2.177-3.008-3.893-3a.713.713 0 0 1 0-1.426z" class="cls-2" transform="translate(-352.998 -1964.586)"/>
        </g>
        <path id="패스_44386" d="M432.488 1999.154a144.786 144.786 0 0 0-1.065 26.049 44.711 44.711 0 0 1-31.128.5 8.667 8.667 0 0 1-4.243-2.654c-1.656-2.241-1.065-5.362-.381-8.063q2.9-11.469 6.25-22.82c10.347 4.505 21.967 4.793 33.25 5.011" class="cls-2" transform="translate(-381.717 -1979.057)"/>
    </g>
    <path id="패스_44387" d="M517.374 1970.315a36.7 36.7 0 0 1-11.9 19.666 2.139 2.139 0 0 1-3.025-3.025 34.481 34.481 0 0 0 3.907-3.892c.289-.338.568-.683.846-1.031q.227-.29.015-.019l.229-.3c.114-.153.226-.307.337-.461q.807-1.12 1.523-2.3t1.336-2.415q.3-.6.576-1.2c.079-.173.155-.348.232-.522q.147-.342.008-.014c.049-.117.1-.235.144-.352a34.463 34.463 0 0 0 1.642-5.265 2.157 2.157 0 0 1 2.632-1.494 2.187 2.187 0 0 1 1.494 2.631z" class="cls-2" transform="translate(-413.401 -1966.167)"/>
    <g id="그룹_56328" transform="translate(81.405 19.783)">
        <path id="패스_44388" d="M529.209 2011.968c1.031-2.266 4.017-4.558 5.636-2.666.919 1.072.5 2.7.03 4.034l-3.228 9.19a9.612 9.612 0 0 1-2.127 3.938 3.3 3.3 0 0 1-4.113.544c-2.372-1.747-1.283-5.457.028-8.095l5.561-11.19" class="cls-2" transform="translate(-523.303 -2007.001)"/>
        <path id="패스_44389" d="M527.784 2010.811a7.023 7.023 0 0 1 3.26-3.355 2.869 2.869 0 0 1 3.81.968c.972 1.608.145 3.607-.415 5.2l-2.283 6.5a18.847 18.847 0 0 1-2.327 5.349 4.543 4.543 0 0 1-4.389 1.884 3.873 3.873 0 0 1-2.851-3.148 8.835 8.835 0 0 1 .6-4.547 62.418 62.418 0 0 1 2.922-6.128l3.462-6.967c.408-.823 1.638-.1 1.231.72l-5.141 10.345a17.777 17.777 0 0 0-1.558 3.934 4.469 4.469 0 0 0 .3 3.426 2.359 2.359 0 0 0 3.422.478c1.241-.832 1.791-2.41 2.266-3.753.629-1.776 1.249-3.555 1.873-5.333.588-1.675 1.3-3.354 1.739-5.076a2.683 2.683 0 0 0-.169-2.3 1.3 1.3 0 0 0-1.394-.439 5.257 5.257 0 0 0-3.123 2.961c-.392.829-1.622.106-1.231-.72z" class="cls-2" transform="translate(-522.493 -2006.204)"/>
    </g>
</svg>
