<svg xmlns="http://www.w3.org/2000/svg" width="200" height="60" viewBox="0 0 200 60">
    <defs>
        <clipPath id="clip-path">
            <path id="사각형_15864" data-name="사각형 15864" class="cls-1" d="M0 0h192.109v49.823H0z"/>
        </clipPath>
        <style>
            .cls-1,.cls-5{fill:none}.cls-5{stroke:#000;stroke-miterlimit:10}
        </style>
    </defs>
    <g id="그룹_61966" data-name="그룹 61966" transform="translate(-260 -1047)" style="opacity:.5">
        <g id="그룹_61964" data-name="그룹 61964" transform="translate(263.945 1052)">
            <g id="그룹_61965" data-name="그룹 61965" style="clip-path:url(#clip-path)">
                <path id="패스_47471" data-name="패스 47471" d="M683.271 0h6.213a7.229 7.229 0 0 1 7.229 7.229v6.213a7.229 7.229 0 0 1-7.229 7.229h-6.213a7.229 7.229 0 0 1-7.229-7.229V7.229A7.229 7.229 0 0 1 683.271 0" transform="translate(-504.603)"/>
                <path id="패스_47472" data-name="패스 47472" d="M699.286 16.643V26.8l-1.632 1.632.9.9 2-2v-3.07h5.583v2.595h-1.92v1.268h3.183V16.643zm6.851 3.191h-5.583v-1.923h5.583zm-5.583 1.266h5.583v1.891h-5.583z" transform="translate(-520.735 -12.422)" style="fill:#fff"/>
                <path id="패스_47473" data-name="패스 47473" d="M179.689 73.521h2.029v-20.17h-19.684v2.029h17.655z" transform="translate(-120.944 -39.822)"/>
                <path id="패스_47474" data-name="패스 47474" class="cls-5" d="M179.689 73.521h2.029v-20.17h-19.684v2.029h17.655z" transform="translate(-120.944 -39.822)"/>
                <path id="패스_47475" data-name="패스 47475" d="M278.651 52.93h-2.029v25.258h2.029V67.462h7.162v-2.028h-7.162z" transform="translate(-206.473 -39.507)"/>
                <path id="패스_47476" data-name="패스 47476" class="cls-5" d="M278.651 52.93h-2.029v25.258h2.029V67.462h7.162v-2.028h-7.162z" transform="translate(-206.473 -39.507)"/>
                <path id="패스_47477" data-name="패스 47477" d="M164.767 152.451h-2.029v11.036h31.839v-2.029h-29.81z" transform="translate(-121.469 -113.79)"/>
                <path id="패스_47478" data-name="패스 47478" class="cls-5" d="M164.767 152.451h-2.029v11.036h31.839v-2.029h-29.81z" transform="translate(-121.469 -113.79)"/>
                <path id="패스_47479" data-name="패스 47479" d="M358.425 45.5H356.4v7.936l-6.766 5.692-6.923-5.828v-7.8h-2.029v7.936l-9.705 8.164 1.367 1.461 9.43-7.933 7.626 6.412.232-.248.232.248 7.625-6.415 9.809 8.252 1.367-1.461-10.24-8.616z" transform="translate(-247.044 -33.959)"/>
                <path id="패스_47480" data-name="패스 47480" class="cls-5" d="M358.425 45.5H356.4v7.936l-6.766 5.692-6.923-5.828v-7.8h-2.029v7.936l-9.705 8.164 1.367 1.461 9.43-7.933 7.626 6.412.232-.248.232.248 7.625-6.415 9.809 8.252 1.367-1.461-10.24-8.616z" transform="translate(-247.044 -33.959)"/>
                <path id="사각형_15860" data-name="사각형 15860" transform="translate(84.498 32.276)" d="M0 0h36.556v1.976H0z"/>
                <path id="사각형_15861" data-name="사각형 15861" class="cls-5" transform="translate(84.498 32.276)" d="M0 0h36.556v1.976H0z"/>
                <path id="패스_47481" data-name="패스 47481" d="M368.268 148.013h-36.556v.58h-.512v10.93h37.571v-10.8h-.507zm-1.522 9.534h-33.512v-7.558h33.513z" transform="translate(-247.214 -110.478)"/>
                <path id="패스_47482" data-name="패스 47482" class="cls-5" d="M368.268 148.013h-36.556v.58h-.512v10.93h37.571v-10.8h-.507zm-1.522 9.534h-33.512v-7.558h33.513z" transform="translate(-247.214 -110.478)"/>
                <path id="패스_47483" data-name="패스 47483" d="m516.444 55.125 7.625 6.414.231-.248.232.248 7.625-6.415 9.809 8.252 1.367-1.461-10.238-8.615v-7.8h-2.029v7.936l-6.766 5.688-6.919-5.824v-7.8h-2.029v7.936l-9.706 8.164 1.367 1.461z" transform="translate(-377.419 -33.959)"/>
                <path id="패스_47484" data-name="패스 47484" class="cls-5" d="m516.444 55.125 7.625 6.414.231-.248.232.248 7.625-6.415 9.809 8.252 1.367-1.461-10.238-8.615v-7.8h-2.029v7.936l-6.766 5.688-6.919-5.824v-7.8h-2.029v7.936l-9.706 8.164 1.367 1.461z" transform="translate(-377.419 -33.959)"/>
                <path id="패스_47485" data-name="패스 47485" d="M542.939 148.013h-36.557v.58h-.507v10.93h37.571v-10.8h-.507zm-1.522 9.534H507.9v-7.558h33.513z" transform="translate(-377.589 -110.478)"/>
                <path id="패스_47486" data-name="패스 47486" class="cls-5" d="M542.939 148.013h-36.557v.58h-.507v10.93h37.571v-10.8h-.507zm-1.522 9.534H507.9v-7.558h33.513z" transform="translate(-377.589 -110.478)"/>
                <path id="사각형_15862" data-name="사각형 15862" transform="translate(128.793 32.276)" d="M0 0h36.557v1.976H0z"/>
                <path id="사각형_15863" data-name="사각형 15863" class="cls-5" transform="translate(128.793 32.276)" d="M0 0h36.557v1.976H0z"/>
                <path id="패스_47487" data-name="패스 47487" d="M28.922 71.312H.5v2.028h8.692v5.072h2.029V73.34h17.7v2.842H16.753v2.029h12.169V81.7H.568v7.268h30.307v-2.03H2.6v-3.21h28.351V52.93h-2.029z" transform="translate(-.373 -39.508)"/>
                <path id="패스_47488" data-name="패스 47488" class="cls-5" d="M28.922 71.312H.5v2.028h8.692v5.072h2.029V73.34h17.7v2.842H16.753v2.029h12.169V81.7H.568v7.268h30.307v-2.03H2.6v-3.21h28.351V52.93h-2.029z" transform="translate(-.373 -39.508)"/>
                <path id="패스_47489" data-name="패스 47489" d="M13.257 67.108A8.208 8.208 0 1 0 5.048 58.9a8.218 8.218 0 0 0 8.209 8.208m0-14.611a6.4 6.4 0 1 1-6.4 6.4 6.41 6.41 0 0 1 6.4-6.4" transform="translate(-3.768 -37.836)"/>
                <path id="패스_47490" data-name="패스 47490" class="cls-5" d="M13.257 67.108A8.208 8.208 0 1 0 5.048 58.9a8.218 8.218 0 0 0 8.209 8.208zm0-14.611a6.4 6.4 0 1 1-6.4 6.4 6.41 6.41 0 0 1 6.4-6.397z" transform="translate(-3.768 -37.836)"/>
            </g>
        </g>
        <path id="사각형_15865" data-name="사각형 15865" class="cls-1" transform="translate(260 1047)" d="M0 0h200v60H0z"/>
    </g>
</svg>
