<svg xmlns="http://www.w3.org/2000/svg" width="39.763" height="39.763" viewBox="0 0 39.763 39.763">
  <g id="그룹_55874" data-name="그룹 55874" transform="translate(0 0)">
    <rect id="사각형_787" data-name="사각형 787" width="39.763" height="39.763" transform="translate(0 0)" fill="none"/>
    <g id="그룹_55592" data-name="그룹 55592" transform="translate(3.181 3.977)">
      <g id="그룹_55581" data-name="그룹 55581">
        <g id="그룹_55580" data-name="그룹 55580">
          <g id="그룹_55579" data-name="그룹 55579">
            <path id="패스_36611" data-name="패스 36611" d="M743.55,698.1H719.623a.5.5,0,0,1-.5-.5V672.2a.5.5,0,0,1,.174-.38l6.793-5.863a.5.5,0,0,1,.329-.122H743.55a.5.5,0,0,1,.5.5V697.6A.5.5,0,0,1,743.55,698.1Zm-23.423-1.007h22.92V666.846H726.6l-6.477,5.59Z" transform="translate(-719.12 -665.839)" fill="#272727"/>
          </g>
          <path id="패스_36612" data-name="패스 36612" d="M727.019,674.049h-6.585a.5.5,0,1,1,0-1.007h6.082v-5.384a.5.5,0,0,1,1.007,0v5.887A.5.5,0,0,1,727.019,674.049Z" transform="translate(-719.387 -666.272)" fill="#272727"/>
        </g>
      </g>
      <g id="그룹_55583" data-name="그룹 55583" transform="translate(2.986 10.344)">
        <rect id="사각형_10286" data-name="사각형 10286" width="2.58" height="2.58" transform="translate(0.397 0.398)" fill="#fff"/>
        <path id="패스_28226" data-name="패스 28226" d="M726.547,684.629h-2.58a.4.4,0,0,1-.4-.4h0v-2.58a.4.4,0,0,1,.4-.4h2.58a.4.4,0,0,1,.4.4h0v2.58a.4.4,0,0,1-.4.4Zm-2.183-.794h1.788v-1.786h-1.788Z" transform="translate(-723.57 -681.254)" fill="#363436"/>
      </g>
      <g id="그룹_55584" data-name="그룹 55584" transform="translate(7.932 11.634)">
        <line id="선_1070" data-name="선 1070" x2="12.939" transform="translate(0.381 0.397)" fill="none"/>
        <path id="패스_28227" data-name="패스 28227" d="M744.26,683.971H731.321a.4.4,0,0,1,0-.794H744.26a.4.4,0,0,1,0,.794Z" transform="translate(-730.94 -683.177)" fill="#363436"/>
      </g>
      <g id="그룹_55585" data-name="그룹 55585" transform="translate(2.986 15.297)">
        <rect id="사각형_10287" data-name="사각형 10287" width="2.58" height="2.58" transform="translate(0.397 0.398)" fill="#fff"/>
        <path id="패스_28228" data-name="패스 28228" d="M726.547,692.01h-2.58a.4.4,0,0,1-.4-.4h0v-2.58a.4.4,0,0,1,.4-.4h2.58a.4.4,0,0,1,.4.4h0v2.58a.4.4,0,0,1-.4.4Zm-2.183-.794h1.788v-1.786h-1.788Z" transform="translate(-723.57 -688.635)" fill="#363436"/>
      </g>
      <g id="그룹_55586" data-name="그룹 55586" transform="translate(7.932 16.588)">
        <line id="선_1071" data-name="선 1071" x2="12.939" transform="translate(0.381 0.397)" fill="none"/>
        <path id="패스_28229" data-name="패스 28229" d="M744.26,691.353H731.321a.4.4,0,0,1,0-.794H744.26a.4.4,0,0,1,0,.794Z" transform="translate(-730.94 -690.559)" fill="#363436"/>
      </g>
      <g id="그룹_55587" data-name="그룹 55587" transform="translate(2.986 20.251)">
        <rect id="사각형_10288" data-name="사각형 10288" width="2.58" height="2.58" transform="translate(0.397 0.397)" fill="#fff"/>
        <path id="패스_28230" data-name="패스 28230" d="M726.547,699.392h-2.58a.4.4,0,0,1-.4-.4h0v-2.58a.4.4,0,0,1,.4-.4h2.58a.4.4,0,0,1,.4.4h0v2.58a.4.4,0,0,1-.4.4Zm-2.183-.791h1.788v-1.786h-1.788Z" transform="translate(-723.57 -696.017)" fill="#363436"/>
      </g>
      <g id="그룹_55588" data-name="그룹 55588" transform="translate(7.932 21.541)">
        <line id="선_1072" data-name="선 1072" x2="12.939" transform="translate(0.381 0.397)" fill="none"/>
        <path id="패스_28231" data-name="패스 28231" d="M744.26,698.734H731.321a.4.4,0,0,1,0-.794H744.26a.4.4,0,0,1,0,.794Z" transform="translate(-730.94 -697.94)" fill="#363436"/>
      </g>
      <g id="그룹_55589" data-name="그룹 55589" transform="translate(2.986 25.203)">
        <rect id="사각형_10289" data-name="사각형 10289" width="2.58" height="2.58" transform="translate(0.397 0.398)" fill="#fff"/>
        <path id="패스_28232" data-name="패스 28232" d="M726.547,706.773h-2.58a.4.4,0,0,1-.4-.4h0V703.8a.4.4,0,0,1,.4-.4h2.58a.4.4,0,0,1,.4.4h0v2.58a.4.4,0,0,1-.4.4Zm-2.183-.794h1.788v-1.786h-1.788Z" transform="translate(-723.57 -703.398)" fill="#363436"/>
      </g>
      <g id="그룹_55590" data-name="그룹 55590" transform="translate(7.932 26.495)">
        <line id="선_1073" data-name="선 1073" x2="12.939" transform="translate(0.381 0.397)" fill="none"/>
        <path id="패스_28233" data-name="패스 28233" d="M744.26,706.117H731.321a.4.4,0,0,1,0-.794H744.26a.4.4,0,0,1,0,.794Z" transform="translate(-730.94 -705.322)" fill="#363436"/>
      </g>
      <g id="그룹_55591" data-name="그룹 55591" transform="translate(14.782 8.321)">
        <g id="그룹_24244" data-name="그룹 24244" transform="translate(2.68 0.838)">
          <rect id="사각형_10290" data-name="사각형 10290" width="17.041" height="3.691" transform="translate(0.398 12.447) rotate(-45)" fill="#f3a5bf"/>
          <path id="패스_28234" data-name="패스 28234" d="M748.149,694.941a.4.4,0,0,1-.281-.116l-2.61-2.61a.4.4,0,0,1,0-.56h0l12.05-12.05a.4.4,0,0,1,.562,0l2.61,2.611a.4.4,0,0,1,0,.56h0l-12.05,12.049A.4.4,0,0,1,748.149,694.941Zm-2.049-3.007,2.049,2.049,11.489-11.489-2.049-2.049Z" transform="translate(-745.141 -679.487)" fill="#363436"/>
        </g>
        <g id="그룹_24245" data-name="그룹 24245" transform="translate(14.729)">
          <path id="사각형_10291" data-name="사각형 10291" d="M765.711,679.314l.994.994a1.145,1.145,0,0,1,0,1.616l-.4.4h0l-2.61-2.61h0l.4-.4A1.145,1.145,0,0,1,765.711,679.314Z" transform="translate(-763.293 -678.482)" fill="#fde090"/>
          <path id="패스_28235" data-name="패스 28235" d="M766.106,682.48a.4.4,0,0,1-.281-.116l-2.611-2.61a.4.4,0,0,1,0-.562l.574-.574a1.3,1.3,0,0,1,1.839,0l1.333,1.333a1.3,1.3,0,0,1,0,1.838l-.574.574A.394.394,0,0,1,766.106,682.48Zm-2.049-3.006,2.049,2.049.293-.293a.5.5,0,0,0,0-.714h0l-1.333-1.333a.506.506,0,0,0-.715,0Z" transform="translate(-763.098 -678.239)" fill="#363436"/>
        </g>
        <g id="그룹_24246" data-name="그룹 24246" transform="translate(0 12.887)">
          <path id="패스_28236" data-name="패스 28236" d="M747.031,700.648l-2.608-2.608-1.269,2.5-1.409,2.784,2.784-1.409Z" transform="translate(-741.344 -697.639)" fill="#ffe1d6"/>
          <path id="패스_28237" data-name="패스 28237" d="M741.545,703.523a.4.4,0,0,1-.4-.4.388.388,0,0,1,.043-.181l2.684-5.287a.4.4,0,0,1,.534-.174.411.411,0,0,1,.1.072l2.608,2.608a.4.4,0,0,1,0,.561.393.393,0,0,1-.1.074l-5.289,2.678A.386.386,0,0,1,741.545,703.523Zm2.787-5.016-1.884,3.716,3.718-1.879Z" transform="translate(-741.148 -697.443)" fill="#363436"/>
        </g>
        <g id="그룹_24247" data-name="그룹 24247" transform="translate(0 15.39)">
          <path id="패스_28238" data-name="패스 28238" d="M744.526,703.137l-1.372-1.373-1.409,2.784Z" transform="translate(-741.344 -701.367)" fill="#616682"/>
          <path id="패스_28239" data-name="패스 28239" d="M741.545,704.751a.4.4,0,0,1-.4-.4.384.384,0,0,1,.043-.181l1.409-2.784a.4.4,0,0,1,.534-.175.4.4,0,0,1,.1.073l1.372,1.372a.4.4,0,0,1,0,.56.412.412,0,0,1-.1.074l-2.784,1.409A.4.4,0,0,1,741.545,704.751Zm1.518-2.513-.615,1.213,1.213-.615Z" transform="translate(-741.148 -701.173)" fill="#363436"/>
        </g>
      </g>
    </g>
  </g>
</svg>
