<svg xmlns="http://www.w3.org/2000/svg" width="42" height="42" viewBox="0 0 42 42">
    <defs>
        <clipPath id="9dzlcmwsza">
            <path data-name="사각형 22535" style="fill:none" d="M0 0h38.847v38.847H0z"/>
        </clipPath>
        <clipPath id="8c0zdze6vb">
            <path data-name="사각형 22576" style="fill:none" d="M0 0h21.453v16.38H0z"/>
        </clipPath>
    </defs>
    <g data-name="그룹 82541">
        <g data-name="그룹 77709">
            <g data-name="그룹 77710" transform="translate(1.928 1.061)" style="clip-path:url(#9dzlcmwsza)">
                <path data-name="패스 57462" d="M19.578 0a19.424 19.424 0 0 0-.308 38.846h.056A19.423 19.423 0 0 0 19.578 0m-.3 2.213h.054a17.21 17.21 0 0 1 .246 34.42h-.152a17.211 17.211 0 0 1-.148-34.42"/>
                <g data-name="그룹 77765" transform="translate(8.697 12.773)" style="clip-path:url(#8c0zdze6vb)">
                    <path data-name="패스 57520" d="M20.399 4.2h-1.923l.642-2.607a1.073 1.073 0 0 0-.057-.779.8.8 0 0 0-.572-.413.86.86 0 0 0-.686.066.9.9 0 0 0-.4.652l-.723 3.083h-4.128l-.691-2.8a1.42 1.42 0 0 0-.476-.8 1.13 1.13 0 0 0-.686-.239 1.208 1.208 0 0 0-.715.239 1.318 1.318 0 0 0-.467.8l-.688 2.8h-4.1l-.717-3.1a.834.834 0 0 0-.447-.678 1.09 1.09 0 0 0-.713-.022.925.925 0 0 0-.592.45 1.191 1.191 0 0 0-.076.858l.614 2.5H1.052a.734.734 0 0 0 0 1.466H3.16l2.282 9.287a1.472 1.472 0 0 0 .476.815 1.125 1.125 0 0 0 .7.25 1.171 1.171 0 0 0 .7-.24 1.393 1.393 0 0 0 .486-.8l2.287-9.316h1.161l2.225 9.294a1.476 1.476 0 0 0 .476.815 1.1 1.1 0 0 0 .686.25 1.158 1.158 0 0 0 .7-.24 1.418 1.418 0 0 0 .476-.8l2.292-9.316h2.283a.734.734 0 0 0 0-1.466zM6.718 12.808 5.07 5.666h3.4zm3.734-8.609.229-.932.223.932zm4.21 8.587-1.75-7.118h3.424z"/>
                    <path data-name="패스 57521" d="M20.547 4.348h-1.923l.642-2.607a1.073 1.073 0 0 0-.057-.779.8.8 0 0 0-.572-.413.86.86 0 0 0-.686.066.9.9 0 0 0-.4.652l-.723 3.083H12.7l-.691-2.8a1.42 1.42 0 0 0-.476-.8 1.13 1.13 0 0 0-.686-.239 1.208 1.208 0 0 0-.715.239 1.318 1.318 0 0 0-.467.8l-.688 2.8h-4.1l-.717-3.1a.834.834 0 0 0-.447-.678A1.09 1.09 0 0 0 3 .55a.925.925 0 0 0-.592.45 1.191 1.191 0 0 0-.076.858l.614 2.5H1.2a.734.734 0 0 0 0 1.466h2.108l2.282 9.287a1.472 1.472 0 0 0 .476.815 1.125 1.125 0 0 0 .7.25 1.171 1.171 0 0 0 .7-.24 1.393 1.393 0 0 0 .486-.8l2.287-9.316H11.4l2.225 9.294a1.476 1.476 0 0 0 .476.815 1.1 1.1 0 0 0 .686.25 1.158 1.158 0 0 0 .7-.24 1.418 1.418 0 0 0 .476-.8l2.292-9.316h2.283a.734.734 0 0 0 0-1.466zM6.866 12.956 5.218 5.814h3.4zM10.6 4.347l.229-.932.223.932zm4.21 8.587-1.75-7.118h3.424z" transform="translate(-.148 -.148)" style="fill:none"/>
                </g>
            </g>
        </g>
        <path data-name="사각형 22855" style="fill:none" d="M0 0h42v42H0z"/>
    </g>
</svg>
