<svg width="250" height="120" viewBox="0 0 250 120" fill="none" xmlns="http://www.w3.org/2000/svg">
<path d="M125.002 59C117.833 59 112 53.337 112 46.3739V45.3743C112 38.4375 117.711 33 125.002 33C132.293 33 138 38.4375 138 45.3743V46.3739C138 53.337 132.167 59 124.998 59H125.002ZM135.255 46.3739V45.3743C135.255 39.9556 130.75 35.7131 125.002 35.7131C119.254 35.7131 114.748 39.9556 114.748 45.3743V46.3739C114.748 51.8377 119.35 56.2869 125.002 56.2869C130.654 56.2869 135.255 51.8414 135.255 46.3739Z" fill="black" stroke="black" stroke-width="0.5"/>
<path d="M125.002 56.0029C137.683 56.0029 148 65.8215 148 77.8858V84.6846C148 85.4078 147.391 85.9964 146.647 85.9964C145.902 85.9964 145.293 85.4078 145.293 84.6846V77.8858C145.293 67.2678 136.191 58.6302 125.002 58.6302C113.813 58.6302 104.711 67.2678 104.711 77.8858V84.6846C104.711 85.4078 104.101 85.9964 103.357 85.9964C102.613 85.9964 102.004 85.4078 102.004 84.6846V77.8858C102.004 65.8215 112.321 56.0029 125.002 56.0029Z" fill="black" stroke="black" stroke-width="0.5"/>
<path d="M158.766 72.3555H91.2405C85.8351 72.3555 81.4531 76.4499 81.4531 81.5006C81.4531 86.5514 85.8351 90.6458 91.2405 90.6458H158.766C164.171 90.6458 168.553 86.5514 168.553 81.5006C168.553 76.4499 164.171 72.3555 158.766 72.3555Z" fill="white"/>
<path d="M158.763 92H91.2373C85.0459 92 80 87.2852 80 81.5C80 75.7148 85.0459 71 91.2373 71H158.763C164.954 71 170 75.7148 170 81.5C170 87.2852 164.954 92 158.763 92ZM91.2373 73.7097C86.6409 73.7097 82.9 77.2052 82.9 81.5C82.9 85.7948 86.6409 89.2903 91.2373 89.2903H158.763C163.359 89.2903 167.1 85.7948 167.1 81.5C167.1 77.2052 163.359 73.7097 158.763 73.7097H91.2373Z" fill="black"/>
<path d="M98.7203 76.3105H95.8203V86.7022H98.7203V76.3105Z" fill="black"/>
<path d="M93.1844 77.7334L91.7344 80.0801L101.366 85.2759L102.816 82.9292L93.1844 77.7334Z" fill="black"/>
<path d="M101.367 77.7247L91.7344 82.9189L93.1839 85.2658L102.816 80.0716L101.367 77.7247Z" fill="black"/>
<path d="M117.205 76.3105H114.305V86.7022H117.205V76.3105Z" fill="black"/>
<path d="M111.669 77.7305L110.219 80.0771L119.85 85.273L121.3 82.9263L111.669 77.7305Z" fill="black"/>
<path d="M119.859 77.7345L110.227 82.9287L111.676 85.2756L121.308 80.0814L119.859 77.7345Z" fill="black"/>
<path d="M135.697 76.3105H132.797V86.7022H135.697V76.3105Z" fill="black"/>
<path d="M130.153 77.7276L128.703 80.0742L138.334 85.27L139.784 82.9234L130.153 77.7276Z" fill="black"/>
<path d="M138.351 77.7296L128.719 82.9238L130.168 85.2707L139.801 80.0765L138.351 77.7296Z" fill="black"/>
<path d="M154.181 76.3105H151.281V86.7022H154.181V76.3105Z" fill="black"/>
<path d="M148.653 77.7393L147.203 80.0859L156.834 85.2817L158.284 82.9351L148.653 77.7393Z" fill="black"/>
<path d="M156.82 77.7257L147.188 82.9199L148.637 85.2668L158.269 80.0726L156.82 77.7257Z" fill="black"/>
<rect x="5.5" y="6.5" width="238" height="107" rx="53.5" stroke="#CACACA"/>
</svg>
