<svg width="250" height="120" viewBox="0 0 250 120" fill="none" xmlns="http://www.w3.org/2000/svg">
<rect x="5.5" y="6.5" width="238" height="107" rx="53.5" stroke="#CACACA"/>
<g clip-path="url(#clip0_4239_2604)">
<path d="M129.385 97H96.4544C92.8909 97 90 94.1287 90 90.5893V29.4107C90 25.8713 92.8909 23 96.4544 23H129.385C132.948 23 135.839 25.8713 135.839 29.4107V90.5893C135.839 94.1287 132.948 97 129.385 97ZM93.1485 35.5797V90.5893C93.1485 92.3945 94.6369 93.8728 96.4544 93.8728H129.385C131.202 93.8728 132.691 92.3945 132.691 90.5893V35.5797H132.347H93.1485ZM93.1485 32.4526H132.691V29.4107C132.691 27.6055 131.202 26.1272 129.385 26.1272H96.4544C94.6369 26.1272 93.1485 27.6055 93.1485 29.4107V32.4526Z" fill="black"/>
<path d="M133.064 81.2502H92.7774C91.9044 81.2502 91.2031 80.5537 91.2031 79.6866C91.2031 78.8196 91.9044 78.123 92.7774 78.123H133.049C133.922 78.123 134.624 78.8196 134.624 79.6866C134.624 80.5537 133.922 81.2502 133.049 81.2502H133.064Z" fill="black"/>
<path d="M112.911 91.0299C110.592 91.0299 108.703 89.1536 108.703 86.8509C108.703 84.5482 110.592 82.6719 112.911 82.6719C115.229 82.6719 117.118 84.5482 117.118 86.8509C117.118 89.1536 115.229 91.0299 112.911 91.0299ZM112.911 85.8132C112.324 85.8132 111.852 86.2823 111.852 86.8651C111.852 87.4479 112.324 87.917 112.911 87.917C113.497 87.917 113.97 87.4479 113.97 86.8651C113.97 86.2823 113.497 85.8132 112.911 85.8132Z" fill="black"/>
<path d="M119.367 46.0274C119.367 35.9778 130.301 27.833 143.782 27.833C157.263 27.833 168.197 35.9778 168.197 46.0274C168.197 56.077 157.263 64.2218 143.782 64.2218C142.451 64.2218 141.163 64.1365 139.904 63.9944C139.26 65.0036 136.398 68.6567 129.414 67.8322C129.414 67.8322 132.204 65.231 132.619 62.2176C124.748 59.2041 119.367 53.0919 119.367 46.0416V46.0274Z" fill="white"/>
<path d="M131.401 69.7226C130.715 69.7226 129.97 69.68 129.198 69.5947C128.511 69.5094 127.924 69.0403 127.709 68.3865C127.495 67.7326 127.681 67.0077 128.181 66.5386C128.682 66.0695 129.856 64.7334 130.471 63.2551C122.471 59.6873 117.562 53.1913 117.562 46.0415C117.562 35.0254 129.312 26.0703 143.766 26.0703C158.221 26.0703 169.97 35.0254 169.97 46.0415C169.97 57.0576 158.221 66.0127 143.766 66.0127C142.75 66.0127 141.734 65.97 140.704 65.8705C139.387 67.4057 136.539 69.7369 131.387 69.7369L131.401 69.7226ZM143.781 29.6239C131.301 29.6239 121.155 36.9869 121.155 46.0415C121.155 52.1252 125.791 57.6973 133.262 60.5544C134.035 60.8529 134.507 61.6347 134.393 62.4449C134.207 63.781 133.677 65.0177 133.062 66.0553C136.453 65.572 137.942 63.7242 138.385 63.0277C138.757 62.4591 139.416 62.1322 140.103 62.2174C141.334 62.3596 142.564 62.4307 143.781 62.4307C156.26 62.4307 166.407 55.0676 166.407 46.0131C166.407 36.9585 156.26 29.5955 143.781 29.5955V29.6239Z" fill="black"/>
<path d="M153.273 46.454C153.273 47.7049 154.304 48.7283 155.563 48.7283C156.823 48.7283 157.853 47.7049 157.853 46.454C157.853 45.2031 156.837 44.1797 155.563 44.1797C154.29 44.1797 153.273 45.2031 153.273 46.454Z" fill="black"/>
<path d="M143.798 48.7283C145.062 48.7283 146.087 47.71 146.087 46.454C146.087 45.1979 145.062 44.1797 143.798 44.1797C142.533 44.1797 141.508 45.1979 141.508 46.454C141.508 47.71 142.533 48.7283 143.798 48.7283Z" fill="black"/>
<path d="M129.727 46.454C129.727 47.7049 130.757 48.7283 132.016 48.7283C133.276 48.7283 134.306 47.7049 134.306 46.454C134.306 45.2031 133.276 44.1797 132.016 44.1797C130.757 44.1797 129.727 45.2031 129.727 46.454Z" fill="black"/>
</g>
<path d="M32.0316 59.9962C26.5746 59.9962 21.119 60.0004 15.6619 59.9947C9.62191 59.9891 5 55.3644 5 49.328C5 38.4206 5.00141 27.5132 5.00986 16.6072C5.01267 11.556 8.30096 7.4042 13.2228 6.27968C14.0551 6.08968 14.9311 6.01509 15.7887 6.01368C26.5774 5.99679 37.3675 5.9982 48.1562 6.00383C52.7936 6.00664 56.6508 8.61879 58.2956 12.8537C58.7519 14.0303 58.9674 15.2603 58.9702 16.5186C58.9857 27.5667 59.0082 38.6148 58.997 49.6616C58.9913 55.3517 54.3159 59.975 48.6124 59.9947C45.8494 60.0046 43.0864 59.9976 40.322 59.9976C37.559 59.9976 34.7946 59.9976 32.0316 59.9976V59.9962ZM46.6803 39.3931C46.6831 39.3692 46.6845 39.3439 46.6873 39.32C47.1619 39.32 47.6379 39.3368 48.1125 39.3171C49.6278 39.2552 50.7079 38.4094 50.9628 36.9231C51.0966 36.1406 51.0755 35.306 50.9685 34.5165C50.8107 33.3385 50.1179 32.5137 48.9307 32.2224C48.0463 32.0057 47.1479 31.8354 46.2466 31.7059C45.2143 31.5581 44.9059 31.2471 44.9228 30.214C44.9256 30.0916 44.9228 29.9677 44.9355 29.8453C44.9918 29.2401 45.2594 28.9361 45.8579 28.8925C46.3649 28.8545 46.8789 28.8573 47.3873 28.8897C47.9928 28.9291 48.2153 29.1613 48.3153 29.7651C48.3406 29.9213 48.3575 30.0789 48.3646 30.2365C48.3773 30.5321 48.5082 30.694 48.8195 30.6911C49.3645 30.6869 49.9123 30.7151 50.4544 30.6714C50.6037 30.6588 50.8488 30.4491 50.8614 30.3125C51.0023 28.7475 50.4995 27.0516 48.4744 26.7546C47.3549 26.59 46.186 26.5857 45.058 26.6955C43.4836 26.8489 42.5752 27.7848 42.4091 29.302C42.3288 30.0268 42.3654 30.7812 42.4668 31.506C42.6372 32.7361 43.3455 33.5594 44.5862 33.8381C45.4241 34.0267 46.2733 34.1674 47.1183 34.3223C48.3223 34.5432 48.6307 34.9528 48.4956 36.1702C48.4322 36.7444 48.166 37.0301 47.59 37.0794C47.1873 37.1145 46.7817 37.1047 46.3761 37.1033C45.1861 37.0962 45.0186 36.9442 44.9312 35.7536C44.9073 35.4313 44.782 35.2624 44.451 35.2638C43.9229 35.2652 43.392 35.2328 42.8681 35.2807C42.6977 35.2962 42.4372 35.4918 42.402 35.6466C42.057 37.1244 43.0188 38.7795 44.4891 39.1497C45.1946 39.327 45.9466 39.3185 46.6775 39.3945L46.6803 39.3931ZM36.5239 39.4086C36.5267 39.3791 36.531 39.3495 36.5338 39.32C37.0084 39.32 37.4844 39.3368 37.9589 39.3171C39.4968 39.2538 40.5656 38.384 40.8191 36.8697C40.9388 36.1533 40.9332 35.3933 40.8473 34.6685C40.6867 33.2991 39.8685 32.442 38.5251 32.1323C37.7562 31.955 36.9774 31.8072 36.1944 31.7115C35.0157 31.5665 34.7256 31.2696 34.7735 30.1057C34.7777 30.0001 34.7847 29.8945 34.7918 29.789C34.8298 29.2528 35.1269 28.9474 35.6522 28.8939C36.0015 28.8587 36.3549 28.8686 36.707 28.8686C37.9125 28.8714 38.0209 28.984 38.2096 30.1831C38.2392 30.366 38.4603 30.6461 38.6152 30.6616C39.1898 30.7179 39.7756 30.701 40.3544 30.6672C40.4797 30.6602 40.6867 30.4786 40.6994 30.3604C40.8571 28.832 40.4121 27.1079 38.418 26.7743C37.2224 26.5745 35.9592 26.6097 34.7467 26.7321C33.3201 26.8757 32.478 27.7398 32.2851 29.1472C32.1766 29.9354 32.2146 30.7657 32.3245 31.5581C32.4921 32.7671 33.2159 33.5651 34.4327 33.8353C35.2706 34.0211 36.1198 34.166 36.9647 34.3208C38.1519 34.539 38.4589 34.9317 38.3518 36.1167C38.2969 36.7317 38.0054 37.0357 37.3801 37.0822C36.9774 37.1117 36.5718 37.1033 36.1662 37.0991C35.0438 37.0892 34.8509 36.9147 34.7833 35.8028C34.7608 35.4369 34.62 35.2497 34.2383 35.2568C33.7285 35.2666 33.2159 35.2342 32.7089 35.2751C32.5456 35.2891 32.2963 35.4524 32.2555 35.5945C31.8696 36.9654 32.8061 38.7246 34.1862 39.099C34.9368 39.3031 35.7423 39.3101 36.5225 39.4072L36.5239 39.4086ZM27.7082 35.1034C27.7462 35.2075 27.7857 35.292 27.8068 35.3806C28.0842 36.5037 28.3729 37.624 28.6292 38.7528C28.7208 39.1595 28.8883 39.3664 29.3362 39.3326C29.7727 39.2988 30.2149 39.327 30.6543 39.3256C31.2753 39.3228 31.3443 39.2538 31.188 38.6528C30.2008 34.85 29.2038 31.05 28.2152 27.2472C28.0997 26.8039 27.8364 26.6153 27.3773 26.628C26.6914 26.6477 26.0056 26.6322 25.3198 26.6336C24.5072 26.6336 24.4129 26.7138 24.2059 27.509C23.5876 29.8847 22.9638 32.2604 22.3427 34.6361C21.9921 35.9774 21.6414 37.3172 21.2936 38.6585C21.1457 39.2271 21.2161 39.3214 21.7794 39.3256C22.2723 39.3298 22.7638 39.3185 23.2567 39.3284C23.5721 39.3354 23.7397 39.2017 23.8101 38.8921C23.927 38.3784 24.0495 37.8661 24.2073 37.3651C24.2636 37.1877 24.396 36.9865 24.5509 36.895C25.5803 36.2912 26.6253 35.7142 27.7082 35.1048V35.1034ZM12.9975 32.9796H13.0003C13.0003 34.9134 13.0088 36.8471 12.9933 38.7809C12.9905 39.1947 13.1383 39.3523 13.5481 39.334C14.0396 39.3115 14.5339 39.3115 15.0254 39.334C15.4394 39.3537 15.5845 39.1891 15.5789 38.7795C15.562 37.5663 15.5901 36.3531 15.5648 35.14C15.5577 34.7839 15.6887 34.615 15.9873 34.4545C17.3941 33.696 18.7981 32.9303 20.1825 32.1323C21.395 31.4343 22.0076 29.9058 21.6541 28.5814C21.3513 27.4443 20.1191 26.6223 18.7108 26.6209C17.004 26.6209 15.2986 26.6336 13.5918 26.6125C13.1243 26.6068 12.9834 26.7743 12.9877 27.2275C13.006 29.1444 12.9961 31.0599 12.9961 32.9768L12.9975 32.9796Z" fill="#F22B3E"/>
<path d="M46.6744 39.3954C45.9435 39.3194 45.1915 39.3278 44.4859 39.1505C43.0143 38.7817 42.0525 37.1266 42.3989 35.6475C42.4355 35.4912 42.6946 35.297 42.865 35.2815C43.3889 35.2337 43.9198 35.266 44.4479 35.2646C44.7789 35.2646 44.9042 35.4321 44.9281 35.7544C45.014 36.9451 45.183 37.0971 46.373 37.1041C46.7772 37.1069 47.1842 37.1154 47.5869 37.0802C48.1643 37.0309 48.4291 36.7452 48.4925 36.171C48.6276 34.9536 48.3192 34.544 47.1152 34.3231C46.2702 34.1683 45.421 34.0275 44.5831 33.8389C43.3424 33.5603 42.6341 32.7369 42.4637 31.5069C42.3623 30.7821 42.3271 30.0277 42.4059 29.3029C42.5721 27.7857 43.4804 26.8512 45.0549 26.6964C46.1829 26.5866 47.3518 26.5922 48.4713 26.7555C50.4964 27.0524 51.0006 28.7483 50.8583 30.3134C50.8457 30.4499 50.602 30.6596 50.4513 30.6723C49.9092 30.7159 49.3613 30.6878 48.8163 30.692C48.5051 30.6948 48.3742 30.5329 48.3615 30.2374C48.3544 30.0798 48.339 29.9221 48.3122 29.7659C48.2122 29.1621 47.9897 28.9299 47.3842 28.8905C46.8758 28.8567 46.3618 28.8553 45.8548 28.8933C45.2563 28.9384 44.9887 29.2423 44.9324 29.8461C44.9211 29.9686 44.9225 30.0924 44.9197 30.2149C44.9014 31.2479 45.2112 31.5589 46.2435 31.7067C47.1447 31.8362 48.0432 32.0065 48.9276 32.2232C50.1148 32.5146 50.8062 33.3393 50.9654 34.5173C51.071 35.3069 51.0935 36.1429 50.9597 36.924C50.7048 38.4088 49.6247 39.256 48.1094 39.318C47.6348 39.3377 47.1588 39.3208 46.6842 39.3208C46.6814 39.3447 46.68 39.37 46.6772 39.394L46.6744 39.3954Z" fill="white"/>
<path d="M36.5106 39.4111C35.7304 39.3154 34.9263 39.3069 34.1743 39.1028C32.7956 38.7299 31.8577 36.9706 32.2436 35.5984C32.2844 35.4563 32.5323 35.2916 32.697 35.2789C33.204 35.2367 33.7166 35.2691 34.2264 35.2606C34.608 35.2536 34.7489 35.4408 34.7714 35.8067C34.839 36.9185 35.0319 37.0931 36.1543 37.1029C36.5585 37.1071 36.9655 37.1156 37.3682 37.086C37.9935 37.041 38.285 36.7356 38.3399 36.1205C38.4455 34.9369 38.1385 34.5428 36.9528 34.3247C36.1078 34.1699 35.2586 34.0263 34.4207 33.8391C33.204 33.5689 32.4801 32.7709 32.3126 31.562C32.2027 30.7696 32.1647 29.9392 32.2731 29.1511C32.4661 27.7451 33.3082 26.8809 34.7348 26.736C35.9473 26.6135 37.2105 26.5797 38.4061 26.7782C40.4002 27.1117 40.8452 28.8358 40.6875 30.3643C40.6748 30.4811 40.4678 30.664 40.3425 30.6711C39.7637 30.7048 39.1792 30.7217 38.6033 30.6654C38.4484 30.65 38.2273 30.3713 38.1977 30.1869C38.009 28.9878 37.9005 28.8738 36.6951 28.8724C36.343 28.8724 35.9895 28.8626 35.6403 28.8977C35.115 28.9512 34.8179 29.2566 34.7798 29.7928C34.7728 29.8984 34.7658 30.004 34.7615 30.1095C34.7136 31.2734 35.0038 31.5704 36.1825 31.7154C36.9655 31.8111 37.7442 31.9588 38.5131 32.1362C39.8566 32.4458 40.6748 33.3029 40.8354 34.6723C40.9199 35.3971 40.9269 36.1571 40.8072 36.8735C40.5537 38.3879 39.4848 39.2562 37.947 39.321C37.4724 39.3407 36.9964 39.3238 36.5219 39.3238C36.519 39.3534 36.5148 39.3829 36.512 39.4125L36.5106 39.4111Z" fill="white"/>
<path d="M27.7081 35.1055C26.6251 35.7149 25.5802 36.2919 24.5508 36.8957C24.3958 36.9872 24.2621 37.187 24.2071 37.3658C24.0494 37.8668 23.9269 38.3805 23.81 38.8928C23.7396 39.2024 23.572 39.3361 23.2566 39.3291C22.7651 39.3178 22.2722 39.3291 21.7793 39.3263C21.216 39.3221 21.1456 39.2278 21.2934 38.6592C21.6413 37.3179 21.9919 35.9781 22.3426 34.6368C22.9636 32.2611 23.5861 29.8868 24.2057 27.5097C24.4127 26.7145 24.5071 26.6343 25.3197 26.6343C26.0055 26.6343 26.6913 26.6498 27.3771 26.6287C27.8376 26.6146 28.101 26.8046 28.215 27.2479C29.2036 31.0507 30.2007 34.8507 31.1879 38.6535C31.3442 39.2545 31.2752 39.3235 30.6542 39.3263C30.2148 39.3277 29.7726 39.3009 29.336 39.3333C28.8882 39.3671 28.722 39.1602 28.6291 38.7535C28.3742 37.6247 28.0855 36.5044 27.8067 35.3813C27.7841 35.2926 27.7447 35.2082 27.7081 35.1041V35.1055ZM26.29 29.3787C26.2491 29.3745 26.2083 29.3717 26.1674 29.3675C25.8323 30.7284 25.4971 32.0894 25.1281 33.5869C25.7985 33.2139 26.3407 32.931 26.8589 32.6087C26.9617 32.5454 27.0363 32.3104 27.0054 32.1809C26.7843 31.2435 26.5322 30.3118 26.29 29.3787Z" fill="white"/>
<path d="M12.9929 32.9816C12.9929 31.0647 13.0028 29.1492 12.9845 27.2324C12.9802 26.7792 13.1225 26.6117 13.5886 26.6173C15.294 26.6384 17.0008 26.6244 18.7076 26.6258C20.1145 26.6258 21.3467 27.4491 21.6509 28.5863C22.0044 29.9107 21.3918 31.4391 20.1793 32.1372C18.7935 32.9338 17.3909 33.7008 15.9841 34.4594C15.6855 34.6198 15.5545 34.7887 15.5616 35.1448C15.5869 36.358 15.5588 37.5712 15.5757 38.7844C15.5813 39.1939 15.4362 39.3586 15.0222 39.3389C14.5307 39.3149 14.0364 39.3164 13.545 39.3389C13.1351 39.3572 12.9873 39.1995 12.9901 38.7858C13.0042 36.852 12.9971 34.9182 12.9971 32.9844H12.9943L12.9929 32.9816ZM15.5743 31.8655C16.6037 31.3378 17.5515 30.8916 18.4499 30.361C18.6527 30.2414 18.802 29.8121 18.7569 29.5672C18.7217 29.3744 18.357 29.1281 18.1204 29.1084C17.4078 29.0479 16.6854 29.0901 15.9672 29.0817C15.6714 29.0775 15.5658 29.2084 15.57 29.4955C15.5799 30.2456 15.5728 30.9972 15.5728 31.8669L15.5743 31.8655Z" fill="white"/>
<path d="M26.2868 29.3784C26.529 30.3116 26.7811 31.2419 27.0022 32.1806C27.0332 32.3087 26.9571 32.5437 26.8558 32.6084C26.3375 32.9321 25.7953 33.215 25.125 33.5866C25.494 32.0891 25.8291 30.7281 26.1643 29.3672C26.2051 29.3714 26.246 29.3742 26.2868 29.3784Z" fill="#F22B3E"/>
<path d="M15.5733 31.8656C15.5733 30.9958 15.5803 30.2442 15.5704 29.4941C15.5662 29.207 15.6718 29.0775 15.9676 29.0803C16.6858 29.0902 17.4068 29.0465 18.1208 29.107C18.3574 29.1268 18.7207 29.373 18.7573 29.5659C18.8024 29.8122 18.6531 30.2414 18.4503 30.3596C17.5519 30.8888 16.6041 31.335 15.5747 31.8642L15.5733 31.8656Z" fill="#F22B3E"/>
<defs>
<clipPath id="clip0_4239_2604">
<rect width="80" height="74" fill="white" transform="translate(90 23)"/>
</clipPath>
</defs>
</svg>
