<svg width="290" height="360" viewBox="0 0 290 360" fill="none" xmlns="http://www.w3.org/2000/svg">
<rect width="290" height="360" rx="20" fill="url(#paint0_linear_3966_2273)"/>
<path d="M20 169H270" stroke="#17BF98" stroke-width="2" stroke-linecap="round"/>
<rect x="56" y="111" width="79" height="34" rx="6" fill="#CDF5E6"/>
<path d="M71.1094 134.156C68.3906 134.156 66.7656 132.047 66.7656 128.344C66.7656 124.656 68.3906 122.531 71.1094 122.531C73.8125 122.531 75.4531 124.656 75.4531 128.344C75.4531 132.047 73.8281 134.156 71.1094 134.156ZM71.1094 132.453C72.5312 132.453 73.4062 131.062 73.4062 128.344C73.4062 125.641 72.5156 124.219 71.1094 124.219C69.7031 124.219 68.8125 125.641 68.8125 128.344C68.8125 131.062 69.6875 132.453 71.1094 132.453ZM82.3125 127.531V129.172H77.2188V127.531H82.3125ZM88.8438 122.688V134H86.7969V124.672H86.7344L84.0938 126.359V124.5L86.8906 122.688H88.8438ZM95.7656 134.156C93.0469 134.156 91.4219 132.047 91.4219 128.344C91.4219 124.656 93.0469 122.531 95.7656 122.531C98.4688 122.531 100.109 124.656 100.109 128.344C100.109 132.047 98.4844 134.156 95.7656 134.156ZM95.7656 132.453C97.1875 132.453 98.0625 131.062 98.0625 128.344C98.0625 125.641 97.1719 124.219 95.7656 124.219C94.3594 124.219 93.4688 125.641 93.4688 128.344C93.4688 131.062 94.3438 132.453 95.7656 132.453ZM105.984 134.156C103.266 134.156 101.641 132.047 101.641 128.344C101.641 124.656 103.266 122.531 105.984 122.531C108.688 122.531 110.328 124.656 110.328 128.344C110.328 132.047 108.703 134.156 105.984 134.156ZM105.984 132.453C107.406 132.453 108.281 131.062 108.281 128.344C108.281 125.641 107.391 124.219 105.984 124.219C104.578 124.219 103.688 125.641 103.688 128.344C103.688 131.062 104.562 132.453 105.984 132.453ZM123.688 121.266V135.391H122.016V128.141H120.5V134.734H118.875V121.641H120.5V126.734H122.016V121.266H123.688ZM117.672 123.047C117.672 126.859 116.469 130.141 112.453 132.438L111.453 131.234C114.461 129.492 115.734 127.258 115.984 124.438H112.109V123.047H117.672Z" fill="#0E6F6F"/>
<path d="M165.113 118.203V138H161.531V121.676H161.422L156.801 124.629V121.375L161.695 118.203H165.113ZM177.227 138.273C172.469 138.273 169.625 134.582 169.625 128.102C169.625 121.648 172.469 117.93 177.227 117.93C181.957 117.93 184.828 121.648 184.828 128.102C184.828 134.582 181.984 138.273 177.227 138.273ZM177.227 135.293C179.715 135.293 181.246 132.859 181.246 128.102C181.246 123.371 179.688 120.883 177.227 120.883C174.766 120.883 173.207 123.371 173.207 128.102C173.207 132.859 174.738 135.293 177.227 135.293ZM199.539 117.848V129.523H187.836V117.848H199.539ZM190.816 120.281V127.117H196.559V120.281H190.816ZM206.484 115.715V122.961H209.93V125.504H206.484V133.762H203.449V115.715H206.484ZM207.469 137.48V139.941H190.652V132.012H193.688V137.48H207.469ZM231.914 115.742V134.445H228.852V132.285H224.012V130.152H228.852V115.742H231.914ZM232.488 137.48V139.941H214.359V132.641H217.395V137.48H232.488ZM211.078 126.844C215.645 126.816 221.77 126.762 227.02 126.105L227.184 128.293C225.146 128.635 223.041 128.867 220.949 129.004V133.762H217.914V129.168C215.604 129.264 213.402 129.277 211.461 129.277L211.078 126.844ZM219.145 116.645C222.754 116.645 225.27 118.422 225.297 121.02C225.27 123.672 222.754 125.367 219.145 125.367C215.48 125.367 212.965 123.672 212.965 121.02C212.965 118.422 215.48 116.645 219.145 116.645ZM219.145 118.887C217.176 118.887 215.836 119.68 215.836 121.02C215.836 122.359 217.176 123.152 219.145 123.152C221.031 123.152 222.371 122.359 222.398 121.02C222.371 119.68 221.031 118.887 219.145 118.887Z" fill="#364258"/>
<path d="M30.4795 215.744C29.5361 215.744 28.7842 214.992 28.7842 214.049C28.7842 213.119 29.5361 212.367 30.4795 212.367C31.4092 212.367 32.1611 213.119 32.1611 214.049C32.1611 214.992 31.4092 215.744 30.4795 215.744ZM51.7324 206.857V219.217H50.2012V206.857H51.7324ZM48.041 208.17C48.041 211.848 46.6191 214.979 42.2852 217.029L41.4922 215.812C44.7256 214.274 46.2295 212.183 46.4961 209.373H42.1211V208.17H48.041ZM56.4766 207.322V208.662H61.8086V207.322H63.3125V212.34H59.8945V213.475H64.7754V214.705H53.5098V213.475H58.3633V212.34H54.9727V207.322H56.4766ZM56.4766 211.123H61.8086V209.838H56.4766V211.123ZM63.5039 217.74V218.971H54.9043V215.498H56.4219V217.74H63.5039ZM76.9023 216.469V217.713H65.6094V216.469H68.2207V213.338C67.2363 212.777 66.6416 211.896 66.6484 210.795C66.6348 208.826 68.5762 207.527 71.2285 207.527C73.8945 207.527 75.8359 208.826 75.8359 210.795C75.8359 211.875 75.2617 212.743 74.3047 213.311V216.469H76.9023ZM71.2285 208.73C69.3828 208.73 68.125 209.51 68.1387 210.795C68.125 212.066 69.3828 212.859 71.2285 212.859C73.0742 212.859 74.3457 212.066 74.3457 210.795C74.3457 209.51 73.0742 208.73 71.2285 208.73ZM69.7246 216.469H72.7598V213.885C72.2881 213.994 71.7754 214.049 71.2285 214.049C70.6953 214.049 70.1895 213.994 69.7246 213.898V216.469ZM87.6211 207.459V208.416C87.6211 209.373 87.6211 210.467 87.3203 211.93H89.002V213.16H77.709V211.93H85.7891C86.0762 210.597 86.1035 209.578 86.1035 208.676H79.1035V207.459H87.6211ZM87.6074 214.596V219.066H79.0625V214.596H87.6074ZM80.5527 215.785V217.836H86.1035V215.785H80.5527ZM100.445 206.857V219.217H98.9961V206.857H100.445ZM97.9297 207.09V218.615H96.4941V212.395H94.7168V211.164H96.4941V207.09H97.9297ZM93.623 210.234C93.623 212.326 94.375 214.418 96.1387 215.43L95.2363 216.551C94.0947 215.867 93.3359 214.691 92.9121 213.283C92.4746 214.808 91.6885 216.106 90.5195 216.838L89.5898 215.703C91.3809 214.623 92.1602 212.381 92.1602 210.234V209.414H90.0137V208.184H95.6191V209.414H93.623V210.234ZM116.523 216.469V217.713H105.23V216.469H110.098V213.775H106.475V207.814H115.225V213.775H111.602V216.469H116.523ZM107.965 209.031V212.586H113.721V209.031H107.965ZM128.609 213.01V214.227H117.33V213.01H128.609ZM127.352 210.658V211.889H118.711V207.35H127.242V208.553H120.229V210.658H127.352ZM127.434 217.727V218.957H118.725V215.307H120.215V217.727H127.434ZM143.074 206.857V219.217H141.543V206.857H143.074ZM139.383 208.17C139.383 211.848 137.961 214.979 133.627 217.029L132.834 215.812C136.067 214.274 137.571 212.183 137.838 209.373H133.463V208.17H139.383ZM154.846 210.07V211.301H146.314V207.076H147.832V210.07H154.846ZM156.131 212.49V213.721H144.852V212.49H156.131ZM150.471 214.609C153.137 214.623 154.736 215.443 154.75 216.893C154.736 218.342 153.137 219.162 150.471 219.162C147.777 219.162 146.164 218.342 146.164 216.893C146.164 215.443 147.777 214.623 150.471 214.609ZM150.471 215.799C148.666 215.812 147.695 216.154 147.709 216.893C147.695 217.604 148.666 218 150.471 218C152.234 218 153.219 217.604 153.232 216.893C153.219 216.154 152.234 215.812 150.471 215.799ZM164.689 209.824C164.676 212.025 165.783 214.268 167.697 215.184L166.768 216.4C165.428 215.724 164.464 214.418 163.938 212.846C163.397 214.527 162.386 215.922 160.971 216.633L160.041 215.416C162.023 214.473 163.158 212.107 163.172 209.824V207.855H164.689V209.824ZM169.953 206.857V211.697H171.854V212.996H169.953V219.217H168.436V206.857H169.953ZM183.639 212.805V214.021H172.373V212.805H174.998V211.232C174.068 210.843 173.535 210.221 173.535 209.414C173.535 207.938 175.271 207.062 177.992 207.062C180.713 207.062 182.436 207.938 182.449 209.414C182.442 210.228 181.909 210.85 180.973 211.232V212.805H183.639ZM177.992 214.773C180.658 214.76 182.258 215.553 182.271 216.975C182.258 218.41 180.658 219.189 177.992 219.189C175.299 219.189 173.686 218.41 173.686 216.975C173.686 215.553 175.299 214.76 177.992 214.773ZM177.992 215.922C176.188 215.922 175.217 216.277 175.23 216.975C175.217 217.672 176.188 218.041 177.992 218.041C179.756 218.041 180.74 217.672 180.754 216.975C180.74 216.277 179.756 215.922 177.992 215.922ZM177.992 208.238C176.16 208.238 175.107 208.648 175.121 209.414C175.107 210.166 176.16 210.562 177.992 210.562C179.811 210.562 180.877 210.166 180.877 209.414C180.877 208.648 179.811 208.238 177.992 208.238ZM176.529 212.805H179.455V211.629C179.011 211.69 178.519 211.725 177.992 211.725C177.466 211.725 176.974 211.69 176.529 211.629V212.805ZM191.145 216.4V213.816H188.561V212.299H191.145V209.715H192.648V212.299H195.246V213.816H192.648V216.4H191.145ZM30.4795 243.744C29.5361 243.744 28.7842 242.992 28.7842 242.049C28.7842 241.119 29.5361 240.367 30.4795 240.367C31.4092 240.367 32.1611 241.119 32.1611 242.049C32.1611 242.992 31.4092 243.744 30.4795 243.744ZM45.2656 238.098C45.2656 240.094 45.9629 242.172 47.6309 243.225L46.7969 244.387C45.6826 243.717 44.958 242.562 44.5547 241.201C44.1035 242.698 43.3105 243.963 42.1484 244.674L41.2051 243.539C42.9961 242.445 43.8027 240.271 43.8027 238.166V235.951H45.2656V238.098ZM52.0742 234.857V247.217H50.6113V234.857H52.0742ZM49.5039 235.076V246.615H48.0684V240.367H46.3047V239.109H48.0684V235.076H49.5039ZM64.8027 244.469V245.713H53.5098V244.469H58.377V241.775H54.7539V235.814H63.5039V241.775H59.8809V244.469H64.8027ZM56.2441 237.031V240.586H62V237.031H56.2441ZM67.1133 246.109C66.5254 246.109 66.0469 245.631 66.0469 245.043C66.0469 244.469 66.5254 243.99 67.1133 243.99C67.6738 243.99 68.166 244.469 68.166 245.043C68.166 245.631 67.6738 246.109 67.1133 246.109ZM76.6016 239.438C76.3965 238.248 75.4395 237.564 74.2363 237.564C72.6094 237.564 71.4746 238.809 71.4746 241.051C71.4746 243.32 72.623 244.537 74.2363 244.537C75.4121 244.537 76.3691 243.881 76.6016 242.719H78.3926C78.1191 244.619 76.5605 246.137 74.209 246.137C71.5977 246.137 69.6836 244.236 69.6836 241.051C69.6836 237.852 71.625 235.965 74.209 235.965C76.3965 235.965 78.0918 237.236 78.3926 239.438H76.6016ZM79.9238 246V236.102H83.6426C85.9121 236.102 87.1289 237.373 87.1289 239.26C87.1289 240.606 86.5137 241.604 85.3516 242.076L87.4844 246H85.502L83.5605 242.377H81.7012V246H79.9238ZM81.7012 240.887H83.3691C84.709 240.887 85.3105 240.312 85.3105 239.26C85.3105 238.207 84.709 237.592 83.3691 237.592H81.7012V240.887ZM88.6602 236.102H90.8477L93.7871 243.293H93.9102L96.8496 236.102H99.0371V246H97.3281V239.191H97.2324L94.4844 245.973H93.2129L90.4648 239.164H90.3828V246H88.6602V236.102ZM114.322 234.857V247.217H112.873V234.857H114.322ZM111.807 235.09V246.615H110.371V240.395H108.594V239.164H110.371V235.09H111.807ZM107.5 238.234C107.5 240.326 108.252 242.418 110.016 243.43L109.113 244.551C107.972 243.867 107.213 242.691 106.789 241.283C106.352 242.808 105.565 244.106 104.396 244.838L103.467 243.703C105.258 242.623 106.037 240.381 106.037 238.234V237.414H103.891V236.184H109.496V237.414H107.5V238.234ZM121.35 242.582C124.029 242.596 125.725 243.443 125.738 244.906C125.725 246.342 124.029 247.203 121.35 247.203C118.684 247.203 116.975 246.342 116.975 244.906C116.975 243.443 118.684 242.596 121.35 242.582ZM121.35 243.73C119.572 243.73 118.492 244.154 118.506 244.906C118.492 245.631 119.572 246.027 121.35 246.027C123.141 246.027 124.221 245.631 124.234 244.906C124.221 244.154 123.141 243.73 121.35 243.73ZM125.656 235.445V236.471C125.656 237.441 125.656 238.48 125.314 239.752L123.811 239.615C124.118 238.412 124.139 237.544 124.139 236.648H117.098V235.445H125.656ZM127.023 240.463V241.693H115.812V240.463H120.16V238.221H121.664V240.463H127.023ZM30.4795 271.744C29.5361 271.744 28.7842 270.992 28.7842 270.049C28.7842 269.119 29.5361 268.367 30.4795 268.367C31.4092 268.367 32.1611 269.119 32.1611 270.049C32.1611 270.992 31.4092 271.744 30.4795 271.744ZM47.6992 264.061V272.154H41.8477V264.061H47.6992ZM43.3379 265.25V270.938H46.1816V265.25H43.3379ZM51.0898 262.857V267.602H52.9902V268.887H51.0898V275.217H49.5723V262.857H51.0898ZM58.9922 264.279C58.9854 265.441 58.876 266.556 58.5957 267.602H60.1133V263.158H61.5488V274.629H60.1133V268.832H58.1445C57.4541 270.315 56.292 271.635 54.3711 272.715L53.5098 271.676C55.1914 270.719 56.2168 269.604 56.8184 268.326L53.7285 268.641L53.5508 267.328L57.2559 267.123C57.3789 266.61 57.4609 266.07 57.502 265.51H54.1523V264.279H58.9922ZM64.1738 262.857V275.217H62.7246V262.857H64.1738ZM72.2676 263.746V264.949H67.8379V266.125H71.9121V267.314H67.8379V268.504C70.1484 268.518 71.5566 268.483 73.1836 268.203L73.334 269.406C71.5566 269.693 70.0117 269.748 67.3457 269.734H66.293V263.746H72.2676ZM75.9043 262.871V270.404H74.373V262.871H75.9043ZM71.7344 270.582C74.332 270.582 75.959 271.43 75.959 272.893C75.959 274.355 74.332 275.203 71.7344 275.203C69.0957 275.203 67.4961 274.355 67.5098 272.893C67.4961 271.43 69.0957 270.582 71.7344 270.582ZM71.7344 271.758C69.9844 271.758 69.0137 272.168 69.0273 272.893C69.0137 273.631 69.9844 274.027 71.7344 274.027C73.4434 274.027 74.4414 273.631 74.4414 272.893C74.4414 272.168 73.4434 271.758 71.7344 271.758ZM91.3125 262.857V275.23H89.7812V262.857H91.3125ZM87.7578 263.979V265.223H83.3281V270.965C85.6045 270.958 87.0332 270.89 88.6738 270.596L88.8242 271.854C87.0605 272.182 85.4609 272.25 82.8496 272.25H81.7969V263.979H87.7578ZM97.5605 266.371C97.5605 268.285 98.6953 270.459 100.65 271.361L99.8027 272.564C98.4082 271.908 97.376 270.582 96.8223 269.037C96.2617 270.732 95.1816 272.182 93.7598 272.865L92.8711 271.676C94.8398 270.746 96.0293 268.422 96.043 266.371V265.332H93.3496V264.074H100.145V265.332H97.5605V266.371ZM102.811 262.857V267.67H104.711V268.941H102.811V275.217H101.293V262.857H102.811ZM115.525 262.871V271.799H113.994V262.871H115.525ZM115.867 273.74V274.971H107.35V270.896H108.881V273.74H115.867ZM108.785 263.678C110.658 263.678 112.107 264.977 112.107 266.768C112.107 268.6 110.658 269.871 108.785 269.871C106.898 269.871 105.449 268.6 105.449 266.768C105.449 264.977 106.898 263.678 108.785 263.678ZM108.785 265.004C107.732 265.004 106.926 265.701 106.939 266.768C106.926 267.861 107.732 268.545 108.785 268.545C109.811 268.545 110.617 267.861 110.617 266.768C110.617 265.701 109.811 265.004 108.785 265.004ZM125.082 266.371C125.082 268.285 126.217 270.459 128.172 271.361L127.324 272.564C125.93 271.908 124.897 270.582 124.344 269.037C123.783 270.732 122.703 272.182 121.281 272.865L120.393 271.676C122.361 270.746 123.551 268.422 123.564 266.371V265.332H120.871V264.074H127.666V265.332H125.082V266.371ZM130.332 262.857V267.67H132.232V268.941H130.332V275.217H128.814V262.857H130.332ZM144.045 272.523V273.781H132.752V272.523H135.746V270.486H134.092V266.453H141.201V264.936H134.064V263.705H142.705V267.67H135.609V269.256H142.992V270.486H141.188V272.523H144.045ZM137.223 272.523H139.697V270.486H137.223V272.523ZM158.811 262.857V275.217H157.361V262.857H158.811ZM156.295 263.09V274.615H154.859V268.395H153.082V267.164H154.859V263.09H156.295ZM151.988 266.234C151.988 268.326 152.74 270.418 154.504 271.43L153.602 272.551C152.46 271.867 151.701 270.691 151.277 269.283C150.84 270.808 150.054 272.106 148.885 272.838L147.955 271.703C149.746 270.623 150.525 268.381 150.525 266.234V265.414H148.379V264.184H153.984V265.414H151.988V266.234ZM165.838 270.582C168.518 270.596 170.213 271.443 170.227 272.906C170.213 274.342 168.518 275.203 165.838 275.203C163.172 275.203 161.463 274.342 161.463 272.906C161.463 271.443 163.172 270.596 165.838 270.582ZM165.838 271.73C164.061 271.73 162.98 272.154 162.994 272.906C162.98 273.631 164.061 274.027 165.838 274.027C167.629 274.027 168.709 273.631 168.723 272.906C168.709 272.154 167.629 271.73 165.838 271.73ZM170.145 263.445V264.471C170.145 265.441 170.145 266.48 169.803 267.752L168.299 267.615C168.606 266.412 168.627 265.544 168.627 264.648H161.586V263.445H170.145ZM171.512 268.463V269.693H160.301V268.463H164.648V266.221H166.152V268.463H171.512Z" fill="black"/>
<path d="M89.918 53.2812V56.1289C89.918 59.0996 89.918 62.3516 89.0742 66.8516H93.4688V70.0156H80.8477V83.1641H76.9102V70.0156H64.5V66.8516H85.1016C85.9805 62.5273 86.0156 59.293 86.0156 56.4453H67.9102V53.2812H89.918ZM120.68 51.3477V60.4883H125.109V63.7578H120.68V74.2695H116.707V51.3477H120.68ZM112.031 53.7734C112.031 62.2109 106.547 68.2227 97.125 70.9648L95.5078 67.8711C102.768 65.7793 107.092 61.8242 107.777 56.9727H96.8438V53.7734H112.031ZM121.875 79.332V82.4961H100.254V71.9141H104.227V79.332H121.875ZM164.309 76.0625V79.2617H135.27V76.0625H141.984V68.0117C139.453 66.5703 137.924 64.3027 137.941 61.4727C137.906 56.4102 142.898 53.0703 149.719 53.0703C156.574 53.0703 161.566 56.4102 161.566 61.4727C161.566 64.25 160.09 66.4824 157.629 67.9414V76.0625H164.309ZM149.719 56.1641C144.973 56.1641 141.738 58.168 141.773 61.4727C141.738 64.7422 144.973 66.7812 149.719 66.7812C154.465 66.7812 157.734 64.7422 157.734 61.4727C157.734 58.168 154.465 56.1641 149.719 56.1641ZM145.852 76.0625H153.656V69.418C152.443 69.6992 151.125 69.8398 149.719 69.8398C148.348 69.8398 147.047 69.6992 145.852 69.4531V76.0625ZM191.871 52.8945V55.3555C191.871 57.8164 191.871 60.6289 191.098 64.3906H195.422V67.5547H166.383V64.3906H187.16C187.898 60.9629 187.969 58.3438 187.969 56.0234H169.969V52.8945H191.871ZM191.836 71.2461V82.7422H169.863V71.2461H191.836ZM173.695 74.3047V79.5781H187.969V74.3047H173.695ZM224.848 51.3477V83.1289H221.121V51.3477H224.848ZM218.379 51.9453V81.582H214.688V65.5859H210.117V62.4219H214.688V51.9453H218.379ZM207.305 60.0312C207.305 65.4102 209.238 70.7891 213.773 73.3906L211.453 76.2734C208.518 74.5156 206.566 71.4922 205.477 67.8711C204.352 71.791 202.33 75.1309 199.324 77.0117L196.934 74.0938C201.539 71.3164 203.543 65.5508 203.543 60.0312V57.9219H198.023V54.7578H212.438V57.9219H207.305V60.0312Z" fill="url(#paint1_linear_3966_2273)"/>
<rect x="115" y="20" width="60" height="6" rx="3" fill="url(#paint2_linear_3966_2273)"/>
<rect x="11" y="11" width="43" height="24" rx="12" stroke="#17BF98" stroke-opacity="0.3" stroke-width="2"/>
<path d="M31.7168 24.2676V25.6895H26.8906V29.2715H25.168V25.6895H20.3691V24.2676H31.7168ZM30.6777 18.252V19.6191H26.9453C27.1436 20.7129 28.5449 21.9434 31.1152 22.2305L30.4863 23.5977C28.3809 23.3584 26.8564 22.4971 26.043 21.3555C25.2363 22.5107 23.6982 23.3584 21.5723 23.5977L20.9434 22.2305C23.5137 21.9434 24.9287 20.7197 25.1406 19.6191H21.3945V18.252H25.168V16.8301H26.8906V18.252H30.6777ZM37.0488 19.7422C37.0488 21.1367 37.9648 22.5723 39.9883 23.1875L39.1543 24.541C37.7598 24.1445 36.7754 23.29 36.2148 22.2031C35.6611 23.3789 34.6699 24.3018 33.2344 24.7461L32.3867 23.3789C34.4102 22.7773 35.3125 21.2598 35.3125 19.7422V19.6465H32.8105V18.2793H35.3125V16.8984H37.0762V18.2793H39.5645V19.6465H37.0488V19.7422ZM42.9551 16.8301V26.0586H41.2188V21.8613H39.1543V20.4531H41.2188V16.8301H42.9551ZM43.2559 27.6445V29.0391H34.6973V25.2656H36.4473V27.6445H43.2559Z" fill="#17BF98"/>
<defs>
<linearGradient id="paint0_linear_3966_2273" x1="145" y1="0" x2="145" y2="360" gradientUnits="userSpaceOnUse">
<stop stop-color="#F3FFFA"/>
<stop offset="1" stop-color="#EAFFF6"/>
</linearGradient>
<linearGradient id="paint1_linear_3966_2273" x1="145.5" y1="46" x2="145.5" y2="89" gradientUnits="userSpaceOnUse">
<stop stop-color="#12997A"/>
<stop offset="1" stop-color="#0DBCBC"/>
</linearGradient>
<linearGradient id="paint2_linear_3966_2273" x1="115" y1="23" x2="175" y2="23" gradientUnits="userSpaceOnUse">
<stop stop-color="#17BF98"/>
<stop offset="1" stop-color="#17B5BF"/>
</linearGradient>
</defs>
</svg>
