<svg width="290" height="360" viewBox="0 0 290 360" fill="none" xmlns="http://www.w3.org/2000/svg">
<rect width="290" height="360" rx="20" fill="url(#paint0_linear_3966_2253)"/>
<path d="M20 169H270" stroke="#32A9FF" stroke-width="2" stroke-linecap="round"/>
<path d="M91.043 51.3477V83.1289H87.1055V51.3477H91.043ZM81.5508 54.7227C81.5508 64.1797 77.8945 72.2305 66.75 77.5039L64.7109 74.375C73.0254 70.4199 76.8926 65.041 77.5781 57.8164H66.3281V54.7227H81.5508ZM103.242 52.543V55.9883H116.953V52.543H120.82V65.4453H112.031V68.3633H124.582V71.5273H95.6133V68.3633H108.094V65.4453H99.375V52.543H103.242ZM103.242 62.3164H116.953V59.0117H103.242V62.3164ZM121.312 79.332V82.4961H99.1992V73.5664H103.102V79.332H121.312ZM164.309 76.0625V79.2617H135.27V76.0625H141.984V68.0117C139.453 66.5703 137.924 64.3027 137.941 61.4727C137.906 56.4102 142.898 53.0703 149.719 53.0703C156.574 53.0703 161.566 56.4102 161.566 61.4727C161.566 64.25 160.09 66.4824 157.629 67.9414V76.0625H164.309ZM149.719 56.1641C144.973 56.1641 141.738 58.168 141.773 61.4727C141.738 64.7422 144.973 66.7812 149.719 66.7812C154.465 66.7812 157.734 64.7422 157.734 61.4727C157.734 58.168 154.465 56.1641 149.719 56.1641ZM145.852 76.0625H153.656V69.418C152.443 69.6992 151.125 69.8398 149.719 69.8398C148.348 69.8398 147.047 69.6992 145.852 69.4531V76.0625ZM191.871 52.8945V55.3555C191.871 57.8164 191.871 60.6289 191.098 64.3906H195.422V67.5547H166.383V64.3906H187.16C187.898 60.9629 187.969 58.3438 187.969 56.0234H169.969V52.8945H191.871ZM191.836 71.2461V82.7422H169.863V71.2461H191.836ZM173.695 74.3047V79.5781H187.969V74.3047H173.695ZM224.848 51.3477V83.1289H221.121V51.3477H224.848ZM218.379 51.9453V81.582H214.688V65.5859H210.117V62.4219H214.688V51.9453H218.379ZM207.305 60.0312C207.305 65.4102 209.238 70.7891 213.773 73.3906L211.453 76.2734C208.518 74.5156 206.566 71.4922 205.477 67.8711C204.352 71.791 202.33 75.1309 199.324 77.0117L196.934 74.0938C201.539 71.3164 203.543 65.5508 203.543 60.0312V57.9219H198.023V54.7578H212.438V57.9219H207.305V60.0312Z" fill="url(#paint1_linear_3966_2253)"/>
<rect x="115" y="20" width="60" height="6" rx="3" fill="url(#paint2_linear_3966_2253)"/>
<rect x="59" y="111" width="72" height="34" rx="6" fill="#32A9FF"/>
<path d="M74.1094 134.156C71.3906 134.156 69.7656 132.047 69.7656 128.344C69.7656 124.656 71.3906 122.531 74.1094 122.531C76.8125 122.531 78.4531 124.656 78.4531 128.344C78.4531 132.047 76.8281 134.156 74.1094 134.156ZM74.1094 132.453C75.5312 132.453 76.4062 131.062 76.4062 128.344C76.4062 125.641 75.5156 124.219 74.1094 124.219C72.7031 124.219 71.8125 125.641 71.8125 128.344C71.8125 131.062 72.6875 132.453 74.1094 132.453ZM85.3125 127.531V129.172H80.2188V127.531H85.3125ZM91.25 134.156C88.8281 134.156 87.1094 132.844 87.0625 130.938H89.1094C89.1719 131.844 90.0781 132.438 91.25 132.438C92.5 132.438 93.3906 131.75 93.3906 130.75C93.3906 129.734 92.5156 129 91.0469 129H90.0312V127.438H91.0469C92.25 127.438 93.0938 126.766 93.0781 125.781C93.0938 124.828 92.375 124.188 91.2656 124.188C90.2031 124.188 89.2812 124.781 89.25 125.734H87.2969C87.3438 123.828 89.0625 122.531 91.2812 122.531C93.5781 122.531 95.0625 123.938 95.0469 125.672C95.0625 126.938 94.2188 127.859 92.9844 128.109V128.203C94.5781 128.422 95.4844 129.438 95.4688 130.859C95.4844 132.766 93.7031 134.156 91.25 134.156ZM101.422 134.156C98.7031 134.156 97.0781 132.047 97.0781 128.344C97.0781 124.656 98.7031 122.531 101.422 122.531C104.125 122.531 105.766 124.656 105.766 128.344C105.766 132.047 104.141 134.156 101.422 134.156ZM101.422 132.453C102.844 132.453 103.719 131.062 103.719 128.344C103.719 125.641 102.828 124.219 101.422 124.219C100.016 124.219 99.125 125.641 99.125 128.344C99.125 131.062 100 132.453 101.422 132.453ZM119.125 121.266V135.391H117.453V128.141H115.938V134.734H114.312V121.641H115.938V126.734H117.453V121.266H119.125ZM113.109 123.047C113.109 126.859 111.906 130.141 107.891 132.438L106.891 131.234C109.898 129.492 111.172 127.258 111.422 124.438H107.547V123.047H113.109Z" fill="white"/>
<path d="M159.828 138.273C155.863 138.273 152.965 135.922 152.855 132.641H156.328C156.438 134.254 157.941 135.402 159.828 135.402C162.043 135.402 163.629 133.789 163.629 131.602C163.629 129.332 161.988 127.719 159.719 127.719C158.188 127.691 157.066 128.238 156.438 129.414H153.129L154.332 118.203H166.035V121.184H157.258L156.656 126.434H156.848C157.613 125.559 159.062 124.93 160.676 124.93C164.367 124.93 167.074 127.691 167.074 131.492C167.074 135.457 164.094 138.273 159.828 138.273ZM181.812 117.848V129.523H170.109V117.848H181.812ZM173.09 120.281V127.117H178.832V120.281H173.09ZM188.758 115.715V122.961H192.203V125.504H188.758V133.762H185.723V115.715H188.758ZM189.742 137.48V139.941H172.926V132.012H175.961V137.48H189.742ZM214.188 115.742V134.445H211.125V132.285H206.285V130.152H211.125V115.742H214.188ZM214.762 137.48V139.941H196.633V132.641H199.668V137.48H214.762ZM193.352 126.844C197.918 126.816 204.043 126.762 209.293 126.105L209.457 128.293C207.42 128.635 205.314 128.867 203.223 129.004V133.762H200.188V129.168C197.877 129.264 195.676 129.277 193.734 129.277L193.352 126.844ZM201.418 116.645C205.027 116.645 207.543 118.422 207.57 121.02C207.543 123.672 205.027 125.367 201.418 125.367C197.754 125.367 195.238 123.672 195.238 121.02C195.238 118.422 197.754 116.645 201.418 116.645ZM201.418 118.887C199.449 118.887 198.109 119.68 198.109 121.02C198.109 122.359 199.449 123.152 201.418 123.152C203.305 123.152 204.645 122.359 204.672 121.02C204.645 119.68 203.305 118.887 201.418 118.887Z" fill="#364258"/>
<path d="M30.4795 211.744C29.5361 211.744 28.7842 210.992 28.7842 210.049C28.7842 209.119 29.5361 208.367 30.4795 208.367C31.4092 208.367 32.1611 209.119 32.1611 210.049C32.1611 210.992 31.4092 211.744 30.4795 211.744ZM52.6758 209.119V210.35H41.4102V209.119H46.2773V207.807H47.7812V209.119H52.6758ZM47.7812 202.885V204.006H51.5684V205.209H47.9043C48.0889 206.221 49.5449 207.068 52.1152 207.246L51.6504 208.408C49.4355 208.237 47.8018 207.547 47.0293 206.48C46.2568 207.547 44.6094 208.237 42.4082 208.408L41.9434 207.246C44.5 207.068 45.9561 206.221 46.1543 205.209H42.5176V204.006H46.2773V202.885H47.7812ZM47.0293 211.033C49.7227 211.033 51.2949 211.771 51.3086 213.125C51.2949 214.465 49.7227 215.203 47.0293 215.203C44.3223 215.203 42.7227 214.465 42.7227 213.125C42.7227 211.771 44.3223 211.033 47.0293 211.033ZM47.0293 212.168C45.2109 212.168 44.2539 212.482 44.2676 213.125C44.2539 213.754 45.2109 214.068 47.0293 214.068C48.8066 214.068 49.7773 213.754 49.791 213.125C49.7773 212.482 48.8066 212.168 47.0293 212.168ZM67.1816 202.857V215.217H65.6641V208.928H63.0527V207.684H65.6641V202.857H67.1816ZM63.1074 204.17C63.0938 207.82 61.7949 210.883 57.543 212.988L56.75 211.799C59.9492 210.233 61.3232 208.142 61.5762 205.373H57.3242V204.17H63.1074ZM73.9629 204.115V208.723H70.7637V211.129C72.0215 211.115 73.2178 211.067 74.5918 210.842L74.7012 212.072C73.0332 212.346 71.6797 212.4 70.1484 212.4H69.3008V207.492H72.5V205.346H69.2871V204.115H73.9629ZM79.5684 202.857V215.217H78.1191V208.832H76.7246V214.588H75.3301V203.09H76.7246V207.602H78.1191V202.857H79.5684ZM91.3945 202.857V215.23H89.877V208.914H87.4844V207.684H89.877V202.857H91.3945ZM85.543 206.781C85.5293 208.654 86.6504 210.65 88.6055 211.512L87.7852 212.674C86.3701 212.072 85.3447 210.835 84.8047 209.352C84.2578 210.924 83.2393 212.243 81.8242 212.879L81.0039 211.703C82.9316 210.828 84.0254 208.723 84.0254 206.781V206.139H81.373V204.922H84.0391V203.117H85.5566V204.922H88.1406V206.139H85.543V206.781ZM99.5703 203.883C99.5703 205.441 101.307 207.014 103.945 207.355L103.344 208.586C101.245 208.271 99.5771 207.239 98.7773 205.838C97.9639 207.239 96.3027 208.271 94.2246 208.586L93.623 207.355C96.2344 207.014 97.9707 205.441 97.9707 203.883V203.254H99.5703V203.883ZM104.396 209.652V210.91H99.4883V215.217H97.9844V210.91H93.1309V209.652H104.396ZM108.785 212.154V210.732L113.064 204.102H115.279V210.691H116.578V212.154H115.279V214H113.584V212.154H108.785ZM110.604 210.691H113.611V206.125H113.502L110.604 210.623V210.691ZM121.705 214.137C119.777 214.123 117.836 212.975 117.85 209.324C117.85 205.934 119.395 203.965 121.814 203.965C123.729 203.965 125.041 205.168 125.26 206.768H123.496C123.318 206.016 122.717 205.51 121.814 205.51C120.379 205.51 119.572 206.781 119.572 208.859H119.668C120.174 208.012 121.131 207.506 122.211 207.506C123.988 207.506 125.355 208.846 125.355 210.719C125.355 212.688 123.893 214.15 121.705 214.137ZM121.705 212.701C122.812 212.701 123.633 211.84 123.633 210.76C123.633 209.707 122.826 208.859 121.732 208.859C120.625 208.859 119.777 209.734 119.764 210.773C119.777 211.812 120.584 212.701 121.705 212.701ZM137.059 202.857V215.217H135.596V208.873H134.27V214.643H132.848V203.186H134.27V207.643H135.596V202.857H137.059ZM131.795 204.416C131.795 207.752 130.742 210.623 127.229 212.633L126.354 211.58C128.985 210.056 130.1 208.101 130.318 205.633H126.928V204.416H131.795ZM142.609 210.227C142.609 207.656 143.375 205.51 144.66 203.678H146.301C145.357 205.031 144.414 207.779 144.414 210.227C144.414 212.674 145.357 215.422 146.301 216.789H144.66C143.375 214.943 142.609 212.811 142.609 210.227ZM157.43 202.857V215.217H155.898V202.857H157.43ZM153.738 204.17C153.738 207.848 152.316 210.979 147.982 213.029L147.189 211.812C150.423 210.274 151.927 208.183 152.193 205.373H147.818V204.17H153.738ZM162.174 203.322V204.662H167.506V203.322H169.01V208.34H165.592V209.475H170.473V210.705H159.207V209.475H164.061V208.34H160.67V203.322H162.174ZM162.174 207.123H167.506V205.838H162.174V207.123ZM169.201 213.74V214.971H160.602V211.498H162.119V213.74H169.201ZM175.312 214.137C173.193 214.137 171.689 212.988 171.648 211.32H173.439C173.494 212.113 174.287 212.633 175.312 212.633C176.406 212.633 177.186 212.031 177.186 211.156C177.186 210.268 176.42 209.625 175.135 209.625H174.246V208.258H175.135C176.188 208.258 176.926 207.67 176.912 206.809C176.926 205.975 176.297 205.414 175.326 205.414C174.396 205.414 173.59 205.934 173.562 206.768H171.854C171.895 205.1 173.398 203.965 175.34 203.965C177.35 203.965 178.648 205.195 178.635 206.713C178.648 207.82 177.91 208.627 176.83 208.846V208.928C178.225 209.119 179.018 210.008 179.004 211.252C179.018 212.92 177.459 214.137 175.312 214.137ZM184.213 214.137C181.834 214.137 180.412 212.291 180.412 209.051C180.412 205.824 181.834 203.965 184.213 203.965C186.578 203.965 188.014 205.824 188.014 209.051C188.014 212.291 186.592 214.137 184.213 214.137ZM184.213 212.646C185.457 212.646 186.223 211.43 186.223 209.051C186.223 206.686 185.443 205.441 184.213 205.441C182.982 205.441 182.203 206.686 182.203 209.051C182.203 211.43 182.969 212.646 184.213 212.646ZM195.766 212.4V209.816H193.182V208.299H195.766V205.715H197.27V208.299H199.867V209.816H197.27V212.4H195.766ZM209.191 204.102V214H207.4V205.838H207.346L205.035 207.314V205.688L207.482 204.102H209.191ZM215.303 214.137C213.375 214.123 211.434 212.975 211.447 209.324C211.447 205.934 212.992 203.965 215.412 203.965C217.326 203.965 218.639 205.168 218.857 206.768H217.094C216.916 206.016 216.314 205.51 215.412 205.51C213.977 205.51 213.17 206.781 213.17 208.859H213.266C213.771 208.012 214.729 207.506 215.809 207.506C217.586 207.506 218.953 208.846 218.953 210.719C218.953 212.688 217.49 214.15 215.303 214.137ZM215.303 212.701C216.41 212.701 217.23 211.84 217.23 210.76C217.23 209.707 216.424 208.859 215.33 208.859C214.223 208.859 213.375 209.734 213.361 210.773C213.375 211.812 214.182 212.701 215.303 212.701ZM230.656 202.857V215.217H229.193V208.873H227.867V214.643H226.445V203.186H227.867V207.643H229.193V202.857H230.656ZM225.393 204.416C225.393 207.752 224.34 210.623 220.826 212.633L219.951 211.58C222.583 210.056 223.697 208.101 223.916 205.633H220.525V204.416H225.393ZM235.824 210.227C235.824 212.811 235.059 214.943 233.773 216.789H232.133C233.076 215.422 234.02 212.674 234.02 210.227C234.02 207.779 233.076 205.031 232.133 203.678H233.773C235.059 205.51 235.824 207.656 235.824 210.227Z" fill="black"/>
<path d="M30.4795 287.744C29.5361 287.744 28.7842 286.992 28.7842 286.049C28.7842 285.119 29.5361 284.367 30.4795 284.367C31.4092 284.367 32.1611 285.119 32.1611 286.049C32.1611 286.992 31.4092 287.744 30.4795 287.744ZM52.6758 285.119V286.35H41.4102V285.119H46.2773V283.807H47.7812V285.119H52.6758ZM47.7812 278.885V280.006H51.5684V281.209H47.9043C48.0889 282.221 49.5449 283.068 52.1152 283.246L51.6504 284.408C49.4355 284.237 47.8018 283.547 47.0293 282.48C46.2568 283.547 44.6094 284.237 42.4082 284.408L41.9434 283.246C44.5 283.068 45.9561 282.221 46.1543 281.209H42.5176V280.006H46.2773V278.885H47.7812ZM47.0293 287.033C49.7227 287.033 51.2949 287.771 51.3086 289.125C51.2949 290.465 49.7227 291.203 47.0293 291.203C44.3223 291.203 42.7227 290.465 42.7227 289.125C42.7227 287.771 44.3223 287.033 47.0293 287.033ZM47.0293 288.168C45.2109 288.168 44.2539 288.482 44.2676 289.125C44.2539 289.754 45.2109 290.068 47.0293 290.068C48.8066 290.068 49.7773 289.754 49.791 289.125C49.7773 288.482 48.8066 288.168 47.0293 288.168ZM67.1816 278.857V291.217H65.6641V284.928H63.0527V283.684H65.6641V278.857H67.1816ZM63.1074 280.17C63.0938 283.82 61.7949 286.883 57.543 288.988L56.75 287.799C59.9492 286.233 61.3232 284.142 61.5762 281.373H57.3242V280.17H63.1074ZM73.9629 280.115V284.723H70.7637V287.129C72.0215 287.115 73.2178 287.067 74.5918 286.842L74.7012 288.072C73.0332 288.346 71.6797 288.4 70.1484 288.4H69.3008V283.492H72.5V281.346H69.2871V280.115H73.9629ZM79.5684 278.857V291.217H78.1191V284.832H76.7246V290.588H75.3301V279.09H76.7246V283.602H78.1191V278.857H79.5684ZM91.3945 278.857V291.23H89.877V284.914H87.4844V283.684H89.877V278.857H91.3945ZM85.543 282.781C85.5293 284.654 86.6504 286.65 88.6055 287.512L87.7852 288.674C86.3701 288.072 85.3447 286.835 84.8047 285.352C84.2578 286.924 83.2393 288.243 81.8242 288.879L81.0039 287.703C82.9316 286.828 84.0254 284.723 84.0254 282.781V282.139H81.373V280.922H84.0391V279.117H85.5566V280.922H88.1406V282.139H85.543V282.781ZM99.5703 279.883C99.5703 281.441 101.307 283.014 103.945 283.355L103.344 284.586C101.245 284.271 99.5771 283.239 98.7773 281.838C97.9639 283.239 96.3027 284.271 94.2246 284.586L93.623 283.355C96.2344 283.014 97.9707 281.441 97.9707 279.883V279.254H99.5703V279.883ZM104.396 285.652V286.91H99.4883V291.217H97.9844V286.91H93.1309V285.652H104.396ZM108.785 288.154V286.732L113.064 280.102H115.279V286.691H116.578V288.154H115.279V290H113.584V288.154H108.785ZM110.604 286.691H113.611V282.125H113.502L110.604 286.623V286.691ZM118.369 290L122.662 281.66V281.592H117.686V280.102H124.508V281.619L120.215 290H118.369ZM136.143 278.857V291.217H134.68V284.873H133.354V290.643H131.932V279.186H133.354V283.643H134.68V278.857H136.143ZM130.879 280.416C130.879 283.752 129.826 286.623 126.312 288.633L125.438 287.58C128.069 286.056 129.184 284.101 129.402 281.633H126.012V280.416H130.879ZM141.693 286.227C141.693 283.656 142.459 281.51 143.744 279.678H145.385C144.441 281.031 143.498 283.779 143.498 286.227C143.498 288.674 144.441 291.422 145.385 292.789H143.744C142.459 290.943 141.693 288.811 141.693 286.227ZM156.514 278.857V291.217H154.982V278.857H156.514ZM152.822 280.17C152.822 283.848 151.4 286.979 147.066 289.029L146.273 287.812C149.507 286.274 151.011 284.183 151.277 281.373H146.902V280.17H152.822ZM161.258 279.322V280.662H166.59V279.322H168.094V284.34H164.676V285.475H169.557V286.705H158.291V285.475H163.145V284.34H159.754V279.322H161.258ZM161.258 283.123H166.59V281.838H161.258V283.123ZM168.285 289.74V290.971H159.686V287.498H161.203V289.74H168.285ZM174.396 290.137C172.277 290.137 170.773 288.988 170.732 287.32H172.523C172.578 288.113 173.371 288.633 174.396 288.633C175.49 288.633 176.27 288.031 176.27 287.156C176.27 286.268 175.504 285.625 174.219 285.625H173.33V284.258H174.219C175.271 284.258 176.01 283.67 175.996 282.809C176.01 281.975 175.381 281.414 174.41 281.414C173.48 281.414 172.674 281.934 172.646 282.768H170.938C170.979 281.1 172.482 279.965 174.424 279.965C176.434 279.965 177.732 281.195 177.719 282.713C177.732 283.82 176.994 284.627 175.914 284.846V284.928C177.309 285.119 178.102 286.008 178.088 287.252C178.102 288.92 176.543 290.137 174.396 290.137ZM183.297 290.137C180.918 290.137 179.496 288.291 179.496 285.051C179.496 281.824 180.918 279.965 183.297 279.965C185.662 279.965 187.098 281.824 187.098 285.051C187.098 288.291 185.676 290.137 183.297 290.137ZM183.297 288.646C184.541 288.646 185.307 287.43 185.307 285.051C185.307 282.686 184.527 281.441 183.297 281.441C182.066 281.441 181.287 282.686 181.287 285.051C181.287 287.43 182.053 288.646 183.297 288.646ZM194.85 288.4V285.816H192.266V284.299H194.85V281.715H196.354V284.299H198.951V285.816H196.354V288.4H194.85ZM208.275 280.102V290H206.484V281.838H206.43L204.119 283.314V281.688L206.566 280.102H208.275ZM211.051 290L215.344 281.66V281.592H210.367V280.102H217.189V281.619L212.896 290H211.051ZM228.824 278.857V291.217H227.361V284.873H226.035V290.643H224.613V279.186H226.035V283.643H227.361V278.857H228.824ZM223.561 280.416C223.561 283.752 222.508 286.623 218.994 288.633L218.119 287.58C220.751 286.056 221.865 284.101 222.084 281.633H218.693V280.416H223.561ZM233.992 286.227C233.992 288.811 233.227 290.943 231.941 292.789H230.301C231.244 291.422 232.188 288.674 232.188 286.227C232.188 283.779 231.244 281.031 230.301 279.678H231.941C233.227 281.51 233.992 283.656 233.992 286.227Z" fill="black"/>
<path d="M104.016 235.531C106.359 235.547 108.578 236.938 108.578 241.047C108.594 244.891 106.766 247.156 103.922 247.156C101.641 247.156 100.094 245.734 99.8594 243.812H102.172C102.359 244.641 103.016 245.141 103.922 245.141C105.469 245.141 106.281 243.766 106.281 241.5H106.188C105.656 242.5 104.547 243.094 103.281 243.094C101.25 243.094 99.75 241.562 99.7344 239.453C99.7344 237.172 101.453 235.516 104.016 235.531ZM104.031 237.375C102.875 237.375 102.016 238.266 102.031 239.391C102.031 240.5 102.859 241.375 104.016 241.375C105.156 241.375 106.047 240.469 106.047 239.375C106.031 238.297 105.188 237.375 104.031 237.375ZM114.422 247.156C111.844 247.156 109.984 245.797 109.984 243.953C109.984 242.531 111.078 241.375 112.484 241.156V241.078C111.266 240.844 110.422 239.812 110.422 238.578C110.422 236.812 112.109 235.531 114.422 235.531C116.734 235.531 118.422 236.812 118.438 238.578C118.422 239.828 117.562 240.844 116.375 241.078V241.156C117.75 241.375 118.859 242.531 118.859 243.953C118.859 245.797 117 247.156 114.422 247.156ZM114.422 245.359C115.609 245.359 116.406 244.688 116.406 243.719C116.406 242.734 115.578 242.016 114.422 242.016C113.266 242.016 112.422 242.734 112.438 243.719C112.422 244.688 113.219 245.359 114.422 245.359ZM114.422 240.359C115.422 240.359 116.141 239.719 116.141 238.812C116.141 237.938 115.438 237.312 114.422 237.312C113.406 237.312 112.719 237.922 112.719 238.812C112.719 239.719 113.422 240.359 114.422 240.359ZM122.672 245.844L121.328 250.297H119.672L120.453 245.844H122.672ZM128.656 247.156C125.828 247.156 124.109 245.047 124.109 241.344C124.109 237.641 125.828 235.531 128.656 235.531C131.484 235.531 133.203 237.656 133.203 241.344C133.203 245.062 131.484 247.156 128.656 247.156ZM128.656 245.219C129.969 245.219 130.812 243.953 130.797 241.344C130.797 238.766 129.969 237.453 128.656 237.453C127.344 237.453 126.516 238.766 126.516 241.344C126.5 243.953 127.344 245.219 128.656 245.219ZM139.219 247.156C136.391 247.156 134.672 245.047 134.672 241.344C134.672 237.641 136.391 235.531 139.219 235.531C142.047 235.531 143.766 237.656 143.766 241.344C143.766 245.062 142.047 247.156 139.219 247.156ZM139.219 245.219C140.531 245.219 141.375 243.953 141.359 241.344C141.359 238.766 140.531 237.453 139.219 237.453C137.906 237.453 137.078 238.766 137.078 241.344C137.062 243.953 137.906 245.219 139.219 245.219ZM149.781 247.156C146.953 247.156 145.234 245.047 145.234 241.344C145.234 237.641 146.953 235.531 149.781 235.531C152.609 235.531 154.328 237.656 154.328 241.344C154.328 245.062 152.609 247.156 149.781 247.156ZM149.781 245.219C151.094 245.219 151.938 243.953 151.922 241.344C151.922 238.766 151.094 237.453 149.781 237.453C148.469 237.453 147.641 238.766 147.641 241.344C147.625 243.953 148.469 245.219 149.781 245.219ZM167.531 234.234V244.969H165.531V243.844H162.812V242.484H165.531V234.234H167.531ZM167.844 246.594V248.188H157.25V243.938H159.234V242.047C157.961 242.102 156.75 242.109 155.672 242.109L155.438 240.531C158.047 240.516 161.562 240.484 164.562 240.109L164.672 241.531C163.547 241.719 162.383 241.852 161.234 241.938V244.641H159.234V246.594H167.844ZM160.062 234.719C162.125 234.703 163.609 235.75 163.609 237.266C163.609 238.781 162.125 239.766 160.062 239.766C157.953 239.766 156.484 238.781 156.484 237.266C156.484 235.75 157.938 234.703 160.062 234.719ZM160.062 236.172C159.047 236.172 158.359 236.562 158.375 237.266C158.359 237.953 159.047 238.328 160.062 238.328C161.016 238.328 161.703 237.953 161.719 237.266C161.703 236.562 161.016 236.172 160.062 236.172Z" fill="black"/>
<rect x="179" y="228" width="71" height="26" rx="4" fill="#32A9FF"/>
<path d="M196.199 235.449V246.043H194.887V235.449H196.199ZM193.035 236.574C193.035 239.727 191.816 242.41 188.102 244.168L187.422 243.125C190.193 241.807 191.482 240.014 191.711 237.605H187.961V236.574H193.035ZM200.266 235.848V236.996H204.836V235.848H206.125V240.148H203.195V241.121H207.379V242.176H197.723V241.121H201.883V240.148H198.977V235.848H200.266ZM200.266 239.105H204.836V238.004H200.266V239.105ZM206.289 244.777V245.832H198.918V242.855H200.219V244.777H206.289ZM220.621 243.688V244.754H210.941V243.688H213.18V241.004C212.336 240.523 211.826 239.768 211.832 238.824C211.82 237.137 213.484 236.023 215.758 236.023C218.043 236.023 219.707 237.137 219.707 238.824C219.707 239.75 219.215 240.494 218.395 240.98V243.688H220.621ZM215.758 237.055C214.176 237.055 213.098 237.723 213.109 238.824C213.098 239.914 214.176 240.594 215.758 240.594C217.34 240.594 218.43 239.914 218.43 238.824C218.43 237.723 217.34 237.055 215.758 237.055ZM214.469 243.688H217.07V241.473C216.666 241.566 216.227 241.613 215.758 241.613C215.301 241.613 214.867 241.566 214.469 241.484V243.688ZM229.809 235.965V236.785C229.809 237.605 229.809 238.543 229.551 239.797H230.992V240.852H221.312V239.797H228.238C228.484 238.654 228.508 237.781 228.508 237.008H222.508V235.965H229.809ZM229.797 242.082V245.914H222.473V242.082H229.797ZM223.75 243.102V244.859H228.508V243.102H223.75ZM240.801 235.449V246.043H239.559V235.449H240.801ZM238.645 235.648V245.527H237.414V240.195H235.891V239.141H237.414V235.648H238.645ZM234.953 238.344C234.953 240.137 235.598 241.93 237.109 242.797L236.336 243.758C235.357 243.172 234.707 242.164 234.344 240.957C233.969 242.264 233.295 243.377 232.293 244.004L231.496 243.031C233.031 242.105 233.699 240.184 233.699 238.344V237.641H231.859V236.586H236.664V237.641H234.953V238.344Z" fill="white"/>
<path d="M99.7656 311.688V323H97.4062V313.922H97.3438L94.75 315.547V313.469L97.5469 311.688H99.7656ZM106.781 323.156C103.953 323.156 102.234 321.047 102.234 317.344C102.234 313.641 103.953 311.531 106.781 311.531C109.609 311.531 111.328 313.656 111.328 317.344C111.328 321.062 109.609 323.156 106.781 323.156ZM106.781 321.219C108.094 321.219 108.938 319.953 108.922 317.344C108.922 314.766 108.094 313.453 106.781 313.453C105.469 313.453 104.641 314.766 104.641 317.344C104.625 319.953 105.469 321.219 106.781 321.219ZM117.828 311.688V323H115.469V313.922H115.406L112.812 315.547V313.469L115.609 311.688H117.828ZM122.375 321.844L121.031 326.297H119.375L120.156 321.844H122.375ZM128.359 323.156C125.531 323.156 123.812 321.047 123.812 317.344C123.812 313.641 125.531 311.531 128.359 311.531C131.188 311.531 132.906 313.656 132.906 317.344C132.906 321.062 131.188 323.156 128.359 323.156ZM128.359 321.219C129.672 321.219 130.516 319.953 130.5 317.344C130.5 314.766 129.672 313.453 128.359 313.453C127.047 313.453 126.219 314.766 126.219 317.344C126.203 319.953 127.047 321.219 128.359 321.219ZM138.922 323.156C136.094 323.156 134.375 321.047 134.375 317.344C134.375 313.641 136.094 311.531 138.922 311.531C141.75 311.531 143.469 313.656 143.469 317.344C143.469 321.062 141.75 323.156 138.922 323.156ZM138.922 321.219C140.234 321.219 141.078 319.953 141.062 317.344C141.062 314.766 140.234 313.453 138.922 313.453C137.609 313.453 136.781 314.766 136.781 317.344C136.766 319.953 137.609 321.219 138.922 321.219ZM149.484 323.156C146.656 323.156 144.938 321.047 144.938 317.344C144.938 313.641 146.656 311.531 149.484 311.531C152.312 311.531 154.031 313.656 154.031 317.344C154.031 321.062 152.312 323.156 149.484 323.156ZM149.484 321.219C150.797 321.219 151.641 319.953 151.625 317.344C151.625 314.766 150.797 313.453 149.484 313.453C148.172 313.453 147.344 314.766 147.344 317.344C147.328 319.953 148.172 321.219 149.484 321.219ZM167.234 310.234V320.969H165.234V319.844H162.516V318.484H165.234V310.234H167.234ZM167.547 322.594V324.188H156.953V319.938H158.938V318.047C157.664 318.102 156.453 318.109 155.375 318.109L155.141 316.531C157.75 316.516 161.266 316.484 164.266 316.109L164.375 317.531C163.25 317.719 162.086 317.852 160.938 317.938V320.641H158.938V322.594H167.547ZM159.766 310.719C161.828 310.703 163.312 311.75 163.312 313.266C163.312 314.781 161.828 315.766 159.766 315.766C157.656 315.766 156.188 314.781 156.188 313.266C156.188 311.75 157.641 310.703 159.766 310.719ZM159.766 312.172C158.75 312.172 158.062 312.562 158.078 313.266C158.062 313.953 158.75 314.328 159.766 314.328C160.719 314.328 161.406 313.953 161.422 313.266C161.406 312.562 160.719 312.172 159.766 312.172Z" fill="black"/>
<rect x="179" y="304" width="71" height="26" rx="4" fill="#17BF98"/>
<path d="M195.824 312.094V313.043C195.824 314.033 195.824 315.117 195.543 316.617H197.008V317.672H192.801V322.055H191.488V317.672H187.352V316.617H194.219C194.512 315.176 194.523 314.098 194.523 313.148H188.488V312.094H195.824ZM206.078 311.449V314.496H207.555V315.586H206.078V319.09H204.754V311.449H206.078ZM203.195 312.258C203.195 315.07 201.367 317.074 198.227 317.988L197.688 316.957C200.107 316.26 201.549 314.941 201.777 313.324H198.133V312.258H203.195ZM206.477 320.777V321.832H199.27V318.305H200.594V320.777H206.477ZM220.621 319.688V320.754H210.941V319.688H213.18V317.004C212.336 316.523 211.826 315.768 211.832 314.824C211.82 313.137 213.484 312.023 215.758 312.023C218.043 312.023 219.707 313.137 219.707 314.824C219.707 315.75 219.215 316.494 218.395 316.98V319.688H220.621ZM215.758 313.055C214.176 313.055 213.098 313.723 213.109 314.824C213.098 315.914 214.176 316.594 215.758 316.594C217.34 316.594 218.43 315.914 218.43 314.824C218.43 313.723 217.34 313.055 215.758 313.055ZM214.469 319.688H217.07V317.473C216.666 317.566 216.227 317.613 215.758 317.613C215.301 317.613 214.867 317.566 214.469 317.484V319.688ZM229.809 311.965V312.785C229.809 313.605 229.809 314.543 229.551 315.797H230.992V316.852H221.312V315.797H228.238C228.484 314.654 228.508 313.781 228.508 313.008H222.508V311.965H229.809ZM229.797 318.082V321.914H222.473V318.082H229.797ZM223.75 319.102V320.859H228.508V319.102H223.75ZM240.801 311.449V322.043H239.559V311.449H240.801ZM238.645 311.648V321.527H237.414V316.195H235.891V315.141H237.414V311.648H238.645ZM234.953 314.344C234.953 316.137 235.598 317.93 237.109 318.797L236.336 319.758C235.357 319.172 234.707 318.164 234.344 316.957C233.969 318.264 233.295 319.377 232.293 320.004L231.496 319.031C233.031 318.105 233.699 316.184 233.699 314.344V313.641H231.859V312.586H236.664V313.641H234.953V314.344Z" fill="white"/>
<path d="M47.6626 240.364L46.6626 240.364L46.6626 241.364L47.6626 241.364L47.6626 240.364ZM84 240.364L74 234.591L74 246.138L84 240.364ZM46.6626 227.528L46.6626 240.364L48.6626 240.364L48.6626 227.528L46.6626 227.528ZM47.6626 241.364L75 241.364L75 239.364L47.6626 239.364L47.6626 241.364Z" fill="black"/>
<path d="M47.6626 317.361L46.6626 317.361L46.6626 318.361L47.6626 318.361L47.6626 317.361ZM84 317.362L74 311.588L74 323.135L84 317.362ZM46.6626 304.526L46.6626 317.361L48.6626 317.361L48.6626 304.526L46.6626 304.526ZM47.6626 318.361L75 318.362L75 316.362L47.6626 316.361L47.6626 318.361Z" fill="black"/>
<rect x="11" y="11" width="43" height="24" rx="12" stroke="#32A9FF" stroke-opacity="0.3" stroke-width="2"/>
<path d="M30.8555 16.8301V26.3047H29.1191V23.9531H27.4375V22.5723H29.1191V21.3281H27.4375V19.9199H29.1191V16.8301H30.8555ZM27.3145 18.1289V19.5098H20.3965V18.1289H23.0762V16.8027H24.8125V18.1289H27.3145ZM23.9238 19.9473C25.6328 19.9473 26.8633 20.959 26.877 22.3945C26.8633 23.8301 25.6328 24.8281 23.9238 24.8281C22.2285 24.8281 20.998 23.8301 21.0117 22.3945C20.998 20.959 22.2285 19.9473 23.9238 19.9473ZM23.9238 21.3008C23.1582 21.3145 22.625 21.6973 22.6387 22.3945C22.625 23.1055 23.1582 23.502 23.9238 23.502C24.6758 23.502 25.2227 23.1055 25.2363 22.3945C25.2227 21.6973 24.6758 21.3145 23.9238 21.3008ZM31.1152 27.6445V29.0391H22.5703V25.498H24.334V27.6445H31.1152ZM43.3242 16.8164V29.2578H41.6562V23.0234H40.6035V28.6836H38.9492V25.1152L37.9648 26.4277C36.8096 25.8193 36.0645 24.7871 35.627 23.502C35.21 24.9785 34.4717 26.1748 33.2891 26.8789L32.209 25.5391C34.0957 24.4727 34.7383 22.2715 34.7383 19.8926V19.4961H32.6328V18.1016H38.334V19.4961H36.4336V19.8926C36.4336 22.0596 37.0762 24.124 38.9492 25.0879V16.9941H40.6035V21.6016H41.6562V16.8164H43.3242Z" fill="#32A9FF"/>
<defs>
<linearGradient id="paint0_linear_3966_2253" x1="145" y1="0" x2="145" y2="360" gradientUnits="userSpaceOnUse">
<stop stop-color="#F8FEFF"/>
<stop offset="1" stop-color="#E6FDFF"/>
</linearGradient>
<linearGradient id="paint1_linear_3966_2253" x1="145.5" y1="46" x2="145.5" y2="89" gradientUnits="userSpaceOnUse">
<stop stop-color="#32C0FF"/>
<stop offset="1" stop-color="#32A9FF"/>
</linearGradient>
<linearGradient id="paint2_linear_3966_2253" x1="115" y1="23" x2="175" y2="23" gradientUnits="userSpaceOnUse">
<stop stop-color="#32C0FF"/>
<stop offset="1" stop-color="#32A9FF"/>
</linearGradient>
</defs>
</svg>
