<svg width="1182" height="70" viewBox="0 0 1182 70" fill="none" xmlns="http://www.w3.org/2000/svg">
<rect x="0.5" y="0.5" width="1181" height="69" rx="9.5" fill="#F6F6F6" stroke="#DEDEDE"/>
<mask id="path-2-inside-1_2037_5741" fill="white">
<path d="M948 10C948 4.47715 952.477 0 958 0H1172C1177.52 0 1182 4.47715 1182 10V60C1182 65.5229 1177.52 70 1172 70H958C952.477 70 948 65.5229 948 60V10Z"/>
</mask>
<path d="M948 10C948 4.47715 952.477 0 958 0H1172C1177.52 0 1182 4.47715 1182 10V60C1182 65.5229 1177.52 70 1172 70H958C952.477 70 948 65.5229 948 60V10Z" fill="#F6F6F6"/>
<path d="M958 1H1172V-1H958V1ZM1181 10V60H1183V10H1181ZM1172 69H958V71H1172V69ZM949 60V10H947V60H949ZM958 69C953.029 69 949 64.9706 949 60H947C947 66.0751 951.925 71 958 71V69ZM1181 60C1181 64.9706 1176.97 69 1172 69V71C1178.08 71 1183 66.0751 1183 60H1181ZM1172 1C1176.97 1 1181 5.02944 1181 10H1183C1183 3.92487 1178.08 -1 1172 -1V1ZM958 -1C951.925 -1 947 3.92487 947 10H949C949 5.02944 953.029 1 958 1V-1Z" fill="#DEDEDE" mask="url(#path-2-inside-1_2037_5741)"/>
<path d="M1037.88 27.5304V30.1657H1043.43V31.7845H1030.43V30.1657H1035.91V27.5304H1031.8V20.1215H1033.8V22.337H1040V20.1215H1041.99V27.5304H1037.88ZM1040 23.9171H1033.8V25.9392H1040V23.9171ZM1055.08 28.6022L1053.07 28.3923C1053.61 25.7017 1053.64 23.7017 1053.65 22.0331H1045.27V20.4475H1055.65V21.7956C1055.64 23.5746 1055.64 25.5746 1055.08 28.6022ZM1050.55 25.1878V30.0773H1056.91V31.6961H1043.93V30.0773H1048.57V25.1878H1050.55ZM1067.46 23.6906V19.2099H1069.44V33.4751H1067.46V25.2983H1064.68V23.6906H1067.46ZM1062.82 20.3094V22.4365C1062.82 25.1105 1063.89 27.7127 1066.26 28.7348L1065.05 30.3204C1063.47 29.558 1062.41 28.1436 1061.82 26.3867C1061.2 28.2486 1060.11 29.779 1058.49 30.5801L1057.24 28.9613C1059.67 27.8564 1060.78 25.1105 1060.8 22.4365V20.3094H1062.82ZM1088.97 19.2099V21.9834H1090.88V23.5967H1088.97V26.4586H1086.97V19.2099H1088.97ZM1083 19.8564H1084.99V26.0608H1078.1V19.8564H1080.08V21.5414H1083V19.8564ZM1080.08 24.4972H1083V23.0387H1080.08V24.4972ZM1088.97 30.8508H1081.52V31.7735H1089.38V33.3425H1079.55V29.4199H1086.98V28.5249H1079.53V26.9834H1088.97V30.8508ZM1097.63 22.3039C1096.73 23.7238 1094.97 24.7403 1092.57 25.0994L1091.86 23.5414C1095.01 23.1547 1096.63 21.5249 1096.64 19.9227V19.453H1098.67V19.9227C1098.67 21.5856 1100.26 23.1547 1103.46 23.5414L1102.7 25.0994C1100.3 24.7403 1098.54 23.7293 1097.63 22.3039ZM1098.65 24.2486V26.0055H1104.17V27.5967H1091.19V26.0055H1096.67V24.2486H1098.65ZM1097.65 28.3812C1100.76 28.3812 1102.6 29.3039 1102.61 30.9171C1102.6 32.5414 1100.76 33.442 1097.65 33.4365C1094.54 33.442 1092.67 32.5414 1092.67 30.9171C1092.67 29.3039 1094.54 28.3812 1097.65 28.3812ZM1097.65 31.9503C1099.6 31.9503 1100.6 31.6188 1100.61 30.9171C1100.6 30.2155 1099.6 29.895 1097.65 29.895C1095.67 29.895 1094.7 30.2155 1094.71 30.9171C1094.7 31.6188 1095.67 31.9503 1097.65 31.9503Z" fill="#8A8A8B"/>
<path d="M1031.33 45.1644L1030.92 44.2859C1032.88 44.0373 1034.38 43.0304 1034.43 41.8909H1031.26V40.9959H1039.1V41.8909H1035.91C1035.96 43.0304 1037.48 44.0373 1039.44 44.2859L1039.01 45.1644C1037.21 44.924 1035.73 44.087 1035.17 42.9061C1034.6 44.087 1033.13 44.924 1031.33 45.1644ZM1030.37 46.7472V45.8398H1039.98V46.7472H1035.82V48.7776H1034.72V46.7472H1030.37ZM1031.57 47.7749H1032.68V49.8674H1038.92V50.779H1031.57V47.7749ZM1048.1 40.4945H1049.22V51.0152H1048.1V40.4945ZM1041.1 41.3688H1042.21V44.0663H1045.05V41.3688H1046.14V48.5041H1041.1V41.3688ZM1042.21 44.9489V47.5843H1045.05V44.9489H1042.21ZM1054.23 44.8039L1053.84 43.9254C1055.73 43.7348 1057.22 42.8771 1057.37 41.8619H1054.22V40.971H1062.05V41.8619H1058.88C1059.01 42.8812 1060.49 43.7348 1062.42 43.9254L1062.02 44.8039C1060.2 44.6008 1058.69 43.8343 1058.12 42.7196C1057.55 43.8301 1056.05 44.6008 1054.23 44.8039ZM1062.91 45.3591V46.2666H1058.67V47.2693C1060.6 47.3729 1061.74 48.0235 1061.74 49.1215C1061.74 50.3108 1060.38 50.9779 1058.11 50.9779C1055.84 50.9779 1054.47 50.3108 1054.47 49.1215C1054.47 48.0235 1055.62 47.3729 1057.57 47.2693V46.2666H1053.34V45.3591H1062.91ZM1060.63 49.1215C1060.63 48.4751 1059.7 48.1146 1058.11 48.1064C1056.51 48.1146 1055.6 48.4751 1055.6 49.1215C1055.6 49.7597 1056.51 50.1285 1058.11 50.1202C1059.7 50.1285 1060.63 49.7597 1060.63 49.1215ZM1066.9 46.482C1066.9 44.4019 1067.45 42.674 1068.51 41.1989H1069.66C1068.84 42.2928 1068.19 44.5138 1068.19 46.482C1068.19 48.4503 1068.84 50.6754 1069.66 51.7693H1068.51C1067.45 50.2942 1066.9 48.5622 1066.9 46.482ZM1076.27 50H1070.57L1070.57 49.0635L1073.51 46.0925C1074.44 45.1271 1074.91 44.5925 1074.91 43.8467C1074.91 43.0097 1074.23 42.4793 1073.34 42.4793C1072.39 42.4793 1071.79 43.0718 1071.79 43.9793H1070.57C1070.56 42.4254 1071.74 41.3978 1073.36 41.3978C1075 41.3978 1076.13 42.4337 1076.14 43.8094C1076.13 44.7583 1075.68 45.5166 1074.09 47.0787L1072.37 48.8315V48.8936H1076.27V50ZM1080.42 50.1367C1078.46 50.1367 1077.3 48.5414 1077.31 45.761C1077.31 42.9972 1078.47 41.3978 1080.42 41.3978C1082.37 41.3978 1083.53 43.0014 1083.53 45.761C1083.53 48.5414 1082.38 50.1367 1080.42 50.1367ZM1080.42 49.0262C1081.57 49.0262 1082.25 47.8785 1082.25 45.761C1082.25 43.6478 1081.56 42.4959 1080.42 42.4959C1079.28 42.4959 1078.59 43.6478 1078.59 45.761C1078.59 47.8785 1079.28 49.0262 1080.42 49.0262ZM1091.87 40.4945H1092.98V45.8398H1091.87V40.4945ZM1090 43.2086C1089.99 44.5843 1088.83 45.5456 1087.25 45.5456C1085.65 45.5456 1084.49 44.5843 1084.49 43.2086C1084.49 41.8287 1085.65 40.8591 1087.25 40.855C1088.83 40.8591 1089.99 41.8287 1090 43.2086ZM1085.57 43.2086C1085.56 44.0704 1086.28 44.6423 1087.25 44.6423C1088.21 44.6423 1088.92 44.0704 1088.92 43.2086C1088.92 42.3508 1088.21 41.7749 1087.25 41.779C1086.28 41.7749 1085.56 42.3508 1085.57 43.2086ZM1087.19 48.9641V49.971H1093.33V50.8619H1086.11V48.1354H1091.88V47.2072H1086.08V46.3246H1092.98V48.9641H1087.19ZM1097.18 46.482C1097.18 48.5622 1096.62 50.2942 1095.57 51.7693H1094.42C1095.23 50.6754 1095.88 48.4503 1095.88 46.482C1095.88 44.5138 1095.23 42.2928 1094.42 41.1989H1095.57C1096.62 42.674 1097.18 44.4019 1097.18 46.482Z" fill="#8A8A8B"/>
<mask id="path-6-inside-2_2037_5741" fill="white">
<path fill-rule="evenodd" clip-rule="evenodd" d="M663 0C657.477 0 653 4.47715 653 10V60C653 65.5229 657.477 70 663 70H950C951.376 70 952.687 69.7222 953.88 69.2196C955.152 68.8685 956.38 68.1862 957.453 67.1268L984.091 40.8327C987.342 37.6238 987.342 32.3764 984.091 29.1674L957.453 2.87331C956.38 1.81414 955.152 1.13198 953.88 0.780798C952.687 0.27796 951.376 0 950 0H663Z"/>
</mask>
<path fill-rule="evenodd" clip-rule="evenodd" d="M663 0C657.477 0 653 4.47715 653 10V60C653 65.5229 657.477 70 663 70H950C951.376 70 952.687 69.7222 953.88 69.2196C955.152 68.8685 956.38 68.1862 957.453 67.1268L984.091 40.8327C987.342 37.6238 987.342 32.3764 984.091 29.1674L957.453 2.87331C956.38 1.81414 955.152 1.13198 953.88 0.780798C952.687 0.27796 951.376 0 950 0H663Z" fill="#F6F6F6"/>
<path d="M953.88 69.2196L953.614 68.2556L953.551 68.2729L953.491 68.298L953.88 69.2196ZM957.453 67.1268L956.75 66.4151L957.453 67.1268ZM984.091 40.8327L984.794 41.5444V41.5444L984.091 40.8327ZM984.091 29.1674L983.389 29.8791L984.091 29.1674ZM957.453 2.87331L956.75 3.585V3.585L957.453 2.87331ZM953.88 0.780798L953.492 1.70231L953.552 1.72748L953.614 1.74473L953.88 0.780798ZM654 10C654 5.02944 658.029 1 663 1V-1C656.925 -1 652 3.92487 652 10H654ZM654 60V10H652V60H654ZM663 69C658.029 69 654 64.9706 654 60H652C652 66.0751 656.925 71 663 71V69ZM950 69H663V71H950V69ZM953.491 68.298C952.419 68.7498 951.24 69 950 69V71C951.512 71 952.954 70.6946 954.268 70.1411L953.491 68.298ZM956.75 66.4151C955.799 67.3546 954.721 67.95 953.614 68.2556L954.146 70.1835C955.582 69.787 956.96 69.0179 958.155 67.8385L956.75 66.4151ZM983.389 40.121L956.75 66.4151L958.155 67.8385L984.794 41.5444L983.389 40.121ZM983.389 29.8791C986.243 32.6965 986.243 37.3036 983.389 40.121L984.794 41.5444C988.441 37.9439 988.441 32.0562 984.793 28.4557L983.389 29.8791ZM956.75 3.585L983.389 29.8791L984.793 28.4557L958.155 2.16162L956.75 3.585ZM953.614 1.74473C954.722 2.05046 955.799 2.64578 956.75 3.585L958.155 2.16162C956.961 0.982491 955.583 0.213497 954.147 -0.183131L953.614 1.74473ZM950 1C951.24 1 952.42 1.25034 953.492 1.70231L954.269 -0.140713C952.955 -0.694423 951.512 -1 950 -1V1ZM663 1H950V-1H663V1Z" fill="#DEDEDE" mask="url(#path-6-inside-2_2037_5741)"/>
<path d="M766.884 27.5304V30.1657H772.431V31.7845H759.425V30.1657H764.912V27.5304H760.801V20.1215H762.801V22.337H769V20.1215H770.989V27.5304H766.884ZM769 23.9171H762.801V25.9392H769V23.9171ZM784.077 28.6022L782.066 28.3923C782.608 25.7017 782.635 23.7017 782.646 22.0331H774.271V20.4475H784.646V21.7956C784.641 23.5746 784.641 25.5746 784.077 28.6022ZM779.552 25.1878V30.0773H785.906V31.6961H772.934V30.0773H777.574V25.1878H779.552ZM796.464 23.6906V19.2099H798.436V33.4751H796.464V25.2983H793.679V23.6906H796.464ZM791.823 20.3094V22.4365C791.817 25.1105 792.895 27.7127 795.259 28.7348L794.055 30.3204C792.469 29.558 791.409 28.1436 790.817 26.3867C790.204 28.2486 789.11 29.779 787.486 30.5801L786.237 28.9613C788.668 27.8564 789.784 25.1105 789.795 22.4365V20.3094H791.823ZM817.088 33.442V19.2099H819.005V33.442H817.088ZM811.58 24.4088H814.138V19.4641H815.994V32.7901H814.138V26.0387H811.58V24.4088ZM809.066 22.4254V28.6133C810.585 28.6022 811.74 28.5193 813.072 28.2431L813.221 29.8785C811.618 30.1989 810.188 30.2652 808.099 30.2652H807.116V20.8232H812.558V22.4254H809.066ZM830.077 19.2099H832.093V33.4751H830.077V19.2099ZM824.37 20.2155C826.519 20.2155 828.11 22.1823 828.116 25.2762C828.11 28.4033 826.519 30.3591 824.37 30.3591C822.193 30.3591 820.602 28.4033 820.607 25.2762C820.602 22.1823 822.193 20.2155 824.37 20.2155ZM824.37 22.0166C823.265 22.0166 822.524 23.1713 822.535 25.2762C822.524 27.4033 823.265 28.5525 824.37 28.5525C825.453 28.5525 826.187 27.4033 826.187 25.2762C826.187 23.1713 825.453 22.0166 824.37 22.0166ZM843.723 24.2431V19.2099H845.696V33.4751H843.723V25.8398H841.226V24.2431H843.723ZM836.342 25.9392V28.6243C838.314 28.6077 839.889 28.5359 841.657 28.2597L841.856 29.8564C839.778 30.1713 837.917 30.2431 835.48 30.2486H834.347V20.4088H840.999V22.0166H836.342V24.3757H840.48V25.9392H836.342ZM860.571 22.6077V19.232H862.56V27.1823H860.571V24.2376H858.041V22.6077H860.571ZM857.947 20.0497C857.947 23.768 855.599 26.3425 851.433 27.5028L850.643 25.9503C853.726 25.1215 855.488 23.5525 855.809 21.6354H851.416V20.0497H857.947ZM862.56 33.2652H853.129V27.7514H862.56V33.2652ZM860.582 29.3149H855.085V31.7017H860.582V29.3149ZM865.322 25.2431L864.654 23.6906C867.317 23.442 868.781 22.4751 869.118 21.4751H865.262V19.8674H875.886V21.4751H871.996C872.328 22.4696 873.775 23.442 876.505 23.6906L875.809 25.2431C873.118 24.9889 871.311 23.9779 870.549 22.6022C869.797 23.9724 868.013 24.9889 865.322 25.2431ZM864.085 27.3757V25.768H877.057V27.3757H864.085ZM870.543 28.1713C873.632 28.1713 875.488 29.1381 875.499 30.8066C875.488 32.4917 873.632 33.442 870.543 33.4365C867.438 33.442 865.565 32.4917 865.565 30.8066C865.565 29.1381 867.438 28.1713 870.543 28.1713ZM870.543 31.884C872.477 31.8895 873.494 31.547 873.499 30.8066C873.494 30.0663 872.477 29.7182 870.543 29.7127C868.577 29.7182 867.588 30.0663 867.599 30.8066C867.588 31.547 868.577 31.8895 870.543 31.884Z" fill="#8A8A8B"/>
<path d="M760.33 45.1644L759.92 44.2859C761.88 44.0373 763.376 43.0304 763.434 41.8909H760.264V40.9959H768.099V41.8909H764.913C764.963 43.0304 766.475 44.0373 768.435 44.2859L768.012 45.1644C766.214 44.924 764.735 44.087 764.167 42.9061C763.599 44.087 762.128 44.924 760.33 45.1644ZM759.373 46.7472V45.8398H768.982V46.7472H764.818V48.7776H763.715V46.7472H759.373ZM760.57 47.7749H761.681V49.8674H767.917V50.779H760.57V47.7749ZM777.099 40.4945H778.218V51.0152H777.099V40.4945ZM770.101 41.3688H771.211V44.0663H774.045V41.3688H775.144V48.5041H770.101V41.3688ZM771.211 44.9489V47.5843H774.045V44.9489H771.211ZM783.228 44.8039L782.843 43.9254C784.732 43.7348 786.224 42.8771 786.373 41.8619H783.216V40.971H791.051V41.8619H787.877C788.014 42.8812 789.493 43.7348 791.424 43.9254L791.022 44.8039C789.199 44.6008 787.695 43.8343 787.119 42.7196C786.547 43.8301 785.051 44.6008 783.228 44.8039ZM791.913 45.3591V46.2666H787.67V47.2693C789.597 47.3729 790.736 48.0235 790.745 49.1215C790.736 50.3108 789.377 50.9779 787.115 50.9779C784.836 50.9779 783.473 50.3108 783.473 49.1215C783.473 48.0235 784.62 47.3729 786.568 47.2693V46.2666H782.341V45.3591H791.913ZM789.634 49.1215C789.626 48.4751 788.702 48.1146 787.115 48.1064C785.511 48.1146 784.596 48.4751 784.604 49.1215C784.596 49.7597 785.511 50.1285 787.115 50.1202C788.702 50.1285 789.626 49.7597 789.634 49.1215ZM795.896 46.482C795.896 44.4019 796.451 42.674 797.507 41.1989H798.655C797.839 42.2928 797.193 44.5138 797.193 46.482C797.193 48.4503 797.839 50.6754 798.655 51.7693H797.507C796.451 50.2942 795.896 48.5622 795.896 46.482ZM801.532 41.5138H802.791V50H801.499V42.8066H801.449L799.423 44.1285V42.8978L801.532 41.5138ZM807.673 50.116C805.834 50.116 804.545 49.1174 804.553 47.7376C804.545 46.6519 805.328 45.761 806.323 45.5994V45.5539C805.456 45.3633 804.872 44.5843 804.872 43.6602C804.872 42.355 806.053 41.3978 807.673 41.3978C809.277 41.3978 810.458 42.355 810.462 43.6602C810.458 44.5884 809.865 45.3633 809.016 45.5539V45.5994C810.002 45.761 810.785 46.6519 810.793 47.7376C810.785 49.1174 809.492 50.116 807.673 50.116ZM807.673 45.1188C808.56 45.1188 809.206 44.5718 809.206 43.7721C809.206 42.9848 808.581 42.4503 807.673 42.4503C806.745 42.4503 806.132 42.9848 806.132 43.7721C806.132 44.5718 806.77 45.1188 807.673 45.1188ZM807.673 49.0635C808.776 49.0635 809.48 48.4917 809.48 47.6506C809.48 46.7804 808.718 46.1423 807.673 46.1423C806.621 46.1423 805.854 46.7804 805.867 47.6506C805.854 48.4876 806.555 49.0635 807.673 49.0635ZM819.123 40.4945H820.238V45.8398H819.123V40.4945ZM817.255 43.2086C817.246 44.5843 816.082 45.5456 814.503 45.5456C812.904 45.5456 811.739 44.5843 811.739 43.2086C811.739 41.8287 812.904 40.8591 814.503 40.855C816.082 40.8591 817.246 41.8287 817.255 43.2086ZM812.825 43.2086C812.817 44.0704 813.534 44.6423 814.503 44.6423C815.465 44.6423 816.177 44.0704 816.177 43.2086C816.177 42.3508 815.465 41.7749 814.503 41.779C813.534 41.7749 812.817 42.3508 812.825 43.2086ZM814.445 48.9641V49.971H820.582V50.8619H813.364V48.1354H819.132V47.2072H813.331V46.3246H820.238V48.9641H814.445ZM825.878 47.5594H824.825C824.792 46.1174 825.571 45.4751 826.512 45.4751C827.063 45.4751 827.473 45.6906 828.082 46.2169C828.459 46.5442 828.646 46.6809 828.94 46.6809C829.383 46.6809 829.682 46.3494 829.665 45.6865H830.726C830.759 47.1285 829.964 47.779 829.031 47.779C828.472 47.779 828.057 47.5511 827.461 47.029C827.071 46.6975 826.897 46.5649 826.607 46.5649C826.18 46.5649 825.861 46.8467 825.878 47.5594ZM836.748 41.5138H838.008V50H836.715V42.8066H836.665L834.639 44.1285V42.8978L836.748 41.5138ZM842.848 41.3978C844.402 41.4102 846.039 42.3467 846.043 45.4544C846.043 48.4296 844.763 50.116 842.728 50.116C841.166 50.116 840.072 49.1506 839.873 47.7749H841.145C841.323 48.4876 841.87 48.989 842.728 48.989C844.033 48.989 844.804 47.8453 844.812 45.9061H844.709C844.249 46.6271 843.453 47.058 842.537 47.058C841.017 47.058 839.798 45.8936 839.798 44.2735C839.798 42.6533 841 41.3854 842.848 41.3978ZM842.848 42.4793C841.821 42.4793 841.046 43.2749 841.054 44.2528C841.058 45.2348 841.792 46.0097 842.823 46.0097C843.843 46.0097 844.638 45.1727 844.638 44.2362C844.638 43.3163 843.884 42.4793 842.848 42.4793ZM854.398 40.4945H855.513V45.8398H854.398V40.4945ZM852.529 43.2086C852.521 44.5843 851.357 45.5456 849.778 45.5456C848.179 45.5456 847.014 44.5843 847.014 43.2086C847.014 41.8287 848.179 40.8591 849.778 40.855C851.357 40.8591 852.521 41.8287 852.529 43.2086ZM848.1 43.2086C848.092 44.0704 848.808 44.6423 849.778 44.6423C850.739 44.6423 851.452 44.0704 851.452 43.2086C851.452 42.3508 850.739 41.7749 849.778 41.779C848.808 41.7749 848.092 42.3508 848.1 43.2086ZM849.72 48.9641V49.971H855.857V50.8619H848.639V48.1354H854.407V47.2072H848.605V46.3246H855.513V48.9641H849.72ZM859.706 46.482C859.706 48.5622 859.151 50.2942 858.094 51.7693H856.946C857.763 50.6754 858.409 48.4503 858.409 46.482C858.409 44.5138 857.763 42.2928 856.946 41.1989H858.094C859.151 42.674 859.706 44.4019 859.706 46.482Z" fill="#8A8A8B"/>
<mask id="path-10-inside-3_2037_5741" fill="white">
<path fill-rule="evenodd" clip-rule="evenodd" d="M161 0C155.477 0 151 4.47715 151 10V60C151 65.5229 155.477 70 161 70H658.821C660.51 70 662.101 69.5813 663.496 68.8419C664.631 68.4563 665.718 67.7982 666.678 66.8341L692.615 40.7823C695.799 37.5847 695.799 32.4153 692.615 29.2177L666.678 3.16584C665.718 2.20181 664.63 1.54367 663.496 1.15806C662.101 0.418738 660.51 0 658.821 0H161Z"/>
</mask>
<path fill-rule="evenodd" clip-rule="evenodd" d="M161 0C155.477 0 151 4.47715 151 10V60C151 65.5229 155.477 70 161 70H658.821C660.51 70 662.101 69.5813 663.496 68.8419C664.631 68.4563 665.718 67.7982 666.678 66.8341L692.615 40.7823C695.799 37.5847 695.799 32.4153 692.615 29.2177L666.678 3.16584C665.718 2.20181 664.63 1.54367 663.496 1.15806C662.101 0.418738 660.51 0 658.821 0H161Z" fill="#F6F6F6"/>
<path d="M663.496 68.8419L663.174 67.8951L663.099 67.9209L663.028 67.9583L663.496 68.8419ZM666.678 66.8341L665.969 66.1286V66.1286L666.678 66.8341ZM692.615 40.7823L693.324 41.4879L692.615 40.7823ZM692.615 29.2177L693.324 28.5121V28.5121L692.615 29.2177ZM666.678 3.16584L665.969 3.87138V3.87139L666.678 3.16584ZM663.496 1.15806L663.028 2.04168L663.099 2.07913L663.174 2.10486L663.496 1.15806ZM152 10C152 5.02944 156.029 1 161 1V-1C154.925 -1 150 3.92487 150 10H152ZM152 60V10H150V60H152ZM161 69C156.029 69 152 64.9706 152 60H150C150 66.0751 154.925 71 161 71V69ZM658.821 69H161V71H658.821V69ZM663.028 67.9583C661.773 68.6231 660.342 69 658.821 69V71C660.677 71 662.428 70.5394 663.964 69.7255L663.028 67.9583ZM665.969 66.1286C665.117 66.984 664.162 67.5593 663.174 67.8951L663.818 69.7887C665.099 69.3533 666.319 68.6123 667.386 67.5397L665.969 66.1286ZM691.906 40.0768L665.969 66.1286L667.386 67.5397L693.324 41.4879L691.906 40.0768ZM691.906 29.9232C694.702 32.7307 694.702 37.2693 691.906 40.0768L693.324 41.4879C696.896 37.9001 696.896 32.0999 693.324 28.5121L691.906 29.9232ZM665.969 3.87139L691.906 29.9232L693.324 28.5121L667.386 2.4603L665.969 3.87139ZM663.174 2.10486C664.162 2.44066 665.117 3.01593 665.969 3.87138L667.386 2.4603C666.319 1.38768 665.099 0.646677 663.818 0.211262L663.174 2.10486ZM658.821 1C660.342 1 661.773 1.37693 663.028 2.04168L663.964 0.274447C662.428 -0.539451 660.677 -1 658.821 -1V1ZM161 1H658.821V-1H161V1Z" fill="#DEDEDE" mask="url(#path-10-inside-3_2037_5741)"/>
<path d="M370.884 27.5304V30.1657H376.431V31.7845H363.425V30.1657H368.912V27.5304H364.801V20.1215H366.801V22.337H373V20.1215H374.989V27.5304H370.884ZM373 23.9171H366.801V25.9392H373V23.9171ZM388.077 28.6022L386.066 28.3923C386.608 25.7017 386.635 23.7017 386.646 22.0331H378.271V20.4475H388.646V21.7956C388.641 23.5746 388.641 25.5746 388.077 28.6022ZM383.552 25.1878V30.0773H389.906V31.6961H376.934V30.0773H381.574V25.1878H383.552ZM400.464 23.6906V19.2099H402.436V33.4751H400.464V25.2983H397.679V23.6906H400.464ZM395.823 20.3094V22.4365C395.817 25.1105 396.895 27.7127 399.259 28.7348L398.055 30.3204C396.469 29.558 395.409 28.1436 394.817 26.3867C394.204 28.2486 393.11 29.779 391.486 30.5801L390.237 28.9613C392.668 27.8564 393.784 25.1105 393.795 22.4365V20.3094H395.823ZM421.088 33.442V19.2099H423.005V33.442H421.088ZM415.58 24.4088H418.138V19.4641H419.994V32.7901H418.138V26.0387H415.58V24.4088ZM413.066 22.4254V28.6133C414.585 28.6022 415.74 28.5193 417.072 28.2431L417.221 29.8785C415.618 30.1989 414.188 30.2652 412.099 30.2652H411.116V20.8232H416.558V22.4254H413.066ZM434.077 19.2099H436.093V33.4751H434.077V19.2099ZM428.37 20.2155C430.519 20.2155 432.11 22.1823 432.116 25.2762C432.11 28.4033 430.519 30.3591 428.37 30.3591C426.193 30.3591 424.602 28.4033 424.607 25.2762C424.602 22.1823 426.193 20.2155 428.37 20.2155ZM428.37 22.0166C427.265 22.0166 426.524 23.1713 426.535 25.2762C426.524 27.4033 427.265 28.5525 428.37 28.5525C429.453 28.5525 430.187 27.4033 430.187 25.2762C430.187 23.1713 429.453 22.0166 428.37 22.0166ZM447.723 24.2431V19.2099H449.696V33.4751H447.723V25.8398H445.226V24.2431H447.723ZM440.342 25.9392V28.6243C442.314 28.6077 443.889 28.5359 445.657 28.2597L445.856 29.8564C443.778 30.1713 441.917 30.2431 439.48 30.2486H438.347V20.4088H444.999V22.0166H440.342V24.3757H444.48V25.9392H440.342ZM461.068 22.8232C460.14 24.3646 458.328 25.5193 455.864 25.8729L455.079 24.2652C458.311 23.8619 460.019 22.0055 460.024 20.326V19.6354H462.118V20.326C462.118 22.0055 463.831 23.8619 467.085 24.2652L466.306 25.8729C463.82 25.5193 461.997 24.3646 461.068 22.8232ZM454.577 26.9503H467.549V28.5746H462.008V33.442H460.035V28.5746H454.577V26.9503ZM477.985 26.9337V19.2099H479.985V26.9337H477.985ZM472.626 24.0663C471.985 25.4144 470.82 26.4807 469.135 26.9945L468.123 25.4365C470.394 24.7901 471.488 23.2044 471.593 21.5912H468.665V20.0055H476.483V21.5912H473.626C473.731 23.105 474.814 24.5967 477.03 25.1989L476.035 26.7514C474.411 26.2818 473.273 25.3094 472.626 24.0663ZM472.438 28.8619H477.996V27.5249H479.985V33.2818H470.477V27.5249H472.438V28.8619ZM472.438 31.6851H477.996V30.3978H472.438V31.6851Z" fill="#8A8A8B"/>
<path d="M364.33 45.1644L363.92 44.2859C365.88 44.0373 367.376 43.0304 367.434 41.8909H364.264V40.9959H372.099V41.8909H368.913C368.963 43.0304 370.475 44.0373 372.435 44.2859L372.012 45.1644C370.214 44.924 368.735 44.087 368.167 42.9061C367.599 44.087 366.128 44.924 364.33 45.1644ZM363.373 46.7472V45.8398H372.982V46.7472H368.818V48.7776H367.715V46.7472H363.373ZM364.57 47.7749H365.681V49.8674H371.917V50.779H364.57V47.7749ZM381.099 40.4945H382.218V51.0152H381.099V40.4945ZM374.101 41.3688H375.211V44.0663H378.045V41.3688H379.144V48.5041H374.101V41.3688ZM375.211 44.9489V47.5843H378.045V44.9489H375.211ZM387.228 44.8039L386.843 43.9254C388.732 43.7348 390.224 42.8771 390.373 41.8619H387.216V40.971H395.051V41.8619H391.877C392.014 42.8812 393.493 43.7348 395.424 43.9254L395.022 44.8039C393.199 44.6008 391.695 43.8343 391.119 42.7196C390.547 43.8301 389.051 44.6008 387.228 44.8039ZM395.913 45.3591V46.2666H391.67V47.2693C393.597 47.3729 394.736 48.0235 394.745 49.1215C394.736 50.3108 393.377 50.9779 391.115 50.9779C388.836 50.9779 387.473 50.3108 387.473 49.1215C387.473 48.0235 388.62 47.3729 390.568 47.2693V46.2666H386.341V45.3591H395.913ZM393.634 49.1215C393.626 48.4751 392.702 48.1146 391.115 48.1064C389.511 48.1146 388.596 48.4751 388.604 49.1215C388.596 49.7597 389.511 50.1285 391.115 50.1202C392.702 50.1285 393.626 49.7597 393.634 49.1215ZM399.896 46.482C399.896 44.4019 400.451 42.674 401.507 41.1989H402.655C401.839 42.2928 401.193 44.5138 401.193 46.482C401.193 48.4503 401.839 50.6754 402.655 51.7693H401.507C400.451 50.2942 399.896 48.5622 399.896 46.482ZM409.273 50H403.572L403.568 49.0635L406.51 46.0925C407.442 45.1271 407.906 44.5925 407.91 43.8467C407.906 43.0097 407.226 42.4793 406.336 42.4793C405.395 42.4793 404.794 43.0718 404.794 43.9793H403.568C403.563 42.4254 404.744 41.3978 406.36 41.3978C407.997 41.3978 409.128 42.4337 409.137 43.8094C409.128 44.7583 408.681 45.5166 407.09 47.0787L405.366 48.8315V48.8936H409.273V50ZM417.703 40.4945H418.818V45.8398H417.703V40.4945ZM415.834 43.2086C415.826 44.5843 414.662 45.5456 413.083 45.5456C411.484 45.5456 410.319 44.5843 410.319 43.2086C410.319 41.8287 411.484 40.8591 413.083 40.855C414.662 40.8591 415.826 41.8287 415.834 43.2086ZM411.405 43.2086C411.397 44.0704 412.113 44.6423 413.083 44.6423C414.044 44.6423 414.757 44.0704 414.757 43.2086C414.757 42.3508 414.044 41.7749 413.083 41.779C412.113 41.7749 411.397 42.3508 411.405 43.2086ZM413.025 48.9641V49.971H419.162V50.8619H411.944V48.1354H417.712V47.2072H411.91V46.3246H418.818V48.9641H413.025ZM424.458 47.5594H423.405C423.372 46.1174 424.151 45.4751 425.092 45.4751C425.643 45.4751 426.053 45.6906 426.662 46.2169C427.039 46.5442 427.226 46.6809 427.52 46.6809C427.963 46.6809 428.262 46.3494 428.245 45.6865H429.306C429.339 47.1285 428.543 47.779 427.611 47.779C427.052 47.779 426.637 47.5511 426.041 47.029C425.651 46.6975 425.477 46.5649 425.187 46.5649C424.76 46.5649 424.441 46.8467 424.458 47.5594ZM435.328 41.5138H436.587V50H435.295V42.8066H435.245L433.219 44.1285V42.8978L435.328 41.5138ZM440.143 50H438.797L442.584 42.6823V42.6202H438.208V41.5138H443.922V42.6616L440.143 50ZM452.216 40.4945H453.331V45.8398H452.216V40.4945ZM450.348 43.2086C450.339 44.5843 449.175 45.5456 447.596 45.5456C445.997 45.5456 444.832 44.5843 444.832 43.2086C444.832 41.8287 445.997 40.8591 447.596 40.855C449.175 40.8591 450.339 41.8287 450.348 43.2086ZM445.918 43.2086C445.91 44.0704 446.627 44.6423 447.596 44.6423C448.558 44.6423 449.27 44.0704 449.27 43.2086C449.27 42.3508 448.558 41.7749 447.596 41.779C446.627 41.7749 445.91 42.3508 445.918 43.2086ZM447.538 48.9641V49.971H453.675V50.8619H446.457V48.1354H452.225V47.2072H446.424V46.3246H453.331V48.9641H447.538ZM457.524 46.482C457.524 48.5622 456.969 50.2942 455.912 51.7693H454.765C455.581 50.6754 456.227 48.4503 456.227 46.482C456.227 44.5138 455.581 42.2928 454.765 41.1989H455.912C456.969 42.674 457.524 44.4019 457.524 46.482Z" fill="#8A8A8B"/>
<mask id="path-14-inside-4_2037_5741" fill="white">
<path fill-rule="evenodd" clip-rule="evenodd" d="M10 0C4.47715 0 0 4.47715 0 10V60C0 65.5229 4.47715 70 10 70H164.235C164.718 70 165.193 69.9658 165.658 69.8996C167.716 69.915 169.819 69.1512 171.512 67.4229L197.656 40.7351C200.777 37.5488 200.777 32.4512 197.656 29.2649L171.512 2.57708C169.819 0.848788 167.716 0.0850017 165.658 0.100441C165.193 0.0342456 164.718 0 164.235 0H10Z"/>
</mask>
<path fill-rule="evenodd" clip-rule="evenodd" d="M10 0C4.47715 0 0 4.47715 0 10V60C0 65.5229 4.47715 70 10 70H164.235C164.718 70 165.193 69.9658 165.658 69.8996C167.716 69.915 169.819 69.1512 171.512 67.4229L197.656 40.7351C200.777 37.5488 200.777 32.4512 197.656 29.2649L171.512 2.57708C169.819 0.848788 167.716 0.0850017 165.658 0.100441C165.193 0.0342456 164.718 0 164.235 0H10Z" fill="#41AD95"/>
<path d="M165.658 69.8996L165.665 68.8996L165.591 68.899L165.517 68.9095L165.658 69.8996ZM171.512 67.4229L172.227 68.1227L171.512 67.4229ZM197.656 40.7351L198.37 41.4349V41.4349L197.656 40.7351ZM197.656 29.2649L198.37 28.5651L197.656 29.2649ZM171.512 2.57708L172.227 1.8773V1.8773L171.512 2.57708ZM165.658 0.100441L165.517 1.09045L165.59 1.10097L165.665 1.10041L165.658 0.100441ZM1 10C1 5.02944 5.02944 1 10 1V-1C3.92487 -1 -1 3.92487 -1 10H1ZM1 60V10H-1V60H1ZM10 69C5.02943 69 1 64.9706 1 60H-1C-1 66.0751 3.92487 71 10 71V69ZM164.235 69H10V71H164.235V69ZM165.517 68.9095C165.098 68.9691 164.671 69 164.235 69V71C164.765 71 165.287 70.9624 165.799 70.8896L165.517 68.9095ZM170.798 66.7231C169.302 68.25 167.463 68.913 165.665 68.8996L165.65 70.8995C167.969 70.9169 170.336 70.0524 172.227 68.1227L170.798 66.7231ZM196.941 40.0353L170.798 66.7231L172.227 68.1227L198.37 41.4349L196.941 40.0353ZM196.941 29.9647C199.682 32.7622 199.682 37.2378 196.941 40.0353L198.37 41.4349C201.872 37.8598 201.872 32.1402 198.37 28.5651L196.941 29.9647ZM170.798 3.27687L196.941 29.9647L198.37 28.5651L172.227 1.8773L170.798 3.27687ZM165.665 1.10041C167.463 1.08693 169.302 1.75002 170.798 3.27687L172.227 1.8773C170.336 -0.0524405 167.969 -0.916925 165.65 -0.899531L165.665 1.10041ZM164.235 1C164.671 1 165.098 1.03089 165.517 1.09045L165.799 -0.889566C165.287 -0.962395 164.765 -1 164.235 -1V1ZM10 1H164.235V-1H10V1Z" fill="#17BF98" mask="url(#path-14-inside-4_2037_5741)"/>
<path d="M62.884 27.5304V30.1657H68.4309V31.7845H55.4254V30.1657H60.9116V27.5304H56.8011V20.1215H58.8011V22.337H65V20.1215H66.989V27.5304H62.884ZM65 23.9171H58.8011V25.9392H65V23.9171ZM80.0772 28.6022L78.0661 28.3923C78.6076 25.7017 78.6352 23.7017 78.6462 22.0331H70.2706V20.4475H80.6462V21.7956C80.6407 23.5746 80.6407 25.5746 80.0772 28.6022ZM75.5523 25.1878V30.0773H81.9059V31.6961H68.9335V30.0773H73.5744V25.1878H75.5523ZM92.4638 23.6906V19.2099H94.4361V33.4751H92.4638V25.2983H89.6792V23.6906H92.4638ZM87.8229 20.3094V22.4365C87.8174 25.1105 88.8947 27.7127 91.2593 28.7348L90.0549 30.3204C88.4693 29.558 87.4085 28.1436 86.8174 26.3867C86.2041 28.2486 85.1102 29.779 83.4859 30.5801L82.2372 28.9613C84.6682 27.8564 85.7842 25.1105 85.7953 22.4365V20.3094H87.8229ZM109.643 24.3204H108.45V27.4807H106.599V19.4807H108.45V22.7017H109.643V19.232H111.533V27.9282H109.643V24.3204ZM102.925 24.6961C102.406 25.9227 101.516 26.9503 100.19 27.5028L99.1184 25.9613C101.118 25.0884 101.92 23.337 101.925 21.7569V20.0829H103.864V21.7569C103.859 23.2873 104.66 24.8066 106.544 25.5249L105.483 27.0497C104.268 26.5856 103.433 25.7403 102.925 24.6961ZM106.671 28.1215C109.671 28.1215 111.599 29.116 111.605 30.7735C111.599 32.4309 109.671 33.442 106.671 33.4365C103.66 33.442 101.743 32.4309 101.754 30.7735C101.743 29.116 103.66 28.1215 106.671 28.1215ZM106.671 31.9337C108.522 31.9392 109.594 31.547 109.599 30.7735C109.594 30.011 108.522 29.6077 106.671 29.6133C104.809 29.6077 103.737 30.011 103.743 30.7735C103.737 31.547 104.809 31.9392 106.671 31.9337ZM124.809 27.5525H122.82V23.453H120.151V21.8232H122.82V19.2099H124.809V27.5525ZM117.234 24.2928C116.599 25.7735 115.455 26.9392 113.748 27.5138L112.687 25.9227C115.129 25.1381 116.173 23.232 116.185 21.2431V19.9558H118.196V21.1492C118.185 23.0552 119.168 24.8122 121.455 25.5193L120.394 27.0773C118.864 26.5525 117.831 25.5691 117.234 24.2928ZM119.947 27.9171C122.986 27.9171 124.842 28.9392 124.848 30.6851C124.842 32.442 122.986 33.442 119.947 33.4365C116.919 33.442 115.057 32.442 115.063 30.6851C115.057 28.9392 116.919 27.9171 119.947 27.9171ZM119.947 31.884C121.836 31.8895 122.864 31.4751 122.87 30.6851C122.864 29.8729 121.836 29.4641 119.947 29.4641C118.063 29.4641 117.041 29.8729 117.046 30.6851C117.041 31.4751 118.063 31.8895 119.947 31.884Z" fill="white"/>
<path d="M63.2831 44.1533H62.0566V46.6312H61.0207V40.6975H62.0566V43.2376H63.2831V40.5028H64.3356V46.9669H63.2831V44.1533ZM60.6975 45.3301L60.105 46.1878C59.1312 45.8149 58.4475 45.0981 58.0704 44.2362C57.6851 45.2099 56.9682 46.0594 55.9489 46.4945L55.3439 45.6326C56.761 45.011 57.5193 43.6809 57.5193 42.5124V41.1492H58.5967V42.5124C58.5967 43.6602 59.3301 44.8204 60.6975 45.3301ZM60.8301 47.1699C63.0138 47.1699 64.3936 47.8743 64.3936 49.076C64.3936 50.2693 63.0138 50.9779 60.8301 50.9779C58.6298 50.9779 57.2583 50.2693 57.2666 49.076C57.2583 47.8743 58.6298 47.1699 60.8301 47.1699ZM60.8301 50.1202C62.3467 50.1285 63.279 49.7431 63.2831 49.076C63.279 48.4047 62.3467 48.0152 60.8301 48.0152C59.297 48.0152 58.3646 48.4047 58.3729 49.076C58.3646 49.7431 59.297 50.1285 60.8301 50.1202ZM74.272 46.6934H73.1615V43.5483H70.9488V42.6326H73.1615V40.4945H74.272V46.6934ZM68.7195 43.9586C68.2637 45.1602 67.3479 46.0967 66.0758 46.5566L65.4792 45.6616C67.1573 45.0898 68.1311 43.6934 68.1394 42.1188V41.0787H69.2499V42.0732C69.2416 43.5359 70.1946 44.8494 71.7858 45.3674L71.1808 46.2376C70.0247 45.8191 69.1753 45.011 68.7195 43.9586ZM70.754 46.9834C72.9543 46.9834 74.301 47.721 74.3051 48.9931C74.301 50.261 72.9543 50.9779 70.754 50.9779C68.5496 50.9779 67.1988 50.261 67.2071 48.9931C67.1988 47.721 68.5496 46.9834 70.754 46.9834ZM70.754 50.0994C72.2872 50.0994 73.1988 49.6934 73.2029 48.9931C73.1988 48.268 72.2872 47.8577 70.754 47.8577C69.2167 47.8577 68.301 48.268 68.3093 48.9931C68.301 49.6934 69.2167 50.0994 70.754 50.0994ZM79.2281 44.8039L78.8428 43.9254C80.7323 43.7348 82.224 42.8771 82.3731 41.8619H79.2157V40.971H87.0513V41.8619H83.8773C84.014 42.8812 85.4933 43.7348 87.4243 43.9254L87.0223 44.8039C85.1991 44.6008 83.695 43.8343 83.119 42.7196C82.5472 43.8301 81.0513 44.6008 79.2281 44.8039ZM87.9132 45.3591V46.2666H83.6701V47.2693C85.5969 47.3729 86.7364 48.0235 86.7447 49.1215C86.7364 50.3108 85.3773 50.9779 83.1149 50.9779C80.8359 50.9779 79.4726 50.3108 79.4726 49.1215C79.4726 48.0235 80.6204 47.3729 82.5679 47.2693V46.2666H78.3414V45.3591H87.9132ZM85.6342 49.1215C85.6259 48.4751 84.7019 48.1146 83.1149 48.1064C81.5113 48.1146 80.5955 48.4751 80.6038 49.1215C80.5955 49.7597 81.5113 50.1285 83.1149 50.1202C84.7019 50.1285 85.6259 49.7597 85.6342 49.1215ZM91.8956 46.482C91.8956 44.4019 92.4508 42.674 93.5075 41.1989H94.6553C93.839 42.2928 93.1925 44.5138 93.1925 46.482C93.1925 48.4503 93.839 50.6754 94.6553 51.7693H93.5075C92.4508 50.2942 91.8956 48.5622 91.8956 46.482ZM97.5317 41.5138H98.7913V50H97.4985V42.8066H97.4488L95.4225 44.1285V42.8978L97.5317 41.5138ZM107.945 40.4945H109.06V45.8398H107.945V40.4945ZM106.077 43.2086C106.068 44.5843 104.904 45.5456 103.325 45.5456C101.726 45.5456 100.561 44.5843 100.561 43.2086C100.561 41.8287 101.726 40.8591 103.325 40.855C104.904 40.8591 106.068 41.8287 106.077 43.2086ZM101.647 43.2086C101.639 44.0704 102.356 44.6423 103.325 44.6423C104.287 44.6423 104.999 44.0704 104.999 43.2086C104.999 42.3508 104.287 41.7749 103.325 41.779C102.356 41.7749 101.639 42.3508 101.647 43.2086ZM103.267 48.9641V49.971H109.404V50.8619H102.186V48.1354H107.954V47.2072H102.153V46.3246H109.06V48.9641H103.267ZM113.253 46.482C113.253 48.5622 112.698 50.2942 111.641 51.7693H110.494C111.31 50.6754 111.956 48.4503 111.956 46.482C111.956 44.5138 111.31 42.2928 110.494 41.1989H111.641C112.698 42.674 113.253 44.4019 113.253 46.482Z" fill="white"/>
</svg>
