<svg width="1182" height="70" viewBox="0 0 1182 70" fill="none" xmlns="http://www.w3.org/2000/svg">
<rect x="0.5" y="0.5" width="1181" height="69" rx="9.5" fill="#F6F6F6" stroke="#DEDEDE"/>
<mask id="path-2-inside-1_2037_5926" fill="white">
<path d="M948 10C948 4.47715 952.477 0 958 0H1172C1177.52 0 1182 4.47715 1182 10V60C1182 65.5229 1177.52 70 1172 70H958C952.477 70 948 65.5229 948 60V10Z"/>
</mask>
<path d="M948 10C948 4.47715 952.477 0 958 0H1172C1177.52 0 1182 4.47715 1182 10V60C1182 65.5229 1177.52 70 1172 70H958C952.477 70 948 65.5229 948 60V10Z" fill="#F6F6F6"/>
<path d="M958 1H1172V-1H958V1ZM1181 10V60H1183V10H1181ZM1172 69H958V71H1172V69ZM949 60V10H947V60H949ZM958 69C953.029 69 949 64.9706 949 60H947C947 66.0751 951.925 71 958 71V69ZM1181 60C1181 64.9706 1176.97 69 1172 69V71C1178.08 71 1183 66.0751 1183 60H1181ZM1172 1C1176.97 1 1181 5.02944 1181 10H1183C1183 3.92487 1178.08 -1 1172 -1V1ZM958 -1C951.925 -1 947 3.92487 947 10H949C949 5.02944 953.029 1 958 1V-1Z" fill="#DEDEDE" mask="url(#path-2-inside-1_2037_5926)"/>
<path d="M1039.88 27.5304V30.1657H1045.43V31.7845H1032.43V30.1657H1037.91V27.5304H1033.8V20.1215H1035.8V22.337H1042V20.1215H1043.99V27.5304H1039.88ZM1042 23.9171H1035.8V25.9392H1042V23.9171ZM1057.08 28.6022L1055.07 28.3923C1055.61 25.7017 1055.64 23.7017 1055.65 22.0331H1047.27V20.4475H1057.65V21.7956C1057.64 23.5746 1057.64 25.5746 1057.08 28.6022ZM1052.55 25.1878V30.0773H1058.91V31.6961H1045.93V30.0773H1050.57V25.1878H1052.55ZM1069.46 23.6906V19.2099H1071.44V33.4751H1069.46V25.2983H1066.68V23.6906H1069.46ZM1064.82 20.3094V22.4365C1064.82 25.1105 1065.89 27.7127 1068.26 28.7348L1067.05 30.3204C1065.47 29.558 1064.41 28.1436 1063.82 26.3867C1063.2 28.2486 1062.11 29.779 1060.49 30.5801L1059.24 28.9613C1061.67 27.8564 1062.78 25.1105 1062.8 22.4365V20.3094H1064.82ZM1087.6 19.2099V21.9834H1089.51V23.5967H1087.6V26.4586H1085.6V19.2099H1087.6ZM1081.63 19.8564H1083.62V26.0608H1076.74V19.8564H1078.72V21.5414H1081.63V19.8564ZM1078.72 24.4972H1081.63V23.0387H1078.72V24.4972ZM1087.6 30.8508H1080.15V31.7735H1088.01V33.3425H1078.18V29.4199H1085.61V28.5249H1078.16V26.9834H1087.6V30.8508ZM1096.27 22.3039C1095.36 23.7238 1093.6 24.7403 1091.2 25.0994L1090.49 23.5414C1093.64 23.1547 1095.27 21.5249 1095.27 19.9227V19.453H1097.3V19.9227C1097.3 21.5856 1098.89 23.1547 1102.1 23.5414L1101.33 25.0994C1098.94 24.7403 1097.17 23.7293 1096.27 22.3039ZM1097.28 24.2486V26.0055H1102.8V27.5967H1089.83V26.0055H1095.3V24.2486H1097.28ZM1096.28 28.3812C1099.39 28.3812 1101.23 29.3039 1101.24 30.9171C1101.23 32.5414 1099.39 33.442 1096.28 33.4365C1093.17 33.442 1091.31 32.5414 1091.31 30.9171C1091.31 29.3039 1093.17 28.3812 1096.28 28.3812ZM1096.28 31.9503C1098.23 31.9503 1099.23 31.6188 1099.24 30.9171C1099.23 30.2155 1098.23 29.895 1096.28 29.895C1094.3 29.895 1093.33 30.2155 1093.34 30.9171C1093.33 31.6188 1094.3 31.9503 1096.28 31.9503Z" fill="#8A8A8B"/>
<path d="M1033.33 45.1644L1032.92 44.2859C1034.88 44.0373 1036.38 43.0304 1036.43 41.8909H1033.26V40.9959H1041.1V41.8909H1037.91C1037.96 43.0304 1039.48 44.0373 1041.44 44.2859L1041.01 45.1644C1039.21 44.924 1037.73 44.087 1037.17 42.9061C1036.6 44.087 1035.13 44.924 1033.33 45.1644ZM1032.37 46.7472V45.8398H1041.98V46.7472H1037.82V48.7776H1036.72V46.7472H1032.37ZM1033.57 47.7749H1034.68V49.8674H1040.92V50.779H1033.57V47.7749ZM1050.1 40.4945H1051.22V51.0152H1050.1V40.4945ZM1043.1 41.3688H1044.21V44.0663H1047.05V41.3688H1048.14V48.5041H1043.1V41.3688ZM1044.21 44.9489V47.5843H1047.05V44.9489H1044.21ZM1056.23 44.8039L1055.84 43.9254C1057.73 43.7348 1059.22 42.8771 1059.37 41.8619H1056.22V40.971H1064.05V41.8619H1060.88C1061.01 42.8812 1062.49 43.7348 1064.42 43.9254L1064.02 44.8039C1062.2 44.6008 1060.69 43.8343 1060.12 42.7196C1059.55 43.8301 1058.05 44.6008 1056.23 44.8039ZM1064.91 45.3591V46.2666H1060.67V47.2693C1062.6 47.3729 1063.74 48.0235 1063.74 49.1215C1063.74 50.3108 1062.38 50.9779 1060.11 50.9779C1057.84 50.9779 1056.47 50.3108 1056.47 49.1215C1056.47 48.0235 1057.62 47.3729 1059.57 47.2693V46.2666H1055.34V45.3591H1064.91ZM1062.63 49.1215C1062.63 48.4751 1061.7 48.1146 1060.11 48.1064C1058.51 48.1146 1057.6 48.4751 1057.6 49.1215C1057.6 49.7597 1058.51 50.1285 1060.11 50.1202C1061.7 50.1285 1062.63 49.7597 1062.63 49.1215ZM1068.9 46.482C1068.9 44.4019 1069.45 42.674 1070.51 41.1989H1071.66C1070.84 42.2928 1070.19 44.5138 1070.19 46.482C1070.19 48.4503 1070.84 50.6754 1071.66 51.7693H1070.51C1069.45 50.2942 1068.9 48.5622 1068.9 46.482ZM1078.27 50H1072.57L1072.57 49.0635L1075.51 46.0925C1076.44 45.1271 1076.91 44.5925 1076.91 43.8467C1076.91 43.0097 1076.23 42.4793 1075.34 42.4793C1074.39 42.4793 1073.79 43.0718 1073.79 43.9793H1072.57C1072.56 42.4254 1073.74 41.3978 1075.36 41.3978C1077 41.3978 1078.13 42.4337 1078.14 43.8094C1078.13 44.7583 1077.68 45.5166 1076.09 47.0787L1074.37 48.8315V48.8936H1078.27V50ZM1082.42 50.1367C1080.46 50.1367 1079.3 48.5414 1079.31 45.761C1079.31 42.9972 1080.47 41.3978 1082.42 41.3978C1084.37 41.3978 1085.53 43.0014 1085.53 45.761C1085.53 48.5414 1084.38 50.1367 1082.42 50.1367ZM1082.42 49.0262C1083.57 49.0262 1084.25 47.8785 1084.25 45.761C1084.25 43.6478 1083.56 42.4959 1082.42 42.4959C1081.28 42.4959 1080.59 43.6478 1080.59 45.761C1080.59 47.8785 1081.28 49.0262 1082.42 49.0262ZM1093.87 40.4945H1094.98V45.8398H1093.87V40.4945ZM1092 43.2086C1091.99 44.5843 1090.83 45.5456 1089.25 45.5456C1087.65 45.5456 1086.49 44.5843 1086.49 43.2086C1086.49 41.8287 1087.65 40.8591 1089.25 40.855C1090.83 40.8591 1091.99 41.8287 1092 43.2086ZM1087.57 43.2086C1087.56 44.0704 1088.28 44.6423 1089.25 44.6423C1090.21 44.6423 1090.92 44.0704 1090.92 43.2086C1090.92 42.3508 1090.21 41.7749 1089.25 41.779C1088.28 41.7749 1087.56 42.3508 1087.57 43.2086ZM1089.19 48.9641V49.971H1095.33V50.8619H1088.11V48.1354H1093.88V47.2072H1088.08V46.3246H1094.98V48.9641H1089.19ZM1099.18 46.482C1099.18 48.5622 1098.62 50.2942 1097.57 51.7693H1096.42C1097.23 50.6754 1097.88 48.4503 1097.88 46.482C1097.88 44.5138 1097.23 42.2928 1096.42 41.1989H1097.57C1098.62 42.674 1099.18 44.4019 1099.18 46.482Z" fill="#8A8A8B"/>
<mask id="path-6-inside-2_2037_5926" fill="white">
<path fill-rule="evenodd" clip-rule="evenodd" d="M663 0C657.477 0 653 4.47715 653 10V60C653 65.5229 657.477 70 663 70H949.513C950.927 70 952.272 69.7065 953.492 69.1772C954.74 68.8198 955.943 68.1421 956.997 67.1003L983.57 40.8281C986.815 37.6201 986.815 32.3799 983.57 29.1719L956.997 2.8997C955.943 1.8579 954.74 1.18015 953.492 0.822803C952.272 0.293462 950.927 0 949.513 0H663Z"/>
</mask>
<path fill-rule="evenodd" clip-rule="evenodd" d="M663 0C657.477 0 653 4.47715 653 10V60C653 65.5229 657.477 70 663 70H949.513C950.927 70 952.272 69.7065 953.492 69.1772C954.74 68.8198 955.943 68.1421 956.997 67.1003L983.57 40.8281C986.815 37.6201 986.815 32.3799 983.57 29.1719L956.997 2.8997C955.943 1.8579 954.74 1.18015 953.492 0.822803C952.272 0.293462 950.927 0 949.513 0H663Z" fill="#F6F6F6"/>
<path d="M953.492 69.1772L953.216 68.2158L953.153 68.2338L953.093 68.2599L953.492 69.1772ZM956.997 67.1003L957.7 67.8114L956.997 67.1003ZM983.57 40.8281L982.867 40.1169V40.1169L983.57 40.8281ZM983.57 29.1719L982.867 29.883V29.8831L983.57 29.1719ZM956.997 2.8997L957.7 2.18857V2.18857L956.997 2.8997ZM953.492 0.822803L953.093 1.74009L953.153 1.76616L953.216 1.78417L953.492 0.822803ZM654 10C654 5.02944 658.029 1 663 1V-1C656.925 -1 652 3.92487 652 10H654ZM654 60V10H652V60H654ZM663 69C658.029 69 654 64.9706 654 60H652C652 66.0751 656.925 71 663 71V69ZM949.513 69H663V71H949.513V69ZM953.093 68.2599C951.997 68.7357 950.787 69 949.513 69V71C951.066 71 952.547 70.6774 953.89 70.0945L953.093 68.2599ZM956.293 66.3892C955.359 67.313 954.303 67.9047 953.216 68.2158L953.767 70.1385C955.176 69.7349 956.527 68.9711 957.7 67.8114L956.293 66.3892ZM982.867 40.1169L956.293 66.3892L957.7 67.8114L984.273 41.5392L982.867 40.1169ZM982.867 29.8831C985.716 32.6996 985.716 37.3004 982.867 40.1169L984.273 41.5392C987.914 37.9398 987.914 32.0602 984.273 28.4608L982.867 29.8831ZM956.293 3.61083L982.867 29.883L984.273 28.4608L957.7 2.18857L956.293 3.61083ZM953.216 1.78417C954.303 2.09528 955.359 2.68691 956.293 3.61083L957.7 2.18857C956.527 1.02888 955.176 0.265012 953.767 -0.138568L953.216 1.78417ZM949.513 1C950.787 1 951.997 1.26429 953.093 1.74009L953.89 -0.0944843C952.547 -0.677361 951.066 -1 949.513 -1V1ZM663 1H949.513V-1H663V1Z" fill="#DEDEDE" mask="url(#path-6-inside-2_2037_5926)"/>
<path d="M766.884 27.5304V30.1657H772.431V31.7845H759.425V30.1657H764.912V27.5304H760.801V20.1215H762.801V22.337H769V20.1215H770.989V27.5304H766.884ZM769 23.9171H762.801V25.9392H769V23.9171ZM784.077 28.6022L782.066 28.3923C782.608 25.7017 782.635 23.7017 782.646 22.0331H774.271V20.4475H784.646V21.7956C784.641 23.5746 784.641 25.5746 784.077 28.6022ZM779.552 25.1878V30.0773H785.906V31.6961H772.934V30.0773H777.574V25.1878H779.552ZM796.464 23.6906V19.2099H798.436V33.4751H796.464V25.2983H793.679V23.6906H796.464ZM791.823 20.3094V22.4365C791.817 25.1105 792.895 27.7127 795.259 28.7348L794.055 30.3204C792.469 29.558 791.409 28.1436 790.817 26.3867C790.204 28.2486 789.11 29.779 787.486 30.5801L786.237 28.9613C788.668 27.8564 789.784 25.1105 789.795 22.4365V20.3094H791.823ZM817.088 33.442V19.2099H819.005V33.442H817.088ZM811.58 24.4088H814.138V19.4641H815.994V32.7901H814.138V26.0387H811.58V24.4088ZM809.066 22.4254V28.6133C810.585 28.6022 811.74 28.5193 813.072 28.2431L813.221 29.8785C811.618 30.1989 810.188 30.2652 808.099 30.2652H807.116V20.8232H812.558V22.4254H809.066ZM830.077 19.2099H832.093V33.4751H830.077V19.2099ZM824.37 20.2155C826.519 20.2155 828.11 22.1823 828.116 25.2762C828.11 28.4033 826.519 30.3591 824.37 30.3591C822.193 30.3591 820.602 28.4033 820.607 25.2762C820.602 22.1823 822.193 20.2155 824.37 20.2155ZM824.37 22.0166C823.265 22.0166 822.524 23.1713 822.535 25.2762C822.524 27.4033 823.265 28.5525 824.37 28.5525C825.453 28.5525 826.187 27.4033 826.187 25.2762C826.187 23.1713 825.453 22.0166 824.37 22.0166ZM843.723 24.2431V19.2099H845.696V33.4751H843.723V25.8398H841.226V24.2431H843.723ZM836.342 25.9392V28.6243C838.314 28.6077 839.889 28.5359 841.657 28.2597L841.856 29.8564C839.778 30.1713 837.917 30.2431 835.48 30.2486H834.347V20.4088H840.999V22.0166H836.342V24.3757H840.48V25.9392H836.342ZM860.571 22.6077V19.232H862.56V27.1823H860.571V24.2376H858.041V22.6077H860.571ZM857.947 20.0497C857.947 23.768 855.599 26.3425 851.433 27.5028L850.643 25.9503C853.726 25.1215 855.488 23.5525 855.809 21.6354H851.416V20.0497H857.947ZM862.56 33.2652H853.129V27.7514H862.56V33.2652ZM860.582 29.3149H855.085V31.7017H860.582V29.3149ZM865.322 25.2431L864.654 23.6906C867.317 23.442 868.781 22.4751 869.118 21.4751H865.262V19.8674H875.886V21.4751H871.996C872.328 22.4696 873.775 23.442 876.505 23.6906L875.809 25.2431C873.118 24.9889 871.311 23.9779 870.549 22.6022C869.797 23.9724 868.013 24.9889 865.322 25.2431ZM864.085 27.3757V25.768H877.057V27.3757H864.085ZM870.543 28.1713C873.632 28.1713 875.488 29.1381 875.499 30.8066C875.488 32.4917 873.632 33.442 870.543 33.4365C867.438 33.442 865.565 32.4917 865.565 30.8066C865.565 29.1381 867.438 28.1713 870.543 28.1713ZM870.543 31.884C872.477 31.8895 873.494 31.547 873.499 30.8066C873.494 30.0663 872.477 29.7182 870.543 29.7127C868.577 29.7182 867.588 30.0663 867.599 30.8066C867.588 31.547 868.577 31.8895 870.543 31.884Z" fill="#8A8A8B"/>
<path d="M760.33 45.1644L759.92 44.2859C761.88 44.0373 763.376 43.0304 763.434 41.8909H760.264V40.9959H768.099V41.8909H764.913C764.963 43.0304 766.475 44.0373 768.435 44.2859L768.012 45.1644C766.214 44.924 764.735 44.087 764.167 42.9061C763.599 44.087 762.128 44.924 760.33 45.1644ZM759.373 46.7472V45.8398H768.982V46.7472H764.818V48.7776H763.715V46.7472H759.373ZM760.57 47.7749H761.681V49.8674H767.917V50.779H760.57V47.7749ZM777.099 40.4945H778.218V51.0152H777.099V40.4945ZM770.101 41.3688H771.211V44.0663H774.045V41.3688H775.144V48.5041H770.101V41.3688ZM771.211 44.9489V47.5843H774.045V44.9489H771.211ZM783.228 44.8039L782.843 43.9254C784.732 43.7348 786.224 42.8771 786.373 41.8619H783.216V40.971H791.051V41.8619H787.877C788.014 42.8812 789.493 43.7348 791.424 43.9254L791.022 44.8039C789.199 44.6008 787.695 43.8343 787.119 42.7196C786.547 43.8301 785.051 44.6008 783.228 44.8039ZM791.913 45.3591V46.2666H787.67V47.2693C789.597 47.3729 790.736 48.0235 790.745 49.1215C790.736 50.3108 789.377 50.9779 787.115 50.9779C784.836 50.9779 783.473 50.3108 783.473 49.1215C783.473 48.0235 784.62 47.3729 786.568 47.2693V46.2666H782.341V45.3591H791.913ZM789.634 49.1215C789.626 48.4751 788.702 48.1146 787.115 48.1064C785.511 48.1146 784.596 48.4751 784.604 49.1215C784.596 49.7597 785.511 50.1285 787.115 50.1202C788.702 50.1285 789.626 49.7597 789.634 49.1215ZM795.896 46.482C795.896 44.4019 796.451 42.674 797.507 41.1989H798.655C797.839 42.2928 797.193 44.5138 797.193 46.482C797.193 48.4503 797.839 50.6754 798.655 51.7693H797.507C796.451 50.2942 795.896 48.5622 795.896 46.482ZM801.532 41.5138H802.791V50H801.499V42.8066H801.449L799.423 44.1285V42.8978L801.532 41.5138ZM807.673 50.116C805.834 50.116 804.545 49.1174 804.553 47.7376C804.545 46.6519 805.328 45.761 806.323 45.5994V45.5539C805.456 45.3633 804.872 44.5843 804.872 43.6602C804.872 42.355 806.053 41.3978 807.673 41.3978C809.277 41.3978 810.458 42.355 810.462 43.6602C810.458 44.5884 809.865 45.3633 809.016 45.5539V45.5994C810.002 45.761 810.785 46.6519 810.793 47.7376C810.785 49.1174 809.492 50.116 807.673 50.116ZM807.673 45.1188C808.56 45.1188 809.206 44.5718 809.206 43.7721C809.206 42.9848 808.581 42.4503 807.673 42.4503C806.745 42.4503 806.132 42.9848 806.132 43.7721C806.132 44.5718 806.77 45.1188 807.673 45.1188ZM807.673 49.0635C808.776 49.0635 809.48 48.4917 809.48 47.6506C809.48 46.7804 808.718 46.1423 807.673 46.1423C806.621 46.1423 805.854 46.7804 805.867 47.6506C805.854 48.4876 806.555 49.0635 807.673 49.0635ZM819.123 40.4945H820.238V45.8398H819.123V40.4945ZM817.255 43.2086C817.246 44.5843 816.082 45.5456 814.503 45.5456C812.904 45.5456 811.739 44.5843 811.739 43.2086C811.739 41.8287 812.904 40.8591 814.503 40.855C816.082 40.8591 817.246 41.8287 817.255 43.2086ZM812.825 43.2086C812.817 44.0704 813.534 44.6423 814.503 44.6423C815.465 44.6423 816.177 44.0704 816.177 43.2086C816.177 42.3508 815.465 41.7749 814.503 41.779C813.534 41.7749 812.817 42.3508 812.825 43.2086ZM814.445 48.9641V49.971H820.582V50.8619H813.364V48.1354H819.132V47.2072H813.331V46.3246H820.238V48.9641H814.445ZM825.878 47.5594H824.825C824.792 46.1174 825.571 45.4751 826.512 45.4751C827.063 45.4751 827.473 45.6906 828.082 46.2169C828.459 46.5442 828.646 46.6809 828.94 46.6809C829.383 46.6809 829.682 46.3494 829.665 45.6865H830.726C830.759 47.1285 829.964 47.779 829.031 47.779C828.472 47.779 828.057 47.5511 827.461 47.029C827.071 46.6975 826.897 46.5649 826.607 46.5649C826.18 46.5649 825.861 46.8467 825.878 47.5594ZM836.748 41.5138H838.008V50H836.715V42.8066H836.665L834.639 44.1285V42.8978L836.748 41.5138ZM842.848 41.3978C844.402 41.4102 846.039 42.3467 846.043 45.4544C846.043 48.4296 844.763 50.116 842.728 50.116C841.166 50.116 840.072 49.1506 839.873 47.7749H841.145C841.323 48.4876 841.87 48.989 842.728 48.989C844.033 48.989 844.804 47.8453 844.812 45.9061H844.709C844.249 46.6271 843.453 47.058 842.537 47.058C841.017 47.058 839.798 45.8936 839.798 44.2735C839.798 42.6533 841 41.3854 842.848 41.3978ZM842.848 42.4793C841.821 42.4793 841.046 43.2749 841.054 44.2528C841.058 45.2348 841.792 46.0097 842.823 46.0097C843.843 46.0097 844.638 45.1727 844.638 44.2362C844.638 43.3163 843.884 42.4793 842.848 42.4793ZM854.398 40.4945H855.513V45.8398H854.398V40.4945ZM852.529 43.2086C852.521 44.5843 851.357 45.5456 849.778 45.5456C848.179 45.5456 847.014 44.5843 847.014 43.2086C847.014 41.8287 848.179 40.8591 849.778 40.855C851.357 40.8591 852.521 41.8287 852.529 43.2086ZM848.1 43.2086C848.092 44.0704 848.808 44.6423 849.778 44.6423C850.739 44.6423 851.452 44.0704 851.452 43.2086C851.452 42.3508 850.739 41.7749 849.778 41.779C848.808 41.7749 848.092 42.3508 848.1 43.2086ZM849.72 48.9641V49.971H855.857V50.8619H848.639V48.1354H854.407V47.2072H848.605V46.3246H855.513V48.9641H849.72ZM859.706 46.482C859.706 48.5622 859.151 50.2942 858.094 51.7693H856.946C857.763 50.6754 858.409 48.4503 858.409 46.482C858.409 44.5138 857.763 42.2928 856.946 41.1989H858.094C859.151 42.674 859.706 44.4019 859.706 46.482Z" fill="#8A8A8B"/>
<mask id="path-10-inside-3_2037_5926" fill="white">
<path fill-rule="evenodd" clip-rule="evenodd" d="M161 0C155.477 0 151 4.47715 151 10V60C151 65.5229 155.477 70 161 70H658.821C660.51 70 662.101 69.5813 663.496 68.8419C664.631 68.4563 665.718 67.7982 666.678 66.8341L692.615 40.7823C695.799 37.5847 695.799 32.4153 692.615 29.2177L666.678 3.16584C665.718 2.20181 664.63 1.54367 663.496 1.15806C662.101 0.418738 660.51 0 658.821 0H161Z"/>
</mask>
<path fill-rule="evenodd" clip-rule="evenodd" d="M161 0C155.477 0 151 4.47715 151 10V60C151 65.5229 155.477 70 161 70H658.821C660.51 70 662.101 69.5813 663.496 68.8419C664.631 68.4563 665.718 67.7982 666.678 66.8341L692.615 40.7823C695.799 37.5847 695.799 32.4153 692.615 29.2177L666.678 3.16584C665.718 2.20181 664.63 1.54367 663.496 1.15806C662.101 0.418738 660.51 0 658.821 0H161Z" fill="#41AD95"/>
<path d="M663.496 68.8419L663.174 67.8951L663.099 67.9209L663.028 67.9583L663.496 68.8419ZM666.678 66.8341L665.969 66.1286V66.1286L666.678 66.8341ZM692.615 40.7823L693.324 41.4879L692.615 40.7823ZM692.615 29.2177L693.324 28.5121V28.5121L692.615 29.2177ZM666.678 3.16584L665.969 3.87138V3.87139L666.678 3.16584ZM663.496 1.15806L663.028 2.04168L663.099 2.07913L663.174 2.10486L663.496 1.15806ZM152 10C152 5.02944 156.029 1 161 1V-1C154.925 -1 150 3.92487 150 10H152ZM152 60V10H150V60H152ZM161 69C156.029 69 152 64.9706 152 60H150C150 66.0751 154.925 71 161 71V69ZM658.821 69H161V71H658.821V69ZM663.028 67.9583C661.773 68.6231 660.342 69 658.821 69V71C660.677 71 662.428 70.5394 663.964 69.7255L663.028 67.9583ZM665.969 66.1286C665.117 66.984 664.162 67.5593 663.174 67.8951L663.818 69.7887C665.099 69.3533 666.319 68.6123 667.386 67.5397L665.969 66.1286ZM691.906 40.0768L665.969 66.1286L667.386 67.5397L693.324 41.4879L691.906 40.0768ZM691.906 29.9232C694.702 32.7307 694.702 37.2693 691.906 40.0768L693.324 41.4879C696.896 37.9001 696.896 32.0999 693.324 28.5121L691.906 29.9232ZM665.969 3.87139L691.906 29.9232L693.324 28.5121L667.386 2.4603L665.969 3.87139ZM663.174 2.10486C664.162 2.44066 665.117 3.01593 665.969 3.87138L667.386 2.4603C666.319 1.38768 665.099 0.646677 663.818 0.211262L663.174 2.10486ZM658.821 1C660.342 1 661.773 1.37693 663.028 2.04168L663.964 0.274447C662.428 -0.539451 660.677 -1 658.821 -1V1ZM161 1H658.821V-1H161V1Z" fill="#17BF98" mask="url(#path-10-inside-3_2037_5926)"/>
<path d="M370.884 27.5304V30.1657H376.431V31.7845H363.425V30.1657H368.912V27.5304H364.801V20.1215H366.801V22.337H373V20.1215H374.989V27.5304H370.884ZM373 23.9171H366.801V25.9392H373V23.9171ZM388.077 28.6022L386.066 28.3923C386.608 25.7017 386.635 23.7017 386.646 22.0331H378.271V20.4475H388.646V21.7956C388.641 23.5746 388.641 25.5746 388.077 28.6022ZM383.552 25.1878V30.0773H389.906V31.6961H376.934V30.0773H381.574V25.1878H383.552ZM400.464 23.6906V19.2099H402.436V33.4751H400.464V25.2983H397.679V23.6906H400.464ZM395.823 20.3094V22.4365C395.817 25.1105 396.895 27.7127 399.259 28.7348L398.055 30.3204C396.469 29.558 395.409 28.1436 394.817 26.3867C394.204 28.2486 393.11 29.779 391.486 30.5801L390.237 28.9613C392.668 27.8564 393.784 25.1105 393.795 22.4365V20.3094H395.823ZM421.088 33.442V19.2099H423.005V33.442H421.088ZM415.58 24.4088H418.138V19.4641H419.994V32.7901H418.138V26.0387H415.58V24.4088ZM413.066 22.4254V28.6133C414.585 28.6022 415.74 28.5193 417.072 28.2431L417.221 29.8785C415.618 30.1989 414.188 30.2652 412.099 30.2652H411.116V20.8232H416.558V22.4254H413.066ZM434.077 19.2099H436.093V33.4751H434.077V19.2099ZM428.37 20.2155C430.519 20.2155 432.11 22.1823 432.116 25.2762C432.11 28.4033 430.519 30.3591 428.37 30.3591C426.193 30.3591 424.602 28.4033 424.607 25.2762C424.602 22.1823 426.193 20.2155 428.37 20.2155ZM428.37 22.0166C427.265 22.0166 426.524 23.1713 426.535 25.2762C426.524 27.4033 427.265 28.5525 428.37 28.5525C429.453 28.5525 430.187 27.4033 430.187 25.2762C430.187 23.1713 429.453 22.0166 428.37 22.0166ZM447.723 24.2431V19.2099H449.696V33.4751H447.723V25.8398H445.226V24.2431H447.723ZM440.342 25.9392V28.6243C442.314 28.6077 443.889 28.5359 445.657 28.2597L445.856 29.8564C443.778 30.1713 441.917 30.2431 439.48 30.2486H438.347V20.4088H444.999V22.0166H440.342V24.3757H444.48V25.9392H440.342ZM461.068 22.8232C460.14 24.3646 458.328 25.5193 455.864 25.8729L455.079 24.2652C458.311 23.8619 460.019 22.0055 460.024 20.326V19.6354H462.118V20.326C462.118 22.0055 463.831 23.8619 467.085 24.2652L466.306 25.8729C463.82 25.5193 461.997 24.3646 461.068 22.8232ZM454.577 26.9503H467.549V28.5746H462.008V33.442H460.035V28.5746H454.577V26.9503ZM477.985 26.9337V19.2099H479.985V26.9337H477.985ZM472.626 24.0663C471.985 25.4144 470.82 26.4807 469.135 26.9945L468.123 25.4365C470.394 24.7901 471.488 23.2044 471.593 21.5912H468.665V20.0055H476.483V21.5912H473.626C473.731 23.105 474.814 24.5967 477.03 25.1989L476.035 26.7514C474.411 26.2818 473.273 25.3094 472.626 24.0663ZM472.438 28.8619H477.996V27.5249H479.985V33.2818H470.477V27.5249H472.438V28.8619ZM472.438 31.6851H477.996V30.3978H472.438V31.6851Z" fill="white"/>
<path d="M368.184 42.9061C367.5 44.1492 365.996 45.0359 364.289 45.3094L363.841 44.4019C365.901 44.1243 367.599 42.8315 367.599 41.4185V40.8467H368.76V41.4185C368.76 42.8149 370.463 44.1243 372.53 44.4019L372.087 45.3094C370.372 45.0359 368.867 44.1409 368.184 42.9061ZM363.39 46.3412H372.961V47.261H368.698V50.9945H367.604V47.261H363.39V46.3412ZM381.116 46.1796V40.4945H382.231V46.1796H381.116ZM376.852 43.826C376.384 44.9282 375.443 45.7983 374.184 46.2127L373.616 45.3384C375.257 44.837 376.276 43.5525 376.284 42.1727V42.0566H373.923V41.1575H379.719V42.0566H377.407V42.1727C377.407 43.4779 378.427 44.6878 380.043 45.1602L379.483 46.0304C378.257 45.6533 377.329 44.8536 376.852 43.826ZM376.446 47.8453H381.124V46.6727H382.231V50.8619H375.356V46.6727H376.446V47.8453ZM376.446 49.9586H381.124V48.7196H376.446V49.9586ZM393.937 40.5028H395.051V48.1685H393.937V40.5028ZM389.685 44.4309C389.213 45.5746 388.281 46.4779 387.029 46.9213L386.453 46.0387C388.09 45.4834 389.097 44.1243 389.105 42.6823V42.2307H386.743V41.3315H392.54V42.2307H390.228V42.6823C390.228 44.0497 391.231 45.326 392.855 45.8356L392.288 46.7099C391.078 46.3122 390.162 45.4834 389.685 44.4309ZM389.3 47.4475V49.8674H395.358V50.779H388.181V47.4475H389.3ZM404.366 44.1865H403.148V46.7555H402.108V40.6975H403.148V43.2707H404.366V40.4945H405.419V47.1202H404.366V44.1865ZM399.63 41.6961H401.722V42.5746H396.414V41.6961H398.528V40.5773H399.63V41.6961ZM401.35 44.8743C401.341 45.9599 400.413 46.6685 399.075 46.6685C397.757 46.6685 396.821 45.9599 396.825 44.8743C396.821 43.7762 397.757 43.0635 399.075 43.0635C400.413 43.0635 401.341 43.7762 401.35 44.8743ZM397.815 44.8743C397.815 45.4669 398.329 45.8605 399.075 45.8564C399.829 45.8605 400.338 45.4669 400.343 44.8743C400.338 44.2693 399.829 43.8798 399.075 43.8798C398.329 43.8798 397.815 44.2693 397.815 44.8743ZM401.913 47.2735C404.138 47.2735 405.477 47.9448 405.477 49.134C405.477 50.3066 404.138 50.9779 401.913 50.9779C399.684 50.9779 398.341 50.3066 398.35 49.134C398.341 47.9448 399.684 47.2735 401.913 47.2735ZM401.913 50.1202C403.475 50.1285 404.362 49.768 404.366 49.134C404.362 48.471 403.475 48.1188 401.913 48.1271C400.347 48.1188 399.448 48.471 399.456 49.134C399.448 49.768 400.347 50.1285 401.913 50.1202ZM410.18 44.8039L409.795 43.9254C411.684 43.7348 413.176 42.8771 413.325 41.8619H410.168V40.971H418.003V41.8619H414.829C414.966 42.8812 416.445 43.7348 418.376 43.9254L417.974 44.8039C416.151 44.6008 414.647 43.8343 414.071 42.7196C413.499 43.8301 412.003 44.6008 410.18 44.8039ZM418.865 45.3591V46.2666H414.622V47.2693C416.549 47.3729 417.688 48.0235 417.697 49.1215C417.688 50.3108 416.329 50.9779 414.067 50.9779C411.788 50.9779 410.424 50.3108 410.424 49.1215C410.424 48.0235 411.572 47.3729 413.52 47.2693V46.2666H409.293V45.3591H418.865ZM416.586 49.1215C416.578 48.4751 415.654 48.1146 414.067 48.1064C412.463 48.1146 411.547 48.4751 411.556 49.1215C411.547 49.7597 412.463 50.1285 414.067 50.1202C415.654 50.1285 416.578 49.7597 416.586 49.1215ZM422.847 46.482C422.847 44.4019 423.403 42.674 424.459 41.1989H425.607C424.791 42.2928 424.144 44.5138 424.144 46.482C424.144 48.4503 424.791 50.6754 425.607 51.7693H424.459C423.403 50.2942 422.847 48.5622 422.847 46.482ZM432.225 50H426.524L426.519 49.0635L429.461 46.0925C430.394 45.1271 430.858 44.5925 430.862 43.8467C430.858 43.0097 430.178 42.4793 429.287 42.4793C428.347 42.4793 427.746 43.0718 427.746 43.9793H426.519C426.515 42.4254 427.696 41.3978 429.312 41.3978C430.949 41.3978 432.08 42.4337 432.089 43.8094C432.08 44.7583 431.633 45.5166 430.042 47.0787L428.318 48.8315V48.8936H432.225V50ZM440.655 40.4945H441.77V45.8398H440.655V40.4945ZM438.786 43.2086C438.778 44.5843 437.614 45.5456 436.035 45.5456C434.436 45.5456 433.271 44.5843 433.271 43.2086C433.271 41.8287 434.436 40.8591 436.035 40.855C437.614 40.8591 438.778 41.8287 438.786 43.2086ZM434.357 43.2086C434.348 44.0704 435.065 44.6423 436.035 44.6423C436.996 44.6423 437.709 44.0704 437.709 43.2086C437.709 42.3508 436.996 41.7749 436.035 41.779C435.065 41.7749 434.348 42.3508 434.357 43.2086ZM435.977 48.9641V49.971H442.114V50.8619H434.895V48.1354H440.663V47.2072H434.862V46.3246H441.77V48.9641H435.977ZM447.41 47.5594H446.357C446.324 46.1174 447.103 45.4751 448.044 45.4751C448.595 45.4751 449.005 45.6906 449.614 46.2169C449.991 46.5442 450.178 46.6809 450.472 46.6809C450.915 46.6809 451.213 46.3494 451.197 45.6865H452.258C452.291 47.1285 451.495 47.779 450.563 47.779C450.004 47.779 449.589 47.5511 448.992 47.029C448.603 46.6975 448.429 46.5649 448.139 46.5649C447.712 46.5649 447.393 46.8467 447.41 47.5594ZM458.28 41.5138H459.539V50H458.246V42.8066H458.197L456.171 44.1285V42.8978L458.28 41.5138ZM463.095 50H461.749L465.536 42.6823V42.6202H461.16V41.5138H466.874V42.6616L463.095 50ZM475.168 40.4945H476.283V45.8398H475.168V40.4945ZM473.299 43.2086C473.291 44.5843 472.127 45.5456 470.548 45.5456C468.949 45.5456 467.784 44.5843 467.784 43.2086C467.784 41.8287 468.949 40.8591 470.548 40.855C472.127 40.8591 473.291 41.8287 473.299 43.2086ZM468.87 43.2086C468.862 44.0704 469.578 44.6423 470.548 44.6423C471.509 44.6423 472.222 44.0704 472.222 43.2086C472.222 42.3508 471.509 41.7749 470.548 41.779C469.578 41.7749 468.862 42.3508 468.87 43.2086ZM470.49 48.9641V49.971H476.627V50.8619H469.409V48.1354H475.177V47.2072H469.375V46.3246H476.283V48.9641H470.49ZM480.476 46.482C480.476 48.5622 479.921 50.2942 478.864 51.7693H477.716C478.533 50.6754 479.179 48.4503 479.179 46.482C479.179 44.5138 478.533 42.2928 477.716 41.1989H478.864C479.921 42.674 480.476 44.4019 480.476 46.482Z" fill="white"/>
<mask id="path-14-inside-4_2037_5926" fill="white">
<path fill-rule="evenodd" clip-rule="evenodd" d="M10 0C4.47715 0 0 4.47715 0 10V60C0 65.5229 4.47715 70 10 70H164.235C164.718 70 165.193 69.9658 165.658 69.8996C167.716 69.915 169.819 69.1512 171.512 67.4229L197.656 40.7351C200.777 37.5488 200.777 32.4512 197.656 29.2649L171.512 2.57708C169.819 0.848788 167.716 0.0850017 165.658 0.100441C165.193 0.0342456 164.718 0 164.235 0H10Z"/>
</mask>
<path fill-rule="evenodd" clip-rule="evenodd" d="M10 0C4.47715 0 0 4.47715 0 10V60C0 65.5229 4.47715 70 10 70H164.235C164.718 70 165.193 69.9658 165.658 69.8996C167.716 69.915 169.819 69.1512 171.512 67.4229L197.656 40.7351C200.777 37.5488 200.777 32.4512 197.656 29.2649L171.512 2.57708C169.819 0.848788 167.716 0.0850017 165.658 0.100441C165.193 0.0342456 164.718 0 164.235 0H10Z" fill="white"/>
<path d="M165.658 69.8996L165.665 68.8996L165.591 68.899L165.517 68.9095L165.658 69.8996ZM171.512 67.4229L172.227 68.1227L171.512 67.4229ZM197.656 40.7351L198.37 41.4349V41.4349L197.656 40.7351ZM197.656 29.2649L198.37 28.5651L197.656 29.2649ZM171.512 2.57708L172.227 1.8773V1.8773L171.512 2.57708ZM165.658 0.100441L165.517 1.09045L165.59 1.10097L165.665 1.10041L165.658 0.100441ZM1 10C1 5.02944 5.02944 1 10 1V-1C3.92487 -1 -1 3.92487 -1 10H1ZM1 60V10H-1V60H1ZM10 69C5.02943 69 1 64.9706 1 60H-1C-1 66.0751 3.92487 71 10 71V69ZM164.235 69H10V71H164.235V69ZM165.517 68.9095C165.098 68.9691 164.671 69 164.235 69V71C164.765 71 165.287 70.9624 165.799 70.8896L165.517 68.9095ZM170.798 66.7231C169.302 68.25 167.463 68.913 165.665 68.8996L165.65 70.8995C167.969 70.9169 170.336 70.0524 172.227 68.1227L170.798 66.7231ZM196.941 40.0353L170.798 66.7231L172.227 68.1227L198.37 41.4349L196.941 40.0353ZM196.941 29.9647C199.682 32.7622 199.682 37.2378 196.941 40.0353L198.37 41.4349C201.872 37.8598 201.872 32.1402 198.37 28.5651L196.941 29.9647ZM170.798 3.27687L196.941 29.9647L198.37 28.5651L172.227 1.8773L170.798 3.27687ZM165.665 1.10041C167.463 1.08693 169.302 1.75002 170.798 3.27687L172.227 1.8773C170.336 -0.0524405 167.969 -0.916925 165.65 -0.899531L165.665 1.10041ZM164.235 1C164.671 1 165.098 1.03089 165.517 1.09045L165.799 -0.889566C165.287 -0.962395 164.765 -1 164.235 -1V1ZM10 1H164.235V-1H10V1Z" fill="#17BF98" mask="url(#path-14-inside-4_2037_5926)"/>
<rect x="25" y="25" width="20" height="20" rx="10" fill="#3CC3AC"/>
<path d="M31.25 35.4409L34.0485 38.1382L37.2499 35.1292L40 32.5" stroke="white" stroke-width="1.875" stroke-linecap="round"/>
<path d="M62.884 27.5304V30.1657H68.4309V31.7845H55.4254V30.1657H60.9116V27.5304H56.8011V20.1215H58.8011V22.337H65V20.1215H66.989V27.5304H62.884ZM65 23.9171H58.8011V25.9392H65V23.9171ZM80.0772 28.6022L78.0661 28.3923C78.6076 25.7017 78.6352 23.7017 78.6462 22.0331H70.2706V20.4475H80.6462V21.7956C80.6407 23.5746 80.6407 25.5746 80.0772 28.6022ZM75.5523 25.1878V30.0773H81.9059V31.6961H68.9335V30.0773H73.5744V25.1878H75.5523ZM92.4638 23.6906V19.2099H94.4361V33.4751H92.4638V25.2983H89.6792V23.6906H92.4638ZM87.8229 20.3094V22.4365C87.8174 25.1105 88.8947 27.7127 91.2593 28.7348L90.0549 30.3204C88.4693 29.558 87.4085 28.1436 86.8174 26.3867C86.2041 28.2486 85.1102 29.779 83.4859 30.5801L82.2372 28.9613C84.6682 27.8564 85.7842 25.1105 85.7953 22.4365V20.3094H87.8229ZM109.643 24.3204H108.45V27.4807H106.599V19.4807H108.45V22.7017H109.643V19.232H111.533V27.9282H109.643V24.3204ZM102.925 24.6961C102.406 25.9227 101.516 26.9503 100.19 27.5028L99.1184 25.9613C101.118 25.0884 101.92 23.337 101.925 21.7569V20.0829H103.864V21.7569C103.859 23.2873 104.66 24.8066 106.544 25.5249L105.483 27.0497C104.268 26.5856 103.433 25.7403 102.925 24.6961ZM106.671 28.1215C109.671 28.1215 111.599 29.116 111.605 30.7735C111.599 32.4309 109.671 33.442 106.671 33.4365C103.66 33.442 101.743 32.4309 101.754 30.7735C101.743 29.116 103.66 28.1215 106.671 28.1215ZM106.671 31.9337C108.522 31.9392 109.594 31.547 109.599 30.7735C109.594 30.011 108.522 29.6077 106.671 29.6133C104.809 29.6077 103.737 30.011 103.743 30.7735C103.737 31.547 104.809 31.9392 106.671 31.9337ZM124.809 27.5525H122.82V23.453H120.151V21.8232H122.82V19.2099H124.809V27.5525ZM117.234 24.2928C116.599 25.7735 115.455 26.9392 113.748 27.5138L112.687 25.9227C115.129 25.1381 116.173 23.232 116.185 21.2431V19.9558H118.196V21.1492C118.185 23.0552 119.168 24.8122 121.455 25.5193L120.394 27.0773C118.864 26.5525 117.831 25.5691 117.234 24.2928ZM119.947 27.9171C122.986 27.9171 124.842 28.9392 124.848 30.6851C124.842 32.442 122.986 33.442 119.947 33.4365C116.919 33.442 115.057 32.442 115.063 30.6851C115.057 28.9392 116.919 27.9171 119.947 27.9171ZM119.947 31.884C121.836 31.8895 122.864 31.4751 122.87 30.6851C122.864 29.8729 121.836 29.4641 119.947 29.4641C118.063 29.4641 117.041 29.8729 117.046 30.6851C117.041 31.4751 118.063 31.8895 119.947 31.884Z" fill="black"/>
<path d="M63.2831 44.1533H62.0566V46.6312H61.0207V40.6975H62.0566V43.2376H63.2831V40.5028H64.3356V46.9669H63.2831V44.1533ZM60.6975 45.3301L60.105 46.1878C59.1312 45.8149 58.4475 45.0981 58.0704 44.2362C57.6851 45.2099 56.9682 46.0594 55.9489 46.4945L55.3439 45.6326C56.761 45.011 57.5193 43.6809 57.5193 42.5124V41.1492H58.5967V42.5124C58.5967 43.6602 59.3301 44.8204 60.6975 45.3301ZM60.8301 47.1699C63.0138 47.1699 64.3936 47.8743 64.3936 49.076C64.3936 50.2693 63.0138 50.9779 60.8301 50.9779C58.6298 50.9779 57.2583 50.2693 57.2666 49.076C57.2583 47.8743 58.6298 47.1699 60.8301 47.1699ZM60.8301 50.1202C62.3467 50.1285 63.279 49.7431 63.2831 49.076C63.279 48.4047 62.3467 48.0152 60.8301 48.0152C59.297 48.0152 58.3646 48.4047 58.3729 49.076C58.3646 49.7431 59.297 50.1285 60.8301 50.1202ZM74.272 46.6934H73.1615V43.5483H70.9488V42.6326H73.1615V40.4945H74.272V46.6934ZM68.7195 43.9586C68.2637 45.1602 67.3479 46.0967 66.0758 46.5566L65.4792 45.6616C67.1573 45.0898 68.1311 43.6934 68.1394 42.1188V41.0787H69.2499V42.0732C69.2416 43.5359 70.1946 44.8494 71.7858 45.3674L71.1808 46.2376C70.0247 45.8191 69.1753 45.011 68.7195 43.9586ZM70.754 46.9834C72.9543 46.9834 74.301 47.721 74.3051 48.9931C74.301 50.261 72.9543 50.9779 70.754 50.9779C68.5496 50.9779 67.1988 50.261 67.2071 48.9931C67.1988 47.721 68.5496 46.9834 70.754 46.9834ZM70.754 50.0994C72.2872 50.0994 73.1988 49.6934 73.2029 48.9931C73.1988 48.268 72.2872 47.8577 70.754 47.8577C69.2167 47.8577 68.301 48.268 68.3093 48.9931C68.301 49.6934 69.2167 50.0994 70.754 50.0994ZM86.5997 40.5028V43.9751H88.0955V44.9116H86.5997V48.5331H85.4892V40.5028H86.5997ZM84.8428 45.7735L84.9298 46.5939C82.7254 46.9917 80.2475 47.029 78.4491 47.029L78.3248 46.1257C79.108 46.1257 80.0278 46.1215 80.9933 46.0884V45.1064C79.7419 44.9323 78.9049 44.145 78.9132 43.0594C78.9049 41.808 79.9864 40.9669 81.5237 40.9669C83.061 40.9669 84.1425 41.808 84.1508 43.0594C84.1425 44.1285 83.3262 44.9116 82.108 45.0981V46.0387C83.0361 45.9848 83.9726 45.9019 84.8428 45.7735ZM79.9491 43.0594C79.9408 43.8052 80.5997 44.2901 81.5237 44.2983C82.4602 44.2901 83.0941 43.8052 83.1024 43.0594C83.0941 42.3011 82.4602 41.8204 81.5237 41.8163C80.5997 41.8204 79.9408 42.3011 79.9491 43.0594ZM79.8082 47.8287H80.927V49.855H86.9767V50.7707H79.8082V47.8287ZM95.5581 46.9503V48.8108H98.0816V49.7348H88.4725V48.8108H91.0954V46.9503H89.641V43.6105H95.8067V42.1478H89.6203V41.2403H96.9048V44.518H90.7473V46.0387H97.1493V46.9503H95.5581ZM94.4642 46.9503H92.1769V48.8108H94.4642V46.9503ZM102.027 46.482C102.027 44.4019 102.582 42.674 103.639 41.1989H104.786C103.97 42.2928 103.324 44.5138 103.324 46.482C103.324 48.4503 103.97 50.6754 104.786 51.7693H103.639C102.582 50.2942 102.027 48.5622 102.027 46.482ZM107.663 41.5138H108.922V50H107.63V42.8066H107.58L105.554 44.1285V42.8978L107.663 41.5138ZM118.077 40.4945H119.191V45.8398H118.077V40.4945ZM116.208 43.2086C116.199 44.5843 115.035 45.5456 113.456 45.5456C111.857 45.5456 110.693 44.5843 110.693 43.2086C110.693 41.8287 111.857 40.8591 113.456 40.855C115.035 40.8591 116.199 41.8287 116.208 43.2086ZM111.778 43.2086C111.77 44.0704 112.487 44.6423 113.456 44.6423C114.418 44.6423 115.13 44.0704 115.13 43.2086C115.13 42.3508 114.418 41.7749 113.456 41.779C112.487 41.7749 111.77 42.3508 111.778 43.2086ZM113.398 48.9641V49.971H119.535V50.8619H112.317V48.1354H118.085V47.2072H112.284V46.3246H119.191V48.9641H113.398ZM123.384 46.482C123.384 48.5622 122.829 50.2942 121.773 51.7693H120.625C121.441 50.6754 122.087 48.4503 122.087 46.482C122.087 44.5138 121.441 42.2928 120.625 41.1989H121.773C122.829 42.674 123.384 44.4019 123.384 46.482Z" fill="#8A8A8B"/>
</svg>
