<svg width="1182" height="70" viewBox="0 0 1182 70" fill="none" xmlns="http://www.w3.org/2000/svg">
<rect x="0.5" y="0.5" width="1181" height="69" rx="9.5" fill="#F6F6F6" stroke="#DEDEDE"/>
<mask id="path-2-inside-1_2037_5987" fill="white">
<path d="M948 10C948 4.47715 952.477 0 958 0H1172C1177.52 0 1182 4.47715 1182 10V60C1182 65.5229 1177.52 70 1172 70H958C952.477 70 948 65.5229 948 60V10Z"/>
</mask>
<path d="M948 10C948 4.47715 952.477 0 958 0H1172C1177.52 0 1182 4.47715 1182 10V60C1182 65.5229 1177.52 70 1172 70H958C952.477 70 948 65.5229 948 60V10Z" fill="#F6F6F6"/>
<path d="M958 1H1172V-1H958V1ZM1181 10V60H1183V10H1181ZM1172 69H958V71H1172V69ZM949 60V10H947V60H949ZM958 69C953.029 69 949 64.9706 949 60H947C947 66.0751 951.925 71 958 71V69ZM1181 60C1181 64.9706 1176.97 69 1172 69V71C1178.08 71 1183 66.0751 1183 60H1181ZM1172 1C1176.97 1 1181 5.02944 1181 10H1183C1183 3.92487 1178.08 -1 1172 -1V1ZM958 -1C951.925 -1 947 3.92487 947 10H949C949 5.02944 953.029 1 958 1V-1Z" fill="#DEDEDE" mask="url(#path-2-inside-1_2037_5987)"/>
<path d="M1039.88 27.5304V30.1657H1045.43V31.7845H1032.43V30.1657H1037.91V27.5304H1033.8V20.1215H1035.8V22.337H1042V20.1215H1043.99V27.5304H1039.88ZM1042 23.9171H1035.8V25.9392H1042V23.9171ZM1057.08 28.6022L1055.07 28.3923C1055.61 25.7017 1055.64 23.7017 1055.65 22.0331H1047.27V20.4475H1057.65V21.7956C1057.64 23.5746 1057.64 25.5746 1057.08 28.6022ZM1052.55 25.1878V30.0773H1058.91V31.6961H1045.93V30.0773H1050.57V25.1878H1052.55ZM1069.46 23.6906V19.2099H1071.44V33.4751H1069.46V25.2983H1066.68V23.6906H1069.46ZM1064.82 20.3094V22.4365C1064.82 25.1105 1065.89 27.7127 1068.26 28.7348L1067.05 30.3204C1065.47 29.558 1064.41 28.1436 1063.82 26.3867C1063.2 28.2486 1062.11 29.779 1060.49 30.5801L1059.24 28.9613C1061.67 27.8564 1062.78 25.1105 1062.8 22.4365V20.3094H1064.82ZM1087.6 19.2099V21.9834H1089.51V23.5967H1087.6V26.4586H1085.6V19.2099H1087.6ZM1081.63 19.8564H1083.62V26.0608H1076.74V19.8564H1078.72V21.5414H1081.63V19.8564ZM1078.72 24.4972H1081.63V23.0387H1078.72V24.4972ZM1087.6 30.8508H1080.15V31.7735H1088.01V33.3425H1078.18V29.4199H1085.61V28.5249H1078.16V26.9834H1087.6V30.8508ZM1096.27 22.3039C1095.36 23.7238 1093.6 24.7403 1091.2 25.0994L1090.49 23.5414C1093.64 23.1547 1095.27 21.5249 1095.27 19.9227V19.453H1097.3V19.9227C1097.3 21.5856 1098.89 23.1547 1102.1 23.5414L1101.33 25.0994C1098.94 24.7403 1097.17 23.7293 1096.27 22.3039ZM1097.28 24.2486V26.0055H1102.8V27.5967H1089.83V26.0055H1095.3V24.2486H1097.28ZM1096.28 28.3812C1099.39 28.3812 1101.23 29.3039 1101.24 30.9171C1101.23 32.5414 1099.39 33.442 1096.28 33.4365C1093.17 33.442 1091.31 32.5414 1091.31 30.9171C1091.31 29.3039 1093.17 28.3812 1096.28 28.3812ZM1096.28 31.9503C1098.23 31.9503 1099.23 31.6188 1099.24 30.9171C1099.23 30.2155 1098.23 29.895 1096.28 29.895C1094.3 29.895 1093.33 30.2155 1093.34 30.9171C1093.33 31.6188 1094.3 31.9503 1096.28 31.9503Z" fill="#8A8A8B"/>
<path d="M1033.33 45.1644L1032.92 44.2859C1034.88 44.0373 1036.38 43.0304 1036.43 41.8909H1033.26V40.9959H1041.1V41.8909H1037.91C1037.96 43.0304 1039.48 44.0373 1041.44 44.2859L1041.01 45.1644C1039.21 44.924 1037.73 44.087 1037.17 42.9061C1036.6 44.087 1035.13 44.924 1033.33 45.1644ZM1032.37 46.7472V45.8398H1041.98V46.7472H1037.82V48.7776H1036.72V46.7472H1032.37ZM1033.57 47.7749H1034.68V49.8674H1040.92V50.779H1033.57V47.7749ZM1050.1 40.4945H1051.22V51.0152H1050.1V40.4945ZM1043.1 41.3688H1044.21V44.0663H1047.05V41.3688H1048.14V48.5041H1043.1V41.3688ZM1044.21 44.9489V47.5843H1047.05V44.9489H1044.21ZM1056.23 44.8039L1055.84 43.9254C1057.73 43.7348 1059.22 42.8771 1059.37 41.8619H1056.22V40.971H1064.05V41.8619H1060.88C1061.01 42.8812 1062.49 43.7348 1064.42 43.9254L1064.02 44.8039C1062.2 44.6008 1060.69 43.8343 1060.12 42.7196C1059.55 43.8301 1058.05 44.6008 1056.23 44.8039ZM1064.91 45.3591V46.2666H1060.67V47.2693C1062.6 47.3729 1063.74 48.0235 1063.74 49.1215C1063.74 50.3108 1062.38 50.9779 1060.11 50.9779C1057.84 50.9779 1056.47 50.3108 1056.47 49.1215C1056.47 48.0235 1057.62 47.3729 1059.57 47.2693V46.2666H1055.34V45.3591H1064.91ZM1062.63 49.1215C1062.63 48.4751 1061.7 48.1146 1060.11 48.1064C1058.51 48.1146 1057.6 48.4751 1057.6 49.1215C1057.6 49.7597 1058.51 50.1285 1060.11 50.1202C1061.7 50.1285 1062.63 49.7597 1062.63 49.1215ZM1068.9 46.482C1068.9 44.4019 1069.45 42.674 1070.51 41.1989H1071.66C1070.84 42.2928 1070.19 44.5138 1070.19 46.482C1070.19 48.4503 1070.84 50.6754 1071.66 51.7693H1070.51C1069.45 50.2942 1068.9 48.5622 1068.9 46.482ZM1078.27 50H1072.57L1072.57 49.0635L1075.51 46.0925C1076.44 45.1271 1076.91 44.5925 1076.91 43.8467C1076.91 43.0097 1076.23 42.4793 1075.34 42.4793C1074.39 42.4793 1073.79 43.0718 1073.79 43.9793H1072.57C1072.56 42.4254 1073.74 41.3978 1075.36 41.3978C1077 41.3978 1078.13 42.4337 1078.14 43.8094C1078.13 44.7583 1077.68 45.5166 1076.09 47.0787L1074.37 48.8315V48.8936H1078.27V50ZM1082.42 50.1367C1080.46 50.1367 1079.3 48.5414 1079.31 45.761C1079.31 42.9972 1080.47 41.3978 1082.42 41.3978C1084.37 41.3978 1085.53 43.0014 1085.53 45.761C1085.53 48.5414 1084.38 50.1367 1082.42 50.1367ZM1082.42 49.0262C1083.57 49.0262 1084.25 47.8785 1084.25 45.761C1084.25 43.6478 1083.56 42.4959 1082.42 42.4959C1081.28 42.4959 1080.59 43.6478 1080.59 45.761C1080.59 47.8785 1081.28 49.0262 1082.42 49.0262ZM1093.87 40.4945H1094.98V45.8398H1093.87V40.4945ZM1092 43.2086C1091.99 44.5843 1090.83 45.5456 1089.25 45.5456C1087.65 45.5456 1086.49 44.5843 1086.49 43.2086C1086.49 41.8287 1087.65 40.8591 1089.25 40.855C1090.83 40.8591 1091.99 41.8287 1092 43.2086ZM1087.57 43.2086C1087.56 44.0704 1088.28 44.6423 1089.25 44.6423C1090.21 44.6423 1090.92 44.0704 1090.92 43.2086C1090.92 42.3508 1090.21 41.7749 1089.25 41.779C1088.28 41.7749 1087.56 42.3508 1087.57 43.2086ZM1089.19 48.9641V49.971H1095.33V50.8619H1088.11V48.1354H1093.88V47.2072H1088.08V46.3246H1094.98V48.9641H1089.19ZM1099.18 46.482C1099.18 48.5622 1098.62 50.2942 1097.57 51.7693H1096.42C1097.23 50.6754 1097.88 48.4503 1097.88 46.482C1097.88 44.5138 1097.23 42.2928 1096.42 41.1989H1097.57C1098.62 42.674 1099.18 44.4019 1099.18 46.482Z" fill="#8A8A8B"/>
<mask id="path-6-inside-2_2037_5987" fill="white">
<path fill-rule="evenodd" clip-rule="evenodd" d="M663 0C657.477 0 653 4.47715 653 10V60C653 65.5229 657.477 70 663 70H949.513C950.927 70 952.272 69.7065 953.492 69.1772C954.74 68.8198 955.943 68.1421 956.997 67.1003L983.57 40.8281C986.815 37.6201 986.815 32.3799 983.57 29.1719L956.997 2.8997C955.943 1.8579 954.74 1.18015 953.492 0.822803C952.272 0.293462 950.927 0 949.513 0H663Z"/>
</mask>
<path fill-rule="evenodd" clip-rule="evenodd" d="M663 0C657.477 0 653 4.47715 653 10V60C653 65.5229 657.477 70 663 70H949.513C950.927 70 952.272 69.7065 953.492 69.1772C954.74 68.8198 955.943 68.1421 956.997 67.1003L983.57 40.8281C986.815 37.6201 986.815 32.3799 983.57 29.1719L956.997 2.8997C955.943 1.8579 954.74 1.18015 953.492 0.822803C952.272 0.293462 950.927 0 949.513 0H663Z" fill="#41AD95"/>
<path d="M953.492 69.1772L953.216 68.2158L953.153 68.2338L953.093 68.2599L953.492 69.1772ZM956.997 67.1003L957.7 67.8114L956.997 67.1003ZM983.57 40.8281L982.867 40.1169V40.1169L983.57 40.8281ZM983.57 29.1719L982.867 29.883V29.8831L983.57 29.1719ZM956.997 2.8997L957.7 2.18857V2.18857L956.997 2.8997ZM953.492 0.822803L953.093 1.74009L953.153 1.76616L953.216 1.78417L953.492 0.822803ZM654 10C654 5.02944 658.029 1 663 1V-1C656.925 -1 652 3.92487 652 10H654ZM654 60V10H652V60H654ZM663 69C658.029 69 654 64.9706 654 60H652C652 66.0751 656.925 71 663 71V69ZM949.513 69H663V71H949.513V69ZM953.093 68.2599C951.997 68.7357 950.787 69 949.513 69V71C951.066 71 952.547 70.6774 953.89 70.0945L953.093 68.2599ZM956.293 66.3892C955.359 67.313 954.303 67.9047 953.216 68.2158L953.767 70.1385C955.176 69.7349 956.527 68.9711 957.7 67.8114L956.293 66.3892ZM982.867 40.1169L956.293 66.3892L957.7 67.8114L984.273 41.5392L982.867 40.1169ZM982.867 29.8831C985.716 32.6996 985.716 37.3004 982.867 40.1169L984.273 41.5392C987.914 37.9398 987.914 32.0602 984.273 28.4608L982.867 29.8831ZM956.293 3.61083L982.867 29.883L984.273 28.4608L957.7 2.18857L956.293 3.61083ZM953.216 1.78417C954.303 2.09528 955.359 2.68691 956.293 3.61083L957.7 2.18857C956.527 1.02888 955.176 0.265012 953.767 -0.138568L953.216 1.78417ZM949.513 1C950.787 1 951.997 1.26429 953.093 1.74009L953.89 -0.0944843C952.547 -0.677361 951.066 -1 949.513 -1V1ZM663 1H949.513V-1H663V1Z" fill="#17BF98" mask="url(#path-6-inside-2_2037_5987)"/>
<path d="M766.884 27.5304V30.1657H772.431V31.7845H759.425V30.1657H764.912V27.5304H760.801V20.1215H762.801V22.337H769V20.1215H770.989V27.5304H766.884ZM769 23.9171H762.801V25.9392H769V23.9171ZM784.077 28.6022L782.066 28.3923C782.608 25.7017 782.635 23.7017 782.646 22.0331H774.271V20.4475H784.646V21.7956C784.641 23.5746 784.641 25.5746 784.077 28.6022ZM779.552 25.1878V30.0773H785.906V31.6961H772.934V30.0773H777.574V25.1878H779.552ZM796.464 23.6906V19.2099H798.436V33.4751H796.464V25.2983H793.679V23.6906H796.464ZM791.823 20.3094V22.4365C791.817 25.1105 792.895 27.7127 795.259 28.7348L794.055 30.3204C792.469 29.558 791.409 28.1436 790.817 26.3867C790.204 28.2486 789.11 29.779 787.486 30.5801L786.237 28.9613C788.668 27.8564 789.784 25.1105 789.795 22.4365V20.3094H791.823ZM817.088 33.442V19.2099H819.005V33.442H817.088ZM811.58 24.4088H814.138V19.4641H815.994V32.7901H814.138V26.0387H811.58V24.4088ZM809.066 22.4254V28.6133C810.585 28.6022 811.74 28.5193 813.072 28.2431L813.221 29.8785C811.618 30.1989 810.188 30.2652 808.099 30.2652H807.116V20.8232H812.558V22.4254H809.066ZM830.077 19.2099H832.093V33.4751H830.077V19.2099ZM824.37 20.2155C826.519 20.2155 828.11 22.1823 828.116 25.2762C828.11 28.4033 826.519 30.3591 824.37 30.3591C822.193 30.3591 820.602 28.4033 820.607 25.2762C820.602 22.1823 822.193 20.2155 824.37 20.2155ZM824.37 22.0166C823.265 22.0166 822.524 23.1713 822.535 25.2762C822.524 27.4033 823.265 28.5525 824.37 28.5525C825.453 28.5525 826.187 27.4033 826.187 25.2762C826.187 23.1713 825.453 22.0166 824.37 22.0166ZM843.723 24.2431V19.2099H845.696V33.4751H843.723V25.8398H841.226V24.2431H843.723ZM836.342 25.9392V28.6243C838.314 28.6077 839.889 28.5359 841.657 28.2597L841.856 29.8564C839.778 30.1713 837.917 30.2431 835.48 30.2486H834.347V20.4088H840.999V22.0166H836.342V24.3757H840.48V25.9392H836.342ZM860.571 22.6077V19.232H862.56V27.1823H860.571V24.2376H858.041V22.6077H860.571ZM857.947 20.0497C857.947 23.768 855.599 26.3425 851.433 27.5028L850.643 25.9503C853.726 25.1215 855.488 23.5525 855.809 21.6354H851.416V20.0497H857.947ZM862.56 33.2652H853.129V27.7514H862.56V33.2652ZM860.582 29.3149H855.085V31.7017H860.582V29.3149ZM865.322 25.2431L864.654 23.6906C867.317 23.442 868.781 22.4751 869.118 21.4751H865.262V19.8674H875.886V21.4751H871.996C872.328 22.4696 873.775 23.442 876.505 23.6906L875.809 25.2431C873.118 24.9889 871.311 23.9779 870.549 22.6022C869.797 23.9724 868.013 24.9889 865.322 25.2431ZM864.085 27.3757V25.768H877.057V27.3757H864.085ZM870.543 28.1713C873.632 28.1713 875.488 29.1381 875.499 30.8066C875.488 32.4917 873.632 33.442 870.543 33.4365C867.438 33.442 865.565 32.4917 865.565 30.8066C865.565 29.1381 867.438 28.1713 870.543 28.1713ZM870.543 31.884C872.477 31.8895 873.494 31.547 873.499 30.8066C873.494 30.0663 872.477 29.7182 870.543 29.7127C868.577 29.7182 867.588 30.0663 867.599 30.8066C867.588 31.547 868.577 31.8895 870.543 31.884Z" fill="white"/>
<path d="M767.03 43.1381V40.5028H768.141V46.453H767.03V44.058H764.855V43.1381H767.03ZM764.818 41.1575C764.809 43.826 762.982 45.7196 759.941 46.5773L759.481 45.7072C761.913 45.0276 763.413 43.7182 763.628 42.0608H760.036V41.1575H764.818ZM768.141 50.8536H761.275V46.8881H768.141V50.8536ZM767.039 47.7707H762.36V49.9627H767.039V47.7707ZM770.407 44.8867L770.022 44.0124C771.924 43.8052 773.424 42.9558 773.557 41.9282H770.395V41.0124H778.231V41.9282H775.052C775.177 42.9475 776.664 43.8052 778.603 44.0124L778.202 44.8867C776.378 44.6796 774.874 43.9171 774.298 42.7983C773.726 43.913 772.231 44.6796 770.407 44.8867ZM769.521 46.3453V45.4378H779.092V46.3453H769.521ZM774.294 47.1533C776.557 47.1533 777.916 47.8536 777.924 49.0718C777.916 50.2942 776.557 50.9779 774.294 50.9779C772.019 50.9779 770.652 50.2942 770.652 49.0718C770.652 47.8536 772.019 47.1533 774.294 47.1533ZM774.294 50.0994C775.881 50.0994 776.805 49.739 776.813 49.0718C776.805 48.3964 775.881 48.0318 774.294 48.0235C772.69 48.0318 771.775 48.3964 771.783 49.0718C771.775 49.739 772.69 50.0994 774.294 50.0994ZM789.937 40.5028H791.051V48.1685H789.937V40.5028ZM785.685 44.4309C785.213 45.5746 784.281 46.4779 783.029 46.9213L782.453 46.0387C784.09 45.4834 785.097 44.1243 785.105 42.6823V42.2307H782.743V41.3315H788.54V42.2307H786.228V42.6823C786.228 44.0497 787.231 45.326 788.855 45.8356L788.288 46.7099C787.078 46.3122 786.162 45.4834 785.685 44.4309ZM785.3 47.4475V49.8674H791.358V50.779H784.181V47.4475H785.3ZM800.366 44.1865H799.148V46.7555H798.108V40.6975H799.148V43.2707H800.366V40.4945H801.419V47.1202H800.366V44.1865ZM795.63 41.6961H797.722V42.5746H792.414V41.6961H794.528V40.5773H795.63V41.6961ZM797.35 44.8743C797.341 45.9599 796.413 46.6685 795.075 46.6685C793.757 46.6685 792.821 45.9599 792.825 44.8743C792.821 43.7762 793.757 43.0635 795.075 43.0635C796.413 43.0635 797.341 43.7762 797.35 44.8743ZM793.815 44.8743C793.815 45.4669 794.329 45.8605 795.075 45.8564C795.829 45.8605 796.338 45.4669 796.343 44.8743C796.338 44.2693 795.829 43.8798 795.075 43.8798C794.329 43.8798 793.815 44.2693 793.815 44.8743ZM797.913 47.2735C800.138 47.2735 801.477 47.9448 801.477 49.134C801.477 50.3066 800.138 50.9779 797.913 50.9779C795.684 50.9779 794.341 50.3066 794.35 49.134C794.341 47.9448 795.684 47.2735 797.913 47.2735ZM797.913 50.1202C799.475 50.1285 800.362 49.768 800.366 49.134C800.362 48.471 799.475 48.1188 797.913 48.1271C796.347 48.1188 795.448 48.471 795.456 49.134C795.448 49.768 796.347 50.1285 797.913 50.1202ZM806.18 44.8039L805.795 43.9254C807.684 43.7348 809.176 42.8771 809.325 41.8619H806.168V40.971H814.003V41.8619H810.829C810.966 42.8812 812.445 43.7348 814.376 43.9254L813.974 44.8039C812.151 44.6008 810.647 43.8343 810.071 42.7196C809.499 43.8301 808.003 44.6008 806.18 44.8039ZM814.865 45.3591V46.2666H810.622V47.2693C812.549 47.3729 813.688 48.0235 813.697 49.1215C813.688 50.3108 812.329 50.9779 810.067 50.9779C807.788 50.9779 806.424 50.3108 806.424 49.1215C806.424 48.0235 807.572 47.3729 809.52 47.2693V46.2666H805.293V45.3591H814.865ZM812.586 49.1215C812.578 48.4751 811.654 48.1146 810.067 48.1064C808.463 48.1146 807.547 48.4751 807.556 49.1215C807.547 49.7597 808.463 50.1285 810.067 50.1202C811.654 50.1285 812.578 49.7597 812.586 49.1215ZM818.847 46.482C818.847 44.4019 819.403 42.674 820.459 41.1989H821.607C820.791 42.2928 820.144 44.5138 820.144 46.482C820.144 48.4503 820.791 50.6754 821.607 51.7693H820.459C819.403 50.2942 818.847 48.5622 818.847 46.482ZM824.484 41.5138H825.743V50H824.45V42.8066H824.401L822.374 44.1285V42.8978L824.484 41.5138ZM830.625 50.116C828.785 50.116 827.497 49.1174 827.505 47.7376C827.497 46.6519 828.28 45.761 829.274 45.5994V45.5539C828.408 45.3633 827.824 44.5843 827.824 43.6602C827.824 42.355 829.005 41.3978 830.625 41.3978C832.229 41.3978 833.41 42.355 833.414 43.6602C833.41 44.5884 832.817 45.3633 831.968 45.5539V45.5994C832.954 45.761 833.737 46.6519 833.745 47.7376C833.737 49.1174 832.444 50.116 830.625 50.116ZM830.625 45.1188C831.512 45.1188 832.158 44.5718 832.158 43.7721C832.158 42.9848 831.533 42.4503 830.625 42.4503C829.697 42.4503 829.084 42.9848 829.084 43.7721C829.084 44.5718 829.722 45.1188 830.625 45.1188ZM830.625 49.0635C831.727 49.0635 832.432 48.4917 832.432 47.6506C832.432 46.7804 831.669 46.1423 830.625 46.1423C829.573 46.1423 828.806 46.7804 828.819 47.6506C828.806 48.4876 829.506 49.0635 830.625 49.0635ZM842.075 40.4945H843.19V45.8398H842.075V40.4945ZM840.206 43.2086C840.198 44.5843 839.034 45.5456 837.455 45.5456C835.856 45.5456 834.691 44.5843 834.691 43.2086C834.691 41.8287 835.856 40.8591 837.455 40.855C839.034 40.8591 840.198 41.8287 840.206 43.2086ZM835.777 43.2086C835.769 44.0704 836.485 44.6423 837.455 44.6423C838.416 44.6423 839.129 44.0704 839.129 43.2086C839.129 42.3508 838.416 41.7749 837.455 41.779C836.485 41.7749 835.769 42.3508 835.777 43.2086ZM837.397 48.9641V49.971H843.534V50.8619H836.316V48.1354H842.084V47.2072H836.282V46.3246H843.19V48.9641H837.397ZM848.83 47.5594H847.777C847.744 46.1174 848.523 45.4751 849.464 45.4751C850.015 45.4751 850.425 45.6906 851.034 46.2169C851.411 46.5442 851.598 46.6809 851.892 46.6809C852.335 46.6809 852.634 46.3494 852.617 45.6865H853.678C853.711 47.1285 852.915 47.779 851.983 47.779C851.424 47.779 851.009 47.5511 850.413 47.029C850.023 46.6975 849.849 46.5649 849.559 46.5649C849.132 46.5649 848.813 46.8467 848.83 47.5594ZM859.7 41.5138H860.959V50H859.667V42.8066H859.617L857.591 44.1285V42.8978L859.7 41.5138ZM865.8 41.3978C867.354 41.4102 868.991 42.3467 868.995 45.4544C868.995 48.4296 867.714 50.116 865.68 50.116C864.118 50.116 863.024 49.1506 862.825 47.7749H864.097C864.275 48.4876 864.822 48.989 865.68 48.989C866.985 48.989 867.756 47.8453 867.764 45.9061H867.661C867.201 46.6271 866.405 47.058 865.489 47.058C863.969 47.058 862.75 45.8936 862.75 44.2735C862.75 42.6533 863.952 41.3854 865.8 41.3978ZM865.8 42.4793C864.772 42.4793 863.998 43.2749 864.006 44.2528C864.01 45.2348 864.743 46.0097 865.775 46.0097C866.794 46.0097 867.59 45.1727 867.59 44.2362C867.59 43.3163 866.836 42.4793 865.8 42.4793ZM877.35 40.4945H878.465V45.8398H877.35V40.4945ZM875.481 43.2086C875.473 44.5843 874.309 45.5456 872.73 45.5456C871.131 45.5456 869.966 44.5843 869.966 43.2086C869.966 41.8287 871.131 40.8591 872.73 40.855C874.309 40.8591 875.473 41.8287 875.481 43.2086ZM871.052 43.2086C871.043 44.0704 871.76 44.6423 872.73 44.6423C873.691 44.6423 874.404 44.0704 874.404 43.2086C874.404 42.3508 873.691 41.7749 872.73 41.779C871.76 41.7749 871.043 42.3508 871.052 43.2086ZM872.672 48.9641V49.971H878.809V50.8619H871.59V48.1354H877.358V47.2072H871.557V46.3246H878.465V48.9641H872.672ZM882.658 46.482C882.658 48.5622 882.103 50.2942 881.046 51.7693H879.898C880.715 50.6754 881.361 48.4503 881.361 46.482C881.361 44.5138 880.715 42.2928 879.898 41.1989H881.046C882.103 42.674 882.658 44.4019 882.658 46.482Z" fill="white"/>
<mask id="path-10-inside-3_2037_5987" fill="white">
<path fill-rule="evenodd" clip-rule="evenodd" d="M161 0C155.477 0 151 4.47715 151 10V60C151 65.5229 155.477 70 161 70H658.821C660.51 70 662.101 69.5813 663.496 68.8419C664.631 68.4563 665.718 67.7982 666.678 66.8341L692.615 40.7823C695.799 37.5847 695.799 32.4153 692.615 29.2177L666.678 3.16584C665.718 2.20181 664.63 1.54367 663.496 1.15806C662.101 0.418738 660.51 0 658.821 0H161Z"/>
</mask>
<path fill-rule="evenodd" clip-rule="evenodd" d="M161 0C155.477 0 151 4.47715 151 10V60C151 65.5229 155.477 70 161 70H658.821C660.51 70 662.101 69.5813 663.496 68.8419C664.631 68.4563 665.718 67.7982 666.678 66.8341L692.615 40.7823C695.799 37.5847 695.799 32.4153 692.615 29.2177L666.678 3.16584C665.718 2.20181 664.63 1.54367 663.496 1.15806C662.101 0.418738 660.51 0 658.821 0H161Z" fill="white"/>
<path d="M663.496 68.8419L663.174 67.8951L663.099 67.9209L663.028 67.9583L663.496 68.8419ZM666.678 66.8341L665.969 66.1286V66.1286L666.678 66.8341ZM692.615 40.7823L693.324 41.4879L692.615 40.7823ZM692.615 29.2177L693.324 28.5121V28.5121L692.615 29.2177ZM666.678 3.16584L665.969 3.87138V3.87139L666.678 3.16584ZM663.496 1.15806L663.028 2.04168L663.099 2.07913L663.174 2.10486L663.496 1.15806ZM152 10C152 5.02944 156.029 1 161 1V-1C154.925 -1 150 3.92487 150 10H152ZM152 60V10H150V60H152ZM161 69C156.029 69 152 64.9706 152 60H150C150 66.0751 154.925 71 161 71V69ZM658.821 69H161V71H658.821V69ZM663.028 67.9583C661.773 68.6231 660.342 69 658.821 69V71C660.677 71 662.428 70.5394 663.964 69.7255L663.028 67.9583ZM665.969 66.1286C665.117 66.984 664.162 67.5593 663.174 67.8951L663.818 69.7887C665.099 69.3533 666.319 68.6123 667.386 67.5397L665.969 66.1286ZM691.906 40.0768L665.969 66.1286L667.386 67.5397L693.324 41.4879L691.906 40.0768ZM691.906 29.9232C694.702 32.7307 694.702 37.2693 691.906 40.0768L693.324 41.4879C696.896 37.9001 696.896 32.0999 693.324 28.5121L691.906 29.9232ZM665.969 3.87139L691.906 29.9232L693.324 28.5121L667.386 2.4603L665.969 3.87139ZM663.174 2.10486C664.162 2.44066 665.117 3.01593 665.969 3.87138L667.386 2.4603C666.319 1.38768 665.099 0.646677 663.818 0.211262L663.174 2.10486ZM658.821 1C660.342 1 661.773 1.37693 663.028 2.04168L663.964 0.274447C662.428 -0.539451 660.677 -1 658.821 -1V1ZM161 1H658.821V-1H161V1Z" fill="#17BF98" mask="url(#path-10-inside-3_2037_5987)"/>
<path d="M370.884 27.5304V30.1657H376.431V31.7845H363.425V30.1657H368.912V27.5304H364.801V20.1215H366.801V22.337H373V20.1215H374.989V27.5304H370.884ZM373 23.9171H366.801V25.9392H373V23.9171ZM388.077 28.6022L386.066 28.3923C386.608 25.7017 386.635 23.7017 386.646 22.0331H378.271V20.4475H388.646V21.7956C388.641 23.5746 388.641 25.5746 388.077 28.6022ZM383.552 25.1878V30.0773H389.906V31.6961H376.934V30.0773H381.574V25.1878H383.552ZM400.464 23.6906V19.2099H402.436V33.4751H400.464V25.2983H397.679V23.6906H400.464ZM395.823 20.3094V22.4365C395.817 25.1105 396.895 27.7127 399.259 28.7348L398.055 30.3204C396.469 29.558 395.409 28.1436 394.817 26.3867C394.204 28.2486 393.11 29.779 391.486 30.5801L390.237 28.9613C392.668 27.8564 393.784 25.1105 393.795 22.4365V20.3094H395.823ZM421.088 33.442V19.2099H423.005V33.442H421.088ZM415.58 24.4088H418.138V19.4641H419.994V32.7901H418.138V26.0387H415.58V24.4088ZM413.066 22.4254V28.6133C414.585 28.6022 415.74 28.5193 417.072 28.2431L417.221 29.8785C415.618 30.1989 414.188 30.2652 412.099 30.2652H411.116V20.8232H416.558V22.4254H413.066ZM434.077 19.2099H436.093V33.4751H434.077V19.2099ZM428.37 20.2155C430.519 20.2155 432.11 22.1823 432.116 25.2762C432.11 28.4033 430.519 30.3591 428.37 30.3591C426.193 30.3591 424.602 28.4033 424.607 25.2762C424.602 22.1823 426.193 20.2155 428.37 20.2155ZM428.37 22.0166C427.265 22.0166 426.524 23.1713 426.535 25.2762C426.524 27.4033 427.265 28.5525 428.37 28.5525C429.453 28.5525 430.187 27.4033 430.187 25.2762C430.187 23.1713 429.453 22.0166 428.37 22.0166ZM447.723 24.2431V19.2099H449.696V33.4751H447.723V25.8398H445.226V24.2431H447.723ZM440.342 25.9392V28.6243C442.314 28.6077 443.889 28.5359 445.657 28.2597L445.856 29.8564C443.778 30.1713 441.917 30.2431 439.48 30.2486H438.347V20.4088H444.999V22.0166H440.342V24.3757H444.48V25.9392H440.342ZM461.068 22.8232C460.14 24.3646 458.328 25.5193 455.864 25.8729L455.079 24.2652C458.311 23.8619 460.019 22.0055 460.024 20.326V19.6354H462.118V20.326C462.118 22.0055 463.831 23.8619 467.085 24.2652L466.306 25.8729C463.82 25.5193 461.997 24.3646 461.068 22.8232ZM454.577 26.9503H467.549V28.5746H462.008V33.442H460.035V28.5746H454.577V26.9503ZM477.985 26.9337V19.2099H479.985V26.9337H477.985ZM472.626 24.0663C471.985 25.4144 470.82 26.4807 469.135 26.9945L468.123 25.4365C470.394 24.7901 471.488 23.2044 471.593 21.5912H468.665V20.0055H476.483V21.5912H473.626C473.731 23.105 474.814 24.5967 477.03 25.1989L476.035 26.7514C474.411 26.2818 473.273 25.3094 472.626 24.0663ZM472.438 28.8619H477.996V27.5249H479.985V33.2818H470.477V27.5249H472.438V28.8619ZM472.438 31.6851H477.996V30.3978H472.438V31.6851Z" fill="black"/>
<path d="M368.184 42.9061C367.5 44.1492 365.996 45.0359 364.289 45.3094L363.841 44.4019C365.901 44.1243 367.599 42.8315 367.599 41.4185V40.8467H368.76V41.4185C368.76 42.8149 370.463 44.1243 372.53 44.4019L372.087 45.3094C370.372 45.0359 368.867 44.1409 368.184 42.9061ZM363.39 46.3412H372.961V47.261H368.698V50.9945H367.604V47.261H363.39V46.3412ZM381.116 46.1796V40.4945H382.231V46.1796H381.116ZM376.852 43.826C376.384 44.9282 375.443 45.7983 374.184 46.2127L373.616 45.3384C375.257 44.837 376.276 43.5525 376.284 42.1727V42.0566H373.923V41.1575H379.719V42.0566H377.407V42.1727C377.407 43.4779 378.427 44.6878 380.043 45.1602L379.483 46.0304C378.257 45.6533 377.329 44.8536 376.852 43.826ZM376.446 47.8453H381.124V46.6727H382.231V50.8619H375.356V46.6727H376.446V47.8453ZM376.446 49.9586H381.124V48.7196H376.446V49.9586ZM394.6 40.5028V43.9751H396.096V44.9116H394.6V48.5331H393.489V40.5028H394.6ZM392.843 45.7735L392.93 46.5939C390.725 46.9917 388.247 47.029 386.449 47.029L386.325 46.1257C387.108 46.1257 388.028 46.1215 388.993 46.0884V45.1064C387.742 44.9323 386.905 44.145 386.913 43.0594C386.905 41.808 387.986 40.9669 389.524 40.9669C391.061 40.9669 392.142 41.808 392.151 43.0594C392.142 44.1285 391.326 44.9116 390.108 45.0981V46.0387C391.036 45.9848 391.973 45.9019 392.843 45.7735ZM387.949 43.0594C387.941 43.8052 388.6 44.2901 389.524 44.2983C390.46 44.2901 391.094 43.8052 391.102 43.0594C391.094 42.3011 390.46 41.8204 389.524 41.8163C388.6 41.8204 387.941 42.3011 387.949 43.0594ZM387.808 47.8287H388.927V49.855H394.977V50.7707H387.808V47.8287ZM403.558 46.9503V48.8108H406.082V49.7348H396.472V48.8108H399.095V46.9503H397.641V43.6105H403.807V42.1478H397.62V41.2403H404.905V44.518H398.747V46.0387H405.149V46.9503H403.558ZM402.464 46.9503H400.177V48.8108H402.464V46.9503ZM410.027 46.482C410.027 44.4019 410.582 42.674 411.639 41.1989H412.786C411.97 42.2928 411.324 44.5138 411.324 46.482C411.324 48.4503 411.97 50.6754 412.786 51.7693H411.639C410.582 50.2942 410.027 48.5622 410.027 46.482ZM419.404 50H413.703L413.699 49.0635L416.641 46.0925C417.573 45.1271 418.037 44.5925 418.041 43.8467C418.037 43.0097 417.358 42.4793 416.467 42.4793C415.526 42.4793 414.925 43.0718 414.925 43.9793H413.699C413.695 42.4254 414.875 41.3978 416.491 41.3978C418.128 41.3978 419.259 42.4337 419.268 43.8094C419.259 44.7583 418.812 45.5166 417.221 47.0787L415.497 48.8315V48.8936H419.404V50ZM427.834 40.4945H428.949V45.8398H427.834V40.4945ZM425.966 43.2086C425.957 44.5843 424.793 45.5456 423.214 45.5456C421.615 45.5456 420.45 44.5843 420.45 43.2086C420.45 41.8287 421.615 40.8591 423.214 40.855C424.793 40.8591 425.957 41.8287 425.966 43.2086ZM421.536 43.2086C421.528 44.0704 422.245 44.6423 423.214 44.6423C424.176 44.6423 424.888 44.0704 424.888 43.2086C424.888 42.3508 424.176 41.7749 423.214 41.779C422.245 41.7749 421.528 42.3508 421.536 43.2086ZM423.156 48.9641V49.971H429.293V50.8619H422.075V48.1354H427.843V47.2072H422.042V46.3246H428.949V48.9641H423.156ZM434.589 47.5594H433.536C433.503 46.1174 434.282 45.4751 435.223 45.4751C435.774 45.4751 436.184 45.6906 436.793 46.2169C437.17 46.5442 437.357 46.6809 437.651 46.6809C438.094 46.6809 438.393 46.3494 438.376 45.6865H439.437C439.47 47.1285 438.674 47.779 437.742 47.779C437.183 47.779 436.768 47.5511 436.172 47.029C435.782 46.6975 435.608 46.5649 435.318 46.5649C434.891 46.5649 434.572 46.8467 434.589 47.5594ZM445.459 41.5138H446.719V50H445.426V42.8066H445.376L443.35 44.1285V42.8978L445.459 41.5138ZM450.275 50H448.928L452.715 42.6823V42.6202H448.339V41.5138H454.054V42.6616L450.275 50ZM462.347 40.4945H463.462V45.8398H462.347V40.4945ZM460.479 43.2086C460.47 44.5843 459.306 45.5456 457.727 45.5456C456.128 45.5456 454.963 44.5843 454.963 43.2086C454.963 41.8287 456.128 40.8591 457.727 40.855C459.306 40.8591 460.47 41.8287 460.479 43.2086ZM456.049 43.2086C456.041 44.0704 456.758 44.6423 457.727 44.6423C458.689 44.6423 459.401 44.0704 459.401 43.2086C459.401 42.3508 458.689 41.7749 457.727 41.779C456.758 41.7749 456.041 42.3508 456.049 43.2086ZM457.669 48.9641V49.971H463.806V50.8619H456.588V48.1354H462.356V47.2072H456.555V46.3246H463.462V48.9641H457.669ZM467.655 46.482C467.655 48.5622 467.1 50.2942 466.043 51.7693H464.896C465.712 50.6754 466.358 48.4503 466.358 46.482C466.358 44.5138 465.712 42.2928 464.896 41.1989H466.043C467.1 42.674 467.655 44.4019 467.655 46.482Z" fill="#8A8A8B"/>
<rect x="333" y="25" width="20" height="20" rx="10" fill="#3CC3AC"/>
<path d="M339.25 35.4409L342.049 38.1382L345.25 35.1292L348 32.5" stroke="white" stroke-width="1.875" stroke-linecap="round"/>
<mask id="path-16-inside-4_2037_5987" fill="white">
<path fill-rule="evenodd" clip-rule="evenodd" d="M10 0C4.47715 0 0 4.47715 0 10V60C0 65.5229 4.47715 70 10 70H164.235C164.718 70 165.193 69.9658 165.658 69.8996C167.716 69.915 169.819 69.1512 171.512 67.4229L197.656 40.7351C200.777 37.5488 200.777 32.4512 197.656 29.2649L171.512 2.57708C169.819 0.848788 167.716 0.0850017 165.658 0.100441C165.193 0.0342456 164.718 0 164.235 0H10Z"/>
</mask>
<path fill-rule="evenodd" clip-rule="evenodd" d="M10 0C4.47715 0 0 4.47715 0 10V60C0 65.5229 4.47715 70 10 70H164.235C164.718 70 165.193 69.9658 165.658 69.8996C167.716 69.915 169.819 69.1512 171.512 67.4229L197.656 40.7351C200.777 37.5488 200.777 32.4512 197.656 29.2649L171.512 2.57708C169.819 0.848788 167.716 0.0850017 165.658 0.100441C165.193 0.0342456 164.718 0 164.235 0H10Z" fill="white"/>
<path d="M165.658 69.8996L165.665 68.8996L165.591 68.899L165.517 68.9095L165.658 69.8996ZM171.512 67.4229L172.227 68.1227L171.512 67.4229ZM197.656 40.7351L198.37 41.4349V41.4349L197.656 40.7351ZM197.656 29.2649L198.37 28.5651L197.656 29.2649ZM171.512 2.57708L172.227 1.8773V1.8773L171.512 2.57708ZM165.658 0.100441L165.517 1.09045L165.59 1.10097L165.665 1.10041L165.658 0.100441ZM1 10C1 5.02944 5.02944 1 10 1V-1C3.92487 -1 -1 3.92487 -1 10H1ZM1 60V10H-1V60H1ZM10 69C5.02943 69 1 64.9706 1 60H-1C-1 66.0751 3.92487 71 10 71V69ZM164.235 69H10V71H164.235V69ZM165.517 68.9095C165.098 68.9691 164.671 69 164.235 69V71C164.765 71 165.287 70.9624 165.799 70.8896L165.517 68.9095ZM170.798 66.7231C169.302 68.25 167.463 68.913 165.665 68.8996L165.65 70.8995C167.969 70.9169 170.336 70.0524 172.227 68.1227L170.798 66.7231ZM196.941 40.0353L170.798 66.7231L172.227 68.1227L198.37 41.4349L196.941 40.0353ZM196.941 29.9647C199.682 32.7622 199.682 37.2378 196.941 40.0353L198.37 41.4349C201.872 37.8598 201.872 32.1402 198.37 28.5651L196.941 29.9647ZM170.798 3.27687L196.941 29.9647L198.37 28.5651L172.227 1.8773L170.798 3.27687ZM165.665 1.10041C167.463 1.08693 169.302 1.75002 170.798 3.27687L172.227 1.8773C170.336 -0.0524405 167.969 -0.916925 165.65 -0.899531L165.665 1.10041ZM164.235 1C164.671 1 165.098 1.03089 165.517 1.09045L165.799 -0.889566C165.287 -0.962395 164.765 -1 164.235 -1V1ZM10 1H164.235V-1H10V1Z" fill="#17BF98" mask="url(#path-16-inside-4_2037_5987)"/>
<rect x="25" y="25" width="20" height="20" rx="10" fill="#3CC3AC"/>
<path d="M31.25 35.4409L34.0485 38.1382L37.2499 35.1292L40 32.5" stroke="white" stroke-width="1.875" stroke-linecap="round"/>
<path d="M62.884 27.5304V30.1657H68.4309V31.7845H55.4254V30.1657H60.9116V27.5304H56.8011V20.1215H58.8011V22.337H65V20.1215H66.989V27.5304H62.884ZM65 23.9171H58.8011V25.9392H65V23.9171ZM80.0772 28.6022L78.0661 28.3923C78.6076 25.7017 78.6352 23.7017 78.6462 22.0331H70.2706V20.4475H80.6462V21.7956C80.6407 23.5746 80.6407 25.5746 80.0772 28.6022ZM75.5523 25.1878V30.0773H81.9059V31.6961H68.9335V30.0773H73.5744V25.1878H75.5523ZM92.4638 23.6906V19.2099H94.4361V33.4751H92.4638V25.2983H89.6792V23.6906H92.4638ZM87.8229 20.3094V22.4365C87.8174 25.1105 88.8947 27.7127 91.2593 28.7348L90.0549 30.3204C88.4693 29.558 87.4085 28.1436 86.8174 26.3867C86.2041 28.2486 85.1102 29.779 83.4859 30.5801L82.2372 28.9613C84.6682 27.8564 85.7842 25.1105 85.7953 22.4365V20.3094H87.8229ZM109.643 24.3204H108.45V27.4807H106.599V19.4807H108.45V22.7017H109.643V19.232H111.533V27.9282H109.643V24.3204ZM102.925 24.6961C102.406 25.9227 101.516 26.9503 100.19 27.5028L99.1184 25.9613C101.118 25.0884 101.92 23.337 101.925 21.7569V20.0829H103.864V21.7569C103.859 23.2873 104.66 24.8066 106.544 25.5249L105.483 27.0497C104.268 26.5856 103.433 25.7403 102.925 24.6961ZM106.671 28.1215C109.671 28.1215 111.599 29.116 111.605 30.7735C111.599 32.4309 109.671 33.442 106.671 33.4365C103.66 33.442 101.743 32.4309 101.754 30.7735C101.743 29.116 103.66 28.1215 106.671 28.1215ZM106.671 31.9337C108.522 31.9392 109.594 31.547 109.599 30.7735C109.594 30.011 108.522 29.6077 106.671 29.6133C104.809 29.6077 103.737 30.011 103.743 30.7735C103.737 31.547 104.809 31.9392 106.671 31.9337ZM124.809 27.5525H122.82V23.453H120.151V21.8232H122.82V19.2099H124.809V27.5525ZM117.234 24.2928C116.599 25.7735 115.455 26.9392 113.748 27.5138L112.687 25.9227C115.129 25.1381 116.173 23.232 116.185 21.2431V19.9558H118.196V21.1492C118.185 23.0552 119.168 24.8122 121.455 25.5193L120.394 27.0773C118.864 26.5525 117.831 25.5691 117.234 24.2928ZM119.947 27.9171C122.986 27.9171 124.842 28.9392 124.848 30.6851C124.842 32.442 122.986 33.442 119.947 33.4365C116.919 33.442 115.057 32.442 115.063 30.6851C115.057 28.9392 116.919 27.9171 119.947 27.9171ZM119.947 31.884C121.836 31.8895 122.864 31.4751 122.87 30.6851C122.864 29.8729 121.836 29.4641 119.947 29.4641C118.063 29.4641 117.041 29.8729 117.046 30.6851C117.041 31.4751 118.063 31.8895 119.947 31.884Z" fill="black"/>
<path d="M63.2831 44.1533H62.0566V46.6312H61.0207V40.6975H62.0566V43.2376H63.2831V40.5028H64.3356V46.9669H63.2831V44.1533ZM60.6975 45.3301L60.105 46.1878C59.1312 45.8149 58.4475 45.0981 58.0704 44.2362C57.6851 45.2099 56.9682 46.0594 55.9489 46.4945L55.3439 45.6326C56.761 45.011 57.5193 43.6809 57.5193 42.5124V41.1492H58.5967V42.5124C58.5967 43.6602 59.3301 44.8204 60.6975 45.3301ZM60.8301 47.1699C63.0138 47.1699 64.3936 47.8743 64.3936 49.076C64.3936 50.2693 63.0138 50.9779 60.8301 50.9779C58.6298 50.9779 57.2583 50.2693 57.2666 49.076C57.2583 47.8743 58.6298 47.1699 60.8301 47.1699ZM60.8301 50.1202C62.3467 50.1285 63.279 49.7431 63.2831 49.076C63.279 48.4047 62.3467 48.0152 60.8301 48.0152C59.297 48.0152 58.3646 48.4047 58.3729 49.076C58.3646 49.7431 59.297 50.1285 60.8301 50.1202ZM74.272 46.6934H73.1615V43.5483H70.9488V42.6326H73.1615V40.4945H74.272V46.6934ZM68.7195 43.9586C68.2637 45.1602 67.3479 46.0967 66.0758 46.5566L65.4792 45.6616C67.1573 45.0898 68.1311 43.6934 68.1394 42.1188V41.0787H69.2499V42.0732C69.2416 43.5359 70.1946 44.8494 71.7858 45.3674L71.1808 46.2376C70.0247 45.8191 69.1753 45.011 68.7195 43.9586ZM70.754 46.9834C72.9543 46.9834 74.301 47.721 74.3051 48.9931C74.301 50.261 72.9543 50.9779 70.754 50.9779C68.5496 50.9779 67.1988 50.261 67.2071 48.9931C67.1988 47.721 68.5496 46.9834 70.754 46.9834ZM70.754 50.0994C72.2872 50.0994 73.1988 49.6934 73.2029 48.9931C73.1988 48.268 72.2872 47.8577 70.754 47.8577C69.2167 47.8577 68.301 48.268 68.3093 48.9931C68.301 49.6934 69.2167 50.0994 70.754 50.0994ZM86.5997 40.5028V43.9751H88.0955V44.9116H86.5997V48.5331H85.4892V40.5028H86.5997ZM84.8428 45.7735L84.9298 46.5939C82.7254 46.9917 80.2475 47.029 78.4491 47.029L78.3248 46.1257C79.108 46.1257 80.0278 46.1215 80.9933 46.0884V45.1064C79.7419 44.9323 78.9049 44.145 78.9132 43.0594C78.9049 41.808 79.9864 40.9669 81.5237 40.9669C83.061 40.9669 84.1425 41.808 84.1508 43.0594C84.1425 44.1285 83.3262 44.9116 82.108 45.0981V46.0387C83.0361 45.9848 83.9726 45.9019 84.8428 45.7735ZM79.9491 43.0594C79.9408 43.8052 80.5997 44.2901 81.5237 44.2983C82.4602 44.2901 83.0941 43.8052 83.1024 43.0594C83.0941 42.3011 82.4602 41.8204 81.5237 41.8163C80.5997 41.8204 79.9408 42.3011 79.9491 43.0594ZM79.8082 47.8287H80.927V49.855H86.9767V50.7707H79.8082V47.8287ZM95.5581 46.9503V48.8108H98.0816V49.7348H88.4725V48.8108H91.0954V46.9503H89.641V43.6105H95.8067V42.1478H89.6203V41.2403H96.9048V44.518H90.7473V46.0387H97.1493V46.9503H95.5581ZM94.4642 46.9503H92.1769V48.8108H94.4642V46.9503ZM102.027 46.482C102.027 44.4019 102.582 42.674 103.639 41.1989H104.786C103.97 42.2928 103.324 44.5138 103.324 46.482C103.324 48.4503 103.97 50.6754 104.786 51.7693H103.639C102.582 50.2942 102.027 48.5622 102.027 46.482ZM107.663 41.5138H108.922V50H107.63V42.8066H107.58L105.554 44.1285V42.8978L107.663 41.5138ZM118.077 40.4945H119.191V45.8398H118.077V40.4945ZM116.208 43.2086C116.199 44.5843 115.035 45.5456 113.456 45.5456C111.857 45.5456 110.693 44.5843 110.693 43.2086C110.693 41.8287 111.857 40.8591 113.456 40.855C115.035 40.8591 116.199 41.8287 116.208 43.2086ZM111.778 43.2086C111.77 44.0704 112.487 44.6423 113.456 44.6423C114.418 44.6423 115.13 44.0704 115.13 43.2086C115.13 42.3508 114.418 41.7749 113.456 41.779C112.487 41.7749 111.77 42.3508 111.778 43.2086ZM113.398 48.9641V49.971H119.535V50.8619H112.317V48.1354H118.085V47.2072H112.284V46.3246H119.191V48.9641H113.398ZM123.384 46.482C123.384 48.5622 122.829 50.2942 121.773 51.7693H120.625C121.441 50.6754 122.087 48.4503 122.087 46.482C122.087 44.5138 121.441 42.2928 120.625 41.1989H121.773C122.829 42.674 123.384 44.4019 123.384 46.482Z" fill="#8A8A8B"/>
</svg>
