<svg width="1182" height="70" viewBox="0 0 1182 70" fill="none" xmlns="http://www.w3.org/2000/svg">
<rect x="0.5" y="0.5" width="1181" height="69" rx="9.5" fill="#F6F6F6" stroke="#DEDEDE"/>
<mask id="path-2-inside-1_4503_9292" fill="white">
<path d="M948 10C948 4.47715 952.477 0 958 0H1172C1177.52 0 1182 4.47715 1182 10V60C1182 65.5228 1177.52 70 1172 70H958C952.477 70 948 65.5228 948 60V10Z"/>
</mask>
<path d="M948 10C948 4.47715 952.477 0 958 0H1172C1177.52 0 1182 4.47715 1182 10V60C1182 65.5228 1177.52 70 1172 70H958C952.477 70 948 65.5228 948 60V10Z" fill="#F6F6F6"/>
<path d="M958 1H1172V-1H958V1ZM1181 10V60H1183V10H1181ZM1172 69H958V71H1172V69ZM949 60V10H947V60H949ZM958 69C953.029 69 949 64.9706 949 60H947C947 66.0751 951.925 71 958 71V69ZM1181 60C1181 64.9706 1176.97 69 1172 69V71C1178.08 71 1183 66.0751 1183 60H1181ZM1172 1C1176.97 1 1181 5.02944 1181 10H1183C1183 3.92487 1178.08 -1 1172 -1V1ZM958 -1C951.925 -1 947 3.92487 947 10H949C949 5.02944 953.029 1 958 1V-1Z" fill="#DEDEDE" mask="url(#path-2-inside-1_4503_9292)"/>
<path d="M1045.44 30.1562V31.7812H1032.42V30.1562H1037.91V27.5312H1033.8V20.125H1035.8V22.3281H1042V20.125H1043.98V27.5312H1039.89V30.1562H1045.44ZM1035.8 25.9375H1042V23.9219H1035.8V25.9375ZM1057.65 20.4531V21.7969C1057.65 23.5781 1057.65 25.5781 1057.07 28.5938L1055.07 28.3906C1055.61 25.7031 1055.63 23.7031 1055.65 22.0312H1047.27V20.4531H1057.65ZM1058.9 30.0781V31.7031H1045.93V30.0781H1050.57V25.1875H1052.56V30.0781H1058.9ZM1064.81 22.4375C1064.81 25.1094 1065.89 27.7031 1068.27 28.7344L1067.05 30.3281C1065.47 29.5547 1064.41 28.1406 1063.83 26.3906C1063.2 28.25 1062.11 29.7734 1060.49 30.5781L1059.24 28.9531C1061.67 27.8594 1062.78 25.1094 1062.8 22.4375V20.3125H1064.81V22.4375ZM1071.44 19.2188V33.4688H1069.47V25.2969H1066.67V23.6875H1069.47V19.2188H1071.44ZM1078.72 19.8594V21.5469H1081.63V19.8594H1083.63V26.0625H1076.74V19.8594H1078.72ZM1078.72 24.5H1081.63V23.0469H1078.72V24.5ZM1087.6 19.2188V21.9844H1089.52V23.5938H1087.6V26.4531H1085.6V19.2188H1087.6ZM1087.6 26.9844V30.8438H1080.14V31.7656H1088V33.3438H1078.19V29.4219H1085.61V28.5312H1078.16V26.9844H1087.6ZM1097.28 24.25V26H1102.79V27.5938H1089.82V26H1095.31V24.25H1097.28ZM1097.31 19.9219C1097.31 21.5781 1098.9 23.1562 1102.1 23.5469L1101.34 25.0938C1098.94 24.7344 1097.17 23.7266 1096.28 22.2969C1095.36 23.7266 1093.6 24.7422 1091.2 25.0938L1090.49 23.5469C1093.63 23.1562 1095.28 21.5312 1095.28 19.9219V19.4531H1097.31V19.9219ZM1096.29 28.375C1099.38 28.375 1101.23 29.2969 1101.24 30.9219C1101.23 32.5469 1099.38 33.4375 1096.29 33.4375C1093.17 33.4375 1091.31 32.5469 1091.31 30.9219C1091.31 29.2969 1093.17 28.375 1096.29 28.375ZM1096.29 29.8906C1094.31 29.8906 1093.32 30.2188 1093.34 30.9219C1093.32 31.625 1094.31 31.9531 1096.29 31.9531C1098.23 31.9531 1099.23 31.625 1099.24 30.9219C1099.23 30.2188 1098.23 29.8906 1096.29 29.8906Z" fill="#8A8A8B"/>
<path d="M1041.11 41V41.8906H1037.91C1037.97 43.0332 1039.48 44.041 1041.43 44.2812L1041.01 45.1602C1039.21 44.9258 1037.74 44.0879 1037.17 42.9102C1036.6 44.082 1035.13 44.9258 1033.34 45.1602L1032.91 44.2812C1034.88 44.041 1036.37 43.0332 1036.43 41.8906H1033.27V41H1041.11ZM1041.98 45.8398V46.7422H1037.81V48.7812H1036.71V46.7422H1032.38V45.8398H1041.98ZM1040.92 49.8711V50.7734H1033.57V47.7734H1034.68V49.8711H1040.92ZM1051.21 40.4961V51.0195H1050.1V40.4961H1051.21ZM1044.22 41.375V44.0703H1047.04V41.375H1048.14V48.5H1043.1V41.375H1044.22ZM1044.22 47.5859H1047.04V44.9492H1044.22V47.5859ZM1064.91 45.3594V46.2617H1060.67V47.2695C1062.6 47.375 1063.74 48.0254 1063.74 49.1211C1063.74 50.3164 1062.38 50.9844 1060.12 50.9727C1057.83 50.9844 1056.48 50.3164 1056.48 49.1211C1056.48 48.0254 1057.62 47.375 1059.57 47.2695V46.2617H1055.34V45.3594H1064.91ZM1060.12 48.1133C1058.51 48.1133 1057.6 48.4766 1057.6 49.1211C1057.6 49.7539 1058.51 50.1289 1060.12 50.1172C1061.7 50.1289 1062.63 49.7539 1062.63 49.1211C1062.63 48.4766 1061.7 48.1133 1060.12 48.1133ZM1064.06 40.9766V41.8672H1060.87C1061.03 42.8809 1062.5 43.7422 1064.42 43.9297L1064.02 44.8086C1062.21 44.5977 1060.7 43.8301 1060.13 42.7109C1059.55 43.8301 1058.05 44.5977 1056.23 44.8086L1055.84 43.9297C1057.73 43.7422 1059.21 42.8809 1059.37 41.8672H1056.22V40.9766H1064.06ZM1068.79 46.7656C1068.8 44.5625 1069.42 42.7227 1070.53 41.1523H1071.67C1070.87 42.3125 1070.09 44.6797 1070.09 46.7656C1070.09 48.8633 1070.87 51.2188 1071.67 52.3906H1070.53C1069.42 50.8203 1068.8 48.9805 1068.79 46.7656ZM1072.57 50V49.0625L1075.51 46.0977C1076.44 45.125 1076.91 44.5859 1076.91 43.8477C1076.91 43.0156 1076.23 42.4766 1075.34 42.4766C1074.4 42.4766 1073.79 43.0742 1073.79 43.9766H1072.57C1072.56 42.4297 1073.74 41.3984 1075.36 41.3984C1077 41.3984 1078.13 42.4297 1078.14 43.8125C1078.13 44.7617 1077.68 45.5117 1076.09 47.082L1074.36 48.8281V48.8984H1078.28V50H1072.57ZM1082.42 50.1172C1080.45 50.1172 1079.3 48.5352 1079.3 45.7578C1079.3 43.0039 1080.48 41.3984 1082.42 41.3984C1084.37 41.3984 1085.54 43.0039 1085.54 45.7578C1085.54 48.5352 1084.38 50.1172 1082.42 50.1172ZM1082.42 49.0039C1083.57 49.0039 1084.25 47.8789 1084.25 45.7578C1084.25 43.6484 1083.56 42.4883 1082.42 42.4883C1081.28 42.4883 1080.59 43.6484 1080.59 45.7578C1080.59 47.8789 1081.27 49.0039 1082.42 49.0039ZM1089.25 40.8477C1090.83 40.8594 1091.99 41.832 1092 43.2031C1091.99 44.5859 1090.83 45.5469 1089.25 45.5469C1087.65 45.5469 1086.48 44.5859 1086.48 43.2031C1086.48 41.832 1087.65 40.8594 1089.25 40.8477ZM1089.25 41.7852C1088.28 41.7734 1087.56 42.3477 1087.57 43.2031C1087.56 44.0703 1088.28 44.6445 1089.25 44.6445C1090.21 44.6445 1090.92 44.0703 1090.92 43.2031C1090.92 42.3477 1090.21 41.7734 1089.25 41.7852ZM1094.98 40.4961V45.8398H1093.87V40.4961H1094.98ZM1094.98 46.3203V48.9688H1089.19V49.9766H1095.33V50.8672H1088.11V48.1367H1093.88V47.2109H1088.08V46.3203H1094.98ZM1099.29 46.7656C1099.27 48.9805 1098.65 50.8203 1097.55 52.3906H1096.4C1097.21 51.2188 1097.98 48.8633 1097.98 46.7656C1097.98 44.6797 1097.21 42.3125 1096.4 41.1523H1097.55C1098.65 42.7227 1099.27 44.5625 1099.29 46.7656Z" fill="#8A8A8B"/>
<mask id="path-6-inside-2_4503_9292" fill="white">
<path fill-rule="evenodd" clip-rule="evenodd" d="M663 0C657.477 0 653 4.47715 653 10V60C653 65.5229 657.477 70 663 70H949.513C950.927 70 952.273 69.7064 953.493 69.1768C954.74 68.8193 955.943 68.1417 956.996 67.1003L983.57 40.8281C986.815 37.6201 986.815 32.3799 983.57 29.1719L956.996 2.8997C955.943 1.85827 954.74 1.18064 953.492 0.82319C952.273 0.293605 950.927 0 949.513 0H663Z"/>
</mask>
<path fill-rule="evenodd" clip-rule="evenodd" d="M663 0C657.477 0 653 4.47715 653 10V60C653 65.5229 657.477 70 663 70H949.513C950.927 70 952.273 69.7064 953.493 69.1768C954.74 68.8193 955.943 68.1417 956.996 67.1003L983.57 40.8281C986.815 37.6201 986.815 32.3799 983.57 29.1719L956.996 2.8997C955.943 1.85827 954.74 1.18064 953.492 0.82319C952.273 0.293605 950.927 0 949.513 0H663Z" fill="#41AD95"/>
<path d="M953.493 69.1768L953.217 68.2155L953.154 68.2335L953.094 68.2595L953.493 69.1768ZM956.996 67.1003L957.699 67.8114L957.699 67.8114L956.996 67.1003ZM983.57 40.8281L982.867 40.1169L982.867 40.1169L983.57 40.8281ZM983.57 29.1719L982.867 29.883L982.867 29.8831L983.57 29.1719ZM956.996 2.8997L956.293 3.61083L956.293 3.61083L956.996 2.8997ZM953.492 0.82319L953.094 1.74044L953.154 1.76649L953.217 1.78451L953.492 0.82319ZM654 10C654 5.02944 658.029 1 663 1V-1C656.925 -1 652 3.92487 652 10H654ZM654 60V10H652V60H654ZM663 69C658.029 69 654 64.9706 654 60H652C652 66.0751 656.925 71 663 71V69ZM949.513 69H663V71H949.513V69ZM953.094 68.2595C951.998 68.7356 950.788 69 949.513 69V71C951.067 71 952.548 70.6772 953.891 70.094L953.094 68.2595ZM956.293 66.3892C955.359 67.3127 954.303 67.9043 953.217 68.2155L953.768 70.1381C955.177 69.7344 956.527 68.9707 957.699 67.8114L956.293 66.3892ZM982.867 40.1169L956.293 66.3892L957.699 67.8114L984.273 41.5392L982.867 40.1169ZM982.867 29.8831C985.716 32.6996 985.716 37.3004 982.867 40.1169L984.273 41.5392C987.914 37.9398 987.914 32.0602 984.273 28.4608L982.867 29.8831ZM956.293 3.61083L982.867 29.883L984.273 28.4608L957.699 2.18857L956.293 3.61083ZM953.217 1.78451C954.303 2.09571 955.359 2.68725 956.293 3.61083L957.699 2.18857C956.527 1.0293 955.177 0.26556 953.768 -0.138132L953.217 1.78451ZM949.513 1C950.788 1 951.998 1.26441 953.094 1.74044L953.891 -0.0940594C952.548 -0.677203 951.067 -1 949.513 -1V1ZM663 1H949.513V-1H663V1Z" fill="#17BF98" mask="url(#path-6-inside-2_4503_9292)"/>
<path d="M772.438 30.1562V31.7812H759.422V30.1562H764.906V27.5312H760.797V20.125H762.797V22.3281H769V20.125H770.984V27.5312H766.891V30.1562H772.438ZM762.797 25.9375H769V23.9219H762.797V25.9375ZM784.649 20.4531V21.7969C784.649 23.5781 784.649 25.5781 784.071 28.5938L782.071 28.3906C782.61 25.7031 782.633 23.7031 782.649 22.0312H774.274V20.4531H784.649ZM785.899 30.0781V31.7031H772.93V30.0781H777.571V25.1875H779.555V30.0781H785.899ZM791.813 22.4375C791.813 25.1094 792.891 27.7031 795.266 28.7344L794.048 30.3281C792.469 29.5547 791.415 28.1406 790.829 26.3906C790.204 28.25 789.11 29.7734 787.485 30.5781L786.235 28.9531C788.673 27.8594 789.782 25.1094 789.798 22.4375V20.3125H791.813V22.4375ZM798.438 19.2188V33.4688H796.469V25.2969H793.673V23.6875H796.469V19.2188H798.438ZM819.009 19.2188V33.4375H817.088V19.2188H819.009ZM815.994 19.4688V32.7969H814.134V26.0312H811.588V24.4062H814.134V19.4688H815.994ZM812.556 20.8281V22.4219H809.072V28.6094C810.595 28.6016 811.744 28.5234 813.072 28.25L813.228 29.875C811.619 30.2031 810.181 30.2656 808.103 30.2656H807.119V20.8281H812.556ZM832.096 19.2188V33.4688H830.08V19.2188H832.096ZM824.377 20.2188C826.518 20.2188 828.111 22.1875 828.111 25.2812C828.111 28.4062 826.518 30.3594 824.377 30.3594C822.189 30.3594 820.596 28.4062 820.611 25.2812C820.596 22.1875 822.189 20.2188 824.377 20.2188ZM824.377 22.0156C823.268 22.0156 822.533 23.1719 822.533 25.2812C822.533 27.4062 823.268 28.5469 824.377 28.5469C825.455 28.5469 826.189 27.4062 826.189 25.2812C826.189 23.1719 825.455 22.0156 824.377 22.0156ZM845.698 19.2188V33.4688H843.729V25.8438H841.229V24.2344H843.729V19.2188H845.698ZM840.994 20.4062V22.0156H836.338V24.375H840.479V25.9375H836.338V28.625C838.307 28.6094 839.885 28.5391 841.651 28.2656L841.854 29.8594C839.776 30.1719 837.916 30.25 835.479 30.25H834.354V20.4062H840.994ZM857.948 20.0469C857.948 23.7656 855.604 26.3438 851.433 27.5L850.651 25.9531C853.714 25.125 855.479 23.5625 855.823 21.6406H851.417V20.0469H857.948ZM862.558 19.2344V27.1875H860.573V24.2344H858.042V22.6094H860.573V19.2344H862.558ZM862.558 27.75V33.2656H853.136V27.75H862.558ZM855.089 29.3125V31.7031H860.589V29.3125H855.089ZM877.05 25.7656V27.375H864.081V25.7656H877.05ZM870.55 28.1719C873.628 28.1719 875.488 29.1406 875.503 30.8125C875.488 32.5 873.628 33.4375 870.55 33.4375C867.441 33.4375 865.566 32.5 865.566 30.8125C865.566 29.1406 867.441 28.1719 870.55 28.1719ZM870.55 29.7188C868.581 29.7188 867.581 30.0625 867.597 30.8125C867.581 31.5469 868.581 31.8906 870.55 31.8906C872.472 31.8906 873.488 31.5469 873.503 30.8125C873.488 30.0625 872.472 29.7188 870.55 29.7188ZM875.878 19.875V21.4688H872.003C872.323 22.4609 873.769 23.4453 876.503 23.6875L875.8 25.25C873.12 24.9922 871.308 23.9766 870.55 22.5938C869.8 23.9766 868.019 24.9922 865.316 25.25L864.659 23.6875C867.331 23.4453 868.792 22.4688 869.128 21.4688H865.269V19.875H875.878Z" fill="white"/>
<path d="M764.812 41.1523C764.812 43.8242 762.984 45.7227 759.938 46.5781L759.48 45.7109C761.9 45.0312 763.406 43.7188 763.629 42.0664H760.031V41.1523H764.812ZM768.141 40.5078V46.4492H767.027V44.0586H764.859V43.1328H767.027V40.5078H768.141ZM768.141 46.8828V50.8555H761.273V46.8828H768.141ZM762.363 47.7734V49.9648H767.039V47.7734H762.363ZM779.092 45.4414V46.3438H769.518V45.4414H779.092ZM774.299 47.1523C776.561 47.1523 777.92 47.8555 777.92 49.0742C777.92 50.293 776.561 50.9844 774.299 50.9727C772.026 50.9844 770.655 50.293 770.655 49.0742C770.655 47.8555 772.026 47.1523 774.299 47.1523ZM774.299 48.0195C772.694 48.0312 771.78 48.3945 771.78 49.0742C771.78 49.7422 772.694 50.0938 774.299 50.0938C775.881 50.0938 776.807 49.7422 776.807 49.0742C776.807 48.3945 775.881 48.0312 774.299 48.0195ZM778.237 41.0117V41.9258H775.049C775.172 42.9453 776.66 43.8125 778.6 44.0117L778.201 44.8906C776.385 44.6797 774.879 43.9121 774.311 42.8047C773.725 43.9121 772.225 44.6797 770.408 44.8906L770.022 44.0117C771.926 43.8125 773.426 42.9512 773.561 41.9258H770.397V41.0117H778.237ZM786.229 42.6875C786.229 44.0469 787.237 45.3242 788.854 45.8398L788.28 46.707C787.073 46.3086 786.159 45.4824 785.69 44.4336C785.216 45.5762 784.284 46.4785 783.03 46.918L782.456 46.0391C784.085 45.4883 785.093 44.1289 785.104 42.6875V42.2305H782.749V41.3281H788.538V42.2305H786.229V42.6875ZM791.046 40.5078V48.1719H789.932V40.5078H791.046ZM791.362 49.8711V50.7734H784.178V47.4453H785.303V49.8711H791.362ZM801.423 40.4961V47.1172H800.368V44.1875H799.149V46.7539H798.106V40.6953H799.149V43.2734H800.368V40.4961H801.423ZM797.72 41.6914V42.5703H792.411V41.6914H794.532V40.5781H795.634V41.6914H797.72ZM795.071 43.0625C796.407 43.0625 797.345 43.7773 797.345 44.8672C797.345 45.957 796.407 46.6719 795.071 46.6719C793.759 46.6719 792.821 45.957 792.821 44.8672C792.821 43.7773 793.759 43.0625 795.071 43.0625ZM795.071 43.8828C794.333 43.8828 793.817 44.2695 793.817 44.8672C793.817 45.4648 794.333 45.8633 795.071 45.8633C795.833 45.8633 796.337 45.4648 796.337 44.8672C796.337 44.2695 795.833 43.8828 795.071 43.8828ZM797.907 47.2695C800.134 47.2695 801.47 47.9375 801.481 49.1328C801.47 50.3047 800.134 50.9844 797.907 50.9727C795.681 50.9844 794.345 50.3047 794.356 49.1328C794.345 47.9375 795.681 47.2695 797.907 47.2695ZM797.907 48.125C796.349 48.125 795.446 48.4766 795.458 49.1328C795.446 49.7656 796.349 50.1289 797.907 50.1172C799.478 50.1289 800.356 49.7656 800.368 49.1328C800.356 48.4766 799.478 48.125 797.907 48.125ZM814.865 45.3594V46.2617H810.623V47.2695C812.55 47.375 813.693 48.0254 813.693 49.1211C813.693 50.3164 812.333 50.9844 810.072 50.9727C807.787 50.9844 806.427 50.3164 806.427 49.1211C806.427 48.0254 807.57 47.375 809.521 47.2695V46.2617H805.29V45.3594H814.865ZM810.072 48.1133C808.466 48.1133 807.552 48.4766 807.552 49.1211C807.552 49.7539 808.466 50.1289 810.072 50.1172C811.654 50.1289 812.58 49.7539 812.58 49.1211C812.58 48.4766 811.654 48.1133 810.072 48.1133ZM814.009 40.9766V41.8672H810.822C810.98 42.8809 812.456 43.7422 814.373 43.9297L813.974 44.8086C812.158 44.5977 810.652 43.8301 810.083 42.7109C809.498 43.8301 807.998 44.5977 806.181 44.8086L805.794 43.9297C807.681 43.7422 809.164 42.8809 809.322 41.8672H806.169V40.9766H814.009ZM818.744 46.7656C818.756 44.5625 819.377 42.7227 820.478 41.1523H821.627C820.818 42.3125 820.045 44.6797 820.045 46.7656C820.045 48.8633 820.818 51.2188 821.627 52.3906H820.478C819.377 50.8203 818.756 48.9805 818.744 46.7656ZM825.746 41.5156V50H824.445V42.8047H824.399L822.371 44.1289V42.8984L824.481 41.5156H825.746ZM830.627 50.1172C828.787 50.1172 827.498 49.1211 827.51 47.7383C827.498 46.6484 828.284 45.7578 829.28 45.6055V45.5586C828.412 45.3594 827.827 44.5859 827.827 43.6602C827.827 42.3594 829.01 41.3984 830.627 41.3984C832.233 41.3984 833.405 42.3594 833.416 43.6602C833.405 44.5859 832.819 45.3594 831.963 45.5586V45.6055C832.948 45.7578 833.733 46.6484 833.745 47.7383C833.733 49.1211 832.444 50.1172 830.627 50.1172ZM830.627 49.0508C831.729 49.0508 832.432 48.4766 832.432 47.6445C832.432 46.7656 831.67 46.1328 830.627 46.1328C829.573 46.1328 828.799 46.7656 828.823 47.6445C828.799 48.4766 829.502 49.0508 830.627 49.0508ZM830.627 45.1133C831.518 45.1133 832.151 44.5742 832.151 43.7773C832.151 42.9922 831.53 42.4531 830.627 42.4531C829.69 42.4531 829.08 42.9805 829.08 43.7773C829.08 44.5742 829.725 45.1133 830.627 45.1133ZM837.454 40.8477C839.036 40.8594 840.196 41.832 840.208 43.2031C840.196 44.5859 839.036 45.5469 837.454 45.5469C835.86 45.5469 834.688 44.5859 834.688 43.2031C834.688 41.832 835.86 40.8594 837.454 40.8477ZM837.454 41.7852C836.481 41.7734 835.766 42.3477 835.778 43.2031C835.766 44.0703 836.481 44.6445 837.454 44.6445C838.415 44.6445 839.13 44.0703 839.13 43.2031C839.13 42.3477 838.415 41.7734 837.454 41.7852ZM843.184 40.4961V45.8398H842.071V40.4961H843.184ZM843.184 46.3203V48.9688H837.395V49.9766H843.536V50.8672H836.317V48.1367H842.083V47.2109H836.282V46.3203H843.184ZM848.036 45.5352C848.423 45.1016 848.903 44.8789 849.431 44.8789C850.345 44.8789 851.153 45.5469 852.044 45.5469C852.583 45.5469 853.052 45.3125 853.415 44.8438V45.9688C853.017 46.4023 852.548 46.625 852.021 46.625C851.107 46.625 850.286 45.957 849.396 45.957C848.868 45.957 848.411 46.1914 848.036 46.6602V45.5352ZM860.963 41.5156V50H859.662V42.8047H859.615L857.588 44.1289V42.8984L859.697 41.5156H860.963ZM865.797 41.3984C867.355 41.4102 868.996 42.3477 868.996 45.4531C868.996 48.4297 867.719 50.1172 865.68 50.1172C864.121 50.1172 863.019 49.1562 862.82 47.7734H864.098C864.273 48.4883 864.824 48.9922 865.68 48.9922C866.992 48.9922 867.754 47.8438 867.765 45.9102H867.66C867.203 46.625 866.406 47.0586 865.492 47.0586C863.969 47.0586 862.75 45.8984 862.75 44.2695C862.75 42.6523 863.957 41.3867 865.797 41.3984ZM865.797 42.4766C864.765 42.4766 864.004 43.2734 864.004 44.2461C864.004 45.2305 864.742 46.0039 865.773 46.0039C866.793 46.0039 867.59 45.1719 867.59 44.2344C867.59 43.3203 866.84 42.4766 865.797 42.4766ZM872.729 40.8477C874.311 40.8594 875.471 41.832 875.482 43.2031C875.471 44.5859 874.311 45.5469 872.729 45.5469C871.135 45.5469 869.963 44.5859 869.963 43.2031C869.963 41.832 871.135 40.8594 872.729 40.8477ZM872.729 41.7852C871.756 41.7734 871.041 42.3477 871.053 43.2031C871.041 44.0703 871.756 44.6445 872.729 44.6445C873.69 44.6445 874.404 44.0703 874.404 43.2031C874.404 42.3477 873.69 41.7734 872.729 41.7852ZM878.459 40.4961V45.8398H877.346V40.4961H878.459ZM878.459 46.3203V48.9688H872.67V49.9766H878.811V50.8672H871.592V48.1367H877.357V47.2109H871.557V46.3203H878.459ZM882.766 46.7656C882.754 48.9805 882.133 50.8203 881.032 52.3906H879.883C880.692 51.2188 881.465 48.8633 881.465 46.7656C881.465 44.6797 880.692 42.3125 879.883 41.1523H881.032C882.133 42.7227 882.754 44.5625 882.766 46.7656Z" fill="white"/>
<mask id="path-10-inside-3_4503_9292" fill="white">
<path fill-rule="evenodd" clip-rule="evenodd" d="M161 0C155.477 0 151 4.47715 151 10V60C151 65.5229 155.477 70 161 70H658.821C660.51 70 662.102 69.5809 663.498 68.841C664.631 68.4553 665.718 67.7974 666.677 66.8341L692.614 40.7823C695.798 37.5847 695.798 32.4153 692.614 29.2177L666.677 3.16584C665.718 2.20253 664.631 1.54466 663.498 1.15893C662.102 0.419066 660.51 0 658.821 0H161Z"/>
</mask>
<path fill-rule="evenodd" clip-rule="evenodd" d="M161 0C155.477 0 151 4.47715 151 10V60C151 65.5229 155.477 70 161 70H658.821C660.51 70 662.102 69.5809 663.498 68.841C664.631 68.4553 665.718 67.7974 666.677 66.8341L692.614 40.7823C695.798 37.5847 695.798 32.4153 692.614 29.2177L666.677 3.16584C665.718 2.20253 664.631 1.54466 663.498 1.15893C662.102 0.419066 660.51 0 658.821 0H161Z" fill="white"/>
<path d="M663.498 68.841L663.176 67.8944L663.1 67.9201L663.029 67.9575L663.498 68.841ZM666.677 66.8341L665.968 66.1286L665.968 66.1286L666.677 66.8341ZM692.614 40.7823L693.323 41.4879L693.323 41.4879L692.614 40.7823ZM692.614 29.2177L693.323 28.5121L693.323 28.5121L692.614 29.2177ZM666.677 3.16584L667.386 2.4603L667.386 2.46029L666.677 3.16584ZM663.498 1.15893L663.029 2.04246L663.1 2.07988L663.176 2.10562L663.498 1.15893ZM152 10C152 5.02944 156.029 1 161 1V-1C154.925 -1 150 3.92487 150 10H152ZM152 60V10H150V60H152ZM161 69C156.029 69 152 64.9706 152 60H150C150 66.0751 154.925 71 161 71V69ZM658.821 69H161V71H658.821V69ZM663.029 67.9575C661.774 68.6228 660.343 69 658.821 69V71C660.677 71 662.43 70.5391 663.966 69.7246L663.029 67.9575ZM665.968 66.1286C665.117 66.9834 664.163 67.5585 663.176 67.8944L663.82 69.7877C665.1 69.3522 666.318 68.6115 667.386 67.5397L665.968 66.1286ZM691.906 40.0768L665.968 66.1286L667.386 67.5397L693.323 41.4879L691.906 40.0768ZM691.906 29.9232C694.701 32.7307 694.701 37.2693 691.906 40.0768L693.323 41.4879C696.895 37.9001 696.895 32.0999 693.323 28.5121L691.906 29.9232ZM665.968 3.87139L691.906 29.9232L693.323 28.5121L667.386 2.4603L665.968 3.87139ZM663.176 2.10562C664.163 2.44152 665.117 3.01656 665.968 3.8714L667.386 2.46029C666.318 1.3885 665.1 0.647796 663.82 0.212241L663.176 2.10562ZM658.821 1C660.343 1 661.774 1.37722 663.029 2.04246L663.966 0.275403C662.43 -0.539089 660.677 -1 658.821 -1V1ZM161 1H658.821V-1H161V1Z" fill="#17BF98" mask="url(#path-10-inside-3_4503_9292)"/>
<rect x="333" y="25" width="20" height="20" rx="10" fill="#3CC3AC"/>
<path d="M339.25 35.4409L342.049 38.1382L345.25 35.1292L348 32.5" stroke="white" stroke-width="1.875" stroke-linecap="round"/>
<path d="M376.438 30.1562V31.7812H363.422V30.1562H368.906V27.5312H364.797V20.125H366.797V22.3281H373V20.125H374.984V27.5312H370.891V30.1562H376.438ZM366.797 25.9375H373V23.9219H366.797V25.9375ZM388.649 20.4531V21.7969C388.649 23.5781 388.649 25.5781 388.071 28.5938L386.071 28.3906C386.61 25.7031 386.633 23.7031 386.649 22.0312H378.274V20.4531H388.649ZM389.899 30.0781V31.7031H376.93V30.0781H381.571V25.1875H383.555V30.0781H389.899ZM395.813 22.4375C395.813 25.1094 396.891 27.7031 399.266 28.7344L398.048 30.3281C396.469 29.5547 395.415 28.1406 394.829 26.3906C394.204 28.25 393.11 29.7734 391.485 30.5781L390.235 28.9531C392.673 27.8594 393.782 25.1094 393.798 22.4375V20.3125H395.813V22.4375ZM402.438 19.2188V33.4688H400.469V25.2969H397.673V23.6875H400.469V19.2188H402.438ZM423.009 19.2188V33.4375H421.088V19.2188H423.009ZM419.994 19.4688V32.7969H418.134V26.0312H415.588V24.4062H418.134V19.4688H419.994ZM416.556 20.8281V22.4219H413.072V28.6094C414.595 28.6016 415.744 28.5234 417.072 28.25L417.228 29.875C415.619 30.2031 414.181 30.2656 412.103 30.2656H411.119V20.8281H416.556ZM436.096 19.2188V33.4688H434.08V19.2188H436.096ZM428.377 20.2188C430.518 20.2188 432.111 22.1875 432.111 25.2812C432.111 28.4062 430.518 30.3594 428.377 30.3594C426.189 30.3594 424.596 28.4062 424.611 25.2812C424.596 22.1875 426.189 20.2188 428.377 20.2188ZM428.377 22.0156C427.268 22.0156 426.533 23.1719 426.533 25.2812C426.533 27.4062 427.268 28.5469 428.377 28.5469C429.455 28.5469 430.189 27.4062 430.189 25.2812C430.189 23.1719 429.455 22.0156 428.377 22.0156ZM449.698 19.2188V33.4688H447.729V25.8438H445.229V24.2344H447.729V19.2188H449.698ZM444.994 20.4062V22.0156H440.338V24.375H444.479V25.9375H440.338V28.625C442.307 28.6094 443.885 28.5391 445.651 28.2656L445.854 29.8594C443.776 30.1719 441.916 30.25 439.479 30.25H438.354V20.4062H444.994ZM465.854 19.2344V23.2344H467.776V24.875H465.854V29.7031H463.854V19.2344H465.854ZM466.37 31.5938V33.1875H456.636V28.625H458.62V31.5938H466.37ZM456.979 20.2344V22.2969H459.886V20.2344H461.886V27.4375H454.995V20.2344H456.979ZM456.979 25.875H459.886V23.8281H456.979V25.875ZM472.05 19.9844C473.183 19.9844 474.175 20.3984 474.863 21.0938H478.081V19.2188H480.066V27.5469H478.081V25.8438H474.847C474.159 26.5312 473.175 26.9453 472.05 26.9375C469.894 26.9531 468.253 25.4688 468.269 23.4688C468.253 21.4375 469.894 19.9844 472.05 19.9844ZM472.05 21.6875C470.941 21.6875 470.144 22.3438 470.159 23.4688C470.144 24.5625 470.941 25.2656 472.05 25.25C473.128 25.2656 473.909 24.5625 473.909 23.4688C473.909 22.3438 473.128 21.6875 472.05 21.6875ZM475.206 27.8438C478.222 27.8438 480.097 28.875 480.113 30.6406C480.097 32.4062 478.222 33.4375 475.206 33.4375C472.206 33.4375 470.316 32.4062 470.316 30.6406C470.316 28.875 472.206 27.8438 475.206 27.8438ZM475.206 29.3594C473.316 29.3594 472.269 29.7812 472.269 30.6406C472.269 31.4688 473.316 31.8906 475.206 31.8906C477.128 31.8906 478.159 31.4688 478.159 30.6406C478.159 29.7812 477.128 29.3594 475.206 29.3594ZM475.722 22.6719C475.769 22.9219 475.8 23.1953 475.8 23.4688C475.8 23.7422 475.769 24 475.722 24.25H478.081V22.6719H475.722ZM496.754 19.8281V21.3906H492.832C493.066 22.5625 494.535 23.75 497.348 24.0625L496.613 25.625C493.949 25.3281 492.168 24.2188 491.426 22.75C490.676 24.2109 488.91 25.3281 486.254 25.625L485.535 24.0625C488.348 23.75 489.801 22.5469 490.035 21.3906H486.144V19.8281H496.754ZM497.957 26.2969V27.8906H492.598V30.3438H490.629V27.8906H484.941V26.2969H497.957ZM496.519 31.5938V33.1875H486.473V29.0781H488.457V31.5938H496.519ZM510.371 19.2188V33.4688H508.356V19.2188H510.371ZM501.168 20.3438V23.8125H504.231V20.3438H506.199V30.1406H499.168V20.3438H501.168ZM501.168 28.5312H504.231V25.3594H501.168V28.5312Z" fill="black"/>
<path d="M372.41 40.4961V50.9961H371.332V40.4961H372.41ZM370.242 40.7188V50.4688H369.188V45.3711H367.031V44.4453H369.188V40.7188H370.242ZM367.746 41.75V42.6641H364.852V47.5977C366.229 47.5859 367.154 47.5273 368.238 47.293L368.332 48.2305C367.125 48.4766 366.094 48.5234 364.453 48.5234H363.762V41.75H367.746ZM382.213 40.4961V51.0195H381.1V40.4961H382.213ZM376.6 41.2812C378.158 41.2812 379.307 42.7109 379.307 44.9609C379.307 47.2227 378.158 48.6523 376.6 48.6523C375.018 48.6523 373.881 47.2227 373.881 44.9609C373.881 42.7109 375.018 41.2812 376.6 41.2812ZM376.6 42.2773C375.627 42.2773 374.959 43.3086 374.959 44.9609C374.959 46.625 375.627 47.6562 376.6 47.6562C377.561 47.6562 378.229 46.625 378.229 44.9609C378.229 43.3086 377.561 42.2773 376.6 42.2773ZM392.403 40.4961V51.0195H391.301V45.2891H389.215V44.375H391.301V40.4961H392.403ZM389.04 41.4336V42.3359H385.254V44.375H388.594V45.2656H385.254V47.6094C387.012 47.6035 388.231 47.5625 389.625 47.3164L389.743 48.2188C388.219 48.4648 386.895 48.5234 384.95 48.5352H384.129V41.4336H389.04ZM405.188 41V41.8906H401.989C402.054 43.0332 403.565 44.041 405.517 44.2812L405.095 45.1602C403.296 44.9258 401.819 44.0879 401.251 42.9102C400.683 44.082 399.212 44.9258 397.419 45.1602L396.997 44.2812C398.96 44.041 400.454 43.0332 400.513 41.8906H397.349V41H405.188ZM406.067 45.8398V46.7422H401.895V48.7812H400.794V46.7422H396.458V45.8398H406.067ZM405.001 49.8711V50.7734H397.653V47.7734H398.767V49.8711H405.001ZM415.296 40.4961V51.0195H414.183V40.4961H415.296ZM408.3 41.375V44.0703H411.124V41.375H412.226V48.5H407.187V41.375H408.3ZM408.3 47.5859H411.124V44.9492H408.3V47.5859ZM422.609 40.9648C424.144 40.9648 425.222 41.8086 425.234 43.0625C425.222 44.1289 424.414 44.9141 423.195 45.1016V46.0273C424.127 45.9805 425.058 45.8984 425.925 45.7695L426.007 46.5898C423.804 46.9883 421.332 47.0234 419.527 47.0234L419.41 46.1211C420.195 46.127 421.115 46.1211 422.082 46.0859V45.1133C420.828 44.9375 419.984 44.1465 419.996 43.0625C419.984 41.8086 421.074 40.9648 422.609 40.9648ZM422.609 41.8203C421.683 41.8203 421.027 42.3008 421.039 43.0625C421.027 43.8008 421.683 44.293 422.609 44.293C423.547 44.293 424.179 43.8008 424.179 43.0625C424.179 42.3008 423.547 41.8203 422.609 41.8203ZM427.683 40.5078V43.9766H429.183V44.9141H427.683V48.5352H426.57V40.5078H427.683ZM428.058 49.8594V50.7734H420.898V47.832H422.011V49.8594H428.058ZM439.162 48.8047V49.7422H429.553V48.8047H432.178V46.9531H430.725V43.6133H436.889V42.1484H430.701V41.2344H437.99V44.5156H431.826V46.0391H438.236V46.9531H436.643V48.8047H439.162ZM433.256 48.8047H435.553V46.9531H433.256V48.8047ZM443.006 46.7656C443.018 44.5625 443.639 42.7227 444.741 41.1523H445.889C445.08 42.3125 444.307 44.6797 444.307 46.7656C444.307 48.8633 445.08 51.2188 445.889 52.3906H444.741C443.639 50.8203 443.018 48.9805 443.006 46.7656ZM446.786 50V49.0625L449.727 46.0977C450.653 45.125 451.122 44.5859 451.122 43.8477C451.122 43.0156 450.442 42.4766 449.551 42.4766C448.614 42.4766 448.005 43.0742 448.005 43.9766H446.786C446.774 42.4297 447.958 41.3984 449.575 41.3984C451.215 41.3984 452.34 42.4297 452.352 43.8125C452.34 44.7617 451.895 45.5117 450.301 47.082L448.579 48.8281V48.8984H452.493V50H446.786ZM456.296 40.8477C457.878 40.8594 459.038 41.832 459.05 43.2031C459.038 44.5859 457.878 45.5469 456.296 45.5469C454.702 45.5469 453.53 44.5859 453.53 43.2031C453.53 41.832 454.702 40.8594 456.296 40.8477ZM456.296 41.7852C455.323 41.7734 454.608 42.3477 454.62 43.2031C454.608 44.0703 455.323 44.6445 456.296 44.6445C457.257 44.6445 457.972 44.0703 457.972 43.2031C457.972 42.3477 457.257 41.7734 456.296 41.7852ZM462.026 40.4961V45.8398H460.913V40.4961H462.026ZM462.026 46.3203V48.9688H456.237V49.9766H462.378V50.8672H455.159V48.1367H460.925V47.2109H455.124V46.3203H462.026ZM466.878 45.5352C467.265 45.1016 467.745 44.8789 468.273 44.8789C469.187 44.8789 469.995 45.5469 470.886 45.5469C471.425 45.5469 471.894 45.3125 472.257 44.8438V45.9688C471.859 46.4023 471.39 46.625 470.863 46.625C469.949 46.625 469.128 45.957 468.238 45.957C467.71 45.957 467.253 46.1914 466.878 46.6602V45.5352ZM479.805 41.5156V50H478.504V42.8047H478.457L476.43 44.1289V42.8984L478.539 41.5156H479.805ZM482.014 50L485.799 42.6875V42.6172H481.428V41.5156H487.135V42.6641L483.361 50H482.014ZM490.809 40.8477C492.391 40.8594 493.551 41.832 493.563 43.2031C493.551 44.5859 492.391 45.5469 490.809 45.5469C489.215 45.5469 488.043 44.5859 488.043 43.2031C488.043 41.832 489.215 40.8594 490.809 40.8477ZM490.809 41.7852C489.836 41.7734 489.121 42.3477 489.133 43.2031C489.121 44.0703 489.836 44.6445 490.809 44.6445C491.77 44.6445 492.485 44.0703 492.485 43.2031C492.485 42.3477 491.77 41.7734 490.809 41.7852ZM496.539 40.4961V45.8398H495.426V40.4961H496.539ZM496.539 46.3203V48.9688H490.75V49.9766H496.891V50.8672H489.672V48.1367H495.438V47.2109H489.637V46.3203H496.539ZM500.846 46.7656C500.835 48.9805 500.213 50.8203 499.112 52.3906H497.963C498.772 51.2188 499.545 48.8633 499.545 46.7656C499.545 44.6797 498.772 42.3125 497.963 41.1523H499.112C500.213 42.7227 500.835 44.5625 500.846 46.7656Z" fill="#8A8A8B"/>
<mask id="path-16-inside-4_4503_9292" fill="white">
<path fill-rule="evenodd" clip-rule="evenodd" d="M10 0C4.47715 0 0 4.47715 0 10V60C0 65.5229 4.47715 70 10 70H164.235C164.718 70 165.193 69.9658 165.658 69.8996C167.716 69.9148 169.819 69.151 171.512 67.4229L197.655 40.7351C200.777 37.5488 200.777 32.4512 197.655 29.2649L171.512 2.57708C169.819 0.84893 167.716 0.0851274 165.658 0.100438C165.193 0.0342443 164.718 0 164.235 0H10Z"/>
</mask>
<path fill-rule="evenodd" clip-rule="evenodd" d="M10 0C4.47715 0 0 4.47715 0 10V60C0 65.5229 4.47715 70 10 70H164.235C164.718 70 165.193 69.9658 165.658 69.8996C167.716 69.9148 169.819 69.151 171.512 67.4229L197.655 40.7351C200.777 37.5488 200.777 32.4512 197.655 29.2649L171.512 2.57708C169.819 0.84893 167.716 0.0851274 165.658 0.100438C165.193 0.0342443 164.718 0 164.235 0H10Z" fill="white"/>
<path d="M165.658 69.8996L165.665 68.8996L165.59 68.899L165.517 68.9095L165.658 69.8996ZM171.512 67.4229L170.797 66.7231L170.797 66.7231L171.512 67.4229ZM197.655 40.7351L198.37 41.4349L198.37 41.4349L197.655 40.7351ZM197.655 29.2649L198.37 28.5651L198.37 28.5651L197.655 29.2649ZM171.512 2.57708L172.226 1.8773L172.226 1.8773L171.512 2.57708ZM165.658 0.100438L165.517 1.09045L165.59 1.10096L165.665 1.10041L165.658 0.100438ZM1 10C1 5.02944 5.02944 1 10 1V-1C3.92487 -1 -1 3.92487 -1 10H1ZM1 60V10H-1V60H1ZM10 69C5.02943 69 1 64.9706 1 60H-1C-1 66.0751 3.92487 71 10 71V69ZM164.235 69H10V71H164.235V69ZM165.517 68.9095C165.098 68.9691 164.671 69 164.235 69V71C164.765 71 165.287 70.9624 165.799 70.8896L165.517 68.9095ZM170.797 66.7231C169.302 68.2498 167.463 68.9129 165.665 68.8996L165.65 70.8995C167.969 70.9167 170.336 70.0523 172.226 68.1227L170.797 66.7231ZM196.941 40.0353L170.797 66.7231L172.226 68.1227L198.37 41.4349L196.941 40.0353ZM196.941 29.9647C199.681 32.7622 199.681 37.2378 196.941 40.0353L198.37 41.4349C201.872 37.8598 201.872 32.1402 198.37 28.5651L196.941 29.9647ZM170.797 3.27687L196.941 29.9647L198.37 28.5651L172.226 1.8773L170.797 3.27687ZM165.665 1.10041C167.463 1.08704 169.302 1.75014 170.797 3.27687L172.226 1.8773C170.336 -0.052281 167.969 -0.916783 165.65 -0.899535L165.665 1.10041ZM164.235 1C164.671 1 165.098 1.03088 165.517 1.09045L165.799 -0.88957C165.287 -0.962396 164.765 -1 164.235 -1V1ZM10 1H164.235V-1H10V1Z" fill="#17BF98" mask="url(#path-16-inside-4_4503_9292)"/>
<rect x="25" y="25" width="20" height="20" rx="10" fill="#3CC3AC"/>
<path d="M31.25 35.4409L34.0485 38.1382L37.2499 35.1292L40 32.5" stroke="white" stroke-width="1.875" stroke-linecap="round"/>
<path d="M68.4375 30.1562V31.7812H55.4219V30.1562H60.9062V27.5312H56.7969V20.125H58.7969V22.3281H65V20.125H66.9844V27.5312H62.8906V30.1562H68.4375ZM58.7969 25.9375H65V23.9219H58.7969V25.9375ZM80.6488 20.4531V21.7969C80.6488 23.5781 80.6488 25.5781 80.0706 28.5938L78.0706 28.3906C78.6097 25.7031 78.6331 23.7031 78.6488 22.0312H70.2738V20.4531H80.6488ZM81.8988 30.0781V31.7031H68.93V30.0781H73.5706V25.1875H75.555V30.0781H81.8988ZM87.8131 22.4375C87.8131 25.1094 88.8913 27.7031 91.2663 28.7344L90.0475 30.3281C88.4694 29.5547 87.4147 28.1406 86.8288 26.3906C86.2038 28.25 85.11 29.7734 83.485 30.5781L82.235 28.9531C84.6725 27.8594 85.7819 25.1094 85.7975 22.4375V20.3125H87.8131V22.4375ZM94.4381 19.2188V33.4688H92.4694V25.2969H89.6725V23.6875H92.4694V19.2188H94.4381ZM103.861 21.75C103.861 23.2812 104.658 24.8125 106.548 25.5312L105.486 27.0469C104.275 26.5859 103.439 25.7422 102.923 24.6875C102.408 25.9219 101.517 26.9531 100.189 27.5L99.1106 25.9688C101.111 25.0938 101.923 23.3438 101.923 21.75V20.0781H103.861V21.75ZM111.533 19.2344V27.9219H109.642V24.3125H108.454V27.4844H106.595V19.4844H108.454V22.7031H109.642V19.2344H111.533ZM106.673 28.125C109.673 28.125 111.595 29.125 111.611 30.7812C111.595 32.4375 109.673 33.4375 106.673 33.4375C103.658 33.4375 101.751 32.4375 101.751 30.7812C101.751 29.125 103.658 28.125 106.673 28.125ZM106.673 29.6094C104.814 29.6094 103.736 30.0156 103.751 30.7812C103.736 31.5469 104.814 31.9375 106.673 31.9375C108.517 31.9375 109.595 31.5469 109.595 30.7812C109.595 30.0156 108.517 29.6094 106.673 29.6094ZM118.197 21.1562C118.181 23.0625 119.166 24.8125 121.447 25.5156L120.4 27.0781C118.869 26.5469 117.83 25.5625 117.244 24.2812C116.603 25.7656 115.455 26.9375 113.744 27.5156L112.697 25.9219C115.134 25.1406 116.166 23.2344 116.181 21.25V19.9531H118.197V21.1562ZM124.806 19.2188V27.5469H122.822V23.4531H120.15V21.8281H122.822V19.2188H124.806ZM119.947 27.9219C122.978 27.9219 124.838 28.9375 124.853 30.6875C124.838 32.4375 122.978 33.4375 119.947 33.4375C116.916 33.4375 115.056 32.4375 115.056 30.6875C115.056 28.9375 116.916 27.9219 119.947 27.9219ZM119.947 29.4688C118.056 29.4688 117.041 29.875 117.041 30.6875C117.041 31.4688 118.056 31.8906 119.947 31.8906C121.838 31.8906 122.869 31.4688 122.869 30.6875C122.869 29.875 121.838 29.4688 119.947 29.4688Z" fill="black"/>
<path d="M58.5977 42.5117C58.5977 43.6602 59.3359 44.8203 60.6953 45.3359L60.1094 46.1914C59.1309 45.8164 58.4453 45.1016 58.0703 44.2344C57.6836 45.2129 56.9629 46.0625 55.9492 46.4961L55.3398 45.6289C56.7578 45.0078 57.5195 43.6836 57.5195 42.5117V41.1523H58.5977V42.5117ZM64.3398 40.5078V46.9648H63.2852V44.1523H62.0547V46.6367H61.0234V40.6953H62.0547V43.2383H63.2852V40.5078H64.3398ZM60.8242 47.1641C63.0156 47.1641 64.3867 47.8789 64.3984 49.0742C64.3867 50.2695 63.0156 50.9844 60.8242 50.9727C58.6328 50.9844 57.2617 50.2695 57.2734 49.0742C57.2617 47.8789 58.6328 47.1641 60.8242 47.1641ZM60.8242 48.0195C59.3008 48.0195 58.3633 48.4062 58.375 49.0742C58.3633 49.7422 59.3008 50.1289 60.8242 50.1172C62.3477 50.1289 63.2734 49.7422 63.2852 49.0742C63.2734 48.4062 62.3477 48.0195 60.8242 48.0195ZM69.2444 42.0664C69.2444 43.543 70.1936 44.8555 71.7873 45.3711L71.178 46.2383C70.0237 45.8223 69.1741 45.0137 68.717 43.9648C68.26 45.166 67.3459 46.0977 66.0803 46.5547L65.4827 45.6641C67.1584 45.0898 68.1311 43.6953 68.1428 42.1133V41.082H69.2444V42.0664ZM74.2717 40.4961V46.6953H73.1584V43.543H70.9436V42.6289H73.1584V40.4961H74.2717ZM70.7561 46.9883C72.9592 46.9883 74.3069 47.7148 74.3069 48.9922C74.3069 50.2578 72.9592 50.9844 70.7561 50.9727C68.553 50.9844 67.1936 50.2578 67.2053 48.9922C67.1936 47.7148 68.553 46.9883 70.7561 46.9883ZM70.7561 47.8555C69.2209 47.8555 68.3069 48.2656 68.3069 48.9922C68.3069 49.6953 69.2209 50.0938 70.7561 50.0938C72.2913 50.0938 73.2053 49.6953 73.2053 48.9922C73.2053 48.2656 72.2913 47.8555 70.7561 47.8555ZM81.5261 40.9648C83.0613 40.9648 84.1394 41.8086 84.1511 43.0625C84.1394 44.1289 83.3308 44.9141 82.112 45.1016V46.0273C83.0437 45.9805 83.9753 45.8984 84.8425 45.7695L84.9245 46.5898C82.7214 46.9883 80.2488 47.0234 78.4441 47.0234L78.3269 46.1211C79.112 46.127 80.032 46.1211 80.9988 46.0859V45.1133C79.7448 44.9375 78.9011 44.1465 78.9128 43.0625C78.9011 41.8086 79.9909 40.9648 81.5261 40.9648ZM81.5261 41.8203C80.6003 41.8203 79.9441 42.3008 79.9558 43.0625C79.9441 43.8008 80.6003 44.293 81.5261 44.293C82.4636 44.293 83.0964 43.8008 83.0964 43.0625C83.0964 42.3008 82.4636 41.8203 81.5261 41.8203ZM86.6003 40.5078V43.9766H88.1003V44.9141H86.6003V48.5352H85.487V40.5078H86.6003ZM86.9753 49.8594V50.7734H79.8152V47.832H80.9284V49.8594H86.9753ZM98.0791 48.8047V49.7422H88.4697V48.8047H91.0947V46.9531H89.6416V43.6133H95.8056V42.1484H89.6181V41.2344H96.9072V44.5156H90.7431V46.0391H97.1533V46.9531H95.5595V48.8047H98.0791ZM92.1728 48.8047H94.4697V46.9531H92.1728V48.8047ZM101.923 46.7656C101.935 44.5625 102.556 42.7227 103.658 41.1523H104.806C103.998 42.3125 103.224 44.6797 103.224 46.7656C103.224 48.8633 103.998 51.2188 104.806 52.3906H103.658C102.556 50.8203 101.935 48.9805 101.923 46.7656ZM108.925 41.5156V50H107.625V42.8047H107.578L105.55 44.1289V42.8984L107.66 41.5156H108.925ZM113.455 40.8477C115.037 40.8594 116.197 41.832 116.209 43.2031C116.197 44.5859 115.037 45.5469 113.455 45.5469C111.861 45.5469 110.689 44.5859 110.689 43.2031C110.689 41.832 111.861 40.8594 113.455 40.8477ZM113.455 41.7852C112.482 41.7734 111.768 42.3477 111.779 43.2031C111.768 44.0703 112.482 44.6445 113.455 44.6445C114.416 44.6445 115.131 44.0703 115.131 43.2031C115.131 42.3477 114.416 41.7734 113.455 41.7852ZM119.185 40.4961V45.8398H118.072V40.4961H119.185ZM119.185 46.3203V48.9688H113.396V49.9766H119.537V50.8672H112.318V48.1367H118.084V47.2109H112.283V46.3203H119.185ZM123.492 46.7656C123.481 48.9805 122.86 50.8203 121.758 52.3906H120.61C121.418 51.2188 122.192 48.8633 122.192 46.7656C122.192 44.6797 121.418 42.3125 120.61 41.1523H121.758C122.86 42.7227 123.481 44.5625 123.492 46.7656Z" fill="#8A8A8B"/>
</svg>
