<svg width="400" height="500" viewBox="0 0 400 500" fill="none" xmlns="http://www.w3.org/2000/svg">
<g filter="url(#filter0_d_4760_14186)">
<rect x="20" y="86" width="320" height="104" rx="12" fill="white" shape-rendering="crispEdges"/>
<path d="M40.7061 127V126.117L43.4753 123.326C44.3469 122.41 44.7882 121.903 44.7882 121.208C44.7882 120.425 44.1483 119.917 43.3098 119.917C42.4272 119.917 41.8535 120.48 41.8535 121.329H40.7061C40.6951 119.873 41.8094 118.902 43.3319 118.902C44.8764 118.902 45.9356 119.873 45.9466 121.175C45.9356 122.068 45.5163 122.774 44.0159 124.253L42.3941 125.897V125.963H46.079V127H40.7061ZM50.2052 127.11C48.3517 127.11 47.2705 125.621 47.2705 123.006C47.2705 120.413 48.3738 118.902 50.2052 118.902C52.0366 118.902 53.1399 120.413 53.1399 123.006C53.1399 125.621 52.0477 127.11 50.2052 127.11ZM50.2052 126.062C51.2864 126.062 51.9263 125.003 51.9263 123.006C51.9263 121.02 51.2754 119.928 50.2052 119.928C49.135 119.928 48.4841 121.02 48.4841 123.006C48.4841 125.003 49.124 126.062 50.2052 126.062ZM59.0645 118.924V123.536H54.4418V118.924H59.0645ZM55.4678 119.774V122.708H58.0384V119.774H55.4678ZM61.8226 118.041V120.998H63.2569V121.881H61.8226V125.29H60.7745V118.041H61.8226ZM62.2419 126.879V127.728H55.5561V124.595H56.6042V126.879H62.2419ZM72.0609 118.053V123.889H71.0128V122.421H68.8615V123.227H64.2719V118.792H68.8615V119.608H71.0128V118.053H72.0609ZM65.3089 119.63V122.388H67.8354V119.63H65.3089ZM68.7511 124.165C70.8253 124.165 72.094 124.849 72.094 126.051C72.094 127.243 70.8253 127.927 68.7511 127.916C66.677 127.927 65.3972 127.243 65.4082 126.051C65.3972 124.849 66.677 124.165 68.7511 124.165ZM68.7511 124.97C67.3059 124.981 66.4453 125.356 66.4453 126.051C66.4453 126.713 67.3059 127.11 68.7511 127.11C70.1964 127.11 71.057 126.713 71.057 126.051C71.057 125.356 70.1964 124.981 68.7511 124.97ZM68.8615 121.572H71.0128V120.447H68.8615V121.572ZM76.805 118.759C78.3716 118.748 79.4859 119.718 79.497 121.109C79.4859 122.499 78.3716 123.47 76.805 123.47C75.2494 123.47 74.102 122.499 74.113 121.109C74.102 119.718 75.2494 118.748 76.805 118.759ZM76.805 119.663C75.8451 119.663 75.1391 120.237 75.1501 121.109C75.1391 121.98 75.8451 122.554 76.805 122.554C77.7648 122.554 78.4709 121.98 78.4709 121.109C78.4709 120.237 77.7648 119.663 76.805 119.663ZM81.7587 118.053V127.96H80.7106V118.053H81.7587ZM73.6386 124.959C75.4369 124.959 77.9303 124.937 80.0927 124.628L80.1699 125.389C77.9303 125.82 75.5362 125.831 73.771 125.831L73.6386 124.959ZM89.5367 120.568C89.5257 122.322 90.5407 124.109 92.019 124.827L91.3681 125.665C90.2924 125.108 89.4595 123.999 89.0292 122.675C88.5824 124.087 87.7163 125.268 86.591 125.853L85.94 125.003C87.4625 124.275 88.4886 122.377 88.4886 120.568V118.88H89.5367V120.568ZM93.8063 118.053V121.991H95.395V122.885H93.8063V127.938H92.7582V118.053H93.8063ZM98.6055 118.505C99.9074 118.494 100.911 119.25 101.132 120.358H103.063V118.053H104.111V123.359H103.063V121.219H101.143C100.928 122.355 99.9184 123.117 98.6055 123.117C97.0941 123.117 96.0129 122.168 96.0129 120.8C96.0129 119.454 97.0941 118.494 98.6055 118.505ZM98.6055 119.376C97.6678 119.376 97.0168 119.95 97.0168 120.8C97.0168 121.649 97.6678 122.234 98.6055 122.234C99.5213 122.234 100.172 121.649 100.172 120.8C100.172 119.95 99.5213 119.376 98.6055 119.376ZM98.7048 123.834V124.981H103.063V123.834H104.111V127.816H97.6678V123.834H98.7048ZM98.7048 126.956H103.063V125.808H98.7048V126.956ZM109.076 120.965C109.076 122.532 110.102 124.275 111.602 124.981L111.006 125.797C109.897 125.262 109.02 124.148 108.579 122.852C108.121 124.269 107.194 125.489 106.064 126.051L105.446 125.224C106.946 124.507 108.038 122.642 108.038 120.965V119.917H105.81V119.045H111.227V119.917H109.076V120.965ZM113.334 118.053V121.969H114.923V122.852H113.334V127.938H112.286V118.053H113.334ZM127.191 123.227V124.065H123.264V125.886H122.226V124.065H118.144V123.227H127.191ZM126.187 126.879V127.728H119.27V125.025H120.307V126.879H126.187ZM120.373 118.361V119.564H124.952V118.361H126V122.355H119.336V118.361H120.373ZM120.373 121.517H124.952V120.347H120.373V121.517ZM131.406 119.63C131.395 120.943 132.299 122.179 133.789 122.675L133.215 123.514C132.123 123.122 131.317 122.322 130.898 121.318C130.462 122.421 129.624 123.288 128.471 123.723L127.908 122.874C129.453 122.333 130.347 121.031 130.358 119.575V118.56H131.406V119.63ZM136.161 124.429V127.938H135.113V125.257H129.464V124.429H136.161ZM136.161 118.053V123.911H135.113V120.91H133.027V120.049H135.113V118.053H136.161ZM142.185 118.218C144.413 118.218 145.715 118.814 145.715 119.917C145.715 121.02 144.413 121.627 142.185 121.627C139.956 121.627 138.654 121.02 138.654 119.917C138.654 118.814 139.956 118.218 142.185 118.218ZM142.185 118.99C140.607 118.99 139.735 119.332 139.746 119.917C139.735 120.524 140.607 120.844 142.185 120.844C143.762 120.844 144.634 120.524 144.634 119.917C144.634 119.332 143.762 118.99 142.185 118.99ZM146.697 122.234V123.072H137.683V122.234H146.697ZM145.561 123.834V126.15H139.802V127.033H145.836V127.838H138.775V125.389H144.524V124.617H138.764V123.834H145.561ZM159.219 123.249V124.076H150.183V123.249H154.177V122.388H151.364V118.317H158.116V119.145H152.423V119.95H157.862V120.733H152.423V121.572H158.182V122.388H155.225V123.249H159.219ZM154.707 124.727C156.88 124.716 158.116 125.29 158.116 126.327C158.116 127.375 156.88 127.927 154.707 127.916C152.511 127.927 151.276 127.375 151.276 126.327C151.276 125.29 152.511 124.716 154.707 124.727ZM154.707 125.511C153.151 125.511 152.313 125.797 152.324 126.327C152.313 126.857 153.151 127.132 154.707 127.121C156.24 127.132 157.068 126.857 157.068 126.327C157.068 125.797 156.24 125.511 154.707 125.511ZM167.736 118.064V121.241H169.17V122.113H167.736V125.455H166.688V118.064H167.736ZM165.872 119.211V120.06H159.98V119.211H162.407V118.053H163.456V119.211H165.872ZM162.926 120.535C164.349 120.535 165.32 121.274 165.32 122.399C165.32 123.525 164.349 124.253 162.926 124.253C161.492 124.253 160.521 123.525 160.521 122.399C160.521 121.274 161.492 120.535 162.926 120.535ZM162.926 121.34C162.088 121.34 161.525 121.748 161.536 122.399C161.525 123.039 162.088 123.436 162.926 123.436C163.764 123.436 164.327 123.039 164.338 122.399C164.327 121.748 163.764 121.34 162.926 121.34ZM168.155 126.879V127.728H161.47V124.871H162.518V126.879H168.155ZM49.4771 138.767V139.871H45.5494V143.015H44.1593V139.871H40.2868V138.767H49.4771ZM42.7582 133.361V134.52H46.9726V133.361H48.3848V137.797H41.3681V133.361H42.7582ZM42.7582 136.671H46.9726V135.623H42.7582V136.671ZM57.9833 132.975V136.826H59.4065V137.984H57.9833V142.993H56.5711V132.975H57.9833ZM55.3023 134.001C55.2913 137.002 54.1218 139.606 50.7458 141.261L49.9515 140.18C52.329 138.988 53.6033 137.388 53.8681 135.149H50.5252V134.001H55.3023ZM63.0472 135.502C63.0472 137.124 63.4996 138.801 64.8676 139.683L64.1064 140.775C63.2403 140.251 62.6887 139.391 62.3743 138.359C62.0102 139.496 61.4089 140.444 60.4987 140.996L59.6382 139.959C61.1276 139.032 61.6792 137.267 61.6792 135.568V133.836H63.0472V135.502ZM68.5305 132.975V143.015H67.1845V132.975H68.5305ZM66.4232 133.119V142.552H65.1104V137.51H63.8085V136.362H65.1104V133.119H66.4232ZM77.9303 133.361V134.487H75.9334C75.972 135.491 76.7002 136.539 78.2282 136.98L77.5773 138.094C76.4464 137.769 75.6686 137.101 75.2273 136.263C74.7695 137.19 73.953 137.951 72.7891 138.304L72.1051 137.212C73.6772 136.71 74.4605 135.551 74.5212 134.487H72.4912V133.361H77.9303ZM80.6554 132.975V138.083H79.2542V136.153H77.6766V135.038H79.2542V132.975H80.6554ZM80.6554 138.47V141.184H75.3928V141.823H80.9533V142.916H73.9806V140.158H79.2542V139.584H73.9696V138.47H80.6554ZM85.1788 135.502C85.1788 137.124 85.6311 138.801 86.9992 139.683L86.2379 140.775C85.3719 140.251 84.8202 139.391 84.5058 138.359C84.1417 139.496 83.5404 140.444 82.6302 140.996L81.7697 139.959C83.2591 139.032 83.8107 137.267 83.8107 135.568V133.836H85.1788V135.502ZM90.662 132.975V143.015H89.316V132.975H90.662ZM88.5548 133.119V142.552H87.2419V137.51H85.94V136.362H87.2419V133.119H88.5548ZM98.2415 134.961C98.2415 136.164 98.9806 137.388 100.636 137.885L99.9184 138.988C98.7931 138.635 97.9987 137.912 97.5464 137.002C97.0885 137.99 96.2721 138.784 95.0972 139.176L94.369 138.072C96.0349 137.532 96.8072 136.23 96.8072 134.961V134.818H94.7441V133.692H100.26V134.818H98.2415V134.961ZM102.732 132.986V140.246H101.32V132.986H102.732ZM102.997 141.713V142.838H96.0018V139.584H97.425V141.713H102.997ZM112.054 132.975V135.711H113.411V136.87H112.054V140.235H110.642V132.975H112.054ZM109.009 133.781V134.906H105.887V137.444C107.702 137.432 108.7 137.377 109.826 137.135L109.969 138.26C108.711 138.525 107.553 138.58 105.324 138.58H104.475V133.781H109.009ZM112.418 141.713V142.838H105.545V139.462H106.946V141.713H112.418ZM118.166 142H116.379L119.148 134.012H121.278L124.036 142H122.26L121.664 140.158H118.773L118.166 142ZM119.192 138.867H121.245L120.241 135.811H120.185L119.192 138.867ZM126.595 134.012V142H124.941V134.012H126.595ZM136.006 132.975V143.015H134.583V132.975H136.006ZM132.994 134.023C132.994 137.068 131.924 139.595 128.339 141.294L127.599 140.169C130.192 138.944 131.334 137.355 131.56 135.127H128.14V134.023H132.994ZM142.637 133.24C142.637 134.222 143.795 135.204 146.035 135.447L145.572 136.506C143.823 136.313 142.549 135.656 141.909 134.729C141.252 135.656 139.984 136.313 138.257 136.506L137.783 135.447C140.033 135.204 141.181 134.222 141.192 133.24V133.03H142.637V133.24ZM146.487 136.925V138.028H142.604V138.69H145.373V141.283H139.779V141.89H145.638V142.949H138.4V140.29H143.983V139.76H138.389V138.69H141.192V138.028H137.33V136.925H146.487ZM151.662 133.218C153.89 133.218 155.192 133.814 155.192 134.917C155.192 136.02 153.89 136.627 151.662 136.627C149.433 136.627 148.131 136.02 148.131 134.917C148.131 133.814 149.433 133.218 151.662 133.218ZM151.662 133.99C150.084 133.99 149.212 134.332 149.223 134.917C149.212 135.524 150.084 135.844 151.662 135.844C153.239 135.844 154.111 135.524 154.111 134.917C154.111 134.332 153.239 133.99 151.662 133.99ZM156.174 137.234V138.072H147.16V137.234H156.174ZM155.038 138.834V141.15H149.279V142.033H155.313V142.838H148.253V140.389H154.001V139.617H148.242V138.834H155.038ZM48.1421 148.053V150.513H49.5543V151.406H48.1421V153.878H47.094V148.053H48.1421ZM48.1421 154.297V156.36H42.6809V157.11H48.5062V157.838H41.6328V155.687H47.105V155.025H41.6108V154.297H48.1421ZM40.2979 152.94C41.0647 152.94 41.9528 152.94 42.8795 152.907V152.355C41.7432 152.25 41.0371 151.798 41.0481 151.053C41.0371 150.248 41.9638 149.774 43.3981 149.774C44.8213 149.774 45.748 150.248 45.748 151.053C45.748 151.793 45.0474 152.245 43.9276 152.355V152.874C44.8102 152.83 45.7039 152.758 46.5313 152.642L46.6196 153.326C44.4903 153.679 42.1514 153.69 40.4082 153.69L40.2979 152.94ZM46.2555 148.759V149.487H40.5516V148.759H42.8795V147.964H43.9276V148.759H46.2555ZM43.3981 150.458C42.5485 150.458 42.041 150.678 42.041 151.053C42.041 151.451 42.5485 151.693 43.3981 151.693C44.2365 151.693 44.744 151.451 44.744 151.053C44.744 150.678 44.2365 150.458 43.3981 150.458ZM59.1417 152.874V153.723H50.128V152.874H52.2904V151.539C51.5291 151.23 51.0989 150.733 51.0989 150.083C51.0989 148.913 52.4559 148.229 54.6293 148.229C56.7917 148.229 58.1598 148.913 58.1598 150.083C58.1598 150.733 57.724 151.235 56.9572 151.539V152.874H59.1417ZM54.6293 154.396C56.7586 154.396 58.0384 155.025 58.0384 156.15C58.0384 157.298 56.7586 157.916 54.6293 157.916C52.4779 157.916 51.1982 157.298 51.1982 156.15C51.1982 155.025 52.4779 154.396 54.6293 154.396ZM54.6293 155.202C53.1178 155.202 52.2573 155.544 52.2573 156.15C52.2573 156.768 53.1178 157.121 54.6293 157.11C56.1187 157.121 56.9903 156.768 56.9903 156.15C56.9903 155.544 56.1187 155.202 54.6293 155.202ZM54.6293 149.034C53.0958 149.034 52.169 149.421 52.1801 150.083C52.169 150.744 53.0958 151.12 54.6293 151.12C56.1629 151.12 57.0786 150.744 57.0786 150.083C57.0786 149.421 56.1629 149.034 54.6293 149.034ZM53.3495 152.874H55.9201V151.815C55.534 151.881 55.0982 151.914 54.6293 151.914C54.1659 151.914 53.7357 151.881 53.3495 151.826V152.874ZM67.6589 148.053V150.535H69.0931V151.417H67.6589V153.812H66.6108V148.053H67.6589ZM62.3743 154.22V155.18H66.6108V154.22H67.6589V157.816H61.3372V154.22H62.3743ZM62.3743 156.978H66.6108V155.996H62.3743V156.978ZM65.7944 149.023V149.862H59.9029V149.023H62.3301V147.964H63.3782V149.023H65.7944ZM62.8487 150.27C64.2719 150.27 65.2427 150.943 65.2427 152.002C65.2427 153.05 64.2719 153.745 62.8487 153.734C61.4034 153.745 60.4435 153.05 60.4435 152.002C60.4435 150.943 61.4034 150.27 62.8487 150.27ZM62.8487 151.053C62.0102 151.042 61.4475 151.429 61.4585 152.002C61.4475 152.587 62.0102 152.962 62.8487 152.962C63.6871 152.962 64.2498 152.587 64.2608 152.002C64.2498 151.429 63.6871 151.042 62.8487 151.053ZM77.8641 148.053V157.938H76.816V148.053H77.8641ZM71.2997 149.012V154.518C72.7394 154.507 74.2564 154.391 75.8451 154.065L75.9886 154.948C74.2344 155.301 72.6457 155.422 71.0901 155.422H70.2626V149.012H71.2997ZM87.1205 148.053V151.881H88.7092V152.741H87.1205V157.96H86.0724V148.053H87.1205ZM84.4617 149.001V149.851H80.8871V154.628C82.5475 154.622 83.7942 154.551 85.2008 154.297L85.3332 155.18C83.7887 155.455 82.4758 155.511 80.6333 155.5H79.839V149.001H84.4617ZM90.309 157.077C89.8787 157.077 89.5146 156.724 89.5257 156.294C89.5146 155.864 89.8787 155.511 90.309 155.511C90.7282 155.511 91.0923 155.864 91.0923 156.294C91.0923 156.724 90.7282 157.077 90.309 157.077Z" fill="#333333"/>
<g clip-path="url(#clip0_4760_14186)">
<path d="M305.019 111.822V108.523H298.431V111.822H296.125V108.523H289.537V111.822H287.231V108.523H283.937C283.937 126.929 270.332 142.152 252.643 144.663V146.457H254.949V148.766H252.643V155.363H254.949V157.013H305.019V154.704H307.325V147.447H305.019V145.138H307.325V139.2H305.019V136.891H307.325V129.634H305.019V127.325H307.325V121.388H305.019V119.079H307.325V111.822H305.019Z" fill="#3579FF"/>
<path d="M298.435 103.234H296.129V108.512H298.435V103.234Z" fill="#E8F4FF"/>
<path d="M298.359 108.434H296.132V113.987H298.359V108.434Z" fill="white"/>
<path d="M289.548 103.234H287.242V108.512H289.548V103.234Z" fill="#E8F4FF"/>
<path d="M289.47 108.434H287.242V113.987H289.47V108.434Z" fill="white"/>
<path d="M307.322 103.234H305.017V108.512H307.322V103.234Z" fill="#E8F4FF"/>
<path d="M307.323 108.527H305.017V109.517H307.323V108.527Z" fill="white"/>
<path d="M254.95 157.012V157.671H252.644V163.279H254.95V164.269V165.588V168.227H259.891V164.269H262.197V168.227H269.444V164.269H271.75V168.227H277.679V164.269H279.985V168.227H287.232V164.269H289.538V168.227H295.467V164.269H297.773V168.227H305.02V164.269V161.96H307.326V157.012H305.02H254.95Z" fill="black"/>
<path d="M262.19 168.223H259.884V172.841H262.19V168.223Z" fill="#E8F4FF"/>
<path d="M262.347 163.227H259.749V168.41H262.347V163.227Z" fill="white"/>
<path d="M279.982 168.223H277.676V172.841H279.982V168.223Z" fill="#E8F4FF"/>
<path d="M279.793 163.227H277.565V168.41H279.793V163.227Z" fill="white"/>
<path d="M297.783 168.223H295.477V172.841H297.783V168.223Z" fill="#E8F4FF"/>
<path d="M297.613 163.227H295.386V168.41H297.613V163.227Z" fill="white"/>
<path d="M271.762 168.223H269.457V172.841H271.762V168.223Z" fill="#E8F4FF"/>
<path d="M271.648 163.227H269.42V168.41H271.648V163.227Z" fill="white"/>
<path d="M289.548 168.223H287.242V172.841H289.548V168.223Z" fill="#E8F4FF"/>
<path d="M289.47 163.227H287.242V168.41H289.47V163.227Z" fill="white"/>
<path d="M307.322 168.223H305.017V172.841H307.322V168.223Z" fill="#E8F4FF"/>
<path d="M262.347 168.398H259.749V170.25H262.347V168.398Z" fill="#C3E2FF"/>
<path d="M279.793 168.398H277.565V170.25H279.793V168.398Z" fill="#C3E2FF"/>
<path d="M297.613 168.398H295.386V170.25H297.613V168.398Z" fill="#C3E2FF"/>
<path d="M271.648 168.398H269.42V170.25H271.648V168.398Z" fill="#C3E2FF"/>
<path d="M289.47 168.398H287.242V170.25H289.47V168.398Z" fill="#C3E2FF"/>
<path d="M307.288 168.398H305.06V170.25H307.288V168.398Z" fill="#C3E2FF"/>
<path d="M307.322 164.266H305.017V168.224H307.322V164.266Z" fill="white"/>
<path d="M254.949 168.223H252.643V172.841H254.949V168.223Z" fill="#C3E2FF"/>
<path d="M254.949 165.598H252.643V168.237H254.949V165.598Z" fill="white"/>
<path d="M252.654 155.363H246.395V157.672H252.654V157.013V155.363Z" fill="#E8F4FF"/>
<path d="M258.641 155.449H252.701V156.93H258.641V155.449Z" fill="white"/>
<path d="M254.95 157.012H252.644V157.671H254.95V157.012Z" fill="#C3E2FF"/>
<path d="M252.654 146.453H246.395V148.762H252.654V146.453Z" fill="#E8F4FF"/>
<path d="M258.641 146.562H252.701V148.784H258.641V146.562Z" fill="white"/>
<path d="M280.643 108.523V111.822H278.337V108.523H271.749V111.822H269.443V108.523H262.855V111.822H260.549V108.523H254.949V110.832H252.643V111.822H254.949V113.141H252.643V119.739H254.949V122.048H252.643V128.645H254.949V130.954H252.643V137.551H254.949V139.86H252.643V144.663C270.332 142.152 283.937 126.929 283.937 108.523H280.643Z" fill="#52ABFF"/>
<path d="M262.863 103.234H260.558V108.512H262.863V103.234Z" fill="#E8F4FF"/>
<path d="M262.715 108.434H260.488V113.987H262.715V108.434Z" fill="white"/>
<path d="M280.66 103.234H278.354V108.512H280.66V103.234Z" fill="#E8F4FF"/>
<path d="M280.541 108.434H278.313V113.987H280.541V108.434Z" fill="white"/>
<path d="M271.762 103.234H269.457V108.512H271.762V103.234Z" fill="#E8F4FF"/>
<path d="M271.648 108.434H269.42V113.987H271.648V108.434Z" fill="white"/>
<path d="M254.949 103.234H252.643V108.512H254.949V103.234Z" fill="#E8F4FF"/>
<path d="M298.359 106.195H296.131V108.417H298.359V106.195Z" fill="#C3E2FF"/>
<path d="M289.468 106.195H287.241V108.417H289.468V106.195Z" fill="#C3E2FF"/>
<path d="M307.288 106.195H305.06V108.417H307.288V106.195Z" fill="#C3E2FF"/>
<path d="M262.716 106.195H260.488V108.417H262.716V106.195Z" fill="#C3E2FF"/>
<path d="M280.541 106.195H278.313V108.417H280.541V106.195Z" fill="#C3E2FF"/>
<path d="M271.647 106.195H269.419V108.417H271.647V106.195Z" fill="#C3E2FF"/>
<path d="M254.928 106.195H252.7V108.417H254.928V106.195Z" fill="#C3E2FF"/>
<path d="M254.949 108.523H252.643V110.832H254.949V108.523Z" fill="white"/>
<path d="M252.654 137.555H246.395V139.864H252.654V137.555Z" fill="#E8F4FF"/>
<path d="M258.641 137.684H252.701V139.905H258.641V137.684Z" fill="white"/>
<path d="M252.654 119.75H246.395V122.059H252.654V119.75Z" fill="#E8F4FF"/>
<path d="M258.641 119.91H252.701V122.131H258.641V119.91Z" fill="white"/>
<path d="M252.654 128.652H246.395V130.961H252.654V128.652Z" fill="#E8F4FF"/>
<path d="M258.641 128.789H252.701V131.01H258.641V128.789Z" fill="white"/>
<path d="M252.654 110.836H246.395V113.145H252.654V111.826V110.836Z" fill="#E8F4FF"/>
<path d="M254.949 111.824H252.644V113.144H254.949V111.824Z" fill="white"/>
<path d="M254.949 110.836H252.644V111.826H254.949V110.836Z" fill="white"/>
<path d="M252.654 163.281H246.395V165.59H252.654V164.271V163.281Z" fill="#E8F4FF"/>
<path d="M252.707 155.449H250.108V157.67H252.707V157.036V155.449Z" fill="#C3E2FF"/>
<path d="M252.707 146.562H250.108V148.784H252.707V146.562Z" fill="#C3E2FF"/>
<path d="M252.707 137.684H250.108V139.905H252.707V137.684Z" fill="#C3E2FF"/>
<path d="M252.707 119.91H250.108V122.131H252.707V119.91Z" fill="#C3E2FF"/>
<path d="M252.707 128.789H250.108V131.01H252.707V128.789Z" fill="#C3E2FF"/>
<path d="M252.706 110.656H250.107V113.248H252.706V111.767V110.656Z" fill="#C3E2FF"/>
<path d="M252.706 163.227H250.107V165.448H252.706V164.179V163.227Z" fill="#C3E2FF"/>
<path d="M254.949 163.281H252.643V164.271H254.949V163.281Z" fill="white"/>
<path d="M254.949 164.266H252.643V165.585H254.949V164.266Z" fill="white"/>
<path d="M313.593 154.707H307.334V157.016H313.593V154.707Z" fill="#C3E2FF"/>
<path d="M307.277 154.707H300.594V156.928H307.277V154.707Z" fill="white"/>
<path d="M313.593 136.891H307.334V139.2H313.593V136.891Z" fill="#C3E2FF"/>
<path d="M307.277 136.938H300.594V139.159H307.277V136.938Z" fill="white"/>
<path d="M313.593 119.074H307.334V121.383H313.593V119.074Z" fill="#C3E2FF"/>
<path d="M307.277 119.168H300.594V121.389H307.277V119.168Z" fill="white"/>
<path d="M313.593 145.137H307.334V147.446H313.593V145.137Z" fill="#C3E2FF"/>
<path d="M307.277 145.082H300.594V147.303H307.277V145.082Z" fill="white"/>
<path d="M313.593 127.316H307.334V129.625H313.593V127.316Z" fill="#C3E2FF"/>
<path d="M307.277 127.305H300.594V129.526H307.277V127.305Z" fill="white"/>
<path d="M313.593 109.52H307.334V111.829H313.593V109.52Z" fill="#C3E2FF"/>
<path d="M307.323 109.52H305.017V111.829H307.323V109.52Z" fill="white"/>
<path d="M313.593 161.953H307.334V164.262H313.593V161.953Z" fill="#C3E2FF"/>
<path d="M310.254 154.707H307.284V156.928H310.254V154.707Z" fill="#E8F4FF"/>
<path d="M310.254 136.938H307.284V139.159H310.254V136.938Z" fill="#E8F4FF"/>
<path d="M310.254 119.164H307.284V121.385H310.254V119.164Z" fill="#E8F4FF"/>
<path d="M310.254 145.082H307.284V147.303H310.254V145.082Z" fill="#E8F4FF"/>
<path d="M310.254 127.305H307.284V129.526H310.254V127.305Z" fill="#E8F4FF"/>
<path d="M310.254 109.535H307.284V111.756H310.254V109.535Z" fill="#E8F4FF"/>
<path d="M310.254 162.109H307.284V164.331H310.254V162.109Z" fill="#E8F4FF"/>
<path d="M307.323 161.953H305.017V164.262H307.323V161.953Z" fill="white"/>
<path d="M281.755 145.987L280.108 141.072H272.644L270.997 145.987H267.182L274.172 126.133H278.567L285.557 145.987H281.752H281.755ZM273.602 138.202H279.14L276.448 130.187H276.294L273.602 138.202Z" fill="white"/>
<path d="M291.486 126.133V145.987H287.932V126.133H291.486Z" fill="white"/>
</g>
</g>
<g filter="url(#filter1_d_4760_14186)">
<rect x="20" y="198" width="320" height="104" rx="12" fill="white" shape-rendering="crispEdges"/>
<path d="M49.3998 235.867V236.694H45.3619V239.938H44.3358V236.694H40.353V235.867H49.3998ZM42.5154 230.45V231.741H47.2154V230.45H48.2635V234.741H41.4784V230.45H42.5154ZM42.5154 233.903H47.2154V232.579H42.5154V233.903ZM57.8288 230.053V233.991H59.3623V234.863H57.8288V239.927H56.7807V230.053H57.8288ZM55.2471 231.09C55.2361 233.947 53.9784 236.496 50.7238 238.106L50.139 237.29C52.6159 236.054 53.9618 234.267 54.177 231.961H50.6355V231.09H55.2471ZM62.9038 232.756C62.9038 234.333 63.5658 236.021 64.8897 236.827L64.305 237.632C63.3782 237.075 62.7494 236.087 62.4184 234.94C62.0488 236.198 61.3703 237.268 60.4104 237.853L59.7595 237.069C61.1607 236.231 61.8888 234.488 61.8888 232.8V230.957H62.9038V232.756ZM68.3981 230.053V239.938H67.3941V230.053H68.3981ZM66.346 230.24V239.452H65.3531V234.399H63.8195V233.528H65.3531V230.24H66.346ZM80.6554 230.064V237.301H79.6073V233.583H77.7207V232.733H79.6073V230.064H80.6554ZM80.9202 238.879V239.728H74.2344V236.65H75.2825V238.879H80.9202ZM75.9555 232.06C75.9555 233.296 76.8491 234.532 78.3385 235.028L77.7979 235.867C76.6891 235.475 75.8672 234.681 75.4369 233.704C75.0067 234.791 74.1406 235.668 72.9656 236.087L72.425 235.238C73.9475 234.719 74.8853 233.417 74.8853 232.06V231.674H72.745V230.814H78.0737V231.674H75.9555V232.06ZM91.2136 235.05V235.9H87.286V237.82H86.2489V235.9H82.1669V235.05H91.2136ZM90.0442 230.516V234.024H83.3253V230.516H90.0442ZM84.3513 231.343V233.197H89.0071V231.343H84.3513ZM90.2097 238.879V239.728H83.2922V236.882H84.3403V238.879H90.2097ZM97.7119 232.756C97.7119 234.333 98.3739 236.021 99.6978 236.827L99.113 237.632C98.1863 237.075 97.5574 236.087 97.2265 234.94C96.8569 236.198 96.1784 237.268 95.2185 237.853L94.5676 237.069C95.9687 236.231 96.6969 234.488 96.6969 232.8V230.957H97.7119V232.756ZM103.206 230.053V239.938H102.202V230.053H103.206ZM101.154 230.24V239.452H100.161V234.399H98.6276V233.528H100.161V230.24H101.154ZM113.5 235.723V236.573H109.462V239.927H108.436V236.573H104.453V235.723H113.5ZM112.363 230.582V234.466H105.589V230.582H112.363ZM106.615 231.421V233.649H111.315V231.421H106.615ZM117.659 232.568C117.648 234.322 118.663 236.109 120.141 236.827L119.49 237.665C118.415 237.108 117.582 235.999 117.151 234.675C116.705 236.087 115.839 237.268 114.713 237.853L114.062 237.003C115.585 236.275 116.611 234.377 116.611 232.568V230.88H117.659V232.568ZM121.929 230.053V233.991H123.517V234.885H121.929V239.938H120.881V230.053H121.929ZM133.027 234.587V235.392H123.981V234.587H133.027ZM131.913 236.087V238.261H126.11V239.077H132.222V239.816H125.062V237.566H130.876V236.838H125.051V236.087H131.913ZM131.891 230.306V232.447H126.176V233.197H132.057V233.936H125.139V231.752H130.843V231.045H125.117V230.306H131.891ZM145.527 235.249V236.076H136.492V235.249H140.486V234.388H137.672V230.317H144.424V231.145H138.731V231.95H144.17V232.733H138.731V233.572H144.49V234.388H141.534V235.249H145.527ZM141.015 236.727C143.189 236.716 144.424 237.29 144.424 238.327C144.424 239.375 143.189 239.927 141.015 239.916C138.82 239.927 137.584 239.375 137.584 238.327C137.584 237.29 138.82 236.716 141.015 236.727ZM141.015 237.511C139.46 237.511 138.621 237.797 138.632 238.327C138.621 238.857 139.46 239.132 141.015 239.121C142.549 239.132 143.376 238.857 143.376 238.327C143.376 237.797 142.549 237.511 141.015 237.511ZM154.045 230.064V233.241H155.479V234.113H154.045V237.455H152.997V230.064H154.045ZM152.18 231.211V232.06H146.289V231.211H148.716V230.053H149.764V231.211H152.18ZM149.234 232.535C150.658 232.535 151.629 233.274 151.629 234.399C151.629 235.525 150.658 236.253 149.234 236.253C147.8 236.253 146.829 235.525 146.829 234.399C146.829 233.274 147.8 232.535 149.234 232.535ZM149.234 233.34C148.396 233.34 147.833 233.748 147.844 234.399C147.833 235.039 148.396 235.436 149.234 235.436C150.073 235.436 150.636 235.039 150.647 234.399C150.636 233.748 150.073 233.34 149.234 233.34ZM154.464 238.879V239.728H147.778V236.871H148.826V238.879H154.464ZM46.0349 245.361V246.487H44.038C44.0766 247.491 44.8047 248.539 46.3328 248.98L45.6818 250.094C44.551 249.769 43.7732 249.101 43.3319 248.263C42.874 249.19 42.0576 249.951 40.8936 250.304L40.2096 249.212C41.7818 248.71 42.5651 247.551 42.6258 246.487H40.5958V245.361H46.0349ZM48.7599 244.975V250.083H47.3588V248.153H45.7811V247.038H47.3588V244.975H48.7599ZM48.7599 250.47V253.184H43.4974V253.823H49.0578V254.916H42.0852V252.158H47.3588V251.584H42.0741V250.47H48.7599ZM53.2833 247.502C53.2833 249.124 53.7357 250.801 55.1037 251.683L54.3425 252.775C53.4764 252.251 52.9248 251.391 52.6103 250.359C52.2463 251.496 51.645 252.444 50.7348 252.996L49.8742 251.959C51.3636 251.032 51.9153 249.267 51.9153 247.568V245.836H53.2833V247.502ZM58.7666 244.975V255.015H57.4206V244.975H58.7666ZM56.6593 245.119V254.552H55.3464V249.51H54.0446V248.362H55.3464V245.119H56.6593ZM66.346 246.961C66.346 248.164 67.0852 249.388 68.7401 249.885L68.023 250.988C66.8976 250.635 66.1033 249.912 65.651 249.002C65.1931 249.99 64.3767 250.784 63.2017 251.176L62.4735 250.072C64.1395 249.532 64.9118 248.23 64.9118 246.961V246.818H62.8487V245.692H68.365V246.818H66.346V246.961ZM70.8363 244.986V252.246H69.4241V244.986H70.8363ZM71.1011 253.713V254.838H64.1064V251.584H65.5296V253.713H71.1011ZM80.1589 244.975V247.711H81.5159V248.87H80.1589V252.235H78.7467V244.975H80.1589ZM77.1139 245.781V246.906H73.9917V249.444C75.8065 249.432 76.805 249.377 77.9303 249.135L78.0737 250.26C76.816 250.525 75.6576 250.58 73.429 250.58H72.5795V245.781H77.1139ZM80.523 253.713V254.838H73.6496V251.462H75.0508V253.713H80.523ZM93.7512 252.698V253.846H84.561V252.698H88.4334V250.845H85.5318V245.615H86.944V247.171H91.324V245.615H92.7251V250.845H89.8346V252.698H93.7512ZM86.944 249.719H91.324V248.296H86.944V249.719ZM102.599 245.847V246.796C102.599 248.053 102.599 249.466 102.191 251.595L100.779 251.451C101.16 249.554 101.176 248.142 101.187 246.961H95.2737V245.847H102.599ZM103.482 252.643V253.79H94.3249V252.643H97.6016V249.19H99.0027V252.643H103.482ZM107.884 247.248C107.884 249.135 108.645 250.966 110.322 251.694L109.462 252.82C108.347 252.273 107.603 251.275 107.189 250.039C106.748 251.352 105.975 252.428 104.828 252.996L103.945 251.849C105.666 251.076 106.45 249.135 106.461 247.248V245.748H107.884V247.248ZM112.562 244.975V255.037H111.172V249.267H109.197V248.131H111.172V244.975H112.562ZM122.955 249.587V250.392H113.908V249.587H122.955ZM121.84 251.087V253.261H116.037V254.077H122.149V254.816H114.989V252.566H120.803V251.838H114.978V251.087H121.84ZM121.818 245.306V247.447H116.103V248.197H121.984V248.936H115.066V246.752H120.77V246.045H115.044V245.306H121.818ZM48.8482 260.053V269.938H47.8442V260.053H48.8482ZM46.8403 260.262V269.441H45.8473V264.41H44.3138V263.55H45.8473V260.262H46.8403ZM43.3429 262.811C43.3429 264.499 44.0269 266.187 45.417 266.992L44.7882 267.764C43.8449 267.202 43.194 266.203 42.8575 265.006C42.4989 266.297 41.8259 267.395 40.8605 267.996L40.2207 267.213C41.6218 266.363 42.3389 264.565 42.3389 262.811V262.016H40.5185V261.167H45.0419V262.016H43.3429V262.811ZM54.5852 266.264C56.7255 266.264 58.0715 266.937 58.0825 268.095C58.0715 269.243 56.7255 269.927 54.5852 269.916C52.4669 269.927 51.1099 269.243 51.1099 268.095C51.1099 266.937 52.4669 266.264 54.5852 266.264ZM54.5852 267.058C53.0847 267.058 52.147 267.444 52.158 268.095C52.147 268.735 53.0847 269.11 54.5852 269.11C56.0967 269.11 57.0344 268.735 57.0455 268.095C57.0344 267.444 56.0967 267.058 54.5852 267.058ZM58.0053 260.538V261.365C58.0053 262.16 58.0053 262.976 57.7295 263.991L56.7035 263.881C56.9682 262.871 56.9682 262.143 56.9682 261.376H51.1871V260.538H58.0053ZM59.1306 264.598V265.447H50.139V264.598H53.7467V262.744H54.7727V264.598H59.1306ZM67.6589 260.053V262.535H69.0931V263.417H67.6589V265.812H66.6108V260.053H67.6589ZM62.3743 266.22V267.18H66.6108V266.22H67.6589V269.816H61.3372V266.22H62.3743ZM62.3743 268.978H66.6108V267.996H62.3743V268.978ZM65.7944 261.023V261.862H59.9029V261.023H62.3301V259.964H63.3782V261.023H65.7944ZM62.8487 262.27C64.2719 262.27 65.2427 262.943 65.2427 264.002C65.2427 265.05 64.2719 265.745 62.8487 265.734C61.4034 265.745 60.4435 265.05 60.4435 264.002C60.4435 262.943 61.4034 262.27 62.8487 262.27ZM62.8487 263.053C62.0102 263.042 61.4475 263.429 61.4585 264.002C61.4475 264.587 62.0102 264.962 62.8487 264.962C63.6871 264.962 64.2498 264.587 64.2608 264.002C64.2498 263.429 63.6871 263.042 62.8487 263.053ZM77.8641 260.053V269.938H76.816V260.053H77.8641ZM71.2997 261.012V266.518C72.7394 266.507 74.2564 266.391 75.8451 266.065L75.9886 266.948C74.2344 267.301 72.6457 267.422 71.0901 267.422H70.2626V261.012H71.2997ZM87.1205 260.053V263.881H88.7092V264.741H87.1205V269.96H86.0724V260.053H87.1205ZM84.4617 261.001V261.851H80.8871V266.628C82.5475 266.622 83.7942 266.551 85.2008 266.297L85.3332 267.18C83.7887 267.455 82.4758 267.511 80.6333 267.5H79.839V261.001H84.4617ZM90.309 269.077C89.8787 269.077 89.5146 268.724 89.5257 268.294C89.5146 267.864 89.8787 267.511 90.309 267.511C90.7282 267.511 91.0923 267.864 91.0923 268.294C91.0923 268.724 90.7282 269.077 90.309 269.077Z" fill="#333333"/>
<g clip-path="url(#clip1_4760_14186)">
<path d="M261.627 265.133H252.693V276.436H261.627V265.133Z" fill="#3579FF"/>
<path d="M275.263 242.531H266.33V276.44H275.263V242.531Z" fill="#3579FF"/>
<path d="M295.171 223.93C292.092 223.93 289.275 225.055 287.105 226.913L293.862 234.748H289.137V247.249C290.923 248.248 292.983 248.817 295.174 248.817C302.036 248.817 307.598 243.246 307.598 236.372C307.598 229.499 302.033 223.93 295.171 223.93Z" fill="#3579FF"/>
<path d="M282.747 236.383C282.747 232.594 284.44 229.206 287.103 226.922L284.684 224.117L275.511 234.758H280.201V276.438H289.135V247.26C285.326 245.134 282.747 241.062 282.747 236.383Z" fill="#8EC9FF"/>
<path d="M293.854 234.756L287.097 226.922C284.431 229.204 282.741 232.595 282.741 236.383C282.741 241.062 285.32 245.134 289.129 247.26V234.759H293.854V234.756Z" fill="url(#paint0_linear_4760_14186)"/>
<path d="M303.002 253.594H294.069V276.435H303.002V253.594Z" fill="#3579FF"/>
<g clip-path="url(#clip2_4760_14186)">
<path d="M307.634 236.376C307.634 229.503 302.068 223.934 295.207 223.934V236.452L307.634 236.376Z" fill="#52ABFF"/>
</g>
</g>
</g>
<g filter="url(#filter2_d_4760_14186)">
<rect x="20" y="310" width="320" height="104" rx="12" fill="white" shape-rendering="crispEdges"/>
<path d="M44.0049 344.965C44.0049 346.62 45.0861 348.33 46.6086 348.981L46.0349 349.797C44.8709 349.284 43.9442 348.198 43.4863 346.874C43.0285 348.286 42.0962 349.489 40.9488 350.051L40.342 349.224C41.8314 348.529 42.9347 346.664 42.9457 344.965V343.917H40.684V343.045H46.2555V343.917H44.0049V344.965ZM48.5503 342.053V351.938H47.5022V342.053H48.5503ZM51.6284 342.759V346.565C52.9689 346.565 54.3811 346.477 55.9091 346.157L56.0305 347.017C54.3756 347.359 52.8531 347.447 51.3857 347.447H50.5803V342.759H51.6284ZM57.895 342.064V344.943H59.3292V345.837H57.895V349.191H56.8469V342.064H57.895ZM58.237 350.879V351.728H51.6505V348.496H52.7096V350.879H58.237ZM65.662 344.756C65.662 346.333 66.3239 348.021 67.6479 348.827L67.0631 349.632C66.1364 349.075 65.5075 348.087 65.1766 346.94C64.807 348.198 64.1284 349.268 63.1686 349.853L62.5177 349.069C63.9188 348.231 64.647 346.488 64.647 344.8V342.957H65.662V344.756ZM71.1563 342.053V351.938H70.1523V342.053H71.1563ZM69.1042 342.24V351.452H68.1112V346.399H66.5777V345.528H68.1112V342.24H69.1042ZM80.3134 342.549V343.299C80.3134 344.077 80.3134 344.96 80.0596 346.157H81.4608V347.017H72.414V346.157H79.0005C79.2653 345.004 79.2763 344.16 79.2763 343.41H73.5503V342.549H80.3134ZM80.3244 348.275V351.816H73.5172V348.275H80.3244ZM74.5433 349.102V350.967H79.2873V349.102H74.5433ZM87.6832 343.112V343.718C87.6832 344.546 87.6832 345.826 87.3963 347.591L86.3593 347.514C86.6075 345.93 86.6351 344.789 86.6461 343.961H82.6302V343.112H87.6832ZM85.1457 345.936V348.893C86.1993 348.86 87.2695 348.788 88.2569 348.661L88.3121 349.444C86.2489 349.775 83.9542 349.82 82.2 349.808L82.0786 348.959C82.6964 348.953 83.386 348.948 84.1086 348.926V345.936H85.1457ZM89.8787 342.053V346.135H91.3902V347.028H89.8787V351.938H88.8196V342.053H89.8787ZM99.7198 342.968V343.84H96.2445V348.661C97.8994 348.656 99.0413 348.595 100.338 348.341L100.459 349.202C99.0358 349.466 97.8333 349.533 95.9687 349.533H95.1854V342.968H99.7198ZM102.952 342.053V351.96H101.904V346.455H99.1572V345.583H101.904V342.053H102.952ZM106.681 342.207V343.068H111.26V342.207H112.308V345.484H105.644V342.207H106.681ZM106.681 344.689H111.26V343.84H106.681V344.689ZM113.478 346.201V347.05H109.484V347.9H112.341V350.206H106.582V351.033H112.617V351.838H105.556V349.455H111.304V348.683H105.545V347.9H108.436V347.05H104.464V346.201H113.478ZM116.909 342.792C118.249 342.792 119.231 343.928 119.391 345.759H121.432V342.053H122.469V351.96H121.432V346.609H119.402C119.286 348.534 118.282 349.731 116.909 349.731C115.43 349.731 114.393 348.385 114.404 346.256C114.393 344.138 115.43 342.792 116.909 342.792ZM116.909 343.729C116.015 343.729 115.397 344.7 115.397 346.256C115.397 347.823 116.015 348.793 116.909 348.793C117.802 348.793 118.42 347.823 118.42 346.256C118.42 344.7 117.802 343.729 116.909 343.729ZM134.517 342.064V344.402H135.951V345.252H134.517V347.624H133.469V342.064H134.517ZM134.749 348.12V348.959H133.436V350.934H134.881V351.783H128.041V350.934H129.464V348.959H128.118V348.12H134.749ZM129.53 342.604C131.042 342.604 132.156 343.564 132.167 344.943C132.156 346.311 131.042 347.271 129.53 347.271C128.019 347.271 126.893 346.311 126.904 344.943C126.893 343.564 128.019 342.604 129.53 342.604ZM129.53 343.487C128.603 343.476 127.919 344.06 127.93 344.943C127.919 345.815 128.603 346.388 129.53 346.399C130.457 346.388 131.141 345.815 131.141 344.943C131.141 344.06 130.457 343.476 129.53 343.487ZM130.479 350.934H132.41V348.959H130.479V350.934ZM141.015 342.648C143.089 342.648 144.667 343.741 144.667 345.406C144.667 347.072 143.089 348.176 141.015 348.165C138.941 348.176 137.374 347.072 137.374 345.406C137.374 343.741 138.941 342.648 141.015 342.648ZM141.015 343.498C139.504 343.487 138.367 344.259 138.378 345.406C138.367 346.565 139.504 347.304 141.015 347.304C142.527 347.304 143.652 346.565 143.652 345.406C143.652 344.259 142.527 343.487 141.015 343.498ZM145.561 349.786V350.658H136.514V349.786H145.561ZM155.324 349.875V350.757H146.278V349.875H150.26V348.143H147.381V344.998H153.184V343.608H147.359V342.748H154.221V345.837H148.418V347.282H154.453V348.143H151.298V349.875H155.324ZM164.04 344.943V345.782H157.233V342.406H158.27V344.943H164.04ZM165.077 347.028V347.867H156.031V347.028H165.077ZM164.106 350.846V351.706H157.156V348.804H158.204V350.846H164.106ZM49.0027 356.975V367.015H47.6567V361.951H46.752V366.552H45.417V357.119H46.752V360.804H47.6567V356.975H49.0027ZM44.5786 358.012V364.489H40.5847V358.012H44.5786ZM41.8976 359.127V363.385H43.2657V359.127H41.8976ZM58.568 356.986V362.801H57.1558V362.481H55.3354V361.631H57.1558V356.986H58.568ZM50.0618 360.517C52.0035 360.528 54.4087 360.506 56.56 360.307L56.6262 361.179C55.7381 361.3 54.8279 361.377 53.9343 361.421V362.823H52.5441V361.477C51.7222 361.499 50.9334 361.499 50.2052 361.488L50.0618 360.517ZM58.568 363.098V365.448H52.9193V365.967H58.7997V366.949H51.5402V364.544H57.1668V364.047H51.496V363.098H58.568ZM53.2944 357.119C54.7838 357.119 55.8098 357.725 55.8208 358.63C55.8098 359.568 54.7838 360.131 53.2944 360.131C51.7608 360.131 50.7458 359.568 50.7458 358.63C50.7458 357.725 51.7608 357.119 53.2944 357.119ZM53.2944 358.045C52.5331 358.034 52.0697 358.266 52.0808 358.63C52.0697 359.005 52.5331 359.215 53.2944 359.215C54.0336 359.215 54.508 359.005 54.508 358.63C54.508 358.266 54.0336 358.034 53.2944 358.045ZM71.1342 356.975V367.015H69.7882V356.975H71.1342ZM69.0821 357.119V366.552H67.7582V363.44H66.5777C66.2026 364.417 65.5461 364.974 64.7021 364.974C63.3782 364.974 62.5177 363.584 62.5177 361.322C62.5177 359.071 63.3782 357.692 64.7021 357.692C65.5406 357.692 66.1971 358.239 66.5777 359.204H67.7582V357.119H69.0821ZM64.7021 359.016C64.1174 359.016 63.7864 359.789 63.7975 361.322C63.7864 362.867 64.1174 363.628 64.7021 363.617C65.2869 363.628 65.6399 362.867 65.6399 361.322C65.6399 359.789 65.2758 359.016 64.7021 359.016ZM66.8535 360.329C66.8976 360.638 66.9197 360.969 66.9197 361.322C66.9197 361.67 66.8976 362.001 66.8535 362.304H67.7582V360.329H66.8535ZM75.8562 358.553C75.8562 359.767 76.5623 360.936 78.151 361.432L77.4007 362.525C76.3361 362.172 75.5914 361.488 75.1611 360.605C74.7253 361.62 73.9475 362.414 72.8001 362.801L72.0389 361.697C73.7158 361.135 74.433 359.8 74.444 358.421V357.505H75.8562V358.553ZM80.1589 356.975V359.325H81.5159V360.495H80.1589V362.933H78.7467V356.975H80.1589ZM76.8712 363.132C78.9453 363.132 80.2582 363.849 80.2582 365.073C80.2582 366.309 78.9453 367.015 76.8712 367.015C74.7529 367.015 73.429 366.309 73.429 365.073C73.429 363.849 74.7529 363.132 76.8712 363.132ZM76.8712 364.235C75.5473 364.235 74.8301 364.522 74.8412 365.073C74.8301 365.647 75.5473 365.912 76.8712 365.912C78.173 365.912 78.8681 365.647 78.8681 365.073C78.8681 364.522 78.173 364.235 76.8712 364.235ZM87.7825 359.502C87.7825 361.124 88.2348 362.801 89.6029 363.683L88.8416 364.775C87.9756 364.251 87.4239 363.391 87.1095 362.359C86.7454 363.496 86.1441 364.444 85.2339 364.996L84.3734 363.959C85.8628 363.032 86.4144 361.267 86.4144 359.568V357.836H87.7825V359.502ZM93.2657 356.975V367.015H91.9197V356.975H93.2657ZM91.1585 357.119V366.552H89.8456V361.51H88.5437V360.362H89.8456V357.119H91.1585ZM102.423 357.428V358.233C102.423 359.016 102.423 359.888 102.191 361.035H103.515V362.172H94.3249V361.035H100.768C100.989 360.031 101.016 359.254 101.022 358.553H95.4502V357.428H102.423ZM102.39 363.231V366.905H95.4171V363.231H102.39ZM96.7962 364.334V365.779H100.989V364.334H96.7962ZM108.656 357.218C110.885 357.218 112.187 357.814 112.187 358.917C112.187 360.02 110.885 360.627 108.656 360.627C106.428 360.627 105.126 360.02 105.126 358.917C105.126 357.814 106.428 357.218 108.656 357.218ZM108.656 357.99C107.079 357.99 106.207 358.332 106.218 358.917C106.207 359.524 107.079 359.844 108.656 359.844C110.234 359.844 111.106 359.524 111.106 358.917C111.106 358.332 110.234 357.99 108.656 357.99ZM113.169 361.234V362.072H104.155V361.234H113.169ZM112.032 362.834V365.15H106.273V366.033H112.308V366.838H105.247V364.389H110.995V363.617H105.236V362.834H112.032ZM121.962 357.88V364.621H117.107V357.88H121.962ZM118.52 358.983V363.507H120.594V358.983H118.52ZM125.018 356.975V367.037H123.595V356.975H125.018ZM134.793 356.975V367.037H133.392V356.975H134.793ZM131.681 357.814V361.686H128.372V363.529C129.9 363.523 131.202 363.435 132.674 363.198L132.796 364.334C131.141 364.621 129.651 364.687 127.82 364.687H126.915V360.572H130.247V358.95H126.904V357.814H131.681ZM48.1311 372.053V374.116H49.5653V374.987H48.1311V377.05H47.083V372.053H48.1311ZM48.1311 377.503V380.007H42.7913V380.978H48.4731V381.816H41.7652V379.224H47.094V378.319H41.7432V377.503H48.1311ZM43.1112 372.395C44.6117 372.395 45.7039 373.299 45.7039 374.601C45.7039 375.903 44.6117 376.808 43.1112 376.808C41.6108 376.808 40.5075 375.903 40.5185 374.601C40.5075 373.299 41.6108 372.395 43.1112 372.395ZM43.1112 373.255C42.1955 373.255 41.5335 373.796 41.5335 374.601C41.5335 375.406 42.1955 375.969 43.1112 375.969C44.0159 375.969 44.6889 375.406 44.6889 374.601C44.6889 373.796 44.0159 373.255 43.1112 373.255ZM58.3584 372.053V381.96H57.3213V377.823H55.3906V376.951H57.3213V375.12H55.4457V374.259H57.3213V372.053H58.3584ZM54.85 372.924V376.532H51.5402V378.804C52.9413 378.799 54.1108 378.733 55.523 378.529L55.6112 379.389C54.0667 379.632 52.8089 379.676 51.2423 379.676H50.4921V375.704H53.8239V373.774H50.47V372.924H54.85ZM67.9016 376.741V377.602H61.0172V372.935H67.8134V373.796H62.0543V376.741H67.9016ZM68.9387 379.764V380.636H59.8919V379.764H68.9387ZM77.8531 372.064V377.514H76.805V372.064H77.8531ZM74.6977 372.527V375.285H71.2004V376.455C72.927 376.444 74.2013 376.399 75.7017 376.157L75.8341 377.006C74.2233 377.271 72.8663 377.315 71.0018 377.326H70.1744V374.469H73.6607V373.376H70.1523V372.527H74.6977ZM72.414 377.977V379.047H76.816V377.977H77.8531V381.816H71.3659V377.977H72.414ZM72.414 380.967H76.816V379.875H72.414V380.967ZM87.628 372.053V381.938H86.5799V372.053H87.628ZM81.0636 373.012V378.518C82.5034 378.507 84.0203 378.391 85.6091 378.065L85.7525 378.948C83.9983 379.301 82.4096 379.422 80.854 379.422H80.0265V373.012H81.0636ZM96.8844 372.053V375.881H98.4731V376.741H96.8844V381.96H95.8363V372.053H96.8844ZM94.2256 373.001V373.851H90.651V378.628C92.3114 378.622 93.5581 378.551 94.9648 378.297L95.0971 379.18C93.5526 379.455 92.2397 379.511 90.3972 379.5H89.6029V373.001H94.2256ZM100.073 381.077C99.6426 381.077 99.2785 380.724 99.2896 380.294C99.2785 379.864 99.6426 379.511 100.073 379.511C100.492 379.511 100.856 379.864 100.856 380.294C100.856 380.724 100.492 381.077 100.073 381.077Z" fill="#333333"/>
<path d="M302.103 383.555V392.67H282.918V398.443H315.197V383.555H302.103Z" fill="#8EC9FF"/>
<path d="M274.369 337.395C273.379 330.279 267.261 324.801 259.856 324.801C251.765 324.801 245.202 331.348 245.202 339.424C245.202 347.5 251.722 354.002 259.779 354.045V337.395H274.369Z" fill="#8EC9FF"/>
<path d="M302.11 383.523V337.34H274.372C274.463 338.002 274.515 338.68 274.515 339.369C274.515 347.445 267.953 353.993 259.858 353.993C259.831 353.993 259.807 353.993 259.779 353.993V392.641H282.923V383.526H302.107L302.11 383.523Z" fill="#3579FF"/>
<path d="M302.103 383.555H282.918V392.67H302.103V383.555Z" fill="url(#paint1_linear_4760_14186)"/>
<path d="M274.512 339.369C274.512 338.68 274.46 338.002 274.369 337.34H259.779V353.99C259.807 353.99 259.831 353.99 259.858 353.99C267.953 353.99 274.515 347.442 274.515 339.366L274.512 339.369Z" fill="url(#paint2_linear_4760_14186)"/>
<path d="M304.706 334.624L298.218 341.098L299.726 342.602L306.213 336.128L304.706 334.624Z" fill="white"/>
<path d="M269.639 355.855L265.68 351.866L267.194 350.368L269.444 352.638L273.515 347.418L275.196 348.724L269.639 355.855Z" fill="white"/>
<path d="M295.719 350.77H278.666V352.896H295.719V350.77Z" fill="white"/>
<path d="M269.639 369.868L265.68 365.879L267.194 364.384L269.444 366.653L273.515 361.434L275.196 362.737L269.639 369.868Z" fill="white"/>
<path d="M295.719 364.797H278.666V366.924H295.719V364.797Z" fill="white"/>
<path d="M269.639 383.898L265.68 379.909L267.194 378.411L269.444 380.681L273.515 375.461L275.196 376.767L269.639 383.898Z" fill="white"/>
<path d="M295.713 378.707H278.66V380.834H295.713V378.707Z" fill="white"/>
<path d="M257.355 340.781C255.246 340.781 254.093 339.238 254.093 337.012C254.093 334.766 255.285 333.223 257.355 333.223C259.484 333.223 260.597 334.766 260.617 337.012C260.597 339.258 259.445 340.781 257.355 340.781ZM257.355 339.043C258.195 339.043 258.605 338.223 258.625 337.012C258.605 335.801 258.234 334.961 257.355 334.961C256.515 334.961 256.085 335.82 256.085 337.012C256.085 338.223 256.535 339.043 257.355 339.043ZM266.886 348.32C264.796 348.32 263.644 346.777 263.644 344.551C263.644 342.305 264.835 340.762 266.886 340.762C269.015 340.762 270.148 342.305 270.167 344.551C270.148 346.797 268.996 348.32 266.886 348.32ZM266.886 346.582C267.746 346.582 268.156 345.781 268.175 344.551C268.156 343.34 267.785 342.5 266.886 342.52C266.066 342.52 265.636 343.359 265.636 344.551C265.636 345.781 266.085 346.582 266.886 346.582ZM256.125 347.852L265.851 333.711H268.039L258.312 347.852H256.125Z" fill="white"/>
<path d="M287.299 388.258V386.708H294.711V388.258H291.936V395.758H290.074V388.258H287.299ZM296.274 395.758H294.249L297.386 386.708H299.799L302.924 395.758H300.911L300.236 393.67H296.961L296.274 395.758ZM297.436 392.208H299.761L298.624 388.745H298.561L297.436 392.208ZM305.686 386.708L307.536 389.82H307.599L309.461 386.708H311.586L308.824 391.233L311.649 395.758H309.474L307.599 392.645H307.536L305.661 395.758H303.499L306.336 391.233L303.549 386.708H305.686Z" fill="white"/>
</g>
<defs>
<filter id="filter0_d_4760_14186" x="4" y="74" width="352" height="136" filterUnits="userSpaceOnUse" color-interpolation-filters="sRGB">
<feFlood flood-opacity="0" result="BackgroundImageFix"/>
<feColorMatrix in="SourceAlpha" type="matrix" values="0 0 0 0 0 0 0 0 0 0 0 0 0 0 0 0 0 0 127 0" result="hardAlpha"/>
<feOffset dy="4"/>
<feGaussianBlur stdDeviation="8"/>
<feComposite in2="hardAlpha" operator="out"/>
<feColorMatrix type="matrix" values="0 0 0 0 0 0 0 0 0 0 0 0 0 0 0 0 0 0 0.08 0"/>
<feBlend mode="normal" in2="BackgroundImageFix" result="effect1_dropShadow_4760_14186"/>
<feBlend mode="normal" in="SourceGraphic" in2="effect1_dropShadow_4760_14186" result="shape"/>
</filter>
<filter id="filter1_d_4760_14186" x="4" y="186" width="352" height="136" filterUnits="userSpaceOnUse" color-interpolation-filters="sRGB">
<feFlood flood-opacity="0" result="BackgroundImageFix"/>
<feColorMatrix in="SourceAlpha" type="matrix" values="0 0 0 0 0 0 0 0 0 0 0 0 0 0 0 0 0 0 127 0" result="hardAlpha"/>
<feOffset dy="4"/>
<feGaussianBlur stdDeviation="8"/>
<feComposite in2="hardAlpha" operator="out"/>
<feColorMatrix type="matrix" values="0 0 0 0 0 0 0 0 0 0 0 0 0 0 0 0 0 0 0.08 0"/>
<feBlend mode="normal" in2="BackgroundImageFix" result="effect1_dropShadow_4760_14186"/>
<feBlend mode="normal" in="SourceGraphic" in2="effect1_dropShadow_4760_14186" result="shape"/>
</filter>
<filter id="filter2_d_4760_14186" x="4" y="298" width="352" height="136" filterUnits="userSpaceOnUse" color-interpolation-filters="sRGB">
<feFlood flood-opacity="0" result="BackgroundImageFix"/>
<feColorMatrix in="SourceAlpha" type="matrix" values="0 0 0 0 0 0 0 0 0 0 0 0 0 0 0 0 0 0 127 0" result="hardAlpha"/>
<feOffset dy="4"/>
<feGaussianBlur stdDeviation="8"/>
<feComposite in2="hardAlpha" operator="out"/>
<feColorMatrix type="matrix" values="0 0 0 0 0 0 0 0 0 0 0 0 0 0 0 0 0 0 0.08 0"/>
<feBlend mode="normal" in2="BackgroundImageFix" result="effect1_dropShadow_4760_14186"/>
<feBlend mode="normal" in="SourceGraphic" in2="effect1_dropShadow_4760_14186" result="shape"/>
</filter>
<linearGradient id="paint0_linear_4760_14186" x1="282.741" y1="237.087" x2="293.854" y2="237.087" gradientUnits="userSpaceOnUse">
<stop stop-color="#707070"/>
<stop offset="1"/>
</linearGradient>
<linearGradient id="paint1_linear_4760_14186" x1="303.427" y1="394.383" x2="290.044" y2="386.661" gradientUnits="userSpaceOnUse">
<stop stop-color="#707070"/>
<stop offset="1"/>
</linearGradient>
<linearGradient id="paint2_linear_4760_14186" x1="262.724" y1="337.869" x2="271.625" y2="353.889" gradientUnits="userSpaceOnUse">
<stop stop-color="#707070"/>
<stop offset="1"/>
</linearGradient>
<clipPath id="clip0_4760_14186">
<rect width="67.1999" height="69.6" fill="white" transform="translate(246.396 103.234)"/>
</clipPath>
<clipPath id="clip1_4760_14186">
<rect width="54.8999" height="52.5" fill="white" transform="translate(252.694 223.926)"/>
</clipPath>
<clipPath id="clip2_4760_14186">
<rect width="12.4271" height="12.5181" fill="white" transform="translate(295.207 223.93)"/>
</clipPath>
</defs>
</svg>
