<svg width="528" height="333" viewBox="0 0 528 333" fill="none" xmlns="http://www.w3.org/2000/svg">
<g filter="url(#filter0_d_4611_86959)">
<rect x="24" y="0.332031" width="480" height="284" rx="18" fill="url(#paint0_linear_4611_86959)"/>
<rect x="26.25" y="2.58203" width="475.5" height="279.5" rx="15.75" stroke="url(#paint1_linear_4611_86959)" stroke-opacity="0.4" stroke-width="4.5"/>
<rect x="60" y="36.332" width="115" height="38" rx="19" fill="#BC0E66"/>
<path d="M91.7253 56.7524V58.6567H84.946V64.084H82.5466V58.6567H75.8625V56.7524H91.7253ZM80.1282 47.4214V49.4209H87.4026V47.4214H89.8401V55.0767H77.7288V47.4214H80.1282ZM80.1282 53.1343H87.4026V51.3252H80.1282V53.1343ZM106.407 46.7549V53.4009H108.864V55.4004H106.407V64.0459H103.97V46.7549H106.407ZM101.78 48.5259C101.761 53.7056 99.7424 58.1997 93.9153 61.0562L92.5442 59.1899C96.6479 57.1333 98.8474 54.3721 99.3044 50.5063H93.5344V48.5259H101.78ZM116.138 50.6777C116.138 53.9341 117.452 57.0952 120.347 58.3521L118.862 60.2944C116.938 59.3518 115.653 57.6284 114.939 55.4956C114.177 57.7617 112.844 59.6184 110.864 60.5991L109.34 58.6187C112.311 57.2856 113.663 53.9341 113.682 50.6777V48.0879H116.138V50.6777ZM124.213 46.7549V64.1221H121.813V54.1626H118.405V52.2012H121.813V46.7549H124.213ZM140.951 46.7549V64.1221H138.495V46.7549H140.951ZM129.735 48.126V52.3535H133.468V48.126H135.867V60.0659H127.298V48.126H129.735ZM129.735 58.1045H133.468V54.2388H129.735V58.1045ZM152.415 49.04C152.415 51.5728 154.662 54.2959 158.585 54.9624L157.519 56.981C154.5 56.3811 152.253 54.6863 151.139 52.4487C149.987 54.6672 147.74 56.3716 144.741 56.981L143.694 54.9624C147.54 54.2769 149.806 51.5537 149.825 49.04V47.7832H152.415V49.04ZM159.156 59.9517V61.9512H143.294V59.9517H159.156Z" fill="white"/>
<path d="M70.9688 99.4102C70.9688 104.543 72.7617 109.887 77.0508 112.594L74.9063 115.582C72.041 113.859 70.1777 110.889 69.1406 107.391C67.9805 111.24 65.9414 114.492 62.9531 116.32L60.5273 113.402C65.1328 110.59 67.207 105 67.207 99.5859V93.8906H70.9688V99.4102ZM88.4766 91.0781V122.859H84.7148V91.0781H88.4766ZM81.8672 91.6406V121.313H78.1758V105.246H73.6406V102.012H78.1758V91.6406H81.8672ZM121.207 115.793V118.992H92.168V115.793H104.684V108.867H95.3672V93.5391H117.867V108.867H108.551V115.793H121.207ZM99.1992 96.668V105.809H114V96.668H99.1992ZM127.148 120.012C125.637 120.012 124.406 118.781 124.406 117.27C124.406 115.793 125.637 114.562 127.148 114.562C128.59 114.562 129.855 115.793 129.855 117.27C129.855 118.781 128.59 120.012 127.148 120.012ZM151.547 102.855C151.02 99.7969 148.559 98.0391 145.465 98.0391C141.281 98.0391 138.363 101.238 138.363 107.004C138.363 112.84 141.316 115.969 145.465 115.969C148.488 115.969 150.949 114.281 151.547 111.293H156.152C155.449 116.18 151.441 120.082 145.395 120.082C138.68 120.082 133.758 115.195 133.758 107.004C133.758 98.7773 138.75 93.9258 145.395 93.9258C151.02 93.9258 155.379 97.1953 156.152 102.855H151.547ZM160.09 119.73V94.2773H169.652C175.488 94.2773 178.617 97.5469 178.617 102.398C178.617 105.861 177.035 108.428 174.047 109.641L179.531 119.73H174.434L169.441 110.414H164.66V119.73H160.09ZM164.66 106.582H168.949C172.395 106.582 173.941 105.105 173.941 102.398C173.941 99.6914 172.395 98.1094 168.949 98.1094H164.66V106.582ZM182.555 94.2773H188.18L195.738 112.77H196.055L203.613 94.2773H209.238V119.73H204.844V102.223H204.598L197.531 119.66H194.262L187.195 102.152H186.984V119.73H182.555V94.2773Z" fill="white"/>
<path d="M82.2625 155.383V167.734H79.2625V167.055H75.3953V165.25H79.2625V155.383H82.2625ZM64.1922 162.883C68.3172 162.906 73.4266 162.859 77.9969 162.438L78.1375 164.289C76.2508 164.547 74.3172 164.711 72.4188 164.805V167.781H69.4656V164.922C67.7195 164.969 66.0438 164.969 64.4969 164.945L64.1922 162.883ZM82.2625 168.367V173.359H70.2625V174.461H82.7547V176.547H67.3328V171.438H79.2859V170.383H67.2391V168.367H82.2625ZM71.0594 155.664C74.2234 155.664 76.4031 156.953 76.4266 158.875C76.4031 160.867 74.2234 162.062 71.0594 162.062C67.8016 162.062 65.6453 160.867 65.6453 158.875C65.6453 156.953 67.8016 155.664 71.0594 155.664ZM71.0594 157.633C69.4422 157.609 68.4578 158.102 68.4813 158.875C68.4578 159.672 69.4422 160.117 71.0594 160.117C72.6297 160.117 73.6375 159.672 73.6375 158.875C73.6375 158.102 72.6297 157.609 71.0594 157.633ZM98.4813 157.562V174.531H94.9422V160.914H94.8484L90.9578 163.352V160.234L95.1531 157.562H98.4813ZM109.005 174.766C104.763 174.766 102.184 171.602 102.184 166.047C102.184 160.492 104.763 157.328 109.005 157.328C113.247 157.328 115.825 160.516 115.825 166.047C115.825 171.625 113.247 174.766 109.005 174.766ZM109.005 171.859C110.973 171.859 112.239 169.961 112.216 166.047C112.216 162.18 110.973 160.211 109.005 160.211C107.036 160.211 105.794 162.18 105.794 166.047C105.77 169.961 107.036 171.859 109.005 171.859ZM128.434 157.117V167.359H118.192V157.117H128.434ZM121.145 159.508V165.016H125.481V159.508H121.145ZM134.481 155.359V161.5H137.364V163.961H134.481V170.922H131.481V155.359H134.481ZM135.255 173.922V176.312H120.653V169.398H123.63V173.922H135.255ZM156.372 155.383V171.484H153.372V169.797H149.294V167.758H153.372V155.383H156.372ZM156.841 173.922V176.312H140.95V169.938H143.927V167.102C142.016 167.184 140.2 167.195 138.583 167.195L138.231 164.828C142.145 164.805 147.419 164.758 151.919 164.195L152.083 166.328C150.395 166.609 148.649 166.809 146.927 166.938V170.992H143.927V173.922H156.841ZM145.169 156.109C148.263 156.086 150.489 157.656 150.489 159.93C150.489 162.203 148.263 163.68 145.169 163.68C142.005 163.68 139.802 162.203 139.802 159.93C139.802 157.656 141.981 156.086 145.169 156.109ZM145.169 158.289C143.645 158.289 142.614 158.875 142.638 159.93C142.614 160.961 143.645 161.523 145.169 161.523C146.598 161.523 147.63 160.961 147.653 159.93C147.63 158.875 146.598 158.289 145.169 158.289Z" fill="white" fill-opacity="0.6"/>
<rect x="60" y="165.531" width="102" height="2.4" fill="white"/>
<path d="M100.281 223.445V228.227H83.5938V242.195H77.6875V228.227H61.2344V223.445H100.281ZM95.5938 201.648V218.852H65.8281V201.648H95.5938ZM71.7344 206.383V214.164H89.6406V206.383H71.7344ZM141.812 232.586V237.508H102.766V232.586H112.75V226.07H107.266V211.727H131.406V207.133H107.219V202.352H137.312V216.508H113.266V221.242H138.297V226.07H132.25V232.586H141.812ZM118.562 232.586H126.391V226.07H118.562V232.586Z" fill="white"/>
<path d="M158.936 238.482C158.936 235.453 159.838 232.923 161.353 230.764H163.287C162.175 232.359 161.063 235.598 161.063 238.482C161.063 241.367 162.175 244.605 163.287 246.217H161.353C159.838 244.042 158.936 241.528 158.936 238.482ZM168.636 242.93V241.415L172.761 237.435C173.938 236.259 174.55 235.566 174.55 234.583C174.55 233.503 173.696 232.811 172.552 232.811C171.343 232.811 170.57 233.568 170.586 234.744H168.588C168.572 232.537 170.232 231.103 172.568 231.103C174.953 231.103 176.564 232.521 176.564 234.486C176.564 235.808 175.92 236.871 173.631 239.03L171.553 241.093V241.173H176.741V242.93H168.636ZM182.88 243.091C180.077 243.091 178.401 240.916 178.401 237.097C178.401 233.294 180.077 231.103 182.88 231.103C185.668 231.103 187.36 233.294 187.36 237.097C187.36 240.916 185.684 243.091 182.88 243.091ZM182.88 241.334C184.347 241.334 185.249 239.9 185.249 237.097C185.249 234.309 184.331 232.843 182.88 232.843C181.43 232.843 180.512 234.309 180.512 237.097C180.512 239.9 181.414 241.334 182.88 241.334ZM189.116 242.93V241.415L193.241 237.435C194.418 236.259 195.03 235.566 195.03 234.583C195.03 233.503 194.176 232.811 193.032 232.811C191.823 232.811 191.05 233.568 191.066 234.744H189.068C189.052 232.537 190.712 231.103 193.048 231.103C195.433 231.103 197.044 232.521 197.044 234.486C197.044 235.808 196.4 236.871 194.111 239.03L192.033 241.093V241.173H197.221V242.93H189.116ZM198.591 240.754V239.079L203.634 231.264H206.245V239.03H207.775V240.754H206.245V242.93H204.247V240.754H198.591ZM200.734 239.03H204.279V233.648H204.15L200.734 238.95V239.03ZM221.166 229.813V240.545H219.377V235.695H215.574V234.277H219.377V232.956H215.574V231.538H219.377V229.813H221.166ZM221.536 242.624V244.074H211.594V239.594H213.399V242.624H221.536ZM211.578 230.78V237.081C213.431 237.056 215.18 236.944 217.137 236.597L217.315 238.047C215.075 238.466 213.109 238.547 210.95 238.563H209.806V230.78H211.578ZM232.364 231.264V242.93H230.254V233.31H230.189L227.466 235.05V233.133L230.35 231.264H232.364ZM235.2 242.93V241.415L239.325 237.435C240.502 236.259 241.114 235.566 241.114 234.583C241.114 233.503 240.26 232.811 239.116 232.811C237.907 232.811 237.134 233.568 237.15 234.744H235.152C235.136 232.537 236.796 231.103 239.132 231.103C241.517 231.103 243.128 232.521 243.128 234.486C243.128 235.808 242.483 236.871 240.195 239.03L238.117 241.093V241.173H243.305V242.93H235.2ZM256.873 229.813V238.305H255.068V237.709H252.345V236.613H255.068V229.813H256.873ZM244.643 235.066C247.462 235.066 250.975 235.034 254.101 234.728L254.198 235.856C252.868 236.041 251.499 236.154 250.153 236.21V238.321H248.381V236.291C247.132 236.323 245.932 236.331 244.836 236.323L244.643 235.066ZM256.873 238.756V242.027H248.59V242.962H257.259V244.235H246.834V240.851H255.1V239.981H246.77V238.756H256.873ZM249.348 230.039C251.507 230.039 252.989 230.909 252.989 232.23C252.989 233.584 251.507 234.406 249.348 234.406C247.14 234.406 245.674 233.584 245.674 232.23C245.674 230.909 247.14 230.039 249.348 230.039ZM249.348 231.231C248.123 231.231 247.366 231.618 247.382 232.23C247.366 232.843 248.123 233.213 249.348 233.213C250.54 233.213 251.314 232.843 251.314 232.23C251.314 231.618 250.54 231.231 249.348 231.231ZM267.556 243.091C265.058 243.091 263.286 241.737 263.237 239.771H265.348C265.413 240.706 266.347 241.318 267.556 241.318C268.845 241.318 269.763 240.609 269.763 239.578C269.763 238.531 268.861 237.773 267.346 237.773H266.299V236.162H267.346C268.587 236.162 269.457 235.469 269.441 234.454C269.457 233.471 268.716 232.811 267.572 232.811C266.476 232.811 265.525 233.423 265.493 234.406H263.479C263.527 232.44 265.3 231.103 267.588 231.103C269.957 231.103 271.487 232.553 271.471 234.341C271.487 235.646 270.617 236.597 269.344 236.855V236.952C270.988 237.177 271.922 238.225 271.906 239.691C271.922 241.657 270.086 243.091 267.556 243.091ZM278.481 231.264V242.93H276.37V233.31H276.305L273.582 235.05V233.133L276.466 231.264H278.481ZM284.958 230.265C287.166 230.265 288.809 231.634 288.825 233.552C288.809 235.485 287.166 236.839 284.958 236.839C282.734 236.839 281.091 235.485 281.091 233.552C281.091 231.634 282.734 230.265 284.958 230.265ZM284.958 231.747C283.733 231.747 282.831 232.44 282.831 233.552C282.831 234.68 283.733 235.389 284.958 235.389C286.183 235.389 287.085 234.68 287.085 233.552C287.085 232.44 286.183 231.747 284.958 231.747ZM292.966 229.797V237.161H291.162V229.797H292.966ZM292.966 237.79V241.592H285.087V242.769H293.401V244.187H283.331V240.271H291.178V239.191H283.298V237.79H292.966ZM306.711 229.797V235.614H308.725V237.097H306.711V244.364H304.906V229.797H306.711ZM299.46 231.328C299.444 235.147 298.912 238.37 296.286 241.206L294.884 240.19C296.938 238.015 297.607 235.711 297.752 232.794H295.464V231.328H299.46ZM303.488 231.328C303.472 235.244 303.069 238.982 300.443 242.14L299.009 241.157C301.087 238.684 301.668 235.953 301.796 232.794H299.943V231.328H303.488ZM314.848 233.938C314.848 236.323 316.25 238.837 318.603 239.82L317.62 241.238C315.896 240.497 314.639 238.966 313.978 237.113C313.301 239.111 312.028 240.787 310.32 241.592L309.289 240.19C311.593 239.127 313.027 236.42 313.027 233.938V232.714H309.821V231.231H318.039V232.714H314.848V233.938ZM321.471 229.797V244.364H319.666V229.797H321.471ZM331.864 238.482C331.864 241.528 330.962 244.042 329.447 246.217H327.513C328.625 244.605 329.737 241.367 329.737 238.482C329.737 235.598 328.625 232.359 327.513 230.764H329.447C330.962 232.923 331.864 235.453 331.864 238.482Z" fill="white" fill-opacity="0.7"/>
<path d="M405.272 231.264L408.301 240.464H408.43L411.476 231.264H413.78L409.655 242.93H407.077L402.968 231.264H405.272ZM415.278 242.93H413.039L417.147 231.264H419.726L423.851 242.93H421.611L420.644 240.045H416.245L415.278 242.93ZM416.809 238.354H420.08L418.485 233.648H418.388L416.809 238.354ZM423.303 233.02V231.264H432.6V233.02H429.007V242.93H426.912V233.02H423.303ZM449.761 229.797V237.322H447.972V235.743H445.04V236.855H438.224V230.442H440.012V232.279H443.267V230.442H445.04V231.731H447.972V229.797H449.761ZM449.761 237.918V241.657H441.962V242.769H450.228V244.187H440.173V240.335H447.972V239.32H440.157V237.918H449.761ZM440.012 235.437H443.267V233.648H440.012V235.437ZM445.04 234.374H447.972V233.084H445.04V234.374ZM463.65 236.42V237.838H459.332V241.173H465.133V242.64H451.823V241.173H457.56V237.838H453.435V230.877H463.538V232.311H455.223V236.42H463.65Z" fill="#981300"/>
</g>
<defs>
<filter id="filter0_d_4611_86959" x="-1.90735e-06" y="0.332031" width="528" height="332" filterUnits="userSpaceOnUse" color-interpolation-filters="sRGB">
<feFlood flood-opacity="0" result="BackgroundImageFix"/>
<feColorMatrix in="SourceAlpha" type="matrix" values="0 0 0 0 0 0 0 0 0 0 0 0 0 0 0 0 0 0 127 0" result="hardAlpha"/>
<feOffset dy="24"/>
<feGaussianBlur stdDeviation="12"/>
<feComposite in2="hardAlpha" operator="out"/>
<feColorMatrix type="matrix" values="0 0 0 0 0.968627 0 0 0 0 0.341176 0 0 0 0 0.592157 0 0 0 0.24 0"/>
<feBlend mode="normal" in2="BackgroundImageFix" result="effect1_dropShadow_4611_86959"/>
<feBlend mode="normal" in="SourceGraphic" in2="effect1_dropShadow_4611_86959" result="shape"/>
</filter>
<linearGradient id="paint0_linear_4611_86959" x1="24" y1="0.332031" x2="486.369" y2="300.404" gradientUnits="userSpaceOnUse">
<stop stop-color="#F457B5"/>
<stop offset="1" stop-color="#FF5732"/>
</linearGradient>
<linearGradient id="paint1_linear_4611_86959" x1="24" y1="7.54748" x2="493.994" y2="300.665" gradientUnits="userSpaceOnUse">
<stop stop-color="white"/>
<stop offset="0.505" stop-color="#FF94C9"/>
<stop offset="1" stop-color="white"/>
</linearGradient>
</defs>
</svg>
