<svg width="528" height="332" viewBox="0 0 528 332" fill="none" xmlns="http://www.w3.org/2000/svg">
<g filter="url(#filter0_d_4766_1921)">
<rect x="24" width="480" height="284" rx="18" fill="url(#paint0_linear_4766_1921)"/>
<rect x="26.25" y="2.25" width="475.5" height="279.5" rx="15.75" stroke="url(#paint1_linear_4766_1921)" stroke-opacity="0.4" stroke-width="4.5"/>
<rect x="60" y="36" width="115" height="38" rx="19" fill="#BC0E66"/>
<path d="M91.7253 56.4204V58.3247H84.946V63.752H82.5466V58.3247H75.8625V56.4204H91.7253ZM80.1282 47.0894V49.0889H87.4026V47.0894H89.8401V54.7446H77.7288V47.0894H80.1282ZM80.1282 52.8022H87.4026V50.9932H80.1282V52.8022ZM106.407 46.4229V53.0688H108.864V55.0684H106.407V63.7139H103.97V46.4229H106.407ZM101.78 48.1938C101.761 53.3735 99.7424 57.8677 93.9153 60.7241L92.5442 58.8579C96.6479 56.8013 98.8474 54.04 99.3044 50.1743H93.5344V48.1938H101.78ZM116.138 50.3457C116.138 53.602 117.452 56.7632 120.347 58.02L118.862 59.9624C116.938 59.0198 115.653 57.2964 114.939 55.1636C114.177 57.4297 112.844 59.2864 110.864 60.2671L109.34 58.2866C112.311 56.9536 113.663 53.602 113.682 50.3457V47.7559H116.138V50.3457ZM124.213 46.4229V63.79H121.813V53.8306H118.405V51.8691H121.813V46.4229H124.213ZM140.951 46.4229V63.79H138.495V46.4229H140.951ZM129.735 47.7939V52.0215H133.468V47.7939H135.867V59.7339H127.298V47.7939H129.735ZM129.735 57.7725H133.468V53.9067H129.735V57.7725ZM152.415 48.708C152.415 51.2407 154.662 53.9639 158.585 54.6304L157.519 56.6489C154.5 56.0491 152.253 54.3542 151.139 52.1167C149.987 54.3352 147.74 56.0396 144.741 56.6489L143.694 54.6304C147.54 53.9448 149.806 51.2217 149.825 48.708V47.4512H152.415V48.708ZM159.156 59.6196V61.6191H143.294V59.6196H159.156Z" fill="white"/>
<path d="M70.9688 99.0801C70.9688 104.213 72.7617 109.557 77.0508 112.264L74.9063 115.252C72.041 113.529 70.1777 110.559 69.1406 107.061C67.9805 110.91 65.9414 114.162 62.9531 115.99L60.5273 113.072C65.1328 110.26 67.207 104.67 67.207 99.2559V93.5605H70.9688V99.0801ZM88.4766 90.748V122.529H84.7148V90.748H88.4766ZM81.8672 91.3105V120.982H78.1758V104.916H73.6406V101.682H78.1758V91.3105H81.8672ZM121.207 115.463V118.662H92.168V115.463H104.684V108.537H95.3672V93.209H117.867V108.537H108.551V115.463H121.207ZM99.1992 96.3379V105.479H114V96.3379H99.1992ZM127.148 119.682C125.637 119.682 124.406 118.451 124.406 116.939C124.406 115.463 125.637 114.232 127.148 114.232C128.59 114.232 129.855 115.463 129.855 116.939C129.855 118.451 128.59 119.682 127.148 119.682ZM151.547 102.525C151.02 99.4668 148.559 97.709 145.465 97.709C141.281 97.709 138.363 100.908 138.363 106.674C138.363 112.51 141.316 115.639 145.465 115.639C148.488 115.639 150.949 113.951 151.547 110.963H156.152C155.449 115.85 151.441 119.752 145.395 119.752C138.68 119.752 133.758 114.865 133.758 106.674C133.758 98.4473 138.75 93.5957 145.395 93.5957C151.02 93.5957 155.379 96.8652 156.152 102.525H151.547ZM160.09 119.4V93.9473H169.652C175.488 93.9473 178.617 97.2168 178.617 102.068C178.617 105.531 177.035 108.098 174.047 109.311L179.531 119.4H174.434L169.441 110.084H164.66V119.4H160.09ZM164.66 106.252H168.949C172.395 106.252 173.941 104.775 173.941 102.068C173.941 99.3613 172.395 97.7793 168.949 97.7793H164.66V106.252ZM182.555 93.9473H188.18L195.738 112.439H196.055L203.613 93.9473H209.238V119.4H204.844V101.893H204.598L197.531 119.33H194.262L187.195 101.822H186.984V119.4H182.555V93.9473Z" fill="white"/>
<path d="M82.2617 155.051V167.402H79.2617V166.723H75.3945V164.918H79.2617V155.051H82.2617ZM64.1914 162.551C68.3164 162.574 73.4258 162.527 77.9961 162.105L78.1367 163.957C76.25 164.215 74.3164 164.379 72.418 164.473V167.449H69.4648V164.59C67.7188 164.637 66.043 164.637 64.4961 164.613L64.1914 162.551ZM82.2617 168.035V173.027H70.2617V174.129H82.7539V176.215H67.332V171.105H79.2852V170.051H67.2383V168.035H82.2617ZM71.0586 155.332C74.2227 155.332 76.4023 156.621 76.4258 158.543C76.4023 160.535 74.2227 161.73 71.0586 161.73C67.8008 161.73 65.6445 160.535 65.6445 158.543C65.6445 156.621 67.8008 155.332 71.0586 155.332ZM71.0586 157.301C69.4414 157.277 68.457 157.77 68.4805 158.543C68.457 159.34 69.4414 159.785 71.0586 159.785C72.6289 159.785 73.6367 159.34 73.6367 158.543C73.6367 157.77 72.6289 157.277 71.0586 157.301ZM98.4805 157.23V174.199H94.9414V160.582H94.8477L90.957 163.02V159.902L95.1523 157.23H98.4805ZM109.004 174.434C104.762 174.434 102.184 171.27 102.184 165.715C102.184 160.16 104.762 156.996 109.004 156.996C113.246 156.996 115.824 160.184 115.824 165.715C115.824 171.293 113.246 174.434 109.004 174.434ZM109.004 171.527C110.973 171.527 112.238 169.629 112.215 165.715C112.215 161.848 110.973 159.879 109.004 159.879C107.035 159.879 105.793 161.848 105.793 165.715C105.77 169.629 107.035 171.527 109.004 171.527ZM128.434 156.785V167.027H118.191V156.785H128.434ZM121.145 159.176V164.684H125.48V159.176H121.145ZM134.48 155.027V161.168H137.363V163.629H134.48V170.59H131.48V155.027H134.48ZM135.254 173.59V175.98H120.652V169.066H123.629V173.59H135.254ZM156.371 155.051V171.152H153.371V169.465H149.293V167.426H153.371V155.051H156.371ZM156.84 173.59V175.98H140.949V169.605H143.926V166.77C142.016 166.852 140.199 166.863 138.582 166.863L138.23 164.496C142.145 164.473 147.418 164.426 151.918 163.863L152.082 165.996C150.395 166.277 148.648 166.477 146.926 166.605V170.66H143.926V173.59H156.84ZM145.168 155.777C148.262 155.754 150.488 157.324 150.488 159.598C150.488 161.871 148.262 163.348 145.168 163.348C142.004 163.348 139.801 161.871 139.801 159.598C139.801 157.324 141.98 155.754 145.168 155.777ZM145.168 157.957C143.645 157.957 142.613 158.543 142.637 159.598C142.613 160.629 143.645 161.191 145.168 161.191C146.598 161.191 147.629 160.629 147.652 159.598C147.629 158.543 146.598 157.957 145.168 157.957Z" fill="white" fill-opacity="0.6"/>
<rect x="60" y="165.199" width="102" height="2.4" fill="white"/>
<path d="M100.281 223.115V227.896H83.5938V241.865H77.6875V227.896H61.2344V223.115H100.281ZM95.5938 201.318V218.521H65.8281V201.318H95.5938ZM71.7344 206.053V213.834H89.6406V206.053H71.7344ZM141.812 232.256V237.178H102.766V232.256H112.75V225.74H107.266V211.396H131.406V206.803H107.219V202.021H137.312V216.178H113.266V220.912H138.297V225.74H132.25V232.256H141.812ZM118.562 232.256H126.391V225.74H118.562V232.256Z" fill="white"/>
<path d="M158.862 238.152C158.862 235.123 159.765 232.593 161.279 230.434H163.213C162.101 232.029 160.989 235.268 160.989 238.152C160.989 241.037 162.101 244.275 163.213 245.887H161.279C159.765 243.711 158.862 241.198 158.862 238.152ZM179.729 230.354V231.659C179.729 233.02 179.729 234.511 179.342 236.573H181.356V238.023H175.572V244.05H173.767V238.023H168.079V236.573H177.521C177.924 234.591 177.94 233.109 177.94 231.804H169.642V230.354H179.729ZM193.828 229.467V233.657H195.858V235.155H193.828V239.973H192.007V229.467H193.828ZM189.864 230.579C189.864 234.446 187.351 237.202 183.032 238.458L182.291 237.041C185.618 236.082 187.6 234.269 187.915 232.045H182.903V230.579H189.864ZM194.376 242.293V243.744H184.466V238.894H186.287V242.293H194.376ZM209.909 240.795V242.261H196.6V240.795H199.677V237.105C198.517 236.444 197.816 235.405 197.824 234.108C197.808 231.788 200.096 230.257 203.222 230.257C206.364 230.257 208.652 231.788 208.652 234.108C208.652 235.381 207.976 236.404 206.848 237.073V240.795H209.909ZM203.222 231.675C201.047 231.675 199.564 232.593 199.581 234.108C199.564 235.606 201.047 236.541 203.222 236.541C205.397 236.541 206.896 235.606 206.896 234.108C206.896 232.593 205.397 231.675 203.222 231.675ZM201.45 240.795H205.027V237.75C204.471 237.878 203.867 237.943 203.222 237.943C202.594 237.943 201.998 237.878 201.45 237.766V240.795ZM222.542 230.176V231.304C222.542 232.432 222.542 233.721 222.188 235.445H224.169V236.896H210.86V235.445H220.383C220.721 233.874 220.753 232.674 220.753 231.61H212.503V230.176H222.542ZM222.526 238.587V243.856H212.455V238.587H222.526ZM214.211 239.989V242.406H220.753V239.989H214.211ZM237.656 229.467V244.034H235.948V229.467H237.656ZM234.691 229.741V243.325H233V235.993H230.905V234.543H233V229.741H234.691ZM229.616 233.447C229.616 235.913 230.502 238.378 232.581 239.57L231.517 240.892C230.172 240.086 229.277 238.7 228.778 237.041C228.262 238.837 227.336 240.368 225.958 241.23L224.862 239.893C226.973 238.62 227.892 235.977 227.892 233.447V232.48H225.362V231.03H231.968V232.48H229.616V233.447ZM255.413 229.467V244.05H253.608V229.467H255.413ZM247.566 230.531C249.757 230.531 251.353 232.529 251.369 235.671C251.353 238.845 249.757 240.827 247.566 240.827C245.358 240.827 243.763 238.845 243.763 235.671C243.763 232.529 245.358 230.531 247.566 230.531ZM247.566 232.142C246.325 232.142 245.487 233.447 245.487 235.671C245.487 237.911 246.325 239.216 247.566 239.216C248.791 239.216 249.628 237.911 249.628 235.671C249.628 233.447 248.791 232.142 247.566 232.142ZM262.712 231.788C262.712 233.625 263.905 235.349 266.145 236.058L265.178 237.459C263.607 236.928 262.479 235.864 261.858 234.511C261.214 236.058 260.038 237.274 258.362 237.862L257.395 236.46C259.748 235.639 260.908 233.705 260.924 231.626V230.241H262.712V231.788ZM269.045 229.467V233.012H271.075V234.495H269.045V238.185H267.256V229.467H269.045ZM264.308 238.507C267.321 238.491 269.174 239.522 269.19 241.246C269.174 243.002 267.321 244.018 264.308 244.018C261.262 244.018 259.377 243.002 259.377 241.246C259.377 239.522 261.262 238.491 264.308 238.507ZM264.308 239.909C262.31 239.909 261.166 240.392 261.166 241.246C261.166 242.148 262.31 242.6 264.308 242.6C266.306 242.6 267.417 242.148 267.417 241.246C267.417 240.392 266.306 239.909 264.308 239.909ZM280.937 232.964C280.92 235.558 282.226 238.201 284.481 239.28L283.386 240.714C281.807 239.917 280.671 238.378 280.05 236.525C279.414 238.507 278.221 240.15 276.554 240.988L275.458 239.554C277.794 238.442 279.132 235.655 279.148 232.964V230.644H280.937V232.964ZM287.14 229.467V235.171H289.38V236.702H287.14V244.034H285.352V229.467H287.14ZM303.27 236.477V237.911H289.992V236.477H293.086V234.624C291.99 234.164 291.362 233.431 291.362 232.48C291.362 230.74 293.408 229.709 296.615 229.709C299.821 229.709 301.852 230.74 301.868 232.48C301.86 233.439 301.231 234.172 300.127 234.624V236.477H303.27ZM296.615 238.797C299.757 238.781 301.642 239.715 301.658 241.391C301.642 243.083 299.757 244.001 296.615 244.001C293.44 244.001 291.539 243.083 291.539 241.391C291.539 239.715 293.44 238.781 296.615 238.797ZM296.615 240.15C294.488 240.15 293.344 240.569 293.36 241.391C293.344 242.213 294.488 242.648 296.615 242.648C298.693 242.648 299.854 242.213 299.87 241.391C299.854 240.569 298.693 240.15 296.615 240.15ZM296.615 231.095C294.456 231.095 293.215 231.578 293.231 232.48C293.215 233.367 294.456 233.834 296.615 233.834C298.758 233.834 300.015 233.367 300.015 232.48C300.015 231.578 298.758 231.095 296.615 231.095ZM294.891 236.477H298.339V235.091C297.815 235.163 297.235 235.204 296.615 235.204C295.994 235.204 295.414 235.163 294.891 235.091V236.477ZM320.06 230.805V232.207C320.043 234.011 320.043 236.042 319.479 239.087L317.675 238.894C318.239 236.058 318.239 233.987 318.255 232.239H309.554V230.805H320.06ZM321.445 240.682V242.148H308.168V240.682H313.066V235.623H314.839V240.682H321.445ZM334.884 229.483V238.023H333.176V234.398H331.645V237.959H329.953V229.757H331.645V232.932H333.176V229.483H334.884ZM334.884 238.62V244.034H333.095V240.07H324.845V238.62H334.884ZM328.777 230.499C328.793 234.108 326.956 236.622 323.202 238.152L322.348 236.815C325.184 235.735 326.666 234.084 326.956 231.949H323.008V230.499H328.777ZM344.938 238.152C344.938 241.198 344.036 243.711 342.521 245.887H340.588C341.7 244.275 342.812 241.037 342.812 238.152C342.812 235.268 341.7 232.029 340.588 230.434H342.521C344.036 232.593 344.938 235.123 344.938 238.152Z" fill="white" fill-opacity="0.7"/>
<path d="M405.271 230.934L408.301 240.134H408.43L411.475 230.934H413.779L409.654 242.6H407.076L402.967 230.934H405.271ZM415.278 242.6H413.038L417.147 230.934H419.725L423.85 242.6H421.61L420.644 239.715H416.245L415.278 242.6ZM416.809 238.023H420.08L418.484 233.318H418.388L416.809 238.023ZM423.302 232.69V230.934H432.6V232.69H429.006V242.6H426.912V232.69H423.302ZM449.76 229.467V236.992H447.972V235.413H445.039V236.525H438.223V230.112H440.012V231.949H443.267V230.112H445.039V231.401H447.972V229.467H449.76ZM449.76 237.588V241.327H441.961V242.438H450.228V243.856H440.173V240.005H447.972V238.99H440.157V237.588H449.76ZM440.012 235.107H443.267V233.318H440.012V235.107ZM445.039 234.043H447.972V232.754H445.039V234.043ZM463.65 236.09V237.508H459.332V240.843H465.132V242.31H451.823V240.843H457.559V237.508H453.434V230.547H463.537V231.981H455.223V236.09H463.65Z" fill="#981300"/>
</g>
<defs>
<filter id="filter0_d_4766_1921" x="-1.90735e-06" y="0" width="528" height="332" filterUnits="userSpaceOnUse" color-interpolation-filters="sRGB">
<feFlood flood-opacity="0" result="BackgroundImageFix"/>
<feColorMatrix in="SourceAlpha" type="matrix" values="0 0 0 0 0 0 0 0 0 0 0 0 0 0 0 0 0 0 127 0" result="hardAlpha"/>
<feOffset dy="24"/>
<feGaussianBlur stdDeviation="12"/>
<feComposite in2="hardAlpha" operator="out"/>
<feColorMatrix type="matrix" values="0 0 0 0 0.968627 0 0 0 0 0.341176 0 0 0 0 0.592157 0 0 0 0.24 0"/>
<feBlend mode="normal" in2="BackgroundImageFix" result="effect1_dropShadow_4766_1921"/>
<feBlend mode="normal" in="SourceGraphic" in2="effect1_dropShadow_4766_1921" result="shape"/>
</filter>
<linearGradient id="paint0_linear_4766_1921" x1="24" y1="0" x2="486.369" y2="300.072" gradientUnits="userSpaceOnUse">
<stop stop-color="#F457B5"/>
<stop offset="1" stop-color="#FF5732"/>
</linearGradient>
<linearGradient id="paint1_linear_4766_1921" x1="24" y1="7.21544" x2="493.994" y2="300.333" gradientUnits="userSpaceOnUse">
<stop stop-color="white"/>
<stop offset="0.505" stop-color="#FF94C9"/>
<stop offset="1" stop-color="white"/>
</linearGradient>
</defs>
</svg>
