<svg width="360" height="218" viewBox="0 0 360 218" fill="none" xmlns="http://www.w3.org/2000/svg">
<rect width="360" height="160" rx="80" fill="url(#paint0_linear_11098_6120)"/>
<path d="M106.264 32L68.9327 66.8207C67.7508 67.9275 67.6826 69.7898 68.7812 70.9806C69.3571 71.6026 70.1375 71.9194 70.9217 71.9194C71.0429 71.9194 71.1679 71.9003 71.2892 71.885C71.399 71.8965 71.5089 71.9194 71.6225 71.9194H85.7724V102.302C85.7724 104.382 87.4431 106.065 89.5078 106.065C91.5725 106.065 93.2432 104.378 93.2432 102.302V88.3756H107.166V102.302C107.166 104.382 108.836 106.065 110.901 106.065C112.966 106.065 114.636 104.378 114.636 102.302V69.6601C114.636 67.5802 112.966 65.8971 110.901 65.8971C108.836 65.8971 107.166 67.5802 107.166 69.6601V81.1932H93.2432V69.6601C93.2432 67.5802 91.5725 65.8971 89.5078 65.8971C89.1668 65.8971 78.4758 65.9239 78.4758 65.9239L102.843 43.1171C106.222 39.9266 108.598 39.8656 111.924 42.8805C115.174 45.8268 127.157 56.7225 133.446 62.4395C135.401 64.2179 136.795 65.485 137.216 65.8666H173.448C174.437 65.8666 175.324 65.2484 175.672 64.3133C176.021 63.3783 175.759 62.325 175.013 61.6686L141.356 32H106.264Z" fill="#005DAB"/>
<path d="M131.564 76.2068C123.168 76.2068 118.94 82.8702 118.94 91.0869C118.94 99.3036 123.502 105.971 131.564 105.971C139.625 105.971 144.187 99.3074 144.187 91.0869C144.187 82.8664 139.962 76.2068 131.564 76.2068ZM131.564 100.303C127.696 100.303 125.51 96.1779 125.51 91.0869C125.51 85.9958 127.536 81.8703 131.564 81.8703C135.591 81.8703 137.617 85.9958 137.617 91.0869C137.617 96.1779 135.432 100.303 131.564 100.303Z" fill="#005DAB"/>
<path d="M176.801 76.2964C173.672 76.2964 170.721 78.4603 168.361 81.4562C167.319 78.3305 165.254 76.2964 161.958 76.2964C159.026 76.2964 156.226 78.1206 153.896 80.7425V79.2617C153.896 77.449 152.438 75.9758 150.635 75.9758C148.831 75.9758 147.373 77.4451 147.373 79.2617V102.435C147.373 104.248 148.831 105.721 150.635 105.721C152.438 105.721 153.896 104.251 153.896 102.435V88.444C153.896 85.761 155.772 82.2843 158.56 82.2843C161.348 82.2843 162.659 84.0093 162.659 85.5359V102.435C162.659 104.248 164.118 105.721 165.921 105.721C167.724 105.721 169.183 104.251 169.183 102.435V89.8102C169.183 86.219 171.058 82.2843 173.846 82.2843C176.635 82.2843 177.946 84.3948 177.946 85.9175V102.431C177.946 104.244 179.404 105.717 181.207 105.717C183.011 105.717 184.469 104.248 184.469 102.431V86.5129C184.469 79.6281 182.454 76.2926 176.809 76.2926L176.801 76.2964Z" fill="#005DAB"/>
<path d="M213.804 103.508C213.804 103.485 213.796 103.466 213.796 103.447C213.796 103.428 213.804 103.413 213.804 103.394C213.804 97.0548 208.682 89.3572 201.295 89.3572C195.025 89.3572 189.956 94.1735 188.596 101.287H181.375C180.155 101.287 179.166 102.283 179.166 103.512C179.166 104.741 180.155 105.737 181.375 105.737H188.251C188.52 113.648 194.286 119.602 201.412 119.602C208.019 119.602 211.58 114.881 211.77 114.687C212.906 113.507 213.812 111.759 212.641 110.614C211.47 109.47 209.599 109.496 208.462 110.676C208.432 110.706 205.485 113.648 201.412 113.648C197.654 113.648 195.108 110.21 194.82 105.733H211.603C212.823 105.733 213.812 104.737 213.812 103.508H213.804ZM201.295 95.3107C204.984 95.3107 206.477 98.6768 207.068 101.287H195.18C195.972 97.9135 197.961 95.3107 201.295 95.3107Z" fill="url(#paint1_linear_11098_6120)"/>
<path d="M227.274 99.5595H225.891C225.493 99.5595 225.236 99.3878 225.236 98.9336V83.275H228.066C229.452 83.275 230.577 82.1415 230.577 80.7448C230.577 79.348 229.452 78.2145 228.066 78.2145H225.236V73.4745C225.236 71.6999 223.603 70.2573 221.841 70.2573C220.08 70.2573 218.481 71.6961 218.481 73.4745V78.2145H217.091C215.704 78.2145 214.579 79.348 214.579 80.7448C214.579 82.1415 215.704 83.275 217.091 83.275H218.481V99.8152C218.481 103.032 220.985 105.555 224.179 105.555H227.278C229.039 105.555 230.471 104.33 230.471 102.552C230.471 100.773 229.043 99.5595 227.278 99.5595H227.274Z" fill="#005DAB"/>
<path d="M255.713 101.111C255.373 100.256 255.119 99.1113 255.119 98.7183V83.4947C255.119 79.85 251.83 76.0527 244.337 76.0527C236.843 76.0527 234.093 81.6056 233.979 81.8689C233.472 83.0673 233.297 84.7388 234.657 85.7158C235.847 86.5707 237.885 86.2272 238.737 85.006C238.756 84.9793 240.499 81.8651 244.337 81.8651C248.174 81.8651 249.008 84.3457 249.008 85.4563V86.5669C248.133 87.5057 246.939 88.2995 245.356 88.3644C241.28 88.5361 231.858 89.1353 231.858 97.8596C231.858 103.847 236.529 105.641 240.942 105.641C243.272 105.641 246.583 104.18 249.038 101.294C249.175 103.038 249.849 104.237 251.092 105.279C251.675 105.767 252.387 105.725 253.168 105.725C253.948 105.725 255.001 104.905 255.289 104.615C255.884 104.015 256.054 101.962 255.713 101.107V101.111ZM247.14 98.6305C245.951 99.8288 244.507 100.855 242.215 100.855C239.923 100.855 238.563 98.89 238.563 97.1764C238.563 95.4629 240.348 93.3295 243.488 93.3295C245.871 93.3295 247.856 92.6082 249.008 91.6045V96.043C248.527 96.9551 247.921 97.8481 247.14 98.6343V98.6305Z" fill="#005DAB"/>
<path d="M273.002 91.0202L277.81 83.7385C278.996 81.941 278.996 79.0253 277.81 77.2278C276.624 75.4303 274.7 75.4303 273.514 77.2278L268.706 84.5094L263.899 77.2278C262.713 75.4303 260.788 75.4303 259.603 77.2278C258.417 79.0253 258.417 81.941 259.603 83.7385L264.41 91.0202L259.603 98.3019C258.417 100.099 258.417 103.015 259.603 104.813C260.198 105.709 260.974 106.16 261.751 106.16C262.527 106.16 263.304 105.709 263.899 104.813L268.706 97.531L273.514 104.813C274.109 105.709 274.885 106.16 275.662 106.16C276.439 106.16 277.219 105.709 277.81 104.813C278.996 103.015 278.996 100.099 277.81 98.3019L273.002 91.0202Z" fill="#005DAB"/>
<path d="M287.894 109.01C290.162 109.01 292 107.158 292 104.873C292 102.588 290.162 100.736 287.894 100.736C285.625 100.736 283.787 102.588 283.787 104.873C283.787 107.158 285.625 109.01 287.894 109.01Z" fill="#019F40"/>
<path d="M284.328 110.094C284.328 110.094 269.046 123.894 248.672 123.894C234.063 123.894 224.323 117.86 220.012 114.593C219.974 114.021 219.629 113.166 219.629 113.166C219.629 113.166 219.095 112.616 218.69 112.257C218.285 111.895 217.853 111.586 217.853 111.586C217.853 111.586 217.432 111.838 216.959 112.38C216.485 112.921 216.288 113.376 216.288 113.376C216.288 113.376 216.576 113.704 217.05 114.127C217.527 114.551 218.061 114.952 218.061 114.952C218.061 114.952 219.042 115.211 219.603 115.146C223.823 119.322 234.241 128 247.997 128C266.11 128 276.695 117.795 284.336 110.097L284.328 110.094Z" fill="#FA9F1D"/>
<path d="M187.045 57.1157C187.654 56.5051 187.961 55.7532 187.961 54.8869C187.961 54.0206 187.651 53.2688 187.045 52.6505C186.435 52.0361 185.643 51.7231 184.696 51.7231C183.749 51.7231 182.968 52.0361 182.358 52.6505C181.748 53.265 181.441 54.0168 181.441 54.8869C181.441 55.7571 181.752 56.5051 182.358 57.1157C182.968 57.7263 183.752 58.0354 184.696 58.0354C185.639 58.0354 186.435 57.7263 187.045 57.1157ZM183.411 53.6084C183.711 53.2611 184.143 53.0856 184.696 53.0856C185.249 53.0856 185.696 53.2611 185.995 53.6123C186.298 53.9634 186.45 54.3946 186.45 54.8907C186.45 55.3869 186.298 55.8029 185.995 56.154C185.696 56.5013 185.26 56.6768 184.696 56.6768C184.131 56.6768 183.707 56.5013 183.411 56.1502C183.108 55.799 182.957 55.3716 182.957 54.8869C182.957 54.4022 183.108 53.9595 183.411 53.6084Z" fill="#005DAB"/>
<path d="M184.726 59.2515H183.229V63.2396H191.913V61.9191H184.726V59.2515Z" fill="#005DAB"/>
<path d="M191.651 51.3188H190.177V60.2072H191.651V51.3188Z" fill="#005DAB"/>
<path d="M199.777 59.5043C199.262 59.5539 198.754 59.5882 198.266 59.6073C197.656 59.6455 197.087 59.6607 196.568 59.6607H195.826V57.3289H199.868V55.9665H195.826V53.8522H200.05V52.5317H194.352V61.0232H194.435C194.496 61.0232 194.962 61.0232 195.83 61.0156C196.69 61.0117 197.5 60.9888 198.231 60.9545C198.724 60.9278 199.243 60.8896 199.766 60.8362C200.292 60.7866 200.739 60.737 201.092 60.6912L201.167 60.6797V59.344L201.073 59.3554C200.728 59.4012 200.292 59.447 199.773 59.5005L199.777 59.5043Z" fill="#005DAB"/>
<path d="M202.331 55.6275H200.232V56.948H202.331V63.5313H203.805V51.3188H202.331V55.6275Z" fill="#005DAB"/>
<path d="M212.427 58.4191H213.859V51.5305H212.427V53.5112H210.26V54.8355H212.427V58.4191Z" fill="#005DAB"/>
<path d="M213.391 60.6764C212.879 59.9284 212.622 59.3827 212.622 59.0545V58.5583H210.951V59.0545C210.951 59.3827 210.708 59.9055 210.227 60.6154C209.75 61.3214 208.693 61.9397 207.083 62.4511L206.962 62.4892L207.89 63.5731L207.939 63.5616C208.56 63.4052 209.314 63.0541 210.182 62.5198C210.977 62.0236 211.523 61.4932 211.803 60.9321C212.087 61.4054 212.622 61.932 213.387 62.5007C214.239 63.1304 215.001 63.4891 215.656 63.5616H215.702L216.626 62.4854L216.497 62.4511C214.94 62.0198 213.895 61.4245 213.391 60.6803V60.6764Z" fill="#005DAB"/>
<path d="M210.469 57.7589C211.056 57.6864 211.45 57.6253 211.681 57.5795L211.749 57.5642V56.198L211.647 56.2209C211.39 56.2743 210.961 56.3354 210.37 56.3964C209.776 56.4613 209.295 56.4956 208.938 56.5071L208.022 56.5185V51.9351H206.559V57.9077L208.825 57.8924C209.336 57.8734 209.889 57.8276 210.469 57.755V57.7589Z" fill="#005DAB"/>
<path d="M216.47 51.3188H215.034V59.589H216.47V51.3188Z" fill="#005DAB"/>
<path d="M229.287 56.8879C230.034 56.7925 230.606 56.7048 230.985 56.6208L231.053 56.6055V55.2965L230.951 55.3194C230.507 55.411 229.905 55.5026 229.151 55.5904C228.397 55.682 227.624 55.7354 226.859 55.7545L225.393 55.7659V51.8389H223.919V57.0864L226.848 57.0597C227.715 57.0406 228.537 56.9834 229.287 56.8879Z" fill="#005DAB"/>
<path d="M231.751 59.5319H226.614V58.1924H225.114V63.3865H233.251V58.1924H231.751V59.5319ZM226.614 62.1042V60.8104H231.751V62.1042H226.614Z" fill="#005DAB"/>
<path d="M233.253 51.3188H231.779V57.7685H233.253V55.0055H234.882V53.685H233.253V51.3188Z" fill="#005DAB"/>
<path d="M240.36 57.7239C239.955 56.7392 239.747 55.6249 239.747 54.4112V52.3008H238.209V54.4112C238.209 55.6439 237.996 56.8194 237.576 57.9109C237.159 58.9947 236.443 59.8878 235.454 60.5671L235.356 60.632L236.561 61.567L236.614 61.5212C237.148 61.0441 237.656 60.4488 238.129 59.7542C238.527 59.1665 238.811 58.6169 238.974 58.117C239.141 58.594 239.436 59.1168 239.849 59.6779C240.342 60.3457 240.808 60.8609 241.228 61.212L241.285 61.2578L242.338 60.277L242.258 60.216C241.402 59.5443 240.766 58.7047 240.36 57.7277V57.7239Z" fill="#005DAB"/>
<path d="M242.826 55.4122H241V56.8166H242.826V62.961H244.258V51.5691H242.826V55.4122Z" fill="#005DAB"/>
<path d="M246.686 51.3188H245.25V63.5313H246.686V51.3188Z" fill="#005DAB"/>
<path d="M253.72 57.6526C253.179 56.7023 252.902 55.4734 252.902 54.0003V52.012H251.364V54.0003C251.364 55.4582 251.095 56.7366 250.565 57.8091C250.034 58.8738 249.163 59.7669 247.977 60.4538L247.871 60.5149L249.057 61.4919L249.106 61.4613C249.678 61.1217 250.299 60.5492 250.955 59.7592C251.542 59.0532 251.944 58.3891 252.156 57.7747C252.463 58.4464 252.902 59.1181 253.467 59.7707C254.092 60.492 254.671 60.9805 255.183 61.2209L255.24 61.2476L256.221 60.1409L256.134 60.0874C255.073 59.4234 254.258 58.6029 253.717 57.6526H253.72Z" fill="#005DAB"/>
<path d="M257.298 55.3261H254.729V56.7038H257.298V63.5313H258.772V51.3188H257.298V55.3261Z" fill="#005DAB"/>
<path d="M270.914 51.3188H269.44V63.5313H270.914V51.3188Z" fill="#005DAB"/>
<path d="M265.802 55.2554H262.801V52.397H261.328V61.0106H267.275V52.397H265.802V55.2554ZM262.801 59.6786V56.6217H265.802V59.6786H262.801Z" fill="#005DAB"/>
<path d="M274.479 58.912C275.339 58.6448 276.21 58.1487 277.07 57.4389C277.862 56.7863 278.404 56.1069 278.688 55.4238C278.999 56.0459 279.537 56.7023 280.294 57.3816C281.124 58.1296 281.995 58.6448 282.882 58.912L282.931 58.9273L283.965 57.7938L283.844 57.7518C281.988 57.0878 280.779 56.2481 280.253 55.2597C279.722 54.2636 279.453 53.4813 279.453 52.9317V52.012H277.9V52.9317C277.9 53.4813 277.65 54.2598 277.157 55.2406C276.673 56.2138 275.441 57.0572 273.509 57.7518L273.388 57.7938L274.422 58.9273L274.471 58.912H274.479Z" fill="#005DAB"/>
<path d="M284.505 60.426H272.859V61.7465H284.505V60.426Z" fill="#005DAB"/>
<g clip-path="url(#clip0_11098_6120)">
<path d="M192.15 197.375V178H167.85V197.375H160L180 218L200 197.375H192.15Z" fill="url(#paint2_linear_11098_6120)"/>
</g>
<defs>
<linearGradient id="paint0_linear_11098_6120" x1="180" y1="0" x2="180" y2="160" gradientUnits="userSpaceOnUse">
<stop stop-color="white"/>
<stop offset="1" stop-color="#EEF7FF"/>
</linearGradient>
<linearGradient id="paint1_linear_11098_6120" x1="188.118" y1="115.843" x2="209.664" y2="95.1332" gradientUnits="userSpaceOnUse">
<stop offset="0.28" stop-color="#005DAB"/>
<stop offset="0.4" stop-color="#006CB7"/>
<stop offset="0.61" stop-color="#0093D9"/>
<stop offset="0.75" stop-color="#00AFF1"/>
</linearGradient>
<linearGradient id="paint2_linear_11098_6120" x1="180" y1="178" x2="180" y2="218" gradientUnits="userSpaceOnUse">
<stop stop-color="white"/>
<stop offset="1" stop-color="#0088FF"/>
</linearGradient>
<clipPath id="clip0_11098_6120">
<rect width="40" height="40" fill="white" transform="translate(160 178)"/>
</clipPath>
</defs>
</svg>
