<svg width="420" height="420" viewBox="0 0 420 420" fill="none" xmlns="http://www.w3.org/2000/svg">
<g filter="url(#filter0_i_8795_38)">
<g clip-path="url(#clip0_8795_38)">
<rect width="420" height="420" rx="20" fill="url(#paint0_linear_8795_38)" fill-opacity="0.15"/>
<g filter="url(#filter1_d_8795_38)">
<rect x="74" y="38" width="273" height="508" rx="36" fill="#F4F4F4"/>
<g filter="url(#filter2_i_8795_38)">
<rect x="85" y="51" width="251" height="482" rx="28" fill="white"/>
</g>
<path d="M118.923 68.0127C119.492 68.0127 120.03 68.1181 120.54 68.3288C121.05 68.5346 121.5 68.858 121.892 69.2989C122.289 69.735 122.6 70.296 122.826 70.982C123.051 71.6631 123.164 72.4838 123.164 73.4441V73.4588C123.164 74.6495 122.992 75.6686 122.649 76.5163C122.306 77.3639 121.814 78.0156 121.172 78.4713C120.535 78.9221 119.773 79.1475 118.886 79.1475C118.235 79.1475 117.647 79.0299 117.122 78.7947C116.603 78.5546 116.172 78.2263 115.829 77.8098C115.491 77.3884 115.263 76.9083 115.145 76.3693L115.131 76.2884H116.99L117.02 76.3619C117.113 76.6069 117.245 76.8225 117.416 77.0087C117.593 77.1949 117.804 77.3394 118.049 77.4423C118.298 77.5403 118.578 77.5893 118.886 77.5893C119.445 77.5893 119.901 77.4252 120.253 77.0969C120.611 76.7637 120.878 76.3203 121.055 75.7666C121.236 75.208 121.339 74.5907 121.363 73.9145C121.368 73.841 121.371 73.77 121.371 73.7014C121.371 73.6279 121.371 73.5568 121.371 73.4882L121.04 71.717C121.04 71.3152 120.947 70.9502 120.761 70.6219C120.574 70.2936 120.322 70.0339 120.004 69.8428C119.69 69.6517 119.335 69.5562 118.938 69.5562C118.556 69.5562 118.205 69.6493 117.887 69.8355C117.568 70.0216 117.314 70.2764 117.122 70.5998C116.931 70.9183 116.836 71.276 116.836 71.6729V71.6876C116.836 72.0991 116.926 72.4642 117.108 72.7827C117.289 73.0962 117.537 73.3437 117.85 73.525C118.164 73.7063 118.521 73.7969 118.923 73.7969C119.325 73.7969 119.685 73.7087 120.004 73.5323C120.322 73.3559 120.574 73.1109 120.761 72.7974C120.947 72.4838 121.04 72.1285 121.04 71.7317V71.717H121.481V73.672H121.224C121.096 73.9513 120.908 74.2109 120.658 74.451C120.408 74.6911 120.099 74.8847 119.732 75.0317C119.369 75.1786 118.943 75.2521 118.453 75.2521C117.777 75.2521 117.179 75.1003 116.659 74.7965C116.14 74.4927 115.731 74.0762 115.432 73.547C115.138 73.0179 114.991 72.4201 114.991 71.7537V71.739C114.991 71.0187 115.158 70.3793 115.491 69.8208C115.829 69.2573 116.294 68.8163 116.887 68.4978C117.485 68.1744 118.164 68.0127 118.923 68.0127ZM126.501 77.457C126.167 77.457 125.888 77.3468 125.663 77.1263C125.442 76.9009 125.332 76.6265 125.332 76.3031C125.332 75.9749 125.442 75.7005 125.663 75.48C125.888 75.2546 126.167 75.1419 126.501 75.1419C126.839 75.1419 127.118 75.2546 127.338 75.48C127.559 75.7005 127.669 75.9749 127.669 76.3031C127.669 76.6265 127.559 76.9009 127.338 77.1263C127.118 77.3468 126.839 77.457 126.501 77.457ZM126.501 72.0036C126.167 72.0036 125.888 71.8934 125.663 71.6729C125.442 71.4475 125.332 71.1731 125.332 70.8497C125.332 70.5214 125.442 70.247 125.663 70.0265C125.888 69.8012 126.167 69.6885 126.501 69.6885C126.839 69.6885 127.118 69.8012 127.338 70.0265C127.559 70.247 127.669 70.5214 127.669 70.8497C127.669 71.1731 127.559 71.4475 127.338 71.6729C127.118 71.8934 126.839 72.0036 126.501 72.0036ZM134.982 78.8829V76.847H129.793V75.2962C130.073 74.821 130.352 74.3432 130.631 73.8631C130.915 73.3829 131.202 72.9052 131.491 72.4299C131.785 71.9497 132.077 71.4769 132.366 71.0114C132.66 70.541 132.951 70.078 133.24 69.6223C133.534 69.1617 133.828 68.7134 134.122 68.2773H136.79V75.2815H138.223V76.847H136.79V78.8829H134.982ZM131.557 75.3256H135.012V69.7914H134.901C134.686 70.1245 134.463 70.4675 134.232 70.8203C134.007 71.1731 133.779 71.5332 133.549 71.9007C133.319 72.2682 133.091 72.6381 132.865 73.0105C132.64 73.378 132.417 73.7479 132.197 74.1203C131.976 74.4878 131.763 74.8528 131.557 75.2154V75.3256ZM142.611 78.8829V70.1441H142.479L139.84 72.0036V70.225L142.611 68.2773H144.5V78.8829H142.611Z" fill="black"/>
<rect opacity="0.35" x="301.621" y="68.4525" width="21.25" height="10.625" rx="3.36458" stroke="black" stroke-width="0.885417"/>
<path opacity="0.4" d="M324.199 72.2422V75.8507C324.911 75.5451 325.375 74.8342 325.375 74.0465C325.375 73.2588 324.911 72.5479 324.199 72.2422Z" fill="black"/>
<rect x="302.949" y="69.7813" width="18.5938" height="7.96875" rx="2.21354" fill="black"/>
<path fill-rule="evenodd" clip-rule="evenodd" d="M287.251 70.758C289.453 70.7581 291.571 71.5745 293.167 73.0385C293.287 73.1515 293.479 73.1501 293.598 73.0353L294.747 71.9166C294.806 71.8584 294.84 71.7795 294.839 71.6975C294.839 71.6154 294.805 71.5369 294.744 71.4794C290.555 67.6059 283.946 67.6059 279.758 71.4794C279.697 71.5369 279.662 71.6153 279.662 71.6974C279.661 71.7795 279.695 71.8583 279.755 71.9166L280.904 73.0353C281.022 73.1503 281.214 73.1517 281.334 73.0385C282.931 71.5744 285.049 70.758 287.251 70.758ZM287.248 74.4947C288.45 74.4946 289.609 74.9477 290.5 75.7659C290.62 75.8821 290.81 75.8795 290.927 75.7603L292.067 74.5921C292.127 74.5309 292.16 74.4477 292.16 74.3614C292.159 74.275 292.124 74.1926 292.063 74.1325C289.35 71.5729 285.149 71.5729 282.436 74.1325C282.375 74.1926 282.34 74.275 282.339 74.3614C282.338 74.4478 282.371 74.5309 282.432 74.5921L283.571 75.7603C283.689 75.8795 283.878 75.8821 283.999 75.7659C284.889 74.9482 286.047 74.4952 287.248 74.4947ZM289.483 76.9681C289.485 77.0614 289.452 77.1513 289.393 77.2167L287.465 79.3901C287.409 79.454 287.332 79.49 287.251 79.49C287.171 79.49 287.094 79.454 287.038 79.3901L285.11 77.2167C285.05 77.1513 285.018 77.0613 285.019 76.968C285.021 76.8748 285.057 76.7864 285.119 76.7239C286.35 75.5606 288.153 75.5606 289.384 76.7239C289.445 76.7865 289.482 76.8748 289.483 76.9681Z" fill="black"/>
<path fill-rule="evenodd" clip-rule="evenodd" d="M273.022 69.4993C273.022 68.9388 272.599 68.4844 272.077 68.4844H271.133C270.611 68.4844 270.188 68.9388 270.188 69.4993V78.295C270.188 78.8555 270.611 79.3099 271.133 79.3099H272.077C272.599 79.3099 273.022 78.8555 273.022 78.295V69.4993ZM266.439 70.6495H267.384C267.905 70.6495 268.328 71.1148 268.328 71.6888V78.2707C268.328 78.8446 267.905 79.3099 267.384 79.3099H266.439C265.918 79.3099 265.495 78.8446 265.495 78.2707V71.6888C265.495 71.1148 265.918 70.6495 266.439 70.6495ZM262.604 72.995H261.66C261.138 72.995 260.715 73.4662 260.715 74.0475V78.2574C260.715 78.8387 261.138 79.3099 261.66 79.3099H262.604C263.126 79.3099 263.548 78.8387 263.548 78.2574V74.0475C263.548 73.4662 263.126 72.995 262.604 72.995ZM257.911 75.1601H256.966C256.445 75.1601 256.022 75.6246 256.022 76.1976V78.2725C256.022 78.8454 256.445 79.3099 256.966 79.3099H257.911C258.432 79.3099 258.855 78.8454 258.855 78.2725V76.1976C258.855 75.6246 258.432 75.1601 257.911 75.1601Z" fill="black"/>
</g>
<path d="M103.792 126L103.779 124.485L107.393 121.162C108.338 120.259 108.839 119.702 108.839 118.91C108.839 118.02 108.158 117.464 107.24 117.464C106.295 117.464 105.683 118.062 105.683 119.021H103.695C103.681 117.047 105.141 115.796 107.268 115.796C109.423 115.796 110.855 117.019 110.855 118.771C110.855 119.911 110.298 120.856 108.227 122.733L106.698 124.221V124.276H110.994V126H103.792ZM112.092 124.221V122.566L116.346 115.935H118.973V122.538H120.252V124.221H118.973V126H116.985V124.221H112.092ZM114.205 122.538H117.013V118.229H116.916L114.205 122.455V122.538ZM131.86 114.642V123.943H130.095V119.8H126.953V118.41H130.095V117.436H126.953V116.046H130.095V114.642H131.86ZM132.166 125.639V127.057H123.45V123.108H125.229V125.639H132.166ZM123.658 115.435V120.842C125.208 120.829 126.654 120.724 128.232 120.439L128.413 121.871C126.522 122.233 124.812 122.302 122.921 122.302H121.906V115.435H123.658ZM141.536 115.935V126H139.437V117.923H139.381L137.073 119.369V117.52L139.562 115.935H141.536ZM155.021 121.12V122.511H150.252V124.554H148.501V122.511H143.44V121.12H155.021ZM153.742 125.639V127.057H144.803V123.553H146.554V125.639H153.742ZM146.68 115.031V116.352H151.754V115.031H153.519V120.231H144.928V115.031H146.68ZM146.68 118.827H151.754V117.673H146.68V118.827ZM166.392 114.628V127.279H164.599V114.628H166.392ZM162.597 115.949C162.597 119.786 161.249 122.969 156.731 125.11L155.799 123.692C159.066 122.149 160.505 120.147 160.79 117.339H156.48V115.949H162.597ZM182.004 114.628V127.279H180.239V120.94H177.722V119.494H180.239V114.628H182.004ZM177.792 115.949C177.792 119.772 176.555 122.886 172.134 125.082L171.216 123.692C174.414 122.114 175.734 120.106 176.012 117.339H171.814V115.949H177.792ZM188.802 115.852V120.731H185.702V122.997C186.905 122.983 188.051 122.935 189.344 122.733L189.469 124.151C187.815 124.429 186.453 124.471 184.882 124.471H184.006V119.313H187.092V117.284H183.992V115.852H188.802ZM194.585 114.628V127.279H192.903V120.842H191.68V126.667H190.053V114.837H191.68V119.411H192.903V114.628H194.585ZM206.638 114.628V127.307H204.859V120.912H202.579V119.494H204.859V114.628H206.638ZM200.688 118.59C200.688 120.425 201.689 122.469 203.76 123.359L202.815 124.721C201.376 124.123 200.375 122.914 199.826 121.468C199.27 123.004 198.276 124.297 196.823 124.916L195.892 123.553C197.922 122.65 198.909 120.495 198.923 118.59V118.104H196.295V116.686H198.923V114.906H200.702V116.686H203.26V118.104H200.688V118.59ZM222.5 114.628V127.279H220.804V120.898H219.664V126.695H217.982V114.809H219.664V119.452H220.804V114.628H222.5ZM216.926 115.935V124.095H211.893V115.935H216.926ZM213.547 117.339V122.705H215.271V117.339H213.547ZM235.345 120.022V121.315H230.48V122.107H233.969V125.194H226.921V125.889H234.303V127.196H225.183V123.998H232.218V123.373H225.169V122.107H228.714V121.315H223.863V120.022H235.345ZM230.466 114.614V115.615H234.261V116.922H230.688C231.036 117.659 232.329 118.264 234.887 118.368L234.372 119.675C232.023 119.563 230.396 118.966 229.59 118.006C228.791 118.966 227.157 119.563 224.794 119.675L224.307 118.368C226.844 118.264 228.13 117.659 228.492 116.922H224.947V115.615H228.714V114.614H230.466ZM243.325 115.476V116.894H240.809C240.823 118.368 241.706 119.793 243.728 120.384L242.88 121.774C241.483 121.35 240.517 120.502 239.961 119.411C239.398 120.689 238.369 121.704 236.847 122.205L235.943 120.801C238.042 120.14 238.988 118.5 239.016 116.894H236.43V115.476H243.325ZM246.175 114.628V117.562H247.885V119.007H246.175V122.135H244.396V114.628H246.175ZM242.032 122.386C244.66 122.372 246.3 123.275 246.3 124.818C246.3 126.361 244.66 127.279 242.032 127.279C239.349 127.279 237.695 126.361 237.695 124.818C237.695 123.275 239.349 122.372 242.032 122.386ZM242.032 123.762C240.364 123.762 239.46 124.109 239.474 124.818C239.46 125.541 240.364 125.903 242.032 125.903C243.673 125.903 244.548 125.541 244.548 124.818C244.548 124.109 243.673 123.762 242.032 123.762ZM263.302 124.36V125.805H251.722V124.36H256.601V122.024H252.945V115.435H254.725V117.395H260.244V115.435H262.009V122.024H258.367V124.36H263.302ZM254.725 120.606H260.244V118.813H254.725V120.606ZM274.451 115.727V116.922C274.451 118.507 274.451 120.286 273.937 122.969L272.158 122.789C272.637 120.398 272.658 118.618 272.672 117.131H265.22V115.727H274.451ZM275.563 124.29V125.736H264.025V124.29H268.154V119.939H269.919V124.29H275.563ZM281.11 117.492C281.11 119.869 282.07 122.177 284.183 123.095L283.098 124.513C281.694 123.824 280.756 122.566 280.234 121.009C279.678 122.664 278.705 124.019 277.259 124.735L276.147 123.289C278.316 122.316 279.303 119.869 279.317 117.492V115.601H281.11V117.492ZM287.005 114.628V127.307H285.253V120.036H282.765V118.604H285.253V114.628H287.005Z" fill="black"/>
<path d="M302.975 166.707H119.947C110.587 166.707 103 174.294 103 183.654C103 193.014 110.587 200.601 119.947 200.601H302.975C312.334 200.601 319.922 193.014 319.922 183.654C319.922 174.294 312.334 166.707 302.975 166.707Z" fill="#F8F8F9"/>
<g filter="url(#filter3_d_8795_38)">
<path d="M163.332 171.453H119.948C113.209 171.453 107.746 176.916 107.746 183.655C107.746 190.394 113.209 195.857 119.948 195.857H163.332C170.071 195.857 175.534 190.394 175.534 183.655C175.534 176.916 170.071 171.453 163.332 171.453Z" fill="white"/>
</g>
<path d="M140.494 177.243V185.595H138.897V181.495H137.023V180.199H138.897V177.243H140.494ZM140.771 187.193V188.476H132.897V184.866H134.507V187.193H140.771ZM135.174 179.482C135.174 180.803 135.979 182.224 137.802 182.815L137.01 184.086C135.74 183.677 134.872 182.841 134.369 181.797C133.866 182.954 132.954 183.872 131.602 184.325L130.784 183.017C132.671 182.426 133.526 180.929 133.539 179.47V179.294H131.237V178.011H137.45V179.294H135.174V179.482ZM145.55 180.715C145.55 182.451 146.179 184.186 147.802 185.067L146.921 186.237C145.89 185.708 145.205 184.778 144.808 183.658C144.406 184.878 143.72 185.91 142.683 186.513L141.764 185.306C143.412 184.35 144.029 182.488 144.041 180.715V180.451H142.192V179.168H144.041V177.621H145.538V179.168H147.349V180.451H145.55V180.715ZM151.877 177.231V188.677H150.355V177.231H151.877ZM149.538 177.42V188.148H148.028V182.878H146.682V181.57H148.028V177.42H149.538Z" fill="black"/>
<path d="M198.619 177.885V178.74C198.619 179.627 198.619 180.633 198.329 181.998H199.927V182.979H189.613V181.998H197.122C197.424 180.684 197.436 179.721 197.436 178.866H190.908V177.885H198.619ZM198.631 184.413V188.45H190.871V184.413H198.631ZM192.04 185.356V187.482H197.449V185.356H192.04ZM203.423 178.011C204.92 178.011 206.014 179.13 206.014 180.715C206.014 182.3 204.92 183.381 203.423 183.381C201.914 183.381 200.832 182.3 200.845 180.715C200.832 179.13 201.914 178.011 203.423 178.011ZM203.423 179.042C202.543 179.042 201.914 179.709 201.914 180.715C201.914 181.696 202.543 182.388 203.423 182.375C204.291 182.388 204.92 181.696 204.933 180.715C204.92 179.709 204.291 179.042 203.423 179.042ZM210.354 177.332V184.048H209.222V181.143H207.914V183.973H206.794V177.533H207.914V180.174H209.222V177.332H210.354ZM210.354 184.627V188.589H209.171V185.583H202.694V184.627H210.354ZM220.73 177.319V179.973H222.366V180.967H220.73V183.683H219.536V177.319H220.73ZM217.624 178.023C217.611 180.916 215.662 182.941 212.303 183.847L211.825 182.891C214.517 182.18 216.108 180.765 216.328 179.004H212.354V178.023H217.624ZM220.73 184.161V188.438H213.511V184.161H220.73ZM214.706 185.155V187.482H219.548V185.155H214.706ZM233.321 186.174V187.155H223.007V186.174H227.522V183.495H228.705V186.174H233.321ZM228.73 178.891C228.73 180.677 230.692 182.35 232.868 182.715L232.352 183.696C230.529 183.331 228.849 182.205 228.101 180.652C227.359 182.199 225.699 183.344 223.887 183.696L223.359 182.715C225.523 182.35 227.472 180.677 227.472 178.891V178.036H228.73V178.891Z" fill="#8A8A8B"/>
<path d="M268.44 177.885V178.74C268.44 179.627 268.44 180.633 268.151 181.998H269.748V182.979H259.434V181.998H266.943C267.245 180.684 267.258 179.721 267.258 178.866H260.73V177.885H268.44ZM268.452 184.413V188.45H260.692V184.413H268.452ZM261.862 185.356V187.482H267.27V185.356H261.862ZM273.245 178.011C274.741 178.011 275.836 179.13 275.836 180.715C275.836 182.3 274.741 183.381 273.245 183.381C271.735 183.381 270.654 182.3 270.666 180.715C270.654 179.13 271.735 178.011 273.245 178.011ZM273.245 179.042C272.364 179.042 271.735 179.709 271.735 180.715C271.735 181.696 272.364 182.388 273.245 182.375C274.112 182.388 274.741 181.696 274.754 180.715C274.741 179.709 274.112 179.042 273.245 179.042ZM280.175 177.332V184.048H279.043V181.143H277.735V183.973H276.615V177.533H277.735V180.174H279.043V177.332H280.175ZM280.175 184.627V188.589H278.993V185.583H272.515V184.627H280.175ZM291.973 182.627V183.595H281.697V182.627H291.973ZM286.829 184.463C289.256 184.463 290.715 185.218 290.715 186.526C290.715 187.834 289.256 188.576 286.829 188.564C284.389 188.576 282.917 187.834 282.917 186.526C282.917 185.218 284.389 184.463 286.829 184.463ZM286.829 185.394C285.106 185.407 284.124 185.796 284.124 186.526C284.124 187.243 285.106 187.62 286.829 187.62C288.527 187.62 289.52 187.243 289.52 186.526C289.52 185.796 288.527 185.407 286.829 185.394ZM291.055 177.872V178.853H287.634C287.766 179.948 289.363 180.878 291.445 181.092L291.017 182.036C289.068 181.809 287.451 180.985 286.841 179.797C286.212 180.985 284.602 181.809 282.653 182.036L282.238 181.092C284.282 180.878 285.892 179.954 286.036 178.853H282.64V177.872H291.055ZM301.608 177.319V181.809H303.356V182.803H301.608V188.576H300.413V177.319H301.608ZM298.664 178.501C298.652 181.759 297.218 184.664 293.508 186.501L292.841 185.57C295.665 184.161 297.199 182.124 297.444 179.495H293.407V178.501H298.664Z" fill="#8A8A8B"/>
<g clip-path="url(#clip1_8795_38)">
<g filter="url(#filter4_d_8795_38)">
<path d="M117.651 224.562H207.697C208.665 224.562 209.594 224.947 210.278 225.632C210.963 226.316 211.347 227.245 211.347 228.213V553.11H117.651C116.682 553.11 115.754 552.725 115.069 552.04C114.385 551.356 114 550.427 114 549.459V228.213C114 227.245 114.385 226.316 115.069 225.632C115.754 224.947 116.682 224.562 117.651 224.562Z" fill="white"/>
<path d="M117.651 224.867H207.697C208.585 224.867 209.436 225.22 210.063 225.847C210.691 226.475 211.044 227.326 211.044 228.214V552.806H117.651C116.764 552.806 115.912 552.454 115.285 551.826C114.657 551.198 114.305 550.347 114.305 549.46V228.214C114.305 227.326 114.657 226.475 115.285 225.847C115.912 225.22 116.764 224.867 117.651 224.867Z" stroke="#B9B9B9" stroke-width="0.608421"/>
</g>
<path d="M309 304.875H211.348V346.377H309V304.875Z" fill="#FF5353" fill-opacity="0.05"/>
<path d="M127.72 284.592V285.501H124.565V288.228H123.442V285.501H120.323V284.592H127.72ZM127.06 280.546V281.437H124.699C124.81 282.23 125.706 283.028 127.372 283.228L126.962 284.12C125.536 283.928 124.516 283.317 124.03 282.48C123.531 283.317 122.52 283.928 121.107 284.12L120.688 283.228C122.328 283.028 123.233 282.23 123.362 281.437H120.991V280.546H127.06ZM131.321 281.268C131.312 282.284 131.891 283.264 133.228 283.665L132.657 284.556C131.735 284.262 131.098 283.687 130.732 282.943C130.367 283.745 129.707 284.374 128.754 284.681L128.183 283.79C129.538 283.353 130.135 282.301 130.135 281.268V280.492H131.321V281.268ZM135.001 285.305V288.228H133.861V286.214H129.422V285.305H135.001ZM135.001 280.118V284.957H133.861V280.118H135.001ZM142.916 280.118V288.228H141.784V280.118H142.916ZM136.133 285.938C136.753 285.933 137.461 285.933 138.201 285.911V285.225C137.31 285.069 136.73 284.516 136.739 283.754C136.73 282.845 137.559 282.23 138.754 282.23C139.957 282.23 140.794 282.845 140.794 283.754C140.794 284.512 140.215 285.064 139.324 285.225V285.875C140.001 285.844 140.688 285.791 141.338 285.706L141.418 286.544C139.645 286.847 137.729 286.865 136.285 286.865L136.133 285.938ZM141.222 281.018V281.909H136.294V281.018H138.201V280.153H139.333V281.018H141.222ZM138.754 283.095C138.201 283.095 137.809 283.335 137.818 283.754C137.809 284.182 138.201 284.414 138.754 284.414C139.324 284.414 139.707 284.182 139.707 283.754C139.707 283.335 139.324 283.095 138.754 283.095ZM146.971 281.954C146.962 283.407 147.586 284.877 148.887 285.501L148.201 286.41C147.332 285.982 146.748 285.18 146.409 284.2C146.057 285.251 145.429 286.111 144.511 286.562L143.807 285.644C145.179 285.011 145.83 283.46 145.83 281.954V280.742H146.971V281.954ZM150.384 280.118V283.246H151.579V284.209H150.384V288.228H149.243V280.118H150.384ZM156.578 282.159C156.578 283.469 156.944 284.824 158.049 285.537L157.434 286.419C156.734 285.996 156.289 285.3 156.035 284.467C155.741 285.385 155.255 286.152 154.52 286.597L153.824 285.759C155.028 285.011 155.473 283.585 155.473 282.212V280.813H156.578V282.159ZM161.008 280.118V288.228H159.921V280.118H161.008ZM159.306 280.234V287.854H158.245V283.781H157.193V282.854H158.245V280.234H159.306ZM169.287 286.348V287.283H161.863V286.348H164.992V284.69H162.648V280.715H168.459V284.69H166.124V286.348H169.287ZM163.771 281.624V283.799H167.336V281.624H163.771Z" fill="black"/>
<path d="M260.346 280.956V287.408H259V282.23H258.965L257.485 283.157V281.972L259.081 280.956H260.346ZM262.94 286.749L262.173 289.289H261.228L261.674 286.749H262.94ZM264.116 287.408L264.107 286.437L266.424 284.307C267.03 283.727 267.351 283.371 267.351 282.863C267.351 282.292 266.915 281.936 266.326 281.936C265.72 281.936 265.328 282.319 265.328 282.934H264.054C264.045 281.669 264.981 280.866 266.344 280.866C267.726 280.866 268.644 281.651 268.644 282.774C268.644 283.505 268.287 284.111 266.959 285.314L265.979 286.267V286.303H268.733V287.408H264.116ZM272.075 287.497C270.658 287.497 269.642 286.713 269.615 285.59H270.97C270.996 286.071 271.46 286.392 272.084 286.392C272.725 286.392 273.189 286.027 273.18 285.51C273.189 284.984 272.717 284.61 271.959 284.61H271.362V283.62H271.959C272.592 283.62 273.037 283.273 273.037 282.765C273.037 282.275 272.663 281.936 272.093 281.936C271.522 281.936 271.05 282.257 271.032 282.747H269.749C269.766 281.633 270.774 280.866 272.093 280.866C273.438 280.866 274.339 281.66 274.33 282.685C274.339 283.407 273.831 283.923 273.109 284.048V284.102C274.053 284.218 274.579 284.797 274.57 285.599C274.579 286.704 273.528 287.497 272.075 287.497ZM278.01 287.497C276.674 287.488 275.408 286.695 275.408 284.333C275.408 282.159 276.451 280.866 278.064 280.866C279.365 280.866 280.247 281.686 280.381 282.747H279.062C278.955 282.292 278.581 282.016 278.064 282.016C277.191 282.016 276.727 282.809 276.718 284.075H276.781C277.075 283.505 277.716 283.166 278.429 283.166C279.588 283.166 280.452 284.039 280.452 285.251C280.452 286.562 279.463 287.506 278.01 287.497ZM278.002 286.437C278.661 286.437 279.151 285.938 279.151 285.287C279.151 284.645 278.679 284.137 278.019 284.137C277.36 284.137 276.861 284.654 276.852 285.287C276.861 285.92 277.342 286.437 278.002 286.437ZM282.556 286.749L281.789 289.289H280.845L281.29 286.749H282.556ZM285.969 287.497C284.356 287.497 283.376 286.294 283.376 284.182C283.376 282.07 284.356 280.866 285.969 280.866C287.582 280.866 288.563 282.079 288.563 284.182C288.563 286.303 287.582 287.497 285.969 287.497ZM285.969 286.392C286.718 286.392 287.199 285.67 287.19 284.182C287.19 282.711 286.718 281.963 285.969 281.963C285.221 281.963 284.748 282.711 284.748 284.182C284.739 285.67 285.221 286.392 285.969 286.392ZM291.994 287.497C290.381 287.497 289.401 286.294 289.401 284.182C289.401 282.07 290.381 280.866 291.994 280.866C293.607 280.866 294.588 282.079 294.588 284.182C294.588 286.303 293.607 287.497 291.994 287.497ZM291.994 286.392C292.743 286.392 293.224 285.67 293.215 284.182C293.215 282.711 292.743 281.963 291.994 281.963C291.245 281.963 290.773 282.711 290.773 284.182C290.764 285.67 291.245 286.392 291.994 286.392ZM298.019 287.497C296.406 287.497 295.425 286.294 295.425 284.182C295.425 282.07 296.406 280.866 298.019 280.866C299.632 280.866 300.612 282.079 300.612 284.182C300.612 286.303 299.632 287.497 298.019 287.497ZM298.019 286.392C298.767 286.392 299.249 285.67 299.24 284.182C299.24 282.711 298.767 281.963 298.019 281.963C297.27 281.963 296.798 282.711 296.798 284.182C296.789 285.67 297.27 286.392 298.019 286.392Z" fill="#B4B4B4"/>
<path d="M122.925 323.532C122.925 324.842 123.291 326.197 124.396 326.91L123.781 327.792C123.081 327.369 122.635 326.673 122.381 325.84C122.087 326.758 121.602 327.525 120.866 327.97L120.171 327.132C121.374 326.384 121.82 324.958 121.82 323.585V322.186H122.925V323.532ZM127.355 321.491V329.601H126.267V321.491H127.355ZM125.652 321.607V329.227H124.592V325.154H123.54V324.227H124.592V321.607H125.652ZM135.634 327.721V328.656H128.21V327.721H131.338V326.063H128.994V322.088H134.805V326.063H132.47V327.721H135.634ZM130.117 322.997V325.172H133.682V322.997H130.117ZM143.513 326.027V326.954H140.34V329.61H139.217V326.954H136.089V326.027H143.513ZM139.778 321.758C141.516 321.758 142.737 322.48 142.737 323.603C142.737 324.708 141.516 325.412 139.778 325.412C138.041 325.412 136.828 324.708 136.837 323.603C136.828 322.48 138.041 321.758 139.778 321.758ZM139.778 322.667C138.691 322.667 137.996 323.006 138.005 323.603C137.996 324.182 138.691 324.512 139.778 324.512C140.875 324.512 141.561 324.182 141.561 323.603C141.561 323.006 140.875 322.667 139.778 322.667ZM150.785 321.491V329.619H149.653V321.491H150.785ZM148.272 322.168V325.296H145.598V326.785C146.833 326.78 147.884 326.709 149.074 326.517L149.172 327.435C147.835 327.667 146.632 327.721 145.153 327.721H144.422V324.396H147.113V323.086H144.413V322.168H148.272ZM156.026 322.257V327.623H152.131V322.257H156.026ZM153.254 323.149V326.722H154.894V323.149H153.254ZM158.272 321.491V324.548H159.466V325.493H158.272V329.601H157.131V321.491H158.272ZM163.459 321.607C165.321 321.607 166.4 322.097 166.409 322.988C166.4 323.888 165.321 324.379 163.459 324.379C161.587 324.379 160.5 323.888 160.5 322.988C160.5 322.097 161.587 321.607 163.459 321.607ZM163.459 322.436C162.264 322.436 161.685 322.632 161.694 322.988C161.685 323.389 162.264 323.541 163.459 323.541C164.662 323.541 165.232 323.389 165.232 322.988C165.232 322.632 164.662 322.436 163.459 322.436ZM167.157 324.762V325.662H159.76V324.762H167.157ZM166.257 326.134V328.202H161.739V328.692H166.471V329.548H160.625V327.409H165.134V326.963H160.616V326.134H166.257ZM174.189 321.856V322.507C174.189 323.14 174.189 323.844 174.002 324.771H175.072V325.689H167.648V324.771H172.852C173.031 323.96 173.053 323.331 173.057 322.765H168.557V321.856H174.189ZM174.163 326.544V329.512H168.53V326.544H174.163ZM169.644 327.435V328.603H173.031V327.435H169.644ZM182.219 322.195V322.961C182.219 323.977 182.219 325.118 181.89 326.838L180.749 326.722C181.056 325.19 181.07 324.049 181.079 323.095H176.302V322.195H182.219ZM182.932 327.685V328.612H175.535V327.685H178.182V324.895H179.314V327.685H182.932Z" fill="black"/>
<path d="M255.786 325.029V326.081H252.845V325.029H255.786ZM259.297 328.87C257.827 328.87 256.766 328.095 256.766 327.043C256.766 326.232 257.39 325.573 258.192 325.448V325.403C257.497 325.27 257.016 324.682 257.016 323.977C257.016 322.97 257.978 322.24 259.297 322.24C260.616 322.24 261.579 322.97 261.588 323.977C261.579 324.69 261.089 325.27 260.411 325.403V325.448C261.196 325.573 261.828 326.232 261.828 327.043C261.828 328.095 260.768 328.87 259.297 328.87ZM259.297 327.845C259.975 327.845 260.429 327.462 260.429 326.91C260.429 326.348 259.957 325.938 259.297 325.938C258.638 325.938 258.156 326.348 258.165 326.91C258.156 327.462 258.611 327.845 259.297 327.845ZM259.297 324.993C259.868 324.993 260.278 324.628 260.278 324.111C260.278 323.612 259.877 323.256 259.297 323.256C258.718 323.256 258.326 323.603 258.326 324.111C258.326 324.628 258.727 324.993 259.297 324.993ZM264.003 328.122L263.236 330.662H262.292L262.737 328.122H264.003ZM265.072 327.64V326.58L267.8 322.329H269.484V326.562H270.304V327.64H269.484V328.781H268.21V327.64H265.072ZM266.427 326.562H268.227V323.799H268.165L266.427 326.509V326.562ZM273.682 328.87C272.069 328.87 271.088 327.667 271.088 325.555C271.088 323.443 272.069 322.24 273.682 322.24C275.295 322.24 276.275 323.452 276.275 325.555C276.275 327.676 275.295 328.87 273.682 328.87ZM273.682 327.765C274.43 327.765 274.912 327.043 274.903 325.555C274.903 324.084 274.43 323.336 273.682 323.336C272.933 323.336 272.461 324.084 272.461 325.555C272.452 327.043 272.933 327.765 273.682 327.765ZM279.707 328.87C278.093 328.87 277.113 327.667 277.113 325.555C277.113 323.443 278.093 322.24 279.707 322.24C281.32 322.24 282.3 323.452 282.3 325.555C282.3 327.676 281.32 328.87 279.707 328.87ZM279.707 327.765C280.455 327.765 280.937 327.043 280.928 325.555C280.928 324.084 280.455 323.336 279.707 323.336C278.958 323.336 278.486 324.084 278.486 325.555C278.477 327.043 278.958 327.765 279.707 327.765ZM284.403 328.122L283.637 330.662H282.692L283.138 328.122H284.403ZM287.817 328.87C286.204 328.87 285.223 327.667 285.223 325.555C285.223 323.443 286.204 322.24 287.817 322.24C289.43 322.24 290.41 323.452 290.41 325.555C290.41 327.676 289.43 328.87 287.817 328.87ZM287.817 327.765C288.566 327.765 289.047 327.043 289.038 325.555C289.038 324.084 288.566 323.336 287.817 323.336C287.068 323.336 286.596 324.084 286.596 325.555C286.587 327.043 287.068 327.765 287.817 327.765ZM293.842 328.87C292.229 328.87 291.248 327.667 291.248 325.555C291.248 323.443 292.229 322.24 293.842 322.24C295.455 322.24 296.435 323.452 296.435 325.555C296.435 327.676 295.455 328.87 293.842 328.87ZM293.842 327.765C294.59 327.765 295.072 327.043 295.063 325.555C295.063 324.084 294.59 323.336 293.842 323.336C293.093 323.336 292.621 324.084 292.621 325.555C292.612 327.043 293.093 327.765 293.842 327.765ZM299.867 328.87C298.253 328.87 297.273 327.667 297.273 325.555C297.273 323.443 298.253 322.24 299.867 322.24C301.48 322.24 302.46 323.452 302.46 325.555C302.46 327.676 301.48 328.87 299.867 328.87ZM299.867 327.765C300.615 327.765 301.096 327.043 301.088 325.555C301.088 324.084 300.615 323.336 299.867 323.336C299.118 323.336 298.646 324.084 298.646 325.555C298.637 327.043 299.118 327.765 299.867 327.765Z" fill="#FF5353"/>
<path d="M124.886 363.31V363.835C124.877 364.361 124.877 365.083 124.69 365.965L123.576 365.885C123.705 365.203 123.736 364.673 123.745 364.219H120.697V363.31H124.886ZM122.854 365.119V366.518C123.665 366.491 124.489 366.438 125.251 366.349L125.314 367.142C123.629 367.436 121.775 367.481 120.314 367.481L120.216 366.572C120.679 366.567 121.187 366.567 121.722 366.554V365.119H122.854ZM126.855 362.864V364.86H127.845V365.805H126.855V367.81H125.688V362.864H126.855ZM124.093 367.908C125.831 367.908 126.909 368.488 126.909 369.415C126.909 370.395 125.831 370.956 124.093 370.956C122.355 370.956 121.267 370.395 121.267 369.415C121.267 368.488 122.355 367.908 124.093 367.908ZM124.093 368.782C123.023 368.782 122.426 369.005 122.426 369.415C122.426 369.878 123.023 370.074 124.093 370.074C125.153 370.074 125.741 369.878 125.741 369.415C125.741 369.005 125.153 368.782 124.093 368.782ZM134.698 362.864V366.162H135.759V367.106H134.698V370.974H133.549V362.864H134.698ZM128.112 368.684C128.705 368.684 129.396 368.684 130.117 368.666V367.971C129.253 367.801 128.691 367.253 128.7 366.5C128.691 365.591 129.511 364.976 130.697 364.976C131.855 364.976 132.684 365.591 132.693 366.5C132.684 367.253 132.114 367.806 131.258 367.971V368.621C131.9 368.59 132.546 368.537 133.148 368.452L133.219 369.281C131.49 369.602 129.636 369.611 128.264 369.611L128.112 368.684ZM133.085 363.764V364.655H128.273V363.764H130.117V362.909H131.258V363.764H133.085ZM130.697 365.841C130.144 365.841 129.77 366.081 129.779 366.5C129.77 366.928 130.144 367.16 130.697 367.16C131.231 367.16 131.597 366.928 131.597 366.5C131.597 366.081 131.231 365.841 130.697 365.841ZM143.513 366.875V367.775H140.456V369.174H139.333V367.775H136.089V366.875H143.513ZM142.559 363.22V366.206H137.016V363.22H142.559ZM138.13 364.103V365.324H141.445V364.103H138.13ZM142.693 369.923V370.832H136.962V368.47H138.094V369.923H142.693ZM146.588 364.905C146.588 366.215 146.953 367.57 148.058 368.283L147.443 369.165C146.744 368.742 146.298 368.047 146.044 367.213C145.75 368.131 145.264 368.898 144.529 369.343L143.834 368.506C145.037 367.757 145.482 366.331 145.482 364.958V363.559H146.588V364.905ZM151.017 362.864V370.974H149.93V362.864H151.017ZM149.315 362.98V370.6H148.254V366.527H147.203V365.6H148.254V362.98H149.315ZM159.297 369.094V370.03H151.873V369.094H155.001V367.436H152.657V363.461H158.468V367.436H156.133V369.094H159.297ZM153.78 364.37V366.545H157.345V364.37H153.78ZM166.828 363.889V364.798H160.081V363.889H162.888V362.944H164.011V363.889H166.828ZM167.184 369.236V370.145H159.76V369.236H162.888V368.301C161.507 368.185 160.669 367.614 160.678 366.723C160.669 365.743 161.739 365.146 163.45 365.154C165.134 365.146 166.213 365.743 166.213 366.723C166.213 367.614 165.37 368.185 164.011 368.301V369.236H167.184ZM163.45 366.037C162.398 366.037 161.837 366.26 161.846 366.723C161.837 367.204 162.398 367.418 163.45 367.418C164.475 367.418 165.045 367.204 165.045 366.723C165.045 366.26 164.475 366.037 163.45 366.037ZM171.061 363.318V364.192H169.038V364.709H170.758V365.555H169.038V366.108C169.894 366.108 170.566 366.077 171.337 365.948L171.453 366.821C170.482 366.973 169.689 367.008 168.53 367.008H167.968V363.318H171.061ZM174.617 362.873V367.169H173.539V362.873H174.617ZM173.004 362.998V367.115H171.926V365.475H171.106V364.593H171.926V362.998H173.004ZM174.617 367.454V369.575H170.205V370.047H174.893V370.921H169.074V368.764H173.494V368.336H169.065V367.454H174.617Z" fill="black"/>
<path d="M259.003 370.243C257.667 370.235 256.401 369.441 256.401 367.08C256.401 364.905 257.444 363.613 259.057 363.613C260.358 363.613 261.241 364.433 261.374 365.493H260.055C259.948 365.039 259.574 364.762 259.057 364.762C258.184 364.762 257.72 365.555 257.711 366.821H257.774C258.068 366.251 258.709 365.912 259.422 365.912C260.581 365.912 261.445 366.785 261.445 367.997C261.445 369.308 260.456 370.252 259.003 370.243ZM258.995 369.183C259.654 369.183 260.144 368.684 260.144 368.033C260.144 367.391 259.672 366.883 259.012 366.883C258.353 366.883 257.854 367.4 257.845 368.033C257.854 368.666 258.335 369.183 258.995 369.183ZM263.549 369.495L262.782 372.035H261.838L262.283 369.495H263.549ZM266.962 370.243C265.349 370.243 264.369 369.04 264.369 366.928C264.369 364.816 265.349 363.613 266.962 363.613C268.575 363.613 269.556 364.825 269.556 366.928C269.556 369.049 268.575 370.243 266.962 370.243ZM266.962 369.138C267.711 369.138 268.192 368.416 268.183 366.928C268.183 365.457 267.711 364.709 266.962 364.709C266.214 364.709 265.741 365.457 265.741 366.928C265.732 368.416 266.214 369.138 266.962 369.138ZM272.987 370.243C271.374 370.243 270.394 369.04 270.394 366.928C270.394 364.816 271.374 363.613 272.987 363.613C274.6 363.613 275.581 364.825 275.581 366.928C275.581 369.049 274.6 370.243 272.987 370.243ZM272.987 369.138C273.736 369.138 274.217 368.416 274.208 366.928C274.208 365.457 273.736 364.709 272.987 364.709C272.238 364.709 271.766 365.457 271.766 366.928C271.757 368.416 272.238 369.138 272.987 369.138ZM279.012 370.243C277.399 370.243 276.418 369.04 276.418 366.928C276.418 364.816 277.399 363.613 279.012 363.613C280.625 363.613 281.605 364.825 281.605 366.928C281.605 369.049 280.625 370.243 279.012 370.243ZM279.012 369.138C279.76 369.138 280.242 368.416 280.233 366.928C280.233 365.457 279.76 364.709 279.012 364.709C278.263 364.709 277.791 365.457 277.791 366.928C277.782 368.416 278.263 369.138 279.012 369.138ZM283.709 369.495L282.942 372.035H281.998L282.443 369.495H283.709ZM287.122 370.243C285.509 370.243 284.529 369.04 284.529 366.928C284.529 364.816 285.509 363.613 287.122 363.613C288.735 363.613 289.716 364.825 289.716 366.928C289.716 369.049 288.735 370.243 287.122 370.243ZM287.122 369.138C287.871 369.138 288.352 368.416 288.343 366.928C288.343 365.457 287.871 364.709 287.122 364.709C286.374 364.709 285.901 365.457 285.901 366.928C285.892 368.416 286.374 369.138 287.122 369.138ZM293.147 370.243C291.534 370.243 290.553 369.04 290.553 366.928C290.553 364.816 291.534 363.613 293.147 363.613C294.76 363.613 295.74 364.825 295.74 366.928C295.74 369.049 294.76 370.243 293.147 370.243ZM293.147 369.138C293.896 369.138 294.377 368.416 294.368 366.928C294.368 365.457 293.896 364.709 293.147 364.709C292.398 364.709 291.926 365.457 291.926 366.928C291.917 368.416 292.398 369.138 293.147 369.138ZM299.172 370.243C297.559 370.243 296.578 369.04 296.578 366.928C296.578 364.816 297.559 363.613 299.172 363.613C300.785 363.613 301.765 364.825 301.765 366.928C301.765 369.049 300.785 370.243 299.172 370.243ZM299.172 369.138C299.92 369.138 300.402 368.416 300.393 366.928C300.393 365.457 299.92 364.709 299.172 364.709C298.423 364.709 297.951 365.457 297.951 366.928C297.942 368.416 298.423 369.138 299.172 369.138Z" fill="#B4B4B4"/>
<path d="M120.795 409.068C120.795 407.392 121.312 406.002 122.168 404.798H123.424C122.809 405.69 122.168 407.472 122.168 409.068C122.168 410.672 122.809 412.454 123.424 413.345H122.168C121.312 412.142 120.795 410.743 120.795 409.068ZM131.276 408.711V409.62H128.121V412.347H126.998V409.62H123.879V408.711H131.276ZM130.617 404.665V405.556H128.255C128.366 406.349 129.262 407.147 130.928 407.347L130.518 408.239C129.092 408.047 128.072 407.437 127.586 406.599C127.087 407.437 126.076 408.047 124.663 408.239L124.244 407.347C125.884 407.147 126.789 406.349 126.918 405.556H124.547V404.665H130.617ZM134.369 409.068C134.369 410.743 133.852 412.142 132.996 413.345H131.739C132.354 412.454 132.996 410.672 132.996 409.068C132.996 407.472 132.354 405.69 131.739 404.798H132.996C133.852 406.002 134.369 407.392 134.369 409.068ZM140.028 406.278C140.028 407.588 140.393 408.943 141.499 409.656L140.884 410.538C140.184 410.115 139.738 409.42 139.484 408.586C139.19 409.504 138.705 410.271 137.969 410.716L137.274 409.879C138.477 409.13 138.923 407.704 138.923 406.331V404.932H140.028V406.278ZM144.457 404.237V412.347H143.37V404.237H144.457ZM142.755 404.353V411.973H141.695V407.9H140.643V406.973H141.695V404.353H142.755ZM152.737 410.467V411.403H145.313V410.467H148.441V408.809H146.097V404.834H151.908V408.809H149.573V410.467H152.737ZM147.22 405.743V407.918H150.785V405.743H147.22ZM157.728 404.941V405.832H153.218V404.941H154.965V404.166H156.097V404.941H157.728ZM155.518 406.064C156.632 406.064 157.434 406.67 157.443 407.543C157.434 408.417 156.632 409.014 155.518 409.014C154.395 409.014 153.611 408.417 153.619 407.543C153.611 406.67 154.395 406.064 155.518 406.064ZM155.518 406.911C155.001 406.911 154.671 407.134 154.68 407.543C154.671 407.953 155.001 408.185 155.518 408.185C156.026 408.185 156.382 407.953 156.382 407.543C156.382 407.134 156.026 406.911 155.518 406.911ZM160.036 404.237V409.068H158.905V408.479H157.799V407.57H158.905V406.884H157.817V405.966H158.905V404.237H160.036ZM155.705 409.371V409.968H158.913V409.371H160.036V412.258H154.564V409.371H155.705ZM155.705 411.385H158.913V410.814H155.705V411.385ZM167.906 404.237V412.347H166.774V404.237H167.906ZM161.124 410.057C161.743 410.052 162.452 410.052 163.191 410.03V409.344C162.3 409.188 161.721 408.635 161.73 407.873C161.721 406.964 162.55 406.349 163.744 406.349C164.947 406.349 165.785 406.964 165.785 407.873C165.785 408.631 165.206 409.183 164.314 409.344V409.994C164.992 409.963 165.678 409.91 166.329 409.825L166.409 410.663C164.635 410.966 162.719 410.984 161.275 410.984L161.124 410.057ZM166.213 405.137V406.028H161.284V405.137H163.191V404.273H164.323V405.137H166.213ZM163.744 407.214C163.191 407.214 162.799 407.454 162.808 407.873C162.799 408.301 163.191 408.533 163.744 408.533C164.314 408.533 164.698 408.301 164.698 407.873C164.698 407.454 164.314 407.214 163.744 407.214Z" fill="black"/>
<path d="M251.401 410.387V409.326L254.128 405.075H255.813V409.308H256.633V410.387H255.813V411.527H254.538V410.387H251.401ZM252.756 409.308H254.556V406.545H254.494L252.756 409.255V409.308ZM259.877 411.616C258.531 411.616 257.551 410.823 257.524 409.709H258.825C258.852 410.217 259.315 410.556 259.877 410.556C260.545 410.556 261.018 410.084 261.018 409.415C261.018 408.729 260.536 408.256 259.859 408.248C259.378 408.248 259.039 408.426 258.843 408.791H257.631L257.978 405.075H261.953V406.171H259.084L258.905 407.802H258.959C259.199 407.481 259.681 407.258 260.251 407.258C261.436 407.258 262.319 408.141 262.319 409.379C262.319 410.681 261.329 411.616 259.877 411.616ZM264.467 410.868L263.7 413.408H262.755L263.201 410.868H264.467ZM267.88 411.616C266.267 411.616 265.287 410.413 265.287 408.301C265.287 406.189 266.267 404.986 267.88 404.986C269.493 404.986 270.474 406.198 270.474 408.301C270.474 410.422 269.493 411.616 267.88 411.616ZM267.88 410.511C268.629 410.511 269.11 409.789 269.101 408.301C269.101 406.831 268.629 406.082 267.88 406.082C267.131 406.082 266.659 406.831 266.659 408.301C266.65 409.789 267.131 410.511 267.88 410.511ZM273.905 411.616C272.292 411.616 271.311 410.413 271.311 408.301C271.311 406.189 272.292 404.986 273.905 404.986C275.518 404.986 276.498 406.198 276.498 408.301C276.498 410.422 275.518 411.616 273.905 411.616ZM273.905 410.511C274.654 410.511 275.135 409.789 275.126 408.301C275.126 406.831 274.654 406.082 273.905 406.082C273.156 406.082 272.684 406.831 272.684 408.301C272.675 409.789 273.156 410.511 273.905 410.511ZM279.93 411.616C278.317 411.616 277.336 410.413 277.336 408.301C277.336 406.189 278.317 404.986 279.93 404.986C281.543 404.986 282.523 406.198 282.523 408.301C282.523 410.422 281.543 411.616 279.93 411.616ZM279.93 410.511C280.678 410.511 281.16 409.789 281.151 408.301C281.151 406.831 280.678 406.082 279.93 406.082C279.181 406.082 278.709 406.831 278.709 408.301C278.7 409.789 279.181 410.511 279.93 410.511ZM284.627 410.868L283.86 413.408H282.915L283.361 410.868H284.627ZM288.04 411.616C286.427 411.616 285.446 410.413 285.446 408.301C285.446 406.189 286.427 404.986 288.04 404.986C289.653 404.986 290.634 406.198 290.634 408.301C290.634 410.422 289.653 411.616 288.04 411.616ZM288.04 410.511C288.789 410.511 289.27 409.789 289.261 408.301C289.261 406.831 288.789 406.082 288.04 406.082C287.291 406.082 286.819 406.831 286.819 408.301C286.81 409.789 287.291 410.511 288.04 410.511ZM294.065 411.616C292.452 411.616 291.471 410.413 291.471 408.301C291.471 406.189 292.452 404.986 294.065 404.986C295.678 404.986 296.658 406.198 296.658 408.301C296.658 410.422 295.678 411.616 294.065 411.616ZM294.065 410.511C294.813 410.511 295.295 409.789 295.286 408.301C295.286 406.831 294.813 406.082 294.065 406.082C293.316 406.082 292.844 406.831 292.844 408.301C292.835 409.789 293.316 410.511 294.065 410.511ZM300.09 411.616C298.476 411.616 297.496 410.413 297.496 408.301C297.496 406.189 298.476 404.986 300.09 404.986C301.703 404.986 302.683 406.198 302.683 408.301C302.683 410.422 301.703 411.616 300.09 411.616ZM300.09 410.511C300.838 410.511 301.319 409.789 301.311 408.301C301.311 406.831 300.838 406.082 300.09 406.082C299.341 406.082 298.869 406.831 298.869 408.301C298.86 409.789 299.341 410.511 300.09 410.511Z" fill="#B4B4B4"/>
<path d="M239.493 233.308V240.015H238.21V236.722H236.705V235.682H238.21V233.308H239.493ZM239.715 241.298V242.328H233.392V239.429H234.685V241.298H239.715ZM235.22 235.106C235.22 236.167 235.866 237.308 237.331 237.783L236.695 238.803C235.675 238.475 234.978 237.803 234.574 236.965C234.17 237.894 233.437 238.631 232.351 238.995L231.695 237.944C233.21 237.47 233.897 236.268 233.907 235.096V234.955H232.058V233.924H237.048V234.955H235.22V235.106ZM248.412 233.298V242.49H247.109V233.298H248.412ZM245.654 234.258C245.654 237.046 244.674 239.359 241.392 240.914L240.715 239.884C243.089 238.763 244.134 237.308 244.341 235.268H241.21V234.258H245.654ZM259.957 233.298V242.49H258.735V237.874H257.846V242.045H256.664V233.45H257.846V236.844H258.735V233.298H259.957ZM255.694 234.359V235.399H253.563V239.318C254.452 239.313 255.24 239.268 256.129 239.106L256.219 240.157C255.098 240.369 254.119 240.399 252.906 240.409H252.27V234.359H255.694ZM268.643 233.298V242.51H267.34V233.298H268.643ZM262.694 234.025V236.268H264.674V234.025H265.946V240.359H261.401V234.025H262.694ZM262.694 239.318H264.674V237.268H262.694V239.318ZM275.593 236.177C275.593 237.48 276.269 238.965 277.734 239.652L277.017 240.621C276.037 240.182 275.355 239.313 274.966 238.288C274.573 239.394 273.845 240.328 272.805 240.783L272.098 239.783C273.593 239.126 274.31 237.561 274.32 236.177V235.823H272.421V234.793H274.31V233.5H275.603V234.793H277.471V235.823H275.593V236.177ZM279.522 233.298V236.864H280.875V237.944H279.522V242.49H278.229V233.298H279.522ZM283.36 233.854C284.582 233.854 285.481 234.783 285.491 236.096C285.481 237.429 284.582 238.328 283.36 238.328C282.138 238.328 281.249 237.429 281.249 236.096C281.249 234.783 282.138 233.854 283.36 233.854ZM283.36 234.945C282.795 234.945 282.401 235.369 282.401 236.096C282.401 236.823 282.795 237.258 283.36 237.258C283.916 237.258 284.31 236.823 284.32 236.096C284.31 235.369 283.916 234.945 283.36 234.945ZM289.107 233.308V238.793H287.885V236.561H287.128V238.742H285.936V233.47H287.128V235.53H287.885V233.308H289.107ZM289.107 239.197V242.49H287.825V240.227H282.754V239.197H289.107Z" fill="black"/>
<path d="M246.775 251.485C246.784 249.81 247.257 248.411 248.094 247.216H248.968C248.353 248.099 247.765 249.899 247.765 251.485C247.765 253.081 248.353 254.872 248.968 255.763H248.094C247.257 254.569 246.784 253.17 246.775 251.485ZM250.474 253.945H249.431L251.749 247.493H252.88L255.207 253.945H254.164L253.576 252.243H251.062L250.474 253.945ZM251.347 251.423H253.29L252.337 248.669H252.292L251.347 251.423ZM257.854 251.485C257.845 253.17 257.372 254.569 256.534 255.763H255.661C256.276 254.872 256.864 253.081 256.864 251.485C256.864 249.899 256.276 248.099 255.661 247.216H256.534C257.372 248.411 257.845 249.81 257.854 251.485ZM262.06 250.808V251.628H259.199V250.808H262.06ZM263.406 251.485C263.415 249.81 263.887 248.411 264.725 247.216H265.598C264.983 248.099 264.395 249.899 264.395 251.485C264.395 253.081 264.983 254.872 265.598 255.763H264.725C263.887 254.569 263.415 253.17 263.406 251.485ZM266.552 253.945V247.493H268.914C270.286 247.493 270.955 248.232 270.955 249.186C270.955 249.988 270.465 250.398 269.867 250.55V250.612C270.509 250.648 271.204 251.209 271.204 252.207C271.204 253.197 270.527 253.945 269.021 253.945H266.552ZM268.932 253.108C269.859 253.108 270.233 252.698 270.233 252.163C270.233 251.548 269.743 251.049 268.967 251.049H267.532V253.108H268.932ZM268.834 250.282C269.484 250.282 269.992 249.881 269.992 249.266C269.992 248.732 269.627 248.33 268.851 248.33H267.532V250.282H268.834ZM274.083 251.485C274.074 253.17 273.602 254.569 272.764 255.763H271.891C272.506 254.872 273.094 253.081 273.094 251.485C273.094 249.899 272.506 248.099 271.891 247.216H272.764C273.602 248.411 274.074 249.81 274.083 251.485Z" fill="#B4B4B4"/>
<path d="M309 224.562V553.11" stroke="#C1C1C1" stroke-width="0.30421"/>
<path d="M116.438 253.768H145.337" stroke="#C1C1C1" stroke-width="0.30421"/>
<path d="M114 304.875H205.263" stroke="#C1C1C1" stroke-width="0.30421"/>
<path d="M114 346.248H205.263" stroke="#C1C1C1" stroke-width="0.30421"/>
<path d="M114 387.619H205.263" stroke="#C1C1C1" stroke-width="0.30421"/>
<path d="M194 263.502H309" stroke="#C1C1C1" stroke-width="0.30362"/>
<path d="M205.414 304.875H309" stroke="#C1C1C1" stroke-width="0.288159"/>
<path d="M205.414 346.248H309" stroke="#C1C1C1" stroke-width="0.288159"/>
<path d="M205.414 387.621H308.864" stroke="#C1C1C1" stroke-width="0.30421"/>
<path d="M202.066 224.867H309" stroke="#B9B9B9" stroke-width="0.569642"/>
<path d="M207.697 224.867H117.651C115.803 224.867 114.305 226.365 114.305 228.214V549.46C114.305 551.308 115.803 552.806 117.651 552.806H207.697C209.545 552.806 211.044 551.308 211.044 549.46V228.214C211.044 226.365 209.545 224.867 207.697 224.867Z" stroke="black" stroke-width="0.608421"/>
<path d="M117.651 224.562H207.697C208.665 224.562 209.594 224.947 210.278 225.632C210.963 226.316 211.347 227.245 211.347 228.213V263.501H114V228.213C114 227.245 114.385 226.316 115.069 225.632C115.754 224.947 116.682 224.562 117.651 224.562Z" fill="black"/>
<path d="M153.352 239.077V248.269H152.069V243.663H150.241V242.613H152.069V239.077H153.352ZM150.291 240.037C150.291 242.815 149.393 245.077 146.18 246.673L145.514 245.663C147.837 244.517 148.797 243.057 148.999 241.047H145.948V240.037H150.291ZM158.291 239.966V243.512H156.039V245.158C156.913 245.148 157.746 245.113 158.685 244.966L158.776 245.996C157.574 246.198 156.584 246.229 155.443 246.229H154.807V242.481H157.049V241.007H154.796V239.966H158.291ZM162.493 239.077V248.269H161.271V243.592H160.382V247.825H159.2V239.229H160.382V242.552H161.271V239.077H162.493ZM171.251 239.077V248.289H169.958V243.643H168.301V242.613H169.958V239.077H171.251ZM166.927 241.956C166.927 243.289 167.655 244.774 169.16 245.421L168.473 246.411C167.427 245.976 166.7 245.097 166.301 244.047C165.897 245.163 165.175 246.103 164.119 246.552L163.443 245.562C164.917 244.906 165.635 243.34 165.645 241.956V241.603H163.736V240.572H165.645V239.279H166.938V240.572H168.796V241.603H166.927V241.956ZM180.169 239.077V244.461H178.887V243.289H177.17V243.956H172.806V239.754H177.17V240.421H178.887V239.077H180.169ZM174.089 240.774V242.936H175.907V240.774H174.089ZM177.028 244.704C178.988 244.704 180.19 245.36 180.2 246.491C180.19 247.623 178.988 248.269 177.028 248.269C175.069 248.269 173.867 247.623 173.867 246.491C173.867 245.36 175.069 244.704 177.028 244.704ZM177.028 245.683C175.806 245.683 175.149 245.946 175.149 246.491C175.149 247.017 175.806 247.289 177.028 247.289C178.25 247.289 178.917 247.017 178.917 246.491C178.917 245.946 178.25 245.683 177.028 245.683ZM177.17 242.249H178.887V241.441H177.17V242.249Z" fill="white"/>
</g>
<g filter="url(#filter5_d_8795_38)">
<rect x="54" y="144" width="312" height="256" rx="15.6626" fill="white"/>
<rect x="55.5" y="145.5" width="309" height="253" rx="14.1626" stroke="#17BF98" stroke-width="3"/>
<path d="M307.495 158H110.262C100.176 158 92 165.587 92 174.947C92 184.307 100.176 191.894 110.262 191.894H307.495C317.581 191.894 325.757 184.307 325.757 174.947C325.757 165.587 317.581 158 307.495 158Z" fill="#F8F8F9"/>
<g filter="url(#filter6_d_8795_38)">
<path d="M157.015 162.745H110.263C103.001 162.745 97.1145 168.208 97.1145 174.947C97.1145 181.686 103.001 187.149 110.263 187.149H157.015C164.277 187.149 170.164 181.686 170.164 174.947C170.164 168.208 164.277 162.745 157.015 162.745Z" fill="white"/>
</g>
<path d="M130.171 170.224V177.356H128.807V173.854H127.207V172.748H128.807V170.224H130.171ZM130.408 178.721V179.816H123.683V176.733H125.058V178.721H130.408ZM125.627 172.136C125.627 173.264 126.315 174.478 127.873 174.982L127.196 176.067C126.111 175.718 125.37 175.004 124.94 174.112C124.51 175.101 123.731 175.885 122.577 176.271L121.878 175.154C123.49 174.649 124.22 173.371 124.231 172.125V171.975H122.265V170.879H127.572V171.975H125.627V172.136ZM134.49 173.188C134.49 174.671 135.027 176.153 136.413 176.905L135.661 177.904C134.78 177.453 134.194 176.658 133.856 175.702C133.512 176.744 132.927 177.625 132.041 178.141L131.256 177.109C132.664 176.293 133.19 174.703 133.201 173.188V172.963H131.622V171.867H133.201V170.546H134.479V171.867H136.026V172.963H134.49V173.188ZM139.893 170.213V179.988H138.593V170.213H139.893ZM137.895 170.374V179.537H136.606V175.036H135.457V173.919H136.606V170.374H137.895Z" fill="black"/>
<path d="M189.342 170.068V177.158H188.149V173.603H186.431V172.636H188.149V170.068H189.342ZM189.589 178.608V179.575H182.972V176.535H184.164V178.608H189.589ZM184.776 172.002C184.776 173.173 185.561 174.376 187.064 174.87L186.463 175.826C185.378 175.456 184.61 174.72 184.186 173.796C183.756 174.822 182.945 175.633 181.801 176.03L181.188 175.063C182.735 174.559 183.562 173.28 183.562 171.991V171.733H181.543V170.767H186.785V171.733H184.776V172.002ZM194.197 172.818C194.197 174.322 195.089 176.03 196.625 176.739L195.959 177.685C194.863 177.169 194.052 176.127 193.617 174.913C193.177 176.245 192.328 177.384 191.211 177.921L190.513 176.986C192.06 176.256 192.994 174.43 193.005 172.818V172.002H190.889V171.014H196.228V172.002H194.197V172.818ZM198.322 170.058V173.839H199.815V174.838H198.322V179.769H197.13V170.058H198.322ZM203.253 172.604C203.253 174.172 203.801 175.805 205.111 176.632L204.456 177.545C203.581 177.019 203.011 176.111 202.694 175.042C202.34 176.218 201.717 177.212 200.804 177.771L200.062 176.879C201.47 176.02 202.104 174.312 202.104 172.657V170.917H203.253V172.604ZM208.603 170.058V179.769H207.453V170.058H208.603ZM206.583 170.229V179.296H205.455V174.387H204.069V173.398H205.455V170.229H206.583ZM217.519 170.53V171.282C217.519 172.034 217.519 172.894 217.282 174.043H218.604V175.01H209.73V174.043H216.079C216.305 172.996 216.326 172.195 216.326 171.486H210.826V170.53H217.519ZM217.508 176.138V179.65H210.794V176.138H217.508ZM211.965 177.072V178.684H216.326V177.072H211.965ZM227.616 170.058V179.769H226.478V170.058H227.616ZM225.607 170.294V179.307H224.469V176.062H222.954V175.085H224.469V173.646H223.126C222.669 175.257 221.654 176.643 219.839 177.717L219.141 176.868C221.155 175.681 222.079 174.161 222.256 172.206H219.656V171.239H223.438C223.438 171.728 223.405 172.206 223.341 172.668H224.469V170.294H225.607ZM232.225 171.776C232.214 173.055 233.02 174.269 234.545 174.763L233.922 175.708C232.842 175.343 232.08 174.612 231.655 173.678C231.22 174.709 230.42 175.515 229.292 175.912L228.626 174.967C230.227 174.451 231.021 173.141 231.021 171.766V170.659H232.225V171.776ZM236.403 170.058V172.926H237.757V173.936H236.403V177.19H235.211V170.058H236.403ZM236.79 178.608V179.575H230.184V176.492H231.408V178.608H236.79ZM241.839 172.389C241.839 174.193 242.698 175.966 244.245 176.643L243.525 177.599C242.424 177.062 241.651 176.03 241.237 174.763C240.813 176.1 240.023 177.212 238.906 177.781L238.154 176.814C239.733 176.073 240.614 174.204 240.625 172.389V170.842H241.839V172.389ZM246.394 170.058V179.779H245.212V174.161H243.171V173.194H245.212V170.058H246.394Z" fill="#8A8A8B"/>
<path d="M268.582 170.068V177.158H267.39V173.603H265.671V172.636H267.39V170.068H268.582ZM268.829 178.608V179.575H262.212V176.535H263.404V178.608H268.829ZM264.017 172.002C264.017 173.173 264.801 174.376 266.305 174.87L265.703 175.826C264.618 175.456 263.85 174.72 263.426 173.796C262.996 174.822 262.185 175.633 261.041 176.03L260.429 175.063C261.976 174.559 262.803 173.28 262.803 171.991V171.733H260.783V170.767H266.025V171.733H264.017V172.002ZM273.438 172.818C273.438 174.322 274.329 176.03 275.865 176.739L275.199 177.685C274.104 177.169 273.292 176.127 272.857 174.913C272.417 176.245 271.568 177.384 270.451 177.921L269.753 176.986C271.3 176.256 272.234 174.43 272.245 172.818V172.002H270.129V171.014H275.468V172.002H273.438V172.818ZM277.562 170.058V173.839H279.056V174.838H277.562V179.769H276.37V170.058H277.562ZM287.843 170.058V179.769H286.704V170.058H287.843ZM285.834 170.294V179.307H284.695V176.062H283.181V175.085H284.695V173.646H283.353C282.896 175.257 281.881 176.643 280.065 177.717L279.367 176.868C281.381 175.681 282.305 174.161 282.482 172.206H279.883V171.239H283.664C283.664 171.728 283.632 172.206 283.567 172.668H284.695V170.294H285.834ZM292.451 171.776C292.44 173.055 293.246 174.269 294.771 174.763L294.148 175.708C293.069 175.343 292.306 174.612 291.882 173.678C291.447 174.709 290.646 175.515 289.519 175.912L288.853 174.967C290.453 174.451 291.248 173.141 291.248 171.766V170.659H292.451V171.776ZM296.63 170.058V172.926H297.983V173.936H296.63V177.19H295.438V170.058H296.63ZM297.017 178.608V179.575H290.41V176.492H291.635V178.608H297.017ZM302.065 172.389C302.065 174.193 302.925 175.966 304.472 176.643L303.752 177.599C302.651 177.062 301.877 176.03 301.464 174.763C301.04 176.1 300.25 177.212 299.133 177.781L298.381 176.814C299.96 176.073 300.841 174.204 300.852 172.389V170.842H302.065V172.389ZM306.62 170.058V179.779H305.438V174.161H303.397V173.194H305.438V170.058H306.62Z" fill="#8A8A8B"/>
<g clip-path="url(#clip2_8795_38)">
<path d="M129.845 209.986V217.2H128.8V213.494H126.92V212.647H128.8V209.986H129.845ZM130.109 218.773V219.62H123.444V216.551H124.489V218.773H130.109ZM125.16 211.976C125.16 213.208 126.051 214.44 127.536 214.935L126.997 215.771C125.891 215.38 125.072 214.588 124.643 213.615C124.214 214.698 123.351 215.573 122.18 215.991L121.641 215.144C123.158 214.627 124.093 213.329 124.093 211.976V211.591H121.96V210.733H127.272V211.591H125.16V211.976ZM134.31 212.999C134.31 214.55 135.025 216.133 136.389 216.859L135.806 217.629C134.855 217.123 134.189 216.177 133.837 215.056C133.48 216.26 132.82 217.294 131.869 217.86L131.253 217.068C132.617 216.276 133.321 214.594 133.332 212.999V212.603H131.55V211.745H133.332V210.327H134.31V211.745H136.059V212.603H134.31V212.999ZM139.82 209.975V219.829H138.82V209.975H139.82ZM137.819 210.184V219.334H136.829V214.682H135.41V213.813H136.829V210.184H137.819Z" fill="black"/>
<rect x="92" y="223.894" width="78" height="1" fill="black"/>
</g>
<g clip-path="url(#clip3_8795_38)">
<path d="M197.771 210.469V211.217C197.771 211.993 197.771 212.873 197.518 214.066H198.915V214.924H189.896V214.066H196.462C196.726 212.917 196.737 212.075 196.737 211.327H191.029V210.469H197.771ZM197.782 216.177V219.708H190.996V216.177H197.782ZM192.019 217.002V218.861H196.748V217.002H192.019ZM201.972 210.579C203.281 210.579 204.238 211.558 204.238 212.944C204.238 214.33 203.281 215.276 201.972 215.276C200.652 215.276 199.707 214.33 199.718 212.944C199.707 211.558 200.652 210.579 201.972 210.579ZM201.972 211.481C201.202 211.481 200.652 212.064 200.652 212.944C200.652 213.802 201.202 214.407 201.972 214.396C202.731 214.407 203.281 213.802 203.292 212.944C203.281 212.064 202.731 211.481 201.972 211.481ZM208.032 209.986V215.859H207.042V213.318H205.899V215.793H204.92V210.162H205.899V212.471H207.042V209.986H208.032ZM208.032 216.364V219.829H206.998V217.2H201.334V216.364H208.032ZM217.106 209.975V212.295H218.535V213.164H217.106V215.54H216.061V209.975H217.106ZM214.389 210.59C214.378 213.12 212.673 214.891 209.737 215.683L209.319 214.847C211.673 214.225 213.064 212.988 213.256 211.448H209.781V210.59H214.389ZM217.106 215.958V219.697H210.793V215.958H217.106ZM211.837 216.826V218.861H216.072V216.826H211.837ZM228.115 217.717V218.575H219.096V217.717H223.044V215.375H224.078V217.717H228.115ZM224.1 211.349C224.1 212.911 225.816 214.374 227.719 214.693L227.268 215.551C225.673 215.232 224.205 214.247 223.55 212.889C222.902 214.242 221.45 215.243 219.866 215.551L219.404 214.693C221.296 214.374 223 212.911 223 211.349V210.601H224.1V211.349Z" fill="#8A8A8B"/>
<rect x="170.25" y="224.144" width="77.5" height="0.5" stroke="#F7F7F7" stroke-width="0.5"/>
</g>
<g clip-path="url(#clip4_8795_38)">
<path d="M275.771 210.469V211.217C275.771 211.993 275.771 212.873 275.518 214.066H276.915V214.924H267.896V214.066H274.462C274.726 212.917 274.737 212.075 274.737 211.327H269.029V210.469H275.771ZM275.782 216.177V219.708H268.996V216.177H275.782ZM270.019 217.002V218.861H274.748V217.002H270.019ZM279.972 210.579C281.281 210.579 282.238 211.558 282.238 212.944C282.238 214.33 281.281 215.276 279.972 215.276C278.652 215.276 277.707 214.33 277.718 212.944C277.707 211.558 278.652 210.579 279.972 210.579ZM279.972 211.481C279.202 211.481 278.652 212.064 278.652 212.944C278.652 213.802 279.202 214.407 279.972 214.396C280.731 214.407 281.281 213.802 281.292 212.944C281.281 212.064 280.731 211.481 279.972 211.481ZM286.032 209.986V215.859H285.042V213.318H283.899V215.793H282.92V210.162H283.899V212.471H285.042V209.986H286.032ZM286.032 216.364V219.829H284.998V217.2H279.334V216.364H286.032ZM296.348 214.616V215.463H287.363V214.616H296.348ZM291.85 216.221C293.973 216.221 295.249 216.881 295.249 218.025C295.249 219.169 293.973 219.818 291.85 219.807C289.717 219.818 288.43 219.169 288.43 218.025C288.43 216.881 289.717 216.221 291.85 216.221ZM291.85 217.035C290.343 217.046 289.486 217.387 289.486 218.025C289.486 218.652 290.343 218.982 291.85 218.982C293.335 218.982 294.204 218.652 294.204 218.025C294.204 217.387 293.335 217.046 291.85 217.035ZM295.545 210.458V211.316H292.554C292.669 212.273 294.066 213.087 295.886 213.274L295.512 214.099C293.808 213.901 292.395 213.181 291.861 212.141C291.311 213.181 289.903 213.901 288.199 214.099L287.836 213.274C289.623 213.087 291.031 212.279 291.157 211.316H288.188V210.458H295.545ZM304.773 209.975V213.901H306.302V214.77H304.773V219.818H303.728V209.975H304.773ZM302.199 211.008C302.188 213.857 300.934 216.397 297.69 218.003L297.107 217.189C299.576 215.958 300.918 214.176 301.132 211.877H297.602V211.008H302.199Z" fill="#8A8A8B"/>
<rect x="248.25" y="224.144" width="77.5" height="0.5" stroke="#F7F7F7" stroke-width="0.5"/>
</g>
<g clip-path="url(#clip5_8795_38)">
<g filter="url(#filter7_d_8795_38)">
<path d="M96.3994 240.371H204.917C206.083 240.371 207.202 240.831 208.027 241.652C208.853 242.472 209.316 243.585 209.316 244.745V634.084H96.3994C95.2326 634.084 94.1136 633.623 93.2885 632.803C92.4635 631.982 92 630.87 92 629.71V244.745C92 243.585 92.4635 242.472 93.2885 241.652C94.1136 240.831 95.2326 240.371 96.3994 240.371Z" fill="white"/>
<path d="M96.3999 240.734H204.917C205.987 240.734 207.013 241.156 207.769 241.908C208.525 242.66 208.95 243.68 208.95 244.744V633.718H96.3999C95.3304 633.718 94.3046 633.296 93.5483 632.544C92.7921 631.792 92.3672 630.772 92.3672 629.708V244.744C92.3672 243.68 92.7921 242.66 93.5483 241.908C94.3046 241.156 95.3304 240.734 96.3999 240.734Z" stroke="#B9B9B9" stroke-width="0.608421"/>
</g>
<path d="M326.682 336.611H208.999V386.345H326.682V336.611Z" fill="#FF5353" fill-opacity="0.05"/>
<path d="M106.968 311.08V311.989H103.813V314.716H102.69V311.989H99.5702V311.08H106.968ZM106.308 307.034V307.925H103.946C104.058 308.718 104.953 309.516 106.62 309.716L106.21 310.607C104.784 310.416 103.764 309.805 103.278 308.968C102.779 309.805 101.767 310.416 100.355 310.607L99.9356 309.716C101.576 309.516 102.48 308.718 102.609 307.925H100.239V307.034H106.308ZM110.568 307.755C110.559 308.771 111.139 309.752 112.475 310.153L111.905 311.044C110.983 310.75 110.345 310.175 109.98 309.431C109.615 310.233 108.955 310.861 108.001 311.169L107.431 310.278C108.786 309.841 109.383 308.789 109.383 307.755V306.98H110.568V307.755ZM114.249 311.793V314.716H113.108V312.702H108.67V311.793H114.249ZM114.249 306.606V311.445H113.108V306.606H114.249ZM122.163 306.606V314.716H121.031V306.606H122.163ZM115.381 312.426C116 312.421 116.709 312.421 117.449 312.399V311.713C116.557 311.557 115.978 311.004 115.987 310.242C115.978 309.333 116.807 308.718 118.001 308.718C119.204 308.718 120.042 309.333 120.042 310.242C120.042 311 119.463 311.552 118.571 311.713V312.363C119.249 312.332 119.935 312.279 120.586 312.194L120.666 313.032C118.892 313.335 116.976 313.352 115.532 313.352L115.381 312.426ZM120.47 307.506V308.397H115.541V307.506H117.449V306.641H118.58V307.506H120.47ZM118.001 309.583C117.449 309.583 117.056 309.823 117.065 310.242C117.056 310.67 117.449 310.902 118.001 310.902C118.571 310.902 118.955 310.67 118.955 310.242C118.955 309.823 118.571 309.583 118.001 309.583ZM126.218 308.442C126.209 309.894 126.833 311.365 128.135 311.989L127.448 312.898C126.579 312.47 125.996 311.668 125.657 310.688C125.305 311.739 124.676 312.599 123.759 313.049L123.054 312.131C124.427 311.499 125.078 309.948 125.078 308.442V307.23H126.218V308.442ZM129.632 306.606V309.734H130.826V310.697H129.632V314.716H128.491V306.606H129.632ZM135.826 308.647C135.826 309.957 136.191 311.312 137.296 312.025L136.682 312.907C135.982 312.484 135.536 311.788 135.282 310.955C134.988 311.873 134.502 312.639 133.767 313.085L133.072 312.247C134.275 311.499 134.721 310.073 134.721 308.7V307.301H135.826V308.647ZM140.255 306.606V314.716H139.168V306.606H140.255ZM138.553 306.722V314.342H137.493V310.269H136.441V309.342H137.493V306.722H138.553ZM148.535 312.836V313.771H141.111V312.836H144.239V311.178H141.895V307.203H147.706V311.178H145.371V312.836H148.535ZM143.018 308.112V310.287H146.583V308.112H143.018Z" fill="black"/>
<path d="M276.711 307.444V313.896H275.366V308.718H275.33L273.85 309.645V308.46L275.446 307.444H276.711ZM279.305 313.237L278.538 315.777H277.594L278.039 313.237H279.305ZM280.481 313.896L280.472 312.925L282.79 310.795C283.396 310.215 283.716 309.859 283.716 309.351C283.716 308.78 283.28 308.424 282.692 308.424C282.085 308.424 281.693 308.807 281.693 309.422H280.419C280.41 308.157 281.346 307.354 282.709 307.354C284.091 307.354 285.009 308.139 285.009 309.262C285.009 309.992 284.652 310.599 283.324 311.802L282.344 312.755V312.791H285.098V313.896H280.481ZM288.44 313.985C287.023 313.985 286.007 313.201 285.98 312.078H287.335C287.362 312.559 287.825 312.88 288.449 312.88C289.091 312.88 289.554 312.515 289.545 311.998C289.554 311.472 289.082 311.098 288.324 311.098H287.727V310.108H288.324C288.957 310.108 289.403 309.761 289.403 309.253C289.403 308.763 289.028 308.424 288.458 308.424C287.887 308.424 287.415 308.745 287.397 309.235H286.114C286.132 308.121 287.139 307.354 288.458 307.354C289.804 307.354 290.704 308.148 290.695 309.173C290.704 309.894 290.196 310.411 289.474 310.536V310.59C290.419 310.705 290.944 311.285 290.936 312.087C290.944 313.192 289.893 313.985 288.44 313.985ZM294.376 313.985C293.039 313.976 291.773 313.183 291.773 310.821C291.773 308.647 292.816 307.354 294.429 307.354C295.73 307.354 296.613 308.174 296.746 309.235H295.427C295.32 308.78 294.946 308.504 294.429 308.504C293.556 308.504 293.092 309.297 293.083 310.563H293.146C293.44 309.992 294.082 309.654 294.795 309.654C295.953 309.654 296.818 310.527 296.818 311.739C296.818 313.049 295.828 313.994 294.376 313.985ZM294.367 312.925C295.026 312.925 295.517 312.426 295.517 311.775C295.517 311.133 295.044 310.625 294.385 310.625C293.725 310.625 293.226 311.142 293.217 311.775C293.226 312.408 293.707 312.925 294.367 312.925ZM298.921 313.237L298.155 315.777H297.21L297.655 313.237H298.921ZM302.335 313.985C300.721 313.985 299.741 312.782 299.741 310.67C299.741 308.558 300.721 307.354 302.335 307.354C303.948 307.354 304.928 308.566 304.928 310.67C304.928 312.791 303.948 313.985 302.335 313.985ZM302.335 312.88C303.083 312.88 303.564 312.158 303.556 310.67C303.556 309.199 303.083 308.451 302.335 308.451C301.586 308.451 301.114 309.199 301.114 310.67C301.105 312.158 301.586 312.88 302.335 312.88ZM308.359 313.985C306.746 313.985 305.766 312.782 305.766 310.67C305.766 308.558 306.746 307.354 308.359 307.354C309.972 307.354 310.953 308.566 310.953 310.67C310.953 312.791 309.972 313.985 308.359 313.985ZM308.359 312.88C309.108 312.88 309.589 312.158 309.58 310.67C309.58 309.199 309.108 308.451 308.359 308.451C307.611 308.451 307.138 309.199 307.138 310.67C307.129 312.158 307.611 312.88 308.359 312.88ZM314.384 313.985C312.771 313.985 311.791 312.782 311.791 310.67C311.791 308.558 312.771 307.354 314.384 307.354C315.997 307.354 316.978 308.566 316.978 310.67C316.978 312.791 315.997 313.985 314.384 313.985ZM314.384 312.88C315.133 312.88 315.614 312.158 315.605 310.67C315.605 309.199 315.133 308.451 314.384 308.451C313.635 308.451 313.163 309.199 313.163 310.67C313.154 312.158 313.635 312.88 314.384 312.88Z" fill="#B4B4B4"/>
<path d="M102.173 358.225C102.173 359.535 102.538 360.889 103.643 361.602L103.028 362.485C102.329 362.061 101.883 361.366 101.629 360.533C101.335 361.451 100.849 362.217 100.114 362.663L99.4187 361.825C100.622 361.077 101.068 359.651 101.068 358.278V356.879H102.173V358.225ZM106.602 356.184V364.294H105.515V356.184H106.602ZM104.9 356.3V363.92H103.839V359.847H102.788V358.92H103.839V356.3H104.9ZM114.882 362.413V363.349H107.458V362.413H110.586V360.756H108.242V356.781H114.053V360.756H111.718V362.413H114.882ZM109.365 357.69V359.865H112.93V357.69H109.365ZM122.76 360.72V361.647H119.588V364.303H118.465V361.647H115.336V360.72H122.76ZM119.026 356.451C120.764 356.451 121.985 357.173 121.985 358.296C121.985 359.401 120.764 360.105 119.026 360.105C117.288 360.105 116.076 359.401 116.085 358.296C116.076 357.173 117.288 356.451 119.026 356.451ZM119.026 357.36C117.939 357.36 117.244 357.699 117.252 358.296C117.244 358.875 117.939 359.205 119.026 359.205C120.122 359.205 120.809 358.875 120.809 358.296C120.809 357.699 120.122 357.36 119.026 357.36ZM130.033 356.184V364.312H128.901V356.184H130.033ZM127.52 356.861V359.989H124.846V361.478C126.08 361.473 127.132 361.402 128.322 361.21L128.42 362.128C127.083 362.36 125.88 362.413 124.4 362.413H123.669V359.089H126.361V357.779H123.66V356.861H127.52ZM135.273 356.95V362.315H131.379V356.95H135.273ZM132.502 357.841V361.415H134.141V357.841H132.502ZM137.519 356.184V359.241H138.714V360.185H137.519V364.294H136.378V356.184H137.519ZM142.706 356.3C144.569 356.3 145.647 356.79 145.656 357.681C145.647 358.581 144.569 359.071 142.706 359.071C140.835 359.071 139.747 358.581 139.747 357.681C139.747 356.79 140.835 356.3 142.706 356.3ZM142.706 357.128C141.512 357.128 140.933 357.324 140.942 357.681C140.933 358.082 141.512 358.234 142.706 358.234C143.909 358.234 144.48 358.082 144.48 357.681C144.48 357.324 143.909 357.128 142.706 357.128ZM146.405 359.455V360.355H139.008V359.455H146.405ZM145.505 360.827V362.895H140.986V363.385H145.719V364.241H139.872V362.102H144.382V361.656H139.863V360.827H145.505ZM153.437 356.549V357.2C153.437 357.833 153.437 358.537 153.25 359.463H154.319V360.381H146.895V359.463H152.1C152.278 358.652 152.301 358.024 152.305 357.458H147.804V356.549H153.437ZM153.41 361.237V364.205H147.777V361.237H153.41ZM148.892 362.128V363.296H152.278V362.128H148.892ZM161.467 356.888V357.654C161.467 358.67 161.467 359.811 161.137 361.531L159.996 361.415C160.304 359.882 160.317 358.742 160.326 357.788H155.549V356.888H161.467ZM162.18 362.378V363.305H154.783V362.378H157.43V359.588H158.561V362.378H162.18Z" fill="black"/>
<path d="M272.53 359.722V360.774H269.589V359.722H272.53ZM276.041 363.563C274.571 363.563 273.51 362.788 273.51 361.736C273.51 360.925 274.134 360.266 274.936 360.141V360.096C274.241 359.963 273.76 359.374 273.76 358.67C273.76 357.663 274.722 356.932 276.041 356.932C277.36 356.932 278.323 357.663 278.332 358.67C278.323 359.383 277.833 359.963 277.156 360.096V360.141C277.94 360.266 278.573 360.925 278.573 361.736C278.573 362.788 277.512 363.563 276.041 363.563ZM276.041 362.538C276.719 362.538 277.173 362.155 277.173 361.602C277.173 361.041 276.701 360.631 276.041 360.631C275.382 360.631 274.901 361.041 274.91 361.602C274.901 362.155 275.355 362.538 276.041 362.538ZM276.041 359.686C276.612 359.686 277.022 359.321 277.022 358.804C277.022 358.305 276.621 357.948 276.041 357.948C275.462 357.948 275.07 358.296 275.07 358.804C275.07 359.321 275.471 359.686 276.041 359.686ZM280.747 362.815L279.981 365.355H279.036L279.482 362.815H280.747ZM281.817 362.333V361.273L284.544 357.021H286.228V361.255H287.048V362.333H286.228V363.474H284.954V362.333H281.817ZM283.171 361.255H284.972V358.492H284.909L283.171 361.201V361.255ZM290.426 363.563C288.813 363.563 287.833 362.36 287.833 360.248C287.833 358.136 288.813 356.932 290.426 356.932C292.039 356.932 293.02 358.144 293.02 360.248C293.02 362.369 292.039 363.563 290.426 363.563ZM290.426 362.458C291.175 362.458 291.656 361.736 291.647 360.248C291.647 358.777 291.175 358.029 290.426 358.029C289.677 358.029 289.205 358.777 289.205 360.248C289.196 361.736 289.677 362.458 290.426 362.458ZM296.451 363.563C294.838 363.563 293.857 362.36 293.857 360.248C293.857 358.136 294.838 356.932 296.451 356.932C298.064 356.932 299.044 358.144 299.044 360.248C299.044 362.369 298.064 363.563 296.451 363.563ZM296.451 362.458C297.2 362.458 297.681 361.736 297.672 360.248C297.672 358.777 297.2 358.029 296.451 358.029C295.702 358.029 295.23 358.777 295.23 360.248C295.221 361.736 295.702 362.458 296.451 362.458ZM301.148 362.815L300.381 365.355H299.437L299.882 362.815H301.148ZM304.561 363.563C302.948 363.563 301.968 362.36 301.968 360.248C301.968 358.136 302.948 356.932 304.561 356.932C306.174 356.932 307.155 358.144 307.155 360.248C307.155 362.369 306.174 363.563 304.561 363.563ZM304.561 362.458C305.31 362.458 305.791 361.736 305.782 360.248C305.782 358.777 305.31 358.029 304.561 358.029C303.813 358.029 303.34 358.777 303.34 360.248C303.331 361.736 303.813 362.458 304.561 362.458ZM310.586 363.563C308.973 363.563 307.992 362.36 307.992 360.248C307.992 358.136 308.973 356.932 310.586 356.932C312.199 356.932 313.179 358.144 313.179 360.248C313.179 362.369 312.199 363.563 310.586 363.563ZM310.586 362.458C311.335 362.458 311.816 361.736 311.807 360.248C311.807 358.777 311.335 358.029 310.586 358.029C309.837 358.029 309.365 358.777 309.365 360.248C309.356 361.736 309.837 362.458 310.586 362.458ZM316.611 363.563C314.998 363.563 314.017 362.36 314.017 360.248C314.017 358.136 314.998 356.932 316.611 356.932C318.224 356.932 319.204 358.144 319.204 360.248C319.204 362.369 318.224 363.563 316.611 363.563ZM316.611 362.458C317.359 362.458 317.841 361.736 317.832 360.248C317.832 358.777 317.359 358.029 316.611 358.029C315.862 358.029 315.39 358.777 315.39 360.248C315.381 361.736 315.862 362.458 316.611 362.458Z" fill="#FF5353"/>
<path d="M246.864 251.735V258.442H245.581V255.149H244.076V254.109H245.581V251.735H246.864ZM247.086 259.725V260.755H240.763V257.856H242.056V259.725H247.086ZM242.591 253.533C242.591 254.594 243.238 255.735 244.702 256.21L244.066 257.23C243.046 256.902 242.349 256.23 241.945 255.392C241.541 256.321 240.808 257.059 239.723 257.422L239.066 256.372C240.581 255.897 241.268 254.695 241.278 253.523V253.382H239.43V252.352H244.419V253.382H242.591V253.533ZM255.783 251.725V260.917H254.48V251.725H255.783ZM253.025 252.685C253.025 255.473 252.045 257.786 248.763 259.341L248.086 258.311C250.46 257.19 251.505 255.735 251.712 253.695H248.581V252.685H253.025ZM267.328 251.725V260.917H266.106V256.301H265.217V260.473H264.035V251.877H265.217V255.271H266.106V251.725H267.328ZM263.065 252.786V253.826H260.934V257.745C261.823 257.74 262.611 257.695 263.5 257.533L263.591 258.584C262.469 258.796 261.49 258.826 260.278 258.836H259.641V252.786H263.065ZM276.014 251.725V260.937H274.711V251.725H276.014ZM270.065 252.453V254.695H272.045V252.453H273.318V258.786H268.772V252.453H270.065ZM270.065 257.745H272.045V255.695H270.065V257.745ZM282.964 254.604C282.964 255.907 283.641 257.392 285.105 258.079L284.388 259.048C283.408 258.609 282.726 257.74 282.338 256.715C281.944 257.821 281.216 258.755 280.176 259.21L279.469 258.21C280.964 257.553 281.681 255.988 281.691 254.604V254.251H279.792V253.22H281.681V251.927H282.974V253.22H284.843V254.251H282.964V254.604ZM286.893 251.725V255.291H288.246V256.372H286.893V260.917H285.6V251.725H286.893ZM290.731 252.281C291.953 252.281 292.852 253.21 292.863 254.523C292.852 255.857 291.953 256.755 290.731 256.755C289.509 256.755 288.62 255.857 288.62 254.523C288.62 253.21 289.509 252.281 290.731 252.281ZM290.731 253.372C290.166 253.372 289.772 253.796 289.772 254.523C289.772 255.25 290.166 255.685 290.731 255.685C291.287 255.685 291.681 255.25 291.691 254.523C291.681 253.796 291.287 253.372 290.731 253.372ZM296.479 251.735V257.22H295.256V254.988H294.499V257.17H293.307V251.897H294.499V253.958H295.256V251.735H296.479ZM296.479 257.624V260.917H295.196V258.654H290.125V257.624H296.479Z" fill="black"/>
<path d="M254.391 275.163C254.4 273.488 254.872 272.089 255.71 270.894H256.584C255.969 271.777 255.38 273.577 255.38 275.163C255.38 276.759 255.969 278.55 256.584 279.441H255.71C254.872 278.247 254.4 276.848 254.391 275.163ZM258.09 277.623H257.047L259.364 271.171H260.496L262.822 277.623H261.78L261.191 275.921H258.678L258.09 277.623ZM258.963 275.101H260.906L259.953 272.347H259.908L258.963 275.101ZM265.469 275.163C265.46 276.848 264.988 278.247 264.15 279.441H263.277C263.892 278.55 264.48 276.759 264.48 275.163C264.48 273.577 263.892 271.777 263.277 270.894H264.15C264.988 272.089 265.46 273.488 265.469 275.163ZM269.676 274.486V275.306H266.815V274.486H269.676ZM271.022 275.163C271.031 273.488 271.503 272.089 272.341 270.894H273.214C272.599 271.777 272.011 273.577 272.011 275.163C272.011 276.759 272.599 278.55 273.214 279.441H272.341C271.503 278.247 271.031 276.848 271.022 275.163ZM274.168 277.623V271.171H276.53C277.902 271.171 278.571 271.91 278.571 272.864C278.571 273.666 278.08 274.076 277.483 274.228V274.29C278.125 274.326 278.82 274.887 278.82 275.885C278.82 276.875 278.143 277.623 276.637 277.623H274.168ZM276.547 276.786C277.474 276.786 277.849 276.376 277.849 275.841C277.849 275.226 277.359 274.727 276.583 274.727H275.148V276.786H276.547ZM276.449 273.96C277.1 273.96 277.608 273.559 277.608 272.944C277.608 272.41 277.243 272.008 276.467 272.008H275.148V273.96H276.449ZM281.699 275.163C281.69 276.848 281.218 278.247 280.38 279.441H279.506C280.121 278.55 280.71 276.759 280.71 275.163C280.71 273.577 280.121 271.777 279.506 270.894H280.38C281.218 272.089 281.69 273.488 281.699 275.163Z" fill="#B4B4B4"/>
<path d="M327 240.371V634.084" stroke="#C1C1C1" stroke-width="0.30421"/>
<path d="M94.9375 275.367H129.766" stroke="#C1C1C1" stroke-width="0.30421"/>
<path d="M92 336.611H201.984" stroke="#C1C1C1" stroke-width="0.30421"/>
<path d="M188.41 287.033H327" stroke="#C1C1C1" stroke-width="0.30362"/>
<path d="M202.166 336.611H327" stroke="#C1C1C1" stroke-width="0.288159"/>
<path d="M198.131 240.736H327" stroke="#B9B9B9" stroke-width="0.569642"/>
<path d="M204.917 240.734H96.3999C94.1727 240.734 92.3672 242.529 92.3672 244.744V629.708C92.3672 631.923 94.1727 633.718 96.3999 633.718H204.917C207.144 633.718 208.95 631.923 208.95 629.708V244.744C208.95 242.529 207.144 240.734 204.917 240.734Z" stroke="black" stroke-width="0.608421"/>
<path d="M96.3994 239.982H204.917C206.083 239.982 207.202 240.443 208.027 241.263C208.853 242.084 209.316 243.196 209.316 244.356V286.644H92V244.356C92 243.196 92.4635 242.084 93.2885 241.263C94.1136 240.443 95.2326 239.982 96.3994 239.982Z" fill="black"/>
<path d="M140.203 259.958V269.149H138.92V264.543H137.092V263.493H138.92V259.958H140.203ZM137.142 260.917C137.142 263.695 136.243 265.958 133.031 267.554L132.365 266.543C134.688 265.397 135.647 263.937 135.849 261.927H132.799V260.917H137.142ZM145.142 260.847V264.392H142.89V266.038C143.763 266.028 144.597 265.993 145.536 265.846L145.627 266.877C144.425 267.079 143.435 267.109 142.294 267.109H141.657V263.362H143.9V261.887H141.647V260.847H145.142ZM149.344 259.958V269.149H148.122V264.473H147.233V268.705H146.051V260.109H147.233V263.432H148.122V259.958H149.344ZM158.101 259.958V269.17H156.808V264.523H155.152V263.493H156.808V259.958H158.101ZM153.778 262.836C153.778 264.17 154.505 265.655 156.01 266.301L155.324 267.291C154.278 266.857 153.551 265.978 153.152 264.927C152.748 266.043 152.026 266.983 150.97 267.432L150.293 266.442C151.768 265.786 152.485 264.22 152.495 262.836V262.483H150.586V261.453H152.495V260.16H153.788V261.453H155.647V262.483H153.778V262.836ZM167.02 259.958V265.341H165.737V264.17H164.02V264.836H159.657V260.635H164.02V261.301H165.737V259.958H167.02ZM160.94 261.655V263.816H162.758V261.655H160.94ZM163.879 265.584C165.838 265.584 167.04 266.24 167.05 267.372C167.04 268.503 165.838 269.149 163.879 269.149C161.919 269.149 160.717 268.503 160.717 267.372C160.717 266.24 161.919 265.584 163.879 265.584ZM163.879 266.564C162.657 266.564 162 266.826 162 267.372C162 267.897 162.657 268.17 163.879 268.17C165.101 268.17 165.768 267.897 165.768 267.372C165.768 266.826 165.101 266.564 163.879 266.564ZM164.02 263.129H165.737V262.321H164.02V263.129Z" fill="white"/>
</g>
</g>
</g>
</g>
<defs>
<filter id="filter0_i_8795_38" x="0" y="0" width="420" height="420" filterUnits="userSpaceOnUse" color-interpolation-filters="sRGB">
<feFlood flood-opacity="0" result="BackgroundImageFix"/>
<feBlend mode="normal" in="SourceGraphic" in2="BackgroundImageFix" result="shape"/>
<feColorMatrix in="SourceAlpha" type="matrix" values="0 0 0 0 0 0 0 0 0 0 0 0 0 0 0 0 0 0 127 0" result="hardAlpha"/>
<feOffset/>
<feGaussianBlur stdDeviation="2"/>
<feComposite in2="hardAlpha" operator="arithmetic" k2="-1" k3="1"/>
<feColorMatrix type="matrix" values="0 0 0 0 0 0 0 0 0 0 0 0 0 0 0 0 0 0 0.16 0"/>
<feBlend mode="normal" in2="shape" result="effect1_innerShadow_8795_38"/>
</filter>
<filter id="filter1_d_8795_38" x="58" y="23" width="305" height="540" filterUnits="userSpaceOnUse" color-interpolation-filters="sRGB">
<feFlood flood-opacity="0" result="BackgroundImageFix"/>
<feColorMatrix in="SourceAlpha" type="matrix" values="0 0 0 0 0 0 0 0 0 0 0 0 0 0 0 0 0 0 127 0" result="hardAlpha"/>
<feOffset dy="1"/>
<feGaussianBlur stdDeviation="8"/>
<feComposite in2="hardAlpha" operator="out"/>
<feColorMatrix type="matrix" values="0 0 0 0 0 0 0 0 0 0 0 0 0 0 0 0 0 0 0.08 0"/>
<feBlend mode="normal" in2="BackgroundImageFix" result="effect1_dropShadow_8795_38"/>
<feBlend mode="normal" in="SourceGraphic" in2="effect1_dropShadow_8795_38" result="shape"/>
</filter>
<filter id="filter2_i_8795_38" x="85" y="51" width="251" height="482.885" filterUnits="userSpaceOnUse" color-interpolation-filters="sRGB">
<feFlood flood-opacity="0" result="BackgroundImageFix"/>
<feBlend mode="normal" in="SourceGraphic" in2="BackgroundImageFix" result="shape"/>
<feColorMatrix in="SourceAlpha" type="matrix" values="0 0 0 0 0 0 0 0 0 0 0 0 0 0 0 0 0 0 127 0" result="hardAlpha"/>
<feOffset dy="0.885417"/>
<feGaussianBlur stdDeviation="0.885417"/>
<feComposite in2="hardAlpha" operator="arithmetic" k2="-1" k3="1"/>
<feColorMatrix type="matrix" values="0 0 0 0 0.833512 0 0 0 0 0.831423 0 0 0 0 0.824016 0 0 0 0.25 0"/>
<feBlend mode="normal" in2="shape" result="effect1_innerShadow_8795_38"/>
</filter>
<filter id="filter3_d_8795_38" x="104.357" y="170.097" width="74.5669" height="31.1825" filterUnits="userSpaceOnUse" color-interpolation-filters="sRGB">
<feFlood flood-opacity="0" result="BackgroundImageFix"/>
<feColorMatrix in="SourceAlpha" type="matrix" values="0 0 0 0 0 0 0 0 0 0 0 0 0 0 0 0 0 0 127 0" result="hardAlpha"/>
<feOffset dy="2.03364"/>
<feGaussianBlur stdDeviation="1.6947"/>
<feColorMatrix type="matrix" values="0 0 0 0 0 0 0 0 0 0 0 0 0 0 0 0 0 0 0.2 0"/>
<feBlend mode="normal" in2="BackgroundImageFix" result="effect1_dropShadow_8795_38"/>
<feBlend mode="normal" in="SourceGraphic" in2="effect1_dropShadow_8795_38" result="shape"/>
</filter>
<filter id="filter4_d_8795_38" x="114" y="221.52" width="105.257" height="334.632" filterUnits="userSpaceOnUse" color-interpolation-filters="sRGB">
<feFlood flood-opacity="0" result="BackgroundImageFix"/>
<feColorMatrix in="SourceAlpha" type="matrix" values="0 0 0 0 0 0 0 0 0 0 0 0 0 0 0 0 0 0 127 0" result="hardAlpha"/>
<feOffset dx="4.86737"/>
<feGaussianBlur stdDeviation="1.52105"/>
<feColorMatrix type="matrix" values="0 0 0 0 0 0 0 0 0 0 0 0 0 0 0 0 0 0 0.078 0"/>
<feBlend mode="normal" in2="BackgroundImageFix" result="effect1_dropShadow_8795_38"/>
<feBlend mode="normal" in="SourceGraphic" in2="effect1_dropShadow_8795_38" result="shape"/>
</filter>
<filter id="filter5_d_8795_38" x="38" y="126" width="344" height="288" filterUnits="userSpaceOnUse" color-interpolation-filters="sRGB">
<feFlood flood-opacity="0" result="BackgroundImageFix"/>
<feColorMatrix in="SourceAlpha" type="matrix" values="0 0 0 0 0 0 0 0 0 0 0 0 0 0 0 0 0 0 127 0" result="hardAlpha"/>
<feOffset dy="-2"/>
<feGaussianBlur stdDeviation="8"/>
<feComposite in2="hardAlpha" operator="out"/>
<feColorMatrix type="matrix" values="0 0 0 0 0 0 0 0 0 0 0 0 0 0 0 0 0 0 0.16 0"/>
<feBlend mode="normal" in2="BackgroundImageFix" result="effect1_dropShadow_8795_38"/>
<feBlend mode="normal" in="SourceGraphic" in2="effect1_dropShadow_8795_38" result="shape"/>
</filter>
<filter id="filter6_d_8795_38" x="93.7251" y="161.389" width="79.8279" height="31.1825" filterUnits="userSpaceOnUse" color-interpolation-filters="sRGB">
<feFlood flood-opacity="0" result="BackgroundImageFix"/>
<feColorMatrix in="SourceAlpha" type="matrix" values="0 0 0 0 0 0 0 0 0 0 0 0 0 0 0 0 0 0 127 0" result="hardAlpha"/>
<feOffset dy="2.03364"/>
<feGaussianBlur stdDeviation="1.6947"/>
<feColorMatrix type="matrix" values="0 0 0 0 0 0 0 0 0 0 0 0 0 0 0 0 0 0 0.2 0"/>
<feBlend mode="normal" in2="BackgroundImageFix" result="effect1_dropShadow_8795_38"/>
<feBlend mode="normal" in="SourceGraphic" in2="effect1_dropShadow_8795_38" result="shape"/>
</filter>
<filter id="filter7_d_8795_38" x="92" y="237.328" width="125.225" height="399.798" filterUnits="userSpaceOnUse" color-interpolation-filters="sRGB">
<feFlood flood-opacity="0" result="BackgroundImageFix"/>
<feColorMatrix in="SourceAlpha" type="matrix" values="0 0 0 0 0 0 0 0 0 0 0 0 0 0 0 0 0 0 127 0" result="hardAlpha"/>
<feOffset dx="4.86737"/>
<feGaussianBlur stdDeviation="1.52105"/>
<feColorMatrix type="matrix" values="0 0 0 0 0 0 0 0 0 0 0 0 0 0 0 0 0 0 0.078 0"/>
<feBlend mode="normal" in2="BackgroundImageFix" result="effect1_dropShadow_8795_38"/>
<feBlend mode="normal" in="SourceGraphic" in2="effect1_dropShadow_8795_38" result="shape"/>
</filter>
<linearGradient id="paint0_linear_8795_38" x1="210" y1="0" x2="210" y2="420" gradientUnits="userSpaceOnUse">
<stop offset="0.0001" stop-color="#2ACCB9"/>
<stop offset="1" stop-color="#2ACC75" stop-opacity="0.5"/>
</linearGradient>
<clipPath id="clip0_8795_38">
<rect width="420" height="420" rx="20" fill="white"/>
</clipPath>
<clipPath id="clip1_8795_38">
<rect width="195" height="338" fill="white" transform="translate(114 220)"/>
</clipPath>
<clipPath id="clip2_8795_38">
<rect width="78" height="17" fill="white" transform="translate(92 207.894)"/>
</clipPath>
<clipPath id="clip3_8795_38">
<rect width="78" height="17" fill="white" transform="translate(170 207.894)"/>
</clipPath>
<clipPath id="clip4_8795_38">
<rect width="78" height="17" fill="white" transform="translate(248 207.894)"/>
</clipPath>
<clipPath id="clip5_8795_38">
<rect width="235" height="145" fill="white" transform="translate(92 240.894)"/>
</clipPath>
</defs>
</svg>
