<svg width="420" height="420" viewBox="0 0 420 420" fill="none" xmlns="http://www.w3.org/2000/svg">
<g filter="url(#filter0_i_8791_516)">
<g clip-path="url(#clip0_8791_516)">
<rect width="420" height="420" rx="20" fill="url(#paint0_linear_8791_516)" fill-opacity="0.15"/>
<g filter="url(#filter1_d_8791_516)">
<rect x="74" y="38" width="273" height="508" rx="36" fill="#F4F4F4"/>
<g filter="url(#filter2_i_8791_516)">
<rect x="85" y="50" width="251" height="482" rx="28" fill="white"/>
</g>
<path d="M118.923 68.0127C119.492 68.0127 120.031 68.1181 120.54 68.3288C121.05 68.5346 121.501 68.858 121.893 69.2989C122.289 69.735 122.601 70.296 122.826 70.982C123.051 71.6631 123.164 72.4838 123.164 73.4441V73.4588C123.164 74.6495 122.993 75.6686 122.65 76.5163C122.307 77.3639 121.814 78.0156 121.172 78.4713C120.535 78.9221 119.773 79.1475 118.887 79.1475C118.235 79.1475 117.647 79.0299 117.123 78.7947C116.603 78.5546 116.172 78.2263 115.829 77.8098C115.491 77.3884 115.263 76.9083 115.146 76.3693L115.131 76.2884H116.99L117.02 76.3619C117.113 76.6069 117.245 76.8225 117.417 77.0087C117.593 77.1949 117.804 77.3394 118.049 77.4423C118.299 77.5403 118.578 77.5893 118.887 77.5893C119.445 77.5893 119.901 77.4252 120.254 77.0969C120.611 76.7637 120.878 76.3203 121.055 75.7666C121.236 75.208 121.339 74.5907 121.363 73.9145C121.368 73.841 121.371 73.77 121.371 73.7014C121.371 73.6279 121.371 73.5568 121.371 73.4882L121.04 71.717C121.04 71.3152 120.947 70.9502 120.761 70.6219C120.574 70.2936 120.322 70.0339 120.004 69.8428C119.69 69.6517 119.335 69.5562 118.938 69.5562C118.556 69.5562 118.205 69.6493 117.887 69.8355C117.568 70.0216 117.314 70.2764 117.123 70.5998C116.932 70.9183 116.836 71.276 116.836 71.6729V71.6876C116.836 72.0991 116.927 72.4642 117.108 72.7827C117.289 73.0962 117.537 73.3437 117.85 73.525C118.164 73.7063 118.521 73.7969 118.923 73.7969C119.325 73.7969 119.685 73.7087 120.004 73.5323C120.322 73.3559 120.574 73.1109 120.761 72.7974C120.947 72.4838 121.04 72.1285 121.04 71.7317V71.717H121.481V73.672H121.224C121.096 73.9513 120.908 74.2109 120.658 74.451C120.408 74.6911 120.099 74.8847 119.732 75.0317C119.369 75.1786 118.943 75.2521 118.453 75.2521C117.777 75.2521 117.179 75.1003 116.66 74.7965C116.14 74.4927 115.731 74.0762 115.432 73.547C115.138 73.0179 114.991 72.4201 114.991 71.7537V71.739C114.991 71.0187 115.158 70.3793 115.491 69.8208C115.829 69.2573 116.295 68.8163 116.887 68.4978C117.485 68.1744 118.164 68.0127 118.923 68.0127ZM126.501 77.457C126.168 77.457 125.888 77.3468 125.663 77.1263C125.442 76.9009 125.332 76.6265 125.332 76.3031C125.332 75.9749 125.442 75.7005 125.663 75.48C125.888 75.2546 126.168 75.1419 126.501 75.1419C126.839 75.1419 127.118 75.2546 127.339 75.48C127.559 75.7005 127.669 75.9749 127.669 76.3031C127.669 76.6265 127.559 76.9009 127.339 77.1263C127.118 77.3468 126.839 77.457 126.501 77.457ZM126.501 72.0036C126.168 72.0036 125.888 71.8934 125.663 71.6729C125.442 71.4475 125.332 71.1731 125.332 70.8497C125.332 70.5214 125.442 70.247 125.663 70.0265C125.888 69.8012 126.168 69.6885 126.501 69.6885C126.839 69.6885 127.118 69.8012 127.339 70.0265C127.559 70.247 127.669 70.5214 127.669 70.8497C127.669 71.1731 127.559 71.4475 127.339 71.6729C127.118 71.8934 126.839 72.0036 126.501 72.0036ZM134.982 78.8829V76.847H129.793V75.2962C130.073 74.821 130.352 74.3432 130.631 73.8631C130.915 73.3829 131.202 72.9052 131.491 72.4299C131.785 71.9497 132.077 71.4769 132.366 71.0114C132.66 70.541 132.951 70.078 133.24 69.6223C133.534 69.1617 133.828 68.7134 134.122 68.2773H136.79V75.2815H138.223V76.847H136.79V78.8829H134.982ZM131.557 75.3256H135.012V69.7914H134.901C134.686 70.1245 134.463 70.4675 134.233 70.8203C134.007 71.1731 133.779 71.5332 133.549 71.9007C133.319 72.2682 133.091 72.6381 132.866 73.0105C132.64 73.378 132.417 73.7479 132.197 74.1203C131.976 74.4878 131.763 74.8528 131.557 75.2154V75.3256ZM142.611 78.8829V70.1441H142.479L139.84 72.0036V70.225L142.611 68.2773H144.5V78.8829H142.611Z" fill="black"/>
<rect opacity="0.35" x="301.621" y="68.4525" width="21.25" height="10.625" rx="3.36458" stroke="black" stroke-width="0.885417"/>
<path opacity="0.4" d="M324.199 72.2422V75.8507C324.911 75.5451 325.375 74.8342 325.375 74.0465C325.375 73.2588 324.911 72.5479 324.199 72.2422Z" fill="black"/>
<rect x="302.949" y="69.7813" width="18.5938" height="7.96875" rx="2.21354" fill="black"/>
<path fill-rule="evenodd" clip-rule="evenodd" d="M287.251 70.758C289.453 70.7581 291.571 71.5745 293.167 73.0385C293.287 73.1515 293.479 73.1501 293.598 73.0353L294.747 71.9166C294.806 71.8584 294.84 71.7795 294.839 71.6975C294.839 71.6154 294.805 71.5369 294.744 71.4794C290.555 67.6059 283.946 67.6059 279.758 71.4794C279.697 71.5369 279.662 71.6153 279.662 71.6974C279.661 71.7795 279.695 71.8583 279.755 71.9166L280.904 73.0353C281.022 73.1503 281.214 73.1517 281.334 73.0385C282.931 71.5744 285.049 70.758 287.251 70.758ZM287.248 74.4947C288.45 74.4946 289.609 74.9477 290.5 75.7659C290.62 75.8821 290.81 75.8795 290.927 75.7603L292.067 74.5921C292.127 74.5309 292.16 74.4477 292.16 74.3614C292.159 74.275 292.124 74.1926 292.063 74.1325C289.35 71.5729 285.149 71.5729 282.436 74.1325C282.375 74.1926 282.34 74.275 282.339 74.3614C282.338 74.4478 282.371 74.5309 282.432 74.5921L283.571 75.7603C283.689 75.8795 283.878 75.8821 283.999 75.7659C284.889 74.9482 286.047 74.4952 287.248 74.4947ZM289.483 76.9681C289.485 77.0614 289.452 77.1513 289.393 77.2167L287.465 79.3901C287.409 79.454 287.332 79.49 287.251 79.49C287.171 79.49 287.094 79.454 287.038 79.3901L285.11 77.2167C285.05 77.1513 285.018 77.0613 285.019 76.968C285.021 76.8748 285.057 76.7864 285.119 76.7239C286.35 75.5606 288.153 75.5606 289.384 76.7239C289.445 76.7865 289.482 76.8748 289.483 76.9681Z" fill="black"/>
<path fill-rule="evenodd" clip-rule="evenodd" d="M273.022 69.4993C273.022 68.9388 272.599 68.4844 272.078 68.4844H271.133C270.611 68.4844 270.189 68.9388 270.189 69.4993V78.295C270.189 78.8555 270.611 79.3099 271.133 79.3099H272.078C272.599 79.3099 273.022 78.8555 273.022 78.295V69.4993ZM266.44 70.6495H267.384C267.906 70.6495 268.329 71.1148 268.329 71.6888V78.2707C268.329 78.8446 267.906 79.3099 267.384 79.3099H266.44C265.918 79.3099 265.495 78.8446 265.495 78.2707V71.6888C265.495 71.1148 265.918 70.6495 266.44 70.6495ZM262.604 72.995H261.66C261.138 72.995 260.715 73.4662 260.715 74.0475V78.2574C260.715 78.8387 261.138 79.3099 261.66 79.3099H262.604C263.126 79.3099 263.549 78.8387 263.549 78.2574V74.0475C263.549 73.4662 263.126 72.995 262.604 72.995ZM257.911 75.1601H256.966C256.445 75.1601 256.022 75.6246 256.022 76.1976V78.2725C256.022 78.8454 256.445 79.3099 256.966 79.3099H257.911C258.432 79.3099 258.855 78.8454 258.855 78.2725V76.1976C258.855 75.6246 258.432 75.1601 257.911 75.1601Z" fill="black"/>
</g>
<path d="M326.238 345.018H96V377.395H326.238V345.018Z" fill="#F3FFF4"/>
<path d="M112.135 388.932V395.846H111.134V392.294H109.332V391.482H111.134V388.932H112.135ZM112.388 397.353V398.164H106.001V395.224H107.003V397.353H112.388ZM107.646 390.839C107.646 392.02 108.499 393.2 109.922 393.675L109.406 394.476C108.347 394.101 107.561 393.343 107.15 392.41C106.739 393.448 105.912 394.286 104.789 394.686L104.273 393.875C105.727 393.379 106.623 392.136 106.623 390.839V390.471H104.579V389.648H109.669V390.471H107.646V390.839ZM116.878 391.704C116.878 393.2 117.858 394.865 119.292 395.54L118.723 396.32C117.663 395.809 116.826 394.744 116.404 393.506C115.967 394.86 115.081 396.025 114.001 396.562L113.411 395.772C114.844 395.087 115.888 393.306 115.888 391.704V390.702H113.759V389.87H118.933V390.702H116.878V391.704ZM120.946 388.921V392.663H122.464V393.506H120.946V398.365H119.945V388.921H120.946ZM125.795 391.503C125.795 393.011 126.427 394.623 127.692 395.392L127.133 396.162C126.248 395.63 125.647 394.686 125.331 393.59C124.978 394.792 124.33 395.814 123.413 396.373L122.791 395.624C124.129 394.823 124.825 393.158 124.825 391.546V389.785H125.795V391.503ZM131.043 388.921V398.365H130.084V388.921H131.043ZM129.083 389.1V397.901H128.134V393.074H126.669V392.241H128.134V389.1H129.083ZM139.791 389.396V390.112C139.791 390.855 139.791 391.698 139.549 392.842H140.887V393.664H132.245V392.842H138.537C138.79 391.741 138.8 390.934 138.8 390.218H133.33V389.396H139.791ZM139.802 394.865V398.249H133.299V394.865H139.802ZM134.279 395.656V397.437H138.811V395.656H134.279ZM149.688 388.921V398.365H148.739V388.921H149.688ZM147.759 389.164V397.901H146.81V394.686H145.198V393.864H146.81V392.325H145.356C144.897 393.912 143.891 395.287 142.11 396.352L141.52 395.635C143.522 394.444 144.486 392.858 144.66 390.913H141.983V390.091H145.651C145.651 390.576 145.614 391.045 145.535 391.503H146.81V389.164H147.759ZM154.177 390.65C154.177 391.914 155.063 393.105 156.496 393.59L155.98 394.381C154.92 394.007 154.135 393.253 153.714 392.304C153.303 393.364 152.491 394.191 151.384 394.602L150.826 393.812C152.322 393.295 153.187 392.03 153.187 390.618V389.501H154.177V390.65ZM158.319 388.911V391.756H159.69V392.61H158.319V395.877H157.318V388.911H158.319ZM158.731 397.353V398.164H152.344V395.203H153.366V397.353H158.731ZM163.631 391.324C163.631 393.053 164.601 394.771 166.045 395.424L165.434 396.225C164.359 395.688 163.552 394.618 163.136 393.327C162.72 394.686 161.892 395.835 160.807 396.404L160.174 395.593C161.639 394.897 162.62 393.074 162.62 391.324V389.712H163.631V391.324ZM168.1 388.921V398.386H167.109V392.874H165.001V392.062H167.109V388.921H168.1Z" fill="black"/>
<path d="M107.477 413.773H109.59V414.577H104.276V413.773H106.482V412.658H107.477V413.773ZM112.136 419.873H111.137V417.92H109.616V417.119H111.137V415.949H109.616V415.129H111.137V412.669H112.136V419.873ZM109.154 416.854C109.147 417.931 108.245 418.673 106.971 418.673C105.696 418.673 104.798 417.931 104.805 416.854C104.798 415.77 105.696 415.032 106.971 415.032C108.245 415.032 109.147 415.77 109.154 416.854ZM105.741 416.854C105.733 417.492 106.236 417.894 106.971 417.894C107.694 417.894 108.204 417.492 108.212 416.854C108.204 416.228 107.694 415.826 106.971 415.818C106.236 415.826 105.733 416.228 105.741 416.854ZM106.978 419.24V421.092H112.348V421.912H105.968V419.24H106.978ZM120.893 416.59H122.235V417.406H113.592V416.59H119.887C120.133 415.483 120.144 414.674 120.144 413.955H114.673V413.143H121.139V413.858C121.139 414.596 121.139 415.442 120.893 416.59ZM121.15 421.986H114.643V418.606H121.15V421.986ZM120.159 419.392H115.623V421.174H120.159V419.392ZM125.529 417.734C124.109 417.738 123.05 416.799 123.058 415.476C123.05 414.145 124.109 413.206 125.529 413.214C126.311 413.21 126.982 413.5 127.425 413.989H129.792V412.662H130.791V418.237H129.792V416.963H127.422C126.978 417.447 126.307 417.738 125.529 417.734ZM124.008 415.476C124.008 416.303 124.642 416.888 125.529 416.881C126.393 416.888 127.03 416.303 127.03 415.476C127.03 414.63 126.393 414.067 125.529 414.074C124.642 414.067 124.008 414.63 124.008 415.476ZM129.792 416.146V414.797H127.888C127.951 415.01 127.988 415.237 127.988 415.476C127.988 415.714 127.951 415.938 127.888 416.146H129.792ZM127.627 418.446C129.594 418.446 130.817 419.117 130.82 420.268C130.817 421.42 129.594 422.09 127.627 422.09C125.652 422.09 124.429 421.42 124.437 420.268C124.429 419.117 125.652 418.446 127.627 418.446ZM127.627 421.3C129.017 421.3 129.844 420.924 129.844 420.268C129.844 419.601 129.017 419.221 127.627 419.221C126.244 419.221 125.409 419.601 125.417 420.268C125.409 420.924 126.244 421.3 127.627 421.3ZM136.559 414.831C135.944 415.949 134.591 416.746 133.056 416.992L132.654 416.176C134.506 415.927 136.034 414.764 136.034 413.493V412.979H137.077V413.493C137.077 414.749 138.609 415.927 140.468 416.176L140.07 416.992C138.527 416.746 137.174 415.941 136.559 414.831ZM132.247 417.92H140.856V418.748H137.021V422.105H136.037V418.748H132.247V417.92ZM142.372 416.612L142.026 415.826C143.736 415.64 145.085 414.876 145.205 413.951H142.361V413.128H149.408V413.951H146.55C146.662 414.868 148 415.64 149.744 415.826L149.382 416.612C147.742 416.426 146.39 415.74 145.872 414.734C145.357 415.736 144.012 416.426 142.372 416.612ZM141.575 417.924V417.108H150.183V417.924H141.575ZM145.868 418.651C147.903 418.651 149.125 419.281 149.132 420.376C149.125 421.476 147.903 422.09 145.868 422.09C143.822 422.09 142.592 421.476 142.592 420.376C142.592 419.281 143.822 418.651 145.868 418.651ZM145.868 421.3C147.295 421.3 148.126 420.976 148.134 420.376C148.126 419.769 147.295 419.441 145.868 419.433C144.426 419.441 143.602 419.769 143.609 420.376C143.602 420.976 144.426 421.3 145.868 421.3Z" fill="black"/>
<path d="M99.5843 290.784C98.3165 290.784 97.2887 289.757 97.2887 288.489C97.2887 287.221 98.3165 286.193 99.5843 286.193C100.852 286.193 101.88 287.221 101.88 288.489C101.88 289.757 100.852 290.784 99.5843 290.784ZM116.742 294.108V280.668H118.542V294.108H116.742ZM112.448 283.652H114.024V280.877H115.798V293.487H114.024V289.329H112.454C111.953 290.633 111.071 291.374 109.939 291.369C108.17 291.374 107.017 289.511 107.022 286.485C107.017 283.485 108.17 281.633 109.939 281.633C111.066 281.633 111.947 282.364 112.448 283.652ZM109.939 289.564C110.721 289.569 111.191 288.557 111.196 286.485C111.191 284.435 110.716 283.407 109.939 283.412C109.156 283.407 108.723 284.435 108.728 286.485C108.723 288.557 109.156 289.569 109.939 289.564ZM112.824 287.8H114.024V285.16H112.819C112.876 285.572 112.907 286.016 112.907 286.485C112.907 286.95 112.876 287.393 112.824 287.8ZM130.62 280.668V283.814H132.425V285.374H130.62V288.64H128.731V280.668H130.62ZM123.931 285.536C123.352 286.887 122.308 287.951 120.775 288.473L119.762 286.997C122.001 286.245 122.961 284.456 122.971 282.604V281.388H124.855V282.786C124.855 284.414 125.804 285.979 127.928 286.631L126.931 288.097C125.501 287.628 124.51 286.71 123.931 285.536ZM126.211 288.917C128.997 288.911 130.745 289.877 130.745 291.499C130.745 293.153 128.997 294.108 126.211 294.103C123.383 294.108 121.609 293.153 121.615 291.499C121.609 289.877 123.383 288.911 126.211 288.917ZM126.211 292.631C127.959 292.626 128.888 292.266 128.888 291.499C128.888 290.774 127.959 290.383 126.211 290.383C124.453 290.383 123.493 290.774 123.498 291.499C123.493 292.266 124.453 292.626 126.211 292.631ZM141.951 281.195H143.835V287.122H134.449V281.195H136.306V282.739H141.951V281.195ZM136.306 285.619H141.951V284.216H136.306V285.619ZM133.009 288.421H145.29V289.897H140.042V294.108H138.179V289.897H133.009V288.421ZM156.674 285.817H158.573V287.372H156.674V294.077H154.79V280.668H156.674V285.817ZM146.693 282.045H153.09C153.079 286.063 151.509 289.537 146.996 291.755L145.937 290.315C149.109 288.718 150.815 286.579 151.17 283.584H146.693V282.045ZM168.976 294.108V280.668H170.776V294.108H168.976ZM164.468 285.207H166.205V280.877H167.969V293.487H166.205V286.741H164.468V285.207ZM163.44 281.826V284.054C163.44 286.23 164.045 288.473 165.887 289.652L164.859 291.103C163.701 290.404 162.965 289.25 162.538 287.878C162.063 289.397 161.254 290.67 160.039 291.41L158.891 290.012C160.879 288.781 161.614 286.417 161.614 284.143V281.826H163.44ZM185.543 294.108V280.668H187.316V294.108H185.543ZM181.39 284.216H182.736V280.976H184.515V293.508H182.736V289.084H180.831V287.56H182.736V285.744H181.077C180.45 287.957 179.084 289.824 176.579 291.306L175.478 289.986C178.191 288.374 179.391 286.417 179.652 283.783H176.256V282.27H181.515C181.515 282.943 181.473 283.59 181.39 284.216ZM199.394 280.678V284.565H201.199V286.146H199.394V290.518H197.505V280.678H199.394ZM192.784 285.864C192.184 287.211 191.114 288.264 189.565 288.791L188.516 287.304C190.806 286.59 191.792 284.79 191.798 282.964V281.498H193.691V282.979C193.686 284.696 194.657 286.365 196.838 287.059L195.846 288.541C194.38 288.05 193.368 287.085 192.784 285.864ZM190.676 289.548H192.596V292.355H199.884V293.873H190.676V289.548Z" fill="black"/>
<path d="M96 318.758H325.879" stroke="#12997A" stroke-width="1.43899"/>
<path d="M211.119 505V318.758" stroke="#12997A" stroke-width="0.854254"/>
<path d="M96 345.018H325.879" stroke="#12997A" stroke-width="0.719495"/>
<path d="M251.856 287.45H251.223L251.275 286.035L250.08 286.797L249.77 286.242L251.029 285.59L249.77 284.937L250.08 284.382L251.275 285.144L251.223 283.729H251.856L251.805 285.144L253 284.382L253.31 284.937L252.05 285.59L253.31 286.242L253 286.797L251.805 286.035L251.856 287.45ZM262.682 286.184V282.967H263.374V291.087H262.682V286.785H261.546V290.673H260.861V283.141H261.546V286.184H262.682ZM259.827 288.897H256.714V283.916H259.827V288.897ZM259.149 284.491H257.392V288.322H259.149V284.491ZM265.114 286.21L264.901 285.661C266.393 285.564 267.662 285.053 267.795 284.239H265.263V283.677H267.846V282.922H268.551V283.677H271.147V284.239H268.599C268.728 285.053 269.998 285.564 271.496 285.661L271.277 286.21C269.92 286.097 268.696 285.67 268.199 284.898C267.701 285.67 266.477 286.097 265.114 286.21ZM271.897 286.584V287.133H268.551V287.896H270.947V289.653H266.122V290.441H271.193V290.996H265.418V289.142H270.243V288.432H265.398V287.896H267.84V287.133H264.507V286.584H271.897ZM278.85 286.184V282.967H279.541V291.087H278.85V286.785H277.713V290.673H277.028V283.141H277.713V286.184H278.85ZM275.995 288.897H272.881V283.916H275.995V288.897ZM275.317 284.491H273.56V288.322H275.317V284.491ZM286.656 282.967H287.373V287.321H286.656V282.967ZM282.987 283.361C284.221 283.355 285.112 284.117 285.112 285.228C285.112 286.332 284.221 287.095 282.987 287.088C281.753 287.095 280.855 286.332 280.855 285.228C280.855 284.117 281.753 283.355 282.987 283.361ZM282.987 283.968C282.154 283.962 281.553 284.485 281.559 285.228C281.553 285.971 282.154 286.494 282.987 286.494C283.814 286.494 284.415 285.971 284.415 285.228C284.415 284.485 283.814 283.962 282.987 283.968ZM282.115 287.734H282.819V288.722H286.662V287.734H287.373V290.977H282.115V287.734ZM282.819 289.297V290.389H286.662V289.297H282.819ZM292.901 283.729H293.728V290.344H292.901V284.588H292.863L291.254 285.654V284.827L292.901 283.729ZM297.655 290.434C296.189 290.434 295.343 289.2 295.343 287.036C295.343 284.892 296.202 283.639 297.655 283.639C299.109 283.639 299.968 284.892 299.968 287.036C299.968 289.2 299.121 290.434 297.655 290.434ZM297.655 289.704C298.611 289.704 299.167 288.748 299.167 287.036C299.167 285.325 298.605 284.356 297.655 284.356C296.706 284.356 296.144 285.325 296.144 287.036C296.144 288.748 296.699 289.704 297.655 289.704ZM301.134 285.318V284.969C301.134 284.246 301.606 283.632 302.433 283.632C303.279 283.632 303.718 284.246 303.718 284.969V285.318C303.718 286.042 303.266 286.655 302.433 286.655C301.586 286.655 301.134 286.042 301.134 285.318ZM302.129 290.344H301.393L305.94 283.729H306.676L302.129 290.344ZM301.806 284.969V285.318C301.806 285.712 301.974 286.087 302.433 286.087C302.885 286.087 303.046 285.712 303.046 285.318V284.969C303.046 284.575 302.898 284.201 302.433 284.201C301.987 284.201 301.806 284.575 301.806 284.969ZM304.435 289.104V288.755C304.435 288.031 304.9 287.418 305.733 287.418C306.573 287.418 307.019 288.031 307.019 288.755V289.104C307.019 289.827 306.56 290.441 305.733 290.441C304.887 290.441 304.435 289.827 304.435 289.104ZM305.107 288.755V289.104C305.107 289.498 305.268 289.872 305.733 289.872C306.179 289.872 306.347 289.498 306.347 289.104V288.755C306.347 288.361 306.192 287.986 305.733 287.986C305.281 287.986 305.107 288.361 305.107 288.755ZM316.385 291.087V282.967H317.102V291.087H316.385ZM310.869 283.852H314.699C314.693 286.184 313.608 288.251 310.882 289.562L310.494 288.974C312.69 287.934 313.811 286.371 313.969 284.433H310.869V283.852ZM319.198 286.552L318.927 285.984C320.361 285.79 321.711 284.976 321.711 283.981V283.962H319.153V283.374H325.212V283.962H322.641V283.981C322.634 284.976 323.997 285.79 325.431 285.984L325.154 286.552C323.839 286.361 322.615 285.709 322.176 284.759C321.733 285.709 320.513 286.361 319.198 286.552ZM318.462 287.741V287.146H325.897V287.741H322.589V289.401H321.879V287.741H318.462ZM319.418 288.593H320.135V290.311H325.07V290.906H319.418V288.593Z" fill="#8A8A8B"/>
<path d="M306.384 397.633C304.472 397.629 303.313 396.168 303.321 393.66C303.325 391.16 304.48 389.732 306.384 389.732C308.289 389.732 309.451 391.167 309.448 393.66C309.448 396.176 308.292 397.633 306.384 397.633ZM306.384 396.313C307.267 396.313 307.834 395.427 307.834 393.66C307.83 391.916 307.264 391.037 306.384 391.037C305.505 391.037 304.938 391.916 304.935 393.66C304.931 395.427 305.501 396.313 306.384 396.313ZM315.175 395.337V394.42H317.008V388.856H318.357V396.105H317.008V395.337H315.175ZM313.315 392.594C311.892 392.594 310.904 391.931 310.904 390.902C310.904 389.881 311.892 389.177 313.315 389.181C314.713 389.177 315.708 389.881 315.711 390.902C315.708 391.931 314.713 392.594 313.315 392.594ZM313.315 390.164C312.633 390.164 312.175 390.425 312.178 390.902C312.175 391.368 312.633 391.622 313.315 391.622C313.964 391.622 314.429 391.368 314.433 390.902C314.429 390.425 313.964 390.164 313.315 390.164ZM312.764 395.874V397.189H318.57V398.274H311.418V395.408H312.764V394.13C311.903 394.163 311.083 394.171 310.352 394.171L310.192 393.109C311.955 393.094 314.325 393.071 316.352 392.814L316.431 393.779C315.674 393.906 314.888 393.992 314.113 394.051V395.874H312.764Z" fill="black"/>
<path d="M261.046 413.94H262.54V421.572H260.953V415.449H260.908L259.156 416.549V415.14L261.046 413.94ZM264.102 420.79H265.604L264.695 423.79H263.581L264.102 420.79ZM269.657 421.736C267.745 421.733 266.586 420.272 266.593 417.764C266.597 415.263 267.752 413.836 269.657 413.836C271.561 413.836 272.724 415.27 272.72 417.764C272.72 420.279 271.565 421.736 269.657 421.736ZM269.657 420.417C270.54 420.417 271.106 419.53 271.106 417.764C271.103 416.02 270.536 415.14 269.657 415.14C268.777 415.14 268.211 416.02 268.207 417.764C268.203 419.53 268.774 420.417 269.657 420.417ZM278.913 418.949H279.875V420.219H278.913V421.572H277.4V420.219H273.692V418.971L276.923 413.94H278.913V418.949ZM277.352 415.677L275.291 418.889V418.949H277.422V415.677H277.352ZM283.781 421.677C282.037 421.677 280.789 420.76 280.789 419.519C280.789 418.557 281.527 417.779 282.466 417.633V417.581C281.646 417.421 281.076 416.728 281.076 415.889C281.076 414.704 282.22 413.836 283.781 413.836C285.335 413.836 286.479 414.704 286.483 415.889C286.479 416.731 285.902 417.421 285.093 417.581V417.633C286.025 417.779 286.77 418.557 286.774 419.519C286.77 420.76 285.518 421.677 283.781 421.677ZM283.781 417.089C284.452 417.089 284.937 416.661 284.937 416.053C284.937 415.453 284.46 415.036 283.781 415.036C283.096 415.036 282.626 415.453 282.626 416.053C282.626 416.661 283.107 417.089 283.781 417.089ZM283.781 420.503C284.586 420.503 285.123 420.048 285.123 419.396C285.123 418.733 284.557 418.248 283.781 418.248C283.006 418.248 282.436 418.733 282.443 419.396C282.436 420.044 282.973 420.503 283.781 420.503ZM287.827 420.79H289.329L288.419 423.79H287.305L287.827 420.79ZM293.374 421.677C291.794 421.669 290.288 420.73 290.292 417.931C290.299 415.36 291.525 413.836 293.433 413.836C294.969 413.836 296.02 414.805 296.176 416.061H294.615C294.488 415.528 294.048 415.196 293.433 415.196C292.397 415.196 291.849 416.128 291.846 417.626H291.913C292.267 416.951 293.02 416.552 293.869 416.552C295.241 416.552 296.262 417.585 296.258 419.016C296.262 420.57 295.092 421.684 293.374 421.677ZM293.366 420.428C294.145 420.428 294.723 419.832 294.719 419.06C294.723 418.3 294.156 417.708 293.377 417.708C292.599 417.708 292.013 418.319 292.006 419.068C292.01 419.813 292.58 420.428 293.366 420.428ZM302.448 418.949H303.409V420.219H302.448V421.572H300.935V420.219H297.227V418.971L300.458 413.94H302.448V418.949ZM300.886 415.677L298.825 418.889V418.949H300.957V415.677H300.886ZM307.409 421.736C305.497 421.733 304.338 420.272 304.346 417.764C304.35 415.263 305.505 413.836 307.409 413.836C309.314 413.836 310.476 415.27 310.472 417.764C310.472 420.279 309.317 421.736 307.409 421.736ZM307.409 420.417C308.292 420.417 308.859 419.53 308.859 417.764C308.855 416.02 308.289 415.14 307.409 415.14C306.53 415.14 305.963 416.02 305.96 417.764C305.956 419.53 306.526 420.417 307.409 420.417ZM316.2 419.441V418.524H318.033V412.96H319.382V420.208H318.033V419.441H316.2ZM314.34 416.698C312.916 416.698 311.929 416.034 311.929 415.006C311.929 413.985 312.916 413.28 314.34 413.284C315.738 413.28 316.733 413.985 316.736 415.006C316.733 416.034 315.738 416.698 314.34 416.698ZM314.34 414.268C313.658 414.268 313.2 414.529 313.203 415.006C313.2 415.472 313.658 415.725 314.34 415.725C314.989 415.725 315.454 415.472 315.458 415.006C315.454 414.529 314.989 414.268 314.34 414.268ZM313.789 419.977V421.293H319.595V422.377H312.443V419.511H313.789V418.233C312.928 418.267 312.108 418.274 311.377 418.274L311.217 417.212C312.98 417.197 315.35 417.175 317.377 416.918L317.456 417.883C316.699 418.01 315.913 418.095 315.138 418.155V419.977H313.789Z" fill="black"/>
<path d="M96 377.396H325.879" stroke="#C1C1C1" stroke-width="0.359748"/>
<path d="M251.026 366.13C249.05 366.13 247.635 365.091 247.635 363.685C247.635 362.595 248.471 361.712 249.535 361.547V361.488C248.606 361.307 247.96 360.521 247.96 359.571C247.96 358.228 249.256 357.244 251.026 357.244C252.787 357.244 254.084 358.228 254.088 359.571C254.084 360.525 253.429 361.307 252.513 361.488V361.547C253.569 361.712 254.413 362.595 254.418 363.685C254.413 365.091 252.994 366.13 251.026 366.13ZM251.026 360.931C251.786 360.931 252.335 360.445 252.335 359.757C252.335 359.077 251.795 358.604 251.026 358.604C250.249 358.604 249.717 359.077 249.717 359.757C249.717 360.445 250.262 360.931 251.026 360.931ZM251.026 364.8C251.938 364.8 252.547 364.284 252.547 363.545C252.547 362.793 251.905 362.244 251.026 362.244C250.148 362.244 249.501 362.793 249.51 363.545C249.501 364.28 250.11 364.8 251.026 364.8ZM255.611 365.125H257.313L256.282 368.525H255.02L255.611 365.125ZM261.825 366.13C259.921 366.13 258.561 365.087 258.531 363.579H260.343C260.373 364.217 260.998 364.643 261.83 364.643C262.691 364.643 263.308 364.166 263.304 363.469C263.308 362.764 262.683 362.265 261.665 362.265H260.863V360.935H261.665C262.522 360.935 263.118 360.47 263.114 359.786C263.118 359.127 262.607 358.675 261.842 358.675C261.078 358.675 260.453 359.102 260.427 359.765H258.704C258.734 358.278 260.077 357.244 261.851 357.244C263.65 357.244 264.854 358.312 264.845 359.676C264.854 360.648 264.178 361.336 263.202 361.509V361.577C264.478 361.733 265.179 362.506 265.171 363.587C265.179 365.066 263.773 366.13 261.825 366.13ZM269.591 357.244C271.377 357.252 273.071 358.316 273.08 361.459C273.084 364.403 271.686 366.13 269.519 366.13C267.775 366.13 266.584 365.04 266.406 363.579H268.176C268.324 364.212 268.818 364.588 269.519 364.588C270.689 364.588 271.314 363.532 271.323 361.809H271.242C270.841 362.57 269.988 363.026 269.029 363.026C267.475 363.026 266.322 361.856 266.318 360.242C266.313 358.502 267.631 357.235 269.591 357.244ZM269.599 358.659C268.712 358.659 268.058 359.334 268.066 360.192C268.07 361.049 268.7 361.712 269.587 361.712C270.461 361.712 271.137 361.015 271.132 360.183C271.128 359.36 270.482 358.659 269.599 358.659ZM277.641 366.13C275.85 366.122 274.143 365.057 274.148 361.885C274.156 358.971 275.546 357.244 277.708 357.244C279.448 357.244 280.639 358.342 280.817 359.765H279.047C278.903 359.161 278.405 358.785 277.708 358.785C276.534 358.785 275.913 359.841 275.909 361.539H275.985C276.386 360.775 277.239 360.323 278.202 360.323C279.757 360.323 280.914 361.493 280.91 363.114C280.914 364.876 279.588 366.138 277.641 366.13ZM277.632 364.715C278.515 364.715 279.17 364.039 279.165 363.165C279.17 362.303 278.528 361.632 277.645 361.632C276.762 361.632 276.099 362.325 276.091 363.173C276.095 364.018 276.741 364.715 277.632 364.715ZM282.021 365.125H283.723L282.692 368.525H281.429L282.021 365.125ZM287.186 366.012H285.327L288.972 358.895V358.836H284.732V357.362H290.835V358.861L287.186 366.012ZM297.11 363.038H298.2V364.479H297.11V366.012H295.395V364.479H291.193V363.064L294.855 357.362H297.11V363.038ZM295.34 359.33L293.005 362.971V363.038H295.421V359.33H295.34ZM302.725 366.13C300.934 366.122 299.227 365.057 299.232 361.885C299.24 358.971 300.63 357.244 302.792 357.244C304.532 357.244 305.723 358.342 305.901 359.765H304.131C303.987 359.161 303.489 358.785 302.792 358.785C301.618 358.785 300.997 359.841 300.993 361.539H301.069C301.47 360.775 302.323 360.323 303.286 360.323C304.841 360.323 305.998 361.493 305.994 363.114C305.998 364.876 304.672 366.138 302.725 366.13ZM302.716 364.715C303.599 364.715 304.253 364.039 304.249 363.165C304.253 362.303 303.612 361.632 302.729 361.632C301.846 361.632 301.183 362.325 301.175 363.173C301.179 364.018 301.825 364.715 302.716 364.715ZM312.481 363.596V362.557H314.559V356.251H316.087V364.466H314.559V363.596H312.481ZM310.373 360.487C308.76 360.487 307.64 359.736 307.64 358.57C307.64 357.413 308.76 356.614 310.373 356.619C311.957 356.614 313.085 357.413 313.089 358.57C313.085 359.736 311.957 360.487 310.373 360.487ZM310.373 357.734C309.6 357.734 309.081 358.029 309.085 358.57C309.081 359.098 309.6 359.385 310.373 359.385C311.108 359.385 311.636 359.098 311.64 358.57C311.636 358.029 311.108 357.734 310.373 357.734ZM309.748 364.204V365.695H316.328V366.924H308.223V363.676H309.748V362.227C308.772 362.265 307.843 362.274 307.015 362.274L306.834 361.07C308.831 361.053 311.518 361.028 313.815 360.736L313.904 361.83C313.047 361.974 312.155 362.071 311.277 362.139V364.204H309.748Z" fill="black"/>
<path d="M100.215 126.156C97.9826 126.156 96.6656 124.338 96.6703 121.171C96.6703 118.022 97.9967 116.2 100.215 116.2C102.439 116.2 103.765 118.027 103.765 121.171C103.765 124.338 102.453 126.156 100.215 126.156ZM100.215 124.891C101.523 124.891 102.302 123.583 102.302 121.171C102.302 118.764 101.513 117.451 100.215 117.451C98.922 117.451 98.1336 118.764 98.1336 121.171C98.1289 123.583 98.9125 124.891 100.215 124.891ZM107.524 116.333H108.959V126H107.487V117.805H107.43L105.122 119.311V117.909L107.524 116.333ZM117.353 121.619V120.822H119.685V115.181H120.959V122.195H119.685V121.619H117.353ZM114.865 118.976C113.053 118.976 111.868 118.306 111.868 117.187C111.868 116.092 113.053 115.388 114.865 115.388C116.645 115.388 117.839 116.092 117.849 117.187C117.839 118.306 116.645 118.976 114.865 118.976ZM114.865 116.243C113.761 116.243 113.057 116.616 113.067 117.187C113.057 117.758 113.761 118.126 114.865 118.126C115.951 118.126 116.654 117.758 116.654 117.187C116.654 116.616 115.951 116.243 114.865 116.243ZM115.422 122.224H114.171V120.477C113.095 120.51 112.057 120.51 111.122 120.505L110.976 119.594C113.293 119.599 116.22 119.575 118.797 119.306L118.873 120.118C117.74 120.274 116.569 120.369 115.422 120.43V122.224ZM114.063 125.179V126.099H121.318V127.02H112.817V124.329H119.699V123.484H112.769V122.597H120.959V125.179H114.063ZM131.117 115.658H132.382V120.85H124.169V115.658H125.424V117.215H131.117V115.658ZM125.424 119.83H131.117V118.23H125.424V119.83ZM122.804 122.205H133.751V123.215H128.87V127.133H127.624V123.215H122.804V122.205ZM143.357 119.594V115.171H144.612V127.157H143.357V120.628H140.973V119.594H143.357ZM136.46 120.605V123.281C138.462 123.276 139.849 123.215 141.44 122.941L141.577 123.975C139.835 124.253 138.334 124.324 136.111 124.329H135.186V116.233H140.775V117.272H136.46V119.594H140.274V120.605H136.46ZM153.562 126.156C151.329 126.156 150.012 124.338 150.017 121.171C150.017 118.022 151.343 116.2 153.562 116.2C155.785 116.2 157.112 118.027 157.112 121.171C157.112 124.338 155.799 126.156 153.562 126.156ZM153.562 124.891C154.87 124.891 155.648 123.583 155.648 121.171C155.648 118.764 154.86 117.451 153.562 117.451C152.269 117.451 151.48 118.764 151.48 121.171C151.476 123.583 152.259 124.891 153.562 124.891ZM161.928 126.132C160.092 126.132 158.718 125.018 158.657 123.475H160.087C160.158 124.301 160.947 124.9 161.928 124.9C163.099 124.9 163.939 124.055 163.939 122.903C163.939 121.728 163.071 120.874 161.862 120.864C161.079 120.859 160.489 121.119 160.153 121.714H158.77L159.403 116.333H164.879V117.593H160.621L160.29 120.293H160.385C160.791 119.915 161.466 119.651 162.202 119.651C164.024 119.651 165.37 120.996 165.365 122.87C165.37 124.768 163.935 126.132 161.928 126.132ZM172.862 121.619V120.822H175.194V115.181H176.469V122.195H175.194V121.619H172.862ZM170.375 118.976C168.562 118.976 167.377 118.306 167.377 117.187C167.377 116.092 168.562 115.388 170.375 115.388C172.154 115.388 173.348 116.092 173.358 117.187C173.348 118.306 172.154 118.976 170.375 118.976ZM170.375 116.243C169.27 116.243 168.567 116.616 168.576 117.187C168.567 117.758 169.27 118.126 170.375 118.126C171.46 118.126 172.164 117.758 172.164 117.187C172.164 116.616 171.46 116.243 170.375 116.243ZM170.932 122.224H169.681V120.477C168.604 120.51 167.566 120.51 166.631 120.505L166.485 119.594C168.803 119.599 171.729 119.575 174.307 119.306L174.382 120.118C173.249 120.274 172.079 120.369 170.932 120.43V122.224ZM169.572 125.179V126.099H176.827V127.02H168.326V124.329H175.208V123.484H168.279V122.597H176.469V125.179H169.572ZM187.835 120.029H189.577V121.081H187.835V127.133H186.57V115.171H187.835V120.029ZM181.939 116.451C181.93 119.443 181.392 122.167 179.23 124.48L178.215 123.767C179.966 121.95 180.603 119.892 180.731 117.498H178.649V116.451H181.939ZM182.326 116.451H185.239C185.229 119.481 184.852 122.667 182.657 125.268L181.637 124.565C183.421 122.493 183.941 120.048 184.04 117.498H182.326V116.451ZM198.781 127.133V115.171H200.056V127.133H198.781ZM194.547 117.423V118.702C194.547 120.699 195.859 122.766 197.7 123.55L197.006 124.551C195.595 123.928 194.481 122.606 193.924 121.02C193.367 122.719 192.243 124.173 190.855 124.848L190.114 123.847C191.918 123.007 193.253 120.756 193.263 118.702V117.423H190.534V116.375H197.275V117.423H194.547Z" fill="black"/>
<path d="M105.512 139.282V134.599H106.73V146.561H105.512V140.33H104.039V145.971H102.835V134.83H104.039V139.282H105.512ZM101.49 143.407H96.845V135.944H101.49V143.407ZM100.3 136.95H98.0392V142.402H100.3V136.95ZM109.165 139.376L108.801 138.423C111.095 138.295 112.71 137.592 112.965 136.577H109.354V135.609H113.078V134.552H114.324V135.609H118.068V136.577H114.433C114.683 137.592 116.297 138.295 118.61 138.423L118.228 139.376C116.146 139.225 114.447 138.621 113.701 137.573C112.955 138.621 111.256 139.225 109.165 139.376ZM119.149 139.848V140.797H114.329V141.798H117.78V144.498H110.822V145.484H118.124V146.447H109.58V143.62H116.533V142.723H109.557V141.798H113.073V140.797H108.273V139.848H119.149ZM129.141 139.282V134.599H130.359V146.561H129.141V140.33H127.668V145.971H126.465V134.83H127.668V139.282H129.141ZM125.119 143.407H120.474V135.944H125.119V143.407ZM123.93 136.95H121.669V142.402H123.93V136.95ZM140.541 134.599H141.81V141.019H140.541V134.599ZM135.315 135.151C137.147 135.142 138.492 136.28 138.492 137.932C138.492 139.56 137.147 140.698 135.315 140.693C133.479 140.698 132.129 139.56 132.129 137.932C132.129 136.28 133.479 135.142 135.315 135.151ZM135.315 136.218C134.177 136.209 133.361 136.903 133.37 137.932C133.361 138.956 134.177 139.645 135.315 139.65C136.438 139.645 137.25 138.956 137.25 137.932C137.25 136.903 136.438 136.209 135.315 136.218ZM133.979 141.599H135.221V142.94H140.55V141.599H141.81V146.41H133.979V141.599ZM135.221 143.941V145.376H140.55V143.941H135.221ZM155.707 146.561V134.599H156.982V146.561H155.707ZM147.734 135.888H153.427C153.418 139.386 151.931 142.421 147.824 144.38L147.154 143.355C150.335 141.845 151.883 139.688 152.134 136.898H147.734V135.888ZM159.927 139.919L159.459 138.918C161.692 138.635 163.396 137.488 163.462 136.19H159.851V135.17H168.777V136.19H165.147C165.204 137.488 166.927 138.635 169.16 138.918L168.678 139.919C166.63 139.645 164.944 138.692 164.298 137.346C163.651 138.692 161.975 139.645 159.927 139.919ZM158.836 141.722V140.688H169.783V141.722H165.039V144.035H163.783V141.722H158.836ZM160.2 142.893H161.465V145.277H168.57V146.315H160.2V142.893ZM183.075 146.561V134.599H184.293V146.561H183.075ZM178.954 137.417H180.691V134.83H181.89V145.971H180.691V142.119H178.954C178.525 143.308 177.732 143.993 176.712 143.988C175.154 143.993 174.139 142.364 174.139 139.763C174.139 137.176 175.154 135.557 176.712 135.557C177.732 135.557 178.52 136.237 178.954 137.417ZM176.712 142.78C177.6 142.789 178.157 141.67 178.157 139.763C178.157 137.861 177.595 136.747 176.712 136.747C175.829 136.747 175.296 137.861 175.305 139.763C175.296 141.67 175.829 142.789 176.712 142.78ZM179.223 141.071H180.691V138.451H179.219C179.285 138.852 179.322 139.291 179.322 139.763C179.322 140.231 179.285 140.67 179.223 141.071ZM195.22 134.599V137.611H196.953V138.668H195.22V141.817H193.951V134.599H195.22ZM189.334 138.55C188.82 139.891 187.805 140.943 186.412 141.458L185.728 140.452C187.592 139.787 188.673 138.187 188.683 136.407V135.222H189.938V136.516C189.938 138.083 191.043 139.541 192.827 140.127L192.152 141.123C190.84 140.66 189.858 139.73 189.334 138.55ZM191.354 142.1C193.818 142.1 195.329 142.921 195.329 144.314C195.329 145.735 193.818 146.542 191.354 146.542C188.871 146.542 187.342 145.735 187.342 144.314C187.342 142.921 188.871 142.1 191.354 142.1ZM191.354 145.546C193.077 145.536 194.088 145.107 194.088 144.314C194.088 143.554 193.077 143.105 191.354 143.105C189.627 143.105 188.602 143.554 188.612 144.314C188.602 145.107 189.627 145.536 191.354 145.546ZM209.268 135.085H210.533V140.278H202.32V135.085H203.575V136.643H209.268V135.085ZM203.575 139.258H209.268V137.658H203.575V139.258ZM200.955 141.632H211.902V142.643H207.021V146.561H205.775V142.643H200.955V141.632ZM222.107 139.367H223.962V140.429H222.107V146.546H220.837V134.599H222.107V139.367ZM213.393 135.864H218.978C218.968 139.315 217.443 142.402 213.502 144.342L212.794 143.36C215.796 141.864 217.42 139.702 217.689 136.912H213.393V135.864ZM233.672 146.561V134.599H234.89V146.561H233.672ZM229.348 138.805H231.212V134.83H232.407V145.971H231.212V139.858H229.348V138.805ZM228.248 135.689V137.866C228.248 139.782 229.046 141.817 230.651 142.794L229.938 143.776C228.819 143.101 228.064 141.902 227.653 140.518C227.214 142.034 226.393 143.327 225.232 144.035L224.439 143.091C226.133 142.081 227.021 139.961 227.021 137.922V135.689H228.248ZM239.114 138.102H246.1V139.116H237.858V135.033H239.114V138.102ZM236.4 141.637V140.622H247.346V141.637H236.4ZM237.769 142.775H239.029V145.244H246.176V146.277H237.769V142.775Z" fill="black"/>
<path d="M104.489 165.414H96.8348L96.8296 163.812L100.67 160.28C101.661 159.325 102.198 158.736 102.203 157.88C102.198 156.936 101.478 156.352 100.508 156.352C99.5008 156.352 98.8382 156.983 98.8434 158.011H96.7356C96.7304 155.919 98.28 154.583 100.523 154.583C102.819 154.583 104.337 155.887 104.343 157.739C104.337 158.955 103.748 159.957 101.546 161.95L99.9182 163.52V163.593H104.489V165.414ZM106.344 164.318H108.446L107.173 168.518H105.613L106.344 164.318ZM118.049 165.414H110.395L110.39 163.812L114.23 160.28C115.221 159.325 115.758 158.736 115.764 157.88C115.758 156.936 115.038 156.352 114.068 156.352C113.061 156.352 112.398 156.983 112.404 158.011H110.296C110.291 155.919 111.84 154.583 114.084 154.583C116.379 154.583 117.897 155.887 117.903 157.739C117.897 158.955 117.308 159.957 115.106 161.95L113.478 163.52V163.593H118.049V165.414ZM122.132 154.729H124.224V165.414H122.001V156.842H121.939L119.486 158.381V156.409L122.132 154.729ZM130.633 165.56C128.406 165.56 126.772 164.245 126.731 162.409H128.886C128.938 163.238 129.699 163.812 130.633 163.812C131.739 163.812 132.527 163.03 132.522 161.913C132.527 160.786 131.724 159.993 130.597 159.988C129.799 159.988 129.235 160.285 128.927 160.88H126.908L127.492 154.729H134.066V156.55H129.319L129.026 159.247H129.11C129.506 158.72 130.315 158.339 131.254 158.339C133.216 158.339 134.672 159.805 134.666 161.856C134.672 164.016 133.033 165.56 130.633 165.56ZM136.12 164.318H138.222L136.949 168.518H135.389L136.12 164.318ZM143.887 154.583C146.094 154.593 148.186 155.908 148.196 159.79C148.202 163.426 146.475 165.56 143.798 165.56C141.644 165.56 140.172 164.214 139.953 162.409H142.139C142.322 163.191 142.932 163.656 143.798 163.656C145.243 163.656 146.016 162.351 146.026 160.223H145.927C145.431 161.162 144.377 161.725 143.193 161.725C141.273 161.725 139.849 160.28 139.844 158.287C139.838 156.138 141.466 154.572 143.887 154.583ZM143.897 156.331C142.802 156.331 141.993 157.165 142.004 158.225C142.009 159.284 142.786 160.103 143.882 160.103C144.962 160.103 145.797 159.242 145.791 158.214C145.786 157.197 144.988 156.331 143.897 156.331ZM157.342 165.414H149.688L149.683 163.812L153.523 160.28C154.514 159.325 155.052 158.736 155.057 157.88C155.052 156.936 154.332 156.352 153.361 156.352C152.354 156.352 151.692 156.983 151.697 158.011H149.589C149.584 155.919 151.133 154.583 153.377 154.583C155.672 154.583 157.191 155.887 157.196 157.739C157.191 158.955 156.601 159.957 154.399 161.95L152.772 163.52V163.593H157.342V165.414ZM162.875 165.56C160.522 165.56 158.842 164.271 158.806 162.409H161.044C161.081 163.197 161.853 163.724 162.881 163.724C163.945 163.724 164.707 163.134 164.701 162.273C164.707 161.402 163.934 160.786 162.677 160.786H161.686V159.143H162.677C163.736 159.143 164.472 158.569 164.467 157.724C164.472 156.91 163.841 156.352 162.896 156.352C161.952 156.352 161.18 156.879 161.148 157.698H159.02C159.056 155.861 160.715 154.583 162.907 154.583C165.129 154.583 166.616 155.903 166.606 157.588C166.616 158.788 165.781 159.638 164.576 159.852V159.936C166.152 160.129 167.018 161.084 167.007 162.419C167.018 164.245 165.281 165.56 162.875 165.56ZM175.045 162.43V161.146H177.612V153.357H179.501V163.505H177.612V162.43H175.045ZM172.442 158.59C170.449 158.59 169.066 157.661 169.066 156.221C169.066 154.792 170.449 153.805 172.442 153.811C174.398 153.805 175.791 154.792 175.797 156.221C175.791 157.661 174.398 158.59 172.442 158.59ZM172.442 155.188C171.487 155.188 170.845 155.553 170.851 156.221C170.845 156.873 171.487 157.228 172.442 157.228C173.35 157.228 174.002 156.873 174.007 156.221C174.002 155.553 173.35 155.188 172.442 155.188ZM171.67 163.181V165.023H179.798V166.541H169.786V162.529H171.67V160.739C170.464 160.786 169.317 160.797 168.294 160.797L168.07 159.31C170.538 159.289 173.856 159.258 176.694 158.898L176.804 160.249C175.744 160.426 174.644 160.546 173.558 160.63V163.181H171.67Z" fill="#FF7E44"/>
<path d="M186.179 154.432H189.069V155.788H181.389V154.432H184.3V153.294H186.179V154.432ZM191.918 153.336V157.75H193.639V159.299H191.918V163.828H190.034V153.336H191.918ZM189.408 160.609L189.544 161.908C186.721 162.451 183.539 162.482 181.227 162.513L181.034 161.063C182.005 161.063 183.126 161.052 184.3 161.016V160.249C182.839 160.035 181.926 159.31 181.932 158.256C181.926 156.931 183.236 156.153 185.224 156.159C187.201 156.153 188.505 156.931 188.511 158.256C188.505 159.299 187.608 160.025 186.179 160.244V160.932C187.274 160.865 188.375 160.76 189.408 160.609ZM183.732 158.256C183.726 158.757 184.269 159.044 185.224 159.044C186.168 159.044 186.705 158.757 186.711 158.256C186.705 157.687 186.168 157.411 185.224 157.411C184.269 157.411 183.726 157.687 183.732 158.256ZM182.918 163.129H184.817V165.023H192.382V166.541H182.918V163.129ZM204.757 158.6H206.526V160.098H194.244V158.6H202.889C203.15 157.296 203.186 156.294 203.197 155.392H195.747V153.884H205.075V154.964C205.075 155.981 205.075 157.072 204.757 158.6ZM197.562 162.419H203.155V160.985H205.018V166.624H195.71V160.985H197.562V162.419ZM197.562 165.101H203.155V163.854H197.562V165.101ZM220.619 166.776V153.336H222.419V166.776H220.619ZM216.325 156.32H217.901V153.545H219.675V166.155H217.901V161.997H216.331C215.83 163.301 214.948 164.042 213.816 164.037C212.047 164.042 210.894 162.179 210.899 159.153C210.894 156.153 212.047 154.301 213.816 154.301C214.943 154.301 215.825 155.032 216.325 156.32ZM213.816 162.231C214.598 162.237 215.068 161.225 215.073 159.153C215.068 157.103 214.593 156.075 213.816 156.08C213.033 156.075 212.6 157.103 212.605 159.153C212.6 161.225 213.033 162.237 213.816 162.231ZM216.701 160.468H217.901V157.828H216.696C216.753 158.24 216.785 158.684 216.785 159.153C216.785 159.618 216.753 160.061 216.701 160.468ZM231.184 158.146V156.612H233.281V153.336H235.159V161.318H233.281V158.146H231.184ZM227.98 158.313C227.396 159.68 226.321 160.776 224.73 161.324L223.754 159.832C225.946 159.101 226.953 157.353 226.994 155.668H224.302V154.155H231.586V155.668H228.909C228.956 157.228 229.916 158.804 231.998 159.492L231.069 160.974C229.587 160.489 228.57 159.518 227.98 158.313ZM230.568 161.616C233.438 161.616 235.191 162.576 235.196 164.204C235.191 165.831 233.438 166.786 230.568 166.791C227.709 166.786 225.951 165.831 225.956 164.204C225.951 162.576 227.709 161.616 230.568 161.616ZM230.568 165.351C232.352 165.357 233.323 164.971 233.328 164.204C233.323 163.431 232.352 163.045 230.568 163.045C228.789 163.045 227.824 163.431 227.829 164.204C227.824 164.971 228.789 165.357 230.568 165.351ZM246.235 153.336H248.14V166.807H246.235V153.336ZM240.846 154.285C242.875 154.285 244.378 156.143 244.383 159.065C244.378 162.018 242.875 163.865 240.846 163.865C238.79 163.865 237.287 162.018 237.293 159.065C237.287 156.143 238.79 154.285 240.846 154.285ZM240.846 155.986C239.802 155.986 239.103 157.077 239.114 159.065C239.103 161.073 239.802 162.158 240.846 162.158C241.868 162.158 242.562 161.073 242.562 159.065C242.562 157.077 241.868 155.986 240.846 155.986ZM259.795 166.776V153.336H261.594V166.776H259.795ZM255.923 158.308H257.019V153.545H258.798V166.155H257.019V159.811H255.939C255.777 162.445 254.65 164.042 252.991 164.037C251.222 164.042 250.069 162.179 250.075 159.153C250.069 156.153 251.222 154.301 252.991 154.301C254.608 154.301 255.72 155.809 255.923 158.308ZM252.991 162.231C253.768 162.237 254.228 161.225 254.228 159.153C254.228 157.103 253.768 156.075 252.991 156.08C252.24 156.075 251.796 157.103 251.807 159.153C251.796 161.225 252.24 162.237 252.991 162.231ZM272.571 160.338V163.666H275.3V165.2H263.018V163.666H265.757V160.369C264.719 159.743 264.093 158.788 264.098 157.604C264.093 155.433 266.222 153.999 269.133 153.999C272.044 153.999 274.194 155.433 274.194 157.604C274.194 158.772 273.583 159.712 272.571 160.338ZM269.133 155.485C267.213 155.475 265.95 156.258 265.95 157.604C265.95 158.924 267.213 159.732 269.133 159.738C271.037 159.732 272.331 158.924 272.336 157.604C272.331 156.258 271.037 155.475 269.133 155.485ZM267.62 161.052V163.666H270.667V161.052C270.187 161.141 269.676 161.193 269.133 161.193C268.601 161.193 268.095 161.146 267.62 161.052Z" fill="black"/>
<path d="M104.842 190.768V180.065H105.982V190.768H104.842ZM101.053 182.08V183.224C101.053 185.011 102.227 186.861 103.874 187.562L103.253 188.457C101.991 187.9 100.994 186.717 100.495 185.298C99.9971 186.819 98.9919 188.119 97.7502 188.723L97.0871 187.828C98.7005 187.076 99.8957 185.062 99.9042 183.224V182.08H97.463V181.142H103.494V182.08H101.053ZM116.097 180.074V183.195H117.647V184.158H116.097V187.79H114.961V180.074H116.097ZM113.943 184.508L114.074 185.446C112.279 185.813 110.64 185.91 109.048 185.91H108.173V180.825H109.314V184.956C110.762 184.952 112.287 184.855 113.943 184.508ZM109.339 187.047H110.475V189.619H116.468V190.548H109.339V187.047ZM126.668 180.065V182.249H128.218V183.186H126.668V185.437H125.532V180.065H126.668ZM124.459 183.816L124.59 184.711C123.107 185.032 121.798 185.083 119.56 185.078H118.711V180.665H123.483V181.577H119.83V184.179C121.853 184.175 123.065 184.094 124.459 183.816ZM126.668 188.681H120.886V189.712H127.031V190.632H119.771V187.811H125.54V186.852H119.746V185.94H126.668V188.681ZM139.93 190.768V180.065H141.019V190.768H139.93ZM136.242 182.587H137.797V180.272H138.869V190.24H137.797V186.793H136.242C135.858 187.858 135.148 188.47 134.236 188.466C132.842 188.47 131.934 187.013 131.934 184.686C131.934 182.371 132.842 180.922 134.236 180.922C135.148 180.922 135.854 181.531 136.242 182.587ZM134.236 187.384C135.03 187.393 135.529 186.392 135.529 184.686C135.529 182.984 135.026 181.987 134.236 181.987C133.446 181.987 132.969 182.984 132.978 184.686C132.969 186.392 133.446 187.393 134.236 187.384ZM136.483 185.856H137.797V183.511H136.479C136.538 183.87 136.572 184.263 136.572 184.686C136.572 185.104 136.538 185.497 136.483 185.856ZM150.796 180.065V182.76H152.346V183.706H150.796V186.523H149.66V180.065H150.796ZM145.53 183.6C145.069 184.8 144.161 185.742 142.915 186.202L142.303 185.302C143.971 184.707 144.938 183.275 144.947 181.683V180.623H146.07V181.78C146.07 183.182 147.058 184.487 148.655 185.011L148.051 185.902C146.877 185.488 145.998 184.656 145.53 183.6ZM147.337 186.776C149.542 186.776 150.893 187.511 150.893 188.757C150.893 190.028 149.542 190.751 147.337 190.751C145.116 190.751 143.747 190.028 143.747 188.757C143.747 187.511 145.116 186.776 147.337 186.776ZM147.337 189.859C148.879 189.851 149.783 189.467 149.783 188.757C149.783 188.077 148.879 187.676 147.337 187.676C145.791 187.676 144.875 188.077 144.883 188.757C144.875 189.467 145.791 189.851 147.337 189.859ZM161.004 182.777V180.074H162.077V186.451H161.004V183.697H159.767V186.379H158.702V180.272H159.767V182.777H161.004ZM157.959 183.288C157.959 184.795 156.916 185.822 155.501 185.822C154.069 185.822 153.043 184.795 153.051 183.288C153.043 181.784 154.069 180.728 155.501 180.728C156.916 180.728 157.959 181.784 157.959 183.288ZM154.069 183.288C154.061 184.225 154.669 184.876 155.501 184.867C156.32 184.876 156.924 184.225 156.928 183.288C156.924 182.342 156.32 181.704 155.501 181.704C154.669 181.704 154.061 182.342 154.069 183.288ZM160.958 187.917H154.804V187.004H162.077V190.768H160.958V187.917ZM168.961 186.307V188.504H173.324V189.441H163.529V188.504H167.837V186.307H164.644V180.796H165.781V182.641H171.035V180.796H172.162V186.307H168.961ZM171.035 183.554H165.781V185.387H171.035V183.554ZM182.438 184.208H184.153V185.15H182.438V190.789H181.302V180.065H182.438V184.208ZM175.684 182.016V187.186C177.479 187.178 178.827 187.102 180.36 186.823L180.495 187.79C178.822 188.081 177.399 188.136 175.414 188.132H174.552V181.096H179.557V182.016H175.684ZM190.969 189.872C189.326 189.872 188.097 188.875 188.042 187.494H189.322C189.385 188.233 190.091 188.77 190.969 188.77C192.016 188.77 192.768 188.014 192.768 186.983C192.768 185.932 191.991 185.167 190.91 185.159C190.209 185.154 189.681 185.387 189.381 185.919H188.143L188.709 181.104H193.609V182.232H189.799L189.503 184.648H189.588C189.951 184.31 190.555 184.073 191.214 184.073C192.844 184.073 194.048 185.277 194.044 186.954C194.048 188.652 192.764 189.872 190.969 189.872ZM198.568 189.872C196.972 189.859 195.299 188.913 195.304 185.716C195.304 182.705 196.609 180.986 198.678 180.986C200.275 180.986 201.381 181.978 201.584 183.351H200.287C200.11 182.646 199.552 182.135 198.678 182.135C197.344 182.135 196.566 183.3 196.566 185.256H196.664C197.128 184.517 197.943 184.086 198.885 184.086C200.427 184.086 201.668 185.268 201.668 186.924C201.668 188.597 200.431 189.885 198.568 189.872ZM198.564 188.77C199.607 188.77 200.389 187.959 200.393 186.945C200.389 185.957 199.633 185.15 198.589 185.15C197.538 185.15 196.735 185.995 196.727 186.962C196.727 187.917 197.496 188.77 198.564 188.77ZM206.071 189.893C204.073 189.893 202.895 188.267 202.899 185.433C202.899 182.616 204.086 180.986 206.071 180.986C208.06 180.986 209.247 182.62 209.247 185.433C209.247 188.267 208.073 189.893 206.071 189.893ZM206.071 188.761C207.241 188.761 207.938 187.591 207.938 185.433C207.938 183.279 207.232 182.105 206.071 182.105C204.914 182.105 204.208 183.279 204.208 185.433C204.204 187.591 204.905 188.761 206.071 188.761ZM210.51 188.918H211.844L210.886 192.22H209.872L210.51 188.918ZM216.331 189.872C214.544 189.872 213.269 188.909 213.222 187.494H214.553C214.599 188.255 215.355 188.74 216.318 188.74C217.366 188.74 218.126 188.17 218.122 187.334C218.126 186.476 217.416 185.864 216.174 185.864H215.44V184.791H216.174C217.163 184.791 217.851 184.242 217.851 183.414C217.851 182.62 217.26 182.088 216.348 182.088C215.478 182.088 214.705 182.57 214.671 183.351H213.404C213.446 181.945 214.743 180.986 216.36 180.986C218.058 180.986 219.131 182.063 219.123 183.347C219.131 184.322 218.523 185.032 217.594 185.256V185.323C218.768 185.488 219.456 186.282 219.448 187.38C219.456 188.821 218.126 189.872 216.331 189.872ZM223.904 189.893C221.907 189.893 220.728 188.267 220.732 185.433C220.732 182.616 221.919 180.986 223.904 180.986C225.894 180.986 227.08 182.62 227.08 185.433C227.08 188.267 225.906 189.893 223.904 189.893ZM223.904 188.761C225.074 188.761 225.771 187.591 225.771 185.433C225.771 183.279 225.066 182.105 223.904 182.105C222.747 182.105 222.042 183.279 222.042 185.433C222.038 187.591 222.739 188.761 223.904 188.761ZM231.453 189.893C229.456 189.893 228.277 188.267 228.282 185.433C228.282 182.616 229.468 180.986 231.453 180.986C233.443 180.986 234.63 182.62 234.63 185.433C234.63 188.267 233.455 189.893 231.453 189.893ZM231.453 188.761C232.623 188.761 233.32 187.591 233.32 185.433C233.32 183.279 232.615 182.105 231.453 182.105C230.296 182.105 229.591 183.279 229.591 185.433C229.587 187.591 230.288 188.761 231.453 188.761ZM241.237 187.165V186.362H243.391V180.074H244.531V188.191H243.391V187.165H241.237ZM239.079 184.234C237.49 184.234 236.409 183.511 236.409 182.367C236.409 181.239 237.49 180.483 239.079 180.483C240.641 180.483 241.727 181.239 241.735 182.367C241.727 183.511 240.641 184.234 239.079 184.234ZM239.079 181.328C238.128 181.324 237.482 181.733 237.486 182.367C237.482 183.005 238.128 183.402 239.079 183.402C239.991 183.402 240.645 183.005 240.654 182.367C240.645 181.733 239.991 181.324 239.079 181.328ZM239.754 187.858H238.622V185.83C237.583 185.868 236.587 185.877 235.717 185.872L235.573 184.96C237.554 184.947 240.223 184.926 242.504 184.639L242.58 185.459C241.659 185.611 240.7 185.708 239.754 185.767V187.858ZM238.187 187.397V189.619H244.785V190.548H237.055V187.397H238.187ZM251.584 182.502H257.822V183.423H250.473V180.221H251.584V182.502ZM249.168 185.277V184.36H258.963V185.277H249.168ZM257.734 188.749H251.521V189.737H258.101V190.632H250.385V187.912H256.619V187.017H250.364V186.13H257.734V188.749ZM262.713 185.708C261.104 185.708 259.917 184.66 259.917 183.178C259.917 181.704 261.104 180.648 262.713 180.656C264.102 180.648 265.205 181.476 265.445 182.688H267.544V180.065H268.676V186.139H267.544V183.617H265.458C265.238 184.863 264.123 185.708 262.713 185.708ZM262.713 181.607C261.724 181.602 260.998 182.24 261.006 183.178C260.998 184.107 261.724 184.762 262.713 184.766C263.684 184.762 264.406 184.107 264.411 183.178C264.406 182.24 263.684 181.602 262.713 181.607ZM267.544 186.548V187.123C267.544 188.233 268.271 189.327 269.69 189.783L269.103 190.628C268.051 190.252 267.338 189.534 266.97 188.656C266.628 189.513 265.982 190.307 264.993 190.717C263.98 190.333 263.334 189.572 263 188.694C262.616 189.534 261.906 190.248 260.901 190.628L260.343 189.783C261.716 189.302 262.455 188.17 262.459 187.123V186.548H263.557V187.123C263.549 188.056 264.009 189.027 264.981 189.623C265.961 188.977 266.425 187.942 266.434 187.123V186.548H267.544ZM278.128 184.077V180.065H279.252V190.789H278.128V185.002H275.919C275.801 187.089 274.72 188.385 273.229 188.385C271.628 188.385 270.505 186.928 270.513 184.622C270.505 182.329 271.628 180.872 273.229 180.868C274.678 180.872 275.742 182.101 275.911 184.077H278.128ZM273.229 187.368C274.192 187.368 274.859 186.32 274.859 184.622C274.859 182.937 274.192 181.89 273.229 181.881C272.258 181.89 271.594 182.937 271.594 184.622C271.594 186.32 272.258 187.368 273.229 187.368ZM288.345 185.674V188.495H290.693V189.433H280.898V188.495H283.243V185.695C282.36 185.214 281.823 184.445 281.823 183.486C281.823 181.801 283.475 180.694 285.768 180.686C288.07 180.694 289.726 181.801 289.726 183.486C289.726 184.432 289.206 185.188 288.345 185.674ZM285.768 181.602C284.091 181.594 282.926 182.329 282.926 183.486C282.926 184.631 284.091 185.378 285.768 185.378C287.436 185.378 288.619 184.631 288.619 183.486C288.619 182.329 287.436 181.594 285.768 181.602ZM284.358 186.113V188.495H287.2V186.109C286.761 186.21 286.279 186.265 285.768 186.265C285.261 186.265 284.788 186.21 284.358 186.113Z" fill="#AAAAAA"/>
<path d="M111.482 360.39V356.234H112.939V367.114H111.482V361.632H110.502V366.611H109.062V356.403H110.502V360.39H111.482ZM108.149 364.377H103.824V357.366H108.149V364.377ZM106.726 358.566H105.252V363.182H106.726V358.566ZM114.919 360.58L114.501 359.457C116.668 359.364 117.77 358.844 118.087 358.215H115.042V357.087H118.277V356.23H119.789V357.087H123.045V358.215H119.975C120.283 358.844 121.39 359.364 123.586 359.457L123.138 360.58C121.124 360.475 119.721 359.964 119.033 359.148C118.349 359.964 116.951 360.475 114.919 360.58ZM123.983 360.872V361.982H119.793V362.667H122.796V365.319H116.74V365.915H123.079V367.038H115.244V364.297H121.293V363.756H115.236V362.667H118.285V361.982H114.112V360.872H123.983ZM128.65 357.197H131.112V358.392H124.658V357.197H127.129V356.162H128.65V357.197ZM133.287 358.861H134.748V360.128H133.287V362.608H131.758V356.234H133.287V358.861ZM127.889 362.544C126.284 362.548 125.186 361.784 125.19 360.622C125.186 359.465 126.284 358.705 127.889 358.701C129.465 358.705 130.563 359.465 130.563 360.622C130.563 361.784 129.465 362.548 127.889 362.544ZM126.673 360.622C126.673 361.15 127.159 361.433 127.889 361.433C128.616 361.433 129.114 361.15 129.118 360.622C129.114 360.116 128.616 359.816 127.889 359.82C127.159 359.816 126.673 360.116 126.673 360.622ZM127.682 363.853H131.758V363.021H133.287V366.992H126.17V363.021H127.682V363.853ZM127.682 365.792H131.758V365.023H127.682V365.792ZM143.216 367.114V356.234H144.652V367.114H143.216ZM139.854 359.106H140.944V356.483H142.384V366.628H140.944V363.047H139.402V361.814H140.944V360.344H139.601C139.094 362.134 137.987 363.647 135.96 364.846L135.069 363.777C137.265 362.472 138.237 360.889 138.448 358.756H135.698V357.531H139.956C139.956 358.076 139.922 358.599 139.854 359.106ZM146.561 362.54C146.561 360.437 147.118 358.692 148.267 357.189H149.952C149.078 358.304 148.402 360.538 148.402 362.54C148.402 364.538 149.078 366.772 149.952 367.887H148.267C147.118 366.383 146.561 364.639 146.561 362.54ZM158.793 366.012H156.867L156.217 364.018H153.079L152.428 366.012H150.502L153.493 357.362H155.803L158.793 366.012ZM154.612 359.313L153.535 362.612H155.756L154.679 359.313H154.612ZM162.724 362.54C162.724 364.639 162.171 366.383 161.022 367.887H159.332C160.211 366.772 160.887 364.538 160.887 362.54C160.887 360.538 160.211 358.304 159.332 357.189H161.022C162.171 358.692 162.724 360.437 162.724 362.54Z" fill="black"/>
<path d="M268.331 335.817V324.937H269.789V335.817H268.331ZM264.682 328.612H266.089V325.106H267.516V335.315H266.089V329.854H264.682V328.612ZM263.85 325.875V327.678C263.85 329.44 264.34 331.256 265.831 332.21L264.999 333.384C264.061 332.818 263.466 331.885 263.12 330.774C262.735 332.003 262.081 333.034 261.096 333.634L260.167 332.502C261.776 331.505 262.372 329.592 262.372 327.75V325.875H263.85ZM278.835 327.59V324.954H280.279V331.446H278.835V328.806H277.944V331.387H276.525V325.144H277.944V327.59H278.835ZM275.997 328.253C275.997 329.824 274.928 330.897 273.484 330.897C272.035 330.897 270.983 329.824 270.988 328.253C270.983 326.699 272.035 325.596 273.484 325.596C274.928 325.596 275.997 326.699 275.997 328.253ZM272.348 328.253C272.343 329.106 272.812 329.63 273.484 329.621C274.143 329.63 274.611 329.106 274.616 328.253C274.611 327.395 274.143 326.897 273.484 326.897C272.812 326.897 272.343 327.395 272.348 328.253ZM278.763 333.139H272.766V331.923H280.279V335.817H278.763V333.139Z" fill="black"/>
<path d="M148.518 327.418H150.981V328.609H144.527V327.418H146.998V326.316H148.518V327.418ZM153.156 326.375V329.162H154.617V330.425H153.156V333.285H151.627V326.375H153.156ZM150.432 330.932C150.432 332.102 149.333 332.879 147.758 332.879C146.157 332.879 145.055 332.102 145.059 330.932C145.055 329.771 146.153 328.981 147.758 328.977C149.333 328.981 150.432 329.771 150.432 330.932ZM146.542 330.932C146.542 331.468 147.027 331.751 147.758 331.747C148.485 331.751 148.983 331.468 148.987 330.932C148.983 330.387 148.485 330.092 147.758 330.087C147.027 330.092 146.542 330.387 146.542 330.932ZM149.6 333.386C151.842 333.386 153.27 334.104 153.274 335.325C153.27 336.524 151.842 337.255 149.6 337.25C147.319 337.255 145.912 336.524 145.921 335.325C145.912 334.104 147.319 333.386 149.6 333.386ZM149.6 336.114C150.993 336.114 151.741 335.836 151.741 335.325C151.741 334.788 150.993 334.543 149.6 334.543C148.18 334.543 147.424 334.788 147.429 335.325C147.424 335.836 148.18 336.114 149.6 336.114ZM160.808 330.641V331.675H165.019V332.896H155.102V331.675H159.279V330.641H156.327V326.81H163.761V330.641H160.808ZM162.261 327.997H157.818V329.445H162.261V327.997ZM162.287 334.898H156.2V333.703H163.811V337.255H162.287V334.898Z" fill="black"/>
<path d="M321.921 211.57H100.317C97.9328 211.57 96 213.503 96 215.887V242.868C96 245.253 97.9328 247.185 100.317 247.185H321.921C324.306 247.185 326.238 245.253 326.238 242.868V215.887C326.238 213.503 324.306 211.57 321.921 211.57Z" fill="#FFF9EF"/>
<path d="M321.922 211.75H100.317C98.0322 211.75 96.1799 213.602 96.1799 215.887V242.868C96.1799 245.153 98.0322 247.005 100.317 247.005H321.922C324.206 247.005 326.059 245.153 326.059 242.868V215.887C326.059 213.602 324.206 211.75 321.922 211.75Z" stroke="#FF7E44" stroke-width="0.359748"/>
<path d="M139.484 227.511V223.814H140.445V233.258H139.484V228.338H138.321V232.792H137.371V223.997H138.321V227.511H139.484ZM136.309 230.768H132.642V224.876H136.309V230.768ZM135.37 225.67H133.585V229.974H135.37V225.67ZM142.368 227.586L142.081 226.833C143.892 226.732 145.167 226.177 145.368 225.376H142.517V224.612H145.457V223.777H146.441V224.612H149.396V225.376H146.527C146.724 226.177 147.999 226.732 149.825 226.833L149.523 227.586C147.88 227.466 146.538 226.989 145.949 226.162C145.361 226.989 144.019 227.466 142.368 227.586ZM150.25 227.958V228.707H146.445V229.497H149.169V231.629H143.676V232.408H149.441V233.168H142.696V230.936H148.185V230.228H142.677V229.497H145.454V228.707H141.664V227.958H150.25ZM155.772 229.322V231.26H159.622V232.088H150.98V231.26H154.781V229.322H151.964V224.459H152.966V226.088H157.602V224.459H158.597V229.322H155.772ZM157.602 226.893H152.966V228.51H157.602V226.893ZM167.664 227.47H169.177V228.301H167.664V233.276H166.661V223.814H167.664V227.47ZM161.705 225.536V230.097C163.289 230.09 164.477 230.023 165.83 229.777L165.95 230.63C164.474 230.888 163.218 230.936 161.466 230.932H160.706V224.724H165.122V225.536H161.705ZM179.429 227.511V223.814H180.39V233.258H179.429V228.338H178.266V232.792H177.316V223.997H178.266V227.511H179.429ZM176.253 230.768H172.586V224.876H176.253V230.768ZM175.314 225.67H173.529V229.974H175.314V225.67ZM188.428 223.814H189.431V228.883H188.428V223.814ZM184.303 224.25C185.749 224.243 186.811 225.141 186.811 226.445C186.811 227.731 185.749 228.629 184.303 228.625C182.853 228.629 181.787 227.731 181.787 226.445C181.787 225.141 182.853 224.243 184.303 224.25ZM184.303 225.093C183.405 225.085 182.76 225.633 182.767 226.445C182.76 227.254 183.405 227.798 184.303 227.802C185.19 227.798 185.831 227.254 185.831 226.445C185.831 225.633 185.19 225.085 184.303 225.093ZM183.248 229.341H184.228V230.399H188.436V229.341H189.431V233.138H183.248V229.341ZM184.228 231.189V232.322H188.436V231.189H184.228ZM197.741 223.814H198.747V233.276H197.741V223.814ZM193.69 224.522C195.098 224.526 196.127 225.812 196.127 227.835C196.127 229.87 195.098 231.156 193.69 231.156C192.266 231.156 191.249 229.87 191.249 227.835C191.249 225.812 192.266 224.526 193.69 224.522ZM193.69 225.417C192.818 225.424 192.214 226.348 192.214 227.835C192.214 229.334 192.818 230.258 193.69 230.258C194.562 230.258 195.158 229.334 195.158 227.835C195.158 226.348 194.562 225.424 193.69 225.417ZM210.307 223.814V225.898H211.674V226.729H210.307V228.611H209.304V223.814H210.307ZM203.248 224.425H207.672V228.305H203.248V224.425ZM204.228 227.507H206.692V225.223H204.228V227.507ZM208.332 228.752H209.308V229.535H211.194V230.28H206.423V229.535H208.332V228.752ZM204.814 229.438V232.184C205.365 232.155 206.002 232.076 206.602 231.875L206.755 232.665C205.876 232.967 205.026 233.004 204.314 233.004H203.837V229.438H204.814ZM208.805 230.586C209.852 230.589 210.586 231.092 210.594 231.912C210.586 232.728 209.852 233.239 208.805 233.239C207.746 233.239 207.016 232.728 207.023 231.912C207.016 231.092 207.746 230.589 208.805 230.586ZM208.805 232.55C209.319 232.553 209.688 232.311 209.692 231.912C209.688 231.521 209.319 231.286 208.805 231.279C208.287 231.286 207.914 231.521 207.914 231.912C207.914 232.311 208.287 232.553 208.805 232.55ZM219.571 227.515H221.084V228.361H219.571V233.258H218.568V223.814H219.571V227.515ZM214.741 224.522C216.153 224.526 217.16 225.812 217.167 227.835C217.16 229.87 216.153 231.156 214.741 231.156C213.329 231.156 212.322 229.87 212.33 227.835C212.322 225.812 213.329 224.526 214.741 224.522ZM214.741 230.258C215.62 230.258 216.202 229.334 216.206 227.835C216.202 226.348 215.62 225.424 214.741 225.417C213.88 225.424 213.284 226.348 213.284 227.835C213.284 229.334 213.88 230.258 214.741 230.258ZM227.579 224.69H229.8V225.432H224.352V224.69H226.58V223.784H227.579V224.69ZM231.604 223.814V227.049H232.949V227.888H231.604V231.197H230.605V223.814H231.604ZM230.068 229.032L230.147 229.74C228.138 230.116 225.865 230.146 224.221 230.161L224.11 229.363C224.836 229.363 225.69 229.356 226.58 229.326V228.67C225.503 228.547 224.818 228.029 224.825 227.25C224.818 226.334 225.716 225.786 227.068 225.793C228.425 225.786 229.312 226.334 229.319 227.25C229.312 228.025 228.645 228.54 227.579 228.67V229.281C228.425 229.233 229.278 229.155 230.068 229.032ZM225.779 227.25C225.775 227.712 226.267 227.999 227.068 227.999C227.87 227.999 228.362 227.712 228.362 227.25C228.362 226.762 227.87 226.479 227.068 226.479C226.267 226.479 225.775 226.762 225.779 227.25ZM225.496 230.701H226.502V232.244H231.943V233.064H225.496V230.701ZM240.801 227.619H242.146V228.435H233.504V227.619H239.817C240.044 226.535 240.056 225.741 240.056 225.048H234.585V224.232H241.051V224.947C241.051 225.663 241.051 226.475 240.801 227.619ZM235.584 230.377H240.041V229.207H241.032V233.138H234.596V229.207H235.584V230.377ZM235.584 232.322H240.041V231.156H235.584V232.322ZM252.625 233.258V223.814H253.587V233.258H252.625ZM249.372 226.039H250.743V223.997H251.69V232.792H250.743V229.751H249.372C249.033 230.69 248.407 231.23 247.602 231.227C246.372 231.23 245.571 229.945 245.571 227.891C245.571 225.849 246.372 224.571 247.602 224.571C248.407 224.571 249.029 225.107 249.372 226.039ZM247.602 230.273C248.302 230.28 248.742 229.397 248.742 227.891C248.742 226.389 248.299 225.51 247.602 225.51C246.905 225.51 246.484 226.389 246.491 227.891C246.484 229.397 246.905 230.28 247.602 230.273ZM249.584 228.924H250.743V226.855H249.581C249.633 227.172 249.663 227.519 249.663 227.891C249.663 228.26 249.633 228.607 249.584 228.924ZM262.214 223.814V226.192H263.581V227.027H262.214V229.512H261.211V223.814H262.214ZM257.566 226.934C257.16 227.992 256.359 228.823 255.26 229.229L254.719 228.435C256.191 227.91 257.045 226.647 257.052 225.242V224.306H258.043V225.327C258.043 226.565 258.915 227.716 260.324 228.178L259.791 228.965C258.755 228.599 257.98 227.865 257.566 226.934ZM259.161 229.736C261.107 229.736 262.299 230.384 262.299 231.484C262.299 232.606 261.107 233.243 259.161 233.243C257.201 233.243 255.994 232.606 255.994 231.484C255.994 230.384 257.201 229.736 259.161 229.736ZM259.161 232.456C260.522 232.449 261.319 232.11 261.319 231.484C261.319 230.884 260.522 230.53 259.161 230.53C257.797 230.53 256.989 230.884 256.996 231.484C256.989 232.11 257.797 232.449 259.161 232.456ZM270.93 233.276V223.814H271.929V233.276H270.93ZM267.758 228.629V230.381C268.63 230.343 269.51 230.288 270.337 230.194L270.416 230.932C268.332 231.242 266.093 231.271 264.293 231.271L264.17 230.44C264.967 230.44 265.85 230.437 266.756 230.414V228.629H264.855V224.694H269.704V225.499H265.843V227.813H269.745V228.629H267.758ZM280.332 227.355V223.814H281.323V233.276H280.332V228.171H278.383C278.278 230.012 277.324 231.156 276.009 231.156C274.596 231.156 273.605 229.87 273.613 227.835C273.605 225.812 274.596 224.526 276.009 224.522C277.287 224.526 278.226 225.611 278.375 227.355H280.332ZM276.009 230.258C276.859 230.258 277.447 229.334 277.447 227.835C277.447 226.348 276.859 225.424 276.009 225.417C275.152 225.424 274.567 226.348 274.567 227.835C274.567 229.334 275.152 230.258 276.009 230.258ZM289.346 228.763V231.253H291.418V232.08H282.776V231.253H284.844V228.782C284.066 228.357 283.592 227.679 283.592 226.833C283.592 225.346 285.049 224.37 287.073 224.362C289.104 224.37 290.565 225.346 290.565 226.833C290.565 227.668 290.106 228.335 289.346 228.763ZM287.073 225.171C285.593 225.163 284.565 225.812 284.565 226.833C284.565 227.843 285.593 228.502 287.073 228.502C288.545 228.502 289.588 227.843 289.588 226.833C289.588 225.812 288.545 225.163 287.073 225.171ZM285.828 229.151V231.253H288.336V229.147C287.949 229.237 287.524 229.285 287.073 229.285C286.626 229.285 286.208 229.237 285.828 229.151ZM292.61 224.731H293.844L293.747 230.165H292.707L292.61 224.731ZM293.229 232.434C292.819 232.434 292.476 232.099 292.484 231.689C292.476 231.279 292.819 230.943 293.229 230.943C293.635 230.943 293.974 231.279 293.978 231.689C293.974 232.099 293.635 232.434 293.229 232.434Z" fill="black"/>
<mask id="mask0_8791_516" style="mask-type:luminance" maskUnits="userSpaceOnUse" x="106" y="219" width="16" height="20">
<path d="M121.719 219.852H106.61V238.815H121.719V219.852Z" fill="white"/>
</mask>
<g mask="url(#mask0_8791_516)">
<path d="M110.279 220.713H118.185L116.043 225.963C116.043 225.963 118.443 226.67 119.085 228.405C119.728 230.14 120.692 232.583 120.692 232.583L121.143 236.44V238.176H107.386V235.604L107.836 232.582L108.736 229.818L110.279 227.377L112.207 225.963L110.279 220.713Z" fill="white"/>
<path d="M116.481 226.298H112.173C112.095 226.298 112.018 226.278 111.949 226.24C111.881 226.202 111.824 226.147 111.783 226.08C111.742 226.013 111.719 225.937 111.716 225.859C111.713 225.781 111.73 225.703 111.766 225.633L109.982 220.799C109.956 220.73 109.947 220.656 109.957 220.583C109.966 220.51 109.993 220.44 110.035 220.379C110.077 220.319 110.133 220.269 110.199 220.235C110.264 220.201 110.337 220.184 110.41 220.184H118.247C118.32 220.184 118.393 220.201 118.458 220.236C118.524 220.27 118.58 220.319 118.622 220.379C118.664 220.44 118.691 220.51 118.7 220.583C118.71 220.656 118.701 220.73 118.676 220.799L116.886 225.647C116.918 225.716 116.933 225.792 116.929 225.868C116.924 225.944 116.901 226.018 116.86 226.082C116.82 226.147 116.764 226.201 116.698 226.238C116.632 226.276 116.557 226.297 116.481 226.298ZM112.648 225.384H116.009L117.592 221.098H111.067L112.648 225.384Z" fill="#FF7E44" stroke="#FF7E44" stroke-width="0.179874"/>
<path d="M121.243 238.811H107.414C107.298 238.811 107.185 238.767 107.1 238.686C107.016 238.606 106.965 238.496 106.958 238.38C106.935 237.971 106.463 228.34 111.96 225.436C112.026 225.401 112.099 225.383 112.174 225.383H116.483C116.558 225.383 116.631 225.401 116.697 225.436C122.195 228.34 121.723 237.971 121.7 238.38C121.694 238.497 121.643 238.607 121.558 238.687C121.473 238.767 121.36 238.812 121.243 238.811ZM107.861 237.897H120.799C120.822 236.032 120.635 228.661 116.368 226.297H112.289C108.019 228.663 107.835 236.032 107.859 237.897" fill="#FF7E44"/>
<path d="M107.861 237.897H120.799C120.822 236.032 120.635 228.661 116.368 226.297H112.289C108.019 228.663 107.835 236.032 107.859 237.897M121.243 238.811H107.414C107.298 238.811 107.185 238.767 107.1 238.686C107.016 238.606 106.965 238.496 106.958 238.38C106.935 237.971 106.463 228.34 111.96 225.436C112.026 225.401 112.099 225.383 112.174 225.383H116.483C116.558 225.383 116.631 225.401 116.697 225.436C122.195 228.34 121.723 237.971 121.7 238.38C121.694 238.497 121.643 238.607 121.558 238.687C121.473 238.767 121.36 238.812 121.243 238.811Z" stroke="#FF7E44" stroke-width="0.179874"/>
<path d="M114.786 223.445H113.872V225.615H114.786V223.445Z" fill="#FF7E44" stroke="#FF7E44" stroke-width="0.179874"/>
<path d="M116.704 232.523L117.191 230.506H116.242L115.842 232.523H115.292L114.824 230.506H113.999L113.479 232.523H112.867L112.442 230.506H111.478L111.971 232.523H111.281V233.118H112.118L112.703 235.515H113.503L114.097 233.118H114.649L115.188 235.515H116.009L116.567 233.117H117.378V232.523H116.704ZM115.594 233.893L115.417 233.117H115.731L115.594 233.893ZM114.514 232.523H114.241L114.391 231.93L114.514 232.523ZM113.338 233.117L113.138 233.887L112.982 233.117L113.338 233.117Z" fill="#FF7E44"/>
</g>
<g filter="url(#filter3_d_8791_516)">
<path d="M391.931 203H29.0688C25.1648 203 22 206.165 22 210.069V254.248C22 258.152 25.1648 261.317 29.0688 261.317H391.931C395.835 261.317 399 258.152 399 254.248V210.069C399 206.165 395.835 203 391.931 203Z" fill="#FFF9EF"/>
<path d="M391.931 203.295H29.0687C25.3274 203.295 22.2944 206.328 22.2944 210.069V254.249C22.2944 257.99 25.3274 261.023 29.0687 261.023H391.931C395.672 261.023 398.705 257.99 398.705 254.249V210.069C398.705 206.328 395.672 203.295 391.931 203.295Z" stroke="#FF7E44" stroke-width="2"/>
<path d="M93.202 229.727V223.673H94.7764V239.136H93.202V231.081H91.2981V238.374H89.7421V223.972H91.2981V229.727H93.202ZM88.0029 235.06H81.9984V225.413H88.0029V235.06ZM86.4652 226.712H83.5423V233.76H86.4652V226.712ZM97.9244 229.849L97.4545 228.616C100.42 228.451 102.507 227.542 102.837 226.23H98.1685V224.979H102.983V223.612H104.594V224.979H109.433V226.23H104.734C105.058 227.542 107.145 228.451 110.135 228.616L109.641 229.849C106.95 229.654 104.753 228.872 103.789 227.518C102.824 228.872 100.628 229.654 97.9244 229.849ZM110.83 230.459V231.686H104.6V232.979H109.061V236.47H100.066V237.745H109.506V238.99H98.4614V235.335H107.45V234.175H98.4309V232.979H102.977V231.686H96.7711V230.459H110.83ZM119.873 232.692V235.866H126.177V237.22H112.026V235.866H118.25V232.692H113.637V224.729H115.278V227.396H122.869V224.729H124.499V232.692H119.873ZM122.869 228.714H115.278V231.362H122.869V228.714ZM139.345 229.66H141.822V231.02H139.345V239.167H137.703V223.673H139.345V229.66ZM129.587 226.493V233.962C132.181 233.949 134.127 233.84 136.342 233.437L136.538 234.834C134.121 235.255 132.065 235.335 129.197 235.329H127.952V225.162H135.183V226.493H129.587ZM158.609 229.727V223.673H160.183V239.136H158.609V231.081H156.705V238.374H155.149V223.972H156.705V229.727H158.609ZM153.41 235.06H147.405V225.413H153.41V235.06ZM151.872 226.712H148.949V233.76H151.872V226.712ZM173.345 223.673H174.986V231.972H173.345V223.673ZM166.59 224.387C168.957 224.375 170.696 225.846 170.696 227.982C170.696 230.087 168.957 231.557 166.59 231.551C164.216 231.557 162.471 230.087 162.471 227.982C162.471 225.846 164.216 224.375 166.59 224.387ZM166.59 225.766C165.119 225.754 164.063 226.651 164.076 227.982C164.063 229.306 165.119 230.197 166.59 230.203C168.042 230.197 169.091 229.306 169.091 227.982C169.091 226.651 168.042 225.754 166.59 225.766ZM164.863 232.723H166.468V234.456H173.357V232.723H174.986V238.941H164.863V232.723ZM166.468 235.75V237.605H173.357V235.75H166.468ZM188.593 223.673H190.241V239.167H188.593V223.673ZM181.96 224.833C184.267 224.839 185.951 226.944 185.951 230.258C185.951 233.589 184.267 235.695 181.96 235.695C179.629 235.695 177.963 233.589 177.963 230.258C177.963 226.944 179.629 224.839 181.96 224.833ZM181.96 226.297C180.532 226.31 179.544 227.823 179.544 230.258C179.544 232.711 180.532 234.224 181.96 234.224C183.388 234.224 184.365 232.711 184.365 230.258C184.365 227.823 183.388 226.31 181.96 226.297ZM209.169 223.673V227.084H211.409V228.445H209.169V231.527H207.528V223.673H209.169ZM197.612 224.674H204.855V231.026H197.612V224.674ZM199.217 229.721H203.25V225.98H199.217V229.721ZM205.935 231.759H207.534V233.04H210.622V234.261H202.811V233.04H205.935V231.759ZM200.175 232.882V237.379C201.078 237.33 202.121 237.202 203.104 236.872L203.354 238.166C201.914 238.66 200.523 238.721 199.357 238.721H198.576V232.882H200.175ZM206.71 234.761C208.425 234.767 209.627 235.591 209.639 236.933C209.627 238.27 208.425 239.106 206.71 239.106C204.977 239.106 203.781 238.27 203.793 236.933C203.781 235.591 204.977 234.767 206.71 234.761ZM206.71 237.977C207.552 237.983 208.156 237.586 208.163 236.933C208.156 236.293 207.552 235.908 206.71 235.896C205.862 235.908 205.252 236.293 205.252 236.933C205.252 237.586 205.862 237.983 206.71 237.977ZM224.339 229.733H226.816V231.118H224.339V239.136H222.697V223.673H224.339V229.733ZM216.43 224.833C218.743 224.839 220.391 226.944 220.403 230.258C220.391 233.589 218.743 235.695 216.43 235.695C214.118 235.695 212.47 233.589 212.482 230.258C212.47 226.944 214.118 224.839 216.43 224.833ZM216.43 234.224C217.87 234.224 218.822 232.711 218.828 230.258C218.822 227.823 217.87 226.31 216.43 226.297C215.021 226.31 214.044 227.823 214.044 230.258C214.044 232.711 215.021 234.224 216.43 234.224ZM237.452 225.107H241.089V226.322H232.167V225.107H235.816V223.625H237.452V225.107ZM244.042 223.673V228.97H246.245V230.343H244.042V235.762H242.407V223.673H244.042ZM241.528 232.216L241.656 233.376C238.367 233.992 234.645 234.041 231.954 234.065L231.771 232.76C232.961 232.76 234.358 232.747 235.816 232.698V231.625C234.053 231.423 232.93 230.575 232.942 229.3C232.93 227.798 234.401 226.901 236.616 226.914C238.837 226.901 240.289 227.798 240.301 229.3C240.289 230.569 239.197 231.411 237.452 231.625V232.625C238.837 232.546 240.234 232.418 241.528 232.216ZM234.504 229.3C234.498 230.056 235.304 230.526 236.616 230.526C237.928 230.526 238.733 230.056 238.733 229.3C238.733 228.5 237.928 228.036 236.616 228.036C235.304 228.036 234.498 228.5 234.504 229.3ZM234.041 234.95H235.688V237.476H244.597V238.819H234.041V234.95ZM259.102 229.904H261.304V231.24H247.154V229.904H257.491C257.863 228.128 257.881 226.828 257.881 225.693H248.923V224.357H259.51V225.528C259.51 226.7 259.51 228.03 259.102 229.904ZM250.559 234.419H257.857V232.503H259.48V238.941H248.941V232.503H250.559V234.419ZM250.559 237.605H257.857V235.695H250.559V237.605ZM278.463 239.136V223.673H280.038V239.136H278.463ZM273.136 227.316H275.382V223.972H276.932V238.374H275.382V233.394H273.136C272.581 234.932 271.556 235.817 270.238 235.811C268.224 235.817 266.912 233.711 266.912 230.349C266.912 227.005 268.224 224.912 270.238 224.912C271.556 224.912 272.575 225.791 273.136 227.316ZM270.238 234.248C271.385 234.261 272.105 232.814 272.105 230.349C272.105 227.89 271.379 226.45 270.238 226.45C269.096 226.45 268.407 227.89 268.419 230.349C268.407 232.814 269.096 234.261 270.238 234.248ZM273.484 232.039H275.382V228.653H273.478C273.563 229.171 273.612 229.739 273.612 230.349C273.612 230.953 273.563 231.521 273.484 232.039ZM294.163 223.673V227.567H296.403V228.933H294.163V233.004H292.522V223.673H294.163ZM286.554 228.781C285.889 230.514 284.577 231.875 282.777 232.54L281.892 231.24C284.302 230.38 285.7 228.311 285.712 226.011V224.479H287.335V226.151C287.335 228.177 288.763 230.062 291.07 230.819L290.197 232.107C288.501 231.509 287.231 230.306 286.554 228.781ZM289.166 233.37C292.351 233.37 294.304 234.432 294.304 236.232C294.304 238.068 292.351 239.112 289.166 239.112C285.956 239.112 283.979 238.068 283.979 236.232C283.979 234.432 285.956 233.37 289.166 233.37ZM289.166 237.824C291.393 237.812 292.699 237.257 292.699 236.232C292.699 235.249 291.393 234.669 289.166 234.669C286.932 234.669 285.608 235.249 285.62 236.232C285.608 237.257 286.932 237.812 289.166 237.824ZM308.436 239.167V223.673H310.071V239.167H308.436ZM303.243 231.557V234.425C304.671 234.364 306.111 234.273 307.466 234.12L307.594 235.329C304.183 235.835 300.515 235.884 297.568 235.884L297.366 234.523C298.672 234.523 300.119 234.517 301.601 234.48V231.557H298.489V225.113H306.428V226.432H300.106V230.221H306.495V231.557H303.243ZM323.831 229.47V223.673H325.454V239.167H323.831V230.807H320.639C320.469 233.821 318.906 235.695 316.752 235.695C314.44 235.695 312.816 233.589 312.829 230.258C312.816 226.944 314.44 224.839 316.752 224.833C318.845 224.839 320.383 226.615 320.627 229.47H323.831ZM316.752 234.224C318.144 234.224 319.108 232.711 319.108 230.258C319.108 227.823 318.144 226.31 316.752 226.297C315.349 226.31 314.391 227.823 314.391 230.258C314.391 232.711 315.349 234.224 316.752 234.224ZM338.591 231.777V235.853H341.984V237.208H327.833V235.853H331.22V231.808C329.945 231.112 329.17 230.001 329.17 228.616C329.17 226.181 331.556 224.583 334.869 224.57C338.195 224.583 340.587 226.181 340.587 228.616C340.587 229.983 339.836 231.075 338.591 231.777ZM334.869 225.895C332.446 225.882 330.762 226.944 330.762 228.616C330.762 230.27 332.446 231.35 334.869 231.35C337.279 231.35 338.988 230.27 338.988 228.616C338.988 226.944 337.279 225.882 334.869 225.895ZM332.831 232.412V235.853H336.938V232.406C336.303 232.552 335.607 232.631 334.869 232.631C334.137 232.631 333.453 232.552 332.831 232.412ZM343.936 225.175H345.956L345.797 234.071H344.095L343.936 225.175ZM344.949 237.788C344.278 237.788 343.717 237.238 343.729 236.567C343.717 235.896 344.278 235.347 344.949 235.347C345.614 235.347 346.17 235.896 346.176 236.567C346.17 237.238 345.614 237.788 344.949 237.788Z" fill="black"/>
<mask id="mask1_8791_516" style="mask-type:luminance" maskUnits="userSpaceOnUse" x="39" y="216" width="26" height="32">
<path d="M64.1129 216.551H39.3723V247.601H64.1129V216.551Z" fill="white"/>
</mask>
<g mask="url(#mask1_8791_516)">
<path d="M45.3805 217.961H58.3263L54.8178 226.557C54.8178 226.557 58.7475 227.715 59.8001 230.556C60.8528 233.398 62.4315 237.398 62.4315 237.398L63.1684 243.713V246.555H40.6438V242.345L41.3801 237.396L42.8528 232.871L45.3805 228.873L48.5378 226.557L45.3805 217.961Z" fill="white"/>
<path d="M55.5353 227.104H48.4807C48.3526 227.104 48.2267 227.071 48.115 227.009C48.0033 226.946 47.9095 226.856 47.8426 226.746C47.7757 226.637 47.7379 226.513 47.7329 226.385C47.7279 226.257 47.7558 226.13 47.8139 226.016L44.8927 218.1C44.8508 217.987 44.8369 217.865 44.8522 217.745C44.8675 217.626 44.9115 217.511 44.9805 217.412C45.0494 217.313 45.1413 217.232 45.2483 217.177C45.3553 217.121 45.4742 217.092 45.5949 217.092H58.4265C58.5471 217.092 58.6659 217.121 58.7728 217.177C58.8797 217.233 58.9716 217.314 59.0405 217.413C59.1095 217.511 59.1535 217.626 59.1688 217.745C59.1842 217.865 59.1704 217.987 59.1286 218.1L56.1986 226.037C56.2515 226.15 56.2754 226.275 56.268 226.399C56.2606 226.524 56.2222 226.645 56.1563 226.751C56.0904 226.857 55.9991 226.944 55.8907 227.006C55.7822 227.068 55.6601 227.102 55.5353 227.104ZM49.2589 225.607H54.7619L57.3538 218.589H46.6694L49.2589 225.607Z" fill="#FF7E44" stroke="#FF7E44"/>
<path d="M63.3335 247.594H40.6893C40.4981 247.594 40.3141 247.521 40.1752 247.389C40.0362 247.258 39.953 247.078 39.9424 246.887C39.9047 246.218 39.1319 230.448 48.1327 225.692C48.2406 225.635 48.3607 225.605 48.4826 225.605H55.539C55.661 225.605 55.7811 225.635 55.8889 225.692C64.891 230.448 64.1187 246.218 64.0816 246.888C64.0709 247.079 63.9874 247.259 63.8483 247.39C63.7091 247.522 63.5249 247.594 63.3335 247.594ZM41.4204 246.097H62.6054C62.6437 243.043 62.3368 230.974 55.3499 227.103H48.6717C41.679 230.977 41.378 243.043 41.4174 246.097" fill="#FF7E44"/>
<path d="M41.4204 246.097H62.6054C62.6437 243.043 62.3368 230.974 55.3499 227.103H48.6717C41.679 230.977 41.378 243.043 41.4174 246.097M63.3335 247.594H40.6893C40.4981 247.594 40.3141 247.521 40.1752 247.389C40.0362 247.258 39.953 247.078 39.9424 246.887C39.9047 246.218 39.1319 230.448 48.1327 225.692C48.2406 225.635 48.3607 225.605 48.4826 225.605H55.539C55.661 225.605 55.7811 225.635 55.8889 225.692C64.891 230.448 64.1187 246.218 64.0816 246.888C64.0709 247.079 63.9874 247.259 63.8483 247.39C63.7091 247.522 63.5249 247.594 63.3335 247.594Z" stroke="#FF7E44"/>
<path d="M52.7608 222.434H51.2634V225.987H52.7608V222.434Z" fill="#FF7E44" stroke="#FF7E44"/>
<path d="M55.9008 237.293L56.6978 233.991H55.1444L54.49 237.293H53.5887L52.8229 233.99H51.471L50.6198 237.293H49.6184L48.9221 233.991H47.344L48.1517 237.293H47.0212V238.267H48.392L49.3504 242.192H50.6593L51.6318 238.267H52.5355L53.419 242.192H54.7627L55.6775 238.266H57.0053V237.293H55.9008ZM54.0829 239.536L53.7931 238.266H54.3074L54.0829 239.536ZM52.3157 237.293H51.8675L52.1131 236.322L52.3157 237.293ZM50.3901 238.266L50.0614 239.526L49.8057 238.266L50.3901 238.266Z" fill="#FF7E44"/>
</g>
</g>
</g>
</g>
<defs>
<filter id="filter0_i_8791_516" x="0" y="0" width="420" height="420" filterUnits="userSpaceOnUse" color-interpolation-filters="sRGB">
<feFlood flood-opacity="0" result="BackgroundImageFix"/>
<feBlend mode="normal" in="SourceGraphic" in2="BackgroundImageFix" result="shape"/>
<feColorMatrix in="SourceAlpha" type="matrix" values="0 0 0 0 0 0 0 0 0 0 0 0 0 0 0 0 0 0 127 0" result="hardAlpha"/>
<feOffset/>
<feGaussianBlur stdDeviation="2"/>
<feComposite in2="hardAlpha" operator="arithmetic" k2="-1" k3="1"/>
<feColorMatrix type="matrix" values="0 0 0 0 0 0 0 0 0 0 0 0 0 0 0 0 0 0 0.16 0"/>
<feBlend mode="normal" in2="shape" result="effect1_innerShadow_8791_516"/>
</filter>
<filter id="filter1_d_8791_516" x="58" y="23" width="305" height="540" filterUnits="userSpaceOnUse" color-interpolation-filters="sRGB">
<feFlood flood-opacity="0" result="BackgroundImageFix"/>
<feColorMatrix in="SourceAlpha" type="matrix" values="0 0 0 0 0 0 0 0 0 0 0 0 0 0 0 0 0 0 127 0" result="hardAlpha"/>
<feOffset dy="1"/>
<feGaussianBlur stdDeviation="8"/>
<feComposite in2="hardAlpha" operator="out"/>
<feColorMatrix type="matrix" values="0 0 0 0 0 0 0 0 0 0 0 0 0 0 0 0 0 0 0.08 0"/>
<feBlend mode="normal" in2="BackgroundImageFix" result="effect1_dropShadow_8791_516"/>
<feBlend mode="normal" in="SourceGraphic" in2="effect1_dropShadow_8791_516" result="shape"/>
</filter>
<filter id="filter2_i_8791_516" x="85" y="50" width="251" height="482.885" filterUnits="userSpaceOnUse" color-interpolation-filters="sRGB">
<feFlood flood-opacity="0" result="BackgroundImageFix"/>
<feBlend mode="normal" in="SourceGraphic" in2="BackgroundImageFix" result="shape"/>
<feColorMatrix in="SourceAlpha" type="matrix" values="0 0 0 0 0 0 0 0 0 0 0 0 0 0 0 0 0 0 127 0" result="hardAlpha"/>
<feOffset dy="0.885417"/>
<feGaussianBlur stdDeviation="0.885417"/>
<feComposite in2="hardAlpha" operator="arithmetic" k2="-1" k3="1"/>
<feColorMatrix type="matrix" values="0 0 0 0 0.833512 0 0 0 0 0.831423 0 0 0 0 0.824016 0 0 0 0.25 0"/>
<feBlend mode="normal" in2="shape" result="effect1_innerShadow_8791_516"/>
</filter>
<filter id="filter3_d_8791_516" x="5.29443" y="187.295" width="410.411" height="91.7281" filterUnits="userSpaceOnUse" color-interpolation-filters="sRGB">
<feFlood flood-opacity="0" result="BackgroundImageFix"/>
<feColorMatrix in="SourceAlpha" type="matrix" values="0 0 0 0 0 0 0 0 0 0 0 0 0 0 0 0 0 0 127 0" result="hardAlpha"/>
<feOffset dy="1"/>
<feGaussianBlur stdDeviation="8"/>
<feComposite in2="hardAlpha" operator="out"/>
<feColorMatrix type="matrix" values="0 0 0 0 1 0 0 0 0 0.237288 0 0 0 0 0.237288 0 0 0 0.16 0"/>
<feBlend mode="normal" in2="BackgroundImageFix" result="effect1_dropShadow_8791_516"/>
<feBlend mode="normal" in="SourceGraphic" in2="effect1_dropShadow_8791_516" result="shape"/>
</filter>
<linearGradient id="paint0_linear_8791_516" x1="210" y1="0" x2="210" y2="420" gradientUnits="userSpaceOnUse">
<stop stop-color="#FFB26B"/>
<stop offset="1" stop-color="#FFCEA1"/>
</linearGradient>
<clipPath id="clip0_8791_516">
<rect width="420" height="420" rx="20" fill="white"/>
</clipPath>
</defs>
</svg>
