<svg width="421" height="420" viewBox="0 0 421 420" fill="none" xmlns="http://www.w3.org/2000/svg">
<g filter="url(#filter0_i_1884_7324)">
<g clip-path="url(#clip0_1884_7324)">
<rect width="421" height="420" rx="20" fill="url(#paint0_linear_1884_7324)" fill-opacity="0.15"/>
<g filter="url(#filter1_d_1884_7324)">
<rect x="74" y="38" width="273" height="508" rx="36" fill="#F4F4F4"/>
<g filter="url(#filter2_i_1884_7324)">
<rect x="85" y="50" width="251" height="482" rx="28" fill="white"/>
</g>
<path d="M118.923 68.0127C119.492 68.0127 120.03 68.118 120.54 68.3287C121.05 68.5345 121.5 68.8579 121.892 69.2989C122.289 69.7349 122.6 70.296 122.826 70.9819C123.051 71.663 123.164 72.4837 123.164 73.4441V73.4588C123.164 74.6494 122.992 75.6686 122.649 76.5162C122.306 77.3639 121.814 78.0156 121.172 78.4712C120.535 78.922 119.773 79.1474 118.886 79.1474C118.235 79.1474 117.647 79.0298 117.122 78.7946C116.603 78.5545 116.172 78.2262 115.829 77.8098C115.491 77.3884 115.263 76.9082 115.145 76.3692L115.131 76.2884H116.99L117.02 76.3619C117.113 76.6069 117.245 76.8225 117.416 77.0087C117.593 77.1948 117.804 77.3394 118.049 77.4423C118.298 77.5403 118.578 77.5893 118.886 77.5893C119.445 77.5893 119.901 77.4251 120.253 77.0968C120.611 76.7637 120.878 76.3202 121.055 75.7666C121.236 75.208 121.339 74.5906 121.363 73.9144C121.368 73.841 121.371 73.7699 121.371 73.7013C121.371 73.6278 121.371 73.5568 121.371 73.4882L121.04 71.7169C121.04 71.3151 120.947 70.9501 120.761 70.6218C120.574 70.2935 120.322 70.0338 120.004 69.8427C119.69 69.6517 119.335 69.5561 118.938 69.5561C118.556 69.5561 118.205 69.6492 117.887 69.8354C117.568 70.0216 117.314 70.2764 117.122 70.5998C116.931 70.9182 116.836 71.2759 116.836 71.6728V71.6875C116.836 72.0991 116.926 72.4641 117.108 72.7826C117.289 73.0962 117.537 73.3436 117.85 73.5249C118.164 73.7062 118.521 73.7969 118.923 73.7969C119.325 73.7969 119.685 73.7087 120.004 73.5323C120.322 73.3559 120.574 73.1109 120.761 72.7973C120.947 72.4837 121.04 72.1285 121.04 71.7316V71.7169H121.481V73.6719H121.224C121.096 73.9512 120.908 74.2109 120.658 74.451C120.408 74.6911 120.099 74.8846 119.732 75.0316C119.369 75.1786 118.943 75.2521 118.453 75.2521C117.777 75.2521 117.179 75.1002 116.659 74.7964C116.14 74.4926 115.731 74.0761 115.432 73.547C115.138 73.0178 114.991 72.42 114.991 71.7537V71.739C114.991 71.0187 115.158 70.3793 115.491 69.8207C115.829 69.2572 116.294 68.8162 116.887 68.4978C117.485 68.1744 118.164 68.0127 118.923 68.0127ZM126.501 77.457C126.167 77.457 125.888 77.3467 125.663 77.1262C125.442 76.9009 125.332 76.6265 125.332 76.3031C125.332 75.9748 125.442 75.7004 125.663 75.4799C125.888 75.2545 126.167 75.1418 126.501 75.1418C126.839 75.1418 127.118 75.2545 127.338 75.4799C127.559 75.7004 127.669 75.9748 127.669 76.3031C127.669 76.6265 127.559 76.9009 127.338 77.1262C127.118 77.3467 126.839 77.457 126.501 77.457ZM126.501 72.0035C126.167 72.0035 125.888 71.8933 125.663 71.6728C125.442 71.4474 125.332 71.173 125.332 70.8496C125.332 70.5214 125.442 70.247 125.663 70.0265C125.888 69.8011 126.167 69.6884 126.501 69.6884C126.839 69.6884 127.118 69.8011 127.338 70.0265C127.559 70.247 127.669 70.5214 127.669 70.8496C127.669 71.173 127.559 71.4474 127.338 71.6728C127.118 71.8933 126.839 72.0035 126.501 72.0035ZM134.982 78.8828V76.847H129.793V75.2962C130.073 74.8209 130.352 74.3432 130.631 73.863C130.915 73.3828 131.202 72.9051 131.491 72.4298C131.785 71.9496 132.077 71.4768 132.366 71.0113C132.66 70.541 132.951 70.0779 133.24 69.6223C133.534 69.1617 133.828 68.7133 134.122 68.2773H136.79V75.2815H138.223V76.847H136.79V78.8828H134.982ZM131.557 75.3256H135.012V69.7913H134.901C134.686 70.1245 134.463 70.4675 134.232 70.8202C134.007 71.173 133.779 71.5332 133.549 71.9006C133.319 72.2681 133.091 72.6381 132.865 73.0104C132.64 73.3779 132.417 73.7479 132.197 74.1202C131.976 74.4877 131.763 74.8528 131.557 75.2153V75.3256ZM142.611 78.8828V70.1441H142.479L139.84 72.0035V70.2249L142.611 68.2773H144.5V78.8828H142.611Z" fill="black"/>
<rect opacity="0.35" x="301.621" y="68.4525" width="21.25" height="10.625" rx="3.36458" stroke="black" stroke-width="0.885417"/>
<path opacity="0.4" d="M324.199 72.2422V75.8507C324.911 75.5451 325.375 74.8341 325.375 74.0464C325.375 73.2588 324.911 72.5478 324.199 72.2422Z" fill="black"/>
<rect x="302.949" y="69.7812" width="18.5938" height="7.96875" rx="2.21354" fill="black"/>
<path fill-rule="evenodd" clip-rule="evenodd" d="M287.251 70.7579C289.453 70.758 291.571 71.5744 293.167 73.0384C293.287 73.1515 293.479 73.15 293.598 73.0352L294.747 71.9166C294.806 71.8583 294.84 71.7795 294.839 71.6974C294.839 71.6153 294.805 71.5368 294.744 71.4793C290.555 67.6059 283.946 67.6059 279.758 71.4793C279.697 71.5368 279.662 71.6153 279.662 71.6973C279.661 71.7794 279.695 71.8583 279.755 71.9166L280.904 73.0352C281.022 73.1502 281.214 73.1516 281.334 73.0384C282.931 71.5743 285.049 70.7579 287.251 70.7579ZM287.248 74.4946C288.45 74.4945 289.609 74.9476 290.5 75.7659C290.62 75.882 290.81 75.8795 290.927 75.7602L292.067 74.5921C292.127 74.5308 292.16 74.4477 292.16 74.3613C292.159 74.2749 292.124 74.1925 292.063 74.1325C289.35 71.5729 285.149 71.5729 282.436 74.1325C282.375 74.1925 282.34 74.275 282.339 74.3614C282.338 74.4478 282.371 74.5309 282.432 74.5921L283.571 75.7602C283.689 75.8795 283.878 75.882 283.999 75.7659C284.889 74.9482 286.047 74.4951 287.248 74.4946ZM289.483 76.9681C289.485 77.0613 289.452 77.1513 289.393 77.2166L287.465 79.3901C287.409 79.454 287.332 79.4899 287.251 79.4899C287.171 79.4899 287.094 79.454 287.038 79.3901L285.11 77.2166C285.05 77.1512 285.018 77.0613 285.019 76.968C285.021 76.8747 285.057 76.7864 285.119 76.7239C286.35 75.5605 288.153 75.5605 289.384 76.7239C289.445 76.7864 289.482 76.8748 289.483 76.9681Z" fill="black"/>
<path fill-rule="evenodd" clip-rule="evenodd" d="M273.022 69.4993C273.022 68.9388 272.599 68.4844 272.078 68.4844H271.133C270.611 68.4844 270.189 68.9388 270.189 69.4993V78.295C270.189 78.8555 270.611 79.3098 271.133 79.3098H272.078C272.599 79.3098 273.022 78.8555 273.022 78.295V69.4993ZM266.44 70.6495H267.384C267.906 70.6495 268.329 71.1148 268.329 71.6887V78.2706C268.329 78.8446 267.906 79.3098 267.384 79.3098H266.44C265.918 79.3098 265.495 78.8446 265.495 78.2706V71.6887C265.495 71.1148 265.918 70.6495 266.44 70.6495ZM262.604 72.995H261.66C261.138 72.995 260.715 73.4662 260.715 74.0475V78.2574C260.715 78.8386 261.138 79.3098 261.66 79.3098H262.604C263.126 79.3098 263.549 78.8386 263.549 78.2574V74.0475C263.549 73.4662 263.126 72.995 262.604 72.995ZM257.911 75.1601H256.966C256.445 75.1601 256.022 75.6246 256.022 76.1975V78.2724C256.022 78.8454 256.445 79.3098 256.966 79.3098H257.911C258.432 79.3098 258.855 78.8454 258.855 78.2724V76.1975C258.855 75.6246 258.432 75.1601 257.911 75.1601Z" fill="black"/>
</g>
<path d="M100.058 128.293H101.944V141H100.008V130.229H99.9338L96.8997 132.208V130.365L100.058 128.293ZM108.112 128.293H109.998V141H108.063V130.229H107.988L104.954 132.208V130.365L108.112 128.293ZM121.031 135.242V134.193H124.096V126.779H125.771V135.999H124.096V135.242H121.031ZM117.761 131.767C115.379 131.767 113.821 130.886 113.821 129.416C113.821 127.976 115.379 127.052 117.761 127.052C120.1 127.052 121.67 127.976 121.683 129.416C121.67 130.886 120.1 131.767 117.761 131.767ZM117.761 128.175C116.309 128.175 115.385 128.665 115.397 129.416C115.385 130.167 116.309 130.651 117.761 130.651C119.188 130.651 120.113 130.167 120.113 129.416C120.113 128.665 119.188 128.175 117.761 128.175ZM118.493 136.036H116.849V133.741C115.434 133.784 114.069 133.784 112.841 133.778L112.649 132.58C115.695 132.586 119.542 132.555 122.93 132.202L123.029 133.269C121.54 133.474 120.001 133.598 118.493 133.678V136.036ZM116.706 139.92V141.13H126.243V142.34H115.068V138.804H124.115V137.693H115.006V136.526H125.771V139.92H116.706ZM143.982 136.26V126.766H145.651V136.26H143.982ZM137.616 132.196C136.908 133.902 135.512 135.261 133.638 135.912L132.776 134.622C135.227 133.784 136.735 131.73 136.747 129.59V129.155H133.21V127.809H141.891V129.155H138.428V129.59C138.428 131.619 139.93 133.548 142.362 134.318L141.512 135.608C139.7 135.012 138.329 133.772 137.616 132.196ZM143.982 138.4H134.991V137.048H145.651V142.489H143.982V138.4ZM156.378 137.197V136.018H159.542V126.779H161.218V138.704H159.542V137.197H156.378ZM153.207 132.89C150.874 132.89 149.286 131.829 149.286 130.148C149.286 128.491 150.874 127.381 153.207 127.381C155.503 127.381 157.098 128.491 157.11 130.148C157.098 131.829 155.503 132.89 153.207 132.89ZM153.207 128.622C151.811 128.615 150.862 129.217 150.868 130.148C150.862 131.085 151.811 131.668 153.207 131.668C154.548 131.668 155.509 131.085 155.522 130.148C155.509 129.217 154.548 128.615 153.207 128.622ZM154.2 138.214H152.537V135.236C151.011 135.292 149.547 135.304 148.268 135.298L148.057 133.958C150.967 133.939 154.889 133.908 158.239 133.486L158.351 134.69C156.998 134.913 155.59 135.056 154.2 135.143V138.214ZM151.898 137.538V140.801H161.59V142.166H150.235V137.538H151.898ZM179.428 126.779H181.097V138.208H179.428V126.779ZM172.559 135.645C170.189 135.652 168.371 134.045 168.371 131.736C168.371 129.459 170.189 127.846 172.559 127.846C174.929 127.846 176.735 129.459 176.735 131.736C176.735 134.045 174.929 135.652 172.559 135.645ZM170.003 131.736C169.991 133.213 171.095 134.193 172.559 134.193C173.999 134.193 175.103 133.213 175.103 131.736C175.103 130.285 173.999 129.298 172.559 129.298C171.095 129.298 169.991 130.285 170.003 131.736ZM172.485 137.048V140.801H181.556V142.166H170.81V137.048H172.485ZM191.762 132.903V131.525H195.026V126.779H196.689V138.357H195.026V132.903H191.762ZM191.855 127.964C191.843 132.065 189.026 135.155 184.515 136.613L183.814 135.279C187.313 134.15 189.69 132.009 190.031 129.348H184.614V127.964H191.855ZM188.25 137.178V140.801H197.086V142.166H186.556V137.178H188.25ZM210.462 126.766H212.138V142.52H210.462V126.766ZM199.983 128.076H201.645V132.115H205.889V128.076H207.534V138.76H199.983V128.076ZM201.645 133.436V137.383H205.889V133.436H201.645ZM218.186 131.37H227.369V132.704H216.536V127.337H218.186V131.37ZM214.619 136.018V134.684H229.007V136.018H214.619ZM216.418 137.513H218.075V140.758H227.469V142.117H216.418V137.513Z" fill="black"/>
<path d="M105.481 160.351H107.082V162.466H105.481V164.719H102.962V162.466H96.788V160.388L102.167 152.012H105.481V160.351ZM102.881 154.903L99.4498 160.251V160.351H102.999V154.903H102.881ZM108.898 163.416H111.398L109.884 168.411H108.029L108.898 163.416ZM118.146 164.992C114.963 164.986 113.033 162.553 113.045 158.378C113.052 154.214 114.975 151.838 118.146 151.838C121.316 151.838 123.252 154.227 123.246 158.378C123.246 162.566 121.322 164.992 118.146 164.992ZM118.146 162.795C119.616 162.795 120.559 161.319 120.559 158.378C120.553 155.474 119.61 154.009 118.146 154.009C116.681 154.009 115.738 155.474 115.732 158.378C115.726 161.319 116.675 162.795 118.146 162.795ZM133.557 160.351H135.158V162.466H133.557V164.719H131.038V162.466H124.864V160.388L130.244 152.012H133.557V160.351ZM130.957 154.903L127.526 160.251V160.351H131.075V154.903H130.957ZM141.817 164.992C138.634 164.986 136.705 162.553 136.717 158.378C136.723 154.214 138.647 151.838 141.817 151.838C144.988 151.838 146.924 154.227 146.918 158.378C146.918 162.566 144.994 164.992 141.817 164.992ZM141.817 162.795C143.288 162.795 144.231 161.319 144.231 158.378C144.225 155.474 143.282 154.009 141.817 154.009C140.353 154.009 139.41 155.474 139.404 158.378C139.398 161.319 140.347 162.795 141.817 162.795ZM148.573 163.416H151.074L149.56 168.411H147.704L148.573 163.416ZM157.821 164.992C154.638 164.986 152.708 162.553 152.721 158.378C152.727 154.214 154.65 151.838 157.821 151.838C160.991 151.838 162.927 154.227 162.921 158.378C162.921 162.566 160.998 164.992 157.821 164.992ZM157.821 162.795C159.291 162.795 160.234 161.319 160.234 158.378C160.228 155.474 159.285 154.009 157.821 154.009C156.356 154.009 155.413 155.474 155.407 158.378C155.401 161.319 156.35 162.795 157.821 162.795ZM169.683 164.992C166.5 164.986 164.57 162.553 164.583 158.378C164.589 154.214 166.512 151.838 169.683 151.838C172.854 151.838 174.789 154.227 174.783 158.378C174.783 162.566 172.86 164.992 169.683 164.992ZM169.683 162.795C171.153 162.795 172.097 161.319 172.097 158.378C172.09 155.474 171.147 154.009 169.683 154.009C168.219 154.009 167.276 155.474 167.269 158.378C167.263 161.319 168.212 162.795 169.683 162.795ZM181.545 164.992C178.362 164.986 176.433 162.553 176.445 158.378C176.451 154.214 178.375 151.838 181.545 151.838C184.716 151.838 186.652 154.227 186.645 158.378C186.645 162.566 184.722 164.992 181.545 164.992ZM181.545 162.795C183.016 162.795 183.959 161.319 183.959 158.378C183.953 155.474 183.009 154.009 181.545 154.009C180.081 154.009 179.138 155.474 179.132 158.378C179.125 161.319 180.075 162.795 181.545 162.795ZM196.181 161.17V159.643H199.234V150.38H201.48V162.448H199.234V161.17H196.181ZM193.085 156.603C190.715 156.603 189.07 155.499 189.07 153.786C189.07 152.086 190.715 150.913 193.085 150.92C195.411 150.913 197.068 152.086 197.074 153.786C197.068 155.499 195.411 156.603 193.085 156.603ZM193.085 152.558C191.949 152.558 191.186 152.992 191.192 153.786C191.186 154.562 191.949 154.984 193.085 154.984C194.164 154.984 194.94 154.562 194.946 153.786C194.94 152.992 194.164 152.558 193.085 152.558ZM192.166 162.063V164.253H201.833V166.059H189.927V161.288H192.166V159.159C190.733 159.215 189.368 159.228 188.152 159.228L187.885 157.459C190.82 157.434 194.766 157.397 198.142 156.969L198.272 158.576C197.012 158.787 195.703 158.93 194.413 159.029V162.063H192.166Z" fill="#12997A"/>
<path d="M214.583 150.355H216.848V166.375H214.583V150.355ZM208.174 151.484C210.587 151.484 212.374 153.693 212.381 157.168C212.374 160.68 210.587 162.876 208.174 162.876C205.729 162.876 203.942 160.68 203.948 157.168C203.942 153.693 205.729 151.484 208.174 151.484ZM208.174 153.507C206.933 153.507 206.101 154.804 206.114 157.168C206.101 159.556 206.933 160.847 208.174 160.847C209.39 160.847 210.215 159.556 210.215 157.168C210.215 154.804 209.39 153.507 208.174 153.507ZM230.709 166.338V150.355H232.849V166.338H230.709ZM226.105 156.268H227.408V150.603H229.523V165.6H227.408V158.055H226.123C225.931 161.188 224.591 163.087 222.618 163.081C220.514 163.087 219.143 160.872 219.149 157.273C219.143 153.705 220.514 151.503 222.618 151.503C224.541 151.503 225.863 153.296 226.105 156.268ZM222.618 160.934C223.542 160.94 224.088 159.736 224.088 157.273C224.088 154.835 223.542 153.612 222.618 153.619C221.724 153.612 221.197 154.835 221.209 157.273C221.197 159.736 221.724 160.94 222.618 160.934ZM245.903 158.682V162.64H249.148V164.464H234.542V162.64H237.8V158.719C236.565 157.974 235.82 156.839 235.827 155.43C235.82 152.849 238.352 151.143 241.814 151.143C245.276 151.143 247.833 152.849 247.833 155.43C247.833 156.82 247.107 157.937 245.903 158.682ZM241.814 152.911C239.531 152.899 238.029 153.83 238.029 155.43C238.029 157 239.531 157.962 241.814 157.968C244.079 157.962 245.618 157 245.624 155.43C245.618 153.83 244.079 152.899 241.814 152.911ZM240.015 159.532V162.64H243.638V159.532C243.068 159.637 242.46 159.699 241.814 159.699C241.181 159.699 240.579 159.643 240.015 159.532Z" fill="black"/>
<path d="M105.787 190.319V178.37H107.06V190.319H105.787ZM101.557 180.619V181.897C101.557 183.892 102.868 185.957 104.707 186.74L104.014 187.74C102.604 187.117 101.491 185.797 100.934 184.213C100.378 185.91 99.2557 187.363 97.8693 188.037L97.129 187.037C98.9303 186.198 100.265 183.949 100.274 181.897V180.619H97.5487V179.572H104.283V180.619H101.557ZM118.353 178.379V181.864H120.084V182.939H118.353V186.995H117.085V178.379H118.353ZM115.948 183.331L116.094 184.378C114.09 184.788 112.261 184.896 110.483 184.896H109.507V179.219H110.78V183.831C112.397 183.826 114.1 183.717 115.948 183.331ZM110.808 186.165H112.077V189.037H118.768V190.074H110.808V186.165ZM130.156 178.37V180.808H131.886V181.855H130.156V184.368H128.887V178.37H130.156ZM127.689 182.557L127.836 183.557C126.181 183.916 124.719 183.972 122.219 183.967H121.272V179.04H126.6V180.058H122.521V182.963C124.78 182.958 126.133 182.869 127.689 182.557ZM130.156 187.99H123.7V189.14H130.561V190.168H122.455V187.018H128.897V185.948H122.427V184.929H130.156V187.99ZM145.137 183.185H146.839V184.217H135.904V183.185H143.892C144.179 181.812 144.194 180.808 144.194 179.931H137.271V178.898H145.453V179.804C145.453 180.709 145.453 181.737 145.137 183.185ZM138.535 186.674H144.175V185.193H145.429V190.168H137.285V185.193H138.535V186.674ZM138.535 189.136H144.175V187.66H138.535V189.136ZM156.416 180.968V178.37H157.67V190.343H156.416V185.759H153.544C153.035 186.962 152.101 187.66 150.946 187.66C149.159 187.66 147.904 186.033 147.914 183.458C147.904 180.898 149.159 179.271 150.946 179.266C152.035 179.271 152.926 179.888 153.454 180.968H156.416ZM150.946 186.523C152.021 186.523 152.766 185.354 152.766 183.458C152.766 181.577 152.021 180.407 150.946 180.398C149.861 180.407 149.121 181.577 149.121 183.458C149.121 185.354 149.861 186.523 150.946 186.523ZM153.851 184.727H156.416V182.01H153.813C153.912 182.449 153.964 182.935 153.964 183.458C153.964 183.911 153.921 184.335 153.851 184.727ZM168.567 190.319V178.37H169.784V190.319H168.567ZM164.8 182.949H166.148V178.601H167.355V189.73H166.148V183.977H164.804C164.686 186.311 163.691 187.754 162.211 187.749C160.655 187.754 159.641 186.127 159.641 183.529C159.641 180.945 160.655 179.327 162.211 179.327C163.663 179.327 164.649 180.704 164.8 182.949ZM162.211 186.542C163.092 186.552 163.639 185.434 163.639 183.529C163.639 181.628 163.092 180.516 162.211 180.516C161.352 180.516 160.81 181.628 160.82 183.529C160.81 185.434 161.352 186.552 162.211 186.542ZM183.27 178.37H184.543V190.343H183.27V178.37ZM175.305 179.365H176.569V182.435H179.795V179.365H181.044V187.485H175.305V179.365ZM176.569 183.439V186.438H179.795V183.439H176.569ZM195.473 183.35V178.37H196.681V190.319H195.473V184.382H194.096V189.758H192.903V178.639H194.096V183.35H195.473ZM188.768 178.724H190.022V180.351H192.347V181.374H186.419V180.351H188.768V178.724ZM189.395 182.091C190.904 182.091 191.984 183.232 191.993 184.84C191.984 186.471 190.904 187.617 189.395 187.617C187.891 187.617 186.797 186.471 186.806 184.84C186.797 183.232 187.891 182.091 189.395 182.091ZM189.395 186.528C190.253 186.537 190.871 185.854 190.871 184.84C190.871 183.845 190.253 183.152 189.395 183.147C188.532 183.152 187.919 183.845 187.919 184.84C187.919 185.854 188.532 186.537 189.395 186.528ZM204.225 179.53H205.659V189.188H204.187V181.001H204.131L201.825 182.506V181.105L204.225 179.53ZM211.539 189.32C209.545 189.32 208.121 188.244 208.069 186.665H209.554C209.606 187.513 210.45 188.056 211.525 188.056C212.695 188.056 213.543 187.419 213.539 186.485C213.543 185.528 212.751 184.844 211.365 184.844H210.544V183.647H211.365C212.468 183.647 213.237 183.034 213.237 182.109C213.237 181.223 212.577 180.629 211.558 180.629C210.587 180.629 209.724 181.166 209.686 182.039H208.271C208.319 180.468 209.766 179.398 211.572 179.398C213.468 179.398 214.666 180.6 214.656 182.034C214.666 183.123 213.987 183.916 212.949 184.165V184.241C214.26 184.425 215.029 185.311 215.019 186.537C215.029 188.145 213.543 189.32 211.539 189.32ZM220.009 189.32C217.916 189.32 216.449 188.183 216.459 186.613C216.449 185.377 217.34 184.363 218.472 184.18V184.128C217.486 183.911 216.822 183.024 216.822 181.973C216.822 180.487 218.166 179.398 220.009 179.398C221.834 179.398 223.178 180.487 223.183 181.973C223.178 183.029 222.504 183.911 221.537 184.128V184.18C222.659 184.363 223.551 185.377 223.56 186.613C223.551 188.183 222.079 189.32 220.009 189.32ZM220.009 183.633C221.018 183.633 221.754 183.01 221.754 182.1C221.754 181.204 221.042 180.596 220.009 180.596C218.953 180.596 218.255 181.204 218.255 182.1C218.255 183.01 218.981 183.633 220.009 183.633ZM220.009 188.122C221.264 188.122 222.065 187.471 222.065 186.514C222.065 185.524 221.198 184.797 220.009 184.797C218.812 184.797 217.939 185.524 217.953 186.514C217.939 187.466 218.736 188.122 220.009 188.122ZM225.031 188.254H226.521L225.451 191.941H224.319L225.031 188.254ZM231.58 189.32C229.746 189.32 228.374 188.207 228.312 186.665H229.741C229.812 187.49 230.599 188.089 231.58 188.089C232.75 188.089 233.589 187.245 233.589 186.094C233.589 184.92 232.721 184.066 231.514 184.057C230.731 184.052 230.142 184.312 229.807 184.906H228.426L229.057 179.53H234.527V180.789H230.274L229.944 183.486H230.038C230.444 183.109 231.118 182.845 231.854 182.845C233.674 182.845 235.018 184.189 235.013 186.061C235.018 187.957 233.584 189.32 231.58 189.32ZM239.933 189.343C237.702 189.343 236.387 187.528 236.391 184.363C236.391 181.218 237.716 179.398 239.933 179.398C242.154 179.398 243.479 181.223 243.479 184.363C243.479 187.528 242.168 189.343 239.933 189.343ZM239.933 188.079C241.239 188.079 242.017 186.773 242.017 184.363C242.017 181.959 241.23 180.648 239.933 180.648C238.641 180.648 237.853 181.959 237.853 184.363C237.848 186.773 238.631 188.079 239.933 188.079ZM248.361 189.343C246.131 189.343 244.815 187.528 244.82 184.363C244.82 181.218 246.145 179.398 248.361 179.398C250.582 179.398 251.907 181.223 251.907 184.363C251.907 187.528 250.596 189.343 248.361 189.343ZM248.361 188.079C249.667 188.079 250.446 186.773 250.446 184.363C250.446 181.959 249.658 180.648 248.361 180.648C247.069 180.648 246.282 181.959 246.282 184.363C246.277 186.773 247.06 188.079 248.361 188.079ZM259.284 186.297V185.401H261.689V178.379H262.962V187.443H261.689V186.297H259.284ZM256.875 183.024C255.102 183.024 253.894 182.218 253.894 180.94C253.894 179.681 255.102 178.837 256.875 178.837C258.619 178.837 259.831 179.681 259.841 180.94C259.831 182.218 258.619 183.024 256.875 183.024ZM256.875 179.78C255.814 179.775 255.092 180.233 255.097 180.94C255.092 181.652 255.814 182.095 256.875 182.095C257.893 182.095 258.624 181.652 258.633 180.94C258.624 180.233 257.893 179.775 256.875 179.78ZM257.629 187.07H256.365V184.807C255.205 184.849 254.092 184.859 253.121 184.854L252.961 183.835C255.172 183.821 258.152 183.798 260.699 183.477L260.784 184.392C259.756 184.562 258.685 184.67 257.629 184.736V187.07ZM255.88 186.556V189.037H263.245V190.074H254.616V186.556H255.88ZM269.121 182.779L268.71 181.822C270.879 181.647 272.572 180.808 272.836 179.756H269.154V178.761H278.071V179.756H274.364C274.614 180.803 276.321 181.647 278.509 181.822L278.094 182.779C276.038 182.59 274.322 181.85 273.6 180.718C272.874 181.85 271.167 182.59 269.121 182.779ZM279.051 183.284V184.297H274.223V185.358H277.67V188.193H270.719V189.225H278.014V190.206H269.479V187.282H276.425V186.311H269.455V185.358H272.968V184.297H268.159V183.284H279.051ZM283.262 184.67C281.465 184.67 280.14 183.501 280.14 181.845C280.14 180.2 281.465 179.021 283.262 179.03C284.813 179.021 286.044 179.945 286.313 181.298H288.657V178.37H289.92V185.151H288.657V182.336H286.327C286.082 183.727 284.837 184.67 283.262 184.67ZM283.262 180.091C282.159 180.086 281.347 180.799 281.357 181.845C281.347 182.883 282.159 183.614 283.262 183.618C284.347 183.614 285.153 182.883 285.158 181.845C285.153 180.799 284.347 180.086 283.262 180.091ZM288.657 185.608V186.25C288.657 187.49 289.468 188.711 291.052 189.221L290.397 190.164C289.222 189.744 288.425 188.942 288.015 187.961C287.633 188.919 286.912 189.805 285.808 190.263C284.677 189.834 283.955 188.985 283.583 188.004C283.153 188.942 282.361 189.739 281.239 190.164L280.617 189.221C282.149 188.683 282.974 187.419 282.979 186.25V185.608H284.205V186.25C284.196 187.292 284.71 188.376 285.794 189.041C286.888 188.32 287.407 187.165 287.416 186.25V185.608H288.657ZM300.473 182.85V178.37H301.728V190.343H300.473V183.882H298.007C297.875 186.212 296.668 187.66 295.003 187.66C293.216 187.66 291.962 186.033 291.971 183.458C291.962 180.898 293.216 179.271 295.003 179.266C296.621 179.271 297.809 180.643 297.998 182.85H300.473ZM295.003 186.523C296.078 186.523 296.823 185.354 296.823 183.458C296.823 181.577 296.078 180.407 295.003 180.398C293.919 180.407 293.178 181.577 293.178 183.458C293.178 185.354 293.919 186.523 295.003 186.523ZM311.88 184.632V187.782H314.501V188.829H303.566V187.782H306.183V184.656C305.198 184.118 304.599 183.26 304.599 182.19C304.599 180.308 306.443 179.073 309.003 179.063C311.573 179.073 313.422 180.308 313.422 182.19C313.422 183.246 312.842 184.09 311.88 184.632ZM309.003 180.086C307.131 180.077 305.83 180.898 305.83 182.19C305.83 183.468 307.131 184.302 309.003 184.302C310.866 184.302 312.186 183.468 312.186 182.19C312.186 180.898 310.866 180.077 309.003 180.086ZM307.428 185.123V187.782H310.602V185.118C310.111 185.231 309.574 185.292 309.003 185.292C308.437 185.292 307.909 185.231 307.428 185.123ZM316.727 189.277C316.203 189.277 315.769 188.853 315.779 188.334C315.769 187.815 316.203 187.391 316.727 187.391C317.236 187.391 317.67 187.815 317.67 188.334C317.67 188.853 317.236 189.277 316.727 189.277Z" fill="#AAAAAA"/>
<path d="M103.565 108.324H104.95V109.009H96.3797V108.324H102.757C103.006 107.159 103.006 106.325 103.006 105.614H97.4668V104.929H103.825V105.614C103.825 106.325 103.825 107.159 103.565 108.324ZM98.3156 111.094H102.999V109.851H103.818V113.73H97.4966V109.851H98.3156V111.094ZM98.3156 113.052H102.999V111.749H98.3156V113.052ZM112.637 106.589V104.497H113.456V113.871H112.637V110.238H110.236C109.845 111.187 109.119 111.742 108.214 111.742C106.829 111.742 105.861 110.476 105.869 108.481C105.861 106.493 106.829 105.227 108.214 105.219C109.074 105.223 109.774 105.726 110.176 106.589H112.637ZM108.214 111.005C109.13 111.005 109.77 110.007 109.77 108.481C109.77 106.962 109.13 105.964 108.214 105.956C107.291 105.964 106.658 106.962 106.658 108.481C106.658 110.007 107.291 111.005 108.214 111.005ZM110.444 109.553H112.637V107.282H110.414C110.504 107.643 110.552 108.045 110.552 108.481C110.552 108.868 110.515 109.225 110.444 109.553ZM122.223 108.257V104.497H123.012V113.856H122.223V108.942H120.853V113.365H120.086V104.706H120.853V108.257H122.223ZM116.184 106.321V110.833C117.476 110.83 118.366 110.777 119.401 110.565L119.475 111.258C118.351 111.496 117.398 111.533 115.961 111.541H115.358V105.644H118.865V106.321H116.184ZM131.652 104.497V106.887H133.059V107.58H131.652V110.148H130.826V104.497H131.652ZM127.11 107.654C126.708 108.726 125.845 109.564 124.72 109.97L124.296 109.307C125.703 108.83 126.678 107.624 126.686 106.277V105.875H124.549V105.19H129.605V105.875H127.505V106.269C127.505 107.498 128.421 108.592 129.798 109.046L129.404 109.694C128.328 109.337 127.512 108.592 127.11 107.654ZM128.652 110.401C130.572 110.401 131.734 111.027 131.734 112.107C131.734 113.201 130.572 113.834 128.652 113.834C126.723 113.834 125.547 113.201 125.547 112.107C125.547 111.027 126.723 110.401 128.652 110.401ZM128.652 113.171C130.066 113.171 130.93 112.777 130.93 112.107C130.93 111.451 130.066 111.064 128.652 111.064C127.237 111.064 126.366 111.451 126.373 112.107C126.366 112.777 127.237 113.171 128.652 113.171ZM143.266 113.856V104.497H144.093V113.856H143.266ZM136.908 105.517H141.323C141.315 108.205 140.065 110.588 136.923 112.099L136.476 111.422C139.007 110.223 140.299 108.421 140.482 106.187H136.908V105.517ZM146.508 108.629L146.196 107.974C147.849 107.751 149.405 106.813 149.405 105.666V105.644H146.456V104.966H153.44V105.644H150.477V105.666C150.469 106.813 152.04 107.751 153.693 107.974L153.373 108.629C151.858 108.41 150.447 107.658 149.941 106.563C149.431 107.658 148.024 108.41 146.508 108.629ZM145.66 109.999V109.314H154.229V109.999H150.417V111.913H149.598V109.999H145.66ZM146.762 110.982H147.588V112.963H153.276V113.648H146.762V110.982Z" fill="#8A8A8B"/>
<path d="M312.344 245H109.656C102.114 245 96 251.114 96 258.656V354.969C96 362.511 102.114 368.625 109.656 368.625H312.344C319.886 368.625 326 362.511 326 354.969V258.656C326 251.114 319.886 245 312.344 245Z" fill="#FAFAFA"/>
<path d="M312.344 379.5H109.656C102.114 379.5 96 385.614 96 393.156V489.469C96 497.011 102.114 503.125 109.656 503.125H312.344C319.886 503.125 326 497.011 326 489.469V393.156C326 385.614 319.886 379.5 312.344 379.5Z" fill="#FAFAFA"/>
<path d="M99.5806 224.353C98.3141 224.353 97.2873 223.326 97.2873 222.06C97.2873 220.793 98.3141 219.766 99.5806 219.766C100.847 219.766 101.874 220.793 101.874 222.06C101.874 223.326 100.847 224.353 99.5806 224.353ZM116.236 214.268H118.123V223.91H116.236V214.268ZM114.433 218.5C114.433 220.496 112.827 221.903 110.769 221.903C108.71 221.903 107.094 220.496 107.099 218.5C107.094 216.535 108.71 215.117 110.769 215.117C112.827 215.117 114.433 216.535 114.433 218.5ZM108.939 218.5C108.929 219.62 109.721 220.267 110.769 220.267C111.785 220.267 112.577 219.62 112.577 218.5C112.577 217.411 111.785 216.754 110.769 216.754C109.721 216.754 108.929 217.411 108.939 218.5ZM111.034 222.935V225.922H118.477V227.438H109.132V222.935H111.034ZM126.967 219.688V218.151H129.369V214.268H131.246V224.077H129.369V219.688H126.967ZM127.092 215.253C127.087 218.854 124.804 221.512 120.879 222.737L120.108 221.236C122.896 220.376 124.689 218.766 125.033 216.79H120.806V215.253H127.092ZM124.309 223.081V225.922H131.585V227.438H122.396V223.081H124.309ZM142.31 214.247H144.212V227.704H142.31V214.247ZM133.653 215.326H135.535V218.583H138.427V215.326H140.277V224.561H133.653V215.326ZM135.535 220.048V223.034H138.427V220.048H135.535ZM159.959 220.746H161.747V222.263H156.514V227.683H154.617V222.263H149.51V220.746H158.062C158.401 219.011 158.432 217.697 158.438 216.535H150.912V215.039H160.309V216.243C160.303 217.494 160.303 218.865 159.959 220.746ZM173.859 222.117H171.983V218.25H169.465V216.712H171.983V214.247H173.859V222.117ZM166.714 219.042C166.114 220.439 165.035 221.538 163.425 222.08L162.424 220.579C164.728 219.839 165.713 218.041 165.723 216.165V214.95H167.62V216.076C167.61 217.874 168.538 219.532 170.695 220.199L169.695 221.669C168.251 221.174 167.276 220.246 166.714 219.042ZM169.273 222.461C172.139 222.461 173.89 223.425 173.896 225.072C173.89 226.729 172.139 227.673 169.273 227.668C166.416 227.673 164.66 226.729 164.665 225.072C164.66 223.425 166.416 222.461 169.273 222.461ZM169.273 226.203C171.055 226.208 172.024 225.817 172.03 225.072C172.024 224.306 171.055 223.92 169.273 223.92C167.495 223.92 166.531 224.306 166.536 225.072C166.531 225.817 167.495 226.208 169.273 226.203ZM184.923 214.247H186.826V227.704H184.923V214.247ZM176.266 215.326H178.148V218.583H181.041V215.326H182.891V224.561H176.266V215.326ZM178.148 220.048V223.034H181.041V220.048H178.148ZM194.753 218.958C191.657 218.958 189.864 218.151 189.869 216.665C189.864 215.185 191.657 214.377 194.753 214.372C197.843 214.377 199.626 215.185 199.631 216.665C199.626 218.151 197.843 218.958 194.753 218.958ZM194.753 215.758C192.788 215.764 191.829 216.061 191.839 216.665C191.829 217.317 192.788 217.583 194.753 217.583C196.744 217.583 197.692 217.317 197.692 216.665C197.692 216.061 196.744 215.764 194.753 215.758ZM200.882 219.516V220.991H197.817V221.929H199.386V225.354H191.912V226.161H199.735V227.579H190.067V224.04H197.531V223.31H190.057V221.929H191.719V220.991H188.644V219.516H200.882ZM193.58 221.929H195.941V220.991H193.58V221.929Z" fill="black"/>
<path d="M121.759 269.922H123.042V278.562H121.726V271.238H121.675L119.612 272.584V271.331L121.759 269.922ZM127.236 269.922H128.519V278.562H127.203V271.238H127.152L125.089 272.584V271.331L127.236 269.922ZM136.021 274.647V273.934H138.105V268.892H139.245V275.162H138.105V274.647H136.021ZM133.798 272.284C132.177 272.284 131.118 271.685 131.118 270.685C131.118 269.706 132.177 269.078 133.798 269.078C135.388 269.078 136.456 269.706 136.464 270.685C136.456 271.685 135.388 272.284 133.798 272.284ZM133.798 269.841C132.81 269.841 132.182 270.175 132.19 270.685C132.182 271.196 132.81 271.525 133.798 271.525C134.768 271.525 135.397 271.196 135.397 270.685C135.397 270.175 134.768 269.841 133.798 269.841ZM134.295 275.187H133.177V273.626C132.215 273.656 131.287 273.656 130.452 273.651L130.321 272.837C132.393 272.841 135.008 272.82 137.312 272.58L137.38 273.305C136.367 273.445 135.321 273.529 134.295 273.584V275.187ZM133.08 277.828V278.651H139.565V279.474H131.966V277.069H138.118V276.314H131.924V275.52H139.245V277.828H133.08ZM151.999 273.069V268.884H153.087V279.575H151.999V274.006H150.682V279.048H149.607V269.09H150.682V273.069H151.999ZM148.404 276.757H144.252V270.086H148.404V276.757ZM147.341 270.985H145.32V275.858H147.341V270.985ZM155.264 273.154L154.939 272.301C156.99 272.187 158.433 271.559 158.66 270.652H155.433V269.787H158.762V268.842H159.876V269.787H163.221V270.652H159.973C160.196 271.559 161.639 272.187 163.707 272.301L163.365 273.154C161.504 273.018 159.985 272.478 159.319 271.542C158.652 272.478 157.133 273.018 155.264 273.154ZM164.188 273.575V274.423H159.88V275.318H162.964V277.731H156.745V278.613H163.272V279.474H155.635V276.947H161.85V276.145H155.614V275.318H158.757V274.423H154.467V273.575H164.188Z" fill="black"/>
<path d="M122.768 295.233C120.772 295.233 119.595 293.609 119.599 290.778C119.599 287.963 120.785 286.335 122.768 286.335C124.755 286.335 125.941 287.968 125.941 290.778C125.941 293.609 124.768 295.233 122.768 295.233ZM122.768 294.102C123.936 294.102 124.633 292.934 124.633 290.778C124.633 288.626 123.928 287.453 122.768 287.453C121.612 287.453 120.907 288.626 120.907 290.778C120.903 292.934 121.603 294.102 122.768 294.102ZM135.338 285.411V288.609H136.887V289.554H135.338V293.237H134.203V285.411H135.338ZM127.347 286.356H132.355V291.351H127.347V286.356ZM128.457 290.448H131.246V287.271H128.457V290.448ZM128.562 292.486H129.689V294.959H135.794V295.887H128.562V292.486ZM143.101 292.507V291.706H145.253V285.423H146.392V293.533H145.253V292.507H143.101ZM140.945 289.579C139.359 289.579 138.279 288.858 138.279 287.714C138.279 286.588 139.359 285.833 140.945 285.833C142.506 285.833 143.591 286.588 143.599 287.714C143.591 288.858 142.506 289.579 140.945 289.579ZM140.945 286.676C139.996 286.672 139.35 287.082 139.354 287.714C139.35 288.351 139.996 288.748 140.945 288.748C141.856 288.748 142.51 288.351 142.519 287.714C142.51 287.082 141.856 286.672 140.945 286.676ZM141.62 293.199H140.489V291.174C139.451 291.212 138.456 291.221 137.587 291.216L137.443 290.305C139.422 290.292 142.088 290.271 144.367 289.984L144.443 290.803C143.523 290.955 142.565 291.052 141.62 291.111V293.199ZM140.055 292.739V294.959H146.645V295.887H138.924V292.739H140.055ZM156.151 289.655V285.415H157.226V296.106H156.151V290.579H154.767V295.558H153.72V285.634H154.767V289.655H156.151ZM149.552 287.622V292.579C150.864 292.566 151.851 292.507 152.99 292.288L153.083 293.225C151.792 293.49 150.687 293.528 149.126 293.537H148.417V286.702H152.417V287.622H149.552ZM166.335 285.415H167.474V296.127H166.335V285.415ZM159.209 286.305H160.34V289.052H163.226V286.305H164.344V293.571H159.209V286.305ZM160.34 289.951V292.634H163.226V289.951H160.34Z" fill="black"/>
<path d="M121.759 404.422H123.042V413.062H121.726V405.738H121.675L119.612 407.084V405.831L121.759 404.422ZM127.236 404.422H128.519V413.062H127.203V405.738H127.152L125.089 407.084V405.831L127.236 404.422ZM136.021 409.147V408.434H138.105V403.392H139.245V409.662H138.105V409.147H136.021ZM133.798 406.784C132.177 406.784 131.118 406.185 131.118 405.185C131.118 404.206 132.177 403.578 133.798 403.578C135.388 403.578 136.456 404.206 136.464 405.185C136.456 406.185 135.388 406.784 133.798 406.784ZM133.798 404.341C132.81 404.341 132.182 404.675 132.19 405.185C132.182 405.696 132.81 406.025 133.798 406.025C134.768 406.025 135.397 405.696 135.397 405.185C135.397 404.675 134.768 404.341 133.798 404.341ZM134.295 409.687H133.177V408.126C132.215 408.156 131.287 408.156 130.452 408.151L130.321 407.337C132.393 407.341 135.008 407.32 137.312 407.08L137.38 407.805C136.367 407.945 135.321 408.029 134.295 408.084V409.687ZM133.08 412.328V413.151H139.565V413.974H131.966V411.569H138.118V410.814H131.924V410.02H139.245V412.328H133.08ZM151.999 407.569V403.384H153.087V414.075H151.999V408.506H150.682V413.548H149.607V403.59H150.682V407.569H151.999ZM148.404 411.257H144.252V404.586H148.404V411.257ZM147.341 405.485H145.32V410.358H147.341V405.485ZM162.188 403.384H163.323V409.122H162.188V403.384ZM157.517 403.877C159.154 403.869 160.357 404.886 160.357 406.362C160.357 407.818 159.154 408.835 157.517 408.831C155.876 408.835 154.669 407.818 154.669 406.362C154.669 404.886 155.876 403.869 157.517 403.877ZM157.517 404.831C156.5 404.822 155.77 405.443 155.779 406.362C155.77 407.278 156.5 407.894 157.517 407.898C158.521 407.894 159.247 407.278 159.247 406.362C159.247 405.443 158.521 404.822 157.517 404.831ZM156.323 409.641H157.433V410.839H162.196V409.641H163.323V413.94H156.323V409.641ZM157.433 411.733V413.016H162.196V411.733H157.433Z" fill="black"/>
<path d="M122.768 429.733C120.772 429.733 119.595 428.109 119.599 425.278C119.599 422.463 120.785 420.835 122.768 420.835C124.755 420.835 125.941 422.468 125.941 425.278C125.941 428.109 124.768 429.733 122.768 429.733ZM122.768 428.602C123.936 428.602 124.633 427.434 124.633 425.278C124.633 423.126 123.928 421.953 122.768 421.953C121.612 421.953 120.907 423.126 120.907 425.278C120.903 427.434 121.603 428.602 122.768 428.602ZM135.338 419.911V423.109H136.887V424.054H135.338V427.737H134.203V419.911H135.338ZM127.347 420.856H132.355V425.851H127.347V420.856ZM128.457 424.948H131.246V421.771H128.457V424.948ZM128.562 426.986H129.689V429.459H135.794V430.387H128.562V426.986ZM143.101 427.007V426.206H145.253V419.923H146.392V428.033H145.253V427.007H143.101ZM140.945 424.079C139.359 424.079 138.279 423.358 138.279 422.214C138.279 421.088 139.359 420.333 140.945 420.333C142.506 420.333 143.591 421.088 143.599 422.214C143.591 423.358 142.506 424.079 140.945 424.079ZM140.945 421.176C139.996 421.172 139.35 421.582 139.354 422.214C139.35 422.851 139.996 423.248 140.945 423.248C141.856 423.248 142.51 422.851 142.519 422.214C142.51 421.582 141.856 421.172 140.945 421.176ZM141.62 427.699H140.489V425.674C139.451 425.712 138.456 425.721 137.587 425.716L137.443 424.805C139.422 424.792 142.088 424.771 144.367 424.484L144.443 425.303C143.523 425.455 142.565 425.552 141.62 425.611V427.699ZM140.055 427.239V429.459H146.645V430.387H138.924V427.239H140.055ZM156.151 424.155V419.915H157.226V430.606H156.151V425.079H154.767V430.058H153.72V420.134H154.767V424.155H156.151ZM149.552 422.122V427.079C150.864 427.066 151.851 427.007 152.99 426.788L153.083 427.725C151.792 427.99 150.687 428.028 149.126 428.037H148.417V421.202H152.417V422.122H149.552ZM166.335 419.915H167.474V430.627H166.335V419.915ZM159.209 420.805H160.34V423.552H163.226V420.805H164.344V428.071H159.209V420.805ZM160.34 424.451V427.134H163.226V424.451H160.34Z" fill="black"/>
<path d="M124.258 320.586H127.542V337.359H124.053V323.903H123.955L120.106 326.319V323.223L124.258 320.586ZM143.444 337.359H131.429L131.42 334.845L137.448 329.3C139.005 327.801 139.848 326.876 139.856 325.533C139.848 324.05 138.718 323.133 137.194 323.133C135.614 323.133 134.574 324.124 134.582 325.738H131.273C131.265 322.453 133.697 320.357 137.219 320.357C140.823 320.357 143.206 322.404 143.214 325.312C143.206 327.22 142.281 328.792 138.824 331.921L136.269 334.386V334.501H143.444V337.359ZM146.446 324.615V323.731C146.446 321.708 147.797 320.013 150.123 320.013C152.531 320.013 153.801 321.708 153.801 323.731V324.615C153.801 326.638 152.498 328.309 150.123 328.309C147.732 328.309 146.446 326.614 146.446 324.615ZM149.648 337.359H147.519L159.051 320.586H161.18L149.648 337.359ZM148.821 323.731V324.615C148.821 325.418 149.149 326.237 150.123 326.237C151.131 326.237 151.426 325.418 151.426 324.615V323.731C151.426 322.928 151.163 322.085 150.123 322.085C149.14 322.085 148.821 322.945 148.821 323.731ZM155.054 334.214V333.33C155.054 331.331 156.372 329.611 158.723 329.611C161.123 329.611 162.4 331.307 162.4 333.33V334.214C162.4 336.213 161.09 337.933 158.723 337.933C156.34 337.933 155.054 336.213 155.054 334.214ZM157.404 333.33V334.214C157.404 335.001 157.724 335.836 158.723 335.836C159.722 335.836 160.033 335.017 160.033 334.214V333.33C160.033 332.527 159.755 331.684 158.723 331.684C157.732 331.684 157.404 332.527 157.404 333.33Z" fill="black"/>
<path d="M236.104 292.737C238.112 289.249 240.846 286.234 244.123 283.897L237.732 272.569C229.29 278.175 223.216 286.701 220.675 296.511C218.135 306.321 219.307 316.724 223.967 325.723L234.879 318.518C233.009 314.435 232.145 309.964 232.358 305.479C232.572 300.993 233.856 296.624 236.104 292.737Z" fill="#C8ECDA"/>
<path d="M284.863 320.888C282.278 325.363 278.512 329.041 273.976 331.518C269.44 333.994 264.311 335.175 259.149 334.93C253.986 334.685 248.991 333.024 244.711 330.129C240.43 327.234 237.028 323.217 234.879 318.517L223.969 325.721C227.692 332.897 233.446 338.818 240.514 342.743C247.581 346.668 255.648 348.424 263.708 347.791C271.767 347.158 279.462 344.164 285.83 339.184C292.198 334.204 296.957 327.458 299.514 319.788L287.337 315.279C286.718 317.233 285.889 319.114 284.863 320.888Z" fill="#C8ECDA"/>
<path d="M287.337 315.279L299.514 319.789C302.049 312.141 302.284 303.917 300.19 296.137C298.096 288.357 293.765 281.363 287.734 276.021L279.328 285.892C283.338 289.508 286.224 294.201 287.644 299.411C289.064 304.62 288.957 310.128 287.337 315.279Z" fill="#C8ECDA"/>
<path d="M274.56 282.433C276.265 283.416 277.863 284.575 279.328 285.891L287.734 276.021C280.465 269.596 271.157 265.948 261.458 265.723L261.366 278.671C266.008 278.812 270.542 280.105 274.56 282.433Z" fill="#12997A"/>
<path d="M261.366 278.671L261.458 265.723C253.035 265.518 244.753 267.907 237.734 272.566L244.123 283.896C249.147 280.32 255.202 278.485 261.366 278.671Z" fill="#C8ECDA"/>
<path d="M236.104 427.237C238.112 423.749 240.846 420.734 244.123 418.397L237.732 407.069C229.29 412.675 223.216 421.201 220.675 431.011C218.135 440.821 219.307 451.224 223.967 460.223L234.879 453.018C233.009 448.935 232.145 444.464 232.358 439.979C232.572 435.493 233.856 431.124 236.104 427.237Z" fill="#FBECCF"/>
<path d="M287.337 449.779L299.514 454.289C302.049 446.641 302.284 438.417 300.19 430.637C298.096 422.857 293.765 415.863 287.734 410.521L279.328 420.392C283.338 424.008 286.224 428.701 287.644 433.911C289.064 439.12 288.957 444.628 287.337 449.779Z" fill="#FBECCF"/>
<path d="M274.56 416.933C276.265 417.916 277.863 419.075 279.328 420.391L287.734 410.521C280.465 404.096 271.157 400.448 261.458 400.223L261.366 413.171C266.008 413.312 270.542 414.605 274.56 416.933Z" fill="#FF7E44"/>
<path d="M261.366 413.171L261.458 400.223C253.035 400.018 244.753 402.407 237.734 407.066L244.123 418.396C249.147 414.82 255.202 412.985 261.366 413.171Z" fill="#FBECCF"/>
<g filter="url(#filter3_d_1884_7324)">
<rect x="40" y="211" width="341" height="177" rx="15.6626" fill="#FAFAFA"/>
<rect x="41" y="212" width="339" height="175" rx="14.6626" stroke="#12997A" stroke-width="2"/>
<path d="M351.841 213.291H69.1588C58.64 213.291 50.1128 221.818 50.1128 232.337V366.661C50.1128 377.18 58.64 385.707 69.1588 385.707H351.841C362.36 385.707 370.887 377.18 370.887 366.661V232.337C370.887 221.818 362.36 213.291 351.841 213.291Z" fill="#FAFAFA"/>
<path d="M72.6133 247.125H75.1369V264.127H72.5469V249.716H72.4472L68.3878 252.364V249.898L72.6133 247.125ZM83.3895 247.125H85.9132V264.127H83.3231V249.716H83.2235L79.1641 252.364V249.898L83.3895 247.125ZM100.674 256.423V255.02H104.775V245.1H107.016V257.436H104.775V256.423H100.674ZM96.2993 251.774C93.1115 251.774 91.0278 250.596 91.0278 248.628C91.0278 246.702 93.1115 245.465 96.2993 245.465C99.4289 245.465 101.529 246.702 101.546 248.628C101.529 250.596 99.4289 251.774 96.2993 251.774ZM96.2993 246.968C94.3567 246.968 93.1198 247.624 93.1364 248.628C93.1198 249.633 94.3567 250.28 96.2993 250.28C98.2086 250.28 99.4455 249.633 99.4455 248.628C99.4455 247.624 98.2086 246.968 96.2993 246.968ZM97.2788 257.486H95.0789V254.414C93.1862 254.472 91.3599 254.472 89.7162 254.464L89.4588 252.862C93.5349 252.87 98.6818 252.829 103.214 252.355L103.347 253.783C101.355 254.057 99.2961 254.223 97.2788 254.331V257.486ZM94.888 262.682V264.301H107.647V265.92H92.6964V261.188H104.8V259.702H92.6134V258.142H107.016V262.682H94.888ZM132.083 253.337V245.116H134.221V266.116H132.083V255.177H129.497V265.08H127.384V245.522H129.497V253.337H132.083ZM125.022 260.58H116.867V247.478H125.022V260.58ZM122.933 249.243H118.964V258.815H122.933V249.243ZM138.496 253.503L137.858 251.829C141.886 251.605 144.72 250.37 145.167 248.588H138.828V246.889H145.366V245.033H147.554V246.889H154.126V248.588H147.745C148.184 250.37 151.018 251.605 155.079 251.829L154.408 253.503C150.753 253.237 147.77 252.177 146.46 250.337C145.151 252.177 142.167 253.237 138.496 253.503ZM156.024 254.331V255.997H147.562V257.754H153.62V262.494H141.405V264.226H154.225V265.917H139.225V260.953H151.433V259.378H139.184V257.754H145.358V255.997H136.93V254.331H156.024Z" fill="black"/>
<path d="M77.0449 285.548H78.9648V287.365H77.0449V290.127H74.9938V287.365H68.1361V285.631L74.3792 275.983H77.0449V285.548ZM74.8557 278.539L70.3875 285.438V285.548H75.0076V278.539H74.8557ZM80.967 288.76H83.1493L81.5817 294.16H79.9242L80.967 288.76ZM95.4622 290.127H85.9595L85.9526 288.566L90.8559 283.615C92.4097 282.005 93.1832 281.115 93.1901 279.871C93.1832 278.476 92.0506 277.592 90.5658 277.592C88.9981 277.592 87.9968 278.58 87.9968 280.092H85.9526C85.9457 277.503 87.9139 275.79 90.6073 275.79C93.3352 275.79 95.2205 277.516 95.2343 279.809C95.2205 281.391 94.4747 282.655 91.8227 285.258L88.9498 288.179V288.283H95.4622V290.127ZM101.121 275.983H103.22V290.127H101.065V278.138H100.982L97.6054 280.341V278.29L101.121 275.983ZM115.424 285.548H117.344V287.365H115.424V290.127H113.373V287.365H106.515V285.631L112.758 275.983H115.424V285.548ZM113.235 278.539L108.766 285.438V285.548H113.387V278.539H113.235ZM132.663 274.278V279.512H135.198V281.059H132.663V287.088H130.806V274.278H132.663ZM119.583 275.824H127.781V284.001H119.583V275.824ZM121.4 282.523H125.964V277.323H121.4V282.523ZM121.572 285.859H123.416V289.906H133.409V291.425H121.572V285.859ZM145.37 285.894V284.581H148.892V274.298H150.756V287.572H148.892V285.894H145.37ZM141.841 281.101C139.244 281.101 137.476 279.92 137.476 278.048C137.476 276.204 139.244 274.968 141.841 274.968C144.396 274.968 146.171 276.204 146.185 278.048C146.171 279.92 144.396 281.101 141.841 281.101ZM141.841 276.349C140.287 276.342 139.23 277.012 139.237 278.048C139.23 279.091 140.287 279.74 141.841 279.74C143.332 279.74 144.403 279.091 144.417 278.048C144.403 277.012 143.332 276.342 141.841 276.349ZM142.946 287.026H141.095V283.711C139.396 283.773 137.766 283.787 136.344 283.78L136.109 282.289C139.348 282.268 143.712 282.233 147.442 281.764L147.566 283.103C146.06 283.352 144.493 283.511 142.946 283.608V287.026ZM140.384 286.273V289.906H151.171V291.425H138.533V286.273H140.384ZM166.73 281.225V274.284H168.491V291.784H166.73V282.737H164.464V290.887H162.752V274.644H164.464V281.225H166.73ZM155.928 277.896V286.011C158.076 285.99 159.692 285.894 161.557 285.534L161.709 287.068C159.596 287.503 157.786 287.565 155.231 287.579H154.071V276.391H160.618V277.896H155.928ZM183.4 274.284H185.265V291.819H183.4V274.284ZM171.736 275.742H173.586V280.237H178.31V275.742H180.14V287.634H171.736V275.742ZM173.586 281.708V286.101H178.31V281.708H173.586Z" fill="black"/>
<path d="M75.6317 320.092H80.9045V347.021H75.303V325.417H75.1452L68.9651 329.296V324.326L75.6317 320.092ZM106.434 347.021H87.1437L87.1306 342.985L96.8083 334.083C99.3067 331.676 100.661 330.191 100.674 328.034C100.661 325.654 98.8465 324.181 96.4007 324.181C93.8629 324.181 92.193 325.773 92.2061 328.363H86.8939C86.8808 323.09 90.786 319.724 96.4402 319.724C102.226 319.724 106.052 323.011 106.065 327.679C106.052 330.743 104.566 333.268 99.0174 338.29L94.9149 342.248V342.432H106.434V347.021ZM113.66 347.35C111.937 347.35 110.504 345.956 110.53 344.234C110.504 342.524 111.937 341.131 113.66 341.131C115.317 341.131 116.763 342.524 116.776 344.234C116.763 345.956 115.317 347.35 113.66 347.35ZM130.271 347.39C124.341 347.39 120.107 344.142 120.015 339.448H125.656C125.748 341.433 127.694 342.761 130.284 342.761C132.967 342.761 134.886 341.275 134.873 339.106C134.886 336.91 132.94 335.358 129.771 335.358H127.273V331.216H129.771C132.441 331.216 134.295 329.77 134.281 327.64C134.295 325.588 132.704 324.181 130.324 324.181C127.944 324.181 125.998 325.51 125.919 327.574H120.554C120.646 322.945 124.827 319.724 130.35 319.724C135.951 319.724 139.699 323.051 139.673 327.298C139.699 330.322 137.595 332.465 134.558 333.005V333.215C138.529 333.701 140.711 336.108 140.685 339.474C140.711 344.076 136.333 347.39 130.271 347.39ZM155.039 347.39C149.463 347.363 144.151 344.05 144.164 334.175C144.191 325.102 148.517 319.724 155.249 319.724C160.666 319.724 164.374 323.143 164.927 327.574H159.417C158.97 325.694 157.419 324.523 155.249 324.523C151.594 324.523 149.661 327.811 149.647 333.097H149.884C151.133 330.717 153.789 329.31 156.787 329.31C161.626 329.31 165.229 332.952 165.216 338.001C165.229 343.484 161.1 347.416 155.039 347.39ZM155.012 342.985C157.76 342.985 159.799 340.881 159.785 338.159C159.799 335.477 157.8 333.386 155.052 333.386C152.304 333.386 150.239 335.542 150.213 338.185C150.226 340.815 152.238 342.985 155.012 342.985ZM169.935 326.561V325.141C169.935 321.894 172.105 319.172 175.839 319.172C179.705 319.172 181.743 321.894 181.743 325.141V326.561C181.743 329.809 179.653 332.492 175.839 332.492C172 332.492 169.935 329.77 169.935 326.561ZM175.077 347.021H171.658L190.172 320.092H193.591L175.077 347.021ZM173.749 325.141V326.561C173.749 327.85 174.275 329.165 175.839 329.165C177.457 329.165 177.93 327.85 177.93 326.561V325.141C177.93 323.853 177.509 322.498 175.839 322.498C174.261 322.498 173.749 323.879 173.749 325.141ZM183.755 341.972V340.552C183.755 337.344 185.872 334.582 189.646 334.582C193.499 334.582 195.55 337.304 195.55 340.552V341.972C195.55 345.181 193.446 347.942 189.646 347.942C185.819 347.942 183.755 345.181 183.755 341.972ZM187.529 340.552V341.972C187.529 343.235 188.042 344.576 189.646 344.576C191.25 344.576 191.75 343.261 191.75 341.972V340.552C191.75 339.264 191.303 337.909 189.646 337.909C188.055 337.909 187.529 339.264 187.529 340.552Z" fill="black"/>
<path d="M245.512 279.86C248.312 274.995 252.126 270.791 256.695 267.531L247.782 251.731C236.009 259.55 227.537 271.441 223.994 285.123C220.451 298.805 222.086 313.313 228.585 325.864L243.803 315.815C241.196 310.121 239.991 303.885 240.288 297.63C240.586 291.374 242.377 285.281 245.512 279.86Z" fill="#C8ECDA"/>
<path d="M313.515 319.128C309.911 325.369 304.658 330.498 298.332 333.952C292.006 337.406 284.851 339.053 277.652 338.711C270.453 338.37 263.486 336.053 257.516 332.016C251.546 327.978 246.802 322.375 243.804 315.82L228.589 325.868C233.78 335.876 241.806 344.133 251.663 349.608C261.519 355.082 272.771 357.53 284.011 356.648C295.251 355.765 305.982 351.59 314.864 344.644C323.745 337.698 330.383 328.29 333.949 317.593L316.965 311.305C316.103 314.03 314.946 316.653 313.515 319.128Z" fill="#C8ECDA"/>
<path d="M316.965 311.298L333.949 317.587C337.484 306.921 337.811 295.452 334.891 284.602C331.97 273.751 325.93 263.996 317.519 256.545L305.796 270.312C311.388 275.356 315.413 281.901 317.393 289.167C319.373 296.433 319.225 304.114 316.965 311.298Z" fill="#C8ECDA"/>
<path d="M299.146 265.491C301.525 266.863 303.753 268.479 305.795 270.314L317.519 256.549C307.381 247.587 294.401 242.5 280.873 242.186L280.746 260.244C287.219 260.442 293.542 262.245 299.146 265.491Z" fill="#12997A"/>
<path d="M280.746 260.239L280.874 242.181C269.127 241.895 257.576 245.227 247.786 251.726L256.697 267.528C263.703 262.54 272.149 259.98 280.746 260.239Z" fill="#C8ECDA"/>
</g>
</g>
</g>
<defs>
<filter id="filter0_i_1884_7324" x="0" y="0" width="421" height="420" filterUnits="userSpaceOnUse" color-interpolation-filters="sRGB">
<feFlood flood-opacity="0" result="BackgroundImageFix"/>
<feBlend mode="normal" in="SourceGraphic" in2="BackgroundImageFix" result="shape"/>
<feColorMatrix in="SourceAlpha" type="matrix" values="0 0 0 0 0 0 0 0 0 0 0 0 0 0 0 0 0 0 127 0" result="hardAlpha"/>
<feOffset/>
<feGaussianBlur stdDeviation="2"/>
<feComposite in2="hardAlpha" operator="arithmetic" k2="-1" k3="1"/>
<feColorMatrix type="matrix" values="0 0 0 0 0 0 0 0 0 0 0 0 0 0 0 0 0 0 0.16 0"/>
<feBlend mode="normal" in2="shape" result="effect1_innerShadow_1884_7324"/>
</filter>
<filter id="filter1_d_1884_7324" x="58" y="23" width="305" height="540" filterUnits="userSpaceOnUse" color-interpolation-filters="sRGB">
<feFlood flood-opacity="0" result="BackgroundImageFix"/>
<feColorMatrix in="SourceAlpha" type="matrix" values="0 0 0 0 0 0 0 0 0 0 0 0 0 0 0 0 0 0 127 0" result="hardAlpha"/>
<feOffset dy="1"/>
<feGaussianBlur stdDeviation="8"/>
<feComposite in2="hardAlpha" operator="out"/>
<feColorMatrix type="matrix" values="0 0 0 0 0 0 0 0 0 0 0 0 0 0 0 0 0 0 0.08 0"/>
<feBlend mode="normal" in2="BackgroundImageFix" result="effect1_dropShadow_1884_7324"/>
<feBlend mode="normal" in="SourceGraphic" in2="effect1_dropShadow_1884_7324" result="shape"/>
</filter>
<filter id="filter2_i_1884_7324" x="85" y="50" width="251" height="482.885" filterUnits="userSpaceOnUse" color-interpolation-filters="sRGB">
<feFlood flood-opacity="0" result="BackgroundImageFix"/>
<feBlend mode="normal" in="SourceGraphic" in2="BackgroundImageFix" result="shape"/>
<feColorMatrix in="SourceAlpha" type="matrix" values="0 0 0 0 0 0 0 0 0 0 0 0 0 0 0 0 0 0 127 0" result="hardAlpha"/>
<feOffset dy="0.885417"/>
<feGaussianBlur stdDeviation="0.885417"/>
<feComposite in2="hardAlpha" operator="arithmetic" k2="-1" k3="1"/>
<feColorMatrix type="matrix" values="0 0 0 0 0.833512 0 0 0 0 0.831423 0 0 0 0 0.824016 0 0 0 0.25 0"/>
<feBlend mode="normal" in2="shape" result="effect1_innerShadow_1884_7324"/>
</filter>
<filter id="filter3_d_1884_7324" x="24" y="193" width="373" height="209" filterUnits="userSpaceOnUse" color-interpolation-filters="sRGB">
<feFlood flood-opacity="0" result="BackgroundImageFix"/>
<feColorMatrix in="SourceAlpha" type="matrix" values="0 0 0 0 0 0 0 0 0 0 0 0 0 0 0 0 0 0 127 0" result="hardAlpha"/>
<feOffset dy="-2"/>
<feGaussianBlur stdDeviation="8"/>
<feComposite in2="hardAlpha" operator="out"/>
<feColorMatrix type="matrix" values="0 0 0 0 0 0 0 0 0 0 0 0 0 0 0 0 0 0 0.16 0"/>
<feBlend mode="normal" in2="BackgroundImageFix" result="effect1_dropShadow_1884_7324"/>
<feBlend mode="normal" in="SourceGraphic" in2="effect1_dropShadow_1884_7324" result="shape"/>
</filter>
<linearGradient id="paint0_linear_1884_7324" x1="210.5" y1="0" x2="210.5" y2="420" gradientUnits="userSpaceOnUse">
<stop stop-color="#A8E12E"/>
<stop offset="1" stop-color="#D2F093"/>
</linearGradient>
<clipPath id="clip0_1884_7324">
<rect width="421" height="420" rx="20" fill="white"/>
</clipPath>
</defs>
</svg>
