<svg width="421" height="420" viewBox="0 0 421 420" fill="none" xmlns="http://www.w3.org/2000/svg">
<g filter="url(#filter0_i_8661_2461)">
<g clip-path="url(#clip0_8661_2461)">
<rect width="421" height="420" rx="20" fill="url(#paint0_linear_8661_2461)" fill-opacity="0.15"/>
<g filter="url(#filter1_d_8661_2461)">
<rect x="74" y="38" width="273" height="508" rx="36" fill="#F4F4F4"/>
<g filter="url(#filter2_i_8661_2461)">
<rect x="85" y="51" width="251" height="482" rx="28" fill="white"/>
</g>
<path d="M118.925 68.0124C119.493 68.0124 120.032 68.1178 120.542 68.3285C121.051 68.5343 121.502 68.8576 121.894 69.2986C122.291 69.7347 122.602 70.2957 122.828 70.9817C123.053 71.6628 123.166 72.4835 123.166 73.4438V73.4585C123.166 74.6492 122.994 75.6683 122.651 76.516C122.308 77.3636 121.816 78.0153 121.174 78.471C120.537 78.9218 119.775 79.1472 118.888 79.1472C118.236 79.1472 117.648 79.0296 117.124 78.7944C116.605 78.5543 116.174 78.226 115.831 77.8095C115.493 77.3881 115.265 76.908 115.147 76.369L115.132 76.2881H116.992L117.021 76.3616C117.114 76.6066 117.247 76.8222 117.418 77.0084C117.595 77.1946 117.805 77.3391 118.05 77.442C118.3 77.54 118.579 77.589 118.888 77.589C119.447 77.589 119.902 77.4249 120.255 77.0966C120.613 76.7634 120.88 76.32 121.056 75.7663C121.238 75.2077 121.34 74.5904 121.365 73.9142C121.37 73.8407 121.372 73.7697 121.372 73.7011C121.372 73.6276 121.372 73.5565 121.372 73.4879L121.042 71.7167C121.042 71.3149 120.948 70.9498 120.762 70.6216C120.576 70.2933 120.324 70.0336 120.005 69.8425C119.692 69.6514 119.336 69.5559 118.94 69.5559C118.557 69.5559 118.207 69.649 117.889 69.8351C117.57 70.0213 117.315 70.2761 117.124 70.5995C116.933 70.918 116.838 71.2757 116.838 71.6726V71.6873C116.838 72.0988 116.928 72.4639 117.109 72.7824C117.291 73.0959 117.538 73.3434 117.852 73.5247C118.165 73.706 118.523 73.7966 118.925 73.7966C119.327 73.7966 119.687 73.7084 120.005 73.532C120.324 73.3556 120.576 73.1106 120.762 72.7971C120.948 72.4835 121.042 72.1282 121.042 71.7314V71.7167H121.483V73.6717H121.225C121.098 73.951 120.909 74.2106 120.659 74.4507C120.409 74.6908 120.101 74.8844 119.733 75.0314C119.371 75.1783 118.944 75.2518 118.454 75.2518C117.778 75.2518 117.181 75.0999 116.661 74.7962C116.142 74.4924 115.733 74.0759 115.434 73.5467C115.14 73.0175 114.993 72.4198 114.993 71.7534V71.7387C114.993 71.0184 115.159 70.379 115.493 69.8204C115.831 69.257 116.296 68.816 116.889 68.4975C117.487 68.1741 118.165 68.0124 118.925 68.0124ZM126.502 77.4567C126.169 77.4567 125.89 77.3465 125.664 77.126C125.444 76.9006 125.334 76.6262 125.334 76.3028C125.334 75.9746 125.444 75.7002 125.664 75.4797C125.89 75.2543 126.169 75.1416 126.502 75.1416C126.84 75.1416 127.12 75.2543 127.34 75.4797C127.561 75.7002 127.671 75.9746 127.671 76.3028C127.671 76.6262 127.561 76.9006 127.34 77.126C127.12 77.3465 126.84 77.4567 126.502 77.4567ZM126.502 72.0033C126.169 72.0033 125.89 71.8931 125.664 71.6726C125.444 71.4472 125.334 71.1728 125.334 70.8494C125.334 70.5211 125.444 70.2467 125.664 70.0262C125.89 69.8009 126.169 69.6882 126.502 69.6882C126.84 69.6882 127.12 69.8009 127.34 70.0262C127.561 70.2467 127.671 70.5211 127.671 70.8494C127.671 71.1728 127.561 71.4472 127.34 71.6726C127.12 71.8931 126.84 72.0033 126.502 72.0033ZM134.984 78.8826V76.8467H129.795V75.2959C130.074 74.8207 130.354 74.3429 130.633 73.8628C130.917 73.3826 131.204 72.9049 131.493 72.4296C131.787 71.9494 132.078 71.4766 132.367 71.0111C132.661 70.5407 132.953 70.0777 133.242 69.622C133.536 69.1614 133.83 68.7131 134.124 68.277H136.792V75.2812H138.225V76.8467H136.792V78.8826H134.984ZM131.559 75.3253H135.013V69.7911H134.903C134.687 70.1242 134.464 70.4672 134.234 70.82C134.009 71.1728 133.781 71.5329 133.551 71.9004C133.32 72.2679 133.093 72.6378 132.867 73.0102C132.642 73.3777 132.419 73.7476 132.198 74.12C131.978 74.4875 131.765 74.8525 131.559 75.2151V75.3253ZM142.613 78.8826V70.1438H142.48L139.842 72.0033V70.2247L142.613 68.277H144.502V78.8826H142.613Z" fill="black"/>
<rect opacity="0.35" x="301.622" y="68.4515" width="21.25" height="10.625" rx="3.36458" stroke="black" stroke-width="0.885417"/>
<path opacity="0.4" d="M324.199 72.2422V75.8507C324.912 75.5451 325.375 74.8341 325.375 74.0464C325.375 73.2588 324.912 72.5478 324.199 72.2422Z" fill="black"/>
<rect x="302.949" y="69.7795" width="18.5938" height="7.96875" rx="2.21354" fill="black"/>
<path fill-rule="evenodd" clip-rule="evenodd" d="M287.253 70.7572C289.455 70.7573 291.573 71.5737 293.169 73.0377C293.289 73.1507 293.482 73.1493 293.6 73.0345L294.749 71.9158C294.809 71.8576 294.842 71.7787 294.842 71.6967C294.841 71.6146 294.807 71.5361 294.746 71.4786C290.557 67.6051 283.949 67.6051 279.76 71.4786C279.699 71.5361 279.665 71.6145 279.664 71.6966C279.664 71.7787 279.697 71.8576 279.757 71.9158L280.906 73.0345C281.024 73.1495 281.216 73.1509 281.337 73.0377C282.933 71.5736 285.051 70.7572 287.253 70.7572ZM287.25 74.4939C288.452 74.4938 289.611 74.9469 290.502 75.7651C290.622 75.8813 290.812 75.8788 290.93 75.7595L292.069 74.5913C292.129 74.5301 292.163 74.4469 292.162 74.3606C292.161 74.2742 292.126 74.1918 292.065 74.1318C289.352 71.5721 285.151 71.5721 282.438 74.1318C282.377 74.1918 282.342 74.2742 282.341 74.3606C282.34 74.447 282.374 74.5301 282.434 74.5913L283.573 75.7595C283.691 75.8788 283.881 75.8813 284.001 75.7651C284.891 74.9474 286.049 74.4944 287.25 74.4939ZM289.485 76.9673C289.487 77.0606 289.454 77.1505 289.395 77.2159L287.467 79.3893C287.411 79.4532 287.334 79.4892 287.254 79.4892C287.173 79.4892 287.096 79.4532 287.04 79.3893L285.112 77.2159C285.053 77.1505 285.02 77.0605 285.022 76.9673C285.023 76.874 285.059 76.7856 285.121 76.7231C286.352 75.5598 288.155 75.5598 289.386 76.7231C289.448 76.7857 289.484 76.8741 289.485 76.9673Z" fill="black"/>
<path fill-rule="evenodd" clip-rule="evenodd" d="M273.023 69.4983C273.023 68.9378 272.601 68.4834 272.079 68.4834H271.135C270.613 68.4834 270.19 68.9378 270.19 69.4983V78.294C270.19 78.8545 270.613 79.3089 271.135 79.3089H272.079C272.601 79.3089 273.023 78.8545 273.023 78.294V69.4983ZM266.441 70.6485H267.386C267.907 70.6485 268.33 71.1138 268.33 71.6877V78.2696C268.33 78.8436 267.907 79.3089 267.386 79.3089H266.441C265.92 79.3089 265.497 78.8436 265.497 78.2696V71.6877C265.497 71.1138 265.92 70.6485 266.441 70.6485ZM262.606 72.994H261.661C261.14 72.994 260.717 73.4652 260.717 74.0465V78.2564C260.717 78.8377 261.14 79.3089 261.661 79.3089H262.606C263.127 79.3089 263.55 78.8377 263.55 78.2564V74.0465C263.55 73.4652 263.127 72.994 262.606 72.994ZM257.912 75.1591H256.968C256.446 75.1591 256.023 75.6236 256.023 76.1965V78.2714C256.023 78.8444 256.446 79.3089 256.968 79.3089H257.912C258.434 79.3089 258.857 78.8444 258.857 78.2714V76.1965C258.857 75.6236 258.434 75.1591 257.912 75.1591Z" fill="black"/>
</g>
<path d="M103.792 126L103.779 124.485L107.393 121.162C108.338 120.259 108.839 119.702 108.839 118.91C108.839 118.02 108.158 117.464 107.24 117.464C106.295 117.464 105.683 118.062 105.683 119.021H103.695C103.681 117.047 105.141 115.796 107.268 115.796C109.423 115.796 110.855 117.019 110.855 118.771C110.855 119.911 110.298 120.856 108.227 122.733L106.698 124.221V124.276H110.994V126H103.792ZM112.092 124.221V122.566L116.346 115.935H118.973V122.538H120.252V124.221H118.973V126H116.985V124.221H112.092ZM114.205 122.538H117.013V118.229H116.916L114.205 122.455V122.538ZM131.86 114.642V123.943H130.095V119.8H126.953V118.41H130.095V117.436H126.953V116.046H130.095V114.642H131.86ZM132.166 125.639V127.057H123.45V123.108H125.229V125.639H132.166ZM123.658 115.435V120.842C125.208 120.829 126.654 120.724 128.232 120.439L128.413 121.871C126.522 122.233 124.812 122.302 122.921 122.302H121.906V115.435H123.658ZM141.536 115.935V126H139.437V117.923H139.381L137.073 119.369V117.52L139.562 115.935H141.536ZM155.021 121.12V122.511H150.252V124.554H148.501V122.511H143.44V121.12H155.021ZM153.742 125.639V127.057H144.803V123.553H146.554V125.639H153.742ZM146.68 115.031V116.352H151.754V115.031H153.519V120.231H144.928V115.031H146.68ZM146.68 118.827H151.754V117.673H146.68V118.827ZM166.392 114.628V127.279H164.599V114.628H166.392ZM162.597 115.949C162.597 119.786 161.249 122.969 156.731 125.11L155.799 123.692C159.066 122.149 160.505 120.147 160.79 117.339H156.48V115.949H162.597ZM182.004 114.628V127.279H180.239V120.94H177.722V119.494H180.239V114.628H182.004ZM177.792 115.949C177.792 119.772 176.555 122.886 172.134 125.082L171.216 123.692C174.414 122.114 175.734 120.106 176.012 117.339H171.814V115.949H177.792ZM188.802 115.852V120.731H185.702V122.997C186.905 122.983 188.051 122.935 189.344 122.733L189.469 124.151C187.815 124.429 186.453 124.471 184.882 124.471H184.006V119.313H187.092V117.284H183.992V115.852H188.802ZM194.585 114.628V127.279H192.903V120.842H191.68V126.667H190.053V114.837H191.68V119.411H192.903V114.628H194.585ZM206.638 114.628V127.307H204.859V120.912H202.579V119.494H204.859V114.628H206.638ZM200.688 118.59C200.688 120.425 201.689 122.469 203.76 123.359L202.815 124.721C201.376 124.123 200.375 122.914 199.826 121.468C199.27 123.004 198.276 124.297 196.823 124.916L195.892 123.553C197.922 122.65 198.909 120.495 198.923 118.59V118.104H196.295V116.686H198.923V114.906H200.702V116.686H203.26V118.104H200.688V118.59ZM222.5 114.628V127.279H220.804V120.898H219.664V126.695H217.982V114.809H219.664V119.452H220.804V114.628H222.5ZM216.926 115.935V124.095H211.893V115.935H216.926ZM213.547 117.339V122.705H215.271V117.339H213.547ZM234.428 114.628V121.426H232.649V114.628H234.428ZM227.713 121.982V123.164H232.662V121.982H234.428V127.14H225.962V121.982H227.713ZM227.713 125.708H232.662V124.54H227.713V125.708ZM227.491 115.157C229.465 115.143 230.952 116.38 230.952 118.159C230.952 119.883 229.465 121.12 227.491 121.12C225.517 121.12 224.029 119.883 224.029 118.159C224.029 116.38 225.517 115.143 227.491 115.157ZM227.491 116.63C226.476 116.63 225.753 117.2 225.767 118.159C225.753 119.105 226.476 119.661 227.491 119.661C228.478 119.661 229.201 119.105 229.201 118.159C229.201 117.2 228.478 116.63 227.491 116.63ZM243.325 115.476V116.894H240.809C240.823 118.368 241.706 119.793 243.728 120.384L242.88 121.774C241.483 121.35 240.517 120.502 239.961 119.411C239.398 120.689 238.369 121.704 236.847 122.205L235.943 120.801C238.042 120.14 238.988 118.5 239.016 116.894H236.43V115.476H243.325ZM246.175 114.628V117.562H247.885V119.007H246.175V122.135H244.396V114.628H246.175ZM242.032 122.386C244.66 122.372 246.3 123.275 246.3 124.818C246.3 126.361 244.66 127.279 242.032 127.279C239.349 127.279 237.695 126.361 237.695 124.818C237.695 123.275 239.349 122.372 242.032 122.386ZM242.032 123.762C240.364 123.762 239.46 124.109 239.474 124.818C239.46 125.541 240.364 125.903 242.032 125.903C243.673 125.903 244.548 125.541 244.548 124.818C244.548 124.109 243.673 123.762 242.032 123.762ZM263.302 124.36V125.805H251.722V124.36H256.601V122.024H252.945V115.435H254.725V117.395H260.244V115.435H262.009V122.024H258.367V124.36H263.302ZM254.725 120.606H260.244V118.813H254.725V120.606ZM274.451 115.727V116.922C274.451 118.507 274.451 120.286 273.937 122.969L272.158 122.789C272.637 120.398 272.658 118.618 272.672 117.131H265.22V115.727H274.451ZM275.563 124.29V125.736H264.025V124.29H268.154V119.939H269.919V124.29H275.563ZM281.11 117.492C281.11 119.869 282.07 122.177 284.183 123.095L283.098 124.513C281.694 123.824 280.756 122.566 280.234 121.009C279.678 122.664 278.705 124.019 277.259 124.735L276.147 123.289C278.316 122.316 279.303 119.869 279.317 117.492V115.601H281.11V117.492ZM287.005 114.628V127.307H285.253V120.036H282.765V118.604H285.253V114.628H287.005Z" fill="black"/>
<path d="M302.975 166.706H119.947C110.587 166.706 103 174.294 103 183.653C103 193.013 110.587 200.6 119.947 200.6H302.975C312.334 200.6 319.922 193.013 319.922 183.653C319.922 174.294 312.334 166.706 302.975 166.706Z" fill="#F8F8F9"/>
<g filter="url(#filter3_d_8661_2461)">
<path d="M163.332 171.451H119.948C113.209 171.451 107.746 176.914 107.746 183.653C107.746 190.392 113.209 195.855 119.948 195.855H163.332C170.071 195.855 175.534 190.392 175.534 183.653C175.534 176.914 170.071 171.451 163.332 171.451Z" fill="white"/>
</g>
<path d="M140.495 177.243V185.594H138.897V181.494H137.023V180.198H138.897V177.243H140.495ZM140.771 187.192V188.475H132.898V184.865H134.508V187.192H140.771ZM135.174 179.482C135.174 180.802 135.979 182.224 137.803 182.815L137.011 184.085C135.74 183.676 134.872 182.84 134.369 181.796C133.866 182.953 132.954 183.871 131.602 184.324L130.785 183.016C132.671 182.425 133.526 180.928 133.539 179.469V179.293H131.237V178.01H137.451V179.293H135.174V179.482ZM145.551 180.714C145.551 182.45 146.18 184.186 147.802 185.066L146.922 186.236C145.891 185.708 145.205 184.777 144.809 183.657C144.406 184.877 143.721 185.909 142.683 186.513L141.765 185.305C143.413 184.349 144.029 182.488 144.042 180.714V180.45H142.193V179.167H144.042V177.62H145.538V179.167H147.35V180.45H145.551V180.714ZM151.878 177.23V188.676H150.356V177.23H151.878ZM149.538 177.419V188.148H148.029V182.878H146.683V181.569H148.029V177.419H149.538Z" fill="black"/>
<path d="M198.62 177.884V178.739C198.62 179.626 198.62 180.632 198.331 181.997H199.928V182.978H189.614V181.997H197.123C197.425 180.683 197.438 179.721 197.438 178.865H190.91V177.884H198.62ZM198.633 184.412V188.45H190.872V184.412H198.633ZM192.042 185.355V187.481H197.45V185.355H192.042ZM203.425 178.01C204.922 178.01 206.016 179.129 206.016 180.714C206.016 182.299 204.922 183.381 203.425 183.381C201.915 183.381 200.834 182.299 200.846 180.714C200.834 179.129 201.915 178.01 203.425 178.01ZM203.425 179.041C202.544 179.041 201.915 179.708 201.915 180.714C201.915 181.695 202.544 182.387 203.425 182.374C204.293 182.387 204.922 181.695 204.934 180.714C204.922 179.708 204.293 179.041 203.425 179.041ZM210.355 177.331V184.047H209.223V181.142H207.915V183.972H206.796V177.532H207.915V180.173H209.223V177.331H210.355ZM210.355 184.626V188.588H209.173V185.582H202.695V184.626H210.355ZM220.732 177.318V179.972H222.367V180.966H220.732V183.683H219.537V177.318H220.732ZM217.625 178.023C217.613 180.915 215.663 182.94 212.305 183.846L211.827 182.89C214.518 182.18 216.11 180.764 216.33 179.004H212.355V178.023H217.625ZM220.732 184.161V188.437H213.512V184.161H220.732ZM214.707 185.154V187.481H219.55V185.154H214.707ZM233.322 186.173V187.154H223.008V186.173H227.524V183.494H228.706V186.173H233.322ZM228.731 178.89C228.731 180.676 230.694 182.349 232.87 182.714L232.354 183.695C230.53 183.33 228.851 182.205 228.103 180.651C227.36 182.198 225.7 183.343 223.889 183.695L223.361 182.714C225.524 182.349 227.474 180.676 227.474 178.89V178.035H228.731V178.89Z" fill="#8A8A8B"/>
<path d="M268.44 177.884V178.739C268.44 179.626 268.44 180.632 268.151 181.997H269.748V182.978H259.435V181.997H266.944C267.245 180.683 267.258 179.721 267.258 178.865H260.73V177.884H268.44ZM268.453 184.412V188.45H260.692V184.412H268.453ZM261.862 185.355V187.481H267.271V185.355H261.862ZM273.245 178.01C274.742 178.01 275.836 179.129 275.836 180.714C275.836 182.299 274.742 183.381 273.245 183.381C271.736 183.381 270.654 182.299 270.667 180.714C270.654 179.129 271.736 178.01 273.245 178.01ZM273.245 179.041C272.365 179.041 271.736 179.708 271.736 180.714C271.736 181.695 272.365 182.387 273.245 182.374C274.113 182.387 274.742 181.695 274.754 180.714C274.742 179.708 274.113 179.041 273.245 179.041ZM280.175 177.331V184.047H279.043V181.142H277.735V183.972H276.616V177.532H277.735V180.173H279.043V177.331H280.175ZM280.175 184.626V188.588H278.993V185.582H272.516V184.626H280.175ZM291.973 182.626V183.595H281.697V182.626H291.973ZM286.829 184.462C289.257 184.462 290.716 185.217 290.716 186.525C290.716 187.833 289.257 188.575 286.829 188.563C284.389 188.575 282.917 187.833 282.917 186.525C282.917 185.217 284.389 184.462 286.829 184.462ZM286.829 185.393C285.106 185.406 284.125 185.796 284.125 186.525C284.125 187.242 285.106 187.619 286.829 187.619C288.527 187.619 289.521 187.242 289.521 186.525C289.521 185.796 288.527 185.406 286.829 185.393ZM291.055 177.872V178.853H287.634C287.766 179.947 289.364 180.878 291.445 181.092L291.018 182.035C289.068 181.808 287.452 180.985 286.842 179.796C286.213 180.985 284.603 181.808 282.653 182.035L282.238 181.092C284.282 180.878 285.892 179.953 286.037 178.853H282.641V177.872H291.055ZM301.608 177.318V181.808H303.356V182.802H301.608V188.575H300.413V177.318H301.608ZM298.665 178.5C298.652 181.758 297.218 184.664 293.508 186.5L292.841 185.569C295.665 184.161 297.2 182.123 297.445 179.494H293.407V178.5H298.665Z" fill="#8A8A8B"/>
<g clip-path="url(#clip1_8661_2461)">
<g filter="url(#filter4_d_8661_2461)">
<path d="M117.651 224.563H207.697C208.665 224.563 209.594 224.948 210.278 225.633C210.963 226.317 211.347 227.246 211.347 228.214V553.111H117.651C116.682 553.111 115.754 552.726 115.069 552.041C114.385 551.357 114 550.428 114 549.46V228.214C114 227.246 114.385 226.317 115.069 225.633C115.754 224.948 116.682 224.563 117.651 224.563Z" fill="white"/>
<path d="M117.651 224.867H207.697C208.585 224.867 209.436 225.22 210.063 225.848C210.691 226.475 211.044 227.326 211.044 228.214V552.806H117.651C116.764 552.806 115.912 552.454 115.285 551.826C114.657 551.199 114.305 550.347 114.305 549.46V228.214C114.305 227.326 114.657 226.475 115.285 225.848C115.912 225.22 116.764 224.867 117.651 224.867Z" stroke="#B9B9B9" stroke-width="0.608421"/>
</g>
<path d="M309 304.875H211.348V346.377H309V304.875Z" fill="#FF5353" fill-opacity="0.05"/>
<path d="M127.72 284.592V285.501H124.565V288.229H123.442V285.501H120.323V284.592H127.72ZM127.06 280.546V281.437H124.699C124.81 282.231 125.706 283.028 127.372 283.229L126.962 284.12C125.536 283.928 124.516 283.318 124.03 282.48C123.531 283.318 122.52 283.928 121.107 284.12L120.688 283.229C122.328 283.028 123.233 282.231 123.362 281.437H120.991V280.546H127.06ZM131.321 281.268C131.312 282.284 131.891 283.264 133.228 283.665L132.657 284.557C131.735 284.263 131.098 283.688 130.732 282.944C130.367 283.746 129.707 284.374 128.754 284.681L128.183 283.79C129.538 283.354 130.135 282.302 130.135 281.268V280.493H131.321V281.268ZM135.001 285.305V288.229H133.861V286.214H129.422V285.305H135.001ZM135.001 280.118V284.958H133.861V280.118H135.001ZM142.916 280.118V288.229H141.784V280.118H142.916ZM136.133 285.938C136.753 285.934 137.461 285.934 138.201 285.911V285.225C137.31 285.069 136.73 284.517 136.739 283.755C136.73 282.846 137.559 282.231 138.754 282.231C139.957 282.231 140.794 282.846 140.794 283.755C140.794 284.512 140.215 285.065 139.324 285.225V285.876C140.001 285.845 140.688 285.791 141.338 285.706L141.418 286.544C139.645 286.847 137.729 286.865 136.285 286.865L136.133 285.938ZM141.222 281.018V281.91H136.294V281.018H138.201V280.154H139.333V281.018H141.222ZM138.754 283.095C138.201 283.095 137.809 283.336 137.818 283.755C137.809 284.182 138.201 284.414 138.754 284.414C139.324 284.414 139.707 284.182 139.707 283.755C139.707 283.336 139.324 283.095 138.754 283.095ZM146.971 281.954C146.962 283.407 147.586 284.878 148.887 285.501L148.201 286.411C147.332 285.983 146.748 285.181 146.409 284.2C146.057 285.252 145.429 286.112 144.511 286.562L143.807 285.644C145.179 285.011 145.83 283.46 145.83 281.954V280.742H146.971V281.954ZM150.384 280.118V283.247H151.579V284.209H150.384V288.229H149.243V280.118H150.384ZM156.578 282.159C156.578 283.469 156.944 284.824 158.049 285.537L157.434 286.419C156.734 285.996 156.289 285.301 156.035 284.468C155.741 285.386 155.255 286.152 154.52 286.598L153.824 285.76C155.028 285.011 155.473 283.585 155.473 282.213V280.814H156.578V282.159ZM161.008 280.118V288.229H159.921V280.118H161.008ZM159.306 280.234V287.854H158.245V283.781H157.193V282.854H158.245V280.234H159.306ZM169.287 286.348V287.284H161.863V286.348H164.992V284.69H162.648V280.715H168.459V284.69H166.124V286.348H169.287ZM163.771 281.625V283.799H167.336V281.625H163.771Z" fill="black"/>
<path d="M260.346 280.956V287.409H259V282.231H258.965L257.485 283.157V281.972L259.081 280.956H260.346ZM262.94 286.749L262.173 289.289H261.228L261.674 286.749H262.94ZM264.116 287.409L264.107 286.437L266.424 284.307C267.03 283.728 267.351 283.371 267.351 282.863C267.351 282.293 266.915 281.936 266.326 281.936C265.72 281.936 265.328 282.32 265.328 282.935H264.054C264.045 281.669 264.981 280.867 266.344 280.867C267.726 280.867 268.644 281.651 268.644 282.774C268.644 283.505 268.287 284.111 266.959 285.314L265.979 286.268V286.304H268.733V287.409H264.116ZM272.075 287.498C270.658 287.498 269.642 286.714 269.615 285.591H270.97C270.996 286.072 271.46 286.393 272.084 286.393C272.725 286.393 273.189 286.027 273.18 285.51C273.189 284.985 272.717 284.61 271.959 284.61H271.362V283.621H271.959C272.592 283.621 273.037 283.273 273.037 282.765C273.037 282.275 272.663 281.936 272.093 281.936C271.522 281.936 271.05 282.257 271.032 282.747H269.749C269.766 281.633 270.774 280.867 272.093 280.867C273.438 280.867 274.339 281.66 274.33 282.685C274.339 283.407 273.831 283.924 273.109 284.049V284.102C274.053 284.218 274.579 284.797 274.57 285.599C274.579 286.705 273.528 287.498 272.075 287.498ZM278.01 287.498C276.674 287.489 275.408 286.696 275.408 284.334C275.408 282.159 276.451 280.867 278.064 280.867C279.365 280.867 280.247 281.687 280.381 282.747H279.062C278.955 282.293 278.581 282.017 278.064 282.017C277.191 282.017 276.727 282.81 276.718 284.075H276.781C277.075 283.505 277.716 283.166 278.429 283.166C279.588 283.166 280.452 284.04 280.452 285.252C280.452 286.562 279.463 287.507 278.01 287.498ZM278.002 286.437C278.661 286.437 279.151 285.938 279.151 285.288C279.151 284.646 278.679 284.138 278.019 284.138C277.36 284.138 276.861 284.655 276.852 285.288C276.861 285.92 277.342 286.437 278.002 286.437ZM282.556 286.749L281.789 289.289H280.845L281.29 286.749H282.556ZM285.969 287.498C284.356 287.498 283.376 286.295 283.376 284.182C283.376 282.07 284.356 280.867 285.969 280.867C287.582 280.867 288.563 282.079 288.563 284.182C288.563 286.304 287.582 287.498 285.969 287.498ZM285.969 286.393C286.718 286.393 287.199 285.671 287.19 284.182C287.19 282.712 286.718 281.963 285.969 281.963C285.221 281.963 284.748 282.712 284.748 284.182C284.739 285.671 285.221 286.393 285.969 286.393ZM291.994 287.498C290.381 287.498 289.401 286.295 289.401 284.182C289.401 282.07 290.381 280.867 291.994 280.867C293.607 280.867 294.588 282.079 294.588 284.182C294.588 286.304 293.607 287.498 291.994 287.498ZM291.994 286.393C292.743 286.393 293.224 285.671 293.215 284.182C293.215 282.712 292.743 281.963 291.994 281.963C291.245 281.963 290.773 282.712 290.773 284.182C290.764 285.671 291.245 286.393 291.994 286.393ZM298.019 287.498C296.406 287.498 295.425 286.295 295.425 284.182C295.425 282.07 296.406 280.867 298.019 280.867C299.632 280.867 300.612 282.079 300.612 284.182C300.612 286.304 299.632 287.498 298.019 287.498ZM298.019 286.393C298.767 286.393 299.249 285.671 299.24 284.182C299.24 282.712 298.767 281.963 298.019 281.963C297.27 281.963 296.798 282.712 296.798 284.182C296.789 285.671 297.27 286.393 298.019 286.393Z" fill="#B4B4B4"/>
<path d="M122.925 323.532C122.925 324.842 123.291 326.196 124.396 326.909L123.781 327.792C123.081 327.368 122.635 326.673 122.381 325.84C122.087 326.758 121.602 327.524 120.866 327.97L120.171 327.132C121.374 326.384 121.82 324.958 121.82 323.585V322.186H122.925V323.532ZM127.355 321.491V329.601H126.267V321.491H127.355ZM125.652 321.607V329.227H124.592V325.154H123.54V324.227H124.592V321.607H125.652ZM135.634 327.72V328.656H128.21V327.72H131.338V326.063H128.994V322.088H134.805V326.063H132.47V327.72H135.634ZM130.117 322.997V325.171H133.682V322.997H130.117ZM143.513 326.027V326.954H140.34V329.61H139.217V326.954H136.089V326.027H143.513ZM139.778 321.758C141.516 321.758 142.737 322.48 142.737 323.603C142.737 324.708 141.516 325.412 139.778 325.412C138.041 325.412 136.828 324.708 136.837 323.603C136.828 322.48 138.041 321.758 139.778 321.758ZM139.778 322.667C138.691 322.667 137.996 323.006 138.005 323.603C137.996 324.182 138.691 324.512 139.778 324.512C140.875 324.512 141.561 324.182 141.561 323.603C141.561 323.006 140.875 322.667 139.778 322.667ZM150.785 321.491V329.619H149.653V321.491H150.785ZM148.272 322.168V325.296H145.598V326.785C146.833 326.78 147.884 326.709 149.074 326.517L149.172 327.435C147.835 327.667 146.632 327.72 145.153 327.72H144.422V324.396H147.113V323.086H144.413V322.168H148.272ZM156.026 322.257V327.622H152.131V322.257H156.026ZM153.254 323.148V326.722H154.894V323.148H153.254ZM158.272 321.491V324.548H159.466V325.492H158.272V329.601H157.131V321.491H158.272ZM163.459 321.607C165.321 321.607 166.4 322.097 166.409 322.988C166.4 323.888 165.321 324.378 163.459 324.378C161.587 324.378 160.5 323.888 160.5 322.988C160.5 322.097 161.587 321.607 163.459 321.607ZM163.459 322.435C162.264 322.435 161.685 322.631 161.694 322.988C161.685 323.389 162.264 323.541 163.459 323.541C164.662 323.541 165.232 323.389 165.232 322.988C165.232 322.631 164.662 322.435 163.459 322.435ZM167.157 324.762V325.662H159.76V324.762H167.157ZM166.257 326.134V328.202H161.739V328.692H166.471V329.547H160.625V327.408H165.134V326.963H160.616V326.134H166.257ZM174.189 321.856V322.507C174.189 323.139 174.189 323.844 174.002 324.77H175.072V325.688H167.648V324.77H172.852C173.031 323.959 173.053 323.331 173.057 322.765H168.557V321.856H174.189ZM174.163 326.544V329.512H168.53V326.544H174.163ZM169.644 327.435V328.603H173.031V327.435H169.644ZM182.219 322.195V322.961C182.219 323.977 182.219 325.118 181.89 326.838L180.749 326.722C181.056 325.189 181.07 324.049 181.079 323.095H176.302V322.195H182.219ZM182.932 327.685V328.612H175.535V327.685H178.182V324.895H179.314V327.685H182.932Z" fill="black"/>
<path d="M255.786 325.029V326.081H252.845V325.029H255.786ZM259.297 328.87C257.827 328.87 256.766 328.095 256.766 327.043C256.766 326.232 257.39 325.573 258.192 325.448V325.403C257.497 325.27 257.016 324.681 257.016 323.977C257.016 322.97 257.978 322.239 259.297 322.239C260.616 322.239 261.579 322.97 261.588 323.977C261.579 324.69 261.089 325.27 260.411 325.403V325.448C261.196 325.573 261.828 326.232 261.828 327.043C261.828 328.095 260.768 328.87 259.297 328.87ZM259.297 327.845C259.975 327.845 260.429 327.462 260.429 326.909C260.429 326.348 259.957 325.938 259.297 325.938C258.638 325.938 258.156 326.348 258.165 326.909C258.156 327.462 258.611 327.845 259.297 327.845ZM259.297 324.993C259.868 324.993 260.278 324.628 260.278 324.111C260.278 323.612 259.877 323.255 259.297 323.255C258.718 323.255 258.326 323.603 258.326 324.111C258.326 324.628 258.727 324.993 259.297 324.993ZM264.003 328.121L263.236 330.662H262.292L262.737 328.121H264.003ZM265.072 327.64V326.58L267.8 322.328H269.484V326.562H270.304V327.64H269.484V328.781H268.21V327.64H265.072ZM266.427 326.562H268.227V323.799H268.165L266.427 326.508V326.562ZM273.682 328.87C272.069 328.87 271.088 327.667 271.088 325.555C271.088 323.442 272.069 322.239 273.682 322.239C275.295 322.239 276.275 323.451 276.275 325.555C276.275 327.676 275.295 328.87 273.682 328.87ZM273.682 327.765C274.43 327.765 274.912 327.043 274.903 325.555C274.903 324.084 274.43 323.336 273.682 323.336C272.933 323.336 272.461 324.084 272.461 325.555C272.452 327.043 272.933 327.765 273.682 327.765ZM279.707 328.87C278.093 328.87 277.113 327.667 277.113 325.555C277.113 323.442 278.093 322.239 279.707 322.239C281.32 322.239 282.3 323.451 282.3 325.555C282.3 327.676 281.32 328.87 279.707 328.87ZM279.707 327.765C280.455 327.765 280.937 327.043 280.928 325.555C280.928 324.084 280.455 323.336 279.707 323.336C278.958 323.336 278.486 324.084 278.486 325.555C278.477 327.043 278.958 327.765 279.707 327.765ZM284.403 328.121L283.637 330.662H282.692L283.138 328.121H284.403ZM287.817 328.87C286.204 328.87 285.223 327.667 285.223 325.555C285.223 323.442 286.204 322.239 287.817 322.239C289.43 322.239 290.41 323.451 290.41 325.555C290.41 327.676 289.43 328.87 287.817 328.87ZM287.817 327.765C288.566 327.765 289.047 327.043 289.038 325.555C289.038 324.084 288.566 323.336 287.817 323.336C287.068 323.336 286.596 324.084 286.596 325.555C286.587 327.043 287.068 327.765 287.817 327.765ZM293.842 328.87C292.229 328.87 291.248 327.667 291.248 325.555C291.248 323.442 292.229 322.239 293.842 322.239C295.455 322.239 296.435 323.451 296.435 325.555C296.435 327.676 295.455 328.87 293.842 328.87ZM293.842 327.765C294.59 327.765 295.072 327.043 295.063 325.555C295.063 324.084 294.59 323.336 293.842 323.336C293.093 323.336 292.621 324.084 292.621 325.555C292.612 327.043 293.093 327.765 293.842 327.765ZM299.867 328.87C298.253 328.87 297.273 327.667 297.273 325.555C297.273 323.442 298.253 322.239 299.867 322.239C301.48 322.239 302.46 323.451 302.46 325.555C302.46 327.676 301.48 328.87 299.867 328.87ZM299.867 327.765C300.615 327.765 301.096 327.043 301.088 325.555C301.088 324.084 300.615 323.336 299.867 323.336C299.118 323.336 298.646 324.084 298.646 325.555C298.637 327.043 299.118 327.765 299.867 327.765Z" fill="#FF5353"/>
<path d="M124.886 363.309V363.835C124.877 364.36 124.877 365.082 124.69 365.965L123.576 365.885C123.705 365.203 123.736 364.672 123.745 364.218H120.697V363.309H124.886ZM122.854 365.118V366.517C123.665 366.491 124.489 366.437 125.251 366.348L125.314 367.141C123.629 367.435 121.775 367.48 120.314 367.48L120.216 366.571C120.679 366.566 121.187 366.566 121.722 366.553V365.118H122.854ZM126.855 362.863V364.86H127.845V365.804H126.855V367.81H125.688V362.863H126.855ZM124.093 367.908C125.831 367.908 126.909 368.487 126.909 369.414C126.909 370.394 125.831 370.956 124.093 370.956C122.355 370.956 121.267 370.394 121.267 369.414C121.267 368.487 122.355 367.908 124.093 367.908ZM124.093 368.781C123.023 368.781 122.426 369.004 122.426 369.414C122.426 369.877 123.023 370.073 124.093 370.073C125.153 370.073 125.741 369.877 125.741 369.414C125.741 369.004 125.153 368.781 124.093 368.781ZM134.698 362.863V366.161H135.759V367.106H134.698V370.974H133.549V362.863H134.698ZM128.112 368.683C128.705 368.683 129.396 368.683 130.117 368.665V367.97C129.253 367.801 128.691 367.253 128.7 366.499C128.691 365.59 129.511 364.975 130.697 364.975C131.855 364.975 132.684 365.59 132.693 366.499C132.684 367.253 132.114 367.805 131.258 367.97V368.621C131.9 368.589 132.546 368.536 133.148 368.451L133.219 369.28C131.49 369.601 129.636 369.61 128.264 369.61L128.112 368.683ZM133.085 363.763V364.655H128.273V363.763H130.117V362.908H131.258V363.763H133.085ZM130.697 365.84C130.144 365.84 129.77 366.081 129.779 366.499C129.77 366.927 130.144 367.159 130.697 367.159C131.231 367.159 131.597 366.927 131.597 366.499C131.597 366.081 131.231 365.84 130.697 365.84ZM143.513 366.874V367.774H140.456V369.173H139.333V367.774H136.089V366.874H143.513ZM142.559 363.22V366.205H137.016V363.22H142.559ZM138.13 364.102V365.323H141.445V364.102H138.13ZM142.693 369.922V370.831H136.962V368.469H138.094V369.922H142.693ZM146.588 364.904C146.588 366.214 146.953 367.569 148.058 368.282L147.443 369.164C146.744 368.741 146.298 368.046 146.044 367.212C145.75 368.13 145.264 368.897 144.529 369.343L143.834 368.505C145.037 367.756 145.482 366.33 145.482 364.958V363.558H146.588V364.904ZM151.017 362.863V370.974H149.93V362.863H151.017ZM149.315 362.979V370.599H148.254V366.526H147.203V365.599H148.254V362.979H149.315ZM159.297 369.093V370.029H151.873V369.093H155.001V367.435H152.657V363.46H158.468V367.435H156.133V369.093H159.297ZM153.78 364.369V366.544H157.345V364.369H153.78ZM166.828 363.888V364.797H160.081V363.888H162.888V362.943H164.011V363.888H166.828ZM167.184 369.236V370.145H159.76V369.236H162.888V368.3C161.507 368.184 160.669 367.614 160.678 366.722C160.669 365.742 161.739 365.145 163.45 365.154C165.134 365.145 166.213 365.742 166.213 366.722C166.213 367.614 165.37 368.184 164.011 368.3V369.236H167.184ZM163.45 366.036C162.398 366.036 161.837 366.259 161.846 366.722C161.837 367.204 162.398 367.417 163.45 367.417C164.475 367.417 165.045 367.204 165.045 366.722C165.045 366.259 164.475 366.036 163.45 366.036ZM171.061 363.318V364.191H169.038V364.708H170.758V365.555H169.038V366.107C169.894 366.107 170.566 366.076 171.337 365.947L171.453 366.82C170.482 366.972 169.689 367.007 168.53 367.007H167.968V363.318H171.061ZM174.617 362.872V367.168H173.539V362.872H174.617ZM173.004 362.997V367.114H171.926V365.475H171.106V364.592H171.926V362.997H173.004ZM174.617 367.453V369.574H170.205V370.047H174.893V370.92H169.074V368.763H173.494V368.335H169.065V367.453H174.617Z" fill="black"/>
<path d="M259.003 370.243C257.667 370.234 256.401 369.441 256.401 367.079C256.401 364.904 257.444 363.612 259.057 363.612C260.358 363.612 261.241 364.432 261.374 365.492H260.055C259.948 365.038 259.574 364.762 259.057 364.762C258.184 364.762 257.72 365.555 257.711 366.82H257.774C258.068 366.25 258.709 365.911 259.422 365.911C260.581 365.911 261.445 366.785 261.445 367.997C261.445 369.307 260.456 370.252 259.003 370.243ZM258.995 369.182C259.654 369.182 260.144 368.683 260.144 368.032C260.144 367.391 259.672 366.883 259.012 366.883C258.353 366.883 257.854 367.4 257.845 368.032C257.854 368.665 258.335 369.182 258.995 369.182ZM263.549 369.494L262.782 372.034H261.838L262.283 369.494H263.549ZM266.962 370.243C265.349 370.243 264.369 369.04 264.369 366.927C264.369 364.815 265.349 363.612 266.962 363.612C268.575 363.612 269.556 364.824 269.556 366.927C269.556 369.048 268.575 370.243 266.962 370.243ZM266.962 369.138C267.711 369.138 268.192 368.416 268.183 366.927C268.183 365.457 267.711 364.708 266.962 364.708C266.214 364.708 265.741 365.457 265.741 366.927C265.732 368.416 266.214 369.138 266.962 369.138ZM272.987 370.243C271.374 370.243 270.394 369.04 270.394 366.927C270.394 364.815 271.374 363.612 272.987 363.612C274.6 363.612 275.581 364.824 275.581 366.927C275.581 369.048 274.6 370.243 272.987 370.243ZM272.987 369.138C273.736 369.138 274.217 368.416 274.208 366.927C274.208 365.457 273.736 364.708 272.987 364.708C272.238 364.708 271.766 365.457 271.766 366.927C271.757 368.416 272.238 369.138 272.987 369.138ZM279.012 370.243C277.399 370.243 276.418 369.04 276.418 366.927C276.418 364.815 277.399 363.612 279.012 363.612C280.625 363.612 281.605 364.824 281.605 366.927C281.605 369.048 280.625 370.243 279.012 370.243ZM279.012 369.138C279.76 369.138 280.242 368.416 280.233 366.927C280.233 365.457 279.76 364.708 279.012 364.708C278.263 364.708 277.791 365.457 277.791 366.927C277.782 368.416 278.263 369.138 279.012 369.138ZM283.709 369.494L282.942 372.034H281.998L282.443 369.494H283.709ZM287.122 370.243C285.509 370.243 284.529 369.04 284.529 366.927C284.529 364.815 285.509 363.612 287.122 363.612C288.735 363.612 289.716 364.824 289.716 366.927C289.716 369.048 288.735 370.243 287.122 370.243ZM287.122 369.138C287.871 369.138 288.352 368.416 288.343 366.927C288.343 365.457 287.871 364.708 287.122 364.708C286.374 364.708 285.901 365.457 285.901 366.927C285.892 368.416 286.374 369.138 287.122 369.138ZM293.147 370.243C291.534 370.243 290.553 369.04 290.553 366.927C290.553 364.815 291.534 363.612 293.147 363.612C294.76 363.612 295.74 364.824 295.74 366.927C295.74 369.048 294.76 370.243 293.147 370.243ZM293.147 369.138C293.896 369.138 294.377 368.416 294.368 366.927C294.368 365.457 293.896 364.708 293.147 364.708C292.398 364.708 291.926 365.457 291.926 366.927C291.917 368.416 292.398 369.138 293.147 369.138ZM299.172 370.243C297.559 370.243 296.578 369.04 296.578 366.927C296.578 364.815 297.559 363.612 299.172 363.612C300.785 363.612 301.765 364.824 301.765 366.927C301.765 369.048 300.785 370.243 299.172 370.243ZM299.172 369.138C299.92 369.138 300.402 368.416 300.393 366.927C300.393 365.457 299.92 364.708 299.172 364.708C298.423 364.708 297.951 365.457 297.951 366.927C297.942 368.416 298.423 369.138 299.172 369.138Z" fill="#B4B4B4"/>
<path d="M120.795 409.067C120.795 407.391 121.312 406.001 122.168 404.798H123.424C122.809 405.689 122.168 407.471 122.168 409.067C122.168 410.671 122.809 412.454 123.424 413.345H122.168C121.312 412.142 120.795 410.742 120.795 409.067ZM131.276 408.71V409.619H128.121V412.347H126.998V409.619H123.879V408.71H131.276ZM130.617 404.664V405.555H128.255C128.366 406.348 129.262 407.146 130.928 407.347L130.518 408.238C129.092 408.046 128.072 407.436 127.586 406.598C127.087 407.436 126.076 408.046 124.663 408.238L124.244 407.347C125.884 407.146 126.789 406.348 126.918 405.555H124.547V404.664H130.617ZM134.369 409.067C134.369 410.742 133.852 412.142 132.996 413.345H131.739C132.354 412.454 132.996 410.671 132.996 409.067C132.996 407.471 132.354 405.689 131.739 404.798H132.996C133.852 406.001 134.369 407.391 134.369 409.067ZM140.028 406.277C140.028 407.587 140.393 408.942 141.499 409.655L140.884 410.537C140.184 410.114 139.738 409.419 139.484 408.586C139.19 409.503 138.705 410.27 137.969 410.716L137.274 409.878C138.477 409.129 138.923 407.703 138.923 406.331V404.931H140.028V406.277ZM144.457 404.236V412.347H143.37V404.236H144.457ZM142.755 404.352V411.972H141.695V407.899H140.643V406.972H141.695V404.352H142.755ZM152.737 410.466V411.402H145.313V410.466H148.441V408.808H146.097V404.833H151.908V408.808H149.573V410.466H152.737ZM147.22 405.742V407.917H150.785V405.742H147.22ZM157.728 404.94V405.832H153.218V404.94H154.965V404.165H156.097V404.94H157.728ZM155.518 406.063C156.632 406.063 157.434 406.669 157.443 407.543C157.434 408.416 156.632 409.013 155.518 409.013C154.395 409.013 153.611 408.416 153.619 407.543C153.611 406.669 154.395 406.063 155.518 406.063ZM155.518 406.91C155.001 406.91 154.671 407.133 154.68 407.543C154.671 407.953 155.001 408.184 155.518 408.184C156.026 408.184 156.382 407.953 156.382 407.543C156.382 407.133 156.026 406.91 155.518 406.91ZM160.036 404.236V409.067H158.905V408.479H157.799V407.569H158.905V406.883H157.817V405.965H158.905V404.236H160.036ZM155.705 409.37V409.967H158.913V409.37H160.036V412.257H154.564V409.37H155.705ZM155.705 411.384H158.913V410.814H155.705V411.384ZM167.906 404.236V412.347H166.774V404.236H167.906ZM161.124 410.056C161.743 410.052 162.452 410.052 163.191 410.029V409.343C162.3 409.187 161.721 408.635 161.73 407.873C161.721 406.963 162.55 406.348 163.744 406.348C164.947 406.348 165.785 406.963 165.785 407.873C165.785 408.63 165.206 409.183 164.314 409.343V409.994C164.992 409.962 165.678 409.909 166.329 409.824L166.409 410.662C164.635 410.965 162.719 410.983 161.275 410.983L161.124 410.056ZM166.213 405.136V406.028H161.284V405.136H163.191V404.272H164.323V405.136H166.213ZM163.744 407.213C163.191 407.213 162.799 407.454 162.808 407.873C162.799 408.3 163.191 408.532 163.744 408.532C164.314 408.532 164.698 408.3 164.698 407.873C164.698 407.454 164.314 407.213 163.744 407.213Z" fill="black"/>
<path d="M251.401 410.386V409.325L254.128 405.074H255.813V409.307H256.633V410.386H255.813V411.527H254.538V410.386H251.401ZM252.756 409.307H254.556V406.545H254.494L252.756 409.254V409.307ZM259.877 411.616C258.531 411.616 257.551 410.823 257.524 409.708H258.825C258.852 410.216 259.315 410.555 259.877 410.555C260.545 410.555 261.018 410.083 261.018 409.414C261.018 408.728 260.536 408.256 259.859 408.247C259.378 408.247 259.039 408.425 258.843 408.79H257.631L257.978 405.074H261.953V406.17H259.084L258.905 407.801H258.959C259.199 407.48 259.681 407.258 260.251 407.258C261.436 407.258 262.319 408.14 262.319 409.379C262.319 410.68 261.329 411.616 259.877 411.616ZM264.467 410.867L263.7 413.407H262.755L263.201 410.867H264.467ZM267.88 411.616C266.267 411.616 265.287 410.413 265.287 408.3C265.287 406.188 266.267 404.985 267.88 404.985C269.493 404.985 270.474 406.197 270.474 408.3C270.474 410.421 269.493 411.616 267.88 411.616ZM267.88 410.511C268.629 410.511 269.11 409.789 269.101 408.3C269.101 406.83 268.629 406.081 267.88 406.081C267.131 406.081 266.659 406.83 266.659 408.3C266.65 409.789 267.131 410.511 267.88 410.511ZM273.905 411.616C272.292 411.616 271.311 410.413 271.311 408.3C271.311 406.188 272.292 404.985 273.905 404.985C275.518 404.985 276.498 406.197 276.498 408.3C276.498 410.421 275.518 411.616 273.905 411.616ZM273.905 410.511C274.654 410.511 275.135 409.789 275.126 408.3C275.126 406.83 274.654 406.081 273.905 406.081C273.156 406.081 272.684 406.83 272.684 408.3C272.675 409.789 273.156 410.511 273.905 410.511ZM279.93 411.616C278.317 411.616 277.336 410.413 277.336 408.3C277.336 406.188 278.317 404.985 279.93 404.985C281.543 404.985 282.523 406.197 282.523 408.3C282.523 410.421 281.543 411.616 279.93 411.616ZM279.93 410.511C280.678 410.511 281.16 409.789 281.151 408.3C281.151 406.83 280.678 406.081 279.93 406.081C279.181 406.081 278.709 406.83 278.709 408.3C278.7 409.789 279.181 410.511 279.93 410.511ZM284.627 410.867L283.86 413.407H282.915L283.361 410.867H284.627ZM288.04 411.616C286.427 411.616 285.446 410.413 285.446 408.3C285.446 406.188 286.427 404.985 288.04 404.985C289.653 404.985 290.634 406.197 290.634 408.3C290.634 410.421 289.653 411.616 288.04 411.616ZM288.04 410.511C288.789 410.511 289.27 409.789 289.261 408.3C289.261 406.83 288.789 406.081 288.04 406.081C287.291 406.081 286.819 406.83 286.819 408.3C286.81 409.789 287.291 410.511 288.04 410.511ZM294.065 411.616C292.452 411.616 291.471 410.413 291.471 408.3C291.471 406.188 292.452 404.985 294.065 404.985C295.678 404.985 296.658 406.197 296.658 408.3C296.658 410.421 295.678 411.616 294.065 411.616ZM294.065 410.511C294.813 410.511 295.295 409.789 295.286 408.3C295.286 406.83 294.813 406.081 294.065 406.081C293.316 406.081 292.844 406.83 292.844 408.3C292.835 409.789 293.316 410.511 294.065 410.511ZM300.09 411.616C298.476 411.616 297.496 410.413 297.496 408.3C297.496 406.188 298.476 404.985 300.09 404.985C301.703 404.985 302.683 406.197 302.683 408.3C302.683 410.421 301.703 411.616 300.09 411.616ZM300.09 410.511C300.838 410.511 301.319 409.789 301.311 408.3C301.311 406.83 300.838 406.081 300.09 406.081C299.341 406.081 298.869 406.83 298.869 408.3C298.86 409.789 299.341 410.511 300.09 410.511Z" fill="#B4B4B4"/>
<path d="M239.493 233.308V240.015H238.21V236.722H236.705V235.681H238.21V233.308H239.493ZM239.715 241.297V242.328H233.392V239.429H234.685V241.297H239.715ZM235.22 235.106C235.22 236.166 235.866 237.308 237.331 237.782L236.695 238.803C235.675 238.474 234.978 237.803 234.574 236.964C234.17 237.893 233.437 238.631 232.351 238.994L231.695 237.944C233.21 237.469 233.897 236.267 233.907 235.096V234.954H232.058V233.924H237.048V234.954H235.22V235.106ZM248.412 233.298V242.489H247.109V233.298H248.412ZM245.654 234.257C245.654 237.045 244.674 239.358 241.392 240.914L240.715 239.883C243.089 238.762 244.134 237.308 244.341 235.267H241.21V234.257H245.654ZM259.957 233.298V242.489H258.735V237.873H257.846V242.045H256.664V233.449H257.846V236.843H258.735V233.298H259.957ZM255.694 234.358V235.399H253.563V239.318C254.452 239.313 255.24 239.267 256.129 239.106L256.219 240.156C255.098 240.368 254.119 240.398 252.906 240.409H252.27V234.358H255.694ZM268.643 233.298V242.51H267.34V233.298H268.643ZM262.694 234.025V236.267H264.674V234.025H265.946V240.358H261.401V234.025H262.694ZM262.694 239.318H264.674V237.267H262.694V239.318ZM275.593 236.176C275.593 237.479 276.269 238.964 277.734 239.651L277.017 240.621C276.037 240.181 275.355 239.313 274.966 238.287C274.573 239.393 273.845 240.328 272.805 240.782L272.098 239.782C273.593 239.126 274.31 237.56 274.32 236.176V235.823H272.421V234.793H274.31V233.5H275.603V234.793H277.471V235.823H275.593V236.176ZM279.522 233.298V236.863H280.875V237.944H279.522V242.489H278.229V233.298H279.522ZM283.36 233.853C284.582 233.853 285.481 234.782 285.491 236.096C285.481 237.429 284.582 238.328 283.36 238.328C282.138 238.328 281.249 237.429 281.249 236.096C281.249 234.782 282.138 233.853 283.36 233.853ZM283.36 234.944C282.795 234.944 282.401 235.368 282.401 236.096C282.401 236.823 282.795 237.257 283.36 237.257C283.916 237.257 284.31 236.823 284.32 236.096C284.31 235.368 283.916 234.944 283.36 234.944ZM289.107 233.308V238.792H287.885V236.56H287.128V238.742H285.936V233.469H287.128V235.53H287.885V233.308H289.107ZM289.107 239.196V242.489H287.825V240.227H282.754V239.196H289.107Z" fill="black"/>
<path d="M246.775 251.485C246.784 249.81 247.257 248.411 248.094 247.216H248.968C248.353 248.099 247.765 249.899 247.765 251.485C247.765 253.081 248.353 254.872 248.968 255.763H248.094C247.257 254.569 246.784 253.17 246.775 251.485ZM250.474 253.945H249.431L251.749 247.493H252.88L255.207 253.945H254.164L253.576 252.243H251.062L250.474 253.945ZM251.347 251.423H253.29L252.337 248.669H252.292L251.347 251.423ZM257.854 251.485C257.845 253.17 257.372 254.569 256.534 255.763H255.661C256.276 254.872 256.864 253.081 256.864 251.485C256.864 249.899 256.276 248.099 255.661 247.216H256.534C257.372 248.411 257.845 249.81 257.854 251.485ZM262.06 250.808V251.628H259.199V250.808H262.06ZM263.406 251.485C263.415 249.81 263.887 248.411 264.725 247.216H265.598C264.983 248.099 264.395 249.899 264.395 251.485C264.395 253.081 264.983 254.872 265.598 255.763H264.725C263.887 254.569 263.415 253.17 263.406 251.485ZM266.552 253.945V247.493H268.914C270.286 247.493 270.955 248.232 270.955 249.186C270.955 249.988 270.465 250.398 269.867 250.55V250.612C270.509 250.648 271.204 251.209 271.204 252.207C271.204 253.197 270.527 253.945 269.021 253.945H266.552ZM268.932 253.108C269.859 253.108 270.233 252.698 270.233 252.163C270.233 251.548 269.743 251.049 268.967 251.049H267.532V253.108H268.932ZM268.834 250.282C269.484 250.282 269.992 249.881 269.992 249.266C269.992 248.732 269.627 248.33 268.851 248.33H267.532V250.282H268.834ZM274.083 251.485C274.074 253.17 273.602 254.569 272.764 255.763H271.891C272.506 254.872 273.094 253.081 273.094 251.485C273.094 249.899 272.506 248.099 271.891 247.216H272.764C273.602 248.411 274.074 249.81 274.083 251.485Z" fill="#B4B4B4"/>
<path d="M309 224.563V553.111" stroke="#C1C1C1" stroke-width="0.30421"/>
<path d="M116.438 253.768H145.337" stroke="#C1C1C1" stroke-width="0.30421"/>
<path d="M114 304.875H205.263" stroke="#C1C1C1" stroke-width="0.30421"/>
<path d="M114 346.247H205.263" stroke="#C1C1C1" stroke-width="0.30421"/>
<path d="M114 387.62H205.263" stroke="#C1C1C1" stroke-width="0.30421"/>
<path d="M194 263.502H309" stroke="#C1C1C1" stroke-width="0.30362"/>
<path d="M205.414 304.875H309" stroke="#C1C1C1" stroke-width="0.288159"/>
<path d="M205.414 346.247H309" stroke="#C1C1C1" stroke-width="0.288159"/>
<path d="M205.414 387.62H308.864" stroke="#C1C1C1" stroke-width="0.30421"/>
<path d="M202.066 224.867H309" stroke="#B9B9B9" stroke-width="0.569642"/>
<path d="M207.697 224.867H117.651C115.803 224.867 114.305 226.366 114.305 228.214V549.46C114.305 551.308 115.803 552.806 117.651 552.806H207.697C209.545 552.806 211.044 551.308 211.044 549.46V228.214C211.044 226.366 209.545 224.867 207.697 224.867Z" stroke="black" stroke-width="0.608421"/>
<path d="M117.651 224.563H207.697C208.665 224.563 209.594 224.948 210.278 225.633C210.963 226.317 211.347 227.246 211.347 228.214V263.502H114V228.214C114 227.246 114.385 226.317 115.069 225.633C115.754 224.948 116.682 224.563 117.651 224.563Z" fill="black"/>
<path d="M153.352 239.077V248.269H152.069V243.663H150.241V242.613H152.069V239.077H153.352ZM150.291 240.037C150.291 242.815 149.393 245.077 146.18 246.673L145.514 245.663C147.837 244.517 148.797 243.057 148.999 241.047H145.948V240.037H150.291ZM158.291 239.966V243.512H156.039V245.158C156.913 245.148 157.746 245.113 158.685 244.966L158.776 245.996C157.574 246.198 156.584 246.229 155.443 246.229H154.807V242.481H157.049V241.007H154.796V239.966H158.291ZM162.493 239.077V248.269H161.271V243.592H160.382V247.825H159.2V239.229H160.382V242.552H161.271V239.077H162.493ZM171.251 239.077V248.289H169.958V243.643H168.301V242.613H169.958V239.077H171.251ZM166.927 241.956C166.927 243.289 167.655 244.774 169.16 245.421L168.473 246.411C167.427 245.976 166.7 245.097 166.301 244.047C165.897 245.163 165.175 246.103 164.119 246.552L163.443 245.562C164.917 244.906 165.635 243.34 165.645 241.956V241.603H163.736V240.572H165.645V239.279H166.938V240.572H168.796V241.603H166.927V241.956ZM180.169 239.077V244.461H178.887V243.289H177.17V243.956H172.806V239.754H177.17V240.421H178.887V239.077H180.169ZM174.089 240.774V242.936H175.907V240.774H174.089ZM177.028 244.704C178.988 244.704 180.19 245.36 180.2 246.491C180.19 247.623 178.988 248.269 177.028 248.269C175.069 248.269 173.867 247.623 173.867 246.491C173.867 245.36 175.069 244.704 177.028 244.704ZM177.028 245.683C175.806 245.683 175.149 245.946 175.149 246.491C175.149 247.017 175.806 247.289 177.028 247.289C178.25 247.289 178.917 247.017 178.917 246.491C178.917 245.946 178.25 245.683 177.028 245.683ZM177.17 242.249H178.887V241.441H177.17V242.249Z" fill="white"/>
</g>
<g filter="url(#filter5_d_8661_2461)">
<rect x="44" y="152" width="333" height="225" rx="16" fill="white" shape-rendering="crispEdges"/>
<rect x="45.5" y="153.5" width="330" height="222" rx="14.5" stroke="#7F7CFF" stroke-width="3" shape-rendering="crispEdges"/>
<path d="M301.975 167H118.947C109.587 167 102 174.587 102 183.947C102 193.307 109.587 200.894 118.947 200.894H301.975C311.334 200.894 318.922 193.307 318.922 183.947C318.922 174.587 311.334 167 301.975 167Z" fill="#F8F8F9"/>
<g filter="url(#filter6_d_8661_2461)">
<path d="M162.332 171.745H118.948C112.209 171.745 106.746 177.208 106.746 183.947C106.746 190.686 112.209 196.149 118.948 196.149H162.332C169.071 196.149 174.534 190.686 174.534 183.947C174.534 177.208 169.071 171.745 162.332 171.745Z" fill="white"/>
</g>
<path d="M139.495 177.536V185.888H137.897V181.788H136.023V180.492H137.897V177.536H139.495ZM139.771 187.485V188.768H131.898V185.159H133.508V187.485H139.771ZM134.174 179.775C134.174 181.096 134.979 182.517 136.803 183.108L136.011 184.379C134.74 183.97 133.872 183.134 133.369 182.09C132.866 183.247 131.954 184.165 130.602 184.618L129.785 183.31C131.671 182.718 132.526 181.222 132.539 179.763V179.587H130.237V178.304H136.451V179.587H134.174V179.775ZM144.551 181.008C144.551 182.744 145.18 184.479 146.802 185.36L145.922 186.53C144.891 186.001 144.205 185.071 143.809 183.951C143.406 185.171 142.721 186.203 141.683 186.806L140.765 185.599C142.413 184.643 143.029 182.781 143.042 181.008V180.744H141.193V179.461H143.042V177.914H144.538V179.461H146.35V180.744H144.551V181.008ZM150.878 177.524V188.97H149.356V177.524H150.878ZM148.538 177.712V188.441H147.029V183.171H145.683V181.863H147.029V177.712H148.538Z" fill="black"/>
<path d="M197.62 178.178V179.033C197.62 179.92 197.62 180.926 197.331 182.291H198.928V183.272H188.614V182.291H196.123C196.425 180.976 196.438 180.014 196.438 179.159H189.91V178.178H197.62ZM197.633 184.706V188.743H189.872V184.706H197.633ZM191.042 185.649V187.775H196.45V185.649H191.042ZM202.425 178.304C203.922 178.304 205.016 179.423 205.016 181.008C205.016 182.593 203.922 183.674 202.425 183.674C200.915 183.674 199.834 182.593 199.846 181.008C199.834 179.423 200.915 178.304 202.425 178.304ZM202.425 179.335C201.544 179.335 200.915 180.002 200.915 181.008C200.915 181.989 201.544 182.681 202.425 182.668C203.293 182.681 203.922 181.989 203.934 181.008C203.922 180.002 203.293 179.335 202.425 179.335ZM209.355 177.624V184.341H208.223V181.436H206.915V184.266H205.796V177.826H206.915V180.467H208.223V177.624H209.355ZM209.355 184.92V188.882H208.173V185.876H201.695V184.92H209.355ZM219.732 177.612V180.266H221.367V181.259H219.732V183.976H218.537V177.612H219.732ZM216.625 178.316C216.613 181.209 214.663 183.234 211.305 184.14L210.827 183.184C213.518 182.473 215.11 181.058 215.33 179.297H211.355V178.316H216.625ZM219.732 184.454V188.731H212.512V184.454H219.732ZM213.707 185.448V187.775H218.55V185.448H213.707ZM232.322 186.467V187.448H222.008V186.467H226.524V183.788H227.706V186.467H232.322ZM227.731 179.184C227.731 180.97 229.694 182.643 231.87 183.008L231.354 183.989C229.53 183.624 227.851 182.498 227.103 180.945C226.36 182.492 224.7 183.637 222.889 183.989L222.361 183.008C224.524 182.643 226.474 180.97 226.474 179.184V178.329H227.731V179.184Z" fill="#8A8A8B"/>
<path d="M267.44 178.178V179.033C267.44 179.92 267.44 180.926 267.151 182.291H268.748V183.272H258.435V182.291H265.944C266.245 180.976 266.258 180.014 266.258 179.159H259.73V178.178H267.44ZM267.453 184.706V188.743H259.692V184.706H267.453ZM260.862 185.649V187.775H266.271V185.649H260.862ZM272.245 178.304C273.742 178.304 274.836 179.423 274.836 181.008C274.836 182.593 273.742 183.674 272.245 183.674C270.736 183.674 269.654 182.593 269.667 181.008C269.654 179.423 270.736 178.304 272.245 178.304ZM272.245 179.335C271.365 179.335 270.736 180.002 270.736 181.008C270.736 181.989 271.365 182.681 272.245 182.668C273.113 182.681 273.742 181.989 273.754 181.008C273.742 180.002 273.113 179.335 272.245 179.335ZM279.175 177.624V184.341H278.043V181.436H276.735V184.266H275.616V177.826H276.735V180.467H278.043V177.624H279.175ZM279.175 184.92V188.882H277.993V185.876H271.516V184.92H279.175ZM290.973 182.92V183.888H280.697V182.92H290.973ZM285.829 184.756C288.257 184.756 289.716 185.511 289.716 186.819C289.716 188.127 288.257 188.869 285.829 188.856C283.389 188.869 281.917 188.127 281.917 186.819C281.917 185.511 283.389 184.756 285.829 184.756ZM285.829 185.687C284.106 185.699 283.125 186.089 283.125 186.819C283.125 187.536 284.106 187.913 285.829 187.913C287.527 187.913 288.521 187.536 288.521 186.819C288.521 186.089 287.527 185.699 285.829 185.687ZM290.055 178.165V179.146H286.634C286.766 180.241 288.364 181.171 290.445 181.385L290.018 182.329C288.068 182.102 286.452 181.278 285.842 180.09C285.213 181.278 283.603 182.102 281.653 182.329L281.238 181.385C283.282 181.171 284.892 180.247 285.037 179.146H281.641V178.165H290.055ZM300.608 177.612V182.102H302.356V183.096H300.608V188.869H299.413V177.612H300.608ZM297.665 178.794C297.652 182.052 296.218 184.957 292.508 186.794L291.841 185.863C294.665 184.454 296.2 182.417 296.445 179.788H292.407V178.794H297.665Z" fill="#8A8A8B"/>
<g clip-path="url(#clip2_8661_2461)">
<g filter="url(#filter7_d_8661_2461)">
<path d="M97.3994 216.477H205.917C207.083 216.477 208.202 216.938 209.027 217.758C209.853 218.578 210.316 219.691 210.316 220.851V610.19H97.3994C96.2326 610.19 95.1136 609.73 94.2885 608.909C93.4635 608.089 93 606.976 93 605.816V220.851C93 219.691 93.4635 218.578 94.2885 217.758C95.1136 216.938 96.2326 216.477 97.3994 216.477Z" fill="white"/>
<path d="M97.3999 216.841H205.917C206.987 216.841 208.013 217.264 208.769 218.016C209.525 218.768 209.95 219.788 209.95 220.851V609.826H97.3999C96.3304 609.826 95.3046 609.403 94.5483 608.651C93.7921 607.899 93.3672 606.879 93.3672 605.816V220.851C93.3672 219.788 93.7921 218.768 94.5483 218.016C95.3046 217.264 96.3304 216.841 97.3999 216.841Z" stroke="#B9B9B9" stroke-width="0.608421"/>
</g>
<path d="M327.684 312.718H210V362.452H327.684V312.718Z" fill="#FF5353" fill-opacity="0.05"/>
<path d="M107.966 287.186V288.095H104.811V290.822H103.688V288.095H100.569V287.186H107.966ZM107.307 283.14V284.031H104.945C105.056 284.824 105.952 285.622 107.618 285.822L107.209 286.714C105.783 286.522 104.762 285.911 104.276 285.074C103.777 285.911 102.766 286.522 101.353 286.714L100.934 285.822C102.574 285.622 103.479 284.824 103.608 284.031H101.237V283.14H107.307ZM111.567 283.862C111.558 284.878 112.137 285.858 113.474 286.259L112.904 287.15C111.981 286.856 111.344 286.281 110.978 285.537C110.613 286.339 109.954 286.968 109 287.275L108.43 286.384C109.784 285.947 110.381 284.895 110.381 283.862V283.086H111.567V283.862ZM115.248 287.899V290.822H114.107V288.808H109.668V287.899H115.248ZM115.248 282.712V287.551H114.107V282.712H115.248ZM123.162 282.712V290.822H122.03V282.712H123.162ZM116.379 288.532C116.999 288.527 117.707 288.527 118.447 288.505V287.819C117.556 287.663 116.977 287.11 116.985 286.348C116.977 285.439 117.805 284.824 119 284.824C120.203 284.824 121.041 285.439 121.041 286.348C121.041 287.106 120.461 287.658 119.57 287.819V288.469C120.247 288.438 120.934 288.385 121.584 288.3L121.664 289.138C119.891 289.441 117.975 289.459 116.531 289.459L116.379 288.532ZM121.468 283.612V284.503H116.54V283.612H118.447V282.747H119.579V283.612H121.468ZM119 285.689C118.447 285.689 118.055 285.929 118.064 286.348C118.055 286.776 118.447 287.008 119 287.008C119.57 287.008 119.953 286.776 119.953 286.348C119.953 285.929 119.57 285.689 119 285.689ZM127.217 284.548C127.208 286.001 127.832 287.471 129.133 288.095L128.447 289.004C127.578 288.576 126.994 287.774 126.655 286.794C126.303 287.845 125.675 288.705 124.757 289.156L124.053 288.238C125.425 287.605 126.076 286.054 126.076 284.548V283.336H127.217V284.548ZM130.63 282.712V285.84H131.825V286.803H130.63V290.822H129.49V282.712H130.63ZM136.824 284.753C136.824 286.063 137.19 287.418 138.295 288.131L137.68 289.013C136.98 288.59 136.535 287.894 136.281 287.061C135.987 287.979 135.501 288.746 134.766 289.191L134.071 288.353C135.274 287.605 135.719 286.179 135.719 284.806V283.407H136.824V284.753ZM141.254 282.712V290.822H140.167V282.712H141.254ZM139.552 282.828V290.448H138.491V286.375H137.439V285.448H138.491V282.828H139.552ZM149.534 288.942V289.877H142.11V288.942H145.238V287.284H142.894V283.309H148.705V287.284H146.37V288.942H149.534ZM144.017 284.218V286.393H147.582V284.218H144.017Z" fill="black"/>
<path d="M277.712 283.55V290.002H276.366V284.824H276.33L274.851 285.751V284.566L276.446 283.55H277.712ZM280.305 289.343L279.539 291.883H278.594L279.04 289.343H280.305ZM281.482 290.002L281.473 289.031L283.79 286.901C284.396 286.321 284.717 285.965 284.717 285.457C284.717 284.886 284.28 284.53 283.692 284.53C283.086 284.53 282.694 284.913 282.694 285.528H281.419C281.41 284.263 282.346 283.46 283.71 283.46C285.091 283.46 286.009 284.245 286.009 285.368C286.009 286.099 285.653 286.705 284.325 287.908L283.344 288.861V288.897H286.098V290.002H281.482ZM289.44 290.091C288.023 290.091 287.007 289.307 286.98 288.184H288.335C288.362 288.665 288.825 288.986 289.449 288.986C290.091 288.986 290.554 288.621 290.545 288.104C290.554 287.578 290.082 287.204 289.324 287.204H288.727V286.214H289.324C289.957 286.214 290.403 285.867 290.403 285.359C290.403 284.869 290.029 284.53 289.458 284.53C288.888 284.53 288.415 284.851 288.398 285.341H287.114C287.132 284.227 288.139 283.46 289.458 283.46C290.804 283.46 291.704 284.254 291.695 285.279C291.704 286.001 291.196 286.517 290.474 286.642V286.696C291.419 286.812 291.945 287.391 291.936 288.193C291.945 289.298 290.893 290.091 289.44 290.091ZM295.376 290.091C294.039 290.082 292.774 289.289 292.774 286.927C292.774 284.753 293.816 283.46 295.429 283.46C296.731 283.46 297.613 284.28 297.747 285.341H296.428C296.321 284.886 295.946 284.61 295.429 284.61C294.556 284.61 294.093 285.403 294.084 286.669H294.146C294.44 286.099 295.082 285.76 295.795 285.76C296.953 285.76 297.818 286.633 297.818 287.845C297.818 289.156 296.829 290.1 295.376 290.091ZM295.367 289.031C296.027 289.031 296.517 288.532 296.517 287.881C296.517 287.239 296.044 286.731 295.385 286.731C294.725 286.731 294.226 287.248 294.217 287.881C294.226 288.514 294.708 289.031 295.367 289.031ZM299.921 289.343L299.155 291.883H298.21L298.656 289.343H299.921ZM303.335 290.091C301.722 290.091 300.741 288.888 300.741 286.776C300.741 284.664 301.722 283.46 303.335 283.46C304.948 283.46 305.928 284.673 305.928 286.776C305.928 288.897 304.948 290.091 303.335 290.091ZM303.335 288.986C304.083 288.986 304.565 288.264 304.556 286.776C304.556 285.305 304.083 284.557 303.335 284.557C302.586 284.557 302.114 285.305 302.114 286.776C302.105 288.264 302.586 288.986 303.335 288.986ZM309.36 290.091C307.746 290.091 306.766 288.888 306.766 286.776C306.766 284.664 307.746 283.46 309.36 283.46C310.973 283.46 311.953 284.673 311.953 286.776C311.953 288.897 310.973 290.091 309.36 290.091ZM309.36 288.986C310.108 288.986 310.589 288.264 310.581 286.776C310.581 285.305 310.108 284.557 309.36 284.557C308.611 284.557 308.139 285.305 308.139 286.776C308.13 288.264 308.611 288.986 309.36 288.986ZM315.384 290.091C313.771 290.091 312.791 288.888 312.791 286.776C312.791 284.664 313.771 283.46 315.384 283.46C316.997 283.46 317.978 284.673 317.978 286.776C317.978 288.897 316.997 290.091 315.384 290.091ZM315.384 288.986C316.133 288.986 316.614 288.264 316.605 286.776C316.605 285.305 316.133 284.557 315.384 284.557C314.636 284.557 314.163 285.305 314.163 286.776C314.154 288.264 314.636 288.986 315.384 288.986Z" fill="#B4B4B4"/>
<path d="M103.171 334.331C103.171 335.641 103.537 336.996 104.642 337.709L104.027 338.591C103.327 338.168 102.882 337.473 102.628 336.639C102.333 337.557 101.848 338.324 101.112 338.77L100.417 337.932C101.62 337.183 102.066 335.757 102.066 334.385V332.985H103.171V334.331ZM107.601 332.29V340.401H106.513V332.29H107.601ZM105.898 332.406V340.026H104.838V335.953H103.786V335.026H104.838V332.406H105.898ZM115.88 338.52V339.456H108.456V338.52H111.585V336.862H109.241V332.887H115.051V336.862H112.716V338.52H115.88ZM110.364 333.796V335.971H113.928V333.796H110.364ZM123.759 336.827V337.754H120.586V340.409H119.463V337.754H116.335V336.827H123.759ZM120.025 332.558C121.762 332.558 122.983 333.279 122.983 334.402C122.983 335.508 121.762 336.212 120.025 336.212C118.287 336.212 117.075 335.508 117.083 334.402C117.075 333.279 118.287 332.558 120.025 332.558ZM120.025 333.467C118.937 333.467 118.242 333.805 118.251 334.402C118.242 334.982 118.937 335.312 120.025 335.312C121.121 335.312 121.807 334.982 121.807 334.402C121.807 333.805 121.121 333.467 120.025 333.467ZM131.031 332.29V340.418H129.9V332.29H131.031ZM128.518 332.968V336.096H125.844V337.584C127.079 337.58 128.13 337.508 129.32 337.317L129.418 338.235C128.081 338.467 126.878 338.52 125.399 338.52H124.668V335.196H127.359V333.886H124.659V332.968H128.518ZM136.272 333.057V338.422H132.377V333.057H136.272ZM133.5 333.948V337.522H135.14V333.948H133.5ZM138.518 332.29V335.347H139.712V336.292H138.518V340.401H137.377V332.29H138.518ZM143.705 332.406C145.568 332.406 146.646 332.896 146.655 333.787C146.646 334.688 145.568 335.178 143.705 335.178C141.833 335.178 140.746 334.688 140.746 333.787C140.746 332.896 141.833 332.406 143.705 332.406ZM143.705 333.235C142.511 333.235 141.931 333.431 141.94 333.787C141.931 334.189 142.511 334.34 143.705 334.34C144.908 334.34 145.478 334.189 145.478 333.787C145.478 333.431 144.908 333.235 143.705 333.235ZM147.404 335.561V336.461H140.006V335.561H147.404ZM146.503 336.934V339.001H141.985V339.491H146.717V340.347H140.871V338.208H145.38V337.762H140.862V336.934H146.503ZM154.435 332.656V333.306C154.435 333.939 154.435 334.643 154.248 335.57H155.318V336.488H147.894V335.57H153.099C153.277 334.759 153.299 334.131 153.304 333.565H148.803V332.656H154.435ZM154.409 337.344V340.311H148.776V337.344H154.409ZM149.89 338.235V339.402H153.277V338.235H149.89ZM162.465 332.994V333.761C162.465 334.777 162.465 335.918 162.136 337.638L160.995 337.522C161.302 335.989 161.316 334.848 161.325 333.894H156.548V332.994H162.465ZM163.178 338.484V339.411H155.781V338.484H158.428V335.695H159.56V338.484H163.178Z" fill="black"/>
<path d="M273.528 335.828V336.88H270.587V335.828H273.528ZM277.04 339.67C275.569 339.67 274.509 338.894 274.509 337.843C274.509 337.032 275.133 336.372 275.935 336.247V336.203C275.24 336.069 274.758 335.481 274.758 334.777C274.758 333.77 275.721 333.039 277.04 333.039C278.359 333.039 279.322 333.77 279.33 334.777C279.322 335.49 278.831 336.069 278.154 336.203V336.247C278.938 336.372 279.571 337.032 279.571 337.843C279.571 338.894 278.511 339.67 277.04 339.67ZM277.04 338.645C277.717 338.645 278.172 338.262 278.172 337.709C278.172 337.147 277.7 336.738 277.04 336.738C276.38 336.738 275.899 337.147 275.908 337.709C275.899 338.262 276.354 338.645 277.04 338.645ZM277.04 335.793C277.61 335.793 278.02 335.427 278.02 334.91C278.02 334.411 277.619 334.055 277.04 334.055C276.461 334.055 276.069 334.402 276.069 334.91C276.069 335.427 276.47 335.793 277.04 335.793ZM281.746 338.921L280.979 341.461H280.035L280.48 338.921H281.746ZM282.815 338.44V337.379L285.542 333.128H287.227V337.361H288.047V338.44H287.227V339.581H285.952V338.44H282.815ZM284.17 337.361H285.97V334.599H285.908L284.17 337.308V337.361ZM291.425 339.67C289.811 339.67 288.831 338.467 288.831 336.354C288.831 334.242 289.811 333.039 291.425 333.039C293.038 333.039 294.018 334.251 294.018 336.354C294.018 338.475 293.038 339.67 291.425 339.67ZM291.425 338.565C292.173 338.565 292.655 337.843 292.646 336.354C292.646 334.884 292.173 334.135 291.425 334.135C290.676 334.135 290.204 334.884 290.204 336.354C290.195 337.843 290.676 338.565 291.425 338.565ZM297.449 339.67C295.836 339.67 294.856 338.467 294.856 336.354C294.856 334.242 295.836 333.039 297.449 333.039C299.063 333.039 300.043 334.251 300.043 336.354C300.043 338.475 299.063 339.67 297.449 339.67ZM297.449 338.565C298.198 338.565 298.679 337.843 298.67 336.354C298.67 334.884 298.198 334.135 297.449 334.135C296.701 334.135 296.228 334.884 296.228 336.354C296.22 337.843 296.701 338.565 297.449 338.565ZM302.146 338.921L301.38 341.461H300.435L300.881 338.921H302.146ZM305.56 339.67C303.947 339.67 302.966 338.467 302.966 336.354C302.966 334.242 303.947 333.039 305.56 333.039C307.173 333.039 308.153 334.251 308.153 336.354C308.153 338.475 307.173 339.67 305.56 339.67ZM305.56 338.565C306.308 338.565 306.79 337.843 306.781 336.354C306.781 334.884 306.308 334.135 305.56 334.135C304.811 334.135 304.339 334.884 304.339 336.354C304.33 337.843 304.811 338.565 305.56 338.565ZM311.585 339.67C309.971 339.67 308.991 338.467 308.991 336.354C308.991 334.242 309.971 333.039 311.585 333.039C313.198 333.039 314.178 334.251 314.178 336.354C314.178 338.475 313.198 339.67 311.585 339.67ZM311.585 338.565C312.333 338.565 312.814 337.843 312.806 336.354C312.806 334.884 312.333 334.135 311.585 334.135C310.836 334.135 310.364 334.884 310.364 336.354C310.355 337.843 310.836 338.565 311.585 338.565ZM317.609 339.67C315.996 339.67 315.016 338.467 315.016 336.354C315.016 334.242 315.996 333.039 317.609 333.039C319.222 333.039 320.203 334.251 320.203 336.354C320.203 338.475 319.222 339.67 317.609 339.67ZM317.609 338.565C318.358 338.565 318.839 337.843 318.83 336.354C318.83 334.884 318.358 334.135 317.609 334.135C316.861 334.135 316.388 334.884 316.388 336.354C316.379 337.843 316.861 338.565 317.609 338.565Z" fill="#FF5353"/>
<path d="M247.864 227.842V234.549H246.581V231.256H245.076V230.216H246.581V227.842H247.864ZM248.086 235.832V236.862H241.763V233.963H243.056V235.832H248.086ZM243.591 229.64C243.591 230.7 244.238 231.842 245.702 232.317L245.066 233.337C244.046 233.008 243.349 232.337 242.945 231.498C242.541 232.428 241.808 233.165 240.723 233.529L240.066 232.478C241.581 232.003 242.268 230.801 242.278 229.63V229.488H240.43V228.458H245.419V229.488H243.591V229.64ZM256.783 227.832V237.024H255.48V227.832H256.783ZM254.025 228.791C254.025 231.579 253.045 233.892 249.763 235.448L249.086 234.418C251.46 233.296 252.505 231.842 252.712 229.801H249.581V228.791H254.025ZM268.328 227.832V237.024H267.106V232.407H266.217V236.579H265.035V227.983H266.217V231.377H267.106V227.832H268.328ZM264.065 228.892V229.933H261.934V233.852C262.823 233.847 263.611 233.801 264.5 233.64L264.591 234.69C263.469 234.902 262.49 234.933 261.278 234.943H260.641V228.892H264.065ZM277.014 227.832V237.044H275.711V227.832H277.014ZM271.065 228.559V230.801H273.045V228.559H274.318V234.892H269.772V228.559H271.065ZM271.065 233.852H273.045V231.801H271.065V233.852ZM283.964 230.711C283.964 232.014 284.641 233.498 286.105 234.185L285.388 235.155C284.408 234.715 283.726 233.847 283.338 232.822C282.944 233.928 282.216 234.862 281.176 235.316L280.469 234.317C281.964 233.66 282.681 232.094 282.691 230.711V230.357H280.792V229.327H282.681V228.034H283.974V229.327H285.843V230.357H283.964V230.711ZM287.893 227.832V231.397H289.246V232.478H287.893V237.024H286.6V227.832H287.893ZM291.731 228.387C292.953 228.387 293.852 229.317 293.863 230.63C293.852 231.963 292.953 232.862 291.731 232.862C290.509 232.862 289.62 231.963 289.62 230.63C289.62 229.317 290.509 228.387 291.731 228.387ZM291.731 229.478C291.166 229.478 290.772 229.902 290.772 230.63C290.772 231.357 291.166 231.791 291.731 231.791C292.287 231.791 292.681 231.357 292.691 230.63C292.681 229.902 292.287 229.478 291.731 229.478ZM297.479 227.842V233.327H296.256V231.094H295.499V233.276H294.307V228.004H295.499V230.064H296.256V227.842H297.479ZM297.479 233.731V237.024H296.196V234.761H291.125V233.731H297.479Z" fill="black"/>
<path d="M255.392 251.27C255.401 249.594 255.873 248.195 256.711 247.001H257.584C256.969 247.883 256.381 249.683 256.381 251.27C256.381 252.865 256.969 254.657 257.584 255.548H256.711C255.873 254.354 255.401 252.954 255.392 251.27ZM259.091 253.73H258.048L260.365 247.277H261.497L263.823 253.73H262.78L262.192 252.027H259.679L259.091 253.73ZM259.964 251.208H261.907L260.953 248.454H260.909L259.964 251.208ZM266.47 251.27C266.461 252.954 265.989 254.354 265.151 255.548H264.278C264.893 254.657 265.481 252.865 265.481 251.27C265.481 249.683 264.893 247.883 264.278 247.001H265.151C265.989 248.195 266.461 249.594 266.47 251.27ZM270.677 250.593V251.413H267.816V250.593H270.677ZM272.023 251.27C272.031 249.594 272.504 248.195 273.342 247.001H274.215C273.6 247.883 273.012 249.683 273.012 251.27C273.012 252.865 273.6 254.657 274.215 255.548H273.342C272.504 254.354 272.031 252.954 272.023 251.27ZM275.169 253.73V247.277H277.53C278.903 247.277 279.571 248.017 279.571 248.971C279.571 249.773 279.081 250.183 278.484 250.334V250.396C279.126 250.432 279.821 250.994 279.821 251.992C279.821 252.981 279.144 253.73 277.637 253.73H275.169ZM277.548 252.892C278.475 252.892 278.849 252.482 278.849 251.947C278.849 251.332 278.359 250.833 277.584 250.833H276.149V252.892H277.548ZM277.45 250.067C278.101 250.067 278.609 249.666 278.609 249.051C278.609 248.516 278.243 248.115 277.468 248.115H276.149V250.067H277.45ZM282.7 251.27C282.691 252.954 282.218 254.354 281.381 255.548H280.507C281.122 254.657 281.71 252.865 281.71 251.27C281.71 249.683 281.122 247.883 280.507 247.001H281.381C282.218 248.195 282.691 249.594 282.7 251.27Z" fill="#B4B4B4"/>
<path d="M328 216.477V610.19" stroke="#C1C1C1" stroke-width="0.30421"/>
<path d="M95.9375 251.474H130.766" stroke="#C1C1C1" stroke-width="0.30421"/>
<path d="M93 312.718H202.984" stroke="#C1C1C1" stroke-width="0.30421"/>
<path d="M189.41 263.139H328" stroke="#C1C1C1" stroke-width="0.30362"/>
<path d="M203.164 312.718H327.998" stroke="#C1C1C1" stroke-width="0.288159"/>
<path d="M199.133 216.841H328.002" stroke="#B9B9B9" stroke-width="0.569642"/>
<path d="M205.917 216.841H97.3999C95.1727 216.841 93.3672 218.636 93.3672 220.851V605.816C93.3672 608.03 95.1727 609.826 97.3999 609.826H205.917C208.144 609.826 209.95 608.03 209.95 605.816V220.851C209.95 218.636 208.144 216.841 205.917 216.841Z" stroke="black" stroke-width="0.608421"/>
<path d="M97.3994 216.088H205.917C207.083 216.088 208.202 216.549 209.027 217.369C209.853 218.19 210.316 219.303 210.316 220.463V262.75H93V220.463C93 219.303 93.4635 218.19 94.2885 217.369C95.1136 216.549 96.2326 216.088 97.3994 216.088Z" fill="black"/>
<path d="M141.204 236.065V245.256H139.921V240.65H138.093V239.6H139.921V236.065H141.204ZM138.144 237.024C138.144 239.802 137.245 242.065 134.033 243.66L133.366 242.65C135.689 241.504 136.649 240.044 136.851 238.034H133.8V237.024H138.144ZM146.143 236.954V240.499H143.891V242.145C144.765 242.135 145.598 242.1 146.537 241.953L146.628 242.984C145.426 243.186 144.436 243.216 143.295 243.216H142.659V239.469H144.901V237.994H142.649V236.954H146.143ZM150.345 236.065V245.256H149.123V240.58H148.234V244.812H147.053V236.216H148.234V239.539H149.123V236.065H150.345ZM159.103 236.065V245.277H157.81V240.63H156.153V239.6H157.81V236.065H159.103ZM154.78 238.943C154.78 240.277 155.507 241.762 157.012 242.408L156.325 243.398C155.28 242.964 154.552 242.085 154.153 241.034C153.749 242.15 153.027 243.09 151.972 243.539L151.295 242.549C152.77 241.893 153.487 240.327 153.497 238.943V238.59H151.588V237.56H153.497V236.267H154.79V237.56H156.648V238.59H154.78V238.943ZM168.022 236.065V241.448H166.739V240.277H165.022V240.943H160.658V236.741H165.022V237.408H166.739V236.065H168.022ZM161.941 237.762V239.923H163.759V237.762H161.941ZM164.88 241.691C166.84 241.691 168.042 242.347 168.052 243.479C168.042 244.61 166.84 245.256 164.88 245.256C162.921 245.256 161.719 244.61 161.719 243.479C161.719 242.347 162.921 241.691 164.88 241.691ZM164.88 242.671C163.658 242.671 163.002 242.933 163.002 243.479C163.002 244.004 163.658 244.277 164.88 244.277C166.102 244.277 166.769 244.004 166.769 243.479C166.769 242.933 166.102 242.671 164.88 242.671ZM165.022 239.236H166.739V238.428H165.022V239.236Z" fill="white"/>
</g>
</g>
</g>
</g>
<defs>
<filter id="filter0_i_8661_2461" x="0" y="0" width="421" height="420" filterUnits="userSpaceOnUse" color-interpolation-filters="sRGB">
<feFlood flood-opacity="0" result="BackgroundImageFix"/>
<feBlend mode="normal" in="SourceGraphic" in2="BackgroundImageFix" result="shape"/>
<feColorMatrix in="SourceAlpha" type="matrix" values="0 0 0 0 0 0 0 0 0 0 0 0 0 0 0 0 0 0 127 0" result="hardAlpha"/>
<feOffset/>
<feGaussianBlur stdDeviation="2"/>
<feComposite in2="hardAlpha" operator="arithmetic" k2="-1" k3="1"/>
<feColorMatrix type="matrix" values="0 0 0 0 0 0 0 0 0 0 0 0 0 0 0 0 0 0 0.16 0"/>
<feBlend mode="normal" in2="shape" result="effect1_innerShadow_8661_2461"/>
</filter>
<filter id="filter1_d_8661_2461" x="58" y="23" width="305" height="540" filterUnits="userSpaceOnUse" color-interpolation-filters="sRGB">
<feFlood flood-opacity="0" result="BackgroundImageFix"/>
<feColorMatrix in="SourceAlpha" type="matrix" values="0 0 0 0 0 0 0 0 0 0 0 0 0 0 0 0 0 0 127 0" result="hardAlpha"/>
<feOffset dy="1"/>
<feGaussianBlur stdDeviation="8"/>
<feComposite in2="hardAlpha" operator="out"/>
<feColorMatrix type="matrix" values="0 0 0 0 0 0 0 0 0 0 0 0 0 0 0 0 0 0 0.08 0"/>
<feBlend mode="normal" in2="BackgroundImageFix" result="effect1_dropShadow_8661_2461"/>
<feBlend mode="normal" in="SourceGraphic" in2="effect1_dropShadow_8661_2461" result="shape"/>
</filter>
<filter id="filter2_i_8661_2461" x="85" y="51" width="251" height="482.885" filterUnits="userSpaceOnUse" color-interpolation-filters="sRGB">
<feFlood flood-opacity="0" result="BackgroundImageFix"/>
<feBlend mode="normal" in="SourceGraphic" in2="BackgroundImageFix" result="shape"/>
<feColorMatrix in="SourceAlpha" type="matrix" values="0 0 0 0 0 0 0 0 0 0 0 0 0 0 0 0 0 0 127 0" result="hardAlpha"/>
<feOffset dy="0.885417"/>
<feGaussianBlur stdDeviation="0.885417"/>
<feComposite in2="hardAlpha" operator="arithmetic" k2="-1" k3="1"/>
<feColorMatrix type="matrix" values="0 0 0 0 0.833512 0 0 0 0 0.831423 0 0 0 0 0.824016 0 0 0 0.25 0"/>
<feBlend mode="normal" in2="shape" result="effect1_innerShadow_8661_2461"/>
</filter>
<filter id="filter3_d_8661_2461" x="104.357" y="170.096" width="74.5679" height="31.1824" filterUnits="userSpaceOnUse" color-interpolation-filters="sRGB">
<feFlood flood-opacity="0" result="BackgroundImageFix"/>
<feColorMatrix in="SourceAlpha" type="matrix" values="0 0 0 0 0 0 0 0 0 0 0 0 0 0 0 0 0 0 127 0" result="hardAlpha"/>
<feOffset dy="2.03364"/>
<feGaussianBlur stdDeviation="1.6947"/>
<feColorMatrix type="matrix" values="0 0 0 0 0 0 0 0 0 0 0 0 0 0 0 0 0 0 0.2 0"/>
<feBlend mode="normal" in2="BackgroundImageFix" result="effect1_dropShadow_8661_2461"/>
<feBlend mode="normal" in="SourceGraphic" in2="effect1_dropShadow_8661_2461" result="shape"/>
</filter>
<filter id="filter4_d_8661_2461" x="114" y="221.521" width="105.257" height="334.632" filterUnits="userSpaceOnUse" color-interpolation-filters="sRGB">
<feFlood flood-opacity="0" result="BackgroundImageFix"/>
<feColorMatrix in="SourceAlpha" type="matrix" values="0 0 0 0 0 0 0 0 0 0 0 0 0 0 0 0 0 0 127 0" result="hardAlpha"/>
<feOffset dx="4.86737"/>
<feGaussianBlur stdDeviation="1.52105"/>
<feColorMatrix type="matrix" values="0 0 0 0 0 0 0 0 0 0 0 0 0 0 0 0 0 0 0.078 0"/>
<feBlend mode="normal" in2="BackgroundImageFix" result="effect1_dropShadow_8661_2461"/>
<feBlend mode="normal" in="SourceGraphic" in2="effect1_dropShadow_8661_2461" result="shape"/>
</filter>
<filter id="filter5_d_8661_2461" x="28" y="134" width="365" height="257" filterUnits="userSpaceOnUse" color-interpolation-filters="sRGB">
<feFlood flood-opacity="0" result="BackgroundImageFix"/>
<feColorMatrix in="SourceAlpha" type="matrix" values="0 0 0 0 0 0 0 0 0 0 0 0 0 0 0 0 0 0 127 0" result="hardAlpha"/>
<feOffset dy="-2"/>
<feGaussianBlur stdDeviation="8"/>
<feComposite in2="hardAlpha" operator="out"/>
<feColorMatrix type="matrix" values="0 0 0 0 0 0 0 0 0 0 0 0 0 0 0 0 0 0 0.16 0"/>
<feBlend mode="normal" in2="BackgroundImageFix" result="effect1_dropShadow_8661_2461"/>
<feBlend mode="normal" in="SourceGraphic" in2="effect1_dropShadow_8661_2461" result="shape"/>
</filter>
<filter id="filter6_d_8661_2461" x="103.357" y="170.389" width="74.5679" height="31.1824" filterUnits="userSpaceOnUse" color-interpolation-filters="sRGB">
<feFlood flood-opacity="0" result="BackgroundImageFix"/>
<feColorMatrix in="SourceAlpha" type="matrix" values="0 0 0 0 0 0 0 0 0 0 0 0 0 0 0 0 0 0 127 0" result="hardAlpha"/>
<feOffset dy="2.03364"/>
<feGaussianBlur stdDeviation="1.6947"/>
<feColorMatrix type="matrix" values="0 0 0 0 0 0 0 0 0 0 0 0 0 0 0 0 0 0 0.2 0"/>
<feBlend mode="normal" in2="BackgroundImageFix" result="effect1_dropShadow_8661_2461"/>
<feBlend mode="normal" in="SourceGraphic" in2="effect1_dropShadow_8661_2461" result="shape"/>
</filter>
<filter id="filter7_d_8661_2461" x="93" y="213.435" width="125.226" height="399.798" filterUnits="userSpaceOnUse" color-interpolation-filters="sRGB">
<feFlood flood-opacity="0" result="BackgroundImageFix"/>
<feColorMatrix in="SourceAlpha" type="matrix" values="0 0 0 0 0 0 0 0 0 0 0 0 0 0 0 0 0 0 127 0" result="hardAlpha"/>
<feOffset dx="4.86737"/>
<feGaussianBlur stdDeviation="1.52105"/>
<feColorMatrix type="matrix" values="0 0 0 0 0 0 0 0 0 0 0 0 0 0 0 0 0 0 0.078 0"/>
<feBlend mode="normal" in2="BackgroundImageFix" result="effect1_dropShadow_8661_2461"/>
<feBlend mode="normal" in="SourceGraphic" in2="effect1_dropShadow_8661_2461" result="shape"/>
</filter>
<linearGradient id="paint0_linear_8661_2461" x1="210.5" y1="0" x2="210.5" y2="420" gradientUnits="userSpaceOnUse">
<stop stop-color="#A29CE7"/>
<stop offset="1" stop-color="#A29CE7"/>
</linearGradient>
<clipPath id="clip0_8661_2461">
<rect width="421" height="420" rx="20" fill="white"/>
</clipPath>
<clipPath id="clip1_8661_2461">
<rect width="195" height="338" fill="white" transform="translate(114 220)"/>
</clipPath>
<clipPath id="clip2_8661_2461">
<rect width="235" height="145" fill="white" transform="translate(93 217)"/>
</clipPath>
</defs>
</svg>
