<svg width="80" height="80" viewBox="0 0 80 80" fill="none" xmlns="http://www.w3.org/2000/svg">
<path d="M18.8912 53.6464C14.4835 52.5402 9.6688 54.4813 7.45868 58.6015C5.20055 62.8155 3.5873 67.2801 2.0304 71.7738C1.33543 73.7796 0.534027 75.8209 0.191759 77.9165C0.141672 78.2254 0.0894966 78.4737 0.0602787 78.7576C0.0164518 79.173 -0.000244141 79.5821 -0.000244141 79.9995C0.417155 79.9995 0.882555 79.9536 1.29787 79.916C1.64013 79.8868 1.8864 79.8513 2.19527 79.7949C2.4165 79.7553 2.65024 79.7365 2.84016 79.6739C5.57621 78.7618 8.22669 77.9686 10.946 77.0127C14.5774 75.7374 18.1691 74.3599 21.5271 72.4501C24.9894 70.4797 26.6486 67.4074 26.6486 63.5022C26.6486 58.806 23.4158 54.784 18.8912 53.6464Z" fill="#979AA1"/>
<path d="M42.3516 61.6263C41.8152 62.1001 41.3352 62.5342 40.8448 62.9558C39.8868 63.7824 39.0729 63.7678 38.1692 62.8723C36.4475 61.1692 34.7424 59.4493 33.029 57.7378C27.7989 52.5094 22.5689 47.2788 17.341 42.0504C16.1619 40.8711 16.1431 40.1573 17.2534 38.9217C17.6165 38.5188 17.9734 38.1097 18.4367 37.5879C17.1949 37.4001 16.0826 37.2206 14.9702 37.062C11.9315 36.6278 8.89495 36.1979 5.85419 35.7762C5.12792 35.6761 4.54774 35.3692 4.29521 34.6596C4.03433 33.9249 4.26182 33.2987 4.82113 32.7519C10.8004 26.9014 17.8774 23.086 26.073 21.4309C28.3583 20.9696 30.7145 20.8736 33.0331 20.5689C33.4046 20.5208 33.8366 20.333 34.0871 20.0658C42.961 10.592 53.7361 4.38257 66.3395 1.33942C70.1462 0.421054 74.0196 -0.0297828 77.9432 0.00152525C79.3686 0.0140485 79.9884 0.621426 79.9989 2.04281C80.0594 10.4229 77.987 18.3168 74.4767 25.862C70.9225 33.5012 66.0932 40.2241 59.899 45.9597C59.5943 46.2415 59.4461 46.8113 59.4211 47.258C58.8597 57.9319 54.909 67.1407 47.5357 74.8821C47.0494 75.3914 46.5193 75.7942 45.7784 75.74C44.9207 75.6753 44.353 75.0408 44.2153 74.0681C43.6372 69.9981 43.0528 65.9301 42.4705 61.8621C42.4643 61.8162 42.4267 61.7745 42.3474 61.6242L42.3516 61.6263ZM57.1379 14.5514C52.5549 14.5327 48.7795 18.2938 48.7733 22.8794C48.7691 27.4337 52.4777 31.1781 57.044 31.2261C61.6187 31.2741 65.415 27.5297 65.4483 22.9357C65.4817 18.3585 61.7272 14.5702 57.1379 14.5514Z" fill="#E3E3E3"/>
</svg>
