<svg width="534" height="500" viewBox="0 0 534 500" fill="none" xmlns="http://www.w3.org/2000/svg">
<g clip-path="url(#clip0_4748_15723)">
<g clip-path="url(#clip1_4748_15723)">
<mask id="path-4-outside-1_4748_15723" maskUnits="userSpaceOnUse" x="360" y="57" width="281" height="33" fill="black">
<rect fill="white" x="360" y="57" width="281" height="33"/>
<path d="M360 58H640V90H360V58Z"/>
</mask>
<path d="M360 58H640V90H360V58Z" fill="#EEF6FF"/>
<path d="M640 58H641V57H640V58ZM360 59H640V57H360V59ZM639 58V90H641V58H639Z" fill="#DDDDDD" mask="url(#path-4-outside-1_4748_15723)"/>
<path d="M499.328 68.4492V79.043H498.016V68.4492H499.328ZM496.164 69.5742C496.164 72.7266 494.945 75.4102 491.23 77.168L490.551 76.125C493.322 74.8066 494.611 73.0137 494.84 70.6055H491.09V69.5742H496.164ZM509.641 68.9297V69.9727H506.57C506.688 70.9687 507.982 71.918 510.027 72.1641L509.535 73.1953C507.637 72.9668 506.236 72.1289 505.668 70.9805C505.1 72.123 503.711 72.9668 501.813 73.1953L501.332 72.1641C503.377 71.918 504.654 70.9687 504.777 69.9727H501.73V68.9297H509.641ZM510.52 73.7812V74.8359H506.43V76.7695H505.141V74.8359H500.84V73.7812H510.52ZM509.453 77.7773V78.832H502.012V75.7969H503.313V77.7773H509.453Z" fill="black"/>
<mask id="path-7-outside-2_4748_15723" maskUnits="userSpaceOnUse" x="-1" y="57" width="362" height="33" fill="black">
<rect fill="white" x="-1" y="57" width="362" height="33"/>
<path d="M0 58H360V90H0V58Z"/>
</mask>
<path d="M0 58H360V90H0V58Z" fill="#EEF6FF"/>
<path d="M0 58V57H-1V58H0ZM360 58H361V57H360V58ZM0 59H360V57H0V59ZM359 58V90H361V58H359ZM1 90V58H-1V90H1Z" fill="#DDDDDD" mask="url(#path-7-outside-2_4748_15723)"/>
<path d="M178.953 69.0937V70.043C178.953 71.0332 178.953 72.1172 178.672 73.6172H180.137V74.6719H175.93V79.0547H174.617V74.6719H170.48V73.6172H177.348C177.641 72.1758 177.652 71.0977 177.652 70.1484H171.617V69.0937H178.953ZM190.52 73.9336V74.9766H186.43V76.8047H185.141V74.9766H180.84V73.9336H190.52ZM189.453 77.7773V78.832H182.012V75.9141H183.301V77.7773H189.453ZM183.395 68.7891V69.9844H187.965V68.7891H189.254V73.1016H182.105V68.7891H183.395ZM183.395 72.0703H187.965V70.957H183.395V72.0703Z" fill="black"/>
<mask id="path-10-outside-3_4748_15723" maskUnits="userSpaceOnUse" x="360" y="89" width="281" height="194" fill="black">
<rect fill="white" x="360" y="89" width="281" height="194"/>
<path d="M360 90H640V282H360V90Z"/>
</mask>
<path d="M360 90H640V282H360V90Z" fill="white"/>
<path d="M640 90H641V89H640V90ZM640 282V283H641V282H640ZM360 91H640V89H360V91ZM639 90V282H641V90H639ZM640 281H360V283H640V281Z" fill="#DDDDDD" mask="url(#path-10-outside-3_4748_15723)"/>
<path d="M477.734 170.43V171.238C477.734 172.029 477.734 172.937 477.512 174.121H478.918V175.176H474.711V176.828H477.758V180.543H476.457V177.871H470.223V176.828H473.41V175.176H469.238V174.121H476.199C476.41 173.037 476.434 172.211 476.434 171.473H470.434V170.43H477.734ZM485.258 170.828V175.867H480.148V170.828H485.258ZM481.437 171.871V174.824H483.969V171.871H481.437ZM488.434 169.961V177.52H487.121V169.961H488.434ZM488.727 179.207V180.262H481.426V176.805H482.738V179.207H488.727ZM498.852 169.961V177.73H497.551V174.168H495.512V173.09H497.551V169.961H498.852ZM495.582 170.758C495.582 173.547 493.73 175.645 490.672 176.617L490.121 175.574C492.406 174.848 493.912 173.5 494.164 171.824H490.672V170.758H495.582ZM499.121 179.277V180.332H491.949V176.945H493.273V179.277H499.121ZM508.707 169.949V172.527H510.184V173.594H508.707V176.16H507.406V169.949H508.707ZM505.777 170.676C505.777 173.465 503.961 175.434 500.832 176.324L500.316 175.27C502.719 174.613 504.143 173.318 504.371 171.73H500.797V170.676H505.777ZM505.285 176.289C507.43 176.289 508.824 177.109 508.824 178.41C508.824 179.734 507.43 180.531 505.285 180.531C503.152 180.531 501.734 179.734 501.746 178.41C501.734 177.109 503.152 176.289 505.285 176.289ZM505.285 177.309C503.891 177.309 503.023 177.707 503.035 178.41C503.023 179.102 503.891 179.512 505.285 179.512C506.68 179.512 507.547 179.102 507.547 178.41C507.547 177.707 506.68 177.309 505.285 177.309ZM520.402 178.199V179.266H510.723V178.199H514.895V176.137H511.789V170.652H513.09V172.387H518V170.652H519.301V176.137H516.184V178.199H520.402ZM513.09 175.082H518V173.43H513.09V175.082ZM529.965 169.949V176.359H528.664V174.168H527.152V173.09H528.664V169.949H529.965ZM529.965 176.84V180.414H522.922V176.84H529.965ZM524.223 177.871V179.359H528.688V177.871H524.223ZM527.328 170.934V171.988H521.117V170.934H523.578V169.867H524.867V170.934H527.328ZM524.223 172.398C525.699 172.398 526.73 173.184 526.742 174.297C526.73 175.445 525.699 176.195 524.223 176.195C522.758 176.195 521.715 175.445 521.715 174.297C521.715 173.184 522.758 172.398 524.223 172.398ZM524.223 173.383C523.461 173.383 522.957 173.734 522.957 174.297C522.957 174.883 523.461 175.223 524.223 175.223C524.984 175.223 525.488 174.883 525.488 174.297C525.488 173.734 524.984 173.383 524.223 173.383ZM468.547 199.187V200.254H458.867V199.187H461.105V196.504C460.262 196.023 459.752 195.268 459.758 194.324C459.746 192.637 461.41 191.523 463.684 191.523C465.969 191.523 467.633 192.637 467.633 194.324C467.633 195.25 467.141 195.994 466.32 196.48V199.187H468.547ZM463.684 192.555C462.102 192.555 461.023 193.223 461.035 194.324C461.023 195.414 462.102 196.094 463.684 196.094C465.266 196.094 466.355 195.414 466.355 194.324C466.355 193.223 465.266 192.555 463.684 192.555ZM462.395 199.187H464.996V196.973C464.592 197.066 464.152 197.113 463.684 197.113C463.227 197.113 462.793 197.066 462.395 196.984V199.187ZM479.035 192.367V193.434H477.594V194.641H479.035V195.719H477.594V197.172H476.293V190.949H477.594V192.367H479.035ZM472.215 191.559C473.844 191.547 475.062 192.59 475.074 194.09C475.062 195.578 473.844 196.621 472.215 196.633C470.574 196.621 469.344 195.578 469.355 194.09C469.344 192.59 470.574 191.547 472.215 191.559ZM472.215 192.648C471.301 192.648 470.621 193.223 470.633 194.09C470.621 194.969 471.301 195.52 472.215 195.531C473.117 195.52 473.797 194.969 473.797 194.09C473.797 193.223 473.117 192.648 472.215 192.648ZM474.148 197.418C476.316 197.418 477.687 198.191 477.699 199.48C477.687 200.77 476.316 201.531 474.148 201.531C471.957 201.531 470.562 200.77 470.562 199.48C470.562 198.191 471.957 197.418 474.148 197.418ZM474.148 198.461C472.695 198.461 471.863 198.812 471.863 199.48C471.863 200.148 472.695 200.488 474.148 200.488C475.602 200.488 476.41 200.148 476.41 199.48C476.41 198.812 475.602 198.461 474.148 198.461ZM488.457 190.949V201.543H487.145V190.949H488.457ZM485.293 192.074C485.293 195.227 484.074 197.91 480.359 199.668L479.68 198.625C482.451 197.307 483.74 195.514 483.969 193.105H480.219V192.074H485.293ZM495.898 191.734V192.367C495.887 193.094 495.887 194.137 495.641 195.484L494.352 195.367C494.557 194.271 494.598 193.463 494.621 192.812H490.496V191.734H495.898ZM493.227 194.148V196.258C494.322 196.217 495.447 196.135 496.473 195.988L496.543 196.926C494.34 197.324 491.844 197.359 489.98 197.371L489.863 196.328C490.49 196.322 491.193 196.316 491.937 196.305V194.148H493.227ZM498.43 190.949V194.254H499.801V195.344H498.43V198.883H497.094V190.949H498.43ZM498.77 200.277V201.332H491.445V198.18H492.758V200.277H498.77ZM509.223 190.949V197.242H507.922V194.652H506.117V193.586H507.922V190.949H509.223ZM505.637 197.512C507.887 197.512 509.258 198.25 509.258 199.527C509.258 200.805 507.887 201.543 505.637 201.543C503.398 201.543 502.027 200.805 502.039 199.527C502.027 198.25 503.398 197.512 505.637 197.512ZM505.637 198.508C504.16 198.508 503.328 198.859 503.328 199.527C503.328 200.184 504.16 200.535 505.637 200.535C507.113 200.535 507.957 200.184 507.957 199.527C507.957 198.859 507.113 198.508 505.637 198.508ZM504.242 192.766C504.242 194.055 505.098 195.355 506.738 195.906L506.082 196.937C504.904 196.539 504.066 195.73 503.609 194.734C503.141 195.865 502.256 196.768 500.996 197.219L500.316 196.187C502.016 195.602 502.918 194.172 502.918 192.777V192.695H500.715V191.641H506.434V192.695H504.242V192.766ZM520.402 199.199V200.266H510.723V199.199H514.895V197.137H511.789V191.652H513.09V193.387H518V191.652H519.301V197.137H516.184V199.199H520.402ZM513.09 196.082H518V194.43H513.09V196.082ZM526.484 191.98V198.918H521.469V191.98H526.484ZM522.746 193V197.875H525.184V193H522.746ZM529.391 190.949V195.016H531.02V196.117H529.391V201.543H528.09V190.949H529.391ZM539.832 190.949V193.551H541.297V194.617H539.832V197.137H538.52V190.949H539.832ZM536.375 197.336C538.543 197.336 539.914 198.109 539.926 199.422C539.914 200.758 538.543 201.531 536.375 201.531C534.184 201.531 532.789 200.758 532.789 199.422C532.789 198.109 534.184 197.336 536.375 197.336ZM536.375 198.379C534.922 198.379 534.066 198.742 534.078 199.422C534.066 200.113 534.922 200.488 536.375 200.488C537.805 200.488 538.66 200.113 538.66 199.422C538.66 198.742 537.805 198.379 536.375 198.379ZM536.621 191.699V192.754H533.164V195.414C535.191 195.408 536.322 195.35 537.57 195.086L537.699 196.129C536.328 196.422 535.074 196.469 532.73 196.469H531.875V191.699H536.621Z" fill="black"/>
<mask id="path-13-outside-4_4748_15723" maskUnits="userSpaceOnUse" x="140" y="89" width="221" height="33" fill="black">
<rect fill="white" x="140" y="89" width="221" height="33"/>
<path d="M140 90H360V122H140V90Z"/>
</mask>
<path d="M140 90H360V122H140V90Z" fill="#EEF6FF"/>
<path d="M360 90H361V89H360V90ZM140 91H360V89H140V91ZM359 90V122H361V90H359Z" fill="#DDDDDD" mask="url(#path-13-outside-4_4748_15723)"/>
<path d="M232.152 100.848V101.996H236.723V100.848H238.012V105.148H235.082V106.121H239.266V107.176H229.609V106.121H233.77V105.148H230.863V100.848H232.152ZM232.152 104.105H236.723V103.004H232.152V104.105ZM238.176 109.777V110.832H230.805V107.855H232.105V109.777H238.176ZM248.805 100.461V108.113H247.492V100.461H248.805ZM249.098 109.777V110.832H241.797V107.34H243.109V109.777H249.098ZM243.027 101.152C244.633 101.152 245.875 102.266 245.875 103.801C245.875 105.371 244.633 106.461 243.027 106.461C241.41 106.461 240.168 105.371 240.168 103.801C240.168 102.266 241.41 101.152 243.027 101.152ZM243.027 102.289C242.125 102.289 241.434 102.887 241.445 103.801C241.434 104.738 242.125 105.324 243.027 105.324C243.906 105.324 244.598 104.738 244.598 103.801C244.598 102.887 243.906 102.289 243.027 102.289ZM260.02 106.613V107.645H255.801V111.043H254.512V107.645H250.34V106.613H260.02ZM252.801 100.871V102.172H257.535V100.871H258.848V105.512H251.512V100.871H252.801ZM252.801 104.457H257.535V103.203H252.801V104.457ZM269.078 100.449V102.91H270.555V103.988H269.078V106.414H267.777V100.449H269.078ZM265.879 101.129V102.184H262.457V104.891C264.449 104.891 265.557 104.814 266.816 104.562L266.957 105.594C265.574 105.898 264.332 105.945 262.023 105.945H261.168V101.129H265.879ZM269.078 106.895V110.902H262.234V106.895H269.078ZM263.523 107.937V109.871H267.789V107.937H263.523Z" fill="black"/>
<mask id="path-16-outside-5_4748_15723" maskUnits="userSpaceOnUse" x="140" y="121" width="221" height="33" fill="black">
<rect fill="white" x="140" y="121" width="221" height="33"/>
<path d="M140 122H360V154H140V122Z"/>
</mask>
<path d="M140 122H360V154H140V122Z" fill="#EEF6FF"/>
<path d="M360 122H361V121H360V122ZM140 123H360V121H140V123ZM359 122V154H361V122H359Z" fill="#DDDDDD" mask="url(#path-16-outside-5_4748_15723)"/>
<path d="M234.379 139.07C236.676 139.082 238.129 139.809 238.141 141.062C238.129 142.293 236.676 143.031 234.379 143.031C232.094 143.031 230.629 142.293 230.629 141.062C230.629 139.809 232.094 139.082 234.379 139.07ZM234.379 140.055C232.855 140.055 231.93 140.418 231.941 141.062C231.93 141.684 232.855 142.023 234.379 142.023C235.914 142.023 236.84 141.684 236.852 141.062C236.84 140.418 235.914 140.055 234.379 140.055ZM238.07 132.953V133.832C238.07 134.664 238.07 135.555 237.777 136.645L236.488 136.527C236.752 135.496 236.77 134.752 236.77 133.984H230.734V132.953H238.07ZM239.242 137.254V138.309H229.633V137.254H233.359V135.332H234.648V137.254H239.242ZM248.336 132.449V135.426H249.824V136.504H248.336V140.113H247.035V132.449H248.336ZM245.172 133.328V134.371H241.715V137.254C243.707 137.26 244.814 137.189 246.074 136.926L246.215 137.98C244.832 138.25 243.59 138.32 241.281 138.32H240.426V133.328H245.172ZM248.758 141.777V142.832H241.551V139.305H242.852V141.777H248.758ZM260.02 138.613V139.645H255.801V143.043H254.512V139.645H250.34V138.613H260.02ZM252.801 132.871V134.172H257.535V132.871H258.848V137.512H251.512V132.871H252.801ZM252.801 136.457H257.535V135.203H252.801V136.457ZM269.078 132.449V134.91H270.555V135.988H269.078V138.414H267.777V132.449H269.078ZM265.879 133.129V134.184H262.457V136.891C264.449 136.891 265.557 136.814 266.816 136.562L266.957 137.594C265.574 137.898 264.332 137.945 262.023 137.945H261.168V133.129H265.879ZM269.078 138.895V142.902H262.234V138.895H269.078ZM263.523 139.937V141.871H267.789V139.937H263.523Z" fill="black"/>
<mask id="path-19-outside-6_4748_15723" maskUnits="userSpaceOnUse" x="140" y="153" width="221" height="33" fill="black">
<rect fill="white" x="140" y="153" width="221" height="33"/>
<path d="M140 154H360V186H140V154Z"/>
</mask>
<path d="M140 154H360V186H140V154Z" fill="#EEF6FF"/>
<path d="M360 154H361V153H360V154ZM140 155H360V153H140V155ZM359 154V186H361V154H359Z" fill="#DDDDDD" mask="url(#path-19-outside-6_4748_15723)"/>
<path d="M238.342 169.816V170.871H228.686V169.816H232.857V168.691H234.146V169.816H238.342ZM234.146 164.473V165.434H237.393V166.465H234.252C234.41 167.332 235.658 168.059 237.861 168.211L237.463 169.207C235.564 169.061 234.164 168.469 233.502 167.555C232.84 168.469 231.428 169.061 229.541 169.207L229.143 168.211C231.334 168.059 232.582 167.332 232.752 166.465H229.635V165.434H232.857V164.473H234.146ZM233.502 171.457C235.811 171.457 237.158 172.09 237.17 173.25C237.158 174.398 235.811 175.031 233.502 175.031C231.182 175.031 229.811 174.398 229.811 173.25C229.811 172.09 231.182 171.457 233.502 171.457ZM233.502 172.43C231.943 172.43 231.123 172.699 231.135 173.25C231.123 173.789 231.943 174.059 233.502 174.059C235.025 174.059 235.857 173.789 235.869 173.25C235.857 172.699 235.025 172.43 233.502 172.43ZM245.924 166.605C245.924 167.918 246.826 169.207 248.514 169.734L247.846 170.754C246.645 170.361 245.771 169.57 245.291 168.562C244.811 169.658 243.914 170.531 242.654 170.965L241.986 169.934C243.686 169.371 244.6 168 244.611 166.605V166.301H242.326V165.258H248.15V166.301H245.924V166.605ZM250.729 164.461V172.148H249.416V164.461H250.729ZM251.021 173.777V174.832H243.721V171.445H245.033V173.777H251.021ZM261.955 172.734V173.812H252.275V172.734H254.842V170.988H253.424V167.531H259.518V166.23H253.4V165.176H260.807V168.574H254.725V169.934H261.053V170.988H259.506V172.734H261.955ZM256.107 172.734H258.229V170.988H256.107V172.734ZM271.459 164.449V175.055H270.146V164.449H271.459ZM264.51 165.316V167.965H267.076V165.316H268.365V172.559H263.209V165.316H264.51ZM264.51 171.492H267.076V168.984H264.51V171.492Z" fill="black"/>
<mask id="path-22-outside-7_4748_15723" maskUnits="userSpaceOnUse" x="140" y="185" width="221" height="33" fill="black">
<rect fill="white" x="140" y="185" width="221" height="33"/>
<path d="M140 186H360V218H140V186Z"/>
</mask>
<path d="M140 186H360V218H140V186Z" fill="#EEF6FF"/>
<path d="M360 186H361V185H360V186ZM140 187H360V185H140V187ZM359 186V218H361V186H359Z" fill="#DDDDDD" mask="url(#path-22-outside-7_4748_15723)"/>
<path d="M232.152 196.848V197.996H236.723V196.848H238.012V201.148H235.082V202.121H239.266V203.176H229.609V202.121H233.77V201.148H230.863V196.848H232.152ZM232.152 200.105H236.723V199.004H232.152V200.105ZM238.176 205.777V206.832H230.805V203.855H232.105V205.777H238.176ZM248.805 196.461V204.113H247.492V196.461H248.805ZM249.098 205.777V206.832H241.797V203.34H243.109V205.777H249.098ZM243.027 197.152C244.633 197.152 245.875 198.266 245.875 199.801C245.875 201.371 244.633 202.461 243.027 202.461C241.41 202.461 240.168 201.371 240.168 199.801C240.168 198.266 241.41 197.152 243.027 197.152ZM243.027 198.289C242.125 198.289 241.434 198.887 241.445 199.801C241.434 200.738 242.125 201.324 243.027 201.324C243.906 201.324 244.598 200.738 244.598 199.801C244.598 198.887 243.906 198.289 243.027 198.289ZM260.02 202.613V203.645H255.801V207.043H254.512V203.645H250.34V202.613H260.02ZM252.801 196.871V198.172H257.535V196.871H258.848V201.512H251.512V196.871H252.801ZM252.801 200.457H257.535V199.203H252.801V200.457ZM269.078 196.449V198.91H270.555V199.988H269.078V202.414H267.777V196.449H269.078ZM265.879 197.129V198.184H262.457V200.891C264.449 200.891 265.557 200.814 266.816 200.562L266.957 201.594C265.574 201.898 264.332 201.945 262.023 201.945H261.168V197.129H265.879ZM269.078 202.895V206.902H262.234V202.895H269.078ZM263.523 203.937V205.871H267.789V203.937H263.523Z" fill="black"/>
<mask id="path-25-outside-8_4748_15723" maskUnits="userSpaceOnUse" x="140" y="217" width="221" height="33" fill="black">
<rect fill="white" x="140" y="217" width="221" height="33"/>
<path d="M140 218H360V250H140V218Z"/>
</mask>
<path d="M140 218H360V250H140V218Z" fill="#EEF6FF"/>
<path d="M360 218H361V217H360V218ZM140 219H360V217H140V219ZM359 218V250H361V218H359Z" fill="#DDDDDD" mask="url(#path-25-outside-8_4748_15723)"/>
<path d="M234.379 235.07C236.676 235.082 238.129 235.809 238.141 237.062C238.129 238.293 236.676 239.031 234.379 239.031C232.094 239.031 230.629 238.293 230.629 237.062C230.629 235.809 232.094 235.082 234.379 235.07ZM234.379 236.055C232.855 236.055 231.93 236.418 231.941 237.062C231.93 237.684 232.855 238.023 234.379 238.023C235.914 238.023 236.84 237.684 236.852 237.062C236.84 236.418 235.914 236.055 234.379 236.055ZM238.07 228.953V229.832C238.07 230.664 238.07 231.555 237.777 232.645L236.488 232.527C236.752 231.496 236.77 230.752 236.77 229.984H230.734V228.953H238.07ZM239.242 233.254V234.309H229.633V233.254H233.359V231.332H234.648V233.254H239.242ZM248.336 228.449V231.426H249.824V232.504H248.336V236.113H247.035V228.449H248.336ZM245.172 229.328V230.371H241.715V233.254C243.707 233.26 244.814 233.189 246.074 232.926L246.215 233.98C244.832 234.25 243.59 234.32 241.281 234.32H240.426V229.328H245.172ZM248.758 237.777V238.832H241.551V235.305H242.852V237.777H248.758ZM260.02 234.613V235.645H255.801V239.043H254.512V235.645H250.34V234.613H260.02ZM252.801 228.871V230.172H257.535V228.871H258.848V233.512H251.512V228.871H252.801ZM252.801 232.457H257.535V231.203H252.801V232.457ZM269.078 228.449V230.91H270.555V231.988H269.078V234.414H267.777V228.449H269.078ZM265.879 229.129V230.184H262.457V232.891C264.449 232.891 265.557 232.814 266.816 232.562L266.957 233.594C265.574 233.898 264.332 233.945 262.023 233.945H261.168V229.129H265.879ZM269.078 234.895V238.902H262.234V234.895H269.078ZM263.523 235.937V237.871H267.789V235.937H263.523Z" fill="black"/>
<mask id="path-28-outside-9_4748_15723" maskUnits="userSpaceOnUse" x="140" y="249" width="221" height="33" fill="black">
<rect fill="white" x="140" y="249" width="221" height="33"/>
<path d="M140 250H360V282H140V250Z"/>
</mask>
<path d="M140 250H360V282H140V250Z" fill="#EEF6FF"/>
<path d="M360 250H361V249H360V250ZM140 251H360V249H140V251ZM359 250V282H361V250H359Z" fill="#DDDDDD" mask="url(#path-28-outside-9_4748_15723)"/>
<path d="M238.342 265.816V266.871H228.686V265.816H232.857V264.691H234.146V265.816H238.342ZM234.146 260.473V261.434H237.393V262.465H234.252C234.41 263.332 235.658 264.059 237.861 264.211L237.463 265.207C235.564 265.061 234.164 264.469 233.502 263.555C232.84 264.469 231.428 265.061 229.541 265.207L229.143 264.211C231.334 264.059 232.582 263.332 232.752 262.465H229.635V261.434H232.857V260.473H234.146ZM233.502 267.457C235.811 267.457 237.158 268.09 237.17 269.25C237.158 270.398 235.811 271.031 233.502 271.031C231.182 271.031 229.811 270.398 229.811 269.25C229.811 268.09 231.182 267.457 233.502 267.457ZM233.502 268.43C231.943 268.43 231.123 268.699 231.135 269.25C231.123 269.789 231.943 270.059 233.502 270.059C235.025 270.059 235.857 269.789 235.869 269.25C235.857 268.699 235.025 268.43 233.502 268.43ZM245.924 262.605C245.924 263.918 246.826 265.207 248.514 265.734L247.846 266.754C246.645 266.361 245.771 265.57 245.291 264.562C244.811 265.658 243.914 266.531 242.654 266.965L241.986 265.934C243.686 265.371 244.6 264 244.611 262.605V262.301H242.326V261.258H248.15V262.301H245.924V262.605ZM250.729 260.461V268.148H249.416V260.461H250.729ZM251.021 269.777V270.832H243.721V267.445H245.033V269.777H251.021ZM261.955 268.734V269.812H252.275V268.734H254.842V266.988H253.424V263.531H259.518V262.23H253.4V261.176H260.807V264.574H254.725V265.934H261.053V266.988H259.506V268.734H261.955ZM256.107 268.734H258.229V266.988H256.107V268.734ZM271.459 260.449V271.055H270.146V260.449H271.459ZM264.51 261.316V263.965H267.076V261.316H268.365V268.559H263.209V261.316H264.51ZM264.51 267.492H267.076V264.984H264.51V267.492Z" fill="black"/>
<mask id="path-31-outside-10_4748_15723" maskUnits="userSpaceOnUse" x="-1" y="89" width="142" height="97" fill="black">
<rect fill="white" x="-1" y="89" width="142" height="97"/>
<path d="M0 90H140V186H0V90Z"/>
</mask>
<path d="M0 90H140V186H0V90Z" fill="#EEF6FF"/>
<path d="M0 90V89H-1V90H0ZM140 90H141V89H140V90ZM0 91H140V89H0V91ZM139 90V186H141V90H139ZM1 186V90H-1V186H1Z" fill="#DDDDDD" mask="url(#path-31-outside-10_4748_15723)"/>
<path d="M59.2891 140.687V141.754H49.6094V140.687H51.8476V138.004C51.0039 137.523 50.4941 136.768 50.5 135.824C50.4883 134.137 52.1523 133.023 54.4258 133.023C56.7109 133.023 58.375 134.137 58.375 135.824C58.375 136.75 57.8828 137.494 57.0625 137.98V140.687H59.2891ZM54.4258 134.055C52.8437 134.055 51.7656 134.723 51.7773 135.824C51.7656 136.914 52.8437 137.594 54.4258 137.594C56.0078 137.594 57.0976 136.914 57.0976 135.824C57.0976 134.723 56.0078 134.055 54.4258 134.055ZM53.1367 140.687H55.7383V138.473C55.334 138.566 54.8945 138.613 54.4258 138.613C53.9687 138.613 53.5351 138.566 53.1367 138.484V140.687ZM69.7773 133.867V134.934H68.3359V136.141H69.7773V137.219H68.3359V138.672H67.0352V132.449H68.3359V133.867H69.7773ZM62.957 133.059C64.5859 133.047 65.8047 134.09 65.8164 135.59C65.8047 137.078 64.5859 138.121 62.957 138.133C61.3164 138.121 60.0859 137.078 60.0976 135.59C60.0859 134.09 61.3164 133.047 62.957 133.059ZM62.957 134.148C62.043 134.148 61.3633 134.723 61.375 135.59C61.3633 136.469 62.043 137.02 62.957 137.031C63.8594 137.02 64.5391 136.469 64.5391 135.59C64.5391 134.723 63.8594 134.148 62.957 134.148ZM64.8906 138.918C67.0586 138.918 68.4297 139.691 68.4414 140.98C68.4297 142.27 67.0586 143.031 64.8906 143.031C62.6992 143.031 61.3047 142.27 61.3047 140.98C61.3047 139.691 62.6992 138.918 64.8906 138.918ZM64.8906 139.961C63.4375 139.961 62.6055 140.312 62.6055 140.98C62.6055 141.648 63.4375 141.988 64.8906 141.988C66.3437 141.988 67.1523 141.648 67.1523 140.98C67.1523 140.312 66.3437 139.961 64.8906 139.961ZM72.8242 138.484V139.703H77.5234V138.484H78.8125V142.914H71.5469V138.484H72.8242ZM72.8242 141.859H77.5234V140.711H72.8242V141.859ZM78.8477 132.906V133.727C78.8477 134.529 78.8477 135.414 78.5898 136.656H80.0313V137.699H70.3516V136.656H77.3008C77.5234 135.537 77.5469 134.693 77.5469 133.949H71.5469V132.906H78.8477ZM83.6172 133.223C84.5781 133.223 85.3692 133.756 85.8438 134.687H88.3164V132.449H89.6055V143.055H88.3164V139.047H85.9375C85.4805 140.102 84.6426 140.711 83.6172 140.711C82.0234 140.711 80.8984 139.27 80.8984 136.961C80.8984 134.676 82.0234 133.223 83.6172 133.223ZM83.6172 134.395C82.7383 134.395 82.1406 135.344 82.1524 136.961C82.1406 138.59 82.7383 139.539 83.6172 139.539C84.4961 139.539 85.082 138.59 85.0938 136.961C85.082 135.344 84.4961 134.395 83.6172 134.395ZM86.207 135.754C86.2832 136.123 86.3242 136.527 86.3242 136.961C86.3242 137.33 86.2949 137.67 86.2422 137.992H88.3164V135.754H86.207Z" fill="black"/>
<mask id="path-34-outside-11_4748_15723" maskUnits="userSpaceOnUse" x="-1" y="185" width="142" height="97" fill="black">
<rect fill="white" x="-1" y="185" width="142" height="97"/>
<path d="M0 186H140V282H0V186Z"/>
</mask>
<path d="M0 186H140V282H0V186Z" fill="#EEF6FF"/>
<path d="M0 186V185H-1V186H0ZM140 186H141V185H140V186ZM0 187H140V185H0V187ZM139 186V282H141V186H139ZM1 282V186H-1V282H1Z" fill="#DDDDDD" mask="url(#path-34-outside-11_4748_15723)"/>
<path d="M53.043 229.187C54.7187 229.176 55.9492 230.242 55.9609 231.742C55.9492 233.254 54.7187 234.309 53.043 234.309C51.3789 234.309 50.1367 233.254 50.1367 231.742C50.1367 230.242 51.3789 229.176 53.043 229.187ZM53.043 230.312C52.1172 230.312 51.4258 230.863 51.4258 231.742C51.4258 232.633 52.1172 233.172 53.043 233.172C53.9805 233.172 54.6836 232.633 54.6836 231.742C54.6836 230.863 53.9805 230.312 53.043 230.312ZM58.4336 228.449V239.055H57.1328V228.449H58.4336ZM49.6562 235.773C51.5664 235.773 54.2148 235.75 56.5 235.422L56.6055 236.371C54.2266 236.828 51.6836 236.84 49.8203 236.84L49.6562 235.773ZM69.6602 236.734V237.812H59.9805V236.734H62.5469V234.988H61.1289V231.531H67.2227V230.23H61.1055V229.176H68.5117V232.574H62.4297V233.934H68.7578V234.988H67.2109V236.734H69.6602ZM63.8125 236.734H65.9336V234.988H63.8125V236.734ZM72.8242 234.484V235.703H77.5234V234.484H78.8125V238.914H71.5469V234.484H72.8242ZM72.8242 237.859H77.5234V236.711H72.8242V237.859ZM78.8477 228.906V229.727C78.8477 230.529 78.8477 231.414 78.5898 232.656H80.0313V233.699H70.3516V232.656H77.3008C77.5234 231.537 77.5469 230.693 77.5469 229.949H71.5469V228.906H78.8477ZM83.6172 229.223C84.5781 229.223 85.3692 229.756 85.8438 230.687H88.3164V228.449H89.6055V239.055H88.3164V235.047H85.9375C85.4805 236.102 84.6426 236.711 83.6172 236.711C82.0234 236.711 80.8984 235.27 80.8984 232.961C80.8984 230.676 82.0234 229.223 83.6172 229.223ZM83.6172 230.395C82.7383 230.395 82.1406 231.344 82.1524 232.961C82.1406 234.59 82.7383 235.539 83.6172 235.539C84.4961 235.539 85.082 234.59 85.0938 232.961C85.082 231.344 84.4961 230.395 83.6172 230.395ZM86.207 231.754C86.2832 232.123 86.3242 232.527 86.3242 232.961C86.3242 233.33 86.2949 233.67 86.2422 233.992H88.3164V231.754H86.207Z" fill="black"/>
<mask id="path-37-outside-12_4748_15723" maskUnits="userSpaceOnUse" x="360" y="281" width="281" height="66" fill="black">
<rect fill="white" x="360" y="281" width="281" height="66"/>
<path d="M360 282H640V346H360V282Z"/>
</mask>
<path d="M360 282H640V346H360V282Z" fill="white"/>
<path d="M640 282H641V281H640V282ZM640 346V347H641V346H640ZM360 283H640V281H360V283ZM639 282V346H641V282H639ZM640 345H360V347H640V345Z" fill="#DDDDDD" mask="url(#path-37-outside-12_4748_15723)"/>
<path d="M493.279 315.832V318.914H485.932V315.832H493.279ZM487.221 316.816V317.93H492.014V316.816H487.221ZM493.924 309.258V310.242H485.275V309.258H488.967V308.332H490.268V309.258H493.924ZM489.611 310.57C491.873 310.57 493.139 311.074 493.139 312.07C493.139 312.967 492.119 313.471 490.268 313.559V314.18H494.451V315.211H484.795V314.18H488.967V313.559C487.127 313.477 486.096 312.967 486.096 312.07C486.096 311.074 487.373 310.57 489.611 310.57ZM489.611 311.449C488.205 311.461 487.49 311.637 487.49 312.07C487.49 312.492 488.205 312.691 489.611 312.691C491.029 312.691 491.744 312.492 491.744 312.07C491.744 311.637 491.029 311.461 489.611 311.449ZM499.725 309.187V310.23H496.818V311.262H499.619V312.258H496.818V313.371C498.113 313.359 499.01 313.307 500.041 313.113L500.182 314.168C498.939 314.402 497.908 314.437 496.268 314.437H495.564V309.187H499.725ZM504.225 308.461V314.906H502.982V312.152H501.881V314.824H500.662V308.66H501.881V311.109H502.982V308.461H504.225ZM504.225 315.375V319.043H502.924V316.43H496.971V315.375H504.225ZM511.01 309.902C511.01 311.543 512.615 313.184 514.83 313.57L514.244 314.66C512.469 314.285 511.016 313.213 510.33 311.789C509.627 313.201 508.174 314.279 506.404 314.66L505.83 313.57C508.021 313.172 509.615 311.531 509.627 309.902V309.117H511.01V309.902ZM515.217 316.617V317.695H505.537V316.617H515.217Z" fill="black"/>
<mask id="path-40-outside-13_4748_15723" maskUnits="userSpaceOnUse" x="360" y="345" width="281" height="34" fill="black">
<rect fill="white" x="360" y="345" width="281" height="34"/>
<path d="M360 346H640V378H360V346Z"/>
</mask>
<path d="M360 346H640V378H360V346Z" fill="white"/>
<path d="M640 346H641V345H640V346ZM640 378V379H641V378H640ZM360 347H640V345H360V347ZM639 346V378H641V346H639ZM640 377H360V379H640V377Z" fill="#DDDDDD" mask="url(#path-40-outside-13_4748_15723)"/>
<path d="M485.129 357.328C485.129 358.664 486.617 360.012 488.879 360.305L488.363 361.359C486.564 361.09 485.135 360.205 484.449 359.004C483.752 360.205 482.328 361.09 480.547 361.359L480.031 360.305C482.27 360.012 483.758 358.664 483.758 357.328V356.789H485.129V357.328ZM489.266 362.273V363.352H485.059V367.043H483.77V363.352H479.609V362.273H489.266ZM498.828 356.449V367.043H497.516V356.449H498.828ZM495.664 357.574C495.664 360.727 494.445 363.41 490.73 365.168L490.051 364.125C492.822 362.807 494.111 361.014 494.34 358.605H490.59V357.574H495.664ZM508.707 356.449V359.238H510.184V360.328H508.707V363.211H507.406V356.449H508.707ZM505.285 363.305C507.453 363.305 508.824 363.996 508.824 365.168C508.824 366.328 507.453 367.031 505.285 367.031C503.082 367.031 501.734 366.328 501.746 365.168C501.734 363.996 503.082 363.305 505.285 363.305ZM505.285 364.301C503.832 364.301 503.023 364.582 503.035 365.168C503.023 365.73 503.832 366.047 505.285 366.047C506.715 366.047 507.523 365.73 507.523 365.168C507.523 364.582 506.715 364.301 505.285 364.301ZM506.645 357.527V358.547H500.363V357.527H502.859V356.379H504.16V357.527H506.645ZM503.504 358.969C505.039 358.969 506.082 359.73 506.094 360.867C506.082 362.004 505.039 362.754 503.504 362.754C501.957 362.754 500.902 362.004 500.902 360.867C500.902 359.73 501.957 358.969 503.504 358.969ZM503.504 359.93C502.695 359.93 502.168 360.281 502.168 360.867C502.168 361.441 502.695 361.77 503.504 361.77C504.313 361.77 504.852 361.441 504.852 360.867C504.852 360.281 504.313 359.93 503.504 359.93ZM519.148 356.883V360.562H516.195V361.676H520.379V362.73H510.723V361.676H514.883V360.562H511.941V356.883H519.148ZM513.207 357.902V359.531H517.859V357.902H513.207ZM519.195 363.621V367.043H517.895V364.652H511.789V363.621H519.195Z" fill="black"/>
<mask id="path-43-outside-14_4748_15723" maskUnits="userSpaceOnUse" x="360" y="377" width="281" height="34" fill="black">
<rect fill="white" x="360" y="377" width="281" height="34"/>
<path d="M360 378H640V410H360V378Z"/>
</mask>
<path d="M360 378H640V410H360V378Z" fill="white"/>
<path d="M640 378H641V377H640V378ZM640 410V411H641V410H640ZM360 379H640V377H360V379ZM639 378V410H641V378H639ZM640 409H360V411H640V409Z" fill="#DDDDDD" mask="url(#path-43-outside-14_4748_15723)"/>
<path d="M432.312 388.848V389.996H436.883V388.848H438.172V393.148H435.242V394.121H439.426V395.176H429.769V394.121H433.93V393.148H431.023V388.848H432.312ZM432.312 392.105H436.883V391.004H432.312V392.105ZM438.336 397.777V398.832H430.965V395.855H432.266V397.777H438.336ZM448.965 388.461V396.113H447.652V388.461H448.965ZM449.258 397.777V398.832H441.957V395.34H443.269V397.777H449.258ZM443.187 389.152C444.793 389.152 446.035 390.266 446.035 391.801C446.035 393.371 444.793 394.461 443.187 394.461C441.57 394.461 440.328 393.371 440.328 391.801C440.328 390.266 441.57 389.152 443.187 389.152ZM443.187 390.289C442.285 390.289 441.594 390.887 441.605 391.801C441.594 392.738 442.285 393.324 443.187 393.324C444.066 393.324 444.758 392.738 444.758 391.801C444.758 390.887 444.066 390.289 443.187 390.289ZM460.18 394.613V395.645H455.961V399.043H454.672V395.645H450.5V394.613H460.18ZM452.961 388.871V390.172H457.695V388.871H459.008V393.512H451.672V388.871H452.961ZM452.961 392.457H457.695V391.203H452.961V392.457ZM469.238 388.449V390.91H470.715V391.988H469.238V394.414H467.937V388.449H469.238ZM466.039 389.129V390.184H462.617V392.891C464.609 392.891 465.717 392.814 466.977 392.562L467.117 393.594C465.734 393.898 464.492 393.945 462.184 393.945H461.328V389.129H466.039ZM469.238 394.895V398.902H462.395V394.895H469.238ZM463.684 395.937V397.871H467.949V395.937H463.684ZM471.887 394.766C471.887 392.562 472.543 390.723 473.645 389.152H475.051C474.242 390.312 473.434 392.668 473.434 394.766C473.434 396.863 474.242 399.219 475.051 400.391H473.645C472.543 398.809 471.887 396.98 471.887 394.766ZM485.422 396.687V397.754H475.742V396.687H477.98V394.004C477.137 393.523 476.627 392.768 476.633 391.824C476.621 390.137 478.285 389.023 480.559 389.023C482.844 389.023 484.508 390.137 484.508 391.824C484.508 392.75 484.016 393.494 483.195 393.98V396.687H485.422ZM480.559 390.055C478.977 390.055 477.898 390.723 477.91 391.824C477.898 392.914 478.977 393.594 480.559 393.594C482.141 393.594 483.23 392.914 483.23 391.824C483.23 390.723 482.141 390.055 480.559 390.055ZM479.27 396.687H481.871V394.473C481.467 394.566 481.027 394.613 480.559 394.613C480.102 394.613 479.668 394.566 479.27 394.484V396.687ZM495.91 389.867V390.934H494.469V392.141H495.91V393.219H494.469V394.672H493.168V388.449H494.469V389.867H495.91ZM489.09 389.059C490.719 389.047 491.937 390.09 491.949 391.59C491.937 393.078 490.719 394.121 489.09 394.133C487.449 394.121 486.219 393.078 486.23 391.59C486.219 390.09 487.449 389.047 489.09 389.059ZM489.09 390.148C488.176 390.148 487.496 390.723 487.508 391.59C487.496 392.469 488.176 393.02 489.09 393.031C489.992 393.02 490.672 392.469 490.672 391.59C490.672 390.723 489.992 390.148 489.09 390.148ZM491.023 394.918C493.191 394.918 494.562 395.691 494.574 396.98C494.562 398.27 493.191 399.031 491.023 399.031C488.832 399.031 487.437 398.27 487.437 396.98C487.437 395.691 488.832 394.918 491.023 394.918ZM491.023 395.961C489.57 395.961 488.738 396.312 488.738 396.98C488.738 397.648 489.57 397.988 491.023 397.988C492.477 397.988 493.285 397.648 493.285 396.98C493.285 396.312 492.477 395.961 491.023 395.961ZM498.957 394.484V395.703H503.656V394.484H504.945V398.914H497.68V394.484H498.957ZM498.957 397.859H503.656V396.711H498.957V397.859ZM504.98 388.906V389.727C504.98 390.529 504.98 391.414 504.723 392.656H506.164V393.699H496.484V392.656H503.434C503.656 391.537 503.68 390.693 503.68 389.949H497.68V388.906H504.98ZM509.75 389.223C510.711 389.223 511.502 389.756 511.977 390.687H514.449V388.449H515.738V399.055H514.449V395.047H512.07C511.613 396.102 510.775 396.711 509.75 396.711C508.156 396.711 507.031 395.27 507.031 392.961C507.031 390.676 508.156 389.223 509.75 389.223ZM509.75 390.395C508.871 390.395 508.273 391.344 508.285 392.961C508.273 394.59 508.871 395.539 509.75 395.539C510.629 395.539 511.215 394.59 511.227 392.961C511.215 391.344 510.629 390.395 509.75 390.395ZM512.34 391.754C512.416 392.123 512.457 392.527 512.457 392.961C512.457 393.33 512.428 393.67 512.375 393.992H514.449V391.754H512.34ZM520.098 396.629V394.414H517.883V393.113H520.098V390.898H521.387V393.113H523.613V394.414H521.387V396.629H520.098ZM528.395 389.187C530.07 389.176 531.301 390.242 531.313 391.742C531.301 393.254 530.07 394.309 528.395 394.309C526.73 394.309 525.488 393.254 525.488 391.742C525.488 390.242 526.73 389.176 528.395 389.187ZM528.395 390.312C527.469 390.312 526.777 390.863 526.777 391.742C526.777 392.633 527.469 393.172 528.395 393.172C529.332 393.172 530.035 392.633 530.035 391.742C530.035 390.863 529.332 390.312 528.395 390.312ZM533.785 388.449V399.055H532.484V388.449H533.785ZM525.008 395.773C526.918 395.773 529.566 395.75 531.852 395.422L531.957 396.371C529.578 396.828 527.035 396.84 525.172 396.84L525.008 395.773ZM545.012 396.734V397.812H535.332V396.734H537.898V394.988H536.48V391.531H542.574V390.23H536.457V389.176H543.863V392.574H537.781V393.934H544.109V394.988H542.563V396.734H545.012ZM539.164 396.734H541.285V394.988H539.164V396.734ZM554.199 388.965V389.785C554.199 390.605 554.199 391.543 553.941 392.797H555.383V393.852H545.703V392.797H552.629C552.875 391.654 552.898 390.781 552.898 390.008H546.898V388.965H554.199ZM554.188 395.082V398.914H546.863V395.082H554.188ZM548.141 396.102V397.859H552.898V396.102H548.141ZM558.969 389.223C559.93 389.223 560.721 389.756 561.195 390.687H563.668V388.449H564.957V399.055H563.668V395.047H561.289C560.832 396.102 559.994 396.711 558.969 396.711C557.375 396.711 556.25 395.27 556.25 392.961C556.25 390.676 557.375 389.223 558.969 389.223ZM558.969 390.395C558.09 390.395 557.492 391.344 557.504 392.961C557.492 394.59 558.09 395.539 558.969 395.539C559.848 395.539 560.434 394.59 560.445 392.961C560.434 391.344 559.848 390.395 558.969 390.395ZM561.559 391.754C561.635 392.123 561.676 392.527 561.676 392.961C561.676 393.33 561.647 393.67 561.594 393.992H563.668V391.754H561.559ZM569.598 394.766C569.598 396.98 568.941 398.809 567.84 400.391H566.434C567.242 399.219 568.051 396.863 568.051 394.766C568.051 392.668 567.242 390.312 566.434 389.152H567.84C568.941 390.723 569.598 392.562 569.598 394.766Z" fill="black"/>
<mask id="path-46-outside-15_4748_15723" maskUnits="userSpaceOnUse" x="360" y="409" width="281" height="34" fill="black">
<rect fill="white" x="360" y="409" width="281" height="34"/>
<path d="M360 410H640V442H360V410Z"/>
</mask>
<path d="M360 410H640V442H360V410Z" fill="white"/>
<path d="M640 410H641V409H640V410ZM640 442V443H641V442H640ZM360 411H640V409H360V411ZM639 410V442H641V410H639ZM640 441H360V443H640V441Z" fill="#DDDDDD" mask="url(#path-46-outside-15_4748_15723)"/>
<path d="M434.826 420.93V421.738C434.826 422.529 434.826 423.437 434.603 424.621H436.01V425.676H431.803V427.328H434.85V431.043H433.549V428.371H427.314V427.328H430.502V425.676H426.33V424.621H433.291C433.502 423.537 433.525 422.711 433.525 421.973H427.525V420.93H434.826ZM442.35 421.328V426.367H437.24V421.328H442.35ZM438.529 422.371V425.324H441.061V422.371H438.529ZM445.525 420.461V428.02H444.213V420.461H445.525ZM445.818 429.707V430.762H438.518V427.305H439.83V429.707H445.818ZM455.943 420.461V428.23H454.643V424.668H452.603V423.59H454.643V420.461H455.943ZM452.674 421.258C452.674 424.047 450.822 426.145 447.764 427.117L447.213 426.074C449.498 425.348 451.004 424 451.256 422.324H447.764V421.258H452.674ZM456.213 429.777V430.832H449.041V427.445H450.365V429.777H456.213ZM465.799 420.449V423.027H467.275V424.094H465.799V426.66H464.498V420.449H465.799ZM462.869 421.176C462.869 423.965 461.053 425.934 457.924 426.824L457.408 425.77C459.811 425.113 461.234 423.818 461.463 422.23H457.889V421.176H462.869ZM462.377 426.789C464.521 426.789 465.916 427.609 465.916 428.91C465.916 430.234 464.521 431.031 462.377 431.031C460.244 431.031 458.826 430.234 458.838 428.91C458.826 427.609 460.244 426.789 462.377 426.789ZM462.377 427.809C460.982 427.809 460.115 428.207 460.127 428.91C460.115 429.602 460.982 430.012 462.377 430.012C463.771 430.012 464.639 429.602 464.639 428.91C464.639 428.207 463.771 427.809 462.377 427.809ZM477.494 428.699V429.766H467.814V428.699H471.986V426.637H468.881V421.152H470.182V422.887H475.092V421.152H476.393V426.637H473.275V428.699H477.494ZM470.182 425.582H475.092V423.93H470.182V425.582ZM487.057 420.449V426.859H485.756V424.668H484.244V423.59H485.756V420.449H487.057ZM487.057 427.34V430.914H480.014V427.34H487.057ZM481.314 428.371V429.859H485.779V428.371H481.314ZM484.42 421.434V422.488H478.209V421.434H480.67V420.367H481.959V421.434H484.42ZM481.314 422.898C482.791 422.898 483.822 423.684 483.834 424.797C483.822 425.945 482.791 426.695 481.314 426.695C479.85 426.695 478.807 425.945 478.807 424.797C478.807 423.684 479.85 422.898 481.314 422.898ZM481.314 423.883C480.553 423.883 480.049 424.234 480.049 424.797C480.049 425.383 480.553 425.723 481.314 425.723C482.076 425.723 482.58 425.383 482.58 424.797C482.58 424.234 482.076 423.883 481.314 423.883ZM501.084 428.687V429.754H491.404V428.687H493.643V426.004C492.799 425.523 492.289 424.768 492.295 423.824C492.283 422.137 493.947 421.023 496.221 421.023C498.506 421.023 500.17 422.137 500.17 423.824C500.17 424.75 499.678 425.494 498.857 425.98V428.687H501.084ZM496.221 422.055C494.639 422.055 493.561 422.723 493.572 423.824C493.561 424.914 494.639 425.594 496.221 425.594C497.803 425.594 498.893 424.914 498.893 423.824C498.893 422.723 497.803 422.055 496.221 422.055ZM494.932 428.687H497.533V426.473C497.129 426.566 496.689 426.613 496.221 426.613C495.764 426.613 495.33 426.566 494.932 426.484V428.687ZM511.572 421.867V422.934H510.131V424.141H511.572V425.219H510.131V426.672H508.83V420.449H510.131V421.867H511.572ZM504.752 421.059C506.381 421.047 507.6 422.09 507.611 423.59C507.6 425.078 506.381 426.121 504.752 426.133C503.111 426.121 501.881 425.078 501.893 423.59C501.881 422.09 503.111 421.047 504.752 421.059ZM504.752 422.148C503.838 422.148 503.158 422.723 503.17 423.59C503.158 424.469 503.838 425.02 504.752 425.031C505.654 425.02 506.334 424.469 506.334 423.59C506.334 422.723 505.654 422.148 504.752 422.148ZM506.686 426.918C508.854 426.918 510.225 427.691 510.236 428.98C510.225 430.27 508.854 431.031 506.686 431.031C504.494 431.031 503.1 430.27 503.1 428.98C503.1 427.691 504.494 426.918 506.686 426.918ZM506.686 427.961C505.232 427.961 504.4 428.312 504.4 428.98C504.4 429.648 505.232 429.988 506.686 429.988C508.139 429.988 508.947 429.648 508.947 428.98C508.947 428.312 508.139 427.961 506.686 427.961ZM520.994 420.449V431.043H519.682V420.449H520.994ZM517.83 421.574C517.83 424.727 516.611 427.41 512.896 429.168L512.217 428.125C514.988 426.807 516.277 425.014 516.506 422.605H512.756V421.574H517.83ZM528.436 421.234V421.867C528.424 422.594 528.424 423.637 528.178 424.984L526.889 424.867C527.094 423.771 527.135 422.963 527.158 422.312H523.033V421.234H528.436ZM525.764 423.648V425.758C526.859 425.717 527.984 425.635 529.01 425.488L529.08 426.426C526.877 426.824 524.381 426.859 522.518 426.871L522.4 425.828C523.027 425.822 523.73 425.816 524.475 425.805V423.648H525.764ZM530.967 420.449V423.754H532.338V424.844H530.967V428.383H529.631V420.449H530.967ZM531.307 429.777V430.832H523.982V427.68H525.295V429.777H531.307ZM541.76 420.449V426.742H540.459V424.152H538.654V423.086H540.459V420.449H541.76ZM538.174 427.012C540.424 427.012 541.795 427.75 541.795 429.027C541.795 430.305 540.424 431.043 538.174 431.043C535.936 431.043 534.564 430.305 534.576 429.027C534.564 427.75 535.936 427.012 538.174 427.012ZM538.174 428.008C536.697 428.008 535.865 428.359 535.865 429.027C535.865 429.684 536.697 430.035 538.174 430.035C539.65 430.035 540.494 429.684 540.494 429.027C540.494 428.359 539.65 428.008 538.174 428.008ZM536.779 422.266C536.779 423.555 537.635 424.855 539.275 425.406L538.619 426.437C537.441 426.039 536.604 425.23 536.147 424.234C535.678 425.365 534.793 426.268 533.533 426.719L532.854 425.687C534.553 425.102 535.455 423.672 535.455 422.277V422.195H533.252V421.141H538.971V422.195H536.779V422.266ZM552.939 428.699V429.766H543.26V428.699H547.432V426.637H544.326V421.152H545.627V422.887H550.537V421.152H551.838V426.637H548.721V428.699H552.939ZM545.627 425.582H550.537V423.93H545.627V425.582ZM559.022 421.48V428.418H554.006V421.48H559.022ZM555.283 422.5V427.375H557.721V422.5H555.283ZM561.928 420.449V424.516H563.557V425.617H561.928V431.043H560.627V420.449H561.928ZM572.369 420.449V423.051H573.834V424.117H572.369V426.637H571.057V420.449H572.369ZM568.912 426.836C571.08 426.836 572.451 427.609 572.463 428.922C572.451 430.258 571.08 431.031 568.912 431.031C566.721 431.031 565.326 430.258 565.326 428.922C565.326 427.609 566.721 426.836 568.912 426.836ZM568.912 427.879C567.459 427.879 566.604 428.242 566.615 428.922C566.604 429.613 567.459 429.988 568.912 429.988C570.342 429.988 571.197 429.613 571.197 428.922C571.197 428.242 570.342 427.879 568.912 427.879ZM569.158 421.199V422.254H565.701V424.914C567.729 424.908 568.859 424.85 570.107 424.586L570.236 425.629C568.865 425.922 567.611 425.969 565.268 425.969H564.412V421.199H569.158Z" fill="black"/>
<mask id="path-49-outside-16_4748_15723" maskUnits="userSpaceOnUse" x="140" y="281" width="221" height="33" fill="black">
<rect fill="white" x="140" y="281" width="221" height="33"/>
<path d="M140 282H360V314H140V282Z"/>
</mask>
<path d="M140 282H360V314H140V282Z" fill="#EEF6FF"/>
<path d="M360 282H361V281H360V282ZM140 283H360V281H140V283ZM359 282V314H361V282H359Z" fill="#DDDDDD" mask="url(#path-49-outside-16_4748_15723)"/>
<path d="M245.988 293.492C245.988 296.691 245.109 299.434 241.207 301.379L240.492 300.395C242.326 299.486 243.416 298.432 244.031 297.172L240.738 297.488L240.574 296.363L244.43 296.117C244.564 295.625 244.646 295.104 244.687 294.547H241.125V293.492H245.988ZM248.777 292.449V296.598H250.348V297.664H248.777V303.02H247.477V292.449H248.777ZM259.453 297.418V298.461H252.023V293.375H259.371V294.43H253.313V297.418H259.453ZM260.531 300.617V301.695H250.852V300.617H260.531Z" fill="black"/>
<mask id="path-52-outside-17_4748_15723" maskUnits="userSpaceOnUse" x="140" y="313" width="221" height="33" fill="black">
<rect fill="white" x="140" y="313" width="221" height="33"/>
<path d="M140 314H360V346H140V314Z"/>
</mask>
<path d="M140 314H360V346H140V314Z" fill="#EEF6FF"/>
<path d="M360 314H361V313H360V314ZM140 315H360V313H140V315ZM359 314V346H361V314H359Z" fill="#DDDDDD" mask="url(#path-52-outside-17_4748_15723)"/>
<path d="M233.295 324.461V332.523H231.994V330.437H230.424V329.395H231.994V328.211H230.424V327.156H231.994V324.461H233.295ZM230.365 325.633V326.676H224.447V325.633H226.814V324.449H228.115V325.633H230.365ZM227.447 327.109C228.889 327.109 229.92 327.953 229.932 329.172C229.92 330.391 228.889 331.234 227.447 331.234C226.018 331.234 224.986 330.391 224.998 329.172C224.986 327.953 226.018 327.109 227.447 327.109ZM227.447 328.129C226.721 328.141 226.205 328.527 226.217 329.172C226.205 329.84 226.721 330.227 227.447 330.227C228.174 330.227 228.701 329.84 228.701 329.172C228.701 328.527 228.174 328.141 227.447 328.129ZM233.529 333.777V334.832H226.311V331.832H227.635V333.777H233.529ZM243.291 324.965V325.785C243.291 326.605 243.291 327.543 243.033 328.797H244.475V329.852H234.795V328.797H241.721C241.967 327.654 241.99 326.781 241.99 326.008H235.99V324.965H243.291ZM243.279 331.082V334.914H235.955V331.082H243.279ZM237.232 332.102V333.859H241.99V332.102H237.232ZM248.107 325.047C248.963 325.047 249.701 325.363 250.205 325.891H252.736V324.449H254.037V330.684H252.736V329.336H250.205C249.701 329.863 248.957 330.174 248.107 330.168C246.514 330.18 245.307 329.102 245.307 327.613C245.307 326.113 246.514 325.047 248.107 325.047ZM248.107 326.16C247.193 326.16 246.549 326.723 246.549 327.613C246.549 328.48 247.193 329.066 248.107 329.066C248.986 329.066 249.631 328.48 249.643 327.613C249.631 326.723 248.986 326.16 248.107 326.16ZM250.451 330.906C252.678 330.906 254.072 331.668 254.072 332.969C254.072 334.27 252.678 335.031 250.451 335.031C248.236 335.031 246.842 334.27 246.854 332.969C246.842 331.668 248.236 330.906 250.451 330.906ZM250.451 331.902C248.975 331.902 248.119 332.277 248.131 332.969C248.119 333.637 248.975 334.012 250.451 334.012C251.951 334.012 252.795 333.637 252.795 332.969C252.795 332.277 251.951 331.902 250.451 331.902ZM250.791 326.934C250.85 327.15 250.885 327.373 250.885 327.613C250.885 327.848 250.85 328.07 250.803 328.281H252.736V326.934H250.791ZM261.057 325.328C261.057 326.664 262.545 328.012 264.807 328.305L264.291 329.359C262.492 329.09 261.063 328.205 260.377 327.004C259.68 328.205 258.256 329.09 256.475 329.359L255.959 328.305C258.197 328.012 259.686 326.664 259.686 325.328V324.789H261.057V325.328ZM265.193 330.273V331.352H260.986V335.043H259.697V331.352H255.537V330.273H265.193ZM275.564 329.383V330.437H265.908V329.383H275.564ZM270.725 331.141C273.01 331.141 274.381 331.855 274.393 333.086C274.381 334.328 273.01 335.031 270.725 335.031C268.416 335.031 267.033 334.328 267.033 333.086C267.033 331.855 268.416 331.141 270.725 331.141ZM270.725 332.16C269.178 332.16 268.346 332.477 268.357 333.086C268.346 333.695 269.178 334.012 270.725 334.012C272.236 334.012 273.08 333.695 273.092 333.086C273.08 332.477 272.236 332.16 270.725 332.16ZM274.697 324.953V326.02H271.639C271.832 326.898 273.104 327.689 275.107 327.883L274.65 328.914C272.729 328.709 271.299 327.953 270.725 326.875C270.15 327.947 268.744 328.709 266.822 328.914L266.377 327.883C268.34 327.689 269.617 326.898 269.822 326.02H266.787V324.953H274.697Z" fill="black"/>
<mask id="path-55-outside-18_4748_15723" maskUnits="userSpaceOnUse" x="140" y="345" width="221" height="33" fill="black">
<rect fill="white" x="140" y="345" width="221" height="33"/>
<path d="M140 346H360V378H140V346Z"/>
</mask>
<path d="M140 346H360V378H140V346Z" fill="#EEF6FF"/>
<path d="M360 346H361V345H360V346ZM140 347H360V345H140V347ZM359 346V378H361V346H359Z" fill="#DDDDDD" mask="url(#path-55-outside-18_4748_15723)"/>
<path d="M207.941 357.129C207.941 358.383 209.406 359.672 211.574 359.977L211.082 361.008C209.342 360.738 207.953 359.895 207.285 358.758C206.6 359.912 205.205 360.762 203.465 361.031L202.973 360.012C205.129 359.684 206.594 358.418 206.605 357.129V356.719H207.941V357.129ZM212.113 361.711V362.766H208.023V364.699H206.734V362.766H202.434V361.711H212.113ZM211.047 365.777V366.832H203.605V363.75H204.906V365.777H211.047ZM218.336 357.328C218.336 358.664 219.824 360.012 222.086 360.305L221.57 361.359C219.771 361.09 218.342 360.205 217.656 359.004C216.959 360.205 215.535 361.09 213.754 361.359L213.238 360.305C215.477 360.012 216.965 358.664 216.965 357.328V356.789H218.336V357.328ZM222.473 362.273V363.352H218.266V367.043H216.977V363.352H212.816V362.273H222.473ZM232.059 356.461V364.523H230.758V362.437H229.187V361.395H230.758V360.211H229.187V359.156H230.758V356.461H232.059ZM229.129 357.633V358.676H223.211V357.633H225.578V356.449H226.879V357.633H229.129ZM226.211 359.109C227.652 359.109 228.684 359.953 228.695 361.172C228.684 362.391 227.652 363.234 226.211 363.234C224.781 363.234 223.75 362.391 223.762 361.172C223.75 359.953 224.781 359.109 226.211 359.109ZM226.211 360.129C225.484 360.141 224.969 360.527 224.98 361.172C224.969 361.84 225.484 362.227 226.211 362.227C226.937 362.227 227.465 361.84 227.465 361.172C227.465 360.527 226.937 360.141 226.211 360.129ZM232.293 365.777V366.832H225.074V363.832H226.398V365.777H232.293ZM242.055 356.965V357.785C242.055 358.605 242.055 359.543 241.797 360.797H243.238V361.852H233.559V360.797H240.484C240.73 359.654 240.754 358.781 240.754 358.008H234.754V356.965H242.055ZM242.043 363.082V366.914H234.719V363.082H242.043ZM235.996 364.102V365.859H240.754V364.102H235.996ZM250.598 357.117L247.867 367.277H246.555L249.297 357.117H250.598ZM262.773 356.449V367.043H261.461V356.449H262.773ZM259.609 357.574C259.609 360.727 258.391 363.41 254.676 365.168L253.996 364.125C256.768 362.807 258.057 361.014 258.285 358.605H254.535V357.574H259.609ZM269.734 357.363V358.43H266.055V360.316H269.547V361.348H266.055V363.527C267.684 363.516 268.955 363.457 270.438 363.211L270.555 364.266C268.926 364.523 267.508 364.582 265.609 364.582H264.73V357.363H269.734ZM272.594 356.449V360.551H274.223V361.641H272.594V367.043H271.293V356.449H272.594ZM286.656 356.449V367.043H285.402V361.617H284.277V366.527H283.047V356.637H284.277V360.539H285.402V356.449H286.656ZM282.004 357.598V364.312H277.844V357.598H282.004ZM279.063 358.629V363.281H280.785V358.629H279.063ZM297.52 361.031V361.992H293.348V362.766H296.336V365.25H290.313V365.977H296.629V366.949H289.035V364.359H295.059V363.703H289.023V362.766H292.059V361.992H287.91V361.031H297.52ZM293.348 356.426V357.316H296.594V358.289H293.488C293.74 359.039 294.971 359.602 297.086 359.707L296.699 360.68C294.801 360.562 293.371 360.047 292.703 359.191C292.035 360.047 290.611 360.562 288.695 360.68L288.332 359.707C290.424 359.602 291.654 359.039 291.93 358.289H288.836V357.316H292.059V356.426H293.348Z" fill="black"/>
<mask id="path-58-outside-19_4748_15723" maskUnits="userSpaceOnUse" x="-1" y="281" width="142" height="97" fill="black">
<rect fill="white" x="-1" y="281" width="142" height="97"/>
<path d="M0 282H140V378H0V282Z"/>
</mask>
<path d="M0 282H140V378H0V282Z" fill="#EEF6FF"/>
<path d="M0 282V281H-1V282H0ZM140 282H141V281H140V282ZM0 283H140V281H0V283ZM139 282V378H141V282H139ZM1 378V282H-1V378H1Z" fill="#DDDDDD" mask="url(#path-58-outside-19_4748_15723)"/>
<path d="M58 324.449V328H59.4297V329.078H58V332.723H56.6992V324.449H58ZM58.375 333.777V334.832H51.039V332.172H52.3398V333.777H58.375ZM49.5156 330.602C50.3066 330.602 51.2265 330.596 52.1875 330.555V329.887C51.0098 329.746 50.2656 329.166 50.2656 328.316C50.2656 327.273 51.2851 326.664 52.8203 326.676C54.3672 326.664 55.375 327.273 55.375 328.316C55.375 329.16 54.6484 329.734 53.4883 329.887V330.496C54.3906 330.449 55.2988 330.367 56.1484 330.238L56.2539 331.152C54.0156 331.574 51.4844 331.598 49.6562 331.621L49.5156 330.602ZM55.8672 325.375V326.324H49.7851V325.375H52.1875V324.414H53.4883V325.375H55.8672ZM52.8203 327.555C52 327.555 51.5078 327.824 51.5195 328.316C51.5078 328.773 52 329.043 52.8203 329.043C53.6406 329.043 54.1328 328.773 54.1328 328.316C54.1328 327.824 53.6406 327.555 52.8203 327.555ZM63.7773 327.461C63.7773 329.102 64.75 330.965 66.4258 331.738L65.6992 332.77C64.5039 332.207 63.6191 331.07 63.1445 329.746C62.6641 331.199 61.7383 332.441 60.5195 333.027L59.7578 332.008C61.4453 331.211 62.4648 329.219 62.4766 327.461V326.57H60.168V325.492H65.9922V326.57H63.7773V327.461ZM68.2773 324.449V328.574H69.9062V329.664H68.2773V335.043H66.9766V324.449H68.2773ZM75.8711 325.328C75.8711 326.664 77.3594 328.012 79.6211 328.305L79.1055 329.359C77.3066 329.09 75.877 328.205 75.1914 327.004C74.4941 328.205 73.0703 329.09 71.2891 329.359L70.7734 328.305C73.0117 328.012 74.5 326.664 74.5 325.328V324.789H75.8711V325.328ZM80.0078 330.273V331.352H75.8008V335.043H74.5117V331.352H70.3516V330.273H80.0078ZM89.0664 324.461V326.687H90.5664V327.766H89.0664V330.004H87.7774V324.461H89.0664ZM82.4922 324.93V328.527C83.8516 328.51 85.2813 328.41 86.8281 328.105L86.9805 329.172C85.2227 329.5 83.5938 329.617 82.0586 329.617H81.1797V324.93H82.4922ZM83.4883 330.508V331.691H87.7774V330.508H89.0781V334.914H82.1992V330.508H83.4883ZM83.4883 333.859H87.7774V332.734H83.4883V333.859Z" fill="black"/>
<mask id="path-61-outside-20_4748_15723" maskUnits="userSpaceOnUse" x="-1" y="377" width="362" height="33" fill="black">
<rect fill="white" x="-1" y="377" width="362" height="33"/>
<path d="M0 378H360V410H0V378Z"/>
</mask>
<path d="M0 378H360V410H0V378Z" fill="#EEF6FF"/>
<path d="M0 378V377H-1V378H0ZM360 378H361V377H360V378ZM0 379H360V377H0V379ZM359 378V410H361V378H359ZM1 410V378H-1V410H1Z" fill="#DDDDDD" mask="url(#path-61-outside-20_4748_15723)"/>
<path d="M174.451 393.312V394.367H170.256V395.246C172.154 395.375 173.268 396.031 173.279 397.133C173.268 398.352 171.896 399.031 169.611 399.031C167.303 399.031 165.92 398.352 165.92 397.133C165.92 396.031 167.045 395.369 168.967 395.246V394.367H164.795V393.312H174.451ZM169.611 396.23C168.064 396.242 167.232 396.547 167.244 397.133C167.232 397.719 168.064 398.035 169.611 398.035C171.123 398.035 171.967 397.719 171.979 397.133C171.967 396.547 171.123 396.242 169.611 396.23ZM173.584 388.918V389.961H170.537C170.742 390.834 172.008 391.619 173.994 391.801L173.537 392.832C171.615 392.639 170.186 391.871 169.611 390.793C169.037 391.865 167.631 392.639 165.709 392.832L165.264 391.801C167.209 391.619 168.475 390.822 168.697 389.961H165.674V388.918H173.584ZM184.822 393.781V394.824H175.166V393.781H179.326V392.762H176.42V388.707H177.709V389.762H182.279V388.707H183.568V392.762H180.639V393.781H184.822ZM183.639 395.668V399.043H182.338V396.699H176.232V395.668H183.639ZM177.709 391.719H182.279V390.734H177.709V391.719ZM195.205 393.934V394.977H191.115V396.805H189.826V394.977H185.525V393.934H195.205ZM194.139 397.777V398.832H186.697V395.914H187.986V397.777H194.139ZM188.08 388.789V389.984H192.65V388.789H193.939V393.102H186.791V388.789H188.08ZM188.08 392.07H192.65V390.957H188.08V392.07Z" fill="black"/>
<mask id="path-64-outside-21_4748_15723" maskUnits="userSpaceOnUse" x="-1" y="409" width="362" height="34" fill="black">
<rect fill="white" x="-1" y="409" width="362" height="34"/>
<path d="M0 410H360V442H0V410Z"/>
</mask>
<path d="M0 410H360V442H0V410Z" fill="#EEF6FF"/>
<path d="M0 410V409H-1V410H0ZM360 410H361V409H360V410ZM360 442V443H361V442H360ZM0 442H-1V443H0V442ZM0 411H360V409H0V411ZM359 410V442H361V410H359ZM360 441H0V443H360V441ZM1 442V410H-1V442H1Z" fill="#DDDDDD" mask="url(#path-64-outside-21_4748_15723)"/>
<path d="M151.834 422.605C151.834 423.918 152.736 425.207 154.424 425.734L153.756 426.754C152.555 426.361 151.682 425.57 151.201 424.562C150.721 425.658 149.824 426.531 148.564 426.965L147.896 425.934C149.596 425.371 150.51 424 150.521 422.605V422.301H148.236V421.258H154.061V422.301H151.834V422.605ZM156.639 420.461V428.148H155.326V420.461H156.639ZM156.932 429.777V430.832H149.631V427.445H150.943V429.777H156.932ZM167.865 428.734V429.812H158.186V428.734H160.752V426.988H159.334V423.531H165.428V422.23H159.311V421.176H166.717V424.574H160.635V425.934H166.963V426.988H165.416V428.734H167.865ZM162.018 428.734H164.139V426.988H162.018V428.734ZM174.076 421.328C174.076 422.664 175.564 424.012 177.826 424.305L177.311 425.359C175.512 425.09 174.082 424.205 173.396 423.004C172.699 424.205 171.275 425.09 169.494 425.359L168.979 424.305C171.217 424.012 172.705 422.664 172.705 421.328V420.789H174.076V421.328ZM178.213 426.273V427.352H174.006V431.043H172.717V427.352H168.557V426.273H178.213ZM187.752 420.449V426.133H186.439V420.449H187.752ZM182.033 426.625V427.715H186.451V426.625H187.752V430.914H180.744V426.625H182.033ZM182.033 429.859H186.451V428.734H182.033V429.859ZM181.975 420.918C183.604 420.906 184.822 421.926 184.822 423.402C184.822 424.844 183.604 425.863 181.975 425.863C180.334 425.863 179.115 424.844 179.115 423.402C179.115 421.926 180.334 420.906 181.975 420.918ZM181.975 422.008C181.049 422.008 180.381 422.547 180.393 423.402C180.381 424.246 181.049 424.785 181.975 424.797C182.889 424.785 183.545 424.246 183.545 423.402C183.545 422.547 182.889 422.008 181.975 422.008ZM200.502 420.449V423.062H201.979V424.141H200.502V426.637H199.201V420.449H200.502ZM194.947 427.059V427.973H199.201V427.059H200.502V430.914H193.658V427.059H194.947ZM194.947 429.883H199.201V428.98H194.947V429.883ZM198.439 421.434V422.477H192.158V421.434H194.654V420.367H195.955V421.434H198.439ZM195.299 422.84C196.834 422.84 197.877 423.578 197.889 424.703C197.877 425.828 196.834 426.566 195.299 426.566C193.752 426.566 192.697 425.828 192.697 424.703C192.697 423.578 193.752 422.84 195.299 422.84ZM195.299 423.801C194.49 423.801 193.963 424.141 193.963 424.703C193.963 425.277 194.49 425.605 195.299 425.605C196.107 425.605 196.646 425.277 196.646 424.703C196.646 424.141 196.107 423.801 195.299 423.801ZM211.658 420.449V431.043H210.416V420.449H211.658ZM209.467 420.707V430.539H208.225V427H206.572V425.934H208.225V424.363H206.76C206.262 426.121 205.154 427.633 203.174 428.805L202.412 427.879C204.609 426.584 205.617 424.926 205.811 422.793H202.975V421.738H207.1C207.1 422.271 207.064 422.793 206.994 423.297H208.225V420.707H209.467Z" fill="black"/>
</g>
<rect x="0.5" y="58.5" width="623" height="383" rx="5.5" stroke="#DDDDDD"/>
</g>
<defs>
<clipPath id="clip0_4748_15723">
<rect width="534" height="500" rx="20" fill="white"/>
</clipPath>
<clipPath id="clip1_4748_15723">
<rect y="58" width="624" height="384" rx="6" fill="white"/>
</clipPath>
</defs>
</svg>
