<svg width="534" height="500" viewBox="0 0 534 500" fill="none" xmlns="http://www.w3.org/2000/svg">
<g clip-path="url(#clip0_4748_15827)">
<path d="M204.021 47.5601C204.021 41.1756 209.197 36 215.582 36H288.698C295.082 36 300.258 41.1756 300.258 47.5601V84.1644H204.021V47.5601Z" fill="#F3F4F6"/>
<path d="M306.033 47.5601C306.033 41.1756 311.209 36 317.593 36H390.71C397.094 36 402.27 41.1756 402.27 47.5601V84.1644H306.033V47.5601Z" fill="#F3F4F6"/>
<path d="M233.563 52.5839C235.446 52.5708 236.829 53.7693 236.842 55.4551C236.829 57.1542 235.446 58.3395 233.563 58.3395C231.693 58.3395 230.297 57.1542 230.297 55.4551C230.297 53.7693 231.693 52.5708 233.563 52.5839ZM233.563 53.8483C232.522 53.8483 231.745 54.4673 231.745 55.4551C231.745 56.4561 232.522 57.062 233.563 57.062C234.617 57.062 235.407 56.4561 235.407 55.4551C235.407 54.4673 234.617 53.8483 233.563 53.8483ZM239.621 51.7542V63.6736H238.16V51.7542H239.621ZM229.757 59.9858C231.903 59.9858 234.88 59.9595 237.448 59.5907L237.567 60.6576C234.893 61.1712 232.035 61.1844 229.941 61.1844L229.757 59.9858ZM252.239 61.0658V62.2776H241.36V61.0658H244.244V59.1034H242.651V55.2181H249.499V53.7561H242.624V52.5708H250.948V56.3903H244.113V57.9181H251.225V59.1034H249.486V61.0658H252.239ZM245.667 61.0658H248.051V59.1034H245.667V61.0658ZM255.795 58.5371V59.9068H261.077V58.5371H262.525V63.5156H254.359V58.5371H255.795ZM255.795 62.3302H261.077V61.0395H255.795V62.3302ZM262.565 52.2678V53.1898C262.565 54.092 262.565 55.0864 262.275 56.4824H263.895V57.6546H253.016V56.4824H260.826C261.077 55.2246 261.103 54.2764 261.103 53.44H254.359V52.2678H262.565ZM267.925 52.6234C269.005 52.6234 269.894 53.2227 270.428 54.2698H273.207V51.7542H274.655V63.6736H273.207V59.1693H270.533C270.019 60.3546 269.078 61.0395 267.925 61.0395C266.134 61.0395 264.87 59.4195 264.87 56.8249C264.87 54.2566 266.134 52.6234 267.925 52.6234ZM267.925 53.9405C266.937 53.9405 266.266 55.0073 266.279 56.8249C266.266 58.6556 266.937 59.7224 267.925 59.7224C268.913 59.7224 269.572 58.6556 269.585 56.8249C269.572 55.0073 268.913 53.9405 267.925 53.9405ZM270.836 55.4683C270.922 55.8832 270.968 56.3376 270.968 56.8249C270.968 57.2398 270.935 57.6217 270.876 57.9839H273.207V55.4683H270.836Z" fill="#ADB0B7"/>
<path d="M353.34 51.7542V57.8522H351.878V54.8361H349.508V53.6639H351.878V51.7542H353.34ZM353.34 58.3659V61.4478H346.953V62.3566H353.722V63.5156H345.517V60.3546H351.892V59.5117H345.504V58.3659H353.34ZM347.69 53.0976C347.69 54.5595 348.652 55.9556 350.496 56.522L349.718 57.6546C348.428 57.22 347.493 56.3837 346.979 55.2971C346.452 56.5154 345.478 57.4571 344.068 57.9181L343.304 56.7459C345.214 56.1663 346.215 54.7044 346.215 53.0976V52.1493H347.69V53.0976ZM364.996 51.7542V58.8268H363.535V55.9161H361.506V54.7176H363.535V51.7542H364.996ZM360.966 59.1298C363.495 59.1298 365.036 59.9595 365.036 61.3951C365.036 62.8307 363.495 63.6605 360.966 63.6605C358.451 63.6605 356.91 62.8307 356.923 61.3951C356.91 59.9595 358.451 59.1298 360.966 59.1298ZM360.966 60.2493C359.307 60.2493 358.372 60.6444 358.372 61.3951C358.372 62.1327 359.307 62.5278 360.966 62.5278C362.626 62.5278 363.574 62.1327 363.574 61.3951C363.574 60.6444 362.626 60.2493 360.966 60.2493ZM359.399 53.7956C359.399 55.2444 360.36 56.7063 362.204 57.3254L361.467 58.4844C360.143 58.0366 359.201 57.1278 358.688 56.0083C358.161 57.2793 357.166 58.2934 355.751 58.8005L354.987 57.6415C356.896 56.9829 357.911 55.3761 357.911 53.8088V53.7166H355.435V52.5312H361.862V53.7166H359.399V53.7956Z" fill="#ADB0B7"/>
<path d="M102.012 47.5601C102.012 41.1756 107.187 36 113.572 36H186.688C193.073 36 198.248 41.1756 198.248 47.5601V82.2377C198.248 83.3017 197.386 84.1644 196.322 84.1644H103.938C102.874 84.1644 102.012 83.3018 102.012 82.2377V47.5601Z" fill="#F3F4F6"/>
<path d="M137.61 61.0132V62.2117H126.731V61.0132H129.247V57.9971C128.299 57.4571 127.726 56.6076 127.732 55.5473C127.719 53.6507 129.589 52.3995 132.144 52.3995C134.713 52.3995 136.583 53.6507 136.583 55.5473C136.583 56.5878 136.03 57.4242 135.108 57.9707V61.0132H137.61ZM132.144 53.5586C130.366 53.5586 129.155 54.3093 129.168 55.5473C129.155 56.7722 130.366 57.5361 132.144 57.5361C133.922 57.5361 135.147 56.7722 135.147 55.5473C135.147 54.3093 133.922 53.5586 132.144 53.5586ZM130.696 61.0132H133.62V58.5239C133.165 58.6293 132.671 58.682 132.144 58.682C131.631 58.682 131.143 58.6293 130.696 58.5371V61.0132ZM149.398 53.3478V54.5464H147.778V55.9029H149.398V57.1146H147.778V58.7478H146.316V51.7542H147.778V53.3478H149.398ZM141.733 52.439C143.563 52.4259 144.933 53.5981 144.946 55.2839C144.933 56.9566 143.563 58.1288 141.733 58.142C139.889 58.1288 138.506 56.9566 138.519 55.2839C138.506 53.5981 139.889 52.4259 141.733 52.439ZM141.733 53.6639C140.705 53.6639 139.941 54.3093 139.955 55.2839C139.941 56.2717 140.705 56.8907 141.733 56.9039C142.747 56.8907 143.511 56.2717 143.511 55.2839C143.511 54.3093 142.747 53.6639 141.733 53.6639ZM143.906 59.0244C146.342 59.0244 147.883 59.8937 147.897 61.3424C147.883 62.7912 146.342 63.6473 143.906 63.6473C141.443 63.6473 139.876 62.7912 139.876 61.3424C139.876 59.8937 141.443 59.0244 143.906 59.0244ZM143.906 60.1966C142.273 60.1966 141.338 60.5917 141.338 61.3424C141.338 62.0932 142.273 62.4751 143.906 62.4751C145.539 62.4751 146.448 62.0932 146.448 61.3424C146.448 60.5917 145.539 60.1966 143.906 60.1966ZM152.822 58.5371V59.9068H158.104V58.5371H159.553V63.5156H151.387V58.5371H152.822ZM152.822 62.3302H158.104V61.0395H152.822V62.3302ZM159.592 52.2678V53.1898C159.592 54.092 159.592 55.0864 159.302 56.4824H160.922V57.6546H150.043V56.4824H157.854C158.104 55.2246 158.13 54.2764 158.13 53.44H151.387V52.2678H159.592ZM164.953 52.6234C166.033 52.6234 166.922 53.2227 167.455 54.2698H170.234V51.7542H171.683V63.6736H170.234V59.1693H167.56C167.047 60.3546 166.105 61.0395 164.953 61.0395C163.161 61.0395 161.897 59.4195 161.897 56.8249C161.897 54.2566 163.161 52.6234 164.953 52.6234ZM164.953 53.9405C163.965 53.9405 163.293 55.0073 163.306 56.8249C163.293 58.6556 163.965 59.7224 164.953 59.7224C165.94 59.7224 166.599 58.6556 166.612 56.8249C166.599 55.0073 165.94 53.9405 164.953 53.9405ZM167.863 55.4683C167.949 55.8832 167.995 56.3376 167.995 56.8249C167.995 57.2398 167.962 57.6217 167.903 57.9839H170.234V55.4683H167.863Z" fill="#ADB0B7"/>
<mask id="path-8-inside-1_4748_15827" fill="white">
<path fill-rule="evenodd" clip-rule="evenodd" d="M11.5601 36C5.17564 36 0 41.1756 0 47.5601V84.1644H0.233369C0.0802977 84.9295 0 85.721 0 86.5312V679.998C0 686.626 5.37259 691.998 12 691.998H883C889.627 691.998 895 686.626 895 679.998V86.5312C895 79.9038 889.627 74.5312 883 74.5312H96.2366V47.5601C96.2366 41.1756 91.0609 36 84.6765 36H11.5601Z"/>
</mask>
<path fill-rule="evenodd" clip-rule="evenodd" d="M11.5601 36C5.17564 36 0 41.1756 0 47.5601V84.1644H0.233369C0.0802977 84.9295 0 85.721 0 86.5312V679.998C0 686.626 5.37259 691.998 12 691.998H883C889.627 691.998 895 686.626 895 679.998V86.5312C895 79.9038 889.627 74.5312 883 74.5312H96.2366V47.5601C96.2366 41.1756 91.0609 36 84.6765 36H11.5601Z" fill="white"/>
<path d="M0 84.1644H-0.963342V85.1277H0V84.1644ZM0.233369 84.1644L1.178 84.3533L1.40851 83.201H0.233369V84.1644ZM96.2366 74.5312H95.2732V75.4946H96.2366V74.5312ZM0.963342 47.5601C0.963342 41.7077 5.70768 36.9633 11.5601 36.9633V35.0367C4.6436 35.0367 -0.963342 40.6436 -0.963342 47.5601H0.963342ZM0.963342 84.1644V47.5601H-0.963342V84.1644H0.963342ZM0.233369 83.201H0V85.1277H0.233369V83.201ZM0.963342 86.5312C0.963342 85.7848 1.0373 85.0566 1.178 84.3533L-0.711257 83.9754C-0.876707 84.8025 -0.963342 85.6572 -0.963342 86.5312H0.963342ZM0.963342 679.998V86.5312H-0.963342V679.998H0.963342ZM12 691.035C5.90462 691.035 0.963342 686.094 0.963342 679.998H-0.963342C-0.963342 687.158 4.84055 692.962 12 692.962V691.035ZM883 691.035H12V692.962H883V691.035ZM894.037 679.998C894.037 686.094 889.095 691.035 883 691.035V692.962C890.159 692.962 895.963 687.158 895.963 679.998H894.037ZM894.037 86.5312V679.998H895.963V86.5312H894.037ZM883 75.4946C889.095 75.4946 894.037 80.4359 894.037 86.5312H895.963C895.963 79.3718 890.159 73.5679 883 73.5679V75.4946ZM96.2366 75.4946H883V73.5679H96.2366V75.4946ZM95.2732 47.5601V74.5312H97.1999V47.5601H95.2732ZM84.6765 36.9633C90.5289 36.9633 95.2732 41.7077 95.2732 47.5601H97.1999C97.1999 40.6436 91.593 35.0367 84.6765 35.0367V36.9633ZM11.5601 36.9633H84.6765V35.0367H11.5601V36.9633Z" fill="#EFEFF1" mask="url(#path-8-inside-1_4748_15827)"/>
<path d="M30.2 54.1776C30.2 55.6527 31.2141 57.1015 33.1107 57.6941L32.36 58.84C31.01 58.3988 30.0288 57.5098 29.4888 56.3771C28.9488 57.6085 27.9412 58.5898 26.5254 59.0771L25.7746 57.9181C27.6844 57.2859 28.7117 55.7449 28.7249 54.1776V53.8351H26.1566V52.6629H32.7024V53.8351H30.2V54.1776ZM35.6 51.7673V60.4073H34.1249V51.7673H35.6ZM35.9292 62.238V63.4234H27.7239V59.6171H29.199V62.238H35.9292ZM48.2175 61.0658V62.2776H37.3385V61.0658H40.2229V59.1034H38.6292V55.2181H45.478V53.7561H38.6029V52.5708H46.9268V56.3903H40.0912V57.9181H47.2033V59.1034H45.4648V61.0658H48.2175ZM41.6453 61.0658H44.0292V59.1034H41.6453V61.0658ZM55.198 52.742C55.198 54.2434 56.8706 55.7581 59.4126 56.0873L58.8331 57.2727C56.8114 56.9698 55.2045 55.9754 54.4341 54.6254C53.6504 55.9754 52.0502 56.9698 50.0482 57.2727L49.4687 56.0873C51.9843 55.7581 53.657 54.2434 53.657 52.742V52.1361H55.198V52.742ZM59.8472 58.3V59.5117H55.1189V63.6605H53.6702V59.5117H48.9946V58.3H59.8472ZM70.5682 51.7542V58.142H69.093V51.7542H70.5682ZM64.1409 58.6951V59.92H69.1062V58.6951H70.5682V63.5156H62.6921V58.6951H64.1409ZM64.1409 62.3302H69.1062V61.0658H64.1409V62.3302ZM64.075 52.281C65.9057 52.2678 67.2755 53.4137 67.2755 55.0732C67.2755 56.6932 65.9057 57.839 64.075 57.839C62.2311 57.839 60.8614 56.6932 60.8614 55.0732C60.8614 53.4137 62.2311 52.2678 64.075 52.281ZM64.075 53.5059C63.0345 53.5059 62.2838 54.1117 62.297 55.0732C62.2838 56.0215 63.0345 56.6273 64.075 56.6405C65.1023 56.6273 65.8399 56.0215 65.8399 55.0732C65.8399 54.1117 65.1023 53.5059 64.075 53.5059Z" fill="#333333"/>
<g clip-path="url(#clip1_4748_15827)">
<g clip-path="url(#clip2_4748_15827)">
<rect x="9.625" y="84.1641" width="876.641" height="425.797" rx="11.5601" fill="white"/>
<path d="M443.129 126.551L443.129 509.961" stroke="#EFEFF1" stroke-width="1.44501" stroke-linecap="round"/>
<path d="M482.039 142.108V143.188C482.039 144.308 482.039 145.532 481.736 147.205H483.317V148.562H478.641V153.408H476.955V148.562H472.385V147.205H480.037C480.34 145.658 480.366 144.485 480.366 143.451H473.636V142.108H482.039ZM488.572 143.043C488.559 144.65 489.388 146.125 491.311 146.718L490.429 148.035C489.138 147.587 488.262 146.757 487.768 145.677C487.228 146.928 486.26 147.916 484.818 148.404L483.936 147.06C485.99 146.402 486.859 144.795 486.873 143.122V142.029H488.572V143.043ZM494.143 141.41V148.43H492.47V144.979H490.218V143.609H492.47V141.41H494.143ZM490.047 148.746C492.602 148.746 494.169 149.602 494.182 151.077C494.169 152.552 492.602 153.395 490.047 153.395C487.492 153.395 485.924 152.552 485.924 151.077C485.924 149.602 487.492 148.746 490.047 148.746ZM490.047 150.05C488.453 150.05 487.597 150.392 487.597 151.077C487.597 151.736 488.453 152.091 490.047 152.091C491.64 152.091 492.51 151.736 492.51 151.077C492.51 150.392 491.64 150.05 490.047 150.05ZM505.733 141.41V153.422H504.034V141.41H505.733ZM497.976 142.358V145.282H500.557V142.358H502.217V150.616H496.29V142.358H497.976ZM497.976 149.26H500.557V146.586H497.976V149.26ZM512.819 141.515C515.572 141.515 517.165 142.24 517.178 143.57C517.165 144.887 515.572 145.611 512.819 145.611C510.053 145.611 508.446 144.887 508.446 143.57C508.446 142.24 510.053 141.515 512.819 141.515ZM512.819 142.753C511.054 142.753 510.198 143.017 510.211 143.57C510.198 144.149 511.054 144.387 512.819 144.387C514.597 144.387 515.44 144.149 515.44 143.57C515.44 143.017 514.597 142.753 512.819 142.753ZM518.285 146.112V147.429H515.545V148.272H516.955V151.327H510.277V152.052H517.271V153.316H508.631V150.155H515.295V149.497H508.617V148.272H510.106V147.429H507.353V146.112H518.285ZM511.765 148.272H513.873V147.429H511.765V148.272Z" fill="black"/>
<rect x="472.511" y="168.372" width="394.007" height="230.239" rx="18.7852" fill="#FAFBFB"/>
<rect x="472.511" y="168.372" width="394.007" height="230.239" rx="18.7852" stroke="#EFEFF1" stroke-width="0.963342"/>
<path d="M503.978 307.345C498.334 307.307 492.99 303.958 492.99 293.986C492.99 284.804 497.393 279.348 504.204 279.348C509.698 279.348 513.424 282.81 513.988 287.288H508.419C507.967 285.369 506.387 284.202 504.204 284.202C500.516 284.202 498.56 287.551 498.522 292.895H498.785C500.027 290.487 502.737 289.057 505.747 289.057C510.639 289.057 514.289 292.744 514.289 297.862C514.289 303.394 510.112 307.383 503.978 307.345ZM503.941 302.867C506.725 302.867 508.795 300.76 508.795 298.013C508.795 295.303 506.801 293.158 504.016 293.158C501.231 293.158 499.124 295.341 499.086 298.013C499.124 300.684 501.156 302.867 503.941 302.867ZM528.212 307.345C522.53 307.345 518.391 303.996 518.278 299.292H523.772C523.885 301.437 525.842 302.867 528.212 302.867C531.035 302.867 533.029 300.873 533.029 298.05C533.029 295.153 530.997 293.158 528.137 293.121C526.105 293.121 524.675 293.873 523.847 295.416H518.73L520.197 279.724H536.98V284.353H524.863L524.111 291.239H524.336C525.353 289.884 527.385 288.944 529.793 288.944C534.798 288.944 538.523 292.669 538.523 297.9C538.523 303.394 534.346 307.345 528.212 307.345ZM549.511 293.346C545.447 293.346 543.227 290.374 543.227 286.084C543.227 281.756 545.522 278.783 549.511 278.783C553.613 278.783 555.758 281.756 555.796 286.084C555.758 290.411 553.538 293.346 549.511 293.346ZM549.511 289.997C551.129 289.997 551.92 288.417 551.957 286.084C551.92 283.751 551.205 282.133 549.511 282.133C547.893 282.133 547.065 283.788 547.065 286.084C547.065 288.417 547.931 289.997 549.511 289.997ZM567.875 307.872C563.849 307.872 561.628 304.899 561.628 300.609C561.628 296.282 563.924 293.309 567.875 293.309C571.977 293.309 574.159 296.282 574.197 300.609C574.159 304.937 571.939 307.872 567.875 307.872ZM567.875 304.523C569.531 304.523 570.321 302.98 570.359 300.609C570.321 298.276 569.606 296.658 567.875 296.696C566.295 296.696 565.467 298.314 565.467 300.609C565.467 302.98 566.332 304.523 567.875 304.523ZM547.141 306.969L565.881 279.724H570.095L551.355 306.969H547.141Z" fill="#31A9FF"/>
<path d="M472.029 418.359H867" stroke="#EFEFF1" stroke-width="0.963342" stroke-linecap="round"/>
<path d="M476.891 443.306C479.044 443.291 480.624 444.66 480.639 446.587C480.624 448.529 479.044 449.884 476.891 449.884C474.754 449.884 473.158 448.529 473.158 446.587C473.158 444.66 474.754 443.291 476.891 443.306ZM476.891 444.751C475.702 444.751 474.814 445.458 474.814 446.587C474.814 447.731 475.702 448.423 476.891 448.423C478.095 448.423 478.998 447.731 478.998 446.587C478.998 445.458 478.095 444.751 476.891 444.751ZM483.815 442.357V455.98H482.144V442.357H483.815ZM472.541 451.765C474.995 451.765 478.396 451.735 481.332 451.314L481.467 452.533C478.411 453.12 475.145 453.135 472.752 453.135L472.541 451.765ZM498.235 452.999V454.384H485.802V452.999H489.099V450.757H487.277V446.316H495.104V444.645H487.247V443.291H496.76V447.656H488.948V449.402H497.076V450.757H495.089V452.999H498.235ZM490.724 452.999H493.449V450.757H490.724V452.999ZM511.556 452.954V454.324H499.123V452.954H504.482V450.305H500.493V443.261H502.164V445.488H508.471V443.261H510.142V450.305H506.138V452.954H511.556ZM502.164 448.95H508.471V446.828H502.164V448.95ZM523.839 442.357V450.591H522.168V447.776H520.227V446.391H522.168V442.357H523.839ZM523.839 451.208V455.799H514.793V451.208H523.839ZM516.463 452.533V454.444H522.198V452.533H516.463ZM520.452 443.622V444.977H512.475V443.622H515.636V442.252H517.291V443.622H520.452ZM516.463 445.503C518.36 445.503 519.685 446.512 519.7 447.942C519.685 449.417 518.36 450.38 516.463 450.38C514.582 450.38 513.242 449.417 513.242 447.942C513.242 446.512 514.582 445.503 516.463 445.503ZM516.463 446.768C515.485 446.768 514.838 447.219 514.838 447.942C514.838 448.694 515.485 449.131 516.463 449.131C517.442 449.131 518.089 448.694 518.089 447.942C518.089 447.219 517.442 446.768 516.463 446.768Z" fill="#555555"/>
<path d="M483.8 474.064V487.687H482.114V474.064H483.8ZM474.874 475.178V478.58H478.171V475.178H479.826V484.481H473.203V475.178H474.874ZM474.874 483.111H478.171V479.89H474.874V483.111ZM498.235 484.661V486.031H485.802V484.661H491.161V482.012H487.172V474.968H488.843V477.195H495.15V474.968H496.82V482.012H492.816V484.661H498.235ZM488.843 480.657H495.15V478.535H488.843V480.657ZM510.518 474.064V482.298H508.847V479.483H506.905V478.098H508.847V474.064H510.518ZM510.518 482.915V487.506H501.471V482.915H510.518ZM503.142 484.24V486.151H508.877V484.24H503.142ZM507.131 475.329V476.684H499.153V475.329H502.314V473.959H503.97V475.329H507.131ZM503.142 477.21C505.039 477.21 506.363 478.219 506.378 479.649C506.363 481.124 505.039 482.087 503.142 482.087C501.261 482.087 499.921 481.124 499.921 479.649C499.921 478.219 501.261 477.21 503.142 477.21ZM503.142 478.475C502.164 478.475 501.517 478.926 501.517 479.649C501.517 480.401 502.164 480.838 503.142 480.838C504.121 480.838 504.768 480.401 504.768 479.649C504.768 478.926 504.121 478.475 503.142 478.475Z" fill="#555555"/>
<path d="M29.768 141.423V148.364H28.0822V147.982H25.909V146.968H28.0822V141.423H29.768ZM19.6134 145.638C21.9315 145.651 24.8027 145.625 27.371 145.388L27.45 146.428C26.3897 146.573 25.3032 146.665 24.2363 146.718V148.39H22.5768V146.784C21.5956 146.81 20.6539 146.81 19.7846 146.797L19.6134 145.638ZM29.768 148.72V151.525H23.0246V152.144H30.0446V153.316H21.3783V150.445H28.0953V149.852H21.3256V148.72H29.768ZM23.4724 141.581C25.2505 141.581 26.4754 142.306 26.4885 143.386C26.4754 144.505 25.2505 145.177 23.4724 145.177C21.6417 145.177 20.43 144.505 20.43 143.386C20.43 142.306 21.6417 141.581 23.4724 141.581ZM23.4724 142.688C22.5637 142.674 22.0105 142.951 22.0237 143.386C22.0105 143.833 22.5637 144.084 23.4724 144.084C24.3549 144.084 24.9212 143.833 24.9212 143.386C24.9212 142.951 24.3549 142.674 23.4724 142.688ZM40.7787 141.41V144.768H42.3987V146.151H40.7787V149.997H39.0797V141.41H40.7787ZM37.5124 142.306C37.5124 145.546 35.4841 147.811 31.8885 148.825L31.1905 147.495C33.8707 146.744 35.3919 145.355 35.6685 143.675H31.7173V142.306H37.5124ZM41.187 151.841V153.185H32.9817V149.115H34.6807V151.841H41.187ZM56.9655 148.588V149.958H52.3162V153.408H50.6567V149.958H46.0338V148.588H56.9655ZM55.9645 142.793V144.11H52.3689C52.5599 145.164 53.9099 146.349 56.386 146.626L55.7801 147.943C53.7519 147.712 52.2833 146.882 51.4997 145.783C50.7226 146.896 49.2409 147.712 47.1929 147.943L46.587 146.626C49.0631 146.349 50.4263 145.17 50.6304 144.11H47.0216V142.793H50.6567V141.423H52.3162V142.793H55.9645ZM67.726 141.41V153.422H66.0269V141.41H67.726ZM61.2196 142.253C63.024 142.253 64.3674 143.912 64.3674 146.52C64.3674 149.154 63.024 150.801 61.2196 150.801C59.3757 150.801 58.0323 149.154 58.0455 146.52C58.0323 143.912 59.3757 142.253 61.2196 142.253ZM61.2196 143.768C60.2845 143.768 59.6655 144.742 59.6655 146.52C59.6655 148.311 60.2845 149.273 61.2196 149.273C62.1284 149.273 62.7474 148.311 62.7474 146.52C62.7474 144.742 62.1284 143.768 61.2196 143.768Z" fill="black"/>
<path d="M227.721 148.183C227.721 146.587 226.427 145.293 224.831 145.293C223.235 145.293 221.941 146.587 221.941 148.183C221.941 149.779 223.235 151.073 224.831 151.073C226.427 151.073 227.721 149.779 227.721 148.183Z" fill="#ADB0B7"/>
<path d="M242.979 142.265V153.248H241.817V142.265H242.979ZM235.678 143.182V145.995H238.625V143.182H239.775V150.618H234.516V143.182H235.678ZM235.678 149.664H238.625V146.912H235.678V149.664ZM254.757 150.899V151.866H244.728V150.899H249.143V148.649H245.878V143.011H247.04V144.895H252.421V143.011H253.57V148.649H250.293V150.899H254.757ZM247.04 147.707H252.421V145.836H247.04V147.707ZM264.687 142.265V148.906H263.525V146.521H261.813V145.555H263.525V142.265H264.687ZM264.687 149.444V153.089H257.459V149.444H264.687ZM258.609 150.361V152.147H263.55V150.361H258.609ZM261.984 143.354V144.283H255.564V143.354H258.205V142.167H259.355V143.354H261.984ZM258.78 144.784C260.285 144.784 261.349 145.592 261.349 146.741C261.349 147.928 260.285 148.698 258.78 148.71C257.276 148.698 256.2 147.928 256.2 146.741C256.2 145.592 257.276 144.784 258.78 144.784ZM258.78 145.677C257.9 145.665 257.313 146.093 257.313 146.741C257.313 147.414 257.9 147.83 258.78 147.83C259.649 147.83 260.236 147.414 260.236 146.741C260.236 146.093 259.649 145.665 258.78 145.677Z" fill="#555555"/>
<path d="M295.401 148.183C295.401 146.587 294.107 145.293 292.511 145.293C290.915 145.293 289.621 146.587 289.621 148.183C289.621 149.779 290.915 151.073 292.511 151.073C294.107 151.073 295.401 149.779 295.401 148.183Z" fill="#39CEB4"/>
<path d="M305.156 143.048C306.893 143.036 308.128 144.112 308.14 145.653C308.128 147.194 306.893 148.27 305.156 148.27C303.431 148.27 302.16 147.194 302.172 145.653C302.16 144.112 303.431 143.036 305.156 143.048ZM305.156 144.051C304.092 144.051 303.309 144.687 303.321 145.653C303.309 146.619 304.092 147.255 305.156 147.255C306.22 147.255 307.003 146.619 307.003 145.653C307.003 144.687 306.22 144.051 305.156 144.051ZM310.647 142.265V153.248H309.485V142.265H310.647ZM301.646 149.921C303.639 149.921 306.403 149.897 308.8 149.554L308.886 150.398C306.403 150.875 303.749 150.887 301.793 150.887L301.646 149.921ZM322.437 150.936V151.915H312.408V150.936H315.148V149.004H313.631V145.518H320.064V143.99H313.607V143.036H321.214V146.46H314.781V148.05H321.471V149.004H319.807V150.936H322.437ZM316.273 150.936H318.67V149.004H316.273V150.936ZM325.653 148.515V149.884H330.827V148.515H331.964V153.089H324.504V148.515H325.653ZM325.653 152.135H330.827V150.789H325.653V152.135ZM331.988 142.742V143.574C331.988 144.411 331.988 145.353 331.707 146.68H333.26V147.622H323.232V146.68H330.57C330.827 145.42 330.839 144.497 330.839 143.696H324.491V142.742H331.988ZM337.027 143.085C338.024 143.085 338.849 143.659 339.339 144.65H342.041V142.265H343.191V153.248H342.041V149.041H339.412C338.941 150.141 338.079 150.777 337.027 150.777C335.388 150.777 334.239 149.285 334.251 146.925C334.239 144.577 335.388 143.085 337.027 143.085ZM337.027 144.124C336.036 144.124 335.352 145.2 335.352 146.925C335.352 148.661 336.036 149.738 337.027 149.738C338.018 149.738 338.703 148.661 338.703 146.925C338.703 145.2 338.018 144.124 337.027 144.124ZM339.669 145.604C339.748 146.007 339.803 146.448 339.803 146.925C339.803 147.341 339.767 147.726 339.693 148.087H342.041V145.604H339.669Z" fill="#555555"/>
<path d="M374.082 148.183C374.082 146.587 372.788 145.293 371.192 145.293C369.596 145.293 368.302 146.587 368.302 148.183C368.302 149.779 369.596 151.073 371.192 151.073C372.788 151.073 374.082 149.779 374.082 148.183Z" fill="#FFBF43"/>
<path d="M390.294 150.887V151.853H380.265V150.887H382.662V148.025C381.764 147.53 381.219 146.741 381.219 145.763C381.219 144.038 382.907 142.901 385.255 142.901C387.616 142.901 389.303 144.038 389.303 145.763C389.303 146.729 388.777 147.506 387.897 148.001V150.887H390.294ZM385.255 143.831C383.531 143.831 382.344 144.577 382.344 145.763C382.344 146.937 383.531 147.707 385.255 147.707C386.967 147.707 388.178 146.937 388.178 145.763C388.178 144.577 386.967 143.831 385.255 143.831ZM383.812 150.887H386.723V148.441C386.276 148.557 385.781 148.612 385.255 148.612C384.742 148.612 384.252 148.557 383.812 148.453V150.887ZM401.252 143.818V144.772H399.699V146.166H401.252V147.133H399.699V148.735H398.537V142.265H399.699V143.818H401.252ZM394.171 142.901C395.846 142.901 397.082 143.965 397.094 145.506C397.082 147.035 395.846 148.099 394.171 148.111C392.495 148.099 391.248 147.035 391.26 145.506C391.248 143.965 392.495 142.901 394.171 142.901ZM394.171 143.879C393.144 143.879 392.385 144.54 392.397 145.506C392.385 146.484 393.144 147.12 394.171 147.133C395.198 147.12 395.956 146.484 395.956 145.506C395.956 144.54 395.198 143.879 394.171 143.879ZM396.164 149.028C398.402 149.028 399.797 149.799 399.797 151.12C399.797 152.428 398.402 153.211 396.164 153.199C393.902 153.211 392.483 152.428 392.483 151.12C392.483 149.799 393.902 149.028 396.164 149.028ZM396.164 149.97C394.574 149.97 393.633 150.386 393.645 151.12C393.633 151.866 394.574 152.269 396.164 152.269C397.742 152.269 398.659 151.866 398.659 151.12C398.659 150.386 397.742 149.97 396.164 149.97ZM404.334 148.515V149.884H409.507V148.515H410.645V153.089H403.184V148.515H404.334ZM404.334 152.135H409.507V150.789H404.334V152.135ZM410.669 142.742V143.574C410.669 144.411 410.669 145.353 410.388 146.68H411.941V147.622H401.912V146.68H409.25C409.507 145.42 409.519 144.497 409.519 143.696H403.172V142.742H410.669ZM415.708 143.085C416.704 143.085 417.53 143.659 418.019 144.65H420.722V142.265H421.872V153.248H420.722V149.041H418.093C417.622 150.141 416.76 150.777 415.708 150.777C414.069 150.777 412.919 149.285 412.932 146.925C412.919 144.577 414.069 143.085 415.708 143.085ZM415.708 144.124C414.717 144.124 414.032 145.2 414.032 146.925C414.032 148.661 414.717 149.738 415.708 149.738C416.698 149.738 417.383 148.661 417.383 146.925C417.383 145.2 416.698 144.124 415.708 144.124ZM418.349 145.604C418.429 146.007 418.484 146.448 418.484 146.925C418.484 147.341 418.447 147.726 418.374 148.087H420.722V145.604H418.349Z" fill="#555555"/>
<rect x="19.2578" y="167.891" width="394.97" height="231.202" rx="11.5601" fill="white"/>
<path d="M66.3992 393.818C64.6606 393.818 63.6465 392.421 63.6465 389.969C63.6465 387.537 64.6813 386.119 66.3992 386.119C68.117 386.119 69.1518 387.537 69.1518 389.969C69.1518 392.421 68.1273 393.818 66.3992 393.818ZM66.3992 392.835C67.4133 392.835 68.0135 391.842 68.0135 389.969C68.0135 388.106 67.403 387.082 66.3992 387.082C65.3954 387.082 64.7848 388.106 64.7848 389.969C64.7848 391.842 65.385 392.835 66.3992 392.835ZM73.1774 386.223V393.715H72.0287V387.361H71.9873L70.197 388.53V387.444L72.0597 386.223H73.1774Z" fill="#A8A8A8"/>
<path d="M92.5967 393.818C90.8581 393.818 89.844 392.421 89.844 389.969C89.844 387.537 90.8788 386.119 92.5967 386.119C94.3145 386.119 95.3493 387.537 95.3493 389.969C95.3493 392.421 94.3248 393.818 92.5967 393.818ZM92.5967 392.835C93.6108 392.835 94.211 391.842 94.211 389.969C94.211 388.106 93.6005 387.082 92.5967 387.082C91.5929 387.082 90.9823 388.106 90.9823 389.969C90.9823 391.842 91.5825 392.835 92.5967 392.835ZM96.5291 393.715V392.887L99.1265 390.269C99.944 389.41 100.358 388.934 100.358 388.282C100.358 387.547 99.7578 387.071 98.9713 387.071C98.1434 387.071 97.6053 387.599 97.6053 388.396H96.5291C96.5187 387.03 97.5639 386.119 98.992 386.119C100.441 386.119 101.434 387.03 101.445 388.251C101.434 389.089 101.041 389.751 99.6336 391.138L98.1124 392.68V392.742H101.569V393.715H96.5291Z" fill="#A8A8A8"/>
<path d="M119.415 393.818C117.677 393.818 116.662 392.421 116.662 389.969C116.662 387.537 117.697 386.119 119.415 386.119C121.133 386.119 122.168 387.537 122.168 389.969C122.168 392.421 121.143 393.818 119.415 393.818ZM119.415 392.835C120.429 392.835 121.029 391.842 121.029 389.969C121.029 388.106 120.419 387.082 119.415 387.082C118.411 387.082 117.801 388.106 117.801 389.969C117.801 391.842 118.401 392.835 119.415 392.835ZM126.007 393.818C124.455 393.818 123.347 392.98 123.306 391.759H124.465C124.506 392.421 125.158 392.835 125.997 392.835C126.897 392.835 127.559 392.339 127.559 391.614C127.559 390.879 126.938 390.341 125.872 390.341H125.231V389.41H125.872C126.721 389.41 127.321 388.934 127.321 388.22C127.321 387.537 126.814 387.071 126.017 387.071C125.262 387.071 124.6 387.485 124.569 388.168H123.472C123.503 386.947 124.631 386.119 126.028 386.119C127.497 386.119 128.429 387.05 128.418 388.158C128.429 389.006 127.901 389.627 127.094 389.824V389.876C128.118 390.02 128.708 390.703 128.708 391.656C128.708 392.908 127.559 393.818 126.007 393.818Z" fill="#A8A8A8"/>
<path d="M146.332 393.818C144.593 393.818 143.579 392.421 143.579 389.969C143.579 387.537 144.614 386.119 146.332 386.119C148.05 386.119 149.084 387.537 149.084 389.969C149.084 392.421 148.06 393.818 146.332 393.818ZM146.332 392.835C147.346 392.835 147.946 391.842 147.946 389.969C147.946 388.106 147.336 387.082 146.332 387.082C145.328 387.082 144.717 388.106 144.717 389.969C144.717 391.842 145.318 392.835 146.332 392.835ZM150.099 392.256V391.335L153.41 386.223H154.817V391.293H155.842V392.256H154.817V393.715H153.741V392.256H150.099ZM151.299 391.293H153.741V387.578H153.658L151.299 391.231V391.293Z" fill="#A8A8A8"/>
<path d="M173.455 393.818C171.716 393.818 170.702 392.421 170.702 389.969C170.702 387.537 171.737 386.119 173.455 386.119C175.173 386.119 176.208 387.537 176.208 389.969C176.208 392.421 175.183 393.818 173.455 393.818ZM173.455 392.835C174.469 392.835 175.069 391.842 175.069 389.969C175.069 388.106 174.459 387.082 173.455 387.082C172.451 387.082 171.841 388.106 171.841 389.969C171.841 391.842 172.441 392.835 173.455 392.835ZM179.933 393.818C178.515 393.818 177.449 392.949 177.398 391.759H178.505C178.567 392.401 179.178 392.866 179.933 392.866C180.844 392.866 181.496 392.204 181.496 391.314C181.496 390.403 180.823 389.741 179.881 389.731C179.281 389.731 178.826 389.927 178.567 390.393H177.491L177.977 386.223H182.22V387.195H178.919L178.671 389.296H178.743C179.053 388.996 179.581 388.789 180.15 388.789C181.558 388.789 182.603 389.834 182.603 391.283C182.603 392.763 181.496 393.818 179.933 393.818Z" fill="#A8A8A8"/>
<path d="M200.341 393.818C198.602 393.818 197.588 392.421 197.588 389.969C197.588 387.537 198.623 386.119 200.341 386.119C202.058 386.119 203.093 387.537 203.093 389.969C203.093 392.421 202.069 393.818 200.341 393.818ZM200.341 392.835C201.355 392.835 201.955 391.842 201.955 389.969C201.955 388.106 201.344 387.082 200.341 387.082C199.337 387.082 198.726 388.106 198.726 389.969C198.726 391.842 199.327 392.835 200.341 392.835ZM206.984 393.818C205.598 393.808 204.149 392.99 204.149 390.217C204.149 387.609 205.277 386.119 207.077 386.119C208.454 386.119 209.416 386.978 209.592 388.168H208.464C208.319 387.558 207.833 387.113 207.077 387.113C205.918 387.113 205.246 388.127 205.246 389.813H205.329C205.732 389.182 206.436 388.799 207.253 388.799C208.588 388.799 209.665 389.824 209.665 391.262C209.665 392.711 208.599 393.829 206.984 393.818ZM206.974 392.866C207.885 392.866 208.557 392.163 208.557 391.283C208.557 390.424 207.905 389.731 207.005 389.731C206.084 389.731 205.391 390.455 205.38 391.293C205.391 392.121 206.053 392.866 206.974 392.866Z" fill="black"/>
<path d="M227.754 393.818C226.016 393.818 225.001 392.421 225.001 389.969C225.001 387.537 226.036 386.119 227.754 386.119C229.472 386.119 230.507 387.537 230.507 389.969C230.507 392.421 229.482 393.818 227.754 393.818ZM227.754 392.835C228.768 392.835 229.368 391.842 229.368 389.969C229.368 388.106 228.758 387.082 227.754 387.082C226.75 387.082 226.14 388.106 226.14 389.969C226.14 391.842 226.74 392.835 227.754 392.835ZM231.738 393.715L235.081 387.257V387.195H231.221V386.223H236.26V387.237L232.928 393.715H231.738Z" fill="#A8A8A8"/>
<path d="M254.314 393.818C252.575 393.818 251.561 392.421 251.561 389.969C251.561 387.537 252.596 386.119 254.314 386.119C256.032 386.119 257.066 387.537 257.066 389.969C257.066 392.421 256.042 393.818 254.314 393.818ZM254.314 392.835C255.328 392.835 255.928 391.842 255.928 389.969C255.928 388.106 255.318 387.082 254.314 387.082C253.31 387.082 252.699 388.106 252.699 389.969C252.699 391.842 253.3 392.835 254.314 392.835ZM260.864 393.818C259.24 393.818 258.101 392.939 258.112 391.718C258.101 390.755 258.795 389.969 259.674 389.834V389.793C258.908 389.617 258.391 388.934 258.391 388.116C258.391 386.968 259.436 386.119 260.864 386.119C262.282 386.119 263.317 386.968 263.327 388.116C263.317 388.934 262.799 389.617 262.044 389.793V389.834C262.913 389.969 263.607 390.755 263.617 391.718C263.607 392.939 262.468 393.818 260.864 393.818ZM260.864 392.877C261.837 392.877 262.458 392.37 262.458 391.635C262.458 390.859 261.785 390.3 260.864 390.3C259.933 390.3 259.25 390.859 259.271 391.635C259.25 392.37 259.871 392.877 260.864 392.877ZM260.864 389.4C261.651 389.4 262.21 388.924 262.21 388.22C262.21 387.526 261.661 387.05 260.864 387.05C260.036 387.05 259.498 387.516 259.498 388.22C259.498 388.924 260.068 389.4 260.864 389.4Z" fill="#A8A8A8"/>
<path d="M281.262 393.818C279.523 393.818 278.509 392.421 278.509 389.969C278.509 387.537 279.544 386.119 281.262 386.119C282.979 386.119 284.014 387.537 284.014 389.969C284.014 392.421 282.99 393.818 281.262 393.818ZM281.262 392.835C282.276 392.835 282.876 391.842 282.876 389.969C282.876 388.106 282.265 387.082 281.262 387.082C280.258 387.082 279.647 388.106 279.647 389.969C279.647 391.842 280.247 392.835 281.262 392.835ZM287.771 386.119C289.147 386.129 290.596 386.957 290.596 389.7C290.596 392.328 289.468 393.818 287.667 393.818C286.291 393.818 285.318 392.97 285.142 391.749H286.27C286.425 392.38 286.912 392.825 287.667 392.825C288.826 392.825 289.499 391.811 289.509 390.103H289.416C289.013 390.735 288.309 391.117 287.502 391.117C286.156 391.117 285.08 390.093 285.08 388.654C285.08 387.226 286.146 386.109 287.771 386.119ZM287.771 387.071C286.86 387.071 286.187 387.775 286.187 388.634C286.187 389.503 286.839 390.186 287.75 390.186C288.65 390.186 289.354 389.451 289.354 388.623C289.354 387.816 288.692 387.071 287.771 387.071Z" fill="#A8A8A8"/>
<path d="M309.399 386.223V393.715H308.251V387.361H308.209L306.419 388.53V387.444L308.282 386.223H309.399ZM313.911 393.818C312.173 393.818 311.159 392.421 311.159 389.969C311.159 387.537 312.193 386.119 313.911 386.119C315.629 386.119 316.664 387.537 316.664 389.969C316.664 392.421 315.639 393.818 313.911 393.818ZM313.911 392.835C314.925 392.835 315.526 391.842 315.526 389.969C315.526 388.106 314.915 387.082 313.911 387.082C312.907 387.082 312.297 388.106 312.297 389.969C312.297 391.842 312.897 392.835 313.911 392.835Z" fill="#A8A8A8"/>
<path d="M337.268 386.223V393.715H336.119V387.361H336.078L334.288 388.53V387.444L336.151 386.223H337.268ZM342.018 386.223V393.715H340.869V387.361H340.828L339.038 388.53V387.444L340.9 386.223H342.018Z" fill="#A8A8A8"/>
<path d="M363.466 386.223V393.715H362.317V387.361H362.276L360.485 388.53V387.444L362.348 386.223H363.466ZM365.37 393.715V392.887L367.967 390.269C368.785 389.41 369.199 388.934 369.199 388.282C369.199 387.547 368.598 387.071 367.812 387.071C366.984 387.071 366.446 387.599 366.446 388.396H365.37C365.359 387.03 366.405 386.119 367.833 386.119C369.281 386.119 370.275 387.03 370.285 388.251C370.275 389.089 369.882 389.751 368.474 391.138L366.953 392.68V392.742H370.409V393.715H365.37Z" fill="#A8A8A8"/>
<mask id="path-40-inside-2_4748_15827" fill="white">
<path d="M40.4517 188.117H67.4252V380.786H40.4517V188.117Z"/>
</mask>
<path d="M41.415 380.786V188.117H39.4883V380.786H41.415Z" fill="#EEEEEE" mask="url(#path-40-inside-2_4748_15827)"/>
<mask id="path-42-inside-3_4748_15827" fill="white">
<path d="M67.4253 188.117H94.3989V380.786H67.4253V188.117Z"/>
</mask>
<path d="M68.3886 380.786V188.117H66.462V380.786H68.3886Z" fill="#EEEEEE" mask="url(#path-42-inside-3_4748_15827)"/>
<mask id="path-44-inside-4_4748_15827" fill="white">
<path d="M94.3989 188.117H121.373V380.786H94.3989V188.117Z"/>
</mask>
<path d="M95.3623 380.786V188.117H93.4356V380.786H95.3623Z" fill="#EEEEEE" mask="url(#path-44-inside-4_4748_15827)"/>
<mask id="path-46-inside-5_4748_15827" fill="white">
<path d="M121.373 188.117H148.346V380.786H121.373V188.117Z"/>
</mask>
<path d="M122.336 380.786V188.117H120.409V380.786H122.336Z" fill="#EEEEEE" mask="url(#path-46-inside-5_4748_15827)"/>
<mask id="path-48-inside-6_4748_15827" fill="white">
<path d="M148.346 188.117H175.32V380.786H148.346V188.117Z"/>
</mask>
<path d="M149.31 380.786V188.117H147.383V380.786H149.31Z" fill="#EEEEEE" mask="url(#path-48-inside-6_4748_15827)"/>
<mask id="path-50-inside-7_4748_15827" fill="white">
<path d="M175.319 188.117H202.293V380.786H175.319V188.117Z"/>
</mask>
<path d="M176.283 380.786V188.117H174.356V380.786H176.283Z" fill="#EEEEEE" mask="url(#path-50-inside-7_4748_15827)"/>
<mask id="path-52-inside-8_4748_15827" fill="white">
<path d="M202.293 188.117H229.267V380.786H202.293V188.117Z"/>
</mask>
<path d="M203.256 380.786V188.117H201.33V380.786H203.256Z" fill="#EEEEEE" mask="url(#path-52-inside-8_4748_15827)"/>
<mask id="path-54-inside-9_4748_15827" fill="white">
<path d="M229.267 188.117H256.24V380.786H229.267V188.117Z"/>
</mask>
<path d="M230.23 380.786V188.117H228.303V380.786H230.23Z" fill="#EEEEEE" mask="url(#path-54-inside-9_4748_15827)"/>
<mask id="path-56-inside-10_4748_15827" fill="white">
<path d="M256.24 188.117H283.214V380.786H256.24V188.117Z"/>
</mask>
<path d="M257.204 380.786V188.117H255.277V380.786H257.204Z" fill="#EEEEEE" mask="url(#path-56-inside-10_4748_15827)"/>
<mask id="path-58-inside-11_4748_15827" fill="white">
<path d="M283.214 188.117H310.187V380.786H283.214V188.117Z"/>
</mask>
<path d="M284.177 380.786V188.117H282.251V380.786H284.177Z" fill="#EEEEEE" mask="url(#path-58-inside-11_4748_15827)"/>
<mask id="path-60-inside-12_4748_15827" fill="white">
<path d="M310.188 188.117H337.161V380.786H310.188V188.117Z"/>
</mask>
<path d="M311.151 380.786V188.117H309.224V380.786H311.151Z" fill="#EEEEEE" mask="url(#path-60-inside-12_4748_15827)"/>
<mask id="path-62-inside-13_4748_15827" fill="white">
<path d="M337.161 188.117H364.135V380.786H337.161V188.117Z"/>
</mask>
<path d="M338.124 380.786V188.117H336.198V380.786H338.124Z" fill="#EEEEEE" mask="url(#path-62-inside-13_4748_15827)"/>
<mask id="path-64-inside-14_4748_15827" fill="white">
<path d="M364.135 188.117H391.108V380.786H364.135V188.117Z"/>
</mask>
<path d="M365.098 380.786V188.117H363.171V380.786H365.098Z" fill="#EEEEEE" mask="url(#path-64-inside-14_4748_15827)"/>
<mask id="path-66-inside-15_4748_15827" fill="white">
<path d="M391.108 188.117H392.071V380.786H391.108V188.117Z"/>
</mask>
<path d="M392.071 380.786V188.117H390.145V380.786H392.071Z" fill="#EEEEEE" mask="url(#path-66-inside-15_4748_15827)"/>
<path d="M40.4517 188.117H392.072" stroke="#EEEEEE" stroke-width="0.963342"/>
<path d="M40.4517 226.652H392.072" stroke="#EEEEEE" stroke-width="0.963342"/>
<path d="M40.4517 265.184H392.072" stroke="#EEEEEE" stroke-width="0.963342"/>
<path d="M40.4517 303.719H392.072" stroke="#EEEEEE" stroke-width="0.963342"/>
<path d="M40.4517 342.25H392.072" stroke="#EEEEEE" stroke-width="0.963342"/>
<path d="M40.4517 380.785H392.072" stroke="#EEEEEE" stroke-width="0.963342"/>
<path d="M87.4624 358.793H106.729V380.95H87.4624V358.793Z" fill="#ADB0B7"/>
<path d="M87.4624 312.555H106.729V358.795H87.4624V312.555Z" fill="#FFBF43"/>
<path d="M87.4624 275.947C87.4624 273.819 89.1876 272.094 91.3158 272.094H102.876C105.004 272.094 106.729 273.819 106.729 275.947V312.554H87.4624V275.947Z" fill="#00C7BE"/>
<path d="M113.859 352.059H133.126V380.959H113.859V352.059Z" fill="#ADB0B7"/>
<path d="M113.859 293.297H133.126V352.061H113.859V293.297Z" fill="#FFBF43"/>
<path d="M113.859 245.127C113.859 242.999 115.584 241.273 117.712 241.273H129.272C131.401 241.273 133.126 242.999 133.126 245.127V293.294H113.859V245.127Z" fill="#00C7BE"/>
<path d="M61.0684 374.117H80.3352V380.861H61.0684V374.117Z" fill="#ADB0B7"/>
<path d="M61.0684 359.668H80.3352V374.118H61.0684V359.668Z" fill="#FFBF43"/>
<path d="M61.0684 350.998C61.0684 348.87 62.7936 347.145 64.9217 347.145H76.4818C78.61 347.145 80.3352 348.87 80.3352 350.998V359.668H61.0684V350.998Z" fill="#00C7BE"/>
<path d="M141.988 356.391H161.255V381.438H141.988V356.391Z" fill="#ADB0B7"/>
<path d="M141.988 304.371H161.255V356.392H141.988V304.371Z" fill="#FFBF43"/>
<path d="M141.988 262.947C141.988 260.819 143.713 259.094 145.842 259.094H157.402C159.53 259.094 161.255 260.819 161.255 262.947V304.371H141.988V262.947Z" fill="#00C7BE"/>
<path d="M168.385 357.836H187.652V380.956H168.385V357.836Z" fill="#ADB0B7"/>
<path d="M168.385 309.668H187.652V357.835H168.385V309.668Z" fill="#FFBF43"/>
<path d="M168.385 272.099C168.385 269.971 170.11 268.246 172.238 268.246H183.798C185.926 268.246 187.652 269.971 187.652 272.099V309.67H168.385V272.099Z" fill="#00C7BE"/>
<path d="M222.909 365.059H242.176V381.435H222.909V365.059Z" fill="#ADB0B7"/>
<path d="M222.909 331.34H242.176V365.057H222.909V331.34Z" fill="#FFBF43"/>
<path d="M222.909 306.295C222.909 304.167 224.634 302.441 226.763 302.441H238.323C240.451 302.441 242.176 304.167 242.176 306.295V331.342H222.909V306.295Z" fill="#00C7BE"/>
<path d="M249.884 360.625H269.151V380.855H249.884V360.625Z" fill="#ADB0B7"/>
<path d="M249.884 319.203H269.151V360.627H249.884V319.203Z" fill="#FFBF43"/>
<path d="M249.884 287.412C249.884 285.284 251.609 283.559 253.737 283.559H265.297C267.425 283.559 269.151 285.284 269.151 287.412V319.202H249.884V287.412Z" fill="#00C7BE"/>
<path d="M276.856 370.266H296.123V380.862H276.856V370.266Z" fill="#ADB0B7"/>
<path d="M276.856 349.074H296.123V370.268H276.856V349.074Z" fill="#FFBF43"/>
<path d="M276.856 334.623C276.856 332.495 278.581 330.77 280.709 330.77H292.269C294.398 330.77 296.123 332.495 296.123 334.623V349.073H276.856V334.623Z" fill="#00C7BE"/>
<path d="M330.803 364.578H350.07V380.955H330.803V364.578Z" fill="#ADB0B7"/>
<path d="M330.803 330.859H350.07V364.576H330.803V330.859Z" fill="#FFBF43"/>
<path d="M330.803 305.814C330.803 303.686 332.528 301.961 334.656 301.961H346.216C348.344 301.961 350.07 303.686 350.07 305.814V330.861H330.803V305.814Z" fill="#00C7BE"/>
<path d="M356.814 356.391H376.081V381.438H356.814V356.391Z" fill="#ADB0B7"/>
<path d="M356.814 304.371H376.081V356.392H356.814V304.371Z" fill="#FFBF43"/>
<path d="M356.814 262.947C356.814 260.819 358.539 259.094 360.667 259.094H372.227C374.356 259.094 376.081 260.819 376.081 262.947V304.371H356.814V262.947Z" fill="#00C7BE"/>
<path d="M302.625 349.648H321.892V381.439H302.625V349.648Z" fill="#ADB0B7"/>
<path d="M302.625 284.141H321.892V349.648H302.625V284.141Z" fill="#FFBF43"/>
<path d="M302.625 231.158C302.625 229.03 304.35 227.305 306.478 227.305H318.038C320.167 227.305 321.892 229.03 321.892 231.158V284.142H302.625V231.158Z" fill="#00C7BE"/>
<path d="M204.606 379.822V189.081C204.606 188.548 204.175 188.117 203.643 188.117C203.111 188.117 202.68 188.549 202.68 189.081V379.822C202.68 380.354 203.111 380.786 203.643 380.786C204.175 380.786 204.606 380.354 204.606 379.822Z" fill="#959595"/>
<path d="M195.358 293.295C195.358 291.167 197.083 289.441 199.211 289.441H210.771C212.9 289.441 214.625 291.167 214.625 293.295V323.158H195.358V293.295Z" fill="#00C7BE"/>
<path d="M195.358 361.691H214.625V380.958H195.358V361.691Z" fill="#ADB0B7"/>
<path d="M195.358 323.16H214.625V361.694H195.358V323.16Z" fill="#FFBF43"/>
<g filter="url(#filter0_d_4748_15827)">
<path d="M204.605 295.706C208.329 295.706 211.349 292.686 211.349 288.962C211.349 285.238 208.329 282.219 204.605 282.219C200.881 282.219 197.862 285.238 197.862 288.962C197.862 292.686 200.881 295.706 204.605 295.706Z" fill="white"/>
<path d="M204.606 290.984C205.723 290.984 206.629 290.078 206.629 288.961C206.629 287.843 205.723 286.938 204.606 286.938C203.489 286.938 202.583 287.843 202.583 288.961C202.583 290.078 203.489 290.984 204.606 290.984Z" fill="#00C7BE"/>
</g>
<path d="M19.2578 418.359H423.861" stroke="#EFEFF1" stroke-width="0.963342" stroke-linecap="round"/>
<path d="M20.1609 454.625V453.21L24.0143 449.492C25.1131 448.393 25.6851 447.746 25.6851 446.828C25.6851 445.819 24.8873 445.172 23.8186 445.172C22.6897 445.172 21.9672 445.88 21.9823 446.978H20.1158C20.1007 444.916 21.6511 443.577 23.8337 443.577C26.0614 443.577 27.5666 444.901 27.5666 446.738C27.5666 447.972 26.9645 448.965 24.8271 450.982L22.8854 452.909V452.984H27.7322V454.625H20.1609ZM29.0117 452.593V451.028L33.723 443.727H36.1615V450.982H37.5914V452.593H36.1615V454.625H34.295V452.593H29.0117ZM31.0136 450.982H34.3251V445.955H34.2047L31.0136 450.907V450.982ZM50.0998 442.372V452.397H48.429V447.867H44.8767V446.542H48.429V445.308H44.8767V443.983H48.429V442.372H50.0998ZM50.446 454.339V455.694H41.1588V451.509H42.8446V454.339H50.446ZM41.1437 443.276V449.161C42.8747 449.138 44.5079 449.033 46.3368 448.709L46.5023 450.064C44.4101 450.456 42.5737 450.531 40.5567 450.546H39.488V443.276H41.1437ZM60.1547 454.776C57.5356 454.776 55.9702 452.743 55.9702 449.176C55.9702 445.624 57.5356 443.577 60.1547 443.577C62.7587 443.577 64.3392 445.624 64.3392 449.176C64.3392 452.743 62.7738 454.776 60.1547 454.776ZM60.1547 453.135C61.5244 453.135 62.3674 451.795 62.3674 449.176C62.3674 446.572 61.5094 445.202 60.1547 445.202C58.8 445.202 57.942 446.572 57.942 449.176C57.942 451.795 58.7849 453.135 60.1547 453.135ZM70.0591 454.776C67.9367 454.76 65.7993 453.496 65.8143 449.477C65.8143 445.744 67.5152 443.577 70.1795 443.577C72.2868 443.577 73.7318 444.901 73.9726 446.662H72.0309C71.8352 445.835 71.1729 445.278 70.1795 445.278C68.599 445.278 67.7109 446.677 67.7109 448.965H67.8163C68.3732 448.032 69.4269 447.475 70.616 447.475C72.5728 447.475 74.078 448.95 74.078 451.012C74.078 453.18 72.4674 454.791 70.0591 454.776ZM70.0591 453.195C71.2783 453.195 72.1814 452.247 72.1814 451.058C72.1814 449.899 71.2933 448.965 70.0892 448.965C68.8699 448.965 67.9367 449.929 67.9216 451.073C67.9367 452.217 68.8248 453.195 70.0591 453.195ZM86.6918 442.372V450.305H85.0059V449.748H82.4621V448.725H85.0059V442.372H86.6918ZM75.2671 447.28C77.9013 447.28 81.1826 447.249 84.1028 446.963L84.1931 448.017C82.9513 448.19 81.6718 448.296 80.415 448.348V450.32H78.7592V448.423C77.5927 448.454 76.4713 448.461 75.4477 448.454L75.2671 447.28ZM86.6918 450.726V453.782H78.9549V454.655H87.053V455.844H77.3142V452.683H85.036V451.87H77.254V450.726H86.6918ZM79.6624 442.583C81.6794 442.583 83.0642 443.396 83.0642 444.63C83.0642 445.895 81.6794 446.662 79.6624 446.662C77.6002 446.662 76.2305 445.895 76.2305 444.63C76.2305 443.396 77.6002 442.583 79.6624 442.583ZM79.6624 443.697C78.5184 443.697 77.8109 444.058 77.826 444.63C77.8109 445.202 78.5184 445.549 79.6624 445.549C80.7762 445.549 81.4987 445.202 81.4987 444.63C81.4987 444.058 80.7762 443.697 79.6624 443.697ZM97.424 445.127C97.424 446.813 98.583 448.469 100.751 449.146L99.8926 450.456C98.3497 449.951 97.2283 448.935 96.6112 447.641C95.994 449.048 94.8425 450.17 93.2244 450.726L92.3664 449.402C94.549 448.679 95.7231 446.918 95.7381 445.127V444.736H92.803V443.396H100.284V444.736H97.424V445.127ZM103.595 442.372V452.247H101.91V442.372H103.595ZM103.972 454.339V455.694H94.5942V451.344H96.28V454.339H103.972ZM118.015 452.999V454.384H105.582V452.999H108.879V450.757H107.057V446.316H114.885V444.645H107.027V443.291H116.54V447.656H108.728V449.402H116.856V450.757H114.87V452.999H118.015ZM110.504 452.999H113.229V450.757H110.504V452.999ZM125.993 443.486C125.993 445.202 127.905 446.933 130.81 447.31L130.148 448.664C127.837 448.318 126.001 447.182 125.12 445.639C124.224 447.182 122.396 448.318 120.108 448.664L119.445 447.31C122.32 446.933 124.232 445.202 124.232 443.486V442.794H125.993V443.486ZM131.307 449.838V451.223H125.903V455.965H124.247V451.223H118.904V449.838H131.307ZM143.559 442.357V449.658H141.873V442.357H143.559ZM136.214 450.29V451.69H141.888V450.29H143.559V455.799H134.558V450.29H136.214ZM136.214 454.444H141.888V452.999H136.214V454.444ZM136.138 442.96C138.231 442.944 139.796 444.254 139.796 446.151C139.796 448.002 138.231 449.312 136.138 449.312C134.031 449.312 132.466 448.002 132.466 446.151C132.466 444.254 134.031 442.944 136.138 442.96ZM136.138 444.359C134.949 444.359 134.091 445.052 134.106 446.151C134.091 447.234 134.949 447.927 136.138 447.942C137.312 447.927 138.155 447.234 138.155 446.151C138.155 445.052 137.312 444.359 136.138 444.359ZM159.936 442.357V445.714H161.832V447.099H159.936V450.305H158.265V442.357H159.936ZM152.801 450.847V452.021H158.265V450.847H159.936V455.799H151.145V450.847H152.801ZM152.801 454.474H158.265V453.315H152.801V454.474ZM157.287 443.622V444.961H149.219V443.622H152.425V442.252H154.096V443.622H157.287ZM153.253 445.428C155.225 445.428 156.564 446.376 156.579 447.821C156.564 449.266 155.225 450.215 153.253 450.215C151.266 450.215 149.911 449.266 149.911 447.821C149.911 446.376 151.266 445.428 153.253 445.428ZM153.253 446.662C152.214 446.662 151.537 447.099 151.537 447.821C151.537 448.559 152.214 448.98 153.253 448.98C154.291 448.98 154.984 448.559 154.984 447.821C154.984 447.099 154.291 446.662 153.253 446.662ZM174.266 442.357V455.965H172.67V442.357H174.266ZM171.451 442.689V455.317H169.855V450.772H167.733V449.402H169.855V447.385H167.974C167.334 449.643 165.912 451.584 163.368 453.09L162.389 451.901C165.212 450.237 166.506 448.107 166.755 445.368H163.112V444.013H168.41C168.41 444.698 168.365 445.368 168.275 446.015H169.855V442.689H171.451Z" fill="#555555"/>
<path d="M312.204 454.625V453.21L316.058 449.492C317.156 448.393 317.728 447.746 317.728 446.828C317.728 445.819 316.931 445.172 315.862 445.172C314.733 445.172 314.01 445.88 314.026 446.978H312.159C312.144 444.916 313.694 443.577 315.877 443.577C318.105 443.577 319.61 444.901 319.61 446.738C319.61 447.972 319.008 448.965 316.87 450.982L314.929 452.909V452.984H319.775V454.625H312.204ZM325.571 454.776C323.448 454.76 321.311 453.496 321.326 449.477C321.326 445.744 323.027 443.577 325.691 443.577C327.798 443.577 329.243 444.901 329.484 446.662H327.542C327.347 445.835 326.684 445.278 325.691 445.278C324.111 445.278 323.222 446.677 323.222 448.965H323.328C323.885 448.032 324.938 447.475 326.128 447.475C328.084 447.475 329.59 448.95 329.59 451.012C329.59 453.18 327.979 454.791 325.571 454.776ZM325.571 453.195C326.79 453.195 327.693 452.247 327.693 451.058C327.693 449.899 326.805 448.965 325.601 448.965C324.381 448.965 323.448 449.929 323.433 451.073C323.448 452.217 324.336 453.195 325.571 453.195ZM332.976 453.556L331.712 457.771H330.282L331.065 453.556H332.976ZM338.636 454.776C336.017 454.776 334.451 452.743 334.451 449.176C334.451 445.624 336.017 443.577 338.636 443.577C341.24 443.577 342.82 445.624 342.82 449.176C342.82 452.743 341.255 454.776 338.636 454.776ZM338.636 453.135C340.006 453.135 340.849 451.795 340.849 449.176C340.849 446.572 339.991 445.202 338.636 445.202C337.281 445.202 336.423 446.572 336.423 449.176C336.423 451.795 337.266 453.135 338.636 453.135ZM344.566 454.625L349.293 445.443V445.368H343.814V443.727H351.325V445.398L346.599 454.625H344.566ZM351.837 452.593V451.028L356.548 443.727H358.987V450.982H360.416V452.593H358.987V454.625H357.12V452.593H351.837ZM353.839 450.982H357.15V445.955H357.03L353.839 450.907V450.982ZM363.863 453.556L362.599 457.771H361.169L361.952 453.556H363.863ZM369.493 454.776C367.07 454.776 365.354 453.481 365.354 451.705C365.354 450.32 366.377 449.191 367.687 448.98V448.92C366.543 448.679 365.76 447.686 365.76 446.497C365.76 444.811 367.34 443.577 369.493 443.577C371.63 443.577 373.211 444.811 373.211 446.497C373.211 447.686 372.413 448.679 371.284 448.92V448.98C372.594 449.191 373.632 450.32 373.632 451.705C373.632 453.481 371.901 454.776 369.493 454.776ZM369.493 453.225C370.772 453.225 371.615 452.533 371.615 451.524C371.615 450.501 370.712 449.748 369.493 449.748C368.259 449.748 367.356 450.501 367.371 451.524C367.356 452.533 368.198 453.225 369.493 453.225ZM369.493 448.288C370.547 448.288 371.299 447.626 371.299 446.677C371.299 445.759 370.562 445.112 369.493 445.112C368.409 445.112 367.672 445.744 367.672 446.677C367.672 447.626 368.424 448.288 369.493 448.288ZM379.683 443.727V454.625H377.711V445.639H377.651L375.107 447.264V445.473L377.802 443.727H379.683ZM386.351 454.776C383.732 454.776 382.167 452.743 382.167 449.176C382.167 445.624 383.732 443.577 386.351 443.577C388.955 443.577 390.536 445.624 390.536 449.176C390.536 452.743 388.971 454.776 386.351 454.776ZM386.351 453.135C387.721 453.135 388.564 451.795 388.564 449.176C388.564 446.572 387.706 445.202 386.351 445.202C384.997 445.202 384.139 446.572 384.139 449.176C384.139 451.795 384.982 453.135 386.351 453.135ZM403.135 442.372V452.668H401.449V451.479H398.785V450.305H401.449V442.372H403.135ZM403.451 454.339V455.694H393.471V451.675H395.142V454.339H403.451ZM391.665 448.484C394.179 448.469 397.55 448.439 400.44 448.077L400.531 449.281C399.409 449.47 398.25 449.598 397.099 449.673V452.292H395.428V449.763C394.156 449.816 392.944 449.823 391.876 449.823L391.665 448.484ZM396.105 442.869C398.092 442.869 399.477 443.848 399.492 445.278C399.477 446.738 398.092 447.671 396.105 447.671C394.088 447.671 392.703 446.738 392.703 445.278C392.703 443.848 394.088 442.869 396.105 442.869ZM396.105 444.103C395.022 444.103 394.284 444.54 394.284 445.278C394.284 446.015 395.022 446.452 396.105 446.452C397.144 446.452 397.881 446.015 397.896 445.278C397.881 444.54 397.144 444.103 396.105 444.103Z" fill="black"/>
<path d="M20.1609 486.332V484.917L24.0143 481.199C25.1131 480.1 25.6851 479.453 25.6851 478.535C25.6851 477.526 24.8873 476.879 23.8186 476.879C22.6897 476.879 21.9672 477.587 21.9823 478.686H20.1158C20.1007 476.623 21.6511 475.284 23.8337 475.284C26.0614 475.284 27.5666 476.608 27.5666 478.445C27.5666 479.679 26.9645 480.672 24.8271 482.689L22.8854 484.616V484.691H27.7322V486.332H20.1609ZM33.4069 486.483C31.0738 486.483 29.4181 485.218 29.3729 483.382H31.3447C31.405 484.255 32.278 484.827 33.4069 484.827C34.6111 484.827 35.4691 484.165 35.4691 483.201C35.4691 482.223 34.6261 481.515 33.2112 481.515H32.2328V480.01H33.2112C34.3702 480.01 35.1831 479.363 35.168 478.415C35.1831 477.496 34.4907 476.879 33.422 476.879C32.3984 476.879 31.5103 477.451 31.4802 478.369H29.5987C29.6438 476.533 31.2996 475.284 33.437 475.284C35.6497 475.284 37.0796 476.638 37.0646 478.309C37.0796 479.528 36.2668 480.417 35.0777 480.657V480.748C36.613 480.958 37.4861 481.937 37.471 483.307C37.4861 485.143 35.7701 486.483 33.4069 486.483ZM50.1299 474.08V484.104H48.4591V479.574H44.9068V478.249H48.4591V477.015H44.9068V475.69H48.4591V474.08H50.1299ZM50.4761 486.046V487.401H41.1889V483.216H42.8747V486.046H50.4761ZM41.1738 474.983V480.868C42.9049 480.845 44.538 480.74 46.3669 480.417L46.5324 481.771C44.4402 482.163 42.6038 482.238 40.5868 482.253H39.5181V474.983H41.1738ZM60.1848 486.483C57.5657 486.483 56.0003 484.451 56.0003 480.883C56.0003 477.331 57.5657 475.284 60.1848 475.284C62.7888 475.284 64.3693 477.331 64.3693 480.883C64.3693 484.451 62.8039 486.483 60.1848 486.483ZM60.1848 484.842C61.5545 484.842 62.3975 483.502 62.3975 480.883C62.3975 478.279 61.5395 476.909 60.1848 476.909C58.8301 476.909 57.9721 478.279 57.9721 480.883C57.9721 483.502 58.815 484.842 60.1848 484.842ZM70.0892 486.483C67.9668 486.468 65.8294 485.203 65.8444 481.184C65.8444 477.451 67.5453 475.284 70.2096 475.284C72.3169 475.284 73.7619 476.608 74.0027 478.369H72.061C71.8653 477.542 71.203 476.985 70.2096 476.985C68.6291 476.985 67.741 478.384 67.741 480.672H67.8464C68.4033 479.739 69.457 479.182 70.6461 479.182C72.6029 479.182 74.1081 480.657 74.1081 482.719C74.1081 484.887 72.4975 486.498 70.0892 486.483ZM70.0892 484.902C71.3084 484.902 72.2115 483.954 72.2115 482.765C72.2115 481.606 71.3234 480.672 70.1193 480.672C68.9 480.672 67.9668 481.636 67.9517 482.78C67.9668 483.924 68.8549 484.902 70.0892 484.902ZM86.7219 474.08V482.012H85.036V481.455H82.4922V480.432H85.036V474.08H86.7219ZM75.2972 478.987C77.9314 478.987 81.2128 478.956 84.1329 478.67L84.2232 479.724C82.9814 479.897 81.7019 480.003 80.4451 480.055V482.027H78.7893V480.131C77.6228 480.161 76.5014 480.168 75.4779 480.161L75.2972 478.987ZM86.7219 482.434V485.489H78.985V486.362H87.0831V487.551H77.3443V484.39H85.0661V483.577H77.2841V482.434H86.7219ZM79.6925 474.29C81.7095 474.29 83.0943 475.103 83.0943 476.337C83.0943 477.602 81.7095 478.369 79.6925 478.369C77.6303 478.369 76.2606 477.602 76.2606 476.337C76.2606 475.103 77.6303 474.29 79.6925 474.29ZM79.6925 475.404C78.5485 475.404 77.8411 475.765 77.8561 476.337C77.8411 476.909 78.5485 477.256 79.6925 477.256C80.8063 477.256 81.5288 476.909 81.5288 476.337C81.5288 475.765 80.8063 475.404 79.6925 475.404ZM97.4541 476.834C97.4541 478.52 98.6131 480.176 100.781 480.853L99.9227 482.163C98.3798 481.658 97.2584 480.642 96.6413 479.348C96.0241 480.755 94.8726 481.877 93.2545 482.434L92.3965 481.109C94.5791 480.386 95.7532 478.625 95.7682 476.834V476.443H92.8331V475.103H100.314V476.443H97.4541V476.834ZM103.626 474.08V483.954H101.94V474.08H103.626ZM104.002 486.046V487.401H94.6243V483.051H96.3101V486.046H104.002ZM118.046 484.706V486.091H105.612V484.706H108.909V482.464H107.088V478.023H114.915V476.352H107.057V474.998H116.57V479.363H108.758V481.109H116.887V482.464H114.9V484.706H118.046ZM110.534 484.706H113.259V482.464H110.534V484.706ZM126.023 475.193C126.023 476.909 127.935 478.64 130.84 479.017L130.178 480.371C127.867 480.025 126.031 478.889 125.15 477.346C124.255 478.889 122.426 480.025 120.138 480.371L119.475 479.017C122.35 478.64 124.262 476.909 124.262 475.193V474.501H126.023V475.193ZM131.337 481.545V482.93H125.933V487.672H124.277V482.93H118.934V481.545H131.337ZM143.589 474.064V481.365H141.903V474.064H143.589ZM136.244 481.997V483.397H141.918V481.997H143.589V487.506H134.588V481.997H136.244ZM136.244 486.151H141.918V484.706H136.244V486.151ZM136.168 474.667C138.261 474.652 139.826 475.961 139.826 477.858C139.826 479.709 138.261 481.019 136.168 481.019C134.061 481.019 132.496 479.709 132.496 477.858C132.496 475.961 134.061 474.652 136.168 474.667ZM136.168 476.066C134.979 476.066 134.121 476.759 134.136 477.858C134.121 478.941 134.979 479.634 136.168 479.649C137.342 479.634 138.185 478.941 138.185 477.858C138.185 476.759 137.342 476.066 136.168 476.066ZM159.966 474.064V477.421H161.863V478.806H159.966V482.012H158.295V474.064H159.966ZM152.831 482.554V483.728H158.295V482.554H159.966V487.506H151.175V482.554H152.831ZM152.831 486.182H158.295V485.022H152.831V486.182ZM157.317 475.329V476.669H149.249V475.329H152.455V473.959H154.126V475.329H157.317ZM153.283 477.135C155.255 477.135 156.594 478.083 156.609 479.528C156.594 480.973 155.255 481.922 153.283 481.922C151.296 481.922 149.941 480.973 149.941 479.528C149.941 478.083 151.296 477.135 153.283 477.135ZM153.283 478.369C152.244 478.369 151.567 478.806 151.567 479.528C151.567 480.266 152.244 480.687 153.283 480.687C154.321 480.687 155.014 480.266 155.014 479.528C155.014 478.806 154.321 478.369 153.283 478.369ZM174.296 474.064V487.672H172.7V474.064H174.296ZM171.481 474.396V487.024H169.885V482.479H167.763V481.109H169.885V479.092H168.004C167.364 481.35 165.942 483.291 163.398 484.797L162.419 483.608C165.242 481.944 166.536 479.814 166.785 477.075H163.142V475.72H168.44C168.44 476.405 168.395 477.075 168.305 477.722H169.885V474.396H171.481Z" fill="#555555"/>
<path d="M324.246 486.483C321.823 486.483 320.107 485.188 320.107 483.412C320.107 482.027 321.13 480.898 322.44 480.687V480.627C321.296 480.386 320.513 479.393 320.513 478.204C320.513 476.518 322.094 475.284 324.246 475.284C326.383 475.284 327.964 476.518 327.964 478.204C327.964 479.393 327.166 480.386 326.037 480.627V480.687C327.347 480.898 328.385 482.027 328.385 483.412C328.385 485.188 326.654 486.483 324.246 486.483ZM324.246 484.932C325.525 484.932 326.368 484.24 326.368 483.231C326.368 482.208 325.465 481.455 324.246 481.455C323.012 481.455 322.109 482.208 322.124 483.231C322.109 484.24 322.951 484.932 324.246 484.932ZM324.246 479.995C325.3 479.995 326.052 479.333 326.052 478.384C326.052 477.466 325.315 476.819 324.246 476.819C323.162 476.819 322.425 477.451 322.425 478.384C322.425 479.333 323.177 479.995 324.246 479.995ZM331.877 485.263L330.613 489.478H329.183L329.966 485.263H331.877ZM337.642 475.284C339.78 475.299 341.887 476.563 341.902 480.552C341.902 484.315 340.201 486.483 337.522 486.483C335.415 486.483 333.97 485.173 333.729 483.367H335.671C335.866 484.225 336.529 484.782 337.522 484.782C339.103 484.782 339.991 483.382 340.006 481.049H339.885C339.328 481.997 338.29 482.554 337.086 482.554C335.144 482.554 333.639 481.079 333.624 479.017C333.624 476.879 335.219 475.269 337.642 475.284ZM337.658 476.864C336.438 476.864 335.52 477.812 335.535 478.971C335.535 480.146 336.408 481.064 337.627 481.064C338.832 481.064 339.78 480.085 339.765 478.956C339.765 477.843 338.877 476.864 337.658 476.864ZM343.633 486.332L348.36 477.15V477.075H342.881V475.434H350.392V477.105L345.665 486.332H343.633ZM352.68 486.332L357.406 477.15V477.075H351.927V475.434H359.438V477.105L354.712 486.332H352.68ZM361.335 485.263L360.07 489.478H358.64L359.423 485.263H361.335ZM367.054 486.483C364.932 486.468 362.795 485.203 362.81 481.184C362.81 477.451 364.511 475.284 367.175 475.284C369.282 475.284 370.727 476.608 370.968 478.369H369.026C368.831 477.542 368.168 476.985 367.175 476.985C365.594 476.985 364.706 478.384 364.706 480.672H364.812C365.369 479.739 366.422 479.182 367.611 479.182C369.568 479.182 371.073 480.657 371.073 482.719C371.073 484.887 369.463 486.498 367.054 486.483ZM367.054 484.902C368.274 484.902 369.177 483.954 369.177 482.765C369.177 481.606 368.289 480.672 367.085 480.672C365.865 480.672 364.932 481.636 364.917 482.78C364.932 483.924 365.82 484.902 367.054 484.902ZM376.688 486.483C374.265 486.483 372.549 485.188 372.549 483.412C372.549 482.027 373.572 480.898 374.882 480.687V480.627C373.738 480.386 372.955 479.393 372.955 478.204C372.955 476.518 374.535 475.284 376.688 475.284C378.825 475.284 380.406 476.518 380.406 478.204C380.406 479.393 379.608 480.386 378.479 480.627V480.687C379.789 480.898 380.827 482.027 380.827 483.412C380.827 485.188 379.096 486.483 376.688 486.483ZM376.688 484.932C377.967 484.932 378.81 484.24 378.81 483.231C378.81 482.208 377.907 481.455 376.688 481.455C375.454 481.455 374.55 482.208 374.566 483.231C374.55 484.24 375.393 484.932 376.688 484.932ZM376.688 479.995C377.742 479.995 378.494 479.333 378.494 478.384C378.494 477.466 377.757 476.819 376.688 476.819C375.604 476.819 374.867 477.451 374.867 478.384C374.867 479.333 375.619 479.995 376.688 479.995ZM386.412 486.483C383.988 486.483 382.272 485.188 382.272 483.412C382.272 482.027 383.296 480.898 384.605 480.687V480.627C383.461 480.386 382.679 479.393 382.679 478.204C382.679 476.518 384.259 475.284 386.412 475.284C388.549 475.284 390.13 476.518 390.13 478.204C390.13 479.393 389.332 480.386 388.203 480.627V480.687C389.512 480.898 390.551 482.027 390.551 483.412C390.551 485.188 388.82 486.483 386.412 486.483ZM386.412 484.932C387.691 484.932 388.534 484.24 388.534 483.231C388.534 482.208 387.631 481.455 386.412 481.455C385.177 481.455 384.274 482.208 384.289 483.231C384.274 484.24 385.117 484.932 386.412 484.932ZM386.412 479.995C387.465 479.995 388.218 479.333 388.218 478.384C388.218 477.466 387.48 476.819 386.412 476.819C385.328 476.819 384.59 477.451 384.59 478.384C384.59 479.333 385.343 479.995 386.412 479.995ZM403.135 474.08V484.375H401.449V483.186H398.785V482.012H401.449V474.08H403.135ZM403.451 486.046V487.401H393.471V483.382H395.142V486.046H403.451ZM391.665 480.191C394.179 480.176 397.55 480.146 400.44 479.784L400.531 480.988C399.409 481.177 398.25 481.305 397.099 481.38V483.999H395.428V481.47C394.156 481.523 392.944 481.53 391.876 481.53L391.665 480.191ZM396.105 474.576C398.092 474.576 399.477 475.555 399.492 476.985C399.477 478.445 398.092 479.378 396.105 479.378C394.088 479.378 392.703 478.445 392.703 476.985C392.703 475.555 394.088 474.576 396.105 474.576ZM396.105 475.811C395.022 475.811 394.284 476.247 394.284 476.985C394.284 477.722 395.022 478.159 396.105 478.159C397.144 478.159 397.881 477.722 397.896 476.985C397.881 476.247 397.144 475.811 396.105 475.811Z" fill="black"/>
<g clip-path="url(#clip3_4748_15827)">
<path d="M9.625 95.7242C9.625 89.3397 14.8006 84.1641 21.1851 84.1641H874.706C881.091 84.1641 886.266 89.3397 886.266 95.7242V126.551H9.625V95.7242Z" fill="white"/>
<path d="M25.5741 101.112C25.5741 103.008 26.878 104.871 29.3165 105.633L28.3512 107.106C26.6155 106.539 25.354 105.396 24.6597 103.94C23.9654 105.523 22.67 106.784 20.8496 107.411L19.8844 105.921C22.3398 105.108 23.6606 103.127 23.6775 101.112V100.671H20.3754V99.1643H28.7915V100.671H25.5741V101.112ZM32.5169 98.0128V109.121H30.6204V98.0128H32.5169ZM32.9403 111.475V112.999H22.3906V108.105H24.2871V111.475H32.9403ZM48.7395 109.968V111.526H34.7522V109.968H38.4607V107.445H36.4117V102.449H45.2172V100.57H36.3778V99.0458H47.08V103.957H38.2913V105.921H47.4356V107.445H45.2003V109.968H48.7395ZM40.2895 109.968H43.3545V107.445H40.2895V109.968ZM57.7144 99.2659C57.7144 101.196 59.8649 103.144 63.1332 103.567L62.3881 105.091C59.7887 104.702 57.7228 103.423 56.7322 101.687C55.7246 103.423 53.6672 104.702 51.0933 105.091L50.3482 103.567C53.5825 103.144 55.7331 101.196 55.7331 99.2659V98.4869H57.7144V99.2659ZM63.692 106.412V107.97H57.6128V113.304H55.75V107.97H49.7386V106.412H63.692ZM77.476 97.9959V106.209H75.5795V97.9959H77.476ZM69.2124 106.92V108.495H75.5964V106.92H77.476V113.118H67.3497V106.92H69.2124ZM69.2124 111.594H75.5964V109.968H69.2124V111.594ZM69.1277 98.6732C71.4815 98.6563 73.2426 100.13 73.2426 102.263C73.2426 104.346 71.4815 105.819 69.1277 105.819C66.757 105.819 64.9959 104.346 64.9959 102.263C64.9959 100.13 66.757 98.6563 69.1277 98.6732ZM69.1277 100.248C67.7899 100.248 66.8247 101.027 66.8416 102.263C66.8247 103.482 67.7899 104.261 69.1277 104.278C70.4485 104.261 71.3968 103.482 71.3968 102.263C71.3968 101.027 70.4485 100.248 69.1277 100.248ZM97.7965 105.921V107.428H91.8867V110.07H90.0239V107.428H83.8093V105.921H97.7965ZM96.2556 111.475V112.999H85.5026V108.783H87.3653V111.475H96.2556ZM87.5008 98.4869V100.214H94.105V98.4869H95.9677V104.719H85.6381V98.4869H87.5008ZM87.5008 103.228H94.105V101.62H87.5008V103.228ZM104.367 100.417C104.367 102.382 105.603 104.261 107.957 105.023L106.941 106.53C105.281 105.946 104.096 104.786 103.452 103.313C102.767 104.922 101.522 106.183 99.7609 106.818L98.7448 105.311C101.234 104.481 102.47 102.483 102.47 100.299V98.7918H104.367V100.417ZM111.631 107.834V113.304H109.752V109.325H101.2V107.834H111.631ZM111.631 97.9959V107.089H109.752V102.517H106.704V100.976H109.752V97.9959H111.631ZM127.786 110.019V111.543H113.799V110.019H117.423V106.869H115.001V105.345H117.152V100.807H114.95V99.2998H126.567V100.807H124.332V105.345H126.516V106.869H124.095V110.019H127.786ZM119.031 105.345H122.469V100.807H119.031V105.345ZM119.302 110.019H122.215V106.869H119.302V110.019Z" fill="black"/>
</g>
<path d="M10.1067 95.7242C10.1067 89.6057 15.0667 84.6457 21.1851 84.6457H874.706C880.825 84.6457 885.785 89.6057 885.785 95.7242V126.069H10.1067V95.7242Z" stroke="#EFEFF1" stroke-width="0.963342"/>
</g>
<rect x="10.1067" y="84.6457" width="875.678" height="424.834" rx="11.0784" stroke="#EFEFF1" stroke-width="0.963342"/>
</g>
<path d="M266.104 100.681V101.946C266.104 103.473 266.104 105.133 265.669 107.648L264.392 107.53C264.866 105.172 264.866 103.434 264.866 101.946V101.708H257.912V100.681H266.104ZM267.513 108.57V109.611H256.753V108.57H267.513ZM273.229 100.721V104.988H269.989V107.477C271.273 107.471 272.485 107.411 273.901 107.187L274.006 108.188C272.36 108.478 271.056 108.518 269.581 108.531H268.778V103.961H272.018V101.748H268.764V100.721H273.229ZM278.537 99.4826V111.284H277.338V105.093H275.811V110.678H274.665V99.7197H275.811V104.079H277.338V99.4826H278.537ZM290.865 108.755V109.808H280.065V108.755H290.865ZM289.877 100.615V101.643H288.073V105.581H289.837V106.582H281.013V105.581H282.778V101.643H280.987V100.615H289.877ZM284.016 105.581H286.848V101.643H284.016V105.581ZM302.508 104.896V105.857H291.708V104.896H302.508ZM301.177 106.687V109.282H294.25V110.256H301.546V111.139H292.998V108.452H299.939V107.583H292.985V106.687H301.177ZM301.151 99.7856V102.341H294.329V103.236H301.349V104.119H293.091V101.511H299.9V100.668H293.064V99.7856H301.151ZM316.1 100.009V100.945C316.1 101.86 316.1 102.894 315.836 104.224H317.417V105.238H306.683V104.224H314.585C314.684 103.737 314.75 103.296 314.796 102.881L307.881 103.17L307.723 102.196L314.849 101.998C314.862 101.649 314.862 101.327 314.862 101.01H308.026V100.009H316.1ZM316.179 106.226V109.084H309.185V110.151H316.6V111.139H307.934V108.149H314.941V107.187H307.908V106.226H316.179ZM328.111 99.4958V106.7H326.86V99.4958H328.111ZM328.111 107.306V111.284H326.86V108.333H320.117V107.306H328.111ZM324.345 100.181V103.552H320.17V105.067C322.231 105.06 323.752 104.988 325.543 104.725L325.701 105.739C323.778 106.042 322.158 106.094 319.932 106.094H318.945V102.578H323.107V101.195H318.918V100.181H324.345ZM335.816 101.432V102.446H329.955V101.432H332.273V99.8251H333.511V101.432H335.816ZM332.892 103.157C334.394 103.157 335.448 104.277 335.461 105.87C335.448 107.477 334.394 108.61 332.892 108.61C331.417 108.61 330.324 107.477 330.337 105.87C330.324 104.277 331.417 103.157 332.892 103.157ZM332.892 104.198C332.036 104.198 331.444 104.896 331.444 105.87C331.444 106.871 332.036 107.543 332.892 107.543C333.735 107.543 334.354 106.871 334.354 105.87C334.354 104.896 333.735 104.198 332.892 104.198ZM340.084 99.4826V111.284H338.898V105.423H337.542V110.73H336.356V99.746H337.542V104.395H338.898V99.4826H340.084ZM354.216 99.4958V102.999H355.902V104.027H354.216V107.438H352.965V99.4958H354.216ZM344.851 106.121C345.767 106.121 346.827 106.121 347.933 106.081V105.291C346.59 105.153 345.734 104.52 345.747 103.566C345.734 102.486 346.853 101.814 348.552 101.827C350.238 101.814 351.358 102.486 351.358 103.566C351.358 104.514 350.515 105.146 349.185 105.291V106.042C350.238 105.989 351.305 105.903 352.293 105.765L352.398 106.661C349.856 107.108 347.064 107.122 344.983 107.122L344.851 106.121ZM354.216 107.991V111.284H352.965V108.966H346.327V107.991H354.216ZM351.964 100.497V101.432H345.154V100.497H347.933V99.3904H349.185V100.497H351.964ZM348.552 102.683C347.538 102.67 346.932 102.999 346.932 103.566C346.932 104.119 347.538 104.474 348.552 104.474C349.553 104.474 350.159 104.119 350.159 103.566C350.159 102.999 349.553 102.67 348.552 102.683ZM366.372 99.4958V108.07H365.121V99.4958H366.372ZM366.728 110.019V111.033H358.654V107.201H359.919V110.019H366.728ZM359.971 100.286C361.749 100.286 363.106 101.498 363.106 103.21C363.106 104.948 361.749 106.147 359.971 106.147C358.193 106.147 356.824 104.948 356.824 103.21C356.824 101.498 358.193 100.286 359.971 100.286ZM359.971 101.379C358.865 101.379 358.048 102.13 358.048 103.21C358.048 104.316 358.865 105.054 359.971 105.054C361.051 105.054 361.881 104.316 361.881 103.21C361.881 102.13 361.051 101.379 359.971 101.379ZM374.077 101.432V102.446H368.216V101.432H370.534V99.8251H371.772V101.432H374.077ZM371.153 103.157C372.655 103.157 373.708 104.277 373.722 105.87C373.708 107.477 372.655 108.61 371.153 108.61C369.678 108.61 368.585 107.477 368.598 105.87C368.585 104.277 369.678 103.157 371.153 103.157ZM371.153 104.198C370.297 104.198 369.705 104.896 369.705 105.87C369.705 106.871 370.297 107.543 371.153 107.543C371.996 107.543 372.615 106.871 372.615 105.87C372.615 104.896 371.996 104.198 371.153 104.198ZM378.344 99.4826V111.284H377.159V105.423H375.803V110.73H374.617V99.746H375.803V104.395H377.159V99.4826H378.344ZM390.699 108.781V109.822H379.899V108.781H384.653V106.358H381.137V100.286H382.388V102.314H388.183V100.286H389.421V106.358H385.891V108.781H390.699ZM382.388 105.344H388.183V103.328H382.388V105.344ZM395.15 102.709C395.15 104.593 395.941 106.608 397.521 107.569L396.823 108.531C395.717 107.866 394.966 106.687 394.571 105.317C394.13 106.819 393.32 108.096 392.174 108.794L391.397 107.859C393.069 106.858 393.939 104.777 393.939 102.762V100.563H395.15V102.709ZM401.709 99.4826V111.284H400.511V99.4826H401.709ZM399.26 99.7065V110.704H398.074V104.672H396.243V103.631H398.074V99.7065H399.26ZM414.011 108.768V109.808H403.211V108.768H405.792V105.686C404.824 105.153 404.238 104.303 404.238 103.249C404.238 101.392 406.056 100.168 408.584 100.168C411.126 100.168 412.944 101.392 412.944 103.249C412.944 104.29 412.378 105.126 411.429 105.66V108.768H414.011ZM408.584 101.168C406.727 101.168 405.45 101.972 405.45 103.249C405.45 104.514 406.727 105.344 408.584 105.344C410.428 105.344 411.732 104.514 411.732 103.249C411.732 101.972 410.428 101.168 408.584 101.168ZM407.03 108.768H410.165V106.134C409.684 106.259 409.151 106.318 408.584 106.318C408.031 106.318 407.504 106.259 407.03 106.147V108.768ZM416.21 110.256C415.697 110.256 415.262 109.835 415.275 109.321C415.262 108.807 415.697 108.386 416.21 108.386C416.711 108.386 417.145 108.807 417.145 109.321C417.145 109.835 416.711 110.256 416.21 110.256Z" fill="#8A8A8B"/>
<g filter="url(#filter1_d_4748_15827)">
<path d="M436.292 111.909C440.016 111.909 443.035 108.89 443.035 105.165C443.035 101.441 440.016 98.4219 436.292 98.4219C432.567 98.4219 429.548 101.441 429.548 105.165C429.548 108.89 432.567 111.909 436.292 111.909Z" fill="white"/>
<path d="M436.293 107.187C437.41 107.187 438.316 106.281 438.316 105.164C438.316 104.046 437.41 103.141 436.293 103.141C435.175 103.141 434.27 104.046 434.27 105.164C434.27 106.281 435.175 107.187 436.293 107.187Z" fill="#13D8AD"/>
</g>
<g filter="url(#filter2_d_4748_15827)">
<path fill-rule="evenodd" clip-rule="evenodd" d="M233.864 232.512C228.543 232.512 224.23 236.825 224.23 242.145V281.153L213.164 287.549C212.522 287.92 212.522 288.846 213.164 289.217L224.23 295.612V326.913C224.23 332.234 228.543 336.547 233.864 336.547H387.823C393.143 336.547 397.456 332.234 397.456 326.913V242.145C397.456 236.825 393.143 232.512 387.823 232.512H233.864Z" fill="white"/>
</g>
<path d="M251.02 290.995C252.6 290.995 253.718 291.955 253.718 293.354C253.718 294.754 252.6 295.714 251.02 295.714C249.439 295.714 248.299 294.754 248.31 293.354C248.299 291.955 249.439 290.995 251.02 290.995ZM251.02 291.774C249.947 291.774 249.168 292.417 249.18 293.354C249.168 294.291 249.947 294.935 251.02 294.935C252.081 294.935 252.849 294.291 252.849 293.354C252.849 292.417 252.081 291.774 251.02 291.774ZM255.964 290.261V300.32H255.084V290.261H255.964ZM247.791 297.351C249.642 297.351 252.194 297.339 254.418 297.012L254.485 297.667C252.194 298.096 249.721 298.107 247.915 298.107L247.791 297.351ZM266.684 298.31V299.055H257.494V298.31H260.079V296.402H258.646V293.309H264.652V291.74H258.623V291.006H265.521V294.043H259.526V295.669H265.758V296.402H264.189V298.31H266.684ZM260.949 298.31H263.319V296.402H260.949V298.31ZM269.331 296.007V297.339H274.355V296.007H275.235V300.162H268.451V296.007H269.331ZM269.331 299.439H274.355V298.039H269.331V299.439ZM275.235 290.724V291.458C275.235 292.225 275.235 293.117 274.964 294.37H276.443V295.104H267.254V294.37H274.095C274.355 293.123 274.355 292.225 274.355 291.458H268.417V290.724H275.235ZM279.712 291.04C280.632 291.046 281.377 291.582 281.812 292.508H284.453V290.261H285.334V300.32H284.453V296.425H281.879C281.456 297.441 280.683 298.028 279.712 298.028C278.233 298.028 277.194 296.673 277.194 294.54C277.194 292.406 278.233 291.051 279.712 291.04ZM279.712 291.83C278.718 291.842 278.041 292.903 278.041 294.54C278.041 296.177 278.718 297.238 279.712 297.238C280.694 297.238 281.383 296.177 281.383 294.54C281.383 292.903 280.694 291.842 279.712 291.83ZM282.071 293.253C282.162 293.642 282.218 294.071 282.218 294.54C282.218 294.952 282.173 295.341 282.105 295.691H284.453V293.253H282.071ZM290.505 298.299C290.11 298.299 289.771 297.972 289.782 297.565C289.771 297.17 290.11 296.843 290.505 296.843C290.9 296.843 291.227 297.17 291.227 297.565C291.227 297.972 290.9 298.299 290.505 298.299ZM290.505 293.761C290.11 293.761 289.771 293.433 289.782 293.027C289.771 292.632 290.11 292.305 290.505 292.305C290.9 292.305 291.227 292.632 291.227 293.027C291.227 293.433 290.9 293.761 290.505 293.761ZM294.976 297.712V296.877L298.656 291.209H299.909V296.82H301.049V297.712H299.909V299.383H298.938V297.712H294.976ZM296.071 296.82H298.938V292.496H298.837L296.071 296.752V296.82ZM304.837 299.496C303.019 299.496 301.981 297.972 301.981 295.296C301.981 292.643 303.042 291.097 304.837 291.097C306.632 291.097 307.693 292.643 307.693 295.296C307.693 297.972 306.643 299.496 304.837 299.496ZM304.837 298.593C306.011 298.593 306.7 297.407 306.7 295.296C306.7 293.185 306.011 291.977 304.837 291.977C303.663 291.977 302.963 293.185 302.963 295.296C302.963 297.407 303.652 298.593 304.837 298.593ZM311.492 299.496C309.675 299.496 308.636 297.972 308.636 295.296C308.636 292.643 309.697 291.097 311.492 291.097C313.287 291.097 314.348 292.643 314.348 295.296C314.348 297.972 313.298 299.496 311.492 299.496ZM311.492 298.593C312.666 298.593 313.355 297.407 313.355 295.296C313.355 293.185 312.666 291.977 311.492 291.977C310.318 291.977 309.618 293.185 309.618 295.296C309.618 297.407 310.307 298.593 311.492 298.593ZM316.465 298.626L315.585 301.697H314.749L315.37 298.626H316.465ZM320.309 299.496C318.492 299.496 317.453 297.972 317.453 295.296C317.453 292.643 318.514 291.097 320.309 291.097C322.104 291.097 323.166 292.643 323.166 295.296C323.166 297.972 322.116 299.496 320.309 299.496ZM320.309 298.593C321.483 298.593 322.172 297.407 322.172 295.296C322.172 293.185 321.483 291.977 320.309 291.977C319.135 291.977 318.435 293.185 318.435 295.296C318.435 297.407 319.124 298.593 320.309 298.593ZM326.965 299.496C325.147 299.496 324.108 297.972 324.108 295.296C324.108 292.643 325.17 291.097 326.965 291.097C328.76 291.097 329.821 292.643 329.821 295.296C329.821 297.972 328.771 299.496 326.965 299.496ZM326.965 298.593C328.139 298.593 328.827 297.407 328.827 295.296C328.827 293.185 328.139 291.977 326.965 291.977C325.791 291.977 325.091 293.185 325.091 295.296C325.091 297.407 325.779 298.593 326.965 298.593ZM333.62 299.496C331.802 299.496 330.764 297.972 330.764 295.296C330.764 292.643 331.825 291.097 333.62 291.097C335.415 291.097 336.476 292.643 336.476 295.296C336.476 297.972 335.426 299.496 333.62 299.496ZM333.62 298.593C334.794 298.593 335.483 297.407 335.483 295.296C335.483 293.185 334.794 291.977 333.62 291.977C332.446 291.977 331.746 293.185 331.746 295.296C331.746 297.407 332.434 298.593 333.62 298.593ZM345.513 290.272V297.893H344.621V296.854H342.544V296.211H344.621V290.272H345.513ZM345.762 299.338V300.083H338.627V297.148H339.519V299.338H345.762ZM337.182 294.924C339.056 294.912 341.562 294.901 343.718 294.63L343.775 295.274C342.877 295.415 341.94 295.505 341.02 295.556V297.543H340.128V295.601C339.112 295.646 338.147 295.652 337.306 295.646L337.182 294.924ZM340.478 290.679C341.946 290.679 342.951 291.379 342.962 292.429C342.951 293.501 341.946 294.167 340.478 294.167C338.999 294.167 337.995 293.501 337.995 292.429C337.995 291.379 338.999 290.679 340.478 290.679ZM340.478 291.356C339.496 291.345 338.83 291.785 338.841 292.429C338.83 293.083 339.496 293.512 340.478 293.512C341.426 293.512 342.104 293.083 342.115 292.429C342.104 291.785 341.426 291.345 340.478 291.356Z" fill="#707070"/>
<path d="M256.009 270.992V281.05H255.118V270.992H256.009ZM249.202 271.85V274.503H252.194V271.85H253.063V278.623H248.322V271.85H249.202ZM249.202 277.878H252.194V275.214H249.202V277.878ZM266.684 279.007V279.741H257.494V279.007H261.626V276.839H258.578V271.703H259.47V273.52H264.685V271.703H265.555V276.839H262.495V279.007H266.684ZM259.47 276.117H264.685V274.243H259.47V276.117ZM275.574 270.992V277.076H274.682V274.785H272.978V274.051H274.682V270.992H275.574ZM275.574 277.618V280.892H269.015V277.618H275.574ZM269.896 278.33V280.17H274.705V278.33H269.896ZM273.124 272.053V272.775H267.265V272.053H269.76V270.901H270.629V272.053H273.124ZM270.189 273.295C271.555 273.295 272.515 274.028 272.526 275.078C272.515 276.162 271.555 276.873 270.189 276.873C268.823 276.873 267.864 276.162 267.864 275.078C267.864 274.028 268.823 273.295 270.189 273.295ZM270.189 273.983C269.32 273.983 268.71 274.435 268.71 275.078C268.71 275.744 269.32 276.185 270.189 276.196C271.058 276.185 271.668 275.744 271.668 275.078C271.668 274.435 271.058 273.983 270.189 273.983ZM280.745 279.03C280.35 279.03 280.011 278.702 280.022 278.296C280.011 277.901 280.35 277.573 280.745 277.573C281.14 277.573 281.467 277.901 281.467 278.296C281.467 278.702 281.14 279.03 280.745 279.03ZM280.745 274.491C280.35 274.491 280.011 274.164 280.022 273.757C280.011 273.362 280.35 273.035 280.745 273.035C281.14 273.035 281.467 273.362 281.467 273.757C281.467 274.164 281.14 274.491 280.745 274.491ZM288.241 280.226C286.616 280.226 285.453 279.357 285.397 278.059H286.424C286.48 278.838 287.259 279.323 288.23 279.323C289.303 279.323 290.093 278.736 290.093 277.889C290.093 276.997 289.382 276.365 288.106 276.365H287.44V275.473H288.106C289.099 275.473 289.788 274.92 289.788 274.074C289.788 273.261 289.19 272.708 288.264 272.708C287.395 272.708 286.593 273.193 286.548 273.995H285.566C285.622 272.696 286.819 271.827 288.275 271.827C289.833 271.827 290.781 272.843 290.77 274.017C290.781 274.943 290.24 275.631 289.382 275.869V275.925C290.443 276.094 291.098 276.851 291.086 277.889C291.098 279.233 289.867 280.226 288.241 280.226ZM294.998 280.226C293.181 280.226 292.142 278.702 292.142 276.027C292.142 273.374 293.203 271.827 294.998 271.827C296.793 271.827 297.854 273.374 297.854 276.027C297.854 278.702 296.804 280.226 294.998 280.226ZM294.998 279.323C296.172 279.323 296.861 278.138 296.861 276.027C296.861 273.916 296.172 272.708 294.998 272.708C293.824 272.708 293.124 273.916 293.124 276.027C293.124 278.138 293.813 279.323 294.998 279.323ZM299.971 279.357L299.091 282.428H298.255L298.876 279.357H299.971ZM303.815 280.226C301.998 280.226 300.959 278.702 300.959 276.027C300.959 273.374 302.021 271.827 303.815 271.827C305.61 271.827 306.672 273.374 306.672 276.027C306.672 278.702 305.622 280.226 303.815 280.226ZM303.815 279.323C304.99 279.323 305.678 278.138 305.678 276.027C305.678 273.916 304.99 272.708 303.815 272.708C302.641 272.708 301.941 273.916 301.941 276.027C301.941 278.138 302.63 279.323 303.815 279.323ZM310.471 280.226C308.653 280.226 307.615 278.702 307.615 276.027C307.615 273.374 308.676 271.827 310.471 271.827C312.266 271.827 313.327 273.374 313.327 276.027C313.327 278.702 312.277 280.226 310.471 280.226ZM310.471 279.323C311.645 279.323 312.333 278.138 312.333 276.027C312.333 273.916 311.645 272.708 310.471 272.708C309.297 272.708 308.597 273.916 308.597 276.027C308.597 278.138 309.285 279.323 310.471 279.323ZM317.126 280.226C315.308 280.226 314.27 278.702 314.27 276.027C314.27 273.374 315.331 271.827 317.126 271.827C318.921 271.827 319.982 273.374 319.982 276.027C319.982 278.702 318.932 280.226 317.126 280.226ZM317.126 279.323C318.3 279.323 318.989 278.138 318.989 276.027C318.989 273.916 318.3 272.708 317.126 272.708C315.952 272.708 315.252 273.916 315.252 276.027C315.252 278.138 315.941 279.323 317.126 279.323ZM322.099 279.357L321.218 282.428H320.383L321.004 279.357H322.099ZM325.943 280.226C324.126 280.226 323.087 278.702 323.087 276.027C323.087 273.374 324.148 271.827 325.943 271.827C327.738 271.827 328.799 273.374 328.799 276.027C328.799 278.702 327.749 280.226 325.943 280.226ZM325.943 279.323C327.117 279.323 327.806 278.138 327.806 276.027C327.806 273.916 327.117 272.708 325.943 272.708C324.769 272.708 324.069 273.916 324.069 276.027C324.069 278.138 324.758 279.323 325.943 279.323ZM332.598 280.226C330.781 280.226 329.742 278.702 329.742 276.027C329.742 273.374 330.803 271.827 332.598 271.827C334.393 271.827 335.455 273.374 335.455 276.027C335.455 278.702 334.405 280.226 332.598 280.226ZM332.598 279.323C333.772 279.323 334.461 278.138 334.461 276.027C334.461 273.916 333.772 272.708 332.598 272.708C331.424 272.708 330.724 273.916 330.724 276.027C330.724 278.138 331.413 279.323 332.598 279.323ZM339.254 280.226C337.436 280.226 336.397 278.702 336.397 276.027C336.397 273.374 337.459 271.827 339.254 271.827C341.049 271.827 342.11 273.374 342.11 276.027C342.11 278.702 341.06 280.226 339.254 280.226ZM339.254 279.323C340.428 279.323 341.116 278.138 341.116 276.027C341.116 273.916 340.428 272.708 339.254 272.708C338.079 272.708 337.38 273.916 337.38 276.027C337.38 278.138 338.068 279.323 339.254 279.323ZM351.147 271.003V278.623H350.255V277.585H348.178V276.941H350.255V271.003H351.147ZM351.395 280.068V280.813H344.261V277.878H345.152V280.068H351.395ZM342.815 275.654C344.689 275.643 347.196 275.631 349.352 275.361L349.408 276.004C348.511 276.145 347.574 276.235 346.654 276.286V278.273H345.762V276.331C344.746 276.377 343.781 276.382 342.94 276.377L342.815 275.654ZM346.112 271.409C347.58 271.409 348.584 272.109 348.596 273.159C348.584 274.232 347.58 274.898 346.112 274.898C344.633 274.898 343.628 274.232 343.628 273.159C343.628 272.109 344.633 271.409 346.112 271.409ZM346.112 272.087C345.13 272.075 344.464 272.516 344.475 273.159C344.464 273.814 345.13 274.243 346.112 274.243C347.06 274.243 347.738 273.814 347.749 273.159C347.738 272.516 347.06 272.075 346.112 272.087Z" fill="#707070"/>
<path d="M238.668 278.749C240.263 278.749 241.555 277.455 241.555 275.859C241.555 274.263 240.263 272.969 238.668 272.969C237.074 272.969 235.781 274.263 235.781 275.859C235.781 277.455 237.074 278.749 238.668 278.749Z" fill="#ADB0B7"/>
<path d="M238.668 298.018C240.263 298.018 241.555 296.724 241.555 295.128C241.555 293.532 240.263 292.238 238.668 292.238C237.074 292.238 235.781 293.532 235.781 295.128C235.781 296.724 237.074 298.018 238.668 298.018Z" fill="#39CEB4"/>
<path d="M238.668 317.284C240.263 317.284 241.555 315.99 241.555 314.394C241.555 312.798 240.263 311.504 238.668 311.504C237.074 311.504 235.781 312.798 235.781 314.394C235.781 315.99 237.074 317.284 238.668 317.284Z" fill="#FFBF43"/>
<path d="M256.924 317.531V318.276H247.735V317.531H250.015V314.821C249.157 314.375 248.638 313.653 248.638 312.744C248.638 311.186 250.162 310.17 252.307 310.159C254.452 310.17 255.976 311.186 255.976 312.744C255.976 313.636 255.473 314.353 254.644 314.799V317.531H256.924ZM252.307 310.893C250.658 310.881 249.496 311.627 249.496 312.744C249.496 313.862 250.658 314.618 252.307 314.618C253.944 314.618 255.118 313.862 255.118 312.744C255.118 311.627 253.944 310.881 252.307 310.893ZM250.884 317.531H253.752V315.138C253.317 315.256 252.832 315.318 252.307 315.318C251.793 315.318 251.313 315.262 250.884 315.149V317.531ZM266.83 311.051V311.785H265.34V313.184H266.83V313.93H265.34V315.487H264.46V309.527H265.34V311.051H266.83ZM260.317 310.136C261.841 310.125 262.947 311.096 262.958 312.496C262.947 313.896 261.841 314.844 260.317 314.855C258.792 314.844 257.675 313.896 257.686 312.496C257.675 311.096 258.792 310.125 260.317 310.136ZM260.317 310.893C259.301 310.881 258.544 311.548 258.555 312.496C258.544 313.444 259.301 314.099 260.317 314.11C261.344 314.099 262.089 313.444 262.089 312.496C262.089 311.548 261.344 310.881 260.317 310.893ZM262.123 315.792C264.166 315.804 265.431 316.481 265.431 317.678C265.431 318.852 264.166 319.54 262.123 319.54C260.068 319.54 258.792 318.852 258.792 317.678C258.792 316.481 260.068 315.804 262.123 315.792ZM262.123 316.515C260.61 316.515 259.673 316.944 259.684 317.678C259.673 318.4 260.61 318.829 262.123 318.829C263.647 318.829 264.573 318.4 264.573 317.678C264.573 316.944 263.647 316.515 262.123 316.515ZM269.331 315.273V316.605H274.355V315.273H275.235V319.427H268.451V315.273H269.331ZM269.331 318.705H274.355V317.305H269.331V318.705ZM275.235 309.99V310.723C275.235 311.491 275.235 312.383 274.964 313.636H276.443V314.37H267.254V313.636H274.095C274.355 312.389 274.355 311.491 274.355 310.723H268.417V309.99H275.235ZM279.712 310.306C280.632 310.311 281.377 310.848 281.812 311.773H284.453V309.527H285.334V319.585H284.453V315.691H281.879C281.456 316.707 280.683 317.294 279.712 317.294C278.233 317.294 277.194 315.939 277.194 313.805C277.194 311.672 278.233 310.317 279.712 310.306ZM279.712 311.096C278.718 311.107 278.041 312.168 278.041 313.805C278.041 315.442 278.718 316.503 279.712 316.503C280.694 316.503 281.383 315.442 281.383 313.805C281.383 312.168 280.694 311.107 279.712 311.096ZM282.071 312.518C282.162 312.908 282.218 313.337 282.218 313.805C282.218 314.217 282.173 314.607 282.105 314.957H284.453V312.518H282.071ZM290.505 317.565C290.11 317.565 289.771 317.237 289.782 316.831C289.771 316.436 290.11 316.108 290.505 316.108C290.9 316.108 291.227 316.436 291.227 316.831C291.227 317.237 290.9 317.565 290.505 317.565ZM290.505 313.026C290.11 313.026 289.771 312.699 289.782 312.293C289.771 311.898 290.11 311.57 290.505 311.57C290.9 311.57 291.227 311.898 291.227 312.293C291.227 312.699 290.9 313.026 290.505 313.026ZM298.069 310.475V318.648H297.042V311.536H296.996L295.009 312.857V311.83L297.042 310.475H298.069ZM302.692 318.761C300.874 318.761 299.836 317.237 299.836 314.562C299.836 311.909 300.897 310.362 302.692 310.362C304.487 310.362 305.548 311.909 305.548 314.562C305.548 317.237 304.498 318.761 302.692 318.761ZM302.692 317.858C303.866 317.858 304.555 316.673 304.555 314.562C304.555 312.451 303.866 311.243 302.692 311.243C301.518 311.243 300.818 312.451 300.818 314.562C300.818 316.673 301.507 317.858 302.692 317.858ZM307.665 317.892L306.785 320.963H305.949L306.57 317.892H307.665ZM311.509 318.761C309.692 318.761 308.653 317.237 308.653 314.562C308.653 311.909 309.714 310.362 311.509 310.362C313.304 310.362 314.365 311.909 314.365 314.562C314.365 317.237 313.316 318.761 311.509 318.761ZM311.509 317.858C312.683 317.858 313.372 316.673 313.372 314.562C313.372 312.451 312.683 311.243 311.509 311.243C310.335 311.243 309.635 312.451 309.635 314.562C309.635 316.673 310.324 317.858 311.509 317.858ZM318.164 318.761C316.347 318.761 315.308 317.237 315.308 314.562C315.308 311.909 316.37 310.362 318.164 310.362C319.959 310.362 321.021 311.909 321.021 314.562C321.021 317.237 319.971 318.761 318.164 318.761ZM318.164 317.858C319.339 317.858 320.027 316.673 320.027 314.562C320.027 312.451 319.339 311.243 318.164 311.243C316.99 311.243 316.29 312.451 316.29 314.562C316.29 316.673 316.979 317.858 318.164 317.858ZM324.82 318.761C323.002 318.761 321.964 317.237 321.964 314.562C321.964 311.909 323.025 310.362 324.82 310.362C326.615 310.362 327.676 311.909 327.676 314.562C327.676 317.237 326.626 318.761 324.82 318.761ZM324.82 317.858C325.994 317.858 326.682 316.673 326.682 314.562C326.682 312.451 325.994 311.243 324.82 311.243C323.646 311.243 322.946 312.451 322.946 314.562C322.946 316.673 323.634 317.858 324.82 317.858ZM329.793 317.892L328.912 320.963H328.077L328.698 317.892H329.793ZM333.637 318.761C331.819 318.761 330.781 317.237 330.781 314.562C330.781 311.909 331.842 310.362 333.637 310.362C335.432 310.362 336.493 311.909 336.493 314.562C336.493 317.237 335.443 318.761 333.637 318.761ZM333.637 317.858C334.811 317.858 335.5 316.673 335.5 314.562C335.5 312.451 334.811 311.243 333.637 311.243C332.463 311.243 331.763 312.451 331.763 314.562C331.763 316.673 332.452 317.858 333.637 317.858ZM340.292 318.761C338.475 318.761 337.436 317.237 337.436 314.562C337.436 311.909 338.497 310.362 340.292 310.362C342.087 310.362 343.148 311.909 343.148 314.562C343.148 317.237 342.098 318.761 340.292 318.761ZM340.292 317.858C341.466 317.858 342.155 316.673 342.155 314.562C342.155 312.451 341.466 311.243 340.292 311.243C339.118 311.243 338.418 312.451 338.418 314.562C338.418 316.673 339.107 317.858 340.292 317.858ZM346.947 318.761C345.13 318.761 344.091 317.237 344.091 314.562C344.091 311.909 345.152 310.362 346.947 310.362C348.742 310.362 349.803 311.909 349.803 314.562C349.803 317.237 348.754 318.761 346.947 318.761ZM346.947 317.858C348.121 317.858 348.81 316.673 348.81 314.562C348.81 312.451 348.121 311.243 346.947 311.243C345.773 311.243 345.073 312.451 345.073 314.562C345.073 316.673 345.762 317.858 346.947 317.858ZM358.841 309.538V317.158H357.949V316.12H355.872V315.476H357.949V309.538H358.841ZM359.089 318.603V319.348H351.954V316.413H352.846V318.603H359.089ZM350.509 314.189C352.383 314.178 354.889 314.167 357.046 313.896L357.102 314.539C356.205 314.68 355.268 314.771 354.348 314.821V316.808H353.456V314.867C352.44 314.912 351.475 314.917 350.633 314.912L350.509 314.189ZM353.806 309.944C355.273 309.944 356.278 310.644 356.289 311.694C356.278 312.767 355.273 313.433 353.806 313.433C352.327 313.433 351.322 312.767 351.322 311.694C351.322 310.644 352.327 309.944 353.806 309.944ZM353.806 310.622C352.824 310.611 352.158 311.051 352.169 311.694C352.158 312.349 352.824 312.778 353.806 312.778C354.754 312.778 355.431 312.349 355.443 311.694C355.431 311.051 354.754 310.611 353.806 310.622Z" fill="#707070"/>
<path d="M236.504 258.926V258.023L239.337 255.166C240.229 254.229 240.681 253.71 240.681 252.999C240.681 252.197 240.026 251.678 239.168 251.678C238.265 251.678 237.678 252.254 237.678 253.123H236.504C236.492 251.633 237.633 250.64 239.191 250.64C240.771 250.64 241.855 251.633 241.866 252.965C241.855 253.88 241.426 254.602 239.891 256.115L238.231 257.797V257.865H242.002V258.926H236.504ZM243.018 257.334V256.329L246.63 250.752H248.165V256.284H249.283V257.334H248.165V258.926H246.991V257.334H243.018ZM244.327 256.284H246.991V252.231H246.901L244.327 256.216V256.284ZM258.619 249.782V257.255H257.547V253.812H254.77V252.954H257.547V251.893H254.77V251.035H257.547V249.782H258.619ZM258.879 258.802V259.671H252.026V256.6H253.11V258.802H258.879ZM251.846 250.481V254.907C253.189 254.907 254.465 254.822 255.91 254.557L256.023 255.437C254.42 255.742 253.054 255.799 251.564 255.81H250.785V250.481H251.846ZM266.307 259.039C264.794 259.027 263.214 258.136 263.214 255.11C263.214 252.265 264.444 250.64 266.409 250.64C267.91 250.64 268.96 251.577 269.152 252.875H267.922C267.763 252.209 267.233 251.723 266.409 251.723C265.144 251.723 264.411 252.83 264.411 254.67H264.501C264.941 253.981 265.709 253.563 266.601 253.563C268.057 253.563 269.231 254.681 269.231 256.25C269.231 257.831 268.068 259.05 266.307 259.039ZM266.296 258C267.289 258 268.023 257.232 268.023 256.273C268.023 255.336 267.312 254.579 266.33 254.579C265.325 254.579 264.569 255.37 264.557 256.284C264.569 257.187 265.291 258 266.296 258ZM278.612 249.782V255.708H277.54V255.223H275.564V254.546H277.54V249.782H278.612ZM270.179 253.507C272.132 253.518 274.616 253.496 276.795 253.259L276.851 253.947C275.897 254.077 274.909 254.156 273.939 254.207V255.731H272.877V254.252C271.963 254.275 271.094 254.28 270.304 254.275L270.179 253.507ZM278.612 256.047V258.226H272.787V259.005H278.917V259.784H271.737V257.515H277.551V256.792H271.692V256.047H278.612ZM273.464 249.951C274.966 249.951 275.982 250.549 275.993 251.475C275.982 252.423 274.966 252.988 273.464 252.988C271.929 252.988 270.924 252.423 270.936 251.475C270.924 250.549 271.929 249.951 273.464 249.951ZM273.464 250.673C272.527 250.673 271.94 250.989 271.94 251.475C271.94 251.96 272.527 252.265 273.464 252.265C274.379 252.265 274.977 251.96 274.977 251.475C274.977 250.989 274.379 250.673 273.464 250.673Z" fill="black"/>
</g>
<defs>
<filter id="filter0_d_4748_15827" x="194.409" y="280.061" width="20.3916" height="20.3931" filterUnits="userSpaceOnUse" color-interpolation-filters="sRGB">
<feFlood flood-opacity="0" result="BackgroundImageFix"/>
<feColorMatrix in="SourceAlpha" type="matrix" values="0 0 0 0 0 0 0 0 0 0 0 0 0 0 0 0 0 0 127 0" result="hardAlpha"/>
<feOffset dy="1.29465"/>
<feGaussianBlur stdDeviation="1.72619"/>
<feColorMatrix type="matrix" values="0 0 0 0 0.439216 0 0 0 0 0.470588 0 0 0 0 0.529412 0 0 0 0.24 0"/>
<feBlend mode="normal" in2="BackgroundImageFix" result="effect1_dropShadow_4748_15827"/>
<feBlend mode="normal" in="SourceGraphic" in2="effect1_dropShadow_4748_15827" result="shape"/>
</filter>
<filter id="filter1_d_4748_15827" x="426.096" y="96.2641" width="20.3916" height="20.3931" filterUnits="userSpaceOnUse" color-interpolation-filters="sRGB">
<feFlood flood-opacity="0" result="BackgroundImageFix"/>
<feColorMatrix in="SourceAlpha" type="matrix" values="0 0 0 0 0 0 0 0 0 0 0 0 0 0 0 0 0 0 127 0" result="hardAlpha"/>
<feOffset dy="1.29465"/>
<feGaussianBlur stdDeviation="1.72619"/>
<feColorMatrix type="matrix" values="0 0 0 0 0.439216 0 0 0 0 0.470588 0 0 0 0 0.529412 0 0 0 0.24 0"/>
<feBlend mode="normal" in2="BackgroundImageFix" result="effect1_dropShadow_4748_15827"/>
<feBlend mode="normal" in="SourceGraphic" in2="effect1_dropShadow_4748_15827" result="shape"/>
</filter>
<filter id="filter2_d_4748_15827" x="200.159" y="226.732" width="207.894" height="127.155" filterUnits="userSpaceOnUse" color-interpolation-filters="sRGB">
<feFlood flood-opacity="0" result="BackgroundImageFix"/>
<feColorMatrix in="SourceAlpha" type="matrix" values="0 0 0 0 0 0 0 0 0 0 0 0 0 0 0 0 0 0 127 0" result="hardAlpha"/>
<feOffset dx="-0.963342" dy="5.78005"/>
<feGaussianBlur stdDeviation="5.78005"/>
<feComposite in2="hardAlpha" operator="out"/>
<feColorMatrix type="matrix" values="0 0 0 0 0 0 0 0 0 0 0 0 0 0 0 0 0 0 0.16 0"/>
<feBlend mode="normal" in2="BackgroundImageFix" result="effect1_dropShadow_4748_15827"/>
<feBlend mode="normal" in="SourceGraphic" in2="effect1_dropShadow_4748_15827" result="shape"/>
</filter>
<clipPath id="clip0_4748_15827">
<rect width="534" height="464" fill="white" transform="translate(0 36)"/>
</clipPath>
<clipPath id="clip1_4748_15827">
<rect width="875.753" height="607.834" fill="white" transform="translate(9.625 84.1641)"/>
</clipPath>
<clipPath id="clip2_4748_15827">
<rect x="9.625" y="84.1641" width="876.641" height="425.797" rx="11.5601" fill="white"/>
</clipPath>
<clipPath id="clip3_4748_15827">
<path d="M9.625 95.7242C9.625 89.3397 14.8006 84.1641 21.1851 84.1641H874.706C881.091 84.1641 886.266 89.3397 886.266 95.7242V126.551H9.625V95.7242Z" fill="white"/>
</clipPath>
</defs>
</svg>
