<svg width="528" height="332" viewBox="0 0 528 332" fill="none" xmlns="http://www.w3.org/2000/svg">
<g filter="url(#filter0_d_4647_29680)">
<rect x="24" width="480" height="284" rx="18" fill="url(#paint0_linear_4647_29680)"/>
<rect x="26.25" y="2.25" width="475.5" height="279.5" rx="15.75" stroke="url(#paint1_linear_4647_29680)" stroke-opacity="0.4" stroke-width="4.5"/>
<rect x="60" y="36" width="115" height="38" rx="19" fill="#0C4DB9"/>
<path d="M91.7253 56.4204V58.3247H84.946V63.752H82.5466V58.3247H75.8625V56.4204H91.7253ZM80.1282 47.0894V49.0889H87.4026V47.0894H89.8401V54.7446H77.7288V47.0894H80.1282ZM80.1282 52.8022H87.4026V50.9932H80.1282V52.8022ZM106.407 46.4229V53.0688H108.864V55.0684H106.407V63.7139H103.97V46.4229H106.407ZM101.78 48.1938C101.761 53.3735 99.7424 57.8677 93.9153 60.7241L92.5442 58.8579C96.6479 56.8013 98.8474 54.04 99.3044 50.1743H93.5344V48.1938H101.78ZM116.138 50.3457C116.138 53.602 117.452 56.7632 120.347 58.02L118.862 59.9624C116.938 59.0198 115.653 57.2964 114.939 55.1636C114.177 57.4297 112.844 59.2864 110.864 60.2671L109.34 58.2866C112.311 56.9536 113.663 53.602 113.682 50.3457V47.7559H116.138V50.3457ZM124.213 46.4229V63.79H121.813V53.8306H118.405V51.8691H121.813V46.4229H124.213ZM140.951 46.4229V63.79H138.495V46.4229H140.951ZM129.735 47.7939V52.0215H133.468V47.7939H135.867V59.7339H127.298V47.7939H129.735ZM129.735 57.7725H133.468V53.9067H129.735V57.7725ZM152.415 48.708C152.415 51.2407 154.662 53.9639 158.585 54.6304L157.519 56.6489C154.5 56.0491 152.253 54.3542 151.139 52.1167C149.987 54.3352 147.74 56.0396 144.741 56.6489L143.694 54.6304C147.54 53.9448 149.806 51.2217 149.825 48.708V47.4512H152.415V48.708ZM159.156 59.6196V61.6191H143.294V59.6196H159.156Z" fill="white"/>
<path d="M66.3984 92.6797V97.25H73.5V92.6797H77.3672V95.6328H83.7656V90.7461H87.668V109.836H83.7656V105.266H77.3672V107.797H62.4961V92.6797H66.3984ZM66.3984 104.738H73.5V100.309H66.3984V104.738ZM76.9102 110.398C83.6602 110.398 87.7734 112.613 87.7734 116.48C87.7734 120.277 83.6602 122.492 76.9102 122.492C70.1953 122.492 66.082 120.277 66.1172 116.48C66.082 112.613 70.1953 110.398 76.9102 110.398ZM76.9102 113.387C72.4805 113.387 69.9844 114.441 69.9844 116.48C69.9844 118.414 72.4805 119.469 76.9102 119.469C81.3398 119.469 83.8711 118.414 83.8711 116.48C83.8711 114.441 81.3398 113.387 76.9102 113.387ZM77.3672 102.102H83.7656V98.7266H77.3672V102.102ZM102.469 92.9609C107.496 92.9258 111.188 96.125 111.223 100.625C111.188 105.16 107.496 108.324 102.469 108.324C97.4766 108.324 93.75 105.16 93.75 100.625C93.75 96.125 97.4766 92.9258 102.469 92.9609ZM102.469 96.3359C99.6914 96.3359 97.6172 97.9883 97.6172 100.625C97.6172 103.297 99.6914 104.914 102.469 104.914C105.281 104.914 107.391 103.297 107.391 100.625C107.391 97.9883 105.281 96.3359 102.469 96.3359ZM118.641 90.7461V122.563H114.738V90.7461H118.641ZM92.3086 112.719C98.0391 112.719 105.984 112.648 112.84 111.664L113.156 114.512C106.02 115.883 98.3906 115.918 92.8008 115.918L92.3086 112.719ZM149.93 90.7812V114.828H145.992V112.051H139.77V109.309H145.992V90.7812H149.93ZM150.668 118.73V121.895H127.359V112.508H131.262V118.73H150.668ZM123.141 105.055C129.012 105.02 136.887 104.949 143.637 104.105L143.848 106.918C141.229 107.357 138.521 107.656 135.832 107.832V113.949H131.93V108.043C128.959 108.166 126.129 108.184 123.633 108.184L123.141 105.055ZM133.512 91.9414C138.152 91.9414 141.387 94.2266 141.422 97.5664C141.387 100.977 138.152 103.156 133.512 103.156C128.801 103.156 125.566 100.977 125.566 97.5664C125.566 94.2266 128.801 91.9414 133.512 91.9414ZM133.512 94.8242C130.98 94.8242 129.258 95.8437 129.258 97.5664C129.258 99.2891 130.98 100.309 133.512 100.309C135.938 100.309 137.66 99.2891 137.695 97.5664C137.66 95.8437 135.938 94.8242 133.512 94.8242ZM156.293 109.695C156.293 103.086 158.262 97.5664 161.566 92.8555H165.785C163.359 96.3359 160.934 103.402 160.934 109.695C160.934 115.988 163.359 123.055 165.785 126.57H161.566C158.262 121.824 156.293 116.34 156.293 109.695ZM196.898 115.461V118.66H167.859V115.461H174.574V107.41C172.043 105.969 170.514 103.701 170.531 100.871C170.496 95.8086 175.488 92.4687 182.309 92.4687C189.164 92.4687 194.156 95.8086 194.156 100.871C194.156 103.648 192.68 105.881 190.219 107.34V115.461H196.898ZM182.309 95.5625C177.563 95.5625 174.328 97.5664 174.363 100.871C174.328 104.141 177.563 106.18 182.309 106.18C187.055 106.18 190.324 104.141 190.324 100.871C190.324 97.5664 187.055 95.5625 182.309 95.5625ZM178.441 115.461H186.246V108.816C185.033 109.098 183.715 109.238 182.309 109.238C180.938 109.238 179.637 109.098 178.441 108.852V115.461ZM228.363 95V98.1992H224.039V101.82H228.363V105.055H224.039V109.414H220.137V90.7461H224.039V95H228.363ZM207.902 92.5742C212.789 92.5391 216.445 95.668 216.48 100.168C216.445 104.633 212.789 107.762 207.902 107.797C202.98 107.762 199.289 104.633 199.324 100.168C199.289 95.668 202.98 92.5391 207.902 92.5742ZM207.902 95.8437C205.16 95.8437 203.121 97.5664 203.156 100.168C203.121 102.805 205.16 104.457 207.902 104.492C210.609 104.457 212.648 102.805 212.648 100.168C212.648 97.5664 210.609 95.8437 207.902 95.8437ZM213.703 110.152C220.207 110.152 224.32 112.473 224.355 116.34C224.32 120.207 220.207 122.492 213.703 122.492C207.129 122.492 202.945 120.207 202.945 116.34C202.945 112.473 207.129 110.152 213.703 110.152ZM213.703 113.281C209.344 113.281 206.848 114.336 206.848 116.34C206.848 118.344 209.344 119.363 213.703 119.363C218.063 119.363 220.488 118.344 220.488 116.34C220.488 114.336 218.063 113.281 213.703 113.281ZM242.496 110.996C240.984 110.996 239.754 109.766 239.754 108.254C239.754 106.777 240.984 105.547 242.496 105.547C243.938 105.547 245.203 106.777 245.203 108.254C245.203 109.766 243.938 110.996 242.496 110.996ZM267.281 92.9609C272.309 92.9258 276 96.125 276.035 100.625C276 105.16 272.309 108.324 267.281 108.324C262.289 108.324 258.563 105.16 258.563 100.625C258.563 96.125 262.289 92.9258 267.281 92.9609ZM267.281 96.3359C264.504 96.3359 262.43 97.9883 262.43 100.625C262.43 103.297 264.504 104.914 267.281 104.914C270.094 104.914 272.203 103.297 272.203 100.625C272.203 97.9883 270.094 96.3359 267.281 96.3359ZM283.453 90.7461V122.563H279.551V90.7461H283.453ZM257.121 112.719C262.852 112.719 270.797 112.648 277.652 111.664L277.969 114.512C270.832 115.883 263.203 115.918 257.613 115.918L257.121 112.719ZM317.133 115.602V118.836H288.094V115.602H295.793V110.363H291.539V99.9922H309.82V96.0898H291.469V92.9258H313.688V103.121H295.441V107.199H314.426V110.363H309.785V115.602H317.133ZM299.59 115.602H305.953V110.363H299.59V115.602ZM326.625 108.852V112.508H340.723V108.852H344.59V122.141H322.793V108.852H326.625ZM326.625 118.977H340.723V115.531H326.625V118.977ZM344.695 92.1172V94.5781C344.695 96.9863 344.695 99.6406 343.922 103.367H348.246V106.496H319.207V103.367H340.055C340.723 100.01 340.793 97.4785 340.793 95.2461H322.793V92.1172H344.695ZM359.004 93.0664C361.887 93.0664 364.26 94.666 365.684 97.4609H373.102V90.7461H376.969V122.563H373.102V110.539H365.965C364.594 113.703 362.08 115.531 359.004 115.531C354.223 115.531 350.848 111.207 350.848 104.281C350.848 97.4258 354.223 93.0664 359.004 93.0664ZM359.004 96.582C356.367 96.582 354.574 99.4297 354.609 104.281C354.574 109.168 356.367 112.016 359.004 112.016C361.641 112.016 363.398 109.168 363.434 104.281C363.398 99.4297 361.641 96.582 359.004 96.582ZM366.773 100.66C367.002 101.768 367.125 102.98 367.125 104.281C367.125 105.389 367.037 106.408 366.879 107.375H373.102V100.66H366.773ZM390.891 109.695C390.891 116.34 388.922 121.824 385.617 126.57H381.398C383.824 123.055 386.25 115.988 386.25 109.695C386.25 103.402 383.824 96.3359 381.398 92.8555H385.617C388.922 97.5664 390.891 103.086 390.891 109.695Z" fill="white"/>
<path d="M82.2625 155.051V167.402H79.2625V166.723H75.3953V164.918H79.2625V155.051H82.2625ZM64.1921 162.551C68.3171 162.574 73.4265 162.527 77.9968 162.105L78.1375 163.957C76.2507 164.215 74.3171 164.379 72.4187 164.473V167.449H69.4656V164.59C67.7195 164.637 66.0437 164.637 64.4968 164.613L64.1921 162.551ZM82.2625 168.035V173.027H70.2625V174.129H82.7546V176.215H67.3328V171.105H79.2859V170.051H67.239V168.035H82.2625ZM71.0593 155.332C74.2234 155.332 76.4031 156.621 76.4265 158.543C76.4031 160.535 74.2234 161.73 71.0593 161.73C67.8015 161.73 65.6453 160.535 65.6453 158.543C65.6453 156.621 67.8015 155.332 71.0593 155.332ZM71.0593 157.301C69.4421 157.277 68.4578 157.77 68.4812 158.543C68.4578 159.34 69.4421 159.785 71.0593 159.785C72.6296 159.785 73.6375 159.34 73.6375 158.543C73.6375 157.77 72.6296 157.277 71.0593 157.301ZM98.4812 157.23V174.199H94.9421V160.582H94.8484L90.9578 163.02V159.902L95.1531 157.23H98.4812ZM109.005 174.434C104.762 174.434 102.184 171.27 102.184 165.715C102.184 160.16 104.762 156.996 109.005 156.996C113.247 156.996 115.825 160.184 115.825 165.715C115.825 171.293 113.247 174.434 109.005 174.434ZM109.005 171.527C110.973 171.527 112.239 169.629 112.216 165.715C112.216 161.848 110.973 159.879 109.005 159.879C107.036 159.879 105.794 161.848 105.794 165.715C105.77 169.629 107.036 171.527 109.005 171.527ZM128.434 156.785V167.027H118.192V156.785H128.434ZM121.145 159.176V164.684H125.481V159.176H121.145ZM134.481 155.027V161.168H137.364V163.629H134.481V170.59H131.481V155.027H134.481ZM135.255 173.59V175.98H120.653V169.066H123.63V173.59H135.255ZM156.372 155.051V171.152H153.372V169.465H149.294V167.426H153.372V155.051H156.372ZM156.841 173.59V175.98H140.95V169.605H143.927V166.77C142.016 166.852 140.2 166.863 138.583 166.863L138.231 164.496C142.145 164.473 147.419 164.426 151.919 163.863L152.083 165.996C150.395 166.277 148.649 166.477 146.927 166.605V170.66H143.927V173.59H156.841ZM145.169 155.777C148.262 155.754 150.489 157.324 150.489 159.598C150.489 161.871 148.262 163.348 145.169 163.348C142.005 163.348 139.802 161.871 139.802 159.598C139.802 157.324 141.981 155.754 145.169 155.777ZM145.169 157.957C143.645 157.957 142.614 158.543 142.637 159.598C142.614 160.629 143.645 161.191 145.169 161.191C146.598 161.191 147.63 160.629 147.653 159.598C147.63 158.543 146.598 157.957 145.169 157.957Z" fill="white" fill-opacity="0.6"/>
<rect x="60" y="165.199" width="102" height="2.4" fill="white"/>
<path d="M100.281 223.113V227.895H83.5938V241.863H77.6875V227.895H61.2344V223.113H100.281ZM95.5938 201.316V218.52H65.8281V201.316H95.5938ZM71.7344 206.051V213.832H89.6406V206.051H71.7344ZM141.812 232.254V237.176H102.766V232.254H112.75V225.738H107.266V211.395H131.406V206.801H107.219V202.02H137.312V216.176H113.266V220.91H138.297V225.738H132.25V232.254H141.812ZM118.562 232.254H126.391V225.738H118.562V232.254Z" fill="white"/>
<path d="M159.076 237.746C159.076 234.441 160.06 231.682 161.712 229.326H163.822C162.609 231.066 161.396 234.6 161.396 237.746C161.396 240.893 162.609 244.426 163.822 246.184H161.712C160.06 243.811 159.076 241.068 159.076 237.746ZM169.658 242.598V240.945L174.158 236.604C175.441 235.32 176.109 234.564 176.109 233.492C176.109 232.314 175.177 231.559 173.929 231.559C172.611 231.559 171.767 232.385 171.785 233.668H169.605C169.587 231.26 171.398 229.695 173.947 229.695C176.548 229.695 178.306 231.242 178.306 233.387C178.306 234.828 177.603 235.988 175.107 238.344L172.839 240.594V240.682H178.5V242.598H169.658ZM185.197 242.773C182.138 242.773 180.31 240.4 180.31 236.234C180.31 232.086 182.138 229.695 185.197 229.695C188.238 229.695 190.083 232.086 190.083 236.234C190.083 240.4 188.255 242.773 185.197 242.773ZM185.197 240.857C186.796 240.857 187.781 239.293 187.781 236.234C187.781 233.193 186.779 231.594 185.197 231.594C183.615 231.594 182.613 233.193 182.613 236.234C182.613 239.293 183.597 240.857 185.197 240.857ZM192 242.598V240.945L196.5 236.604C197.783 235.32 198.451 234.564 198.451 233.492C198.451 232.314 197.519 231.559 196.271 231.559C194.953 231.559 194.109 232.385 194.126 233.668H191.947C191.929 231.26 193.74 229.695 196.289 229.695C198.89 229.695 200.648 231.242 200.648 233.387C200.648 234.828 199.945 235.988 197.449 238.344L195.181 240.594V240.682H200.841V242.598H192ZM202.335 240.225V238.396L207.837 229.871H210.685V238.344H212.355V240.225H210.685V242.598H208.505V240.225H202.335ZM204.673 238.344H208.541V232.473H208.4L204.673 238.256V238.344ZM226.962 228.289V239.996H225.011V234.705H220.863V233.158H225.011V231.717H220.863V230.17H225.011V228.289H226.962ZM227.367 242.264V243.846H216.521V238.959H218.49V242.264H227.367ZM216.503 229.344V236.217C218.525 236.19 220.432 236.067 222.568 235.689L222.761 237.271C220.318 237.729 218.173 237.816 215.818 237.834H214.57V229.344H216.503ZM239.179 229.871V242.598H236.876V232.104H236.806L233.835 234.002V231.91L236.982 229.871H239.179ZM242.273 242.598V240.945L246.773 236.604C248.056 235.32 248.724 234.564 248.724 233.492C248.724 232.314 247.792 231.559 246.544 231.559C245.226 231.559 244.382 232.385 244.4 233.668H242.22C242.203 231.26 244.013 229.695 246.562 229.695C249.164 229.695 250.921 231.242 250.921 233.387C250.921 234.828 250.218 235.988 247.722 238.344L245.455 240.594V240.682H251.115V242.598H242.273ZM265.916 228.289V237.553H263.947V236.902H260.976V235.707H263.947V228.289H265.916ZM252.574 234.02C255.65 234.02 259.482 233.984 262.892 233.65L262.998 234.881C261.547 235.083 260.053 235.206 258.585 235.268V237.57H256.652V235.355C255.29 235.391 253.98 235.399 252.785 235.391L252.574 234.02ZM265.916 238.045V241.613H256.88V242.633H266.337V244.021H254.964V240.33H263.982V239.381H254.894V238.045H265.916ZM257.707 228.535C260.062 228.535 261.679 229.484 261.679 230.926C261.679 232.402 260.062 233.299 257.707 233.299C255.298 233.299 253.699 232.402 253.699 230.926C253.699 229.484 255.298 228.535 257.707 228.535ZM257.707 229.836C256.371 229.836 255.544 230.258 255.562 230.926C255.544 231.594 256.371 231.998 257.707 231.998C259.007 231.998 259.851 231.594 259.851 230.926C259.851 230.258 259.007 229.836 257.707 229.836ZM277.57 242.773C274.845 242.773 272.912 241.297 272.859 239.152H275.162C275.232 240.172 276.251 240.84 277.57 240.84C278.976 240.84 279.978 240.066 279.978 238.941C279.978 237.799 278.994 236.973 277.341 236.973H276.199V235.215H277.341C278.695 235.215 279.644 234.459 279.626 233.352C279.644 232.279 278.835 231.559 277.587 231.559C276.392 231.559 275.355 232.227 275.32 233.299H273.123C273.175 231.154 275.109 229.695 277.605 229.695C280.189 229.695 281.859 231.277 281.841 233.229C281.859 234.652 280.91 235.689 279.521 235.971V236.076C281.314 236.322 282.333 237.465 282.316 239.064C282.333 241.209 280.33 242.773 277.57 242.773ZM289.488 229.871V242.598H287.185V232.104H287.115L284.144 234.002V231.91L287.291 229.871H289.488ZM296.554 228.781C298.962 228.781 300.755 230.275 300.773 232.367C300.755 234.477 298.962 235.953 296.554 235.953C294.128 235.953 292.335 234.477 292.335 232.367C292.335 230.275 294.128 228.781 296.554 228.781ZM296.554 230.398C295.218 230.398 294.234 231.154 294.234 232.367C294.234 233.598 295.218 234.371 296.554 234.371C297.89 234.371 298.875 233.598 298.875 232.367C298.875 231.154 297.89 230.398 296.554 230.398ZM305.291 228.271V236.305H303.322V228.271H305.291ZM305.291 236.99V241.139H296.695V242.422H305.765V243.969H294.779V239.697H303.339V238.52H294.744V236.99H305.291ZM320.285 228.271V234.617H322.482V236.234H320.285V244.162H318.316V228.271H320.285ZM312.375 229.941C312.357 234.107 311.777 237.623 308.912 240.717L307.382 239.609C309.624 237.236 310.353 234.723 310.511 231.541H308.015V229.941H312.375ZM316.769 229.941C316.751 234.213 316.312 238.291 313.447 241.736L311.882 240.664C314.15 237.966 314.783 234.986 314.923 231.541H312.902V229.941H316.769ZM329.162 232.789C329.162 235.391 330.691 238.133 333.257 239.205L332.185 240.752C330.304 239.943 328.933 238.273 328.212 236.252C327.474 238.432 326.085 240.26 324.222 241.139L323.097 239.609C325.611 238.449 327.175 235.496 327.175 232.789V231.453H323.677V229.836H332.642V231.453H329.162V232.789ZM336.386 228.271V244.162H334.417V228.271H336.386ZM347.724 237.746C347.724 241.068 346.74 243.811 345.087 246.184H342.978C344.191 244.426 345.404 240.893 345.404 237.746C345.404 234.6 344.191 231.066 342.978 229.326H345.087C346.74 231.682 347.724 234.441 347.724 237.746Z" fill="white" fill-opacity="0.64"/>
<path d="M399.788 229.871L403.092 239.908H403.233L406.555 229.871H409.069L404.569 242.598H401.756L397.274 229.871H399.788ZM410.704 242.598H408.26L412.743 229.871H415.555L420.055 242.598H417.612L416.557 239.451H411.758L410.704 242.598ZM412.374 237.605H415.942L414.202 232.473H414.096L412.374 237.605ZM419.458 231.787V229.871H429.6V231.787H425.68V242.598H423.395V231.787H419.458ZM448.321 228.271V236.48H446.37V234.758H443.17V235.971H435.735V228.975H437.686V230.979H441.237V228.975H443.17V230.381H446.37V228.271H448.321ZM448.321 237.131V241.209H439.813V242.422H448.831V243.969H437.862V239.768H446.37V238.66H437.844V237.131H448.321ZM437.686 234.424H441.237V232.473H437.686V234.424ZM443.17 233.264H446.37V231.857H443.17V233.264ZM463.473 235.496V237.043H458.762V240.682H465.09V242.281H450.571V240.682H456.829V237.043H452.329V229.449H463.35V231.014H454.28V235.496H463.473Z" fill="#5549E5"/>
</g>
<defs>
<filter id="filter0_d_4647_29680" x="-1.90735e-06" y="0" width="528" height="332" filterUnits="userSpaceOnUse" color-interpolation-filters="sRGB">
<feFlood flood-opacity="0" result="BackgroundImageFix"/>
<feColorMatrix in="SourceAlpha" type="matrix" values="0 0 0 0 0 0 0 0 0 0 0 0 0 0 0 0 0 0 127 0" result="hardAlpha"/>
<feOffset dy="24"/>
<feGaussianBlur stdDeviation="12"/>
<feComposite in2="hardAlpha" operator="out"/>
<feColorMatrix type="matrix" values="0 0 0 0 0.431373 0 0 0 0 0.443137 0 0 0 0 0.984314 0 0 0 0.24 0"/>
<feBlend mode="normal" in2="BackgroundImageFix" result="effect1_dropShadow_4647_29680"/>
<feBlend mode="normal" in="SourceGraphic" in2="effect1_dropShadow_4647_29680" result="shape"/>
</filter>
<linearGradient id="paint0_linear_4647_29680" x1="24" y1="0" x2="486.369" y2="300.072" gradientUnits="userSpaceOnUse">
<stop stop-color="#2E78F2"/>
<stop offset="1" stop-color="#826EFD"/>
</linearGradient>
<linearGradient id="paint1_linear_4647_29680" x1="24" y1="7.21544" x2="493.994" y2="300.333" gradientUnits="userSpaceOnUse">
<stop stop-color="white"/>
<stop offset="0.505" stop-color="#439CEF"/>
<stop offset="1" stop-color="white"/>
</linearGradient>
</defs>
</svg>
