<svg width="528" height="332" viewBox="0 0 528 332" fill="none" xmlns="http://www.w3.org/2000/svg">
<g filter="url(#filter0_d_4766_1882)">
<rect x="24" width="480" height="284" rx="18" fill="url(#paint0_linear_4766_1882)"/>
<rect x="26.25" y="2.25" width="475.5" height="279.5" rx="15.75" stroke="url(#paint1_linear_4766_1882)" stroke-opacity="0.4" stroke-width="4.5"/>
<rect x="60" y="36" width="115" height="38" rx="19" fill="#0C4DB9"/>
<path d="M91.7253 56.4204V58.3247H84.946V63.752H82.5466V58.3247H75.8625V56.4204H91.7253ZM80.1282 47.0894V49.0889H87.4026V47.0894H89.8401V54.7446H77.7288V47.0894H80.1282ZM80.1282 52.8022H87.4026V50.9932H80.1282V52.8022ZM106.407 46.4229V53.0688H108.864V55.0684H106.407V63.7139H103.97V46.4229H106.407ZM101.78 48.1938C101.761 53.3735 99.7424 57.8677 93.9153 60.7241L92.5442 58.8579C96.6479 56.8013 98.8474 54.04 99.3044 50.1743H93.5344V48.1938H101.78ZM116.138 50.3457C116.138 53.602 117.452 56.7632 120.347 58.02L118.862 59.9624C116.938 59.0198 115.653 57.2964 114.939 55.1636C114.177 57.4297 112.844 59.2864 110.864 60.2671L109.34 58.2866C112.311 56.9536 113.663 53.602 113.682 50.3457V47.7559H116.138V50.3457ZM124.213 46.4229V63.79H121.813V53.8306H118.405V51.8691H121.813V46.4229H124.213ZM140.951 46.4229V63.79H138.495V46.4229H140.951ZM129.735 47.7939V52.0215H133.468V47.7939H135.867V59.7339H127.298V47.7939H129.735ZM129.735 57.7725H133.468V53.9067H129.735V57.7725ZM152.415 48.708C152.415 51.2407 154.662 53.9639 158.585 54.6304L157.519 56.6489C154.5 56.0491 152.253 54.3542 151.139 52.1167C149.987 54.3352 147.74 56.0396 144.741 56.6489L143.694 54.6304C147.54 53.9448 149.806 51.2217 149.825 48.708V47.4512H152.415V48.708ZM159.156 59.6196V61.6191H143.294V59.6196H159.156Z" fill="white"/>
<path d="M66.3984 92.6816V97.252H73.5V92.6816H77.3672V95.6348H83.7656V90.748H87.668V109.838H83.7656V105.268H77.3672V107.799H62.4961V92.6816H66.3984ZM66.3984 104.74H73.5V100.311H66.3984V104.74ZM76.9102 110.4C83.6602 110.4 87.7734 112.615 87.7734 116.482C87.7734 120.279 83.6602 122.494 76.9102 122.494C70.1953 122.494 66.082 120.279 66.1172 116.482C66.082 112.615 70.1953 110.4 76.9102 110.4ZM76.9102 113.389C72.4805 113.389 69.9844 114.443 69.9844 116.482C69.9844 118.416 72.4805 119.471 76.9102 119.471C81.3398 119.471 83.8711 118.416 83.8711 116.482C83.8711 114.443 81.3398 113.389 76.9102 113.389ZM77.3672 102.104H83.7656V98.7285H77.3672V102.104ZM102.469 92.9629C107.496 92.9277 111.188 96.127 111.223 100.627C111.188 105.162 107.496 108.326 102.469 108.326C97.4766 108.326 93.75 105.162 93.75 100.627C93.75 96.127 97.4766 92.9277 102.469 92.9629ZM102.469 96.3379C99.6914 96.3379 97.6172 97.9902 97.6172 100.627C97.6172 103.299 99.6914 104.916 102.469 104.916C105.281 104.916 107.391 103.299 107.391 100.627C107.391 97.9902 105.281 96.3379 102.469 96.3379ZM118.641 90.748V122.564H114.738V90.748H118.641ZM92.3086 112.721C98.0391 112.721 105.984 112.65 112.84 111.666L113.156 114.514C106.02 115.885 98.3906 115.92 92.8008 115.92L92.3086 112.721ZM149.93 90.7832V114.83H145.992V112.053H139.77V109.311H145.992V90.7832H149.93ZM150.668 118.732V121.896H127.359V112.51H131.262V118.732H150.668ZM123.141 105.057C129.012 105.021 136.887 104.951 143.637 104.107L143.848 106.92C141.229 107.359 138.521 107.658 135.832 107.834V113.951H131.93V108.045C128.959 108.168 126.129 108.186 123.633 108.186L123.141 105.057ZM133.512 91.9434C138.152 91.9434 141.387 94.2285 141.422 97.5684C141.387 100.979 138.152 103.158 133.512 103.158C128.801 103.158 125.566 100.979 125.566 97.5684C125.566 94.2285 128.801 91.9434 133.512 91.9434ZM133.512 94.8262C130.98 94.8262 129.258 95.8457 129.258 97.5684C129.258 99.291 130.98 100.311 133.512 100.311C135.938 100.311 137.66 99.291 137.695 97.5684C137.66 95.8457 135.938 94.8262 133.512 94.8262ZM156.293 109.697C156.293 103.088 158.262 97.5684 161.566 92.8574H165.785C163.359 96.3379 160.934 103.404 160.934 109.697C160.934 115.99 163.359 123.057 165.785 126.572H161.566C158.262 121.826 156.293 116.342 156.293 109.697ZM196.898 115.463V118.662H167.859V115.463H174.574V107.412C172.043 105.971 170.514 103.703 170.531 100.873C170.496 95.8105 175.488 92.4707 182.309 92.4707C189.164 92.4707 194.156 95.8105 194.156 100.873C194.156 103.65 192.68 105.883 190.219 107.342V115.463H196.898ZM182.309 95.5645C177.563 95.5645 174.328 97.5684 174.363 100.873C174.328 104.143 177.563 106.182 182.309 106.182C187.055 106.182 190.324 104.143 190.324 100.873C190.324 97.5684 187.055 95.5645 182.309 95.5645ZM178.441 115.463H186.246V108.818C185.033 109.1 183.715 109.24 182.309 109.24C180.938 109.24 179.637 109.1 178.441 108.854V115.463ZM228.363 95.002V98.2012H224.039V101.822H228.363V105.057H224.039V109.416H220.137V90.748H224.039V95.002H228.363ZM207.902 92.5762C212.789 92.541 216.445 95.6699 216.48 100.17C216.445 104.635 212.789 107.764 207.902 107.799C202.98 107.764 199.289 104.635 199.324 100.17C199.289 95.6699 202.98 92.541 207.902 92.5762ZM207.902 95.8457C205.16 95.8457 203.121 97.5684 203.156 100.17C203.121 102.807 205.16 104.459 207.902 104.494C210.609 104.459 212.648 102.807 212.648 100.17C212.648 97.5684 210.609 95.8457 207.902 95.8457ZM213.703 110.154C220.207 110.154 224.32 112.475 224.355 116.342C224.32 120.209 220.207 122.494 213.703 122.494C207.129 122.494 202.945 120.209 202.945 116.342C202.945 112.475 207.129 110.154 213.703 110.154ZM213.703 113.283C209.344 113.283 206.848 114.338 206.848 116.342C206.848 118.346 209.344 119.365 213.703 119.365C218.063 119.365 220.488 118.346 220.488 116.342C220.488 114.338 218.063 113.283 213.703 113.283ZM242.496 110.998C240.984 110.998 239.754 109.768 239.754 108.256C239.754 106.779 240.984 105.549 242.496 105.549C243.938 105.549 245.203 106.779 245.203 108.256C245.203 109.768 243.938 110.998 242.496 110.998ZM267.281 92.9629C272.309 92.9277 276 96.127 276.035 100.627C276 105.162 272.309 108.326 267.281 108.326C262.289 108.326 258.563 105.162 258.563 100.627C258.563 96.127 262.289 92.9277 267.281 92.9629ZM267.281 96.3379C264.504 96.3379 262.43 97.9902 262.43 100.627C262.43 103.299 264.504 104.916 267.281 104.916C270.094 104.916 272.203 103.299 272.203 100.627C272.203 97.9902 270.094 96.3379 267.281 96.3379ZM283.453 90.748V122.564H279.551V90.748H283.453ZM257.121 112.721C262.852 112.721 270.797 112.65 277.652 111.666L277.969 114.514C270.832 115.885 263.203 115.92 257.613 115.92L257.121 112.721ZM317.133 115.604V118.838H288.094V115.604H295.793V110.365H291.539V99.9941H309.82V96.0918H291.469V92.9277H313.688V103.123H295.441V107.201H314.426V110.365H309.785V115.604H317.133ZM299.59 115.604H305.953V110.365H299.59V115.604ZM326.625 108.854V112.51H340.723V108.854H344.59V122.143H322.793V108.854H326.625ZM326.625 118.979H340.723V115.533H326.625V118.979ZM344.695 92.1191V94.5801C344.695 96.9883 344.695 99.6426 343.922 103.369H348.246V106.498H319.207V103.369H340.055C340.723 100.012 340.793 97.4805 340.793 95.248H322.793V92.1191H344.695ZM359.004 93.0684C361.887 93.0684 364.26 94.668 365.684 97.4629H373.102V90.748H376.969V122.564H373.102V110.541H365.965C364.594 113.705 362.08 115.533 359.004 115.533C354.223 115.533 350.848 111.209 350.848 104.283C350.848 97.4277 354.223 93.0684 359.004 93.0684ZM359.004 96.584C356.367 96.584 354.574 99.4316 354.609 104.283C354.574 109.17 356.367 112.018 359.004 112.018C361.641 112.018 363.398 109.17 363.434 104.283C363.398 99.4316 361.641 96.584 359.004 96.584ZM366.773 100.662C367.002 101.77 367.125 102.982 367.125 104.283C367.125 105.391 367.037 106.41 366.879 107.377H373.102V100.662H366.773ZM390.891 109.697C390.891 116.342 388.922 121.826 385.617 126.572H381.398C383.824 123.057 386.25 115.99 386.25 109.697C386.25 103.404 383.824 96.3379 381.398 92.8574H385.617C388.922 97.5684 390.891 103.088 390.891 109.697Z" fill="white"/>
<path d="M82.2617 155.052V167.403H79.2617V166.724H75.3945V164.919H79.2617V155.052H82.2617ZM64.1914 162.552C68.3164 162.575 73.4258 162.528 77.9961 162.106L78.1367 163.958C76.25 164.216 74.3164 164.38 72.418 164.474V167.45H69.4648V164.591C67.7188 164.638 66.043 164.638 64.4961 164.614L64.1914 162.552ZM82.2617 168.036V173.028H70.2617V174.13H82.7539V176.216H67.332V171.106H79.2852V170.052H67.2383V168.036H82.2617ZM71.0586 155.333C74.2227 155.333 76.4023 156.622 76.4258 158.544C76.4023 160.536 74.2227 161.731 71.0586 161.731C67.8008 161.731 65.6445 160.536 65.6445 158.544C65.6445 156.622 67.8008 155.333 71.0586 155.333ZM71.0586 157.302C69.4414 157.278 68.457 157.771 68.4805 158.544C68.457 159.341 69.4414 159.786 71.0586 159.786C72.6289 159.786 73.6367 159.341 73.6367 158.544C73.6367 157.771 72.6289 157.278 71.0586 157.302ZM98.4805 157.231V174.2H94.9414V160.583H94.8477L90.957 163.021V159.903L95.1523 157.231H98.4805ZM109.004 174.435C104.762 174.435 102.184 171.271 102.184 165.716C102.184 160.161 104.762 156.997 109.004 156.997C113.246 156.997 115.824 160.185 115.824 165.716C115.824 171.294 113.246 174.435 109.004 174.435ZM109.004 171.528C110.973 171.528 112.238 169.63 112.215 165.716C112.215 161.849 110.973 159.88 109.004 159.88C107.035 159.88 105.793 161.849 105.793 165.716C105.77 169.63 107.035 171.528 109.004 171.528ZM128.434 156.786V167.028H118.191V156.786H128.434ZM121.145 159.177V164.685H125.48V159.177H121.145ZM134.48 155.028V161.169H137.363V163.63H134.48V170.591H131.48V155.028H134.48ZM135.254 173.591V175.981H120.652V169.067H123.629V173.591H135.254ZM156.371 155.052V171.153H153.371V169.466H149.293V167.427H153.371V155.052H156.371ZM156.84 173.591V175.981H140.949V169.606H143.926V166.771C142.016 166.853 140.199 166.864 138.582 166.864L138.23 164.497C142.145 164.474 147.418 164.427 151.918 163.864L152.082 165.997C150.395 166.278 148.648 166.478 146.926 166.606V170.661H143.926V173.591H156.84ZM145.168 155.778C148.262 155.755 150.488 157.325 150.488 159.599C150.488 161.872 148.262 163.349 145.168 163.349C142.004 163.349 139.801 161.872 139.801 159.599C139.801 157.325 141.98 155.755 145.168 155.778ZM145.168 157.958C143.645 157.958 142.613 158.544 142.637 159.599C142.613 160.63 143.645 161.192 145.168 161.192C146.598 161.192 147.629 160.63 147.652 159.599C147.629 158.544 146.598 157.958 145.168 157.958Z" fill="white" fill-opacity="0.6"/>
<rect x="60" y="165.2" width="102" height="2.4" fill="white"/>
<path d="M100.281 223.116V227.897H83.5938V241.866H77.6875V227.897H61.2344V223.116H100.281ZM95.5938 201.319V218.522H65.8281V201.319H95.5938ZM71.7344 206.054V213.835H89.6406V206.054H71.7344ZM141.812 232.257V237.179H102.766V232.257H112.75V225.741H107.266V211.397H131.406V206.804H107.219V202.022H137.312V216.179H113.266V220.913H138.297V225.741H132.25V232.257H141.812ZM118.562 232.257H126.391V225.741H118.562V232.257Z" fill="white"/>
<path d="M158.981 237.749C158.981 234.444 159.966 231.685 161.618 229.329H163.728C162.515 231.069 161.302 234.603 161.302 237.749C161.302 240.896 162.515 244.429 163.728 246.187H161.618C159.966 243.813 158.981 241.071 158.981 237.749ZM181.569 228.292V233.284H183.784V234.901H181.569V240.157H179.618V228.292H181.569ZM178.476 230.05V231.614H169.054V230.05H172.798V228.274H174.749V230.05H178.476ZM173.765 232.265C176.05 232.265 177.632 233.478 177.649 235.306C177.632 237.116 176.05 238.312 173.765 238.312C171.462 238.312 169.862 237.116 169.862 235.306C169.862 233.478 171.462 232.265 173.765 232.265ZM173.765 233.776C172.552 233.776 171.761 234.339 171.761 235.306C171.761 236.255 172.552 236.817 173.765 236.8C174.978 236.817 175.786 236.255 175.786 235.306C175.786 234.339 174.978 233.776 173.765 233.776ZM182.202 242.267V243.849H171.392V239.226H173.343V242.267H182.202ZM190.604 232.089C190.587 235.007 192.116 237.925 194.7 239.032L193.54 240.597C191.712 239.753 190.367 238.065 189.638 235.991C188.908 238.232 187.546 240.061 185.612 240.966L184.417 239.331C187.071 238.188 188.618 235.147 188.618 232.089V229.558H190.604V232.089ZM197.812 228.274V244.183H195.843V228.274H197.812ZM205.985 230.999C205.985 232.933 207.269 234.884 209.729 235.71L208.745 237.222C206.97 236.642 205.713 235.438 205.019 233.952C204.324 235.613 202.997 236.949 201.116 237.573L200.114 236.026C202.646 235.2 203.999 233.091 203.999 231.017V230.806H200.694V229.241H209.272V230.806H205.985V230.999ZM213.456 238.505V244.165H211.505V240.069H202.628V238.505H213.456ZM213.456 228.274V237.749H211.505V233.812H208.798V232.212H211.505V228.274H213.456ZM222.931 229.171C226.288 229.171 228.854 230.946 228.854 233.653C228.854 236.396 226.288 238.171 222.931 238.171C219.591 238.171 217.024 236.396 217.042 233.653C217.024 230.946 219.591 229.171 222.931 229.171ZM222.931 230.753C220.628 230.735 218.923 231.896 218.923 233.653C218.923 235.446 220.628 236.571 222.931 236.571C225.251 236.571 226.938 235.446 226.938 233.653C226.938 231.896 225.251 230.735 222.931 230.753ZM230.226 240.562V242.161H215.706V240.562H230.226ZM245.782 240.702V242.319H231.263V240.702H237.521V238.118H232.985V232.915H242.126V230.946H232.95V229.364H244.06V234.462H234.937V236.519H244.429V238.118H239.454V240.702H245.782ZM255.819 237.749C255.819 241.071 254.835 243.813 253.183 246.187H251.073C252.286 244.429 253.499 240.896 253.499 237.749C253.499 234.603 252.286 231.069 251.073 229.329H253.183C254.835 231.685 255.819 234.444 255.819 237.749Z" fill="white" fill-opacity="0.64"/>
<path d="M399.787 229.874L403.092 239.911H403.232L406.555 229.874H409.068L404.568 242.601H401.756L397.273 229.874H399.787ZM410.703 242.601H408.26L412.742 229.874H415.555L420.055 242.601H417.611L416.557 239.454H411.758L410.703 242.601ZM412.373 237.608H415.941L414.201 232.476H414.096L412.373 237.608ZM419.457 231.79V229.874H429.6V231.79H425.68V242.601H423.395V231.79H419.457ZM448.32 228.274V236.483H446.369V234.761H443.17V235.974H435.734V228.978H437.686V230.981H441.236V228.978H443.17V230.384H446.369V228.274H448.32ZM448.32 237.134V241.212H439.812V242.425H448.83V243.972H437.861V239.771H446.369V238.663H437.844V237.134H448.32ZM437.686 234.427H441.236V232.476H437.686V234.427ZM443.17 233.267H446.369V231.86H443.17V233.267ZM463.473 235.499V237.046H458.762V240.685H465.09V242.284H450.57V240.685H456.828V237.046H452.328V229.452H463.35V231.017H454.279V235.499H463.473Z" fill="#5549E5"/>
</g>
<defs>
<filter id="filter0_d_4766_1882" x="-1.90735e-06" y="0" width="528" height="332" filterUnits="userSpaceOnUse" color-interpolation-filters="sRGB">
<feFlood flood-opacity="0" result="BackgroundImageFix"/>
<feColorMatrix in="SourceAlpha" type="matrix" values="0 0 0 0 0 0 0 0 0 0 0 0 0 0 0 0 0 0 127 0" result="hardAlpha"/>
<feOffset dy="24"/>
<feGaussianBlur stdDeviation="12"/>
<feComposite in2="hardAlpha" operator="out"/>
<feColorMatrix type="matrix" values="0 0 0 0 0.431373 0 0 0 0 0.443137 0 0 0 0 0.984314 0 0 0 0.24 0"/>
<feBlend mode="normal" in2="BackgroundImageFix" result="effect1_dropShadow_4766_1882"/>
<feBlend mode="normal" in="SourceGraphic" in2="effect1_dropShadow_4766_1882" result="shape"/>
</filter>
<linearGradient id="paint0_linear_4766_1882" x1="24" y1="0" x2="486.369" y2="300.072" gradientUnits="userSpaceOnUse">
<stop stop-color="#2E78F2"/>
<stop offset="1" stop-color="#826EFD"/>
</linearGradient>
<linearGradient id="paint1_linear_4766_1882" x1="24" y1="7.21544" x2="493.994" y2="300.333" gradientUnits="userSpaceOnUse">
<stop stop-color="white"/>
<stop offset="0.505" stop-color="#439CEF"/>
<stop offset="1" stop-color="white"/>
</linearGradient>
</defs>
</svg>
