<svg width="932" height="386" viewBox="0 0 932 386" fill="none" xmlns="http://www.w3.org/2000/svg">
<mask id="path-1-outside-1_4047_22931" maskUnits="userSpaceOnUse" x="441" y="0" width="491" height="33" fill="black">
<rect fill="white" x="441" width="491" height="33"/>
<path d="M441 1H931V33H441V1Z"/>
</mask>
<path d="M441 1H931V33H441V1Z" fill="#EEF6FF"/>
<path d="M931 1H932V0H931V1ZM441 2H931V0H441V2ZM930 1V33H932V1H930Z" fill="#DDDDDD" mask="url(#path-1-outside-1_4047_22931)"/>
<path d="M685.328 11.4492V22.043H684.016V11.4492H685.328ZM682.164 12.5742C682.164 15.7266 680.945 18.4102 677.23 20.168L676.551 19.125C679.322 17.8066 680.611 16.0137 680.84 13.6055H677.09V12.5742H682.164ZM695.641 11.9297V12.9727H692.57C692.688 13.9688 693.982 14.918 696.027 15.1641L695.535 16.1953C693.637 15.9668 692.236 15.1289 691.668 13.9805C691.1 15.123 689.711 15.9668 687.812 16.1953L687.332 15.1641C689.377 14.918 690.654 13.9688 690.777 12.9727H687.73V11.9297H695.641ZM696.52 16.7812V17.8359H692.43V19.7695H691.141V17.8359H686.84V16.7812H696.52ZM695.453 20.7773V21.832H688.012V18.7969H689.312V20.7773H695.453Z" fill="black"/>
<mask id="path-4-outside-2_4047_22931" maskUnits="userSpaceOnUse" x="0" y="0" width="442" height="33" fill="black">
<rect fill="white" width="442" height="33"/>
<path d="M1 1H441V33H1V1Z"/>
</mask>
<path d="M1 1H441V33H1V1Z" fill="#EEF6FF"/>
<path d="M1 1V0H0V1H1ZM441 1H442V0H441V1ZM1 2H441V0H1V2ZM440 1V33H442V1H440ZM2 33V1H0V33H2Z" fill="#DDDDDD" mask="url(#path-4-outside-2_4047_22931)"/>
<path d="M219.953 12.0938V13.043C219.953 14.0332 219.953 15.1172 219.672 16.6172H221.137V17.6719H216.93V22.0547H215.617V17.6719H211.48V16.6172H218.348C218.641 15.1758 218.652 14.0977 218.652 13.1484H212.617V12.0938H219.953ZM231.52 16.9336V17.9766H227.43V19.8047H226.141V17.9766H221.84V16.9336H231.52ZM230.453 20.7773V21.832H223.012V18.9141H224.301V20.7773H230.453ZM224.395 11.7891V12.9844H228.965V11.7891H230.254V16.1016H223.105V11.7891H224.395ZM224.395 15.0703H228.965V13.957H224.395V15.0703Z" fill="black"/>
<mask id="path-7-outside-3_4047_22931" maskUnits="userSpaceOnUse" x="441" y="32" width="491" height="194" fill="black">
<rect fill="white" x="441" y="32" width="491" height="194"/>
<path d="M441 33H931V225H441V33Z"/>
</mask>
<path d="M441 33H931V225H441V33Z" fill="white"/>
<path d="M931 33H932V32H931V33ZM931 225V226H932V225H931ZM441 34H931V32H441V34ZM930 33V225H932V33H930ZM931 224H441V226H931V224Z" fill="#DDDDDD" mask="url(#path-7-outside-3_4047_22931)"/>
<path d="M663.734 113.43V114.238C663.734 115.029 663.734 115.938 663.512 117.121H664.918V118.176H660.711V119.828H663.758V123.543H662.457V120.871H656.223V119.828H659.41V118.176H655.238V117.121H662.199C662.41 116.037 662.434 115.211 662.434 114.473H656.434V113.43H663.734ZM671.258 113.828V118.867H666.148V113.828H671.258ZM667.438 114.871V117.824H669.969V114.871H667.438ZM674.434 112.961V120.52H673.121V112.961H674.434ZM674.727 122.207V123.262H667.426V119.805H668.738V122.207H674.727ZM684.852 112.961V120.73H683.551V117.168H681.512V116.09H683.551V112.961H684.852ZM681.582 113.758C681.582 116.547 679.73 118.645 676.672 119.617L676.121 118.574C678.406 117.848 679.912 116.5 680.164 114.824H676.672V113.758H681.582ZM685.121 122.277V123.332H677.949V119.945H679.273V122.277H685.121ZM694.707 112.949V115.527H696.184V116.594H694.707V119.16H693.406V112.949H694.707ZM691.777 113.676C691.777 116.465 689.961 118.434 686.832 119.324L686.316 118.27C688.719 117.613 690.143 116.318 690.371 114.73H686.797V113.676H691.777ZM691.285 119.289C693.43 119.289 694.824 120.109 694.824 121.41C694.824 122.734 693.43 123.531 691.285 123.531C689.152 123.531 687.734 122.734 687.746 121.41C687.734 120.109 689.152 119.289 691.285 119.289ZM691.285 120.309C689.891 120.309 689.023 120.707 689.035 121.41C689.023 122.102 689.891 122.512 691.285 122.512C692.68 122.512 693.547 122.102 693.547 121.41C693.547 120.707 692.68 120.309 691.285 120.309ZM706.402 121.199V122.266H696.723V121.199H700.895V119.137H697.789V113.652H699.09V115.387H704V113.652H705.301V119.137H702.184V121.199H706.402ZM699.09 118.082H704V116.43H699.09V118.082ZM715.965 112.949V119.359H714.664V117.168H713.152V116.09H714.664V112.949H715.965ZM715.965 119.84V123.414H708.922V119.84H715.965ZM710.223 120.871V122.359H714.688V120.871H710.223ZM713.328 113.934V114.988H707.117V113.934H709.578V112.867H710.867V113.934H713.328ZM710.223 115.398C711.699 115.398 712.73 116.184 712.742 117.297C712.73 118.445 711.699 119.195 710.223 119.195C708.758 119.195 707.715 118.445 707.715 117.297C707.715 116.184 708.758 115.398 710.223 115.398ZM710.223 116.383C709.461 116.383 708.957 116.734 708.957 117.297C708.957 117.883 709.461 118.223 710.223 118.223C710.984 118.223 711.488 117.883 711.488 117.297C711.488 116.734 710.984 116.383 710.223 116.383ZM654.547 142.188V143.254H644.867V142.188H647.105V139.504C646.262 139.023 645.752 138.268 645.758 137.324C645.746 135.637 647.41 134.523 649.684 134.523C651.969 134.523 653.633 135.637 653.633 137.324C653.633 138.25 653.141 138.994 652.32 139.48V142.188H654.547ZM649.684 135.555C648.102 135.555 647.023 136.223 647.035 137.324C647.023 138.414 648.102 139.094 649.684 139.094C651.266 139.094 652.355 138.414 652.355 137.324C652.355 136.223 651.266 135.555 649.684 135.555ZM648.395 142.188H650.996V139.973C650.592 140.066 650.152 140.113 649.684 140.113C649.227 140.113 648.793 140.066 648.395 139.984V142.188ZM665.035 135.367V136.434H663.594V137.641H665.035V138.719H663.594V140.172H662.293V133.949H663.594V135.367H665.035ZM658.215 134.559C659.844 134.547 661.062 135.59 661.074 137.09C661.062 138.578 659.844 139.621 658.215 139.633C656.574 139.621 655.344 138.578 655.355 137.09C655.344 135.59 656.574 134.547 658.215 134.559ZM658.215 135.648C657.301 135.648 656.621 136.223 656.633 137.09C656.621 137.969 657.301 138.52 658.215 138.531C659.117 138.52 659.797 137.969 659.797 137.09C659.797 136.223 659.117 135.648 658.215 135.648ZM660.148 140.418C662.316 140.418 663.688 141.191 663.699 142.48C663.688 143.77 662.316 144.531 660.148 144.531C657.957 144.531 656.562 143.77 656.562 142.48C656.562 141.191 657.957 140.418 660.148 140.418ZM660.148 141.461C658.695 141.461 657.863 141.812 657.863 142.48C657.863 143.148 658.695 143.488 660.148 143.488C661.602 143.488 662.41 143.148 662.41 142.48C662.41 141.812 661.602 141.461 660.148 141.461ZM674.457 133.949V144.543H673.145V133.949H674.457ZM671.293 135.074C671.293 138.227 670.074 140.91 666.359 142.668L665.68 141.625C668.451 140.307 669.74 138.514 669.969 136.105H666.219V135.074H671.293ZM681.898 134.734V135.367C681.887 136.094 681.887 137.137 681.641 138.484L680.352 138.367C680.557 137.271 680.598 136.463 680.621 135.812H676.496V134.734H681.898ZM679.227 137.148V139.258C680.322 139.217 681.447 139.135 682.473 138.988L682.543 139.926C680.34 140.324 677.844 140.359 675.98 140.371L675.863 139.328C676.49 139.322 677.193 139.316 677.938 139.305V137.148H679.227ZM684.43 133.949V137.254H685.801V138.344H684.43V141.883H683.094V133.949H684.43ZM684.77 143.277V144.332H677.445V141.18H678.758V143.277H684.77ZM695.223 133.949V140.242H693.922V137.652H692.117V136.586H693.922V133.949H695.223ZM691.637 140.512C693.887 140.512 695.258 141.25 695.258 142.527C695.258 143.805 693.887 144.543 691.637 144.543C689.398 144.543 688.027 143.805 688.039 142.527C688.027 141.25 689.398 140.512 691.637 140.512ZM691.637 141.508C690.16 141.508 689.328 141.859 689.328 142.527C689.328 143.184 690.16 143.535 691.637 143.535C693.113 143.535 693.957 143.184 693.957 142.527C693.957 141.859 693.113 141.508 691.637 141.508ZM690.242 135.766C690.242 137.055 691.098 138.355 692.738 138.906L692.082 139.938C690.904 139.539 690.066 138.73 689.609 137.734C689.141 138.865 688.256 139.768 686.996 140.219L686.316 139.188C688.016 138.602 688.918 137.172 688.918 135.777V135.695H686.715V134.641H692.434V135.695H690.242V135.766ZM706.402 142.199V143.266H696.723V142.199H700.895V140.137H697.789V134.652H699.09V136.387H704V134.652H705.301V140.137H702.184V142.199H706.402ZM699.09 139.082H704V137.43H699.09V139.082ZM712.484 134.98V141.918H707.469V134.98H712.484ZM708.746 136V140.875H711.184V136H708.746ZM715.391 133.949V138.016H717.02V139.117H715.391V144.543H714.09V133.949H715.391ZM725.832 133.949V136.551H727.297V137.617H725.832V140.137H724.52V133.949H725.832ZM722.375 140.336C724.543 140.336 725.914 141.109 725.926 142.422C725.914 143.758 724.543 144.531 722.375 144.531C720.184 144.531 718.789 143.758 718.789 142.422C718.789 141.109 720.184 140.336 722.375 140.336ZM722.375 141.379C720.922 141.379 720.066 141.742 720.078 142.422C720.066 143.113 720.922 143.488 722.375 143.488C723.805 143.488 724.66 143.113 724.66 142.422C724.66 141.742 723.805 141.379 722.375 141.379ZM722.621 134.699V135.754H719.164V138.414C721.191 138.408 722.322 138.35 723.57 138.086L723.699 139.129C722.328 139.422 721.074 139.469 718.73 139.469H717.875V134.699H722.621Z" fill="black"/>
<mask id="path-10-outside-4_4047_22931" maskUnits="userSpaceOnUse" x="221" y="32" width="221" height="33" fill="black">
<rect fill="white" x="221" y="32" width="221" height="33"/>
<path d="M221 33H441V65H221V33Z"/>
</mask>
<path d="M221 33H441V65H221V33Z" fill="#EEF6FF"/>
<path d="M441 33H442V32H441V33ZM221 34H441V32H221V34ZM440 33V65H442V33H440Z" fill="#DDDDDD" mask="url(#path-10-outside-4_4047_22931)"/>
<path d="M313.152 43.8477V44.9961H317.723V43.8477H319.012V48.1484H316.082V49.1211H320.266V50.1758H310.609V49.1211H314.77V48.1484H311.863V43.8477H313.152ZM313.152 47.1055H317.723V46.0039H313.152V47.1055ZM319.176 52.7773V53.832H311.805V50.8555H313.105V52.7773H319.176ZM329.805 43.4609V51.1133H328.492V43.4609H329.805ZM330.098 52.7773V53.832H322.797V50.3398H324.109V52.7773H330.098ZM324.027 44.1523C325.633 44.1523 326.875 45.2656 326.875 46.8008C326.875 48.3711 325.633 49.4609 324.027 49.4609C322.41 49.4609 321.168 48.3711 321.168 46.8008C321.168 45.2656 322.41 44.1523 324.027 44.1523ZM324.027 45.2891C323.125 45.2891 322.434 45.8867 322.445 46.8008C322.434 47.7383 323.125 48.3242 324.027 48.3242C324.906 48.3242 325.598 47.7383 325.598 46.8008C325.598 45.8867 324.906 45.2891 324.027 45.2891ZM341.02 49.6133V50.6445H336.801V54.043H335.512V50.6445H331.34V49.6133H341.02ZM333.801 43.8711V45.1719H338.535V43.8711H339.848V48.5117H332.512V43.8711H333.801ZM333.801 47.457H338.535V46.2031H333.801V47.457ZM350.078 43.4492V45.9102H351.555V46.9883H350.078V49.4141H348.777V43.4492H350.078ZM346.879 44.1289V45.1836H343.457V47.8906C345.449 47.8906 346.557 47.8145 347.816 47.5625L347.957 48.5938C346.574 48.8984 345.332 48.9453 343.023 48.9453H342.168V44.1289H346.879ZM350.078 49.8945V53.9023H343.234V49.8945H350.078ZM344.523 50.9375V52.8711H348.789V50.9375H344.523Z" fill="black"/>
<mask id="path-13-outside-5_4047_22931" maskUnits="userSpaceOnUse" x="221" y="64" width="221" height="33" fill="black">
<rect fill="white" x="221" y="64" width="221" height="33"/>
<path d="M221 65H441V97H221V65Z"/>
</mask>
<path d="M221 65H441V97H221V65Z" fill="#EEF6FF"/>
<path d="M441 65H442V64H441V65ZM221 66H441V64H221V66ZM440 65V97H442V65H440Z" fill="#DDDDDD" mask="url(#path-13-outside-5_4047_22931)"/>
<path d="M315.379 82.0703C317.676 82.082 319.129 82.8086 319.141 84.0625C319.129 85.293 317.676 86.0312 315.379 86.0312C313.094 86.0312 311.629 85.293 311.629 84.0625C311.629 82.8086 313.094 82.082 315.379 82.0703ZM315.379 83.0547C313.855 83.0547 312.93 83.418 312.941 84.0625C312.93 84.6836 313.855 85.0234 315.379 85.0234C316.914 85.0234 317.84 84.6836 317.852 84.0625C317.84 83.418 316.914 83.0547 315.379 83.0547ZM319.07 75.9531V76.832C319.07 77.6641 319.07 78.5547 318.777 79.6445L317.488 79.5273C317.752 78.4961 317.77 77.752 317.77 76.9844H311.734V75.9531H319.07ZM320.242 80.2539V81.3086H310.633V80.2539H314.359V78.332H315.648V80.2539H320.242ZM329.336 75.4492V78.4258H330.824V79.5039H329.336V83.1133H328.035V75.4492H329.336ZM326.172 76.3281V77.3711H322.715V80.2539C324.707 80.2598 325.814 80.1895 327.074 79.9258L327.215 80.9805C325.832 81.25 324.59 81.3203 322.281 81.3203H321.426V76.3281H326.172ZM329.758 84.7773V85.832H322.551V82.3047H323.852V84.7773H329.758ZM341.02 81.6133V82.6445H336.801V86.043H335.512V82.6445H331.34V81.6133H341.02ZM333.801 75.8711V77.1719H338.535V75.8711H339.848V80.5117H332.512V75.8711H333.801ZM333.801 79.457H338.535V78.2031H333.801V79.457ZM350.078 75.4492V77.9102H351.555V78.9883H350.078V81.4141H348.777V75.4492H350.078ZM346.879 76.1289V77.1836H343.457V79.8906C345.449 79.8906 346.557 79.8145 347.816 79.5625L347.957 80.5938C346.574 80.8984 345.332 80.9453 343.023 80.9453H342.168V76.1289H346.879ZM350.078 81.8945V85.9023H343.234V81.8945H350.078ZM344.523 82.9375V84.8711H348.789V82.9375H344.523Z" fill="black"/>
<mask id="path-16-outside-6_4047_22931" maskUnits="userSpaceOnUse" x="221" y="96" width="221" height="33" fill="black">
<rect fill="white" x="221" y="96" width="221" height="33"/>
<path d="M221 97H441V129H221V97Z"/>
</mask>
<path d="M221 97H441V129H221V97Z" fill="#EEF6FF"/>
<path d="M441 97H442V96H441V97ZM221 98H441V96H221V98ZM440 97V129H442V97H440Z" fill="#DDDDDD" mask="url(#path-16-outside-6_4047_22931)"/>
<path d="M319.342 112.816V113.871H309.686V112.816H313.857V111.691H315.146V112.816H319.342ZM315.146 107.473V108.434H318.393V109.465H315.252C315.41 110.332 316.658 111.059 318.861 111.211L318.463 112.207C316.564 112.061 315.164 111.469 314.502 110.555C313.84 111.469 312.428 112.061 310.541 112.207L310.143 111.211C312.334 111.059 313.582 110.332 313.752 109.465H310.635V108.434H313.857V107.473H315.146ZM314.502 114.457C316.811 114.457 318.158 115.09 318.17 116.25C318.158 117.398 316.811 118.031 314.502 118.031C312.182 118.031 310.811 117.398 310.811 116.25C310.811 115.09 312.182 114.457 314.502 114.457ZM314.502 115.43C312.943 115.43 312.123 115.699 312.135 116.25C312.123 116.789 312.943 117.059 314.502 117.059C316.025 117.059 316.857 116.789 316.869 116.25C316.857 115.699 316.025 115.43 314.502 115.43ZM326.924 109.605C326.924 110.918 327.826 112.207 329.514 112.734L328.846 113.754C327.645 113.361 326.771 112.57 326.291 111.562C325.811 112.658 324.914 113.531 323.654 113.965L322.986 112.934C324.686 112.371 325.6 111 325.611 109.605V109.301H323.326V108.258H329.15V109.301H326.924V109.605ZM331.729 107.461V115.148H330.416V107.461H331.729ZM332.021 116.777V117.832H324.721V114.445H326.033V116.777H332.021ZM342.955 115.734V116.812H333.275V115.734H335.842V113.988H334.424V110.531H340.518V109.23H334.4V108.176H341.807V111.574H335.725V112.934H342.053V113.988H340.506V115.734H342.955ZM337.107 115.734H339.229V113.988H337.107V115.734ZM352.459 107.449V118.055H351.146V107.449H352.459ZM345.51 108.316V110.965H348.076V108.316H349.365V115.559H344.209V108.316H345.51ZM345.51 114.492H348.076V111.984H345.51V114.492Z" fill="black"/>
<mask id="path-19-outside-7_4047_22931" maskUnits="userSpaceOnUse" x="221" y="128" width="221" height="33" fill="black">
<rect fill="white" x="221" y="128" width="221" height="33"/>
<path d="M221 129H441V161H221V129Z"/>
</mask>
<path d="M221 129H441V161H221V129Z" fill="#EEF6FF"/>
<path d="M441 129H442V128H441V129ZM221 130H441V128H221V130ZM440 129V161H442V129H440Z" fill="#DDDDDD" mask="url(#path-19-outside-7_4047_22931)"/>
<path d="M313.152 139.848V140.996H317.723V139.848H319.012V144.148H316.082V145.121H320.266V146.176H310.609V145.121H314.77V144.148H311.863V139.848H313.152ZM313.152 143.105H317.723V142.004H313.152V143.105ZM319.176 148.777V149.832H311.805V146.855H313.105V148.777H319.176ZM329.805 139.461V147.113H328.492V139.461H329.805ZM330.098 148.777V149.832H322.797V146.34H324.109V148.777H330.098ZM324.027 140.152C325.633 140.152 326.875 141.266 326.875 142.801C326.875 144.371 325.633 145.461 324.027 145.461C322.41 145.461 321.168 144.371 321.168 142.801C321.168 141.266 322.41 140.152 324.027 140.152ZM324.027 141.289C323.125 141.289 322.434 141.887 322.445 142.801C322.434 143.738 323.125 144.324 324.027 144.324C324.906 144.324 325.598 143.738 325.598 142.801C325.598 141.887 324.906 141.289 324.027 141.289ZM341.02 145.613V146.645H336.801V150.043H335.512V146.645H331.34V145.613H341.02ZM333.801 139.871V141.172H338.535V139.871H339.848V144.512H332.512V139.871H333.801ZM333.801 143.457H338.535V142.203H333.801V143.457ZM350.078 139.449V141.91H351.555V142.988H350.078V145.414H348.777V139.449H350.078ZM346.879 140.129V141.184H343.457V143.891C345.449 143.891 346.557 143.814 347.816 143.562L347.957 144.594C346.574 144.898 345.332 144.945 343.023 144.945H342.168V140.129H346.879ZM350.078 145.895V149.902H343.234V145.895H350.078ZM344.523 146.938V148.871H348.789V146.938H344.523Z" fill="black"/>
<mask id="path-22-outside-8_4047_22931" maskUnits="userSpaceOnUse" x="221" y="160" width="221" height="33" fill="black">
<rect fill="white" x="221" y="160" width="221" height="33"/>
<path d="M221 161H441V193H221V161Z"/>
</mask>
<path d="M221 161H441V193H221V161Z" fill="#EEF6FF"/>
<path d="M441 161H442V160H441V161ZM221 162H441V160H221V162ZM440 161V193H442V161H440Z" fill="#DDDDDD" mask="url(#path-22-outside-8_4047_22931)"/>
<path d="M315.379 178.07C317.676 178.082 319.129 178.809 319.141 180.062C319.129 181.293 317.676 182.031 315.379 182.031C313.094 182.031 311.629 181.293 311.629 180.062C311.629 178.809 313.094 178.082 315.379 178.07ZM315.379 179.055C313.855 179.055 312.93 179.418 312.941 180.062C312.93 180.684 313.855 181.023 315.379 181.023C316.914 181.023 317.84 180.684 317.852 180.062C317.84 179.418 316.914 179.055 315.379 179.055ZM319.07 171.953V172.832C319.07 173.664 319.07 174.555 318.777 175.645L317.488 175.527C317.752 174.496 317.77 173.752 317.77 172.984H311.734V171.953H319.07ZM320.242 176.254V177.309H310.633V176.254H314.359V174.332H315.648V176.254H320.242ZM329.336 171.449V174.426H330.824V175.504H329.336V179.113H328.035V171.449H329.336ZM326.172 172.328V173.371H322.715V176.254C324.707 176.26 325.814 176.189 327.074 175.926L327.215 176.98C325.832 177.25 324.59 177.32 322.281 177.32H321.426V172.328H326.172ZM329.758 180.777V181.832H322.551V178.305H323.852V180.777H329.758ZM341.02 177.613V178.645H336.801V182.043H335.512V178.645H331.34V177.613H341.02ZM333.801 171.871V173.172H338.535V171.871H339.848V176.512H332.512V171.871H333.801ZM333.801 175.457H338.535V174.203H333.801V175.457ZM350.078 171.449V173.91H351.555V174.988H350.078V177.414H348.777V171.449H350.078ZM346.879 172.129V173.184H343.457V175.891C345.449 175.891 346.557 175.814 347.816 175.562L347.957 176.594C346.574 176.898 345.332 176.945 343.023 176.945H342.168V172.129H346.879ZM350.078 177.895V181.902H343.234V177.895H350.078ZM344.523 178.938V180.871H348.789V178.938H344.523Z" fill="black"/>
<mask id="path-25-outside-9_4047_22931" maskUnits="userSpaceOnUse" x="221" y="192" width="221" height="33" fill="black">
<rect fill="white" x="221" y="192" width="221" height="33"/>
<path d="M221 193H441V225H221V193Z"/>
</mask>
<path d="M221 193H441V225H221V193Z" fill="#EEF6FF"/>
<path d="M441 193H442V192H441V193ZM221 194H441V192H221V194ZM440 193V225H442V193H440Z" fill="#DDDDDD" mask="url(#path-25-outside-9_4047_22931)"/>
<path d="M319.342 208.816V209.871H309.686V208.816H313.857V207.691H315.146V208.816H319.342ZM315.146 203.473V204.434H318.393V205.465H315.252C315.41 206.332 316.658 207.059 318.861 207.211L318.463 208.207C316.564 208.061 315.164 207.469 314.502 206.555C313.84 207.469 312.428 208.061 310.541 208.207L310.143 207.211C312.334 207.059 313.582 206.332 313.752 205.465H310.635V204.434H313.857V203.473H315.146ZM314.502 210.457C316.811 210.457 318.158 211.09 318.17 212.25C318.158 213.398 316.811 214.031 314.502 214.031C312.182 214.031 310.811 213.398 310.811 212.25C310.811 211.09 312.182 210.457 314.502 210.457ZM314.502 211.43C312.943 211.43 312.123 211.699 312.135 212.25C312.123 212.789 312.943 213.059 314.502 213.059C316.025 213.059 316.857 212.789 316.869 212.25C316.857 211.699 316.025 211.43 314.502 211.43ZM326.924 205.605C326.924 206.918 327.826 208.207 329.514 208.734L328.846 209.754C327.645 209.361 326.771 208.57 326.291 207.562C325.811 208.658 324.914 209.531 323.654 209.965L322.986 208.934C324.686 208.371 325.6 207 325.611 205.605V205.301H323.326V204.258H329.15V205.301H326.924V205.605ZM331.729 203.461V211.148H330.416V203.461H331.729ZM332.021 212.777V213.832H324.721V210.445H326.033V212.777H332.021ZM342.955 211.734V212.812H333.275V211.734H335.842V209.988H334.424V206.531H340.518V205.23H334.4V204.176H341.807V207.574H335.725V208.934H342.053V209.988H340.506V211.734H342.955ZM337.107 211.734H339.229V209.988H337.107V211.734ZM352.459 203.449V214.055H351.146V203.449H352.459ZM345.51 204.316V206.965H348.076V204.316H349.365V211.559H344.209V204.316H345.51ZM345.51 210.492H348.076V207.984H345.51V210.492Z" fill="black"/>
<mask id="path-28-outside-10_4047_22931" maskUnits="userSpaceOnUse" x="0" y="32" width="222" height="97" fill="black">
<rect fill="white" y="32" width="222" height="97"/>
<path d="M1 33H221V129H1V33Z"/>
</mask>
<path d="M1 33H221V129H1V33Z" fill="#EEF6FF"/>
<path d="M1 33V32H0V33H1ZM221 33H222V32H221V33ZM1 34H221V32H1V34ZM220 33V129H222V33H220ZM2 129V33H0V129H2Z" fill="#DDDDDD" mask="url(#path-28-outside-10_4047_22931)"/>
<path d="M100.289 83.6875V84.7539H90.6094V83.6875H92.8477V81.0039C92.0039 80.5234 91.4941 79.7676 91.5 78.8242C91.4883 77.1367 93.1523 76.0234 95.4258 76.0234C97.7109 76.0234 99.375 77.1367 99.375 78.8242C99.375 79.75 98.8828 80.4941 98.0625 80.9805V83.6875H100.289ZM95.4258 77.0547C93.8438 77.0547 92.7656 77.7227 92.7773 78.8242C92.7656 79.9141 93.8438 80.5938 95.4258 80.5938C97.0078 80.5938 98.0977 79.9141 98.0977 78.8242C98.0977 77.7227 97.0078 77.0547 95.4258 77.0547ZM94.1367 83.6875H96.7383V81.4727C96.334 81.5664 95.8945 81.6133 95.4258 81.6133C94.9688 81.6133 94.5352 81.5664 94.1367 81.4844V83.6875ZM110.777 76.8672V77.9336H109.336V79.1406H110.777V80.2188H109.336V81.6719H108.035V75.4492H109.336V76.8672H110.777ZM103.957 76.0586C105.586 76.0469 106.805 77.0898 106.816 78.5898C106.805 80.0781 105.586 81.1211 103.957 81.1328C102.316 81.1211 101.086 80.0781 101.098 78.5898C101.086 77.0898 102.316 76.0469 103.957 76.0586ZM103.957 77.1484C103.043 77.1484 102.363 77.7227 102.375 78.5898C102.363 79.4688 103.043 80.0195 103.957 80.0312C104.859 80.0195 105.539 79.4688 105.539 78.5898C105.539 77.7227 104.859 77.1484 103.957 77.1484ZM105.891 81.918C108.059 81.918 109.43 82.6914 109.441 83.9805C109.43 85.2695 108.059 86.0312 105.891 86.0312C103.699 86.0312 102.305 85.2695 102.305 83.9805C102.305 82.6914 103.699 81.918 105.891 81.918ZM105.891 82.9609C104.438 82.9609 103.605 83.3125 103.605 83.9805C103.605 84.6484 104.438 84.9883 105.891 84.9883C107.344 84.9883 108.152 84.6484 108.152 83.9805C108.152 83.3125 107.344 82.9609 105.891 82.9609ZM113.824 81.4844V82.7031H118.523V81.4844H119.812V85.9141H112.547V81.4844H113.824ZM113.824 84.8594H118.523V83.7109H113.824V84.8594ZM119.848 75.9062V76.7266C119.848 77.5293 119.848 78.4141 119.59 79.6562H121.031V80.6992H111.352V79.6562H118.301C118.523 78.5371 118.547 77.6934 118.547 76.9492H112.547V75.9062H119.848ZM124.617 76.2227C125.578 76.2227 126.369 76.7559 126.844 77.6875H129.316V75.4492H130.605V86.0547H129.316V82.0469H126.938C126.48 83.1016 125.643 83.7109 124.617 83.7109C123.023 83.7109 121.898 82.2695 121.898 79.9609C121.898 77.6758 123.023 76.2227 124.617 76.2227ZM124.617 77.3945C123.738 77.3945 123.141 78.3438 123.152 79.9609C123.141 81.5898 123.738 82.5391 124.617 82.5391C125.496 82.5391 126.082 81.5898 126.094 79.9609C126.082 78.3438 125.496 77.3945 124.617 77.3945ZM127.207 78.7539C127.283 79.123 127.324 79.5273 127.324 79.9609C127.324 80.3301 127.295 80.6699 127.242 80.9922H129.316V78.7539H127.207Z" fill="black"/>
<mask id="path-31-outside-11_4047_22931" maskUnits="userSpaceOnUse" x="0" y="128" width="222" height="97" fill="black">
<rect fill="white" y="128" width="222" height="97"/>
<path d="M1 129H221V225H1V129Z"/>
</mask>
<path d="M1 129H221V225H1V129Z" fill="#EEF6FF"/>
<path d="M1 129V128H0V129H1ZM221 129H222V128H221V129ZM1 130H221V128H1V130ZM220 129V225H222V129H220ZM2 225V129H0V225H2Z" fill="#DDDDDD" mask="url(#path-31-outside-11_4047_22931)"/>
<path d="M94.043 172.188C95.7188 172.176 96.9492 173.242 96.9609 174.742C96.9492 176.254 95.7188 177.309 94.043 177.309C92.3789 177.309 91.1367 176.254 91.1367 174.742C91.1367 173.242 92.3789 172.176 94.043 172.188ZM94.043 173.312C93.1172 173.312 92.4258 173.863 92.4258 174.742C92.4258 175.633 93.1172 176.172 94.043 176.172C94.9805 176.172 95.6836 175.633 95.6836 174.742C95.6836 173.863 94.9805 173.312 94.043 173.312ZM99.4336 171.449V182.055H98.1328V171.449H99.4336ZM90.6562 178.773C92.5664 178.773 95.2148 178.75 97.5 178.422L97.6055 179.371C95.2266 179.828 92.6836 179.84 90.8203 179.84L90.6562 178.773ZM110.66 179.734V180.812H100.98V179.734H103.547V177.988H102.129V174.531H108.223V173.23H102.105V172.176H109.512V175.574H103.43V176.934H109.758V177.988H108.211V179.734H110.66ZM104.812 179.734H106.934V177.988H104.812V179.734ZM113.824 177.484V178.703H118.523V177.484H119.812V181.914H112.547V177.484H113.824ZM113.824 180.859H118.523V179.711H113.824V180.859ZM119.848 171.906V172.727C119.848 173.529 119.848 174.414 119.59 175.656H121.031V176.699H111.352V175.656H118.301C118.523 174.537 118.547 173.693 118.547 172.949H112.547V171.906H119.848ZM124.617 172.223C125.578 172.223 126.369 172.756 126.844 173.688H129.316V171.449H130.605V182.055H129.316V178.047H126.938C126.48 179.102 125.643 179.711 124.617 179.711C123.023 179.711 121.898 178.27 121.898 175.961C121.898 173.676 123.023 172.223 124.617 172.223ZM124.617 173.395C123.738 173.395 123.141 174.344 123.152 175.961C123.141 177.59 123.738 178.539 124.617 178.539C125.496 178.539 126.082 177.59 126.094 175.961C126.082 174.344 125.496 173.395 124.617 173.395ZM127.207 174.754C127.283 175.123 127.324 175.527 127.324 175.961C127.324 176.33 127.295 176.67 127.242 176.992H129.316V174.754H127.207Z" fill="black"/>
<mask id="path-34-outside-12_4047_22931" maskUnits="userSpaceOnUse" x="441" y="224" width="491" height="66" fill="black">
<rect fill="white" x="441" y="224" width="491" height="66"/>
<path d="M441 225H931V289H441V225Z"/>
</mask>
<path d="M441 225H931V289H441V225Z" fill="white"/>
<path d="M931 225H932V224H931V225ZM931 289V290H932V289H931ZM441 226H931V224H441V226ZM930 225V289H932V225H930ZM931 288H441V290H931V288Z" fill="#DDDDDD" mask="url(#path-34-outside-12_4047_22931)"/>
<path d="M679.279 258.832V261.914H671.932V258.832H679.279ZM673.221 259.816V260.93H678.014V259.816H673.221ZM679.924 252.258V253.242H671.275V252.258H674.967V251.332H676.268V252.258H679.924ZM675.611 253.57C677.873 253.57 679.139 254.074 679.139 255.07C679.139 255.967 678.119 256.471 676.268 256.559V257.18H680.451V258.211H670.795V257.18H674.967V256.559C673.127 256.477 672.096 255.967 672.096 255.07C672.096 254.074 673.373 253.57 675.611 253.57ZM675.611 254.449C674.205 254.461 673.49 254.637 673.49 255.07C673.49 255.492 674.205 255.691 675.611 255.691C677.029 255.691 677.744 255.492 677.744 255.07C677.744 254.637 677.029 254.461 675.611 254.449ZM685.725 252.188V253.23H682.818V254.262H685.619V255.258H682.818V256.371C684.113 256.359 685.01 256.307 686.041 256.113L686.182 257.168C684.939 257.402 683.908 257.438 682.268 257.438H681.564V252.188H685.725ZM690.225 251.461V257.906H688.982V255.152H687.881V257.824H686.662V251.66H687.881V254.109H688.982V251.461H690.225ZM690.225 258.375V262.043H688.924V259.43H682.971V258.375H690.225ZM697.01 252.902C697.01 254.543 698.615 256.184 700.83 256.57L700.244 257.66C698.469 257.285 697.016 256.213 696.33 254.789C695.627 256.201 694.174 257.279 692.404 257.66L691.83 256.57C694.021 256.172 695.615 254.531 695.627 252.902V252.117H697.01V252.902ZM701.217 259.617V260.695H691.537V259.617H701.217Z" fill="black"/>
<mask id="path-37-outside-13_4047_22931" maskUnits="userSpaceOnUse" x="441" y="288" width="491" height="34" fill="black">
<rect fill="white" x="441" y="288" width="491" height="34"/>
<path d="M441 289H931V321H441V289Z"/>
</mask>
<path d="M441 289H931V321H441V289Z" fill="white"/>
<path d="M931 289H932V288H931V289ZM931 321V322H932V321H931ZM441 290H931V288H441V290ZM930 289V321H932V289H930ZM931 320H441V322H931V320Z" fill="#DDDDDD" mask="url(#path-37-outside-13_4047_22931)"/>
<path d="M671.129 300.328C671.129 301.664 672.617 303.012 674.879 303.305L674.363 304.359C672.564 304.09 671.135 303.205 670.449 302.004C669.752 303.205 668.328 304.09 666.547 304.359L666.031 303.305C668.27 303.012 669.758 301.664 669.758 300.328V299.789H671.129V300.328ZM675.266 305.273V306.352H671.059V310.043H669.77V306.352H665.609V305.273H675.266ZM684.828 299.449V310.043H683.516V299.449H684.828ZM681.664 300.574C681.664 303.727 680.445 306.41 676.73 308.168L676.051 307.125C678.822 305.807 680.111 304.014 680.34 301.605H676.59V300.574H681.664ZM694.707 299.449V302.238H696.184V303.328H694.707V306.211H693.406V299.449H694.707ZM691.285 306.305C693.453 306.305 694.824 306.996 694.824 308.168C694.824 309.328 693.453 310.031 691.285 310.031C689.082 310.031 687.734 309.328 687.746 308.168C687.734 306.996 689.082 306.305 691.285 306.305ZM691.285 307.301C689.832 307.301 689.023 307.582 689.035 308.168C689.023 308.73 689.832 309.047 691.285 309.047C692.715 309.047 693.523 308.73 693.523 308.168C693.523 307.582 692.715 307.301 691.285 307.301ZM692.645 300.527V301.547H686.363V300.527H688.859V299.379H690.16V300.527H692.645ZM689.504 301.969C691.039 301.969 692.082 302.73 692.094 303.867C692.082 305.004 691.039 305.754 689.504 305.754C687.957 305.754 686.902 305.004 686.902 303.867C686.902 302.73 687.957 301.969 689.504 301.969ZM689.504 302.93C688.695 302.93 688.168 303.281 688.168 303.867C688.168 304.441 688.695 304.77 689.504 304.77C690.312 304.77 690.852 304.441 690.852 303.867C690.852 303.281 690.312 302.93 689.504 302.93ZM705.148 299.883V303.562H702.195V304.676H706.379V305.73H696.723V304.676H700.883V303.562H697.941V299.883H705.148ZM699.207 300.902V302.531H703.859V300.902H699.207ZM705.195 306.621V310.043H703.895V307.652H697.789V306.621H705.195Z" fill="black"/>
<mask id="path-40-outside-14_4047_22931" maskUnits="userSpaceOnUse" x="441" y="320" width="491" height="34" fill="black">
<rect fill="white" x="441" y="320" width="491" height="34"/>
<path d="M441 321H931V353H441V321Z"/>
</mask>
<path d="M441 321H931V353H441V321Z" fill="white"/>
<path d="M931 321H932V320H931V321ZM931 353V354H932V353H931ZM441 322H931V320H441V322ZM930 321V353H932V321H930ZM931 352H441V354H931V352Z" fill="#DDDDDD" mask="url(#path-40-outside-14_4047_22931)"/>
<path d="M618.312 331.848V332.996H622.883V331.848H624.172V336.148H621.242V337.121H625.426V338.176H615.77V337.121H619.93V336.148H617.023V331.848H618.312ZM618.312 335.105H622.883V334.004H618.312V335.105ZM624.336 340.777V341.832H616.965V338.855H618.266V340.777H624.336ZM634.965 331.461V339.113H633.652V331.461H634.965ZM635.258 340.777V341.832H627.957V338.34H629.27V340.777H635.258ZM629.188 332.152C630.793 332.152 632.035 333.266 632.035 334.801C632.035 336.371 630.793 337.461 629.188 337.461C627.57 337.461 626.328 336.371 626.328 334.801C626.328 333.266 627.57 332.152 629.188 332.152ZM629.188 333.289C628.285 333.289 627.594 333.887 627.605 334.801C627.594 335.738 628.285 336.324 629.188 336.324C630.066 336.324 630.758 335.738 630.758 334.801C630.758 333.887 630.066 333.289 629.188 333.289ZM646.18 337.613V338.645H641.961V342.043H640.672V338.645H636.5V337.613H646.18ZM638.961 331.871V333.172H643.695V331.871H645.008V336.512H637.672V331.871H638.961ZM638.961 335.457H643.695V334.203H638.961V335.457ZM655.238 331.449V333.91H656.715V334.988H655.238V337.414H653.938V331.449H655.238ZM652.039 332.129V333.184H648.617V335.891C650.609 335.891 651.717 335.814 652.977 335.562L653.117 336.594C651.734 336.898 650.492 336.945 648.184 336.945H647.328V332.129H652.039ZM655.238 337.895V341.902H648.395V337.895H655.238ZM649.684 338.938V340.871H653.949V338.938H649.684ZM657.887 337.766C657.887 335.562 658.543 333.723 659.645 332.152H661.051C660.242 333.312 659.434 335.668 659.434 337.766C659.434 339.863 660.242 342.219 661.051 343.391H659.645C658.543 341.809 657.887 339.98 657.887 337.766ZM671.422 339.688V340.754H661.742V339.688H663.98V337.004C663.137 336.523 662.627 335.768 662.633 334.824C662.621 333.137 664.285 332.023 666.559 332.023C668.844 332.023 670.508 333.137 670.508 334.824C670.508 335.75 670.016 336.494 669.195 336.98V339.688H671.422ZM666.559 333.055C664.977 333.055 663.898 333.723 663.91 334.824C663.898 335.914 664.977 336.594 666.559 336.594C668.141 336.594 669.23 335.914 669.23 334.824C669.23 333.723 668.141 333.055 666.559 333.055ZM665.27 339.688H667.871V337.473C667.467 337.566 667.027 337.613 666.559 337.613C666.102 337.613 665.668 337.566 665.27 337.484V339.688ZM681.91 332.867V333.934H680.469V335.141H681.91V336.219H680.469V337.672H679.168V331.449H680.469V332.867H681.91ZM675.09 332.059C676.719 332.047 677.938 333.09 677.949 334.59C677.938 336.078 676.719 337.121 675.09 337.133C673.449 337.121 672.219 336.078 672.23 334.59C672.219 333.09 673.449 332.047 675.09 332.059ZM675.09 333.148C674.176 333.148 673.496 333.723 673.508 334.59C673.496 335.469 674.176 336.02 675.09 336.031C675.992 336.02 676.672 335.469 676.672 334.59C676.672 333.723 675.992 333.148 675.09 333.148ZM677.023 337.918C679.191 337.918 680.562 338.691 680.574 339.98C680.562 341.27 679.191 342.031 677.023 342.031C674.832 342.031 673.438 341.27 673.438 339.98C673.438 338.691 674.832 337.918 677.023 337.918ZM677.023 338.961C675.57 338.961 674.738 339.312 674.738 339.98C674.738 340.648 675.57 340.988 677.023 340.988C678.477 340.988 679.285 340.648 679.285 339.98C679.285 339.312 678.477 338.961 677.023 338.961ZM684.957 337.484V338.703H689.656V337.484H690.945V341.914H683.68V337.484H684.957ZM684.957 340.859H689.656V339.711H684.957V340.859ZM690.98 331.906V332.727C690.98 333.529 690.98 334.414 690.723 335.656H692.164V336.699H682.484V335.656H689.434C689.656 334.537 689.68 333.693 689.68 332.949H683.68V331.906H690.98ZM695.75 332.223C696.711 332.223 697.502 332.756 697.977 333.688H700.449V331.449H701.738V342.055H700.449V338.047H698.07C697.613 339.102 696.775 339.711 695.75 339.711C694.156 339.711 693.031 338.27 693.031 335.961C693.031 333.676 694.156 332.223 695.75 332.223ZM695.75 333.395C694.871 333.395 694.273 334.344 694.285 335.961C694.273 337.59 694.871 338.539 695.75 338.539C696.629 338.539 697.215 337.59 697.227 335.961C697.215 334.344 696.629 333.395 695.75 333.395ZM698.34 334.754C698.416 335.123 698.457 335.527 698.457 335.961C698.457 336.33 698.428 336.67 698.375 336.992H700.449V334.754H698.34ZM706.098 339.629V337.414H703.883V336.113H706.098V333.898H707.387V336.113H709.613V337.414H707.387V339.629H706.098ZM714.395 332.188C716.07 332.176 717.301 333.242 717.312 334.742C717.301 336.254 716.07 337.309 714.395 337.309C712.73 337.309 711.488 336.254 711.488 334.742C711.488 333.242 712.73 332.176 714.395 332.188ZM714.395 333.312C713.469 333.312 712.777 333.863 712.777 334.742C712.777 335.633 713.469 336.172 714.395 336.172C715.332 336.172 716.035 335.633 716.035 334.742C716.035 333.863 715.332 333.312 714.395 333.312ZM719.785 331.449V342.055H718.484V331.449H719.785ZM711.008 338.773C712.918 338.773 715.566 338.75 717.852 338.422L717.957 339.371C715.578 339.828 713.035 339.84 711.172 339.84L711.008 338.773ZM731.012 339.734V340.812H721.332V339.734H723.898V337.988H722.48V334.531H728.574V333.23H722.457V332.176H729.863V335.574H723.781V336.934H730.109V337.988H728.562V339.734H731.012ZM725.164 339.734H727.285V337.988H725.164V339.734ZM740.199 331.965V332.785C740.199 333.605 740.199 334.543 739.941 335.797H741.383V336.852H731.703V335.797H738.629C738.875 334.654 738.898 333.781 738.898 333.008H732.898V331.965H740.199ZM740.188 338.082V341.914H732.863V338.082H740.188ZM734.141 339.102V340.859H738.898V339.102H734.141ZM744.969 332.223C745.93 332.223 746.721 332.756 747.195 333.688H749.668V331.449H750.957V342.055H749.668V338.047H747.289C746.832 339.102 745.994 339.711 744.969 339.711C743.375 339.711 742.25 338.27 742.25 335.961C742.25 333.676 743.375 332.223 744.969 332.223ZM744.969 333.395C744.09 333.395 743.492 334.344 743.504 335.961C743.492 337.59 744.09 338.539 744.969 338.539C745.848 338.539 746.434 337.59 746.445 335.961C746.434 334.344 745.848 333.395 744.969 333.395ZM747.559 334.754C747.635 335.123 747.676 335.527 747.676 335.961C747.676 336.33 747.646 336.67 747.594 336.992H749.668V334.754H747.559ZM755.598 337.766C755.598 339.98 754.941 341.809 753.84 343.391H752.434C753.242 342.219 754.051 339.863 754.051 337.766C754.051 335.668 753.242 333.312 752.434 332.152H753.84C754.941 333.723 755.598 335.562 755.598 337.766Z" fill="black"/>
<mask id="path-43-outside-15_4047_22931" maskUnits="userSpaceOnUse" x="441" y="352" width="491" height="34" fill="black">
<rect fill="white" x="441" y="352" width="491" height="34"/>
<path d="M441 353H931V385H441V353Z"/>
</mask>
<path d="M441 353H931V385H441V353Z" fill="white"/>
<path d="M931 353H932V352H931V353ZM931 385V386H932V385H931ZM441 354H931V352H441V354ZM930 353V385H932V353H930ZM931 384H441V386H931V384Z" fill="#DDDDDD" mask="url(#path-43-outside-15_4047_22931)"/>
<path d="M620.826 363.93V364.738C620.826 365.529 620.826 366.438 620.604 367.621H622.01V368.676H617.803V370.328H620.85V374.043H619.549V371.371H613.314V370.328H616.502V368.676H612.33V367.621H619.291C619.502 366.537 619.525 365.711 619.525 364.973H613.525V363.93H620.826ZM628.35 364.328V369.367H623.24V364.328H628.35ZM624.529 365.371V368.324H627.061V365.371H624.529ZM631.525 363.461V371.02H630.213V363.461H631.525ZM631.818 372.707V373.762H624.518V370.305H625.83V372.707H631.818ZM641.943 363.461V371.23H640.643V367.668H638.604V366.59H640.643V363.461H641.943ZM638.674 364.258C638.674 367.047 636.822 369.145 633.764 370.117L633.213 369.074C635.498 368.348 637.004 367 637.256 365.324H633.764V364.258H638.674ZM642.213 372.777V373.832H635.041V370.445H636.365V372.777H642.213ZM651.799 363.449V366.027H653.275V367.094H651.799V369.66H650.498V363.449H651.799ZM648.869 364.176C648.869 366.965 647.053 368.934 643.924 369.824L643.408 368.77C645.811 368.113 647.234 366.818 647.463 365.23H643.889V364.176H648.869ZM648.377 369.789C650.521 369.789 651.916 370.609 651.916 371.91C651.916 373.234 650.521 374.031 648.377 374.031C646.244 374.031 644.826 373.234 644.838 371.91C644.826 370.609 646.244 369.789 648.377 369.789ZM648.377 370.809C646.982 370.809 646.115 371.207 646.127 371.91C646.115 372.602 646.982 373.012 648.377 373.012C649.771 373.012 650.639 372.602 650.639 371.91C650.639 371.207 649.771 370.809 648.377 370.809ZM663.494 371.699V372.766H653.814V371.699H657.986V369.637H654.881V364.152H656.182V365.887H661.092V364.152H662.393V369.637H659.275V371.699H663.494ZM656.182 368.582H661.092V366.93H656.182V368.582ZM673.057 363.449V369.859H671.756V367.668H670.244V366.59H671.756V363.449H673.057ZM673.057 370.34V373.914H666.014V370.34H673.057ZM667.314 371.371V372.859H671.779V371.371H667.314ZM670.42 364.434V365.488H664.209V364.434H666.67V363.367H667.959V364.434H670.42ZM667.314 365.898C668.791 365.898 669.822 366.684 669.834 367.797C669.822 368.945 668.791 369.695 667.314 369.695C665.85 369.695 664.807 368.945 664.807 367.797C664.807 366.684 665.85 365.898 667.314 365.898ZM667.314 366.883C666.553 366.883 666.049 367.234 666.049 367.797C666.049 368.383 666.553 368.723 667.314 368.723C668.076 368.723 668.58 368.383 668.58 367.797C668.58 367.234 668.076 366.883 667.314 366.883ZM687.084 371.688V372.754H677.404V371.688H679.643V369.004C678.799 368.523 678.289 367.768 678.295 366.824C678.283 365.137 679.947 364.023 682.221 364.023C684.506 364.023 686.17 365.137 686.17 366.824C686.17 367.75 685.678 368.494 684.857 368.98V371.688H687.084ZM682.221 365.055C680.639 365.055 679.561 365.723 679.572 366.824C679.561 367.914 680.639 368.594 682.221 368.594C683.803 368.594 684.893 367.914 684.893 366.824C684.893 365.723 683.803 365.055 682.221 365.055ZM680.932 371.688H683.533V369.473C683.129 369.566 682.689 369.613 682.221 369.613C681.764 369.613 681.33 369.566 680.932 369.484V371.688ZM697.572 364.867V365.934H696.131V367.141H697.572V368.219H696.131V369.672H694.83V363.449H696.131V364.867H697.572ZM690.752 364.059C692.381 364.047 693.6 365.09 693.611 366.59C693.6 368.078 692.381 369.121 690.752 369.133C689.111 369.121 687.881 368.078 687.893 366.59C687.881 365.09 689.111 364.047 690.752 364.059ZM690.752 365.148C689.838 365.148 689.158 365.723 689.17 366.59C689.158 367.469 689.838 368.02 690.752 368.031C691.654 368.02 692.334 367.469 692.334 366.59C692.334 365.723 691.654 365.148 690.752 365.148ZM692.686 369.918C694.854 369.918 696.225 370.691 696.236 371.98C696.225 373.27 694.854 374.031 692.686 374.031C690.494 374.031 689.1 373.27 689.1 371.98C689.1 370.691 690.494 369.918 692.686 369.918ZM692.686 370.961C691.232 370.961 690.4 371.312 690.4 371.98C690.4 372.648 691.232 372.988 692.686 372.988C694.139 372.988 694.947 372.648 694.947 371.98C694.947 371.312 694.139 370.961 692.686 370.961ZM706.994 363.449V374.043H705.682V363.449H706.994ZM703.83 364.574C703.83 367.727 702.611 370.41 698.896 372.168L698.217 371.125C700.988 369.807 702.277 368.014 702.506 365.605H698.756V364.574H703.83ZM714.436 364.234V364.867C714.424 365.594 714.424 366.637 714.178 367.984L712.889 367.867C713.094 366.771 713.135 365.963 713.158 365.312H709.033V364.234H714.436ZM711.764 366.648V368.758C712.859 368.717 713.984 368.635 715.01 368.488L715.08 369.426C712.877 369.824 710.381 369.859 708.518 369.871L708.4 368.828C709.027 368.822 709.73 368.816 710.475 368.805V366.648H711.764ZM716.967 363.449V366.754H718.338V367.844H716.967V371.383H715.631V363.449H716.967ZM717.307 372.777V373.832H709.982V370.68H711.295V372.777H717.307ZM727.76 363.449V369.742H726.459V367.152H724.654V366.086H726.459V363.449H727.76ZM724.174 370.012C726.424 370.012 727.795 370.75 727.795 372.027C727.795 373.305 726.424 374.043 724.174 374.043C721.936 374.043 720.564 373.305 720.576 372.027C720.564 370.75 721.936 370.012 724.174 370.012ZM724.174 371.008C722.697 371.008 721.865 371.359 721.865 372.027C721.865 372.684 722.697 373.035 724.174 373.035C725.65 373.035 726.494 372.684 726.494 372.027C726.494 371.359 725.65 371.008 724.174 371.008ZM722.779 365.266C722.779 366.555 723.635 367.855 725.275 368.406L724.619 369.438C723.441 369.039 722.604 368.23 722.146 367.234C721.678 368.365 720.793 369.268 719.533 369.719L718.854 368.688C720.553 368.102 721.455 366.672 721.455 365.277V365.195H719.252V364.141H724.971V365.195H722.779V365.266ZM738.939 371.699V372.766H729.26V371.699H733.432V369.637H730.326V364.152H731.627V365.887H736.537V364.152H737.838V369.637H734.721V371.699H738.939ZM731.627 368.582H736.537V366.93H731.627V368.582ZM745.021 364.48V371.418H740.006V364.48H745.021ZM741.283 365.5V370.375H743.721V365.5H741.283ZM747.928 363.449V367.516H749.557V368.617H747.928V374.043H746.627V363.449H747.928ZM758.369 363.449V366.051H759.834V367.117H758.369V369.637H757.057V363.449H758.369ZM754.912 369.836C757.08 369.836 758.451 370.609 758.463 371.922C758.451 373.258 757.08 374.031 754.912 374.031C752.721 374.031 751.326 373.258 751.326 371.922C751.326 370.609 752.721 369.836 754.912 369.836ZM754.912 370.879C753.459 370.879 752.604 371.242 752.615 371.922C752.604 372.613 753.459 372.988 754.912 372.988C756.342 372.988 757.197 372.613 757.197 371.922C757.197 371.242 756.342 370.879 754.912 370.879ZM755.158 364.199V365.254H751.701V367.914C753.729 367.908 754.859 367.85 756.107 367.586L756.236 368.629C754.865 368.922 753.611 368.969 751.268 368.969H750.412V364.199H755.158Z" fill="black"/>
<mask id="path-46-outside-16_4047_22931" maskUnits="userSpaceOnUse" x="221" y="224" width="221" height="33" fill="black">
<rect fill="white" x="221" y="224" width="221" height="33"/>
<path d="M221 225H441V257H221V225Z"/>
</mask>
<path d="M221 225H441V257H221V225Z" fill="#EEF6FF"/>
<path d="M441 225H442V224H441V225ZM221 226H441V224H221V226ZM440 225V257H442V225H440Z" fill="#DDDDDD" mask="url(#path-46-outside-16_4047_22931)"/>
<path d="M326.988 236.492C326.988 239.691 326.109 242.434 322.207 244.379L321.492 243.395C323.326 242.486 324.416 241.432 325.031 240.172L321.738 240.488L321.574 239.363L325.43 239.117C325.564 238.625 325.646 238.104 325.688 237.547H322.125V236.492H326.988ZM329.777 235.449V239.598H331.348V240.664H329.777V246.02H328.477V235.449H329.777ZM340.453 240.418V241.461H333.023V236.375H340.371V237.43H334.312V240.418H340.453ZM341.531 243.617V244.695H331.852V243.617H341.531Z" fill="black"/>
<mask id="path-49-outside-17_4047_22931" maskUnits="userSpaceOnUse" x="221" y="256" width="221" height="33" fill="black">
<rect fill="white" x="221" y="256" width="221" height="33"/>
<path d="M221 257H441V289H221V257Z"/>
</mask>
<path d="M221 257H441V289H221V257Z" fill="#EEF6FF"/>
<path d="M441 257H442V256H441V257ZM221 258H441V256H221V258ZM440 257V289H442V257H440Z" fill="#DDDDDD" mask="url(#path-49-outside-17_4047_22931)"/>
<path d="M314.295 267.461V275.523H312.994V273.438H311.424V272.395H312.994V271.211H311.424V270.156H312.994V267.461H314.295ZM311.365 268.633V269.676H305.447V268.633H307.814V267.449H309.115V268.633H311.365ZM308.447 270.109C309.889 270.109 310.92 270.953 310.932 272.172C310.92 273.391 309.889 274.234 308.447 274.234C307.018 274.234 305.986 273.391 305.998 272.172C305.986 270.953 307.018 270.109 308.447 270.109ZM308.447 271.129C307.721 271.141 307.205 271.527 307.217 272.172C307.205 272.84 307.721 273.227 308.447 273.227C309.174 273.227 309.701 272.84 309.701 272.172C309.701 271.527 309.174 271.141 308.447 271.129ZM314.529 276.777V277.832H307.311V274.832H308.635V276.777H314.529ZM324.291 267.965V268.785C324.291 269.605 324.291 270.543 324.033 271.797H325.475V272.852H315.795V271.797H322.721C322.967 270.654 322.99 269.781 322.99 269.008H316.99V267.965H324.291ZM324.279 274.082V277.914H316.955V274.082H324.279ZM318.232 275.102V276.859H322.99V275.102H318.232ZM329.107 268.047C329.963 268.047 330.701 268.363 331.205 268.891H333.736V267.449H335.037V273.684H333.736V272.336H331.205C330.701 272.863 329.957 273.174 329.107 273.168C327.514 273.18 326.307 272.102 326.307 270.613C326.307 269.113 327.514 268.047 329.107 268.047ZM329.107 269.16C328.193 269.16 327.549 269.723 327.549 270.613C327.549 271.48 328.193 272.066 329.107 272.066C329.986 272.066 330.631 271.48 330.643 270.613C330.631 269.723 329.986 269.16 329.107 269.16ZM331.451 273.906C333.678 273.906 335.072 274.668 335.072 275.969C335.072 277.27 333.678 278.031 331.451 278.031C329.236 278.031 327.842 277.27 327.854 275.969C327.842 274.668 329.236 273.906 331.451 273.906ZM331.451 274.902C329.975 274.902 329.119 275.277 329.131 275.969C329.119 276.637 329.975 277.012 331.451 277.012C332.951 277.012 333.795 276.637 333.795 275.969C333.795 275.277 332.951 274.902 331.451 274.902ZM331.791 269.934C331.85 270.15 331.885 270.373 331.885 270.613C331.885 270.848 331.85 271.07 331.803 271.281H333.736V269.934H331.791ZM342.057 268.328C342.057 269.664 343.545 271.012 345.807 271.305L345.291 272.359C343.492 272.09 342.062 271.205 341.377 270.004C340.68 271.205 339.256 272.09 337.475 272.359L336.959 271.305C339.197 271.012 340.686 269.664 340.686 268.328V267.789H342.057V268.328ZM346.193 273.273V274.352H341.986V278.043H340.697V274.352H336.537V273.273H346.193ZM356.564 272.383V273.438H346.908V272.383H356.564ZM351.725 274.141C354.01 274.141 355.381 274.855 355.393 276.086C355.381 277.328 354.01 278.031 351.725 278.031C349.416 278.031 348.033 277.328 348.033 276.086C348.033 274.855 349.416 274.141 351.725 274.141ZM351.725 275.16C350.178 275.16 349.346 275.477 349.357 276.086C349.346 276.695 350.178 277.012 351.725 277.012C353.236 277.012 354.08 276.695 354.092 276.086C354.08 275.477 353.236 275.16 351.725 275.16ZM355.697 267.953V269.02H352.639C352.832 269.898 354.104 270.689 356.107 270.883L355.65 271.914C353.729 271.709 352.299 270.953 351.725 269.875C351.15 270.947 349.744 271.709 347.822 271.914L347.377 270.883C349.34 270.689 350.617 269.898 350.822 269.02H347.787V267.953H355.697Z" fill="black"/>
<mask id="path-52-outside-18_4047_22931" maskUnits="userSpaceOnUse" x="221" y="288" width="221" height="33" fill="black">
<rect fill="white" x="221" y="288" width="221" height="33"/>
<path d="M221 289H441V321H221V289Z"/>
</mask>
<path d="M221 289H441V321H221V289Z" fill="#EEF6FF"/>
<path d="M441 289H442V288H441V289ZM221 290H441V288H221V290ZM440 289V321H442V289H440Z" fill="#DDDDDD" mask="url(#path-52-outside-18_4047_22931)"/>
<path d="M288.941 300.129C288.941 301.383 290.406 302.672 292.574 302.977L292.082 304.008C290.342 303.738 288.953 302.895 288.285 301.758C287.6 302.912 286.205 303.762 284.465 304.031L283.973 303.012C286.129 302.684 287.594 301.418 287.605 300.129V299.719H288.941V300.129ZM293.113 304.711V305.766H289.023V307.699H287.734V305.766H283.434V304.711H293.113ZM292.047 308.777V309.832H284.605V306.75H285.906V308.777H292.047ZM299.336 300.328C299.336 301.664 300.824 303.012 303.086 303.305L302.57 304.359C300.771 304.09 299.342 303.205 298.656 302.004C297.959 303.205 296.535 304.09 294.754 304.359L294.238 303.305C296.477 303.012 297.965 301.664 297.965 300.328V299.789H299.336V300.328ZM303.473 305.273V306.352H299.266V310.043H297.977V306.352H293.816V305.273H303.473ZM313.059 299.461V307.523H311.758V305.438H310.188V304.395H311.758V303.211H310.188V302.156H311.758V299.461H313.059ZM310.129 300.633V301.676H304.211V300.633H306.578V299.449H307.879V300.633H310.129ZM307.211 302.109C308.652 302.109 309.684 302.953 309.695 304.172C309.684 305.391 308.652 306.234 307.211 306.234C305.781 306.234 304.75 305.391 304.762 304.172C304.75 302.953 305.781 302.109 307.211 302.109ZM307.211 303.129C306.484 303.141 305.969 303.527 305.98 304.172C305.969 304.84 306.484 305.227 307.211 305.227C307.938 305.227 308.465 304.84 308.465 304.172C308.465 303.527 307.938 303.141 307.211 303.129ZM313.293 308.777V309.832H306.074V306.832H307.398V308.777H313.293ZM323.055 299.965V300.785C323.055 301.605 323.055 302.543 322.797 303.797H324.238V304.852H314.559V303.797H321.484C321.73 302.654 321.754 301.781 321.754 301.008H315.754V299.965H323.055ZM323.043 306.082V309.914H315.719V306.082H323.043ZM316.996 307.102V308.859H321.754V307.102H316.996ZM331.598 300.117L328.867 310.277H327.555L330.297 300.117H331.598ZM343.773 299.449V310.043H342.461V299.449H343.773ZM340.609 300.574C340.609 303.727 339.391 306.41 335.676 308.168L334.996 307.125C337.768 305.807 339.057 304.014 339.285 301.605H335.535V300.574H340.609ZM350.734 300.363V301.43H347.055V303.316H350.547V304.348H347.055V306.527C348.684 306.516 349.955 306.457 351.438 306.211L351.555 307.266C349.926 307.523 348.508 307.582 346.609 307.582H345.73V300.363H350.734ZM353.594 299.449V303.551H355.223V304.641H353.594V310.043H352.293V299.449H353.594ZM367.656 299.449V310.043H366.402V304.617H365.277V309.527H364.047V299.637H365.277V303.539H366.402V299.449H367.656ZM363.004 300.598V307.312H358.844V300.598H363.004ZM360.062 301.629V306.281H361.785V301.629H360.062ZM378.52 304.031V304.992H374.348V305.766H377.336V308.25H371.312V308.977H377.629V309.949H370.035V307.359H376.059V306.703H370.023V305.766H373.059V304.992H368.91V304.031H378.52ZM374.348 299.426V300.316H377.594V301.289H374.488C374.74 302.039 375.971 302.602 378.086 302.707L377.699 303.68C375.801 303.562 374.371 303.047 373.703 302.191C373.035 303.047 371.611 303.562 369.695 303.68L369.332 302.707C371.424 302.602 372.654 302.039 372.93 301.289H369.836V300.316H373.059V299.426H374.348Z" fill="black"/>
<mask id="path-55-outside-19_4047_22931" maskUnits="userSpaceOnUse" x="0" y="224" width="222" height="97" fill="black">
<rect fill="white" y="224" width="222" height="97"/>
<path d="M1 225H221V321H1V225Z"/>
</mask>
<path d="M1 225H221V321H1V225Z" fill="#EEF6FF"/>
<path d="M1 225V224H0V225H1ZM221 225H222V224H221V225ZM1 226H221V224H1V226ZM220 225V321H222V225H220ZM2 321V225H0V321H2Z" fill="#DDDDDD" mask="url(#path-55-outside-19_4047_22931)"/>
<path d="M99 267.449V271H100.43V272.078H99V275.723H97.6992V267.449H99ZM99.375 276.777V277.832H92.0391V275.172H93.3398V276.777H99.375ZM90.5156 273.602C91.3066 273.602 92.2266 273.596 93.1875 273.555V272.887C92.0098 272.746 91.2656 272.166 91.2656 271.316C91.2656 270.273 92.2852 269.664 93.8203 269.676C95.3672 269.664 96.375 270.273 96.375 271.316C96.375 272.16 95.6484 272.734 94.4883 272.887V273.496C95.3906 273.449 96.2988 273.367 97.1484 273.238L97.2539 274.152C95.0156 274.574 92.4844 274.598 90.6562 274.621L90.5156 273.602ZM96.8672 268.375V269.324H90.7852V268.375H93.1875V267.414H94.4883V268.375H96.8672ZM93.8203 270.555C93 270.555 92.5078 270.824 92.5195 271.316C92.5078 271.773 93 272.043 93.8203 272.043C94.6406 272.043 95.1328 271.773 95.1328 271.316C95.1328 270.824 94.6406 270.555 93.8203 270.555ZM104.777 270.461C104.777 272.102 105.75 273.965 107.426 274.738L106.699 275.77C105.504 275.207 104.619 274.07 104.145 272.746C103.664 274.199 102.738 275.441 101.52 276.027L100.758 275.008C102.445 274.211 103.465 272.219 103.477 270.461V269.57H101.168V268.492H106.992V269.57H104.777V270.461ZM109.277 267.449V271.574H110.906V272.664H109.277V278.043H107.977V267.449H109.277ZM116.871 268.328C116.871 269.664 118.359 271.012 120.621 271.305L120.105 272.359C118.307 272.09 116.877 271.205 116.191 270.004C115.494 271.205 114.07 272.09 112.289 272.359L111.773 271.305C114.012 271.012 115.5 269.664 115.5 268.328V267.789H116.871V268.328ZM121.008 273.273V274.352H116.801V278.043H115.512V274.352H111.352V273.273H121.008ZM130.066 267.461V269.688H131.566V270.766H130.066V273.004H128.777V267.461H130.066ZM123.492 267.93V271.527C124.852 271.51 126.281 271.41 127.828 271.105L127.98 272.172C126.223 272.5 124.594 272.617 123.059 272.617H122.18V267.93H123.492ZM124.488 273.508V274.691H128.777V273.508H130.078V277.914H123.199V273.508H124.488ZM124.488 276.859H128.777V275.734H124.488V276.859Z" fill="black"/>
<mask id="path-58-outside-20_4047_22931" maskUnits="userSpaceOnUse" x="0" y="320" width="442" height="33" fill="black">
<rect fill="white" y="320" width="442" height="33"/>
<path d="M1 321H441V353H1V321Z"/>
</mask>
<path d="M1 321H441V353H1V321Z" fill="#EEF6FF"/>
<path d="M1 321V320H0V321H1ZM441 321H442V320H441V321ZM1 322H441V320H1V322ZM440 321V353H442V321H440ZM2 353V321H0V353H2Z" fill="#DDDDDD" mask="url(#path-58-outside-20_4047_22931)"/>
<path d="M215.451 336.312V337.367H211.256V338.246C213.154 338.375 214.268 339.031 214.279 340.133C214.268 341.352 212.896 342.031 210.611 342.031C208.303 342.031 206.92 341.352 206.92 340.133C206.92 339.031 208.045 338.369 209.967 338.246V337.367H205.795V336.312H215.451ZM210.611 339.23C209.064 339.242 208.232 339.547 208.244 340.133C208.232 340.719 209.064 341.035 210.611 341.035C212.123 341.035 212.967 340.719 212.979 340.133C212.967 339.547 212.123 339.242 210.611 339.23ZM214.584 331.918V332.961H211.537C211.742 333.834 213.008 334.619 214.994 334.801L214.537 335.832C212.615 335.639 211.186 334.871 210.611 333.793C210.037 334.865 208.631 335.639 206.709 335.832L206.264 334.801C208.209 334.619 209.475 333.822 209.697 332.961H206.674V331.918H214.584ZM225.822 336.781V337.824H216.166V336.781H220.326V335.762H217.42V331.707H218.709V332.762H223.279V331.707H224.568V335.762H221.639V336.781H225.822ZM224.639 338.668V342.043H223.338V339.699H217.232V338.668H224.639ZM218.709 334.719H223.279V333.734H218.709V334.719ZM236.205 336.934V337.977H232.115V339.805H230.826V337.977H226.525V336.934H236.205ZM235.139 340.777V341.832H227.697V338.914H228.986V340.777H235.139ZM229.08 331.789V332.984H233.65V331.789H234.939V336.102H227.791V331.789H229.08ZM229.08 335.07H233.65V333.957H229.08V335.07Z" fill="black"/>
<mask id="path-61-outside-21_4047_22931" maskUnits="userSpaceOnUse" x="0" y="352" width="442" height="34" fill="black">
<rect fill="white" y="352" width="442" height="34"/>
<path d="M1 353H441V385H1V353Z"/>
</mask>
<path d="M1 353H441V385H1V353Z" fill="#EEF6FF"/>
<path d="M1 353V352H0V353H1ZM441 353H442V352H441V353ZM441 385V386H442V385H441ZM1 385H0V386H1V385ZM1 354H441V352H1V354ZM440 353V385H442V353H440ZM441 384H1V386H441V384ZM2 385V353H0V385H2Z" fill="#DDDDDD" mask="url(#path-61-outside-21_4047_22931)"/>
<path d="M192.834 365.605C192.834 366.918 193.736 368.207 195.424 368.734L194.756 369.754C193.555 369.361 192.682 368.57 192.201 367.562C191.721 368.658 190.824 369.531 189.564 369.965L188.896 368.934C190.596 368.371 191.51 367 191.521 365.605V365.301H189.236V364.258H195.061V365.301H192.834V365.605ZM197.639 363.461V371.148H196.326V363.461H197.639ZM197.932 372.777V373.832H190.631V370.445H191.943V372.777H197.932ZM208.865 371.734V372.812H199.186V371.734H201.752V369.988H200.334V366.531H206.428V365.23H200.311V364.176H207.717V367.574H201.635V368.934H207.963V369.988H206.416V371.734H208.865ZM203.018 371.734H205.139V369.988H203.018V371.734ZM215.076 364.328C215.076 365.664 216.564 367.012 218.826 367.305L218.311 368.359C216.512 368.09 215.082 367.205 214.396 366.004C213.699 367.205 212.275 368.09 210.494 368.359L209.979 367.305C212.217 367.012 213.705 365.664 213.705 364.328V363.789H215.076V364.328ZM219.213 369.273V370.352H215.006V374.043H213.717V370.352H209.557V369.273H219.213ZM228.752 363.449V369.133H227.439V363.449H228.752ZM223.033 369.625V370.715H227.451V369.625H228.752V373.914H221.744V369.625H223.033ZM223.033 372.859H227.451V371.734H223.033V372.859ZM222.975 363.918C224.604 363.906 225.822 364.926 225.822 366.402C225.822 367.844 224.604 368.863 222.975 368.863C221.334 368.863 220.115 367.844 220.115 366.402C220.115 364.926 221.334 363.906 222.975 363.918ZM222.975 365.008C222.049 365.008 221.381 365.547 221.393 366.402C221.381 367.246 222.049 367.785 222.975 367.797C223.889 367.785 224.545 367.246 224.545 366.402C224.545 365.547 223.889 365.008 222.975 365.008ZM241.502 363.449V366.062H242.979V367.141H241.502V369.637H240.201V363.449H241.502ZM235.947 370.059V370.973H240.201V370.059H241.502V373.914H234.658V370.059H235.947ZM235.947 372.883H240.201V371.98H235.947V372.883ZM239.439 364.434V365.477H233.158V364.434H235.654V363.367H236.955V364.434H239.439ZM236.299 365.84C237.834 365.84 238.877 366.578 238.889 367.703C238.877 368.828 237.834 369.566 236.299 369.566C234.752 369.566 233.697 368.828 233.697 367.703C233.697 366.578 234.752 365.84 236.299 365.84ZM236.299 366.801C235.49 366.801 234.963 367.141 234.963 367.703C234.963 368.277 235.49 368.605 236.299 368.605C237.107 368.605 237.646 368.277 237.646 367.703C237.646 367.141 237.107 366.801 236.299 366.801ZM252.658 363.449V374.043H251.416V363.449H252.658ZM250.467 363.707V373.539H249.225V370H247.572V368.934H249.225V367.363H247.76C247.262 369.121 246.154 370.633 244.174 371.805L243.412 370.879C245.609 369.584 246.617 367.926 246.811 365.793H243.975V364.738H248.1C248.1 365.271 248.064 365.793 247.994 366.297H249.225V363.707H250.467Z" fill="black"/>
<rect width="16" height="16" transform="translate(221 265)" fill="#17BF98"/>
<path d="M226.505 276.5L226.495 275.436L229.034 273.102C229.698 272.467 230.05 272.076 230.05 271.52C230.05 270.895 229.571 270.504 228.927 270.504C228.263 270.504 227.833 270.924 227.833 271.598H226.437C226.427 270.211 227.452 269.332 228.946 269.332C230.46 269.332 231.466 270.191 231.466 271.422C231.466 272.223 231.075 272.887 229.62 274.205L228.546 275.25V275.289H231.563V276.5H226.505Z" fill="white"/>
<rect width="16" height="16" transform="translate(221 297)" fill="#6E7CFF"/>
<path d="M228.98 308.598C227.428 308.598 226.314 307.738 226.285 306.508H227.77C227.799 307.035 228.307 307.387 228.99 307.387C229.693 307.387 230.201 306.986 230.191 306.42C230.201 305.844 229.684 305.434 228.854 305.434H228.199V304.35H228.854C229.547 304.35 230.035 303.969 230.035 303.412C230.035 302.875 229.625 302.504 229 302.504C228.375 302.504 227.857 302.855 227.838 303.393H226.432C226.451 302.172 227.555 301.332 229 301.332C230.475 301.332 231.461 302.201 231.451 303.324C231.461 304.115 230.904 304.682 230.113 304.818V304.877C231.148 305.004 231.725 305.639 231.715 306.518C231.725 307.729 230.572 308.598 228.98 308.598Z" fill="white"/>
<rect width="16" height="16" transform="translate(221 233)" fill="#FF5353"/>
<path d="M230.26 237.43V244.5H228.785V238.826H228.746L227.125 239.842V238.543L228.873 237.43H230.26Z" fill="white"/>
</svg>
