<svg width="1182" height="198" viewBox="0 0 1182 198" fill="none" xmlns="http://www.w3.org/2000/svg">
<rect x="0.5" y="0.5" width="1181" height="197" rx="3.5" fill="#FBFBFC" stroke="#F8F8F8"/>
<path d="M760 6L760 192" stroke="#EFEFF1" stroke-linecap="round"/>
<path d="M32 6L32 192" stroke="#EFEFF1" stroke-linecap="round"/>
<path d="M65 6L65 192" stroke="#EFEFF1" stroke-linecap="round"/>
<path d="M97 6L97 192" stroke="#EFEFF1" stroke-linecap="round"/>
<path d="M130 6L130 192" stroke="#EFEFF1" stroke-linecap="round"/>
<path d="M162 6L162 192" stroke="#EFEFF1" stroke-linecap="round"/>
<path d="M195 6L195 192" stroke="#EFEFF1" stroke-linecap="round"/>
<path d="M227 6L227 192" stroke="#EFEFF1" stroke-linecap="round"/>
<path d="M260 6L260 192" stroke="#EFEFF1" stroke-linecap="round"/>
<path d="M292 6L292 192" stroke="#EFEFF1" stroke-linecap="round"/>
<path d="M325 6L325 192" stroke="#EFEFF1" stroke-linecap="round"/>
<path d="M357 6L357 192" stroke="#EFEFF1" stroke-linecap="round"/>
<path d="M390 6L390 192" stroke="#EFEFF1" stroke-linecap="round"/>
<path d="M422 6L422 192" stroke="#EFEFF1" stroke-linecap="round"/>
<path d="M455 6L455 192" stroke="#EFEFF1" stroke-linecap="round"/>
<path d="M487 6L487 192" stroke="#EFEFF1" stroke-linecap="round"/>
<path d="M520 6L520 192" stroke="#EFEFF1" stroke-linecap="round"/>
<path d="M552 6L552 192" stroke="#EFEFF1" stroke-linecap="round"/>
<path d="M968 6L968 192" stroke="#EFEFF1" stroke-linecap="round"/>
<rect x="556.5" y="17.5" width="199" height="163" rx="5.5" fill="white" stroke="#D9D9D9"/>
<path d="M583.197 110.504V107.079H584.087V115.829H583.197V111.271H582.119V115.397H581.239V107.248H582.119V110.504H583.197ZM580.255 113.522H576.857V108.063H580.255V113.522ZM579.384 108.798H577.73V112.787H579.384V108.798ZM585.669 110.573L585.403 109.876C587.081 109.782 588.262 109.268 588.449 108.526H585.807V107.818H588.531V107.044H589.443V107.818H592.181V108.526H589.522C589.705 109.268 590.886 109.782 592.578 109.876L592.299 110.573C590.776 110.463 589.533 110.021 588.987 109.254C588.442 110.021 587.199 110.463 585.669 110.573ZM592.972 110.919V111.613H589.446V112.345H591.971V114.32H586.881V115.041H592.223V115.746H585.973V113.677H591.059V113.021H585.955V112.345H588.528V111.613H585.016V110.919H592.972ZM596.684 112.597C596.301 112.597 595.983 112.286 595.99 111.906C595.983 111.526 596.301 111.215 596.684 111.215C597.057 111.215 597.375 111.526 597.375 111.906C597.375 112.286 597.057 112.597 596.684 112.597ZM607.001 110.504V107.079H607.892V115.829H607.001V111.271H605.924V115.397H605.043V107.248H605.924V110.504H607.001ZM604.059 113.522H600.661V108.063H604.059V113.522ZM603.189 108.798H601.535V112.787H603.189V108.798ZM615.14 107.079H616.069V111.775H615.14V107.079ZM611.317 107.483C612.657 107.476 613.641 108.308 613.641 109.517C613.641 110.708 612.657 111.54 611.317 111.537C609.974 111.54 608.987 110.708 608.987 109.517C608.987 108.308 609.974 107.476 611.317 107.483ZM611.317 108.263C610.485 108.256 609.888 108.764 609.895 109.517C609.888 110.266 610.485 110.77 611.317 110.773C612.139 110.77 612.733 110.266 612.733 109.517C612.733 108.764 612.139 108.256 611.317 108.263ZM610.34 112.2H611.248V113.18H615.147V112.2H616.069V115.718H610.34V112.2ZM611.248 113.912V114.962H615.147V113.912H611.248ZM620.489 112.597C620.106 112.597 619.788 112.286 619.795 111.906C619.788 111.526 620.106 111.215 620.489 111.215C620.862 111.215 621.18 111.526 621.18 111.906C621.18 112.286 620.862 112.597 620.489 112.597ZM630.989 110.57H632.391V111.36H630.989V115.829H630.06V107.079H630.989V110.57ZM627.204 107.807V109.306C627.197 110.853 628.102 112.438 629.401 113.073L628.831 113.816C627.874 113.322 627.135 112.341 626.752 111.174C626.362 112.417 625.595 113.463 624.601 113.981L624.024 113.235C625.367 112.586 626.276 110.912 626.282 109.306V107.807H627.204ZM638.983 109.123V107.079H639.908V111.775H638.983V109.879H637.277C637.097 110.884 636.199 111.561 635.032 111.561C633.696 111.561 632.736 110.718 632.743 109.513C632.736 108.318 633.696 107.469 635.032 107.476C636.186 107.469 637.08 108.139 637.273 109.123H638.983ZM635.032 110.78C635.844 110.78 636.424 110.259 636.424 109.513C636.424 108.757 635.844 108.249 635.032 108.256C634.207 108.249 633.623 108.757 633.623 109.513C633.623 110.259 634.207 110.78 635.032 110.78ZM635.122 113.218H638.983V112.2H639.908V115.718H634.204V112.2H635.122V113.218ZM635.122 114.962H638.983V113.947H635.122V114.962ZM647.076 107.358H647.998V110.887H642.101V107.358H643.023V108.412H647.076V107.358ZM643.023 110.145H647.076V109.113H643.023V110.145ZM641.044 112.407V111.661H649.052V112.407H645.581V114.016H644.663V112.407H641.044ZM642.042 113.249H642.96V114.89H648.164V115.649H642.042V113.249ZM655.868 108.847V107.079H656.793V112.265H655.868V109.613H654.024V108.847H655.868ZM652.132 109.969C651.752 110.946 651.006 111.706 649.987 112.096L649.487 111.343C650.861 110.874 651.652 109.72 651.655 108.422V107.528H652.584V108.47C652.577 109.637 653.378 110.732 654.69 111.171L654.19 111.91C653.223 111.561 652.508 110.856 652.132 109.969ZM655.868 113.456H650.861V112.721H656.793V115.829H655.868V113.456ZM661.179 112.597C660.796 112.597 660.478 112.286 660.485 111.906C660.478 111.526 660.796 111.215 661.179 111.215C661.552 111.215 661.869 111.526 661.869 111.906C661.869 112.286 661.552 112.597 661.179 112.597ZM671.496 115.829V107.079H672.387V115.829H671.496ZM668.481 109.14H669.752V107.248H670.629V115.397H669.752V112.579H668.481C668.167 113.45 667.587 113.95 666.841 113.947C665.702 113.95 664.959 112.759 664.959 110.856C664.959 108.964 665.702 107.78 666.841 107.78C667.587 107.78 668.164 108.277 668.481 109.14ZM666.841 113.063C667.49 113.07 667.898 112.251 667.898 110.856C667.898 109.465 667.487 108.65 666.841 108.65C666.195 108.65 665.805 109.465 665.812 110.856C665.805 112.251 666.195 113.07 666.841 113.063ZM668.678 111.813H669.752V109.896H668.675C668.723 110.19 668.751 110.511 668.751 110.856C668.751 111.198 668.723 111.519 668.678 111.813ZM680.18 107.079V109.282H681.447V110.055H680.18V112.358H679.251V107.079H680.18ZM675.874 109.969C675.498 110.95 674.755 111.72 673.737 112.096L673.236 111.36C674.6 110.874 675.391 109.703 675.398 108.401V107.535H676.316V108.481C676.316 109.627 677.124 110.694 678.429 111.122L677.936 111.851C676.976 111.512 676.257 110.832 675.874 109.969ZM677.352 112.566C679.155 112.566 680.259 113.166 680.259 114.185C680.259 115.224 679.155 115.815 677.352 115.815C675.536 115.815 674.417 115.224 674.417 114.185C674.417 113.166 675.536 112.566 677.352 112.566ZM677.352 115.086C678.612 115.079 679.351 114.765 679.351 114.185C679.351 113.629 678.612 113.301 677.352 113.301C676.088 113.301 675.339 113.629 675.346 114.185C675.339 114.765 676.088 115.079 677.352 115.086ZM690.056 107.434H690.981V111.233H684.973V107.434H685.892V108.574H690.056V107.434ZM685.892 110.487H690.056V109.316H685.892V110.487ZM683.975 112.224H691.983V112.963H688.412V115.829H687.501V112.963H683.975V112.224ZM699.248 110.566H700.605V111.343H699.248V115.818H698.319V107.079H699.248V110.566ZM692.874 108.004H696.959C696.952 110.528 695.836 112.787 692.953 114.206L692.435 113.488C694.631 112.393 695.819 110.811 696.016 108.771H692.874V108.004ZM707.507 115.829V107.079H708.398V115.829H707.507ZM704.344 110.155H705.708V107.248H706.582V115.397H705.708V110.925H704.344V110.155ZM703.54 107.876V109.468C703.54 110.87 704.124 112.358 705.298 113.073L704.776 113.791C703.958 113.298 703.405 112.421 703.105 111.409C702.784 112.517 702.183 113.463 701.333 113.981L700.753 113.291C701.993 112.552 702.642 111.001 702.642 109.51V107.876H703.54ZM715.999 112.182V113.978H719.566V114.744H711.558V113.978H715.08V112.182H712.47V107.676H713.399V109.185H717.694V107.676H718.616V112.182H715.999ZM717.694 109.931H713.399V111.43H717.694V109.931ZM726.154 108.778V108.674H720.84V107.921H727.079V108.778C727.076 109.862 727.076 111.07 726.745 112.866L725.812 112.762C726.147 111.07 726.147 109.831 726.154 108.778ZM723.951 110.794V113.881H727.977V114.648H720.001V113.881H723.033V110.794H723.951ZM734.821 109.986V107.079H735.74V115.846H734.821V110.739H732.87V109.986H734.821ZM731.599 107.807V109.306C731.596 110.908 732.494 112.503 733.83 113.104L733.271 113.85C732.273 113.349 731.52 112.362 731.137 111.164C730.75 112.424 729.987 113.488 728.982 114.009L728.395 113.263C729.749 112.614 730.653 110.925 730.66 109.306V107.807H731.599Z" fill="#595959"/>
<path d="M643.915 95.1222V83.6575H645.275V95.1222H643.915ZM639.345 87.9085H641.554V83.8819H642.874V94.5746H641.554V89.0666H639.345V87.9085ZM637.141 86.1354V91.3246C638.501 91.3156 639.475 91.2483 640.602 91.0104L640.719 92.1775C639.417 92.4423 638.272 92.4962 636.535 92.5007H635.763V84.9952H640.131V86.1354H637.141ZM654.742 83.6575H656.165V95.1492H654.742V83.6575ZM649.984 84.4879C651.703 84.4924 652.969 86.0635 652.969 88.5414C652.969 91.0373 651.703 92.6084 649.984 92.6039C648.242 92.6084 646.981 91.0373 646.985 88.5414C646.981 86.0635 648.242 84.4924 649.984 84.4879ZM649.984 85.7628C649.005 85.7628 648.345 86.7907 648.345 88.5414C648.345 90.3056 649.005 91.3291 649.984 91.3291C650.944 91.3291 651.604 90.3056 651.604 88.5414C651.604 86.7907 650.944 85.7628 649.984 85.7628ZM666.072 87.8008V83.6575H667.472V95.1492H666.072V88.941H663.921V87.8008H666.072ZM659.791 88.9724V91.3381C661.542 91.3291 662.844 91.2707 664.321 91.0238L664.469 92.1685C662.795 92.4244 661.327 92.4872 659.275 92.4962H658.377V84.6495H663.737V85.7942H659.791V87.8546H663.288V88.9724H659.791ZM680.374 86.4675V83.6664H681.783V90.1215H680.374V87.6302H678.165V86.4675H680.374ZM678.111 84.3532C678.107 87.3115 676.159 89.3809 672.819 90.3191L672.253 89.2148C674.821 88.5145 676.347 87.1633 676.599 85.4889H672.868V84.3532H678.111ZM681.783 94.9741H674.233V90.5884H681.783V94.9741ZM680.383 91.7017H675.616V93.8608H680.383V91.7017ZM684.391 88.4831L683.911 87.3788C686.043 87.1678 687.435 86.3104 687.65 85.3498H684.364V84.2051H692.925V85.3498H689.612C689.823 86.297 691.192 87.1678 693.373 87.3788L692.875 88.4831C690.792 88.2721 689.248 87.4461 688.624 86.2835C688.005 87.4416 686.478 88.2721 684.391 88.4831ZM683.408 90.144V88.9993H693.863V90.144H683.408ZM688.62 90.9026C691.102 90.9026 692.592 91.6747 692.597 93.0124C692.592 94.3591 691.102 95.1177 688.62 95.1133C686.128 95.1177 684.624 94.3591 684.624 93.0124C684.624 91.6747 686.128 90.9026 688.62 90.9026ZM688.62 94.0045C690.267 94.009 691.178 93.6768 691.187 93.0124C691.178 92.3436 690.267 92.0069 688.62 92.0024C686.954 92.0069 686.052 92.3436 686.061 93.0124C686.052 93.6768 686.954 94.009 688.62 94.0045Z" fill="black"/>
<mask id="mask0_2869_36514" style="mask-type:alpha" maskUnits="userSpaceOnUse" x="617" y="82" width="14" height="14">
<rect x="617" y="82" width="14" height="14" fill="#D9D9D9"/>
</mask>
<g mask="url(#mask0_2869_36514)">
<path d="M619.8 86.9H619.95C620.527 86.9 621 87.3725 621 87.95V93.2C621 93.7775 620.527 94.25 619.95 94.25H619.8C619.223 94.25 618.75 93.7775 618.75 93.2V87.95C618.75 87.3725 619.223 86.9 619.8 86.9ZM624 83.75C624.577 83.75 625.05 84.2225 625.05 84.8V93.2C625.05 93.7775 624.577 94.25 624 94.25C623.423 94.25 622.95 93.7775 622.95 93.2V84.8C622.95 84.2225 623.423 83.75 624 83.75ZM628.2 89.75C628.778 89.75 629.25 90.2225 629.25 90.8V93.2C629.25 93.7775 628.778 94.25 628.2 94.25C627.623 94.25 627.15 93.7775 627.15 93.2V90.8C627.15 90.2225 627.623 89.75 628.2 89.75Z" fill="black"/>
</g>
<rect x="361.5" y="73.5" width="186" height="51" rx="5.5" fill="white" stroke="#D9D9D9"/>
<path d="M393.377 86.9368H395.81V88.059H389.404V86.9368H391.972V85.6485H393.377V86.9368ZM398.992 94.4064H397.583V92.144H395.886V91.0173H397.583V89.7334H395.886V88.5887H397.583V85.6664H398.992V94.4064ZM395.347 90.7704C395.338 92.0901 394.221 93.0014 392.663 93.0014C391.11 93.0014 389.997 92.0901 390.006 90.7704C389.997 89.4551 391.11 88.5394 392.663 88.5394C394.221 88.5394 395.338 89.4551 395.347 90.7704ZM391.321 90.7704C391.316 91.4886 391.868 91.9106 392.663 91.9106C393.449 91.9106 394.01 91.4886 394.019 90.7704C394.01 90.0701 393.449 89.6481 392.663 89.6392C391.868 89.6481 391.316 90.0701 391.321 90.7704ZM392.856 93.6523V95.7621H399.244V96.9068H391.429V93.6523H392.856ZM409.276 90.3619H410.848V91.5021H400.357V90.3619H407.853C408.127 89.1229 408.15 88.1847 408.154 87.3453H401.654V86.2096H409.564V87.1029C409.564 88.0007 409.564 89.0107 409.276 90.3619ZM409.546 96.9876H401.618V92.8398H409.546V96.9876ZM408.145 93.9441H403.001V95.8474H408.145V93.9441ZM414.515 91.8477C412.787 91.8567 411.48 90.6896 411.489 89.078C411.48 87.453 412.787 86.2949 414.515 86.2994C415.449 86.2949 416.257 86.6405 416.8 87.2196H419.534V85.6575H420.943V92.3999H419.534V90.941H416.786C416.243 91.511 415.44 91.8522 414.515 91.8477ZM412.832 89.078C412.832 90.0207 413.532 90.6581 414.515 90.6492C415.471 90.6581 416.176 90.0207 416.176 89.078C416.176 88.1129 415.471 87.5024 414.515 87.5114C413.532 87.5024 412.832 88.1129 412.832 89.078ZM419.534 89.8052V88.3463H417.424C417.487 88.5753 417.523 88.8222 417.523 89.078C417.523 89.3339 417.487 89.5763 417.424 89.8052H419.534ZM417.06 92.6468C419.471 92.6423 420.975 93.4682 420.975 94.8823C420.975 96.2918 419.471 97.1177 417.06 97.1133C414.654 97.1177 413.15 96.2918 413.155 94.8823C413.15 93.4682 414.654 92.6423 417.06 92.6468ZM417.06 96.0045C418.681 96.009 419.596 95.6095 419.596 94.8823C419.596 94.1326 418.681 93.7331 417.06 93.7331C415.462 93.7331 414.533 94.1326 414.542 94.8823C414.533 95.6095 415.462 96.009 417.06 96.0045ZM427.546 88.4271C426.792 89.7244 425.248 90.6806 423.318 90.9679L422.757 89.8277C425.185 89.5135 426.801 88.059 426.801 86.6091V86.0211H428.282V86.6091C428.282 88.0501 429.903 89.5135 432.345 89.8277L431.788 90.9679C429.84 90.6806 428.291 89.7244 427.546 88.4271ZM422.308 91.9644H432.762V93.1271H428.206V97.1222H426.81V93.1271H422.308V91.9644ZM434.266 90.4831L433.786 89.3788C435.918 89.1678 437.31 88.3104 437.525 87.3498H434.239V86.2051H442.8V87.3498H439.487C439.698 88.297 441.067 89.1678 443.248 89.3788L442.75 90.4831C440.667 90.2721 439.123 89.4461 438.499 88.2835C437.88 89.4416 436.353 90.2721 434.266 90.4831ZM433.283 92.144V90.9993H443.738V92.144H433.283ZM438.495 92.9026C440.977 92.9026 442.467 93.6747 442.472 95.0124C442.467 96.3591 440.977 97.1177 438.495 97.1133C436.003 97.1177 434.499 96.3591 434.499 95.0124C434.499 93.6747 436.003 92.9026 438.495 92.9026ZM438.495 96.0045C440.142 96.009 441.053 95.6768 441.062 95.0124C441.053 94.3436 440.142 94.0069 438.495 94.0024C436.829 94.0069 435.927 94.3436 435.936 95.0124C435.927 95.6768 436.829 96.009 438.495 96.0045ZM453.583 94.4244L454.925 96H453.179L452.587 95.3222C451.94 95.8788 451.043 96.1347 450.226 96.1347C448.349 96.1347 447.2 95.0214 447.2 93.558C447.2 92.4762 447.896 91.8163 448.924 91.107C448.394 90.4517 447.981 89.7828 447.981 88.9613C447.981 87.6595 448.937 86.6944 450.387 86.6944C451.833 86.6944 452.721 87.655 452.721 88.7773C452.721 89.6526 452.268 90.317 451.5 90.8736L450.917 91.3001L452.6 93.2752C452.843 92.8218 452.986 92.2831 452.986 91.6771H454.378C454.378 92.9385 454.032 93.8318 453.583 94.4244ZM450.41 88.0231C449.822 88.0231 449.422 88.49 449.422 88.9838C449.422 89.4102 449.705 89.8367 450.091 90.317L450.616 89.9579C451.092 89.6436 451.348 89.316 451.348 88.8491C451.348 88.4496 450.989 88.0186 450.41 88.0231ZM450.275 94.8015C450.769 94.8015 451.271 94.6264 451.707 94.3122L449.79 92.1215L449.642 92.2293C449.023 92.6827 448.785 93.172 448.785 93.4907C448.785 94.2179 449.373 94.8015 450.275 94.8015ZM458.376 86.8066H461.815C463.929 86.8066 465.056 88.095 465.056 89.8501C465.056 91.6143 463.915 92.8892 461.792 92.8892H460.023V96H458.376V86.8066ZM460.023 91.529H461.572C462.811 91.529 463.368 90.8287 463.368 89.8501C463.368 88.8715 462.811 88.1892 461.563 88.1892H460.023V91.529ZM470.328 92.4896V91.1923H474.058V92.2921C474.058 94.6578 472.428 96.1257 470.157 96.1257C467.616 96.1257 465.902 94.3211 465.902 91.4123C465.902 88.4541 467.697 86.6809 470.103 86.6809C472.132 86.6809 473.699 87.9378 473.982 89.7424H472.294C471.993 88.7638 471.234 88.1668 470.126 88.1668C468.64 88.1668 467.562 89.3204 467.562 91.3943C467.562 93.4817 468.617 94.6398 470.162 94.6398C471.549 94.6398 472.428 93.8049 472.455 92.4896H470.328ZM479.04 92.9565C478.497 92.9565 478.048 92.5166 478.057 91.9734C478.048 91.4392 478.497 90.9993 479.04 90.9993C479.57 90.9993 480.019 91.4392 480.023 91.9734C480.019 92.5166 479.57 92.9565 479.04 92.9565ZM492.298 90.0881V85.6575H493.654V97.1222H492.298V91.2462H491.077V96.5746H489.739V85.855H491.077V90.0881H492.298ZM485.443 89.3608H487.315V86.7034H488.621V94.3526H484.11V86.7034H485.443V89.3608ZM485.443 93.2124H487.315V90.4786H485.443V93.2124ZM503.785 85.6575V87.9109H505.388V89.0691H503.785V91.3898H502.367V85.6575H503.785ZM501.325 89.5718L501.482 90.6716C499.942 91.0173 498.542 91.0666 496.109 91.0622H495.175V86.2769H500.311V87.3992H496.576V89.9534C498.659 89.9444 499.911 89.8591 501.325 89.5718ZM503.785 94.9361H497.685V95.8474H504.144V96.9876H496.293V93.8722H502.376V93.0148H496.275V91.8881H503.785V94.9361ZM509.923 92.9565C509.38 92.9565 508.931 92.5166 508.94 91.9734C508.931 91.4392 509.38 90.9993 509.923 90.9993C510.452 90.9993 510.901 91.4392 510.906 91.9734C510.901 92.5166 510.452 92.9565 509.923 92.9565ZM519.818 89.1409C519.051 90.5953 517.453 91.6861 515.504 92.0273L514.934 90.8557C517.327 90.4741 519.06 88.8311 519.069 87.1837V86.3353H520.568V87.1837C520.563 88.8446 522.301 90.4876 524.711 90.8557L524.141 92.0273C522.175 91.6682 520.577 90.5953 519.818 89.1409ZM522.417 92.1709V94.595H525.129V95.7352H514.638V94.595H517.336V92.1709H518.732V94.595H521.017V92.1709H522.417ZM533.752 85.6664H535.166V92.6198H533.752V85.6664ZM532.823 90.519L532.917 91.5649C530.583 91.9644 527.88 92.0093 525.959 92.0093L525.802 90.8602C526.21 90.8602 526.65 90.8602 527.117 90.8512V87.7089H526.112V86.5687H532.342V87.7089H531.314V90.6761C531.831 90.6312 532.338 90.5818 532.823 90.519ZM529.963 87.7089H528.468V90.8242C528.958 90.8108 529.46 90.7928 529.963 90.7659V87.7089ZM531.31 92.8443C533.747 92.8443 535.238 93.6119 535.238 94.9675C535.238 96.3322 533.747 97.1177 531.31 97.1133C528.868 97.1177 527.387 96.3322 527.387 94.9675C527.387 93.6119 528.868 92.8443 531.31 92.8443ZM531.31 96.0269C532.926 96.0269 533.824 95.6588 533.828 94.9675C533.824 94.2942 532.926 93.9306 531.31 93.9351C529.689 93.9306 528.787 94.2942 528.787 94.9675C528.787 95.6588 529.689 96.0269 531.31 96.0269Z" fill="black"/>
<path d="M395.958 108.504V105.079H396.849V113.829H395.958V109.271H394.881V113.397H394V105.248H394.881V108.504H395.958ZM393.016 111.522H389.618V106.063H393.016V111.522ZM392.146 106.798H390.492V110.787H392.146V106.798ZM398.63 108.573L398.364 107.876C400.042 107.782 401.223 107.268 401.41 106.526H398.768V105.818H401.493V105.044H402.404V105.818H405.143V106.526H402.484C402.667 107.268 403.848 107.782 405.54 107.876L405.26 108.573C403.737 108.463 402.494 108.021 401.949 107.254C401.403 108.021 400.16 108.463 398.63 108.573ZM405.933 108.919V109.613H402.408V110.345H404.932V112.32H399.842V113.041H405.184V113.746H398.934V111.677H404.02V111.021H398.917V110.345H401.489V109.613H397.978V108.919H405.933ZM410.046 110.597C409.662 110.597 409.345 110.286 409.352 109.906C409.345 109.526 409.662 109.215 410.046 109.215C410.419 109.215 410.736 109.526 410.736 109.906C410.736 110.286 410.419 110.597 410.046 110.597ZM420.763 108.504V105.079H421.653V113.829H420.763V109.271H419.685V113.397H418.805V105.248H419.685V108.504H420.763ZM417.821 111.522H414.423V106.063H417.821V111.522ZM416.95 106.798H415.296V110.787H416.95V106.798ZM429.101 105.079H430.03V109.775H429.101V105.079ZM425.279 105.483C426.619 105.476 427.603 106.308 427.603 107.517C427.603 108.708 426.619 109.54 425.279 109.537C423.936 109.54 422.948 108.708 422.948 107.517C422.948 106.308 423.936 105.476 425.279 105.483ZM425.279 106.263C424.447 106.256 423.849 106.764 423.856 107.517C423.849 108.266 424.447 108.77 425.279 108.773C426.101 108.77 426.695 108.266 426.695 107.517C426.695 106.764 426.101 106.256 425.279 106.263ZM424.302 110.2H425.21V111.18H429.108V110.2H430.03V113.718H424.302V110.2ZM425.21 111.912V112.962H429.108V111.912H425.21ZM434.85 110.597C434.467 110.597 434.149 110.286 434.156 109.906C434.149 109.526 434.467 109.215 434.85 109.215C435.223 109.215 435.541 109.526 435.541 109.906C435.541 110.286 435.223 110.597 434.85 110.597ZM443.378 108.846V109.692H446.91V110.448H438.934V109.692H442.456V108.846C440.819 108.746 439.787 108.107 439.787 107.081C439.787 105.997 441.013 105.331 442.915 105.327C444.811 105.331 446.037 105.997 446.037 107.081C446.037 108.107 445.008 108.746 443.378 108.846ZM440.75 107.081C440.743 107.741 441.576 108.104 442.915 108.107C444.255 108.104 445.087 107.741 445.087 107.081C445.087 106.456 444.255 106.073 442.915 106.073C441.576 106.073 440.743 106.456 440.75 107.081ZM439.939 111.101H440.871V112.89H446.013V113.649H439.939V111.101ZM454.393 108.501H455.795V109.278H454.393V113.846H453.474V105.079H454.393V108.501ZM448.858 109.084V110.98C450.36 110.977 451.468 110.918 452.746 110.686L452.832 111.443C451.468 111.691 450.287 111.75 448.647 111.757H447.939V108.335H450.999V106.626H447.922V105.866H451.924V109.084H448.858ZM462.549 105.086H463.477V111.446H462.549V105.086ZM458.726 110.02C457.407 110.023 456.395 109.129 456.395 107.845C456.395 106.577 457.407 105.68 458.726 105.68C460.045 105.68 461.05 106.577 461.05 107.845C461.05 109.129 460.045 110.023 458.726 110.02ZM457.303 107.845C457.296 108.666 457.911 109.212 458.726 109.212C459.527 109.212 460.142 108.666 460.142 107.845C460.142 107.037 459.527 106.488 458.726 106.488C457.911 106.488 457.296 107.037 457.303 107.845ZM458.685 110.8V112.89H463.733V113.649H457.752V110.8H458.685ZM471.495 108.504V105.079H472.386V113.829H471.495V109.271H470.418V113.397H469.537V105.248H470.418V108.504H471.495ZM468.553 111.522H465.155V106.063H468.553V111.522ZM467.683 106.798H466.029V110.787H467.683V106.798ZM474.167 108.573L473.901 107.876C475.58 107.782 476.76 107.268 476.947 106.526H474.305V105.818H477.03V105.044H477.941V105.818H480.68V106.526H478.021C478.204 107.268 479.385 107.782 481.077 107.876L480.797 108.573C479.274 108.463 478.031 108.021 477.486 107.254C476.94 108.021 475.697 108.463 474.167 108.573ZM481.47 108.919V109.613H477.945V110.345H480.469V112.32H475.379V113.041H480.721V113.746H474.471V111.677H479.557V111.021H474.454V110.345H477.026V109.613H473.515V108.919H481.47ZM482.758 110.068C482.758 108.335 483.221 106.895 484.101 105.666H485.058C484.378 106.577 483.839 108.428 483.839 110.068C483.839 111.709 484.378 113.563 485.058 114.474H484.101C483.221 113.245 482.758 111.802 482.758 110.068ZM491.74 105.358H492.662V108.887H486.764V105.358H487.686V106.412H491.74V105.358ZM487.686 108.145H491.74V107.113H487.686V108.145ZM485.707 110.407V109.661H493.715V110.407H490.245V112.016H489.326V110.407H485.707ZM486.705 111.249H487.624V112.89H492.827V113.649H486.705V111.249ZM500.703 113.829V105.079H501.636V113.829H500.703ZM494.871 106.021H499.036C499.029 108.58 497.941 110.8 494.937 112.233L494.447 111.484C496.774 110.379 497.906 108.801 498.089 106.76H494.871V106.021ZM505.316 110.068C505.316 111.802 504.854 113.245 503.973 114.474H503.017C503.697 113.563 504.236 111.709 504.236 110.068C504.236 108.428 503.697 106.577 503.017 105.666H503.973C504.854 106.895 505.316 108.335 505.316 110.068Z" fill="#595959"/>
<mask id="mask1_2869_36514" style="mask-type:alpha" maskUnits="userSpaceOnUse" x="371" y="84" width="14" height="14">
<rect x="371" y="84" width="14" height="14" fill="#D9D9D9"/>
</mask>
<g mask="url(#mask1_2869_36514)">
<path d="M373.334 91.6954C373.334 90.436 373.333 89.1766 373.334 87.9175C373.335 87.1211 373.856 86.4958 374.639 86.3545C374.737 86.3367 374.84 86.3354 374.941 86.335C376.982 86.3341 379.022 86.3334 381.063 86.3347C381.994 86.3354 382.666 87.0068 382.666 87.9344C382.667 90.4652 382.667 92.9961 382.666 95.5269C382.666 96.1548 382.173 96.6305 381.565 96.5941C381.283 96.5772 381.05 96.4357 380.821 96.2906C380.313 95.9691 379.813 95.9785 379.307 96.3C378.453 96.8428 377.582 96.8552 376.725 96.3178C376.191 95.9828 375.678 95.9643 375.148 96.3091C374.92 96.4568 374.687 96.5951 374.4 96.5987C373.806 96.6065 373.336 96.1535 373.334 95.5587C373.332 94.2711 373.334 92.9834 373.334 91.6958V91.6954ZM378 88.4061C377.319 88.4061 376.639 88.4055 375.959 88.4061C375.644 88.4068 375.414 88.6201 375.407 88.9149C375.4 89.2084 375.636 89.4432 375.953 89.4435C377.318 89.4458 378.682 89.4471 380.047 89.4399C380.16 89.4393 380.288 89.3938 380.384 89.3311C380.572 89.21 380.635 88.9701 380.565 88.76C380.494 88.547 380.301 88.4071 380.065 88.4065C379.377 88.4048 378.688 88.4058 378 88.4058L378 88.4061ZM377.996 91.5169C378.676 91.5169 379.356 91.5175 380.037 91.5169C380.358 91.5165 380.592 91.2971 380.593 90.9996C380.594 90.7045 380.359 90.4792 380.039 90.4789C378.679 90.4772 377.318 90.4772 375.957 90.4805C375.871 90.4805 375.779 90.5006 375.7 90.5363C375.48 90.6354 375.371 90.8737 375.422 91.1117C375.473 91.348 375.678 91.5152 375.931 91.5162C376.619 91.5185 377.307 91.5169 377.996 91.5172V91.5169ZM376.961 93.5873C376.961 93.5873 376.961 93.5883 376.961 93.5886C377.293 93.5886 377.625 93.5928 377.956 93.586C378.05 93.5841 378.152 93.5675 378.237 93.5285C378.449 93.4308 378.556 93.1896 378.506 92.9591C378.457 92.7285 378.255 92.5591 378.008 92.5578C377.313 92.5542 376.617 92.5561 375.921 92.5574C375.873 92.5574 375.824 92.5643 375.778 92.5779C375.538 92.6487 375.38 92.8857 375.411 93.125C375.445 93.3896 375.642 93.5811 375.905 93.586C376.257 93.5925 376.609 93.5876 376.961 93.5876L376.961 93.5873Z" fill="black"/>
</g>
<rect x="972.5" y="17.5" width="199" height="163" rx="5.5" fill="white" stroke="#D9D9D9"/>
<path d="M986.648 107.928H987.698V115H986.62V109.006H986.579L984.89 110.107V109.081L986.648 107.928ZM991.731 107.831C993.026 107.842 994.39 108.622 994.394 111.212C994.394 113.691 993.327 115.097 991.631 115.097C990.33 115.097 989.418 114.292 989.252 113.146H990.312C990.461 113.74 990.917 114.157 991.631 114.157C992.719 114.157 993.361 113.204 993.368 111.588H993.282C992.899 112.189 992.236 112.548 991.472 112.548C990.205 112.548 989.19 111.578 989.19 110.228C989.19 108.878 990.191 107.821 991.731 107.831ZM991.731 108.733C990.875 108.733 990.229 109.396 990.236 110.211C990.24 111.029 990.851 111.675 991.711 111.675C992.56 111.675 993.223 110.977 993.223 110.197C993.223 109.43 992.595 108.733 991.731 108.733ZM1001.36 107.079H1002.29V111.533H1001.36V107.079ZM999.799 109.34C999.792 110.487 998.822 111.288 997.506 111.288C996.174 111.288 995.203 110.487 995.203 109.34C995.203 108.191 996.174 107.383 997.506 107.379C998.822 107.383 999.792 108.191 999.799 109.34ZM996.108 109.34C996.101 110.059 996.698 110.535 997.506 110.535C998.308 110.535 998.901 110.059 998.901 109.34C998.901 108.626 998.308 108.146 997.506 108.149C996.698 108.146 996.101 108.626 996.108 109.34ZM997.458 114.137V114.976H1002.57V115.718H996.557V113.446H1001.36V112.673H996.529V111.937H1002.29V114.137H997.458ZM1010.4 110.211V109.454H1012.08V107.086H1013V113.494H1012.08V110.211H1010.4ZM1008.39 110.314C1008 111.278 1007.24 112.051 1006.19 112.424L1005.71 111.668C1007.06 111.215 1007.9 110.062 1007.9 108.857V108.512H1006V107.756H1010.72V108.512H1008.84V108.857C1008.84 109.948 1009.63 111.043 1010.95 111.485L1010.48 112.224C1009.49 111.882 1008.77 111.177 1008.39 110.314ZM1008.25 112.925V114.89H1013.24V115.649H1007.32V112.925H1008.25ZM1021.1 110.632H1022.38V111.402H1021.1V115.829H1020.18V107.079H1021.1V110.632ZM1016.79 108.015C1016.78 110.204 1016.39 112.196 1014.81 113.888L1014.07 113.367C1015.35 112.037 1015.81 110.532 1015.91 108.781H1014.39V108.015H1016.79ZM1017.07 108.015H1019.21C1019.2 110.231 1018.92 112.562 1017.32 114.465L1016.57 113.95C1017.88 112.434 1018.26 110.646 1018.33 108.781H1017.07V108.015ZM1028.91 115.829V107.079H1029.84V115.829H1028.91ZM1025.81 108.726V109.662C1025.81 111.122 1026.77 112.635 1028.12 113.208L1027.61 113.94C1026.58 113.484 1025.77 112.517 1025.36 111.357C1024.95 112.6 1024.13 113.664 1023.11 114.157L1022.57 113.425C1023.89 112.811 1024.87 111.164 1024.88 109.662V108.726H1022.88V107.959H1027.81V108.726H1025.81ZM1039.6 107.079H1040.53V115.846H1039.6V107.079ZM1033.76 107.918H1037.87V113.667H1033.76V107.918ZM1036.97 108.653H1034.68V112.921H1036.97V108.653ZM1048.06 115.846V107.079H1048.98V115.846H1048.06ZM1043.17 111.067V112.98C1044.59 112.973 1045.83 112.907 1047.29 112.666L1047.38 113.432C1045.83 113.688 1044.51 113.747 1042.97 113.747H1042.22V110.321H1045.37V108.626H1042.21V107.866H1046.31V111.067H1043.17ZM1059.03 115.829V107.079H1059.93V115.829H1059.03ZM1055.44 110.369H1057.24V107.269H1058.11V115.39H1057.24V111.14H1055.44V110.369ZM1053.63 108.885V112.997C1054.77 112.99 1055.54 112.942 1056.44 112.749L1056.53 113.522C1055.52 113.726 1054.66 113.767 1053.29 113.774H1052.72V108.128H1056.04V108.885H1053.63ZM1067.16 107.079H1068.1V115.846H1067.16V107.079ZM1063.41 107.735C1064.72 107.738 1065.67 108.93 1065.67 110.805C1065.67 112.69 1064.72 113.881 1063.41 113.881C1062.09 113.881 1061.15 112.69 1061.15 110.805C1061.15 108.93 1062.09 107.738 1063.41 107.735ZM1063.41 108.564C1062.6 108.57 1062.04 109.427 1062.04 110.805C1062.04 112.193 1062.6 113.049 1063.41 113.049C1064.22 113.049 1064.77 112.193 1064.77 110.805C1064.77 109.427 1064.22 108.57 1063.41 108.564ZM1075.67 110.314V107.079H1076.59V115.846H1075.67V111.07H1073.93V110.314H1075.67ZM1070.62 111.053V113.011C1072.09 113.008 1073.1 112.963 1074.27 112.762L1074.37 113.519C1073.09 113.722 1072 113.774 1070.37 113.778H1069.69V107.856H1073.78V108.615H1070.62V110.314H1073.41V111.053H1070.62ZM1086.34 109.282V107.086H1087.27V112.044H1086.34V110.048H1084.53V109.282H1086.34ZM1084.5 107.631C1084.49 109.855 1082.97 111.433 1080.44 112.148L1080.05 111.423C1082.08 110.856 1083.33 109.765 1083.51 108.384H1080.51V107.631H1084.5ZM1087.27 115.711H1081.55V112.407H1087.27V115.711ZM1086.35 113.142H1082.45V114.969H1086.35V113.142ZM1089.16 110.739L1088.84 110.01C1090.42 109.838 1091.67 109.13 1091.78 108.273H1089.15V107.51H1095.68V108.273H1093.03C1093.13 109.123 1094.37 109.838 1095.99 110.01L1095.65 110.739C1094.13 110.566 1092.88 109.931 1092.4 108.999C1091.92 109.927 1090.68 110.566 1089.16 110.739ZM1088.42 111.954V111.198H1096.4V111.954H1088.42ZM1092.4 112.628C1094.28 112.628 1095.41 113.211 1095.42 114.227C1095.41 115.245 1094.28 115.815 1092.4 115.815C1090.5 115.815 1089.36 115.245 1089.36 114.227C1089.36 113.211 1090.5 112.628 1092.4 112.628ZM1092.4 115.083C1093.72 115.083 1094.49 114.782 1094.5 114.227C1094.49 113.664 1093.72 113.36 1092.4 113.353C1091.06 113.36 1090.3 113.664 1090.3 114.227C1090.3 114.782 1091.06 115.083 1092.4 115.083ZM1100.84 110.249C1098.87 110.242 1097.71 109.71 1097.71 108.726C1097.71 107.756 1098.87 107.224 1100.84 107.224C1102.81 107.224 1103.96 107.756 1103.96 108.726C1103.96 109.71 1102.81 110.242 1100.84 110.249ZM1100.84 107.914C1099.45 107.911 1098.68 108.215 1098.68 108.726C1098.68 109.271 1099.45 109.551 1100.84 109.551C1102.24 109.551 1103.01 109.271 1103.01 108.726C1103.01 108.215 1102.24 107.911 1100.84 107.914ZM1096.86 111.523V110.78H1104.84V111.523H1096.86ZM1103.83 114.244H1098.74V115.028H1104.08V115.746H1097.83V113.577H1102.91V112.89H1097.81V112.196H1103.83V114.244ZM1113.87 107.086H1114.8V113.474H1113.87V107.086ZM1110.33 110.359C1109.94 111.312 1109.16 112.065 1108.12 112.434L1107.64 111.699C1109 111.236 1109.84 110.104 1109.85 108.902V108.526H1107.88V107.776H1112.71V108.526H1110.78V108.902C1110.78 110.041 1111.62 111.105 1112.97 111.53L1112.5 112.258C1111.49 111.927 1110.73 111.236 1110.33 110.359ZM1110.01 112.873V114.89H1115.06V115.649H1109.08V112.873H1110.01ZM1122.57 110.155H1121.55V112.296H1120.68V107.248H1121.55V109.392H1122.57V107.079H1123.44V112.6H1122.57V110.155ZM1118.62 108.08H1120.36V108.812H1115.94V108.08H1117.7V107.148H1118.62V108.08ZM1120.05 110.729C1120.04 111.633 1119.27 112.224 1118.16 112.224C1117.06 112.224 1116.28 111.633 1116.28 110.729C1116.28 109.814 1117.06 109.22 1118.16 109.22C1119.27 109.22 1120.04 109.814 1120.05 110.729ZM1117.11 110.729C1117.11 111.222 1117.53 111.55 1118.16 111.547C1118.78 111.55 1119.21 111.222 1119.21 110.729C1119.21 110.224 1118.78 109.9 1118.16 109.9C1117.53 109.9 1117.11 110.224 1117.11 110.729ZM1120.52 112.728C1122.38 112.728 1123.49 113.287 1123.49 114.278C1123.49 115.256 1122.38 115.815 1120.52 115.815C1118.66 115.815 1117.54 115.256 1117.55 114.278C1117.54 113.287 1118.66 112.728 1120.52 112.728ZM1120.52 115.1C1121.82 115.107 1122.56 114.807 1122.57 114.278C1122.56 113.726 1121.82 113.432 1120.52 113.439C1119.22 113.432 1118.47 113.726 1118.47 114.278C1118.47 114.807 1119.22 115.107 1120.52 115.1ZM1131.04 110.725V107.079H1131.92V115.829H1131.04V111.481H1130.03V115.418H1129.16V107.276H1130.03V110.725H1131.04ZM1126.13 107.338H1127.05V108.529H1128.75V109.278H1124.41V108.529H1126.13V107.338ZM1126.59 109.803C1127.69 109.803 1128.48 110.639 1128.49 111.816C1128.48 113.011 1127.69 113.85 1126.59 113.85C1125.49 113.85 1124.69 113.011 1124.69 111.816C1124.69 110.639 1125.49 109.803 1126.59 109.803ZM1126.59 113.052C1127.22 113.059 1127.67 112.559 1127.67 111.816C1127.67 111.088 1127.22 110.58 1126.59 110.577C1125.96 110.58 1125.51 111.088 1125.51 111.816C1125.51 112.559 1125.96 113.059 1126.59 113.052ZM1133.67 111.347L1133.32 110.615C1134.95 110.394 1136.31 109.416 1136.34 108.339H1133.61V107.6H1140.1V108.339H1137.39C1137.41 109.416 1138.76 110.394 1140.41 110.615L1140.07 111.347C1138.63 111.122 1137.39 110.414 1136.86 109.416C1136.32 110.414 1135.08 111.122 1133.67 111.347ZM1132.87 112.01H1140.85V112.766H1137.3V115.825H1136.38V112.766H1132.87V112.01ZM1147.95 115.829V107.079H1148.84V115.829H1147.95ZM1144.79 110.155H1146.15V107.248H1147.02V115.397H1146.15V110.925H1144.79V110.155ZM1143.98 107.876V109.468C1143.98 110.87 1144.56 112.358 1145.74 113.073L1145.22 113.791C1144.4 113.298 1143.85 112.421 1143.55 111.409C1143.22 112.517 1142.62 113.463 1141.77 113.981L1141.19 113.291C1142.43 112.552 1143.08 111.001 1143.08 109.51V107.876H1143.98ZM1155.85 111.664V113.971H1157.77V114.738H1149.76V113.971H1151.67V111.682C1150.95 111.288 1150.51 110.66 1150.51 109.876C1150.51 108.498 1151.86 107.593 1153.74 107.586C1155.62 107.593 1156.97 108.498 1156.97 109.876C1156.97 110.649 1156.55 111.267 1155.85 111.664ZM1153.74 108.336C1152.37 108.329 1151.42 108.93 1151.42 109.876C1151.42 110.811 1152.37 111.423 1153.74 111.423C1155.1 111.423 1156.07 110.811 1156.07 109.876C1156.07 108.93 1155.1 108.329 1153.74 108.336ZM1152.59 112.023V113.971H1154.91V112.02C1154.55 112.103 1154.16 112.148 1153.74 112.148C1153.32 112.148 1152.94 112.103 1152.59 112.023ZM1158.67 107.928H1159.81L1159.72 112.963H1158.76L1158.67 107.928ZM1159.24 115.066C1158.86 115.066 1158.55 114.755 1158.55 114.375C1158.55 113.995 1158.86 113.684 1159.24 113.684C1159.62 113.684 1159.93 113.995 1159.94 114.375C1159.93 114.755 1159.62 115.066 1159.24 115.066Z" fill="#595959"/>
<path d="M1045.3 90.355V92.5905H1049.87V93.7441H1039.38V92.5905H1043.9V90.355H1040.54V84.4161H1041.95V86.2925H1047.26V84.4161H1048.67V90.355H1045.3ZM1047.26 87.4237H1041.95V89.2193H1047.26V87.4237ZM1059.53 91.2303L1058.1 91.0777C1058.55 88.8512 1058.56 87.2217 1058.56 85.8391H1051.71V84.7034H1059.98V85.8077C1059.98 87.2352 1059.98 88.8332 1059.53 91.2303ZM1055.88 88.501V92.4917H1061.07V93.6499H1050.62V92.4917H1054.48V88.501H1055.88ZM1070.07 87.3653V83.6575H1071.47V95.1492H1070.07V88.5055H1067.67V87.3653H1070.07ZM1066.09 84.5777V86.4137C1066.09 88.5414 1067.11 90.6333 1068.94 91.4413L1068.08 92.568C1066.79 91.9306 1065.87 90.7141 1065.38 89.2148C1064.88 90.7994 1063.95 92.1146 1062.63 92.779L1061.74 91.6343C1063.61 90.7635 1064.65 88.5504 1064.66 86.4137V84.5777H1066.09ZM1085.16 88.1195H1086.93V89.3046H1085.16V95.1222H1083.75V83.6575H1085.16V88.1195ZM1080.29 85.9468V86.9119C1080.28 88.6896 1081.34 90.7051 1083.15 91.549L1082.36 92.6623C1081.07 92.0608 1080.11 90.8263 1079.6 89.3898C1079.08 90.9655 1078.08 92.3122 1076.76 92.9496L1075.93 91.8363C1077.76 90.9744 1078.87 88.8242 1078.87 86.9119V85.9468H1076.37V84.7887H1082.69V85.9468H1080.29ZM1093.34 88.0521V89.1519H1097.88V90.2742H1087.41V89.1519H1091.96V88.0521H1088.7V84.1737H1096.61V85.2825H1090.1V86.9389H1096.67V88.0521H1093.34ZM1092.62 90.934C1095.1 90.934 1096.59 91.6927 1096.6 93.0349C1096.59 94.3681 1095.1 95.1267 1092.62 95.1312C1090.13 95.1267 1088.62 94.3681 1088.62 93.0349C1088.62 91.6927 1090.13 90.934 1092.62 90.934ZM1092.62 94.0359C1094.27 94.0449 1095.18 93.6992 1095.19 93.0349C1095.18 92.375 1094.27 92.0204 1092.62 92.0204C1090.95 92.0204 1090.05 92.375 1090.06 93.0349C1090.05 93.6992 1090.95 94.0449 1092.62 94.0359ZM1110.78 83.6575V85.9738H1112.39V87.1229H1110.78V89.5245H1109.36V83.6575H1110.78ZM1106.19 84.1602H1107.6V89.1609H1102.12V84.1602H1103.51V85.6191H1106.19V84.1602ZM1103.51 88.0432H1106.19V86.692H1103.51V88.0432ZM1110.78 92.99H1104.68V93.9057H1111.14V95.028H1103.29V91.9665H1109.37V91.0867H1103.27V89.9869H1110.78V92.99ZM1118.17 86.0052C1117.43 87.2082 1115.93 88.0611 1114.05 88.3574L1113.53 87.2441C1115.9 86.9434 1117.46 85.6461 1117.46 84.2769V83.8415H1118.89V84.2769C1118.89 85.6775 1120.43 86.9434 1122.83 87.2441L1122.28 88.3574C1120.4 88.0611 1118.9 87.2127 1118.17 86.0052ZM1118.88 87.6975V89.2058H1123.42V90.337H1112.96V89.2058H1117.48V87.6975H1118.88ZM1118.18 91.0732C1120.67 91.0732 1122.15 91.8094 1122.15 93.1022C1122.15 94.395 1120.67 95.1177 1118.18 95.1133C1115.67 95.1177 1114.18 94.395 1114.18 93.1022C1114.18 91.8094 1115.67 91.0732 1118.18 91.0732ZM1118.18 94.0494C1119.84 94.0539 1120.73 93.7262 1120.74 93.1022C1120.73 92.4693 1119.84 92.1595 1118.18 92.1595C1116.49 92.1595 1115.61 92.4693 1115.62 93.1022C1115.61 93.7262 1116.49 94.0539 1118.18 94.0494Z" fill="black"/>
<mask id="mask2_2869_36514" style="mask-type:alpha" maskUnits="userSpaceOnUse" x="1021" y="82" width="14" height="14">
<rect x="1021" y="82" width="14" height="14" fill="#D9D9D9"/>
</mask>
<g mask="url(#mask2_2869_36514)">
<path d="M1023.8 86.9H1023.95C1024.53 86.9 1025 87.3725 1025 87.95V93.2C1025 93.7775 1024.53 94.25 1023.95 94.25H1023.8C1023.22 94.25 1022.75 93.7775 1022.75 93.2V87.95C1022.75 87.3725 1023.22 86.9 1023.8 86.9ZM1028 83.75C1028.58 83.75 1029.05 84.2225 1029.05 84.8V93.2C1029.05 93.7775 1028.58 94.25 1028 94.25C1027.42 94.25 1026.95 93.7775 1026.95 93.2V84.8C1026.95 84.2225 1027.42 83.75 1028 83.75ZM1032.2 89.75C1032.78 89.75 1033.25 90.2225 1033.25 90.8V93.2C1033.25 93.7775 1032.78 94.25 1032.2 94.25C1031.62 94.25 1031.15 93.7775 1031.15 93.2V90.8C1031.15 90.2225 1031.62 89.75 1032.2 89.75Z" fill="black"/>
</g>
<rect x="764.5" y="17.5" width="199" height="163" rx="5.5" fill="white" stroke="#D9D9D9"/>
<path d="M791.197 110.504V107.079H792.087V115.829H791.197V111.271H790.119V115.397H789.239V107.248H790.119V110.504H791.197ZM788.255 113.522H784.857V108.063H788.255V113.522ZM787.384 108.798H785.73V112.787H787.384V108.798ZM793.669 110.573L793.403 109.876C795.081 109.782 796.262 109.268 796.449 108.526H793.807V107.818H796.531V107.044H797.443V107.818H800.181V108.526H797.522C797.705 109.268 798.886 109.782 800.578 109.876L800.299 110.573C798.776 110.463 797.533 110.021 796.987 109.254C796.442 110.021 795.199 110.463 793.669 110.573ZM800.972 110.919V111.613H797.446V112.345H799.971V114.32H794.881V115.041H800.223V115.746H793.973V113.677H799.059V113.021H793.955V112.345H796.528V111.613H793.016V110.919H800.972ZM804.684 112.597C804.301 112.597 803.983 112.286 803.99 111.906C803.983 111.526 804.301 111.215 804.684 111.215C805.057 111.215 805.375 111.526 805.375 111.906C805.375 112.286 805.057 112.597 804.684 112.597ZM815.001 110.504V107.079H815.892V115.829H815.001V111.271H813.924V115.397H813.043V107.248H813.924V110.504H815.001ZM812.059 113.522H808.661V108.063H812.059V113.522ZM811.189 108.798H809.535V112.787H811.189V108.798ZM823.14 107.079H824.069V111.775H823.14V107.079ZM819.317 107.483C820.657 107.476 821.641 108.308 821.641 109.517C821.641 110.708 820.657 111.54 819.317 111.537C817.974 111.54 816.987 110.708 816.987 109.517C816.987 108.308 817.974 107.476 819.317 107.483ZM819.317 108.263C818.485 108.256 817.888 108.764 817.895 109.517C817.888 110.266 818.485 110.77 819.317 110.773C820.139 110.77 820.733 110.266 820.733 109.517C820.733 108.764 820.139 108.256 819.317 108.263ZM818.34 112.2H819.248V113.18H823.147V112.2H824.069V115.718H818.34V112.2ZM819.248 113.912V114.962H823.147V113.912H819.248ZM828.489 112.597C828.106 112.597 827.788 112.286 827.795 111.906C827.788 111.526 828.106 111.215 828.489 111.215C828.862 111.215 829.18 111.526 829.18 111.906C829.18 112.286 828.862 112.597 828.489 112.597ZM838.989 110.57H840.391V111.36H838.989V115.829H838.06V107.079H838.989V110.57ZM835.204 107.807V109.306C835.197 110.853 836.102 112.438 837.401 113.073L836.831 113.816C835.874 113.322 835.135 112.341 834.752 111.174C834.362 112.417 833.595 113.463 832.601 113.981L832.024 113.235C833.367 112.586 834.276 110.912 834.282 109.306V107.807H835.204ZM846.983 109.123V107.079H847.908V111.775H846.983V109.879H845.277C845.097 110.884 844.199 111.561 843.032 111.561C841.696 111.561 840.736 110.718 840.743 109.513C840.736 108.318 841.696 107.469 843.032 107.476C844.186 107.469 845.08 108.139 845.273 109.123H846.983ZM843.032 110.78C843.844 110.78 844.424 110.259 844.424 109.513C844.424 108.757 843.844 108.249 843.032 108.256C842.207 108.249 841.623 108.757 841.623 109.513C841.623 110.259 842.207 110.78 843.032 110.78ZM843.122 113.218H846.983V112.2H847.908V115.718H842.204V112.2H843.122V113.218ZM843.122 114.962H846.983V113.947H843.122V114.962ZM855.076 107.358H855.998V110.887H850.101V107.358H851.023V108.412H855.076V107.358ZM851.023 110.145H855.076V109.113H851.023V110.145ZM849.044 112.407V111.661H857.052V112.407H853.581V114.016H852.663V112.407H849.044ZM850.042 113.249H850.96V114.89H856.164V115.649H850.042V113.249ZM863.868 108.847V107.079H864.793V112.265H863.868V109.613H862.024V108.847H863.868ZM860.132 109.969C859.752 110.946 859.006 111.706 857.987 112.096L857.487 111.343C858.861 110.874 859.652 109.72 859.655 108.422V107.528H860.584V108.47C860.577 109.637 861.378 110.732 862.69 111.171L862.19 111.91C861.223 111.561 860.508 110.856 860.132 109.969ZM863.868 113.456H858.861V112.721H864.793V115.829H863.868V113.456ZM869.179 112.597C868.796 112.597 868.478 112.286 868.485 111.906C868.478 111.526 868.796 111.215 869.179 111.215C869.552 111.215 869.869 111.526 869.869 111.906C869.869 112.286 869.552 112.597 869.179 112.597ZM879.496 115.829V107.079H880.387V115.829H879.496ZM876.481 109.14H877.752V107.248H878.629V115.397H877.752V112.579H876.481C876.167 113.45 875.587 113.95 874.841 113.947C873.702 113.95 872.959 112.759 872.959 110.856C872.959 108.964 873.702 107.78 874.841 107.78C875.587 107.78 876.164 108.277 876.481 109.14ZM874.841 113.063C875.49 113.07 875.898 112.251 875.898 110.856C875.898 109.465 875.487 108.65 874.841 108.65C874.195 108.65 873.805 109.465 873.812 110.856C873.805 112.251 874.195 113.07 874.841 113.063ZM876.678 111.813H877.752V109.896H876.675C876.723 110.19 876.751 110.511 876.751 110.856C876.751 111.198 876.723 111.519 876.678 111.813ZM888.18 107.079V109.282H889.447V110.055H888.18V112.358H887.251V107.079H888.18ZM883.874 109.969C883.498 110.95 882.755 111.72 881.737 112.096L881.236 111.36C882.6 110.874 883.391 109.703 883.398 108.401V107.535H884.316V108.481C884.316 109.627 885.124 110.694 886.429 111.122L885.936 111.851C884.976 111.512 884.257 110.832 883.874 109.969ZM885.352 112.566C887.155 112.566 888.259 113.166 888.259 114.185C888.259 115.224 887.155 115.815 885.352 115.815C883.536 115.815 882.417 115.224 882.417 114.185C882.417 113.166 883.536 112.566 885.352 112.566ZM885.352 115.086C886.612 115.079 887.351 114.765 887.351 114.185C887.351 113.629 886.612 113.301 885.352 113.301C884.088 113.301 883.339 113.629 883.346 114.185C883.339 114.765 884.088 115.079 885.352 115.086ZM898.056 107.434H898.981V111.233H892.973V107.434H893.892V108.574H898.056V107.434ZM893.892 110.487H898.056V109.316H893.892V110.487ZM891.975 112.224H899.983V112.963H896.412V115.829H895.501V112.963H891.975V112.224ZM907.248 110.566H908.605V111.343H907.248V115.818H906.319V107.079H907.248V110.566ZM900.874 108.004H904.959C904.952 110.528 903.836 112.787 900.953 114.206L900.435 113.488C902.631 112.393 903.819 110.811 904.016 108.771H900.874V108.004ZM915.507 115.829V107.079H916.398V115.829H915.507ZM912.344 110.155H913.708V107.248H914.582V115.397H913.708V110.925H912.344V110.155ZM911.54 107.876V109.468C911.54 110.87 912.124 112.358 913.298 113.073L912.776 113.791C911.958 113.298 911.405 112.421 911.105 111.409C910.784 112.517 910.183 113.463 909.333 113.981L908.753 113.291C909.993 112.552 910.642 111.001 910.642 109.51V107.876H911.54ZM923.999 112.182V113.978H927.566V114.744H919.558V113.978H923.08V112.182H920.47V107.676H921.399V109.185H925.694V107.676H926.616V112.182H923.999ZM925.694 109.931H921.399V111.43H925.694V109.931ZM934.154 108.778V108.674H928.84V107.921H935.079V108.778C935.076 109.862 935.076 111.07 934.745 112.866L933.812 112.762C934.147 111.07 934.147 109.831 934.154 108.778ZM931.951 110.794V113.881H935.977V114.648H928.001V113.881H931.033V110.794H931.951ZM942.821 109.986V107.079H943.74V115.846H942.821V110.739H940.87V109.986H942.821ZM939.599 107.807V109.306C939.596 110.908 940.494 112.503 941.83 113.104L941.271 113.85C940.273 113.349 939.52 112.362 939.137 111.164C938.75 112.424 937.987 113.488 936.982 114.009L936.395 113.263C937.749 112.614 938.653 110.925 938.66 109.306V107.807H939.599Z" fill="#595959"/>
<path d="M849.302 90.355V92.5905H853.872V93.7441H843.382V92.5905H847.902V90.355H844.535V84.4161H845.949V86.2925H851.264V84.4161H852.669V90.355H849.302ZM851.264 87.4237H845.949V89.2193H851.264V87.4237ZM863.532 91.2303L862.104 91.0777C862.553 88.8512 862.558 87.2217 862.562 85.8391H855.708V84.7034H863.981V85.8077C863.976 87.2352 863.976 88.8332 863.532 91.2303ZM859.878 88.501V92.4917H865.072V93.6499H854.617V92.4917H858.477V88.501H859.878ZM874.072 87.3653V83.6575H875.472V95.1492H874.072V88.5055H871.67V87.3653H874.072ZM870.09 84.5777V86.4137C870.09 88.5414 871.109 90.6333 872.94 91.4413L872.083 92.568C870.786 91.9306 869.874 90.7141 869.381 89.2148C868.882 90.7994 867.949 92.1146 866.629 92.779L865.74 91.6343C867.607 90.7635 868.649 88.5504 868.658 86.4137V84.5777H870.09ZM888.643 87.711H887.494V90.3415H886.183V83.8774H887.494V86.5618H888.643V83.6664H889.985V90.7006H888.643V87.711ZM885.986 88.8422L885.236 89.924C884.213 89.5335 883.503 88.8018 883.09 87.9085C882.668 88.9365 881.923 89.8163 880.832 90.2742L880.069 89.1834C881.649 88.4921 882.386 87.0556 882.386 85.7807V84.3667H883.759V85.7807C883.755 87.0242 884.477 88.2721 885.986 88.8422ZM886.111 90.8892C888.513 90.8892 890.039 91.6792 890.044 93.0035C890.039 94.3232 888.513 95.1177 886.111 95.1133C883.692 95.1177 882.175 94.3232 882.184 93.0035C882.175 91.6792 883.692 90.8892 886.111 90.8892ZM886.111 94.0359C887.683 94.0449 888.621 93.6768 888.63 93.0035C888.621 92.3256 887.683 91.953 886.111 91.9575C884.522 91.953 883.584 92.3256 883.589 93.0035C883.584 93.6768 884.522 94.0449 886.111 94.0359ZM901.019 90.3999H899.609V87.0331H897.324V85.875H899.609V83.6575H901.019V90.3999ZM894.932 87.5943C894.429 88.8467 893.473 89.8298 892.086 90.3146L891.332 89.1789C893.23 88.5549 894.182 87.0197 894.191 85.3588V84.2769H895.61V85.2959C895.601 86.8671 896.516 88.2901 898.307 88.8602L897.549 89.9644C896.301 89.52 895.421 88.6851 894.932 87.5943ZM897.136 90.7096C899.564 90.7096 901.05 91.5221 901.05 92.9182C901.05 94.3187 899.564 95.1177 897.136 95.1133C894.712 95.1177 893.226 94.3187 893.23 92.9182C893.226 91.5221 894.712 90.7096 897.136 90.7096ZM897.136 94.0045C898.738 94.009 899.645 93.6184 899.65 92.9182C899.645 92.1954 898.738 91.8094 897.136 91.8094C895.538 91.8094 894.627 92.1954 894.635 92.9182C894.627 93.6184 895.538 94.009 897.136 94.0045Z" fill="black"/>
<mask id="mask3_2869_36514" style="mask-type:alpha" maskUnits="userSpaceOnUse" x="825" y="82" width="14" height="14">
<rect x="825" y="82" width="14" height="14" fill="#D9D9D9"/>
</mask>
<g mask="url(#mask3_2869_36514)">
<path d="M827.8 86.9H827.95C828.527 86.9 829 87.3725 829 87.95V93.2C829 93.7775 828.527 94.25 827.95 94.25H827.8C827.223 94.25 826.75 93.7775 826.75 93.2V87.95C826.75 87.3725 827.223 86.9 827.8 86.9ZM832 83.75C832.577 83.75 833.05 84.2225 833.05 84.8V93.2C833.05 93.7775 832.577 94.25 832 94.25C831.423 94.25 830.95 93.7775 830.95 93.2V84.8C830.95 84.2225 831.423 83.75 832 83.75ZM836.2 89.75C836.778 89.75 837.25 90.2225 837.25 90.8V93.2C837.25 93.7775 836.778 94.25 836.2 94.25C835.623 94.25 835.15 93.7775 835.15 93.2V90.8C835.15 90.2225 835.623 89.75 836.2 89.75Z" fill="black"/>
</g>
<rect x="361.5" y="129.5" width="186" height="51" rx="5.5" fill="white" stroke="#D9D9D9"/>
<path d="M398.368 146.155H400.137V147.354H398.368V153.122H396.954V141.657H398.368V146.155ZM393.48 142.578V144.414C393.471 146.456 394.499 148.53 396.272 149.387L395.415 150.519C394.167 149.89 393.278 148.678 392.789 147.219C392.281 148.777 391.343 150.074 390.032 150.734L389.162 149.594C391.011 148.723 392.061 146.528 392.07 144.414V142.578H393.48ZM408.558 144.275V141.657H409.968V147.816H408.558V145.406H406.489C406.224 146.699 405.043 147.569 403.54 147.569C401.784 147.569 400.505 146.443 400.514 144.854C400.505 143.287 401.784 142.156 403.54 142.16C405.03 142.156 406.202 143.013 406.484 144.275H408.558ZM403.54 146.38C404.509 146.38 405.2 145.769 405.2 144.854C405.2 143.929 404.509 143.336 403.54 143.341C402.552 143.336 401.856 143.929 401.856 144.854C401.856 145.769 402.552 146.38 403.54 146.38ZM403.8 149.562H408.558V148.346H409.968V152.988H402.404V148.346H403.8V149.562ZM403.8 151.843H408.558V150.662H403.8V151.843ZM419.314 145.724V147.174H421.787V148.306H411.332V147.174H413.765V145.715C412.903 145.347 412.414 144.773 412.419 144.023C412.414 142.654 414.017 141.846 416.553 141.842C419.08 141.846 420.683 142.654 420.683 144.023C420.683 144.777 420.189 145.356 419.314 145.724ZM416.553 142.932C414.856 142.932 413.873 143.323 413.882 144.023C413.873 144.728 414.856 145.1 416.553 145.1C418.241 145.1 419.233 144.728 419.233 144.023C419.233 143.323 418.241 142.932 416.553 142.932ZM415.188 146.084V147.174H417.909V146.084C417.496 146.137 417.042 146.169 416.553 146.169C416.059 146.169 415.606 146.137 415.188 146.084ZM416.544 148.997C419.017 148.992 420.517 149.724 420.521 151.044C420.517 152.382 419.017 153.109 416.544 153.104C414.044 153.109 412.549 152.382 412.549 151.044C412.549 149.724 414.044 148.992 416.544 148.997ZM416.544 152.036C418.191 152.045 419.103 151.695 419.112 151.044C419.103 150.406 418.191 150.074 416.544 150.065C414.879 150.074 413.976 150.406 413.985 151.044C413.976 151.695 414.879 152.045 416.544 152.036ZM434.119 146.142H435.821V147.305H434.119V153.104H432.705V141.657H434.119V146.142ZM425.828 142.789H431.098C431.094 146.25 430.147 149.226 425.914 151.327L425.137 150.267C427.13 149.284 428.315 148.135 428.984 146.775L425.415 147.107L425.231 145.895L429.411 145.63C429.559 145.092 429.648 144.526 429.689 143.929H425.828V142.789ZM438.774 147.031H445.423V148.171H437.378V142.654H445.333V143.799H438.774V147.031ZM436.108 151.672V150.505H446.599V151.672H436.108ZM456.408 150.424L457.75 152H456.004L455.412 151.322C454.765 151.879 453.867 152.135 453.051 152.135C451.174 152.135 450.025 151.021 450.025 149.558C450.025 148.476 450.721 147.816 451.749 147.107C451.219 146.452 450.806 145.783 450.806 144.961C450.806 143.66 451.762 142.694 453.212 142.694C454.658 142.694 455.546 143.655 455.546 144.777C455.546 145.653 455.093 146.317 454.325 146.874L453.742 147.3L455.425 149.275C455.668 148.822 455.811 148.283 455.811 147.677H457.203C457.203 148.939 456.857 149.832 456.408 150.424ZM453.235 144.023C452.647 144.023 452.247 144.49 452.247 144.984C452.247 145.41 452.53 145.837 452.916 146.317L453.441 145.958C453.917 145.644 454.173 145.316 454.173 144.849C454.173 144.45 453.814 144.019 453.235 144.023ZM453.1 150.801C453.594 150.801 454.096 150.626 454.532 150.312L452.615 148.122L452.467 148.229C451.847 148.683 451.61 149.172 451.61 149.491C451.61 150.218 452.198 150.801 453.1 150.801ZM466.893 145.846V144.705H468.926V141.666H470.336V150.052H468.926V145.846H466.893ZM464.244 146.07C463.737 147.273 462.786 148.243 461.425 148.71L460.698 147.565C462.525 146.968 463.504 145.469 463.504 143.942V143.633H461.111V142.492H467.315V143.633H464.94V143.951C464.94 145.329 465.865 146.757 467.638 147.345L466.933 148.463C465.65 148.032 464.743 147.152 464.244 146.07ZM464.218 149.311V151.762H470.623V152.907H462.808V149.311H464.218ZM480.687 146.119H482.456V147.305H480.687V153.122H479.273V141.657H480.687V146.119ZM475.817 143.947V144.912C475.808 146.69 476.872 148.705 478.681 149.549L477.891 150.662C476.598 150.061 475.642 148.826 475.126 147.39C474.605 148.965 473.604 150.312 472.289 150.95L471.458 149.836C473.285 148.974 474.398 146.824 474.403 144.912V143.947H471.903V142.789H478.214V143.947H475.817ZM491.218 153.122V141.657H492.574V153.122H491.218ZM487.223 145.608H488.862V141.855H490.186V152.575H488.862V146.77H487.223V145.608ZM486.258 142.672V144.665C486.258 146.515 486.9 148.445 488.458 149.419L487.677 150.505C486.64 149.886 485.971 148.813 485.589 147.56C485.176 148.939 484.44 150.106 483.363 150.761L482.492 149.715C484.153 148.701 484.893 146.681 484.893 144.728V142.672H486.258ZM502.571 146.362H504.142V147.502H493.651V146.362H501.148C501.422 145.123 501.444 144.185 501.449 143.345H494.949V142.21H502.858V143.103C502.858 144.001 502.858 145.011 502.571 146.362ZM502.84 152.988H494.913V148.84H502.84V152.988ZM501.44 149.944H496.295V151.847H501.44V149.944ZM513.187 153.122V141.657H514.52V153.122H513.187ZM509.475 144.737H510.812V141.936H512.155V152.588H510.812V148.746H509.021V147.601H510.812V145.886H509.228C508.685 147.794 507.491 149.428 505.34 150.707L504.505 149.706C506.88 148.297 507.98 146.506 508.191 144.198H505.12V143.054H509.596C509.596 143.633 509.555 144.194 509.475 144.737ZM524.656 141.657V145.042H526.259V146.232H524.656V150.083H523.238V141.657H524.656ZM519.036 145.931C518.533 147.147 517.586 148.099 516.248 148.57L515.463 147.457C517.348 146.842 518.291 145.298 518.295 143.669V142.362H519.709V143.686C519.7 145.19 520.652 146.627 522.457 147.219L521.716 148.333C520.445 147.897 519.543 147.031 519.036 145.931ZM517.308 149.257H518.744V151.762H525.114V152.907H517.308V149.257ZM534.797 145.365V141.657H536.197V153.149H534.797V146.506H532.395V145.365H534.797ZM530.815 142.578V144.414C530.815 146.541 531.834 148.633 533.665 149.441L532.808 150.568C531.511 149.931 530.599 148.714 530.106 147.215C529.607 148.799 528.674 150.115 527.354 150.779L526.465 149.634C528.332 148.763 529.374 146.55 529.383 144.414V142.578H530.815Z" fill="black"/>
<path d="M395.958 164.504V161.079H396.849V169.829H395.958V165.271H394.881V169.397H394V161.248H394.881V164.504H395.958ZM393.016 167.522H389.618V162.063H393.016V167.522ZM392.146 162.798H390.492V166.787H392.146V162.798ZM398.63 164.573L398.364 163.876C400.042 163.782 401.223 163.268 401.41 162.526H398.768V161.818H401.493V161.044H402.404V161.818H405.143V162.526H402.484C402.667 163.268 403.848 163.782 405.54 163.876L405.26 164.573C403.737 164.463 402.494 164.021 401.949 163.254C401.403 164.021 400.16 164.463 398.63 164.573ZM405.933 164.919V165.613H402.408V166.345H404.932V168.32H399.842V169.041H405.184V169.746H398.934V167.677H404.02V167.021H398.917V166.345H401.489V165.613H397.978V164.919H405.933ZM410.046 166.597C409.662 166.597 409.345 166.286 409.352 165.906C409.345 165.526 409.662 165.215 410.046 165.215C410.419 165.215 410.736 165.526 410.736 165.906C410.736 166.286 410.419 166.597 410.046 166.597ZM420.763 164.504V161.079H421.653V169.829H420.763V165.271H419.685V169.397H418.805V161.248H419.685V164.504H420.763ZM417.821 167.522H414.423V162.063H417.821V167.522ZM416.95 162.798H415.296V166.787H416.95V162.798ZM429.101 161.079H430.03V165.775H429.101V161.079ZM425.279 161.483C426.619 161.476 427.603 162.308 427.603 163.517C427.603 164.708 426.619 165.54 425.279 165.537C423.936 165.54 422.948 164.708 422.948 163.517C422.948 162.308 423.936 161.476 425.279 161.483ZM425.279 162.263C424.447 162.256 423.849 162.764 423.856 163.517C423.849 164.266 424.447 164.77 425.279 164.773C426.101 164.77 426.695 164.266 426.695 163.517C426.695 162.764 426.101 162.256 425.279 162.263ZM424.302 166.2H425.21V167.18H429.108V166.2H430.03V169.718H424.302V166.2ZM425.21 167.912V168.962H429.108V167.912H425.21Z" fill="#595959"/>
<mask id="mask4_2869_36514" style="mask-type:alpha" maskUnits="userSpaceOnUse" x="371" y="140" width="14" height="14">
<rect x="371" y="140" width="14" height="14" fill="#D9D9D9"/>
</mask>
<g mask="url(#mask4_2869_36514)">
<rect x="372.75" y="142.916" width="10.5" height="8.16667" rx="1.6" fill="black"/>
<rect x="372.75" y="145.213" width="10.5" height="1.27604" fill="white"/>
<rect x="373.943" y="148.785" width="0.954545" height="1.02083" rx="0.3" fill="white"/>
</g>
<rect x="10.5" y="17.5" width="375" height="51" rx="5.5" fill="white" stroke="#D9D9D9"/>
<path d="M44.3384 37.3425V36.364H46.5874V29.6664H48.0059V38.3481H46.5874V37.3425H44.3384ZM42.0715 34.1285C40.3747 34.1285 39.203 33.3474 39.203 32.1174C39.203 30.9054 40.3702 30.0794 42.0715 30.0839C43.7459 30.0794 44.922 30.9054 44.9309 32.1174C44.922 33.3474 43.7459 34.1285 42.0715 34.1285ZM42.0715 31.1253C41.1557 31.1209 40.5363 31.4934 40.5452 32.1174C40.5363 32.7414 41.1557 33.1005 42.0715 33.1005C42.9513 33.1005 43.5753 32.7414 43.5843 32.1174C43.5753 31.4934 42.9513 31.1209 42.0715 31.1253ZM42.9154 38.0294H41.4969V35.9016C40.4285 35.9465 39.405 35.951 38.5028 35.951L38.3322 34.8242C40.4465 34.8108 43.2925 34.7883 45.7255 34.4786L45.8108 35.4931C44.8681 35.6502 43.885 35.7535 42.9154 35.8253V38.0294ZM41.268 37.5086V39.7621H48.2707V40.9068H39.8539V37.5086H41.268ZM55.4978 34.2137V33.0735H57.5582V29.6664H58.9678V38.191H57.5582V34.2137H55.4978ZM52.7999 34.4472C52.2927 35.5874 51.3455 36.4807 50.0033 36.9071L49.3165 35.8073C51.1256 35.2417 52.0727 33.8412 52.0727 32.3688V32.1937H49.6711V31.0715H52.0727V29.7293H53.4957V31.0715H55.8749V32.1937H53.4778V32.3688C53.4778 33.7379 54.4339 35.0622 56.2519 35.6188L55.5651 36.7231C54.2633 36.3325 53.3207 35.5021 52.7999 34.4472ZM52.8493 37.4458V39.7621H59.255V40.9068H51.4398V37.4458H52.8493ZM68.8747 41.1222V29.6575H70.2304V41.1222H68.8747ZM64.8796 33.6077H66.518V29.855H67.8423V40.5746H66.518V34.7704H64.8796V33.6077ZM63.9144 30.672V32.6651C63.9144 34.5145 64.5564 36.4448 66.114 37.4189L65.333 38.5052C64.296 37.8857 63.6272 36.8128 63.2456 35.5604C62.8326 36.9385 62.0964 38.1057 61.0191 38.761L60.1482 37.7151C61.8091 36.7006 62.5498 34.6806 62.5498 32.7279V30.672H63.9144ZM83.1778 29.6664V32.0815H84.7983V33.2486H83.1778V35.6771H81.7683V29.6664H83.1778ZM80.7448 33.6077L80.9154 34.7659C79.0076 35.125 77.2389 35.2462 75.5825 35.2462H74.6264V30.1692H76.0449V34.0746C77.5128 34.0611 79.0704 33.9534 80.7448 33.6077ZM77.1267 37.4997H81.7683V36.2203H83.1868V40.9876H75.7262V36.2203H77.1267V37.4997ZM77.1267 39.8474H81.7683V38.6219H77.1267V39.8474ZM92.8918 30.1108H94.3058V35.134H86.3648V30.1108H87.7564V31.5204H92.8918V30.1108ZM87.7564 33.9983H92.8918V32.6336H87.7564V33.9983ZM85.0945 36.3325H95.5851V37.4503H91.0064V41.1222H89.6103V37.4503H85.0945V36.3325ZM104.303 33.3653V29.6575H105.703V41.1492H104.303V34.5055H101.901V33.3653H104.303ZM100.321 30.5777V32.4137C100.321 34.5414 101.34 36.6333 103.171 37.4413L102.314 38.568C101.017 37.9306 100.105 36.7141 99.6116 35.2148C99.1133 36.7994 98.1796 38.1146 96.8599 38.779L95.9711 37.6343C97.8385 36.7635 98.8799 34.5504 98.8889 32.4137V30.5777H100.321ZM116.384 38.4244L117.726 40H115.98L115.387 39.3222C114.741 39.8788 113.843 40.1347 113.026 40.1347C111.149 40.1347 110 39.0214 110 37.558C110 36.4762 110.696 35.8163 111.724 35.107C111.194 34.4517 110.781 33.7828 110.781 32.9613C110.781 31.6595 111.738 30.6944 113.187 30.6944C114.633 30.6944 115.522 31.655 115.522 32.7773C115.522 33.6526 115.068 34.317 114.301 34.8736L113.717 35.3001L115.401 37.2752C115.643 36.8218 115.787 36.2831 115.787 35.6771H117.178C117.178 36.9385 116.832 37.8318 116.384 38.4244ZM113.21 32.0231C112.622 32.0231 112.222 32.49 112.222 32.9838C112.222 33.4102 112.505 33.8367 112.891 34.317L113.416 33.9579C113.892 33.6436 114.148 33.316 114.148 32.8491C114.148 32.4496 113.789 32.0186 113.21 32.0231ZM113.075 38.8015C113.569 38.8015 114.072 38.6264 114.507 38.3122L112.59 36.1215L112.442 36.2293C111.823 36.6827 111.585 37.172 111.585 37.4907C111.585 38.2179 112.173 38.8015 113.075 38.8015ZM126.657 37.3425V36.364H128.906V29.6664H130.325V38.3481H128.906V37.3425H126.657ZM124.39 34.1285C122.694 34.1285 121.522 33.3474 121.522 32.1174C121.522 30.9054 122.689 30.0794 124.39 30.0839C126.065 30.0794 127.241 30.9054 127.25 32.1174C127.241 33.3474 126.065 34.1285 124.39 34.1285ZM124.39 31.1253C123.475 31.1209 122.855 31.4934 122.864 32.1174C122.855 32.7414 123.475 33.1005 124.39 33.1005C125.27 33.1005 125.894 32.7414 125.903 32.1174C125.894 31.4934 125.27 31.1209 124.39 31.1253ZM125.234 38.0294H123.816V35.9016C122.747 35.9465 121.724 35.951 120.822 35.951L120.651 34.8242C122.765 34.8108 125.611 34.7883 128.044 34.4786L128.13 35.4931C127.187 35.6502 126.204 35.7535 125.234 35.8253V38.0294ZM123.587 37.5086V39.7621H130.59V40.9068H122.173V37.5086H123.587ZM137.817 34.2137V33.0735H139.877V29.6664H141.287V38.191H139.877V34.2137H137.817ZM135.119 34.4472C134.612 35.5874 133.664 36.4807 132.322 36.9071L131.635 35.8073C133.445 35.2417 134.392 33.8412 134.392 32.3688V32.1937H131.99V31.0715H134.392V29.7293H135.815V31.0715H138.194V32.1937H135.797V32.3688C135.797 33.7379 136.753 35.0622 138.571 35.6188L137.884 36.7231C136.582 36.3325 135.64 35.5021 135.119 34.4472ZM135.168 37.4458V39.7621H141.574V40.9068H133.759V37.4458H135.168ZM150.79 29.6664H152.204V36.5121H150.79V29.6664ZM146.323 33.7559C145.811 34.9544 144.837 35.9151 143.468 36.3819L142.741 35.2597C144.595 34.6447 145.574 33.1633 145.578 31.6371V31.6191H143.109V30.4744H149.425V31.6191H147.01V31.6371C147.01 33.0466 147.984 34.4068 149.811 34.9769L149.088 36.0767C147.791 35.6727 146.848 34.8287 146.323 33.7559ZM148.325 36.741C150.74 36.7365 152.231 37.549 152.24 38.9496C152.231 40.3501 150.74 41.1537 148.325 41.1492C145.897 41.1537 144.402 40.3501 144.402 38.9496C144.402 37.549 145.897 36.7365 148.325 36.741ZM148.325 40.0494C149.928 40.0584 150.844 39.6678 150.848 38.9496C150.844 38.2403 149.928 37.8453 148.325 37.8453C146.714 37.8453 145.825 38.2403 145.825 38.9496C145.825 39.6678 146.714 40.0584 148.325 40.0494ZM158.865 32.4271C158.111 33.7244 156.567 34.6806 154.637 34.9679L154.075 33.8277C156.504 33.5135 158.12 32.059 158.12 30.6091V30.0211H159.601V30.6091C159.601 32.0501 161.222 33.5135 163.664 33.8277L163.107 34.9679C161.159 34.6806 159.61 33.7244 158.865 32.4271ZM153.627 35.9644H164.081V37.1271H159.525V41.1222H158.129V37.1271H153.627V35.9644ZM175.552 29.6575H176.975V41.1492H175.552V29.6575ZM170.794 30.4879C172.513 30.4924 173.779 32.0635 173.779 34.5414C173.779 37.0373 172.513 38.6084 170.794 38.6039C169.052 38.6084 167.79 37.0373 167.795 34.5414C167.79 32.0635 169.052 30.4924 170.794 30.4879ZM170.794 31.7628C169.815 31.7628 169.155 32.7907 169.155 34.5414C169.155 36.3056 169.815 37.3291 170.794 37.3291C171.754 37.3291 172.414 36.3056 172.414 34.5414C172.414 32.7907 171.754 31.7628 170.794 31.7628ZM186.873 33.7469H185.751V36.4807H184.431V29.8774H185.751V32.5932H186.873V29.6575H188.215V36.8712H186.873V33.7469ZM181.908 30.9009H184.054V32.0052H178.339V30.9009H180.508V29.7517H181.908V30.9009ZM183.704 34.4561C183.699 35.6412 182.667 36.4313 181.208 36.4313C179.771 36.4313 178.734 35.6412 178.739 34.4561C178.734 33.2576 179.771 32.4675 181.208 32.4675C182.667 32.4675 183.699 33.2576 183.704 34.4561ZM180 34.4561C180 35.0442 180.49 35.4168 181.208 35.4168C181.931 35.4168 182.424 35.0442 182.424 34.4561C182.424 33.8591 181.931 33.491 181.208 33.491C180.49 33.491 180 33.8591 180 34.4561ZM184.341 37.0059C186.792 37.0059 188.269 37.751 188.273 39.0663C188.269 40.3726 186.792 41.1177 184.341 41.1133C181.89 41.1177 180.404 40.3726 180.413 39.0663C180.404 37.751 181.89 37.0059 184.341 37.0059ZM184.341 40.0359C185.971 40.0449 186.85 39.7037 186.859 39.0663C186.85 38.4019 185.971 38.0698 184.341 38.0787C182.707 38.0698 181.814 38.4019 181.818 39.0663C181.814 39.7037 182.707 40.0449 184.341 40.0359ZM198.432 29.6575V32.4406H200.034V33.6167H198.432V36.5166H197.013V29.6575H198.432ZM192.758 33.6302C192.259 34.8467 191.335 35.8028 190.011 36.2742L189.247 35.1609C191.097 34.519 192.022 32.9927 192.031 31.3498V30.2635H193.44V31.48C193.44 32.9254 194.374 34.2901 196.138 34.8512L195.384 35.951C194.145 35.5335 193.252 34.6941 192.758 33.6302ZM194.697 36.7724C197.067 36.768 198.535 37.5715 198.535 38.9361C198.535 40.3232 197.067 41.1177 194.697 41.1133C192.3 41.1177 190.81 40.3232 190.814 38.9361C190.81 37.5715 192.3 36.768 194.697 36.7724ZM194.697 40.0045C196.268 40 197.148 39.6409 197.148 38.9361C197.148 38.2628 196.268 37.8767 194.697 37.8767C193.121 37.8767 192.219 38.2628 192.224 38.9361C192.219 39.6409 193.121 40 194.697 40.0045ZM204.55 30.5373H207.136V31.5832H200.546V30.5373H203.141V29.5677H204.55V30.5373ZM209.448 29.6664V32.9883H210.996V34.1509H209.448V37.4189H208.034V29.6664H209.448ZM207.441 35.6143L207.544 36.5794C205.102 37.0014 202.431 37.0373 200.402 37.0373L200.25 35.951C201.116 35.951 202.108 35.9465 203.141 35.9195V35.1654C201.857 35.0173 201.058 34.4337 201.067 33.5628C201.058 32.5439 202.149 31.9289 203.832 31.9289C205.515 31.9289 206.597 32.5439 206.606 33.5628C206.597 34.4292 205.816 35.0083 204.55 35.1654V35.8657C205.533 35.8163 206.516 35.74 207.441 35.6143ZM202.418 33.5628C202.409 34.0207 202.939 34.2721 203.832 34.2721C204.721 34.2721 205.25 34.0207 205.25 33.5628C205.25 33.1274 204.721 32.8671 203.832 32.8626C202.939 32.8671 202.409 33.1274 202.418 33.5628ZM205.641 37.5266C208.087 37.5221 209.497 38.1685 209.506 39.3356C209.497 40.5028 208.087 41.1267 205.641 41.1312C203.172 41.1267 201.767 40.5028 201.767 39.3356C201.767 38.1685 203.172 37.5221 205.641 37.5266ZM205.641 40.0898C207.266 40.0943 208.074 39.8249 208.078 39.3356C208.074 38.8194 207.266 38.5546 205.641 38.5635C203.989 38.5546 203.176 38.8194 203.185 39.3356C203.176 39.8249 203.989 40.0943 205.641 40.0898ZM222.292 29.6664H223.706V38.0518H222.292V29.6664ZM217.713 33.7155C217.201 34.9679 216.254 35.9734 214.907 36.4582L214.162 35.345C216.025 34.6851 216.977 33.0646 216.977 31.4216V30.2994H218.436V31.4216C218.427 33.0197 219.365 34.528 221.187 35.1385L220.465 36.2562C219.154 35.7983 218.225 34.8826 217.713 33.7155ZM217.538 37.2483V39.7621H224.029V40.9068H216.115V37.2483H217.538ZM234.044 37.2303L232.616 37.0777C233.065 34.8512 233.07 33.2217 233.074 31.8391H226.219V30.7034H234.493V31.8077C234.488 33.2352 234.488 34.8332 234.044 37.2303ZM230.39 34.501V38.4917H235.583V39.6499H225.129V38.4917H228.989V34.501H230.39ZM244.323 33.3653V29.6575H245.724V41.1492H244.323V34.5055H241.922V33.3653H244.323ZM240.342 30.5777V32.4137C240.342 34.5414 241.361 36.6333 243.192 37.4413L242.335 38.568C241.037 37.9306 240.126 36.7141 239.632 35.2148C239.134 36.7994 238.2 38.1146 236.881 38.779L235.992 37.6343C237.859 36.7635 238.901 34.5504 238.91 32.4137V30.5777H240.342Z" fill="black"/>
<path d="M44.9579 52.5041V49.0787H45.8488V57.8287H44.9579V53.2707H43.8805V57.3971H43V49.2479H43.8805V52.5041H44.9579ZM42.0159 55.5221H38.6181V50.0628H42.0159V55.5221ZM41.1457 50.7983H39.4917V54.7866H41.1457V50.7983ZM47.6301 52.5732L47.3643 51.8757C49.0424 51.7825 50.2234 51.268 50.4098 50.5256H47.7683V49.8177H50.4927V49.0442H51.4043V49.8177H54.1426V50.5256H51.4837C51.6667 51.268 52.8477 51.7825 54.5397 51.8757L54.26 52.5732C52.7372 52.4627 51.4941 52.0207 50.9485 51.2541C50.4029 52.0207 49.1598 52.4627 47.6301 52.5732ZM54.9333 52.9185V53.6126H51.4078V54.3446H53.9319V56.3198H48.8422V57.0414H54.184V57.7459H47.934V55.6775H53.0203V55.0214H47.9167V54.3446H50.4893V53.6126H46.9775V52.9185H54.9333ZM59.0456 54.5967C58.6623 54.5967 58.3447 54.2859 58.3516 53.9061C58.3447 53.5262 58.6623 53.2155 59.0456 53.2155C59.4186 53.2155 59.7362 53.5262 59.7362 53.9061C59.7362 54.2859 59.4186 54.5967 59.0456 54.5967ZM69.7626 52.5041V49.0787H70.6534V57.8287H69.7626V53.2707H68.6852V57.3971H67.8047V49.2479H68.6852V52.5041H69.7626ZM66.8206 55.5221H63.4228V50.0628H66.8206V55.5221ZM65.9504 50.7983H64.2964V54.7866H65.9504V50.7983ZM78.1013 49.0787H79.0301V53.7749H78.1013V49.0787ZM74.2788 49.4827C75.6185 49.4758 76.6027 50.308 76.6027 51.5166C76.6027 52.7079 75.6185 53.5401 74.2788 53.5366C72.9355 53.5401 71.948 52.7079 71.948 51.5166C71.948 50.308 72.9355 49.4758 74.2788 49.4827ZM74.2788 50.2631C73.4466 50.2562 72.8492 50.7638 72.8561 51.5166C72.8492 52.2659 73.4466 52.77 74.2788 52.7735C75.1006 52.77 75.6945 52.2659 75.6945 51.5166C75.6945 50.7638 75.1006 50.2562 74.2788 50.2631ZM73.3015 54.1996H74.2097V55.1802H78.1082V54.1996H79.0301V57.7182H73.3015V54.1996ZM74.2097 55.9123V56.962H78.1082V55.9123H74.2097ZM83.8503 54.5967C83.467 54.5967 83.1493 54.2859 83.1562 53.9061C83.1493 53.5262 83.467 53.2155 83.8503 53.2155C84.2232 53.2155 84.5409 53.5262 84.5409 53.9061C84.5409 54.2859 84.2232 54.5967 83.8503 54.5967ZM94.2634 49.0856H95.1922V55.4461H94.2634V49.0856ZM90.4409 54.02C89.1218 54.0235 88.1101 53.1291 88.1101 51.8446C88.1101 50.5773 89.1218 49.6796 90.4409 49.6796C91.7599 49.6796 92.7648 50.5773 92.7648 51.8446C92.7648 53.1291 91.7599 54.0235 90.4409 54.02ZM89.0182 51.8446C89.0113 52.6664 89.6259 53.212 90.4409 53.212C91.242 53.212 91.8566 52.6664 91.8566 51.8446C91.8566 51.0366 91.242 50.4876 90.4409 50.4876C89.6259 50.4876 89.0113 51.0366 89.0182 51.8446ZM90.3994 54.8004V56.8895H95.4478V57.6492H89.4671V54.8004H90.3994ZM101.128 52.4938V51.7272H102.944V49.0856H103.869V55.529H102.944V52.4938H101.128ZM101.179 49.7452C101.173 52.0276 99.6049 53.7472 97.0945 54.5587L96.7043 53.8163C98.6518 53.1878 99.9743 51.9965 100.164 50.5152H97.1497V49.7452H101.179ZM99.1732 54.8729V56.8895H104.09V57.6492H98.2305V54.8729H99.1732ZM111.535 49.0787H112.467V57.846H111.535V49.0787ZM105.703 49.8073H106.628V52.0552H108.99V49.8073H109.905V55.7535H105.703V49.8073ZM106.628 52.7907V54.9869H108.99V52.7907H106.628Z" fill="#595959"/>
<path d="M23.2007 34.9348V36.9597C23.2007 37.3798 23.5401 37.719 23.9605 37.719C24.381 37.719 24.7204 37.3798 24.7204 36.9597V34.9348C24.7204 34.5147 24.381 34.1755 23.9605 34.1755C23.5401 34.1755 23.2007 34.5147 23.2007 34.9348ZM26.2401 34.9348V36.9597C26.2401 37.3798 26.5795 37.719 27 37.719C27.4205 37.719 27.7599 37.3798 27.7599 36.9597V34.9348C27.7599 34.5147 27.4205 34.1755 27 34.1755C26.5795 34.1755 26.2401 34.5147 26.2401 34.9348ZM22.9474 40.25H31.0526C31.4731 40.25 31.8125 39.9108 31.8125 39.4907C31.8125 39.0705 31.4731 38.7314 31.0526 38.7314H22.9474C22.5269 38.7314 22.1875 39.0705 22.1875 39.4907C22.1875 39.9108 22.5269 40.25 22.9474 40.25ZM29.2796 34.9348V36.9597C29.2796 37.3798 29.619 37.719 30.0395 37.719C30.4599 37.719 30.7993 37.3798 30.7993 36.9597V34.9348C30.7993 34.5147 30.4599 34.1755 30.0395 34.1755C29.619 34.1755 29.2796 34.5147 29.2796 34.9348ZM26.5289 29.8677L22.5269 31.9735C22.3192 32.0798 22.1875 32.2975 22.1875 32.5303C22.1875 32.8796 22.4712 33.1631 22.8207 33.1631H31.1843C31.5288 33.1631 31.8125 32.8796 31.8125 32.5303C31.8125 32.2975 31.6808 32.0798 31.4731 31.9735L27.4711 29.8677C27.1773 29.7108 26.8227 29.7108 26.5289 29.8677Z" fill="black"/>
</svg>
