<svg width="376" height="52" viewBox="0 0 376 52" fill="none" xmlns="http://www.w3.org/2000/svg">
<rect x="0.5" y="0.5" width="375" height="51" rx="5.5" fill="white" stroke="#D9D9D9"/>
<path d="M34.3384 20.3425V19.364H36.5874V12.6664H38.0059V21.3481H36.5874V20.3425H34.3384ZM32.0715 17.1285C30.3747 17.1285 29.203 16.3474 29.203 15.1174C29.203 13.9054 30.3702 13.0794 32.0715 13.0839C33.7459 13.0794 34.922 13.9054 34.9309 15.1174C34.922 16.3474 33.7459 17.1285 32.0715 17.1285ZM32.0715 14.1253C31.1557 14.1209 30.5363 14.4934 30.5452 15.1174C30.5363 15.7414 31.1557 16.1005 32.0715 16.1005C32.9513 16.1005 33.5753 15.7414 33.5843 15.1174C33.5753 14.4934 32.9513 14.1209 32.0715 14.1253ZM32.9154 21.0294H31.4969V18.9016C30.4285 18.9465 29.405 18.951 28.5028 18.951L28.3322 17.8242C30.4465 17.8108 33.2925 17.7883 35.7255 17.4786L35.8108 18.4931C34.8681 18.6502 33.885 18.7535 32.9154 18.8253V21.0294ZM31.268 20.5086V22.7621H38.2707V23.9068H29.8539V20.5086H31.268ZM45.4978 17.2137V16.0735H47.5582V12.6664H48.9678V21.191H47.5582V17.2137H45.4978ZM42.7999 17.4472C42.2927 18.5874 41.3455 19.4807 40.0033 19.9071L39.3165 18.8073C41.1256 18.2417 42.0727 16.8412 42.0727 15.3688V15.1937H39.6711V14.0715H42.0727V12.7293H43.4957V14.0715H45.8749V15.1937H43.4778V15.3688C43.4778 16.7379 44.4339 18.0622 46.2519 18.6188L45.5651 19.7231C44.2633 19.3325 43.3207 18.5021 42.7999 17.4472ZM42.8493 20.4458V22.7621H49.255V23.9068H41.4398V20.4458H42.8493ZM58.8747 24.1222V12.6575H60.2304V24.1222H58.8747ZM54.8796 16.6077H56.518V12.855H57.8423V23.5746H56.518V17.7704H54.8796V16.6077ZM53.9144 13.672V15.6651C53.9144 17.5145 54.5564 19.4448 56.114 20.4189L55.333 21.5052C54.296 20.8857 53.6272 19.8128 53.2456 18.5604C52.8326 19.9385 52.0964 21.1057 51.0191 21.761L50.1482 20.7151C51.8091 19.7006 52.5498 17.6806 52.5498 15.7279V13.672H53.9144ZM73.1778 12.6664V15.0815H74.7983V16.2486H73.1778V18.6771H71.7683V12.6664H73.1778ZM70.7448 16.6077L70.9154 17.7659C69.0076 18.125 67.2389 18.2462 65.5825 18.2462H64.6264V13.1692H66.0449V17.0746C67.5128 17.0611 69.0704 16.9534 70.7448 16.6077ZM67.1267 20.4997H71.7683V19.2203H73.1868V23.9876H65.7262V19.2203H67.1267V20.4997ZM67.1267 22.8474H71.7683V21.6219H67.1267V22.8474ZM82.8918 13.1108H84.3058V18.134H76.3648V13.1108H77.7564V14.5204H82.8918V13.1108ZM77.7564 16.9983H82.8918V15.6336H77.7564V16.9983ZM75.0945 19.3325H85.5851V20.4503H81.0064V24.1222H79.6103V20.4503H75.0945V19.3325ZM94.3025 16.3653V12.6575H95.7031V24.1492H94.3025V17.5055H91.901V16.3653H94.3025ZM90.3208 13.5777V15.4137C90.3208 17.5414 91.3398 19.6333 93.1713 20.4413L92.3139 21.568C91.0166 20.9306 90.1054 19.7141 89.6116 18.2148C89.1133 19.7994 88.1796 21.1146 86.8599 21.779L85.9711 20.6343C87.8385 19.7635 88.8799 17.5504 88.8889 15.4137V13.5777H90.3208ZM106.384 21.4244L107.726 23H105.98L105.387 22.3222C104.741 22.8788 103.843 23.1347 103.026 23.1347C101.149 23.1347 100 22.0214 100 20.558C100 19.4762 100.696 18.8163 101.724 18.107C101.194 17.4517 100.781 16.7828 100.781 15.9613C100.781 14.6595 101.738 13.6944 103.187 13.6944C104.633 13.6944 105.522 14.655 105.522 15.7773C105.522 16.6526 105.068 17.317 104.301 17.8736L103.717 18.3001L105.401 20.2752C105.643 19.8218 105.787 19.2831 105.787 18.6771H107.178C107.178 19.9385 106.832 20.8318 106.384 21.4244ZM103.21 15.0231C102.622 15.0231 102.222 15.49 102.222 15.9838C102.222 16.4102 102.505 16.8367 102.891 17.317L103.416 16.9579C103.892 16.6436 104.148 16.316 104.148 15.8491C104.148 15.4496 103.789 15.0186 103.21 15.0231ZM103.075 21.8015C103.569 21.8015 104.072 21.6264 104.507 21.3122L102.59 19.1215L102.442 19.2293C101.823 19.6827 101.585 20.172 101.585 20.4907C101.585 21.2179 102.173 21.8015 103.075 21.8015ZM116.657 20.3425V19.364H118.906V12.6664H120.325V21.3481H118.906V20.3425H116.657ZM114.39 17.1285C112.694 17.1285 111.522 16.3474 111.522 15.1174C111.522 13.9054 112.689 13.0794 114.39 13.0839C116.065 13.0794 117.241 13.9054 117.25 15.1174C117.241 16.3474 116.065 17.1285 114.39 17.1285ZM114.39 14.1253C113.475 14.1209 112.855 14.4934 112.864 15.1174C112.855 15.7414 113.475 16.1005 114.39 16.1005C115.27 16.1005 115.894 15.7414 115.903 15.1174C115.894 14.4934 115.27 14.1209 114.39 14.1253ZM115.234 21.0294H113.816V18.9016C112.747 18.9465 111.724 18.951 110.822 18.951L110.651 17.8242C112.765 17.8108 115.611 17.7883 118.044 17.4786L118.13 18.4931C117.187 18.6502 116.204 18.7535 115.234 18.8253V21.0294ZM113.587 20.5086V22.7621H120.59V23.9068H112.173V20.5086H113.587ZM127.817 17.2137V16.0735H129.877V12.6664H131.287V21.191H129.877V17.2137H127.817ZM125.119 17.4472C124.612 18.5874 123.664 19.4807 122.322 19.9071L121.635 18.8073C123.445 18.2417 124.392 16.8412 124.392 15.3688V15.1937H121.99V14.0715H124.392V12.7293H125.815V14.0715H128.194V15.1937H125.797V15.3688C125.797 16.7379 126.753 18.0622 128.571 18.6188L127.884 19.7231C126.582 19.3325 125.64 18.5021 125.119 17.4472ZM125.168 20.4458V22.7621H131.574V23.9068H123.759V20.4458H125.168ZM140.79 12.6664H142.204V19.5121H140.79V12.6664ZM136.323 16.7559C135.811 17.9544 134.837 18.9151 133.468 19.3819L132.741 18.2597C134.595 17.6447 135.574 16.1633 135.578 14.6371V14.6191H133.109V13.4744H139.425V14.6191H137.01V14.6371C137.01 16.0466 137.984 17.4068 139.811 17.9769L139.088 19.0767C137.791 18.6727 136.848 17.8287 136.323 16.7559ZM138.325 19.741C140.74 19.7365 142.231 20.549 142.24 21.9496C142.231 23.3501 140.74 24.1537 138.325 24.1492C135.897 24.1537 134.402 23.3501 134.402 21.9496C134.402 20.549 135.897 19.7365 138.325 19.741ZM138.325 23.0494C139.928 23.0584 140.844 22.6678 140.848 21.9496C140.844 21.2403 139.928 20.8453 138.325 20.8453C136.714 20.8453 135.825 21.2403 135.825 21.9496C135.825 22.6678 136.714 23.0584 138.325 23.0494ZM148.865 15.4271C148.111 16.7244 146.567 17.6806 144.637 17.9679L144.075 16.8277C146.504 16.5135 148.12 15.059 148.12 13.6091V13.0211H149.601V13.6091C149.601 15.0501 151.222 16.5135 153.664 16.8277L153.107 17.9679C151.159 17.6806 149.61 16.7244 148.865 15.4271ZM143.627 18.9644H154.081V20.1271H149.525V24.1222H148.129V20.1271H143.627V18.9644ZM165.552 12.6575H166.975V24.1492H165.552V12.6575ZM160.794 13.4879C162.513 13.4924 163.779 15.0635 163.779 17.5414C163.779 20.0373 162.513 21.6084 160.794 21.6039C159.052 21.6084 157.79 20.0373 157.795 17.5414C157.79 15.0635 159.052 13.4924 160.794 13.4879ZM160.794 14.7628C159.815 14.7628 159.155 15.7907 159.155 17.5414C159.155 19.3056 159.815 20.3291 160.794 20.3291C161.754 20.3291 162.414 19.3056 162.414 17.5414C162.414 15.7907 161.754 14.7628 160.794 14.7628ZM176.873 16.7469H175.751V19.4807H174.431V12.8774H175.751V15.5932H176.873V12.6575H178.215V19.8712H176.873V16.7469ZM171.908 13.9009H174.054V15.0052H168.339V13.9009H170.508V12.7517H171.908V13.9009ZM173.704 17.4561C173.699 18.6412 172.667 19.4313 171.208 19.4313C169.771 19.4313 168.734 18.6412 168.739 17.4561C168.734 16.2576 169.771 15.4675 171.208 15.4675C172.667 15.4675 173.699 16.2576 173.704 17.4561ZM170 17.4561C170 18.0442 170.49 18.4168 171.208 18.4168C171.931 18.4168 172.424 18.0442 172.424 17.4561C172.424 16.8591 171.931 16.491 171.208 16.491C170.49 16.491 170 16.8591 170 17.4561ZM174.341 20.0059C176.792 20.0059 178.269 20.751 178.273 22.0663C178.269 23.3726 176.792 24.1177 174.341 24.1133C171.89 24.1177 170.404 23.3726 170.413 22.0663C170.404 20.751 171.89 20.0059 174.341 20.0059ZM174.341 23.0359C175.971 23.0449 176.85 22.7037 176.859 22.0663C176.85 21.4019 175.971 21.0698 174.341 21.0787C172.707 21.0698 171.814 21.4019 171.818 22.0663C171.814 22.7037 172.707 23.0449 174.341 23.0359ZM188.432 12.6575V15.4406H190.034V16.6167H188.432V19.5166H187.013V12.6575H188.432ZM182.758 16.6302C182.259 17.8467 181.335 18.8028 180.011 19.2742L179.247 18.1609C181.097 17.519 182.022 15.9927 182.031 14.3498V13.2635H183.44V14.48C183.44 15.9254 184.374 17.2901 186.138 17.8512L185.384 18.951C184.145 18.5335 183.252 17.6941 182.758 16.6302ZM184.697 19.7724C187.067 19.768 188.535 20.5715 188.535 21.9361C188.535 23.3232 187.067 24.1177 184.697 24.1133C182.3 24.1177 180.81 23.3232 180.814 21.9361C180.81 20.5715 182.3 19.768 184.697 19.7724ZM184.697 23.0045C186.268 23 187.148 22.6409 187.148 21.9361C187.148 21.2628 186.268 20.8767 184.697 20.8767C183.121 20.8767 182.219 21.2628 182.224 21.9361C182.219 22.6409 183.121 23 184.697 23.0045ZM194.55 13.5373H197.136V14.5832H190.546V13.5373H193.141V12.5677H194.55V13.5373ZM199.448 12.6664V15.9883H200.996V17.1509H199.448V20.4189H198.034V12.6664H199.448ZM197.441 18.6143L197.544 19.5794C195.102 20.0014 192.431 20.0373 190.402 20.0373L190.25 18.951C191.116 18.951 192.108 18.9465 193.141 18.9195V18.1654C191.857 18.0173 191.058 17.4337 191.067 16.5628C191.058 15.5439 192.149 14.9289 193.832 14.9289C195.515 14.9289 196.597 15.5439 196.606 16.5628C196.597 17.4292 195.816 18.0083 194.55 18.1654V18.8657C195.533 18.8163 196.516 18.74 197.441 18.6143ZM192.418 16.5628C192.409 17.0207 192.939 17.2721 193.832 17.2721C194.721 17.2721 195.25 17.0207 195.25 16.5628C195.25 16.1274 194.721 15.8671 193.832 15.8626C192.939 15.8671 192.409 16.1274 192.418 16.5628ZM195.641 20.5266C198.087 20.5221 199.497 21.1685 199.506 22.3356C199.497 23.5028 198.087 24.1267 195.641 24.1312C193.172 24.1267 191.767 23.5028 191.767 22.3356C191.767 21.1685 193.172 20.5221 195.641 20.5266ZM195.641 23.0898C197.266 23.0943 198.074 22.8249 198.078 22.3356C198.074 21.8194 197.266 21.5546 195.641 21.5635C193.989 21.5546 193.176 21.8194 193.185 22.3356C193.176 22.8249 193.989 23.0943 195.641 23.0898ZM209.467 12.6664H210.881V21.0518H209.467V12.6664ZM204.888 16.7155C204.376 17.9679 203.429 18.9734 202.082 19.4582L201.337 18.345C203.2 17.6851 204.152 16.0646 204.152 14.4216V13.2994H205.611V14.4216C205.602 16.0197 206.54 17.528 208.362 18.1385L207.64 19.2562C206.329 18.7983 205.4 17.8826 204.888 16.7155ZM204.713 20.2483V22.7621H211.204V23.9068H203.29V20.2483H204.713ZM221.219 20.2303L219.791 20.0777C220.24 17.8512 220.245 16.2217 220.249 14.8391H213.394V13.7034H221.668V14.8077C221.663 16.2352 221.663 17.8332 221.219 20.2303ZM217.565 17.501V21.4917H222.758V22.6499H212.304V21.4917H216.164V17.501H217.565ZM231.498 16.3653V12.6575H232.899V24.1492H231.498V17.5055H229.097V16.3653H231.498ZM227.517 13.5777V15.4137C227.517 17.5414 228.536 19.6333 230.367 20.4413L229.51 21.568C228.212 20.9306 227.301 19.7141 226.807 18.2148C226.309 19.7994 225.375 21.1146 224.056 21.779L223.167 20.6343C225.034 19.7635 226.076 17.5504 226.085 15.4137V13.5777H227.517Z" fill="black"/>
<path d="M36.3322 35.5767V36.3294H32.7721V37.8211H35.355V40.8287H34.4227V38.567H29.143V37.8211H31.8501V36.3294H28.3246V35.5767H34.1809C34.3847 34.596 34.395 33.8674 34.395 33.2389H29.326V32.4896H35.317V33.1423C35.317 33.7914 35.317 34.5615 35.1133 35.5767H36.3322ZM43.6005 40.8287V32.0787H44.4913V40.8287H43.6005ZM40.4375 35.1554H41.8014V32.2479H42.675V40.3971H41.8014V35.9254H40.4375V35.1554ZM39.6329 32.8764V34.4682C39.6329 35.8702 40.2165 37.3584 41.3905 38.0732L40.8691 38.7914C40.0507 38.2977 39.4982 37.4206 39.1978 36.4088C38.8767 37.5173 38.2759 38.4634 37.4264 38.9814L36.8463 38.2907C38.0859 37.5518 38.7351 36.0014 38.7351 34.5097V32.8764H39.6329ZM49.0456 37.5967C48.6623 37.5967 48.3447 37.2859 48.3516 36.9061C48.3447 36.5262 48.6623 36.2155 49.0456 36.2155C49.4186 36.2155 49.7362 36.5262 49.7362 36.9061C49.7362 37.2859 49.4186 37.5967 49.0456 37.5967ZM59.4449 40.8287V32.0787H60.3772V40.8287H59.4449ZM56.3475 33.7258V34.6616C56.3475 36.1222 57.3075 37.6347 58.6541 38.2079L58.1465 38.9399C57.1141 38.4841 56.2992 37.5173 55.8917 36.357C55.4842 37.6001 54.6624 38.6637 53.6472 39.1575L53.1051 38.4254C54.4242 37.8108 55.4014 36.1637 55.4083 34.6616V33.7258H53.4124V32.9593H58.3434V33.7258H56.3475ZM68.6469 32.0787V34.2231H69.9141V35.0069H68.6469V37.3066H67.718V32.0787H68.6469ZM65.3147 32.6243H66.2332V36.6851H62.1068V32.6243H63.0219V33.8881H65.3147V32.6243ZM63.0219 35.9461H65.3147V34.6133H63.0219V35.9461ZM65.8188 37.5311C67.6248 37.5311 68.7263 38.1319 68.7263 39.1713C68.7263 40.2175 67.6248 40.8218 65.8188 40.8287C63.9991 40.8218 62.8837 40.2175 62.8837 39.1713C62.8837 38.1319 63.9991 37.5311 65.8188 37.5311ZM65.8188 40.0898C67.0792 40.0898 67.8181 39.7548 67.8181 39.1713C67.8181 38.5877 67.0792 38.2631 65.8188 38.2562C64.555 38.2631 63.8057 38.5877 63.8126 39.1713C63.8057 39.7548 64.555 40.0898 65.8188 40.0898ZM77.0477 40.8287V32.0787H77.9386V40.8287H77.0477ZM73.8847 35.1554H75.2487V32.2479H76.1223V40.3971H75.2487V35.9254H73.8847V35.1554ZM73.0802 32.8764V34.4682C73.0802 35.8702 73.6637 37.3584 74.8378 38.0732L74.3164 38.7914C73.498 38.2977 72.9455 37.4206 72.6451 36.4088C72.324 37.5173 71.7231 38.4634 70.8737 38.9814L70.2936 38.2907C71.5332 37.5518 72.1824 36.0014 72.1824 34.5097V32.8764H73.0802ZM82.4929 37.5967C82.1096 37.5967 81.7919 37.2859 81.7988 36.9061C81.7919 36.5262 82.1096 36.2155 82.4929 36.2155C82.8658 36.2155 83.1835 36.5262 83.1835 36.9061C83.1835 37.2859 82.8658 37.5967 82.4929 37.5967ZM92.906 32.0856H93.8348V38.4461H92.906V32.0856ZM89.0834 37.02C87.7644 37.0235 86.7526 36.1291 86.7526 34.8446C86.7526 33.5773 87.7644 32.6796 89.0834 32.6796C90.4025 32.6796 91.4073 33.5773 91.4073 34.8446C91.4073 36.1291 90.4025 37.0235 89.0834 37.02ZM87.6608 34.8446C87.6539 35.6664 88.2685 36.212 89.0834 36.212C89.8845 36.212 90.4992 35.6664 90.4992 34.8446C90.4992 34.0366 89.8845 33.4876 89.0834 33.4876C88.2685 33.4876 87.6539 34.0366 87.6608 34.8446ZM89.042 37.8004V39.8895H94.0904V40.6492H88.1097V37.8004H89.042ZM99.7702 35.4938V34.7272H101.587V32.0856H102.512V38.529H101.587V35.4938H99.7702ZM99.822 32.7452C99.8151 35.0276 98.2474 36.7472 95.7371 37.5587L95.3469 36.8163C97.2944 36.1878 98.6169 34.9965 98.8068 33.5152H95.7923V32.7452H99.822ZM97.8158 37.8729V39.8895H102.733V40.6492H96.8731V37.8729H97.8158ZM110.177 32.0787H111.11V40.846H110.177V32.0787ZM104.345 32.8073H105.271V35.0552H107.632V32.8073H108.547V38.7535H104.345V32.8073ZM105.271 35.7907V37.9869H107.632V35.7907H105.271Z" fill="#595959"/>
<path d="M13.2007 17.9348V19.9597C13.2007 20.3798 13.5401 20.719 13.9605 20.719C14.381 20.719 14.7204 20.3798 14.7204 19.9597V17.9348C14.7204 17.5147 14.381 17.1755 13.9605 17.1755C13.5401 17.1755 13.2007 17.5147 13.2007 17.9348ZM16.2401 17.9348V19.9597C16.2401 20.3798 16.5795 20.719 17 20.719C17.4205 20.719 17.7599 20.3798 17.7599 19.9597V17.9348C17.7599 17.5147 17.4205 17.1755 17 17.1755C16.5795 17.1755 16.2401 17.5147 16.2401 17.9348ZM12.9474 23.25H21.0526C21.4731 23.25 21.8125 22.9108 21.8125 22.4907C21.8125 22.0705 21.4731 21.7314 21.0526 21.7314H12.9474C12.5269 21.7314 12.1875 22.0705 12.1875 22.4907C12.1875 22.9108 12.5269 23.25 12.9474 23.25ZM19.2796 17.9348V19.9597C19.2796 20.3798 19.619 20.719 20.0395 20.719C20.4599 20.719 20.7993 20.3798 20.7993 19.9597V17.9348C20.7993 17.5147 20.4599 17.1755 20.0395 17.1755C19.619 17.1755 19.2796 17.5147 19.2796 17.9348ZM16.5289 12.8677L12.5269 14.9735C12.3192 15.0798 12.1875 15.2975 12.1875 15.5303C12.1875 15.8796 12.4712 16.1631 12.8207 16.1631H21.1843C21.5288 16.1631 21.8125 15.8796 21.8125 15.5303C21.8125 15.2975 21.6808 15.0798 21.4731 14.9735L17.4711 12.8677C17.1773 12.7108 16.8227 12.7108 16.5289 12.8677Z" fill="black"/>
</svg>
