<svg width="200" height="164" viewBox="0 0 200 164" fill="none" xmlns="http://www.w3.org/2000/svg">
<rect x="0.5" y="0.5" width="199" height="163" rx="5.5" fill="white" stroke="#D9D9D9"/>
<path d="M14.6479 90.9282H15.6977V98H14.6203V92.0055H14.5789L12.8903 93.107V92.0815L14.6479 90.9282ZM19.7315 90.8315C21.0264 90.8419 22.3903 91.6222 22.3938 94.212C22.3938 96.6913 21.3268 98.0967 19.6313 98.0967C18.3295 98.0967 17.4179 97.2921 17.2522 96.1457H18.3123C18.4607 96.7396 18.9165 97.1575 19.6313 97.1575C20.719 97.1575 21.3613 96.2044 21.3682 94.5884H21.2819C20.8986 95.1892 20.2356 95.5483 19.4725 95.5483C18.2052 95.5483 17.19 94.578 17.19 93.2279C17.19 91.8778 18.1914 90.8211 19.7315 90.8315ZM19.7315 91.7327C18.8751 91.7327 18.2294 92.3957 18.2363 93.2106C18.2398 94.029 18.8509 94.6747 19.7107 94.6747C20.5602 94.6747 21.2232 93.9772 21.2232 93.1968C21.2232 92.4302 20.5947 91.7327 19.7315 91.7327ZM29.3565 90.0787H30.2854V94.5331H29.3565V90.0787ZM27.7992 92.3405C27.7923 93.4869 26.822 94.288 25.5064 94.288C24.1735 94.288 23.2032 93.4869 23.2032 92.3405C23.2032 91.1906 24.1735 90.3826 25.5064 90.3791C26.822 90.3826 27.7923 91.1906 27.7992 92.3405ZM24.1079 92.3405C24.101 93.0587 24.6984 93.5352 25.5064 93.5352C26.3075 93.5352 26.9014 93.0587 26.9014 92.3405C26.9014 91.6257 26.3075 91.1457 25.5064 91.1492C24.6984 91.1457 24.101 91.6257 24.1079 92.3405ZM25.4581 97.1367V97.9758H30.572V98.7182H24.5568V96.4461H29.3635V95.6727H24.5292V94.9372H30.2854V97.1367H25.4581ZM38.4003 93.2106V92.4544H40.0785V90.0856H41.0039V96.4945H40.0785V93.2106H38.4003ZM36.3872 93.3142C36.0005 94.2776 35.2374 95.0511 34.1945 95.424L33.7146 94.6678C35.0612 94.2155 35.9003 93.0622 35.9003 91.857V91.5117H34.0012V90.7555H38.7249V91.5117H36.8396V91.857C36.8396 92.9482 37.6303 94.0428 38.9494 94.4848L38.4763 95.2238C37.4887 94.8819 36.767 94.1775 36.3872 93.3142ZM36.2491 95.9247V97.8895H41.2353V98.6492H35.3237V95.9247H36.2491ZM49.1047 93.6319H50.3788V94.4019H49.1047V98.8287H48.1792V90.0787H49.1047V93.6319ZM44.7918 91.0145C44.7849 93.2037 44.3913 95.1961 42.8098 96.8881L42.0674 96.3667C43.3484 95.0373 43.8146 93.5318 43.9078 91.7811H42.385V91.0145H44.7918ZM45.075 91.0145H47.2055C47.1986 93.2314 46.9223 95.5622 45.3167 97.4648L44.5708 96.9503C45.8761 95.4344 46.2559 93.6457 46.3284 91.7811H45.075V91.0145ZM56.9119 98.8287V90.0787H57.8442V98.8287H56.9119ZM53.8145 91.7258V92.6616C53.8145 94.1222 54.7744 95.6347 56.1211 96.2079L55.6135 96.9399C54.5811 96.4841 53.7662 95.5173 53.3587 94.357C52.9512 95.6001 52.1294 96.6637 51.1142 97.1575L50.5721 96.4254C51.8912 95.8108 52.8684 94.1637 52.8753 92.6616V91.7258H50.8794V90.9593H55.8104V91.7258H53.8145ZM67.5959 90.0787H68.5282V98.846H67.5959V90.0787ZM61.7637 90.9178H65.8693V96.6671H61.7637V90.9178ZM64.9681 91.6533H62.6822V95.9213H64.9681V91.6533ZM76.0626 98.846V90.0787H76.9811V98.846H76.0626ZM71.1697 94.067V95.98C72.5854 95.9731 73.825 95.9075 75.2891 95.6657L75.3755 96.4323C73.825 96.6878 72.506 96.7465 70.9659 96.7465H70.2166V93.3211H73.3658V91.6257H70.2063V90.866H74.305V94.067H71.1697ZM87.0297 98.8287V90.0787H87.9275V98.8287H87.0297ZM83.442 93.3695H85.2411V90.2686H86.1147V98.3902H85.2411V94.1395H83.442V93.3695ZM81.6257 91.8847V95.9972C82.7687 95.9903 83.5387 95.942 84.4434 95.7486L84.5263 96.5221C83.5249 96.7258 82.6582 96.7673 81.2942 96.7742H80.721V91.1285H84.036V91.8847H81.6257ZM95.165 90.0787H96.0973V98.846H95.165V90.0787ZM91.4115 90.7348C92.7168 90.7383 93.6698 91.9296 93.6698 93.8046C93.6698 95.6899 92.7168 96.8812 91.4115 96.8812C90.0925 96.8812 89.1498 95.6899 89.1498 93.8046C89.1498 91.9296 90.0925 90.7383 91.4115 90.7348ZM91.4115 91.5635C90.6035 91.5704 90.0441 92.4268 90.0441 93.8046C90.0441 95.1927 90.6035 96.049 91.4115 96.049C92.2196 96.049 92.772 95.1927 92.772 93.8046C92.772 92.4268 92.2196 91.5704 91.4115 91.5635ZM103.67 93.3142V90.0787H104.588V98.846H103.67V94.0704H101.926V93.3142H103.67ZM98.6248 94.0532V96.011C100.089 96.0076 101.104 95.9627 102.268 95.7624L102.368 96.5186C101.094 96.7224 99.9957 96.7742 98.3693 96.7776H97.6925V90.8557H101.781V91.6153H98.6248V93.3142H101.415V94.0532H98.6248ZM114.343 92.2818V90.0856H115.269V95.0442H114.343V93.0483H112.531V92.2818H114.343ZM112.499 90.6312C112.493 92.855 110.97 94.433 108.435 95.1478L108.052 94.4227C110.079 93.8564 111.329 92.7652 111.508 91.384H108.515V90.6312H112.499ZM115.269 98.7113H109.547V95.4068H115.269V98.7113ZM114.35 96.1423H110.452V97.9689H114.35V96.1423ZM117.157 93.739L116.836 93.0104C118.421 92.8377 119.671 92.1298 119.782 91.2735H117.147V90.5104H123.677V91.2735H121.028C121.132 92.1229 122.372 92.8377 123.988 93.0104L123.653 93.739C122.133 93.5663 120.88 92.9309 120.4 91.9986C119.923 92.9275 118.677 93.5663 117.157 93.739ZM116.419 94.9544V94.1982H124.395V94.9544H116.419ZM120.396 95.6278C122.282 95.6278 123.414 96.2113 123.421 97.2265C123.414 98.2452 122.282 98.8149 120.396 98.8149C118.501 98.8149 117.361 98.2452 117.361 97.2265C117.361 96.2113 118.501 95.6278 120.396 95.6278ZM120.396 98.0829C121.719 98.0829 122.489 97.7825 122.496 97.2265C122.489 96.6637 121.719 96.3598 120.396 96.3529C119.06 96.3598 118.297 96.6637 118.304 97.2265C118.297 97.7825 119.06 98.0829 120.396 98.0829ZM128.842 93.2486C126.871 93.2417 125.714 92.7099 125.714 91.7258C125.714 90.7555 126.871 90.2238 128.842 90.2238C130.814 90.2238 131.964 90.7555 131.964 91.7258C131.964 92.7099 130.814 93.2417 128.842 93.2486ZM128.842 90.9144C127.451 90.9109 126.677 91.2148 126.684 91.7258C126.677 92.2714 127.451 92.5511 128.842 92.5511C130.244 92.5511 131.014 92.2714 131.014 91.7258C131.014 91.2148 130.244 90.9109 128.842 90.9144ZM124.861 94.5228V93.7804H132.838V94.5228H124.861ZM131.826 97.2438H126.736V98.0276H132.078V98.7459H125.828V96.5773H130.914V95.8902H125.811V95.1961H131.826V97.2438ZM141.875 90.0856H142.803V96.4738H141.875V90.0856ZM138.332 93.3591C137.938 94.3122 137.161 95.0649 136.118 95.4344L135.638 94.6989C137.002 94.2362 137.841 93.1036 137.848 91.9019V91.5256H135.88V90.7762H140.711V91.5256H138.784V91.9019C138.784 93.0414 139.62 94.105 140.973 94.5297L140.5 95.2583C139.492 94.9268 138.729 94.2362 138.332 93.3591ZM138.011 95.8729V97.8895H143.059V98.6492H137.078V95.8729H138.011ZM150.566 93.1554H149.551V95.2963H148.684V90.2479H149.551V92.3923H150.566V90.0787H151.443V95.6001H150.566V93.1554ZM146.619 91.0801H148.363V91.8122H143.939V91.0801H145.7V90.1478H146.619V91.0801ZM148.052 93.7286C148.045 94.6333 147.272 95.2238 146.156 95.2238C145.058 95.2238 144.278 94.6333 144.281 93.7286C144.278 92.8135 145.058 92.2196 146.156 92.2196C147.272 92.2196 148.045 92.8135 148.052 93.7286ZM145.106 93.7286C145.106 94.2224 145.535 94.5504 146.156 94.547C146.785 94.5504 147.209 94.2224 147.213 93.7286C147.209 93.2244 146.785 92.8999 146.156 92.8999C145.535 92.8999 145.106 93.2244 145.106 93.7286ZM148.522 95.7279C150.376 95.7279 151.491 96.2873 151.491 97.2783C151.491 98.2555 150.376 98.8149 148.522 98.8149C146.664 98.8149 145.545 98.2555 145.552 97.2783C145.545 96.2873 146.664 95.7279 148.522 95.7279ZM148.522 98.1001C149.823 98.107 150.562 97.8066 150.566 97.2783C150.562 96.7258 149.823 96.4323 148.522 96.4392C147.216 96.4323 146.467 96.7258 146.474 97.2783C146.467 97.8066 147.216 98.107 148.522 98.1001ZM159.039 93.7251V90.0787H159.923V98.8287H159.039V94.4814H158.031V98.4178H157.157V90.2756H158.031V93.7251H159.039ZM154.129 90.3377H155.048V91.529H156.75V92.2783H152.41V91.529H154.129V90.3377ZM154.588 92.8032C155.693 92.8032 156.484 93.6388 156.491 94.8163C156.484 96.011 155.693 96.8501 154.588 96.8501C153.487 96.8501 152.686 96.011 152.693 94.8163C152.686 93.6388 153.487 92.8032 154.588 92.8032ZM154.588 96.0525C155.217 96.0594 155.669 95.5587 155.669 94.8163C155.669 94.0877 155.217 93.5801 154.588 93.5767C153.956 93.5801 153.508 94.0877 153.508 94.8163C153.508 95.5587 153.956 96.0594 154.588 96.0525ZM161.667 94.3467L161.318 93.6146C162.952 93.3936 164.305 92.4164 164.336 91.3391H161.612V90.6001H168.1V91.3391H165.386C165.407 92.4164 166.757 93.3936 168.407 93.6146L168.066 94.3467C166.633 94.1222 165.393 93.4144 164.858 92.4164C164.322 93.4144 163.083 94.1222 161.667 94.3467ZM160.873 95.0097H168.849V95.7659H165.296V98.8253H164.385V95.7659H160.873V95.0097ZM175.949 98.8287V90.0787H176.84V98.8287H175.949ZM172.786 93.1554H174.15V90.2479H175.023V98.3971H174.15V93.9254H172.786V93.1554ZM171.981 90.8764V92.4682C171.981 93.8702 172.565 95.3584 173.739 96.0732L173.217 96.7914C172.399 96.2977 171.846 95.4206 171.546 94.4088C171.225 95.5173 170.624 96.4634 169.775 96.9814L169.195 96.2907C170.434 95.5518 171.083 94.0014 171.083 92.5097V90.8764H171.981ZM183.846 94.6644V96.971H185.766V97.7376H177.758V96.971H179.674V94.6816C178.953 94.288 178.514 93.6595 178.514 92.8757C178.514 91.4979 179.864 90.5932 181.739 90.5863C183.621 90.5932 184.975 91.4979 184.975 92.8757C184.975 93.6492 184.55 94.2673 183.846 94.6644ZM181.739 91.3356C180.368 91.3287 179.415 91.9296 179.415 92.8757C179.415 93.8115 180.368 94.4227 181.739 94.4227C183.103 94.4227 184.07 93.8115 184.07 92.8757C184.07 91.9296 183.103 91.3287 181.739 91.3356ZM180.586 95.0235V96.971H182.91V95.02C182.551 95.1029 182.157 95.1478 181.739 95.1478C181.325 95.1478 180.938 95.1029 180.586 95.0235ZM186.67 90.9282H187.813L187.723 95.9627H186.76L186.67 90.9282ZM187.243 98.0656C186.864 98.0656 186.546 97.7548 186.553 97.375C186.546 96.9952 186.864 96.6844 187.243 96.6844C187.62 96.6844 187.934 96.9952 187.937 97.375C187.934 97.7548 187.62 98.0656 187.243 98.0656Z" fill="#595959"/>
<path d="M73.3025 73.355V75.5905H77.8722V76.7441H67.3816V75.5905H71.9019V73.355H68.5352V67.4161H69.9492V69.2925H75.2642V67.4161H76.6692V73.355H73.3025ZM75.2642 70.4237H69.9492V72.2193H75.2642V70.4237ZM87.532 74.2303L86.1045 74.0777C86.5534 71.8512 86.5579 70.2217 86.5624 68.8391H79.7077V67.7034H87.9809V68.8077C87.9764 70.2352 87.9764 71.8332 87.532 74.2303ZM83.878 71.501V75.4917H89.0717V76.6499H78.6169V75.4917H82.4774V71.501H83.878ZM98.0715 70.3653V66.6575H99.4721V78.1492H98.0715V71.5055H95.6699V70.3653H98.0715ZM94.0898 67.5777V69.4137C94.0898 71.5414 95.1088 73.6333 96.9403 74.4413L96.0829 75.568C94.7856 74.9306 93.8744 73.7141 93.3806 72.2148C92.8823 73.7994 91.9486 75.1146 90.6289 75.779L89.74 74.6343C91.6074 73.7635 92.6489 71.5504 92.6579 69.4137V67.5777H94.0898ZM113.159 71.1195H114.928V72.3046H113.159V78.1222H111.745V66.6575H113.159V71.1195ZM108.289 68.9468V69.9119C108.28 71.6896 109.344 73.7051 111.153 74.549L110.363 75.6623C109.07 75.0608 108.114 73.8263 107.598 72.3898C107.077 73.9655 106.076 75.3122 104.761 75.9496L103.93 74.8363C105.757 73.9744 106.87 71.8242 106.875 69.9119V68.9468H104.375V67.7887H110.686V68.9468H108.289ZM121.338 71.0521V72.1519H125.881V73.2742H115.408V72.1519H119.955V71.0521H116.696V67.1737H124.61V68.2825H118.097V69.9389H124.673V71.0521H121.338ZM120.62 73.934C123.102 73.934 124.592 74.6927 124.597 76.0349C124.592 77.3681 123.102 78.1267 120.62 78.1312C118.128 78.1267 116.624 77.3681 116.624 76.0349C116.624 74.6927 118.128 73.934 120.62 73.934ZM120.62 77.0359C122.267 77.0449 123.178 76.6992 123.187 76.0349C123.178 75.375 122.267 75.0204 120.62 75.0204C118.954 75.0204 118.052 75.375 118.061 76.0349C118.052 76.6992 118.954 77.0449 120.62 77.0359ZM138.782 66.6575V68.9738H140.385V70.1229H138.782V72.5245H137.364V66.6575H138.782ZM134.19 67.1602H135.6V72.1609H130.119V67.1602H131.515V68.6191H134.19V67.1602ZM131.515 71.0432H134.19V69.692H131.515V71.0432ZM138.782 75.99H132.682V76.9057H139.142V78.028H131.29V74.9665H137.373V74.0867H131.272V72.9869H138.782V75.99ZM146.166 69.0052C145.435 70.2082 143.931 71.0611 142.045 71.3574L141.529 70.2441C143.899 69.9434 145.457 68.6461 145.457 67.2769V66.8415H146.893V67.2769C146.893 68.6775 148.433 69.9434 150.83 70.2441L150.283 71.3574C148.397 71.0611 146.898 70.2127 146.166 69.0052ZM146.88 70.6975V72.2058H151.418V73.337H140.964V72.2058H145.479V70.6975H146.88ZM146.175 74.0732C148.667 74.0732 150.148 74.8094 150.152 76.1022C150.148 77.395 148.667 78.1177 146.175 78.1133C143.675 78.1177 142.18 77.395 142.18 76.1022C142.18 74.8094 143.675 74.0732 146.175 74.0732ZM146.175 77.0494C147.836 77.0539 148.734 76.7262 148.743 76.1022C148.734 75.4693 147.836 75.1595 146.175 75.1595C144.492 75.1595 143.608 75.4693 143.617 76.1022C143.608 76.7262 144.492 77.0539 146.175 77.0494Z" fill="black"/>
<mask id="mask0_2911_75334" style="mask-type:alpha" maskUnits="userSpaceOnUse" x="49" y="65" width="14" height="14">
<rect x="49" y="65" width="14" height="14" fill="#D9D9D9"/>
</mask>
<g mask="url(#mask0_2911_75334)">
<path d="M51.8 69.9H51.95C52.5275 69.9 53 70.3725 53 70.95V76.2C53 76.7775 52.5275 77.25 51.95 77.25H51.8C51.2225 77.25 50.75 76.7775 50.75 76.2V70.95C50.75 70.3725 51.2225 69.9 51.8 69.9ZM56 66.75C56.5775 66.75 57.05 67.2225 57.05 67.8V76.2C57.05 76.7775 56.5775 77.25 56 77.25C55.4225 77.25 54.95 76.7775 54.95 76.2V67.8C54.95 67.2225 55.4225 66.75 56 66.75ZM60.2 72.75C60.7775 72.75 61.25 73.2225 61.25 73.8V76.2C61.25 76.7775 60.7775 77.25 60.2 77.25C59.6225 77.25 59.15 76.7775 59.15 76.2V73.8C59.15 73.2225 59.6225 72.75 60.2 72.75Z" fill="black"/>
</g>
</svg>
