<svg width="187" height="52" viewBox="0 0 187 52" fill="none" xmlns="http://www.w3.org/2000/svg">
<rect x="0.5" y="0.5" width="186" height="51" rx="5.5" fill="white" stroke="#D9D9D9"/>
<path d="M37.3684 17.1554H39.1371V18.3539H37.3684V24.1222H35.9544V12.6575H37.3684V17.1554ZM32.48 13.5777V15.4137C32.471 17.4561 33.499 19.53 35.2721 20.3874L34.4147 21.5186C33.1668 20.8902 32.278 19.6782 31.7887 18.2193C31.2814 19.7769 30.3432 21.0742 29.0325 21.7341L28.1616 20.5939C30.011 19.7231 31.0615 17.528 31.0704 15.4137V13.5777H32.48ZM47.5582 15.2745V12.6575H48.9678V18.8163H47.5582V16.4057H45.4888C45.224 17.6985 44.0434 18.5694 42.5396 18.5694C40.7844 18.5694 39.505 17.4427 39.514 15.8536C39.505 14.2869 40.7844 13.1557 42.5396 13.1602C44.0299 13.1557 45.2015 14.0131 45.4843 15.2745H47.5582ZM42.5396 17.3798C43.5092 17.3798 44.2005 16.7693 44.2005 15.8536C44.2005 14.9289 43.5092 14.3363 42.5396 14.3408C41.552 14.3363 40.8562 14.9289 40.8562 15.8536C40.8562 16.7693 41.552 17.3798 42.5396 17.3798ZM42.7999 20.5625H47.5582V19.346H48.9678V23.9876H41.4039V19.346H42.7999V20.5625ZM42.7999 22.8429H47.5582V21.6623H42.7999V22.8429ZM58.3136 16.7244V18.1744H60.787V19.3056H50.3323V18.1744H52.7653V16.7155C51.9034 16.3474 51.4141 15.7728 51.4186 15.0231C51.4141 13.654 53.0167 12.846 55.5529 12.8415C58.0802 12.846 59.6827 13.654 59.6827 15.0231C59.6827 15.7773 59.189 16.3564 58.3136 16.7244ZM55.5529 13.9323C53.8561 13.9323 52.873 14.3229 52.882 15.0231C52.873 15.7279 53.8561 16.1005 55.5529 16.1005C57.2408 16.1005 58.2328 15.7279 58.2328 15.0231C58.2328 14.3229 57.2408 13.9323 55.5529 13.9323ZM54.1883 17.0836V18.1744H56.9086V17.0836C56.4956 17.1374 56.0422 17.1689 55.5529 17.1689C55.0591 17.1689 54.6057 17.1374 54.1883 17.0836ZM55.5439 19.9969C58.0173 19.9924 59.5167 20.7241 59.5211 22.0439C59.5167 23.3816 58.0173 24.1088 55.5439 24.1043C53.0436 24.1088 51.5488 23.3816 51.5488 22.0439C51.5488 20.7241 53.0436 19.9924 55.5439 19.9969ZM55.5439 23.0359C57.1914 23.0449 58.1026 22.6948 58.1116 22.0439C58.1026 21.4064 57.1914 21.0742 55.5439 21.0653C53.8785 21.0742 52.9763 21.4064 52.9852 22.0439C52.9763 22.6948 53.8785 23.0449 55.5439 23.0359ZM73.1195 17.1419H74.8208V18.3046H73.1195V24.1043H71.7054V12.6575H73.1195V17.1419ZM64.8284 13.7887H70.0984C70.0939 17.2497 69.1467 20.2258 64.9137 22.3267L64.1371 21.2673C66.1302 20.2842 67.3152 19.135 67.9841 17.7749L64.4154 18.107L64.2313 16.895L68.4105 16.6302C68.5587 16.0915 68.6485 15.5259 68.6889 14.9289H64.8284V13.7887ZM77.7744 18.0307H84.4225V19.1709H76.3783V13.654H84.3327V14.7987H77.7744V18.0307ZM75.1079 22.6723V21.5052H85.5986V22.6723H75.1079ZM95.4082 21.4244L96.7504 23H95.0042L94.4117 22.3222C93.7653 22.8788 92.8675 23.1347 92.0505 23.1347C90.1741 23.1347 89.025 22.0214 89.025 20.558C89.025 19.4762 89.7207 18.8163 90.7487 18.107C90.219 17.4517 89.806 16.7828 89.806 15.9613C89.806 14.6595 90.7622 13.6944 92.2121 13.6944C93.6576 13.6944 94.5464 14.655 94.5464 15.7773C94.5464 16.6526 94.093 17.317 93.3254 17.8736L92.7418 18.3001L94.4252 20.2752C94.6676 19.8218 94.8112 19.2831 94.8112 18.6771H96.2028C96.2028 19.9385 95.8571 20.8318 95.4082 21.4244ZM92.2346 15.0231C91.6465 15.0231 91.247 15.49 91.247 15.9838C91.247 16.4102 91.5298 16.8367 91.9158 17.317L92.441 16.9579C92.9169 16.6436 93.1727 16.316 93.1727 15.8491C93.1727 15.4496 92.8136 15.0186 92.2346 15.0231ZM92.0999 21.8015C92.5937 21.8015 93.0964 21.6264 93.5319 21.3122L91.6151 19.1215L91.4669 19.2293C90.8475 19.6827 90.6096 20.172 90.6096 20.4907C90.6096 21.2179 91.1976 21.8015 92.0999 21.8015ZM105.893 16.8456V15.7055H107.926V12.6664H109.336V21.0518H107.926V16.8456H105.893ZM103.244 17.0701C102.737 18.2731 101.786 19.2427 100.425 19.7096L99.6982 18.5649C101.525 17.9679 102.504 16.4686 102.504 14.9423V14.6326H100.111V13.4924H106.315V14.6326H103.94V14.9513C103.94 16.3294 104.865 17.7569 106.638 18.345L105.933 19.4627C104.65 19.0318 103.743 18.1519 103.244 17.0701ZM103.218 20.3111V22.7621H109.623V23.9068H101.808V20.3111H103.218ZM119.687 17.1195H121.456V18.3046H119.687V24.1222H118.273V12.6575H119.687V17.1195ZM114.817 14.9468V15.9119C114.808 17.6896 115.872 19.7051 117.681 20.549L116.891 21.6623C115.598 21.0608 114.642 19.8263 114.126 18.3898C113.605 19.9655 112.604 21.3122 111.289 21.9496L110.458 20.8363C112.285 19.9744 113.398 17.8242 113.403 15.9119V14.9468H110.903V13.7887H117.214V14.9468H114.817ZM130.218 24.1222V12.6575H131.574V24.1222H130.218ZM126.223 16.6077H127.862V12.855H129.186V23.5746H127.862V17.7704H126.223V16.6077ZM125.258 13.672V15.6651C125.258 17.5145 125.9 19.4448 127.458 20.4189L126.677 21.5052C125.64 20.8857 124.971 19.8128 124.589 18.5604C124.176 19.9385 123.44 21.1057 122.363 21.761L121.492 20.7151C123.153 19.7006 123.893 17.6806 123.893 15.7279V13.672H125.258ZM141.571 17.3619H143.142V18.5021H132.651V17.3619H140.148C140.422 16.1229 140.444 15.1847 140.449 14.3453H133.949V13.2096H141.858V14.1029C141.858 15.0007 141.858 16.0107 141.571 17.3619ZM141.84 23.9876H133.913V19.8398H141.84V23.9876ZM140.44 20.9441H135.295V22.8474H140.44V20.9441ZM152.187 24.1222V12.6575H153.52V24.1222H152.187ZM148.475 15.7369H149.812V12.9358H151.155V23.5881H149.812V19.7455H148.021V18.6008H149.812V16.886H148.228C147.685 18.7939 146.491 20.4278 144.34 21.7072L143.505 20.7061C145.88 19.2966 146.98 17.5055 147.191 15.1982H144.12V14.0535H148.596C148.596 14.6326 148.555 15.1937 148.475 15.7369ZM163.656 12.6575V16.0421H165.259V17.2317H163.656V21.0832H162.238V12.6575H163.656ZM158.036 16.9309C157.533 18.1474 156.586 19.0991 155.248 19.5704L154.463 18.4572C156.348 17.8422 157.291 16.298 157.295 14.6685V13.3622H158.709V14.6865C158.7 16.1903 159.652 17.6267 161.457 18.2193L160.716 19.3325C159.445 18.8971 158.543 18.0307 158.036 16.9309ZM156.308 20.2573H157.744V22.7621H164.114V23.9068H156.308V20.2573ZM173.797 16.3653V12.6575H175.197V24.1492H173.797V17.5055H171.395V16.3653H173.797ZM169.815 13.5777V15.4137C169.815 17.5414 170.834 19.6333 172.665 20.4413L171.808 21.568C170.511 20.9306 169.599 19.7141 169.106 18.2148C168.607 19.7994 167.674 21.1146 166.354 21.779L165.465 20.6343C167.332 19.7635 168.374 17.5504 168.383 15.4137V13.5777H169.815Z" fill="black"/>
<path d="M34.9579 35.5041V32.0787H35.8488V40.8287H34.9579V36.2707H33.8805V40.3971H33V32.2479H33.8805V35.5041H34.9579ZM32.0159 38.5221H28.6181V33.0628H32.0159V38.5221ZM31.1457 33.7983H29.4917V37.7866H31.1457V33.7983ZM37.6301 35.5732L37.3643 34.8757C39.0424 34.7825 40.2234 34.268 40.4098 33.5256H37.7683V32.8177H40.4927V32.0442H41.4043V32.8177H44.1426V33.5256H41.4837C41.6667 34.268 42.8477 34.7825 44.5397 34.8757L44.26 35.5732C42.7372 35.4627 41.4941 35.0207 40.9485 34.2541C40.4029 35.0207 39.1598 35.4627 37.6301 35.5732ZM44.9333 35.9185V36.6126H41.4078V37.3446H43.9319V39.3198H38.8422V40.0414H44.184V40.7459H37.934V38.6775H43.0203V38.0214H37.9167V37.3446H40.4893V36.6126H36.9775V35.9185H44.9333ZM49.0456 37.5967C48.6623 37.5967 48.3447 37.2859 48.3516 36.9061C48.3447 36.5262 48.6623 36.2155 49.0456 36.2155C49.4186 36.2155 49.7362 36.5262 49.7362 36.9061C49.7362 37.2859 49.4186 37.5967 49.0456 37.5967ZM59.7626 35.5041V32.0787H60.6534V40.8287H59.7626V36.2707H58.6852V40.3971H57.8047V32.2479H58.6852V35.5041H59.7626ZM56.8206 38.5221H53.4228V33.0628H56.8206V38.5221ZM55.9504 33.7983H54.2964V37.7866H55.9504V33.7983ZM68.1013 32.0787H69.0301V36.7749H68.1013V32.0787ZM64.2788 32.4827C65.6185 32.4758 66.6027 33.308 66.6027 34.5166C66.6027 35.7079 65.6185 36.5401 64.2788 36.5366C62.9355 36.5401 61.948 35.7079 61.948 34.5166C61.948 33.308 62.9355 32.4758 64.2788 32.4827ZM64.2788 33.2631C63.4466 33.2562 62.8492 33.7638 62.8561 34.5166C62.8492 35.2659 63.4466 35.77 64.2788 35.7735C65.1006 35.77 65.6945 35.2659 65.6945 34.5166C65.6945 33.7638 65.1006 33.2562 64.2788 33.2631ZM63.3015 37.1996H64.2097V38.1802H68.1082V37.1996H69.0301V40.7182H63.3015V37.1996ZM64.2097 38.9123V39.962H68.1082V38.9123H64.2097Z" fill="#595959"/>
<mask id="mask0_2911_75349" style="mask-type:alpha" maskUnits="userSpaceOnUse" x="10" y="11" width="14" height="14">
<rect x="10" y="11" width="14" height="14" fill="#D9D9D9"/>
</mask>
<g mask="url(#mask0_2911_75349)">
<rect x="11.75" y="13.916" width="10.5" height="8.16667" rx="1.6" fill="black"/>
<rect x="11.75" y="16.2129" width="10.5" height="1.27604" fill="white"/>
<rect x="12.9434" y="19.7852" width="0.954545" height="1.02083" rx="0.3" fill="white"/>
</g>
</svg>
