<svg width="240" height="200" viewBox="0 0 240 200" fill="none" xmlns="http://www.w3.org/2000/svg">
<rect x="0.5" y="0.5" width="239" height="199" rx="11.5" fill="white"/>
<rect x="0.5" y="0.5" width="239" height="199" rx="11.5" stroke="#E4E7EC"/>
<path d="M141.705 54.0188C141.526 52.7286 140.869 51.8709 139.711 51.3995C138.045 50.7209 136.344 50.1239 134.657 49.4928C134.548 49.4404 134.444 49.3795 134.331 49.3369C130.756 47.9931 127.146 46.7395 123.522 45.5249C122.749 45.2654 122.001 45.2775 121.22 45.5346C116.829 46.9795 112.484 48.556 108.156 50.1702C107.049 50.5832 105.929 50.9743 104.854 51.4591C104.138 51.7832 103.505 52.273 103.301 53.1002C102.39 56.7831 102.139 60.5427 102.025 64.3084C101.941 67.1129 102.065 69.9126 102.455 72.7C102.962 76.3123 104.931 79.1241 107.399 81.6837C111.585 85.9782 116.418 89.4003 121.856 92.0026H122.877C123.21 91.8601 123.553 91.7358 123.875 91.5713C127.251 89.8316 130.405 87.7593 133.347 85.3788C135.777 83.4124 138.036 81.278 139.822 78.7098C140.856 77.2235 141.724 75.6495 142.06 73.855C142.346 72.3297 142.456 70.7824 142.528 69.2364C142.768 64.1379 142.401 59.0722 141.705 54.02V54.0188Z" fill="#2951EF"/>
<path fill-rule="evenodd" clip-rule="evenodd" d="M122.525 58.5039C116.421 58.5039 111.473 62.2702 111.473 66.9153C111.473 69.8042 113.386 72.3509 116.301 73.8657L115.075 78.2787C114.966 78.6687 115.419 78.9795 115.767 78.7535L121.142 75.2585C121.595 75.3017 122.056 75.3268 122.525 75.3268C128.629 75.3268 133.578 71.5607 133.578 66.9153C133.578 62.2702 128.629 58.5039 122.525 58.5039Z" fill="#F9DD00"/>
<g filter="url(#filter0_d_6726_14000)">
<ellipse cx="147.789" cy="50" rx="14.2105" ry="14" fill="#C4E8FF"/>
</g>
<path d="M143.645 50.1655L146.408 52.9287L151.934 47.4023" stroke="#285BD5" stroke-width="1.38158" stroke-linecap="round"/>
<rect x="23" y="119" width="194" height="34" rx="8" fill="#FDE102"/>
<path d="M118.507 131.256V134.081H119.817V135.069H118.507V137.819H117.314V131.256H118.507ZM110.729 136.659C111.46 136.659 112.303 136.654 113.179 136.627V136.036C112.099 135.902 111.417 135.381 111.417 134.618C111.417 133.727 112.352 133.168 113.759 133.179C115.177 133.168 116.101 133.727 116.101 134.618C116.101 135.375 115.435 135.891 114.371 136.025V136.584C115.198 136.546 116.031 136.482 116.81 136.38L116.906 137.207C114.833 137.572 112.566 137.594 110.858 137.594L110.729 136.659ZM118.507 138.238V140.956H117.314V139.173H111.954V138.238H118.507ZM116.552 132.019V132.899H110.977V132.019H113.179V131.17H114.371V132.019H116.552ZM113.759 133.984C113.007 133.974 112.556 134.199 112.566 134.618C112.556 135.016 113.007 135.273 113.759 135.263C114.511 135.273 114.962 135.016 114.962 134.618C114.962 134.199 114.511 133.974 113.759 133.984ZM128.411 131.256V138.271H127.208V131.256H128.411ZM128.68 139.796V140.763H121.987V137.562H123.19V139.796H128.68ZM123.115 131.89C124.587 131.89 125.726 132.91 125.726 134.317C125.726 135.757 124.587 136.756 123.115 136.756C121.633 136.756 120.494 135.757 120.494 134.317C120.494 132.91 121.633 131.89 123.115 131.89ZM123.115 132.932C122.288 132.932 121.654 133.479 121.665 134.317C121.654 135.177 122.288 135.714 123.115 135.714C123.921 135.714 124.555 135.177 124.555 134.317C124.555 133.479 123.921 132.932 123.115 132.932Z" fill="#101828"/>
<path d="M186.507 171.842L186.246 171.21C183.524 164.621 180.802 158.032 178.069 151.415C177.128 149.136 177.949 146.612 180.331 145.531C181.819 144.853 183.338 145.029 184.69 146.045C185.446 146.632 186.006 147.365 186.342 148.255C187.623 151.358 188.916 154.488 190.198 157.59C190.402 158.084 190.596 158.165 191.09 157.961C193.753 156.861 196.416 155.761 199.079 154.661C202.182 153.379 206.28 154.354 208.537 156.861C209.364 157.773 209.998 158.764 210.447 159.928C211.423 162.29 212.409 164.678 213.384 167.039C214.292 169.236 214.267 171.432 213.558 173.685C212.875 175.767 211.837 177.61 210.438 179.28C209.316 180.611 207.983 181.741 206.465 182.657C205.254 183.382 203.975 183.942 202.662 184.421C199.739 185.435 196.735 185.712 193.668 185.211C190.982 184.778 188.602 183.607 186.244 182.332C184.795 181.548 183.33 180.803 181.866 180.058C179.552 178.893 177.179 177.816 174.833 176.728C172.965 175.861 173.095 173.686 174.464 172.799C176.534 171.43 178.759 170.671 181.248 170.704C183.03 170.739 184.733 171.128 186.518 171.869L186.507 171.842Z" fill="url(#paint0_linear_6726_14000)"/>
<defs>
<filter id="filter0_d_6726_14000" x="95.6834" y="4.42105" width="104.21" height="103.789" filterUnits="userSpaceOnUse" color-interpolation-filters="sRGB">
<feFlood flood-opacity="0" result="BackgroundImageFix"/>
<feColorMatrix in="SourceAlpha" type="matrix" values="0 0 0 0 0 0 0 0 0 0 0 0 0 0 0 0 0 0 127 0" result="hardAlpha"/>
<feOffset dy="6.31579"/>
<feGaussianBlur stdDeviation="18.9474"/>
<feComposite in2="hardAlpha" operator="out"/>
<feColorMatrix type="matrix" values="0 0 0 0 0 0 0 0 0 0 0 0 0 0 0 0 0 0 0.08 0"/>
<feBlend mode="normal" in2="BackgroundImageFix" result="effect1_dropShadow_6726_14000"/>
<feBlend mode="normal" in="SourceGraphic" in2="effect1_dropShadow_6726_14000" result="shape"/>
</filter>
<linearGradient id="paint0_linear_6726_14000" x1="182.49" y1="144.636" x2="199.478" y2="185.765" gradientUnits="userSpaceOnUse">
<stop stop-color="#FFF2D7"/>
<stop offset="1" stop-color="#FFEBC2"/>
</linearGradient>
</defs>
</svg>
