<svg width="240" height="201" viewBox="0 0 240 201" fill="none" xmlns="http://www.w3.org/2000/svg">
<g clip-path="url(#clip0_7888_279397)">
<rect y="0.884766" width="240" height="200" rx="12" fill="white"/>
<path d="M50.5 50.8848C50.5 39.0106 60.1259 29.3848 72 29.3848H169C180.874 29.3848 190.5 39.0106 190.5 50.8848V228.385H50.5V50.8848Z" fill="white"/>
<path d="M50.5 50.8848C50.5 39.0106 60.1259 29.3848 72 29.3848H169C180.874 29.3848 190.5 39.0106 190.5 50.8848V228.385H50.5V50.8848Z" stroke="#E4E7EC" stroke-width="5"/>
<path d="M86 29.8848H159V35.8848C159 41.4076 154.523 45.8848 149 45.8848H96C90.4772 45.8848 86 41.4076 86 35.8848V29.8848Z" fill="#E4E7EC"/>
<rect x="13" y="72.8848" width="214" height="56.1538" rx="9.38462" fill="white"/>
<rect x="13" y="72.8848" width="214" height="56.1538" rx="9.38462" stroke="#F2F4F7" stroke-width="2"/>
<path d="M43.8221 89.1133H29.0998C26.5378 89.1133 24.4609 91.1902 24.4609 93.7521V108.474C24.4609 111.036 26.5378 113.113 29.0998 113.113H43.8221C46.3841 113.113 48.4609 111.036 48.4609 108.474V93.7521C48.4609 91.1902 46.3841 89.1133 43.8221 89.1133Z" fill="#FE3A4A"/>
<path d="M29.4356 97.5762C28.0616 97.5762 27.5039 97.5866 27.5039 97.5866V104.702H28.6117V102.529H29.6057C29.6057 102.529 31.1467 102.514 31.1467 100.988V99.1207C31.1467 99.1207 31.31 97.5762 29.4356 97.5762ZM30.0817 100.746C30.0817 101.435 29.4496 101.378 29.4496 101.378H28.6117V98.6659C28.6117 98.6659 28.8247 98.6763 29.4532 98.6763C30.0817 98.6763 30.0817 99.3049 30.0817 99.3049V100.746Z" fill="white"/>
<path d="M34.6934 97.5762H32.9999L31.75 104.702H32.943L33.17 103.438H34.5228L34.7498 104.702H35.9428L34.6934 97.5762ZM33.2837 102.373L33.8466 99.0482L34.4095 102.373H33.2841H33.2837Z" fill="white"/>
<path d="M39.4153 99.7035H40.5835C40.5183 99.2319 40.9154 97.6657 38.8793 97.5164C36.4848 97.4664 36.3771 99.8108 37.4164 100.868C37.8992 101.422 39.3765 102.018 39.3905 102.856C39.4938 104.068 38.0361 103.926 38.0129 103.061V102.586H36.8199C36.8339 102.978 36.7622 103.469 36.972 103.815C37.1093 104.042 37.4448 104.702 38.3396 104.745C39.6603 104.913 40.65 104.173 40.5839 102.943C40.5347 102.44 40.7769 102.287 39.774 101.28C38.9501 100.555 37.9989 100.172 37.9989 99.3484C37.9961 98.2663 39.3553 98.2775 39.4049 99.1923L39.4157 99.7035H39.4153Z" fill="white"/>
<path d="M44.3021 99.7035H45.4703C45.405 99.2319 45.8022 97.6657 43.766 97.5164C41.3715 97.4664 41.2638 99.8108 42.3031 100.868C42.7859 101.422 44.2632 102.018 44.2772 102.856C44.3805 104.068 42.9229 103.926 42.8996 103.061V102.586H41.7066C41.7206 102.978 41.649 103.469 41.8587 103.815C41.9961 104.042 42.3315 104.702 43.2263 104.745C44.5471 104.913 45.5367 104.173 45.4707 102.943C45.4214 102.44 45.6636 102.287 44.6608 101.28C43.8369 100.555 42.8856 100.172 42.8856 99.3484C42.8828 98.2663 44.242 98.2775 44.2916 99.1923L44.3025 99.7035H44.3021Z" fill="white"/>
<path d="M59.797 97.2676V86.9884H63.6587C66.0155 86.9884 67.2791 88.4224 67.2791 90.3959C67.2791 92.3694 66.0014 93.7891 63.6303 93.7891H61.6427V97.2676H59.797ZM61.6427 92.27H63.3748C64.7662 92.27 65.3909 91.4891 65.3909 90.3959C65.3909 89.2885 64.7662 88.536 63.3748 88.536H61.6427V92.27ZM68.9261 97.2676H66.9526L70.573 86.9884H72.8447L76.4793 97.2676H74.5058L73.6539 94.7262H69.7779L68.9261 97.2676ZM70.2749 93.2354H73.157L71.7514 89.0897H71.6662L70.2749 93.2354ZM83.138 89.8138C83.0528 88.9335 82.3003 88.4224 81.1929 88.4224C80.0287 88.4224 79.3188 88.9903 79.3188 89.757C79.3188 90.623 80.2275 90.978 81.0793 91.1768L82.0448 91.4323C83.5781 91.7873 85.0547 92.5965 85.0547 94.3854C85.0547 96.1886 83.6349 97.4238 81.1645 97.4238C78.7651 97.4238 77.2601 96.2737 77.175 94.2435H78.9923C79.0775 95.3225 79.9861 95.8478 81.1503 95.8478C82.3713 95.8478 83.209 95.2515 83.209 94.3712C83.209 93.562 82.4565 93.2212 81.3491 92.9373L80.1849 92.6391C78.4953 92.199 77.4447 91.3471 77.4447 89.8706C77.4447 88.0533 79.0633 86.8465 81.2213 86.8465C83.4078 86.8465 84.8843 88.0817 84.9127 89.8138H83.138ZM92.1819 89.8138C92.0968 88.9335 91.3443 88.4224 90.2369 88.4224C89.0726 88.4224 88.3628 88.9903 88.3628 89.757C88.3628 90.623 89.2714 90.978 90.1233 91.1768L91.0887 91.4323C92.6221 91.7873 94.0986 92.5965 94.0986 94.3854C94.0986 96.1886 92.6789 97.4238 90.2085 97.4238C87.809 97.4238 86.3041 96.2737 86.2189 94.2435H88.0362C88.1214 95.3225 89.03 95.8478 90.1943 95.8478C91.4153 95.8478 92.2529 95.2515 92.2529 94.3712C92.2529 93.562 91.5005 93.2212 90.393 92.9373L89.2288 92.6391C87.5393 92.199 86.4887 91.3471 86.4887 89.8706C86.4887 88.0533 88.1072 86.8465 90.2653 86.8465C92.4517 86.8465 93.9283 88.0817 93.9567 89.8138H92.1819Z" fill="black"/>
<path d="M68.0215 114.092V117.293H60.3912V114.092H68.0215ZM61.7299 115.115V116.271H66.7072V115.115H61.7299ZM68.6908 107.265V108.288H59.7097V107.265H63.5431V106.304H64.8939V107.265H68.6908ZM64.2124 108.628C66.5611 108.628 67.8755 109.152 67.8755 110.186C67.8755 111.117 66.8167 111.64 64.8939 111.732V112.377H69.2384V113.447H59.2108V112.377H63.5431V111.732C61.6325 111.646 60.5616 111.117 60.5616 110.186C60.5616 109.152 61.8881 108.628 64.2124 108.628ZM64.2124 109.541C62.7521 109.553 62.0098 109.736 62.0098 110.186C62.0098 110.624 62.7521 110.831 64.2124 110.831C65.6849 110.831 66.4273 110.624 66.4273 110.186C66.4273 109.736 65.6849 109.553 64.2124 109.541ZM74.7147 107.192V108.275H71.6967V109.346H74.6052V110.381H71.6967V111.537C73.0414 111.525 73.9724 111.47 75.0433 111.269L75.1893 112.364C73.8993 112.608 72.8284 112.644 71.1247 112.644H70.3945V107.192H74.7147ZM79.3878 106.438V113.131H78.0978V110.271H76.9539V113.046H75.6883V106.645H76.9539V109.188H78.0978V106.438H79.3878ZM79.3878 113.618V117.427H78.037V114.713H71.8549V113.618H79.3878ZM86.4339 107.935C86.4339 109.638 88.1011 111.342 90.4011 111.744L89.7927 112.875C87.949 112.486 86.44 111.373 85.7281 109.894C84.9979 111.36 83.4889 112.48 81.6513 112.875L81.055 111.744C83.3307 111.33 84.9857 109.626 84.9979 107.935V107.119H86.4339V107.935ZM90.8027 114.908V116.027H80.7508V114.908H90.8027ZM101.013 106.426V117.427H99.7108V106.426H101.013ZM98.7494 106.62V116.891H97.4594V111.659H96.4129C96.2851 113.8 95.3663 115.127 94.0033 115.115C92.5673 115.127 91.6303 113.606 91.6303 111.184C91.6303 108.762 92.5673 107.265 94.0033 107.265C95.3359 107.265 96.2425 108.507 96.4007 110.563H97.4594V106.62H98.7494ZM94.0033 108.543C93.3096 108.531 92.8715 109.468 92.8837 111.184C92.8715 112.9 93.3096 113.837 94.0033 113.825C94.7335 113.837 95.1716 112.9 95.1716 111.184C95.1716 109.468 94.7335 108.531 94.0033 108.543ZM106.355 109.066C106.355 111.111 107.329 113.119 109.081 113.886L108.266 114.969C107.019 114.36 106.142 113.192 105.674 111.756C105.193 113.271 104.299 114.53 103.033 115.175L102.181 114.08C103.97 113.241 104.968 111.123 104.98 109.066V107.314H106.355V109.066ZM111.515 106.426V117.439H110.177V111.074H107.864V109.979H110.177V106.426H111.515ZM125.181 106.438V114.384H123.819V106.438H125.181ZM125.486 116.113V117.208H117.904V113.581H119.267V116.113H125.486ZM119.182 107.156C120.849 107.156 122.139 108.312 122.139 109.906C122.139 111.537 120.849 112.669 119.182 112.669C117.503 112.669 116.213 111.537 116.213 109.906C116.213 108.312 117.503 107.156 119.182 107.156ZM119.182 108.336C118.245 108.336 117.527 108.957 117.539 109.906C117.527 110.88 118.245 111.488 119.182 111.488C120.095 111.488 120.813 110.88 120.813 109.906C120.813 108.957 120.095 108.336 119.182 108.336ZM136.816 111.549V112.644H126.788V111.549H136.816ZM131.79 113.374C134.163 113.374 135.586 114.117 135.599 115.395C135.586 116.684 134.163 117.415 131.79 117.415C129.392 117.415 127.956 116.684 127.956 115.395C127.956 114.117 129.392 113.374 131.79 113.374ZM131.79 114.433C130.183 114.433 129.319 114.762 129.331 115.395C129.319 116.027 130.183 116.356 131.79 116.356C133.359 116.356 134.236 116.027 134.248 115.395C134.236 114.762 133.359 114.433 131.79 114.433ZM135.915 106.949V108.056H132.739C132.94 108.969 134.26 109.79 136.341 109.991L135.866 111.062C133.87 110.849 132.386 110.064 131.79 108.945C131.193 110.058 129.733 110.849 127.737 111.062L127.275 109.991C129.313 109.79 130.639 108.969 130.852 108.056H127.701V106.949H135.915ZM150.567 114.981V116.088H140.515V114.981H142.839V112.194C141.963 111.695 141.434 110.91 141.44 109.93C141.428 108.178 143.156 107.022 145.517 107.022C147.89 107.022 149.618 108.178 149.618 109.93C149.618 110.892 149.107 111.665 148.255 112.17V114.981H150.567ZM145.517 108.093C143.874 108.093 142.754 108.787 142.766 109.93C142.754 111.062 143.874 111.768 145.517 111.768C147.16 111.768 148.291 111.062 148.291 109.93C148.291 108.787 147.16 108.093 145.517 108.093ZM144.178 114.981H146.88V112.681C146.46 112.778 146.003 112.827 145.517 112.827C145.042 112.827 144.592 112.778 144.178 112.693V114.981ZM155.24 108.774C155.24 109.979 156.177 111.172 157.905 111.634L157.272 112.681C156.001 112.334 155.088 111.592 154.583 110.636C154.108 111.719 153.19 112.571 151.881 112.961L151.248 111.914C152.964 111.391 153.889 110.101 153.889 108.774V108.713H151.589V107.643H153.889V106.377H155.252V107.643H157.54V108.713H155.24V108.774ZM160.497 106.426V113.082H159.146V110.539H157.212V109.444H159.146V106.426H160.497ZM156.773 113.301C159.098 113.301 160.534 114.044 160.534 115.346C160.534 116.66 159.098 117.415 156.773 117.415C154.461 117.415 153.025 116.66 153.037 115.346C153.025 114.044 154.461 113.301 156.773 113.301ZM156.773 114.336C155.24 114.348 154.376 114.689 154.376 115.346C154.376 116.003 155.24 116.368 156.773 116.368C158.331 116.368 159.183 116.003 159.183 115.346C159.183 114.689 158.331 114.348 156.773 114.336ZM171.206 106.426V117.439H169.843V106.426H171.206ZM165.28 107.229C166.935 107.229 168.14 108.738 168.152 111.111C168.14 113.508 166.935 115.005 165.28 115.005C163.613 115.005 162.408 113.508 162.408 111.111C162.408 108.738 163.613 107.229 165.28 107.229ZM165.28 108.446C164.343 108.446 163.71 109.431 163.71 111.111C163.71 112.802 164.343 113.788 165.28 113.788C166.205 113.788 166.838 112.802 166.838 111.111C166.838 109.431 166.205 108.446 165.28 108.446ZM174.164 116.441C173.64 116.441 173.214 116.015 173.214 115.492C173.214 114.981 173.64 114.555 174.164 114.555C174.663 114.555 175.101 114.981 175.101 115.492C175.101 116.015 174.663 116.441 174.164 116.441ZM177.559 116.441C177.036 116.441 176.61 116.015 176.61 115.492C176.61 114.981 177.036 114.555 177.559 114.555C178.058 114.555 178.496 114.981 178.496 115.492C178.496 116.015 178.058 116.441 177.559 116.441ZM180.954 116.441C180.431 116.441 180.005 116.015 180.005 115.492C180.005 114.981 180.431 114.555 180.954 114.555C181.453 114.555 181.891 114.981 181.891 115.492C181.891 116.015 181.453 116.441 180.954 116.441Z" fill="#475467"/>
<path d="M202.734 86.5306C202.734 88.0316 203.617 89.6136 205.097 90.2322L204.479 91.1246C203.393 90.6581 202.602 89.6947 202.187 88.5285C201.761 89.786 200.96 90.8407 199.885 91.3477L199.236 90.4654C200.686 89.7961 201.588 88.0924 201.588 86.5306V85.7599H199.57V84.8269H204.742V85.7599H202.734V86.5306ZM206.902 83.9244V93.092H205.767V83.9244H206.902ZM215.604 84.3706V85.0805C215.604 85.7903 215.604 86.6016 215.38 87.6867H216.628V88.5995H208.251V87.6867H214.245C214.458 86.698 214.478 85.9425 214.478 85.2731H209.286V84.3706H215.604ZM215.593 89.6643V92.9805H209.255V89.6643H215.593ZM210.361 90.5466V92.0678H214.478V90.5466H210.361Z" fill="#D0D5DD"/>
<path d="M200.507 145.727L200.246 145.095C197.524 138.506 194.802 131.917 192.069 125.3C191.128 123.021 191.949 120.496 194.331 119.416C195.819 118.737 197.338 118.913 198.69 119.93C199.446 120.517 200.006 121.25 200.342 122.14C201.623 125.242 202.916 128.372 204.198 131.475C204.402 131.969 204.596 132.05 205.09 131.846C207.753 130.745 210.416 129.645 213.079 128.545C216.182 127.264 220.28 128.238 222.537 130.745C223.364 131.657 223.998 132.649 224.447 133.813C225.423 136.174 226.409 138.563 227.384 140.924C228.292 143.121 228.267 145.316 227.558 147.57C226.875 149.651 225.837 151.494 224.438 153.165C223.316 154.496 221.983 155.625 220.465 156.542C219.254 157.267 217.975 157.827 216.662 158.305C213.739 159.32 210.735 159.596 207.668 159.096C204.982 158.662 202.602 157.492 200.244 156.217C198.795 155.433 197.33 154.688 195.866 153.943C193.552 152.778 191.179 151.701 188.833 150.613C186.965 149.746 187.095 147.571 188.464 146.684C190.534 145.314 192.759 144.556 195.248 144.589C197.03 144.624 198.733 145.013 200.518 145.754L200.507 145.727Z" fill="url(#paint0_linear_7888_279397)"/>
</g>
<rect x="0.5" y="1.38477" width="239" height="199" rx="11.5" stroke="#E4E7EC"/>
<defs>
<linearGradient id="paint0_linear_7888_279397" x1="196.49" y1="118.521" x2="213.478" y2="159.65" gradientUnits="userSpaceOnUse">
<stop stop-color="#FFF2D7"/>
<stop offset="1" stop-color="#FFEBC2"/>
</linearGradient>
<clipPath id="clip0_7888_279397">
<rect y="0.884766" width="240" height="200" rx="12" fill="white"/>
</clipPath>
</defs>
</svg>
