<svg width="240" height="200" viewBox="0 0 240 200" fill="none" xmlns="http://www.w3.org/2000/svg">
<rect x="0.5" y="0.5" width="239" height="199" rx="11.5" fill="white"/>
<rect x="0.5" y="0.5" width="239" height="199" rx="11.5" stroke="#E4E7EC"/>
<rect x="23" y="118.016" width="194" height="34" rx="8" fill="#1E1E1E"/>
<path d="M118.507 130.271V133.097H119.817V134.085H118.507V136.835H117.314V130.271H118.507ZM110.729 135.675C111.46 135.675 112.303 135.669 113.179 135.643V135.052C112.099 134.917 111.417 134.396 111.417 133.634C111.417 132.742 112.352 132.184 113.759 132.194C115.177 132.184 116.101 132.742 116.101 133.634C116.101 134.391 115.435 134.907 114.371 135.041V135.6C115.198 135.562 116.031 135.498 116.81 135.396L116.906 136.223C114.833 136.588 112.566 136.609 110.858 136.609L110.729 135.675ZM118.507 137.254V139.972H117.314V138.188H111.954V137.254H118.507ZM116.552 131.034V131.915H110.977V131.034H113.179V130.186H114.371V131.034H116.552ZM113.759 133C113.007 132.989 112.556 133.215 112.566 133.634C112.556 134.031 113.007 134.289 113.759 134.278C114.511 134.289 114.962 134.031 114.962 133.634C114.962 133.215 114.511 132.989 113.759 133ZM128.411 130.271V137.286H127.208V130.271H128.411ZM128.68 138.812V139.778H121.987V136.577H123.19V138.812H128.68ZM123.115 130.905C124.587 130.905 125.726 131.926 125.726 133.333C125.726 134.772 124.587 135.771 123.115 135.771C121.633 135.771 120.494 134.772 120.494 133.333C120.494 131.926 121.633 130.905 123.115 130.905ZM123.115 131.947C122.288 131.947 121.654 132.495 121.665 133.333C121.654 134.192 122.288 134.729 123.115 134.729C123.921 134.729 124.555 134.192 124.555 133.333C124.555 132.495 123.921 131.947 123.115 131.947Z" fill="white"/>
<path d="M186.507 170.858L186.246 170.226C183.524 163.637 180.802 157.048 178.069 150.431C177.128 148.152 177.949 145.627 180.331 144.547C181.819 143.868 183.338 144.044 184.69 145.061C185.446 145.648 186.006 146.381 186.342 147.271C187.623 150.373 188.916 153.503 190.198 156.606C190.402 157.1 190.596 157.18 191.09 156.976C193.753 155.876 196.416 154.776 199.079 153.676C202.182 152.395 206.28 153.369 208.537 155.876C209.364 156.788 209.998 157.78 210.447 158.944C211.423 161.305 212.409 163.694 213.384 166.055C214.292 168.251 214.267 170.447 213.558 172.7C212.875 174.782 211.837 176.625 210.438 178.296C209.316 179.627 207.983 180.756 206.465 181.672C205.254 182.398 203.975 182.958 202.662 183.436C199.739 184.451 196.735 184.727 193.668 184.227C190.982 183.793 188.602 182.623 186.244 181.347C184.795 180.564 183.33 179.819 181.866 179.074C179.552 177.908 177.179 176.832 174.833 175.744C172.965 174.876 173.095 172.701 174.464 171.814C176.534 170.445 178.759 169.687 181.248 169.719C183.03 169.755 184.733 170.144 186.518 170.885L186.507 170.858Z" fill="url(#paint0_linear_41_7561)"/>
<path d="M97.8839 52.5078H80.4679C80.2095 52.5078 80 52.7173 80 52.9757V76.9456C80 77.204 80.2095 77.4135 80.4679 77.4135H97.8839C98.1423 77.4135 98.3518 77.204 98.3518 76.9456V52.9757C98.3518 52.7173 98.1423 52.5078 97.8839 52.5078Z" fill="#FF3A4A"/>
<path d="M159.532 52.5078H142.116C141.858 52.5078 141.648 52.7173 141.648 52.9757V76.9456C141.648 77.204 141.858 77.4135 142.116 77.4135H159.532C159.791 77.4135 160 77.204 160 76.9456V52.9757C160 52.7173 159.791 52.5078 159.532 52.5078Z" fill="#FF3A4A"/>
<path d="M138.983 52.5078H121.567C121.308 52.5078 121.099 52.7173 121.099 52.9757V76.9456C121.099 77.204 121.308 77.4135 121.567 77.4135H138.983C139.241 77.4135 139.45 77.204 139.45 76.9456V52.9757C139.45 52.7173 139.241 52.5078 138.983 52.5078Z" fill="#FF3A4A"/>
<path d="M118.434 52.5078H101.018C100.759 52.5078 100.55 52.7173 100.55 52.9757V76.9456C100.55 77.204 100.759 77.4135 101.018 77.4135H118.434C118.692 77.4135 118.902 77.204 118.902 76.9456V52.9757C118.902 52.7173 118.692 52.5078 118.434 52.5078Z" fill="#FF3A4A"/>
<path d="M130.204 55.698C128.952 55.6795 127.683 56.0249 126.704 56.8124C125.754 57.6128 125.296 58.8951 125.384 60.1186C125.267 61.147 125.424 62.2177 125.975 63.107C126.704 64.455 128.15 65.1377 129.268 66.1079C130.234 66.8546 131.406 67.5252 131.883 68.7095C132.054 69.4927 132.137 70.4648 131.565 71.1071C130.88 71.8127 129.625 71.7831 128.886 71.1822C128.671 71.0027 128.397 70.6838 128.397 70.3193C128.397 69.5653 128.393 68.6686 128.393 68.6686H125.359C125.359 70.3731 125.283 71.1503 125.965 72.1912C126.693 73.4526 128.148 74.1408 129.57 74.2181C130.199 74.2584 130.841 74.2911 131.456 74.1272C132.766 73.9092 133.932 73.0749 134.589 71.9283C135.172 70.7896 135.039 69.4673 134.904 68.243C134.627 66.8949 133.622 65.8582 132.538 65.0856C131.343 64.1163 129.982 63.3278 128.948 62.1749C128.288 61.5132 128.406 60.5586 128.422 59.7112C128.433 58.8222 129.273 58.3378 130.161 58.3154C131.05 58.2933 131.996 58.9293 131.996 59.9998V61.3382H135.019C135.019 59.9285 135.043 59.396 134.78 58.4706C134.262 57.0483 132.889 56.1114 131.44 55.8351C131.037 55.7509 130.622 55.7043 130.204 55.6981L130.204 55.698ZM150.742 55.698C149.49 55.6795 148.22 56.0249 147.242 56.8124C146.291 57.6128 145.834 58.8951 145.922 60.1186C145.805 61.147 145.961 62.2177 146.513 63.107C147.242 64.455 148.688 65.1377 149.806 66.1079C150.772 66.8546 151.944 67.5252 152.42 68.7095C152.592 69.4927 152.675 70.4648 152.103 71.1071C151.417 71.8127 150.163 71.7831 149.424 71.1822C149.209 71.0027 148.935 70.6838 148.935 70.3193C148.935 69.5653 148.931 68.6686 148.931 68.6686H145.897C145.897 70.3731 145.821 71.1503 146.503 72.1912C147.23 73.4526 148.686 74.1408 150.108 74.2181C150.737 74.2584 151.379 74.2911 151.994 74.1272C153.304 73.9092 154.47 73.0749 155.127 71.9283C155.709 70.7896 155.577 69.4673 155.442 68.243C155.165 66.8949 154.16 65.8582 153.075 65.0856C151.881 64.1163 150.52 63.3278 149.486 62.1749C148.826 61.5132 148.944 60.5586 148.96 59.7112C148.971 58.8222 149.81 58.3378 150.699 58.3154C151.587 58.2933 152.534 58.9293 152.534 59.9998V61.3382H155.557C155.557 59.9285 155.581 59.396 155.318 58.4706C154.8 57.0483 153.427 56.1114 151.978 55.8351C151.575 55.7509 151.16 55.7042 150.742 55.698ZM88.999 55.8989C88.6547 55.9004 88.2979 55.907 87.925 55.907C86.4333 55.907 85.7614 55.9229 84.6797 55.907V73.942H87.5476V68.5081C89.1508 68.4665 90.9077 68.7308 92.3293 67.8047C93.4774 67.1294 94.1009 65.7563 93.9668 64.4453C93.9383 62.5958 94.0056 60.7393 93.9307 58.8937C93.6705 57.7453 92.9692 56.7662 91.8551 56.3468C90.9516 55.9366 90.0317 55.8944 88.999 55.8989ZM107.56 55.9526L104.529 74.0175H107.379L107.881 70.8477H111.607L112.095 73.942H114.996L111.967 55.9525L107.56 55.9526ZM87.5476 58.6488H89.8422C90.9545 58.6488 91.2407 59.4992 91.2407 60.1271V64.4327C91.2407 65.15 90.5698 65.6401 89.9231 65.6401H87.5476V58.6488ZM109.758 59.1873L111.247 68.1307H108.302L109.758 59.1873Z" fill="white"/>
<g filter="url(#filter0_d_41_7561)">
<ellipse cx="163.211" cy="46.0156" rx="14.2105" ry="14" fill="#FC3A4A" fill-opacity="0.1" shape-rendering="crispEdges"/>
</g>
<path d="M159.066 46.1772L161.83 48.9404L167.356 43.4141" stroke="#FF3A4A" stroke-width="1.38158" stroke-linecap="round"/>
<defs>
<filter id="filter0_d_41_7561" x="111.105" y="0.436677" width="104.21" height="103.789" filterUnits="userSpaceOnUse" color-interpolation-filters="sRGB">
<feFlood flood-opacity="0" result="BackgroundImageFix"/>
<feColorMatrix in="SourceAlpha" type="matrix" values="0 0 0 0 0 0 0 0 0 0 0 0 0 0 0 0 0 0 127 0" result="hardAlpha"/>
<feOffset dy="6.31579"/>
<feGaussianBlur stdDeviation="18.9474"/>
<feComposite in2="hardAlpha" operator="out"/>
<feColorMatrix type="matrix" values="0 0 0 0 0 0 0 0 0 0 0 0 0 0 0 0 0 0 0.08 0"/>
<feBlend mode="normal" in2="BackgroundImageFix" result="effect1_dropShadow_41_7561"/>
<feBlend mode="normal" in="SourceGraphic" in2="effect1_dropShadow_41_7561" result="shape"/>
</filter>
<linearGradient id="paint0_linear_41_7561" x1="182.49" y1="143.652" x2="199.478" y2="184.781" gradientUnits="userSpaceOnUse">
<stop stop-color="#FFF2D7"/>
<stop offset="1" stop-color="#FFEBC2"/>
</linearGradient>
</defs>
</svg>
