<svg width="240" height="200" viewBox="0 0 240 200" fill="none" xmlns="http://www.w3.org/2000/svg">
<g clip-path="url(#clip0_41_7522)">
<rect width="240" height="200" rx="12" fill="white"/>
<path d="M50.5 50C50.5 38.1259 60.1259 28.5 72 28.5H169C180.874 28.5 190.5 38.1259 190.5 50V227.5H50.5V50Z" fill="white"/>
<path d="M50.5 50C50.5 38.1259 60.1259 28.5 72 28.5H169C180.874 28.5 190.5 38.1259 190.5 50V227.5H50.5V50Z" stroke="#E4E7EC" stroke-width="5"/>
<path d="M86 29H159V35C159 40.5228 154.523 45 149 45H96C90.4772 45 86 40.5228 86 35V29Z" fill="#E4E7EC"/>
<rect x="13" y="72" width="214" height="56.1538" rx="9.38462" fill="white"/>
<rect x="13" y="72" width="214" height="56.1538" rx="9.38462" stroke="#F2F4F7" stroke-width="2"/>
<path d="M43.8221 88.4219H29.0998C26.5378 88.4219 24.4609 90.4987 24.4609 93.0607V107.783C24.4609 110.345 26.5378 112.422 29.0998 112.422H43.8221C46.3841 112.422 48.4609 110.345 48.4609 107.783V93.0607C48.4609 90.4987 46.3841 88.4219 43.8221 88.4219Z" fill="#FE3A4A"/>
<path d="M29.4356 96.8848C28.0616 96.8848 27.5039 96.8952 27.5039 96.8952V104.01H28.6117V101.837H29.6057C29.6057 101.837 31.1467 101.823 31.1467 100.297V98.4293C31.1467 98.4293 31.31 96.8848 29.4356 96.8848ZM30.0817 100.055C30.0817 100.743 29.4496 100.687 29.4496 100.687H28.6117V97.9745C28.6117 97.9745 28.8247 97.9849 29.4532 97.9849C30.0817 97.9849 30.0817 98.6135 30.0817 98.6135V100.055Z" fill="white"/>
<path d="M34.6934 96.8848H32.9999L31.75 104.01H32.943L33.17 102.746H34.5228L34.7498 104.01H35.9428L34.6934 96.8848ZM33.2837 101.681L33.8466 98.3568L34.4095 101.681H33.2841H33.2837Z" fill="white"/>
<path d="M39.4153 99.0121H40.5835C40.5183 98.5405 40.9154 96.9743 38.8793 96.825C36.4848 96.775 36.3771 99.1194 37.4164 100.177C37.8992 100.73 39.3765 101.327 39.3905 102.165C39.4938 103.377 38.0361 103.235 38.0129 102.37V101.895H36.8199C36.8339 102.287 36.7622 102.777 36.972 103.124C37.1093 103.35 37.4448 104.011 38.3396 104.054C39.6603 104.221 40.65 103.481 40.5839 102.251C40.5347 101.749 40.7769 101.596 39.774 100.588C38.9501 99.864 37.9989 99.4805 37.9989 98.657C37.9961 97.5749 39.3553 97.5861 39.4049 98.5009L39.4157 99.0121H39.4153Z" fill="white"/>
<path d="M44.3021 99.0121H45.4703C45.405 98.5405 45.8022 96.9743 43.766 96.825C41.3715 96.775 41.2638 99.1194 42.3031 100.177C42.7859 100.73 44.2632 101.327 44.2772 102.165C44.3805 103.377 42.9229 103.235 42.8996 102.37V101.895H41.7066C41.7206 102.287 41.649 102.777 41.8587 103.124C41.9961 103.35 42.3315 104.011 43.2263 104.054C44.5471 104.221 45.5367 103.481 45.4707 102.251C45.4214 101.749 45.6636 101.596 44.6608 100.588C43.8369 99.864 42.8856 99.4805 42.8856 98.657C42.8828 97.5749 44.242 97.5861 44.2916 98.5009L44.3025 99.0121H44.3021Z" fill="white"/>
<path d="M59.797 96.3828V86.1037H63.6587C66.0155 86.1037 67.2791 87.5376 67.2791 89.5111C67.2791 91.4846 66.0014 92.9044 63.6303 92.9044H61.6427V96.3828H59.797ZM61.6427 91.3852H63.3748C64.7662 91.3852 65.3909 90.6043 65.3909 89.5111C65.3909 88.4037 64.7662 87.6512 63.3748 87.6512H61.6427V91.3852ZM68.9261 96.3828H66.9526L70.573 86.1037H72.8447L76.4793 96.3828H74.5058L73.6539 93.8414H69.7779L68.9261 96.3828ZM70.2749 92.3507H73.157L71.7514 88.2049H71.6662L70.2749 92.3507ZM83.138 88.929C83.0528 88.0488 82.3003 87.5376 81.1929 87.5376C80.0287 87.5376 79.3188 88.1055 79.3188 88.8722C79.3188 89.7383 80.2275 90.0932 81.0793 90.292L82.0448 90.5476C83.5781 90.9025 85.0547 91.7118 85.0547 93.5007C85.0547 95.3038 83.6349 96.539 81.1645 96.539C78.7651 96.539 77.2601 95.389 77.175 93.3587H78.9923C79.0775 94.4377 79.9861 94.963 81.1503 94.963C82.3713 94.963 83.209 94.3667 83.209 93.4865C83.209 92.6772 82.4565 92.3365 81.3491 92.0525L80.1849 91.7544C78.4953 91.3142 77.4447 90.4624 77.4447 88.9858C77.4447 87.1685 79.0633 85.9617 81.2213 85.9617C83.4078 85.9617 84.8843 87.1969 84.9127 88.929H83.138ZM92.1819 88.929C92.0968 88.0488 91.3443 87.5376 90.2369 87.5376C89.0726 87.5376 88.3628 88.1055 88.3628 88.8722C88.3628 89.7383 89.2714 90.0932 90.1233 90.292L91.0887 90.5476C92.6221 90.9025 94.0986 91.7118 94.0986 93.5007C94.0986 95.3038 92.6789 96.539 90.2085 96.539C87.809 96.539 86.3041 95.389 86.2189 93.3587H88.0362C88.1214 94.4377 89.03 94.963 90.1943 94.963C91.4153 94.963 92.2529 94.3667 92.2529 93.4865C92.2529 92.6772 91.5005 92.3365 90.393 92.0525L89.2288 91.7544C87.5393 91.3142 86.4887 90.4624 86.4887 88.9858C86.4887 87.1685 88.1072 85.9617 90.2653 85.9617C92.4517 85.9617 93.9283 87.1969 93.9567 88.929H92.1819Z" fill="black"/>
<path d="M68.3744 105.553V113.5H67.0114V105.553H68.3744ZM68.6786 115.228V116.323H61.0971V112.697H62.46V115.228H68.6786ZM62.3748 106.271C64.0421 106.271 65.332 107.427 65.332 109.021C65.332 110.652 64.0421 111.784 62.3748 111.784C60.6955 111.784 59.4055 110.652 59.4055 109.021C59.4055 107.427 60.6955 106.271 62.3748 106.271ZM62.3748 107.451C61.4378 107.451 60.7198 108.072 60.732 109.021C60.7198 109.995 61.4378 110.603 62.3748 110.603C63.2876 110.603 64.0056 109.995 64.0056 109.021C64.0056 108.072 63.2876 107.451 62.3748 107.451ZM80.0084 110.664V111.759H69.9808V110.664H80.0084ZM74.9824 112.49C77.3555 112.49 78.7793 113.232 78.7915 114.51C78.7793 115.8 77.3555 116.53 74.9824 116.53C72.585 116.53 71.149 115.8 71.149 114.51C71.149 113.232 72.585 112.49 74.9824 112.49ZM74.9824 113.548C73.3761 113.548 72.512 113.877 72.5242 114.51C72.512 115.143 73.3761 115.471 74.9824 115.471C76.5523 115.471 77.4285 115.143 77.4407 114.51C77.4285 113.877 76.5523 113.548 74.9824 113.548ZM79.1079 106.064V107.172H75.9316C76.1324 108.084 77.4528 108.906 79.5338 109.107L79.0592 110.177C77.0634 109.964 75.5787 109.18 74.9824 108.06C74.3861 109.173 72.9258 109.964 70.93 110.177L70.4675 109.107C72.5059 108.906 73.8324 108.084 74.0454 107.172H70.8935V106.064H79.1079ZM93.7599 114.096V115.203H83.7079V114.096H86.0323V111.309C85.1561 110.81 84.6267 110.025 84.6328 109.046C84.6206 107.293 86.3487 106.137 88.7096 106.137C91.0826 106.137 92.8107 107.293 92.8107 109.046C92.8107 110.007 92.2996 110.78 91.4477 111.285V114.096H93.7599ZM88.7096 107.208C87.0667 107.208 85.9471 107.902 85.9593 109.046C85.9471 110.177 87.0667 110.883 88.7096 110.883C90.3525 110.883 91.4842 110.177 91.4842 109.046C91.4842 107.902 90.3525 107.208 88.7096 107.208ZM87.3709 114.096H90.0726V111.796C89.6527 111.893 89.1964 111.942 88.7096 111.942C88.235 111.942 87.7847 111.893 87.3709 111.808V114.096ZM98.433 107.89C98.433 109.094 99.37 110.287 101.098 110.749L100.465 111.796C99.1936 111.449 98.2809 110.707 97.7758 109.752C97.3012 110.835 96.3824 111.686 95.0742 112.076L94.4414 111.029C96.1573 110.506 97.0822 109.216 97.0822 107.89V107.829H94.7821V106.758H97.0822V105.492H98.4452V106.758H100.733V107.829H98.433V107.89ZM103.69 105.541V112.198H102.339V109.654H100.404V108.559H102.339V105.541H103.69ZM99.9663 112.417C102.291 112.417 103.727 113.159 103.727 114.461C103.727 115.775 102.291 116.53 99.9663 116.53C97.6541 116.53 96.2181 115.775 96.2303 114.461C96.2181 113.159 97.6541 112.417 99.9663 112.417ZM99.9663 113.451C98.433 113.463 97.569 113.804 97.569 114.461C97.569 115.118 98.433 115.483 99.9663 115.483C101.524 115.483 102.376 115.118 102.376 114.461C102.376 113.804 101.524 113.463 99.9663 113.451ZM114.399 105.541V116.554H113.036V105.541H114.399ZM108.473 106.344C110.128 106.344 111.333 107.853 111.345 110.226C111.333 112.623 110.128 114.12 108.473 114.12C106.806 114.12 105.601 112.623 105.601 110.226C105.601 107.853 106.806 106.344 108.473 106.344ZM108.473 107.561C107.536 107.561 106.903 108.547 106.903 110.226C106.903 111.918 107.536 112.903 108.473 112.903C109.398 112.903 110.03 111.918 110.03 110.226C110.03 108.547 109.398 107.561 108.473 107.561ZM127.907 110.543V111.613H124.646V114.133H129.027V115.24H118.975V114.133H123.307V111.613H120.192V106.356H127.822V107.439H121.543V110.543H127.907ZM133.7 107.926C133.7 109.131 134.588 110.336 136.329 110.81L135.696 111.893C134.436 111.528 133.536 110.762 133.043 109.8C132.556 110.859 131.643 111.686 130.354 112.076L129.696 111.017C131.424 110.518 132.349 109.24 132.349 107.926V107.841H130.049V106.77H132.349V105.504H133.712V106.77H136V107.841H133.7V107.926ZM138.422 105.541V108.328H139.955V109.472H138.422V112.271H137.071V105.541H138.422ZM138.422 112.77V116.554H137.071V113.853H131.096V112.77H138.422ZM149.922 105.553V112.331H148.632V109.545H147.585V112.198H146.32V105.711H147.585V108.437H148.632V105.553H149.922ZM145.93 106.673V107.744H140.454V106.673H142.535V105.602H143.874V106.673H145.93ZM143.204 108.157C144.604 108.169 145.59 108.924 145.602 110.068C145.59 111.2 144.604 111.979 143.204 111.979C141.829 111.979 140.831 111.2 140.844 110.068C140.831 108.924 141.829 108.169 143.204 108.157ZM143.204 109.143C142.523 109.143 142.048 109.472 142.048 110.068C142.048 110.64 142.511 110.993 143.204 110.993C143.898 110.993 144.373 110.64 144.373 110.068C144.373 109.472 143.898 109.143 143.204 109.143ZM144.616 112.94C144.616 113.792 145.024 114.668 145.943 115.216C146.874 114.631 147.306 113.707 147.318 112.94V112.672H148.656V112.94C148.656 113.986 149.35 114.997 150.786 115.386L150.153 116.408C149.076 116.067 148.358 115.386 147.975 114.534C147.628 115.374 146.983 116.122 145.967 116.506C144.933 116.14 144.281 115.435 143.935 114.595C143.533 115.398 142.815 116.061 141.793 116.408L141.16 115.386C142.572 114.96 143.277 113.926 143.277 112.94V112.672H144.616V112.94ZM153.828 112.137V113.183H158.672V112.137H160.023V116.408H152.49V112.137H153.828ZM153.828 115.337H158.672V114.218H153.828V115.337ZM161.313 110.409V111.516H151.285V110.409H161.313ZM156.992 106.076C156.992 107.257 158.501 108.498 160.777 108.766L160.303 109.837C158.459 109.587 157.005 108.772 156.299 107.658C155.587 108.778 154.127 109.587 152.295 109.837L151.796 108.766C154.096 108.486 155.593 107.293 155.605 106.076V105.663H156.992V106.076ZM171.231 105.541V116.542H169.892V105.541H171.231ZM164.026 106.612V112.623C165.572 112.599 167.215 112.459 168.906 112.125L169.077 113.256C167.142 113.658 165.341 113.78 163.637 113.78H162.688V106.612H164.026ZM181.441 105.541V109.715H183.133V110.822H181.441V116.554H180.09V105.541H181.441ZM178.423 106.587V107.683H174.626V112.733C176.336 112.733 177.687 112.648 179.202 112.38L179.36 113.524C177.656 113.816 176.172 113.865 174.188 113.865H173.275V106.587H178.423ZM184.934 115.556C184.41 115.556 183.984 115.13 183.984 114.607C183.984 114.096 184.41 113.67 184.934 113.67C185.433 113.67 185.871 114.096 185.871 114.607C185.871 115.13 185.433 115.556 184.934 115.556Z" fill="#475467"/>
<path d="M202.734 85.6459C202.734 87.1468 203.617 88.7288 205.097 89.3474L204.479 90.2399C203.393 89.7734 202.602 88.8099 202.187 87.6437C201.761 88.9012 200.96 89.9559 199.885 90.463L199.236 89.5807C200.686 88.9114 201.588 87.2076 201.588 85.6459V84.8751H199.57V83.9422H204.742V84.8751H202.734V85.6459ZM206.902 83.0396V92.2073H205.767V83.0396H206.902ZM215.604 83.4858V84.1957C215.604 84.9056 215.604 85.7169 215.38 86.802H216.628V87.7147H208.251V86.802H214.245C214.458 85.8132 214.478 85.0577 214.478 84.3884H209.286V83.4858H215.604ZM215.593 88.7795V92.0957H209.255V88.7795H215.593ZM210.361 89.6618V91.183H214.478V89.6618H210.361Z" fill="#D0D5DD"/>
<path d="M200.507 144.842L200.246 144.21C197.524 137.621 194.802 131.032 192.069 124.415C191.128 122.136 191.949 119.612 194.331 118.531C195.819 117.853 197.338 118.029 198.69 119.045C199.446 119.632 200.006 120.365 200.342 121.255C201.623 124.358 202.916 127.488 204.198 130.59C204.402 131.084 204.596 131.165 205.09 130.961C207.753 129.861 210.416 128.761 213.079 127.661C216.182 126.379 220.28 127.354 222.537 129.861C223.364 130.773 223.998 131.764 224.447 132.928C225.423 135.29 226.409 137.678 227.384 140.039C228.292 142.236 228.267 144.432 227.558 146.685C226.875 148.767 225.837 150.61 224.438 152.28C223.316 153.611 221.983 154.741 220.465 155.657C219.254 156.382 217.975 156.942 216.662 157.421C213.739 158.435 210.735 158.712 207.668 158.211C204.982 157.778 202.602 156.607 200.244 155.332C198.795 154.548 197.33 153.803 195.866 153.058C193.552 151.893 191.179 150.816 188.833 149.728C186.965 148.861 187.095 146.686 188.464 145.799C190.534 144.43 192.759 143.671 195.248 143.704C197.03 143.739 198.733 144.128 200.518 144.869L200.507 144.842Z" fill="url(#paint0_linear_41_7522)"/>
</g>
<rect x="0.5" y="0.5" width="239" height="199" rx="11.5" stroke="#E4E7EC"/>
<defs>
<linearGradient id="paint0_linear_41_7522" x1="196.49" y1="117.636" x2="213.478" y2="158.765" gradientUnits="userSpaceOnUse">
<stop stop-color="#FFF2D7"/>
<stop offset="1" stop-color="#FFEBC2"/>
</linearGradient>
<clipPath id="clip0_41_7522">
<rect width="240" height="200" rx="12" fill="white"/>
</clipPath>
</defs>
</svg>
