<svg width="240" height="200" viewBox="0 0 240 200" fill="none" xmlns="http://www.w3.org/2000/svg">
<rect x="0.5" y="0.5" width="239" height="199" rx="11.5" fill="white"/>
<rect x="0.5" y="0.5" width="239" height="199" rx="11.5" stroke="#E4E7EC"/>
<rect x="23" y="119" width="194" height="34" rx="8" fill="#1E1E1E"/>
<path d="M118.507 131.256V134.081H119.817V135.069H118.507V137.819H117.314V131.256H118.507ZM110.729 136.659C111.46 136.659 112.303 136.654 113.179 136.632V136.036C112.099 135.902 111.412 135.381 111.417 134.618C111.412 133.721 112.352 133.173 113.759 133.179C115.171 133.173 116.101 133.721 116.101 134.618C116.101 135.375 115.435 135.891 114.371 136.031V136.589C115.198 136.546 116.031 136.482 116.81 136.38L116.906 137.207C114.838 137.572 112.566 137.594 110.858 137.594L110.729 136.659ZM110.977 132.899V132.019H113.179V131.17H114.371V132.019H116.552V132.899H110.977ZM111.954 139.173V138.238H118.507V140.956H117.314V139.173H111.954ZM112.566 134.618C112.556 135.021 113.007 135.273 113.759 135.263C114.511 135.273 114.962 135.021 114.962 134.618C114.962 134.194 114.511 133.979 113.759 133.984C113.007 133.979 112.556 134.194 112.566 134.618ZM128.411 131.256V138.271H127.208V131.256H128.411ZM120.494 134.317C120.494 132.905 121.638 131.895 123.115 131.89C124.592 131.895 125.731 132.905 125.726 134.317C125.731 135.751 124.592 136.756 123.115 136.756C121.638 136.756 120.494 135.751 120.494 134.317ZM121.665 134.317C121.66 135.177 122.283 135.714 123.115 135.714C123.926 135.714 124.555 135.177 124.555 134.317C124.555 133.479 123.926 132.932 123.115 132.932C122.283 132.932 121.66 133.479 121.665 134.317ZM121.987 140.763V137.562H123.19V139.796H128.68V140.763H121.987Z" fill="white"/>
<path d="M186.507 171.842L186.246 171.21C183.524 164.621 180.802 158.032 178.069 151.415C177.128 149.136 177.949 146.612 180.331 145.531C181.819 144.853 183.338 145.029 184.69 146.045C185.446 146.632 186.006 147.365 186.342 148.255C187.623 151.358 188.916 154.488 190.198 157.59C190.402 158.084 190.596 158.165 191.09 157.961C193.753 156.861 196.416 155.761 199.079 154.661C202.182 153.379 206.28 154.354 208.537 156.861C209.364 157.773 209.998 158.764 210.447 159.928C211.423 162.29 212.409 164.678 213.384 167.039C214.292 169.236 214.267 171.432 213.558 173.685C212.875 175.767 211.837 177.61 210.438 179.28C209.316 180.611 207.983 181.741 206.465 182.657C205.254 183.382 203.975 183.942 202.662 184.421C199.739 185.435 196.735 185.712 193.668 185.211C190.982 184.778 188.602 183.607 186.244 182.332C184.795 181.548 183.33 180.803 181.866 180.058C179.552 178.893 177.179 177.816 174.833 176.728C172.965 175.861 173.095 173.686 174.464 172.799C176.534 171.43 178.759 170.671 181.248 170.704C183.03 170.739 184.733 171.128 186.518 171.869L186.507 171.842Z" fill="url(#paint0_linear_6726_15991)"/>
<path d="M93.6658 60L80.3332 72.3449C79.9111 72.7373 79.8867 73.3976 80.2791 73.8197C80.4847 74.0403 80.7635 74.1526 81.0435 74.1526C81.0868 74.1526 81.1315 74.1458 81.1748 74.1404C81.214 74.1444 81.2533 74.1526 81.2938 74.1526H86.3473V84.9239C86.3473 85.6613 86.944 86.258 87.6814 86.258C88.4188 86.258 89.0155 85.66 89.0155 84.9239V79.9868H93.9878V84.9239C93.9878 85.6613 94.5845 86.258 95.3219 86.258C96.0593 86.258 96.6559 85.66 96.6559 84.9239V73.3516C96.6559 72.6142 96.0593 72.0175 95.3219 72.0175C94.5845 72.0175 93.9878 72.6142 93.9878 73.3516V77.4404H89.0155V73.3516C89.0155 72.6142 88.4188 72.0175 87.6814 72.0175C87.5596 72.0175 83.7414 72.027 83.7414 72.027L92.444 63.9413C93.6509 62.8102 94.4992 62.7886 95.6872 63.8575C96.8481 64.902 101.128 68.7648 103.374 70.7917C104.072 71.4222 104.57 71.8714 104.72 72.0067H117.66C118.013 72.0067 118.33 71.7875 118.454 71.456C118.579 71.1245 118.485 70.7511 118.219 70.5184L106.199 60H93.6658Z" fill="#005DAB"/>
<path d="M102.7 75.6641C99.7014 75.6641 98.1914 78.0264 98.1914 80.9395C98.1914 83.8525 99.8204 86.2162 102.7 86.2162C105.579 86.2162 107.208 83.8539 107.208 80.9395C107.208 78.0251 105.699 75.6641 102.7 75.6641ZM102.7 84.207C101.318 84.207 100.538 82.7444 100.538 80.9395C100.538 79.1346 101.261 77.6719 102.7 77.6719C104.138 77.6719 104.862 79.1346 104.862 80.9395C104.862 82.7444 104.081 84.207 102.7 84.207Z" fill="#005DAB"/>
<path d="M118.858 75.7074C117.74 75.7074 116.686 76.4746 115.843 77.5367C115.471 76.4286 114.734 75.7074 113.557 75.7074C112.51 75.7074 111.51 76.3541 110.678 77.2837V76.7587C110.678 76.116 110.157 75.5938 109.513 75.5938C108.869 75.5938 108.348 76.1147 108.348 76.7587V84.9742C108.348 85.6169 108.869 86.1392 109.513 86.1392C110.157 86.1392 110.678 85.6183 110.678 84.9742V80.0141C110.678 79.0629 111.347 77.8303 112.343 77.8303C113.339 77.8303 113.807 78.4419 113.807 78.9831V84.9742C113.807 85.6169 114.328 86.1392 114.972 86.1392C115.616 86.1392 116.137 85.6183 116.137 84.9742V80.4984C116.137 79.2252 116.807 77.8303 117.803 77.8303C118.798 77.8303 119.266 78.5785 119.266 79.1184V84.9729C119.266 85.6156 119.787 86.1378 120.431 86.1378C121.075 86.1378 121.596 85.6169 121.596 84.9729V79.3294C121.596 76.8886 120.877 75.7061 118.861 75.7061L118.858 75.7074Z" fill="#005DAB"/>
<path d="M132.074 85.3451C132.074 85.337 132.071 85.3302 132.071 85.3235C132.071 85.3167 132.074 85.3113 132.074 85.3045C132.074 83.0572 130.244 80.3281 127.606 80.3281C125.367 80.3281 123.557 82.0356 123.071 84.5577H120.492C120.056 84.5577 119.703 84.9108 119.703 85.3465C119.703 85.7821 120.056 86.1353 120.492 86.1353H122.948C123.044 88.9401 125.103 91.0508 127.648 91.0508C130.008 91.0508 131.279 89.3771 131.347 89.3081C131.753 88.89 132.076 88.2703 131.658 87.8644C131.24 87.4585 130.572 87.468 130.166 87.8861C130.155 87.8969 129.102 88.9401 127.648 88.9401C126.306 88.9401 125.397 87.721 125.294 86.1339H131.288C131.723 86.1339 132.076 85.7808 132.076 85.3451H132.074ZM127.606 82.4388C128.924 82.4388 129.457 83.6322 129.668 84.5577H125.422C125.705 83.3616 126.415 82.4388 127.606 82.4388Z" fill="url(#paint1_linear_6726_15991)"/>
<path d="M136.886 83.951H136.392C136.25 83.951 136.158 83.8901 136.158 83.7291V78.1776H137.168C137.663 78.1776 138.065 77.7758 138.065 77.2806C138.065 76.7854 137.663 76.3835 137.168 76.3835H136.158V74.7031C136.158 74.0739 135.574 73.5625 134.945 73.5625C134.316 73.5625 133.745 74.0726 133.745 74.7031V76.3835H133.249C132.753 76.3835 132.352 76.7854 132.352 77.2806C132.352 77.7758 132.753 78.1776 133.249 78.1776H133.745V84.0416C133.745 85.1822 134.64 86.0766 135.78 86.0766H136.887C137.516 86.0766 138.027 85.6422 138.027 85.0117C138.027 84.3812 137.517 83.951 136.887 83.951H136.886Z" fill="#005DAB"/>
<path d="M147.039 84.5011C146.918 84.198 146.827 83.7921 146.827 83.6528V78.2556C146.827 76.9634 145.653 75.6172 142.976 75.6172C140.3 75.6172 139.318 77.5858 139.277 77.6792C139.096 78.104 139.034 78.6967 139.519 79.043C139.944 79.3461 140.672 79.2243 140.977 78.7914C140.983 78.7819 141.606 77.6778 142.976 77.6778C144.347 77.6778 144.645 78.5573 144.645 78.951V79.3448C144.332 79.6776 143.906 79.959 143.34 79.982C141.884 80.0429 138.52 80.2553 138.52 83.3483C138.52 85.4712 140.188 86.1071 141.764 86.1071C142.596 86.1071 143.779 85.5889 144.655 84.566C144.704 85.1844 144.945 85.6092 145.389 85.9786C145.597 86.1518 145.851 86.1369 146.13 86.1369C146.409 86.1369 146.785 85.846 146.888 85.7432C147.1 85.5307 147.161 84.8028 147.039 84.4997V84.5011ZM143.978 83.6216C143.553 84.0465 143.037 84.4104 142.219 84.4104C141.4 84.4104 140.914 83.7136 140.914 83.1061C140.914 82.4986 141.552 81.7423 142.673 81.7423C143.524 81.7423 144.233 81.4866 144.645 81.1307V82.7043C144.473 83.0277 144.256 83.3443 143.978 83.623V83.6216Z" fill="#005DAB"/>
<path d="M153.217 80.9224L154.933 78.3409C155.357 77.7036 155.357 76.6699 154.933 76.0326C154.51 75.3954 153.823 75.3954 153.399 76.0326L151.682 78.6142L149.965 76.0326C149.542 75.3954 148.854 75.3954 148.431 76.0326C148.007 76.6699 148.007 77.7036 148.431 78.3409L150.148 80.9224L148.431 83.504C148.007 84.1413 148.007 85.175 148.431 85.8123C148.643 86.1302 148.921 86.2899 149.198 86.2899C149.475 86.2899 149.753 86.1302 149.965 85.8123L151.682 83.2307L153.399 85.8123C153.612 86.1302 153.889 86.2899 154.166 86.2899C154.444 86.2899 154.722 86.1302 154.933 85.8123C155.357 85.175 155.357 84.1413 154.933 83.504L153.217 80.9224Z" fill="#005DAB"/>
<path d="M158.529 87.3005C159.339 87.3005 159.996 86.6439 159.996 85.8339C159.996 85.0238 159.339 84.3672 158.529 84.3672C157.719 84.3672 157.062 85.0238 157.062 85.8339C157.062 86.6439 157.719 87.3005 158.529 87.3005Z" fill="#019F40"/>
<path d="M157.257 87.6719C157.257 87.6719 151.799 92.5644 144.523 92.5644C139.305 92.5644 135.827 90.4253 134.287 89.2671C134.274 89.0641 134.15 88.7611 134.15 88.7611C134.15 88.7611 133.96 88.5662 133.815 88.439C133.67 88.3105 133.516 88.2009 133.516 88.2009C133.516 88.2009 133.366 88.2902 133.197 88.4823C133.027 88.6745 132.957 88.8355 132.957 88.8355C132.957 88.8355 133.06 88.9518 133.229 89.102C133.399 89.2522 133.59 89.3943 133.59 89.3943C133.59 89.3943 133.941 89.4863 134.141 89.4633C135.648 90.9435 139.369 94.0202 144.282 94.0202C150.75 94.0202 154.531 90.4023 157.26 87.6732L157.257 87.6719Z" fill="#FA9F1D"/>
<path d="M122.517 68.904C122.735 68.6875 122.844 68.421 122.844 68.1138C122.844 67.8067 122.733 67.5402 122.517 67.321C122.299 67.1031 122.016 66.9922 121.678 66.9922C121.34 66.9922 121.061 67.1031 120.843 67.321C120.625 67.5388 120.516 67.8054 120.516 68.1138C120.516 68.4223 120.627 68.6875 120.843 68.904C121.061 69.1205 121.341 69.2301 121.678 69.2301C122.015 69.2301 122.299 69.1205 122.517 68.904ZM121.219 67.6606C121.326 67.5375 121.48 67.4752 121.678 67.4752C121.875 67.4752 122.035 67.5375 122.142 67.6619C122.25 67.7864 122.304 67.9393 122.304 68.1152C122.304 68.2911 122.25 68.4386 122.142 68.563C122.035 68.6862 121.879 68.7484 121.678 68.7484C121.476 68.7484 121.325 68.6862 121.219 68.5617C121.111 68.4372 121.057 68.2857 121.057 68.1138C121.057 67.942 121.111 67.7851 121.219 67.6606Z" fill="#005DAB"/>
<path d="M121.687 69.6719H121.152V71.0858H124.253V70.6176H121.687V69.6719Z" fill="#005DAB"/>
<path d="M124.163 66.8516H123.637V70.0027H124.163V66.8516Z" fill="#005DAB"/>
<path d="M127.063 69.761C126.879 69.7786 126.697 69.7908 126.523 69.7976C126.305 69.8111 126.102 69.8165 125.917 69.8165H125.651V68.9898H127.095V68.5068H125.651V67.7572H127.16V67.2891H125.125V70.2995H125.155C125.176 70.2995 125.343 70.2995 125.653 70.2968C125.96 70.2955 126.249 70.2873 126.51 70.2752C126.686 70.2657 126.872 70.2522 127.058 70.2332C127.247 70.2156 127.406 70.1981 127.532 70.1818L127.559 70.1778V69.7042L127.525 69.7083C127.402 69.7245 127.247 69.7407 127.061 69.7597L127.063 69.761Z" fill="#005DAB"/>
<path d="M127.976 68.3791H127.227V68.8473H127.976V71.1812H128.502V66.8516H127.976V68.3791Z" fill="#005DAB"/>
<path d="M131.583 69.3641H132.094V66.9219H131.583V67.6241H130.809V68.0936H131.583V69.3641Z" fill="#005DAB"/>
<path d="M131.925 70.1728C131.742 69.9076 131.65 69.7141 131.65 69.5978V69.4219H131.054V69.5978C131.054 69.7141 130.967 69.8995 130.795 70.1512C130.625 70.4015 130.247 70.6206 129.672 70.802L129.629 70.8155L129.96 71.1997L129.978 71.1957C130.2 71.1402 130.469 71.0157 130.779 70.8263C131.063 70.6504 131.258 70.4623 131.358 70.2635C131.46 70.4312 131.65 70.6179 131.924 70.8195C132.228 71.0428 132.5 71.17 132.734 71.1957H132.75L133.08 70.8141L133.034 70.802C132.478 70.6491 132.105 70.438 131.925 70.1742V70.1728Z" fill="#005DAB"/>
<path d="M130.881 69.1272C131.09 69.1015 131.231 69.0798 131.314 69.0636L131.338 69.0582V68.5738L131.301 68.5819C131.209 68.6009 131.057 68.6225 130.846 68.6442C130.633 68.6672 130.461 68.6794 130.334 68.6834L130.007 68.6875V67.0625H129.484V69.18L130.293 69.1746C130.476 69.1678 130.674 69.1516 130.881 69.1259V69.1272Z" fill="#005DAB"/>
<path d="M133.025 66.8516H132.512V69.7836H133.025V66.8516Z" fill="#005DAB"/>
<path d="M137.605 68.8213C137.871 68.7875 138.076 68.7563 138.211 68.7266L138.235 68.7212V68.2571L138.199 68.2652C138.04 68.2977 137.825 68.3301 137.556 68.3613C137.287 68.3937 137.011 68.4127 136.737 68.4194L136.214 68.4235V67.0312H135.688V68.8916L136.733 68.8822C137.043 68.8754 137.337 68.8551 137.605 68.8213Z" fill="#005DAB"/>
<path d="M138.484 69.7718H136.649V69.2969H136.113V71.1383H139.02V69.2969H138.484V69.7718ZM136.649 70.6837V70.225H138.484V70.6837H136.649Z" fill="#005DAB"/>
<path d="M139.019 66.8516H138.492V69.1382H139.019V68.1586H139.6V67.6904H139.019V66.8516Z" fill="#005DAB"/>
<path d="M141.557 69.1179C141.412 68.7689 141.338 68.3738 141.338 67.9435V67.1953H140.788V67.9435C140.788 68.3806 140.713 68.7973 140.562 69.1842C140.414 69.5685 140.158 69.8851 139.805 70.1259L139.77 70.1489L140.2 70.4804L140.219 70.4642C140.41 70.2951 140.591 70.084 140.76 69.8378C140.902 69.6294 141.003 69.4346 141.062 69.2573C141.121 69.4264 141.227 69.6118 141.374 69.8107C141.55 70.0475 141.717 70.2301 141.867 70.3546L141.887 70.3708L142.263 70.0231L142.235 70.0015C141.929 69.7633 141.702 69.4657 141.557 69.1193V69.1179Z" fill="#005DAB"/>
<path d="M142.437 68.3156H141.785V68.8135H142.437V70.9919H142.949V66.9531H142.437V68.3156Z" fill="#005DAB"/>
<path d="M143.817 66.8516H143.305V71.1812H143.817V66.8516Z" fill="#005DAB"/>
<path d="M146.331 69.0857C146.138 68.7488 146.039 68.3131 146.039 67.7909V67.0859H145.49V67.7909C145.49 68.3077 145.394 68.761 145.204 69.1412C145.015 69.5187 144.704 69.8353 144.28 70.0788L144.242 70.1005L144.666 70.4468L144.683 70.436C144.888 70.3156 145.109 70.1126 145.344 69.8326C145.553 69.5823 145.697 69.3468 145.772 69.129C145.882 69.3671 146.039 69.6053 146.241 69.8366C146.464 70.0923 146.671 70.2655 146.853 70.3508L146.874 70.3602L147.224 69.9679L147.193 69.9489C146.814 69.7135 146.523 69.4226 146.33 69.0857H146.331Z" fill="#005DAB"/>
<path d="M147.609 68.2722H146.691V68.7607H147.609V71.1812H148.135V66.8516H147.609V68.2722Z" fill="#005DAB"/>
<path d="M152.472 66.8516H151.945V71.1812H152.472V66.8516Z" fill="#005DAB"/>
<path d="M150.645 68.2478H149.573V67.2344H149.047V70.2881H151.171V67.2344H150.645V68.2478ZM149.573 69.8159V68.7322H150.645V69.8159H149.573Z" fill="#005DAB"/>
<path d="M153.741 69.5322C154.048 69.4375 154.36 69.2616 154.667 69.0099C154.949 68.7786 155.143 68.5377 155.244 68.2955C155.355 68.5161 155.547 68.7488 155.818 68.9896C156.114 69.2548 156.426 69.4375 156.742 69.5322L156.76 69.5376L157.129 69.1358L157.086 69.1209C156.423 68.8855 155.991 68.5878 155.803 68.2374C155.614 67.8842 155.518 67.6068 155.518 67.412V67.0859H154.963V67.412C154.963 67.6068 154.874 67.8829 154.698 68.2306C154.525 68.5756 154.085 68.8746 153.395 69.1209L153.352 69.1358L153.721 69.5376L153.739 69.5322H153.741Z" fill="#005DAB"/>
<path d="M157.323 70.0781H153.164V70.5463H157.323V70.0781Z" fill="#005DAB"/>
<defs>
<linearGradient id="paint0_linear_6726_15991" x1="182.49" y1="144.636" x2="199.478" y2="185.765" gradientUnits="userSpaceOnUse">
<stop stop-color="#FFF2D7"/>
<stop offset="1" stop-color="#FFEBC2"/>
</linearGradient>
<linearGradient id="paint1_linear_6726_15991" x1="122.9" y1="89.7181" x2="130.541" y2="82.3198" gradientUnits="userSpaceOnUse">
<stop offset="0.28" stop-color="#005DAB"/>
<stop offset="0.4" stop-color="#006CB7"/>
<stop offset="0.61" stop-color="#0093D9"/>
<stop offset="0.75" stop-color="#00AFF1"/>
</linearGradient>
</defs>
</svg>
