<svg width="240" height="200" viewBox="0 0 240 200" fill="none" xmlns="http://www.w3.org/2000/svg">
<rect x="0.5" y="0.5" width="239" height="199" rx="11.5" fill="white"/>
<rect x="0.5" y="0.5" width="239" height="199" rx="11.5" stroke="#E4E7EC"/>
<rect x="23" y="119" width="194" height="34" rx="8" fill="#207FFC"/>
<path d="M118.421 134.93H119.914V135.907H118.421V140.967H117.229V131.245H118.421V134.93ZM115.757 133.136H112.405V137.594C113.189 137.594 113.897 137.57 114.527 137.524C115.157 137.477 115.796 137.397 116.444 137.282L116.584 138.292C115.882 138.414 115.188 138.494 114.5 138.534C113.816 138.573 112.989 138.593 112.019 138.593H111.213V132.169H115.757V133.136ZM124.737 131.438C125.45 131.438 126.068 131.514 126.59 131.664C127.117 131.814 127.521 132.033 127.804 132.319C128.091 132.602 128.236 132.939 128.239 133.329C128.236 133.712 128.091 134.043 127.804 134.323C127.521 134.602 127.117 134.815 126.59 134.962C126.068 135.109 125.45 135.18 124.737 135.177C124.032 135.18 123.414 135.109 122.884 134.962C122.358 134.815 121.951 134.602 121.665 134.323C121.379 134.043 121.235 133.712 121.235 133.329C121.235 132.939 121.379 132.602 121.665 132.319C121.951 132.033 122.358 131.814 122.884 131.664C123.414 131.514 124.032 131.438 124.737 131.438ZM124.737 132.373C124.021 132.373 123.464 132.455 123.067 132.62C122.673 132.785 122.478 133.021 122.481 133.329C122.478 133.623 122.673 133.848 123.067 134.006C123.464 134.163 124.021 134.246 124.737 134.253C125.453 134.246 126.01 134.163 126.408 134.006C126.805 133.848 127.004 133.623 127.004 133.329C127.004 133.021 126.805 132.785 126.408 132.62C126.01 132.455 125.453 132.373 124.737 132.373ZM128.1 140.838H121.364V137.572H128.1V140.838ZM122.546 139.871H126.939V138.518H122.546V139.871ZM129.174 136.799H120.322V135.832H129.174V136.799Z" fill="white"/>
<path d="M186.507 171.842L186.246 171.21C183.524 164.621 180.802 158.032 178.069 151.415C177.128 149.136 177.949 146.612 180.331 145.531C181.819 144.853 183.338 145.029 184.69 146.045C185.446 146.632 186.006 147.365 186.342 148.255C187.623 151.358 188.916 154.488 190.198 157.59C190.402 158.084 190.596 158.165 191.09 157.961C193.753 156.861 196.416 155.761 199.079 154.661C202.182 153.379 206.28 154.354 208.537 156.861C209.364 157.773 209.998 158.764 210.447 159.928C211.423 162.29 212.409 164.678 213.384 167.039C214.292 169.236 214.267 171.432 213.558 173.685C212.875 175.767 211.837 177.61 210.438 179.28C209.316 180.611 207.983 181.741 206.465 182.657C205.254 183.382 203.975 183.942 202.662 184.421C199.739 185.435 196.735 185.712 193.668 185.211C190.982 184.778 188.602 183.607 186.244 182.332C184.795 181.548 183.33 180.803 181.866 180.058C179.552 178.893 177.179 177.816 174.833 176.728C172.965 175.861 173.095 173.686 174.464 172.799C176.534 171.43 178.759 170.671 181.248 170.704C183.03 170.739 184.733 171.128 186.518 171.869L186.507 171.842Z" fill="url(#paint0_linear_6726_15863)"/>
<path d="M109.5 50L119.5 60L129.5 50" stroke="#F2F4F7" stroke-width="5" stroke-linecap="round" stroke-linejoin="round"/>
<path d="M109.5 66L119.5 76L129.5 66" stroke="#D0D5DD" stroke-width="5" stroke-linecap="round" stroke-linejoin="round"/>
<path d="M109.5 82L119.5 92L129.5 82" stroke="#667085" stroke-width="5" stroke-linecap="round" stroke-linejoin="round"/>
<defs>
<linearGradient id="paint0_linear_6726_15863" x1="182.49" y1="144.636" x2="199.478" y2="185.765" gradientUnits="userSpaceOnUse">
<stop stop-color="#FFF2D7"/>
<stop offset="1" stop-color="#FFEBC2"/>
</linearGradient>
</defs>
</svg>
