<svg width="240" height="200" viewBox="0 0 240 200" fill="none" xmlns="http://www.w3.org/2000/svg">
<g clip-path="url(#clip0_7935_290147)">
<rect width="240" height="200" rx="12" fill="white"/>
<path d="M50.5 50C50.5 38.1259 60.1259 28.5 72 28.5H169C180.874 28.5 190.5 38.1259 190.5 50V227.5H50.5V50Z" fill="white"/>
<path d="M50.5 50C50.5 38.1259 60.1259 28.5 72 28.5H169C180.874 28.5 190.5 38.1259 190.5 50V227.5H50.5V50Z" stroke="#E4E7EC" stroke-width="5"/>
<path d="M86 29H159V35C159 40.5228 154.523 45 149 45H96C90.4772 45 86 40.5228 86 35V29Z" fill="#E4E7EC"/>
<rect x="13" y="72.9219" width="214" height="56.1538" rx="9.38462" fill="white"/>
<rect x="13" y="72.9219" width="214" height="56.1538" rx="9.38462" stroke="#F2F4F7" stroke-width="2"/>
<path d="M49.384 108.259C49.384 111.321 46.9014 113.804 43.8385 113.804H30.0059C26.9436 113.804 24.4609 111.321 24.4609 108.259V94.4262C24.4609 91.3634 26.9436 88.8809 30.0059 88.8809H43.8391C46.902 88.8809 49.3847 91.3634 49.3847 94.4262V108.259H49.384Z" fill="#FFEB00"/>
<path d="M36.845 93.5723C31.894 93.5723 27.8809 96.7268 27.8809 100.619C27.8809 103.151 29.5811 105.371 32.1335 106.614C31.9456 107.31 31.4544 109.135 31.3563 109.525C31.2343 110.01 31.5344 110.003 31.7313 109.874C31.8856 109.772 34.1875 108.215 35.1809 107.543C35.7206 107.622 36.2763 107.665 36.845 107.665C41.7961 107.665 45.8092 104.51 45.8092 100.619C45.8092 96.7274 41.7961 93.5723 36.845 93.5723Z" fill="#3C1E1E"/>
<path d="M30.5918 99.3213H31.5149C31.5149 99.3213 31.5207 101.841 31.5155 102.428C31.5168 102.857 32.4754 102.863 32.4741 102.435L32.4786 99.3541C32.4786 99.3541 32.7878 99.356 33.3965 99.3566C33.9698 99.3566 33.9704 98.46 33.3965 98.4594C32.7504 98.4594 30.5899 98.4414 30.5899 98.4414C30.0483 98.442 30.0502 99.3213 30.5912 99.3213" fill="#FFEB00"/>
<path d="M35.005 99.484L35.5182 101.083H34.448L35.005 99.484ZM34.4299 98.7343C34.2027 99.2317 33.3829 101.579 33.1105 102.202C32.9136 102.652 33.7624 103.019 33.9593 102.569L34.1439 101.927H35.8326C35.8326 101.927 35.7745 101.954 35.9985 102.542C36.1799 103.018 37.0565 102.688 36.8751 102.212C36.6162 101.531 35.719 99.0815 35.5556 98.7343C35.4808 98.5739 35.2097 98.459 34.9482 98.459C34.7313 98.459 34.5196 98.5379 34.4299 98.7343Z" fill="#FFEB00"/>
<path d="M37.1984 98.882C37.2004 99.6797 37.203 102.252 37.203 102.252C37.203 102.252 37.1287 102.762 37.5696 102.762C38.0105 102.762 38.9884 102.758 39.4222 102.758C39.856 102.758 39.8534 101.841 39.4203 101.841C38.9871 101.841 38.1951 101.836 38.1951 101.836C38.1951 101.836 38.199 99.4577 38.1977 98.88C38.1964 98.6009 37.9479 98.4609 37.6987 98.4609C37.4495 98.4609 37.1984 98.6015 37.1991 98.8826" fill="#FFEB00"/>
<path d="M39.9719 98.7542C39.9816 99.104 39.9609 102.268 39.9609 102.502C39.9609 102.872 40.9085 102.872 40.9085 102.502C40.9085 102.072 40.9085 101.257 40.9085 101.257L41.1868 101.035L42.4029 102.685C42.6488 103.008 43.4228 102.424 43.1769 102.102L41.8852 100.41C41.8852 100.41 42.7618 99.4673 43.1071 99.1259C43.3085 98.9269 42.685 98.3011 42.4829 98.5014C42.2873 98.6939 40.9144 100.061 40.9144 100.061C40.9144 100.061 40.9266 99.2029 40.9144 98.7279C40.9092 98.5476 40.6871 98.4609 40.4599 98.4609C40.2166 98.4609 39.9674 98.5611 39.9726 98.7536" fill="#FFEB00"/>
<path d="M66.8684 86.9971C66.8684 90.8731 65.8036 94.1954 61.0757 96.5522L60.2097 95.3596C62.4316 94.2593 63.752 92.9815 64.4974 91.4552L60.5078 91.8386L60.309 90.4756L64.9801 90.1774C65.1434 89.5811 65.2428 88.9493 65.2924 88.2749H60.9763V86.9971H66.8684ZM70.2474 85.7335V90.7595H72.1499V92.0515H70.2474V98.5399H68.6715V85.7335H70.2474ZM79.4334 86.9971C79.4334 90.8731 78.3685 94.1954 73.6407 96.5522L72.7746 95.3596C74.9966 94.2593 76.317 92.9815 77.0624 91.4552L73.0728 91.8386L72.874 90.4756L77.5451 90.1774C77.7083 89.5811 77.8077 88.9493 77.8574 88.2749H73.5413V86.9971H79.4334ZM82.8124 85.7335V90.7595H84.7149V92.0515H82.8124V98.5399H81.2365V85.7335H82.8124ZM91.1607 86.4576C93.915 86.4576 95.9453 87.8348 95.9453 89.9219C95.9453 91.8457 94.2913 93.1306 91.9416 93.3577V95.7145H97.0527V97.0065H85.3254V95.7145H90.3798V93.3577C88.0443 93.1306 86.3903 91.8457 86.4044 89.9219C86.3903 87.8348 88.4205 86.4576 91.1607 86.4576ZM91.1607 87.7354C89.2866 87.7212 87.9378 88.5731 87.952 89.9219C87.9378 91.3133 89.2866 92.1367 91.1607 92.1367C93.0632 92.1367 94.3978 91.3133 94.3978 89.9219C94.3978 88.5731 93.0632 87.7212 91.1607 87.7354ZM102.732 89.3824C102.732 91.4836 103.967 93.6985 106.04 94.5645L105.174 95.8139C103.655 95.1608 102.547 93.812 101.965 92.1793C101.369 93.9398 100.247 95.4164 98.7423 96.1263L97.8336 94.8911C99.8639 93.954 101.127 91.5688 101.127 89.3824V88.3033H98.3021V86.9971H105.543V88.3033H102.732V89.3824ZM108.567 85.7335V98.5683H106.977V85.7335H108.567ZM120.578 85.7335V88.6157H122.367V89.9077H120.578V92.6904H118.974V85.7335H120.578ZM117.043 86.4576C117.043 89.7941 114.871 91.9521 111.009 92.8466L110.427 91.5688C113.472 90.9015 115.063 89.4604 115.283 87.7212H111.052V86.4576H117.043ZM113.834 93.2157V94.5929H119.002V93.2157H120.578V98.4121H112.244V93.2157H113.834ZM113.834 97.1343H119.002V95.8281H113.834V97.1343Z" fill="black"/>
<path d="M69.714 106.475V114.422H68.351V106.475H69.714ZM70.0183 116.15V117.245H62.4367V113.618H63.7997V116.15H70.0183ZM63.7145 107.193C65.3817 107.193 66.6717 108.349 66.6717 109.943C66.6717 111.574 65.3817 112.706 63.7145 112.706C62.0351 112.706 60.7451 111.574 60.7451 109.943C60.7451 108.349 62.0351 107.193 63.7145 107.193ZM63.7145 108.373C62.7774 108.373 62.0594 108.994 62.0716 109.943C62.0594 110.917 62.7774 111.525 63.7145 111.525C64.6272 111.525 65.3452 110.917 65.3452 109.943C65.3452 108.994 64.6272 108.373 63.7145 108.373ZM81.348 111.586V112.681H71.3204V111.586H81.348ZM76.322 113.412C78.6951 113.412 80.1189 114.154 80.1311 115.432C80.1189 116.722 78.6951 117.452 76.322 117.452C73.9247 117.452 72.4887 116.722 72.4887 115.432C72.4887 114.154 73.9247 113.412 76.322 113.412ZM76.322 114.47C74.7157 114.47 73.8516 114.799 73.8638 115.432C73.8516 116.064 74.7157 116.393 76.322 116.393C77.8919 116.393 78.7681 116.064 78.7803 115.432C78.7681 114.799 77.8919 114.47 76.322 114.47ZM80.4475 106.986V108.093H77.2713C77.4721 109.006 78.7924 109.828 80.8734 110.028L80.3988 111.099C78.403 110.886 76.9183 110.101 76.322 108.982C75.7257 110.095 74.2654 110.886 72.2696 111.099L71.8072 110.028C73.8456 109.828 75.172 109.006 75.385 108.093H72.2331V106.986H80.4475ZM92.1424 115.018V116.125H82.0904V115.018H84.4147V112.231C83.5385 111.732 83.0092 110.947 83.0153 109.968C83.0031 108.215 84.7311 107.059 87.092 107.059C89.4651 107.059 91.1931 108.215 91.1931 109.968C91.1931 110.929 90.682 111.702 89.8302 112.207V115.018H92.1424ZM87.092 108.13C85.4491 108.13 84.3296 108.824 84.3417 109.968C84.3296 111.099 85.4491 111.805 87.092 111.805C88.7349 111.805 89.8667 111.099 89.8667 109.968C89.8667 108.824 88.7349 108.13 87.092 108.13ZM85.7534 115.018H88.455V112.718C88.0352 112.815 87.5788 112.864 87.092 112.864C86.6174 112.864 86.1671 112.815 85.7534 112.73V115.018ZM96.8154 108.811C96.8154 110.016 97.7525 111.209 99.4805 111.671L98.8477 112.718C97.576 112.371 96.6633 111.629 96.1583 110.673C95.6837 111.756 94.7649 112.608 93.4567 112.998L92.8238 111.951C94.5397 111.428 95.4646 110.138 95.4646 108.811V108.751H93.1646V107.68H95.4646V106.414H96.8276V107.68H99.1155V108.751H96.8154V108.811ZM102.073 106.463V113.119H100.722V110.576H98.7869V109.481H100.722V106.463H102.073ZM98.3488 113.338C100.673 113.338 102.109 114.081 102.109 115.383C102.109 116.697 100.673 117.452 98.3488 117.452C96.0366 117.452 94.6006 116.697 94.6128 115.383C94.6006 114.081 96.0366 113.338 98.3488 113.338ZM98.3488 114.373C96.8154 114.385 95.9514 114.726 95.9514 115.383C95.9514 116.04 96.8154 116.405 98.3488 116.405C99.9065 116.405 100.758 116.04 100.758 115.383C100.758 114.726 99.9065 114.385 98.3488 114.373ZM112.782 106.463V117.476H111.419V106.463H112.782ZM106.855 107.266C108.51 107.266 109.715 108.775 109.727 111.148C109.715 113.545 108.51 115.042 106.855 115.042C105.188 115.042 103.983 113.545 103.983 111.148C103.983 108.775 105.188 107.266 106.855 107.266ZM106.855 108.483C105.918 108.483 105.285 109.469 105.285 111.148C105.285 112.84 105.918 113.825 106.855 113.825C107.78 113.825 108.413 112.84 108.413 111.148C108.413 109.469 107.78 108.483 106.855 108.483ZM126.29 111.464V112.535H123.028V115.054H127.409V116.162H117.357V115.054H121.69V112.535H118.574V107.278H126.205V108.361H119.925V111.464H126.29ZM132.083 108.848C132.083 110.053 132.971 111.258 134.711 111.732L134.078 112.815C132.819 112.45 131.918 111.683 131.425 110.722C130.939 111.781 130.026 112.608 128.736 112.998L128.079 111.939C129.807 111.44 130.732 110.162 130.732 108.848V108.763H128.432V107.692H130.732V106.426H132.095V107.692H134.383V108.763H132.083V108.848ZM136.804 106.463V109.25H138.338V110.393H136.804V113.192H135.454V106.463H136.804ZM136.804 113.691V117.476H135.454V114.774H129.478V113.691H136.804ZM148.304 106.475V113.253H147.015V110.466H145.968V113.119H144.702V106.633H145.968V109.359H147.015V106.475H148.304ZM144.313 107.595V108.665H138.837V107.595H140.918V106.524H142.256V107.595H144.313ZM141.587 109.079C142.986 109.091 143.972 109.846 143.984 110.99C143.972 112.122 142.986 112.9 141.587 112.9C140.212 112.9 139.214 112.122 139.226 110.99C139.214 109.846 140.212 109.091 141.587 109.079ZM141.587 110.065C140.905 110.065 140.431 110.393 140.431 110.99C140.431 111.562 140.893 111.915 141.587 111.915C142.281 111.915 142.755 111.562 142.755 110.99C142.755 110.393 142.281 110.065 141.587 110.065ZM142.999 113.862C142.999 114.714 143.406 115.59 144.325 116.137C145.256 115.553 145.688 114.628 145.7 113.862V113.594H147.039V113.862C147.039 114.908 147.732 115.918 149.168 116.308L148.536 117.33C147.459 116.989 146.741 116.308 146.357 115.456C146.011 116.296 145.366 117.044 144.349 117.427C143.315 117.062 142.664 116.357 142.317 115.517C141.915 116.32 141.197 116.983 140.175 117.33L139.542 116.308C140.954 115.882 141.66 114.848 141.66 113.862V113.594H142.999V113.862ZM152.211 113.059V114.105H157.054V113.059H158.405V117.33H150.872V113.059H152.211ZM152.211 116.259H157.054V115.14H152.211V116.259ZM159.695 111.331V112.438H149.667V111.331H159.695ZM155.375 106.998C155.375 108.179 156.884 109.42 159.16 109.688L158.685 110.759C156.841 110.509 155.387 109.694 154.681 108.58C153.969 109.7 152.509 110.509 150.678 110.759L150.179 109.688C152.479 109.408 153.975 108.215 153.988 106.998V106.584H155.375V106.998ZM169.613 106.463V117.464H168.275V106.463H169.613ZM162.409 107.534V113.545C163.954 113.521 165.597 113.381 167.289 113.046L167.459 114.178C165.524 114.58 163.723 114.701 162.019 114.701H161.07V107.534H162.409ZM179.823 106.463V110.637H181.515V111.744H179.823V117.476H178.473V106.463H179.823ZM176.805 107.509V108.605H173.008V113.655C174.718 113.655 176.069 113.57 177.584 113.302L177.742 114.446C176.039 114.738 174.554 114.787 172.57 114.787H171.658V107.509H176.805ZM183.316 116.478C182.793 116.478 182.367 116.052 182.367 115.529C182.367 115.018 182.793 114.592 183.316 114.592C183.815 114.592 184.253 115.018 184.253 115.529C184.253 116.052 183.815 116.478 183.316 116.478Z" fill="#475467"/>
<path d="M202.734 86.5678C202.734 88.0687 203.617 89.6507 205.097 90.2693L204.479 91.1617C203.393 90.6952 202.602 89.7318 202.187 88.5656C201.761 89.8231 200.96 90.8778 199.885 91.3848L199.236 90.5026C200.686 89.8332 201.588 88.1295 201.588 86.5678V85.797H199.57V84.864H204.742V85.797H202.734V86.5678ZM206.902 83.9615V93.1291H205.767V83.9615H206.902ZM215.604 84.4077V85.1176C215.604 85.8274 215.604 86.6387 215.38 87.7239H216.628V88.6366H208.251V87.7239H214.245C214.458 86.7351 214.478 85.9796 214.478 85.3102H209.286V84.4077H215.604ZM215.593 89.7014V93.0176H209.255V89.7014H215.593ZM210.361 90.5837V92.1049H214.478V90.5837H210.361Z" fill="#D0D5DD"/>
<path d="M200.507 144.842L200.246 144.21C197.524 137.621 194.802 131.032 192.069 124.415C191.128 122.136 191.949 119.612 194.331 118.531C195.819 117.853 197.338 118.029 198.69 119.045C199.446 119.632 200.006 120.365 200.342 121.255C201.623 124.358 202.916 127.488 204.198 130.59C204.402 131.084 204.596 131.165 205.09 130.961C207.753 129.861 210.416 128.761 213.079 127.661C216.182 126.379 220.28 127.354 222.537 129.861C223.364 130.773 223.998 131.764 224.447 132.928C225.423 135.29 226.409 137.678 227.384 140.039C228.292 142.236 228.267 144.432 227.558 146.685C226.875 148.767 225.837 150.61 224.438 152.28C223.316 153.611 221.983 154.741 220.465 155.657C219.254 156.382 217.975 156.942 216.662 157.421C213.739 158.435 210.735 158.712 207.668 158.211C204.982 157.778 202.602 156.607 200.244 155.332C198.795 154.548 197.33 153.803 195.866 153.058C193.552 151.893 191.179 150.816 188.833 149.728C186.965 148.861 187.095 146.686 188.464 145.799C190.534 144.43 192.759 143.671 195.248 143.704C197.03 143.739 198.733 144.128 200.518 144.869L200.507 144.842Z" fill="url(#paint0_linear_7935_290147)"/>
</g>
<rect x="0.5" y="0.5" width="239" height="199" rx="11.5" stroke="#E4E7EC"/>
<defs>
<linearGradient id="paint0_linear_7935_290147" x1="196.49" y1="117.636" x2="213.478" y2="158.765" gradientUnits="userSpaceOnUse">
<stop stop-color="#FFF2D7"/>
<stop offset="1" stop-color="#FFEBC2"/>
</linearGradient>
<clipPath id="clip0_7935_290147">
<rect width="240" height="200" rx="12" fill="white"/>
</clipPath>
</defs>
</svg>
