<svg width="408" height="428" viewBox="0 0 408 428" fill="none" xmlns="http://www.w3.org/2000/svg">
<g filter="url(#filter0_d_4402_85199)">
<rect x="24" width="360" height="380" rx="24" fill="url(#paint0_linear_4402_85199)"/>
<rect x="26.25" y="2.25" width="355.5" height="375.5" rx="21.75" stroke="url(#paint1_linear_4402_85199)" stroke-opacity="0.4" stroke-width="4.5"/>
<rect x="64" y="40" width="65" height="38" rx="19" fill="#0C4DB9"/>
<path d="M85.7312 66L86.3025 62.5532H83.5793L83.0081 66H80.8752L81.4465 62.5532H79.5422L79.9041 60.4395H81.7893L82.2273 57.7734H80.342L80.6848 55.6406H82.5891L83.1414 52.2129H85.2742L84.7219 55.6406H87.426L87.9783 52.2129H90.1111L89.5588 55.6406H91.4441L91.0823 57.7734H89.197L88.759 60.4395H90.6633L90.3015 62.5532H88.4163L87.845 66H85.7312ZM83.9221 60.4395H86.6453L87.0833 57.7734H84.3601L83.9221 60.4395ZM98.0139 66.1904C94.5671 66.1904 92.4724 63.6196 92.4724 59.1064C92.4724 54.5933 94.5671 52.0225 98.0139 52.0225C101.461 52.0225 103.555 54.6123 103.555 59.1064C103.555 63.6387 101.461 66.1904 98.0139 66.1904ZM98.0139 63.8291C99.6135 63.8291 100.642 62.2866 100.623 59.1064C100.623 55.9644 99.6135 54.3647 98.0139 54.3647C96.4143 54.3647 95.405 55.9644 95.405 59.1064C95.386 62.2866 96.4143 63.8291 98.0139 63.8291ZM111.477 52.2129V66H108.602V54.936H108.526L105.365 56.9165V54.3838L108.773 52.2129H111.477Z" fill="white"/>
<path d="M83.2305 111.473V115.059H76.8672C76.9902 118.258 79.3105 121.598 84.1797 123.004L82.1055 126.555C78.502 125.518 76.0234 123.391 74.6172 120.719C73.1582 123.672 70.5566 126.098 66.8477 127.223L64.668 123.742C69.6777 122.143 72.1738 118.451 72.3672 115.059H65.8984V111.473H83.2305ZM91.9141 110.242V126.52H87.4492V120.367H82.4219V116.816H87.4492V110.242H91.9141ZM91.9141 127.75V136.398H75.1445V138.437H92.8633V141.918H70.6445V133.129H87.4492V131.301H70.6094V127.75H91.9141ZM106.328 118.293C106.328 123.461 107.77 128.805 112.129 131.617L109.703 135.098C106.943 133.428 105.186 130.686 104.184 127.398C103.023 131.02 101.107 134.043 98.207 135.801L95.4648 132.496C100.211 129.543 101.969 123.918 101.969 118.504V112.984H106.328V118.293ZM123.801 110.242V142.234H119.512V110.242H123.801ZM117.086 110.699V140.758H112.902V124.691H108.754V121.035H112.902V110.699H117.086ZM147.145 115.27C147.145 119.137 149.395 122.863 154.457 124.445L152.066 127.926C148.674 126.801 146.301 124.621 144.93 121.809C143.541 125.043 141.063 127.574 137.406 128.805L134.98 125.289C140.324 123.496 142.609 119.242 142.645 114.848V111.93H147.145V115.27ZM160.855 110.242V117.73H165.18V121.457H160.855V129.227H156.355V110.242H160.855ZM150.379 129.859C156.988 129.859 161.172 132.145 161.172 136.047C161.172 139.984 156.988 142.234 150.379 142.234C143.629 142.234 139.41 139.984 139.41 136.047C139.41 132.145 143.629 129.859 150.379 129.859ZM150.379 133.375C146.16 133.375 143.875 134.289 143.91 136.047C143.875 137.875 146.16 138.719 150.379 138.719C154.527 138.719 156.742 137.875 156.742 136.047C156.742 134.289 154.527 133.375 150.379 133.375ZM191.969 110.242V117.449H196.293V121.141H191.969V128.207H187.469V110.242H191.969ZM182.09 112.246V115.797H172.316V123.426C178.1 123.391 181.281 123.18 184.867 122.441L185.324 125.957C181.316 126.871 177.625 127.012 170.523 127.012H167.816V112.246H182.09ZM191.969 129.543V141.848H171.051V129.543H191.969ZM175.48 133.094V138.332H187.539V133.094H175.48ZM217.809 118.961C217.773 123.848 220.375 129.473 225.648 131.898L223.152 135.414C219.584 133.779 217.035 130.51 215.629 126.66C214.188 130.896 211.568 134.482 207.859 136.223L205.258 132.672C210.602 130.176 213.273 124.234 213.309 118.961V116.992H206.523V113.336H224.242V116.992H217.809V118.961ZM231.238 110.242V122.441H235.949V126.203H231.238V142.234H226.738V110.242H231.238ZM266.395 134.992V138.684H237.109V134.992H244.598V130.105H240.484V119.348H258.59V115.902H240.449V112.316H263.02V122.934H244.984V126.484H263.758V130.105H259.223V134.992H266.395ZM248.957 134.992H254.828V130.105H248.957V134.992ZM76.9727 161.547V187H71.6641V166.574H71.5234L65.6875 170.23V165.555L71.9805 161.547H76.9727ZM111.074 174.66V178.176H99.0156V183.344H94.5859V178.176H81.7891V174.66H111.074ZM107.84 186.086V189.672H85.2344V180.812H89.6641V186.086H107.84ZM89.9805 159.262V162.602H102.813V159.262H107.277V172.41H85.5508V159.262H89.9805ZM89.9805 168.859H102.813V165.941H89.9805V168.859ZM129.25 160.879V176.242H113.887V160.879H129.25ZM118.316 164.465V172.727H124.82V164.465H118.316ZM138.32 158.242V167.453H142.645V171.145H138.32V181.586H133.82V158.242H138.32ZM139.48 186.086V189.672H117.578V179.301H122.043V186.086H139.48ZM171.789 158.242V190.234H167.5V158.242H171.789ZM165.109 158.699V188.758H160.891V173.641H158.324C157.902 179.934 155.23 183.73 151.293 183.73C147.074 183.73 144.332 179.301 144.332 172.094C144.332 164.922 147.074 160.527 151.293 160.527C155.143 160.527 157.779 164.113 158.289 170.09H160.891V158.699H165.109ZM151.293 164.746C149.5 164.746 148.445 167.207 148.48 172.094C148.445 177.016 149.5 179.441 151.293 179.406C153.121 179.441 154.211 177.016 154.211 172.094C154.211 167.207 153.121 164.746 151.293 164.746ZM210.426 158.277V181.621H205.961V170.16H200.723V166.539H205.961V158.277H210.426ZM211.199 186.086V189.672H189.191V179.582H193.691V186.086H211.199ZM195.555 164.535C195.555 168.227 197.805 172.199 202.902 173.852L200.688 177.402C197.137 176.26 194.711 173.922 193.305 171.004C191.898 174.238 189.35 176.805 185.57 178.07L183.285 174.414C188.559 172.762 190.949 168.578 190.984 164.5V164.008H184.551V160.422H201.918V164.008H195.555V164.535ZM230.078 159.895V163.445H220.164V169.914C225.736 169.896 229.094 169.65 232.855 168.859L233.313 172.34C229.164 173.289 225.262 173.43 218.371 173.395H215.699V159.895H230.078ZM239.957 158.242V164.289H244.281V167.945H239.957V174.168H235.457V158.242H239.957ZM239.957 175.469V184.293H223.188V186.297H240.871V189.883H218.793V180.918H235.492V179.02H218.723V175.469H239.957ZM252.965 161.547L252.508 179.371H248.008L247.551 161.547H252.965ZM250.293 187.316C248.641 187.316 247.305 185.98 247.34 184.363C247.305 182.746 248.641 181.445 250.293 181.445C251.84 181.445 253.211 182.746 253.211 184.363C253.211 185.98 251.84 187.316 250.293 187.316Z" fill="white"/>
<path d="M70.3105 292.135C70.3105 294.068 71.4355 295.932 73.9668 296.723L72.7715 298.463C71.0752 297.9 69.8887 296.811 69.2031 295.404C68.5088 297.021 67.2695 298.287 65.4414 298.902L64.2285 297.145C66.9004 296.248 68.043 294.121 68.0605 291.924V290.465H70.3105V292.135ZM77.166 289.621V293.365H79.3281V295.229H77.166V299.113H74.916V289.621H77.166ZM71.9277 299.43C75.2324 299.43 77.3242 300.572 77.3242 302.523C77.3242 304.492 75.2324 305.617 71.9277 305.617C68.5527 305.617 66.4434 304.492 66.4434 302.523C66.4434 300.572 68.5527 299.43 71.9277 299.43ZM71.9277 301.188C69.8184 301.188 68.6758 301.645 68.6934 302.523C68.6758 303.438 69.8184 303.859 71.9277 303.859C74.002 303.859 75.1094 303.438 75.1094 302.523C75.1094 301.645 74.002 301.188 71.9277 301.188ZM92.7227 289.621V293.225H94.8848V295.07H92.7227V298.604H90.4727V289.621H92.7227ZM87.7832 290.623V292.398H82.8965V296.213C85.7881 296.195 87.3789 296.09 89.1719 295.721L89.4004 297.479C87.3965 297.936 85.5508 298.006 82 298.006H80.6465V290.623H87.7832ZM92.7227 299.271V305.424H82.2637V299.271H92.7227ZM84.4785 301.047V303.666H90.5078V301.047H84.4785ZM109.457 289.621V305.617H107.312V289.621H109.457ZM106.117 289.85V304.879H104.008V297.32H102.725C102.514 300.467 101.178 302.365 99.209 302.365C97.0996 302.365 95.7285 300.15 95.7285 296.547C95.7285 292.961 97.0996 290.764 99.209 290.764C101.134 290.764 102.452 292.557 102.707 295.545H104.008V289.85H106.117ZM99.209 292.873C98.3125 292.873 97.7852 294.104 97.8027 296.547C97.7852 299.008 98.3125 300.221 99.209 300.203C100.123 300.221 100.668 299.008 100.668 296.547C100.668 294.104 100.123 292.873 99.209 292.873ZM128.723 289.621V297.83H126.473V289.621H128.723ZM128.723 298.463V302.734H120.092V303.736H129.162V305.512H117.877V301.135H126.508V300.203H117.842V298.463H128.723ZM124.68 290.605V292.311H123.361V295.492C124.021 295.448 124.671 295.387 125.295 295.316L125.4 296.916C122.219 297.426 118.58 297.514 115.803 297.514L115.557 295.756L117.279 295.738V292.311H115.979V290.605H124.68ZM119.424 295.686L121.199 295.633V292.311H119.424V295.686ZM145.492 301.908V303.754H130.85V301.908H134.119V297.988C132.88 297.25 132.133 296.116 132.133 294.701C132.133 292.117 134.664 290.395 138.145 290.395C141.607 290.395 144.156 292.117 144.174 294.701C144.165 296.081 143.436 297.206 142.24 297.953V301.908H145.492ZM138.145 292.17C135.859 292.17 134.348 293.084 134.348 294.701C134.348 296.266 135.859 297.232 138.145 297.232C140.412 297.232 141.941 296.266 141.959 294.701C141.941 293.084 140.412 292.17 138.145 292.17ZM136.334 301.908H139.973V298.797C139.401 298.911 138.786 298.973 138.145 298.973C137.503 298.973 136.896 298.92 136.334 298.797V301.908ZM159.098 289.639V294.543H161.26V296.371H159.098V301.574H156.848V289.639H159.098ZM155.898 291.309V293.084H146.406V291.309H150.045V289.604H152.277V291.309H155.898ZM151.152 293.646C153.473 293.646 155.09 294.895 155.09 296.74C155.09 298.586 153.473 299.799 151.152 299.799C148.814 299.799 147.18 298.586 147.18 296.74C147.18 294.895 148.814 293.646 151.152 293.646ZM151.152 295.352C150.08 295.369 149.359 295.861 149.377 296.74C149.359 297.619 150.08 298.094 151.152 298.094C152.225 298.094 152.963 297.619 152.963 296.74C152.963 295.861 152.225 295.369 151.152 295.352ZM159.678 303.543V305.336H148.727V300.66H150.959V303.543H159.678ZM167.869 293.98C167.852 296.424 169.152 299.236 171.789 300.449L170.541 302.207C168.757 301.39 167.482 299.755 166.779 297.83C166.059 299.948 164.749 301.741 162.895 302.611L161.594 300.836C164.266 299.588 165.602 296.617 165.619 293.98V292.996H162.227V291.168H171.086V292.996H167.869V293.98ZM174.584 289.621V295.721H176.939V297.602H174.584V305.617H172.334V289.621H174.584ZM192.162 301.996V303.842H177.52V301.996H181.264V299.553H179.207V294.174H188.26V292.451H179.189V290.658H190.475V295.967H181.457V297.742H190.844V299.553H188.576V301.996H192.162ZM183.443 301.996H186.379V299.553H183.443V301.996ZM201.232 290.939V298.621H193.551V290.939H201.232ZM195.766 292.732V296.863H199.018V292.732H195.766ZM205.768 289.621V294.227H207.93V296.072H205.768V301.293H203.518V289.621H205.768ZM206.348 303.543V305.336H195.396V300.15H197.629V303.543H206.348ZM77.166 317.621V322.104H79.3281V323.949H77.166V329.082H74.8984V317.621H77.166ZM72.8066 318.816C72.8066 323.141 70.0996 326.164 65.3008 327.518L64.3691 325.742C67.9463 324.74 69.9766 322.886 70.3457 320.645H65.0723V318.816H72.8066ZM77.7109 331.543V333.336H66.7598V327.904H69.0273V331.543H77.7109ZM92.7227 317.621V321.98H94.8848V323.826H92.7227V329.188H90.4727V317.621H92.7227ZM87.8711 318.904V320.697H82.8965V324.74C85.7881 324.723 87.3789 324.635 89.1719 324.248L89.4004 326.041C87.3965 326.463 85.5508 326.551 82 326.551H80.6465V318.904H87.8711ZM93.3027 331.543V333.336H82.3516V327.957H84.584V331.543H93.3027ZM108.279 317.639V322.543H110.441V324.371H108.279V329.574H106.029V317.639H108.279ZM105.08 319.309V321.084H95.5879V319.309H99.2266V317.604H101.459V319.309H105.08ZM100.334 321.646C102.654 321.646 104.271 322.895 104.271 324.74C104.271 326.586 102.654 327.799 100.334 327.799C97.9961 327.799 96.3613 326.586 96.3613 324.74C96.3613 322.895 97.9961 321.646 100.334 321.646ZM100.334 323.352C99.2617 323.369 98.541 323.861 98.5586 324.74C98.541 325.619 99.2617 326.094 100.334 326.094C101.406 326.094 102.145 325.619 102.145 324.74C102.145 323.861 101.406 323.369 100.334 323.352ZM108.859 331.543V333.336H97.9082V328.66H100.141V331.543H108.859ZM128.688 317.639V329.135H126.438V317.639H128.688ZM129.109 331.543V333.336H117.965V327.975H120.232V331.543H129.109ZM119.916 318.658C122.377 318.658 124.293 320.346 124.293 322.684C124.293 325.074 122.377 326.744 119.916 326.744C117.455 326.744 115.539 325.074 115.539 322.684C115.539 320.346 117.455 318.658 119.916 318.658ZM119.916 320.609C118.668 320.592 117.719 321.383 117.736 322.684C117.719 324.02 118.668 324.793 119.916 324.793C121.129 324.793 122.078 324.02 122.078 322.684C122.078 321.383 121.129 320.592 119.916 320.609ZM145.439 324.986V326.797H130.85V324.986H145.439ZM138.127 327.693C141.59 327.693 143.682 328.783 143.699 330.664C143.682 332.562 141.59 333.617 138.127 333.617C134.629 333.617 132.52 332.562 132.52 330.664C132.52 328.783 134.629 327.693 138.127 327.693ZM138.127 329.434C135.912 329.434 134.787 329.82 134.805 330.664C134.787 331.49 135.912 331.877 138.127 331.877C140.289 331.877 141.432 331.49 141.449 330.664C141.432 329.82 140.289 329.434 138.127 329.434ZM144.121 318.359V320.152H139.762C140.122 321.269 141.748 322.376 144.824 322.648L144.033 324.406C141.019 324.116 138.979 322.974 138.127 321.418C137.283 322.974 135.279 324.116 132.238 324.406L131.5 322.648C134.506 322.376 136.149 321.277 136.527 320.152H132.186V318.359H144.121ZM154.562 318.939V326.621H146.881V318.939H154.562ZM149.096 320.732V324.863H152.348V320.732H149.096ZM159.098 317.621V322.227H161.26V324.072H159.098V329.293H156.848V317.621H159.098ZM159.678 331.543V333.336H148.727V328.15H150.959V331.543H159.678ZM169.258 318.43C172.633 318.447 175.27 320.258 175.287 323.035C175.27 325.83 172.633 327.658 169.258 327.641C165.865 327.658 163.246 325.83 163.246 323.035C163.246 320.258 165.865 318.447 169.258 318.43ZM169.258 320.258C167.043 320.24 165.426 321.312 165.426 323.035C165.426 324.775 167.043 325.812 169.258 325.812C171.473 325.812 173.055 324.775 173.072 323.035C173.055 321.312 171.473 320.24 169.258 320.258ZM176.605 329.855V331.666H161.963V329.855H176.605ZM192.162 329.996V331.842H177.52V329.996H183.689V327.588H179.207V322.209H188.26V320.451H179.189V318.658H190.475V323.967H181.457V325.76H190.844V327.588H185.922V329.996H192.162ZM203.131 321.98C203.113 324.424 204.414 327.236 207.051 328.449L205.803 330.207C204.019 329.39 202.744 327.755 202.041 325.83C201.32 327.948 200.011 329.741 198.156 330.611L196.855 328.836C199.527 327.588 200.863 324.617 200.881 321.98V320.996H197.488V319.168H206.348V320.996H203.131V321.98ZM209.846 317.621V323.721H212.201V325.602H209.846V333.617H207.596V317.621H209.846ZM227.406 325.18V326.938H212.781V325.18H219.004V323.809H214.557V318.324H225.648V320.064H216.789V322.051H225.736V323.809H221.201V325.18H227.406ZM220.059 327.746C223.521 327.746 225.613 328.801 225.631 330.699C225.613 332.562 223.521 333.635 220.059 333.635C216.561 333.635 214.451 332.562 214.451 330.699C214.451 328.801 216.561 327.746 220.059 327.746ZM220.059 329.451C217.844 329.451 216.719 329.873 216.736 330.699C216.719 331.543 217.844 331.93 220.059 331.93C222.221 331.93 223.363 331.543 223.381 330.699C223.363 329.873 222.221 329.451 220.059 329.451ZM242.98 329.943V331.754H228.338V329.943H234.525V326.375H236.775V329.943H242.98ZM241.697 318.834V320.645H236.828C237.013 322.754 238.999 324.714 242.436 325.215L241.557 326.99C238.753 326.498 236.679 325.127 235.65 323.229C234.631 325.162 232.574 326.568 229.814 327.078L228.936 325.303C232.258 324.767 234.253 322.763 234.438 320.645H229.551V318.834H241.697ZM257.342 317.621V333.617H255.109V317.621H257.342ZM243.965 329.1C245.187 329.091 246.584 329.091 248.043 329.047V327.693C246.285 327.386 245.143 326.296 245.16 324.793C245.143 323 246.777 321.787 249.133 321.787C251.506 321.787 253.158 323 253.158 324.793C253.158 326.287 252.016 327.377 250.258 327.693V328.977C251.594 328.915 252.947 328.81 254.23 328.643L254.389 330.295C250.891 330.893 247.111 330.928 244.264 330.928L243.965 329.1ZM254.002 319.396V321.154H244.281V319.396H248.043V317.691H250.275V319.396H254.002ZM249.133 323.492C248.043 323.492 247.27 323.967 247.287 324.793C247.27 325.637 248.043 326.094 249.133 326.094C250.258 326.094 251.014 325.637 251.014 324.793C251.014 323.967 250.258 323.492 249.133 323.492ZM272.143 317.621V321.471H274.305V323.334H272.143V326.99H269.893V317.621H272.143ZM263.898 327.605V328.818H269.893V327.605H272.143V333.441H261.666V327.605H263.898ZM263.898 331.684H269.893V330.541H263.898V331.684ZM268.943 319.027V320.785H259.451V319.027H263.09V317.516H265.322V319.027H268.943ZM264.197 321.242C266.518 321.242 268.135 322.367 268.135 324.072C268.135 325.777 266.518 326.902 264.197 326.902C261.842 326.902 260.225 325.777 260.225 324.072C260.225 322.367 261.842 321.242 264.197 321.242ZM264.197 322.895C263.125 322.877 262.404 323.316 262.422 324.072C262.404 324.846 263.125 325.268 264.197 325.268C265.27 325.268 266.008 324.846 266.008 324.072C266.008 323.316 265.27 322.877 264.197 322.895ZM288.455 317.621V333.617H286.223V317.621H288.455ZM278.084 319.15V327.746C280.246 327.72 282.566 327.518 284.922 327.061L285.203 328.906C282.391 329.486 279.754 329.68 277.275 329.662H275.869V319.15H278.084ZM303.186 317.621V323.562H305.541V325.391H303.186V333.652H300.936V317.621H303.186ZM298.703 319.098V320.908H293.43V327.922C295.75 327.896 297.666 327.79 299.793 327.412L300.039 329.293C297.561 329.715 295.381 329.785 292.551 329.768H291.197V319.098H298.703ZM308.195 332.158C307.369 332.158 306.701 331.49 306.719 330.682C306.701 329.873 307.369 329.223 308.195 329.223C308.969 329.223 309.654 329.873 309.654 330.682C309.654 331.49 308.969 332.158 308.195 332.158Z" fill="white"/>
</g>
<defs>
<filter id="filter0_d_4402_85199" x="-1.90735e-06" y="0" width="408" height="428" filterUnits="userSpaceOnUse" color-interpolation-filters="sRGB">
<feFlood flood-opacity="0" result="BackgroundImageFix"/>
<feColorMatrix in="SourceAlpha" type="matrix" values="0 0 0 0 0 0 0 0 0 0 0 0 0 0 0 0 0 0 127 0" result="hardAlpha"/>
<feOffset dy="24"/>
<feGaussianBlur stdDeviation="12"/>
<feComposite in2="hardAlpha" operator="out"/>
<feColorMatrix type="matrix" values="0 0 0 0 0.431373 0 0 0 0 0.443137 0 0 0 0 0.984314 0 0 0 0.24 0"/>
<feBlend mode="normal" in2="BackgroundImageFix" result="effect1_dropShadow_4402_85199"/>
<feBlend mode="normal" in="SourceGraphic" in2="effect1_dropShadow_4402_85199" result="shape"/>
</filter>
<linearGradient id="paint0_linear_4402_85199" x1="24" y1="0" x2="459.238" y2="158.329" gradientUnits="userSpaceOnUse">
<stop stop-color="#2E78F2"/>
<stop offset="1" stop-color="#826EFD"/>
</linearGradient>
<linearGradient id="paint1_linear_4402_85199" x1="24" y1="9.65447" x2="460.284" y2="162.17" gradientUnits="userSpaceOnUse">
<stop stop-color="white"/>
<stop offset="0.505" stop-color="#439CEF"/>
<stop offset="1" stop-color="white"/>
</linearGradient>
</defs>
</svg>
