<svg width="408" height="428" viewBox="0 0 408 428" fill="none" xmlns="http://www.w3.org/2000/svg">
<g filter="url(#filter0_d_4402_85204)">
<rect x="24" width="360" height="380" rx="24" fill="url(#paint0_linear_4402_85204)"/>
<rect x="26.25" y="2.25" width="355.5" height="375.5" rx="21.75" stroke="url(#paint1_linear_4402_85204)" stroke-opacity="0.4" stroke-width="4.5"/>
<rect x="64" y="40" width="67" height="38" rx="19" fill="#BC0E66"/>
<path d="M85.3506 66L85.9219 62.5532H83.1987L82.6274 66H80.4946L81.0659 62.5532H79.1616L79.5234 60.4395H81.4087L81.8467 57.7734H79.9614L80.3042 55.6406H82.2085L82.7607 52.2129H84.8936L84.3413 55.6406H87.0454L87.5977 52.2129H89.7305L89.1782 55.6406H91.0635L90.7017 57.7734H88.8164L88.3784 60.4395H90.2827L89.9209 62.5532H88.0356L87.4644 66H85.3506ZM83.5415 60.4395H86.2646L86.7026 57.7734H83.9795L83.5415 60.4395ZM97.6333 66.1904C94.1865 66.1904 92.0918 63.6196 92.0918 59.1064C92.0918 54.5933 94.1865 52.0225 97.6333 52.0225C101.08 52.0225 103.175 54.6123 103.175 59.1064C103.175 63.6387 101.08 66.1904 97.6333 66.1904ZM97.6333 63.8291C99.2329 63.8291 100.261 62.2866 100.242 59.1064C100.242 55.9644 99.2329 54.3647 97.6333 54.3647C96.0337 54.3647 95.0244 55.9644 95.0244 59.1064C95.0054 62.2866 96.0337 63.8291 97.6333 63.8291ZM105.155 66L105.136 63.9243L110.087 59.373C111.382 58.1353 112.068 57.3735 112.068 56.2881C112.068 55.0693 111.135 54.3076 109.878 54.3076C108.583 54.3076 107.745 55.1265 107.745 56.4404H105.022C105.003 53.7363 107.002 52.0225 109.916 52.0225C112.868 52.0225 114.829 53.6982 114.829 56.0977C114.829 57.6592 114.067 58.9541 111.23 61.5249L109.135 63.5625V63.6387H115.02V66H105.155Z" fill="white"/>
<path d="M75.2148 118.293C75.2148 123.461 76.6563 128.805 81.0156 131.617L78.5898 135.098C75.8301 133.428 74.0723 130.686 73.0703 127.398C71.9102 131.02 69.9941 134.043 67.0938 135.801L64.3516 132.496C69.0977 129.543 70.8555 123.918 70.8555 118.504V112.984H75.2148V118.293ZM92.6875 110.242V142.234H88.3984V110.242H92.6875ZM85.9727 110.699V140.758H81.7891V124.691H77.6406V121.035H81.7891V110.699H85.9727ZM125.313 128.137V131.723H112.797V142.199H108.367V131.723H96.0273V128.137H125.313ZM121.797 111.789V124.691H99.4727V111.789H121.797ZM103.902 115.34V121.176H117.332V115.34H103.902ZM154.844 110.242V142.234H150.59V126.168H147.496V140.688H143.383V110.77H147.496V122.582H150.59V110.242H154.844ZM140.008 113.934V117.555H132.59V131.195C135.684 131.178 138.426 131.02 141.52 130.457L141.836 134.113C137.934 134.852 134.523 134.957 130.305 134.992H128.09V113.934H140.008ZM185.113 110.242V142.305H180.648V110.242H185.113ZM175.199 112.914V125.254H164.652V131.125C169.522 131.107 173.67 130.826 178.363 130.07L178.75 133.691C173.477 134.605 168.73 134.816 162.895 134.816H160.012V121.703H170.629V116.535H159.977V112.914H175.199ZM216.191 110.277V133.27H211.691V110.277H216.191ZM217.035 138.086V141.672H194.746V130.949H199.281V138.086H217.035ZM198.648 112.316C203.57 112.316 207.402 115.691 207.402 120.367C207.402 125.148 203.57 128.488 198.648 128.488C193.727 128.488 189.895 125.148 189.895 120.367C189.895 115.691 193.727 112.316 198.648 112.316ZM198.648 116.219C196.152 116.184 194.254 117.766 194.289 120.367C194.254 123.039 196.152 124.586 198.648 124.586C201.074 124.586 202.973 123.039 202.973 120.367C202.973 117.766 201.074 116.184 198.648 116.219ZM91.9141 158.277V181.867H87.4492V174.062H81.543V176.805H66.3203V160.352H70.8203V165.273H77.1133V160.352H81.543V163.621H87.4492V158.277H91.9141ZM92.582 186.086V189.672H70.6094V179.512H75.1445V186.086H92.582ZM70.8203 173.289H77.1133V168.684H70.8203V173.289ZM81.543 170.477H87.4492V167.242H81.543V170.477ZM123.027 158.277V176.699H118.563V173.57H111.355V169.984H118.563V166.926H111.672C109.686 171.988 105.15 175.469 98.1016 177.402L96.3438 173.852C103.709 171.918 107.313 168.402 107.945 164.008H98.0664V160.422H112.832C112.832 161.459 112.762 162.461 112.621 163.41H118.563V158.277H123.027ZM112.375 177.086C118.879 177.086 123.238 179.582 123.273 183.555C123.238 187.563 118.879 190.094 112.375 190.094C105.801 190.094 101.406 187.563 101.441 183.555C101.406 179.582 105.801 177.086 112.375 177.086ZM112.375 180.602C108.332 180.566 105.906 181.586 105.906 183.555C105.906 185.523 108.332 186.543 112.375 186.543C116.348 186.543 118.773 185.523 118.773 183.555C118.773 181.586 116.348 180.566 112.375 180.602ZM134.875 176.945V180.145H138.32V176.945H142.469V186.648C146.02 185.066 147.531 182.078 147.531 179.16V176.699H152.031V179.16C151.996 182.43 153.578 185.523 157.586 186.824L155.266 190.164C152.506 189.215 150.73 187.387 149.711 185.102C148.639 187.316 146.881 189.162 144.297 190.164L142.469 187.387V189.883H130.727V176.945H134.875ZM134.875 186.473H138.32V183.449H134.875V186.473ZM136.105 159.437C140.184 159.437 143.436 161.705 144.332 165.098H149.676V158.242H154.141V175.187H149.676V168.789H144.332C143.471 172.252 140.201 174.555 136.105 174.555C131.184 174.555 127.563 171.426 127.598 166.961C127.563 162.566 131.184 159.437 136.105 159.437ZM136.105 163.129C133.609 163.129 131.816 164.605 131.852 166.961C131.816 169.387 133.609 170.863 136.105 170.898C138.531 170.863 140.289 169.387 140.289 166.961C140.289 164.605 138.531 163.129 136.105 163.129ZM185.078 158.242V190.305H180.543V158.242H185.078ZM167.711 160.492C172.527 160.492 176.113 164.922 176.113 171.883C176.113 178.914 172.527 183.309 167.711 183.309C162.789 183.309 159.203 178.914 159.238 171.883C159.203 164.922 162.789 160.492 167.711 160.492ZM167.711 164.535C165.215 164.535 163.563 167.137 163.563 171.883C163.563 176.664 165.215 179.23 167.711 179.23C170.137 179.23 171.789 176.664 171.789 171.883C171.789 167.137 170.137 164.535 167.711 164.535ZM209.371 163.27C209.371 167.137 211.621 170.863 216.684 172.445L214.293 175.926C210.9 174.801 208.527 172.621 207.156 169.809C205.768 173.043 203.289 175.574 199.633 176.805L197.207 173.289C202.551 171.496 204.836 167.242 204.871 162.848V159.93H209.371V163.27ZM223.082 158.242V165.73H227.406V169.457H223.082V177.227H218.582V158.242H223.082ZM212.605 177.859C219.215 177.859 223.398 180.145 223.398 184.047C223.398 187.984 219.215 190.234 212.605 190.234C205.855 190.234 201.637 187.984 201.637 184.047C201.637 180.145 205.855 177.859 212.605 177.859ZM212.605 181.375C208.387 181.375 206.102 182.289 206.137 184.047C206.102 185.875 208.387 186.719 212.605 186.719C216.754 186.719 218.969 185.875 218.969 184.047C218.969 182.289 216.754 181.375 212.605 181.375ZM254.195 158.242V165.449H258.52V169.141H254.195V176.207H249.695V158.242H254.195ZM244.316 160.246V163.797H234.543V171.426C240.326 171.391 243.508 171.18 247.094 170.441L247.551 173.957C243.543 174.871 239.852 175.012 232.75 175.012H230.043V160.246H244.316ZM254.195 177.543V189.848H233.277V177.543H254.195ZM237.707 181.094V186.332H249.766V181.094H237.707ZM285.168 158.242V170.512H289.703V174.203H285.168V190.164H280.668V158.242H285.168ZM276.625 161.512C276.59 171.074 272.863 179.371 262.105 184.645L259.574 181.199C267.15 177.402 271.211 172.305 272.055 165.168H261.402V161.512H276.625ZM316.984 166.258V169.844H294.73V158.734H299.195V166.258H316.984ZM320.289 172.586V176.242H291.039V172.586H320.289ZM305.594 178.246C312.52 178.281 316.703 180.426 316.738 184.187C316.703 187.984 312.52 190.129 305.594 190.129C298.598 190.129 294.379 187.984 294.379 184.187C294.379 180.426 298.598 178.281 305.594 178.246ZM305.594 181.727C301.164 181.762 298.914 182.5 298.949 184.187C298.914 185.84 301.164 186.719 305.594 186.719C309.918 186.719 312.203 185.84 312.238 184.187C312.203 182.5 309.918 181.762 305.594 181.727ZM329.43 161.547L328.973 179.371H324.473L324.016 161.547H329.43ZM326.758 187.316C325.105 187.316 323.77 185.98 323.805 184.363C323.77 182.746 325.105 181.445 326.758 181.445C328.305 181.445 329.676 182.746 329.676 184.363C329.676 185.98 328.305 187.316 326.758 187.316Z" fill="white"/>
<path d="M77.957 289.621V297.848H75.7246V296.248H72.7715V297.391H65.1602V290.307H67.4102V292.17H70.5566V290.307H72.7715V291.66H75.7246V289.621H77.957ZM77.957 298.445V302.717H69.5723V303.684H78.4316V305.441H67.3223V301.082H75.7246V300.168H67.3047V298.445H77.957ZM67.4102 295.633H70.5566V293.875H67.4102V295.633ZM72.7715 294.561H75.7246V293.33H72.7715V294.561ZM93.0742 296.775V298.551H88.4336V301.961H94.6738V303.789H80.0312V301.961H86.2012V298.551H81.7539V290.746H92.9512V292.539H84.0039V296.775H93.0742ZM100.773 290.693C103.305 290.676 105.203 292.328 105.203 294.613C105.203 296.916 103.305 298.551 100.773 298.551C98.2422 298.551 96.3262 296.916 96.3262 294.613C96.3262 292.328 98.2422 290.676 100.773 290.693ZM100.773 292.627C99.5078 292.627 98.541 293.365 98.5586 294.613C98.541 295.879 99.5078 296.6 100.773 296.6C102.039 296.6 103.006 295.879 103.023 294.613C103.006 293.365 102.057 292.627 100.773 292.627ZM109.035 289.621V305.652H106.803V289.621H109.035ZM95.6582 300.555C98.5059 300.572 102.461 300.52 105.889 300.045L106.064 301.662C102.514 302.348 98.7168 302.383 95.9219 302.383L95.6582 300.555ZM123.783 290.869C123.783 292.75 125.699 294.842 129.373 295.299L128.494 297.109C125.699 296.705 123.651 295.413 122.605 293.682C121.551 295.413 119.521 296.705 116.752 297.109L115.855 295.299C119.494 294.842 121.428 292.75 121.428 290.869V290.096H123.783V290.869ZM129.883 298.322V300.15H123.66V305.617H121.445V300.15H115.293V298.322H129.883ZM144.244 289.639V298.674H141.994V289.639H144.244ZM144.244 299.395V305.441H133.521V299.395H144.244ZM135.736 301.17V303.648H142.047V301.17H135.736ZM135.473 290.359C137.969 290.359 139.85 291.941 139.85 294.227C139.85 296.424 137.969 298.041 135.473 298.041C132.977 298.041 131.096 296.424 131.096 294.227C131.096 291.941 132.977 290.359 135.473 290.359ZM135.473 292.24C134.189 292.24 133.275 292.979 133.293 294.227C133.275 295.422 134.189 296.16 135.473 296.16C136.721 296.16 137.635 295.422 137.635 294.227C137.635 292.979 136.721 292.24 135.473 292.24ZM165.18 297.18V298.938H150.555V297.18H156.777V295.809H152.33V290.324H163.422V292.064H154.562V294.051H163.51V295.809H158.975V297.18H165.18ZM157.832 299.746C161.295 299.746 163.387 300.801 163.404 302.699C163.387 304.562 161.295 305.635 157.832 305.635C154.334 305.635 152.225 304.562 152.225 302.699C152.225 300.801 154.334 299.746 157.832 299.746ZM157.832 301.451C155.617 301.451 154.492 301.873 154.51 302.699C154.492 303.543 155.617 303.93 157.832 303.93C159.994 303.93 161.137 303.543 161.154 302.699C161.137 301.873 159.994 301.451 157.832 301.451ZM171.297 290.693C173.828 290.676 175.727 292.328 175.727 294.613C175.727 296.916 173.828 298.551 171.297 298.551C168.766 298.551 166.85 296.916 166.85 294.613C166.85 292.328 168.766 290.676 171.297 290.693ZM171.297 292.627C170.031 292.627 169.064 293.365 169.082 294.613C169.064 295.879 170.031 296.6 171.297 296.6C172.562 296.6 173.529 295.879 173.547 294.613C173.529 293.365 172.58 292.627 171.297 292.627ZM179.559 289.621V305.652H177.326V289.621H179.559ZM166.182 300.555C169.029 300.572 172.984 300.52 176.412 300.045L176.588 301.662C173.037 302.348 169.24 302.383 166.445 302.383L166.182 300.555ZM189.666 298.973V300.572H191.389V298.973H193.463V303.824C195.238 303.033 195.994 301.539 195.994 300.08V298.85H198.244V300.08C198.227 301.715 199.018 303.262 201.021 303.912L199.861 305.582C198.481 305.107 197.594 304.193 197.084 303.051C196.548 304.158 195.669 305.081 194.377 305.582L193.463 304.193V305.441H187.592V298.973H189.666ZM189.666 303.736H191.389V302.225H189.666V303.736ZM190.281 290.219C192.32 290.219 193.946 291.353 194.395 293.049H197.066V289.621H199.299V298.094H197.066V294.895H194.395C193.964 296.626 192.329 297.777 190.281 297.777C187.82 297.777 186.01 296.213 186.027 293.98C186.01 291.783 187.82 290.219 190.281 290.219ZM190.281 292.064C189.033 292.064 188.137 292.803 188.154 293.98C188.137 295.193 189.033 295.932 190.281 295.949C191.494 295.932 192.373 295.193 192.373 293.98C192.373 292.803 191.494 292.064 190.281 292.064ZM214.768 289.621V305.652H212.5V289.621H214.768ZM206.084 290.746C208.492 290.746 210.285 292.961 210.285 296.441C210.285 299.957 208.492 302.154 206.084 302.154C203.623 302.154 201.83 299.957 201.848 296.441C201.83 292.961 203.623 290.746 206.084 290.746ZM206.084 292.768C204.836 292.768 204.01 294.068 204.01 296.441C204.01 298.832 204.836 300.115 206.084 300.115C207.297 300.115 208.123 298.832 208.123 296.441C208.123 294.068 207.297 292.768 206.084 292.768ZM77.957 317.621V329.398H75.7246V325.461H73.6855V323.615H75.7246V322.227H73.6855V320.434H75.7246V317.621H77.957ZM73.4043 318.764V320.557H72.0859V325.408C72.6221 325.373 73.1494 325.32 73.6504 325.268L73.7383 326.902C70.75 327.395 67.2344 327.465 64.7031 327.465L64.4746 325.637L66.1797 325.619V320.557H64.8789V318.764H73.4043ZM78.3438 331.543V333.336H67.3223V328.52H69.5723V331.543H78.3438ZM68.3418 325.584L69.9414 325.531V320.557H68.3418V325.584ZM92.6523 317.621V323.879H95.0078V325.725H92.6523V333.617H90.4375V317.621H92.6523ZM89.3477 320.012V321.805H79.9434V320.012H83.5645V317.867H85.8145V320.012H89.3477ZM84.6895 322.701C87.0273 322.701 88.7676 324.283 88.7676 326.516C88.7676 328.748 87.0273 330.33 84.6895 330.33C82.334 330.33 80.5938 328.748 80.5938 326.516C80.5938 324.283 82.334 322.701 84.6895 322.701ZM84.6895 324.512C83.5645 324.529 82.7383 325.285 82.7383 326.516C82.7383 327.764 83.5645 328.502 84.6895 328.484C85.8145 328.502 86.623 327.764 86.623 326.516C86.623 325.285 85.8145 324.529 84.6895 324.512ZM109.457 317.621V333.617H107.348V317.621H109.457ZM106.047 317.973V332.914H103.955V325.566H101.336C100.422 327.395 98.9365 328.977 96.6602 330.295L95.3945 328.713C98.6201 326.797 100.044 324.468 100.352 321.33H96.2734V319.52H102.584C102.575 321.04 102.417 322.473 102.039 323.791H103.955V317.973H106.047ZM121.129 320.135C121.129 322.068 122.254 323.932 124.785 324.723L123.59 326.463C121.894 325.9 120.707 324.811 120.021 323.404C119.327 325.021 118.088 326.287 116.26 326.902L115.047 325.145C117.719 324.248 118.861 322.121 118.879 319.924V318.465H121.129V320.135ZM127.984 317.621V321.365H130.146V323.229H127.984V327.113H125.734V317.621H127.984ZM122.746 327.43C126.051 327.43 128.143 328.572 128.143 330.523C128.143 332.492 126.051 333.617 122.746 333.617C119.371 333.617 117.262 332.492 117.262 330.523C117.262 328.572 119.371 327.43 122.746 327.43ZM122.746 329.188C120.637 329.188 119.494 329.645 119.512 330.523C119.494 331.438 120.637 331.859 122.746 331.859C124.82 331.859 125.928 331.438 125.928 330.523C125.928 329.645 124.82 329.188 122.746 329.188ZM143.541 317.621V321.225H145.703V323.07H143.541V326.604H141.291V317.621H143.541ZM138.602 318.623V320.398H133.715V324.213C136.606 324.195 138.197 324.09 139.99 323.721L140.219 325.479C138.215 325.936 136.369 326.006 132.818 326.006H131.465V318.623H138.602ZM143.541 327.271V333.424H133.082V327.271H143.541ZM135.297 329.047V331.666H141.326V329.047H135.297ZM163.246 317.621V321.26H165.408V323.105H163.246V326.955H160.996V317.621H163.246ZM153.262 318.553V320.592H156.531V318.553H158.781V326.164H151.029V318.553H153.262ZM153.262 324.406H156.531V322.332H153.262V324.406ZM163.334 327.676V329.451H155.02V331.648H163.633V333.406H152.787V327.676H163.334ZM173.406 317.85C177.08 317.85 179.207 318.816 179.225 320.574C179.207 322.35 177.08 323.316 173.406 323.316C169.715 323.316 167.57 322.35 167.57 320.574C167.57 318.816 169.715 317.85 173.406 317.85ZM173.406 319.484C171.051 319.484 169.908 319.871 169.926 320.574C169.908 321.365 171.051 321.664 173.406 321.664C175.779 321.664 176.904 321.365 176.904 320.574C176.904 319.871 175.779 319.484 173.406 319.484ZM180.701 324.072V325.848H166.111V324.072H180.701ZM178.926 326.779V330.857H170.014V331.824H179.348V333.512H167.816V329.293H176.711V328.414H167.799V326.779H178.926ZM194.307 318.869C194.307 320.75 196.223 322.842 199.896 323.299L199.018 325.109C196.223 324.705 194.175 323.413 193.129 321.682C192.074 323.413 190.044 324.705 187.275 325.109L186.379 323.299C190.018 322.842 191.951 320.75 191.951 318.869V318.096H194.307V318.869ZM200.406 326.322V328.15H194.184V333.617H191.969V328.15H185.816V326.322H200.406ZM211.34 327.887C211.34 329.179 211.876 330.506 213.186 331.385C214.504 330.453 215.084 329.073 215.084 327.887V327.342H217.299V327.887C217.281 329.557 218.178 331.104 220.305 331.754L219.215 333.389C217.686 332.87 216.684 331.895 216.139 330.664C215.603 331.895 214.671 332.967 213.238 333.529C211.727 332.984 210.786 331.947 210.268 330.717C209.705 331.912 208.721 332.879 207.262 333.389L206.154 331.754C208.264 331.033 209.143 329.451 209.16 327.887V327.342H211.34V327.887ZM218.916 317.639V326.674H216.666V317.639H218.916ZM210.145 318.447C212.641 318.447 214.521 320.029 214.521 322.297C214.521 324.529 212.641 326.111 210.145 326.111C207.648 326.111 205.768 324.529 205.768 322.297C205.768 320.029 207.648 318.447 210.145 318.447ZM210.145 320.328C208.861 320.328 207.947 321.066 207.965 322.297C207.947 323.51 208.861 324.248 210.145 324.248C211.393 324.248 212.307 323.51 212.307 322.297C212.307 321.066 211.393 320.328 210.145 320.328ZM224.998 327.219V328.572H231.59V327.219H233.822V333.441H222.783V327.219H224.998ZM224.998 331.684H231.59V330.277H224.998V331.684ZM235.668 324.6V326.41H221.078V324.6H235.668ZM229.533 318.324C229.533 319.924 231.379 321.734 234.947 322.139L234.156 323.896C231.396 323.545 229.401 322.402 228.373 320.855C227.345 322.402 225.341 323.545 222.607 323.896L221.799 322.139C225.367 321.717 227.213 319.959 227.23 318.324V317.779H229.533V318.324ZM250.082 317.621V333.617H247.85V317.621H250.082ZM239.711 319.15V327.746C241.873 327.72 244.193 327.518 246.549 327.061L246.83 328.906C244.018 329.486 241.381 329.68 238.902 329.662H237.496V319.15H239.711ZM264.812 317.621V323.562H267.168V325.391H264.812V333.652H262.562V317.621H264.812ZM260.33 319.098V320.908H255.057V327.922C257.377 327.896 259.293 327.79 261.42 327.412L261.666 329.293C259.188 329.715 257.008 329.785 254.178 329.768H252.824V319.098H260.33ZM269.822 332.158C268.996 332.158 268.328 331.49 268.346 330.682C268.328 329.873 268.996 329.223 269.822 329.223C270.596 329.223 271.281 329.873 271.281 330.682C271.281 331.49 270.596 332.158 269.822 332.158Z" fill="white" fill-opacity="0.8"/>
</g>
<defs>
<filter id="filter0_d_4402_85204" x="-1.90735e-06" y="0" width="408" height="428" filterUnits="userSpaceOnUse" color-interpolation-filters="sRGB">
<feFlood flood-opacity="0" result="BackgroundImageFix"/>
<feColorMatrix in="SourceAlpha" type="matrix" values="0 0 0 0 0 0 0 0 0 0 0 0 0 0 0 0 0 0 127 0" result="hardAlpha"/>
<feOffset dy="24"/>
<feGaussianBlur stdDeviation="12"/>
<feComposite in2="hardAlpha" operator="out"/>
<feColorMatrix type="matrix" values="0 0 0 0 0.968627 0 0 0 0 0.341176 0 0 0 0 0.592157 0 0 0 0.24 0"/>
<feBlend mode="normal" in2="BackgroundImageFix" result="effect1_dropShadow_4402_85204"/>
<feBlend mode="normal" in="SourceGraphic" in2="effect1_dropShadow_4402_85204" result="shape"/>
</filter>
<linearGradient id="paint0_linear_4402_85204" x1="24" y1="0" x2="459.238" y2="158.329" gradientUnits="userSpaceOnUse">
<stop stop-color="#F457B5"/>
<stop offset="1" stop-color="#FF5732"/>
</linearGradient>
<linearGradient id="paint1_linear_4402_85204" x1="24" y1="9.65447" x2="460.284" y2="162.17" gradientUnits="userSpaceOnUse">
<stop stop-color="white"/>
<stop offset="0.505" stop-color="#FF94C9"/>
<stop offset="1" stop-color="white"/>
</linearGradient>
</defs>
</svg>
