<svg width="408" height="428" viewBox="0 0 408 428" fill="none" xmlns="http://www.w3.org/2000/svg">
<g filter="url(#filter0_d_4402_85209)">
<rect x="24" width="360" height="380" rx="24" fill="url(#paint0_linear_4402_85209)"/>
<rect x="26.25" y="2.25" width="355.5" height="375.5" rx="21.75" stroke="url(#paint1_linear_4402_85209)" stroke-opacity="0.4" stroke-width="4.5"/>
<rect x="64" y="40" width="68" height="38" rx="19" fill="#3A2BDB"/>
<path d="M85.5745 66L86.1458 62.5532H83.4226L82.8513 66H80.7185L81.2898 62.5532H79.3855L79.7473 60.4395H81.6326L82.0706 57.7734H80.1853L80.5281 55.6406H82.4324L82.9846 52.2129H85.1174L84.5652 55.6406H87.2693L87.8215 52.2129H89.9543L89.4021 55.6406H91.2874L90.9255 57.7734H89.0403L88.6023 60.4395H90.5066L90.1448 62.5532H88.2595L87.6882 66H85.5745ZM83.7654 60.4395H86.4885L86.9265 57.7734H84.2034L83.7654 60.4395ZM97.8572 66.1904C94.4104 66.1904 92.3157 63.6196 92.3157 59.1064C92.3157 54.5933 94.4104 52.0225 97.8572 52.0225C101.304 52.0225 103.399 54.6123 103.399 59.1064C103.399 63.6387 101.304 66.1904 97.8572 66.1904ZM97.8572 63.8291C99.4568 63.8291 100.485 62.2866 100.466 59.1064C100.466 55.9644 99.4568 54.3647 97.8572 54.3647C96.2576 54.3647 95.2483 55.9644 95.2483 59.1064C95.2292 62.2866 96.2576 63.8291 97.8572 63.8291ZM110.483 66.1904C107.455 66.1904 105.284 64.5146 105.227 62.1152H108.121C108.178 63.1436 109.169 63.8291 110.502 63.8291C111.873 63.8291 112.863 63.0483 112.844 61.9438C112.863 60.8203 111.854 60.0205 110.235 60.0205H108.959V57.9067H110.235C111.587 57.9067 112.539 57.1641 112.539 56.0786C112.539 55.0312 111.74 54.3076 110.521 54.3076C109.302 54.3076 108.293 54.9932 108.255 56.0405H105.512C105.551 53.6602 107.702 52.0225 110.521 52.0225C113.396 52.0225 115.32 53.7173 115.301 55.9072C115.32 57.4497 114.234 58.5542 112.692 58.8208V58.9351C114.71 59.1826 115.834 60.4204 115.815 62.1343C115.834 64.4956 113.587 66.1904 110.483 66.1904Z" fill="white"/>
<path d="M92.5469 110.242V142.234H88.2227V125.957H85.3047V140.828H81.1211V111.086H85.3047V122.371H88.2227V110.242H92.5469ZM78.8711 114.18C78.8359 123.109 76.1641 130.422 67.1641 135.66L64.5625 132.566C71.084 128.734 73.8789 124.041 74.5117 117.766H66.1797V114.18H78.8711ZM122.852 110.277V133.27H118.352V110.277H122.852ZM123.695 138.086V141.672H101.406V130.949H105.941V138.086H123.695ZM105.309 112.316C110.23 112.316 114.063 115.691 114.063 120.367C114.063 125.148 110.23 128.488 105.309 128.488C100.387 128.488 96.5547 125.148 96.5547 120.367C96.5547 115.691 100.387 112.316 105.309 112.316ZM105.309 116.219C102.813 116.184 100.914 117.766 100.949 120.367C100.914 123.039 102.813 124.586 105.309 124.586C107.734 124.586 109.633 123.039 109.633 120.367C109.633 117.766 107.734 116.184 105.309 116.219ZM154.141 110.242V129.227H149.676V121.668H144.684V118.047H149.676V110.242H154.141ZM143.207 129.93C150.027 129.965 154.211 132.215 154.246 136.117C154.211 139.984 150.027 142.27 143.207 142.27C136.387 142.27 132.203 139.984 132.203 136.117C132.203 132.215 136.387 129.965 143.207 129.93ZM143.207 133.375C138.953 133.375 136.668 134.254 136.668 136.117C136.668 137.945 138.953 138.859 143.207 138.859C147.461 138.859 149.781 137.945 149.781 136.117C149.781 134.254 147.461 133.375 143.207 133.375ZM145.633 112.176V115.762H139.27C139.375 119.488 141.625 123.25 146.617 124.902L144.402 128.418C140.869 127.275 138.443 124.955 137.055 122.055C135.631 125.324 133.082 127.961 129.285 129.262L126.965 125.711C132.221 123.953 134.576 119.77 134.699 115.762H128.266V112.176H145.633ZM187.574 134.852V138.508H158.289V134.852H170.629V128.945H161.383V112.281H165.883V117.238H179.84V112.281H184.305V128.945H175.094V134.852H187.574ZM165.883 125.359H179.84V120.824H165.883V125.359ZM226.949 128.031V131.652H220.094V142.234H215.523V131.652H208.984V142.234H204.379V131.652H197.664V128.031H226.949ZM212.219 111.297C219.074 111.297 223.891 114.145 223.891 118.539C223.891 122.863 219.074 125.57 212.219 125.57C205.363 125.57 200.582 122.863 200.617 118.539C200.582 114.145 205.363 111.297 212.219 111.297ZM212.219 114.883C207.93 114.883 205.188 116.184 205.223 118.539C205.188 120.789 207.93 122.055 212.219 122.055C216.543 122.055 219.25 120.789 219.25 118.539C219.25 116.184 216.543 114.883 212.219 114.883ZM257.922 123.883V127.152H245.617V129.156H254.441V136.961H236.617V138.719H255.285V142.023H232.223V133.937H250.012V132.355H232.188V129.156H241.152V127.152H228.883V123.883H257.922ZM245.582 110.207V112.738H255.18V116.043H246.145C247.023 117.906 250.293 119.436 256.762 119.699L255.461 123.004C249.52 122.723 245.406 121.211 243.367 118.785C241.346 121.211 237.215 122.723 231.238 123.004L230.008 119.699C236.424 119.436 239.676 117.906 240.59 116.043H231.625V112.738H241.152V110.207H245.582ZM87.3789 161.547V187H82.8086L71.6289 170.828H71.418V187H66.1445V161.547H70.7852L81.8945 177.719H82.1406V161.547H87.3789ZM114.977 174.273C114.977 182.57 109.809 187.352 103.094 187.352C96.3086 187.352 91.1758 182.535 91.1758 174.273C91.1758 165.977 96.3086 161.195 103.094 161.195C109.809 161.195 114.977 165.977 114.977 174.273ZM109.598 174.273C109.598 168.824 107.031 165.871 103.094 165.871C99.1563 165.871 96.5547 168.824 96.5547 174.273C96.5547 179.723 99.1563 182.676 103.094 182.676C107.031 182.676 109.598 179.723 109.598 174.273ZM124.855 161.547L124.398 179.371H119.898L119.441 161.547H124.855ZM122.184 187.316C120.531 187.316 119.195 185.98 119.23 184.363C119.195 182.746 120.531 181.445 122.184 181.445C123.73 181.445 125.102 182.746 125.102 184.363C125.102 185.98 123.73 187.316 122.184 187.316Z" fill="white"/>
<path d="M77.166 289.621V293.559H79.3281V295.439H77.166V299.271H74.916V289.621H77.166ZM77.166 299.975V305.441H66.707V299.975H77.166ZM68.9219 301.732V303.648H74.9512V301.732H68.9219ZM73.9668 291.062V292.838H64.4746V291.062H68.1133V289.533H70.3457V291.062H73.9668ZM69.2207 293.33C71.541 293.33 73.1582 294.508 73.1582 296.195C73.1582 297.936 71.541 299.096 69.2207 299.096C66.8652 299.096 65.248 297.936 65.248 296.195C65.248 294.508 66.8652 293.33 69.2207 293.33ZM69.2207 295.018C68.1484 295.018 67.4277 295.439 67.4453 296.195C67.4277 297.004 68.1484 297.443 69.2207 297.443C70.293 297.443 71.0312 297.004 71.0312 296.195C71.0312 295.439 70.293 295.018 69.2207 295.018ZM93.9707 291.643V293.436H80.6641V291.643H86.2012V289.779H88.416V291.643H93.9707ZM94.6738 302.189V303.982H80.0312V302.189H86.2012V300.344C83.4766 300.115 81.8242 298.99 81.8418 297.232C81.8242 295.299 83.9336 294.121 87.3086 294.139C90.6309 294.121 92.7578 295.299 92.7578 297.232C92.7578 298.99 91.0967 300.115 88.416 300.344V302.189H94.6738ZM87.3086 295.879C85.2344 295.879 84.127 296.318 84.1445 297.232C84.127 298.182 85.2344 298.604 87.3086 298.604C89.3301 298.604 90.4551 298.182 90.4551 297.232C90.4551 296.318 89.3301 295.879 87.3086 295.879ZM108.385 289.621V296.125H110.477V297.988H108.385V305.617H106.117V289.621H108.385ZM95.3945 301.1C96.5635 301.1 97.9258 301.1 99.3496 301.064V299.693C97.6445 299.359 96.5371 298.278 96.5547 296.793C96.5371 295 98.1543 293.787 100.492 293.787C102.777 293.787 104.412 295 104.43 296.793C104.412 298.278 103.287 299.368 101.6 299.693V300.977C102.865 300.915 104.14 300.81 105.326 300.643L105.467 302.277C102.057 302.91 98.4004 302.928 95.6934 302.928L95.3945 301.1ZM105.203 291.396V293.154H95.7109V291.396H99.3496V289.709H101.6V291.396H105.203ZM100.492 295.492C99.4023 295.492 98.6641 295.967 98.6816 296.793C98.6641 297.637 99.4023 298.094 100.492 298.094C101.547 298.094 102.268 297.637 102.268 296.793C102.268 295.967 101.547 295.492 100.492 295.492ZM120.479 294.525V296.318H117.613V297.936C118.879 297.874 120.136 297.795 121.322 297.672L121.48 299.271C118.088 299.746 114.467 299.834 111.514 299.834L111.215 298.059C112.498 298.05 113.913 298.041 115.363 298.006V296.318H112.568V290.588H120.338V292.381H114.818V294.525H120.479ZM124.592 289.604V301.662H122.307V289.604H124.592ZM125.014 303.543V305.336H113.693V300.748H115.961V303.543H125.014ZM145.492 301.926V303.754H130.85V301.926H137.02V298.973H132.396V290.641H134.646V293.119H141.625V290.641H143.857V298.973H139.252V301.926H145.492ZM134.646 297.18H141.625V294.912H134.646V297.18ZM159.098 289.621V294.209H161.26V296.072H159.098V301.275H156.848V289.621H159.098ZM159.678 303.543V305.336H148.727V300.045H150.959V303.543H159.678ZM150.906 290.658C153.35 290.658 155.266 292.346 155.266 294.719C155.266 297.057 153.35 298.779 150.906 298.779C148.445 298.779 146.512 297.057 146.512 294.719C146.512 292.346 148.445 290.658 150.906 290.658ZM150.906 292.609C149.693 292.592 148.709 293.383 148.727 294.719C148.709 296.02 149.693 296.828 150.906 296.828C152.137 296.828 153.068 296.02 153.086 294.719C153.068 293.383 152.137 292.592 150.906 292.609ZM172.334 293.242C172.334 296.178 173.67 299.131 176.377 300.273L175.059 302.066C173.23 301.24 171.965 299.649 171.244 297.672C170.515 299.825 169.205 301.565 167.254 302.453L165.9 300.59C168.695 299.412 170.049 296.354 170.066 293.242V290.852H172.334V293.242ZM179.506 289.621V305.652H177.238V289.621H179.506ZM190.088 291.73C190.088 294.068 192.162 296.582 195.783 297.197L194.799 299.061C192.013 298.507 189.938 296.942 188.91 294.877C187.847 296.925 185.772 298.498 183.004 299.061L182.037 297.197C185.588 296.564 187.68 294.051 187.697 291.73V290.57H190.088V291.73ZM196.311 301.803V303.648H181.668V301.803H196.311ZM203.957 290.57V292.381H200.002V293.646H203.359V295.369H200.002V296.758C201.751 296.731 203.025 296.661 204.502 296.424L204.73 298.164C202.885 298.48 201.355 298.533 198.947 298.533H197.857V290.57H203.957ZM210.971 289.621V299.166H208.844V289.621H210.971ZM207.789 289.867V299.061H205.662V295.264H204.045V293.471H205.662V289.867H207.789ZM210.971 299.799V305.441H200.055V299.799H210.971ZM202.287 301.557V303.648H208.756V301.557H202.287ZM229.814 290.553V291.994C229.814 293.488 229.814 295.123 229.41 297.355H231.52V299.166H225.279V305.635H223.029V299.166H216.93V297.355H227.143C227.547 295.29 227.582 293.726 227.582 292.346H218.6V290.553H229.814ZM247.076 297.496V299.271H240.871V300.66H245.301V305.6H243.068V302.436H234.104V300.66H238.656V299.271H232.486V297.496H247.076ZM240.871 289.639V291.08H245.67V292.82H241.047C241.302 293.972 242.928 295.009 246.426 295.246L245.74 296.916C242.805 296.714 240.766 295.87 239.764 294.578C238.753 295.87 236.714 296.714 233.787 296.916L233.102 295.246C236.582 295.009 238.208 293.972 238.48 292.82H233.893V291.08H238.656V289.639H240.871ZM255.338 290.43C258.713 290.447 261.35 292.258 261.367 295.035C261.35 297.83 258.713 299.658 255.338 299.641C251.945 299.658 249.326 297.83 249.326 295.035C249.326 292.258 251.945 290.447 255.338 290.43ZM255.338 292.258C253.123 292.24 251.506 293.312 251.506 295.035C251.506 296.775 253.123 297.812 255.338 297.812C257.553 297.812 259.135 296.775 259.152 295.035C259.135 293.312 257.553 292.24 255.338 292.258ZM262.686 301.855V303.666H248.043V301.855H262.686ZM278.242 301.996V303.842H263.6V301.996H269.77V299.588H265.287V294.209H274.34V292.451H265.27V290.658H276.555V295.967H267.537V297.76H276.924V299.588H272.002V301.996H278.242ZM69.6602 318.57C72.1914 318.57 74.0898 320.188 74.0898 322.49C74.0898 324.441 72.7275 325.9 70.7676 326.305V328.449C72.1211 328.379 73.4834 328.256 74.7754 328.08L74.9512 329.697C71.4004 330.365 67.6035 330.4 64.8086 330.4L64.5449 328.59C65.7227 328.59 67.0938 328.581 68.5352 328.537V326.287C66.584 325.892 65.2129 324.433 65.2129 322.49C65.2129 320.188 67.1289 318.57 69.6602 318.57ZM69.6602 320.486C68.3945 320.486 67.4277 321.207 67.4453 322.49C67.4277 323.738 68.3945 324.494 69.6602 324.494C70.9434 324.494 71.8926 323.738 71.9102 322.49C71.8926 321.207 70.9258 320.486 69.6602 320.486ZM77.9219 317.621V333.652H75.6895V317.621H77.9219ZM94.6562 326.85V328.607H88.3984V333.617H86.1836V328.607H80.0137V326.85H94.6562ZM83.9512 318.236V320.082H90.666V318.236H92.916V325.303H81.7363V318.236H83.9512ZM83.9512 323.51H90.666V321.84H83.9512V323.51ZM104.957 318.289C107.4 318.271 109.176 319.66 109.176 321.682C109.176 323.686 107.4 325.092 104.957 325.074C102.514 325.092 100.738 323.686 100.756 321.682C100.738 319.66 102.514 318.271 104.957 318.289ZM104.957 320.082C103.762 320.082 102.918 320.662 102.918 321.682C102.918 322.684 103.762 323.264 104.957 323.246C106.188 323.264 107.049 322.684 107.049 321.682C107.049 320.662 106.188 320.082 104.957 320.082ZM113.219 317.639V333.617H111.004V317.639H113.219ZM99.7715 326.059C102.602 326.059 106.627 325.988 110.037 325.479L110.178 327.131C108.859 327.395 107.506 327.562 106.17 327.658V333.143H103.938V327.799C102.531 327.86 101.204 327.869 100.053 327.887L99.7715 326.059ZM124.223 319.01V320.768H115.328V319.01H118.773V317.48H121.006V319.01H124.223ZM119.863 321.225C122.061 321.225 123.643 322.42 123.66 324.143C123.643 325.865 122.061 327.043 119.863 327.043C117.648 327.043 116.102 325.865 116.119 324.143C116.102 322.42 117.648 321.225 119.863 321.225ZM119.863 322.895C118.844 322.895 118.193 323.334 118.211 324.143C118.193 324.951 118.844 325.408 119.863 325.408C120.865 325.408 121.568 324.951 121.568 324.143C121.568 323.334 120.865 322.895 119.863 322.895ZM128.775 317.621V327.148H126.543V325.988H124.363V324.195H126.543V322.842H124.398V321.031H126.543V317.621H128.775ZM120.232 327.746V328.924H126.561V327.746H128.775V333.441H117.982V327.746H120.232ZM120.232 331.719H126.561V330.594H120.232V331.719ZM138.145 318.43C141.52 318.447 144.156 320.258 144.174 323.035C144.156 325.83 141.52 327.658 138.145 327.641C134.752 327.658 132.133 325.83 132.133 323.035C132.133 320.258 134.752 318.447 138.145 318.43ZM138.145 320.258C135.93 320.24 134.312 321.312 134.312 323.035C134.312 324.775 135.93 325.812 138.145 325.812C140.359 325.812 141.941 324.775 141.959 323.035C141.941 321.312 140.359 320.24 138.145 320.258ZM145.492 329.855V331.666H130.85V329.855H145.492ZM161.049 329.996V331.842H146.406V329.996H152.576V327.588H148.094V322.209H157.146V320.451H148.076V318.658H159.361V323.967H150.344V325.76H159.73V327.588H154.809V329.996H161.049ZM176.588 326.85V328.607H170.33V333.617H168.115V328.607H161.945V326.85H176.588ZM165.883 318.236V320.082H172.598V318.236H174.848V325.303H163.668V318.236H165.883ZM165.883 323.51H172.598V321.84H165.883V323.51ZM191.02 317.621V333.652H188.805V325.074H185.992V323.264H188.805V317.621H191.02ZM185.729 318.957V320.768H180.49V323.422H185.148V325.18H180.49V328.203C182.705 328.186 184.48 328.106 186.467 327.799L186.695 329.592C184.357 329.943 182.266 330.031 179.523 330.031H178.258V318.957H185.729ZM210.777 317.639V329.715H208.527V328.449H205.469V326.92H208.527V317.639H210.777ZM211.129 331.543V333.336H199.211V328.555H201.443V326.428C200.011 326.489 198.648 326.498 197.436 326.498L197.172 324.723C200.107 324.705 204.062 324.67 207.438 324.248L207.561 325.848C206.295 326.059 204.985 326.208 203.693 326.305V329.346H201.443V331.543H211.129ZM202.375 318.184C204.695 318.166 206.365 319.344 206.365 321.049C206.365 322.754 204.695 323.861 202.375 323.861C200.002 323.861 198.35 322.754 198.35 321.049C198.35 319.344 199.984 318.166 202.375 318.184ZM202.375 319.818C201.232 319.818 200.459 320.258 200.477 321.049C200.459 321.822 201.232 322.244 202.375 322.244C203.447 322.244 204.221 321.822 204.238 321.049C204.221 320.258 203.447 319.818 202.375 319.818ZM218.67 321.383C218.67 323.176 219.848 325.021 222.449 325.812L221.377 327.553C219.584 327.043 218.318 325.944 217.598 324.547C216.886 326.059 215.611 327.245 213.766 327.816L212.676 326.059C215.277 325.285 216.438 323.334 216.438 321.383V321.26H213.221V319.502H216.438V317.727H218.705V319.502H221.904V321.26H218.67V321.383ZM226.264 317.639V329.504H224.031V324.107H221.377V322.297H224.031V317.639H226.264ZM226.65 331.543V333.336H215.646V328.484H217.896V331.543H226.65ZM238.27 322.631C238.27 324.898 239.447 327.482 241.996 328.678L240.748 330.365C239.043 329.601 237.856 328.089 237.18 326.305C236.494 328.229 235.229 329.855 233.418 330.646L232.188 328.906C234.789 327.764 236.037 325.039 236.055 322.631V322.016H232.75V320.223H236.037V317.973H238.287V320.223H241.539V322.016H238.27V322.631ZM245.107 317.621V323.826H247.463V325.707H245.107V333.617H242.857V317.621H245.107ZM260.734 317.621V321.98H262.896V323.826H260.734V329.188H258.484V317.621H260.734ZM255.883 318.904V320.697H250.908V324.74C253.8 324.723 255.391 324.635 257.184 324.248L257.412 326.041C255.408 326.463 253.562 326.551 250.012 326.551H248.658V318.904H255.883ZM261.314 331.543V333.336H250.363V327.957H252.596V331.543H261.314ZM276.291 317.621V321.471H278.453V323.334H276.291V326.99H274.041V317.621H276.291ZM268.047 327.605V328.818H274.041V327.605H276.291V333.441H265.814V327.605H268.047ZM268.047 331.684H274.041V330.541H268.047V331.684ZM273.092 319.027V320.785H263.6V319.027H267.238V317.516H269.471V319.027H273.092ZM268.346 321.242C270.666 321.242 272.283 322.367 272.283 324.072C272.283 325.777 270.666 326.902 268.346 326.902C265.99 326.902 264.373 325.777 264.373 324.072C264.373 322.367 265.99 321.242 268.346 321.242ZM268.346 322.895C267.273 322.877 266.553 323.316 266.57 324.072C266.553 324.846 267.273 325.268 268.346 325.268C269.418 325.268 270.156 324.846 270.156 324.072C270.156 323.316 269.418 322.877 268.346 322.895ZM292.604 317.621V333.617H290.371V317.621H292.604ZM282.232 319.15V327.746C284.395 327.72 286.715 327.518 289.07 327.061L289.352 328.906C286.539 329.486 283.902 329.68 281.424 329.662H280.018V319.15H282.232ZM307.334 317.621V323.562H309.689V325.391H307.334V333.652H305.084V317.621H307.334ZM302.852 319.098V320.908H297.578V327.922C299.898 327.896 301.814 327.79 303.941 327.412L304.188 329.293C301.709 329.715 299.529 329.785 296.699 329.768H295.346V319.098H302.852ZM312.344 332.158C311.518 332.158 310.85 331.49 310.867 330.682C310.85 329.873 311.518 329.223 312.344 329.223C313.117 329.223 313.803 329.873 313.803 330.682C313.803 331.49 313.117 332.158 312.344 332.158Z" fill="white" fill-opacity="0.8"/>
</g>
<defs>
<filter id="filter0_d_4402_85209" x="-1.90735e-06" y="0" width="408" height="428" filterUnits="userSpaceOnUse" color-interpolation-filters="sRGB">
<feFlood flood-opacity="0" result="BackgroundImageFix"/>
<feColorMatrix in="SourceAlpha" type="matrix" values="0 0 0 0 0 0 0 0 0 0 0 0 0 0 0 0 0 0 127 0" result="hardAlpha"/>
<feOffset dy="24"/>
<feGaussianBlur stdDeviation="12"/>
<feComposite in2="hardAlpha" operator="out"/>
<feColorMatrix type="matrix" values="0 0 0 0 0.34902 0 0 0 0 0.294118 0 0 0 0 0.968627 0 0 0 0.24 0"/>
<feBlend mode="normal" in2="BackgroundImageFix" result="effect1_dropShadow_4402_85209"/>
<feBlend mode="normal" in="SourceGraphic" in2="effect1_dropShadow_4402_85209" result="shape"/>
</filter>
<linearGradient id="paint0_linear_4402_85209" x1="24" y1="0" x2="459.238" y2="158.329" gradientUnits="userSpaceOnUse">
<stop stop-color="#594BF7"/>
<stop offset="1" stop-color="#D11AEF"/>
</linearGradient>
<linearGradient id="paint1_linear_4402_85209" x1="24" y1="9.65447" x2="460.284" y2="162.17" gradientUnits="userSpaceOnUse">
<stop stop-color="white"/>
<stop offset="0.505" stop-color="#C5A6FF"/>
<stop offset="1" stop-color="white"/>
</linearGradient>
</defs>
</svg>
