<svg width="1794" height="140" viewBox="0 0 1794 140" fill="none" xmlns="http://www.w3.org/2000/svg">
<path opacity="0.08" d="M58.1602 136.412H0.515235V0.62599H33.0892V106.949H62.3692C75.9112 106.949 82.8652 106.034 91.4662 104.936V133.85C83.4142 135.863 68.5912 136.412 58.1602 136.412ZM101.801 35.762H133.46V136.412H101.801V35.762ZM133.46 25.148H101.801V0.62599H133.46V25.148ZM148.266 136.412V35.762H180.291V41.618C184.866 37.775 194.016 34.115 202.8 33.383H205.728C230.25 33.383 241.596 49.853 241.779 74.924V136.412H209.754V88.649C209.754 67.604 204.63 63.944 195.663 64.31C188.709 64.676 185.598 66.506 180.291 70.532V136.412H148.266ZM288.407 106.034V136.412H256.565V0.62599H288.407V65.225L315.857 35.762H353.555L317.321 74.558L358.313 136.412H321.164L296.093 97.616L288.407 106.034ZM414.231 0.62599H466.02C503.169 0.62599 523.299 18.194 523.299 48.389C523.299 73.277 503.718 95.054 469.68 95.054H446.622V136.412H414.231V0.62599ZM446.622 65.957H471.144C485.052 65.957 491.64 56.624 491.64 47.657C491.64 37.775 484.503 29.906 471.51 29.906H446.622V65.957ZM606.197 136.412V127.628C600.158 133.85 590.642 137.693 580.028 137.693C553.31 137.693 531.716 121.223 532.631 85.538C533.729 49.487 556.421 32.651 581.309 33.749C591.923 34.298 600.707 39.056 606.197 44.912V35.762H637.856V136.412H606.197ZM583.871 109.694C594.668 109.694 602.903 104.57 605.099 93.407C605.282 92.675 605.465 89.198 605.465 88.466C605.465 71.264 596.315 61.748 584.603 61.748C574.721 61.199 564.29 69.068 564.29 85.538C564.29 101.459 572.708 109.694 583.871 109.694ZM695.406 94.139C695.406 101.825 696.321 105.485 700.347 106.949C703.092 107.864 705.471 107.681 711.327 105.668L716.634 133.667C707.118 138.059 691.746 139.706 680.949 135.497C668.322 130.373 663.747 119.21 663.747 99.995V64.31H647.277V35.762H663.747V0.62599H695.406V35.762H715.902V64.31H695.406V94.139ZM726.039 136.412V0.62599H758.064V40.52C762.639 36.677 771.606 33.749 780.39 33.017H782.769C807.291 33.017 820.284 50.768 820.284 74.924V136.412H788.259V86.819C788.259 67.97 782.586 63.029 773.253 63.944C767.031 64.493 762.09 66.872 758.064 71.081V136.412H726.039ZM1031.42 136.412H973.775V0.62599H1006.35V106.949H1035.63C1049.17 106.949 1056.12 106.034 1064.73 104.936V133.85C1056.67 135.863 1041.85 136.412 1031.42 136.412ZM1075.06 35.762H1106.72V136.412H1075.06V35.762ZM1106.72 25.148H1075.06V0.62599H1106.72V25.148ZM1121.53 136.412V35.762H1153.55V41.618C1158.13 37.775 1167.28 34.115 1176.06 33.383H1178.99C1203.51 33.383 1214.86 49.853 1215.04 74.924V136.412H1183.01V88.649C1183.01 67.604 1177.89 63.944 1168.92 64.31C1161.97 64.676 1158.86 66.506 1153.55 70.532V136.412H1121.53ZM1261.67 106.034V136.412H1229.82V0.62599H1261.67V65.225L1289.12 35.762H1326.81L1290.58 74.558L1331.57 136.412H1294.42L1269.35 97.616L1261.67 106.034ZM1387.49 0.62599H1439.28C1476.43 0.62599 1496.56 18.194 1496.56 48.389C1496.56 73.277 1476.98 95.054 1442.94 95.054H1419.88V136.412H1387.49V0.62599ZM1419.88 65.957H1444.4C1458.31 65.957 1464.9 56.624 1464.9 47.657C1464.9 37.775 1457.76 29.906 1444.77 29.906H1419.88V65.957ZM1579.46 136.412V127.628C1573.42 133.85 1563.9 137.693 1553.29 137.693C1526.57 137.693 1504.98 121.223 1505.89 85.538C1506.99 49.487 1529.68 32.651 1554.57 33.749C1565.18 34.298 1573.97 39.056 1579.46 44.912V35.762H1611.12V136.412H1579.46ZM1557.13 109.694C1567.93 109.694 1576.16 104.57 1578.36 93.407C1578.54 92.675 1578.72 89.198 1578.72 88.466C1578.72 71.264 1569.57 61.748 1557.86 61.748C1547.98 61.199 1537.55 69.068 1537.55 85.538C1537.55 101.459 1545.97 109.694 1557.13 109.694ZM1668.67 94.139C1668.67 101.825 1669.58 105.485 1673.61 106.949C1676.35 107.864 1678.73 107.681 1684.59 105.668L1689.89 133.667C1680.38 138.059 1665.01 139.706 1654.21 135.497C1641.58 130.373 1637.01 119.21 1637.01 99.995V64.31H1620.54V35.762H1637.01V0.62599H1668.67V35.762H1689.16V64.31H1668.67V94.139ZM1699.3 136.412V0.62599H1731.32V40.52C1735.9 36.677 1744.87 33.749 1753.65 33.017H1756.03C1780.55 33.017 1793.54 50.768 1793.54 74.924V136.412H1761.52V86.819C1761.52 67.97 1755.85 63.029 1746.51 63.944C1740.29 64.493 1735.35 66.872 1731.32 71.081V136.412H1699.3Z" fill="#207FFC"/>
</svg>
