<svg width="148" height="16" viewBox="0 0 148 16" fill="none" xmlns="http://www.w3.org/2000/svg">
<path d="M4.20703 4.32422C4.20703 4.80078 4.30078 5.25977 4.48828 5.70117C4.67969 6.14258 4.96094 6.53516 5.33203 6.87891C5.70703 7.21875 6.16016 7.48047 6.69141 7.66406L5.97656 8.68359C5.41406 8.46875 4.92773 8.16406 4.51758 7.76953C4.11133 7.375 3.79492 6.91406 3.56836 6.38672C3.33398 6.98047 3 7.49609 2.56641 7.93359C2.13672 8.37109 1.61719 8.70312 1.00781 8.92969L0.316406 7.89844C0.867188 7.71094 1.33398 7.43555 1.7168 7.07227C2.10352 6.70898 2.39453 6.28906 2.58984 5.8125C2.78906 5.33594 2.89062 4.83594 2.89453 4.3125V3.10547H4.20703V4.32422ZM9.22266 10.3242H7.92188V5.85938H5.8125V4.79297H7.92188V2.46094H9.22266V10.3242ZM9.45703 12.832H2.23828V9.46875H3.5625V11.7773H9.45703V12.832ZM13.2656 3.44531H17.8359V2.61328H19.125V6.14062H11.9766V2.61328H13.2656V3.44531ZM17.8359 5.16797V4.39453H13.2656V5.16797H17.8359ZM20.3789 7.86328H16.1836V8.64844H19.1719V11.2148H13.1484V11.9531H19.4648V12.9492H11.8711V10.3008H17.8945V9.60938H11.8594V8.64844H14.8828V7.86328H10.7227V6.79688H20.3789V7.86328ZM29.9648 10.1953H28.6641V6.31641H26.7891V5.26172H28.6641V2.46094H29.9648V10.1953ZM30.2344 12.832H23.0156V9.51562H24.3164V11.7773H30.2344V12.832ZM24.9844 4.57031C24.9844 5.00391 25.0801 5.42773 25.2715 5.8418C25.4629 6.25195 25.7461 6.62109 26.1211 6.94922C26.4961 7.27344 26.9492 7.52344 27.4805 7.69922L26.8242 8.74219C26.2461 8.54297 25.7461 8.25391 25.3242 7.875C24.9062 7.49219 24.5781 7.04492 24.3398 6.5332C24.1016 7.10352 23.7617 7.59961 23.3203 8.02148C22.8789 8.43945 22.3516 8.75391 21.7383 8.96484L21.0703 7.91016C21.6172 7.73047 22.084 7.46875 22.4707 7.125C22.8613 6.77734 23.1562 6.38281 23.3555 5.94141C23.5586 5.49609 23.6602 5.03516 23.6602 4.55859V4.27734H21.457V3.22266H27.1758V4.27734H24.9844V4.57031ZM35.2617 5.46094C35.2617 6.01562 35.3672 6.57422 35.5781 7.13672C35.793 7.69922 36.0996 8.21094 36.498 8.67188C36.9004 9.13281 37.3711 9.48828 37.9102 9.73828L37.1836 10.7695C36.6016 10.4961 36.0918 10.0957 35.6543 9.56836C35.2168 9.03711 34.875 8.42969 34.6289 7.74609C34.3828 8.49219 34.0332 9.1543 33.5801 9.73242C33.127 10.3105 32.6016 10.7422 32.0039 11.0273L31.2422 10.0078C31.7852 9.75 32.2617 9.37695 32.6719 8.88867C33.0859 8.40039 33.4023 7.85547 33.6211 7.25391C33.8438 6.65234 33.957 6.05469 33.9609 5.46094V4.57031H31.6523V3.49219H37.4766V4.57031H35.2617V5.46094ZM39.7617 6.57422H41.3906V7.66406H39.7617V13.043H38.4609V2.44922H39.7617V6.57422ZM45.832 5.46094C45.832 6.04297 45.9414 6.61914 46.1602 7.18945C46.3828 7.75586 46.6992 8.26562 47.1094 8.71875C47.5234 9.16797 48.0078 9.50781 48.5625 9.73828L47.8477 10.7695C47.2344 10.5078 46.7012 10.1152 46.248 9.5918C45.7949 9.06836 45.4434 8.46094 45.1934 7.76953C44.9434 8.51172 44.5898 9.16992 44.1328 9.74414C43.6797 10.3145 43.1484 10.7422 42.5391 11.0273L41.7891 10.0078C42.332 9.75781 42.8086 9.39062 43.2188 8.90625C43.6328 8.42188 43.9512 7.87891 44.1738 7.27734C44.3965 6.67188 44.5078 6.06641 44.5078 5.46094V4.57031H42.1758V3.49219H48.1523V4.57031H45.832V5.46094ZM50.6484 13.043H49.3359V2.44922H50.6484V13.043ZM54.6797 9.70312H59.3789V8.48438H60.668V12.9141H53.4023V8.48438H54.6797V9.70312ZM59.3789 11.8594V10.7109H54.6797V11.8594H59.3789ZM60.7031 3.72656C60.7031 4.27344 60.6875 4.76172 60.6562 5.19141C60.6289 5.61719 60.5586 6.10547 60.4453 6.65625H61.8867V7.69922H52.207V6.65625H59.1562C59.2578 6.15234 59.3242 5.69141 59.3555 5.27344C59.3867 4.85156 59.4023 4.41016 59.4023 3.94922H53.4023V2.90625H60.7031V3.72656ZM68.0977 3.32812C68.0977 3.77344 68.2539 4.20703 68.5664 4.62891C68.8828 5.05078 69.3242 5.41211 69.8906 5.71289C70.4609 6.01367 71.1133 6.21094 71.8477 6.30469L71.332 7.35938C70.4414 7.22656 69.6523 6.95312 68.9648 6.53906C68.2773 6.12109 67.7598 5.61133 67.4121 5.00977C67.0645 5.61133 66.5488 6.12109 65.8652 6.53906C65.1816 6.95312 64.3984 7.22656 63.5156 7.35938L63 6.30469C63.7266 6.21094 64.373 6.01367 64.9395 5.71289C65.5059 5.41211 65.9453 5.05078 66.2578 4.62891C66.5703 4.20703 66.7266 3.77344 66.7266 3.32812V2.78906H68.0977V3.32812ZM72.2344 9.35156H68.0273V13.043H66.7383V9.35156H62.5781V8.27344H72.2344V9.35156ZM81.3047 5.42578H82.793V6.50391H81.3047V10.1133H80.0039V2.44922H81.3047V5.42578ZM78.1406 4.37109H74.6836V7.25391H74.9062C75.8594 7.25391 76.6387 7.23047 77.2441 7.18359C77.8535 7.13672 78.4531 7.05078 79.043 6.92578L79.1836 7.98047C78.5078 8.11328 77.8125 8.20312 77.0977 8.25C76.3828 8.29688 75.4336 8.32031 74.25 8.32031H73.3945V3.32812H78.1406V4.37109ZM81.7266 12.832H74.5195V9.30469H75.8203V11.7773H81.7266V12.832ZM95.8359 8.42578H86.168V7.35938H95.8359V8.42578ZM94.7227 6.52734H87.3516V2.78906H94.6641V3.84375H88.6523V5.48438H94.7227V6.52734ZM90.9844 9.16406C91.7422 9.16016 92.3945 9.23438 92.9414 9.38672C93.4922 9.53516 93.9141 9.75391 94.207 10.043C94.5 10.332 94.6484 10.6797 94.6523 11.0859C94.6484 11.4961 94.5 11.8457 94.207 12.1348C93.9141 12.4277 93.4941 12.6504 92.9473 12.8027C92.4004 12.9551 91.7461 13.0312 90.9844 13.0312C90.2148 13.0312 89.5527 12.9551 88.998 12.8027C88.4473 12.6504 88.0254 12.4277 87.7324 12.1348C87.4395 11.8457 87.293 11.4961 87.293 11.0859C87.293 10.6797 87.4395 10.332 87.7324 10.043C88.0254 9.75391 88.4492 9.53516 89.0039 9.38672C89.5586 9.23438 90.2188 9.16016 90.9844 9.16406ZM90.9844 10.1602C90.2109 10.1602 89.6211 10.2402 89.2148 10.4004C88.8086 10.5566 88.6094 10.7852 88.6172 11.0859C88.6133 11.3945 88.8125 11.6289 89.2148 11.7891C89.6172 11.9453 90.207 12.0234 90.9844 12.0234C91.7461 12.0234 92.3301 11.9453 92.7363 11.7891C93.1426 11.6289 93.3477 11.3945 93.3516 11.0859C93.3477 10.7891 93.1406 10.5605 92.7305 10.4004C92.3242 10.2402 91.7422 10.1602 90.9844 10.1602ZM106.207 9.23438H96.5273V8.17969H100.723V7.30078H97.7578V4.48828H103.711V3.70312H97.7227V2.68359H105.012V5.4375H99.0469V6.28125H105.223V7.30078H102.012V8.17969H106.207V9.23438ZM105.07 12.9727H103.758V10.9336H97.6055V9.90234H105.07V12.9727ZM115.207 6.66797H116.836V7.74609H115.207V13.043H113.918V2.44922H115.207V6.66797ZM113.098 5.12109H106.852V4.07812H109.359V2.60156H110.66V4.07812H113.098V5.12109ZM110.016 5.8125C110.52 5.8125 110.973 5.91992 111.375 6.13477C111.781 6.3457 112.1 6.64062 112.33 7.01953C112.561 7.39844 112.676 7.82812 112.676 8.30859C112.676 8.78906 112.561 9.21875 112.33 9.59766C112.1 9.97266 111.781 10.2656 111.375 10.4766C110.973 10.6875 110.52 10.793 110.016 10.793C109.504 10.793 109.045 10.6875 108.639 10.4766C108.232 10.2656 107.914 9.97266 107.684 9.59766C107.453 9.21875 107.34 8.78906 107.344 8.30859C107.34 7.82812 107.453 7.39844 107.684 7.01953C107.914 6.64062 108.232 6.3457 108.639 6.13477C109.045 5.91992 109.504 5.8125 110.016 5.8125ZM110.016 6.87891C109.738 6.87891 109.49 6.9375 109.271 7.05469C109.057 7.17188 108.889 7.33984 108.768 7.55859C108.646 7.77344 108.586 8.02344 108.586 8.30859C108.586 8.59375 108.646 8.84375 108.768 9.05859C108.889 9.26953 109.057 9.43359 109.271 9.55078C109.49 9.66406 109.738 9.71875 110.016 9.71484C110.285 9.71875 110.525 9.66406 110.736 9.55078C110.951 9.43359 111.119 9.26953 111.24 9.05859C111.365 8.84375 111.43 8.59375 111.434 8.30859C111.43 8.02344 111.365 7.77344 111.24 7.55859C111.119 7.34375 110.951 7.17773 110.736 7.06055C110.525 6.93945 110.285 6.87891 110.016 6.87891ZM126.129 13.043H124.816V2.44922H126.129V13.043ZM122.965 3.57422C122.965 5.25781 122.584 6.73633 121.822 8.00977C121.061 9.2793 119.797 10.332 118.031 11.168L117.352 10.125C118.715 9.47656 119.74 8.70117 120.428 7.79883C121.119 6.89258 121.523 5.82812 121.641 4.60547H117.891V3.57422H122.965Z" fill="#FF981F"/>
<path d="M137.479 10.9422L140.426 7.99612L137.479 5.05003C137.183 4.75391 137.183 4.27555 137.479 3.97942C137.776 3.68329 138.254 3.68329 138.55 3.97942L142.035 7.46461C142.331 7.76074 142.331 8.2391 142.035 8.53523L138.55 12.0204C138.254 12.3165 137.776 12.3165 137.479 12.0204C137.191 11.7243 137.183 11.2383 137.479 10.9422Z" fill="#FF981F"/>
</svg>
