<svg width="360" height="212" viewBox="0 0 360 212" fill="none" xmlns="http://www.w3.org/2000/svg">
<rect width="360" height="212" rx="24" fill="url(#paint0_linear_6838_287515)"/>
<rect x="2.25" y="2.25" width="355.5" height="207.5" rx="21.75" stroke="url(#paint1_linear_6838_287515)" stroke-opacity="0.4" stroke-width="4.5"/>
<path d="M51.0273 118.762V121.523H43.8086V126.828H53.5156V129.672H30.7383V126.828H40.3359V121.523H33.418V109.383H50.8359V112.172H36.918V118.762H51.0273ZM75.7734 107.633V121.004H72.2734V107.633H75.7734ZM62.5664 122.098V124.422H72.3008V122.098H75.7734V132.242H59.1211V122.098H62.5664ZM62.5664 129.426H72.3008V127.129H62.5664V129.426ZM62.1289 108.672C66.0117 108.645 68.9375 111.078 68.9375 114.578C68.9375 117.969 66.0117 120.402 62.1289 120.402C58.2461 120.402 55.3203 117.969 55.3203 114.578C55.3203 111.078 58.2461 108.645 62.1289 108.672ZM62.1289 111.57C60.1328 111.57 58.7109 112.691 58.7383 114.578C58.7109 116.437 60.1328 117.531 62.1289 117.531C64.0703 117.531 65.4922 116.437 65.4922 114.578C65.4922 112.691 64.0703 111.57 62.1289 111.57ZM99.9727 107.633V132.57H96.4453V107.633H99.9727ZM83.8672 109.602V115.672H89.2266V109.602H92.6719V126.746H80.3672V109.602H83.8672ZM83.8672 123.93H89.2266V118.379H83.8672V123.93ZM110.609 130L110.582 127.02L117.691 120.484C119.551 118.707 120.535 117.613 120.535 116.055C120.535 114.305 119.195 113.211 117.391 113.211C115.531 113.211 114.328 114.387 114.328 116.273H110.418C110.391 112.391 113.262 109.93 117.445 109.93C121.684 109.93 124.5 112.336 124.5 115.781C124.5 118.023 123.406 119.883 119.332 123.574L116.324 126.5V126.609H124.773V130H110.609ZM135.383 130.273C130.434 130.273 127.426 126.582 127.426 120.102C127.426 113.621 130.434 109.93 135.383 109.93C140.332 109.93 143.34 113.648 143.34 120.102C143.34 126.609 140.332 130.273 135.383 130.273ZM135.383 126.883C137.68 126.883 139.156 124.668 139.129 120.102C139.129 115.59 137.68 113.293 135.383 113.293C133.086 113.293 131.637 115.59 131.637 120.102C131.609 124.668 133.086 126.883 135.383 126.883ZM153.867 130.273C148.918 130.273 145.91 126.582 145.91 120.102C145.91 113.621 148.918 109.93 153.867 109.93C158.816 109.93 161.824 113.648 161.824 120.102C161.824 126.609 158.816 130.273 153.867 130.273ZM153.867 126.883C156.164 126.883 157.641 124.668 157.613 120.102C157.613 115.59 156.164 113.293 153.867 113.293C151.57 113.293 150.121 115.59 150.121 120.102C150.094 124.668 151.57 126.883 153.867 126.883ZM176.535 109.684V121.633H164.586V109.684H176.535ZM168.031 112.473V118.898H173.09V112.473H168.031ZM183.59 107.633V114.797H186.953V117.668H183.59V125.789H180.09V107.633H183.59ZM184.492 129.289V132.078H167.457V124.012H170.93V129.289H184.492ZM209.129 107.66V126.445H205.629V124.477H200.871V122.098H205.629V107.66H209.129ZM209.676 129.289V132.078H191.137V124.641H194.609V121.332C192.381 121.428 190.262 121.441 188.375 121.441L187.965 118.68C192.531 118.652 198.684 118.598 203.934 117.941L204.125 120.43C202.156 120.758 200.119 120.99 198.109 121.141V125.871H194.609V129.289H209.676ZM196.059 108.508C199.668 108.48 202.266 110.312 202.266 112.965C202.266 115.617 199.668 117.34 196.059 117.34C192.367 117.34 189.797 115.617 189.797 112.965C189.797 110.312 192.34 108.48 196.059 108.508ZM196.059 111.051C194.281 111.051 193.078 111.734 193.105 112.965C193.078 114.168 194.281 114.824 196.059 114.824C197.727 114.824 198.93 114.168 198.957 112.965C198.93 111.734 197.727 111.051 196.059 111.051ZM51.8203 147.66V162.07H48.3203V161.277H43.8086V159.172H48.3203V147.66H51.8203ZM30.7383 156.41C35.5508 156.437 41.5117 156.383 46.8438 155.891L47.0078 158.051C44.8066 158.352 42.5508 158.543 40.3359 158.652V162.125H36.8906V158.789C34.8535 158.844 32.8984 158.844 31.0938 158.816L30.7383 156.41ZM51.8203 162.809V168.633H37.8203V169.918H52.3945V172.352H34.4023V166.391H48.3477V165.16H34.293V162.809H51.8203ZM38.75 147.988C42.4414 147.988 44.9844 149.492 45.0117 151.734C44.9844 154.059 42.4414 155.453 38.75 155.453C34.9492 155.453 32.4336 154.059 32.4336 151.734C32.4336 149.492 34.9492 147.988 38.75 147.988ZM38.75 150.285C36.8633 150.258 35.7148 150.832 35.7422 151.734C35.7148 152.664 36.8633 153.184 38.75 153.184C40.582 153.184 41.7578 152.664 41.7578 151.734C41.7578 150.832 40.582 150.258 38.75 150.285ZM62.2109 170L62.1836 167.02L69.293 160.484C71.1523 158.707 72.1367 157.613 72.1367 156.055C72.1367 154.305 70.7969 153.211 68.9922 153.211C67.1328 153.211 65.9297 154.387 65.9297 156.273H62.0195C61.9922 152.391 64.8633 149.93 69.0469 149.93C73.2852 149.93 76.1016 152.336 76.1016 155.781C76.1016 158.023 75.0078 159.883 70.9336 163.574L67.9258 166.5V166.609H76.375V170H62.2109ZM86.9844 170.273C82.0352 170.273 79.0274 166.582 79.0274 160.102C79.0274 153.621 82.0352 149.93 86.9844 149.93C91.9336 149.93 94.9414 153.648 94.9414 160.102C94.9414 166.609 91.9336 170.273 86.9844 170.273ZM86.9844 166.883C89.2813 166.883 90.7578 164.668 90.7305 160.102C90.7305 155.59 89.2813 153.293 86.9844 153.293C84.6875 153.293 83.2383 155.59 83.2383 160.102C83.2109 164.668 84.6875 166.883 86.9844 166.883ZM109.652 149.684V161.633H97.7031V149.684H109.652ZM101.148 152.473V158.898H106.207V152.473H101.148ZM116.707 147.633V154.797H120.07V157.668H116.707V165.789H113.207V147.633H116.707ZM117.609 169.289V172.078H100.574V164.012H104.047V169.289H117.609ZM142.246 147.66V166.445H138.746V164.477H133.988V162.098H138.746V147.66H142.246ZM142.793 169.289V172.078H124.254V164.641H127.727V161.332C125.498 161.428 123.379 161.441 121.492 161.441L121.082 158.68C125.648 158.652 131.801 158.598 137.051 157.941L137.242 160.43C135.273 160.758 133.236 160.99 131.227 161.141V165.871H127.727V169.289H142.793ZM129.176 148.508C132.785 148.48 135.383 150.312 135.383 152.965C135.383 155.617 132.785 157.34 129.176 157.34C125.484 157.34 122.914 155.617 122.914 152.965C122.914 150.312 125.457 148.48 129.176 148.508ZM129.176 151.051C127.398 151.051 126.195 151.734 126.223 152.965C126.195 154.168 127.398 154.824 129.176 154.824C130.844 154.824 132.047 154.168 132.074 152.965C132.047 151.734 130.844 151.051 129.176 151.051Z" fill="white"/>
<rect x="30" y="27" width="81" height="44" rx="22" fill="#0C4DB9"/>
<path d="M61.5974 53.7339V55.7334H45.7346V53.7339H49.2766V49.4873C47.9341 48.6875 47.1248 47.4592 47.1248 45.9263C47.1248 43.127 49.8669 41.2607 53.6374 41.2607C57.3889 41.2607 60.1501 43.127 60.1692 45.9263C60.1597 47.4211 59.3694 48.6399 58.0745 49.4492V53.7339H61.5974ZM53.6374 43.1841C51.1619 43.1841 49.5242 44.1743 49.5242 45.9263C49.5242 47.6211 51.1619 48.6685 53.6374 48.6685C56.094 48.6685 57.7507 47.6211 57.7698 45.9263C57.7507 44.1743 56.094 43.1841 53.6374 43.1841ZM51.676 53.7339H55.6179V50.3633C54.999 50.4871 54.3325 50.5537 53.6374 50.5537C52.9424 50.5537 52.2854 50.4966 51.676 50.3633V53.7339ZM76.5652 41.2036V42.5937C76.5652 43.9458 76.5652 45.4502 76.1653 47.4307H78.4504V49.3921H62.5876V47.4307H73.7087C74.0896 45.6978 74.1372 44.3552 74.1467 43.146H64.53V41.2036H76.5652ZM76.5081 51.2202V57.5615H64.4729V51.2202H76.5081ZM66.8533 53.1245V55.6191H74.0896V53.1245H66.8533ZM94.4275 40.4229V57.752H92.1233V40.4229H94.4275ZM90.8855 40.7085V56.9521H88.6003V48.3257H86.3152V46.3643H88.6003V40.7085H90.8855ZM84.925 45.0693C84.925 47.9448 85.8201 50.8584 88.3528 52.3057L86.9246 54.0957C85.3821 53.1816 84.3633 51.6296 83.7825 49.7729C83.1826 51.7915 82.1353 53.5054 80.5452 54.4766L79.0789 52.6865C81.6306 51.125 82.5828 48.002 82.5828 45.0693V44.1362H79.7454V42.1938H87.553V44.1362H84.925V45.0693Z" fill="white"/>
<path d="M277.57 44.1016L279.977 51.6484H280.072L282.492 44.1016H284.762L281.344 54H278.705L275.273 44.1016H277.57ZM286.238 54H284.023L287.455 44.1016H290.094L293.512 54H291.311L290.572 51.7168H286.99L286.238 54ZM287.51 50.1172H290.053L288.809 46.3301H288.74L287.51 50.1172ZM293.033 45.7969V44.1016H301.141V45.7969H298.105V54H296.068V45.7969H293.033ZM315.66 42.8164V49.2148H313.924V47.9707H311.627V48.8594H305.707V43.3496H307.457V44.7988H309.904V43.3496H311.627V44.4023H313.924V42.8164H315.66ZM315.66 49.6797V53.002H309.139V53.7539H316.029V55.1211H307.389V51.7305H313.924V51.0195H307.375V49.6797H315.66ZM307.457 47.4922H309.904V46.125H307.457V47.4922ZM311.627 46.6582H313.924V45.7012H311.627V46.6582ZM327.418 48.3809V49.7617H323.809V52.4141H328.662V53.8359H317.273V52.4141H322.072V49.7617H318.613V43.6914H327.322V45.0859H320.363V48.3809H327.418Z" fill="#384ED2"/>
<defs>
<linearGradient id="paint0_linear_6838_287515" x1="0" y1="0" x2="345.808" y2="225.484" gradientUnits="userSpaceOnUse">
<stop stop-color="#2E78F2"/>
<stop offset="1" stop-color="#826EFD"/>
</linearGradient>
<linearGradient id="paint1_linear_6838_287515" x1="1.0023e-06" y1="5.38618" x2="351.564" y2="225.678" gradientUnits="userSpaceOnUse">
<stop stop-color="white"/>
<stop offset="0.505" stop-color="#439CEF"/>
<stop offset="1" stop-color="white"/>
</linearGradient>
</defs>
</svg>
