<svg width="1517" height="153" viewBox="0 0 1517 153" fill="none" xmlns="http://www.w3.org/2000/svg">
<path d="M0.921875 151V9.59375H59.3203C90.9609 9.59375 107.367 24.0469 107.367 45.5312C107.367 61.7422 96.4297 72.875 81 76V77.3672C97.9922 78.1484 112.836 91.0391 112.836 111.547C112.836 134.398 95.0625 151 63.8125 151H0.921875ZM56 124.047C71.2344 124.047 78.0703 117.992 78.0703 107.836C78.0703 96.7031 69.8672 89.6719 56.5859 89.6719H34.125V124.047H56ZM53.8516 67.9922C65.1797 67.9922 73.3828 61.9375 73.3828 51.7812C73.3828 42.2109 66.1562 36.1562 54.2422 36.1562H34.125V67.9922H53.8516ZM178.461 152.953C145.258 152.953 124.945 132.25 124.945 98.4609C124.945 65.6484 145.453 43.5781 177.289 43.5781C206.977 43.5781 228.461 62.5234 228.461 97.6797V106.078H157.367V106.664C157.367 120.336 165.766 129.125 179.047 129.125C188.031 129.125 194.672 125.219 197.406 118.969H228.07C224.164 139.672 206 152.953 178.461 152.953ZM157.367 86.7422H197.797C197.602 75.4141 189.398 67.4062 178.07 67.4062C166.352 67.4062 157.855 75.707 157.367 86.7422ZM294.672 152.953C261.273 152.953 241.352 130.688 241.352 98.2656C241.352 65.8438 261.469 43.5781 294.672 43.5781C323.773 43.5781 342.719 60.375 343.5 86.1562H312.836C311.273 75.4141 305.023 68.5781 295.062 68.5781C282.953 68.5781 274.945 78.9297 274.945 97.875C274.945 117.016 282.758 127.367 295.062 127.367C304.438 127.367 311.469 121.312 312.836 109.984H343.5C342.523 135.766 324.164 152.953 294.672 152.953ZM355.609 121.508C355.609 98.0703 373.773 89.6719 394.867 88.3047C402.484 87.8164 415.766 87.3281 420.258 87.1328V78.5391C420.258 71.1172 414.789 67.0156 405.805 67.0156C397.016 67.0156 391.547 70.7266 390.18 77.7578H359.516C360.883 59.0078 376.898 43.5781 406.586 43.5781C432.758 43.5781 453.266 56.0781 453.266 78.9297V151H422.211V136.156H421.43C415.57 146.898 405.414 152.953 390.57 152.953C370.258 152.953 355.609 142.602 355.609 121.508ZM386.859 120.141C386.859 127.367 392.523 131.078 400.531 131.078C411.664 131.078 420.648 123.852 420.453 113.305V106.469C416.449 106.664 405.219 107.152 400.336 107.641C392.133 108.617 386.859 113.109 386.859 120.141ZM541.742 105.297V44.9453H574.555V151H543.305V131.469H542.133C537.445 144.164 525.727 152.367 509.711 152.367C488.031 152.367 473.383 136.742 473.383 112.523V44.9453H506.391V106.273C506.391 117.797 512.836 125.023 523.383 125.023C533.539 125.023 541.742 117.992 541.742 105.297ZM656.977 77.7578C656 70.7266 649.75 66.2344 640.961 66.2344C632.758 66.2344 626.312 69.9453 626.508 75.4141C626.312 79.5156 629.438 82.8359 638.617 84.5938L658.734 88.5C679.828 92.6016 689.984 101.781 690.18 117.211C689.984 138.891 670.062 152.953 641.352 152.953C611.078 152.953 593.305 139.477 591.156 118.383H623.969C625.141 126 631.781 130.102 641.547 130.102C650.531 130.102 656.586 126.586 656.781 120.727C656.586 116.039 652.484 113.109 643.305 111.156L625.141 107.836C604.242 103.93 593.695 93.3828 593.891 77.1719C593.695 56.0781 611.664 43.5781 640.375 43.5781C668.891 43.5781 686.273 56.6641 687.641 77.7578H656.977ZM755.805 152.953C722.602 152.953 702.289 132.25 702.289 98.4609C702.289 65.6484 722.797 43.5781 754.633 43.5781C784.32 43.5781 805.805 62.5234 805.805 97.6797V106.078H734.711V106.664C734.711 120.336 743.109 129.125 756.391 129.125C765.375 129.125 772.016 125.219 774.75 118.969H805.414C801.508 139.672 783.344 152.953 755.805 152.953ZM734.711 86.7422H775.141C774.945 75.4141 766.742 67.4062 755.414 67.4062C743.695 67.4062 735.199 75.707 734.711 86.7422ZM900.922 9.59375V151H867.719V9.59375H900.922ZM967.133 151V9.59375H1000.34V123.852H1059.71V151H967.133ZM1076.9 151V44.9453H1109.91V151H1076.9ZM1093.5 32.25C1084.12 32.25 1076.51 25.2188 1076.51 16.4297C1076.51 7.64062 1084.12 0.609375 1093.5 0.609375C1102.88 0.609375 1110.69 7.64062 1110.69 16.4297C1110.69 25.2188 1102.88 32.25 1093.5 32.25ZM1131 151V9.59375H1164.01V83.4219H1165.38L1196.04 44.9453H1233.54L1195.45 91.0391L1235.1 151H1197.02L1171.04 110.375L1164.01 118.578V151H1131ZM1290.38 152.953C1257.17 152.953 1236.86 132.25 1236.86 98.4609C1236.86 65.6484 1257.37 43.5781 1289.2 43.5781C1318.89 43.5781 1340.38 62.5234 1340.38 97.6797V106.078H1269.28V106.664C1269.28 120.336 1277.68 129.125 1290.96 129.125C1299.95 129.125 1306.59 125.219 1309.32 118.969H1339.98C1336.08 139.672 1317.91 152.953 1290.38 152.953ZM1269.28 86.7422H1309.71C1309.52 75.4141 1301.31 67.4062 1289.98 67.4062C1278.27 67.4062 1269.77 75.707 1269.28 86.7422ZM1402.09 151V44.9453H1435.1V151H1402.09ZM1418.7 32.25C1409.32 32.25 1401.7 25.2188 1401.7 16.4297C1401.7 7.64062 1409.32 0.609375 1418.7 0.609375C1428.07 0.609375 1435.88 7.64062 1435.88 16.4297C1435.88 25.2188 1428.07 32.25 1418.7 32.25ZM1515.38 44.9453V69.1641H1496.04V117.797C1496.04 124.438 1499.36 126.391 1505.02 126.586C1507.76 126.781 1513.03 126.391 1516.74 126.195V151.391C1513.62 151.781 1508.15 152.562 1500.34 152.562C1477.09 152.562 1463.03 142.992 1463.23 121.508V69.1641H1448.97V44.9453H1463.23V19.5547H1496.04V44.9453H1515.38Z" fill="#111111"/>
</svg>
