<svg width="686" height="379" viewBox="0 0 686 379" fill="none" xmlns="http://www.w3.org/2000/svg">
<path d="M137.414 0.1875L210.852 0.1875L210.852 194.328C210.461 249.797 167.102 286.906 104.992 286.906C51.0859 286.906 6.94531 259.953 7.33594 195.891H81.5547C82.3359 217.375 92.4922 228.703 109.68 228.703C127.648 228.703 137.023 216.984 137.414 194.328L137.414 0.1875ZM322.961 0.1875L322.961 283L248.742 283L248.742 0.1875L322.961 0.1875ZM604.602 0.1875L604.602 283H542.492L437.414 130.266H435.461V283H361.242L361.242 0.1875L424.523 0.1875L528.039 152.141H530.383V0.1875L604.602 0.1875Z" fill="#A5A5A5" fill-opacity="0.1"/>
</svg>
