<svg width="14" height="14" viewBox="0 0 14 14" fill="none" xmlns="http://www.w3.org/2000/svg">
<circle cx="7" cy="7" r="7" fill="#98A2B3"/>
<path fill-rule="evenodd" clip-rule="evenodd" d="M4.88279 4.31735C4.72658 4.16114 4.47332 4.16114 4.31711 4.31735C4.1609 4.47356 4.1609 4.72683 4.31711 4.88304L6.43426 7.00019L4.31711 9.11735C4.1609 9.27356 4.1609 9.52682 4.31711 9.68303C4.47332 9.83924 4.72658 9.83924 4.88279 9.68303L6.99995 7.56588L9.1171 9.68303C9.27331 9.83924 9.52658 9.83924 9.68279 9.68303C9.839 9.52682 9.839 9.27356 9.68279 9.11735L7.56563 7.00019L9.68279 4.88304C9.839 4.72683 9.839 4.47356 9.68279 4.31735C9.52658 4.16114 9.27331 4.16114 9.1171 4.31735L6.99995 6.43451L4.88279 4.31735Z" fill="white"/>
<path d="M4.88279 4.31735L5.09493 4.10522V4.10522L4.88279 4.31735ZM4.31711 4.88304L4.10498 5.09517H4.10498L4.31711 4.88304ZM6.43426 7.00019L6.6464 7.21233L6.85853 7.00019L6.6464 6.78806L6.43426 7.00019ZM4.31711 9.11735L4.52924 9.32948H4.52924L4.31711 9.11735ZM4.31711 9.68303L4.52924 9.4709L4.52924 9.4709L4.31711 9.68303ZM4.88279 9.68303L4.67066 9.4709H4.67066L4.88279 9.68303ZM6.99995 7.56588L7.21208 7.35375L6.99995 7.14161L6.78782 7.35375L6.99995 7.56588ZM9.1171 9.68303L9.32924 9.4709L9.32924 9.4709L9.1171 9.68303ZM9.68279 9.68303L9.47066 9.4709L9.47066 9.4709L9.68279 9.68303ZM9.68279 9.11735L9.47066 9.32948L9.47066 9.32948L9.68279 9.11735ZM7.56563 7.00019L7.3535 6.78806L7.14137 7.00019L7.3535 7.21233L7.56563 7.00019ZM9.68279 4.88304L9.89492 5.09517V5.09517L9.68279 4.88304ZM9.68279 4.31735L9.89492 4.10522V4.10522L9.68279 4.31735ZM9.1171 4.31735L8.90497 4.10522V4.10522L9.1171 4.31735ZM6.99995 6.43451L6.78782 6.64664L6.99995 6.85877L7.21208 6.64664L6.99995 6.43451ZM4.52924 4.52948C4.56829 4.49043 4.63161 4.49043 4.67066 4.52948L5.09493 4.10522C4.82156 3.83185 4.37834 3.83185 4.10498 4.10522L4.52924 4.52948ZM4.52924 4.67091C4.49019 4.63185 4.49019 4.56854 4.52924 4.52948L4.10498 4.10522C3.83161 4.37859 3.83161 4.8218 4.10498 5.09517L4.52924 4.67091ZM6.6464 6.78806L4.52924 4.67091L4.10498 5.09517L6.22213 7.21233L6.6464 6.78806ZM4.52924 9.32948L6.6464 7.21233L6.22213 6.78806L4.10498 8.90522L4.52924 9.32948ZM4.52924 9.4709C4.49019 9.43185 4.49019 9.36853 4.52924 9.32948L4.10498 8.90522C3.83161 9.17858 3.83161 9.6218 4.10498 9.89517L4.52924 9.4709ZM4.67066 9.4709C4.63161 9.50995 4.56829 9.50995 4.52924 9.4709L4.10498 9.89517C4.37834 10.1685 4.82156 10.1685 5.09493 9.89517L4.67066 9.4709ZM6.78782 7.35375L4.67066 9.4709L5.09493 9.89517L7.21208 7.77801L6.78782 7.35375ZM9.32924 9.4709L7.21208 7.35375L6.78782 7.77801L8.90497 9.89517L9.32924 9.4709ZM9.47066 9.4709C9.43161 9.50995 9.36829 9.50995 9.32924 9.4709L8.90497 9.89517C9.17834 10.1685 9.62156 10.1685 9.89492 9.89517L9.47066 9.4709ZM9.47066 9.32948C9.50971 9.36853 9.50971 9.43185 9.47066 9.4709L9.89492 9.89517C10.1683 9.6218 10.1683 9.17858 9.89492 8.90522L9.47066 9.32948ZM7.3535 7.21233L9.47066 9.32948L9.89492 8.90522L7.77777 6.78806L7.3535 7.21233ZM9.47066 4.67091L7.3535 6.78806L7.77777 7.21233L9.89492 5.09517L9.47066 4.67091ZM9.47066 4.52948C9.50971 4.56854 9.50971 4.63185 9.47066 4.67091L9.89492 5.09517C10.1683 4.8218 10.1683 4.37859 9.89492 4.10522L9.47066 4.52948ZM9.32924 4.52948C9.36829 4.49043 9.43161 4.49043 9.47066 4.52948L9.89492 4.10522C9.62155 3.83185 9.17834 3.83185 8.90497 4.10522L9.32924 4.52948ZM7.21208 6.64664L9.32924 4.52948L8.90497 4.10522L6.78782 6.22238L7.21208 6.64664ZM4.67066 4.52948L6.78782 6.64664L7.21208 6.22238L5.09493 4.10522L4.67066 4.52948Z" fill="white"/>
</svg>
