<svg width="18" height="18" viewBox="0 0 18 18" fill="none" xmlns="http://www.w3.org/2000/svg">
<path fill-rule="evenodd" clip-rule="evenodd" d="M3.93751 2.25H6.255C6.70386 2.25 7.13422 2.42881 7.4509 2.7469C7.76758 3.06499 7.94449 3.49614 7.9425 3.94499V6.25499C7.9425 7.18696 7.18698 7.94248 6.255 7.94248H3.93751C3.00553 7.94248 2.25002 7.18696 2.25002 6.25499V3.94499C2.24802 3.49614 2.42493 3.06499 2.74161 2.7469C3.0583 2.42881 3.48866 2.25 3.93751 2.25ZM6.255 6.80998C6.56397 6.80594 6.81346 6.55646 6.8175 6.24749V3.94499C6.8175 3.63433 6.56566 3.3825 6.255 3.3825H3.93751C3.62685 3.3825 3.37501 3.63433 3.37501 3.94499V6.24749C3.37905 6.55646 3.62854 6.80594 3.93751 6.80998H6.255Z" fill="black"/>
<path fill-rule="evenodd" clip-rule="evenodd" d="M11.745 2.25H14.0625C14.5113 2.25 14.9417 2.42881 15.2584 2.7469C15.5751 3.06499 15.752 3.49614 15.75 3.94499V6.25499C15.75 7.18696 14.9945 7.94248 14.0625 7.94248H11.745C10.813 7.94248 10.0575 7.18696 10.0575 6.25499V3.93749C10.0575 3.00552 10.813 2.25 11.745 2.25ZM14.0625 6.80998C14.3715 6.80594 14.6209 6.55646 14.625 6.24749V3.94499C14.625 3.63433 14.3731 3.3825 14.0625 3.3825H11.745C11.4343 3.3825 11.1825 3.63433 11.1825 3.94499V6.24749C11.1865 6.55646 11.436 6.80594 11.745 6.80998H14.0625Z" fill="black"/>
<path fill-rule="evenodd" clip-rule="evenodd" d="M3.93751 10.0575H6.255C7.18698 10.0575 7.9425 10.813 7.9425 11.745V14.0625C7.9425 14.9944 7.18698 15.75 6.255 15.75H3.93751C3.48866 15.75 3.0583 15.5711 2.74161 15.253C2.42493 14.935 2.24802 14.5038 2.25002 14.055V11.745C2.25002 10.813 3.00553 10.0575 3.93751 10.0575ZM6.255 14.6175C6.56566 14.6175 6.8175 14.3656 6.8175 14.055V11.745C6.81346 11.436 6.56397 11.1865 6.255 11.1825H3.93751C3.62854 11.1865 3.37905 11.436 3.37501 11.745V14.055C3.37501 14.3656 3.62685 14.6175 3.93751 14.6175H6.255Z" fill="black"/>
<path fill-rule="evenodd" clip-rule="evenodd" d="M11.745 10.0575H14.0625C14.9944 10.0575 15.75 10.813 15.75 11.745V14.055C15.752 14.5038 15.5751 14.935 15.2584 15.253C14.9417 15.5711 14.5113 15.75 14.0625 15.75H11.745C11.2961 15.75 10.8658 15.5711 10.5491 15.253C10.2324 14.935 10.0555 14.5038 10.0575 14.055V11.745C10.0575 10.813 10.813 10.0575 11.745 10.0575ZM14.0625 14.6175C14.3731 14.6175 14.625 14.3656 14.625 14.055V11.745C14.6209 11.436 14.3714 11.1865 14.0625 11.1825H11.745C11.436 11.1865 11.1865 11.436 11.1825 11.745V14.055C11.1825 14.3656 11.4343 14.6175 11.745 14.6175H14.0625Z" fill="black"/>
</svg>
