<svg width="20" height="20" viewBox="0 0 20 20" fill="none" xmlns="http://www.w3.org/2000/svg">
<path d="M16.8253 3.18611C16.4028 2.76361 15.7203 2.76361 15.2978 3.18611L10.0003 8.47277L4.70277 3.17527C4.28027 2.75277 3.59777 2.75277 3.17527 3.17527C2.75277 3.59777 2.75277 4.28027 3.17527 4.70277L8.47277 10.0003L3.17527 15.2978C2.75277 15.7203 2.75277 16.4028 3.17527 16.8253C3.59777 17.2478 4.28027 17.2478 4.70277 16.8253L10.0003 11.5278L15.2978 16.8253C15.7203 17.2478 16.4028 17.2478 16.8253 16.8253C17.2478 16.4028 17.2478 15.7203 16.8253 15.2978L11.5278 10.0003L16.8253 4.70277C17.2369 4.29111 17.2369 3.59777 16.8253 3.18611Z" fill="white"/>
</svg>
