<svg width="16" height="16" viewBox="0 0 16 16" fill="none" xmlns="http://www.w3.org/2000/svg">
<path fill-rule="evenodd" clip-rule="evenodd" d="M8.61974 0.745879C8.61974 0.399213 8.34418 0.123657 7.99752 0.123657C7.65085 0.123657 7.3753 0.399213 7.3753 0.745879V1.2881C7.20641 1.30588 7.02863 1.34143 6.85974 1.37699C4.64641 1.88366 2.93974 3.77699 2.71752 6.02588C2.67307 6.4881 2.67307 6.95032 2.68196 7.41255C2.68196 7.58143 2.68196 7.74144 2.68196 7.91032C2.68196 8.63921 2.43307 9.27032 1.92641 9.81255C1.33085 10.4525 1.17974 11.1992 1.52641 11.9992C1.87307 12.7992 2.51307 13.2081 3.39307 13.217C3.6953 13.217 3.99752 13.217 4.30863 13.217C4.45085 13.217 4.59307 13.217 4.7353 13.217C5.15307 14.9148 6.57529 15.8303 7.89974 15.8748C9.19752 15.9192 10.7886 15.0837 11.2775 13.217C11.3042 13.217 11.3397 13.217 11.3664 13.217C11.4286 13.217 11.4909 13.217 11.562 13.217C11.6953 13.217 11.8375 13.217 11.9709 13.217C12.282 13.217 12.5842 13.2259 12.8864 13.1903C13.7042 13.0925 14.2553 12.6214 14.5309 11.8481C14.8064 11.0748 14.6197 10.3903 14.0775 9.79477C13.9531 9.65255 13.8286 9.51032 13.7309 9.35921C13.4109 8.87032 13.322 8.31921 13.322 7.73255C13.322 7.62588 13.322 7.51921 13.322 7.41255C13.322 6.82588 13.322 6.23921 13.2331 5.66144C12.8686 3.32366 10.8775 1.56366 8.61974 1.27921V0.736991V0.745879ZM9.15307 11.8925C8.77085 11.8925 8.38863 11.8925 8.00641 11.8925C7.54418 11.8925 7.08196 11.8925 6.61974 11.8925C5.54418 11.8925 4.46863 11.8925 3.39307 11.8925C2.90418 11.8925 2.5753 11.4481 2.72641 11.0037C2.75307 10.9148 2.8153 10.8348 2.87752 10.7637C3.64196 9.93699 4.02418 8.9681 4.0153 7.83921C4.0153 7.78588 4.0153 7.72366 4.0153 7.67032C4.0153 7.1281 4.00641 6.57699 4.05974 6.03477C4.23752 4.35477 5.76641 2.83477 7.44641 2.62143C9.89974 2.31921 11.9975 4.17699 12.0064 6.6481C12.0064 6.76366 12.0064 6.8881 12.0064 7.00366C12.0064 7.48366 12.0064 7.95477 12.042 8.43477C12.1131 9.33255 12.5131 10.0881 13.1175 10.7459C13.3309 10.9681 13.3842 11.2081 13.2686 11.4837C13.1442 11.7681 12.9309 11.9014 12.6109 11.9014C11.4642 11.9014 10.3175 11.9014 9.16196 11.9014L9.15307 11.8925ZM8.13974 14.5503C7.2953 14.6125 6.42418 14.0437 6.14863 13.2348H9.84641C9.72196 13.8659 8.8953 14.497 8.13974 14.5503Z" fill="#101828"/>
</svg>
