<svg width="16" height="16" viewBox="0 0 16 16" fill="none" xmlns="http://www.w3.org/2000/svg">
<path d="M3.005 13.2645C3.005 13.5922 3.13517 13.9064 3.36686 14.1381C3.59856 14.3698 3.9128 14.5 4.24047 14.5H11.6533C11.9809 14.5 12.2952 14.3698 12.5269 14.1381C12.7586 13.9064 12.8887 13.5922 12.8887 13.2645V5.42185C12.8887 5.2325 12.7352 5.07899 12.5459 5.07899H3.34786C3.1585 5.07899 3.005 5.2325 3.005 5.42185V13.2645ZM10.006 7.1381C10.006 7.02888 10.0494 6.92413 10.1266 6.8469C10.2038 6.76967 10.3086 6.72628 10.4178 6.72628C10.527 6.72628 10.6318 6.76967 10.709 6.8469C10.7862 6.92413 10.8296 7.02888 10.8296 7.1381V12.4409C10.8296 12.5501 10.7862 12.6549 10.709 12.7321C10.6318 12.8093 10.527 12.8527 10.4178 12.8527C10.3086 12.8527 10.2038 12.8093 10.1266 12.7321C10.0494 12.6549 10.006 12.5501 10.006 12.4409V7.1381ZM7.53504 7.1381C7.53504 7.02888 7.57843 6.92413 7.65566 6.8469C7.73289 6.76967 7.83764 6.72628 7.94686 6.72628C8.05609 6.72628 8.16083 6.76967 8.23807 6.8469C8.3153 6.92413 8.35869 7.02888 8.35869 7.1381V12.4409C8.35869 12.5501 8.3153 12.6549 8.23807 12.7321C8.16083 12.8093 8.05609 12.8527 7.94686 12.8527C7.83764 12.8527 7.73289 12.8093 7.65566 12.7321C7.57843 12.6549 7.53504 12.5501 7.53504 12.4409V7.1381ZM5.06411 7.1381C5.06411 7.02888 5.1075 6.92413 5.18473 6.8469C5.26196 6.76967 5.36671 6.72628 5.47593 6.72628C5.58516 6.72628 5.6899 6.76967 5.76713 6.8469C5.84437 6.92413 5.88775 7.02888 5.88775 7.1381V12.4409C5.88775 12.5501 5.84437 12.6549 5.76713 12.7321C5.6899 12.8093 5.58516 12.8527 5.47593 12.8527C5.36671 12.8527 5.26196 12.8093 5.18473 12.7321C5.1075 12.6549 5.06411 12.5501 5.06411 12.4409V7.1381ZM13.3537 2.45575H10.265L10.0401 1.84233C9.98885 1.73943 9.9099 1.65287 9.81214 1.5924C9.71437 1.53192 9.60167 1.49992 9.48671 1.5H6.54476C6.43006 1.49956 6.31756 1.53144 6.22014 1.59199C6.12273 1.65253 6.04433 1.73929 5.99395 1.84233L5.73495 2.45575H2.64629C2.53707 2.45575 2.43232 2.49913 2.35509 2.57637C2.27785 2.6536 2.23447 2.75835 2.23447 2.86757V4.02539C2.23447 4.13461 2.27785 4.23936 2.35509 4.31659C2.43232 4.39382 2.53707 4.43721 2.64629 4.43721H13.3537C13.4629 4.43721 13.5676 4.39382 13.6449 4.31659C13.7221 4.23936 13.7655 4.13461 13.7655 4.02539V2.86757C13.7655 2.75835 13.7221 2.6536 13.6449 2.57637C13.5676 2.49913 13.4629 2.45575 13.3537 2.45575Z" fill="#D0D5DD"/>
</svg>
