<svg width="14" height="14" viewBox="0 0 14 14" fill="none" xmlns="http://www.w3.org/2000/svg">
<circle cx="7" cy="7" r="7" fill="#F2F4F7"/>
<path fill-rule="evenodd" clip-rule="evenodd" d="M4.88279 4.31638C4.72658 4.16017 4.47332 4.16017 4.31711 4.31638C4.1609 4.47259 4.1609 4.72585 4.31711 4.88206L6.43427 6.99922L4.31711 9.11638C4.1609 9.27259 4.1609 9.52585 4.31711 9.68206C4.47332 9.83827 4.72658 9.83827 4.88279 9.68206L6.99995 7.5649L9.11711 9.68206C9.27332 9.83827 9.52658 9.83827 9.68279 9.68206C9.839 9.52585 9.839 9.27259 9.68279 9.11638L7.56564 6.99922L9.68279 4.88206C9.839 4.72585 9.839 4.47259 9.68279 4.31638C9.52658 4.16017 9.27332 4.16017 9.11711 4.31638L6.99995 6.43353L4.88279 4.31638Z" fill="#667085"/>
<path d="M4.88279 4.31638L5.09493 4.10424V4.10424L4.88279 4.31638ZM4.31711 4.88206L4.10498 5.09419H4.10498L4.31711 4.88206ZM6.43427 6.99922L6.6464 7.21135L6.85853 6.99922L6.6464 6.78709L6.43427 6.99922ZM4.31711 9.11638L4.52924 9.32851H4.52924L4.31711 9.11638ZM4.31711 9.68206L4.52924 9.46993L4.52924 9.46993L4.31711 9.68206ZM4.88279 9.68206L4.67066 9.46993H4.67066L4.88279 9.68206ZM6.99995 7.5649L7.21208 7.35277L6.99995 7.14064L6.78782 7.35277L6.99995 7.5649ZM9.11711 9.68206L9.32924 9.46993L9.32924 9.46993L9.11711 9.68206ZM9.68279 9.68206L9.47066 9.46993L9.47066 9.46993L9.68279 9.68206ZM9.68279 9.11638L9.47066 9.32851L9.47066 9.32851L9.68279 9.11638ZM7.56564 6.99922L7.3535 6.78709L7.14137 6.99922L7.3535 7.21135L7.56564 6.99922ZM9.68279 4.88206L9.89493 5.09419V5.09419L9.68279 4.88206ZM9.68279 4.31638L9.89493 4.10424V4.10424L9.68279 4.31638ZM9.11711 4.31638L8.90498 4.10424V4.10424L9.11711 4.31638ZM6.99995 6.43353L6.78782 6.64567L6.99995 6.8578L7.21208 6.64567L6.99995 6.43353ZM4.52924 4.52851C4.56829 4.48946 4.63161 4.48946 4.67066 4.52851L5.09493 4.10424C4.82156 3.83088 4.37834 3.83088 4.10498 4.10424L4.52924 4.52851ZM4.52924 4.66993C4.49019 4.63088 4.49019 4.56756 4.52924 4.52851L4.10498 4.10424C3.83161 4.37761 3.83161 4.82083 4.10498 5.09419L4.52924 4.66993ZM6.6464 6.78709L4.52924 4.66993L4.10498 5.09419L6.22213 7.21135L6.6464 6.78709ZM4.52924 9.32851L6.6464 7.21135L6.22213 6.78709L4.10498 8.90424L4.52924 9.32851ZM4.52924 9.46993C4.49019 9.43088 4.49019 9.36756 4.52924 9.32851L4.10498 8.90424C3.83161 9.17761 3.83161 9.62083 4.10498 9.89419L4.52924 9.46993ZM4.67066 9.46993C4.63161 9.50898 4.56829 9.50898 4.52924 9.46993L4.10498 9.89419C4.37834 10.1676 4.82156 10.1676 5.09493 9.89419L4.67066 9.46993ZM6.78782 7.35277L4.67066 9.46993L5.09493 9.89419L7.21208 7.77704L6.78782 7.35277ZM9.32924 9.46993L7.21208 7.35277L6.78782 7.77704L8.90498 9.89419L9.32924 9.46993ZM9.47066 9.46993C9.43161 9.50898 9.36829 9.50898 9.32924 9.46993L8.90498 9.89419C9.17834 10.1676 9.62156 10.1676 9.89493 9.89419L9.47066 9.46993ZM9.47066 9.32851C9.50971 9.36756 9.50971 9.43088 9.47066 9.46993L9.89493 9.89419C10.1683 9.62083 10.1683 9.17761 9.89493 8.90424L9.47066 9.32851ZM7.3535 7.21135L9.47066 9.32851L9.89493 8.90424L7.77777 6.78709L7.3535 7.21135ZM9.47066 4.66993L7.3535 6.78709L7.77777 7.21135L9.89493 5.09419L9.47066 4.66993ZM9.47066 4.52851C9.50971 4.56756 9.50971 4.63088 9.47066 4.66993L9.89493 5.09419C10.1683 4.82083 10.1683 4.37761 9.89493 4.10424L9.47066 4.52851ZM9.32924 4.52851C9.36829 4.48946 9.43161 4.48946 9.47066 4.52851L9.89493 4.10424C9.62156 3.83088 9.17834 3.83088 8.90498 4.10424L9.32924 4.52851ZM7.21208 6.64567L9.32924 4.52851L8.90498 4.10424L6.78782 6.2214L7.21208 6.64567ZM4.67066 4.52851L6.78782 6.64567L7.21208 6.2214L5.09493 4.10424L4.67066 4.52851Z" fill="#667085"/>
</svg>
