<svg width="16" height="16" viewBox="0 0 16 16" fill="none" xmlns="http://www.w3.org/2000/svg">
<path d="M14.0686 9.79025C13.9442 9.64803 13.8197 9.50581 13.722 9.3547C13.402 8.86581 13.3131 8.30581 13.3131 7.72803C13.3131 7.40803 13.3131 7.09692 13.3131 6.77692C12.9397 6.93692 12.522 7.01692 12.0953 7.01692C12.0597 7.01692 12.0331 7.00803 11.9975 7.00803C11.9975 7.47914 11.9975 7.94136 12.0331 8.41247C12.1042 9.31025 12.5042 10.0658 13.1086 10.7236C13.322 10.9458 13.3753 11.1858 13.2597 11.4614C13.1353 11.7458 12.922 11.8791 12.602 11.8791C11.0731 11.8791 9.54418 11.8791 8.00641 11.8791C6.46863 11.8791 4.93085 11.8791 3.39307 11.8791C2.90418 11.8791 2.5753 11.4347 2.72641 10.9903C2.75307 10.9014 2.8153 10.8214 2.87752 10.7503C3.64196 9.92358 4.02418 8.9547 4.0153 7.82581C4.0153 7.22136 3.99752 6.61692 4.05974 6.02136C4.23752 4.33247 5.76641 2.81247 7.43752 2.60803C8.0153 2.53692 8.57529 2.59025 9.09974 2.74136C9.25974 2.30581 9.49974 1.90581 9.81974 1.58581C9.43752 1.44359 9.03752 1.33692 8.61974 1.29247V0.741363C8.61974 0.394696 8.34418 0.119141 7.99752 0.119141C7.65085 0.119141 7.37529 0.394696 7.37529 0.741363V1.28359C7.20641 1.30136 7.02863 1.33692 6.85974 1.37247C4.64641 1.86136 2.93974 3.7547 2.71752 6.00358C2.6553 6.62581 2.68196 7.26581 2.68196 7.89692C2.68196 8.62581 2.43307 9.25692 1.92641 9.79914C1.33085 10.4391 1.17974 11.1858 1.52641 11.9947C1.87307 12.7947 2.51307 13.2036 3.39307 13.2125C3.83752 13.2125 4.28196 13.2125 4.7353 13.2125C5.15307 14.9103 6.57529 15.8258 7.89974 15.8791C9.18863 15.9236 10.7886 15.088 11.2686 13.2125C11.3575 13.2125 11.4553 13.2125 11.5531 13.2125C11.9975 13.2125 12.442 13.248 12.8864 13.1947C13.7042 13.0969 14.2553 12.6258 14.5309 11.8525C14.8064 11.0791 14.6197 10.3947 14.0775 9.79025H14.0686ZM8.13085 14.5369C7.28641 14.5991 6.4153 14.0303 6.13974 13.2214H9.82863C9.70418 13.8525 8.88641 14.4836 8.12196 14.5369H8.13085Z" fill="#101828"/>
<path d="M12.0864 2.03916C11.7486 2.03916 11.4286 2.13694 11.1619 2.30583C10.7797 2.54583 10.4864 2.91916 10.3708 3.3725C10.3353 3.51472 10.3086 3.66583 10.3086 3.81694C10.3086 4.71472 10.9841 5.4525 11.8464 5.56805C11.9264 5.57694 12.0064 5.59472 12.0864 5.59472C12.4775 5.59472 12.8419 5.46138 13.1353 5.23916C13.5708 4.91916 13.8641 4.39472 13.8641 3.80805C13.8641 2.83027 13.0641 2.03027 12.0864 2.03027V2.03916Z" fill="#FF4D4D"/>
</svg>
