<svg width="16" height="16" viewBox="0 0 16 16" fill="none" xmlns="http://www.w3.org/2000/svg">
<path fill-rule="evenodd" clip-rule="evenodd" d="M3.35208 2.36213C3.07871 2.08876 2.6355 2.08876 2.36213 2.36213C2.08876 2.6355 2.08876 3.07871 2.36213 3.35208L7.01001 7.99996L2.36213 12.6478C2.08876 12.9212 2.08876 13.3644 2.36213 13.6378C2.6355 13.9112 3.07871 13.9112 3.35208 13.6378L7.99996 8.98991L12.6478 13.6378C12.9212 13.9112 13.3644 13.9112 13.6378 13.6378C13.9112 13.3644 13.9112 12.9212 13.6378 12.6478L8.98991 7.99996L13.6378 3.35208C13.9112 3.07871 13.9112 2.6355 13.6378 2.36213C13.3644 2.08876 12.9212 2.08876 12.6478 2.36213L7.99996 7.01001L3.35208 2.36213Z" fill="#101828"/>
</svg>
