<svg xmlns="http://www.w3.org/2000/svg" width="36" height="36" viewBox="0 0 36 36">
  <g id="그룹_88163" data-name="그룹 88163" transform="translate(-1482 -8123)">
    <rect id="사각형_25771" data-name="사각형 25771" width="36" height="36" rx="18" transform="translate(1482 8123)" fill="#55627e" opacity="0.65"/>
    <g id="그룹_87592" data-name="그룹 87592" transform="translate(1490.172 8131.172)" opacity="0.65">
      <path id="패스_61439" data-name="패스 61439" d="M179.59,69.7a1.317,1.317,0,1,1-1.317-1.317A1.318,1.318,0,0,1,179.59,69.7" transform="translate(-163.362 -65.092)" fill="#fff"/>
      <path id="패스_61437" data-name="패스 61437" d="M47.346,33.751H39.8a6.057,6.057,0,0,0-6.057,6.057v7.544A6.056,6.056,0,0,0,39.8,53.408h7.544A6.056,6.056,0,0,0,53.4,47.353V39.808a6.057,6.057,0,0,0-6.056-6.057m4.17,12.877a4.894,4.894,0,0,1-4.894,4.894h-6.1a4.894,4.894,0,0,1-4.895-4.894v-6.1a4.895,4.895,0,0,1,4.895-4.894h6.1a4.9,4.9,0,0,1,4.894,4.894Z" transform="translate(-33.745 -33.751)" fill="#fff"/>
      <path id="패스_61438" data-name="패스 61438" d="M90.689,83.109a5.178,5.178,0,1,0,5.178,5.178,5.177,5.177,0,0,0-5.178-5.178m0,8.293A3.115,3.115,0,1,1,93.8,88.287,3.115,3.115,0,0,1,90.689,91.4" transform="translate(-80.596 -78.423)" fill="#fff"/>
    </g>
  </g>
</svg>
