<svg xmlns="http://www.w3.org/2000/svg" xmlns:xlink="http://www.w3.org/1999/xlink" width="36" height="36" viewBox="0 0 36 36">
  <defs>
    <clipPath id="clip-path">
      <rect id="사각형_25773" data-name="사각형 25773" width="22.258" height="15.582" transform="translate(0 0)" fill="none"/>
    </clipPath>
  </defs>
  <g id="그룹_88164" data-name="그룹 88164" transform="translate(-1438 -8123)">
    <rect id="사각형_25776" data-name="사각형 25776" width="36" height="36" rx="18" transform="translate(1438 8123)" fill="#55627e" opacity="0.65"/>
    <g id="그룹_87601" data-name="그룹 87601" transform="translate(1445 8133)" opacity="0.65">
      <g id="그룹_87600" data-name="그룹 87600" clip-path="url(#clip-path)">
        <path id="패스_61616" data-name="패스 61616" d="M21.793,2.436v0A2.787,2.787,0,0,0,19.824.465C18.089,0,11.129,0,11.129,0S4.17,0,2.434.465A2.787,2.787,0,0,0,.466,2.433,28.971,28.971,0,0,0,0,7.789a28.982,28.982,0,0,0,.465,5.357,2.789,2.789,0,0,0,1.969,1.971c1.735.465,8.7.465,8.7.465s6.959,0,8.7-.465a2.787,2.787,0,0,0,1.968-1.968,28.9,28.9,0,0,0,.465-5.357,28.971,28.971,0,0,0-.465-5.356M8.9,11.128V4.452L14.68,7.79Z" fill="#fff"/>
      </g>
    </g>
  </g>
</svg>
