<svg xmlns="http://www.w3.org/2000/svg" width="100" height="99.998" viewBox="0 0 100 99.998">
    <path data-name="패스 1515" d="M1269.116 2571.143v-7.715h-24.971V2586.499h15.3v7.7h-15.3v23.047h24.971v-7.7h-17.275v-7.676h15.342v-23.07h-15.342v-7.656zm-48.174 19.238a50 50 0 1 1 50 50 49.982 49.982 0 0 1-50-50zm7.725 0a42.261 42.261 0 1 1 42.275 42.246 42.288 42.288 0 0 1-42.275-42.246zm44.316 19.2v7.676h24.917V2594.2h-15.322v-7.7h15.322v-23.066h-24.912v7.7h17.236v7.676h-15.371v23.09h15.371v7.676z" transform="translate(-1220.942 -2540.383)" style="fill:#b80009;fill-rule:evenodd"/>
</svg>
