<svg xmlns="http://www.w3.org/2000/svg" width="100" height="100" viewBox="0 0 100 100">
    <circle data-name="타원 73" cx="50" cy="50" r="50" style="fill:#e1e1e1"/>
    <g data-name="그룹 438">
        <g data-name="그룹 437">
            <path data-name="패스 839" d="M278.869 205.761a12.305 12.305 0 0 0-.875-2.981 14.712 14.712 0 0 0-5.9-6.833 13.272 13.272 0 0 0-13.674.085 12 12 0 0 0-4.5 4.826 14.093 14.093 0 0 0-.854 2.11c-1.111 3.544-1.074 8.308.938 11.542a5.811 5.811 0 0 0 2.759 2.406 4.028 4.028 0 0 0 3.58-.276 3.791 3.791 0 0 0 1.334-4 10.478 10.478 0 0 1 .133-5.584 4.246 4.246 0 0 1 .989-1.588 3.674 3.674 0 0 1 .947-.647 3.948 3.948 0 0 1 2.36-.385 4.518 4.518 0 0 1 3.168 2.588 10.5 10.5 0 0 1 .858 4.134c.3 6.174-1.177 12.567-2.754 18.5-.161.611-.33 1.219-.5 1.827-.132.469-.374 1.067-.073 1.524a1.2 1.2 0 0 0 .549.421 2.087 2.087 0 0 0 2.277-.811 33.037 33.037 0 0 0 7.526-13.171 42.318 42.318 0 0 0 1.443-5.506 24.251 24.251 0 0 0 .277-8.177" transform="translate(-214.779 -145.355)" style="fill:#fff"/>
            <path data-name="패스 840" d="M310.119 181.578a1.569 1.569 0 0 0-1.7-1.507 8.157 8.157 0 0 0-2.543.8c-15.921 6.053-33.878 7.2-50.657 4.785-2.87-.414-5.777-.993-8.666-1.445-1.8-.28-3.586-.689-5.41-.828-1.553-.117-3.485-.176-4.739.908-1.658 1.427-1.541 4.135-.6 5.928a13.363 13.363 0 0 0 5.157 4.984c1.993 1.187 4.376 2.457 6.751 2.3q9.619-.615 19.181-1.857c10.873-1.413 22.267-2.744 32.472-6.959a40.807 40.807 0 0 0 9.49-5.324c.523-.389 1.267-1.038 1.267-1.8" transform="translate(-220.119 -149.706)" style="fill:#fff"/>
            <path data-name="패스 841" d="M257.511 178.578a6.264 6.264 0 0 0 12.527 0 3.549 3.549 0 0 0-.339-1.5c-.537-1.137-1.141-1.689-1.082-3.054.081-1.841-2.277-1.863-3.546-1.863a9.2 9.2 0 0 0-4.105.82 6.254 6.254 0 0 0-3.453 5.453v.144" transform="translate(-213.171 -152.16)" style="fill:#fff"/>
        </g>
    </g>
</svg>
