<svg xmlns="http://www.w3.org/2000/svg" width="72" height="72" viewBox="0 0 72 72">
    <g data-name="그룹 3671" transform="translate(-133 -1059)">
        <circle data-name="타원 394" cx="36" cy="36" r="36" transform="translate(133 1059)" style="fill:#f5f5f5"/>
        <path d="m38.339 31.386-8.215-7.469a2.023 2.023 0 0 0-2.811.083l-4.836 4.973a11.6 11.6 0 0 1-5.913-3.355 11.545 11.545 0 0 1-3.355-5.913l4.969-4.838a2.021 2.021 0 0 0 .087-2.811L10.8 3.848a2.02 2.02 0 0 0-2.811-.176L3.6 7.433a2.021 2.021 0 0 0-.586 1.312A30.52 30.52 0 0 0 11.688 30.5a30.6 30.6 0 0 0 21.029 8.686c.408 0 .659-.012.725-.016a2 2 0 0 0 1.309-.588l3.759-4.387a2.015 2.015 0 0 0-.171-2.809z" transform="translate(150 1073.814)" style="fill:#d9d9d9"/>
    </g>
</svg>
