<svg xmlns="http://www.w3.org/2000/svg" viewBox="0 0 17.1 15.88" style="enable-background:new 0 0 17.1 15.88" xml:space="preserve"><style>.st0{display:none}</style><path d="M10.37 7.93c.02.98-1.17 1.5-1.87.8-.66-.65-.3-1.68.56-1.87V3.1c0-.28.41-.29.41.01v3.76c.24.03.43.15.57.31l3.21-1.22c.59-.22.8.58.31.76l-3.19 1.21zm-8.53 1.5L.7 4.7l1.98.67C5.16-1.82 16.37-.03 16.4 7.93c-.02 5.82-6.69 9.2-11.38 5.64l1.15-.82c3.84 2.5 8.88-.29 8.89-4.82-.02-6.32-8.86-8-11.15-2.13l2.11.66-4.18 2.97z" style="fill:#262626" id="Layer_1_1_"/></svg>