<svg version="1.2" baseProfile="tiny" xmlns="http://www.w3.org/2000/svg" viewBox="0 0 570 133" overflow="visible"><path d="m10.05 8.14 9.89 14.53h2.57V3.72h-2.29v15.4L9.89 3.72H7.31v18.95h2.74zm18.51 5.35h9.69v9.18h2.18V3.72h-2.18v8.12h-9.69V3.72h-2.74v18.95h2.74zm22.08-2.13c.83-1.36 1.6-2.88 2.31-4.54.73 1.57 1.53 3.01 2.39 4.34.87 1.33 1.73 2.54 2.59 3.64h2.52c-.62-.84-1.28-1.77-1.99-2.79s-1.38-2.03-2-3.04C55.83 7.96 55.3 7 54.85 6.09c-.45-.91-.73-1.68-.84-2.3h-2.24c-.04.3-.15.71-.35 1.23-.2.52-.45 1.12-.77 1.78-.32.66-.69 1.36-1.11 2.1s-.86 1.47-1.32 2.18c-.46.72-.92 1.4-1.4 2.04-.48.64-.94 1.2-1.39 1.67h2.86c.74-.92 1.52-2.07 2.35-3.43zm12.03 8.6h-8.43v-4.65h-2.27v4.65h-8.48v1.87h19.18zm6.58-2.3c-.58.41-.87 1.01-.87 1.79v2.13c0 .78.28 1.4.84 1.85.56.45 1.36.67 2.41.67h9.41c.37 0 .73-.07 1.08-.2.35-.13.64-.3.9-.52s.45-.46.6-.73c.15-.27.22-.55.22-.83v-2.46c0-.34-.08-.64-.24-.92-.16-.28-.37-.52-.63-.73-.26-.21-.57-.37-.92-.49-.35-.12-.73-.18-1.12-.18h-9.38c-.96 0-1.73.21-2.3.62zm10.72.9c.84 0 1.4.15 1.68.46.28.31.42.71.42 1.22v.87c0 .52-.2.92-.6 1.19-.4.27-.9.41-1.5.41H72.6c-.28 0-.56-.01-.83-.03-.27-.02-.51-.07-.73-.17-.21-.09-.39-.25-.53-.48-.14-.22-.21-.53-.21-.92v-.81c0-.62.16-1.06.49-1.33.33-.27.91-.41 1.75-.41h7.43zm-9.74-8.29a34.33 34.33 0 0 0 1.68-3.98c.54 1.51 1.14 2.89 1.79 4.13.65 1.24 1.32 2.31 1.99 3.21h2.38c-.56-.67-1.12-1.45-1.67-2.32-.55-.88-1.06-1.78-1.53-2.7-.46-.93-.87-1.85-1.21-2.75-.35-.91-.57-1.73-.69-2.48H70.9c-.11.49-.32 1.16-.62 2.03-.3.87-.69 1.79-1.16 2.77-.48.98-1.03 1.96-1.65 2.93-.63.97-1.33 1.81-2.11 2.52h2.72c.77-.94 1.49-2.05 2.15-3.36zm13.35-1.15h3.14V7.36h-3.14V2.37h-1.96v13.02h1.96zm25.51 3.42h-4.03c.09-.3.23-.79.42-1.47s.38-1.42.57-2.23c.2-.8.37-1.6.52-2.39.15-.79.22-1.47.22-2.03V2.34H90.97V4.1h13.72c0 .21-.01.46-.03.76s-.05.61-.1.92c-.05.32-.09.63-.14.92-.05.3-.09.55-.13.76-.15.73-.33 1.54-.53 2.44-.21.9-.47 1.77-.78 2.63h-3.5V8.62h-2.04v3.92h-8.62v1.76h20.27v-1.76zM92.61 24.17c.29.1.57.15.85.15h10.89c.65 0 1.22-.21 1.71-.62.48-.41.73-.97.73-1.68v-2.1c0-.82-.25-1.44-.76-1.86s-1.14-.63-1.9-.63H94c-.32 0-.65.04-.99.11-.35.08-.67.21-.98.39-.31.19-.56.43-.76.74-.2.31-.29.7-.29 1.16v2.21c0 .37.08.7.24.98.16.28.36.51.6.7.24.2.5.35.79.45zm.35-3.57c0-.41.12-.78.36-1.11.24-.33.77-.49 1.6-.49h8.26c.62 0 1.07.15 1.37.46.3.31.45.71.45 1.22v.67c0 1.04-.6 1.57-1.79 1.57h-8.29c-.28 0-.54-.01-.77-.03a1.72 1.72 0 0 1-.62-.17.949.949 0 0 1-.42-.46c-.1-.21-.15-.52-.15-.91v-.75zm34.22-18.2h2.04v13.3h-2.04zm-12.69 14.53v7.09h14.81v-1.85h-12.68v-5.24zm.95-3.22h3.44c.45 0 .88-.08 1.29-.25s.77-.41 1.08-.71.56-.68.74-1.12c.19-.44.28-.93.28-1.47V6.68c0-.6-.1-1.13-.31-1.6-.21-.47-.48-.86-.83-1.19-.35-.33-.74-.57-1.19-.74-.45-.17-.92-.25-1.43-.25h-2.97c-.45 0-.89.09-1.32.28-.43.19-.81.43-1.13.74-.33.31-.59.67-.78 1.08-.2.41-.29.85-.29 1.32v3.84c0 .6.1 1.12.31 1.55.21.44.47.81.8 1.11s.69.52 1.09.67c.41.15.81.22 1.22.22zm-1.54-6.89c0-.69.22-1.25.66-1.68.44-.43 1.11-.64 2-.64h1.18c.56 0 1.01.08 1.36.22a1.943 1.943 0 0 1 1.2 1.45c.07.32.1.64.1.98v2.46c0 .32-.03.62-.08.91s-.17.55-.35.77c-.18.22-.42.41-.73.55-.31.14-.71.21-1.22.21h-1.74c-.9 0-1.52-.2-1.86-.6-.35-.4-.52-1-.52-1.81V6.82zm31.59 10.73h-4.51l3.11-9.91h-1.79l-3.03 9.63-2.94-9.63h-1.79l3.02 9.91h-4.39v1.76h12.32zM133.17 4.58h12.32v1.76h-12.32zm16.91 7.68h3.53v-1.99h-3.53V2.74h-1.96v21.58h1.96zm22.4 1.96h-12.1v-3.95h11.79V8.59h-13.69v7.31h14zm-14-10.2h13.69V5.7h-13.69zm-2.66 16.05h19.46v1.85h-19.46zm33.96-3.14h-9.07V4.98h-2.15v13.88h11.22zm4.01 7.45h2.18V2.37h-2.18v7.09h-6.41v2.18h6.41zm22.48-12.32h3.42v-1.99h-3.42V2.51h-2.01v21.31h2.01zm-9-2.51c-.36 1.02-.87 2.05-1.51 3.11s-1.41 2.09-2.3 3.09c-.89 1.01-1.86 1.92-2.93 2.74v2.52c.73-.58 1.42-1.15 2.09-1.71.66-.56 1.28-1.17 1.86-1.82.78-.88 1.51-1.75 2.17-2.6.66-.86 1.23-1.72 1.71-2.59s.85-1.75 1.12-2.65c.27-.9.41-1.81.41-2.74V4.89h-10.08v1.88h7.98c.02.84-.16 1.77-.52 2.78zm29.99 1.81c.83-1.36 1.6-2.88 2.31-4.54.73 1.57 1.53 3.01 2.39 4.34.87 1.33 1.73 2.54 2.59 3.64h2.52c-.62-.84-1.28-1.77-1.99-2.79s-1.38-2.03-2-3.04c-.63-1.01-1.16-1.97-1.61-2.88-.45-.91-.73-1.68-.84-2.3h-2.24c-.04.3-.15.71-.35 1.23-.2.52-.45 1.12-.77 1.78-.32.66-.69 1.36-1.11 2.1s-.86 1.47-1.32 2.18c-.46.72-.92 1.4-1.4 2.04-.48.64-.94 1.2-1.39 1.67h2.86c.74-.92 1.52-2.07 2.35-3.43zm12.02 8.6h-8.42v-4.65h-2.27v4.65h-8.49v1.87h19.18zM270.2 2.37h-1.96v13.02h1.96V9.12h3.14V7.36h-3.14zm-.57 21.02c.25-.21.45-.46.6-.73.15-.27.22-.55.22-.83v-2.46c0-.34-.08-.64-.24-.92-.16-.28-.37-.52-.63-.73-.26-.21-.57-.37-.92-.49-.35-.12-.73-.18-1.12-.18h-9.38c-.95 0-1.72.21-2.3.62-.58.41-.87 1.01-.87 1.79v2.13c0 .78.28 1.4.84 1.85.56.45 1.36.67 2.41.67h9.41c.37 0 .73-.07 1.08-.2.34-.14.64-.31.9-.52zm-.94-2.29c0 .52-.2.92-.6 1.19-.4.27-.9.41-1.5.41h-7.36c-.28 0-.56-.01-.83-.03-.27-.02-.51-.07-.73-.17-.21-.09-.39-.25-.53-.48-.14-.22-.21-.53-.21-.92v-.81c0-.62.16-1.06.49-1.33.33-.27.91-.41 1.75-.41h7.42c.84 0 1.4.15 1.68.46.28.31.42.71.42 1.22v.87zm-11.85-10.83a34.33 34.33 0 0 0 1.68-3.98c.54 1.51 1.14 2.89 1.79 4.13.65 1.24 1.32 2.31 1.99 3.21h2.38c-.56-.67-1.12-1.45-1.67-2.32-.55-.88-1.06-1.78-1.53-2.7-.47-.92-.87-1.84-1.22-2.74-.35-.91-.57-1.73-.69-2.48h-2.07c-.11.49-.32 1.16-.62 2.03-.3.87-.69 1.79-1.16 2.77-.48.98-1.03 1.96-1.65 2.93-.63.97-1.33 1.81-2.11 2.52h2.72c.79-.95 1.51-2.06 2.16-3.37zm38.87 2.27h-4.03c.09-.3.23-.79.42-1.47s.38-1.42.57-2.23c.2-.8.37-1.6.52-2.39.15-.79.22-1.47.22-2.03V2.34h-15.82V4.1h13.72c0 .21-.01.46-.03.76s-.05.61-.1.92-.09.63-.14.92c-.05.3-.09.55-.13.76-.15.73-.33 1.54-.53 2.44-.21.9-.47 1.77-.78 2.63h-3.5V8.62h-2.04v3.92h-8.62v1.76h20.27v-1.76zm-3.03 11.17c.49-.41.73-.97.73-1.68v-2.1c0-.82-.25-1.44-.76-1.86s-1.14-.63-1.9-.63h-10.14c-.32 0-.65.04-.99.11-.35.08-.67.21-.98.39-.31.19-.56.43-.76.74-.2.31-.29.7-.29 1.16v2.21c0 .37.08.7.24.98.16.28.36.51.6.7.24.19.51.33.8.43.29.1.57.15.85.15h10.89c.66.01 1.23-.19 1.71-.6zm-11.14-.79c-.28 0-.54-.01-.77-.03a1.72 1.72 0 0 1-.62-.17.949.949 0 0 1-.42-.46c-.1-.21-.15-.52-.15-.91v-.75c0-.41.12-.78.36-1.11.24-.33.77-.49 1.6-.49h8.26c.62 0 1.07.15 1.37.46.3.31.45.71.45 1.22v.67c0 1.04-.6 1.57-1.79 1.57h-8.29zm18.21-10.1c.33.3.69.52 1.09.67.4.15.81.22 1.22.22h3.44c.45 0 .88-.08 1.29-.25.41-.17.77-.41 1.08-.71.31-.31.56-.68.74-1.12.19-.44.28-.93.28-1.47V6.68c0-.6-.1-1.13-.31-1.6-.21-.47-.48-.86-.83-1.19-.35-.33-.74-.57-1.19-.74-.45-.17-.92-.25-1.43-.25h-2.97c-.45 0-.89.09-1.32.28-.43.19-.81.43-1.13.74-.33.31-.59.67-.78 1.08-.2.41-.29.85-.29 1.32v3.84c0 .6.1 1.12.31 1.55s.48.81.8 1.11zm.77-6c0-.69.22-1.25.66-1.68.44-.43 1.11-.64 2-.64h1.17c.56 0 1.01.08 1.36.22.34.15.62.35.81.6.2.25.33.54.39.85.06.32.1.64.1.98v2.46c0 .32-.03.62-.08.91-.05.29-.17.55-.35.77-.18.22-.42.41-.73.55-.31.14-.71.21-1.22.21h-1.74c-.9 0-1.52-.2-1.86-.6s-.52-1-.52-1.81V6.82zM313.8 2.4h2.04v13.3h-2.04zm-12.69 14.53v7.09h14.81v-1.85h-12.68v-5.24zm43.51-4.73h3.22v-1.99h-3.22V2.74h-1.96V24.3h1.96zm-13.19 3.63c.52-.48.98-.97 1.39-1.48.4-.51.71-1 .91-1.47.22.49.54.98.94 1.5.4.51.86 1.01 1.37 1.48.51.48 1.05.91 1.62 1.29.57.38 1.12.69 1.67.91v-1.9c-.28-.09-.58-.28-.91-.56a19 19 0 0 1-.85-.76c-.67-.67-1.19-1.33-1.57-1.97-.37-.64-.65-1.32-.83-2.02-.18-.7-.28-1.45-.31-2.25-.03-.8-.04-1.69-.04-2.66V4h-1.99v1.96c0 .93-.02 1.8-.07 2.6s-.17 1.57-.38 2.3c-.21.73-.51 1.42-.92 2.09-.41.66-.98 1.31-1.71 1.95-.32.26-.63.5-.94.73-.31.22-.59.38-.85.48v1.93c.58-.22 1.17-.53 1.78-.91s1.17-.83 1.69-1.3zm23.17 2.1c-.36.12-.69.29-.97.52-.28.22-.5.49-.67.8-.17.31-.25.64-.25.99v1.85c0 .34.08.65.22.94.15.29.35.55.6.77s.55.4.88.52c.34.12.69.18 1.06.18h10.58c.6 0 1.11-.2 1.53-.6s.63-.87.63-1.41v-2.46c0-.32-.08-.61-.22-.88s-.35-.51-.6-.71a2.94 2.94 0 0 0-.84-.49c-.31-.12-.62-.18-.94-.18h-9.88c-.38-.03-.76.03-1.13.16zm9.65 1.35c.71 0 1.26.14 1.64.43.38.29.57.76.57 1.41v.39c0 .6-.17 1.01-.5 1.25s-.86.35-1.57.35H357c-.28 0-.56-.01-.84-.04s-.53-.09-.76-.2-.41-.25-.55-.43c-.14-.19-.21-.45-.21-.78l.03-.95c.02-.37.17-.7.45-.99.28-.29.82-.43 1.62-.43h7.51zm3.22-9.15h3.25V8.2h-3.25V2.4h-1.74v12.71h1.74zM355.58 7.4c-.27.62-.64 1.25-1.11 1.88-.47.62-1.02 1.21-1.67 1.76-.64.55-1.36 1-2.14 1.36v1.79c1.31-.5 2.51-1.21 3.6-2.13 1.09-.91 1.96-2.17 2.62-3.78.17.47.44.99.83 1.57.38.58.83 1.15 1.34 1.71.51.56 1.07 1.07 1.68 1.54.61.47 1.22.82 1.83 1.06v-1.88c-.77-.47-1.46-1-2.07-1.61-.62-.61-1.14-1.22-1.58-1.85s-.78-1.22-1.02-1.78-.36-1.02-.36-1.37h5.35V3.94h-12.54v1.74h5.71c-.04.52-.2 1.09-.47 1.72zm32.58-5h1.99v12.26h-1.99zm2.05 14.73h-14.84v7.17h14.84v-7.17zm-1.52 5.63H377.1v-4.09h11.59v4.09zm-4.03-11.37h-9.21V3.88h-1.9v9.16h11.11zm26.49 11.84h-12.8v-2.52h12.8v-5.09h-14.73v1.12h12.52v2.66h-12.52v5.15l14.73-.03zm-.31-15.34h-12.23V3.8h12.23V2.34h-14.25v6.81h14.25zm-17.19 3.72h19.71v1.54h-19.71zm22.37.59h19.71v1.51h-19.71zm3.38-3.28c.72.56 1.61.84 2.67.84h7.7c1.12 0 2.04-.28 2.76-.84.72-.56 1.08-1.33 1.08-2.32V5.28c0-.49-.11-.93-.32-1.33-.21-.4-.5-.74-.84-1.02-.34-.28-.73-.49-1.16-.64-.43-.15-.86-.22-1.29-.22h-8.15c-.49 0-.94.07-1.37.22s-.8.36-1.12.64c-.32.28-.57.62-.76 1.01-.19.39-.28.83-.28 1.32v1.37c0 .97.36 1.73 1.08 2.29zm1.3-4.71c.39-.44.99-.66 1.79-.66h6.92c.82 0 1.43.22 1.82.66.39.44.59 1.03.59 1.78 0 .73-.2 1.31-.59 1.75-.39.44-1 .66-1.82.66h-6.92c-.8 0-1.4-.22-1.79-.66-.39-.44-.59-1.02-.59-1.75 0-.75.2-1.35.59-1.78zm12.68 19.22h-13.07v-2.38h12.79v-5.04h-14.56v1.06h12.35v2.61h-12.35v4.95h14.84zm13.22-10.67h20.22v1.48H446.6zm3.37-3.84c.72.56 1.61.84 2.67.84h7.7c1.12 0 2.04-.28 2.76-.84.72-.56 1.08-1.33 1.08-2.32V5.28c0-.49-.11-.93-.32-1.33-.21-.4-.5-.74-.84-1.02-.34-.28-.73-.49-1.16-.64-.43-.15-.86-.22-1.29-.22h-8.15c-.49 0-.94.07-1.37.22s-.8.36-1.12.64c-.32.28-.57.62-.76 1.01-.19.39-.28.83-.28 1.32v1.37c0 .97.36 1.73 1.08 2.29zm1.3-4.71c.39-.44.99-.66 1.79-.66h6.92c.82 0 1.43.22 1.82.66.39.44.59 1.03.59 1.78 0 .73-.2 1.31-.59 1.75-.39.44-1 .66-1.82.66h-6.92c-.8 0-1.4-.22-1.79-.66-.39-.44-.59-1.02-.59-1.75 0-.75.2-1.35.59-1.78zm11.43 20.02c.32-.1.6-.27.85-.49.25-.22.46-.51.62-.87.16-.35.24-.78.24-1.26v-1.65a2.417 2.417 0 0 0-.83-1.85c-.27-.24-.59-.43-.95-.57-.36-.14-.77-.21-1.22-.21h-9.69c-.3 0-.62.06-.97.17-.35.11-.67.28-.97.52-.3.23-.55.53-.76.88-.21.36-.31.77-.31 1.23v1.82c0 .71.24 1.29.71 1.75.48.46 1.13.69 1.97.69h10.3c.36-.01.69-.06 1.01-.16zm-9.91-1.22c-.32 0-.6-.01-.85-.03-.25-.02-.47-.08-.64-.17-.18-.09-.32-.25-.42-.46s-.15-.52-.15-.91v-.84c0-.21.03-.41.08-.62s.16-.39.32-.55c.16-.16.37-.29.63-.39.26-.1.61-.15 1.04-.15h7.92c.62 0 1.09.16 1.41.48.33.32.49.75.49 1.29v.64c0 .49-.15.89-.45 1.22-.3.33-.74.49-1.32.49h-8.06zm36.45-.25h-14.2v-4.51h-2.07v5.93h16.27zM472.09 8.88c.33.21.69.37 1.09.46.4.09.81.14 1.22.14h4.12c.41 0 .81-.06 1.19-.17.38-.11.72-.29 1.02-.52s.54-.53.73-.88.28-.77.28-1.23V5.4c0-.9-.3-1.58-.9-2.04-.6-.47-1.35-.7-2.27-.7h-4.12c-.47 0-.91.06-1.33.17-.42.11-.79.28-1.11.5-.32.22-.57.5-.76.83-.19.33-.28.71-.28 1.16v1.43c0 .52.1.96.31 1.3.22.34.48.62.81.83zm.8-3.32c0-.65.21-1.1.62-1.33.41-.23.95-.35 1.62-.35h2.58c.65 0 1.18.13 1.57.38.39.25.59.7.59 1.33v.92c0 .63-.19 1.08-.57 1.34-.38.26-.9.39-1.55.39h-2.69c-.69 0-1.22-.13-1.6-.39-.37-.26-.56-.71-.56-1.34v-.95zm1.32 11.15h1.93v-3.73h8.06v-1.51h-14.73v1.51h4.74z"/><path d="M481.07 16.6h5.51v1.76h2.02V2.34h-2.02v13h-5.51zm12.67-10.67c-.18.17-.34.38-.49.63s-.27.55-.36.88c-.09.34-.14.71-.14 1.12v2.18c0 .56.1 1.05.31 1.47s.47.77.78 1.05c.32.28.68.49 1.09.62.41.13.81.2 1.2.2h2.8c.39 0 .79-.07 1.2-.2.41-.13.77-.34 1.09-.62.32-.28.58-.63.78-1.05s.31-.91.31-1.47V8.56c0-.41-.05-.78-.14-1.12-.09-.34-.21-.63-.36-.88s-.31-.46-.49-.63c-.18-.17-.35-.29-.52-.36h2.63V4.28h-4.84V2.2h-2.13v2.07h-4.84v1.29h2.63c-.17.08-.34.2-.51.37zm.71 3.3c0-.95.21-1.64.64-2.07s1.04-.64 1.85-.64h1.18c.8 0 1.42.21 1.85.64s.64 1.12.64 2.07v1.06c0 .78-.19 1.37-.57 1.75-.38.38-1.02.57-1.92.57h-1.15c-.92 0-1.56-.19-1.95-.57-.38-.38-.57-.97-.57-1.75V9.23zm14.45-.05h3.16V7.41h-3.16V2.46h-1.77v11.98h1.77zm-11.99 7.25h-1.93v7.92h13.94v-7.92h-1.82v2.46h-10.19v-2.46zm10.19 3.5v3.22h-10.19v-3.22h10.19zm19.77-3.05h-9.54V4.75h-1.96v14.14h11.5zm2.24-14.45h2.04V24.3h-2.04zm22.07 9.6h3.44v-1.96h-3.44V2.71h-1.96V24.3h1.96zm-4.32 5.43h-9.57V6.35h8.62V4.58H535.3v14.79h11.56zm11.82-13.74h2.41v14.95h-2.41zm-.17 17.92h2.77v2.49h-2.77zM11.68 47.9c.51-.92.92-1.85 1.23-2.81.31-.96.46-1.94.46-2.93v-3.08H1.84v3.47h7.73c-.04.71-.24 1.51-.6 2.41-.36.9-.86 1.82-1.48 2.76a24.768 24.768 0 0 1-4.92 5.39v4.48c1.01-.75 1.96-1.51 2.86-2.3s1.75-1.61 2.55-2.46c.67-.71 1.33-1.48 1.97-2.31.64-.83 1.21-1.71 1.73-2.62zm8.5-11h-3.67v22.98h3.67V48.07h3.5v-3.61h-3.5zm5.96 11.11c.35.36.77.63 1.25.83s.97.29 1.47.29h3.61c.5 0 .98-.1 1.44-.29.46-.2.86-.47 1.2-.83.35-.35.62-.76.81-1.23.2-.47.29-.97.29-1.51V41.4c0-.54-.1-1.05-.29-1.51-.2-.47-.47-.88-.81-1.23a3.97 3.97 0 0 0-1.2-.83c-.46-.2-.94-.29-1.44-.29h-3.61c-.5 0-.99.1-1.47.29s-.89.47-1.25.83c-.35.35-.64.77-.85 1.23-.21.47-.32.97-.32 1.51v3.86c0 .54.11 1.05.32 1.51.21.48.49.89.85 1.24zm2.16-5.82c0-.49.17-.88.52-1.19.35-.31.75-.46 1.22-.46h1.26c.47 0 .86.15 1.18.46.32.31.48.71.48 1.19v2.3c0 .49-.16.89-.48 1.2-.32.32-.71.48-1.18.48h-1.26c-.47 0-.87-.16-1.22-.48-.35-.32-.52-.72-.52-1.2v-2.3zm11.76-5.63h3.3v13.19h-3.3zm3.38 14.64h-3.36v2.3h-8.65v-2.3h-3.56v8.93h15.57V51.2zm-3.36 6.47h-8.65v-1.96h8.65v1.96zm21-21.11h3.75v12.4h-3.75zM48.74 47.91c.52.2 1.06.29 1.62.29h4c.56 0 1.09-.1 1.6-.29s.95-.47 1.33-.81c.38-.34.68-.75.9-1.2.21-.46.32-.95.32-1.47v-3.78c0-.52-.11-1.01-.32-1.47-.21-.46-.51-.86-.9-1.2-.38-.34-.83-.62-1.33-.81s-1.04-.29-1.6-.29h-4c-.56 0-1.1.1-1.62.29-.52.2-.98.47-1.39.81-.4.35-.72.75-.95 1.2-.23.46-.35.95-.35 1.47v3.78c0 .52.12 1.01.35 1.47.23.46.55.86.95 1.2.4.35.86.62 1.39.81zm.98-6.51c0-.47.19-.85.57-1.16.38-.31.84-.46 1.39-.46h1.34c.52 0 .96.15 1.32.46.35.31.53.7.53 1.16v2.27c0 .47-.18.85-.53 1.15s-.79.45-1.32.45h-1.34c-.54 0-1-.15-1.39-.45-.38-.3-.57-.68-.57-1.15V41.4zm15.2 14.98v-6.24H48.09v2.27h12.97v1.37H48.09v6.36l-.08.02h16.91v-2.6H51.65v-1.18zm21.62-10.47v-7.7H69.43v3.22H82.7v1.91H69.43v6.97h17.11v-2.58H73.26v-1.82zm2.07 8.51h-8.96v-2.94h-3.56v2.94h-8.71v3.2h21.23zm10.61 5.74h3.67v-8.23h8.9V48.6H90.32v3.33h8.9zm11.06-23.54h-3.61v2.32H95.44v-2.32H91.8v9.91h18.48v-9.91zm-3.61 6.94H95.44v-1.65h11.23v1.65zm22.68.53h-3.87v3.92h3.87v12.13h4V36.56h-4z"/><path d="M126.32 52.02h-8.09v-4.06h5.99v-3.22h-5.99v-3.22h7.25V38.3h-11.42v16.96h12.26zm25.65 6.38V37.96h-7.64v3.81h2.6V58.4zm22.34-7.42V36.59h-3.78v1.73h-3.72v2.94h3.72v1.6h-3.75v2.88h3.75v5.24zm.12 5.43h-13.67v-4.65h-3.61v8.1h17.28z"/><path d="M167.82 46.44h-9.27v-7.95h-3.75v11.15h13.02zm27.05-9.88h-3.42v15.37h3.42v-5.74h3.02v-3.13h-3.02zm-10.81 6.16c-.06.62-.19 1.3-.39 2.04-.21.75-.5 1.54-.9 2.38-.39.84-.91 1.71-1.57 2.6h3.86c.58-.84 1.08-1.72 1.51-2.63.37-.84.72-1.8 1.04-2.87.32-1.07.47-2.24.45-3.49l-.03-2.69H176.3v3.08h7.84c0 .44-.03.96-.08 1.58zm11.34 14h-13.22V52.1h-3.53v7.78h16.75zm28.89-14.11h-3.61l-1.29 4.17h-2.04l-1.88-4.17h-3.64l2.02 4.31h-3.67v3h17.03v-3h-4.63zM207.75 53.7h21.14v3.42h-21.14zm2.15-15.54h16.74v3.3H209.9zm21.25 3.19h9.19v2.91h-8.85v10.19h12.12v-2.97h-8.54v-3.92h8.54v-9.52h-12.46zm15.71-4.73h3.67V60.2h-3.67zm22.48-.03h3.7v23.55h-3.7zm-15.7 2.69v14.36h12.01V39.28h-12.01zm8.68 11.22h-5.43v-7.73h5.43v7.73zm29.93-8.65h-4.09v3.25h4.09v5.18h3.5V36.62h-3.5zm-7.6-3.85c-.46-.2-.94-.29-1.44-.29h-3.61c-.5 0-.99.1-1.46.29-.47.2-.88.47-1.23.83-.35.35-.64.77-.85 1.23-.21.47-.32.96-.32 1.48v3.86c0 .54.11 1.05.32 1.51.21.47.5.88.85 1.23s.77.63 1.23.83c.47.2.95.29 1.46.29h3.61c.5 0 .98-.1 1.44-.29.46-.2.86-.47 1.2-.83.35-.35.62-.77.81-1.23.2-.47.29-.97.29-1.51v-3.86c0-.52-.1-1.02-.29-1.48-.2-.47-.47-.88-.81-1.23a3.8 3.8 0 0 0-1.2-.83zm-1 6.65c0 .47-.15.86-.46 1.18-.31.32-.71.48-1.19.48h-1.2c-.49 0-.91-.16-1.26-.48s-.54-.71-.54-1.18v-2.32c0-.49.18-.88.53-1.19.35-.31.77-.46 1.26-.46h1.2c.48 0 .88.15 1.19.46.31.31.46.71.46 1.19v2.32zm-4.53 15.63h16.63V51.6h-16.63v8.68zm3.16-5.74h10.3v2.83h-10.3v-2.83zm37.24-3.67c-.82-.52-1.51-1.07-2.07-1.64-.56-.57-1.01-1.18-1.34-1.83s-.58-1.35-.73-2.1c-.15-.75-.22-1.56-.22-2.44v-3.81h-3.86v3.81c0 1.87-.36 3.46-1.09 4.79-.73 1.33-1.93 2.41-3.61 3.25v3.75c.86-.35 1.69-.78 2.49-1.29.69-.43 1.41-.98 2.17-1.64.76-.66 1.4-1.46 1.95-2.39.62.95 1.29 1.75 2.03 2.41s1.42 1.19 2.06 1.62c.75.5 1.49.93 2.24 1.29v-3.78zm3.14 9.27h3.64V36.56h-3.64v6.41h-4.15v3.92h4.15zm21.98-23.55h3.7v23.55h-3.7zm-6.84 6.52h-5.15v-4.59h-3.25v16.32h11.73V38.52h-3.33v4.59zm0 8.09h-5.15v-4.45h5.15v4.45zm13.08 2.8h21.31v3.33h-21.31zm10.67-10.19c.65 1.2 1.32 2.38 2 3.54.68 1.17 1.49 2.33 2.42 3.49h4.42c-.69-.9-1.42-1.92-2.18-3.08-.77-1.16-1.48-2.33-2.16-3.53s-1.24-2.33-1.71-3.42c-.47-1.08-.75-1.99-.84-2.72h-4.37c-.06.49-.24 1.22-.56 2.2-.32.98-.77 2.07-1.36 3.28s-1.31 2.45-2.16 3.72c-.85 1.28-1.83 2.46-2.95 3.54h5.21c.8-.99 1.57-2.11 2.31-3.37s1.39-2.47 1.93-3.65zm33.9 6.95c-.82-.52-1.52-1.1-2.1-1.74a8.23 8.23 0 0 1-1.41-2.1c-.36-.76-.63-1.61-.8-2.55s-.25-1.97-.25-3.11v-3.05h-3.84v2.77c0 1.14-.08 2.17-.24 3.09-.16.92-.42 1.77-.8 2.55-.37.77-.87 1.5-1.5 2.17-.63.67-1.41 1.33-2.34 1.96v3.72c.8-.26 1.57-.63 2.3-1.09.65-.39 1.37-.91 2.16-1.55.78-.64 1.51-1.47 2.18-2.48.65 1.01 1.37 1.83 2.16 2.48s1.5 1.16 2.16 1.55c.75.47 1.52.83 2.32 1.09v-3.71zm6.72-14.17h3.28v23.55h-3.28z"/><path d="M400.21 60.14V36.59h-3.24v6.83h-3.17v4h3.17v12.72zm29.07-5.83h-8.77v-3.16h-3.75v3.16H408v3.28h21.28zm-2.3-15.62h-16.55V50.2h16.55V38.69zm-3.47 8.43h-9.24v-5.38h9.24v5.38zm21.14-9.24h-13.38v3.25h5.46c-.11.34-.29.73-.53 1.18-.24.45-.56.91-.97 1.39-.4.48-.9.95-1.5 1.41-.6.47-1.31.9-2.13 1.29v3.33c.47-.15.91-.33 1.34-.53.43-.21.86-.43 1.29-.67.71-.41 1.44-.93 2.18-1.55.75-.62 1.36-1.39 1.85-2.28.04.06.22.3.56.74s.78.93 1.33 1.48 1.19 1.1 1.9 1.64c.72.54 1.48.93 2.28 1.18v-3.5c-.73-.43-1.39-.91-1.99-1.43-.54-.45-1.07-.98-1.6-1.61-.52-.62-.91-1.31-1.18-2.06h5.07v-3.26zm5.99 19.54v-2.27c0-.45-.09-.85-.28-1.2s-.43-.66-.74-.92-.66-.46-1.06-.6c-.4-.14-.81-.21-1.22-.21h-9.83c-.3 0-.65.06-1.06.17-.41.11-.81.29-1.2.52s-.74.54-1.04.91c-.3.37-.49.82-.56 1.34v2.3c.07.49.23.9.48 1.23s.51.61.81.83c.3.21.61.37.92.48.32.1.6.15.84.15h10.95c.84 0 1.55-.26 2.13-.77.57-.53.86-1.18.86-1.96zm-3.27-.73c0 .28-.12.48-.36.59-.24.11-.53.17-.87.17h-7.45c-.37 0-.68-.03-.91-.1s-.43-.28-.6-.66l.03-.73c.09-.19.23-.36.41-.53.18-.17.54-.25 1.08-.25h7.45c.34 0 .63.1.87.29.24.2.36.43.36.71v.51zm-.56-20.13v13.72h3.24v-4.59h3.28v-3.56h-3.28v-5.57zm29.14 12.04h-21.47v3.33h8.9v8.23h3.67v-8.23h8.9zm-19.99-11.98v9.91h18.48v-9.91h-3.61v2.32H459.6v-2.32h-3.64zm14.87 5.29v1.65H459.6v-1.65h11.23zM496 48.07h3.5v-3.61H496V36.9h-3.67v22.98H496zm-12.7-.35c-.62.94-1.36 1.88-2.2 2.81-.84.93-1.75 1.79-2.72 2.58v4.48c1.01-.75 1.96-1.51 2.86-2.3.9-.78 1.75-1.61 2.55-2.46.67-.71 1.33-1.48 1.97-2.31.64-.83 1.22-1.7 1.74-2.62.51-.92.92-1.85 1.23-2.81.31-.96.46-1.94.46-2.93v-3.08h-11.54v3.47h7.73c-.04.71-.24 1.51-.6 2.41-.36.9-.85 1.82-1.48 2.76zm26.48-4.78h2.52l.56-4.76h-3.08zm7.84-4.76h-3.08v4.76h2.52zm14.4.91a6.11 6.11 0 0 0-2-.87c-.75-.18-1.49-.27-2.24-.27h-1.29c-.62 0-1.29.09-2.02.27-.73.18-1.4.46-2.03.85-.62.39-1.14.91-1.55 1.55-.41.64-.62 1.43-.62 2.37v10.39c0 .93.14 1.72.43 2.35.29.63.68 1.15 1.16 1.54.48.39 1.04.68 1.68.85s1.3.27 1.99.27h2.91c.86 0 1.63-.13 2.32-.39s1.27-.62 1.75-1.09c.48-.47.84-1.02 1.09-1.67.25-.64.38-1.35.38-2.11v-10.1c0-.93-.18-1.72-.55-2.37-.34-.64-.82-1.16-1.41-1.57zm-3.01 13.09c0 .32-.02.62-.07.91a2.4 2.4 0 0 1-.27.78c-.13.23-.3.42-.5.56-.21.14-.46.21-.76.21h-1.18c-.62 0-1.08-.07-1.4-.21-.32-.14-.54-.33-.66-.56s-.17-.49-.17-.78V43c0-.32.06-.62.17-.92.11-.3.27-.57.48-.81.21-.24.44-.43.7-.57.26-.14.55-.21.87-.21h1.23c.3 0 .55.07.74.21.2.14.35.33.48.57.12.24.21.51.27.81s.08.61.08.92v9.18zm12.74-15.31c-1.18 0-2.13.27-2.87.81-.74.54-1.11 1.33-1.11 2.35v1.62c0 .6.11 1.1.32 1.51.21.41.5.75.87 1.01.36.26.78.45 1.26.56.48.11.97.17 1.47.17h4.54c.52 0 1.01-.07 1.46-.21.45-.14.84-.35 1.18-.63.34-.28.6-.63.8-1.04.2-.41.29-.89.29-1.43v-1.48c0-1.03-.32-1.82-.95-2.39-.63-.57-1.54-.85-2.72-.85h-4.54zm4.73 4.28c0 .39-.12.7-.36.94-.24.23-.57.35-.98.35h-2.49c-.43 0-.77-.12-1.01-.35-.24-.23-.36-.55-.36-.94v-.59c0-.39.14-.7.41-.91s.62-.32 1.05-.32h2.38c.41 0 .74.11.99.34s.38.53.38.92v.56zm11.12 15.82h-14.2v-3.89h-3.64v6.89h17.84zm-13.36-4.9v-3.11H552v-2.91h-15.74v2.91h4.43v3.11z"/><path d="M553.29 49.97H548v2.55h5.29v1.18h3.67V36.56h-3.67zm11.39-11.79v4.76h2.53l.55-4.76zm-4.76 4.76h2.52l.56-4.76h-3.08zM19.2 114.23l-1.18-.81-2.32 3.75-2.33-3.75-1.17.81 2.35 3.61H9.7v1.07h4.85l-2.35 3.61 1.17.81 2.33-3.75 2.32 3.75 1.18-.81-2.36-3.61h4.85v-1.07h-4.85zm7.05 1.63h15.26v-8.34H26.25v8.34zm2.3-6.75h10.89v5.12H28.55v-5.12zm-4.68 12.46h9.05v7.75h2.01v-7.75H44v-1.79H23.87zm36.96.03h-1.65v3.52h-5.01v-3.52h-1.65v3.52h-5.86v1.71h19.46v-1.71h-5.29zm3.53-6.44V109H48.43v1.68h13.69v3.19H48.43v5.88h15.93v-1.37H50.67v-3.22zm18.7-1.38h-2.68v1.52h2.68v3.75h-2.68v1.54h2.68v8.76h1.65v-21.98h-1.65zm4.68-6.41h1.57v21.98h-1.57zm-12.12.45h-2.18v1.88h-4.31v1.48h3.05c-.35.08-.7.21-1.02.39s-.62.42-.87.7a3.277 3.277 0 0 0-.82 2.24v4.54c0 .45.1.86.31 1.25.21.38.47.71.8.99.33.28.7.5 1.11.66.41.16.81.24 1.2.24h2.52c.45 0 .88-.09 1.3-.27.42-.18.79-.42 1.12-.71.33-.3.58-.65.77-1.06.19-.41.28-.85.28-1.32v-4.31c0-.47-.07-.89-.22-1.26s-.34-.7-.57-.98c-.23-.28-.5-.51-.81-.7s-.63-.32-.97-.39h3.25v-1.48h-3.92v-1.89zm.95 5.03c.45.44.67 1.03.67 1.78v3.86c0 .77-.22 1.33-.67 1.68-.45.35-1.05.53-1.79.53h-.98c-.71 0-1.32-.19-1.82-.56-.5-.37-.76-.94-.76-1.71v-3.81c0-.37.07-.71.22-1.01s.35-.56.6-.77c.25-.21.54-.38.87-.49.33-.11.67-.17 1.02-.17h.84c.75.01 1.35.23 1.8.67zm20.6 11.04h13.36c.02.37.02.75.01 1.12-.01.37-.02.63-.04.76-.06.54-.14 1.11-.24 1.69-.1.59-.34 1.22-.71 1.89h1.9c.43-.93.7-1.83.83-2.69s.18-1.74.18-2.63v-1.9H97.17v1.76zm13.87-10.25h-3.56v-6.21h-1.71v12.32h1.71v-4.73h3.56v4.73h1.7v-12.32h-1.7zm-8.1 3.59h-7.31v-2.66h7.03v-1.32h-7.03v-3.08h7.31v-1.76h-9.52v10.36h9.52zm13.69-5.8h8.48c-.08.86-.31 1.75-.7 2.69s-.91 1.87-1.54 2.8c-.63.93-1.37 1.85-2.21 2.74-.84.9-1.75 1.75-2.72 2.55v2.69c.69-.56 1.39-1.13 2.09-1.72.7-.59 1.33-1.18 1.89-1.78.62-.63 1.24-1.36 1.88-2.18a25.4 25.4 0 0 0 1.75-2.58c.53-.9.97-1.81 1.3-2.76.34-.94.5-1.87.5-2.79v-1.62h-10.72v1.96zm14.62-3.78h2.04v21.7h-2.04zm13.23 5.1c-.08.73-.23 1.47-.45 2.21-.21.75-.51 1.5-.9 2.27-.38.77-.87 1.55-1.47 2.35h2.16c.28-.37.54-.76.77-1.15.23-.39.45-.77.66-1.15.41-.78.77-1.74 1.09-2.87.32-1.13.47-2.33.45-3.6l-.03-1.9H136.6v1.62h8.01c0 .75-.05 1.49-.13 2.22zm8.83-5.41h-1.84v14.65h1.84v-6.11h3.03v-1.65h-3.03zm-12.43 15.1h-1.93v6.66h14.9v-1.68h-12.97zm32.55-10.45c-.5.5-1.08.98-1.75 1.43-.67.45-1.4.78-2.18 1.01v1.37c.63-.13 1.31-.36 2.02-.7s1.4-.74 2.07-1.22c.67-.48 1.28-1.01 1.83-1.61.55-.6.99-1.22 1.33-1.88.32.56.77 1.13 1.34 1.72s1.22 1.13 1.93 1.62c.71.49 1.44.92 2.2 1.27.76.36 1.48.59 2.17.7v-1.26c-.58-.17-1.19-.43-1.85-.78-.65-.35-1.27-.77-1.86-1.25-.59-.48-1.11-1-1.57-1.57s-.79-1.14-.99-1.72h6.13v-1.46h-14.62v1.46h5.49c-.04.37-.21.82-.5 1.33-.3.53-.69 1.04-1.19 1.54z"/><path d="M177.9 114.43h-1.99v3.53h-9.27v1.62h20.22v-1.62h-8.96zm5.86 8.47c-.31-.2-.66-.35-1.05-.45s-.79-.15-1.2-.15h-9.21c-.37 0-.74.06-1.11.17s-.7.28-1.01.49c-.31.21-.56.48-.74.8-.19.32-.28.67-.28 1.06V127c0 .71.23 1.28.69 1.71.46.43 1.1.64 1.92.64h10.47c.34 0 .65-.06.95-.17.3-.11.57-.27.81-.48.24-.21.43-.46.57-.77.14-.31.21-.66.21-1.05v-2.24c0-.37-.09-.71-.28-1.01-.18-.29-.43-.54-.74-.73zm-.77 3.51c0 .54-.17.93-.5 1.16s-.78.35-1.34.35h-7.81c-.28 0-.56-.01-.83-.03-.27-.02-.5-.08-.7-.2-.2-.11-.35-.28-.48-.49-.12-.21-.18-.52-.18-.91v-.73c0-.19.03-.38.08-.59s.16-.39.31-.56c.15-.17.36-.3.63-.41.27-.1.62-.15 1.05-.15h7.84c.58 0 1.04.15 1.4.45.35.3.53.72.53 1.26v.85zm20.7-4.81h-1.66v3.52h-5.01v-3.52h-1.65v3.52h-5.85v1.71h19.46v-1.71h-5.29zm3.52-6.44V109h-15.93v1.68h13.69v3.19h-13.69v5.88h15.93v-1.37h-13.69v-3.22zm21.2-8.15v2.27h-7.14v1.48h3.02c-.39.26-.68.59-.85.99s-.27.79-.27 1.16v1.71c0 .37.08.75.25 1.12s.41.71.71 1.02c.31.31.68.56 1.11.74.43.19.91.28 1.43.28h6.02c.5 0 .98-.09 1.41-.27.44-.18.82-.41 1.15-.7s.59-.62.78-.99c.2-.37.29-.77.29-1.18v-1.76c0-.37-.07-.76-.22-1.15a2.3 2.3 0 0 0-.7-.98h2.91v-1.48h-7.14V107h-2.76zm3.61 4.28c.73 0 1.33.22 1.81.67s.71 1.1.71 1.96c0 .84-.24 1.47-.71 1.89-.48.42-1.08.63-1.81.63h-4.56c-.78 0-1.4-.21-1.83-.63-.44-.42-.66-1.05-.66-1.89 0-.86.23-1.51.7-1.96.47-.45 1.06-.67 1.79-.67h4.56zm-12.12 10.56h9.07v7.42h2.04v-7.42h8.91v-1.71H219.9zm33.32-5.99h15.26v-8.34h-15.26v8.34zm2.29-6.75h10.89v5.12h-10.89v-5.12zm-4.67 12.46h9.04v7.75h2.02v-7.75h9.07v-1.79h-20.13zm36.96.03h-1.65v3.52h-5.02v-3.52h-1.65v3.52h-5.85v1.71h19.46v-1.71h-5.29zm3.53-3.22h-13.7v-3.22h13.7V109h-15.94v1.68h13.69v3.19h-13.69v5.88h15.94zm21.44 5.29h-8.93v-3.75h.59c.39 0 .79-.07 1.2-.2.41-.13.77-.34 1.09-.62.32-.28.58-.63.79-1.05.21-.42.31-.91.31-1.47v-2.8c0-.41-.05-.78-.14-1.12-.09-.34-.21-.63-.36-.88s-.31-.46-.49-.63c-.18-.17-.35-.29-.52-.36h3.22v-1.34h-5.6v-2.35h-2.27v2.35h-5.29v1.34h2.97c-.17.08-.34.2-.52.36s-.34.38-.49.63-.27.55-.36.88c-.09.34-.14.71-.14 1.12v2.8c0 .56.1 1.05.31 1.47.21.42.47.77.78 1.05.32.28.68.49 1.09.62.41.13.81.2 1.2.2h.87v3.75h-6.33v1.76h17.02v3.92h2.16V107.4h-2.16v16.27zm-10.64-5.29c-.92 0-1.56-.19-1.95-.57-.38-.38-.57-.97-.57-1.75v-1.57c0-.95.21-1.64.64-2.07.43-.43 1.04-.64 1.85-.64h1.37c.8 0 1.42.21 1.85.64s.64 1.12.64 2.07v1.57c0 .78-.19 1.37-.57 1.75-.38.38-1.02.57-1.92.57h-1.34zm21.2 3.33h1.93v-3.73h8.07v-1.51H318.6v1.51h4.73zm.84 1.54h-2.07v5.93h16.27v-1.42h-14.2z"/><path d="M337.72 123.36v-16.02h-2.01v13h-5.52v1.26h5.52v1.76zm-15.47-15.54c-.42.11-.79.28-1.11.5-.32.22-.57.5-.76.83-.19.33-.28.71-.28 1.16v1.43c0 .52.1.96.31 1.3.21.35.47.63.8.84.33.21.69.37 1.09.46.4.09.81.14 1.22.14h4.12c.41 0 .81-.06 1.19-.17.38-.11.72-.29 1.02-.52s.54-.53.73-.88.28-.77.28-1.23v-1.29c0-.9-.3-1.58-.9-2.04-.6-.47-1.35-.7-2.27-.7h-4.12c-.46 0-.9.06-1.32.17zm4.58 1.06c.65 0 1.18.13 1.57.38.39.25.59.7.59 1.33v.92c0 .63-.19 1.08-.57 1.34-.38.26-.9.39-1.55.39h-2.69c-.69 0-1.22-.13-1.6-.39-.37-.26-.56-.71-.56-1.34v-.95c0-.65.21-1.1.62-1.33.41-.23.95-.35 1.62-.35h2.57zm14.39 16.16h20.19v1.48h-20.19zm4.55-14.88c-.44.31-.81.68-1.11 1.11-.3.43-.48.92-.53 1.46-.02.15-.03.31-.04.48s-.01.35-.01.53c0 .11 0 .31.01.59.01.28.01.56.01.85 0 .29 0 .56.01.8s.01.37.01.39c0 .43.14.85.41 1.27s.63.8 1.09 1.13.98.61 1.58.81 1.22.31 1.88.31h4.79c.62 0 1.21-.09 1.78-.28.57-.19 1.06-.44 1.48-.76.42-.32.76-.68 1.01-1.09.25-.41.38-.83.38-1.26v-3.92c0-.43-.13-.85-.39-1.26-.26-.41-.61-.77-1.04-1.09-.43-.32-.93-.57-1.51-.76-.58-.19-1.18-.28-1.79-.28h-4.84c-.58 0-1.14.08-1.69.25s-1.05.41-1.49.72zm3.4.82c.49-.06.97-.08 1.46-.08h2.18c.48 0 .97.07 1.44.2.48.13.91.31 1.29.55.38.23.69.52.92.87.23.35.35.72.35 1.13 0 .09 0 .19.01.29.01.1.01.21.01.32.02.26.03.57.03.92 0 .36-.02.64-.06.87-.06.34-.2.64-.42.92-.22.28-.51.52-.85.73s-.74.36-1.19.48c-.45.11-.91.17-1.4.17h-2.44c-.49 0-.97-.04-1.44-.11-.48-.07-.92-.2-1.33-.38a3.41 3.41 0 0 1-1.05-.71c-.29-.3-.49-.67-.6-1.12-.09-.34-.14-.77-.14-1.29 0-.22 0-.45.01-.67.01-.22.03-.43.07-.62.13-.56.35-1.01.67-1.34.32-.34.69-.59 1.11-.77.44-.18.89-.3 1.37-.36zm32.48 4.46v-6.5h-15.54v1.71h13.41v3.5h-13.41v5.71h15.54v-1.29h-13.41v-3.13zm-6.94 6.32h-1.93v3.45h-8.71v1.71h19.65v-1.71h-9.01zm37.38-14.02h-2.16v21.58h2.16v-12.06h3.39v-1.99h-3.39zm-17.17 3.44h4.65v2.04c0 .62-.02 1.27-.07 1.95-.05.68-.14 1.36-.29 2.03s-.37 1.33-.66 1.97c-.29.64-.68 1.24-1.16 1.78-.32.34-.68.65-1.09.94-.41.29-.86.5-1.34.63v1.68c.34-.09.75-.25 1.25-.48.49-.22.93-.47 1.3-.73 1.53-1.06 2.58-2.54 3.16-4.42.32 1.06.79 1.96 1.43 2.69.63.73 1.26 1.32 1.88 1.76.43.32.86.57 1.3.76.44.19.82.32 1.13.39v-1.71c-.5-.19-.96-.42-1.36-.71-.4-.29-.76-.61-1.08-.97-.54-.52-.96-1.1-1.26-1.72-.3-.62-.53-1.26-.69-1.92-.16-.65-.25-1.31-.28-1.97-.03-.66-.04-1.3-.04-1.92v-2.07h4.76v-1.65h-11.54v1.65zm34.05 3.22h6.27v-1.37h-12.4v-4.09h12.4v-1.54h-14.56v7h6.22v3.33h-9.27v1.79h20.39v-1.79h-9.05zm6.22 8.65c-.63-.47-1.43-.7-2.38-.7h-9.32c-.37 0-.77.05-1.18.15-.41.1-.79.27-1.15.49s-.64.51-.87.85c-.22.35-.34.77-.34 1.27v1.62c0 .43.08.81.25 1.13s.39.6.67.83c.28.22.6.39.95.5s.71.17 1.06.17h10.3c.82 0 1.52-.24 2.09-.71s.85-1.11.85-1.89v-1.65c.02-.9-.3-1.59-.93-2.06zm-.9 3.28c0 .58-.19.99-.57 1.25s-.85.38-1.41.38h-8.09c-.75 0-1.3-.1-1.67-.29-.36-.2-.55-.69-.55-1.47v-.48c0-.19.04-.38.11-.59.07-.21.2-.39.36-.56s.39-.31.67-.42c.28-.11.63-.17 1.06-.17h8.12c.6 0 1.07.18 1.43.55.35.36.53.8.53 1.3v.5zm20.41-4.23h-2.01v6.69h15.09v-1.68H454.7zm-.07-7.24c.44-.63.76-1.25.97-1.86.28.67.66 1.32 1.15 1.95s1 1.19 1.55 1.71 1.11.96 1.67 1.34c.56.38 1.05.67 1.48.85v-1.93c-.78-.45-1.49-.95-2.11-1.51a12.1 12.1 0 0 1-1.6-1.72c-.44-.59-.79-1.16-1.05-1.72s-.42-1.08-.48-1.57h5.57v-1.76h-12.71v1.76h5.71c-.04.47-.18 1-.43 1.61-.25.61-.61 1.22-1.06 1.85-.46.63-1.01 1.23-1.65 1.82a9.99 9.99 0 0 1-2.23 1.53v1.82c.62-.22 1.25-.55 1.89-.98.64-.43 1.25-.91 1.82-1.44.57-.54 1.08-1.12 1.51-1.75zm12.84 5.92v-13.44h-1.76v5.55h-3.78v1.76h3.78v6.13zm20.58-13.41h-1.99v11.4h-7.62v-2.46h.7c.91 0 1.68-.21 2.31-.63.62-.42.94-1.12.94-2.09v-1.37c0-.86-.28-1.44-.84-1.74h1.96v-1.29h-4.82v-2.38h-2.27v2.38h-4.87v1.29h2.13c-.6.32-.9.9-.9 1.74v1.37c0 .97.31 1.67.94 2.09.63.42 1.4.63 2.31.63h.36v2.46h-5.43v1.54h15.09v1.68h1.99v-8.04h2.91v-1.76h-2.91v-4.82zm-12.37 7.59c-.24-.11-.44-.25-.59-.42s-.25-.35-.31-.56c-.06-.21-.08-.4-.08-.59v-.92c0-.54.15-.98.46-1.33.31-.34.79-.52 1.44-.52h1.99c.65 0 1.13.17 1.44.52.31.35.46.79.46 1.33v.92c0 .19-.03.38-.08.59a1.5 1.5 0 0 1-.29.56c-.14.17-.34.31-.59.42s-.57.17-.94.17h-1.96c-.39 0-.71-.06-.95-.17zm-.65 7.78h-1.96v6.3h15.57v-1.76h-13.61zm35-15.37h2.02v12.74h-2.02zm.06 16.63h-11.76v-2.27h-2.02v7.84h15.74v-7.84h-1.96V124zm0 4.18h-11.76v-2.77h11.76v2.77zm-1.96-10.25h-6.92v-3.28h5.01v-1.43h-9.71v-3.78h9.43v-1.45h-11.31v6.66h4.65v3.28h-6.05v1.48h14.9zm21.87-10.5h2.04v21.87H530zm-11.79 2.32h-1.96v14.14h11.51v-2.01h-9.55zm19.96 1.6h8.62v-1.77h-10.61v14.79h11.57v-1.91h-9.58zm13.89-3.64h-1.96v21.59h1.96v-12.27h3.44v-1.96h-3.44zm5.4 17.97h2.41v2.38h-2.41z"/></svg>