<svg id="현대카드" xmlns="http://www.w3.org/2000/svg" xmlns:xlink="http://www.w3.org/1999/xlink" width="88" height="88" viewBox="0 0 88 88">
  <defs>
    <clipPath id="clip-path">
      <rect id="사각형_16748" data-name="사각형 16748" width="88" height="88" transform="translate(0 0)" fill="none"/>
    </clipPath>
  </defs>
  <g id="그룹_65182" data-name="그룹 65182" transform="translate(0 0)" clip-path="url(#clip-path)">
    <path id="패스_50290" data-name="패스 50290" d="M88,44A44,44,0,1,1,44,0,44,44,0,0,1,88,44" transform="translate(0 0)"/>
    <path id="패스_50291" data-name="패스 50291" d="M27.41,26.145H10.82a.494.494,0,0,1-.536-.449.423.423,0,0,1,0-.087V23.458a.494.494,0,0,1,.449-.536.419.419,0,0,1,.087,0H16.5a.439.439,0,0,0,.5-.365.434.434,0,0,0,0-.139V19.63a.493.493,0,0,1,.445-.536.479.479,0,0,1,.093,0h2.754a.519.519,0,0,1,.568.466.561.561,0,0,1,0,.07v2.787a.442.442,0,0,0,.365.5.434.434,0,0,0,.139,0H27.41a.5.5,0,0,1,.538.449.842.842,0,0,1,0,.087v2.151a.5.5,0,0,1-.451.536.419.419,0,0,1-.087,0M26.09,33.3c0,3.356-2.654,6.11-7.261,6.11-4.635,0-7.259-2.754-7.259-6.11,0-3.325,2.619-6.112,7.259-6.112C23.448,27.18,26.1,29.94,26.1,33.3ZM18.7,41.457v4.566a.442.442,0,0,0,.365.5.434.434,0,0,0,.139,0H35.964a.5.5,0,0,1,.536.449.42.42,0,0,1,0,.087v2.317a.5.5,0,0,1-.449.536.419.419,0,0,1-.087,0H19.81a3.111,3.111,0,0,1-1.916-.536L15.545,47.7a2.3,2.3,0,0,1-.881-1.947v-4.3a.493.493,0,0,1,.445-.536.479.479,0,0,1,.093,0h2.955a.5.5,0,0,1,.557.536Zm3.56-8.159a3.092,3.092,0,0,0-3.169-3.012c-.1,0-.195.009-.292.021a3.014,3.014,0,0,0-.762,5.98,3.092,3.092,0,0,0,.762,0A3.092,3.092,0,0,0,22.25,33.6a2.522,2.522,0,0,0,.022-.3ZM32.639,20.469h2.82a.491.491,0,0,1,.536.445A.464.464,0,0,1,36,21V42.228a.494.494,0,0,1-.449.538.419.419,0,0,1-.087,0H32.641a.5.5,0,0,1-.536-.449.436.436,0,0,1,0-.088v-4.2a.439.439,0,0,0-.365-.5.425.425,0,0,0-.138,0H27.741a.494.494,0,0,1-.536-.449.42.42,0,0,1,0-.087V34.773a.52.52,0,0,1,.467-.569.528.528,0,0,1,.069,0H31.6a.438.438,0,0,0,.5-.365.425.425,0,0,0,0-.138V31.483a.439.439,0,0,0-.365-.5.426.426,0,0,0-.138,0H27.741a.494.494,0,0,1-.536-.449.42.42,0,0,1,0-.087V28.224a.518.518,0,0,1,.466-.568.545.545,0,0,1,.07,0H31.6a.439.439,0,0,0,.5-.5V21a.493.493,0,0,1,.448-.535.434.434,0,0,1,.088,0Z" transform="translate(5.117 9.501)" fill="#fff"/>
    <path id="패스_50292" data-name="패스 50292" d="M42.235,21.988a.52.52,0,0,1,.539.5.6.6,0,0,1,0,.073v2.288a.494.494,0,0,1-.449.536.419.419,0,0,1-.087,0H36.628a.442.442,0,0,0-.5.365.435.435,0,0,0,0,.139V39.456a.441.441,0,0,0,.365.5.434.434,0,0,0,.139,0l9.1-.069a.439.439,0,0,0,.5-.365.426.426,0,0,0,0-.138v-18.5a.5.5,0,0,1,.449-.538.449.449,0,0,1,.09,0h2.654a.492.492,0,0,1,.536.445.477.477,0,0,1,0,.093v9.739a.439.439,0,0,0,.365.5.425.425,0,0,0,.138,0h2.889a.439.439,0,0,0,.5-.365.426.426,0,0,0,0-.138V20.553a.493.493,0,0,1,.445-.536.449.449,0,0,1,.09,0H57.08a.491.491,0,0,1,.536.445.466.466,0,0,1,0,.091V49.268a.493.493,0,0,1-.449.536.421.421,0,0,1-.087,0H54.391a.492.492,0,0,1-.535-.446q0-.045,0-.09V35.029a.44.44,0,0,0-.365-.5.531.531,0,0,0-.138,0H50.465a.44.44,0,0,0-.5.5v13.8a.494.494,0,0,1-.445.538.466.466,0,0,1-.091,0H46.771a.5.5,0,0,1-.539-.448.447.447,0,0,1,0-.09V43.022c0-.335-.168-.538-.5-.5l-6.919.74a16.573,16.573,0,0,1-1.847.135H36.9a3.122,3.122,0,0,1-1.915-.538L33.2,41.445A2.3,2.3,0,0,1,32.32,39.5V22.537A.5.5,0,0,1,32.771,22a.421.421,0,0,1,.087,0Z" transform="translate(16.083 9.961)" fill="#fff"/>
  </g>
</svg>
