<svg xmlns="http://www.w3.org/2000/svg" width="40" height="40"><defs><clipPath id="clip-path"><path id="사각형_13397" data-name="사각형 13397" transform="translate(-4200 11201)" style="fill:#fff" d="M0 0h40v40H0z"/></clipPath><style>.cls-3{fill:#1a1311}</style></defs><g id="마스크_그룹_54" data-name="마스크 그룹 54" transform="translate(4200 -11201)" style="clip-path:url(#clip-path)"><g id="ico_setup" transform="translate(-4197.699 11203.301)"><path id="패스_45180" data-name="패스 45180" class="cls-3" d="m508.2 488.562-2.516-.45a14.238 14.238 0 0 0-.839-2.025l1.311-1.835a2.473 2.473 0 0 0-.268-3.21l-2.159-2.16a2.5 2.5 0 0 0-1.758-.734h-.011a2.436 2.436 0 0 0-1.433.464l-1.84 1.312a13.946 13.946 0 0 0-2.116-.87l-.37-2.2a2.481 2.481 0 0 0-2.456-2.081h-3.062a2.48 2.48 0 0 0-2.455 2.079l-.385 2.257a13.9 13.9 0 0 0-2.022.852L484 478.655a2.48 2.48 0 0 0-3.21.269l-2.168 2.161a2.485 2.485 0 0 0-.269 3.209l1.328 1.866a13.8 13.8 0 0 0-.828 2.034l-2.194.37a2.48 2.48 0 0 0-2.081 2.46v3.053a2.48 2.48 0 0 0 2.079 2.461l2.257.385a13.81 13.81 0 0 0 .852 2.022l-1.3 1.811a2.476 2.476 0 0 0 .269 3.21l2.159 2.159a2.472 2.472 0 0 0 3.2.271l1.862-1.329a14.08 14.08 0 0 0 1.953.8l.371 2.226a2.479 2.479 0 0 0 2.454 2.081h3.066a2.479 2.479 0 0 0 2.456-2.079l.38-2.227a14.031 14.031 0 0 0 2.027-.84l1.836 1.313a2.479 2.479 0 0 0 3.21-.269l2.161-2.161a2.486 2.486 0 0 0 .269-3.209l-1.313-1.841a13.883 13.883 0 0 0 .839-2.024l2.226-.371a2.477 2.477 0 0 0 2.081-2.459v-3.047a2.479 2.479 0 0 0-1.772-2.398zm-.857 4.77-.015-.01.008.549-2.913.485a1.319 1.319 0 0 0-1.062.975 11.3 11.3 0 0 1-1.223 2.946 1.329 1.329 0 0 0 .058 1.443l1.715 2.415-1.977 1.977-2.408-1.716a1.331 1.331 0 0 0-1.444-.058 11.233 11.233 0 0 1-2.944 1.223 1.309 1.309 0 0 0-.976 1.062l-.493 2.916h-2.79l-.486-2.915a1.318 1.318 0 0 0-.972-1.061 11.735 11.735 0 0 1-2.89-1.184 1.351 1.351 0 0 0-.663-.176 1.29 1.29 0 0 0-.763.246l-2.43 1.728-1.985-1.977 1.708-2.393a1.345 1.345 0 0 0 .057-1.451 11.16 11.16 0 0 1-1.239-2.942 1.347 1.347 0 0 0-1.059-.97l-2.937-.5v-2.791l2.892-.485a1.33 1.33 0 0 0 1.071-.983 11.238 11.238 0 0 1 1.2-2.953 1.319 1.319 0 0 0-.067-1.435l-1.728-2.43 1.977-1.977 2.394 1.708a1.341 1.341 0 0 0 1.451.057 11.138 11.138 0 0 1 2.942-1.238 1.345 1.345 0 0 0 .969-1.06l.5-2.937h2.79l.485 2.893a1.329 1.329 0 0 0 .982 1.07 11.41 11.41 0 0 1 3.021 1.24 1.328 1.328 0 0 0 1.445-.061l2.39-1.72 1.977 1.977-1.715 2.408a1.329 1.329 0 0 0-.058 1.444 11.235 11.235 0 0 1 1.223 2.944 1.307 1.307 0 0 0 1.063.976l2.915.493z" transform="translate(-474.574 -474.778)"/><path id="패스_45181" data-name="패스 45181" class="cls-3" d="M496.8 489.047a7.947 7.947 0 1 0 7.947 7.947 7.956 7.956 0 0 0-7.947-7.947zm0 13.2a5.254 5.254 0 1 1 5.255-5.254 5.26 5.26 0 0 1-5.255 5.255z" transform="translate(-479.098 -479.299)"/></g></g></svg>