<svg id="ico_small_bank7_SC제일은행" xmlns="http://www.w3.org/2000/svg" width="36" height="36">
    <defs>
        <style>
            .cls-2{fill:#fff}
        </style>
    </defs>
    <circle id="타원_63" data-name="타원 63" cx="18" cy="18" r="18" style="fill:#006cad"/>
    <g id="그룹_466" data-name="그룹 466" transform="translate(9.187 3.6)">
        <path id="패스_920" data-name="패스 920" class="cls-2" d="M548.373 1897.839a3.879 3.879 0 0 1-1.982.661 3.257 3.257 0 0 1-3.205-3.075l3.316-1.976 5.16 2.309-3.289 2.081z" transform="translate(-543.186 -1872.363)"/>
        <path id="패스_921" data-name="패스 921" class="cls-2" d="m559.331 1859.1-2.468-1.087c-1.1-.49-2.142-.9-2.142-2.114a1.683 1.683 0 0 1 .492-1.284l5.215 2.3-1.29.745c-.36.22-.606.41-.606.687 0 .3.339.551.8.757z" transform="translate(-552.17 -1842.112)"/>
        <path id="패스_922" data-name="패스 922" class="cls-2" d="m561.944 1803.693-2.526 1.533c-.228.136-.525.354-.525.689 0 .387.587.677 1.1.924l-3.165-1.395c-.928-.41-1.859-.874-1.859-2a2.07 2.07 0 0 1 .353-1.184l6.838-4.177a3.1 3.1 0 0 1 1.613 2.663 3.27 3.27 0 0 1-1.832 2.944z" transform="translate(-552.366 -1798.087)"/>
        <path id="패스_923" data-name="패스 923" class="cls-2" d="m590.217 1826.042-.629.356-5.222-2.306 6.07-3.656a3.131 3.131 0 0 1 1.622 2.665 3.2 3.2 0 0 1-1.841 2.941z" transform="translate(-575.26 -1815.493)"/>
        <path id="패스_924" data-name="패스 924" class="cls-2" d="m586.684 1865.834 3.088 1.359c1.16.516 1.516 1.125 1.516 1.894a1.619 1.619 0 0 1-.6 1.177l-5.194-2.306.875-.492c.747-.41.993-.661.993-.93 0-.286-.175-.471-.676-.7z" transform="translate(-576.137 -1850.853)"/>
        <path id="패스_925" data-name="패스 925" class="cls-2" d="M560.875 1868.5a21.689 21.689 0 0 0-4.422-2.47l-7.877-3.485c-1.979-.881-3.292-2.058-3.292-4.036a3.9 3.9 0 0 1 2.142-3.619l.437-.274a1.683 1.683 0 0 0-.492 1.284c0 1.212 1.042 1.624 2.142 2.114l9.161 4.041c1.594.685 3.055 1.859 3.055 3.865a4.121 4.121 0 0 1-.854 2.58z" transform="translate(-544.82 -1842.112)"/>
        <path id="패스_926" data-name="패스 926" class="cls-2" d="m560.514 1831.853-.571.356a1.623 1.623 0 0 0 .6-1.177c0-.769-.356-1.378-1.515-1.894l-9.8-4.315c-1.979-.874-3.212-2-3.212-3.975a4.318 4.318 0 0 1 2.333-3.874 2.079 2.079 0 0 0-.353 1.184c0 1.125.932 1.589 1.859 2l9.524 4.2c1.734.766 3.135 1.924 3.135 4.036a3.8 3.8 0 0 1-2 3.457z" transform="translate(-545.394 -1812.798)"/>
    </g>
</svg>
