<svg xmlns="http://www.w3.org/2000/svg" width="65" height="65" viewBox="0 0 65 65">
    <defs>
        <clipPath id="clip-path">
            <path id="사각형_13750" data-name="사각형 13750" transform="translate(-15825 -23624)" style="stroke:#707070;fill:#fff" d="M0 0h65v65H0z"/>
        </clipPath>
        <style>
            .cls-3{fill:#fff}
        </style>
    </defs>
    <g id="마스크_그룹_30311" data-name="마스크 그룹 30311" transform="translate(15825 23624)" style="clip-path:url(#clip-path)">
        <g id="그룹_58227" data-name="그룹 58227" transform="translate(-16332.33 -23953.836)">
            <g id="그룹_58225" data-name="그룹 58225">
                <path id="패스_48407" data-name="패스 48407" class="cls-3" d="M1358.244 416.427V385.27a2.089 2.089 0 0 1 .633-1.5l11.419-10.935a2.088 2.088 0 0 1 1.44-.58h19.18a4.251 4.251 0 0 1 4.248 4.258l-.025 42.086a2.071 2.071 0 0 1-2.071 2.076l-30.575.011a4.256 4.256 0 0 1-4.249-4.259zm32.769-39.916a.1.1 0 0 0-.1-.1h-18.343l-10.165 9.746v30.269a.1.1 0 0 0 .087.1l28.494-.007z" transform="translate(-838.915 -36.418)"/>
                <path id="패스_48408" data-name="패스 48408" class="cls-3" d="M1369.27 396h15.23a2.078 2.078 0 0 0 0-4.157h-15.23a2.078 2.078 0 1 0 0 4.157z" transform="translate(-840.165 -40.09)"/>
                <path id="패스_48409" data-name="패스 48409" class="cls-3" d="M1369.27 405.888h10.35a2.079 2.079 0 1 0 0-4.159h-10.35a2.079 2.079 0 1 0 0 4.159z" transform="translate(-840.165 -39.744)"/>
                <path id="패스_48410" data-name="패스 48410" class="cls-3" d="M1369.27 415.773h17.345a2.079 2.079 0 1 0 0-4.159h-17.345a2.079 2.079 0 1 0 0 4.159z" transform="translate(-840.135 -39.398)"/>
            </g>
            <g id="그룹_58226" data-name="그룹 58226" transform="translate(-3988.136 -1750.576)">
                <path id="패스_48411" data-name="패스 48411" class="cls-3" d="M1403.406 403.677a10.272 10.272 0 1 1-14.522 0 10.283 10.283 0 0 1 14.522 0z" transform="translate(3143.112 1715.544)"/>
                <path id="패스_48412" data-name="패스 48412" d="M1396.164 423.242a12.288 12.288 0 1 1 8.686-3.6 12.192 12.192 0 0 1-8.686 3.6zm0-20.546a8.172 8.172 0 0 0-5.837 2.419 8.264 8.264 0 0 0 0 11.679 8.252 8.252 0 0 0 11.674 0 8.258 8.258 0 0 0-5.837-14.1z" transform="translate(3143.103 1715.529)" style="fill:#6a6a6a"/>
                <path id="패스_48413" data-name="패스 48413" d="M488.339 679.944h-.014a1.084 1.084 0 0 1-.856-.431l-2.839-3.71a1.093 1.093 0 0 1 1.735-1.329l1.994 2.61 4.588-5.688a1.092 1.092 0 0 1 1.7 1.371l-5.459 6.767a1.086 1.086 0 0 1-.849.41z" transform="translate(4050.054 1451.02)" style="fill:#0090db"/>
            </g>
        </g>
    </g>
</svg>
