<svg xmlns="http://www.w3.org/2000/svg" width="65" height="65" viewBox="0 0 65 65">
    <defs>
        <clipPath id="clip-path">
            <path id="사각형_13755" data-name="사각형 13755" transform="translate(-15916 -23439)" style="stroke:#707070;fill:#fff" d="M0 0h65v65H0z"/>
        </clipPath>
        <style>
            .cls-3{fill:#fff}.cls-5{fill:#6a6a6a}
        </style>
    </defs>
    <g id="마스크_그룹_30313" data-name="마스크 그룹 30313" transform="translate(15916 23439)" style="clip-path:url(#clip-path)">
        <g id="그룹_58232" data-name="그룹 58232" transform="translate(-16243 -23768.836)">
            <g id="그룹_58229" data-name="그룹 58229" transform="translate(188.517 93.236)">
                <path id="패스_47769" data-name="패스 47769" class="cls-3" d="M156.5 291.659V260.5a2.091 2.091 0 0 1 .633-1.5l11.419-10.935a2.086 2.086 0 0 1 1.44-.58h19.18a4.25 4.25 0 0 1 4.248 4.254l-.025 42.086a2.071 2.071 0 0 1-2.066 2.076l-30.575.011a4.256 4.256 0 0 1-4.254-4.253zm32.769-39.916a.1.1 0 0 0-.1-.1h-18.347l-10.165 9.746v30.269a.1.1 0 0 0 .087.1l28.494-.007z"/>
                <path id="패스_47771" data-name="패스 47771" class="cls-3" d="M166.016 267.934h17.89a2.078 2.078 0 1 0 0-4.156h-17.89a2.078 2.078 0 1 0 0 4.156z"/>
                <path id="패스_47772" data-name="패스 47772" class="cls-3" d="M166.016 276.158h17.89a2.079 2.079 0 1 0 0-4.159h-17.89a2.079 2.079 0 0 0 0 4.159z"/>
                <path id="패스_47773" data-name="패스 47773" class="cls-3" d="M166.016 284.379h17.89a2.079 2.079 0 1 0 0-4.159h-17.89a2.079 2.079 0 0 0 0 4.159z"/>
                <path id="패스_48414" data-name="패스 48414" class="cls-3" d="M149.731 285.871a.1.1 0 0 1-.087-.1V255.5l10.165-9.746h18.343a.1.1 0 0 1 .1.1v1.631h4.148v-1.633a4.25 4.25 0 0 0-4.248-4.254h-19.18a2.086 2.086 0 0 0-1.44.58l-11.419 10.935a2.089 2.089 0 0 0-.633 1.5v31.157a4.256 4.256 0 0 0 4.249 4.259h2.6v-4.16z"/>
                <path id="사각형_13752" data-name="사각형 13752" class="cls-3" transform="translate(178.25 247.487)" d="M0 0h4.151v4.156H0z"/>
                <path id="사각형_13753" data-name="사각형 13753" class="cls-3" transform="translate(152.335 285.869)" d="M0 0h4.161v4.159H0z"/>
            </g>
            <g id="그룹_58231" data-name="그룹 58231" transform="translate(-6196.342 1382.124)">
                <g id="그룹_58230" data-name="그룹 58230" transform="translate(6557.198 -1025.859)">
                    <path id="패스_48415" data-name="패스 48415" d="M1403.437 403.683a10.286 10.286 0 1 1-14.547 0 10.288 10.288 0 0 1 14.547 0z" transform="translate(-1383.866 -398.653)" style="opacity:.69;fill:#fff"/>
                    <path id="패스_48416" data-name="패스 48416" class="cls-5" d="M1396.18 423.276a12.3 12.3 0 1 1 8.7-3.6 12.224 12.224 0 0 1-8.7 3.6zm0-20.571a8.268 8.268 0 1 0 5.848 2.422 8.216 8.216 0 0 0-5.848-2.427z" transform="translate(-1383.883 -398.67)"/>
                </g>
                <path id="패스_48417" data-name="패스 48417" class="cls-5" d="M1397.587 415.266a1.228 1.228 0 0 1-.262-2.427 2.287 2.287 0 0 0 1.676-1.054 3.756 3.756 0 0 0-.091-2.728 1.227 1.227 0 0 1 2.262-.953 6.156 6.156 0 0 1 .012 4.8 4.62 4.62 0 0 1-3.335 2.331 1.209 1.209 0 0 1-.262.031z" transform="translate(5174.386 -1423.534)"/>
                <rect id="사각형_13754" data-name="사각형 13754" class="cls-5" width="15.097" height="5.951" rx="2.976" transform="rotate(49 4392.74 6710.031)"/>
            </g>
        </g>
    </g>
</svg>
