<svg id="그룹_58239" data-name="그룹 58239" xmlns="http://www.w3.org/2000/svg" width="584.722" height="104.998" viewBox="0 0 584.722 104.998">
    <defs>
        <clipPath id="clip-path">
            <path id="사각형_13760" data-name="사각형 13760" style="fill:none" d="M0 0h584.722v104.998H0z"/>
        </clipPath>
        <style>
            .cls-3{fill:#191a1a}
        </style>
    </defs>
    <g id="그룹_58239-2" data-name="그룹 58239" style="clip-path:url(#clip-path)">
        <path id="패스_48424" data-name="패스 48424" class="cls-3" d="M8.223 7.623c-.01 3.734 1.325 7.556 4.914 9.432L11.2 19.619a9.619 9.619 0 0 1-4.6-5.582 10.551 10.551 0 0 1-4.614 6.152L0 17.587c3.551-2.041 4.914-6.1 4.934-9.964v-.475H.8V4.314h4.134V.948h3.26v3.366h4.092v2.834H8.223zM18.845.077h3.337V25h-3.337V12.527h-2.128v11.32h-3.3V.464h3.3v9.219h2.128z"/>
        <path id="패스_48425" data-name="패스 48425" class="cls-3" d="M47.409 14.018v2.8h-9.733v8.146h-3.453v-8.151h-9.587v-2.8zm-2.719-2.68H27.325V1.306H44.69zm-3.473-7.266H30.75v4.537h10.467z"/>
        <path id="패스_48426" data-name="패스 48426" class="cls-3" d="m56.832 14.55-1.877-2.739A8.3 8.3 0 0 0 60.9 3.666V1.412h3.5v2.593c0 3.018 1.761 5.921 5.7 7.13l-1.848 2.718A9.211 9.211 0 0 1 62.685 9.1a9.574 9.574 0 0 1-5.853 5.447m18.487 5.61c0 3.067-3.241 4.838-8.407 4.828-5.243.01-8.533-1.761-8.523-4.828-.01-3.008 3.28-4.8 8.523-4.788 5.166-.01 8.407 1.78 8.407 4.788m-3.444 0c0-1.345-1.722-2.07-4.963-2.07-3.26 0-5.04.725-5.03 2.07-.01 1.423 1.77 2.09 5.03 2.1 3.241-.01 4.963-.677 4.963-2.1M75.087 5.91h3.347V8.8h-3.347v6.056h-3.5V.077h3.5z"/>
        <path id="패스_48427" data-name="패스 48427" class="cls-3" d="M95.04 15.972a90.829 90.829 0 0 1-15.42 1.122l-.358-2.694c1.8 0 3.879-.02 6.056-.087V12.9c-2.709-.4-4.4-1.741-4.392-3.7-.01-2.458 2.418-3.9 6.1-3.889 3.666-.01 6.085 1.431 6.1 3.889-.01 1.935-1.674 3.28-4.325 3.686v1.277a72.859 72.859 0 0 0 5.989-.6zm-.88-13.863v2.515H79.92V2.109h5.4V0h3.48v2.109zm-7.885 16.127v3.511H100.3v2.816H82.754v-6.327zm.755-7.576c1.751 0 2.747-.531 2.757-1.46-.01-1.054-1.006-1.567-2.757-1.567-1.77 0-2.776.513-2.767 1.567-.009.929 1 1.46 2.767 1.46m12.412-2.4h3.192v2.873h-3.192v8.4H95.95V.077h3.492z"/>
        <path id="패스_48428" data-name="패스 48428" class="cls-3" d="M116.842 9.3V.464h3.3v23.383h-3.3V12.083h-2c-.3 4.885-2.389 7.846-5.465 7.836-3.28.01-5.418-3.444-5.409-9.056-.009-5.562 2.129-9 5.409-9 3 0 5.059 2.8 5.436 7.43zm-5.176 1.566c0-3.8-.851-5.707-2.292-5.7-1.394-.01-2.216 1.895-2.2 5.7-.019 3.841.8 5.718 2.2 5.708 1.441.01 2.292-1.867 2.292-5.708M121.988.077h3.337V25h-3.337z"/>
        <path id="패스_48429" data-name="패스 48429" class="cls-3" d="M151.969.077h3.454v24.978h-3.454V11.88h-4.295c-.358 4.778-2.931 7.719-6.394 7.719-3.783 0-6.482-3.424-6.472-8.9-.01-5.417 2.689-8.861 6.472-8.861 3.357 0 5.872 2.766 6.355 7.246h4.334zM144.414 10.7c-.01-3.686-1.258-5.708-3.134-5.708-1.858 0-3.135 2.022-3.125 5.708-.01 3.725 1.267 5.736 3.125 5.736 1.876 0 3.124-2.011 3.134-5.736"/>
        <path id="패스_48430" data-name="패스 48430" class="cls-3" d="M162.984 16.61a62.1 62.1 0 0 0 8.929-.648l.281 2.853a65.789 65.789 0 0 1-10.729.658H159.5V9.025h7.71V4.943h-7.768V2.167h11.192v9.567h-7.652zM176.131.077h3.469v24.979h-3.473V14.994h-4.256V12.14h4.256V8.213h-4.188V5.379h4.188z"/>
        <path id="패스_48431" data-name="패스 48431" class="cls-3" d="M205.555 14.085H195.9v2.139h6.927v8.493h-17.355v-8.493h6.956v-2.139h-9.587v-2.8h22.714zm-20.441-8.822c-.01-3.029 3.56-4.828 9.065-4.837 5.543.009 9.045 1.808 9.054 4.837-.009 2.96-3.511 4.75-9.054 4.74-5.505.01-9.075-1.78-9.065-4.74m3.628 0c-.019 1.373 1.964 2.089 5.437 2.08 3.444.009 5.456-.707 5.456-2.08 0-1.442-2.012-2.177-5.456-2.167-3.473-.01-5.456.725-5.437 2.167m10.68 13.727h-10.516v2.931h10.516z"/>
        <path id="패스_48432" data-name="패스 48432" class="cls-3" d="M207.051 10.139h22.714v2.767h-22.714zm2.273-5.457c-.01-2.737 3.318-4.237 9.065-4.237s9.045 1.5 9.054 4.237c-.009 2.786-3.317 4.276-9.054 4.276s-9.075-1.49-9.065-4.276m3.792 16.011v1.5h14.521v2.631h-17.946v-6.569h13.854V16.9h-13.873v-2.563h17.317v6.356zm-.135-16.011c-.02 1.229 1.76 1.7 5.408 1.713 3.695-.01 5.456-.484 5.456-1.713 0-1.093-1.761-1.692-5.456-1.683-3.648-.009-5.428.59-5.408 1.683"/>
        <path id="패스_48433" data-name="패스 48433" class="cls-3" d="M255.219.116h3.481v14.259h-3.483v-2.408h-5.64V9.181h5.64V6.646h-5.224c-1.664 3.821-5.32 6.511-10.622 7.9l-1.344-2.719c5.533-1.4 8.667-4.169 9.229-7.507H239.4V1.548H251a14.686 14.686 0 0 1-.184 2.293h4.4zm-14.433 18.062v-2.8h8.542v9.577h-3.512v-6.777zm9.625 0v-2.8h8.289v9.577h-3.483v-6.777z"/>
        <path id="패스_48434" data-name="패스 48434" class="cls-3" d="M273.518 19.106h11.125v2.834h-22.715v-2.834h8.126v-8.561h3.464zm4.4-2.951a54.008 54.008 0 0 0 1.017-11.135h-14.666V2.244h18.168V4.6a59.207 59.207 0 0 1-1 11.919z"/>
        <path id="패스_48435" data-name="패스 48435" class="cls-3" d="M292.974 7.361c-.01-3.52 2.922-5.988 6.811-5.988s6.8 2.468 6.8 5.988c0 3.474-2.921 5.96-6.8 5.95-3.889.01-6.821-2.476-6.811-5.95m17.945 8.7a6.045 6.045 0 0 0 4.672 6.037L313.9 24.62a7.744 7.744 0 0 1-4.809-4.237 7.971 7.971 0 0 1-4.488 4.46 7.686 7.686 0 0 1-4.614-4.373 7.938 7.938 0 0 1-4.7 4.15l-1.715-2.52a6.364 6.364 0 0 0 4.681-6.037v-.852h3.4v.852a6.414 6.414 0 0 0 2.863 5.446 6.771 6.771 0 0 0 2.97-5.446v-.852h3.434zm-14.53-8.7c-.019 1.887 1.4 3.058 3.4 3.058a3.047 3.047 0 0 0 3.356-3.058c0-1.915-1.412-3.056-3.356-3.056-1.993 0-3.415 1.141-3.4 3.056m17.045 6.821h-3.5V.117h3.5z"/>
        <path id="패스_48436" data-name="패스 48436" class="cls-3" d="M316.777 12.286h22.772v2.737h-22.772zm6.114 4.779v4.576h14.288v2.806H319.4v-7.382zm14.134-10.177v2.737H319.63V.967h3.47v5.921z"/>
        <path id="패스_48437" data-name="패스 48437" class="cls-3" d="M360.467 19.223h9.78v2.8h-22.772v-2.8H357v-5.631h3.464zM349.5 14.385l-1.489-2.911c5.649-.871 8.822-4.663 8.842-8.185v-1.77h3.724v1.77c-.01 3.56 3.193 7.314 8.9 8.185l-1.491 2.911c-4.383-.8-7.633-3.144-9.267-6.249a12.66 12.66 0 0 1-9.22 6.249"/>
        <path id="패스_48438" data-name="패스 48438" class="cls-3" d="m373.183 14.55-1.877-2.739a8.3 8.3 0 0 0 5.95-8.145V1.412h3.493v2.593c0 3.018 1.76 5.921 5.7 7.13l-1.849 2.718a9.208 9.208 0 0 1-5.562-4.75 9.576 9.576 0 0 1-5.854 5.447m18.487 5.61c0 3.067-3.24 4.838-8.406 4.828-5.244.01-8.533-1.761-8.523-4.828-.01-3.008 3.279-4.8 8.523-4.788 5.166-.01 8.406 1.78 8.406 4.788m-3.444 0c0-1.345-1.722-2.07-4.962-2.07-3.261 0-5.041.725-5.031 2.07-.01 1.423 1.77 2.09 5.031 2.1 3.24-.01 4.962-.677 4.962-2.1m3.212-14.25h3.348V8.8h-3.348v6.056h-3.5V.077h3.5z"/>
        <path id="패스_48439" data-name="패스 48439" class="cls-3" d="M407.871 11.212h10.68v2.816h-22.609v-2.816h8.475V6.84h3.454zM416 20.306c-.02 2.94-3.454 4.692-8.891 4.683-5.4.009-8.881-1.743-8.881-4.683 0-2.979 3.483-4.7 8.881-4.711 5.437.01 8.871 1.732 8.891 4.711m-4.27-10.729a21.992 21.992 0 0 0 .639-5.629h-13.882V1.209h17.384V3.25a23.027 23.027 0 0 1-.716 6.657zm.8 10.729c-.01-1.374-2-2.109-5.428-2.109s-5.4.735-5.379 2.109c-.019 1.354 1.954 2.021 5.379 2.031 3.425-.01 5.418-.677 5.428-2.031"/>
        <path id="패스_48440" data-name="패스 48440" class="cls-3" d="M427.292 14.288c-3.822 0-6.821-2.611-6.811-6.316-.01-3.648 2.989-6.28 6.811-6.28s6.8 2.632 6.8 6.28c0 3.7-2.979 6.316-6.8 6.316m0-3.037a3.142 3.142 0 0 0 3.357-3.279 3.379 3.379 0 0 0-6.753 0 3.133 3.133 0 0 0 3.4 3.279m.493 10.5H441.6v2.815h-17.346V16.2h3.531zm13.157-3.734h-3.5V.117h3.5z"/>
        <path id="패스_48441" data-name="패스 48441" class="cls-3" d="M451.681 13.8a2.276 2.276 0 0 1 2.3-2.273 2.283 2.283 0 1 1 0 4.566 2.281 2.281 0 0 1-2.3-2.293"/>
        <path id="패스_48442" data-name="패스 48442" class="cls-3" d="M474.33 6.868a11.08 11.08 0 0 0 6.1 10.072l-1.946 2.737a11.693 11.693 0 0 1-5.852-6.8 12.345 12.345 0 0 1-6.036 7.44l-2.033-2.757c4.151-1.936 6.241-6.569 6.26-10.691V5.34h-5.272V2.487h13.8V5.34h-5.021zM488.454 9.6v2.912h-3.677V25h-3.492V.077h3.492V9.6z"/>
        <path id="패스_48443" data-name="패스 48443" class="cls-3" d="M489.659 7.527c-.02-3.551 2.853-6.1 6.627-6.095a6.792 6.792 0 0 1 4.923 1.944h5.64V.078h3.482v14.607h-3.482V11.7h-5.688a6.736 6.736 0 0 1-4.875 1.907c-3.774.01-6.647-2.564-6.627-6.085m6.627 3.134a3.053 3.053 0 0 0 3.269-3.134 3.3 3.3 0 0 0-6.588 0 3.052 3.052 0 0 0 3.319 3.134m14.114 9.437c-.01 3.086-3.319 4.9-8.581 4.9-5.263.009-8.562-1.81-8.552-4.9-.01-3.1 3.289-4.914 8.552-4.9 5.262-.01 8.571 1.808 8.581 4.9m-3.415 0c-.01-1.489-1.8-2.234-5.166-2.234-3.3 0-5.147.745-5.127 2.234-.02 1.451 1.828 2.187 5.127 2.177 3.366.01 5.156-.726 5.166-2.177m-.136-13.95h-4.131a6.434 6.434 0 0 1 .155 1.384 5.929 5.929 0 0 1-.165 1.392h4.141z"/>
        <path id="패스_48444" data-name="패스 48444" class="cls-3" d="M531.059.077h3.483v13.4h-3.483V8.406h-4.141c-.647 2.738-3.211 4.6-6.422 4.6-3.831 0-6.647-2.486-6.627-5.959-.02-3.415 2.8-5.911 6.627-5.892a6.285 6.285 0 0 1 6.413 4.479h4.15zm-7.294 6.966a2.97 2.97 0 0 0-3.269-2.99c-1.946-.009-3.319 1.132-3.319 2.99a3.3 3.3 0 0 0 6.588 0m7.294 9.925v-2.4h3.483v10.149h-16.611V14.569h3.435v2.4zm0 2.679h-9.693v2.245h9.693z"/>
        <path id="패스_48445" data-name="패스 48445" class="cls-3" d="M546.959 6.868a11.08 11.08 0 0 0 6.1 10.072l-1.945 2.737a11.691 11.691 0 0 1-5.853-6.8 12.345 12.345 0 0 1-6.036 7.44l-2.033-2.757c4.151-1.936 6.241-6.569 6.26-10.691V5.34h-5.272V2.487h13.79V5.34h-5.011zM561.083 9.6v2.912h-3.677V25h-3.492V.077h3.492V9.6z"/>
        <path id="패스_48446" data-name="패스 48446" class="cls-3" d="M561.95 11.251h22.772v2.593H561.95zm6.094 9.713v1.422h14.686v2.38h-18.158v-6.018h13.968V17.5h-13.988v-2.418H582v5.882zm10.429-16.8V2.912h-13.728V.542h17.23v5.843h-13.718V7.72H582.4v2.36h-17.615V4.169z"/>
        <path id="패스_48447" data-name="패스 48447" class="cls-3" d="M4.653 56.427a40.976 40.976 0 0 0 6.947-.611l.26 2.845a45.274 45.274 0 0 1-8.967.687H1.151V42.97h9.3v2.805h-5.8zm14.018-16.35h3.3V65h-3.3V52.5h-2.4v11.278h-3.2V40.513h3.2V49.7h2.4z"/>
        <path id="패스_48448" data-name="패스 48448" class="cls-3" d="m26.164 54.55-1.877-2.739a8.3 8.3 0 0 0 5.95-8.145v-2.254h3.492v2.593c0 3.018 1.761 5.921 5.7 7.13l-1.848 2.718a9.211 9.211 0 0 1-5.562-4.75 9.574 9.574 0 0 1-5.853 5.447m18.487 5.61c0 3.067-3.241 4.838-8.407 4.828C31 65 27.711 63.227 27.721 60.16c-.01-3.008 3.28-4.8 8.523-4.788 5.166-.01 8.407 1.78 8.407 4.788m-3.444 0c0-1.345-1.722-2.07-4.963-2.07-3.26 0-5.04.725-5.03 2.07-.01 1.423 1.77 2.09 5.03 2.1 3.241-.01 4.963-.677 4.963-2.1m3.212-14.25h3.347v2.89h-3.347v6.056h-3.5V40.077h3.5z"/>
        <path id="패스_48449" data-name="패스 48449" class="cls-3" d="M71.647 61.96H48.875v-2.825h22.772zM69.6 48.522c0 4.344-4.111 7.179-9.383 7.179-5.253 0-9.346-2.835-9.336-7.179-.01-4.314 4.083-7.158 9.336-7.158 5.272 0 9.383 2.844 9.383 7.158m-15.333 0c-.01 2.709 2.5 4.314 5.95 4.314s5.93-1.6 5.94-4.314c-.01-2.67-2.5-4.354-5.94-4.334-3.454-.02-5.96 1.664-5.95 4.334"/>
        <path id="패스_48450" data-name="패스 48450" class="cls-3" d="M86.145 59.357h9.713v2.854H73.084v-2.854h9.606v-3.763h-6.984v-8.378h14.076v-2.709H75.667V41.7h17.568v8.252H79.188v2.805h14.628v2.835h-7.671z"/>
        <path id="패스_48451" data-name="패스 48451" class="cls-3" d="m105.4 54.888-1.809-2.767A8.289 8.289 0 0 0 109.6 44.4h-5v-2.8h13.505v2.8h-4.963c.087 2.893 1.867 5.814 5.727 7.091l-1.722 2.748a9.493 9.493 0 0 1-5.727-4.934 9.881 9.881 0 0 1-6.027 5.582m19.406 5.34c-.009 3.018-3.26 4.788-8.581 4.8-5.3-.01-8.561-1.78-8.551-4.8-.01-3.018 3.25-4.8 8.551-4.8 5.321 0 8.572 1.781 8.581 4.8m-3.463 0c-.01-1.431-1.809-2.147-5.118-2.147s-5.088.716-5.079 2.147c-.009 1.422 1.781 2.138 5.079 2.128 3.309.01 5.108-.706 5.118-2.128m-3.976-14.076h3.889v-6.074h3.483v14.8h-3.483V49h-3.889z"/>
        <path id="패스_48452" data-name="패스 48452" class="cls-3" d="m129.462 54.55-1.877-2.739a8.3 8.3 0 0 0 5.95-8.145v-2.254h3.492v2.593c0 3.018 1.761 5.921 5.7 7.13l-1.848 2.718a9.211 9.211 0 0 1-5.562-4.75 9.574 9.574 0 0 1-5.853 5.447m18.487 5.61c0 3.067-3.241 4.838-8.407 4.828-5.243.01-8.533-1.761-8.523-4.828-.01-3.008 3.28-4.8 8.523-4.788 5.166-.01 8.407 1.78 8.407 4.788m-3.444 0c0-1.345-1.722-2.07-4.963-2.07-3.26 0-5.04.725-5.03 2.07-.01 1.423 1.77 2.09 5.03 2.1 3.241-.01 4.963-.677 4.963-2.1m3.212-14.25h3.347v2.89h-3.347v6.056h-3.5V40.077h3.5z"/>
        <path id="패스_48453" data-name="패스 48453" class="cls-3" d="M161.518 57.78c1.974-.106 3.946-.26 5.8-.521l.233 2.534a85.132 85.132 0 0 1-15.218 1.016l-.465-2.844c1.819 0 3.928 0 6.133-.049v-2.147c-2.64-.513-4.353-2.206-4.343-4.5-.01-2.8 2.505-4.693 6.134-4.693 3.559 0 6.1 1.9 6.123 4.693-.019 2.3-1.771 4.005-4.4 4.507zm5.61-14.917V45.6h-14.772v-2.737h5.649v-2.64h3.513v2.64zM159.8 53.282c1.655 0 2.767-.706 2.767-2.011s-1.112-2.033-2.767-2.033c-1.7 0-2.825.736-2.816 2.033-.009 1.305 1.113 2.011 2.816 2.011m15.537-3.066v2.893h-3.25V65h-3.522V40.077h3.522v10.139z"/>
        <path id="패스_48454" data-name="패스 48454" class="cls-3" d="M195.833 42.631c-.02 7.449-2.932 13.892-11.3 18l-1.963-2.67c5.881-2.961 9.045-6.927 9.7-12.48h-8.3v-2.85zM206 49.625v2.884h-3.522v12.43h-3.493V40.077h3.493v9.548z"/>
        <path id="패스_48455" data-name="패스 48455" class="cls-3" d="M207.051 51.26H229.8v2.824h-22.749zm19.986 9.016c-.019 2.97-3.27 4.624-8.678 4.624-5.436 0-8.716-1.654-8.716-4.624 0-2.931 3.28-4.6 8.716-4.6 5.408.009 8.659 1.673 8.678 4.6m.193-13.95v2.8h-17.306v-8.653h3.476v5.853zm-3.695 13.95c-.01-1.315-1.79-1.886-5.176-1.9-3.444.01-5.175.581-5.156 1.9-.019 1.3 1.712 1.974 5.156 1.964 3.386.01 5.166-.667 5.176-1.964"/>
        <path id="패스_48456" data-name="패스 48456" class="cls-3" d="m232.876 54.618-1.858-2.787a8.317 8.317 0 0 0 6.124-8.193v-2.255h3.521v2.09a7.6 7.6 0 0 0 5.708 7.652l-1.857 2.729a9.151 9.151 0 0 1-5.534-4.876 9.889 9.889 0 0 1-6.1 5.64m19.435 5.552c-.01 3.077-3.26 4.828-8.581 4.819-5.3.009-8.561-1.742-8.552-4.819-.009-3.056 3.251-4.846 8.552-4.846 5.321 0 8.571 1.79 8.581 4.846m-3.463 0c-.01-1.422-1.81-2.137-5.118-2.137s-5.089.715-5.079 2.137c-.01 1.384 1.78 2.11 5.079 2.1 3.308.01 5.108-.716 5.118-2.1m-.088-5.485v-7.178h-4.672v-2.853h4.672v-4.576h3.483v14.607z"/>
        <path id="패스_48457" data-name="패스 48457" class="cls-3" d="M255.47 50.139h22.715v2.767H255.47zm2.274-5.457c-.01-2.737 3.318-4.237 9.064-4.237s9.045 1.5 9.055 4.237c-.01 2.786-3.317 4.276-9.055 4.276s-9.074-1.49-9.064-4.276m3.792 16.011v1.5h14.521v2.631h-17.946v-6.569h13.853V56.9h-13.872v-2.563h17.317v6.356zm-.136-16.011c-.02 1.229 1.76 1.7 5.407 1.713 3.7-.01 5.456-.484 5.456-1.713 0-1.093-1.76-1.692-5.456-1.683-3.647-.009-5.427.59-5.407 1.683"/>
        <path id="패스_48458" data-name="패스 48458" class="cls-3" d="m287.637 54.6-1.383-2.717c5.4-1.451 8.485-4.2 9.045-7.556h-7.69v-2.779h11.434c0 6.51-4.111 11.018-11.406 13.049m2.971.436h16.513v9.655h-16.513zm3.425 6.917h9.625v-4.179h-9.625zm9.605-21.834h3.482v13.921h-3.482v-5.156h-4.431v-2.855h4.431z"/>
        <path id="패스_48459" data-name="패스 48459" class="cls-3" d="M323.466 59.416h9.654v2.8h-22.772v-2.8h9.606v-4.209h-6.917v-13.4h17.413v2.805h-13.873V47.1h13.284v2.737h-13.284v2.6h14.067v2.767h-7.178z"/>
        <path id="패스_48460" data-name="패스 48460" class="cls-3" d="M343.546 40.474V43.8h5.514v2.8h-14.637v-2.8h5.639v-3.326zm4.614 13.457c-.01 3.482-2.728 5.929-6.355 5.939-3.677-.01-6.386-2.457-6.376-5.939-.01-3.474 2.7-5.941 6.376-5.941 3.627 0 6.345 2.467 6.355 5.941m-3.338 0a3.024 3.024 0 1 0-6.046 0 3.023 3.023 0 1 0 6.046 0m13.051-4.093v2.874H354.2V65h-3.453V40.077h3.453v9.761z"/>
        <path id="패스_48461" data-name="패스 48461" class="cls-3" d="M376.317 40.077h3.453v24.979h-3.453V55.72h-5.2a5.946 5.946 0 0 1-5.485 3.88c-3.783 0-6.482-3.425-6.472-8.9-.01-5.417 2.689-8.861 6.472-8.861a5.848 5.848 0 0 1 5.234 3.366h5.456zM368.761 50.7c-.009-3.685-1.257-5.708-3.134-5.708-1.858 0-3.134 2.023-3.124 5.708-.01 3.725 1.266 5.737 3.124 5.737 1.877 0 3.125-2.012 3.134-5.737m7.556 2.226v-4.9h-4.489a14.491 14.491 0 0 1 .242 2.679 14.822 14.822 0 0 1-.165 2.226z"/>
        <path id="패스_48462" data-name="패스 48462" class="cls-3" d="M402.128 54.115h-11.957V42.158h11.957zm-5.611 2.35v5.282h13.564v2.816h-17.046v-8.1zm2.167-11.531h-5.06v6.434h5.06zm10.506 2.331h3.348v2.883h-3.348v8.117h-3.5V40.1h3.5z"/>
        <path id="패스_48463" data-name="패스 48463" class="cls-3" d="M427.1 42.7c-.01 7.545-2.66 13.824-11.56 18.023l-1.819-2.777c6.424-3.048 9.258-6.975 9.819-12.509h-8.484V42.7zm3.928-2.622h3.531V65h-3.529z"/>
        <path id="패스_48464" data-name="패스 48464" class="cls-3" d="M456.106 52.421a6.622 6.622 0 0 1-4.855 2.033 6.45 6.45 0 1 1 0-12.9 6.617 6.617 0 0 1 4.865 2.041h5.7v-3.478h3.484v18.206h-3.482v-5.9zm-4.855-1.053a3.353 3.353 0 0 0 0-6.7 3.352 3.352 0 0 0 0 6.7m1.005 10.38h13.631v2.815h-17.113v-8.068h3.482zm9.558-15.348h-4.179a6.364 6.364 0 0 1 .2 1.625 6.665 6.665 0 0 1-.193 1.6h4.169z"/>
        <path id="패스_48465" data-name="패스 48465" class="cls-3" d="m469.917 54.994-1.771-2.757a8.088 8.088 0 0 0 6.037-7.69h-5.089v-2.786h13.583v2.786H477.7c.019 2.9 1.78 5.707 5.746 6.887l-1.646 2.729a9.27 9.27 0 0 1-5.776-4.635 9.822 9.822 0 0 1-6.1 5.466m18.586 5.156c0 3.038-3.211 4.848-8.406 4.838-5.263.01-8.533-1.8-8.523-4.838-.01-3.037 3.26-4.807 8.523-4.8 5.2-.009 8.406 1.761 8.406 4.8m-3.444 0c0-1.4-1.722-2.089-4.962-2.079-3.261-.01-5.041.677-5.031 2.079-.01 1.423 1.77 2.129 5.031 2.119 3.24.01 4.962-.7 4.962-2.119m3.212-14.278h3.348v2.844h-3.348v6.153h-3.5V40.077h3.5z"/>
        <path id="패스_48466" data-name="패스 48466" class="cls-3" d="M512.61 52.073h-12.16V41.6h12.16zm.851 6.095c.387 1.7 2.99 3.656 7.943 4.131l-1.171 2.64c-4.15-.386-7.091-1.886-8.62-3.85-1.519 1.983-4.479 3.444-8.649 3.85l-1.189-2.64c4.973-.406 7.584-2.38 7.962-4.131h-6.956v-2.583h7.071v-2.061h3.5v2.061h7.081v2.583zm-4.3-13.854h-5.272v5.03h5.272zm10.835 9.9h-3.463V40.077h3.463z"/>
        <path id="패스_48467" data-name="패스 48467" class="cls-3" d="M552.633 50.157v2.816h-22.772v-2.816h15.962a28.434 28.434 0 0 0 .638-6.142h-13.814v-2.787h17.3v1.984a30.991 30.991 0 0 1-.6 6.945zm-20.083 5.456h17.3v9.1h-17.3zm3.425 6.308h10.4v-3.579h-10.4z"/>
        <path id="패스_48468" data-name="패스 48468" class="cls-3" d="M559 56.349a64.625 64.625 0 0 0 10.671-.841l.3 2.834a67.444 67.444 0 0 1-12.335.881h-2.234v-10.2h8.252v-4.032h-8.272v-2.814h11.831v9.6H559zm12.451-16.272h3.474v24.979h-3.474z"/>
        <path id="패스_48469" data-name="패스 48469" class="cls-3" d="M7.643 94.288c-3.822 0-6.821-2.611-6.811-6.316-.01-3.648 2.989-6.28 6.811-6.28s6.8 2.632 6.8 6.28c0 3.705-2.979 6.316-6.8 6.316m0-3.037a3.262 3.262 0 1 0 0-6.521 3.263 3.263 0 1 0 0 6.521m.493 10.5h13.815v2.815H4.605V96.2h3.531zm13.157-3.734h-3.5v-17.9h3.5z"/>
        <path id="패스_48470" data-name="패스 48470" class="cls-3" d="M33.651 80.474V83.8h5.516v2.8H24.529v-2.8h5.641v-3.326zm4.615 13.457c-.009 3.482-2.728 5.929-6.356 5.939-3.676-.01-6.385-2.457-6.375-5.939-.01-3.474 2.7-5.941 6.375-5.941 3.628 0 6.347 2.467 6.356 5.941m-3.337 0a3.025 3.025 0 1 0-6.047 0 2.857 2.857 0 0 0 3.028 3.076 2.874 2.874 0 0 0 3.019-3.076m13.05-4.093v2.874H44.3V105h-3.451V80.077H44.3v9.761z"/>
        <path id="패스_48471" data-name="패스 48471" class="cls-3" d="M55.333 91.474h22.753v2.844H55.333zm19.986 8.909c-.019 2.951-3.27 4.615-8.678 4.6-5.436.01-8.716-1.654-8.716-4.6 0-2.921 3.28-4.566 8.716-4.566 5.408 0 8.659 1.645 8.678 4.566m.165-13.428v2.777H58.08v-8.968h17.278v2.8h-13.8v3.4zm-3.667 13.428c-.01-1.258-1.79-1.905-5.176-1.915-3.444.01-5.175.657-5.156 1.915-.019 1.325 1.712 1.944 5.156 1.954 3.386-.01 5.166-.629 5.176-1.954"/>
        <path id="패스_48472" data-name="패스 48472" class="cls-3" d="M79.543 90.139h22.714v2.767H79.543zm2.273-5.457c-.01-2.737 3.318-4.237 9.065-4.237s9.045 1.5 9.054 4.237c-.009 2.786-3.317 4.276-9.054 4.276s-9.075-1.49-9.065-4.276m3.792 16.011v1.5h14.521v2.631H82.183v-6.569h13.854V96.9H82.164v-2.563h17.317v6.356zm-.135-16.011c-.02 1.229 1.76 1.7 5.408 1.713 3.695-.01 5.456-.484 5.456-1.713 0-1.093-1.761-1.692-5.456-1.683-3.648-.009-5.428.59-5.408 1.683"/>
        <path id="패스_48473" data-name="패스 48473" class="cls-3" d="M123.27 92.925h9.655v2.737h-22.772v-2.737h9.615v-1.539h-6.762v-10.7h17.259v2.7h-13.776v1.384h13.2v2.53h-13.2v1.422h13.989v2.66h-7.208zm6.927 7.961c-.019 2.689-3.183 4.112-8.678 4.1-5.562.009-8.716-1.414-8.716-4.1 0-2.621 3.154-4.1 8.716-4.092 5.5-.01 8.659 1.471 8.678 4.092m-3.5 0c-.01-1.044-1.664-1.509-5.176-1.509-3.569 0-5.233.465-5.223 1.509-.01 1.064 1.654 1.529 5.223 1.52 3.512.009 5.166-.456 5.176-1.52"/>
        <path id="패스_48474" data-name="패스 48474" class="cls-3" d="M142.16 80.783v3.106h4.267v2.776h-12.055v-2.776h4.354v-3.106zm3.764 12.9c-.01 3.492-2.284 5.95-5.466 5.95s-5.495-2.458-5.486-5.95c-.009-3.444 2.312-5.892 5.486-5.892s5.456 2.448 5.466 5.892m-3.067 0c-.01-1.868-1-3-2.4-3-1.442 0-2.428 1.131-2.419 3-.009 1.906.977 3 2.419 2.989 1.4.01 2.389-1.083 2.4-2.989m9.78-13.6h3.318V105h-3.318V93.012h-2.021v10.912h-3.271V80.57h3.271v9.655h2.021z"/>
        <path id="패스_48475" data-name="패스 48475" class="cls-3" d="m166.589 94.55-1.877-2.739a8.3 8.3 0 0 0 5.95-8.145v-2.254h3.492V84c0 3.018 1.761 5.921 5.7 7.13L178 93.853a9.211 9.211 0 0 1-5.562-4.75 9.574 9.574 0 0 1-5.853 5.447m18.487 5.61c0 3.067-3.241 4.838-8.407 4.828-5.243.01-8.532-1.761-8.523-4.828-.009-3.008 3.28-4.8 8.523-4.788 5.166-.01 8.407 1.78 8.407 4.788m-3.444 0c0-1.345-1.722-2.07-4.963-2.07-3.26 0-5.04.725-5.03 2.07-.01 1.423 1.77 2.09 5.03 2.1 3.241-.01 4.963-.677 4.963-2.1m3.212-14.25h3.347v2.89h-3.347v6.056h-3.5V80.077h3.5z"/>
        <path id="패스_48476" data-name="패스 48476" class="cls-3" d="M204.8 95.972a90.829 90.829 0 0 1-15.42 1.122l-.358-2.689c1.8 0 3.879-.02 6.056-.087V92.9c-2.709-.4-4.4-1.741-4.392-3.7-.01-2.458 2.418-3.9 6.1-3.889 3.666-.01 6.085 1.431 6.1 3.889-.01 1.935-1.674 3.28-4.325 3.686v1.277a72.859 72.859 0 0 0 5.989-.6zm-.88-13.863v2.515h-14.24v-2.515h5.4V80h3.482v2.109zm-7.885 16.127v3.511h14.025v2.816h-17.549v-6.327zm.755-7.576c1.751 0 2.747-.531 2.757-1.46-.01-1.054-1.006-1.567-2.757-1.567-1.77 0-2.776.513-2.767 1.567-.009.929 1 1.46 2.767 1.46m12.412-2.4h3.192v2.873H209.2v8.4h-3.492V80.077h3.492z"/>
        <path id="패스_48477" data-name="패스 48477" class="cls-3" d="M242.711 94.453v2.737h-9.732V105h-3.454v-7.81h-9.587v-2.737zm-2.7-13.4v10.991h-17.4V81.055h3.444v2.863h10.465v-2.863zm-3.492 5.6h-10.466v2.6h10.467z"/>
        <path id="패스_48478" data-name="패스 48478" class="cls-3" d="M258.756 92.334c-3.134.706-6.008.812-11.532.8h-2.079v-11.48h11.106v2.776h-7.634v5.92a47.4 47.4 0 0 0 9.771-.763zM247.65 95.12h16.281v9.568H247.65zm3.443 6.83h9.385v-4.072h-9.385zm16.186-16.25v2.873h-3.348v5.494h-3.5v-13.99h3.5V85.7z"/>
        <path id="패스_48479" data-name="패스 48479" class="cls-3" d="M268.387 90.139H291.1v2.767h-22.713zm2.273-5.457c-.009-2.737 3.318-4.237 9.065-4.237s9.045 1.5 9.055 4.237c-.01 2.786-3.318 4.276-9.055 4.276s-9.074-1.49-9.065-4.276m3.793 16.011v1.5h14.52v2.631h-17.945v-6.569h13.853V96.9h-13.873v-2.563h17.317v6.356zm-.136-16.011c-.02 1.229 1.761 1.7 5.408 1.713 3.7-.01 5.456-.484 5.456-1.713 0-1.093-1.76-1.692-5.456-1.683-3.647-.009-5.428.59-5.408 1.683"/>
        <path id="패스_48480" data-name="패스 48480" class="cls-3" d="M314.331 94.83a88.183 88.183 0 0 1-14.985 1.025l-.368-2.766c1.732 0 3.744-.01 5.863-.077v-1.964c-2.739-.542-4.576-2.419-4.557-4.876-.019-3.009 2.6-5.06 6.259-5.06 3.638 0 6.26 2.051 6.278 5.06-.018 2.427-1.808 4.285-4.478 4.856v1.828c1.954-.126 3.908-.3 5.726-.56zm-8.542 2.612v4.285h14.027v2.806h-17.548v-7.091zm.754-8.871c1.79 0 2.989-.89 3-2.4-.01-1.558-1.219-2.419-3-2.428-1.771.009-3.037.87-3.019 2.428-.018 1.509 1.248 2.4 3.019 2.4m12.412-.619h3.192v2.9h-3.192v8.262h-3.492v-19h3.492z"/>
        <path id="패스_48481" data-name="패스 48481" class="cls-3" d="M332.61 97.78c1.973-.106 3.947-.26 5.8-.521l.233 2.534a85.132 85.132 0 0 1-15.218 1.016l-.464-2.844c1.818 0 3.928 0 6.133-.049v-2.147c-2.641-.513-4.354-2.206-4.344-4.5-.01-2.8 2.506-4.693 6.134-4.693 3.559 0 6.1 1.9 6.124 4.693-.02 2.3-1.771 4-4.4 4.507zm5.611-14.917V85.6h-14.773v-2.737h5.65v-2.64h3.512v2.64zm-7.333 10.419c1.654 0 2.766-.706 2.766-2.011s-1.112-2.033-2.766-2.033c-1.7 0-2.825.736-2.816 2.033-.009 1.3 1.113 2.011 2.816 2.011m15.536-3.066v2.893h-3.25V105h-3.521V80.077h3.521v10.139z"/>
        <path id="패스_48482" data-name="패스 48482" class="cls-3" d="M355.213 80.783v3.106h4.266v2.776h-12.054v-2.776h4.354v-3.106zm3.763 12.9c-.01 3.492-2.283 5.95-5.466 5.95s-5.494-2.458-5.485-5.95c-.009-3.444 2.312-5.892 5.485-5.892s5.456 2.448 5.466 5.892m-3.066 0c-.01-1.868-1-3-2.4-3-1.441 0-2.427 1.131-2.418 3-.009 1.906.977 3 2.418 2.989 1.4.01 2.39-1.083 2.4-2.989m9.78-13.6h3.318V105h-3.318V93.012h-2.021v10.912H360.4V80.57h3.27v9.655h2.021z"/>
        <path id="패스_48483" data-name="패스 48483" class="cls-3" d="M400.858 93.825v2.8h-9.7V105H387.7v-8.379h-9.557v-2.8zm-21.6-4.18c5.069-.609 7.836-3.076 8.2-5.514h-7.266V81.4h18.623v2.728h-7.255c.329 2.438 3.086 4.905 8.213 5.514l-1.268 2.738c-4.372-.59-7.5-2.457-9.006-5.011-1.51 2.554-4.624 4.421-8.958 5.011z"/>
        <path id="패스_48484" data-name="패스 48484" class="cls-3" d="M402.324 92.286H425.1v2.737h-22.776zm6.114 4.779v4.576h14.288v2.806h-17.78v-7.382zm14.134-10.177v2.737h-17.395v-8.658h3.474v5.921z"/>
        <path id="패스_48485" data-name="패스 48485" class="cls-3" d="M440.895 86.752c-.009 4.15 1.287 8.33 4.925 10.409l-2.041 2.565a10.536 10.536 0 0 1-4.529-6.211 11.587 11.587 0 0 1-4.643 6.781l-2.107-2.573c3.666-2.264 5.03-6.734 5.03-10.971v-1.325h-4.082v-2.8h11.221v2.8h-3.773zm5.282 1.877v-8.136h3.271v23.344h-3.271v-12.4H442.9v-2.808zm5.06-8.552h3.3V105h-3.3z"/>
        <path id="패스_48486" data-name="패스 48486" class="cls-3" d="M470.29 99.31H480v2.844h-22.77V99.31h9.607V94h-6.927V81.848h17.433v2.776H463.4v6.618h14.115V94h-7.225z"/>
    </g>
</svg>
