<svg xmlns="http://www.w3.org/2000/svg" width="206.996" height="29.999" viewBox="0 0 206.996 29.999">
  <g id="그룹_31694" data-name="그룹 31694" transform="translate(-6907.303 2775)">
    <path id="패스_47678" data-name="패스 47678" d="M5717,1651.116a8.335,8.335,0,0,0-3.459-2.267,14.348,14.348,0,0,0-8.778,0,8.459,8.459,0,0,0-3.473,2.266,10.6,10.6,0,0,0-2.245,4.113,25.062,25.062,0,0,0,0,12.448,10.748,10.748,0,0,0,2.244,4.128,8.4,8.4,0,0,0,3.474,2.283,14.363,14.363,0,0,0,8.778,0,8.332,8.332,0,0,0,3.459-2.266,10.562,10.562,0,0,0,2.214-4.131,25.619,25.619,0,0,0,0-12.46,10.566,10.566,0,0,0-2.214-4.114m-5.747,19.6a5.168,5.168,0,0,1-2.1.411,5.272,5.272,0,0,1-2.118-.412,3.512,3.512,0,0,1-1.56-1.441,9.094,9.094,0,0,1-1.04-2.956,25.675,25.675,0,0,1-.38-4.87,29.268,29.268,0,0,1,.335-4.877,8.55,8.55,0,0,1,.978-2.935,3.46,3.46,0,0,1,1.544-1.424,5.606,5.606,0,0,1,2.242-.412,5.4,5.4,0,0,1,2.193.411,3.479,3.479,0,0,1,1.529,1.424,8.529,8.529,0,0,1,.978,2.935,29.166,29.166,0,0,1,.335,4.877,26.794,26.794,0,0,1-.365,4.873,8.859,8.859,0,0,1-1.024,2.953,3.53,3.53,0,0,1-1.546,1.441" transform="translate(1238 -4420)" fill="#0090db"/>
    <path id="패스_47679" data-name="패스 47679" d="M5737.781,1668.089l-6.28-17.717a3.111,3.111,0,0,0-.876-1.37,2.677,2.677,0,0,0-1.741-.461h-5.824V1674.3h5.685v-19.548l6.278,17.718a3.039,3.039,0,0,0,.9,1.372,2.758,2.758,0,0,0,1.753.458h5.794v-25.763h-5.684Z" transform="translate(1238 -4420)" fill="#0090db"/>
    <path id="패스_47680" data-name="패스 47680" d="M5764.112,1669.608l-.326.108c-.314.1-.7.207-1.173.317s-.966.2-1.5.288-1.106.157-1.673.208-1.133.079-1.679.079h-4.649v-7.6h10.15v-3.7H5753.11v-7.081h10.66v-3.7h-16.345V1674.3h10.457c.621,0,1.276-.028,1.947-.083s1.316-.128,1.911-.215,1.16-.2,1.659-.317a4.773,4.773,0,0,0,1.216-.44l.192-.109Z" transform="translate(1238 -4420)" fill="#0090db"/>
    <path id="패스_47675" data-name="패스 47675" d="M5676.917,1674.765h-4.282a1.819,1.819,0,0,1-1.81-1.83v-15.619h4.278a1.82,1.82,0,0,1,1.811,1.829h0Z" transform="translate(1238 -4420)" fill="#0090db"/>
    <path id="패스_47676" data-name="패스 47676" d="M5677.933,1649.362a4.315,4.315,0,1,1-4.316-4.362,4.317,4.317,0,0,1,4.316,4.362" transform="translate(1238 -4420)" fill="#f06146"/>
    <path id="패스_47677" data-name="패스 47677" d="M5692.653,1664.5h-8.85a1.82,1.82,0,0,1-1.81-1.83V1660.4h8.849a1.82,1.82,0,0,1,1.811,1.829h0Z" transform="translate(1238 -4420)" fill="#0090db"/>
    <path id="패스_47681" data-name="패스 47681" d="M5789.132,1661.407v5.825h10.308v2.513h-23.725a1.082,1.082,0,0,1-.932-.385,1.439,1.439,0,0,1-.283-.871,1.459,1.459,0,0,1,.283-.857,1.059,1.059,0,0,1,.932-.4h9.35v-5.825Zm.763-12.109a13.914,13.914,0,0,1-.466,2.67,14.067,14.067,0,0,1-.918,2.384q.931.513,2.218,1.285t2.612,1.685q1.328.914,2.542,1.9a17.579,17.579,0,0,1,2.034,1.9l-1.61,1.913q-1.074-.714-2.33-1.528t-2.542-1.585q-1.285-.771-2.556-1.443a21.566,21.566,0,0,0-2.4-1.1,15.625,15.625,0,0,1-2.161,2.113,21.991,21.991,0,0,1-2.4,1.685,21.049,21.049,0,0,1-2.472,1.285,21.776,21.776,0,0,1-2.373.885l-1.045-2.313a14.064,14.064,0,0,0,3.093-1.628,15.867,15.867,0,0,0,2.952-2.613,16.27,16.27,0,0,0,2.33-3.441,12.437,12.437,0,0,0,1.257-4.055Z" transform="translate(1238 -4420)" fill="#05affc"/>
    <path id="패스_47682" data-name="패스 47682" d="M5799.782,1661.006a19.029,19.029,0,0,0,3.489-3.127,17.4,17.4,0,0,0,2.246-3.284,14.1,14.1,0,0,0,1.214-3.2,15.351,15.351,0,0,0,.423-2.87h4.154a14.7,14.7,0,0,1-.353,3.17,14.858,14.858,0,0,1-1.116,3.2,28.487,28.487,0,0,1,3.163,2.527,27.854,27.854,0,0,1,2.881,3.041l-1.722,1.771q-1.358-1.227-2.9-2.441a17.9,17.9,0,0,0-3.234-2.042,19.9,19.9,0,0,1-2.8,2.784,19.558,19.558,0,0,1-3.81,2.415Zm13.558,13.936a14.717,14.717,0,0,1-3.941-.457,7.682,7.682,0,0,1-2.641-1.242,4.784,4.784,0,0,1-1.483-1.828,5.49,5.49,0,0,1,0-4.426,4.893,4.893,0,0,1,1.483-1.842,7.537,7.537,0,0,1,2.641-1.256,17.225,17.225,0,0,1,7.881,0,7.537,7.537,0,0,1,2.641,1.256,4.87,4.87,0,0,1,1.483,1.842,5.49,5.49,0,0,1,0,4.426,4.762,4.762,0,0,1-1.483,1.828,7.678,7.678,0,0,1-2.641,1.242,14.7,14.7,0,0,1-3.94.458Zm0-2.513a5.5,5.5,0,0,0,3.376-.828,3.31,3.31,0,0,0,.178-4.678c-.058-.061-.117-.12-.178-.177a5.65,5.65,0,0,0-3.376-.8,5.509,5.509,0,0,0-3.346.8,3.371,3.371,0,0,0-.086,4.77c.028.028.056.057.086.085A5.356,5.356,0,0,0,5813.34,1672.429Zm12.091-15.849h-3.843v5.37a1,1,0,0,1-.621.957,3.135,3.135,0,0,1-1.384.3,3.05,3.05,0,0,1-1.37-.3,1,1,0,0,1-.608-.957v-13.994h3.983v6.14h3.843Z" transform="translate(1238 -4420)" fill="#05affc"/>
    <path id="패스_47683" data-name="패스 47683" d="M5835.317,1659.322V1654.3h4.009v5.026h12.09v2.513H5827.69a1.08,1.08,0,0,1-.932-.385,1.483,1.483,0,0,1,0-1.742,1.077,1.077,0,0,1,.932-.386ZM5848,1651.7c0,.362-.008.762-.027,1.2a11.151,11.151,0,0,1-.156,1.4,11.343,11.343,0,0,1-.381,1.542,9.049,9.049,0,0,1-.734,1.656l-3.418-.629a12.327,12.327,0,0,0,.4-1.328c.092-.409.17-.8.226-1.185a9.548,9.548,0,0,0,.1-1.156c.011-.39.015-.814.014-1.271v-.918h-13.2a1.025,1.025,0,0,1-.863-.385,1.4,1.4,0,0,1-.3-.871,1.335,1.335,0,0,1,.3-.857,1.039,1.039,0,0,1,.863-.371H5848Zm-8.925,12.137q4.518,0,6.665,1.47a5.013,5.013,0,0,1,0,8.225q-2.145,1.47-6.665,1.47-4.55,0-6.7-1.47a5.011,5.011,0,0,1,0-8.225q2.147-1.47,6.693-1.47Zm0,8.652a7.147,7.147,0,0,0,3.587-.7,2.564,2.564,0,0,0,1.157-2.384,2.53,2.53,0,0,0-1.157-2.356,7.138,7.138,0,0,0-3.587-.7,7.3,7.3,0,0,0-3.631.7,2.525,2.525,0,0,0-1.172,2.356,2.556,2.556,0,0,0,1.172,2.384,7.3,7.3,0,0,0,3.629.7Z" transform="translate(1238 -4420)" fill="#05affc"/>
    <path id="패스_47684" data-name="패스 47684" d="M5860.824,1648.556a8.268,8.268,0,0,1,3.178.556,5.915,5.915,0,0,1,3.488,3.7,8.213,8.213,0,0,1,.425,2.627,8.4,8.4,0,0,1-.425,2.685,5.967,5.967,0,0,1-1.285,2.185,6.049,6.049,0,0,1-2.2,1.471,8.427,8.427,0,0,1-3.178.543,8.252,8.252,0,0,1-3.12-.543,6.173,6.173,0,0,1-2.219-1.471,6.023,6.023,0,0,1-1.314-2.185,8.36,8.36,0,0,1,0-5.341,6.088,6.088,0,0,1,1.328-2.2,6.262,6.262,0,0,1,2.217-1.485,8.191,8.191,0,0,1,3.1-.542m3.079,6.882a8.521,8.521,0,0,0-.17-1.756,4.438,4.438,0,0,0-.522-1.4,2.517,2.517,0,0,0-.946-.914,2.943,2.943,0,0,0-1.441-.328,3.133,3.133,0,0,0-1.525.328,2.4,2.4,0,0,0-.932.914,4.19,4.19,0,0,0-.48,1.4,10.32,10.32,0,0,0-.141,1.756,10.054,10.054,0,0,0,.141,1.742,4.174,4.174,0,0,0,.48,1.385,2.5,2.5,0,0,0,.932.928,3.029,3.029,0,0,0,1.525.343,2.817,2.817,0,0,0,1.455-.343,2.734,2.734,0,0,0,.946-.942,4.207,4.207,0,0,0,.524-1.4A9.119,9.119,0,0,0,5863.9,1655.438ZM5858.65,1674v-8.851h4.034v6.311h8.983a13.542,13.542,0,0,0,4.293-.714l.339,2.256a5.6,5.6,0,0,1-.918.414,9.3,9.3,0,0,1-1.1.314c-.385.086-.772.153-1.157.2a8.759,8.759,0,0,1-1.06.072Zm12.994-26.044h3.982v17.82a1.024,1.024,0,0,1-.635.971,3.1,3.1,0,0,1-1.4.315,2.871,2.871,0,0,1-1.341-.315,1.026,1.026,0,0,1-.608-.971Z" transform="translate(1238 -4420)" fill="#05affc"/>
  </g>
</svg>
