<svg id="국민카드" xmlns="http://www.w3.org/2000/svg" xmlns:xlink="http://www.w3.org/1999/xlink" width="88" height="88" viewBox="0 0 88 88">
  <defs>
    <clipPath id="clip-path">
      <rect id="사각형_16754" data-name="사각형 16754" width="88" height="88" fill="none"/>
    </clipPath>
  </defs>
  <g id="그룹_65195" data-name="그룹 65195" transform="translate(0 0)" clip-path="url(#clip-path)">
    <path id="패스_50304" data-name="패스 50304" d="M44,0A44,44,0,1,1,0,44,44,44,0,0,1,44,0" transform="translate(0 0)" fill="#645b4c"/>
    <path id="패스_50305" data-name="패스 50305" d="M26.229,39.852A90.09,90.09,0,0,0,27.4,54.7a.2.2,0,0,0,.024.084c.681,1,1.39,4.954,1.95,6.193a.38.38,0,0,0,.123.121,4.952,4.952,0,0,0,2.586.686.108.108,0,0,0,.111-.094,16.177,16.177,0,0,0-.049-3.862c-.306-4.62-.641-11.975-.587-16.429,3.615,2.013,17.174,11.734,24.247,13.747a.467.467,0,0,0,.439-.1,2.472,2.472,0,0,1,1.036-.642,1.354,1.354,0,0,0,.379-1.206c4.48-.166,10.693-1.89,13.957-5.985,2.239-2.814,2.2-6.737.8-8.06a5.086,5.086,0,0,1-.587-.37,10.157,10.157,0,0,0-8.14-2.515,16.028,16.028,0,0,0-7.641,2.75s-.021,0-.025-.013c-.165-3.015,1.045-6.852-.018-9.329a.206.206,0,0,0-.22-.135,7.735,7.735,0,0,0-3.177,1.026.383.383,0,0,0-.142.321,19.781,19.781,0,0,1-.577,4.725c-.066.066-.046.135-.066.286A54.244,54.244,0,0,0,51.8,47.226a1.931,1.931,0,0,0,.954.737,7.274,7.274,0,0,0,2.956-.614,1.829,1.829,0,0,1,.467-.079c.123-.01.174-.154.165-.3a5.325,5.325,0,0,1,.03-1.036,9.83,9.83,0,0,1,7.151-7,5.059,5.059,0,0,1,4.858,1.588,6.189,6.189,0,0,1-.7,4.992,9.928,9.928,0,0,1-5.4,4.283,20.557,20.557,0,0,1-8.219,1.14c-2.735-1.65-7.324-5.474-11.349-7a12.525,12.525,0,0,1-2.288-1.649c-1.953-1.571-6.133-4.3-8.619-5.965-.018-.016-.018-.034-.018-.072a1.18,1.18,0,0,1,.033-.521.355.355,0,0,1,.192-.22,54.193,54.193,0,0,0,4.861-3.063,2.081,2.081,0,0,1,.412-.28C42.808,28.818,52.5,24.285,56.732,19.9a.385.385,0,0,0,.057-.256,1.986,1.986,0,0,1,.081-.53,2.692,2.692,0,0,0,.045-1.637.251.251,0,0,0-.168-.178,11.463,11.463,0,0,0-8.056,3.771,9.726,9.726,0,0,1-2.233,1.484c-3.168,1.8-10.666,6.455-14.244,8.757a.056.056,0,0,1-.093-.046,120.788,120.788,0,0,1,1.919-14.83.484.484,0,0,0-.066-.334c-.291-.44-.464-.964-.571-1.074a.11.11,0,0,0-.046-.04,2.054,2.054,0,0,0-1.54-.09c-.44.1-1,.458-1.716.632a.25.25,0,0,0-.187.147,60.1,60.1,0,0,0-3.581,17.16c0,.022,0,.058-.039.034a83.2,83.2,0,0,0-8.721-4.839A.528.528,0,0,0,17.438,28a6.406,6.406,0,0,1-2.136-.99c-.788-.475-2.33-1.567-3.3-2.127a.487.487,0,0,0-.328-.078,6.112,6.112,0,0,0-2.825,1.9c-.142.22.15.695.117.99a.1.1,0,0,0,.027.085,28.8,28.8,0,0,0,5.78,3.907c2.913,1.571,5.878,3.06,7.1,3.839a.219.219,0,0,1,.075.078,2.289,2.289,0,0,0,.66.5,6.157,6.157,0,0,1,.869.536c.076.07.039.153-.04.22C20.36,39,14.239,42.977,11.32,44.936A25.8,25.8,0,0,1,8.9,46.1a3.166,3.166,0,0,0-1.671,1.358c-.054.108.016.163.1.19.472.133.589.464.914.593a1.254,1.254,0,0,0,.365.045,11.325,11.325,0,0,0,3.6-1.234c2.19-.97,9-5.15,9.819-5.628a.086.086,0,0,1,.057-.015,2.077,2.077,0,0,0,1.125-.577,12.089,12.089,0,0,1,1.93-1.153l1.1-.616Z" transform="translate(3.588 7.361)" fill="#fca400"/>
  </g>
</svg>
