<?xml version="1.0" encoding="utf-8"?>
<!-- Generator: Adobe Illustrator 25.4.0, SVG Export Plug-In . SVG Version: 6.00 Build 0)  -->
<svg version="1.2" baseProfile="tiny" id="레이어_1"
	 xmlns="http://www.w3.org/2000/svg" xmlns:xlink="http://www.w3.org/1999/xlink" x="0px" y="0px" viewBox="0 0 240 31"
	 overflow="visible" xml:space="preserve">
<g>
	<path fill="#FF7010" d="M14.03,12.69c0.8-0.15,1.6-0.32,2.38-0.5c0.39-0.07,0.71-0.02,0.97,0.15c0.25,0.18,0.42,0.4,0.49,0.66
		c0.06,0.28,0.01,0.56-0.14,0.84s-0.43,0.47-0.84,0.56c-1.14,0.28-2.34,0.51-3.6,0.69c-1.26,0.18-2.53,0.31-3.82,0.41
		C8.18,15.56,6.9,15.6,5.63,15.6c-1.27,0-2.46-0.04-3.58-0.11c-0.41-0.02-0.71-0.16-0.9-0.42c-0.19-0.26-0.27-0.53-0.25-0.81
		c0.02-0.28,0.13-0.54,0.34-0.77c0.21-0.23,0.51-0.34,0.92-0.32c1.08,0.11,2.19,0.18,3.32,0.2s2.28-0.01,3.46-0.08
		c-0.02-0.32-0.05-0.66-0.1-1.02c-0.05-0.36-0.13-0.77-0.24-1.22c-0.09-0.39-0.03-0.71,0.2-0.97c0.22-0.25,0.5-0.41,0.84-0.46
		c0.34-0.08,0.66-0.03,0.98,0.13c0.32,0.16,0.53,0.44,0.64,0.85c0.13,0.49,0.21,0.93,0.25,1.33c0.04,0.4,0.06,0.78,0.08,1.13
		C12.42,12.96,13.23,12.84,14.03,12.69z M14.73,7.31c0.49,0.24,0.91,0.48,1.29,0.7c0.32,0.22,0.5,0.5,0.55,0.83
		c0.05,0.33,0,0.62-0.15,0.88c-0.15,0.28-0.38,0.48-0.69,0.59c-0.31,0.11-0.65,0.06-1.02-0.17c-0.35-0.19-0.76-0.41-1.22-0.67
		c-0.46-0.26-0.95-0.51-1.47-0.76c-0.32-0.13-0.63-0.26-0.95-0.39s-0.64-0.24-0.98-0.34c-0.02,0-0.03,0-0.03,0.01
		c0,0.01-0.01,0.01-0.03,0.01C9.3,8.54,8.5,9.04,7.64,9.52c-0.87,0.49-1.75,0.95-2.65,1.4c-0.35,0.21-0.7,0.26-1.04,0.15
		s-0.59-0.28-0.76-0.55C3.01,10.29,2.95,10.01,3,9.69C3.06,9.37,3.3,9.1,3.73,8.88C5.47,7.98,6.89,7.16,8,6.4
		c1.11-0.76,1.83-1.41,2.17-1.97c0.07-0.07-0.04-0.12-0.35-0.14C9.51,4.27,9.1,4.28,8.57,4.32C8.05,4.37,7.46,4.46,6.8,4.58
		C6.13,4.7,5.49,4.87,4.88,5.07C4.43,5.22,4.06,5.21,3.76,5.04c-0.3-0.17-0.5-0.39-0.59-0.67c-0.09-0.3-0.07-0.6,0.08-0.91
		s0.46-0.54,0.92-0.69c0.58-0.19,1.23-0.35,1.96-0.5s1.46-0.25,2.18-0.31c0.73-0.07,1.43-0.08,2.1-0.03
		c0.67,0.06,1.26,0.18,1.76,0.36c0.65,0.28,1.02,0.64,1.11,1.09c0.08,0.45,0.04,0.89-0.13,1.32c-0.21,0.49-0.53,0.98-0.98,1.48
		c0.17,0.06,0.34,0.12,0.5,0.18s0.34,0.14,0.5,0.21C13.74,6.81,14.25,7.05,14.73,7.31z M10.14,20.22c1.66-0.09,3.31-0.06,4.96,0.11
		c0.41,0.06,0.71,0.21,0.9,0.46c0.19,0.25,0.27,0.52,0.25,0.8c-0.02,0.3-0.12,0.56-0.31,0.78s-0.44,0.33-0.76,0.31
		c-1.74-0.24-3.37-0.32-4.9-0.22c-1.53,0.09-3,0.3-4.4,0.62c-0.41,0.06-0.74-0.01-0.98-0.21c-0.24-0.2-0.38-0.43-0.42-0.71
		c-0.04-0.28,0.03-0.56,0.2-0.83s0.47-0.46,0.9-0.57C6.98,20.47,8.5,20.3,10.14,20.22z M14.85,26.24c0,0.95-0.39,1.73-1.16,2.34
		c-0.77,0.61-1.92,0.91-3.43,0.91c-1.23,0-2.21-0.28-2.94-0.84c-0.73-0.56-1.09-1.26-1.09-2.1c0-0.95,0.39-1.76,1.16-2.42
		c0.77-0.66,1.9-0.99,3.37-0.99c0.69,0,1.29,0.09,1.81,0.27c0.51,0.18,0.94,0.41,1.27,0.7c0.34,0.29,0.59,0.62,0.76,0.99
		S14.85,25.85,14.85,26.24z M10.45,16.89c1.01-0.04,2.02-0.06,3.02-0.06c0.35,0.04,0.62,0.17,0.81,0.41
		c0.19,0.23,0.28,0.48,0.28,0.74c0,0.28-0.1,0.53-0.29,0.74c-0.2,0.21-0.48,0.31-0.85,0.29c-2,0-3.89,0.11-5.68,0.34
		c-0.41,0.04-0.72-0.04-0.94-0.24c-0.21-0.2-0.33-0.43-0.35-0.71c-0.04-0.26,0.03-0.52,0.2-0.77s0.43-0.42,0.78-0.49
		C8.43,16.99,9.44,16.91,10.45,16.89z M11.85,27.25c0.35-0.19,0.53-0.51,0.53-0.98c0-0.45-0.19-0.76-0.57-0.92
		c-0.38-0.17-0.77-0.25-1.16-0.25c-0.5,0-0.95,0.1-1.34,0.31c-0.39,0.21-0.59,0.57-0.59,1.09c0,0.45,0.16,0.74,0.49,0.87
		c0.33,0.13,0.7,0.2,1.11,0.2C11,27.56,11.51,27.45,11.85,27.25z"/>
	<path fill="#FF7010" d="M33.19,17.59c-0.15,0.3-0.42,0.5-0.81,0.59c-0.9,0.24-1.86,0.44-2.88,0.6c-1.03,0.16-2.07,0.27-3.12,0.34
		c-1.05,0.07-2.11,0.08-3.16,0.04s-2.06-0.13-3.01-0.28c-0.37-0.06-0.64-0.23-0.81-0.53c-0.17-0.3-0.24-0.61-0.21-0.92
		c0.03-0.32,0.15-0.59,0.38-0.83s0.54-0.32,0.95-0.27c1.77,0.26,3.64,0.34,5.6,0.22c1.96-0.11,3.9-0.4,5.82-0.87
		c0.39-0.09,0.71-0.03,0.95,0.18c0.24,0.21,0.39,0.48,0.45,0.78C33.38,16.96,33.33,17.27,33.19,17.59z M32.37,23.72
		c-0.02,0.35-0.2,0.67-0.53,0.95c-0.45,0.35-0.94,0.66-1.47,0.92c-0.53,0.26-1.09,0.47-1.68,0.62c-0.59,0.15-1.19,0.24-1.81,0.28
		c-0.62,0.04-1.21,0.01-1.79-0.08c-0.6-0.09-1.16-0.25-1.69-0.48c-0.53-0.22-1.02-0.53-1.46-0.91c-0.44-0.38-0.81-0.85-1.12-1.39
		s-0.53-1.18-0.66-1.9c-0.07-0.43,0.01-0.78,0.27-1.05c0.25-0.27,0.56-0.44,0.91-0.52c0.34-0.06,0.67,0,0.99,0.17
		s0.54,0.46,0.63,0.87c0.15,0.9,0.52,1.56,1.11,1.99c0.59,0.43,1.25,0.67,2,0.73c0.75,0.06,1.52-0.05,2.31-0.31
		c0.79-0.26,1.49-0.63,2.09-1.09c0.32-0.24,0.63-0.32,0.94-0.24s0.56,0.26,0.74,0.52C32.32,23.06,32.39,23.37,32.37,23.72z
		 M31.25,9.78c-0.19,1.64-0.72,2.9-1.61,3.78c-0.89,0.88-2.12,1.32-3.71,1.32c-0.67,0-1.29-0.11-1.86-0.34
		c-0.57-0.22-1.05-0.55-1.46-0.97c-0.4-0.42-0.71-0.93-0.92-1.54c-0.21-0.61-0.29-1.3-0.24-2.09c0.06-0.8,0.23-1.53,0.52-2.18
		c0.29-0.65,0.67-1.21,1.15-1.67c0.48-0.46,1.03-0.81,1.65-1.05c0.63-0.24,1.3-0.36,2.03-0.36c0.63,0,1.23,0.11,1.78,0.34
		c0.55,0.22,1.03,0.56,1.44,0.99c0.41,0.44,0.72,0.98,0.94,1.61S31.27,8.97,31.25,9.78z M26.02,12.46c1.55,0,2.41-0.86,2.58-2.58
		c0.09-0.82-0.05-1.46-0.42-1.93c-0.37-0.47-0.86-0.7-1.46-0.7c-0.6,0-1.14,0.21-1.64,0.62c-0.49,0.41-0.81,1.08-0.94,2.02
		c-0.09,0.78,0.05,1.41,0.42,1.88C24.94,12.23,25.42,12.46,26.02,12.46z"/>
	<path fill="#FF7010" d="M48.64,15.85c-0.5-0.34-1.08-0.64-1.74-0.92c-0.78,1.05-1.64,2.01-2.56,2.88
		c-0.92,0.88-1.76,1.62-2.51,2.21c-0.35,0.26-0.71,0.34-1.06,0.25c-0.35-0.09-0.63-0.28-0.83-0.56c-0.2-0.28-0.28-0.61-0.27-0.98
		c0.02-0.37,0.23-0.72,0.64-1.04c0.62-0.47,1.27-1.01,1.97-1.64c0.7-0.62,1.35-1.3,1.96-2.02s1.12-1.46,1.53-2.24
		c0.41-0.77,0.64-1.54,0.7-2.28c0.06-0.63-0.13-1.08-0.55-1.34c-0.42-0.26-0.93-0.41-1.54-0.43c-0.61-0.03-1.22,0.02-1.83,0.14
		c-0.62,0.12-1.09,0.24-1.43,0.35C40.73,8.35,40.4,8.3,40.14,8.1c-0.25-0.21-0.41-0.47-0.46-0.78c-0.06-0.32,0-0.63,0.15-0.95
		c0.16-0.32,0.44-0.52,0.85-0.62c0.47-0.15,1.01-0.27,1.62-0.36c0.62-0.09,1.25-0.13,1.89-0.13c0.64,0.01,1.27,0.08,1.89,0.21
		c0.62,0.13,1.17,0.35,1.67,0.64s0.9,0.69,1.2,1.16c0.31,0.48,0.47,1.07,0.49,1.78c0,0.6-0.1,1.2-0.31,1.82
		c-0.21,0.62-0.48,1.24-0.81,1.88c0.63,0.26,1.23,0.56,1.79,0.9s1.05,0.69,1.48,1.06c0.35,0.28,0.54,0.61,0.56,0.98
		c0.02,0.37-0.07,0.7-0.27,0.98c-0.2,0.28-0.46,0.46-0.8,0.55s-0.68-0.02-1.04-0.32C49.62,16.51,49.15,16.17,48.64,15.85z
		 M54.07,19.21c0.56,0.11,1.06,0.34,1.51,0.67c0.43,0.36,0.74,0.78,0.94,1.29s0.31,1.05,0.35,1.62c0.02,0.58-0.02,1.17-0.11,1.76
		c-0.09,0.6-0.22,1.15-0.39,1.65c-0.13,0.39-0.36,0.65-0.69,0.78c-0.33,0.13-0.64,0.16-0.94,0.08c-0.32-0.08-0.57-0.24-0.76-0.5
		c-0.19-0.26-0.21-0.61-0.06-1.04c0.28-0.78,0.42-1.53,0.43-2.24s-0.21-1.22-0.66-1.54c-0.24-0.19-0.53-0.3-0.85-0.34
		c-0.33-0.04-0.67-0.03-1.02,0.03c-0.34,0.06-0.68,0.14-1.04,0.25c-0.35,0.11-0.68,0.22-0.98,0.34c-0.35,0.13-0.65,0.11-0.9-0.06
		c-0.24-0.17-0.41-0.39-0.5-0.67c-0.07-0.28-0.06-0.57,0.06-0.88c0.11-0.31,0.35-0.55,0.73-0.71c0.45-0.17,0.95-0.32,1.5-0.45
		c0.55-0.13,1.12-0.21,1.69-0.22C52.97,19.03,53.53,19.08,54.07,19.21z M53.77,16.22c0.47-1.49,0.67-3.14,0.62-4.93
		c-0.02-1.74-0.26-3.39-0.73-4.96c-0.11-0.41-0.06-0.74,0.15-0.99c0.21-0.25,0.49-0.42,0.83-0.49c0.34-0.06,0.67-0.01,1.01,0.14
		c0.34,0.15,0.57,0.43,0.7,0.84c0.22,0.84,0.39,1.72,0.5,2.65c0.11,0.92,0.17,1.86,0.17,2.81s-0.05,1.89-0.15,2.83
		s-0.27,1.8-0.49,2.6c-0.13,0.43-0.36,0.72-0.69,0.87c-0.33,0.15-0.65,0.2-0.97,0.14c-0.34-0.07-0.61-0.24-0.81-0.49
		S53.65,16.65,53.77,16.22z"/>
	<path fill="#FF7010" d="M68.75,14.03c0.9-0.17,1.74-0.36,2.52-0.59c0.41-0.08,0.74-0.01,0.98,0.2c0.24,0.21,0.39,0.45,0.45,0.74
		c0.06,0.29,0.01,0.57-0.14,0.85c-0.15,0.28-0.42,0.48-0.81,0.59c-0.93,0.26-1.87,0.48-2.81,0.66c-0.94,0.18-1.89,0.31-2.84,0.41
		c-0.02,0.54-0.04,1.06-0.07,1.57c-0.03,0.5-0.08,1.05-0.15,1.65c-0.06,0.43-0.23,0.74-0.53,0.94c-0.3,0.2-0.61,0.28-0.94,0.25
		c-0.33-0.03-0.61-0.16-0.85-0.39c-0.24-0.23-0.34-0.56-0.28-0.99c0.06-0.54,0.1-1.03,0.14-1.47c0.04-0.44,0.07-0.9,0.11-1.39
		c-0.52,0.02-1.03,0.02-1.53,0.01S61,17.04,60.51,17c-0.41-0.04-0.71-0.19-0.91-0.45c-0.2-0.26-0.28-0.54-0.27-0.84
		c0.02-0.3,0.14-0.56,0.36-0.78c0.22-0.22,0.55-0.33,0.98-0.31c0.8,0.06,1.66,0.07,2.58,0.04s1.83-0.1,2.76-0.21
		C66.94,14.34,67.85,14.2,68.75,14.03z M70.06,10.64c-0.3,0.54-0.69,1-1.16,1.39s-1.01,0.67-1.61,0.85c-0.6,0.19-1.23,0.28-1.9,0.28
		c-0.6,0-1.17-0.11-1.71-0.32c-0.54-0.21-1.01-0.51-1.41-0.9c-0.4-0.38-0.71-0.84-0.92-1.37c-0.21-0.53-0.29-1.11-0.24-1.72
		c0.06-0.73,0.23-1.39,0.52-1.97c0.29-0.59,0.66-1.09,1.12-1.51s0.99-0.74,1.6-0.97c0.61-0.22,1.25-0.34,1.92-0.34
		c0.73,0.02,1.37,0.15,1.92,0.41c0.55,0.25,1.02,0.59,1.4,1.01c0.38,0.42,0.66,0.91,0.84,1.47c0.18,0.56,0.26,1.15,0.24,1.76
		C70.56,9.44,70.36,10.08,70.06,10.64z M67.12,10.22c0.41-0.39,0.67-0.91,0.78-1.57c0.11-0.63,0.01-1.16-0.31-1.58
		c-0.32-0.42-0.77-0.63-1.37-0.63c-0.54,0-1.05,0.21-1.53,0.62c-0.48,0.41-0.77,0.98-0.88,1.71c-0.09,0.58,0.02,1.06,0.35,1.46
		c0.33,0.39,0.76,0.59,1.3,0.59C66.18,10.81,66.73,10.62,67.12,10.22z M66.87,21.79c0.34,0.17,0.55,0.47,0.64,0.9
		c0.15,0.88,0.51,1.49,1.08,1.85c0.57,0.35,1.23,0.53,1.97,0.53c0.73,0,1.48-0.15,2.25-0.46c0.77-0.31,1.46-0.69,2.06-1.16
		c0.32-0.24,0.63-0.32,0.94-0.22c0.31,0.09,0.56,0.27,0.74,0.53c0.17,0.28,0.24,0.6,0.22,0.95c-0.02,0.35-0.2,0.67-0.53,0.95
		c-0.45,0.35-0.94,0.66-1.48,0.92c-0.54,0.26-1.11,0.47-1.69,0.63c-0.59,0.16-1.19,0.26-1.82,0.31c-0.63,0.05-1.23,0.03-1.81-0.04
		c-0.6-0.07-1.17-0.21-1.71-0.42s-1.02-0.49-1.44-0.84s-0.77-0.78-1.06-1.27c-0.29-0.5-0.47-1.08-0.55-1.75
		c-0.06-0.45,0.04-0.81,0.29-1.08s0.56-0.43,0.91-0.49C66.23,21.56,66.55,21.62,66.87,21.79z M71.8,17.45
		c0.8-0.13,1.59-0.27,2.35-0.42c0.07-0.86,0.12-1.75,0.13-2.66c0.01-0.91-0.01-1.82-0.07-2.7s-0.15-1.75-0.29-2.58
		c-0.14-0.83-0.3-1.6-0.49-2.31c-0.11-0.41-0.06-0.75,0.17-1.01c0.22-0.26,0.5-0.43,0.84-0.5c0.34-0.07,0.67-0.04,1.01,0.11
		S76,5.81,76.11,6.22c0.26,1.01,0.46,2.15,0.6,3.43s0.21,2.58,0.21,3.91c0,1.33-0.07,2.63-0.2,3.91c-0.13,1.28-0.33,2.42-0.59,3.43
		c-0.11,0.39-0.33,0.67-0.66,0.84c-0.33,0.17-0.65,0.23-0.97,0.18c-0.32-0.05-0.58-0.2-0.8-0.45c-0.21-0.25-0.27-0.6-0.15-1.05
		c0.04-0.15,0.07-0.3,0.11-0.46c0.04-0.16,0.07-0.32,0.11-0.49c-0.67,0.15-1.36,0.28-2.07,0.38s-1.39,0.17-2.04,0.21
		c-0.39,0.04-0.7-0.05-0.92-0.27c-0.22-0.21-0.35-0.46-0.39-0.74c-0.04-0.28,0.03-0.55,0.2-0.8s0.46-0.41,0.87-0.46
		C70.2,17.69,70.99,17.58,71.8,17.45z"/>
	<path fill="#FF7010" d="M88.79,8.24c0.47-0.02,0.94-0.01,1.43,0.03c-0.06-0.5-0.11-1-0.15-1.48c-0.05-0.49-0.1-0.92-0.15-1.32
		c-0.07-0.34,0-0.61,0.21-0.81c0.21-0.21,0.47-0.34,0.77-0.39c0.3-0.04,0.58,0.02,0.85,0.17c0.27,0.15,0.44,0.39,0.52,0.73
		c0.49,3.42,0.46,6.03-0.07,7.84c-0.53,1.81-1.73,2.72-3.6,2.72c-1.06,0-1.88-0.29-2.44-0.87c-0.56-0.58-0.93-1.35-1.12-2.32
		c-0.19-1.01-0.23-2.15-0.13-3.42c0.1-1.27,0.29-2.61,0.57-4.03c0.06-0.34,0.21-0.58,0.48-0.74c0.26-0.16,0.54-0.23,0.84-0.21
		c0.3,0.02,0.56,0.13,0.77,0.32c0.21,0.2,0.3,0.47,0.27,0.83C87.77,5.7,87.69,6.17,87.6,6.7s-0.15,1.06-0.21,1.62
		C87.86,8.26,88.33,8.24,88.79,8.24z M87.45,10.48h-0.2c0,0.84,0.09,1.54,0.28,2.1c0.19,0.56,0.54,0.84,1.06,0.84
		c0.56,0,0.96-0.29,1.2-0.88c0.24-0.59,0.39-1.3,0.45-2.14c-0.35-0.02-0.66-0.03-0.91-0.03c-0.25,0-0.48,0-0.69,0L87.45,10.48z
		 M97,8.35c0.37,0,0.76,0,1.15,0c-0.02-0.37-0.05-0.74-0.08-1.09c-0.04-0.35-0.07-0.7-0.11-1.04c-0.08-0.32-0.01-0.57,0.2-0.76
		c0.21-0.19,0.46-0.29,0.76-0.31c0.28-0.04,0.56,0.01,0.83,0.15c0.27,0.14,0.43,0.37,0.49,0.69c0.24,1.38,0.36,2.62,0.35,3.71
		s-0.16,2.02-0.45,2.77c-0.29,0.76-0.72,1.34-1.29,1.75c-0.57,0.41-1.28,0.62-2.14,0.62c-0.99,0-1.72-0.29-2.2-0.87
		c-0.48-0.58-0.8-1.31-0.97-2.18c-0.15-0.9-0.19-1.87-0.11-2.93c0.07-1.05,0.18-2.06,0.31-3.01c0.04-0.35,0.2-0.61,0.48-0.77
		c0.28-0.16,0.58-0.23,0.9-0.21c0.3,0.02,0.56,0.13,0.8,0.34c0.23,0.21,0.33,0.5,0.29,0.87c-0.06,0.28-0.11,0.62-0.15,1.02
		c-0.05,0.4-0.08,0.83-0.1,1.27C96.27,8.36,96.62,8.35,97,8.35z M97.75,25.4c0.5,0.19,1.11,0.25,1.82,0.2
		c0.73-0.04,1.53-0.16,2.41-0.38s1.68-0.5,2.41-0.85c0.35-0.17,0.67-0.19,0.95-0.06c0.28,0.13,0.48,0.33,0.59,0.59
		c0.13,0.28,0.16,0.58,0.08,0.91c-0.07,0.33-0.28,0.59-0.62,0.8c-0.9,0.47-1.84,0.81-2.84,1.04c-1,0.22-2,0.36-3.01,0.42
		c-1.7,0.08-3-0.22-3.91-0.9c-0.91-0.67-1.36-1.58-1.36-2.72c0-0.84,0.2-1.53,0.6-2.06c0.4-0.53,0.92-0.95,1.55-1.25
		c0.65-0.3,1.39-0.51,2.2-0.64s1.64-0.22,2.48-0.28c0.39-0.02,0.68-0.13,0.85-0.34c0.18-0.21,0.27-0.45,0.27-0.73
		c0-0.5-0.22-0.84-0.67-1.02c-0.45-0.18-0.97-0.27-1.57-0.27c-0.58,0.02-1.16,0.09-1.75,0.21s-1.02,0.24-1.3,0.35
		c-0.39,0.17-0.73,0.18-1.01,0.03c-0.28-0.15-0.46-0.36-0.53-0.64c-0.09-0.28-0.07-0.58,0.06-0.9c0.13-0.32,0.4-0.57,0.81-0.76
		c0.35-0.15,0.75-0.28,1.19-0.39c0.44-0.11,0.9-0.2,1.37-0.25c0.48-0.06,0.96-0.08,1.44-0.07s0.95,0.05,1.4,0.13
		c0.91,0.17,1.69,0.52,2.32,1.06c0.63,0.54,0.95,1.33,0.95,2.35c0,1.06-0.29,1.92-0.85,2.56c-0.57,0.64-1.4,0.99-2.48,1.05
		c-0.5,0.04-1.03,0.08-1.57,0.13c-0.54,0.05-1.05,0.14-1.51,0.27c-0.45,0.13-0.82,0.31-1.11,0.53C97.14,23.75,97,24.06,97,24.45
		C97,24.9,97.25,25.21,97.75,25.4z M95.85,10.48c0.02,0.62,0.1,1.13,0.24,1.55c0.14,0.42,0.38,0.63,0.71,0.63
		c0.41,0,0.72-0.22,0.92-0.66c0.21-0.44,0.34-0.98,0.39-1.64c-0.54-0.02-0.99-0.02-1.34,0L95.85,10.48z M106.57,7.96
		c0.48,0,1.02,0,1.6,0c0.39,0.02,0.69,0.15,0.9,0.39c0.21,0.24,0.31,0.51,0.31,0.81s-0.1,0.56-0.29,0.8s-0.5,0.34-0.91,0.32
		c-0.56,0-1.09,0-1.58,0s-0.98,0.01-1.47,0.03c-0.04,0.54-0.09,1.07-0.15,1.6s-0.15,1.01-0.27,1.46c-0.11,0.41-0.33,0.7-0.66,0.85
		c-0.33,0.16-0.65,0.21-0.97,0.15c-0.32-0.06-0.58-0.21-0.8-0.48c-0.21-0.26-0.26-0.61-0.13-1.04c0.17-0.52,0.28-1.1,0.35-1.74
		s0.09-1.28,0.08-1.95c-0.01-0.66-0.06-1.31-0.15-1.93c-0.09-0.62-0.21-1.21-0.36-1.75c-0.11-0.43-0.06-0.77,0.17-1.02
		c0.22-0.25,0.5-0.41,0.84-0.46c0.34-0.06,0.67,0,0.99,0.17s0.54,0.45,0.63,0.84c0.22,0.9,0.36,1.89,0.42,2.97
		C105.6,7.95,106.09,7.94,106.57,7.96z"/>
	<path fill="#FF7010" d="M114.5,9.89c-0.41,0.15-0.77,0.34-1.09,0.56c-0.34,0.21-0.66,0.25-0.97,0.14c-0.31-0.11-0.55-0.3-0.71-0.56
		s-0.24-0.56-0.21-0.88c0.03-0.33,0.2-0.6,0.52-0.83c0.63-0.41,1.32-0.74,2.04-0.98c0.73-0.24,1.47-0.36,2.21-0.36
		s1.44,0.11,2.09,0.32c0.64,0.21,1.2,0.53,1.67,0.95c0.47,0.42,0.83,0.93,1.09,1.54c0.26,0.61,0.39,1.29,0.39,2.06
		c0,0.36-0.04,0.77-0.11,1.23c-0.07,0.47-0.21,0.94-0.42,1.43c-0.32,0.8-0.82,1.33-1.51,1.57c-0.69,0.24-1.59,0.36-2.69,0.36
		c-0.39,0-0.78,0-1.18,0s-0.74,0.06-1.05,0.17c-0.31,0.11-0.56,0.3-0.74,0.56c-0.19,0.26-0.28,0.65-0.28,1.18
		c0,0.41,0.02,0.81,0.06,1.19c0.04,0.38,0.12,0.72,0.25,1.02c0.13,0.3,0.33,0.54,0.6,0.73s0.65,0.28,1.13,0.28
		c0.88,0,1.7-0.15,2.48-0.45c0.77-0.3,1.48-0.71,2.11-1.23c0.28-0.24,0.57-0.33,0.87-0.27c0.3,0.07,0.55,0.22,0.74,0.46
		c0.2,0.24,0.31,0.53,0.34,0.85c0.03,0.33-0.09,0.62-0.35,0.88c-0.37,0.39-0.81,0.73-1.32,1.02c-0.5,0.29-1.04,0.52-1.61,0.7
		s-1.16,0.31-1.76,0.41c-0.61,0.09-1.19,0.14-1.75,0.14c-0.9,0-1.66-0.14-2.28-0.43c-0.63-0.29-1.12-0.74-1.47-1.36
		c-0.24-0.39-0.43-0.87-0.57-1.43c-0.14-0.56-0.22-1.14-0.25-1.74c-0.03-0.6,0-1.18,0.07-1.75c0.07-0.57,0.21-1.07,0.39-1.5
		c0.19-0.43,0.44-0.77,0.77-1.02c0.33-0.25,0.7-0.45,1.11-0.59c0.41-0.14,0.85-0.23,1.33-0.27c0.48-0.04,0.96-0.05,1.44-0.03
		c0.71,0.02,1.29,0,1.75-0.07c0.46-0.07,0.75-0.27,0.88-0.6c0.09-0.24,0.17-0.5,0.22-0.78c0.06-0.28,0.07-0.56,0.06-0.84
		c-0.02-0.28-0.08-0.55-0.2-0.83c-0.11-0.27-0.29-0.51-0.53-0.71c-0.32-0.24-0.68-0.41-1.08-0.49s-0.81-0.11-1.23-0.07
		S114.91,9.72,114.5,9.89z M125.61,6.47c0.34,0.15,0.57,0.43,0.7,0.84c0.73,2.61,1.09,5.36,1.09,8.23c0,2.89-0.36,5.64-1.09,8.23
		c-0.13,0.43-0.36,0.72-0.69,0.87c-0.33,0.15-0.65,0.19-0.97,0.11s-0.58-0.25-0.78-0.52c-0.21-0.27-0.25-0.62-0.14-1.05
		c0.71-2.54,1.04-5.09,0.99-7.65c-0.05-2.56-0.42-5.11-1.11-7.64c-0.11-0.41-0.06-0.75,0.17-1.02c0.22-0.27,0.5-0.44,0.84-0.52
		C124.95,6.29,125.28,6.32,125.61,6.47z"/>
	<path fill="#FF7010" d="M145.63,16.47c-0.19,0.78-0.46,1.33-0.83,1.62c-0.36,0.3-0.8,0.49-1.3,0.56c-0.15,0.04-0.4,0.07-0.74,0.08
		s-0.74,0.04-1.19,0.06c-0.45,0.02-0.91,0.03-1.37,0.03c-0.47,0-0.88,0-1.23,0c-0.52,0-0.96-0.05-1.3-0.14
		c-0.35-0.09-0.63-0.24-0.87-0.43s-0.42-0.45-0.56-0.76c-0.14-0.31-0.25-0.7-0.32-1.16c-0.19-0.97-0.29-2.07-0.32-3.29
		s0.02-2.51,0.15-3.85c0.13-1.2,0.93-1.9,2.41-2.13c0.69-0.11,1.5-0.18,2.44-0.2s1.82,0.07,2.66,0.28c0.84,0.22,1.56,0.6,2.16,1.12
		c0.6,0.52,0.9,1.27,0.9,2.24c0,0.37-0.02,0.83-0.06,1.36c-0.04,0.53-0.09,1.08-0.15,1.64s-0.14,1.11-0.22,1.64
		C145.79,15.67,145.71,16.11,145.63,16.47z M138.21,13.16c0.06,1.08,0.18,2.16,0.36,3.22c0.78,0.04,1.54,0.05,2.27,0.03
		c0.73-0.02,1.43-0.07,2.1-0.14c0.19-0.9,0.34-1.73,0.46-2.51c0.12-0.77,0.18-1.61,0.18-2.51c0-0.58-0.2-1.01-0.6-1.29
		c-0.4-0.28-0.87-0.45-1.41-0.5c-0.56-0.07-1.13-0.08-1.72-0.01s-1.07,0.14-1.44,0.21C138.24,10.91,138.17,12.08,138.21,13.16z
		 M153.28,24.25c-0.04,0.34-0.22,0.63-0.56,0.9c-0.43,0.34-0.93,0.63-1.51,0.9c-0.58,0.26-1.19,0.45-1.82,0.56
		c-0.63,0.11-1.26,0.14-1.89,0.08c-0.63-0.06-1.2-0.22-1.72-0.5c-0.49-0.24-0.89-0.56-1.2-0.97c-0.32-0.4-0.57-0.85-0.74-1.34
		c-0.18-0.49-0.29-1.01-0.32-1.54c-0.04-0.53,0-1.07,0.11-1.61c0.07-0.39,0.27-0.67,0.59-0.84s0.64-0.24,0.98-0.21
		c0.34,0.03,0.63,0.15,0.87,0.38c0.24,0.22,0.34,0.55,0.28,0.98c-0.04,0.28-0.06,0.56-0.07,0.85c-0.01,0.29,0.02,0.57,0.08,0.84
		c0.07,0.27,0.18,0.52,0.34,0.76s0.38,0.42,0.66,0.57c0.28,0.15,0.6,0.21,0.97,0.2c0.36-0.02,0.73-0.08,1.11-0.2
		c0.37-0.11,0.73-0.26,1.08-0.45c0.34-0.19,0.64-0.36,0.88-0.53c0.35-0.24,0.69-0.32,0.99-0.24c0.31,0.08,0.55,0.26,0.71,0.52
		C153.25,23.62,153.31,23.92,153.28,24.25z M154.34,11.32c0.6,0,1.19,0,1.79,0c0.39,0.02,0.69,0.15,0.9,0.39
		c0.21,0.24,0.31,0.5,0.31,0.78s-0.1,0.54-0.31,0.77c-0.21,0.23-0.5,0.34-0.9,0.32c-1.21,0-2.38,0.03-3.5,0.08
		c-0.04,1.03-0.12,2.03-0.24,3.01c-0.12,0.98-0.3,1.92-0.55,2.81c-0.13,0.43-0.36,0.72-0.69,0.87c-0.33,0.15-0.65,0.2-0.97,0.14
		c-0.32-0.06-0.58-0.21-0.78-0.46c-0.21-0.25-0.25-0.59-0.14-1.02c0.54-1.96,0.78-4,0.73-6.12c-0.06-2.12-0.35-4.16-0.87-6.12
		c-0.11-0.41-0.06-0.75,0.17-1.01c0.22-0.26,0.5-0.43,0.84-0.5c0.32-0.07,0.64-0.04,0.98,0.11s0.57,0.43,0.7,0.84
		c0.21,0.8,0.37,1.63,0.5,2.49c0.13,0.86,0.21,1.74,0.25,2.63C153.17,11.31,153.76,11.3,154.34,11.32z"/>
	<path fill="#FF7010" d="M158.99,13.67c0.17-1.19,0.37-2.32,0.62-3.39c0.06-0.41,0.25-0.7,0.59-0.85c0.34-0.16,0.68-0.21,1.02-0.15
		c0.35,0.06,0.64,0.21,0.88,0.48s0.31,0.61,0.2,1.04c-0.28,1.12-0.49,2.22-0.62,3.29s-0.2,1.96-0.2,2.65c0,0.52,0.04,0.96,0.13,1.3
		c0.08,0.34,0.23,0.62,0.45,0.83c0.21,0.21,0.5,0.35,0.87,0.43s0.83,0.13,1.39,0.13c0.28,0,0.62-0.03,1.01-0.08
		c0.39-0.06,0.78-0.13,1.18-0.22c0.39-0.09,0.77-0.21,1.15-0.34c0.37-0.13,0.69-0.27,0.95-0.42c0.41-0.22,0.76-0.27,1.05-0.14
		c0.29,0.13,0.49,0.35,0.6,0.64c0.11,0.3,0.13,0.62,0.04,0.95s-0.3,0.6-0.66,0.78c-0.35,0.21-0.77,0.39-1.25,0.55
		c-0.48,0.16-0.97,0.29-1.48,0.41c-0.51,0.11-1.03,0.2-1.54,0.27c-0.51,0.07-0.98,0.1-1.39,0.1c-1.81,0-3.14-0.42-3.98-1.25
		c-0.84-0.83-1.26-2.1-1.26-3.79C158.74,15.91,158.82,14.84,158.99,13.67z M174.58,16.05c-0.04,2.58-0.4,5.15-1.09,7.73
		c-0.13,0.43-0.36,0.72-0.69,0.87c-0.33,0.15-0.65,0.19-0.97,0.11s-0.58-0.25-0.78-0.52s-0.25-0.62-0.14-1.05
		c0.71-2.54,1.04-5.09,0.99-7.65c-0.05-2.56-0.42-5.11-1.11-7.64c-0.11-0.41-0.06-0.75,0.17-1.02c0.22-0.27,0.5-0.44,0.84-0.52
		c0.32-0.08,0.64-0.04,0.98,0.11c0.34,0.15,0.57,0.43,0.7,0.84c0.26,1.01,0.48,2.04,0.66,3.08c0.18,1.05,0.3,2.11,0.38,3.19
		c0.6-0.04,1.19-0.05,1.79-0.04c0.6,0.01,1.19,0.01,1.79,0.01c0.35,0.02,0.63,0.16,0.84,0.42c0.21,0.26,0.31,0.55,0.32,0.87
		c0.01,0.32-0.08,0.6-0.25,0.85c-0.18,0.25-0.47,0.37-0.88,0.35c-0.6,0-1.19,0-1.79-0.01S175.16,16.03,174.58,16.05z"/>
	<path fill="#FF7010" d="M187.02,18.34c-1.06-0.63-2.09-1.15-3.08-1.54c-0.24,0.88-0.45,1.82-0.63,2.81c-0.18,1-0.32,2.1-0.43,3.29
		c-0.04,0.39-0.2,0.69-0.49,0.88c-0.29,0.2-0.6,0.29-0.94,0.29c-0.32-0.02-0.61-0.13-0.87-0.35s-0.38-0.54-0.36-0.97
		c0.15-2.61,0.66-5.27,1.54-7.98c0.41-1.34,0.9-2.65,1.47-3.91s1.2-2.45,1.89-3.57c0.22-0.34,0.52-0.53,0.88-0.59
		c0.36-0.06,0.7,0,0.99,0.17c0.28,0.15,0.49,0.38,0.62,0.69c0.13,0.31,0.08,0.66-0.14,1.05c-0.54,1.01-1.05,1.97-1.51,2.88
		c-0.47,0.92-0.89,1.88-1.26,2.88c0.54,0.15,1.12,0.37,1.75,0.66c0.62,0.29,1.25,0.61,1.89,0.97c0.65,0.37,1.26,0.76,1.83,1.16
		c0.57,0.4,1.05,0.77,1.44,1.11c0.35,0.34,0.53,0.69,0.53,1.06c0,0.37-0.1,0.68-0.31,0.92c-0.21,0.26-0.47,0.43-0.8,0.52
		c-0.33,0.08-0.62,0.01-0.88-0.21C189.12,19.71,188.08,18.96,187.02,18.34z M195.05,6.47c0.34,0.15,0.57,0.43,0.7,0.84
		c0.73,2.61,1.09,5.36,1.09,8.23c0,2.89-0.36,5.64-1.09,8.23c-0.13,0.43-0.36,0.72-0.69,0.87c-0.33,0.15-0.65,0.19-0.97,0.11
		s-0.58-0.25-0.78-0.52s-0.25-0.62-0.14-1.05c0.71-2.54,1.04-5.09,0.99-7.65c-0.05-2.56-0.42-5.11-1.11-7.64
		c-0.11-0.41-0.06-0.75,0.17-1.02s0.5-0.44,0.84-0.52C194.39,6.29,194.72,6.32,195.05,6.47z"/>
	<path fill="#FF7010" d="M210.73,21.82c-0.37,0.39-0.8,0.73-1.29,1.02c-0.49,0.29-1,0.52-1.55,0.7s-1.12,0.31-1.69,0.41
		c-0.58,0.09-1.15,0.14-1.71,0.14c-1.75,0-2.96-0.6-3.61-1.79c-0.22-0.39-0.41-0.87-0.55-1.43c-0.14-0.56-0.22-1.14-0.25-1.74
		c-0.03-0.6-0.01-1.18,0.06-1.75c0.07-0.57,0.19-1.07,0.38-1.5c0.19-0.43,0.44-0.77,0.76-1.02s0.68-0.45,1.08-0.59
		c0.4-0.14,0.83-0.23,1.29-0.27c0.46-0.04,0.92-0.05,1.39-0.03c0.69,0.02,1.26,0,1.69-0.07s0.72-0.27,0.85-0.6
		c0.09-0.24,0.17-0.5,0.22-0.78c0.06-0.28,0.07-0.56,0.06-0.84c-0.02-0.28-0.08-0.55-0.2-0.83c-0.11-0.27-0.29-0.51-0.53-0.71
		c-0.3-0.24-0.64-0.41-1.02-0.49s-0.78-0.11-1.19-0.07c-0.41,0.04-0.82,0.14-1.22,0.29c-0.4,0.16-0.76,0.35-1.08,0.57
		c-0.32,0.21-0.62,0.25-0.92,0.14s-0.53-0.3-0.69-0.56c-0.16-0.26-0.23-0.56-0.21-0.88c0.02-0.33,0.19-0.6,0.5-0.83
		c0.62-0.41,1.28-0.74,1.99-0.98c0.71-0.24,1.42-0.36,2.13-0.36c0.73,0,1.4,0.11,2.02,0.32c0.62,0.21,1.15,0.53,1.61,0.95
		c0.46,0.42,0.81,0.93,1.06,1.54s0.38,1.29,0.38,2.06c0,0.36-0.04,0.77-0.11,1.23c-0.08,0.47-0.21,0.94-0.39,1.43
		c-0.3,0.8-0.78,1.33-1.46,1.57c-0.67,0.24-1.54,0.36-2.6,0.36c-0.39,0-0.78,0-1.16,0c-0.38,0-0.72,0.06-1.01,0.17
		c-0.29,0.11-0.53,0.3-0.71,0.56c-0.19,0.26-0.28,0.65-0.28,1.18c0,0.41,0.02,0.81,0.06,1.19s0.12,0.72,0.25,1.02
		c0.13,0.3,0.33,0.54,0.59,0.73s0.63,0.28,1.09,0.28c0.84,0,1.64-0.15,2.39-0.45s1.44-0.71,2.06-1.23c0.28-0.24,0.56-0.33,0.85-0.27
		c0.29,0.07,0.53,0.22,0.71,0.46c0.19,0.24,0.29,0.53,0.31,0.85C211.08,21.26,210.97,21.56,210.73,21.82z M221.15,15.8
		c-0.19,0.24-0.49,0.35-0.9,0.34c-1.21,0-2.39,0.03-3.53,0.08c-0.04,1.27-0.14,2.53-0.31,3.78c-0.17,1.25-0.43,2.51-0.78,3.78
		c-0.13,0.43-0.36,0.72-0.69,0.87c-0.33,0.15-0.65,0.19-0.97,0.11s-0.58-0.25-0.78-0.52c-0.21-0.27-0.25-0.62-0.14-1.05
		c0.71-2.54,1.04-5.09,0.99-7.65c-0.05-2.56-0.42-5.11-1.11-7.64c-0.11-0.41-0.06-0.75,0.17-1.02c0.22-0.27,0.5-0.44,0.84-0.52
		c0.32-0.08,0.64-0.04,0.98,0.11c0.34,0.15,0.57,0.43,0.7,0.84c0.28,1.05,0.51,2.11,0.69,3.18c0.18,1.07,0.29,2.17,0.35,3.29
		c0.6-0.04,1.19-0.05,1.79-0.04c0.6,0.01,1.19,0.01,1.79,0.01c0.35,0.02,0.63,0.15,0.84,0.41c0.21,0.25,0.31,0.53,0.32,0.83
		C221.42,15.28,221.33,15.55,221.15,15.8z"/>
	<path fill="#FF7010" d="M230.27,18.2c0.09,1.18,0.12,2.36,0.08,3.56c1.19-0.09,2.38-0.25,3.54-0.48c1.17-0.22,2.36-0.54,3.57-0.95
		c0.37-0.11,0.69-0.07,0.95,0.11c0.26,0.19,0.44,0.43,0.53,0.73c0.09,0.3,0.08,0.61-0.04,0.92c-0.12,0.32-0.38,0.55-0.77,0.7
		c-1.16,0.43-2.37,0.77-3.64,1.01c-1.27,0.24-2.55,0.41-3.85,0.49c-1.3,0.08-2.59,0.09-3.88,0.03c-1.29-0.07-2.53-0.19-3.72-0.38
		c-0.39-0.06-0.67-0.23-0.84-0.52c-0.17-0.29-0.23-0.58-0.2-0.88c0.04-0.32,0.17-0.59,0.41-0.81c0.23-0.22,0.55-0.31,0.94-0.25
		c0.73,0.11,1.45,0.2,2.17,0.25c0.72,0.06,1.43,0.09,2.14,0.11c0.04-1.12,0-2.24-0.13-3.36c-0.12-1.12-0.29-2.25-0.52-3.39
		c-0.09-0.41-0.01-0.74,0.24-0.99s0.56-0.41,0.91-0.46c0.35-0.04,0.7,0.02,1.02,0.18c0.33,0.16,0.54,0.44,0.63,0.85
		C230.05,15.85,230.2,17.03,230.27,18.2z M228.46,9.13c-0.54,0.13-1.09,0.31-1.65,0.53c-0.41,0.21-0.77,0.23-1.09,0.08
		c-0.32-0.15-0.53-0.37-0.64-0.67c-0.13-0.3-0.15-0.62-0.06-0.97c0.09-0.35,0.34-0.63,0.76-0.85c0.28-0.13,0.62-0.26,1.01-0.38
		c0.39-0.12,0.79-0.22,1.2-0.29c0.41-0.09,0.81-0.16,1.2-0.21s0.73-0.07,1.01-0.07c2.05,0,3.71,0.5,4.98,1.51
		c1.25,1.01,1.88,2.68,1.88,5.01c0,0.84-0.12,1.7-0.35,2.59c-0.23,0.89-0.49,1.76-0.77,2.62c-0.13,0.34-0.36,0.56-0.69,0.66
		c-0.33,0.1-0.66,0.11-0.99,0.01c-0.32-0.07-0.58-0.23-0.8-0.46c-0.21-0.23-0.26-0.53-0.13-0.88c0.28-0.84,0.5-1.59,0.64-2.25
		c0.15-0.66,0.22-1.41,0.22-2.25c0-1.29-0.32-2.27-0.97-2.94c-0.64-0.67-1.69-1.01-3.15-1.01C229.54,8.91,229,8.98,228.46,9.13z"/>
</g>
</svg>
