<svg id="롯데카드" xmlns="http://www.w3.org/2000/svg" xmlns:xlink="http://www.w3.org/1999/xlink" width="88" height="87.828" viewBox="0 0 88 87.828">
  <defs>
    <clipPath id="clip-path">
      <rect id="사각형_16755" data-name="사각형 16755" width="88" height="87.828" fill="none"/>
    </clipPath>
  </defs>
  <g id="그룹_65197" data-name="그룹 65197" transform="translate(0 0)" clip-path="url(#clip-path)">
    <path id="패스_50306" data-name="패스 50306" d="M62.112,80.363a25.717,25.717,0,0,1-36.232,0L7.475,62a25.616,25.616,0,0,1,0-36.169L25.88,7.462a25.722,25.722,0,0,1,36.232,0L80.523,25.828a25.61,25.61,0,0,1,0,36.169Z" transform="translate(0 0)" fill="#dc000c"/>
    <path id="패스_50307" data-name="패스 50307" d="M22.994,49.138a2.712,2.712,0,0,1-2-4.551,2.779,2.779,0,0,1,1.895-.881,2.718,2.718,0,0,1,.22,5.431h-.115" transform="translate(10.089 21.751)" fill="#fff"/>
    <path id="패스_50308" data-name="패스 50308" d="M32.562,15.466A4.928,4.928,0,0,0,28.9,16.9c-2.089,2.064-3.186,6.343-3.079,12.029.118,7.014,1.788,20.779,7.318,27.863A12.509,12.509,0,0,0,36,59.515a6.361,6.361,0,0,0,3.78,1.267,8.5,8.5,0,0,0,1.472-.133c3.172-.768,7.15-4.286,10.091-8.97a2.451,2.451,0,0,1,2.076-1.149,2.481,2.481,0,0,1,1.3.376,2.446,2.446,0,0,1,.768,3.362C51.747,60.2,46.821,64.352,42.3,65.406a.252.252,0,0,0-.114.024,13.672,13.672,0,0,1-2.42.22,11.264,11.264,0,0,1-6.437-2.07,17.3,17.3,0,0,1-4.032-3.8C21.506,49.806,20.988,31.1,20.934,29c-.078-4.971.638-11.712,4.531-15.578A9.724,9.724,0,0,1,32.542,10.6H33a9.734,9.734,0,0,1,7.084,2.829C43.97,17.292,44.7,24.033,44.606,29a50.111,50.111,0,0,1-6.424,24.23,2.445,2.445,0,0,1-2.1,1.186,2.512,2.512,0,0,1-1.246-.337,2.45,2.45,0,0,1-.846-3.347A42.147,42.147,0,0,0,39.727,28.92c.093-5.694-1.008-9.964-3.079-12.031A4.952,4.952,0,0,0,32.99,15.46Z" transform="translate(10.416 5.272)" fill="#fff"/>
  </g>
</svg>
