<svg xmlns="http://www.w3.org/2000/svg" width="14.329" height="21.117" viewBox="0 0 14.329 21.117">
    <g data-name="그룹 57713" style="isolation:isolate">
        <path data-name="패스 45841" d="M956.132 573.463c2.2.087 4.5-.7 4.5-3.192a2.9 2.9 0 0 0-3.162-2.871c-2.291 0-3.423 2.06-3.364 4.148h-3.307c.174-3.944 2.64-6.9 6.729-6.9 3.162 0 6.411 1.827 6.411 5.423a4.285 4.285 0 0 1-2.872 4.352v.058c2.291.464 3.684 2.465 3.684 5.076 0 3.829-3.307 6.208-7.193 6.208-4.7 0-7.049-2.843-7.136-7.078h3.307c-.087 2.465 1.247 4.322 3.829 4.322 2.2 0 3.886-1.306 3.886-3.626 0-3.161-2.7-3.567-5.308-3.452z" style="fill:#fff" transform="translate(-950.418 -564.645)"/>
    </g>
</svg>
