<svg xmlns="http://www.w3.org/2000/svg" width="60" height="60" viewBox="0 0 60 60">
    <defs>
        <clipPath id="clip-path">
            <path id="사각형_16278" data-name="사각형 16278" class="cls-1" d="M0 0h49.329v49.617H0z"/>
        </clipPath>
        <style>
            .cls-1{fill:none}
        </style>
    </defs>
    <g id="그룹_62660" data-name="그룹 62660" transform="translate(21388 21701)">
        <path id="사각형_785" data-name="사각형 785" class="cls-1" transform="translate(-21388 -21701)" d="M0 0h60v60H0z"/>
        <g id="그룹_62675" data-name="그룹 62675" transform="translate(-21380.531 -21693.807)">
            <g id="그룹_62677" data-name="그룹 62677" transform="translate(-2 -2)" style="clip-path:url(#clip-path)">
                <path id="패스_47903" data-name="패스 47903" d="M42.854 22.213V7.633A3.454 3.454 0 0 0 39.4 4.182h-4.444V1.649A1.65 1.65 0 0 0 33.308 0h-4.026a1.651 1.651 0 0 0-1.649 1.649v2.533H15.22V1.649A1.651 1.651 0 0 0 13.571 0H9.543a1.651 1.651 0 0 0-1.649 1.649v2.533H3.451A3.454 3.454 0 0 0 0 7.633V40.58a3.454 3.454 0 0 0 3.451 3.45h19.14a15.04 15.04 0 0 0 26.738-9.451 15.022 15.022 0 0 0-6.475-12.363M29.116 1.654a.164.164 0 0 1 .164-.164h4.028a.165.165 0 0 1 .165.164v5.433a.165.165 0 0 1-.165.164H29.28a.164.164 0 0 1-.164-.164V1.654zm-19.738 0a.165.165 0 0 1 .165-.164h4.028a.164.164 0 0 1 .164.164v5.433a.164.164 0 0 1-.164.164H9.543a.165.165 0 0 1-.165-.164V1.654zM3.451 5.963h4.443v1.128a1.65 1.65 0 0 0 1.649 1.648h4.028a1.65 1.65 0 0 0 1.649-1.652V5.963h12.413v1.128a1.65 1.65 0 0 0 1.649 1.649h4.026a1.65 1.65 0 0 0 1.649-1.652V5.964H39.4a1.671 1.671 0 0 1 1.67 1.669v6.524H1.782V7.632a1.671 1.671 0 0 1 1.67-1.669m0 36.286a1.671 1.671 0 0 1-1.67-1.67V15.938h39.29v5.213a15.041 15.041 0 0 0-19.722 21.1zm30.835 5.882a13.558 13.558 0 0 1 0-27.117v.007a13.555 13.555 0 1 1 0 27.11"/>
                <path id="패스_47904" data-name="패스 47904" d="m178.782 153.3-5.706-3.575v-6.775a1.039 1.039 0 1 0-2.078 0v7.35a1.04 1.04 0 0 0 .488.881l6.193 3.873a1.032 1.032 0 0 0 .55.159v.009a1.039 1.039 0 0 0 .552-1.92" transform="translate(-137.918 -114.458)"/>
            </g>
        </g>
    </g>
</svg>
