<svg xmlns="http://www.w3.org/2000/svg" width="60" height="60" viewBox="0 0 60 60">
    <defs>
        <clipPath id="clip-path">
            <path id="사각형_16265" data-name="사각형 16265" class="cls-1" d="M0 0h49.206v43.327H0z"/>
        </clipPath>
        <style>
            .cls-1{fill:none}
        </style>
    </defs>
    <g id="그룹_62654" data-name="그룹 62654" transform="translate(-136 -554.5)">
        <path id="사각형_780" data-name="사각형 780" class="cls-1" transform="translate(136 554.5)" d="M0 0h60v60H0z"/>
        <g id="그룹_62673" data-name="그룹 62673" transform="translate(141.703 562.875)">
            <path id="사각형_16264" data-name="사각형 16264" transform="translate(33.759 13.925)" d="M0 0h8.36v1.988H0z"/>
            <g id="그룹_62674" data-name="그룹 62674">
                <g id="그룹_62673-2" data-name="그룹 62673" style="clip-path:url(#clip-path)">
                    <path id="패스_47879" data-name="패스 47879" d="M44.119 7.026h-12.26a1.486 1.486 0 0 1-1.309-.786l-2.042-4.2A3.649 3.649 0 0 0 25.17 0H14.348a3.717 3.717 0 0 0-3.337 2.017l-2.034 4.19a1.5 1.5 0 0 1-1.331.818H5.052A5.057 5.057 0 0 0 0 12.014v26.334a5.054 5.054 0 0 0 5.046 4.979h39.109a5.054 5.054 0 0 0 5.051-4.989V12.005a5.076 5.076 0 0 0-5.087-4.979m2.857 31.334a2.855 2.855 0 0 1-2.849 2.816H5.074a2.853 2.853 0 0 1-2.842-2.816V12.005A2.854 2.854 0 0 1 5.08 9.179h2.562a3.621 3.621 0 0 0 3.337-2.017l2.037-4.193a1.523 1.523 0 0 1 1.343-.816h10.8a1.555 1.555 0 0 1 1.317.781l2.044 4.209a3.626 3.626 0 0 0 3.338 2.034h12.253a2.854 2.854 0 0 1 2.865 2.816z"/>
                    <path id="패스_47880" data-name="패스 47880" d="M19.526 12.673h-.018a11.461 11.461 0 0 0-.02 22.922h.02a11.461 11.461 0 0 0 .018-22.922m0 20.935h-.017A9.474 9.474 0 0 1 19.5 14.66h.015a9.474 9.474 0 0 1 .017 18.948"/>
                </g>
            </g>
        </g>
    </g>
</svg>
