<svg xmlns="http://www.w3.org/2000/svg" width="60.566" height="60" viewBox="0 0 60.566 60">
    <defs>
        <clipPath id="clip-path">
            <path id="사각형_16257" data-name="사각형 16257" class="cls-1" d="M0 0h60.564v60H0z"/>
        </clipPath>
        <clipPath id="clip-path-2">
            <path id="사각형_16262" data-name="사각형 16262" class="cls-1" d="M0 0h42.81v53.395H0z"/>
        </clipPath>
        <style>
            .cls-1{fill:none}
        </style>
    </defs>
    <g id="그룹_62659" data-name="그룹 62659" transform="translate(-132 -910)">
        <g id="그룹_62654" data-name="그룹 62654" transform="translate(6.566 402)">
            <path id="사각형_787" data-name="사각형 787" class="cls-1" transform="translate(126 508)" d="M0 0h60v60H0z"/>
            <g id="그룹_62635" data-name="그룹 62635" transform="translate(125.434 508)">
                <g id="그룹_62635-2" data-name="그룹 62635" style="clip-path:url(#clip-path)">
                    <path id="패스_47845" data-name="패스 47845" d="M58.887 49.277a.476.476 0 0 0 .125-.008.461.461 0 0 0-.064-.141l-.02-.033-6.582-15.026" style="fill:#fff"/>
                </g>
            </g>
        </g>
        <g id="그룹_62655" data-name="그룹 62655" transform="translate(141 913)">
            <g id="그룹_62655-2" data-name="그룹 62655" style="clip-path:url(#clip-path-2)">
                <path id="패스_47870" data-name="패스 47870" d="M30.677 0c.22.2.45.382.658.59l10.8 10.785a2.089 2.089 0 0 1 .674 1.606q-.024 19.483-.013 38.967a3.536 3.536 0 0 1-.021.624.9.9 0 0 1-.873.814c-.156.012-.312.008-.469.008H1.374c-.156 0-.313 0-.469-.008a.9.9 0 0 1-.877-.811 2.754 2.754 0 0 1-.021-.519q0-25.37-.007-50.74A1.393 1.393 0 0 1 .559 0zM1.919 26.626V50.75c0 .794 0 .795.8.795h37.359c.806 0 .807 0 .807-.789V25.381c0-3.786-.008-7.573.009-11.359 0-.491-.131-.674-.644-.657-1.093.035-2.188.011-3.282.011h-6.513c-.632 0-.96-.24-1.063-.774a4.446 4.446 0 0 1-.066-.828q-.007-4.585 0-9.17c0-.787 0-.788-.81-.788H2.721c-.8 0-.8 0-.8.793v24.02m37.518-15.1-8.186-8.187a1.546 1.546 0 0 0-.019.195c0 2.5.006 5-.008 7.5 0 .408.167.494.531.492 1.771-.012 3.543-.005 5.315-.005h2.366"/>
                <path id="패스_47871" data-name="패스 47871" d="M48.129 174.846H35.261c-.9 0-1.371-.314-1.386-.912-.016-.626.48-1 1.381-1h25.788c.9 0 1.4.366 1.387.992-.012.6-.488.917-1.382.917h-12.92" transform="translate(-26.75 -136.567)"/>
                <path id="패스_47872" data-name="패스 47872" d="M135.919 102.281a1.722 1.722 0 0 1-.349.775c-.905 1.358-1.8 2.723-2.723 4.07a.666.666 0 0 0 0 .88c.9 1.317 1.78 2.653 2.664 3.983a4 4 0 0 1 .3.49.915.915 0 0 1-.307 1.193.93.93 0 0 1-1.259-.214c-.334-.443-.629-.915-.938-1.377q-.753-1.126-1.5-2.254c-.371-.556-.372-.556-.731-.02-.723 1.083-1.443 2.168-2.169 3.249a2.626 2.626 0 0 1-.42.527.873.873 0 0 1-1.15.065.829.829 0 0 1-.326-1.054 3.253 3.253 0 0 1 .323-.591c.843-1.274 1.673-2.558 2.549-3.809a.908.908 0 0 0 .016-1.234c-.894-1.259-1.728-2.562-2.581-3.85a3.132 3.132 0 0 1-.3-.545.825.825 0 0 1 .343-1.088.871.871 0 0 1 1.148.1 3.182 3.182 0 0 1 .417.53c.745 1.11 1.493 2.218 2.222 3.339.215.331.341.356.568.007.775-1.194 1.577-2.371 2.361-3.559a1.037 1.037 0 0 1 1.031-.564.917.917 0 0 1 .816.951" transform="translate(-100.238 -80.001)"/>
                <path id="패스_47873" data-name="패스 47873" d="M76.287 112.823a1.907 1.907 0 0 1 .148-.683l3.307-9.923a1.318 1.318 0 0 1 .559-.844c.571-.312 1.151-.044 1.405.7.553 1.608 1.084 3.223 1.622 4.835q.865 2.592 1.725 5.185a3.377 3.377 0 0 1 .153.55.93.93 0 0 1-.639 1.1.9.9 0 0 1-1.134-.585c-.276-.711-.5-1.441-.746-2.164-.261-.775-.26-.776-1.074-.776-.642 0-1.286.027-1.926-.009a.688.688 0 0 0-.821.575c-.224.783-.5 1.553-.769 2.321a.884.884 0 0 1-.793.657.911.911 0 0 1-.863-.376.834.834 0 0 1-.155-.564m4.515-7.478-.11.01-.883 2.646c-.071.213-.076.374.225.369q.725-.012 1.45 0c.262 0 .287-.131.22-.332l-.9-2.692" transform="translate(-60.243 -79.953)"/>
                <path id="패스_47874" data-name="패스 47874" d="M37.4 107.981c0-1.475-.011-2.951.007-4.426.005-.42-.117-.6-.56-.575-.641.03-1.284.017-1.926 0a.978.978 0 0 1-1.046-.88.957.957 0 0 1 .936-.988 13.161 13.161 0 0 1 1.4-.036q2.551-.005 5.1 0a3.782 3.782 0 0 1 .774.07.918.918 0 0 1-.134 1.823c-.693.029-1.389.034-2.082.007-.438-.017-.564.146-.562.57.014 2.9.007 5.8.007 8.695a1.985 1.985 0 0 1-.1.82.876.876 0 0 1-.9.571.847.847 0 0 1-.816-.615 2.3 2.3 0 0 1-.1-.77v-4.269" transform="translate(-26.749 -79.82)"/>
                <path id="패스_47875" data-name="패스 47875" d="M41.491 200.383c-2.185 0-4.37.008-6.556 0-.852 0-1.317-.739-.91-1.4a.949.949 0 0 1 .883-.446h12.748a5.625 5.625 0 0 1 .572.011.935.935 0 0 1 .849.9.91.91 0 0 1-.874.922c-.884.027-1.769.014-2.653.015h-4.058z" transform="translate(-26.752 -156.781)"/>
            </g>
        </g>
    </g>
</svg>
