<svg xmlns="http://www.w3.org/2000/svg" width="60" height="57.965" viewBox="0 0 60 57.965">
    <defs>
        <style>
            .cls-1{fill:none}.cls-3{fill:#222}.cls-4{fill:#4e4e4e}
        </style>
    </defs>
    <g id="그룹_62646" data-name="그룹 62646" transform="translate(-532 -1208)">
        <g id="그룹_62618" data-name="그룹 62618" transform="translate(198 168)">
            <g id="그룹_55792" data-name="그룹 55792" transform="translate(334 1040)">
                <path id="사각형_3332" data-name="사각형 3332" class="cls-1" d="M0 0h59.999v57.965H0z"/>
            </g>
            <g id="그룹_55791" data-name="그룹 55791" transform="translate(345.779 1043.539)">
                <g id="그룹_55777" data-name="그룹 55777">
                    <path id="패스_36789" data-name="패스 36789" d="M759.243 150.5h-36.386a.516.516 0 0 1-.505-.527v-50.2a.516.516 0 0 1 .505-.527h36.386a.517.517 0 0 1 .505.527v50.2a.516.516 0 0 1-.505.527zm-35.881-1.055h35.376v-49.139h-35.376z" transform="translate(-722.352 -99.251)" style="stroke:#222;stroke-width:.7px;fill:#222"/>
                </g>
                <g id="그룹_55780" data-name="그룹 55780" transform="translate(29.121 18.785)">
                    <path id="패스_36792" data-name="패스 36792" class="cls-3" d="M782.662 154.145h-2.137a.509.509 0 0 1 0-1.018h2.137a.509.509 0 0 1 0 1.018z" transform="translate(-780.02 -153.127)"/>
                </g>
                <g id="그룹_55781" data-name="그룹 55781" transform="translate(17.396 18.785)">
                    <path id="패스_36793" data-name="패스 36793" class="cls-3" d="M766.1 154.145h-8.79a.509.509 0 0 1 0-1.018h8.79a.509.509 0 0 1 0 1.018z" transform="translate(-756.801 -153.127)"/>
                </g>
                <g id="그룹_55782" data-name="그룹 55782" transform="translate(4.711 18.785)">
                    <path id="패스_36794" data-name="패스 36794" class="cls-3" d="M741.308 154.145h-9.122a.509.509 0 0 1 0-1.018h9.122a.509.509 0 0 1 0 1.018z" transform="translate(-731.681 -153.127)"/>
                </g>
                <g id="그룹_55783" data-name="그룹 55783" transform="translate(4.711 14.508)">
                    <path id="패스_36795" data-name="패스 36795" class="cls-3" d="M758.733 146.043h-26.547a.509.509 0 0 1 0-1.018h26.547a.509.509 0 0 1 0 1.018z" transform="translate(-731.681 -145.025)"/>
                </g>
                <g id="그룹_55784" data-name="그룹 55784" transform="translate(4.711 10.232)">
                    <path id="패스_36796" data-name="패스 36796" class="cls-3" d="M758.733 137.941h-26.547a.509.509 0 0 1 0-1.018h26.547a.509.509 0 0 1 0 1.018z" transform="translate(-731.681 -136.923)"/>
                </g>
                <g id="그룹_55787" data-name="그룹 55787" transform="translate(4.745 45.055)">
                    <path id="패스_36798" data-name="패스 36798" class="cls-4" d="M731.748 184.255h12.029v.132h-12.029v-.13z" transform="translate(-731.748 -184.255)"/>
                </g>
                <g id="그룹_55788" data-name="그룹 55788" transform="translate(4.641 37.777)">
                    <path id="패스_36799" data-name="패스 36799" class="cls-1" d="M738.46 180.173c.515.1 3.864-2.17 4.566-2.465a.162.162 0 0 1 .16.019.165.165 0 0 1 .059.153 6.425 6.425 0 0 1-2 2.686c1.477-.626 3.1-1.3 4.394-1.929a32.788 32.788 0 0 1 2.618-2.067.16.16 0 0 1 .146.161c0 .688-1.075 1.429-2.553 2.17l-.237.195a21.638 21.638 0 0 1-2.722 2.067c-.031.015-.134.069-.148.107a.26.26 0 0 0 .13.115 12.382 12.382 0 0 1 3.1.255c.2.035 1.85.23 1.8.593-.039.282-.8.187-.98.175-.586-.03-1.18-.1-1.762-.183a8.716 8.716 0 0 1-2.18-.516c-.4.046-.692.157-.759.367-.137.436.7 1.265.973 1.533.329.317.675.612 1.025.9.117.1.577.4.453.6a.169.169 0 0 1-.131.077c-.3.023-1.37.13-2.278.21-.2.019-.4.038-.571.049-.49.038-.845.046-.853-.069-.022-.264.367-.229.891-.275 1.505-.134 1.092-.107 2.45-.21-.1-.088-.219-.18-.277-.23a20.258 20.258 0 0 1-.931-.826c-.4-.386-1.254-1.242-1.056-1.865a.9.9 0 0 1 .708-.524.3.3 0 0 1-.068-.175c-.006-.191.167-.321.32-.4a18.688 18.688 0 0 0 1.838-1.38c-1.328.592-2.8 1.177-4.061 1.719-.482.409-3.4 2.839-3.778 2.37-.209-.264.5-.895.648-1.044a12 12 0 0 1 2.922-1.574l.039-.034a10.813 10.813 0 0 0 2.475-2.779c-.614.317-1.348.826-1.888 1.15-.368.222-2.343 1.517-2.728 1.089a.389.389 0 0 1-.039-.4c.078-.237.442-1.376.131-1.567-.591-.363-2.844 1.884-3.032 2.488a.157.157 0 0 1-.2.107.164.164 0 0 1-.106-.2c.421-1.364 4.923-4.979 3.51-.726a.65.65 0 0 0-.018.076zm5.477 1.533a23.746 23.746 0 0 0 2.664.378c-.3-.061-.585-.107-.682-.126a18.4 18.4 0 0 0-1.982-.252zm-4.573.026a6.813 6.813 0 0 0-1.744 1.04c-.067.065-.3.3-.453.485a17.272 17.272 0 0 0 2.2-1.525z" transform="translate(-734.76 -176.367)"/>
                    <path id="패스_36800" data-name="패스 36800" d="M741.017 185.634c-.313 0-.537-.057-.557-.281a.374.374 0 0 1 .085-.278c.138-.161.384-.177.725-.2.083 0 .172-.011.265-.019l1.012-.092c.323-.029.471-.043.943-.079a19.243 19.243 0 0 1-.834-.745c-.581-.561-1.328-1.387-1.109-2.074a.962.962 0 0 1 .634-.59v-.041c-.006-.161.064-.4.429-.587a5.337 5.337 0 0 0 .581-.4c-.353.149-.708.3-1.057.442-.534.221-1.057.439-1.549.65-.917.777-3.051 2.516-3.779 2.455a.371.371 0 0 1-.232-.1l-.2.095.138-.168c-.236-.384.33-.925.639-1.222l.054-.052a11.219 11.219 0 0 1 2.955-1.6 15.136 15.136 0 0 0 2.043-2.073c-.2.124-.4.253-.593.375-.219.139-.427.273-.613.384l-.14.087c-1.69 1.049-2.512 1.328-2.84.964a.564.564 0 0 1-.08-.6c.284-.864.265-1.27.212-1.332 0 0-.059-.031-.244.04a7.023 7.023 0 0 0-2.487 2.339.357.357 0 0 1-.175.215.35.35 0 0 1-.277.025.368.368 0 0 1-.239-.455 6.026 6.026 0 0 1 3.19-2.848.756.756 0 0 1 .782.186c.272.306.273.9 0 1.8a27.592 27.592 0 0 0 2.627-1.479c.7-.426 1.3-.792 1.573-.905a.365.365 0 0 1 .356.042.372.372 0 0 1 .14.348 4.476 4.476 0 0 1-1.309 2.061c1.194-.5 2.408-1.021 3.42-1.517l.4-.337c2.088-1.713 2.185-1.762 2.319-1.75a.365.365 0 0 1 .331.364c0 .7-.822 1.426-2.665 2.35l-.2.171c-.132.108-.282.233-.443.367a21.562 21.562 0 0 1-1.99 1.535 13.914 13.914 0 0 1 2.626.273l.181.03c1.405.2 1.907.423 1.854.8-.061.444-.753.387-1.126.354h-.065c-.521-.027-1.1-.088-1.778-.185a9.06 9.06 0 0 1-2.185-.509c-.356.049-.51.144-.535.221-.017.053-.053.371.921 1.324.307.3.627.57 1.013.891l.065.051c.222.172.635.491.43.818a.37.37 0 0 1-.286.17c-.149.011-.485.043-.9.082s-.92.088-1.379.128c-.215.02-.4.039-.576.05s-.347.031-.501.031zm5.531-3.487.207.012.076.006a2.123 2.123 0 0 0 .641-.006 3.092 3.092 0 0 0-.89-.253zm-3.557-.621a5.143 5.143 0 0 0 .865.256l.034-.256a6.655 6.655 0 0 0-.899 0zm5.154-4.731c-.338.242-1.2.952-1.982 1.59l-.2.165c1.355-.709 2.079-1.293 2.182-1.75zm.013-.112z" transform="translate(-734.711 -176.32)"/>
                </g>
                <g id="그룹_55789" data-name="그룹 55789" transform="translate(20.451 45.06)">
                    <path id="패스_36801" data-name="패스 36801" class="cls-4" d="M762.85 184.264h12.03v.132h-12.03v-.13z" transform="translate(-762.85 -184.264)"/>
                </g>
                <g id="그룹_55790" data-name="그룹 55790" transform="translate(21.635 37.777)">
                    <path id="패스_36802" data-name="패스 36802" d="M763.846 172.518a4.62 4.62 0 1 1 3.873 5.305 4.623 4.623 0 0 1-3.873-5.305zm.348.054a4.268 4.268 0 1 1 3.578 4.9 4.273 4.273 0 0 1-3.578-4.9zm.489.075a3.773 3.773 0 1 1 3.164 4.331 3.778 3.778 0 0 1-3.164-4.331zm.174.027a3.6 3.6 0 1 1 3.016 4.13 3.6 3.6 0 0 1-3.016-4.13zm3.126.067-.037-.025a1.54 1.54 0 0 1-.1-.129c.042.038.08.075.114.11l.021.044zm-.221-.133a4.694 4.694 0 0 0-.176-.094 3.99 3.99 0 0 1-.216-.285c.106.068.2.135.292.2.033.062.067.121.1.177zm-.324-.163a4.102 4.102 0 0 0-.335-.135l-.091-.1c-.088-.1-.17-.2-.243-.3a6.267 6.267 0 0 1 .461.238c.068.106.137.206.207.3zm-.469-.183h-.005a5.57 5.57 0 0 0-.494-.144 2.577 2.577 0 0 1-.347-.422 2.607 2.607 0 0 1 .519.158c.1.131.2.266.32.4l.007.008zm-.631-.174a3.391 3.391 0 0 0-.525-.071c-.077-.106-.105-.2-.072-.258s.123-.087.253-.079a3.473 3.473 0 0 0 .344.408zm-.671-.071c-.2.011-.337.061-.368.154s.046.214.2.345c-.2.046-.321.119-.336.214s.082.206.259.308c-.186.077-.3.17-.294.268s.116.187.309.256c-.171.11-.262.221-.243.318s.146.163.348.2c-.15.137-.22.264-.185.355s.173.133.377.133c-.123.162-.172.3-.121.383s.194.1.394.064c-.094.183-.118.325-.054.4s.208.068.4 0c-.061.194-.06.339.016.4s.217.029.392-.073c-.026.2 0 .343.085.391s.219-.008.374-.142c.01.2.059.339.151.37s.214-.046.344-.2c.045.2.117.325.213.339s.2-.083.3-.262c.078.189.171.3.268.3s.185-.118.254-.312c.109.173.219.264.315.245s.162-.148.2-.352c.138.152.262.223.352.187s.134-.174.134-.381c.16.125.3.175.378.123s.1-.2.066-.4c.18.094.321.119.394.054s.067-.21 0-.4c.193.062.337.06.4-.017s.03-.216-.073-.4c.2.027.342 0 .388-.085s-.008-.221-.141-.377c.2-.011.337-.06.368-.152s-.046-.216-.2-.348c.2-.044.321-.117.336-.214s-.083-.2-.26-.306c.187-.079.3-.173.294-.271s-.116-.185-.308-.256c.17-.11.262-.221.243-.316s-.147-.165-.348-.2c.149-.137.22-.262.184-.354s-.172-.135-.377-.135c.124-.162.172-.3.121-.381s-.193-.1-.394-.067c.093-.181.118-.325.054-.4s-.208-.067-.4 0c.061-.2.059-.339-.016-.4s-.216-.029-.392.075c.026-.2 0-.346-.084-.393s-.219.008-.374.141c-.009-.2-.059-.339-.151-.37s-.214.045-.344.2c-.045-.2-.116-.323-.212-.339s-.2.085-.3.262c-.078-.187-.17-.3-.268-.3s-.185.117-.254.31c-.109-.173-.219-.264-.315-.246s-.162.15-.2.352c-.137-.15-.262-.223-.352-.188s-.134.175-.134.381c-.16-.125-.3-.173-.378-.123s-.1.2-.066.4c-.18-.094-.321-.119-.394-.054s-.067.21 0 .4c-.193-.06-.336-.06-.4.017s-.029.219.074.4c-.2-.027-.342 0-.388.085s.008.221.14.377zm-.049.589a3.257 3.257 0 0 0 .461.266 3.4 3.4 0 0 0-.517.114c-.108-.073-.166-.15-.155-.219s.087-.125.212-.162zm.584.322c.147.067.307.129.475.187h.01-.005a5.369 5.369 0 0 0-.5.125 2.72 2.72 0 0 1-.51-.191 2.578 2.578 0 0 1 .529-.125zm.622.235c.119.035.237.069.35.1a4.152 4.152 0 0 0-.343.113l-.134-.019a5.37 5.37 0 0 1-.377-.073c.119-.035.245-.066.377-.094l.128-.023zm.508.129a3 3 0 0 0 .2.035c-.059.022-.12.05-.184.077-.11 0-.23-.006-.355-.017.119-.038.233-.071.34-.1zm.408.058a.348.348 0 0 0 .048 0 .381.381 0 0 0-.04.021 1.64 1.64 0 0 1-.16.019c.053-.016.1-.031.152-.044zm.138-.566a1.83 1.83 0 0 0-.13-.09 1.485 1.485 0 0 0 .119.11l.04.019-.028-.039zm-.342-.21c-.1-.05-.206-.1-.322-.148.089.09.177.173.261.244.067.019.13.039.19.06-.043-.05-.086-.1-.13-.156zm-.473-.206-.123-.043a4.939 4.939 0 0 0-.373-.11c.089.085.186.17.29.254.036.029.071.058.107.083.123.023.241.048.353.077a5.261 5.261 0 0 1-.255-.26zm-.631-.185a2.52 2.52 0 0 0-.539-.064 2.689 2.689 0 0 0 .415.356c.162.008.334.027.511.054h.005l-.008-.006a5.745 5.745 0 0 1-.384-.339zm-.668-.058c-.129.017-.214.057-.235.123s.021.152.115.244a3.126 3.126 0 0 1 .529-.023 3.141 3.141 0 0 1-.409-.344zm-.022.452a2.571 2.571 0 0 0 .47.276 5.42 5.42 0 0 1 .513-.035h.005l-.009-.006a5.024 5.024 0 0 1-.437-.266 2.664 2.664 0 0 0-.542.031zm.6.335c.113.048.233.1.359.137l.129.044c.123-.023.243-.039.358-.052a5.647 5.647 0 0 1-.328-.156h-.13c-.135 0-.265.012-.388.025zm.644.225c.121.034.239.061.347.079.067-.017.131-.031.194-.044a9.154 9.154 0 0 1-.189-.068c-.11 0-.228.016-.352.033zm.586.113c.057 0 .112.006.162.008l.042-.012-.046-.012a1.53 1.53 0 0 0-.158.017zm.5-.577-.033-.029a3.274 3.274 0 0 1-.074-.146c.035.044.065.087.093.129a.381.381 0 0 0 .014.045zm-.195-.17c-.049-.04-.1-.081-.158-.121-.055-.1-.11-.2-.163-.318.092.083.177.168.252.249.022.067.046.129.069.189zm-.292-.214c-.1-.064-.2-.131-.306-.194l-.072-.116a5.044 5.044 0 0 1-.187-.337 5.08 5.08 0 0 1 .412.314c.049.117.1.229.152.333zm-.43-.264a5.446 5.446 0 0 0-.462-.227 2.692 2.692 0 0 1-.269-.479 2.6 2.6 0 0 1 .485.248c.07.146.152.3.245.451l.006.008zm-.591-.281a3.308 3.308 0 0 0-.505-.162c-.057-.119-.07-.212-.026-.266s.137-.064.263-.035a3.368 3.368 0 0 0 .268.464zm-.14.812c.1.067.213.135.33.2.04.023.08.044.119.065.125 0 .246 0 .361.012-.1-.064-.2-.135-.3-.21l-.129-.023a5.603 5.603 0 0 0-.386-.042zm.6.335c.113.052.224.1.328.137.068 0 .134-.008.2-.008a5.73 5.73 0 0 1-.174-.1 3.428 3.428 0 0 0-.352-.027zm.558.212c.055.015.109.027.157.035a.31.31 0 0 1 .045 0l-.045-.021c-.048 0-.1-.008-.157-.011zm.592-.479-.026-.037a1.66 1.66 0 0 1-.047-.154c.026.05.049.1.069.141v.05zm-.162-.2c-.042-.048-.087-.1-.134-.146a4.412 4.412 0 0 1-.106-.344c.077.1.146.2.206.291.01.068.022.135.035.2zm-.25-.262a5.026 5.026 0 0 0-.269-.243c-.017-.042-.035-.083-.051-.127a4.987 4.987 0 0 1-.126-.366 4.332 4.332 0 0 1 .353.383c.028.123.059.242.093.354zm-.379-.335a4.483 4.483 0 0 0-.416-.3 2.672 2.672 0 0 1-.183-.518 2.677 2.677 0 0 1 .435.329c.044.156.1.321.165.487v.01zm-.533-.381a3.259 3.259 0 0 0-.47-.248c-.036-.127-.032-.22.021-.268s.145-.038.265.012a3.27 3.27 0 0 0 .184.5zm.252 1.209c.1.073.2.137.3.193.068.006.134.015.2.025-.051-.039-.1-.083-.155-.129a4.203 4.203 0 0 0-.341-.089zm.513.306c.052.025.1.046.148.064a.3.3 0 0 1 .044 0l-.04-.027c-.047-.015-.1-.027-.152-.04zm.665-.366c-.006-.015-.013-.027-.02-.042a1.585 1.585 0 0 1-.02-.16c.017.054.032.1.043.152v.05zm-.124-.229a8.6 8.6 0 0 0-.107-.169 3.56 3.56 0 0 1-.045-.356c.058.113.109.221.152.323v.2zm-.2-.3q-.1-.143-.222-.287a5.584 5.584 0 0 1-.09-.516c.073.1.145.208.215.325l.067.112c.006.127.016.25.03.366zm-.315-.4a6.111 6.111 0 0 0-.356-.372 2.648 2.648 0 0 1-.091-.541 2.652 2.652 0 0 1 .372.4c.017.16.042.331.078.508v.011zm-.46-.468a3.217 3.217 0 0 0-.42-.325c-.013-.133.008-.225.067-.262s.15-.013.259.06a3.385 3.385 0 0 0 .095.526zm.492 1.627c.047.033.092.062.136.087l.043.011-.035-.034a1.523 1.523 0 0 0-.144-.064zm.719-.246c0-.015-.009-.029-.013-.044 0-.05 0-.1.008-.163.008.057.013.109.016.159l-.011.048zm-.083-.248a3.301 3.301 0 0 0-.077-.183c0-.113.005-.233.017-.358a3.9 3.9 0 0 1 .094.344 3.987 3.987 0 0 0-.034.2zm-.146-.333c-.05-.1-.107-.212-.169-.32 0-.046 0-.091-.005-.137 0-.133 0-.264.006-.387.054.113.107.231.156.358l.045.123a6.223 6.223 0 0 0-.033.364zm-.242-.445a5.862 5.862 0 0 0-.287-.431 2.734 2.734 0 0 1 0-.549 2.689 2.689 0 0 1 .3.46c-.011.162-.015.335-.011.514v.011zm-.372-.541a3.363 3.363 0 0 0-.358-.4c.009-.131.046-.219.11-.246s.15.015.245.1a3.461 3.461 0 0 0 0 .537zm.955 1.571c0-.015 0-.029-.005-.044.009-.05.021-.1.036-.158 0 .057-.006.108-.011.158l-.019.044zm-.04-.256a6.901 6.901 0 0 0-.043-.2c.019-.11.045-.227.078-.35.017.125.028.244.033.354a4.05 4.05 0 0 0-.067.192zm-.086-.354a6.277 6.277 0 0 0-.111-.347l.018-.135c.02-.133.045-.26.073-.381a4.84 4.84 0 0 1 .115.51c-.037.121-.069.239-.1.354zm-.162-.481v-.006a5.802 5.802 0 0 0-.209-.472.286.286 0 1 1 .312-.038 5.596 5.596 0 0 0-.1.506v.01zm-.273-.6a3.246 3.246 0 0 0-.285-.451c.032-.127.083-.208.151-.223s.145.039.223.146a3.337 3.337 0 0 0-.089.528zm.669 1.715v-.044c.018-.048.039-.1.063-.15a1.928 1.928 0 0 1-.038.154c-.01.013-.018.027-.027.04zm.005-.26c0-.062 0-.131-.009-.2.038-.1.084-.216.137-.331 0 .125-.014.245-.028.355-.036.06-.069.119-.1.175zm-.024-.364a5.947 5.947 0 0 0-.05-.36 6.303 6.303 0 0 1 .179-.491c.013.123.021.254.025.389v.131q-.086.172-.154.331zm-.077-.5a5.221 5.221 0 0 0-.124-.5 2.727 2.727 0 0 1 .189-.516 2.675 2.675 0 0 1 .124.535 5.903 5.903 0 0 0-.185.478v.011zm-.166-.637a3.364 3.364 0 0 0-.2-.495c.053-.121.117-.189.187-.192s.136.064.2.181a3.285 3.285 0 0 0-.18.506zm.364 1.806.01-.044c.025-.044.054-.09.088-.137a2.05 2.05 0 0 1-.064.146l-.033.035zm.049-.254c.01-.064.018-.131.025-.2.055-.1.12-.2.192-.3a4.324 4.324 0 0 1-.088.345c-.046.052-.089.1-.129.156zm.039-.364c.008-.115.013-.238.013-.364l.063-.121c.064-.117.131-.229.2-.331a5.238 5.238 0 0 1-.042.387l-.021.131c-.076.1-.146.2-.21.3zm.011-.508v-.006a4.43 4.43 0 0 0-.036-.516 2.724 2.724 0 0 1 .275-.474 2.679 2.679 0 0 1 .03.547c-.09.135-.179.283-.264.441l-.005.008zm-.054-.657a3.238 3.238 0 0 0-.114-.52c.073-.11.148-.169.217-.158s.123.087.161.214a3.275 3.275 0 0 0-.264.464zm.048 1.843.018-.042c.032-.037.069-.077.11-.118-.03.048-.06.091-.089.133l-.039.027zm.092-.242c.021-.06.041-.125.059-.191.071-.086.152-.175.241-.264-.047.117-.1.225-.146.325a3.505 3.505 0 0 0-.154.131zm.1-.351a4.74 4.74 0 0 0 .074-.356l.084-.108c.083-.1.168-.2.252-.291-.03.121-.066.245-.109.374l-.044.125a5.653 5.653 0 0 0-.257.256zm.1-.5v-.007c.027-.179.045-.351.054-.514a2.582 2.582 0 0 1 .352-.418 2.679 2.679 0 0 1-.065.543 5.1 5.1 0 0 0-.336.387l-.007.008zm.06-.657a3.349 3.349 0 0 0-.023-.533c.091-.1.175-.139.241-.116s.106.108.122.237a3.513 3.513 0 0 0-.339.412zm-.271 1.824.024-.038c.039-.033.082-.064.129-.1a2.02 2.02 0 0 1-.11.114.324.324 0 0 0-.043.021zm.133-.223c.031-.056.061-.117.091-.179.085-.071.179-.143.282-.216-.066.106-.134.2-.2.293-.06.033-.118.068-.173.1zm.16-.327c.047-.106.092-.221.135-.337l.1-.094c.1-.087.2-.171.3-.244-.05.115-.108.231-.172.352-.021.038-.042.077-.064.114-.1.066-.2.137-.3.208zm.183-.474q.085-.259.142-.5a2.633 2.633 0 0 1 .419-.349 2.638 2.638 0 0 1-.157.524c-.13.1-.264.2-.4.323l-.008.006zm.172-.637a3.384 3.384 0 0 0 .07-.529c.105-.077.2-.106.257-.073s.086.125.079.256a3.408 3.408 0 0 0-.4.345zm-.581 1.75.031-.034c.043-.025.092-.05.143-.075a2.165 2.165 0 0 1-.127.094l-.047.015zm.17-.2c.039-.05.08-.1.12-.16.1-.057.2-.11.315-.164a3.344 3.344 0 0 1-.248.254 2.55 2.55 0 0 0-.188.071zm.214-.3c.064-.1.128-.2.191-.308l.114-.073c.115-.071.227-.133.336-.189-.069.1-.146.21-.23.316a2.938 2.938 0 0 1-.083.1 4.82 4.82 0 0 0-.329.152zm.261-.432v-.007a5.18 5.18 0 0 0 .225-.466 2.688 2.688 0 0 1 .474-.271 2.732 2.732 0 0 1-.245.489c-.145.071-.3.154-.447.247l-.009.007zm.279-.6a3.425 3.425 0 0 0 .159-.51c.118-.058.211-.071.266-.025s.063.137.034.265a3.18 3.18 0 0 0-.459.27zm-.879 1.631.036-.027c.047-.016.1-.033.155-.048a1.478 1.478 0 0 1-.143.068l-.047.007zm.2-.165c.048-.041.1-.087.146-.135.1-.038.218-.075.339-.106-.1.077-.2.146-.289.206l-.2.035zm.26-.252c.081-.083.162-.175.242-.27l.125-.052c.124-.048.246-.091.363-.127a4.298 4.298 0 0 1-.381.355q-.184.044-.351.094zm.332-.383a4.965 4.965 0 0 0 .3-.418 2.608 2.608 0 0 1 .513-.185 2.621 2.621 0 0 1-.326.439c-.154.045-.317.1-.483.166h-.01zm.378-.536a3.391 3.391 0 0 0 .245-.475c.126-.035.22-.031.266.021s.038.148-.013.268a3.2 3.2 0 0 0-.5.185zm-1.139 1.442.04-.019c.049-.008.1-.016.161-.021a2.54 2.54 0 0 1-.152.044h-.048zm.226-.125c.054-.033.11-.068.167-.108.109-.019.228-.035.353-.045-.11.058-.218.11-.319.154h-.2zm.3-.2a4.89 4.89 0 0 0 .284-.225c.044-.01.088-.021.133-.029.131-.027.258-.048.38-.062-.1.075-.208.148-.323.219l-.112.067a4.48 4.48 0 0 0-.362.031zm.392-.318c.134-.121.258-.241.37-.36a2.6 2.6 0 0 1 .537-.092 2.723 2.723 0 0 1-.4.375 5.01 5.01 0 0 0-.5.079h-.011zm.465-.464a3.379 3.379 0 0 0 .322-.425c.131-.012.222.006.258.067s.013.152-.058.262a3.127 3.127 0 0 0-.523.1zm-1.37 1.221.042-.012a1.493 1.493 0 0 1 .161.008c-.056.006-.108.012-.157.015a.339.339 0 0 1-.046-.011zm.244-.085c.059-.023.12-.048.183-.077.111 0 .23.006.355.017a6.472 6.472 0 0 1-.341.1 3 3 0 0 0-.2-.035zm.331-.146c.1-.052.21-.108.318-.17.045 0 .091 0 .136-.006.133 0 .262 0 .384.006a5.19 5.19 0 0 1-.356.158l-.122.046a4.859 4.859 0 0 0-.361-.034zm.441-.245h.005c.152-.094.3-.192.426-.289a2.61 2.61 0 0 1 .545 0 2.468 2.468 0 0 1-.455.3 5.646 5.646 0 0 0-.51-.011zm.538-.374a3.276 3.276 0 0 0 .391-.362c.13.011.217.046.243.113s-.014.152-.1.248a3.057 3.057 0 0 0-.532 0zm-1.559.963.044-.006c.049.01.1.021.158.037-.056 0-.109-.006-.158-.012l-.044-.019zm.255-.04.193-.045c.109.021.226.045.347.079a3.88 3.88 0 0 1-.352.033 3.103 3.103 0 0 0-.189-.067zm.352-.087a6.25 6.25 0 0 0 .343-.114l.134.019q.2.031.378.075a5.632 5.632 0 0 1-.377.092l-.128.025c-.12-.038-.237-.068-.349-.1zm.476-.164h.005c.167-.065.325-.137.47-.21a2.515 2.515 0 0 1 .535.1 2.631 2.631 0 0 1-.5.214 5.523 5.523 0 0 0-.5-.1h-.011zm.594-.275a3.339 3.339 0 0 0 .447-.287c.127.031.206.083.22.152s-.039.146-.143.225a3.255 3.255 0 0 0-.524-.09zm-1.7.674h.044a1.484 1.484 0 0 1 .149.063c-.055-.013-.106-.025-.153-.04a.447.447 0 0 1-.04-.027zm.257.006c.064 0 .13 0 .2-.011.1.04.214.086.328.14a4.475 4.475 0 0 1-.352-.029l-.174-.1zm.36-.025c.115-.012.235-.029.358-.05l.128.042c.127.043.247.089.359.139a5.166 5.166 0 0 1-.388.025h-.13q-.168-.087-.329-.156zm.5-.077h.005c.176-.038.344-.079.5-.127a2.707 2.707 0 0 1 .511.191 2.566 2.566 0 0 1-.529.125 5.61 5.61 0 0 0-.475-.185h-.01zm.632-.166a3.24 3.24 0 0 0 .49-.206c.12.054.189.118.19.189s-.064.137-.18.2a3.414 3.414 0 0 0-.5-.179zm-1.792.366a.348.348 0 0 0 .043.01c.043.025.088.056.136.09-.052-.023-.1-.044-.144-.067l-.035-.033zm.253.049c.063.011.129.019.2.025.1.056.2.121.3.193a4.146 4.146 0 0 1-.342-.087 2.107 2.107 0 0 0-.155-.131zm.36.04c.115.008.236.012.361.012l.12.064c.117.065.228.131.33.2a4.27 4.27 0 0 1-.386-.044l-.128-.021c-.1-.077-.2-.148-.3-.212zm.5.012h.006a6.17 6.17 0 0 0 .513-.038 2.711 2.711 0 0 1 .47.279 2.649 2.649 0 0 1-.542.029 5.351 5.351 0 0 0-.436-.266h-.01zm.652-.054a3.186 3.186 0 0 0 .518-.117c.108.075.166.15.155.219s-.087.125-.211.162a3.229 3.229 0 0 0-.461-.264zm-1.828.048a.359.359 0 0 1 .041.017c.039.033.078.071.119.11a1.283 1.283 0 0 1-.131-.09l-.029-.038zm.24.094c.06.019.124.04.19.058.085.073.173.154.261.243-.116-.048-.223-.1-.322-.147a3.498 3.498 0 0 0-.13-.154zm.348.1c.112.029.23.054.353.077l.107.083c.1.083.2.169.29.254a4.385 4.385 0 0 1-.372-.11c-.042-.015-.083-.027-.123-.044a6.314 6.314 0 0 0-.255-.26zm.494.1c.178.027.349.044.511.054a2.593 2.593 0 0 1 .415.355 2.688 2.688 0 0 1-.539-.066 5.476 5.476 0 0 0-.384-.339l-.007-.006zm.651.06a3.17 3.17 0 0 0 .529-.023c.094.092.138.177.115.244s-.106.106-.236.123a3.53 3.53 0 0 0-.409-.343zm-1.809-.272.038.025q.048.06.1.131a2.41 2.41 0 0 1-.113-.112.902.902 0 0 0-.022-.044zm.221.135c.056.031.115.061.176.092.071.085.144.181.216.285-.106-.067-.2-.135-.292-.2a3.41 3.41 0 0 0-.1-.175zm.325.16c.105.048.217.094.334.137.03.031.06.067.091.1.088.1.17.2.243.3a4.34 4.34 0 0 1-.348-.174l-.113-.063a4.871 4.871 0 0 0-.207-.3zm.469.185h.005c.17.058.336.106.494.143a2.663 2.663 0 0 1 .346.425 2.775 2.775 0 0 1-.519-.16 5.165 5.165 0 0 0-.319-.4l-.007-.008zm.631.173a3.189 3.189 0 0 0 .525.071c.077.106.105.2.072.258s-.124.087-.253.081a3.278 3.278 0 0 0-.344-.41zm-1.733-.585.032.031c.025.044.049.092.074.144a1.584 1.584 0 0 1-.093-.129l-.013-.046zm.194.171c.05.039.1.081.158.121q.084.147.164.318a3.418 3.418 0 0 1-.252-.249 4.039 4.039 0 0 0-.069-.189zm.291.216c.1.064.2.129.307.191.024.038.049.077.072.117.069.114.132.229.187.339a5.598 5.598 0 0 1-.312-.233c-.034-.027-.068-.054-.1-.083a5.424 5.424 0 0 0-.152-.331zm.431.262c.158.085.313.162.462.227a2.683 2.683 0 0 1 .269.476 2.614 2.614 0 0 1-.485-.248c-.07-.146-.153-.3-.246-.449l-.006-.01zm.591.283a3.454 3.454 0 0 0 .505.16c.057.119.069.212.026.268s-.137.062-.263.033a3.339 3.339 0 0 0-.268-.462zm-1.606-.88.026.035c.017.048.032.1.047.156-.026-.05-.049-.1-.069-.143v-.048zm.161.2c.042.048.087.1.135.148.038.1.074.219.106.341-.077-.1-.146-.2-.205-.289a3.149 3.149 0 0 0-.036-.2zm.25.264c.083.079.172.16.268.241l.051.127c.049.125.09.249.125.366a4.332 4.332 0 0 1-.352-.383 5.895 5.895 0 0 0-.093-.351zm.378.333c.141.112.28.216.416.3a2.7 2.7 0 0 1 .183.518 2.7 2.7 0 0 1-.435-.329 5.944 5.944 0 0 0-.164-.487v-.01zm.534.381a3.22 3.22 0 0 0 .47.248c.036.127.032.223-.021.268s-.146.04-.265-.012a3.49 3.49 0 0 0-.184-.5zm-1.43-1.146.02.039c.008.05.015.1.02.163a1.66 1.66 0 0 1-.043-.154v-.048zm.124.227c.033.056.069.113.107.169.02.11.035.229.045.356a3.545 3.545 0 0 1-.151-.323v-.2zm.2.3q.1.14.222.287c.01.044.02.087.029.133.026.131.046.26.06.383-.072-.1-.145-.21-.215-.327l-.066-.112a5.624 5.624 0 0 0-.031-.364zm.316.4c.119.135.239.262.356.372a2.661 2.661 0 0 1 .091.541 2.539 2.539 0 0 1-.371-.4 5.714 5.714 0 0 0-.078-.51v-.01zm.46.468a3.4 3.4 0 0 0 .421.326c.014.131-.007.223-.067.26s-.15.013-.258-.058a3.434 3.434 0 0 0-.1-.528zm-1.211-1.382c0 .015.009.029.013.044 0 .05 0 .106-.008.162a2.49 2.49 0 0 1-.016-.158c0-.015.008-.031.011-.048zm.084.248a3.4 3.4 0 0 0 .076.183c0 .113-.005.233-.017.36q-.057-.181-.094-.343c.014-.069.025-.135.035-.2zm.145.333c.051.1.108.212.17.322v.135c0 .135 0 .264-.006.387a4.135 4.135 0 0 1-.156-.358c-.016-.042-.031-.081-.045-.123.015-.125.026-.248.032-.364zm.242.445a5.176 5.176 0 0 0 .287.431 2.76 2.76 0 0 1 0 .549 2.66 2.66 0 0 1-.3-.46c.011-.16.015-.333.011-.514v-.01zm.373.543a3.468 3.468 0 0 0 .358.393c-.009.131-.045.219-.11.245s-.15-.015-.245-.1a3.356 3.356 0 0 0 0-.534zm-.954-1.573v.044c-.009.05-.021.1-.036.16 0-.058.006-.11.011-.16l.02-.044zm.039.256c.013.064.027.129.044.2-.019.11-.045.229-.078.351a4.045 4.045 0 0 1-.033-.355 3.17 3.17 0 0 0 .067-.192zm.087.356c.032.11.069.227.112.345-.005.044-.012.09-.019.135q-.03.2-.073.381a4.848 4.848 0 0 1-.092-.381l-.024-.129c.037-.121.069-.239.1-.351zm.162.48c.066.168.136.329.209.474a.286.286 0 1 1-.311.035 5.74 5.74 0 0 0 .1-.5v-.011zm.273.6a3.238 3.238 0 0 0 .285.45c-.032.129-.082.208-.151.223s-.145-.039-.223-.144a3.334 3.334 0 0 0 .089-.529zm-.669-1.716v.046c-.018.045-.038.1-.063.15a2.22 2.22 0 0 1 .039-.156l.027-.039zm-.005.26c0 .064 0 .131.009.2a3.486 3.486 0 0 1-.137.331c0-.125.014-.245.028-.355.036-.061.07-.117.1-.175zm.024.364c.013.115.03.235.051.36l-.041.131q-.064.19-.137.362a4.79 4.79 0 0 1-.025-.391v-.131c.057-.113.109-.225.154-.331zm.077.5v.006c.036.177.077.345.124.5a2.623 2.623 0 0 1-.189.516 2.688 2.688 0 0 1-.124-.533c.065-.15.127-.31.184-.48v-.011zm.166.638a3.337 3.337 0 0 0 .2.493c-.053.121-.117.192-.187.192s-.136-.064-.2-.181a3.289 3.289 0 0 0 .179-.5zm-.364-1.808-.01.044a1.3 1.3 0 0 1-.088.137c.021-.052.043-.1.064-.146a.53.53 0 0 0 .033-.035zm-.049.256c-.01.062-.019.129-.026.2a3.146 3.146 0 0 1-.192.3c.026-.123.057-.237.089-.343a6.58 6.58 0 0 0 .129-.156zm-.039.362a5.289 5.289 0 0 0-.012.364l-.063.121a3.91 3.91 0 0 1-.2.333c.008-.125.023-.256.043-.389.006-.044.014-.087.021-.129.076-.1.146-.2.209-.3zm-.011.507v.006c0 .181.017.354.036.516a2.607 2.607 0 0 1-.275.474 2.717 2.717 0 0 1-.03-.547c.09-.133.179-.281.264-.439l.006-.011zm.053.657a3.422 3.422 0 0 0 .114.522c-.073.108-.148.166-.217.156s-.123-.087-.161-.212a3.465 3.465 0 0 0 .263-.466zm-.048-1.843-.018.042a1.486 1.486 0 0 1-.11.118c.029-.048.06-.091.089-.131l.039-.029zm-.093.244c-.021.06-.04.125-.059.189a3.777 3.777 0 0 1-.24.264c.046-.117.1-.225.146-.324.054-.044.106-.087.153-.129zm-.1.349a5.298 5.298 0 0 0-.074.356l-.083.108c-.084.1-.168.2-.252.293.029-.121.066-.247.109-.377.015-.041.028-.083.043-.122.092-.087.178-.173.258-.258zm-.1.5v.006a5.49 5.49 0 0 0-.054.516 2.719 2.719 0 0 1-.353.418 2.669 2.669 0 0 1 .065-.545c.112-.117.225-.245.336-.387l.007-.008zm-.06.657a3.37 3.37 0 0 0 .024.535c-.091.094-.175.137-.241.114s-.106-.106-.122-.237a3.322 3.322 0 0 0 .339-.412zm.271-1.824-.024.038a1.61 1.61 0 0 1-.129.1 1.39 1.39 0 0 1 .11-.114l.043-.023zm-.133.223c-.03.056-.061.117-.091.179-.085.071-.18.146-.283.219.067-.108.134-.206.2-.3.061-.033.119-.067.173-.1zm-.159.327a5.7 5.7 0 0 0-.135.339c-.032.031-.066.06-.1.091-.1.09-.2.171-.3.244a5.11 5.11 0 0 1 .236-.464c.106-.069.205-.14.3-.21zm-.182.474v.006a5.81 5.81 0 0 0-.143.5 2.52 2.52 0 0 1-.418.349 2.62 2.62 0 0 1 .157-.522c.13-.1.264-.2.4-.323l.008-.008zm-.173.637a3.442 3.442 0 0 0-.069.531c-.105.077-.2.1-.257.071s-.086-.125-.078-.256a3.332 3.332 0 0 0 .4-.345zm.581-1.748-.031.031c-.043.025-.091.05-.143.075.044-.035.087-.066.128-.094l.046-.012zm-.17.2c-.04.05-.08.1-.12.158-.1.056-.2.112-.316.164.084-.091.167-.177.248-.253a5.54 5.54 0 0 0 .188-.069zm-.213.293c-.065.1-.129.2-.191.308-.038.025-.076.05-.115.073a4.663 4.663 0 0 1-.336.189c.069-.1.146-.21.23-.316l.083-.1c.116-.05.226-.1.329-.154zm-.261.435a5.18 5.18 0 0 0-.225.466 2.581 2.581 0 0 1-.473.27 2.666 2.666 0 0 1 .245-.487c.144-.073.295-.156.447-.249h.01zm-.28.6a3.321 3.321 0 0 0-.159.51c-.117.058-.211.071-.266.027s-.063-.137-.033-.266a3.2 3.2 0 0 0 .459-.27zm.873-1.621a.308.308 0 0 1-.035.027 1.285 1.285 0 0 1-.155.048l.142-.069.048-.006zm-.2.164c-.048.042-.1.087-.146.136a3.51 3.51 0 0 1-.34.108c.1-.077.2-.148.288-.208.068-.01.134-.023.2-.035zm-.261.252a5.41 5.41 0 0 0-.241.27c-.041.019-.083.035-.126.052-.124.05-.246.091-.363.127a4.87 4.87 0 0 1 .281-.27c.033-.029.066-.058.1-.085.123-.027.24-.06.351-.094zm-.332.382a5.436 5.436 0 0 0-.3.418 2.615 2.615 0 0 1-.513.185 2.671 2.671 0 0 1 .325-.439c.155-.044.317-.1.483-.164h.01zm-.379.537a3.507 3.507 0 0 0-.245.475c-.126.037-.22.033-.266-.021s-.039-.145.012-.266a3.212 3.212 0 0 0 .5-.187zm.913-1.317c-.054.033-.11.071-.167.108a3.322 3.322 0 0 1-.353.045c.111-.058.218-.11.32-.152h.2zm-.3.2a5.36 5.36 0 0 0-.284.225c-.044.008-.088.019-.133.027a4.77 4.77 0 0 1-.38.063c.1-.073.208-.146.324-.219l.112-.067c.125-.006.247-.016.361-.029zm-.393.318a6.394 6.394 0 0 0-.37.36 2.561 2.561 0 0 1-.537.091 2.724 2.724 0 0 1 .4-.374c.16-.016.33-.042.5-.077h.01zm-.465.462a3.511 3.511 0 0 0-.322.425c-.13.015-.222-.007-.259-.067s-.013-.152.058-.26a3.2 3.2 0 0 0 .523-.1zm.8-.988c-.1.05-.21.108-.319.171h-.135c-.134 0-.262 0-.384-.006a5.199 5.199 0 0 1 .478-.201c.124.015.246.025.361.033zm-.442.243c-.153.1-.3.193-.426.291a2.747 2.747 0 0 1-.545 0 2.623 2.623 0 0 1 .454-.3c.161.01.332.015.511.01zm-.537.375a3.207 3.207 0 0 0-.391.362c-.13-.01-.217-.045-.243-.112s.014-.15.1-.246a3.317 3.317 0 0 0 .532 0zm.476-.672h-.005a6.11 6.11 0 0 0-.47.21 2.543 2.543 0 0 1-.535-.1 2.6 2.6 0 0 1 .5-.216c.156.039.324.073.5.1h.011zm-.594.276a3.011 3.011 0 0 0-.447.287c-.127-.034-.207-.086-.221-.154s.039-.146.143-.225a3.43 3.43 0 0 0 .524.091zm-.048-.411a3.068 3.068 0 0 0-.49.2c-.119-.054-.189-.118-.19-.189s.064-.137.18-.2a3.421 3.421 0 0 0 .5.181z" transform="translate(-763.793 -168.559)" style="fill-rule:evenodd"/>
                </g>
            </g>
        </g>
    </g>
</svg>
