<svg xmlns="http://www.w3.org/2000/svg" width="60" height="60" viewBox="0 0 60 60">
    <defs>
        <clipPath id="clip-path">
            <path id="사각형_16279" data-name="사각형 16279" class="cls-1" d="M0 0h55.12v49.549H0z"/>
        </clipPath>
        <style>
            .cls-1{fill:none}
        </style>
    </defs>
    <g id="그룹_62658" data-name="그룹 62658" transform="translate(-131 -1208)">
        <path id="사각형_11383" data-name="사각형 11383" class="cls-1" transform="translate(131 1208)" d="M0 0h60v60H0z"/>
        <g id="그룹_62678" data-name="그룹 62678" transform="translate(133.441 1215.254)">
            <g id="그룹_62678-2" data-name="그룹 62678" style="clip-path:url(#clip-path)">
                <path id="패스_47905" data-name="패스 47905" d="M54.906 20.539a2.064 2.064 0 0 0-1.773-.471h-5.341v-.343a2.4 2.4 0 0 0-2.392-2.389h-.7a2.223 2.223 0 0 0-.038-3.1L31.312.879a2.276 2.276 0 0 0-3.142 0L15.8 13.244H9.017a.541.541 0 0 0-.429.214l-2.925 3.873H2.545a.539.539 0 0 0-.088.007A2.4 2.4 0 0 0 .25 19.72v27.565a2.4 2.4 0 0 0 2.389 2.395H45.4a2.389 2.389 0 0 0 1.927-.983.537.537 0 0 0 .189-.276l.018-.061a2.379 2.379 0 0 0 .245-.847l7.325-25.284a1.66 1.66 0 0 0-.2-1.689M28.85 1.559a1.251 1.251 0 0 1 .891-.37 1.251 1.251 0 0 1 .891.37l13.354 13.35a1.259 1.259 0 0 1 0 1.781l-.637.637-4.67-.015-9.458-10.138a.464.464 0 0 0-.042-.045.48.48 0 0 0-.656.7l8.841 9.481-4.679-.01-6.132-6.3-.028-.028a.481.481 0 1 0-.662.7l5.478 5.627H27.35l-3.542-3.879a.538.538 0 0 0-.4-.176h-6.243zm17.865 18.518v27.208A1.318 1.318 0 0 1 45.4 48.6H2.639a1.315 1.315 0 0 1-1.313-1.313V19.72a1.315 1.315 0 0 1 1.313-1.313l.017-.005h3.232a.53.53 0 0 0 .468-.208v-.006l2.923-3.873h13.892l3.542 3.875a.538.538 0 0 0 .4.175l15.168.035h3.122a1.315 1.315 0 0 1 1.313 1.313zm7.368 1.84-6.291 21.694v-22.47l5.447-.008c.232-.044.725-.042.869.121.085.1.075.339-.025.663" transform="translate(-.19 -.19)"/>
                <path id="패스_47906" data-name="패스 47906" d="M54.906 20.539a2.064 2.064 0 0 0-1.773-.471h-5.341v-.343a2.4 2.4 0 0 0-2.392-2.389h-.7a2.223 2.223 0 0 0-.038-3.1L31.312.879a2.276 2.276 0 0 0-3.142 0L15.8 13.244H9.017a.541.541 0 0 0-.429.214l-2.925 3.873H2.545a.539.539 0 0 0-.088.007A2.4 2.4 0 0 0 .25 19.72v27.565a2.4 2.4 0 0 0 2.389 2.395H45.4a2.389 2.389 0 0 0 1.927-.983.537.537 0 0 0 .189-.276l.018-.061a2.379 2.379 0 0 0 .245-.847l7.325-25.284a1.66 1.66 0 0 0-.198-1.69zM28.85 1.559a1.251 1.251 0 0 1 .891-.37 1.251 1.251 0 0 1 .891.37l13.354 13.35a1.259 1.259 0 0 1 0 1.781l-.637.637-4.67-.015-9.458-10.138a.464.464 0 0 0-.042-.045.48.48 0 0 0-.656.7l8.841 9.481-4.679-.01-6.132-6.3-.028-.028a.481.481 0 1 0-.662.7l5.478 5.627H27.35l-3.542-3.879a.538.538 0 0 0-.4-.176h-6.243zm17.865 18.518v27.208A1.318 1.318 0 0 1 45.4 48.6H2.639a1.315 1.315 0 0 1-1.313-1.313V19.72a1.315 1.315 0 0 1 1.313-1.313l.017-.005h3.232a.53.53 0 0 0 .468-.208v-.006l2.923-3.873h13.892l3.542 3.875a.538.538 0 0 0 .4.175l15.168.035h3.122a1.315 1.315 0 0 1 1.313 1.313zm7.368 1.84-6.291 21.694v-22.47l5.447-.008c.232-.044.725-.042.869.121.085.095.075.339-.025.663z" transform="translate(-.19 -.19)" style="stroke:#000;stroke-width:.5px;fill:none"/>
            </g>
        </g>
    </g>
</svg>
