<svg xmlns="http://www.w3.org/2000/svg" width="60" height="60" viewBox="0 0 60 60">
    <defs>
        <clipPath id="a">
            <path data-name="사각형 16249" transform="translate(137.305 272.053)" d="M0 0h60v60H0z"/>
        </clipPath>
        <clipPath id="b">
            <path data-name="사각형 16248" style="fill:none" d="M0 0h46.555v47.005H0z"/>
        </clipPath>
    </defs>
    <g data-name="마스크 그룹 28" transform="translate(-137.305 -272.053)" style="clip-path:url(#a)">
        <g data-name="그룹 62652">
            <g data-name="그룹 62651" style="clip-path:url(#b)" transform="translate(144.027 278.551)">
                <path data-name="패스 47829" d="M35.407 31.461a.6.6 0 0 0-.849 0L23.214 42.805 11.873 31.47a.6.6 0 0 0-.851 0L.611 41.877a.6.6 0 0 0 0 .847l1.43 1.431a.6.6 0 0 0 .846 0l8.558-8.565 11.239 11.239a.6.6 0 0 0 .848 0l.068-.066 2.891-2.675 8.492-8.5 8.559 8.561a.6.6 0 0 0 .846 0l1.431-1.429a.6.6 0 0 0 0-.847z"/>
                <path data-name="패스 47830" d="M20.03 4.672h-8.448V1.118A1.116 1.116 0 0 0 10.549 0a1.09 1.09 0 0 0-.808.269 1.1 1.1 0 0 0-.377.711v3.7H.972a1.093 1.093 0 0 0 .1 2.179H4.84L3.4 9.744a8.992 8.992 0 0 0-.216.466 7.91 7.91 0 1 0 14.575 0 4.21 4.21 0 0 0-.2-.43l-1.54-2.93h4.117a1.091 1.091 0 1 0-.111-2.18m-9.552 14.047a5.421 5.421 0 1 1 5.421-5.417 5.429 5.429 0 0 1-5.424 5.417"/>
                <path data-name="패스 47831" d="M45.4.986H30.786a1.15 1.15 0 0 0 0 2.3h12.993v5.981H30.786a1.151 1.151 0 0 0-1.15 1.15v8.762a1.151 1.151 0 0 0 1.15 1.15l14.618.006a1.15 1.15 0 1 0 0-2.3H32.411v-6.468l12.385.012a1.1 1.1 0 0 0 .128.007h.476a1.151 1.151 0 0 0 1.15-1.15v-8.3A1.151 1.151 0 0 0 45.4.986"/>
            </g>
        </g>
    </g>
</svg>
