<svg id="삼성카드" xmlns="http://www.w3.org/2000/svg" xmlns:xlink="http://www.w3.org/1999/xlink" width="88" height="88" viewBox="0 0 88 88">
  <defs>
    <clipPath id="clip-path">
      <rect id="사각형_16750" data-name="사각형 16750" width="88" height="88" fill="none"/>
    </clipPath>
  </defs>
  <g id="그룹_65186" data-name="그룹 65186" transform="translate(0 0)" clip-path="url(#clip-path)">
    <path id="패스_50296" data-name="패스 50296" d="M88,44A44,44,0,1,1,44,0,44,44,0,0,1,88,44" transform="translate(0 0)" fill="#004897"/>
    <path id="패스_50297" data-name="패스 50297" d="M36.68,29.346V36.5H32.4V17.555H36.68v7.388h3.708v4.4Zm-9.1,6.47A18.354,18.354,0,0,1,23.9,33.27a15.678,15.678,0,0,1-3.2-3.848,14.362,14.362,0,0,1-2.805,4.059,22.013,22.013,0,0,1-3.74,3.1L11.071,33.1a15.1,15.1,0,0,0,5.1-4.477,10.175,10.175,0,0,0,2.272-6.16v-4.1h4.55v4.1a9,9,0,0,0,2.317,5.893,12.094,12.094,0,0,0,4.839,3.714Zm-11.128,2.3H36.677V50.86H16.455Zm15.983,4.4h-11.7v3.94h11.7Z" transform="translate(5.51 8.737)" fill="#fff"/>
    <path id="패스_50298" data-name="패스 50298" d="M51.782,37.192V27.814H46.265V23.337h5.517V17.555h4.283V37.192Zm-5.606-1.3a19.644,19.644,0,0,1-3.665-2.546A15.293,15.293,0,0,1,39.289,29.5a14.622,14.622,0,0,1-2.781,4.059,20.305,20.305,0,0,1-3.753,3.1l-3.079-3.482a15.112,15.112,0,0,0,5.1-4.478,10.194,10.194,0,0,0,2.275-6.16V18.25h4.59v4.288a9.01,9.01,0,0,0,2.32,5.9A12.074,12.074,0,0,0,48.8,32.145Zm7.571,13.8A17.8,17.8,0,0,1,37.5,49.71a5.87,5.87,0,0,1-2.982-5.091A5.944,5.944,0,0,1,37.5,39.529a14.444,14.444,0,0,1,8.1-1.98,14.639,14.639,0,0,1,8.122,1.98,5.826,5.826,0,0,1,.021,10.18ZM50.216,42.4a10.9,10.9,0,0,0-4.566-.845,11.554,11.554,0,0,0-4.506.783q-1.856.784-1.853,2.164,0,1.3,1.853,2.238a9.9,9.9,0,0,0,4.506.939,10.694,10.694,0,0,0,4.566-.861q1.833-.863,1.835-2.163Q52.048,43.236,50.216,42.4Z" transform="translate(14.768 8.737)" fill="#fff"/>
  </g>
</svg>
