<svg xmlns="http://www.w3.org/2000/svg" width="50" height="50"><defs><style>.cls-2{fill:#362322}.cls-3{fill:#1bd9ac}.cls-4{fill:#ffa4b1;opacity:.53}</style></defs><g id="그룹_57899" data-name="그룹 57899" transform="translate(-5474.65 -45.401)"><g id="그룹_57891" data-name="그룹 57891" transform="translate(5474.65 56.469)"><path id="패스_45875" data-name="패스 45875" d="M5518.963 122.224c6.644 5.293 10.948 14.626 9.374 20.578-.852 3.221-2.46 6.155-9.239 8.5a72.327 72.327 0 0 1-26.813 3.112c-5.232-.422-9.782-3.075-10.99-7.147-2.77-9.331 3.76-22.382 14.418-27.281 7.965-3.656 16.708-2.974 23.25 2.238z" transform="translate(-5479.655 -116.688)" style="fill:#fff"/><path id="패스_45876" data-name="패스 45876" class="cls-2" d="M5513.26 117.952a25.514 25.514 0 0 1 2.568 2.359q.594.624 1.147 1.284.278.33.544.668l.264.34c.152.2-.13-.175.018.023l.128.172a28.739 28.739 0 0 1 1.891 2.917q.41.726.777 1.477.18.37.349.744l.164.373.08.186c.08.186-.079-.2 0 .007a22.889 22.889 0 0 1 1 3.031q.179.719.3 1.451c.02.119.038.238.055.357.01.069.028.286 0-.033l.021.177c.027.232.049.466.066.7a13.224 13.224 0 0 1 .024 1.412 12.078 12.078 0 0 1-.074.921c-.023.2.039-.262.008-.059-.011.07-.02.139-.032.209a12.081 12.081 0 0 1-.563 2.1c-.057.158-.124.312-.18.47.129-.36.023-.055-.015.03s-.082.181-.125.27a9.172 9.172 0 0 1-.5.912q-.137.219-.287.429c-.054.076-.257.29-.021.035-.073.079-.135.173-.2.256a9.491 9.491 0 0 1-.806.862q-.231.218-.474.421c-.062.052-.37.279-.1.084-.108.077-.21.162-.318.24a14.179 14.179 0 0 1-1.235.8 18.8 18.8 0 0 1-1.483.773q-.205.1-.413.188l-.213.093c.232-.1-.016.006-.053.021q-.456.191-.92.365a45.818 45.818 0 0 1-6.011 1.747q-1.767.4-3.553.711-.935.163-1.871.3l-.479.07-.241.034c-.273.039.215-.028-.059.008q-.49.065-.98.126a75.641 75.641 0 0 1-8.37.566q-2.193.024-4.384-.1a35.263 35.263 0 0 1-2.028-.156l-.222-.027c-.254-.03.224.034-.029 0-.146-.022-.292-.044-.437-.068q-.432-.073-.859-.168a16.141 16.141 0 0 1-1.651-.459q-.4-.134-.786-.289l-.191-.078c-.223-.09.2.092-.015-.006-.146-.065-.291-.13-.434-.2a12.771 12.771 0 0 1-1.4-.779q-.326-.211-.639-.443l-.128-.1c-.155-.119.031-.013.025.021 0-.034-.3-.251-.34-.285a9.664 9.664 0 0 1-1.044-1.062 3.034 3.034 0 0 0-.229-.286c.185.17.062.082.01.01-.036-.049-.07-.1-.105-.148q-.223-.322-.415-.665-.161-.288-.3-.59a1.644 1.644 0 0 0-.072-.165c.139.236.04.1.01.019a5.916 5.916 0 0 1-.142-.4 13 13 0 0 1-.339-1.3q-.07-.326-.125-.656-.028-.165-.052-.331c-.008-.055-.014-.111-.023-.167.018.108.028.223.007.047-.057-.469-.093-.94-.111-1.412a19.144 19.144 0 0 1 .105-2.784c.013-.118.027-.235.042-.353.027-.219-.036.253 0 .034l.025-.177q.052-.355.116-.709.135-.746.32-1.481a24.729 24.729 0 0 1 .9-2.834q.067-.176.137-.351l.071-.175c.084-.211-.092.218 0 .009l.3-.7q.33-.728.7-1.435a28.086 28.086 0 0 1 1.591-2.665q.219-.325.446-.643l.23-.317.078-.105.079-.1-.037.049a3.742 3.742 0 0 1 .485-.619q.268-.332.546-.656a27.446 27.446 0 0 1 2.191-2.277q.582-.538 1.194-1.04.154-.126.309-.249c.182-.145-.178.137.006 0l.157-.121q.341-.261.69-.51a24.246 24.246 0 0 1 2.7-1.67q.729-.387 1.483-.721l.223-.1.06-.025q.223-.093.447-.183.484-.193.974-.365a24.849 24.849 0 0 1 3.629-.982q.453-.086.91-.155c.076-.011.152-.025.228-.033a1.08 1.08 0 0 0-.037.006c.177-.022.354-.044.531-.063q.924-.1 1.853-.122t1.839.03c.274.016.546.037.819.063q.223.021.445.048l.222.027.148.019q-.212-.029-.044-.005a21.961 21.961 0 0 1 3.467.81q.424.138.842.295.209.078.417.161l.208.084.105.043a16.587 16.587 0 0 1 1.619.788q.765.415 1.5.895.384.252.757.521.188.135.373.275l.184.141c.032.025.238.188.043.033a1.077 1.077 0 0 0 .7.3 1 1 0 0 0 .7-.3 1.039 1.039 0 0 0 0-1.435 21.767 21.767 0 0 0-14.382-4.82 25.479 25.479 0 0 0-14.069 4.763 28.689 28.689 0 0 0-8.631 10.029 24.086 24.086 0 0 0-2.914 12.035 13.186 13.186 0 0 0 1.438 5.855 11.212 11.212 0 0 0 4.944 4.408 16.428 16.428 0 0 0 3.411 1.2 24.356 24.356 0 0 0 4.065.517 68.894 68.894 0 0 0 8.785-.063 71.857 71.857 0 0 0 15.1-2.553 27.536 27.536 0 0 0 6.5-2.659 11.656 11.656 0 0 0 4.036-3.836 11.855 11.855 0 0 0 1.554-4.3 15.493 15.493 0 0 0-.387-6.108 27.739 27.739 0 0 0-6.928-12.171 25.557 25.557 0 0 0-2.519-2.307 1.07 1.07 0 0 0-.7-.3 1 1 0 0 0-.7.3 1.04 1.04 0 0 0-.009 1.455z" transform="translate(-5474.65 -111.689)"/></g><g id="그룹_57896" data-name="그룹 57896" transform="translate(5495.44 45.401)"><g id="그룹_57893" data-name="그룹 57893"><g id="그룹_57892" data-name="그룹 57892"><path id="패스_45877" data-name="패스 45877" class="cls-3" d="M5607.59 62.258a2.553 2.553 0 0 1-2.3-1.915 11.845 11.845 0 0 1 1.125-8.59 3.144 3.144 0 0 1 2.037-1.83 2.355 2.355 0 0 1 2.326 1.392 5.409 5.409 0 0 1 .37 2.843 16.576 16.576 0 0 1-1.762 6.216c-.4.78-1.034 1.8-1.9 1.7" transform="translate(-5604.176 -49.149)"/><path id="패스_45878" data-name="패스 45878" class="cls-2" d="M5603.844 57.758h-.177c-.152-.006.011.008.024 0a.749.749 0 0 1-.285-.073c-.035-.012-.2-.095-.041-.013l-.107-.053a2.9 2.9 0 0 1-.306-.194c.121.085.034.027.008 0-.045-.042-.092-.081-.136-.124-.074-.072-.141-.149-.209-.227-.023-.028-.071-.113 0 .006-.033-.052-.071-.1-.1-.153a2.924 2.924 0 0 1-.15-.267c-.015-.031-.077-.213-.021-.043-.013-.038-.028-.075-.04-.113-.035-.105-.062-.213-.089-.321q-.1-.379-.162-.766a8.136 8.136 0 0 1-.077-.576q-.034-.355-.043-.711a11.393 11.393 0 0 1 .057-1.5c0-.047.01-.1.016-.142 0-.014.032-.249.009-.085.017-.119.035-.237.055-.355q.063-.372.148-.739a12.784 12.784 0 0 1 .418-1.412q.061-.169.126-.336l.053-.133c0-.009.1-.226.035-.085.1-.229.205-.456.318-.68.1-.188.193-.375.3-.556q.081-.136.169-.267c.035-.053.072-.1.108-.156.089-.131-.076.083.036-.048a4.489 4.489 0 0 1 .432-.444c.1-.092.014-.012-.009 0 .049-.035.1-.07.149-.1l.1-.061c.031-.02.222-.1.126-.064-.111.037.077-.022.08-.023.049-.015.1-.027.147-.037s.176-.009.013-.005c.04 0 .081-.006.121-.006.061 0 .121.008.182.006-.142 0-.073-.014-.021 0a3.249 3.249 0 0 1 .348.1c-.151-.052-.024-.01.016.01s.09.047.135.072.07.042.1.065.185.137.049.028a2.776 2.776 0 0 1 .231.209c.029.03.059.06.086.091l.082.095-.021-.029a3.031 3.031 0 0 1 .3.529c-.06-.139.026.08.029.089.016.045.031.091.044.137a4.126 4.126 0 0 1 .1.419c.011.059.02.119.03.178.022.135-.011-.177 0 .052.009.121.021.242.025.363.01.256.005.512-.008.768a13.3 13.3 0 0 1-.056.7q-.02.188-.043.376a.459.459 0 0 1-.014.1l-.034.224q-.122.765-.314 1.517a16.427 16.427 0 0 1-.52 1.659c-.048.13-.1.259-.149.388l-.086.21c.049-.118-.043.1-.043.1q-.174.4-.37.787c-.1.2-.208.4-.325.6-.061.1-.125.2-.192.3l-.069.1c.107-.149-.021.023-.046.053a2.635 2.635 0 0 1-.216.224l-.042.037c-.064.053-.055.047.025-.016-.021.035-.1.067-.133.086-.017.01-.145.1-.048.031.059-.023.057-.023 0 0a.906.906 0 0 1-.1.028c-.118.04.056-.035.05 0a.817.817 0 0 1-.208 0 .755.755 0 0 0-.752.751.771.771 0 0 0 .752.751c1.092.1 1.884-.876 2.368-1.726a15.966 15.966 0 0 0 1.34-3.183 17.527 17.527 0 0 0 .69-3.531 6.316 6.316 0 0 0-.453-3.448 3.183 3.183 0 0 0-2.672-1.785 3.315 3.315 0 0 0-2.7 1.738 11.7 11.7 0 0 0-1.322 2.977 12.958 12.958 0 0 0-.554 3.376 11.811 11.811 0 0 0 .119 1.978 6.891 6.891 0 0 0 .442 1.787 3.222 3.222 0 0 0 2.848 2 .751.751 0 1 0 0-1.5z" transform="translate(-5600.43 -45.401)"/></g><path id="패스_45879" data-name="패스 45879" class="cls-2" d="M5616.634 109.027q-.058-.074-.117-.146l-.038-.045-.017-.021c.036.047-.009-.022-.021-.034s.028.076.016.034.009.089.006.037v-.024c0 .013-.013.082 0 .026.006-.032.012-.063.016-.1a3.339 3.339 0 0 0 .038-.43 8.359 8.359 0 0 0-.037-.884.257.257 0 0 0-.25-.25.252.252 0 0 0-.25.25c.023.277.041.554.038.832 0 .083 0 .166-.011.249 0 .029 0 .059-.008.088v.033c0 .011.011-.074 0-.021a.555.555 0 0 0 .041.45c.075.106.164.2.244.305a.252.252 0 0 0 .354 0 .257.257 0 0 0 0-.354z" transform="translate(-5613.375 -96.876)"/></g><g id="그룹_57895" data-name="그룹 57895" transform="translate(3.594 1.481)"><g id="그룹_57894" data-name="그룹 57894"><path id="패스_45880" data-name="패스 45880" class="cls-3" d="M5626.5 68.48a10.254 10.254 0 0 1 3.546-8.775c.981-.823 2.51-1.431 3.469-.581a2.641 2.641 0 0 1 .7 1.961 8.163 8.163 0 0 1-7.007 8.01" transform="translate(-5625.696 -57.972)"/><path id="패스_45881" data-name="패스 45881" class="cls-2" d="M5623.507 64.779a9.769 9.769 0 0 1-.046-1.358q.012-.323.044-.645l.021-.193c.017-.146 0-.021 0 .007a8.25 8.25 0 0 1 .062-.383 10.294 10.294 0 0 1 .328-1.319c.066-.206.139-.409.216-.61l.073-.18c-.011.027-.059.132 0 0s.1-.237.161-.354a10.281 10.281 0 0 1 .665-1.185q.177-.271.37-.531l.078-.1c-.1.134.03-.036.042-.051.082-.1.165-.2.25-.3a9.671 9.671 0 0 1 .963-.958l.1-.084c.02-.016.181-.142.041-.036q.126-.095.258-.182a5.834 5.834 0 0 1 .613-.343c.028-.014.133-.054 0 0a3.784 3.784 0 0 1 .477-.156c.058-.014.352-.058.156-.038a2.578 2.578 0 0 1 .321-.015.428.428 0 0 1 .143.009c-.13-.065-.077-.012 0 0 .046.01.092.021.137.034.008 0 .182.064.069.02s.057.031.064.036c.042.023.082.053.124.076.093.05-.116-.12.013.011l.133.132c.133.131-.06-.118.033.043.025.045.055.087.08.132s.047.092.069.138c-.067-.142-.008-.016.006.024a2.977 2.977 0 0 1 .086.3q.018.078.032.157c.011.063.022.189.009.054a6.74 6.74 0 0 1 0 1.267c-.005.058-.013.116-.019.175v-.026a2.085 2.085 0 0 1-.048.288 7.468 7.468 0 0 1-.145.626q-.078.282-.178.557l-.1.273c-.072.185.066-.144-.015.036-.024.053-.047.107-.072.16a8.308 8.308 0 0 1-.6 1.076 9.45 9.45 0 0 1-.34.48 7.34 7.34 0 0 1-.33.392 8.541 8.541 0 0 1-.98.93c-.023.019-.181.139-.033.028l-.141.105q-.142.1-.289.2-.292.195-.6.364-.283.154-.576.285c-.03.013-.213.085-.036.016l-.163.064q-.164.063-.331.117a7.195 7.195 0 0 1-.676.187q-.172.039-.345.068l-.116.019q-.129.019.025 0l-.117.014a.77.77 0 0 0-.752.751c.017.369.333.8.752.751a8.647 8.647 0 0 0 5.074-2.455 8.867 8.867 0 0 0 2.576-4.878 5.6 5.6 0 0 0-.234-3.114 2.375 2.375 0 0 0-1.117-1.18 2.783 2.783 0 0 0-1.647-.207 5.307 5.307 0 0 0-2.73 1.505 10.723 10.723 0 0 0-1.888 2.37 10.945 10.945 0 0 0-1.507 6.604.769.769 0 0 0 .751.751.76.76 0 0 0 .752-.751z" transform="translate(-5621.952 -54.27)"/></g><path id="패스_45882" data-name="패스 45882" class="cls-2" d="M5633.239 101.567a4.128 4.128 0 0 1 1.722-2.885c.263-.183.013-.617-.253-.432a4.674 4.674 0 0 0-1.97 3.317.252.252 0 0 0 .25.25.256.256 0 0 0 .25-.25z" transform="translate(-5630.937 -90.869)"/></g></g><ellipse id="타원_1717" data-name="타원 1717" class="cls-4" cx="2.364" cy="2.318" rx="2.364" ry="2.318" transform="rotate(-7.453 3343.977 -42215.542)"/><ellipse id="타원_1718" data-name="타원 1718" class="cls-4" cx="2.477" cy="2.429" rx="2.477" ry="2.429" transform="rotate(-7.453 3337.64 -42092.081)"/><g id="그룹_57897" data-name="그룹 57897" transform="translate(5497 76.396)"><ellipse id="타원_1719" data-name="타원 1719" cx=".501" cy="1.503" rx=".501" ry="1.503" transform="rotate(-80.08 .587 .494)"/><path id="패스_45883" data-name="패스 45883" d="M5611.765 231.138a4.17 4.17 0 0 1-.711-.065c-.758-.132-1.527-.475-1.462-.849s.906-.435 1.663-.3 1.527.475 1.462.849c-.03.172-.226.291-.564.341a2.642 2.642 0 0 1-.388.024zm-1.22-1.115c-.475 0-.768.109-.789.23-.03.172.46.5 1.326.656a3.411 3.411 0 0 0 1.045.038c.294-.044.413-.135.425-.2.03-.172-.46-.5-1.327-.656a3.969 3.969 0 0 0-.68-.068z" transform="translate(-5609.588 -229.745)"/></g><path id="패스_45884" data-name="패스 45884" d="M5616.39 234.886a5.563 5.563 0 0 0-.274 2.288.257.257 0 0 0 .25.25.252.252 0 0 0 .25-.25 5.2 5.2 0 0 1 .256-2.155.25.25 0 1 0-.483-.133z" transform="translate(-118.005 -157.366)"/><path id="패스_45885" data-name="패스 45885" d="M5659.96 157.72c.046 0 .091.006.136.012l-.133-.018a1.788 1.788 0 0 1 .437.118l-.12-.05a1.909 1.909 0 0 1 .412.239l-.1-.078a1.9 1.9 0 0 1 .336.337l-.078-.1a1.769 1.769 0 0 1 .216.372l-.05-.12c.014.035.028.07.04.106a.536.536 0 0 0 .23.3.5.5 0 0 0 .736-.566 2.31 2.31 0 0 0-2.061-1.551.5.5 0 0 0-.5.5.512.512 0 0 0 .5.5z" transform="translate(-154.194 -92.54)"/><path id="패스_45886" data-name="패스 45886" d="M5579.081 155.074c.035-.092-.055.112-.011.024l.028-.058a1.327 1.327 0 0 1 .071-.121l.036-.052c.033-.05-.078.093-.023.031.03-.035.062-.071.094-.1s.069-.064.1-.1c.062-.055-.08.057-.03.023l.052-.037a1.973 1.973 0 0 1 .247-.139c.075-.037-.094.035-.036.015l.06-.022c.045-.016.091-.029.136-.041s.092-.02.138-.029c.084-.016-.106.009-.044.006l.063-.005h.205c.046 0 .109.029-.032-.006a2.648 2.648 0 0 1 .272.071.5.5 0 0 0 .617-.35.515.515 0 0 0-.35-.616 2.066 2.066 0 0 0-2.564 1.237.5.5 0 0 0 .35.616.516.516 0 0 0 .617-.35z" transform="translate(-86.306 -89.838)"/><path id="패스_45887" data-name="패스 45887" d="M5654.087 233.523a.8.8 0 0 1 .119-.073c.071-.035-.024 0-.027.011 0-.008.056-.019.064-.021s.043-.012.065-.016.083 0-.034 0c.046 0 .09-.006.136 0h.051c.064 0-.109-.019-.015 0a1.086 1.086 0 0 1 .118.029l.065.022c.089.033-.066-.033-.009 0 .036.018.073.036.108.057s.067.046.1.068c-.1-.067-.033-.025-.008 0s.035.031.051.048l.082.09c-.083-.088-.027-.035-.008-.007s.019.029.027.043.022.039.032.06c.042.084-.023-.072 0-.013a.912.912 0 0 1 .034.113c0 .016.016.094.005.017s0 0 0 .018c0 .041-.019.2 0 .056a.408.408 0 0 0 .037.29.376.376 0 0 0 .688-.09 1.175 1.175 0 0 0-.045-.611 1.4 1.4 0 0 0-.332-.509 1.489 1.489 0 0 0-1.051-.427 1.142 1.142 0 0 0-.634.2.406.406 0 0 0-.173.224.384.384 0 0 0 .038.29.379.379 0 0 0 .514.135z" transform="translate(-149.24 -155.682)"/><path id="패스_45888" data-name="패스 45888" d="M5646.939 215.493a3.21 3.21 0 0 0-3.89.974.5.5 0 0 0 .18.685.517.517 0 0 0 .686-.18c-.056.073.057-.064.078-.087.045-.049.093-.1.142-.141.027-.025.056-.049.084-.073s.1-.072.021-.018a2.655 2.655 0 0 1 .338-.212l.1-.05c.008 0 .092-.042.042-.02s.053-.02.064-.025l.084-.03a2.74 2.74 0 0 1 .457-.111c-.057.007.054 0 .066-.006a2.737 2.737 0 0 1 .4 0c.037 0 .073.007.11.01.08 0-.116-.022.021 0 .065.012.13.025.2.041s.128.035.191.057l.083.03c.137.05-.088-.042.044.02a.513.513 0 0 0 .686-.18.507.507 0 0 0-.18-.685z" transform="translate(-140.45 -141.159)"/><path id="패스_45889" data-name="패스 45889" d="M5590.207 235.53a3.225 3.225 0 0 0 4.835.758l-.607.078a5.288 5.288 0 0 0 6.617-.982 4.6 4.6 0 0 0 1.019-1.793.5.5 0 0 0-.966-.266 2.7 2.7 0 0 1-.275.668c-.056.1-.117.2-.181.3a4.718 4.718 0 0 1-.115.162l-.013.017c-.025.032-.052.064-.079.1a4.512 4.512 0 0 1-.548.543 2.175 2.175 0 0 1-.237.18 5.214 5.214 0 0 1-.361.228 4.4 4.4 0 0 1-1.385.523 4.67 4.67 0 0 1-1.445.055 4.573 4.573 0 0 1-.8-.206l-.094-.036c-.079-.032.006 0-.041-.018a2.33 2.33 0 0 1-.2-.1 3.919 3.919 0 0 1-.389-.234.509.509 0 0 0-.607.078 1.875 1.875 0 0 1-.792.417 1.529 1.529 0 0 1-.468.067h-.255c-.051 0-.1-.007-.153-.013.072.008-.016 0-.044-.007a2.271 2.271 0 0 1-.92-.344 1.539 1.539 0 0 1-.348-.285c-.029-.03-.058-.061-.085-.093s-.073-.089-.033-.036a2.205 2.205 0 0 1-.164-.257.5.5 0 0 0-.865.506z" transform="translate(-96.395 -155.919)"/><circle id="타원_1720" data-name="타원 1720" cx="1.503" cy="1.503" r="1.503" transform="translate(5490.908 73.067)"/></g></svg>