<svg xmlns="http://www.w3.org/2000/svg" width="60" height="60" viewBox="0 0 60 60">
    <g data-name="그룹 62619">
        <path data-name="사각형 3285" style="fill:none" d="M0 0h60v60H0z"/>
        <g data-name="그룹 62620">
            <path data-name="패스 47880" d="M509.373 18.195a9.1 9.1 0 1 1-9.1 9.1 9.1 9.1 0 0 1 9.1-9.1" transform="translate(-491.68 -9.428)" style="fill:#249078"/>
            <path data-name="패스 47881" d="M609.52 35.818a2.679 2.679 0 0 1-2.679-2.679v-7.982h-7.983a2.679 2.679 0 0 1-2.678-2.679v-1.6a2.679 2.679 0 0 1 2.678-2.679h12.265a2.679 2.679 0 0 1 2.679 2.679v12.261a2.679 2.679 0 0 1-2.679 2.679z" transform="translate(-562.455 -9.428)" style="fill:#ff7b36"/>
            <path data-name="패스 47882" d="M523.412 133.7a2.621 2.621 0 0 1-3.706 0l-8.009-8.01-5.744 5.743a2.62 2.62 0 0 1-3.706 0l-1.209-1.209a2.621 2.621 0 0 1 0-3.706l8.805-8.805a2.62 2.62 0 0 1 3.706 0l1.209 1.209.02.02 6.87 6.871 8.1-8.1a2.62 2.62 0 0 1 3.706 0l1.209 1.209.02.02 7.576 7.576a2.621 2.621 0 0 1 0 3.706l-1.209 1.209a2.621 2.621 0 0 1-3.706 0l-5.743-5.743-5.743 5.743z" transform="translate(-491.68 -82.299)" style="fill:#10c0e7"/>
        </g>
    </g>
</svg>
