<svg xmlns="http://www.w3.org/2000/svg" width="50" height="50">
    <defs>
        <clipPath id="a">
            <path data-name="사각형 13453" transform="translate(5121 19100)" style="fill:#fff" d="M0 0h50v50H0z"/>
        </clipPath>
    </defs>
    <g data-name="마스크 그룹 65" transform="translate(-5121 -19100)" style="clip-path:url(#a)">
        <path data-name="패스 45226" d="M32.893 23.017a1.754 1.754 0 0 0-1.507-1.217l-9.52-.872-3.766-8.883a1.748 1.748 0 0 0-3.225 0l-3.762 8.886-9.519.869a1.759 1.759 0 0 0-1.508 1.217A1.781 1.781 0 0 0 .6 24.9l7.2 6.365-2.128 9.424a1.776 1.776 0 0 0 .682 1.826 1.736 1.736 0 0 0 1.926.085l8.209-4.951L24.7 42.6a1.739 1.739 0 0 0 1.928-.086 1.776 1.776 0 0 0 .682-1.826l-2.122-9.427 7.2-6.365a1.78 1.78 0 0 0 .505-1.879z" transform="translate(5130 19098.029)" style="fill:#fcd94c"/>
    </g>
</svg>
