<svg xmlns="http://www.w3.org/2000/svg" width="50" height="50">
    <defs>
        <clipPath id="a">
            <path data-name="사각형 13498" transform="translate(-19010 -13089)" style="fill:#fff" d="M0 0h50v50H0z"/>
        </clipPath>
    </defs>
    <g data-name="마스크 그룹 72" transform="translate(19010 13089)" style="clip-path:url(#a)">
        <path data-name="패스 45342" d="M7.382 42.845a1.738 1.738 0 0 1-1.026-.337 1.777 1.777 0 0 1-.682-1.826L7.8 31.255.6 24.89a1.777 1.777 0 0 1-.514-1.878A1.756 1.756 0 0 1 1.594 21.8l9.52-.872 3.764-8.885a1.747 1.747 0 0 1 3.224 0l3.764 8.887 9.519.872a1.754 1.754 0 0 1 1.509 1.216 1.777 1.777 0 0 1-.513 1.878l-7.2 6.364 2.122 9.427a1.775 1.775 0 0 1-.681 1.826 1.736 1.736 0 0 1-1.927.085l-8.205-4.955-8.209 4.951a1.745 1.745 0 0 1-.899.251zm9.108-7.334a1.745 1.745 0 0 1 .9.251l7.748 4.674-2-8.9a1.777 1.777 0 0 1 .555-1.723l6.794-6.01-8.989-.823a1.752 1.752 0 0 1-1.457-1.072l-3.551-8.384-3.552 8.386a1.747 1.747 0 0 1-1.452 1.068L2.5 23.8l6.794 6.01a1.774 1.774 0 0 1 .555 1.724l-2 8.9 7.748-4.673a1.745 1.745 0 0 1 .893-.25zM11.041 21.1zm10.895 0s.001-.007 0-.008z" transform="translate(-19001 -13090.964)" style="fill:#bcc1cb"/>
    </g>
</svg>
