<svg id="우리카드" xmlns="http://www.w3.org/2000/svg" xmlns:xlink="http://www.w3.org/1999/xlink" width="88" height="88" viewBox="0 0 88 88">
  <defs>
    <clipPath id="clip-path">
      <rect id="사각형_16760" data-name="사각형 16760" width="88" height="88" fill="none"/>
    </clipPath>
    <clipPath id="clip-path-2">
      <path id="패스_50387" data-name="패스 50387" d="M42.975,1.284a41.706,41.706,0,0,0,.018,83.41H43a41.706,41.706,0,0,0-.012-83.41h-.013" transform="translate(-1.6 -1.284)" fill="none"/>
    </clipPath>
  </defs>
  <g id="그룹_65204" data-name="그룹 65204" transform="translate(0 0)">
    <g id="그룹_65203" data-name="그룹 65203" clip-path="url(#clip-path)">
      <path id="패스_50322" data-name="패스 50322" d="M87.216,44c0,24.3-19.473,44-43.5,44S.223,68.3.223,44,19.7,0,43.72,0s43.5,19.7,43.5,44" transform="translate(0.107 0)" fill="#fff"/>
      <path id="패스_50323" data-name="패스 50323" d="M43.065,85.147C65.959,85.14,84.511,66.361,84.5,43.2S65.932,1.277,43.039,1.284,1.6,20.062,1.6,43.216,20.161,85.149,43.056,85.147Z" transform="translate(0.769 0.639)" fill="#006abd"/>
    </g>
  </g>
  <g id="그룹_65206" data-name="그룹 65206" transform="translate(2.491 2.197)">
    <g id="그룹_65205" data-name="그룹 65205" clip-path="url(#clip-path-2)">
      <path id="패스_50324" data-name="패스 50324" d="M43.929,58.519c18.19,0,33.781,5.1,40.461,12.366a42.436,42.436,0,0,0,3.474-16.88A43.936,43.936,0,0,0,0,54.005,42.482,42.482,0,0,0,3.474,70.878c6.661-7.253,22.27-12.359,40.455-12.359" transform="translate(-2.365 3.306)" fill="#006abd"/>
      <path id="패스_50325" data-name="패스 50325" d="M43.888,58.442c18.145,0,33.7,5.063,40.359,12.268a41.913,41.913,0,0,0,3.461-16.747,43.826,43.826,0,0,0-87.638,0A41.922,41.922,0,0,0,3.544,70.7C10.183,63.5,25.75,58.442,43.888,58.442" transform="translate(-2.332 3.431)" fill="#006cbe"/>
      <path id="패스_50326" data-name="패스 50326" d="M43.848,58.358c18.1,0,33.612,5.033,40.253,12.168a41.334,41.334,0,0,0,3.455-16.61c0-23.546-19.582-42.74-43.71-42.737S.141,30.375.141,53.925A41.321,41.321,0,0,0,3.6,70.528c6.64-7.148,22.157-12.17,40.25-12.17" transform="translate(-2.298 3.56)" fill="#006ec0"/>
      <path id="패스_50327" data-name="패스 50327" d="M43.808,58.283c18.049,0,33.525,4.98,40.148,12.07A40.821,40.821,0,0,0,87.4,53.875c0-23.354-19.531-42.448-43.595-42.448S.216,30.529.216,53.875A40.83,40.83,0,0,0,3.665,70.344c6.609-7.078,22.1-12.061,40.143-12.061" transform="translate(-2.262 3.682)" fill="#0070c1"/>
      <path id="패스_50328" data-name="패스 50328" d="M43.769,58.21c18,0,33.441,4.938,40.046,11.967A40.266,40.266,0,0,0,87.25,53.837c0-23.161-19.477-42.165-43.481-42.164S.289,30.68.289,53.844A40.29,40.29,0,0,0,3.727,70.176C10.314,63.148,25.771,58.21,43.769,58.21" transform="translate(-2.227 3.802)" fill="#0072c3"/>
      <path id="패스_50329" data-name="패스 50329" d="M43.727,58.135c17.956,0,33.352,4.9,39.942,11.867A39.733,39.733,0,0,0,87.1,53.8c0-22.974-19.427-41.875-43.369-41.875S.363,30.834.363,53.8A39.756,39.756,0,0,0,3.793,70c6.572-6.964,21.983-11.861,39.935-11.861" transform="translate(-2.192 3.924)" fill="#0074c4"/>
      <path id="패스_50330" data-name="패스 50330" d="M43.686,58.058c17.91,0,33.266,4.856,39.84,11.771a39.245,39.245,0,0,0,3.418-16.07c0-22.779-19.377-41.59-43.258-41.587S.433,30.99.433,53.767A39.261,39.261,0,0,0,3.854,69.829c6.559-6.915,21.931-11.771,39.833-11.771" transform="translate(-2.158 4.046)" fill="#0076c6"/>
      <path id="패스_50331" data-name="패스 50331" d="M43.647,57.983c17.862,0,33.179,4.814,39.737,11.669A38.661,38.661,0,0,0,86.793,53.72c0-22.586-19.325-41.3-43.146-41.3S.509,31.139.509,53.727a38.7,38.7,0,0,0,3.41,15.925C10.459,62.8,25.79,57.983,43.647,57.983" transform="translate(-2.122 4.168)" fill="#0078c7"/>
      <path id="패스_50332" data-name="패스 50332" d="M43.606,57.909c17.805,0,33.093,4.77,39.629,11.568a38.167,38.167,0,0,0,3.4-15.8c0-22.4-19.275-41.015-43.03-41.014S.579,31.291.579,53.688a38.165,38.165,0,0,0,3.4,15.789c6.525-6.8,21.814-11.568,39.624-11.568" transform="translate(-2.088 4.289)" fill="#007ac9"/>
      <path id="패스_50333" data-name="패스 50333" d="M43.569,57.84c17.768,0,33.006,4.728,39.521,11.468a37.663,37.663,0,0,0,3.391-15.661c0-22.2-19.222-40.726-42.918-40.725S.648,31.449.648,53.654A37.678,37.678,0,0,0,4.042,69.308C10.554,62.559,25.806,57.84,43.569,57.84" transform="translate(-2.055 4.414)" fill="#007ccb"/>
      <path id="패스_50334" data-name="패스 50334" d="M43.527,57.759c17.721,0,32.922,4.686,39.423,11.377A37.112,37.112,0,0,0,86.333,53.6c0-22.01-19.17-40.44-42.8-40.439S.726,31.593.726,53.608A37.2,37.2,0,0,0,4.108,69.129c6.491-6.684,21.7-11.37,39.419-11.37" transform="translate(-2.018 4.532)" fill="#007ecc"/>
      <path id="패스_50335" data-name="패스 50335" d="M43.482,57.682c17.675,0,32.836,4.647,39.318,11.272a36.611,36.611,0,0,0,3.375-15.389c0-21.818-19.12-40.153-42.693-40.15S.793,31.752.793,53.571A36.68,36.68,0,0,0,4.168,68.954c6.479-6.624,21.649-11.272,39.314-11.272" transform="translate(-1.986 4.655)" fill="#0080ce"/>
      <path id="패스_50336" data-name="패스 50336" d="M43.446,57.613c17.628,0,32.752,4.6,39.215,11.16a36.087,36.087,0,0,0,3.363-15.256c0-21.627-19.068-39.865-42.579-39.862S.868,31.894.868,53.522A36.1,36.1,0,0,0,4.234,68.771c6.457-6.554,21.588-11.158,39.212-11.158" transform="translate(-1.95 4.772)" fill="#0082cf"/>
      <path id="패스_50337" data-name="패스 50337" d="M43.407,57.526c17.588,0,32.663,4.563,39.11,11.069a35.566,35.566,0,0,0,3.357-15.118c0-21.442-19.019-39.576-42.467-39.574S.941,32.047.941,53.485A35.631,35.631,0,0,0,4.3,68.6c6.441-6.5,21.532-11.069,39.108-11.069" transform="translate(-1.915 4.894)" fill="#0084d1"/>
      <path id="패스_50338" data-name="패스 50338" d="M43.363,57.458c17.536,0,32.572,4.521,39.008,10.971a35.073,35.073,0,0,0,3.347-14.984c0-21.244-18.966-39.289-42.355-39.288S1.02,32.206,1.02,53.451A35.113,35.113,0,0,0,4.368,68.429c6.414-6.45,21.464-10.971,38.995-10.971" transform="translate(-1.877 5.019)" fill="#0087d2"/>
      <path id="패스_50339" data-name="패스 50339" d="M43.326,57.382c17.489,0,32.492,4.479,38.9,10.871a34.569,34.569,0,0,0,3.336-14.847c0-21.052-18.916-39-42.241-39S1.087,32.35,1.087,53.412A34.609,34.609,0,0,0,4.425,68.253c6.408-6.392,21.417-10.871,38.9-10.871" transform="translate(-1.845 5.141)" fill="#0089d4"/>
      <path id="패스_50340" data-name="패스 50340" d="M43.285,57.306c17.443,0,32.408,4.437,38.8,10.773a34.052,34.052,0,0,0,3.33-14.711c0-20.86-18.862-38.716-42.126-38.714S1.162,32.511,1.162,53.37A34.135,34.135,0,0,0,4.494,68.076c6.383-6.332,21.356-10.77,38.791-10.77" transform="translate(-1.809 5.262)" fill="#008cd6"/>
      <path id="패스_50341" data-name="패스 50341" d="M43.244,57.235c17.393,0,32.32,4.4,38.7,10.671a33.546,33.546,0,0,0,3.322-14.575c0-20.668-18.814-38.427-42.015-38.427S1.232,32.664,1.232,53.334A33.624,33.624,0,0,0,4.555,67.906c6.367-6.277,21.3-10.671,38.689-10.671" transform="translate(-1.776 5.384)" fill="#008ed7"/>
      <path id="패스_50342" data-name="패스 50342" d="M43.212,57.16c17.346,0,32.233,4.354,38.591,10.571A33.042,33.042,0,0,0,85.114,53.29c0-20.477-18.76-38.142-41.908-38.139S1.3,32.816,1.3,53.292A33.125,33.125,0,0,0,4.607,67.733c6.37-6.219,21.259-10.573,38.6-10.573" transform="translate(-1.745 5.505)" fill="#0090d9"/>
      <path id="패스_50343" data-name="패스 50343" d="M43.165,57.085c17.3,0,32.149,4.312,38.488,10.472a32.554,32.554,0,0,0,3.3-14.3c0-20.284-18.71-37.855-41.791-37.855S1.375,32.967,1.375,53.254a32.634,32.634,0,0,0,3.3,14.3c6.339-6.158,21.192-10.47,38.488-10.47" transform="translate(-1.708 5.626)" fill="#0093da"/>
      <path id="패스_50344" data-name="패스 50344" d="M43.123,57.007c17.253,0,32.063,4.271,38.383,10.372A32.053,32.053,0,0,0,84.8,53.21c0-20.093-18.658-37.564-41.678-37.563S1.447,33.121,1.447,53.213A32.15,32.15,0,0,0,4.741,67.378c6.324-6.092,21.134-10.372,38.383-10.372" transform="translate(-1.673 5.748)" fill="#0095dc"/>
      <path id="패스_50345" data-name="패스 50345" d="M43.084,56.932c17.208,0,31.979,4.227,38.281,10.274a31.587,31.587,0,0,0,3.286-14.033c0-19.9-18.608-37.277-41.567-37.274S1.522,33.276,1.522,53.177a31.676,31.676,0,0,0,3.283,14.03c6.306-6.048,21.077-10.275,38.279-10.275" transform="translate(-1.637 5.871)" fill="#0098de"/>
      <path id="패스_50346" data-name="패스 50346" d="M43.042,56.856c17.155,0,31.892,4.186,38.177,10.172a31.076,31.076,0,0,0,3.276-13.9c0-19.709-18.555-36.979-41.453-36.979S1.594,33.438,1.594,53.142A31.147,31.147,0,0,0,4.868,67.037c6.288-6,21.019-10.181,38.174-10.181" transform="translate(-1.603 5.995)" fill="#009adf"/>
      <path id="패스_50347" data-name="패스 50347" d="M43.007,56.784c17.114,0,31.8,4.147,38.072,10.065a30.578,30.578,0,0,0,3.257-13.764c0-19.515-18.5-36.7-41.339-36.7S1.658,33.572,1.658,53.09A30.707,30.707,0,0,0,4.916,66.849c6.29-5.918,20.982-10.065,38.091-10.065" transform="translate(-1.572 6.11)" fill="#009de1"/>
      <path id="패스_50348" data-name="패스 50348" d="M42.963,56.706c17.068,0,31.719,4.105,37.967,9.973a30.1,30.1,0,0,0,3.258-13.622c0-19.326-18.457-36.414-41.228-36.414S1.738,33.733,1.738,53.056A30.223,30.223,0,0,0,4.995,66.678c6.257-5.867,20.908-9.973,37.969-9.973" transform="translate(-1.534 6.235)" fill="#00a0e3"/>
      <path id="패스_50349" data-name="패스 50349" d="M42.929,56.63c17.021,0,31.631,4.064,37.864,9.874a29.621,29.621,0,0,0,3.257-13.49c0-19.132-18.4-36.125-41.114-36.125S1.823,33.883,1.823,53.018A29.727,29.727,0,0,0,5.08,66.5c6.213-5.811,20.826-9.874,37.849-9.874" transform="translate(-1.493 6.356)" fill="#00a2e4"/>
      <path id="패스_50350" data-name="패스 50350" d="M42.881,56.555c16.975,0,31.547,4.022,37.762,9.775a29.154,29.154,0,0,0,3.24-13.348c0-18.94-18.349-35.839-41-35.839s-41,16.9-41,35.842A29.23,29.23,0,0,0,5.124,66.331c6.217-5.754,20.8-9.776,37.757-9.776" transform="translate(-1.464 6.48)" fill="#00a5e6"/>
      <path id="패스_50351" data-name="패스 50351" d="M42.842,56.481c16.924,0,31.46,3.98,37.658,9.673a28.724,28.724,0,0,0,3.234-13.218c0-18.749-18.3-35.55-40.891-35.55S1.958,34.188,1.958,52.939a28.791,28.791,0,0,0,3.23,13.215c6.2-5.7,20.734-9.673,37.654-9.673" transform="translate(-1.429 6.599)" fill="#00a8e8"/>
      <path id="패스_50352" data-name="패스 50352" d="M42.8,56.406c16.879,0,31.373,3.938,37.553,9.575A28.239,28.239,0,0,0,83.578,52.9c0-18.557-18.24-35.263-40.776-35.263S2.029,34.344,2.029,52.9A28.3,28.3,0,0,0,5.252,65.984c6.183-5.641,20.678-9.578,37.55-9.578" transform="translate(-1.395 6.721)" fill="#00abe9"/>
      <path id="패스_50353" data-name="패스 50353" d="M42.761,56.33c16.833,0,31.289,3.9,37.451,9.474a27.764,27.764,0,0,0,3.214-12.946c0-18.365-18.2-34.975-40.665-34.975S2.1,34.493,2.1,52.86A27.85,27.85,0,0,0,5.314,65.8c6.167-5.577,20.619-9.474,37.447-9.474" transform="translate(-1.36 6.842)" fill="#00aeeb"/>
      <path id="패스_50354" data-name="패스 50354" d="M42.721,56.256c16.785,0,31.2,3.854,37.349,9.375a27.3,27.3,0,0,0,3.2-12.81c0-18.173-18.144-34.688-40.55-34.688S2.177,34.648,2.177,52.821a27.4,27.4,0,0,0,3.206,12.81c6.147-5.522,20.558-9.375,37.338-9.375" transform="translate(-1.324 6.965)" fill="#09b0ec"/>
      <path id="패스_50355" data-name="패스 50355" d="M42.682,56.182c16.74,0,31.119,3.812,37.24,9.273a26.8,26.8,0,0,0,3.2-12.675c0-17.979-18.092-34.4-40.437-34.4-22.311,0-40.434,16.411-40.434,34.4A26.914,26.914,0,0,0,5.442,65.454c6.133-5.461,20.506-9.273,37.24-9.273" transform="translate(-1.29 7.085)" fill="#16b3ee"/>
      <path id="패스_50356" data-name="패스 50356" d="M42.667,56.174c16.72,0,31.074,3.789,37.193,9.216A26.559,26.559,0,0,0,83.051,52.8c0-17.866-18.069-34.189-40.389-34.189S2.274,34.934,2.274,52.8A26.631,26.631,0,0,0,5.464,65.39c6.138-5.427,20.494-9.216,37.2-9.216" transform="translate(-1.278 7.197)" fill="#27b5ee"/>
      <path id="패스_50357" data-name="패스 50357" d="M42.657,56.168c16.692,0,31.03,3.764,37.132,9.155a26.275,26.275,0,0,0,3.186-12.509c0-17.745-18.045-33.979-40.327-33.979S2.322,35.068,2.322,52.814A26.387,26.387,0,0,0,5.508,65.323c6.113-5.391,20.452-9.155,37.15-9.155" transform="translate(-1.255 7.309)" fill="#34b7ef"/>
      <path id="패스_50358" data-name="패스 50358" d="M42.625,56.162c16.67,0,30.987,3.739,37.089,9.1A26.008,26.008,0,0,0,82.9,52.832c0-17.629-18.023-33.766-40.272-33.766S2.353,35.2,2.353,52.832A26.094,26.094,0,0,0,5.534,65.261c6.114-5.364,20.431-9.1,37.091-9.1" transform="translate(-1.24 7.422)" fill="#3fbaef"/>
      <path id="패스_50359" data-name="패스 50359" d="M42.612,56.156c16.648,0,30.946,3.719,37.039,9.034a25.759,25.759,0,0,0,3.178-12.344c0-17.505-18-33.556-40.217-33.556S2.395,35.335,2.395,52.847A25.842,25.842,0,0,0,5.569,65.194c6.1-5.322,20.4-9.037,37.043-9.037" transform="translate(-1.22 7.532)" fill="#49bcf0"/>
      <path id="패스_50360" data-name="패스 50360" d="M42.6,56.149c16.624,0,30.9,3.691,36.989,8.972a25.485,25.485,0,0,0,3.175-12.253c0-17.4-17.975-33.343-40.173-33.343S2.42,35.474,2.42,52.868A25.543,25.543,0,0,0,5.592,65.131C11.7,59.839,25.98,56.151,42.6,56.149" transform="translate(-1.208 7.646)" fill="#52bff1"/>
      <path id="패스_50361" data-name="패스 50361" d="M42.574,56.145c16.6,0,30.861,3.666,36.938,8.914a25.189,25.189,0,0,0,3.171-12.18c0-17.287-17.949-33.13-40.106-33.13S2.469,35.6,2.469,52.879A25.291,25.291,0,0,0,5.635,65.062c6.081-5.249,20.342-8.917,36.938-8.917" transform="translate(-1.184 7.756)" fill="#5bc1f1"/>
      <path id="패스_50362" data-name="패스 50362" d="M42.56,56.14c16.579,0,30.817,3.643,36.888,8.856a24.938,24.938,0,0,0,3.166-12.1c0-17.16-17.925-32.92-40.055-32.92S2.505,35.732,2.505,52.9A24.992,24.992,0,0,0,5.667,65c6.077-5.216,20.31-8.857,36.893-8.857" transform="translate(-1.167 7.868)" fill="#64c4f2"/>
      <path id="패스_50363" data-name="패스 50363" d="M42.542,56.134c16.558,0,30.776,3.62,36.839,8.8A24.68,24.68,0,0,0,82.54,52.913c0-17.044-17.9-32.708-40-32.708s-40,15.667-40,32.708A24.734,24.734,0,0,0,5.7,64.929c6.073-5.176,20.29-8.791,36.844-8.8" transform="translate(-1.149 7.979)" fill="#6cc7f3"/>
      <path id="패스_50364" data-name="패스 50364" d="M42.531,56.128c16.536,0,30.733,3.593,36.786,8.735a24.4,24.4,0,0,0,3.158-11.931c0-16.928-17.878-32.5-39.954-32.5S2.565,36.005,2.565,52.928A24.451,24.451,0,0,0,5.718,64.864C11.8,59.722,26,56.129,42.531,56.128" transform="translate(-1.138 8.091)" fill="#74c9f3"/>
      <path id="패스_50365" data-name="패스 50365" d="M42.5,56.123c16.5,0,30.69,3.571,36.737,8.675a24.151,24.151,0,0,0,3.153-11.851c0-16.808-17.854-32.285-39.89-32.285S2.614,36.139,2.614,52.947A24.228,24.228,0,0,0,5.761,64.8C11.818,59.693,26,56.124,42.5,56.123" transform="translate(-1.115 8.203)" fill="#7bccf4"/>
      <path id="패스_50366" data-name="패스 50366" d="M42.489,56.116c16.49,0,30.645,3.545,36.687,8.614a23.875,23.875,0,0,0,3.146-11.768c0-16.692-17.829-32.074-39.833-32.074S2.653,36.272,2.653,52.961A23.929,23.929,0,0,0,5.8,64.733C11.843,59.663,26,56.117,42.489,56.116" transform="translate(-1.096 8.314)" fill="#83cff5"/>
      <path id="패스_50367" data-name="패스 50367" d="M42.471,56.112c16.466,0,30.6,3.521,36.637,8.556A23.621,23.621,0,0,0,82.252,52.98c0-16.577-17.805-31.863-39.778-31.863S2.691,36.406,2.691,52.98A23.666,23.666,0,0,0,5.829,64.668c6.037-5.038,20.185-8.555,36.641-8.556" transform="translate(-1.078 8.426)" fill="#8ad1f5"/>
      <path id="패스_50368" data-name="패스 50368" d="M42.458,56.1c16.443,0,30.561,3.5,36.585,8.5A23.366,23.366,0,0,0,82.18,53c0-16.46-17.782-31.652-39.722-31.652S2.72,36.548,2.72,53A23.418,23.418,0,0,0,5.854,64.6c6.042-5,20.165-8.494,36.6-8.5" transform="translate(-1.064 8.54)" fill="#91d4f6"/>
      <path id="패스_50369" data-name="패스 50369" d="M42.444,56.1c16.42,0,30.518,3.472,36.535,8.435a23.121,23.121,0,0,0,3.134-11.523c0-16.341-17.758-31.44-39.669-31.44S2.769,36.671,2.769,53.013A23.129,23.129,0,0,0,5.9,64.537C11.91,59.574,26.016,56.1,42.444,56.1" transform="translate(-1.041 8.649)" fill="#98d6f7"/>
      <path id="패스_50370" data-name="패스 50370" d="M42.415,56.094c16.4,0,30.477,3.447,36.48,8.376a22.844,22.844,0,0,0,3.129-11.44c0-16.221-17.732-31.226-39.614-31.226S2.791,36.81,2.791,53.03A22.859,22.859,0,0,0,5.916,64.473c6.027-4.932,20.112-8.377,36.5-8.379" transform="translate(-1.03 8.762)" fill="#9fd9f7"/>
      <path id="패스_50371" data-name="패스 50371" d="M42.4,56.087c16.375,0,30.433,3.425,36.433,8.315A22.6,22.6,0,0,0,81.96,53.045c0-16.107-17.709-31.011-39.559-31.011S2.837,36.942,2.837,53.045A22.6,22.6,0,0,0,5.955,64.4c6.019-4.9,20.073-8.313,36.446-8.318" transform="translate(-1.008 8.875)" fill="#a5dcf8"/>
      <path id="패스_50372" data-name="패스 50372" d="M42.387,56.083c16.354,0,30.4,3.4,36.383,8.255A22.325,22.325,0,0,0,81.89,53.065c0-15.991-17.687-30.806-39.5-30.806S2.865,37.077,2.865,53.063A22.342,22.342,0,0,0,5.978,64.341c6.013-4.857,20.06-8.254,36.409-8.258" transform="translate(-0.995 8.985)" fill="#acdef8"/>
      <path id="패스_50373" data-name="패스 50373" d="M42.367,56.076c16.33,0,30.348,3.374,36.332,8.2A22.073,22.073,0,0,0,81.819,53.08c0-15.873-17.664-30.594-39.451-30.594S2.91,37.21,2.91,53.08a22.092,22.092,0,0,0,3.109,11.2c5.994-4.826,20.021-8.2,36.349-8.2" transform="translate(-0.974 9.096)" fill="#b2e1f9"/>
      <path id="패스_50374" data-name="패스 50374" d="M42.349,56.07c16.308,0,30.305,3.352,36.284,8.138A21.835,21.835,0,0,0,81.744,53.1c0-15.754-17.64-30.381-39.4-30.381S2.948,37.346,2.948,53.1a21.848,21.848,0,0,0,3.1,11.114c5.985-4.789,19.992-8.138,36.3-8.142" transform="translate(-0.955 9.209)" fill="#b9e3f9"/>
      <path id="패스_50375" data-name="패스 50375" d="M42.33,56.064c16.286,0,30.261,3.328,36.233,8.076a21.571,21.571,0,0,0,3.107-11.026c0-15.639-17.615-30.17-39.341-30.17S2.984,37.48,2.984,53.115a21.6,21.6,0,0,0,3.1,11.032c5.977-4.755,19.965-8.078,36.247-8.082" transform="translate(-0.938 9.321)" fill="#bfe5fa"/>
      <path id="패스_50376" data-name="패스 50376" d="M42.314,56.058c16.264,0,30.22,3.3,36.183,8.017a21.343,21.343,0,0,0,3.1-10.941c0-15.52-17.588-29.958-39.286-29.958S3.022,37.617,3.022,53.133A21.314,21.314,0,0,0,6.116,64.074c5.969-4.713,19.939-8.011,36.2-8.015" transform="translate(-0.92 9.434)" fill="#c5e8fa"/>
      <path id="패스_50377" data-name="패스 50377" d="M42.3,56.053c16.24,0,30.183,3.282,36.131,7.956a21.083,21.083,0,0,0,3.1-10.862c0-15.4-17.564-29.747-39.23-29.747S3.058,37.745,3.058,53.145A21.089,21.089,0,0,0,6.148,64.01c5.963-4.679,19.913-7.953,36.149-7.957" transform="translate(-0.903 9.543)" fill="#cbeafb"/>
      <path id="패스_50378" data-name="패스 50378" d="M42.28,56.049c16.216,0,30.134,3.253,36.08,7.9a20.825,20.825,0,0,0,3.094-10.78c0-15.286-17.544-29.54-39.176-29.54S3.093,37.876,3.093,53.165A20.808,20.808,0,0,0,6.18,63.948c5.956-4.643,19.878-7.893,36.1-7.9" transform="translate(-0.886 9.654)" fill="#d1edfb"/>
      <path id="패스_50379" data-name="패스 50379" d="M42.262,56.039c16.193,0,30.09,3.228,36.029,7.835a20.566,20.566,0,0,0,3.09-10.7c0-15.168-17.517-29.321-39.119-29.321S3.131,38.014,3.131,53.178a20.582,20.582,0,0,0,3.082,10.7c5.945-4.61,19.856-7.834,36.048-7.84" transform="translate(-0.868 9.767)" fill="#d7effc"/>
      <path id="패스_50380" data-name="패스 50380" d="M42.249,56.035c16.171,0,30.048,3.206,35.979,7.777A20.332,20.332,0,0,0,81.313,53.2c0-15.055-17.5-29.114-39.064-29.114S3.163,38.147,3.163,53.186A20.309,20.309,0,0,0,6.241,63.8c5.945-4.564,19.838-7.764,36.009-7.77" transform="translate(-0.853 9.878)" fill="#ddf2fc"/>
      <path id="패스_50381" data-name="패스 50381" d="M42.232,56.029c16.15,0,30.005,3.182,35.929,7.716a20.087,20.087,0,0,0,3.082-10.533c0-14.936-17.47-28.9-39.011-28.9S3.211,38.279,3.211,53.212a20.077,20.077,0,0,0,3.07,10.539c5.922-4.54,19.8-7.716,35.951-7.722" transform="translate(-0.83 9.99)" fill="#e3f4fd"/>
      <path id="패스_50382" data-name="패스 50382" d="M42.2,56.024c16.123,0,29.965,3.155,35.878,7.658A19.863,19.863,0,0,0,81.16,53.233c0-14.82-17.449-28.691-38.956-28.691S3.236,38.416,3.236,53.23A19.808,19.808,0,0,0,6.3,63.685c5.934-4.506,19.783-7.655,35.9-7.661" transform="translate(-0.818 10.103)" fill="#e9f6fd"/>
      <path id="패스_50383" data-name="패스 50383" d="M42.192,56.017c16.1,0,29.918,3.134,35.83,7.6a19.6,19.6,0,0,0,3.072-10.367c0-14.7-17.424-28.478-38.9-28.478S3.282,38.554,3.282,53.247A19.591,19.591,0,0,0,6.343,63.619c5.913-4.467,19.752-7.592,35.849-7.6" transform="translate(-0.796 10.214)" fill="#eff9fe"/>
      <path id="패스_50384" data-name="패스 50384" d="M42.176,56.011c16.08,0,29.877,3.109,35.776,7.537a19.353,19.353,0,0,0,3.069-10.284C81.021,38.682,63.621,25,42.175,25S3.316,38.686,3.316,53.265A19.328,19.328,0,0,0,6.373,63.549c5.909-4.43,19.723-7.531,35.8-7.537" transform="translate(-0.779 10.327)" fill="#f5fbfe"/>
      <path id="패스_50385" data-name="패스 50385" d="M42.156,56.007c16.058,0,29.834,3.085,35.728,7.479a19.123,19.123,0,0,0,3.063-10.2c0-14.468-17.371-28.056-38.791-28.056s-38.8,13.591-38.8,28.055A19.088,19.088,0,0,0,6.4,63.487c5.9-4.393,19.693-7.472,35.751-7.481" transform="translate(-0.762 10.437)" fill="#fafdff"/>
      <path id="패스_50386" data-name="패스 50386" d="M42.14,56c16.035,0,29.793,3.064,35.677,7.418A18.873,18.873,0,0,0,80.876,53.3c0-14.349-17.349-27.843-38.736-27.843S3.391,38.951,3.391,53.294A18.844,18.844,0,0,0,6.43,63.422C12.33,59.06,26.1,56.008,42.14,56" transform="translate(-0.743 10.549)" fill="#fff"/>
    </g>
  </g>
  <g id="그룹_65208" data-name="그룹 65208" transform="translate(0 0)">
    <g id="그룹_65207" data-name="그룹 65207" clip-path="url(#clip-path)">
      <path id="패스_50388" data-name="패스 50388" d="M41.889,36.347A108.082,108.082,0,0,0,4.026,42.835,41.276,41.276,0,0,0,58.779,64.071,41.721,41.721,0,0,0,79.773,42.835a108.213,108.213,0,0,0-37.884-6.488" transform="translate(1.935 18.087)" fill="#006abd"/>
    </g>
  </g>
</svg>
