<svg width="250" height="120" viewBox="0 0 250 120" fill="none" xmlns="http://www.w3.org/2000/svg">
<path d="M127.805 93H96.1954C92.7749 93 90 90.2451 90 86.8492V28.1508C90 24.7549 92.7749 22 96.1954 22H127.805C131.225 22 134 24.7549 134 28.1508V86.8492C134 90.2451 131.225 93 127.805 93ZM93.0222 34.0697V86.8492C93.0222 88.5812 94.4508 89.9996 96.1954 89.9996H127.805C129.549 89.9996 130.978 88.5812 130.978 86.8492V34.0697H130.648H93.0222ZM93.0222 31.0693H130.978V28.1508C130.978 26.4187 129.549 25.0004 127.805 25.0004H96.1954C94.4508 25.0004 93.0222 26.4187 93.0222 28.1508V31.0693Z" fill="black"/>
<path d="M132.455 78H92.559C91.6945 78 91 77.5545 91 77C91 76.4455 91.6945 76 92.559 76H132.441C133.306 76 134 76.4455 134 77C134 77.5545 133.306 78 132.441 78H132.455Z" fill="black"/>
<path d="M112 88C109.796 88 108 85.7551 108 83C108 80.2449 109.796 78 112 78C114.204 78 116 80.2449 116 83C116 85.7551 114.204 88 112 88ZM112 81.7585C111.442 81.7585 110.993 82.3197 110.993 83.017C110.993 83.7143 111.442 84.2755 112 84.2755C112.558 84.2755 113.007 83.7143 113.007 83.017C113.007 82.3197 112.558 81.7585 112 81.7585Z" fill="black"/>
<ellipse cx="140.5" cy="84" rx="17.5" ry="17" fill="white"/>
<path d="M141 65C131.075 65 123 73.0749 123 83C123 92.9251 131.075 101 141 101C150.925 101 159 92.9251 159 83C159 73.0749 150.925 65 141 65ZM141 98.3784C132.52 98.3784 125.622 91.4797 125.622 83C125.622 74.5203 132.52 67.6216 141 67.6216C149.48 67.6216 156.378 74.5203 156.378 83C156.378 91.4797 149.48 98.3784 141 98.3784Z" fill="black" stroke="black" stroke-width="0.5"/>
<path d="M136.924 87.5686L131.966 83.2423L130 84.9573L136.924 91L151 78.7157L149.034 77L136.924 87.5686Z" fill="black" stroke="black" stroke-width="0.5"/>
<rect x="5.5" y="6.5" width="238" height="107" rx="53.5" stroke="#CACACA"/>
</svg>
