<svg width="250" height="120" viewBox="0 0 250 120" fill="none" xmlns="http://www.w3.org/2000/svg">
<rect x="5.5" y="6.5" width="238" height="107" rx="53.5" stroke="#CACACA"/>
<g clip-path="url(#clip0_3665_3047)">
<path d="M129.385 97H96.4544C92.8909 97 90 94.1287 90 90.5893V29.4107C90 25.8713 92.8909 23 96.4544 23H129.385C132.948 23 135.839 25.8713 135.839 29.4107V90.5893C135.839 94.1287 132.948 97 129.385 97ZM93.1485 35.5797V90.5893C93.1485 92.3945 94.6369 93.8728 96.4544 93.8728H129.385C131.202 93.8728 132.691 92.3945 132.691 90.5893V35.5797H132.347H93.1485ZM93.1485 32.4526H132.691V29.4107C132.691 27.6055 131.202 26.1272 129.385 26.1272H96.4544C94.6369 26.1272 93.1485 27.6055 93.1485 29.4107V32.4526Z" fill="black"/>
<path d="M133.064 81.2502H92.7774C91.9044 81.2502 91.2031 80.5537 91.2031 79.6866C91.2031 78.8196 91.9044 78.123 92.7774 78.123H133.049C133.922 78.123 134.624 78.8196 134.624 79.6866C134.624 80.5537 133.922 81.2502 133.049 81.2502H133.064Z" fill="black"/>
<path d="M112.911 91.0299C110.592 91.0299 108.703 89.1536 108.703 86.8509C108.703 84.5482 110.592 82.6719 112.911 82.6719C115.229 82.6719 117.118 84.5482 117.118 86.8509C117.118 89.1536 115.229 91.0299 112.911 91.0299ZM112.911 85.8132C112.324 85.8132 111.852 86.2823 111.852 86.8651C111.852 87.4479 112.324 87.917 112.911 87.917C113.497 87.917 113.97 87.4479 113.97 86.8651C113.97 86.2823 113.497 85.8132 112.911 85.8132Z" fill="black"/>
<path d="M119.367 46.0274C119.367 35.9778 130.301 27.833 143.782 27.833C157.263 27.833 168.197 35.9778 168.197 46.0274C168.197 56.077 157.263 64.2218 143.782 64.2218C142.451 64.2218 141.163 64.1365 139.904 63.9944C139.26 65.0036 136.398 68.6567 129.414 67.8322C129.414 67.8322 132.204 65.231 132.619 62.2176C124.748 59.2041 119.367 53.0919 119.367 46.0416V46.0274Z" fill="white"/>
<path d="M131.401 69.7226C130.715 69.7226 129.97 69.68 129.198 69.5947C128.511 69.5094 127.924 69.0403 127.709 68.3865C127.495 67.7326 127.681 67.0077 128.181 66.5386C128.682 66.0695 129.856 64.7334 130.471 63.2551C122.471 59.6873 117.562 53.1913 117.562 46.0415C117.562 35.0254 129.312 26.0703 143.766 26.0703C158.221 26.0703 169.97 35.0254 169.97 46.0415C169.97 57.0576 158.221 66.0127 143.766 66.0127C142.75 66.0127 141.734 65.97 140.704 65.8705C139.387 67.4057 136.539 69.7369 131.387 69.7369L131.401 69.7226ZM143.781 29.6239C131.301 29.6239 121.155 36.9869 121.155 46.0415C121.155 52.1252 125.791 57.6973 133.262 60.5544C134.035 60.8529 134.507 61.6347 134.393 62.4449C134.207 63.781 133.677 65.0177 133.062 66.0553C136.453 65.572 137.942 63.7242 138.385 63.0277C138.757 62.4591 139.416 62.1322 140.103 62.2174C141.334 62.3596 142.564 62.4307 143.781 62.4307C156.26 62.4307 166.407 55.0676 166.407 46.0131C166.407 36.9585 156.26 29.5955 143.781 29.5955V29.6239Z" fill="black"/>
<path d="M153.273 46.454C153.273 47.7049 154.304 48.7283 155.563 48.7283C156.823 48.7283 157.853 47.7049 157.853 46.454C157.853 45.2031 156.837 44.1797 155.563 44.1797C154.29 44.1797 153.273 45.2031 153.273 46.454Z" fill="black"/>
<path d="M143.798 48.7283C145.062 48.7283 146.087 47.71 146.087 46.454C146.087 45.1979 145.062 44.1797 143.798 44.1797C142.533 44.1797 141.508 45.1979 141.508 46.454C141.508 47.71 142.533 48.7283 143.798 48.7283Z" fill="black"/>
<path d="M129.727 46.454C129.727 47.7049 130.757 48.7283 132.016 48.7283C133.276 48.7283 134.306 47.7049 134.306 46.454C134.306 45.2031 133.276 44.1797 132.016 44.1797C130.757 44.1797 129.727 45.2031 129.727 46.454Z" fill="black"/>
</g>
<rect x="5" y="6" width="54" height="54" rx="12" fill="#FAE100"/>
<path d="M32.5025 14.6914C21.0174 14.6914 11.7109 22.085 11.7109 31.2028C11.7109 37.1383 15.6546 42.3407 21.5742 45.2514C21.139 46.8833 19.9984 51.1598 19.7713 52.0748C19.4902 53.2098 20.1849 53.1962 20.6417 52.8894C20.9985 52.6505 26.3396 49.0039 28.6426 47.4291C29.8914 47.6164 31.1834 47.7142 32.5025 47.7142C43.9849 47.7142 53.2941 40.3206 53.2941 31.2028C53.2941 22.085 43.9849 14.6914 32.5025 14.6914Z" fill="#381E1F"/>
<path d="M17.9205 25.9434C16.6501 25.9434 16.6528 28.1807 17.9205 28.1807H20.0884C20.0884 28.1807 20.1019 34.2357 20.0884 35.6286C20.0911 36.6441 22.3427 36.6984 22.34 35.6829L22.3481 28.3952C22.3481 28.3952 23.0752 28.235 24.5051 28.2377C25.8512 28.2377 25.8539 25.9461 24.5051 25.9461H17.9151L17.9205 25.9434Z" fill="#FAE100"/>
<mask id="mask0_3665_3047" style="mask-type:luminance" maskUnits="userSpaceOnUse" x="16" y="25" width="10" height="12">
<path d="M17.9127 25.9453C16.6423 25.9453 16.645 28.1827 17.9127 28.1827H20.0805C20.0805 28.1827 20.0941 34.2377 20.0805 35.6306C20.0833 36.6461 22.3349 36.7004 22.3322 35.6849L22.3403 28.3972C22.3403 28.3972 23.0674 28.237 24.4973 28.2397C25.8434 28.2397 25.8461 25.948 24.4973 25.948H17.9073L17.9127 25.9453Z" fill="white"/>
</mask>
<g mask="url(#mask0_3665_3047)">
<path d="M25.8498 25.9453H16.6406V36.7004H25.8498V25.9453Z" fill="#FAE100"/>
</g>
<path d="M28.5572 28.7327L29.7627 32.5259H27.2489L28.5572 28.7327ZM27.2084 26.9542C26.6732 28.1353 24.7487 33.7043 24.108 35.1814C23.6458 36.2484 25.6407 37.12 26.1029 36.053L26.5354 34.5297H30.5007C30.5007 34.5297 30.3655 34.5922 30.8899 35.9878C31.317 37.1173 33.374 36.3353 32.9469 35.2031C32.3387 33.5902 30.2331 27.7769 29.8492 26.9542C29.6708 26.574 29.0356 26.2998 28.4221 26.2998C27.9139 26.2998 27.4165 26.4872 27.2057 26.9542" fill="#FAE100"/>
<mask id="mask1_3665_3047" style="mask-type:luminance" maskUnits="userSpaceOnUse" x="24" y="26" width="9" height="11">
<path d="M28.5494 28.7327L29.7549 32.5259H27.2411L28.5494 28.7327ZM27.2006 26.9542C26.6654 28.1353 24.7408 33.7043 24.1002 35.1814C23.638 36.2484 25.6328 37.12 26.0951 36.053L26.5275 34.5297H30.4929C30.4929 34.5297 30.3577 34.5922 30.8821 35.9878C31.3092 37.1173 33.3662 36.3353 32.9391 35.2031C32.3309 33.5902 30.2253 27.7769 29.8414 26.9542C29.663 26.574 29.0278 26.2998 28.4142 26.2998C27.9061 26.2998 27.4087 26.4872 27.1979 26.9542" fill="white"/>
</mask>
<g mask="url(#mask1_3665_3047)">
<path d="M33.3688 26.3018H23.6406V37.122H33.3688V26.3018Z" fill="#FAE100"/>
</g>
<path d="M33.7969 27.2922C33.7996 29.1847 33.8077 35.2858 33.8077 35.2858C33.8077 35.2858 33.6347 36.4996 34.67 36.4996C35.7052 36.4996 38.0001 36.4887 39.0191 36.4887C40.0382 36.4887 40.0328 34.3111 39.0137 34.3111C37.9947 34.3111 36.1377 34.3002 36.1377 34.3002C36.1377 34.3002 36.1458 28.6552 36.1431 27.2867C36.1431 26.6242 35.5566 26.293 34.9727 26.293C34.3889 26.293 33.7969 26.6269 33.7996 27.2922" fill="#FAE100"/>
<mask id="mask2_3665_3047" style="mask-type:luminance" maskUnits="userSpaceOnUse" x="33" y="26" width="7" height="11">
<path d="M33.7891 27.2932C33.7918 29.1857 33.7999 35.2868 33.7999 35.2868C33.7999 35.2868 33.6269 36.5005 34.6622 36.5005C35.6974 36.5005 37.9923 36.4897 39.0113 36.4897C40.0304 36.4897 40.0249 34.3121 39.0059 34.3121C37.9869 34.3121 36.1299 34.3012 36.1299 34.3012C36.1299 34.3012 36.138 28.6562 36.1353 27.2877C36.1353 26.6252 35.5488 26.2939 34.9649 26.2939C34.3811 26.2939 33.7891 26.6279 33.7918 27.2932" fill="white"/>
</mask>
<g mask="url(#mask2_3665_3047)">
<path d="M40.0362 26.2939H33.6328V36.5005H40.0362V26.2939Z" fill="#FAE100"/>
</g>
<path d="M40.402 26.9941C40.4237 27.825 40.375 35.3299 40.375 35.8866C40.375 36.7636 42.5996 36.7609 42.5996 35.8866C42.5996 34.8683 42.5996 32.9351 42.5996 32.9351L43.2537 32.4083L46.1108 36.3237C46.6865 37.0894 48.503 35.7074 47.9272 34.9417L44.8944 30.9285C44.8944 30.9285 46.9541 28.6912 47.765 27.8793C48.2381 27.4069 46.773 25.9243 46.2973 26.3968C45.8378 26.853 42.6131 30.0977 42.6131 30.0977C42.6131 30.0977 42.6428 28.0612 42.6131 26.9344C42.6023 26.5081 42.0806 26.3018 41.5454 26.3018C40.9751 26.3018 40.3885 26.538 40.402 26.9969" fill="#FAE100"/>
<mask id="mask3_3665_3047" style="mask-type:luminance" maskUnits="userSpaceOnUse" x="40" y="26" width="9" height="11">
<path d="M40.402 26.9951C40.4237 27.826 40.375 35.3309 40.375 35.8875C40.375 36.7646 42.5996 36.7618 42.5996 35.8875C42.5996 34.8693 42.5996 32.9361 42.5996 32.9361L43.2537 32.4093L46.1108 36.3247C46.6865 37.0904 48.503 35.7083 47.9272 34.9426L44.8944 30.9295C44.8944 30.9295 46.9541 28.6921 47.765 27.8803C48.2381 27.4078 46.773 25.9253 46.2973 26.3978C45.8378 26.8539 42.6131 30.0986 42.6131 30.0986C42.6131 30.0986 42.6428 28.0622 42.6131 26.9354C42.6023 26.5091 42.0806 26.3027 41.5454 26.3027C40.9751 26.3027 40.3885 26.539 40.402 26.9978" fill="white"/>
</mask>
<g mask="url(#mask3_3665_3047)">
<path d="M48.503 25.9219H40.375V37.0842H48.503V25.9219Z" fill="#FAE100"/>
</g>
<defs>
<clipPath id="clip0_3665_3047">
<rect width="80" height="74" fill="white" transform="translate(90 23)"/>
</clipPath>
</defs>
</svg>
