<svg width="36" height="36" viewBox="0 0 36 36" fill="none" xmlns="http://www.w3.org/2000/svg">
<path d="M0.742531 15.0563C-0.150864 15.7662 -0.0551427 16.5352 0.104392 16.831L7.12422 26H18.0523H28.9805C31.3203 23.1408 36 17.2451 36 16.5352C36 15.8254 35.4682 15.2535 35.2023 15.0563C31.0012 12.1479 22.5 6.62676 21.3228 5.88732C20.2337 5.20324 19.3446 5 17.813 5C16.2815 5 15.1707 5.5315 14.6224 5.88732C10.368 8.64789 1.63593 14.3465 0.742531 15.0563Z" fill="#27CDA6"/>
<rect x="5.25" y="0.25" width="25.5" height="32.581" rx="2.75" fill="url(#paint0_linear_2944_364)" stroke="white" stroke-width="0.5"/>
<path d="M18.0784 8C18.2771 8 18.4556 8.05174 18.6153 8.15394C18.7751 8.25613 18.8892 8.43206 18.9576 8.68301L19.6825 11.3892H21.0409L21.7778 8.49027C21.8301 8.28588 21.9442 8.14747 22.1201 8.07503C22.2972 8.00259 22.4798 7.98577 22.6704 8.02328C22.8771 8.0608 23.0342 8.14876 23.1429 8.28459C23.2516 8.42041 23.2744 8.59505 23.214 8.80719L22.4758 11.3879H23.5107C23.6395 11.3879 23.7348 11.428 23.7952 11.5069C23.8556 11.5871 23.8852 11.6828 23.8852 11.7967C23.8852 11.9027 23.8543 11.9959 23.7952 12.0748C23.7348 12.155 23.6395 12.1938 23.5107 12.1938H22.2556L21.3107 15.5364C21.2409 15.786 21.1227 15.9633 20.955 16.0655C20.7872 16.1677 20.6127 16.2194 20.4315 16.2194C20.2503 16.2194 20.0758 16.1677 19.908 16.0655C19.7402 15.9633 19.6207 15.7796 19.5523 15.5144L18.6717 12.1938H17.4301L16.473 15.5364C16.4032 15.786 16.2838 15.9633 16.1106 16.0655C15.9375 16.1677 15.7616 16.2194 15.5804 16.2194C15.3992 16.2194 15.2247 16.1677 15.0569 16.0655C14.8891 15.9633 14.7697 15.7835 14.7012 15.5247L13.7562 12.1938H12.4878C12.3589 12.1938 12.2636 12.1537 12.2032 12.0748C12.1428 11.9946 12.1133 11.9027 12.1133 11.7967C12.1133 11.6828 12.1428 11.5858 12.2032 11.5069C12.2636 11.4267 12.3589 11.3879 12.4878 11.3879H13.5361L12.8113 8.80719C12.7509 8.59505 12.775 8.42041 12.8824 8.28459C12.9898 8.14876 13.1522 8.0608 13.367 8.02328C13.5656 7.98577 13.7509 7.99871 13.9227 8.06339C14.0958 8.12806 14.2113 8.27036 14.2717 8.49027L15.0099 11.3892H16.4207L17.1965 8.68301C17.265 8.43335 17.3751 8.25613 17.5267 8.15394C17.6771 8.05174 17.861 8 18.0771 8H18.0784ZM15.6717 13.9919L16.1898 12.1951H15.2193L15.6717 13.9919ZM17.665 11.3879H18.4543L18.0784 9.9546L17.665 11.3879ZM20.3818 13.9802L20.8341 12.1951H19.9026L20.3818 13.9802Z" fill="black"/>
<path fill-rule="evenodd" clip-rule="evenodd" d="M0.00303703 15.7633C0.0677516 15.1333 0.871948 14.7913 1.47277 15.1383L17.9994 24.6832L34.5261 15.1383C35.1269 14.7913 35.9311 15.1333 35.9958 15.7633V27.7903C35.9986 27.8205 36 27.8511 36 27.882V34.9999C36 35.0297 35.9987 35.0593 35.9961 35.0884C36.0479 35.6108 35.5615 36.0131 35.0222 35.9997C35.0148 35.9998 35.0074 35.9999 35 35.9999H1C0.992581 35.9999 0.98518 35.9998 0.977799 35.9997C0.43832 36.0132 -0.0482005 35.6106 0.00382614 35.088C0.00129314 35.059 0 35.0296 0 34.9999V27.882C0 27.8529 0.00124475 27.824 0.00368395 27.7955L0.00303703 15.7633Z" fill="#EFEFF1"/>
<defs>
<linearGradient id="paint0_linear_2944_364" x1="18" y1="0" x2="18" y2="33.081" gradientUnits="userSpaceOnUse">
<stop stop-color="white"/>
<stop offset="0.475" stop-color="white"/>
<stop offset="1" stop-color="white" stop-opacity="0.75"/>
</linearGradient>
</defs>
</svg>
