<svg width="36" height="36" viewBox="0 0 36 36" fill="none" xmlns="http://www.w3.org/2000/svg">
<rect width="36.0013" height="7.50026" rx="3.75013" fill="#EFEFF1"/>
<path fill-rule="evenodd" clip-rule="evenodd" d="M3.76172 5.15283C3.76172 4.60055 4.20943 4.15283 4.76172 4.15283H31.2627C31.815 4.15283 32.2627 4.60055 32.2627 5.15283V35.6545C32.2627 35.8454 32.108 36.0001 31.9171 36.0001H31.5719C31.5717 36.0001 31.5715 35.9999 31.5715 35.9997C31.5715 35.3715 31.1046 34.8623 30.5288 34.8623C29.9529 34.8623 29.486 35.3715 29.486 35.9997C29.486 35.9999 29.4859 36.0001 29.4857 36.0001H28.7815C28.7813 36.0001 28.7811 35.9999 28.7811 35.9997C28.7811 35.3715 28.3142 34.8623 27.7384 34.8623C27.1625 34.8623 26.6956 35.3715 26.6956 35.9997C26.6956 35.9999 26.6955 36.0001 26.6953 36.0001H26.0132C26.0129 36.0001 26.0128 35.9999 26.0128 35.9997C26.0128 35.3715 25.5459 34.8623 24.9701 34.8623C24.3942 34.8623 23.9273 35.3715 23.9273 35.9997C23.9273 35.9999 23.9272 36.0001 23.927 36.0001H23.2228C23.2225 36.0001 23.2224 35.9999 23.2224 35.9997C23.2224 35.3715 22.7555 34.8623 22.1797 34.8623C21.6038 34.8623 21.1369 35.3715 21.1369 35.9997C21.1369 35.9999 21.1368 36.0001 21.1366 36.0001H20.4545C20.4542 36.0001 20.4541 35.9999 20.4541 35.9997C20.4541 35.3715 19.9872 34.8623 19.4114 34.8623C18.8355 34.8623 18.3686 35.3715 18.3686 35.9997C18.3686 35.9999 18.3685 36.0001 18.3683 36.0001H17.6641C17.6638 36.0001 17.6637 35.9999 17.6637 35.9997C17.6637 35.3715 17.1968 34.8623 16.621 34.8623C16.0451 34.8623 15.5782 35.3715 15.5782 35.9997C15.5782 35.9999 15.5781 36.0001 15.5779 36.0001H14.8957C14.8955 36.0001 14.8954 35.9999 14.8954 35.9997C14.8954 35.3715 14.4285 34.8623 13.8527 34.8623C13.2768 34.8623 12.8099 35.3715 12.8099 35.9997C12.8099 35.9999 12.8098 36.0001 12.8096 36.0001H12.1033C12.1031 36.0001 12.103 35.9999 12.103 35.9997C12.103 35.3715 11.6361 34.8623 11.0602 34.8623C10.4844 34.8623 10.0175 35.3715 10.0175 35.9997C10.0175 35.9999 10.0174 36.0001 10.0171 36.0001H9.31293C9.31273 36.0001 9.31256 35.9999 9.31256 35.9997C9.31256 35.3715 8.84572 34.8623 8.26984 34.8623C7.69396 34.8623 7.22712 35.3715 7.22712 35.9997C7.22712 35.9999 7.22695 36.0001 7.22674 36.0001H6.54463C6.54442 36.0001 6.54426 35.9999 6.54426 35.9997C6.54426 35.3715 6.07741 34.8623 5.50154 34.8623C4.92566 34.8623 4.45882 35.3715 4.45882 35.9997C4.45882 35.9999 4.45865 36.0001 4.45844 36.0001H4.11024C3.91776 36.0001 3.76172 35.8441 3.76172 35.6516V5.15283Z" fill="white"/>
<rect x="2.25" y="2.25" width="31.5011" height="3.00011" rx="1.4" fill="#27CDA6"/>
<rect opacity="0.6" x="9.69531" y="24.9248" width="16.616" height="1.38466" rx="0.692332" fill="#C1C3CF"/>
<rect opacity="0.4" x="9.69531" y="29.0767" width="16.616" height="1.38466" rx="0.692332" fill="#C1C3CF"/>
<path d="M18.1044 9.69287C18.338 9.69287 18.548 9.75389 18.7359 9.8744C18.9238 9.99491 19.058 10.2024 19.1385 10.4983L19.9911 13.6895H21.5889L22.4557 10.271C22.5173 10.03 22.6515 9.86677 22.8583 9.78135C23.0667 9.69592 23.2815 9.67609 23.5057 9.72033C23.7488 9.76457 23.9335 9.8683 24.0614 10.0285C24.1893 10.1886 24.2161 10.3946 24.1451 10.6447L23.2767 13.688H24.494C24.6456 13.688 24.7577 13.7353 24.8287 13.8283C24.8998 13.9229 24.9345 14.0358 24.9345 14.17C24.9345 14.2951 24.8982 14.405 24.8287 14.498C24.7577 14.5926 24.6456 14.6383 24.494 14.6383H23.0178L21.9063 18.5801C21.8242 18.8745 21.6852 19.0835 21.4879 19.204C21.2905 19.3245 21.0853 19.3855 20.8721 19.3855C20.659 19.3855 20.4537 19.3245 20.2564 19.204C20.059 19.0835 19.9185 18.8669 19.838 18.5542L18.8022 14.6383H17.3418L16.216 18.5801C16.1339 18.8745 15.9934 19.0835 15.7897 19.204C15.5861 19.3245 15.3792 19.3855 15.1661 19.3855C14.9529 19.3855 14.7477 19.3245 14.5503 19.204C14.353 19.0835 14.2125 18.8714 14.1319 18.5664L13.0204 14.6383H11.5284C11.3768 14.6383 11.2647 14.5911 11.1937 14.498C11.1226 14.4034 11.0879 14.2951 11.0879 14.17C11.0879 14.0358 11.1226 13.9214 11.1937 13.8283C11.2647 13.7338 11.3768 13.688 11.5284 13.688H12.7615L11.9089 10.6447C11.8379 10.3946 11.8663 10.1886 11.9926 10.0285C12.1189 9.8683 12.3099 9.76457 12.5625 9.72033C12.7962 9.67609 13.0141 9.69135 13.2162 9.76762C13.4199 9.84389 13.5557 10.0117 13.6267 10.271L14.4951 13.6895H16.1545L17.067 10.4983C17.1476 10.2039 17.277 9.99491 17.4554 9.8744C17.6323 9.75389 17.8486 9.69287 18.1028 9.69287H18.1044ZM15.2735 16.7587L15.8829 14.6399H14.7414L15.2735 16.7587ZM17.6181 13.688H18.5464L18.1044 11.9978L17.6181 13.688ZM20.8137 16.745L21.3458 14.6399H20.25L20.8137 16.745Z" fill="black"/>
</svg>
