<svg width="24" height="24" viewBox="0 0 24 24" fill="none" xmlns="http://www.w3.org/2000/svg">
<g id="Alert">
<path id="Subtract" fill-rule="evenodd" clip-rule="evenodd" d="M9.67275 2.375C10.7071 0.541667 13.2928 0.541667 14.3271 2.375L23.6358 18.875C24.6701 20.7083 23.3773 23 21.3087 23H2.69121C0.622601 23 -0.670277 20.7083 0.364025 18.875L9.67275 2.375ZM10.6562 6.79602C10.5 5.60517 11.0681 5.09348 12 5.09348C12.9319 5.09348 13.5 5.60517 13.3434 6.79602L13 13.7921C13 14.428 12.5 14.8551 11.9998 14.8551C11.4996 14.8551 11 14.428 11 13.7921L10.6562 6.79602ZM11.9998 20.25C12.7419 20.25 13.3434 19.6344 13.3434 18.875C13.3434 18.1156 12.7419 17.5 11.9998 17.5C11.2578 17.5 10.6562 18.1156 10.6562 18.875C10.6562 19.6344 11.2578 20.25 11.9998 20.25Z" fill="#FF5353"/>
</g>
</svg>
