<svg width="60" height="60" viewBox="0 0 60 60" fill="none" xmlns="http://www.w3.org/2000/svg">
<path d="M30.0134 60C13.4688 60.0083 0.00334194 46.554 6.22625e-07 30.0117C-0.00334069 13.461 13.4421 0.00500362 29.9883 1.39543e-06C46.5395 -0.00500083 59.995 13.4393 60 29.9867C60.005 46.5357 46.5596 59.9933 30.0134 60Z" fill="#FE6173"/>
<path d="M29.9783 12.002C32.7683 11.9937 34.88 14.4414 34.5659 17.2127C34.3153 19.422 34.1866 21.6446 34.0029 23.8606C33.7473 26.947 33.5167 30.0367 33.226 33.1197C33.0656 34.8222 31.5754 36.051 29.8663 35.996C28.214 35.9427 26.8859 34.6054 26.7472 32.9163C26.3496 28.0692 25.9202 23.2237 25.5343 18.3748C25.4675 17.5328 25.3104 16.6924 25.4708 15.8287C25.8818 13.6177 27.7463 12.0087 29.9783 12.002Z" fill="#FEFEFE"/>
<path d="M29.99 40.0028C32.1902 39.9995 33.9995 41.8069 33.9979 44.0063C33.9962 46.2006 32.1768 48.008 29.9783 47.9997C27.8097 47.9914 26.0121 46.1939 26.0021 44.0263C25.9921 41.8236 27.793 40.0078 29.99 40.0028Z" fill="#FEFEFE"/>
</svg>
