<svg width="22" height="28" viewBox="0 0 22 28" fill="none" xmlns="http://www.w3.org/2000/svg">
<g id="certificate_icon">
<path id="Vector" d="M19.6493 24.6182L16.2964 24.4476C16.0878 24.4371 15.8934 24.5489 15.7984 24.7344L14.2708 27.7128C14.0801 28.0853 13.5507 28.0987 13.3413 27.7366L6.89059 16.6052C6.74479 16.3527 6.83152 16.0301 7.08426 15.8848L12.9615 12.5041C13.215 12.3588 13.5387 12.4452 13.6846 12.6971L20.1353 23.8285C20.3454 24.1905 20.0688 24.6405 19.65 24.6189L19.6493 24.6182Z" fill="#DBFDEF"/>
<path id="Vector_2" d="M1.5089 24.6182L4.86177 24.4476C5.07039 24.4371 5.2648 24.5489 5.35976 24.7344L6.88739 27.7128C7.07807 28.0853 7.60747 28.0987 7.81683 27.7366L14.2676 16.6052C14.4134 16.3527 14.3267 16.0301 14.0739 15.8848L8.19669 12.5041C7.9432 12.3588 7.61943 12.4452 7.47362 12.6971L1.02362 23.8277C0.813503 24.1898 1.09017 24.6398 1.5089 24.6182Z" fill="#DBFDEF"/>
<path id="Vector_3" d="M11 21.9187C17.0751 21.9187 22 17.012 22 10.9593C22 4.90667 17.0751 0 11 0C4.92487 0 0 4.90667 0 10.9593C0 17.012 4.92487 21.9187 11 21.9187Z" fill="url(#paint0_linear_886_2655)"/>
<path id="Vector_4" d="M11 18.906C15.4043 18.906 18.9747 15.3488 18.9747 10.9608C18.9747 6.5728 15.4043 3.01562 11 3.01562C6.59576 3.01562 3.02539 6.5728 3.02539 10.9608C3.02539 15.3488 6.59576 18.906 11 18.906Z" fill="#DBFFEE"/>
<path id="Vector_5" d="M10.3717 14.4142C10.1324 14.4142 9.89316 14.3233 9.71071 14.1415L7.24242 11.6824C6.87753 11.3188 6.87753 10.7288 7.24242 10.3652C7.60732 10.0017 8.19953 10.0017 8.56443 10.3652L10.3717 12.1658L13.7814 8.76876C14.1463 8.40521 14.7385 8.40521 15.1034 8.76876C15.4683 9.1323 15.4683 9.72232 15.1034 10.0859L11.0327 14.1415C10.8503 14.3233 10.611 14.4142 10.3717 14.4142Z" fill="url(#paint1_linear_886_2655)"/>
</g>
<defs>
<linearGradient id="paint0_linear_886_2655" x1="11" y1="0" x2="11" y2="21.9187" gradientUnits="userSpaceOnUse">
<stop stop-color="#99FEAC"/>
<stop offset="1" stop-color="#22B794"/>
</linearGradient>
<linearGradient id="paint1_linear_886_2655" x1="11.1729" y1="8.49609" x2="11.1729" y2="14.4142" gradientUnits="userSpaceOnUse">
<stop stop-color="#6DE4A4"/>
<stop offset="1" stop-color="#4CD09D"/>
</linearGradient>
</defs>
</svg>
