<svg width="24" height="32" viewBox="0 0 24 32" fill="none" xmlns="http://www.w3.org/2000/svg">
<g id="Layer_1" clip-path="url(#clip0_1786_107)">
<path id="Vector" d="M11.9458 0C12.3078 0.268017 12.7078 0.497031 13.0248 0.811051C16.26 4.02625 19.4822 7.25545 22.7064 10.4817C23.3045 11.0797 23.4355 11.7237 23.0715 12.3378C22.8124 12.7758 22.4344 13.0438 21.9114 13.0728C21.7974 13.0788 21.6824 13.0838 21.5684 13.0838C14.945 13.0838 8.32154 13.0838 1.69813 13.0858C1.2601 13.0858 0.851074 13.0318 0.508053 12.7218C-0.0989852 12.1758 -0.17099 11.3377 0.349043 10.7097C0.435048 10.6057 0.532054 10.5097 0.62706 10.4146C3.83026 7.21145 7.02946 4.00425 10.2427 0.811051C10.5587 0.497031 10.9597 0.268017 11.3207 0C11.5287 0 11.7378 0 11.9458 0Z" fill="black"/>
<path id="Vector_2" d="M11.6469 18.9102C14.9681 18.9102 18.2903 18.9132 21.6115 18.9072C22.1286 18.9062 22.5746 19.0282 22.9196 19.4362C23.3486 19.9433 23.3836 20.6623 22.9886 21.1953C22.8966 21.3204 22.7856 21.4334 22.6756 21.5434C19.3924 24.8286 16.1092 28.1118 12.825 31.396C12.0209 32.2 11.2479 32.201 10.4448 31.399C7.14562 28.1008 3.84742 24.8026 0.54921 21.5034C-0.187836 20.7653 -0.187836 19.8163 0.574212 19.2322C0.777224 19.0762 1.05524 19.0072 1.30926 18.9322C1.45427 18.8892 1.61928 18.9112 1.77529 18.9112C5.06549 18.9112 8.3557 18.9112 11.6469 18.9112V18.9102Z" fill="black"/>
</g>
<defs>
<clipPath id="clip0_1786_107">
<rect width="23.2735" height="32" fill="white"/>
</clipPath>
</defs>
</svg>
