<svg width="16" height="16" viewBox="0 0 16 16" fill="none" xmlns="http://www.w3.org/2000/svg">
<path d="M0 3C0 1.34315 1.34315 0 3 0H13C14.6569 0 16 1.34315 16 3V13C16 14.6569 14.6569 16 13 16H3C1.34315 16 0 14.6569 0 13V3Z" fill="#FF5BA0"/>
<path fill-rule="evenodd" clip-rule="evenodd" d="M12.6695 4.76599C13.0512 5.16519 13.0369 5.79819 12.6377 6.17985L10.1503 8.55799L6.56816 11.9247L3.35779 8.83051C2.96014 8.44724 2.94848 7.81418 3.33175 7.41653C3.71502 7.01888 4.34807 7.00722 4.74572 7.39049L6.58549 9.16371L8.77737 7.10356L11.2556 4.73422C11.6548 4.35257 12.2878 4.36679 12.6695 4.76599Z" fill="white"/>
</svg>
