<svg width="16" height="16" viewBox="0 0 16 16" fill="none" xmlns="http://www.w3.org/2000/svg">
<g id="icon/clock">
<mask id="mask0_2684_18476" style="mask-type:alpha" maskUnits="userSpaceOnUse" x="0" y="0" width="16" height="16">
<rect id="Rectangle 2181" width="16" height="16" fill="#D9D9D9"/>
</mask>
<g mask="url(#mask0_2684_18476)">
<path id="Vector" d="M7.9935 1.5C4.4055 1.5 1.5 4.412 1.5 8C1.5 11.588 4.4055 14.5 7.9935 14.5C11.588 14.5 14.5 11.588 14.5 8C14.5 4.412 11.588 1.5 7.9935 1.5ZM8 13.2C5.127 13.2 2.8 10.873 2.8 8C2.8 5.127 5.127 2.8 8 2.8C10.873 2.8 13.2 5.127 13.2 8C13.2 10.873 10.873 13.2 8 13.2ZM7.857 4.75H7.818C7.558 4.75 7.35 4.958 7.35 5.218V8.286C7.35 8.5135 7.467 8.728 7.6685 8.845L10.366 10.4635C10.587 10.5935 10.873 10.5285 11.003 10.3075C11.1395 10.0865 11.068 9.794 10.8405 9.664L8.325 8.169V5.218C8.325 4.958 8.117 4.75 7.857 4.75Z" fill="#333333"/>
</g>
</g>
</svg>
