<svg width="20" height="20" viewBox="0 0 20 20" fill="none" xmlns="http://www.w3.org/2000/svg">
<path d="M9.39651 20.0015C9.02444 19.9512 8.64944 19.9165 8.28127 19.8472C5.28176 19.2832 2.98831 17.6841 1.42288 15.0742C0.219751 13.0689 -0.233862 10.8711 0.177759 8.57374C0.913599 4.46925 3.32034 1.7505 7.30715 0.526378C9.56252 -0.166005 11.8135 0.0332142 13.9893 0.964855C14.0357 0.984874 14.0811 1.00782 14.147 1.03907C13.6304 1.55616 13.1236 2.063 12.5996 2.58741C12.2447 2.49708 11.8472 2.38282 11.4439 2.29591C10.1045 2.00685 8.78567 2.09962 7.48928 2.53517C6.0635 3.01466 4.86135 3.83155 3.89944 4.98341C2.90725 6.1714 2.29836 7.53663 2.10305 9.08009C1.89163 10.75 2.18899 12.3301 2.98342 13.8067C3.77444 15.2764 4.92288 16.396 6.41409 17.1558C7.63088 17.7759 8.92336 18.0635 10.2876 18.0088C11.8599 17.9458 13.2876 17.4478 14.5698 16.5371C15.7739 15.6821 16.6719 14.5728 17.2642 13.2227C17.7456 12.125 17.9683 10.9751 17.9131 9.77149C17.8789 9.02149 17.7471 8.28907 17.5689 7.56349C17.5391 7.44142 17.5523 7.36329 17.6485 7.2754C18.104 6.85987 18.5523 6.43605 19.0132 6.00538C19.3018 6.56251 19.5122 7.13478 19.6397 7.73146C20.374 11.1646 19.6045 14.2149 17.2373 16.8189C15.7144 18.4942 13.7989 19.4912 11.5674 19.8735C11.2359 19.9302 10.8999 19.96 10.5659 20.002H9.39651V20.0015Z" fill="url(#paint0_linear_4748_15059)"/>
<path d="M12.4989 4.6435C12.435 4.71918 12.3905 4.77973 12.3383 4.83247C11.935 5.23774 11.5238 5.6352 11.1298 6.04926C11.0043 6.1811 10.8827 6.20698 10.7172 6.17622C10.122 6.06538 9.53263 6.08686 8.94279 6.23774C7.01945 6.73042 5.7172 8.74702 6.06584 10.7055C6.43449 12.7748 8.21867 14.1733 10.3056 14.0283C12.3442 13.8862 13.9677 12.1059 13.9511 10.0209C13.9486 9.7436 13.9003 9.46674 13.8847 9.18891C13.8808 9.12104 13.9032 9.03266 13.9472 8.98432C14.3495 8.54243 14.7597 8.10786 15.1659 7.66938C15.2743 7.55219 15.3349 7.57221 15.4032 7.71479C16.4086 9.80903 15.9447 12.3544 14.4145 14.0273C13.0639 15.5034 11.3778 16.1918 9.38761 15.9838C7.24943 15.7602 5.6547 14.6513 4.67765 12.7397C3.74796 10.9218 3.7797 9.05903 4.74308 7.26655C5.68644 5.51069 7.18888 4.47797 9.16838 4.17573C10.2797 4.00581 11.352 4.19575 12.3954 4.58686C12.4189 4.59565 12.4399 4.61127 12.4999 4.64399L12.4989 4.6435Z" fill="url(#paint1_linear_4748_15059)" fill-opacity="0.4"/>
<path d="M16.3369 0.0551758C16.3369 0.283203 16.3369 0.469238 16.3369 0.655273C16.3369 1.29199 16.333 1.92871 16.3413 2.56494C16.3422 2.65039 16.3847 2.75342 16.4428 2.81641C16.6635 3.0542 16.893 3.28516 17.1318 3.50488C17.1992 3.56689 17.31 3.61035 17.4018 3.61133C18.1489 3.61963 18.8959 3.61621 19.643 3.61621C19.7128 3.61621 19.7827 3.61621 19.8896 3.61621C19.829 3.68604 19.7958 3.72949 19.7573 3.76807C18.8896 4.63672 18.0234 5.50684 17.1498 6.36914C17.0756 6.44238 16.9536 6.49414 16.8491 6.50439C16.1967 6.56982 15.5424 6.6167 14.8901 6.68115C14.8032 6.68994 14.704 6.74219 14.6411 6.80469C13.7553 7.68262 12.8754 8.56689 11.9912 9.44629C11.9086 9.52832 11.893 9.59375 11.9213 9.71436C12.0527 10.2739 11.9174 10.7915 11.5732 11.2368C10.8217 12.209 9.59663 12.3271 8.65962 11.5366C7.78559 10.7993 7.78364 9.35498 8.64839 8.60498C9.06587 8.24316 9.54536 8.05273 10.0932 8.08545C10.3798 8.10254 10.5717 8.00391 10.7675 7.80322C11.579 6.9707 12.4096 6.15625 13.225 5.32812C13.3022 5.24951 13.3574 5.12158 13.3686 5.01074C13.4345 4.36475 13.4819 3.71729 13.5439 3.0708C13.5517 2.98779 13.5893 2.89062 13.6459 2.83154C14.5082 1.93066 15.3759 1.03467 16.2426 0.137695C16.2607 0.119141 16.2812 0.103516 16.3369 0.0546875V0.0551758Z" fill="#5D48FF"/>
<defs>
<linearGradient id="paint0_linear_4748_15059" x1="-1.29932" y1="-0.800781" x2="19.2007" y2="20.1992" gradientUnits="userSpaceOnUse">
<stop stop-color="#8E49FF"/>
<stop offset="1" stop-color="#5681FF"/>
</linearGradient>
<linearGradient id="paint1_linear_4748_15059" x1="3.20218" y1="3.56605" x2="15.4741" y2="16.1754" gradientUnits="userSpaceOnUse">
<stop stop-color="#8E49FF"/>
<stop offset="1" stop-color="#5681FF"/>
</linearGradient>
</defs>
</svg>
