<svg width="16" height="16" viewBox="0 0 16 16" fill="none" xmlns="http://www.w3.org/2000/svg">
<g id="Group 355022">
<g id="Group 355021">
<path id="Rectangle 2549 (Stroke)" fill-rule="evenodd" clip-rule="evenodd" d="M15.1998 2.38134H6.69453C6.6209 2.38134 6.5612 2.44475 6.5612 2.52297V13.5476C6.5612 13.6258 6.6209 13.6892 6.69453 13.6892H15.1998C15.2735 13.6892 15.3332 13.6258 15.3332 13.5476V2.52297C15.3332 2.44475 15.2735 2.38134 15.1998 2.38134ZM6.69453 1.67322C6.2527 1.67322 5.89453 2.05366 5.89453 2.52297V13.5476C5.89453 14.0169 6.25271 14.3973 6.69453 14.3973H15.1998C15.6417 14.3973 15.9998 14.0169 15.9998 13.5476V2.52297C15.9998 2.05366 15.6417 1.67322 15.1998 1.67322H6.69453Z" fill="#207245"/>
<path id="Vector" d="M1.48332e-06 2.19894C-0.000672146 1.85748 0.228163 1.56414 0.544161 1.50139L8.04338 0.012273C8.45356 -0.0691756 8.83256 0.26511 8.83256 0.70834V15.2917C8.83256 15.7342 8.45463 16.0684 8.04489 15.988L0.568608 14.5223C0.252943 14.4605 0.0236146 14.1684 0.022942 13.8275L1.48332e-06 2.19894Z" fill="#207245"/>
<g id="Group 355020">
<rect id="Rectangle 2550" x="11.8213" y="3.65556" width="2.46039" height="1.36087" fill="#207245"/>
<rect id="Rectangle 2552" x="11.8223" y="5.60251" width="2.46039" height="1.36087" fill="#207245"/>
<rect id="Rectangle 2554" x="11.8223" y="7.57056" width="2.46039" height="1.36087" fill="#207245"/>
<rect id="Rectangle 2556" x="11.8223" y="9.51767" width="2.46039" height="1.36087" fill="#207245"/>
<rect id="Rectangle 2558" x="11.8223" y="11.4648" width="2.46039" height="1.36087" fill="#207245"/>
<rect id="Rectangle 2551" x="8.78027" y="3.65562" width="2.46039" height="1.36087" fill="#207245"/>
<rect id="Rectangle 2553" x="8.78027" y="5.60251" width="2.46039" height="1.36087" fill="#207245"/>
<rect id="Rectangle 2555" x="8.78027" y="7.57056" width="2.46039" height="1.36087" fill="#207245"/>
<rect id="Rectangle 2557" x="8.78027" y="9.51767" width="2.46039" height="1.36087" fill="#207245"/>
<rect id="Rectangle 2559" x="8.78027" y="11.4648" width="2.46039" height="1.36087" fill="#207245"/>
</g>
<path id="Vector_2" d="M2.33462 10.7562C2.38016 10.6678 2.40749 10.599 2.43481 10.5302C2.84467 9.73393 3.25452 8.94753 3.66438 8.1513C3.71903 8.04317 3.71903 7.96453 3.66438 7.8564C3.24542 7.07001 2.83556 6.26395 2.4257 5.46773C2.39838 5.40875 2.36195 5.34977 2.31641 5.25147C2.69894 5.22198 3.47311 5.17283 3.47311 5.17283C3.47311 5.17283 3.51865 5.27113 3.54598 5.32028C3.78278 5.77245 4.0287 6.22463 4.2655 6.67681C4.28372 6.71613 4.31104 6.75545 4.33837 6.82426C4.3748 6.75545 4.40212 6.71613 4.42945 6.65715C4.68447 6.15582 4.93949 5.66432 5.20362 5.17283C5.24005 5.10402 5.21273 5.14334 5.27648 5.03521L6.51516 4.92708C6.47873 5.00572 6.4423 5.08436 6.40587 5.14334C5.94136 6.04769 5.48597 6.96188 5.02146 7.8564C4.96681 7.96453 4.96681 8.04317 5.02146 8.1513C5.49507 9.05566 5.95047 9.96001 6.41498 10.8644C6.4423 10.9135 6.46962 10.9725 6.51516 11.0708C6.17817 11.0511 5.24005 10.9627 5.24005 10.9627C5.24005 10.9627 5.20362 10.8939 5.10343 10.6579C4.90306 10.2156 4.66625 9.79291 4.43855 9.36039C4.41123 9.31124 4.38391 9.26209 4.34748 9.19328C4.31104 9.26209 4.27461 9.31124 4.24729 9.36039C4.01959 9.80274 3.78278 10.2549 3.56419 10.7071C3.50955 10.8152 3.50044 10.8349 3.50044 10.8349L2.33462 10.7562Z" fill="white"/>
</g>
</g>
</svg>
