<svg width="29" height="27" viewBox="0 0 29 27" fill="none" xmlns="http://www.w3.org/2000/svg">
<rect x="0.5" y="0.5" width="28" height="26" rx="3.5" fill="white"/>
<rect x="0.5" y="0.5" width="28" height="26" rx="3.5" stroke="#C7C7C7"/>
<path fill-rule="evenodd" clip-rule="evenodd" d="M21.1998 7.38134H12.6945C12.6209 7.38134 12.5612 7.44475 12.5612 7.52297V18.5476C12.5612 18.6258 12.6209 18.6892 12.6945 18.6892H21.1998C21.2735 18.6892 21.3332 18.6258 21.3332 18.5476V7.52297C21.3332 7.44475 21.2735 7.38134 21.1998 7.38134ZM12.6945 6.67322C12.2527 6.67322 11.8945 7.05366 11.8945 7.52297V18.5476C11.8945 19.0169 12.2527 19.3973 12.6945 19.3973H21.1998C21.6417 19.3973 21.9998 19.0169 21.9998 18.5476V7.52297C21.9998 7.05366 21.6417 6.67322 21.1998 6.67322H12.6945Z" fill="#207245"/>
<path d="M6 7.19894C5.99933 6.85748 6.22816 6.56414 6.54416 6.50139L14.0434 5.01227C14.4536 4.93082 14.8326 5.26511 14.8326 5.70834V20.2917C14.8326 20.7342 14.4546 21.0684 14.0449 20.988L6.56861 19.5223C6.25294 19.4605 6.02361 19.1684 6.02294 18.8275L6 7.19894Z" fill="#207245"/>
<rect x="17.8218" y="8.65558" width="2.46039" height="1.36087" fill="#207245"/>
<rect x="17.8218" y="10.6025" width="2.46039" height="1.36087" fill="#207245"/>
<rect x="17.8218" y="12.5706" width="2.46039" height="1.36087" fill="#207245"/>
<rect x="17.8218" y="14.5177" width="2.46039" height="1.36087" fill="#207245"/>
<rect x="17.8218" y="16.4648" width="2.46039" height="1.36087" fill="#207245"/>
<rect x="14.7803" y="8.65564" width="2.46039" height="1.36087" fill="#207245"/>
<rect x="14.7803" y="10.6025" width="2.46039" height="1.36087" fill="#207245"/>
<rect x="14.7803" y="12.5706" width="2.46039" height="1.36087" fill="#207245"/>
<rect x="14.7803" y="14.5177" width="2.46039" height="1.36087" fill="#207245"/>
<rect x="14.7803" y="16.4648" width="2.46039" height="1.36087" fill="#207245"/>
<path d="M8.33462 15.7563C8.38016 15.6678 8.40749 15.599 8.43481 15.5302C8.84467 14.7339 9.25452 13.9475 9.66438 13.1513C9.71903 13.0432 9.71903 12.9645 9.66438 12.8564C9.24542 12.07 8.83556 11.264 8.4257 10.4677C8.39838 10.4088 8.36195 10.3498 8.31641 10.2515C8.69894 10.222 9.47311 10.1728 9.47311 10.1728C9.47311 10.1728 9.51865 10.2711 9.54598 10.3203C9.78278 10.7725 10.0287 11.2246 10.2655 11.6768C10.2837 11.7161 10.311 11.7555 10.3384 11.8243C10.3748 11.7555 10.4021 11.7161 10.4294 11.6572C10.6845 11.1558 10.9395 10.6643 11.2036 10.1728C11.2401 10.104 11.2127 10.1434 11.2765 10.0352L12.5152 9.92709C12.4787 10.0057 12.4423 10.0844 12.4059 10.1434C11.9414 11.0477 11.486 11.9619 11.0215 12.8564C10.9668 12.9645 10.9668 13.0432 11.0215 13.1513C11.4951 14.0557 11.9505 14.96 12.415 15.8644C12.4423 15.9135 12.4696 15.9725 12.5152 16.0708C12.1782 16.0512 11.2401 15.9627 11.2401 15.9627C11.2401 15.9627 11.2036 15.8939 11.1034 15.658C10.9031 15.2156 10.6663 14.7929 10.4386 14.3604C10.4112 14.3113 10.3839 14.2621 10.3475 14.1933C10.311 14.2621 10.2746 14.3113 10.2473 14.3604C10.0196 14.8028 9.78278 15.2549 9.56419 15.7071C9.50955 15.8152 9.50044 15.8349 9.50044 15.8349L8.33462 15.7563Z" fill="white"/>
</svg>
