<svg width="20" height="20" viewBox="0 0 20 20" fill="none" xmlns="http://www.w3.org/2000/svg">
<g id="Folder shared" clip-path="url(#clip0_2034_2561)">
<path id="Vector" d="M16.668 5.00016H10.0013L8.8263 3.82516C8.50964 3.5085 8.08464 3.3335 7.64297 3.3335H3.33464C2.41797 3.3335 1.6763 4.0835 1.6763 5.00016L1.66797 15.0002C1.66797 15.9168 2.41797 16.6668 3.33464 16.6668H16.668C17.5846 16.6668 18.3346 15.9168 18.3346 15.0002V6.66683C18.3346 5.75016 17.5846 5.00016 16.668 5.00016ZM12.5013 7.50016C13.418 7.50016 14.168 8.25016 14.168 9.16683C14.168 10.0835 13.418 10.8335 12.5013 10.8335C11.5846 10.8335 10.8346 10.0835 10.8346 9.16683C10.8346 8.25016 11.5846 7.50016 12.5013 7.50016ZM15.8346 14.1668H9.16797V13.3335C9.16797 12.2252 11.393 11.6668 12.5013 11.6668C13.6096 11.6668 15.8346 12.2252 15.8346 13.3335V14.1668Z" fill="#595959"/>
</g>
<defs>
<clipPath id="clip0_2034_2561">
<rect width="20" height="20" fill="white"/>
</clipPath>
</defs>
</svg>
