<svg width="20" height="20" viewBox="0 0 20 20" fill="none" xmlns="http://www.w3.org/2000/svg">
<g clip-path="url(#clip0_2107_5155)">
<mask id="mask0_2107_5155" style="mask-type:luminance" maskUnits="userSpaceOnUse" x="0" y="0" width="20" height="20">
<path d="M20 0H0V20H20V0Z" fill="white"/>
</mask>
<g mask="url(#mask0_2107_5155)">
<path d="M16.668 5.00064H10.0013L8.8263 3.82564C8.50964 3.50898 8.08464 3.33398 7.64297 3.33398H3.33464C2.41797 3.33398 1.6763 4.08398 1.6763 5.00064L1.66797 15.0007C1.66797 15.9173 2.41797 16.6673 3.33464 16.6673H16.668C17.5846 16.6673 18.3346 15.9173 18.3346 15.0007V6.66731C18.3346 5.75064 17.5846 5.00064 16.668 5.00064ZM12.5013 7.50064C13.418 7.50064 14.168 8.25064 14.168 9.16731C14.168 10.084 13.418 10.834 12.5013 10.834C11.5846 10.834 10.8346 10.084 10.8346 9.16731C10.8346 8.25064 11.5846 7.50064 12.5013 7.50064ZM15.8346 14.1673H9.16797V13.334C9.16797 12.2257 11.393 11.6673 12.5013 11.6673C13.6096 11.6673 15.8346 12.2257 15.8346 13.334V14.1673Z" fill="#12997A"/>
</g>
</g>
<defs>
<clipPath id="clip0_2107_5155">
<rect width="20" height="20" fill="white"/>
</clipPath>
</defs>
</svg>
