<svg width="80" height="80" viewBox="0 0 80 80" fill="none" xmlns="http://www.w3.org/2000/svg">
<g id="Group 354990">
<rect id="Rectangle 2388" x="0.5" y="0.5" width="79" height="79" rx="11.5" fill="#F5F5F5" stroke="#EBEBEB"/>
<g id="Group 354976">
<path id="Vector" d="M47.9211 37.213C47.9211 32.5748 47.9164 27.9378 47.9234 23.2996C47.9257 21.6668 48.9352 20.4014 50.489 20.0632C50.7414 20.0084 51.0077 20.0061 51.2682 20.0049C53.0546 20.0002 54.8422 19.9967 56.6286 20.0049C58.6336 20.0131 59.9816 21.3624 59.9827 23.3789C59.9874 32.5958 59.9664 41.8139 60.0002 51.0308C60.0072 52.8816 58.5231 54.491 56.5937 54.4281C54.8236 54.3697 53.0477 54.3744 51.2775 54.4281C49.4376 54.4829 47.8862 52.9364 47.9059 51.0413C47.9525 46.4334 47.9211 41.8243 47.9211 37.2153V37.213Z" fill="#B4B4B4"/>
<path id="Vector_2" d="M33.9805 40.9182C33.9805 37.4719 33.9839 34.0256 33.9793 30.5793C33.977 28.8859 35.4052 27.4701 37.1253 27.4433C39.0431 27.413 40.9609 27.4293 42.8787 27.4386C44.5837 27.4468 46.0165 28.8801 46.0177 30.5828C46.0212 37.4894 46.0212 44.3971 46.0177 51.3037C46.0177 52.9598 44.5883 54.3943 42.9427 54.4001C40.9807 54.4071 39.0198 54.4071 37.0578 54.4001C35.4133 54.3943 33.9851 52.9563 33.9816 51.3002C33.9758 47.8399 33.9805 44.3785 33.9805 40.9182Z" fill="#E6E6E6"/>
<path id="Vector_3" d="M32.0805 44.6817C32.0805 46.7903 32.0328 48.9 32.0945 51.0063C32.1503 52.8793 30.6186 54.4957 28.6671 54.4269C26.926 54.3651 25.178 54.3639 23.437 54.4269C21.5133 54.4981 19.977 52.9085 20.0003 51.0145C20.0538 46.7693 20.0142 42.523 20.0189 38.2766C20.0212 36.2613 21.397 34.8805 23.4091 34.87C25.1676 34.8607 26.9249 34.8618 28.6834 34.87C30.7012 34.8793 32.0736 36.2543 32.0794 38.2696C32.0852 40.4074 32.0805 42.5451 32.0805 44.6817Z" fill="#B4B4B4"/>
<path id="Vector_4" d="M40.0023 59.9992C33.8569 59.9992 27.7126 59.9992 21.5673 59.9992C20.6113 59.9992 20.0204 59.4662 20.0204 58.6148C20.0204 57.8591 20.5624 57.2841 21.3486 57.2118C21.4789 57.2002 21.6103 57.2072 21.7406 57.2072C33.9139 57.2072 46.0883 57.2072 58.2616 57.2072C58.4791 57.2072 58.6943 57.2013 58.9106 57.2585C59.6491 57.4556 60.069 58.069 59.9736 58.8318C59.891 59.4965 59.3316 59.991 58.6117 59.9945C56.752 60.0038 54.8924 59.998 53.0327 59.9992C48.6888 59.9992 44.345 59.9992 40.0023 59.9992Z" fill="#E1E1E1"/>
</g>
</g>
</svg>
