<svg width="80" height="80" viewBox="0 0 80 80" fill="none" xmlns="http://www.w3.org/2000/svg">
<g id="Group 354992">
<rect id="Rectangle 2509" x="0.5" y="0.5" width="79" height="79" rx="11.5" fill="#F5F5F5" stroke="#EBEBEB"/>
<g id="Group 354987">
<path id="Vector" d="M17 43.933C17.0706 43.6458 17.134 43.3575 17.2118 43.0727C17.9069 40.5398 20.1826 38.6984 22.8112 38.6458C24.1166 38.6195 25.4303 38.7008 26.7284 38.8456C27.5791 38.9401 28.3114 39.4175 29.0005 39.9882C28.8881 40.1175 28.7971 40.2287 28.6978 40.3328C26.7751 42.38 25.6923 44.8148 25.3262 47.5858C25.0271 49.8435 25.0929 52.1096 25.1288 54.3769C25.1419 55.2408 25.1312 56.1046 25.1312 57.0223C24.935 57.0414 24.7351 57.0785 24.5341 57.0785C22.9536 57.0809 21.3719 57.0869 19.7914 57.0714C18.3903 57.0582 17.5193 56.3965 17.0754 55.0517C17.0622 55.0134 17.0251 54.9823 17 54.9476C17 51.2757 17 47.6037 17 43.9318V43.933Z" fill="#E1E1E1"/>
<path id="Vector_2" d="M39.4126 59.9416C36.7122 59.9416 34.0106 59.938 31.3101 59.9428C30.4666 59.944 29.6794 59.7848 29.0105 59.2321C28.2951 58.6398 27.8595 57.8789 27.85 56.9516C27.8236 54.3864 27.7566 51.8176 27.8595 49.256C28.033 44.92 30.0335 41.6788 33.9555 39.707C35.3063 39.0274 36.7588 38.6996 38.2592 38.6086C40.1831 38.4926 42.1178 38.4639 43.9998 38.9281C48.1073 39.9427 51.6189 43.958 51.9025 48.1851C52.0987 51.1272 51.9934 54.0897 51.9874 57.0425C51.9874 57.441 51.8044 57.8502 51.6548 58.2354C51.3306 59.0682 50.7024 59.603 49.8218 59.6879C48.3107 59.8327 46.7924 59.938 45.2753 59.9751C43.3215 60.0229 41.3664 59.987 39.4114 59.987C39.4114 59.9727 39.4114 59.9571 39.4114 59.9428L39.4126 59.9416Z" fill="#B4B4B4"/>
<path id="Vector_3" d="M40.1109 35.572C35.9699 35.7228 32.3064 32.3224 32.1424 28.1767C31.9702 23.8048 35.2975 20.152 39.5857 20.0048C43.924 19.8564 47.5541 23.1623 47.712 27.4061C47.8772 31.8247 44.539 35.4105 40.1097 35.572H40.1109Z" fill="#B4B4B4"/>
<path id="Vector_4" d="M50.8704 39.9895C51.4842 39.4464 52.1817 39.0408 52.9738 38.8697C54.741 38.4892 56.5404 38.4258 58.2992 38.8326C60.9877 39.4535 62.8422 41.8824 62.853 44.6462C62.865 47.8539 62.8602 51.0616 62.853 54.2694C62.8506 55.7709 61.8504 56.9554 60.3608 57.0308C58.59 57.1205 56.812 57.0655 55.0365 57.0691C54.936 57.0691 54.8355 57.0272 54.7051 56.9997C54.7051 56.8298 54.7051 56.6683 54.7051 56.5067C54.7051 54.2095 54.7434 51.9111 54.6979 49.6151C54.6273 45.9982 53.5696 42.7522 50.9577 40.1271C50.9278 40.0972 50.9099 40.0554 50.8692 39.9907L50.8704 39.9895Z" fill="#E1E1E1"/>
<path id="Vector_5" d="M24.1796 25.7309C26.9063 25.7405 29.0971 27.9408 29.0887 30.6604C29.0803 33.3716 26.8489 35.5898 24.1497 35.5719C21.4325 35.5539 19.2322 33.3405 19.2394 30.6293C19.2466 27.9133 21.4588 25.7202 24.1796 25.7298V25.7309Z" fill="#E1E1E1"/>
<path id="Vector_6" d="M55.6746 25.7311C58.399 25.7215 60.6076 27.9111 60.6148 30.6294C60.622 33.3442 58.4277 35.5541 55.7069 35.5732C53.0089 35.5924 50.7739 33.3693 50.7655 30.6617C50.7583 27.9434 52.9503 25.7407 55.6746 25.7311Z" fill="#E1E1E1"/>
</g>
</g>
</svg>
