<svg width="80" height="80" viewBox="0 0 80 80" fill="none" xmlns="http://www.w3.org/2000/svg">
<g id="Group 354991">
<rect id="Rectangle 2388" x="0.5" y="0.5" width="79" height="79" rx="11.5" fill="#F5F5F5" stroke="#EBEBEB"/>
<g id="Group 354985">
<path id="Vector" d="M32.5007 20.0006C32.4984 22.4549 32.5007 24.9103 32.4913 27.3646C32.4865 28.5255 32.0653 29.4704 31.0347 30.0765C30.6608 30.2961 30.2656 30.4368 29.8243 30.4356C27.4637 30.4333 25.1032 30.4356 22.7427 30.4356C22.3396 30.4356 22.138 30.6329 22.138 31.0274C22.138 37.8712 22.138 44.7149 22.138 51.5587C22.138 51.6625 22.1309 51.7663 22.1274 51.8701C22.0031 51.7138 22.0517 51.5277 22.0505 51.3535C22.0481 44.4727 22.0446 37.592 22.0517 30.7113C22.0517 29.6935 22.396 28.7891 23.1154 28.0601C25.4452 25.7025 27.7773 23.3449 30.1225 21.0016C30.7709 20.3538 31.5743 20.0102 32.5007 20.0006Z" fill="#898989"/>
<path id="Vector_2" d="M32.5007 20.0137C34.776 20.0101 37.0512 20.003 39.3265 20.0018C42.3749 19.9994 45.4246 19.9994 48.473 20.0018C50.8366 20.0042 52.4723 21.6471 52.4807 24.0202C52.4831 24.5858 52.489 25.1501 52.4926 25.7156C52.7002 25.9757 52.6322 26.2848 52.6322 26.5759C52.6358 34.0281 52.6346 41.4804 52.6346 48.9326C52.6346 49.6461 52.6382 50.3608 52.6334 51.0742C52.6298 51.5968 52.5714 52.1147 52.4067 52.6134C51.8447 54.3112 50.4583 55.311 48.5529 55.4029C48.4336 55.4089 48.3155 55.4089 48.1962 55.4089C41.3095 55.4089 34.4216 55.4089 27.5349 55.4077C27.2712 55.4077 26.9944 55.4506 26.7629 55.2657C26.0101 55.243 25.2489 55.2907 24.5258 55.0092C23.0917 54.4496 22.2398 53.4259 22.0394 51.8844C21.9773 51.7412 22.0072 51.5909 22.0072 51.4429C22.006 44.5992 22.006 37.7554 22.006 30.9117C22.006 30.3617 22.0442 30.3116 22.6169 30.3092C24.8778 30.2996 27.1412 30.2567 29.4009 30.3223C30.9842 30.3676 32.3503 29.2151 32.3515 27.3884C32.3539 25.1716 32.3503 22.9548 32.3551 20.7379C32.3551 20.4898 32.3074 20.2261 32.5007 20.0149V20.0137Z" fill="#B4B4B4"/>
<path id="Vector_3" d="M26.7644 55.2658C26.9577 55.2598 27.151 55.2503 27.3431 55.2503C34.3634 55.2503 41.3837 55.2503 48.4052 55.2491C50.3918 55.2491 51.8748 54.1526 52.3449 52.3427C52.4535 51.9239 52.4786 51.4931 52.4786 51.0612C52.4774 42.806 52.4774 34.5508 52.4786 26.2956C52.4786 26.1023 52.4893 25.9102 52.4953 25.717C53.3114 25.7468 54.1346 25.6275 54.9424 25.7766C56.9468 26.1453 58.1924 27.6498 58.1936 29.6901C58.1972 36.0398 58.1948 42.3896 58.1948 48.7394C58.1948 51.1782 58.1996 53.6169 58.1936 56.0556C58.1888 57.8966 57.0971 59.3666 55.3934 59.8498C55.0497 59.9476 54.7001 60.0001 54.3398 60.0001C46.4282 59.9977 38.5167 60.0025 30.6063 59.9965C28.4276 59.9953 26.8002 58.3703 26.7716 56.2036C26.768 55.891 26.7668 55.5796 26.7656 55.267L26.7644 55.2658Z" fill="#E1E1E1"/>
<path id="Vector_4" d="M43.9116 31.8205C42.9058 32.8275 41.9931 33.7415 41.0804 34.6542C40.3203 35.4142 40.0424 35.4333 39.1773 34.7866C38.3565 34.1722 37.532 33.5637 36.7195 32.9385C36.4725 32.7488 36.3186 32.7154 36.0681 32.9707C34.8224 34.2485 33.5565 35.5073 32.2871 36.7624C31.6404 37.4031 30.7933 37.2039 30.5881 36.3794C30.5045 36.043 30.6191 35.7566 30.847 35.5264C32.4302 33.9335 34.0159 32.3431 35.6123 30.7634C35.9953 30.3852 36.4355 30.3733 36.9032 30.7169C37.8613 31.4184 38.8075 32.1379 39.756 32.855C39.8825 32.9504 39.9731 33.0399 40.1271 32.8836C40.8978 32.1021 41.6769 31.329 42.5455 30.4604C41.9943 30.4604 41.5588 30.4651 41.1233 30.4604C40.4993 30.452 40.0829 30.0798 40.0853 29.5393C40.0865 28.9773 40.5101 28.5812 41.1412 28.5776C42.3606 28.5705 43.58 28.5717 44.8005 28.5776C45.4138 28.58 45.7908 28.9666 45.7956 29.5882C45.8004 30.4807 45.8004 31.3731 45.7956 32.2656C45.792 32.9098 45.4197 33.3143 44.8423 33.3167C44.2493 33.3203 43.9236 32.9528 43.9116 32.2656C43.9104 32.1641 43.9116 32.0627 43.9116 31.8253V31.8205Z" fill="white"/>
<path id="Vector_5" d="M34.3763 46.6836C36.2197 46.6836 38.0619 46.6824 39.9052 46.6836C40.6044 46.6836 41.0649 47.0785 41.0447 47.6488C41.0244 48.212 40.5829 48.5687 39.8933 48.5687C36.1922 48.5699 32.4924 48.5687 28.7913 48.5711C28.3558 48.5711 28.0038 48.4315 27.8034 48.0223C27.628 47.6644 27.6972 47.3291 27.9299 47.0225C28.1375 46.7492 28.4274 46.68 28.7591 46.6812C30.6323 46.6872 32.5043 46.6836 34.3775 46.6836H34.3763Z" fill="white"/>
<path id="Vector_6" d="M40.5697 40.9696C42.2651 40.9696 43.9605 40.9899 45.6547 40.9612C46.4446 40.9481 46.7405 41.485 46.7524 41.9277C46.7679 42.4753 46.3062 42.8547 45.6583 42.8547C42.2532 42.8571 38.8492 42.8571 35.444 42.8547C34.857 42.8547 34.468 42.5457 34.3821 42.041C34.3105 41.6186 34.579 41.1569 35.0014 41.0257C35.1672 40.9744 35.3521 40.9732 35.5287 40.972C37.2086 40.9684 38.8886 40.9696 40.5685 40.9696H40.5697Z" fill="white"/>
<path id="Vector_7" d="M30.546 42.8563C29.9506 42.8563 29.3565 42.8611 28.7611 42.8551C28.1276 42.8479 27.6789 42.4375 27.6956 41.8935C27.7123 41.3554 28.1383 40.9747 28.7444 40.9724C29.9638 40.9676 31.1843 40.9664 32.4037 40.9724C33.0396 40.9759 33.4047 41.3327 33.3964 41.9161C33.3868 42.4769 32.9895 42.8491 32.3751 42.8551C31.7654 42.8623 31.1557 42.8563 30.5448 42.8563H30.546Z" fill="white"/>
<path id="Vector_8" d="M44.414 46.6861C44.8734 46.6861 45.3339 46.6778 45.7933 46.6885C46.3302 46.7005 46.7334 47.0918 46.7561 47.6013C46.7776 48.0857 46.3624 48.551 45.8362 48.5629C44.8579 48.5844 43.8771 48.5844 42.8988 48.5629C42.3726 48.551 41.9586 48.0845 41.98 47.6001C42.0039 47.0906 42.4084 46.7005 42.9441 46.6885C43.4333 46.6778 43.9236 46.6861 44.4128 46.6861H44.414Z" fill="white"/>
</g>
</g>
</svg>
