<svg width="40" height="40" viewBox="0 0 40 40" fill="none" xmlns="http://www.w3.org/2000/svg">
<circle cx="20" cy="20" r="20" fill="#FFEB00"/>
<path fill-rule="evenodd" clip-rule="evenodd" d="M28.7358 26.4974H11.2487C7.79793 26.4974 5 23.6995 5 20.2487C5 16.7979 7.79793 14 11.2487 14H28.7513C32.2021 14 35 16.7979 35 20.2487C35 23.6995 32.1865 26.4974 28.7358 26.4974Z" fill="#FFEB00"/>
<path fill-rule="evenodd" clip-rule="evenodd" d="M12.0057 17.0005C10.1249 17.0005 8.60156 18.1974 8.60156 19.6896C8.60156 20.6378 9.23887 21.4772 10.1871 21.959L9.86063 23.1715C9.84509 23.2026 9.86063 23.2492 9.89172 23.2803C9.90726 23.2958 9.93835 23.3114 9.95389 23.3114C9.96944 23.3114 10.0005 23.2958 10.0161 23.2958L11.3995 22.3632C11.6016 22.3943 11.8036 22.4098 12.0213 22.4098C13.9021 22.4098 15.4254 21.1974 15.4254 19.7207C15.4254 18.1974 13.9021 17.0005 12.0057 17.0005Z" fill="black"/>
<path d="M18.306 21.9275V23.6685H17.0625V17.2488H17.933L18.0884 17.6529C18.3527 17.3887 18.7568 17.1089 19.3941 17.1089C20.6065 17.1089 21.1817 18.0104 21.1817 19.4871C21.1817 21.026 20.2957 22.0053 19.021 22.0053C18.7723 22.0208 18.5858 22.0053 18.306 21.9275ZM18.306 18.2902V21.0571C18.3682 21.0726 18.5392 21.0882 18.7102 21.0882C19.5962 21.0882 19.9381 20.4664 19.9381 19.4871C19.9381 18.6322 19.705 18.1192 19.0055 18.1192C18.7568 18.1192 18.5081 18.1814 18.306 18.2902Z" fill="black"/>
<path d="M23.865 19.0676H24.5644V18.9122C24.5644 18.3992 24.2691 18.166 23.7717 18.166C23.3831 18.166 22.9012 18.2749 22.4971 18.4769L22.1551 17.6531C22.5903 17.3422 23.2743 17.1401 23.8805 17.1401C25.0619 17.1401 25.7147 17.7619 25.7147 18.9588V21.8966H24.8442L24.7199 21.508C24.2225 21.8655 23.7562 22.021 23.352 22.021C22.4505 22.021 21.9375 21.4769 21.9375 20.5598C21.9375 19.5806 22.6059 19.0676 23.865 19.0676ZM24.58 20.6997V19.8448H24.0049C23.3676 19.8448 23.0411 20.078 23.0411 20.5287C23.0411 20.8707 23.2121 21.0417 23.5852 21.0417C23.9271 21.0572 24.3624 20.8863 24.58 20.6997Z" fill="black"/>
<path d="M29.48 21.4149C29.0447 22.5652 28.5318 23.4046 27.7701 23.8709L27.0085 23.1714C27.4437 22.7828 27.7701 22.4097 28.0344 21.9123L26.3867 17.4201L27.6147 17.0937L28.6717 20.731L29.7131 17.0781L30.9256 17.4201L29.48 21.4149Z" fill="black"/>
</svg>
