<svg width="50" height="50" viewBox="0 0 50 50" fill="none" xmlns="http://www.w3.org/2000/svg">
<circle cx="25" cy="25" r="24.5" fill="white" stroke="#EFEFF1"/>
<path fill-rule="evenodd" clip-rule="evenodd" d="M35.8017 16.572H23.0438C22.9333 16.572 22.8438 16.6671 22.8438 16.7844V33.3213C22.8438 33.4387 22.9333 33.5338 23.0438 33.5338H35.8017C35.9122 33.5338 36.0017 33.4387 36.0017 33.3213V16.7844C36.0017 16.6671 35.9122 16.572 35.8017 16.572ZM23.0438 15.5098C22.381 15.5098 21.8438 16.0804 21.8438 16.7844V33.3213C21.8438 34.0253 22.381 34.596 23.0438 34.596H35.8017C36.4644 34.596 37.0017 34.0253 37.0017 33.3213V16.7844C37.0017 16.0804 36.4644 15.5098 35.8017 15.5098H23.0438Z" fill="#207245"/>
<path d="M13 16.2984C12.999 15.7862 13.3422 15.3462 13.8162 15.2521L25.0651 13.0184C25.6803 12.8962 26.2488 13.3977 26.2488 14.0625V35.9375C26.2488 36.6013 25.6819 37.1025 25.0673 36.982L13.8529 34.7835C13.3794 34.6907 13.0354 34.2526 13.0344 33.7412L13 16.2984Z" fill="#207245"/>
<rect x="30.7344" y="18.4834" width="3.69059" height="2.04131" fill="#207245"/>
<rect x="30.7344" y="21.4038" width="3.69059" height="2.04131" fill="#207245"/>
<rect x="30.7344" y="24.356" width="3.69059" height="2.04131" fill="#207245"/>
<rect x="30.7344" y="27.2764" width="3.69059" height="2.04131" fill="#207245"/>
<rect x="30.7344" y="30.1973" width="3.69059" height="2.04131" fill="#207245"/>
<rect x="26.1719" y="18.4834" width="3.69059" height="2.04131" fill="#207245"/>
<rect x="26.1719" y="21.4038" width="3.69059" height="2.04131" fill="#207245"/>
<rect x="26.1719" y="24.356" width="3.69059" height="2.04131" fill="#207245"/>
<rect x="26.1719" y="27.2764" width="3.69059" height="2.04131" fill="#207245"/>
<rect x="26.1719" y="30.1973" width="3.69059" height="2.04131" fill="#207245"/>
<path d="M16.5039 29.1344C16.5722 29.0017 16.6132 28.8984 16.6542 28.7952C17.269 27.6009 17.8837 26.4213 18.4985 25.227C18.5805 25.0648 18.5805 24.9468 18.4985 24.7846C17.8701 23.605 17.2553 22.3959 16.6405 21.2016C16.5995 21.1131 16.5449 21.0247 16.4766 20.8772C17.0504 20.833 18.2116 20.7592 18.2116 20.7592C18.2116 20.7592 18.2799 20.9067 18.3209 20.9804C18.6761 21.6587 19.045 22.337 19.4002 23.0152C19.4275 23.0742 19.4685 23.1332 19.5095 23.2364C19.5642 23.1332 19.6051 23.0742 19.6461 22.9857C20.0287 22.2337 20.4112 21.4965 20.8074 20.7592C20.862 20.656 20.821 20.715 20.9167 20.5528L22.7747 20.3906C22.72 20.5086 22.6654 20.6265 22.6108 20.715C21.914 22.0715 21.2309 23.4428 20.5341 24.7846C20.4522 24.9468 20.4522 25.0648 20.5341 25.227C21.2446 26.5835 21.9277 27.94 22.6244 29.2966C22.6654 29.3703 22.7064 29.4588 22.7747 29.6062C22.2692 29.5767 20.862 29.444 20.862 29.444C20.862 29.444 20.8074 29.3408 20.6571 28.9869C20.3565 28.3234 20.0013 27.6894 19.6598 27.0406C19.6188 26.9669 19.5778 26.8931 19.5232 26.7899C19.4685 26.8931 19.4139 26.9669 19.3729 27.0406C19.0313 27.7041 18.6761 28.3824 18.3482 29.0606C18.2663 29.2228 18.2526 29.2523 18.2526 29.2523L16.5039 29.1344Z" fill="white"/>
</svg>
