<svg width="40" height="40" viewBox="0 0 40 40" fill="none" xmlns="http://www.w3.org/2000/svg">
<circle cx="20" cy="20" r="20" fill="#FA0050"/>
<path d="M27.9979 26.8547C27.6303 27.235 27.2628 27.6154 26.8932 28C21.9167 23.0235 16.9765 18.0812 12 13.1026C12.3803 12.735 12.7607 12.3675 13.1432 12C13.1538 12 13.1645 12 13.1752 12C13.203 12.0363 13.2265 12.0748 13.2585 12.1068C14.3803 13.2286 15.5021 14.3504 16.6239 15.4722C17.0278 15.8761 17.4316 16.2821 17.8312 16.6838C20.2179 15.4979 22.5491 16.797 23.2628 18.3248C22.8568 18.735 22.4637 19.1368 22.0727 19.5321C21.5513 17.9829 19.9915 17.6068 19.062 17.9338C20.1453 19.015 21.2179 20.0855 22.2949 21.1624C22.3547 21.1047 22.3953 21.0662 22.4359 21.0278C22.8846 20.5791 23.3333 20.1303 23.7821 19.6816C24.4081 19.0556 25.0363 18.4338 25.656 17.8034C26.3034 17.1453 26.5449 16.3547 26.3248 15.4573C25.8761 13.6261 23.6175 12.9765 22.2521 14.2799C21.9744 14.5449 21.703 14.8205 21.4359 15.0962C21.3697 15.1624 21.3162 15.1774 21.2201 15.1581C20.844 15.0812 20.4658 15.0085 20.0855 14.9637C19.844 14.9359 19.5962 14.9573 19.3248 14.9573C19.3611 14.9145 19.3761 14.8932 19.3932 14.8761C19.9744 14.2949 20.5534 13.7115 21.1389 13.1346C21.5833 12.6966 22.1047 12.3782 22.703 12.1987C22.9957 12.1111 23.2991 12.0641 23.5983 12C23.8376 12 24.0769 12 24.3162 12C24.3504 12.0085 24.3846 12.0235 24.4188 12.0278C26.0556 12.2115 27.4167 13.3739 27.8483 14.9701C27.9145 15.2137 27.9487 15.4658 27.9979 15.7137V16.3996C27.9893 16.4231 27.9765 16.4466 27.9722 16.4722C27.8632 17.4744 27.4252 18.3077 26.7115 19.0128C25.6538 20.0577 24.609 21.1132 23.5577 22.1645C23.5192 22.203 23.4829 22.2436 23.4423 22.2863C23.4679 22.3141 23.4829 22.3333 23.5021 22.3504C24.9722 23.8205 26.4423 25.2906 27.9124 26.7607C27.9359 26.7842 27.968 26.8034 27.9979 26.8227V26.8547Z" fill="white"/>
<path d="M15.6562 18.6221C16.0344 18.9981 16.404 19.3678 16.7993 19.761C16.6882 19.8635 16.5621 19.9704 16.4446 20.0879C15.7331 20.7973 15.0173 21.5003 14.3164 22.2182C13.1797 23.387 13.4574 25.2866 14.8677 26.0729C15.8164 26.6007 16.9916 26.4447 17.778 25.6819C18.0472 25.4212 18.31 25.1563 18.5728 24.887C18.6433 24.8144 18.701 24.7951 18.8015 24.8251C19.404 25.0024 20.0216 25.0687 20.6562 25.0238C20.6562 25.0409 20.6604 25.0601 20.6519 25.0665C19.9916 25.7225 19.3656 26.4191 18.6604 27.0216C17.4852 28.0216 16.1156 28.2524 14.6711 27.7246C13.2181 27.1947 12.3399 26.1221 12.0771 24.5943C11.8485 23.2695 12.2224 22.0964 13.1519 21.1263C13.951 20.293 14.7801 19.4896 15.5963 18.6734C15.6177 18.652 15.6412 18.6328 15.654 18.6221H15.6562Z" fill="white"/>
<path d="M17.6765 20.6602C18.7086 21.6922 19.7256 22.7093 20.7406 23.7243C20.3282 23.7798 19.9009 23.7627 19.4778 23.673C18.3068 23.4251 17.4158 22.7798 16.7919 21.7584C16.7278 21.6559 16.7363 21.5939 16.8239 21.5106C17.1188 21.2264 17.4051 20.9337 17.6765 20.6623V20.6602Z" fill="white"/>
</svg>
