<svg width="40" height="40" viewBox="0 0 40 40" fill="none" xmlns="http://www.w3.org/2000/svg">
<circle cx="20" cy="20" r="20" fill="#E1002B"/>
<path d="M10.7998 15L8 17.198V18.422H9.22397L10.5856 17.3612V25.1233L10.7845 25.3222L10.7896 25.3272H12.1105L12.3145 25.1233V15.204L12.1105 15H10.7998Z" fill="white"/>
<path d="M28.5635 16.7238L26.8398 15H21.1432L20.9443 15.1989H20.9392V15.204V16.5249L21.1432 16.7238H26.1258L29.5631 20.1662L26.1258 23.6035H18.3536V15.204L18.1496 15H16.8389L14.0391 17.198V18.422H15.2681L16.6298 17.3612V25.1233L16.8287 25.3222V25.3272H26.8398L32.0008 20.1662L28.5635 16.7238Z" fill="white"/>
</svg>
