<svg width="16" height="16" viewBox="0 0 16 16" fill="none" xmlns="http://www.w3.org/2000/svg">
<path d="M5.84645 7.63016C6.90847 7.63016 7.77091 6.76772 7.77091 5.70571C7.77091 4.64369 6.90847 3.78125 5.84645 3.78125C4.78444 3.78125 3.922 4.64369 3.922 5.70571C3.922 6.76772 4.78444 7.63016 5.84645 7.63016Z" fill="#999999"/>
<path d="M5.84891 8.84848C4.56594 8.84848 2.01782 9.54699 2 10.8228C2.8268 12.0666 4.2452 12.8863 5.84891 12.8863C7.45263 12.8863 8.87102 12.0666 9.69782 10.8228C9.68001 9.54699 7.12476 8.84848 5.84891 8.84848Z" fill="#999999"/>
<rect x="8.66541" y="7.37442" width="1.96578" height="6.55259" rx="0.982889" transform="rotate(-90 8.66541 7.37442)" fill="#17BF98"/>
<rect x="10.9595" y="3.11328" width="1.96578" height="6.55259" rx="0.982889" fill="#17BF98"/>
</svg>
