<svg width="40" height="40" viewBox="0 0 40 40" fill="none" xmlns="http://www.w3.org/2000/svg">
<circle cx="20" cy="20" r="20" fill="#FA0050"/>
<path d="M12.0839 22.81V21.709L10.4443 21.9312V23.0153C10.1766 23.0315 9.90806 23.0431 9.63646 23.0431C9.36486 23.0431 9.09635 23.0323 8.82861 23.0153V21.9312L7.18822 21.709V22.81C6.61261 22.7005 6.04936 22.5562 5.5023 22.3749L5 23.8903C6.4583 24.374 8.01613 24.6395 9.63646 24.6395C11.2568 24.6395 12.8146 24.374 14.2729 23.8903L13.7706 22.3749C13.2236 22.5562 12.6603 22.7012 12.0847 22.81" fill="white"/>
<path d="M9.63519 21.4813C11.4245 21.4813 12.8759 20.0307 12.8759 18.2407C12.8759 16.4506 11.4253 15 9.63519 15C7.84511 15 6.39453 16.4506 6.39453 18.2407C6.39453 20.0307 7.84588 21.4813 9.63596 21.4813M9.63519 16.6157C10.5325 16.6157 11.2602 17.3433 11.2602 18.2414C11.2602 19.1396 10.5325 19.8664 9.63519 19.8664C8.73784 19.8664 8.00946 19.1388 8.00946 18.2414C8.00946 17.3441 8.73707 16.6157 9.63519 16.6157Z" fill="white"/>
<path d="M23.9226 15.0947H22.2344V24.4355H23.9226V15.0947Z" fill="white"/>
<path d="M15.8459 15.585V17.2022H18.9446V17.4669C18.9446 17.9329 19.0086 18.7037 18.5395 19.3765C18.0395 20.0949 16.7556 20.9899 15.6445 21.5887L16.3721 23.0107C17.6568 22.341 19.5742 21.0285 20.085 20.0794C20.5973 19.1273 20.6583 18.4776 20.6583 16.6428L20.6537 15.588L15.8444 15.5857L15.8459 15.585Z" fill="white"/>
<path d="M34.4964 22.3749C33.9494 22.5562 33.3861 22.7012 32.8105 22.81V21.709L31.1709 21.9312V23.0153C30.9031 23.0315 30.6346 23.0423 30.363 23.0423C30.0914 23.0423 29.8229 23.0315 29.5552 23.0153V21.9312L27.9156 21.709V22.81C27.3399 22.7005 26.7767 22.5562 26.2296 22.3749L25.7266 23.8903C27.1849 24.374 28.7427 24.6395 30.363 24.6395C31.9834 24.6395 33.5412 24.374 34.9995 23.8903L34.4964 22.3749Z" fill="white"/>
<path d="M30.3618 21.4813C32.1518 21.4813 33.6024 20.0307 33.6024 18.2407C33.6024 16.4506 32.1518 15 30.3618 15C28.5717 15 27.1211 16.4506 27.1211 18.2407C27.1211 20.0307 28.5717 21.4813 30.3618 21.4813ZM30.3618 16.6157C31.2591 16.6157 31.9867 17.3433 31.9867 18.2414C31.9867 19.1396 31.2591 19.8664 30.3618 19.8664C29.4644 19.8664 28.736 19.1388 28.736 18.2414C28.736 17.3441 29.4636 16.6157 30.3618 16.6157Z" fill="white"/>
</svg>
