<svg width="16" height="16" viewBox="0 0 16 16" fill="none" xmlns="http://www.w3.org/2000/svg">
<path d="M6.28342 4.62136C6.84288 4.62136 7.40234 4.62136 7.9618 4.62136C8.52125 4.62136 9.08945 4.62136 9.65765 4.62136C9.98983 4.62136 10.1559 4.45527 10.1559 4.11435C10.1559 3.9133 10.1472 3.71224 10.1559 3.51119C10.1909 3.0304 9.98109 2.82061 9.51779 2.87305C9.30799 2.89928 9.18561 2.82061 9.08071 2.63703C8.80972 2.14751 8.26775 1.92023 7.72578 2.02513C7.2887 2.11254 6.98275 2.37479 6.78169 2.75942C6.73798 2.84683 6.68553 2.8818 6.58938 2.87305C6.47574 2.86431 6.3621 2.87305 6.24846 2.87305C5.96873 2.87305 5.78516 3.05663 5.78516 3.33636C5.78516 3.5986 5.78516 3.86085 5.78516 4.13183C5.78516 4.45527 5.95999 4.6301 6.28342 4.6301V4.62136Z" fill="#454B4D"/>
<path d="M10.3656 10.1548C9.94599 10.3296 9.59633 10.6268 9.35156 10.994C9.60507 10.6268 9.95473 10.3296 10.3656 10.1548Z" fill="#454B4D"/>
<path d="M8.95801 12.2876C8.95801 11.8069 9.10661 11.361 9.35138 10.9939C9.09787 11.361 8.95801 11.8069 8.95801 12.2876Z" fill="#454B4D"/>
<path d="M11.2659 9.19325C11.6418 9.19325 12.0002 9.27192 12.3324 9.39431C12.3324 7.80335 12.3324 6.21239 12.3324 4.63017C12.3324 4.45534 12.2887 4.26303 12.2275 4.10568C12.0352 3.6249 11.4932 3.27524 11.0299 3.32768V4.11442C11.0299 4.93613 10.4705 5.49558 9.64875 5.49558C8.52983 5.49558 7.41092 5.49558 6.292 5.49558C5.4703 5.49558 4.91084 4.93613 4.91084 4.11442C4.91084 3.93959 4.91084 3.76476 4.91084 3.58993V3.31894C4.19403 3.3102 3.59961 3.90463 3.59961 4.63017C3.59961 7.3925 3.59961 10.1461 3.59961 12.9084C3.59961 13.6602 4.17655 14.2371 4.91958 14.2371C6.23955 14.2371 7.56826 14.2371 8.88823 14.2371C8.45116 13.7039 8.18017 13.0308 8.18017 12.2878C8.18017 10.5832 9.56133 9.20199 11.2659 9.20199V9.19325Z" fill="#454B4D"/>
<path d="M12.3409 10.2422C12.2884 10.216 12.236 10.1723 12.1748 10.1548C12.236 10.181 12.2884 10.216 12.3409 10.2422Z" fill="#454B4D"/>
<path d="M13.3288 11.2473C13.2152 11.0287 13.0841 10.8189 12.9092 10.6528C12.7431 10.4867 12.5508 10.3556 12.341 10.2507C12.2886 10.2245 12.2361 10.1808 12.1749 10.1633C11.8952 10.0497 11.5893 9.97974 11.2746 9.97974C10.9599 9.97974 10.6539 10.0409 10.3742 10.1633C9.95459 10.3381 9.60493 10.6354 9.36017 11.0025C9.10666 11.3696 8.9668 11.8155 8.9668 12.2962C8.9668 13.1179 9.39513 13.8348 10.042 14.2456C10.4004 14.4729 10.8287 14.6127 11.2833 14.6127C11.6067 14.6127 11.9039 14.5516 12.1837 14.4292C12.3235 14.368 12.4547 14.2981 12.577 14.2194C12.9442 13.9659 13.2414 13.6162 13.4162 13.1966C13.5299 12.9169 13.5998 12.6109 13.5998 12.2962C13.5998 11.9204 13.5036 11.5707 13.3463 11.256L13.3288 11.2473ZM12.3847 11.798L12.3323 11.8417L11.7816 12.3662L10.9162 13.1791L10.1382 12.4361C10.042 12.3399 10.042 12.1913 10.1382 12.0952C10.2343 11.999 10.3829 11.999 10.4791 12.0952L10.9249 12.5235L11.4494 12.0253L12.0438 11.4571C12.1225 11.3784 12.2361 11.3871 12.3235 11.4396C12.341 11.4483 12.3673 11.4483 12.3847 11.4658C12.4809 11.562 12.4721 11.7106 12.3847 11.8067V11.798Z" fill="#454B4D"/>
<path d="M12.3854 11.7983C12.4816 11.7021 12.4816 11.5535 12.3854 11.4574C12.3679 11.4399 12.3504 11.4399 12.3242 11.4312C12.3242 11.571 12.3242 11.7109 12.3242 11.842L12.3767 11.7983H12.3854Z" fill="white"/>
</svg>
