<svg width="40" height="40" viewBox="0 0 40 40" fill="none" xmlns="http://www.w3.org/2000/svg">
<circle cx="20" cy="20" r="20" fill="#ED1C24"/>
<path fill-rule="evenodd" clip-rule="evenodd" d="M8 32H32V8H8V32Z" fill="#ED1C24"/>
<path fill-rule="evenodd" clip-rule="evenodd" d="M12.9778 11.0283C11.9073 11.0283 11.0273 11.9009 11.0273 12.9788C11.0273 14.0567 11.8999 14.9293 12.9778 14.9293C14.0558 14.9293 14.9284 14.0494 14.9284 12.9788C14.9284 11.9082 14.0558 11.0283 12.9778 11.0283ZM12.9778 14.0421C12.3912 14.0421 11.9073 13.5654 11.9073 12.9715C11.9073 12.3775 12.3912 11.9009 12.9778 11.9009C13.5645 11.9009 14.0484 12.3849 14.0484 12.9715C14.0484 13.5581 13.5718 14.0421 12.9778 14.0421Z" fill="white"/>
<path fill-rule="evenodd" clip-rule="evenodd" d="M19.9818 11.0283C18.9112 11.0283 18.0312 11.9009 18.0312 12.9788C18.0312 14.0567 18.9038 14.9293 19.9818 14.9293C21.0597 14.9293 21.9323 14.0494 21.9323 12.9788C21.9323 11.9082 21.0523 11.0283 19.9818 11.0283ZM19.9818 14.0421C19.3951 14.0421 18.9112 13.5654 18.9112 12.9715C18.9112 12.3775 19.3951 11.9009 19.9818 11.9009C20.5684 11.9009 21.0523 12.3849 21.0523 12.9715C21.0523 13.5581 20.5684 14.0421 19.9818 14.0421Z" fill="white"/>
<path fill-rule="evenodd" clip-rule="evenodd" d="M26.9622 11.0283C25.8843 11.0283 25.0117 11.9009 25.0117 12.9788C25.0117 14.0567 25.8843 14.9293 26.9622 14.9293C28.0401 14.9293 28.9127 14.0494 28.9127 12.9788C28.9127 11.9082 28.0401 11.0283 26.9622 11.0283ZM26.9622 14.0421C26.3756 14.0421 25.8916 13.5654 25.8916 12.9715C25.8916 12.3775 26.3683 11.9009 26.9622 11.9009C27.5562 11.9009 28.0328 12.3849 28.0328 12.9715C28.0328 13.5581 27.5562 14.0421 26.9622 14.0421Z" fill="white"/>
<path fill-rule="evenodd" clip-rule="evenodd" d="M12.9778 18.0459C11.9073 18.0459 11.0273 18.9185 11.0273 19.9964C11.0273 21.0743 11.8999 21.9469 12.9778 21.9469C14.0558 21.9469 14.9284 21.067 14.9284 19.9964C14.9284 18.9258 14.0558 18.0459 12.9778 18.0459ZM12.9778 21.067C12.3912 21.067 11.9073 20.5904 11.9073 19.9964C11.9073 19.4025 12.3912 18.9258 12.9778 18.9258C13.5645 18.9258 14.0484 19.4098 14.0484 19.9964C14.0484 20.583 13.5718 21.067 12.9778 21.067Z" fill="white"/>
<path fill-rule="evenodd" clip-rule="evenodd" d="M19.9818 18.0459C18.9112 18.0459 18.0312 18.9185 18.0312 19.9964C18.0312 21.0743 18.9038 21.9469 19.9818 21.9469C21.0597 21.9469 21.9323 21.067 21.9323 19.9964C21.9323 18.9258 21.0523 18.0459 19.9818 18.0459ZM19.9818 21.067C19.3951 21.067 18.9112 20.5904 18.9112 19.9964C18.9112 19.4025 19.3951 18.9258 19.9818 18.9258C20.5684 18.9258 21.0523 19.4098 21.0523 19.9964C21.0523 20.583 20.5684 21.067 19.9818 21.067Z" fill="white"/>
<path fill-rule="evenodd" clip-rule="evenodd" d="M26.9622 18.0459C25.8843 18.0459 25.0117 18.9185 25.0117 19.9964C25.0117 21.0743 25.8843 21.9469 26.9622 21.9469C28.0401 21.9469 28.9127 21.067 28.9127 19.9964C28.9127 18.9258 28.0401 18.0459 26.9622 18.0459ZM26.9622 21.067C26.3756 21.067 25.8916 20.5904 25.8916 19.9964C25.8916 19.4025 26.3683 18.9258 26.9622 18.9258C27.5562 18.9258 28.0328 19.4098 28.0328 19.9964C28.0328 20.583 27.5562 21.067 26.9622 21.067Z" fill="white"/>
<path fill-rule="evenodd" clip-rule="evenodd" d="M20.8261 25.1514H20.0195V28.8397H20.8261V25.1514Z" fill="white"/>
<path fill-rule="evenodd" clip-rule="evenodd" d="M18.3023 25.1221V25.4814C17.9943 25.2541 17.613 25.1221 17.2024 25.1221C16.1758 25.1221 15.3398 25.958 15.3398 26.9846C15.3398 28.0112 16.1684 28.8471 17.2024 28.8471C17.613 28.8471 17.9943 28.7078 18.3023 28.4878V28.8178H19.1015V25.1294H18.3023V25.1221ZM17.239 27.9452C16.6891 27.9452 16.2418 27.4979 16.2418 26.9479C16.2418 26.398 16.6891 25.9507 17.239 25.9507C17.789 25.9507 18.2363 26.398 18.2363 26.9479C18.2363 27.4979 17.789 27.9452 17.239 27.9452Z" fill="white"/>
<path fill-rule="evenodd" clip-rule="evenodd" d="M23.8034 26.3027C23.7521 26.002 23.5028 25.782 23.0995 25.782C22.8868 25.782 22.4322 25.8554 22.4322 26.1193C22.4322 26.5226 23.1288 26.5446 23.2975 26.5593C24.4121 26.6546 24.7347 27.1313 24.7347 27.6885C24.7347 28.0992 24.5147 28.4145 24.2141 28.6345C23.9501 28.8178 23.4148 28.8911 23.0848 28.8911C22.3589 28.8911 21.611 28.5025 21.5156 27.6299H22.3369C22.3809 28.0405 22.8208 28.2018 23.0775 28.2018C23.5395 28.2018 23.8548 28.0112 23.8548 27.7912C23.8548 27.4466 23.5175 27.3732 23.0408 27.3146C22.7622 27.2852 22.2489 27.1973 22.0289 27.0213C21.7943 26.8306 21.589 26.6253 21.589 26.2587C21.589 25.6134 22.1022 25.1001 23.1215 25.1001C23.9721 25.1001 24.6174 25.5841 24.632 26.2953H23.8034V26.3027Z" fill="white"/>
<path fill-rule="evenodd" clip-rule="evenodd" d="M13.9468 23.8604V25.4809C13.6388 25.2536 13.2575 25.1216 12.8469 25.1216C11.8203 25.1216 10.9844 25.9575 10.9844 26.9841C10.9844 28.0107 11.8203 28.8466 12.8469 28.8466C13.2575 28.8466 13.6388 28.7073 13.9468 28.4873V28.8173H14.7461V23.8677H13.9468V23.8604ZM12.8982 27.9447C12.3483 27.9447 11.901 27.4974 11.901 26.9474C11.901 26.3975 12.3483 25.9502 12.8982 25.9502C13.4482 25.9502 13.9028 26.3975 13.9028 26.9474C13.9028 27.4974 13.4555 27.9447 12.8982 27.9447Z" fill="white"/>
<path fill-rule="evenodd" clip-rule="evenodd" d="M27.0417 25.1074C26.0151 25.1074 25.1719 25.9434 25.1719 26.9773C25.1719 28.0112 26.0078 28.8471 27.0417 28.8471C28.0756 28.8471 28.9116 28.0038 28.9116 26.9773C28.9116 25.9507 28.0756 25.1074 27.0417 25.1074ZM27.0417 28.0038C26.4771 28.0038 26.0151 27.5492 26.0151 26.9773C26.0151 26.4053 26.4771 25.9507 27.0417 25.9507C27.6063 25.9507 28.0683 26.4126 28.0683 26.9773C28.0683 27.5419 27.6063 28.0038 27.0417 28.0038Z" fill="white"/>
</svg>
