<svg width="40" height="40" viewBox="0 0 40 40" fill="none" xmlns="http://www.w3.org/2000/svg">
<circle cx="20" cy="20" r="20" fill="#E7241F"/>
<path d="M5 17.7779C5 17.3743 5.31946 17.0562 5.7218 17.0562H7.68134C9.24791 17.0562 10.1943 17.9838 10.1943 19.3258V19.3445C10.1943 20.8643 9.01265 21.6516 7.54099 21.6516H6.44359V23.011C6.44359 23.4146 6.12413 23.7328 5.7218 23.7328C5.31946 23.7328 5 23.4133 5 23.011V17.7779ZM7.58911 20.3671C8.31091 20.3671 8.73329 19.9353 8.73329 19.3726V19.3539C8.73329 18.7069 8.28284 18.3594 7.56104 18.3594H6.44493V20.3657H7.58911V20.3671Z" fill="white"/>
<path d="M9.96445 22.7489L12.2528 17.5814C12.4119 17.2245 12.7033 17.0093 13.0962 17.0093H13.1805C13.5748 17.0093 13.8555 17.2245 14.0145 17.5814L16.3029 22.7489C16.3497 22.8518 16.3777 22.9454 16.3777 23.039C16.3777 23.4239 16.077 23.7327 15.6934 23.7327C15.3552 23.7327 15.1306 23.5362 14.9997 23.2354L14.5586 22.2035H11.67L11.2102 23.2822C11.0886 23.5629 10.844 23.7327 10.5446 23.7327C10.169 23.7327 9.87891 23.4319 9.87891 23.0577C9.87891 22.9547 9.91633 22.8518 9.96312 22.7489H9.96445ZM14.0239 20.9297L13.115 18.763L12.2047 20.9297H14.0239Z" fill="white"/>
<path d="M17.9058 21.1451L15.7872 18.2659C15.6842 18.1256 15.6094 17.9558 15.6094 17.75C15.6094 17.365 15.9288 17.0562 16.3312 17.0562C16.66 17.0562 16.8658 17.234 17.0436 17.4973L18.6382 19.795L20.261 17.4786C20.4387 17.2166 20.6553 17.0469 20.9547 17.0469C21.3958 17.0469 21.6578 17.3556 21.6578 17.75C21.6578 17.9464 21.5642 18.1256 21.4706 18.2566L19.352 21.117V23.0111C19.352 23.4147 19.0326 23.7328 18.6302 23.7328C18.2279 23.7328 17.9084 23.4134 17.9084 23.0111V21.1451H17.9058Z" fill="white"/>
<path d="M21.7031 20.4138V20.3951C21.7031 18.5291 23.1093 17 25.1263 17C26.1114 17 26.7771 17.262 27.3211 17.6657C27.4708 17.7779 27.6018 17.9838 27.6018 18.2377C27.6018 18.6321 27.2837 18.9408 26.8894 18.9408C26.6929 18.9408 26.5619 18.866 26.4576 18.8005C26.054 18.4997 25.6329 18.3313 25.117 18.3313C24.0102 18.3313 23.2136 19.2509 23.2136 20.3751V20.3938C23.2136 21.5192 23.9915 22.4562 25.117 22.4562C25.7265 22.4562 26.1301 22.2691 26.5418 21.9403C26.6541 21.8467 26.8038 21.7812 26.9736 21.7812C27.3398 21.7812 27.6486 22.082 27.6486 22.4469C27.6486 22.6714 27.5363 22.8506 27.4053 22.9628C26.8145 23.4788 26.1208 23.7876 25.0702 23.7876C23.1387 23.7876 21.7045 22.2972 21.7045 20.4125L21.7031 20.4138Z" fill="white"/>
<path d="M28.0234 20.4138V20.3951C28.0234 18.5291 29.4951 17 31.5215 17C33.5479 17 35.0008 18.5091 35.0008 20.3751V20.3938C35.0008 22.2598 33.5291 23.7889 31.5028 23.7889C29.4764 23.7889 28.0234 22.2785 28.0234 20.4138ZM33.4904 20.4138V20.3951C33.4904 19.2696 32.6657 18.3327 31.5028 18.3327C30.3399 18.3327 29.5339 19.2523 29.5339 20.3764V20.3951C29.5339 21.5206 30.3586 22.4576 31.5215 22.4576C32.6844 22.4576 33.4904 21.538 33.4904 20.4138Z" fill="white"/>
</svg>
