<svg width="40" height="40" viewBox="0 0 40 40" fill="none" xmlns="http://www.w3.org/2000/svg">
<circle cx="20" cy="20" r="19.5" fill="white" stroke="#EFEFF1"/>
<path d="M10.8479 22.1284C10.6757 22.1284 10.5297 22.1902 10.4061 22.3119C10.2844 22.4336 10.2227 22.5889 10.2227 22.7724C10.2227 22.9559 10.2826 23.1131 10.4061 23.2386C10.5278 23.364 10.6757 23.4276 10.8479 23.4276C11.0202 23.4276 11.1681 23.364 11.2935 23.2386C11.4189 23.1131 11.4826 22.9577 11.4826 22.7724C11.4826 22.5871 11.4189 22.4336 11.2935 22.3119C11.1681 22.1902 11.0183 22.1284 10.8479 22.1284Z" fill="#DB292A"/>
<path d="M12.5679 13H8.55601C8.25086 13 8 13.2509 8 13.556V25.747C8 26.0521 8.25086 26.303 8.55601 26.303H12.5679C12.873 26.303 13.1239 26.0521 13.1239 25.747V13.556C13.1239 13.2509 12.873 13 12.5679 13Z" fill="#DB292A"/>
<path d="M9.11719 19.6362H10.2723V18.5261H11.1634V16.5417H9.37928V15.5195H12.2155V18.9117H11.3225V19.6362H12.4776V20.649H9.11719V19.6362Z" fill="#DB292A"/>
<path d="M12.3763 23.4235C12.2902 23.6257 12.1722 23.7998 12.0243 23.9496C11.8746 24.0974 11.7005 24.2154 11.4983 24.3015C11.2961 24.3876 11.0808 24.4307 10.8487 24.4307C10.6165 24.4307 10.4031 24.3876 10.2047 24.3015C10.0062 24.2154 9.83214 24.0974 9.68425 23.9496C9.53448 23.8017 9.41841 23.6257 9.3323 23.4235C9.24618 23.2213 9.20312 23.006 9.20312 22.7739C9.20312 22.5418 9.24618 22.3358 9.3323 22.1336C9.41841 21.9315 9.53635 21.7574 9.68425 21.6076C9.83214 21.4597 10.0062 21.3418 10.2047 21.2556C10.4031 21.1695 10.6184 21.1265 10.8487 21.1265C11.0789 21.1265 11.2961 21.1695 11.4983 21.2556C11.7005 21.3418 11.8746 21.4597 12.0243 21.6076C12.1722 21.7574 12.2902 21.9315 12.3763 22.1336C12.4624 22.3358 12.5055 22.5492 12.5055 22.7739C12.5055 22.9985 12.4624 23.2213 12.3763 23.4235Z" fill="#DB292A"/>
<path d="M14.92 15.6789C15.1221 15.5928 15.3374 15.5498 15.5696 15.5498C15.8672 15.5498 16.1405 15.6209 16.3877 15.7632C16.6366 15.9055 16.8332 16.0945 16.9774 16.3342V16.1451H18.0688V15.063H19.1209V21.2259C19.2239 21.2558 19.3212 21.297 19.4129 21.3457V13.556C19.4129 13.2509 19.1621 13 18.8569 13H14.8451C14.5399 13 14.2891 13.2509 14.2891 13.556V16.1376C14.319 16.1002 14.3527 16.0646 14.3864 16.0309C14.538 15.883 14.7159 15.7651 14.9162 15.6789" fill="#DB292A"/>
<path d="M18.6057 22.1284C18.4335 22.1284 18.2875 22.1902 18.1639 22.3119C18.0422 22.4336 17.9805 22.5889 17.9805 22.7724C17.9805 22.9559 18.0422 23.1131 18.1639 23.2386C18.2856 23.364 18.4335 23.4276 18.6057 23.4276C18.778 23.4276 18.9259 23.364 19.0513 23.2386C19.1767 23.1131 19.2404 22.9577 19.2404 22.7724C19.2404 22.5871 19.1767 22.4336 19.0513 22.3119C18.9259 22.1902 18.7761 22.1284 18.6057 22.1284Z" fill="#DB292A"/>
<path d="M18.0711 17.1371H17.2287L17.238 17.2158C17.238 17.2888 17.2324 17.3543 17.2231 17.4142C17.2137 17.4741 17.2006 17.534 17.1875 17.592H18.0711V17.1353V17.1371Z" fill="#DB292A"/>
<path d="M15.5721 16.5513C15.3999 16.5513 15.252 16.6149 15.1266 16.7403C15.0012 16.8658 14.9375 17.0249 14.9375 17.2159C14.9375 17.4068 14.9993 17.5566 15.1266 17.682C15.252 17.8074 15.4018 17.8711 15.5721 17.8711C15.7425 17.8711 15.8923 17.8074 16.0196 17.682C16.145 17.5566 16.2086 17.4012 16.2086 17.2159C16.2086 17.0305 16.145 16.8658 16.0196 16.7403C15.8941 16.6149 15.7444 16.5513 15.5721 16.5513Z" fill="#DB292A"/>
<path d="M18.6044 24.4289C18.3722 24.4289 18.1569 24.3859 17.9604 24.2998C17.7619 24.2136 17.5878 24.0957 17.4399 23.9478C17.2902 23.7999 17.1741 23.6239 17.088 23.4218C17.0019 23.2196 16.9588 23.0043 16.9588 22.7721C16.9588 22.409 17.0618 22.087 17.2658 21.8099C17.4699 21.5328 17.7376 21.3363 18.0689 21.2239V18.5824H16.9775V18.1069C16.8259 18.3391 16.6274 18.5263 16.3822 18.6667C16.137 18.809 15.8655 18.8801 15.5697 18.8801C15.3376 18.8801 15.1223 18.837 14.9201 18.7509C14.7179 18.6648 14.542 18.5469 14.3903 18.3934C14.3566 18.3597 14.3229 18.3222 14.293 18.2848V25.7431C14.293 26.0483 14.542 26.2991 14.849 26.2991H18.8608C19.166 26.2991 19.4168 26.0483 19.4168 25.7431V24.2193C19.3663 24.2473 19.3139 24.2735 19.2577 24.2979C19.0555 24.384 18.8402 24.4271 18.6081 24.4271" fill="#DB292A"/>
<path d="M23.0312 18.5261H23.488V19.6362H23.8063V18.5261H24.1732L23.6172 17.3242L23.0312 18.5261Z" fill="#DB292A"/>
<path d="M25.1538 13H21.1419C20.8368 13 20.5859 13.2509 20.5859 13.556V25.747C20.5859 26.0521 20.8368 26.303 21.1419 26.303H25.1538C25.4589 26.303 25.7098 26.0521 25.7098 25.747V13.556C25.7098 13.2509 25.4589 13 25.1538 13ZM25.4159 20.6493H21.8421V19.6365H22.5685V19.0112L21.8646 18.6836L23.6206 15.2821L25.3672 18.6743L24.712 18.9925V19.6365H25.4178V20.6493H25.4159Z" fill="#DB292A"/>
<path d="M28.555 16.5513H28.0664V17.8898H28.555V16.5513Z" fill="#DB292A"/>
<path d="M31.1883 24.429C30.9561 24.429 30.7427 24.386 30.5443 24.2998C30.3458 24.2137 30.1717 24.0958 30.0238 23.9479C29.8759 23.8 29.758 23.624 29.6719 23.4218C29.5858 23.2197 29.5427 23.0044 29.5427 22.7722C29.5427 22.409 29.6457 22.0871 29.8497 21.81C30.0557 21.5329 30.3234 21.3363 30.6528 21.224V15.063H31.705V21.2259C31.8079 21.2558 31.9053 21.297 31.9989 21.3457V13.556C31.9989 13.2509 31.748 13 31.4429 13H27.431C27.1259 13 26.875 13.2509 26.875 13.556V15.5198H29.9096V16.5513H29.4248V17.8899H29.919V18.912H26.875V25.747C26.875 26.0521 27.1259 26.303 27.431 26.303H31.4429C31.748 26.303 31.9989 26.0521 31.9989 25.747V24.2231C31.9483 24.2512 31.894 24.2774 31.8397 24.3017C31.6376 24.3878 31.4223 24.4309 31.1901 24.4309" fill="#DB292A"/>
<path d="M31.1878 22.1284C31.0155 22.1284 30.8695 22.1902 30.746 22.3119C30.6243 22.4336 30.5625 22.5889 30.5625 22.7724C30.5625 22.9559 30.6243 23.1131 30.746 23.2386C30.8676 23.364 31.0155 23.4276 31.1878 23.4276C31.36 23.4276 31.5079 23.364 31.6352 23.2386C31.7606 23.1131 31.8243 22.9577 31.8243 22.7724C31.8243 22.5871 31.7606 22.4336 31.6352 22.3119C31.5098 22.1902 31.36 22.1284 31.1878 22.1284Z" fill="#DB292A"/>
<path d="M27.1801 16.5513H26.875V17.8898H27.1801V16.5513Z" fill="#DB292A"/>
<path d="M12.4776 19.6362H11.3225V18.9117H12.2155V15.5195H9.37928V16.5417H11.1634V18.5261H10.2723V19.6362H9.11719V20.649H12.4776V19.6362Z" fill="white"/>
<path d="M12.0243 21.6076C11.8746 21.4597 11.7005 21.3418 11.4983 21.2556C11.2961 21.1695 11.0808 21.1265 10.8487 21.1265C10.6165 21.1265 10.4031 21.1695 10.2047 21.2556C10.0062 21.3418 9.83214 21.4597 9.68425 21.6076C9.53448 21.7574 9.41841 21.9315 9.3323 22.1336C9.24618 22.3358 9.20312 22.5492 9.20312 22.7739C9.20312 22.9985 9.24618 23.2213 9.3323 23.4235C9.41841 23.6257 9.53635 23.7998 9.68425 23.9496C9.83214 24.0974 10.0062 24.2154 10.2047 24.3015C10.4031 24.3876 10.6184 24.4307 10.8487 24.4307C11.0789 24.4307 11.2961 24.3876 11.4983 24.3015C11.7005 24.2154 11.8746 24.0974 12.0243 23.9496C12.1722 23.8017 12.2902 23.6257 12.3763 23.4235C12.4624 23.2213 12.5055 23.006 12.5055 22.7739C12.5055 22.5418 12.4624 22.3358 12.3763 22.1336C12.2902 21.9315 12.1722 21.7574 12.0243 21.6076ZM11.2942 23.24C11.1688 23.3655 11.0209 23.4291 10.8487 23.4291C10.6764 23.4291 10.5304 23.3655 10.4069 23.24C10.2852 23.1146 10.2234 22.9592 10.2234 22.7739C10.2234 22.5886 10.2833 22.435 10.4069 22.3134C10.5286 22.1917 10.6764 22.1299 10.8487 22.1299C11.0209 22.1299 11.1688 22.1917 11.2942 22.3134C11.4197 22.435 11.4833 22.5904 11.4833 22.7739C11.4833 22.9574 11.4197 23.1146 11.2942 23.24Z" fill="white"/>
<path d="M19.121 21.2259V15.063H18.0689V16.145H16.9775V16.3341C16.8315 16.0964 16.6349 15.9054 16.3878 15.7631C16.1407 15.6209 15.8674 15.5497 15.5697 15.5497C15.3376 15.5497 15.1223 15.5928 14.9201 15.6789C14.7179 15.765 14.542 15.883 14.3903 16.0309C14.3566 16.0645 14.3229 16.1001 14.293 16.1376V18.2904C14.3229 18.3279 14.3566 18.3635 14.3903 18.399C14.542 18.5507 14.7198 18.6705 14.9201 18.7566C15.1223 18.8427 15.3376 18.8858 15.5697 18.8858C15.8674 18.8858 16.1388 18.8146 16.3822 18.6723C16.6274 18.5301 16.8259 18.3429 16.9775 18.1126V18.5881H18.0689V21.2296C17.7376 21.3419 17.4699 21.5366 17.2658 21.8156C17.0599 22.0926 16.9588 22.4146 16.9588 22.7778C16.9588 23.0099 17.0019 23.2252 17.088 23.4274C17.1741 23.6296 17.292 23.8037 17.4399 23.9535C17.5897 24.1014 17.7619 24.2193 17.9604 24.3054C18.1588 24.3915 18.3741 24.4346 18.6044 24.4346C18.8346 24.4346 19.0518 24.3915 19.254 24.3054C19.3083 24.2811 19.3625 24.2549 19.4131 24.2268V21.3494C19.3214 21.3007 19.224 21.2614 19.1192 21.2296M16.0172 17.682C15.8917 17.8074 15.742 17.8711 15.5697 17.8711C15.3975 17.8711 15.2496 17.8074 15.1242 17.682C14.9987 17.5566 14.9351 17.4012 14.9351 17.2159C14.9351 17.0305 14.9969 16.8658 15.1242 16.7404C15.2496 16.6149 15.3994 16.5513 15.5697 16.5513C15.7401 16.5513 15.8898 16.6149 16.0172 16.7404C16.1426 16.8658 16.2062 17.0249 16.2062 17.2159C16.2062 17.4068 16.1426 17.5566 16.0172 17.682ZM17.1872 17.5922C17.2003 17.5323 17.2115 17.4723 17.2228 17.4143C17.2321 17.3544 17.2377 17.2889 17.2377 17.2159L17.2284 17.1372H18.0708V17.594H17.1872V17.5922ZM19.0518 23.2402C18.9264 23.3656 18.7766 23.4293 18.6062 23.4293C18.4359 23.4293 18.2861 23.3656 18.1644 23.2402C18.0427 23.1148 17.981 22.9594 17.981 22.7741C17.981 22.5887 18.0427 22.4352 18.1644 22.3135C18.2861 22.1918 18.434 22.1301 18.6062 22.1301C18.7785 22.1301 18.9264 22.1918 19.0518 22.3135C19.1772 22.4352 19.2409 22.5906 19.2409 22.7741C19.2409 22.9575 19.1772 23.1148 19.0518 23.2402Z" fill="white"/>
<path d="M24.7097 18.9927L25.365 18.6744L23.6183 15.2822L21.8623 18.6838L22.5662 19.0114V19.6367H21.8398V20.6495H25.4155V19.6367H24.7097V18.9927ZM23.8074 18.5265V19.6367H23.4891V18.5265H23.0324L23.6183 17.3265L24.1743 18.5265H23.8074Z" fill="white"/>
<path d="M29.919 17.8896H29.4248V16.551H29.9096V15.5195H26.875V16.551H27.1801V17.8896H26.875V18.9117H29.919V17.8896ZM28.5524 17.8896H28.0638V16.551H28.5524V17.8896Z" fill="white"/>
<path d="M31.7052 21.2259V15.063H30.6531V21.2259C30.3218 21.3382 30.054 21.5329 29.85 21.8118C29.6441 22.0889 29.543 22.4109 29.543 22.7741C29.543 23.0062 29.586 23.2215 29.6721 23.4237C29.7583 23.6259 29.8762 23.8 30.0241 23.9497C30.1739 24.0976 30.3461 24.2156 30.5445 24.3017C30.743 24.3878 30.9583 24.4308 31.1885 24.4308C31.4188 24.4308 31.6359 24.3878 31.8381 24.3017C31.8924 24.2773 31.9467 24.2511 31.9973 24.223V21.3457C31.9055 21.297 31.8082 21.2577 31.7033 21.2259M31.6359 23.2402C31.5105 23.3656 31.3608 23.4293 31.1904 23.4293C31.02 23.4293 30.8721 23.3656 30.7486 23.2402C30.6269 23.1148 30.5651 22.9594 30.5651 22.7741C30.5651 22.5887 30.6269 22.4352 30.7486 22.3135C30.8703 22.1918 31.0182 22.1301 31.1904 22.1301C31.3626 22.1301 31.5105 22.1918 31.6359 22.3135C31.7614 22.4352 31.825 22.5906 31.825 22.7741C31.825 22.9575 31.7614 23.1148 31.6359 23.2402Z" fill="white"/>
</svg>
