<svg width="28" height="28" viewBox="0 0 28 28" fill="none" xmlns="http://www.w3.org/2000/svg">
<mask id="mask0_2223_4828" style="mask-type:alpha" maskUnits="userSpaceOnUse" x="7" y="7" width="14" height="14">
<rect x="7" y="7" width="14" height="14" fill="#FFA9A9"/>
</mask>
<g mask="url(#mask0_2223_4828)">
<path d="M11.4149 20.312C11.2732 20.2842 11.1425 20.2159 11.0386 20.1156C10.9348 20.0152 10.8622 19.8869 10.8295 19.7462L8.30941 8.81849C8.27908 8.63084 8.32121 8.43866 8.42728 8.28092C8.53335 8.12317 8.69543 8.01165 8.88066 7.96894C9.06589 7.92624 9.26044 7.95555 9.42486 8.05094C9.58929 8.14633 9.71131 8.30066 9.76619 8.48265L11.5343 16.1489L13.1949 8.45847C13.2323 8.29367 13.3243 8.14634 13.456 8.04042C13.5876 7.9345 13.7513 7.87621 13.9203 7.87502C14.0892 7.87383 14.2537 7.92981 14.3868 8.03387C14.52 8.13793 14.614 8.28395 14.6537 8.44822L16.4219 16.114L18.0825 8.42363C18.1351 8.24112 18.2549 8.08538 18.4179 7.9879C18.5809 7.89043 18.7749 7.8585 18.9605 7.89857C19.1461 7.93864 19.3096 8.04772 19.4179 8.20375C19.5262 8.35978 19.5712 8.55111 19.5437 8.73903L17.1763 19.7012C17.1389 19.866 17.0469 20.0134 16.9153 20.1193C16.7836 20.2252 16.62 20.2835 16.451 20.2847C16.282 20.2859 16.1176 20.2299 15.9844 20.1258C15.8513 20.0218 15.7572 19.8757 15.7175 19.7115L13.9489 12.0477L12.2883 19.7381C12.2466 19.9294 12.1317 20.0967 11.9681 20.2043C11.8046 20.3119 11.6054 20.3512 11.4133 20.3138" fill="white"/>
<path d="M7.59478 14.3491C7.41485 14.3112 7.25514 14.2085 7.14606 14.0604C7.03698 13.9124 6.98615 13.7294 7.00325 13.5464C7.02035 13.3633 7.10418 13.1929 7.23878 13.0676C7.37339 12.9424 7.54936 12.871 7.73319 12.8671L20.2959 12.7804C20.4856 12.7918 20.6638 12.8749 20.7945 13.0128C20.9252 13.1506 20.9987 13.333 21 13.523C21.0013 13.7129 20.9304 13.8963 20.8016 14.036C20.6729 14.1757 20.4959 14.2612 20.3064 14.2753L7.74349 14.3627C7.69359 14.3631 7.64377 14.3586 7.59478 14.3491Z" fill="white"/>
</g>
<circle cx="14" cy="14" r="13" stroke="white" stroke-width="2"/>
</svg>
