<svg width="40" height="40" viewBox="0 0 40 40" fill="none" xmlns="http://www.w3.org/2000/svg">
<circle cx="20" cy="20" r="19.5" fill="white" stroke="#EFEFF1"/>
<path d="M25.8939 19.9626C25.8939 21.5994 24.5681 22.9252 22.9313 22.9252C21.2946 22.9252 19.9688 21.5994 19.9688 19.9626C19.9688 18.3258 21.296 17 22.9313 17C24.5667 17 25.8939 18.3273 25.8939 19.9626Z" fill="#EB5A04"/>
<path d="M24.3378 19.9626C24.3378 20.7399 23.7087 21.3705 22.9313 21.3705C22.154 21.3705 21.5234 20.7399 21.5234 19.9626C21.5234 19.1852 22.154 18.5562 22.9313 18.5562C23.7087 18.5562 24.3378 19.1867 24.3378 19.9626Z" fill="white"/>
<path d="M23.6713 19.9626C23.6713 20.3714 23.3402 20.704 22.9313 20.704C22.5225 20.704 22.1914 20.3729 22.1914 19.9626C22.1914 19.5523 22.5225 19.2227 22.9313 19.2227C23.3402 19.2227 23.6713 19.5538 23.6713 19.9626Z" fill="#231916"/>
<path d="M20.0769 22.2904L18.8015 17.5385C18.7785 17.4564 18.7036 17.3945 18.6129 17.3945C18.5481 17.3945 18.4906 17.4262 18.456 17.4751L16.7847 19.7338L16.7113 19.7799L16.6379 19.7338L14.9665 17.4751C14.9305 17.4262 14.8744 17.3945 14.8096 17.3945C14.7204 17.3945 14.6441 17.455 14.621 17.5385L13.3456 22.2919L13.3398 22.3394C13.3398 22.4459 13.4277 22.5337 13.5342 22.5337H14.7304C14.8197 22.5337 14.896 22.4733 14.919 22.3912L15.3451 20.7588C15.3538 20.7242 15.4027 20.7141 15.4243 20.7444L16.5903 22.3696C16.622 22.4142 16.6666 22.4387 16.7127 22.4387C16.7588 22.4387 16.8034 22.4128 16.8351 22.3696L17.9997 20.7444C18.0213 20.7141 18.0702 20.7242 18.0803 20.7588L18.5049 22.3912C18.528 22.4733 18.6028 22.5337 18.6935 22.5337H19.8898C19.9963 22.5337 20.0856 22.4459 20.0856 22.3394L20.0798 22.2919" fill="#231916"/>
<path d="M8.23165 17.3945C8.10065 17.3945 8.02867 17.4478 8.0042 17.55C7.98548 17.6335 8.02723 17.7371 8.17262 17.8365C8.30218 17.9243 8.37848 18.0726 8.37848 18.349V18.7952C8.37848 18.9017 8.46629 18.9896 8.57282 18.9896H10.0239C10.1304 18.9896 10.2168 19.0774 10.2168 19.1825V22.3365C10.2168 22.443 10.3046 22.5308 10.4111 22.5308H11.6794C11.7859 22.5308 11.8751 22.443 11.8751 22.3365V19.1839C11.8751 19.0788 11.9615 18.991 12.068 18.991H13.5796C13.6861 18.991 13.7739 18.9032 13.7739 18.7967V17.5889C13.7739 17.4823 13.6861 17.3945 13.5796 17.3945H8.23165Z" fill="#231916"/>
<path d="M31.7667 22.5323C31.8977 22.5323 31.9697 22.479 31.9942 22.3768C32.0129 22.2933 31.9726 22.1897 31.8258 22.0903C31.6948 22.0011 31.6199 21.8543 31.6199 21.5779V17.5889C31.6199 17.4823 31.5335 17.3945 31.4256 17.3945H30.2207C30.1141 17.3945 30.0263 17.4823 30.0263 17.5889V19.8749C30.0263 19.9555 29.9515 19.9756 29.9054 19.9166L28.0182 17.5457C27.9433 17.4536 27.8281 17.3945 27.7015 17.3945H26.4951C26.3886 17.3945 26.3008 17.4823 26.3008 17.5889V22.3379C26.3008 22.4445 26.3886 22.5323 26.4951 22.5323H27.7029C27.8109 22.5323 27.8987 22.4445 27.8987 22.3379V20.0505C27.8987 19.9728 27.9649 19.9397 28.021 20.0073L29.904 22.3811C29.986 22.4805 30.0825 22.5308 30.2207 22.5308H31.7653L31.7667 22.5323Z" fill="#231916"/>
</svg>
