<svg width="40" height="40" viewBox="0 0 40 40" fill="none" xmlns="http://www.w3.org/2000/svg">
<circle cx="20" cy="20" r="19.5" fill="white" stroke="#EFEFF1"/>
<mask id="mask0_2163_12259" style="mask-type:luminance" maskUnits="userSpaceOnUse" x="8" y="17" width="6" height="4">
<path d="M8 18.4869L11.0457 18.5831C11.3489 18.7425 11.6336 18.9495 11.8882 19.2041C12.1429 19.4587 12.3499 19.7434 12.5092 20.0467C13.5296 19.2838 13.7162 18.2051 12.6463 17.001H9.06317C8.47813 17 8 17.4781 8 18.0632V18.4869Z" fill="white"/>
</mask>
<g mask="url(#mask0_2163_12259)">
<path d="M13.7162 17H8V20.0457H13.7162V17Z" fill="url(#paint0_linear_2163_12259)"/>
</g>
<mask id="mask1_2163_12259" style="mask-type:luminance" maskUnits="userSpaceOnUse" x="11" y="17" width="4" height="6">
<path d="M12.6057 17C13.179 18.2809 12.94 19.8367 11.8894 20.8882C11.6348 21.1429 11.3501 21.3499 11.0469 21.5092C11.662 22.5423 12.7505 22.6511 14.0925 21.6336V18.0632C14.0925 17.4781 13.6144 17 13.0294 17H12.6057Z" fill="white"/>
</mask>
<g mask="url(#mask1_2163_12259)">
<path d="M14.0925 17H11.0469V22.6511H14.0925V17Z" fill="url(#paint1_linear_2163_12259)"/>
</g>
<mask id="mask2_2163_12259" style="mask-type:luminance" maskUnits="userSpaceOnUse" x="8" y="20" width="7" height="4">
<path d="M14.0897 21.6047C12.8089 22.1781 11.253 21.939 10.2015 20.8885C9.94686 20.6338 9.73986 20.3491 9.58048 20.0459C8.45803 20.9254 8.4454 22.0566 9.43665 23.0916H13.0256C13.6106 23.0916 14.0887 22.6134 14.0887 22.0284V21.6047H14.0897Z" fill="white"/>
</mask>
<g mask="url(#mask2_2163_12259)">
<path d="M14.0887 20.0459H8.44531V23.0916H14.0887V20.0459Z" fill="url(#paint2_linear_2163_12259)"/>
</g>
<mask id="mask3_2163_12259" style="mask-type:luminance" maskUnits="userSpaceOnUse" x="8" y="18" width="4" height="6">
<path d="M9.48688 23.0916C8.91351 21.8107 9.15258 20.2548 10.2031 19.2033C10.4577 18.9487 10.7425 18.7417 11.0457 18.5823C10.0991 18.0838 8.96987 18.0527 8 18.4861V22.0274C8 22.6125 8.47813 23.0906 9.06317 23.0906H9.48688V23.0916Z" fill="white"/>
</mask>
<g mask="url(#mask3_2163_12259)">
<path d="M11.0457 18.0527H8V23.0916H11.0457V18.0527Z" fill="url(#paint3_linear_2163_12259)"/>
</g>
<path d="M30.4735 18.3876C30.5464 18.3876 30.6086 18.4275 30.661 18.5071C30.7135 18.5868 30.7398 18.6801 30.7398 18.787C30.7398 18.8939 30.7135 18.9843 30.661 19.065C30.6086 19.1456 30.5464 19.1864 30.4735 19.1864C30.4006 19.1864 30.3413 19.1456 30.2879 19.065C30.2344 18.9843 30.2072 18.892 30.2072 18.787C30.2072 18.6821 30.2344 18.5868 30.2879 18.5071C30.3413 18.4275 30.4035 18.3876 30.4735 18.3876ZM29.6513 18.3429H29.9691C29.9079 18.4002 29.8583 18.4663 29.8224 18.5421C29.7864 18.6179 29.768 18.6996 29.768 18.7861C29.768 18.925 29.8127 19.0494 29.9011 19.1612C29.9895 19.2729 30.1032 19.3507 30.2422 19.3964V19.6043H29.6348V19.8638H31.0401C31.1334 19.8638 31.2237 19.8551 31.3112 19.8366C31.3987 19.8181 31.4745 19.7948 31.5376 19.7647V20.5868H31.9983V17.7618H31.5376V19.5392C31.4803 19.5577 31.4113 19.5732 31.3297 19.5849C31.248 19.5975 31.1567 19.6034 31.0566 19.6034H30.7019V19.3954C30.8408 19.3497 30.9545 19.272 31.0449 19.1602C31.1353 19.0485 31.18 18.9241 31.18 18.7851C31.18 18.6986 31.1615 18.617 31.1256 18.5412C31.0896 18.4654 31.0401 18.3983 30.9788 18.3419H31.2956V18.0825H30.7019V17.7443H30.2412V18.0825H29.6513V18.3419V18.3429ZM27.7437 20.3254V20.0562H28.7019V20.3254H27.7437ZM27.283 19.5033V20.2778C27.283 20.3692 27.3122 20.443 27.3714 20.4994C27.4307 20.5567 27.5075 20.5849 27.6037 20.5849H29.1625V19.5033H28.7019V19.7929H27.7437V19.5033H27.283ZM27.6173 18.374C27.6902 18.374 27.7534 18.4119 27.8068 18.4867C27.8603 18.5616 27.8865 18.651 27.8865 18.753C27.8865 18.8551 27.8603 18.9445 27.8068 19.0193C27.7534 19.0941 27.6902 19.132 27.6173 19.132C27.5444 19.132 27.4842 19.0941 27.4298 19.0193C27.3753 18.9445 27.3481 18.856 27.3481 18.753C27.3481 18.65 27.3753 18.5616 27.4298 18.4867C27.4842 18.4119 27.5473 18.374 27.6173 18.374ZM28.733 18.9202H28.2927C28.3015 18.8949 28.3083 18.8687 28.3131 18.8395C28.318 18.8113 28.3199 18.7822 28.3199 18.752C28.3199 18.7404 28.3199 18.7287 28.318 18.7161C28.317 18.7035 28.3151 18.6908 28.3131 18.6772H28.733V18.9192V18.9202ZM28.4327 18.306V18.0533H27.8496V17.7151H27.3889V18.0533H26.8059V18.306H27.1402C27.0721 18.3623 27.0177 18.4304 26.9759 18.5071C26.9351 18.5849 26.9147 18.6665 26.9147 18.753C26.9147 18.9211 26.9837 19.0659 27.1227 19.1884C27.2616 19.3099 27.4259 19.3711 27.6173 19.3711C27.7174 19.3711 27.8117 19.3536 27.8991 19.3186C27.9866 19.2836 28.0624 19.236 28.1256 19.1767H28.733V19.3507H29.1936V17.7608H28.733V18.4265H28.2072C28.1917 18.4041 28.1732 18.3818 28.1547 18.3614C28.1353 18.341 28.1159 18.3225 28.0955 18.307H28.4336L28.4327 18.306ZM25.2655 17.9105C25.3608 17.9105 25.4434 17.9484 25.5114 18.0251C25.5794 18.1009 25.6134 18.1933 25.6134 18.3002C25.6134 18.4071 25.5794 18.4955 25.5114 18.5732C25.4434 18.651 25.3617 18.6889 25.2655 18.6889C25.1693 18.6889 25.0906 18.65 25.0216 18.5732C24.9526 18.4955 24.9176 18.4051 24.9176 18.3002C24.9176 18.1952 24.9526 18.1019 25.0216 18.0251C25.0906 17.9493 25.1722 17.9105 25.2655 17.9105ZM25.2655 17.6714C25.0449 17.6714 24.8574 17.7326 24.7048 17.8541C24.5512 17.9756 24.4745 18.1243 24.4745 18.2992C24.4745 18.4741 24.5512 18.6189 24.7048 18.7414C24.8583 18.8628 25.0459 18.9241 25.2655 18.9241C25.4852 18.9241 25.6756 18.8628 25.8282 18.7414C25.9808 18.6199 26.0566 18.4722 26.0566 18.2992C26.0566 18.1262 25.9808 17.9756 25.8282 17.8541C25.6756 17.7326 25.4881 17.6714 25.2655 17.6714ZM25.2655 19.7491C25.3384 19.7491 25.4035 19.7851 25.4618 19.858C25.5201 19.9309 25.5493 20.0106 25.5493 20.097C25.5493 20.1884 25.5201 20.2691 25.4618 20.341C25.4035 20.4129 25.3384 20.4488 25.2655 20.4488C25.1926 20.4488 25.1246 20.4129 25.0673 20.341C25.0109 20.2691 24.9818 20.1884 24.9818 20.097C24.9818 20.0057 25.0099 19.9309 25.0673 19.858C25.1246 19.7851 25.1897 19.7491 25.2655 19.7491ZM25.5415 19.3225V19.5412C25.4988 19.5276 25.4541 19.5169 25.4084 19.5101C25.3627 19.5033 25.3151 19.4994 25.2655 19.4994C25.216 19.4994 25.1674 19.5023 25.1227 19.5101C25.077 19.5169 25.0333 19.5276 24.9895 19.5412V19.3225H25.5425H25.5415ZM23.9458 19.063V19.3225H24.5357V19.6461H24.7748C24.697 19.7005 24.6358 19.7666 24.5891 19.8444C24.5425 19.9221 24.5192 20.0057 24.5192 20.097C24.5192 20.2652 24.5921 20.409 24.7378 20.5266C24.8836 20.6451 25.0595 20.7044 25.2665 20.7044C25.4735 20.7044 25.6465 20.6451 25.7922 20.5266C25.938 20.408 26.0109 20.2652 26.0109 20.097C26.0109 20.0057 25.9886 19.9221 25.9429 19.8444C25.8972 19.7666 25.835 19.7015 25.7553 19.6461H25.9973V19.3225H26.5872V19.063H23.9468H23.9458ZM22.0371 20.3293V19.7326H22.9749V20.3293H22.0371ZM21.5775 19.4722V20.2807C21.5775 20.3721 21.6066 20.4459 21.6649 20.5023C21.7232 20.5596 21.801 20.5878 21.8982 20.5878H23.4366V19.4722H21.5775ZM21.4881 18.0397H22.9924V18.4255C22.9924 18.5052 22.9886 18.583 22.9818 18.6588C22.9749 18.7346 22.9604 18.8026 22.937 18.8619H21.1732V19.1243H23.7835V18.8619H23.3404C23.3724 18.821 23.3987 18.7559 23.421 18.6656C23.4424 18.5761 23.4531 18.4906 23.4531 18.4109V17.7802H21.4881V18.0397ZM20.802 17.7637H20.3413V19.8512H20.802V17.7637ZM19.3821 19.6432H18.9215V20.2807C18.9215 20.376 18.9516 20.4518 19.0119 20.5062C19.0721 20.5606 19.1479 20.5878 19.2383 20.5878H20.903V20.3254H19.3812V19.6432H19.3821ZM18.9769 17.8074V18.2642C18.9769 18.5208 18.905 18.7336 18.7621 18.9017C18.6193 19.0698 18.4531 19.1728 18.2636 19.2088L18.492 19.4032C18.6329 19.3876 18.7786 19.3274 18.9283 19.2224C19.078 19.1175 19.1713 19.0057 19.2082 18.8842C19.249 19.0047 19.3433 19.1175 19.491 19.2234C19.6387 19.3293 19.7854 19.3886 19.9312 19.4022L20.1528 19.2078C19.9681 19.1719 19.8039 19.0698 19.6601 18.9046C19.5153 18.7384 19.4434 18.5246 19.4434 18.2632V17.8065H18.9759L18.9769 17.8074ZM17.594 18.8862H17.2393C17.2548 18.8473 17.2675 18.8065 17.2752 18.7637C17.283 18.72 17.2869 18.6762 17.2869 18.6306C17.2869 18.5849 17.283 18.5412 17.2752 18.4994C17.2675 18.4576 17.2568 18.4168 17.2432 18.3779H17.595V18.8862H17.594ZM17.594 18.1145H17.0887C17.0138 18.03 16.9225 17.9629 16.8136 17.9134C16.7058 17.8628 16.5891 17.8385 16.4638 17.8385C16.2383 17.8385 16.0459 17.9153 15.8855 18.0689C15.7252 18.2224 15.6445 18.409 15.6445 18.6296C15.6445 18.8502 15.7252 19.0339 15.8855 19.1874C16.0459 19.341 16.2383 19.4177 16.4638 19.4177C16.5862 19.4177 16.7019 19.3934 16.8088 19.3449C16.9157 19.2963 17.007 19.2302 17.0818 19.1485H17.594V20.5878H18.0576V17.7627H17.594V18.1145ZM16.1071 18.6335C16.1071 18.4809 16.1431 18.3536 16.215 18.2516C16.2869 18.1495 16.3705 18.098 16.4657 18.098C16.561 18.098 16.6484 18.1495 16.7203 18.2516C16.7922 18.3536 16.8282 18.479 16.8282 18.6267C16.8282 18.7744 16.7922 18.9027 16.7203 19.0057C16.6484 19.1077 16.5648 19.1592 16.4696 19.1592C16.3744 19.1592 16.2869 19.1087 16.215 19.0076C16.1431 18.9066 16.1071 18.7822 16.1071 18.6345V18.6335Z" fill="#122975"/>
<path d="M31.8282 22.1835L31.7621 21.9396H31.7582L31.6853 22.1835H31.8282ZM31.9963 22.409H31.9059L31.8496 22.2448H31.6659L31.6163 22.409H31.5279L31.7048 21.8823H31.8195L31.9963 22.409ZM31.4579 22.3468V22.409H31.1479V21.8823H31.4531V21.9425H31.2354V22.1009H31.4181V22.1612H31.2354V22.3458H31.4579V22.3468ZM30.9108 22.0261C30.9108 21.9707 30.8778 21.9435 30.8117 21.9435H30.7271V22.1194H30.801C30.836 22.1194 30.8622 22.1116 30.8817 22.0951C30.9011 22.0786 30.9108 22.0562 30.9108 22.0271V22.0261ZM31.0498 22.409H30.9507L30.7932 22.1806H30.7271V22.409H30.6397V21.8823H30.8088C30.8369 21.8823 30.8622 21.8862 30.8855 21.893C30.9089 21.8998 30.9283 21.9095 30.9448 21.9221C30.9613 21.9347 30.973 21.9503 30.9817 21.9678C30.9905 21.9853 30.9944 22.0057 30.9944 22.028C30.9944 22.0436 30.9915 22.0591 30.9866 22.0727C30.9808 22.0873 30.974 22.1 30.9633 22.1116C30.9536 22.1233 30.9419 22.134 30.9273 22.1427C30.9127 22.1515 30.8972 22.1583 30.8797 22.1622L31.0498 22.409ZM30.4132 22.1379C30.4132 22.0689 30.4064 22.0193 30.3928 21.9882C30.3753 21.9493 30.3433 21.9299 30.2966 21.9299C30.248 21.9299 30.215 21.9503 30.1985 21.9901C30.1849 22.0232 30.1781 22.0727 30.1781 22.1388C30.1781 22.2156 30.1849 22.27 30.1985 22.3021C30.216 22.3419 30.249 22.3614 30.2966 22.3614C30.3442 22.3614 30.3773 22.341 30.3938 22.3001C30.4064 22.2691 30.4132 22.2156 30.4132 22.1379ZM30.5065 22.1388C30.5065 22.2525 30.4822 22.3312 30.4317 22.375C30.3967 22.4051 30.352 22.4197 30.2956 22.4197C30.2393 22.4197 30.1965 22.4051 30.1606 22.375C30.111 22.3332 30.0857 22.2545 30.0857 22.1388C30.0857 22.0368 30.1091 21.9649 30.1547 21.9221C30.1926 21.8881 30.2393 21.8706 30.2947 21.8706C30.3549 21.8706 30.4035 21.8881 30.4385 21.9231C30.4832 21.9668 30.5056 22.0378 30.5056 22.1379L30.5065 22.1388ZM30.0362 22.409H29.9341L29.733 22.1359V22.409H29.6465V21.8823H29.733V22.1213L29.9098 21.8823H30.0051L29.8214 22.1242L30.0352 22.409H30.0362ZM29.353 21.9435H29.1353V22.098H29.3131V22.1612H29.1363V22.41H29.0478V21.8832H29.353V21.9445V21.9435ZM28.8214 22.1379C28.8214 22.0689 28.8146 22.0193 28.801 21.9882C28.7835 21.9493 28.7514 21.9299 28.7048 21.9299C28.6581 21.9299 28.6231 21.9503 28.6066 21.9901C28.593 22.0232 28.5862 22.0727 28.5862 22.1388C28.5862 22.2156 28.593 22.27 28.6066 22.3021C28.6241 22.3419 28.6572 22.3614 28.7058 22.3614C28.7543 22.3614 28.7864 22.341 28.8029 22.3001C28.8156 22.2691 28.8224 22.2156 28.8224 22.1379H28.8214ZM28.9137 22.1388C28.9137 22.2525 28.8885 22.3312 28.8389 22.375C28.8039 22.4051 28.7592 22.4197 28.7028 22.4197C28.6465 22.4197 28.6037 22.4051 28.5678 22.375C28.5182 22.3332 28.4929 22.2545 28.4929 22.1388C28.4929 22.0368 28.5162 21.9649 28.5619 21.9221C28.5998 21.8881 28.6465 21.8706 28.7019 21.8706C28.7621 21.8706 28.8107 21.8881 28.8457 21.9231C28.8904 21.9668 28.9127 22.0378 28.9127 22.1379L28.9137 22.1388ZM28.1742 22.409H28.0925L27.8321 22.0174V22.409H27.7514V21.8823H27.8331L28.0925 22.2749V21.8823H28.1732V22.409H28.1742ZM27.526 22.1379C27.526 22.0689 27.5192 22.0193 27.5056 21.9882C27.4881 21.9493 27.456 21.9299 27.4093 21.9299C27.3608 21.9299 27.3277 21.9503 27.3112 21.9901C27.2976 22.0232 27.2908 22.0727 27.2908 22.1388C27.2908 22.2156 27.2976 22.27 27.3112 22.3021C27.3287 22.3419 27.3617 22.3614 27.4093 22.3614C27.457 22.3614 27.49 22.341 27.5065 22.3001C27.5192 22.2691 27.526 22.2156 27.526 22.1379ZM27.6183 22.1388C27.6183 22.2525 27.594 22.3312 27.5435 22.375C27.5085 22.4051 27.4638 22.4197 27.4074 22.4197C27.351 22.4197 27.3083 22.4051 27.2723 22.375C27.2228 22.3332 27.1975 22.2545 27.1975 22.1388C27.1975 22.0368 27.2208 21.9649 27.2665 21.9221C27.3044 21.8881 27.351 21.8706 27.4064 21.8706C27.4667 21.8706 27.5153 21.8881 27.5503 21.9231C27.595 21.9668 27.6173 22.0378 27.6173 22.1379L27.6183 22.1388ZM27.0653 22.409H26.9808V21.8823H27.0653V22.409ZM26.8865 21.9435H26.7456V22.409H26.6572V21.9445H26.5162V21.8823H26.8865V21.9435ZM26.3433 22.1835L26.2772 21.9396H26.2733L26.2004 22.1835H26.3433ZM26.5114 22.409H26.42L26.3637 22.2448H26.18L26.1304 22.409H26.042L26.2189 21.8823H26.3335L26.5104 22.409H26.5114ZM25.9468 22.409H25.8622V21.8823H25.9468V22.409ZM25.7543 22.3478C25.7466 22.3585 25.7369 22.3682 25.7252 22.3769C25.7135 22.3857 25.6999 22.3925 25.6853 22.3993C25.6708 22.4051 25.6552 22.41 25.6387 22.4139C25.6222 22.4168 25.6047 22.4187 25.5872 22.4187C25.4832 22.4187 25.4171 22.3769 25.387 22.2943C25.3753 22.2593 25.3685 22.2069 25.3685 22.1369C25.3685 22.0339 25.3928 21.961 25.4414 21.9202C25.4783 21.8881 25.5279 21.8725 25.5911 21.8725C25.6542 21.8725 25.7048 21.8939 25.7446 21.9357L25.6815 21.9668C25.661 21.9425 25.6309 21.9309 25.5911 21.9309C25.5541 21.9309 25.525 21.9406 25.5046 21.96C25.4754 21.9863 25.4609 22.0455 25.4609 22.1379C25.4609 22.168 25.4618 22.1942 25.4638 22.2175C25.4657 22.2409 25.4686 22.2603 25.4725 22.2768C25.4852 22.3322 25.5231 22.3604 25.5852 22.3604C25.627 22.3604 25.6601 22.3478 25.6844 22.3225L25.7534 22.3478H25.7543ZM25.1606 22.1379C25.1606 22.0689 25.1538 22.0193 25.1402 21.9882C25.1227 21.9493 25.0906 21.9299 25.0439 21.9299C24.9973 21.9299 24.9623 21.9503 24.9458 21.9901C24.9322 22.0232 24.9264 22.0727 24.9264 22.1388C24.9264 22.2156 24.9332 22.27 24.9458 22.3021C24.9633 22.3419 24.9963 22.3614 25.0449 22.3614C25.0935 22.3614 25.1246 22.341 25.1421 22.3001C25.1547 22.2691 25.1615 22.2156 25.1615 22.1379H25.1606ZM25.2539 22.1388C25.2539 22.2525 25.2286 22.3312 25.179 22.375C25.144 22.4051 25.0993 22.4197 25.043 22.4197C24.9866 22.4197 24.9438 22.4051 24.9079 22.375C24.8583 22.3332 24.8331 22.2545 24.8331 22.1388C24.8331 22.0368 24.8564 21.9649 24.9021 21.9221C24.94 21.8881 24.9866 21.8706 25.042 21.8706C25.1023 21.8706 25.1508 21.8881 25.1858 21.9231C25.2305 21.9668 25.2529 22.0378 25.2529 22.1379L25.2539 22.1388ZM24.731 22.2622C24.731 22.307 24.7116 22.3439 24.6717 22.374C24.6329 22.4041 24.5833 22.4187 24.524 22.4187C24.4541 22.4187 24.4006 22.3934 24.3617 22.3419L24.4298 22.3108C24.4502 22.3419 24.4832 22.3585 24.5269 22.3585C24.5425 22.3585 24.5571 22.3565 24.5697 22.3517C24.5823 22.3468 24.594 22.34 24.6027 22.3322C24.6115 22.3244 24.6193 22.3147 24.6241 22.3031C24.629 22.2924 24.6319 22.2797 24.6319 22.2671C24.6319 22.2243 24.595 22.1855 24.5221 22.1505C24.4268 22.1058 24.3792 22.0562 24.3792 22.0008C24.3792 21.9658 24.3928 21.9367 24.42 21.9114C24.4511 21.8852 24.4929 21.8716 24.5464 21.8716C24.6057 21.8716 24.6513 21.8939 24.6853 21.9377L24.6212 21.9658C24.6047 21.9415 24.5794 21.9289 24.5464 21.9289C24.5231 21.9289 24.5056 21.9357 24.492 21.9484C24.4783 21.961 24.4725 21.9756 24.4725 21.9921C24.4725 22.0251 24.4988 22.0523 24.5512 22.0737C24.6698 22.1223 24.7291 22.1845 24.7291 22.2613L24.731 22.2622ZM24.2616 22.2622C24.2616 22.307 24.2422 22.3439 24.2024 22.374C24.1635 22.4041 24.1139 22.4187 24.0546 22.4187C23.9847 22.4187 23.9312 22.3934 23.8923 22.3419L23.9604 22.3108C23.9808 22.3419 24.0138 22.3585 24.0576 22.3585C24.0731 22.3585 24.0877 22.3565 24.1003 22.3517C24.1129 22.3468 24.1246 22.34 24.1334 22.3322C24.1421 22.3244 24.1499 22.3147 24.1547 22.3031C24.1596 22.2924 24.1625 22.2797 24.1625 22.2671C24.1625 22.2243 24.1256 22.1855 24.0527 22.1505C23.9575 22.1058 23.9098 22.0562 23.9098 22.0008C23.9098 21.9658 23.9234 21.9367 23.9507 21.9114C23.9818 21.8852 24.0235 21.8716 24.077 21.8716C24.1363 21.8716 24.1819 21.8939 24.216 21.9377L24.1518 21.9658C24.1353 21.9415 24.11 21.9289 24.077 21.9289C24.0537 21.9289 24.0362 21.9357 24.0226 21.9484C24.009 21.961 24.0022 21.9756 24.0022 21.9921C24.0022 22.0251 24.0284 22.0523 24.0809 22.0737C24.1994 22.1223 24.2587 22.1845 24.2587 22.2613L24.2616 22.2622ZM23.6669 22.1835L23.6008 21.9396H23.5969L23.524 22.1835H23.6669ZM23.834 22.409H23.7427L23.6863 22.2448H23.5026L23.4531 22.409H23.3646L23.5415 21.8823H23.6562L23.8331 22.409H23.834ZM23.1091 22.3468V22.409H22.799V21.8823H23.1042V21.9425H22.8865V22.1009H23.0692V22.1612H22.8865V22.3458H23.1091V22.3468ZM22.6921 22.3478C22.6844 22.3585 22.6747 22.3682 22.663 22.3769C22.6513 22.3857 22.6377 22.3925 22.6231 22.3993C22.6086 22.4051 22.593 22.41 22.5755 22.4139C22.559 22.4168 22.5415 22.4187 22.524 22.4187C22.42 22.4187 22.354 22.3769 22.3238 22.2943C22.3122 22.2593 22.3054 22.2069 22.3054 22.1369C22.3054 22.0339 22.3297 21.961 22.3783 21.9202C22.4152 21.8881 22.4647 21.8725 22.5279 21.8725C22.5911 21.8725 22.6416 21.8939 22.6815 21.9357L22.6183 21.9668C22.5979 21.9425 22.5678 21.9309 22.5279 21.9309C22.491 21.9309 22.4618 21.9406 22.4414 21.96C22.4123 21.9863 22.3977 22.0455 22.3977 22.1379C22.3977 22.168 22.3987 22.1942 22.4006 22.2175C22.4025 22.2409 22.4055 22.2603 22.4093 22.2768C22.422 22.3322 22.4599 22.3604 22.5221 22.3604C22.5639 22.3604 22.5969 22.3478 22.6202 22.3225L22.6892 22.3478H22.6921ZM22.1742 22.409H22.0925L21.8321 22.0174V22.409H21.7514V21.8823H21.8331L22.0925 22.2749V21.8823H22.1732V22.409H22.1742ZM21.4881 22.1835L21.422 21.9396H21.4181L21.3452 22.1835H21.4881ZM21.6552 22.409H21.5639L21.5075 22.2448H21.3238L21.2743 22.409H21.1858L21.3627 21.8823H21.4774L21.6542 22.409H21.6552ZM21.0916 22.409H21.0099L20.7495 22.0174V22.409H20.6688V21.8823H20.7505L21.0099 22.2749V21.8823H21.0906V22.409H21.0916ZM20.5182 22.409H20.4336V21.8823H20.5182V22.409ZM20.3267 21.9435H20.1091V22.098H20.2869V22.1612H20.11V22.41H20.0216V21.8832H20.3267V21.9445V21.9435ZM19.7398 21.9435H19.5989V22.409H19.5104V21.9445H19.3695V21.8823H19.7398V21.9435ZM19.2752 22.409H19.1907V21.8823H19.2752V22.409ZM18.9701 22.1359C18.9701 22.0737 18.9652 22.0319 18.9565 22.0105C18.9361 21.9649 18.8923 21.9425 18.8263 21.9425H18.766V22.3497H18.8301C18.8914 22.3497 18.9322 22.3244 18.9526 22.2739C18.9643 22.2448 18.9711 22.1991 18.9711 22.1359H18.9701ZM19.0614 22.1349C19.0614 22.3176 18.9837 22.409 18.8282 22.409H18.6756V21.8823H18.8331C18.9196 21.8823 18.9818 21.9085 19.0187 21.96C19.0469 21.9999 19.0614 22.0582 19.0614 22.1349ZM18.5512 22.3468V22.409H18.2412V21.8823H18.5464V21.9425H18.3287V22.1009H18.5114V22.1612H18.3287V22.3458H18.5512V22.3468ZM18.0041 22.0261C18.0041 21.9707 17.9711 21.9435 17.9059 21.9435H17.8214V22.1194H17.8953C17.9302 22.1194 17.9565 22.1116 17.9759 22.0951C17.9954 22.0786 18.0051 22.0562 18.0051 22.0271L18.0041 22.0261ZM18.1431 22.409H18.0439L17.8865 22.1806H17.8204V22.409H17.733V21.8823H17.9021C17.9302 21.8823 17.9555 21.8862 17.9788 21.893C18.0022 21.8998 18.0216 21.9095 18.0381 21.9221C18.0546 21.9347 18.0663 21.9503 18.075 21.9678C18.0838 21.9853 18.0877 22.0057 18.0877 22.028C18.0877 22.0436 18.0848 22.0591 18.0799 22.0727C18.0741 22.0873 18.0673 22.1 18.0566 22.1116C18.0469 22.1233 18.0352 22.134 18.0206 22.1427C18.006 22.1515 17.9905 22.1583 17.973 22.1622L18.1431 22.409ZM17.6261 22.3478C17.6183 22.3585 17.6086 22.3682 17.5969 22.3769C17.5852 22.3857 17.5716 22.3925 17.5571 22.3993C17.5425 22.4051 17.5269 22.41 17.5094 22.4139C17.4929 22.4168 17.4754 22.4187 17.4579 22.4187C17.354 22.4187 17.2879 22.3769 17.2577 22.2943C17.2461 22.2593 17.2393 22.2069 17.2393 22.1369C17.2393 22.0339 17.2636 21.961 17.3122 21.9202C17.3491 21.8881 17.3987 21.8725 17.4618 21.8725C17.525 21.8725 17.5755 21.8939 17.6154 21.9357L17.5522 21.9668C17.5318 21.9425 17.5017 21.9309 17.4618 21.9309C17.4249 21.9309 17.3957 21.9406 17.3753 21.96C17.3462 21.9863 17.3316 22.0455 17.3316 22.1379C17.3316 22.168 17.3326 22.1942 17.3345 22.2175C17.3365 22.2409 17.3394 22.2603 17.3433 22.2768C17.3559 22.3322 17.3938 22.3604 17.456 22.3604C17.4978 22.3604 17.5308 22.3478 17.5551 22.3225L17.6241 22.3478H17.6261ZM16.9468 22.3468V22.409H16.6368V21.8823H16.9419V21.9425H16.7242V22.1009H16.9069V22.1612H16.7242V22.3458H16.9468V22.3468ZM16.4861 22.409H16.3967V22.1641H16.1965V22.409H16.1081V21.8823H16.1956V22.097H16.3967V21.8823H16.4861V22.409ZM16.0148 21.9435H15.8739V22.409H15.7854V21.9445H15.6445V21.8823H16.0148V21.9435Z" fill="#122975"/>
<defs>
<linearGradient id="paint0_linear_2163_12259" x1="6.7725" y1="19.1283" x2="11.7692" y2="19.1283" gradientUnits="userSpaceOnUse">
<stop stop-color="#D95900"/>
<stop offset="1" stop-color="#EFA900"/>
</linearGradient>
<linearGradient id="paint1_linear_2163_12259" x1="12.1879" y1="17.8149" x2="12.1879" y2="22.7716" gradientUnits="userSpaceOnUse">
<stop stop-color="#46A41B"/>
<stop offset="1" stop-color="#9ECC47"/>
</linearGradient>
<linearGradient id="paint2_linear_2163_12259" x1="13.5252" y1="21.8354" x2="8.51514" y2="21.8354" gradientUnits="userSpaceOnUse">
<stop stop-color="#0081DB"/>
<stop offset="1" stop-color="#5AB3EE"/>
</linearGradient>
<linearGradient id="paint3_linear_2163_12259" x1="9.82637" y1="22.4202" x2="9.82637" y2="17.5021" gradientUnits="userSpaceOnUse">
<stop stop-color="#7066A4"/>
<stop offset="1" stop-color="#ABA2CE"/>
</linearGradient>
</defs>
</svg>
