<svg width="40" height="40" viewBox="0 0 40 40" fill="none" xmlns="http://www.w3.org/2000/svg">
<circle cx="20" cy="20" r="19.5" fill="white" stroke="#EFEFF1"/>
<path d="M25.8794 19.6396C25.6026 19.6396 25.4155 19.8145 25.3718 19.9954L24.3828 24.1209H25.2645C25.47 24.1179 25.5612 24.0596 25.6026 23.8748L26.6185 19.6396H25.8794Z" fill="#0080CB"/>
<path d="M19.4592 21.9864C19.3894 22.2816 18.9563 24.1109 18.9563 24.1109H19.5075V24.1101C19.8188 24.1101 20.1193 23.9361 20.1845 23.6723C20.1845 23.6723 20.3616 22.9486 20.5663 22.1167C20.771 21.2857 20.2497 20.8594 19.3243 20.8594H17.0158C16.9123 20.8594 16.8893 20.9774 16.9936 21.0234C17.2504 21.1377 17.2956 21.2604 17.2435 21.4704L16.6133 24.1231H17.1645V24.1224C17.4758 24.1224 17.7763 23.9483 17.8415 23.6846L18.3483 21.6207C18.3805 21.5049 18.4219 21.4796 18.5346 21.4796H19.0828C19.3703 21.4796 19.529 21.6912 19.4592 21.9864Z" fill="#0080CB"/>
<path d="M10.7702 20.0898H8.40111C8.27384 20.0898 8.24624 20.2355 8.37504 20.2922C8.69398 20.4333 8.75072 20.5851 8.68862 20.8435L8.00474 23.6971C7.97867 23.8964 8.04997 24.1203 8.47855 24.1203L8.47548 24.1218H9.92298C11.4847 24.1218 12.5918 23.2931 12.8563 22.2051C13.1001 21.2046 12.5542 20.0898 10.7709 20.0898H10.7702ZM11.543 22.2481C11.2716 23.4065 10.1553 23.5752 9.49057 23.5752H9.38477L10.0648 20.7224H10.4344C11.5131 20.7224 11.7155 21.512 11.543 22.2481Z" fill="#E62310"/>
<path d="M15.1752 20.811C13.9232 20.811 13.4333 21.3025 13.3152 21.8346H14.1724C14.2376 21.8346 14.2805 21.8369 14.3288 21.7725C14.4561 21.6038 14.6799 21.3354 15.1507 21.3354C15.4221 21.3354 15.5271 21.4827 15.4834 21.6651C15.429 21.8921 15.2649 22.0025 14.8026 22.1213C13.8903 22.3521 13.0239 22.6074 12.8698 23.2506C12.7563 23.7244 12.9955 24.176 13.9462 24.176C14.21 24.176 14.7091 24.0679 15.0249 23.7658H15.0426C15.0426 23.7658 15.074 24.0863 15.5908 24.1208H15.9879L16.5261 21.8721C16.6411 21.4558 16.7001 20.811 15.1752 20.811ZM14.4239 23.614C13.9033 23.7083 13.7599 23.1241 14.4032 22.8481C14.6677 22.7346 14.992 22.6104 15.3247 22.5108C15.2718 22.7201 15.1315 23.486 14.4239 23.614Z" fill="#E62310"/>
<path d="M23.0065 20.811C21.7545 20.811 21.2646 21.3025 21.1465 21.8346H22.0037C22.0688 21.8346 22.1118 21.8369 22.1601 21.7725C22.2873 21.6038 22.5112 21.3354 22.9819 21.3354C23.2534 21.3354 23.3584 21.4827 23.3147 21.6651C23.2603 21.8921 23.0962 22.0025 22.6346 22.1213C21.7215 22.3521 20.8559 22.6074 20.7018 23.2506C20.5884 23.7244 20.8276 24.176 21.7783 24.176C22.042 24.176 22.5411 24.0679 22.857 23.7658H22.8746C22.8746 23.7658 22.9053 24.0863 23.4228 24.1208H23.8199L24.3589 21.8721C24.4739 21.4558 24.5329 20.811 23.008 20.811H23.0065ZM22.2551 23.614C21.7346 23.7083 21.5912 23.1241 22.2344 22.8481C22.4989 22.7346 22.8232 22.6104 23.156 22.5108C23.1031 22.7201 22.9628 23.486 22.2551 23.614Z" fill="#0080CB"/>
<path d="M25.0138 16.1644C24.9018 16.1598 24.7838 16.1621 24.658 16.1728C24.5814 16.1843 24.9708 16.9142 25.5842 17.1449C25.4937 17.1664 25.3994 17.1963 25.302 17.2346C25.2445 17.2615 25.6011 17.8526 26.2382 17.8265C26.1638 17.8572 26.0871 17.8955 26.0082 17.9431C25.9637 17.9737 26.4789 18.4314 27.1145 18.2697C27.9057 19.6244 27.9479 21.1547 27.7876 21.9567C31.6119 20.296 29.9236 16.1329 25.013 16.1644H25.0138Z" fill="#E62310"/>
<path d="M29.0089 15.0073C28.9 15.0173 29.1024 15.6459 29.7042 16.0523C29.7042 16.0538 29.7042 16.0554 29.7058 16.0569C29.5501 16.0178 29.383 15.9848 29.2036 15.958C29.0986 15.9473 29.1791 16.6235 29.7985 17.0459C29.7985 17.0459 29.7985 17.0459 29.7985 17.0467C29.6383 17.0106 29.4581 16.9907 29.255 16.9915C29.2044 16.9938 29.2818 17.4116 29.6912 17.8134C29.3539 19.392 28.3464 21.1001 27.7891 21.9573C32.1362 20.1548 34.0184 14.775 29.0089 15.0073Z" fill="#0080CB"/>
<path d="M29.5815 18.2412C29.1729 19.6918 28.2935 21.1768 27.7852 21.9573C29.7931 21.0856 30.2815 19.5239 29.5815 18.2412Z" fill="#2C1F86"/>
</svg>
