<svg width="24" height="24" viewBox="0 0 24 24" fill="none" xmlns="http://www.w3.org/2000/svg">
<g id="reservation">
<g id="Group 355834">
<g id="Group">
<path id="Vector" d="M22.5068 4.56326C22.0758 3.73981 21.4208 3.07076 20.5934 2.65904C19.8005 2.26447 18.9559 2.19585 17.508 2.19585V1.09793C17.508 0.497498 17.0081 0 16.4048 0C15.8015 0 15.3016 0.497498 15.3016 1.09793V2.19585H8.71705V1.09793C8.71705 0.497498 8.21718 0 7.61388 0C7.01058 0 6.5107 0.497498 6.5107 1.09793V2.19585C5.04555 2.19585 4.20093 2.26447 3.42526 2.65904C2.59788 3.08792 1.92563 3.73981 1.51194 4.56326C1.0293 5.50679 1.0293 6.50179 1.0293 8.50893V17.6698C1.0293 19.6769 1.0293 20.6891 1.51194 21.6154C1.94286 22.4389 2.59788 23.1079 3.42526 23.5197C4.3733 24 5.37305 24 7.3898 24H16.6117C18.6284 24 19.6454 24 20.5762 23.5368C21.4036 23.1079 22.0758 22.456 22.4895 21.6326C22.9722 20.6891 22.9722 19.6941 22.9722 17.6869V8.50893C22.9722 6.50179 22.9722 5.48964 22.4895 4.56326H22.5068ZM20.783 8.73195V17.6869C20.783 19.2995 20.783 20.1744 20.5417 20.6376C20.3349 21.0493 20.0074 21.3753 19.5937 21.5811C19.1283 21.8213 18.2319 21.8213 16.6289 21.8213H7.40703C5.78674 21.8213 4.90765 21.8213 4.44225 21.5811C4.02856 21.3753 3.70105 21.0493 3.49421 20.6376C3.25289 20.1744 3.25289 19.2823 3.25289 17.6869V8.50893C3.25289 6.89635 3.25289 6.02144 3.49421 5.55826C3.70105 5.14653 4.02856 4.82059 4.44225 4.61473C4.82146 4.42602 5.45924 4.37455 6.54518 4.37455V5.47248C6.54518 6.07291 7.04505 6.57041 7.64835 6.57041C8.25165 6.57041 8.75153 6.07291 8.75153 5.47248V4.37455H15.3361V5.47248C15.3361 6.07291 15.836 6.57041 16.4393 6.57041C17.0426 6.57041 17.5425 6.07291 17.5425 5.47248V4.37455C18.6112 4.37455 19.2662 4.42602 19.6454 4.61473C20.0591 4.82059 20.3866 5.14653 20.5934 5.55826C20.8348 6.02144 20.783 6.86204 20.783 8.45747V8.73195Z" fill="#12997A"/>
</g>
<path id="Vector_2" d="M10.7168 17.7557C10.4582 17.7557 10.1824 17.6527 9.99281 17.4469L6.54539 14.0159C6.14893 13.6213 6.14893 12.9694 6.54539 12.5577C6.94184 12.1631 7.59685 12.1631 8.01054 12.5577L10.734 15.2682L16.043 9.9844C16.4395 9.58983 17.0945 9.58983 17.5082 9.9844C17.9047 10.379 17.9047 11.0309 17.5082 11.4426L11.4752 17.4469C11.2684 17.6527 11.0098 17.7557 10.7512 17.7557H10.7168Z" fill="#12997A"/>
</g>
</g>
</svg>
