<svg width="16" height="16" viewBox="0 0 16 16" fill="none" xmlns="http://www.w3.org/2000/svg">
<g id="Group 2285">
<g id="Group 2284">
<path id="Vector" d="M1.97714 14.4033L4.39314 13.5478L4.816 13.7723C5.78743 14.2868 6.86743 14.561 8 14.561C11.7829 14.561 14.8571 11.3988 14.8571 7.88721C14.8571 4.37558 11.7829 1.21342 8 1.21342C4.21714 1.21342 1.14286 4.37558 1.14286 7.88721C1.14286 9.1977 1.58857 10.5276 2.408 11.6646L2.80229 12.2106L1.976 14.402L1.97714 14.4033ZM1.16914 15.9686C1.06572 16.0054 0.954545 16.01 0.848743 15.9818C0.742941 15.9537 0.646935 15.894 0.572065 15.8098C0.497196 15.7255 0.44659 15.6203 0.426226 15.5066C0.405861 15.3928 0.41659 15.2752 0.457143 15.1677L1.49943 12.4011C0.548571 11.0785 0 9.4962 0 7.88721C0 3.86595 3.42857 0 8 0C12.5714 0 16 3.86595 16 7.88721C16 11.9085 12.5714 15.7744 8 15.7744C6.71791 15.7783 5.45269 15.4641 4.30514 14.8571L1.16914 15.9674V15.9686Z" fill="white"/>
<path id="Vector_2" d="M7.99911 8.85944C7.87904 8.85944 7.76015 8.83433 7.64923 8.78554C7.5383 8.73676 7.43751 8.66526 7.35261 8.57511C7.26771 8.48497 7.20036 8.37796 7.15442 8.26019C7.10847 8.14241 7.08482 8.01618 7.08482 7.8887C7.08482 7.76122 7.10847 7.63499 7.15442 7.51722C7.20036 7.39944 7.26771 7.29243 7.35261 7.20229C7.43751 7.11215 7.5383 7.04065 7.64923 6.99186C7.76015 6.94308 7.87904 6.91797 7.99911 6.91797C8.24159 6.91797 8.47414 7.02024 8.64561 7.20229C8.81707 7.38434 8.91339 7.63125 8.91339 7.8887C8.91339 8.14616 8.81707 8.39307 8.64561 8.57511C8.47414 8.75716 8.24159 8.85944 7.99911 8.85944ZM11.4277 8.85944C11.3076 8.85944 11.1887 8.83433 11.0778 8.78554C10.9669 8.73676 10.8661 8.66526 10.7812 8.57511C10.6963 8.48497 10.6289 8.37796 10.583 8.26019C10.537 8.14241 10.5134 8.01618 10.5134 7.8887C10.5134 7.76122 10.537 7.63499 10.583 7.51722C10.6289 7.39944 10.6963 7.29243 10.7812 7.20229C10.8661 7.11215 10.9669 7.04065 11.0778 6.99186C11.1887 6.94308 11.3076 6.91797 11.4277 6.91797C11.6702 6.91797 11.9027 7.02024 12.0742 7.20229C12.2456 7.38434 12.342 7.63125 12.342 7.8887C12.342 8.14616 12.2456 8.39307 12.0742 8.57511C11.9027 8.75716 11.6702 8.85944 11.4277 8.85944ZM4.57054 8.85944C4.45047 8.85944 4.33158 8.83433 4.22065 8.78554C4.10973 8.73676 4.00894 8.66526 3.92404 8.57511C3.83914 8.48497 3.77179 8.37796 3.72585 8.26019C3.6799 8.14241 3.65625 8.01618 3.65625 7.8887C3.65625 7.76122 3.6799 7.63499 3.72585 7.51722C3.77179 7.39944 3.83914 7.29243 3.92404 7.20229C4.00894 7.11215 4.10973 7.04065 4.22065 6.99186C4.33158 6.94308 4.45047 6.91797 4.57054 6.91797C4.81302 6.91797 5.04557 7.02024 5.21703 7.20229C5.3885 7.38434 5.48482 7.63125 5.48482 7.8887C5.48482 8.14616 5.3885 8.39307 5.21703 8.57511C5.04557 8.75716 4.81302 8.85944 4.57054 8.85944Z" fill="white"/>
</g>
</g>
</svg>
