<svg width="25" height="25" viewBox="0 0 25 25" fill="none" xmlns="http://www.w3.org/2000/svg">
<rect width="25" height="25" rx="4" fill="#17BF98"/>
<path d="M11.6483 13.3888C11.6483 13.2992 11.6483 13.2392 11.6483 13.1792C11.6483 10.7667 11.6483 8.35422 11.6483 5.94172C11.6483 5.51547 11.8408 5.21297 12.1912 5.08131C12.6812 4.89672 13.2149 5.20422 13.2979 5.72131C13.3124 5.81297 13.3158 5.90756 13.3158 6.00089C13.3166 8.39256 13.3166 10.7842 13.3166 13.1759V13.3851C13.3745 13.343 13.4116 13.3188 13.4454 13.2905C14.2641 12.6084 15.0829 11.9263 15.9008 11.2438C16.1866 11.0055 16.5016 10.938 16.8416 11.1059C17.3916 11.378 17.4704 12.0917 16.9945 12.4967C16.4841 12.9313 15.9654 13.3567 15.4508 13.7863C14.6529 14.4526 13.8545 15.1184 13.0583 15.7867C12.7054 16.083 12.272 16.0917 11.922 15.7996C10.6095 14.7038 9.29702 13.6076 7.98452 12.5109C7.68244 12.2584 7.57952 11.888 7.71411 11.5446C7.84369 11.213 8.17911 10.9984 8.53827 11.0184C8.76202 11.0305 8.93994 11.1392 9.10744 11.2792C9.90452 11.9467 10.7041 12.6109 11.5029 13.2759C11.5412 13.3076 11.5816 13.3371 11.647 13.3884L11.6483 13.3888Z" fill="white"/>
<path d="M12.4746 20.0015C10.7334 20.0015 8.99172 20.0015 7.25047 20.0015C5.92714 20.0015 4.99672 19.0686 4.99672 17.742C4.99672 17.1024 4.99256 16.4628 4.99881 15.8236C5.00297 15.4028 5.32672 15.0578 5.74047 15.0136C6.14839 14.9703 6.52922 15.2324 6.63047 15.6353C6.65422 15.7295 6.65631 15.8307 6.65672 15.9286C6.65881 16.5315 6.65756 17.1349 6.65797 17.7378C6.65797 18.1474 6.85047 18.3399 7.25964 18.3399C10.7426 18.3399 14.2255 18.3399 17.7084 18.3399C18.1176 18.3399 18.3084 18.1478 18.3092 17.7365C18.3105 17.092 18.2996 16.447 18.3146 15.8024C18.3288 15.187 18.9988 14.8145 19.5371 15.1124C19.808 15.262 19.963 15.4999 19.9667 15.8086C19.9755 16.5261 19.988 17.244 19.9638 17.9607C19.9259 19.0924 18.9613 19.997 17.8092 19.9999C16.0313 20.0045 14.2534 20.0011 12.4759 20.0011L12.4746 20.0015Z" fill="white"/>
</svg>
