<svg width="12" height="9" viewBox="0 0 12 9" fill="none" xmlns="http://www.w3.org/2000/svg">
<g id="Group 2557">
<path id="Vector" d="M6.48737 4.30594C6.48737 3.21594 6.48737 2.11594 6.48737 1.02594C6.48737 0.835936 6.47737 0.645936 6.42737 0.465936C6.32737 0.0659364 5.93737 -0.114064 5.57737 0.0759364C5.42737 0.155936 5.28737 0.265936 5.14737 0.375936C4.62737 0.785936 4.10737 1.19594 3.59737 1.61594C3.53737 1.66594 3.50737 1.77594 3.50737 1.85594C3.50737 3.34594 3.50737 4.84594 3.50737 6.33594C3.50737 6.49594 3.49737 6.66594 3.50737 6.82594C3.50737 6.89594 3.55737 6.98594 3.61737 7.03594C4.10737 7.44594 4.59737 7.84594 5.09737 8.24594C5.24737 8.36594 5.41737 8.47594 5.58737 8.54594C5.97737 8.71594 6.33737 8.52594 6.43737 8.10594C6.47737 7.94594 6.48737 7.76594 6.48737 7.59594C6.48737 6.49594 6.48737 5.39594 6.48737 4.29594V4.30594Z" fill="#17BF98"/>
<path id="Vector_2" d="M2.8375 4.32875C2.8375 3.60875 2.8375 2.89875 2.8375 2.17875C2.8375 2.01875 2.7975 1.96875 2.6275 1.96875C2.1575 1.97875 1.6875 1.96875 1.2275 1.98875C0.5375 2.00875 0.0175 2.52875 0.0075 3.22875C-0.0025 3.96875 -0.0025 4.70875 0.0075 5.44875C0.0175 6.14875 0.5575 6.65875 1.2675 6.67875C1.7375 6.68875 2.2075 6.67875 2.6675 6.67875C2.8075 6.67875 2.8375 6.62875 2.8375 6.49875C2.8375 5.77875 2.8375 5.04875 2.8375 4.32875Z" fill="#17BF98"/>
<path id="Vector_3" d="M11.3069 4.17005C11.2669 3.18005 10.9769 2.13005 10.3969 1.16005C10.2169 0.870048 9.96692 0.810048 9.72692 1.00005C9.54692 1.14005 9.52692 1.32005 9.64692 1.57005C9.84692 2.02005 10.0869 2.45005 10.2169 2.92005C10.6469 4.40005 10.4469 5.80005 9.63692 7.11005C9.56692 7.23005 9.48692 7.35005 9.43692 7.47005C9.35692 7.65005 9.41692 7.83005 9.56692 7.94005C9.72692 8.06005 9.93692 8.05005 10.0869 7.91005C10.1469 7.86005 10.1969 7.79005 10.2369 7.73005C10.9169 6.74005 11.2969 5.52005 11.3069 4.17005Z" fill="#17BF98"/>
<path id="Vector_4" d="M9.06725 4.33804C9.06725 4.03804 9.05725 3.73804 8.98725 3.43804C8.91725 3.10804 8.81725 2.79804 8.67725 2.48804C8.59725 2.30804 8.46725 2.17804 8.24725 2.18804C7.96725 2.19804 7.79725 2.43804 7.86725 2.69804C7.96725 3.06804 8.10725 3.42804 8.16725 3.79804C8.26725 4.41804 8.22725 5.02804 7.97725 5.61804C7.93725 5.72804 7.89725 5.83804 7.86725 5.94804C7.80725 6.15804 7.88725 6.34804 8.07725 6.42804C8.26725 6.51804 8.47725 6.47804 8.58725 6.28804C8.69725 6.09804 8.79725 5.88804 8.84725 5.66804C8.95725 5.21804 9.03725 4.77804 9.04725 4.32804L9.06725 4.33804Z" fill="#17BF98"/>
</g>
</svg>
