<svg width="16" height="17" viewBox="0 0 16 17" fill="none" xmlns="http://www.w3.org/2000/svg">
<path d="M0.347542 16.0239C0.317908 16.0056 0.289108 15.9855 0.258221 15.9688C-0.013084 15.8194 -0.0781971 15.4888 0.117977 15.2493C0.15429 15.205 0.196864 15.1662 0.237351 15.1257C1.3305 14.0305 2.42323 12.9348 3.51763 11.8408C3.56104 11.7974 3.62073 11.7699 3.68417 11.7273C3.37447 11.4965 3.10441 11.3041 2.84396 11.0991C1.83304 10.3015 0.938152 9.38824 0.15429 8.36605C-0.0493971 8.10059 -0.0519014 7.92069 0.149699 7.66107C1.34845 6.11965 2.74337 4.79819 4.4576 3.84236C5.59833 3.20625 6.81211 2.81975 8.13273 2.84771C9.28432 2.87192 10.3516 3.21293 11.3654 3.74218C11.4113 3.76598 11.4573 3.79018 11.5495 3.85571C11.5816 3.80187 11.605 3.73884 11.6476 3.69544C12.7758 2.56138 13.9053 1.42858 15.0376 0.29912C15.1503 0.186842 15.2835 0.0962678 15.407 -0.00390625C15.4905 -0.00390625 15.5736 -0.00390625 15.6571 -0.00390625C15.8123 0.0699721 15.9267 0.185172 16.0006 0.340442V0.590877C15.9008 0.714425 15.8111 0.848825 15.6996 0.960686C10.7903 5.88299 5.87924 10.8032 0.966952 15.7222C0.855091 15.834 0.721525 15.9242 0.597977 16.0244H0.34796L0.347542 16.0239ZM9.94087 5.37293C8.79555 4.46845 6.86386 4.42295 5.60626 5.76946C4.37621 7.08633 4.55109 8.94706 5.38797 9.96508C5.59374 9.75847 5.80077 9.5552 5.99986 9.34442C6.02073 9.32229 6.0103 9.24842 5.98984 9.21294C5.70894 8.72584 5.60918 8.20702 5.68682 7.64897C5.85711 6.42309 7.06212 5.51109 8.28633 5.68097C8.64779 5.73106 8.9792 5.85502 9.27722 6.03867C9.50136 5.81412 9.71715 5.59749 9.94046 5.37335L9.94087 5.37293Z" fill="#C7C7C7"/>
<path d="M16 8.13498C15.6144 8.73268 15.1339 9.25275 14.641 9.75905C13.5879 10.8413 12.423 11.7767 11.0535 12.4329C10.0155 12.93 8.92733 13.2146 7.76866 13.1696C6.95015 13.1378 6.16629 12.9454 5.39453 12.6269C5.43084 12.5852 5.45881 12.5497 5.49053 12.5176C5.92796 12.0785 6.36831 11.6419 6.80198 11.1991C6.87502 11.1243 6.93387 11.1135 7.03154 11.1448C8.96532 11.7642 11.0297 10.4223 11.2568 8.40628C11.3102 7.93213 11.2668 7.47133 11.1307 7.01553C11.1161 6.96628 11.1191 6.88406 11.1504 6.85275C11.7973 6.19578 12.4493 5.54381 13.1121 4.87891C13.2561 4.99578 13.398 5.1068 13.5353 5.22367C14.3797 5.94117 15.144 6.73588 15.8197 7.61491C15.8853 7.70047 15.9404 7.79397 16.0005 7.88371V8.13414L16 8.13498Z" fill="#C7C7C7"/>
<path d="M7.69182 10.3012C8.55499 9.43095 9.41816 8.56069 10.2813 7.69043C10.2959 7.70086 10.3101 7.71088 10.3247 7.72132C10.4028 8.45133 10.2003 9.09579 9.68904 9.63005C9.15103 10.1923 8.48403 10.4147 7.71895 10.3446C7.70977 10.33 7.70059 10.3158 7.69141 10.3012H7.69182Z" fill="#C7C7C7"/>
</svg>
