<svg width="40" height="40" viewBox="0 0 40 40" fill="none" xmlns="http://www.w3.org/2000/svg">
<circle cx="20" cy="20" r="19.5" fill="white" stroke="#EFEFF1"/>
<path d="M9.3807 20.3594C9.3807 20.3594 9.85321 20.2321 10.307 20.85L10.7614 20.541C10.7614 20.541 10.2889 19.6691 9.21716 19.7964C9.21716 19.7964 8.0362 19.9599 8 21.0679V22.2488C8 22.2488 8 23.4117 9.3807 23.466C9.3807 23.466 10.307 23.5571 10.7614 22.7394L10.3438 22.4124C10.3438 22.4124 10.0349 22.9935 9.3807 22.9392C9.3807 22.9392 8.67225 22.903 8.63605 22.2488V21.1041C8.63605 21.1041 8.69035 20.3775 9.3807 20.3594Z" fill="#4B1019"/>
<path d="M12.5595 19.784C12.5595 19.784 11.0786 19.6605 11.1426 21.4866V22.2493C11.1426 22.2493 11.1788 23.418 12.5595 23.4697C12.5595 23.4697 13.9945 23.4665 14.0314 22.2493V21.0865C14.0314 21.0865 14.1949 19.8441 12.5595 19.784ZM13.3766 22.0761C13.3766 22.9571 12.5886 22.9209 12.5886 22.9209C11.769 22.8847 11.8142 22.0761 11.8142 22.0761V21.1039C11.8504 20.3412 12.5886 20.3774 12.5886 20.3774C13.3087 20.3774 13.3766 21.0134 13.3766 21.0134V22.0761Z" fill="#4B1019"/>
<path d="M16.8848 19.8506V22.1763C16.8848 22.1763 16.8938 22.9216 16.058 22.9216C16.058 22.9216 15.3043 22.9216 15.2953 22.2494V19.8512H14.6683V22.3218C14.6683 22.3218 14.614 23.4361 15.9216 23.4691C15.9216 23.4691 16.6482 23.4116 16.921 23.0664V23.4206H17.5208V19.8506H16.8848Z" fill="#4B1019"/>
<path d="M19.8621 19.8504C19.8621 19.8504 19.4626 19.7689 18.8989 20.1774V19.8504H18.3359V24.9103H18.9629V23.2026C18.9629 23.2026 19.2079 23.4721 19.8711 23.4689C19.8711 23.4689 21.1607 23.4114 21.1885 22.1851V20.7954C21.1885 20.7954 21.1794 19.8782 19.8621 19.8504ZM20.5796 22.2491C20.4794 22.9304 19.8071 22.9214 19.8071 22.9214C18.9351 22.8761 18.9532 22.1489 18.9532 22.1489V21.1134C19.0256 20.3688 19.7619 20.3772 19.7619 20.3772C20.5705 20.3953 20.5796 21.0313 20.5796 21.0313V22.2485V22.2491Z" fill="#D31729"/>
<path d="M23.2894 19.8053C23.2894 19.8053 22.7264 19.751 22.0089 20.069L22.2539 20.5687C22.2539 20.5687 22.4627 20.3864 23.144 20.3773C23.144 20.3773 24.025 20.3049 23.8705 21.1588C23.8705 21.1588 23.0619 20.6863 22.1628 21.2771C22.1628 21.2771 21.7452 21.5499 21.7723 22.2493C21.7723 22.2493 21.654 23.4122 22.9533 23.4665C22.9533 23.4665 23.6165 23.5027 23.9255 23.1122V23.4122H24.5434V20.8867C24.5434 20.8867 24.6249 19.8059 23.2901 19.8059L23.2894 19.8053ZM23.0981 22.9306C22.6889 22.9306 22.358 22.6093 22.358 22.2131C22.358 21.8169 22.6896 21.4956 23.0981 21.4956C23.5066 21.4956 23.8382 21.8169 23.8382 22.2131C23.8382 22.6093 23.5066 22.9306 23.0981 22.9306Z" fill="#F0AF39"/>
<path d="M25.2969 19.86V23.421H26.0053V21.0591C26.0053 21.0591 25.9601 20.3868 26.75 20.3868C26.75 20.3868 27.5315 20.3597 27.5315 20.9867V23.421H28.1675V21.05C28.1675 21.05 28.2399 19.86 26.887 19.86C26.887 19.86 26.4235 19.8057 25.9239 20.1961V19.8574L25.2969 19.86Z" fill="#9AC025"/>
<path d="M31.9991 20.4411V19.8574C31.9991 19.8574 31.681 19.7508 31.1271 20.105C31.1271 20.105 31.0728 20.1774 30.9997 20.105C30.9997 20.105 30.7638 19.7708 30.0644 19.8018C30.0644 19.8018 28.7651 19.86 28.7108 21.041C28.7108 21.041 28.6197 21.913 29.3288 22.1489C29.3288 22.1489 29.4012 22.2303 29.2835 22.2491C29.2835 22.2491 28.7477 22.4488 28.7658 23.0849C28.7658 23.0849 28.7929 23.6207 29.1562 23.5483C29.1562 23.5483 29.6106 23.4501 30.3191 23.4675C30.3191 23.4675 31.2182 23.3939 31.2732 23.8845C31.2732 23.8845 31.3546 24.1663 30.7373 24.6569L31.0553 25.0473C31.0553 25.0473 31.9273 24.7474 31.9454 23.8845C31.9454 23.8845 31.8911 22.9763 30.7101 22.931C30.7101 22.931 29.9015 22.9491 29.3656 23.0034C29.3656 23.0034 29.3113 22.9569 29.3656 22.8438C29.3656 22.8438 29.6837 22.3493 30.0288 22.3402C30.0288 22.3402 31.0915 22.3919 31.4729 21.635C31.4729 21.635 31.7088 20.869 31.4186 20.487C31.4186 20.487 31.5369 20.4237 31.9997 20.4418L31.9991 20.4411ZM30.1232 21.8671C29.7095 21.8671 29.374 21.5316 29.374 21.1179C29.374 20.7042 29.7095 20.3687 30.1232 20.3687C30.5369 20.3687 30.8724 20.7042 30.8724 21.1179C30.8724 21.5316 30.5369 21.8671 30.1232 21.8671Z" fill="#4FACDB"/>
<path d="M20.3769 25.7393H20.5327C20.5023 25.8724 20.4467 25.9739 20.3672 26.0444C20.2877 26.1142 20.1901 26.1497 20.075 26.1497C19.96 26.1497 19.8591 26.1226 19.7842 26.0689C19.7092 26.0153 19.6529 25.9371 19.6135 25.8349C19.5747 25.7328 19.5547 25.6229 19.5547 25.5053C19.5547 25.3773 19.5767 25.2655 19.6206 25.1704C19.6646 25.0754 19.7273 25.003 19.8087 24.9532C19.8895 24.9041 19.9794 24.8789 20.077 24.8789C20.1875 24.8789 20.2806 24.9099 20.3562 24.9726C20.4318 25.0353 20.4842 25.1232 20.5139 25.2364L20.3582 25.2377C20.3323 25.1485 20.3071 25.12 20.2586 25.0793C20.2101 25.0386 20.1481 25.0179 20.0744 25.0179C19.9891 25.0179 19.918 25.0405 19.8611 25.0858C19.8042 25.131 19.7641 25.1918 19.7408 25.268C19.7176 25.3443 19.7059 25.4232 19.7059 25.504C19.7059 25.6087 19.7195 25.6998 19.7473 25.7774C19.7751 25.8556 19.8171 25.9138 19.8753 25.9519C19.9328 25.9907 19.9955 26.0095 20.0628 26.0095C20.1448 26.0095 20.214 25.9829 20.2709 25.9306C20.3278 25.8782 20.3569 25.842 20.3769 25.7386V25.7393Z" fill="#898989"/>
<path d="M20.6458 25.6827C20.6458 25.5179 20.6872 25.3957 20.7693 25.3162C20.8384 25.2503 20.9218 25.2173 21.0214 25.2173C21.1319 25.2173 21.2218 25.2574 21.2916 25.3375C21.3614 25.4177 21.3963 25.5282 21.3963 25.6698C21.3963 25.7842 21.3808 25.8747 21.3497 25.94C21.3187 26.0059 21.2735 26.0563 21.2147 26.0932C21.1552 26.1293 21.0912 26.1474 21.0207 26.1474C20.9089 26.1474 20.8178 26.1074 20.7486 26.0279C20.6794 25.9477 20.6445 25.8327 20.6445 25.6827H20.6458ZM20.7854 25.6827C20.7854 25.7965 20.8081 25.8818 20.8527 25.9387C20.8973 25.9955 20.9535 26.024 21.0214 26.024C21.0893 26.024 21.1448 25.9955 21.1894 25.9387C21.234 25.8818 21.2567 25.7945 21.2567 25.6782C21.2567 25.5683 21.234 25.4849 21.1894 25.428C21.1442 25.3711 21.0886 25.3427 21.0214 25.3427C20.9542 25.3427 20.8973 25.3711 20.8527 25.4274C20.8081 25.4836 20.7854 25.5689 20.7854 25.6827Z" fill="#898989"/>
<path d="M21.5508 26.1282V24.8994H21.6865V26.1282H21.5508Z" fill="#898989"/>
<path d="M21.8477 25.6827C21.8477 25.5179 21.889 25.3957 21.9711 25.3162C22.0403 25.2503 22.1237 25.2173 22.2232 25.2173C22.3331 25.2173 22.4229 25.2574 22.4934 25.3375C22.5632 25.4177 22.5981 25.5282 22.5981 25.6698C22.5981 25.7842 22.5826 25.8747 22.5516 25.94C22.5206 26.0059 22.4753 26.0563 22.4165 26.0932C22.3577 26.1293 22.293 26.1474 22.2232 26.1474C22.1114 26.1474 22.0202 26.1074 21.9517 26.0279C21.8826 25.9477 21.8477 25.8327 21.8477 25.6827ZM21.9873 25.6827C21.9873 25.7965 22.0099 25.8818 22.0545 25.9387C22.0991 25.9955 22.1553 26.024 22.2232 26.024C22.2911 26.024 22.3467 25.9955 22.3913 25.9387C22.4359 25.8818 22.4585 25.7945 22.4585 25.6782C22.4585 25.5683 22.4359 25.4849 22.3913 25.428C22.346 25.3711 22.2904 25.3427 22.2232 25.3427C22.156 25.3427 22.0991 25.3711 22.0545 25.4274C22.0099 25.4836 21.9873 25.5689 21.9873 25.6827Z" fill="#898989"/>
<path d="M22.7539 26.1284V25.2383H22.8761V25.3734C22.9071 25.31 22.9355 25.2687 22.9627 25.2486C22.9892 25.2286 23.0183 25.2183 23.05 25.2183C23.0958 25.2183 23.1424 25.2344 23.1896 25.2667L23.143 25.407C23.1101 25.385 23.0765 25.374 23.0435 25.374C23.0138 25.374 22.9873 25.3837 22.9633 25.4038C22.9401 25.4238 22.9226 25.451 22.9129 25.4865C22.8981 25.5402 22.8903 25.599 22.8903 25.6623V26.1284H22.7546H22.7539Z" fill="#898989"/>
<path d="M24.0008 26.1282V25.6079L23.5742 24.8994H23.7526L23.9705 25.2698C24.0105 25.339 24.048 25.4081 24.0829 25.4779C24.1159 25.4139 24.1566 25.3415 24.2038 25.2607L24.4184 24.8994H24.5891L24.1482 25.6079V26.1282H24.0021H24.0008Z" fill="#898989"/>
<path d="M24.5124 25.6827C24.5124 25.5179 24.5537 25.3957 24.6358 25.3162C24.705 25.2503 24.7884 25.2173 24.8879 25.2173C24.9978 25.2173 25.0877 25.2574 25.1581 25.3375C25.2279 25.4177 25.2628 25.5282 25.2628 25.6698C25.2628 25.7842 25.2473 25.8747 25.2163 25.94C25.1853 26.0059 25.14 26.0563 25.0812 26.0932C25.0224 26.1293 24.9577 26.1474 24.8879 26.1474C24.7761 26.1474 24.685 26.1074 24.6158 26.0279C24.5466 25.9477 24.5117 25.8327 24.5117 25.6827H24.5124ZM24.652 25.6827C24.652 25.7965 24.6746 25.8818 24.7192 25.9387C24.7638 25.9955 24.82 26.024 24.8879 26.024C24.9558 26.024 25.0114 25.9955 25.056 25.9387C25.1006 25.8818 25.1232 25.7945 25.1232 25.6782C25.1232 25.5683 25.1006 25.4849 25.056 25.428C25.0107 25.3711 24.9551 25.3427 24.8879 25.3427C24.8207 25.3427 24.7638 25.3711 24.7192 25.4274C24.6746 25.4836 24.652 25.5689 24.652 25.6827Z" fill="#898989"/>
<path d="M25.9454 26.1284V25.9978C25.8834 26.0986 25.798 26.1484 25.6914 26.1484C25.6442 26.1484 25.6003 26.1381 25.5589 26.118C25.5175 26.098 25.4878 26.0728 25.4677 26.0424C25.4477 26.012 25.4341 25.9745 25.4264 25.9306C25.4206 25.9008 25.418 25.8543 25.418 25.7897V25.2383H25.5537V25.7321C25.5537 25.811 25.5563 25.864 25.5621 25.8911C25.5705 25.9306 25.5886 25.9622 25.6164 25.9849C25.6442 26.0075 25.6778 26.0191 25.7192 26.0191C25.7606 26.0191 25.798 26.0075 25.8342 25.9842C25.8698 25.961 25.895 25.9293 25.9099 25.8898C25.9247 25.8498 25.9325 25.7916 25.9325 25.716V25.2389H26.0682V26.129H25.9467L25.9454 26.1284Z" fill="#898989"/>
<path d="M26.2773 26.1284V25.2383H26.3995V25.3734C26.4305 25.31 26.4596 25.2687 26.4861 25.2486C26.5126 25.2286 26.5417 25.2183 26.5734 25.2183C26.6193 25.2183 26.6658 25.2344 26.713 25.2667L26.6658 25.407C26.6329 25.385 26.5999 25.374 26.5663 25.374C26.5365 25.374 26.51 25.3837 26.4861 25.4038C26.4622 25.4238 26.4454 25.451 26.4357 25.4865C26.4208 25.5402 26.4131 25.599 26.4131 25.6623V26.1284H26.2773Z" fill="#898989"/>
<path d="M27.2428 26.1282V24.8994H27.6242C27.7102 24.8994 27.7761 24.9052 27.8214 24.9169C27.8847 24.933 27.939 24.9621 27.9836 25.0048C28.0418 25.0597 28.0857 25.1295 28.1142 25.2149C28.1433 25.3002 28.1575 25.3971 28.1575 25.507C28.1575 25.6001 28.1478 25.6828 28.1277 25.7552C28.1084 25.8276 28.0831 25.8871 28.0521 25.9343C28.0217 25.9815 27.9881 26.0183 27.9513 26.0455C27.9144 26.0726 27.8711 26.0933 27.8194 26.1069C27.7677 26.1211 27.7089 26.1276 27.6417 26.1276H27.2422L27.2428 26.1282ZM27.3889 25.9828H27.6249C27.6979 25.9828 27.7548 25.975 27.7961 25.9601C27.8375 25.9453 27.8705 25.9239 27.8957 25.8962C27.9306 25.8574 27.9571 25.8057 27.9765 25.7404C27.9959 25.6751 28.0056 25.5962 28.0056 25.5038C28.0056 25.3752 27.9868 25.2763 27.9487 25.2077C27.9106 25.1386 27.8647 25.0927 27.8104 25.0688C27.7709 25.052 27.7082 25.0436 27.621 25.0436H27.3883V25.9821L27.3889 25.9828Z" fill="#898989"/>
<path d="M28.8624 26.0182C28.812 26.0654 28.7635 26.099 28.717 26.119C28.6705 26.1384 28.6207 26.1481 28.567 26.1481C28.4791 26.1481 28.4113 26.1242 28.3641 26.0763C28.3169 26.0285 28.293 25.9678 28.293 25.8934C28.293 25.8501 28.302 25.81 28.3201 25.7738C28.3382 25.7376 28.3608 25.7092 28.3899 25.6872C28.4184 25.6652 28.4513 25.6491 28.4875 25.6374C28.514 25.6297 28.5541 25.6219 28.6084 25.6148C28.7177 25.6006 28.7984 25.5831 28.8502 25.5631C28.8502 25.5424 28.8508 25.5295 28.8508 25.5237C28.8508 25.4623 28.8379 25.419 28.812 25.3938C28.7771 25.3595 28.7261 25.3427 28.6575 25.3427C28.5935 25.3427 28.5464 25.355 28.516 25.3802C28.4856 25.4047 28.463 25.4493 28.4481 25.512L28.3156 25.492C28.3279 25.4287 28.3473 25.3776 28.3751 25.3388C28.4029 25.3 28.4429 25.2703 28.4946 25.249C28.547 25.2283 28.6078 25.2173 28.6763 25.2173C28.7448 25.2173 28.8004 25.2263 28.8431 25.2438C28.8857 25.2619 28.9174 25.2839 28.9374 25.311C28.9575 25.3382 28.9717 25.3724 28.9794 25.4138C28.984 25.4396 28.9866 25.4862 28.9866 25.5528V25.7538C28.9866 25.8941 28.9891 25.9826 28.995 26.0201C29.0008 26.057 29.0118 26.0925 29.0292 26.1268H28.887C28.8728 26.0957 28.8637 26.0589 28.8599 26.0169L28.8624 26.0182ZM28.8508 25.6814C28.8017 25.704 28.7273 25.7228 28.6291 25.7383C28.5729 25.7473 28.5334 25.757 28.5108 25.7687C28.4875 25.7796 28.4694 25.7965 28.4572 25.8178C28.4449 25.8391 28.4384 25.863 28.4384 25.8895C28.4384 25.9296 28.452 25.9632 28.4798 25.9904C28.5069 26.0169 28.547 26.0305 28.6 26.0305C28.653 26.0305 28.6989 26.0175 28.7396 25.9923C28.7804 25.9671 28.8101 25.9322 28.8295 25.8882C28.8437 25.854 28.8515 25.8036 28.8515 25.7376V25.682L28.8508 25.6814Z" fill="#898989"/>
<path d="M29.1916 26.4708L29.1767 26.3292C29.2064 26.3383 29.2323 26.3428 29.2543 26.3428C29.2846 26.3428 29.3085 26.337 29.3266 26.326C29.3447 26.315 29.3596 26.2988 29.3712 26.2788C29.3797 26.2639 29.3939 26.2264 29.4126 26.1663C29.4152 26.1579 29.4191 26.1456 29.4249 26.1295L29.1211 25.2375H29.2672L29.4339 25.7526C29.4559 25.8179 29.4753 25.8871 29.4921 25.9588C29.5076 25.8897 29.5264 25.8218 29.5484 25.7559L29.7197 25.2368H29.8554L29.5509 26.1418C29.518 26.2394 29.4928 26.3066 29.4747 26.3434C29.4508 26.3932 29.423 26.4294 29.3919 26.4527C29.3609 26.476 29.3241 26.4876 29.2808 26.4876C29.2543 26.4876 29.2252 26.4818 29.1935 26.4688L29.1916 26.4708Z" fill="#898989"/>
<path d="M29.9147 25.8626L30.0485 25.8393C30.0563 25.8988 30.0776 25.9447 30.1119 25.977C30.1461 26.0086 30.1946 26.0248 30.256 26.0248C30.3174 26.0248 30.3646 26.0106 30.395 25.9828C30.4254 25.9543 30.4402 25.9214 30.4402 25.8832C30.4402 25.849 30.4267 25.8225 30.4002 25.8031C30.3814 25.7895 30.3349 25.7727 30.2612 25.752C30.1616 25.7242 30.0925 25.6997 30.0543 25.6796C30.0155 25.6589 29.9865 25.6312 29.9664 25.595C29.9464 25.5588 29.9367 25.5193 29.9367 25.4754C29.9367 25.4359 29.9444 25.3991 29.9612 25.3648C29.9774 25.3312 30 25.3028 30.0278 25.2808C30.0485 25.2634 30.0776 25.2485 30.1144 25.2368C30.1506 25.2246 30.1901 25.2188 30.2321 25.2188C30.2948 25.2188 30.3497 25.2291 30.3976 25.2491C30.4448 25.2692 30.4803 25.2963 30.5029 25.3306C30.5256 25.3648 30.5411 25.4107 30.5495 25.4683L30.417 25.4883C30.4111 25.4424 30.3937 25.4069 30.3646 25.381C30.3355 25.3551 30.2948 25.3422 30.2424 25.3422C30.1797 25.3422 30.1351 25.3538 30.1086 25.3765C30.0815 25.3991 30.0685 25.4262 30.0685 25.4566C30.0685 25.476 30.0737 25.4941 30.0847 25.5096C30.0957 25.5258 30.1132 25.5394 30.1364 25.5497C30.15 25.5555 30.1901 25.5684 30.2567 25.5885C30.3523 25.6169 30.4195 25.6402 30.4577 25.6583C30.4958 25.6764 30.5256 25.7029 30.5469 25.7378C30.5689 25.7727 30.5792 25.8154 30.5792 25.8671C30.5792 25.9188 30.5663 25.9647 30.5398 26.0093C30.5133 26.0539 30.4758 26.0882 30.4254 26.1121C30.3756 26.1366 30.3194 26.1483 30.2567 26.1483C30.1526 26.1483 30.0731 26.1243 30.0188 26.0759C29.9638 26.028 29.9296 25.9563 29.9141 25.8619L29.9147 25.8626Z" fill="#898989"/>
<path d="M18.1651 16.8754H18.3073C18.3603 16.8754 18.4146 16.8741 18.4702 16.8722C18.5258 16.8722 18.5794 16.8722 18.6311 16.8703C18.6835 16.869 18.73 16.867 18.772 16.8651L18.7488 17.2768C18.6615 17.2723 18.5717 17.2697 18.4805 17.2697H16.0384C15.9473 17.2697 15.8574 17.2723 15.7695 17.2768L15.7928 16.8651C15.9932 16.8722 16.1949 16.8754 16.3985 16.8754H17.0533L17.0817 16.3809H16.202L16.2666 15.2562H17.9983L18.0164 14.9375H16.456C16.4017 14.9375 16.3442 14.9401 16.2841 14.9447L16.3073 14.5361C16.3668 14.5407 16.4237 14.5432 16.4767 14.5432H18.496C18.4876 14.6053 18.4818 14.6654 18.4786 14.7242C18.4753 14.7831 18.4715 14.8432 18.4682 14.9052L18.4256 15.6466H16.6971L16.6777 15.9873H18.2672C18.339 15.9873 18.4139 15.9847 18.4928 15.9802L18.4695 16.3887C18.3913 16.3842 18.315 16.3816 18.2413 16.3816H17.5381L17.5096 16.8761H18.1644L18.1651 16.8754Z" fill="#4D94AC"/>
<path d="M20.5678 14.5368C20.5529 14.7184 20.5083 14.8936 20.4359 15.0617C20.3629 15.2297 20.2679 15.3855 20.1509 15.529C20.0319 15.6745 19.8942 15.8044 19.7391 15.9175C19.5833 16.0313 19.4159 16.1224 19.2369 16.1916L18.9492 15.8871C19.1115 15.8393 19.2569 15.7785 19.3855 15.7042C19.5148 15.6305 19.6266 15.5478 19.7217 15.4573C19.5963 15.467 19.4722 15.4741 19.35 15.4786H19.1108L19.1315 15.1134H19.3985C19.5187 15.1108 19.626 15.1076 19.721 15.1024C19.816 15.0979 19.9078 15.0901 19.9957 15.0811C20.0171 15.0261 20.0332 14.9751 20.0423 14.9272H19.3894C19.3377 14.9272 19.2834 14.9298 19.2278 14.9343L19.2511 14.5297C19.2782 14.5342 19.3041 14.5368 19.3267 14.5368H20.5665H20.5678ZM20.7443 16.4101C20.7443 16.5316 20.7772 16.6376 20.8438 16.7268C20.9104 16.8166 20.9944 16.8936 21.0972 16.9582C21.1974 17.0228 21.3079 17.0771 21.4288 17.1211C21.5497 17.1651 21.6647 17.2019 21.774 17.2303L21.4579 17.5529C21.3758 17.5335 21.2834 17.5064 21.1819 17.4708C21.0804 17.4352 20.9821 17.3906 20.8884 17.3383C20.7947 17.2859 20.7087 17.2252 20.6318 17.1573C20.5549 17.0894 20.5006 17.0119 20.4682 16.9259C20.4236 17.017 20.3577 17.0959 20.2711 17.1644C20.1838 17.2323 20.0895 17.2924 19.9873 17.3454C19.8852 17.3958 19.7824 17.4378 19.679 17.4727C19.5756 17.5076 19.4851 17.5341 19.4075 17.5535L19.1386 17.231C19.2511 17.2025 19.3694 17.1657 19.4948 17.1217C19.6195 17.0778 19.7359 17.0235 19.8432 16.9589C19.9511 16.8942 20.0423 16.8173 20.1179 16.7274C20.1935 16.6382 20.2381 16.5322 20.2524 16.4107C20.2536 16.3842 20.2556 16.3506 20.2582 16.3086C20.2608 16.2666 20.2601 16.2388 20.2562 16.2246H20.7617C20.7578 16.2511 20.7546 16.2782 20.752 16.3066C20.7494 16.3351 20.7468 16.37 20.7443 16.4107V16.4101ZM21.1133 15.6544C21.1088 15.7333 21.1043 15.8147 21.0991 15.8981C21.0946 15.9815 21.092 16.0617 21.092 16.1379H20.6421C20.6512 16.0617 20.6583 15.9815 20.6628 15.8981C20.6673 15.8147 20.6725 15.7333 20.677 15.6544L20.6835 15.54H20.498C20.4527 15.54 20.4107 15.5426 20.3713 15.5471L20.3939 15.1567C20.4353 15.1612 20.4786 15.1638 20.5232 15.1638H20.7048L20.7229 14.8484C20.7275 14.7721 20.73 14.7023 20.7313 14.6389C20.7326 14.5756 20.7333 14.5084 20.7326 14.4366H21.1896C21.1806 14.5129 21.1741 14.5879 21.1702 14.6603C21.1664 14.7333 21.1618 14.8064 21.1573 14.8807L21.1133 15.6544ZM21.73 16.0125C21.7255 16.0914 21.721 16.1722 21.7164 16.2562C21.7119 16.3396 21.7093 16.4198 21.7093 16.496H21.242C21.251 16.4198 21.2581 16.3396 21.2627 16.2562C21.2672 16.1728 21.2724 16.0914 21.2769 16.0125L21.3435 14.8484C21.348 14.7721 21.3512 14.6932 21.3532 14.6118C21.3557 14.531 21.3564 14.4541 21.3557 14.3823H21.8302C21.8212 14.4586 21.8147 14.5336 21.8108 14.606C21.8069 14.679 21.8024 14.7521 21.7979 14.8264L21.73 16.0119V16.0125Z" fill="#4D94AC"/>
<path d="M23.1294 15.0161C23.1333 14.9469 23.1371 14.8804 23.141 14.8157C23.1449 14.7511 23.1462 14.6845 23.1455 14.6153H23.6097C23.6012 14.6774 23.5954 14.7388 23.5922 14.7996C23.589 14.8603 23.5851 14.9217 23.5819 14.9838L23.4739 16.8713H22.1992L22.3052 15.0161C22.3091 14.9469 22.313 14.8804 22.3169 14.8157C22.3207 14.7511 22.322 14.6845 22.3214 14.6153H22.7926C22.7842 14.6774 22.7784 14.7388 22.7752 14.7996C22.7719 14.8603 22.768 14.9217 22.7648 14.9838L22.7435 15.36H23.1106L23.13 15.0161H23.1294ZM23.0874 15.7575H22.7202L22.6788 16.4776H23.046L23.0874 15.7575ZM24.7732 17.051C24.7686 17.1298 24.7641 17.2106 24.7589 17.2946C24.7544 17.378 24.7518 17.4582 24.7518 17.5345H24.2845C24.2935 17.4582 24.3006 17.378 24.3052 17.2946C24.3097 17.2113 24.3149 17.1298 24.3187 17.051L24.3847 15.901H24.163L24.1054 16.9075C24.1009 16.9863 24.0964 17.0671 24.0919 17.1511C24.0873 17.2345 24.0848 17.3147 24.0854 17.391H23.6349C23.6439 17.3147 23.651 17.2345 23.6555 17.1511C23.6601 17.0678 23.6652 16.9863 23.6698 16.9075L23.7835 14.9198C23.7881 14.8435 23.7913 14.7647 23.7932 14.6832C23.7958 14.6018 23.7965 14.5255 23.7965 14.4537H24.2535C24.2444 14.53 24.2379 14.605 24.2334 14.6774C24.2295 14.7504 24.225 14.8235 24.2211 14.8978L24.1869 15.4996H24.4086L24.4461 14.8474C24.4506 14.7711 24.4538 14.6923 24.4564 14.6108C24.4584 14.53 24.4597 14.4531 24.459 14.3813H24.9335C24.9244 14.4576 24.918 14.5326 24.9141 14.605C24.9102 14.678 24.9057 14.7511 24.9018 14.8254L24.7745 17.0497L24.7732 17.051Z" fill="#4D94AC"/>
<path d="M26.4641 15.8185C26.4654 15.7565 26.4673 15.6951 26.4692 15.6343C26.4718 15.5735 26.4718 15.5154 26.4705 15.4604H26.9521C26.9437 15.5225 26.9372 15.5819 26.9334 15.6395C26.9288 15.697 26.925 15.7565 26.9211 15.8185H27.7174C27.7704 15.8185 27.8247 15.8172 27.8803 15.8153C27.9353 15.8153 27.9896 15.8153 28.0413 15.8133C28.0936 15.8121 28.1402 15.8101 28.1822 15.8082L28.1583 16.2199C28.071 16.2154 27.9812 16.2128 27.89 16.2128H25.4486C25.3574 16.2128 25.2676 16.2154 25.1797 16.2199L25.2036 15.8082C25.404 15.8153 25.6057 15.8185 25.8093 15.8185H26.4634H26.4641ZM27.0103 14.5044C27.0051 14.5975 27.0251 14.6867 27.0717 14.7714C27.1176 14.856 27.1861 14.9343 27.2766 15.006C27.3671 15.0778 27.4783 15.1411 27.6101 15.196C27.742 15.251 27.8926 15.2949 28.0613 15.3286L27.7485 15.6543C27.6567 15.6375 27.561 15.6123 27.4602 15.5794C27.3593 15.5457 27.263 15.5044 27.1712 15.454C27.0769 15.4035 26.9922 15.3441 26.9166 15.2749C26.8409 15.2057 26.7815 15.1256 26.7381 15.0351C26.6845 15.1236 26.6186 15.2012 26.5397 15.2678C26.4608 15.3344 26.3736 15.3932 26.2786 15.443C26.1835 15.4934 26.0827 15.5354 25.9773 15.5703C25.872 15.6052 25.7647 15.633 25.6574 15.6543L25.382 15.3286C25.7627 15.2471 26.0465 15.1353 26.232 14.9918C26.4182 14.8483 26.5164 14.686 26.5268 14.5044C26.5281 14.485 26.5294 14.4598 26.5313 14.4275C26.5332 14.3952 26.5319 14.368 26.5287 14.3467H27.0277C27.0219 14.368 27.018 14.3945 27.0161 14.4255C27.0142 14.4566 27.0129 14.4831 27.0116 14.5044H27.0103ZM26.5901 17.6136C26.3981 17.6136 26.2294 17.5968 26.084 17.5631C25.9379 17.5295 25.8177 17.4843 25.7214 17.4268C25.6231 17.3673 25.5501 17.2975 25.5029 17.2193C25.4557 17.1404 25.4344 17.0557 25.4395 16.9652C25.4447 16.8741 25.4757 16.7894 25.5339 16.7112C25.5914 16.6323 25.6729 16.5632 25.7776 16.5031C25.8823 16.4455 26.009 16.4003 26.1577 16.3673C26.3064 16.3337 26.4751 16.3169 26.6645 16.3169C26.8539 16.3169 27.0213 16.3337 27.1674 16.3673C27.3134 16.4009 27.4356 16.4462 27.5339 16.5031C27.6321 16.5625 27.7052 16.6323 27.7523 16.7112C27.7995 16.7901 27.8209 16.8747 27.8157 16.9652C27.8105 17.0538 27.7808 17.1372 27.7252 17.216C27.6696 17.2949 27.5907 17.3641 27.488 17.4235C27.3832 17.481 27.2559 17.5269 27.1066 17.5618C26.9573 17.5961 26.7847 17.6136 26.5908 17.6136H26.5901ZM25.9172 16.9613C25.9146 17.0066 25.9302 17.0467 25.9625 17.0816C25.9954 17.1165 26.0433 17.1456 26.106 17.1695C26.1674 17.1908 26.2411 17.2076 26.3264 17.2199C26.4124 17.2322 26.5074 17.238 26.6115 17.238C26.7155 17.238 26.808 17.2322 26.8946 17.2199C26.9818 17.2083 27.0588 17.1915 27.1247 17.1695C27.188 17.1456 27.2391 17.1165 27.2766 17.0816C27.3141 17.0473 27.3341 17.0072 27.3367 16.9613C27.3393 16.918 27.3231 16.8805 27.2895 16.8482C27.2553 16.8159 27.2081 16.7881 27.1473 16.7642C27.0859 16.7429 27.0122 16.7261 26.9262 16.7138C26.8409 16.7021 26.7459 16.6957 26.6418 16.6957C26.5378 16.6957 26.4421 16.7015 26.3548 16.7138C26.2676 16.7261 26.1919 16.7422 26.1286 16.7642C26.0627 16.7855 26.0116 16.8133 25.9748 16.8463C25.9386 16.8799 25.9192 16.918 25.9166 16.9607L25.9172 16.9613Z" fill="#4D94AC"/>
<path d="M11.3907 17.7238L11.1205 17.9255C11.1205 17.9255 10.8568 17.9307 10.8115 17.9255C10.8057 17.8757 10.805 17.6185 10.805 17.6185L11.0003 17.3438C11.0003 17.3438 10.2446 17.6068 10.0391 18.7173L10.0404 18.7154C11.1444 18.4833 11.39 17.7225 11.39 17.7225L11.3907 17.7238Z" fill="#F39800"/>
<path d="M12.116 15.4751L11.5265 16.2831H11.1471L10.5977 16.711C10.5977 16.711 10.7108 15.9431 11.3572 15.4751H12.1167H12.116Z" fill="#3A8CA2"/>
<path d="M13.2653 16.6646L12.4612 17.2599L12.4637 17.64L12.0391 18.192C12.0391 18.192 12.8057 18.0737 13.2704 17.4241L13.2653 16.6646Z" fill="#3A8CA2"/>
<path d="M13.172 14.3477C11.5386 15.8693 11.293 16.7918 11.293 16.7918L11.6188 17.1615L11.6213 17.1641L11.6233 17.1667L11.9995 17.484C11.9995 17.484 12.9161 17.2197 14.4041 15.5552C14.4041 15.5552 15.2664 14.6205 15.7001 13C14.0893 13.4661 13.172 14.3477 13.172 14.3477Z" fill="#6ABED4"/>
<path d="M13.8658 15.3649C14.1218 15.3649 14.3293 15.1574 14.3293 14.9015C14.3293 14.6455 14.1218 14.438 13.8658 14.438C13.6098 14.438 13.4023 14.6455 13.4023 14.9015C13.4023 15.1574 13.6098 15.3649 13.8658 15.3649Z" fill="white"/>
<path d="M11.1725 17.479C11.1725 17.479 12.3438 16.2185 12.4084 16.1616H12.5862L12.5455 16.318L11.2255 17.5326H11.1719V17.479H11.1725Z" fill="#3A8CA2"/>
</svg>
