<svg width="40" height="40" viewBox="0 0 40 40" fill="none" xmlns="http://www.w3.org/2000/svg">
<circle cx="20" cy="20" r="19.5" fill="white" stroke="#EFEFF1"/>
<path d="M24.7212 19.8548H19.988C19.9387 19.8548 19.9141 19.8301 19.9141 19.7808C19.9141 19.7808 19.9141 19.7808 19.9141 19.7562V19.4111C19.9141 19.3618 19.9387 19.3371 19.988 19.3371H24.7212C24.7705 19.3371 24.7951 19.3864 24.7951 19.4111V19.7808C24.7951 19.8055 24.7458 19.8301 24.7212 19.8548ZM20.5797 19.0166C20.5057 19.0166 20.4564 19.0166 20.4564 18.9673L20.3578 18.6469C20.3578 18.5975 20.3824 18.5482 20.4318 18.5482C21.2206 18.4003 21.9602 18.1785 22.6751 17.858C22.7737 17.8087 22.823 17.7594 22.6751 17.7594H20.8015C20.7522 17.7594 20.7276 17.7347 20.7276 17.6854V17.3157C20.7276 17.2664 20.7522 17.2417 20.8015 17.2417H23.3407C23.6118 17.2417 23.8337 17.3157 23.8337 17.5129C23.809 17.6608 23.7351 17.784 23.6365 17.858C23.4639 18.0059 23.2914 18.1292 23.0941 18.2278C23.4639 18.3264 24.0063 18.4003 24.376 18.4743C24.4253 18.4743 24.45 18.4989 24.45 18.5482V18.5729L24.3514 18.8687C24.3514 18.918 24.3021 18.9427 24.2281 18.9427C23.6118 18.8441 22.9955 18.6962 22.4039 18.5236C21.7876 18.7455 21.196 18.918 20.5797 19.0166ZM24.1049 22.4186H21.048C20.7769 22.4186 20.6783 22.32 20.6783 22.0981V21.4325C20.6783 21.186 20.7522 21.0874 21.048 21.0874H23.3653C23.4146 21.0874 23.4393 21.0874 23.4393 21.0134V20.8162C23.4393 20.7423 23.4393 20.7423 23.3653 20.7423H20.7522C20.7029 20.7423 20.6783 20.7176 20.6783 20.6683V20.2985C20.6783 20.2492 20.7029 20.2246 20.7522 20.2246H23.6858C23.9816 20.2246 24.0556 20.2985 24.0556 20.5697V21.2353C24.0556 21.5065 23.9816 21.5558 23.6858 21.5558H21.3685C21.3192 21.5558 21.2946 21.5558 21.2946 21.6297V21.8516C21.2946 21.9255 21.2946 21.9255 21.3685 21.9255H24.1049C24.1542 21.9255 24.1788 21.9502 24.1788 21.9995V22.3693C24.1788 22.3939 24.1295 22.4186 24.1049 22.4186Z" fill="#736562"/>
<path d="M27.7776 18.0305C27.6543 19.4603 26.8655 20.545 25.5836 21.3339C25.5343 21.3832 25.4603 21.3585 25.411 21.3092L25.2138 21.0134C25.1891 20.9641 25.1891 20.9148 25.2138 20.8902C25.2138 20.8902 25.2385 20.8902 25.2385 20.8655C26.3231 20.2246 26.9148 19.3617 27.112 18.351C27.1613 18.2031 27.112 18.1785 26.9641 18.1785H25.4603C25.411 18.1785 25.3864 18.1538 25.3864 18.1045V17.6854C25.3864 17.6361 25.411 17.6115 25.4603 17.6115H27.3585C27.7283 17.6115 27.8022 17.7347 27.7776 18.0305ZM29.3307 22.4432H28.8623C28.8376 22.4432 28.7883 22.4186 28.7883 22.3939C28.7883 22.3939 28.7883 22.3939 28.7883 22.3693V19.6329H27.8022C27.7529 19.6329 27.7283 19.6083 27.7283 19.559V19.1892C27.7283 19.1399 27.7529 19.1152 27.8022 19.1152H28.7883V17.2663C28.7883 17.217 28.813 17.1924 28.8623 17.1924H29.3307C29.38 17.1924 29.4046 17.217 29.4046 17.2663V22.3693C29.4293 22.4186 29.4046 22.4432 29.3307 22.4432C29.3553 22.4432 29.3553 22.4432 29.3307 22.4432Z" fill="#736562"/>
<path d="M34.9035 20.2248H32.9067V21.2355C32.9067 21.2848 32.8821 21.3095 32.8574 21.3095C32.8574 21.3095 32.8574 21.3095 32.8328 21.3095H32.3644C32.3151 21.3095 32.2905 21.2848 32.2905 21.2602C32.2905 21.2602 32.2905 21.2602 32.2905 21.2355V20.2248H30.195C30.1457 20.2248 30.1211 20.1755 30.1211 20.1262V19.7564C30.1211 19.7071 30.1457 19.6825 30.195 19.6825H34.9282C34.9775 19.6825 35.0021 19.7318 35.0021 19.7564V20.1509C35.0021 20.2002 34.9528 20.2248 34.9035 20.2248ZM32.5616 19.288C31.5509 19.288 30.836 18.9183 30.836 18.2773C30.836 17.6364 31.5509 17.2666 32.5616 17.2666C33.5723 17.2666 34.2872 17.6364 34.2872 18.2773C34.2872 18.9183 33.5723 19.288 32.5616 19.288ZM34.3366 22.3202H31.2551C30.9346 22.3202 30.836 22.2216 30.836 21.9258V20.7425C30.836 20.6932 30.8606 20.6685 30.91 20.6685H31.3783C31.4276 20.6685 31.4523 20.6932 31.4523 20.7425V21.6793C31.4523 21.7532 31.4769 21.7779 31.5509 21.7779H34.3119C34.3612 21.7779 34.3859 21.8025 34.3859 21.8518V22.2463C34.4105 22.2956 34.3612 22.3202 34.3366 22.3202ZM32.5616 17.7843C31.9207 17.7843 31.4769 18.0062 31.4769 18.302C31.4769 18.5978 31.9207 18.795 32.5616 18.795C33.1779 18.795 33.6216 18.5978 33.6216 18.302C33.6463 18.0062 33.2026 17.7843 32.5616 17.7843Z" fill="#736562"/>
<mask id="mask0_2163_12508" style="mask-type:luminance" maskUnits="userSpaceOnUse" x="5" y="17" width="13" height="6">
<path d="M17.4492 17.1148C17.3259 17.0901 17.2026 17.0655 17.0794 17.0408C16.7343 16.9915 16.3891 16.9915 16.044 17.0162C15.1565 17.0901 14.3184 17.4599 13.6528 18.0516C13.4802 18.1995 13.3323 18.3474 13.209 18.52C13.1597 18.5693 13.1351 18.6186 13.0858 18.6925C12.2723 19.6786 11.1136 20.2702 9.8564 20.3935C9.48663 20.4181 9.11685 20.4181 8.74707 20.3688C8.13078 20.2949 7.51448 20.073 6.97214 19.7525C6.52841 19.4814 6.13398 19.1362 5.78886 18.7172C5.76421 18.6925 5.69025 18.6186 5.6656 18.5939C5.46838 18.3967 5.24652 18.2488 5.02465 18.1255C5.02465 18.1255 5.02465 18.1255 5 18.1255C5.22187 18.9144 5.59164 19.6293 6.10933 20.2702C6.18329 20.3688 6.25724 20.4428 6.3312 20.5414C6.40515 20.6154 6.47911 20.714 6.55306 20.7879C7.61309 21.8233 8.96894 22.5135 10.448 22.7108C11.2369 22.8094 12.0504 22.7847 12.8393 22.6368C14.8854 22.2424 16.6356 20.8865 17.5231 18.9883C17.5971 18.8651 17.6464 18.7418 17.671 18.5939C17.7943 18.2241 17.8929 17.8544 17.9668 17.4599C17.9668 17.4106 17.9915 17.3613 17.9915 17.2874C17.8189 17.2134 17.6464 17.1641 17.4492 17.1148Z" fill="white"/>
</mask>
<g mask="url(#mask0_2163_12508)">
<path d="M17.4492 17.1148C17.3259 17.0901 17.2026 17.0655 17.0794 17.0408C16.7343 16.9915 16.3891 16.9915 16.044 17.0162C15.1565 17.0901 14.3184 17.4599 13.6528 18.0516C13.4802 18.1995 13.3323 18.3474 13.209 18.52C13.1597 18.5693 13.1351 18.6186 13.0858 18.6925C12.2723 19.6786 11.1136 20.2702 9.8564 20.3935C9.48663 20.4181 9.11685 20.4181 8.74707 20.3688C8.13078 20.2949 7.51448 20.073 6.97214 19.7525C6.52841 19.4814 6.13398 19.1362 5.78886 18.7172C5.76421 18.6925 5.69025 18.6186 5.6656 18.5939C5.46838 18.3967 5.24652 18.2488 5.02465 18.1255C5.02465 18.1255 5.02465 18.1255 5 18.1255C5.22187 18.9144 5.59164 19.6293 6.10933 20.2702C6.18329 20.3688 6.25724 20.4428 6.3312 20.5414C6.40515 20.6154 6.47911 20.714 6.55306 20.7879C7.61309 21.8233 8.96894 22.5135 10.448 22.7108C11.2369 22.8094 12.0504 22.7847 12.8393 22.6368C14.8854 22.2424 16.6356 20.8865 17.5231 18.9883C17.5971 18.8651 17.6464 18.7418 17.671 18.5939C17.7943 18.2241 17.8929 17.8544 17.9668 17.4599C17.9668 17.4106 17.9915 17.3613 17.9915 17.2874C17.8189 17.2134 17.6464 17.1641 17.4492 17.1148Z" fill="url(#paint0_linear_2163_12508)"/>
<path d="M17.4492 17.1148C17.3259 17.0901 17.2026 17.0655 17.0794 17.0408C16.7343 16.9915 16.3891 16.9915 16.044 17.0162C15.5263 19.5307 13.1597 21.4042 10.3494 21.4042C8.08147 21.4782 5.98607 20.1716 5.02465 18.1255C5.02465 18.1255 5.02465 18.1255 5 18.1255C5.22187 18.9144 5.59164 19.6293 6.10933 20.2702C6.18329 20.3688 6.25724 20.4428 6.3312 20.5414C6.40515 20.6154 6.47911 20.714 6.55306 20.7879C7.61309 21.8233 8.96894 22.5135 10.448 22.7108C11.2369 22.8094 12.0504 22.7847 12.8393 22.6368C14.8854 22.2424 16.6356 20.8865 17.5231 18.9883C17.5971 18.8651 17.6464 18.7418 17.671 18.5939C17.7943 18.2241 17.8929 17.8544 17.9668 17.4599C17.9668 17.4106 17.9915 17.3613 17.9915 17.2874C17.8189 17.2134 17.6464 17.1641 17.4492 17.1148Z" fill="url(#paint1_linear_2163_12508)"/>
<path d="M10.3729 21.429C13.2078 21.429 15.5498 19.5308 16.0674 17.041C15.2293 19.1611 13.1832 20.5416 10.9152 20.4923C10.5701 20.4923 10.225 20.4676 9.85519 20.3937C9.48541 20.4183 9.11564 20.4183 8.74586 20.369C8.12956 20.2951 7.51327 20.0732 6.97093 19.7527C6.5272 19.4815 6.13277 19.1364 5.78764 18.7173C5.76299 18.6927 5.68904 18.6187 5.66438 18.5941C5.46717 18.3969 5.2453 18.249 5.02344 18.1257C6.00951 20.1718 8.08026 21.4783 10.3729 21.429Z" fill="url(#paint2_linear_2163_12508)"/>
<path d="M13.2355 18.5445C13.1862 18.5938 13.1615 18.6431 13.1122 18.7171C12.2987 19.7032 11.1401 20.2948 9.88281 20.4181C10.2279 20.492 10.5731 20.5167 10.9428 20.5167C13.2108 20.5413 15.2569 19.1855 16.0951 17.0654C15.2076 17.1394 14.3694 17.5092 13.7038 18.1008C13.5313 18.1994 13.3834 18.372 13.2355 18.5445Z" fill="url(#paint3_linear_2163_12508)"/>
</g>
<defs>
<linearGradient id="paint0_linear_2163_12508" x1="-100.303" y1="19.8869" x2="-87.3092" y2="19.8869" gradientUnits="userSpaceOnUse">
<stop stop-color="#FFEB07"/>
<stop offset="0.021" stop-color="#FFE105"/>
<stop offset="0.078" stop-color="#FFCF02"/>
<stop offset="0.136" stop-color="#FFC300"/>
<stop offset="0.198" stop-color="#FFC000"/>
<stop offset="0.498" stop-color="#F07B23"/>
<stop offset="0.751" stop-color="#E34D1E"/>
<stop offset="0.945" stop-color="#DB1E1F"/>
</linearGradient>
<linearGradient id="paint1_linear_2163_12508" x1="2.97687" y1="32.921" x2="3.89618" y2="24.7507" gradientUnits="userSpaceOnUse">
<stop stop-color="#E23423"/>
<stop offset="0.209" stop-color="#DF2D25"/>
<stop offset="0.492" stop-color="#D91C2B"/>
<stop offset="0.816" stop-color="#D00036"/>
<stop offset="0.821" stop-color="#D00037"/>
</linearGradient>
<linearGradient id="paint2_linear_2163_12508" x1="-89.2179" y1="19.2367" x2="-100.271" y2="19.2367" gradientUnits="userSpaceOnUse">
<stop offset="0.118" stop-color="#E43E00"/>
<stop offset="0.161" stop-color="#E64700"/>
<stop offset="0.39" stop-color="#F07300"/>
<stop offset="0.594" stop-color="#F89400"/>
<stop offset="0.765" stop-color="#FDA700"/>
<stop offset="0.881" stop-color="#FFAF00"/>
</linearGradient>
<linearGradient id="paint3_linear_2163_12508" x1="-13.371" y1="45.3881" x2="-11.1746" y2="38.2985" gradientUnits="userSpaceOnUse">
<stop stop-color="#FFDA2D"/>
<stop offset="0.786" stop-color="#F89600"/>
</linearGradient>
</defs>
</svg>
