<svg width="50" height="50" viewBox="0 0 50 50" fill="none" xmlns="http://www.w3.org/2000/svg">
<g id="Group 355341">
<g id="Group 355026">
<circle id="Ellipse 106" cx="25" cy="25" r="24.5" fill="white" stroke="#EFEFF1"/>
<path id="Vector" d="M30.4401 33H30.1901C30.0492 32.8968 29.8928 32.8105 29.7701 32.6891C28.3675 31.2933 26.9696 29.8921 25.5709 28.4929C25.5325 28.4545 25.4914 28.418 25.4442 28.3735C25.4078 28.4336 25.3775 28.4814 25.3492 28.5307C24.7688 29.5354 24.1878 30.5394 23.6095 31.5455C23.4774 31.7761 23.2981 31.9272 23.0211 31.9042C22.7535 31.8827 22.5965 31.7161 22.5001 31.474C20.6674 26.8651 18.8334 22.2575 17 17.6499C17 17.5872 17 17.5252 17 17.4625C17.2346 16.983 17.4556 16.9008 17.9645 17.1037C19.9105 17.8806 21.857 18.6567 23.803 19.4328C26.3481 20.4483 28.8932 21.4618 31.4357 22.4834C31.5779 22.5407 31.7275 22.6405 31.8131 22.7626C32.0187 23.0546 31.9007 23.3944 31.5509 23.5974C30.5473 24.1793 29.5423 24.7599 28.538 25.3405C28.4848 25.3715 28.4329 25.4032 28.3452 25.4558C28.4126 25.5077 28.4666 25.5407 28.5104 25.5846C29.9252 26.9986 31.3393 28.4133 32.7527 29.828C33.0837 30.1591 33.0823 30.4666 32.7493 30.7997C32.1198 31.4295 31.493 32.0627 30.8573 32.6871C30.7347 32.8078 30.579 32.8962 30.4388 32.9993L30.4401 33Z" fill="black"/>
</g>
</g>
</svg>
