<svg width="16" height="16" viewBox="0 0 16 16" fill="none" xmlns="http://www.w3.org/2000/svg">
<path d="M0 7.84685C0.166356 7.60365 0.315546 7.34655 0.50193 7.12011C1.50783 5.89717 2.68377 4.87614 4.10455 4.15676C5.07448 3.66587 6.09715 3.35277 7.18234 3.24977C9.29062 3.0499 11.1974 3.60946 12.9439 4.77436C14.0778 5.53053 15.0232 6.48412 15.8472 7.56318C16.0503 7.82927 16.0511 8.11743 15.8484 8.3823C14.8977 9.6269 13.7871 10.697 12.4293 11.494C11.3065 12.1529 10.104 12.5715 8.80258 12.6949C6.90808 12.8739 5.15868 12.4333 3.53109 11.4707C2.18511 10.6745 1.08561 9.60728 0.144693 8.36922C0.0829738 8.28829 0.0474136 8.18815 0 8.097C0 8.01361 0 7.93023 0 7.84685ZM7.89437 4.61291C6.06731 4.64643 4.61138 6.19105 4.63754 8.06798C4.66288 9.89708 6.2214 11.3649 8.10201 11.3309C9.92252 11.2978 11.3879 9.74339 11.3605 7.87423C11.3335 6.04431 9.77538 4.57858 7.89437 4.61291Z" fill="#C7C7C7"/>
<path d="M9.81286 7.97554C9.80591 8.97899 8.97535 9.79238 7.96781 9.78216C6.98602 9.77235 6.18571 8.95079 6.19144 7.95837C6.19716 6.96105 7.03303 6.15052 8.04506 6.16074C9.01868 6.17055 9.81899 6.99252 9.81245 7.97513L9.81286 7.97554Z" fill="#C7C7C7"/>
</svg>
