<svg width="40" height="40" viewBox="0 0 40 40" fill="none" xmlns="http://www.w3.org/2000/svg">
<circle cx="20" cy="20" r="20" fill="#DA2731"/>
<path d="M31.9994 25.5728C31.9994 26.7596 31.0361 27.7229 29.8493 27.7229C28.6626 27.7229 27.6992 26.7596 27.6992 25.5728C27.6992 24.3861 28.6626 23.4297 29.8493 23.4297C31.0361 23.4297 31.9994 24.3931 31.9994 25.5728Z" fill="white"/>
<path d="M21.6404 13H13.9265C13.8567 13 13.8008 13.0558 13.8008 13.1257V15.8203C13.8008 15.8901 13.8567 15.9459 13.9265 15.9459H15.8253L12.0067 27.3388C11.9788 27.4225 12.0416 27.5063 12.1254 27.5063H15.7694C15.8183 27.5063 15.8741 27.4714 15.8881 27.4155L16.649 24.7907H21.759L22.513 27.4155C22.5339 27.4714 22.5758 27.5063 22.6386 27.5063H26.4292C26.513 27.5063 26.5758 27.4225 26.5479 27.3388L21.766 13.0838C21.7451 13.0279 21.7032 13 21.6473 13M17.5007 21.8518L19.211 15.9459L20.9143 21.8518H17.5007Z" fill="white"/>
</svg>
