<svg width="40" height="40" viewBox="0 0 40 40" fill="none" xmlns="http://www.w3.org/2000/svg">
<circle cx="20" cy="20" r="19.5" fill="white" stroke="#EFEFF1"/>
<path fill-rule="evenodd" clip-rule="evenodd" d="M5 22.106L5.60986 21.3701C6.0322 21.7211 6.47422 21.9441 7.01034 21.9441C7.43268 21.9441 7.68739 21.7754 7.68739 21.4984V21.4848C7.68739 21.2215 7.52655 21.0865 6.7425 20.8839C5.79718 20.641 5.18775 20.3773 5.18775 19.4386V19.4254C5.18775 18.5674 5.87136 18 6.82938 18C7.51298 18 8.09615 18.2162 8.57166 18.6011L8.03554 19.3845C7.62021 19.0941 7.21166 18.9188 6.81625 18.9188C6.42105 18.9188 6.21316 19.1011 6.21316 19.3307V19.344C6.21316 19.6548 6.41448 19.7561 7.22523 19.9655C8.1769 20.2154 8.71302 20.5598 8.71302 21.3835V21.397C8.71302 22.3358 8.00249 22.8625 6.99087 22.8625C6.28034 22.8625 5.56304 22.6126 5.00022 22.106M9.15505 22.106L9.76491 21.3701C10.1872 21.7211 10.6293 21.9441 11.1654 21.9441C11.5877 21.9441 11.8424 21.7754 11.8424 21.4984V21.4848C11.8424 21.2215 11.6814 21.0865 10.8975 20.8839C9.95244 20.641 9.34258 20.3773 9.34258 19.4386V19.4254C9.34258 18.5676 10.0264 18.0002 10.9844 18.0002C11.6682 18.0002 12.2512 18.2164 12.7269 18.6013L12.1908 19.3847C11.7753 19.0941 11.3667 18.9188 10.9713 18.9188C10.5759 18.9188 10.368 19.1011 10.368 19.3307V19.344C10.368 19.6548 10.5693 19.7561 11.3801 19.9655C12.3317 20.2154 12.8678 20.5598 12.8678 21.3835V21.397C12.8678 22.3358 12.1573 22.8625 11.1455 22.8625C10.4352 22.8625 9.71786 22.6126 9.15505 22.106ZM19.6761 22.2205C19.6761 22.5225 19.4346 22.7675 19.1365 22.7675C18.8385 22.7675 18.5971 22.5225 18.5971 22.2205C18.5971 21.9185 18.8385 21.6734 19.1365 21.6734C19.4346 21.6734 19.6761 21.9185 19.6761 22.2205ZM13.2184 20.4447V20.4316C13.2184 19.095 14.279 18.0004 15.7296 18.0004C16.5918 18.0004 17.112 18.2287 17.6115 18.6449L16.9478 19.4305C16.5782 19.1285 16.2498 18.9536 15.6955 18.9536C14.9292 18.9536 14.3202 19.6186 14.3202 20.4176V20.4311C14.3202 21.2907 14.9222 21.9222 15.7708 21.9222C16.1537 21.9222 16.496 21.8281 16.7629 21.6399V20.9684H15.7023V20.0756H17.7824V22.1172C17.2901 22.5268 16.6124 22.8625 15.7364 22.8625C14.2449 22.8625 13.2184 21.8349 13.2184 20.4447ZM19.9203 20.4447V20.4316C19.9203 19.095 20.9407 18.0004 22.4038 18.0004C23.3018 18.0004 23.8393 18.2959 24.2813 18.7256L23.6148 19.4843C23.2471 19.1554 22.873 18.9539 22.397 18.9539C21.5939 18.9539 21.0158 19.6121 21.0158 20.4178V20.4314C21.0158 21.2373 21.5804 21.9089 22.397 21.9089C22.9412 21.9089 23.2745 21.694 23.6487 21.3581L24.3157 22.0233C23.8255 22.5402 23.2813 22.8625 22.3629 22.8625C20.9613 22.8625 19.9203 21.7946 19.9203 20.4447ZM28.5248 20.4447V20.4316C28.5248 19.6256 27.9418 18.9539 27.1206 18.9539C26.2991 18.9539 25.7295 19.6121 25.7295 20.4178V20.4314C25.7295 21.2373 26.3122 21.9089 27.1335 21.9089C27.9549 21.9089 28.5248 21.2504 28.5248 20.4447ZM24.6629 20.4449V20.4314C24.6629 19.095 25.7028 18.0002 27.1335 18.0002C28.5646 18.0002 29.5913 19.0814 29.5913 20.4178V20.4314C29.5913 21.7679 28.551 22.8625 27.1208 22.8625C25.6897 22.8625 24.6629 21.7817 24.6629 20.4449ZM30.2517 18.1722H31.3778L32.626 20.2079L33.8739 18.1722H35V22.9864H33.9623V19.8436L32.626 21.8997H32.5988L31.276 19.8642V22.9864H30.2519L30.2517 18.1722Z" fill="black"/>
</svg>
