<svg width="40" height="40" viewBox="0 0 40 40" fill="none" xmlns="http://www.w3.org/2000/svg">
<circle cx="20" cy="20" r="19.5" fill="white" stroke="#EFEFF1"/>
<path d="M28 12H12V28H28V12Z" fill="#0054A6"/>
<path d="M24.4756 20.0745L20.5897 19.8936L20.4169 16.1211H20.4115L20.2333 19.8936L16.3555 20.0745V20.0826L20.2333 20.2473L20.4115 24.2386H20.4169L20.5897 20.2473L24.4756 20.0826V20.0745Z" fill="#F7941D"/>
<path d="M19.1869 14.3086V14.4787H19.1005C18.8601 14.4787 18.5955 14.5273 18.5955 15.2024V17.7921C18.5922 17.9844 18.603 18.1766 18.6279 18.3673H18.4038L15.4738 15.0998V17.4438C15.4738 17.9407 15.5683 18.1108 16.0139 18.1108H16.1111V18.2782H14.6016V18.1108H14.6799C15.0741 18.1108 15.193 17.8407 15.193 17.3898V14.9918C15.1933 14.9239 15.1801 14.8565 15.1541 14.7938C15.1281 14.731 15.0899 14.674 15.0416 14.6263C14.9933 14.5785 14.9359 14.5408 14.8729 14.5155C14.8099 14.4901 14.7424 14.4776 14.6745 14.4787H14.6016V14.3086H15.7627L18.2957 17.1602V15.0269C18.3059 14.9573 18.3004 14.8864 18.2797 14.8192C18.259 14.752 18.2235 14.6903 18.1759 14.6385C18.1283 14.5868 18.0698 14.5463 18.0045 14.5201C17.9393 14.4938 17.869 14.4825 17.7989 14.4868H17.6746V14.3086H19.1869Z" fill="white"/>
<path d="M23.1172 18.2782V18.1108H23.1982C23.4034 18.1108 23.6195 18.0811 23.6195 17.7867V14.8163C23.6195 14.5192 23.4034 14.4895 23.1982 14.4895H23.1172V14.3086H24.8536V14.4787H24.7752C24.57 14.4787 24.354 14.5084 24.354 14.8055V17.7759C24.354 18.0703 24.57 18.1 24.7752 18.1H24.8536V18.2674L23.1172 18.2782Z" fill="white"/>
<path d="M18.3708 25.6478C17.9598 25.8254 17.5169 25.9173 17.0692 25.9178C15.7865 25.9178 14.8359 25.2184 14.8359 23.7899C14.8359 22.5153 15.8675 21.7754 17.0395 21.7754C17.7065 21.7754 17.9225 21.9806 18.4572 22.0589L18.5031 23.0095L18.333 23.0338C18.1737 22.4802 17.9117 22.0265 17.0557 22.0265C16.124 22.0265 15.6326 22.761 15.6326 23.7575C15.6326 24.7053 16.1186 25.6667 17.1934 25.6667C17.4715 25.6708 17.7417 25.5744 17.9545 25.3954C18.1673 25.2163 18.3084 24.9665 18.3519 24.6918L18.5139 24.7162L18.3708 25.6478Z" fill="white"/>
<path d="M22.2891 25.8209V25.6481H22.3728C22.578 25.6481 22.7913 25.6211 22.7913 25.324V22.3536C22.7913 22.0565 22.578 22.0268 22.3728 22.0268H22.2891V21.8594H25.1677C25.1677 22.1024 25.1677 22.4778 25.1677 22.7289L24.9976 22.7748C24.9679 22.4022 24.9004 22.1078 24.3009 22.1078H23.5313V23.6011H24.2091C24.5493 23.6011 24.6249 23.4067 24.66 23.0989H24.8302V24.4113L24.66 24.4491C24.6114 24.0953 24.6114 23.882 24.2037 23.882H23.5313V25.2079C23.5313 25.5779 23.8634 25.5779 24.2253 25.5779C24.9112 25.5779 25.2109 25.532 25.381 24.8811L25.5431 24.9217C25.4675 25.2241 25.4 25.5265 25.3513 25.829L22.2891 25.8209Z" fill="white"/>
</svg>
