<svg width="25" height="25" viewBox="0 0 25 25" fill="none" xmlns="http://www.w3.org/2000/svg">
<path d="M21 0.5H4C2.067 0.5 0.5 2.067 0.5 4V21C0.5 22.933 2.067 24.5 4 24.5H21C22.933 24.5 24.5 22.933 24.5 21V4C24.5 2.067 22.933 0.5 21 0.5Z" fill="white"/>
<path d="M21 25H4C1.79 25 0 23.21 0 21V4C0 1.79 1.79 0 4 0H21C23.21 0 25 1.79 25 4V21C25 23.21 23.21 25 21 25ZM4 1C2.35 1 1 2.35 1 4V21C1 22.65 2.35 24 4 24H21C22.65 24 24 22.65 24 21V4C24 2.35 22.65 1 21 1H4Z" fill="#C7C7C7"/>
<path d="M11.65 13.3898V5.93983C11.65 5.50983 11.84 5.20983 12.19 5.07983C12.68 4.89983 13.21 5.19983 13.3 5.71983C13.31 5.80983 13.32 5.90983 13.32 5.99983C13.32 8.38983 13.32 10.7798 13.32 13.1798V13.3898C13.38 13.3498 13.42 13.3198 13.45 13.2998C14.27 12.6198 15.09 11.9398 15.91 11.2498C16.2 11.0098 16.51 10.9398 16.85 11.1098C17.4 11.3798 17.48 12.0998 17 12.4998C16.49 12.9298 15.97 13.3598 15.46 13.7898C14.66 14.4598 13.86 15.1198 13.07 15.7898C12.72 16.0898 12.28 16.0898 11.93 15.7998C10.62 14.6998 9.30999 13.6098 7.98999 12.5098C7.68999 12.2598 7.58999 11.8898 7.71999 11.5398C7.84999 11.2098 8.17999 10.9898 8.53999 11.0098C8.75999 11.0198 8.93999 11.1298 9.10999 11.2698C9.90999 11.9398 10.71 12.5998 11.51 13.2698C11.55 13.2998 11.59 13.3298 11.65 13.3798V13.3898Z" fill="black"/>
<path d="M12.47 19.9999H7.25C5.93 19.9999 5 19.0699 5 17.7399C5 17.0999 5 16.4599 5 15.8199C5 15.3999 5.33 15.0499 5.74 15.0099C6.15 14.9699 6.53 15.2299 6.63 15.6299C6.65 15.7199 6.66 15.8299 6.66 15.9199C6.66 16.5199 6.66 17.1299 6.66 17.7299C6.66 18.1399 6.85 18.3299 7.26 18.3299H17.71C18.12 18.3299 18.31 18.1399 18.31 17.7299C18.31 17.0899 18.31 16.4399 18.31 15.7999C18.32 15.1799 18.99 14.8099 19.53 15.1099C19.8 15.2599 19.96 15.4999 19.96 15.8099C19.96 16.5299 19.98 17.2499 19.96 17.9599C19.92 19.0899 18.96 19.9999 17.81 19.9999C16.03 19.9999 14.25 19.9999 12.48 19.9999H12.47Z" fill="black"/>
</svg>
