<svg width="40" height="40" viewBox="0 0 40 40" fill="none" xmlns="http://www.w3.org/2000/svg">
<circle cx="20" cy="20" r="19.5" fill="white" stroke="#EFEFF1"/>
<path d="M14.6491 12H25.3509C26.8127 12 28 13.1873 28 14.6491V25.3509C28 26.8127 26.8127 28 25.3509 28H14.6491C13.1873 28 12 26.8127 12 25.3509V14.6491C12 13.1873 13.1873 12 14.6491 12Z" fill="#00C73C"/>
<path d="M16.4375 16.3386V14.5108C16.4375 14.287 16.6185 14.106 16.8424 14.106C17.0662 14.106 17.2472 14.287 17.2472 14.5108V16.3386C17.2472 17.8549 18.4813 19.0889 19.9976 19.0889C21.5139 19.0889 22.748 17.8549 22.748 16.3386V14.5108C22.748 14.287 22.929 14.106 23.1528 14.106C23.3767 14.106 23.5577 14.287 23.5577 14.5108V16.3386C23.5577 18.3026 21.9596 19.8987 19.9976 19.8987C18.0356 19.8987 16.4375 18.3006 16.4375 16.3386Z" fill="white"/>
<path d="M25.5797 25.7032H24.6629L23.0901 23.7723V25.7032H22.0312V22.4526H22.948L24.5208 24.4205V22.4526H25.5797V25.7032Z" fill="white"/>
</svg>
