<svg width="40" height="40" viewBox="0 0 40 40" fill="none" xmlns="http://www.w3.org/2000/svg">
<circle cx="20" cy="20" r="19.5" fill="white" stroke="#EFEFF1"/>
<path d="M7.60846 22.4945C5.92831 22.4945 5 21.3879 5 19.7555C5 18.1232 6.00551 17 7.63787 17C8.29044 17 8.83456 17.1544 9.25735 17.3915L9.08088 18.5349C8.68199 18.2813 8.21507 18.0827 7.66912 18.0827C6.75551 18.0827 6.3125 18.7574 6.3125 19.7482C6.3125 20.739 6.77206 21.443 7.68566 21.443C7.97794 21.443 8.18382 21.3897 8.3989 21.2739V20.3309H7.47794L7.32537 19.3566H9.54228V21.9338C8.98897 22.2941 8.33824 22.4945 7.60846 22.4945Z" fill="#5A5538"/>
<path d="M12.0172 22.4559C11.304 22.4559 10.7047 22.3033 10.168 22.057L10.3591 20.9375C10.9033 21.2298 11.5099 21.4283 12.0393 21.4283C12.4143 21.4283 12.6753 21.2684 12.6753 20.954C12.6753 20.6397 12.5209 20.5165 11.7783 20.2334C10.7194 19.8272 10.2599 19.4816 10.2599 18.6066C10.2599 17.5845 11.0577 17.0386 12.0705 17.0386C12.7617 17.0386 13.2066 17.1691 13.6661 17.3915L13.4658 18.4963C12.9897 18.2206 12.4915 18.0661 12.0852 18.0661C11.679 18.0661 11.4952 18.2353 11.4952 18.4798C11.4952 18.7481 11.6404 18.8786 12.3003 19.1323C13.4511 19.5551 13.9106 19.954 13.9106 20.7978C13.9106 21.9485 13.0669 22.454 12.0154 22.454" fill="#5A5538"/>
<path d="M17.5602 22.454C16.847 22.454 16.2495 22.3014 15.7109 22.0551L15.9021 20.9356C16.4462 21.2279 17.0529 21.4264 17.5823 21.4264C17.9591 21.4264 18.2201 21.2665 18.2201 20.9503C18.2201 20.6342 18.0657 20.5128 17.3231 20.2298C16.2642 19.8235 15.8047 19.4779 15.8047 18.6029C15.8028 17.5845 16.6006 17.0386 17.6135 17.0386C18.3028 17.0386 18.7477 17.1691 19.2091 17.3915L19.0087 18.4963C18.5326 18.2206 18.0345 18.0661 17.6282 18.0661C17.222 18.0661 17.0381 18.2353 17.0381 18.4798C17.0381 18.7481 17.1834 18.8786 17.8433 19.1323C18.994 19.5551 19.4536 19.9522 19.4536 20.7978C19.4536 21.9485 18.6098 22.454 17.5584 22.454" fill="#5A5538"/>
<path d="M23.2408 22.3934V20.2298H21.4062V22.3934H20.0938V17.1011H21.4062V19.079H23.2408V17.1011H24.5515V22.3934H23.2408Z" fill="#5A5538"/>
<path d="M32.8695 20.6378H32.5312V22.3952H31.2188V17.1011H32.9228C34.2114 17.1011 35.0018 17.6764 35.0018 18.8272C35.0018 19.9779 34.1507 20.6378 32.8695 20.6378ZM32.8474 18.09H32.5165V19.647H32.8235C33.4063 19.647 33.7279 19.3934 33.7279 18.8492C33.7279 18.3437 33.4283 18.09 32.8456 18.09" fill="#5A5538"/>
<path d="M26.8038 17.3254C26.8975 17.2132 27.0041 17.136 27.0722 17.1066C27.096 17.0956 27.1199 17.0901 27.1365 17.0882V17C27.1218 17 27.0942 17.0055 27.0777 17.0092C26.4821 17.1471 25.1953 17.7151 25.1953 19.7463C25.1953 21.7776 26.4821 22.3474 27.0777 22.4835C27.0942 22.4871 27.1218 22.4926 27.1365 22.4926V22.4044C27.1199 22.4044 27.0979 22.3971 27.0722 22.386C27.0041 22.3566 26.8975 22.2794 26.8038 22.1673C26.4288 21.7169 26.3203 20.8713 26.3313 19.7463C26.3424 18.6213 26.4288 17.7757 26.8038 17.3254Z" fill="#CFDB00"/>
<path d="M28.9246 17.3254C28.8309 17.2132 28.7243 17.136 28.6562 17.1066C28.6324 17.0956 28.6085 17.0901 28.5938 17.0882V17C28.6085 17 28.636 17.0055 28.6526 17.0092C29.2482 17.1471 30.5349 17.7151 30.5349 19.7463C30.5349 21.7776 29.2482 22.3474 28.6526 22.4835C28.6342 22.4871 28.6085 22.4926 28.5938 22.4926V22.4044C28.6103 22.4044 28.6324 22.3971 28.6562 22.386C28.7243 22.3566 28.8309 22.2794 28.9246 22.1673C29.2996 21.7169 29.4081 20.8713 29.3971 19.7463C29.386 18.6213 29.2996 17.7757 28.9246 17.3254Z" fill="#CFDB00"/>
</svg>
