<svg width="10" height="11" viewBox="0 0 10 11" fill="none" xmlns="http://www.w3.org/2000/svg">
<g id="Group 3182">
<path id="Vector" d="M0.334686 5.69482C0.334686 4.4354 0.333712 3.17599 0.334686 1.91689C0.33566 1.12047 0.856764 0.49514 1.63956 0.353906C1.73826 0.336049 1.84085 0.334751 1.94183 0.334426C3.98274 0.333452 6.02332 0.332803 8.06423 0.334101C8.99475 0.334751 9.66651 1.00618 9.66683 1.93378C9.66748 4.46462 9.66748 6.99547 9.66683 9.52631C9.66683 10.1542 9.17365 10.6299 8.56618 10.5935C8.28371 10.5766 8.05092 10.4351 7.8217 10.2899C7.31358 9.96852 6.81423 9.97794 6.30806 10.2994C5.45352 10.8422 4.58339 10.8546 3.72592 10.3172C3.1915 9.98216 2.67884 9.96365 2.14865 10.3085C1.92137 10.4562 1.68826 10.5945 1.40124 10.5981C0.807413 10.6059 0.336634 10.1529 0.335335 9.55813C0.332738 8.27047 0.334686 6.9828 0.334686 5.69514V5.69482ZM5.0006 2.40553C4.3204 2.40553 3.64021 2.40488 2.96001 2.40553C2.64475 2.40618 2.41488 2.61949 2.40774 2.9143C2.4006 3.2078 2.63663 3.44254 2.95417 3.44287C4.31878 3.44514 5.68339 3.44644 7.04767 3.4393C7.16131 3.43865 7.28858 3.39319 7.38534 3.33053C7.57267 3.20943 7.63631 2.96949 7.56586 2.75943C7.49475 2.54644 7.3019 2.4065 7.06586 2.40586C6.37754 2.40423 5.68923 2.40521 5.00092 2.40521L5.0006 2.40553ZM4.9967 5.51625C5.67689 5.51625 6.35709 5.51689 7.03761 5.51625C7.35904 5.51592 7.59345 5.29644 7.59443 4.99904C7.5954 4.70391 7.36034 4.47858 7.03988 4.47826C5.67949 4.47663 4.31878 4.47663 2.95839 4.47988C2.87202 4.47988 2.77949 4.50001 2.70092 4.53573C2.48144 4.63475 2.37202 4.87306 2.423 5.11105C2.47365 5.34741 2.67852 5.51462 2.93176 5.5156C3.62008 5.51787 4.30839 5.51625 4.9967 5.51657V5.51625ZM3.96196 7.5867C3.96196 7.5867 3.96196 7.58767 3.96196 7.588C4.29378 7.588 4.6256 7.59222 4.95709 7.5854C5.05125 7.58345 5.15287 7.5669 5.23761 7.52793C5.44995 7.43021 5.55676 7.18897 5.50741 6.95845C5.45839 6.72793 5.25644 6.55845 5.00936 6.55715C4.31358 6.55358 3.6178 6.55553 2.92202 6.55683C2.8743 6.55683 2.82462 6.56365 2.77884 6.57728C2.53891 6.64806 2.38144 6.88508 2.41196 7.12436C2.44573 7.38897 2.64345 7.58053 2.90644 7.5854C3.25839 7.5919 3.61034 7.58703 3.96228 7.58703L3.96196 7.5867Z" fill="black"/>
</g>
</svg>
