<svg width="14" height="14" viewBox="0 0 14 14" fill="none" xmlns="http://www.w3.org/2000/svg">
<path d="M12.6015 2.711C11.191 0.930344 9.32028 0.140052 7.00943 0C6.6793 0.0400148 6.19913 0.0600222 5.73896 0.150055C3.71821 0.5402 2.0676 1.55057 0.947185 3.39125C0.266934 4.49166 -0.0831957 5.72211 0.0168413 7.05261C0.126882 8.57317 0.707096 9.89366 1.71747 10.9841C1.89754 11.1841 1.93755 11.3542 1.88753 11.6043C1.7875 12.1845 1.70747 12.7647 1.62744 13.3449C1.58742 13.645 1.69746 13.8651 1.93755 13.9652C2.12762 14.0452 2.29768 13.9652 2.45774 13.8751C3.02795 13.565 3.60817 13.2649 4.17838 12.9548C4.33844 12.8648 4.47849 12.8547 4.65856 12.9048C5.74896 13.2649 6.84937 13.415 7.98979 13.2349C9.48034 12.9948 10.8108 12.4146 11.9312 11.3542C14.3321 9.07335 14.7623 5.46202 12.5915 2.711H12.6015Z" fill="#FFBD3C"/>
<path d="M4.99805 7C4.99805 7.55 4.54805 8 3.99805 8C3.44805 8 2.99805 7.55 2.99805 7C2.99805 6.45 3.44805 6 3.99805 6C4.54805 6 4.99805 6.45 4.99805 7Z" fill="white"/>
<path d="M7.99902 7C7.99902 7.55 7.54902 8 6.99902 8C6.44902 8 5.99902 7.55 5.99902 7C5.99902 6.45 6.44902 6 6.99902 6C7.54902 6 7.99902 6.45 7.99902 7Z" fill="white"/>
<path d="M11.0005 7C11.0005 7.55 10.5505 8 10.0005 8C9.45049 8 9.00049 7.55 9.00049 7C9.00049 6.45 9.45049 6 10.0005 6C10.5505 6 11.0005 6.45 11.0005 7Z" fill="white"/>
</svg>
