<svg width="40" height="40" viewBox="0 0 40 40" fill="none" xmlns="http://www.w3.org/2000/svg">
<circle cx="20" cy="20" r="20" fill="#01CAFF"/>
<path d="M19.9194 12.6044C15.5108 14.1636 6.41935 17.3302 5.32258 17.5238V15.1851L19.9194 10.1851L34.4355 15.1851V17.5238L19.9194 12.6044Z" fill="white"/>
<path d="M5 19.2173H10V21.1528H6.93548V26.4754H10V28.4109H5V19.2173Z" fill="white"/>
<path d="M16.2903 19.2173H24.5161V23.8947H22.9032V20.9915H16.2903V19.2173Z" fill="white"/>
<path d="M25.3226 24.5399H15.4839V26.3141H19.6774V28.4109H21.2903V26.3141H25.3226V24.5399Z" fill="white"/>
<path d="M31.2903 26.798H35V28.4109H25.9677V26.798H29.6774V25.8302H26.4516V21.6367H32.9032V20.9915H26.4516V19.3786H34.5161V23.2496H28.0645V24.2173H34.5161V25.8302H31.2903V26.798Z" fill="white"/>
<path d="M12.0968 24.7012V28.4109H10.4839V19.2173H12.0968V23.0883H13.0645V19.2173H14.6774V28.4109H13.0645V24.7012H12.0968Z" fill="white"/>
</svg>
