<svg width="40" height="40" viewBox="0 0 40 40" fill="none" xmlns="http://www.w3.org/2000/svg">
<circle cx="20" cy="20" r="19.5" fill="white" stroke="#EFEFF1"/>
<path d="M5 18.1099H5.95428V19.9085L7.63552 18.1099H8.88459L6.95853 20.1234L9.04946 22.4416H7.71546L5.95428 20.3857V22.4416H5V18.1099Z" fill="#44207A"/>
<path d="M12.9825 22.1369C12.4204 22.4317 11.8034 22.5516 11.1664 22.5516C9.81489 22.5516 8.82812 21.6648 8.82812 20.2758C8.82812 18.8868 9.81239 18 11.1664 18C11.8509 18 12.4579 18.1524 12.8926 18.5571L12.2206 19.2915C11.9633 19.0217 11.651 18.8818 11.1689 18.8818C10.3545 18.8818 9.82238 19.4689 9.82238 20.2758C9.82238 21.0827 10.3545 21.6722 11.1689 21.6722C11.5836 21.6722 11.8908 21.5548 12.0682 21.4574V20.7529H11.2913V19.8711H12.985V22.1344L12.9825 22.1369Z" fill="#44207A"/>
<path d="M18.8025 21.925H14.8555V21.4279H16.5192V20.546H15.2727V18.4326H18.3628V20.546H17.1213V21.4279H18.8025V21.925ZM17.7658 20.0714V18.9173H15.8697V20.0739H17.7658V20.0714Z" fill="#44207A"/>
<path d="M19.125 18.2951H19.7221V18.7922H20.6264V18.2951H21.2284V20.2012H19.125V18.2951ZM19.6221 20.5184H22.5175V21.6601H20.2242V21.9349H22.6374V22.3995H19.6321V21.2279H21.9154V20.9756H19.6221V20.5159V20.5184ZM20.6264 19.7215V19.2569H19.7221V19.7215H20.6264ZM22.5125 20.3336H21.9104V18.1152H22.5125V20.3336Z" fill="#44207A"/>
<path d="M23.1822 18.475H25.2331V20.1387H23.8117V20.9306C24.4712 20.9256 25.0283 20.8932 25.6603 20.7882L25.7128 21.2754C25.0033 21.4003 24.3613 21.4278 23.5744 21.4278H23.1847V19.6616H24.6161V18.9646H23.1797V18.475H23.1822ZM26.5696 22.437H25.9676V18.1152H26.5696V22.437Z" fill="#44207A"/>
<path d="M30.6399 21.2728H30.0378V19.7414H29.3158C29.1959 20.2385 28.7488 20.5783 28.2092 20.5808C27.5547 20.5808 27.0575 20.1136 27.0625 19.4766C27.0575 18.8346 27.5547 18.3799 28.2092 18.3824C28.7663 18.3824 29.2209 18.7322 29.3258 19.2543H30.0403V18.1201H30.6424V21.2728H30.6399ZM28.2092 20.0537C28.5264 20.0537 28.7713 19.8338 28.7738 19.4766C28.7738 19.1169 28.5264 18.907 28.2092 18.907C27.8919 18.907 27.6346 19.1144 27.6346 19.4766C27.6346 19.8338 27.8819 20.0537 28.2092 20.0537ZM27.777 20.953H28.384V21.8673H30.7448V22.3519H27.777V20.953Z" fill="#44207A"/>
<path d="M31.0547 21.3998H35.0017V21.8969H31.0547V21.3998ZM34.8593 20.1582L34.5945 20.6604C33.8401 20.5105 33.283 20.0858 33.0057 19.5337C32.7209 20.0808 32.1614 20.508 31.4169 20.6604L31.1571 20.1582C32.1164 19.9884 32.6785 19.3089 32.6835 18.6843V18.3721H33.328V18.6843C33.328 19.3164 33.8876 19.9934 34.8643 20.1582H34.8593Z" fill="#44207A"/>
</svg>
