<svg width="24" height="24" viewBox="0 0 24 24" fill="none" xmlns="http://www.w3.org/2000/svg">
<path d="M15.3293 11.4868C15.4413 11.5605 15.5006 11.6141 15.5665 11.641C15.7971 11.7214 16.0343 11.7951 16.2715 11.8688C16.9963 12.1101 17.4773 12.5994 17.7079 13.3367C17.7672 13.5377 17.8199 13.7388 17.8924 13.9332C17.9319 14.0337 18.0241 14.1208 18.09 14.2147C18.1493 14.1275 18.2284 14.0471 18.2613 13.9466C18.3404 13.7455 18.3865 13.531 18.459 13.3233C18.7028 12.5927 19.1772 12.0967 19.9086 11.8688C20.1326 11.7951 20.3632 11.7348 20.5807 11.6477C20.6531 11.6208 20.7124 11.5404 20.7783 11.4868C20.7124 11.4332 20.6531 11.3595 20.5741 11.3326C20.3698 11.2589 20.1655 11.1986 19.9613 11.1383C19.1838 10.897 18.683 10.3809 18.4458 9.59002C18.3799 9.36884 18.3206 9.14766 18.2416 8.93318C18.2152 8.86616 18.1427 8.81924 18.0834 8.76562C18.0307 8.81924 17.9583 8.87286 17.9385 8.93989C17.866 9.14766 17.8067 9.35544 17.7408 9.56321C17.497 10.3876 16.9699 10.9238 16.1529 11.1517C15.9552 11.2053 15.7576 11.2723 15.5665 11.3393C15.5006 11.3662 15.4413 11.4198 15.3359 11.5002L15.3293 11.4868Z" fill="#FF542E"/>
<path d="M6.85356 18.7774C7.27813 18.9214 7.70269 19.0655 8.12726 19.202C9.12802 19.528 9.80278 20.18 10.144 21.1807C10.2653 21.5371 10.3562 21.9086 10.4851 22.2573C10.5154 22.3559 10.6292 22.4241 10.705 22.4999C10.7808 22.4241 10.8869 22.3559 10.9249 22.2573C11.0462 21.9161 11.1447 21.5598 11.2584 21.2111C11.5844 20.2103 12.2516 19.5431 13.2524 19.2095C13.6011 19.0958 13.9575 19.0048 14.2986 18.8835C14.3972 18.8532 14.4654 18.7471 14.5488 18.6712C14.4654 18.5879 14.3896 18.4741 14.2835 18.4362C13.9423 18.3149 13.586 18.2239 13.2372 18.1102C12.244 17.769 11.5769 17.1019 11.2509 16.1011C11.1523 15.7903 11.0689 15.4643 10.9552 15.1534C10.9097 15.0245 10.7884 14.9335 10.6974 14.8198C10.6216 14.926 10.5154 15.0245 10.47 15.1382C10.3562 15.4491 10.2728 15.7675 10.1743 16.0859C9.83311 17.1246 9.13561 17.807 8.09694 18.1405C7.67995 18.2694 7.27813 18.4211 6.86114 18.5651V18.7774H6.85356Z" fill="#FFAE35"/>
<path d="M8.29272 11.7432C8.42161 11.5536 8.52017 11.4551 8.55807 11.3413C8.70212 10.9319 8.82343 10.5074 8.94473 10.0904C9.37688 8.62714 10.3246 7.67945 11.7802 7.23214C12.1972 7.10325 12.6218 6.98953 13.0312 6.84548C13.1525 6.79999 13.2435 6.66352 13.3496 6.56496C13.251 6.4664 13.1601 6.32235 13.0463 6.28444C12.5611 6.11007 12.0532 5.98118 11.5679 5.81439C10.317 5.38224 9.46786 4.52552 9.03571 3.28215C8.86892 2.80451 8.74761 2.31171 8.58082 1.83408C8.53533 1.70519 8.3837 1.60663 8.27756 1.50049C8.18658 1.60663 8.05011 1.69761 8.00462 1.82649C7.83783 2.30413 7.70894 2.79693 7.54215 3.27457C7.11 4.54069 6.25328 5.3974 4.98716 5.82955C4.50953 5.99634 4.01673 6.11765 3.53909 6.29202C3.41778 6.33751 3.32681 6.47398 3.22066 6.57254C3.31922 6.6711 3.4102 6.81515 3.53151 6.86064C3.97124 7.01985 4.43371 7.14116 4.88102 7.28521C6.25328 7.72494 7.15549 8.63472 7.59522 9.9994C7.74685 10.4619 7.87573 10.9243 8.02736 11.3792C8.06527 11.493 8.17141 11.5839 8.30788 11.7583L8.29272 11.7432Z" fill="#17BF98"/>
</svg>
