<svg width="16" height="16" viewBox="0 0 16 16" fill="none" xmlns="http://www.w3.org/2000/svg">
<path d="M8 0.64C7.00612 0.64 6.04232 0.834509 5.13535 1.21812C4.259 1.58879 3.47183 2.11956 2.79569 2.79569C2.11956 3.47183 1.58879 4.259 1.21812 5.13535C0.834509 6.04232 0.64 7.00612 0.64 8C0.64 8.99387 0.834509 9.95768 1.21812 10.8646C1.58879 11.741 2.11956 12.5282 2.79569 13.2043C3.47183 13.8804 4.259 14.4112 5.13535 14.7819C6.04232 15.1655 7.00612 15.36 8 15.36C8.99387 15.36 9.95768 15.1655 10.8646 14.7819C11.741 14.4112 12.5282 13.8804 13.2043 13.2043C13.8804 12.5282 14.4112 11.741 14.7819 10.8646C15.1655 9.95768 15.36 8.99387 15.36 8C15.36 7.00612 15.1655 6.04232 14.7819 5.13535C14.4112 4.259 13.8804 3.47183 13.2043 2.79569C12.5282 2.11956 11.741 1.58879 10.8646 1.21812C9.95768 0.834509 8.99387 0.64 8 0.64ZM8 0C12.4183 0 16 3.58172 16 8C16 12.4183 12.4183 16 8 16C3.58172 16 0 12.4183 0 8C0 3.58172 3.58172 0 8 0Z" fill="#17BF98"/>
<path d="M7.99984 3.83997C8.82261 3.83997 9.62691 4.08395 10.311 4.54105C10.9951 4.99816 11.5283 5.64786 11.8432 6.408C12.158 7.16814 12.2404 8.00458 12.0799 8.81154C11.9194 9.6185 11.5232 10.3597 10.9414 10.9415C10.3596 11.5233 9.61838 11.9195 8.81142 12.08C8.00446 12.2405 7.16802 12.1582 6.40788 11.8433C5.64774 11.5284 4.99804 10.9952 4.54093 10.3111C4.08382 9.62703 3.83984 8.82273 3.83984 7.99996C3.83984 6.89666 4.27813 5.83855 5.05828 5.0584C5.83843 4.27825 6.89654 3.83997 7.99984 3.83997V3.83997Z" fill="#17BF98"/>
</svg>
