<svg width="60" height="60" viewBox="0 0 60 60" fill="none" xmlns="http://www.w3.org/2000/svg">
<g clip-path="url(#clip0_7112_273743)">
<path d="M29.8357 59.9968C28.5268 59.8725 27.0969 59.7967 25.6864 59.5917C23.3592 59.2512 21.8421 57.4517 21.7857 55.0841C21.7098 51.8984 19.6215 49.4307 16.4954 48.8869C15.1268 48.648 13.8147 48.8869 12.5753 49.5292C10.0012 50.8639 7.9112 50.3975 6.16337 48.1009C4.58339 46.0255 3.30036 43.7773 2.31267 41.3614C1.31046 38.9115 1.98183 36.7893 4.22189 35.3658C7.85794 33.0548 8.35501 28.1841 5.23217 25.3356C4.86421 24.9999 4.43492 24.724 4.01531 24.4496C2.07866 23.1892 1.35242 21.0056 2.19648 18.8608C3.25679 16.1656 4.69475 13.6802 6.49583 11.4127C7.94832 9.58423 10.2319 9.17754 12.4139 10.3218C15.0978 11.7307 18.1109 11.2707 20.0976 9.13396C21.1837 7.96552 21.7389 6.57113 21.7808 4.97662C21.8486 2.43478 23.3156 0.709545 25.8058 0.325443C28.6511 -0.11353 31.5028 -0.108688 34.3464 0.341582C36.6543 0.707931 38.1487 2.49772 38.2213 4.88141C38.2956 7.3587 39.4043 9.25177 41.5976 10.4154C43.5035 11.4257 45.5064 11.4596 47.3833 10.4008C49.696 9.09684 52.2862 9.60683 53.905 11.8969C55.3865 13.9933 56.7002 16.1688 57.6766 18.5461C58.6949 21.0266 58.0252 23.144 55.7528 24.59C52.1668 26.872 51.652 31.6781 54.7006 34.5395C55.0782 34.8946 55.5204 35.1899 55.9578 35.4724C57.9057 36.7344 58.6481 38.9002 57.8121 41.0499C56.7534 43.7693 55.3042 46.2692 53.4853 48.5496C52.0829 50.3071 49.8041 50.7719 47.7803 49.7019C45.5354 48.5157 43.3083 48.4285 41.1328 49.7923C39.2817 50.9526 38.3182 52.694 38.2294 54.8711C38.1181 57.6308 36.6188 59.3351 33.8671 59.6675C32.5696 59.8241 31.2623 59.8854 29.834 60L29.8357 59.9968ZM38.8927 29.777C38.7055 24.795 34.6531 20.8975 29.8373 21.0702C24.8327 21.2493 20.9158 25.3259 21.103 30.1611C21.2967 35.1286 25.3539 39.031 30.1617 38.876C35.1421 38.7146 39.0735 34.6186 38.8911 29.777H38.8927Z" fill="#667085"/>
</g>
<defs>
<clipPath id="clip0_7112_273743">
<rect width="60" height="60" fill="white"/>
</clipPath>
</defs>
</svg>
