<svg width="16" height="16" viewBox="0 0 16 16" fill="none" xmlns="http://www.w3.org/2000/svg">
<rect width="16" height="16" rx="2" fill="#17BF98" fill-opacity="0.08"/>
<path d="M14.0022 5.47734C13.9975 5.91361 13.6989 6.63988 13.098 7.24035C12.7571 7.58109 12.4176 7.92312 12.0751 8.26258C11.7348 8.59992 11.2934 8.62423 10.9738 8.32613C10.6506 8.02504 10.6442 7.55763 10.9773 7.20751C11.3287 6.83776 11.7036 6.49019 12.0525 6.11788C12.6394 5.49226 12.6058 4.54977 11.9886 3.95997C11.4269 3.42304 10.4574 3.41068 9.89947 3.95357C9.21405 4.62099 8.53717 5.29737 7.87051 5.98312C7.31774 6.55118 7.30921 7.40752 7.82317 8.0131C7.90463 8.10948 7.98567 8.21183 8.03984 8.32442C8.19722 8.65024 8.10723 9.03917 7.84065 9.24644C7.5519 9.47119 7.16206 9.48015 6.88141 9.23237C6.37428 8.78543 6.07827 8.2114 5.9678 7.54868C5.79208 6.49232 6.11496 5.58907 6.85539 4.83252C7.49475 4.17917 8.14605 3.53691 8.7935 2.89167C9.69389 1.99524 10.9704 1.7577 12.1707 2.26221C13.2762 2.72663 14.0056 3.84183 14.0022 5.47734Z" fill="#17BF98"/>
<path d="M10.0841 9.14439C10.0798 9.82076 9.78038 10.5475 9.18069 11.1488C8.52982 11.8012 7.87851 12.4529 7.22594 13.1037C6.33025 13.9972 4.99267 14.2483 3.84874 13.7383C2.66387 13.2103 1.93067 12.0393 2.00745 10.7692C2.05309 10.0139 2.33544 9.35335 2.8686 8.80961C3.23071 8.44029 3.59369 8.07097 3.96561 7.71104C4.29745 7.38991 4.76619 7.39246 5.06817 7.70293C5.35863 8.00188 5.35351 8.45863 5.0366 8.7934C4.7052 9.14311 4.35545 9.47489 4.01807 9.81948C3.55786 10.2891 3.42521 10.8456 3.64572 11.4618C3.86367 12.0704 4.33114 12.3847 4.96452 12.4388C5.4162 12.4776 5.82183 12.3361 6.14769 12.0158C6.79984 11.3748 7.44944 10.7308 8.08922 10.0779C8.70725 9.44717 8.72261 8.6015 8.14637 7.93322C7.72199 7.4415 7.85463 6.80607 8.42233 6.62482C8.72175 6.5293 8.98022 6.61672 9.20158 6.82867C9.75052 7.35365 10.082 8.16096 10.0841 9.14439Z" fill="#17BF98"/>
</svg>
