<svg width="40" height="40" viewBox="0 0 40 40" fill="none" xmlns="http://www.w3.org/2000/svg">
<circle cx="20" cy="20" r="19.5" fill="white" stroke="#EFEFF1"/>
<path d="M9.67353 24.3531V15.5541C9.68883 15.164 9.86628 14.9728 10.6648 15.0386L24.0882 16.1721C24.0286 15.4455 23.3677 15.522 23.2056 15.4929L9.57716 14.0137C8.07496 13.8653 8 14.9682 8 15.2038V24.4663C8.00306 24.6973 7.93575 25.9701 9.57716 25.8936L23.2071 24.4143C23.3692 24.3853 24.0286 24.4633 24.0897 23.7351L10.6663 24.8687C9.76837 24.9436 9.69953 24.6285 9.67506 24.3531H9.67353Z" fill="#0D973A"/>
<path d="M31.018 21.65C31.0225 21.3288 30.7319 21.0656 30.403 21.0595C30.3999 21.0595 28.6729 21.0167 28.6729 21.0167V19.9566L32.0016 19.9612L31.9985 18.9944L30.6722 19.0204C30.6891 18.9607 30.9583 18.0827 31.1174 17.1373C31.1204 17.1174 31.1235 17.099 31.1266 17.0807C31.1296 17.0577 31.1327 17.0348 31.1357 17.0134C31.1373 16.9935 31.1388 16.9736 31.1388 16.9522C31.1388 16.6049 30.8589 16.3066 30.5116 16.3066C30.4963 16.3066 28.3317 16.4642 28.3317 16.4642V17.2444L30.1047 17.148C30.1001 17.1847 30.0848 17.2918 30.0634 17.3928C29.9777 17.8195 29.7819 18.6808 29.7636 18.7741C29.7406 18.8904 29.7131 18.947 29.6963 19.0357L27.547 19.077C27.5653 19.0112 27.7153 18.3764 27.7933 18.0215C27.856 17.7339 27.9462 17.3117 27.9462 17.1709C27.9462 16.8237 27.6648 16.5437 27.3191 16.5437C27.2976 16.5437 27.2762 16.5437 27.2563 16.5468L25.4145 16.686V17.4631L26.9856 17.3698C26.9825 17.4203 26.6919 18.9454 26.649 19.0938L24.8164 19.129V19.9612H27.6923L27.6877 21.009L25.4941 20.9586L25.488 21.7617L30.0099 21.9361V23.4719L31.0195 23.5484C31.0195 23.5484 31.018 21.6775 31.0195 21.6515L31.018 21.65Z" fill="#292726"/>
<path d="M20.9717 17.7006C20.9625 17.5752 20.9763 17.0306 20.2665 17.0352L18.2656 17.1836V21.5326L20.9687 21.6473L20.9717 17.6991V17.7006ZM19.11 20.7479V17.9178L20.1197 17.8628V20.7693L19.11 20.7479Z" fill="#292726"/>
<path d="M24.0808 17.416C24.0716 17.078 23.8024 16.8057 23.4673 16.8057C23.3511 16.8057 23.2149 16.8256 23.2149 16.8256V18.9748L22.4394 18.9901C22.4394 18.9901 22.4394 17.5461 22.4394 17.5491C22.4394 17.2034 22.1426 16.9403 21.8443 16.9342C21.8443 16.9342 21.6439 16.925 21.5827 16.9693L21.5781 22.8741L22.4378 22.9384V19.8391H23.2149V22.995L24.0838 23.0577C24.0838 23.0577 24.0838 17.4191 24.0838 17.4145L24.0808 17.416Z" fill="#292726"/>
<path d="M15.8274 21.6133V20.4996L17.53 20.5333V19.7393L14.3282 19.7363L14.3206 18.2983L17.5254 18.1071V18.0352C17.5254 17.6405 17.2011 17.3086 16.8217 17.3086C16.8095 17.3086 15.7157 17.3881 13.571 17.5442L13.5007 17.5488V20.4553L14.9784 20.4843V21.5781L12.875 21.4756V22.2206L18.0271 22.6015V21.7127L15.8274 21.6117V21.6133Z" fill="#292726"/>
</svg>
