<svg width="40" height="40" viewBox="0 0 40 40" fill="none" xmlns="http://www.w3.org/2000/svg">
<circle cx="20" cy="20" r="19.5" fill="white" stroke="#EFEFF1"/>
<path d="M12.0997 15L8.09996 18.7035C7.97332 18.8212 7.96602 19.0193 8.08373 19.1459C8.14542 19.2121 8.22904 19.2458 8.31306 19.2458C8.32605 19.2458 8.33945 19.2437 8.35244 19.2421C8.36421 19.2433 8.37598 19.2458 8.38816 19.2458H9.90421V22.4772C9.90421 22.6984 10.0832 22.8774 10.3044 22.8774C10.5256 22.8774 10.7046 22.698 10.7046 22.4772V20.996H12.1963V22.4772C12.1963 22.6984 12.3754 22.8774 12.5966 22.8774C12.8178 22.8774 12.9968 22.698 12.9968 22.4772V19.0055C12.9968 18.7842 12.8178 18.6052 12.5966 18.6052C12.3754 18.6052 12.1963 18.7842 12.1963 19.0055V20.2321H10.7046V19.0055C10.7046 18.7842 10.5256 18.6052 10.3044 18.6052C10.2679 18.6052 9.12244 18.6081 9.12244 18.6081L11.7332 16.1824C12.0953 15.8431 12.3498 15.8366 12.7062 16.1572C13.0544 16.4706 14.3383 17.6294 15.0121 18.2375C15.2215 18.4266 15.3709 18.5614 15.416 18.602H19.298C19.404 18.602 19.499 18.5362 19.5363 18.4368C19.5737 18.3373 19.5456 18.2253 19.4657 18.1555L15.8596 15H12.0997Z" fill="#005DAB"/>
<path d="M14.8095 19.7002C13.91 19.7002 13.457 20.4089 13.457 21.2828C13.457 22.1567 13.9457 22.8658 14.8095 22.8658C15.6733 22.8658 16.162 22.1571 16.162 21.2828C16.162 20.4085 15.7094 19.7002 14.8095 19.7002ZM14.8095 22.2631C14.3951 22.2631 14.1609 21.8243 14.1609 21.2828C14.1609 20.7413 14.378 20.3026 14.8095 20.3026C15.241 20.3026 15.4581 20.7413 15.4581 21.2828C15.4581 21.8243 15.2239 22.2631 14.8095 22.2631Z" fill="#005DAB"/>
<path d="M19.657 19.7118C19.3217 19.7118 19.0055 19.942 18.7526 20.2606C18.641 19.9282 18.4198 19.7118 18.0666 19.7118C17.7525 19.7118 17.4525 19.9059 17.2029 20.1847V20.0272C17.2029 19.8344 17.0466 19.6777 16.8534 19.6777C16.6602 19.6777 16.5039 19.834 16.5039 20.0272V22.4919C16.5039 22.6847 16.6602 22.8414 16.8534 22.8414C17.0466 22.8414 17.2029 22.6851 17.2029 22.4919V21.0038C17.2029 20.7185 17.4038 20.3487 17.7025 20.3487C18.0013 20.3487 18.1417 20.5322 18.1417 20.6945V22.4919C18.1417 22.6847 18.298 22.8414 18.4912 22.8414C18.6844 22.8414 18.8407 22.6851 18.8407 22.4919V21.1491C18.8407 20.7672 19.0416 20.3487 19.3404 20.3487C19.6391 20.3487 19.7796 20.5732 19.7796 20.7351V22.4915C19.7796 22.6843 19.9358 22.8409 20.129 22.8409C20.3222 22.8409 20.4785 22.6847 20.4785 22.4915V20.7984C20.4785 20.0662 20.2626 19.7114 19.6578 19.7114L19.657 19.7118Z" fill="#005DAB"/>
<path d="M23.6213 22.6047C23.6213 22.6023 23.6205 22.6002 23.6205 22.5982C23.6205 22.5962 23.6213 22.5946 23.6213 22.5925C23.6213 21.9183 23.0726 21.0996 22.281 21.0996C21.6093 21.0996 21.0662 21.6119 20.9205 22.3685H20.1468C20.0161 22.3685 19.9102 22.4744 19.9102 22.6051C19.9102 22.7358 20.0161 22.8417 20.1468 22.8417H20.8835C20.9123 23.6832 21.5301 24.3164 22.2936 24.3164C23.0015 24.3164 23.3831 23.8143 23.4034 23.7936C23.5251 23.6682 23.6221 23.4823 23.4967 23.3605C23.3713 23.2387 23.1708 23.2416 23.049 23.367C23.0458 23.3702 22.73 23.6832 22.2936 23.6832C21.891 23.6832 21.6182 23.3175 21.5874 22.8413H23.3855C23.5162 22.8413 23.6221 22.7354 23.6221 22.6047H23.6213ZM22.281 21.7328C22.6764 21.7328 22.8363 22.0908 22.8996 22.3685H21.6259C21.7107 22.0096 21.9238 21.7328 22.281 21.7328Z" fill="url(#paint0_linear_2163_12183)"/>
<path d="M25.0633 22.1864H24.9152C24.8725 22.1864 24.8449 22.1681 24.8449 22.1198V20.4544H25.1481C25.2967 20.4544 25.4173 20.3338 25.4173 20.1852C25.4173 20.0367 25.2967 19.9161 25.1481 19.9161H24.8449V19.412C24.8449 19.2233 24.67 19.0698 24.4812 19.0698C24.2925 19.0698 24.1212 19.2229 24.1212 19.412V19.9161H23.9722C23.8237 19.9161 23.7031 20.0367 23.7031 20.1852C23.7031 20.3338 23.8237 20.4544 23.9722 20.4544H24.1212V22.2136C24.1212 22.5557 24.3895 22.824 24.7317 22.824H25.0637C25.2525 22.824 25.4059 22.6937 25.4059 22.5046C25.4059 22.3154 25.2529 22.1864 25.0637 22.1864H25.0633Z" fill="#005DAB"/>
<path d="M28.1107 22.3502C28.0741 22.2593 28.0469 22.1375 28.0469 22.0957V20.4766C28.0469 20.0889 27.6946 19.6851 26.8917 19.6851C26.0889 19.6851 25.7942 20.2756 25.782 20.3037C25.7276 20.4311 25.7089 20.6089 25.8547 20.7128C25.9821 20.8037 26.2005 20.7672 26.2918 20.6373C26.2938 20.6345 26.4806 20.3033 26.8917 20.3033C27.3029 20.3033 27.3922 20.5671 27.3922 20.6852V20.8033C27.2985 20.9032 27.1706 20.9876 27.0009 20.9945C26.5642 21.0128 25.5547 21.0765 25.5547 22.0044C25.5547 22.6413 26.0552 22.832 26.528 22.832C26.7777 22.832 27.1324 22.6766 27.3955 22.3697C27.4101 22.5552 27.4823 22.6827 27.6155 22.7935C27.678 22.8454 27.7543 22.841 27.8379 22.841C27.9215 22.841 28.0344 22.7537 28.0652 22.7228C28.1289 22.6591 28.1472 22.4407 28.1107 22.3498V22.3502ZM27.1921 22.0864C27.0647 22.2138 26.91 22.323 26.6644 22.323C26.4189 22.323 26.2731 22.114 26.2731 21.9317C26.2731 21.7495 26.4643 21.5226 26.8008 21.5226C27.0561 21.5226 27.2688 21.4459 27.3922 21.3391V21.8112C27.3407 21.9082 27.2757 22.0032 27.1921 22.0868V22.0864Z" fill="#005DAB"/>
<path d="M29.9646 21.2763L30.4797 20.5019C30.6067 20.3107 30.6067 20.0006 30.4797 19.8094C30.3526 19.6182 30.1464 19.6182 30.0194 19.8094L29.5043 20.5839L28.9892 19.8094C28.8621 19.6182 28.6559 19.6182 28.5289 19.8094C28.4018 20.0006 28.4018 20.3107 28.5289 20.5019L29.044 21.2763L28.5289 22.0508C28.4018 22.242 28.4018 22.5521 28.5289 22.7433C28.5926 22.8387 28.6758 22.8866 28.759 22.8866C28.8422 22.8866 28.9254 22.8387 28.9892 22.7433L29.5043 21.9688L30.0194 22.7433C30.0831 22.8387 30.1663 22.8866 30.2495 22.8866C30.3327 22.8866 30.4163 22.8387 30.4797 22.7433C30.6067 22.5521 30.6067 22.242 30.4797 22.0508L29.9646 21.2763Z" fill="#005DAB"/>
<path d="M31.5572 23.1905C31.8002 23.1905 31.9972 22.9936 31.9972 22.7505C31.9972 22.5075 31.8002 22.3105 31.5572 22.3105C31.3142 22.3105 31.1172 22.5075 31.1172 22.7505C31.1172 22.9936 31.3142 23.1905 31.5572 23.1905Z" fill="#019F40"/>
<path d="M31.1768 23.3022C31.1768 23.3022 29.5393 24.77 27.3564 24.77C25.7912 24.77 24.7476 24.1283 24.2857 23.7808C24.2817 23.7199 24.2447 23.629 24.2447 23.629C24.2447 23.629 24.1875 23.5705 24.1441 23.5324C24.1006 23.4938 24.0544 23.461 24.0544 23.461C24.0544 23.461 24.0093 23.4877 23.9586 23.5454C23.9078 23.603 23.8867 23.6513 23.8867 23.6513C23.8867 23.6513 23.9176 23.6862 23.9683 23.7313C24.0194 23.7763 24.0767 23.819 24.0767 23.819C24.0767 23.819 24.1818 23.8466 24.2419 23.8397C24.6941 24.2837 25.8103 25.2067 27.2841 25.2067C29.2248 25.2067 30.3589 24.1214 31.1776 23.3027L31.1768 23.3022Z" fill="#FA9F1D"/>
<path d="M20.7566 17.6712C20.8219 17.6063 20.8548 17.5263 20.8548 17.4342C20.8548 17.342 20.8215 17.262 20.7566 17.1963C20.6912 17.1309 20.6064 17.0977 20.5049 17.0977C20.4034 17.0977 20.3198 17.1309 20.2545 17.1963C20.1891 17.2616 20.1562 17.3416 20.1562 17.4342C20.1562 17.5267 20.1895 17.6063 20.2545 17.6712C20.3198 17.7361 20.4039 17.769 20.5049 17.769C20.606 17.769 20.6912 17.7361 20.7566 17.6712ZM20.3673 17.2982C20.3994 17.2612 20.4457 17.2426 20.5049 17.2426C20.5642 17.2426 20.6121 17.2612 20.6441 17.2986C20.6766 17.3359 20.6929 17.3818 20.6929 17.4346C20.6929 17.4873 20.6766 17.5316 20.6441 17.5689C20.6121 17.6058 20.5654 17.6245 20.5049 17.6245C20.4444 17.6245 20.399 17.6058 20.3673 17.5685C20.3348 17.5312 20.3186 17.4857 20.3186 17.4342C20.3186 17.3826 20.3348 17.3355 20.3673 17.2982Z" fill="#005DAB"/>
<path d="M20.508 17.9009H20.3477V18.325H21.278V18.1846H20.508V17.9009Z" fill="#005DAB"/>
<path d="M21.2516 17.0552H21.0938V18.0005H21.2516V17.0552Z" fill="#005DAB"/>
<path d="M22.1203 17.9276C22.0651 17.9329 22.0107 17.9366 21.9584 17.9386C21.893 17.9426 21.8321 17.9443 21.7765 17.9443H21.697V17.6963H22.1301V17.5513H21.697V17.3265H22.1495V17.186H21.5391V18.0892H21.548C21.5545 18.0892 21.6044 18.0892 21.6974 18.0884C21.7895 18.088 21.8764 18.0855 21.9547 18.0819C22.0075 18.079 22.0631 18.075 22.1191 18.0693C22.1755 18.064 22.2234 18.0587 22.2612 18.0539L22.2693 18.0526V17.9106L22.2591 17.9118C22.2222 17.9167 22.1755 17.9215 22.1199 17.9272L22.1203 17.9276Z" fill="#005DAB"/>
<path d="M22.3928 17.5134H22.168V17.6539H22.3928V18.3541H22.5507V17.0552H22.3928V17.5134Z" fill="#005DAB"/>
<path d="M23.4744 17.8098H23.6278V17.0771H23.4744V17.2878H23.2422V17.4287H23.4744V17.8098Z" fill="#005DAB"/>
<path d="M23.5794 18.05C23.5246 17.9704 23.497 17.9124 23.497 17.8775V17.8247H23.318V17.8775C23.318 17.9124 23.2921 17.968 23.2405 18.0435C23.1894 18.1186 23.0761 18.1843 22.9036 18.2387L22.8906 18.2428L22.9901 18.3581L22.9953 18.3568C23.0619 18.3402 23.1427 18.3029 23.2356 18.246C23.3209 18.1933 23.3793 18.1368 23.4094 18.0772C23.4398 18.1275 23.497 18.1835 23.579 18.244C23.6704 18.311 23.752 18.3491 23.8222 18.3568H23.827L23.9261 18.2424L23.9123 18.2387C23.7455 18.1929 23.6334 18.1295 23.5794 18.0504V18.05Z" fill="#005DAB"/>
<path d="M23.2665 17.7386C23.3295 17.7308 23.3717 17.7243 23.3964 17.7195L23.4037 17.7178V17.5725L23.3928 17.575C23.3652 17.5807 23.3193 17.5871 23.256 17.5936C23.1923 17.6005 23.1407 17.6042 23.1026 17.6054L23.0043 17.6066V17.1191H22.8477V17.7544L23.0904 17.7528C23.1452 17.7507 23.2044 17.7459 23.2665 17.7381V17.7386Z" fill="#005DAB"/>
<path d="M23.9077 17.0552H23.7539V17.9348H23.9077V17.0552Z" fill="#005DAB"/>
<path d="M25.2822 17.6459C25.3622 17.6358 25.4235 17.6264 25.464 17.6175L25.4713 17.6159V17.4766L25.4604 17.4791C25.4129 17.4888 25.3484 17.4986 25.2676 17.5079C25.1868 17.5176 25.104 17.5233 25.022 17.5253L24.8649 17.5266V17.1089H24.707V17.667L25.0208 17.6642C25.1137 17.6621 25.2018 17.656 25.2822 17.6459Z" fill="#005DAB"/>
<path d="M25.5471 17.9301H24.9967V17.7876H24.8359V18.34H25.7078V17.7876H25.5471V17.9301ZM24.9967 18.2036V18.066H25.5471V18.2036H24.9967Z" fill="#005DAB"/>
<path d="M25.7087 17.0552H25.5508V17.7412H25.7087V17.4473H25.8832V17.3068H25.7087V17.0552Z" fill="#005DAB"/>
<path d="M26.4698 17.7355C26.4264 17.6308 26.404 17.5122 26.404 17.3832V17.1587H26.2392V17.3832C26.2392 17.5143 26.2165 17.6393 26.1715 17.7554C26.1268 17.8706 26.0501 17.9656 25.9441 18.0379L25.9336 18.0448L26.0627 18.1442L26.0684 18.1394C26.1256 18.0886 26.18 18.0253 26.2307 17.9514C26.2733 17.8889 26.3038 17.8305 26.3212 17.7773C26.3391 17.828 26.3708 17.8836 26.415 17.9433C26.4678 18.0143 26.5177 18.0691 26.5627 18.1065L26.5688 18.1113L26.6817 18.007L26.6732 18.0005C26.5814 17.9291 26.5132 17.8398 26.4698 17.7359V17.7355Z" fill="#005DAB"/>
<path d="M26.7347 17.4932H26.5391V17.6426H26.7347V18.2961H26.8881V17.0845H26.7347V17.4932Z" fill="#005DAB"/>
<path d="M27.146 17.0552H26.9922V18.3541H27.146V17.0552Z" fill="#005DAB"/>
<path d="M27.9002 17.7264C27.8421 17.6253 27.8125 17.4946 27.8125 17.3379V17.1265H27.6477V17.3379C27.6477 17.493 27.6189 17.629 27.562 17.743C27.5052 17.8563 27.4119 17.9513 27.2848 18.0243L27.2734 18.0308L27.4005 18.1347L27.4058 18.1315C27.4671 18.0954 27.5336 18.0345 27.6038 17.9504C27.6668 17.8754 27.7098 17.8047 27.7325 17.7394C27.7654 17.8108 27.8125 17.8823 27.873 17.9517C27.9399 18.0284 28.002 18.0803 28.0568 18.1059L28.0629 18.1088L28.168 17.991L28.1587 17.9854C28.0451 17.9147 27.9578 17.8275 27.8997 17.7264H27.9002Z" fill="#005DAB"/>
<path d="M28.283 17.4814H28.0078V17.6279H28.283V18.3541H28.4409V17.0552H28.283V17.4814Z" fill="#005DAB"/>
<path d="M29.7438 17.0552H29.5859V18.3541H29.7438V17.0552Z" fill="#005DAB"/>
<path d="M29.1942 17.4744H28.8727V17.1704H28.7148V18.0865H29.3521V17.1704H29.1942V17.4744ZM28.8727 17.9449V17.6197H29.1942V17.9449H28.8727Z" fill="#005DAB"/>
<path d="M30.1247 17.8603C30.2169 17.8319 30.3102 17.7792 30.4024 17.7037C30.4872 17.6343 30.5452 17.562 30.5757 17.4893C30.609 17.5555 30.6666 17.6253 30.7478 17.6976C30.8367 17.7771 30.93 17.8319 31.025 17.8603L31.0303 17.862L31.1411 17.7414L31.1281 17.7369C30.9292 17.6663 30.7997 17.577 30.7433 17.4719C30.6865 17.3659 30.6577 17.2827 30.6577 17.2243V17.1265H30.4912V17.2243C30.4912 17.2827 30.4645 17.3655 30.4117 17.4699C30.3597 17.5734 30.2278 17.6631 30.0208 17.7369L30.0078 17.7414L30.1186 17.862L30.1239 17.8603H30.1247Z" fill="#005DAB"/>
<path d="M31.197 18.0244H29.9492V18.1649H31.197V18.0244Z" fill="#005DAB"/>
<defs>
<linearGradient id="paint0_linear_2163_12183" x1="20.8693" y1="23.9166" x2="23.1614" y2="21.6971" gradientUnits="userSpaceOnUse">
<stop offset="0.28" stop-color="#005DAB"/>
<stop offset="0.4" stop-color="#006CB7"/>
<stop offset="0.61" stop-color="#0093D9"/>
<stop offset="0.75" stop-color="#00AFF1"/>
</linearGradient>
</defs>
</svg>
