<svg width="25" height="26" viewBox="0 0 25 26" fill="none" xmlns="http://www.w3.org/2000/svg">
<rect y="0.953125" width="25" height="25" rx="4" fill="#17BF98"/>
<path d="M11.6483 14.3419C11.6483 14.2523 11.6483 14.1923 11.6483 14.1323C11.6483 11.7198 11.6483 9.30735 11.6483 6.89485C11.6483 6.4686 11.8408 6.1661 12.1912 6.03443C12.6812 5.84985 13.2149 6.15735 13.2979 6.67443C13.3124 6.7661 13.3158 6.86068 13.3158 6.95401C13.3166 9.34568 13.3166 11.7373 13.3166 14.129V14.3382C13.3745 14.2961 13.4116 14.2719 13.4454 14.2436C14.2641 13.5615 15.0829 12.8794 15.9008 12.1969C16.1866 11.9586 16.5016 11.8911 16.8416 12.059C17.3916 12.3311 17.4704 13.0448 16.9945 13.4498C16.4841 13.8844 15.9654 14.3098 15.4508 14.7394C14.6529 15.4057 13.8545 16.0715 13.0583 16.7398C12.7054 17.0361 12.272 17.0448 11.922 16.7528C10.6095 15.6569 9.29702 14.5607 7.98452 13.464C7.68244 13.2115 7.57952 12.8411 7.71411 12.4978C7.84369 12.1661 8.17911 11.9515 8.53827 11.9715C8.76202 11.9836 8.93994 12.0923 9.10744 12.2323C9.90452 12.8998 10.7041 13.564 11.5029 14.229C11.5412 14.2607 11.5816 14.2903 11.647 14.3415L11.6483 14.3419Z" fill="white"/>
<path d="M12.4746 20.9547C10.7334 20.9547 8.99172 20.9547 7.25047 20.9547C5.92714 20.9547 4.99672 20.0218 4.99672 18.6951C4.99672 18.0555 4.99256 17.4159 4.99881 16.7767C5.00297 16.3559 5.32672 16.0109 5.74047 15.9668C6.14839 15.9234 6.52922 16.1855 6.63047 16.5884C6.65422 16.6826 6.65631 16.7838 6.65672 16.8818C6.65881 17.4847 6.65756 18.088 6.65797 18.6909C6.65797 19.1005 6.85047 19.293 7.25964 19.293C10.7426 19.293 14.2255 19.293 17.7084 19.293C18.1176 19.293 18.3084 19.1009 18.3092 18.6897C18.3105 18.0451 18.2996 17.4001 18.3146 16.7555C18.3288 16.1401 18.9988 15.7676 19.5371 16.0655C19.808 16.2151 19.963 16.453 19.9667 16.7618C19.9755 17.4793 19.988 18.1972 19.9638 18.9138C19.9259 20.0455 18.9613 20.9501 17.8092 20.953C16.0313 20.9576 14.2534 20.9543 12.4759 20.9543L12.4746 20.9547Z" fill="white"/>
</svg>
