<svg width="40" height="40" viewBox="0 0 40 40" fill="none" xmlns="http://www.w3.org/2000/svg">
<circle cx="20" cy="20" r="19.5" fill="white" stroke="#EFEFF1"/>
<path d="M13.431 15H6.84602C5.82649 15 5 15.8265 5 16.846V23.5618C5 24.5813 5.82649 25.4078 6.84602 25.4078H13.431C14.4506 25.4078 15.277 24.5813 15.277 23.5618V16.846C15.277 15.8265 14.4506 15 13.431 15Z" fill="#36C4F1"/>
<path d="M14.2067 19.6801C14.2067 18.8195 13.5063 18.1192 12.6458 18.1192C12.4104 18.1192 12.1874 18.1715 11.9873 18.2656L10.7344 17.1514L10.7095 17.1337C10.3361 16.8643 9.96535 16.8643 9.59261 17.1337L9.57365 17.1474L7.26399 18.896C7.24372 18.9124 7.21887 18.9346 7.19337 18.9621C7.13125 19.049 7.04951 19.0922 7.04297 19.6696C7.04297 19.6735 7.04297 19.6775 7.04297 19.682V22.5305C7.04297 22.9549 7.38824 23.3002 7.81264 23.3002H12.2678C12.8158 23.3002 13.2618 22.8542 13.2618 22.3062V21.1161C13.8183 20.8768 14.2087 20.3242 14.2087 19.6814L14.2067 19.6801ZM8.08794 22.2533V19.6023L10.1458 18.1747C10.1458 18.1747 10.1511 18.1741 10.1537 18.1747L11.2268 19.032C11.1359 19.2295 11.0849 19.4492 11.0849 19.6807C11.0849 20.3915 11.5629 20.9925 12.2142 21.1808V22.2539H8.08859L8.08794 22.2533ZM12.6458 20.3909C12.2534 20.3909 11.935 20.0718 11.935 19.6801C11.935 19.2884 12.2541 18.9693 12.6458 18.9693C13.0375 18.9693 13.3566 19.2884 13.3566 19.6801C13.3566 20.0718 13.0375 20.3909 12.6458 20.3909Z" fill="white"/>
<path d="M20.7099 22.6144H19.5688V21.6009C19.5688 21.4021 19.408 21.2412 19.2092 21.2412C19.0104 21.2412 18.8495 21.4021 18.8495 21.6009V22.6144H17.6345C17.4181 22.6144 17.2422 22.7904 17.2422 23.0068C17.2422 23.2232 17.4181 23.3992 17.6345 23.3992H20.7099C20.9264 23.3992 21.1023 23.2232 21.1023 23.0068C21.1023 22.7904 20.9264 22.6144 20.7099 22.6144Z" fill="black"/>
<path d="M25.3585 19.8267H21.6292C21.4304 19.8267 21.2695 19.6659 21.2695 19.4671C21.2695 19.2683 21.4304 19.1074 21.6292 19.1074H25.3585C25.5573 19.1074 25.7182 19.2683 25.7182 19.4671C25.7182 19.6659 25.5573 19.8267 25.3585 19.8267Z" fill="black"/>
<path d="M24.7679 18.4698H22.2386C22.0398 18.4698 21.8789 18.309 21.8789 18.1102V16.9187C21.8789 16.7199 22.0398 16.5591 22.2386 16.5591C22.4374 16.5591 22.5982 16.7199 22.5982 16.9187V17.7505H24.7679C24.9667 17.7505 25.1276 17.9114 25.1276 18.1102C25.1276 18.309 24.9667 18.4698 24.7679 18.4698Z" fill="black"/>
<path d="M23.3527 23.805C22.689 23.805 22.2149 23.6396 21.9193 23.3074C21.7735 23.1439 21.6931 22.9301 21.6931 22.7064V21.9845C21.6931 21.7857 21.8539 21.6249 22.0527 21.6249H24.4932V21.1207H21.9729C21.7741 21.1207 21.6133 20.9598 21.6133 20.761C21.6133 20.5622 21.7741 20.4014 21.9729 20.4014H24.8528C25.0516 20.4014 25.2125 20.5622 25.2125 20.761V21.9845C25.2125 22.1833 25.0516 22.3442 24.8528 22.3442H22.4124V22.7064C22.4124 22.7535 22.4281 22.7973 22.4562 22.8287C22.5981 22.9876 23.1238 23.3067 24.9463 22.8412C25.1386 22.7921 25.3348 22.9079 25.3838 23.1008C25.4328 23.293 25.3171 23.4892 25.1242 23.5382C24.4284 23.7161 23.8399 23.805 23.3527 23.805Z" fill="black"/>
<path d="M28.8211 18.461C28.8211 17.5305 28.2515 16.7759 27.5492 16.7759C26.8469 16.7759 26.2773 17.5305 26.2773 18.461C26.2773 18.4695 26.2773 18.478 26.2773 18.4872C26.2773 18.4892 26.2773 18.4905 26.2773 18.4924V19.0666C26.2773 19.0666 26.2773 19.0692 26.2773 19.0705C26.2858 19.9919 26.8515 20.7354 27.5492 20.7354C28.247 20.7354 28.8126 19.9919 28.8211 19.0705C28.8211 19.0692 28.8211 19.0679 28.8211 19.0666V18.4924C28.8211 18.4924 28.8211 18.4892 28.8211 18.4872C28.8211 18.4787 28.8211 18.4702 28.8211 18.461ZM28.0907 19.1372C28.0907 19.1372 28.0894 19.1411 28.0881 19.1431C28.0632 19.6296 27.8271 20.0115 27.5394 20.0115C27.2517 20.0115 27.0156 19.6296 26.9908 19.1431C26.9895 19.1411 26.9882 19.1392 26.9882 19.1372V18.4578C26.9882 18.4578 26.9882 18.4578 26.9882 18.4571C26.9921 17.9353 27.2366 17.5142 27.5394 17.5142C27.8422 17.5142 28.0867 17.9353 28.0907 18.4571C28.0907 18.4571 28.0907 18.4571 28.0907 18.4578V19.1372Z" fill="black"/>
<path d="M20.7128 18.5356C20.7128 17.5639 20.0242 16.7759 19.1747 16.7759C18.3253 16.7759 17.6367 17.5639 17.6367 18.5356C17.6367 18.5447 17.6367 18.5539 17.6367 18.5624C17.6367 18.5644 17.6367 18.5657 17.6367 18.5676V19.1673C17.6367 19.1673 17.6367 19.1699 17.6367 19.1712C17.6465 20.1331 18.3312 20.91 19.1741 20.91C20.017 20.91 20.7017 20.1338 20.7115 19.1712C20.7115 19.1699 20.7115 19.1686 20.7115 19.1673V18.5676C20.7115 18.5676 20.7115 18.5644 20.7115 18.5624C20.7115 18.5532 20.7115 18.5441 20.7115 18.5356H20.7128ZM19.9627 19.2418C19.9627 19.2418 19.9608 19.2464 19.9595 19.2484C19.9235 19.7565 19.5893 20.1553 19.1813 20.1553C18.7732 20.1553 18.4384 19.7565 18.4031 19.2484C18.4018 19.2464 18.3998 19.2444 18.3998 19.2418V18.5323C18.3998 18.5323 18.3998 18.5323 18.3998 18.5317C18.4051 17.9869 18.753 17.5469 19.1813 17.5469C19.6096 17.5469 19.9575 17.9869 19.9627 18.5317C19.9627 18.5317 19.9627 18.5317 19.9627 18.5323V19.2418Z" fill="black"/>
<path d="M29.6656 16.6309C29.4668 16.6309 29.3059 16.7917 29.3059 16.9905V21.3777C29.3059 21.3777 29.3046 21.3777 29.304 21.3783C28.7226 21.6746 26.9806 21.6772 26.358 21.653C26.1593 21.6451 25.9925 21.8001 25.9847 21.9983C25.9768 22.1964 26.1318 22.3638 26.3299 22.3716C26.3992 22.3743 26.6209 22.3821 26.923 22.3821C27.5835 22.3821 28.6285 22.3461 29.3053 22.1441V23.3133C29.3053 23.5121 29.4661 23.6729 29.6649 23.6729C29.8637 23.6729 30.0246 23.5121 30.0246 23.3133V16.9905C30.0246 16.7917 29.8637 16.6309 29.6649 16.6309H29.6656Z" fill="black"/>
<path d="M33.5947 17.0742C33.5365 16.9454 33.4083 16.8623 33.2664 16.8623H31.0862C30.8874 16.8623 30.7266 17.0232 30.7266 17.222C30.7266 17.4208 30.8874 17.5816 31.0862 17.5816H32.4673L30.8168 19.4453C30.6854 19.5937 30.6991 19.8213 30.8475 19.9527C30.9162 20.0136 31.0012 20.043 31.0856 20.043C31.185 20.043 31.2837 20.0018 31.355 19.922L32.1907 18.9784C32.4032 19.1471 32.7014 19.4401 32.825 19.8265C32.8741 19.9796 33.0153 20.077 33.1677 20.077C33.2036 20.077 33.2409 20.0718 33.2769 20.06C33.4659 19.9998 33.5705 19.7971 33.5103 19.6081C33.3383 19.0693 32.9558 18.675 32.6681 18.4396L33.5352 17.4606C33.6287 17.3547 33.6522 17.2037 33.594 17.0748L33.5947 17.0742Z" fill="black"/>
<path d="M34.6058 20.3713C34.407 20.3713 34.2461 20.2104 34.2461 20.0116V16.9905C34.2461 16.7917 34.407 16.6309 34.6058 16.6309C34.8045 16.6309 34.9654 16.7917 34.9654 16.9905V20.0116C34.9654 20.2104 34.8045 20.3713 34.6058 20.3713Z" fill="black"/>
<path d="M34.6403 20.7446C34.4415 20.7446 34.2806 20.9055 34.2806 21.1043V21.647H32.1881V21.1043C32.1881 20.9055 32.0272 20.7446 31.8284 20.7446C31.6296 20.7446 31.4688 20.9055 31.4688 21.1043V22.8444C31.4688 23.3374 31.8703 23.7389 32.3633 23.7389H34.0786C34.5867 23.7389 34.9999 23.3257 34.9999 22.8182V21.1043C34.9999 20.9055 34.8391 20.7446 34.6403 20.7446ZM34.0792 23.0196H32.364C32.2672 23.0196 32.1887 22.9412 32.1887 22.8444V22.3664H34.2813V22.8176C34.2813 22.9287 34.191 23.019 34.0792 23.019V23.0196Z" fill="black"/>
</svg>
