<svg width="40" height="40" viewBox="0 0 40 40" fill="none" xmlns="http://www.w3.org/2000/svg">
<circle cx="20" cy="20" r="19.5" fill="white" stroke="#EFEFF1"/>
<path d="M11.1289 21.2841H13.1439L12.9255 20.7535C12.8601 20.5734 12.654 20.4265 12.464 20.4253H11.4781" fill="#BE1E2D"/>
<path d="M23.3001 21.2841H21.2852L21.5036 20.7535C21.569 20.5734 21.775 20.4265 21.965 20.4253H22.9509" fill="#1B75BB"/>
<path d="M18.8376 17.0125L17.3593 19.2644L16.139 17.3741C16.06 17.2532 15.9613 17.1594 15.8441 17.0977C15.7244 17.0348 15.5689 17.0051 15.3789 17.0051H14.0672L14.0586 17.0039C14.2585 17.0915 14.4103 17.1989 14.5448 17.3161C14.6793 17.4333 14.8002 17.6517 14.9483 17.8751L16.5647 20.2874V22.7281C16.5746 22.8946 16.714 23.0267 16.8892 23.0365H17.8739V20.2874L20.0591 17.0125H18.8376Z" fill="#040707"/>
<path d="M9.46679 17.9749C9.36561 17.7602 9.22124 17.5801 9.03615 17.437C8.85107 17.2926 8.63143 17.1865 8.37724 17.1174C8.12429 17.047 7.84419 17.0125 7.53941 17.0125H5.00617C5.15794 17.0976 5.25789 17.2025 5.30971 17.3259C5.36524 17.4567 5.37388 17.6986 5.37388 17.8725V22.7453C5.39362 22.9057 5.53182 23.0303 5.70333 23.0353H6.6917V20.5637H6.87062C7.1791 20.5637 7.49252 20.5501 7.8121 20.5242C8.13539 20.4971 8.4303 20.4255 8.69559 20.3071C8.96335 20.1886 9.18546 20.0047 9.35821 19.758C9.53342 19.5075 9.61856 19.162 9.61856 18.7239C9.61856 18.4401 9.56797 18.1897 9.46679 17.9749ZM8.19832 19.2372C8.12922 19.3705 8.03791 19.4717 7.92439 19.5433C7.8084 19.6161 7.67391 19.6654 7.51967 19.6913C7.36296 19.7172 7.19885 19.7296 7.02733 19.7296H7.0261C6.83854 19.7296 6.68677 19.5864 6.68183 19.4088V18.1255C6.68183 17.9984 6.70158 17.9071 6.73613 17.854C6.75217 17.8182 6.85952 17.7775 7.05448 17.7775C7.05941 17.7775 7.06435 17.7775 7.07052 17.7775C7.26548 17.7775 7.44069 17.7911 7.5974 17.817C7.75164 17.8429 7.87997 17.8898 7.98362 17.9564C8.08603 18.0231 8.16377 18.1144 8.21806 18.2365C8.27236 18.3575 8.30074 18.5154 8.30074 18.7116C8.30197 18.9312 8.26619 19.1065 8.19832 19.2372ZM5.0037 17.0125H5.00617C5.0037 17.0113 5.00247 17.01 5 17.0088L5.0037 17.0125Z" fill="#040707"/>
<path d="M29.6555 17.9749C29.5543 17.7602 29.41 17.5801 29.2249 17.437C29.0398 17.2926 28.8202 17.1865 28.566 17.1174C28.313 17.047 28.0329 17.0125 27.7281 17.0125H25.1949C25.3467 17.0976 25.4466 17.2025 25.4984 17.3259C25.554 17.4567 25.5626 17.6986 25.5626 17.8725V22.7453C25.5824 22.9057 25.7206 23.0303 25.8921 23.0353H26.8804V20.5637H27.0606C27.3691 20.5637 27.6825 20.5501 28.0021 20.5242C28.3254 20.4971 28.6203 20.4255 28.8856 20.3071C29.1533 20.1886 29.3754 20.0047 29.5482 19.758C29.7234 19.5075 29.8085 19.162 29.8085 18.7239C29.8073 18.4401 29.7567 18.1897 29.6555 17.9749ZM28.3858 19.2372C28.3167 19.3705 28.2254 19.4717 28.1119 19.5433C27.9959 19.6161 27.8614 19.6654 27.7072 19.6913C27.5505 19.7172 27.3863 19.7296 27.2148 19.7296H27.2136C27.026 19.7296 26.8743 19.5864 26.8693 19.4088V18.1255C26.8693 17.9984 26.8891 17.9071 26.9236 17.854C26.9397 17.8182 27.047 17.7775 27.242 17.7775C27.2469 17.7775 27.2518 17.7775 27.258 17.7775C27.453 17.7775 27.6282 17.7911 27.7849 17.817C27.9391 17.8429 28.0675 17.8898 28.1711 17.9564C28.2735 18.0231 28.3513 18.1144 28.4056 18.2365C28.4599 18.3575 28.4882 18.5154 28.4882 18.7116C28.4895 18.9312 28.4537 19.1065 28.3858 19.2372ZM25.1912 17.0125H25.1937C25.1912 17.0113 25.19 17.01 25.1875 17.0088L25.1912 17.0125Z" fill="#040707"/>
<path d="M34.8469 17.9749C34.7457 17.7602 34.6014 17.5801 34.4163 17.437C34.2312 17.2926 34.0116 17.1865 33.7574 17.1174C33.5044 17.047 33.2243 17.0125 32.9195 17.0125H30.3863C30.5381 17.0976 30.638 17.2025 30.6899 17.3259C30.7454 17.4567 30.754 17.6986 30.754 17.8725V22.7453C30.7725 22.9057 30.912 23.0303 31.0835 23.0353H32.0718V20.5637H32.2508C32.5592 20.5637 32.8727 20.5501 33.1922 20.5242C33.5155 20.4971 33.8104 20.4255 34.0757 20.3071C34.3435 20.1886 34.5656 20.0047 34.7383 19.758C34.9136 19.5075 34.9987 19.162 34.9987 18.7239C34.9987 18.4401 34.9481 18.1897 34.8469 17.9749ZM33.5772 19.2372C33.5081 19.3705 33.4168 19.4717 33.3033 19.5433C33.1873 19.6161 33.0528 19.6654 32.8986 19.6913C32.7419 19.7172 32.5778 19.7296 32.4062 19.7296H32.405C32.2174 19.7296 32.0657 19.5864 32.0607 19.4088V18.1255C32.0607 17.9984 32.0805 17.9071 32.115 17.854C32.1311 17.8182 32.2384 17.7775 32.4334 17.7775C32.4383 17.7775 32.4433 17.7775 32.4494 17.7775C32.6444 17.7775 32.8196 17.7911 32.9763 17.817C33.1305 17.8429 33.2589 17.8898 33.3625 17.9564C33.4649 18.0231 33.5427 18.1144 33.597 18.2365C33.6513 18.3575 33.6796 18.5154 33.6796 18.7116C33.6809 18.9312 33.6451 19.1065 33.5772 19.2372ZM30.3826 17.0125H30.3851C30.3826 17.0113 30.3814 17.01 30.3789 17.0088L30.3826 17.0125Z" fill="#040707"/>
<path d="M11.377 21.2842L10.6823 23.0289H9.92343C9.74575 23.0203 9.65197 22.8796 9.7149 22.7044L11.5374 18.2055C11.5485 18.1735 11.5658 18.1315 11.5855 18.0821C11.6053 18.0328 11.6238 17.9834 11.6411 17.9316C11.6583 17.881 11.6719 17.8292 11.683 17.7786C11.6941 17.728 11.699 17.6861 11.699 17.654C11.699 17.5688 11.6867 17.4689 11.6608 17.3517C11.6386 17.2493 11.567 17.1616 11.435 17.0864L11.2832 17H12.4308C12.622 17 12.7775 17.0395 12.8922 17.1234C13.0045 17.2048 13.0934 17.3221 13.1588 17.4689L13.1168 17.4874L13.16 17.4701L15.4539 23.0228H14.3878C14.2101 23.0117 14.025 22.8796 13.9559 22.7143L13.0021 20.3279L12.3789 18.7374L11.725 20.4278L11.377 21.2842Z" fill="#040707"/>
<path d="M23.0534 21.2842L23.7481 23.0289H24.507C24.6847 23.0203 24.7785 22.8796 24.7155 22.7044L22.893 18.2055C22.8819 18.1735 22.8646 18.1315 22.8449 18.0821C22.8252 18.0328 22.8067 17.9834 22.7894 17.9316C22.7721 17.881 22.7585 17.8292 22.7474 17.7786C22.7363 17.728 22.7314 17.6861 22.7314 17.654C22.7314 17.5688 22.7437 17.4689 22.7696 17.3517C22.7918 17.2493 22.8634 17.1616 22.9954 17.0864L23.1472 17H21.9997C21.8084 17 21.6529 17.0395 21.5382 17.1234C21.4259 17.2048 21.3383 17.3221 21.2717 17.4689L21.3136 17.4874L21.2704 17.4701L18.9766 23.0228H20.0427C20.2204 23.0117 20.4054 22.8796 20.4745 22.7143L21.4284 20.3279L22.0515 18.7374L22.7055 20.4278L23.0534 21.2842Z" fill="#040707"/>
</svg>
