<svg width="16" height="16" viewBox="0 0 16 16" fill="none" xmlns="http://www.w3.org/2000/svg">
<mask id="mask0_3966_1706" style="mask-type:alpha" maskUnits="userSpaceOnUse" x="4" y="4" width="8" height="8">
<rect x="4" y="4" width="8" height="8" fill="#FFA9A9"/>
</mask>
<g mask="url(#mask0_3966_1706)">
<path d="M6.52279 11.6069C6.4418 11.5909 6.36714 11.552 6.3078 11.4946C6.24845 11.4373 6.20695 11.364 6.1883 11.2836L4.74824 5.03914C4.7309 4.93191 4.75498 4.82209 4.81559 4.73195C4.8762 4.64181 4.96882 4.57808 5.07466 4.55368C5.18051 4.52928 5.29168 4.54603 5.38564 4.60054C5.4796 4.65504 5.54932 4.74323 5.58068 4.84723L6.59103 9.22791L7.53996 4.83341C7.56131 4.73924 7.61388 4.65505 7.68913 4.59452C7.76437 4.534 7.85787 4.50069 7.95443 4.50001C8.05099 4.49933 8.14495 4.53132 8.22104 4.59078C8.29712 4.65025 8.35087 4.73369 8.37355 4.82755L9.38394 9.208L10.3329 4.8135C10.3629 4.70921 10.4314 4.62022 10.5245 4.56452C10.6177 4.50882 10.7285 4.49057 10.8346 4.51347C10.9407 4.53636 11.0341 4.5987 11.0959 4.68786C11.1578 4.77702 11.1835 4.88635 11.1678 4.99373L9.81503 11.2578C9.79368 11.352 9.74111 11.4362 9.66587 11.4967C9.59062 11.5573 9.49713 11.5906 9.40056 11.5912C9.304 11.5919 9.21004 11.5599 9.13396 11.5005C9.05787 11.441 9.00412 11.3576 8.98145 11.2637L7.97083 6.88442L7.02189 11.2789C6.99805 11.3882 6.93238 11.4838 6.83892 11.5453C6.74547 11.6068 6.63166 11.6293 6.52186 11.6079" fill="#32A9FF"/>
<path d="M4.33987 8.19948C4.23706 8.17783 4.14579 8.11913 4.08346 8.03454C4.02113 7.94995 3.99209 7.8454 4.00186 7.74078C4.01163 7.63617 4.05953 7.5388 4.13645 7.46722C4.21336 7.39564 4.31392 7.35484 4.41897 7.35261L11.5977 7.30309C11.706 7.30963 11.8079 7.35709 11.8826 7.43586C11.9573 7.51464 11.9992 7.61885 12 7.7274C12.0007 7.83596 11.9602 7.94075 11.8867 8.02056C11.8131 8.10037 11.7119 8.14925 11.6037 8.1573L4.42485 8.20728C4.39634 8.2075 4.36787 8.20489 4.33987 8.19948Z" fill="#32A9FF"/>
</g>
<circle cx="8" cy="8" r="7.5" stroke="#32A9FF"/>
</svg>
