<svg width="40" height="40" viewBox="0 0 40 40" fill="none" xmlns="http://www.w3.org/2000/svg">
<circle cx="20" cy="20" r="20" fill="#E83927"/>
<path d="M17.1418 18C16.7419 18 16.418 18.324 16.418 18.7222V22.9336H17.864V18.7222C17.864 18.3223 17.54 18 17.1418 18Z" fill="white"/>
<path d="M14.9662 18H12.8706C12.4707 18 12.1484 18.324 12.1484 18.7222C12.1484 19.1204 12.4724 19.4443 12.8706 19.4443H14.3166C14.4769 19.4443 14.6068 19.5742 14.6068 19.7345V22.9319H16.0528V19.0883C16.0528 18.4876 15.5669 18 14.9662 18Z" fill="white"/>
<path d="M20.9668 21.5534C20.3678 21.5534 19.8819 21.0675 19.8819 20.4685C19.8819 19.8695 20.3678 19.3836 20.9668 19.3836C21.5658 19.3836 22.0517 19.8695 22.0517 20.4685C22.0517 21.0675 21.5658 21.5534 20.9668 21.5534ZM24.5 18C24.1001 18 23.7778 18.324 23.7778 18.7222V19.7784H23.3374C23.0371 18.7525 22.0905 18 20.9668 18C19.6052 18 18.5 19.1052 18.5 20.4668C18.5 21.8284 19.6052 22.9336 20.9668 22.9336C22.0652 22.9336 22.9949 22.2165 23.3155 21.2244H23.7778V22.9336H25.2238V18.7222C25.2238 18.3223 24.8999 18 24.5 18Z" fill="white"/>
<path d="M27.0175 19.7362C27.0175 19.5759 27.1474 19.446 27.3077 19.446H27.7683V21.4876H27.3077C27.1474 21.4876 27.0175 21.3577 27.0175 21.1974V19.7345V19.7362ZM25.5664 19.0883V21.847C25.5664 22.4477 26.054 22.9353 26.6547 22.9353H29.4505V21.4893H29.0625V19.4477H29.4505V18H26.6547C26.054 18 25.5664 18.4876 25.5664 19.0883Z" fill="white"/>
<path d="M34.2697 21.5215C33.8664 21.5215 33.5391 21.8488 33.5391 22.2521C33.5391 22.6553 33.8664 22.9827 34.2697 22.9827C34.6729 22.9827 35.0003 22.6553 35.0003 22.2521C35.0003 21.8488 34.6729 21.5215 34.2697 21.5215Z" fill="white"/>
<path d="M9.91168 20.7925C9.92518 20.6862 9.93362 20.5782 9.93362 20.4685C9.93362 20.3588 9.92518 20.2542 9.91337 20.1496H10.4128V20.7941H9.91168V20.7925ZM7.46681 21.5534C6.86782 21.5534 6.38188 21.0675 6.38188 20.4685C6.38188 19.8695 6.86782 19.3836 7.46681 19.3836C8.06579 19.3836 8.55173 19.8695 8.55173 20.4685C8.55173 21.0675 8.06579 21.5534 7.46681 21.5534ZM11.1366 18C10.7368 18 10.4145 18.324 10.4145 18.7222V18.8943H9.37006C8.91618 18.3493 8.23283 18 7.46681 18C6.10517 18 5 19.1052 5 20.4668C5 21.8284 6.10517 22.9336 7.46681 22.9336C8.23115 22.9336 8.91618 22.586 9.36838 22.0377H10.4128V22.9336H11.8588V18.7222C11.8588 18.3223 11.5348 18 11.1366 18Z" fill="white"/>
<path d="M31.5071 18.0034C30.5723 18.0034 29.8164 18.761 29.8164 19.6941V22.9353H31.2624V19.6941C31.2624 19.5591 31.3721 19.4494 31.5071 19.4494C31.642 19.4494 31.7517 19.5591 31.7517 19.6941V22.9353H33.1977V19.6941C33.1977 18.7593 32.4401 18.0034 31.5071 18.0034Z" fill="white"/>
</svg>
