<svg width="40" height="40" viewBox="0 0 40 40" fill="none" xmlns="http://www.w3.org/2000/svg">
<circle cx="20" cy="20" r="19.5" fill="white" stroke="#EFEFF1"/>
<path d="M15.076 18.6387C14.9506 18.3956 14.6999 18.1211 14.1668 18.1211C13.822 18.1211 13.5816 18.2689 13.4352 18.4166V18.2162C13.4352 18.195 13.4144 18.1845 13.4038 18.1845H12.9337C12.9126 18.1845 12.9023 18.2055 12.9023 18.2162V22.2289C12.9023 22.2499 12.9232 22.2604 12.9337 22.2604H13.4457C13.4665 22.2604 13.477 22.2394 13.477 22.2289V20.8663C13.6338 21.0038 13.8532 21.1305 14.1773 21.1305C14.7102 21.1305 14.9609 20.8558 15.0863 20.6129C15.2119 20.3595 15.2224 20.0957 15.2224 20.0427V19.23C15.2119 19.1666 15.2014 18.8919 15.076 18.6385V18.6387ZM14.6161 20.0642C14.6161 20.1909 14.5326 20.6131 14.0414 20.6131C13.5397 20.6131 13.4665 20.1803 13.4665 20.0642V19.1982C13.4665 19.0715 13.5503 18.649 14.0414 18.649C14.5429 18.649 14.6161 19.082 14.6161 19.1982V20.0642Z" fill="#F7552F"/>
<path d="M7.38281 19.2192C7.38281 19.1666 7.39333 18.9024 7.52923 18.649C7.66513 18.4063 7.95774 18.1318 8.54296 18.1318C9.12819 18.1318 9.4208 18.4063 9.55669 18.649C9.70311 18.9024 9.70311 19.1666 9.70311 19.2192V20.0324C9.69813 20.2311 9.64807 20.4261 9.55669 20.6026C9.4208 20.8455 9.13871 21.12 8.54296 21.12C7.95774 21.12 7.66513 20.8455 7.52923 20.6028C7.38281 20.3491 7.38281 20.0852 7.38281 20.0324V19.2192ZM7.96826 20.0536C7.96826 20.1803 8.05177 20.6026 8.54296 20.6026C9.04445 20.6026 9.12819 20.1696 9.12819 20.0536V19.1877C9.12819 19.0609 9.04468 18.6385 8.54296 18.6385C8.04147 18.6385 7.96826 19.0715 7.96826 19.1877V20.0536ZM12.4306 18.2162C12.4306 18.195 12.4204 18.1844 12.3993 18.1844H11.8873C11.8665 18.1844 11.8559 18.2055 11.8559 18.2162V20.0536C11.8559 20.1803 11.7724 20.6026 11.2812 20.6026C10.7795 20.6026 10.696 20.1696 10.696 20.0536V18.2162C10.696 18.195 10.675 18.1844 10.6647 18.1844H10.1524C10.1316 18.1844 10.1211 18.2055 10.1211 18.2162V20.0324C10.1211 20.0852 10.1211 20.3491 10.257 20.6026C10.3824 20.8455 10.6331 21.12 11.1662 21.12C11.3439 21.12 11.4901 21.0884 11.605 21.025C11.7135 20.9757 11.8126 20.9078 11.8978 20.8244V21.025C11.8978 21.0461 11.9186 21.0566 11.9292 21.0566H12.3993C12.4204 21.0566 12.4306 21.0356 12.4306 21.025V18.2162Z" fill="#935227"/>
<path d="M17.7625 19.1875C17.7625 18.9552 17.6476 18.4167 17.1356 18.2054C16.6339 17.9943 15.9755 18.2266 15.7664 18.3111L15.7245 18.3321C15.7037 18.3428 15.6932 18.3639 15.7037 18.3849L15.8501 18.8074C15.8604 18.8284 15.8709 18.839 15.8917 18.8284C15.9023 18.8284 15.9023 18.8179 15.9128 18.8179C16.1114 18.7122 16.6234 18.5434 16.9368 18.6912C17.2503 18.839 17.2189 19.1665 17.2189 19.2086V19.2932C17.0727 19.1875 16.8638 19.0819 16.5607 19.0716C16.0279 19.0716 15.7769 19.3353 15.6515 19.5572C15.5681 19.7248 15.5217 19.9084 15.5156 20.0956C15.5156 20.1484 15.5259 20.4019 15.6515 20.6343C15.7769 20.8664 16.0276 21.1201 16.5605 21.1201C16.8741 21.1201 17.0832 21.0037 17.24 20.8877V21.0249C17.24 21.046 17.261 21.0565 17.2713 21.0565H17.7208C17.7417 21.0565 17.7522 21.0355 17.7522 21.0249V19.1981C17.7625 19.1981 17.7625 19.1981 17.7625 19.1875ZM17.2191 20.1061C17.2191 20.2225 17.1354 20.6237 16.655 20.6237C16.1741 20.6237 16.0903 20.2223 16.0903 20.1061V20.064C16.0903 19.9476 16.1741 19.5466 16.6547 19.5466C17.1354 19.5466 17.2189 19.9478 17.2189 20.0638V20.1064L17.2191 20.1061Z" fill="#FFC400"/>
<path d="M23.5397 18.1419C23.2368 18.1313 23.0485 18.2583 22.9231 18.3953C22.7559 18.2475 22.4946 18.1313 22.0974 18.1313C21.5122 18.1313 21.2196 18.3955 21.0837 18.6277C20.9375 18.8706 20.9375 19.124 20.9375 19.1769V19.2084C20.9375 19.2613 20.9478 19.5147 21.0837 19.7576C21.1464 19.8633 21.2404 19.9687 21.3763 20.0639C21.1569 20.1906 20.9583 20.4228 20.9583 20.8347V21.0563C20.9583 21.0776 20.9791 21.0989 20.9897 21.0989H22.6724C22.8709 21.0989 22.9753 21.2359 23.0068 21.3626C23.0382 21.5211 22.9858 21.7322 22.714 21.88L22.6932 21.8908C22.6723 21.9013 22.6724 21.9223 22.6826 21.9434L22.9126 22.3553C22.9231 22.3763 22.9439 22.3763 22.965 22.3658C22.965 22.3658 23.0798 22.2919 23.1217 22.2709C23.1635 22.2496 23.1949 22.2181 23.2262 22.1863C23.5188 21.9118 23.571 21.5422 23.5083 21.2464C23.4248 20.8452 23.0903 20.6128 22.6724 20.6128H21.5122C21.5749 20.254 21.9824 20.2645 22.0347 20.2645H22.0974C22.6826 20.2645 22.9753 20.0003 23.1112 19.7681C23.2576 19.5252 23.2576 19.2718 23.2576 19.219V19.1663C23.2576 19.124 23.2576 18.934 23.1635 18.7334C23.2368 18.6805 23.3621 18.6277 23.5397 18.6382C23.5607 18.6382 23.5815 18.6172 23.5815 18.6066V18.1947C23.5815 18.1631 23.5607 18.1419 23.5397 18.1419ZM22.6726 19.1981C22.6726 19.3143 22.5888 19.7155 22.0976 19.726C21.5962 19.726 21.5229 19.3141 21.5229 19.1981V19.1666C21.5229 19.0502 21.6065 18.649 22.0976 18.6384C22.5991 18.6384 22.6726 19.0504 22.6726 19.1666V19.1981Z" fill="#31B4DD"/>
<path d="M7.1947 20.5076L6.74537 20.2752C6.72433 20.2647 6.70351 20.2752 6.69298 20.2963V20.307C6.62 20.4548 6.47358 20.6131 6.17045 20.6238C5.66896 20.6238 5.59575 20.1908 5.59575 20.0746V19.2087C5.59575 19.0819 5.67925 18.6597 6.17045 18.6597C6.47358 18.6597 6.6303 18.8285 6.69298 18.9765C6.70351 18.987 6.71403 19.0081 6.73485 19.0081H6.7559L7.1947 18.7757C7.21575 18.7651 7.21575 18.7441 7.20522 18.7231C7.1947 18.7018 7.18418 18.6913 7.18418 18.6702C7.04851 18.4273 6.76642 18.1528 6.17045 18.1528C5.58522 18.1528 5.29284 18.4273 5.15672 18.67C5.01052 18.8921 5 19.1668 5 19.2194V20.0325C5 20.0854 5.01052 20.3493 5.14642 20.6028C5.28209 20.8457 5.5644 21.1201 6.16015 21.1201H6.17045C6.7559 21.1201 7.04851 20.8457 7.18418 20.603L7.21552 20.5499C7.21293 20.5341 7.20568 20.5193 7.1947 20.5076Z" fill="#935227"/>
<path d="M20.4043 18.6387C20.279 18.3956 20.0177 18.1211 19.4949 18.1211C19.1502 18.1211 18.9202 18.2689 18.7635 18.4166V18.2162C18.7635 18.195 18.7425 18.1845 18.7322 18.1845H18.2618C18.241 18.1845 18.2305 18.2055 18.2305 18.2162V21.0356C18.2305 21.0566 18.2513 21.0674 18.2618 21.0674H18.7738C18.7949 21.0674 18.8052 21.0461 18.8052 21.0356V19.1666C18.8157 19.0189 18.9202 18.649 19.3801 18.6385C19.8816 18.6385 19.9653 19.0715 19.9653 19.1877V21.0356C19.9653 21.0566 19.9864 21.0674 19.9967 21.0674H20.5089C20.5297 21.0674 20.5402 21.0461 20.5402 21.0356V19.2192C20.5402 19.1666 20.5402 18.8919 20.4043 18.6385V18.6387Z" fill="#88CC2F"/>
<path fill-rule="evenodd" clip-rule="evenodd" d="M26.2323 19.031L25.6415 21.0113C25.6142 21.1013 25.5712 21.1013 25.5047 21.1013H25.1447C25.0664 21.1013 25.0272 21.0896 24.9999 21.0034L24.2644 18.3305C24.2369 18.264 24.2644 18.2132 24.3347 18.2132H24.7885C24.8669 18.2132 24.9139 18.2446 24.9334 18.3229L25.3677 20.2051L25.9388 18.3424C25.9585 18.264 25.9899 18.2132 26.0759 18.2132H26.424C26.4826 18.2132 26.5297 18.2249 26.561 18.3305L27.1321 20.2051L27.5548 18.3305C27.5743 18.264 27.6056 18.2132 27.7073 18.2132H28.1456C28.224 18.2132 28.2356 18.2719 28.224 18.3305L27.4764 20.9996C27.4491 21.0856 27.4062 21.1051 27.3435 21.1051H26.9835C26.8975 21.1051 26.8662 21.0975 26.8388 21.0151L26.2323 19.031ZM28.8341 17.7357C28.6229 17.7357 28.4546 17.5792 28.4546 17.3678C28.4546 17.1643 28.627 17 28.8303 17C29.0416 17 29.2176 17.1643 29.2176 17.3678C29.2135 17.5635 29.0376 17.7357 28.8341 17.7357ZM29.0689 21.1051H28.6111C28.5603 21.1051 28.5251 21.0778 28.5251 21.0267V18.2994C28.5251 18.2407 28.5524 18.2134 28.6035 18.2134H29.0611C29.1119 18.2134 29.147 18.2407 29.147 18.2994V21.0272C29.147 21.0272 29.1589 21.1055 29.0687 21.1055L29.0689 21.1051ZM31.9368 19.254C31.9368 19.1994 31.9328 18.9332 31.7998 18.6787C31.6744 18.4362 31.4163 18.1662 30.8803 18.1624H30.8725C30.5203 18.1624 30.2895 18.307 30.137 18.4557V18.2562C30.137 18.2327 30.1173 18.217 30.0979 18.2132H29.6244C29.6011 18.2132 29.5854 18.2327 29.5854 18.2562V21.0701C29.5854 21.0899 29.6049 21.1093 29.6244 21.1093H30.133C30.1565 21.1093 30.1722 21.0937 30.1722 21.0701V19.1994C30.1838 19.0507 30.2895 18.6789 30.7552 18.6749C31.2598 18.6789 31.342 19.1054 31.342 19.2267V21.0661C31.342 21.0896 31.3617 21.1091 31.385 21.1091H31.8936C31.904 21.1091 31.914 21.105 31.9213 21.0976C31.9287 21.0903 31.9328 21.0803 31.9328 21.0699V19.254H31.9368ZM35.0002 18.221C35.0002 18.1975 34.9845 18.1819 34.961 18.1819C34.6599 18.174 34.4602 18.2992 34.335 18.4362C34.1669 18.2875 33.9047 18.1702 33.5017 18.1662H33.4939C32.8993 18.1702 32.6136 18.4284 32.4728 18.6594C32.3764 18.8262 32.3238 19.0146 32.3201 19.2072V19.2307C32.3201 19.2816 32.3279 19.5359 32.4728 19.7786C32.5355 19.8802 32.6293 19.9899 32.7623 20.0799C32.5393 20.2091 32.3398 20.4359 32.3398 20.8469V21.0621C32.3398 21.0856 32.3555 21.1013 32.3788 21.1013H34.0769C34.2802 21.1013 34.3859 21.2343 34.4134 21.3634C34.4485 21.524 34.3859 21.7431 34.1159 21.8878C34.1002 21.8918 34.0885 21.9075 34.0885 21.9269C34.0885 21.9348 34.0926 21.9426 34.0964 21.9466L34.3194 22.3496C34.3272 22.3653 34.3391 22.3731 34.3547 22.3731C34.3623 22.3731 34.3664 22.3731 34.3742 22.3693C34.8869 22.1069 35.0002 21.614 34.918 21.2499C34.828 20.8548 34.4915 20.5848 34.0807 20.5848L32.9071 20.6121C32.9736 20.2561 33.3844 20.2637 33.4353 20.2678H33.5017C34.0964 20.2678 34.382 20.0056 34.5229 19.7746C34.6193 19.6078 34.6718 19.4193 34.6756 19.2267V19.1994C34.6756 19.1562 34.6715 18.9684 34.5815 18.7651C34.6599 18.7102 34.781 18.6594 34.9572 18.671C34.9807 18.671 34.9964 18.6516 35.0002 18.6319V18.221ZM34.0845 19.2346C34.0845 19.3481 34.0026 19.7551 33.4979 19.7589C32.9931 19.7589 32.9109 19.3481 32.9109 19.2346V19.1994C32.9109 19.0859 32.9931 18.6789 33.4977 18.6749C34.0026 18.6749 34.0847 19.0859 34.0847 19.1994L34.0845 19.2346Z" fill="#31B4DD"/>
</svg>
