<svg width="40" height="40" viewBox="0 0 40 40" fill="none" xmlns="http://www.w3.org/2000/svg">
<circle cx="20" cy="19.9893" r="19" fill="white"/>
<path fill-rule="evenodd" clip-rule="evenodd" d="M18.9978 0.0265234C22.2714 -0.139696 25.2127 0.491939 27.5724 1.45601C29.9487 2.43671 31.976 3.78309 33.6544 5.3788C35.366 7.041 36.7785 8.80293 37.9251 11.1134C39.0052 13.3075 39.8693 16.0169 39.9856 19.0254C40.1019 22.3498 39.5037 25.1257 38.5233 27.5193C37.0776 31.0598 34.8674 33.8356 32.0093 35.9965C29.2175 38.1075 25.6282 39.7032 21.0085 39.9691C17.818 40.152 14.8435 39.5037 12.4838 38.523C10.0742 37.5423 8.09678 36.2292 6.38518 34.6335C4.64035 33.0211 3.2611 31.1595 2.1145 28.9155C0.735255 26.1729 -0.245173 22.7321 0.0539408 18.5766C0.336437 14.7536 1.54951 11.745 3.17802 9.20185C5.12226 6.16003 7.6481 3.83296 11.0713 2.12089C12.6666 1.32304 14.5443 0.624915 16.688 0.259231C17.4358 0.142877 18.25 0.0763894 18.9978 0.0265234ZM14.079 13.0249V27.0372H16.1895V19.8067H17.6518V27.0372H19.5794V12.9584H17.6518C17.6352 14.4876 17.685 16.1 17.6186 17.596H16.1895V12.9584H14.1123C14.1123 12.9584 14.079 12.9917 14.079 13.0415V13.0249ZM30.7796 13.0249V22.0174H32.9897V12.9584H30.8128C30.8128 12.9584 30.7796 12.9917 30.7796 13.0415V13.0249ZM21.4406 13.8726V20.7043H28.5362V13.8061H21.4738C21.4738 13.8061 21.4406 13.856 21.4406 13.8893V13.8726ZM6.38518 14.2051V23.7793H12.7164V14.1386H10.6559V16.7815H8.42912V14.1386H6.41841C6.41841 14.1386 6.38518 14.1718 6.38518 14.2217V14.2051ZM23.1688 27.0206H33.1392V25.0094C30.5303 24.9927 27.8217 25.0426 25.2626 24.9761V22.2667H23.202C23.202 22.2667 23.1688 22.3166 23.1688 22.3332V27.0206Z" fill="#2BAEBA"/>
<path fill-rule="evenodd" clip-rule="evenodd" d="M23.5011 15.784H26.4922V18.7427H23.4845V15.8505C23.4845 15.8505 23.4845 15.784 23.5177 15.784H23.5011Z" fill="#2BAEBA"/>
<path fill-rule="evenodd" clip-rule="evenodd" d="M8.44575 19.0085H10.6559V21.7179H8.42913C8.44575 20.8203 8.3959 19.8563 8.44575 19.0085Z" fill="#2BAEBA"/>
</svg>
