<svg width="14" height="14" viewBox="0 0 14 14" fill="none" xmlns="http://www.w3.org/2000/svg">
<g id="Chart">
<mask id="mask0_1812_3056" style="mask-type:alpha" maskUnits="userSpaceOnUse" x="0" y="0" width="14" height="14">
<rect id="Rectangle 2170" width="14" height="14" fill="#D9D9D9"/>
</mask>
<g mask="url(#mask0_1812_3056)">
<path id="Vector" d="M2.8 4.9H2.95C3.5275 4.9 4 5.3725 4 5.95V11.2C4 11.7775 3.5275 12.25 2.95 12.25H2.8C2.2225 12.25 1.75 11.7775 1.75 11.2V5.95C1.75 5.3725 2.2225 4.9 2.8 4.9ZM7 1.75C7.5775 1.75 8.05 2.2225 8.05 2.8V11.2C8.05 11.7775 7.5775 12.25 7 12.25C6.4225 12.25 5.95 11.7775 5.95 11.2V2.8C5.95 2.2225 6.4225 1.75 7 1.75ZM11.2 7.75C11.7775 7.75 12.25 8.2225 12.25 8.8V11.2C12.25 11.7775 11.7775 12.25 11.2 12.25C10.6225 12.25 10.15 11.7775 10.15 11.2V8.8C10.15 8.2225 10.6225 7.75 11.2 7.75Z" fill="black"/>
</g>
</g>
</svg>
