<svg width="40" height="40" viewBox="0 0 40 40" fill="none" xmlns="http://www.w3.org/2000/svg">
<circle cx="20" cy="20" r="19.5" fill="white" stroke="#EFEFF1"/>
<path fill-rule="evenodd" clip-rule="evenodd" d="M8.47656 17.9432L7.87721 18.452C7.87721 18.452 7.63729 17.8573 6.97353 17.8573C6.30978 17.8573 5.91675 18.1084 5.91675 18.8506V19.8868C5.91675 20.165 6.03158 20.9007 6.78309 20.9007C7.5346 20.9007 7.86508 20.3153 7.86508 20.3153L8.50176 20.7989C8.50176 20.7989 8.00231 21.7157 6.80829 21.7157C5.61428 21.7157 5 20.8521 5 19.9905C5 19.2362 5.02521 19.3771 5.02521 18.6434C5.02521 17.9096 5.60961 17.1795 6.56557 17.0796C7.52246 16.9798 8.21889 17.4409 8.47562 17.9423L8.47656 17.9432Z" fill="#5F2E27"/>
<path fill-rule="evenodd" clip-rule="evenodd" d="M13.3291 17.1557H14.2337C14.2337 17.1557 14.2206 19.2039 14.2206 19.7155C14.2206 20.2271 14.4204 20.9254 15.1122 20.9254C15.8039 20.9254 16.0803 20.608 16.0803 19.7407V17.1809H16.9849V21.6891H16.2082V21.2811C16.2082 21.2811 15.6742 21.7395 14.8835 21.7395C14.0927 21.7395 13.33 21.0524 13.33 20.1095C13.33 19.1666 13.317 17.1548 13.33 17.1548L13.3291 17.1557Z" fill="#5F2E27"/>
<path fill-rule="evenodd" clip-rule="evenodd" d="M30.2378 21.7404H29.3332C29.3332 21.7404 29.3463 19.6931 29.3463 19.1806C29.3463 18.6681 29.1465 17.9707 28.4547 17.9707C27.763 17.9707 27.4866 18.4478 27.4866 19.2665V21.7143H26.582V17.2052H27.3587V17.6132C27.3587 17.6132 27.6052 17.1231 28.5873 17.1548C29.5694 17.1865 30.2369 17.8419 30.2369 18.7848C30.2369 19.7277 30.25 21.7395 30.2369 21.7395L30.2378 21.7404Z" fill="#C7CE22"/>
<path fill-rule="evenodd" clip-rule="evenodd" d="M10.4846 17.0669H10.9496C11.8094 17.0669 12.5123 17.7727 12.5123 18.6353V20.1206C12.5123 20.9832 11.8094 21.6889 10.9496 21.6889H10.4846C9.62484 21.6889 8.92188 20.9832 8.92188 20.1206V18.6353C8.92188 17.7727 9.62484 17.0669 10.4846 17.0669ZM10.5481 17.8567H10.9103C11.3426 17.8567 11.6973 18.2908 11.6973 18.821V19.9366C11.6973 20.4669 11.3435 20.901 10.9103 20.901H10.5481C10.1159 20.901 9.76114 20.4669 9.76114 19.9366V18.821C9.76114 18.2908 10.115 17.8567 10.5481 17.8567Z" fill="#5F2E27"/>
<path fill-rule="evenodd" clip-rule="evenodd" d="M17.8603 17.1818V23.4982H18.8405V21.3968C18.8405 21.3968 19.0431 21.7151 19.9356 21.7151C20.8281 21.7151 21.5656 20.9515 21.5656 20.1617V18.6465C21.5656 18.2003 21.1847 17.1678 20.1774 17.1183C19.1701 17.0688 18.8648 17.334 18.7257 17.6019V17.1687L17.8594 17.1818H17.8603ZM19.5491 17.8567H19.9963C20.4295 17.8567 20.7833 18.2908 20.7833 18.8211V19.9367C20.7833 20.467 20.4295 20.9011 19.9963 20.9011H19.5491C19.1169 20.9011 18.7621 20.467 18.7621 19.9367V18.8211C18.7621 18.2908 19.1159 17.8567 19.5491 17.8567Z" fill="#E62830"/>
<path fill-rule="evenodd" clip-rule="evenodd" d="M22.4554 17.4873L22.8251 18.0987C22.8251 18.0987 23.22 17.7935 23.9332 17.857C24.6465 17.9204 24.8117 18.404 24.7996 18.8241C24.7996 18.8241 24.4691 18.5693 23.768 18.5693C23.0669 18.5693 22.3929 19.0276 22.2528 19.5878C22.1128 20.1479 22.1259 21.4595 23.2461 21.6761C24.3664 21.8927 24.8892 21.2812 24.8892 21.2812V21.7013H25.6538V18.4918C25.6538 16.8898 23.4263 16.6172 22.4573 17.4863L22.4554 17.4873ZM23.8184 19.2993H23.9332C24.3533 19.2993 24.696 19.6428 24.696 20.062V20.2151C24.696 20.6352 24.3524 20.9778 23.9332 20.9778H23.8184C23.3983 20.9778 23.0557 20.6343 23.0557 20.2151V20.062C23.0557 19.6419 23.3993 19.2993 23.8184 19.2993Z" fill="#FBBD43"/>
<path fill-rule="evenodd" clip-rule="evenodd" d="M33.8358 17.4732C34.0178 17.3005 34.3334 16.9757 34.9878 17.1941L34.9999 17.8691C34.9999 17.8691 34.5611 17.716 34.2568 18.0119C34.3586 18.2248 34.4164 18.4656 34.4164 18.7195C34.4164 19.5878 33.7452 20.2973 32.9246 20.2973C32.4018 20.2973 32.2291 20.3318 31.7595 20.9965C31.6867 21.1365 31.8174 21.0805 31.8174 21.0805C32.1059 20.9125 33.0553 20.8452 33.6687 20.9657C34.2736 21.073 34.886 21.6154 34.9075 22.3576C34.929 23.0998 33.791 23.7794 33.791 23.7794L33.4017 23.1297C33.776 22.7553 34.2736 22.5023 33.7975 21.9823C33.3223 21.4623 32.1554 21.7452 31.6074 21.8675C31.0603 21.9898 30.9389 21.3942 30.9875 20.9442C31.037 20.4942 31.472 20.1703 31.6429 20.0489C31.2265 19.7679 30.9492 19.2759 30.9492 18.7177C30.9492 17.8495 31.6204 17.14 32.441 17.14H32.9237C33.2654 17.14 33.5818 17.2632 33.8339 17.4704L33.8358 17.4732ZM32.6193 17.8644H32.7538C33.2439 17.8644 33.6444 18.2257 33.6444 18.6663V18.8278C33.6444 19.2694 33.2439 19.6298 32.7538 19.6298H32.6193C32.1292 19.6298 31.7287 19.2685 31.7287 18.8278V18.6663C31.7287 18.2248 32.1292 17.8644 32.6193 17.8644Z" fill="#61BFE6"/>
</svg>
