<svg width="50" height="50" viewBox="0 0 50 50" fill="none" xmlns="http://www.w3.org/2000/svg">
<circle cx="25" cy="25" r="24.5" fill="white" stroke="#EFEFF1"/>
<path d="M13 18.7596C13 17.2355 14.1879 16 15.6533 16H34.3467C35.8121 16 37 17.2355 37 18.7596V31.2404C37 32.7645 35.8121 34 34.3467 34H15.6533C14.1879 34 13 32.7645 13 31.2404V18.7596Z" fill="#12997A"/>
<path d="M23.2481 22.4599C23.2481 23.8455 22.1682 24.9686 20.8361 24.9686C19.5039 24.9686 18.424 23.8455 18.424 22.4599C18.424 21.0744 19.5039 19.9512 20.8361 19.9512C22.1682 19.9512 23.2481 21.0744 23.2481 22.4599Z" fill="white"/>
<path d="M20.842 29.9944C19.7819 29.9944 18.7218 29.9724 17.6629 30.0013C16.8199 30.0239 16.4514 29.8244 16.5021 28.7789C16.531 28.1756 16.6655 27.6199 17.0098 27.1332C17.5387 26.385 18.2611 25.9967 19.1499 25.9842C20.2769 25.9685 21.4052 25.9679 22.5322 25.9836C24.0301 26.0043 25.168 27.2185 25.1746 28.7783C25.1746 28.8956 25.1746 29.0128 25.1746 29.1301C25.1728 29.7002 24.8918 29.9925 24.337 29.9938C23.4578 29.9956 22.578 29.9938 21.6989 29.9938C21.413 29.9938 21.1278 29.9944 20.842 29.9944Z" fill="white"/>
<path d="M26.8631 20.8293C26.8631 20.3443 27.241 19.9512 27.7073 19.9512H32.7123C33.1786 19.9512 33.5565 20.3443 33.5565 20.8293C33.5565 21.3142 33.1786 21.7073 32.7123 21.7073H27.7073C27.241 21.7073 26.8631 21.3142 26.8631 20.8293Z" fill="white"/>
<path d="M26.8631 24.7805C26.8631 24.2956 27.241 23.9024 27.7073 23.9024H32.7123C33.1786 23.9024 33.5565 24.2956 33.5565 24.7805C33.5565 25.2654 33.1786 25.6585 32.7123 25.6585H27.7073C27.241 25.6585 26.8631 25.2654 26.8631 24.7805Z" fill="white"/>
<path d="M26.8631 28.7317C26.8631 28.2468 27.241 27.8537 27.7073 27.8537H32.7123C33.1786 27.8537 33.5565 28.2468 33.5565 28.7317C33.5565 29.2166 33.1786 29.6098 32.7123 29.6098H27.7073C27.241 29.6098 26.8631 29.2166 26.8631 28.7317Z" fill="white"/>
</svg>
