<svg width="16" height="16" viewBox="0 0 16 16" fill="none" xmlns="http://www.w3.org/2000/svg">
<path d="M6.93036 0.478072C7.50101 -0.159357 8.49899 -0.159357 9.06964 0.478072L10.0083 1.52665C10.2992 1.85151 10.7219 2.0266 11.1572 2.00253L12.5625 1.92485C13.4167 1.87762 14.1224 2.58331 14.0752 3.43754L13.9975 4.84277C13.9734 5.27812 14.1485 5.70083 14.4734 5.99165L15.5219 6.93036C16.1594 7.50101 16.1594 8.49899 15.5219 9.06964L14.4734 10.0083C14.1485 10.2992 13.9734 10.7219 13.9975 11.1572L14.0752 12.5625C14.1224 13.4167 13.4167 14.1224 12.5625 14.0752L11.1572 13.9975C10.7219 13.9734 10.2992 14.1485 10.0083 14.4734L9.06964 15.5219C8.49899 16.1594 7.50101 16.1594 6.93036 15.5219L5.99165 14.4734C5.70083 14.1485 5.27812 13.9734 4.84277 13.9975L3.43754 14.0752C2.58331 14.1224 1.87762 13.4167 1.92485 12.5625L2.00253 11.1572C2.0266 10.7219 1.85151 10.2992 1.52665 10.0083L0.478072 9.06964C-0.159357 8.49899 -0.159358 7.50101 0.478072 6.93036L1.52665 5.99165C1.85151 5.70083 2.0266 5.27812 2.00253 4.84277L1.92485 3.43754C1.87762 2.58331 2.58331 1.87762 3.43754 1.92485L4.84277 2.00253C5.27812 2.0266 5.70083 1.85151 5.99165 1.52665L6.93036 0.478072Z" fill="#245BF3"/>
<path d="M5.40002 7.89575L7.40002 9.89575L11.4 5.89575" stroke="white" stroke-width="1.5" stroke-linecap="round" stroke-linejoin="round"/>
</svg>
