<svg width="40" height="40" viewBox="0 0 40 40" fill="none" xmlns="http://www.w3.org/2000/svg">
<circle cx="20" cy="20" r="20" fill="#00C01E"/>
<path d="M20.5035 30.0956C14.7117 30.0956 10 25.3639 10 19.5478C10 13.7317 14.7117 9 20.5035 9C22.949 9 25.3151 9.85077 27.1672 11.3962C27.6401 11.7909 27.958 12.4299 27.958 12.9859C27.958 13.5418 27.7531 14.0122 27.3808 14.3863C27.0086 14.7605 26.5132 14.9666 25.9866 14.9666C25.5363 14.9666 25.0865 14.8024 24.7205 14.5032C23.5536 13.5518 21.9383 12.9603 20.5041 12.9603C16.8874 12.9603 13.9453 15.9155 13.9453 19.5484C13.9453 23.1814 16.8874 26.1347 20.5041 26.1347C23.8572 26.1347 25.9223 23.7292 25.9223 21.528H20.6197V17.6745H27.9955C29.0218 17.6745 29.8726 18.4478 29.9588 19.4747C29.9894 19.8395 30 20.115 30 20.3686C30 22.9465 29.3016 25.3752 27.4933 27.2066C25.6543 29.0693 23.4524 30.0956 20.5041 30.0956" fill="white"/>
<path d="M22.5371 19.6014C22.5371 20.6658 21.6782 21.5278 20.6181 21.5278C19.5581 21.5278 18.6992 20.6651 18.6992 19.6014C18.6992 18.5376 19.5581 17.6743 20.6181 17.6743C21.6782 17.6743 22.5371 18.537 22.5371 19.6014Z" fill="#0028AC"/>
</svg>
