<svg width="16" height="16" viewBox="0 0 16 16" fill="none" xmlns="http://www.w3.org/2000/svg">
<rect width="16" height="16" rx="2" fill="#17BF98" fill-opacity="0.08"/>
<path d="M12 12.6666H4C3.63334 12.6666 3.33334 12.3666 3.33334 12V4C3.33334 3.63334 3.63334 3.33334 4 3.33334H7.33334C7.7 3.33334 8 3.03334 8 2.66666C8 2.3 7.7 2 7.33334 2H3.33334C2.59334 2 2 2.6 2 3.33334V12.6666C2 13.4 2.6 14 3.33334 14H12.6666C13.4 14 14 13.4 14 12.6666V8.66666C14 8.3 13.7 8 13.3334 8C12.9666 8 12.6666 8.3 12.6666 8.66666V12C12.6666 12.3666 12.3666 12.6666 12 12.6666ZM9.33334 2.66666C9.33334 3.03334 9.63334 3.33334 10 3.33334H11.7266L5.64 9.42C5.38 9.68 5.38 10.1 5.64 10.36C5.9 10.62 6.32 10.62 6.58 10.36L12.6666 4.27334V6C12.6666 6.36666 12.9666 6.66666 13.3334 6.66666C13.7 6.66666 14 6.36666 14 6V2.66666C14 2.3 13.7 2 13.3334 2H10C9.63334 2 9.33334 2.3 9.33334 2.66666Z" fill="#17BF98"/>
</svg>
