<svg width="40" height="40" viewBox="0 0 40 40" fill="none" xmlns="http://www.w3.org/2000/svg">
<circle cx="20" cy="20" r="19.5" fill="white" stroke="#EFEFF1"/>
<path d="M35.001 23.0359C34.8839 23.506 34.5406 23.5927 34.1145 23.5944C32.2086 23.6037 30.3023 23.6261 28.3964 23.6437C28.3093 23.6446 28.2217 23.6437 28.1055 23.6437C28.0637 22.6252 28.0223 21.6186 27.9805 20.6084H29.216C29.2332 20.7162 29.249 20.7933 29.2569 20.8716C29.2891 21.1863 29.2886 21.178 29.5945 21.1965C30.9256 21.2766 32.2562 21.362 33.5872 21.4447C33.666 21.4495 33.7448 21.4451 33.8447 21.4451C33.8337 21.2832 33.8236 21.1344 33.8117 20.953C34.1625 20.979 34.4948 21.0032 34.8611 21.0305C34.8905 21.4249 34.9174 21.8166 34.9495 22.2075C34.9601 22.3373 34.9834 22.4663 35.001 22.5957V23.0359ZM29.3621 22.0689C29.3621 22.1366 29.3608 22.2299 29.3621 22.3237C29.3651 22.5118 29.4625 22.606 29.6544 22.6063C31.0101 22.6063 32.3658 22.6058 33.7215 22.6054C33.7998 22.6054 33.8782 22.6054 33.9552 22.6054C33.9666 22.3134 33.8378 22.163 33.5687 22.1542C32.7782 22.1265 31.9877 22.0891 31.1967 22.0715C30.5972 22.0578 29.9973 22.0689 29.3617 22.0689H29.3621Z" fill="#0A3D91"/>
<path d="M19.3889 22.5959V23.5827H12.2358C12.2358 23.4537 12.2323 23.3402 12.2363 23.2262C12.2521 22.7794 12.2679 22.3322 12.2886 21.8854C12.3032 21.572 12.4317 21.4263 12.7455 21.4074C13.3235 21.3726 13.9027 21.3533 14.4815 21.3322C15.6832 21.2881 16.8848 21.2494 18.0864 21.2019C18.1718 21.1983 18.2722 21.1614 18.3338 21.105C18.3717 21.0703 18.3747 20.9558 18.3461 20.9026C18.321 20.8563 18.2286 20.8216 18.1674 20.8242C17.347 20.8577 16.5269 20.8982 15.7069 20.9378C14.6307 20.9897 13.5545 21.0425 12.4779 21.0945C12.4423 21.0962 12.4062 21.0892 12.3318 21.0835C12.3481 20.8053 12.3643 20.5319 12.3824 20.2278C12.7843 20.1987 13.1756 20.1679 13.5673 20.1424C14.8838 20.0561 16.1999 19.9712 17.5164 19.888C17.9262 19.862 18.336 19.8334 18.7462 19.8237C19.2251 19.8123 19.4104 20.0042 19.4117 20.4857C19.4131 20.9769 19.4016 21.4686 19.4139 21.9598C19.4192 22.172 19.3369 22.2547 19.1353 22.2543C18.9888 22.2538 18.8426 22.2679 18.696 22.2706C17.0243 22.2992 15.3526 22.3265 13.6809 22.3542C13.6298 22.3551 13.5686 22.3441 13.5299 22.3674C13.4802 22.3973 13.4194 22.455 13.4168 22.5039C13.4141 22.547 13.4766 22.6161 13.525 22.6346C13.5898 22.6592 13.6694 22.6496 13.742 22.6491C15.5093 22.6324 17.2765 22.6143 19.0438 22.5972C19.1534 22.5963 19.2625 22.5972 19.3884 22.5972L19.3889 22.5959Z" fill="#0A3D91"/>
<path d="M19.9795 15C22.4246 15.3046 24.8692 15.6092 27.3214 15.9147C27.342 16.2712 27.361 16.6039 27.3825 16.9754C25.2755 16.7615 23.2028 16.5511 21.1331 16.3407V18.6348C21.6041 18.5684 22.0293 18.5094 22.4545 18.4473C22.9977 18.3681 23.5382 18.2541 24.0844 18.2176C24.4048 18.1964 24.7354 18.2849 25.0576 18.3452C25.7984 18.483 26.5361 18.6375 27.2765 18.7766C27.442 18.8078 27.5177 18.8738 27.5036 19.0504C27.4899 19.2233 27.5005 19.3985 27.5005 19.5816C27.0335 19.5816 26.581 19.5891 26.129 19.5799C25.2491 19.5623 24.3696 19.5328 23.4902 19.5134C22.5443 19.4923 21.5988 19.4777 20.6529 19.4597C20.266 19.4522 20.0129 19.2379 20.0054 18.8615C19.9808 17.6005 19.9716 16.3394 19.957 15.0779C19.957 15.0572 19.968 15.0365 19.979 15H19.9795Z" fill="#0A3D91"/>
<path d="M10.7124 23.6043C10.7485 22.5734 10.7832 21.5813 10.8189 20.5738H10.5244C10.4663 21.5795 10.4087 22.5782 10.3501 23.5924H9.21582C9.21582 23.5065 9.21362 23.4286 9.21582 23.3507C9.28317 21.3806 9.35139 19.41 9.4183 17.4398C9.42974 17.1027 9.43722 16.7655 9.44118 16.4283C9.4425 16.3165 9.47596 16.247 9.59612 16.2329C9.95001 16.1911 10.3035 16.1466 10.678 16.1004C10.638 17.1348 10.5984 18.1494 10.5592 19.1591C10.833 19.2502 10.8964 19.2167 10.9082 18.9526C10.9487 18.0666 10.9813 17.1806 11.017 16.2945C11.02 16.2219 11.0236 16.1497 11.0275 16.0555C11.3986 16.0058 11.7652 15.9565 12.1341 15.9067C12.1341 16.2782 12.1446 16.6343 12.1319 16.9895C12.0984 17.9271 12.0527 18.8637 12.0152 19.8013C11.9668 21.002 11.9202 22.2032 11.8779 23.4044C11.8726 23.5488 11.8348 23.6139 11.6754 23.6078C11.3625 23.5959 11.0491 23.6043 10.7124 23.6043Z" fill="#0A3D91"/>
<path d="M17.5792 18.3578C17.397 18.7298 17.2447 19.0612 17.0695 19.3799C17.0356 19.4419 16.9145 19.478 16.8296 19.4868C16.2754 19.5419 15.7204 19.5868 15.1658 19.6339C14.3189 19.706 13.4725 19.7782 12.6256 19.8491C12.5684 19.8539 12.5103 19.8495 12.4372 19.8495C12.4372 19.5383 12.428 19.2333 12.439 18.9287C12.4738 17.9762 12.5204 17.0241 12.5512 16.0716C12.5569 15.8965 12.608 15.8406 12.7863 15.819C14.1164 15.6579 15.4444 15.4827 16.7732 15.3128C17.0343 15.2793 17.2953 15.2499 17.5655 15.2173V16.4088C16.9986 16.4748 16.4554 16.5386 15.9119 16.6007C15.2278 16.6791 14.5438 16.7561 13.8603 16.834C13.7542 16.8463 13.6626 16.8657 13.6569 17.0087C13.6345 17.5713 13.6045 18.1338 13.5759 18.7364C14.9083 18.6105 16.2213 18.4859 17.5792 18.3574V18.3578Z" fill="#0A3D91"/>
<path d="M27.7294 23.6794C27.4675 23.6794 27.2258 23.6956 26.9877 23.6745C26.7637 23.6547 26.6061 23.5077 26.5475 23.2951C26.4877 23.0785 26.4432 22.8523 26.4349 22.6287C26.4274 22.4293 26.3662 22.3624 26.1646 22.3611C24.4409 22.3518 22.7173 22.3351 20.994 22.3179C20.3413 22.3113 19.9275 21.8589 19.9812 21.1823C20.0565 21.1823 20.1344 21.1819 20.2119 21.1823C22.4708 21.1991 24.7301 21.2158 26.989 21.2325C27.0625 21.2329 27.136 21.2334 27.2091 21.2382C27.5357 21.2602 27.6321 21.3646 27.6457 21.6841C27.6704 22.2629 27.7016 22.8413 27.7289 23.4197C27.7325 23.498 27.7294 23.5768 27.7294 23.6785V23.6794Z" fill="#0A3D91"/>
<path d="M34.5094 17.068C34.5838 17.9918 34.6559 18.8889 34.7308 19.8198C34.4059 19.7402 34.1022 19.675 33.8064 19.5843C33.7527 19.5681 33.7087 19.4497 33.6982 19.3735C33.6449 18.9818 33.5987 18.5887 33.5622 18.1952C33.5503 18.0676 33.5005 18.0249 33.3768 18.0037C31.6096 17.7018 29.8428 17.3941 28.0764 17.0873C27.9902 17.0724 27.9043 17.0547 27.7939 17.0336C27.7736 16.7 27.7534 16.3668 27.7305 15.9834C30.0061 16.3474 32.2474 16.7057 34.5094 17.0675V17.068Z" fill="#0A3D91"/>
<path d="M27.5514 20.8412H19.9648V19.7509C20.0238 19.7509 20.0731 19.75 20.1229 19.7509C22.4469 19.7967 24.771 19.8372 27.095 19.8917C27.6025 19.9036 27.5347 19.82 27.551 20.3649C27.5554 20.5176 27.5519 20.6708 27.5519 20.8412H27.5514Z" fill="#0A3D91"/>
<path d="M5.2082 21.0532C5.63955 21.2134 6.03922 21.3543 6.43096 21.5141C6.50227 21.5431 6.56477 21.6426 6.59162 21.7227C6.73027 22.1391 6.85572 22.5595 6.98688 22.9785C7.00361 23.0317 7.02782 23.0824 7.06611 23.1774C7.26727 22.6906 7.45829 22.2496 7.63084 21.8015C7.70214 21.6162 7.81174 21.4995 7.99705 21.4282C8.27523 21.3208 8.54505 21.1928 8.85712 21.0563C8.83336 21.6113 8.81135 22.1277 8.78846 22.6444C8.77701 22.9006 8.76205 23.1567 8.75325 23.4129C8.74972 23.5225 8.72508 23.5921 8.59215 23.5921C7.40504 23.589 6.21792 23.5903 5 23.5903C5.06866 22.7553 5.13733 21.9212 5.20864 21.0532H5.2082Z" fill="#0A3D91"/>
<path d="M34.7698 20.1077C34.7896 20.3137 34.8076 20.5003 34.8283 20.7155C34.4348 20.6882 34.0712 20.6662 33.7086 20.6376C32.65 20.5549 31.5918 20.4695 30.5332 20.3858C29.7449 20.3238 28.9566 20.2626 28.1678 20.2036C28.0331 20.1935 27.9618 20.1561 27.9587 19.9963C27.9521 19.6398 27.9213 19.2832 27.8984 18.895C30.2005 19.3013 32.4726 19.7018 34.7693 20.1072L34.7698 20.1077Z" fill="#0A3D91"/>
<path d="M19.6685 16.8899V17.7161C19.573 17.7284 19.4876 17.7394 19.3652 17.7553C19.3652 18.1101 19.3665 18.4666 19.3652 18.8231C19.3634 19.2122 19.1654 19.4099 18.771 19.416C18.5461 19.4191 18.3211 19.4165 18.1055 19.4165V15.1346C18.484 15.0906 18.8313 15.0474 19.1795 15.0109C19.3397 14.9942 19.3529 15.1104 19.3542 15.2274C19.359 15.6672 19.3634 16.1069 19.3674 16.5466C19.3692 16.7432 19.4697 16.8577 19.6689 16.8899H19.6685Z" fill="#0A3D91"/>
<path d="M8.86613 20.7563C8.49947 20.5882 8.16715 20.4411 7.84231 20.2796C7.7983 20.2576 7.76705 20.1608 7.76969 20.1C7.79786 19.4275 7.83351 18.7549 7.86784 18.0828C7.89117 17.6224 7.91186 17.1615 7.94443 16.702C7.94927 16.6333 8.00517 16.5184 8.05271 16.5101C8.36698 16.4551 8.68522 16.4234 9.04571 16.3789C8.98541 17.8495 8.92643 19.2848 8.86613 20.7563Z" fill="#0A3D91"/>
<path d="M6.68927 16.7148C6.65494 17.1893 6.62501 17.633 6.59023 18.0767C6.53786 18.7475 6.47799 19.4183 6.4309 20.0896C6.42253 20.2084 6.39128 20.27 6.2764 20.3132C5.93131 20.4426 5.59107 20.5852 5.22266 20.7326C5.28516 19.8972 5.34458 19.1036 5.40444 18.3095C5.42777 17.9957 5.45726 17.6823 5.47399 17.3685C5.49335 16.9996 5.57258 16.8957 5.94276 16.8262C6.17912 16.7817 6.41857 16.7545 6.68927 16.7148Z" fill="#0A3D91"/>
<path d="M5.70312 20.8961C5.99275 20.7725 6.27665 20.6703 6.53987 20.5295C6.65519 20.4679 6.76171 20.3411 6.81409 20.2187C6.92853 19.9516 7.00556 19.6685 7.11252 19.3477C7.22388 19.6809 7.30399 19.9762 7.42371 20.2548C7.47521 20.3741 7.59097 20.4934 7.70761 20.5519C7.94794 20.6725 8.20896 20.7518 8.52587 20.8728C8.2204 20.9824 7.96555 21.059 7.72478 21.1673C7.61782 21.2153 7.50162 21.3112 7.45584 21.4146C7.31939 21.7206 7.21596 22.0414 7.07819 22.4138C6.98047 22.0885 6.89024 21.8187 6.81937 21.5436C6.77888 21.3856 6.69393 21.2892 6.54515 21.232C6.26521 21.1246 5.98791 21.0106 5.70312 20.8966V20.8961Z" fill="#0A3D91"/>
<path d="M21.5695 17.7126L21.4375 16.9863L27.0936 17.4705L26.8955 18.1528L25.597 18.2408L24.2985 17.9327L22.89 18.1528L21.5695 17.7126Z" fill="#0A3D91"/>
</svg>
