<svg width="15" height="14" viewBox="0 0 15 14" fill="none" xmlns="http://www.w3.org/2000/svg">
<path d="M2.71165 7.66789C2.48413 7.3351 2.43865 6.91139 2.59042 6.53836C2.92959 5.85045 3.49778 5.30048 4.19852 4.98181C4.70586 4.73098 5.25541 4.57541 5.81953 4.52288C5.57373 4.82359 5.32765 5.14444 5.0813 5.48548C4.57992 6.24032 4.15074 7.04017 3.7994 7.87458L3.64817 8.21174C3.26934 8.18056 2.92504 7.98064 2.71165 7.66789ZM3.28782 9.41745C2.92587 9.91435 2.66607 10.4774 2.52335 11.0742C2.43438 11.4621 2.67847 11.8482 3.06858 11.9367C3.17475 11.9608 3.285 11.9607 3.39116 11.9366C3.9906 11.7945 4.556 11.5364 5.05511 11.177C5.54381 10.6913 5.54401 9.90374 5.05552 9.41786C4.56705 8.93199 3.77488 8.93179 3.28617 9.41745H3.28782ZM6.59444 10.6518L6.25283 10.8025V10.9243C6.25365 11.216 6.37116 11.4955 6.57945 11.7009C6.77758 11.8925 7.04298 11.9998 7.31935 12C8.30129 11.9859 9.09745 11.097 9.5153 10.2695C9.77129 9.75732 9.92829 9.20194 9.97815 8.63217C9.67264 8.88068 9.34504 9.1292 8.99536 9.37772C8.23643 9.87633 7.43203 10.3029 6.59277 10.6518L6.59444 10.6518ZM12.502 3.23804C12.4465 5.04104 11.1409 6.82913 8.51002 8.70545C7.79407 9.16687 7.03878 9.56492 6.25283 9.89504V9.66185C6.24895 8.86281 5.59839 8.21601 4.7947 8.21216H4.56016C4.89296 7.43074 5.29402 6.67982 5.75875 5.96804C7.64138 3.35857 9.43696 2.05881 11.2475 2C12.1499 2 12.502 2.36532 12.502 3.23804ZM10.0023 5.51985C10.0023 4.94797 9.536 4.48435 8.96077 4.48435C8.38554 4.48435 7.91925 4.94795 7.91925 5.51985C7.91925 6.09173 8.38554 6.55535 8.96077 6.55535C9.536 6.55535 10.0023 6.09173 10.0023 5.51985Z" fill="black"/>
</svg>
