<svg width="120" height="120" viewBox="0 0 120 120" fill="none" xmlns="http://www.w3.org/2000/svg">
<g clip-path="url(#clip0_1965_237)">
<path d="M120 0H0V120H120V0Z" fill="#17BF98"/>
<path d="M81.0616 87.5454H39.4977C38.292 87.5482 37.0922 87.3791 35.9342 87.0432C34.8445 86.7251 33.805 86.2553 32.8461 85.6477C30.9874 84.4583 29.4712 82.8045 28.4474 80.8497C27.4236 78.8949 26.9276 76.7067 27.0085 74.5015C27.0544 73.3655 27.2593 72.2415 27.6171 71.1624C27.9997 70.0173 28.5428 68.9324 29.2302 67.9399L50.0122 37.7893C51.1584 36.1255 52.6918 34.7651 54.4804 33.8253C56.269 32.8856 58.2592 32.3945 60.2797 32.3945C62.3001 32.3945 64.2903 32.8856 66.0789 33.8253C67.8675 34.7651 69.4009 36.1255 70.5471 37.7893L91.3308 67.9399C92.0178 68.9324 92.5604 70.0175 92.9423 71.1626C93.2999 72.2414 93.5053 73.3649 93.5524 74.5004C93.6334 76.7057 93.1375 78.8939 92.1137 80.8487C91.0899 82.8035 89.5737 84.4573 87.7148 85.6466C86.7557 86.2538 85.7162 86.7236 84.6267 87.0422C83.4683 87.3786 82.2679 87.548 81.0616 87.5454ZM60.6441 51.1995C59.9967 51.1999 59.3591 51.357 58.7856 51.6574C58.2122 51.9578 57.72 52.3925 57.3511 52.9245L47.783 66.7457C47.3665 67.3472 47.1224 68.0511 47.0769 68.7813C47.0315 69.5115 47.1864 70.2403 47.5251 70.8888C47.8637 71.5374 48.3731 72.081 48.9983 72.4611C49.6234 72.8411 50.3406 73.0431 51.0722 73.0452H70.2102C70.9424 73.0445 71.6605 72.8435 72.2866 72.4638C72.9126 72.0841 73.4228 71.5403 73.7619 70.8913C74.1009 70.2422 74.2558 69.5128 74.2098 68.7821C74.1637 68.0513 73.9186 67.347 73.5008 66.7457L63.9323 52.9241C63.5643 52.3928 63.0731 51.9584 62.5008 51.658C61.9284 51.3577 61.2919 51.2002 60.6456 51.1991L60.6441 51.1995Z" fill="white"/>
<path d="M90.7916 48.128C88.1714 48.1282 85.6099 47.3514 83.4312 45.8958C81.2525 44.4402 79.5543 42.3712 78.5516 39.9504C77.5488 37.5297 77.2863 34.8659 77.7975 32.296C78.3087 29.7262 79.5704 27.3656 81.4232 25.5128C83.276 23.6601 85.6367 22.3984 88.2066 21.8873C90.7765 21.3762 93.4402 21.6387 95.8609 22.6415C98.2816 23.6444 100.351 25.3426 101.806 27.5213C103.262 29.7001 104.038 32.2616 104.038 34.8818C104.034 38.3937 102.637 41.7607 100.154 44.244C97.6705 46.7272 94.3035 48.1241 90.7916 48.128ZM90.7916 23.6576C88.5719 23.6574 86.402 24.3153 84.5562 25.5484C82.7105 26.7814 81.2718 28.534 80.4221 30.5847C79.5725 32.6353 79.35 34.8919 79.7828 37.069C80.2156 39.2461 81.2843 41.246 82.8537 42.8157C84.4231 44.3854 86.4228 45.4545 88.5998 45.8878C90.7768 46.3211 93.0334 46.0991 95.0842 45.2498C97.1351 44.4006 98.888 42.9623 100.121 41.1168C101.355 39.2713 102.013 37.1015 102.013 34.8818C102.01 31.9064 100.827 29.0537 98.7232 26.9496C96.6194 24.8454 93.767 23.6615 90.7916 23.6576Z" fill="white"/>
<path d="M91.5579 27.3373C92.3112 27.3309 93.0628 27.4092 93.7986 27.5708C94.4405 27.7106 95.0449 27.9868 95.5708 28.3806C96.0761 28.7654 96.4782 29.2695 96.7411 29.8478C97.0177 30.4415 97.1558 31.1704 97.1555 32.0344V32.9346C97.1555 34.375 96.8733 35.485 96.309 36.2645C95.7447 37.044 94.9408 37.56 93.8971 37.8125L97.1549 41.9347C97.2872 42.0899 97.3101 42.2277 97.2265 42.3477C97.1841 42.4076 97.1272 42.4557 97.061 42.4874C96.9948 42.5191 96.9216 42.5333 96.8483 42.5288H93.8792C93.7158 42.5304 93.5567 42.4761 93.4285 42.3749C93.2686 42.2446 93.1237 42.0969 92.9964 41.9347L89.8651 38.0112H88.6057V41.9347C88.6091 42.0147 88.5956 42.0946 88.566 42.169C88.5364 42.2434 88.4915 42.3108 88.4342 42.3667C88.32 42.4748 88.1677 42.5331 88.0105 42.5289H85.5443C85.468 42.5314 85.3921 42.5184 85.321 42.4905C85.25 42.4626 85.1854 42.4205 85.1312 42.3667C85.0764 42.3094 85.0337 42.2416 85.0059 42.1674C84.9781 42.0931 84.9657 42.0139 84.9694 41.9347V29.7128C84.9694 28.8731 85.1853 28.267 85.6172 27.8945C86.064 27.517 86.6348 27.3184 87.2194 27.3372L91.5579 27.3373ZM88.6063 35.0051H91.1977C91.7617 35.0051 92.1936 34.9538 92.4934 34.8513C92.7476 34.7787 92.9775 34.6388 93.1589 34.4465C93.291 34.2668 93.3747 34.0561 93.402 33.8347C93.4336 33.5899 93.4488 33.3433 93.4474 33.0965V32.2328C93.4539 31.9317 93.4144 31.6313 93.3303 31.3422C93.2584 31.105 93.1011 30.9031 92.8887 30.7754C92.6283 30.615 92.3374 30.5107 92.0344 30.4691C91.5844 30.4025 91.1298 30.3722 90.675 30.3786H88.6061L88.6063 35.0051Z" fill="white"/>
</g>
<defs>
<clipPath id="clip0_1965_237">
<rect width="120" height="120" rx="20" fill="white"/>
</clipPath>
</defs>
</svg>
