<svg width="40" height="40" viewBox="0 0 40 40" fill="none" xmlns="http://www.w3.org/2000/svg">
<circle cx="20" cy="20" r="20" fill="#E73B73"/>
<path d="M20.0399 19.8487V22.4633H18.8513V19.9475C18.8513 19.4253 18.5095 19.0304 17.8943 19.0304C17.3342 19.0304 16.9354 19.4253 16.9354 19.9589V22.4652H15.7487V18.0089H16.888V18.5329C17.1747 18.0943 17.7614 17.9576 18.1772 17.9576C19.5424 17.9576 20.0399 18.8481 20.0399 19.8487ZM8.77278 18.0108L7.59557 20.8038L6.38797 18.0108H5L6.96139 22.188L5.84114 24.6696H7.17975L10.1646 18.0108H8.77278ZM25.438 20.2684C25.438 21.5405 24.3956 22.5734 23.112 22.5734C21.8285 22.5734 20.7861 21.5424 20.7861 20.2684C20.7861 18.9943 21.8285 17.9633 23.112 17.9633C24.3956 17.9633 25.438 18.9943 25.438 20.2684ZM24.2684 20.2684C24.2684 19.6361 23.75 19.1215 23.1101 19.1215C22.4703 19.1215 21.9538 19.6342 21.9538 20.2684C21.9538 20.9025 22.4722 21.4152 23.1101 21.4152C23.7481 21.4152 24.2684 20.9025 24.2684 20.2684ZM14.8089 20.3994V22.4633H13.7361V22.0038C13.3867 22.3532 12.9329 22.5658 12.4468 22.5658C11.1614 22.5658 10.1209 21.5348 10.1209 20.2608C10.1209 18.9867 11.1633 17.9557 12.4468 17.9557C13.7304 17.9557 14.8089 18.9601 14.8089 20.3994ZM13.6051 20.2684C13.6051 19.6361 13.0867 19.1215 12.4487 19.1215C11.8108 19.1215 11.2924 19.6342 11.2924 20.2684C11.2924 20.9025 11.8108 21.4152 12.4487 21.4152C13.0867 21.4152 13.6051 20.9025 13.6051 20.2684ZM35 20.3994V22.4633H33.9272V22.0038C33.5778 22.3532 33.1259 22.5658 32.638 22.5658C31.3525 22.5658 30.312 21.5348 30.312 20.2608C30.312 18.9867 31.3544 17.9557 32.638 17.9557C33.9215 17.9557 35 18.9601 35 20.3994ZM33.7962 20.2684C33.7962 19.6361 33.2778 19.1215 32.638 19.1215C31.9981 19.1215 31.4816 19.6342 31.4816 20.2684C31.4816 20.9025 32 21.4152 32.638 21.4152C33.2759 21.4152 33.7962 20.9025 33.7962 20.2684ZM26.1975 22.4633H27.407V16H26.1975V22.4633ZM28.3791 22.4006C28.3791 23.2266 27.8778 23.4981 27.4165 23.4981V24.681C28.1057 24.681 29.5677 24.4873 29.5753 22.4234V18.0089H28.3772V22.4006H28.3791Z" fill="white"/>
</svg>
