<svg width="40" height="40" viewBox="0 0 40 40" fill="none" xmlns="http://www.w3.org/2000/svg">
<circle cx="20" cy="20" r="19.5" fill="white" stroke="#EFEFF1"/>
<path fill-rule="evenodd" clip-rule="evenodd" d="M9.55529 23.2058C9.29034 20.9311 12.84 20.8799 12.5365 23.2199L9.55529 23.2058ZM29.2741 20.0754C30.2152 20.0821 31.3685 20.6766 31.8746 21.1768L31.0961 22.316C30.3042 21.8803 29.1561 21.0031 28.2678 21.8225C28.0058 22.0637 27.9056 22.5364 28.3821 22.8852C28.8622 23.2377 29.8263 23.4463 30.6389 23.8582C31.4041 24.2456 32.0342 24.8133 31.9986 25.8493C31.9488 27.2802 30.5187 27.9407 29.2556 27.9526C28.0058 27.9645 26.7694 27.3455 26.1423 26.2078L27.4143 25.5243C27.9375 26.2405 28.4756 26.7199 29.4649 26.6635C29.882 26.6397 30.4015 26.2828 30.4334 25.8664C30.5076 24.8846 28.4333 24.578 27.8136 24.2908C27.1857 23.9999 26.379 23.0915 26.428 22.2781C26.5111 20.8866 27.8017 20.0658 29.2756 20.0762L29.2741 20.0754ZM21.9655 18.4806L23.4839 18.1006V20.284H25.4395V21.5939H23.4839V25.4857C23.4839 26.2546 23.8223 26.7006 25.6139 26.3688L25.7987 27.5748C24.4086 28.2383 21.9655 28.0298 21.9655 26.1314V21.5946H20.8641V20.2847H21.9655V18.4813V18.4806ZM15.0613 20.7055L15.4709 21.9649C15.7745 21.9115 19.0303 20.3137 19.034 23.1056V23.1724C18.5612 22.791 17.9534 22.5616 17.2899 22.5616C15.7767 22.5616 14.5492 23.7572 14.5492 25.2319C14.5492 26.7065 15.776 27.9021 17.2899 27.9021C17.9831 27.9021 18.6162 27.6513 19.0986 27.2379L19.1008 27.3841L19.0882 27.799L20.4515 27.7812C20.5287 26.7206 20.4671 25.4412 20.4671 24.3569C20.4671 22.6151 20.5658 21.4321 19.1282 20.5422C17.6143 19.6049 16.1196 20.4346 15.0605 20.707L15.0613 20.7055ZM19.0652 25.0708L19.0689 25.2927C19.0221 26.0453 18.3809 26.6412 17.5965 26.6412C16.812 26.6412 16.1218 25.9978 16.1218 25.2044C16.1218 24.4111 16.7823 23.7676 17.5965 23.7676C18.3646 23.7676 18.9961 24.3406 19.0652 25.0716V25.0708ZM9.55009 24.3858L13.312 24.368C14.2768 24.3636 14.1232 24.2619 14.1499 23.2414C14.1254 21.5894 13.2645 20.3716 11.5724 20.1638C10.4652 20.0279 9.29331 20.3938 8.76639 20.9979C8.00197 21.8751 8.03537 22.6247 8.00346 24.0578C7.95745 26.1106 8.34262 27.8309 10.8578 27.9429C12.1439 28.0001 13.5384 27.4361 13.8041 26.3807L12.4942 25.7536C11.896 26.547 11.0388 26.9596 10.0956 26.3147C9.53228 25.9295 9.50482 25.24 9.55009 24.3858Z" fill="#8B4A22"/>
<path fill-rule="evenodd" clip-rule="evenodd" d="M10.7794 12.7496L10.3029 13.1541C10.3029 13.1541 10.1122 12.6814 9.58452 12.6814C9.05686 12.6814 8.74441 12.881 8.74441 13.471V14.2948C8.74441 14.516 8.8357 15.1008 9.43313 15.1008C10.0306 15.1008 10.2933 14.6354 10.2933 14.6354L10.7994 15.0199C10.7994 15.0199 10.4024 15.7487 9.45316 15.7487C8.50396 15.7487 8.01562 15.0622 8.01562 14.3772C8.01562 13.7775 8.03566 13.8896 8.03566 13.3063C8.03566 12.7229 8.50025 12.1426 9.26021 12.0632C10.0209 11.9838 10.5745 12.3504 10.7786 12.7489L10.7794 12.7496Z" fill="#5F2E27"/>
<path fill-rule="evenodd" clip-rule="evenodd" d="M14.6367 12.1238H15.3558C15.3558 12.1238 15.3454 13.7521 15.3454 14.1588C15.3454 14.5655 15.5043 15.1206 16.0542 15.1206C16.6041 15.1206 16.8238 14.8682 16.8238 14.1788V12.1438H17.5429V15.7277H16.9255V15.4033C16.9255 15.4033 16.501 15.7677 15.8724 15.7677C15.2438 15.7677 14.6374 15.2215 14.6374 14.4719C14.6374 13.7224 14.627 12.123 14.6374 12.123L14.6367 12.1238Z" fill="#5F2E27"/>
<path fill-rule="evenodd" clip-rule="evenodd" d="M28.0781 15.7687H27.359C27.359 15.7687 27.3694 14.1411 27.3694 13.7337C27.3694 13.3263 27.2106 12.7719 26.6606 12.7719C26.1107 12.7719 25.891 13.1511 25.891 13.802V15.7479H25.1719V12.1633H25.7893V12.4876C25.7893 12.4876 25.9853 12.098 26.766 12.1232C27.5467 12.1485 28.0774 12.6695 28.0774 13.419C28.0774 14.1686 28.0878 15.7679 28.0774 15.7679L28.0781 15.7687Z" fill="#C7CE22"/>
<path fill-rule="evenodd" clip-rule="evenodd" d="M12.3752 12.0532H12.7448C13.4283 12.0532 13.9871 12.6143 13.9871 13.3V14.4808C13.9871 15.1665 13.4283 15.7276 12.7448 15.7276H12.3752C11.6916 15.7276 11.1328 15.1665 11.1328 14.4808V13.3C11.1328 12.6143 11.6916 12.0532 12.3752 12.0532ZM12.4256 12.6811H12.7136C13.0572 12.6811 13.3392 13.0262 13.3392 13.4477V14.3346C13.3392 14.7561 13.0579 15.1012 12.7136 15.1012H12.4256C12.082 15.1012 11.8 14.7561 11.8 14.3346V13.4477C11.8 13.0262 12.0813 12.6811 12.4256 12.6811Z" fill="#5F2E27"/>
<path fill-rule="evenodd" clip-rule="evenodd" d="M18.239 12.1446V17.166H19.0183V15.4954C19.0183 15.4954 19.1793 15.7485 19.8888 15.7485C20.5983 15.7485 21.1846 15.1414 21.1846 14.5135V13.309C21.1846 12.9543 20.8818 12.1335 20.081 12.0941C19.2803 12.0548 19.0376 12.2656 18.927 12.4786V12.1342L18.2383 12.1446H18.239ZM19.5816 12.6812H19.9371C20.2814 12.6812 20.5627 13.0263 20.5627 13.4478V14.3347C20.5627 14.7562 20.2814 15.1013 19.9371 15.1013H19.5816C19.238 15.1013 18.9559 14.7562 18.9559 14.3347V13.4478C18.9559 13.0263 19.2372 12.6812 19.5816 12.6812Z" fill="#E62830"/>
<path fill-rule="evenodd" clip-rule="evenodd" d="M21.8935 12.3874L22.1874 12.8735C22.1874 12.8735 22.5013 12.6308 23.0683 12.6812C23.6353 12.7317 23.7667 13.1161 23.757 13.4501C23.757 13.4501 23.4943 13.2475 22.9369 13.2475C22.3796 13.2475 21.8438 13.6119 21.7324 14.0572C21.6211 14.5025 21.6315 15.5452 22.5221 15.7174C23.4127 15.8896 23.8283 15.4034 23.8283 15.4034V15.7374H24.4361V13.1859C24.4361 11.9124 22.6653 11.6957 21.895 12.3866L21.8935 12.3874ZM22.977 13.8279H23.0683C23.4023 13.8279 23.6746 14.101 23.6746 14.4342V14.5559C23.6746 14.8899 23.4015 15.1622 23.0683 15.1622H22.977C22.6431 15.1622 22.3707 14.8891 22.3707 14.5559V14.4342C22.3707 14.1002 22.6438 13.8279 22.977 13.8279Z" fill="#FBBD43"/>
<path fill-rule="evenodd" clip-rule="evenodd" d="M30.9393 12.3761C31.084 12.2388 31.3348 11.9806 31.8551 12.1542L31.8647 12.6908C31.8647 12.6908 31.5159 12.5691 31.274 12.8044C31.3549 12.9736 31.4009 13.165 31.4009 13.3669C31.4009 14.0571 30.8673 14.6211 30.2149 14.6211C29.7993 14.6211 29.662 14.6486 29.2887 15.177C29.2308 15.2883 29.3347 15.2438 29.3347 15.2438C29.5641 15.1102 30.3188 15.0568 30.8064 15.1525C31.2873 15.2379 31.7742 15.6691 31.7912 16.2591C31.8083 16.8491 30.9036 17.3893 30.9036 17.3893L30.5942 16.8728C30.8918 16.5752 31.2873 16.3741 30.9088 15.9607C30.5311 15.5473 29.6034 15.7722 29.1677 15.8694C28.7328 15.9667 28.6364 15.4932 28.675 15.1354C28.7143 14.7777 29.0601 14.5202 29.1959 14.4237C28.865 14.2003 28.6445 13.8092 28.6445 13.3654C28.6445 12.6752 29.1781 12.1112 29.8305 12.1112H30.2142C30.4858 12.1112 30.7374 12.2092 30.9378 12.3739L30.9393 12.3761ZM29.9722 12.6871H30.0791C30.4687 12.6871 30.7871 12.9743 30.7871 13.3246V13.453C30.7871 13.804 30.4687 14.0905 30.0791 14.0905H29.9722C29.5826 14.0905 29.2642 13.8033 29.2642 13.453V13.3246C29.2642 12.9736 29.5826 12.6871 29.9722 12.6871Z" fill="#61BFE6"/>
</svg>
