<svg width="50" height="50" viewBox="0 0 50 50" fill="none" xmlns="http://www.w3.org/2000/svg">
<circle cx="25" cy="25" r="24.5" fill="white" stroke="#EFEFF1"/>
<path d="M25 14C18.3724 14 13 18.2462 13 23.4872C13 26.8973 15.2749 29.886 18.6918 31.5582C18.4403 32.494 17.7832 34.9524 17.6518 35.4781C17.4887 36.1307 17.8897 36.1216 18.1548 35.9471C18.361 35.8089 21.4426 33.713 22.7727 32.8089C23.4955 32.9154 24.2387 32.9721 25 32.9721C31.6276 32.9721 37 28.7258 37 23.4872C37 18.2485 31.6276 14 25 14Z" fill="#544A4A"/>
<path d="M16.6279 21.7383H17.8628C17.8628 21.7383 17.8696 25.1303 17.8628 25.921C17.8628 26.4988 19.1475 26.5056 19.1453 25.9301L19.1498 21.7836C19.1498 21.7836 19.5644 21.7859 20.3779 21.7859C21.146 21.7859 21.146 20.5781 20.3779 20.5781C19.5123 20.5781 16.6211 20.5532 16.6211 20.5532C15.896 20.5532 15.8983 21.7383 16.6211 21.7383" fill="#FAE100"/>
<mask id="mask0_2204_24574" style="mask-type:luminance" maskUnits="userSpaceOnUse" x="16" y="20" width="5" height="7">
<path d="M16.6279 21.7383H17.8628C17.8628 21.7383 17.8696 25.1303 17.8628 25.921C17.8628 26.4988 19.1475 26.5056 19.1453 25.9301L19.1498 21.7836C19.1498 21.7836 19.5644 21.7859 20.3779 21.7859C21.146 21.7859 21.146 20.5781 20.3779 20.5781C19.5123 20.5781 16.6211 20.5532 16.6211 20.5532C15.896 20.5532 15.8983 21.7383 16.6211 21.7383" fill="white"/>
</mask>
<g mask="url(#mask0_2204_24574)">
<path d="M21.1462 20.5552H15.8984V26.5076H21.1462V20.5552Z" fill="#FAE100"/>
</g>
<path d="M22.5395 21.958L23.2261 24.1106H21.7941L22.5395 21.958ZM21.7692 20.9497C21.4655 21.6182 20.3666 24.779 20.004 25.6174C19.7412 26.2224 20.8764 26.7163 21.1392 26.1114L21.3862 25.2481H23.6453C23.6453 25.2481 23.5682 25.2843 23.8673 26.0751C24.1098 26.7163 25.2835 26.2722 25.0411 25.631C24.6944 24.7156 23.4935 21.4165 23.2737 20.9497C23.174 20.7345 22.8114 20.5781 22.4602 20.5781C22.1702 20.5781 21.887 20.6846 21.7669 20.9497" fill="#FAE100"/>
<mask id="mask1_2204_24574" style="mask-type:luminance" maskUnits="userSpaceOnUse" x="19" y="20" width="7" height="7">
<path d="M22.5395 21.958L23.2261 24.1106H21.7941L22.5395 21.958ZM21.7692 20.9497C21.4655 21.6182 20.3666 24.779 20.004 25.6174C19.7412 26.2224 20.8764 26.7163 21.1392 26.1114L21.3862 25.2481H23.6453C23.6453 25.2481 23.5682 25.2843 23.8673 26.0751C24.1098 26.7163 25.2835 26.2722 25.0411 25.631C24.6944 24.7156 23.4935 21.4165 23.2737 20.9497C23.174 20.7345 22.8114 20.5781 22.4602 20.5781C22.1702 20.5781 21.887 20.6846 21.7669 20.9497" fill="white"/>
</mask>
<g mask="url(#mask1_2204_24574)">
<path d="M25.2851 20.5806H19.7383V26.721H25.2851V20.5806Z" fill="#FAE100"/>
</g>
<path d="M25.4766 21.1469C25.4766 22.2209 25.4834 25.6831 25.4834 25.6831C25.4834 25.6831 25.3837 26.3719 25.9751 26.3719C26.5665 26.3719 27.8739 26.3651 28.4539 26.3651C29.034 26.3651 29.0317 25.1302 28.4516 25.1302C27.8716 25.1302 26.8112 25.1234 26.8112 25.1234C26.8112 25.1234 26.8157 21.9218 26.8134 21.1423C26.8134 20.7662 26.4781 20.5781 26.145 20.5781C25.8119 20.5781 25.4743 20.7685 25.4766 21.1446" fill="#FAE100"/>
<mask id="mask2_2204_24574" style="mask-type:luminance" maskUnits="userSpaceOnUse" x="25" y="20" width="4" height="7">
<path d="M25.4766 21.1469C25.4766 22.2209 25.4834 25.6831 25.4834 25.6831C25.4834 25.6831 25.3837 26.3719 25.9751 26.3719C26.5665 26.3719 27.8739 26.3651 28.4539 26.3651C29.034 26.3651 29.0317 25.1302 28.4516 25.1302C27.8716 25.1302 26.8112 25.1234 26.8112 25.1234C26.8112 25.1234 26.8157 21.9218 26.8134 21.1423C26.8134 20.7662 26.4781 20.5781 26.145 20.5781C25.8119 20.5781 25.4743 20.7685 25.4766 21.1446" fill="white"/>
</mask>
<g mask="url(#mask2_2204_24574)">
<path d="M29.0331 20.5806H25.3828V26.3721H29.0331V20.5806Z" fill="#FAE100"/>
</g>
<path d="M29.1877 20.9768C29.2013 21.4481 29.1719 25.7079 29.1719 26.0229C29.1719 26.5213 30.4408 26.5191 30.4408 26.0229C30.4408 25.4451 30.4408 24.3461 30.4408 24.3461L30.8124 24.047L32.4415 26.2676C32.7701 26.7026 33.8056 25.9164 33.477 25.4836L31.7482 23.2064C31.7482 23.2064 32.9219 21.9375 33.3841 21.4775C33.6537 21.2102 32.8176 20.3673 32.548 20.6369C32.2874 20.8952 30.4476 22.7374 30.4476 22.7374C30.4476 22.7374 30.4634 21.5818 30.4476 20.9428C30.4408 20.7003 30.1439 20.5825 29.838 20.5825C29.5118 20.5825 29.1787 20.7162 29.1855 20.9768" fill="#FAE100"/>
<mask id="mask3_2204_24574" style="mask-type:luminance" maskUnits="userSpaceOnUse" x="29" y="20" width="5" height="7">
<path d="M29.1877 20.9768C29.2013 21.4481 29.1719 25.7079 29.1719 26.0229C29.1719 26.5213 30.4408 26.5191 30.4408 26.0229C30.4408 25.4451 30.4408 24.3461 30.4408 24.3461L30.8124 24.047L32.4415 26.2676C32.7701 26.7026 33.8056 25.9164 33.477 25.4836L31.7482 23.2064C31.7482 23.2064 32.9219 21.9375 33.3841 21.4775C33.6537 21.2102 32.8176 20.3673 32.548 20.6369C32.2874 20.8952 30.4476 22.7374 30.4476 22.7374C30.4476 22.7374 30.4634 21.5818 30.4476 20.9428C30.4408 20.7003 30.1439 20.5825 29.838 20.5825C29.5118 20.5825 29.1787 20.7162 29.1855 20.9768" fill="white"/>
</mask>
<g mask="url(#mask3_2204_24574)">
<path d="M33.8056 20.3691H29.1719V26.7045H33.8056V20.3691Z" fill="#FAE100"/>
</g>
</svg>
