<svg width="40" height="40" viewBox="0 0 40 40" fill="none" xmlns="http://www.w3.org/2000/svg">
<circle cx="20" cy="20" r="19.5" fill="white" stroke="#EFEFF1"/>
<path d="M23.8263 22.2599C22.6326 21.4482 21.8393 21.1874 21.8393 20.6181C21.8393 20.328 22.0744 19.9387 22.9412 19.9387C23.7014 19.9387 24.5021 20.4051 24.9465 20.9083L24.9722 20.9193L25.0052 20.8826V18.9581C24.5829 18.7708 23.7051 18.4292 22.5776 18.4292C20.1499 18.4292 19.1582 19.8285 19.1582 20.8716C19.1582 21.7787 19.6981 22.3296 20.3556 22.8034C21.4023 23.5453 22.7502 23.9971 22.7502 24.8675C22.7502 25.3119 22.3058 26.0721 20.8514 26.0721C19.1619 26.0721 17.017 25.1062 15.9336 22.7997C16.3192 26.4835 19.1509 28.0811 21.2297 28.0811C24.1201 28.0811 25.4386 26.3256 25.4386 24.8675C25.4386 23.8501 24.9538 23.0275 23.8226 22.2562L23.8263 22.2599Z" fill="#EF463B"/>
<path d="M15.9876 15.3853C15.1171 15.3853 14.4193 15.8701 14.0263 16.4283V15.6166H11.0367L11 15.6534L11.011 15.6754C11.393 16.1198 11.5436 16.2887 11.5436 17.3759V23.6599H14.03V18.4703C14.03 17.4236 14.5772 17.1775 14.9629 17.1775C15.3485 17.1775 15.8921 17.4236 15.8921 18.4703V20.6446C15.8921 22.4149 17.0049 23.5791 18.3822 24.2292V18.4961C18.3822 16.4026 17.5191 15.3926 15.9912 15.3926L15.9876 15.3853Z" fill="#EF463B"/>
<path d="M26.1977 25.6175C27.9166 24.0859 29 21.8566 29 19.3701C29 14.7462 25.2502 11 20.6262 11C18.1435 11 15.9141 12.0835 14.3789 13.8023C15.859 12.4838 17.8092 11.6795 19.9468 11.6795C24.5707 11.6795 28.3169 15.4293 28.3169 20.0496C28.3169 22.1871 27.5126 24.1373 26.1977 25.6138" fill="#EF463B"/>
</svg>
