<svg width="17" height="16" viewBox="0 0 17 16" fill="none" xmlns="http://www.w3.org/2000/svg">
<path d="M13.8155 0H2.93255C2.25458 0.00202656 1.60495 0.282767 1.12555 0.780892C0.646158 1.27902 0.375974 1.95404 0.374023 2.65849V13.3415C0.376082 14.0459 0.6463 14.7209 1.12567 15.219C1.60504 15.7171 2.25462 15.9979 2.93255 16H13.8155C14.4934 15.9977 15.1429 15.7169 15.6223 15.2189C16.1016 14.7208 16.3719 14.0459 16.374 13.3415V2.65849C16.3721 1.95404 16.1019 1.27902 15.6225 0.780892C15.1431 0.282767 14.4935 0.00202656 13.8155 0ZM15.2529 13.4187C15.2522 13.826 15.0962 14.2163 14.8191 14.5043C14.542 14.7922 14.1663 14.9543 13.7744 14.955H2.97197C2.58006 14.9543 2.2044 14.7922 1.92728 14.5043C1.65016 14.2163 1.49418 13.826 1.49353 13.4187V5.59861C1.49418 5.19176 1.64987 4.80174 1.92655 4.51385C2.20322 4.22597 2.57837 4.06365 2.96992 4.06241H13.7748C14.1668 4.06309 14.5424 4.22515 14.8195 4.5131C15.0967 4.80105 15.2526 5.19139 15.2533 5.59861L15.2529 13.4187Z" fill="#555555"/>
<path d="M7.58897 6.29492H6.46289V7.39187H7.58897V6.29492Z" fill="#555555"/>
<path d="M10.2784 6.29492H9.15234V7.39187H10.2784V6.29492Z" fill="#555555"/>
<path d="M12.9308 6.29492H11.8047V7.39187H12.9308V6.29492Z" fill="#555555"/>
<path d="M7.58897 8.87891H6.46289V9.97585H7.58897V8.87891Z" fill="#555555"/>
<path d="M10.2784 8.87891H9.15234V9.97585H10.2784V8.87891Z" fill="#555555"/>
<path d="M7.58897 11.4619H6.46289V12.5589H7.58897V11.4619Z" fill="#555555"/>
<path d="M4.95518 8.87891H3.8291V9.97585H4.95518V8.87891Z" fill="#555555"/>
<path d="M4.95518 11.4619H3.8291V12.5589H4.95518V11.4619Z" fill="#555555"/>
<path d="M10.2784 11.4619H9.15234V12.5589H10.2784V11.4619Z" fill="#555555"/>
<path d="M12.9308 8.87891H11.8047V9.97585H12.9308V8.87891Z" fill="#555555"/>
</svg>
