<svg width="160" height="160" viewBox="0 0 160 160" fill="none" xmlns="http://www.w3.org/2000/svg">
<mask id="path-1-inside-1_9098_469" fill="white">
<path fill-rule="evenodd" clip-rule="evenodd" d="M68.2808 37.6039C59.6771 36.4718 51.7847 42.5288 50.6526 51.1325L44.0727 101.14C42.9406 109.744 48.9976 117.636 57.6013 118.768L91.3758 123.212C99.9796 124.344 107.872 118.287 109.004 109.683L115.584 59.6761C116.716 51.0724 110.659 43.18 102.055 42.0479L68.2808 37.6039ZM73.0801 65.3232L73.0935 65.3124C74.3601 64.2929 75.6293 63.2712 76.9047 62.2454C76.9915 62.316 77.074 62.3824 77.1535 62.4463L77.1536 62.4464C77.2946 62.5598 77.4261 62.6656 77.5546 62.7736C78.7668 63.7966 79.9782 64.8206 81.1896 65.8446L81.1904 65.8453C82.8664 67.262 84.5424 68.6788 86.2209 70.093C87.8853 71.4956 89.5338 71.4857 91.1756 70.0732C92.9999 68.5039 94.8204 66.934 96.6427 65.3625L96.6509 65.3554L96.6573 65.3499L96.9378 65.1081C97.5708 64.5619 98.2056 64.0178 98.8402 63.4737L98.8409 63.4731L98.8411 63.4729C100.314 62.2101 101.787 60.9474 103.238 59.6608C105.202 57.9193 104.777 54.9002 102.438 53.9056C101.125 53.3462 99.8904 53.5704 98.7955 54.5148C96.2492 56.7132 93.7011 58.9091 91.1533 61.103C90.6551 61.5316 90.1546 61.9591 89.652 62.3885C89.3265 62.6666 89.0001 62.9454 88.6728 63.2258C87.6603 62.3718 86.6549 61.523 85.6541 60.6781L85.6398 60.6661L85.6374 60.664C83.543 58.8959 81.4685 57.1446 79.3906 55.3977C77.8091 54.0666 76.2256 54.0396 74.6211 55.3317C70.7952 58.4092 66.9748 61.4939 63.1599 64.5857C61.5516 65.8903 61.2871 67.9656 62.5104 69.4893C63.7078 70.9816 65.7499 71.179 67.3525 69.9342C68.0055 69.4275 68.647 68.9046 69.2886 68.3815L69.2887 68.3814C69.5988 68.1287 69.9089 67.8759 70.2204 67.6248C71.1711 66.8599 72.1218 66.0946 73.0741 65.3281L73.0801 65.3232ZM80.712 80.7765C82.1819 80.9699 83.652 81.1619 85.1221 81.3538C88.6132 81.8095 92.1041 82.2653 95.5912 82.7408C98.0889 83.0824 99.4068 85.6337 98.2417 87.7806C97.5412 89.0728 96.2158 89.7126 94.5853 89.5046C92.7563 89.2732 90.9278 89.0308 89.0996 88.7885L89.0994 88.7885C88.3686 88.6916 87.6379 88.5948 86.9072 88.4986C84.8277 88.225 82.7483 87.9517 80.6689 87.6785L80.6687 87.6785C75.4661 86.9948 70.2639 86.3112 65.0614 85.622C62.9061 85.3384 61.602 83.7759 61.835 81.8088C62.0715 79.8162 63.7368 78.5516 65.8293 78.8226C69.3738 79.2797 72.9169 79.7477 76.4592 80.2156L76.4596 80.2156C77.8765 80.4027 79.2932 80.5899 80.7099 80.7763L80.712 80.7765ZM73.1889 96.2755C72.4403 96.1794 71.6916 96.0834 70.9431 95.9849L70.9455 95.983C70.1907 95.8837 69.4362 95.7812 68.6815 95.6786C66.9057 95.4373 65.1294 95.1959 63.3486 94.9964C61.5074 94.7909 59.9513 96.1066 59.7154 97.9481C59.4791 99.7765 60.683 101.464 62.5012 101.714C67.0575 102.339 71.6164 102.931 76.1767 103.523C76.6561 103.585 77.1354 103.647 77.6148 103.709C78.5942 103.838 79.4638 103.529 80.1867 102.866C81.2023 101.937 81.5564 100.764 81.202 99.4427C80.8366 98.0901 79.9379 97.2008 78.539 96.9951C76.7579 96.7334 74.9736 96.5045 73.1889 96.2755Z"/>
</mask>
<path fill-rule="evenodd" clip-rule="evenodd" d="M68.2808 37.6039C59.6771 36.4718 51.7847 42.5288 50.6526 51.1325L44.0727 101.14C42.9406 109.744 48.9976 117.636 57.6013 118.768L91.3758 123.212C99.9796 124.344 107.872 118.287 109.004 109.683L115.584 59.6761C116.716 51.0724 110.659 43.18 102.055 42.0479L68.2808 37.6039ZM73.0801 65.3232L73.0935 65.3124C74.3601 64.2929 75.6293 63.2712 76.9047 62.2454C76.9915 62.316 77.074 62.3824 77.1535 62.4463L77.1536 62.4464C77.2946 62.5598 77.4261 62.6656 77.5546 62.7736C78.7668 63.7966 79.9782 64.8206 81.1896 65.8446L81.1904 65.8453C82.8664 67.262 84.5424 68.6788 86.2209 70.093C87.8853 71.4956 89.5338 71.4857 91.1756 70.0732C92.9999 68.5039 94.8204 66.934 96.6427 65.3625L96.6509 65.3554L96.6573 65.3499L96.9378 65.1081C97.5708 64.5619 98.2056 64.0178 98.8402 63.4737L98.8409 63.4731L98.8411 63.4729C100.314 62.2101 101.787 60.9474 103.238 59.6608C105.202 57.9193 104.777 54.9002 102.438 53.9056C101.125 53.3462 99.8904 53.5704 98.7955 54.5148C96.2492 56.7132 93.7011 58.9091 91.1533 61.103C90.6551 61.5316 90.1546 61.9591 89.652 62.3885C89.3265 62.6666 89.0001 62.9454 88.6728 63.2258C87.6603 62.3718 86.6549 61.523 85.6541 60.6781L85.6398 60.6661L85.6374 60.664C83.543 58.8959 81.4685 57.1446 79.3906 55.3977C77.8091 54.0666 76.2256 54.0396 74.6211 55.3317C70.7952 58.4092 66.9748 61.4939 63.1599 64.5857C61.5516 65.8903 61.2871 67.9656 62.5104 69.4893C63.7078 70.9816 65.7499 71.179 67.3525 69.9342C68.0055 69.4275 68.647 68.9046 69.2886 68.3815L69.2887 68.3814C69.5988 68.1287 69.9089 67.8759 70.2204 67.6248C71.1711 66.8599 72.1218 66.0946 73.0741 65.3281L73.0801 65.3232ZM80.712 80.7765C82.1819 80.9699 83.652 81.1619 85.1221 81.3538C88.6132 81.8095 92.1041 82.2653 95.5912 82.7408C98.0889 83.0824 99.4068 85.6337 98.2417 87.7806C97.5412 89.0728 96.2158 89.7126 94.5853 89.5046C92.7563 89.2732 90.9278 89.0308 89.0996 88.7885L89.0994 88.7885C88.3686 88.6916 87.6379 88.5948 86.9072 88.4986C84.8277 88.225 82.7483 87.9517 80.6689 87.6785L80.6687 87.6785C75.4661 86.9948 70.2639 86.3112 65.0614 85.622C62.9061 85.3384 61.602 83.7759 61.835 81.8088C62.0715 79.8162 63.7368 78.5516 65.8293 78.8226C69.3738 79.2797 72.9169 79.7477 76.4592 80.2156L76.4596 80.2156C77.8765 80.4027 79.2932 80.5899 80.7099 80.7763L80.712 80.7765ZM73.1889 96.2755C72.4403 96.1794 71.6916 96.0834 70.9431 95.9849L70.9455 95.983C70.1907 95.8837 69.4362 95.7812 68.6815 95.6786C66.9057 95.4373 65.1294 95.1959 63.3486 94.9964C61.5074 94.7909 59.9513 96.1066 59.7154 97.9481C59.4791 99.7765 60.683 101.464 62.5012 101.714C67.0575 102.339 71.6164 102.931 76.1767 103.523C76.6561 103.585 77.1354 103.647 77.6148 103.709C78.5942 103.838 79.4638 103.529 80.1867 102.866C81.2023 101.937 81.5564 100.764 81.202 99.4427C80.8366 98.0901 79.9379 97.2008 78.539 96.9951C76.7579 96.7334 74.9736 96.5045 73.1889 96.2755Z" fill="#17BF98"/>
<path d="M50.6526 51.1325L50.341 51.0915L50.6526 51.1325ZM44.0727 101.14L44.3843 101.181L44.0727 101.14ZM57.6013 118.768L57.6423 118.456L57.6013 118.768ZM91.3758 123.212L91.3348 123.524L91.3758 123.212ZM109.004 109.683L108.692 109.642L109.004 109.683ZM115.584 59.6761L115.896 59.7171L115.584 59.6761ZM73.0935 65.3124L73.2905 65.5573L73.2906 65.5572L73.0935 65.3124ZM73.0801 65.3232L73.2771 65.5681L73.2771 65.5681L73.0801 65.3232ZM76.9047 62.2454L77.1031 62.0016L76.9059 61.8411L76.7078 62.0005L76.9047 62.2454ZM77.1535 62.4463L76.9565 62.6912L76.9581 62.6924L77.1535 62.4463ZM77.1536 62.4464L77.3506 62.2015L77.349 62.2003L77.1536 62.4464ZM77.5546 62.7736L77.7573 62.5335L77.7568 62.533L77.5546 62.7736ZM81.1896 65.8446L81.3925 65.6047L81.3924 65.6046L81.1896 65.8446ZM81.1904 65.8453L80.9875 66.0852L80.9876 66.0853L81.1904 65.8453ZM86.2209 70.093L86.4234 69.8527L86.4234 69.8527L86.2209 70.093ZM91.1756 70.0732L90.9707 69.835L90.9707 69.835L91.1756 70.0732ZM96.6427 65.3625L96.8479 65.6005L96.8479 65.6005L96.6427 65.3625ZM96.6509 65.3554L96.8562 65.5934L96.8562 65.5934L96.6509 65.3554ZM96.6573 65.3499L96.4521 65.1119L96.452 65.112L96.6573 65.3499ZM96.9378 65.1081L97.143 65.3461L97.1431 65.346L96.9378 65.1081ZM98.8402 63.4737L98.6371 63.234L98.6357 63.2351L98.8402 63.4737ZM98.8409 63.4731L98.638 63.2332L98.6378 63.2334L98.8409 63.4731ZM98.8411 63.4729L99.0441 63.7129L99.0457 63.7115L98.8411 63.4729ZM103.238 59.6608L103.03 59.4256L103.03 59.4257L103.238 59.6608ZM102.438 53.9056L102.315 54.1947L102.315 54.1948L102.438 53.9056ZM98.7955 54.5148L98.5902 54.2769L98.5901 54.277L98.7955 54.5148ZM91.1533 61.103L91.3582 61.3412L91.3584 61.3411L91.1533 61.103ZM89.652 62.3885L89.4479 62.1496L89.4479 62.1496L89.652 62.3885ZM88.6728 63.2258L88.4702 63.466L88.6744 63.6382L88.8773 63.4644L88.6728 63.2258ZM85.6541 60.6781L85.8568 60.438L85.8568 60.438L85.6541 60.6781ZM85.6398 60.6661L85.4371 60.9062L85.4371 60.9062L85.6398 60.6661ZM85.6374 60.664L85.4347 60.9042L85.4347 60.9042L85.6374 60.664ZM79.3906 55.3977L79.1882 55.6381L79.1884 55.6383L79.3906 55.3977ZM74.6211 55.3317L74.8181 55.5766L74.8182 55.5765L74.6211 55.3317ZM63.1599 64.5857L62.9621 64.3416L62.962 64.3417L63.1599 64.5857ZM62.5104 69.4893L62.7555 69.2927L62.7555 69.2926L62.5104 69.4893ZM67.3525 69.9342L67.1598 69.6859L67.1597 69.686L67.3525 69.9342ZM69.2886 68.3815L69.0906 68.1375L69.0901 68.138L69.2886 68.3815ZM69.2887 68.3814L69.4867 68.6255L69.4873 68.625L69.2887 68.3814ZM70.2204 67.6248L70.0234 67.38L70.0232 67.3802L70.2204 67.6248ZM73.0741 65.3281L72.8771 65.0833L72.877 65.0833L73.0741 65.3281ZM85.1221 81.3538L85.0814 81.6654L85.0814 81.6654L85.1221 81.3538ZM95.5912 82.7408L95.6338 82.4295L95.6337 82.4294L95.5912 82.7408ZM98.2417 87.7806L97.9655 87.6307L97.9654 87.6308L98.2417 87.7806ZM94.5853 89.5046L94.6251 89.1928L94.6247 89.1928L94.5853 89.5046ZM89.0996 88.7885L89.1409 88.477L89.1406 88.4769L89.0996 88.7885ZM89.0994 88.7885L89.0581 89.1L89.0584 89.1L89.0994 88.7885ZM80.6689 87.6785L80.6279 87.9901L80.628 87.9901L80.6689 87.6785ZM80.6687 87.6785L80.7097 87.3669L80.7097 87.3669L80.6687 87.6785ZM65.0614 85.622L65.1026 85.3105L65.1024 85.3104L65.0614 85.622ZM61.835 81.8088L61.523 81.7718L61.523 81.7718L61.835 81.8088ZM65.8293 78.8226L65.789 79.1343L65.7891 79.1343L65.8293 78.8226ZM76.4592 80.2156L76.4181 80.5271L76.4182 80.5271L76.4592 80.2156ZM76.4596 80.2156L76.5007 79.9041L76.5006 79.904L76.4596 80.2156ZM70.9431 95.9849L70.7509 95.7363L70.1537 96.198L70.9021 96.2965L70.9431 95.9849ZM73.1889 96.2755L73.1489 96.5872L73.1489 96.5872L73.1889 96.2755ZM70.9455 95.983L71.1377 96.2317L71.7349 95.77L70.9865 95.6715L70.9455 95.983ZM68.6815 95.6786L68.7239 95.3672L68.7239 95.3672L68.6815 95.6786ZM63.3486 94.9964L63.3836 94.6841L63.3835 94.6841L63.3486 94.9964ZM59.7154 97.9481L60.0271 97.9883L60.0271 97.988L59.7154 97.9481ZM62.5012 101.714L62.4584 102.025L62.4585 102.025L62.5012 101.714ZM76.1767 103.523L76.1363 103.834L76.1363 103.834L76.1767 103.523ZM77.6148 103.709L77.6558 103.398L77.6552 103.398L77.6148 103.709ZM80.1867 102.866L79.9746 102.634L79.9743 102.635L80.1867 102.866ZM81.202 99.4427L81.5055 99.3612L81.5053 99.3607L81.202 99.4427ZM78.539 96.9951L78.5847 96.6842L78.5847 96.6842L78.539 96.9951ZM50.9642 51.1735C52.0736 42.7418 59.8082 36.806 68.2398 37.9154L68.3218 37.2923C59.546 36.1376 51.4957 42.3157 50.341 51.0915L50.9642 51.1735ZM44.3843 101.181L50.9642 51.1735L50.341 51.0915L43.7611 101.099L44.3843 101.181ZM57.6423 118.456C49.2107 117.347 43.2748 109.613 44.3843 101.181L43.7611 101.099C42.6064 109.875 48.7845 117.925 57.5603 119.08L57.6423 118.456ZM91.4168 122.901L57.6423 118.456L57.5603 119.08L91.3348 123.524L91.4168 122.901ZM108.692 109.642C107.583 118.074 99.8485 124.01 91.4168 122.901L91.3348 123.524C100.111 124.678 108.161 118.5 109.316 109.724L108.692 109.642ZM115.272 59.6351L108.692 109.642L109.316 109.724L115.896 59.7171L115.272 59.6351ZM102.014 42.3595C110.446 43.4689 116.382 51.2034 115.272 59.6351L115.896 59.7171C117.05 50.9413 110.872 42.891 102.096 41.7363L102.014 42.3595ZM68.2398 37.9154L102.014 42.3595L102.096 41.7363L68.3218 37.2923L68.2398 37.9154ZM72.8965 65.0676L72.8831 65.0784L73.2771 65.5681L73.2905 65.5573L72.8965 65.0676ZM76.7078 62.0005C75.4323 63.0263 74.163 64.0481 72.8965 65.0677L73.2906 65.5572C74.5571 64.5377 75.8264 63.516 77.1017 62.4902L76.7078 62.0005ZM77.3505 62.2015C77.2709 62.1374 77.189 62.0716 77.1031 62.0016L76.7063 62.4891C76.7939 62.5603 76.8771 62.6273 76.9565 62.6912L77.3505 62.2015ZM77.349 62.2003L77.349 62.2003L76.9581 62.6924L76.9581 62.6925L77.349 62.2003ZM77.7568 62.533C77.6252 62.4225 77.4911 62.3145 77.3506 62.2015L76.9566 62.6912C77.0981 62.8051 77.2269 62.9087 77.3524 63.0142L77.7568 62.533ZM81.3924 65.6046C80.1811 64.5806 78.9696 63.5565 77.7573 62.5335L77.352 63.0138C78.5641 64.0366 79.7753 65.0605 80.9867 66.0846L81.3924 65.6046ZM81.3934 65.6054L81.3925 65.6047L80.9866 66.0845L80.9875 66.0852L81.3934 65.6054ZM86.4234 69.8527C84.7451 68.4387 83.0693 67.0221 81.3933 65.6053L80.9876 66.0853C82.6635 67.502 84.3397 68.9189 86.0184 70.3333L86.4234 69.8527ZM90.9707 69.835C90.1883 70.5081 89.4351 70.8212 88.7053 70.8245C87.9754 70.8278 87.2169 70.5213 86.4234 69.8527L86.0184 70.3333C86.8893 71.0672 87.7872 71.4571 88.7081 71.453C89.6291 71.4489 90.5211 71.0508 91.3805 70.3115L90.9707 69.835ZM96.4375 65.1246C94.6151 66.696 92.7948 68.2658 90.9707 69.835L91.3805 70.3115C93.205 68.742 95.0256 67.172 96.8479 65.6005L96.4375 65.1246ZM96.4457 65.1175L96.4375 65.1246L96.8479 65.6005L96.8562 65.5934L96.4457 65.1175ZM96.452 65.112L96.4456 65.1175L96.8562 65.5934L96.8626 65.5878L96.452 65.112ZM96.7326 64.8701L96.4521 65.1119L96.8626 65.5879L97.143 65.3461L96.7326 64.8701ZM98.6357 63.2351C98.0011 63.7792 97.366 64.3236 96.7325 64.8701L97.1431 65.346C97.7757 64.8003 98.41 64.2564 99.0448 63.7123L98.6357 63.2351ZM98.6378 63.2334L98.6371 63.234L99.0434 63.7135L99.0441 63.7129L98.6378 63.2334ZM98.6382 63.233L98.638 63.2332L99.0439 63.713L99.0441 63.7129L98.6382 63.233ZM103.03 59.4257C101.581 60.7103 100.11 61.9712 98.6366 63.2344L99.0457 63.7115C100.518 62.4489 101.993 61.1846 103.447 59.8959L103.03 59.4257ZM102.315 54.1948C104.425 55.092 104.835 57.8253 103.03 59.4256L103.446 59.8959C105.57 58.0133 105.129 54.7083 102.561 53.6164L102.315 54.1948ZM99.0008 54.7528C99.5128 54.3111 100.044 54.0489 100.588 53.956C101.131 53.8633 101.707 53.9356 102.315 54.1947L102.561 53.6165C101.856 53.3162 101.158 53.2209 100.482 53.3365C99.8065 53.4519 99.1731 53.7741 98.5902 54.2769L99.0008 54.7528ZM91.3584 61.3411C93.9062 59.1472 96.4545 56.9512 99.0009 54.7527L98.5901 54.277C96.044 56.4752 93.496 58.6711 90.9482 60.8649L91.3584 61.3411ZM89.8561 62.6274C90.3586 62.1981 90.8595 61.7703 91.3582 61.3412L90.9484 60.8648C90.4506 61.293 89.9505 61.7201 89.4479 62.1496L89.8561 62.6274ZM88.8773 63.4644C89.2043 63.1842 89.5306 62.9055 89.8561 62.6274L89.4479 62.1496C89.1224 62.4276 88.7958 62.7066 88.4684 62.9871L88.8773 63.4644ZM85.4514 60.9183C86.4522 61.7632 87.4576 62.612 88.4702 63.466L88.8754 62.9856C87.863 62.1316 86.8576 61.2829 85.8568 60.438L85.4514 60.9183ZM85.4371 60.9062L85.4514 60.9183L85.8568 60.438L85.8425 60.4259L85.4371 60.9062ZM85.4347 60.9042L85.4371 60.9062L85.8425 60.4259L85.8401 60.4239L85.4347 60.9042ZM79.1884 55.6383C81.266 57.3849 83.3402 59.136 85.4347 60.9042L85.8401 60.4239C83.7457 58.6558 81.6711 56.9043 79.5928 55.1572L79.1884 55.6383ZM74.8182 55.5765C75.5805 54.9626 76.3084 54.685 77.0099 54.6952C77.7118 54.7055 78.4357 55.0047 79.1882 55.6381L79.5929 55.1573C78.764 54.4595 77.9053 54.0797 77.0191 54.0668C76.1324 54.0538 75.2662 54.4087 74.424 55.0869L74.8182 55.5765ZM63.3578 64.8299C67.1724 61.7382 70.9925 58.6538 74.8181 55.5766L74.4241 55.0868C70.5979 58.1646 66.7773 61.2495 62.9621 64.3416L63.3578 64.8299ZM62.7555 69.2926C61.6492 67.9145 61.8728 66.0344 63.3579 64.8298L62.962 64.3417C61.2304 65.7462 60.9251 68.0166 62.2654 69.6861L62.7555 69.2926ZM67.1597 69.686C65.6813 70.8343 63.8367 70.6402 62.7555 69.2927L62.2653 69.686C63.5788 71.323 65.8184 71.5237 67.5452 70.1824L67.1597 69.686ZM69.0901 68.138C68.4479 68.6614 67.8093 69.1819 67.1598 69.6859L67.5451 70.1825C68.2016 69.6731 68.846 69.1478 69.4872 68.6251L69.0901 68.138ZM69.0907 68.1374L69.0906 68.1375L69.4866 68.6256L69.4867 68.6255L69.0907 68.1374ZM70.0232 67.3802C69.711 67.6318 69.4001 67.8852 69.0902 68.1379L69.4873 68.625C69.7975 68.3722 70.1069 68.1199 70.4176 67.8695L70.0232 67.3802ZM72.877 65.0833C71.9248 65.8498 70.9741 66.6151 70.0234 67.38L70.4174 67.8697C71.3681 67.1047 72.3189 66.3394 73.2711 65.5729L72.877 65.0833ZM72.8831 65.0784L72.8771 65.0833L73.2711 65.5729L73.2771 65.5681L72.8831 65.0784ZM85.1628 81.0422C83.6927 80.8503 82.2227 80.6584 80.753 80.465L80.671 81.0881C82.1411 81.2815 83.6114 81.4735 85.0814 81.6654L85.1628 81.0422ZM95.6337 82.4294C92.1455 81.9537 88.6537 81.4979 85.1628 81.0422L85.0814 81.6654C88.5727 82.1212 92.0626 82.5768 95.5487 83.0522L95.6337 82.4294ZM98.5179 87.9304C99.7923 85.5822 98.3398 82.7995 95.6338 82.4295L95.5486 83.0522C97.838 83.3653 99.0212 85.6853 97.9655 87.6307L98.5179 87.9304ZM94.5455 89.8163C96.2889 90.0388 97.7484 89.3499 98.5179 87.9303L97.9654 87.6308C97.334 88.7957 96.1426 89.3865 94.6251 89.1928L94.5455 89.8163ZM89.0584 89.1C90.8863 89.3423 92.7158 89.5848 94.5458 89.8163L94.6247 89.1928C92.7969 88.9615 90.9692 88.7193 89.1409 88.477L89.0584 89.1ZM89.0584 89.1L89.0586 89.1001L89.1406 88.4769L89.1404 88.4769L89.0584 89.1ZM86.8662 88.8102C87.5967 88.9063 88.3273 89.0031 89.0581 89.1L89.1407 88.4769C88.4099 88.3801 87.679 88.2832 86.9482 88.187L86.8662 88.8102ZM80.628 87.9901C82.7073 88.2633 84.7867 88.5366 86.8662 88.8102L86.9482 88.187C84.8686 87.9134 82.7892 87.6402 80.7099 87.3669L80.628 87.9901ZM80.6277 87.99L80.6279 87.9901L80.7099 87.3669L80.7097 87.3669L80.6277 87.99ZM65.0201 85.9335C70.2228 86.6227 75.4252 87.3064 80.6278 87.99L80.7097 87.3669C75.507 86.6832 70.305 85.9996 65.1026 85.3105L65.0201 85.9335ZM61.523 81.7718C61.3968 82.8368 61.6869 83.8071 62.3123 84.5492C62.9362 85.2895 63.8766 85.7831 65.0204 85.9336L65.1024 85.3104C64.0908 85.1773 63.3016 84.7478 62.7929 84.1442C62.2857 83.5424 62.0402 82.7479 62.1471 81.8458L61.523 81.7718ZM65.8697 78.511C63.6143 78.2189 61.7812 79.5951 61.523 81.7718L62.1471 81.8458C62.3617 80.0373 63.8593 78.8843 65.789 79.1343L65.8697 78.511ZM76.5004 79.904C72.9581 79.4362 69.4146 78.9681 65.8695 78.5109L65.7891 79.1343C69.3331 79.5913 72.8757 80.0592 76.4181 80.5271L76.5004 79.904ZM76.5006 79.904L76.5002 79.904L76.4182 80.5271L76.4186 80.5272L76.5006 79.904ZM80.7509 80.4647C79.3343 80.2783 77.9176 80.0912 76.5007 79.9041L76.4184 80.5271C77.8353 80.7143 79.2521 80.9014 80.6689 81.0878L80.7509 80.4647ZM80.753 80.465L80.7509 80.4647L80.6689 81.0878L80.671 81.0881L80.753 80.465ZM70.9021 96.2965C71.6512 96.395 72.4004 96.4912 73.1489 96.5872L73.2289 95.9638C72.4802 95.8677 71.732 95.7717 70.9841 95.6733L70.9021 96.2965ZM70.7533 95.7344L70.7509 95.7363L71.1353 96.2335L71.1377 96.2317L70.7533 95.7344ZM68.6392 95.99C69.3937 96.0926 70.1489 96.1952 70.9045 96.2946L70.9865 95.6715C70.2325 95.5723 69.4786 95.4698 68.7239 95.3672L68.6392 95.99ZM63.3137 95.3087C65.0901 95.5077 66.8627 95.7486 68.6392 95.99L68.7239 95.3672C66.9486 95.126 65.1687 94.884 63.3836 94.6841L63.3137 95.3087ZM60.0271 97.988C60.2428 96.3037 61.6558 95.1236 63.3138 95.3087L63.3835 94.6841C61.359 94.4581 59.6597 95.9095 59.4037 97.9081L60.0271 97.988ZM62.5441 101.403C60.909 101.178 59.8113 99.6582 60.0271 97.9883L59.4038 97.9078C59.147 99.8948 60.457 101.75 62.4584 102.025L62.5441 101.403ZM76.2172 103.211C71.6567 102.619 67.0989 102.027 62.544 101.403L62.4585 102.025C67.0161 102.651 71.5762 103.242 76.1363 103.834L76.2172 103.211ZM77.6552 103.398C77.1759 103.335 76.6965 103.273 76.2172 103.211L76.1363 103.834C76.6156 103.896 77.0949 103.959 77.5743 104.021L77.6552 103.398ZM79.9743 102.635C79.3139 103.24 78.5353 103.513 77.6558 103.398L77.5738 104.021C78.6532 104.163 79.6137 103.818 80.3991 103.098L79.9743 102.635ZM80.8984 99.5241C81.2218 100.729 80.9057 101.783 79.9746 102.634L80.3988 103.098C81.4989 102.092 81.8911 100.798 81.5055 99.3612L80.8984 99.5241ZM78.4933 97.3061C79.7555 97.4916 80.5623 98.2799 80.8986 99.5246L81.5053 99.3607C81.1109 97.9003 80.1202 96.91 78.5847 96.6842L78.4933 97.3061ZM73.1489 96.5872C74.9341 96.8162 76.7156 97.0448 78.4933 97.3061L78.5847 96.6842C76.8003 96.422 75.0131 96.1927 73.2289 95.9638L73.1489 96.5872Z" fill="#3ECAAA" mask="url(#path-1-inside-1_9098_469)"/>
<circle cx="80" cy="80" r="80" fill="url(#paint0_radial_9098_469)" fill-opacity="0.08"/>
<g clip-path="url(#clip0_9098_469)">
<g clip-path="url(#clip1_9098_469)">
<path d="M84.1202 123.666C83.8012 122.969 83.4224 122.224 83.1146 121.452C82.6078 120.177 83.0744 118.886 84.254 118.167C85.8413 117.199 86.4788 115.424 85.8418 113.687C85.5633 112.925 85.0599 112.332 84.3739 111.893C82.9489 110.982 82.5749 109.791 83.2253 108.238C83.8129 106.834 84.5744 105.53 85.5069 104.327C86.4522 103.106 87.7201 102.826 89.0926 103.543C91.3206 104.705 93.9261 103.536 94.4543 101.127C94.5166 100.844 94.5308 100.546 94.547 100.254C94.6189 98.9083 95.5102 97.9045 96.8399 97.7053C98.5107 97.4549 100.186 97.4564 101.856 97.705C103.204 97.9054 104.075 98.9404 104.134 100.376C104.205 102.143 105.316 103.531 106.975 103.912C107.882 104.12 108.748 103.993 109.566 103.549C110.87 102.842 112.169 103.08 113.09 104.226C114.141 105.536 114.971 106.978 115.572 108.545C116.061 109.818 115.592 111.095 114.409 111.827C113.179 112.587 112.546 113.699 112.598 115.147C112.644 116.404 113.211 117.426 114.293 118.065C115.626 118.853 116.124 120.311 115.44 121.796C114.813 123.156 114.097 124.454 113.181 125.641C112.224 126.879 110.959 127.158 109.566 126.432C107.367 125.286 104.789 126.428 104.233 128.802C104.164 129.097 104.144 129.406 104.128 129.71C104.059 131.062 103.181 132.069 101.852 132.273C100.169 132.531 98.4834 132.528 96.8009 132.275C95.504 132.079 94.6045 131.063 94.5548 129.729C94.4993 128.249 93.8937 127.098 92.5703 126.397C91.4442 125.8 90.2834 125.821 89.1577 126.412C87.7311 127.16 86.4328 126.9 85.4623 125.607C85.0048 124.997 84.5925 124.354 84.1181 123.666L84.1202 123.666ZM102.028 119.428C104.49 117.88 105.277 114.696 103.786 112.313C102.235 109.837 99.0336 109.048 96.6456 110.552C94.1925 112.099 93.4045 115.287 94.885 117.671C96.4192 120.14 99.6351 120.931 102.028 119.427L102.028 119.428Z" fill="#215D58"/>
</g>
</g>
<defs>
<radialGradient id="paint0_radial_9098_469" cx="0" cy="0" r="1" gradientUnits="userSpaceOnUse" gradientTransform="translate(80.6504 80) rotate(54.0218) scale(83.5874)">
<stop stop-color="#17ABBF" stop-opacity="0.19"/>
<stop offset="0.140625" stop-color="#17ABBF" stop-opacity="0.171522"/>
<stop offset="0.494792" stop-color="white" stop-opacity="0.302113"/>
<stop offset="1" stop-color="#17ABBF" stop-opacity="0.85"/>
</radialGradient>
<clipPath id="clip0_9098_469">
<rect width="40" height="40" fill="white" transform="translate(106.643 87.6797) rotate(60)"/>
</clipPath>
<clipPath id="clip1_9098_469">
<rect width="40" height="40" fill="white" transform="translate(106.643 87.6797) rotate(60)"/>
</clipPath>
</defs>
</svg>
