<svg width="24" height="24" viewBox="0 0 24 24" fill="none" xmlns="http://www.w3.org/2000/svg">
<rect width="24" height="24" rx="12" fill="#17BF98" fill-opacity="0.16"/>
<path d="M16 16.6666H8C7.63334 16.6666 7.33334 16.3666 7.33334 16V8C7.33334 7.63334 7.63334 7.33334 8 7.33334H11.3333C11.7 7.33334 12 7.03334 12 6.66666C12 6.3 11.7 6 11.3333 6H7.33334C6.59334 6 6 6.6 6 7.33334V16.6666C6 17.4 6.6 18 7.33334 18H16.6666C17.4 18 18 17.4 18 16.6666V12.6667C18 12.3 17.7 12 17.3334 12C16.9666 12 16.6666 12.3 16.6666 12.6667V16C16.6666 16.3666 16.3666 16.6666 16 16.6666ZM13.3333 6.66666C13.3333 7.03334 13.6333 7.33334 14 7.33334H15.7266L9.64 13.42C9.38 13.68 9.38 14.1 9.64 14.36C9.9 14.62 10.32 14.62 10.58 14.36L16.6666 8.27334V10C16.6666 10.3667 16.9666 10.6667 17.3334 10.6667C17.7 10.6667 18 10.3667 18 10V6.66666C18 6.3 17.7 6 17.3334 6H14C13.6333 6 13.3333 6.3 13.3333 6.66666Z" fill="#17BF98"/>
</svg>
