<svg width="24" height="24" viewBox="0 0 24 24" fill="none" xmlns="http://www.w3.org/2000/svg">
<rect width="24.0031" height="24.0008" rx="12.0004" fill="#17BF98" fill-opacity="0.16"/>
<path d="M18.0053 9.47666C18.0006 9.91305 17.702 10.6395 17.1008 11.2401C16.7599 11.581 16.4203 11.9231 16.0777 12.2626C15.7373 12.6001 15.2958 12.6244 14.9761 12.3262C14.6528 12.025 14.6464 11.5575 14.9796 11.2073C15.3311 10.8374 15.7061 10.4898 16.0551 10.1174C16.6422 9.49159 16.6085 8.54885 15.9912 7.95889C15.4293 7.42183 14.4595 7.40946 13.9015 7.95249C13.2159 8.62008 12.5388 9.29665 11.872 9.98258C11.3191 10.5508 11.3106 11.4073 11.8246 12.0131C11.9061 12.1095 11.9872 12.2119 12.0414 12.3245C12.1988 12.6504 12.1088 13.0394 11.8421 13.2468C11.5533 13.4716 11.1634 13.4805 10.8826 13.2327C10.3754 12.7856 10.0793 12.2114 9.96879 11.5485C9.79302 10.4919 10.116 9.58842 10.8566 8.83167C11.4961 8.17816 12.1476 7.53573 12.7952 6.89031C13.6958 5.99365 14.9727 5.75605 16.1733 6.26069C17.2791 6.72523 18.0087 7.84073 18.0053 9.47666Z" fill="#17BF98"/>
<path d="M14.0842 13.1447C14.0799 13.8212 13.7805 14.5482 13.1806 15.1496C12.5296 15.8022 11.8781 16.4541 11.2254 17.105C10.3294 17.9988 8.9915 18.25 7.84727 17.7398C6.66209 17.2117 5.9287 16.0403 6.0055 14.77C6.05115 14.0145 6.33358 13.3537 6.86687 12.8098C7.22908 12.4404 7.59215 12.071 7.96417 11.711C8.29609 11.3898 8.76496 11.3923 9.06702 11.7029C9.35756 12.0019 9.35243 12.4588 9.03544 12.7936C8.70396 13.1434 8.35411 13.4753 8.01664 13.82C7.55631 14.2897 7.42363 14.8464 7.6442 15.4627C7.8622 16.0714 8.32979 16.3858 8.96335 16.44C9.41514 16.4788 9.82088 16.3372 10.1468 16.0168C10.7991 15.3756 11.4489 14.7316 12.0889 14.0785C12.707 13.4476 12.7224 12.6017 12.146 11.9332C11.7215 11.4414 11.8542 10.8058 12.4221 10.6245C12.7215 10.5289 12.9801 10.6164 13.2015 10.8284C13.7506 11.3535 14.0821 12.161 14.0842 13.1447Z" fill="#17BF98"/>
</svg>
