<svg width="16" height="16" viewBox="0 0 16 16" fill="none" xmlns="http://www.w3.org/2000/svg">
<path d="M14.0002 5.47676C13.9955 5.91316 13.6967 6.63964 13.0952 7.24028C12.7541 7.58112 12.4143 7.92325 12.0715 8.26281C11.7309 8.60025 11.2891 8.62456 10.9693 8.32638C10.6458 8.0252 10.6394 7.55766 10.9728 7.20743C11.3245 6.83758 11.6997 6.48991 12.0489 6.11749C12.6363 5.49169 12.6026 4.54892 11.9849 3.95895C11.4227 3.42187 10.4524 3.4095 9.89403 3.95255C9.20803 4.62016 8.53058 5.29674 7.86336 5.98269C7.31013 6.55091 7.30159 7.4075 7.81598 8.01326C7.89751 8.10967 7.97862 8.21205 8.03283 8.32467C8.19035 8.65058 8.10028 9.03963 7.83348 9.24696C7.54448 9.47177 7.15432 9.48073 6.87343 9.23288C6.36587 8.78581 6.06961 8.21162 5.95905 7.5487C5.78318 6.49204 6.10633 5.58852 6.84739 4.83175C7.48728 4.17822 8.13913 3.53577 8.78713 2.89034C9.68827 1.99365 10.9659 1.75604 12.1672 2.2607C13.2736 2.72525 14.0036 3.84078 14.0002 5.47676Z" fill="#454B4D"/>
<path d="M10.0889 9.14379C10.0846 9.82036 9.78496 10.5473 9.18477 11.1488C8.53335 11.8014 7.8815 12.4533 7.22838 13.1042C6.33193 13.998 4.99323 14.2492 3.84834 13.739C2.66247 13.2109 1.92866 12.0395 2.0055 10.7691C2.05118 10.0136 2.33377 9.35281 2.86737 8.80891C3.22979 8.43949 3.59307 8.07006 3.96531 7.71002C4.29742 7.3888 4.76656 7.39135 5.06879 7.70191C5.3595 8.00095 5.35437 8.45783 5.0372 8.7927C4.70552 9.14251 4.35547 9.47439 4.01781 9.81908C3.55721 10.2888 3.42445 10.8455 3.64515 11.4619C3.86328 12.0706 4.33114 12.385 4.96506 12.4392C5.41712 12.478 5.82309 12.3364 6.14922 12.016C6.80192 11.3748 7.45206 10.7307 8.09238 10.0776C8.71093 9.44666 8.7263 8.60074 8.14958 7.93227C7.72484 7.44041 7.8576 6.80479 8.42577 6.62349C8.72544 6.52794 8.98413 6.61539 9.20568 6.8274C9.75508 7.35253 10.0868 8.15964 10.0889 9.14336V9.14379Z" fill="#454B4D"/>
</svg>
