<svg width="15" height="16" viewBox="0 0 15 16" fill="none" xmlns="http://www.w3.org/2000/svg">
<g id="Layer_1" clip-path="url(#clip0_413_1870)">
<path id="Vector" d="M1.34782 0H10.005C10.0165 0.0161897 10.0236 0.0336747 10.0262 0.0531024C10.071 1.14429 10.0345 2.23548 10.0467 3.32667C10.048 3.4251 10.0428 3.52418 10.0621 3.62197C10.1576 4.11738 10.5116 4.41786 11.0215 4.42045C11.9636 4.42563 12.9057 4.42174 13.8478 4.42239C14.0376 4.42239 14.2281 4.4185 14.4173 4.44376C14.4769 4.4729 14.4885 4.52795 14.4929 4.58688C14.4987 4.65423 14.4987 4.72222 14.4987 4.78957C14.4987 8.1551 14.4987 11.52 14.5 14.8855C14.5 15.1381 14.4468 15.3692 14.314 15.5823C14.1287 15.8795 13.851 15.9948 13.5162 15.9994C13.4854 15.9994 13.4546 15.9994 13.4232 15.9994C9.47206 15.9994 5.52153 15.9994 1.57036 15.9981C1.35488 15.9981 1.13683 15.9909 0.949565 15.8536C0.673156 15.6509 0.53399 15.3725 0.504489 15.0344C0.498717 14.9671 0.501283 14.8991 0.501283 14.8317C0.501924 10.2708 0.502565 5.70915 0.5 1.14753C0.5 0.885903 0.536555 0.639819 0.678287 0.417048C0.814888 0.202048 0.992533 0.047274 1.25868 0.0265512C1.28882 0.0239608 1.32025 0.0174849 1.34718 0H1.34782Z" fill="#E1574C"/>
<path id="Vector_2" d="M11.2574 12.4324C10.8066 12.4349 10.4252 12.2364 10.1074 11.9233C9.79124 11.6121 9.50287 11.2678 9.21508 10.9266C9.12666 10.8212 9.05038 10.7833 8.92035 10.8157C7.87031 11.0798 6.81854 11.3395 5.76676 11.5962C5.63847 11.6274 5.56276 11.6912 5.49804 11.821C5.26919 12.2799 5.04439 12.7448 4.76989 13.1725C4.60808 13.4248 4.37865 13.646 4.1394 13.82C3.76146 14.095 3.23268 14.0417 2.88363 13.7495C2.56059 13.4794 2.42247 12.9856 2.54325 12.5219C2.67674 12.0097 3.0021 11.6618 3.4517 11.4853C3.9354 11.296 4.44453 11.1809 4.93979 11.0234C5.02937 10.9952 5.13512 10.9419 5.18424 10.8647C5.81415 9.87721 6.43423 8.88234 7.0601 7.89236C7.13754 7.76983 7.13118 7.67672 7.06125 7.54378C6.75901 6.96854 6.48162 6.37614 6.39667 5.71452C6.36489 5.46948 6.37182 5.20667 6.41979 4.9653C6.5215 4.45316 6.98208 4.04822 7.46 4.0035C7.86973 3.96491 8.27888 4.24793 8.49791 4.72577C8.71924 5.20851 8.69959 5.71391 8.55801 6.20461C8.43029 6.64814 8.24941 7.07575 8.07893 7.50396C8.02865 7.62955 8.02172 7.72082 8.09511 7.84028C8.48924 8.48046 8.87701 9.12554 9.26131 9.77246C9.32372 9.87722 9.3844 9.90907 9.50518 9.89314C10.1062 9.81473 10.7101 9.75469 11.3128 9.8766C11.9433 10.004 12.3791 10.4096 12.4762 10.9536C12.6224 11.7739 12.0815 12.4306 11.2574 12.4318V12.4324ZM7.59292 8.44493C7.13985 9.18987 6.707 9.90295 6.24873 10.6565C7.04623 10.45 7.79172 10.257 8.56148 10.0579C8.2315 9.50842 7.91885 8.98832 7.59292 8.44554V8.44493ZM10.0501 10.6338C10.3189 10.9309 10.565 11.2188 10.8274 11.489C11.0095 11.6765 11.24 11.6893 11.4747 11.6115C11.629 11.5607 11.7677 11.4596 11.759 11.2807C11.752 11.1343 11.696 10.9707 11.6122 10.8556C11.5452 10.7637 11.4088 10.7128 11.2938 10.6797C10.8869 10.5633 10.4737 10.5462 10.0501 10.6338ZM7.54669 6.78721C7.75589 6.31672 7.95295 5.89586 7.92694 5.40516C7.90903 5.06087 7.71081 4.77723 7.4941 4.78519C7.2641 4.79377 7.09708 5.06638 7.1046 5.42721C7.11442 5.91607 7.34385 6.32101 7.54669 6.78721ZM4.43355 12.1175C4.41795 12.0906 4.40235 12.0636 4.38674 12.0367C4.09433 12.1451 3.79093 12.2296 3.51412 12.3724C3.39854 12.4318 3.31301 12.6033 3.261 12.7436C3.1957 12.9201 3.24366 13.0959 3.41703 13.1908C3.5904 13.2864 3.75163 13.2276 3.8545 13.0708C4.05792 12.7608 4.24169 12.4355 4.43355 12.1163V12.1175Z" fill="white"/>
<path id="Vector_3" d="M9.99858 0.0324097C10.8272 0.86521 11.657 1.69736 12.485 2.53081C13.1231 3.17322 13.7586 3.81887 14.3955 4.46257C14.3429 4.5092 14.2781 4.49495 14.2178 4.49495C13.1513 4.4956 12.0848 4.49625 11.0183 4.49495C10.4033 4.4943 9.9755 4.0643 9.97485 3.44585C9.97293 2.36373 9.97485 1.28161 9.97485 0.199488C9.97485 0.143147 9.96588 0.0842168 9.99922 0.0324097H9.99858Z" fill="#B43629"/>
</g>
<defs>
<clipPath id="clip0_413_1870">
<rect width="14" height="16" fill="white" transform="translate(0.5)"/>
</clipPath>
</defs>
</svg>
