<svg width="29" height="27" viewBox="0 0 29 27" fill="none" xmlns="http://www.w3.org/2000/svg">
<rect x="0.5" y="0.5" width="28" height="26" rx="3.5" fill="white"/>
<rect x="0.5" y="0.5" width="28" height="26" rx="3.5" stroke="#A5A5A5"/>
<g clip-path="url(#clip0_1803_7095)">
<path d="M8.34782 5H17.005C17.0165 5.01619 17.0236 5.03367 17.0262 5.0531C17.071 6.14429 17.0345 7.23548 17.0467 8.32667C17.048 8.4251 17.0428 8.52418 17.0621 8.62197C17.1576 9.11738 17.5116 9.41786 18.0215 9.42045C18.9636 9.42563 19.9057 9.42174 20.8478 9.42239C21.0376 9.42239 21.2281 9.4185 21.4173 9.44376C21.4769 9.4729 21.4885 9.52795 21.4929 9.58688C21.4987 9.65423 21.4987 9.72222 21.4987 9.78957C21.4987 13.1551 21.4987 16.52 21.5 19.8855C21.5 20.1381 21.4468 20.3692 21.314 20.5823C21.1287 20.8795 20.851 20.9948 20.5162 20.9994C20.4854 20.9994 20.4546 20.9994 20.4232 20.9994C16.4721 20.9994 12.5215 20.9994 8.57036 20.9981C8.35488 20.9981 8.13683 20.9909 7.94956 20.8536C7.67316 20.6509 7.53399 20.3725 7.50449 20.0344C7.49872 19.9671 7.50128 19.8991 7.50128 19.8317C7.50192 15.2708 7.50257 10.7092 7.5 6.14753C7.5 5.8859 7.53656 5.63982 7.67829 5.41705C7.81489 5.20205 7.99253 5.04727 8.25868 5.02655C8.28882 5.02396 8.32025 5.01748 8.34718 5H8.34782Z" fill="#E1574C"/>
<path d="M18.2574 17.4324C17.8066 17.4349 17.4252 17.2364 17.1074 16.9233C16.7912 16.6121 16.5029 16.2678 16.2151 15.9266C16.1267 15.8212 16.0504 15.7833 15.9204 15.8157C14.8703 16.0798 13.8185 16.3395 12.7668 16.5962C12.6385 16.6274 12.5628 16.6912 12.498 16.821C12.2692 17.2799 12.0444 17.7448 11.7699 18.1725C11.6081 18.4248 11.3787 18.646 11.1394 18.82C10.7615 19.095 10.2327 19.0417 9.88363 18.7495C9.56059 18.4794 9.42247 17.9856 9.54325 17.5219C9.67674 17.0097 10.0021 16.6618 10.4517 16.4853C10.9354 16.296 11.4445 16.1809 11.9398 16.0234C12.0294 15.9952 12.1351 15.9419 12.1842 15.8647C12.8142 14.8772 13.4342 13.8823 14.0601 12.8924C14.1375 12.7698 14.1312 12.6767 14.0613 12.5438C13.759 11.9685 13.4816 11.3761 13.3967 10.7145C13.3649 10.4695 13.3718 10.2067 13.4198 9.9653C13.5215 9.45316 13.9821 9.04822 14.46 9.0035C14.8697 8.96491 15.2789 9.24793 15.4979 9.72577C15.7192 10.2085 15.6996 10.7139 15.558 11.2046C15.4303 11.6481 15.2494 12.0757 15.0789 12.504C15.0287 12.6295 15.0217 12.7208 15.0951 12.8403C15.4892 13.4805 15.877 14.1255 16.2613 14.7725C16.3237 14.8772 16.3844 14.9091 16.5052 14.8931C17.1062 14.8147 17.7101 14.7547 18.3128 14.8766C18.9433 15.004 19.3791 15.4096 19.4762 15.9536C19.6224 16.7739 19.0815 17.4306 18.2574 17.4318V17.4324ZM14.5929 13.4449C14.1398 14.1899 13.707 14.9029 13.2487 15.6565C14.0462 15.45 14.7917 15.257 15.5615 15.0579C15.2315 14.5084 14.9189 13.9883 14.5929 13.4455V13.4449ZM17.0501 15.6338C17.3189 15.9309 17.565 16.2188 17.8274 16.489C18.0095 16.6765 18.24 16.6893 18.4747 16.6115C18.629 16.5607 18.7677 16.4596 18.759 16.2807C18.752 16.1343 18.696 15.9707 18.6122 15.8556C18.5452 15.7637 18.4088 15.7128 18.2938 15.6797C17.8869 15.5633 17.4737 15.5462 17.0501 15.6338ZM14.5467 11.7872C14.7559 11.3167 14.9529 10.8959 14.9269 10.4052C14.909 10.0609 14.7108 9.77723 14.4941 9.78519C14.2641 9.79377 14.0971 10.0664 14.1046 10.4272C14.1144 10.9161 14.3438 11.321 14.5467 11.7872ZM11.4336 17.1175C11.4179 17.0906 11.4023 17.0636 11.3867 17.0367C11.0943 17.1451 10.7909 17.2296 10.5141 17.3724C10.3985 17.4318 10.313 17.6033 10.261 17.7436C10.1957 17.9201 10.2437 18.0959 10.417 18.1908C10.5904 18.2864 10.7516 18.2276 10.8545 18.0708C11.0579 17.7608 11.2417 17.4355 11.4336 17.1163V17.1175Z" fill="white"/>
<path d="M16.9985 5.03247C17.827 5.86527 18.6569 6.69742 19.4849 7.53087C20.123 8.17328 20.7585 8.81893 21.3953 9.46263C21.3428 9.50926 21.278 9.49501 21.2177 9.49501C20.1512 9.49566 19.0847 9.49631 18.0182 9.49501C17.4031 9.49436 16.9754 9.06436 16.9747 8.44592C16.9728 7.36379 16.9747 6.28167 16.9747 5.19955C16.9747 5.14321 16.9658 5.08428 16.9991 5.03247H16.9985Z" fill="#B43629"/>
</g>
<defs>
<clipPath id="clip0_1803_7095">
<rect width="14" height="16" fill="white" transform="translate(7.5 5)"/>
</clipPath>
</defs>
</svg>
