<svg width="27" height="27" viewBox="0 0 27 27" fill="none" xmlns="http://www.w3.org/2000/svg">
<g clip-path="url(#clip0_1761_9622)">
<g clip-path="url(#clip1_1761_9622)">
<path d="M2.95341 0H17.7943C17.8141 0.0273202 17.8262 0.056826 17.8306 0.0896102C17.9075 1.93099 17.8448 3.77237 17.8657 5.61375C17.8679 5.77986 17.8591 5.94706 17.8921 6.11207C18.0559 6.94807 18.6628 7.45513 19.5368 7.45951C21.1519 7.46825 22.7669 7.46169 24.3819 7.46278C24.7073 7.46278 25.0339 7.45623 25.3582 7.49885C25.4604 7.54802 25.4802 7.64091 25.4879 7.74036C25.4978 7.85401 25.4978 7.96875 25.4978 8.08241C25.4978 13.7617 25.4978 19.44 25.5 25.1193C25.5 25.5455 25.4087 25.9356 25.1812 26.2951C24.8634 26.7967 24.3874 26.9913 23.8135 26.9989C23.7607 26.9989 23.708 26.9989 23.6541 26.9989C16.8807 26.9989 10.1083 26.9989 3.33491 26.9967C2.96551 26.9967 2.59171 26.9847 2.27068 26.753C1.79684 26.411 1.55827 25.9411 1.5077 25.3706C1.4978 25.257 1.5022 25.1422 1.5022 25.0286C1.5033 17.3319 1.5044 9.63419 1.5 1.93646C1.5 1.49496 1.56267 1.07969 1.80563 0.703768C2.03981 0.340956 2.34434 0.079775 2.8006 0.0448051C2.85227 0.0404339 2.90614 0.0295058 2.95231 0H2.95341Z" fill="#E1574C"/>
<path d="M17.7833 0.0546875C19.2037 1.46004 20.6263 2.8643 22.0457 4.27074C23.1396 5.3548 24.2291 6.44433 25.3208 7.53058C25.2307 7.60927 25.1196 7.58523 25.0163 7.58523C23.188 7.58632 21.3596 7.58741 19.5313 7.58523C18.477 7.58413 17.7437 6.85851 17.7426 5.81488C17.7393 3.98879 17.7426 2.16271 17.7426 0.336632C17.7426 0.241558 17.7272 0.142112 17.7844 0.0546875H17.7833Z" fill="#B43629"/>
<path d="M6.00568 18.125V12.3068H8.30114C8.74242 12.3068 9.11837 12.3911 9.42898 12.5597C9.73958 12.7263 9.97633 12.9583 10.1392 13.2557C10.304 13.5511 10.3864 13.892 10.3864 14.2784C10.3864 14.6648 10.303 15.0057 10.1364 15.3011C9.9697 15.5966 9.72822 15.8267 9.41193 15.9915C9.09754 16.1562 8.71686 16.2386 8.26989 16.2386H6.80682V15.2528H8.07102C8.30777 15.2528 8.50284 15.2121 8.65625 15.1307C8.81155 15.0473 8.92708 14.9328 9.00284 14.7869C9.08049 14.6392 9.11932 14.4697 9.11932 14.2784C9.11932 14.0852 9.08049 13.9167 9.00284 13.7727C8.92708 13.6269 8.81155 13.5142 8.65625 13.4347C8.50095 13.3532 8.30398 13.3125 8.06534 13.3125H7.2358V18.125H6.00568ZM13.2479 18.125H11.1854V12.3068H13.2649C13.8501 12.3068 14.3539 12.4233 14.7763 12.6562C15.1986 12.8873 15.5234 13.2197 15.7507 13.6534C15.9799 14.0871 16.0945 14.6061 16.0945 15.2102C16.0945 15.8163 15.9799 16.3371 15.7507 16.7727C15.5234 17.2083 15.1967 17.5426 14.7706 17.7756C14.3464 18.0085 13.8388 18.125 13.2479 18.125ZM12.4155 17.071H13.1967C13.5604 17.071 13.8662 17.0066 14.1143 16.8778C14.3643 16.7472 14.5518 16.5455 14.6768 16.2727C14.8037 15.9981 14.8672 15.6439 14.8672 15.2102C14.8672 14.7803 14.8037 14.429 14.6768 14.1562C14.5518 13.8835 14.3653 13.6828 14.1172 13.554C13.8691 13.4252 13.5632 13.3608 13.1996 13.3608H12.4155V17.071ZM17.0057 18.125V12.3068H20.858V13.321H18.2358V14.7074H20.6023V15.7216H18.2358V18.125H17.0057Z" fill="white"/>
</g>
</g>
<defs>
<clipPath id="clip0_1761_9622">
<rect width="27" height="27" fill="white"/>
</clipPath>
<clipPath id="clip1_1761_9622">
<rect width="24" height="27" fill="white" transform="translate(1.5)"/>
</clipPath>
</defs>
</svg>
