<svg width="14" height="15" viewBox="0 0 14 15" fill="none" xmlns="http://www.w3.org/2000/svg">
<g id="system- search">
<path id="&#235;&#143;&#139;&#235;&#179;&#180;&#234;&#184;&#176;" d="M12.6188 14.2902L9.15098 10.7659C8.06898 11.6356 6.70193 12.0715 5.31615 11.9885C3.93037 11.9055 2.62511 11.3096 1.65467 10.3169C0.593066 9.22997 -0.000860929 7.77066 9.36699e-07 6.25133C0.000862802 4.73201 0.596445 3.27337 1.65928 2.18762C2.17942 1.65402 2.80103 1.22983 3.48754 0.940011C4.17405 0.650188 4.9116 0.500585 5.65679 0.500002C6.40197 0.499419 7.13975 0.647868 7.82671 0.936615C8.51368 1.22536 9.13595 1.64858 9.65693 2.18136C10.5971 3.14437 11.1743 4.40354 11.2901 5.74435C11.406 7.08517 11.0534 8.42467 10.2923 9.53466L13.7035 13.003C13.7969 13.0833 13.8717 13.1829 13.9229 13.2949C13.9741 13.4069 14.0004 13.5287 14 13.6519C14.0019 13.8747 13.9153 14.0892 13.7591 14.2482C13.603 14.4073 13.3901 14.4978 13.1673 14.5C12.9648 14.5 12.7695 14.4253 12.6188 14.2902ZM4.51577 1.93861C3.77046 2.14405 3.09272 2.5429 2.55127 3.09472C1.72611 3.93795 1.26373 5.07061 1.26305 6.25038C1.26237 7.43016 1.72345 8.56335 2.54765 9.40753C2.95235 9.82109 3.43563 10.1496 3.96909 10.3738C4.50255 10.5979 5.07544 10.7133 5.65409 10.7129C6.23274 10.7126 6.80549 10.5966 7.33869 10.3718C7.87189 10.147 8.35478 9.81794 8.75901 9.4039C9.58427 8.56066 10.0467 7.42792 10.0474 6.24807C10.0481 5.06822 9.58692 3.93496 8.76263 3.09076C8.35661 2.67797 7.87255 2.35005 7.33861 2.12607C6.80468 1.90209 6.23152 1.78653 5.6525 1.78611C5.26873 1.78606 4.88666 1.83723 4.51643 1.93828L4.51577 1.93861Z" fill="#555555"/>
</g>
</svg>
