<svg width="16" height="16" viewBox="0 0 16 16" fill="none" xmlns="http://www.w3.org/2000/svg">
<path d="M7.98997 14.3912C7.68853 14.363 7.38398 14.3472 7.08322 14.3031C6.58529 14.2305 6.26078 13.8475 6.24874 13.3451C6.23222 12.6634 5.79003 12.1393 5.12416 12.0216C4.83235 11.97 4.55259 12.0199 4.2883 12.1565C3.73221 12.4438 3.29105 12.344 2.91252 11.8461C2.58114 11.4101 2.31204 10.9387 2.10316 10.4325C1.88086 9.89462 2.0216 9.44658 2.51231 9.13412C3.27935 8.64582 3.38259 7.60968 2.72222 7.00369C2.64996 6.93762 2.56737 6.88153 2.48444 6.82888C2.03399 6.54051 1.88602 6.07216 2.08974 5.57595C2.30928 5.04119 2.59456 4.54463 2.94728 4.08661C3.28417 3.64923 3.75974 3.54324 4.24804 3.79927C4.8179 4.09831 5.45314 4.00608 5.87813 3.55942C6.11557 3.30959 6.23842 3.00917 6.24805 2.66506C6.26319 2.11585 6.57359 1.75246 7.11557 1.66884C7.7047 1.57765 8.29624 1.5773 8.88537 1.66712C9.42804 1.7497 9.73878 2.11516 9.7522 2.66402C9.767 3.26692 10.1727 3.78344 10.7556 3.9321C11.0843 4.01572 11.4102 3.99266 11.7037 3.82095C12.1923 3.53499 12.7505 3.64545 13.1022 4.14442C13.4222 4.599 13.7051 5.07113 13.9143 5.58661C14.1125 6.07526 13.9618 6.54291 13.5151 6.82716C12.6111 7.40252 12.6135 8.57699 13.5199 9.15373C13.9635 9.43591 14.1129 9.90804 13.9126 10.396C13.6985 10.9187 13.4219 11.4056 13.0802 11.8554C12.7123 12.3392 12.2646 12.4411 11.7236 12.163C11.0186 11.801 10.1803 12.0822 9.87333 12.7972C9.80382 12.9586 9.76562 13.1431 9.75702 13.3193C9.73121 13.8571 9.42322 14.2295 8.89087 14.3062C8.59424 14.3489 8.29349 14.3637 7.99032 14.3915L7.98997 14.3912ZM9.89535 7.94898C9.85612 6.88738 8.99204 6.05633 7.96554 6.09247C6.89878 6.12997 6.06326 6.99887 6.10283 8.0295C6.14344 9.08801 7.00821 9.92008 8.03333 9.88774C9.09459 9.85401 9.9332 8.98099 9.89501 7.94898H9.89535Z" fill="#454B4D"/>
</svg>
