<svg xmlns="http://www.w3.org/2000/svg" width="100" height="100" viewBox="0 0 100 100">
    <path data-name="패스 6978" d="M2058.631 1297.8a50 50 0 1 1-50-50 50 50 0 0 1 50 50z" transform="translate(-1958.631 -1247.797)" style="fill:#e1e1e1"/>
    <g data-name="그룹 2022">
        <path data-name="패스 6981" d="M2446.2 1246.638h-18.853a.561.561 0 0 1-.61-.61v-2.442a.561.561 0 0 1 .61-.61h6.449a.506.506 0 0 0 .573-.572v-3.169a.561.561 0 0 1 .61-.61h3.13a.591.591 0 0 1 .648.61v3.169a.506.506 0 0 0 .573.572h6.87a.562.562 0 0 1 .61.61v2.442a.561.561 0 0 1-.61.61zm-1.489 8.129c0 3.816-3.015 6.946-8.242 6.946-5.267 0-8.244-3.13-8.244-6.946 0-3.778 2.978-6.946 8.244-6.946 5.231 0 8.242 3.129 8.242 6.945zm-8.4 9.273v5.191a.506.506 0 0 0 .572.572h19.044a.562.562 0 0 1 .61.611v2.633a.563.563 0 0 1-.61.61h-18.356a3.55 3.55 0 0 1-2.176-.61l-2.67-1.909a2.606 2.606 0 0 1-.992-2.213v-4.885a.561.561 0 0 1 .609-.61h3.358a.561.561 0 0 1 .616.609zm4.045-9.273c0-1.756-1.336-3.4-3.931-3.4-2.556 0-3.854 1.641-3.854 3.4s1.3 3.4 3.854 3.4c2.6-.004 3.936-1.646 3.936-3.401zm11.792-14.577h3.206a.561.561 0 0 1 .61.61v24.119a.562.562 0 0 1-.61.611h-3.206a.562.562 0 0 1-.61-.611v-4.77a.506.506 0 0 0-.573-.572h-4.388a.562.562 0 0 1-.61-.61v-2.519a.592.592 0 0 1 .61-.649h4.388a.506.506 0 0 0 .573-.572v-2.519a.506.506 0 0 0-.573-.572h-4.388a.562.562 0 0 1-.61-.611V1249a.591.591 0 0 1 .61-.648h4.388a.506.506 0 0 0 .573-.573v-6.979a.561.561 0 0 1 .615-.611z" transform="translate(-2409.238 -1206.124)" style="fill:#fff"/>
        <path data-name="패스 6982" d="M2490.174 1243.052a.591.591 0 0 1 .611.649v2.595a.561.561 0 0 1-.611.611h-6.374a.507.507 0 0 0-.573.573v15.42a.506.506 0 0 0 .573.572l10.342-.076a.506.506 0 0 0 .572-.573v-21.027a.561.561 0 0 1 .611-.61h3.015a.561.561 0 0 1 .61.61v11.066a.507.507 0 0 0 .573.573h3.282a.507.507 0 0 0 .573-.573v-11.449a.56.56 0 0 1 .608-.61h3.054a.561.561 0 0 1 .61.61v32.628a.562.562 0 0 1-.61.611h-3.054a.561.561 0 0 1-.608-.611v-16.181a.506.506 0 0 0-.573-.572h-3.282a.506.506 0 0 0-.573.572v15.685a.561.561 0 0 1-.61.61h-3.015a.562.562 0 0 1-.611-.61v-6.6c0-.381-.191-.611-.572-.572l-7.861.84a18.717 18.717 0 0 1-2.1.152h-.078a3.544 3.544 0 0 1-2.174-.61l-2.022-1.6a2.607 2.607 0 0 1-.993-2.213v-19.272a.563.563 0 0 1 .61-.611z" transform="translate(-2423.905 -1206.736)" style="fill:#fff"/>
    </g>
</svg>
