<svg xmlns="http://www.w3.org/2000/svg" width="100" height="100" viewBox="0 0 100 100">
    <defs>
        <linearGradient id="qd1fg1h57a" x1="-.017" y1=".5" x2="1.007" y2=".5" gradientUnits="objectBoundingBox">
            <stop offset=".1" stop-color="#0064b6"/>
            <stop offset=".224" stop-color="#006abc"/>
            <stop offset=".396" stop-color="#007bce"/>
            <stop offset=".4" stop-color="#007ccf"/>
            <stop offset=".75" stop-color="#009e84"/>
            <stop offset="1" stop-color="#6dad19"/>
        </linearGradient>
    </defs>
    <circle data-name="타원 78" cx="50" cy="50" r="50" style="fill:#0064b6"/>
    <g data-name="그룹 490">
        <g data-name="그룹 488">
            <path data-name="패스 974" d="M849.543 2144.393c-24.541 0-40.716 12.88-40.716 28.773s16.175 28.767 40.716 28.767 40.724-12.883 40.724-28.767-16.18-28.773-40.724-28.773z" transform="translate(-797.596 -2121.893)" style="fill:#fff"/>
            <path data-name="패스 975" d="M856.016 2183.18c6.992-1.216 30.6-6.069 27.689-19.539-1.043-4.834-6.014-10.147-13.514-13.842a52.5 52.5 0 0 0-21.524-4.264c-22.783 0-38.627 12.042-38.627 26.9 0 10.345 7.691 19.323 20.056 23.817 2.626-6.907 13.074-10.842 25.92-13.072z" transform="translate(-796.816 -2121.159)" style="fill:#0064b6"/>
            <path data-name="패스 976" d="M840.65 2178.935c-10.22 1.282-14.9 4.58-17.917 8.589a54.835 54.835 0 0 0 17.769 2.787c22.789 0 38.632-12.042 38.632-26.891a20.536 20.536 0 0 0-.37-3.878c-.754 17.44-26.94 18.004-38.114 19.393z" transform="translate(-788.65 -2112.148)" style="fill:url(#qd1fg1h57a)"/>
        </g>
        <g data-name="그룹 489">
            <path data-name="패스 977" d="M823.157 2153.356h-7.641l.09.219a11.06 11.06 0 0 1 .3 3.655c-.006.314-.011 17.642-.011 17.642h.151c.035 0 3.479.123 6.749.123 6.825 0 11.411-4.622 11.411-11.5-.006-6.159-4.339-10.139-11.049-10.139zm-3.99 1.923c.439-.036 1.788-.131 2.761-.131 5.835 0 8.553 2.827 8.553 8.9 0 6.274-2.414 9.329-7.382 9.329-3.64 0-3.932-.176-3.932-2.332z" transform="translate(-793.293 -2116.127)" style="fill:#fff"/>
            <path data-name="패스 978" d="M846.667 2174.8c-.115-1.263-.163-2.121-.163-2.861v-7.539h-3.627l.117.233a5.471 5.471 0 0 1 .37 2.31c0 .054.011 5.234-.135 6.462a12.6 12.6 0 0 1-2.807.308c-5.761 0-8.683-3.309-8.683-9.824 0-4.974 3.288-8.684 8-9.025a8.883 8.883 0 0 1 6.365 1.8l.26.228v-3.047l-.126-.021a26.313 26.313 0 0 0-4.968-.591c-8.292 0-13.245 4.363-13.245 11.672 0 7.785 6.047 10.56 11.707 10.56a44.331 44.331 0 0 0 6.807-.494l.146-.025z" transform="translate(-785.248 -2116.204)" style="fill:#fff"/>
            <path data-name="패스 979" d="M850.971 2163.056a5.3 5.3 0 0 0 4.064-5.053c0-2.914-2.629-4.647-7.03-4.647h-6.535l.044.192a14.894 14.894 0 0 1 .191 2.848v18.658h.163c.025 0 2.57-.053 5.717-.053 5.5 0 8.645-2.382 8.645-6.542-.001-2.576-2.13-4.733-5.259-5.403zm-6.008 1.048h1.689c3.895 0 5.868 1.528 5.868 4.543 0 3.18-1.7 4.728-5.2 4.728-1.7 0-2.358-.615-2.358-2.184zm.016-9.061h2.136c3.361 0 4.792 1.016 4.792 3.4 0 2.715-1.763 3.977-5.548 3.977h-1.4z" transform="translate(-776.598 -2116.127)" style="fill:#fff"/>
        </g>
    </g>
</svg>
