<svg xmlns="http://www.w3.org/2000/svg" width="100" height="100" viewBox="0 0 100 100">
    <circle data-name="타원 69" cx="50" cy="50" r="50" style="fill:#e1e1e1"/>
    <path data-name="패스 848" d="M124.76 1001.749a122.5 122.5 0 0 0 1.3 18.22.272.272 0 0 0 .027.1c.755 1.222 1.538 6.079 2.157 7.6a.451.451 0 0 0 .137.149 5.09 5.09 0 0 0 2.862.842.126.126 0 0 0 .122-.116 22.076 22.076 0 0 0-.053-4.742c-.337-5.671-.711-14.7-.649-20.164 4 2.47 19 14.4 26.826 16.872a.483.483 0 0 0 .5-.119 2.711 2.711 0 0 1 1.147-.789 1.768 1.768 0 0 0 .42-1.481c4.955-.2 11.832-2.319 15.441-7.344 2.478-3.453 2.441-8.268.892-9.892-.146-.142-.439-.222-.649-.455-2.364-2.613-5.572-3.315-9.013-3.087a16.667 16.667 0 0 0-8.462 3.369c-.01.01-.023.011-.029-.016-.183-3.7 1.155-8.411-.02-11.45a.229.229 0 0 0-.243-.163 7.991 7.991 0 0 0-3.516 1.257.5.5 0 0 0-.157.393c-.011.869-.248 5.366-.639 5.8-.073.081-.051.165-.073.351a73.939 73.939 0 0 0-.031 13.9 2.2 2.2 0 0 0 1.056.9 7.385 7.385 0 0 0 3.271-.753 1.847 1.847 0 0 1 .516-.1c.137-.014.193-.189.181-.367a7.237 7.237 0 0 1 .034-1.272c.762-3.436 3.92-7.909 7.911-8.59a5.3 5.3 0 0 1 5.378 1.947c.3.367.667 3.13-.777 6.125a11.291 11.291 0 0 1-5.974 5.256 20.653 20.653 0 0 1-9.1 1.4c-3.025-2.025-8.1-6.718-12.559-8.59a14.058 14.058 0 0 1-2.532-2.026c-2.162-1.929-6.787-5.271-9.537-7.32-.019-.022-.019-.043-.019-.088a1.6 1.6 0 0 1 .037-.641.425.425 0 0 1 .212-.265c.963-.715 5.029-3.177 5.38-3.759a2.252 2.252 0 0 1 .456-.344c6.11-4.105 16.83-9.67 21.517-15.049a.51.51 0 0 0 .063-.312 2.631 2.631 0 0 1 .09-.652 3.654 3.654 0 0 0 .049-2.008c-.021-.1-.117-.211-.184-.218-2.5-.274-5.825 1.415-8.914 4.629a10.775 10.775 0 0 1-2.47 1.823c-3.505 2.208-11.8 7.921-15.761 10.746-.053.041-.1.008-.1-.055A163.836 163.836 0 0 1 133.4 973a.641.641 0 0 0-.073-.412c-.321-.542-.513-1.182-.631-1.316a.132.132 0 0 0-.052-.049 2.065 2.065 0 0 0-1.7-.109c-.5.126-1.113.563-1.9.775a.282.282 0 0 0-.207.182 80.7 80.7 0 0 0-3.964 21.072c0 .026 0 .074-.043.043a89.839 89.839 0 0 0-9.649-5.945.524.524 0 0 0-.147-.043 6.8 6.8 0 0 1-2.364-1.215c-.871-.584-2.579-1.922-3.646-2.611a.5.5 0 0 0-.363-.1 6.77 6.77 0 0 0-3.125 2.337c-.157.265.166.854.129 1.216a.123.123 0 0 0 .029.106 32.05 32.05 0 0 0 6.4 4.794c3.222 1.927 6.5 3.756 7.86 4.711a.257.257 0 0 1 .082.1 2.561 2.561 0 0 0 .732.61 6.729 6.729 0 0 1 .961.659c.085.087.044.186-.045.257-3.409 2.631-10.18 7.51-13.41 9.913a27.359 27.359 0 0 1-2.682 1.423 3.614 3.614 0 0 0-1.85 1.669.155.155 0 0 0 .106.231c.521.164.649.57 1.009.728a1.256 1.256 0 0 0 .4.054c.676.024 1.861-.48 3.983-1.513 2.421-1.192 9.953-6.32 10.863-6.906a.086.086 0 0 1 .063-.02 2.221 2.221 0 0 0 1.245-.706 13.132 13.132 0 0 1 2.138-1.415l1.228-.755z" transform="translate(-90.465 -948.129)" style="fill:#fcfcfc"/>
</svg>
