<svg xmlns="http://www.w3.org/2000/svg" width="50" height="50" viewBox="0 0 50 50">
    <defs>
        <clipPath id="evusu38fna">
            <path data-name="사각형 23725" style="fill:none" d="M0 0h40.891v49.847H0z"/>
        </clipPath>
    </defs>
    <g data-name="그룹 83334">
        <g data-name="그룹 83277" transform="translate(5)" style="clip-path:url(#evusu38fna)">
            <path data-name="패스 60096" d="M35.283 33.442V19.685A15.065 15.065 0 0 0 22.347 4.941l-.67-.089V0h-2.462v4.853l-.673.088A15.063 15.063 0 0 0 5.606 19.692v14.437a5.645 5.645 0 0 1-1.258 3.863 4.089 4.089 0 0 1-3.14 1.333H0v4.058h16.358l-.226.962a4.39 4.39 0 0 0-.124 1.022 4.464 4.464 0 0 0 4.423 4.48 4.389 4.389 0 0 0 3.126-1.265 4.445 4.445 0 0 0 1.32-3.129 4.494 4.494 0 0 0-.126-1.113l-.225-.963h16.365v-4.05h-1.239a3.784 3.784 0 0 1-3.052-1.345l.318-.28-.341.254a6.964 6.964 0 0 1-1.29-4.513M20.449 47.35a1.994 1.994 0 1 1 1.963-1.994 1.967 1.967 0 0 1-1.963 1.994M5.084 40.931l1.087-1.285a8.04 8.04 0 0 0 1.9-5.485V19.686A12.463 12.463 0 0 1 20.262 7.268h.354a12.466 12.466 0 0 1 12.209 12.405V33.5a9.267 9.267 0 0 0 1.909 6.091l1.152 1.347z"/>
        </g>
        <path data-name="사각형 23074" style="fill:none" d="M0 0h50v50H0z"/>
    </g>
</svg>
