<svg xmlns="http://www.w3.org/2000/svg" width="60" height="26" viewBox="0 0 60 26">
    <g data-name="그룹 85580" transform="translate(-64.428 -169.424)">
        <rect data-name="사각형 25925" width="60" height="26" rx="7" transform="translate(64.428 169.424)" style="fill:#fe0"/>
        <g data-name="그룹 85579">
            <path data-name="패스 61719" d="M25.651 50.108v4.721a1.7 1.7 0 0 1-1.842 1.516 1.55 1.55 0 0 1-1.766-1.516v-11.15c0-1.919.749-2.532 2.783-2.532h5.525a1.549 1.549 0 0 1 1.554 1.63 1.513 1.513 0 0 1-1.554 1.574h-3.99c-.5 0-.71.154-.71.71v1.9h4.222a1.436 1.436 0 0 1 1.361 1.555 1.455 1.455 0 0 1-1.361 1.592z" transform="translate(48.841 133.97)" style="fill:#4e4e4e"/>
            <path data-name="패스 61720" d="M41.958 43.565c0-1.766.864-2.418 2.687-2.418H47.2c3.242 0 5.488 1.572 5.488 4.682a4.456 4.456 0 0 1-2.113 4.048l2.476 3.666c1.266 1.879-1.86 3.837-2.935 1.994l-2.878-4.892h-1.69v4.183a1.643 1.643 0 0 1-1.822 1.516 1.6 1.6 0 0 1-1.765-1.516zm3.569 4.086h1.323c1.612 0 2.227-.536 2.227-1.745 0-1.112-.633-1.689-2.263-1.689H46.1c-.4 0-.574.134-.574.537z" transform="translate(40.807 133.97)" style="fill:#4e4e4e"/>
            <path data-name="패스 61721" d="M64.122 43.661c0-1.919.768-2.514 2.766-2.514h5.543a1.6 1.6 0 0 1 0 3.2H68.44c-.518 0-.709.174-.709.729v1.593h4.125a1.431 1.431 0 0 1 1.344 1.596 1.391 1.391 0 0 1-1.345 1.535h-4.124v2.322c0 .575.153.71.729.71h4.163a1.5 1.5 0 0 1 1.421 1.612 1.445 1.445 0 0 1-1.382 1.573h-5.873c-2.111 0-2.667-.6-2.667-2.591z" transform="translate(31.864 133.97)" style="fill:#4e4e4e"/>
            <path data-name="패스 61722" d="M84.36 43.661c0-1.919.768-2.514 2.764-2.514h5.545a1.6 1.6 0 0 1 0 3.2h-3.992c-.519 0-.71.174-.71.729v1.593h4.126a1.431 1.431 0 0 1 1.342 1.592 1.391 1.391 0 0 1-1.342 1.539h-4.126v2.322c0 .575.155.71.729.71h4.163a1.5 1.5 0 0 1 1.42 1.612 1.444 1.444 0 0 1-1.38 1.573h-5.872c-2.11 0-2.667-.6-2.667-2.591z" transform="translate(23.694 133.97)" style="fill:#4e4e4e"/>
        </g>
    </g>
</svg>
