<svg xmlns="http://www.w3.org/2000/svg" width="276" height="112" viewBox="0 0 276 112">
    <defs>
        <clipPath id="3c7rtgi4ka">
            <path data-name="사각형 18007" transform="translate(404 2417)" style="fill:none" d="M0 0h276v112H0z"/>
        </clipPath>
        <clipPath id="3eq0wrd6sb">
            <path data-name="사각형 17524" style="stroke:#000;fill:none" d="M0 0h113.215v96H0z"/>
        </clipPath>
    </defs>
    <g data-name="마스크 그룹 7" transform="translate(-404 -2417)" style="clip-path:url(#3c7rtgi4ka)">
        <g data-name="그룹 66841">
            <path data-name="패스 50956" d="M0 0h98.871v78.218H0z" transform="translate(414.353 2438.135)" style="fill:#1cbfff"/>
            <g data-name="그룹 66838">
                <g data-name="그룹 66837" transform="translate(411.855 2421)" style="clip-path:url(#3eq0wrd6sb)">
                    <path data-name="패스 50941" d="M99.518 228.4H.647a.647.647 0 0 1-.647-.647v-78.218a.647.647 0 0 1 .647-.647h98.871a.647.647 0 0 1 .647.647v78.218a.647.647 0 0 1-.647.647m-98.224-1.294h97.577v-76.924H1.294z" transform="translate(1.851 -132.4)" style="stroke:#000"/>
                    <path data-name="패스 50942" d="M141.111 276.784h-68.2a5.075 5.075 0 0 1-5.075-5.075V221.8a5.075 5.075 0 0 1 5.075-5.075h68.2a5.075 5.075 0 0 1 5.075 5.075v49.911a5.075 5.075 0 0 1-5.075 5.075" transform="translate(-55.075 -190.51)" style="fill:#fff;stroke:#000"/>
                    <path data-name="패스 50943" d="M134.183 270.43h-68.2a5.655 5.655 0 0 1-5.648-5.648v-49.911a5.655 5.655 0 0 1 5.648-5.648h68.2a5.655 5.655 0 0 1 5.648 5.648v49.911a5.655 5.655 0 0 1-5.648 5.648m-68.2-60.061a4.507 4.507 0 0 0-4.5 4.5v49.911a4.507 4.507 0 0 0 4.5 4.5h68.2a4.507 4.507 0 0 0 4.5-4.5v-49.909a4.507 4.507 0 0 0-4.5-4.5z" transform="translate(-48.148 -183.583)" style="stroke:#000"/>
                    <g data-name="그룹 66843">
                        <path data-name="패스 50949" d="m1027.423 447.271-6.81-2.6-3.546 6.369-5.484-15.062 10.356-3.769z" transform="translate(-919.681 -397.347)" style="fill:#ffd059;stroke:#000"/>
                        <path data-name="패스 50950" d="M1010.092 444.587h-.042a.525.525 0 0 1-.451-.344l-5.484-15.062a.525.525 0 0 1 .314-.673l10.356-3.769a.525.525 0 0 1 .673.314l5.484 15.062a.525.525 0 0 1-.68.67l-6.386-2.438-3.325 5.972a.525.525 0 0 1-.458.27m-4.812-15.273 4.912 13.489 2.987-5.366a.525.525 0 0 1 .646-.235l5.737 2.19-4.913-13.494z" transform="translate(-912.708 -390.369)" style="stroke:#000"/>
                        <path data-name="패스 50951" d="m759.095 456.708-3.063-7.695-7.293 3.925 7.523-20.729 10.356 3.769z" transform="translate(-675.232 -397.348)" style="fill:#ffd059;stroke:#000"/>
                        <path data-name="패스 50952" d="M752.12 450.257a.525.525 0 0 1-.488-.331l-2.845-7.148-6.774 3.646a.525.525 0 0 1-.742-.641l7.523-20.729a.525.525 0 0 1 .673-.314l10.356 3.769a.525.525 0 0 1 .314.672l-7.524 20.729a.525.525 0 0 1-.485.346h-.008m-3.063-8.745a.525.525 0 0 1 .488.331l2.553 6.413 6.874-18.939-9.37-3.41-6.875 18.942 6.081-3.273a.525.525 0 0 1 .249-.063" transform="translate(-668.257 -390.372)" style="stroke:#000"/>
                        <path data-name="패스 50953" d="M766.344 44.4c-1.791 0-2.943-3.894-4.559-4.419-1.674-.544-4.892 1.91-6.286.9s-.063-4.85-1.087-6.257-5.073-1.291-5.617-2.965c-.525-1.616 2.8-3.911 2.8-5.7s-3.327-4.086-2.8-5.7c.544-1.674 4.6-1.572 5.617-2.965s-.32-5.233 1.087-6.257 4.612 1.439 6.286.9c1.616-.525 2.768-4.419 4.559-4.419s2.943 3.894 4.559 4.419c1.674.544 4.893-1.91 6.286-.9s.063 4.85 1.087 6.257 5.073 1.291 5.617 2.965c.525 1.616-2.8 3.911-2.8 5.7s3.327 4.087 2.8 5.7c-.544 1.674-4.6 1.572-5.617 2.965s.32 5.233-1.087 6.257-4.612-1.439-6.286-.9c-1.616.525-2.768 4.419-4.559 4.419" transform="translate(-675.232 -2.364)" style="fill:#ffd059;stroke:#000"/>
                        <path data-name="패스 50954" d="M759.364 37.951c-1.252 0-2.124-1.28-2.967-2.517-.584-.857-1.188-1.743-1.754-1.927a5.243 5.243 0 0 0-2.659.531c-1.378.49-2.8 1-3.774.29s-.937-2.236-.9-3.708a5.207 5.207 0 0 0-.307-2.665 5.179 5.179 0 0 0-2.415-1.1c-1.424-.417-2.9-.847-3.277-2.016-.364-1.121.549-2.307 1.431-3.454a5.279 5.279 0 0 0 1.345-2.41 5.28 5.28 0 0 0-1.345-2.41c-.883-1.147-1.8-2.333-1.431-3.455.38-1.169 1.852-1.6 3.277-2.016a5.178 5.178 0 0 0 2.415-1.1 5.2 5.2 0 0 0 .307-2.665c-.042-1.472-.085-2.994.9-3.708s2.395-.2 3.774.29a5.244 5.244 0 0 0 2.659.531c.566-.184 1.17-1.07 1.754-1.927.843-1.23 1.715-2.515 2.967-2.515s2.124 1.28 2.967 2.517c.584.857 1.188 1.743 1.754 1.927a5.243 5.243 0 0 0 2.659-.531c1.379-.49 2.8-1 3.774-.29s.937 2.236.9 3.708a5.2 5.2 0 0 0 .303 2.669 5.179 5.179 0 0 0 2.415 1.1c1.424.417 2.9.847 3.277 2.016.364 1.121-.549 2.307-1.431 3.454a5.281 5.281 0 0 0-1.345 2.41 5.281 5.281 0 0 0 1.345 2.41c.883 1.147 1.8 2.333 1.431 3.455-.38 1.168-1.852 1.6-3.277 2.016a5.177 5.177 0 0 0-2.415 1.1 5.206 5.206 0 0 0-.307 2.665c.042 1.472.085 2.995-.9 3.708s-2.4.2-3.774-.29a5.245 5.245 0 0 0-2.659-.531c-.566.184-1.17 1.07-1.754 1.927-.843 1.237-1.715 2.517-2.967 2.517m-5.108-5.557a2.3 2.3 0 0 1 .715.1c.907.295 1.583 1.285 2.3 2.334.658.965 1.4 2.059 2.1 2.059s1.442-1.094 2.1-2.058c.715-1.049 1.39-2.04 2.3-2.334a5.7 5.7 0 0 1 3.335.54c1.07.38 2.282.811 2.8.431s.5-1.685.464-2.829a5.649 5.649 0 0 1 .508-3.313 5.52 5.52 0 0 1 2.969-1.486c1.109-.324 2.365-.691 2.573-1.332.193-.6-.581-1.6-1.265-2.49a5.753 5.753 0 0 1-1.563-3.05 5.753 5.753 0 0 1 1.563-3.05c.683-.888 1.458-1.9 1.265-2.49-.208-.641-1.464-1.008-2.573-1.332a5.521 5.521 0 0 1-2.969-1.486 5.65 5.65 0 0 1-.508-3.312c.032-1.144.069-2.442-.464-2.829s-1.735.051-2.8.43a5.7 5.7 0 0 1-3.335.54c-.907-.295-1.583-1.285-2.3-2.334-.658-.965-1.4-2.058-2.1-2.058s-1.442 1.094-2.1 2.058c-.715 1.049-1.39 2.04-2.3 2.334a5.7 5.7 0 0 1-3.335-.54c-1.07-.38-2.282-.811-2.8-.431s-.5 1.685-.464 2.829a5.649 5.649 0 0 1-.508 3.313 5.519 5.519 0 0 1-2.969 1.486c-1.109.324-2.365.691-2.573 1.332-.193.6.581 1.6 1.265 2.49a5.753 5.753 0 0 1 1.563 3.05 5.753 5.753 0 0 1-1.563 3.05c-.683.888-1.458 1.9-1.265 2.49.208.641 1.464 1.008 2.573 1.332a5.52 5.52 0 0 1 2.969 1.486 5.649 5.649 0 0 1 .508 3.313c-.032 1.144-.069 2.442.464 2.829s1.735-.051 2.8-.43a8.48 8.48 0 0 1 2.62-.644" transform="translate(-668.252 4.611)" style="stroke:#000"/>
                        <path data-name="패스 50955" d="M880.841 177.047a1.308 1.308 0 0 1-.953-.41l-5.677-6a.525.525 0 1 1 .763-.721l5.677 6a.272.272 0 0 0 .315.049l9.136-13.226a.525.525 0 1 1 .864.6l-9.187 13.3a.522.522 0 0 1-.093.1 1.3 1.3 0 0 1-.844.309" transform="translate(-791.79 -146.524)" style="stroke:#000"/>
                    </g>
                    <text transform="translate(23.144 64)" style="font-size:25px;font-family:Pretendard-SemiBold,Pretendard;font-weight:600"><tspan x="0" y="0">개인</tspan></text>
                </g>
            </g>
        </g>
        <g data-name="그룹 66842">
            <path data-name="패스 50956" d="M0 0h98.871v78.218H0z" transform="translate(534.531 2438.135)" style="fill:#e58aff"/>
            <g data-name="그룹 66838">
                <g data-name="그룹 66837" transform="translate(531.123 2421)" style="clip-path:url(#3eq0wrd6sb)">
                    <path data-name="패스 50941" d="M99.518 228.4H.647a.647.647 0 0 1-.647-.647v-78.218a.647.647 0 0 1 .647-.647h98.871a.647.647 0 0 1 .647.647v78.218a.647.647 0 0 1-.647.647m-98.224-1.294h97.577v-76.924H1.294z" transform="translate(2.762 -132.4)" style="stroke:#000"/>
                    <path data-name="패스 50942" d="M141.111 276.784h-68.2a5.075 5.075 0 0 1-5.075-5.075V221.8a5.075 5.075 0 0 1 5.075-5.075h68.2a5.075 5.075 0 0 1 5.075 5.075v49.911a5.075 5.075 0 0 1-5.075 5.075" transform="translate(-54.737 -191.082)" style="fill:#fff;stroke:#000"/>
                    <path data-name="패스 50943" d="M134.183 270.43h-68.2a5.655 5.655 0 0 1-5.648-5.648v-49.911a5.655 5.655 0 0 1 5.648-5.648h68.2a5.655 5.655 0 0 1 5.648 5.648v49.911a5.655 5.655 0 0 1-5.648 5.648m-68.2-60.061a4.507 4.507 0 0 0-4.5 4.5v49.911a4.507 4.507 0 0 0 4.5 4.5h68.2a4.507 4.507 0 0 0 4.5-4.5v-49.909a4.507 4.507 0 0 0-4.5-4.5z" transform="translate(-47.237 -183.582)" style="stroke:#000"/>
                    <g data-name="그룹 66844">
                        <path data-name="패스 50949" d="m1027.423 447.271-6.81-2.6-3.546 6.369-5.484-15.062 10.356-3.769z" transform="translate(-919.343 -397.346)" style="fill:#ffd059;stroke:#000"/>
                        <path data-name="패스 50950" d="M1010.092 444.587h-.042a.525.525 0 0 1-.451-.344l-5.484-15.062a.525.525 0 0 1 .314-.673l10.356-3.769a.525.525 0 0 1 .673.314l5.484 15.062a.525.525 0 0 1-.68.67l-6.386-2.438-3.325 5.972a.525.525 0 0 1-.458.27m-4.812-15.273 4.912 13.489 2.987-5.366a.525.525 0 0 1 .646-.235l5.737 2.19-4.913-13.494z" transform="translate(-912.37 -390.368)" style="stroke:#000"/>
                        <path data-name="패스 50951" d="m759.095 456.708-3.063-7.695-7.293 3.925 7.523-20.729 10.356 3.769z" transform="translate(-674.894 -397.347)" style="fill:#ffd059;stroke:#000"/>
                        <path data-name="패스 50952" d="M752.12 450.257a.525.525 0 0 1-.488-.331l-2.845-7.148-6.774 3.646a.525.525 0 0 1-.742-.641l7.523-20.729a.525.525 0 0 1 .673-.314l10.356 3.769a.525.525 0 0 1 .314.672l-7.524 20.729a.525.525 0 0 1-.485.346h-.008m-3.063-8.745a.525.525 0 0 1 .488.331l2.553 6.413 6.874-18.939-9.37-3.41-6.875 18.942 6.081-3.273a.525.525 0 0 1 .249-.063" transform="translate(-667.919 -390.371)" style="stroke:#000"/>
                        <path data-name="패스 50953" d="M766.344 44.4c-1.791 0-2.943-3.894-4.559-4.419-1.674-.544-4.892 1.91-6.286.9s-.063-4.85-1.087-6.257-5.073-1.291-5.617-2.965c-.525-1.616 2.8-3.911 2.8-5.7s-3.327-4.086-2.8-5.7c.544-1.674 4.6-1.572 5.617-2.965s-.32-5.233 1.087-6.257 4.612 1.439 6.286.9c1.616-.525 2.768-4.419 4.559-4.419s2.943 3.894 4.559 4.419c1.674.544 4.893-1.91 6.286-.9s.063 4.85 1.087 6.257 5.073 1.291 5.617 2.965c.525 1.616-2.8 3.911-2.8 5.7s3.327 4.087 2.8 5.7c-.544 1.674-4.6 1.572-5.617 2.965s.32 5.233-1.087 6.257-4.612-1.439-6.286-.9c-1.616.525-2.768 4.419-4.559 4.419" transform="translate(-674.894 -2.363)" style="fill:#ffd059;stroke:#000"/>
                        <path data-name="패스 50954" d="M759.364 37.951c-1.252 0-2.124-1.28-2.967-2.517-.584-.857-1.188-1.743-1.754-1.927a5.243 5.243 0 0 0-2.659.531c-1.378.49-2.8 1-3.774.29s-.937-2.236-.9-3.708a5.207 5.207 0 0 0-.307-2.665 5.179 5.179 0 0 0-2.415-1.1c-1.424-.417-2.9-.847-3.277-2.016-.364-1.121.549-2.307 1.431-3.454a5.279 5.279 0 0 0 1.345-2.41 5.28 5.28 0 0 0-1.345-2.41c-.883-1.147-1.8-2.333-1.431-3.455.38-1.169 1.852-1.6 3.277-2.016a5.178 5.178 0 0 0 2.415-1.1 5.2 5.2 0 0 0 .307-2.665c-.042-1.472-.085-2.994.9-3.708s2.395-.2 3.774.29a5.244 5.244 0 0 0 2.659.531c.566-.184 1.17-1.07 1.754-1.927.843-1.23 1.715-2.515 2.967-2.515s2.124 1.28 2.967 2.517c.584.857 1.188 1.743 1.754 1.927a5.243 5.243 0 0 0 2.659-.531c1.379-.49 2.8-1 3.774-.29s.937 2.236.9 3.708a5.2 5.2 0 0 0 .303 2.669 5.179 5.179 0 0 0 2.415 1.1c1.424.417 2.9.847 3.277 2.016.364 1.121-.549 2.307-1.431 3.454a5.281 5.281 0 0 0-1.345 2.41 5.281 5.281 0 0 0 1.345 2.41c.883 1.147 1.8 2.333 1.431 3.455-.38 1.168-1.852 1.6-3.277 2.016a5.177 5.177 0 0 0-2.415 1.1 5.206 5.206 0 0 0-.307 2.665c.042 1.472.085 2.995-.9 3.708s-2.4.2-3.774-.29a5.245 5.245 0 0 0-2.659-.531c-.566.184-1.17 1.07-1.754 1.927-.843 1.237-1.715 2.517-2.967 2.517m-5.108-5.557a2.3 2.3 0 0 1 .715.1c.907.295 1.583 1.285 2.3 2.334.658.965 1.4 2.059 2.1 2.059s1.442-1.094 2.1-2.058c.715-1.049 1.39-2.04 2.3-2.334a5.7 5.7 0 0 1 3.335.54c1.07.38 2.282.811 2.8.431s.5-1.685.464-2.829a5.649 5.649 0 0 1 .508-3.313 5.52 5.52 0 0 1 2.969-1.486c1.109-.324 2.365-.691 2.573-1.332.193-.6-.581-1.6-1.265-2.49a5.753 5.753 0 0 1-1.563-3.05 5.753 5.753 0 0 1 1.563-3.05c.683-.888 1.458-1.9 1.265-2.49-.208-.641-1.464-1.008-2.573-1.332a5.521 5.521 0 0 1-2.969-1.486 5.65 5.65 0 0 1-.508-3.312c.032-1.144.069-2.442-.464-2.829s-1.735.051-2.8.43a5.7 5.7 0 0 1-3.335.54c-.907-.295-1.583-1.285-2.3-2.334-.658-.965-1.4-2.058-2.1-2.058s-1.442 1.094-2.1 2.058c-.715 1.049-1.39 2.04-2.3 2.334a5.7 5.7 0 0 1-3.335-.54c-1.07-.38-2.282-.811-2.8-.431s-.5 1.685-.464 2.829a5.649 5.649 0 0 1-.508 3.313 5.519 5.519 0 0 1-2.969 1.486c-1.109.324-2.365.691-2.573 1.332-.193.6.581 1.6 1.265 2.49a5.753 5.753 0 0 1 1.563 3.05 5.753 5.753 0 0 1-1.563 3.05c-.683.888-1.458 1.9-1.265 2.49.208.641 1.464 1.008 2.573 1.332a5.52 5.52 0 0 1 2.969 1.486 5.649 5.649 0 0 1 .508 3.313c-.032 1.144-.069 2.442.464 2.829s1.735-.051 2.8-.43a8.48 8.48 0 0 1 2.62-.644" transform="translate(-667.914 4.612)" style="stroke:#000"/>
                        <path data-name="패스 50955" d="M880.841 177.047a1.308 1.308 0 0 1-.953-.41l-5.677-6a.525.525 0 1 1 .763-.721l5.677 6a.272.272 0 0 0 .315.049l9.136-13.226a.525.525 0 1 1 .864.6l-9.187 13.3a.522.522 0 0 1-.093.1 1.3 1.3 0 0 1-.844.309" transform="translate(-791.452 -146.523)" style="stroke:#000"/>
                    </g>
                </g>
            </g>
            <text transform="translate(551.999 2485)" style="font-size:25px;font-family:Pretendard-SemiBold,Pretendard;font-weight:600"><tspan x="0" y="0">사업</tspan></text>
        </g>
    </g>
</svg>
