<svg xmlns="http://www.w3.org/2000/svg" width="40" height="40" viewBox="0 0 40 40">
  <g id="그룹_55744" data-name="그룹 55744" transform="translate(10019 20658)">
    <circle id="타원_1269" data-name="타원 1269" cx="20" cy="20" r="20" transform="translate(-10019 -20658)" fill="#3f484d"/>
    <g id="그룹_4240" data-name="그룹 4240" transform="translate(-10010.709 -20649.711)">
      <rect id="사각형_1151" data-name="사각형 1151" width="23.418" height="23.419" fill="#008cce"/>
      <path id="패스_9160" data-name="패스 9160" d="M3270.88,2143.337l5.851,5.858,5.858-5.858Z" transform="translate(-3270.88 -2143.337)" fill="#008cce"/>
      <path id="패스_9161" data-name="패스 9161" d="M3270.88,2143.337v11.709l5.851-5.851Z" transform="translate(-3270.88 -2143.337)" fill="#3795d2"/>
      <path id="패스_9162" data-name="패스 9162" d="M3282.589,2161.2l-5.853-5.856-5.856,5.856Z" transform="translate(-3270.88 -2149.493)" fill="#008cce"/>
      <path id="패스_9163" data-name="패스 9163" d="M3288.749,2155.046v-11.709l-5.853,5.853Z" transform="translate(-3277.04 -2143.337)" fill="#007ac5"/>
      <path id="패스_9164" data-name="패스 9164" d="M3294.9,2143.337v11.709l6.438-6.436Z" transform="translate(-3283.196 -2143.337)" fill="#0067b5"/>
      <path id="패스_9165" data-name="패스 9165" d="M3306.613,2161.2l-5.851-5.856-5.857,5.856Z" transform="translate(-3283.196 -2149.493)" fill="#004193"/>
      <path id="패스_9166" data-name="패스 9166" d="M3270.88,2167.361l5.851,5.859,5.858-5.859Z" transform="translate(-3270.88 -2155.653)" fill="#007ac5"/>
      <path id="패스_9167" data-name="패스 9167" d="M3270.88,2167.361v11.712l5.851-5.853Z" transform="translate(-3270.88 -2155.653)" fill="#0067b5"/>
      <path id="패스_9168" data-name="패스 9168" d="M3282.589,2185.228l-5.853-5.858-5.856,5.858Z" transform="translate(-3270.88 -2161.808)" fill="#005bab"/>
      <path id="패스_9169" data-name="패스 9169" d="M3288.749,2179.072v-11.71l-5.853,5.853Z" transform="translate(-3277.04 -2155.653)" fill="#004898"/>
      <path id="패스_9170" data-name="패스 9170" d="M3294.9,2167.361l5.852,5.859,5.856-5.859Z" transform="translate(-3283.196 -2155.653)" fill="#08287e"/>
      <path id="패스_9171" data-name="패스 9171" d="M3294.9,2167.361v11.712l5.852-5.853Z" transform="translate(-3283.196 -2155.653)" fill="#004193"/>
      <path id="패스_9172" data-name="패스 9172" d="M3306.613,2185.228l-5.851-5.858-5.857,5.858Z" transform="translate(-3283.196 -2161.808)" fill="#08287e"/>
      <path id="패스_9173" data-name="패스 9173" d="M3312.774,2179.072v-11.71l-5.851,5.853Z" transform="translate(-3289.357 -2155.653)" fill="#08287e"/>
      <path id="패스_9174" data-name="패스 9174" d="M3294.9,2143.337l5.852,5.858,5.856-5.858Z" transform="translate(-3283.196 -2143.337)" fill="#005bab"/>
      <path id="패스_9175" data-name="패스 9175" d="M3312.774,2155.046v-11.709l-5.851,5.853Z" transform="translate(-3289.357 -2143.337)" fill="#004898"/>
      <path id="패스_9176" data-name="패스 9176" d="M3299.075,2165.863l-7.5-7.14-11.379,11.408,4.151,4.15,7.228-7.117,7.5,7.455Z" transform="translate(-3275.657 -2151.224)" fill="#fff"/>
    </g>
  </g>
</svg>
