<svg xmlns="http://www.w3.org/2000/svg" id="prefix__ico_small_bank1_기업은행" width="40" height="40" viewBox="0 0 40 40">
    <defs>
        <style>
            .prefix__cls-1{fill:#003c8d}
        </style>
    </defs>
    <circle id="prefix__타원_63" cx="20" cy="20" r="20" class="prefix__cls-1" data-name="타원 63"/>
    <g id="prefix__그룹_458" data-name="그룹 458" transform="translate(-163.049 -900.794)">
        <g id="prefix__그룹_457" data-name="그룹 457" transform="translate(170.049 907.786)">
            <g id="prefix__그룹_456" data-name="그룹 456">
                <path id="prefix__패스_844" fill="#fff" d="M176.535 908.109a2.992 2.992 0 0 0-1.512 1.741l-4.817 14.484a3.01 3.01 0 0 0 1.9 3.808l15.8 5.3a3.016 3.016 0 0 0 3.815-1.907l4.821-14.482a3.02 3.02 0 0 0-1.91-3.811l-15.8-5.306a2.994 2.994 0 0 0-2.3.168" data-name="패스 844" transform="translate(-170.049 -907.786)"/>
                <path id="prefix__패스_845" fill="#0082d0" d="M185.119 922.906a8.251 8.251 0 0 1-3.168 2.208l-.718.277v-6.711l.707.273a8.293 8.293 0 0 1 3.179 2.2 7.263 7.263 0 0 0-3.517-10.576l-2.28-.764a1.955 1.955 0 0 0-2.467 1.253l-4.834 14.492a1.982 1.982 0 0 0 1.268 2.489l10.967 3.662a7.264 7.264 0 0 0 .864-8.807m-6.345 2.9h-1.086v-7.523h1.086z" data-name="패스 845" transform="translate(-170.911 -908.674)"/>
                <path id="prefix__패스_846" fill="#db2422" d="M193.3 931.016a7.221 7.221 0 0 0-2.207-1.76v3.535a7.228 7.228 0 0 0 2.207-1.775" data-name="패스 846" transform="translate(-179.729 -917.66)"/>
                <path id="prefix__패스_847" d="M206.355 916.826l-10.065-3.363a8.29 8.29 0 0 1 .73 10.289 8.292 8.292 0 0 1-.479 10.043l3.781 1.262a1.942 1.942 0 0 0 2.463-1.253l4.838-14.489a1.984 1.984 0 0 0-1.268-2.491m-2.667 10.676l-1.357.005-2.8-3.764 2.838-3.761 1.373-.005-2.848 3.774z" class="prefix__cls-1" data-name="패스 847" transform="translate(-182.117 -910.397)"/>
            </g>
        </g>
    </g>
</svg>
