<svg data-name="ico_error_에러 아이콘" xmlns="http://www.w3.org/2000/svg" width="43.387" height="43.387" viewBox="0 0 43.387 43.387">
    <g data-name="패스 596" style="fill:none">
        <path d="M21.693 0A21.693 21.693 0 1 1 0 21.693 21.693 21.693 0 0 1 21.693 0z" style="stroke:none"/>
        <path d="M21.693 3A18.571 18.571 0 0 0 8.475 8.475 18.571 18.571 0 0 0 3 21.693c0 4.994 1.944 9.688 5.475 13.219a18.571 18.571 0 0 0 13.218 5.475c4.994 0 9.688-1.945 13.219-5.475a18.571 18.571 0 0 0 5.475-13.219c0-4.993-1.945-9.687-5.475-13.218A18.571 18.571 0 0 0 21.693 3m0-3c11.981 0 21.694 9.712 21.694 21.693 0 11.981-9.713 21.694-21.694 21.694C9.713 43.387 0 33.674 0 21.693 0 9.713 9.712 0 21.693 0z" style="fill:#000;stroke:none"/>
    </g>
    <g data-name="그룹 342">
        <path data-name="사각형 121" d="M24.675 32.228h-5.964V19.015h5.964z"/>
        <path data-name="사각형 122" d="M24.675 14.774h-5.964V10.37h5.964z"/>
    </g>
</svg>
