<svg xmlns="http://www.w3.org/2000/svg" width="160" height="160" viewBox="0 0 160 160">
    <defs>
        <clipPath id="clip-path">
            <path id="사각형_14000" data-name="사각형 14000" transform="translate(521 185)" style="stroke:#707070;fill:#fff" d="M0 0h160v160H0z"/>
        </clipPath>
        <style>
            .cls-5{fill:#fff}.cls-3{fill:#333}.cls-4{fill:#63e2c5}
        </style>
    </defs>
    <g id="마스크_그룹_75" data-name="마스크 그룹 75" transform="translate(-521 -185)" style="clip-path:url(#clip-path)">
        <path id="패스_45917" data-name="패스 45917" class="cls-3" d="m528.3 582.846-2.973-3.3 22.498-20.246 15.5-6.644 6.365-6.362 3.142 3.142-6.968 6.97-15.611 6.688z" transform="translate(36.221 -249.553)"/>
        <path id="패스_45918" data-name="패스 45918" class="cls-3" d="m581.987 558.577-3.142-3.142a4.068 4.068 0 0 0 0-5.746 4.16 4.16 0 0 0-5.746 0l-3.142-3.142 2.222-2.222a4.068 4.068 0 0 0 0-5.746 4.16 4.16 0 0 0-5.746 0l-2.222 2.222-3.142-3.142 4.444-4.444a4.063 4.063 0 0 0-5.746-5.746l-4.444 4.444-3.142-3.142 2.222-2.222a4.063 4.063 0 0 0-5.746-5.746l-2.222 2.222-3.142-3.142 2.222-2.222a8.5 8.5 0 0 1 14.4 4.622 8.507 8.507 0 0 1 10.785 10.78 8.5 8.5 0 0 1 6.666 11.11 8.5 8.5 0 0 1 4.622 14.4z" transform="translate(58.171 -287.58)"/>
        <path id="패스_45919" data-name="패스 45919" class="cls-4" d="m557.27 511.586-33.684 33.684 7.744 7.744 7.613-7.362.027-.026a4.685 4.685 0 0 1 7.213 5.911l-6.535 9.8 40.979 40.977 33.684-33.684zm19.763 53.446a11.434 11.434 0 1 1 0-16.17 11.435 11.435 0 0 1-.001 16.17z" transform="translate(34.089 -291.965)"/>
        <path id="패스_45920" data-name="패스 45920" class="cls-3" d="M551.513 553.169a13.563 13.563 0 0 1-9.657-4 13.65 13.65 0 1 1 9.657 4zm0-22.871A9.212 9.212 0 0 0 545 546.026a9.212 9.212 0 1 0 6.515-15.727z" transform="translate(51.525 -274.529)"/>
        <path id="패스_45921" data-name="패스 45921" class="cls-3" d="m516.435 582.989-3.142-3.142 17.3-17.3 4.444-22.22 13.368-13.368a9.13 9.13 0 0 1 14.052 11.519l-10.193 15.288-3.7-2.466 10.192-15.288a4.685 4.685 0 0 0-7.213-5.911l-12.417 12.417-4.444 22.22z" transform="translate(21.51 -276.439)"/>
        <g id="그룹_57711" data-name="그룹 57711" transform="translate(641.528 217.764)">
            <circle id="타원_1726" data-name="타원 1726" class="cls-4" cx="15" cy="15" r="15" transform="translate(.472 .236)"/>
            <rect id="사각형_13610" data-name="사각형 13610" class="cls-5" width="19" height="5" rx="2" transform="translate(5.472 12.236)"/>
            <rect id="사각형_13611" data-name="사각형 13611" class="cls-5" width="18" height="5" rx="2" transform="rotate(-90 18.354 5.882)"/>
        </g>
        <g id="그룹_57712" data-name="그룹 57712" transform="translate(618.384 191.148)" style="opacity:.33">
            <ellipse id="타원_1726-2" data-name="타원 1726" class="cls-4" cx="12.5" cy="12" rx="12.5" ry="12" transform="translate(-.384 -.149)"/>
            <rect id="사각형_13610-2" data-name="사각형 13610" class="cls-5" width="15" height="3" rx="1.5" transform="translate(4.616 10.851)"/>
            <rect id="사각형_13611-2" data-name="사각형 13611" class="cls-5" width="15" height="3" rx="1.5" transform="rotate(-90 15.234 4.617)"/>
        </g>
    </g>
</svg>
