<svg xmlns="http://www.w3.org/2000/svg" xmlns:xlink="http://www.w3.org/1999/xlink" width="52.837" height="52" viewBox="0 0 52.837 52">
  <defs>
    <clipPath id="clip-path">
      <rect id="사각형_23051" data-name="사각형 23051" width="52.05" height="45.54" transform="translate(-2.325 -2.032)"/>
    </clipPath>
  </defs>
  <g id="그룹_83574" data-name="그룹 83574" transform="translate(22847.418 10136)">
    <g id="그룹_82974" data-name="그룹 82974" transform="translate(-22844.699 -10130.237)">
      <g id="그룹_82888" data-name="그룹 82888" transform="matrix(1, 0.017, -0.017, 1, 0.366, -0.41)" clip-path="url(#clip-path)">
        <path id="패스_59743" data-name="패스 59743" d="M46.192,4.416H11.235A5.664,5.664,0,0,0,5.685,0,5.647,5.647,0,0,0,0,5.608a5.647,5.647,0,0,0,5.685,5.608A5.664,5.664,0,0,0,11.235,6.8H46.192a1.192,1.192,0,1,0,0-2.383M5.685,9.428a3.851,3.851,0,0,1-3.873-3.82,3.873,3.873,0,0,1,7.746,0,3.851,3.851,0,0,1-3.873,3.82" transform="translate(0 0)"/>
        <path id="패스_59744" data-name="패스 59744" d="M45.842,16.968H29.361a5.7,5.7,0,0,0-11.1,0H1.782a1.192,1.192,0,1,0,0,2.383H18.261a5.7,5.7,0,0,0,11.1,0H45.842a1.192,1.192,0,1,0,0-2.383M23.811,21.98a3.861,3.861,0,0,1-3.66-2.629,3.445,3.445,0,0,1,0-2.383,3.863,3.863,0,0,1,7.321,0,3.445,3.445,0,0,1,0,2.383,3.861,3.861,0,0,1-3.66,2.629" transform="translate(0.119 2.404)"/>
        <path id="패스_59745" data-name="패스 59745" d="M1.208,32.2H36.165a5.608,5.608,0,1,0,0-2.383H1.208a1.192,1.192,0,1,0,0,2.383m40.507-5.012A3.821,3.821,0,1,1,37.842,31a3.851,3.851,0,0,1,3.873-3.82" transform="translate(0 4.865)"/>
      </g>
    </g>
    <rect id="사각형_23120" data-name="사각형 23120" width="52" height="52" transform="translate(-22847 -10136)" fill="none"/>
  </g>
</svg>
