<svg xmlns="http://www.w3.org/2000/svg" width="36" height="36">
    <g data-name="그룹 57747">
        <g data-name="타원 1727" style="fill:#fff;stroke:#8b8e94;stroke-width:1.5px">
            <circle cx="18" cy="18" r="18" style="stroke:none"/>
            <circle cx="18" cy="18" r="17.25" style="fill:none"/>
        </g>
        <path data-name="Oval 318" d="M498.06 605.494V609h3.8v-3.51zm-2.118-14.331a5.6 5.6 0 0 0-2.539 4.908s.294.546 1.859.712 1.829-.712 1.829-.712a3.468 3.468 0 0 1 .619-1.944c1.344-1.748 4.755-1.115 4.74 1.507-.012 2.033-2.306 2.631-3.343 3.884a5.5 5.5 0 0 0-.958 3.635h3.445a3.084 3.084 0 0 1 .654-2.245 8.2 8.2 0 0 1 1.392-1.1c1.636-1.18 2.976-2.737 2.672-5.078-.632-4.881-7.279-5.456-10.37-3.567z" transform="translate(-481.424 -581.222)" style="fill:#8b8e94;fill-rule:evenodd"/>
    </g>
</svg>
