<svg xmlns="http://www.w3.org/2000/svg" id="prefix__ico_small_bank4_우리은행" width="40" height="40" viewBox="0 0 40 40">
    <defs>
        <clipPath id="prefix__clip-path">
            <path id="prefix__패스_916" fill="none" d="M566.037 1365.546a19.06 19.06 0 1 0-19.066-19.06 19.061 19.061 0 0 0 19.066 19.06z" data-name="패스 916" transform="translate(-546.971 -1327.425)"/>
        </clipPath>
        <style>
            .prefix__cls-2{fill:#fff}.prefix__cls-3{fill:#006abd}
        </style>
    </defs>
    <path id="prefix__패스_851" d="M585.725 1346.263a20 20 0 1 1-20-20 20 20 0 0 1 20 20z" class="prefix__cls-2" data-name="패스 851" transform="translate(-545.725 -1326.265)"/>
    <g id="prefix__그룹_460" data-name="그룹 460" transform="translate(.936 .872)">
        <path id="prefix__패스_852" d="M566.037 1365.546a19.06 19.06 0 1 0-19.066-19.06 19.061 19.061 0 0 0 19.066 19.06z" class="prefix__cls-3" data-name="패스 852" transform="translate(-546.971 -1327.425)"/>
    </g>
    <g id="prefix__그룹_464" data-name="그룹 464" transform="translate(.936 .872)">
        <g id="prefix__그룹_463" clip-path="url(#prefix__clip-path)" data-name="그룹 463">
            <g id="prefix__그룹_462" data-name="그룹 462" transform="translate(-1.09 6.399)">
                <g id="prefix__그룹_461" data-name="그룹 461">
                    <path id="prefix__패스_853" d="M565.751 1357.8c8.377 0 15.557 2.333 18.633 5.652a19.269 19.269 0 0 0 1.6-7.715 20.236 20.236 0 0 0-40.463 0 19.272 19.272 0 0 0 1.6 7.711c3.067-3.314 10.255-5.648 18.63-5.648z" class="prefix__cls-3" data-name="패스 853" transform="translate(-545.52 -1335.943)"/>
                    <path id="prefix__패스_854" fill="#006cbe" d="M565.764 1357.878c8.356 0 15.518 2.314 18.586 5.607a19.032 19.032 0 0 0 1.594-7.654 20.186 20.186 0 0 0-40.359 0 19.022 19.022 0 0 0 1.6 7.649c3.057-3.288 10.226-5.602 18.579-5.602z" data-name="패스 854" transform="translate(-545.536 -1335.999)"/>
                    <path id="prefix__패스_855" fill="#006ec0" d="M565.778 1357.955c8.334 0 15.479 2.3 18.537 5.561a18.769 18.769 0 0 0 1.591-7.591c0-10.761-9.018-19.533-20.129-19.532s-20.127 8.773-20.127 19.536a18.774 18.774 0 0 0 1.592 7.588c3.058-3.267 10.204-5.562 18.536-5.562z" data-name="패스 855" transform="translate(-545.553 -1336.055)"/>
                    <path id="prefix__패스_856" fill="#0070c1" d="M565.792 1358.032c8.312 0 15.439 2.276 18.489 5.516a18.538 18.538 0 0 0 1.587-7.53c0-10.673-8.994-19.4-20.076-19.4s-20.075 8.73-20.075 19.4a18.538 18.538 0 0 0 1.588 7.526c3.044-3.235 10.177-5.512 18.487-5.512z" data-name="패스 856" transform="translate(-545.569 -1336.111)"/>
                    <path id="prefix__패스_857" fill="#0072c3" d="M565.806 1358.11c8.291 0 15.4 2.257 18.442 5.469a18.287 18.287 0 0 0 1.582-7.468c0-10.585-8.97-19.27-20.024-19.269s-20.023 8.686-20.023 19.273a18.3 18.3 0 0 0 1.583 7.464c3.034-3.212 10.152-5.469 18.44-5.469z" data-name="패스 857" transform="translate(-545.585 -1336.167)"/>
                    <path id="prefix__패스_858" fill="#0074c4" d="M565.82 1358.187c8.269 0 15.359 2.238 18.394 5.424a18.042 18.042 0 0 0 1.579-7.406c0-10.5-8.947-19.138-19.972-19.138s-19.971 8.643-19.971 19.141a18.059 18.059 0 0 0 1.579 7.4c3.027-3.183 10.124-5.421 18.391-5.421z" data-name="패스 858" transform="translate(-545.602 -1336.223)"/>
                    <path id="prefix__패스_859" fill="#0076c6" d="M565.833 1358.264c8.248 0 15.32 2.219 18.347 5.379a17.812 17.812 0 0 0 1.574-7.344c0-10.41-8.923-19.007-19.921-19.006s-19.919 8.6-19.919 19.01a17.827 17.827 0 0 0 1.575 7.34c3.021-3.16 10.1-5.379 18.344-5.379z" data-name="패스 859" transform="translate(-545.618 -1336.279)"/>
                    <path id="prefix__패스_860" fill="#0078c7" d="M565.847 1358.341c8.226 0 15.28 2.2 18.3 5.333a17.565 17.565 0 0 0 1.57-7.281c0-10.323-8.9-18.876-19.869-18.875s-19.867 8.555-19.867 18.878a17.581 17.581 0 0 0 1.571 7.278c3.012-3.133 10.072-5.333 18.295-5.333z" data-name="패스 860" transform="translate(-545.634 -1336.335)"/>
                    <path id="prefix__패스_861" fill="#007ac9" d="M565.861 1358.419c8.2 0 15.24 2.18 18.25 5.287a17.334 17.334 0 0 0 1.566-7.219c0-10.235-8.876-18.745-19.816-18.744s-19.815 8.511-19.815 18.747a17.34 17.34 0 0 0 1.567 7.216c3.005-3.106 10.046-5.287 18.248-5.287z" data-name="패스 861" transform="translate(-545.651 -1336.391)"/>
                    <path id="prefix__패스_862" fill="#007ccb" d="M565.875 1358.5c8.183 0 15.2 2.161 18.2 5.241a17.093 17.093 0 0 0 1.562-7.157c0-10.147-8.852-18.613-19.765-18.612s-19.763 8.467-19.763 18.615a17.108 17.108 0 0 0 1.563 7.154c2.999-3.084 10.023-5.241 18.203-5.241z" data-name="패스 862" transform="translate(-545.667 -1336.447)"/>
                    <path id="prefix__패스_863" fill="#007ecc" d="M565.889 1358.573c8.161 0 15.161 2.142 18.155 5.2a16.858 16.858 0 0 0 1.558-7.1c0-10.059-8.828-18.482-19.712-18.481s-19.712 8.423-19.712 18.484a16.883 16.883 0 0 0 1.558 7.093c2.989-3.054 9.994-5.196 18.153-5.196z" data-name="패스 863" transform="translate(-545.683 -1336.503)"/>
                    <path id="prefix__패스_864" fill="#0080ce" d="M565.9 1358.65c8.14 0 15.122 2.124 18.107 5.151a16.624 16.624 0 0 0 1.554-7.033c0-9.971-8.805-18.35-19.661-18.349s-19.659 8.38-19.659 18.352a16.652 16.652 0 0 0 1.554 7.03c2.984-3.027 9.97-5.151 18.105-5.151z" data-name="패스 864" transform="translate(-545.7 -1336.559)"/>
                    <path id="prefix__패스_865" fill="#0082cf" d="M565.916 1358.728c8.118 0 15.083 2.1 18.059 5.1a16.389 16.389 0 0 0 1.549-6.972c0-9.884-8.781-18.219-19.609-18.218s-19.607 8.336-19.607 18.221a16.4 16.4 0 0 0 1.55 6.969c2.974-2.996 9.942-5.1 18.058-5.1z" data-name="패스 865" transform="translate(-545.716 -1336.615)"/>
                    <path id="prefix__패스_866" fill="#0084d1" d="M565.93 1358.8c8.1 0 15.042 2.085 18.011 5.059a16.16 16.16 0 0 0 1.546-6.909c0-9.8-8.759-18.087-19.557-18.086s-19.556 8.292-19.556 18.089a16.178 16.178 0 0 0 1.546 6.906c2.966-2.969 9.916-5.059 18.01-5.059z" data-name="패스 866" transform="translate(-545.732 -1336.671)"/>
                    <path id="prefix__패스_867" fill="#0087d2" d="M565.944 1358.882c8.076 0 15 2.066 17.964 5.014a15.927 15.927 0 0 0 1.541-6.848c0-9.709-8.734-17.956-19.505-17.955s-19.5 8.248-19.5 17.958a15.954 15.954 0 0 0 1.542 6.845c2.954-2.948 9.885-5.014 17.958-5.014z" data-name="패스 867" transform="translate(-545.749 -1336.727)"/>
                    <path id="prefix__패스_868" fill="#0089d4" d="M565.958 1358.959c8.054 0 14.963 2.047 17.916 4.968a15.691 15.691 0 0 0 1.537-6.785c0-9.621-8.711-17.824-19.453-17.823s-19.452 8.2-19.452 17.826a15.718 15.718 0 0 0 1.537 6.782c2.951-2.921 9.863-4.968 17.915-4.968z" data-name="패스 868" transform="translate(-545.765 -1336.783)"/>
                    <path id="prefix__패스_869" fill="#008cd6" d="M565.971 1359.036c8.033 0 14.924 2.028 17.868 4.923a15.46 15.46 0 0 0 1.534-6.723c0-9.533-8.687-17.694-19.4-17.693s-19.4 8.161-19.4 17.694a15.5 15.5 0 0 0 1.534 6.721c2.94-2.894 9.835-4.922 17.864-4.922z" data-name="패스 869" transform="translate(-545.781 -1336.839)"/>
                    <path id="prefix__패스_870" fill="#008ed7" d="M565.985 1359.114c8.01 0 14.884 2.009 17.82 4.877a15.231 15.231 0 0 0 1.53-6.661c0-9.446-8.664-17.562-19.349-17.562s-19.348 8.117-19.348 17.563a15.271 15.271 0 0 0 1.53 6.66c2.932-2.869 9.809-4.877 17.817-4.877z" data-name="패스 870" transform="translate(-545.798 -1336.894)"/>
                    <path id="prefix__패스_871" fill="#0090d9" d="M566 1359.191c7.988 0 14.844 1.99 17.772 4.831a15.01 15.01 0 0 0 1.525-6.6c0-9.358-8.64-17.431-19.3-17.43s-19.3 8.073-19.3 17.431a15.036 15.036 0 0 0 1.525 6.6c2.933-2.842 9.79-4.832 17.778-4.832z" data-name="패스 871" transform="translate(-545.814 -1336.95)"/>
                    <path id="prefix__패스_872" fill="#0093da" d="M566.013 1359.268c7.967 0 14.805 1.971 17.724 4.786a14.783 14.783 0 0 0 1.521-6.537c0-9.27-8.616-17.3-19.246-17.3s-19.244 8.029-19.244 17.3a14.815 14.815 0 0 0 1.521 6.536c2.919-2.814 9.759-4.785 17.724-4.785z" data-name="패스 872" transform="translate(-545.831 -1337.006)"/>
                    <path id="prefix__패스_873" fill="#0095dc" d="M566.026 1359.344c7.945 0 14.766 1.952 17.676 4.74a14.552 14.552 0 0 0 1.517-6.475c0-9.183-8.592-17.168-19.193-17.167s-19.193 7.986-19.193 17.168a14.6 14.6 0 0 0 1.517 6.474c2.912-2.784 9.733-4.74 17.676-4.74z" data-name="패스 873" transform="translate(-545.847 -1337.062)"/>
                    <path id="prefix__패스_874" fill="#0098de" d="M566.04 1359.422c7.925 0 14.727 1.932 17.629 4.695a14.338 14.338 0 0 0 1.513-6.413c0-9.094-8.569-17.036-19.142-17.035s-19.14 7.942-19.14 17.037a14.384 14.384 0 0 0 1.512 6.412c2.904-2.764 9.706-4.696 17.628-4.696z" data-name="패스 874" transform="translate(-545.863 -1337.118)"/>
                    <path id="prefix__패스_875" fill="#009adf" d="M566.054 1359.5c7.9 0 14.687 1.913 17.581 4.649a14.112 14.112 0 0 0 1.509-6.351c0-9.007-8.545-16.9-19.09-16.9s-19.088 7.9-19.088 16.905a14.156 14.156 0 0 0 1.508 6.35c2.896-2.74 9.68-4.653 17.58-4.653z" data-name="패스 875" transform="translate(-545.88 -1337.174)"/>
                    <path id="prefix__패스_876" fill="#009de1" d="M566.068 1359.576c7.881 0 14.646 1.895 17.533 4.6a13.9 13.9 0 0 0 1.5-6.29c0-8.919-8.522-16.772-19.038-16.772s-19.037 7.854-19.037 16.774a13.937 13.937 0 0 0 1.5 6.288c2.897-2.705 9.663-4.6 17.542-4.6z" data-name="패스 876" transform="translate(-545.896 -1337.23)"/>
                    <path id="prefix__패스_877" fill="#00a0e3" d="M566.081 1359.653c7.86 0 14.607 1.876 17.485 4.558a13.675 13.675 0 0 0 1.5-6.226c0-8.832-8.5-16.642-18.986-16.642s-18.984 7.811-18.984 16.642a13.72 13.72 0 0 0 1.5 6.226c2.881-2.682 9.628-4.558 17.485-4.558z" data-name="패스 877" transform="translate(-545.912 -1337.286)"/>
                    <path id="prefix__패스_878" fill="#00a2e4" d="M566.1 1359.73c7.838 0 14.567 1.857 17.437 4.513a13.459 13.459 0 0 0 1.5-6.165c0-8.744-8.475-16.51-18.934-16.51s-18.933 7.766-18.933 16.511a13.5 13.5 0 0 0 1.5 6.164c2.861-2.656 9.59-4.513 17.43-4.513z" data-name="패스 878" transform="translate(-545.928 -1337.342)"/>
                    <path id="prefix__패스_879" fill="#00a5e6" d="M566.109 1359.808c7.817 0 14.528 1.838 17.39 4.467a13.252 13.252 0 0 0 1.492-6.1c0-8.656-8.45-16.379-18.882-16.379s-18.88 7.723-18.88 16.38a13.294 13.294 0 0 0 1.491 6.1c2.864-2.63 9.58-4.468 17.389-4.468z" data-name="패스 879" transform="translate(-545.945 -1337.398)"/>
                    <path id="prefix__패스_880" fill="#00a8e8" d="M566.123 1359.885c7.794 0 14.488 1.819 17.342 4.421a13.029 13.029 0 0 0 1.489-6.041c0-8.569-8.427-16.247-18.83-16.247s-18.829 7.679-18.829 16.248a13.083 13.083 0 0 0 1.488 6.04c2.855-2.606 9.548-4.421 17.34-4.421z" data-name="패스 880" transform="translate(-545.961 -1337.454)"/>
                    <path id="prefix__패스_881" fill="#00abe9" d="M566.137 1359.962c7.773 0 14.448 1.8 17.294 4.376a12.826 12.826 0 0 0 1.484-5.979c0-8.481-8.4-16.116-18.778-16.116s-18.777 7.636-18.777 16.117a12.861 12.861 0 0 0 1.484 5.979c2.848-2.578 9.523-4.377 17.293-4.377z" data-name="패스 881" transform="translate(-545.978 -1337.51)"/>
                    <path id="prefix__패스_882" fill="#00aeeb" d="M566.15 1360.039c7.752 0 14.409 1.781 17.247 4.33a12.611 12.611 0 0 0 1.48-5.917c0-8.393-8.38-15.984-18.727-15.984s-18.724 7.591-18.724 15.985a12.65 12.65 0 0 0 1.479 5.916c2.84-2.549 9.495-4.33 17.245-4.33z" data-name="패스 882" transform="translate(-545.994 -1337.566)"/>
                    <path id="prefix__패스_883" fill="#09b0ec" d="M566.164 1360.117c7.73 0 14.37 1.761 17.2 4.285a12.408 12.408 0 0 0 1.476-5.855c0-8.305-8.356-15.853-18.674-15.853s-18.673 7.548-18.673 15.853a12.45 12.45 0 0 0 1.476 5.855c2.831-2.524 9.468-4.285 17.195-4.285z" data-name="패스 883" transform="translate(-546.01 -1337.622)"/>
                    <path id="prefix__패스_884" fill="#16b3ee" d="M566.178 1360.194c7.709 0 14.331 1.742 17.15 4.238a12.184 12.184 0 0 0 1.472-5.793c0-8.217-8.332-15.722-18.622-15.722-10.275 0-18.621 7.5-18.621 15.722a12.233 12.233 0 0 0 1.471 5.793c2.825-2.496 9.444-4.238 17.15-4.238z" data-name="패스 884" transform="translate(-546.026 -1337.678)"/>
                    <path id="prefix__패스_885" fill="#27b5ee" d="M566.186 1360.293c7.7 0 14.31 1.732 17.128 4.212a12.065 12.065 0 0 0 1.47-5.755c0-8.165-8.321-15.625-18.6-15.625s-18.6 7.461-18.6 15.625a12.106 12.106 0 0 0 1.469 5.755c2.827-2.48 9.438-4.212 17.133-4.212z" data-name="패스 885" transform="translate(-546.035 -1337.729)"/>
                    <path id="prefix__패스_886" fill="#34b7ef" d="M566.2 1360.393c7.687 0 14.29 1.72 17.1 4.184a11.94 11.94 0 0 0 1.467-5.717c0-8.11-8.31-15.529-18.571-15.529s-18.571 7.419-18.571 15.529a11.987 11.987 0 0 0 1.467 5.717c2.815-2.464 9.418-4.184 17.108-4.184z" data-name="패스 886" transform="translate(-546.043 -1337.781)"/>
                    <path id="prefix__패스_887" fill="#3fbaef" d="M566.2 1360.493c7.677 0 14.27 1.709 17.08 4.157a11.814 11.814 0 0 0 1.466-5.679c0-8.057-8.3-15.432-18.546-15.432s-18.546 7.375-18.546 15.432a11.857 11.857 0 0 0 1.465 5.68c2.816-2.451 9.409-4.157 17.081-4.158z" data-name="패스 887" transform="translate(-546.051 -1337.832)"/>
                    <path id="prefix__패스_888" fill="#49bcf0" d="M566.212 1360.593c7.667 0 14.251 1.7 17.057 4.129a11.7 11.7 0 0 0 1.464-5.642c0-8-8.288-15.335-18.521-15.335s-18.521 7.332-18.521 15.335a11.739 11.739 0 0 0 1.462 5.643c2.81-2.432 9.394-4.13 17.059-4.13z" data-name="패스 888" transform="translate(-546.06 -1337.884)"/>
                    <path id="prefix__패스_889" fill="#52bff1" d="M566.22 1360.693c7.656 0 14.231 1.687 17.034 4.1a11.57 11.57 0 0 0 1.462-5.6c0-7.95-8.278-15.238-18.5-15.238s-18.5 7.289-18.5 15.238a11.607 11.607 0 0 0 1.461 5.605c2.814-2.419 9.389-4.104 17.043-4.105z" data-name="패스 889" transform="translate(-546.068 -1337.935)"/>
                    <path id="prefix__패스_890" fill="#5bc1f1" d="M566.228 1360.793c7.646 0 14.212 1.675 17.011 4.074a11.449 11.449 0 0 0 1.46-5.567c0-7.9-8.266-15.141-18.47-15.141s-18.47 7.246-18.47 15.141a11.489 11.489 0 0 0 1.458 5.568c2.801-2.399 9.368-4.075 17.011-4.075z" data-name="패스 890" transform="translate(-546.077 -1337.987)"/>
                    <path id="prefix__패스_891" fill="#64c4f2" d="M566.237 1360.893c7.635 0 14.192 1.665 16.988 4.047a11.33 11.33 0 0 0 1.458-5.529c0-7.842-8.255-15.045-18.446-15.045s-18.446 7.2-18.446 15.045a11.358 11.358 0 0 0 1.456 5.53c2.799-2.384 9.353-4.048 16.99-4.048z" data-name="패스 891" transform="translate(-546.085 -1338.038)"/>
                    <path id="prefix__패스_892" fill="#6cc7f3" d="M566.245 1360.992c7.625 0 14.173 1.654 16.965 4.02a11.21 11.21 0 0 0 1.455-5.492c0-7.789-8.244-14.948-18.42-14.948s-18.421 7.16-18.421 14.948a11.24 11.24 0 0 0 1.454 5.492c2.796-2.366 9.344-4.018 16.967-4.02z" data-name="패스 892" transform="translate(-546.093 -1338.089)"/>
                    <path id="prefix__패스_893" fill="#74c9f3" d="M566.253 1361.092c7.615 0 14.153 1.642 16.941 3.992a11.085 11.085 0 0 0 1.454-5.453c0-7.736-8.233-14.852-18.4-14.852s-18.4 7.117-18.4 14.851a11.111 11.111 0 0 0 1.452 5.455c2.8-2.35 9.341-3.992 16.953-3.993z" data-name="패스 893" transform="translate(-546.101 -1338.141)"/>
                    <path id="prefix__패스_894" fill="#7bccf4" d="M566.261 1361.192c7.6 0 14.133 1.632 16.918 3.965a10.97 10.97 0 0 0 1.452-5.416c0-7.682-8.222-14.755-18.37-14.755s-18.37 7.073-18.37 14.755a11 11 0 0 0 1.449 5.417c2.789-2.334 9.319-3.965 16.921-3.966z" data-name="패스 894" transform="translate(-546.11 -1338.192)"/>
                    <path id="prefix__패스_895" fill="#83cff5" d="M566.27 1361.292c7.594 0 14.113 1.62 16.895 3.937a10.848 10.848 0 0 0 1.449-5.378c0-7.629-8.211-14.658-18.344-14.658s-18.345 7.03-18.345 14.657a10.872 10.872 0 0 0 1.447 5.38c2.785-2.317 9.306-3.937 16.898-3.938z" data-name="패스 895" transform="translate(-546.118 -1338.244)"/>
                    <path id="prefix__패스_896" fill="#8ad1f5" d="M566.278 1361.392c7.583 0 14.094 1.609 16.872 3.91a10.728 10.728 0 0 0 1.448-5.341c0-7.576-8.2-14.562-18.319-14.562s-18.32 6.987-18.32 14.562a10.75 10.75 0 0 0 1.445 5.341c2.78-2.302 9.296-3.909 16.874-3.91z" data-name="패스 896" transform="translate(-546.126 -1338.295)"/>
                    <path id="prefix__패스_897" fill="#91d4f6" d="M566.287 1361.492c7.572 0 14.074 1.6 16.848 3.883a10.615 10.615 0 0 0 1.445-5.3c0-7.522-8.189-14.465-18.293-14.465s-18.3 6.945-18.3 14.465a10.631 10.631 0 0 0 1.443 5.3c2.782-2.285 9.286-3.882 16.857-3.883z" data-name="패스 897" transform="translate(-546.134 -1338.347)"/>
                    <path id="prefix__패스_898" fill="#98d6f7" d="M566.3 1361.592c7.562 0 14.054 1.587 16.825 3.855a10.5 10.5 0 0 0 1.443-5.266c0-7.468-8.178-14.369-18.268-14.369s-18.271 6.9-18.271 14.369a10.509 10.509 0 0 0 1.44 5.266c2.77-2.268 9.266-3.854 16.831-3.855z" data-name="패스 898" transform="translate(-546.143 -1338.398)"/>
                    <path id="prefix__패스_899" fill="#9fd9f7" d="M566.3 1361.692c7.552 0 14.035 1.575 16.8 3.828a10.384 10.384 0 0 0 1.441-5.228c0-7.414-8.166-14.271-18.243-14.271s-18.246 6.858-18.246 14.271a10.392 10.392 0 0 0 1.439 5.229c2.776-2.254 9.262-3.828 16.809-3.829z" data-name="패스 899" transform="translate(-546.151 -1338.45)"/>
                    <path id="prefix__패스_900" fill="#a5dcf8" d="M566.312 1361.792c7.541 0 14.015 1.565 16.778 3.8a10.263 10.263 0 0 0 1.44-5.19c0-7.361-8.156-14.174-18.218-14.174s-18.22 6.814-18.22 14.174a10.27 10.27 0 0 0 1.436 5.191c2.772-2.237 9.244-3.799 16.784-3.801z" data-name="패스 900" transform="translate(-546.16 -1338.501)"/>
                    <path id="prefix__패스_901" fill="#acdef8" d="M566.32 1361.891c7.531 0 14 1.554 16.755 3.773a10.147 10.147 0 0 0 1.437-5.152c0-7.308-8.145-14.079-18.193-14.079s-18.2 6.772-18.2 14.078a10.154 10.154 0 0 0 1.434 5.154c2.769-2.22 9.238-3.772 16.767-3.774z" data-name="패스 901" transform="translate(-546.168 -1338.552)"/>
                    <path id="prefix__패스_902" fill="#b2e1f9" d="M566.329 1361.991c7.52 0 13.976 1.542 16.732 3.746a10.029 10.029 0 0 0 1.436-5.115c0-7.254-8.134-13.982-18.168-13.982s-18.171 6.729-18.171 13.982a10.04 10.04 0 0 0 1.432 5.117c2.76-2.206 9.22-3.746 16.739-3.748z" data-name="패스 902" transform="translate(-546.176 -1338.604)"/>
                    <path id="prefix__패스_903" fill="#b9e3f9" d="M566.337 1362.091c7.51 0 13.956 1.532 16.709 3.719a9.918 9.918 0 0 0 1.433-5.077c0-7.2-8.123-13.885-18.142-13.885s-18.145 6.686-18.145 13.885a9.92 9.92 0 0 0 1.43 5.079c2.756-2.189 9.206-3.719 16.715-3.721z" data-name="패스 903" transform="translate(-546.184 -1338.655)"/>
                    <path id="prefix__패스_904" fill="#bfe5fa" d="M566.345 1362.191c7.5 0 13.936 1.521 16.686 3.691a9.8 9.8 0 0 0 1.431-5.039c0-7.147-8.112-13.788-18.117-13.788s-18.12 6.643-18.12 13.788a9.811 9.811 0 0 0 1.428 5.042c2.752-2.173 9.194-3.692 16.692-3.694z" data-name="패스 904" transform="translate(-546.193 -1338.707)"/>
                    <path id="prefix__패스_905" fill="#c5e8fa" d="M566.354 1362.291c7.49 0 13.917 1.509 16.663 3.664a9.7 9.7 0 0 0 1.429-5c0-7.093-8.1-13.692-18.092-13.692s-18.095 6.6-18.095 13.691a9.689 9.689 0 0 0 1.425 5c2.749-2.154 9.182-3.661 16.67-3.663z" data-name="패스 905" transform="translate(-546.201 -1338.758)"/>
                    <path id="prefix__패스_906" fill="#cbeafb" d="M566.362 1362.391c7.479 0 13.9 1.5 16.639 3.636a9.576 9.576 0 0 0 1.427-4.964c0-7.04-8.089-13.595-18.066-13.595s-18.07 6.556-18.07 13.594a9.578 9.578 0 0 0 1.423 4.966c2.746-2.139 9.17-3.635 16.647-3.637z" data-name="패스 906" transform="translate(-546.209 -1338.81)"/>
                    <path id="prefix__패스_907" fill="#d1edfb" d="M566.371 1362.49c7.468 0 13.877 1.487 16.615 3.609a9.462 9.462 0 0 0 1.425-4.927c0-6.986-8.079-13.5-18.041-13.5s-18.045 6.513-18.045 13.5a9.457 9.457 0 0 0 1.421 4.928c2.743-2.122 9.154-3.607 16.625-3.61z" data-name="패스 907" transform="translate(-546.218 -1338.861)"/>
                    <path id="prefix__패스_908" fill="#d7effc" d="M566.379 1362.59c7.457 0 13.857 1.475 16.592 3.581a9.348 9.348 0 0 0 1.423-4.889c0-6.932-8.067-13.4-18.015-13.4s-18.02 6.47-18.02 13.4a9.349 9.349 0 0 0 1.419 4.891c2.738-2.107 9.144-3.58 16.601-3.583z" data-name="패스 908" transform="translate(-546.226 -1338.913)"/>
                    <path id="prefix__패스_909" fill="#ddf2fc" d="M566.388 1362.69c7.447 0 13.838 1.465 16.569 3.554a9.239 9.239 0 0 0 1.421-4.851c0-6.88-8.057-13.305-17.99-13.305s-18 6.427-18 13.3a9.231 9.231 0 0 0 1.417 4.853c2.738-2.086 9.136-3.548 16.583-3.551z" data-name="패스 909" transform="translate(-546.234 -1338.964)"/>
                    <path id="prefix__패스_910" fill="#e3f4fd" d="M566.4 1362.79c7.437 0 13.818 1.454 16.546 3.526a9.127 9.127 0 0 0 1.419-4.813c0-6.826-8.045-13.208-17.965-13.208s-17.97 6.383-17.97 13.208a9.124 9.124 0 0 0 1.414 4.816c2.727-2.075 9.116-3.526 16.556-3.529z" data-name="패스 910" transform="translate(-546.243 -1339.016)"/>
                    <path id="prefix__패스_911" fill="#e9f6fd" d="M566.4 1362.89c7.426 0 13.8 1.442 16.523 3.5a9.022 9.022 0 0 0 1.417-4.776c0-6.773-8.035-13.112-17.94-13.112s-17.945 6.341-17.945 13.111a9 9 0 0 0 1.413 4.778c2.732-2.059 9.111-3.498 16.532-3.501z" data-name="패스 911" transform="translate(-546.251 -1339.067)"/>
                    <path id="prefix__패스_912" fill="#eff9fe" d="M566.413 1362.989c7.416 0 13.778 1.432 16.5 3.472a8.911 8.911 0 0 0 1.415-4.738c0-6.719-8.024-13.015-17.914-13.015s-17.92 6.3-17.92 13.015a8.9 8.9 0 0 0 1.41 4.74c2.723-2.042 9.096-3.47 16.509-3.474z" data-name="패스 912" transform="translate(-546.259 -1339.118)"/>
                    <path id="prefix__패스_913" fill="#f5fbfe" d="M566.421 1363.09c7.405 0 13.759 1.421 16.476 3.445a8.8 8.8 0 0 0 1.413-4.7c0-6.665-8.013-12.918-17.89-12.918s-17.895 6.255-17.895 12.918a8.788 8.788 0 0 0 1.408 4.7c2.721-2.025 9.083-3.442 16.488-3.445z" data-name="패스 913" transform="translate(-546.267 -1339.17)"/>
                    <path id="prefix__패스_914" fill="#fafdff" d="M566.429 1363.189c7.395 0 13.739 1.41 16.453 3.418a8.69 8.69 0 0 0 1.411-4.663c0-6.612-8-12.822-17.864-12.822s-17.87 6.211-17.87 12.821a8.676 8.676 0 0 0 1.406 4.665c2.717-2.008 9.069-3.415 16.464-3.419z" data-name="패스 914" transform="translate(-546.276 -1339.221)"/>
                    <path id="prefix__패스_915" d="M566.438 1363.289c7.384 0 13.72 1.4 16.43 3.39a8.577 8.577 0 0 0 1.409-4.625c0-6.558-7.99-12.725-17.839-12.725s-17.845 6.169-17.845 12.724a8.565 8.565 0 0 0 1.4 4.628c2.717-1.993 9.06-3.388 16.445-3.392z" class="prefix__cls-2" data-name="패스 915" transform="translate(-546.284 -1339.273)"/>
                </g>
            </g>
        </g>
    </g>
    <path id="prefix__패스_917" d="M566.58 1359.2a50.214 50.214 0 0 0-17.41 2.949 19.066 19.066 0 0 0 34.829 0 50.267 50.267 0 0 0-17.419-2.949z" class="prefix__cls-3" data-name="패스 917" transform="translate(-546.582 -1334.459)"/>
</svg>
