<svg xmlns="http://www.w3.org/2000/svg" width="170" height="242">
    <defs>
        <style>
            .cls-3{fill:#fff}.cls-4{fill:#b8b1b1}.cls-5{fill:#d0d0d0}.cls-6{fill:#f2f2f2}.cls-7{fill:#a5a5a5}
        </style>
    </defs>
    <g id="그룹_56679" data-name="그룹 56679" transform="translate(-3737.957 -1270.383)" style="opacity:.5">
        <path id="패스_44825" data-name="패스 44825" d="M3907.262 1666.389h-145.423c-1.75 0-3.182-3.029-3.182-6.731l8.592-26.927c0-3.7 3.978-6.732 5.728-6.732h119.648c1.75 0 4.455 4.712 4.137 4.039l13.365 29.619c.317 3.703-1.115 6.732-2.865 6.732z" transform="translate(-8.79 -154.006)" style="fill:#e9e7e7"/>
        <g id="그룹_56679-2" data-name="그룹 56679" transform="translate(3783.15 1425.063)">
            <path id="패스_44826" data-name="패스 44826" class="cls-3" d="M3888.923 1605.918c9.16 0 17.779-7.9 17.779-24.694 0-17.61-10.607-36.052-23.282-32.862s-20.245 3.206-20.245 3.206-10.122-5.574-20.511-1.863-22.154 21.228-20.91 40.409 24.834 15.908 24.834 15.908 33.175-.104 42.335-.104z" transform="translate(-3819.104 -1545.44)"/>
            <path id="패스_44827" data-name="패스 44827" class="cls-4" d="M3840.824 1606.857c-4.523 0-11.788-.776-17.1-5.111-3.917-3.194-6.09-7.7-6.46-13.406-1.3-20.107 10.865-38.792 22.6-42.985 9.9-3.536 19.395.457 21.951 1.7a97.9 97.9 0 0 0 19.041-3.111c4.552-1.144 9.148-.046 13.289 3.182 7.759 6.048 13.178 19.273 13.178 32.162 0 8.384-2.083 15.388-6.025 20.256a18.2 18.2 0 0 1-14.314 7c-8.726 0-39.664.1-42.168.1a34.407 34.407 0 0 1-3.992.213zm7.457-57.8a19.841 19.841 0 0 0-6.695 1.117c-8.844 3.16-20.434 19.081-19.217 37.833.278 4.277 1.774 7.468 4.573 9.758 6.36 5.2 17.251 3.794 17.359 3.78l.341-.024c.332 0 33.284-.1 42.342-.1a13.161 13.161 0 0 0 10.335-5.1c3.2-3.945 4.884-9.835 4.884-17.033 0-11.236-4.712-23.063-11.205-28.124-2.892-2.254-5.883-3.014-8.892-2.255-12.832 3.231-20.543 3.282-20.865 3.282h-.661l-.578-.319a27.413 27.413 0 0 0-11.722-2.814z" transform="translate(-3817.164 -1543.5)"/>
        </g>
        <g id="그룹_56680" data-name="그룹 56680" transform="translate(3737.957 1321.214)">
            <path id="패스_44828" data-name="패스 44828" class="cls-3" d="M3866.376 1376.165c24.93 14.688 43.655 43.887 40.891 64.432-1.495 11.117-5.692 21.617-27.749 32.469-18.766 9.233-54.359 20.493-89.933 22.317-18 .923-34.643-5.9-40.534-18.932-13.5-29.875 3.042-76.3 37.193-97.376 25.521-15.753 55.585-17.375 80.132-2.91z" transform="translate(-3740.578 -1362.864)"/>
            <path id="패스_44829" data-name="패스 44829" class="cls-4" d="M3862.078 1376.558q2.571 1.52 5.031 3.215 1.186.818 2.344 1.675c.386.286.77.577 1.153.868.664.5-.583-.462.071.055l.756.6a95.257 95.257 0 0 1 8.734 7.92q2 2.054 3.881 4.222.932 1.076 1.832 2.178.447.549.887 1.1l.436.555q.339.438-.1-.133l.284.373a88.809 88.809 0 0 1 6.235 9.357q1.324 2.3 2.494 4.678.569 1.163 1.1 2.346c.173.387.322.792.51 1.172-.437-.885-.1-.238-.019-.035q.159.389.313.78a55.6 55.6 0 0 1 2.83 9.422q.224 1.119.393 2.248c.139.935-.086-.744.028.2q.079.642.136 1.286a35.527 35.527 0 0 1 .124 4.476q-.04 1.04-.146 2.076c-.018.17-.039.34-.058.51-.061.553.059-.424.059-.427-.054.329-.093.661-.143.991-.181 1.18-.4 2.354-.669 3.517a35.283 35.283 0 0 1-.949 3.345c-.191.56-.4 1.112-.618 1.663-.1.259-.388.714.114-.262-.068.133-.121.278-.181.415q-.218.487-.452.966a29.887 29.887 0 0 1-1.89 3.3c-.37.562-.763 1.106-1.164 1.646s.529-.663.11-.143c-.11.137-.219.275-.33.411q-.4.487-.811.959a39.822 39.822 0 0 1-3.251 3.286q-.938.847-1.921 1.643-.255.207-.513.411c-.214.17-.561.642-.014.014a7.627 7.627 0 0 1-1.292.96 82.829 82.829 0 0 1-11.346 6.747q-2.241 1.124-4.526 2.158-.988.449-1.984.883-.559.244-1.119.485l-.569.242.24-.1-.388.162q-5.1 2.129-10.318 3.972c-8.068 2.873-16.288 5.319-24.6 7.39a266.536 266.536 0 0 1-28.09 5.433c.821-.113-.173.023-.282.037l-.894.115q-.9.114-1.791.221-1.945.232-3.893.432-3.6.37-7.219.62a75.955 75.955 0 0 1-12.909 0c-.488-.05-.976-.109-1.463-.167-.846-.1.781.121-.059-.009-.24-.037-.48-.071-.72-.109q-1.541-.244-3.068-.576a49.373 49.373 0 0 1-5.513-1.534 58.44 58.44 0 0 1-2.447-.919c-.739-.294.712.318-.012-.005-.2-.091-.408-.18-.612-.272q-.706-.32-1.4-.667a36.68 36.68 0 0 1-4.639-2.753c-.289-.2-.571-.412-.855-.619-.61-.444.611.494.025.022-.162-.131-.326-.26-.488-.393q-1.038-.854-2-1.8-.873-.859-1.671-1.791c-.262-.307-.5-.647-.77-.943.653.707.187.238.046.045q-.239-.327-.467-.66a26.143 26.143 0 0 1-2.33-4.2c-.073-.164-.144-.33-.216-.495-.274-.629.321.787.065.151-.135-.335-.271-.67-.4-1.006q-.424-1.1-.8-2.218a54.6 54.6 0 0 1-2.111-8.771c-.059-.37-.1-.743-.164-1.113.19 1.188.012.07-.021-.213q-.145-1.224-.242-2.451-.189-2.392-.2-4.793a73.522 73.522 0 0 1 .586-9.621c.029-.23.147-.958-.018.113.031-.2.055-.4.084-.6q.086-.6.181-1.194.19-1.2.417-2.392.476-2.511 1.1-4.991a89.977 89.977 0 0 1 3.063-9.733q.448-1.185.927-2.357c.08-.2.162-.391.243-.587.29-.705-.316.735-.014.034.168-.39.336-.78.509-1.168q1.081-2.438 2.3-4.813a95.314 95.314 0 0 1 5.323-9.108q1.465-2.216 3.053-4.347c.238-.32.48-.636.72-.953.468-.617-.481.61 0 0 .135-.171.268-.342.4-.513q.878-1.109 1.791-2.191a89.161 89.161 0 0 1 7.363-7.745q2-1.863 4.117-3.6.424-.346.852-.688.257-.2.515-.407l.173-.135q.431-.335-.171.131c.013-.17.9-.678 1.05-.792q.617-.457 1.242-.9a86.249 86.249 0 0 1 10.414-6.33 83.632 83.632 0 0 1 6.157-2.9c-.79.329.054-.019.181-.071q.374-.153.749-.3.624-.249 1.251-.488 1.623-.618 3.27-1.169a81.582 81.582 0 0 1 12.485-3.117q.769-.128 1.54-.24c.167-.025 1.049-.159.119-.021.256-.038.514-.067.77-.1q1.666-.2 3.339-.335 3.073-.242 6.158-.232 3.2.01 6.383.3.763.069 1.524.154.381.043.761.089c.172.021 1.048.119.1.009 1.012.118 2.023.3 3.026.479a71.377 71.377 0 0 1 12.108 3.3q.727.269 1.449.553.361.143.721.29c.14.057.961.39.143.054.963.394 1.91.836 2.849 1.283q2.853 1.361 5.577 2.967a3.414 3.414 0 0 0 3.446-5.894 74.725 74.725 0 0 0-24.854-9.2 80.012 80.012 0 0 0-26.978-.032 89.506 89.506 0 0 0-45.458 22.67 95.181 95.181 0 0 0-14.416 17.25 98.879 98.879 0 0 0-9.943 19.753 89.7 89.7 0 0 0-4.976 20.61 70.958 70.958 0 0 0 .41 20.07 54.2 54.2 0 0 0 2.271 9 35.7 35.7 0 0 0 4.48 9.209c4.633 6.437 11.384 10.732 18.8 13.319 8.2 2.858 16.87 3.316 25.462 2.737a246.424 246.424 0 0 0 30.4-4.043 272.593 272.593 0 0 0 27.258-6.773 233.265 233.265 0 0 0 23.035-8.3c7.256-3.068 14.445-6.573 20.763-11.323 5.25-3.947 10.011-8.718 12.827-14.736a40.961 40.961 0 0 0 3.758-16.107 49.494 49.494 0 0 0-3.962-19.586 84.894 84.894 0 0 0-11.551-20 98.806 98.806 0 0 0-17.253-17.564 93.4 93.4 0 0 0-10.074-6.954 3.414 3.414 0 1 0-3.446 5.894z" transform="translate(-3738.377 -1360.301)"/>
        </g>
        <g id="그룹_56685" data-name="그룹 56685" transform="translate(3771.468 1321.057)">
            <g id="그룹_56682" data-name="그룹 56682" transform="translate(15.07 1.531)">
                <g id="그룹_56681" data-name="그룹 56681">
                    <path id="패스_44830" data-name="패스 44830" class="cls-5" d="M3851.954 1367.029c3.333 1.285 5.16 5.484 4.716 9.028-1.247 9.953-7 19.211-14.773 25.552-2.5 2.039-5.664 3.851-8.8 3.094-3.2-.773-5.281-4.132-5.5-7.421s1.052-6.493 2.555-9.426a56.5 56.5 0 0 1 13.673-17.249c2.275-1.932 5.606-4.3 8.214-2.853" transform="translate(-3825.04 -1364.432)"/>
                    <path id="패스_44831" data-name="패스 44831" class="cls-4" d="M3849.353 1367.529c-.634-.256.222.137.39.241s.309.207.461.314c-.464-.327-.176-.141-.084-.047.245.246.5.474.724.739.1.123.324.482.01.006.105.16.219.315.32.478.171.275.31.564.465.848.312.568-.171-.506.051.1.045.123.091.244.133.368.1.309.195.623.269.94.044.191.078.382.116.574.126.635-.026-.554.009.09a12.181 12.181 0 0 1-.028 1.906c.061-.616-.02.124-.033.209q-.034.222-.07.443-.111.664-.248 1.323a35.74 35.74 0 0 1-1.262 4.538q-.371 1.062-.807 2.1c.225-.534-.072.154-.1.216q-.092.206-.187.41-.283.615-.586 1.22a40.776 40.776 0 0 1-2.376 4.108q-.622.946-1.3 1.858c-.134.182-.271.363-.408.544.062-.081.29-.365-.016.019-.282.355-.566.708-.858 1.055a43.608 43.608 0 0 1-3.248 3.463q-.815.778-1.669 1.514-.426.366-.862.722c-.02.016-.65.5-.251.2-.2.147-.4.293-.6.434a15.57 15.57 0 0 1-2.124 1.26c.038-.018-.69.292-.362.167s-.412.138-.372.125a7.688 7.688 0 0 1-1.381.338c.49-.065.074-.016-.02-.017h-.7c-.691.02.251.092-.143 0-.182-.044-.367-.073-.548-.124-.16-.044-.314-.107-.474-.154-.359-.108.5.3-.022-.019-.14-.084-.288-.155-.428-.241-.124-.076-.678-.517-.2-.111a8.831 8.831 0 0 1-.723-.677c-.091-.1-.175-.2-.265-.3-.439-.485.266.433-.086-.122-.181-.287-.364-.568-.523-.869-.079-.151-.146-.307-.224-.458q-.116-.256.058.141c-.049-.127-.1-.255-.141-.385a9.4 9.4 0 0 1-.278-.984c-.03-.133-.051-.267-.081-.4-.148-.657.021.545-.017-.125-.023-.4-.046-.8-.037-1.211 0-.167.012-.335.022-.5.006-.1.137-1.063.051-.567a17.685 17.685 0 0 1 .6-2.451q.2-.606.43-1.2c.062-.159.125-.317.19-.474-.164.389.221-.48.258-.559a53.162 53.162 0 0 1 5.206-8.751c.259-.357.527-.708.79-1.062.275-.369-.364.455.116-.149l.45-.565q.907-1.125 1.871-2.2a56.235 56.235 0 0 1 3.977-4.021c.657-.6 1.326-1.189 2.015-1.753.167-.137.334-.274.505-.4-.447.342.147-.1.191-.131.364-.262.737-.511 1.122-.742s.77-.423 1.167-.618c-.444.218-.131.051-.019.016.263-.082.527-.156.791-.236.467-.141-.016-.033-.09-.009a1.822 1.822 0 0 1 .775-.018c.006.006-.637-.168-.112-.006a3.318 3.318 0 0 1 .372.108q-.459-.209-.068-.014a2.56 2.56 0 1 0 2.583-4.421c-3.971-2.065-7.954.465-11 2.988a55.153 55.153 0 0 0-7.851 8.03 59.615 59.615 0 0 0-6.428 9.789c-1.986 3.836-3.558 8.037-2.833 12.418a10.513 10.513 0 0 0 6.621 8.234c4.287 1.518 8.634-.955 11.866-3.582a44.609 44.609 0 0 0 13.008-17.6 36.47 36.47 0 0 0 1.789-5.554 20.434 20.434 0 0 0 .771-5.926 11.029 11.029 0 0 0-6.638-9.783 2.567 2.567 0 0 0-3.149 1.788 2.637 2.637 0 0 0 1.788 3.149z" transform="translate(-3823.119 -1362.464)"/>
                </g>
                <path id="패스_44832" data-name="패스 44832" class="cls-4" d="M3867.787 1371.7c.092.33.2.657.289.989.011.042.019.085.031.127.051.178-.016-.249-.013-.1.005.2.073-.269 0-.053.111-.342.048-.12-.023-.007-.058.092-.118.182-.174.274a9.854 9.854 0 0 0-.583 1.144 31.052 31.052 0 0 0-1.116 3.007.854.854 0 0 0 1.646.454c.165-.514.337-1.025.523-1.531q.111-.3.228-.6l.106-.264.051-.123c-.039.094-.042.1 0 0a10.271 10.271 0 0 1 .612-1.214c.1-.157.2-.307.285-.472a1.435 1.435 0 0 0 .091-1.007c-.083-.363-.212-.718-.311-1.076a.854.854 0 0 0-1.646.454z" transform="translate(-3841.679 -1365.992)"/>
            </g>
            <g id="그룹_56684" data-name="그룹 56684">
                <g id="그룹_56683" data-name="그룹 56683">
                    <path id="패스_44833" data-name="패스 44833" class="cls-5" d="M3835.981 1368.065a34.934 34.934 0 0 1-22.631 22.967c-4.166 1.306-9.769 1.219-11.674-2.709-1.061-2.189-.509-4.812.374-7.08 4.816-12.363 19.78-19.74 32.518-16.032" transform="translate(-3798.554 -1361.703)"/>
                    <path id="패스_44834" data-name="패스 44834" class="cls-4" d="M3831.587 1365.453a33.169 33.169 0 0 1-1.12 3.159c.234-.576-.034.073-.072.159q-.127.287-.26.572a34.193 34.193 0 0 1-2.222 4.031q-.623.97-1.308 1.9c-.083.113-.168.224-.251.336-.419.562.33-.4-.114.145-.265.324-.528.651-.8.97a35.68 35.68 0 0 1-3.216 3.3c-.572.515-1.163 1-1.761 1.488-.083.067-.387.29.021-.014-.168.125-.334.253-.5.377q-.507.372-1.027.725a34.235 34.235 0 0 1-3.97 2.331q-.468.234-.943.453c-.191.088-.382.171-.573.257-.617.281.327-.126-.063.029-.747.3-1.5.585-2.259.835a18.766 18.766 0 0 1-1.814.5 4 4 0 0 1-1.1.2c.059.007.605-.066.121-.017-.251.026-.5.052-.75.068a13.465 13.465 0 0 1-1.862 0 1.883 1.883 0 0 1-.546-.052l.322.043a10.462 10.462 0 0 1-.354-.061 9.083 9.083 0 0 1-1.025-.254c-.109-.034-.218-.077-.327-.11-.565-.17.5.266-.019 0-.249-.129-.5-.253-.735-.4-.5-.316-.063.034-.021.012-.029.015-.276-.24-.312-.274-.1-.1-.2-.195-.292-.3a4.827 4.827 0 0 1-.218-.256q.339.444.1.1c-.073-.135-.438-.844-.279-.444a5.355 5.355 0 0 1-.3-1.15c.09.569.008-.2.006-.271 0-.2 0-.4.012-.6s.025-.405.052-.606c-.073.534.106-.437.128-.531a19.427 19.427 0 0 1 .743-2.3c.229-.619-.228.5.041-.1.052-.118.1-.236.158-.353q.261-.571.552-1.127.468-.9 1.008-1.752.257-.407.53-.8c.109-.159.22-.316.332-.472.04-.055.482-.66.259-.357-.241.326.141-.177.156-.2q.181-.225.366-.446.31-.368.632-.725.71-.786 1.481-1.514t1.6-1.4l.378-.3c.311-.249-.494.358.019-.011.314-.226.625-.456.944-.675a29.3 29.3 0 0 1 3.677-2.142c.348-.17.7-.327 1.054-.489.6-.276-.511.2.1-.045.21-.083.419-.168.63-.249q1.13-.432 2.292-.769 1.114-.323 2.25-.553.567-.115 1.139-.207c.189-.03.381-.065.572-.085-.678.072-.072.014.084 0a26.09 26.09 0 0 1 4.8-.085 6.582 6.582 0 0 1 1.148.114c-.655-.177-.07-.009.083.014.191.03.38.062.571.1a24.528 24.528 0 0 1 2.447.573 2.561 2.561 0 1 0 1.361-4.937c-12.622-3.618-27.094 2.492-33.721 13.738-1.939 3.292-3.552 7.3-2.773 11.164.732 3.632 3.986 5.987 7.5 6.5a19.2 19.2 0 0 0 9.756-1.339 36.532 36.532 0 0 0 8.984-4.96 37.789 37.789 0 0 0 13.457-19.1 2.586 2.586 0 0 0-1.788-3.149 2.613 2.613 0 0 0-3.149 1.788z" transform="translate(-3796.629 -1359.771)"/>
                </g>
                <path id="패스_44835" data-name="패스 44835" class="cls-4" d="M3847.1 1365.96a14.14 14.14 0 0 1-9.352 6.948c-1.073.233-.619 1.878.454 1.646a15.812 15.812 0 0 0 10.372-7.733c.531-.962-.942-1.824-1.474-.861z" transform="translate(-3814.092 -1362.258)"/>
            </g>
        </g>
        <ellipse id="타원_1507" data-name="타원 1507" class="cls-6" cx="8.053" cy="7.897" rx="8.053" ry="7.897" transform="rotate(-14.9 7283.452 -13982.924)"/>
        <ellipse id="타원_1508" data-name="타원 1508" class="cls-6" cx="8.44" cy="8.276" rx="8.44" ry="8.276" transform="rotate(-14.9 7304.25 -13789.73)"/>
        <g id="그룹_56686" data-name="그룹 56686" transform="translate(3817.336 1404.126)">
            <ellipse id="타원_1509" data-name="타원 1509" class="cls-7" cx="5.12" cy="1.707" rx="5.12" ry="1.707" transform="rotate(-6.95 10.227 -.065)"/>
            <path id="패스_44836" data-name="패스 44836" class="cls-7" d="M3881.107 1510.74c-1.985 0-3.72-.438-3.841-1.432-.072-.592.448-1.17 1.5-1.671a12.2 12.2 0 0 1 3.62-.959c2.6-.317 5.449.04 5.605 1.323s-2.523 2.312-5.124 2.629a14.687 14.687 0 0 1-1.76.11zm3.083-3.606a14.34 14.34 0 0 0-1.732.109c-2.973.362-4.7 1.407-4.628 2s2 1.189 4.972.828 4.7-1.407 4.628-2c-.055-.466-1.268-.937-3.239-.937z" transform="translate(-3877.26 -1506.342)"/>
        </g>
        <path id="패스_44837" data-name="패스 44837" class="cls-7" d="M3885.818 1511.819a16.708 16.708 0 0 0 .46 6.106c.381 2 .877 3.969 1.331 5.95.245 1.07 1.891.617 1.646-.454-.43-1.88-.9-3.75-1.272-5.643-.335-1.708-.828-3.9-.519-5.506.205-1.073-1.439-1.533-1.646-.453z" transform="translate(-63.552 -104.236)"/>
        <path id="패스_44838" data-name="패스 44838" class="cls-4" d="M3904.4 1443.418a3.473 3.473 0 0 1-.811.185c.005.009.487-.055.133-.022a5.749 5.749 0 0 1-1.014.007 1.128 1.128 0 0 1-.23-.022c.04.012.417.065.179.023a7.149 7.149 0 0 1-.856-.2c-.133-.041-.263-.089-.394-.137-.219-.079.1.052.151.067a1.487 1.487 0 0 1-.21-.1 6.018 6.018 0 0 1-.723-.411c-.052-.034-.1-.069-.153-.1-.223-.158 0 0 .087.073-.1-.094-.214-.176-.316-.27a5.78 5.78 0 0 1-.6-.643 1.71 1.71 0 0 0-1.207-.5 1.736 1.736 0 0 0-1.206.5 1.717 1.717 0 0 0-.5 1.207 1.969 1.969 0 0 0 .5 1.207 7.775 7.775 0 0 0 8.076 2.43 1.707 1.707 0 0 0-.907-3.292z" transform="translate(-68.317 -73.999)"/>
        <path id="패스_44839" data-name="패스 44839" class="cls-4" d="M3841.6 1459.126a5.567 5.567 0 0 1 .479-.845c.157-.234-.22.246-.079.1.05-.052.094-.113.142-.167.1-.109.2-.214.308-.315q.1-.09.2-.176c.052-.044.266-.22.034-.032s-.016.016.042-.023q.109-.076.223-.146a5.81 5.81 0 0 1 .386-.218c.079-.041.16-.077.24-.116.257-.126-.317.11-.121.051.3-.091.584-.2.892-.267.072-.015.145-.027.217-.041.295-.056-.072-.015-.147.018a1.5 1.5 0 0 1 .485-.031q.242-.005.484.014c.058 0 .118.016.175.016-.471 0-.273-.04-.105-.009.144.027.288.06.429.1s.708.268.175.039a1.871 1.871 0 0 0 1.315.172 1.707 1.707 0 0 0 .407-3.119 6.7 6.7 0 0 0-5.235-.184 6.849 6.849 0 0 0-3.891 3.453 1.857 1.857 0 0 0-.173 1.315 1.745 1.745 0 0 0 .785 1.02 1.727 1.727 0 0 0 2.335-.612z" transform="translate(-43.179 -79.254)"/>
        <circle id="타원_1510" data-name="타원 1510" class="cls-4" cx="5.12" cy="5.12" r="5.12" transform="translate(3796.633 1397.718)"/>
        <circle id="타원_1511" data-name="타원 1511" class="cls-4" cx="5.12" cy="5.12" r="5.12" transform="translate(3833.871 1389.398)"/>
        <g id="그룹_56687" data-name="그룹 56687" transform="translate(3831.186 1461.118)">
            <path id="패스_44840" data-name="패스 44840" class="cls-3" d="M3905.359 1612.618c7.472.138 15.59-4.414 22.266-1.056" transform="translate(-3903.224 -1608.235)"/>
            <path id="패스_44841" data-name="패스 44841" class="cls-4" d="M3903.741 1613.169c3.911.047 7.726-.993 11.538-1.725a52.35 52.35 0 0 1 1.38-.248c.556-.092.7-.114 1.028-.153a22.14 22.14 0 0 1 2.689-.168 10.575 10.575 0 0 1 3.523.529 5.363 5.363 0 0 1 1.031.417 2.189 2.189 0 0 0 2.919-.765 2.153 2.153 0 0 0-.765-2.919c-3.824-1.873-7.927-1.7-12.019-.977-3.944.693-7.483 1.789-11.324 1.742a2.133 2.133 0 0 0 0 4.266z" transform="translate(-3901.606 -1606.653)"/>
        </g>
        <g id="그룹_56689" data-name="그룹 56689" transform="translate(3796.887 1436.506)">
            <g id="그룹_56688" data-name="그룹 56688">
                <path id="패스_44842" data-name="패스 44842" class="cls-3" d="M3854.258 1614.058c11.822-3.331 27.125-12.058 29.517-13.671 4.165-2.808 9.765-2.514 9.759-13.317 0-2.937-2.99-7.086-5.911-6.79 4.977-2.55 7.962-8.313 11.389-12.731-6-1.477-10.6 3.8-16.23 6.349s-10.426 3.592-15.468.02c-1.494-1.059-7.433-.9-6.5 3.152.64 2.79 4.186 6.092 4.591 7.263-10.858 4.265-16.208 7.866-20.352 11.277" transform="translate(-3842.925 -1565.202)"/>
                <path id="패스_44843" data-name="패스 44843" class="cls-4" d="M3853.212 1614.53a100.047 100.047 0 0 0 15.046-5.874 166.36 166.36 0 0 0 11.981-6.207c.991-.567 1.984-1.138 2.939-1.765a33.909 33.909 0 0 1 3.678-1.949 13.6 13.6 0 0 0 3.863-2.653 11.388 11.388 0 0 0 2.788-5.315c.713-3.02.9-6.288-.453-9.141-1.236-2.6-3.946-5.292-7.044-5.064l1.077 3.975c5.531-2.891 8.485-8.742 12.155-13.5a2.144 2.144 0 0 0-1.275-3.134c-4.416-1.032-8.349.841-12.008 3.145-3.676 2.314-7.185 4.5-11.475 5.288-.108.02-.217.038-.326.056-.364.064.281-.028-.082.015-.25.03-.5.052-.753.068a11.977 11.977 0 0 1-1.492 0 15.135 15.135 0 0 1-.424-.035c-.012 0-.357-.05-.139-.016s-.129-.026-.139-.028c-.141-.028-.282-.054-.421-.085a11.145 11.145 0 0 1-1.581-.481c-.226-.087-.064-.023-.018 0a7.045 7.045 0 0 1-.422-.2q-.322-.157-.634-.334c-.473-.265-.9-.6-1.367-.869a5.264 5.264 0 0 0-1.733-.618c-2.953-.519-7.044.3-7.845 3.7-.513 2.179.562 4.35 1.767 6.1.642.932 1.353 1.816 2.058 2.7.138.173.272.349.412.521.155.189-.1-.123-.1-.131.068.094.14.185.208.279.094.131.188.262.273.4.118.191.286.645.012-.069l1.49-2.624c-7.638 3.008-14.926 6.595-21.293 11.826a2.148 2.148 0 0 0 0 3.017 2.181 2.181 0 0 0 3.017 0c.271-.222.543-.444.818-.662.14-.112.283-.222.423-.333.288-.23-.37.278.111-.085.573-.433 1.151-.86 1.74-1.272q2.008-1.407 4.135-2.632a90.375 90.375 0 0 1 12.184-5.744 2.164 2.164 0 0 0 1.49-2.624 16.067 16.067 0 0 0-2.639-3.814c.215.279-.066-.091-.136-.184q-.205-.276-.4-.559a16.628 16.628 0 0 1-.746-1.151c-.1-.164-.189-.33-.276-.5-.065-.127-.285-.633-.13-.238a6.131 6.131 0 0 1-.174-.493c-.062-.207-.125-.721-.089-.219-.01-.141 0-.288-.019-.427-.038-.333-.144.426 0-.008a1.13 1.13 0 0 0 .05-.176c.021-.146.136-.12-.02.036-.354.357.422-.359.024-.021-.267.226.038-.008.1-.079.294-.309-.295.147-.016.013a2.819 2.819 0 0 0 .312-.178c.235-.155-.457.137.057-.024.244-.077.486-.141.735-.2-.018 0 .25-.051.253-.044s-.479.038-.248.035c.149 0 .3-.028.447-.034a7.158 7.158 0 0 1 .811.009c.06 0 .12.012.18.014.367.014-.217-.007-.219-.034 0 .009.347.063.381.071.106.024.523.219.616.185-.152.055-.5-.3-.172-.049.167.123.346.237.52.351a15.115 15.115 0 0 0 3.151 1.562 13.08 13.08 0 0 0 6.088.624 30.049 30.049 0 0 0 11.975-4.744 50.666 50.666 0 0 1 5.62-3.282c.224-.1 0 0-.043.014.124-.052.25-.1.375-.149q.374-.142.756-.262a11.339 11.339 0 0 1 1.444-.344c.25-.043-.04.005-.077.009.132-.013.263-.026.4-.035a8.22 8.22 0 0 1 .8-.015c.124 0 .822.06.457.013a8.533 8.533 0 0 1 .837.164l-1.275-3.134c-.867 1.124-1.681 2.287-2.495 3.45-.761 1.088-1.687 2.41-2.386 3.313a29.064 29.064 0 0 1-2.663 2.984c-.252.24-.511.474-.777.7-.106.09-.213.177-.32.266-.51.419.314-.205-.226.17a16.277 16.277 0 0 1-1.757 1.083c-1.827.955-1.036 4.13 1.077 3.975.1-.008.221 0 .325-.015.467-.058-.256-.1 0-.018.077.026.7.2.463.11-.308-.114.2.105.215.113.1.056.206.117.305.181s.2.134.3.2c-.247-.179-.053-.039.073.077.212.2.417.4.609.61.086.1.17.2.252.3-.058-.071-.208-.3.023.038a10.124 10.124 0 0 1 .876 1.531c-.163-.362.084.25.124.377.081.257.112.538.2.791.1.282.022-.34-.005-.053a3.9 3.9 0 0 0 .02.415c.007.363-.006.728-.02 1.09q-.035.929-.142 1.852c.047-.41-.043.269-.067.4-.054.3-.115.594-.186.888-.11.453-.252.893-.4 1.335-.176.512.154-.29-.071.181-.1.212-.2.422-.318.627a3.81 3.81 0 0 1-.609.934c.02-.018.346-.391.1-.139-.057.058-.107.126-.161.187q-.2.224-.418.434-.17.164-.349.317c-.059.051-.121.1-.179.15-.268.237.156-.115.157-.119-.1.214-.654.456-.856.58a21.1 21.1 0 0 1-1.818.97 30.313 30.313 0 0 0-3.442 1.838c-.877.574-1.786 1.1-2.695 1.623a168.333 168.333 0 0 1-10.859 5.7q-1.94.932-3.9 1.81a92.7 92.7 0 0 1-3.622 1.54 78.092 78.092 0 0 1-7.846 2.732 2.134 2.134 0 0 0 1.134 4.114z" transform="translate(-3841.312 -1563.617)"/>
            </g>
        </g>
        <path id="패스_44844" data-name="패스 44844" class="cls-4" d="M3892.25 1556.923a2.284 2.284 0 0 1 .544-.759c.059-.057.119-.11.18-.164.143-.127-.059.035.083-.067a4.028 4.028 0 0 1 .45-.279 4.4 4.4 0 0 1 .258-.127c-.132.06.074-.028.1-.038a4.8 4.8 0 0 1 .475-.144c.1-.024.19-.042.286-.062l.123-.022h-.02a4.861 4.861 0 0 1 .544-.035c.167 0 .335.005.5.02.035 0 .255.034.105.01.1.015.191.033.287.054a4.584 4.584 0 0 1 .519.145c.077.027.156.055.231.086-.146-.061.067.035.1.048a2.706 2.706 0 0 1 1.324 1.257c.52.968 1.993.107 1.474-.861-1.776-3.308-7.32-3.28-9.036.074-.5.976.973 1.841 1.474.862z" transform="translate(-65.707 -122.536)"/>
        <g id="그룹_56690" data-name="그룹 56690" transform="translate(3780.944 1454.843)">
            <path id="패스_44845" data-name="패스 44845" class="cls-3" d="M3840.718 1602.476c-5.2-2.509-11.365-3.988-16.718-1.822s-8.908 9.113-5.886 14.034l5.266-3.593c-2.274 1.546-1.569 5.722 1.054 6.544s5.56-2 4.952-4.686l1.539 3.4c4 .013 6.522-5.744 3.806-8.677" transform="translate(-3814.89 -1597.47)"/>
            <path id="패스_44846" data-name="패스 44846" class="cls-4" d="M3840.192 1599.015c-5.208-2.491-11.264-4.145-16.989-2.51a13.833 13.833 0 0 0-9.6 9.854 10.4 10.4 0 0 0 1.065 7.787 2.154 2.154 0 0 0 2.919.765l5.267-3.593-2.153-3.684a5.6 5.6 0 0 0-2.412 5 6.155 6.155 0 0 0 2.84 4.945 5.683 5.683 0 0 0 6.323-.608 6.236 6.236 0 0 0 2.388-6.208l-3.9 1.644 1.539 3.4a2.087 2.087 0 0 0 1.842 1.056c5.964-.1 9.224-7.931 5.314-12.318a2.133 2.133 0 0 0-3.017 3.017c.168.189.059.069-.029-.062.059.087.121.171.176.261.111.18.265.621.128.183.061.2.134.385.181.587.024.1.035.2.061.3-.034-.135-.028-.387-.021-.106 0 .208.017.414.008.623-.005.1-.022.209-.023.313 0-.144.07-.37.009-.1-.046.207-.087.414-.148.618-.03.1-.069.2-.1.3-.107.382.125-.212.006.009-.2.379-.411.736-.64 1.1-.144.228.244-.233.039-.06a3.039 3.039 0 0 0-.211.232c-.077.08-.5.474-.3.3s-.253.168-.355.228a2.789 2.789 0 0 0-.27.146c-.2.15.331-.092.087-.031a3.96 3.96 0 0 0-.593.173c-.219.1.344.01.1-.005-.127-.008-.273.016-.4.019l1.842 1.056-1.539-3.4a2.115 2.115 0 0 0-2.664-.873 2.161 2.161 0 0 0-1.235 2.517c.042.219.048.25.019.091-.019-.127-.024-.128-.017 0-.034.018-.035.5.03.083-.024.154-.07.3-.107.452-.026.1-.2.455-.023.1-.072.14-.152.275-.231.411-.048.084-.313.386-.059.1-.085.094-.168.189-.259.278-.041.041-.5.4-.148.155-.1.072-.208.141-.316.2 0 0-.493.242-.248.141s-.222.057-.27.076c-.35.138.136.043-.068.029-.151-.01-.308.009-.461 0 .305.01.129.013-.078-.036s-.356-.219-.009.019a1.8 1.8 0 0 0-.326-.188c-.191-.074.295.313.019.012a3.5 3.5 0 0 0-.21-.212c-.311-.289.1.221.01.018-.051-.112-.138-.214-.2-.323-.016-.031-.2-.465-.086-.16s-.028-.113-.047-.178c-.035-.121-.046-.258-.09-.373-.091-.234.017.5 0 .035-.009-.257 0-.505.009-.762 0 .138-.083.389 0 .121a4.05 4.05 0 0 0 .123-.431c-.022.128-.182.338-.04.1a2.027 2.027 0 0 0 .188-.318c.062-.185-.281.254-.009.026.1-.083.462-.368.032-.059a2.194 2.194 0 0 0 .765-2.919 2.153 2.153 0 0 0-2.918-.765l-5.267 3.593 2.919.765c-.11-.185-.212-.373-.313-.564-.03-.056-.189-.407-.082-.158.1.229-.016-.046-.027-.08a11.619 11.619 0 0 1-.363-1.374c.084.431 0-.052-.014-.225a8.02 8.02 0 0 1-.017-.62c0-.239.021-.474.036-.712 0-.04.035-.341 0-.073-.036.307.035-.191.046-.25a10.135 10.135 0 0 1 .316-1.233c.076-.233.161-.464.251-.692-.151.385.1-.2.166-.336a11.774 11.774 0 0 1 .65-1.137c.136-.211.281-.416.428-.62-.226.312.165-.2.257-.3a12.112 12.112 0 0 1 .919-.95c.185-.171.377-.333.571-.5.019-.016.268-.2.081-.065-.212.157.2-.137.241-.165a10.819 10.819 0 0 1 1.125-.673c.082-.043.755-.347.337-.175.3-.123.6-.232.912-.332a12.038 12.038 0 0 1 3.2-.613c.56-.032 1.123-.035 1.684-.012q.484.02.967.064l.363.036c.071.007.535.071.279.033a27.255 27.255 0 0 1 7.671 2.431 2.192 2.192 0 0 0 2.919-.765 2.152 2.152 0 0 0-.765-2.919z" transform="translate(-3813.287 -1595.852)"/>
        </g>
        <path id="패스_44847" data-name="패스 44847" class="cls-4" d="M3973.224 1305.736a18.226 18.226 0 0 1-6.99 1.172 6.058 6.058 0 0 1-4.443-2.446c-2.029-3.12.733-7.12 3.429-8.767a9.021 9.021 0 0 1 8.439-.751 7.023 7.023 0 0 1 3.787 6.567c-.021 2.9-1.5 5.977-4.415 6.907l.83.219c-2.825-2.67-3.6-7.519-1.168-10.713a3.47 3.47 0 0 1 4.968-.907 5.748 5.748 0 0 1 2.224 5.5 17.243 17.243 0 0 1-2.777 6.72c-.993 1.624-2.338 3.5-4.22 4.142a3.361 3.361 0 0 1-4.128-1.759 5.792 5.792 0 0 1-.084-5.1 16.279 16.279 0 0 1 4.134-5.088 29.38 29.38 0 0 1 5.354-4.224 7.746 7.746 0 0 1 5.885-1.028 5.156 5.156 0 0 1 3.69 3.173c.629 2.133-1.011 4.293-2.027 6.036a34.309 34.309 0 0 1-3.985 5.775c-2.833 3.151-7.408 5.687-11.681 3.942-3.3-1.348-4.88-4.817-5.627-8.086a38.57 38.57 0 0 1-.492-12.342c.422-4.072 1.842-8.139 5.216-10.674a14.774 14.774 0 0 1 9.64-2.792 13.075 13.075 0 0 1 9.042 4.193 15.724 15.724 0 0 1 .11 19.977c-2.5 2.856-7.035 5.222-10.712 3.1-2.793-1.612-3.916-5.344-3.159-8.367.874-3.492 4.286-5.506 7.732-5.644a10.058 10.058 0 0 1 9.25 5.331 13.029 13.029 0 0 1 .646 11.446 6.452 6.452 0 0 1-3.952 3.746l.83.219c-1.187-1.25-2.235-3.195-1.565-4.95a2.672 2.672 0 0 1 3.155-1.587c1.613.63 1.172 3.031.857 4.309a10.5 10.5 0 0 1-2.492 4.893c-2.349 2.4-7.044 2.66-8.124-1.14-.941-3.311.858-7.077 2.781-9.692a17.506 17.506 0 0 1 8.14-6.079 7.058 7.058 0 0 1 2.686-.62c.952.075 1.088 1.025 1.114 1.811a23.807 23.807 0 0 1-.339 4.82c-.529 3.045-1.913 6.286-5.241 7.014-3.651.8-7.2-2.177-9.592-4.549a34.136 34.136 0 0 1-1.936-2.071 2.881 2.881 0 0 1-.9-2.623 12.052 12.052 0 0 1 2.884-4.765 17.818 17.818 0 0 1 8.934-5.422 16.352 16.352 0 0 1 2.573-.429l-.823-.626a2.735 2.735 0 0 1-1.525 3.166c-.992.471-.126 1.943.861 1.473a4.438 4.438 0 0 0 2.309-5.093.861.861 0 0 0-.823-.626 19.389 19.389 0 0 0-11.614 5.222 17.829 17.829 0 0 0-3.9 5.268 4.847 4.847 0 0 0-.48 3.607 8.036 8.036 0 0 0 1.885 2.725c2.853 3.137 6.963 6.941 11.561 6.544 4.3-.371 6.635-4.075 7.4-7.975a22.833 22.833 0 0 0 .455-5.963 3.465 3.465 0 0 0-1.273-2.733 3.943 3.943 0 0 0-3.289-.222 19.225 19.225 0 0 0-10.357 7.04c-2.4 3.159-4.508 7.962-2.91 11.911 1.773 4.383 7.417 4.385 10.516 1.464a11.918 11.918 0 0 0 3.163-5.872c.478-1.94.7-4.458-1.044-5.859a3.992 3.992 0 0 0-4.976.373 4.954 4.954 0 0 0-1.09 5.693 8.685 8.685 0 0 0 1.811 2.773.853.853 0 0 0 .83.22c4.671-1.3 6.439-6.825 6.184-11.186-.263-4.508-2.53-9.132-6.619-11.331a11.529 11.529 0 0 0-12.088.725 9.223 9.223 0 0 0-2.928 10.617 8.6 8.6 0 0 0 3.477 4.407 8.479 8.479 0 0 0 6.507.795c4.533-1.171 7.931-5.019 9.452-9.321 2.827-8-.543-17.922-8.847-20.938a16.588 16.588 0 0 0-11.72.284 14.41 14.41 0 0 0-8.43 9.118 28.725 28.725 0 0 0-1.156 8.189 45.1 45.1 0 0 0 .294 6.875c.528 4.017 1.835 8.344 5.28 10.814 4.152 2.977 9.649 1.59 13.356-1.417a24.435 24.435 0 0 0 5.105-6.148 90.803 90.803 0 0 0 2.029-3.444 10.1 10.1 0 0 0 1.455-3.758c.539-4.667-4.839-7.311-8.82-6.508a15.821 15.821 0 0 0-6.847 3.785 34.1 34.1 0 0 0-5.464 5.448 8.712 8.712 0 0 0-1.914 6.433 6.116 6.116 0 0 0 3.188 4.752c4.91 2.275 8.622-3.822 10.379-7.433 1.164-2.393 2.074-5.238 1.309-7.9a6.884 6.884 0 0 0-4.556-4.753 5.4 5.4 0 0 0-5.837 2.653 9.65 9.65 0 0 0-1.32 6.592 10.01 10.01 0 0 0 2.993 5.85.858.858 0 0 0 .831.219c6.687-2.137 7.581-12.305 1.929-16.08-3.077-2.055-7.18-1.792-10.369-.147-3.45 1.78-6.651 6.056-5.365 10.122a7.058 7.058 0 0 0 5.19 4.438c2.95.721 5.988-.16 8.808-1.013a.854.854 0 0 0-.453-1.646z" transform="translate(-95.333 -3.919)"/>
        <path id="패스_44848" data-name="패스 44848" class="cls-4" d="M3998.591 1292.339c-1.978.165-.761 3 .783 2.276a1.648 1.648 0 0 0 .5-2.282 25.837 25.837 0 0 0-1.707-2.485c-2.169-3.372-3.769-7.7-2.531-11.7.985-3.19 4.074-6.123 7.556-6.066 3.91.064 6.432 4.01 8.187 7.013 1 1.709 2.1 3.911 1.4 5.925a2.848 2.848 0 0 1-2.651 1.878c-2.11.124-4.956-1.6-3.71-4.028 1.02-1.987 4.545-2.944 5.954-.877 1.114 1.634 1.093 4.075 1.125 5.981a23.867 23.867 0 0 1-.569 5.8c-.841 3.628-2.733 7.143-5.967 9.151a10.978 10.978 0 0 1-9.528 1.234 7.749 7.749 0 0 1-2.064-1.188.868.868 0 0 0-1.427.377 8.775 8.775 0 0 0 .322 6.676l.51-1.254a5.886 5.886 0 0 0-3.207 2.353.863.863 0 0 0 .51 1.253 6.833 6.833 0 0 1 4.07 5.2 7.172 7.172 0 0 1-.142 3.437 7.063 7.063 0 0 1-1.98 2.983 5.636 5.636 0 0 0-2.064 3.6 3.5 3.5 0 0 0 .994 2.529c1.34 1.436 3.389 1.97 5.018 2.986a3.051 3.051 0 0 1 1.69 2.191c.123 1.659-1.689 2.964-2.879 3.8-.893.626-.041 2.106.861 1.473 2.251-1.578 5.054-4.369 3.059-7.255-1.266-1.832-3.573-2.454-5.4-3.537-.686-.406-1.485-.942-1.62-1.793-.222-1.4 1.295-2.486 2.131-3.376a8.318 8.318 0 0 0 2.027-7.239 8.541 8.541 0 0 0-5.309-6.64l.51 1.254a4.014 4.014 0 0 1 2.187-1.569.869.869 0 0 0 .51-1.254 7.053 7.053 0 0 1-.15-5.361l-1.426.377a11.252 11.252 0 0 0 10.634 1.624 14.265 14.265 0 0 0 8.5-7.81 24.513 24.513 0 0 0 1.73-12.819c-.22-1.969-.676-4.18-2.461-5.334a5.169 5.169 0 0 0-4.255-.434c-2.854.876-5.1 4.126-3.154 6.928a5.757 5.757 0 0 0 7.647 1.4c3.953-2.832.9-8.326-1.1-11.34-2.244-3.383-5.461-6.616-9.875-5.911a10.426 10.426 0 0 0-7.945 7.594c-1.181 4.516.572 9.3 3.079 13.038.313.466.644.919.982 1.368a6.835 6.835 0 0 0 .417.62l.032.088q.121.457.787-.069-.549-.014-.584.927c1.087-.091 1.1-1.8 0-1.707z" transform="translate(-109.15)"/>
    </g>
</svg>
