<svg xmlns="http://www.w3.org/2000/svg" width="44" height="44" viewBox="0 0 44 44">
    <g data-name="그룹 83825">
        <path data-name="사각형 24446" style="fill:none" d="M0 0h44v44H0z"/>
        <g data-name="그룹 83826">
            <path data-name="패스 7052" d="M44.136 36C33.015 36 24 43.108 24 51.877c0 5.669 3.769 10.643 9.439 13.452-.308 1.064-1.982 6.843-2.049 7.3 0 0-.04.341.181.471a.607.607 0 0 0 .481.029c.634-.088 7.347-4.8 8.508-5.623a25.511 25.511 0 0 0 3.577.25c11.121 0 20.136-7.108 20.136-15.877S55.258 36 44.136 36z" transform="translate(-22.136 -32.341)" style="stroke:#000;stroke-width:2px;fill:none"/>
            <path data-name="패스 7053" d="M12.112 24.491a1.008 1.008 0 0 1-1.029-.983v-6.113H9.478a1.008 1.008 0 1 1 0-2.015h5.269a1.008 1.008 0 1 1 0 2.015h-1.606v6.113a1.008 1.008 0 0 1-1.029.983zm9.023-.013a.844.844 0 0 1-.856-.454l-.51-1.334h-3.137l-.51 1.335a.844.844 0 0 1-.856.454 1.57 1.57 0 0 1-.654-.142c-.284-.131-.556-.491-.244-1.461l2.461-6.479a1.434 1.434 0 0 1 2.743 0l2.46 6.476c.313.973.04 1.333-.243 1.463a1.573 1.573 0 0 1-.654.142zm-1.907-3.611-1.028-2.92-1.028 2.92zm4.46 3.474a.967.967 0 0 1-.986-.943v-6.989a1.051 1.051 0 0 1 2.1 0v6.045h2.187a.944.944 0 1 1 0 1.887zm5.717.137a1.03 1.03 0 0 1-1.029-1.029v-7.04a1.029 1.029 0 0 1 2.058 0v2.212l2.871-2.871a.8.8 0 0 1 .571-.229 1.042 1.042 0 0 1 1.011.956.8.8 0 0 1-.227.627l-2.342 2.344 2.533 3.356a1.03 1.03 0 0 1-1.643 1.24l-2.413-3.2-.357.357v2.245a1.031 1.031 0 0 1-1.029 1.03z"/>
        </g>
    </g>
</svg>
