<svg xmlns="http://www.w3.org/2000/svg" width="140" height="30" viewBox="0 0 140 30">
  <g id="img_kt_semo_logo" transform="translate(-86.026 -228.5)">
    <g id="그룹_23573" data-name="그룹 23573" transform="translate(86.026 228.5)">
      <g id="그룹_23572" data-name="그룹 23572">
        <path id="패스_28227" data-name="패스 28227" d="M97.717,246.385l8.431-10.414h-4.6a5.65,5.65,0,0,0-4.733,2.1l-4.439,5.481V228.5H87.924a1.9,1.9,0,0,0-1.9,1.91V258.5h4.453a1.9,1.9,0,0,0,1.9-1.907V249.12l3.608,4.446,3.069,3.794a2.858,2.858,0,0,0,2.271,1.141h6.218l-4.021-4.952ZM117.2,253.2a1.712,1.712,0,0,1-1.7-1.713V228.5h-4.456a1.9,1.9,0,0,0-1.9,1.9v22.278a5.54,5.54,0,0,0,5.8,5.817h4.895a1.9,1.9,0,0,0,1.9-1.907V253.2Z" transform="translate(-86.026 -228.5)" fill="#221e1f"/>
        <path id="패스_28228" data-name="패스 28228" d="M107.363,254.74l.01-.012a.054.054,0,0,1-.014.009Zm29.676-4.247,0-4.232-.39.418c-.015.007-1.207,1.231-4.634,1.231h-16.2a5.392,5.392,0,0,0-4.681,2.177l-.5.616a.541.541,0,0,1-.046.052l-3.214,3.973a7.417,7.417,0,0,1,4.4-1.418h20.234c2.454,0,4.814-.724,5.006-2.57A1.2,1.2,0,0,0,137.039,250.493Z" transform="translate(-100.405 -240.45)" fill="#ec1b23"/>
      </g>
    </g>
    <g id="그룹_23574" data-name="그룹 23574" transform="translate(130.002 232.487)">
      <path id="패스_28229" data-name="패스 28229" d="M229.713,252.772a19.689,19.689,0,0,0,1.9,2.789,12.636,12.636,0,0,0,1.953,2l-1.511,1.888a.624.624,0,0,1-.485.315,1.147,1.147,0,0,1-.684-.343A14.548,14.548,0,0,1,229,257.349a17.741,17.741,0,0,1-1.71-2.646,16.689,16.689,0,0,1-3.734,5.407.8.8,0,0,1-.541.286.914.914,0,0,1-.627-.4l-1.453-1.8a11.757,11.757,0,0,0,3.62-5.164,19.984,19.984,0,0,0,1.225-7.109,13.406,13.406,0,0,1,.114-2.031,1.681,1.681,0,0,1,.385-.944,1.011,1.011,0,0,1,.727-.257h2.736a3.561,3.561,0,0,0-.6,2.088,28.513,28.513,0,0,1-.456,5.349A8.43,8.43,0,0,0,229.713,252.772Zm5.643-11.657h2.48v23.4a.757.757,0,0,1-.855.858H234.53V251.985h-2.565q-.884,0-.883-.973v-2.031h3.449v-7.008Q234.53,241.115,235.356,241.115Zm7.639,24.516q0,.858-.827.858H239.6V241.544q0-.858.826-.858h2.565Z" transform="translate(-220.934 -240.686)" fill="#4c4c4c"/>
      <path id="패스_28230" data-name="패스 28230" d="M320.395,263.468v2.375a.89.89,0,0,1-.328.744,2.158,2.158,0,0,1-1.069.343,19.959,19.959,0,0,1-2.137.086H297.878v-2.146q0-.858.827-.858h8.722v-5.292h-5.074a1.573,1.573,0,0,1-1.169-.358,1.736,1.736,0,0,1-.342-1.216v-9.64a1.736,1.736,0,0,1,.342-1.216,1.574,1.574,0,0,1,1.169-.358H317.43v11.214a1.736,1.736,0,0,1-.342,1.216,1.574,1.574,0,0,1-1.169.358h-5.045v5.292h6.1A7.92,7.92,0,0,0,320.395,263.468Zm-15.961-7.809a.878.878,0,0,0,.6.143h8.209a.876.876,0,0,0,.613-.143.965.965,0,0,0,.128-.6V248.85h-8.95a.954.954,0,0,0-.6.129.881.881,0,0,0-.142.615v5.464A.886.886,0,0,0,304.434,255.658Z" transform="translate(-272.796 -244.216)" fill="#4c4c4c"/>
      <path id="패스_28231" data-name="패스 28231" d="M386.073,244.491q-.314,11.014-10.4,15.962a1.341,1.341,0,0,1-.57.172.639.639,0,0,1-.513-.315l-1.425-2.059a18.234,18.234,0,0,0,6.84-5.292,11.979,11.979,0,0,0,2.48-6.866h-7.154q-.827,0-.827-.858V243.06h10.2A1.209,1.209,0,0,1,386.073,244.491Zm6.841,5.492h3.506v2.231q0,.858-.826.858h-2.68v12.558q0,.858-.8.858h-2.65V241.544q0-.858.826-.858h2.622Z" transform="translate(-323.54 -240.686)" fill="#4c4c4c"/>
      <path id="패스_28232" data-name="패스 28232" d="M462.38,241.115h2.48v23.4a.757.757,0,0,1-.855.858h-2.451V253.13h-3.819a15.911,15.911,0,0,1-6.727,7.552,1.12,1.12,0,0,1-.6.2.733.733,0,0,1-.57-.315l-1.482-1.888a13.9,13.9,0,0,0,5.8-5.521,14.519,14.519,0,0,0,1.753-6.923h-5.5q-.827,0-.827-.858v-2.059h8.294a1.354,1.354,0,0,1,1.083.372,1.6,1.6,0,0,1,.313,1.058,23.834,23.834,0,0,1-.57,5.378h2.85v-8.153Q461.554,241.115,462.38,241.115Zm7.867,24.516q0,.858-.827.858h-2.565V241.544q0-.858.827-.858h2.565Z" transform="translate(-374.223 -240.686)" fill="#4c4c4c"/>
    </g>
  </g>
</svg>
