<svg width="48" height="48" viewBox="0 0 48 48" fill="none" xmlns="http://www.w3.org/2000/svg">
<rect width="48" height="48" rx="12" fill="#17BF98"/>
<path d="M31.4915 33.9346H16.5285C16.0944 33.9356 15.6625 33.8748 15.2456 33.7538C14.8533 33.6393 14.4791 33.4702 14.1339 33.2514C13.4647 32.8233 12.9189 32.2279 12.5503 31.5242C12.1818 30.8204 12.0032 30.0327 12.0324 29.2388C12.0489 28.8299 12.1226 28.4252 12.2515 28.0367C12.3892 27.6245 12.5847 27.2339 12.8322 26.8767L20.3137 16.0225C20.7263 15.4235 21.2784 14.9337 21.9222 14.5954C22.5661 14.2571 23.2826 14.0803 24.01 14.0803C24.7373 14.0803 25.4538 14.2571 26.0977 14.5954C26.7416 14.9337 27.2936 15.4235 27.7063 16.0225L35.1884 26.8767C35.4357 27.234 35.6311 27.6246 35.7685 28.0368C35.8973 28.4252 35.9712 28.8296 35.9882 29.2384C36.0173 30.0323 35.8388 30.8201 35.4702 31.5238C35.1017 32.2276 34.5558 32.8229 33.8866 33.2511C33.5414 33.4696 33.1671 33.6388 32.7749 33.7535C32.3579 33.8746 31.9257 33.9356 31.4915 33.9346ZM24.1412 20.8501C23.9081 20.8502 23.6786 20.9068 23.4721 21.0149C23.2657 21.1231 23.0885 21.2796 22.9557 21.4711L19.5112 26.4467C19.3612 26.6633 19.2734 26.9167 19.257 27.1796C19.2406 27.4424 19.2964 27.7048 19.4183 27.9383C19.5402 28.1717 19.7236 28.3674 19.9487 28.5043C20.1737 28.6411 20.4319 28.7138 20.6953 28.7146H27.585C27.8486 28.7143 28.1071 28.6419 28.3325 28.5052C28.5578 28.3686 28.7415 28.1728 28.8636 27.9391C28.9856 27.7055 29.0414 27.4429 29.0248 27.1798C29.0082 26.9167 28.92 26.6632 28.7696 26.4467L25.3249 21.471C25.1924 21.2797 25.0156 21.1233 24.8096 21.0152C24.6035 20.907 24.3744 20.8504 24.1417 20.85L24.1412 20.8501Z" fill="white"/>
</svg>
