<svg xmlns="http://www.w3.org/2000/svg" width="44" height="44" viewBox="0 0 44 44">
    <defs>
        <clipPath id="i8zemaik5a">
            <path data-name="사각형 24570" style="fill:none" d="M0 0h39.035v36.804H0z"/>
        </clipPath>
    </defs>
    <g data-name="그룹 83421">
        <path data-name="사각형 24566" style="fill:none" d="M0 0h44v44H0z"/>
        <g data-name="그룹 83428">
            <g data-name="그룹 83430" style="clip-path:url(#i8zemaik5a)" transform="translate(3 4)">
                <path data-name="패스 60264" d="M18.289 12.4h3.055a.75.75 0 0 1 .75.75v3.05a.75.75 0 0 1-.75.75h-3.055a.75.75 0 0 1-.75-.75v-3.049a.75.75 0 0 1 .75-.75" style="fill:#9f9f9f"/>
                <path data-name="패스 60265" d="M9.39 12.4h3.055a.75.75 0 0 1 .75.75v3.05a.75.75 0 0 1-.75.75H9.39a.75.75 0 0 1-.75-.75v-3.049a.75.75 0 0 1 .75-.75" style="fill:#9f9f9f"/>
                <path data-name="패스 60266" d="M27.188 12.4h3.055a.75.75 0 0 1 .75.75v3.05a.75.75 0 0 1-.75.75h-3.055a.75.75 0 0 1-.75-.75v-3.049a.75.75 0 0 1 .75-.75" style="fill:#9f9f9f"/>
                <path data-name="패스 60267" d="M13.438 36.8a1.25 1.25 0 0 1-1.238-1.445l1.2-7.469H5.25A5.276 5.276 0 0 1 0 22.64V5.25A5.275 5.275 0 0 1 5.246 0h28.539a5.276 5.276 0 0 1 5.25 5.246v17.39a5.276 5.276 0 0 1-5.246 5.25h-11.1l-8.361 8.542a1.251 1.251 0 0 1-.894.376M5.25 2.5A2.768 2.768 0 0 0 2.5 5.254v17.382a2.768 2.768 0 0 0 2.754 2.75h9.615a1.251 1.251 0 0 1 1.231 1.448l-.8 5.036 5.979-6.108a1.247 1.247 0 0 1 .893-.376h11.613a2.769 2.769 0 0 0 2.75-2.754V5.25a2.769 2.769 0 0 0-2.754-2.75z" style="fill:#9f9f9f"/>
                <path data-name="패스 60268" d="M18.217 12.691h3.055a.75.75 0 0 1 .75.75v3.05a.749.749 0 0 1-.749.749h-3.056a.749.749 0 0 1-.75-.748v-3.05a.75.75 0 0 1 .75-.75" style="fill:#9f9f9f"/>
                <path data-name="패스 60269" d="M9.318 12.691h3.055a.75.75 0 0 1 .75.75v3.05a.749.749 0 0 1-.749.749H9.318a.749.749 0 0 1-.75-.748v-3.05a.75.75 0 0 1 .75-.75" style="fill:#9f9f9f"/>
                <path data-name="패스 60270" d="M27.117 12.691h3.055a.75.75 0 0 1 .75.75v3.05a.749.749 0 0 1-.749.749h-3.056a.749.749 0 0 1-.75-.748v-3.05a.75.75 0 0 1 .75-.75" style="fill:#9f9f9f"/>
            </g>
        </g>
    </g>
</svg>
