<svg xmlns="http://www.w3.org/2000/svg" width="35" height="44">
    <defs>
        <clipPath id="a">
            <path data-name="사각형 3562" transform="translate(-.287 .189)" style="fill:none" d="M0 0h35v44H0z"/>
        </clipPath>
    </defs>
    <g data-name="그룹 24190">
        <g data-name="그룹 11237" style="clip-path:url(#a)" transform="translate(.287 -.189)">
            <path data-name="패스 20497" d="M34.325 62.047a17.063 17.063 0 0 1-17.163 16.964 16.965 16.965 0 1 1 0-33.927 17.063 17.063 0 0 1 17.163 16.963" transform="translate(0 -35.004)" style="fill:#ffde3b"/>
            <path data-name="패스 20498" d="M43.117 76.469a13.275 13.275 0 1 1-13.275-13.121 13.2 13.2 0 0 1 13.275 13.121" transform="translate(-12.82 -49.185)" style="fill:#ffbf3e"/>
            <path data-name="패스 20499" d="M54.893 99.849V81.037h-4.015v.13l-.1-.1-5.57 5.506 2.839 2.806 2.831-2.8v13.27z" transform="translate(-34.982 -62.919)" style="fill:#faf6eb"/>
            <path data-name="사각형 3559" transform="translate(7.983 .026)" style="fill:#e2e2e2" d="M0 0h18.043v8.62H0z"/>
            <path data-name="사각형 3560" transform="translate(13.894)" style="fill:#efefef" d="M0 0h6.221v8.673H0z"/>
            <path data-name="사각형 3561" transform="translate(7.977 8.598)" style="fill:#e0e0e0" d="M0 0h18.089v.757H0z"/>
        </g>
    </g>
</svg>
