<svg xmlns="http://www.w3.org/2000/svg" width="37.79" height="30.534" viewBox="0 0 37.79 30.534">
    <defs>
        <style>
            .cls-2{fill:#fff}
        </style>
    </defs>
    <g id="그룹_25575" transform="translate(-268.829 -237.895)">
        <g id="그룹_25573" transform="translate(268.829 237.895)">
            <path id="패스_32238" fill="#2dbdb6" d="M304.634 249.187a12.9 12.9 0 0 0-12.9-12.9h-12a12.9 12.9 0 0 0 0 25.792h11.4l2.246 4.182c.4.747 1.058.747 1.459 0l3.1-5.774a12.891 12.891 0 0 0 6.695-11.3z" transform="translate(-266.844 -236.291)"/>
        </g>
        <g id="그룹_25574" transform="translate(275.752 246.606)">
            <path id="패스_32239" d="M286.333 259.645v5.383a.762.762 0 0 1-.843.719.746.746 0 0 1-.832-.719V258a.99.99 0 0 1 1.034-1c.854 0 1.2.46 1.54 1.123l2.416 4.822v-5.271c0-.484.427-.72.876-.72a.785.785 0 0 1 .877.72v7.026a1.029 1.029 0 0 1-1.056 1c-.787 0-1.146-.4-1.585-1.247z" class="cls-2" transform="translate(-284.659 -256.94)"/>
            <path id="패스_32240" d="M301.045 258.442c0-.966.529-1.281 1.416-1.281h3.416a.781.781 0 0 1 0 1.562h-2.7c-.247 0-.394.1-.394.393v1.36h2.8a.7.7 0 0 1 .651.775.668.668 0 0 1-.651.742h-2.8v1.753c0 .292.09.393.382.393h2.81a.735.735 0 0 1 .7.786.7.7 0 0 1-.686.765h-3.551c-1.011 0-1.394-.393-1.394-1.383z" class="cls-2" transform="translate(-292.852 -257.041)"/>
            <path id="패스_32241" d="M319.124 259.435l-1.2 5.281a1.2 1.2 0 0 1-2.371.023l-1.529-6.912c-.2-.955 1.573-1.314 1.775-.27l1.1 5.675 1.225-5.552a1.086 1.086 0 0 1 2.068.023l1.327 5.529 1.1-5.765c.18-.9 1.843-.607 1.652.27l-1.484 6.968a1.223 1.223 0 0 1-2.416.023z" class="cls-2" transform="translate(-299.332 -256.92)"/>
        </g>
    </g>
</svg>
