<svg xmlns="http://www.w3.org/2000/svg" width="260" height="260" viewBox="0 0 260 260">
    <defs>
        <style>
            .cls-1{fill:#fff}.cls-2{fill:#362322}.cls-3{fill:#1bd9ac}.cls-4{fill:#ffa4b1;opacity:.53}
        </style>
    </defs>
    <g id="그룹_55694" transform="translate(-234 -381)">
        <g id="그룹_23339" transform="translate(-2808.525 -1808.226)">
            <g id="그룹_23339-2" transform="translate(3134.071 2328.22)">
                <path id="패스_27593" d="M3269.12 2506.045c-.03-9.708-.6-19.541-3.286-28.927s-8.349-18.43-17.33-23.469c-10.042-5.634-23.295-5.417-33.716-.4s-18 11.237-21.469 21.607c-2.529 7.559-4.06 18.7-4.525 26.6 0 0 8.046 30.316 37.895 32.034s42.431-27.445 42.431-27.445z" class="cls-1" transform="translate(-3186.049 -2446.695)"/>
                <path id="패스_27594" d="M3269.382 2503.541a133.637 133.637 0 0 0-1.54-21.377 57.989 57.989 0 0 0-5.748-17.958 39.627 39.627 0 0 0-11.58-13.442 35.722 35.722 0 0 0-17.281-6.348 41.157 41.157 0 0 0-18.062 2.167 55.194 55.194 0 0 0-15.222 8.474 34.662 34.662 0 0 0-9.854 11.89c-2.553 5.2-3.793 10.976-4.76 16.653q-.8 4.721-1.3 9.49-.219 2.089-.375 4.183a7.839 7.839 0 0 0 0 2.449 26.337 26.337 0 0 0 1.008 2.978 56 56 0 0 0 8.7 15.2 42.468 42.468 0 0 0 19.88 13.86 43.441 43.441 0 0 0 28.9-.825 48.251 48.251 0 0 0 18.929-13.873 55.168 55.168 0 0 0 7.646-11.523c.1-.2.192-.4.28-.605a2.828 2.828 0 0 0-.987-3.766c-1.187-.627-3.156-.424-3.766.987a44.163 44.163 0 0 1-4.633 7.872c-.4.562-.812 1.114-1.228 1.665-.268.355.4-.517.2-.259l-.167.214q-.17.217-.342.432-.37.462-.749.916-1.581 1.89-3.331 3.632a48.666 48.666 0 0 1-3.941 3.51c-.171.136-.842.632-.083.07-.183.135-.362.276-.545.412q-.609.453-1.233.885-1.16.8-2.37 1.528-1.275.763-2.6 1.433-.627.316-1.265.611-.339.156-.681.306c-.138.06-.278.116-.414.179.273-.125.525-.219.1-.046a38.826 38.826 0 0 1-6.113 1.918c-1.076.242-2.167.375-3.247.588.9-.177-.052 0-.276.028q-.426.047-.853.086-.956.087-1.915.129a45.927 45.927 0 0 1-7.325-.3c-.4-.047.722.106.123.017l-.43-.063q-.384-.059-.767-.124-.919-.157-1.83-.357-1.6-.351-3.165-.835t-3.1-1.111c-.094-.038-.188-.081-.284-.117.791.3.267.113.1.037q-.312-.137-.623-.279-.715-.329-1.416-.687a38.034 38.034 0 0 1-5.029-3.088q-.282-.205-.561-.415c-.57-.43.468.372-.1-.076q-.564-.445-1.112-.908-1.048-.887-2.035-1.842a44.621 44.621 0 0 1-3.546-3.864c-.129-.159-.259-.319-.386-.48-.086-.107-.493-.632-.161-.2s-.11-.146-.188-.25q-.2-.263-.392-.528-.72-.985-1.392-2a53.376 53.376 0 0 1-3.935-7.107q-.173-.378-.34-.757l-.159-.364-.076-.179c-.186-.428.3.71.144.342-.178-.432-.355-.863-.523-1.3-.262-.678-.51-1.361-.737-2.051-.115-.35-.212-.706-.326-1.056-.009-.027-.013-.056-.023-.082v-.012c.236.594.059.74.12.366.029-.18.023-.372.036-.554q.138-2.06.344-4.115.209-2.1.479-4.192c0-.026.094-.731.036-.277s.034-.253.038-.279q.075-.539.153-1.078.167-1.136.352-2.269c.466-2.841 1.021-5.671 1.727-8.463.334-1.32.7-2.632 1.125-3.927.2-.6.406-1.2.635-1.794q.068-.177.139-.353c.019-.046.242-.63.076-.194s.061-.139.082-.187q.112-.255.23-.508a30.664 30.664 0 0 1 1.813-3.362q.449-.719.938-1.413.229-.327.468-.648c.1-.13.5-.6 0-.007.114-.135.219-.279.331-.416a34.507 34.507 0 0 1 5.191-5.145c.155-.125.967-.7.3-.247.253-.171.49-.37.737-.55q.751-.549 1.525-1.067 1.668-1.119 3.418-2.108 1.73-.984 3.517-1.865c.619-.307 1.242-.609 1.873-.891.16-.071.322-.14.483-.211.4-.175-.619.247.025-.007.394-.156.787-.312 1.185-.457a38.891 38.891 0 0 1 4.065-1.241q1.037-.256 2.086-.455.524-.1 1.052-.186l.423-.066.423-.062q-.515.067-.2.028a40.842 40.842 0 0 1 8.628-.14c.352.034.7.075 1.056.117.722.084-.606-.1.11.017.139.023.28.042.419.065q1.148.184 2.285.443a33.94 33.94 0 0 1 4.037 1.189q.493.179.979.375c.023.01.656.281.252.1s.225.1.248.112q1.051.472 2.064 1.021a31.352 31.352 0 0 1 3.477 2.2l.409.3.081.061q.361.275-.074-.058c.139-.019.691.559.786.639q.813.682 1.58 1.414a35.26 35.26 0 0 1 2.809 3.013 9.113 9.113 0 0 1 .63.781c-.331-.5-.149-.2-.063-.081.12.16.241.32.36.482q.593.807 1.144 1.645a41.506 41.506 0 0 1 2.129 3.624q.439.841.842 1.7.212.452.413.909c.066.15.145.3.2.457-.24-.686-.019-.043.03.078q.768 1.881 1.37 3.825a70.432 70.432 0 0 1 2.213 9.689q.09.554.171 1.109c.037.247.071.494.106.741.077.544.016.121 0 .01q.177 1.362.319 2.728.256 2.484.4 4.979c.2 3.323.271 6.65.283 9.978a2.752 2.752 0 1 0 5.5 0z" class="cls-2" transform="translate(-3183.559 -2444.191)"/>
            </g>
            <g id="그룹_23340" transform="translate(3133.482 2367.603)">
                <path id="패스_27595" d="M3189.477 2524.5c-3.681 21.5-.792 40.371.717 46.3 1.829 7.185 3.424 14.6 11.566 16.983 5.332 1.56 10.544.375 13.969-3.448s4.452-10.466 4.078-15.271" class="cls-1" transform="translate(-3184.933 -2521.777)"/>
                <path id="패스_27596" d="M3184.326 2521.3a133.275 133.275 0 0 0-1.838 26.083 119.932 119.932 0 0 0 1.83 18.288c.394 2.145.926 4.255 1.485 6.363a32.422 32.422 0 0 0 3.464 8.9 16.136 16.136 0 0 0 8.153 6.667 17.12 17.12 0 0 0 11.754.211 15.277 15.277 0 0 0 8.489-7.705 26.925 26.925 0 0 0 2.468-11.128q.021-1.192-.068-2.381a2.752 2.752 0 0 0-5.5 0 26.868 26.868 0 0 1-.063 4.637 5.433 5.433 0 0 0-.074.672s.082-.566.034-.25l-.042.289q-.1.629-.224 1.253a23.15 23.15 0 0 1-.64 2.462q-.178.554-.387 1.1a1.2 1.2 0 0 0-.107.269c0-.006.22-.5.092-.217-.092.2-.181.4-.277.6a16.246 16.246 0 0 1-1.224 2.079c-.288.423.317-.37-.009.02-.115.138-.23.276-.35.411a12.546 12.546 0 0 1-.991.989c-.062.055-.45.314-.45.383 0-.011.422-.309.17-.131-.08.057-.157.116-.237.173a12.022 12.022 0 0 1-1.065.672c-.359.2-.781.335-1.123.556.011-.007.5-.191.211-.1-.091.03-.181.069-.271.1-.212.077-.427.146-.643.211q-.559.166-1.133.283c-.192.039-.386.066-.579.1-.31.059.233-.032.243-.031a2.389 2.389 0 0 0-.494.049 14.619 14.619 0 0 1-2.532-.016c-.1-.01-.206-.024-.309-.032-.323-.025.2.031.213.031a4.308 4.308 0 0 1-.729-.124q-.688-.132-1.363-.322-.577-.161-1.142-.364a4.149 4.149 0 0 0-.531-.2s.5.228.231.095c-.136-.067-.277-.126-.413-.193a13.862 13.862 0 0 1-1.865-1.117 1.026 1.026 0 0 0-.2-.151c.005 0 .432.368.229.173-.139-.133-.3-.248-.441-.375q-.4-.354-.761-.741c-.223-.236-.432-.482-.641-.731a2.127 2.127 0 0 0-.152-.19c-.009-.008.344.479.186.235-.117-.18-.252-.35-.373-.529a16.9 16.9 0 0 1-1.03-1.756c-.163-.318-.317-.642-.464-.968-.043-.1-.271-.621-.093-.207s-.07-.183-.113-.292a41.744 41.744 0 0 1-1.336-4.161c-.572-2.09-1.118-4.192-1.531-6.32-.2-1.021-.374-2.046-.533-3.074-.094-.608-.179-1.218-.265-1.827-.025-.175.089.684.019.136-.02-.152-.04-.3-.059-.457q-.064-.509-.124-1.019-.546-4.66-.738-9.353-.239-5.619-.008-11.245.126-3.056.394-6.1.142-1.611.325-3.217.086-.753.182-1.506l.048-.378c0-.033.059-.452.018-.14s.015-.108.02-.141l.071-.508q.237-1.669.522-3.33a2.819 2.819 0 0 0-1.922-3.386c-1.333-.3-3.128.4-3.386 1.922z" class="cls-2" transform="translate(-3182.437 -2519.306)"/>
            </g>
            <g id="그룹_23341" transform="translate(3181.008 2368.617)">
                <path id="패스_27597" d="M3310.786 2526.5c1.981 12.321.614 37.75-1.724 46.3-1.958 7.161-5.086 14.6-13.228 16.983-5.332 1.56-9.5.375-12.921-3.448s-4.887-10.466-4.513-15.271" class="cls-1" transform="translate(-3275.585 -2523.743)"/>
                <path id="패스_27598" d="M3305.629 2524.73q.067.419.127.839l.037.266c.044.3-.06-.458-.053-.4.02.184.047.367.069.55q.122 1.009.214 2.023c.133 1.451.228 2.905.3 4.361.157 3.271.189 6.549.147 9.825a189.469 189.469 0 0 1-1.184 19.491q-.061.526-.127 1.051l-.056.44c-.012.1-.026.193-.038.29.007-.062.094-.684.041-.3-.089.635-.18 1.27-.281 1.9-.171 1.076-.363 2.149-.6 3.212-.283 1.264-.647 2.509-1.039 3.742-.242.761-.5 1.518-.785 2.265q-.109.29-.224.578l-.1.247c-.175.44.049-.114.073-.167-.172.375-.329.755-.506 1.127-.35.739-.731 1.463-1.15 2.165q-.29.486-.6.956-.168.252-.345.5c-.05.071-.1.14-.152.21-.3.414-.079-.034.064-.074-.213.06-.563.685-.721.863q-.432.485-.9.936-.409.392-.845.755c-.176.146-.675.4-.064.059-.177.1-.338.247-.5.361a15.243 15.243 0 0 1-2.215 1.258 1.485 1.485 0 0 0-.256.116c.375-.281.358-.144.132-.057-.18.069-.36.14-.542.2-.48.171-.968.32-1.461.449-.437.114-.879.214-1.323.294a1.844 1.844 0 0 0-.4.066c.006 0 .556-.062.242-.031-.225.022-.449.048-.674.064a12.43 12.43 0 0 1-1.308.024q-.273-.01-.545-.032a2.14 2.14 0 0 0-.358-.035c.059-.045.623.105.2.024-.4-.078-.8-.157-1.2-.271-.168-.048-.334-.1-.5-.158-.11-.038-.218-.081-.328-.12-.348-.122.065.006.174.078-.312-.2-.694-.331-1.02-.52-.223-.128-1.044-.5-1.13-.744 0-.008.429.349.191.147-.071-.06-.146-.117-.217-.177q-.255-.214-.5-.44-.543-.5-1.037-1.055c-.12-.135-.234-.273-.351-.411-.312-.367.3.413-.07-.094-.254-.353-.491-.717-.714-1.09s-.439-.773-.637-1.171q-.129-.26-.25-.523c-.054-.117-.1-.237-.158-.355-.157-.346.184.475.052.118-.321-.867-.631-1.728-.87-2.622a25.491 25.491 0 0 1-.568-2.695 2.212 2.212 0 0 0-.044-.288s.069.569.035.253c-.024-.222-.052-.443-.074-.665q-.064-.653-.092-1.309a21.154 21.154 0 0 1 .036-2.473 2.767 2.767 0 0 0-2.753-2.753 2.82 2.82 0 0 0-2.753 2.753 25.806 25.806 0 0 0 1.811 11.352c1.551 3.824 4.083 7.388 7.858 9.29a15.443 15.443 0 0 0 12.188.428 19.306 19.306 0 0 0 9.294-7.161 33.282 33.282 0 0 0 4.457-9.831 49.589 49.589 0 0 0 1.531-7.107 172.662 172.662 0 0 0 1.621-20.105 129.353 129.353 0 0 0-.617-19.646c-.1-.84-.218-1.679-.351-2.516a2.762 2.762 0 0 0-3.386-1.922 2.834 2.834 0 0 0-1.923 3.386z" class="cls-2" transform="translate(-3273.083 -2521.241)"/>
            </g>
            <path id="패스_27599" d="M3262.144 2541.015l-9.64-13.8a5.1 5.1 0 0 0-8.181.177l-9.4 13.157c-2.4 4-1 8.967 4.621 8.967h18.81c3.512 0 6.146-4.581 3.79-8.501zm-10.557 1.643l-6.636.063c-1.983.019-2.458-1.718-1.6-3.126l3.359-4.641a1.809 1.809 0 0 1 2.886-.09l3.354 4.8a1.932 1.932 0 0 1-1.363 2.994z" class="cls-3" transform="translate(-73.39 -154.53)"/>
            <g id="그룹_23342" transform="translate(3160.717 2410.404)">
                <path id="패스_27600" d="M3239.6 2606.209c6.859 2.218 18.886 2.585 22.041.263" class="cls-1" transform="translate(-3236.863 -2603.447)"/>
                <path id="패스_27601" d="M3236.384 2606.358a44.657 44.657 0 0 0 10.284 1.8 39.141 39.141 0 0 0 10-.386 9.789 9.789 0 0 0 3.876-1.428 2.815 2.815 0 0 0 .987-3.766 2.785 2.785 0 0 0-3.766-.987 4.335 4.335 0 0 1-.492.3c-.086.045-.178.081-.263.129.028-.016.686-.268.172-.079a11.184 11.184 0 0 1-1.579.44c-.293.062-.589.115-.884.162-.115.019-.64.091-.141.025.528-.07-.2.021-.311.033-.728.079-1.459.128-2.191.157a46.973 46.973 0 0 1-4.76-.065q-1.259-.077-2.513-.214l-.556-.063c-.09-.011-.83-.106-.371-.045.44.059-.168-.025-.274-.041-.241-.035-.482-.073-.723-.112a35.065 35.065 0 0 1-5.034-1.171 2.776 2.776 0 0 0-3.387 1.922 2.814 2.814 0 0 0 1.923 3.386z" class="cls-2" transform="translate(-3234.383 -2600.941)"/>
            </g>
            <g id="그룹_23343" transform="translate(3202.274 2345.796)">
                <path id="패스_27602" d="M3318.911 2483.277c6.664-1.369 15.461 1.955 21.1 5.764 4.844 3.273 9.808 7.782 9.9 13.628.114 7.315-6.725 12.326-9.755 18.986a3.856 3.856 0 0 0-.424 2.687c.446 1.419 2.141 1.969 3.148 3.063 2.275 2.47-.012 6.838-3.24 7.764s-6.626-.4-9.72-1.708c0 0-14.892-15.088-1.848-25.144" class="cls-1" transform="translate(-3316.15 -2480.211)"/>
                <path id="패스_27603" d="M3317.138 2483.435c.182-.036.366-.066.549-.1.623-.121-.492.048-.079.006.349-.035.7-.072 1.047-.092a19.47 19.47 0 0 1 2.162 0q.5.029 1 .079a4.808 4.808 0 0 1 .607.069c-.075-.018-.631-.1-.121-.014.791.13 1.576.275 2.355.461a35.059 35.059 0 0 1 4.365 1.358c.326.125.675.239.988.393-.629-.309.008 0 .121.055l.385.171q1.088.491 2.145 1.046a36.8 36.8 0 0 1 3.612 2.163q.836.569 1.647 1.174c.1.074.667.478.093.066.166.119.323.254.482.382q.479.387.944.792a26.409 26.409 0 0 1 2.969 3.048c.436.525-.34-.48.053.073.077.108.155.213.229.321q.308.442.586.9t.514.934c.058.115.111.232.168.348q.185.414-.047-.129c.048.119.095.237.139.357a11.116 11.116 0 0 1 .515 1.849l.034.191q.071.459-.019-.154a1.634 1.634 0 0 1 .036.39 10.848 10.848 0 0 1 .021 1.162c0 .071-.066.927-.068.926l.051-.368q-.026.181-.058.361c-.026.149-.056.3-.088.446a13.537 13.537 0 0 1-.6 1.989 1.908 1.908 0 0 1-.133.336l.135-.323c-.048.111-.1.222-.148.332q-.192.415-.4.821c-.313.6-.656 1.19-1.018 1.766-.743 1.184-1.561 2.317-2.385 3.446a44.991 44.991 0 0 0-4.5 6.951c-.978 2.045-1.557 4.242-.341 6.34a6.933 6.933 0 0 0 1.968 2.007c.234.177.472.346.71.516.12.085.238.173.358.258q.248.185-.209-.161c.089.073.177.149.263.228.063.059.272.346.349.362-.174-.036-.362-.549-.078-.054.217.378-.034.314-.028-.12a1.764 1.764 0 0 0 .122.421c.157.519-.014-.7-.017-.151 0 .148.01.3 0 .445-.02.412-.205.311.029-.134a2.463 2.463 0 0 0-.1.448 2.14 2.14 0 0 0-.145.444q.257-.583.126-.294l-.1.216c-.1.2-.486.613-.5.826l.234-.3q-.1.127-.209.25c-.108.122-.221.241-.338.355-.072.07-.333.238-.363.328q.487-.364.235-.181c-.065.049-.132.095-.2.139q-.2.134-.416.251c-.338.184-.4.037.076 0a8.925 8.925 0 0 0-1.148.32c-.72.173.536.011-.2.022-.234 0-.468.024-.7.023s-.47-.011-.7-.03-.7-.01-.208-.013a9.822 9.822 0 0 1-2.917-.764c-.958-.331-1.9-.718-2.831-1.111l1.215.708c-.472-.479-.909-1-1.336-1.517-.194-.236-.928-1.222-.254-.307-.242-.328-.489-.65-.725-.981-.517-.729-1.007-1.477-1.461-2.247a26.327 26.327 0 0 1-1.371-2.639c-.045-.1-.088-.2-.134-.306-.147-.323.281.7.1.223-.1-.252-.2-.5-.291-.758-.186-.514-.351-1.035-.492-1.563-.13-.487-.239-.98-.324-1.477-.023-.136-.037-.274-.063-.409 0 .01.086.759.046.321-.03-.322-.062-.642-.076-.965a12.5 12.5 0 0 1 .026-1.53c.011-.14.027-.279.04-.418.042-.44-.038.3-.042.313.087-.317.114-.656.192-.978q.1-.422.238-.835.068-.209.145-.417c.259-.7-.2.406.005-.034a13.483 13.483 0 0 1 .99-1.774q.092-.136.187-.27c.064-.09.13-.179.2-.268q-.392.5-.118.158c.266-.313.531-.624.817-.92a17.672 17.672 0 0 1 1.86-1.654 2.757 2.757 0 0 0 0-3.892 2.838 2.838 0 0 0-3.893 0 15.409 15.409 0 0 0-6.127 11.06 19.968 19.968 0 0 0 2.539 10.361 34.4 34.4 0 0 0 4.508 6.586c.3.348.594.708.924 1.025a6.411 6.411 0 0 0 2.111 1.084c.678.278 1.36.544 2.054.78a17.858 17.858 0 0 0 4.591.942 9.184 9.184 0 0 0 7.535-2.845 8.124 8.124 0 0 0 2.1-7.109 6.1 6.1 0 0 0-1.976-3.211c-.516-.437-1.07-.825-1.619-1.219-.093-.067-.187-.148-.284-.207.537.326.286.238.153.109-.081-.077-.169-.148-.249-.227-.465-.463.055-.036.008.051-.016.029-.137-.277-.163-.285.2.061.189.574.1.122.164.8.1-.264.039.19-.047.372.042-.113.067-.2.043-.151.1-.3.15-.447.126-.414-.248.488.028-.057.144-.284.276-.573.424-.856a30.233 30.233 0 0 1 1.685-2.8c2.564-3.831 5.706-7.308 7.192-11.755a14.388 14.388 0 0 0 .4-7.652 16.778 16.778 0 0 0-3.622-6.864 30.8 30.8 0 0 0-5.64-5.116 39.352 39.352 0 0 0-5.92-3.636c-4.645-2.3-9.856-4.021-15.092-3.98a20.744 20.744 0 0 0-3.857.412 2.769 2.769 0 0 0-1.923 3.386 2.823 2.823 0 0 0 3.387 1.923z" class="cls-2" transform="translate(-3313.644 -2477.714)"/>
            </g>
            <g id="그룹_23344" transform="translate(3099.514 2235.156)">
                <path id="패스_27604" d="M3244.882 2286.74c21.027 16.4 34.648 45.326 29.667 63.771-2.7 9.981-7.786 19.075-29.241 26.355-18.253 6.194-52.127 12.23-84.855 9.643-16.557-1.308-30.955-9.529-34.78-22.147-8.766-28.916 11.9-69.361 45.631-84.543 25.206-11.345 52.874-9.23 73.578 6.921z" class="cls-1" transform="translate(-3120.508 -2269.544)"/>
                <path id="패스_27605" d="M3239.8 2286.11a80.276 80.276 0 0 1 8.125 7.314q1.878 1.934 3.63 3.983.875 1.023 1.72 2.073c.281.349.558.7.835 1.054.479.607-.412-.544.056.072l.406.535a88.989 88.989 0 0 1 5.983 9.047q1.3 2.251 2.458 4.579.571 1.146 1.1 2.309.264.576.52 1.157c.085.192.167.386.251.578.253.578-.25-.61.01.02a70.224 70.224 0 0 1 3.17 9.4c.379 1.486.7 2.988.958 4.5q.094.553.175 1.107c.031.215.088.887-.01-.1.018.183.047.365.069.548q.129 1.081.208 2.168a39.749 39.749 0 0 1 .078 4.378q-.037.931-.122 1.858c-.031.332-.07.663-.108.994-.073.634.122-.811.024-.182-.033.216-.065.432-.1.647a36.9 36.9 0 0 1-1.781 6.51c-.179.49-.389.969-.569 1.458.408-1.115.071-.171-.048.092q-.189.422-.392.838a28.136 28.136 0 0 1-1.583 2.829q-.434.678-.906 1.33c-.172.237-.812.9-.068.107-.231.246-.426.536-.643.8a29.749 29.749 0 0 1-2.553 2.675q-.73.675-1.5 1.306c-.2.161-1.171.865-.311.26-.341.24-.666.5-1.005.745a45.162 45.162 0 0 1-3.909 2.492c-1.526.871-3.095 1.664-4.691 2.4q-.65.3-1.3.583c-.224.1-.448.2-.673.289.735-.3-.051.018-.168.067q-1.445.592-2.911 1.133a147.3 147.3 0 0 1-19.02 5.419q-5.59 1.247-11.24 2.2-2.953.5-5.918.937-.758.111-1.516.217l-.763.105c-.864.12.68-.088-.187.025-1.033.135-2.067.268-3.1.392a244.137 244.137 0 0 1-26.481 1.752q-6.936.074-13.869-.3c-2.14-.118-4.285-.245-6.415-.483-.234-.026-.467-.056-.7-.083-.8-.092.707.107-.093-.01-.461-.068-.922-.136-1.382-.212q-1.366-.227-2.719-.522a51.922 51.922 0 0 1-5.224-1.424q-1.255-.415-2.486-.9c-.2-.08-.4-.163-.607-.243-.7-.278.644.285-.048-.018-.459-.2-.918-.4-1.372-.618a40.684 40.684 0 0 1-4.414-2.415q-1.033-.654-2.021-1.375l-.4-.3c-.491-.37.1-.042.081.064.016-.105-.957-.78-1.076-.882a30.015 30.015 0 0 1-3.3-3.293 9.221 9.221 0 0 0-.725-.885c.587.529.2.254.031.032q-.168-.228-.332-.46-.706-1-1.313-2.062-.51-.894-.942-1.831a5.356 5.356 0 0 0-.229-.512c.439.73.126.3.032.06q-.242-.611-.447-1.235a39.537 39.537 0 0 1-1.073-4.021q-.22-1.012-.394-2.033-.088-.513-.165-1.028c-.026-.171-.044-.345-.074-.516.058.334.089.691.022.146q-.27-2.18-.351-4.379a58.022 58.022 0 0 1 .333-8.634c.041-.365.087-.729.132-1.094.085-.678-.113.784-.014.106l.08-.549q.166-1.1.368-2.2.427-2.312 1.011-4.592a75.968 75.968 0 0 1 2.835-8.79q.213-.546.435-1.09l.224-.544c.267-.653-.292.676-.012.027.313-.724.63-1.446.96-2.162q1.042-2.257 2.216-4.45a86.8 86.8 0 0 1 5.035-8.265q.692-1.006 1.413-1.994.361-.495.729-.984l.246-.326.248-.326q.308-.4-.117.151a11.583 11.583 0 0 1 1.535-1.92q.848-1.03 1.727-2.035a86.037 86.037 0 0 1 6.932-7.061q1.839-1.669 3.777-3.227c.324-.26.65-.516.976-.772.574-.451-.564.425.02-.014l.5-.375q1.078-.809 2.184-1.582a76.793 76.793 0 0 1 8.527-5.177q2.306-1.2 4.692-2.236c.234-.1.468-.207.7-.3-.714.291.082-.032.19-.077q.706-.289 1.416-.567 1.529-.6 3.081-1.133a79.918 79.918 0 0 1 11.479-3.044q1.435-.268 2.88-.48c.24-.035.48-.076.72-.1-.735.082-.276.037-.116.017.56-.067 1.119-.136 1.679-.195q2.922-.306 5.861-.379 2.909-.07 5.818.094 1.3.074 2.591.2.7.066 1.407.147.351.04.7.084l.467.06q-.672-.09-.137-.016a70.7 70.7 0 0 1 10.968 2.511q1.342.429 2.664.914.662.243 1.319.5.329.129.656.261l.336.134a52.819 52.819 0 0 1 5.119 2.442q2.422 1.288 4.732 2.774 1.215.782 2.4 1.616.594.419 1.178.851.293.217.583.437c.1.077.754.582.136.1a3.439 3.439 0 0 0 2.225.922 3.2 3.2 0 0 0 2.225-.922c1.035-1.127 1.387-3.37 0-4.448a70.685 70.685 0 0 0-21.893-11.65 71.778 71.778 0 0 0-23.608-3.3 81.683 81.683 0 0 0-44.509 14.771 89.492 89.492 0 0 0-27.306 31.1c-6.014 11.37-9.836 24.369-9.217 37.322.3 6.177 1.412 12.742 4.551 18.156 3.532 6.092 9.333 10.7 15.64 13.671a52.7 52.7 0 0 0 10.792 3.734 78.491 78.491 0 0 0 12.862 1.6 222.358 222.358 0 0 0 27.793-.2 231.533 231.533 0 0 0 47.765-7.918 88.131 88.131 0 0 0 20.555-8.246 34.17 34.17 0 0 0 17.683-25.216 47.118 47.118 0 0 0-1.222-18.94c-3.612-14.158-11.766-27.339-21.918-37.743a80.211 80.211 0 0 0-7.968-7.153 3.431 3.431 0 0 0-2.225-.921 3.2 3.2 0 0 0-2.225.921c-1.052 1.143-1.398 3.379-.014 4.462z" class="cls-2" transform="translate(-3117.65 -2266.689)"/>
            </g>
            <g id="그룹_23349" transform="translate(3165.461 2200.401)">
                <g id="그룹_23346">
                    <g id="그룹_23345">
                        <path id="패스_27606" d="M3256.288 2243.7c-3.291.085-6.331-2.842-7.208-6.014-2.461-8.912-.84-18.826 3.531-26.973 1.405-2.62 3.457-5.281 6.394-5.748 3-.475 5.957 1.648 7.306 4.37s1.4 5.9 1.161 8.926a52.073 52.073 0 0 1-5.532 19.518c-1.252 2.449-3.248 5.647-5.981 5.335" class="cls-3" transform="translate(-3245.57 -2202.541)"/>
                        <path id="패스_27607" d="M3254.148 2239.2c-.187 0-.37-.007-.556-.014-.478-.017.036.024.078.015a2.35 2.35 0 0 1-.895-.229c-.109-.037-.635-.3-.127-.039-.112-.056-.224-.109-.335-.168a9 9 0 0 1-.96-.608c.381.268.1.083.027.011-.141-.132-.289-.255-.427-.39-.232-.226-.443-.468-.656-.712-.075-.087-.224-.354.013.018-.1-.163-.222-.317-.326-.481a9.006 9.006 0 0 1-.469-.839c-.048-.1-.243-.67-.065-.134-.039-.12-.087-.236-.126-.355-.108-.331-.194-.669-.28-1.007q-.3-1.191-.508-2.4-.038-.22-.073-.441c-.007-.048-.109-.78-.042-.257q-.071-.554-.124-1.111-.105-1.115-.137-2.234a35.844 35.844 0 0 1 .179-4.708l.049-.447c0-.045.1-.782.029-.266q.078-.558.172-1.114.2-1.168.468-2.322a39.59 39.59 0 0 1 1.313-4.433q.191-.53.4-1.054.082-.21.167-.418c.011-.028.3-.708.11-.267.315-.721.644-1.433 1-2.135.3-.591.607-1.178.946-1.747q.253-.426.529-.839c.111-.165.229-.325.341-.489.281-.41-.239.26.114-.151a14.124 14.124 0 0 1 1.356-1.4c.325-.288.045-.037-.028.015.155-.109.309-.219.47-.319q.161-.1.325-.19c.069-.038.7-.3.4-.2-.351.117.242-.068.251-.071.153-.045.306-.084.462-.117s.553-.027.04-.016c.127 0 .254-.017.381-.019.189 0 .38.026.568.02-.443.014-.229-.045-.066-.008a10.128 10.128 0 0 1 1.093.309c-.474-.165-.075-.031.049.031.144.071.285.147.424.228q.167.1.33.2c.069.044.581.431.154.087a8.748 8.748 0 0 1 .729.656q.138.14.271.286c.088.1.174.2.257.3l-.067-.09a9.59 9.59 0 0 1 .956 1.661c-.188-.437.083.251.092.279.049.142.1.285.139.429a12.79 12.79 0 0 1 .321 1.317c.035.186.063.372.095.559.07.423-.036-.556.015.163.027.381.063.759.079 1.14.031.8.017 1.607-.026 2.41-.039.738-.1 1.474-.177 2.209-.041.393-.087.786-.135 1.179a1.489 1.489 0 0 1-.043.313c-.036.235-.07.47-.107.7q-.381 2.4-.988 4.764a52.1 52.1 0 0 1-1.63 5.208q-.229.612-.47 1.219-.132.33-.269.659c.155-.371-.135.309-.135.31q-.549 1.251-1.162 2.471c-.32.635-.653 1.265-1.021 1.874-.192.317-.392.63-.6.933-.071.1-.145.2-.217.3.334-.467-.065.073-.145.166a8.271 8.271 0 0 1-.679.7l-.129.115q-.3.249.078-.051c-.067.11-.312.211-.417.271-.054.032-.453.324-.151.1q.277-.109-.015 0c-.1.034-.2.063-.305.089-.372.126.175-.11.156-.007a2.589 2.589 0 0 1-.655-.008 2.369 2.369 0 0 0-2.359 2.359 2.422 2.422 0 0 0 2.359 2.359c3.429.3 5.918-2.752 7.436-5.42a50.165 50.165 0 0 0 4.209-10 55.1 55.1 0 0 0 2.166-11.087c.343-3.667.255-7.465-1.421-10.826a10 10 0 0 0-8.389-5.6c-3.7-.067-6.58 2.542-8.485 5.456a36.718 36.718 0 0 0-4.153 9.348 40.658 40.658 0 0 0-1.738 10.6 37.124 37.124 0 0 0 .373 6.211 21.656 21.656 0 0 0 1.39 5.61c1.51 3.5 5.021 6.328 8.941 6.293a2.359 2.359 0 0 0 0-4.719z" class="cls-2" transform="translate(-3243.43 -2200.401)"/>
                    </g>
                    <path id="패스_27608" d="M3261.06 2267.949q-.182-.231-.368-.458l-.117-.143c-.033-.04-.166-.209-.054-.066s-.026-.069-.063-.106c-.052-.053.088.24.049.107-.033-.115.028.28.018.117 0-.025.008-.052 0-.076.005.04-.041.257-.009.082.019-.1.036-.2.052-.3a10.513 10.513 0 0 0 .117-1.35 26.377 26.377 0 0 0-.115-2.777.806.806 0 0 0-.787-.786.792.792 0 0 0-.786.786c.072.868.128 1.74.117 2.612 0 .26-.012.521-.032.781-.008.092-.016.185-.027.277 0 .035-.01.069-.013.1 0 0 .036-.234.008-.065a1.74 1.74 0 0 0 .127 1.414c.235.333.513.638.765.959a.792.792 0 0 0 1.112 0 .807.807 0 0 0 0-1.113z" class="cls-2" transform="translate(-3250.822 -2229.796)"/>
                </g>
                <g id="그룹_23348" transform="translate(11.284 4.65)">
                    <g id="그룹_23347">
                        <path id="패스_27609" d="M3269.612 2244.381a32.2 32.2 0 0 1 11.132-27.554c3.083-2.585 7.883-4.494 10.893-1.826 1.679 1.488 2.136 3.916 2.187 6.158.277 12.225-9.847 23.8-22 25.15" class="cls-3" transform="translate(-3267.09 -2211.384)"/>
                        <path id="패스_27610" d="M3269.833 2242.267a30.9 30.9 0 0 1-.144-4.262q.036-1.015.14-2.026c.021-.2.044-.4.068-.606.052-.459.008-.066-.005.023.058-.4.122-.8.193-1.2a32.377 32.377 0 0 1 1.031-4.14q.31-.968.679-1.917c.074-.189.151-.378.227-.566-.034.083-.182.416 0 0 .163-.373.33-.744.506-1.111a32.293 32.293 0 0 1 2.088-3.721q.554-.851 1.162-1.667.121-.163.245-.324c-.323.421.094-.111.133-.161q.383-.475.784-.933a30.339 30.339 0 0 1 3.024-3.007c.1-.088.206-.177.31-.263.061-.051.569-.444.129-.114q.4-.3.809-.572a18.3 18.3 0 0 1 1.927-1.078c.087-.043.417-.17-.014 0 .184-.072.368-.144.555-.21.306-.107.618-.2.933-.279.18-.045 1.1-.181.49-.121a8.1 8.1 0 0 1 1.009-.045 1.34 1.34 0 0 1 .45.028c-.409-.205-.24-.037-.011.011.145.031.288.066.43.108.024.007.572.2.218.063s.178.1.2.112c.133.073.255.168.388.239.293.158-.364-.375.041.033.137.138.277.279.417.415.418.41-.187-.371.1.136.08.14.172.273.25.415s.149.287.219.433c-.212-.446-.027-.05.017.074a8.94 8.94 0 0 1 .271.955q.055.245.1.492c.035.2.07.594.03.17a21.2 21.2 0 0 1 0 3.979c-.017.183-.039.365-.059.548-.014.127-.011.449.011-.081a6.567 6.567 0 0 1-.15.905q-.184.992-.454 1.966-.245.885-.556 1.749c-.1.288-.215.573-.327.858-.226.58.209-.453-.046.114-.076.168-.149.336-.227.5a26.127 26.127 0 0 1-1.88 3.379c-.338.515-.7 1.015-1.067 1.507.35-.465-.243.3-.32.391q-.354.427-.725.839a26.856 26.856 0 0 1-3.077 2.921c-.073.059-.567.438-.1.087-.147.111-.294.222-.443.331q-.446.326-.906.633-.918.612-1.886 1.144-.887.484-1.809.9c-.093.042-.668.267-.112.05-.171.067-.34.137-.512.2q-.514.2-1.037.368-1.047.344-2.125.586-.539.121-1.084.214c-.121.021-.243.039-.365.06q-.4.059.078-.007c-.122.016-.245.03-.367.044a2.418 2.418 0 0 0-2.359 2.359c.052 1.157 1.046 2.511 2.359 2.359a27.162 27.162 0 0 0 15.935-7.71 27.846 27.846 0 0 0 8.087-15.315c.495-3.24.62-6.721-.736-9.777a7.453 7.453 0 0 0-3.508-3.706 8.736 8.736 0 0 0-5.173-.65c-3.3.5-6.187 2.494-8.571 4.727a33.681 33.681 0 0 0-5.929 7.441 34.366 34.366 0 0 0-4.677 20.7 2.413 2.413 0 0 0 2.359 2.359 2.384 2.384 0 0 0 2.359-2.359z" class="cls-2" transform="translate(-3264.952 -2209.27)"/>
                    </g>
                    <path id="패스_27611" d="M3277.314 2263.761a12.96 12.96 0 0 1 5.406-9.057c.825-.574.04-1.938-.794-1.358a14.668 14.668 0 0 0-6.185 10.415.791.791 0 0 0 .787.786.8.8 0 0 0 .786-.786z" class="cls-2" transform="translate(-3270.083 -2230.17)"/>
                </g>
            </g>
            <ellipse id="타원_555" cx="7.422" cy="7.278" class="cls-4" rx="7.422" ry="7.278" transform="translate(3192.926 2298.895) rotate(-7.453)"/>
            <ellipse id="타원_556" cx="7.779" cy="7.628" class="cls-4" rx="7.779" ry="7.628" transform="translate(3142.047 2299.575) rotate(-7.453)"/>
            <g id="그룹_23350" transform="translate(3170.262 2296.757)">
                <ellipse id="타원_557" cx="1.573" cy="4.719" rx="1.573" ry="4.719" transform="translate(0 3.099) rotate(-80.08)"/>
                <path id="패스_27612" d="M3259.423 2388.878a13.108 13.108 0 0 1-2.232-.2c-2.378-.416-4.8-1.491-4.59-2.666s2.845-1.365 5.223-.95 4.8 1.491 4.59 2.666c-.094.542-.707.912-1.772 1.072a8.263 8.263 0 0 1-1.219.078zm-3.829-3.5c-1.491 0-2.41.341-2.477.723-.094.538 1.444 1.583 4.164 2.058a10.709 10.709 0 0 0 3.282.12c.925-.138 1.3-.423 1.334-.643.094-.54-1.444-1.583-4.165-2.059a12.459 12.459 0 0 0-2.138-.201z" transform="translate(-3252.587 -2384.503)"/>
            </g>
            <path id="패스_27613" d="M3260.024 2390.28a17.478 17.478 0 0 0-.861 7.183.808.808 0 0 0 .787.787.792.792 0 0 0 .786-.787 16.325 16.325 0 0 1 .805-6.765.787.787 0 1 0-1.517-.418z" transform="translate(-85.42 -90.05)"/>
            <path id="패스_27614" d="M3304.033 2314.864c.143.007.285.02.427.036l-.418-.056a5.621 5.621 0 0 1 1.372.369l-.375-.158a6.005 6.005 0 0 1 1.293.751l-.318-.246a5.992 5.992 0 0 1 1.056 1.059l-.246-.319a5.563 5.563 0 0 1 .678 1.168l-.158-.376q.067.165.125.334a1.678 1.678 0 0 0 .723.94 1.573 1.573 0 0 0 2.311-1.776 7.251 7.251 0 0 0-6.468-4.871 1.584 1.584 0 0 0-1.573 1.573 1.607 1.607 0 0 0 1.573 1.573z" transform="translate(-106.049 -52.953)"/>
            <path id="패스_27615" d="M3224.2 2313.515c.11-.288-.173.351-.035.077.03-.06.058-.121.089-.181a4.165 4.165 0 0 1 .224-.381c.037-.056.078-.108.114-.165.1-.157-.245.292-.074.1.1-.111.193-.222.3-.327s.216-.2.326-.3c.195-.172-.251.178-.1.072.056-.038.109-.079.165-.117a6.075 6.075 0 0 1 .774-.436c.237-.115-.294.109-.114.048.063-.021.126-.048.189-.07q.211-.073.426-.128c.144-.036.289-.063.434-.09.264-.049-.333.029-.139.02.067 0 .134-.013.2-.017.147-.009.295-.01.442-.006.067 0 .134.006.2.011.147.012.343.093-.1-.02a8.354 8.354 0 0 1 .856.224 1.581 1.581 0 0 0 1.935-1.1 1.615 1.615 0 0 0-1.1-1.935 6.491 6.491 0 0 0-8.051 3.884 1.58 1.58 0 0 0 1.1 1.935 1.617 1.617 0 0 0 1.935-1.1z" transform="translate(-67.343 -51.407)"/>
            <path id="패스_27616" d="M3298.295 2390.349a2.552 2.552 0 0 1 .373-.229c.224-.111-.076.006-.085.033.009-.025.174-.06.2-.067.068-.02.136-.036.206-.05.108-.021.258 0-.1.01.143-.005.282-.02.424-.014.053 0 .106.007.16.011.2.013-.343-.059-.047 0a3.279 3.279 0 0 1 .368.09c.07.021.139.045.207.07.28.1-.208-.1-.029-.013.115.058.23.114.341.18s.212.145.321.215c-.322-.21-.1-.079-.026-.012q.082.073.16.149c.09.09.168.189.254.282-.258-.277-.084-.11-.025-.021.03.044.059.09.086.135.036.061.071.124.1.187.131.263-.076-.225-.012-.039a3.227 3.227 0 0 1 .107.354c.011.049.048.3.016.052s0 0 0 .056c.006.129-.058.622.011.177a1.286 1.286 0 0 0 .119.909 1.179 1.179 0 0 0 2.156-.282 3.666 3.666 0 0 0-.142-1.917 4.372 4.372 0 0 0-1.042-1.6 4.673 4.673 0 0 0-3.3-1.341 3.586 3.586 0 0 0-1.991.641 1.278 1.278 0 0 0-.542.7 1.205 1.205 0 0 0 .119.909 1.192 1.192 0 0 0 1.614.423z" transform="translate(-103.225 -89.083)"/>
            <path id="패스_27617" d="M3298.42 2371.119a10.079 10.079 0 0 0-12.214 3.059 1.576 1.576 0 0 0 .564 2.152 1.621 1.621 0 0 0 2.152-.564c-.175.229.18-.2.247-.273q.212-.23.444-.443c.086-.078.173-.155.262-.229.047-.039.3-.228.065-.056.17-.122.341-.241.519-.352s.36-.216.545-.313c.1-.054.207-.106.313-.156.027-.013.291-.133.132-.063-.182.079.166-.064.2-.077.088-.032.176-.063.265-.093q.332-.111.672-.2.306-.075.617-.129c.032-.005.324-.048.137-.024-.213.027.168-.015.208-.018a8.6 8.6 0 0 1 1.256-.013c.116.007.231.023.347.03.25.015-.365-.068.065.011.206.038.41.078.614.128s.4.11.6.178c.088.03.175.063.262.1.428.158-.276-.131.139.062a1.612 1.612 0 0 0 2.153-.564 1.593 1.593 0 0 0-.564-2.152z" transform="translate(-98.208 -80.773)"/>
            <path id="패스_27618" d="M3233.353 2396c2.953 5.271 10.76 6.407 15.183 2.379l-1.906.246c6.393 4.325 15.721 2.486 20.778-3.083a14.458 14.458 0 0 0 3.2-5.631c.575-1.946-2.46-2.777-3.033-.836a8.5 8.5 0 0 1-.865 2.1c-.176.319-.366.63-.568.932q-.174.259-.36.51c-.187.252-.083.105-.04.052-.081.1-.164.2-.248.3a14.036 14.036 0 0 1-1.722 1.7 6.639 6.639 0 0 1-.745.564q-.552.383-1.135.717a13.812 13.812 0 0 1-4.349 1.642 14.661 14.661 0 0 1-4.536.174 14.4 14.4 0 0 1-2.51-.648c-.1-.036-.195-.073-.292-.111-.25-.1.018.011-.128-.055-.214-.1-.427-.2-.635-.309a12.415 12.415 0 0 1-1.222-.735 1.6 1.6 0 0 0-1.906.246 5.877 5.877 0 0 1-2.487 1.309 4.816 4.816 0 0 1-1.47.211q-.4.013-.8-.01c-.16-.009-.32-.022-.479-.04.224.025-.05-.007-.138-.022a7.118 7.118 0 0 1-2.888-1.082 4.77 4.77 0 0 1-1.093-.9c-.092-.094-.18-.193-.267-.291-.048-.054-.228-.279-.1-.114a6.73 6.73 0 0 1-.517-.808c-.99-1.767-3.708-.182-2.717 1.588z" transform="translate(-73.074 -89.228)"/>
            <circle id="타원_558" cx="4.719" cy="4.719" r="4.719" transform="translate(3150.976 2286.38)"/>
            <g id="그룹_23351" transform="translate(3079.526 2289.715)">
                <path id="패스_27619" d="M3143.736 2438.958c-5.17-2.76-9.834-3.559-11.941-9.027s-1.141-12.329 3.281-16.174a22.536 22.536 0 0 0 2.763-2.417 5.987 5.987 0 0 0-.367-7.774c-1.166-1.164-3.174-1.744-4.45-.7a8.726 8.726 0 0 0-1.466 2.138c-2.216 3.354-8.422 2.325-9.437-1.564s3.9-7.821 7.47-5.976a10.3 10.3 0 0 0 2.43 1.248c1.78.376 3.5-1.33 3.68-3.141a6.735 6.735 0 0 0-1.988-4.918c-5.5-6.23-16.846-5.644-21.673 1.119 0 0-11.093-20.481-17.021-14.766s5.584 18.538 5.584 18.538-12.857-7.359-15.548 0 15.313 14.7 15.313 14.7-3.105 37.312 38.269 50.954z" class="cls-1" transform="translate(-3082.025 -2373.247)"/>
                <path id="패스_27620" d="M3142.626 2434.085c-1.814-.962-3.714-1.744-5.553-2.656a20.427 20.427 0 0 1-2.335-1.326 2.9 2.9 0 0 0-.534-.378c.045.014.52.427.172.13-.083-.071-.168-.138-.25-.209a10.293 10.293 0 0 1-.939-.921c-.074-.083-.145-.17-.219-.253-.318-.356.12.115.115.158.012-.1-.337-.478-.4-.571a14.33 14.33 0 0 1-.746-1.376c-.168-.339.179.478.048.113-.043-.12-.092-.237-.135-.356q-.129-.353-.239-.71-.238-.764-.4-1.548c-.05-.247-.092-.495-.134-.743-.067-.393-.079.074.02.171a1.783 1.783 0 0 1-.042-.375c-.049-.5-.076-1-.079-1.507s.017-1 .06-1.5c.011-.125.025-.25.037-.374.041-.423-.072.124-.027.174-.067-.074.124-.722.145-.829q.139-.684.342-1.353.108-.354.233-.7c.042-.116.088-.23.131-.346.221-.6-.27.553.01-.021.2-.415.4-.825.638-1.222q.187-.316.393-.62c.069-.1.138-.2.21-.3.25-.346.161-.092-.041.045a10 10 0 0 0 1-1.089c.422-.4.879-.768 1.338-1.129a11.169 11.169 0 0 0 2.64-2.734c2.777-4.348.719-11.682-4.837-12.526a5.561 5.561 0 0 0-4.674 1.229 6.461 6.461 0 0 0-1.287 1.647c-.136.233-.261.472-.4.705-.068.115-.144.227-.211.342-.228.391.356-.382.133-.161-.131.13-.254.269-.385.4-.4.391.453-.278.073-.052-.156.094-.307.193-.47.277-.625.319.569-.179-.1.033-.154.049-.31.089-.467.124-.09.02-.183.032-.272.053-.333.078.659-.053.316-.043-.4.011-.791.023-1.2 0-.456-.029.723.136.032-.009-.184-.039-.367-.086-.547-.142-.266-.082-.711-.363 0 .034-.162-.091-.338-.157-.5-.248s-.313-.2-.47-.293c-.353-.22.208.154.229.181a1.892 1.892 0 0 0-.207-.18c-.134-.124-.253-.26-.38-.392-.285-.3.167.2.178.235a2.035 2.035 0 0 0-.187-.286c-.053-.09-.36-.711-.138-.228s-.028-.171-.062-.286c-.179-.622-.013.461-.01.014 0-.105-.009-.211-.007-.317.005-.378.168-.39-.043.106.077-.181.084-.419.142-.611a1.6 1.6 0 0 0 .1-.3c.008.052-.307.617-.09.222.09-.164.171-.33.27-.489.056-.09.125-.175.177-.268.156-.283-.41.459-.086.11.147-.159.288-.322.445-.472.078-.075.163-.144.241-.219.324-.31-.115.113-.176.125.162-.034.392-.271.542-.36.093-.055.188-.108.283-.158s.544-.239.11-.067c-.459.183.256-.076.35-.1a3.023 3.023 0 0 0 .542-.124c-.377.2-.565.047-.263.041.1 0 .209-.012.314-.013s.209.009.314.008c.534 0-.624-.163-.109-.015a3.943 3.943 0 0 0 .536.151c.331.045-.5-.266-.209-.088.113.069.237.123.352.19.521.3 1.01.644 1.557.9a5.568 5.568 0 0 0 5-.012 6.679 6.679 0 0 0 3.222-7.54 11.374 11.374 0 0 0-4.066-6.034 17.608 17.608 0 0 0-22.49.7 15.83 15.83 0 0 0-2.038 2.379h4.753c-1.038-1.915-2.2-3.771-3.415-5.579a38.6 38.6 0 0 0-7.668-9.016 10.5 10.5 0 0 0-5.516-2.517 6.2 6.2 0 0 0-5.236 2.327c-3.349 4.044-1.861 9.389.313 13.61a40.123 40.123 0 0 0 5.763 8.282l3.335-4.323a31.944 31.944 0 0 0-6.615-2.811c-3.635-1.09-8.349-1.543-11.219 1.495a7.584 7.584 0 0 0-2.109 5.667 10.16 10.16 0 0 0 2.406 5.49 28.828 28.828 0 0 0 8.491 6.634 57.475 57.475 0 0 0 6.69 3.257l-2.021-2.654a29.243 29.243 0 0 0 0 3.867 55.452 55.452 0 0 0 1.529 10.383 53.643 53.643 0 0 0 5.259 13.374 51.3 51.3 0 0 0 11.084 13.62 63.6 63.6 0 0 0 19.478 11.329q1.458.548 2.937 1.035a2.776 2.776 0 0 0 3.386-1.922l1.717-7.488 2.754-12.008.629-2.744a2.753 2.753 0 1 0-5.308-1.464l-1.717 7.488-2.754 12.009-.629 2.743 3.386-1.922q-1.478-.49-2.937-1.036-.686-.258-1.366-.53-.314-.125-.625-.253l-.354-.146c-.321-.132.517.224.044.019-1.732-.753-3.439-1.559-5.1-2.452q-2.329-1.248-4.542-2.7-1.018-.67-2-1.384-.483-.349-.958-.709l-.25-.191c-.238-.179.269.21.247.191-.174-.154-.367-.289-.549-.434a50.305 50.305 0 0 1-6.547-6.279q-.7-.8-1.356-1.634l-.292-.371c-.2-.259.381.5.184.239l-.122-.159q-.321-.423-.632-.853-1.169-1.615-2.2-3.322-.983-1.623-1.837-3.319-.411-.814-.792-1.645-.18-.393-.354-.79c-.054-.122-.106-.245-.159-.367-.214-.491.281.683.035.082a52.352 52.352 0 0 1-3.3-11.741q-.048-.3-.094-.609c-.043-.293-.15-1.164 0 .021-.048-.377-.1-.753-.138-1.131q-.116-1.054-.189-2.111c-.1-1.547-.049-3.073-.054-4.618a.581.581 0 0 1 0-.065 2.813 2.813 0 0 0-2.021-2.654c-.511-.209.864.373.251.105-.324-.141-.648-.284-.97-.431q-1.654-.755-3.26-1.609c-1.4-.742-2.767-1.54-4.085-2.415q-.5-.335-1-.687c-.183-.13-.363-.262-.543-.4l-.214-.161c-.418-.312.54.431.135.1-.624-.5-1.235-1.019-1.807-1.583-.25-.246-.493-.5-.726-.762-.133-.149-.258-.305-.389-.457s-.186-.367.212.28c-.059-.1-.141-.187-.207-.279a9.2 9.2 0 0 1-.542-.848c-.07-.125-.138-.252-.2-.381-.039-.08-.073-.161-.112-.24-.131-.264.276.764.121.272-.088-.276-.167-.545-.237-.826-.149-.6.036.758.017.144-.005-.164-.016-.327-.011-.492 0-.065.012-.132.011-.2 0-.432-.143.7-.057.386.04-.145.055-.3.094-.445s.087-.263.125-.4c.141-.486-.266.518-.1.222.063-.112.111-.232.173-.345.089-.162.2-.31.291-.469.19-.329-.19.263-.215.276.045-.022.111-.133.152-.174.134-.134.27-.26.409-.39.2-.187.166.075-.294.227a1.853 1.853 0 0 0 .276-.182c.142-.086.294-.152.438-.234.284-.163-.731.264-.3.126.071-.023.14-.051.21-.075.143-.048.288-.089.433-.125s.907-.155.313-.08.082 0 .221-.01c.181-.011.362-.016.543-.017.394 0 .784.03 1.177.063.691.058-.634-.111-.038-.008.19.032.381.063.57.1.4.077.8.17 1.2.274a25.316 25.316 0 0 1 2.464.792q.305.115.609.237c.221.088.979.432.021 0 .314.141.631.275.943.419.679.314 1.356.644 2.007 1.015a2.756 2.756 0 0 0 3.336-4.323c-.485-.541-.939-1.111-1.388-1.681-.359-.456.483.634.021.026-.1-.138-.208-.276-.311-.415q-.387-.522-.759-1.055c-.531-.762-1.039-1.541-1.516-2.338a29.068 29.068 0 0 1-1.4-2.621l-.3-.68c.4.888.052.11-.024-.09-.179-.472-.339-.951-.474-1.437-.118-.429-.211-.862-.29-1.3-.123-.686.046.672 0 0-.017-.279-.038-.556-.036-.835 0-.2.017-.389.027-.583.038-.672-.157.7 0 .051.044-.184.081-.368.135-.55.032-.108.076-.213.106-.322.117-.418-.366.705-.056.137.091-.168.177-.338.279-.5.052-.082.113-.159.163-.241.167-.281-.5.563-.177.229.152-.157.289-.327.45-.478.054-.052.114-.1.168-.151.287-.278-.692.441-.213.169.118-.067.24-.137.354-.209.44-.277-.716.213-.22.093.137-.034.276-.072.412-.109.26-.069.376.111-.465.058.1.006.208-.018.309-.019.131 0 .261.016.393.015.405 0-.809-.16-.413-.056.052.014.108.018.16.031.149.038.3.071.446.117.291.09.876.435-.041-.046a14.921 14.921 0 0 1 1.851 1.1c.509.368-.544-.451-.047-.034.142.119.285.236.425.358.35.3.688.62 1.017.945.64.632 1.245 1.3 1.827 1.983q.408.48.8.974c.148.185.7.954.117.14.147.206.308.4.458.6q.812 1.085 1.575 2.207a69.952 69.952 0 0 1 3.747 6.068 2.748 2.748 0 0 0 2.376 1.363 2.865 2.865 0 0 0 2.376-1.363 2.03 2.03 0 0 0 .194-.264c-.231.479-.282.35-.127.174s.279-.33.426-.489a12.124 12.124 0 0 1 .923-.9 4.819 4.819 0 0 0 .494-.411c-.031.037-.543.395-.173.139.088-.061.174-.125.262-.186q.529-.366 1.092-.679a8.451 8.451 0 0 0 1.155-.574c-.033.027-.64.253-.211.09l.226-.088c.227-.087.456-.168.687-.243.832-.271 1.7-.357 2.531-.591-.775.218-.2.027.078 0q.324-.031.65-.047.652-.034 1.3-.014c.435.014.866.053 1.3.1.492.049-.622-.107-.007 0 .24.043.479.084.717.136.854.183 1.636.515 2.465.766-.76-.23-.144-.055.076.052q.289.141.571.3a12.472 12.472 0 0 1 1.094.674c.089.061.174.125.263.186.371.255-.142-.1-.172-.138a4.308 4.308 0 0 0 .5.414 11.672 11.672 0 0 1 .926.913c.125.138.615.67.235.248a4.856 4.856 0 0 1 .5.733c.134.22.239.456.368.677.2.338-.127-.43-.023-.055.048.173.118.34.164.515a1.642 1.642 0 0 1 .094.419c.093-.4-.015-.346-.026-.092-.006.141 0 .291 0 .432 0 .493-.057-.162.026-.155.011 0-.259.839-.09.368.134-.377-.011-.013-.068.083-.24.41-.129.051.062-.029a2.034 2.034 0 0 0-.248.27c-.351.431.131-.149.145-.078a2.255 2.255 0 0 1-.3.195c-.35.234.1-.175.18-.055-.014-.021-.344.145-.334.1s.593-.014.3-.042c-.2-.019-.391.129-.075.025q.385.063-.015-.026l-.2-.065c.268.262.307.147.088.014-.12-.073-.245-.14-.365-.212-.243-.146-.479-.3-.724-.449a7.827 7.827 0 0 0-1.777-.784 7.615 7.615 0 0 0-3.647-.069 8.95 8.95 0 0 0-5.431 3.833 7.214 7.214 0 0 0-.849 6.434 7.853 7.853 0 0 0 4.656 4.5 8.625 8.625 0 0 0 5.591.209 7.9 7.9 0 0 0 2.878-1.628 10.768 10.768 0 0 0 1.876-2.618 1.6 1.6 0 0 1 .219-.333c-.474.362-.158.194-.045.106-.08.063-.5.267-.113.092s-.2.031-.178.064c.008.015.357-.123.338-.083-.026.056-.573.011-.294.058h.089q.361.024-.008-.021c-.247-.039-.249-.037-.007.008l.179.044a1.984 1.984 0 0 1 .354.115c.01.035-.514-.286-.145-.047.1.067.22.129.325.19.359.205-.068-.1-.1-.1.105-.012.379.358.458.447l.061.067q.227.275.009 0t-.006.015l.1.152a3.114 3.114 0 0 1 .332.638c-.031.029-.22-.676-.082-.154.031.117.073.23.1.346.039.14.129.775.1.342s0-.025 0 .084c.012.15.019.3.019.452a5.006 5.006 0 0 0-.039.723c-.046-.033.147-.693.014-.2-.031.116-.052.235-.082.351-.037.137-.274.717-.092.354s0-.011-.045.081c-.068.134-.14.266-.219.393a2.661 2.661 0 0 1-.2.3c-.027 0 .41-.443.069-.106-.205.2-.4.415-.61.608-.428.388-.891.735-1.343 1.094a13.4 13.4 0 0 0-2.195 2.162 16.169 16.169 0 0 0-3.074 6.17 18.428 18.428 0 0 0 1.622 13.283c2.093 3.656 5.741 5.406 9.406 7.1.94.433 1.874.88 2.789 1.365a2.753 2.753 0 1 0 2.778-4.753z" class="cls-2" transform="translate(-3079.526 -2370.75)"/>
            </g>
        </g>
        <path id="사각형_11132" fill="none" d="M0 0H260V260H0z" transform="translate(234 381)"/>
    </g>
</svg>
