<svg xmlns="http://www.w3.org/2000/svg" xmlns:xlink="http://www.w3.org/1999/xlink" width="70" height="70" viewBox="0 0 70 70">
  <defs>
    <clipPath id="clip-path">
      <circle id="타원_1651" data-name="타원 1651" cx="35" cy="35" r="35" transform="translate(-20029 -20787)" fill="#f9f9f9" stroke="#efefef" stroke-width="1"/>
    </clipPath>
  </defs>
  <g id="마스크_그룹_31" data-name="마스크 그룹 31" transform="translate(20029 20787)" clip-path="url(#clip-path)">
    <g id="그룹_57215" data-name="그룹 57215" transform="translate(-21896.574 -22081.641)">
      <g id="그룹_57208" data-name="그룹 57208" transform="translate(1878.65 1313.914)">
        <path id="패스_45262" data-name="패스 45262" d="M1921.327,1379.94c6.36,4.962,10.48,13.711,8.974,19.29-.815,3.019-2.355,5.77-8.845,7.972a70.614,70.614,0,0,1-25.668,2.917c-5.009-.4-9.364-2.882-10.521-6.7-2.651-8.747,3.6-20.981,13.8-25.573C1906.695,1374.415,1915.064,1375.054,1921.327,1379.94Z" transform="translate(-1883.705 -1374.738)" fill="#fff"/>
        <path id="패스_45263" data-name="패스 45263" d="M1915.6,1375.564a24.278,24.278,0,0,1,2.458,2.212q.568.585,1.1,1.2.265.31.52.627c.085.106.169.212.253.319.145.184-.125-.164.017.022l.123.162a26.925,26.925,0,0,1,1.81,2.737q.393.681.744,1.385.172.347.334.7.08.174.157.35l.076.175c.076.175-.076-.184,0,.006a21.227,21.227,0,0,1,.959,2.843c.115.45.212.9.29,1.362q.028.167.053.335c.01.065.027.268,0-.031.005.055.014.11.021.166q.039.327.063.656a12.015,12.015,0,0,1,.024,1.324q-.011.281-.037.562c-.009.1-.021.2-.033.3-.022.192.037-.245.007-.055-.01.065-.02.131-.031.2a11.186,11.186,0,0,1-.539,1.969c-.054.148-.118.293-.172.441.123-.337.021-.052-.015.028s-.078.169-.119.253a8.531,8.531,0,0,1-.479.856q-.131.205-.274.4c-.052.072-.246.272-.021.032-.07.074-.129.162-.194.241a8.987,8.987,0,0,1-.772.809q-.221.2-.453.4c-.059.049-.354.262-.094.079-.1.073-.2.152-.3.225a13.673,13.673,0,0,1-1.182.754c-.462.263-.936.5-1.419.725q-.2.09-.395.177c-.068.03-.135.059-.2.088.222-.092-.015.006-.051.02q-.437.179-.881.343a44.547,44.547,0,0,1-5.753,1.639q-1.691.377-3.4.667-.893.153-1.79.283l-.459.066-.231.032c-.261.036.206-.026-.056.008-.313.041-.625.081-.938.119a73.8,73.8,0,0,1-8.01.531q-2.1.023-4.2-.09c-.647-.036-1.3-.074-1.941-.146l-.212-.025c-.243-.028.214.032-.028,0-.14-.021-.279-.041-.418-.064q-.413-.068-.823-.158a15.744,15.744,0,0,1-1.58-.431q-.38-.125-.752-.271l-.184-.073c-.213-.084.195.086-.015-.006-.139-.061-.278-.122-.415-.187a12.322,12.322,0,0,1-1.335-.73q-.313-.2-.612-.416l-.122-.091c-.148-.112.029-.013.024.02,0-.032-.289-.236-.326-.267a9.1,9.1,0,0,1-1-1,2.749,2.749,0,0,0-.219-.268c.178.16.059.077.01.01-.034-.046-.068-.093-.1-.139-.142-.2-.275-.409-.4-.624q-.154-.27-.285-.554a1.649,1.649,0,0,0-.069-.155c.133.221.038.091.009.018q-.073-.185-.135-.374a11.945,11.945,0,0,1-.325-1.216q-.067-.306-.119-.615-.027-.155-.05-.311c-.008-.052-.014-.1-.022-.156.017.1.027.209.007.044q-.082-.66-.106-1.325a17.561,17.561,0,0,1,.1-2.612c.012-.11.026-.221.04-.331.026-.205-.034.237,0,.032.008-.055.016-.111.024-.166q.05-.333.111-.665.129-.7.306-1.389a22.965,22.965,0,0,1,.858-2.659q.064-.165.131-.33l.068-.164c.081-.2-.088.2,0,.008.095-.219.191-.437.291-.654q.315-.683.67-1.346a26.261,26.261,0,0,1,1.523-2.5q.209-.3.427-.6.109-.15.22-.3l.074-.1.075-.1-.035.046a3.51,3.51,0,0,1,.464-.581q.257-.312.522-.616a26.053,26.053,0,0,1,2.1-2.136q.556-.5,1.143-.976.147-.118.3-.234c.174-.136-.171.129.006,0l.15-.114q.326-.245.661-.479a23.217,23.217,0,0,1,2.579-1.566q.7-.363,1.419-.676c.071-.031.142-.063.213-.092-.216.088.025-.01.057-.023q.213-.088.428-.172.463-.18.932-.343a24.2,24.2,0,0,1,3.472-.921q.434-.081.871-.145c.073-.011.145-.023.218-.031-.222.025-.083.011-.035.005.169-.021.339-.041.508-.059q.884-.093,1.773-.115t1.76.028q.393.022.784.059.213.02.426.045l.212.026.141.018q-.2-.027-.041,0a21.37,21.37,0,0,1,3.318.76q.406.13.806.276.2.073.4.151l.2.079.1.04a15.939,15.939,0,0,1,1.548.739q.733.389,1.432.839.368.236.724.489.18.127.356.258l.176.132c.031.023.228.176.041.031a1.041,1.041,0,0,0,.673.279.952.952,0,0,0,.673-1.625,21.376,21.376,0,0,0-6.622-3.524,21.71,21.71,0,0,0-7.141-1,24.71,24.71,0,0,0-13.464,4.468,27.071,27.071,0,0,0-8.26,9.408,22.237,22.237,0,0,0-2.788,11.29,12.166,12.166,0,0,0,1.377,5.492,10.659,10.659,0,0,0,4.731,4.135,15.951,15.951,0,0,0,3.265,1.13,23.746,23.746,0,0,0,3.891.485,67.269,67.269,0,0,0,8.407-.059,70.046,70.046,0,0,0,14.449-2.4,26.65,26.65,0,0,0,6.218-2.494,10.336,10.336,0,0,0,5.349-7.627,14.254,14.254,0,0,0-.37-5.729,25.9,25.9,0,0,0-6.63-11.417,24.252,24.252,0,0,0-2.41-2.164,1.038,1.038,0,0,0-.673-.279.952.952,0,0,0-.673,1.624Z" transform="translate(-1878.65 -1369.689)" fill="#a6a09f"/>
      </g>
      <g id="그룹_57213" data-name="그룹 57213" transform="translate(1898.598 1303.401)">
        <g id="그룹_57210" data-name="그룹 57210" transform="translate(0 0)">
          <g id="그룹_57209" data-name="그룹 57209">
            <path id="패스_45264" data-name="패스 45264" d="M2011.456,1319.637a2.424,2.424,0,0,1-2.18-1.819,11.245,11.245,0,0,1,1.068-8.159,2.986,2.986,0,0,1,1.934-1.739,2.237,2.237,0,0,1,2.21,1.322,5.141,5.141,0,0,1,.351,2.7,15.754,15.754,0,0,1-1.673,5.9c-.379.741-.982,1.708-1.809,1.614" transform="translate(-2008.214 -1307.187)" fill="#bebebe"/>
            <path id="패스_45265" data-name="패스 45265" d="M2007.673,1315.138c-.057,0-.112,0-.168,0-.145-.005.011.007.024,0a.714.714,0,0,1-.271-.069c-.033-.011-.192-.09-.039-.012l-.1-.051a2.734,2.734,0,0,1-.29-.184c.115.081.032.025.008,0-.043-.04-.087-.077-.129-.118-.07-.068-.134-.142-.2-.215-.023-.026-.068-.107,0,.005-.031-.05-.067-.1-.1-.146a2.744,2.744,0,0,1-.142-.254c-.014-.03-.073-.2-.02-.041-.012-.036-.026-.072-.038-.107-.033-.1-.059-.2-.085-.3q-.091-.36-.154-.727-.011-.067-.022-.134c0-.015-.033-.236-.013-.078-.015-.112-.027-.224-.037-.336q-.032-.337-.041-.676a10.881,10.881,0,0,1,.054-1.424q.007-.068.015-.135c0-.014.031-.237.009-.081q.023-.169.052-.337.06-.353.142-.7a11.959,11.959,0,0,1,.4-1.341q.058-.16.12-.319l.051-.126c0-.008.092-.214.033-.081.1-.218.195-.433.3-.646.09-.179.184-.356.286-.528q.076-.129.16-.254c.033-.05.069-.1.1-.148.085-.124-.072.079.035-.045a4.266,4.266,0,0,1,.41-.422c.1-.087.014-.011-.008,0,.047-.033.093-.066.142-.1.032-.02.065-.039.1-.058s.211-.091.12-.061c-.106.035.073-.021.076-.021q.069-.021.14-.035c.048-.01.167-.008.012,0,.038,0,.077-.005.115-.006.057,0,.115.008.172.006-.134,0-.069-.013-.02,0a3.1,3.1,0,0,1,.331.093c-.144-.05-.023-.009.015.01s.086.044.128.069.067.04.1.061.176.13.047.026a2.63,2.63,0,0,1,.22.2q.042.042.082.086c.027.03.052.059.078.09l-.02-.027a2.916,2.916,0,0,1,.289.5c-.057-.132.025.076.028.084q.022.064.042.13a3.894,3.894,0,0,1,.1.4c.011.056.019.113.029.169.021.128-.011-.168,0,.049.008.115.019.229.024.345.009.243.005.486-.008.729-.012.223-.03.446-.053.668-.012.119-.026.238-.041.356a.469.469,0,0,1-.013.095c-.011.071-.021.142-.032.213q-.115.727-.3,1.441a15.77,15.77,0,0,1-.493,1.575c-.046.123-.093.246-.142.368q-.04.1-.081.2c.047-.112-.041.094-.041.094q-.166.378-.351.747c-.1.192-.2.383-.309.567-.058.1-.119.191-.183.282l-.066.091c.1-.141-.02.022-.044.05a2.5,2.5,0,0,1-.205.213l-.039.035c-.061.05-.053.045.024-.015-.02.033-.094.064-.126.082-.016.01-.137.1-.046.03q.084-.033,0,0c-.031.01-.061.019-.092.027-.113.038.053-.033.047,0a.775.775,0,0,1-.2,0,.717.717,0,0,0-.714.714.732.732,0,0,0,.714.714c1.037.092,1.79-.833,2.249-1.64a15.164,15.164,0,0,0,1.273-3.023,16.657,16.657,0,0,0,.655-3.354,6,6,0,0,0-.43-3.275,3.024,3.024,0,0,0-2.537-1.7,3.148,3.148,0,0,0-2.567,1.65,11.106,11.106,0,0,0-1.256,2.828,12.3,12.3,0,0,0-.526,3.206,11.239,11.239,0,0,0,.113,1.879,6.553,6.553,0,0,0,.421,1.7,3.059,3.059,0,0,0,2.7,1.9.714.714,0,0,0,0-1.427Z" transform="translate(-2004.431 -1303.401)" fill="#a6a09f"/>
          </g>
          <path id="패스_45266" data-name="패스 45266" d="M2020.6,1366.935q-.055-.07-.111-.139l-.036-.043c-.01-.012-.05-.063-.016-.02s-.008-.021-.019-.032.026.073.015.032.008.084.005.036c0-.008,0-.016,0-.023,0,.012-.012.078,0,.025.006-.03.011-.06.016-.091a3.176,3.176,0,0,0,.036-.408,7.976,7.976,0,0,0-.035-.84.244.244,0,0,0-.238-.238.24.24,0,0,0-.238.238c.022.263.039.526.036.79,0,.079,0,.157-.01.236,0,.028,0,.056-.008.084,0,.01,0,.021,0,.031s.011-.071,0-.02a.525.525,0,0,0,.039.427c.071.1.155.193.231.29a.24.24,0,0,0,.337,0,.244.244,0,0,0,0-.337Z" transform="translate(-2017.504 -1355.394)" fill="#a6a09f"/>
        </g>
        <g id="그룹_57212" data-name="그룹 57212" transform="translate(3.413 1.407)">
          <g id="그룹_57211" data-name="그룹 57211">
            <path id="패스_45267" data-name="패스 45267" d="M2030.5,1325.99a9.74,9.74,0,0,1,3.367-8.335c.932-.782,2.385-1.359,3.3-.552a2.511,2.511,0,0,1,.661,1.863,7.754,7.754,0,0,1-6.655,7.607" transform="translate(-2029.734 -1316.009)" fill="#bebebe"/>
            <path id="패스_45268" data-name="패스 45268" d="M2027.428,1322.251a9.355,9.355,0,0,1-.043-1.289q.011-.307.042-.613c.006-.061.014-.122.02-.183.016-.139,0-.02,0,.007.018-.122.037-.243.058-.364a9.805,9.805,0,0,1,.312-1.252q.094-.293.206-.58c.022-.057.046-.114.069-.171-.01.025-.055.126,0,0s.1-.225.153-.336a9.808,9.808,0,0,1,.632-1.126q.168-.258.351-.5l.074-.1c-.1.127.028-.034.04-.049q.116-.144.237-.282a9.18,9.18,0,0,1,.915-.91l.094-.08c.019-.016.172-.135.039-.035q.12-.09.245-.173a5.536,5.536,0,0,1,.583-.326c.026-.013.126-.051,0,0,.056-.022.111-.044.168-.063.093-.032.187-.061.282-.084.054-.014.334-.055.148-.036a2.449,2.449,0,0,1,.305-.014.408.408,0,0,1,.136.008c-.124-.062-.073-.011,0,0,.044.009.087.02.13.033.007,0,.173.061.066.019s.054.03.061.034c.04.022.077.051.117.072.089.048-.11-.114.012.01l.126.125c.126.124-.057-.112.031.041.024.042.052.083.075.125s.045.087.066.131c-.064-.135-.008-.015.005.022a2.732,2.732,0,0,1,.082.289q.017.074.03.149c.011.06.021.18.009.052a6.393,6.393,0,0,1,0,1.2c-.005.056-.012.111-.018.166,0,.039,0,.136,0-.024a2.028,2.028,0,0,1-.045.274q-.056.3-.137.595-.074.268-.168.529c-.031.087-.065.173-.1.26-.068.175.063-.137-.014.035-.023.051-.045.1-.068.152a7.919,7.919,0,0,1-.569,1.022c-.1.156-.211.307-.323.456.106-.141-.073.09-.1.118q-.107.129-.219.254a8.135,8.135,0,0,1-.931.884c-.022.018-.172.132-.031.026l-.134.1q-.135.1-.274.191-.278.185-.571.346-.268.146-.547.271c-.028.012-.2.081-.034.015l-.155.061q-.155.06-.314.111c-.211.069-.426.129-.643.177q-.163.037-.328.065l-.11.018q-.122.018.024,0l-.111.013a.732.732,0,0,0-.714.714c.016.35.317.76.714.714a8.216,8.216,0,0,0,4.82-2.332,8.424,8.424,0,0,0,2.446-4.633,5.318,5.318,0,0,0-.223-2.957,2.255,2.255,0,0,0-1.061-1.121,2.643,2.643,0,0,0-1.565-.2,5.04,5.04,0,0,0-2.593,1.43,10.184,10.184,0,0,0-1.793,2.251,10.4,10.4,0,0,0-1.415,6.262.73.73,0,0,0,.714.714.721.721,0,0,0,.714-.714Z" transform="translate(-2025.952 -1312.275)" fill="#a6a09f"/>
          </g>
          <path id="패스_45269" data-name="패스 45269" d="M2037.214,1359.4a3.92,3.92,0,0,1,1.635-2.74c.25-.174.012-.586-.24-.411a4.436,4.436,0,0,0-1.871,3.15.239.239,0,0,0,.238.238.243.243,0,0,0,.238-.238Z" transform="translate(-2035.027 -1349.237)" fill="#a6a09f"/>
        </g>
      </g>
      <ellipse id="타원_1648" data-name="타원 1648" cx="2.245" cy="2.202" rx="2.245" ry="2.202" transform="translate(1906.906 1333.194) rotate(-7.453)" fill="#f1f1f1"/>
      <ellipse id="타원_1649" data-name="타원 1649" cx="2.353" cy="2.307" rx="2.353" ry="2.307" transform="translate(1891.701 1333.222) rotate(-7.453)" fill="#f1f1f1"/>
      <g id="그룹_57214" data-name="그룹 57214" transform="translate(1900.05 1332.547)">
        <ellipse id="타원_1650" data-name="타원 1650" cx="0.476" cy="1.427" rx="0.476" ry="1.427" transform="translate(0 0.937) rotate(-80.08)" fill="#939393"/>
        <path id="패스_45270" data-name="패스 45270" d="M2015.655,1489.073a3.961,3.961,0,0,1-.675-.062c-.719-.126-1.45-.451-1.388-.806s.861-.413,1.58-.287,1.451.451,1.389.806h0c-.029.164-.214.276-.536.324A2.519,2.519,0,0,1,2015.655,1489.073Zm-1.158-1.059c-.451,0-.729.1-.749.218-.029.163.437.479,1.26.623a3.237,3.237,0,0,0,.993.036c.28-.042.392-.128.4-.195.028-.163-.437-.479-1.26-.623A3.785,3.785,0,0,0,2014.5,1488.014Z" transform="translate(-2013.588 -1487.75)" fill="#939393"/>
      </g>
      <path id="패스_45271" data-name="패스 45271" d="M2020.374,1492.876a5.287,5.287,0,0,0-.261,2.173.244.244,0,0,0,.238.238.24.24,0,0,0,.238-.238,4.939,4.939,0,0,1,.244-2.047.238.238,0,1,0-.459-.126Z" transform="translate(-119.01 -159.279)" fill="#939393"/>
      <path id="패스_45272" data-name="패스 45272" d="M2063.935,1415.669c.043,0,.086.006.129.011l-.126-.017a1.7,1.7,0,0,1,.415.112l-.114-.048a1.809,1.809,0,0,1,.391.227l-.1-.074a1.816,1.816,0,0,1,.32.32l-.075-.1a1.68,1.68,0,0,1,.205.353l-.048-.114c.014.033.026.067.038.1a.507.507,0,0,0,.219.284.476.476,0,0,0,.7-.537,2.194,2.194,0,0,0-1.957-1.474.479.479,0,0,0-.476.476.486.486,0,0,0,.476.476Z" transform="translate(-155.499 -93.662)" fill="#939393"/>
      <path id="패스_45273" data-name="패스 45273" d="M1983.031,1412.994c.033-.087-.052.106-.01.023.009-.018.017-.037.027-.055a1.279,1.279,0,0,1,.068-.115c.011-.017.024-.033.035-.05.031-.047-.074.088-.022.029.029-.034.058-.067.09-.1s.065-.061.1-.09c.059-.052-.076.054-.029.022l.05-.036a1.816,1.816,0,0,1,.234-.132c.072-.035-.089.033-.034.015l.057-.021c.042-.015.085-.028.129-.039s.087-.019.131-.027c.08-.015-.1.009-.042.006l.061-.005c.044,0,.089,0,.134,0l.061,0c.045,0,.1.028-.03-.006a2.508,2.508,0,0,1,.259.068.478.478,0,0,0,.585-.332.489.489,0,0,0-.333-.585,1.927,1.927,0,0,0-1.458.1,1.907,1.907,0,0,0-.977,1.071.478.478,0,0,0,.332.585.489.489,0,0,0,.585-.332Z" transform="translate(-87.036 -90.927)" fill="#939393"/>
      <path id="패스_45274" data-name="패스 45274" d="M2058.059,1491.48a.753.753,0,0,1,.113-.07c.068-.033-.023,0-.026.01,0-.008.053-.018.061-.02s.041-.011.062-.015.078,0-.032,0c.043,0,.085-.006.128,0l.048,0c.062,0-.1-.018-.014,0a1.018,1.018,0,0,1,.112.027l.063.021c.085.032-.063-.031-.009,0,.035.018.07.035.1.055s.064.044.1.065c-.1-.063-.031-.024-.008,0l.049.045c.027.027.051.057.077.085-.078-.084-.025-.033-.008-.006l.026.041c.011.019.022.038.031.057.04.08-.023-.068,0-.012a1.019,1.019,0,0,1,.033.107c0,.015.015.089,0,.016s0,0,0,.017c0,.039-.018.188,0,.053a.392.392,0,0,0,.036.275.357.357,0,0,0,.652-.085,1.113,1.113,0,0,0-.043-.58,1.325,1.325,0,0,0-.315-.484,1.413,1.413,0,0,0-1-.405,1.085,1.085,0,0,0-.6.194.386.386,0,0,0-.164.213.357.357,0,0,0,.524.4Z" transform="translate(-150.504 -157.569)" fill="#939393"/>
      <path id="패스_45275" data-name="패스 45275" d="M1976.994,1472.757a3.041,3.041,0,0,0,3.674-.562.486.486,0,0,0,0-.673.481.481,0,0,0-.673,0,2.283,2.283,0,0,1-.284.267c.066-.051-.073.048-.1.063-.055.035-.111.068-.168.1l-.1.049c-.008,0-.088.04-.042.02s-.054.021-.064.024l-.082.029c-.132.044-.265.068-.4.1-.073.017.072-.006,0,0l-.108.01c-.065.005-.13.007-.2.007s-.13,0-.195-.007l-.086-.008c-.092-.009.031.009-.024,0-.127-.031-.253-.053-.377-.1l-.081-.029c-.05-.018.053.027-.026-.011s-.13-.064-.192-.1a.476.476,0,1,0-.48.822Z" transform="translate(-82.551 -141.342)" fill="#939393"/>
      <path id="패스_45276" data-name="패스 45276" d="M2046.994,1474.757a3.042,3.042,0,0,0,3.674-.562.486.486,0,0,0,0-.673.481.481,0,0,0-.673,0,2.284,2.284,0,0,1-.284.267c.066-.051-.073.048-.1.063q-.082.052-.168.1c-.032.017-.064.033-.1.049-.008,0-.088.04-.042.02s-.054.021-.064.024l-.082.029c-.132.044-.266.068-.4.1-.073.017.072-.006,0,0l-.108.01q-.1.007-.2.007c-.065,0-.13,0-.195-.007l-.086-.008c-.092-.009.031.009-.024,0-.127-.031-.252-.053-.377-.1l-.081-.029c-.05-.018.053.027-.026-.011s-.129-.064-.192-.1a.476.476,0,1,0-.48.822Z" transform="translate(-141.449 -143.025)" fill="#939393"/>
      <path id="패스_45277" data-name="패스 45277" d="M1994.2,1493.4a3.064,3.064,0,0,0,4.593.72l-.577.074a5.023,5.023,0,0,0,6.285-.933,4.374,4.374,0,0,0,.968-1.7.476.476,0,0,0-.917-.253,2.571,2.571,0,0,1-.262.634c-.053.1-.111.191-.172.282q-.053.078-.109.154c-.057.076-.025.032-.012.016-.024.031-.049.061-.075.091a4.259,4.259,0,0,1-.521.516,2.006,2.006,0,0,1-.226.171q-.167.116-.343.217a4.181,4.181,0,0,1-1.315.5,4.435,4.435,0,0,1-1.372.052,4.357,4.357,0,0,1-.759-.2l-.088-.034c-.076-.03.005,0-.039-.017-.065-.029-.129-.06-.192-.093a3.78,3.78,0,0,1-.37-.222.483.483,0,0,0-.577.074,1.773,1.773,0,0,1-.752.4,1.45,1.45,0,0,1-.444.064c-.081,0-.162,0-.242,0-.048,0-.1-.007-.145-.012.068.008-.015,0-.042-.007a2.157,2.157,0,0,1-.874-.327,1.444,1.444,0,0,1-.33-.271c-.028-.029-.054-.058-.081-.088s-.069-.084-.031-.034a2.062,2.062,0,0,1-.156-.245.476.476,0,0,0-.822.48Z" transform="translate(-97.173 -157.824)" fill="#939393"/>
    </g>
  </g>
</svg>
