<svg xmlns="http://www.w3.org/2000/svg" width="246" height="360" viewBox="0 0 246 360">
    <defs>
        <clipPath id="6aq2uu8kza">
            <path data-name="사각형 22856" transform="translate(478 511)" style="fill:none" d="M0 0h246v360H0z"/>
        </clipPath>
    </defs>
    <g data-name="마스크 그룹 30485" transform="translate(-478 -511)" style="clip-path:url(#6aq2uu8kza)">
        <path data-name="빼기 3" d="M284.273 290H65.725a66.742 66.742 0 0 1-18.739-2.641 63.873 63.873 0 0 1-16.238-7.335 66.674 66.674 0 0 1-30.694-58.61 64.154 64.154 0 0 1 3.2-17.553 67.026 67.026 0 0 1 8.479-16.947l109.278-158.53A65.934 65.934 0 0 1 131.9 16.158a65.567 65.567 0 0 1 97.088 12.226l109.275 158.529a67.03 67.03 0 0 1 8.48 16.948 64.153 64.153 0 0 1 3.2 17.553 66.67 66.67 0 0 1-30.694 58.61 63.877 63.877 0 0 1-16.239 7.335A66.747 66.747 0 0 1 284.273 290zM176.915 98.891a21.064 21.064 0 0 0-17.314 9.071l-50.311 72.673a21.1 21.1 0 0 0 17.292 33.121h100.632a21.092 21.092 0 0 0 17.3-33.121L194.2 107.963a21.078 21.078 0 0 0-17.287-9.071z" transform="translate(528.305 546)" style="fill:#17bf98;stroke:transparent;stroke-miterlimit:10"/>
    </g>
</svg>
