<svg xmlns="http://www.w3.org/2000/svg" width="134" height="187.492">
    <defs>
        <style>
            .cls-2{fill:#efea3c}.cls-3{fill:#fffffb}.cls-4{fill:#1bd9ac}.cls-5{fill:#fff}.cls-6{fill:#020202}
        </style>
    </defs>
    <g id="그룹_57752" data-name="그룹 57752" transform="translate(-358.5 -3202.52)">
        <g id="Layer_1" data-name="Layer 1" transform="translate(358.5 3202.52)">
            <path id="패스_45999" data-name="패스 45999" d="M503.007 3249.608c2.494.568 2.677 1.643 2.677 3.654s-2.577 3.416-3.908 2.418-3.633-1.627-5.2-.8c-1.262.668-4.284 2.51-4.91-.96s3.289-4.1 3.289-4.1c2.317-.169 2.57.491 3.924.314s2.162-.971 4.128-.526z" transform="translate(-433.502 -3228.904)" style="fill:#b61e27"/>
            <path id="패스_46000" data-name="패스 46000" class="cls-2" d="M604.907 3241.289a4.375 4.375 0 1 1-4.352 4.368 4.363 4.363 0 0 1 4.352-4.368z" transform="translate(-494.902 -3224.305)"/>
            <path id="패스_46001" data-name="패스 46001" class="cls-2" d="M409.6 3248.066a4.356 4.356 0 1 1-4.352-4.376 4.363 4.363 0 0 1 4.352 4.376z" transform="translate(-382.387 -3225.654)"/>
            <path id="패스_46002" data-name="패스 46002" class="cls-3" d="M491.89 3223.189c1.453-1.09 3.082-1.658 4.23-.184 1.882 2.426.283 5.819-2.723 8.56h-.008a18.7 18.7 0 0 1-2.662 2.019c-.375 4.667-4.429 5.236-6.838 5.588a9.629 9.629 0 0 1-3.251 0c-15.971-4.015-25.8 1.5-31.115.867-5.446-.66-5.9-5.135-5.9-5.135a26.554 26.554 0 0 1-2.861-1.1c-8.375-3.846-5.538-9.5-1.545-8.859a12.147 12.147 0 0 1 2.386.614s.979-17.542 23.956-19.192c15.584-1.111 25.283 8.048 26.331 16.822zm-17.906 5.8c0-2.011-.183-3.086-2.677-3.654-1.966-.445-2.776.346-4.13.53s-1.606-.484-3.924-.315c0 0-3.916.622-3.289 4.1s3.648 1.628 4.91.96c1.568-.83 3.878-.192 5.2.8s3.91-.401 3.91-2.421z" transform="translate(-401.802 -3204.631)"/>
            <path id="패스_46003" data-name="패스 46003" class="cls-4" d="m576.129 3582.349.222.307c-4.237 20.482-11.565 18.071-14.2 17.6-4.757-.86-3.174-10.111-3.128-10.348a46.065 46.065 0 0 0 17.106-7.559z" transform="translate(-471.333 -3415.951)"/>
            <path id="패스_46004" data-name="패스 46004" class="cls-4" d="m448.171 3592.354-.076.445s3.013 10.871-4.979 10.863c-9.982-.008-12.766-17.657-12.766-17.657l.306-.537a44.056 44.056 0 0 0 17.515 6.886z" transform="translate(-398.988 -3417.704)"/>
            <path id="패스_46005" data-name="패스 46005" class="cls-2" d="M502.556 3500.62c2.035 18.186-14.731 31.336-47.85 27.567-24.43-2.779-29.1-15.5-29.019-25 0 .005 42.06 11.059 76.869-2.567z" transform="translate(-396.36 -3370.026)"/>
            <path id="패스_46006" data-name="패스 46006" class="cls-3" d="M498.787 3449.36a35.387 35.387 0 0 1 3.771 11.969c-34.809 13.626-76.869 2.572-76.869 2.572a31.755 31.755 0 0 1 2.034-10.817c5.729-19.583 29.134-21.748 29.134-21.748s29.822-5.881 41.93 18.024z" transform="translate(-396.361 -3330.735)"/>
            <path id="패스_46007" data-name="패스 46007" class="cls-4" d="M391.61 3271.021c4.4-3.918 7.753-4.778 7.753-4.778a26.4 26.4 0 0 0 2.862 1.1s.452 4.478 5.9 5.139c5.319.638 15.154-4.886 31.135-.868a9.617 9.617 0 0 0 3.253 0c2.411-.353 6.467-.922 6.842-5.592a18.717 18.717 0 0 0 2.664-2.02h.007c.237.023 4.125.491 9.1 4.071 9.613 6.906 23.244 25.427 22.188 74.813l.436.637s15.812 12.821 5.931 21.025c-4.347 3.6-6.842 4.2-8.112 3.3 0 0 1.676 22.607-16.333 35.828a46.1 46.1 0 0 1-17.121 7.567 72.323 72.323 0 0 1-13.937 1.713l-13.348-.138a62.439 62.439 0 0 1-11.243-.883 44.091 44.091 0 0 1-17.527-6.891c-17.489-11.914-19.394-33.623-19.571-36.519-1.416.284-3.75-.638-7.34-3.618-9.881-8.2 5.932-21.025 5.932-21.025-.419-46.282 12.011-65.282 20.529-72.861zm27.153 124.206c33.119 3.769 49.885-9.381 47.85-27.567a35.387 35.387 0 0 0-3.771-11.969c-12.108-23.906-41.93-18.025-41.93-18.025s-23.405 2.165-29.134 21.748a31.757 31.757 0 0 0-2.034 10.817c-.076 9.497 4.589 22.217 29.019 24.996zm27.91-85.612a2.471 2.471 0 1 0-2.47 2.487 2.474 2.474 0 0 0 2.47-2.487zm-35.061 0a2.471 2.471 0 1 0-2.471 2.487 2.474 2.474 0 0 0 2.471-2.487z" transform="translate(-360.418 -3237.067)"/>
            <path id="패스_46008" data-name="패스 46008" d="M547.265 3362.464a2.484 2.484 0 1 1-2.471 2.479 2.474 2.474 0 0 1 2.471-2.479z" transform="translate(-463.48 -3292.395)"/>
            <path id="패스_46009" data-name="패스 46009" d="M466.938 3362.464a2.484 2.484 0 1 1-2.47 2.479 2.474 2.474 0 0 1 2.47-2.479z" transform="translate(-418.214 -3292.395)"/>
            <path id="패스_46010" data-name="패스 46010" d="M381.032 3346a1.53 1.53 0 0 1-1.528-1.519c-.188-20.668 2.166-37.976 7-51.44 3.514-9.8 8.235-17.375 14.031-22.529 4.621-4.114 8.232-5.073 8.383-5.113a1.533 1.533 0 0 1 .764 2.969 20.2 20.2 0 0 0-7.12 4.438c-7.651 6.8-20.423 25.157-20 71.646a1.53 1.53 0 0 1-1.514 1.547z" transform="translate(-370.33 -3237.827)"/>
            <path id="패스_46011" data-name="패스 46011" d="M370.1 3470.188c-1.993 0-4.558-1.322-7.8-4.016a9.589 9.589 0 0 1-3.8-7.644c.045-7.791 9.346-15.42 9.742-15.741a1.531 1.531 0 0 1 1.92 2.385c-.086.069-8.574 7.042-8.607 13.378a6.577 6.577 0 0 0 2.692 5.26c4.058 3.369 5.665 3.37 6.062 3.293a.465.465 0 0 0 .357-.28c.461-.821.427-3.031-.53-5.668a1.537 1.537 0 0 1-.026-.971c1.344-4.435 7.492-7.9 8.189-8.279a1.532 1.532 0 0 1 1.46 2.693c-1.5.825-5.449 3.436-6.567 6.045.543 1.67 1.467 5.315.136 7.685a3.5 3.5 0 0 1-2.424 1.782 4.08 4.08 0 0 1-.804.078z" transform="translate(-358.5 -3337.338)"/>
            <path id="패스_46012" data-name="패스 46012" d="M445.9 3545.563h-.016l-13.339-.138a64.358 64.358 0 0 1-11.483-.906 45.8 45.8 0 0 1-18.112-7.129c-18.183-12.387-20.069-35.119-20.224-37.67-.019-.272-.018-.415-.018-.415a1.536 1.536 0 0 1 1.527-1.527h.007a1.525 1.525 0 0 1 1.521 1.518c0 .023 0 .1.011.222.147 2.412 1.916 23.77 18.892 35.336a42.787 42.787 0 0 0 16.919 6.644 61.311 61.311 0 0 0 10.963.86l13.335.137a71.033 71.033 0 0 0 13.6-1.673 44.812 44.812 0 0 0 16.549-7.3c17.074-12.534 15.716-34.238 15.7-34.455a1.528 1.528 0 1 1 3.047-.226c.071.957 1.526 23.6-16.944 37.157a47.828 47.828 0 0 1-17.669 7.817 74.142 74.142 0 0 1-14.224 1.751zm-60.136-46.258z" transform="translate(-372.141 -3368.228)"/>
            <path id="패스_46013" data-name="패스 46013" d="M597.648 3342.135h-.033a1.531 1.531 0 0 1-1.495-1.566c.464-21.692-1.887-39.429-6.987-52.718-3.576-9.317-8.606-16.5-14.548-20.767-4.692-3.375-8.319-3.785-8.355-3.789a1.533 1.533 0 0 1 .3-3.052c.179.018 4.449.472 9.837 4.348 6.52 4.684 11.776 12.139 15.62 22.158 5.243 13.663 7.663 31.793 7.19 53.886a1.53 1.53 0 0 1-1.529 1.5z" transform="translate(-474.785 -3234.95)"/>
            <path id="패스_46014" data-name="패스 46014" d="M625.4 3469.39a3.6 3.6 0 0 1-2.143-.663c-2.311-1.649-2.02-5.576-.927-8.892-1.119-2.607-5.063-5.218-6.568-6.042a1.532 1.532 0 0 1 1.461-2.693c.7.381 6.845 3.844 8.189 8.278a1.54 1.54 0 0 1-.026.971c-1.1 3.02-.948 5.46-.36 5.879.013.009 1.323.857 6.25-3.226a6.576 6.576 0 0 0 2.691-5.258c-.033-6.336-8.522-13.309-8.608-13.379a1.531 1.531 0 0 1 1.921-2.385c.4.321 9.7 7.951 9.741 15.742a9.59 9.59 0 0 1-3.8 7.644c-3.245 2.69-5.83 4.024-7.821 4.024z" transform="translate(-503.022 -3336.885)"/>
            <path id="패스_46015" data-name="패스 46015" d="M441.15 3603.919h-.01c-11.156-.009-14.151-18.177-14.273-18.95a1.528 1.528 0 1 1 3.018-.48c.026.164 2.7 16.357 11.258 16.364h.007a3.549 3.549 0 0 0 3.044-1.238c1.544-2.033.852-6.235.455-7.683a1.528 1.528 0 1 1 2.944-.82c.189.68 1.765 6.753-.965 10.355a6.487 6.487 0 0 1-5.478 2.452z" transform="translate(-397.015 -3416.427)"/>
            <path id="패스_46016" data-name="패스 46016" d="M562.847 3600.552a12.567 12.567 0 0 1-2.487-.291 22.242 22.242 0 0 0-.351-.067 4.876 4.876 0 0 1-3.214-2.117c-2.185-3.2-1.335-8.933-1.172-9.895a1.528 1.528 0 0 1 3.052.106v.048a1.523 1.523 0 0 1-.028.292c-.318 1.733-.573 5.913.677 7.728a1.809 1.809 0 0 0 1.222.82c.12.021.254.047.4.075 2.481.483 8.3 1.617 12.041-16.481a1.528 1.528 0 1 1 2.992.624c-1.839 8.889-4.422 14.543-7.9 17.285a8.209 8.209 0 0 1-5.232 1.873z" transform="translate(-469.414 -3414.377)"/>
            <path id="패스_46017" data-name="패스 46017" d="M403.277 3252a5.905 5.905 0 1 1 5.88-5.9 5.9 5.9 0 0 1-5.88 5.9zm0-8.744a2.838 2.838 0 1 0 2.825 2.842 2.84 2.84 0 0 0-2.825-2.842z" transform="translate(-380.415 -3223.687)"/>
            <path id="패스_46018" data-name="패스 46018" d="M425.385 3270.08a1.53 1.53 0 0 1-1.5-1.235 23.211 23.211 0 0 0-.639-2.513c-1.931-6.064-5.634-7.737-5.671-7.752a1.532 1.532 0 0 1 1.159-2.837c.2.084 5.031 2.146 7.423 9.657a26.522 26.522 0 0 1 .724 2.848 1.531 1.531 0 0 1-1.5 1.832z" transform="translate(-391.257 -3232.362)"/>
            <path id="패스_46019" data-name="패스 46019" d="M602.935 3249.6a5.851 5.851 0 0 1-4.517-2.126 5.959 5.959 0 0 1-1.363-3.783 5.88 5.88 0 1 1 5.88 5.909zm0-8.743a2.832 2.832 0 0 0-2.824 2.834 2.879 2.879 0 0 0 .659 1.825 2.83 2.83 0 1 0 2.166-4.659z" transform="translate(-492.93 -3222.338)"/>
            <path id="패스_46020" data-name="패스 46020" d="M584.162 3268.545a1.531 1.531 0 0 1-1.5-1.831 23.378 23.378 0 0 1 1.428-4.718c2.56-5.967 6.385-7.371 6.547-7.427a1.532 1.532 0 0 1 1.028 2.887c-.151.059-2.794 1.151-4.769 5.755a20.3 20.3 0 0 0-1.236 4.1 1.529 1.529 0 0 1-1.498 1.234z" transform="translate(-484.802 -3231.718)"/>
            <path id="패스_46021" data-name="패스 46021" d="M443.585 3258.637a1.519 1.519 0 0 1-.384-.049c-.647-.168-1.3-.352-1.989-.562a28.341 28.341 0 0 1-3.049-1.169c-5.637-2.588-6.859-6.117-6.125-8.556a4.771 4.771 0 0 1 5.451-3.214 13.652 13.652 0 0 1 2.685.694c3.041 1.16 3.741 2.99 3.851 3.345l-2.919.908a.453.453 0 0 0 .026.074c-.014-.033-.376-.825-2.039-1.46a10.773 10.773 0 0 0-2.085-.534 1.755 1.755 0 0 0-2.045 1.072c-.372 1.236.865 3.225 4.467 4.879a24.958 24.958 0 0 0 2.693 1.032c.625.19 1.236.363 1.842.52a1.534 1.534 0 0 1-.382 3.018z" transform="translate(-399.832 -3226.401)"/>
            <path id="패스_46022" data-name="패스 46022" d="M556.333 3253.614a1.534 1.534 0 0 1-.718-2.887c.374-.2.735-.419 1.008-.588a16.983 16.983 0 0 0 2.433-1.846.927.927 0 0 1 .1-.081c2.013-1.865 3.837-4.63 2.46-6.405-.176-.226-.546-.7-2.11.471a17.063 17.063 0 0 0-3.032 3.176 1.53 1.53 0 1 1-2.481-1.791 20 20 0 0 1 3.687-3.844c3.671-2.753 5.785-.617 6.344.1 2.241 2.889 1.13 6.965-2.9 10.639a1.009 1.009 0 0 1-.1.081 20.132 20.132 0 0 1-2.788 2.1c-.321.2-.737.451-1.188.692a1.51 1.51 0 0 1-.715.183z" transform="translate(-468.5 -3222.71)"/>
            <path id="패스_46023" data-name="패스 46023" d="M459.183 3274.419a9.46 9.46 0 0 1-1.118-.063c-5.27-.639-7.037-4.534-7.236-6.5a1.528 1.528 0 0 1 3.038-.323c.044.348.533 3.293 4.562 3.782a22.927 22.927 0 0 0 6.239-.783c5.9-1.2 13.984-2.834 25.065-.05a8.215 8.215 0 0 0 2.653-.028l.046-.007c2.958-.433 5.24-1.018 5.5-4.189a1.528 1.528 0 1 1 3.045.247c-.47 5.859-5.623 6.615-8.1 6.977a11.271 11.271 0 0 1-3.889-.025c-10.4-2.617-18.1-1.056-23.712.082a32.689 32.689 0 0 1-6.093.88z" transform="translate(-410.524 -3237.54)"/>
            <path id="패스_46024" data-name="패스 46024" d="M447.724 3224.865h-.091a1.529 1.529 0 0 1-1.435-1.614 21.063 21.063 0 0 1 3.624-9.754c3.034-4.469 9.269-9.985 21.748-10.881 16.008-1.14 26.78 8.34 27.953 18.167a1.528 1.528 0 1 1-3.034.365c-1-8.4-10.515-16.489-24.7-15.473-21.285 1.529-22.5 17.091-22.539 17.753a1.532 1.532 0 0 1-1.526 1.437z" transform="translate(-407.918 -3202.52)"/>
            <path id="패스_46025" data-name="패스 46025" d="M501.431 3255.7a2.835 2.835 0 0 1-1.715-.545c-1.075-.8-2.955-1.281-4.04-.708l-.209.112c-1.108.6-2.962 1.6-4.554.825a3.4 3.4 0 0 1-1.73-2.67 4.261 4.261 0 0 1 .648-3.292 5.747 5.747 0 0 1 3.544-2.084.94.94 0 0 1 .091-.011 8.12 8.12 0 0 1 2.8.22 2.492 2.492 0 0 0 1.067.1 5.831 5.831 0 0 0 1.017-.267 5.911 5.911 0 0 1 3.494-.245c3.262.743 3.528 2.578 3.528 4.722a3.936 3.936 0 0 1-2.243 3.421 3.787 3.787 0 0 1-1.698.422zm-4.562-3.7a7.227 7.227 0 0 1 4.151 1.4 1.163 1.163 0 0 0 1.127-.078 1.762 1.762 0 0 0 1.038-1.462c0-1.79-.062-2.183-1.827-2.586a3.792 3.792 0 0 0-2.34.193 7.8 7.8 0 0 1-1.4.354 4.662 4.662 0 0 1-1.859-.141 5.951 5.951 0 0 0-2.078-.171 3.592 3.592 0 0 0-2.074 1.19 2.072 2.072 0 0 0-.275 1.626c.062.34.213.934.531 1.088.59.287 1.98-.463 2.573-.782l.224-.12a4.7 4.7 0 0 1 2.209-.511z" transform="translate(-432.095 -3227.501)"/>
            <path id="패스_46026" data-name="패스 46026" d="M463.526 3489.1a97.071 97.071 0 0 1-10.965-.65c-11.3-1.286-19.6-4.812-24.664-10.479a23.024 23.024 0 0 1-5.71-16.053 33.342 33.342 0 0 1 2.119-11.312c2.486-8.412 8.545-15.018 17.528-19.106a44.432 44.432 0 0 1 12.831-3.653 51.9 51.9 0 0 1 16.9.055c12.232 2.071 21.434 8.57 26.613 18.795a36.921 36.921 0 0 1 3.927 12.49 23.211 23.211 0 0 1-6.6 19.64c-6.724 6.738-17.868 10.273-31.979 10.273zm-.6-58.836a45.276 45.276 0 0 0-7.753.607c-.05.01-.1.018-.153.022-.222.021-22.446 2.322-27.808 20.653a1.6 1.6 0 0 1-.057.16 30.538 30.538 0 0 0-1.916 10.238c-.075 9.257 4.664 20.842 27.663 23.459 18.367 2.088 32.728-1.016 40.437-8.745a20.234 20.234 0 0 0 5.723-17.127 33.867 33.867 0 0 0-3.615-11.445c-4.776-9.43-12.953-15.2-24.3-17.145a48.934 48.934 0 0 0-8.218-.68z" transform="translate(-394.388 -3328.763)"/>
            <path id="패스_46027" data-name="패스 46027" d="M460.168 3506.979c-4.035 0-7.8-.161-11.18-.4a153.153 153.153 0 0 1-25.66-3.87 1.533 1.533 0 0 1 .774-2.967c.416.109 42 10.765 75.927-2.517a1.533 1.533 0 0 1 1.11 2.857c-13.754 5.383-28.612 6.897-40.971 6.897z" transform="translate(-394.389 -3368.058)"/>
            <path id="패스_46028" data-name="패스 46028" d="M492.6 3391.489a1.535 1.535 0 0 1-.628-2.933c.173-.078.449-.23.767-.407 2.651-1.469 8.859-4.909 16.469.255a1.531 1.531 0 0 1-1.711 2.54c-6.061-4.111-10.758-1.508-13.282-.11-.378.209-.7.389-.99.519a1.519 1.519 0 0 1-.625.136z" transform="translate(-433.203 -3305.429)"/>
            <ellipse id="타원_1755" data-name="타원 1755" class="cls-5" cx="7.857" cy="7.886" rx="7.857" ry="7.886" transform="translate(31.209 74.247)"/>
            <ellipse id="타원_1756" data-name="타원 1756" class="cls-5" cx="7.857" cy="7.886" rx="7.857" ry="7.886" transform="translate(86.642 74.247)"/>
            <path id="패스_46029" data-name="패스 46029" d="M504.3 3316.645c-3.145.238-5.453-1.738-6.959-4.022a4.053 4.053 0 0 1-3.127 2.183c-1.483.048-2.59-1.052-3.4-2.471-3.327 3.7-9.158 4.523-9.477 4.566a1.881 1.881 0 0 1-.5-3.729c.076-.01 7.521-1.085 8.407-5.764a1.873 1.873 0 0 1 3.66-.1 14.791 14.791 0 0 0 1.253 3.318 13.506 13.506 0 0 0 1.286-3.152 1.872 1.872 0 0 1 3.617 0c.016.057 1.749 6.138 5.441 5.353a1.881 1.881 0 0 1 .78 3.68 7.345 7.345 0 0 1-.981.138z" transform="translate(-426.524 -3260.599)"/>
            <path id="패스_46030" data-name="패스 46030" class="cls-6" d="M481.956 3231.383c-3.265 0-4.4-.682-4.756-1.016a1.312 1.312 0 0 1 1.68-2.012c.141.071 1.3.586 4.921.331a1.315 1.315 0 0 1 .182 2.623 30.15 30.15 0 0 1-2.027.074zm-2.974-2.942zm0 0z" transform="translate(-425.154 -3216.888)"/>
            <path id="패스_46031" data-name="패스 46031" class="cls-6" d="M479.882 3235.72a.875.875 0 0 1-.828-1.154l1.118-3.366a.873.873 0 1 1 1.656.554l-1.118 3.367a.873.873 0 0 1-.828.599z" transform="translate(-426.409 -3218.299)"/>
            <path id="패스_46032" data-name="패스 46032" class="cls-6" d="M486.82 3236.547a.876.876 0 0 1-.841-1.114l1.173-4.192a.873.873 0 1 1 1.681.474l-1.173 4.192a.875.875 0 0 1-.84.64z" transform="translate(-430.318 -3218.299)"/>
            <path id="패스_46033" data-name="패스 46033" class="cls-6" d="M519.438 3231.308a1.315 1.315 0 0 1 .182-2.623c3.618.255 4.781-.26 4.921-.331a1.312 1.312 0 0 1 1.68 2.012c-.358.334-1.491 1.016-4.755 1.016a28.884 28.884 0 0 1-2.028-.074zm5-2.866zm0 0z" transform="translate(-448.505 -3216.888)"/>
            <path id="패스_46034" data-name="패스 46034" class="cls-6" d="M530.71 3235.72a.875.875 0 0 0 .828-1.154l-1.118-3.366a.873.873 0 1 0-1.656.554l1.118 3.367a.874.874 0 0 0 .828.599z" transform="translate(-454.421 -3218.299)"/>
            <path id="패스_46035" data-name="패스 46035" class="cls-6" d="M523.7 3236.547a.876.876 0 0 0 .841-1.114l-1.173-4.192a.873.873 0 1 0-1.681.474l1.172 4.192a.875.875 0 0 0 .841.64z" transform="translate(-450.441 -3218.299)"/>
        </g>
        <g id="Layer_3" data-name="Layer 3" transform="translate(413.631 3296.481)">
            <g id="그룹_57752-2" data-name="그룹 57752" transform="translate(6.195)">
                <ellipse id="타원_1757" data-name="타원 1757" class="cls-2" cx="4.365" cy="4.381" rx="4.365" ry="4.381" transform="translate(1.309 1.314)"/>
                <path id="패스_46036" data-name="패스 46036" d="M504.674 3428.39a5.7 5.7 0 1 1 5.674-5.7 5.691 5.691 0 0 1-5.674 5.7zm0-8.761a3.067 3.067 0 1 0 3.055 3.066 3.065 3.065 0 0 0-3.055-3.066z" transform="translate(-499 -3417)" style="fill:#040000"/>
            </g>
            <path id="패스_46037" data-name="패스 46037" d="M493.208 3448.947a4.357 4.357 0 0 1 6.327-1.243 4.738 4.738 0 0 1 1.158 1.243l7.575 11.773c2.084 3.239-.076 7.656-3.743 7.656h-15.15c-3.666 0-5.826-4.417-3.742-7.656z" transform="translate(-484.814 -3433.767)" style="fill:#14af8b"/>
            <g id="그룹_57753" data-name="그룹 57753" transform="translate(0 12.32)">
                <path id="패스_46038" data-name="패스 46038" class="cls-5" d="M494.871 3449.517a4.236 4.236 0 0 1 3.284-1.891 4.151 4.151 0 0 1 3.6 1.793l6.9 10.028a4.159 4.159 0 0 1-3.409 6.521h-13.8a4.159 4.159 0 0 1-3.409-6.521z" transform="translate(-486.21 -3446.528)"/>
                <path id="패스_46039" data-name="패스 46039" d="M503.844 3465.659h-13.8a5.255 5.255 0 0 1-4.307-8.239l6.834-9.932a5.336 5.336 0 0 1 4.142-2.362 5.235 5.235 0 0 1 4.539 2.265l6.9 10.028a5.255 5.255 0 0 1-4.307 8.239zm-9.478-16.926-6.833 9.931a3.063 3.063 0 0 0 2.511 4.8h13.8a3.064 3.064 0 0 0 2.512-4.8l-6.9-10.028a3.09 3.09 0 0 0-2.663-1.322 3.15 3.15 0 0 0-2.426 1.418z" transform="translate(-484.807 -3445.123)"/>
            </g>
            <path id="패스_46040" data-name="패스 46040" class="cls-4" d="M505.908 3462.757a1.175 1.175 0 0 1 .706-.5 1.2 1.2 0 0 1 1.25.484l2.8 4.054a1.228 1.228 0 0 1 .125 1.229 1.191 1.191 0 0 1-1.07.676H504.1a1.186 1.186 0 0 1-1.01-1.866z" transform="translate(-494.991 -3442.415)"/>
        </g>
    </g>
</svg>
