<svg data-name="ico_small_bank11_부산,경남은행" xmlns="http://www.w3.org/2000/svg" width="100" height="100" viewBox="0 0 100 100">
    <circle data-name="타원 72" cx="50" cy="50" r="50" style="fill:#e43c00"/>
    <g data-name="그룹 477">
        <g data-name="그룹 476">
            <path data-name="패스 946" d="M569.636 2404.927v-24.119h-4.974v24.149h4.974z" transform="translate(-500.398 -2341.78)" style="fill:#fff"/>
            <path data-name="패스 947" d="M446.428 2392.9a5.478 5.478 0 0 0 3.505-5.425c0-7.406-8.565-7.224-8.565-7.224h-12.207a.331.331 0 0 0-.362.288v24.714a.331.331 0 0 0 .362.291h12.208c1.7 0 8.925-.328 8.925-7.373a5.548 5.548 0 0 0-3.866-5.271zm-12.823-8.133h7.763s3.722-.036 3.722 3c0 2.782-3.722 2.782-3.722 2.782H433.6zm7.763 16.153H433.6v-5.639h7.763s4.083-.215 4.083 2.782c.006 2.42-2.486 2.853-4.078 2.853z" transform="translate(-416.191 -2341.431)" style="fill:#fff"/>
            <path data-name="패스 948" d="M493.339 2416.568v-18.226h4.974v18.226z" transform="translate(-456.193 -2352.647)" style="fill:#fff"/>
            <path data-name="패스 949" d="M543.746 2404.927v-24.119h4.974v24.149h-4.974z" transform="translate(-487.435 -2341.78)" style="fill:#fff"/>
            <g data-name="그룹 474">
                <path data-name="패스 950" d="m506.159 2401.774-5.97-14.6a2.757 2.757 0 0 0-2.4-1.393h-4.456v-4.971h4.456a7.13 7.13 0 0 1 6.715 3.9s5.943 14.529 5.97 14.6a2.3 2.3 0 0 0 2.395 1.391h4.6v4.973h-4.6a7.363 7.363 0 0 1-6.71-3.9z" transform="translate(-456.193 -2341.78)" style="fill:#fff"/>
            </g>
            <g data-name="그룹 475">
                <path data-name="패스 951" d="m575.982 2401.774 5.97-14.6a2.758 2.758 0 0 1 2.395-1.393h3.73v-4.971h-3.73a7.128 7.128 0 0 0-6.714 3.9s-5.943 14.529-5.97 14.6a2.3 2.3 0 0 1-2.4 1.391h-4.6v4.973h4.6a7.37 7.37 0 0 0 6.719-3.9z" transform="translate(-500.398 -2341.78)" style="fill:#fff"/>
            </g>
            <path data-name="패스 952" d="m604.578 2414.885-2.112 5.166 4.823 6.771h6.54z" transform="translate(-523.829 -2362.9)" style="fill:#fff"/>
        </g>
    </g>
</svg>
