<svg xmlns="http://www.w3.org/2000/svg" width="100" height="100" viewBox="0 0 100 100">
    <defs>
        <clipPath id="hu8x5b96oa">
            <path data-name="사각형 17042" style="fill:none" d="M0 0h100v100H0z"/>
        </clipPath>
    </defs>
    <g data-name="그룹 67541">
        <g data-name="그룹 65403" style="clip-path:url(#hu8x5b96oa)">
            <path data-name="패스 50402" d="M48.2 5.009A43.187 43.187 0 1 1 5.008 48.2 43.188 43.188 0 0 1 48.2 5.009" transform="translate(1.811 1.811)" style="fill:#fff"/>
            <path data-name="패스 50403" d="m55.857 59.646-17.925-.01a1.161 1.161 0 0 1-.821-.53 1.072 1.072 0 0 1-.2-.72v-16.7a1.544 1.544 0 0 1 .294-.944 1.407 1.407 0 0 1 .873-.362h23.6a1.528 1.528 0 0 1 .81.2c.379.2.587.985.587.985v17.14a1.355 1.355 0 0 1-1 .933zm-.147-30V11.173a39.269 39.269 0 0 1 .042 77.694l-.033-18.6h7.369a10.426 10.426 0 0 0 10.656-10.196c.005-.191 0-.381 0-.573V40.252A10.64 10.64 0 0 0 63.1 29.618c-.132 0-.264 0-.395.008zM26.052 40.257c0-6.137 3.73-10.648 9.872-10.648l8.185-.034V11.22a39.253 39.253 0 0 0 0 77.61l-.027-18.43h-6.859a10.974 10.974 0 0 1-11.179-10.766v-.128zM0 50.007a50.006 50.006 0 1 1 50.007 50.007A50.007 50.007 0 0 1 0 50.007" style="fill:#a4001f;fill-rule:evenodd"/>
        </g>
    </g>
</svg>
