<svg xmlns="http://www.w3.org/2000/svg" width="100" height="100" viewBox="0 0 100 100">
    <circle data-name="타원 70" cx="50" cy="50" r="50" style="fill:#de040a"/>
    <g data-name="그룹 473">
        <path data-name="패스 939" d="M252.549 2406.629a.154.154 0 0 0-.015.289l11.975 7.911 3.431-16.143z" transform="translate(-238.643 -2356.867)" style="fill:#fff"/>
        <path data-name="패스 940" d="M343.925 2398.682H340.9a1.4 1.4 0 0 0-.541.131l-15.177 7.821a.152.152 0 0 0-.016.287l11.776 7.75a1.141 1.141 0 0 0 .526.157h3.026c.156 0 .178-.07.049-.157l-12.018-7.908 15.434-7.952c.141-.071.124-.129-.034-.129z" transform="translate(-259.116 -2356.866)" style="fill:#fff"/>
        <path data-name="패스 941" d="M332.668 2398.682h-21.095l-3.428 16.147h21.092c.157 0 .177-.07.047-.157l-12-7.908 15.413-7.952c.144-.072.129-.13-.029-.13z" transform="translate(-254.345 -2356.866)" style="fill:#fff"/>
        <path data-name="패스 942" d="M352.945 2398.682h-3.027a1.4 1.4 0 0 0-.541.131l-15.178 7.821a.153.153 0 0 0-.015.287l11.775 7.75a1.136 1.136 0 0 0 .524.157h3.028c.156 0 .178-.07.047-.157l-12.018-7.908 15.435-7.952c.141-.071.125-.129-.03-.129z" transform="translate(-261.658 -2356.866)" style="fill:#fff"/>
        <path data-name="패스 943" d="M291.047 2409.921v-.007l-.014.007.011.006z" transform="translate(-249.521 -2360.032)" style="fill:#fff"/>
        <path data-name="패스 944" d="M319.443 2383.969h-49.664a5.058 5.058 0 0 0-5.17 3.9 2.9 2.9 0 0 0 1.109 2.958l17.845 11.779.014-.006v.006l35.9-18.506c.138-.072.123-.131-.034-.131z" transform="translate(-242.054 -2352.719)" style="fill:#fff"/>
        <path data-name="패스 945" d="m309.1 2428.406-27.986-18.483-.005.007-.011-.007-22.854 11.785a4.754 4.754 0 0 0-2.364 2.958c-.462 2.151.735 3.9 3.509 3.9h49.664c.154-.003.175-.073.047-.16z" transform="translate(-239.584 -2360.035)" style="fill:#fff"/>
    </g>
</svg>
