<svg width="258" height="26" viewBox="0 0 258 26" fill="none" xmlns="http://www.w3.org/2000/svg">
<path d="M46.5974 15.9871H49.6735C49.9417 16.0145 50.1643 16.1022 50.3526 16.3873C50.4953 16.6175 50.4725 17.396 50.4725 17.396V22.7194C50.5181 23.2183 50.7635 24.0845 52.6697 24.1613H66.7891V22.2863H54.7414C53.9881 22.3247 53.9082 21.9683 53.891 21.5243V17.0671C53.891 16.6285 53.8283 16.2283 53.4288 15.9871H68.3243V14.123H46.5859V15.9871H46.5974Z" fill="#00578A"/>
<path d="M57.9747 12.1844C62.2665 12.1844 65.7364 9.93661 65.7364 6.60331C65.7364 3.27002 62.2665 1.0332 57.9747 1.0332C53.683 1.0332 50.2188 3.2755 50.2188 6.60331C50.2188 9.93112 53.6887 12.1844 57.9747 12.1844ZM57.9747 2.93011C60.3203 2.93011 62.2322 4.35553 62.2322 6.59783C62.2322 8.84013 60.3203 10.282 57.9747 10.282C55.6291 10.282 53.7286 8.85658 53.7286 6.59783C53.7286 4.33908 55.6348 2.93011 57.9747 2.93011Z" fill="#00578A"/>
<path d="M0 16.749H9.25122V24.7752H12.8068V16.749H22.0694V14.8027H0V16.749Z" fill="#00578A"/>
<path d="M11.0248 12.7159C15.5334 12.7159 19.1745 10.353 19.1745 6.85519C19.1745 3.35743 15.5277 1 11.0248 1C6.52184 1 2.875 3.36291 2.875 6.85519C2.875 10.3475 6.52184 12.7159 11.0248 12.7159ZM11.0248 3.00107C13.4902 3.00107 15.4934 4.49776 15.4934 6.86067C15.4934 9.22358 13.4902 10.7203 11.0248 10.7203C8.55928 10.7203 6.56179 9.22358 6.56179 6.86067C6.56179 4.49776 8.55928 3.00107 11.0248 3.00107Z" fill="#00578A"/>
<path d="M74.3249 2.16775V2.84756H69.4453V4.71157H71.7624C70.5411 5.56682 69.7649 6.85518 69.7649 8.41218C69.7649 11.3288 72.4644 13.2915 75.8087 13.2915C79.1531 13.2915 81.8412 11.3288 81.8412 8.41218C81.8412 6.85518 81.0707 5.56682 79.838 4.71157H82.001V2.84756H77.3725V1.79495C77.3725 1.2796 77.207 1 76.4651 1H74.0395C74.0395 1 74.3192 1.16447 74.3192 2.16775H74.3249ZM72.881 8.4067C72.881 6.54269 74.1879 5.35849 75.8087 5.35849C77.4296 5.35849 78.7251 6.54269 78.7251 8.4067C78.7251 10.2707 77.4181 11.4604 75.8087 11.4604C74.1993 11.4604 72.881 10.2762 72.881 8.4067Z" fill="#00578A"/>
<path d="M82.47 14.0137C78.3323 14.0137 74.9766 16.1573 74.9766 19.3371C74.9766 22.5168 78.3323 24.655 82.47 24.655C86.6076 24.655 89.9577 22.5114 89.9577 19.3371C89.9577 16.1628 86.5962 14.0137 82.47 14.0137ZM82.47 22.8129C80.2442 22.8129 78.4465 21.4642 78.4465 19.3371C78.4465 17.2099 80.2442 15.8722 82.47 15.8722C84.6958 15.8722 86.4707 17.2154 86.4707 19.3371C86.4707 21.4587 84.6786 22.8129 82.47 22.8129Z" fill="#00578A"/>
<path d="M87.2013 3.26049V5.94138H85.9058V2.15853C85.9058 1.65964 85.7345 1.39648 84.9584 1.39648H82.8125C82.8125 1.39648 83.1036 1.64319 83.1036 3.26598V12.9808H85.9058V7.86569H87.2013V12.9808H90.0092V2.15853C90.0092 1.65964 89.838 1.39648 89.0561 1.39648H86.9102C86.9102 1.39648 87.207 1.66512 87.207 3.26598L87.2013 3.26049Z" fill="#00578A"/>
<path d="M42.1012 1.3922H39.6129C39.6129 1.3922 39.904 1.6115 39.904 3.28362V14.5225C39.8755 16.2494 37.0961 16.2111 37.0961 16.2111H28.9292C28.1645 16.2549 28.096 15.904 28.0732 15.4545V10.7232H35.1214C35.8976 10.7232 36.0745 10.4436 36.0745 9.93922V2.856C36.0745 2.35162 35.8976 2.08846 35.11 2.08846H24.2266V3.96892H32.6046V8.83178H24.3008C24.3008 8.83178 24.5975 9.20459 24.5975 10.1804V16.6442C24.6318 17.1485 24.8886 18.0202 26.7948 18.0915H36.3485C36.3485 18.0915 39.145 18.1683 39.904 17.4556V24.1495H43.2313V2.16522C43.2313 1.66084 42.8774 1.38672 42.0955 1.38672L42.1012 1.3922Z" fill="#00578A"/>
<path d="M174.078 1.59696C174.078 1.17515 173.904 0.769441 173.594 0.470794C173.284 0.172147 172.864 0.00471123 172.426 0.00390625H168.914V15.9344H174.079L174.078 1.59696Z" fill="#17BF98"/>
<path d="M189.599 18.0352H184.434V21.0224H177.203V25.9996H196.831V21.0216H189.599V18.0352Z" fill="#17BF98"/>
<path d="M152.327 9.95765L155.558 4.97966L153.73 2.16224C153.247 1.41763 152.228 1.19063 151.454 1.6551C151.454 1.6551 151.452 1.6559 151.451 1.65671C151.239 1.7839 151.059 1.95697 150.927 2.16224L142 15.9306H148.456L152.328 9.95765H152.327Z" fill="#17BF98"/>
<path d="M156.364 6.22317L153.133 11.202L156.202 15.9336H166.79V1.59696C166.79 1.17434 166.616 0.769441 166.307 0.470794C165.997 0.172147 165.576 0.00390625 165.138 0.00390625H158.526V4.9835H161.628V14.343L156.364 6.22317Z" fill="#17BF98"/>
<path d="M196.831 14.3391V0H194.894L191.663 4.97879V10.9533H182.366V4.98201H190.052L193.282 0.00321991H178.855C178.417 0.00321991 177.997 0.17146 177.688 0.470107C177.378 0.768755 177.204 1.17366 177.203 1.59547V15.9346H195.178C196.092 15.9346 196.831 15.2213 196.831 14.3423V14.3391Z" fill="#17BF98"/>
<path d="M211.302 14.9933C211.166 14.5949 211.092 14.1795 211.083 13.7601L210.938 11.8225C210.81 10.1313 210.042 9.42692 207.792 9.42692H203.935V14.9942H202.766V1.30469H208.012C210.991 1.30469 212.398 2.85427 212.398 5.30382C212.398 7.17057 211.576 8.43921 209.876 8.91495C211.301 9.17979 211.978 10.0073 212.125 11.804L212.252 13.7416C212.279 14.1674 212.366 14.5876 212.507 14.9925H211.302V14.9933ZM207.902 8.4046C210.076 8.4046 211.228 7.36537 211.228 5.37305C211.228 3.38073 210.076 2.3254 207.902 2.3254H203.935V8.40299L207.902 8.4046Z" fill="#17BF98"/>
<path d="M215.465 10.4315C215.52 12.9157 216.507 14.2898 218.663 14.2898C220.308 14.2898 221.259 13.5146 221.551 12.159H222.703C222.321 14.0966 220.949 15.2244 218.645 15.2244C215.739 15.2244 214.352 13.3214 214.352 10.1152C214.352 6.90896 215.74 4.98828 218.645 4.98828C221.55 4.98828 222.922 6.90735 222.922 10.112V10.4291L215.465 10.4307V10.4315ZM215.502 9.53319H221.79C221.68 7.24303 220.694 5.92125 218.644 5.92125C216.581 5.91964 215.594 7.24061 215.503 9.52997V9.53319H215.502Z" fill="#17BF98"/>
<path d="M226.25 19.2573H225.133V5.2169H226.248V6.87274C226.705 5.74496 227.802 4.98828 229.538 4.98828C232.243 4.98828 233.704 6.76728 233.704 10.1152C233.704 13.4631 232.241 15.2244 229.538 15.2244C227.802 15.2244 226.705 14.4669 226.248 13.3568L226.25 19.2581V19.2573ZM229.43 14.2898C231.641 14.2898 232.593 12.774 232.593 10.1144C232.593 7.45474 231.642 5.92125 229.43 5.92125C227.219 5.92125 226.25 7.43703 226.25 10.1144C226.25 12.7917 227.2 14.2898 229.43 14.2898Z" fill="#17BF98"/>
<path d="M239.793 15.2224C236.887 15.2224 235.5 13.3026 235.5 10.1132C235.5 6.92391 236.889 4.98633 239.793 4.98633C242.698 4.98633 244.071 6.90701 244.071 10.1132C244.071 13.3195 242.7 15.2224 239.793 15.2224ZM239.793 14.2887C242.004 14.2887 242.957 12.7729 242.957 10.1132C242.957 7.45359 242.005 5.9201 239.793 5.9201C237.581 5.9201 236.614 7.43588 236.614 10.1132C236.614 12.7906 237.564 14.2887 239.793 14.2887Z" fill="#17BF98"/>
<path d="M247.404 10.0597V14.9926H246.289V5.21534H247.404V7.09979C247.843 5.74341 248.811 4.98592 250.439 4.98592C250.69 4.97787 250.942 5.00122 251.187 5.05676L251.17 5.97282C251.005 5.95512 250.712 5.93741 250.42 5.93741C248.592 5.93741 247.404 7.29379 247.404 10.0597Z" fill="#17BF98"/>
<path d="M254.658 12.2789C254.658 13.8293 255.353 14.1988 256.761 14.1988H257.765V15.1149C257.383 15.1326 256.961 15.1326 256.613 15.1326C254.493 15.1326 253.543 14.4983 253.543 12.4552V6.14823H252.008V5.21526H253.543V2.43164H254.658V5.21526H257.765V6.14823H254.658V12.2789Z" fill="#17BF98"/>
<path d="M212.124 11.804C211.977 10.0073 211.301 9.17979 209.876 8.91495C211.577 8.43921 212.398 7.17057 212.398 5.30382C212.398 2.85508 210.991 1.30469 208.012 1.30469H202.766V14.9925H203.935V9.42531H207.794C210.042 9.42531 210.812 10.1297 210.939 11.8209L211.085 13.7585C211.094 14.1779 211.168 14.5933 211.304 14.9917H212.51C212.369 14.5876 212.283 14.1666 212.255 13.7408L212.125 11.8032L212.124 11.804ZM203.935 8.40379V2.3254H207.902C210.076 2.3254 211.228 3.36463 211.228 5.37305C211.228 7.38147 210.076 8.4046 207.902 8.4046L203.935 8.40299V8.40379Z" fill="#17BF98" stroke="#17BF98" stroke-width="0.403162"/>
<path d="M218.645 4.98633C215.739 4.98633 214.352 6.90701 214.352 10.1132C214.352 13.3195 215.74 15.2224 218.645 15.2224C220.948 15.2224 222.319 14.0947 222.703 12.1571H221.551C221.259 13.5135 220.308 14.2879 218.663 14.2879C216.507 14.2879 215.518 12.9138 215.465 10.4296H222.922V10.1124C222.922 6.90942 221.551 4.98713 218.645 4.98713V4.98633ZM215.499 9.53124C215.591 7.24107 216.578 5.9201 218.645 5.9201C220.712 5.9201 221.679 7.24107 221.791 9.53124H215.499Z" fill="#17BF98" stroke="#17BF98" stroke-width="0.403162"/>
<path d="M229.54 4.98713C227.803 4.98713 226.706 5.74462 226.25 6.87159V5.21575H225.133V19.2554H226.248V13.3557C226.705 14.4658 227.802 15.2232 229.538 15.2232C232.243 15.2232 233.704 13.4619 233.704 10.114C233.704 6.76614 232.245 4.98633 229.54 4.98633V4.98713ZM229.43 14.2871C227.2 14.2871 226.25 12.7713 226.25 10.1116C226.25 7.45198 227.2 5.91849 229.43 5.91849C231.661 5.91849 232.593 7.43427 232.593 10.1116C232.593 12.789 231.642 14.2887 229.43 14.2887V14.2871Z" fill="#17BF98" stroke="#17BF98" stroke-width="0.403162"/>
<path d="M239.793 4.98633C236.887 4.98633 235.5 6.90701 235.5 10.1132C235.5 13.3195 236.889 15.2224 239.793 15.2224C242.698 15.2224 244.07 13.3026 244.07 10.1132C244.07 6.92391 242.7 4.98633 239.793 4.98633ZM239.793 14.2862C237.563 14.2862 236.613 12.7705 236.613 10.1108C236.613 7.45117 237.563 5.91769 239.793 5.91769C242.024 5.91769 242.956 7.43346 242.956 10.1108C242.956 12.7882 242.005 14.2879 239.793 14.2879V14.2862Z" fill="#17BF98" stroke="#17BF98" stroke-width="0.403162"/>
<path d="M247.404 7.09976V5.21531H246.289V14.9926H247.404V10.0597C247.404 7.29376 248.592 5.93737 250.422 5.93737C250.714 5.93737 251.007 5.95508 251.171 5.97279L251.19 5.05673C250.944 5.00199 250.692 4.97784 250.44 4.98589C248.811 4.98589 247.843 5.74337 247.404 7.09976Z" fill="#17BF98" stroke="#17BF98" stroke-width="0.403162"/>
<path d="M257.765 6.14823V5.21526H254.658V2.43164H253.543V5.21526H252.008V6.14823H253.543V12.4552C253.543 14.4991 254.493 15.1326 256.613 15.1326C256.961 15.1326 257.381 15.1326 257.765 15.1149V14.1996H256.761C255.353 14.1996 254.658 13.8309 254.658 12.2797V6.14823H257.765Z" fill="#17BF98" stroke="#17BF98" stroke-width="0.403162"/>
<path fill-rule="evenodd" clip-rule="evenodd" d="M115.999 12.3478L121.532 6.81641L122.001 7.28483L116.467 12.816L122.001 18.3473L121.532 18.8157L115.999 13.2843L110.468 18.813L110 18.3445L115.53 12.816L110 7.28756L110.468 6.81913L115.999 12.3478Z" fill="#333333"/>
<path d="M121.532 6.81641L122.24 6.10943L121.533 5.40219L120.825 6.10917L121.532 6.81641ZM115.999 12.3478L115.292 13.055L115.999 13.7617L116.706 13.055L115.999 12.3478ZM122.001 7.28483L122.708 7.99207L123.415 7.28509L122.708 6.57786L122.001 7.28483ZM116.467 12.816L115.76 12.1088L115.053 12.816L115.76 13.5233L116.467 12.816ZM122.001 18.3473L122.708 19.0542L123.415 18.347L122.708 17.64L122.001 18.3473ZM121.532 18.8157L120.825 19.5229L121.533 20.2299L122.24 19.5227L121.532 18.8157ZM115.999 13.2843L116.706 12.5771L115.999 11.8703L115.292 12.5771L115.999 13.2843ZM110.468 18.813L109.761 19.5199L110.468 20.2272L111.175 19.5202L110.468 18.813ZM110 18.3445L109.293 17.6373L108.586 18.3443L109.293 19.0515L110 18.3445ZM115.53 12.816L116.237 13.5233L116.945 12.816L116.237 12.1088L115.53 12.816ZM110 7.28756L109.293 6.58058L108.586 7.28782L109.293 7.9948L110 7.28756ZM110.468 6.81913L111.175 6.1119L110.468 5.40492L109.761 6.11215L110.468 6.81913ZM120.825 6.10917L115.292 11.6405L116.706 13.055L122.239 7.52364L120.825 6.10917ZM122.708 6.57786L122.24 6.10943L120.825 7.52338L121.293 7.99181L122.708 6.57786ZM117.174 13.5233L122.708 7.99207L121.294 6.5776L115.76 12.1088L117.174 13.5233ZM115.76 13.5233L121.294 19.0545L122.708 17.64L117.174 12.1088L115.76 13.5233ZM121.293 17.6403L120.825 18.1087L122.24 19.5227L122.708 19.0542L121.293 17.6403ZM122.239 18.1084L116.706 12.5771L115.292 13.9915L120.825 19.5229L122.239 18.1084ZM111.175 19.5202L116.706 13.9915L115.292 12.5771L109.761 18.1057L111.175 19.5202ZM109.293 19.0515L109.761 19.5199L111.175 18.106L110.707 17.6375L109.293 19.0515ZM114.824 12.1088L109.293 17.6373L110.707 19.0518L116.237 13.5233L114.824 12.1088ZM116.237 12.1088L110.707 6.58033L109.293 7.9948L114.824 13.5233L116.237 12.1088ZM110.707 7.99454L111.175 7.52611L109.761 6.11215L109.293 6.58058L110.707 7.99454ZM109.761 7.52637L115.292 13.055L116.706 11.6405L111.175 6.1119L109.761 7.52637Z" fill="#333333"/>
</svg>
