<svg width="420" height="95" viewBox="0 0 420 95" fill="none" xmlns="http://www.w3.org/2000/svg">
<path d="M7.88362 92.1247L29.5235 62.4813C27.732 62.7162 26.0819 62.8102 24.5732 62.8102C20.8723 62.8102 17.3363 62.0585 13.989 60.5552C10.6416 59.0519 7.78933 56.9614 5.47919 54.2836C3.16905 51.6058 1.54253 48.4113 0.623185 44.7C-0.296157 40.9887 -0.201865 36.8546 0.929632 32.3447C2.24971 27.0126 4.48913 22.3148 7.64789 18.2511C10.8067 14.1875 14.5076 10.805 18.7036 8.10378C22.9231 5.40252 27.4727 3.35896 32.3287 2.02007C37.1847 0.681188 41.9935 0 46.7553 0C52.2713 0 57.198 0.869101 61.559 2.58382C65.92 4.32202 69.338 6.81188 71.7896 10.0769C74.2648 13.3419 75.6084 17.3585 75.8206 22.0799C76.0327 26.8247 74.7362 32.1567 71.8839 38.0995C70.9174 40.1196 69.5973 42.3041 67.8765 44.6295C66.1557 46.955 64.3406 49.4683 62.3841 52.1931L33.2244 92.1013H7.88362V92.1247ZM34.5681 43.5255C38.8583 43.5255 42.3943 42.3511 45.1759 39.9787C47.9575 37.6063 49.749 34.7406 50.5976 31.3581C51.4462 27.9757 51.0219 25.11 49.3247 22.7845C47.651 20.4591 44.728 19.2847 40.5792 19.2847C36.4303 19.2847 32.9416 20.4591 30.0892 22.7845C27.2369 25.11 25.3983 27.9757 24.5732 31.3581C23.7246 34.7406 24.1017 37.6063 25.7047 39.9787C27.3077 42.3511 30.2543 43.5255 34.5445 43.5255H34.5681Z" fill="url(#paint0_linear_4347_6070)"/>
<path d="M71.7836 47.1426C73.5987 39.8609 76.121 33.284 79.3269 27.4586C82.5564 21.6333 86.3517 16.7006 90.7126 12.6369C95.0736 8.57331 99.9532 5.47273 105.351 3.33521C110.75 1.19769 116.572 0.117188 122.842 0.117188C129.113 0.117188 134.181 1.19769 138.518 3.33521C142.856 5.47273 146.203 8.57331 148.584 12.6369C150.965 16.7006 152.332 21.6333 152.709 27.4586C153.063 33.284 152.332 39.8375 150.541 47.1426C148.702 54.5182 146.227 61.0952 143.068 66.9205C139.933 72.7458 136.161 77.6786 131.8 81.7422C127.439 85.8059 122.536 88.9299 117.091 91.0909C111.645 93.2754 105.752 94.3559 99.411 94.3559C93.0699 94.3559 87.8603 93.2754 83.5229 91.0909C79.2091 88.9064 75.8617 85.7824 73.528 81.7422C71.1707 77.6786 69.8507 72.7458 69.5206 66.9205C69.1906 61.0952 69.945 54.4947 71.7836 47.1426ZM95.3093 47.1426C94.06 52.1693 93.4235 56.4678 93.4235 59.9912C93.4235 63.5381 93.8714 66.4038 94.7907 68.6117C95.7101 70.8197 96.983 72.4405 98.6095 73.474C100.236 74.484 102.122 75.0008 104.22 75.0008C106.318 75.0008 108.581 74.484 110.773 73.474C112.942 72.464 115.04 70.8432 117.067 68.6117C119.094 66.4038 120.957 63.5146 122.654 59.9912C124.351 56.4678 125.836 52.1693 127.086 47.1426C128.311 42.1864 128.948 37.9348 129.019 34.4114C129.066 30.8881 128.618 28.0224 127.698 25.8379C126.779 23.6534 125.459 22.0561 123.809 21.0461C122.135 20.036 120.202 19.5193 118.01 19.5193C115.818 19.5193 113.767 20.036 111.645 21.0461C109.5 22.0561 107.426 23.6534 105.422 25.8379C103.418 28.0224 101.533 30.8646 99.7882 34.4114C98.0438 37.9348 96.5587 42.1864 95.3093 47.1426Z" fill="url(#paint1_linear_4347_6070)"/>
<path d="M145.703 87.8208L203.598 27.9232H219.368L161.544 87.8208H145.703ZM154.567 40.0907C155.085 37.9766 155.981 36.074 157.23 34.3828C158.48 32.6916 159.941 31.2352 161.615 30.0608C163.288 28.8863 165.104 27.9937 167.084 27.3595C169.04 26.7253 170.997 26.4199 172.906 26.4199C174.816 26.4199 176.654 26.7253 178.281 27.3595C179.907 27.9937 181.275 28.8863 182.359 30.0608C183.443 31.2352 184.174 32.6681 184.575 34.3593C184.952 36.027 184.881 37.9531 184.363 40.1142C183.844 42.2282 182.972 44.1073 181.746 45.7986C180.52 47.4663 179.082 48.8991 177.409 50.0736C175.735 51.2481 173.92 52.1641 171.987 52.7749C170.054 53.3856 168.097 53.7144 166.141 53.7144C164.184 53.7144 162.44 53.4091 160.79 52.7749C159.14 52.1406 157.772 51.2481 156.665 50.0736C155.58 48.8991 154.826 47.4663 154.402 45.7986C153.977 44.1308 154.048 42.2282 154.567 40.1142V40.0907ZM168.616 43.6141C169.724 43.6141 170.667 43.2852 171.468 42.604C172.27 41.9228 172.788 41.1007 173.048 40.0907C173.307 39.0336 173.213 38.188 172.741 37.5303C172.27 36.8726 171.492 36.5438 170.384 36.5438C169.276 36.5438 168.239 36.8726 167.461 37.5538C166.659 38.235 166.141 39.0806 165.881 40.0672C165.622 41.0772 165.74 41.8993 166.188 42.5805C166.659 43.2617 167.461 43.5906 168.616 43.5906V43.6141ZM181.18 75.6299C181.699 73.5159 182.595 71.6132 183.844 69.922C185.093 68.2308 186.555 66.7745 188.229 65.6C189.902 64.4255 191.717 63.5329 193.697 62.8987C195.654 62.2645 197.611 61.9592 199.52 61.9592C201.429 61.9592 203.268 62.2645 204.895 62.8987C206.521 63.5329 207.888 64.4255 208.973 65.6C210.057 66.7745 210.788 68.2073 211.189 69.8985C211.566 71.5663 211.495 73.4924 210.976 75.6534C210.458 77.7674 209.586 79.6466 208.36 81.3378C207.134 83.0055 205.696 84.4384 204.022 85.6128C202.349 86.7873 200.534 87.6799 198.601 88.3141C196.668 88.9483 194.711 89.2537 192.755 89.2537C190.798 89.2537 189.054 88.9483 187.404 88.3141C185.753 87.6799 184.386 86.7873 183.278 85.6128C182.194 84.4384 181.44 83.0055 181.015 81.3378C180.591 79.67 180.662 77.7674 181.18 75.6534V75.6299ZM195.23 79.1533C196.338 79.1533 197.281 78.8244 198.082 78.1432C198.883 77.4621 199.402 76.6399 199.661 75.6299C199.921 74.5729 199.826 73.7273 199.355 73.0696C198.883 72.4119 198.106 72.083 196.998 72.083C195.89 72.083 194.876 72.4119 194.075 73.0931C193.273 73.7743 192.755 74.6199 192.495 75.6064C192.236 76.6164 192.354 77.4386 192.802 78.1198C193.273 78.8009 194.075 79.1298 195.23 79.1298V79.1533Z" fill="url(#paint2_linear_4347_6070)"/>
<path d="M252.215 67.2254L249.905 76.5506H292.383L289.177 89.3992H231.094L236.61 67.2254H252.215ZM282.318 25.0622L272.959 62.7154H234.559L243.917 25.0622H282.318ZM261.196 50.548L264.496 37.2296H255.68L252.38 50.548H261.196ZM298.654 48.293L293.279 69.9501H277.674L289.012 24.334H304.617L301.859 35.3739H308.413L305.207 48.293H298.654Z" fill="url(#paint3_linear_4347_6070)"/>
<path d="M341.521 89.3996L343.453 81.5776H301.211L304.417 68.729H362.265L357.126 89.3996H341.521ZM304.558 53.3201H329.381L330.323 49.5618H345.929L344.986 53.3201H369.808L366.602 66.2392H301.352L304.558 53.3201ZM372.377 25.0625L369.619 36.1964H349.63C349.488 36.5957 349.252 37.0185 348.946 37.4648L370.114 41.5285L363.42 51.7463L337.419 46.4847C333.812 48.035 329.781 49.2329 325.326 50.102C320.871 50.9477 316.298 51.5584 311.63 51.9107L310.121 41.6224C316.58 40.9177 321.672 40.2131 325.397 39.4849C329.121 38.7567 331.761 37.6762 333.341 36.2199H313.28L316.038 25.086H372.377V25.0625Z" fill="url(#paint4_linear_4347_6070)"/>
<path d="M365.969 89.398L369.646 74.5997H385.251L381.574 89.398H365.969ZM370.66 70.5361L381.998 24.9199H397.604L386.265 70.5361H370.66Z" fill="url(#paint5_linear_4347_6070)"/>
<path d="M388.367 89.398L392.045 74.5997H407.65L403.972 89.398H388.367ZM393.058 70.5361L404.397 24.9199H420.002L408.663 70.5361H393.058Z" fill="url(#paint6_linear_4347_6070)"/>
<defs>
<linearGradient id="paint0_linear_4347_6070" x1="37.9215" y1="0" x2="37.9215" y2="92.1247" gradientUnits="userSpaceOnUse">
<stop stop-color="#00B1FF"/>
<stop offset="1" stop-color="#5A51F3"/>
</linearGradient>
<linearGradient id="paint1_linear_4347_6070" x1="111.121" y1="0.117187" x2="111.121" y2="94.3559" gradientUnits="userSpaceOnUse">
<stop stop-color="#00B1FF"/>
<stop offset="1" stop-color="#5A51F3"/>
</linearGradient>
<linearGradient id="paint2_linear_4347_6070" x1="182.536" y1="26.4199" x2="182.536" y2="89.2537" gradientUnits="userSpaceOnUse">
<stop stop-color="#00B1FF"/>
<stop offset="1" stop-color="#5A51F3"/>
</linearGradient>
<linearGradient id="paint3_linear_4347_6070" x1="269.753" y1="24.334" x2="269.753" y2="89.3992" gradientUnits="userSpaceOnUse">
<stop stop-color="#00B1FF"/>
<stop offset="1" stop-color="#5A51F3"/>
</linearGradient>
<linearGradient id="paint4_linear_4347_6070" x1="336.794" y1="25.0625" x2="336.794" y2="89.3996" gradientUnits="userSpaceOnUse">
<stop stop-color="#00B1FF"/>
<stop offset="1" stop-color="#5A51F3"/>
</linearGradient>
<linearGradient id="paint5_linear_4347_6070" x1="381.786" y1="24.9199" x2="381.786" y2="89.398" gradientUnits="userSpaceOnUse">
<stop stop-color="#00B1FF"/>
<stop offset="1" stop-color="#5A51F3"/>
</linearGradient>
<linearGradient id="paint6_linear_4347_6070" x1="404.185" y1="24.9199" x2="404.185" y2="89.398" gradientUnits="userSpaceOnUse">
<stop stop-color="#00B1FF"/>
<stop offset="1" stop-color="#5A51F3"/>
</linearGradient>
</defs>
</svg>
