<svg xmlns="http://www.w3.org/2000/svg" width="781.25" height="493.007" viewBox="0 0 781.25 493.007">
    <defs>
        <clipPath id="7nzcdlaxcb">
            <path data-name="사각형 24878" style="fill:url(#xzqt83pmya)" d="M0 0h781.25v493.007H0z"/>
        </clipPath>
        <clipPath id="qarheotr3c">
            <path data-name="패스 60941" d="M765.064 181.982c-22.47-34.667-62.064-60.6-106.575-69.794a190.9 190.9 0 0 0-81.774 1.345C519.241 25.5 449.507-11.747 390.763 3.223 313.652 22.873 318.145 84.24 265.4 95.7c-45.987 9.993-84.2 14.7-128.057 31.04-29.372 10.948-59.464 21.92-83.7 41.3C6.536 205.721-10.343 272.218 6.178 329.019s62.809 103.131 118.041 128.61S242.773 489.2 303.68 483.05c40.843-4.12 81.5-13.544 122.468-10.809 35.28 2.356 69.255 13.65 104.272 18.417 31.564 4.3 64.375 3.133 94.419-7.134s57.128-30.2 72-57.36a102.96 102.96 0 0 0 7.446-81.076c-.049-.152-.1-.3-.151-.454a45.678 45.678 0 0 1 25.231-56.851c21.016-8.885 42.232-21.008 47.683-34.554 9.4-23.358 1.986-49.69-11.987-71.247" style="fill:url(#xzqt83pmya)"/>
        </clipPath>
        <linearGradient id="xzqt83pmya" y1=".606" x2="1" y2=".606" gradientUnits="objectBoundingBox">
            <stop offset="0" stop-color="#d3c9fb"/>
            <stop offset="1" stop-color="#bef7ff"/>
        </linearGradient>
    </defs>
    <g data-name="그룹 86805" style="opacity:.37">
        <g data-name="그룹 86804" style="clip-path:url(#7nzcdlaxcb)">
            <g data-name="그룹 86803">
                <g data-name="그룹 86802" style="clip-path:url(#7nzcdlaxcb)">
                    <g data-name="그룹 86801" style="opacity:.6">
                        <g data-name="그룹 86800">
                            <g data-name="그룹 86799" style="clip-path:url(#7nzcdlaxcb)">
                                <g data-name="그룹 86798">
                                    <g data-name="그룹 86797" style="clip-path:url(#qarheotr3c)">
                                        <path data-name="사각형 24875" transform="translate(-10.343 -11.747)" style="fill:url(#xzqt83pmya)" d="M0 0h796.792v506.701H0z"/>
                                    </g>
                                </g>
                            </g>
                        </g>
                    </g>
                </g>
            </g>
        </g>
    </g>
</svg>
