<svg xmlns="http://www.w3.org/2000/svg" xmlns:xlink="http://www.w3.org/1999/xlink" width="36" height="36" viewBox="0 0 36 36">
  <defs>
    <clipPath id="clip-path">
      <rect id="사각형_25774" data-name="사각형 25774" width="21.648" height="22.671" transform="translate(0 0)" fill="none"/>
    </clipPath>
  </defs>
  <g id="그룹_88162" data-name="그룹 88162" transform="translate(-1526 -8123)">
    <rect id="사각형_25777" data-name="사각형 25777" width="36" height="36" rx="18" transform="translate(1526 8123)" fill="#55627e" opacity="0.65"/>
    <g id="그룹_87602" data-name="그룹 87602" transform="translate(1533.178 8130.199)" opacity="0.65">
      <g id="그룹_87602-2" data-name="그룹 87602" clip-path="url(#clip-path)">
        <path id="패스_61617" data-name="패스 61617" d="M10.824,0C4.846,0,0,4.5,0,10.059A9.823,9.823,0,0,0,4.307,18.09V22.5a.166.166,0,0,0,.166.166.169.169,0,0,0,.1-.031l3.874-2.767a11.6,11.6,0,0,0,2.38.244c5.978,0,10.824-4.5,10.824-10.059S16.8,0,10.824,0M7.593,12.753a2.517,2.517,0,0,0,2.342-1.665h1.634a4.114,4.114,0,0,1-3.975,3.29,4.234,4.234,0,0,1,0-8.462,4.113,4.113,0,0,1,3.975,3.29H9.935A2.514,2.514,0,0,0,7.593,7.541v0a2.607,2.607,0,0,0,0,5.21m10.542,1.625H16.611V10.645a1.31,1.31,0,0,0-.255-.929.992.992,0,0,0-.727-.254,1.187,1.187,0,0,0-.514.114,1.262,1.262,0,0,0-.425.328,1.614,1.614,0,0,0-.292.531,2.194,2.194,0,0,0-.109.719v3.223h-1.52V5.748H14.3V9.005a2.529,2.529,0,0,1,.607-.451A2.2,2.2,0,0,1,15.966,8.3a2.1,2.1,0,0,1,1.615.6h0a2.6,2.6,0,0,1,.551,1.807Z" fill="#fff"/>
      </g>
    </g>
  </g>
</svg>
