<svg xmlns="http://www.w3.org/2000/svg" width="17.983" height="17.993" viewBox="0 0 17.983 17.993">
    <defs>
        <linearGradient id="aufqkpjsua" x1=".915" x2=".105" y2=".877" gradientUnits="objectBoundingBox">
            <stop offset="0" stop-color="#d3c9fb"/>
            <stop offset="1" stop-color="#b7e0e6"/>
        </linearGradient>
        <clipPath id="7taujph3ub">
            <path data-name="패스 60987" d="m336.513 12.579 3.39 2.07a2.738 2.738 0 0 0 2.846 0l3.392-2.07a2.737 2.737 0 0 1 3.76 3.762l-2.068 3.392a2.718 2.718 0 0 0 0 2.848l2.068 3.394a2.736 2.736 0 0 1-3.76 3.758l-3.392-2.067a2.723 2.723 0 0 0-2.846 0l-3.39 2.067a2.735 2.735 0 0 1-3.76-3.758l2.065-3.394a2.731 2.731 0 0 0 0-2.848l-2.065-3.392a2.727 2.727 0 0 1 3.76-3.762" transform="translate(-332.333 -12.16)" style="fill:url(#aufqkpjsua)"/>
        </clipPath>
    </defs>
    <g data-name="그룹 87008" style="opacity:.39">
        <g data-name="그룹 86975" style="clip-path:url(#7taujph3ub)">
            <path data-name="사각형 24955" transform="translate(-1.075 -1.076)" style="fill:url(#aufqkpjsua)" d="M0 0h20.132v20.145H0z"/>
        </g>
    </g>
</svg>
