<svg xmlns="http://www.w3.org/2000/svg" xmlns:xlink="http://www.w3.org/1999/xlink" width="410" height="744" viewBox="0 0 410 744">
  <defs>
    <filter id="사각형_26096" x="0" y="0" width="410" height="744" filterUnits="userSpaceOnUse">
      <feOffset dy="3" input="SourceAlpha"/>
      <feGaussianBlur stdDeviation="15" result="blur"/>
      <feFlood flood-opacity="0.161"/>
      <feComposite operator="in" in2="blur"/>
      <feComposite in="SourceGraphic"/>
    </filter>
    <clipPath id="clip-path">
      <rect id="사각형_24787" data-name="사각형 24787" width="299.999" height="18.282" fill="none"/>
    </clipPath>
    <clipPath id="clip-path-2">
      <rect id="사각형_24785" data-name="사각형 24785" width="15.092" height="19.284" fill="none"/>
    </clipPath>
    <clipPath id="clip-path-3">
      <rect id="사각형_22856" data-name="사각형 22856" width="105" height="153.78" transform="translate(0 0)" fill="none"/>
    </clipPath>
    <clipPath id="clip-path-4">
      <rect id="사각형_24557" data-name="사각형 24557" width="16.237" height="15.592" fill="#9f9f9f"/>
    </clipPath>
    <clipPath id="clip-path-5">
      <rect id="사각형_24562" data-name="사각형 24562" width="15.501" height="15.546" fill="none"/>
    </clipPath>
    <clipPath id="clip-path-6">
      <rect id="사각형_24570" data-name="사각형 24570" width="16.269" height="15.339" fill="none"/>
    </clipPath>
    <clipPath id="clip-path-7">
      <rect id="사각형_24546" data-name="사각형 24546" width="15.447" height="15.447" fill="#9f9f9f"/>
    </clipPath>
    <clipPath id="clip-path-8">
      <rect id="사각형_24604" data-name="사각형 24604" width="16.147" height="12.735" fill="#bebebe"/>
    </clipPath>
  </defs>
  <g id="그룹_88229" data-name="그룹 88229" transform="translate(22381 19988)">
    <g transform="matrix(1, 0, 0, 1, -22381, -19988)" filter="url(#사각형_26096)">
      <rect id="사각형_26096-2" data-name="사각형 26096" width="320" height="654" rx="50" transform="translate(45 42)" fill="#f8f8fb"/>
    </g>
    <rect id="사각형_26097" data-name="사각형 26097" width="300" height="634" rx="42" transform="translate(-22326 -19936)" fill="#fff"/>
    <rect id="사각형_26099" data-name="사각형 26099" width="144" height="4" rx="2" transform="translate(-22248 -19330)" fill="#383838"/>
    <g id="그룹_88175" data-name="그룹 88175" transform="translate(-22725.385 -20134.598)">
      <path id="패스_55684" data-name="패스 55684" d="M978.278,495.647v-1.006a6.4,6.4,0,0,0,.978-.093,1.374,1.374,0,0,0,.724-.394,1.3,1.3,0,0,0,.29-.539,1.228,1.228,0,0,0,.057-.3h1.235v7.517h-1.514v-5.184Z" transform="translate(-550.893 -277.963)" fill="#aeb8d1"/>
      <path id="패스_55685" data-name="패스 55685" d="M990.473,495.647v-1.006a6.4,6.4,0,0,0,.978-.093,1.374,1.374,0,0,0,.724-.394,1.3,1.3,0,0,0,.29-.539,1.228,1.228,0,0,0,.057-.3h1.235v7.517h-1.514v-5.184Z" transform="translate(-557.76 -277.963)" fill="#aeb8d1"/>
      <path id="패스_55686" data-name="패스 55686" d="M1005.067,498.09h1.572v1.55h-1.572Zm0,3.882h1.572v1.55h-1.572Z" transform="translate(-565.979 -280.654)" fill="#aeb8d1"/>
      <path id="패스_55687" data-name="패스 55687" d="M1012.1,495.647v-1.006a6.4,6.4,0,0,0,.978-.093,1.374,1.374,0,0,0,.724-.394,1.294,1.294,0,0,0,.29-.539,1.224,1.224,0,0,0,.057-.3h1.234v7.517h-1.514v-5.184Z" transform="translate(-569.938 -277.963)" fill="#aeb8d1"/>
      <path id="패스_55688" data-name="패스 55688" d="M1024.291,495.647v-1.006a6.4,6.4,0,0,0,.978-.093,1.374,1.374,0,0,0,.724-.394,1.3,1.3,0,0,0,.29-.539,1.228,1.228,0,0,0,.057-.3h1.235v7.517h-1.514v-5.184Z" transform="translate(-576.805 -277.963)" fill="#aeb8d1"/>
      <path id="패스_55689" data-name="패스 55689" d="M1428.228,508.495h-1.406a.419.419,0,0,1-.419-.419v-2.017a.419.419,0,0,1,.419-.418h1.406a.419.419,0,0,1,.419.418v2.017a.419.419,0,0,1-.419.419" transform="translate(-803.244 -284.908)" fill="#aeb8d1"/>
      <path id="패스_55690" data-name="패스 55690" d="M1436.3,506.359h-1.406a.419.419,0,0,1-.419-.419v-3.671a.419.419,0,0,1,.419-.419h1.406a.419.419,0,0,1,.419.419v3.671a.419.419,0,0,1-.419.419" transform="translate(-807.787 -282.773)" fill="#aeb8d1"/>
      <path id="패스_55691" data-name="패스 55691" d="M1444.365,504.224h-1.406a.419.419,0,0,1-.419-.419v-5.326a.419.419,0,0,1,.419-.418h1.406a.419.419,0,0,1,.419.418v5.326a.419.419,0,0,1-.419.419" transform="translate(-812.33 -280.639)" fill="#aeb8d1"/>
      <path id="패스_55692" data-name="패스 55692" d="M1452.433,502.088h-1.406a.419.419,0,0,1-.419-.419v-6.98a.419.419,0,0,1,.419-.419h1.406a.419.419,0,0,1,.419.419v6.98a.419.419,0,0,1-.419.419" transform="translate(-816.875 -278.502)" fill="#aeb8d1"/>
      <path id="패스_55693" data-name="패스 55693" d="M1477.808,507.212a1.315,1.315,0,1,1-1.315-1.314,1.315,1.315,0,0,1,1.315,1.314" transform="translate(-830.709 -285.055)" fill="#aeb8d1"/>
      <path id="패스_55694" data-name="패스 55694" d="M1476.454,501.738a.794.794,0,0,1-.561-.232,2.686,2.686,0,0,0-3.794,0,.793.793,0,0,1-1.122-1.122,4.273,4.273,0,0,1,6.039,0,.793.793,0,0,1-.561,1.354" transform="translate(-828.213 -281.242)" fill="#aeb8d1"/>
      <path id="패스_55695" data-name="패스 55695" d="M1475.859,495.916a.793.793,0,0,1-.561-.232,5.61,5.61,0,0,0-7.923,0,.793.793,0,0,1-1.122-1.122,7.2,7.2,0,0,1,10.167,0,.793.793,0,0,1-.561,1.354" transform="translate(-825.553 -277.482)" fill="#aeb8d1"/>
      <path id="패스_55696" data-name="패스 55696" d="M1516.36,501.869h-12.246a.818.818,0,0,1-.816-.815V497.23a.818.818,0,0,1,.816-.815h12.246a.818.818,0,0,1,.816.815v3.824a.818.818,0,0,1-.816.815" transform="translate(-846.545 -279.711)" fill="#aeb8d1"/>
      <path id="패스_55697" data-name="패스 55697" d="M1535.99,499.426h-.083v2.825h.083a.98.98,0,0,0,.978-.977V500.4a.98.98,0,0,0-.978-.977" transform="translate(-864.908 -281.406)" fill="#aeb8d1"/>
    </g>
    <g id="그룹_88187" data-name="그룹 88187">
      <g id="그룹_88179" data-name="그룹 88179" transform="translate(719 1351.427)">
        <g id="그룹_83519" data-name="그룹 83519" transform="translate(-23045 -20790.324)">
          <g id="그룹_83519-2" data-name="그룹 83519" clip-path="url(#clip-path)">
            <path id="패스_60544" data-name="패스 60544" d="M0,18.282A18.328,18.328,0,0,1,18.333,0H281.666A18.328,18.328,0,0,1,300,18.282h-.417A17.912,17.912,0,0,0,281.666.416H18.333A17.912,17.912,0,0,0,.417,18.282Z" fill="#cbcbcb"/>
          </g>
        </g>
        <g id="그룹_88178" data-name="그룹 88178" transform="translate(-23022.43 -20778.018)">
          <g id="그룹_83500" data-name="그룹 83500">
            <g id="그룹_83516" data-name="그룹 83516" clip-path="url(#clip-path-2)">
              <path id="패스_60540" data-name="패스 60540" d="M25.817,60.3a2.373,2.373,0,1,1-2.373-2.413A2.393,2.393,0,0,1,25.817,60.3" transform="translate(-15.898 -43.428)" fill="#ffb83b"/>
              <path id="패스_60541" data-name="패스 60541" d="M13.843,19.808a16.966,16.966,0,0,1-.22-3.68c.112-3.568-2.353-7.188-6.077-7.244-3.725.056-6.188,3.676-6.078,7.244a17.065,17.065,0,0,1-.219,3.68,1.925,1.925,0,0,0,.641,3.728H13.2a1.925,1.925,0,0,0,.645-3.727" transform="translate(0 -6.665)" fill="#ffd039"/>
              <path id="패스_60542" data-name="패스 60542" d="M25.446,3.5a1.738,1.738,0,0,1-1.721-1.75,1.721,1.721,0,1,1,3.441,0,1.737,1.737,0,0,1-1.72,1.75m0-2.763a1.013,1.013,0,1,0,1,1.013,1.006,1.006,0,0,0-1-1.013" transform="translate(-17.9 0)" fill="#ffd039"/>
              <path id="패스_60543" data-name="패스 60543" d="M11.272,20.17h-.023a.893.893,0,0,1-.862-.922c.127-5.084,3.517-5.814,3.661-5.842a.886.886,0,0,1,1.037.711.9.9,0,0,1-.687,1.052c-.111.027-2.154.562-2.243,4.126a.892.892,0,0,1-.883.876" transform="translate(-7.837 -10.044)" fill="#ffde82"/>
            </g>
          </g>
          <text id="영수증" transform="translate(220.862 13.481)" fill="#202020" font-size="13" font-family="Pretendard-SemiBold, Pretendard" font-weight="600"><tspan x="0" y="0">영수증</tspan></text>
          <text id="카드매출_입금예정_4건..." data-name="카드매출 입금예정 4건..." transform="translate(22.71 12.371)" fill="#636363" font-size="8" font-family="Pretendard-Medium, Pretendard" font-weight="500"><tspan x="0" y="0">카드매출 입금예정 4건...</tspan></text>
        </g>
      </g>
      <g id="그룹_88185" data-name="그룹 88185" transform="translate(-9.477)">
        <g id="그룹_77690" data-name="그룹 77690" transform="translate(-22306.346 -19878.715)">
          <g id="그룹_23148" data-name="그룹 23148" transform="translate(0 0)">
            <rect id="사각형_10126" data-name="사각형 10126" width="2.558" height="3.507" transform="translate(47.161 9.577)" fill="#c8c8c8"/>
            <path id="사각형_10127" data-name="사각형 10127" d="M0,0H1.655a.9.9,0,0,1,.9.9V5.459A2.558,2.558,0,0,1,0,8.016H0a0,0,0,0,1,0,0V0A0,0,0,0,1,0,0Z" transform="translate(50.742 0)" fill="#c8c8c8"/>
            <path id="패스_27551" data-name="패스 27551" d="M568.583,135.568l1.407-2.2,1.407,2.2h3.2l-3.517-5.511h2.494v-2.505h-6.343a.81.81,0,0,0-.819.8v1.7H568.9l-3.517,5.511Z" transform="translate(-537.188 -127.551)" fill="#c8c8c8"/>
            <path id="패스_27552" data-name="패스 27552" d="M520.347,128.353a.81.81,0,0,0-.818-.8H517.79v8.017h2.558Z" transform="translate(-504.464 -127.551)" fill="#c8c8c8"/>
            <path id="패스_27553" data-name="패스 27553" d="M599.128,130.056h1.535v-2.505h-3.274a.81.81,0,0,0-.818.8v7.215h2.557Z" transform="translate(-558.64 -127.551)" fill="#c8c8c8"/>
            <path id="패스_27554" data-name="패스 27554" d="M537.058,157.094H534.5v1.5H530.92V161.1h9.719V158.6h-3.581Z" transform="translate(-513.488 -148.019)" fill="#c8c8c8"/>
            <path id="패스_27555" data-name="패스 27555" d="M617.182,129.054v-1.5h-2.558v8.016H622.3v-2.505h-5.115v-1.5h7.161v-2.505Z" transform="translate(-571.044 -127.551)" fill="#c8c8c8"/>
            <rect id="사각형_10128" data-name="사각형 10128" width="9.719" height="2.505" transform="translate(43.58 9.069)" fill="#c8c8c8"/>
            <path id="패스_27556" data-name="패스 27556" d="M578.517,161.1a4.093,4.093,0,1,0,4.092-4.008A4.051,4.051,0,0,0,578.517,161.1Zm5.627,0a1.535,1.535,0,1,1-1.535-1.5A1.519,1.519,0,0,1,584.144,161.1Z" transform="translate(-546.219 -147.994)" fill="#c8c8c8"/>
            <path id="패스_27557" data-name="패스 27557" d="M480.232,134.18h0l1.6-2.505-.9-1.418a.828.828,0,0,0-1.388,0l-4.421,6.929h3.2Z" transform="translate(-475.117 -129.169)" fill="#c8c8c8"/>
            <path id="패스_27558" data-name="패스 27558" d="M494.408,130.681l-1.6,2.505,1.519,2.381h5.243v-7.215a.81.81,0,0,0-.818-.8h-3.274v2.505h1.535v4.71Z" transform="translate(-487.295 -127.551)" fill="#c8c8c8"/>
            <path id="패스_27572" data-name="패스 27572" d="M540.639,134.766v-7.215h-.959l-1.6,2.505h0v3.006h-4.6v-3.006h3.806l1.6-2.505h-7.143a.81.81,0,0,0-.818.8v7.215h8.9A.81.81,0,0,0,540.639,134.766Z" transform="translate(-513.488 -127.551)" fill="#c8c8c8"/>
          </g>
        </g>
        <text id="전체_잔액" data-name="전체 잔액" transform="translate(-22306.346 -19828.023)" font-size="19" font-family="Pretendard-Medium, Pretendard" font-weight="500" letter-spacing="-0.01em"><tspan x="0" y="0">전체 잔액</tspan></text>
        <text id="_12_458_000원" data-name="12,458,000원" transform="translate(-22306.346 -19791.363)" fill="#222" font-size="23" font-family="Pretendard-Bold, Pretendard" font-weight="700" letter-spacing="-0.01em"><tspan x="0" y="0">12,458,000원</tspan></text>
        <text id="자유예금" transform="translate(-22278.471 -19719.547)" fill="#e8e8e8" font-size="10" font-family="Pretendard-Medium, Pretendard" font-weight="500" letter-spacing="-0.01em"><tspan x="0" y="0">자유예금</tspan></text>
        <g id="ico_small_card8_하나카드" transform="translate(-22306.523 -19730.965)">
          <circle id="타원_73" data-name="타원 73" cx="10.908" cy="10.908" r="10.908" transform="translate(0 0)" fill="#e1e1e1"/>
          <g id="그룹_438" data-name="그룹 438" transform="translate(3.295 4.901)">
            <g id="그룹_437" data-name="그룹 437">
              <path id="패스_839" data-name="패스 839" d="M258.2,196.673a2.723,2.723,0,0,0-.194-.659,3.253,3.253,0,0,0-1.3-1.511,2.934,2.934,0,0,0-3.023.019,2.652,2.652,0,0,0-1,1.067,3.124,3.124,0,0,0-.189.466,3.279,3.279,0,0,0,.207,2.552,1.285,1.285,0,0,0,.61.532.89.89,0,0,0,.791-.061.838.838,0,0,0,.295-.884,2.317,2.317,0,0,1,.029-1.235.939.939,0,0,1,.219-.351.814.814,0,0,1,.209-.143.874.874,0,0,1,.522-.085,1,1,0,0,1,.7.572,2.321,2.321,0,0,1,.19.914,13.722,13.722,0,0,1-.609,4.089c-.036.135-.073.269-.111.4-.029.1-.083.236-.016.337a.265.265,0,0,0,.121.093.461.461,0,0,0,.5-.179,7.306,7.306,0,0,0,1.664-2.912,9.364,9.364,0,0,0,.319-1.217,5.361,5.361,0,0,0,.061-1.808" transform="translate(-247.343 -187.739)" fill="#fff"/>
              <path id="패스_840" data-name="패스 840" d="M251.7,180.4a.347.347,0,0,0-.376-.333,1.8,1.8,0,0,0-.562.178,22.76,22.76,0,0,1-11.2,1.058c-.634-.092-1.277-.22-1.916-.32-.4-.062-.793-.152-1.2-.183a1.44,1.44,0,0,0-1.048.2,1.107,1.107,0,0,0-.133,1.311,2.954,2.954,0,0,0,1.14,1.1,2.754,2.754,0,0,0,1.492.51q2.127-.136,4.241-.41a28.343,28.343,0,0,0,7.179-1.539,9.024,9.024,0,0,0,2.1-1.177c.116-.086.28-.229.28-.4" transform="translate(-235.119 -177.779)" fill="#fff"/>
              <path id="패스_841" data-name="패스 841" d="M257.511,173.579a1.385,1.385,0,0,0,2.77,0,.785.785,0,0,0-.075-.332c-.119-.251-.252-.373-.239-.675.018-.407-.5-.412-.784-.412a2.034,2.034,0,0,0-.908.181,1.382,1.382,0,0,0-.763,1.206c0,.011,0,.021,0,.032" transform="translate(-251.024 -172.16)" fill="#fff"/>
            </g>
          </g>
        </g>
        <text id="든든한보금자리_" data-name="든든한보금자리…" transform="translate(-22278.471 -19676.43)" fill="#ababab" font-size="12" font-family="Pretendard-Medium, Pretendard" font-weight="500" letter-spacing="-0.01em"><tspan x="0" y="0">든든한보금자리…</tspan></text>
        <g id="ico_small_card5_신한카드" transform="translate(-22306.523 -19689.039)">
          <path id="패스_918" data-name="패스 918" d="M254.924,1435.514a10.561,10.561,0,1,0,11.027,10.073,10.558,10.558,0,0,0-11.027-10.073Z" transform="translate(-244.493 -1435.156)" fill="#fff"/>
          <path id="패스_919" data-name="패스 919" d="M254.778,1435.037a10.908,10.908,0,1,0,11.389,10.4,10.908,10.908,0,0,0-11.389-10.4Zm1.278,10.585c1.939,1.787,3,2.75,3,2.75,3.417,2.846,2.251,5.448.945,6.353a6.518,6.518,0,0,1-3.547,1.091.329.329,0,0,1-.379-.288c-.009-.247.351-.309.351-.309,3.226-.635,2.284-2.751,1.142-3.83-.479-.454-4.972-4.328-4.972-4.328-4.282-3.687-3.94-6.566-3.94-6.566.207-3.542,3.309-4.42,5.655-4.218.275.023.427.192.377.42-.051.249-.414.267-.414.267a3.83,3.83,0,0,0-1.922.462c-1.891,1.272-1.332,3.435,1.189,5.844.316.3.654.622,1,.947C254.541,1444.218,255.048,1444.664,256.056,1445.622Zm-1.465,9.156c.019.345-.821.5-1.779.4a6.86,6.86,0,0,1-3.9-1.581,7.56,7.56,0,0,1-2.213-3.57c-.355-1.233-.5-2.674.083-2.56.18.036.491.828.83,1.4a3.719,3.719,0,0,0,.9,1.125c.122.091.533-.824,1.13-1.343.348-.287.73-.385.79.47.075,1.052-.114,2.3.191,2.3.288,0,.934-.216,2.355-.336.533-.045.837.055.328.774a5.39,5.39,0,0,1-1.4,1.441C253.117,1454.434,254.566,1454.3,254.592,1454.778Zm.952-10.993a3.632,3.632,0,0,1-.039-1.369,9.269,9.269,0,0,1,.836-2.672c.494-1.24-.7-1.965-.506-2.422.271-.618,1.127.167,2.08.225.822.046,1.316,0,1.955.09a3.962,3.962,0,0,1,2.315.932c.414.485-.219,1.077-.98.706-.556-.271-1.257-.1-.846.475a1.876,1.876,0,0,0,1.237.7,1.28,1.28,0,0,1,.478,2.385c-1.07.783-2.152.46-2.587-1.077-.219-.766-.76-1.156-1.314-.939s-.226,1.225.195,2.161c.84,2.141-1.246,2.07-1.489,2.042A1.737,1.737,0,0,1,255.543,1443.785Z" transform="translate(-244.363 -1435.026)" fill="#e1e1e1"/>
        </g>
        <g id="그룹_82450" data-name="그룹 82450" transform="translate(-22306.523 -19647.574)">
          <g id="ico_small_bank1_기업은행" transform="translate(0 0)">
            <circle id="타원_63" data-name="타원 63" cx="16.16" cy="16.16" r="16.16" transform="translate(0 0)" fill="#17bf98"/>
          </g>
          <text id="전체" transform="translate(7.011 20.014)" fill="#fff" font-size="11" font-family="Pretendard-Regular, Pretendard" letter-spacing="-0.035em"><tspan x="0" y="0">전체</tspan></text>
        </g>
        <text id="_7개_계좌_1_245만" data-name="7개 계좌 1,245만" transform="translate(-22265.137 -19626.293)" font-size="19" font-family="Pretendard-SemiBold, Pretendard" font-weight="600" letter-spacing="-0.01em"><tspan x="0" y="0">7개 계좌 1,245만</tspan></text>
        <text id="기업자유예금_" data-name="기업자유예금…" transform="translate(-22278.471 -19582.098)" fill="#ababab" font-size="12" font-family="Pretendard-Medium, Pretendard" font-weight="500" letter-spacing="-0.01em"><tspan x="0" y="0">기업자유예금…</tspan></text>
        <g id="ico_small_bank1_기업은행-2" data-name="ico_small_bank1_기업은행" transform="translate(-22306.523 -19594.707)">
          <circle id="타원_63-2" data-name="타원 63" cx="10.908" cy="10.908" r="10.908" transform="translate(0)" fill="#e1e1e1"/>
          <g id="그룹_458" data-name="그룹 458" transform="translate(3.734 3.703)">
            <g id="그룹_457" data-name="그룹 457">
              <g id="그룹_456" data-name="그룹 456">
                <path id="패스_844" data-name="패스 844" d="M173.639,907.965a1.655,1.655,0,0,0-.837.964l-2.666,8.016a1.666,1.666,0,0,0,1.054,2.107l8.744,2.936a1.67,1.67,0,0,0,2.112-1.055l2.668-8.015a1.671,1.671,0,0,0-1.057-2.109l-8.745-2.937a1.657,1.657,0,0,0-1.273.093" transform="translate(-170.049 -907.787)" fill="#fff"/>
                <path id="패스_845" data-name="패스 845" d="M179.226,917.016a4.566,4.566,0,0,1-1.753,1.222l-.4.154v-3.714l.391.151a4.589,4.589,0,0,1,1.759,1.218,4.019,4.019,0,0,0-1.946-5.853l-1.262-.423a1.082,1.082,0,0,0-1.365.694l-2.676,8.021a1.1,1.1,0,0,0,.7,1.377l6.069,2.027a4.02,4.02,0,0,0,.478-4.874m-3.512,1.6h-.6v-4.164h.6Z" transform="translate(-171.363 -909.14)" fill="#e1e1e1"/>
                <path id="패스_846" data-name="패스 846" d="M192.317,930.23a4,4,0,0,0-1.221-.974v1.956a4,4,0,0,0,1.221-.983" transform="translate(-184.805 -922.839)" fill="#e1e1e1"/>
                <path id="패스_847" data-name="패스 847" d="M201.861,915.324l-5.57-1.861a18.21,18.21,0,0,0,1.215,8.29,4.576,4.576,0,0,1-1.076,2.963l2.093.7a1.075,1.075,0,0,0,1.363-.693l2.677-8.019a1.1,1.1,0,0,0-.7-1.379m-1.476,5.909-.751,0-1.547-2.083,1.571-2.081.76,0-1.576,2.089Z" transform="translate(-188.446 -911.766)" fill="#d5d5d5"/>
              </g>
            </g>
          </g>
        </g>
        <text id="사장님희망예금_" data-name="사장님희망예금…" transform="translate(-22278.471 -19541.367)" fill="#e8e8e8" font-size="10" font-family="Pretendard-Medium, Pretendard" font-weight="500" letter-spacing="-0.01em"><tspan x="0" y="0">사장님희망예금…</tspan></text>
        <g id="ico_small_card8_하나카드-2" data-name="ico_small_card8_하나카드" transform="translate(-22306.523 -19552.785)">
          <circle id="타원_73-2" data-name="타원 73" cx="10.908" cy="10.908" r="10.908" transform="translate(0 0)" fill="#e1e1e1"/>
          <g id="그룹_438-2" data-name="그룹 438" transform="translate(3.309 4.606)">
            <g id="그룹_437-2" data-name="그룹 437">
              <path id="패스_839-2" data-name="패스 839" d="M258.221,196.684a2.731,2.731,0,0,0-.194-.662,3.266,3.266,0,0,0-1.31-1.517,2.947,2.947,0,0,0-3.036.019,2.664,2.664,0,0,0-1,1.071,3.131,3.131,0,0,0-.19.468,3.293,3.293,0,0,0,.208,2.563,1.291,1.291,0,0,0,.613.534.894.894,0,0,0,.795-.061.842.842,0,0,0,.3-.888,2.326,2.326,0,0,1,.03-1.24.943.943,0,0,1,.22-.353.818.818,0,0,1,.21-.144.877.877,0,0,1,.524-.085,1,1,0,0,1,.7.575,2.332,2.332,0,0,1,.191.918,13.779,13.779,0,0,1-.611,4.107q-.054.2-.112.406c-.029.1-.083.237-.016.338a.267.267,0,0,0,.122.093.463.463,0,0,0,.506-.18,7.336,7.336,0,0,0,1.671-2.924,9.394,9.394,0,0,0,.32-1.222,5.382,5.382,0,0,0,.061-1.816" transform="translate(-247.322 -187.712)" fill="#fff"/>
              <path id="패스_840-2" data-name="패스 840" d="M251.771,180.4a.348.348,0,0,0-.378-.335,1.81,1.81,0,0,0-.565.179,22.857,22.857,0,0,1-11.248,1.062c-.637-.092-1.283-.221-1.924-.321-.4-.062-.8-.153-1.2-.184a1.447,1.447,0,0,0-1.052.2,1.111,1.111,0,0,0-.134,1.316,2.967,2.967,0,0,0,1.145,1.107,2.766,2.766,0,0,0,1.5.512q2.136-.137,4.259-.412a28.46,28.46,0,0,0,7.21-1.545,9.059,9.059,0,0,0,2.107-1.182c.116-.086.281-.23.281-.4" transform="translate(-235.119 -177.769)" fill="#fff"/>
              <path id="패스_841-2" data-name="패스 841" d="M257.511,173.585a1.391,1.391,0,0,0,2.781,0,.787.787,0,0,0-.075-.333c-.119-.253-.253-.375-.24-.678.018-.409-.506-.414-.787-.414a2.042,2.042,0,0,0-.911.182,1.388,1.388,0,0,0-.767,1.211c0,.011,0,.021,0,.032" transform="translate(-250.997 -172.16)" fill="#fff"/>
            </g>
          </g>
        </g>
      </g>
      <g id="마스크_그룹_30485" data-name="마스크 그룹 30485" transform="translate(-22131 -19709.574)" clip-path="url(#clip-path-3)">
        <path id="빼기_3" data-name="빼기 3" d="M121.5,123.656H28.09a28.587,28.587,0,0,1-8.009-1.126,27.329,27.329,0,0,1-6.94-3.128A28.411,28.411,0,0,1,.023,94.411a27.3,27.3,0,0,1,1.369-7.485A28.554,28.554,0,0,1,5.016,79.7l46.7-67.6a28.047,28.047,0,0,1,46.148,0l46.7,67.6a28.556,28.556,0,0,1,3.624,7.226,27.3,27.3,0,0,1,1.369,7.485A28.41,28.41,0,0,1,136.445,119.4a27.33,27.33,0,0,1-6.94,3.128A28.589,28.589,0,0,1,121.5,123.656ZM75.612,42.167a9.009,9.009,0,0,0-7.4,3.868L46.71,77.023A8.993,8.993,0,0,0,54.1,91.145H97.109a9,9,0,0,0,7.4-14.123L83,46.035a9.013,9.013,0,0,0-7.388-3.868Z" transform="translate(21.285 15.017)" fill="#17bf98" stroke="rgba(0,0,0,0)" stroke-miterlimit="10" stroke-width="1"/>
      </g>
      <g id="그룹_83472" data-name="그룹 83472" transform="translate(-22326 -19394.975)">
        <g id="그룹_83459" data-name="그룹 83459" transform="translate(59.821 0)">
          <rect id="base_tool_bar" width="59.821" height="59.691" transform="translate(0)" fill="none"/>
          <g id="그룹_83459-2" data-name="그룹 83459" transform="translate(21.374 12.179)">
            <g id="그룹_83414" data-name="그룹 83414" transform="translate(1.254 1.504)">
              <g id="그룹_83414-2" data-name="그룹 83414" transform="translate(0 0)" clip-path="url(#clip-path-4)">
                <path id="패스_60227" data-name="패스 60227" d="M13.641,0H2.6A2.6,2.6,0,0,0,0,2.591V13a2.6,2.6,0,0,0,2.6,2.591H13.641A2.6,2.6,0,0,0,16.237,13V2.591A2.6,2.6,0,0,0,13.641,0M15.1,13.077a1.5,1.5,0,0,1-1.5,1.495H2.636a1.5,1.5,0,0,1-1.5-1.495V5.456a1.5,1.5,0,0,1,1.5-1.495H13.6a1.5,1.5,0,0,1,1.5,1.495Z" transform="translate(0 0)" fill="#9f9f9f"/>
                <rect id="사각형_24547" data-name="사각형 24547" width="1.143" height="1.14" transform="translate(6.18 6.011)" fill="#9f9f9f"/>
                <rect id="사각형_24548" data-name="사각형 24548" width="1.143" height="1.14" transform="translate(8.908 6.011)" fill="#9f9f9f"/>
                <rect id="사각형_24549" data-name="사각형 24549" width="1.143" height="1.14" transform="translate(11.6 6.011)" fill="#9f9f9f"/>
                <rect id="사각형_24550" data-name="사각형 24550" width="1.143" height="1.14" transform="translate(6.18 8.697)" fill="#9f9f9f"/>
                <rect id="사각형_24551" data-name="사각형 24551" width="1.143" height="1.14" transform="translate(8.908 8.697)" fill="#9f9f9f"/>
                <rect id="사각형_24552" data-name="사각형 24552" width="1.143" height="1.14" transform="translate(6.18 11.382)" fill="#9f9f9f"/>
                <rect id="사각형_24553" data-name="사각형 24553" width="1.143" height="1.14" transform="translate(3.507 8.697)" fill="#9f9f9f"/>
                <rect id="사각형_24554" data-name="사각형 24554" width="1.143" height="1.14" transform="translate(3.507 11.382)" fill="#9f9f9f"/>
                <rect id="사각형_24555" data-name="사각형 24555" width="1.143" height="1.14" transform="translate(8.908 11.382)" fill="#9f9f9f"/>
                <rect id="사각형_24556" data-name="사각형 24556" width="1.143" height="1.14" transform="translate(11.6 8.697)" fill="#9f9f9f"/>
              </g>
            </g>
            <rect id="사각형_24564" data-name="사각형 24564" width="18.297" height="18.297" fill="none"/>
          </g>
          <text id="달력" transform="translate(23.418 41.842)" fill="#9f9f9f" font-size="8" font-family="Pretendard-SemiBold, Pretendard" font-weight="600"><tspan x="0" y="0" letter-spacing="-0.019em">달</tspan><tspan y="0">력</tspan></text>
        </g>
        <g id="그룹_83457" data-name="그룹 83457" transform="translate(0 0)">
          <rect id="base_tool_bar-2" data-name="base_tool_bar" width="59.821" height="59.691" fill="none"/>
          <text id="홈" transform="translate(26.014 41.842)" fill="#3a3a3a" font-size="8" font-family="Pretendard-SemiBold, Pretendard" font-weight="600"><tspan x="0" y="0">홈</tspan></text>
          <g id="그룹_83427" data-name="그룹 83427" transform="translate(20.905 12.18)">
            <g id="그룹_83419" data-name="그룹 83419" transform="translate(1.573 1.252)">
              <g id="그룹_83419-2" data-name="그룹 83419" transform="translate(0 0)" clip-path="url(#clip-path-5)">
                <path id="패스_60259" data-name="패스 60259" d="M14.363,4.247,9.831.652A3.019,3.019,0,0,0,6.163.59L1.219,4.244A3,3,0,0,0,0,6.659v7.355a1.533,1.533,0,0,0,1.535,1.531H5.747a.02.02,0,0,0,.02-.02V11.061A1.814,1.814,0,0,1,7.573,9.4a1.857,1.857,0,0,1,2.16,1.577v4.547a.02.02,0,0,0,.02.02h4.211A1.533,1.533,0,0,0,15.5,14.014V6.6h0a3,3,0,0,0-1.138-2.353" transform="translate(0 0)" fill="#3a3a3a"/>
              </g>
            </g>
            <rect id="사각형_24563" data-name="사각형 24563" width="18.297" height="18.297" fill="none"/>
          </g>
        </g>
        <g id="그룹_83462" data-name="그룹 83462" transform="translate(119.643 0)">
          <rect id="base_tool_bar-3" data-name="base_tool_bar" width="60.268" height="59.691" transform="translate(0)" fill="none"/>
          <text id="진단" transform="translate(23.886 41.842)" fill="#9f9f9f" font-size="8" font-family="Pretendard-SemiBold, Pretendard" font-weight="600"><tspan x="0" y="0">진단</tspan></text>
          <g id="그룹_83461" data-name="그룹 83461" transform="translate(21.843 12.179)">
            <path id="패스_60220" data-name="패스 60220" d="M148.581,11.551h-1.54a1.751,1.751,0,0,0-1.835,1.642v6.854a1.751,1.751,0,0,0,1.835,1.642h1.54a1.751,1.751,0,0,0,1.835-1.643V13.193a1.751,1.751,0,0,0-1.835-1.642m.728,1.642v6.854a.7.7,0,0,1-.728.653h-1.54a.7.7,0,0,1-.728-.652V13.194a.7.7,0,0,1,.729-.652h1.539a.7.7,0,0,1,.729.652" transform="translate(-145.092 -5.278)" fill="#9f9f9f"/>
            <path id="패스_60221" data-name="패스 60221" d="M162.084,6.01h-1.54a1.751,1.751,0,0,0-1.835,1.642v9.163a1.752,1.752,0,0,0,1.835,1.642h1.54v0a1.751,1.751,0,0,0,1.835-1.643V7.652a1.751,1.751,0,0,0-1.835-1.642m.728,1.642v9.164a.7.7,0,0,1-.728.653h-1.539a.7.7,0,0,1-.729-.652V7.653A.7.7,0,0,1,160.544,7h1.539a.7.7,0,0,1,.729.652" transform="translate(-152.134 -2.046)" fill="#9f9f9f"/>
            <path id="패스_60222" data-name="패스 60222" d="M175.539,0H174a1.75,1.75,0,0,0-1.835,1.641v11.67A1.751,1.751,0,0,0,174,14.953h1.54v0a1.751,1.751,0,0,0,1.835-1.642V1.641A1.751,1.751,0,0,0,175.539,0m.728,1.64V13.31a.7.7,0,0,1-.728.652H174a.7.7,0,0,1-.728-.65V1.643A.7.7,0,0,1,174,.992l1.539,0a.7.7,0,0,1,.728.651" transform="translate(-159.148 1.459)" fill="#9f9f9f"/>
            <rect id="사각형_24565" data-name="사각형 24565" width="18.339" height="18.339" transform="translate(0 0)" fill="none"/>
          </g>
        </g>
        <g id="그룹_83468" data-name="그룹 83468" transform="translate(179.91 0)">
          <rect id="base_tool_bar-4" data-name="base_tool_bar" width="60.268" height="59.691" transform="translate(0)" fill="none"/>
          <text id="상담" transform="translate(22.887 41.842)" fill="#9f9f9f" font-size="8" font-family="Pretendard-SemiBold, Pretendard" font-weight="600"><tspan x="0" y="0">상담</tspan></text>
          <g id="그룹_83466" data-name="그룹 83466" transform="translate(20.843 12.179)">
            <rect id="사각형_24566" data-name="사각형 24566" width="18.339" height="18.339" transform="translate(0 0)" fill="none"/>
            <g id="그룹_83428" data-name="그룹 83428" transform="translate(1.25 1.667)">
              <g id="그룹_83430" data-name="그룹 83430" transform="translate(0 0)" clip-path="url(#clip-path-6)">
                <path id="패스_60264" data-name="패스 60264" d="M17.852,12.4h1.273a.313.313,0,0,1,.313.313v1.271a.313.313,0,0,1-.313.313H17.852a.313.313,0,0,1-.313-.313V12.713a.313.313,0,0,1,.313-.313" transform="translate(-10.229 -7.232)" fill="#9f9f9f"/>
                <path id="패스_60265" data-name="패스 60265" d="M8.953,12.4h1.273a.313.313,0,0,1,.313.313v1.271a.313.313,0,0,1-.313.313H8.953a.313.313,0,0,1-.313-.313V12.713a.313.313,0,0,1,.313-.313" transform="translate(-5.039 -7.232)" fill="#9f9f9f"/>
                <path id="패스_60266" data-name="패스 60266" d="M26.751,12.4h1.273a.313.313,0,0,1,.313.313v1.271a.313.313,0,0,1-.313.313H26.751a.313.313,0,0,1-.313-.313V12.713a.313.313,0,0,1,.313-.313" transform="translate(-15.419 -7.232)" fill="#9f9f9f"/>
                <path id="패스_60267" data-name="패스 60267" d="M5.6,15.339a.521.521,0,0,1-.514-.6l.5-3.113h-3.4A2.2,2.2,0,0,1,0,9.436V2.188A2.2,2.2,0,0,1,2.186,0H14.081a2.2,2.2,0,0,1,2.188,2.186V9.434a2.2,2.2,0,0,1-2.186,2.188H9.458l-3.485,3.56a.521.521,0,0,1-.373.157M2.188,1.042A1.154,1.154,0,0,0,1.042,2.19V9.434A1.154,1.154,0,0,0,2.19,10.58H6.2a.522.522,0,0,1,.515.6l-.337,2.1,2.492-2.546a.52.52,0,0,1,.372-.157h4.842a1.154,1.154,0,0,0,1.146-1.148V2.188a1.154,1.154,0,0,0-1.148-1.146Z" transform="translate(0 0)" fill="#9f9f9f"/>
                <path id="패스_60268" data-name="패스 60268" d="M17.78,12.691h1.273a.313.313,0,0,1,.313.313v1.271a.312.312,0,0,1-.312.312H17.78a.312.312,0,0,1-.313-.312h0V13a.313.313,0,0,1,.313-.313" transform="translate(-10.187 -7.401)" fill="#9f9f9f"/>
                <path id="패스_60269" data-name="패스 60269" d="M8.881,12.691h1.273a.313.313,0,0,1,.313.313v1.271a.312.312,0,0,1-.312.312H8.881a.312.312,0,0,1-.313-.312h0V13a.313.313,0,0,1,.313-.313" transform="translate(-4.997 -7.401)" fill="#9f9f9f"/>
                <path id="패스_60270" data-name="패스 60270" d="M26.68,12.691h1.273a.313.313,0,0,1,.313.313v1.271a.312.312,0,0,1-.312.312H26.68a.312.312,0,0,1-.313-.312h0V13a.313.313,0,0,1,.313-.313" transform="translate(-15.378 -7.401)" fill="#9f9f9f"/>
              </g>
            </g>
          </g>
        </g>
        <g id="그룹_83471" data-name="그룹 83471" transform="translate(240.178 0)">
          <rect id="base_tool_bar-5" data-name="base_tool_bar" width="59.821" height="59.691" transform="translate(0)" fill="none"/>
          <g id="그룹_83469" data-name="그룹 83469" transform="translate(20.866 12.179)">
            <g id="그룹_83413" data-name="그룹 83413" transform="translate(1.446 1.27)">
              <g id="그룹_83413-2" data-name="그룹 83413" transform="translate(0 0)" clip-path="url(#clip-path-7)">
                <path id="패스_60223" data-name="패스 60223" d="M2.4,7.3H4.9v0A2.421,2.421,0,0,0,7.3,4.9V2.4A2.422,2.422,0,0,0,4.9,0H2.4A2.423,2.423,0,0,0,0,2.4V4.9A2.422,2.422,0,0,0,2.4,7.3M1.062,4.9V2.406A1.355,1.355,0,0,1,2.4,1.062H4.9A1.354,1.354,0,0,1,6.237,2.4V4.9A1.353,1.353,0,0,1,4.9,6.238H2.4A1.355,1.355,0,0,1,1.062,4.9" transform="translate(0 0)" fill="#9f9f9f"/>
                <path id="패스_60224" data-name="패스 60224" d="M4.9,18.5H2.4a2.421,2.421,0,0,0-2.4,2.4v2.5a2.422,2.422,0,0,0,2.4,2.4H4.9v-.22h0v.22a2.42,2.42,0,0,0,2.4-2.4V20.9a2.42,2.42,0,0,0-2.4-2.4m1.339,2.4V23.4A1.352,1.352,0,0,1,4.9,24.743H2.4A1.354,1.354,0,0,1,1.062,23.4V20.909A1.354,1.354,0,0,1,2.4,19.567H4.9a1.352,1.352,0,0,1,1.341,1.34" transform="translate(0 -10.358)" fill="#9f9f9f"/>
                <path id="패스_60225" data-name="패스 60225" d="M23.4,0H20.9a2.422,2.422,0,0,0-2.4,2.4V4.9a2.422,2.422,0,0,0,2.4,2.4h2.5v0a2.421,2.421,0,0,0,2.4-2.4V2.4A2.423,2.423,0,0,0,23.4,0m1.341,2.4V4.9A1.354,1.354,0,0,1,23.4,6.238H20.907A1.354,1.354,0,0,1,19.565,4.9V2.406a1.355,1.355,0,0,1,1.342-1.344H23.4A1.355,1.355,0,0,1,24.742,2.4" transform="translate(-10.357 0)" fill="#9f9f9f"/>
                <path id="패스_60226" data-name="패스 60226" d="M23.4,18.5H20.9a2.422,2.422,0,0,0-2.4,2.4v2.5a2.422,2.422,0,0,0,2.4,2.4h2.5v0a2.422,2.422,0,0,0,2.4-2.4V20.9a2.42,2.42,0,0,0-2.4-2.4m1.341,2.4V23.4a1.354,1.354,0,0,1-1.34,1.34H20.907A1.354,1.354,0,0,1,19.565,23.4V20.908a1.353,1.353,0,0,1,1.341-1.342H23.4a1.353,1.353,0,0,1,1.343,1.34" transform="translate(-10.357 -10.358)" fill="#9f9f9f"/>
              </g>
            </g>
            <rect id="사각형_24567" data-name="사각형 24567" width="18.339" height="18.339" transform="translate(0 0)" fill="none"/>
          </g>
          <text id="전체-2" data-name="전체" transform="translate(22.909 41.842)" fill="#9f9f9f" font-size="8" font-family="Pretendard-SemiBold, Pretendard" font-weight="600" letter-spacing="-0.019em"><tspan x="0" y="0">전체</tspan></text>
        </g>
      </g>
      <line id="선_1" data-name="선 1" y1="0.277" x2="278.874" transform="translate(-22315.5 -19393.777)" fill="none" stroke="#e8e8e8" stroke-width="0.5"/>
      <g id="그룹_87232" data-name="그룹 87232" transform="translate(-22221 -19468.574)">
        <circle id="타원_2150" data-name="타원 2150" cx="6.009" cy="6.009" r="6.009" transform="translate(26.037)" fill="#17bf98"/>
        <circle id="타원_2151" data-name="타원 2151" cx="4.006" cy="4.006" r="4.006" transform="translate(46.066 2)" fill="#e2e2e2"/>
        <circle id="타원_2152" data-name="타원 2152" cx="4.006" cy="4.006" r="4.006" transform="translate(59.084 2)" fill="#e2e2e2"/>
        <circle id="타원_2153" data-name="타원 2153" cx="4.006" cy="4.006" r="4.006" transform="translate(72.103 2)" fill="#e2e2e2"/>
        <circle id="타원_2154" data-name="타원 2154" cx="4.006" cy="4.006" r="4.006" transform="translate(85.122 2)" fill="#e2e2e2"/>
        <text id="계좌" transform="translate(6 9)" fill="#17bf98" font-size="11" font-family="Pretendard-SemiBold, Pretendard" font-weight="600"><tspan x="-9.511" y="0">계좌</tspan></text>
      </g>
      <g id="그룹_87081" data-name="그룹 87081" transform="translate(-22077.127 -19467.574)">
        <text id="편집" transform="translate(15.955 9)" fill="#b2b2b2" font-size="10" font-family="Pretendard-Medium, Pretendard" font-weight="500"><tspan x="0" y="0">편집</tspan></text>
        <g id="그룹_82640" data-name="그룹 82640" transform="translate(0 0)">
          <path id="패스_57679" data-name="패스 57679" d="M27.491,24.129a1.355,1.355,0,1,1-1.441,1.517,1.356,1.356,0,1,0,1.441-1.517" transform="translate(-17.44 -15.538)" fill="#fff"/>
          <path id="패스_57680" data-name="패스 57680" d="M27.264,24.14a1.35,1.35,0,0,0-1.206,1.15,1.353,1.353,0,0,1,1.206-1.15" transform="translate(-17.446 -15.546)" fill="#fff"/>
          <path id="패스_57681" data-name="패스 57681" d="M29.839,24.11c-.033,0-.065-.01-.1-.01a1.329,1.329,0,0,0-.134.013,1.329,1.329,0,0,1,.134-.013c.034,0,.066.007.1.01" transform="translate(-19.788 -15.629)" fill="#7b7b7b"/>
          <path id="패스_57682" data-name="패스 57682" d="M26.02,27.528a1.352,1.352,0,0,0-.02.194,1.329,1.329,0,0,0,.017.169A1.323,1.323,0,0,1,26,27.722a1.352,1.352,0,0,1,.02-.194" transform="translate(-17.35 -17.785)" fill="#7b7b7b"/>
          <path id="패스_57684" data-name="패스 57684" d="M11.142,13.118H7.27a1.333,1.333,0,0,0-1.181-1.008c-.034,0-.067-.011-.1-.011s-.083.009-.125.013a1.328,1.328,0,0,0-1.154,1.005H.833a.34.34,0,0,0,0,.679H4.707a1.327,1.327,0,0,0,1.266,1.017h.014A1.332,1.332,0,0,0,7.27,13.8h3.872a.34.34,0,0,0,0-.679m-5.155-.509a.831.831,0,0,1,.761.509H5.226a.831.831,0,0,1,.761-.509M6.748,13.8a.823.823,0,0,1-1.522,0Z" transform="translate(-0.332 -7.81)" fill="#929292"/>
          <path id="패스_57685" data-name="패스 57685" d="M15.35,15.3a.849.849,0,1,0-.85-.849.85.85,0,0,0,.85.849" transform="translate(-9.694 -8.8)" fill="#fff"/>
          <g id="그룹_82638" data-name="그룹 82638" transform="translate(0.168 8.579)">
            <path id="패스_57683" data-name="패스 57683" d="M10.41,24.11c-.032,0-.064-.01-.1-.01a1.273,1.273,0,0,0-.131.014,1.33,1.33,0,0,0-1.148,1H.833a.34.34,0,0,0,0,.679h8.2a1.328,1.328,0,0,0,1.277,1.018,1.356,1.356,0,0,0,.1-2.706m-.1.5a.831.831,0,0,1,.761.509H9.552a.831.831,0,0,1,.761-.509m0,1.7a.831.831,0,0,1-.761-.509h1.522a.831.831,0,0,1-.761.509" transform="translate(-0.5 -24.1)" fill="#929292"/>
            <path id="패스_57686" data-name="패스 57686" d="M28.35,27.3a.849.849,0,1,0-.85-.849.85.85,0,0,0,.85.849" transform="translate(-18.565 -25.091)" fill="#fff"/>
          </g>
          <path id="패스_57687" data-name="패스 57687" d="M10.651,1.131H2.577A1.321,1.321,0,0,0,1.314.1,1.344,1.344,0,0,0,.005,1.458,1.342,1.342,0,0,0,1.314,2.816a1.316,1.316,0,0,0,1.253-1h8.085a.336.336,0,0,0,.328-.344.336.336,0,0,0-.328-.344M1.314.616a.819.819,0,0,1,.75.516H.564a.819.819,0,0,1,.75-.516m0,1.719a.819.819,0,0,1-.75-.516h1.5a.819.819,0,0,1-.75.516" transform="translate(-0.005 -0.1)" fill="#929292"/>
          <path id="패스_57688" data-name="패스 57688" d="M2.35,3.3a.849.849,0,1,0-.85-.849.85.85,0,0,0,.85.849" transform="translate(-0.991 -1.091)" fill="#fff"/>
        </g>
      </g>
      <text id="방금_전" data-name="방금 전" transform="translate(-22095.223 -19831.574)" fill="#989898" font-size="12" font-family="Pretendard-Regular, Pretendard" letter-spacing="-0.01em" style="isolation: isolate"><tspan x="0" y="0">방금 전</tspan></text>
      <g id="그룹_87083" data-name="그룹 87083" transform="translate(-22055.164 -19843.574)">
        <rect id="사각형_24571" data-name="사각형 24571" width="17.024" height="17" transform="translate(0)" fill="none"/>
        <g id="그룹_83499" data-name="그룹 83499" transform="translate(0.448 2.752)">
          <g id="그룹_83499-2" data-name="그룹 83499" transform="translate(0 0)" clip-path="url(#clip-path-8)">
            <path id="패스_60415" data-name="패스 60415" d="M13.983,31.017A6.218,6.218,0,0,0,17.7,28.229l-1.069-.673a4.979,4.979,0,0,1-2.974,2.233A5.107,5.107,0,0,1,7.44,26.156c-.039-.145-.081-.291-.108-.437l-1.188.287c.03.159.064.318.106.477a6.351,6.351,0,0,0,7.732,4.534" transform="translate(-4.255 -18.485)" fill="#bebebe"/>
            <path id="패스_60416" data-name="패스 60416" d="M8.858,22.663a6.224,6.224,0,0,0,4.6.651l-.28-1.138a5.024,5.024,0,0,1-3.684-.614,5.086,5.086,0,0,1-1.842-6.942q.113-.195.24-.379l-1.081-.656c-.092.134-.18.27-.263.412a6.352,6.352,0,0,0,2.309,8.666" transform="translate(-3.968 -10.802)" fill="#bebebe"/>
            <path id="패스_60417" data-name="패스 60417" d="M18.691,11.063c.039.145.072.291.1.438l-1.306-1.079-.789.982,2.388,1.972a.621.621,0,0,0,.874-.077h0l.008-.01,1.931-2.4-.977-.807L20,11.217c-.03-.16-.064-.318-.107-.477A6.352,6.352,0,0,0,12.166,6.2a6.231,6.231,0,0,0-3.66,2.7l1.061.69A4.983,4.983,0,0,1,12.5,7.431a5.087,5.087,0,0,1,6.193,3.632" transform="translate(-5.748 -6)" fill="#bebebe"/>
          </g>
        </g>
      </g>
    </g>
  </g>
</svg>
