<svg xmlns="http://www.w3.org/2000/svg" width="48.5" height="48.5" viewBox="0 0 48.5 48.5">
    <defs>
        <clipPath id="g2llbnbnia">
            <path data-name="사각형 26128" style="fill:#0560bf" d="M0 0h42v10H0z"/>
        </clipPath>
    </defs>
    <g data-name="그룹 88244" transform="translate(12241.75 20856.75)">
        <rect data-name="사각형 450" width="48" height="48" rx="5.5" transform="translate(-12241.5 -20856.5)" style="fill:#fff;stroke:#ccced2;stroke-width:.5px"/>
        <g data-name="그룹 88242" transform="translate(-12238.5 -20837.5)" style="clip-path:url(#g2llbnbnia)">
            <path data-name="패스 62316" d="M0 4.929a4.872 4.872 0 0 1 .4-1.981 4.725 4.725 0 0 1 1.1-1.563A4.988 4.988 0 0 1 3.143.366 5.733 5.733 0 0 1 5.214 0 5.767 5.767 0 0 1 7.3.366a4.988 4.988 0 0 1 1.649 1.02 4.582 4.582 0 0 1 1.081 1.562 5 5 0 0 1 .387 1.981 5.032 5.032 0 0 1-.387 1.993 4.644 4.644 0 0 1-1.083 1.569A4.938 4.938 0 0 1 7.3 9.517a5.767 5.767 0 0 1-2.083.366 5.733 5.733 0 0 1-2.071-.366 4.938 4.938 0 0 1-1.652-1.026A4.791 4.791 0 0 1 .4 6.922 4.9 4.9 0 0 1 0 4.929m2.476 0a3.425 3.425 0 0 0 .2 1.185 2.749 2.749 0 0 0 .554.926 2.5 2.5 0 0 0 .863.607 2.813 2.813 0 0 0 1.125.218 2.813 2.813 0 0 0 1.125-.218A2.5 2.5 0 0 0 7.2 7.04a2.749 2.749 0 0 0 .554-.926 3.425 3.425 0 0 0 .2-1.185 3.3 3.3 0 0 0-.2-1.156 2.761 2.761 0 0 0-.554-.92 2.5 2.5 0 0 0-.863-.607 2.813 2.813 0 0 0-1.125-.218 2.813 2.813 0 0 0-1.125.218 2.5 2.5 0 0 0-.863.607 2.761 2.761 0 0 0-.554.92 3.3 3.3 0 0 0-.2 1.156" style="fill:#0560bf"/>
            <path data-name="패스 62317" d="M13.554 3.313a1.689 1.689 0 0 1 .69-.46 2.5 2.5 0 0 1 .869-.153h1.548l-.429 2.028H14.8a.9.9 0 0 0-.4.094 1.059 1.059 0 0 0-.333.259 1.259 1.259 0 0 0-.226.389 1.376 1.376 0 0 0-.083.483v3.74H11.28V2.7h2.12z" transform="translate(-.089 -.047)" style="fill:#0560bf"/>
            <path data-name="패스 62318" d="M16.979 6.208a3.741 3.741 0 0 1 .339-1.616 3.665 3.665 0 0 1 .917-1.221 4.042 4.042 0 0 1 1.345-.767 4.977 4.977 0 0 1 1.637-.265 5.068 5.068 0 0 1 1.655.265 4.019 4.019 0 0 1 1.345.761 3.571 3.571 0 0 1 .9 1.215 3.8 3.8 0 0 1 .338 1.62 3.73 3.73 0 0 1-.333 1.6 3.649 3.649 0 0 1-.9 1.215 3.965 3.965 0 0 1-1.345.767 5.068 5.068 0 0 1-1.655.265 4.977 4.977 0 0 1-1.637-.265 4.1 4.1 0 0 1-1.345-.761 3.618 3.618 0 0 1-.917-1.209 3.674 3.674 0 0 1-.339-1.6m4.238 1.816a1.87 1.87 0 0 0 .738-.142 1.623 1.623 0 0 0 .56-.383 1.716 1.716 0 0 0 .351-.572 2.016 2.016 0 0 0 .125-.719 2.1 2.1 0 0 0-.125-.737 1.77 1.77 0 0 0-.351-.584 1.522 1.522 0 0 0-.56-.383 1.942 1.942 0 0 0-.738-.136 1.859 1.859 0 0 0-.744.142 1.629 1.629 0 0 0-.911.973 2.157 2.157 0 0 0-.119.725 2.106 2.106 0 0 0 .119.719 1.6 1.6 0 0 0 .351.572 1.7 1.7 0 0 0 .56.383 1.859 1.859 0 0 0 .744.142" transform="translate(-.134 -.041)" style="fill:#0560bf"/>
            <path data-name="패스 62319" d="M30.266 4.368a1.656 1.656 0 0 0-1.286.507 1.879 1.879 0 0 0-.464 1.325 2.106 2.106 0 0 0 .119.719 1.614 1.614 0 0 0 .893.955 1.816 1.816 0 0 0 .738.142 2.048 2.048 0 0 0 1.024-.254A2.092 2.092 0 0 0 32.052 7l1.607 1.333a5.374 5.374 0 0 1-.667.7 4.173 4.173 0 0 1-.774.537 3.929 3.929 0 0 1-.917.348 4.553 4.553 0 0 1-1.1.124 4.864 4.864 0 0 1-1.643-.271A3.932 3.932 0 0 1 27.243 9a3.533 3.533 0 0 1-.875-1.209 3.869 3.869 0 0 1-.316-1.591 3.807 3.807 0 0 1 .321-1.6 3.665 3.665 0 0 1 .881-1.215 3.892 3.892 0 0 1 1.316-.778 4.813 4.813 0 0 1 1.637-.271 4.124 4.124 0 0 1 1.97.454 4.743 4.743 0 0 1 1.494 1.268l-1.619 1.324a2.067 2.067 0 0 0-.738-.749 2.032 2.032 0 0 0-1.048-.265" transform="translate(-.206 -.041)" style="fill:#0560bf"/>
            <path data-name="패스 62320" d="m39.227 9.65-2.119-2.37v2.37h-2.476V.252h2.476v4.434l2.119-2.028h2.964l-3.369 3.207 3.453 3.785z" transform="translate(-.274 -.005)" style="fill:#0560bf"/>
        </g>
    </g>
</svg>
