<svg id="그룹_92726" data-name="그룹 92726" xmlns="http://www.w3.org/2000/svg" xmlns:xlink="http://www.w3.org/1999/xlink" width="100.002" height="100.002" viewBox="0 0 100.002 100.002">
  <defs>
    <clipPath id="clip-path">
      <rect id="사각형_25540" data-name="사각형 25540" width="100.002" height="100.002" fill="none"/>
    </clipPath>
  </defs>
  <g id="그룹_84236" data-name="그룹 84236" clip-path="url(#clip-path)">
    <path id="패스_61103" data-name="패스 61103" d="M47.744.052A50,50,0,1,0,99.95,47.744v0A50,50,0,0,0,47.744.052" fill="#0046ff"/>
    <g id="그룹_92727" data-name="그룹 92727">
      <path id="패스_61104" data-name="패스 61104" d="M56.174,48.309C64.137,55.645,68.5,59.6,68.5,59.6c14.033,11.688,9.243,22.369,3.879,26.087-4.091,2.831-8.623,4.16-14.565,4.48a1.35,1.35,0,0,1-1.548-1.118l-.009-.064c-.038-1.012,1.441-1.268,1.441-1.268,13.249-2.608,9.377-11.3,4.689-15.73C60.415,70.123,41.97,54.215,41.97,54.215,24.385,39.074,25.791,27.248,25.791,27.248,26.64,12.7,39.38,9.1,49.014,9.928c1.13.095,1.754.788,1.55,1.726-.212,1.024-1.7,1.1-1.7,1.1-3.067.179-5.807.495-7.9,1.9-7.764,5.224-5.471,14.106,4.884,24,1.3,1.248,2.687,2.557,4.1,3.888,0,0,2.085,1.835,6.224,5.777Z" transform="translate(-1 1)" fill="#fff"/>
      <path id="패스_61105" data-name="패스 61105" d="M50.16,85.909c.079,1.417-3.37,2.038-7.308,1.652a28.175,28.175,0,0,1-16.009-6.495,31.048,31.048,0,0,1-9.088-14.66c-1.456-5.062-2.068-10.98.34-10.514.737.147,2.017,3.4,3.41,5.767a15.291,15.291,0,0,0,3.7,4.62c.5.374,2.188-3.381,4.64-5.518,1.434-1.177,3-1.582,3.245,1.933.307,4.318-.465,9.446.787,9.446,1.182,0,3.837-.887,9.669-1.382,2.19-.186,3.437.225,1.349,3.178a22.126,22.126,0,0,1-5.746,5.913c4.959,4.648,10.909,4.092,11.014,6.059Z" transform="translate(-1 1)" fill="#fff"/>
      <path id="패스_61106" data-name="패스 61106" d="M54.068,40.765a14.917,14.917,0,0,1-.162-5.622c.622-4.888,1.939-7.187,3.433-10.974,2.027-5.092-2.892-8.07-2.08-9.944,1.113-2.537,4.628.686,8.541.924,3.374.188,5.405.018,8.03.368,3.483.465,7.652,1.646,9.508,3.827,1.7,1.992-.9,4.424-4.026,2.9-2.282-1.112-5.164-.427-3.476,1.952,2.035,2.266,3.008,2.33,5.08,2.873,5.707,1.5,5.823,6.963,1.963,9.794-4.4,3.214-8.838,1.887-10.625-4.422-.9-3.144-3.123-4.748-5.4-3.852s-.926,5.031.8,8.869c3.449,8.793-5.118,8.5-6.115,8.387a7.132,7.132,0,0,1-5.47-5.08Z" transform="translate(-1 1)" fill="#fff"/>
    </g>
  </g>
</svg>
