<svg width="16" height="16" viewBox="0 0 16 16" fill="none" xmlns="http://www.w3.org/2000/svg">
<circle cx="8" cy="8" r="8" fill="#12997A" fill-opacity="0.2"/>
<path d="M7.57812 1.25C7.85946 1.25 8.14054 1.25 8.42188 1.25C8.6518 1.28006 8.88304 1.30221 9.11111 1.34123C10.3788 1.55796 11.5008 2.08767 12.4613 2.94248C13.6357 3.98765 14.3703 5.28568 14.6464 6.83683C14.6901 7.08231 14.716 7.33068 14.75 7.578V8.42173C14.7426 8.45575 14.7308 8.48923 14.7281 8.52351C14.6485 9.56473 14.35 10.5398 13.8063 11.4307C12.735 13.1859 11.1875 14.2651 9.16227 14.6466C8.91758 14.6928 8.66894 14.716 8.42188 14.75H7.57812C7.41333 14.7297 7.24827 14.712 7.08427 14.6886C5.74086 14.4961 4.55381 13.9582 3.5392 13.057C2.36718 12.0155 1.63522 10.7206 1.35521 9.17582C1.30985 8.92639 1.28454 8.67327 1.25 8.42173C1.25 8.1404 1.25 7.85933 1.25 7.578C1.27953 7.35257 1.30168 7.12555 1.33965 6.90143C1.57854 5.49741 2.19447 4.28243 3.19458 3.26863C4.20418 2.24561 5.41918 1.60305 6.83747 1.35362C7.08295 1.31038 7.33106 1.28401 7.57812 1.25ZM8.56004 6.2892C8.56004 5.73998 8.56188 5.19076 8.55925 4.64155C8.55793 4.38104 8.42135 4.18277 8.19617 4.09892C7.81965 3.95812 7.44181 4.22917 7.44075 4.64919C7.43785 5.83569 7.44207 7.02193 7.43759 8.20843C7.4368 8.42094 7.50667 8.58679 7.65696 8.73576C8.3934 9.46585 9.12482 10.201 9.85836 10.9342C10.0479 11.1238 10.2325 11.3186 10.4287 11.5008C10.7567 11.8056 11.273 11.6387 11.3634 11.2013C11.4082 10.984 11.3249 10.8087 11.1712 10.6558C10.3309 9.81811 9.49344 8.97781 8.65232 8.14119C8.58403 8.07317 8.55767 8.0062 8.55846 7.91101C8.56268 7.3705 8.56057 6.82998 8.5603 6.28973L8.56004 6.2892Z" fill="#12997A"/>
<path d="M8.55827 6.28926C8.55827 6.82978 8.56038 7.37029 8.55643 7.91055C8.55564 8.00573 8.582 8.0727 8.65029 8.14073C9.49167 8.97734 10.3288 9.81765 11.1692 10.6553C11.3226 10.8082 11.4062 10.9838 11.3614 11.2008C11.2712 11.6383 10.7549 11.8052 10.4267 11.5004C10.2305 11.3182 10.0459 11.1231 9.85633 10.9337C9.12306 10.2005 8.39163 9.46539 7.65493 8.7353C7.50464 8.58632 7.4345 8.42021 7.43556 8.20796C7.44004 7.02146 7.43609 5.83522 7.43872 4.64872C7.43978 4.22897 7.81762 3.95792 8.19414 4.09845C8.41932 4.18256 8.5559 4.38084 8.55722 4.64108C8.55986 5.1903 8.55801 5.73951 8.55801 6.28873L8.55827 6.28926Z" fill="white"/>
</svg>
