<svg width="100" height="18" viewBox="0 0 100 18" fill="none" xmlns="http://www.w3.org/2000/svg">
<path d="M0.286743 17.6755L3.56143 0.768501H6.98882L4.34193 14.4307H11.4682L10.8404 17.6755H0.286743ZM13.3007 17.6755L15.6421 5.63567H18.9338L16.5923 17.6755H13.3007ZM17.6273 3.85958C16.5075 3.85958 15.8118 3.02277 16.0494 1.92979C16.236 0.819734 17.254 0 18.3739 0C19.4937 0 20.1554 0.836812 19.9688 1.92979C19.7313 3.03985 18.7302 3.85958 17.6273 3.85958ZM19.4089 17.6755L21.7504 5.63567H25.042L24.7027 7.41176H24.7875C25.6698 6.11385 27.1629 5.31119 28.8766 5.31119C31.5744 5.31119 32.7621 7.3093 32.1513 10.537L30.76 17.6755H27.4683L28.7409 11.0835C29.0633 9.32448 28.4355 8.33396 27.0442 8.33396C25.6528 8.33396 24.3124 9.3074 23.8713 11.5787L22.6836 17.6755H19.3919H19.4089ZM33.5766 17.6755L36.8513 0.768501H40.1429L38.2426 10.5541H38.3274L43.1292 5.63567H47.0316L41.2119 11.408L44.8259 17.6926H41.0422L38.005 12.3302H37.9202L36.8852 17.6926H33.5935L33.5766 17.6755ZM48.0073 17.6755L51.2819 0.768501H57.0339C60.8685 0.768501 63.0403 3.03985 62.3955 6.35294C61.7508 9.66603 58.6797 11.9545 54.862 11.9545H52.5375L51.4346 17.6755H48.0073ZM53.1653 8.81214H55.5238C57.3732 8.81214 58.6457 7.88994 58.9512 6.35294C59.2566 4.81594 58.3234 3.92789 56.4739 3.92789H54.1155L53.1653 8.81214ZM68.1814 14.9772C69.929 14.9772 71.4561 13.611 71.8463 11.6641C72.2196 9.71727 71.2185 8.35104 69.4709 8.35104C67.7232 8.35104 66.1962 9.73434 65.8399 11.6641C65.4496 13.5939 66.4337 14.9772 68.1814 14.9772ZM73.8824 17.6755H70.5907L70.9131 16.019H70.8283C69.8102 17.351 68.4698 18 66.8918 18C63.6172 18 61.8186 15.2675 62.5313 11.6471C63.2269 8.02656 66.0774 5.29412 69.3521 5.29412C70.9301 5.29412 71.999 5.94307 72.525 7.25806H72.6098L72.9322 5.6186H76.2239L73.8824 17.6584V17.6755ZM77.8358 8.2315L78.3448 5.63567H80.3469L80.9238 2.64706H84.2154L83.6386 5.63567H86.4212L85.9122 8.2315H83.1295L82.1624 13.2011C81.9249 14.3624 81.874 14.6869 81.874 14.6869C81.874 14.6869 84.0288 14.6869 84.6566 14.6869L84.0797 17.6755C83.5028 17.6755 78.0054 17.6755 78.0054 17.6755C78.0054 17.6755 78.243 16.3435 78.8198 13.3719L79.8209 8.21442H77.8188L77.8358 8.2315ZM86.4042 17.6755L89.6789 0.768501H92.9706L91.6811 7.39469H91.7659C92.6482 6.09677 94.1413 5.29412 95.855 5.29412C98.5528 5.29412 99.7405 7.29222 99.1297 10.5199L97.7384 17.6584H94.4467L95.7193 11.0664C96.0417 9.3074 95.4139 8.31689 94.0225 8.31689C92.6312 8.31689 91.2908 9.29032 90.8497 11.5617L89.662 17.6584H86.3703L86.4042 17.6755Z" fill="#101828"/>
</svg>
