<svg width="132" height="60" viewBox="0 0 132 60" fill="none" xmlns="http://www.w3.org/2000/svg">
<path d="M0 41.5674L4.36625 19.0247H8.93611L5.40691 37.241H14.9086L14.0715 41.5674H0ZM17.3519 41.5674L20.4739 25.5142H24.8627L21.7408 41.5674H17.3519ZM23.1208 23.1461C21.6276 23.1461 20.7001 22.0304 21.0168 20.5731C21.2657 19.093 22.6231 18 24.1162 18C25.6093 18 26.4916 19.1157 26.2428 20.5731C25.926 22.0531 24.5913 23.1461 23.1208 23.1461ZM25.4962 41.5674L28.6182 25.5142H33.007L32.5546 27.8824H32.6677C33.8441 26.1518 35.8349 25.0816 38.1199 25.0816C41.7169 25.0816 43.3005 27.7457 42.4861 32.0493L40.631 41.5674H36.2421L37.9389 32.778C38.3687 30.4326 37.5317 29.112 35.6766 29.112C33.8215 29.112 32.0342 30.4099 31.446 33.4383L29.8624 41.5674H25.4736H25.4962ZM44.3864 41.5674L48.7527 19.0247H53.1416L50.6078 32.0721H50.7209L57.1232 25.5142H62.3265L54.5668 33.2106L59.3855 41.5901H54.3406L50.2911 34.4402H50.1779L48.7979 41.5901H44.4091L44.3864 41.5674ZM63.6274 41.5674L67.9936 19.0247H75.6628C80.7756 19.0247 83.6714 22.0531 82.8117 26.4706C81.952 30.888 77.8573 33.9393 72.7671 33.9393H69.6677L68.1972 41.5674H63.6274ZM70.5048 29.7495H73.6494C76.1153 29.7495 77.812 28.5199 78.2192 26.4706C78.6264 24.4213 77.3822 23.2372 74.9163 23.2372H71.7717L70.5048 29.7495ZM90.5262 37.9696C92.8563 37.9696 94.8924 36.148 95.4128 33.5522C95.9105 30.9564 94.5757 29.1347 92.2455 29.1347C89.9154 29.1347 87.8793 30.9791 87.4042 33.5522C86.8839 36.1252 88.196 37.9696 90.5262 37.9696ZM98.1275 41.5674H93.7386L94.1685 39.3586H94.0554C92.698 41.1347 90.9108 42 88.8068 42C84.4406 42 82.0425 38.3567 82.9927 33.5294C83.9202 28.7021 87.7209 25.0588 92.0872 25.0588C94.1911 25.0588 95.6164 25.9241 96.3177 27.6774H96.4308L96.8606 25.4915H101.249L98.1275 41.5446V41.5674ZM103.399 28.9753L104.077 25.5142H106.747L107.516 21.5294H111.905L111.136 25.5142H114.846L114.167 28.9753H110.457L109.168 35.6015C108.851 37.1499 108.783 37.5825 108.783 37.5825C108.783 37.5825 111.656 37.5825 112.493 37.5825L111.724 41.5674C110.955 41.5674 103.625 41.5674 103.625 41.5674C103.625 41.5674 103.942 39.7913 104.711 35.8292L106.046 28.9526H103.376L103.399 28.9753ZM114.823 41.5674L119.19 19.0247H123.578L121.859 27.8596H121.972C123.149 26.129 125.139 25.0588 127.424 25.0588C131.021 25.0588 132.605 27.723 131.791 32.0266L129.936 41.5446H125.547L127.243 32.7552C127.673 30.4099 126.836 29.0892 124.981 29.0892C123.126 29.0892 121.339 30.3871 120.751 33.4156L119.167 41.5446H114.778L114.823 41.5674Z" fill="#207FFC"/>
</svg>
