<svg width="80" height="80" viewBox="0 0 80 80" fill="none" xmlns="http://www.w3.org/2000/svg">
<circle cx="40" cy="40" r="40" fill="#207FFC"/>
<path d="M29.0297 56H22L25.0777 24.1228H32.1075L29.0297 56Z" fill="white"/>
<path d="M22 56L22.6788 48.9703H34.0659L33.3874 56H22Z" fill="white"/>
<path d="M38.9044 31.0297L39.5829 24H58.5921L57.9135 31.0297H38.9044Z" fill="white"/>
<path d="M37.4254 46.3474L38.1042 39.3176H57.1133L56.4345 46.3474H37.4254Z" fill="white"/>
<path d="M43.5065 55.9474H36.4768L38.0825 39.3184H45.112L43.5065 55.9474Z" fill="white"/>
<path d="M44.5276 45.3717H37.4978L39.1035 28.7427H46.1332L44.5276 45.3717Z" fill="white"/>
<path d="M56.451 46.3228H49.4215L51.4718 25.087H58.5015L56.451 46.3228Z" fill="white"/>
<path d="M55.6105 55.8463H48.5807L49.1811 49.6285H56.2106L55.6105 55.8463Z" fill="white"/>
</svg>
