<svg xmlns="http://www.w3.org/2000/svg" width="100" height="100" viewBox="0 0 100 100">
    <circle data-name="타원 92" cx="50" cy="50" r="50" style="fill:#25845f"/>
    <g data-name="그룹 524">
        <path data-name="패스 1516" d="m1237.692 2638.22-6.159 3.081-6.595 3.958 3.518-4.4 3.077-3.958-4.835.44-4.4.439-4.838.437-4.838.441 4.4-1.318 5.718-2.2 5.275-1.758 3.958-.439-5.715-3.958-7.475-3.958 6.6.881 5.715 1.317 5.278 2.2 3.958 2.2 2.637-.878 4.4-.439-1.321 2.2-3.078 2.2v3.517l-.44 5.718-.88 5.716-1.757 3.956v-4.4l-.88-7.913-1.317-3.081" transform="translate(-1163.709 -2607.015)" style="fill:#fff;fill-rule:evenodd"/>
        <path data-name="패스 1517" d="m1205.911 2676.043-3.958-1.761-3.953-3.082 1.321-2.638 1.761-2.637-3.518.437-3.08.88-2.2-4.837-.88-5.714-.44 5.714.44 5.278-2.637.88-2.638 1.316 3.078 1.321 3.517 2.2 2.2 3.521 2.641 3.078-.44-2.643.44-2.637 3.518 1.322h4.834" transform="translate(-1171.067 -2598.225)" style="fill:#fff;fill-rule:evenodd"/>
        <path data-name="패스 1518" d="m1212.585 2638.111-1.757 2.2-.44 2.2 5.275 1.32 4.838 1.758 3.077 1.76.88.44-8.355-1.32-4.4.88h-2.637l-.88.44-1.757 6.595-1.32 4.4-1.757-5.718-1.321-3.953-6.595 5.714-4.838 3.957 6.155-9.671 2.642-3.082-1.321-.876-2.2-1.321h-2.641l-2.2-.44 3.958-.88 4.4-.44h4.834l4.838-2.637 3.518-1.317" transform="translate(-1169.824 -2603.384)" style="fill:#fff;fill-rule:evenodd"/>
        <path data-name="패스 1519" d="m1216.832 2667.8-2.2 2.638-2.2 2.641-3.518.439-3.518.44 2.637 1.318 2.2.439-2.2 2.2-2.637 1.322 4.838-1.322 3.958-2.2h3.518v-1.32l-.44-1.316 3.078-2.641 3.078-3.079-3.078 2.2-3.078 1.758-.44-1.758v-1.759" transform="translate(-1165.715 -2595.263)" style="fill:#fff;fill-rule:evenodd"/>
    </g>
</svg>
