<svg xmlns="http://www.w3.org/2000/svg" width="100" height="100" viewBox="0 0 100 100">
    <circle data-name="타원 80" cx="50" cy="50" r="50" style="fill:#004798"/>
    <path data-name="패스 1494" d="M927.606 1881.505c-2.915 7.246-7.8 9.293-7.8 9.293 14.372-14.566 5.595-31.349 5.595-31.349-2.125-3.764.576-5.4.576-5.4-6.171 1.543-4.242 6.657-4.242 6.657 3.1 7.389 2.478 13.391 1.424 17.1l-2.033-1.141.03-.048s4.819-18.993-14.84-25.653l-.016-3.574h-4.147v23.537l19.294 11a27.443 27.443 0 0 1-1.112 2.023l-19.379-11.227-19.456 11.226a26.57 26.57 0 0 1-1.114-2.023l19.293-11v-23.537h-4.144l-.018 3.574c-19.661 6.661-14.84 25.653-14.84 25.653l.031.048-2.033 1.141a25.548 25.548 0 0 1 1.423-17.1s1.927-5.114-4.242-6.657c0 0 2.7 1.639.577 5.4 0 0-8.779 16.782 5.592 31.349 0 0-4.883-2.047-7.8-9.293a5.661 5.661 0 0 0-6.284-2.762s1.748.789 2.774 3.993c0 0 4.173 13.273 20.283 15.3v7.332h7.902v-10.805a21.957 21.957 0 0 1-14.8-7.117l1.988-1.161c.371.353 6.462 5.988 14.772 6.138h.096c8.308-.15 14.4-5.786 14.771-6.138l1.988 1.161a21.965 21.965 0 0 1-14.8 7.117v10.805h7.911v-7.332c16.109-2.025 20.284-15.3 20.284-15.3 1.023-3.2 2.769-3.993 2.769-3.993a5.664 5.664 0 0 0-6.283 2.762m-10.305-7.01-.019.022-10.883-6.1-.061-13.022h.061s13.12 3.568 10.9 19.1m-21.869-19.1h.061l-.061 13.022-10.885 6.1-.014-.022c-2.22-15.528 10.9-19.1 10.9-19.1m5.517 22.245 10.85 6.345v.02l-.1-.056a16.3 16.3 0 0 1-21.576 0l-.1.056v-.02z" transform="translate(-850.505 -1825.774)" style="fill:#fff"/>
</svg>
