<svg xmlns="http://www.w3.org/2000/svg" width="100" height="100" viewBox="0 0 100 100">
    <circle data-name="타원 63" cx="50" cy="50" r="50" style="fill:#e1e1e1"/>
    <g data-name="그룹 458">
        <g data-name="그룹 457">
            <g data-name="그룹 456">
                <path data-name="패스 844" d="M186.263 908.592a7.481 7.481 0 0 0-3.781 4.354l-12.043 36.209a7.525 7.525 0 0 0 4.762 9.521l39.5 13.262a7.541 7.541 0 0 0 9.538-4.766l12.054-36.205a7.55 7.55 0 0 0-4.776-9.529l-39.5-13.266a7.485 7.485 0 0 0-5.751.421" transform="translate(-152.549 -890.306)" style="fill:#fff"/>
                <path data-name="패스 845" d="M204.913 942.69a20.629 20.629 0 0 1-7.919 5.521l-1.8.693v-16.777l1.767.683a20.732 20.732 0 0 1 7.947 5.5 18.157 18.157 0 0 0-8.791-26.44l-5.7-1.909a4.886 4.886 0 0 0-6.168 3.134l-12.086 36.231a4.954 4.954 0 0 0 3.169 6.222l27.417 9.156a18.159 18.159 0 0 0 2.16-22.017m-15.863 7.249h-2.715v-18.805h2.715z" transform="translate(-151.893 -889.631)" style="fill:#e1e1e1"/>
                <path data-name="패스 846" d="M196.613 933.655a18.053 18.053 0 0 0-5.517-4.4v8.838a18.068 18.068 0 0 0 5.517-4.438" transform="translate(-145.178 -882.787)" style="fill:#e1e1e1"/>
                <path data-name="패스 847" d="m221.453 921.87-25.163-8.407a20.724 20.724 0 0 1 1.824 25.723 20.731 20.731 0 0 1-1.2 25.108l9.453 3.156a4.855 4.855 0 0 0 6.158-3.131l12.098-36.219a4.959 4.959 0 0 0-3.17-6.227m-6.669 26.694-3.393.013-6.99-9.41 7.1-9.4 3.434-.014-7.121 9.434z" transform="translate(-143.359 -888.318)" style="fill:#d5d5d5"/>
            </g>
        </g>
    </g>
</svg>
