<svg xmlns="http://www.w3.org/2000/svg" width="100" height="100" viewBox="0 0 100 100">
    <circle data-name="타원 69" cx="50" cy="50" r="50" style="fill:#645b4c"/>
    <path data-name="패스 848" d="M125.329 999.47a102.466 102.466 0 0 0 1.333 16.871.232.232 0 0 0 .028.094c.775 1.132 1.579 5.629 2.216 7.038a.438.438 0 0 0 .14.138 5.643 5.643 0 0 0 2.94.78.124.124 0 0 0 .125-.107 18.443 18.443 0 0 0-.055-4.391c-.346-5.251-.73-13.607-.666-18.671 4.107 2.287 19.514 13.336 27.552 15.622a.535.535 0 0 0 .511-.111 2.813 2.813 0 0 1 1.178-.731 1.537 1.537 0 0 0 .431-1.371c5.089-.188 12.152-2.147 15.859-6.8 2.545-3.2 2.507-7.656.916-9.159a5.758 5.758 0 0 1-.667-.421c-2.428-2.42-5.723-3.069-9.256-2.858a18.2 18.2 0 0 0-8.691 3.12c-.01.009-.024.01-.03-.014-.188-3.428 1.186-7.788-.02-10.6a.236.236 0 0 0-.25-.151 8.782 8.782 0 0 0-3.611 1.164.442.442 0 0 0-.161.364c-.011.8-.254 4.969-.656 5.371-.075.075-.052.153-.075.325a61.751 61.751 0 0 0-.031 12.872 2.2 2.2 0 0 0 1.084.837 8.293 8.293 0 0 0 3.359-.7 2.086 2.086 0 0 1 .53-.091c.141-.013.2-.175.186-.34a6.046 6.046 0 0 1 .035-1.178c.782-3.181 4.026-7.323 8.125-7.954a5.757 5.757 0 0 1 5.523 1.8c.309.34.685 2.9-.8 5.671a11.276 11.276 0 0 1-6.135 4.866 23.328 23.328 0 0 1-9.341 1.294c-3.106-1.875-8.322-6.22-12.9-7.954a14.282 14.282 0 0 1-2.6-1.876c-2.22-1.786-6.97-4.88-9.795-6.778-.02-.021-.02-.04-.02-.082a1.342 1.342 0 0 1 .038-.593.4.4 0 0 1 .218-.245c.989-.662 5.165-2.942 5.525-3.48a2.315 2.315 0 0 1 .468-.318c6.275-3.8 17.286-8.954 22.1-13.934a.434.434 0 0 0 .065-.289 2.214 2.214 0 0 1 .093-.6 3.065 3.065 0 0 0 .05-1.86.282.282 0 0 0-.189-.2c-2.569-.253-5.983 1.31-9.155 4.286a11.091 11.091 0 0 1-2.537 1.688c-3.6 2.045-12.12 7.334-16.187 9.95-.054.037-.105.008-.1-.051a137.422 137.422 0 0 1 2.181-16.853.545.545 0 0 0-.075-.381c-.33-.5-.527-1.094-.648-1.219a.13.13 0 0 0-.053-.045 2.331 2.331 0 0 0-1.75-.1c-.51.117-1.143.521-1.95.718a.282.282 0 0 0-.213.168 68.243 68.243 0 0 0-4.071 19.511c0 .024 0 .069-.045.041a94.552 94.552 0 0 0-9.91-5.505.571.571 0 0 0-.151-.04 7.3 7.3 0 0 1-2.428-1.125c-.895-.541-2.648-1.78-3.745-2.417a.557.557 0 0 0-.373-.089 6.942 6.942 0 0 0-3.209 2.163c-.161.245.171.791.133 1.126a.106.106 0 0 0 .03.1 32.808 32.808 0 0 0 6.569 4.439c3.31 1.785 6.68 3.478 8.073 4.362a.246.246 0 0 1 .085.089 2.577 2.577 0 0 0 .752.564 6.98 6.98 0 0 1 .987.611c.087.081.045.172-.046.238-3.5 2.436-10.455 6.954-13.773 9.178a29.2 29.2 0 0 1-2.754 1.317 3.6 3.6 0 0 0-1.9 1.545c-.06.123.019.186.109.214.535.151.666.528 1.037.674a1.422 1.422 0 0 0 .416.05c.695.022 1.911-.445 4.091-1.4 2.487-1.1 10.222-5.852 11.157-6.394a.1.1 0 0 1 .064-.018 2.358 2.358 0 0 0 1.279-.654 13.666 13.666 0 0 1 2.2-1.31l1.261-.7z" transform="translate(-91.447 -945.82)" style="fill:#fca400"/>
</svg>
