<svg xmlns="http://www.w3.org/2000/svg" width="100" height="100" viewBox="0 0 100 100">
  <g id="그룹_67544" data-name="그룹 67544" transform="translate(-3014 377)">
    <circle id="타원_71" data-name="타원 71" cx="50" cy="50" r="50" transform="translate(3014 -377)" fill="#0c419a"/>
    <g id="그룹_65405" data-name="그룹 65405" transform="translate(3030.695 -338.046)">
      <path id="패스_10835" data-name="패스 10835" d="M228.454,95.71h-4.372v8.626H206.21V95.71h-4.37a1.819,1.819,0,0,0-1.881,1.748V116.2a1.817,1.817,0,0,0,1.881,1.747h4.37v-9.281h17.872v9.281h4.372a1.817,1.817,0,0,0,1.881-1.747V97.458A1.817,1.817,0,0,0,228.454,95.71Z" transform="translate(-163.886 -95.71)" fill="#fff"/>
      <path id="패스_10836" data-name="패스 10836" d="M136.326,95.71h-4.374V112.1L118.189,99.139c-2.185-1.99-3.69-3.429-7.181-3.429h-3.829V116.2a1.818,1.818,0,0,0,1.883,1.747h4.372V101.477l13.644,12.87c2.23,2.036,4.219,3.6,7.458,3.6h3.672V97.458A1.819,1.819,0,0,0,136.326,95.71Z" transform="translate(-107.178 -95.71)" fill="#fff"/>
    </g>
  </g>
</svg>
