<svg xmlns="http://www.w3.org/2000/svg" width="100" height="100" viewBox="0 0 100 100">
    <circle data-name="타원 85" cx="50" cy="50" r="50" style="fill:#e1e1e1"/>
    <g data-name="그룹 518">
        <path data-name="패스 1499" d="M1460.834 1502.175c2.184 0 4.248-.057 6.206-.165v-13.259c5.561-.046 13.026-2.275 16.348-9.464 3.941-8.526.052-15.054-3.71-18.252 2.363-2.945 3.835-8.369 1.831-14.089-3.409-9.719-13.1-10.228-16.388-10.24h-4.34v65.467zm6.206-58.8c.125 0 .724.006.847.011a9.1 9.1 0 0 1 8.575 9.07c0 6.283-5.915 9.27-6.534 9.477.274 0 8.459 2.476 8.459 10.108 0 5.859-5.3 10.108-11.347 10.108z" transform="translate(-1410.583 -1416.767)" style="fill:#fff"/>
        <path data-name="패스 1500" d="M1440.009 1461.44c-1.851-1.6-4.938-4.893-4.8-9.013.122-3.716 1.9-6.594 4.869-7.893a20.074 20.074 0 0 1 7.853-1.175c.168 0 .313-.008.462-.008l.007-6.621c-.152 0-.177.009-.342.007-2.538-.008-6.752-.026-10.574 1.647-5.422 2.371-8.783 7.586-8.994 13.949-.169 5.1 2.343 10.151 7.073 14.232 4.5 3.886 6.8 6.142 5.675 11.022-.947 4.094-7.335 9.593-9.38 11.065h9.218c2.215-1.676 5.805-5.762 6.711-9.669 2.087-9.033-3.387-13.751-7.778-17.543z" transform="translate(-1402.795 -1416.774)" style="fill:#fff"/>
    </g>
</svg>
