<svg id="ico_small_card9_시티카드" xmlns="http://www.w3.org/2000/svg" width="100" height="100" viewBox="0 0 100 100">
  <circle id="타원_69" data-name="타원 69" cx="50" cy="50" r="50" fill="#125af4"/>
  <g id="그룹_92724" data-name="그룹 92724" transform="translate(-1677.073 -476.001)">
    <path id="패스_84283" data-name="패스 84283" d="M1730.141,511.8l2.334-10.87a.768.768,0,0,0-.918-.91,48.124,48.124,0,0,0-10.385,3.121c-15.682,6.579-25.176,19.478-21.189,28.814,3.016,7,12.745,9.986,24.048,8.244l-2.334,10.87a.768.768,0,0,0,.918.91A48.127,48.127,0,0,0,1733,548.858c15.682-6.579,25.149-19.478,21.163-28.84C1751.173,513.049,1741.443,510.059,1730.141,511.8Z" transform="translate(0 0)" fill="#fff"/>
  </g>
</svg>
