<svg xmlns="http://www.w3.org/2000/svg" width="100" height="100" viewBox="0 0 100 100">
    <circle data-name="타원 69" cx="50" cy="50" r="50" style="fill:#0050ff"/>
    <path data-name="패스 50401" d="M24.008 20.432a24.279 24.279 0 0 0-14.705 9C4.038 35.976.723 45.144.073 54.94c-.126 1.951-.1 2.182.189 2.056.189-.063 2.391-1.322 4.888-2.769s4.573-2.6 4.594-2.58c4.091 6.755 9.629 10.363 16.467 10.8a20.943 20.943 0 0 0 16.258-6.356 21.552 21.552 0 0 0 5.643-10.615 24.9 24.9 0 0 0-.063-8.454 21.162 21.162 0 0 0-24.04-16.593" transform="translate(24.779 7.866)" style="fill:#fff;fill-rule:evenodd"/>
</svg>
