<svg xmlns="http://www.w3.org/2000/svg" width="100" height="100" viewBox="0 0 100 100">
    <defs>
        <clipPath id="uv6dwi2dfa">
            <path data-name="패스 916" d="M596.98 1427.425a50 50 0 1 0-50.009-50 50 50 0 0 0 50.009 50z" transform="translate(-546.971 -1327.425)" style="fill:none"/>
        </clipPath>
    </defs>
    <g data-name="그룹 460">
        <path data-name="패스 852" d="M596.98 1427.425a50 50 0 1 0-50.009-50 50 50 0 0 0 50.009 50z" transform="translate(-546.971 -1327.425)" style="fill:#006abd"/>
    </g>
    <g data-name="그룹 464">
        <g data-name="그룹 463" style="clip-path:url(#uv6dwi2dfa)">
            <g data-name="그룹 462">
                <g data-name="그룹 461">
                    <path data-name="패스 853" d="M598.584 1393.283c21.971 0 40.805 6.12 48.874 14.825a50.553 50.553 0 0 0 4.194-20.239c0-28.689-23.779-51.928-53.067-51.926s-53.064 23.244-53.064 51.938a50.56 50.56 0 0 0 4.2 20.227c8.043-8.708 26.897-14.825 48.863-14.825z" transform="translate(-548.379 -1319.157)" style="fill:#006abd"/>
                    <path data-name="패스 854" d="M598.512 1393.119c21.916 0 40.7 6.07 48.749 14.708a49.933 49.933 0 0 0 4.182-20.078c0-28.459-23.716-51.584-52.931-51.582s-52.926 23.13-52.926 51.594a49.9 49.9 0 0 0 4.186 20.066c8.028-8.637 26.828-14.708 48.74-14.708z" transform="translate(-548.315 -1318.939)" style="fill:#006cbe"/>
                    <path data-name="패스 855" d="M598.443 1392.956c21.859 0 40.6 6.02 48.622 14.587a49.243 49.243 0 0 0 4.174-19.914c0-28.228-23.654-51.238-52.8-51.237s-52.792 23.015-52.792 51.247a49.253 49.253 0 0 0 4.176 19.9c8.009-8.563 26.766-14.583 48.62-14.583z" transform="translate(-548.252 -1318.72)" style="fill:#006ec0"/>
                    <path data-name="패스 856" d="M598.373 1392.793c21.8 0 40.494 5.971 48.5 14.469a48.634 48.634 0 0 0 4.162-19.752c0-28-23.591-50.894-52.658-50.892s-52.656 22.9-52.656 50.9a48.635 48.635 0 0 0 4.164 19.742c7.982-8.496 26.691-14.467 48.488-14.467z" transform="translate(-548.188 -1318.502)" style="fill:#0070c1"/>
                    <path data-name="패스 857" d="M598.3 1392.632c21.747 0 40.39 5.92 48.371 14.347a47.979 47.979 0 0 0 4.151-19.589c0-27.767-23.529-50.548-52.522-50.546s-52.517 22.785-52.517 50.556a48.019 48.019 0 0 0 4.152 19.579c7.965-8.427 26.627-14.347 48.365-14.347z" transform="translate(-548.124 -1318.283)" style="fill:#0072c3"/>
                    <path data-name="패스 858" d="M598.23 1392.469c21.69 0 40.285 5.87 48.245 14.228a47.333 47.333 0 0 0 4.141-19.427c0-27.539-23.467-50.2-52.386-50.2s-52.382 22.672-52.382 50.213a47.378 47.378 0 0 0 4.141 19.417c7.945-8.361 26.558-14.231 48.241-14.231z" transform="translate(-548.06 -1318.064)" style="fill:#0074c4"/>
                    <path data-name="패스 859" d="M598.159 1392.305c21.635 0 40.183 5.82 48.121 14.111a46.73 46.73 0 0 0 4.128-19.266c0-27.308-23.4-49.859-52.25-49.857s-52.245 22.555-52.245 49.867a46.769 46.769 0 0 0 4.13 19.256c7.926-8.291 26.492-14.111 48.116-14.111z" transform="translate(-547.997 -1317.846)" style="fill:#0076c6"/>
                    <path data-name="패스 860" d="M598.09 1392.142c21.576 0 40.078 5.77 47.995 13.99a46.082 46.082 0 0 0 4.119-19.1c0-27.079-23.343-49.516-52.114-49.514s-52.11 22.441-52.11 49.523a46.124 46.124 0 0 0 4.121 19.092c7.899-8.221 26.419-13.991 47.989-13.991z" transform="translate(-547.932 -1317.628)" style="fill:#0078c7"/>
                    <path data-name="패스 861" d="M598.02 1391.981c21.518 0 39.974 5.719 47.869 13.87a45.476 45.476 0 0 0 4.111-18.939c0-26.849-23.28-49.171-51.976-49.169s-51.974 22.327-51.974 49.177a45.491 45.491 0 0 0 4.109 18.93c7.879-8.15 26.347-13.869 47.861-13.869z" transform="translate(-547.868 -1317.41)" style="fill:#007ac9"/>
                    <path data-name="패스 862" d="M597.948 1391.818c21.463 0 39.871 5.67 47.745 13.75a44.844 44.844 0 0 0 4.1-18.775c0-26.618-23.219-48.826-51.842-48.824-28.607 0-51.838 22.212-51.838 48.832a44.883 44.883 0 0 0 4.1 18.767c7.858-8.081 26.28-13.75 47.735-13.75z" transform="translate(-547.805 -1317.191)" style="fill:#007ccb"/>
                    <path data-name="패스 863" d="M597.879 1391.655c21.406 0 39.767 5.62 47.618 13.632a44.227 44.227 0 0 0 4.085-18.614c0-26.388-23.156-48.482-51.7-48.479-28.532 0-51.7 22.1-51.7 48.487a44.294 44.294 0 0 0 4.087 18.606c7.836-8.012 26.21-13.632 47.61-13.632z" transform="translate(-547.741 -1316.973)" style="fill:#007ecc"/>
                    <path data-name="패스 864" d="M597.807 1391.491c21.351 0 39.664 5.571 47.494 13.511a43.614 43.614 0 0 0 4.076-18.45c0-26.157-23.1-48.136-51.57-48.134-28.455 0-51.564 21.982-51.564 48.142a43.685 43.685 0 0 0 4.075 18.44c7.822-7.938 26.146-13.509 47.489-13.509z" transform="translate(-547.677 -1316.754)" style="fill:#0080ce"/>
                    <path data-name="패스 865" d="M597.737 1391.33c21.294 0 39.56 5.52 47.368 13.391a43 43 0 0 0 4.063-18.288c0-25.928-23.032-47.792-51.432-47.79-28.38 0-51.428 21.867-51.428 47.8a43.034 43.034 0 0 0 4.065 18.281c7.8-7.874 26.078-13.394 47.364-13.394z" transform="translate(-547.613 -1316.536)" style="fill:#0082cf"/>
                    <path data-name="패스 866" d="M597.668 1391.167c21.236 0 39.454 5.469 47.242 13.271a42.4 42.4 0 0 0 4.054-18.125c0-25.7-22.973-47.447-51.3-47.445-28.307 0-51.294 21.753-51.294 47.453a42.443 42.443 0 0 0 4.056 18.117c7.782-7.803 26.011-13.271 47.242-13.271z" transform="translate(-547.55 -1316.317)" style="fill:#0084d1"/>
                    <path data-name="패스 867" d="M597.6 1391c21.181 0 39.351 5.419 47.118 13.153a41.785 41.785 0 0 0 4.042-17.963c0-25.468-22.91-47.1-51.16-47.1-28.231 0-51.156 21.636-51.156 47.108a41.855 41.855 0 0 0 4.044 17.955c7.755-7.73 25.934-13.153 47.112-13.153z" transform="translate(-547.486 -1316.099)" style="fill:#0087d2"/>
                    <path data-name="패스 868" d="M597.526 1390.84c21.124 0 39.247 5.37 46.992 13.032a41.166 41.166 0 0 0 4.032-17.8c0-25.237-22.849-46.757-51.024-46.755-28.156 0-51.02 21.521-51.02 46.763a41.238 41.238 0 0 0 4.032 17.792c7.739-7.662 25.87-13.032 46.988-13.032z" transform="translate(-547.422 -1315.881)" style="fill:#0089d4"/>
                    <path data-name="패스 869" d="M597.455 1390.677c21.069 0 39.144 5.321 46.866 12.914a40.561 40.561 0 0 0 4.022-17.635c0-25.008-22.785-46.414-50.888-46.412-28.079 0-50.884 21.407-50.884 46.416a40.656 40.656 0 0 0 4.022 17.632c7.717-7.592 25.807-12.915 46.862-12.915z" transform="translate(-547.359 -1315.663)" style="fill:#008cd6"/>
                    <path data-name="패스 870" d="M597.385 1390.516c21.01 0 39.04 5.27 46.739 12.794a39.96 39.96 0 0 0 4.012-17.474c0-24.778-22.724-46.07-50.752-46.068-28.006 0-50.748 21.294-50.748 46.072a40.064 40.064 0 0 0 4.012 17.47c7.697-7.524 25.733-12.794 46.737-12.794z" transform="translate(-547.295 -1315.444)" style="fill:#008ed7"/>
                    <path data-name="패스 871" d="M597.315 1390.353c20.953 0 38.935 5.22 46.613 12.674a39.381 39.381 0 0 0 4-17.31c0-24.547-22.661-45.725-50.614-45.723-27.931 0-50.612 21.178-50.612 45.727a39.448 39.448 0 0 0 4 17.307c7.677-7.455 25.664-12.675 46.613-12.675z" transform="translate(-547.231 -1315.225)" style="fill:#0090d9"/>
                    <path data-name="패스 872" d="M597.243 1390.189c20.9 0 38.833 5.171 46.489 12.555a38.784 38.784 0 0 0 3.991-17.149c0-24.317-22.6-45.379-50.48-45.378-27.854 0-50.474 21.063-50.474 45.381a38.868 38.868 0 0 0 3.989 17.145c7.654-7.383 25.595-12.554 46.485-12.554z" transform="translate(-547.167 -1315.007)" style="fill:#0093da"/>
                    <path data-name="패스 873" d="M597.174 1390.026c20.84 0 38.728 5.122 46.363 12.435a38.174 38.174 0 0 0 3.979-16.985c0-24.088-22.537-45.035-50.342-45.033-27.779 0-50.34 20.948-50.34 45.036a38.291 38.291 0 0 0 3.979 16.981c7.634-7.312 25.527-12.434 46.361-12.434z" transform="translate(-547.103 -1314.789)" style="fill:#0095dc"/>
                    <path data-name="패스 874" d="M597.1 1389.864c20.785 0 38.626 5.069 46.239 12.315a37.616 37.616 0 0 0 3.969-16.824c0-23.857-22.476-44.689-50.208-44.687-27.7 0-50.2 20.834-50.2 44.691a37.738 37.738 0 0 0 3.967 16.82c7.615-7.246 25.458-12.315 46.233-12.315z" transform="translate(-547.039 -1314.57)" style="fill:#0098de"/>
                    <path data-name="패스 875" d="M597.032 1389.7c20.728 0 38.522 5.019 46.113 12.194a37.022 37.022 0 0 0 3.957-16.66c0-23.627-22.413-44.343-50.07-44.343-27.629 0-50.066 20.719-50.066 44.347a37.137 37.137 0 0 0 3.955 16.656c7.595-7.173 25.391-12.194 46.111-12.194z" transform="translate(-546.975 -1314.352)" style="fill:#009adf"/>
                    <path data-name="패스 876" d="M596.963 1389.538c20.671 0 38.415 4.97 45.987 12.077a36.477 36.477 0 0 0 3.947-16.5c0-23.4-22.352-44-49.934-44-27.555 0-49.932 20.6-49.932 44a36.565 36.565 0 0 0 3.947 16.5c7.572-7.107 25.322-12.077 45.985-12.077z" transform="translate(-546.912 -1314.133)" style="fill:#009de1"/>
                    <path data-name="패스 877" d="M596.891 1389.375c20.616 0 38.313 4.921 45.862 11.956a35.877 35.877 0 0 0 3.936-16.331c0-23.168-22.289-43.655-49.8-43.655-27.48 0-49.794 20.489-49.794 43.657a36 36 0 0 0 3.935 16.331c7.554-7.033 25.253-11.958 45.861-11.958z" transform="translate(-546.848 -1313.915)" style="fill:#00a0e3"/>
                    <path data-name="패스 878" d="M596.821 1389.212c20.558 0 38.208 4.871 45.736 11.838a35.31 35.31 0 0 0 3.926-16.171c0-22.937-22.228-43.31-49.662-43.31-27.4 0-49.658 20.373-49.658 43.312a35.423 35.423 0 0 0 3.924 16.17c7.532-6.968 25.184-11.839 45.734-11.839z" transform="translate(-546.784 -1313.697)" style="fill:#00a2e4"/>
                    <path data-name="패스 879" d="M596.749 1389.05c20.5 0 38.106 4.821 45.612 11.718a34.766 34.766 0 0 0 3.914-16.01c0-22.707-22.165-42.965-49.526-42.965-27.328 0-49.52 20.259-49.52 42.967a34.878 34.878 0 0 0 3.912 16.008c7.51-6.897 25.114-11.718 45.608-11.718z" transform="translate(-546.72 -1313.478)" style="fill:#00a5e6"/>
                    <path data-name="패스 880" d="M596.68 1388.887c20.444 0 38 4.772 45.486 11.6a34.182 34.182 0 0 0 3.9-15.846c0-22.478-22.1-42.621-49.39-42.621-27.253 0-49.386 20.145-49.386 42.622a34.323 34.323 0 0 0 3.9 15.845c7.497-6.828 25.052-11.6 45.49-11.6z" transform="translate(-546.657 -1313.26)" style="fill:#00a8e8"/>
                    <path data-name="패스 881" d="M596.61 1388.724c20.387 0 37.9 4.72 45.36 11.48a33.648 33.648 0 0 0 3.892-15.685c0-22.247-22.041-42.275-49.252-42.275-27.18 0-49.25 20.031-49.25 42.278a33.74 33.74 0 0 0 3.892 15.683c7.469-6.761 24.977-11.481 45.358-11.481z" transform="translate(-546.593 -1313.041)" style="fill:#00abe9"/>
                    <path data-name="패스 882" d="M596.538 1388.561c20.332 0 37.795 4.671 45.236 11.359a33.085 33.085 0 0 0 3.882-15.521c0-22.017-21.979-41.93-49.118-41.93-27.1 0-49.112 19.913-49.112 41.932a33.186 33.186 0 0 0 3.88 15.52c7.449-6.69 24.908-11.36 45.232-11.36z" transform="translate(-546.529 -1312.823)" style="fill:#00aeeb"/>
                    <path data-name="패스 883" d="M596.469 1388.4c20.275 0 37.69 4.619 45.11 11.239a32.553 32.553 0 0 0 3.871-15.359c0-21.787-21.916-41.587-48.98-41.587-27.028 0-48.978 19.8-48.978 41.587a32.662 32.662 0 0 0 3.87 15.359c7.427-6.62 24.838-11.239 45.107-11.239z" transform="translate(-546.466 -1312.605)" style="fill:#09b0ec"/>
                    <path data-name="패스 884" d="M596.4 1388.237c20.219 0 37.588 4.57 44.984 11.118a31.963 31.963 0 0 0 3.861-15.2c0-21.556-21.853-41.241-48.844-41.241-26.951 0-48.84 19.686-48.84 41.241a32.094 32.094 0 0 0 3.859 15.2c7.404-6.548 24.765-11.118 44.98-11.118z" transform="translate(-546.402 -1312.386)" style="fill:#16b3ee"/>
                    <path data-name="패스 885" d="M596.364 1388.161c20.192 0 37.534 4.542 44.924 11.048a31.653 31.653 0 0 0 3.855-15.1c0-21.418-21.826-40.988-48.779-40.988-26.916 0-48.773 19.571-48.773 40.987a31.76 31.76 0 0 0 3.853 15.1c7.398-6.508 24.736-11.047 44.92-11.047z" transform="translate(-546.369 -1312.185)" style="fill:#27b5ee"/>
                    <path data-name="패스 886" d="M596.334 1388.089c20.162 0 37.481 4.511 44.862 10.975a31.322 31.322 0 0 0 3.849-15c0-21.276-21.8-40.736-48.71-40.736-26.882 0-48.71 19.461-48.71 40.736a31.449 31.449 0 0 0 3.847 15c7.387-6.464 24.704-10.975 44.862-10.975z" transform="translate(-546.337 -1311.985)" style="fill:#34b7ef"/>
                    <path data-name="패스 887" d="M596.3 1388.015c20.137 0 37.43 4.483 44.8 10.9a30.991 30.991 0 0 0 3.845-14.9c0-21.136-21.769-40.483-48.645-40.483-26.847 0-48.645 19.347-48.645 40.483a31.106 31.106 0 0 0 3.843 14.9c7.38-6.415 24.673-10.898 44.802-10.9z" transform="translate(-546.305 -1311.784)" style="fill:#3fbaef"/>
                    <path data-name="패스 888" d="M596.269 1387.942c20.109 0 37.379 4.454 44.739 10.831a30.686 30.686 0 0 0 3.839-14.8c0-21-21.739-40.228-48.578-40.228-26.812 0-48.578 19.234-48.578 40.228a30.8 30.8 0 0 0 3.835 14.8c7.374-6.373 24.64-10.831 44.743-10.831z" transform="translate(-546.272 -1311.583)" style="fill:#49bcf0"/>
                    <path data-name="패스 889" d="M596.237 1387.867c20.082 0 37.327 4.424 44.678 10.76a30.355 30.355 0 0 0 3.835-14.7c0-20.854-21.711-39.974-48.513-39.974-26.776 0-48.513 19.119-48.513 39.974a30.451 30.451 0 0 0 3.831 14.7c7.361-6.336 24.606-10.758 44.682-10.76z" transform="translate(-546.24 -1311.383)" style="fill:#52bff1"/>
                    <path data-name="패스 890" d="M596.2 1387.794c20.054 0 37.276 4.395 44.617 10.687a30.037 30.037 0 0 0 3.829-14.6c0-20.714-21.682-39.719-48.446-39.719-26.741 0-48.446 19.008-48.446 39.719a30.142 30.142 0 0 0 3.823 14.605c7.355-6.297 24.579-10.692 44.623-10.692z" transform="translate(-546.207 -1311.182)" style="fill:#5bc1f1"/>
                    <path data-name="패스 891" d="M596.172 1387.721c20.027 0 37.225 4.367 44.558 10.616a29.726 29.726 0 0 0 3.823-14.5c0-20.572-21.652-39.467-48.381-39.467-26.705 0-48.381 18.9-48.381 39.467a29.8 29.8 0 0 0 3.819 14.507c7.341-6.256 24.541-10.622 44.562-10.623z" transform="translate(-546.175 -1310.982)" style="fill:#64c4f2"/>
                    <path data-name="패스 892" d="M596.14 1387.646c20 0 37.174 4.339 44.5 10.545a29.409 29.409 0 0 0 3.817-14.406c0-20.432-21.623-39.213-48.314-39.213-26.67 0-48.316 18.781-48.316 39.213a29.489 29.489 0 0 0 3.813 14.408c7.33-6.208 24.507-10.543 44.5-10.547z" transform="translate(-546.143 -1310.781)" style="fill:#6cc7f3"/>
                    <path data-name="패스 893" d="M596.107 1387.573c19.973 0 37.122 4.308 44.436 10.472a29.079 29.079 0 0 0 3.813-14.306c0-20.294-21.595-38.96-48.249-38.96-26.634 0-48.249 18.668-48.249 38.959a29.15 29.15 0 0 0 3.807 14.309c7.324-6.166 24.477-10.473 44.442-10.474z" transform="translate(-546.109 -1310.58)" style="fill:#74c9f3"/>
                    <path data-name="패스 894" d="M596.075 1387.5c19.946 0 37.069 4.281 44.375 10.4a28.78 28.78 0 0 0 3.807-14.207c0-20.153-21.566-38.707-48.182-38.707-26.6 0-48.184 18.554-48.184 38.7a28.849 28.849 0 0 0 3.8 14.211c7.315-6.118 24.444-10.397 44.384-10.397z" transform="translate(-546.078 -1310.379)" style="fill:#7bccf4"/>
                    <path data-name="패스 895" d="M596.042 1387.425c19.918 0 37.018 4.251 44.314 10.328a28.459 28.459 0 0 0 3.8-14.108c0-20.012-21.536-38.452-48.115-38.452-26.563 0-48.117 18.441-48.117 38.45a28.525 28.525 0 0 0 3.8 14.112c7.3-6.079 24.406-10.328 44.318-10.33z" transform="translate(-546.044 -1310.178)" style="fill:#83cff5"/>
                    <path data-name="패스 896" d="M596.01 1387.352c19.89 0 36.967 4.221 44.252 10.257a28.147 28.147 0 0 0 3.8-14.01c0-19.872-21.508-38.2-48.05-38.2s-48.052 18.329-48.052 38.2a28.2 28.2 0 0 0 3.789 14.012c7.294-6.038 24.376-10.256 44.261-10.259z" transform="translate(-546.012 -1309.978)" style="fill:#8ad1f5"/>
                    <path data-name="패스 897" d="M595.98 1387.278c19.861 0 36.914 4.192 44.191 10.185a27.85 27.85 0 0 0 3.79-13.911c0-19.731-21.479-37.946-47.981-37.946s-47.989 18.217-47.989 37.946a27.889 27.889 0 0 0 3.786 13.913c7.285-5.995 24.344-10.183 44.203-10.187z" transform="translate(-545.98 -1309.777)" style="fill:#91d4f6"/>
                    <path data-name="패스 898" d="M595.947 1387.2c19.833 0 36.862 4.164 44.13 10.114a27.539 27.539 0 0 0 3.786-13.813c0-19.59-21.451-37.692-47.916-37.692s-47.922 18.1-47.922 37.692a27.573 27.573 0 0 0 3.778 13.815c7.276-5.948 24.312-10.109 44.144-10.116z" transform="translate(-545.947 -1309.576)" style="fill:#98d6f7"/>
                    <path data-name="패스 899" d="M595.915 1387.131c19.808 0 36.811 4.133 44.069 10.041a27.24 27.24 0 0 0 3.78-13.715c0-19.448-21.42-37.437-47.849-37.437s-47.857 17.99-47.857 37.437a27.264 27.264 0 0 0 3.774 13.717c7.268-5.911 24.279-10.04 44.083-10.043z" transform="translate(-545.915 -1309.375)" style="fill:#9fd9f7"/>
                    <path data-name="패스 900" d="M595.882 1387.056c19.78 0 36.76 4.1 44.008 9.97a26.924 26.924 0 0 0 3.776-13.616c0-19.309-21.392-37.183-47.784-37.183s-47.79 17.876-47.79 37.183a26.942 26.942 0 0 0 3.766 13.618c7.258-5.867 24.248-9.966 44.024-9.972z" transform="translate(-545.882 -1309.174)" style="fill:#a5dcf8"/>
                    <path data-name="패스 901" d="M595.85 1386.983c19.752 0 36.709 4.077 43.947 9.9a26.624 26.624 0 0 0 3.77-13.516c0-19.171-21.362-36.933-47.717-36.933s-47.725 17.764-47.725 36.931a26.639 26.639 0 0 0 3.762 13.519c7.246-5.824 24.213-9.896 43.963-9.901z" transform="translate(-545.85 -1308.974)" style="fill:#acdef8"/>
                    <path data-name="패스 902" d="M595.818 1386.91c19.725 0 36.657 4.045 43.886 9.826a26.311 26.311 0 0 0 3.766-13.417c0-19.029-21.335-36.679-47.652-36.679s-47.66 17.652-47.66 36.677a26.34 26.34 0 0 0 3.756 13.422c7.239-5.784 24.186-9.823 43.904-9.829z" transform="translate(-545.818 -1308.773)" style="fill:#b2e1f9"/>
                    <path data-name="패스 903" d="M595.785 1386.834c19.7 0 36.6 4.019 43.827 9.755a26.02 26.02 0 0 0 3.758-13.318c0-18.889-21.305-36.425-47.585-36.425s-47.593 17.538-47.593 36.423a26.026 26.026 0 0 0 3.75 13.324c7.229-5.74 24.148-9.752 43.843-9.759z" transform="translate(-545.785 -1308.572)" style="fill:#b9e3f9"/>
                    <path data-name="패스 904" d="M595.753 1386.762c19.67 0 36.553 3.989 43.766 9.682a25.714 25.714 0 0 0 3.754-13.219c0-18.747-21.278-36.17-47.52-36.17s-47.528 17.425-47.528 36.168a25.739 25.739 0 0 0 3.744 13.225c7.221-5.698 24.116-9.68 43.784-9.686z" transform="translate(-545.753 -1308.372)" style="fill:#bfe5fa"/>
                    <path data-name="패스 905" d="M595.72 1386.687c19.644 0 36.5 3.96 43.7 9.611a25.436 25.436 0 0 0 3.748-13.121c0-18.608-21.248-35.916-47.453-35.916s-47.461 17.311-47.461 35.914A25.42 25.42 0 0 0 552 1396.3c7.206-5.654 24.079-9.605 43.72-9.613z" transform="translate(-545.72 -1308.17)" style="fill:#c5e8fa"/>
                    <path data-name="패스 906" d="M595.688 1386.614c19.616 0 36.45 3.93 43.643 9.538a25.122 25.122 0 0 0 3.743-13.022c0-18.468-21.217-35.662-47.386-35.662s-47.4 17.2-47.4 35.66a25.128 25.128 0 0 0 3.733 13.028c7.205-5.612 24.054-9.536 43.667-9.542z" transform="translate(-545.688 -1307.969)" style="fill:#cbeafb"/>
                    <path data-name="패스 907" d="M595.657 1386.54c19.587 0 36.4 3.9 43.58 9.467a24.823 24.823 0 0 0 3.738-12.924c0-18.325-21.189-35.41-47.319-35.41s-47.331 17.086-47.331 35.41a24.81 24.81 0 0 0 3.727 12.928c7.192-5.569 24.018-9.463 43.605-9.471z" transform="translate(-545.655 -1307.769)" style="fill:#d1edfb"/>
                    <path data-name="패스 908" d="M595.625 1386.467c19.559 0 36.346 3.87 43.519 9.394a24.526 24.526 0 0 0 3.732-12.826c0-18.186-21.16-35.155-47.252-35.155s-47.266 16.973-47.266 35.155a24.529 24.529 0 0 0 3.721 12.83c7.184-5.527 23.986-9.392 43.546-9.398z" transform="translate(-545.623 -1307.569)" style="fill:#d7effc"/>
                    <path data-name="패스 909" d="M595.593 1386.393c19.532 0 36.294 3.843 43.46 9.324a24.239 24.239 0 0 0 3.727-12.725c0-18.047-21.132-34.9-47.187-34.9-26.071 0-47.2 16.86-47.2 34.9a24.219 24.219 0 0 0 3.716 12.731c7.171-5.487 23.952-9.323 43.484-9.33z" transform="translate(-545.591 -1307.368)" style="fill:#ddf2fc"/>
                    <path data-name="패스 910" d="M595.56 1386.32c19.506 0 36.243 3.813 43.4 9.25a23.945 23.945 0 0 0 3.721-12.626c0-17.906-21.1-34.648-47.12-34.648-26.035 0-47.134 16.745-47.134 34.646a23.936 23.936 0 0 0 3.709 12.633c7.164-5.442 23.919-9.248 43.424-9.255z" transform="translate(-545.558 -1307.167)" style="fill:#e3f4fd"/>
                    <path data-name="패스 911" d="M595.528 1386.245c19.479 0 36.192 3.783 43.338 9.18a23.669 23.669 0 0 0 3.717-12.528c0-17.766-21.075-34.395-47.055-34.395-26 0-47.069 16.633-47.069 34.393a23.621 23.621 0 0 0 3.7 12.534c7.159-5.401 23.892-9.176 43.369-9.184z" transform="translate(-545.526 -1306.965)" style="fill:#e9f6fd"/>
                    <path data-name="패스 912" d="M595.495 1386.171c19.451 0 36.139 3.755 43.277 9.108a23.376 23.376 0 0 0 3.711-12.429c0-17.624-21.045-34.142-46.988-34.142-25.964 0-47 16.52-47 34.141a23.342 23.342 0 0 0 3.7 12.435c7.141-5.357 23.849-9.103 43.3-9.113z" transform="translate(-545.493 -1306.766)" style="fill:#eff9fe"/>
                    <path data-name="패스 913" d="M595.463 1386.1c19.423 0 36.088 3.726 43.216 9.036a23.083 23.083 0 0 0 3.707-12.331c0-17.484-21.018-33.888-46.923-33.888-25.929 0-46.937 16.408-46.937 33.886a23.053 23.053 0 0 0 3.693 12.337c7.134-5.315 23.82-9.034 43.244-9.04z" transform="translate(-545.461 -1306.565)" style="fill:#f5fbfe"/>
                    <path data-name="패스 914" d="M595.43 1386.023c19.4 0 36.037 3.7 43.155 8.965a22.8 22.8 0 0 0 3.7-12.232c0-17.344-20.986-33.634-46.856-33.634-25.893 0-46.871 16.294-46.871 33.632a22.762 22.762 0 0 0 3.687 12.238c7.127-5.271 23.79-8.959 43.185-8.969z" transform="translate(-545.429 -1306.364)" style="fill:#fafdff"/>
                    <path data-name="패스 915" d="M595.4 1385.951c19.368 0 35.985 3.667 43.094 8.892a22.5 22.5 0 0 0 3.7-12.133c0-17.2-20.957-33.38-46.789-33.38-25.858 0-46.8 16.182-46.8 33.379a22.47 22.47 0 0 0 3.681 12.139c7.105-5.23 23.743-8.888 43.114-8.897z" transform="translate(-545.396 -1306.163)" style="fill:#fff"/>
                </g>
            </g>
        </g>
    </g>
    <path data-name="패스 917" d="M594.835 1359.2c-16.952 0-32.68 2.872-45.665 7.736a50.005 50.005 0 0 0 91.353 0c-12.985-4.866-28.737-7.736-45.688-7.736z" transform="translate(-544.837 -1296.587)" style="fill:#006abd"/>
</svg>
