<svg width="36" height="36" viewBox="0 0 36 36" fill="none" xmlns="http://www.w3.org/2000/svg">
<rect width="29.254" height="35.9999" rx="3" fill="#F2F2F3"/>
<rect opacity="0.6" x="4.86523" y="28.8103" width="19.5306" height="1.49605" rx="0.748025" fill="#CFCFCF"/>
<rect opacity="0.6" x="4.86523" y="24.489" width="19.5306" height="1.49605" rx="0.748025" fill="#CFCFCF"/>
<rect opacity="0.6" x="4.86523" y="20.167" width="19.5306" height="1.49605" rx="0.748025" fill="#CFCFCF"/>
<path opacity="0.6" d="M4.86523 16.5935C4.86523 16.1804 5.20014 15.8455 5.61326 15.8455H11.5278C11.9409 15.8455 12.2758 16.1804 12.2758 16.5935C12.2758 17.0066 11.9409 17.3415 11.5278 17.3415H5.61326C5.20014 17.3415 4.86523 17.0066 4.86523 16.5935Z" fill="#CFCFCF"/>
<path opacity="0.6" d="M14.627 16.5935C14.627 16.1804 14.9619 15.8455 15.375 15.8455H23.6403C24.0535 15.8455 24.3884 16.1804 24.3884 16.5935C24.3884 17.0066 24.0535 17.3415 23.6403 17.3415H15.375C14.9619 17.3415 14.627 17.0066 14.627 16.5935Z" fill="#CFCFCF"/>
<path d="M4.54297 5.39739V4.11621H10.6846V5.39739H8.38539V11.5966H6.84221V5.39739H4.54297Z" fill="black"/>
<path d="M11.9792 11.5966H10.3014L12.901 4.11621H14.8999L17.4891 11.5966H15.8217L15.2624 9.87118H12.5489L11.9792 11.5966ZM12.9424 8.66233H14.8688L13.9263 5.80034H13.8746L12.9424 8.66233Z" fill="black"/>
<path d="M19.778 4.11621L21.3108 6.6889H21.3626L22.9058 4.11621H24.6665L22.3776 7.85643L24.7183 11.5966H22.9162L21.3626 9.02395H21.3108L19.7573 11.5966H17.9655L20.3166 7.85643L18.007 4.11621H19.778Z" fill="black"/>
<path d="M27.1371 19.3181C27.5174 19.3766 27.9059 19.4078 28.278 19.4936C30.6049 20.0278 32.347 21.2989 33.3816 23.3577C34.633 25.8492 34.3754 28.2667 32.805 30.5672C32.6864 30.7388 32.5433 30.8986 32.4002 31.078C32.4452 31.1209 32.486 31.1677 32.531 31.2106C33.9378 32.6026 34.2492 32.9541 35.6518 34.3461C36.0321 34.7243 36.1017 35.161 35.8522 35.5587C35.5455 36.0383 34.8503 36.1475 34.4005 35.7848C34.3309 35.7303 34.2655 35.6679 34.2042 35.6055C32.7974 34.2135 32.486 33.862 31.0834 32.47C31.0425 32.4271 31.0139 32.3764 30.9975 32.3569C30.5149 32.5987 30.0896 32.8521 29.6316 33.0354C27.5787 33.862 25.5218 33.862 23.4975 32.9574C21.3833 32.0099 20.001 30.4385 19.3958 28.2862C18.8601 26.3834 19.1259 24.5547 20.1851 22.8547C21.3097 21.0571 22.9618 19.9381 25.1005 19.4741C25.4481 19.4 25.8039 19.3688 26.1556 19.3181C26.4828 19.3181 26.8099 19.3181 27.1371 19.3181ZM26.6504 21.1897C23.5997 21.1897 21.1093 23.5604 21.1052 26.4731C21.1011 29.3819 23.567 31.7448 26.6423 31.7682C29.6848 31.7916 32.2039 29.3897 32.1957 26.477C32.1916 23.5604 29.7052 21.1897 26.6504 21.1897Z" fill="#17BF98"/>
<path d="M26.6527 21.1897C29.7075 21.1897 32.1898 23.5604 32.1979 26.477C32.202 29.3897 29.6829 31.7915 26.6445 31.7681C23.5693 31.7448 21.1033 29.3858 21.1074 26.4731C21.1115 23.5565 23.602 21.1858 26.6527 21.1897Z" fill="white" fill-opacity="0.6"/>
</svg>
