<svg width="36" height="36" viewBox="0 0 36 36" fill="none" xmlns="http://www.w3.org/2000/svg">
<rect width="36.0013" height="7.50026" rx="3.75013" fill="#EFEFF1"/>
<path d="M3.76172 6.15283C3.76172 5.04826 4.65715 4.15283 5.76172 4.15283H30.2627C31.3673 4.15283 32.2627 5.04826 32.2627 6.15283V34.0001C32.2627 35.1047 31.3673 36.0001 30.2627 36.0001H5.76172C4.65715 36.0001 3.76172 35.1047 3.76172 34.0001V6.15283Z" fill="white"/>
<rect x="2.25" y="2.25" width="31.5011" height="3.00011" rx="1.4" fill="#27CDA6"/>
<rect opacity="0.6" x="9.69531" y="24.9248" width="16.616" height="1.38466" rx="0.692332" fill="#C1C3CF"/>
<path opacity="0.4" d="M9.69531 29.769C9.69531 29.3866 10.0053 29.0767 10.3876 29.0767H20.6189C21.0013 29.0767 21.3113 29.3866 21.3113 29.769C21.3113 30.1514 21.0013 30.4613 20.6189 30.4613H10.3876C10.0053 30.4613 9.69531 30.1514 9.69531 29.769Z" fill="#C1C3CF"/>
<path d="M18.1044 9.69287C18.338 9.69287 18.548 9.75389 18.7359 9.8744C18.9238 9.99491 19.058 10.2024 19.1385 10.4983L19.9911 13.6895H21.5889L22.4557 10.271C22.5173 10.03 22.6515 9.86677 22.8583 9.78135C23.0667 9.69592 23.2815 9.67609 23.5057 9.72033C23.7488 9.76457 23.9335 9.8683 24.0614 10.0285C24.1893 10.1886 24.2161 10.3946 24.1451 10.6447L23.2767 13.688H24.494C24.6456 13.688 24.7577 13.7353 24.8287 13.8283C24.8998 13.9229 24.9345 14.0358 24.9345 14.17C24.9345 14.2951 24.8982 14.405 24.8287 14.498C24.7577 14.5926 24.6456 14.6383 24.494 14.6383H23.0178L21.9063 18.5801C21.8242 18.8745 21.6852 19.0835 21.4879 19.204C21.2905 19.3245 21.0853 19.3855 20.8721 19.3855C20.659 19.3855 20.4537 19.3245 20.2564 19.204C20.059 19.0835 19.9185 18.8669 19.838 18.5542L18.8022 14.6383H17.3418L16.216 18.5801C16.1339 18.8745 15.9934 19.0835 15.7897 19.204C15.5861 19.3245 15.3792 19.3855 15.1661 19.3855C14.9529 19.3855 14.7477 19.3245 14.5503 19.204C14.353 19.0835 14.2125 18.8714 14.1319 18.5664L13.0204 14.6383H11.5284C11.3768 14.6383 11.2647 14.5911 11.1937 14.498C11.1226 14.4034 11.0879 14.2951 11.0879 14.17C11.0879 14.0358 11.1226 13.9214 11.1937 13.8283C11.2647 13.7338 11.3768 13.688 11.5284 13.688H12.7615L11.9089 10.6447C11.8379 10.3946 11.8663 10.1886 11.9926 10.0285C12.1189 9.8683 12.3099 9.76457 12.5625 9.72033C12.7962 9.67609 13.0141 9.69135 13.2162 9.76762C13.4199 9.84389 13.5557 10.0117 13.6267 10.271L14.4951 13.6895H16.1545L17.067 10.4983C17.1476 10.2039 17.277 9.99491 17.4554 9.8744C17.6323 9.75389 17.8486 9.69287 18.1028 9.69287H18.1044ZM15.2735 16.7587L15.8829 14.6399H14.7414L15.2735 16.7587ZM17.6181 13.688H18.5464L18.1044 11.9978L17.6181 13.688ZM20.8137 16.745L21.3458 14.6399H20.25L20.8137 16.745Z" fill="black"/>
<path d="M33.3245 24.6562C33.2907 24.6843 33.243 24.7178 33.2022 24.7587C30.7585 27.2007 28.3147 29.6427 25.8737 32.0878C25.7341 32.2275 25.5819 32.3261 25.3927 32.3866C24.8167 32.5702 24.2439 32.7628 23.6718 32.9584C23.4726 33.0265 23.2915 33.0211 23.1373 32.8698C22.9782 32.7135 22.9728 32.5294 23.0431 32.3246C23.2519 31.7166 23.4488 31.1047 23.6579 30.4971C23.691 30.4008 23.7467 30.3023 23.8182 30.2307C26.3162 27.727 28.818 25.2269 31.3191 22.7267C31.336 22.7098 31.3544 22.6948 31.3587 22.6909C32.0092 23.3413 32.6563 23.9882 33.3245 24.6562Z" fill="#17BF98"/>
<path d="M34.003 23.9447C33.3502 23.292 32.7054 22.6478 32.0664 22.009C32.3563 21.7118 32.6466 21.3987 32.9553 21.1053C33.1153 20.9532 33.3706 20.9698 33.5344 21.1299C33.985 21.5693 34.4302 22.0144 34.87 22.4641C35.0423 22.6405 35.0446 22.9016 34.875 23.0779C34.589 23.3756 34.2902 23.6605 34.0026 23.9447H34.003Z" fill="#17BF98"/>
</svg>
