<svg xmlns="http://www.w3.org/2000/svg" width="311.036" height="41.447">
    <defs>
        <style>
            .cls-1{isolation:isolate}
        </style>
    </defs>
    <g id="그룹_56746" data-name="그룹 56746" transform="translate(-197.157 -1279.67)">
        <g id="자세히_알아보기" data-name="자세히 알아보기" class="cls-1">
            <g id="그룹_56762" data-name="그룹 56762" class="cls-1">
                <path id="패스_44594" data-name="패스 44594" d="M206.749 1289h-5.632a3.862 3.862 0 0 1-1.694-.33 3.55 3.55 0 0 1-1.144-.857 3.152 3.152 0 0 1-.66-1.21 4.65 4.65 0 0 1 0-2.685 3.327 3.327 0 0 1 .638-1.21 3.533 3.533 0 0 1 1.144-.88 3.814 3.814 0 0 1 1.716-.351h19.888a3.676 3.676 0 0 1 1.694.351 3.616 3.616 0 0 1 1.122.88 3.1 3.1 0 0 1 .617 1.21 5.426 5.426 0 0 1 .175 1.343 4.8 4.8 0 0 1-.2 1.342 3.516 3.516 0 0 1-.616 1.21 3.038 3.038 0 0 1-1.122.857 3.894 3.894 0 0 1-1.672.33h-5.72v4.752q0 1.542-.088 2.949t-.263 2.728a16.022 16.022 0 0 1 4.267 2.244 11.589 11.589 0 0 1 3.168 3.674 17.7 17.7 0 0 1 1.87 5.521 36.238 36.238 0 0 1 .418 7.789h-8.228a19 19 0 0 0-.462-7.172 7.952 7.952 0 0 0-2.838-4.224 21.724 21.724 0 0 1-4.092 7.04 16.174 16.174 0 0 1-5.984 4.268 4.055 4.055 0 0 1-1.518.33 5.728 5.728 0 0 1-1.584-.176 4.689 4.689 0 0 1-1.408-.616 2.575 2.575 0 0 1-.946-1.078 3.576 3.576 0 0 1 1.32-4.8 15.034 15.034 0 0 0 3.542-2.992 15.264 15.264 0 0 0 2.442-3.982 21.289 21.289 0 0 0 1.409-5.171 44.227 44.227 0 0 0 .439-6.555zm21.3-4.927a3.877 3.877 0 0 1 1.32-3.19 4.661 4.661 0 0 1 3.036-1.078 4.774 4.774 0 0 1 1.628.286 4.206 4.206 0 0 1 1.386.814 4.037 4.037 0 0 1 .968 1.32 4.283 4.283 0 0 1 .374 1.848v11.127h1.452a3.538 3.538 0 0 1 1.672.353 3.044 3.044 0 0 1 1.057.9 3.682 3.682 0 0 1 .571 1.233 5.172 5.172 0 0 1 0 2.683 3.653 3.653 0 0 1-.571 1.233 2.984 2.984 0 0 1-1.079.9 3.568 3.568 0 0 1-1.65.352h-1.452v18.259h-8.712z"/>
                <path id="패스_44595" data-name="패스 44595" d="M241.421 1312.23a14.417 14.417 0 0 0 2.838-3.454 17.252 17.252 0 0 0 1.782-4.533 36.54 36.54 0 0 0 .924-6.16q.266-3.54.265-8.382v-4.443a3.88 3.88 0 0 1 1.187-3.124 4.593 4.593 0 0 1 5.809.044 3.836 3.836 0 0 1 1.231 3.08v4.4a80.689 80.689 0 0 1-.527 9.636 13.469 13.469 0 0 1 3.586 2.487 11.952 11.952 0 0 1 2.573 3.828 19.8 19.8 0 0 1 1.408 5.5 41.1 41.1 0 0 1 .132 7.5h-8.008a24.507 24.507 0 0 0 .154-6.556 9.385 9.385 0 0 0-1.562-4.269 24.247 24.247 0 0 1-2.816 6.424 14.219 14.219 0 0 1-3.7 3.961 5.22 5.22 0 0 1-1.429.7 5.773 5.773 0 0 1-1.651.286 4.422 4.422 0 0 1-1.628-.263 3.114 3.114 0 0 1-1.364-.99 3.2 3.2 0 0 1-.7-1.365 4.071 4.071 0 0 1-.066-1.517 4.449 4.449 0 0 1 .506-1.5 4.669 4.669 0 0 1 1.056-1.29zm22.969-12.54h-3.609a3.889 3.889 0 0 1-1.694-.33 3.405 3.405 0 0 1-1.144-.88 3.358 3.358 0 0 1-.66-1.233 4.643 4.643 0 0 1 0-2.683 3.31 3.31 0 0 1 .638-1.21 3.49 3.49 0 0 1 1.144-.88 3.814 3.814 0 0 1 1.716-.353h3.609v-8.58a3.487 3.487 0 0 1 1.1-2.794 3.917 3.917 0 0 1 2.64-.945 4.111 4.111 0 0 1 2.662.945 3.39 3.39 0 0 1 1.166 2.794v37.576h-7.568zm9.635-16.149a3.361 3.361 0 0 1 1.188-2.794 4.259 4.259 0 0 1 2.728-.945 4.485 4.485 0 0 1 1.453.241 3.735 3.735 0 0 1 1.253.727 3.521 3.521 0 0 1 1.21 2.771v37.576h-7.832z"/>
                <path id="패스_44596" data-name="패스 44596" d="M297.829 1279.67a4.591 4.591 0 0 1 3.322 1.165 4.341 4.341 0 0 1 1.21 3.279v.4h6.38a3.012 3.012 0 0 1 2.464 1.012 3.914 3.914 0 0 1-.021 4.862 3 3 0 0 1-2.443 1.033h-.132a12.834 12.834 0 0 1 .573 1.826 9.078 9.078 0 0 1 .219 2.046v13.685a12.872 12.872 0 0 1-.9 5.038 9.642 9.642 0 0 1-2.464 3.52 10.178 10.178 0 0 1-3.674 2.068 14.686 14.686 0 0 1-4.532.682 14.477 14.477 0 0 1-4.51-.682 10.218 10.218 0 0 1-3.652-2.068 9.642 9.642 0 0 1-2.464-3.52 12.891 12.891 0 0 1-.9-5.038v-13.685a9.781 9.781 0 0 1 .748-3.872h-.044a2.994 2.994 0 0 1-2.442-1.033 3.7 3.7 0 0 1-.859-2.442 3.74 3.74 0 0 1 .815-2.42 2.943 2.943 0 0 1 2.441-1.012h6.336v-.4a4.338 4.338 0 0 1 1.21-3.279 4.589 4.589 0 0 1 3.319-1.165zm0 33.44a3.165 3.165 0 0 0 2.311-.991 4.233 4.233 0 0 0 .989-3.1v-14.036a3.962 3.962 0 0 0-.968-3.036 3.348 3.348 0 0 0-2.332-.88 3.293 3.293 0 0 0-2.288.88 3.966 3.966 0 0 0-.968 3.036v14.036a4.229 4.229 0 0 0 .991 3.1 3.114 3.114 0 0 0 2.265.991zm17.645 8.007v-36.96a4 4 0 0 1 1.319-3.255 4.862 4.862 0 0 1 6.16 0 4 4 0 0 1 1.32 3.255v36.96z"/>
                <path id="패스_44597" data-name="패스 44597" d="M339.8 1289.966a10.023 10.023 0 0 1 .9-4.467 8.02 8.02 0 0 1 2.508-2.991 10.586 10.586 0 0 1 3.894-1.694 24.468 24.468 0 0 1 10.12 0 10.6 10.6 0 0 1 3.894 1.694 8.039 8.039 0 0 1 2.508 2.991 10.037 10.037 0 0 1 .9 4.467v1.188a10.029 10.029 0 0 1-.9 4.465 8.038 8.038 0 0 1-2.508 2.993 10.635 10.635 0 0 1-3.894 1.694 24.556 24.556 0 0 1-10.12 0 10.62 10.62 0 0 1-3.894-1.694 8.02 8.02 0 0 1-2.508-2.993 10.015 10.015 0 0 1-.9-4.465zm7.964 31.151a6.9 6.9 0 0 1-2.662-.483 5.642 5.642 0 0 1-1.958-1.32 5.83 5.83 0 0 1-1.21-1.914 6.207 6.207 0 0 1-.418-2.266v-.528a4.778 4.778 0 0 1 1.606-3.784 6.832 6.832 0 0 1 4.642-1.409h21.252v-1.143a.863.863 0 0 0-.132-.55.763.763 0 0 0-.572-.154h-23.887a2.123 2.123 0 0 1-1.848-.792 3 3 0 0 1-.572-1.8 2.964 2.964 0 0 1 .572-1.738 2.1 2.1 0 0 1 1.848-.815h28.16a6.561 6.561 0 0 1 4.158 1.013q1.21 1.012 1.21 3.607v7.04h-26.18a.983.983 0 0 0-.726.243.809.809 0 0 0-.242.593v.133a.808.808 0 0 0 .242.594.986.986 0 0 0 .726.242h24.816a2.183 2.183 0 0 1 1.914.836 3.12 3.12 0 0 1 .594 1.848 2.971 2.971 0 0 1-.572 1.738 2.2 2.2 0 0 1-1.936.813zm.7-29.655a2.839 2.839 0 0 0 .99 2.42 5.268 5.268 0 0 0 5.412 0 2.839 2.839 0 0 0 .99-2.42v-1.805a2.849 2.849 0 0 0-.99-2.4 5.14 5.14 0 0 0-5.412 0 2.849 2.849 0 0 0-.99 2.4zm20.46-7.305a4.026 4.026 0 0 1 1.3-3.255 4.734 4.734 0 0 1 6.094.022 4.007 4.007 0 0 1 1.32 3.233v2.729h1.364a3.716 3.716 0 0 1 1.672.33 2.834 2.834 0 0 1 1.056.88 3.68 3.68 0 0 1 .572 1.21 5.11 5.11 0 0 1 .176 1.319 5.376 5.376 0 0 1-.176 1.343 3.432 3.432 0 0 1-.572 1.21 2.881 2.881 0 0 1-1.078.857 3.75 3.75 0 0 1-1.65.33h-1.364v6.645h-8.712z"/>
                <path id="패스_44598" data-name="패스 44598" d="M383.1 1292.342a13.54 13.54 0 0 1 .9-5.126 10.286 10.286 0 0 1 2.508-3.719 10.4 10.4 0 0 1 3.85-2.243 16.751 16.751 0 0 1 9.9 0 10.61 10.61 0 0 1 3.872 2.243 9.946 9.946 0 0 1 2.508 3.719 13.847 13.847 0 0 1 .881 5.126v16.1a13.844 13.844 0 0 1-.881 5.126 9.921 9.921 0 0 1-2.508 3.717 10.6 10.6 0 0 1-3.872 2.244 16.73 16.73 0 0 1-9.9 0 10.381 10.381 0 0 1-3.85-2.244 10.26 10.26 0 0 1-2.508-3.717 13.537 13.537 0 0 1-.9-5.126zm8.624 16.323a4.716 4.716 0 0 0 1.012 3.323 3.665 3.665 0 0 0 5.192 0 4.716 4.716 0 0 0 1.012-3.323v-16.544a4.71 4.71 0 0 0-1.012-3.321 3.665 3.665 0 0 0-5.192 0 4.71 4.71 0 0 0-1.012 3.321zm20.24-24.6a3.877 3.877 0 0 1 1.32-3.19 4.661 4.661 0 0 1 3.036-1.078 4.774 4.774 0 0 1 1.628.286 4.216 4.216 0 0 1 1.386.814 4.052 4.052 0 0 1 .968 1.32 4.284 4.284 0 0 1 .374 1.848v11.135h1.452a3.538 3.538 0 0 1 1.672.353 3.031 3.031 0 0 1 1.056.9 3.664 3.664 0 0 1 .572 1.233 5.172 5.172 0 0 1 0 2.683 3.636 3.636 0 0 1-.572 1.233 2.981 2.981 0 0 1-1.078.9 3.571 3.571 0 0 1-1.65.352h-1.452v18.259h-8.712z"/>
                <path id="패스_44599" data-name="패스 44599" d="M441.182 1313.11v-7.7h-7.525a13 13 0 0 1-3.234-.33 3.835 3.835 0 0 1-1.958-1.122 4.224 4.224 0 0 1-.945-2.09 17.881 17.881 0 0 1-.243-3.233v-14.125a4 4 0 0 1 .374-1.805 3.275 3.275 0 0 1 1.012-1.21 4.435 4.435 0 0 1 1.452-.681 6.448 6.448 0 0 1 1.7-.22 5.6 5.6 0 0 1 1.628.241 4.582 4.582 0 0 1 1.429.727 3.7 3.7 0 0 1 1.034 1.231 3.819 3.819 0 0 1 .4 1.805v1.672H455v-1.76a4.008 4.008 0 0 1 .374-1.805 3.369 3.369 0 0 1 .99-1.21 4.193 4.193 0 0 1 1.43-.681 6.452 6.452 0 0 1 1.694-.22 6.288 6.288 0 0 1 1.65.22 4.193 4.193 0 0 1 1.43.681 3.575 3.575 0 0 1 1.012 1.21 3.816 3.816 0 0 1 .4 1.805v20.9h-13.823v7.7h12.408a4.3 4.3 0 0 1 1.716.307 3.1 3.1 0 0 1 1.783 1.958 4.4 4.4 0 0 1 .2 1.3 3.9 3.9 0 0 1-.858 2.464 3.386 3.386 0 0 1-2.838 1.1h-33.795a3.383 3.383 0 0 1-2.837-1.1 3.9 3.9 0 0 1-.859-2.464 4.4 4.4 0 0 1 .2-1.3 3.14 3.14 0 0 1 .638-1.143 3.18 3.18 0 0 1 1.145-.815 4.287 4.287 0 0 1 1.715-.307zM455 1298.325v-5.235h-18.7v3.916a1.47 1.47 0 0 0 .286.989 1.387 1.387 0 0 0 1.078.33z"/>
                <path id="패스_44600" data-name="패스 44600" d="M472.2 1312.054a20.691 20.691 0 0 0 5.038-1.078 9.76 9.76 0 0 0 3.85-2.486 11.14 11.14 0 0 0 2.442-4.4 22.846 22.846 0 0 0 .859-6.776v-7.128a1.121 1.121 0 0 0-.286-.792 1.06 1.06 0 0 0-.815-.309h-10.031a4.168 4.168 0 0 1-1.737-.329 3.694 3.694 0 0 1-1.21-.858 3.481 3.481 0 0 1-.727-1.21 4.119 4.119 0 0 1-.242-1.386 4.016 4.016 0 0 1 .242-1.343 3.724 3.724 0 0 1 .727-1.231 3.8 3.8 0 0 1 1.21-.9 3.951 3.951 0 0 1 1.737-.351h13.024q3.739 0 5.325 1.672a6.647 6.647 0 0 1 1.583 4.752v9.46a28.494 28.494 0 0 1-1.562 10.032 18.2 18.2 0 0 1-4.29 6.775 16.7 16.7 0 0 1-6.4 3.872 26.473 26.473 0 0 1-7.9 1.321 5.922 5.922 0 0 1-1.584-.22 3.967 3.967 0 0 1-1.386-.683 3.341 3.341 0 0 1-.946-1.166 3.445 3.445 0 0 1-.307-1.716 3.96 3.96 0 0 1 .9-2.375 3.586 3.586 0 0 1 2.486-1.147zm27.193 9.063v-36.96a4 4 0 0 1 1.319-3.255 4.862 4.862 0 0 1 6.16 0 4 4 0 0 1 1.32 3.255v36.96z"/>
            </g>
        </g>
    </g>
</svg>
