<svg width="32" height="32" viewBox="0 0 32 32" fill="none" xmlns="http://www.w3.org/2000/svg">
<path d="M32 29.5V2.5C32 1.80952 31.756 1.22024 31.2679 0.732143C30.7798 0.244048 30.1905 0 29.5 0H2.5C1.80952 0 1.22024 0.244048 0.732143 0.732143C0.244048 1.22024 0 1.80952 0 2.5V29.5C0 30.1905 0.244048 30.7798 0.732143 31.2679C1.22024 31.756 1.80952 32 2.5 32H29.5C30.1905 32 30.7798 31.756 31.2679 31.2679C31.756 30.7798 32 30.1905 32 29.5ZM16 4.5C18.3571 4.5 20.5327 4.95833 22.5268 5.875C24.5208 6.79167 26.0982 8.03572 27.2589 9.60714C28.4196 11.1786 29 12.8929 29 14.75C29 16.6071 28.4196 18.3214 27.2589 19.8929C26.0982 21.4643 24.5208 22.7083 22.5268 23.625C20.5327 24.5417 18.3571 25 16 25C15.2143 25 14.4464 24.9464 13.6964 24.8393C12.8869 25.4226 11.8125 26.1667 10.4732 27.0714C9.13393 27.9762 8.375 28.4405 8.19643 28.4643C8.08929 28.5119 7.9881 28.506 7.89286 28.4464C7.84524 28.4226 7.8125 28.3839 7.79464 28.3304C7.77679 28.2768 7.76786 28.2321 7.76786 28.1964V28.1429C7.77976 28.0833 8.22024 26.5119 9.08929 23.4286C7.23214 22.5119 5.75298 21.2857 4.65179 19.75C3.5506 18.2143 3 16.5476 3 14.75C3 12.8929 3.58036 11.1786 4.74107 9.60714C5.90179 8.03572 7.47917 6.79167 9.47322 5.875C11.4673 4.95833 13.6429 4.5 16 4.5Z" fill="white"/>
</svg>
